<svg viewBox="0 0 363.4375 55" xmlns="http://www.w3.org/2000/svg"><rect fill="#1a1a1a" height="42.76074" rx="7.5" width="42.76025" x="120.83496" y="6.125"/><path d="m156.09543 6.62469a7.00794 7.00794 0 0 1 7 7v27.76059a7.00794 7.00794 0 0 1 -7 7h-27.76059a7.00794 7.00794 0 0 1 -7-7v-27.76059a7.00794 7.00794 0 0 1 7-7zm0-1h-27.76059a8.02353 8.02353 0 0 0 -8 8v27.76059a8.02352 8.02352 0 0 0 8 8h27.76059a8.02353 8.02353 0 0 0 8-8v-27.76059a8.02353 8.02353 0 0 0 -8-8z" fill="#808080"/><path d="m148.08252 23.168h-11.45459l.56006-2.24121h14.5918l-.47657 2.26855-15.12353 15.48825h12.771l-.47607 2.24024h-15.85157l.47607-2.21289z" fill="#fff"/><rect fill="#1a1a1a" height="42.75977" rx="7.5" width="86.521" x="5.5" y="6.16602"/><path d="m84.52118 6.66556a7.00794 7.00794 0 0 1 7 7v27.76059a7.00794 7.00794 0 0 1 -7 7h-71.52118a7.00794 7.00794 0 0 1 -7-7v-27.76059a7.00794 7.00794 0 0 1 7-7zm0-1h-71.52118a8.02352 8.02352 0 0 0 -8 8v27.76059a8.02353 8.02353 0 0 0 8 8h71.52118a8.02353 8.02353 0 0 0 8-8v-27.76059a8.02353 8.02353 0 0 0 -8-8z" fill="#808080"/><g fill="#fff"><path d="m43.99854 30.11523a2.898 2.898 0 0 0 -2.03028-.67285 4.25841 4.25841 0 0 0 -2.19531.5586 5.23816 5.23816 0 0 0 -1.59912 1.44726 6.51014 6.51014 0 0 0 -.97705 1.99219 7.54468 7.54468 0 0 0 -.33008 2.16992 6.13427 6.13427 0 0 0 .165 1.44629 3.21781 3.21781 0 0 0 .54545 1.19336 2.72132 2.72132 0 0 0 1.00293.8125 3.46961 3.46961 0 0 0 1.53515.30469 3.88429 3.88429 0 0 0 2.38623-.73633 4.22425 4.22425 0 0 0 1.44678-1.9541h2.15723a5.982 5.982 0 0 1 -2.13184 3.40039 6.22212 6.22212 0 0 1 -3.8584 1.168 5.23559 5.23559 0 0 1 -4.04785-1.47266 5.9091 5.9091 0 0 1 -1.35791-4.16211 9.72708 9.72708 0 0 1 .46924-3.02051 7.83691 7.83691 0 0 1 1.396-2.57617 6.8378 6.8378 0 0 1 2.28418-1.80176 6.91825 6.91825 0 0 1 3.10937-.67285 5.39213 5.39213 0 0 1 3.54053 1.0791 4.33992 4.33992 0 0 1 1.3833 3.3877h-2.15723a2.43236 2.43236 0 0 0 -.73632-1.89066z"/><path d="m57.93262 27.84375-.40625 1.90332h-2.61426l-1.62451 7.71582c-.01709.15234-.03418.29688-.05078.43164a3.45628 3.45628 0 0 0 -.02539.43164.70424.70424 0 0 0 .39355.69824 2.04235 2.04235 0 0 0 .90088.19043 3.13059 3.13059 0 0 0 .63476-.06347 5.38965 5.38965 0 0 0 .60889-.165l-.38037 1.97949q-.38087.05127-.76172.08887-.38085.03809-.76123.03808a7.01624 7.01624 0 0 1 -1.14209-.08886 2.5606 2.5606 0 0 1 -.92676-.33008 1.84823 1.84823 0 0 1 -.63427-.64746 2.00926 2.00926 0 0 1 -.24121-1.04 3.58722 3.58722 0 0 1 .03808-.53321q.03809-.25341.08887-.55859l1.72607-8.14746h-2.20849l.40625-1.90332h2.208l.8125-3.88281h2.15723l-.812 3.88281z"/><path d="m64.25195 27.84375-.63427 2.81738h.05078a7.20128 7.20128 0 0 1 1.9414-2.2334 4.56831 4.56831 0 0 1 2.83008-.88867 2.60578 2.60578 0 0 0 .38086-.02539 1.0084 1.0084 0 0 1 .38086.02539l-.50781 2.30957a1.535 1.535 0 0 0 -.33008-.02539h-.3042c-.271 0-.49121.00488-.66016.0127a3.20641 3.20641 0 0 0 -.63427.11426 4.16812 4.16812 0 0 0 -1.58643.7871 5.57517 5.57517 0 0 0 -1.20557 1.3447 5.337 5.337 0 0 0 -.68554 1.48535q-.25416.85109-.40625 1.58594l-1.24365 5.8125h-2.13184l2.71582-13.12207z"/><path d="m75.80078 22.84375-3.80762 18.12207h-2.13183l3.78174-18.12207z"/></g><rect fill="#1a1a1a" height="42.76074" rx="7.5" width="42.76073" x="314.73926" y="6.10449"/><path d="m350 6.60425a7.00794 7.00794 0 0 1 7 7v27.76059a7.00794 7.00794 0 0 1 -7 7h-27.76059a7.00794 7.00794 0 0 1 -7-7v-27.76059a7.00794 7.00794 0 0 1 7-7zm0-1h-27.76059a8.02353 8.02353 0 0 0 -8 8v27.76059a8.02353 8.02353 0 0 0 8 8h27.76059a8.02353 8.02353 0 0 0 8-8v-27.76059a8.02352 8.02352 0 0 0 -8-8z" fill="#808080"/><path d="m329.41211 20.90723h2.82861l4.08887 9.69043 7.58984-9.69043h3.08057l-9.68994 11.959-1.73682 8.03809h-2.60449l1.7085-8.03809z" fill="#fff"/><rect fill="#1a1a1a" height="42.75977" rx="7.5" width="86.521" x="199.40479" y="6.14551"/><path d="m278.42575 6.64514a7.00794 7.00794 0 0 1 7 7v27.76059a7.00794 7.00794 0 0 1 -7 7h-71.52118a7.00793 7.00793 0 0 1 -7-7v-27.76059a7.00793 7.00793 0 0 1 7-7zm0-1h-71.52118a8.02351 8.02351 0 0 0 -8 8v27.76059a8.02353 8.02353 0 0 0 8 8h71.52118a8.02353 8.02353 0 0 0 8-8v-27.76059a8.02351 8.02351 0 0 0 -8-8z" fill="#808080"/><path d="m237.90332 30.09473a2.89795 2.89795 0 0 0 -2.03027-.67285 4.25844 4.25844 0 0 0 -2.19532.55859 5.23841 5.23841 0 0 0 -1.59912 1.44726 6.51036 6.51036 0 0 0 -.977 1.99219 7.54507 7.54507 0 0 0 -.33008 2.16992 6.13421 6.13421 0 0 0 .165 1.44629 3.21812 3.21812 0 0 0 .54541 1.19336 2.7214 2.7214 0 0 0 1.00293.8125 3.46952 3.46952 0 0 0 1.53516.30469 3.88433 3.88433 0 0 0 2.38623-.73633 4.2242 4.2242 0 0 0 1.44678-1.9541h2.15722a5.98193 5.98193 0 0 1 -2.13183 3.40039 6.22216 6.22216 0 0 1 -3.8584 1.168 5.23552 5.23552 0 0 1 -4.04785-1.47266 5.9091 5.9091 0 0 1 -1.35791-4.16211 9.727 9.727 0 0 1 .46924-3.0205 7.83684 7.83684 0 0 1 1.396-2.57618 6.83784 6.83784 0 0 1 2.28418-1.80175 6.91819 6.91819 0 0 1 3.10938-.67286 5.39205 5.39205 0 0 1 3.54052 1.07911 4.33986 4.33986 0 0 1 1.3833 3.38769h-2.15722a2.43233 2.43233 0 0 0 -.73635-1.89065z" fill="#fff"/><path d="m251.8374 27.82324-.40625 1.90332h-2.61426l-1.62451 7.71582c-.01709.15235-.03418.29688-.05078.43164a3.45639 3.45639 0 0 0 -.02539.43164.70426.70426 0 0 0 .39356.69825 2.04244 2.04244 0 0 0 .90087.19043 3.13068 3.13068 0 0 0 .63477-.06348 5.38965 5.38965 0 0 0 .60889-.165l-.38037 1.97949q-.38087.05127-.76172.08887-.38087.03809-.76123.03809a7.0162 7.0162 0 0 1 -1.14209-.08887 2.5606 2.5606 0 0 1 -.92676-.33008 1.84825 1.84825 0 0 1 -.63428-.64746 2.00936 2.00936 0 0 1 -.24121-1.04 3.58706 3.58706 0 0 1 .03809-.5332q.03808-.25343.08886-.5586l1.72608-8.14746h-2.2085l.40625-1.90332h2.208l.8125-3.88281h2.15723l-.812 3.88281z" fill="#fff"/><path d="m258.15674 27.82324-.63428 2.81738h.05078a7.20115 7.20115 0 0 1 1.94141-2.23339 4.56825 4.56825 0 0 1 2.83008-.88868 2.606 2.606 0 0 0 .38086-.02539 1.00841 1.00841 0 0 1 .38086.02539l-.50782 2.30957a1.53489 1.53489 0 0 0 -.33008-.02539h-.30419c-.271 0-.49122.00489-.66016.0127a3.20662 3.20662 0 0 0 -.63428.11426 4.16817 4.16817 0 0 0 -1.58642.78711 5.57491 5.57491 0 0 0 -1.20557 1.34472 5.337 5.337 0 0 0 -.68555 1.48536q-.25415.85107-.40625 1.58593l-1.24365 5.8125h-2.13184l2.71582-13.12207z" fill="#fff"/><path d="m269.70557 22.82324-3.80757 18.12207h-2.13184l3.78174-18.12207z" fill="#fff"/><path d="m104.874 32.4248h-6.08543v-2.85546h6.08543v-6.42579h2.95752v6.42579h6.08548v2.85546h-6.08545v6.42579h-2.95755z"/><path d="m299.11621 32.4248h-6.08545v-2.85546h6.08545v-6.42579h2.95752v6.42579h6.08545v2.85546h-6.08545v6.42579h-2.95752z"/></svg>