<svg xmlns="http://www.w3.org/2000/svg" viewBox="0 0 85 115"><title>wheel</title><path d="M42.5,104.47754A30.23971,30.23971,0,0,1,17.83105,91.72168c-5.04-7.3252-7.49023-18.36426-7.49023-33.749,0-12.94239.77246-27.29493,6.501-35.62012,6.51757-9.4707,18.873-10.88477,25.6582-10.88477s19.14062,1.41407,25.6582,10.88477c5.72852,8.32519,6.501,22.67773,6.501,35.62012,0,15.38476-2.4502,26.42382-7.49023,33.749A30.23971,30.23971,0,0,1,42.5,104.47754Z"/><path d="M42.5,11.968c8.74243,0,19.51672,2.3422,25.24591,10.66739s6.41321,22.63341,6.41321,35.33724-1.6734,25.14067-7.40259,33.46586a29.7318,29.7318,0,0,1-48.51306,0c-5.72919-8.32519-7.40259-20.762-7.40259-33.46586s.68408-27.012,6.41321-35.33724S33.75757,11.968,42.5,11.968m0-1c-6.88324,0-19.423,1.44213-26.0697,11.1005C10.63916,30.48381,9.84088,44.298,9.84088,57.97266c0,15.49,2.47907,26.6222,7.5788,34.03277a30.7316,30.7316,0,0,0,50.16064,0c5.09973-7.41057,7.5788-18.54277,7.5788-34.03277,0-13.67466-.79828-27.48885-6.58942-35.90413C61.923,12.41016,49.38324,10.968,42.5,10.968Z" fill="gray"/><line x1="10.87497" y1="53.5206" x2="74.12503" y2="53.5206" fill="none" stroke="#fff" stroke-miterlimit="10" stroke-width="2"/><line x1="42.5" y1="11.96804" x2="42.5" y2="53.60328" fill="none" stroke="#fff" stroke-miterlimit="10" stroke-width="2"/><rect x="37.55327" y="19.55303" width="9.89347" height="24.73367" rx="4" ry="4" fill="#666" stroke="#fff" stroke-miterlimit="10" stroke-width="2"/></svg>