<svg xmlns="http://www.w3.org/2000/svg" viewBox="0 0 1311 870"><defs><style>.a{fill:#2e2f38;}.b{fill:#767991;}.c{fill:#656a7d;stroke:#1b1c21;}.aa,.ac,.ad,.ae,.c,.f,.x,.z{stroke-miterlimit:10;}.c,.f,.l,.w,.y{stroke-width:2px;}.d{fill:#c1c6db;}.e{fill:#292929;}.ad,.ae,.f,.g,.h,.i,.k,.o,.u,.v{fill:none;}.f{stroke:#9294b3;}.g,.h,.k{stroke:#262a2e;stroke-linecap:round;stroke-width:6px;}.h{stroke-dasharray:0 11.75;}.i{stroke:#8d9db2;}.i,.u,.x{stroke-width:7px;}.j{fill:#8d9db2;}.k{stroke-dasharray:0 12.18182;}.l{fill:#fff;}.l,.o{stroke:#262626;}.m{fill:#242947;}.n{fill:#8993a3;}.o,.v{stroke-width:4px;}.p{fill:#393c57;}.q,.x{fill:#252738;}.r{fill:#969ab8;}.s,.t,.y{fill:#91c1ff;}.t{stroke:#91c1ff;}.ab,.ac,.u,.w,.y{stroke:#000;}.ae,.v{stroke:#fff;}.x{stroke:#e8ebf0;}.aa,.z{fill:#1a1a1a;stroke-width:5px;}.z{stroke:#1a1a1a;opacity:0.76;}.aa{stroke:#f2f2f2;}.ab{fill:#a5ccff;}.ad{stroke:#40454d;}.ad,.ae{stroke-width:3px;}</style></defs><title>gui-mc-help-light</title><rect class="a" x="478.7251" y="22.79688" width="342" height="346"/><path class="b" d="M820.22461,23.29688v345h-341v-345h341m1-1h-343v347h343v-347Z"/><rect class="a" x="53.00049" y="484" width="342" height="346"/><path class="b" d="M394.5,484.5v345H53.5v-345h341m1-1H52.5v347h343v-347Z"/><rect class="a" x="479.1333" y="484" width="342" height="346"/><path class="b" d="M820.6333,484.5v345h-341v-345h341m1-1h-343v347h343v-347Z"/><rect class="a" x="905.00049" y="484" width="342" height="346"/><path class="b" d="M1246.5,484.5v345h-341v-345h341m1-1h-343v347h343v-347Z"/><path class="c" d="M913,561.40629v-59.394A10.00616,10.00616,0,0,1,923,492h60v69.40629Z"/><path class="c" d="M943,541.40629v-39.394A10.00616,10.00616,0,0,1,953,492h60v49.40629Z"/><path class="c" d="M973,541.40629v-39.394A10.00616,10.00616,0,0,1,983,492h60v49.40629Z"/><path class="c" d="M769.72476,541V501.606a10.00616,10.00616,0,0,0-10-10.01231h-60V541Z"/><path class="c" d="M486.72476,561V501.606a10.00617,10.00617,0,0,1,10-10.01231h60V561Z"/><path class="c" d="M516.72476,541V501.606a10.00617,10.00617,0,0,1,10-10.01231h60V541Z"/><path class="c" d="M60.72476,561V501.606a10.00617,10.00617,0,0,1,10-10.01231h60V561Z"/><path class="c" d="M348.72476,541V501.606a10.00616,10.00616,0,0,0-10-10.01231h-60V541Z"/><path class="c" d="M318.72476,541V501.606a10.00616,10.00616,0,0,0-10-10.01231h-60V541Z"/><path class="d" d="M59.00049,824V551a12.01312,12.01312,0,0,1,12-12H88.73877l.26172-37.01367a12.01022,12.01022,0,0,1,12-11.98633h175a11.73806,11.73806,0,0,1,11.72461,11.72461V539h89.27539a12.01312,12.01312,0,0,1,12,12V824Z"/><path class="e" d="M276,492a9.72475,9.72475,0,0,1,9.72461,9.72473V541H377a10,10,0,0,1,10,10V822H61V551a10,10,0,0,1,10-10H90.72461L91,502a10,10,0,0,1,10-10H276m0-4H101a14.01581,14.01581,0,0,0-14,14l-.24707,35H71a14.01581,14.01581,0,0,0-14,14V826H391V551a14.01581,14.01581,0,0,0-14-14H289.72461V501.72473A13.74014,13.74014,0,0,0,276,488Z"/><path class="f" d="M285.72476,541H377a10,10,0,0,1,10,10V822H61V551a10,10,0,0,1,10-10H90.72476L91,502a10,10,0,0,1,10-10H276a9.72476,9.72476,0,0,1,9.72476,9.72476Z"/><path class="c" d="M769.72476,80V40.606a10.00616,10.00616,0,0,0-10-10.01231h-60V80Z"/><path class="c" d="M739.72476,80V40.606a10.00616,10.00616,0,0,0-10-10.01231h-60V80Z"/><path class="c" d="M709.72476,80V40.606a10.00616,10.00616,0,0,0-10-10.01231h-60V80Z"/><path class="d" d="M911.00049,824V551a12.01312,12.01312,0,0,1,12-12h80V502a12.01312,12.01312,0,0,1,12-12h178a12.01312,12.01312,0,0,1,12,12v29a8.00916,8.00916,0,0,0,8,8h16a12.01312,12.01312,0,0,1,12,12V824Z"/><path class="e" d="M1193,492a10,10,0,0,1,10,10v29a10,10,0,0,0,10,10h16a10,10,0,0,1,10,10V822H913V551a10,10,0,0,1,10-10h82V502a10,10,0,0,1,10-10h178m0-4H1015a14.01581,14.01581,0,0,0-14,14v35H923a14.01581,14.01581,0,0,0-14,14V826h334V551a14.01581,14.01581,0,0,0-14-14h-16a6.00671,6.00671,0,0,1-6-6V502a14.01581,14.01581,0,0,0-14-14Z"/><path class="f" d="M1239,822H913V551a10,10,0,0,1,10-10h82V502a10,10,0,0,1,10-10h178a10,10,0,0,1,10,10v29a10,10,0,0,0,10,10h16a10,10,0,0,1,10,10Z"/><polygon points="1077.686 452.917 1077.686 229.009 827.794 229.009 827.794 220.009 1086.686 220.009 1086.686 452.917 1077.686 452.917"/><path d="M1085.68546,221.00879V451.917h-7V228.00879H828.79386v-7h256.8916m2-2H826.79386v11h249.8916V453.917h11V219.00879Z"/><polygon points="1059.16 435.664 1065.753 429.524 1082.193 447.738 1098.626 429.524 1105.219 435.664 1082.193 460.995 1059.16 435.664"/><path d="M1098.688,430.94788l5.127,4.7749-21.62207,23.78589L1060.564,435.72278l5.127-4.7749,16.502,18.28271,16.49512-18.28271m-.12378-2.84839-1.36109,1.50866-15.01049,16.63721-15.01709-16.63757-1.36109-1.50806-1.48657,1.38452-5.127,4.77491-1.44629,1.34692,1.32959,1.46228,21.6289,23.78589,1.48,1.62744,1.47973-1.62769,21.62207-23.78588,1.3291-1.46216-1.446-1.3468-5.12695-4.77491-1.48682-1.38476Z"/><polygon points="201.394 452.917 201.394 220.009 470.286 220.009 470.286 229.009 210.394 229.009 210.394 452.917 201.394 452.917"/><path d="M469.286,221.00879v7H209.39346V451.917h-7V221.00879H469.286m2-2H200.39346V453.917h11V230.00879H471.286v-11Z"/><polygon points="182.867 435.664 189.46 429.524 205.9 447.738 222.334 429.524 228.927 435.664 205.9 460.995 182.867 435.664"/><path d="M222.39587,430.94788l5.127,4.7749-21.62207,23.78589-21.62891-23.78589,5.12695-4.7749,16.502,18.28271,16.49511-18.28271m-.12378-2.84839-1.3612,1.50866-15.01038,16.63721-15.01709-16.63757-1.36108-1.50806-1.48657,1.38452-5.127,4.77491-1.44629,1.34692,1.32959,1.46228L204.421,460.85425l1.48,1.62744,1.47974-1.62769,21.62207-23.78588,1.3291-1.46216-1.446-1.3468-5.127-4.77491-1.48682-1.38476Z"/><line class="g" x1="223.5" y1="798.5" x2="223.5" y2="798.5"/><line class="h" x1="223.5" y1="786.75" x2="223.5" y2="569.375"/><line class="g" x1="223.5" y1="563.5" x2="223.5" y2="563.5"/><polyline class="i" points="1082.186 451.917 1082.186 224.509 828.794 224.509"/><polygon class="j" points="1103.815 435.723 1098.688 430.948 1082.193 449.231 1065.691 430.948 1060.564 435.723 1082.193 459.509 1103.815 435.723"/><polyline class="i" points="205.894 451.917 205.894 224.509 469.286 224.509"/><polygon class="j" points="227.523 435.723 222.396 430.948 205.901 449.231 189.399 430.948 184.272 435.723 205.901 459.509 227.523 435.723"/><line class="g" x1="89.5" y1="681" x2="89.5" y2="681"/><line class="k" x1="101.68164" y1="681" x2="351.40918" y2="681"/><line class="g" x1="357.5" y1="681" x2="357.5" y2="681"/><circle class="l" cx="166.2719" cy="718.78" r="20.88"/><path class="m" d="M113.519,506.43066l3.94336,10.87891c.47656,1.39355.95313,2.88965,1.42774,4.35156h.13671c.47657-1.46191.918-2.958,1.39454-4.35156l3.84082-10.87891h4.4873v22.2334h-3.63672V518.499c0-2.07324.30469-5.03125.50977-7.07129h-.13672l-1.80078,5.168-3.63867,9.99414h-2.34571l-3.67187-9.99414-1.76758-5.168h-.13574c.16992,2.04.51074,4.99805.51074,7.07129v10.165h-3.57031v-22.2334Z"/><path class="m" d="M133.23974,517.61523c0-7.27539,4.55567-11.59277,10.166-11.59277a8.82833,8.82833,0,0,1,6.4248,2.82129l-2.10839,2.5498a5.79737,5.79737,0,0,0-4.21485-1.9375c-3.63867,0-6.22168,3.05957-6.22168,8.05762,0,5.06543,2.37989,8.125,6.12012,8.125a6.33305,6.33305,0,0,0,4.75879-2.27832l2.1084,2.48242a8.96866,8.96866,0,0,1-7.00391,3.2295C137.65967,529.07227,133.23974,524.99219,133.23974,517.61523Z"/><path class="m" d="M162.00342,506.43066l3.12695,11.18457c.71484,2.51563,1.22461,4.69141,1.97266,7.24122h.13574c.74707-2.54981,1.25781-4.72559,1.9375-7.24122L172.27,506.43066h4.0459l-6.90137,22.2334h-4.65723l-6.93554-22.2334Z"/><path class="m" d="M178.22021,506.83789a2.42349,2.42349,0,1,1,2.41407,2.21A2.24489,2.24489,0,0,1,178.22021,506.83789Zm4.35157,5.13379v16.69238h-3.90821V511.97168Z"/><path class="m" d="M186.48291,520.335c0-5.43945,3.77344-8.77148,7.68262-8.77148,4.52148,0,6.90234,3.26367,6.90234,7.92187a9.14212,9.14212,0,0,1-.16992,1.90332H190.29053c.33984,2.958,2.24414,4.65723,4.92968,4.65723a6.96853,6.96853,0,0,0,3.875-1.22363l1.32618,2.44824a10.53316,10.53316,0,0,1-5.71094,1.80176C190.08642,529.07227,186.48291,525.84277,186.48291,520.335Zm7.78515-5.74512c-1.97167,0-3.67187,1.46192-4.01171,4.14746h7.41113C197.66748,516.15332,196.54639,514.58984,194.26806,514.58984Z"/><path class="m" d="M207.08545,511.97168l2.00586,8.66894c.34082,1.59766.57812,3.16211.88476,4.79395h.13574c.30567-1.63184.64551-3.22949,1.05372-4.79395l2.17578-8.66894h3.57031l2.209,8.66894c.40821,1.59766.74805,3.16211,1.12207,4.79395h.13575c.30664-1.63184.57812-3.19629.88476-4.79395l2.00586-8.66894h3.67188l-4.25,16.69238h-4.65821l-1.9375-7.78515c-.374-1.56348-.64648-3.09375-1.01953-4.86133H214.939c-.30566,1.76758-.61132,3.33105-.98535,4.89551l-1.90332,7.751H207.562l-4.41992-16.69238Z"/><circle class="n" cx="260" cy="517" r="16"/><line class="o" x1="253" y1="510" x2="267" y2="524"/><line class="o" x1="267" y1="510" x2="253" y2="524"/><path class="d" d="M485.1333,824V551a12.01312,12.01312,0,0,1,12-12h48V502a12.01312,12.01312,0,0,1,12-12h170a11.9652,11.9652,0,0,1,11.95215,11.95215V539H803.1333a12.01312,12.01312,0,0,1,12,12V824Z"/><path class="e" d="M727.1333,492a9.95189,9.95189,0,0,1,9.95215,9.9519V541H803.1333a10,10,0,0,1,10,10V822h-326V551a10,10,0,0,1,10-10h50V502a10,10,0,0,1,10-10h170m0-4h-170a14.01581,14.01581,0,0,0-14,14v35h-46a14.01581,14.01581,0,0,0-14,14V826h334V551a14.01581,14.01581,0,0,0-14-14H741.08545V501.9519A13.96775,13.96775,0,0,0,727.1333,488Z"/><path class="f" d="M737.08535,541h66.04808a10,10,0,0,1,10,10V822h-326V551a10,10,0,0,1,10-10h50V502a10,10,0,0,1,10-10h170a9.95192,9.95192,0,0,1,9.95192,9.95192Z"/><path class="m" d="M600.07471,506.43066v8.94043h9.00878v-8.94043h3.94434v22.2334h-3.94434v-9.85937h-9.00878v9.85937h-3.94336v-22.2334Z"/><path class="m" d="M617.2456,520.335c0-5.43945,3.77344-8.77148,7.6836-8.77148,4.52148,0,6.90039,3.26367,6.90039,7.92187a9.07511,9.07511,0,0,1-.16992,1.90332H621.05322c.33984,2.958,2.24317,4.65723,4.92871,4.65723a6.96925,6.96925,0,0,0,3.876-1.22363l1.32617,2.44824a10.53383,10.53383,0,0,1-5.71191,1.80176C620.84912,529.07227,617.2456,525.84277,617.2456,520.335Zm7.78516-5.74512c-1.97168,0-3.67187,1.46192-4.01172,4.14746h7.41113C628.43017,516.15332,627.3081,514.58984,625.03076,514.58984Z"/><path class="m" d="M635.5708,524.38086V504.66211H639.48V524.584c0,.95215.44238,1.292.84961,1.292a2.36362,2.36362,0,0,0,.6123-.06739l.51075,2.92383a5.35874,5.35874,0,0,1-2.07422.33985C636.59033,529.07227,635.5708,527.27051,635.5708,524.38086Z"/><path class="m" d="M648.01416,511.97168l.27246,1.76758h.13574a8.14006,8.14006,0,0,1,5.03125-2.17578c4.14746,0,6.56153,3.332,6.56153,8.499,0,5.71191-3.4336,9.00977-7.13965,9.00977a6.75021,6.75021,0,0,1-4.28321-1.83594l.10157,2.78711v5.23633h-3.90918V511.97168Zm7.95508,8.125c0-3.33106-1.08789-5.30371-3.60352-5.30371a5.33454,5.33454,0,0,0-3.67187,1.87012v7.78515a5.277,5.277,0,0,0,3.36621,1.39453C654.269,525.84277,655.96924,523.87012,655.96924,520.09668Z"/><circle class="n" cx="709.13343" cy="518" r="16"/><line class="o" x1="702.13343" y1="511" x2="716.13343" y2="525"/><line class="o" x1="716.13343" y1="511" x2="702.13343" y2="525"/><path class="d" d="M484.7251,363V40.60645a12.01959,12.01959,0,0,1,12-12.0127h170a12.01959,12.01959,0,0,1,12,12.0127V77.6543h124a12.01938,12.01938,0,0,1,12,12.01172V363Z"/><path class="e" d="M666.72461,30.59369a10.0061,10.0061,0,0,1,10,10.01233v39.048h126a10.00609,10.00609,0,0,1,10,10.01227V361h-326V40.606a10.00641,10.00641,0,0,1,10-10.01233h170m0-4h-170a14.022,14.022,0,0,0-14,14.01233V365h334V89.66632a14.022,14.022,0,0,0-14-14.01227h-122V40.606a14.022,14.022,0,0,0-14-14.01233Z"/><path class="f" d="M676.72476,79.654h126a10.00616,10.00616,0,0,1,10,10.01231V361h-326V40.606a10.00617,10.00617,0,0,1,10-10.01231h170a10.00616,10.00616,0,0,1,10,10.01231V79.654Z"/><path class="m" d="M504.86474,46.02441l1.9375,11.21875c.374,2.37989.74805,4.75879,1.0879,7.10547h.13671c.47461-2.34668.95118-4.75976,1.46094-7.10547l2.7207-11.21875h3.4336l2.71875,11.21875c.50976,2.31153.98633,4.72559,1.49609,7.10547h.13672c.33984-2.37988.71289-4.75976,1.05274-7.10547l1.93847-11.21875h3.77344l-4.249,22.2334h-4.89649l-2.7539-11.69531c-.373-1.7334-.7129-3.43359-.98536-5.13281h-.13574c-.30664,1.69922-.64648,3.39941-1.01953,5.13281l-2.68555,11.69531h-4.79492l-4.41894-22.2334Z"/><path class="m" d="M528.80029,59.92871c0-5.43945,3.77344-8.77148,7.6836-8.77148,4.52148,0,6.90136,3.26367,6.90136,7.92187a9.07511,9.07511,0,0,1-.16992,1.90332H532.60889c.33984,2.958,2.24316,4.65723,4.92871,4.65723a6.97163,6.97163,0,0,0,3.876-1.22363l1.32617,2.44824a10.53377,10.53377,0,0,1-5.71191,1.80176C532.40381,68.666,528.80029,65.43652,528.80029,59.92871Zm7.78516-5.74512c-1.97071,0-3.67188,1.46192-4.01172,4.14746h7.41211C539.98584,55.74707,538.86377,54.18359,536.58545,54.18359Z"/><path class="m" d="M550.66162,66.49023h-.10156l-.33985,1.76758h-3.09375v-24.002h3.90821v6.1875l-.10157,2.78809a7.62116,7.62116,0,0,1,4.82813-2.07422c4.18164,0,6.5957,3.332,6.5957,8.46582,0,5.74511-3.43359,9.043-7.14062,9.043A6.67046,6.67046,0,0,1,550.66162,66.49023Zm7.64844-6.7998c0-3.331-1.08789-5.30371-3.60352-5.30371a5.33821,5.33821,0,0,0-3.67187,1.87012V64.042a5.21367,5.21367,0,0,0,3.36621,1.39453C556.61084,65.43652,558.31006,63.46387,558.31006,59.69043Z"/><path class="m" d="M572.25146,57.209c0-7.27539,4.58985-11.59277,10.50586-11.59277a9.15118,9.15118,0,0,1,6.73047,2.82129l-2.10742,2.5498a6.02227,6.02227,0,0,0-4.48828-1.9375c-3.94336,0-6.59473,3.05958-6.59473,8.05762,0,5.06543,2.3457,8.125,6.79981,8.125a4.91164,4.91164,0,0,0,3.19531-.98633v-4.793h-4.21582V56.22266h7.751v9.791a10.18866,10.18866,0,0,1-7.10547,2.65235C576.70459,68.666,572.25146,64.58594,572.25146,57.209Z"/><path class="m" d="M594.65771,58.501V46.02441h3.94336V58.80664c0,4.82813,1.80176,6.42578,4.48731,6.42578,2.71972,0,4.624-1.59765,4.624-6.42578V46.02441h3.77344V58.501c0,7.30957-3.23047,10.165-8.39746,10.165C597.95459,68.666,594.65771,65.81055,594.65771,58.501Z"/><path class="m" d="M620.97217,46.02441v22.2334h-3.94336V46.02441Z"/><circle class="n" cx="651" cy="56.59371" r="16"/><line class="o" x1="644" y1="49.59371" x2="658" y2="63.59371"/><line class="o" x1="658" y1="49.59371" x2="644" y2="63.59371"/><path class="p" d="M549.16812,122.67383h90.77051a5.63379,5.63379,0,0,1,5.63379,5.63379v88.08887a5.63379,5.63379,0,0,1-5.63379,5.63379H549.16715a5.63379,5.63379,0,0,1-5.63379-5.63379V128.30859A5.63477,5.63477,0,0,1,549.16812,122.67383Z"/><path class="q" d="M639.93888,123.67371a4.63388,4.63388,0,0,1,4.63378,4.63391v88.08844a4.63392,4.63392,0,0,1-4.63378,4.63391H549.16763a4.63392,4.63392,0,0,1-4.63378-4.63391V128.30762a4.63388,4.63388,0,0,1,4.63378-4.63391h90.77125m0-2H549.16763a6.64131,6.64131,0,0,0-6.63378,6.63391v88.08844a6.64131,6.64131,0,0,0,6.63378,6.63391h90.77125a6.64131,6.64131,0,0,0,6.63378-6.63391V128.30762a6.64131,6.64131,0,0,0-6.63378-6.63391Z"/><path class="p" d="M549.175,228.33691h90.77051a5.63379,5.63379,0,0,1,5.63379,5.63379v88.08887a5.63379,5.63379,0,0,1-5.63379,5.63379H549.175a5.63477,5.63477,0,0,1-5.63477-5.63477V233.97168A5.63477,5.63477,0,0,1,549.175,228.33691Z"/><path class="q" d="M639.94547,229.33661a4.63393,4.63393,0,0,1,4.63379,4.63391V322.059a4.63389,4.63389,0,0,1-4.63379,4.63391h-90.771a4.63393,4.63393,0,0,1-4.634-4.63391V233.97052a4.634,4.634,0,0,1,4.634-4.63391h90.771m0-2h-90.771a6.64151,6.64151,0,0,0-6.634,6.63391V322.059a6.64151,6.64151,0,0,0,6.634,6.63391h90.771a6.64131,6.64131,0,0,0,6.63379-6.63391V233.97052a6.64131,6.64131,0,0,0-6.63379-6.63391Z"/><path class="r" d="M549.17439,229.33672h90.771a4.63391,4.63391,0,0,1,4.63391,4.63391v18.03809a0,0,0,0,1,0,0H544.54048a0,0,0,0,1,0,0V233.97063A4.63391,4.63391,0,0,1,549.17439,229.33672Z"/><path class="p" d="M660.06168,122.68262h90.77051a5.63379,5.63379,0,0,1,5.63379,5.63379v193.751a5.63379,5.63379,0,0,1-5.63379,5.63379H660.0607a5.63379,5.63379,0,0,1-5.63379-5.63379v-193.75A5.63477,5.63477,0,0,1,660.06168,122.68262Z"/><path class="q" d="M750.83219,123.68225a4.634,4.634,0,0,1,4.634,4.63391V322.06757a4.634,4.634,0,0,1-4.634,4.63391h-90.771a4.63377,4.63377,0,0,1-4.63379-4.63391V128.31616a4.63377,4.63377,0,0,1,4.63379-4.63391h90.771m0-2h-90.771a6.64131,6.64131,0,0,0-6.63379,6.63391V322.06757a6.64131,6.64131,0,0,0,6.63379,6.63391h90.771a6.64153,6.64153,0,0,0,6.634-6.63391V128.31616a6.64152,6.64152,0,0,0-6.634-6.63391Z"/><path class="r" d="M660.04779,123.68227h90.771a4.63391,4.63391,0,0,1,4.63391,4.63391v27.37362a0,0,0,0,1,0,0H655.41388a0,0,0,0,1,0,0V128.31618A4.63391,4.63391,0,0,1,660.04779,123.68227Z"/><rect x="698.24332" y="180.30273" width="14.32715" height="108.69141"/><path d="M711.57022,181.30243V287.9942h-12.3269V181.30243h12.3269m2-2h-16.3269V289.9942h16.3269V179.30243Z"/><rect class="s" x="699.24324" y="215.42336" width="12.32706" height="72.57082"/><path d="M600.99918,198.751l.45215-.20215a17.10025,17.10025,0,1,0-13.7959,0l.45215.20215-3.7959,8.71289-.46094-.207a26.51662,26.51662,0,1,1,21.40527.001l-.46093.207Z"/><path d="M594.55338,156.35614a26.39716,26.39716,0,0,1,10.499,50.44519l-3.39673-7.79608a17.60046,17.60046,0,1,0-14.2041,0l-3.39673,7.796a26.39695,26.39695,0,0,1,10.49854-50.44507m0-1a27.39684,27.39684,0,0,0-10.907,52.35779l.92188.41266.40332-.926,3.39673-7.796.39551-.90765-.90381-.40448a16.60029,16.60029,0,1,1,13.3872,0l-.9038.40448.3955.90765,3.39673,7.79608.40332.926.92188-.41266a27.39705,27.39705,0,0,0-10.90747-52.35791Z"/><path class="t" d="M576.29623,182.70528a18.61973,18.61973,0,0,0,2.79344,9.81677,18.35407,18.35407,0,0,0,7.49916,6.81215l-1.43328,3.28983-1.43328,3.28984a25.49352,25.49352,0,0,1-10.58086-9.46951,25.85933,25.85933,0,0,1-3.946-13.73908Z"/><line class="u" x1="594.55347" y1="182.70473" x2="568.26582" y2="182.70528"/><line class="v" x1="594.55347" y1="182.70473" x2="568.26582" y2="182.70528"/><line class="u" x1="711.5703" y1="215.42323" x2="699.24324" y2="215.42349"/><line class="v" x1="711.5703" y1="215.42323" x2="699.24324" y2="215.42349"/><path class="s" d="M594.55387,188.88281a6.1786,6.1786,0,1,1,6.11035-6.17773A6.15166,6.15166,0,0,1,594.55387,188.88281Z"/><path d="M594.55338,177.52625a5.17894,5.17894,0,1,1-5.11109,5.17846,5.14517,5.14517,0,0,1,5.11109-5.17846m0-2a7.17881,7.17881,0,1,0,7.11133,7.17846,7.15307,7.15307,0,0,0-7.11133-7.17846Z"/><path class="r" d="M549.16775,123.67379h90.771a4.63391,4.63391,0,0,1,4.63391,4.63391v18.03809a0,0,0,0,1,0,0H544.53384a0,0,0,0,1,0,0V128.3077A4.63391,4.63391,0,0,1,549.16775,123.67379Z"/><path d="M583.85074,313.56641a26.51771,26.51771,0,1,1,21.40527,0l-.46093.207-3.7959-8.71289.45215-.20215a17.10026,17.10026,0,1,0-13.7959,0l.45215.20215-3.7959,8.71289Z"/><path d="M594.55338,262.66547a26.39716,26.39716,0,0,1,10.499,50.44519l-3.39673-7.79608a17.60046,17.60046,0,1,0-14.2041,0l-3.39673,7.796a26.39694,26.39694,0,0,1,10.49854-50.44506m0-1a27.39684,27.39684,0,0,0-10.907,52.35778l.92188.41266.40332-.926,3.39673-7.796.39551-.90765-.90381-.40448a16.60029,16.60029,0,1,1,13.3872,0l-.9038.40448.3955.90765,3.39673,7.79608.40332.926.92188-.41266a27.39705,27.39705,0,0,0-10.90747-52.35791Z"/><path class="t" d="M576.29623,289.0146a18.61973,18.61973,0,0,0,2.79344,9.81677,18.35407,18.35407,0,0,0,7.49916,6.81215l-1.43328,3.28984-1.43328,3.28983a25.49352,25.49352,0,0,1-10.58086-9.46951,25.8593,25.8593,0,0,1-3.946-13.73908Z"/><line class="u" x1="594.55347" y1="289.01433" x2="568.26582" y2="289.01488"/><line class="v" x1="594.55347" y1="289.01433" x2="568.26582" y2="289.01488"/><path class="s" d="M594.55387,295.19238a6.1786,6.1786,0,1,1,6.11035-6.17871A6.15187,6.15187,0,0,1,594.55387,295.19238Z"/><path d="M594.55338,283.83557a5.17894,5.17894,0,1,1-5.11109,5.17847,5.14517,5.14517,0,0,1,5.11109-5.17847m0-2a7.17882,7.17882,0,1,0,7.11133,7.17847,7.15308,7.15308,0,0,0-7.11133-7.17847Z"/><path class="m" d="M307.62646,768.39258c0-11.83008,10.166-21.48535,22.67578-21.48535,12.40821,0,22.57422,9.55273,22.57422,21.48535,0,11.93359-10.166,21.58789-22.57422,21.58789C317.79248,789.98047,307.62646,780.32617,307.62646,768.39258Zm14.34766,12.68164h8.1582c5.71094,0,9.07617-2.584,9.07617-6.93555a5.39424,5.39424,0,0,0-4.45312-5.60937,5.351,5.351,0,0,0,3.23047-5.13379c0-3.876-2.85547-5.84766-8.43164-5.84766h-7.58008Zm4.35156-13.90527v-6.22071h2.92188c3.16211,0,4.48828.917,4.48828,3.05957,0,2.07324-1.56445,3.16114-4.55469,3.16114Zm0,10.50488v-7.207h3.39844c3.57031,0,5.23633,1.12207,5.23633,3.43359,0,2.48145-1.76758,3.77344-5.23633,3.77344Z"/><path class="m" d="M93.70068,592.43457c0-11.83008,10.16406-21.48535,22.67578-21.48535,12.40821,0,22.57227,9.55273,22.57227,21.48535,0,11.93359-10.16406,21.58789-22.57227,21.58789C103.86474,614.02246,93.70068,604.36816,93.70068,592.43457Zm10.91211,11.86523h4.623l1.9375-6.66308h8.0918l1.90429,6.66308h4.793l-8.05664-24.749h-5.23633Zm8.46485-13.123c.748-2.54883,1.46289-5.33692,2.14257-8.02246.71289,2.65136,1.42774,5.47363,2.17578,8.02246l.81446,2.85644H112.228Z"/><path class="m" d="M1029.32568,506.43066c4.62305,0,8.15821,1.63184,8.15821,6.59473a6.22231,6.22231,0,0,1-4.41895,6.35742l5.30371,9.28125h-4.41992l-4.793-8.70312h-3.40039v8.70312H1021.812v-22.2334Zm4.28321,6.59473c0-2.5498-1.666-3.43359-4.69141-3.43359h-3.16211V516.833h3.16211C1031.94287,516.833,1033.60889,515.541,1033.60889,513.02539Z"/><path class="m" d="M1040.17236,520.335c0-5.43945,3.77344-8.77148,7.68262-8.77148,4.52148,0,6.90234,3.26367,6.90234,7.92187a9.14212,9.14212,0,0,1-.16992,1.90332H1043.98c.33984,2.958,2.24414,4.65723,4.92969,4.65723a6.96858,6.96858,0,0,0,3.875-1.22363l1.32617,2.44824a10.53316,10.53316,0,0,1-5.71094,1.80176C1043.77588,529.07227,1040.17236,525.84277,1040.17236,520.335Zm7.78516-5.74512c-1.97168,0-3.67188,1.46192-4.01172,4.14746h7.41113C1051.35693,516.15332,1050.23584,514.58984,1047.95752,514.58984Z"/><path class="m" d="M1057.40967,520.335c0-5.57519,3.91015-8.77148,8.36328-8.77148a7.19115,7.19115,0,0,1,4.89551,1.87011l-1.90332,2.54981a4.08212,4.08212,0,0,0-2.78809-1.22363c-2.68555,0-4.55566,2.209-4.55566,5.57519,0,3.332,1.83593,5.541,4.45312,5.541a5.56043,5.56043,0,0,0,3.43359-1.42774l1.59864,2.584a8.33364,8.33364,0,0,1-5.43946,2.04C1060.91162,529.07227,1057.40967,525.876,1057.40967,520.335Z"/><path class="m" d="M1072.30224,520.335c0-5.57519,3.77344-8.77148,7.9209-8.77148,4.18164,0,7.95508,3.19629,7.95508,8.77148,0,5.541-3.77344,8.73731-7.95508,8.73731C1076.07568,529.07227,1072.30224,525.876,1072.30224,520.335Zm11.86524,0c0-3.36621-1.49609-5.57519-3.94434-5.57519s-3.90918,2.209-3.90918,5.57519c0,3.332,1.46094,5.541,3.90918,5.541S1084.16748,523.667,1084.16748,520.335Z"/><path class="m" d="M1095.28467,511.97168l.27246,2.958h.13574c1.18945-2.17578,2.958-3.36621,4.72559-3.36621a4.24663,4.24663,0,0,1,1.90332.33984l-.67969,3.40039a5.45607,5.45607,0,0,0-1.7334-.27246c-1.3252,0-2.92383.918-3.94336,3.43359v10.19922h-3.90918V511.97168Z"/><path class="m" d="M1103.37744,520.335c0-5.43945,3.43359-8.77148,7.07129-8.77148a6.1623,6.1623,0,0,1,4.38574,1.83593l-.13574-2.68554v-6.05176h3.90918v24.00195h-3.22949l-.27246-1.80176h-.13575a6.957,6.957,0,0,1-4.72558,2.21C1106.063,529.07227,1103.37744,525.84277,1103.37744,520.335Zm11.32129,3.6377V516.1875a4.97675,4.97675,0,0,0-3.40039-1.39453c-2.1416,0-3.875,2.00586-3.875,5.50781,0,3.60352,1.35937,5.542,3.77344,5.542A4.50978,4.50978,0,0,0,1114.69873,523.97266Z"/><path class="m" d="M1122.48584,520.335c0-5.43945,3.77344-8.77148,7.68262-8.77148,4.52148,0,6.90136,3.26367,6.90136,7.92187a9.14212,9.14212,0,0,1-.16992,1.90332h-10.60742c.33984,2.958,2.24414,4.65723,4.92969,4.65723a6.97163,6.97163,0,0,0,3.876-1.22363l1.3252,2.44824a10.53316,10.53316,0,0,1-5.71094,1.80176C1126.08935,529.07227,1122.48584,525.84277,1122.48584,520.335Zm7.78515-5.74512c-1.97265,0-3.67187,1.46192-4.01171,4.14746h7.41015C1133.66943,516.15332,1132.54834,514.58984,1130.271,514.58984Z"/><path class="m" d="M1144.04053,511.97168l.27148,2.958h.13672c1.18945-2.17578,2.957-3.36621,4.72461-3.36621a4.25122,4.25122,0,0,1,1.9043.33984l-.67969,3.40039a5.45779,5.45779,0,0,0-1.73438-.27246c-1.32519,0-2.92383.918-3.94336,3.43359v10.19922H1140.811V511.97168Z"/><circle class="n" cx="1177" cy="517" r="16"/><line class="o" x1="1170" y1="510" x2="1184" y2="524"/><line class="o" x1="1184" y1="510" x2="1170" y2="524"/><rect class="w" x="646.68555" y="375.00879" width="7" height="76.9082"/><polygon points="627.159 435.664 633.752 429.524 650.193 447.738 666.626 429.524 673.219 435.664 650.193 460.995 627.159 435.664"/><path d="M666.6879,430.94788l5.12695,4.7749-21.62207,23.78589-21.6289-23.78589,5.12695-4.7749,16.50195,18.28271,16.49512-18.28271m-.12378-2.84839-1.36108,1.50866-15.0105,16.63721-15.01709-16.63757-1.36109-1.50806-1.48657,1.38452-5.127,4.77491-1.44629,1.34692,1.32959,1.46228L648.713,460.85425l1.48,1.62744,1.47973-1.62769,21.62207-23.78588,1.3291-1.46216-1.446-1.3468-5.127-4.77491-1.48682-1.38476Z"/><line class="i" x1="650.18595" y1="451.91724" x2="650.18595" y2="375.50867"/><polygon class="j" points="671.815 435.723 666.688 430.948 650.193 449.231 633.691 430.948 628.564 435.723 650.193 459.509 671.815 435.723"/><circle class="x" cx="644.83982" cy="678.34039" r="70.29816"/><path class="y" d="M653.11385,696.44338H632.59v-4.86191a25.35986,25.35986,0,0,1,1.18822-8.50659,18.84937,18.84937,0,0,1,3.53766-5.96812,108.84513,108.84513,0,0,1,10.559-9.50578q4.37482-3.56468,4.37482-6.53523a6.02746,6.02746,0,0,0-1.75533-4.61786,7.53381,7.53381,0,0,0-5.32-1.64731c-8.08208,0-10.29433,5.42208-9.74127,10.12312H615.43062c-1.10613-14.10313,7.83507-26.97428,30.0678-26.97428q11.77394,0,19.01156,4.91492,9.82957,6.64325,9.82984,17.71532a17.09076,17.09076,0,0,1-2.53847,8.85766q-2.539,4.26708-10.36995,10.424-5.45556,4.32216-6.88629,6.9403C653.59075,688.54881,653.11385,690.82533,653.11385,696.44338Z"/><ellipse class="y" cx="643.26816" cy="712.57987" rx="11.79869" ry="11.31089"/><polygon class="z" points="742.616 758.433 720.766 738.683 741.255 728.684 670.722 709.785 689.621 780.318 699.62 759.829 719.37 781.679 742.616 758.433"/><polygon class="aa" points="749.722 751.327 727.872 731.577 748.362 721.577 677.828 702.679 696.727 773.212 706.726 752.723 726.477 774.572 749.722 751.327"/><polygon class="ab" points="1088.338 642.721 1084.213 642.721 1084.213 639.24 1080.088 639.24 1080.088 632.857 1075.963 632.857 1075.963 624.834 1071.838 624.834 1071.838 618.358 1067.713 618.358 1067.713 612.648 1063.588 612.648 1063.588 604.437 1059.464 604.437 1059.464 618.358 1055.339 618.358 1055.339 653.162 1051.214 653.162 1051.214 649.681 1047.089 649.681 1047.089 656.642 1042.964 656.642 1042.964 639.24 1038.839 639.24 1038.839 642.721 1034.714 642.721 1034.714 646.201 1030.589 646.201 1030.589 649.681 1026.464 649.681 1026.464 632.28 1022.34 632.28 1022.34 639.24 1018.215 639.24 1018.215 649.681 1014.09 649.681 1014.09 653.162 1009.965 653.162 1009.965 656.642 1005.84 656.642 1005.84 653.162 1001.715 653.162 1001.715 646.201 997.59 646.201 997.59 642.721 993.465 642.721 993.465 632.28 989.34 632.28 989.34 625.319 985.216 625.319 985.216 618.358 981.091 618.358 981.091 642.721 976.966 642.721 976.966 653.162 972.841 653.162 972.841 656.642 968.716 656.642 968.716 653.162 964.591 653.162 964.591 649.681 960.466 649.681 960.466 670.564 964.591 670.564 964.591 667.083 968.716 667.083 968.716 663.603 972.841 663.603 972.841 667.083 976.966 667.083 976.966 677.524 981.091 677.524 981.091 701.887 985.216 701.887 985.216 694.926 989.34 694.926 989.34 687.966 993.465 687.966 993.465 677.524 997.59 677.524 997.59 674.044 1001.715 674.044 1001.715 667.083 1005.84 667.083 1005.84 663.603 1009.965 663.603 1009.965 667.083 1014.09 667.083 1014.09 670.564 1018.215 670.564 1018.215 681.005 1022.34 681.005 1022.34 687.966 1026.464 687.966 1026.464 670.564 1030.589 670.564 1030.589 674.044 1034.714 674.044 1034.714 677.524 1038.839 677.524 1038.839 681.005 1042.964 681.005 1042.964 663.603 1047.089 663.603 1047.089 670.564 1051.214 670.564 1051.214 667.083 1055.339 667.083 1055.339 701.887 1059.464 701.887 1059.464 715.809 1063.588 715.809 1063.588 707.597 1067.713 707.597 1067.713 701.887 1071.838 701.887 1071.838 695.411 1075.963 695.411 1075.963 687.388 1080.088 687.388 1080.088 681.005 1084.213 681.005 1084.213 677.524 1088.338 677.524 1088.338 674.044 1088.338 646.201 1088.338 642.721"/><polygon class="ac" points="1179.085 653.162 1179.085 646.201 1174.96 646.201 1174.96 639.24 1170.836 639.24 1170.836 632.28 1166.711 632.28 1166.711 625.319 1162.586 625.319 1162.586 639.24 1158.461 639.24 1158.461 632.28 1154.336 632.28 1154.336 628.799 1150.211 628.799 1150.211 621.838 1146.086 621.838 1146.086 611.397 1141.961 611.397 1141.961 625.319 1137.836 625.319 1137.836 639.24 1133.712 639.24 1133.712 649.681 1129.587 649.681 1129.587 653.162 1125.462 653.162 1125.462 646.201 1121.337 646.201 1121.337 632.28 1117.212 632.28 1117.212 639.24 1113.087 639.24 1113.087 649.681 1108.962 649.681 1108.962 653.162 1104.837 653.162 1104.837 656.642 1100.712 656.642 1100.712 653.162 1096.588 653.162 1096.588 649.681 1092.463 649.681 1092.463 646.201 1088.338 646.201 1088.338 674.044 1092.463 674.044 1092.463 670.564 1096.588 670.564 1096.588 667.083 1100.712 667.083 1100.712 663.603 1104.837 663.603 1104.837 667.083 1108.962 667.083 1108.962 670.564 1113.087 670.564 1113.087 681.005 1117.212 681.005 1117.212 687.966 1121.337 687.966 1121.337 674.044 1125.462 674.044 1125.462 667.083 1129.587 667.083 1129.587 670.564 1133.712 670.564 1133.712 681.005 1137.836 681.005 1137.836 694.926 1141.961 694.926 1141.961 708.848 1146.086 708.848 1146.086 698.407 1150.211 698.407 1150.211 691.446 1154.336 691.446 1154.336 687.966 1158.461 687.966 1158.461 681.005 1162.586 681.005 1162.586 694.926 1166.711 694.926 1166.711 687.966 1170.836 687.966 1170.836 681.005 1174.96 681.005 1174.96 674.044 1179.085 674.044 1179.085 667.083 1183.21 667.083 1183.21 653.162 1179.085 653.162"/><line class="ad" x1="1086.33779" y1="575.49984" x2="1086.33779" y2="748.74521"/><line class="ae" x1="1088.33779" y1="573.49984" x2="1088.33779" y2="746.74521"/><circle class="m" cx="951.9741" cy="779.78" r="15"/><rect class="m" x="987.75357" y="764.5" width="12" height="31"/><rect class="m" x="1005.75357" y="764.5" width="12" height="31"/><polygon class="m" points="1063.023 780 1040.023 796 1040.023 764 1063.023 780"/></svg>