<svg xmlns="http://www.w3.org/2000/svg" viewBox="0 0 36 34"><defs><style>.a{fill:gray;}.b{fill:#999;}.c{fill:none;stroke:#e6e6e6;stroke-miterlimit:10;stroke-width:2px;}</style></defs><title>BB_Buttons_1.8</title><rect class="a" x="0.5" y="0.5" width="35" height="33" rx="2.5" ry="2.5"/><path class="b" d="M33,1a2,2,0,0,1,2,2V31a2,2,0,0,1-2,2H3a2,2,0,0,1-2-2V3A2,2,0,0,1,3,1H33m0-1H3A3,3,0,0,0,0,3V31a3,3,0,0,0,3,3H33a3,3,0,0,0,3-3V3a3,3,0,0,0-3-3h0Z"/><path class="c" d="M7.75,22.42H17.2a3.31,3.31,0,0,0,3.55-3v-10"/><polyline class="c" points="26.25 13.92 20.75 8.42 15.25 13.92"/></svg>