<?xml version="1.0" encoding="utf-8"?>
<!-- Generator: Adobe Illustrator 19.2.1, SVG Export Plug-In . SVG Version: 6.00 Build 0)  -->
<svg version="1.1" id="Layer_1" xmlns="http://www.w3.org/2000/svg" xmlns:xlink="http://www.w3.org/1999/xlink" x="0px" y="0px"
	 viewBox="0 0 26 26" enable-background="new 0 0 26 26" xml:space="preserve">
<g>
	<path fill="#808080" d="M13.000001,1C19.6168213,1,25,6.3831801,25,13s-5.3831787,12-11.999999,12s-12-5.3831806-12-12
		S6.3831797,1,13.000001,1 M13.000001,0c-7.1796875,0-13,5.8203001-13,13s5.8203125,13,13,13S26,20.1797009,26,13
		S20.1796875,0,13.000001,0L13.000001,0z"/>
</g>
<g>
	<path fill="#808080" d="M14.9472666,16.03125h-3.9638672l-0.9228516,3.1865234H7.9072275l3.8720703-11.7753906h2.4619141
		l3.8544912,11.7753906h-2.2265615L14.9472666,16.03125z M14.4765635,14.3925781l-0.4160156-1.4404297
		c-0.3623047-1.2421875-0.7246094-2.5927734-1.0683594-3.8896484h-0.0722656
		c-0.3261719,1.3144531-0.6699219,2.6474609-1.0498047,3.8896484l-0.4160156,1.4404297H14.4765635z"/>
</g>
</svg>
