<?xml version="1.0" encoding="utf-8"?>
<!-- Generator: Adobe Illustrator 19.2.1, SVG Export Plug-In . SVG Version: 6.00 Build 0)  -->
<svg version="1.1" id="Layer_1" xmlns="http://www.w3.org/2000/svg" xmlns:xlink="http://www.w3.org/1999/xlink" x="0px" y="0px"
	 viewBox="0 0 26 26" enable-background="new 0 0 26 26" xml:space="preserve">
<g>
	<path fill="#808080" d="M13.000001,1C19.6168213,1,25,6.3831787,25,13s-5.3831787,12-11.999999,12s-12-5.3831787-12-12
		S6.3831797,1,13.000001,1 M13.000001,0c-7.1796875,0-13,5.8202972-13,13s5.8203125,13,13,13S26,20.1797028,26,13
		S20.1796875,0,13.000001,0L13.000001,0z"/>
</g>
<g>
	<path fill="#808080" d="M9.3486338,7.4423828h3.1494141c3.6191397,0,5.77246,1.9443359,5.77246,5.8339844
		c0,3.9072266-2.1533203,5.9414062-5.6650381,5.9414062H9.3486338V7.4423828z M12.35254,17.5253906
		c2.3896484,0,3.7646475-1.3505859,3.7646475-4.2490234c0-2.8808594-1.374999-4.1416016-3.7646475-4.1416016h-0.9052734v8.390625
		H12.35254z"/>
</g>
</svg>
