<?xml version="1.0" encoding="utf-8"?>
<!-- Generator: Adobe Illustrator 21.0.2, SVG Export Plug-In . SVG Version: 6.00 Build 0)  -->
<svg version="1.1" id="Layer_1" xmlns="http://www.w3.org/2000/svg" xmlns:xlink="http://www.w3.org/1999/xlink" x="0px" y="0px"
	 viewBox="0 0 55 32" enable-background="new 0 0 55 32" xml:space="preserve">
<g>
	<path fill="#808080" d="M16,31.5C7.453125,31.5,0.5,24.546875,0.5,16S7.453125,0.5,16,0.5h23c8.546875,0,15.5,6.953125,15.5,15.5
		S47.546875,31.5,39,31.5H16z"/>
	<path fill="#B3B3B3" d="M39.0000191,1C47.2710419,1,54,7.728981,54,16.0000191C54,24.2710419,47.2710419,31,39.0000191,31H15.99998
		C7.72896,31,1,24.271019,1,15.9999809C1,7.7289581,7.72896,1,15.99998,1H39.0000191 M39.0000191,0H15.99998
		C7.1999898,0,0,7.1999893,0,15.9999809v0.0000381C0,24.8000107,7.1999898,32,15.99998,32h23.0000381
		C47.8365593,32,55,24.8365631,55,16.0000191v-0.0000381C55,7.1634407,47.8365593,0,39.0000191,0L39.0000191,0z"/>
</g>
<g>
	<rect x="9.5" y="14.5" fill="#1A1A1A" width="36" height="3"/>
	<path d="M45,15v2H10v-2H45 M46,14h-1H10H9v1v2v1h1h35h1v-1v-2V14L46,14z"/>
</g>
<g>
	<rect x="15" y="9.5" fill="#B3B3B3" width="25" height="5"/>
	<path d="M39.5,10v4h-24v-4H39.5 M40.5,9h-1h-24h-1v1v4v1h1h24h1v-1v-4V9L40.5,9z"/>
</g>
<g>
	<rect x="15" y="17.5" fill="#B3B3B3" width="25" height="5"/>
	<path d="M39.5,18v4h-24v-4H39.5 M40.5,17h-1h-24h-1v1v4v1h1h24h1v-1v-4V17L40.5,17z"/>
</g>
<g>
	<rect x="25.5" y="7" fill="#FF6B36" width="4" height="18"/>
	<path d="M29,7.5v17h-3v-17H29 M30,6.5h-5v19h5V6.5L30,6.5z"/>
</g>
</svg>
