<?xml version="1.0" encoding="utf-8"?>
<!-- Generator: Adobe Illustrator 19.2.1, SVG Export Plug-In . SVG Version: 6.00 Build 0)  -->
<svg version="1.1" id="Layer_1" xmlns="http://www.w3.org/2000/svg" xmlns:xlink="http://www.w3.org/1999/xlink" x="0px" y="0px"
	 viewBox="0 0 28 28" enable-background="new 0 0 28 28" xml:space="preserve">
<g>
	<path fill="#333333" d="M24,27H4c-1.6500001,0-3-1.3500004-3-3V4c0-1.6500001,1.3499999-3,3-3h20c1.6499996,0,3,1.3499999,3,3v20
		C27,25.6499996,25.6499996,27,24,27z"/>
	<path d="M24,1c1.6500244,0,3,1.3499999,3,3v20c0,1.6499996-1.3499756,3-3,3H4c-1.6500244,0-3-1.3500004-3-3V4
		c0-1.6500001,1.3499756-3,3-3H24 M24,0H4C1.7944336,0,0,1.79439,0,4v20c0,2.2056103,1.7944336,4,4,4h20
		c2.2055664,0,4-1.7943897,4-4V4C28,1.79439,26.2055664,0,24,0L24,0z"/>
</g>
<g>
	
		<line fill="#CCCCCC" stroke="#000000" stroke-width="1.7" stroke-miterlimit="10" x1="21.8925781" y1="10" x2="10.8925781" y2="10"/>
	<line fill="#CCCCCC" stroke="#000000" stroke-width="1.7" stroke-miterlimit="10" x1="21.8925781" y1="6" x2="10.8925781" y2="6"/>
	
		<line fill="#CCCCCC" stroke="#000000" stroke-width="1.7" stroke-miterlimit="10" x1="21.8925781" y1="14" x2="10.8925781" y2="14"/>
</g>
<g>
	<g>
		<path d="M5.5,23.9130859v-11.46875h4.0214844c3.6943359,0,4.4697266,2.0302734,4.4697266,3.7333984
			c0,2.4013672-1.7128906,3.8935547-4.4697266,3.8935547H8.3564453v3.8417969H5.5z M9.3613281,17.5830078
			c1.5859375,0,1.8046875-0.675293,1.8046875-1.4052734c0-0.8066406-0.2880859-1.2441406-1.8046875-1.2441406H8.3564453v2.6494141
			H9.3613281z"/>
		<path fill="#333333" d="M9.5214844,12.9441481c2.2890625,0,3.9697266,0.8007898,3.9697266,3.2333994
			c0,2.321291-1.7285156,3.3935604-3.9697266,3.3935604H7.8564453v3.8417892H6v-10.468749H9.5214844 M7.8564453,18.0828285
			h1.5048828c1.5683594,0,2.3046875-0.625,2.3046875-1.9052811c0-1.3125-0.7841797-1.7441397-2.3046875-1.7441397H7.8564453
			V18.0828285 M9.5214844,11.9441481H6H5v1v10.468749v1h1h1.8564453h1v-1v-2.8417892h0.6650391
			c3.019043,0,4.9697266-1.7245693,4.9697266-4.3935604C14.4912109,14.596508,13.8455811,11.9441481,9.5214844,11.9441481
			L9.5214844,11.9441481z M8.8564453,15.4334078h0.5048828c1.3046875,0,1.3046875,0.2800999,1.3046875,0.7441397
			c0,0.4655495,0,0.9052811-1.3046875,0.9052811H8.8564453V15.4334078L8.8564453,15.4334078z"/>
	</g>
	<g>
		<path d="M5.5996094,23.8134766v-11.269043h3.921875c3.6123047,0,4.3701172,1.9755859,4.3701172,3.6333008
			c0,2.3398438-1.6748047,3.7939453-4.3701172,3.7939453H8.2568359v3.8417969H5.5996094z M9.3613281,17.6826172
			c1.6738281,0,1.9042969-0.7231445,1.9042969-1.5048828c0-0.7084961-0.1455078-1.3442383-1.9042969-1.3442383H8.2568359v2.8491211
			H9.3613281z"/>
		<path fill="#333333" d="M9.5214844,13.0444355c2.6035156,0,3.8701172,1.0248995,3.8701172,3.1332989
			c0,2.0625-1.4472656,3.2939415-3.8701172,3.2939415H7.7568359v3.8417988H6.0996094V13.0444355H9.5214844 M7.7568359,18.1826153
			h1.6044922c1.6181641,0,2.4042969-0.6557598,2.4042969-2.0048809c0-1.2924795-0.71875-1.8442392-2.4042969-1.8442392H7.7568359
			V18.1826153 M9.5214844,12.0444355h-3.421875h-1v1v10.2690392v1h1h1.6572266h1v-1v-2.8417988h0.7646484
			c2.9584961,0,4.8701172-1.6854706,4.8701172-4.2939415C14.3916016,14.6340752,13.7589111,12.0444355,9.5214844,12.0444355
			L9.5214844,12.0444355z M8.7568359,15.3334951h0.6044922c1.4042969,0,1.4042969,0.3541203,1.4042969,0.8442392
			c0,0.4710217,0,1.0048809-1.4042969,1.0048809H8.7568359V15.3334951L8.7568359,15.3334951z"/>
	</g>
</g>
</svg>
