<?xml version="1.0" encoding="utf-8"?>
<!-- Generator: Adobe Illustrator 19.2.1, SVG Export Plug-In . SVG Version: 6.00 Build 0)  -->
<svg version="1.1" id="Layer_1" xmlns="http://www.w3.org/2000/svg" xmlns:xlink="http://www.w3.org/1999/xlink" x="0px" y="0px"
	 viewBox="0 0 87 28" enable-background="new 0 0 87 28" xml:space="preserve">
<g>
	<path fill="#4D4D4D" d="M59,27H4c-1.6500001,0-3-1.3500004-3-3V4c0-1.6500001,1.3499999-3,3-3h55V27z"/>
	<path fill="#666666" d="M59,1v26H4c-1.6500244,0-3-1.3499985-3-3V4c0-1.6500015,1.3499756-3,3-3H59 M60,0h-1H4
		C1.7944336,0,0,1.7943916,0,4v20c0,2.2056122,1.7944336,4,4,4h55h1v-1V1V0L60,0z"/>
</g>
<g>
	<path fill="#4D4D4D" d="M83,27H60V1h23c1.6500015,0,3,1.3499999,3,3v20C86,25.6499996,84.6500015,27,83,27z"/>
	<path fill="#666666" d="M83,1c1.6500244,0,3,1.3499985,3,3v20c0,1.6500015-1.3499756,3-3,3H60V1H83 M83,0H60h-1v1v26v1h1h23
		c2.2055664,0,4-1.7943878,4-4V4C87,1.7943916,85.2055664,0,83,0L83,0z"/>
</g>
<g>
	<path fill="#CCCCCC" d="M13.6357422,9.8105469c2.0585938,0,3.4453125,0.6875,3.4453125,2.7041016
		c0,1.9326172-1.3720703,2.8427734-3.3896484,2.8427734h-1.5126953V19h-1.1621094V9.8105469H13.6357422z M15.9189453,12.5146484
		c0-1.3310547-0.8125-1.7646484-2.4238281-1.7646484h-1.3164062v3.6552734h1.3730469
		C15.1484375,14.4052734,15.9189453,13.8173828,15.9189453,12.5146484z"/>
	<path fill="#CCCCCC" d="M20.4804688,12.1923828l0.0986328,1.2324219h0.0419922
		c0.4619141-0.8544922,1.1621094-1.4003906,1.9326172-1.4003906c0.2939453,0,0.5039062,0.0419922,0.7285156,0.1396484
		l-0.2246094,1.0087891c-0.2236328-0.0693359-0.3779297-0.1123047-0.6582031-0.1123047
		c-0.5742188,0-1.2607422,0.4199219-1.7226562,1.5693359V19h-1.1484375v-6.8076172H20.4804688z"/>
	<path fill="#CCCCCC" d="M24.4414062,15.6103516c0-2.2275391,1.4990234-3.5859375,3.0537109-3.5859375
		c1.7373047,0,2.7177734,1.2470703,2.7177734,3.1933594c0,0.2382812-0.0136719,0.4902344-0.0419922,0.6591797h-4.5947266
		c0.0839844,1.4423828,0.9667969,2.3671875,2.2695312,2.3671875c0.6445312,0,1.1904297-0.2109375,1.6953125-0.5332031
		l0.4052734,0.7568359c-0.5878906,0.3779297-1.3164062,0.7001953-2.2402344,0.7001953
		C25.8847656,19.1679688,24.4414062,17.8378906,24.4414062,15.6103516z M27.5234375,12.9345703
		c-0.9521484,0-1.8212891,0.7705078-1.9609375,2.1152344h3.6416016
		C29.2041016,13.6777344,28.5878906,12.9345703,27.5234375,12.9345703z"/>
	<path fill="#CCCCCC" d="M31.8330078,18.2294922l0.5742188-0.7705078c0.5888672,0.4765625,1.1914062,0.8125,2.0029297,0.8125
		c0.8964844,0,1.3447266-0.4765625,1.3447266-1.0644531c0-0.7001953-0.8115234-1.0087891-1.5546875-1.2890625
		c-0.9658203-0.3496094-2.03125-0.8125-2.03125-1.9609375c0-1.0917969,0.8691406-1.9326172,2.3398438-1.9326172
		c0.8544922,0,1.5966797,0.3505859,2.1152344,0.7705078l-0.546875,0.7285156
		c-0.4619141-0.3505859-0.9521484-0.6025391-1.5546875-0.6025391c-0.8544922,0-1.2460938,0.4619141-1.2460938,0.9804688
		c0,0.6435547,0.7421875,0.8818359,1.5126953,1.1767578c0.9804688,0.3632812,2.0732422,0.7695312,2.0732422,2.0585938
		c0,1.1074219-0.8828125,2.03125-2.4941406,2.03125C33.4023438,19.1679688,32.4775391,18.7617188,31.8330078,18.2294922z"/>
	<path fill="#CCCCCC" d="M38.6513672,15.6103516c0-2.2275391,1.4990234-3.5859375,3.0537109-3.5859375
		c1.7373047,0,2.7177734,1.2470703,2.7177734,3.1933594c0,0.2382812-0.0136719,0.4902344-0.0419922,0.6591797h-4.5947266
		c0.0839844,1.4423828,0.9667969,2.3671875,2.2695312,2.3671875c0.6445312,0,1.1904297-0.2109375,1.6953125-0.5332031
		l0.40625,0.7568359c-0.5888672,0.3779297-1.3173828,0.7001953-2.2421875,0.7001953
		C40.0947266,19.1679688,38.6513672,17.8378906,38.6513672,15.6103516z M41.7333984,12.9345703
		c-0.9521484,0-1.8212891,0.7705078-1.9609375,2.1152344h3.6416016
		C43.4140625,13.6777344,42.7978516,12.9345703,41.7333984,12.9345703z"/>
	<path fill="#CCCCCC" d="M46.8564453,16.8984375v-3.7675781h-1.0087891v-0.8691406l1.0644531-0.0693359l0.1396484-1.9052734
		h0.9667969v1.9052734h1.8349609v0.9384766h-1.8349609v3.7822266c0,0.8408203,0.2666016,1.3164062,1.0507812,1.3164062
		c0.2382812,0,0.5458984-0.0986328,0.7705078-0.1826172l0.2236328,0.8691406
		c-0.3779297,0.1259766-0.8398438,0.2519531-1.2607422,0.2519531
		C47.3466797,19.1679688,46.8564453,18.2441406,46.8564453,16.8984375z"/>
</g>
<g>
	<line fill="none" stroke="#CCCCCC" stroke-width="1.7" stroke-miterlimit="10" x1="79" y1="14" x2="67" y2="14"/>
	<line fill="none" stroke="#CCCCCC" stroke-width="1.7" stroke-miterlimit="10" x1="79" y1="10" x2="67" y2="10"/>
	<line fill="none" stroke="#CCCCCC" stroke-width="1.7" stroke-miterlimit="10" x1="79" y1="18" x2="67" y2="18"/>
</g>
</svg>
