<?xml version="1.0" encoding="utf-8"?>
<!-- Generator: Adobe Illustrator 19.2.1, SVG Export Plug-In . SVG Version: 6.00 Build 0)  -->
<svg version="1.1" id="Layer_1" xmlns="http://www.w3.org/2000/svg" xmlns:xlink="http://www.w3.org/1999/xlink" x="0px" y="0px"
	 viewBox="0 0 87 28" enable-background="new 0 0 87 28" xml:space="preserve">
<g>
	<path fill="#808080" d="M59,27H4c-1.6500001,0-3-1.3500004-3-3V4c0-1.6500001,1.3499999-3,3-3h55V27z"/>
	<path fill="#999999" d="M59,1v26H4c-1.6500244,0-3-1.3499985-3-3V4c0-1.6500015,1.3499756-3,3-3H59 M60,0h-1H4
		C1.7944336,0,0,1.7943878,0,4v20c0,2.2056122,1.7944336,4,4,4h55h1v-1V1V0L60,0z"/>
</g>
<g>
	<path fill="#808080" d="M83,27H60V1h23c1.6500015,0,3,1.3499999,3,3v20C86,25.6499996,84.6500015,27,83,27z"/>
	<path fill="#999999" d="M83,1c1.6500244,0,3,1.3499985,3,3v20c0,1.6500015-1.3499756,3-3,3H60V1H83 M83,0H60h-1v1v26v1h1h23
		c2.2055664,0,4-1.7943878,4-4V4C87,1.7943878,85.2055664,0,83,0L83,0z"/>
</g>
<g>
	<path fill="#E6E6E6" d="M18.0048828,9.8105469c1.8623047,0,3.1513672,0.6308594,3.1513672,2.2421875
		c0,0.9101562-0.4765625,1.7226562-1.3447266,2.0019531v0.0566406c1.1064453,0.2099609,1.8769531,0.9384766,1.8769531,2.1992188
		C21.6884766,18.1171875,20.2597656,19,18.2001953,19h-2.9267578V9.8105469H18.0048828z M20.0078125,12.2070312
		c0-1.0654297-0.7285156-1.4716797-2.1572266-1.4716797h-1.4150391V13.71875h1.3583984
		C19.3632812,13.71875,20.0078125,13.1445312,20.0078125,12.2070312z M20.5400391,16.2685547
		c0-1.1347656-0.8964844-1.6533203-2.5078125-1.6533203h-1.5966797v3.4609375h1.5966797
		C19.6152344,18.0761719,20.5400391,17.5009766,20.5400391,16.2685547z"/>
	<path fill="#E6E6E6" d="M23.671875,17.234375c0-1.484375,1.2753906-2.2265625,4.1748047-2.5488281
		c0-0.8681641-0.2802734-1.7089844-1.4003906-1.7089844c-0.7851562,0-1.4990234,0.3642578-2.03125,0.7285156L23.9667969,12.90625
		c0.6298828-0.40625,1.5830078-0.8818359,2.6748047-0.8818359c1.6669922,0,2.3671875,1.1064453,2.3671875,2.8017578V19h-0.9521484
		l-0.0976562-0.8125h-0.0419922c-0.6445312,0.5322266-1.4013672,0.9804688-2.2558594,0.9804688
		C24.5263672,19.1679688,23.671875,18.453125,23.671875,17.234375z M27.8466797,17.3330078v-1.8916016
		c-2.2695312,0.28125-3.0537109,0.8417969-3.0537109,1.7089844c0,0.7714844,0.5322266,1.09375,1.2050781,1.09375
		C26.65625,18.2441406,27.1884766,17.921875,27.8466797,17.3330078z"/>
	<path fill="#E6E6E6" d="M32.8007812,12.1923828l0.0986328,0.9804688h0.0419922
		c0.6435547-0.6445312,1.3447266-1.1484375,2.2832031-1.1484375c1.4287109,0,2.0722656,0.9248047,2.0722656,2.6611328V19h-1.1484375
		v-4.1601562c0-1.2753906-0.3916016-1.8212891-1.2880859-1.8212891c-0.7001953,0-1.1767578,0.3642578-1.8632812,1.0507812V19
		h-1.1484375v-6.8076172H32.8007812z"/>
	<path fill="#E6E6E6" d="M41.3408203,9.0263672v6.7519531h0.0419922l2.8994141-3.5859375h1.2744141l-2.2832031,2.7314453
		L45.8652344,19h-1.2607422l-1.9892578-3.2773438l-1.2744141,1.484375V19h-1.1347656V9.0263672H41.3408203z"/>
</g>
<g>
	<line fill="none" stroke="#E6E6E6" stroke-width="1.7" stroke-miterlimit="10" x1="79" y1="14" x2="67" y2="14"/>
	<line fill="none" stroke="#E6E6E6" stroke-width="1.7" stroke-miterlimit="10" x1="79" y1="10" x2="67" y2="10"/>
	<line fill="none" stroke="#E6E6E6" stroke-width="1.7" stroke-miterlimit="10" x1="79" y1="18" x2="67" y2="18"/>
</g>
</svg>
