<?xml version="1.0" encoding="utf-8"?>
<!-- Generator: Adobe Illustrator 19.2.1, SVG Export Plug-In . SVG Version: 6.00 Build 0)  -->
<svg version="1.1" id="Layer_1" xmlns="http://www.w3.org/2000/svg" xmlns:xlink="http://www.w3.org/1999/xlink" x="0px" y="0px"
	 viewBox="0 0 87 28" enable-background="new 0 0 87 28" xml:space="preserve">
<g>
	<path fill="#4D4D4D" d="M59,27H4c-1.6500001,0-3-1.3500004-3-3V4c0-1.6500001,1.3499999-3,3-3h55V27z"/>
	<path fill="#666666" d="M59,1v26H4c-1.6500244,0-3-1.3499985-3-3V4c0-1.6500015,1.3499756-3,3-3H59 M60,0h-1H4
		C1.7944336,0,0,1.7943916,0,4v20c0,2.2056122,1.7944336,4,4,4h55h1v-1V1V0L60,0z"/>
</g>
<g>
	<path fill="#4D4D4D" d="M83,27H60V1h23c1.6500015,0,3,1.3499999,3,3v20C86,25.6499996,84.6500015,27,83,27z"/>
	<path fill="#666666" d="M83,1c1.6500244,0,3,1.3499985,3,3v20c0,1.6500015-1.3499756,3-3,3H60V1H83 M83,0H60h-1v1v26v1h1h23
		c2.2055664,0,4-1.7943878,4-4V4C87,1.7943916,85.2055664,0,83,0L83,0z"/>
</g>
<g>
	<path fill="#CCCCCC" d="M8.8398438,17.8095703l0.7001953-0.8125c0.6582031,0.6865234,1.5830078,1.1484375,2.5351562,1.1484375
		c1.2050781,0,1.9199219-0.6025391,1.9199219-1.4990234c0-0.9384766-0.6591797-1.2324219-1.5273438-1.625l-1.3164062-0.5742188
		c-0.8691406-0.3632812-1.8632812-1.0224609-1.8632812-2.3671875c0-1.4003906,1.21875-2.4375,2.8857422-2.4375
		c1.0927734,0,2.0585938,0.4628906,2.7177734,1.1347656l-0.6308594,0.7568359
		c-0.5605469-0.5322266-1.2324219-0.8681641-2.0869141-0.8681641c-1.0224609,0-1.7089844,0.5175781-1.7089844,1.34375
		c0,0.8828125,0.7988281,1.21875,1.5263672,1.5273438l1.3027344,0.5605469
		c1.0644531,0.4619141,1.8916016,1.0917969,1.8916016,2.4511719c0,1.4570312-1.1904297,2.6191406-3.1240234,2.6191406
		C10.7724609,19.1679688,9.6386719,18.6357422,8.8398438,17.8095703z"/>
	<path fill="#CCCCCC" d="M17.0712891,15.6103516c0-2.2275391,1.4990234-3.5859375,3.0537109-3.5859375
		c1.7373047,0,2.7177734,1.2470703,2.7177734,3.1933594c0,0.2382812-0.0136719,0.4902344-0.0419922,0.6591797h-4.5947266
		c0.0839844,1.4423828,0.9667969,2.3671875,2.2695312,2.3671875c0.6445312,0,1.1904297-0.2109375,1.6953125-0.5332031
		l0.4052734,0.7568359c-0.5878906,0.3779297-1.3164062,0.7001953-2.2402344,0.7001953
		C18.5146484,19.1679688,17.0712891,17.8378906,17.0712891,15.6103516z M20.1533203,12.9345703
		c-0.9521484,0-1.8212891,0.7705078-1.9609375,2.1152344h3.6416016
		C21.8339844,13.6777344,21.2177734,12.9345703,20.1533203,12.9345703z"/>
	<path fill="#CCCCCC" d="M24.6035156,17.234375c0-1.484375,1.2753906-2.2265625,4.1748047-2.5488281
		c0-0.8681641-0.2802734-1.7089844-1.4003906-1.7089844c-0.7851562,0-1.4990234,0.3642578-2.03125,0.7285156L24.8984375,12.90625
		c0.6298828-0.40625,1.5830078-0.8818359,2.6748047-0.8818359c1.6669922,0,2.3671875,1.1064453,2.3671875,2.8017578V19h-0.9521484
		l-0.0976562-0.8125h-0.0419922c-0.6445312,0.5322266-1.4013672,0.9804688-2.2558594,0.9804688
		C25.4580078,19.1679688,24.6035156,18.453125,24.6035156,17.234375z M28.7783203,17.3330078v-1.8916016
		c-2.2695312,0.28125-3.0537109,0.8417969-3.0537109,1.7089844c0,0.7714844,0.5322266,1.09375,1.2050781,1.09375
		C27.5878906,18.2441406,28.1201172,17.921875,28.7783203,17.3330078z"/>
	<path fill="#CCCCCC" d="M33.7324219,12.1923828l0.0986328,1.2324219h0.0419922
		c0.4619141-0.8544922,1.1621094-1.4003906,1.9326172-1.4003906c0.2939453,0,0.5039062,0.0419922,0.7285156,0.1396484
		l-0.2246094,1.0087891c-0.2236328-0.0693359-0.3779297-0.1123047-0.6582031-0.1123047
		c-0.5742188,0-1.2607422,0.4199219-1.7226562,1.5693359V19h-1.1484375v-6.8076172H33.7324219z"/>
	<path fill="#CCCCCC" d="M37.6933594,15.6103516c0-2.2832031,1.5273438-3.5859375,3.2783203-3.5859375
		c0.8964844,0,1.5126953,0.3642578,1.9892578,0.7978516l-0.5888672,0.7568359
		c-0.3916016-0.3505859-0.8125-0.6025391-1.3583984-0.6025391c-1.2324219,0-2.1289062,1.0644531-2.1289062,2.6337891
		c0,1.5546875,0.8544922,2.6054688,2.1005859,2.6054688c0.6308594,0,1.1767578-0.3085938,1.5966797-0.6865234l0.5048828,0.7705078
		c-0.6162109,0.5458984-1.3867188,0.8681641-2.1992188,0.8681641
		C39.0800781,19.1679688,37.6933594,17.8652344,37.6933594,15.6103516z"/>
	<path fill="#CCCCCC" d="M46.4306641,9.0263672v2.7177734l-0.0419922,1.4003906
		c0.6445312-0.6162109,1.3310547-1.1201172,2.2695312-1.1201172c1.4287109,0,2.0722656,0.9248047,2.0722656,2.6611328V19h-1.1484375
		v-4.1601562c0-1.2753906-0.3916016-1.8212891-1.2880859-1.8212891c-0.7001953,0-1.1767578,0.3642578-1.8632812,1.0507812V19
		h-1.1484375V9.0263672H46.4306641z"/>
</g>
<g>
	<circle fill="none" stroke="#CCCCCC" stroke-miterlimit="10" cx="71.6779251" cy="12.6004419" r="5.6004415"/>
	<path fill="#CCCCCC" d="M78.6692886,21.7266121l-3.3470001-4.280405l1.0464401-1.0464363l4.2804031,3.3469963
		c0.3645172,0.3645191,0.3645172,0.9555187,0,1.3200378l-0.6598053,0.6598072
		C79.6248093,22.0911293,79.0338058,22.0911293,78.6692886,21.7266121z"/>
</g>
</svg>
