<?xml version="1.0" encoding="utf-8"?>
<!-- Generator: Adobe Illustrator 19.2.1, SVG Export Plug-In . SVG Version: 6.00 Build 0)  -->
<svg version="1.1" id="Layer_1" xmlns="http://www.w3.org/2000/svg" xmlns:xlink="http://www.w3.org/1999/xlink" x="0px" y="0px"
	 viewBox="0 0 28 28" enable-background="new 0 0 28 28" xml:space="preserve">
<g>
	<path fill="#4D4D4D" d="M24,27H4c-1.6500001,0-3-1.3500004-3-3V4c0-1.6500001,1.3499999-3,3-3h20c1.6499996,0,3,1.3499999,3,3v20
		C27,25.6499996,25.6499996,27,24,27z"/>
	<path fill="#666666" d="M24,1c1.6500244,0,3,1.3499985,3,3v20c0,1.6500015-1.3499756,3-3,3H4c-1.6500244,0-3-1.3499985-3-3V4
		c0-1.6500015,1.3499756-3,3-3H24 M24,0H4C1.7944336,0,0,1.7943916,0,4v20c0,2.2056122,1.7944336,4,4,4h20
		c2.2055664,0,4-1.7943878,4-4V4C28,1.7943916,26.2055664,0,24,0L24,0z"/>
</g>
<line fill="none" stroke="#CCCCCC" stroke-width="1.7" stroke-miterlimit="10" x1="20" y1="14" x2="8" y2="14"/>
<line fill="none" stroke="#CCCCCC" stroke-width="1.7" stroke-miterlimit="10" x1="20" y1="10" x2="8" y2="10"/>
<line fill="none" stroke="#CCCCCC" stroke-width="1.7" stroke-miterlimit="10" x1="20" y1="18" x2="8" y2="18"/>
</svg>
