<svg xmlns="http://www.w3.org/2000/svg" viewBox="0 0 34 14"><defs><style>.a{fill:#4d4d4d;}</style></defs><title>BB_Buttons_1.8</title><path class="a" d="M8.35,1.5a4.27,4.27,0,0,1,2.77.91L15.85,7l-4.73,4.59a4.27,4.27,0,0,1-2.77.91H1.5V1.5H8.35m0-1.5H0V14H8.35a5.73,5.73,0,0,0,3.79-1.31L18,7,12.14,1.31A5.73,5.73,0,0,0,8.35,0h0Z"/><path class="a" d="M32.5,1.5v11H26.22a4.87,4.87,0,0,1-3-.92L18.62,7l4.59-4.58a4.87,4.87,0,0,1,3-.92H32.5M34,0H26.22a6.29,6.29,0,0,0-4,1.31L16.5,7l5.7,5.69a6.29,6.29,0,0,0,4,1.31H34V0h0Z"/></svg>