<svg xmlns="http://www.w3.org/2000/svg" viewBox="0 0 52 32"><defs><style>.a{fill:gray;}.b{fill:#999;}.c{fill:none;stroke:#e6e6e6;stroke-miterlimit:10;stroke-width:2px;}</style></defs><title>BB_Buttons_1.8</title><path class="a" d="M1.5,30.5V1.5H48A2.5,2.5,0,0,1,50.5,4V28A2.5,2.5,0,0,1,48,30.5H1.5Z"/><path class="b" d="M48,2a2,2,0,0,1,2,2V28a2,2,0,0,1-2,2H2V2H48m0-1H1V31H48a3,3,0,0,0,3-3V4a3,3,0,0,0-3-3h0Z"/><path d="M48,1a3,3,0,0,1,3,3V28a3,3,0,0,1-3,3H1V1H48m0-1H0V32H48a4,4,0,0,0,4-4V4a4,4,0,0,0-4-4h0Z"/><path class="c" d="M28.15,22A5.36,5.36,0,0,1,19,18.22a5,5,0,0,1,1.48-3.84c1-1,2.22-1.67,4.88-1.66H33"/><polyline class="c" points="28.69 8.42 33 12.72 28.69 17.03"/></svg>