<svg xmlns="http://www.w3.org/2000/svg" viewBox="0 0 52 32"><defs><style>.a{fill:#333;}.b{fill:none;stroke:#000;stroke-miterlimit:10;stroke-width:2px;}</style></defs><title>BB_Buttons_1.8</title><path class="a" d="M0.5,31.5V0.5H48A3.5,3.5,0,0,1,51.5,4V28A3.5,3.5,0,0,1,48,31.5H0.5Z"/><path d="M48,1a3,3,0,0,1,3,3V28a3,3,0,0,1-3,3H1V1H48m0-1H0V32H48a4,4,0,0,0,4-4V4a4,4,0,0,0-4-4h0Z"/><path class="b" d="M28.15,22A5.36,5.36,0,0,1,19,18.22a5,5,0,0,1,1.48-3.84c1-1,2.22-1.67,4.88-1.66H33"/><polyline class="b" points="28.69 8.42 33 12.72 28.69 17.03"/></svg>