<?xml version="1.0" encoding="utf-8"?>
<!-- Generator: Adobe Illustrator 21.1.0, SVG Export Plug-In . SVG Version: 6.00 Build 0)  -->
<svg version="1.1" xmlns="http://www.w3.org/2000/svg" xmlns:xlink="http://www.w3.org/1999/xlink" x="0px" y="0px"
	 viewBox="0 0 300 186" style="enable-background:new 0 0 300 186;" xml:space="preserve">
<style type="text/css">
	.st0{display:none;}
	.st1{display:inline;}
	.st2{clip-path:url(#SVGID_2_);}
	.st3{clip-path:url(#SVGID_4_);fill-rule:evenodd;clip-rule:evenodd;fill:#FFFFFF;}
	.st4{clip-path:url(#SVGID_4_);}
	.st5{clip-path:url(#SVGID_4_);fill:none;stroke:#000000;stroke-width:0;stroke-linejoin:round;stroke-miterlimit:10;}
	.st6{clip-path:url(#SVGID_4_);fill-rule:evenodd;clip-rule:evenodd;fill:#DDDDDD;}
	.st7{opacity:0.5;clip-path:url(#SVGID_8_);enable-background:new    ;}
	.st8{clip-path:url(#SVGID_10_);}
	.st9{clip-path:url(#SVGID_12_);fill-rule:evenodd;clip-rule:evenodd;fill:#DDDDDD;}
	
		.st10{clip-path:url(#SVGID_8_);fill:none;stroke:#000000;stroke-width:0;stroke-linejoin:round;stroke-miterlimit:10;stroke-dasharray:1.4433,1.4433,1.4433,1.4433;}
	.st11{clip-path:url(#SVGID_8_);}
	.st12{opacity:0.5;clip-path:url(#SVGID_14_);enable-background:new    ;}
	.st13{clip-path:url(#SVGID_16_);}
	.st14{clip-path:url(#SVGID_18_);fill-rule:evenodd;clip-rule:evenodd;fill:#DDDDDD;}
	
		.st15{clip-path:url(#SVGID_14_);fill:none;stroke:#000000;stroke-width:0;stroke-linejoin:round;stroke-miterlimit:10;stroke-dasharray:1.4433,1.4433,1.4433,1.4433;}
	.st16{clip-path:url(#SVGID_14_);}
	.st17{opacity:0.5;clip-path:url(#SVGID_20_);enable-background:new    ;}
	.st18{clip-path:url(#SVGID_22_);}
	.st19{clip-path:url(#SVGID_24_);fill-rule:evenodd;clip-rule:evenodd;fill:#DDDDDD;}
	
		.st20{clip-path:url(#SVGID_20_);fill:none;stroke:#000000;stroke-width:0;stroke-linejoin:round;stroke-miterlimit:10;stroke-dasharray:1.4433,1.4433,1.4433,1.4433;}
	.st21{clip-path:url(#SVGID_20_);}
	.st22{clip-path:url(#SVGID_20_);fill-rule:evenodd;clip-rule:evenodd;fill:#FFFFFF;}
	.st23{clip-path:url(#SVGID_20_);fill:none;stroke:#000000;stroke-width:0;stroke-linejoin:round;stroke-miterlimit:10;}
	.st24{clip-path:url(#SVGID_20_);fill-rule:evenodd;clip-rule:evenodd;fill:#DDDDDD;}
	.st25{fill:#FF3333;}
	.st26{fill:#272525;}
	.st27{fill:#929496;}
	.st28{fill:none;stroke:#808183;stroke-width:0.5;stroke-miterlimit:10;}
	.st29{fill:#434244;}
	.st30{fill:none;stroke:#A6A8AA;stroke-width:0.5;stroke-miterlimit:10;}
	.st31{fill:#6D6E70;}
	.st32{fill:#A6A8AA;}
	.st33{fill:none;stroke:#59595B;stroke-width:0.5;stroke-miterlimit:10;}
	.st34{fill:#D0D1D3;stroke:#59595B;stroke-width:0.5;stroke-miterlimit:10;}
	.st35{fill:none;stroke:#F1F1F2;stroke-width:2.3;stroke-miterlimit:10;stroke-dasharray:0.7229254,2.0655012;}
	.st36{fill:#F1F1F2;}
	.st37{fill:#808183;}
	.st38{fill:#E6E6E7;}
	.st39{fill:none;}
	.st40{fill:none;stroke:#272525;stroke-width:0.5;stroke-miterlimit:10;}
	.st41{fill:#59595B;}
	.st42{fill:none;stroke:#BBBCBF;stroke-width:0.5;stroke-miterlimit:10;}
	.st43{fill:#F2B888;stroke:#BBBCBF;stroke-width:0.5;stroke-miterlimit:10;}
	.st44{fill:#BBBCBF;}
	.st45{fill:#D0D1D3;}
	.st46{fill:#F2B888;}
	.st47{fill:#272525;stroke:#BBBCBF;stroke-width:0.5;stroke-miterlimit:10;}
	.st48{fill:none;stroke:#80AAFF;stroke-width:0.5;stroke-miterlimit:10;}
	.st49{fill:#80AAFF;}
</style>
<g id="Layer_1" class="st0">
</g>
<g id="Layer_2">
	<rect class="st26" width="300" height="186"/>
	<polygon class="st37" points="237.536026,106.5 158.625,106.5 240.5,72.5834961 240.5,106.5 	"/>
	<polygon class="st29" points="161.588974,72.5834961 240.5,72.5834961 158.625,106.5 158.625,72.5834961 	"/>
	<line class="st42" x1="95.5" y1="73.0833359" x2="95.5" y2="119.0833359"/>
	<rect x="44.5" y="45.5" class="st29" width="125" height="13"/>
	<rect x="113" y="117" class="st31" width="29" height="8"/>
	<rect x="43" y="44" class="st33" width="211" height="99"/>
	<rect x="170.5" y="45.5" class="st29" width="30" height="13"/>
	<rect x="201.5" y="45.5" class="st29" width="30" height="13"/>
	<rect x="232.5" y="45.5" class="st29" width="20" height="13"/>
	<path class="st27" d="M108.3901367,84.050293c-0.5551758-0.8232422-1.1972656-1.6015625-1.9072266-2.3120117
		c-0.7124023-0.7114258-1.4912109-1.3535156-2.3134766-1.9082031c-0.824707-0.5551758-1.7075195-1.0332031-2.6245117-1.4194336
		c-0.934082-0.3955078-1.9257812-0.7001953-2.9477539-0.9057617s-2.0644531-0.3095703-3.0976562-0.3095703
		c-1.0322266,0-2.0742188,0.1040039-3.0961914,0.3095703c-1.0205078,0.2050781-2.0126953,0.5092773-2.9482422,0.9042969
		c-0.9189453,0.3886719-1.8022461,0.8666992-2.625,1.4208984c-0.8217773,0.5541992-1.6000977,1.1962891-2.3120117,1.9077148
		c-0.7109375,0.7109375-1.3525391,1.4887695-1.9077148,2.3115234l-0.2797852,0.4150391l-2.1645508-1.4624023l0.2792969-0.4140625
		c0.6474609-0.9609375,1.3964844-1.8681641,2.2250977-2.6962891c0.828125-0.8286133,1.7358398-1.5776367,2.6982422-2.2265625
		s1.9951172-1.2084961,3.0698242-1.6625977c1.0913086-0.4619141,2.25-0.8178711,3.4443359-1.0581055
		c1.1928711-0.2392578,2.409668-0.3608398,3.6166992-0.3608398c1.2060547,0,2.4233398,0.121582,3.6176758,0.3613281
		c1.1933594,0.2402344,2.3525391,0.5966797,3.4453049,1.059082c1.0752029,0.4541016,2.1079178,1.0131836,3.0693436,1.6616211
		c0.9619141,0.6484375,1.8696289,1.3969727,2.6972656,2.2255859c0.8286133,0.828125,1.5776367,1.7353516,2.2260742,2.6962891
		l0.2792969,0.4140625l-2.1645508,1.4643555L108.3901367,84.050293z"/>
	<polyline class="st42" points="91.6074219,101.7138672 87.984375,110.291893 80,110.291893 	"/>
	<circle class="st43" cx="95.5" cy="92.5" r="4.5"/>
	<g>
		<circle class="st35" cx="242.5" cy="52" r="4"/>
	</g>
	<circle class="st36" cx="242.5" cy="52" r="2"/>
	<polyline class="st42" points="99.3925781,101.7138672 103.015625,110.291893 111,110.291893 	"/>
	<line class="st42" x1="104.9166641" y1="90.5833359" x2="114.375" y2="88.7083359"/>
	<line class="st42" x1="86.0311356" y1="90.6142883" x2="76.5727997" y2="88.7392883"/>
	<polygon class="st44" points="95.5,118 92,124 99,124 	"/>
	<g>
		<path class="st45" d="M87.4492188,69.7944336c0.3808594,0.3798828,0.8603516,0.7294922,1.609375,0.7294922
			c0.7802734,0,1.4003906-0.5693359,1.4003906-1.4589844c0-0.8798828-0.5410156-1.3994141-1.359375-1.3994141
			c-0.4404297,0-0.7099609,0.1396484-1.0898438,0.3896484l-0.4394531-0.2802734l0.2089844-3.0683594h3.1884766v0.7099609H88.5
			l-0.1699219,1.8886719c0.2988281-0.1591797,0.5888672-0.2597656,0.9785156-0.2597656
			c1.0898438,0,1.9785156,0.6201172,1.9785156,1.9990234c0,1.3798828-1.0390625,2.1591797-2.1484375,2.1591797
			c-1.0195312,0-1.6484375-0.4296875-2.0878906-0.8701172L87.4492188,69.7944336z"/>
		<path class="st45" d="M92.2099609,67.8754883c0-2.1386719,0.7695312-3.2880859,2.0488281-3.2880859
			c1.2685547,0,2.0380859,1.1494141,2.0380859,3.2880859s-0.7695312,3.328125-2.0380859,3.328125
			C92.9794922,71.2036133,92.2099609,70.0141602,92.2099609,67.8754883z M95.4980469,67.8754883
			c0-1.8691406-0.5-2.6289062-1.2392578-2.6289062c-0.7490234,0-1.2490234,0.7597656-1.2490234,2.6289062
			s0.5,2.6679688,1.2490234,2.6679688C94.9980469,70.543457,95.4980469,69.7446289,95.4980469,67.8754883z"/>
		<path class="st45" d="M97.9892578,69.9438477c0.3193359,0,0.5888672,0.2597656,0.5888672,0.6396484
			c0,0.3603516-0.2695312,0.6201172-0.5888672,0.6201172c-0.3300781,0-0.6005859-0.2597656-0.6005859-0.6201172
			C97.3886719,70.2036133,97.6591797,69.9438477,97.9892578,69.9438477z"/>
		<path class="st45" d="M99.6699219,67.8754883c0-2.1386719,0.7695312-3.2880859,2.0488281-3.2880859
			c1.2685547,0,2.0380859,1.1494141,2.0380859,3.2880859s-0.7695312,3.328125-2.0380859,3.328125
			C100.4394531,71.2036133,99.6699219,70.0141602,99.6699219,67.8754883z M102.9570312,67.8754883
			c0-1.8691406-0.5-2.6289062-1.2382812-2.6289062c-0.75,0-1.25,0.7597656-1.25,2.6289062s0.5,2.6679688,1.25,2.6679688
			C102.4570312,70.543457,102.9570312,69.7446289,102.9570312,67.8754883z"/>
	</g>
	<g>
		<path class="st46" d="M48.6523438,48.2631836h2.4199219c1.5732422,0,2.7285156,0.5507812,2.7285156,2.2226562
			c0,1.5947266-1.1875,2.3320312-2.7285156,2.3320312h-1.1445312v2.640625h-1.2753906V48.2631836z M50.9628906,51.7954102
			c1.078125,0,1.5839844-0.4296875,1.5839844-1.3095703c0-0.9023438-0.5390625-1.1992188-1.5839844-1.1992188h-1.0351562v2.5087891
			H50.9628906z"/>
		<path class="st46" d="M57.5507812,52.0043945c-0.0097656-0.5722656-0.2519531-1.0566406-0.9785156-1.0566406
			c-0.5390625,0-1.0449219,0.2421875-1.5175781,0.5283203l-0.4628906-0.8476562
			c0.59375-0.3740234,1.3535156-0.7041016,2.2109375-0.7041016c1.3535156,0,2.0136719,0.8251953,2.0136719,2.3330078v3.2011719
			h-1.0341797l-0.0986328-0.59375h-0.0332031c-0.484375,0.40625-1.0341797,0.7255859-1.671875,0.7255859
			c-0.9462891,0-1.6064453-0.6376953-1.6064453-1.5839844C54.3720703,52.8510742,55.3398438,52.2456055,57.5507812,52.0043945z
			 M56.3740234,54.6000977c0.4404297,0,0.78125-0.2197266,1.1767578-0.59375v-1.2099609
			c-1.4628906,0.1865234-1.9472656,0.5722656-1.9472656,1.1113281
			C55.6035156,54.3911133,55.9238281,54.6000977,56.3740234,54.6000977z"/>
		<path class="st46" d="M60.3554688,50.0571289h1.0449219l0.0888672,0.9570312h0.0439453
			c0.3847656-0.7041016,0.9570312-1.0898438,1.5292969-1.0898438c0.2753906,0,0.4511719,0.0332031,0.6152344,0.1103516
			l-0.21875,1.1005859c-0.1875-0.0556641-0.3300781-0.0888672-0.5615234-0.0888672
			c-0.4287109,0-0.9462891,0.2978516-1.2763672,1.1113281v3.3007812h-1.265625V50.0571289z"/>
		<path class="st46" d="M67.1103516,52.0043945c-0.0107422-0.5722656-0.2529297-1.0566406-0.9794922-1.0566406
			c-0.5390625,0-1.0449219,0.2421875-1.5175781,0.5283203l-0.4628906-0.8476562
			c0.5947266-0.3740234,1.3535156-0.7041016,2.2119141-0.7041016c1.3525391,0,2.0126953,0.8251953,2.0126953,2.3330078v3.2011719
			h-1.0332031l-0.0996094-0.59375h-0.0332031c-0.4833984,0.40625-1.0332031,0.7255859-1.671875,0.7255859
			c-0.9462891,0-1.6054688-0.6376953-1.6054688-1.5839844C63.9316406,52.8510742,64.8984375,52.2456055,67.1103516,52.0043945z
			 M65.9335938,54.6000977c0.4394531,0,0.78125-0.2197266,1.1767578-0.59375v-1.2099609
			c-1.4628906,0.1865234-1.9472656,0.5722656-1.9472656,1.1113281
			C65.1630859,54.3911133,65.4824219,54.6000977,65.9335938,54.6000977z"/>
		<path class="st46" d="M69.9150391,50.0571289h1.0449219l0.0878906,0.7363281h0.0439453
			c0.4511719-0.4833984,0.9794922-0.8691406,1.6503906-0.8691406c0.7929688,0,1.2431641,0.3632812,1.4960938,0.96875
			c0.5175781-0.5507812,1.0566406-0.96875,1.7382812-0.96875c1.1445312,0,1.671875,0.78125,1.671875,2.1455078v3.3886719h-1.2753906
			v-3.2236328c0-0.890625-0.2636719-1.2207031-0.8251953-1.2207031c-0.3408203,0-0.7158203,0.2197266-1.1337891,0.6708984v3.7734375
			h-1.2646484v-3.2236328c0-0.890625-0.2646484-1.2207031-0.8359375-1.2207031
			c-0.3300781,0-0.7158203,0.2197266-1.1337891,0.6708984v3.7734375h-1.2646484V50.0571289z"/>
		<path class="st46" d="M81.3222656,49.9243164c1.4628906,0,2.2333984,1.0566406,2.2333984,2.5634766
			c0,0.2421875-0.0224609,0.4619141-0.0556641,0.5947266h-3.4316406c0.109375,0.9785156,0.7255859,1.5292969,1.5947266,1.5292969
			c0.4619141,0,0.8583984-0.1435547,1.2548828-0.3964844l0.4287109,0.7919922
			c-0.5166016,0.3408203-1.1669922,0.5830078-1.8486328,0.5830078c-1.4960938,0-2.6621094-1.0449219-2.6621094-2.8271484
			C78.8359375,51.0024414,80.0566406,49.9243164,81.3222656,49.9243164z M82.4550781,52.2788086
			c0-0.8574219-0.3632812-1.375-1.0996094-1.375c-0.6386719,0-1.1884766,0.4726562-1.2988281,1.375H82.4550781z"/>
		<path class="st46" d="M84.7753906,51.0581055h-0.7695312v-0.9462891l0.8359375-0.0546875l0.1542969-1.4746094h1.0556641v1.4746094
			h1.3759766v1.0009766h-1.3759766v2.5742188c0,0.6376953,0.2421875,0.9462891,0.7587891,0.9462891
			c0.1875,0,0.4082031-0.0556641,0.5615234-0.1210938l0.2197266,0.9345703
			c-0.296875,0.0996094-0.6708984,0.1982422-1.0996094,0.1982422c-1.2539062,0-1.7167969-0.7919922-1.7167969-1.9580078V51.0581055z
			"/>
		<path class="st46" d="M90.5839844,49.9243164c1.4628906,0,2.2333984,1.0566406,2.2333984,2.5634766
			c0,0.2421875-0.0224609,0.4619141-0.0556641,0.5947266h-3.4316406c0.109375,0.9785156,0.7255859,1.5292969,1.5947266,1.5292969
			c0.4619141,0,0.8583984-0.1435547,1.2548828-0.3964844l0.4287109,0.7919922
			c-0.5166016,0.3408203-1.1669922,0.5830078-1.8486328,0.5830078c-1.4960938,0-2.6621094-1.0449219-2.6621094-2.8271484
			C88.0976562,51.0024414,89.3183594,49.9243164,90.5839844,49.9243164z M91.7167969,52.2788086
			c0-0.8574219-0.3632812-1.375-1.0996094-1.375c-0.6386719,0-1.1884766,0.4726562-1.2988281,1.375H91.7167969z"/>
		<path class="st46" d="M94.0263672,50.0571289h1.0449219l0.0878906,0.9570312h0.0439453
			c0.3847656-0.7041016,0.9570312-1.0898438,1.5292969-1.0898438c0.2753906,0,0.4511719,0.0332031,0.6162109,0.1103516
			l-0.2197266,1.1005859c-0.1875-0.0556641-0.3300781-0.0888672-0.5615234-0.0888672
			c-0.4287109,0-0.9462891,0.2978516-1.2763672,1.1113281v3.3007812h-1.2646484V50.0571289z"/>
	</g>
	<g>
		<path class="st46" d="M181.2050781,50.8979492c0-1.4414062,0.703125-2.2666016,1.7158203-2.2666016
			s1.7158203,0.8251953,1.7158203,2.2666016c0,1.4521484-0.703125,2.2880859-1.7158203,2.2880859
			S181.2050781,52.3500977,181.2050781,50.8979492z M183.7246094,50.8979492c0-1.078125-0.3417969-1.5292969-0.8037109-1.5292969
			s-0.8037109,0.4511719-0.8037109,1.5292969s0.3417969,1.5507812,0.8037109,1.5507812
			S183.7246094,51.9760742,183.7246094,50.8979492z M183.1523438,56.090332l3.9277344-7.4589844h0.7695312l-3.9277344,7.4589844
			H183.1523438z M186.3642578,53.8022461c0-1.4414062,0.7041016-2.2666016,1.7158203-2.2666016
			c1.0126953,0,1.7167969,0.8251953,1.7167969,2.2666016c0,1.4521484-0.7041016,2.2880859-1.7167969,2.2880859
			C187.0683594,56.090332,186.3642578,55.2543945,186.3642578,53.8022461z M188.8837891,53.8022461
			c0-1.078125-0.3408203-1.5292969-0.8037109-1.5292969c-0.4609375,0-0.8027344,0.4511719-0.8027344,1.5292969
			s0.3417969,1.5507812,0.8027344,1.5507812C188.5429688,55.3530273,188.8837891,54.8803711,188.8837891,53.8022461z"/>
	</g>
	<g>
		<path class="st46" d="M212.2050781,50.8979492c0-1.4414062,0.703125-2.2666016,1.7158203-2.2666016
			s1.7158203,0.8251953,1.7158203,2.2666016c0,1.4521484-0.703125,2.2880859-1.7158203,2.2880859
			S212.2050781,52.3500977,212.2050781,50.8979492z M214.7246094,50.8979492c0-1.078125-0.3417969-1.5292969-0.8037109-1.5292969
			s-0.8037109,0.4511719-0.8037109,1.5292969s0.3417969,1.5507812,0.8037109,1.5507812
			S214.7246094,51.9760742,214.7246094,50.8979492z M214.1523438,56.090332l3.9277344-7.4589844h0.7695312l-3.9277344,7.4589844
			H214.1523438z M217.3642578,53.8022461c0-1.4414062,0.7041016-2.2666016,1.7158203-2.2666016
			c1.0126953,0,1.7167969,0.8251953,1.7167969,2.2666016c0,1.4521484-0.7041016,2.2880859-1.7167969,2.2880859
			C218.0683594,56.090332,217.3642578,55.2543945,217.3642578,53.8022461z M219.8837891,53.8022461
			c0-1.078125-0.3408203-1.5292969-0.8037109-1.5292969c-0.4609375,0-0.8027344,0.4511719-0.8027344,1.5292969
			s0.3417969,1.5507812,0.8027344,1.5507812C219.5429688,55.3530273,219.8837891,54.8803711,219.8837891,53.8022461z"/>
	</g>
	<g>
		<path class="st36" d="M122.3925781,121.4335938h-1.4794922v-0.484375h1.4882812v-1.6582031h0.5097656v1.6582031h1.4873047
			v0.484375h-1.4960938V123.125h-0.5097656V121.4335938z"/>
		<path class="st36" d="M125.6738281,119.8691406h0.6542969L125.4951172,124h-0.6455078L125.6738281,119.8691406z
			 M125.8095703,118.6289062c0-0.28125,0.2294922-0.4931641,0.4931641-0.4931641
			c0.2207031,0,0.4160156,0.1445312,0.4160156,0.390625c0,0.2802734-0.2294922,0.484375-0.4931641,0.484375
			C126.0048828,119.0107422,125.8095703,118.875,125.8095703,118.6289062z"/>
		<path class="st36" d="M127.6796875,119.8691406h0.5351562l-0.0595703,0.6210938h0.0341797
			c0.4677734-0.4082031,0.9267578-0.7226562,1.4453125-0.7226562c0.6962891,0,0.9775391,0.390625,0.9775391,1.0283203
			c0,0.1953125-0.0175781,0.3398438-0.0683594,0.5693359L130.0166016,124h-0.6455078l0.5097656-2.5498047
			c0.0429688-0.2207031,0.0683594-0.3398438,0.0683594-0.484375c0-0.4160156-0.1875-0.6376953-0.6123047-0.6376953
			c-0.3232422,0-0.7226562,0.2294922-1.2412109,0.7480469L127.5097656,124h-0.6455078L127.6796875,119.8691406z"/>
		<path class="st36" d="M131.7089844,119.9121094l0.5517578-0.0429688l0.1367188-0.6884766
			c0.1699219-0.8330078,0.6113281-1.3339844,1.3085938-1.3339844c0.2978516,0,0.5273438,0.0849609,0.7304688,0.2041016
			l-0.2294922,0.4667969c-0.1181641-0.0761719-0.2626953-0.1435547-0.4589844-0.1435547
			c-0.3740234,0-0.6025391,0.3056641-0.6962891,0.7900391l-0.1445312,0.7050781h0.8330078l-0.1025391,0.5273438h-0.8408203
			L132.0742188,124h-0.6464844l0.7226562-3.6035156h-0.5351562L131.7089844,119.9121094z"/>
	</g>
	<g>
		<path class="st45" d="M85.8398438,134.0366211c0.4550781,0.4550781,1.03125,0.875,1.9306641,0.875
			c0.9355469,0,1.6787109-0.6835938,1.6787109-1.7509766c0-1.0556641-0.6474609-1.6787109-1.6308594-1.6787109
			c-0.5273438,0-0.8515625,0.1679688-1.3066406,0.4677734l-0.5283203-0.3359375l0.2519531-3.6816406h3.8261719v0.8515625h-2.9619141
			l-0.2050781,2.2666016c0.3603516-0.1923828,0.7080078-0.3125,1.1757812-0.3125c1.3076172,0,2.375,0.7441406,2.375,2.3994141
			c0,1.6542969-1.2480469,2.5898438-2.578125,2.5898438c-1.2246094,0-1.9794922-0.515625-2.5078125-1.0429688
			L85.8398438,134.0366211z"/>
		<path class="st45" d="M91.5517578,131.7338867c0-2.5664062,0.9228516-3.9462891,2.4580078-3.9462891
			c1.5234375,0,2.4472656,1.3798828,2.4472656,3.9462891s-0.9238281,3.9931641-2.4472656,3.9931641
			C92.4746094,135.7270508,91.5517578,134.300293,91.5517578,131.7338867z M95.4980469,131.7338867
			c0-2.2431641-0.5996094-3.1542969-1.4882812-3.1542969c-0.8984375,0-1.4980469,0.9111328-1.4980469,3.1542969
			c0,2.2421875,0.5996094,3.2021484,1.4980469,3.2021484C94.8984375,134.9360352,95.4980469,133.9760742,95.4980469,131.7338867z"/>
		<path class="st45" d="M98.4863281,134.2163086c0.3847656,0,0.7080078,0.3115234,0.7080078,0.7675781
			c0,0.4316406-0.3232422,0.7431641-0.7080078,0.7431641c-0.3945312,0-0.71875-0.3115234-0.71875-0.7431641
			C97.7675781,134.527832,98.0917969,134.2163086,98.4863281,134.2163086z"/>
		<path class="st45" d="M100.5039062,131.7338867c0-2.5664062,0.9228516-3.9462891,2.4580078-3.9462891
			c1.5234375,0,2.4462891,1.3798828,2.4462891,3.9462891s-0.9228516,3.9931641-2.4462891,3.9931641
			C101.4267578,135.7270508,100.5039062,134.300293,100.5039062,131.7338867z M104.4492188,131.7338867
			c0-2.2431641-0.5996094-3.1542969-1.4873047-3.1542969c-0.8994141,0-1.4990234,0.9111328-1.4990234,3.1542969
			c0,2.2421875,0.5996094,3.2021484,1.4990234,3.2021484C103.8496094,134.9360352,104.4492188,133.9760742,104.4492188,131.7338867z
			"/>
	</g>
	<g>
		<path class="st45" d="M119.4804688,86.8334961h-3.1777344v-0.7099609h4.1074219v0.5097656
			c-1.5087891,1.9296875-1.8183594,3.3789062-1.9287109,5.8671875h-0.8496094
			C117.7421875,90.1020508,118.2216797,88.5825195,119.4804688,86.8334961z"/>
		<path class="st45" d="M121.4824219,91.2114258c0.3789062,0.3798828,0.859375,0.7294922,1.609375,0.7294922
			c0.7792969,0,1.3984375-0.5693359,1.3984375-1.4589844c0-0.8798828-0.5390625-1.3994141-1.359375-1.3994141
			c-0.4394531,0-0.7089844,0.1396484-1.0888672,0.3896484l-0.4404297-0.2802734l0.2109375-3.0683594H125v0.7099609h-2.46875
			l-0.1699219,1.8886719c0.3007812-0.1591797,0.5898438-0.2597656,0.9804688-0.2597656
			c1.0888672,0,1.9785156,0.6201172,1.9785156,1.9990234c0,1.3798828-1.0390625,2.1591797-2.1484375,2.1591797
			c-1.0195312,0-1.6503906-0.4296875-2.0898438-0.8701172L121.4824219,91.2114258z"/>
		<path class="st45" d="M127.0517578,91.3608398c0.3193359,0,0.5888672,0.2597656,0.5888672,0.6396484
			c0,0.3603516-0.2695312,0.6201172-0.5888672,0.6201172c-0.3300781,0-0.6005859-0.2597656-0.6005859-0.6201172
			C126.4511719,91.6206055,126.7216797,91.3608398,127.0517578,91.3608398z"/>
		<path class="st45" d="M128.7324219,89.2924805c0-2.1386719,0.7695312-3.2880859,2.0488281-3.2880859
			c1.2685547,0,2.0380859,1.1494141,2.0380859,3.2880859s-0.7695312,3.328125-2.0380859,3.328125
			C129.5019531,92.6206055,128.7324219,91.4311523,128.7324219,89.2924805z M132.0195312,89.2924805
			c0-1.8691406-0.5-2.6289062-1.2382812-2.6289062c-0.75,0-1.25,0.7597656-1.25,2.6289062s0.5,2.6679688,1.25,2.6679688
			C131.5195312,91.9604492,132.0195312,91.1616211,132.0195312,89.2924805z"/>
	</g>
	<g>
		<path class="st45" d="M57.8876953,92.0112305c1.9189453-1.9091797,2.9980469-3.0585938,2.9980469-4.0878906
			c0-0.7294922-0.3994141-1.25-1.2089844-1.25c-0.5302734,0-0.9892578,0.3398438-1.359375,0.7695312l-0.4697266-0.4697266
			c0.5292969-0.5791016,1.0996094-0.96875,1.9287109-0.96875c1.1796875,0,1.9091797,0.7490234,1.9091797,1.8789062
			c0,1.1992188-1.0898438,2.3886719-2.5986328,3.9677734c0.3496094-0.0302734,0.7392578-0.0605469,1.0693359-0.0605469h1.8496094
			v0.7099609h-4.1181641V92.0112305z"/>
		<path class="st45" d="M63.1074219,91.2114258c0.3789062,0.3798828,0.859375,0.7294922,1.609375,0.7294922
			c0.7792969,0,1.3984375-0.5693359,1.3984375-1.4589844c0-0.8798828-0.5390625-1.3994141-1.359375-1.3994141
			c-0.4394531,0-0.7089844,0.1396484-1.0888672,0.3896484l-0.4404297-0.2802734L63.4375,86.1235352h3.1875v0.7099609h-2.46875
			l-0.1699219,1.8886719c0.3007812-0.1591797,0.5898438-0.2597656,0.9804688-0.2597656
			c1.0888672,0,1.9785156,0.6201172,1.9785156,1.9990234c0,1.3798828-1.0390625,2.1591797-2.1484375,2.1591797
			c-1.0195312,0-1.6503906-0.4296875-2.0898438-0.8701172L63.1074219,91.2114258z"/>
		<path class="st45" d="M68.6767578,91.3608398c0.3193359,0,0.5888672,0.2597656,0.5888672,0.6396484
			c0,0.3603516-0.2695312,0.6201172-0.5888672,0.6201172c-0.3300781,0-0.6005859-0.2597656-0.6005859-0.6201172
			C68.0761719,91.6206055,68.3466797,91.3608398,68.6767578,91.3608398z"/>
		<path class="st45" d="M70.3574219,89.2924805c0-2.1386719,0.7695312-3.2880859,2.0488281-3.2880859
			c1.2685547,0,2.0380859,1.1494141,2.0380859,3.2880859s-0.7695312,3.328125-2.0380859,3.328125
			C71.1269531,92.6206055,70.3574219,91.4311523,70.3574219,89.2924805z M73.6445312,89.2924805
			c0-1.8691406-0.5-2.6289062-1.2382812-2.6289062c-0.75,0-1.25,0.7597656-1.25,2.6289062s0.5,2.6679688,1.25,2.6679688
			C73.1445312,91.9604492,73.6445312,91.1616211,73.6445312,89.2924805z"/>
	</g>
	<g>
		<path class="st45" d="M113.1669922,112.9458008h1.4589844v-4.6972656h-1.1591797v-0.5302734
			c0.5800781-0.0996094,1-0.2597656,1.3496094-0.4697266h0.6289062v5.6972656h1.3203125v0.6796875h-3.5986328V112.9458008z"/>
		<path class="st45" d="M117.7871094,110.4174805c0-2.1386719,0.7695312-3.2880859,2.0488281-3.2880859
			c1.2695312,0,2.0390625,1.1494141,2.0390625,3.2880859s-0.7695312,3.328125-2.0390625,3.328125
			C118.5566406,113.7456055,117.7871094,112.5561523,117.7871094,110.4174805z M121.0751953,110.4174805
			c0-1.8691406-0.5-2.6289062-1.2392578-2.6289062c-0.75,0-1.25,0.7597656-1.25,2.6289062s0.5,2.6679688,1.25,2.6679688
			C120.5751953,113.0854492,121.0751953,112.2866211,121.0751953,110.4174805z"/>
		<path class="st45" d="M122.7568359,110.4174805c0-2.1386719,0.7695312-3.2880859,2.0488281-3.2880859
			c1.2685547,0,2.0380859,1.1494141,2.0380859,3.2880859s-0.7695312,3.328125-2.0380859,3.328125
			C123.5263672,113.7456055,122.7568359,112.5561523,122.7568359,110.4174805z M126.0449219,110.4174805
			c0-1.8691406-0.5-2.6289062-1.2392578-2.6289062c-0.7490234,0-1.2490234,0.7597656-1.2490234,2.6289062
			s0.5,2.6679688,1.2490234,2.6679688C125.5449219,113.0854492,126.0449219,112.2866211,126.0449219,110.4174805z"/>
		<path class="st45" d="M128.5361328,112.4858398c0.3193359,0,0.5888672,0.2597656,0.5888672,0.6396484
			c0,0.3603516-0.2695312,0.6201172-0.5888672,0.6201172c-0.3300781,0-0.6005859-0.2597656-0.6005859-0.6201172
			C127.9355469,112.7456055,128.2060547,112.4858398,128.5361328,112.4858398z"/>
		<path class="st45" d="M130.2167969,110.4174805c0-2.1386719,0.7695312-3.2880859,2.0488281-3.2880859
			c1.2685547,0,2.0380859,1.1494141,2.0380859,3.2880859s-0.7695312,3.328125-2.0380859,3.328125
			C130.9863281,113.7456055,130.2167969,112.5561523,130.2167969,110.4174805z M133.5039062,110.4174805
			c0-1.8691406-0.5-2.6289062-1.2382812-2.6289062c-0.75,0-1.25,0.7597656-1.25,2.6289062s0.5,2.6679688,1.25,2.6679688
			C133.0039062,113.0854492,133.5039062,112.2866211,133.5039062,110.4174805z"/>
	</g>
	<g>
		<path class="st45" d="M162.2285156,114.2592773h0.7695312L161.75,120.4858398
			c-0.0205078,0.0996094-0.0205078,0.1503906-0.0205078,0.1904297c0,0.1191406,0.0693359,0.1796875,0.1699219,0.1796875
			c0.0400391,0,0.0693359,0,0.1591797-0.0302734l0.0107422,0.5898438c-0.1298828,0.0498047-0.2705078,0.0800781-0.4794922,0.0800781
			c-0.4296875,0-0.6503906-0.2304688-0.6503906-0.6298828c0-0.1103516,0.0205078-0.25,0.0605469-0.4199219L162.2285156,114.2592773z
			"/>
		<path class="st45" d="M164.2597656,116.5180664h0.7695312l-0.9804688,4.8574219h-0.7587891L164.2597656,116.5180664z
			 M164.4189453,115.059082c0-0.3300781,0.2705078-0.5800781,0.5800781-0.5800781
			c0.2597656,0,0.4892578,0.1699219,0.4892578,0.4599609c0,0.3300781-0.2695312,0.5693359-0.5800781,0.5693359
			C164.6484375,115.5083008,164.4189453,115.3491211,164.4189453,115.059082z"/>
		<path class="st45" d="M166.6191406,116.5180664h0.6298828l-0.0693359,0.7294922h0.0390625
			c0.5498047-0.4794922,1.0898438-0.8496094,1.6992188-0.8496094c0.8203125,0,1.1494141,0.4599609,1.1494141,1.2099609
			c0,0.2294922-0.0205078,0.3994141-0.0800781,0.6689453l-0.6201172,3.0986328h-0.7587891l0.5996094-2.9980469
			c0.0498047-0.2597656,0.0800781-0.4003906,0.0800781-0.5703125c0-0.4892578-0.2197266-0.7490234-0.7197266-0.7490234
			c-0.3798828,0-0.8496094,0.2695312-1.4589844,0.8789062l-0.6894531,3.4384766h-0.7597656L166.6191406,116.5180664z"/>
		<path class="st45" d="M173.5683594,116.3979492c1.0898438,0,1.5,0.7597656,1.5,1.7597656
			c0,0.3896484-0.1113281,0.7695312-0.1699219,0.9492188h-3.1591797c-0.1796875,1.2490234,0.4697266,1.7792969,1.3193359,1.7792969
			c0.3798828,0,0.7792969-0.1904297,1.0898438-0.4199219l0.2988281,0.5097656
			c-0.3886719,0.2792969-0.9394531,0.5195312-1.5683594,0.5195312c-1.1494141,0-1.9091797-0.7294922-1.9091797-2.0292969
			C170.9697266,117.637207,172.2988281,116.3979492,173.5683594,116.3979492z M174.3681641,118.5874023
			c0.0302734-0.1601562,0.0498047-0.3105469,0.0498047-0.5c0-0.5498047-0.2402344-1.0791016-0.9394531-1.0791016
			c-0.7089844,0-1.4091797,0.6191406-1.6591797,1.5791016H174.3681641z"/>
		<path class="st45" d="M178.4287109,116.3979492c0.5195312,0,0.9394531,0.2900391,1.1689453,0.7294922h0.0400391
			l0.1904297-0.609375h0.6191406l-0.96875,4.8574219h-0.6308594l0.0800781-0.7197266h-0.0390625
			c-0.4707031,0.5-1.0800781,0.8398438-1.6894531,0.8398438c-0.8496094,0-1.3994141-0.6201172-1.3994141-1.7587891
			C175.7998047,117.8676758,177.0791016,116.3979492,178.4287109,116.3979492z M179.0078125,119.9262695l0.4394531-2.1689453
			c-0.2792969-0.5097656-0.6191406-0.7197266-0.9882812-0.7197266c-0.9697266,0-1.8691406,1.2392578-1.8691406,2.5791016
			c0,0.8388672,0.3496094,1.2392578,0.8886719,1.2392578C177.9882812,120.855957,178.5283203,120.5561523,179.0078125,119.9262695z"
			/>
		<path class="st45" d="M182.0498047,116.5180664h0.6298828l-0.1103516,0.9296875h0.0400391
			c0.3896484-0.5898438,0.9091797-1.0498047,1.5097656-1.0498047c0.1796875,0,0.3193359,0.0302734,0.4589844,0.0898438
			l-0.2695312,0.6796875c-0.0996094-0.0498047-0.2402344-0.0800781-0.4199219-0.0800781
			c-0.4804688,0-1.0195312,0.4306641-1.4296875,1.2197266l-0.609375,3.0683594h-0.7597656L182.0498047,116.5180664z"/>
	</g>
	<g>
		<path class="st45" d="M161.2890625,137.4033203h1.4589844v-4.6972656h-1.1582031v-0.5302734
			c0.5791016-0.0996094,0.9990234-0.2597656,1.3486328-0.4697266h0.6298828v5.6972656h1.3193359v0.6796875h-3.5986328V137.4033203z"
			/>
		<path class="st45" d="M165.9101562,134.875c0-2.1386719,0.7695312-3.2880859,2.0488281-3.2880859
			c1.2685547,0,2.0380859,1.1494141,2.0380859,3.2880859s-0.7695312,3.328125-2.0380859,3.328125
			C166.6796875,138.203125,165.9101562,137.0136719,165.9101562,134.875z M169.1972656,134.875
			c0-1.8691406-0.5-2.6289062-1.2382812-2.6289062c-0.75,0-1.25,0.7597656-1.25,2.6289062s0.5,2.6679688,1.25,2.6679688
			C168.6972656,137.5429688,169.1972656,136.7441406,169.1972656,134.875z"/>
		<path class="st45" d="M170.8789062,134.875c0-2.1386719,0.7695312-3.2880859,2.0488281-3.2880859
			c1.2695312,0,2.0390625,1.1494141,2.0390625,3.2880859s-0.7695312,3.328125-2.0390625,3.328125
			C171.6484375,138.203125,170.8789062,137.0136719,170.8789062,134.875z M174.1679688,134.875
			c0-1.8691406-0.5-2.6289062-1.2402344-2.6289062c-0.7490234,0-1.2490234,0.7597656-1.2490234,2.6289062
			s0.5,2.6679688,1.2490234,2.6679688C173.6679688,137.5429688,174.1679688,136.7441406,174.1679688,134.875z"/>
		<path class="st45" d="M178.2480469,135.3046875c0-1.7587891,0.4902344-3.1982422,1.3203125-4.5380859l0.5097656,0.2402344
			c-0.7695312,1.2695312-1.1503906,2.7783203-1.1503906,4.2978516c0,1.5185547,0.3808594,3.0283203,1.1503906,4.2978516
			l-0.5097656,0.2392578C178.7382812,138.5029297,178.2480469,137.0634766,178.2480469,135.3046875z"/>
		<path class="st45" d="M181.2480469,137.4033203h1.4589844v-4.6972656h-1.1582031v-0.5302734
			c0.5791016-0.0996094,0.9990234-0.2597656,1.3486328-0.4697266h0.6298828v5.6972656h1.3193359v0.6796875h-3.5986328V137.4033203z"
			/>
		<path class="st45" d="M185.8691406,134.875c0-2.1386719,0.7695312-3.2880859,2.0488281-3.2880859
			c1.2685547,0,2.0380859,1.1494141,2.0380859,3.2880859s-0.7695312,3.328125-2.0380859,3.328125
			C186.6386719,138.203125,185.8691406,137.0136719,185.8691406,134.875z M189.15625,134.875
			c0-1.8691406-0.5-2.6289062-1.2382812-2.6289062c-0.75,0-1.25,0.7597656-1.25,2.6289062s0.5,2.6679688,1.25,2.6679688
			C188.65625,137.5429688,189.15625,136.7441406,189.15625,134.875z"/>
		<path class="st45" d="M190.8378906,134.875c0-2.1386719,0.7695312-3.2880859,2.0488281-3.2880859
			c1.2695312,0,2.0390625,1.1494141,2.0390625,3.2880859s-0.7695312,3.328125-2.0390625,3.328125
			C191.6074219,138.203125,190.8378906,137.0136719,190.8378906,134.875z M194.1269531,134.875
			c0-1.8691406-0.5-2.6289062-1.2402344-2.6289062c-0.7490234,0-1.2490234,0.7597656-1.2490234,2.6289062
			s0.5,2.6679688,1.2490234,2.6679688C193.6269531,137.5429688,194.1269531,136.7441406,194.1269531,134.875z"/>
		<path class="st45" d="M195.8085938,134.875c0-2.1386719,0.7695312-3.2880859,2.0488281-3.2880859
			c1.2685547,0,2.0380859,1.1494141,2.0380859,3.2880859s-0.7695312,3.328125-2.0380859,3.328125
			C196.578125,138.203125,195.8085938,137.0136719,195.8085938,134.875z M199.0957031,134.875
			c0-1.8691406-0.5-2.6289062-1.2382812-2.6289062c-0.75,0-1.25,0.7597656-1.25,2.6289062s0.5,2.6679688,1.25,2.6679688
			C198.5957031,137.5429688,199.0957031,136.7441406,199.0957031,134.875z"/>
		<path class="st45" d="M201.8671875,135.3046875c0-1.5195312-0.3798828-3.0283203-1.1494141-4.2978516l0.5097656-0.2402344
			c0.8291016,1.3398438,1.3193359,2.7792969,1.3193359,4.5380859s-0.4902344,3.1982422-1.3193359,4.5371094l-0.5097656-0.2392578
			C201.4873047,138.3330078,201.8671875,136.8232422,201.8671875,135.3046875z"/>
		<path class="st45" d="M206.0771484,136.9833984c0.4199219,0.3398438,0.8496094,0.5800781,1.4287109,0.5800781
			c0.640625,0,0.9599609-0.3398438,0.9599609-0.7597656c0-0.5-0.5791016-0.7197266-1.109375-0.9199219
			c-0.6894531-0.2490234-1.4492188-0.5791016-1.4492188-1.3984375c0-0.7802734,0.6201172-1.3798828,1.6689453-1.3798828
			c0.609375,0,1.1396484,0.25,1.5097656,0.5498047l-0.390625,0.5195312
			c-0.3291016-0.2490234-0.6796875-0.4296875-1.109375-0.4296875c-0.609375,0-0.8886719,0.3300781-0.8886719,0.7001953
			c0,0.4492188,0.5292969,0.6289062,1.0791016,0.8388672c0.7001953,0.2597656,1.4794922,0.5498047,1.4794922,1.4697266
			c0,0.7890625-0.6298828,1.4492188-1.7792969,1.4492188c-0.6894531,0-1.3496094-0.2900391-1.8085938-0.6699219
			L206.0771484,136.9833984z"/>
		<path class="st45" d="M210.5371094,133.8955078h-0.7197266v-0.6201172l0.7597656-0.0498047l0.1005859-1.359375h0.6894531v1.359375
			h1.3085938v0.6699219h-1.3085938v2.6982422c0,0.5996094,0.1894531,0.9394531,0.7490234,0.9394531
			c0.1699219,0,0.3896484-0.0703125,0.5498047-0.1298828l0.1601562,0.6201172
			c-0.2695312,0.0898438-0.5996094,0.1796875-0.9003906,0.1796875c-1.0390625,0-1.3886719-0.6601562-1.3886719-1.6191406
			V133.8955078z"/>
		<path class="st45" d="M215.4960938,133.1054688c1.2392578,0,1.9394531,0.8896484,1.9394531,2.2792969
			c0,0.1699219-0.0107422,0.3291016-0.03125,0.4492188h-3.2773438c0.0595703,1.0498047,0.6894531,1.7089844,1.6191406,1.7089844
			c0.4589844,0,0.8496094-0.1494141,1.2089844-0.3798828l0.2900391,0.5400391c-0.4199219,0.2695312-0.9394531,0.5-1.5986328,0.5
			c-1.2998047,0-2.3291016-0.9492188-2.3291016-2.5390625C213.3173828,134.0751953,214.3867188,133.1054688,215.4960938,133.1054688
			z M216.7148438,135.2949219c0-0.9902344-0.4394531-1.5390625-1.1992188-1.5390625
			c-0.6796875,0-1.2988281,0.5595703-1.3984375,1.5390625H216.7148438z"/>
		<path class="st45" d="M219.4570312,138.4931641v1.6386719h-0.8203125v-6.90625h0.6796875l0.0703125,0.5595703h0.0292969
			c0.4404297-0.3691406,0.9804688-0.6796875,1.5498047-0.6796875c1.2490234,0,1.9189453,0.9697266,1.9189453,2.4785156
			c0,1.6494141-0.9902344,2.6191406-2.0996094,2.6191406c-0.4492188,0-0.8984375-0.2099609-1.3486328-0.5595703
			L219.4570312,138.4931641z M220.6464844,137.5136719c0.7988281,0,1.3886719-0.7294922,1.3886719-1.9296875
			c0-1.0693359-0.359375-1.7890625-1.2792969-1.7890625c-0.4101562,0-0.8203125,0.2304688-1.2988281,0.6601562v2.5488281
			C219.8964844,137.3730469,220.3261719,137.5136719,220.6464844,137.5136719z"/>
		<path class="st45" d="M224.0566406,136.9833984c0.4199219,0.3398438,0.8496094,0.5800781,1.4296875,0.5800781
			c0.6386719,0,0.9589844-0.3398438,0.9589844-0.7597656c0-0.5-0.5800781-0.7197266-1.109375-0.9199219
			c-0.6894531-0.2490234-1.4492188-0.5791016-1.4492188-1.3984375c0-0.7802734,0.6191406-1.3798828,1.6699219-1.3798828
			c0.609375,0,1.1386719,0.25,1.5078125,0.5498047l-0.3886719,0.5195312
			c-0.3300781-0.2490234-0.6796875-0.4296875-1.109375-0.4296875c-0.609375,0-0.890625,0.3300781-0.890625,0.7001953
			c0,0.4492188,0.5302734,0.6289062,1.0800781,0.8388672c0.6992188,0.2597656,1.4785156,0.5498047,1.4785156,1.4697266
			c0,0.7890625-0.6289062,1.4492188-1.7783203,1.4492188c-0.6894531,0-1.3486328-0.2900391-1.8095703-0.6699219
			L224.0566406,136.9833984z"/>
	</g>
	<g>
		<path class="st45" d="M66.5996094,110.4174805c0-2.1386719,0.7695312-3.2880859,2.0488281-3.2880859
			c1.2695312,0,2.0390625,1.1494141,2.0390625,3.2880859s-0.7695312,3.328125-2.0390625,3.328125
			C67.3691406,113.7456055,66.5996094,112.5561523,66.5996094,110.4174805z M69.8886719,110.4174805
			c0-1.8691406-0.5-2.6289062-1.2402344-2.6289062c-0.7490234,0-1.2490234,0.7597656-1.2490234,2.6289062
			s0.5,2.6679688,1.2490234,2.6679688C69.3886719,113.0854492,69.8886719,112.2866211,69.8886719,110.4174805z"/>
		<path class="st45" d="M72.3789062,112.4858398c0.3203125,0,0.5898438,0.2597656,0.5898438,0.6396484
			c0,0.3603516-0.2695312,0.6201172-0.5898438,0.6201172c-0.3300781,0-0.5996094-0.2597656-0.5996094-0.6201172
			C71.7792969,112.7456055,72.0488281,112.4858398,72.3789062,112.4858398z"/>
		<path class="st45" d="M74.0595703,110.4174805c0-2.1386719,0.7695312-3.2880859,2.0488281-3.2880859
			c1.2685547,0,2.0380859,1.1494141,2.0380859,3.2880859s-0.7695312,3.328125-2.0380859,3.328125
			C74.8291016,113.7456055,74.0595703,112.5561523,74.0595703,110.4174805z M77.3476562,110.4174805
			c0-1.8691406-0.5-2.6289062-1.2392578-2.6289062c-0.7490234,0-1.2490234,0.7597656-1.2490234,2.6289062
			s0.5,2.6679688,1.2490234,2.6679688C76.8476562,113.0854492,77.3476562,112.2866211,77.3476562,110.4174805z"/>
	</g>
	<g>
		<g>
			<line class="st42" x1="158.625" y1="106.5" x2="158.625" y2="69.0833282"/>
			<g>
				<polygon class="st44" points="159.9178467,69.9650726 158.625,65.1409073 157.3321533,69.9650726 				"/>
			</g>
		</g>
	</g>
	<g>
		<g>
			<line class="st42" x1="158.625" y1="106.5" x2="244.041626" y2="106.5"/>
			<g>
				<polygon class="st44" points="243.1599121,107.7928467 247.9841309,106.5 243.1599121,105.2071533 				"/>
			</g>
		</g>
	</g>
	<line class="st42" x1="202.9374847" y1="88.1436691" x2="202.9374847" y2="65.768898"/>
	<polygon class="st44" points="202.9375,69.1022263 205.3580475,64.1022263 200.5169525,64.1022263 	"/>
	<circle class="st47" cx="202.9374847" cy="88.1397705" r="1.25"/>
	<line class="st48" x1="72.375" y1="23" x2="72.375" y2="42"/>
	<line class="st48" x1="23.5" y1="78.375" x2="85.8037109" y2="78.375"/>
	<line class="st48" x1="185.5" y1="23" x2="185.5" y2="42"/>
	<line class="st48" x1="216.5" y1="23" x2="216.5" y2="42"/>
	<line class="st48" x1="127.375" y1="163" x2="127.375" y2="127"/>
	<line class="st48" x1="242.5" y1="23" x2="242.5" y2="42"/>
	<line class="st48" x1="273.5" y1="91" x2="242.5" y2="91"/>
	<line class="st48" x1="273.5" y1="118" x2="188.875" y2="118"/>
	<line class="st48" x1="273.5" y1="136" x2="231.875" y2="136"/>
	<path class="st31" d="M100.9492188,105.3994141l-1.5566406-3.6855469c1.1894531-0.5019531,2.2587891-1.2236328,3.1787109-2.1425781
		c0.918457-0.9189453,1.6401367-1.9882812,2.144043-3.1796875C105.2358398,95.1601562,105.5,93.8505859,105.5,92.5
		s-0.2641602-2.6601562-0.7851562-3.8916016c-0.503418-1.1914062-1.2250977-2.2607422-2.1435547-3.1796875
		c-0.9199219-0.9189453-1.9892578-1.640625-3.1787109-2.1425781c-2.4648438-1.0429688-5.3212891-1.0419922-7.7841797-0.0009766
		c-1.1904297,0.5029297-2.2597656,1.2246094-3.1796875,2.1435547c-0.918457,0.9189453-1.6401367,1.9882812-2.144043,3.1796875
		C85.7641602,89.8398438,85.5,91.1494141,85.5,92.5s0.2641602,2.6601562,0.7851562,3.8916016
		c0.503418,1.1914062,1.2250977,2.2607422,2.1435547,3.1796875c0.9199219,0.9189453,1.9892578,1.640625,3.1787109,2.1425781
		l-1.5566406,3.6855469c-1.6669922-0.7050781-3.1640625-1.7138672-4.4501953-3
		c-1.284668-1.2841797-2.2939453-2.78125-2.9995117-4.4492188C81.8701172,96.2216797,81.5,94.3886719,81.5,92.5
		s0.3701172-3.7216797,1.1005859-5.4501953c0.7060547-1.6679688,1.715332-3.1650391,3-4.4492188
		c1.2861328-1.2861328,2.7832031-2.2949219,4.4501953-3c3.4521484-1.4609375,7.4453125-1.4619141,10.8994141,0.0009766
		c1.6660156,0.7041016,3.1630859,1.7128906,4.4492188,2.9990234c1.284668,1.2841797,2.2939453,2.78125,2.9995117,4.4492188
		C109.1298828,88.7783203,109.5,90.6113281,109.5,92.5s-0.3701172,3.7216797-1.1005859,5.4501953
		c-0.7060547,1.6679688-1.715332,3.1650391-3,4.4492188C104.1132812,103.6855469,102.6162109,104.6943359,100.9492188,105.3994141z"
		/>
	<g>
		<path class="st49" d="M271.8974609,136.0639648c0-4.1733398,3.40625-7.5795898,7.6162109-7.5795898
			c4.1738281,0,7.5791016,3.3701172,7.5791016,7.5795898c0,4.2099609-3.4052734,7.6162109-7.5791016,7.6162109
			C275.3037109,143.6801758,271.8974609,140.2739258,271.8974609,136.0639648z M274.5478516,139.8662109h4.7138672v-1.2475586
			h-1.4990234v-6.5004883h-1.1035156c-0.4921875,0.300293-1.03125,0.4916992-1.8115234,0.6357422v0.9716797h1.4033203v4.8930664
			h-1.703125V139.8662109z M284.9707031,135.9560547c0-2.5185547-0.9716797-3.9814453-2.6513672-3.9814453
			c-1.6787109,0-2.6503906,1.4628906-2.6503906,3.9814453c0,2.5429688,0.9833984,4.0541992,2.6503906,4.0541992
			C283.9873047,140.0102539,284.9707031,138.4990234,284.9707031,135.9560547z M281.1083984,135.9560547
			c0-1.8706055,0.3955078-2.7822266,1.2109375-2.7822266c0.8037109,0,1.2119141,0.9233398,1.2119141,2.7822266
			c0,1.9072266-0.4082031,2.8544922-1.2119141,2.8544922C281.5166016,138.8105469,281.1083984,137.8393555,281.1083984,135.9560547z
			"/>
	</g>
	<g>
		<path class="st49" d="M64.7724609,18.2583008c0-4.1738281,3.40625-7.5800781,7.6162109-7.5800781
			c4.1738281,0,7.5791016,3.3701172,7.5791016,7.5800781c0,4.2094727-3.4052734,7.6157227-7.5791016,7.6157227
			C68.1787109,25.8740234,64.7724609,22.4677734,64.7724609,18.2583008z M70.0615234,22.0600586h4.7138672V20.8125h-1.5v-6.5004883
			h-1.1025391c-0.4921875,0.2998047-1.0322266,0.4921875-1.8115234,0.6357422v0.9716797h1.4033203V20.8125h-1.703125V22.0600586z"/>
	</g>
	<g>
		<path class="st49" d="M177.8974609,18.2583008c0-4.1738281,3.40625-7.5800781,7.6162109-7.5800781
			c4.1738281,0,7.5791016,3.3701172,7.5791016,7.5800781c0,4.2094727-3.4052734,7.6157227-7.5791016,7.6157227
			C181.3037109,25.8740234,177.8974609,22.4677734,177.8974609,18.2583008z M182.875,22.0600586h5.2773438v-1.2954102h-1.9316406
			c-0.3232422,0-0.7548828,0.0361328-1.1152344,0.0717773c1.4628906-1.546875,2.6748047-2.9262695,2.6748047-4.2695312
			c0-1.4511719-0.9716797-2.3984375-2.4707031-2.3984375c-0.9833984,0-1.7148438,0.3598633-2.5185547,1.2353516l0.8515625,0.8515625
			c0.515625-0.5878906,0.9951172-0.8759766,1.4873047-0.8759766c0.7548828,0,1.1992188,0.4677734,1.1992188,1.2597656
			c0,1.1391602-1.3193359,2.4702148-3.4541016,4.5332031V22.0600586z"/>
	</g>
	<g>
		<path class="st49" d="M208.8974609,18.2578125c0-4.1733398,3.40625-7.5795898,7.6162109-7.5795898
			c4.1738281,0,7.5791016,3.3701172,7.5791016,7.5795898c0,4.2099609-3.4052734,7.6162109-7.5791016,7.6162109
			C212.3037109,25.8740234,208.8974609,22.4677734,208.8974609,18.2578125z M219.2958984,19.9370117
			c0-0.9233398-0.5634766-1.6547852-1.5830078-1.8828125v-0.012207c0.8994141-0.359375,1.3310547-0.9594727,1.3310547-1.7988281
			c0-1.2832031-0.9716797-2.074707-2.5302734-2.074707c-0.8515625,0-1.6191406,0.3237305-2.375,1.0073242l0.7919922,0.9472656
			c0.4794922-0.4433594,0.9345703-0.7431641,1.5351562-0.7431641c0.6708984,0,1.0673828,0.359375,1.0673828,0.9589844
			c0,0.7919922-0.6484375,1.1757812-1.9912109,1.1635742v1.1274414c1.4990234-0.012207,2.2421875,0.3598633,2.2421875,1.2353516
			c0,0.659668-0.5273438,1.0913086-1.3427734,1.0913086c-0.671875,0-1.2714844-0.2998047-1.8115234-0.8754883l-0.7314453,0.9833984
			c0.6484375,0.7558594,1.5595703,1.1396484,2.6630859,1.1396484
			C218.1679688,22.2041016,219.2958984,21.2802734,219.2958984,19.9370117z"/>
	</g>
	<g>
		<path class="st49" d="M234.8974609,18.2583008c0-4.1738281,3.40625-7.5800781,7.6162109-7.5800781
			c4.1738281,0,7.5791016,3.3701172,7.5791016,7.5800781c0,4.2094727-3.4052734,7.6157227-7.5791016,7.6157227
			C238.3037109,25.8740234,234.8974609,22.4677734,234.8974609,18.2583008z M242.6455078,22.0600586h1.4150391v-1.9667969h0.9589844
			v-1.1875h-0.9589844v-4.59375h-1.7392578l-3.0458984,4.7734375v1.0078125h3.3701172V22.0600586z M242.6455078,17.2387695
			c0-0.4438477,0.0361328-1.1035156,0.0595703-1.5473633h-0.0234375c-0.1201172,0.2998047-0.2998047,0.6958008-0.5878906,1.1513672
			l-1.2832031,2.0629883h1.8349609V17.2387695z"/>
	</g>
	<g>
		<path class="st49" d="M12.0634766,78.3642578c0-4.1738281,3.40625-7.5800781,7.6162109-7.5800781
			c4.1738281,0,7.5791016,3.3701172,7.5791016,7.5800781c0,4.2094727-3.4052734,7.6157227-7.5791016,7.6157227
			C15.4697266,85.9799805,12.0634766,82.5737305,12.0634766,78.3642578z M22.4853516,79.6235352
			c0-1.5112305-0.9472656-2.4467773-2.4580078-2.4467773c-0.3359375,0-0.5996094,0.0600586-0.9355469,0.2158203l0.1435547-1.690918
			h2.8789062v-1.2836914h-4.1982422l-0.2275391,3.8623047l0.7197266,0.4555664
			c0.4677734-0.3120117,0.7314453-0.4438477,1.2236328-0.4438477c0.8388672,0,1.3427734,0.515625,1.3427734,1.3671875
			S20.4228516,81.0625,19.5595703,81.0625c-0.6474609,0-1.1992188-0.2636719-1.7988281-0.8515625l-0.7080078,0.9956055
			c0.5761719,0.5756836,1.4033203,1.1035156,2.6865234,1.1035156
			C21.3222656,82.3100586,22.4853516,81.1826172,22.4853516,79.6235352z"/>
	</g>
	<line class="st48" x1="23.5" y1="131.375" x2="82.8037109" y2="131.375"/>
	<g>
		<path class="st49" d="M12.0634766,131.3637695c0-4.1733398,3.40625-7.5795898,7.6162109-7.5795898
			c4.1738281,0,7.5791016,3.3701172,7.5791016,7.5795898c0,4.2099609-3.4052734,7.6162109-7.5791016,7.6162109
			C15.4697266,138.9799805,12.0634766,135.5737305,12.0634766,131.3637695z M21.9941406,132.7431641
			c0-1.5229492-0.8398438-2.4223633-2.2910156-2.4223633c-0.5390625,0-1.1513672,0.3115234-1.5830078,0.7915039
			c0.0839844-1.703125,0.671875-2.5908203,1.7275391-2.5908203c0.4550781,0,0.9472656,0.2519531,1.2109375,0.6118164
			l0.8271484-0.9355469c-0.5634766-0.6118164-1.2832031-0.9233398-2.1220703-0.9233398
			c-1.5830078,0-3.0585938,1.2592773-3.0585938,4.2456055c0,2.3388672,1.0908203,3.7900391,2.8300781,3.7900391
			C20.9501953,135.3100586,21.9941406,134.2304688,21.9941406,132.7431641z M20.5908203,132.7431641
			c0-0.8393555-0.3955078-1.2954102-1.1396484-1.2954102c-0.4794922,0-0.9355469,0.2998047-1.3066406,0.8276367
			c0.1318359,1.2236328,0.5996094,1.8588867,1.3671875,1.8588867
			C20.1591797,134.1342773,20.5908203,133.5830078,20.5908203,132.7431641z"/>
	</g>
	<g>
		<path class="st49" d="M119.7724609,168.2578125c0-4.1733398,3.40625-7.5795898,7.6162109-7.5795898
			c4.1738281,0,7.5791016,3.3701172,7.5791016,7.5795898c0,4.2099609-3.4052734,7.6162109-7.5791016,7.6162109
			C123.1787109,175.8740234,119.7724609,172.4677734,119.7724609,168.2578125z M127.8798828,172.0600586
			c0.1318359-3.0102539,0.4316406-4.59375,2.2314453-6.8242188v-0.9238281h-5.2412109v1.2836914h3.5498047
			c-1.4394531,2.0385742-1.9433594,3.7539062-2.0634766,6.4643555H127.8798828z"/>
	</g>
	<g>
		<path class="st49" d="M271.8974609,90.9663086c0-4.1733398,3.40625-7.5795898,7.6162109-7.5795898
			c4.1738281,0,7.5791016,3.3701172,7.5791016,7.5795898c0,4.2099609-3.4052734,7.6162109-7.5791016,7.6162109
			C275.3037109,98.5825195,271.8974609,95.1762695,271.8974609,90.9663086z M282.1162109,92.7773438
			c0-1.03125-0.6240234-1.5947266-1.3193359-1.9907227v-0.0239258c0.4912109-0.3598633,1.0195312-0.9833984,1.0195312-1.7631836
			c0-1.2832031-0.9121094-2.1225586-2.3027344-2.1225586c-1.3916016,0-2.3632812,0.8515625-2.3632812,2.0869141
			c0,0.7075195,0.3720703,1.2832031,1.0800781,1.7988281v0.0239258c-0.9238281,0.4916992-1.4033203,1.1396484-1.4033203,1.9667969
			c0,1.2592773,1.1152344,2.1591797,2.6503906,2.1591797S282.1162109,94.0249023,282.1162109,92.7773438z M280.7011719,92.7294922
			c0-0.7792969-0.7558594-1.0673828-1.7636719-1.4750977c-0.5039062,0.371582-0.7792969,0.8515625-0.7792969,1.3554688
			c0,0.6953125,0.5634766,1.1992188,1.3427734,1.1992188C280.2207031,93.809082,280.7011719,93.3774414,280.7011719,92.7294922z
			 M280.5566406,89.0834961c0-0.6474609-0.4433594-1.1035156-1.0673828-1.1035156
			c-0.5878906,0-0.9833984,0.3959961-0.9833984,0.9838867c0,0.7192383,0.6240234,1.043457,1.4628906,1.3671875
			C280.3652344,89.9233398,280.5566406,89.5151367,280.5566406,89.0834961z"/>
	</g>
	<g>
		<path class="st49" d="M271.8974609,117.9614258c0-4.1733398,3.40625-7.5795898,7.6162109-7.5795898
			c4.1738281,0,7.5791016,3.3701172,7.5791016,7.5795898c0,4.2099609-3.4052734,7.6162109-7.5791016,7.6162109
			C275.3037109,125.5776367,271.8974609,122.1713867,271.8974609,117.9614258z M282.3320312,117.6499023
			c0-2.3266602-1.0800781-3.777832-2.8183594-3.777832c-1.4160156,0-2.4589844,1.0791016-2.4589844,2.5541992
			c0,1.5234375,0.8398438,2.4228516,2.2783203,2.4228516c0.5400391,0,1.1640625-0.3115234,1.5957031-0.7792969
			c-0.0722656,1.7026367-0.671875,2.590332-1.7275391,2.590332c-0.4550781,0-0.9355469-0.2397461-1.2226562-0.6118164
			l-0.828125,0.9355469c0.5517578,0.5996094,1.2958984,0.9238281,2.1230469,0.9238281
			C280.8681641,121.9077148,282.3320312,120.6362305,282.3320312,117.6499023z M280.9042969,116.894043
			c-0.1318359-1.2109375-0.6113281-1.8466797-1.3789062-1.8466797c-0.6474609,0-1.0791016,0.5517578-1.0791016,1.3789062
			c0,0.8515625,0.4072266,1.3076172,1.1513672,1.3076172C280.0771484,117.7338867,280.5566406,117.421875,280.9042969,116.894043z"
			/>
	</g>
</g>
</svg>
