<svg xmlns="http://www.w3.org/2000/svg" width="1590" height="820" viewBox="0 0 1590 820"><title>block-simple</title><rect x="0.5" y="0.5" width="1589" height="819" rx="6.5" ry="6.5" fill="#1a1a1a"/><path d="M1583,1a6.00684,6.00684,0,0,1,6,6V813a6.00684,6.00684,0,0,1-6,6H7a6.0068,6.0068,0,0,1-6-6V7A6.00681,6.00681,0,0,1,7,1H1583m0-1H7A7.02058,7.02058,0,0,0,0,7V813a7.02059,7.02059,0,0,0,7,7H1583a7.02061,7.02061,0,0,0,7-7V7a7.02059,7.02059,0,0,0-7-7Z" fill="#333"/><rect x="60.5" y="170.5" width="139" height="99" rx="4.5" ry="4.5" fill="#4d4d4d"/><path d="M195,171a4.00454,4.00454,0,0,1,4,4v90a4.00454,4.00454,0,0,1-4,4H65a4.00454,4.00454,0,0,1-4-4V175a4.00454,4.00454,0,0,1,4-4H195m0-1H65a5.0147,5.0147,0,0,0-5,5v90a5.0147,5.0147,0,0,0,5,5H195a5.0147,5.0147,0,0,0,5-5V175a5.0147,5.0147,0,0,0-5-5Z" fill="#ffa55c"/><rect x="340.5" y="210.5" width="139" height="99" rx="4.5" ry="4.5" fill="#4d4d4d"/><path d="M475,211a4.00454,4.00454,0,0,1,4,4v90a4.00454,4.00454,0,0,1-4,4H345a4.00454,4.00454,0,0,1-4-4V215a4.00454,4.00454,0,0,1,4-4H475m0-1H345a5.0147,5.0147,0,0,0-5,5v90a5.0147,5.0147,0,0,0,5,5H475a5.0147,5.0147,0,0,0,5-5V215a5.0147,5.0147,0,0,0-5-5Z" fill="#ffa55c"/><rect x="510.5" y="210.5" width="139" height="99" rx="4.5" ry="4.5" fill="#4d4d4d"/><path d="M645,211a4.00452,4.00452,0,0,1,4,4v90a4.00452,4.00452,0,0,1-4,4H515a4.00454,4.00454,0,0,1-4-4V215a4.00454,4.00454,0,0,1,4-4H645m0-1H515a5.0147,5.0147,0,0,0-5,5v90a5.0147,5.0147,0,0,0,5,5H645a5.0147,5.0147,0,0,0,5-5V215a5.0147,5.0147,0,0,0-5-5Z" fill="#ffa55c"/><rect x="770.5" y="230.5" width="79" height="59" rx="4.5" ry="4.5" fill="#4d4d4d"/><path d="M845,231a4.00451,4.00451,0,0,1,4,4v50a4.00451,4.00451,0,0,1-4,4H775a4.00451,4.00451,0,0,1-4-4V235a4.00451,4.00451,0,0,1,4-4h70m0-1H775a5.0147,5.0147,0,0,0-5,5v50a5.0147,5.0147,0,0,0,5,5h70a5.0147,5.0147,0,0,0,5-5V235a5.0147,5.0147,0,0,0-5-5Z" fill="#ffa55c"/><rect x="770.5" y="410.5" width="79" height="59" rx="4.5" ry="4.5" fill="#4d4d4d"/><path d="M845,411a4.00451,4.00451,0,0,1,4,4v50a4.00452,4.00452,0,0,1-4,4H775a4.00452,4.00452,0,0,1-4-4V415a4.00451,4.00451,0,0,1,4-4h70m0-1H775a5.0147,5.0147,0,0,0-5,5v50a5.0147,5.0147,0,0,0,5,5h70a5.0147,5.0147,0,0,0,5-5V415a5.0147,5.0147,0,0,0-5-5Z" fill="#f0d878"/><rect x="1030.5" y="300.5" width="139" height="99" rx="4.5" ry="4.5" fill="#4d4d4d"/><path d="M1165,301a4.00456,4.00456,0,0,1,4,4v90a4.00456,4.00456,0,0,1-4,4H1035a4.00452,4.00452,0,0,1-4-4V305a4.00452,4.00452,0,0,1,4-4h130m0-1H1035a5.0147,5.0147,0,0,0-5,5v90a5.0147,5.0147,0,0,0,5,5h130a5.0147,5.0147,0,0,0,5-5V305a5.0147,5.0147,0,0,0-5-5Z" fill="#9dd98b"/><rect x="900.5" y="240.5" width="39" height="219" rx="4.5" ry="4.5" fill="#4d4d4d"/><path d="M935,241a4.00451,4.00451,0,0,1,4,4V455a4.00452,4.00452,0,0,1-4,4H905a4.00452,4.00452,0,0,1-4-4V245a4.00451,4.00451,0,0,1,4-4h30m0-1H905a5.0147,5.0147,0,0,0-5,5V455a5.0147,5.0147,0,0,0,5,5h30a5.0147,5.0147,0,0,0,5-5V245a5.0147,5.0147,0,0,0-5-5Z" fill="#ccc"/><rect x="60.5" y="430.5" width="139" height="99" rx="4.5" ry="4.5" fill="#4d4d4d"/><path d="M195,431a4.00454,4.00454,0,0,1,4,4v90a4.00454,4.00454,0,0,1-4,4H65a4.00454,4.00454,0,0,1-4-4V435a4.00454,4.00454,0,0,1,4-4H195m0-1H65a5.0147,5.0147,0,0,0-5,5v90a5.0147,5.0147,0,0,0,5,5H195a5.0147,5.0147,0,0,0,5-5V435a5.0147,5.0147,0,0,0-5-5Z" fill="#f0d878"/><rect x="60.5" y="300.5" width="139" height="99" rx="4.5" ry="4.5" fill="#4d4d4d"/><path d="M195,301a4.00454,4.00454,0,0,1,4,4v90a4.00454,4.00454,0,0,1-4,4H65a4.00454,4.00454,0,0,1-4-4V305a4.00454,4.00454,0,0,1,4-4H195m0-1H65a5.0147,5.0147,0,0,0-5,5v90a5.0147,5.0147,0,0,0,5,5H195a5.0147,5.0147,0,0,0,5-5V305a5.0147,5.0147,0,0,0-5-5Z" fill="#ccc"/><rect x="1040.5" y="490.5" width="259" height="99" rx="4.5" ry="4.5" fill="#4d4d4d"/><path d="M1295,491a4.00456,4.00456,0,0,1,4,4v90a4.00456,4.00456,0,0,1-4,4H1045a4.00452,4.00452,0,0,1-4-4V495a4.00452,4.00452,0,0,1,4-4h250m0-1H1045a5.0147,5.0147,0,0,0-5,5v90a5.0147,5.0147,0,0,0,5,5h250a5.0147,5.0147,0,0,0,5-5V495a5.0147,5.0147,0,0,0-5-5Z" fill="#ccc"/><path d="M1174.31836,199.5c-2.10547,0-3.81836-2.01855-3.81836-4.5V105c0-2.48145,1.71289-4.5,3.81836-4.5h181.36328c2.10547,0,3.81836,2.01855,3.81836,4.5v90c0,2.48145-1.71289,4.5-3.81836,4.5Z" fill="#4d4d4d"/><path d="M1355.68176,101c1.82971,0,3.31824,1.7944,3.31824,4v90c0,2.2056-1.48853,4-3.31824,4H1174.31824c-1.82971,0-3.31824-1.7944-3.31824-4V105c0-2.2056,1.48853-4,3.31824-4h181.36352m0-1H1174.31824c-2.375,0-4.31824,2.25-4.31824,5v90c0,2.75,1.94324,5,4.31824,5h181.36352c2.375,0,4.31824-2.25,4.31824-5V105c0-2.75-1.94324-5-4.31824-5Z" fill="#ccc"/><rect x="1390.5" y="100.5" width="89" height="99" rx="4.5" ry="4.5" fill="#4d4d4d"/><path d="M1475,101a4.00455,4.00455,0,0,1,4,4v90a4.00455,4.00455,0,0,1-4,4h-80a4.00455,4.00455,0,0,1-4-4V105a4.00455,4.00455,0,0,1,4-4h80m0-1h-80a5.0147,5.0147,0,0,0-5,5v90a5.0147,5.0147,0,0,0,5,5h80a5.0147,5.0147,0,0,0,5-5V105a5.0147,5.0147,0,0,0-5-5Z" fill="#ccc"/><rect x="1330.5" y="490.5" width="89" height="99" rx="4.5" ry="4.5" fill="#4d4d4d"/><path d="M1415,491a4.00454,4.00454,0,0,1,4,4v90a4.00454,4.00454,0,0,1-4,4h-80a4.00454,4.00454,0,0,1-4-4V495a4.00454,4.00454,0,0,1,4-4h80m0-1h-80a5.0147,5.0147,0,0,0-5,5v90a5.0147,5.0147,0,0,0,5,5h80a5.0147,5.0147,0,0,0,5-5V495a5.0147,5.0147,0,0,0-5-5Z" fill="#ccc"/><rect x="1260.5" y="300.5" width="139" height="99" rx="4.5" ry="4.5" fill="#4d4d4d"/><path d="M1395,301a4.00456,4.00456,0,0,1,4,4v90a4.00456,4.00456,0,0,1-4,4H1265a4.00456,4.00456,0,0,1-4-4V305a4.00456,4.00456,0,0,1,4-4h130m0-1H1265a5.0147,5.0147,0,0,0-5,5v90a5.0147,5.0147,0,0,0,5,5h130a5.0147,5.0147,0,0,0,5-5V305a5.0147,5.0147,0,0,0-5-5Z" fill="#74d4cf"/><rect x="340.5" y="390.5" width="139" height="99" rx="4.5" ry="4.5" fill="#4d4d4d"/><path d="M475,391a4.00454,4.00454,0,0,1,4,4v90a4.00454,4.00454,0,0,1-4,4H345a4.00454,4.00454,0,0,1-4-4V395a4.00454,4.00454,0,0,1,4-4H475m0-1H345a5.0147,5.0147,0,0,0-5,5v90a5.0147,5.0147,0,0,0,5,5H475a5.0147,5.0147,0,0,0,5-5V395a5.0147,5.0147,0,0,0-5-5Z" fill="#f0d878"/><rect x="510.5" y="390.5" width="139" height="99" rx="4.5" ry="4.5" fill="#4d4d4d"/><path d="M645,391a4.00452,4.00452,0,0,1,4,4v90a4.00452,4.00452,0,0,1-4,4H515a4.00454,4.00454,0,0,1-4-4V395a4.00454,4.00454,0,0,1,4-4H645m0-1H515a5.0147,5.0147,0,0,0-5,5v90a5.0147,5.0147,0,0,0,5,5H645a5.0147,5.0147,0,0,0,5-5V395a5.0147,5.0147,0,0,0-5-5Z" fill="#f0d878"/><rect x="890.5" y="670.5" width="99" height="79" rx="4.5" ry="4.5" fill="#4d4d4d"/><path d="M985,671a4.0045,4.0045,0,0,1,4,4v70a4.0045,4.0045,0,0,1-4,4H895a4.0045,4.0045,0,0,1-4-4V675a4.0045,4.0045,0,0,1,4-4h90m0-1H895a5.0147,5.0147,0,0,0-5,5v70a5.0147,5.0147,0,0,0,5,5h90a5.0147,5.0147,0,0,0,5-5V675a5.0147,5.0147,0,0,0-5-5Z" fill="#a1c2ff"/><rect x="1020.5" y="670.5" width="99" height="79" rx="4.5" ry="4.5" fill="#4d4d4d"/><path d="M1115,671a4.00454,4.00454,0,0,1,4,4v70a4.00454,4.00454,0,0,1-4,4h-90a4.0045,4.0045,0,0,1-4-4V675a4.0045,4.0045,0,0,1,4-4h90m0-1h-90a5.0147,5.0147,0,0,0-5,5v70a5.0147,5.0147,0,0,0,5,5h90a5.0147,5.0147,0,0,0,5-5V675a5.0147,5.0147,0,0,0-5-5Z" fill="#a1c2ff"/><rect x="1150.5" y="670.5" width="99" height="79" rx="4.5" ry="4.5" fill="#4d4d4d"/><path d="M1245,671a4.00454,4.00454,0,0,1,4,4v70a4.00454,4.00454,0,0,1-4,4h-90a4.00454,4.00454,0,0,1-4-4V675a4.00454,4.00454,0,0,1,4-4h90m0-1h-90a5.0147,5.0147,0,0,0-5,5v70a5.0147,5.0147,0,0,0,5,5h90a5.0147,5.0147,0,0,0,5-5V675a5.0147,5.0147,0,0,0-5-5Z" fill="#a1c2ff"/><rect x="1280.5" y="670.5" width="99" height="79" rx="4.5" ry="4.5" fill="#4d4d4d"/><path d="M1375,671a4.00454,4.00454,0,0,1,4,4v70a4.00454,4.00454,0,0,1-4,4h-90a4.00454,4.00454,0,0,1-4-4V675a4.00454,4.00454,0,0,1,4-4h90m0-1h-90a5.0147,5.0147,0,0,0-5,5v70a5.0147,5.0147,0,0,0,5,5h90a5.0147,5.0147,0,0,0,5-5V675a5.0147,5.0147,0,0,0-5-5Z" fill="#a1c2ff"/><rect x="1410.5" y="670.5" width="99" height="79" rx="4.5" ry="4.5" fill="#4d4d4d"/><path d="M1505,671a4.00454,4.00454,0,0,1,4,4v70a4.00454,4.00454,0,0,1-4,4h-90a4.00454,4.00454,0,0,1-4-4V675a4.00454,4.00454,0,0,1,4-4h90m0-1h-90a5.0147,5.0147,0,0,0-5,5v70a5.0147,5.0147,0,0,0,5,5h90a5.0147,5.0147,0,0,0,5-5V675a5.0147,5.0147,0,0,0-5-5Z" fill="#a1c2ff"/><circle cx="705" cy="260" r="14.5" fill="#4d4d4d"/><path d="M705,246a14,14,0,1,1-14,14,14.01587,14.01587,0,0,1,14-14m0-1a15,15,0,1,0,15,15,15,15,0,0,0-15-15Z" fill="#ffa55c"/><line x1="698.5" y1="253.5" x2="711.5" y2="266.5" fill="none" stroke="#b3b3b3"/><line x1="698.5" y1="266.5" x2="711.5" y2="253.5" fill="none" stroke="#b3b3b3"/><circle cx="705" cy="440" r="14.5" fill="#4d4d4d"/><path d="M705,426a14,14,0,1,1-14,14,14.01586,14.01586,0,0,1,14-14m0-1a15,15,0,1,0,15,15,15,15,0,0,0-15-15Z" fill="#f0d878"/><line x1="698.5" y1="433.5" x2="711.5" y2="446.5" fill="none" stroke="#b3b3b3"/><line x1="698.5" y1="446.5" x2="711.5" y2="433.5" fill="none" stroke="#b3b3b3"/><path d="M78.88281,209.478H87.5752v1.60986H80.7915v4.73682h5.72608v1.63281H80.7915v5.47266h7.01368V224.563H78.88281Z" fill="#ffa55c"/><path d="M90.81982,213.38721H92.3833l.16113,1.60986h.06885a5.26821,5.26821,0,0,1,3.748-1.88574c2.3457,0,3.40332,1.51806,3.40332,4.36914V224.563H97.87891V217.7334c0-2.09229-.64356-2.98926-2.11524-2.98926-1.1499,0-1.93164.59766-3.05859,1.72461V224.563H90.81982Z" fill="#ffa55c"/><path d="M101.791,213.38721h1.95459l2.11572,6.34668c.32178,1.104.68994,2.23047,1.03467,3.28857h.09179c.32227-1.0581.68994-2.18457,1.01172-3.28857l2.11572-6.34668h1.8628L108.023,224.563h-2.20752Z" fill="#ffa55c"/><path d="M113.22168,218.99805c0-3.65625,2.46045-5.88672,5.01318-5.88672,2.85108,0,4.46094,2.04687,4.46094,5.24316a7.3251,7.3251,0,0,1-.06885,1.08057h-7.54248c.1377,2.36865,1.58643,3.88623,3.7251,3.88623a5.04629,5.04629,0,0,0,2.78223-.874l.667,1.24169a6.65364,6.65364,0,0,1-3.6792,1.14991C115.59033,224.83887,113.22168,222.6543,113.22168,218.99805Zm7.81836-.91944c0-2.2539-1.01172-3.47265-2.75928-3.47265-1.56347,0-2.98926,1.26513-3.21924,3.47265Z" fill="#ffa55c"/><path d="M125.45752,222.30957V208.19043h1.88525v14.25684c0,.59814.25293.82812.5293.82812a1.586,1.586,0,0,0,.41357-.0459l.25293,1.4253a2.53334,2.53334,0,0,1-1.08056.18408C126.03223,224.83887,125.45752,223.94189,125.45752,222.30957Z" fill="#ffa55c"/><path d="M130.49414,218.99805c0-3.74805,2.4375-5.88672,5.17383-5.88672,2.73682,0,5.17383,2.13867,5.17383,5.88672,0,3.70215-2.437,5.84082-5.17383,5.84082C132.93164,224.83887,130.49414,222.7002,130.49414,218.99805Zm8.39356,0c0-2.5752-1.28809-4.32276-3.21973-4.32276-1.9082,0-3.21924,1.74756-3.21924,4.32276,0,2.55273,1.311,4.27734,3.21924,4.27734C137.59961,223.27539,138.8877,221.55078,138.8877,218.99805Z" fill="#ffa55c"/><path d="M143.78809,213.38721h1.56347l.16114,1.28808h.06884a5.78178,5.78178,0,0,1,3.56446-1.564c2.874,0,4.415,2.23047,4.415,5.70312,0,3.79395-2.27686,6.02442-4.82911,6.02442a5.18234,5.18234,0,0,1-3.10449-1.2876l.0459,1.95459v3.771h-1.88525Zm7.81836,5.42724c0-2.46045-.82813-4.11621-2.94336-4.11621a4.70911,4.70911,0,0,0-2.98975,1.51758v5.86377a4.42643,4.42643,0,0,0,2.73682,1.17285C150.24951,223.25244,151.60645,221.57373,151.60645,218.81445Z" fill="#ffa55c"/><path d="M155.7251,218.99805c0-3.65625,2.46045-5.88672,5.01318-5.88672,2.85108,0,4.46094,2.04687,4.46094,5.24316a7.3251,7.3251,0,0,1-.06885,1.08057h-7.54248c.1377,2.36865,1.58643,3.88623,3.7251,3.88623a5.04623,5.04623,0,0,0,2.78222-.874l.667,1.24169a6.65364,6.65364,0,0,1-3.6792,1.14991C158.09375,224.83887,155.7251,222.6543,155.7251,218.99805Zm7.81836-.91944c0-2.2539-1.01172-3.47265-2.75928-3.47265-1.56348,0-2.98926,1.26513-3.21924,3.47265Z" fill="#ffa55c"/><path d="M175.84863,209.478h2.16162l5.105,15.085h-2.04687l-1.42529-4.59912H174.147l-1.44873,4.59912h-1.95459Zm-1.21875,8.94531h4.53028l-.71289-2.29932c-.55225-1.67871-1.03516-3.33447-1.51758-5.082h-.09229c-.46,1.74756-.94287,3.40332-1.49463,5.082Z" fill="#ffa55c"/><path d="M356.66406,256.95166c0-4.8291,2.64453-7.74951,6.43848-7.74951s6.46094,2.94336,6.46094,7.74951c0,4.85205-2.667,7.88721-6.46094,7.88721S356.66406,261.80371,356.66406,256.95166Zm10.89942,0c0-3.74805-1.77051-6.0708-4.46094-6.0708s-4.46094,2.32275-4.46094,6.0708c0,3.771,1.77051,6.2085,4.46094,6.2085S367.56348,260.72266,367.56348,256.95166Z" fill="#ffa55c"/><path d="M371.38379,263.29834l.94238-1.26465a5.02524,5.02524,0,0,0,3.28809,1.3335c1.47168,0,2.208-.78174,2.208-1.74756,0-1.1499-1.334-1.65576-2.55274-2.11572-1.58691-.57471-3.334-1.3335-3.334-3.21924,0-1.79346,1.42578-3.17334,3.83984-3.17334a5.58409,5.58409,0,0,1,3.47266,1.26465l-.89746,1.1958a4.15023,4.15023,0,0,0-2.55176-.98877c-1.40332,0-2.04688.75879-2.04688,1.60986,0,1.05762,1.21875,1.44873,2.4834,1.93164,1.60938.59766,3.40332,1.26465,3.40332,3.38037,0,1.81641-1.44922,3.334-4.09277,3.334A6.72759,6.72759,0,0,1,371.38379,263.29834Z" fill="#ffa55c"/><path d="M381.43457,258.99805c0-3.748,2.50684-5.88672,5.38086-5.88672a4.64,4.64,0,0,1,3.26562,1.311l-.96582,1.2417a3.27758,3.27758,0,0,0-2.23046-.98877c-2.02442,0-3.4961,1.74756-3.4961,4.32276,0,2.55273,1.40332,4.27734,3.44922,4.27734a3.973,3.973,0,0,0,2.62207-1.127l.82715,1.26465a5.4501,5.4501,0,0,1-3.60938,1.42578C383.71094,264.83887,381.43457,262.7002,381.43457,258.99805Z" fill="#ffa55c"/><path d="M392.40527,249.86914a1.314,1.314,0,0,1,2.6211,0,1.314,1.314,0,0,1-2.6211,0Zm.34473,3.51807h1.88574V264.563H392.75Z" fill="#ffa55c"/><path d="M398.4082,262.30957V248.19043H400.293v14.25684c0,.59814.25293.82812.5293.82812a1.58742,1.58742,0,0,0,.41406-.0459l.25293,1.4253a2.53592,2.53592,0,0,1-1.08106.18408C398.98242,264.83887,398.4082,263.94189,398.4082,262.30957Z" fill="#ffa55c"/><path d="M404.27246,262.30957V248.19043h1.88574v14.25684c0,.59814.25293.82812.5293.82812a1.58477,1.58477,0,0,0,.41309-.0459l.25293,1.4253a2.53086,2.53086,0,0,1-1.08008.18408C404.84766,264.83887,404.27246,263.94189,404.27246,262.30957Z" fill="#ffa55c"/><path d="M409.44727,261.66553c0-2.4375,2.09277-3.65625,6.85253-4.18506,0-1.42578-.46-2.80518-2.2998-2.80518a6.07565,6.07565,0,0,0-3.334,1.1958l-.73536-1.311a8.28911,8.28911,0,0,1,4.39161-1.44873c2.73632,0,3.88671,1.81689,3.88671,4.59912V264.563h-1.56445l-.16015-1.3335H416.415a5.96345,5.96345,0,0,1-3.70215,1.60938A3.04152,3.04152,0,0,1,409.44727,261.66553Zm6.85253.16113v-3.10449c-3.7246.46-5.01269,1.37988-5.01269,2.80566,0,1.26465.874,1.79346,1.97754,1.79346A4.52927,4.52927,0,0,0,416.2998,261.82666Z" fill="#ffa55c"/><path d="M421.72949,261.11377v-6.18555h-1.65625v-1.42578l1.748-.11523.22949-3.127h1.58692v3.127h3.01269v1.541H423.6377v6.2085c0,1.37988.4375,2.16162,1.7246,2.16162a4.07032,4.07032,0,0,0,1.26465-.29883l.36817,1.42529a6.89931,6.89931,0,0,1-2.06934.41407C422.53418,264.83887,421.72949,263.32129,421.72949,261.11377Z" fill="#ffa55c"/><path d="M428.03125,258.99805c0-3.748,2.4375-5.88672,5.17383-5.88672,2.7373,0,5.17383,2.13867,5.17383,5.88672,0,3.70215-2.43653,5.84082-5.17383,5.84082C430.46875,264.83887,428.03125,262.7002,428.03125,258.99805Zm8.39355,0c0-2.5752-1.28808-4.32276-3.21972-4.32276-1.9082,0-3.21875,1.74756-3.21875,4.32276,0,2.55273,1.31055,4.27734,3.21875,4.27734C435.13672,263.27539,436.4248,261.55078,436.4248,258.99805Z" fill="#ffa55c"/><path d="M441.3252,253.38721h1.56347l.16113,2.02392h.06934a3.82211,3.82211,0,0,1,3.17285-2.2998,2.78221,2.78221,0,0,1,1.19629.23l-.36816,1.65576a3.13561,3.13561,0,0,0-1.08106-.18408c-.94238,0-2.06933.68994-2.82812,2.57568V264.563H441.3252Z" fill="#ffa55c"/><path d="M457.19434,249.478h2.16113l5.10547,15.085h-2.04688l-1.42578-4.59912h-5.49609L454.044,264.563h-1.95508Zm-1.21875,8.94531h4.53027L459.793,256.124c-.55274-1.67871-1.03516-3.33447-1.51856-5.082h-.09179c-.46,1.74756-.94239,3.40332-1.49414,5.082Z" fill="#ffa55c"/><path d="M538.14062,262.6084l1.14991-1.3335a5.908,5.908,0,0,0,4.16211,1.88526c1.97754,0,3.1499-.98877,3.1499-2.46045,0-1.54053-1.08057-2.02344-2.50635-2.66748l-2.16162-.94239c-1.42529-.59814-3.05811-1.67871-3.05811-3.88623,0-2.2998,2.00049-4.00146,4.73682-4.00146a6.25709,6.25709,0,0,1,4.46094,1.86279l-1.03467,1.2417a4.80952,4.80952,0,0,0-3.42627-1.42578c-1.67871,0-2.80517.85107-2.80517,2.20752,0,1.44873,1.31054,2.00049,2.50634,2.50635l2.13867.91992c1.74756.75879,3.104,1.79346,3.104,4.02441,0,2.39112-1.95459,4.29981-5.12744,4.29981A7.31417,7.31417,0,0,1,538.14062,262.6084Z" fill="#ffa55c"/><path d="M551.34229,248.19043h1.88525v4.46094l-.06885,2.2998a5.34306,5.34306,0,0,1,3.7251-1.83984c2.3457,0,3.40332,1.51806,3.40332,4.36914V264.563h-1.88574V257.7334c0-2.09229-.64356-2.98926-2.11524-2.98926-1.1499,0-1.93164.59766-3.05859,1.72461V264.563h-1.88525Z" fill="#ffa55c"/><path d="M563.16455,261.66553c0-2.4375,2.09229-3.65625,6.85254-4.18506,0-1.42578-.46-2.80518-2.2998-2.80518a6.07289,6.07289,0,0,0-3.334,1.1958l-.73584-1.311a8.2924,8.2924,0,0,1,4.39209-1.44873c2.73633,0,3.88623,1.81689,3.88623,4.59912V264.563h-1.564l-.16065-1.3335h-.06933a5.96229,5.96229,0,0,1-3.70215,1.60938A3.04114,3.04114,0,0,1,563.16455,261.66553Zm6.85254.16113v-3.10449c-3.7251.46-5.01318,1.37988-5.01318,2.80566,0,1.26465.874,1.79346,1.97754,1.79346A4.53029,4.53029,0,0,0,570.01709,261.82666Z" fill="#ffa55c"/><path d="M575.44629,253.38721h1.56348l.16113,1.28808h.06885a5.78173,5.78173,0,0,1,3.56445-1.564c2.87353,0,4.41455,2.23047,4.41455,5.70312,0,3.79395-2.27637,6.02442-4.82861,6.02442a5.18234,5.18234,0,0,1-3.1045-1.2876l.0459,1.95459v3.771h-1.88525Zm7.81836,5.42724c0-2.46045-.82813-4.11621-2.94336-4.11621a4.70915,4.70915,0,0,0-2.98975,1.51758v5.86377a4.42643,4.42643,0,0,0,2.73682,1.17285C581.90771,263.25244,583.26465,261.57373,583.26465,258.81445Z" fill="#ffa55c"/><path d="M587.38281,258.99805c0-3.65625,2.46094-5.88672,5.01367-5.88672,2.85059,0,4.46094,2.04687,4.46094,5.24316a7.32012,7.32012,0,0,1-.06933,1.08057h-7.542c.13672,2.36865,1.58594,3.88623,3.72461,3.88623a5.045,5.045,0,0,0,2.78223-.874l.667,1.24169a6.65534,6.65534,0,0,1-3.67969,1.14991C589.752,264.83887,587.38281,262.6543,587.38281,258.99805Zm7.81836-.91944c0-2.2539-1.01172-3.47265-2.75976-3.47265-1.5625,0-2.98829,1.26513-3.21875,3.47265Z" fill="#ffa55c"/><path d="M599.61914,253.38721h1.5625l.16211,2.02392h.06836a3.82219,3.82219,0,0,1,3.17383-2.2998,2.78063,2.78063,0,0,1,1.19531.23l-.36816,1.65576a3.13147,3.13147,0,0,0-1.08106-.18408c-.94238,0-2.06933.68994-2.82812,2.57568V264.563h-1.88477Z" fill="#ffa55c"/><path d="M615.4873,249.478h2.16114l5.10547,15.085H620.707l-1.42578-4.59912h-5.49609l-1.44825,4.59912h-1.9541Zm-1.21875,8.94531h4.53028l-.71289-2.29932c-.55274-1.67871-1.03516-3.33447-1.51758-5.082h-.0918c-.46094,1.74756-.94336,3.40332-1.49511,5.082Z" fill="#ffa55c"/><path d="M786.05078,254.03809h7.18067v1.32959H787.627V259.585h4.75V260.915h-4.75V266.5h-1.57617Z" fill="#b3b3b3"/><path d="M795.43652,254.03809h3.7041c2.52735,0,4.27442.85449,4.27442,3.03906a2.726,2.726,0,0,1-1.82324,2.7168v.07617a2.86642,2.86642,0,0,1,2.54492,2.98242c0,2.45068-1.9375,3.64746-4.73047,3.64746h-3.96973Zm3.41895,5.2998c2.12793,0,3.002-.77881,3.002-2.05176,0-1.44336-.98828-1.99463-2.92578-1.99463h-1.918v4.04639Zm.32324,5.9082c2.14649,0,3.40039-.7788,3.40039-2.45068,0-1.53857-1.21582-2.2417-3.40039-2.2417h-2.165v4.69238Z" fill="#b3b3b3"/><path d="M810.4082,254.03809h1.89942l2.39355,6.64892c.30469.85449.58887,1.74756.89258,2.60254h.07617c.30469-.855.55078-1.74805.85547-2.60254l2.35547-6.64892h1.918V266.5h-1.48047v-6.85791c0-1.10205.13281-2.5835.209-3.68555h-.07617l-.98828,2.83057-2.35547,6.459H815.0625l-2.35547-6.459-.98828-2.83057h-.07617c.07617,1.102.19043,2.5835.19043,3.68555V266.5H810.4082Z" fill="#b3b3b3"/><path d="M823.78418,254.36084a1.08536,1.08536,0,0,1,2.165,0,1.08536,1.08536,0,0,1-2.165,0Zm.28418,2.90674H825.627V266.5h-1.55859Z" fill="#b3b3b3"/><path d="M830.47168,261.6748l-2.792-4.40722h1.68945l1.23535,2.03271c.28516.49366.58887,1.02539.91211,1.53858h.0752c.2666-.51319.55175-1.04492.83593-1.53858l1.1211-2.03271h1.63476l-2.793,4.57812,3.001,4.6543h-1.69043l-1.34863-2.14648c-.32324-.55127-.665-1.1211-1.00684-1.65284h-.07617c-.32324.53174-.627,1.08252-.93164,1.65284L829.085,266.5h-1.63379Z" fill="#b3b3b3"/><path d="M786.05078,434.03809h7.18067v1.3291H787.627V439.585h4.75V440.915h-4.75V446.5h-1.57617Z" fill="#b3b3b3"/><path d="M795.43652,434.03809h3.7041c2.52735,0,4.27442.85449,4.27442,3.03906a2.72641,2.72641,0,0,1-1.82324,2.7168v.07617a2.86609,2.86609,0,0,1,2.54492,2.98242c0,2.45019-1.9375,3.64746-4.73047,3.64746h-3.96973Zm3.41895,5.2998c2.12793,0,3.002-.7793,3.002-2.05176,0-1.44336-.98828-1.99511-2.92578-1.99511h-1.918v4.04687Zm.32324,5.9082c2.14649,0,3.40039-.77929,3.40039-2.45117,0-1.53808-1.21582-2.24121-3.40039-2.24121h-2.165v4.69238Z" fill="#b3b3b3"/><path d="M810.4082,434.03809h1.89942l2.39355,6.64843c.30469.8545.58887,1.74805.89258,2.60254h.07617c.30469-.85449.55078-1.748.85547-2.60254l2.35547-6.64843h1.918V446.5h-1.48047v-6.8584c0-1.10156.13281-2.583.209-3.68555h-.07617l-.98828,2.83106-2.35547,6.459H815.0625l-2.35547-6.459-.98828-2.83106h-.07617c.07617,1.10254.19043,2.584.19043,3.68555V446.5H810.4082Z" fill="#b3b3b3"/><path d="M823.78418,434.36035a1.08537,1.08537,0,0,1,2.165,0,1.08536,1.08536,0,0,1-2.165,0Zm.28418,2.90723H825.627V446.5h-1.55859Z" fill="#b3b3b3"/><path d="M830.47168,441.6748l-2.792-4.40722h1.68945l1.23535,2.03222c.28516.49415.58887,1.0254.91211,1.53907h.0752c.2666-.51367.55175-1.04492.83593-1.53907l1.1211-2.03222h1.63476l-2.793,4.57812,3.001,4.6543h-1.69043l-1.34863-2.14648c-.32324-.55176-.665-1.1211-1.00684-1.65332h-.07617c-.32324.53222-.627,1.083-.93164,1.65332L829.085,446.5h-1.63379Z" fill="#b3b3b3"/><path d="M1070.17578,336.02051c0-4.85156,2.85156-7.81836,6.69141-7.81836a5.50025,5.50025,0,0,1,4.13867,1.86328l-1.03418,1.24121a4.12387,4.12387,0,0,0-3.08106-1.42578c-2.85156,0-4.7373,2.3457-4.7373,6.09375,0,3.79492,1.81641,6.18555,4.668,6.18555a4.55189,4.55189,0,0,0,3.49512-1.70118l1.05859,1.19532a5.83834,5.83834,0,0,1-4.623,2.18457C1072.98047,343.83887,1070.17578,340.94141,1070.17578,336.02051Z" fill="#9dd98b"/><path d="M1083.16992,337.99805c0-3.748,2.4375-5.88672,5.17383-5.88672,2.7373,0,5.17383,2.13867,5.17383,5.88672,0,3.70215-2.43653,5.84082-5.17383,5.84082C1085.60742,343.83887,1083.16992,341.7002,1083.16992,337.99805Zm8.39453,0c0-2.5752-1.28906-4.32227-3.2207-4.32227-1.9082,0-3.21875,1.74707-3.21875,4.32227,0,2.55273,1.31055,4.27734,3.21875,4.27734C1090.27539,342.27539,1091.56445,340.55078,1091.56445,337.99805Z" fill="#9dd98b"/><path d="M1096.46484,332.3877h1.5625l.16211,1.60937h.06836a4.91212,4.91212,0,0,1,3.47266-1.88574,2.93352,2.93352,0,0,1,3.08105,2.13867c1.17286-1.26465,2.32227-2.13867,3.67871-2.13867,2.29981,0,3.4043,1.51855,3.4043,4.36914v7.083h-1.88672V336.7334c0-2.0918-.666-2.98926-2.06933-2.98926-.874,0-1.77051.5752-2.80567,1.72461v8.09473h-1.88476V336.7334c0-2.0918-.667-2.98926-2.09278-2.98926a4.19481,4.19481,0,0,0-2.80566,1.72461v8.09473h-1.88477Z" fill="#9dd98b"/><path d="M1117.2793,342.41309H1117.21l-.16113,1.15039h-1.51758V327.19043h1.88477v4.46094l-.04493,2.02441a5.51812,5.51812,0,0,1,3.49414-1.56445c2.89844,0,4.43946,2.23047,4.43946,5.67969,0,3.81738-2.27735,6.04785-4.83008,6.04785A5.00347,5.00347,0,0,1,1117.2793,342.41309Zm6.07031-4.59864c0-2.46-.82813-4.11621-2.94336-4.11621a4.61227,4.61227,0,0,0-2.99023,1.51758v5.86426a4.37972,4.37972,0,0,0,2.7373,1.17285C1121.99219,342.25293,1123.34961,340.57422,1123.34961,337.81445Z" fill="#9dd98b"/><path d="M1077.17969,355.47852h8.6914v1.60937h-6.7832v5.10547h5.749v1.60937h-5.749v6.76075h-1.9082Z" fill="#9dd98b"/><path d="M1088.01172,355.86914a1.31453,1.31453,0,0,1,2.62207,0,1.31453,1.31453,0,0,1-2.62207,0Zm.3457,3.51856h1.88477v11.17578h-1.88477Z" fill="#9dd98b"/><path d="M1094.01562,368.30957V354.19043h1.88477v14.25684c0,.59863.25293.82812.5293.82812a1.58742,1.58742,0,0,0,.41406-.0459l.252,1.42578a2.52875,2.52875,0,0,1-1.08008.1836C1094.58984,370.83887,1094.01562,369.94238,1094.01562,368.30957Z" fill="#9dd98b"/><path d="M1100.20117,367.11426v-6.18555h-1.65527v-1.42578l1.74707-.11523.23047-3.127h1.58691v3.127h3.0127v1.541h-3.0127v6.208c0,1.37988.43653,2.16211,1.72461,2.16211A4.07032,4.07032,0,0,0,1105.09961,369l.36719,1.4248a6.8869,6.8869,0,0,1-2.06836.41407C1101.00586,370.83887,1100.20117,369.32129,1100.20117,367.11426Z" fill="#9dd98b"/><path d="M1106.50391,364.99805c0-3.65625,2.46093-5.88672,5.01367-5.88672,2.85058,0,4.46094,2.04687,4.46094,5.24316a7.3304,7.3304,0,0,1-.06934,1.08106h-7.542c.13672,2.36816,1.58593,3.88574,3.72461,3.88574a5.045,5.045,0,0,0,2.78222-.874l.667,1.24218a6.65517,6.65517,0,0,1-3.67969,1.14942C1108.87305,370.83887,1106.50391,368.6543,1106.50391,364.99805Zm7.81836-.91895c0-2.2539-1.01172-3.47265-2.75977-3.47265-1.5625,0-2.98828,1.26464-3.21875,3.47265Z" fill="#9dd98b"/><path d="M1118.74023,359.3877h1.5625l.16211,2.02343h.06836a3.82314,3.82314,0,0,1,3.17383-2.2998,2.77333,2.77333,0,0,1,1.19531.23047l-.36816,1.65527a3.14331,3.14331,0,0,0-1.08106-.18359c-.94238,0-2.06933.68945-2.82812,2.57519v7.17481h-1.88477Z" fill="#9dd98b"/><path d="M78.37646,469.47852h8.69239v1.60937H80.28516v4.73731h5.72607V477.458H80.28516v5.47265h7.01367v1.63282H78.37646Z" fill="#f0d878"/><path d="M90.31348,473.3877h1.56347l.16114,1.60937h.06884a5.26821,5.26821,0,0,1,3.748-1.88574c2.3457,0,3.40332,1.51855,3.40332,4.36914v7.083H97.37256V477.7334c0-2.0918-.64356-2.98926-2.11524-2.98926-1.1499,0-1.93164.59766-3.05859,1.72461v8.09473H90.31348Z" fill="#f0d878"/><path d="M101.28467,473.3877h1.95459l2.11572,6.34668c.32178,1.10351.68994,2.23046,1.03467,3.28808h.0918c.32226-1.05762.68994-2.18457,1.01171-3.28808l2.11573-6.34668h1.86279l-3.95508,11.17578h-2.20752Z" fill="#f0d878"/><path d="M112.71533,478.99805c0-3.65625,2.46045-5.88672,5.01319-5.88672,2.85107,0,4.46093,2.04687,4.46093,5.24316a7.33837,7.33837,0,0,1-.06884,1.08106h-7.54249c.1377,2.36816,1.58643,3.88574,3.7251,3.88574a5.04629,5.04629,0,0,0,2.78223-.874l.667,1.24218a6.65348,6.65348,0,0,1-3.6792,1.14942C115.084,484.83887,112.71533,482.6543,112.71533,478.99805Zm7.81836-.91895c0-2.2539-1.01172-3.47265-2.75928-3.47265-1.56347,0-2.98925,1.26464-3.21923,3.47265Z" fill="#f0d878"/><path d="M124.95117,482.30957V468.19043h1.88526v14.25684c0,.59863.25293.82812.52929.82812a1.58609,1.58609,0,0,0,.41358-.0459l.25293,1.42578a2.53439,2.53439,0,0,1-1.08057.1836C125.52588,484.83887,124.95117,483.94238,124.95117,482.30957Z" fill="#f0d878"/><path d="M129.98779,478.99805c0-3.748,2.4375-5.88672,5.17383-5.88672,2.73682,0,5.17432,2.13867,5.17432,5.88672,0,3.70215-2.4375,5.84082-5.17432,5.84082C132.42529,484.83887,129.98779,482.7002,129.98779,478.99805Zm8.39356,0c0-2.5752-1.28809-4.32227-3.21973-4.32227-1.9082,0-3.21924,1.74707-3.21924,4.32227,0,2.55273,1.311,4.27734,3.21924,4.27734C137.09326,483.27539,138.38135,481.55078,138.38135,478.99805Z" fill="#f0d878"/><path d="M143.28174,473.3877h1.56347l.16114,1.28808h.06885a5.77962,5.77962,0,0,1,3.56445-1.56445c2.874,0,4.415,2.23047,4.415,5.70312,0,3.79395-2.27686,6.02442-4.8291,6.02442a5.18152,5.18152,0,0,1-3.1045-1.28711l.0459,1.9541v3.77148h-1.88525Zm7.81836,5.42675c0-2.46-.82813-4.11621-2.94336-4.11621a4.71159,4.71159,0,0,0-2.98975,1.51758v5.86426a4.42543,4.42543,0,0,0,2.73682,1.17285C149.74316,483.25293,151.1001,481.57422,151.1001,478.81445Z" fill="#f0d878"/><path d="M155.21875,478.99805c0-3.65625,2.46045-5.88672,5.01318-5.88672,2.85108,0,4.46094,2.04687,4.46094,5.24316a7.33687,7.33687,0,0,1-.06885,1.08106h-7.54248c.1377,2.36816,1.58643,3.88574,3.7251,3.88574a5.04629,5.04629,0,0,0,2.78223-.874l.667,1.24218a6.65348,6.65348,0,0,1-3.6792,1.14942C157.5874,484.83887,155.21875,482.6543,155.21875,478.99805Zm7.81836-.91895c0-2.2539-1.01172-3.47265-2.75928-3.47265-1.56347,0-2.98926,1.26464-3.21924,3.47265Z" fill="#f0d878"/><path d="M172.23779,469.47852h4.48438c3.0581,0,5.17383,1.03515,5.17383,3.67968a3.29994,3.29994,0,0,1-2.20752,3.28809v.0918a3.47024,3.47024,0,0,1,3.08105,3.61035c0,2.96582-2.34521,4.415-5.72558,4.415h-4.80616Zm4.13916,6.416c2.57569,0,3.6333-.94336,3.6333-2.4834,0-1.748-1.1958-2.415-3.541-2.415h-2.32276v4.89844Zm.39112,7.15137c2.59814,0,4.11621-.94336,4.11621-2.9668,0-1.8623-1.47168-2.71289-4.11621-2.71289h-2.62159v5.67969Z" fill="#f0d878"/><path d="M78.57227,339.47754h8.69238v1.60986H80.481v4.73682H86.207V347.457H80.481v5.47266h7.01367v1.63281H78.57227Z" fill="#b8bcc2"/><path d="M90.50928,343.38672h1.56347l.16114,1.60986h.06884a5.26821,5.26821,0,0,1,3.74805-1.88574c2.3457,0,3.40332,1.51807,3.40332,4.36914v7.08252H97.56836v-6.82959c0-2.09229-.64356-2.98926-2.11524-2.98926-1.1499,0-1.93164.59766-3.05859,1.72461v8.09424H90.50928Z" fill="#b8bcc2"/><path d="M101.48047,343.38672h1.95459l2.11572,6.34668c.32178,1.104.68994,2.23047,1.03467,3.28857h.0918c.32226-1.0581.68994-2.18457,1.01171-3.28857l2.11573-6.34668h1.86279L107.7124,354.5625h-2.20752Z" fill="#b8bcc2"/><path d="M112.91113,348.99756c0-3.65625,2.46045-5.88672,5.01319-5.88672,2.85107,0,4.46093,2.04687,4.46093,5.24316a7.32661,7.32661,0,0,1-.06884,1.08057h-7.54248c.13769,2.36865,1.58642,3.88623,3.72509,3.88623a5.04629,5.04629,0,0,0,2.78223-.874l.667,1.2417a6.65372,6.65372,0,0,1-3.6792,1.1499C115.27979,354.83838,112.91113,352.65381,112.91113,348.99756Zm7.81836-.91944c0-2.2539-1.01172-3.47265-2.75928-3.47265-1.56347,0-2.98925,1.26514-3.21923,3.47265Z" fill="#b8bcc2"/><path d="M125.147,352.30908V338.18994h1.88526v14.25684c0,.59814.25293.82812.52929.82812a1.58609,1.58609,0,0,0,.41358-.0459l.25293,1.4253a2.53339,2.53339,0,0,1-1.08057.18408C125.72168,354.83838,125.147,353.94141,125.147,352.30908Z" fill="#b8bcc2"/><path d="M130.18359,348.99756c0-3.74805,2.4375-5.88672,5.17383-5.88672,2.73682,0,5.17383,2.13867,5.17383,5.88672,0,3.70215-2.437,5.84082-5.17383,5.84082C132.62109,354.83838,130.18359,352.69971,130.18359,348.99756Zm8.39356,0c0-2.5752-1.28809-4.32276-3.21973-4.32276-1.9082,0-3.21924,1.74756-3.21924,4.32276,0,2.55273,1.311,4.27734,3.21924,4.27734C137.28906,353.2749,138.57715,351.55029,138.57715,348.99756Z" fill="#b8bcc2"/><path d="M143.47754,343.38672H145.041l.16113,1.28808h.06885a5.78173,5.78173,0,0,1,3.56445-1.564c2.874,0,4.415,2.23047,4.415,5.70312,0,3.79395-2.27686,6.02442-4.8291,6.02442a5.18234,5.18234,0,0,1-3.1045-1.2876l.0459,1.95459v3.771h-1.88525Zm7.81836,5.42724c0-2.46044-.82813-4.11621-2.94336-4.11621a4.70915,4.70915,0,0,0-2.98975,1.51758v5.86377a4.42643,4.42643,0,0,0,2.73682,1.17285C149.939,353.252,151.2959,351.57324,151.2959,348.814Z" fill="#b8bcc2"/><path d="M155.41455,348.99756c0-3.65625,2.46045-5.88672,5.01318-5.88672,2.85108,0,4.46094,2.04687,4.46094,5.24316a7.3251,7.3251,0,0,1-.06885,1.08057h-7.54248c.1377,2.36865,1.58643,3.88623,3.7251,3.88623a5.04629,5.04629,0,0,0,2.78223-.874l.667,1.2417a6.65372,6.65372,0,0,1-3.6792,1.1499C157.7832,354.83838,155.41455,352.65381,155.41455,348.99756Zm7.81836-.91944c0-2.2539-1.01172-3.47265-2.75928-3.47265-1.56347,0-2.98925,1.26514-3.21924,3.47265Z" fill="#b8bcc2"/><path d="M171.56006,347.02c0-4.852,2.85107-7.81836,6.6914-7.81836a5.50439,5.50439,0,0,1,4.13916,1.86279l-1.03466,1.2417a4.12334,4.12334,0,0,0-3.08155-1.42578c-2.85107,0-4.73681,2.3457-4.73681,6.09375,0,3.79443,1.8164,6.18555,4.668,6.18555a4.55007,4.55007,0,0,0,3.49511-1.70166l1.05811,1.1958a5.83639,5.83639,0,0,1-4.62207,2.18457C174.36523,354.83838,171.56006,351.94092,171.56006,347.02Z" fill="#b8bcc2"/><path d="M1067.249,536.95117c0-4.8291,2.64453-7.749,6.43848-7.749,3.79492,0,6.46094,2.94336,6.46094,7.749,0,4.85254-2.666,7.8877-6.46094,7.8877C1069.89355,544.83887,1067.249,541.80371,1067.249,536.95117Zm10.89942,0c0-3.74805-1.77051-6.07031-4.46094-6.07031s-4.46094,2.32226-4.46094,6.07031c0,3.77149,1.77051,6.209,4.46094,6.209S1078.14844,540.72266,1078.14844,536.95117Z" fill="#b8bcc2"/><path d="M1083.04883,540.46973v-7.083h1.90918v6.83008c0,2.09277.62011,2.98925,2.09277,2.98925,1.14942,0,1.9541-.57519,3.01172-1.88574v-7.93359h1.88574V544.5625h-1.56347l-.16114-1.74707h-.06933a4.72289,4.72289,0,0,1-3.67871,2.02344C1084.10742,544.83887,1083.04883,543.32129,1083.04883,540.46973Z" fill="#b8bcc2"/><path d="M1096.04492,541.11328v-6.18555h-1.65625V533.502l1.748-.11523.22949-3.12695h1.58691v3.12695h3.01172v1.541h-3.01172v6.209c0,1.37988.4375,2.16113,1.72461,2.16113a4.07032,4.07032,0,0,0,1.26465-.29883l.36817,1.42578a6.89954,6.89954,0,0,1-2.07032.41407C1096.84961,544.83887,1096.04492,543.32129,1096.04492,541.11328Z" fill="#b8bcc2"/><path d="M1103.49609,533.38672h1.56446l.16015,1.28808h.06934a5.78271,5.78271,0,0,1,3.56445-1.56347c2.874,0,4.415,2.23047,4.415,5.70312,0,3.79395-2.27734,6.02442-4.8291,6.02442a5.18546,5.18546,0,0,1-3.10449-1.28809l.0459,1.95508v3.77051h-1.88575Zm7.81836,5.42773c0-2.46093-.82812-4.11621-2.94336-4.11621a4.70786,4.70786,0,0,0-2.98925,1.51758v5.86328a4.42538,4.42538,0,0,0,2.7373,1.17285C1109.958,543.252,1111.31445,541.57324,1111.31445,538.81445Z" fill="#b8bcc2"/><path d="M1116.09961,540.46973v-7.083h1.90918v6.83008c0,2.09277.62012,2.98925,2.09277,2.98925,1.14942,0,1.9541-.57519,3.01172-1.88574v-7.93359h1.88574V544.5625h-1.56347l-.16114-1.74707h-.06933a4.72287,4.72287,0,0,1-3.67871,2.02344C1117.1582,544.83887,1116.09961,543.32129,1116.09961,540.46973Z" fill="#b8bcc2"/><path d="M1129.09473,541.11328v-6.18555h-1.65528V533.502l1.74707-.11523.2295-3.12695h1.58789v3.12695h3.01171v1.541h-3.01171v6.209c0,1.37988.43652,2.16113,1.72461,2.16113a4.0581,4.0581,0,0,0,1.26367-.29883l.36816,1.42578a6.89315,6.89315,0,0,1-2.06933.41407C1129.89941,544.83887,1129.09473,543.32129,1129.09473,541.11328Z" fill="#b8bcc2"/><path d="M1141.33008,529.47754h2.30078l2.89648,8.04883c.36817,1.03515.71289,2.11523,1.08106,3.15039h.0918c.36816-1.03516.667-2.11524,1.03515-3.15039l2.85059-8.04883h2.32324v15.085h-1.79395v-8.30078c0-1.334.16114-3.12793.25293-4.46094h-.09179l-1.19629,3.42578-2.85059,7.81836h-1.26465l-2.85156-7.81836-1.19531-3.42578h-.0918c.0918,1.333.22852,3.12695.22852,4.46094v8.30078h-1.72461Z" fill="#b8bcc2"/><path d="M1157.52246,529.86914a1.31453,1.31453,0,0,1,2.62207,0,1.31453,1.31453,0,0,1-2.62207,0Zm.34473,3.51758h1.88574V544.5625h-1.88574Z" fill="#b8bcc2"/><path d="M1165.61719,538.72168l-3.37989-5.335h2.04688l1.49512,2.46094c.34375.59765.71289,1.24218,1.10351,1.8623h.0918c.32227-.62012.666-1.26465,1.01172-1.8623l1.35644-2.46094h1.97754l-3.37988,5.542,3.63281,5.63379h-2.0459l-1.63281-2.59863c-.39062-.666-.80469-1.35645-1.21875-2h-.0918c-.39062.64355-.75976,1.31054-1.127,2l-1.51758,2.59863h-1.97851Z" fill="#b8bcc2"/><path d="M1172.56445,538.99805c0-3.65625,2.46094-5.88672,5.01367-5.88672,2.85059,0,4.46094,2.04687,4.46094,5.24316a7.30835,7.30835,0,0,1-.06933,1.08008h-7.542c.13672,2.36914,1.58594,3.88672,3.72461,3.88672a5.045,5.045,0,0,0,2.78223-.874l.667,1.24121a6.65557,6.65557,0,0,1-3.67968,1.15039C1174.93359,544.83887,1172.56445,542.6543,1172.56445,538.99805Zm7.81836-.91993c0-2.2539-1.01172-3.47265-2.75976-3.47265-1.5625,0-2.98828,1.26562-3.21875,3.47265Z" fill="#b8bcc2"/><path d="M1184.80078,533.38672h1.5625l.16211,2.02441h.06836a3.82126,3.82126,0,0,1,3.17383-2.2998,2.788,2.788,0,0,1,1.19531.22949l-.36816,1.65625a3.11991,3.11991,0,0,0-1.08106-.18457c-.94238,0-2.06933.69043-2.82812,2.57617v7.17383h-1.88477Z" fill="#b8bcc2"/><path d="M1197.38086,538.16992a19.12418,19.12418,0,0,1,3.03516-10.43945l1.17285.55176a19.80693,19.80693,0,0,0,0,19.77539l-1.17285.55176A19.12421,19.12421,0,0,1,1197.38086,538.16992Z" fill="#b8bcc2"/><path d="M1204.58008,542.6084l1.14941-1.334a5.90832,5.90832,0,0,0,4.16211,1.88575c1.97754,0,3.14942-.98926,3.14942-2.46094,0-1.54-1.08008-2.02344-2.50586-2.667l-2.16211-.94239c-1.42481-.59863-3.05762-1.67871-3.05762-3.88672,0-2.2998,2.001-4.001,4.7373-4.001a6.26131,6.26131,0,0,1,4.46094,1.8623l-1.03515,1.24219a4.80925,4.80925,0,0,0-3.42579-1.42578c-1.67968,0-2.80566.85059-2.80566,2.207,0,1.44922,1.31055,2.001,2.50684,2.50684l2.13867.91992c1.74707.75879,3.10351,1.793,3.10351,4.02441,0,2.39063-1.95507,4.29981-5.12793,4.29981A7.31465,7.31465,0,0,1,1204.58008,542.6084Z" fill="#b8bcc2"/><path d="M1217.55078,541.11328v-6.18555h-1.65527V533.502l1.74707-.11523.23047-3.12695H1219.46v3.12695h3.0127v1.541H1219.46v6.209c0,1.37988.43652,2.16113,1.72461,2.16113a4.07038,4.07038,0,0,0,1.26465-.29883l.36719,1.42578a6.8869,6.8869,0,0,1-2.06836.41407C1218.35547,544.83887,1217.55078,543.32129,1217.55078,541.11328Z" fill="#b8bcc2"/><path d="M1223.85352,538.99805c0-3.65625,2.46093-5.88672,5.01367-5.88672,2.85058,0,4.46093,2.04687,4.46093,5.24316a7.307,7.307,0,0,1-.06933,1.08008h-7.542c.13672,2.36914,1.58593,3.88672,3.72461,3.88672a5.045,5.045,0,0,0,2.78222-.874l.667,1.24121a6.65554,6.65554,0,0,1-3.67968,1.15039C1226.22266,544.83887,1223.85352,542.6543,1223.85352,538.99805Zm7.81836-.91993c0-2.2539-1.01172-3.47265-2.75977-3.47265-1.5625,0-2.98828,1.26562-3.21875,3.47265Z" fill="#b8bcc2"/><path d="M1236.08984,533.38672h1.5625l.16211,2.02441h.06836a3.82127,3.82127,0,0,1,3.17383-2.2998,2.788,2.788,0,0,1,1.19531.22949l-.36816,1.65625a3.11991,3.11991,0,0,0-1.08106-.18457c-.94238,0-2.06933.69043-2.82812,2.57617v7.17383h-1.88477Z" fill="#b8bcc2"/><path d="M1243.01172,538.99805c0-3.65625,2.46094-5.88672,5.01367-5.88672,2.85156,0,4.46094,2.04687,4.46094,5.24316a7.45683,7.45683,0,0,1-.06836,1.08008h-7.543c.1377,2.36914,1.58594,3.88672,3.72461,3.88672a5.04822,5.04822,0,0,0,2.7832-.874l.666,1.24121a6.64961,6.64961,0,0,1-3.67871,1.15039C1245.38086,544.83887,1243.01172,542.6543,1243.01172,538.99805Zm7.81836-.91993c0-2.2539-1.01172-3.47265-2.75879-3.47265-1.56348,0-2.98926,1.26562-3.21973,3.47265Z" fill="#b8bcc2"/><path d="M1254.41992,538.99805c0-3.74805,2.4375-5.88672,5.17383-5.88672s5.17383,2.13867,5.17383,5.88672c0,3.70215-2.4375,5.84082-5.17383,5.84082S1254.41992,542.7002,1254.41992,538.99805Zm8.39356,0c0-2.5752-1.28809-4.32325-3.21973-4.32325-1.9082,0-3.21875,1.74805-3.21875,4.32325,0,2.55273,1.31055,4.27734,3.21875,4.27734C1261.52539,543.27539,1262.81348,541.55078,1262.81348,538.99805Z" fill="#b8bcc2"/><path d="M1267.85156,548.05762a19.80693,19.80693,0,0,0,0-19.77539l1.17285-.55176a19.46557,19.46557,0,0,1,0,20.87891Z" fill="#b8bcc2"/><path d="M1192.68457,139.47852h8.69238v1.60937h-6.7832v5.10547h5.748v1.60937h-5.748v6.76075h-1.90918Z" fill="#b8bcc2"/><path d="M1202.71289,148.99805c0-3.65625,2.46094-5.88672,5.01367-5.88672,2.85059,0,4.46094,2.04687,4.46094,5.24316a7.3304,7.3304,0,0,1-.06934,1.08106h-7.542c.13672,2.36816,1.58594,3.88574,3.72461,3.88574a5.045,5.045,0,0,0,2.78223-.874l.667,1.24218a6.65517,6.65517,0,0,1-3.67969,1.14942C1205.082,154.83887,1202.71289,152.6543,1202.71289,148.99805Zm7.81836-.91895c0-2.2539-1.01172-3.47265-2.75977-3.47265-1.5625,0-2.98828,1.26464-3.21875,3.47265Z" fill="#b8bcc2"/><path d="M1214.12109,148.99805c0-3.65625,2.46-5.88672,5.0127-5.88672,2.85059,0,4.46094,2.04687,4.46094,5.24316a7.1983,7.1983,0,0,1-.06934,1.08106h-7.542c.13769,2.36816,1.58691,3.88574,3.72558,3.88574a5.0443,5.0443,0,0,0,2.78125-.874l.668,1.24218a6.65775,6.65775,0,0,1-3.67968,1.14942C1216.48926,154.83887,1214.12109,152.6543,1214.12109,148.99805Zm7.81836-.91895c0-2.2539-1.01172-3.47265-2.75976-3.47265-1.56348,0-2.98926,1.26464-3.21875,3.47265Z" fill="#b8bcc2"/><path d="M1225.55078,148.99805c0-3.63282,2.30078-5.88672,4.85254-5.88672a4.60709,4.60709,0,0,1,3.12793,1.28808l-.0918-1.9082v-4.30078h1.90821v16.37305h-1.56446l-.16015-1.31055h-.06934a5.04177,5.04177,0,0,1-3.37988,1.58594C1227.36816,154.83887,1225.55078,152.72363,1225.55078,148.99805Zm7.88867,2.71386v-5.84082a3.89429,3.89429,0,0,0-2.71484-1.17285c-1.793,0-3.21875,1.72461-3.21875,4.27735,0,2.667,1.127,4.27734,3.082,4.27734A3.783,3.783,0,0,0,1233.43945,151.71191Z" fill="#b8bcc2"/><path d="M1240.86914,153.41309h-.06934l-.16113,1.15039h-1.51758V138.19043h1.88477v4.46094l-.04492,2.02441a5.51812,5.51812,0,0,1,3.49414-1.56445c2.89844,0,4.43945,2.23047,4.43945,5.67969,0,3.81738-2.27734,6.04785-4.83008,6.04785A5.00347,5.00347,0,0,1,1240.86914,153.41309Zm6.07031-4.59864c0-2.46-.82812-4.11621-2.94336-4.11621a4.61227,4.61227,0,0,0-2.99023,1.51758v5.86426a4.37974,4.37974,0,0,0,2.7373,1.17285C1245.582,153.25293,1246.93945,151.57422,1246.93945,148.81445Z" fill="#b8bcc2"/><path d="M1250.82812,151.666c0-2.4375,2.0918-3.65625,6.85254-4.18555,0-1.42578-.46-2.80469-2.2998-2.80469a6.07626,6.07626,0,0,0-3.334,1.19531l-.73633-1.31054a8.29564,8.29564,0,0,1,4.39257-1.44922c2.73633,0,3.88672,1.81738,3.88672,4.59961v6.85254h-1.56445l-.16016-1.334h-.07031a5.95589,5.95589,0,0,1-3.70117,1.60938A3.04091,3.04091,0,0,1,1250.82812,151.666Zm6.85254.16113v-3.10449c-3.72558.46-5.01269,1.37988-5.01269,2.80566,0,1.26465.873,1.793,1.97656,1.793A4.52855,4.52855,0,0,0,1257.68066,151.82715Z" fill="#b8bcc2"/><path d="M1262.28125,148.99805c0-3.74805,2.50781-5.88672,5.38086-5.88672a4.63662,4.63662,0,0,1,3.26562,1.31152l-.96484,1.24121a3.27707,3.27707,0,0,0-2.23047-.98828c-2.02441,0-3.49609,1.74707-3.49609,4.32227,0,2.55273,1.40234,4.27734,3.44922,4.27734a3.96844,3.96844,0,0,0,2.62109-1.12695l.82813,1.26465a5.44766,5.44766,0,0,1-3.60938,1.42578C1264.55859,154.83887,1262.28125,152.7002,1262.28125,148.99805Z" fill="#b8bcc2"/><path d="M1273.59766,138.19043h1.86328v11.084h.06836l4.75976-5.88671h2.09375l-3.749,4.48437,4.25488,6.69141h-2.07031l-3.26563-5.38086-2.09179,2.4375v2.94336h-1.86328Z" fill="#b8bcc2"/><path d="M1289.76562,139.47852h2.30079l2.89648,8.04785c.36816,1.03515.71289,2.11621,1.08106,3.15039h.09179c.36817-1.03418.667-2.11524,1.03516-3.15039l2.85058-8.04785h2.32325v15.085h-1.79395v-8.30176c0-1.333.16113-3.12695.25293-4.46094h-.0918l-1.19629,3.42676-2.85058,7.81836h-1.26465l-2.85156-7.81836-1.19531-3.42676h-.0918c.0918,1.334.22851,3.12793.22851,4.46094v8.30176h-1.72461Z" fill="#b8bcc2"/><path d="M1305.959,139.86914a1.314,1.314,0,0,1,2.6211,0,1.314,1.314,0,0,1-2.6211,0Zm.34473,3.51856h1.88574v11.17578h-1.88574Z" fill="#b8bcc2"/><path d="M1314.05371,148.72266l-3.37988-5.335h2.04687l1.49414,2.46c.34473.59863.71289,1.24218,1.10352,1.86328h.0918c.32226-.6211.667-1.26465,1.01172-1.86328l1.35742-2.46h1.97656l-3.37891,5.542,3.63282,5.63379h-2.04688l-1.63281-2.59864c-.39063-.667-.80469-1.35644-1.21875-2.001h-.0918c-.39062.64453-.75879,1.31152-1.127,2.001l-1.51758,2.59864h-1.97754Z" fill="#b8bcc2"/><path d="M1321,148.99805c0-3.65625,2.46094-5.88672,5.01367-5.88672,2.85059,0,4.46094,2.04687,4.46094,5.24316a7.3304,7.3304,0,0,1-.06934,1.08106h-7.542c.13672,2.36816,1.58594,3.88574,3.72461,3.88574a5.045,5.045,0,0,0,2.78223-.874l.667,1.24218a6.65517,6.65517,0,0,1-3.67969,1.14942C1323.36914,154.83887,1321,152.6543,1321,148.99805Zm7.81836-.91895c0-2.2539-1.01172-3.47265-2.75977-3.47265-1.5625,0-2.98828,1.26464-3.21875,3.47265Z" fill="#b8bcc2"/><path d="M1333.23633,143.3877h1.5625l.16211,2.02343h.06836a3.82312,3.82312,0,0,1,3.17382-2.2998,2.77338,2.77338,0,0,1,1.19532.23047l-.36817,1.65527a3.14325,3.14325,0,0,0-1.08105-.18359c-.94238,0-2.06934.68945-2.82813,2.57519v7.17481h-1.88476Z" fill="#b8bcc2"/><path d="M1401.66211,152.6084l1.14941-1.333a5.91129,5.91129,0,0,0,4.16211,1.88477c1.97754,0,3.14942-.98828,3.14942-2.46,0-1.541-1.08008-2.02344-2.50586-2.668l-2.16211-.94239c-1.42481-.59765-3.05762-1.67871-3.05762-3.88574,0-2.2998,2.001-4.002,4.73731-4.002a6.25805,6.25805,0,0,1,4.46093,1.86328l-1.03515,1.24121a4.80925,4.80925,0,0,0-3.42578-1.42578c-1.67969,0-2.80567.85156-2.80567,2.208,0,1.44824,1.31055,2,2.50684,2.50586l2.13867.91992c1.74707.75879,3.10351,1.79394,3.10351,4.02441,0,2.3916-1.95507,4.29981-5.12695,4.29981A7.31139,7.31139,0,0,1,1401.66211,152.6084Z" fill="#b8bcc2"/><path d="M1414.86328,138.19043h1.88477v4.46094l-.06836,2.2998a5.34291,5.34291,0,0,1,3.72461-1.83984c2.3457,0,3.40429,1.51855,3.40429,4.36914v7.083h-1.88671V147.7334c0-2.0918-.64258-2.98926-2.11524-2.98926-1.14941,0-1.93164.59766-3.05859,1.72461v8.09473h-1.88477Z" fill="#b8bcc2"/><path d="M1426.68555,151.666c0-2.4375,2.09179-3.65625,6.85254-4.18555,0-1.42578-.46-2.80469-2.29981-2.80469a6.07626,6.07626,0,0,0-3.334,1.19531l-.73633-1.31054a8.29564,8.29564,0,0,1,4.39258-1.44922c2.73633,0,3.88672,1.81738,3.88672,4.59961v6.85254h-1.56446l-.16015-1.334h-.07032a5.95586,5.95586,0,0,1-3.70117,1.60938A3.0409,3.0409,0,0,1,1426.68555,151.666Zm6.85254.16113v-3.10449c-3.72559.46-5.0127,1.37988-5.0127,2.80566,0,1.26465.873,1.793,1.97656,1.793A4.5286,4.5286,0,0,0,1433.53809,151.82715Z" fill="#b8bcc2"/><path d="M1438.9668,143.3877h1.56445l.16016,1.28808h.06933a5.7785,5.7785,0,0,1,3.56446-1.56445c2.874,0,4.415,2.23047,4.415,5.70312,0,3.79395-2.27734,6.02442-4.8291,6.02442a5.18383,5.18383,0,0,1-3.10449-1.28711l.0459,1.9541v3.77148h-1.88574Zm7.81836,5.42675c0-2.46-.82813-4.11621-2.94336-4.11621a4.71273,4.71273,0,0,0-2.98926,1.51758v5.86426a4.42757,4.42757,0,0,0,2.7373,1.17285C1445.42871,153.25293,1446.78516,151.57422,1446.78516,148.81445Z" fill="#b8bcc2"/><path d="M1450.9043,148.99805c0-3.65625,2.46-5.88672,5.01269-5.88672,2.85059,0,4.46094,2.04687,4.46094,5.24316a7.1983,7.1983,0,0,1-.06934,1.08106h-7.542c.1377,2.36816,1.58692,3.88574,3.72559,3.88574a5.04433,5.04433,0,0,0,2.78125-.874l.668,1.24218a6.65778,6.65778,0,0,1-3.67969,1.14942C1453.27246,154.83887,1450.9043,152.6543,1450.9043,148.99805Zm7.81836-.91895c0-2.2539-1.01172-3.47265-2.75977-3.47265-1.56348,0-2.98926,1.26464-3.21875,3.47265Z" fill="#b8bcc2"/><path d="M1463.13965,143.3877h1.56347l.16114,2.02343h.06933a3.82182,3.82182,0,0,1,3.17286-2.2998,2.77784,2.77784,0,0,1,1.19628.23047l-.36914,1.65527a3.13749,3.13749,0,0,0-1.08007-.18359c-.94336,0-2.07032.68945-2.82813,2.57519v7.17481h-1.88574Z" fill="#b8bcc2"/><path d="M1341.66211,542.6084l1.14941-1.333a5.91129,5.91129,0,0,0,4.16211,1.88477c1.97754,0,3.14942-.98828,3.14942-2.46,0-1.541-1.08008-2.02344-2.50586-2.668l-2.16211-.94239c-1.42481-.59765-3.05762-1.67871-3.05762-3.88574,0-2.2998,2.001-4.002,4.73731-4.002a6.25805,6.25805,0,0,1,4.46093,1.86328l-1.03515,1.24121a4.80925,4.80925,0,0,0-3.42578-1.42578c-1.67969,0-2.80567.85156-2.80567,2.208,0,1.44824,1.31055,2,2.50684,2.50586l2.13867.91992c1.74707.75879,3.10351,1.79394,3.10351,4.02441,0,2.3916-1.95507,4.29981-5.12695,4.29981A7.31139,7.31139,0,0,1,1341.66211,542.6084Z" fill="#b8bcc2"/><path d="M1354.86328,528.19043h1.88477v4.46094l-.06836,2.2998a5.34291,5.34291,0,0,1,3.72461-1.83984c2.3457,0,3.40429,1.51855,3.40429,4.36914v7.083h-1.88671V537.7334c0-2.0918-.64258-2.98926-2.11524-2.98926-1.14941,0-1.93164.59766-3.05859,1.72461v8.09473h-1.88477Z" fill="#b8bcc2"/><path d="M1366.68555,541.666c0-2.4375,2.09179-3.65625,6.85254-4.18555,0-1.42578-.46-2.80469-2.29981-2.80469a6.07626,6.07626,0,0,0-3.334,1.19531l-.73633-1.31054a8.29564,8.29564,0,0,1,4.39258-1.44922c2.73633,0,3.88672,1.81738,3.88672,4.59961v6.85254h-1.56446l-.16015-1.334h-.07032a5.95586,5.95586,0,0,1-3.70117,1.60938A3.0409,3.0409,0,0,1,1366.68555,541.666Zm6.85254.16113v-3.10449c-3.72559.46-5.0127,1.37988-5.0127,2.80566,0,1.26465.873,1.793,1.97656,1.793A4.5286,4.5286,0,0,0,1373.53809,541.82715Z" fill="#b8bcc2"/><path d="M1378.9668,533.3877h1.56445l.16016,1.28808h.06933a5.7785,5.7785,0,0,1,3.56446-1.56445c2.874,0,4.415,2.23047,4.415,5.70312,0,3.79395-2.27734,6.02442-4.8291,6.02442a5.18383,5.18383,0,0,1-3.10449-1.28711l.0459,1.9541v3.77148h-1.88574Zm7.81836,5.42675c0-2.46-.82813-4.11621-2.94336-4.11621a4.71273,4.71273,0,0,0-2.98926,1.51758v5.86426a4.42757,4.42757,0,0,0,2.7373,1.17285C1385.42871,543.25293,1386.78516,541.57422,1386.78516,538.81445Z" fill="#b8bcc2"/><path d="M1390.9043,538.99805c0-3.65625,2.46-5.88672,5.01269-5.88672,2.85059,0,4.46094,2.04687,4.46094,5.24316a7.1983,7.1983,0,0,1-.06934,1.08106h-7.542c.1377,2.36816,1.58692,3.88574,3.72559,3.88574a5.04433,5.04433,0,0,0,2.78125-.874l.668,1.24218a6.65778,6.65778,0,0,1-3.67969,1.14942C1393.27246,544.83887,1390.9043,542.6543,1390.9043,538.99805Zm7.81836-.91895c0-2.2539-1.01172-3.47265-2.75977-3.47265-1.56348,0-2.98926,1.26464-3.21875,3.47265Z" fill="#b8bcc2"/><path d="M1403.13965,533.3877h1.56347l.16114,2.02343h.06933a3.82182,3.82182,0,0,1,3.17286-2.2998,2.77784,2.77784,0,0,1,1.19628.23047l-.36914,1.65527a3.13749,3.13749,0,0,0-1.08007-.18359c-.94336,0-2.07032.68945-2.82813,2.57519v7.17481h-1.88574Z" fill="#b8bcc2"/><path d="M1304.08984,328.04541l1.15039-1.3335a5.90623,5.90623,0,0,0,4.16211,1.88526c1.97754,0,3.15039-.98877,3.15039-2.46045,0-1.54053-1.08105-2.02344-2.50683-2.66748l-2.16113-.94238c-1.42579-.59815-3.0586-1.67872-3.0586-3.88624,0-2.2998,2-4.00146,4.73633-4.00146a6.2545,6.2545,0,0,1,4.46094,1.86279l-1.03418,1.2417a4.80981,4.80981,0,0,0-3.42676-1.42578c-1.67773,0-2.80469.85108-2.80469,2.20752,0,1.44873,1.31055,2.00049,2.50586,2.50635l2.13867.91992c1.748.75879,3.1045,1.79346,3.1045,4.02441,0,2.39112-1.95411,4.29981-5.12793,4.29981A7.315,7.315,0,0,1,1304.08984,328.04541Z" fill="#74d4cf"/><path d="M1317.0625,326.55078v-6.18555h-1.65625v-1.42578l1.748-.11523.22949-3.127h1.58691v3.127h3.01172v1.541h-3.01172v6.2085c0,1.37988.4375,2.16162,1.72461,2.16162a4.07032,4.07032,0,0,0,1.26465-.29883l.36816,1.4253a6.89971,6.89971,0,0,1-2.07031.41406C1317.86719,330.27588,1317.0625,328.7583,1317.0625,326.55078Z" fill="#74d4cf"/><path d="M1323.3418,327.10254c0-2.4375,2.09179-3.65625,6.85254-4.18506,0-1.42578-.46-2.80518-2.29981-2.80518a6.07276,6.07276,0,0,0-3.334,1.19581l-.73633-1.311a8.29567,8.29567,0,0,1,4.39258-1.44873c2.73632,0,3.88672,1.81689,3.88672,4.59912V330h-1.56446l-.16015-1.3335h-.07032a5.95855,5.95855,0,0,1-3.70117,1.60938A3.041,3.041,0,0,1,1323.3418,327.10254Zm6.85254.16113v-3.10449c-3.72559.46-5.0127,1.37988-5.0127,2.80566,0,1.26465.873,1.79346,1.97656,1.79346A4.52941,4.52941,0,0,0,1330.19434,327.26367Z" fill="#74d4cf"/><path d="M1335.62305,326.55078v-6.18555h-1.65528v-1.42578l1.74707-.11523.23047-3.127h1.58692v3.127h3.01269v1.541h-3.01269v6.2085c0,1.37988.43652,2.16162,1.72461,2.16162a4.07032,4.07032,0,0,0,1.26464-.29883l.36719,1.4253a6.88714,6.88714,0,0,1-2.06836.41406C1336.42773,330.27588,1335.62305,328.7583,1335.62305,326.55078Z" fill="#74d4cf"/><path d="M1341.92578,324.43506c0-3.65625,2.46094-5.88672,5.01367-5.88672,2.85059,0,4.46094,2.04687,4.46094,5.24316a7.31862,7.31862,0,0,1-.06934,1.08057h-7.542c.13672,2.36865,1.58594,3.88623,3.72461,3.88623a5.045,5.045,0,0,0,2.78223-.874l.667,1.2417a6.65541,6.65541,0,0,1-3.67969,1.1499C1344.29492,330.27588,1341.92578,328.09131,1341.92578,324.43506Zm7.81836-.91944c0-2.2539-1.01172-3.47265-2.75976-3.47265-1.5625,0-2.98829,1.26514-3.21876,3.47265Z" fill="#74d4cf"/><path d="M1290.92383,341.915h2.04687l2.41407,8.14062c.55175,1.79346.89648,3.21924,1.47168,4.98975h.09277c.55078-1.77051.91894-3.19629,1.44726-4.98975l2.415-8.14062h1.9541L1297.9834,357h-2.23047Z" fill="#74d4cf"/><path d="M1303.459,354.10254c0-2.4375,2.0918-3.65625,6.85254-4.18506,0-1.42578-.46-2.80518-2.2998-2.80518a6.07282,6.07282,0,0,0-3.334,1.19581l-.73632-1.311a8.29563,8.29563,0,0,1,4.39257-1.44873c2.73633,0,3.88672,1.81689,3.88672,4.59912V357h-1.56445l-.16016-1.3335h-.07031a5.95857,5.95857,0,0,1-3.70117,1.60938A3.041,3.041,0,0,1,1303.459,354.10254Zm6.85254.16113v-3.10449c-3.72558.46-5.01269,1.37988-5.01269,2.80566,0,1.26465.87305,1.79346,1.97656,1.79346A4.52937,4.52937,0,0,0,1310.31152,354.26367Z" fill="#74d4cf"/><path d="M1315.74023,345.82422h1.56446l.16015,2.02392h.06934a3.82335,3.82335,0,0,1,3.17285-2.2998,2.78236,2.78236,0,0,1,1.19629.23l-.36816,1.65576a3.1301,3.1301,0,0,0-1.08008-.18408c-.94336,0-2.07031.68994-2.8291,2.57568V357h-1.88575Z" fill="#74d4cf"/><path d="M1323.377,342.30615a1.314,1.314,0,0,1,2.6211,0,1.314,1.314,0,0,1-2.6211,0Zm.34473,3.51807h1.88574V357h-1.88574Z" fill="#74d4cf"/><path d="M1328.68945,354.10254c0-2.4375,2.0918-3.65625,6.85157-4.18506,0-1.42578-.459-2.80518-2.29883-2.80518a6.07,6.07,0,0,0-3.334,1.19581l-.73632-1.311a8.29263,8.29263,0,0,1,4.39257-1.44873c2.73633,0,3.88575,1.81689,3.88575,4.59912V357h-1.56348l-.16113-1.3335h-.06934a5.96113,5.96113,0,0,1-3.70215,1.60938A3.04075,3.04075,0,0,1,1328.68945,354.10254Zm6.85157.16113v-3.10449c-3.72461.46-5.0127,1.37988-5.0127,2.80566,0,1.26465.874,1.79346,1.97754,1.79346A4.52737,4.52737,0,0,0,1335.541,354.26367Z" fill="#74d4cf"/><path d="M1342.71875,355.8501h-.06836L1342.48828,357h-1.51758V340.62744h1.88575v4.46094l-.0459,2.02392a5.5224,5.5224,0,0,1,3.49511-1.564c2.89746,0,4.43848,2.23047,4.43848,5.67969,0,3.81738-2.27734,6.04785-4.8291,6.04785A5.0083,5.0083,0,0,1,1342.71875,355.8501Zm6.07031-4.59864c0-2.46044-.82812-4.11621-2.94336-4.11621a4.608,4.608,0,0,0-2.98925,1.51758v5.86377a4.3776,4.3776,0,0,0,2.7373,1.17285C1347.43262,355.68945,1348.78906,354.01074,1348.78906,351.25146Z" fill="#74d4cf"/><path d="M1353.68945,354.74658V340.62744h1.88575v14.25684c0,.59814.25292.82812.52929.82812a1.58473,1.58473,0,0,0,.41309-.0459l.2539,1.4253a2.539,2.539,0,0,1-1.08105.18408C1354.26465,357.27588,1353.68945,356.37891,1353.68945,354.74658Z" fill="#74d4cf"/><path d="M1358.72656,351.43506c0-3.65625,2.46094-5.88672,5.01367-5.88672,2.85059,0,4.46094,2.04687,4.46094,5.24316a7.32012,7.32012,0,0,1-.06933,1.08057h-7.542c.13672,2.36865,1.58594,3.88623,3.72461,3.88623a5.045,5.045,0,0,0,2.78223-.874l.667,1.2417a6.65541,6.65541,0,0,1-3.67969,1.1499C1361.0957,357.27588,1358.72656,355.09131,1358.72656,351.43506Zm7.81836-.91944c0-2.2539-1.01172-3.47265-2.75976-3.47265-1.5625,0-2.98828,1.26514-3.21875,3.47265Z" fill="#74d4cf"/><path d="M1307.207,368.915h8.69238v1.60986h-6.78418v5.105h5.75v1.60938h-5.75V384h-1.9082Z" fill="#74d4cf"/><path d="M1318.04,369.30615a1.31453,1.31453,0,0,1,2.62207,0,1.31453,1.31453,0,0,1-2.62207,0Zm.34473,3.51807h1.88574V384h-1.88574Z" fill="#74d4cf"/><path d="M1324.043,381.74658V367.62744h1.88476v14.25684c0,.59814.25391.82812.5293.82812a1.58738,1.58738,0,0,0,.41406-.0459l.25293,1.4253a2.53587,2.53587,0,0,1-1.08105.18408C1324.61719,384.27588,1324.043,383.37891,1324.043,381.74658Z" fill="#74d4cf"/><path d="M1330.22949,380.55078v-6.18555h-1.65527v-1.42578l1.74707-.11523.22949-3.127h1.58789v3.127h3.01172v1.541h-3.01172v6.2085c0,1.37988.43653,2.16162,1.72461,2.16162a4.058,4.058,0,0,0,1.26367-.29883l.36817,1.4253a6.89352,6.89352,0,0,1-2.06934.41406C1331.03418,384.27588,1330.22949,382.7583,1330.22949,380.55078Z" fill="#74d4cf"/><path d="M1336.53125,378.43506c0-3.65625,2.46094-5.88672,5.01367-5.88672,2.85156,0,4.46094,2.04687,4.46094,5.24316a7.46887,7.46887,0,0,1-.06836,1.08057h-7.543c.1377,2.36865,1.58594,3.88623,3.72461,3.88623a5.04822,5.04822,0,0,0,2.7832-.874l.666,1.2417a6.64942,6.64942,0,0,1-3.67871,1.1499C1338.90039,384.27588,1336.53125,382.09131,1336.53125,378.43506Zm7.81836-.91944c0-2.2539-1.01172-3.47265-2.75879-3.47265-1.56348,0-2.98926,1.26514-3.21973,3.47265Z" fill="#74d4cf"/><path d="M1348.76758,372.82422h1.56347l.16114,2.02392h.06836a3.82466,3.82466,0,0,1,3.17383-2.2998,2.77785,2.77785,0,0,1,1.19531.23l-.36719,1.65576a3.13575,3.13575,0,0,0-1.08105-.18408c-.94239,0-2.06934.68994-2.82911,2.57568V384h-1.88476Z" fill="#74d4cf"/><path d="M356.1582,436.95166c0-4.8291,2.64453-7.74951,6.43848-7.74951s6.46094,2.94336,6.46094,7.74951c0,4.85205-2.667,7.88721-6.46094,7.88721S356.1582,441.80371,356.1582,436.95166Zm10.89942,0c0-3.748-1.77051-6.0708-4.46094-6.0708s-4.46094,2.32275-4.46094,6.0708c0,3.771,1.77051,6.2085,4.46094,6.2085S367.05762,440.72266,367.05762,436.95166Z" fill="#f0d878"/><path d="M370.87793,443.29834l.94238-1.26465a5.02524,5.02524,0,0,0,3.28809,1.3335c1.47168,0,2.208-.78174,2.208-1.74756,0-1.1499-1.334-1.65576-2.55274-2.11572-1.58691-.57471-3.334-1.3335-3.334-3.21924,0-1.79346,1.42578-3.17334,3.83984-3.17334a5.58407,5.58407,0,0,1,3.47266,1.26465l-.89746,1.1958a4.15023,4.15023,0,0,0-2.55176-.98877c-1.40332,0-2.04688.75879-2.04688,1.60986,0,1.05762,1.21875,1.44873,2.4834,1.93164,1.60938.59766,3.40332,1.26465,3.40332,3.38037,0,1.81641-1.44922,3.334-4.09277,3.334A6.72759,6.72759,0,0,1,370.87793,443.29834Z" fill="#f0d878"/><path d="M380.92871,438.99805c0-3.748,2.50684-5.88672,5.38086-5.88672a4.64,4.64,0,0,1,3.26563,1.311l-.96582,1.2417a3.27762,3.27762,0,0,0-2.23047-.98877c-2.02442,0-3.4961,1.74756-3.4961,4.32276,0,2.55273,1.40332,4.27734,3.44922,4.27734a3.973,3.973,0,0,0,2.62207-1.127l.82715,1.26465a5.45009,5.45009,0,0,1-3.60937,1.42578C383.20508,444.83887,380.92871,442.7002,380.92871,438.99805Z" fill="#f0d878"/><path d="M391.89941,429.86914a1.314,1.314,0,0,1,2.6211,0,1.314,1.314,0,0,1-2.6211,0Zm.34473,3.51807h1.88574V444.563h-1.88574Z" fill="#f0d878"/><path d="M397.90234,442.30957V428.19043h1.88477v14.25684c0,.59814.25293.82812.5293.82812a1.58742,1.58742,0,0,0,.41406-.0459l.25293,1.4253a2.53592,2.53592,0,0,1-1.08106.18408C398.47656,444.83887,397.90234,443.94189,397.90234,442.30957Z" fill="#f0d878"/><path d="M403.7666,442.30957V428.19043h1.88574v14.25684c0,.59814.25293.82812.5293.82812a1.58473,1.58473,0,0,0,.41309-.0459l.25293,1.4253a2.53086,2.53086,0,0,1-1.08008.18408C404.3418,444.83887,403.7666,443.94189,403.7666,442.30957Z" fill="#f0d878"/><path d="M408.94141,441.66553c0-2.4375,2.09277-3.65625,6.85254-4.18506,0-1.42578-.46-2.80518-2.29981-2.80518a6.07565,6.07565,0,0,0-3.334,1.1958l-.73536-1.311a8.28911,8.28911,0,0,1,4.39161-1.44873c2.73632,0,3.88671,1.81689,3.88671,4.59912V444.563h-1.56445l-.16015-1.3335h-.06934a5.96343,5.96343,0,0,1-3.70215,1.60938A3.04152,3.04152,0,0,1,408.94141,441.66553Zm6.85254.16113v-3.10449c-3.72461.46-5.0127,1.37988-5.0127,2.80566,0,1.26465.874,1.79346,1.97754,1.79346A4.52931,4.52931,0,0,0,415.794,441.82666Z" fill="#f0d878"/><path d="M421.22363,441.11377v-6.18555h-1.65625v-1.42578l1.748-.11523.22949-3.127h1.58692v3.127h3.01269v1.541h-3.01269v6.2085c0,1.37988.4375,2.16162,1.72461,2.16162a4.07032,4.07032,0,0,0,1.26464-.29883l.36817,1.42529a6.89925,6.89925,0,0,1-2.06934.41407C422.02832,444.83887,421.22363,443.32129,421.22363,441.11377Z" fill="#f0d878"/><path d="M427.52539,438.99805c0-3.748,2.4375-5.88672,5.17383-5.88672,2.7373,0,5.17383,2.13867,5.17383,5.88672,0,3.70215-2.43653,5.84082-5.17383,5.84082C429.96289,444.83887,427.52539,442.7002,427.52539,438.99805Zm8.39356,0c0-2.5752-1.28809-4.32276-3.21973-4.32276-1.9082,0-3.21875,1.74756-3.21875,4.32276,0,2.55273,1.31055,4.27734,3.21875,4.27734C434.63086,443.27539,435.919,441.55078,435.919,438.99805Z" fill="#f0d878"/><path d="M440.81934,433.38721h1.56347l.16114,2.02392h.06933a3.82211,3.82211,0,0,1,3.17285-2.2998,2.78221,2.78221,0,0,1,1.19629.23l-.36816,1.65576a3.13561,3.13561,0,0,0-1.08106-.18408c-.94238,0-2.06933.68994-2.82812,2.57568V444.563h-1.88574Z" fill="#f0d878"/><path d="M453.584,429.478h4.48438c3.05762,0,5.17383,1.03515,5.17383,3.67968a3.29993,3.29993,0,0,1-2.208,3.28809v.0918a3.47056,3.47056,0,0,1,3.08105,3.61035c0,2.96631-2.34472,4.415-5.72558,4.415H453.584Zm4.13868,6.416c2.57617,0,3.63379-.94287,3.63379-2.4834,0-1.748-1.19629-2.41455-3.541-2.41455h-2.32324v4.898Zm.3916,7.15137c2.59765,0,4.11621-.94287,4.11621-2.96631,0-1.86279-1.47168-2.71338-4.11621-2.71338h-2.62207v5.67969Z" fill="#f0d878"/><path d="M537.63477,442.6084l1.1499-1.3335a5.908,5.908,0,0,0,4.16211,1.88526c1.97754,0,3.1499-.98877,3.1499-2.46045,0-1.54053-1.08057-2.02344-2.50635-2.66748l-2.16162-.94239c-1.42529-.59814-3.0581-1.67871-3.0581-3.88623,0-2.2998,2.00048-4.00146,4.73681-4.00146a6.25709,6.25709,0,0,1,4.46094,1.86279l-1.03467,1.2417a4.80952,4.80952,0,0,0-3.42627-1.42578c-1.67871,0-2.80517.85107-2.80517,2.20752,0,1.44873,1.31054,2.00049,2.50634,2.50635l2.13868.91992c1.74755.75879,3.104,1.79346,3.104,4.02441,0,2.39112-1.95459,4.29981-5.12793,4.29981A7.31385,7.31385,0,0,1,537.63477,442.6084Z" fill="#f0d878"/><path d="M550.83643,428.19043h1.88525v4.46094l-.06885,2.2998a5.34306,5.34306,0,0,1,3.7251-1.83984c2.3457,0,3.40332,1.51806,3.40332,4.36914V444.563h-1.88574V437.7334c0-2.09229-.64356-2.98926-2.11524-2.98926-1.1499,0-1.93164.59766-3.05859,1.72461V444.563h-1.88525Z" fill="#f0d878"/><path d="M562.65869,441.66553c0-2.4375,2.09229-3.65625,6.85254-4.18506,0-1.42578-.46-2.80518-2.2998-2.80518a6.07289,6.07289,0,0,0-3.334,1.1958l-.73584-1.311a8.2924,8.2924,0,0,1,4.39209-1.44873c2.73633,0,3.88623,1.81689,3.88623,4.59912V444.563h-1.564l-.16065-1.3335H569.626a5.96229,5.96229,0,0,1-3.70215,1.60938A3.04114,3.04114,0,0,1,562.65869,441.66553Zm6.85254.16113v-3.10449c-3.7251.46-5.01318,1.37988-5.01318,2.80566,0,1.26465.874,1.79346,1.97754,1.79346A4.53029,4.53029,0,0,0,569.51123,441.82666Z" fill="#f0d878"/><path d="M574.94043,433.38721h1.56348l.16113,1.28808h.06885a5.78176,5.78176,0,0,1,3.56445-1.564c2.87354,0,4.41455,2.23047,4.41455,5.70312,0,3.79395-2.27637,6.02442-4.82861,6.02442a5.18229,5.18229,0,0,1-3.10449-1.2876l.04589,1.95459v3.771h-1.88525Zm7.81836,5.42724c0-2.46045-.82813-4.11621-2.94336-4.11621a4.70915,4.70915,0,0,0-2.98975,1.51758v5.86377a4.42538,4.42538,0,0,0,2.73682,1.17285C581.40186,443.25244,582.75879,441.57373,582.75879,438.81445Z" fill="#f0d878"/><path d="M586.877,438.99805c0-3.65625,2.46094-5.88672,5.01367-5.88672,2.85059,0,4.46094,2.04687,4.46094,5.24316a7.32012,7.32012,0,0,1-.06933,1.08057h-7.542c.13672,2.36865,1.58594,3.88623,3.72461,3.88623a5.045,5.045,0,0,0,2.78223-.874l.667,1.24169a6.65533,6.65533,0,0,1-3.67968,1.14991C589.24609,444.83887,586.877,442.6543,586.877,438.99805Zm7.81836-.91944c0-2.2539-1.01172-3.47265-2.75976-3.47265-1.5625,0-2.98828,1.26513-3.21875,3.47265Z" fill="#f0d878"/><path d="M599.11328,433.38721h1.5625l.16211,2.02392h.06836a3.82219,3.82219,0,0,1,3.17383-2.2998,2.78063,2.78063,0,0,1,1.19531.23l-.36816,1.65576a3.13147,3.13147,0,0,0-1.08106-.18408c-.94238,0-2.06933.68994-2.82812,2.57568V444.563h-1.88477Z" fill="#f0d878"/><path d="M611.877,429.478h4.48438c3.05859,0,5.17383,1.03515,5.17383,3.67968a3.29912,3.29912,0,0,1-2.207,3.28809v.0918a3.46977,3.46977,0,0,1,3.08008,3.61035c0,2.96631-2.34472,4.415-5.72461,4.415H611.877Zm4.13867,6.416c2.57618,0,3.63379-.94287,3.63379-2.4834,0-1.748-1.19629-2.41455-3.541-2.41455h-2.32324v4.898Zm.39161,7.15137c2.59863,0,4.11621-.94287,4.11621-2.96631,0-1.86279-1.47168-2.71338-4.11621-2.71338h-2.62207v5.67969Z" fill="#f0d878"/><path d="M1033.87891,707.02051c0-4.85254,2.85156-7.81836,6.6914-7.81836a5.503,5.503,0,0,1,4.13867,1.8623l-1.03418,1.24219a4.12383,4.12383,0,0,0-3.08105-1.42578c-2.85156,0-4.7373,2.3457-4.7373,6.09375,0,3.79394,1.8164,6.18555,4.668,6.18555a4.54976,4.54976,0,0,0,3.49512-1.70215l1.05859,1.19629a5.83831,5.83831,0,0,1-4.623,2.18457C1036.68359,714.83887,1033.87891,711.94141,1033.87891,707.02051Z" fill="#a1c2ff"/><path d="M1047.01172,711.665c0-2.4375,2.0918-3.65625,6.85254-4.18457,0-1.42578-.46-2.80567-2.29981-2.80567a6.06942,6.06942,0,0,0-3.334,1.19629l-.73633-1.31152a8.29558,8.29558,0,0,1,4.39258-1.44824c2.73633,0,3.88672,1.8164,3.88672,4.59863v6.85254H1054.209l-.16015-1.333h-.07031a5.96126,5.96126,0,0,1-3.70118,1.60938A3.04114,3.04114,0,0,1,1047.01172,711.665Zm6.85254.16113v-3.10449c-3.72559.46-5.0127,1.37988-5.0127,2.80566,0,1.26465.873,1.79395,1.97656,1.79395A4.5302,4.5302,0,0,0,1053.86426,711.82617Z" fill="#a1c2ff"/><path d="M1061.041,713.41309h-.06836l-.16114,1.14941H1059.294V698.19043h1.88574v4.46094l-.04688,2.02343a5.52451,5.52451,0,0,1,3.4961-1.56347c2.89648,0,4.4375,2.23047,4.4375,5.67969,0,3.81738-2.27637,6.04785-4.82813,6.04785A5.01309,5.01309,0,0,1,1061.041,713.41309Zm6.07128-4.59864c0-2.46093-.82812-4.11621-2.94335-4.11621a4.60565,4.60565,0,0,0-2.98926,1.51758v5.86328a4.37339,4.37339,0,0,0,2.73633,1.17285C1065.75586,713.252,1067.1123,711.57324,1067.1123,708.81445Z" fill="#a1c2ff"/><path d="M1071.668,699.86914a1.314,1.314,0,0,1,2.62109,0,1.314,1.314,0,0,1-2.62109,0Zm.34473,3.51758h1.88574V714.5625h-1.88574Z" fill="#a1c2ff"/><path d="M1077.66992,703.38672h1.56446l.16015,1.61035h.06934a5.2691,5.2691,0,0,1,3.748-1.88574c2.34571,0,3.40332,1.51758,3.40332,4.36914v7.082h-1.88574v-6.8291c0-2.09278-.64355-2.98926-2.11523-2.98926-1.14942,0-1.93164.59766-3.0586,1.72461v8.09375h-1.88574Z" fill="#a1c2ff"/><path d="M1089.42383,708.99805c0-3.65625,2.46-5.88672,5.01269-5.88672,2.85059,0,4.46094,2.04687,4.46094,5.24316a7.17534,7.17534,0,0,1-.06934,1.08008h-7.542c.1377,2.36914,1.58692,3.88672,3.72559,3.88672a5.04433,5.04433,0,0,0,2.78125-.874l.668,1.24121a6.65819,6.65819,0,0,1-3.67969,1.15039C1091.792,714.83887,1089.42383,712.6543,1089.42383,708.99805Zm7.81836-.91993c0-2.2539-1.01172-3.47265-2.75977-3.47265-1.56347,0-2.98926,1.26562-3.21875,3.47265Z" fill="#a1c2ff"/><path d="M1101.751,711.11328v-6.18555h-1.65528V703.502l1.74707-.11523.2295-3.12695h1.58789v3.12695h3.01172v1.541h-3.01172v6.209c0,1.37988.43652,2.16113,1.72461,2.16113a4.0581,4.0581,0,0,0,1.26367-.29883l.36816,1.42578a6.89315,6.89315,0,0,1-2.06933.41407C1102.55566,714.83887,1101.751,713.32129,1101.751,711.11328Z" fill="#a1c2ff"/><path d="M1181.89453,696.52051c0-4.85254,2.9209-7.81836,6.92188-7.81836a5.79347,5.79347,0,0,1,4.3457,1.8623l-1.05664,1.24219a4.2648,4.2648,0,0,0-3.24317-1.42578c-3.03515,0-4.98925,2.3457-4.98925,6.09375,0,3.79394,1.793,6.18555,5.01172,6.18555a4.13417,4.13417,0,0,0,2.71386-.89649v-3.93262h-3.19629v-1.58691h4.94434v6.34668a6.419,6.419,0,0,1-4.64551,1.74805C1184.72266,704.33887,1181.89453,701.44141,1181.89453,696.52051Z" fill="#a1c2ff"/><path d="M1196.08594,701.165c0-2.4375,2.09179-3.65625,6.85254-4.18457,0-1.42578-.46-2.80567-2.29981-2.80567a6.0694,6.0694,0,0,0-3.334,1.19629l-.73633-1.31152a8.29558,8.29558,0,0,1,4.39258-1.44824c2.73633,0,3.88672,1.8164,3.88672,4.59863v6.85254h-1.56446l-.16015-1.333h-.07032a5.96123,5.96123,0,0,1-3.70117,1.60938A3.04114,3.04114,0,0,1,1196.08594,701.165Zm6.85254.16113v-3.10449c-3.72559.46-5.0127,1.37988-5.0127,2.80566,0,1.26465.873,1.79395,1.97656,1.79395A4.5302,4.5302,0,0,0,1202.93848,701.32617Z" fill="#a1c2ff"/><path d="M1208.36719,692.88672h1.56445l.16016,1.28808h.06933a5.78271,5.78271,0,0,1,3.56446-1.56347c2.874,0,4.415,2.23047,4.415,5.70312,0,3.79395-2.27734,6.02442-4.8291,6.02442a5.18549,5.18549,0,0,1-3.10449-1.28809l.0459,1.95508v3.77051h-1.88574Zm7.81836,5.42773c0-2.46093-.82813-4.11621-2.94336-4.11621a4.70786,4.70786,0,0,0-2.98926,1.51758v5.86328a4.42751,4.42751,0,0,0,2.7373,1.17285C1214.8291,702.752,1216.18555,701.07324,1216.18555,698.31445Z" fill="#a1c2ff"/><path d="M1177.17969,715.97754h8.69336v1.61035h-6.78418v5.10449h5.749v1.60938h-5.749v6.76074h-1.90918Z" fill="#a1c2ff"/><path d="M1188.01367,716.36914a1.314,1.314,0,0,1,2.6211,0,1.314,1.314,0,0,1-2.6211,0Zm.34473,3.51758h1.88574V731.0625h-1.88574Z" fill="#a1c2ff"/><path d="M1194.01562,728.80957V714.69043h1.88575v14.25684c0,.59765.25293.82812.52929.82812a1.58473,1.58473,0,0,0,.41309-.0459l.25391,1.42481a2.53787,2.53787,0,0,1-1.08106.18457C1194.59082,731.33887,1194.01562,730.44141,1194.01562,728.80957Z" fill="#a1c2ff"/><path d="M1200.20312,727.61328v-6.18555h-1.65624V720.002l1.748-.11523.22949-3.12695h1.58692v3.12695h3.01172v1.541h-3.01172v6.209c0,1.37988.4375,2.16113,1.72461,2.16113a4.07045,4.07045,0,0,0,1.26465-.29883l.36816,1.42578a6.89941,6.89941,0,0,1-2.07031.41407C1201.00781,731.33887,1200.20312,729.82129,1200.20312,727.61328Z" fill="#a1c2ff"/><path d="M1206.50488,725.49805c0-3.65625,2.46-5.88672,5.0127-5.88672,2.85156,0,4.46094,2.04687,4.46094,5.24316a7.32124,7.32124,0,0,1-.06836,1.08008h-7.543c.13867,2.36914,1.58691,3.88672,3.72558,3.88672a5.04752,5.04752,0,0,0,2.78223-.874l.667,1.24121a6.65219,6.65219,0,0,1-3.67871,1.15039C1208.87305,731.33887,1206.50488,729.1543,1206.50488,725.49805Zm7.81836-.91993c0-2.2539-1.01172-3.47265-2.75879-3.47265-1.56445,0-2.99023,1.26562-3.21972,3.47265Z" fill="#a1c2ff"/><path d="M1218.74023,719.88672h1.56446l.16015,2.02441h.06934a3.82241,3.82241,0,0,1,3.17285-2.2998,2.78956,2.78956,0,0,1,1.19629.22949l-.36816,1.65625a3.11832,3.11832,0,0,0-1.08008-.18457c-.94336,0-2.07031.69043-2.8291,2.57617v7.17383h-1.88575Z" fill="#a1c2ff"/><path d="M906.01367,699.47754h8.69238v1.61035h-6.78417v5.10449h5.75v1.60938h-5.75v6.76074h-1.90821Z" fill="#a1c2ff"/><path d="M917.19141,712.30957V698.19043h1.88574v14.25684c0,.59765.25293.82812.5293.82812a1.58471,1.58471,0,0,0,.41308-.0459l.25391,1.42481a2.53787,2.53787,0,0,1-1.08106.18457C917.7666,714.83887,917.19141,713.94141,917.19141,712.30957Z" fill="#a1c2ff"/><path d="M922.36719,711.665c0-2.4375,2.09179-3.65625,6.85156-4.18457,0-1.42578-.459-2.80567-2.29883-2.80567a6.06661,6.06661,0,0,0-3.334,1.19629l-.73633-1.31152a8.29261,8.29261,0,0,1,4.39258-1.44824c2.73633,0,3.88574,1.8164,3.88574,4.59863v6.85254h-1.56348l-.16113-1.333H929.334a5.96377,5.96377,0,0,1-3.70214,1.60938A3.04087,3.04087,0,0,1,922.36719,711.665Zm6.85156.16113v-3.10449c-3.72461.46-5.0127,1.37988-5.0127,2.80566,0,1.26465.874,1.79395,1.97754,1.79395A4.52816,4.52816,0,0,0,929.21875,711.82617Z" fill="#a1c2ff"/><path d="M934.64844,703.38672h1.56347l.16114,1.61035h.06836a5.27091,5.27091,0,0,1,3.748-1.88574c2.34571,0,3.4043,1.51758,3.4043,4.36914v7.082H941.707v-6.8291c0-2.09278-.64258-2.98926-2.11523-2.98926-1.14942,0-1.93164.59766-3.0586,1.72461v8.09375h-1.88476Z" fill="#a1c2ff"/><path d="M946.37891,716.70117a3.22648,3.22648,0,0,1,1.63281-2.52929v-.0918a2.06159,2.06159,0,0,1-.98926-1.81641,2.61866,2.61866,0,0,1,1.21875-2.07031v-.0918A3.94461,3.94461,0,0,1,951,703.11133a4.48794,4.48794,0,0,1,1.58789.27539h3.88477v1.44922h-2.29883a3.23844,3.23844,0,0,1,.91992,2.2998A3.83535,3.83535,0,0,1,951,711.02148a3.90374,3.90374,0,0,1-1.67773-.39062,1.69357,1.69357,0,0,0-.71289,1.333c0,.71289.459,1.21875,1.97656,1.21875h2.16211c2.59863,0,3.90918.80566,3.90918,2.668,0,2.06933-2.18457,3.86328-5.65723,3.86328C948.26367,719.71387,946.37891,718.63281,946.37891,716.70117Zm8.43945-.57519c0-1.03418-.80566-1.37891-2.25391-1.37891h-1.93164a5.41858,5.41858,0,0,1-1.44922-.18457,2.35526,2.35526,0,0,0-1.14941,1.88574c0,1.19629,1.21875,1.95508,3.24219,1.95508C953.415,718.40332,954.81836,717.29883,954.81836,716.126Zm-1.44922-9.03614a2.37883,2.37883,0,1,0-4.7373,0,2.38534,2.38534,0,1,0,4.7373,0Z" fill="#a1c2ff"/><path d="M957.67188,708.99805c0-3.65625,2.46-5.88672,5.01269-5.88672,2.85059,0,4.46094,2.04687,4.46094,5.24316a7.17534,7.17534,0,0,1-.06934,1.08008h-7.542c.1377,2.36914,1.58691,3.88672,3.72559,3.88672a5.04433,5.04433,0,0,0,2.78125-.874l.668,1.24121a6.65812,6.65812,0,0,1-3.67968,1.15039C960.04,714.83887,957.67188,712.6543,957.67188,708.99805Zm7.81835-.91993c0-2.2539-1.01171-3.47265-2.75976-3.47265-1.56348,0-2.98926,1.26562-3.21875,3.47265Z" fill="#a1c2ff"/><path d="M969.90723,703.38672h1.56347l.16114,2.02441h.06933a3.81994,3.81994,0,0,1,3.17285-2.2998,2.79253,2.79253,0,0,1,1.19629.22949l-.36914,1.65625a3.1142,3.1142,0,0,0-1.08008-.18457c-.94336,0-2.07031.69043-2.82812,2.57617v7.17383h-1.88574Z" fill="#a1c2ff"/><path d="M1308.39062,699.47754h8.69239v1.61035h-6.78418v4.73633h5.72656V707.457h-5.72656v5.47266h7.01367v1.63281h-8.92188Z" fill="#a1c2ff"/><path d="M1319.26953,708.99805c0-3.74805,2.50781-5.88672,5.38086-5.88672a4.63609,4.63609,0,0,1,3.26563,1.31055l-.96485,1.24218a3.2781,3.2781,0,0,0-2.23047-.98926c-2.02441,0-3.49609,1.74805-3.49609,4.32325,0,2.55273,1.40234,4.27734,3.44922,4.27734a3.96844,3.96844,0,0,0,2.62109-1.12695l.82813,1.26465a5.45254,5.45254,0,0,1-3.60938,1.42578C1321.54688,714.83887,1319.26953,712.7002,1319.26953,708.99805Z" fill="#a1c2ff"/><path d="M1330.58594,698.19043h1.88476v4.46094l-.06836,2.2998a5.34293,5.34293,0,0,1,3.72461-1.83984c2.34571,0,3.4043,1.51758,3.4043,4.36914v7.082h-1.88672v-6.8291c0-2.09278-.64258-2.98926-2.11523-2.98926-1.14942,0-1.93164.59766-3.0586,1.72461v8.09375h-1.88476Z" fill="#a1c2ff"/><path d="M1342.26953,708.99805c0-3.74805,2.4375-5.88672,5.17383-5.88672s5.17383,2.13867,5.17383,5.88672c0,3.70215-2.4375,5.84082-5.17383,5.84082S1342.26953,712.7002,1342.26953,708.99805Zm8.39356,0c0-2.5752-1.28809-4.32325-3.21973-4.32325-1.9082,0-3.21875,1.74805-3.21875,4.32325,0,2.55273,1.31055,4.27734,3.21875,4.27734C1349.375,713.27539,1350.66309,711.55078,1350.66309,708.99805Z" fill="#a1c2ff"/><path d="M1428.502,699.47754h4.71387c3.08106,0,5.28809,1.10449,5.28809,4.23144a4.11865,4.11865,0,0,1-3.40235,4.27735l3.83985,6.57617h-2.16211l-3.63282-6.36914h-2.73632v6.36914H1428.502Zm4.4375,7.15234c2.34571,0,3.65625-.96582,3.65625-2.9209,0-1.97753-1.31054-2.69043-3.65625-2.69043h-2.52929v5.61133Z" fill="#a1c2ff"/><path d="M1440.34668,708.99805c0-3.65625,2.46-5.88672,5.0127-5.88672,2.85156,0,4.46093,2.04687,4.46093,5.24316a7.31987,7.31987,0,0,1-.06836,1.08008h-7.543c.13868,2.36914,1.58692,3.88672,3.72559,3.88672a5.04755,5.04755,0,0,0,2.78223-.874l.667,1.24121a6.65219,6.65219,0,0,1-3.67871,1.15039C1442.71484,714.83887,1440.34668,712.6543,1440.34668,708.99805Zm7.81836-.91993c0-2.2539-1.01172-3.47265-2.75879-3.47265-1.56445,0-2.99023,1.26562-3.21973,3.47265Z" fill="#a1c2ff"/><path d="M1451.08789,703.38672h1.9541l2.11621,6.34668c.32129,1.10449.68946,2.23047,1.03418,3.28906h.0918c.32227-1.05859.69043-2.18457,1.01172-3.28906l2.11621-6.34668h1.8623l-3.95507,11.17578h-2.208Z" fill="#a1c2ff"/><path d="M1462.51758,708.99805c0-3.65625,2.46094-5.88672,5.01367-5.88672,2.85156,0,4.46094,2.04687,4.46094,5.24316a7.45683,7.45683,0,0,1-.06836,1.08008h-7.543c.13769,2.36914,1.58594,3.88672,3.72461,3.88672a5.04822,5.04822,0,0,0,2.7832-.874l.666,1.24121a6.64964,6.64964,0,0,1-3.67871,1.15039C1464.88672,714.83887,1462.51758,712.6543,1462.51758,708.99805Zm7.81836-.91993c0-2.2539-1.01172-3.47265-2.75879-3.47265-1.56348,0-2.98926,1.26562-3.21973,3.47265Z" fill="#a1c2ff"/><path d="M1474.75391,703.38672h1.56347l.16114,2.02441h.06836a3.82371,3.82371,0,0,1,3.17382-2.2998,2.78508,2.78508,0,0,1,1.19532.22949l-.36719,1.65625a3.124,3.124,0,0,0-1.08106-.18457c-.94238,0-2.06933.69043-2.8291,2.57617v7.17383h-1.88476Z" fill="#a1c2ff"/><path d="M1484.48242,713.41309h-.06933l-.16114,1.14941h-1.51757V698.19043h1.88476v4.46094l-.04492,2.02343a5.5219,5.5219,0,0,1,3.49414-1.56347c2.89844,0,4.43945,2.23047,4.43945,5.67969,0,3.81738-2.27734,6.04785-4.83008,6.04785A5.00854,5.00854,0,0,1,1484.48242,713.41309Zm6.07031-4.59864c0-2.46093-.82812-4.11621-2.94335-4.11621a4.60767,4.60767,0,0,0-2.99024,1.51758v5.86328a4.37969,4.37969,0,0,0,2.73731,1.17285C1489.19531,713.252,1490.55273,711.57324,1490.55273,708.81445Z" fill="#a1c2ff"/><path d="M909.39746,341.34082H913.292c2.54492,0,4.36914.91162,4.36914,3.49512a3.40277,3.40277,0,0,1-2.81152,3.53369l3.17285,5.4331h-1.78613l-3.00195-5.2622h-2.26075v5.2622h-1.57617Zm3.666,5.90772c1.9375,0,3.0205-.79786,3.0205-2.4126,0-1.63379-1.083-2.22266-3.0205-2.22266h-2.08985v4.63526Z" fill="#b3b3b3"/><path d="M920.208,341.34082h1.89941l2.39356,6.64893c.30371.85449.58886,1.74755.89257,2.60254h.07618c.30468-.855.55078-1.748.85547-2.60254l2.35546-6.64893h1.91895v12.46191h-1.48242v-6.85791c0-1.10205.13281-2.58349.209-3.68554H929.25l-.9873,2.83056-2.35547,6.459H924.8623l-2.35546-6.459-.98829-2.83056h-.07617c.07617,1.10205.19043,2.58349.19043,3.68554v6.85791H920.208Z" fill="#b3b3b3"/><polyline points="337.289 290 310 290 310 330 570 330 570 310" fill="none" stroke="#666" stroke-width="2.5"/><polygon points="329.005 279.775 327.3 281.606 336.329 289.998 327.3 298.391 329.005 300.222 340 289.998 329.005 279.775" fill="#666"/><polyline points="337.289 230 280 230 280 530 590 530 590 490" fill="none" stroke="#666" stroke-width="2.5"/><polygon points="329.005 219.775 327.3 221.606 336.329 229.998 327.3 238.391 329.005 240.222 340 229.998 329.005 219.775" fill="#666"/><line x1="480" y1="260" x2="507.28876" y2="260" fill="none" stroke="#666" stroke-width="2.5"/><polygon points="499.005 270.225 497.3 268.394 506.329 260.002 497.3 251.609 499.005 249.778 510 260.002 499.005 270.225" fill="#666"/><line x1="650" y1="260" x2="687.28876" y2="260" fill="none" stroke="#666" stroke-width="2.5"/><polygon points="679.005 270.225 677.3 268.394 686.329 260.002 677.3 251.609 679.005 249.778 690 260.002 679.005 270.225" fill="#666"/><line x1="850" y1="260" x2="897.28876" y2="260" fill="none" stroke="#666" stroke-width="2.5"/><polygon points="889.005 270.225 887.3 268.394 896.329 260.002 887.3 251.609 889.005 249.778 900 260.002 889.005 270.225" fill="#666"/><line x1="850" y1="440" x2="897.28876" y2="440" fill="none" stroke="#666" stroke-width="2.5"/><polygon points="889.005 450.225 887.3 448.394 896.329 440.002 887.3 431.609 889.005 429.778 900 440.002 889.005 450.225" fill="#666"/><line x1="720" y1="260" x2="767.28876" y2="260" fill="none" stroke="#666" stroke-width="2.5"/><polygon points="759.005 270.225 757.3 268.394 766.329 260.002 757.3 251.609 759.005 249.778 770 260.002 759.005 270.225" fill="#666"/><line x1="1200" y1="202.71125" x2="1200" y2="487.28876" fill="none" stroke="#666" stroke-width="2.5"/><polygon points="1189.775 210.995 1191.606 212.7 1199.998 203.671 1208.391 212.7 1210.222 210.995 1199.998 200 1189.775 210.995" fill="#666"/><polygon points="1189.775 479.005 1191.606 477.3 1199.998 486.329 1208.391 477.3 1210.222 479.005 1199.998 490 1189.775 479.005" fill="#666"/><polyline points="337.289 470 310 470 310 510 570 510 570 490" fill="none" stroke="#666" stroke-width="2.5"/><polygon points="329.005 459.775 327.3 461.606 336.329 469.998 327.3 478.391 329.005 480.222 340 469.998 329.005 459.775" fill="#666"/><line x1="480" y1="440" x2="507.28876" y2="440" fill="none" stroke="#666" stroke-width="2.5"/><polygon points="499.005 450.225 497.3 448.394 506.329 440.002 497.3 431.609 499.005 429.778 510 440.002 499.005 450.225" fill="#666"/><line x1="650" y1="440" x2="687.28876" y2="440" fill="none" stroke="#666" stroke-width="2.5"/><polygon points="679.005 450.225 677.3 448.394 686.329 440.002 677.3 431.609 679.005 429.778 690 440.002 679.005 450.225" fill="#666"/><line x1="720" y1="440" x2="767.28876" y2="440" fill="none" stroke="#666" stroke-width="2.5"/><polygon points="759.005 450.225 757.3 448.394 766.329 440.002 757.3 431.609 759.005 429.778 770 440.002 759.005 450.225" fill="#666"/><polyline points="337.289 440 250 440 250 80 1500 80 1500 150 1480 150" fill="none" stroke="#666" stroke-width="2.5"/><polygon points="329.005 429.775 327.3 431.606 336.329 439.998 327.3 448.391 329.005 450.222 340 439.998 329.005 429.775" fill="#666"/><polyline points="590 310 590 350 310 350 310 410 337.289 410" fill="none" stroke="#666" stroke-width="2.5"/><polygon points="329.005 420.225 327.3 418.394 336.329 410.002 327.3 401.609 329.005 399.778 340 410.002 329.005 420.225" fill="#666"/><polyline points="960 430 960 370 1027.289 370" fill="none" stroke="#666" stroke-width="2.5"/><polygon points="1019.005 380.225 1017.3 378.394 1026.329 370.002 1017.3 361.609 1019.005 359.778 1030 370.002 1019.005 380.225" fill="#666"/><line x1="1140" y1="430" x2="1140" y2="487.28876" fill="none" stroke="#666" stroke-width="2.5"/><polygon points="1129.775 479.005 1131.606 477.3 1139.998 486.329 1148.391 477.3 1150.222 479.005 1139.998 490 1129.775 479.005" fill="#666"/><line x1="1170" y1="350" x2="1257.2887" y2="350" fill="none" stroke="#666" stroke-width="2.5"/><polygon points="1249.005 360.225 1247.3 358.394 1256.329 350.002 1247.3 341.609 1249.005 339.778 1260 350.002 1249.005 360.225" fill="#666"/><polyline points="940 270 1230 270 1230 320 1257.289 320" fill="none" stroke="#666" stroke-width="2.5"/><polygon points="1249.005 330.225 1247.3 328.394 1256.329 320.002 1247.3 311.609 1249.005 309.778 1260 320.002 1249.005 330.225" fill="#666"/><polyline points="1257.289 380 1230 380 1230 430 940 430" fill="none" stroke="#666" stroke-width="2.5"/><polygon points="1249.005 369.775 1247.3 371.606 1256.329 379.998 1247.3 388.391 1249.005 390.222 1260 379.998 1249.005 369.775" fill="#666"/><polyline points="1260 202.711 1260 270 1430 270 1430 430 1260 430 1260 487.289" fill="none" stroke="#666" stroke-width="2.5"/><polygon points="1249.775 210.995 1251.606 212.7 1259.998 203.671 1268.391 212.7 1270.222 210.995 1259.998 200 1249.775 210.995" fill="#666"/><polygon points="1249.775 479.005 1251.606 477.3 1259.998 486.329 1268.391 477.3 1270.222 479.005 1259.998 490 1249.775 479.005" fill="#666"/><polyline points="990 270 990 460 1080 460 1080 487.289" fill="none" stroke="#666" stroke-width="2.5"/><polygon points="1069.775 479.005 1071.606 477.3 1079.998 486.329 1088.391 477.3 1090.222 479.005 1079.998 490 1069.775 479.005" fill="#666"/><line x1="1360" y1="150" x2="1387.2887" y2="150" fill="none" stroke="#666" stroke-width="2.5"/><polygon points="1379.005 160.225 1377.3 158.394 1386.329 150.002 1377.3 141.609 1379.005 139.778 1390 150.002 1379.005 160.225" fill="#666"/><line x1="1300" y1="540" x2="1327.2887" y2="540" fill="none" stroke="#666" stroke-width="2.5"/><polygon points="1319.005 550.225 1317.3 548.394 1326.329 540.002 1317.3 531.609 1319.005 529.778 1330 540.002 1319.005 550.225" fill="#666"/><line x1="990" y1="710" x2="1017.28876" y2="710" fill="none" stroke="#666" stroke-width="2.5"/><polygon points="1009.005 720.225 1007.3 718.394 1016.329 710.002 1007.3 701.609 1009.005 699.778 1020 710.002 1009.005 720.225" fill="#666"/><line x1="1120" y1="710" x2="1147.2887" y2="710" fill="none" stroke="#666" stroke-width="2.5"/><polygon points="1139.005 720.225 1137.3 718.394 1146.329 710.002 1137.3 701.609 1139.005 699.778 1150 710.002 1139.005 720.225" fill="#666"/><line x1="1250" y1="710" x2="1277.2887" y2="710" fill="none" stroke="#666" stroke-width="2.5"/><polygon points="1269.005 720.225 1267.3 718.394 1276.329 710.002 1267.3 701.609 1269.005 699.778 1280 710.002 1269.005 720.225" fill="#666"/><line x1="1380" y1="710" x2="1407.2887" y2="710" fill="none" stroke="#666" stroke-width="2.5"/><polygon points="1399.005 720.225 1397.3 718.394 1406.329 710.002 1397.3 701.609 1399.005 699.778 1410 710.002 1399.005 720.225" fill="#666"/><line x1="1510" y1="710" x2="1557.2887" y2="710" fill="none" stroke="#666" stroke-width="2.5"/><polygon points="1549.005 720.225 1547.3 718.394 1556.329 710.002 1547.3 701.609 1549.005 699.778 1560 710.002 1549.005 720.225" fill="#666"/><polyline points="1420 540 1440 540 1440 630 850 630 850 710 887.289 710" fill="none" stroke="#666" stroke-width="2.5"/><polygon points="879.005 720.225 877.3 718.394 886.329 710.002 877.3 701.609 879.005 699.778 890 710.002 879.005 720.225" fill="#666"/><polyline points="1430 350 1400 350 1430 350" fill="none" stroke="#666" stroke-width="2.5"/><polyline points="1320 202.711 1320 240 1460 240 1460 670" fill="none" stroke="#666" stroke-width="2.5"/><polygon points="1309.775 210.995 1311.606 212.7 1319.998 203.671 1328.391 212.7 1330.222 210.995 1319.998 200 1309.775 210.995" fill="#666"/><line x1="1027.28876" y1="330" x2="990" y2="330" fill="none" stroke="#666" stroke-width="2.5"/><polygon points="1019.005 319.775 1017.3 321.606 1026.329 329.998 1017.3 338.391 1019.005 340.222 1030 329.998 1019.005 319.775" fill="#666"/><line x1="767.28876" y1="236.5" x2="740" y2="236.5" fill="none" stroke="#666" stroke-width="2.5"/><polygon points="759.005 226.275 757.3 228.106 766.329 236.498 757.3 244.891 759.005 246.722 770 236.498 759.005 226.275" fill="#666"/><polyline points="740 80 740 416.5 767.289 416.5" fill="none" stroke="#666" stroke-width="2.5"/><polygon points="759.005 426.725 757.3 424.894 766.329 416.502 757.3 408.109 759.005 406.278 770 416.502 759.005 426.725" fill="#666"/><line x1="337.28876" y1="260" x2="250" y2="260" fill="none" stroke="#666" stroke-width="2.5"/><polygon points="329.005 249.775 327.3 251.606 336.329 259.998 327.3 268.391 329.005 270.222 340 259.998 329.005 249.775" fill="#666"/><rect x="1424.99999" y="344.99999" width="10.00001" height="10.00001" rx="5" ry="5" fill="#666"/><rect x="1194.99999" y="344.99999" width="10.00001" height="10.00001" rx="5" ry="5" fill="#666"/><rect x="1134.99999" y="425" width="10.00001" height="10.00001" rx="5" ry="5" fill="#666"/><rect x="985" y="325" width="10.00001" height="10.00001" rx="5" ry="5" fill="#666"/><rect x="734.99999" y="231.5" width="10.00001" height="10.00001" rx="5" ry="5" fill="#666"/><rect x="245" y="254.99999" width="10.00001" height="10.00001" rx="5" ry="5" fill="#666"/><rect x="734.99999" y="74.99999" width="10.00001" height="10.00001" rx="5" ry="5" fill="#666"/><rect x="955" y="424.99999" width="10.00001" height="10.00001" rx="5" ry="5" fill="#666"/><circle cx="84.43452" cy="53.06548" r="15.56548" fill="#1a1a1a" stroke="#e6e6e6" stroke-miterlimit="10" stroke-width="2"/><path d="M56.72612,73.55828,71.65634,62.6756,74.41577,65.435l-12.46885,13.344a2.46136,2.46136,0,0,1-3.4809,0l-1.7399-1.7399A2.46138,2.46138,0,0,1,56.72612,73.55828Z" fill="#e6e6e6"/><line x1="77.43005" y1="53.06548" x2="91.43898" y2="53.06548" fill="none" stroke="#e6e6e6" stroke-miterlimit="10" stroke-width="2.5"/><line x1="84.43452" y1="60.06995" x2="84.43451" y2="46.06102" fill="none" stroke="#e6e6e6" stroke-miterlimit="10" stroke-width="2.5"/></svg>