<svg xmlns="http://www.w3.org/2000/svg" viewBox="0 0 390 394.5"><title>comb-dia-1</title><rect x="0.25" y="0.25" width="389.5" height="394.5" rx="1.75" ry="1.75" fill="#202020"/><path d="M388,.5A1.50167,1.50167,0,0,1,389.5,2V393a1.50168,1.50168,0,0,1-1.5,1.5H2A1.50172,1.50172,0,0,1,.5,393V2A1.50171,1.50171,0,0,1,2,.5H388m0-.5H2A2,2,0,0,0,0,2V393a2,2,0,0,0,2,2H388a2,2,0,0,0,2-2V2a2,2,0,0,0-2-2Z" fill="#363636"/><rect x="13" y="13" width="364" height="179"/><rect x="13" y="203" width="364" height="179"/><rect x="14.5" y="29.5" width="361" height="161" fill="#0f0f0f"/><path d="M375,30V190H15V30H375m1-1H14V191H376V29Z" fill="#363636"/><rect x="14.5" y="219.5" width="361" height="161" fill="#0f0f0f"/><path d="M375,220V380H15V220H375m1-1H14V381H376V219Z" fill="#363636"/><rect x="14.5" y="14.5" width="361" height="13" fill="#363636"/><path d="M374.99976,15.00016v12h-360v-12h360m1-1h-362v14h362v-14Z" fill="#363636"/><rect x="14.5" y="204.5" width="361" height="13" fill="#363636"/><path d="M374.99976,205.00017v12h-360v-12h360m1-1h-362v14h362v-14Z" fill="#363636"/><line x1="45" y1="30" x2="45" y2="190" fill="none" stroke="#202020" stroke-width="0.5"/><line x1="35" y1="30" x2="35" y2="190" fill="none" stroke="#202020" stroke-width="0.5"/><line x1="55" y1="30" x2="55" y2="190" fill="none" stroke="#202020" stroke-width="0.5"/><line x1="65" y1="30" x2="65" y2="190" fill="none" stroke="#202020" stroke-width="0.5"/><line x1="75" y1="30" x2="75" y2="190" fill="none" stroke="#202020" stroke-width="0.5"/><line x1="85" y1="30" x2="85" y2="190" fill="none" stroke="#202020" stroke-width="0.5"/><line x1="95" y1="30" x2="95" y2="190" fill="none" stroke="#202020" stroke-width="0.5"/><line x1="105" y1="30" x2="105" y2="190" fill="none" stroke="#202020" stroke-width="0.5"/><line x1="115" y1="30" x2="115" y2="190" fill="none" stroke="#202020" stroke-width="0.5"/><line x1="125" y1="30" x2="125" y2="190" fill="none" stroke="#202020" stroke-width="0.5"/><line x1="135" y1="30" x2="135" y2="190" fill="none" stroke="#202020" stroke-width="0.5"/><line x1="145" y1="30" x2="145" y2="190" fill="none" stroke="#202020" stroke-width="0.5"/><line x1="155" y1="30" x2="155" y2="190" fill="none" stroke="#202020" stroke-width="0.5"/><line x1="165" y1="30" x2="165" y2="190" fill="none" stroke="#202020" stroke-width="0.5"/><line x1="175" y1="30" x2="175" y2="190" fill="none" stroke="#202020" stroke-width="0.5"/><line x1="14.99998" y1="79.9993" x2="374.99995" y2="79.9993" fill="none" stroke="#202020" stroke-width="0.5"/><line x1="14.99998" y1="90.00007" x2="374.99995" y2="90.00007" fill="none" stroke="#202020" stroke-width="0.5"/><line x1="14.99998" y1="69.9993" x2="374.99995" y2="69.9993" fill="none" stroke="#202020" stroke-width="0.5"/><line x1="14.99998" y1="59.9993" x2="374.99995" y2="59.9993" fill="none" stroke="#202020" stroke-width="0.5"/><line x1="14.99998" y1="49.9993" x2="374.99995" y2="49.9993" fill="none" stroke="#202020" stroke-width="0.5"/><line x1="14.99998" y1="39.9993" x2="374.99995" y2="39.9993" fill="none" stroke="#202020" stroke-width="0.5"/><line x1="14.99998" y1="150.00017" x2="374.99995" y2="150.00017" fill="none" stroke="#202020" stroke-width="0.5"/><line x1="14.99998" y1="160.00094" x2="374.99995" y2="160.00094" fill="none" stroke="#202020" stroke-width="0.5"/><line x1="14.99998" y1="170.00017" x2="374.99995" y2="170.00017" fill="none" stroke="#202020" stroke-width="0.5"/><line x1="14.99998" y1="180.00017" x2="374.99995" y2="180.00017" fill="none" stroke="#202020" stroke-width="0.5"/><line x1="14.99998" y1="140.00017" x2="374.99995" y2="140.00017" fill="none" stroke="#202020" stroke-width="0.5"/><line x1="14.99998" y1="130.00017" x2="374.99995" y2="130.00017" fill="none" stroke="#202020" stroke-width="0.5"/><line x1="14.99998" y1="120.00017" x2="374.99995" y2="120.00017" fill="none" stroke="#202020" stroke-width="0.5"/><line x1="14.99998" y1="110.00017" x2="374.99995" y2="110.00017" fill="none" stroke="#202020" stroke-width="0.5"/><line x1="14.99998" y1="100.00017" x2="374.99995" y2="100.00017" fill="none" stroke="#202020" stroke-width="0.5"/><line x1="25" y1="30" x2="25" y2="190" fill="none" stroke="#202020" stroke-width="0.5"/><line x1="205" y1="30" x2="205" y2="190" fill="none" stroke="#202020" stroke-width="0.5"/><line x1="195" y1="30" x2="195" y2="190" fill="none" stroke="#202020" stroke-width="0.5"/><line x1="215" y1="30" x2="215" y2="190" fill="none" stroke="#202020" stroke-width="0.5"/><line x1="225" y1="30" x2="225" y2="190" fill="none" stroke="#202020" stroke-width="0.5"/><line x1="235" y1="30" x2="235" y2="190" fill="none" stroke="#202020" stroke-width="0.5"/><line x1="245" y1="30" x2="245" y2="190" fill="none" stroke="#202020" stroke-width="0.5"/><line x1="255" y1="30" x2="255" y2="190" fill="none" stroke="#202020" stroke-width="0.5"/><line x1="265" y1="30" x2="265" y2="190" fill="none" stroke="#202020" stroke-width="0.5"/><line x1="275" y1="30" x2="275" y2="190" fill="none" stroke="#202020" stroke-width="0.5"/><line x1="285" y1="30" x2="285" y2="190" fill="none" stroke="#202020" stroke-width="0.5"/><line x1="295" y1="30" x2="295" y2="190" fill="none" stroke="#202020" stroke-width="0.5"/><line x1="305" y1="30" x2="305" y2="190" fill="none" stroke="#202020" stroke-width="0.5"/><line x1="315" y1="30" x2="315" y2="190" fill="none" stroke="#202020" stroke-width="0.5"/><line x1="325" y1="30" x2="325" y2="190" fill="none" stroke="#202020" stroke-width="0.5"/><line x1="335" y1="30" x2="335" y2="190" fill="none" stroke="#202020" stroke-width="0.5"/><line x1="345" y1="30" x2="345" y2="190" fill="none" stroke="#202020" stroke-width="0.5"/><line x1="355" y1="30" x2="355" y2="190" fill="none" stroke="#202020" stroke-width="0.5"/><line x1="365" y1="30" x2="365" y2="190" fill="none" stroke="#202020" stroke-width="0.5"/><line x1="185" y1="30" x2="185" y2="190" fill="none" stroke="#202020" stroke-width="0.5"/><line x1="45" y1="220" x2="45" y2="380" fill="none" stroke="#202020" stroke-width="0.5"/><line x1="35" y1="220" x2="35" y2="380" fill="none" stroke="#202020" stroke-width="0.5"/><line x1="55" y1="220" x2="55" y2="380" fill="none" stroke="#202020" stroke-width="0.5"/><line x1="65" y1="220" x2="65" y2="380" fill="none" stroke="#202020" stroke-width="0.5"/><line x1="75" y1="220" x2="75" y2="380" fill="none" stroke="#202020" stroke-width="0.5"/><line x1="85" y1="220" x2="85" y2="380" fill="none" stroke="#202020" stroke-width="0.5"/><line x1="95" y1="220" x2="95" y2="380" fill="none" stroke="#202020" stroke-width="0.5"/><line x1="105" y1="220" x2="105" y2="380" fill="none" stroke="#202020" stroke-width="0.5"/><line x1="115" y1="220" x2="115" y2="380" fill="none" stroke="#202020" stroke-width="0.5"/><line x1="125" y1="220" x2="125" y2="380" fill="none" stroke="#202020" stroke-width="0.5"/><line x1="135" y1="220" x2="135" y2="380" fill="none" stroke="#202020" stroke-width="0.5"/><line x1="145" y1="220" x2="145" y2="380" fill="none" stroke="#202020" stroke-width="0.5"/><line x1="155" y1="220" x2="155" y2="380" fill="none" stroke="#202020" stroke-width="0.5"/><line x1="165" y1="220" x2="165" y2="380" fill="none" stroke="#202020" stroke-width="0.5"/><line x1="175" y1="220" x2="175" y2="380" fill="none" stroke="#202020" stroke-width="0.5"/><line x1="14.99998" y1="269.99897" x2="374.99995" y2="269.99897" fill="none" stroke="#202020" stroke-width="0.5"/><line x1="14.99998" y1="279.99974" x2="374.99995" y2="279.99974" fill="none" stroke="#202020" stroke-width="0.5"/><line x1="14.99998" y1="259.99897" x2="374.99995" y2="259.99897" fill="none" stroke="#202020" stroke-width="0.5"/><line x1="14.99998" y1="249.99897" x2="374.99995" y2="249.99897" fill="none" stroke="#202020" stroke-width="0.5"/><line x1="14.99998" y1="239.99897" x2="374.99995" y2="239.99897" fill="none" stroke="#202020" stroke-width="0.5"/><line x1="14.99998" y1="230" x2="374.99995" y2="230" fill="none" stroke="#202020" stroke-width="0.5"/><line x1="14.99998" y1="339.99983" x2="374.99995" y2="339.99983" fill="none" stroke="#202020" stroke-width="0.5"/><line x1="14.99998" y1="350.0006" x2="374.99995" y2="350.0006" fill="none" stroke="#202020" stroke-width="0.5"/><line x1="14.99998" y1="359.99983" x2="374.99995" y2="359.99983" fill="none" stroke="#202020" stroke-width="0.5"/><line x1="14.99998" y1="369.99983" x2="374.99995" y2="369.99983" fill="none" stroke="#202020" stroke-width="0.5"/><line x1="14.99998" y1="329.99983" x2="374.99995" y2="329.99983" fill="none" stroke="#202020" stroke-width="0.5"/><line x1="14.99998" y1="319.99983" x2="374.99995" y2="319.99983" fill="none" stroke="#202020" stroke-width="0.5"/><line x1="14.99998" y1="309.99983" x2="374.99995" y2="309.99983" fill="none" stroke="#202020" stroke-width="0.5"/><line x1="14.99998" y1="299.99983" x2="374.99995" y2="299.99983" fill="none" stroke="#202020" stroke-width="0.5"/><line x1="14.99998" y1="289.99983" x2="374.99995" y2="289.99983" fill="none" stroke="#202020" stroke-width="0.5"/><line x1="25" y1="220" x2="25" y2="380" fill="none" stroke="#202020" stroke-width="0.5"/><line x1="205" y1="220" x2="205" y2="380" fill="none" stroke="#202020" stroke-width="0.5"/><line x1="195" y1="220" x2="195" y2="380" fill="none" stroke="#202020" stroke-width="0.5"/><line x1="215" y1="220" x2="215" y2="380" fill="none" stroke="#202020" stroke-width="0.5"/><line x1="225" y1="220" x2="225" y2="380" fill="none" stroke="#202020" stroke-width="0.5"/><line x1="235" y1="220" x2="235" y2="380" fill="none" stroke="#202020" stroke-width="0.5"/><line x1="245" y1="220" x2="245" y2="380" fill="none" stroke="#202020" stroke-width="0.5"/><line x1="255" y1="220" x2="255" y2="380" fill="none" stroke="#202020" stroke-width="0.5"/><line x1="265" y1="220" x2="265" y2="380" fill="none" stroke="#202020" stroke-width="0.5"/><line x1="275" y1="220" x2="275" y2="380" fill="none" stroke="#202020" stroke-width="0.5"/><line x1="285" y1="220" x2="285" y2="380" fill="none" stroke="#202020" stroke-width="0.5"/><line x1="295" y1="220" x2="295" y2="380" fill="none" stroke="#202020" stroke-width="0.5"/><line x1="305" y1="220" x2="305" y2="380" fill="none" stroke="#202020" stroke-width="0.5"/><line x1="315" y1="220" x2="315" y2="380" fill="none" stroke="#202020" stroke-width="0.5"/><line x1="325" y1="220" x2="325" y2="380" fill="none" stroke="#202020" stroke-width="0.5"/><line x1="335" y1="220" x2="335" y2="380" fill="none" stroke="#202020" stroke-width="0.5"/><line x1="345" y1="220" x2="345" y2="380" fill="none" stroke="#202020" stroke-width="0.5"/><line x1="355" y1="220" x2="355" y2="380" fill="none" stroke="#202020" stroke-width="0.5"/><line x1="365" y1="220" x2="365" y2="380" fill="none" stroke="#202020" stroke-width="0.5"/><line x1="185" y1="220" x2="185" y2="380" fill="none" stroke="#202020" stroke-width="0.5"/><path d="M45.63184,69.43408c0-1.71142.61621-2.63086,1.63964-2.63086,1.01563,0,1.63086.91944,1.63086,2.63086,0,1.71094-.61523,2.66211-1.63086,2.66211C46.24805,72.09619,45.63184,71.145,45.63184,69.43408Zm2.63086,0c0-1.49512-.39942-2.103-.99122-2.103-.5996,0-1,.60791-1,2.103s.4004,2.13477,1,2.13477C47.86328,71.56885,48.2627,70.9292,48.2627,69.43408Z" fill="#979797"/><path d="M51.23242,70.06543A1.84026,1.84026,0,0,1,52.919,68.01855a1.6014,1.6014,0,0,1,1.08789.44776l-.03223-.66358V66.30762h.66406v5.69287h-.54394l-.05567-.45557h-.02441a1.75433,1.75433,0,0,1-1.17481.55127C51.86426,72.09619,51.23242,71.36084,51.23242,70.06543Zm2.74219.94385V68.978a1.35144,1.35144,0,0,0-.94336-.40772c-.624,0-1.11914.59961-1.11914,1.48731,0,.92724.3916,1.4873,1.07129,1.4873A1.31591,1.31591,0,0,0,53.97461,71.00928Z" fill="#979797"/><path d="M56.01562,66.75537h1.5586c1.06348,0,1.7998.35986,1.7998,1.2793a1.14871,1.14871,0,0,1-.76757,1.14355V69.21a1.20723,1.20723,0,0,1,1.07128,1.25537c0,1.03125-.81543,1.53516-1.99121,1.53516h-1.6709Zm1.43946,2.231c.89551,0,1.26269-.32813,1.26269-.86377,0-.60742-.415-.83936-1.23144-.83936h-.80762v1.70313Zm.13574,2.48633c.90332,0,1.43066-.32764,1.43066-1.03125,0-.648-.51171-.94336-1.43066-.94336h-.91211v1.97461Z" fill="#979797"/><path d="M37.792,89.76172h3.18164v.45557H37.792Z" fill="#979797"/><path d="M41.62305,91.60889c1.53515-1.52735,2.39941-2.44678,2.39941-3.27051a.90391.90391,0,0,0-.96777-.99951,1.50265,1.50265,0,0,0-1.08692.61572l-.376-.37549a2.00132,2.00132,0,0,1,1.543-.77588,1.41712,1.41712,0,0,1,1.52734,1.50342c0,.95947-.87207,1.91065-2.0791,3.17432.28027-.02442.59179-.04834.85547-.04834H44.918v.56787H41.62305Z" fill="#979797"/><path d="M45.63086,89.43408c0-1.71142.61621-2.63086,1.63965-2.63086,1.01465,0,1.63086.91944,1.63086,2.63086,0,1.71094-.61621,2.66211-1.63086,2.66211C46.24707,92.09619,45.63086,91.145,45.63086,89.43408Zm2.63086,0c0-1.49512-.39942-2.103-.99121-2.103-.59961,0-1,.60791-1,2.103s.40039,2.13477,1,2.13477C47.8623,91.56885,48.26172,90.9292,48.26172,89.43408Z" fill="#979797"/><path d="M51.23145,90.06543A1.84025,1.84025,0,0,1,52.918,88.01855a1.6014,1.6014,0,0,1,1.08789.44776l-.03223-.66358V86.30762h.66407v5.69287h-.544l-.05566-.45557h-.02442a1.75458,1.75458,0,0,1-1.17578.55127C51.86328,92.09619,51.23145,91.36084,51.23145,90.06543Zm2.74218.94385V88.978a1.35307,1.35307,0,0,0-.94336-.40772c-.624,0-1.11914.59961-1.11914,1.48731,0,.92724.3916,1.4873,1.07129,1.4873A1.31588,1.31588,0,0,0,53.97363,91.00928Z" fill="#979797"/><path d="M56.01562,86.75537h1.5586c1.06348,0,1.7998.35986,1.7998,1.2793a1.14871,1.14871,0,0,1-.76757,1.14355V89.21a1.20723,1.20723,0,0,1,1.07128,1.25537c0,1.03125-.81543,1.53516-1.99121,1.53516h-1.6709Zm1.43946,2.231c.89551,0,1.26269-.32813,1.26269-.86377,0-.60742-.415-.83936-1.23144-.83936h-.80762v1.70313Zm.13574,2.48633c.90332,0,1.43066-.32764,1.43066-1.03125,0-.648-.51171-.94336-1.43066-.94336h-.91211v1.97461Z" fill="#979797"/><path d="M120.38965,85.09131h1.24023V81.09668h-.98535v-.4502a3.23821,3.23821,0,0,0,1.14746-.39941h.53516v4.84424h1.12207v.57812h-3.05957Z" fill="#979797"/><path d="M124.49512,85.24463a.50674.50674,0,1,1,1.01074,0,.50581.50581,0,1,1-1.01074,0Z" fill="#979797"/><path d="M126.43262,82.94141c0-1.81885.65429-2.79639,1.74218-2.79639,1.07911,0,1.73438.97754,1.73438,2.79639s-.65527,2.83007-1.73438,2.83007C127.08691,85.77148,126.43262,84.76025,126.43262,82.94141Zm2.7959,0c0-1.58936-.42481-2.23536-1.05372-2.23536-.63769,0-1.0625.646-1.0625,2.23536s.42481,2.269,1.0625,2.269C128.80371,85.21045,129.22852,84.53076,129.22852,82.94141Z" fill="#979797"/><path d="M170.05762,85.25293c1.63183-1.62354,2.5498-2.60059,2.5498-3.47607a.96029.96029,0,0,0-1.02832-1.0625,1.59972,1.59972,0,0,0-1.15625.65429l-.39941-.39941a2.13133,2.13133,0,0,1,1.64062-.82422,1.5057,1.5057,0,0,1,1.62305,1.59766c0,1.02-.92578,2.03125-2.209,3.37451.29688-.02588.62891-.05127.90918-.05127h1.57227v.60351h-3.502Z" fill="#979797"/><path d="M174.49512,85.24463a.50674.50674,0,1,1,1.01074,0,.50581.50581,0,1,1-1.01074,0Z" fill="#979797"/><path d="M176.43262,82.94141c0-1.81885.65429-2.79639,1.74218-2.79639,1.07911,0,1.73438.97754,1.73438,2.79639s-.65527,2.83007-1.73438,2.83007C177.08691,85.77148,176.43262,84.76025,176.43262,82.94141Zm2.7959,0c0-1.58936-.42481-2.23536-1.05372-2.23536-.63769,0-1.0625.646-1.0625,2.23536s.42481,2.269,1.0625,2.269C178.80371,85.21045,179.22852,84.53076,179.22852,82.94141Z" fill="#979797"/><path d="M219.93848,85.00635l.35742-.459a1.84009,1.84009,0,0,0,1.38476.646,1.01027,1.01027,0,0,0,1.12207-.99414c0-.646-.4414-1.07959-1.73339-1.07959v-.53516c1.15527,0,1.53808-.44238,1.53808-1.01172a.83427.83427,0,0,0-.93457-.85839,1.64336,1.64336,0,0,0-1.15625.55273l-.374-.44238a2.23534,2.23534,0,0,1,1.55566-.67969c.94336,0,1.62305.50146,1.62305,1.37695a1.34452,1.34452,0,0,1-.98535,1.292v.0337a1.39917,1.39917,0,0,1,1.17285,1.37695,1.60756,1.60756,0,0,1-1.78516,1.54687A2.3057,2.3057,0,0,1,219.93848,85.00635Z" fill="#979797"/><path d="M224.49512,85.24463a.50674.50674,0,1,1,1.01074,0,.50581.50581,0,1,1-1.01074,0Z" fill="#979797"/><path d="M226.43262,82.94141c0-1.81885.65429-2.79639,1.74218-2.79639,1.07911,0,1.73438.97754,1.73438,2.79639s-.65527,2.83007-1.73438,2.83007C227.08691,85.77148,226.43262,84.76025,226.43262,82.94141Zm2.7959,0c0-1.58936-.42481-2.23536-1.05372-2.23536-.63769,0-1.0625.646-1.0625,2.23536s.42481,2.269,1.0625,2.269C228.80371,85.21045,229.22852,84.53076,229.22852,82.94141Z" fill="#979797"/><path d="M272.29883,84.17334h-2.43945v-.4585l2.32031-3.46777h.78222v3.36572h.73926v.56055h-.73926v1.49609h-.66308Zm0-.56055V82.04053c0-.28907.02539-.75684.042-1.04541h-.03418c-.13574.26318-.28809.50146-.44141.76465l-1.2666,1.853Z" fill="#979797"/><path d="M274.49219,85.24463a.50674.50674,0,1,1,1.01074,0,.50581.50581,0,1,1-1.01074,0Z" fill="#979797"/><path d="M276.42969,82.94141c0-1.81885.65429-2.79639,1.74219-2.79639,1.0791,0,1.73437.97754,1.73437,2.79639s-.65527,2.83007-1.73437,2.83007C277.084,85.77148,276.42969,84.76025,276.42969,82.94141Zm2.7959,0c0-1.58936-.42481-2.23536-1.05371-2.23536-.6377,0-1.0625.646-1.0625,2.23536s.4248,2.269,1.0625,2.269C278.80078,85.21045,279.22559,84.53076,279.22559,82.94141Z" fill="#979797"/><path d="M319.92773,85.03223l.33985-.459a1.84306,1.84306,0,0,0,1.36816.62012,1.16962,1.16962,0,0,0,1.18946-1.24072,1.08938,1.08938,0,0,0-1.15528-1.18994,1.52781,1.52781,0,0,0-.92676.33154l-.374-.23779.17871-2.60938h2.71094v.60352h-2.09863l-.14454,1.606a1.66512,1.66512,0,0,1,.832-.2207,1.56132,1.56132,0,0,1,1.68359,1.69971,1.773,1.773,0,0,1-1.82715,1.83593A2.37834,2.37834,0,0,1,319.92773,85.03223Z" fill="#979797"/><path d="M324.49219,85.24463a.50674.50674,0,1,1,1.01074,0,.50581.50581,0,1,1-1.01074,0Z" fill="#979797"/><path d="M326.42969,82.94141c0-1.81885.65429-2.79639,1.74219-2.79639,1.0791,0,1.73437.97754,1.73437,2.79639s-.65527,2.83007-1.73437,2.83007C327.084,85.77148,326.42969,84.76025,326.42969,82.94141Zm2.7959,0c0-1.58936-.42481-2.23536-1.05371-2.23536-.6377,0-1.0625.646-1.0625,2.23536s.4248,2.269,1.0625,2.269C328.80078,85.21045,329.22559,84.53076,329.22559,82.94141Z" fill="#979797"/><path d="M37.792,109.76172h3.18164v.45557H37.792Z" fill="#979797"/><path d="M43.73438,110.59326H41.43945v-.43164l2.18262-3.26221h.73633v3.166h.69531v.52783H44.3584v1.40723h-.624Zm0-.52783v-1.479c0-.272.02441-.71192.04-.9834h-.03222c-.12793.24756-.27149.47168-.416.71972l-1.1914,1.74268Z" fill="#979797"/><path d="M45.63086,109.43408c0-1.71142.61621-2.63086,1.63965-2.63086,1.01465,0,1.63086.91944,1.63086,2.63086,0,1.71094-.61621,2.66211-1.63086,2.66211C46.24707,112.09619,45.63086,111.145,45.63086,109.43408Zm2.63086,0c0-1.49512-.39942-2.103-.99121-2.103-.59961,0-1,.60791-1,2.103s.40039,2.13477,1,2.13477C47.8623,111.56885,48.26172,110.9292,48.26172,109.43408Z" fill="#979797"/><path d="M51.23145,110.06543a1.84025,1.84025,0,0,1,1.68652-2.04688,1.6014,1.6014,0,0,1,1.08789.44776l-.03223-.66358v-1.49511h.66407v5.69287h-.544l-.05566-.45557h-.02442a1.75458,1.75458,0,0,1-1.17578.55127C51.86328,112.09619,51.23145,111.36084,51.23145,110.06543Zm2.74218.94385V108.978a1.35307,1.35307,0,0,0-.94336-.40772c-.624,0-1.11914.59961-1.11914,1.48731,0,.92724.3916,1.4873,1.07129,1.4873A1.31588,1.31588,0,0,0,53.97363,111.00928Z" fill="#979797"/><path d="M56.01562,106.75537h1.5586c1.06348,0,1.7998.35986,1.7998,1.2793a1.14871,1.14871,0,0,1-.76757,1.14355V109.21a1.20723,1.20723,0,0,1,1.07128,1.25537c0,1.03125-.81543,1.53516-1.99121,1.53516h-1.6709Zm1.43946,2.231c.89551,0,1.26269-.32813,1.26269-.86377,0-.60742-.415-.83936-1.23144-.83936h-.80762v1.70313Zm.13574,2.48633c.90332,0,1.43066-.32764,1.43066-1.03125,0-.648-.51171-.94336-1.43066-.94336h-.91211v1.97461Z" fill="#979797"/><path d="M37.792,129.76172h3.18164v.45557H37.792Z" fill="#979797"/><path d="M41.6875,129.6416c0-2.04687.92773-2.83838,1.94336-2.83838a1.6069,1.6069,0,0,1,1.23047.544l-.36719.40771a1.1105,1.1105,0,0,0-.83984-.3999c-.71192,0-1.31153.55176-1.34278,2.167a1.62715,1.62715,0,0,1,1.19141-.63965,1.38164,1.38164,0,0,1,1.45508,1.5752,1.54272,1.54272,0,0,1-1.51172,1.63867C42.44727,132.09619,41.6875,131.28076,41.6875,129.6416Zm2.64648.81592c0-.66406-.31152-1.07959-.94336-1.07959a1.35756,1.35756,0,0,0-1.06347.67139c.08008.9917.47168,1.52734,1.11914,1.52734C43.9502,131.57666,44.334,131.12891,44.334,130.45752Z" fill="#979797"/><path d="M45.63086,129.43408c0-1.71142.61621-2.63086,1.63965-2.63086,1.01465,0,1.63086.91944,1.63086,2.63086,0,1.71094-.61621,2.66211-1.63086,2.66211C46.24707,132.09619,45.63086,131.145,45.63086,129.43408Zm2.63086,0c0-1.49512-.39942-2.103-.99121-2.103-.59961,0-1,.60791-1,2.103s.40039,2.13477,1,2.13477C47.8623,131.56885,48.26172,130.9292,48.26172,129.43408Z" fill="#979797"/><path d="M51.23145,130.06543a1.84025,1.84025,0,0,1,1.68652-2.04688,1.6014,1.6014,0,0,1,1.08789.44776l-.03223-.66358v-1.49511h.66407v5.69287h-.544l-.05566-.45557h-.02442a1.75458,1.75458,0,0,1-1.17578.55127C51.86328,132.09619,51.23145,131.36084,51.23145,130.06543Zm2.74218.94385V128.978a1.35307,1.35307,0,0,0-.94336-.40772c-.624,0-1.11914.59961-1.11914,1.48731,0,.92724.3916,1.4873,1.07129,1.4873A1.31588,1.31588,0,0,0,53.97363,131.00928Z" fill="#979797"/><path d="M56.01562,126.75537h1.5586c1.06348,0,1.7998.35986,1.7998,1.2793a1.14871,1.14871,0,0,1-.76757,1.14355V129.21a1.20723,1.20723,0,0,1,1.07128,1.25537c0,1.03125-.81543,1.53516-1.99121,1.53516h-1.6709Zm1.43946,2.231c.89551,0,1.26269-.32813,1.26269-.86377,0-.60742-.415-.83936-1.23144-.83936h-.80762v1.70313Zm.13574,2.48633c.90332,0,1.43066-.32764,1.43066-1.03125,0-.64795-.51171-.94336-1.43066-.94336h-.91211v1.97461Z" fill="#979797"/><path d="M37.792,149.76172h3.18164v.45557H37.792Z" fill="#979797"/><path d="M41.63184,150.69727a1.61245,1.61245,0,0,1,.959-1.37549V149.29a1.44775,1.44775,0,0,1-.71191-1.17529,1.44793,1.44793,0,0,1,2.88671.04785,1.68129,1.68129,0,0,1-.70312,1.23144v.03174a1.39455,1.39455,0,0,1-.75977,2.67041A1.50792,1.50792,0,0,1,41.63184,150.69727Zm2.68652.01611c0-.65576-.64844-.89551-1.38379-1.19141a1.38128,1.38128,0,0,0-.71094,1.11133,1.01114,1.01114,0,0,0,1.09473.97559A.909.909,0,0,0,44.31836,150.71338Zm-.12012-2.51856a.852.852,0,0,0-.88769-.9038.7889.7889,0,0,0-.82325.82373c0,.60742.55958.86328,1.17481,1.10351A1.37668,1.37668,0,0,0,44.19824,148.19482Z" fill="#979797"/><path d="M45.63086,149.43408c0-1.71142.61621-2.63086,1.63965-2.63086,1.01465,0,1.63086.91944,1.63086,2.63086,0,1.71094-.61621,2.66211-1.63086,2.66211C46.24707,152.09619,45.63086,151.145,45.63086,149.43408Zm2.63086,0c0-1.49512-.39942-2.103-.99121-2.103-.59961,0-1,.60791-1,2.103s.40039,2.13477,1,2.13477C47.8623,151.56885,48.26172,150.9292,48.26172,149.43408Z" fill="#979797"/><path d="M51.23145,150.06543a1.84025,1.84025,0,0,1,1.68652-2.04688,1.6014,1.6014,0,0,1,1.08789.44776l-.03223-.66358v-1.49511h.66407v5.69287h-.544l-.05566-.45557h-.02442a1.75458,1.75458,0,0,1-1.17578.55127C51.86328,152.09619,51.23145,151.36084,51.23145,150.06543Zm2.74218.94385V148.978a1.35307,1.35307,0,0,0-.94336-.40772c-.624,0-1.11914.59961-1.11914,1.48731,0,.92724.3916,1.4873,1.07129,1.4873A1.31588,1.31588,0,0,0,53.97363,151.00928Z" fill="#979797"/><path d="M56.01562,146.75537h1.5586c1.06348,0,1.7998.35986,1.7998,1.2793a1.14871,1.14871,0,0,1-.76757,1.14355V149.21a1.20723,1.20723,0,0,1,1.07128,1.25537c0,1.03125-.81543,1.53516-1.99121,1.53516h-1.6709Zm1.43946,2.231c.89551,0,1.26269-.32813,1.26269-.86377,0-.60742-.415-.83936-1.23144-.83936h-.80762v1.70313Zm.13574,2.48633c.90332,0,1.43066-.32764,1.43066-1.03125,0-.64795-.51171-.94336-1.43066-.94336h-.91211v1.97461Z" fill="#979797"/><path d="M45.63184,259.43457c0-1.71143.61621-2.63086,1.63964-2.63086,1.01563,0,1.63086.91943,1.63086,2.63086,0,1.71094-.61523,2.66211-1.63086,2.66211C46.24805,262.09668,45.63184,261.14551,45.63184,259.43457Zm2.63086,0c0-1.49512-.39942-2.103-.99122-2.103-.5996,0-1,.60791-1,2.103s.4004,2.13477,1,2.13477C47.86328,261.56934,48.2627,260.92969,48.2627,259.43457Z" fill="#979797"/><path d="M51.23242,260.06592A1.84025,1.84025,0,0,1,52.919,258.019a1.6014,1.6014,0,0,1,1.08789.44776l-.03223-.66358v-1.49511h.66406V262.001h-.54394l-.05567-.45557h-.02441a1.75433,1.75433,0,0,1-1.17481.55127C51.86426,262.09668,51.23242,261.36133,51.23242,260.06592Zm2.74219.94385v-2.03125a1.35144,1.35144,0,0,0-.94336-.40772c-.624,0-1.11914.59961-1.11914,1.48731,0,.92724.3916,1.4873,1.07129,1.4873A1.31591,1.31591,0,0,0,53.97461,261.00977Z" fill="#979797"/><path d="M56.01562,256.75586h1.5586c1.06348,0,1.7998.35986,1.7998,1.2793a1.14872,1.14872,0,0,1-.76757,1.14355v.03174a1.20722,1.20722,0,0,1,1.07128,1.25537c0,1.03125-.81543,1.53516-1.99121,1.53516h-1.6709Zm1.43946,2.231c.89551,0,1.26269-.32813,1.26269-.86377,0-.60743-.415-.83936-1.23144-.83936h-.80762v1.70313Zm.13574,2.48632c.90332,0,1.43066-.32763,1.43066-1.03125,0-.64794-.51171-.94335-1.43066-.94335h-.91211v1.9746Z" fill="#979797"/><path d="M37.792,279.76221h3.18164v.45556H37.792Z" fill="#979797"/><path d="M41.62305,281.60938c1.53515-1.52735,2.39941-2.44678,2.39941-3.27051a.90391.90391,0,0,0-.96777-.99951,1.50265,1.50265,0,0,0-1.08692.61572l-.376-.37549a2.00132,2.00132,0,0,1,1.543-.77588,1.41712,1.41712,0,0,1,1.52734,1.50342c0,.95947-.87207,1.91064-2.0791,3.17432.28027-.02442.59179-.04834.85547-.04834H44.918v.56787H41.62305Z" fill="#979797"/><path d="M45.63086,279.43457c0-1.71143.61621-2.63086,1.63965-2.63086,1.01465,0,1.63086.91943,1.63086,2.63086,0,1.71094-.61621,2.66211-1.63086,2.66211C46.24707,282.09668,45.63086,281.14551,45.63086,279.43457Zm2.63086,0c0-1.49512-.39942-2.103-.99121-2.103-.59961,0-1,.60791-1,2.103s.40039,2.13477,1,2.13477C47.8623,281.56934,48.26172,280.92969,48.26172,279.43457Z" fill="#979797"/><path d="M51.23145,280.06592A1.84025,1.84025,0,0,1,52.918,278.019a1.6014,1.6014,0,0,1,1.08789.44776l-.03223-.66358v-1.49511h.66407V282.001h-.544l-.05566-.45557h-.02442a1.75458,1.75458,0,0,1-1.17578.55127C51.86328,282.09668,51.23145,281.36133,51.23145,280.06592Zm2.74218.94385v-2.03125a1.35307,1.35307,0,0,0-.94336-.40772c-.624,0-1.11914.59961-1.11914,1.48731,0,.92724.3916,1.4873,1.07129,1.4873A1.31588,1.31588,0,0,0,53.97363,281.00977Z" fill="#979797"/><path d="M56.01562,276.75586h1.5586c1.06348,0,1.7998.35986,1.7998,1.2793a1.14872,1.14872,0,0,1-.76757,1.14355v.03174a1.20722,1.20722,0,0,1,1.07128,1.25537c0,1.03125-.81543,1.53516-1.99121,1.53516h-1.6709Zm1.43946,2.231c.89551,0,1.26269-.32813,1.26269-.86377,0-.60743-.415-.83936-1.23144-.83936h-.80762v1.70313Zm.13574,2.48632c.90332,0,1.43066-.32763,1.43066-1.03125,0-.64794-.51171-.94335-1.43066-.94335h-.91211v1.9746Z" fill="#979797"/><path d="M37.792,299.76221h3.18164v.45556H37.792Z" fill="#979797"/><path d="M43.73438,300.59375H41.43945v-.43164l2.18262-3.26221h.73633v3.166h.69531v.52783H44.3584V302.001h-.624Zm0-.52783v-1.479c0-.272.02441-.71191.04-.98339h-.03222c-.12793.24755-.27149.47168-.416.71972l-1.1914,1.74268Z" fill="#979797"/><path d="M45.63086,299.43457c0-1.71143.61621-2.63086,1.63965-2.63086,1.01465,0,1.63086.91943,1.63086,2.63086,0,1.71094-.61621,2.66211-1.63086,2.66211C46.24707,302.09668,45.63086,301.14551,45.63086,299.43457Zm2.63086,0c0-1.49512-.39942-2.103-.99121-2.103-.59961,0-1,.60791-1,2.103s.40039,2.13477,1,2.13477C47.8623,301.56934,48.26172,300.92969,48.26172,299.43457Z" fill="#979797"/><path d="M51.23145,300.06592A1.84025,1.84025,0,0,1,52.918,298.019a1.6014,1.6014,0,0,1,1.08789.44776l-.03223-.66358v-1.49511h.66407V302.001h-.544l-.05566-.45557h-.02442a1.75458,1.75458,0,0,1-1.17578.55127C51.86328,302.09668,51.23145,301.36133,51.23145,300.06592Zm2.74218.94385v-2.03125a1.35307,1.35307,0,0,0-.94336-.40772c-.624,0-1.11914.59961-1.11914,1.48731,0,.92724.3916,1.4873,1.07129,1.4873A1.31588,1.31588,0,0,0,53.97363,301.00977Z" fill="#979797"/><path d="M56.01562,296.75586h1.5586c1.06348,0,1.7998.35986,1.7998,1.2793a1.14872,1.14872,0,0,1-.76757,1.14355v.03174a1.20722,1.20722,0,0,1,1.07128,1.25537c0,1.03125-.81543,1.53516-1.99121,1.53516h-1.6709Zm1.43946,2.231c.89551,0,1.26269-.32813,1.26269-.86377,0-.60743-.415-.83936-1.23144-.83936h-.80762v1.70313Zm.13574,2.48632c.90332,0,1.43066-.32763,1.43066-1.03125,0-.64794-.51171-.94335-1.43066-.94335h-.91211v1.9746Z" fill="#979797"/><path d="M37.792,319.76221h3.18164v.45556H37.792Z" fill="#979797"/><path d="M41.6875,319.64209c0-2.04688.92773-2.83838,1.94336-2.83838a1.60687,1.60687,0,0,1,1.23047.54395l-.36719.40771a1.11046,1.11046,0,0,0-.83984-.3999c-.71192,0-1.31153.55176-1.34278,2.167a1.62715,1.62715,0,0,1,1.19141-.63965A1.38164,1.38164,0,0,1,44.958,320.458a1.54272,1.54272,0,0,1-1.51172,1.63867C42.44727,322.09668,41.6875,321.28125,41.6875,319.64209Zm2.64648.81592c0-.66406-.31152-1.07959-.94336-1.07959a1.35755,1.35755,0,0,0-1.06347.67138c.08008.9917.47168,1.52735,1.11914,1.52735C43.9502,321.57715,44.334,321.12939,44.334,320.458Z" fill="#979797"/><path d="M45.63086,319.43457c0-1.71143.61621-2.63086,1.63965-2.63086,1.01465,0,1.63086.91943,1.63086,2.63086,0,1.71094-.61621,2.66211-1.63086,2.66211C46.24707,322.09668,45.63086,321.14551,45.63086,319.43457Zm2.63086,0c0-1.49512-.39942-2.103-.99121-2.103-.59961,0-1,.60791-1,2.103s.40039,2.13477,1,2.13477C47.8623,321.56934,48.26172,320.92969,48.26172,319.43457Z" fill="#979797"/><path d="M51.23145,320.06592A1.84025,1.84025,0,0,1,52.918,318.019a1.6014,1.6014,0,0,1,1.08789.44776l-.03223-.66358v-1.49511h.66407V322.001h-.544l-.05566-.45557h-.02442a1.75458,1.75458,0,0,1-1.17578.55127C51.86328,322.09668,51.23145,321.36133,51.23145,320.06592Zm2.74218.94385v-2.03125a1.35307,1.35307,0,0,0-.94336-.40772c-.624,0-1.11914.59961-1.11914,1.48731,0,.92724.3916,1.4873,1.07129,1.4873A1.31588,1.31588,0,0,0,53.97363,321.00977Z" fill="#979797"/><path d="M56.01562,316.75586h1.5586c1.06348,0,1.7998.35986,1.7998,1.2793a1.14872,1.14872,0,0,1-.76757,1.14355v.03174a1.20722,1.20722,0,0,1,1.07128,1.25537c0,1.03125-.81543,1.53516-1.99121,1.53516h-1.6709Zm1.43946,2.231c.89551,0,1.26269-.32813,1.26269-.86377,0-.60743-.415-.83936-1.23144-.83936h-.80762v1.70313Zm.13574,2.48632c.90332,0,1.43066-.32763,1.43066-1.03125,0-.64794-.51171-.94335-1.43066-.94335h-.91211v1.9746Z" fill="#979797"/><path d="M37.792,339.76221h3.18164v.45556H37.792Z" fill="#979797"/><path d="M41.63184,340.69775a1.61244,1.61244,0,0,1,.959-1.37548v-.03174a1.44776,1.44776,0,0,1-.71191-1.1753,1.44793,1.44793,0,0,1,2.88671.04786,1.68129,1.68129,0,0,1-.70312,1.23144v.03174a1.39455,1.39455,0,0,1-.75977,2.67041A1.50792,1.50792,0,0,1,41.63184,340.69775Zm2.68652.01612c0-.65576-.64844-.89551-1.38379-1.19141a1.38128,1.38128,0,0,0-.71094,1.11133,1.01114,1.01114,0,0,0,1.09473.97559A.909.909,0,0,0,44.31836,340.71387Zm-.12012-2.51856a.852.852,0,0,0-.88769-.90381.7889.7889,0,0,0-.82325.82373c0,.60743.55958.86329,1.17481,1.10352A1.37668,1.37668,0,0,0,44.19824,338.19531Z" fill="#979797"/><path d="M45.63086,339.43457c0-1.71143.61621-2.63086,1.63965-2.63086,1.01465,0,1.63086.91943,1.63086,2.63086,0,1.71094-.61621,2.66211-1.63086,2.66211C46.24707,342.09668,45.63086,341.14551,45.63086,339.43457Zm2.63086,0c0-1.49512-.39942-2.103-.99121-2.103-.59961,0-1,.60791-1,2.103s.40039,2.13477,1,2.13477C47.8623,341.56934,48.26172,340.92969,48.26172,339.43457Z" fill="#979797"/><path d="M51.23145,340.06592A1.84025,1.84025,0,0,1,52.918,338.019a1.6014,1.6014,0,0,1,1.08789.44776l-.03223-.66358v-1.49511h.66407V342.001h-.544l-.05566-.45557h-.02442a1.75458,1.75458,0,0,1-1.17578.55127C51.86328,342.09668,51.23145,341.36133,51.23145,340.06592Zm2.74218.94385v-2.03125a1.35307,1.35307,0,0,0-.94336-.40772c-.624,0-1.11914.59961-1.11914,1.48731,0,.92724.3916,1.4873,1.07129,1.4873A1.31588,1.31588,0,0,0,53.97363,341.00977Z" fill="#979797"/><path d="M56.01562,336.75586h1.5586c1.06348,0,1.7998.35986,1.7998,1.2793a1.14872,1.14872,0,0,1-.76757,1.14355v.03174a1.20722,1.20722,0,0,1,1.07128,1.25537c0,1.03125-.81543,1.53516-1.99121,1.53516h-1.6709Zm1.43946,2.231c.89551,0,1.26269-.32813,1.26269-.86377,0-.60743-.415-.83936-1.23144-.83936h-.80762v1.70313Zm.13574,2.48632c.90332,0,1.43066-.32763,1.43066-1.03125,0-.64794-.51171-.94335-1.43066-.94335h-.91211v1.9746Z" fill="#979797"/><path d="M26.05762,39.4248h.85058l1.07032,2.97461c.13574.38233.26367.78174.39941,1.16407h.03418c.13574-.38233.24609-.78174.38281-1.16407l1.05371-2.97461h.8584V45H30.044V41.93164c0-.49268.05957-1.15576.09375-1.64844h-.03418l-.44239,1.26612L28.60742,44.439h-.4668l-1.05468-2.88964-.44141-1.26612h-.03418c.03418.49268.085,1.15576.085,1.64844V45h-.63769Z" fill="#cacaca"/><path d="M31.915,43.9292c0-.90088.77344-1.35156,2.53223-1.54688,0-.52685-.16993-1.03711-.84961-1.03711a2.24718,2.24718,0,0,0-1.23243.4419l-.27246-.48438a3.07223,3.07223,0,0,1,1.624-.53515c1.01074,0,1.43554.67138,1.43554,1.69971V45H34.5752l-.05958-.49316h-.02539a2.20568,2.20568,0,0,1-1.36914.59521A1.12338,1.12338,0,0,1,31.915,43.9292Zm2.53223.05957V42.84131c-1.377.16992-1.85254.50976-1.85254,1.03662,0,.46777.32324.66309.73047.66309A1.67451,1.67451,0,0,0,34.44727,43.98877Z" fill="#cacaca"/><path d="M36.13965,45.79053a1.19227,1.19227,0,0,1,.60351-.93506v-.03418a.7622.7622,0,0,1-.36621-.67139.96724.96724,0,0,1,.45117-.76465v-.03418a1.45744,1.45744,0,0,1,1.01954-2.58349,1.64174,1.64174,0,0,1,.58593.102h1.43653v.53516h-.84961a1.19851,1.19851,0,0,1,.33984.85009,1.417,1.417,0,0,1-1.51269,1.436,1.44252,1.44252,0,0,1-.62012-.144.62525.62525,0,0,0-.26367.49267c0,.26367.16992.45068.73047.45068h.79882c.96094,0,1.44532.29737,1.44532.98584,0,.76465-.80762,1.42774-2.09082,1.42774C36.83594,46.90381,36.13965,46.50439,36.13965,45.79053Zm3.11914-.21241c0-.38281-.29785-.51025-.833-.51025h-.71387A2.0228,2.0228,0,0,1,37.17578,45a.87137.87137,0,0,0-.4248.69678c0,.44189.45117.72265,1.19824.72265C38.74023,46.41943,39.25879,46.01123,39.25879,45.57812Zm-.53613-3.34033a.8788.8788,0,1,0-1.75,0,.88123.88123,0,1,0,1.75,0Z" fill="#cacaca"/><path d="M40.7373,40.86963h.57715l.05957.59473h.02637a1.94458,1.94458,0,0,1,1.38477-.69678c.86718,0,1.25781.56054,1.25781,1.61474V45h-.69629V42.47559c0-.77344-.23828-1.1045-.78223-1.1045-.4248,0-.71386.22071-1.13086.63721V45H40.7373Z" fill="#cacaca"/><path d="M45.25879,39.56885a.48567.48567,0,0,1,.96875,0,.48563.48563,0,0,1-.96875,0Zm.12793,1.30078H46.083V45h-.69629Z" fill="#cacaca"/><path d="M47.5957,43.7251V41.439h-.61132v-.52685l.6455-.04248.085-1.15625h.58692v1.15625H49.415V41.439H48.30176V43.7334c0,.51025.16113.79931.63769.79931a1.488,1.488,0,0,0,.4668-.11083l.13672.52734a2.56505,2.56505,0,0,1-.76563.15283C47.89355,45.10205,47.5957,44.541,47.5957,43.7251Z" fill="#cacaca"/><path d="M50.291,43.4873V40.86963h.70507v2.52392c0,.77344.2295,1.105.77344,1.105.42481,0,.72266-.21241,1.11328-.69678V40.86963h.69727V45H53.002l-.05957-.646H52.917a1.74556,1.74556,0,0,1-1.36035.748C50.68164,45.10205,50.291,44.541,50.291,43.4873Z" fill="#cacaca"/><path d="M54.67676,42.94336a1.95579,1.95579,0,0,1,1.793-2.17578,1.70126,1.70126,0,0,1,1.15625.47558l-.03418-.70507V38.94873h.706V45h-.57812l-.05957-.48438h-.02539a1.86572,1.86572,0,0,1-1.25.58643C55.34863,45.10205,54.67676,44.32031,54.67676,42.94336Zm2.915,1.00293V41.78711a1.43766,1.43766,0,0,0-1.00293-.43311c-.66309,0-1.18946.63721-1.18946,1.58057,0,.98584.416,1.581,1.13868,1.581A1.39721,1.39721,0,0,0,57.5918,43.94629Z" fill="#cacaca"/><path d="M59.38574,42.94336a1.99246,1.99246,0,0,1,1.85352-2.17578c1.05371,0,1.64844.75635,1.64844,1.9375a2.75253,2.75253,0,0,1-.0254.39941H60.07422a1.37086,1.37086,0,0,0,1.377,1.43653,1.865,1.865,0,0,0,1.02832-.32276l.24707.459a2.461,2.461,0,0,1-1.36035.4248A1.97559,1.97559,0,0,1,59.38574,42.94336Zm2.88965-.34033c0-.83252-.374-1.28321-1.01953-1.28321A1.2751,1.2751,0,0,0,60.06641,42.603Z" fill="#cacaca"/><path d="M37.51562,52.63721a7.06945,7.06945,0,0,1,1.1211-3.8584l.43359.20361a7.32095,7.32095,0,0,0,0,7.30957l-.43359.2041A7.07111,7.07111,0,0,1,37.51562,52.63721Z" fill="#cacaca"/><path d="M39.793,52.94336a1.95579,1.95579,0,0,1,1.793-2.17578,1.70126,1.70126,0,0,1,1.15625.47558l-.03418-.70507V48.94873h.706V55h-.57812l-.05957-.48438H42.751a1.86572,1.86572,0,0,1-1.25.58643C40.46484,55.10205,39.793,54.32031,39.793,52.94336Zm2.915,1.00293V51.78711a1.43764,1.43764,0,0,0-1.00293-.43311c-.66309,0-1.18946.63721-1.18946,1.58057,0,.98584.416,1.581,1.13868,1.581A1.39721,1.39721,0,0,0,42.708,53.94629Z" fill="#cacaca"/><path d="M44.876,49.4248H46.5332c1.13086,0,1.91309.38233,1.91309,1.35938A1.22021,1.22021,0,0,1,47.62988,52v.03369a1.282,1.282,0,0,1,1.13867,1.33447c0,1.0962-.86621,1.63184-2.11621,1.63184H44.876Zm1.53027,2.3711c.95215,0,1.34277-.34863,1.34277-.918,0-.646-.44238-.89258-1.30859-.89258H45.582V51.7959Zm.14453,2.64306c.96,0,1.52149-.34814,1.52149-1.09619,0-.68847-.544-1.00293-1.52149-1.00293H45.582V54.439Z" fill="#cacaca"/><path d="M49.43262,56.292a7.32095,7.32095,0,0,0,0-7.30957l.43359-.20361a7.201,7.201,0,0,1,0,7.71728Z" fill="#cacaca"/><path d="M327.1582,94.42529h3.21289V95.02h-2.50683v1.88672h2.124v.59521h-2.124v2.49854h-.70606Z" fill="#cacaca"/><path d="M331.12012,95.87012h.57715l.05957.74756h.02636a1.41251,1.41251,0,0,1,1.17285-.84961,1.02382,1.02382,0,0,1,.44141.085l-.13574.61181a1.15547,1.15547,0,0,0-.39942-.06787c-.34863,0-.76464.25489-1.04589.95166v2.65186h-.69629Z" fill="#cacaca"/><path d="M333.67773,97.94385a1.99246,1.99246,0,0,1,1.85352-2.17578c1.05371,0,1.64844.75634,1.64844,1.9375a2.75409,2.75409,0,0,1-.02539.39941h-2.78809a1.37085,1.37085,0,0,0,1.37695,1.43652,1.865,1.865,0,0,0,1.02832-.32275l.24707.459a2.4609,2.4609,0,0,1-1.36035.42481A1.97559,1.97559,0,0,1,333.67773,97.94385Zm2.88965-.34033c0-.83252-.374-1.28321-1.01953-1.28321a1.2751,1.2751,0,0,0-1.18945,1.28321Z" fill="#cacaca"/><path d="M340.81738,100.27246l.03418-.748a1.82954,1.82954,0,0,1-1.24121.57813c-1.03613,0-1.708-.78174-1.708-2.15869a1.95578,1.95578,0,0,1,1.793-2.17578,1.68225,1.68225,0,0,1,1.18164.49267h.01758l.06738-.39062h.56153v5.87256h-.70606Zm0-1.32568V96.7876a1.43758,1.43758,0,0,0-1.00293-.43311c-.66308,0-1.18945.63721-1.18945,1.58057,0,.98584.416,1.58105,1.13867,1.58105A1.3972,1.3972,0,0,0,340.81738,98.94678Z" fill="#cacaca"/><path d="M342.8584,98.48779V95.87012h.70508V98.394c0,.77344.22949,1.105.77343,1.105.42481,0,.72266-.2124,1.11329-.69677V95.87012h.69726v4.13037h-.57812l-.05957-.646h-.02539a1.74528,1.74528,0,0,1-1.35938.74805C343.249,100.10254,342.8584,99.5415,342.8584,98.48779Z" fill="#cacaca"/><path d="M347.23438,97.94385a1.99245,1.99245,0,0,1,1.85351-2.17578c1.05371,0,1.64844.75634,1.64844,1.9375a2.75409,2.75409,0,0,1-.02539.39941h-2.78809a1.37086,1.37086,0,0,0,1.377,1.43652,1.865,1.865,0,0,0,1.02832-.32275l.24708.459a2.461,2.461,0,0,1-1.36036.42481A1.97558,1.97558,0,0,1,347.23438,97.94385Zm2.88964-.34033c0-.83252-.374-1.28321-1.01953-1.28321a1.2751,1.2751,0,0,0-1.18945,1.28321Z" fill="#cacaca"/><path d="M351.75781,95.87012h.57715l.05957.59472h.02539a1.9485,1.9485,0,0,1,1.38574-.69677c.86719,0,1.25782.56054,1.25782,1.61474v2.61768h-.69629V97.47607c0-.77343-.23828-1.10449-.78223-1.10449-.4248,0-.71387.22071-1.13086.63721v2.9917h-.69629Z" fill="#cacaca"/><path d="M356.10059,97.94385a2.00055,2.00055,0,0,1,1.98925-2.17578,1.71412,1.71412,0,0,1,1.207.48437l-.35743.459a1.21278,1.21278,0,0,0-.82422-.36573c-.748,0-1.292.646-1.292,1.59815,0,.94336.51856,1.58056,1.27539,1.58056a1.46872,1.46872,0,0,0,.96875-.4165l.30567.46777a2.01515,2.01515,0,0,1-1.334.52686A1.94033,1.94033,0,0,1,356.10059,97.94385Z" fill="#cacaca"/><path d="M359.917,101.69189l.13574-.55273a1.20181,1.20181,0,0,0,.31446.05957c.46777,0,.76562-.374.93554-.88379l.09375-.30615-1.6582-4.13867h.72266l.84179,2.28613c.127.35693.27149.78174.39942,1.16455h.03418c.11914-.374.2373-.79932.34765-1.16455l.74024-2.28613h.67969l-1.55567,4.47021c-.28906.81592-.71386,1.43653-1.54687,1.43653A1.37664,1.37664,0,0,1,359.917,101.69189Z" fill="#cacaca"/><path d="M336.49512,104.42529h1.74218c1.13965,0,1.95508.40772,1.95508,1.56348a1.52267,1.52267,0,0,1-1.25781,1.58105l1.41895,2.43067h-.79883l-1.34278-2.35449h-1.01074v2.35449h-.70605Zm1.64062,2.64307c.86719,0,1.35156-.35693,1.35156-1.07959,0-.731-.48437-.99414-1.35156-.99414h-.93457v2.07373Z" fill="#cacaca"/><path d="M340.97559,108.92969c0-.90088.77343-1.35157,2.53222-1.54688,0-.52685-.16992-1.03711-.84961-1.03711a2.24707,2.24707,0,0,0-1.23242.4419l-.27246-.48438a3.0722,3.0722,0,0,1,1.624-.53515c1.01075,0,1.43555.67138,1.43555,1.6997v2.53272h-.57715l-.05957-.49317h-.02539a2.20564,2.20564,0,0,1-1.36914.59522A1.12338,1.12338,0,0,1,340.97559,108.92969Zm2.53222.05957V107.8418c-1.377.16992-1.85254.50976-1.85254,1.03662,0,.46777.32325.66308.73047.66308A1.67445,1.67445,0,0,0,343.50781,108.98926Z" fill="#cacaca"/><path d="M345.51367,108.72559v-2.28614h-.61133v-.52685l.64551-.04248.085-1.15625h.58692v1.15625H347.333v.56933h-1.11328v2.29444c0,.51025.16113.79931.63769.79931a1.48771,1.48771,0,0,0,.4668-.11084l.13672.52735a2.56505,2.56505,0,0,1-.76563.15283C345.81152,110.10254,345.51367,109.5415,345.51367,108.72559Z" fill="#cacaca"/><path d="M348.14062,104.56934a.48568.48568,0,0,1,.96876,0,.48564.48564,0,0,1-.96876,0Zm.12793,1.30078h.69629v4.13037h-.69629Z" fill="#cacaca"/><path d="M350.05273,107.94385a1.92663,1.92663,0,1,1,1.91309,2.15869A1.97405,1.97405,0,0,1,350.05273,107.94385Zm3.10254,0c0-.95215-.47558-1.59815-1.18945-1.59815-.70605,0-1.19043.646-1.19043,1.59815,0,.94336.48438,1.58056,1.19043,1.58056C352.67969,109.52441,353.15527,108.88721,353.15527,107.94385Z" fill="#cacaca"/><path d="M95.0918,272.27246c0-1.81885.65429-2.79639,1.74218-2.79639,1.07911,0,1.73438.97754,1.73438,2.79639s-.65527,2.83008-1.73438,2.83008C95.74609,275.10254,95.0918,274.09131,95.0918,272.27246Zm2.7959,0c0-1.58935-.42481-2.23535-1.05372-2.23535-.63769,0-1.0625.646-1.0625,2.23535s.42481,2.269,1.0625,2.269C97.46289,274.5415,97.8877,273.86182,97.8877,272.27246Z" fill="#979797"/><path d="M99.49512,274.57568a.50674.50674,0,1,1,1.01074,0,.50581.50581,0,1,1-1.01074,0Z" fill="#979797"/><path d="M101.27148,274.36328l.33985-.459a1.84309,1.84309,0,0,0,1.36816.62011,1.16962,1.16962,0,0,0,1.18946-1.24072,1.08938,1.08938,0,0,0-1.15528-1.18994,1.52781,1.52781,0,0,0-.92676.33154l-.374-.23779.17871-2.60938h2.71094v.60352h-2.09863l-.14453,1.606a1.66506,1.66506,0,0,1,.832-.22071,1.56132,1.56132,0,0,1,1.68359,1.69971,1.77306,1.77306,0,0,1-1.82715,1.83594A2.3783,2.3783,0,0,1,101.27148,274.36328Z" fill="#979797"/><path d="M145.38965,274.42236h1.24023v-3.99463h-.98535v-.45019a3.238,3.238,0,0,0,1.14746-.39942h.53516v4.84424h1.12207v.57813h-3.05957Z" fill="#979797"/><path d="M149.49512,274.57568a.50674.50674,0,1,1,1.01074,0,.50581.50581,0,1,1-1.01074,0Z" fill="#979797"/><path d="M151.27148,274.36328l.33985-.459a1.84309,1.84309,0,0,0,1.36816.62011,1.16962,1.16962,0,0,0,1.18946-1.24072,1.08938,1.08938,0,0,0-1.15528-1.18994,1.52781,1.52781,0,0,0-.92676.33154l-.374-.23779.17871-2.60938h2.71094v.60352h-2.09863l-.14453,1.606a1.66506,1.66506,0,0,1,.832-.22071,1.56132,1.56132,0,0,1,1.68359,1.69971,1.77306,1.77306,0,0,1-1.82715,1.83594A2.3783,2.3783,0,0,1,151.27148,274.36328Z" fill="#979797"/><path d="M195.05762,274.584c1.63183-1.62353,2.5498-2.60058,2.5498-3.47607a.96029.96029,0,0,0-1.02832-1.0625,1.5997,1.5997,0,0,0-1.15625.6543l-.39941-.39942a2.13136,2.13136,0,0,1,1.64062-.82422,1.5057,1.5057,0,0,1,1.62305,1.59766c0,1.02-.92578,2.03125-2.209,3.37451.29688-.02588.62891-.05127.90918-.05127h1.57227v.60352h-3.502Z" fill="#979797"/><path d="M199.49512,274.57568a.50674.50674,0,1,1,1.01074,0,.50581.50581,0,1,1-1.01074,0Z" fill="#979797"/><path d="M201.27148,274.36328l.33985-.459a1.84309,1.84309,0,0,0,1.36816.62011,1.16962,1.16962,0,0,0,1.18946-1.24072,1.08938,1.08938,0,0,0-1.15528-1.18994,1.52781,1.52781,0,0,0-.92676.33154l-.374-.23779.17871-2.60938h2.71094v.60352h-2.09863l-.14453,1.606a1.66506,1.66506,0,0,1,.832-.22071,1.56132,1.56132,0,0,1,1.68359,1.69971,1.77306,1.77306,0,0,1-1.82715,1.83594A2.3783,2.3783,0,0,1,201.27148,274.36328Z" fill="#979797"/><path d="M244.93848,274.3374l.35742-.459a1.84012,1.84012,0,0,0,1.38476.646,1.01026,1.01026,0,0,0,1.12207-.99414c0-.646-.4414-1.07959-1.73339-1.07959v-.53515c1.15527,0,1.53808-.44239,1.53808-1.01172a.83427.83427,0,0,0-.93457-.8584,1.64336,1.64336,0,0,0-1.15625.55273l-.374-.44238a2.23538,2.23538,0,0,1,1.55566-.67969c.94336,0,1.62305.50147,1.62305,1.377a1.34453,1.34453,0,0,1-.98535,1.292v.03369a1.39918,1.39918,0,0,1,1.17285,1.37695,1.60757,1.60757,0,0,1-1.78516,1.54688A2.30567,2.30567,0,0,1,244.93848,274.3374Z" fill="#979797"/><path d="M249.49512,274.57568a.50674.50674,0,1,1,1.01074,0,.50581.50581,0,1,1-1.01074,0Z" fill="#979797"/><path d="M251.27148,274.36328l.33985-.459a1.84309,1.84309,0,0,0,1.36816.62011,1.16962,1.16962,0,0,0,1.18946-1.24072,1.08938,1.08938,0,0,0-1.15528-1.18994,1.52781,1.52781,0,0,0-.92676.33154l-.374-.23779.17871-2.60938h2.71094v.60352h-2.09863l-.14453,1.606a1.66506,1.66506,0,0,1,.832-.22071,1.56132,1.56132,0,0,1,1.68359,1.69971,1.77306,1.77306,0,0,1-1.82715,1.83594A2.3783,2.3783,0,0,1,251.27148,274.36328Z" fill="#979797"/><path d="M297.30176,273.50439H294.8623v-.45849l2.32032-3.46778h.78222v3.36573h.73926v.56054h-.73926v1.4961h-.66308Zm0-.56054v-1.57227c0-.28906.02539-.75683.042-1.04541h-.03418c-.13574.26319-.28809.50147-.44141.76465l-1.2666,1.853Z" fill="#979797"/><path d="M299.49512,274.57568a.50674.50674,0,1,1,1.01074,0,.50581.50581,0,1,1-1.01074,0Z" fill="#979797"/><path d="M301.27148,274.36328l.33985-.459a1.84309,1.84309,0,0,0,1.36816.62011,1.16962,1.16962,0,0,0,1.18946-1.24072,1.08938,1.08938,0,0,0-1.15528-1.18994,1.52781,1.52781,0,0,0-.92676.33154l-.374-.23779.17871-2.60938h2.71094v.60352h-2.09863l-.14453,1.606a1.66506,1.66506,0,0,1,.832-.22071,1.56132,1.56132,0,0,1,1.68359,1.69971,1.77306,1.77306,0,0,1-1.82715,1.83594A2.3783,2.3783,0,0,1,301.27148,274.36328Z" fill="#979797"/><path d="M26.05762,229.42529h.85058l1.07032,2.97461c.13574.38233.26367.78174.39941,1.16406h.03418c.13574-.38232.24609-.78173.38281-1.16406l1.05371-2.97461h.8584v5.5752H30.044v-3.06836c0-.49268.05957-1.15576.09375-1.64844h-.03418l-.44239,1.26611-1.05371,2.88965h-.4668l-1.05468-2.88965-.44141-1.26611h-.03418c.03418.49268.085,1.15576.085,1.64844v3.06836h-.63769Z" fill="#cacaca"/><path d="M31.915,233.92969c0-.90088.77344-1.35157,2.53223-1.54688,0-.52685-.16993-1.03711-.84961-1.03711a2.2471,2.2471,0,0,0-1.23243.4419l-.27246-.48438a3.07223,3.07223,0,0,1,1.624-.53515c1.01074,0,1.43554.67138,1.43554,1.6997v2.53272H34.5752l-.05958-.49317h-.02539a2.20564,2.20564,0,0,1-1.36914.59522A1.12338,1.12338,0,0,1,31.915,233.92969Zm2.53223.05957V232.8418c-1.377.16992-1.85254.50976-1.85254,1.03662,0,.46777.32324.66308.73047.66308A1.67449,1.67449,0,0,0,34.44727,233.98926Z" fill="#cacaca"/><path d="M36.13965,235.791a1.19227,1.19227,0,0,1,.60351-.93506v-.03418a.7622.7622,0,0,1-.36621-.67139.96723.96723,0,0,1,.45117-.76465v-.03418a1.45744,1.45744,0,0,1,1.01954-2.58349,1.64174,1.64174,0,0,1,.58593.102h1.43653v.53515h-.84961a1.19855,1.19855,0,0,1,.33984.8501,1.417,1.417,0,0,1-1.51269,1.436,1.44253,1.44253,0,0,1-.62012-.144.62527.62527,0,0,0-.26367.49268c0,.26367.16992.45068.73047.45068h.79882c.96094,0,1.44532.29737,1.44532.98584,0,.76465-.80762,1.42774-2.09082,1.42774C36.83594,236.9043,36.13965,236.50488,36.13965,235.791Zm3.11914-.21241c0-.38281-.29785-.51025-.833-.51025h-.71387a2.0228,2.0228,0,0,1-.53613-.06787.87137.87137,0,0,0-.4248.69678c0,.44189.45117.72265,1.19824.72265C38.74023,236.41992,39.25879,236.01172,39.25879,235.57861Zm-.53613-3.34033a.8788.8788,0,1,0-1.75,0,.88123.88123,0,1,0,1.75,0Z" fill="#cacaca"/><path d="M40.7373,230.87012h.57715l.05957.59472h.02637a1.94461,1.94461,0,0,1,1.38477-.69677c.86718,0,1.25781.56054,1.25781,1.61474v2.61768h-.69629v-2.52442c0-.77343-.23828-1.10449-.78223-1.10449-.4248,0-.71386.22071-1.13086.63721v2.9917H40.7373Z" fill="#cacaca"/><path d="M45.25879,229.56934a.48567.48567,0,0,1,.96875,0,.48563.48563,0,0,1-.96875,0Zm.12793,1.30078H46.083v4.13037h-.69629Z" fill="#cacaca"/><path d="M47.5957,233.72559v-2.28614h-.61132v-.52685l.6455-.04248.085-1.15625h.58692v1.15625H49.415v.56933H48.30176v2.29444c0,.51025.16113.79931.63769.79931a1.48771,1.48771,0,0,0,.4668-.11084l.13672.52735a2.56505,2.56505,0,0,1-.76563.15283C47.89355,235.10254,47.5957,234.5415,47.5957,233.72559Z" fill="#cacaca"/><path d="M50.291,233.48779v-2.61767h.70507V233.394c0,.77344.2295,1.105.77344,1.105.42481,0,.72266-.2124,1.11328-.69677v-2.93213h.69727v4.13037H53.002l-.05957-.646H52.917a1.74556,1.74556,0,0,1-1.36035.74805C50.68164,235.10254,50.291,234.5415,50.291,233.48779Z" fill="#cacaca"/><path d="M54.67676,232.94385a1.95578,1.95578,0,0,1,1.793-2.17578,1.70126,1.70126,0,0,1,1.15625.47558l-.03418-.70508v-1.58935h.706v6.05127h-.57812l-.05957-.48438h-.02539a1.86572,1.86572,0,0,1-1.25.58643C55.34863,235.10254,54.67676,234.3208,54.67676,232.94385Zm2.915,1.00293V231.7876a1.43761,1.43761,0,0,0-1.00293-.43311c-.66309,0-1.18946.63721-1.18946,1.58057,0,.98584.416,1.58105,1.13868,1.58105A1.39721,1.39721,0,0,0,57.5918,233.94678Z" fill="#cacaca"/><path d="M59.38574,232.94385a1.99246,1.99246,0,0,1,1.85352-2.17578c1.05371,0,1.64844.75634,1.64844,1.9375a2.75253,2.75253,0,0,1-.0254.39941H60.07422a1.37085,1.37085,0,0,0,1.377,1.43652,1.865,1.865,0,0,0,1.02832-.32275l.24707.459a2.46092,2.46092,0,0,1-1.36035.42481A1.97559,1.97559,0,0,1,59.38574,232.94385Zm2.88965-.34033c0-.83252-.374-1.28321-1.01953-1.28321a1.2751,1.2751,0,0,0-1.18945,1.28321Z" fill="#cacaca"/><path d="M37.51562,242.6377a7.06945,7.06945,0,0,1,1.1211-3.8584l.43359.20361a7.32095,7.32095,0,0,0,0,7.30957l-.43359.2041A7.07111,7.07111,0,0,1,37.51562,242.6377Z" fill="#cacaca"/><path d="M39.793,242.94385a1.95578,1.95578,0,0,1,1.793-2.17578,1.70126,1.70126,0,0,1,1.15625.47558l-.03418-.70508v-1.58935h.706v6.05127h-.57812l-.05957-.48438H42.751a1.86572,1.86572,0,0,1-1.25.58643C40.46484,245.10254,39.793,244.3208,39.793,242.94385Zm2.915,1.00293V241.7876a1.4376,1.4376,0,0,0-1.00293-.43311c-.66309,0-1.18946.63721-1.18946,1.58057,0,.98584.416,1.58105,1.13868,1.58105A1.39721,1.39721,0,0,0,42.708,243.94678Z" fill="#cacaca"/><path d="M44.876,239.42529H46.5332c1.13086,0,1.91309.38233,1.91309,1.35938a1.22021,1.22021,0,0,1-.81641,1.21582v.03369a1.282,1.282,0,0,1,1.13867,1.33447c0,1.09619-.86621,1.63184-2.11621,1.63184H44.876Zm1.53027,2.3711c.95215,0,1.34277-.34864,1.34277-.918,0-.646-.44238-.89258-1.30859-.89258H45.582v1.81055Zm.14453,2.64306c.96,0,1.52149-.34814,1.52149-1.09619,0-.68847-.544-1.00293-1.52149-1.00293H45.582v2.09912Z" fill="#cacaca"/><path d="M49.43262,246.29248a7.32095,7.32095,0,0,0,0-7.30957l.43359-.20361a7.201,7.201,0,0,1,0,7.71728Z" fill="#cacaca"/><path d="M327.1582,274.4248h3.21289v.59473h-2.50683v1.88672h2.124v.59521h-2.124V280h-.70606Z" fill="#cacaca"/><path d="M331.12012,275.86963h.57715l.05957.74756h.02636a1.41251,1.41251,0,0,1,1.17285-.84961,1.02382,1.02382,0,0,1,.44141.085l-.13574.61182a1.15546,1.15546,0,0,0-.39942-.06788c-.34863,0-.76464.25489-1.04589.95166V280h-.69629Z" fill="#cacaca"/><path d="M333.67773,277.94336a1.99246,1.99246,0,0,1,1.85352-2.17578c1.05371,0,1.64844.75635,1.64844,1.9375a2.75409,2.75409,0,0,1-.02539.39941h-2.78809a1.37086,1.37086,0,0,0,1.37695,1.43653,1.865,1.865,0,0,0,1.02832-.32276l.24707.459a2.461,2.461,0,0,1-1.36035.4248A1.97559,1.97559,0,0,1,333.67773,277.94336Zm2.88965-.34033c0-.83252-.374-1.28321-1.01953-1.28321a1.2751,1.2751,0,0,0-1.18945,1.28321Z" fill="#cacaca"/><path d="M340.81738,280.272l.03418-.748a1.82957,1.82957,0,0,1-1.24121.57812c-1.03613,0-1.708-.78174-1.708-2.15869a1.95579,1.95579,0,0,1,1.793-2.17578,1.68225,1.68225,0,0,1,1.18164.49267h.01758l.06738-.39062h.56153v5.87256h-.70606Zm0-1.32568v-2.15918a1.43762,1.43762,0,0,0-1.00293-.43311c-.66308,0-1.18945.63721-1.18945,1.58057,0,.98584.416,1.58105,1.13867,1.58105A1.3972,1.3972,0,0,0,340.81738,278.94629Z" fill="#cacaca"/><path d="M342.8584,278.4873v-2.61767h.70508v2.52392c0,.77344.22949,1.105.77343,1.105.42481,0,.72266-.21241,1.11329-.69678v-2.93213h.69726V280h-.57812l-.05957-.646h-.02539a1.74528,1.74528,0,0,1-1.35938.74805C343.249,280.10205,342.8584,279.541,342.8584,278.4873Z" fill="#cacaca"/><path d="M347.23438,277.94336a1.99245,1.99245,0,0,1,1.85351-2.17578c1.05371,0,1.64844.75635,1.64844,1.9375a2.75409,2.75409,0,0,1-.02539.39941h-2.78809a1.37087,1.37087,0,0,0,1.377,1.43653,1.865,1.865,0,0,0,1.02832-.32276l.24708.459a2.461,2.461,0,0,1-1.36036.4248A1.97558,1.97558,0,0,1,347.23438,277.94336Zm2.88964-.34033c0-.83252-.374-1.28321-1.01953-1.28321A1.2751,1.2751,0,0,0,347.915,277.603Z" fill="#cacaca"/><path d="M351.75781,275.86963h.57715l.05957.59473h.02539a1.94847,1.94847,0,0,1,1.38574-.69678c.86719,0,1.25782.56054,1.25782,1.61474V280h-.69629v-2.52441c0-.77344-.23828-1.1045-.78223-1.1045-.4248,0-.71387.22071-1.13086.63721V280h-.69629Z" fill="#cacaca"/><path d="M356.10059,277.94336a2.00055,2.00055,0,0,1,1.98925-2.17578,1.71412,1.71412,0,0,1,1.207.48437l-.35743.459a1.21283,1.21283,0,0,0-.82422-.36573c-.748,0-1.292.646-1.292,1.59815,0,.94336.51856,1.58057,1.27539,1.58057a1.46873,1.46873,0,0,0,.96875-.41651l.30567.46778a2.01519,2.01519,0,0,1-1.334.52685A1.94033,1.94033,0,0,1,356.10059,277.94336Z" fill="#cacaca"/><path d="M359.917,281.69141l.13574-.55274a1.20181,1.20181,0,0,0,.31446.05957c.46777,0,.76562-.374.93554-.88379l.09375-.30615-1.6582-4.13867h.72266l.84179,2.28613c.127.35694.27149.78174.39942,1.16455h.03418c.11914-.374.2373-.79931.34765-1.16455l.74024-2.28613h.67969l-1.55567,4.47021c-.28906.81592-.71386,1.43653-1.54687,1.43653A1.37688,1.37688,0,0,1,359.917,281.69141Z" fill="#cacaca"/><path d="M336.49512,284.4248h1.74218c1.13965,0,1.95508.40772,1.95508,1.56348a1.52269,1.52269,0,0,1-1.25781,1.58106L340.35352,290h-.79883l-1.34278-2.35449h-1.01074V290h-.70605Zm1.64062,2.64307c.86719,0,1.35156-.35693,1.35156-1.07959,0-.731-.48437-.99414-1.35156-.99414h-.93457v2.07373Z" fill="#cacaca"/><path d="M340.97559,288.9292c0-.90088.77343-1.35156,2.53222-1.54688,0-.52685-.16992-1.03711-.84961-1.03711a2.24715,2.24715,0,0,0-1.23242.4419l-.27246-.48438a3.0722,3.0722,0,0,1,1.624-.53515c1.01075,0,1.43555.67138,1.43555,1.69971V290h-.57715l-.05957-.49316h-.02539a2.20568,2.20568,0,0,1-1.36914.59521A1.12338,1.12338,0,0,1,340.97559,288.9292Zm2.53222.05957v-1.14746c-1.377.16992-1.85254.50976-1.85254,1.03662,0,.46777.32325.66309.73047.66309A1.67447,1.67447,0,0,0,343.50781,288.98877Z" fill="#cacaca"/><path d="M345.51367,288.7251V286.439h-.61133v-.52685l.64551-.04248.085-1.15625h.58692v1.15625H347.333v.56933h-1.11328v2.29444c0,.51025.16113.79931.63769.79931a1.488,1.488,0,0,0,.4668-.11083l.13672.52734a2.56505,2.56505,0,0,1-.76563.15283C345.81152,290.10205,345.51367,289.541,345.51367,288.7251Z" fill="#cacaca"/><path d="M348.14062,284.56885a.48568.48568,0,0,1,.96876,0,.48564.48564,0,0,1-.96876,0Zm.12793,1.30078h.69629V290h-.69629Z" fill="#cacaca"/><path d="M350.05273,287.94336a1.92663,1.92663,0,1,1,1.91309,2.15869A1.97405,1.97405,0,0,1,350.05273,287.94336Zm3.10254,0c0-.95215-.47558-1.59815-1.18945-1.59815-.70605,0-1.19043.646-1.19043,1.59815,0,.94336.48438,1.58057,1.19043,1.58057C352.67969,289.52393,353.15527,288.88672,353.15527,287.94336Z" fill="#cacaca"/><path d="M172.81641,208.59424h.74707V214.5h-.74707Z" fill="#e4e4e4"/><path d="M175.11133,210.12451h.6123l.0625.63037h.02735a2.06264,2.06264,0,0,1,1.46777-.73828c.918,0,1.332.59424,1.332,1.71045V214.5H177.875v-2.67383c0-.81933-.25195-1.17041-.82812-1.17041-.4502,0-.75586.23438-1.19727.67529V214.5h-.73828Z" fill="#e4e4e4"/><path d="M179.4043,210.12451h.76465l.82812,2.48487c.126.43212.27051.87353.40527,1.28759h.03614c.126-.41406.2705-.85547.39648-1.28759l.82813-2.48487h.72949L181.84375,214.5h-.86426Z" fill="#e4e4e4"/><path d="M183.877,212.32129a2.11,2.11,0,0,1,1.96289-2.30469c1.11621,0,1.7461.80127,1.7461,2.05274a2.92758,2.92758,0,0,1-.02637.42285h-2.95312a1.45063,1.45063,0,0,0,1.458,1.52148,1.97927,1.97927,0,0,0,1.08985-.34179l.26074.48583a2.60543,2.60543,0,0,1-1.44043.4502A2.09228,2.09228,0,0,1,183.877,212.32129Zm3.06055-.35986c0-.88233-.39551-1.35938-1.08008-1.35938a1.35061,1.35061,0,0,0-1.25976,1.35938Z" fill="#e4e4e4"/><path d="M188.665,210.12451h.6123l.0625.79248h.02735a1.49595,1.49595,0,0,1,1.24219-.90039,1.09025,1.09025,0,0,1,.46874.08985l-.14453.64843a1.22447,1.22447,0,0,0-.42285-.07226c-.36914,0-.81054.2705-1.10742,1.00879V214.5H188.665Z" fill="#e4e4e4"/><path d="M191.91406,213.14941V210.728h-.64844v-.55811l.68458-.04541.08984-1.22412h.62109v1.22412h1.17969v.60352h-1.17969v2.43066c0,.54.1709.84619.67578.84619a1.59248,1.59248,0,0,0,.49512-.11718l.14356.5581a2.7,2.7,0,0,1-.81055.16211C192.22949,214.60791,191.91406,214.01367,191.91406,213.14941Z" fill="#e4e4e4"/><path d="M194.37988,212.32129a2.11,2.11,0,0,1,1.96289-2.30469c1.11621,0,1.7461.80127,1.7461,2.05274a2.92758,2.92758,0,0,1-.02637.42285h-2.95312a1.45063,1.45063,0,0,0,1.458,1.52148,1.97927,1.97927,0,0,0,1.08985-.34179l.26074.48583a2.60543,2.60543,0,0,1-1.44043.4502A2.09228,2.09228,0,0,1,194.37988,212.32129Zm3.06055-.35986c0-.88233-.39551-1.35938-1.08008-1.35938a1.35061,1.35061,0,0,0-1.25976,1.35938Z" fill="#e4e4e4"/><path d="M198.85254,212.32129a2.07193,2.07193,0,0,1,1.89941-2.30469,1.7998,1.7998,0,0,1,1.22461.5044l-.03613-.74756v-1.6836h.74707V214.5h-.61133l-.06347-.51318h-.02735a1.9721,1.9721,0,0,1-1.32324.62109C199.56445,214.60791,198.85254,213.77979,198.85254,212.32129Zm3.08789,1.0625v-2.28662a1.521,1.521,0,0,0-1.06152-.45947c-.70313,0-1.26075.67529-1.26075,1.6748,0,1.04395.44141,1.67432,1.20606,1.67432A1.48008,1.48008,0,0,0,201.94043,213.38379Z" fill="#e4e4e4"/><path d="M206.03516,208.59424h.90039l1.13379,3.15088c.14453.40527.27929.82812.42285,1.2334h.03613c.14453-.40528.26172-.82813.40527-1.2334l1.11621-3.15088h.90918V214.5h-.70214v-3.25c0-.522.06347-1.22412.09961-1.74658h-.03614l-.46875,1.34131-1.11621,3.061h-.49512l-1.11621-3.061-.46777-1.34131h-.03613c.03613.52246.08984,1.22461.08984,1.74658v3.25h-.6748Z" fill="#e4e4e4"/><path d="M212.37109,208.74707a.51455.51455,0,0,1,1.02637,0,.51452.51452,0,0,1-1.02637,0Zm.13477,1.37744h.73828V214.5h-.73828Z" fill="#e4e4e4"/><path d="M215.53906,212.21338l-1.32324-2.08887h.80078l.585.96338c.13574.23438.2793.48633.43262.72949h.03613c.126-.24316.26074-.49511.39551-.72949l.53125-.96338h.77441l-1.32324,2.16992L217.87109,214.5h-.80175l-.63965-1.01709c-.15235-.26123-.31446-.53125-.47657-.78369H215.917c-.15332.25244-.29687.51318-.4414.78369L214.88184,214.5h-.77442Z" fill="#e4e4e4"/><path d="M163.68066,18.59375h.77442l2.13281,3.709.63965,1.22461h.03613c-.03613-.59423-.08984-1.26025-.08984-1.88183V18.59375h.71094v5.90576h-.77442l-2.14258-3.71826-.63965-1.21533H164.293c.04492.59424.09863,1.22461.09863,1.8457v3.08789h-.71094Z" fill="#e4e4e4"/><path d="M169.10742,22.3208a2.04231,2.04231,0,1,1,4.05078,0,2.04031,2.04031,0,1,1-4.05078,0Zm3.28613,0c0-1.0083-.5039-1.69238-1.26074-1.69238-.74707,0-1.25976.68408-1.25976,1.69238,0,.99951.51269,1.67481,1.25976,1.67481C171.88965,23.99561,172.39355,23.32031,172.39355,22.3208Z" fill="#e4e4e4"/><path d="M174.30957,20.124h.61231l.0625.63037h.02734a2.06266,2.06266,0,0,1,1.46777-.73828c.918,0,1.332.59424,1.332,1.71045v2.773h-.73828V21.82568c0-.81933-.25195-1.17041-.82812-1.17041-.4502,0-.75586.23438-1.19727.6753v3.16894h-.73828Z" fill="#e4e4e4"/><path d="M178.86328,21.96094h2.07031v.56689h-2.07031Z" fill="#e4e4e4"/><path d="M181.89648,18.74658a.51455.51455,0,0,1,1.02637,0,.51452.51452,0,0,1-1.02637,0Zm.13477,1.37744h.73828v4.37549h-.73828Z" fill="#e4e4e4"/><path d="M184.24512,20.124h.6123l.0625.63037h.02735a2.06264,2.06264,0,0,1,1.46777-.73828c.918,0,1.332.59424,1.332,1.71045v2.773h-.73828V21.82568c0-.81933-.25195-1.17041-.82813-1.17041-.45019,0-.75586.23438-1.19726.6753v3.16894h-.73828Z" fill="#e4e4e4"/><path d="M188.53809,20.124h.76464l.82813,2.48487c.126.43213.27051.87353.40527,1.28759h.03614c.126-.41406.2705-.85546.39648-1.28759l.82813-2.48487h.72949l-1.54883,4.37549h-.86426Z" fill="#e4e4e4"/><path d="M193.01074,22.3208a2.11,2.11,0,0,1,1.96289-2.30469c1.11621,0,1.7461.80127,1.7461,2.05274a2.92758,2.92758,0,0,1-.02637.42285h-2.95313a1.45064,1.45064,0,0,0,1.458,1.52148,1.97929,1.97929,0,0,0,1.08985-.34179l.26074.48584a2.6055,2.6055,0,0,1-1.44043.45019A2.09228,2.09228,0,0,1,193.01074,22.3208Zm3.06055-.35986c0-.88233-.39551-1.35938-1.08008-1.35938a1.35061,1.35061,0,0,0-1.25976,1.35938Z" fill="#e4e4e4"/><path d="M197.79883,20.124h.6123l.0625.79248h.02735a1.49595,1.49595,0,0,1,1.24218-.90039,1.09027,1.09027,0,0,1,.46875.08985l-.14453.64843a1.22447,1.22447,0,0,0-.42285-.07226c-.36914,0-.81055.27051-1.10742,1.00879v2.80859h-.73828Z" fill="#e4e4e4"/><path d="M201.04785,23.14893V20.72754h-.64844v-.55811l.68457-.04541.08985-1.22412h.62109V20.124h1.17969v.60352h-1.17969V23.1582c0,.54.1709.84619.67578.84619a1.5922,1.5922,0,0,0,.49512-.11718l.14356.5581a2.7,2.7,0,0,1-.81055.16211C201.36328,24.60742,201.04785,24.01318,201.04785,23.14893Z" fill="#e4e4e4"/><path d="M203.51367,22.3208a2.11,2.11,0,0,1,1.96289-2.30469c1.11621,0,1.7461.80127,1.7461,2.05274a2.92758,2.92758,0,0,1-.02637.42285h-2.95313a1.45064,1.45064,0,0,0,1.458,1.52148,1.97929,1.97929,0,0,0,1.08985-.34179l.26074.48584a2.6055,2.6055,0,0,1-1.44043.45019A2.09228,2.09228,0,0,1,203.51367,22.3208Zm3.06055-.35986c0-.88233-.39551-1.35938-1.08008-1.35938a1.35061,1.35061,0,0,0-1.25976,1.35938Z" fill="#e4e4e4"/><path d="M207.98633,22.3208a2.07193,2.07193,0,0,1,1.89941-2.30469,1.79982,1.79982,0,0,1,1.22461.5044l-.03613-.74756V18.08936h.74707v6.41015H211.21l-.06348-.51318h-.02734a1.97206,1.97206,0,0,1-1.32324.62109C208.69824,24.60742,207.98633,23.7793,207.98633,22.3208Zm3.08789,1.0625V21.09668a1.52147,1.52147,0,0,0-1.0625-.45947c-.70215,0-1.25977.67529-1.25977,1.6748,0,1.04395.44141,1.67432,1.20606,1.67432A1.48005,1.48005,0,0,0,211.07422,23.3833Z" fill="#e4e4e4"/><path d="M215.169,18.59375h.90039l1.13378,3.15088c.14454.40527.2793.82812.42286,1.2334h.03613c.14453-.40528.26172-.82813.40527-1.2334l1.11621-3.15088h.90918v5.90576h-.70215v-3.25c0-.522.06348-1.22412.09961-1.74658h-.03613l-.46875,1.34131-1.11621,3.061H217.374l-1.11621-3.061L215.79,19.50293h-.03613c.03613.52246.08984,1.22461.08984,1.74658v3.25h-.6748Z" fill="#e4e4e4"/><path d="M221.50488,18.74658a.51455.51455,0,0,1,1.02637,0,.51452.51452,0,0,1-1.02637,0Zm.13477,1.37744h.73828v4.37549h-.73828Z" fill="#e4e4e4"/><path d="M224.67285,22.21289,223.34961,20.124h.80078l.585.96338c.13574.23438.2793.48633.43262.72949h.03613c.126-.24316.26074-.49511.39551-.72949l.53125-.96338h.77441L225.582,22.294l1.42188,2.20556h-.80079l-.63867-1.01709c-.15332-.26123-.31543-.53125-.47754-.78369h-.03613c-.15332.25244-.29687.51318-.4414.78369l-.59376,1.01709h-.77441Z" fill="#e4e4e4"/><line x1="65" y1="70.00031" x2="359.45776" y2="70.00031" fill="none" stroke="#979797" stroke-width="0.5"/><polygon points="357.301 72.545 356.96 72.179 359.266 70.001 356.96 67.822 357.301 67.456 360 70.001 357.301 72.545" fill="#979797"/><line x1="75" y1="50.54257" x2="75" y2="180.00031" fill="none" stroke="#979797" stroke-width="0.5"/><polygon points="72.455 52.699 72.821 53.04 75 50.734 77.178 53.04 77.544 52.699 75 50 72.455 52.699" fill="#979797"/><line x1="100" y1="74.00031" x2="99.99692" y2="70.00031" fill="none" stroke="#979797" stroke-width="0.5"/><line x1="150.00308" y1="74.00031" x2="150" y2="70.00031" fill="none" stroke="#979797" stroke-width="0.5"/><line x1="200" y1="74.00031" x2="199.99692" y2="70.00031" fill="none" stroke="#979797" stroke-width="0.5"/><line x1="250.00308" y1="74.00031" x2="250" y2="70.00031" fill="none" stroke="#979797" stroke-width="0.5"/><line x1="300.00308" y1="74.00031" x2="300" y2="70.00031" fill="none" stroke="#979797" stroke-width="0.5"/><line x1="124.99692" y1="77.00031" x2="124.99384" y2="70.00031" fill="none" stroke="#979797" stroke-width="0.5"/><line x1="175" y1="77.00031" x2="174.99692" y2="70.00031" fill="none" stroke="#979797" stroke-width="0.5"/><line x1="224.99692" y1="77.00031" x2="224.99384" y2="70.00031" fill="none" stroke="#979797" stroke-width="0.5"/><line x1="275" y1="77.00031" x2="274.99692" y2="70.00031" fill="none" stroke="#979797" stroke-width="0.5"/><line x1="325" y1="77.00031" x2="324.99692" y2="70.00031" fill="none" stroke="#979797" stroke-width="0.5"/><line x1="100.00308" y1="267.00017" x2="100" y2="260.00017" fill="none" stroke="#979797" stroke-width="0.5"/><line x1="150.00616" y1="267.00017" x2="150.00308" y2="260.00017" fill="none" stroke="#979797" stroke-width="0.5"/><line x1="200.00308" y1="267.00017" x2="200" y2="260.00017" fill="none" stroke="#979797" stroke-width="0.5"/><line x1="250.00616" y1="267.00017" x2="250.00308" y2="260.00017" fill="none" stroke="#979797" stroke-width="0.5"/><line x1="300.00616" y1="267.00017" x2="300.00308" y2="260.00017" fill="none" stroke="#979797" stroke-width="0.5"/><line x1="72" y1="60.00031" x2="75" y2="59.99954" fill="none" stroke="#979797" stroke-width="0.5"/><line x1="72" y1="80.00031" x2="75" y2="79.99954" fill="none" stroke="#979797" stroke-width="0.5"/><line x1="72" y1="100.00031" x2="75" y2="99.99954" fill="none" stroke="#979797" stroke-width="0.5"/><line x1="72" y1="120.00031" x2="75" y2="119.99954" fill="none" stroke="#979797" stroke-width="0.5"/><line x1="72" y1="140.00031" x2="75" y2="139.99954" fill="none" stroke="#979797" stroke-width="0.5"/><line x1="72" y1="160" x2="75" y2="159.99923" fill="none" stroke="#979797" stroke-width="0.5"/><line x1="68" y1="90.00031" x2="75" y2="89.99954" fill="none" stroke="#979797" stroke-width="0.5"/><line x1="68" y1="130.00031" x2="75" y2="129.99954" fill="none" stroke="#979797" stroke-width="0.5"/><line x1="68" y1="150.00031" x2="75" y2="149.99954" fill="none" stroke="#979797" stroke-width="0.5"/><line x1="68" y1="110.00109" x2="75" y2="110.00031" fill="none" stroke="#979797" stroke-width="0.5"/><line x1="72" y1="250.00094" x2="75" y2="250.00017" fill="none" stroke="#979797" stroke-width="0.5"/><line x1="72" y1="270.00094" x2="75" y2="270.00017" fill="none" stroke="#979797" stroke-width="0.5"/><line x1="72" y1="290.00094" x2="75" y2="290.00017" fill="none" stroke="#979797" stroke-width="0.5"/><line x1="72" y1="310.00094" x2="75" y2="310.00017" fill="none" stroke="#979797" stroke-width="0.5"/><line x1="72" y1="330.00094" x2="75" y2="330.00017" fill="none" stroke="#979797" stroke-width="0.5"/><line x1="72" y1="350" x2="75" y2="349.99923" fill="none" stroke="#979797" stroke-width="0.5"/><line x1="68" y1="280.00094" x2="75" y2="280.00017" fill="none" stroke="#979797" stroke-width="0.5"/><line x1="68" y1="320.00094" x2="75" y2="320.00017" fill="none" stroke="#979797" stroke-width="0.5"/><line x1="68" y1="340.00094" x2="75" y2="340.00017" fill="none" stroke="#979797" stroke-width="0.5"/><line x1="68" y1="300.00171" x2="75" y2="300.00094" fill="none" stroke="#979797" stroke-width="0.5"/><line x1="65" y1="260.00001" x2="359.45776" y2="260.00001" fill="none" stroke="#979797" stroke-width="0.5"/><polygon points="357.301 262.545 356.96 262.179 359.266 260.001 356.96 257.822 357.301 257.456 360 260.001 357.301 262.545" fill="#979797"/><line x1="75" y1="240.5424" x2="75" y2="370.00001" fill="none" stroke="#979797" stroke-width="0.5"/><polygon points="72.455 242.699 72.821 243.04 75 240.734 77.178 243.04 77.544 242.699 75 240 72.455 242.699" fill="#979797"/><line x1="124.99692" y1="265" x2="124.99384" y2="260" fill="none" stroke="#979797" stroke-width="0.5"/><line x1="175" y1="265" x2="174.99692" y2="260" fill="none" stroke="#979797" stroke-width="0.5"/><line x1="224.99692" y1="265" x2="224.99384" y2="260" fill="none" stroke="#979797" stroke-width="0.5"/><line x1="275" y1="265" x2="274.99692" y2="260" fill="none" stroke="#979797" stroke-width="0.5"/><line x1="325" y1="265" x2="324.99692" y2="260" fill="none" stroke="#979797" stroke-width="0.5"/><path d="M75,64.50031c15,0,25,24.73077,25,105.5" fill="none" stroke="#e9a460" stroke-width="0.8"/><path d="M100,170.00031c0-80.76923,10-105.5,25-105.5s25,24.73077,25,105.5" fill="none" stroke="#e9a460" stroke-width="0.8"/><path d="M150,170.00031c0-80.76923,10-105.5,25-105.5s25,24.73077,25,105.5" fill="none" stroke="#e9a460" stroke-width="0.8"/><path d="M200,170.00031c0-80.76923,10-105.5,25-105.5s25,24.73077,25,105.5" fill="none" stroke="#e9a460" stroke-width="0.8"/><path d="M250,170.00031c0-80.76923,10-105.5,25-105.5s25,24.73077,25,105.5" fill="none" stroke="#e9a460" stroke-width="0.8"/><path d="M300,170.00031c0-80.76923,10-105.5,25-105.5" fill="none" stroke="#e9a460" stroke-width="0.8"/><path d="M75,360c0-80.76923,10-105.5,25-105.5s25,24.73077,25,105.5" fill="none" stroke="#e9a460" stroke-width="0.8"/><path d="M125,360c0-80.76923,10-105.5,25-105.5s25,24.73077,25,105.5" fill="none" stroke="#e9a460" stroke-width="0.8"/><path d="M175,360c0-80.76923,10-105.5,25-105.5s25,24.73077,25,105.5" fill="none" stroke="#e9a460" stroke-width="0.8"/><path d="M225,360c0-80.76923,10-105.5,25-105.5s25,24.73077,25,105.5" fill="none" stroke="#e9a460" stroke-width="0.8"/><path d="M275,360c0-80.76923,10-105.5,25-105.5s25,24.73077,25,105.5" fill="none" stroke="#e9a460" stroke-width="0.8"/></svg>