<svg xmlns="http://www.w3.org/2000/svg" viewBox="0 0 400 250"><title>envelope-c</title><rect x="0.25" y="0.25" width="399.5" height="249.5" rx="1.75" ry="1.75" fill="#202020"/><path d="M398,.5A1.50168,1.50168,0,0,1,399.5,2V248a1.50168,1.50168,0,0,1-1.5,1.5H1.99988a1.50168,1.50168,0,0,1-1.5-1.5V2a1.50168,1.50168,0,0,1,1.5-1.5H398m0-.5H1.99988a2,2,0,0,0-2,2V248a2,2,0,0,0,2,2H398a2.00006,2.00006,0,0,0,2-2V2a2.00006,2.00006,0,0,0-2-2Z" fill="#363636"/><rect x="9.5" y="20.5" width="381" height="221" fill="#0f0f0f"/><path d="M390,21V241H10V21H390m1-1H9V242H391V20Z" fill="#363636"/><rect x="9.5" y="7.5" width="381" height="13" fill="#363636"/><path d="M390,8V20H10V8H390m1-1H9V21H391V7Z" fill="#363636"/><line x1="250" y1="21" x2="250" y2="241" fill="none" stroke="#202020" stroke-width="0.5"/><line x1="240" y1="21" x2="240" y2="241" fill="none" stroke="#202020" stroke-width="0.5"/><line x1="230" y1="21" x2="230" y2="241" fill="none" stroke="#202020" stroke-width="0.5"/><line x1="260" y1="21" x2="260" y2="241" fill="none" stroke="#202020" stroke-width="0.5"/><line x1="270" y1="21" x2="270" y2="241" fill="none" stroke="#202020" stroke-width="0.5"/><line x1="280" y1="21" x2="280" y2="241" fill="none" stroke="#202020" stroke-width="0.5"/><line x1="290" y1="21" x2="290" y2="241" fill="none" stroke="#202020" stroke-width="0.5"/><line x1="300" y1="21" x2="300" y2="241" fill="none" stroke="#202020" stroke-width="0.5"/><line x1="310" y1="21" x2="310" y2="241" fill="none" stroke="#202020" stroke-width="0.5"/><line x1="320" y1="21" x2="320" y2="241" fill="none" stroke="#202020" stroke-width="0.5"/><line x1="330" y1="21" x2="330" y2="241" fill="none" stroke="#202020" stroke-width="0.5"/><line x1="340" y1="21" x2="340" y2="241" fill="none" stroke="#202020" stroke-width="0.5"/><line x1="350" y1="21" x2="350" y2="241" fill="none" stroke="#202020" stroke-width="0.5"/><line x1="360" y1="21" x2="360" y2="241" fill="none" stroke="#202020" stroke-width="0.5"/><line x1="370" y1="21" x2="370" y2="241" fill="none" stroke="#202020" stroke-width="0.5"/><line x1="380" y1="21" x2="380" y2="241" fill="none" stroke="#202020" stroke-width="0.5"/><line x1="90" y1="21" x2="90" y2="241" fill="none" stroke="#202020" stroke-width="0.5"/><line x1="80" y1="21" x2="80" y2="241" fill="none" stroke="#202020" stroke-width="0.5"/><line x1="70" y1="21" x2="70" y2="241" fill="none" stroke="#202020" stroke-width="0.5"/><line x1="100" y1="21" x2="100" y2="241" fill="none" stroke="#202020" stroke-width="0.5"/><line x1="60" y1="21" x2="60" y2="241" fill="none" stroke="#202020" stroke-width="0.5"/><line x1="50" y1="21" x2="50" y2="241" fill="none" stroke="#202020" stroke-width="0.5"/><line x1="40" y1="21" x2="40" y2="241" fill="none" stroke="#202020" stroke-width="0.5"/><line x1="30" y1="21" x2="30" y2="241" fill="none" stroke="#202020" stroke-width="0.5"/><line x1="20" y1="21" x2="20" y2="241" fill="none" stroke="#202020" stroke-width="0.5"/><line x1="110" y1="21" x2="110" y2="241" fill="none" stroke="#202020" stroke-width="0.5"/><line x1="120" y1="21" x2="120" y2="241" fill="none" stroke="#202020" stroke-width="0.5"/><line x1="130" y1="21" x2="130" y2="241" fill="none" stroke="#202020" stroke-width="0.5"/><line x1="140" y1="21" x2="140" y2="241" fill="none" stroke="#202020" stroke-width="0.5"/><line x1="150" y1="21" x2="150" y2="241" fill="none" stroke="#202020" stroke-width="0.5"/><line x1="160" y1="21" x2="160" y2="241" fill="none" stroke="#202020" stroke-width="0.5"/><line x1="170" y1="21" x2="170" y2="241" fill="none" stroke="#202020" stroke-width="0.5"/><line x1="180" y1="21" x2="180" y2="241" fill="none" stroke="#202020" stroke-width="0.5"/><line x1="190" y1="21" x2="190" y2="241" fill="none" stroke="#202020" stroke-width="0.5"/><line x1="200" y1="21" x2="200" y2="241" fill="none" stroke="#202020" stroke-width="0.5"/><line x1="210" y1="21" x2="210" y2="241" fill="none" stroke="#202020" stroke-width="0.5"/><line x1="220" y1="21" x2="220" y2="241" fill="none" stroke="#202020" stroke-width="0.5"/><line x1="9.99999" y1="110.99909" x2="389.99853" y2="110.99909" fill="none" stroke="#202020" stroke-width="0.5"/><line x1="9.99999" y1="120.99986" x2="389.99853" y2="120.99986" fill="none" stroke="#202020" stroke-width="0.5"/><line x1="9.99999" y1="130.99986" x2="389.99853" y2="130.99986" fill="none" stroke="#202020" stroke-width="0.5"/><line x1="9.99999" y1="140.99986" x2="389.99853" y2="140.99986" fill="none" stroke="#202020" stroke-width="0.5"/><line x1="9.99999" y1="100.99909" x2="389.99853" y2="100.99909" fill="none" stroke="#202020" stroke-width="0.5"/><line x1="9.99999" y1="90.99909" x2="389.99853" y2="90.99909" fill="none" stroke="#202020" stroke-width="0.5"/><line x1="9.99999" y1="80.99909" x2="389.99853" y2="80.99909" fill="none" stroke="#202020" stroke-width="0.5"/><line x1="9.99999" y1="70.99909" x2="389.99853" y2="70.99909" fill="none" stroke="#202020" stroke-width="0.5"/><line x1="9.99999" y1="60.99909" x2="389.99853" y2="60.99909" fill="none" stroke="#202020" stroke-width="0.5"/><line x1="9.99999" y1="50.99986" x2="389.99853" y2="50.99986" fill="none" stroke="#202020" stroke-width="0.5"/><line x1="9.99999" y1="40.99909" x2="389.99853" y2="40.99909" fill="none" stroke="#202020" stroke-width="0.5"/><line x1="9.99999" y1="30.99986" x2="389.99853" y2="30.99986" fill="none" stroke="#202020" stroke-width="0.5"/><line x1="9.99999" y1="210.99922" x2="389.99853" y2="210.99922" fill="none" stroke="#202020" stroke-width="0.5"/><line x1="9.99999" y1="220.99999" x2="389.99853" y2="220.99999" fill="none" stroke="#202020" stroke-width="0.5"/><line x1="9.99999" y1="230.99999" x2="389.99853" y2="230.99999" fill="none" stroke="#202020" stroke-width="0.5"/><line x1="9.99999" y1="200.99922" x2="389.99853" y2="200.99922" fill="none" stroke="#202020" stroke-width="0.5"/><line x1="9.99999" y1="190.99922" x2="389.99853" y2="190.99922" fill="none" stroke="#202020" stroke-width="0.5"/><line x1="9.99999" y1="180.99922" x2="389.99853" y2="180.99922" fill="none" stroke="#202020" stroke-width="0.5"/><line x1="9.99999" y1="170.99922" x2="389.99853" y2="170.99922" fill="none" stroke="#202020" stroke-width="0.5"/><line x1="9.99999" y1="160.99922" x2="389.99853" y2="160.99922" fill="none" stroke="#202020" stroke-width="0.5"/><line x1="9.99999" y1="150.99999" x2="389.99853" y2="150.99999" fill="none" stroke="#202020" stroke-width="0.5"/><path d="M121.59668,55.70117h-2.15234l-.56641,1.80078h-.76563l1.999-5.90625h.8457l1.999,5.90625h-.793Zm-.18945-.60351-.2793-.90039c-.207-.65625-.39551-1.30469-.585-1.98926h-.03613c-.18848.68457-.37793,1.333-.585,1.98926l-.28809.90039Z" fill="#cacaca"/><path d="M123.69238,53.72949H123.044v-.55761l.68457-.0459.08984-1.22364h.62109V53.126h1.17969v.60351h-1.17969v2.43067c0,.54.1709.8457.67578.8457a1.5786,1.5786,0,0,0,.49512-.11719l.14356.5586a2.70026,2.70026,0,0,1-.81055.16211c-.93555,0-1.251-.59376-1.251-1.459Z" fill="#cacaca"/><path d="M126.73438,53.72949h-.64844v-.55761l.68457-.0459.08984-1.22364h.6211V53.126h1.17968v.60351h-1.17968v2.43067c0,.54.17089.8457.67578.8457a1.5786,1.5786,0,0,0,.49511-.11719l.14356.5586a2.70026,2.70026,0,0,1-.81055.16211c-.93555,0-1.251-.59376-1.251-1.459Z" fill="#cacaca"/><path d="M131.96387,54.72852c0-.5586-.18946-1.09766-.90039-1.09766a2.34881,2.34881,0,0,0-1.30469.46777l-.29785-.51269a3.24357,3.24357,0,0,1,1.71972-.56836c1.07129,0,1.52149.71191,1.52149,1.80078V57.502h-.61231l-.0625-.52246h-.01855a2.378,2.378,0,0,1-1.44922.62989,1.19278,1.19278,0,0,1-1.28711-1.24219C129.27246,55.41211,130.10059,54.93555,131.96387,54.72852Zm-1.19727,2.2871a1.78986,1.78986,0,0,0,1.19727-.58593V55.21484c-1.46778.17969-1.96289.54-1.96289,1.09766A.67113.67113,0,0,0,130.7666,57.01562Z" fill="#cacaca"/><path d="M135.87891,53.01758a1.80311,1.80311,0,0,1,1.27832.52344l-.36914.47656a1.32357,1.32357,0,0,0-.88184-.38672c-.792,0-1.36816.68359-1.36816,1.69141,0,1,.54882,1.67578,1.34961,1.67578a1.56108,1.56108,0,0,0,1.02636-.44141l.333.48633a2.16508,2.16508,0,0,1-1.42187.56641,2.05509,2.05509,0,0,1-2.05274-2.28711A2.11943,2.11943,0,0,1,135.87891,53.01758Z" fill="#cacaca"/><path d="M138.2002,51.0918h.72949v4.33886h.02636l1.86426-2.30468h.81934l-1.46777,1.75586,1.665,2.62011h-.80957L139.749,55.39453l-.81933.95508V57.502h-.72949Z" fill="#cacaca"/><path d="M61.4248,37.0957h.75586v5.2666h2.5752V43.002H61.4248Z" fill="#cacaca"/><path d="M67.23926,38.51758c1.11621,0,1.74609.80176,1.74609,2.05273a2.69651,2.69651,0,0,1-.02637.40625H66.00586a1.45551,1.45551,0,0,0,1.458,1.53906,1.97926,1.97926,0,0,0,1.08984-.34179l.26074.48535a2.60551,2.60551,0,0,1-1.44043.4502,2.3144,2.3144,0,0,1-.13476-4.5918Zm1.09765,1.97265c0-.8916-.3955-1.38671-1.08007-1.38671a1.36453,1.36453,0,0,0-1.25977,1.38671Z" fill="#cacaca"/><path d="M69.47949,38.626h.76465l.82813,2.48535c.126.43164.2705.873.40527,1.28711h.03613c.126-.41406.27051-.85547.39649-1.28711l.82812-2.48535h.72949L71.919,43.002h-.86426Z" fill="#cacaca"/><path d="M75.915,38.51758c1.11621,0,1.74609.80176,1.74609,2.05273a2.698,2.698,0,0,1-.02636.40625H74.68164a1.45551,1.45551,0,0,0,1.458,1.53906,1.97926,1.97926,0,0,0,1.08984-.34179l.26074.48535a2.60551,2.60551,0,0,1-1.44043.4502,2.3144,2.3144,0,0,1-.13476-4.5918Zm1.09766,1.97265c0-.8916-.39551-1.38671-1.08008-1.38671a1.36454,1.36454,0,0,0-1.25977,1.38671Z" fill="#cacaca"/><path d="M78.74023,36.5918h.73829v5.582c0,.2334.09863.32422.207.32422a.60331.60331,0,0,0,.16211-.01856l.09863.55762a.99144.99144,0,0,1-.42285.07227c-.5586,0-.78321-.35157-.78321-.99024Z" fill="#cacaca"/><path d="M42.28223,66.59766h1.81836c1.30566,0,2.17871.44043,2.17871,1.73632,0,1.24317-.89063,1.82813-2.17871,1.82813h-1.0625v2.34082h-.75586ZM44.002,69.5498c1.03516,0,1.53028-.37792,1.53028-1.21582,0-.85449-.5127-1.13378-1.53028-1.13378h-.96386v2.3496Z" fill="#cacaca"/><path d="M48.79883,68.01953c1.11621,0,1.74609.80078,1.74609,2.05274a2.68273,2.68273,0,0,1-.02637.40527H47.56543a1.45552,1.45552,0,0,0,1.458,1.53906,1.97919,1.97919,0,0,0,1.08984-.3418l.26074.48536a2.598,2.598,0,0,1-1.44043.45117,2.3144,2.3144,0,0,1-.13476-4.5918Zm1.09765,1.97168c0-.8916-.3955-1.38574-1.08007-1.38574a1.36427,1.36427,0,0,0-1.25977,1.38574Z" fill="#cacaca"/><path d="M53.97363,69.73047c0-.55859-.18847-1.09863-.90039-1.09863a2.35468,2.35468,0,0,0-1.30566.46777l-.29688-.5127a3.25186,3.25186,0,0,1,1.71973-.56738c1.07129,0,1.52148.71094,1.52148,1.80078v2.68262h-.6123l-.0625-.52246h-.01856a2.37918,2.37918,0,0,1-1.44921.63086,1.19278,1.19278,0,0,1-1.28711-1.24219C51.28223,70.41406,52.11035,69.9375,53.97363,69.73047ZM52.77637,72.0166a1.79256,1.79256,0,0,0,1.19726-.585V70.2168c-1.46777.17968-1.96289.53906-1.96289,1.09765A.67048.67048,0,0,0,52.77637,72.0166Z" fill="#cacaca"/><path d="M56.10645,66.09277h.72949v4.33887h.02636l1.86426-2.30469h.81836l-1.4668,1.75586,1.665,2.62012h-.80957l-1.27832-2.10645-.81933.95411v1.15234h-.72949Z" fill="#cacaca"/><path d="M62.42383,66.59766h.75586v5.26562h2.57519v.63965h-3.331Z" fill="#cacaca"/><path d="M68.23926,68.01953c1.11621,0,1.74609.80078,1.74609,2.05274a2.68273,2.68273,0,0,1-.02637.40527H67.00586a1.45552,1.45552,0,0,0,1.458,1.53906,1.97919,1.97919,0,0,0,1.08984-.3418l.26074.48536a2.598,2.598,0,0,1-1.44043.45117,2.3144,2.3144,0,0,1-.13476-4.5918Zm1.09765,1.97168c0-.8916-.3955-1.38574-1.08007-1.38574a1.36427,1.36427,0,0,0-1.25977,1.38574Z" fill="#cacaca"/><path d="M70.47949,68.12695h.76465l.82813,2.48535c.126.43262.2705.874.40527,1.28809h.03613c.126-.41406.27051-.85547.39649-1.28809l.82812-2.48535h.72949l-1.54882,4.376h-.86426Z" fill="#cacaca"/><path d="M76.915,68.01953c1.11621,0,1.74609.80078,1.74609,2.05274a2.68416,2.68416,0,0,1-.02636.40527H75.68164a1.45552,1.45552,0,0,0,1.458,1.53906,1.97919,1.97919,0,0,0,1.08984-.3418l.26074.48536a2.598,2.598,0,0,1-1.44043.45117,2.3144,2.3144,0,0,1-.13476-4.5918Zm1.09766,1.97168c0-.8916-.39551-1.38574-1.08008-1.38574a1.36428,1.36428,0,0,0-1.25977,1.38574Z" fill="#cacaca"/><path d="M79.74023,66.09277h.73829v5.582c0,.2334.09863.32422.207.32422a.60362.60362,0,0,0,.16211-.01855l.09863.55859a.99144.99144,0,0,1-.42285.07227c-.5586,0-.78321-.35156-.78321-.99024Z" fill="#cacaca"/><path d="M18.874,106.5957h1.75586c1.19727,0,2.03418.40528,2.03418,1.44043a1.28431,1.28431,0,0,1-1.03515,1.28809v.03516c.86425.13476,1.36816.60351,1.36816,1.41406,0,1.16015-.918,1.72851-2.23242,1.72851H18.874Zm1.62989,2.52149c.999,0,1.42187-.36133,1.42187-1.01758,0-.63965-.47656-.91016-1.38672-.91016h-.90918v1.92774Zm.15234,2.79c1.00879,0,1.60254-.36914,1.60254-1.1709,0-.72852-.56738-1.06153-1.60254-1.06153H19.62988v2.23243Z" fill="#cacaca"/><path d="M24.07617,108.126h.61231l.0625.792h.02734a1.49688,1.49688,0,0,1,1.24219-.90039,1.09762,1.09762,0,0,1,.46875.08984l-.14453.64844a1.22455,1.22455,0,0,0-.42285-.07227c-.36915,0-.81055.27149-1.10743,1.00977V112.502h-.73828Z" fill="#cacaca"/><path d="M28.74805,108.01758c1.11621,0,1.74609.80176,1.74609,2.05273a2.69651,2.69651,0,0,1-.02637.40625H27.51465a1.45551,1.45551,0,0,0,1.458,1.53906,1.97926,1.97926,0,0,0,1.08984-.34179l.26074.48535a2.60551,2.60551,0,0,1-1.44043.4502,2.3144,2.3144,0,0,1-.13476-4.5918Zm1.09765,1.97265c0-.8916-.3955-1.38671-1.08008-1.38671a1.36453,1.36453,0,0,0-1.25976,1.38671Z" fill="#cacaca"/><path d="M33.92285,109.72852c0-.5586-.18847-1.09766-.90039-1.09766a2.35476,2.35476,0,0,0-1.30566.46777l-.29688-.51269a3.2436,3.2436,0,0,1,1.71973-.56836c1.07129,0,1.52148.71191,1.52148,1.80078V112.502h-.6123l-.0625-.52246h-.01856a2.378,2.378,0,0,1-1.44922.62989,1.19277,1.19277,0,0,1-1.2871-1.24219C31.23145,110.41211,32.05957,109.93555,33.92285,109.72852Zm-1.19726,2.2871a1.78984,1.78984,0,0,0,1.19726-.58593v-1.21485c-1.46777.17969-1.96289.54-1.96289,1.09766A.67072.67072,0,0,0,32.72559,112.01562Z" fill="#cacaca"/><path d="M36.05469,106.0918h.72949v4.33886h.02637L38.6748,108.126h.81934l-1.46777,1.75586,1.665,2.62011h-.80957l-1.27832-2.10742-.81934.95508V112.502h-.72949Z" fill="#cacaca"/><path d="M41.24805,112.87109v1.47657h-.73828V108.126h.6123l.0625.50488h.02734a2.26052,2.26052,0,0,1,1.39551-.61328c1.125,0,1.72852.874,1.72852,2.2334,0,1.48535-.8916,2.3584-1.89063,2.3584a2.03326,2.03326,0,0,1-1.21582-.50391Zm1.07129-.88281c.71972,0,1.251-.65723,1.251-1.7373,0-.96387-.32422-1.61231-1.15234-1.61231a1.83943,1.83943,0,0,0-1.16992.59473v2.2959A1.73258,1.73258,0,0,0,42.31934,111.98828Z" fill="#cacaca"/><path d="M47.20605,108.01758a2.314,2.314,0,1,1-2.02539,2.30469A2.09177,2.09177,0,0,1,47.20605,108.01758Zm0,3.98047c.75684,0,1.26075-.67578,1.26075-1.67578,0-1.00782-.50391-1.69141-1.26075-1.69141-.74707,0-1.25976.68359-1.25976,1.69141C45.94629,111.32227,46.459,111.99805,47.20605,111.99805Z" fill="#cacaca"/><path d="M50.24805,106.74805a.51459.51459,0,0,1,1.02636,0,.51444.51444,0,0,1-1.02636,0Zm.13476,1.37793h.73828v4.376h-.73828Z" fill="#cacaca"/><path d="M52.59668,108.126h.6123l.0625.62988h.02735a2.06266,2.06266,0,0,1,1.46777-.73828c.918,0,1.332.59472,1.332,1.71094V112.502h-.73828v-2.67383c0-.82031-.25195-1.17089-.82812-1.17089-.4502,0-.75586.23437-1.19727.6748V112.502h-.73828Z" fill="#cacaca"/><path d="M57.64551,108.72949h-.64844v-.55761l.68457-.0459.08984-1.22364h.6211V108.126h1.17969v.60351H58.39258v2.43067c0,.54.1709.8457.67578.8457a1.57866,1.57866,0,0,0,.49512-.11719l.14355.5586a2.7002,2.7002,0,0,1-.81055.16211c-.93554,0-1.251-.59376-1.251-1.459Z" fill="#cacaca"/><path d="M62.4248,106.5957h.75586v5.2666h2.5752v.63965H62.4248Z" fill="#cacaca"/><path d="M68.23926,108.01758c1.11621,0,1.74609.80176,1.74609,2.05273a2.69651,2.69651,0,0,1-.02637.40625H67.00586a1.45551,1.45551,0,0,0,1.458,1.53906,1.97926,1.97926,0,0,0,1.08984-.34179l.26074.48535a2.60551,2.60551,0,0,1-1.44043.4502,2.3144,2.3144,0,0,1-.13476-4.5918Zm1.09765,1.97265c0-.8916-.3955-1.38671-1.08007-1.38671a1.36453,1.36453,0,0,0-1.25977,1.38671Z" fill="#cacaca"/><path d="M70.47949,108.126h.76465l.82813,2.48535c.126.43164.2705.87305.40527,1.28711h.03613c.126-.41406.27051-.85547.39649-1.28711l.82812-2.48535h.72949L72.919,112.502h-.86426Z" fill="#cacaca"/><path d="M76.915,108.01758c1.11621,0,1.74609.80176,1.74609,2.05273a2.698,2.698,0,0,1-.02636.40625H75.68164a1.45551,1.45551,0,0,0,1.458,1.53906,1.97926,1.97926,0,0,0,1.08984-.34179l.26074.48535a2.60551,2.60551,0,0,1-1.44043.4502,2.3144,2.3144,0,0,1-.13476-4.5918Zm1.09766,1.97265c0-.8916-.39551-1.38671-1.08008-1.38671a1.36454,1.36454,0,0,0-1.25977,1.38671Z" fill="#cacaca"/><path d="M79.74023,106.0918h.73829v5.582c0,.2334.09863.32422.207.32422a.60331.60331,0,0,0,.16211-.01856l.09863.55762a.99144.99144,0,0,1-.42285.07227c-.5586,0-.78321-.35157-.78321-.99024Z" fill="#cacaca"/><path d="M18.874,166.5957h1.75586c1.19727,0,2.03418.40528,2.03418,1.44043a1.28431,1.28431,0,0,1-1.03515,1.28809v.03516c.86425.13476,1.36816.60351,1.36816,1.41406,0,1.16015-.918,1.72851-2.23242,1.72851H18.874Zm1.62989,2.52149c.999,0,1.42187-.36133,1.42187-1.01758,0-.63965-.47656-.91016-1.38672-.91016h-.90918v1.92774Zm.15234,2.79c1.00879,0,1.60254-.36914,1.60254-1.1709,0-.72852-.56738-1.06153-1.60254-1.06153H19.62988v2.23243Z" fill="#cacaca"/><path d="M24.07617,168.126h.61231l.0625.792h.02734a1.49688,1.49688,0,0,1,1.24219-.90039,1.09762,1.09762,0,0,1,.46875.08984l-.14453.64844a1.22455,1.22455,0,0,0-.42285-.07227c-.36915,0-.81055.27149-1.10743,1.00977V172.502h-.73828Z" fill="#cacaca"/><path d="M28.74805,168.01758c1.11621,0,1.74609.80176,1.74609,2.05273a2.69651,2.69651,0,0,1-.02637.40625H27.51465a1.45551,1.45551,0,0,0,1.458,1.53906,1.97926,1.97926,0,0,0,1.08984-.34179l.26074.48535a2.60551,2.60551,0,0,1-1.44043.4502,2.3144,2.3144,0,0,1-.13476-4.5918Zm1.09765,1.97265c0-.8916-.3955-1.38671-1.08008-1.38671a1.36453,1.36453,0,0,0-1.25976,1.38671Z" fill="#cacaca"/><path d="M33.92285,169.72852c0-.5586-.18847-1.09766-.90039-1.09766a2.35476,2.35476,0,0,0-1.30566.46777l-.29688-.51269a3.2436,3.2436,0,0,1,1.71973-.56836c1.07129,0,1.52148.71191,1.52148,1.80078V172.502h-.6123l-.0625-.52246h-.01856a2.378,2.378,0,0,1-1.44922.62989,1.19277,1.19277,0,0,1-1.2871-1.24219C31.23145,170.41211,32.05957,169.93555,33.92285,169.72852Zm-1.19726,2.2871a1.78984,1.78984,0,0,0,1.19726-.58593v-1.21485c-1.46777.17969-1.96289.54-1.96289,1.09766A.67072.67072,0,0,0,32.72559,172.01562Z" fill="#cacaca"/><path d="M36.05469,166.0918h.72949v4.33886h.02637L38.6748,168.126h.81934l-1.46777,1.75586,1.665,2.62011h-.80957l-1.27832-2.10742-.81934.95508V172.502h-.72949Z" fill="#cacaca"/><path d="M41.24805,172.87109v1.47657h-.73828V168.126h.6123l.0625.50488h.02734a2.26052,2.26052,0,0,1,1.39551-.61328c1.125,0,1.72852.874,1.72852,2.2334,0,1.48535-.8916,2.3584-1.89063,2.3584a2.03326,2.03326,0,0,1-1.21582-.50391Zm1.07129-.88281c.71972,0,1.251-.65723,1.251-1.7373,0-.96387-.32422-1.61231-1.15234-1.61231a1.83943,1.83943,0,0,0-1.16992.59473v2.2959A1.73258,1.73258,0,0,0,42.31934,171.98828Z" fill="#cacaca"/><path d="M47.20605,168.01758a2.314,2.314,0,1,1-2.02539,2.30469A2.09177,2.09177,0,0,1,47.20605,168.01758Zm0,3.98047c.75684,0,1.26075-.67578,1.26075-1.67578,0-1.00782-.50391-1.69141-1.26075-1.69141-.74707,0-1.25976.68359-1.25976,1.69141C45.94629,171.32227,46.459,171.99805,47.20605,171.99805Z" fill="#cacaca"/><path d="M50.24805,166.74805a.51459.51459,0,0,1,1.02636,0,.51444.51444,0,0,1-1.02636,0Zm.13476,1.37793h.73828v4.376h-.73828Z" fill="#cacaca"/><path d="M52.59668,168.126h.6123l.0625.62988h.02735a2.06266,2.06266,0,0,1,1.46777-.73828c.918,0,1.332.59472,1.332,1.71094V172.502h-.73828v-2.67383c0-.82031-.25195-1.17089-.82812-1.17089-.4502,0-.75586.23437-1.19727.6748V172.502h-.73828Z" fill="#cacaca"/><path d="M57.64551,168.72949h-.64844v-.55761l.68457-.0459.08984-1.22364h.6211V168.126h1.17969v.60351H58.39258v2.43067c0,.54.1709.8457.67578.8457a1.57866,1.57866,0,0,0,.49512-.11719l.14355.5586a2.7002,2.7002,0,0,1-.81055.16211c-.93554,0-1.251-.59376-1.251-1.459Z" fill="#cacaca"/><path d="M62.4248,166.5957h.75586v5.2666h2.5752v.63965H62.4248Z" fill="#cacaca"/><path d="M68.23926,168.01758c1.11621,0,1.74609.80176,1.74609,2.05273a2.69651,2.69651,0,0,1-.02637.40625H67.00586a1.45551,1.45551,0,0,0,1.458,1.53906,1.97926,1.97926,0,0,0,1.08984-.34179l.26074.48535a2.60551,2.60551,0,0,1-1.44043.4502,2.3144,2.3144,0,0,1-.13476-4.5918Zm1.09765,1.97265c0-.8916-.3955-1.38671-1.08007-1.38671a1.36453,1.36453,0,0,0-1.25977,1.38671Z" fill="#cacaca"/><path d="M70.47949,168.126h.76465l.82813,2.48535c.126.43164.2705.873.40527,1.28711h.03613c.126-.41406.27051-.85547.39649-1.28711l.82812-2.48535h.72949L72.919,172.502h-.86426Z" fill="#cacaca"/><path d="M76.915,168.01758c1.11621,0,1.74609.80176,1.74609,2.05273a2.698,2.698,0,0,1-.02636.40625H75.68164a1.45551,1.45551,0,0,0,1.458,1.53906,1.97926,1.97926,0,0,0,1.08984-.34179l.26074.48535a2.60551,2.60551,0,0,1-1.44043.4502,2.3144,2.3144,0,0,1-.13476-4.5918Zm1.09766,1.97265c0-.8916-.39551-1.38671-1.08008-1.38671a1.36454,1.36454,0,0,0-1.25977,1.38671Z" fill="#cacaca"/><path d="M79.74023,166.0918h.73829v5.582c0,.2334.09863.32422.207.32422a.60331.60331,0,0,0,.16211-.01856l.09863.55762a.99144.99144,0,0,1-.42285.07227c-.5586,0-.78321-.35157-.78321-.99024Z" fill="#cacaca"/><path d="M32.58105,156.21387a2.29409,2.29409,0,0,0,1.62891.73828c.77442,0,1.2334-.3877,1.2334-.96387,0-.60254-.43164-.791-.99024-1.043l-.8457-.36914a1.58028,1.58028,0,0,1,.666-3.08789,2.41422,2.41422,0,0,1,1.7373.72852l-.39648.48632a1.8984,1.8984,0,0,0-1.34082-.55859c-.666,0-1.10742.334-1.10742.86524,0,.5664.52246.7832.98144.98046l.8457.36036a1.64373,1.64373,0,0,1,1.21582,1.57519,1.79192,1.79192,0,0,1-2.0166,1.6836,2.84184,2.84184,0,0,1-2.06152-.873Z" fill="#cacaca"/><path d="M37.20605,153.126h.748v2.67382c0,.81934.24219,1.1709.81836,1.1709.4502,0,.76563-.22558,1.17969-.73828V153.126h.73828v4.376h-.61231l-.0625-.68457h-.02734a1.84775,1.84775,0,0,1-1.44043.792c-.92773,0-1.3418-.59376-1.3418-1.71094Z" fill="#cacaca"/><path d="M42.04883,156.51172a1.96953,1.96953,0,0,0,1.28711.52148c.57617,0,.86426-.30664.86426-.68359,0-.45117-.52149-.64844-.999-.82813-.62109-.22558-1.30566-.52343-1.30566-1.26171,0-.70118.55859-1.24219,1.5039-1.24219a2.18238,2.18238,0,0,1,1.35938.49609l-.35156.46778a1.61978,1.61978,0,0,0-.999-.3877c-.54882,0-.80078.29785-.80078.63086,0,.4043.47656.56641.97168.75586.63086.23437,1.333.49609,1.333,1.32422,0,.71093-.56738,1.30469-1.60254,1.30469a2.63118,2.63118,0,0,1-1.62988-.60352Z" fill="#cacaca"/><path d="M46.0625,153.72949h-.64844v-.55761l.68457-.0459.08985-1.22364h.62109V153.126h1.17969v.60351H46.80957v2.43067c0,.54.1709.8457.67578.8457a1.5786,1.5786,0,0,0,.49512-.11719l.14355.5586a2.7002,2.7002,0,0,1-.81054.16211c-.93555,0-1.251-.59376-1.251-1.459Z" fill="#cacaca"/><path d="M51.292,154.72852c0-.5586-.18847-1.09766-.90039-1.09766a2.35476,2.35476,0,0,0-1.30566.46777l-.29688-.51269a3.2436,3.2436,0,0,1,1.71973-.56836c1.07129,0,1.52148.71191,1.52148,1.80078V157.502H51.418l-.0625-.52246h-.01856a2.378,2.378,0,0,1-1.44921.62989,1.19278,1.19278,0,0,1-1.28711-1.24219C48.60059,155.41211,49.42871,154.93555,51.292,154.72852Zm-1.19726,2.2871a1.78984,1.78984,0,0,0,1.19726-.58593v-1.21485c-1.46777.17969-1.96289.54-1.96289,1.09766A.67072.67072,0,0,0,50.09473,157.01562Z" fill="#cacaca"/><path d="M53.29,151.74805a.51459.51459,0,0,1,1.02637,0,.51444.51444,0,0,1-1.02637,0Zm.13476,1.37793h.73829v4.376H53.4248Z" fill="#cacaca"/><path d="M55.63867,153.126H56.251l.0625.62988h.02734a2.06266,2.06266,0,0,1,1.46777-.73828c.918,0,1.332.59472,1.332,1.71094V157.502h-.73828v-2.67383c0-.82031-.252-1.17089-.82812-1.17089-.4502,0-.75586.23437-1.19727.6748V157.502h-.73828Z" fill="#cacaca"/><path d="M62.42383,151.5957h.75586v5.2666h2.57519v.63965h-3.331Z" fill="#cacaca"/><path d="M68.23926,153.01758c1.11621,0,1.74609.80176,1.74609,2.05273a2.69651,2.69651,0,0,1-.02637.40625H67.00586a1.45551,1.45551,0,0,0,1.458,1.53906,1.97926,1.97926,0,0,0,1.08984-.34179l.26074.48535a2.60551,2.60551,0,0,1-1.44043.4502,2.3144,2.3144,0,0,1-.13476-4.5918Zm1.09765,1.97265c0-.8916-.3955-1.38671-1.08007-1.38671a1.36453,1.36453,0,0,0-1.25977,1.38671Z" fill="#cacaca"/><path d="M70.47949,153.126h.76465l.82813,2.48535c.126.43164.2705.873.40527,1.28711h.03613c.126-.41406.27051-.85547.39649-1.28711l.82812-2.48535h.72949L72.919,157.502h-.86426Z" fill="#cacaca"/><path d="M76.915,153.01758c1.11621,0,1.74609.80176,1.74609,2.05273a2.698,2.698,0,0,1-.02636.40625H75.68164a1.45551,1.45551,0,0,0,1.458,1.53906,1.97926,1.97926,0,0,0,1.08984-.34179l.26074.48535a2.60551,2.60551,0,0,1-1.44043.4502,2.3144,2.3144,0,0,1-.13476-4.5918Zm1.09766,1.97265c0-.8916-.39551-1.38671-1.08008-1.38671a1.36454,1.36454,0,0,0-1.25977,1.38671Z" fill="#cacaca"/><path d="M79.74023,151.0918h.73829v5.582c0,.2334.09863.32422.207.32422a.60331.60331,0,0,0,.16211-.01856l.09863.55762a.99144.99144,0,0,1-.42285.07227c-.5586,0-.78321-.35157-.78321-.99024Z" fill="#cacaca"/><path d="M32.58105,126.21387a2.29409,2.29409,0,0,0,1.62891.73828c.77442,0,1.2334-.3877,1.2334-.96387,0-.60254-.43164-.791-.99024-1.043l-.8457-.36914a1.58028,1.58028,0,0,1,.666-3.08789,2.41422,2.41422,0,0,1,1.7373.72852l-.39648.48632a1.8984,1.8984,0,0,0-1.34082-.55859c-.666,0-1.10742.334-1.10742.86524,0,.5664.52246.7832.98144.98046l.8457.36036a1.64373,1.64373,0,0,1,1.21582,1.57519,1.79192,1.79192,0,0,1-2.0166,1.6836,2.84184,2.84184,0,0,1-2.06152-.87305Z" fill="#cacaca"/><path d="M37.20605,123.126h.748v2.67382c0,.81934.24219,1.1709.81836,1.1709.4502,0,.76563-.22558,1.17969-.73828V123.126h.73828v4.376h-.61231l-.0625-.68457h-.02734a1.84775,1.84775,0,0,1-1.44043.792c-.92773,0-1.3418-.59376-1.3418-1.71094Z" fill="#cacaca"/><path d="M42.04883,126.51172a1.96953,1.96953,0,0,0,1.28711.52148c.57617,0,.86426-.30664.86426-.68359,0-.45117-.52149-.64844-.999-.82813-.62109-.22558-1.30566-.52343-1.30566-1.26171,0-.70118.55859-1.24219,1.5039-1.24219a2.18238,2.18238,0,0,1,1.35938.49609l-.35156.46778a1.61978,1.61978,0,0,0-.999-.3877c-.54882,0-.80078.29785-.80078.63086,0,.4043.47656.56641.97168.75586.63086.23437,1.333.49609,1.333,1.32422,0,.71093-.56738,1.30469-1.60254,1.30469a2.63118,2.63118,0,0,1-1.62988-.60352Z" fill="#cacaca"/><path d="M46.0625,123.72949h-.64844v-.55761l.68457-.0459.08985-1.22364h.62109V123.126h1.17969v.60351H46.80957v2.43067c0,.54.1709.8457.67578.8457a1.5786,1.5786,0,0,0,.49512-.11719l.14355.5586a2.7002,2.7002,0,0,1-.81054.16211c-.93555,0-1.251-.59376-1.251-1.459Z" fill="#cacaca"/><path d="M51.292,124.72852c0-.5586-.18847-1.09766-.90039-1.09766a2.35476,2.35476,0,0,0-1.30566.46777l-.29688-.51269a3.2436,3.2436,0,0,1,1.71973-.56836c1.07129,0,1.52148.71191,1.52148,1.80078V127.502H51.418l-.0625-.52246h-.01856a2.378,2.378,0,0,1-1.44921.62989,1.19278,1.19278,0,0,1-1.28711-1.24219C48.60059,125.41211,49.42871,124.93555,51.292,124.72852Zm-1.19726,2.2871a1.78984,1.78984,0,0,0,1.19726-.58593v-1.21485c-1.46777.17969-1.96289.54-1.96289,1.09766A.67072.67072,0,0,0,50.09473,127.01562Z" fill="#cacaca"/><path d="M53.29,121.74805a.51459.51459,0,0,1,1.02637,0,.51444.51444,0,0,1-1.02637,0Zm.13476,1.37793h.73829v4.376H53.4248Z" fill="#cacaca"/><path d="M55.63867,123.126H56.251l.0625.62988h.02734a2.06266,2.06266,0,0,1,1.46777-.73828c.918,0,1.332.59472,1.332,1.71094V127.502h-.73828v-2.67383c0-.82031-.252-1.17089-.82812-1.17089-.4502,0-.75586.23437-1.19727.6748V127.502h-.73828Z" fill="#cacaca"/><path d="M62.42383,121.5957h.75586v5.2666h2.57519v.63965h-3.331Z" fill="#cacaca"/><path d="M68.23926,123.01758c1.11621,0,1.74609.80176,1.74609,2.05273a2.69651,2.69651,0,0,1-.02637.40625H67.00586a1.45551,1.45551,0,0,0,1.458,1.53906,1.97926,1.97926,0,0,0,1.08984-.34179l.26074.48535a2.60551,2.60551,0,0,1-1.44043.4502,2.3144,2.3144,0,0,1-.13476-4.5918Zm1.09765,1.97265c0-.8916-.3955-1.38671-1.08007-1.38671a1.36453,1.36453,0,0,0-1.25977,1.38671Z" fill="#cacaca"/><path d="M70.47949,123.126h.76465l.82813,2.48535c.126.43164.2705.87305.40527,1.28711h.03613c.126-.41406.27051-.85547.39649-1.28711l.82812-2.48535h.72949L72.919,127.502h-.86426Z" fill="#cacaca"/><path d="M76.915,123.01758c1.11621,0,1.74609.80176,1.74609,2.05273a2.698,2.698,0,0,1-.02636.40625H75.68164a1.45551,1.45551,0,0,0,1.458,1.53906,1.97926,1.97926,0,0,0,1.08984-.34179l.26074.48535a2.60551,2.60551,0,0,1-1.44043.4502,2.3144,2.3144,0,0,1-.13476-4.5918Zm1.09766,1.97265c0-.8916-.39551-1.38671-1.08008-1.38671a1.36454,1.36454,0,0,0-1.25977,1.38671Z" fill="#cacaca"/><path d="M79.74023,121.0918h.73829v5.582c0,.2334.09863.32422.207.32422a.60331.60331,0,0,0,.16211-.01856l.09863.55762a.99144.99144,0,0,1-.42285.07227c-.5586,0-.78321-.35157-.78321-.99024Z" fill="#cacaca"/><path d="M359.5625,147.22656h-1.792v-.63086h4.33105v.63086h-1.792V152.502h-.74707Z" fill="#cacaca"/><path d="M362.92871,146.749a.51452.51452,0,0,1,1.02637,0,.51452.51452,0,0,1-1.02637,0Zm.13477,1.37793h.73828v4.375h-.73828Z" fill="#cacaca"/><path d="M365.27734,148.127h.61231l.0625.62989h.02734a1.922,1.922,0,0,1,1.35938-.73829,1.14808,1.14808,0,0,1,1.20605.83692,2.07164,2.07164,0,0,1,1.44043-.83692c.90039,0,1.333.59473,1.333,1.71V152.502h-.73828v-2.67383c0-.81933-.26172-1.16992-.81055-1.16992a1.60588,1.60588,0,0,0-1.09863.67481V152.502h-.73828v-2.67383c0-.81933-.26074-1.16992-.81836-1.16992a1.641,1.641,0,0,0-1.09864.67481V152.502h-.73828Z" fill="#cacaca"/><path d="M374.377,148.01855c1.11621,0,1.7461.80176,1.7461,2.05274a2.67363,2.67363,0,0,1-.02637.40527h-2.95313a1.45552,1.45552,0,0,0,1.458,1.53906,1.97929,1.97929,0,0,0,1.08985-.34179l.26074.48633a2.613,2.613,0,0,1-1.44043.44922,2.31385,2.31385,0,0,1-.13477-4.59083Zm1.09766,1.97168c0-.89062-.39551-1.38671-1.08008-1.38671a1.36453,1.36453,0,0,0-1.25976,1.38671Z" fill="#cacaca"/><path d="M96.91211,216.76172h.77441l2.14258,3.709.63867,1.22461h.03614c-.03614-.59375-.09864-1.25976-.09864-1.88086v-3.05273h.71094V222.668h-.77441L98.209,218.94922l-.63964-1.21484H97.5332c.03614.59374.08985,1.2246.08985,1.8457V222.668h-.71094Z" fill="#cacaca"/><path d="M104.34668,218.18457a2.31341,2.31341,0,1,1-2.02539,2.30469A2.09052,2.09052,0,0,1,104.34668,218.18457Zm0,3.97949c.75684,0,1.26074-.67578,1.26074-1.6748,0-1.00879-.5039-1.69238-1.26074-1.69238-.74707,0-1.25977.68359-1.25977,1.69238C103.08691,221.48828,103.59961,222.16406,104.34668,222.16406Z" fill="#cacaca"/><path d="M107.64941,218.89648H107.001v-.55859l.68457-.04492.08984-1.22461h.62109V218.293h1.17969v.60351h-1.17969v2.42969c0,.541.1709.84668.67579.84668a1.60581,1.60581,0,0,0,.49511-.11719l.14356.55762a2.67039,2.67039,0,0,1-.81055.16211c-.93555,0-1.251-.59375-1.251-1.458Z" fill="#cacaca"/><path d="M112.11426,218.18457c1.11621,0,1.74609.80176,1.74609,2.05273a2.67378,2.67378,0,0,1-.02637.40528h-2.95312a1.45552,1.45552,0,0,0,1.458,1.53906,1.97919,1.97919,0,0,0,1.08984-.3418l.26074.48633a2.613,2.613,0,0,1-1.44043.44922,2.31385,2.31385,0,0,1-.13476-4.59082Zm1.09765,1.97168c0-.89063-.3955-1.38672-1.08007-1.38672a1.36454,1.36454,0,0,0-1.25977,1.38672Z" fill="#cacaca"/><path d="M116.46,219.6875c0-1.89062,1.044-3.0332,2.5293-3.0332,1.47656,0,2.52051,1.15234,2.52051,3.0332,0,1.90039-1.044,3.08789-2.52051,3.08789C117.50391,222.77539,116.46,221.58789,116.46,219.6875Zm4.27637,0c0-1.4668-.69336-2.376-1.74707-2.376-1.0625,0-1.75488.90918-1.75488,2.376,0,1.47656.69238,2.43164,1.75488,2.43164C120.043,222.11914,120.73633,221.16406,120.73633,219.6875Z" fill="#cacaca"/><path d="M122.6875,218.293h.6123l.0625.62988h.02735a2.06266,2.06266,0,0,1,1.46777-.73828c.918,0,1.332.59473,1.332,1.71V222.668h-.73828v-2.67383c0-.81934-.252-1.16992-.82812-1.16992-.4502,0-.75586.23437-1.19727.6748V222.668h-.73828Z" fill="#cacaca"/><path d="M275.29,216.76172h.77441l2.14258,3.709.63867,1.22461h.03614c-.03614-.59375-.09864-1.25976-.09864-1.88086v-3.05273h.71094V222.668h-.77441l-2.13282-3.71875-.63964-1.21484h-.03614c.03614.59374.08985,1.2246.08985,1.8457V222.668H275.29Z" fill="#cacaca"/><path d="M282.72461,218.18457a2.31341,2.31341,0,1,1-2.02539,2.30469A2.09052,2.09052,0,0,1,282.72461,218.18457Zm0,3.97949c.75684,0,1.26074-.67578,1.26074-1.6748,0-1.00879-.5039-1.69238-1.26074-1.69238-.74707,0-1.25977.68359-1.25977,1.69238C281.46484,221.48828,281.97754,222.16406,282.72461,222.16406Z" fill="#cacaca"/><path d="M286.02734,218.89648h-.64843v-.55859l.68457-.04492.08984-1.22461h.62109V218.293h1.17969v.60351h-1.17969v2.42969c0,.541.1709.84668.67579.84668a1.60581,1.60581,0,0,0,.49511-.11719l.14356.55762a2.67039,2.67039,0,0,1-.81055.16211c-.93555,0-1.251-.59375-1.251-1.458Z" fill="#cacaca"/><path d="M290.49219,218.18457c1.11621,0,1.74609.80176,1.74609,2.05273a2.67378,2.67378,0,0,1-.02637.40528h-2.95312a1.45552,1.45552,0,0,0,1.458,1.53906,1.97919,1.97919,0,0,0,1.08984-.3418l.26074.48633a2.613,2.613,0,0,1-1.44043.44922,2.31385,2.31385,0,0,1-.13476-4.59082Zm1.09765,1.97168c0-.89063-.3955-1.38672-1.08007-1.38672a1.36454,1.36454,0,0,0-1.25977,1.38672Z" fill="#cacaca"/><path d="M294.83789,219.6875c0-1.89062,1.04395-3.0332,2.5293-3.0332,1.47656,0,2.52051,1.15234,2.52051,3.0332,0,1.90039-1.04395,3.08789-2.52051,3.08789C295.88184,222.77539,294.83789,221.58789,294.83789,219.6875Zm4.27637,0c0-1.4668-.69336-2.376-1.74707-2.376-1.0625,0-1.75489.90918-1.75489,2.376,0,1.47656.69239,2.43164,1.75489,2.43164C298.4209,222.11914,299.11426,221.16406,299.11426,219.6875Z" fill="#cacaca"/><path d="M305.60254,216.86133a1.28859,1.28859,0,0,0-.49512-.10742c-.41406,0-.62109.28711-.62109.8457v.69336h.92773v.60351h-.92773V222.668h-.73828v-3.77149h-1.81836V222.668h-.73828v-3.77149h-.59375v-.55859l.59375-.04492v-.57617c0-.91016.45019-1.47657,1.35937-1.47657a2.004,2.004,0,0,1,.80078.16211l-.15234.5586a1.40161,1.40161,0,0,0-.585-.11719c-.43262,0-.68457.31445-.68457.89063v.55859h1.81836v-.69336c0-.8916.40527-1.44922,1.27832-1.44922a1.98238,1.98238,0,0,1,.72949.14356Z" fill="#cacaca"/><path d="M156.41406,51.5957h1.47656c1.81836,0,2.791,1.05274,2.791,2.92578,0,1.88184-.97266,2.98047-2.75391,2.98047h-1.51367Zm1.42383,5.293c1.38477,0,2.07031-.873,2.07031-2.36719,0-1.48535-.68554-2.31347-2.07031-2.31347h-.668v4.68066Z" fill="#cacaca"/><path d="M163.51562,53.01758c1.11719,0,1.7461.80176,1.7461,2.05273a2.70925,2.70925,0,0,1-.02539.40625H162.2832a1.45477,1.45477,0,0,0,1.457,1.53906,1.97927,1.97927,0,0,0,1.08985-.34179l.26172.48535a2.6115,2.6115,0,0,1-1.44141.4502,2.3144,2.3144,0,0,1-.13477-4.5918Zm1.09766,1.97265c0-.8916-.39453-1.38671-1.08008-1.38671a1.36521,1.36521,0,0,0-1.25976,1.38671Z" fill="#cacaca"/><path d="M168.12305,53.01758a1.80553,1.80553,0,0,1,1.27929.52344l-.36914.47656a1.32592,1.32592,0,0,0-.88281-.38672c-.791,0-1.36719.68359-1.36719,1.69141,0,1,.54883,1.67578,1.34961,1.67578a1.55855,1.55855,0,0,0,1.02539-.44141l.334.48633a2.169,2.169,0,0,1-1.42188.56641,2.05457,2.05457,0,0,1-2.05273-2.28711A2.11871,2.11871,0,0,1,168.12305,53.01758Z" fill="#cacaca"/><path d="M172.832,54.72852c0-.5586-.18945-1.09766-.90039-1.09766a2.34607,2.34607,0,0,0-1.30469.46777l-.29883-.51269a3.24719,3.24719,0,0,1,1.72071-.56836c1.07031,0,1.52148.71191,1.52148,1.80078V57.502H172.957l-.0625-.52246H172.877a2.38278,2.38278,0,0,1-1.44922.62989,1.19278,1.19278,0,0,1-1.28711-1.24219C170.14062,55.41211,170.96875,54.93555,172.832,54.72852Zm-1.19726,2.2871a1.79375,1.79375,0,0,0,1.19726-.58593V55.21484c-1.46875.17969-1.96289.54-1.96289,1.09766A.67113.67113,0,0,0,171.63477,57.01562Z" fill="#cacaca"/><path d="M175,58.77148c.49414,0,.81055-.39648.99023-.9375l.09766-.32421L174.334,53.126h.76368l.89257,2.42187c.13477.37793.28711.82813.42188,1.2334h.03711c.125-.39648.25195-.8457.36914-1.2334l.7832-2.42187h.72071l-1.64844,4.73535c-.30664.86523-.75586,1.52148-1.63867,1.52148a1.44633,1.44633,0,0,1-.51368-.08984l.14454-.585A1.30774,1.30774,0,0,0,175,58.77148Z" fill="#cacaca"/><path d="M180.957,56.88867h1.31445V52.6582h-1.04492v-.47754a3.3882,3.3882,0,0,0,1.21485-.42285h.56836v5.13086h1.1875V57.502H180.957Z" fill="#cacaca"/><path d="M226.40039,51.5957H227.877c1.81836,0,2.791,1.05274,2.791,2.92578,0,1.88184-.97266,2.98047-2.75488,2.98047h-1.5127Zm1.42285,5.293c1.38574,0,2.07031-.873,2.07031-2.36719,0-1.48535-.68457-2.31347-2.07031-2.31347h-.667v4.68066Z" fill="#cacaca"/><path d="M233.502,53.01758c1.11621,0,1.7461.80176,1.7461,2.05273a2.69651,2.69651,0,0,1-.02637.40625h-2.95313a1.45552,1.45552,0,0,0,1.458,1.53906,1.97929,1.97929,0,0,0,1.08985-.34179l.26074.48535a2.60551,2.60551,0,0,1-1.44043.4502,2.3144,2.3144,0,0,1-.13477-4.5918Zm1.09766,1.97265c0-.8916-.39551-1.38671-1.08008-1.38671a1.36453,1.36453,0,0,0-1.25976,1.38671Z" fill="#cacaca"/><path d="M238.10938,53.01758a1.80311,1.80311,0,0,1,1.27832.52344l-.36915.47656a1.32355,1.32355,0,0,0-.88183-.38672c-.792,0-1.36817.68359-1.36817,1.69141,0,1,.54883,1.67578,1.34961,1.67578a1.56109,1.56109,0,0,0,1.02637-.44141l.333.48633a2.1651,2.1651,0,0,1-1.42188.56641,2.05509,2.05509,0,0,1-2.05273-2.28711A2.11943,2.11943,0,0,1,238.10938,53.01758Z" fill="#cacaca"/><path d="M242.81738,54.72852c0-.5586-.18945-1.09766-.90039-1.09766a2.34884,2.34884,0,0,0-1.30469.46777l-.29785-.51269a3.2436,3.2436,0,0,1,1.71973-.56836c1.07129,0,1.52148.71191,1.52148,1.80078V57.502h-.6123l-.0625-.52246h-.01856a2.378,2.378,0,0,1-1.44921.62989,1.19278,1.19278,0,0,1-1.28711-1.24219C240.126,55.41211,240.9541,54.93555,242.81738,54.72852Zm-1.19726,2.2871a1.78984,1.78984,0,0,0,1.19726-.58593V55.21484c-1.46777.17969-1.96289.54-1.96289,1.09766A.67114.67114,0,0,0,241.62012,57.01562Z" fill="#cacaca"/><path d="M244.98535,58.77148c.49512,0,.81055-.39648.99024-.9375l.09863-.32421L244.31934,53.126h.76464l.89161,2.42187c.13476.37793.28808.82813.42285,1.2334h.03613c.126-.39648.25195-.8457.36914-1.2334l.7832-2.42187h.72071l-1.64844,4.73535c-.30566.86523-.75586,1.52148-1.6377,1.52148a1.44222,1.44222,0,0,1-.51367-.08984l.14453-.585A1.30842,1.30842,0,0,0,244.98535,58.77148Z" fill="#cacaca"/><path d="M250.5918,57.06055c1.72851-1.71973,2.70019-2.75489,2.70019-3.68164a1.01682,1.01682,0,0,0-1.08887-1.126,1.69048,1.69048,0,0,0-1.2246.69336l-.42286-.42285a2.25236,2.25236,0,0,1,1.73731-.873,1.59444,1.59444,0,0,1,1.71973,1.69141c0,1.08008-.98145,2.15234-2.34082,3.57422.31542-.02735.666-.05372.96289-.05372h1.666V57.502h-3.709Z" fill="#cacaca"/><path d="M309.6543,57.502l-1.42285-2.49414H307.169V57.502h-.75586V51.5957h1.85449c1.19726,0,2.06152.43164,2.06152,1.65625a1.62049,1.62049,0,0,1-1.32324,1.67481l1.50391,2.57519ZM307.169,54.39551h.99023c.91894,0,1.42285-.37793,1.42285-1.14356,0-.77343-.50391-1.05273-1.42285-1.05273H307.169Z" fill="#cacaca"/><path d="M313.10059,53.01758c1.11621,0,1.74609.80176,1.74609,2.05273a2.69651,2.69651,0,0,1-.02637.40625h-2.95312a1.45551,1.45551,0,0,0,1.458,1.53906,1.97926,1.97926,0,0,0,1.08984-.34179l.26074.48535a2.60551,2.60551,0,0,1-1.44043.4502,2.3144,2.3144,0,0,1-.13476-4.5918Zm1.09765,1.97265c0-.8916-.39551-1.38671-1.08008-1.38671a1.36453,1.36453,0,0,0-1.25976,1.38671Z" fill="#cacaca"/><path d="M315.92578,51.0918h.73828v5.582c0,.2334.09864.32422.207.32422a.60323.60323,0,0,0,.16211-.01856l.09864.55762a.99149.99149,0,0,1-.42286.07227c-.55859,0-.7832-.35157-.7832-.99024Z" fill="#cacaca"/><path d="M319.85938,53.01758c1.11621,0,1.74609.80176,1.74609,2.05273a2.69651,2.69651,0,0,1-.02637.40625H318.626a1.45551,1.45551,0,0,0,1.458,1.53906,1.97927,1.97927,0,0,0,1.08985-.34179l.26074.48535a2.60551,2.60551,0,0,1-1.44043.4502,2.3144,2.3144,0,0,1-.13476-4.5918Zm1.09765,1.97265c0-.8916-.39551-1.38671-1.08008-1.38671a1.36453,1.36453,0,0,0-1.25976,1.38671Z" fill="#cacaca"/><path d="M325.03418,54.72852c0-.5586-.18848-1.09766-.90039-1.09766a2.35479,2.35479,0,0,0-1.30567.46777l-.29687-.51269a3.24357,3.24357,0,0,1,1.71973-.56836c1.07129,0,1.52148.71191,1.52148,1.80078V57.502h-.6123l-.0625-.52246h-.01856a2.378,2.378,0,0,1-1.44922.62989,1.19278,1.19278,0,0,1-1.28711-1.24219C322.34277,55.41211,323.1709,54.93555,325.03418,54.72852Zm-1.19727,2.2871a1.78984,1.78984,0,0,0,1.19727-.58593V55.21484c-1.46777.17969-1.96289.54-1.96289,1.09766A.67071.67071,0,0,0,323.83691,57.01562Z" fill="#cacaca"/><path d="M327.0498,56.51172a1.96955,1.96955,0,0,0,1.28711.52148c.57618,0,.86426-.30664.86426-.68359,0-.45117-.52148-.64844-.999-.82813-.6211-.22558-1.30567-.52343-1.30567-1.26171,0-.70118.5586-1.24219,1.50391-1.24219a2.18238,2.18238,0,0,1,1.35938.49609l-.35157.46778a1.61973,1.61973,0,0,0-.999-.3877c-.54883,0-.80078.29785-.80078.63086,0,.4043.47656.56641.97168.75586.63086.23437,1.333.49609,1.333,1.32422,0,.71093-.56739,1.30469-1.60254,1.30469a2.63121,2.63121,0,0,1-1.62989-.60352Z" fill="#cacaca"/><path d="M332.57617,53.01758c1.11621,0,1.7461.80176,1.7461,2.05273a2.69651,2.69651,0,0,1-.02637.40625h-2.95313a1.45552,1.45552,0,0,0,1.458,1.53906,1.97923,1.97923,0,0,0,1.08984-.34179l.26075.48535a2.60551,2.60551,0,0,1-1.44043.4502,2.3144,2.3144,0,0,1-.13477-4.5918Zm1.09766,1.97265c0-.8916-.39551-1.38671-1.08008-1.38671a1.36455,1.36455,0,0,0-1.25977,1.38671Z" fill="#cacaca"/><path d="M179.88574,11.124h3.40332v.62989H180.6416v1.85547h2.2334v.63867h-2.2334v2.14257h2.73731v.63868h-3.49317Z" fill="#cacaca"/><path d="M184.53906,12.6543h.61231l.0625.63086h.02734a2.06262,2.06262,0,0,1,1.46777-.73828c.918,0,1.332.59374,1.332,1.71V17.0293h-.73829V14.35547c0-.81836-.25195-1.16992-.82812-1.16992-.4502,0-.75586.23437-1.19727.67578v3.168h-.73828Z" fill="#cacaca"/><path d="M188.832,12.6543h.76465l.82812,2.48437c.126.43262.27051.874.40528,1.28809h.03613c.126-.41406.27051-.85547.39649-1.28809l.82812-2.48437h.72949l-1.54883,4.375h-.86425Z" fill="#cacaca"/><path d="M195.26758,12.54688c1.11621,0,1.74609.80078,1.74609,2.05273a2.66006,2.66006,0,0,1-.02637.4043h-2.95312a1.45552,1.45552,0,0,0,1.458,1.53906,1.97927,1.97927,0,0,0,1.08984-.3418l.26074.48633a2.60551,2.60551,0,0,1-1.44043.4502,2.09186,2.09186,0,0,1-2.09765-2.28614A2.10972,2.10972,0,0,1,195.26758,12.54688Zm1.09765,1.9707c0-.89063-.3955-1.38574-1.08007-1.38574a1.36426,1.36426,0,0,0-1.25977,1.38574Z" fill="#cacaca"/><path d="M198.09277,10.61914h.73828v5.582c0,.23438.09864.32422.207.32422a.63554.63554,0,0,0,.16211-.01758l.09863.5586a.99384.99384,0,0,1-.42285.07129c-.5586,0-.78321-.35059-.78321-.99024Z" fill="#cacaca"/><path d="M202.08887,12.54688a2.0912,2.0912,0,0,1,2.02636,2.30468,2.04069,2.04069,0,1,1-4.05175,0A2.09051,2.09051,0,0,1,202.08887,12.54688Zm0,3.97851c.75683,0,1.26074-.6748,1.26074-1.67383,0-1.00879-.50391-1.69336-1.26074-1.69336-.74707,0-1.25977.68457-1.25977,1.69336C200.8291,15.85059,201.3418,16.52539,202.08887,16.52539Z" fill="#cacaca"/><path d="M206.00391,17.39844V18.875h-.73829V12.6543h.61231l.0625.5039h.02734a2.26891,2.26891,0,0,1,1.39551-.61132c1.125,0,1.72852.873,1.72852,2.23242,0,1.48535-.8916,2.3584-1.89063,2.3584a2.0272,2.0272,0,0,1-1.21582-.50391Zm1.07129-.88184c.71972,0,1.251-.65722,1.251-1.7373,0-.96289-.32422-1.61133-1.15234-1.61133a1.84228,1.84228,0,0,0-1.16992.59375v2.2959A1.73258,1.73258,0,0,0,207.0752,16.5166Z" fill="#cacaca"/><path d="M211.89941,12.54688c1.11621,0,1.7461.80078,1.7461,2.05273a2.66006,2.66006,0,0,1-.02637.4043H210.666a1.45552,1.45552,0,0,0,1.458,1.53906,1.97927,1.97927,0,0,0,1.08985-.3418l.26074.48633a2.60551,2.60551,0,0,1-1.44043.4502,2.09186,2.09186,0,0,1-2.09766-2.28614A2.10972,2.10972,0,0,1,211.89941,12.54688Zm1.09766,1.9707c0-.89063-.39551-1.38574-1.08008-1.38574a1.36426,1.36426,0,0,0-1.25976,1.38574Z" fill="#cacaca"/><path d="M218.88281,11.01562a2.17956,2.17956,0,0,1,1.61133.7295l-.42285.47754a1.57535,1.57535,0,0,0-1.17969-.54883c-1.125,0-1.87207.918-1.87207,2.38476,0,1.48633.71094,2.42188,1.83594,2.42188a1.72331,1.72331,0,0,0,1.35058-.65723l.42286.46a2.26409,2.26409,0,0,1-1.791.8545c-1.48535,0-2.59277-1.13379-2.59277-3.06153C216.24512,12.17773,217.37012,11.01562,218.88281,11.01562Z" fill="#cacaca"/><line x1="79.99992" y1="141" x2="369.45767" y2="141" fill="none" stroke="#979797" stroke-width="0.5"/><polygon points="367.301 143.545 366.96 143.179 369.266 141 366.96 138.822 367.301 138.456 370 141 367.301 143.545" fill="#979797"/><line x1="90.00003" y1="41.54248" x2="90.00003" y2="221" fill="none" stroke="#979797" stroke-width="0.5"/><polygon points="87.455 43.699 87.821 44.04 90 41.734 92.178 44.04 92.544 43.699 90 41 87.455 43.699" fill="#979797"/><line x1="84.25" y1="71.00077" x2="90.25" y2="71" fill="none" stroke="#979797" stroke-width="0.5"/><line x1="84.25" y1="110.99896" x2="90.25" y2="110.99819" fill="none" stroke="#979797" stroke-width="0.5"/><line x1="84.25" y1="170.99896" x2="90.25" y2="170.99819" fill="none" stroke="#979797" stroke-width="0.5"/><line x1="84.25" y1="155.99896" x2="90.25" y2="155.99819" fill="none" stroke="#979797" stroke-width="0.5"/><line x1="84.25" y1="125.99896" x2="90.25" y2="125.99819" fill="none" stroke="#979797" stroke-width="0.5"/><line x1="110" y1="210.99924" x2="110" y2="40.9991" fill="none" stroke="#666" stroke-width="0.5" stroke-dasharray="2 1"/><line x1="89.99962" y1="71" x2="150" y2="71" fill="none" stroke="#666" stroke-width="0.5" stroke-dasharray="2 1"/><line x1="150" y1="210.99924" x2="150" y2="40.9991" fill="none" stroke="#666" stroke-width="0.5" stroke-dasharray="2 1"/><line x1="190" y1="210.99924" x2="190" y2="40.9991" fill="none" stroke="#666" stroke-width="0.5" stroke-dasharray="2 1"/><line x1="290" y1="210.99924" x2="290" y2="40.9991" fill="none" stroke="#666" stroke-width="0.5" stroke-dasharray="2 1"/><line x1="350" y1="210.99924" x2="350" y2="40.9991" fill="none" stroke="#666" stroke-width="0.5" stroke-dasharray="2 1"/><line x1="89.99962" y1="110.99895" x2="190.00038" y2="110.99895" fill="none" stroke="#666" stroke-width="0.5" stroke-dasharray="2 1"/><line x1="89.99962" y1="155.99895" x2="290.00038" y2="155.99895" fill="none" stroke="#666" stroke-width="0.5" stroke-dasharray="2 1"/><line x1="89.99962" y1="125.99895" x2="290.00038" y2="125.99895" fill="none" stroke="#666" stroke-width="0.5" stroke-dasharray="2 1"/><line x1="89.99962" y1="170.99895" x2="190.00038" y2="170.99895" fill="none" stroke="#666" stroke-width="0.5" stroke-dasharray="2 1"/><path d="M150,71l40,39.99871C220.75,137.625,245,156,290,156c15-15,36.36364-15,60-15" fill="none" stroke="#e9a460" stroke-miterlimit="10" stroke-width="0.8"/><path d="M110,141l40-70,40,100c14.0002-27,45-45,100-45,15,15,36.36364,15,60,15" fill="none" stroke="#e9d77d" stroke-miterlimit="10" stroke-width="0.8"/><circle cx="150" cy="71" r="2.25" fill="#c46417"/><path d="M150,69a2,2,0,1,1-2,2,2.00212,2.00212,0,0,1,2-2m0-.5a2.5,2.5,0,1,0,2.5,2.5,2.49991,2.49991,0,0,0-2.5-2.5Z" fill="#c1c9fd"/><path d="M150,68.5a2.5,2.5,0,1,1-2.5,2.5,2.49991,2.49991,0,0,1,2.5-2.5m0-.5a3,3,0,1,0,3,3,3.00333,3.00333,0,0,0-3-3Z"/><circle cx="290" cy="155.99805" r="2.25" fill="#c46417"/><path d="M290,153.99805a2,2,0,1,1-2,2,2.00212,2.00212,0,0,1,2-2m0-.5a2.5,2.5,0,1,0,2.5,2.5,2.49991,2.49991,0,0,0-2.5-2.5Z" fill="#c1c9fd"/><path d="M290,153.49805a2.5,2.5,0,1,1-2.5,2.5,2.49991,2.49991,0,0,1,2.5-2.5m0-.5a3,3,0,1,0,3,3,3.00333,3.00333,0,0,0-3-3Z"/><circle cx="290" cy="125.99805" r="2.25" fill="#c46417"/><path d="M290,123.99805a2,2,0,1,1-2,2,2.00212,2.00212,0,0,1,2-2m0-.5a2.5,2.5,0,1,0,2.5,2.5,2.49991,2.49991,0,0,0-2.5-2.5Z" fill="#c1c9fd"/><path d="M290,123.49805a2.5,2.5,0,1,1-2.5,2.5,2.49991,2.49991,0,0,1,2.5-2.5m0-.5a3,3,0,1,0,3,3,3.00333,3.00333,0,0,0-3-3Z"/><circle cx="190" cy="111" r="2.25" fill="#c46417"/><path d="M190,109a2,2,0,1,1-2,2,2.00212,2.00212,0,0,1,2-2m0-.5a2.5,2.5,0,1,0,2.5,2.5,2.49991,2.49991,0,0,0-2.5-2.5Z" fill="#c1c9fd"/><path d="M190,108.5a2.5,2.5,0,1,1-2.5,2.5,2.49991,2.49991,0,0,1,2.5-2.5m0-.5a3,3,0,1,0,3,3,3.00333,3.00333,0,0,0-3-3Z"/><circle cx="190" cy="171" r="2.25" fill="#c46417"/><path d="M190,169a2,2,0,1,1-2,2,2.00212,2.00212,0,0,1,2-2m0-.5a2.5,2.5,0,1,0,2.5,2.5,2.49991,2.49991,0,0,0-2.5-2.5Z" fill="#c1c9fd"/><path d="M190,168.5a2.5,2.5,0,1,1-2.5,2.5,2.49991,2.49991,0,0,1,2.5-2.5m0-.5a3,3,0,1,0,3,3,3.00333,3.00333,0,0,0-3-3Z"/></svg>