<svg xmlns="http://www.w3.org/2000/svg" viewBox="0 0 400 250"><title>envelope-ab</title><rect x="0.25" y="0.25" width="399.5" height="249.5" rx="1.75" ry="1.75" fill="#202020"/><path d="M398,.5A1.50168,1.50168,0,0,1,399.5,2V248a1.50168,1.50168,0,0,1-1.5,1.5H2A1.50167,1.50167,0,0,1,.5,248V2A1.50167,1.50167,0,0,1,2,.5H398m0-.5H2A2.00006,2.00006,0,0,0,0,2V248a2.00006,2.00006,0,0,0,2,2H398a2,2,0,0,0,2-2V2a2,2,0,0,0-2-2Z" fill="#363636"/><rect x="9.5" y="20.5" width="381" height="221" fill="#0f0f0f"/><path d="M390,21V241H10V21H390m1-1H9V242H391V20Z" fill="#363636"/><rect x="9.5" y="7.5" width="381" height="13" fill="#363636"/><path d="M390,8V20H10V8H390m1-1H9V21H391V7Z" fill="#363636"/><line x1="60" y1="21" x2="60" y2="241.00079" fill="none" stroke="#202020" stroke-width="0.5"/><line x1="50" y1="21" x2="50" y2="241.00079" fill="none" stroke="#202020" stroke-width="0.5"/><line x1="40" y1="21" x2="40" y2="241.00079" fill="none" stroke="#202020" stroke-width="0.5"/><line x1="30" y1="21" x2="30" y2="241.00079" fill="none" stroke="#202020" stroke-width="0.5"/><line x1="20" y1="21" x2="20" y2="241.00079" fill="none" stroke="#202020" stroke-width="0.5"/><line x1="70" y1="21" x2="70" y2="241.00079" fill="none" stroke="#202020" stroke-width="0.5"/><line x1="80" y1="21" x2="80" y2="241.00079" fill="none" stroke="#202020" stroke-width="0.5"/><line x1="90" y1="21" x2="90" y2="241.00079" fill="none" stroke="#202020" stroke-width="0.5"/><line x1="100" y1="21" x2="100" y2="241.00079" fill="none" stroke="#202020" stroke-width="0.5"/><line x1="110" y1="21" x2="110" y2="241.00079" fill="none" stroke="#202020" stroke-width="0.5"/><line x1="120" y1="21" x2="120" y2="241.00079" fill="none" stroke="#202020" stroke-width="0.5"/><line x1="130" y1="21" x2="130" y2="241.00079" fill="none" stroke="#202020" stroke-width="0.5"/><line x1="140" y1="21" x2="140" y2="241.00079" fill="none" stroke="#202020" stroke-width="0.5"/><line x1="150" y1="21" x2="150" y2="241.00079" fill="none" stroke="#202020" stroke-width="0.5"/><line x1="160" y1="21" x2="160" y2="241.00079" fill="none" stroke="#202020" stroke-width="0.5"/><line x1="170" y1="21" x2="170" y2="241.00079" fill="none" stroke="#202020" stroke-width="0.5"/><line x1="180" y1="21" x2="180" y2="241.00079" fill="none" stroke="#202020" stroke-width="0.5"/><line x1="190" y1="21" x2="190" y2="241.00079" fill="none" stroke="#202020" stroke-width="0.5"/><line x1="220" y1="21" x2="220" y2="241.00079" fill="none" stroke="#202020" stroke-width="0.5"/><line x1="210" y1="21" x2="210" y2="241.00079" fill="none" stroke="#202020" stroke-width="0.5"/><line x1="200" y1="21" x2="200" y2="241.00079" fill="none" stroke="#202020" stroke-width="0.5"/><line x1="230" y1="21" x2="230" y2="241.00079" fill="none" stroke="#202020" stroke-width="0.5"/><line x1="240" y1="21" x2="240" y2="241.00079" fill="none" stroke="#202020" stroke-width="0.5"/><line x1="250" y1="21" x2="250" y2="241.00079" fill="none" stroke="#202020" stroke-width="0.5"/><line x1="260" y1="21" x2="260" y2="241.00079" fill="none" stroke="#202020" stroke-width="0.5"/><line x1="270" y1="21" x2="270" y2="241.00079" fill="none" stroke="#202020" stroke-width="0.5"/><line x1="280" y1="21" x2="280" y2="241.00079" fill="none" stroke="#202020" stroke-width="0.5"/><line x1="290" y1="21" x2="290" y2="241.00079" fill="none" stroke="#202020" stroke-width="0.5"/><line x1="300" y1="21" x2="300" y2="241.00079" fill="none" stroke="#202020" stroke-width="0.5"/><line x1="310" y1="21" x2="310" y2="241.00079" fill="none" stroke="#202020" stroke-width="0.5"/><line x1="320" y1="21" x2="320" y2="241.00079" fill="none" stroke="#202020" stroke-width="0.5"/><line x1="330" y1="21" x2="330" y2="241.00079" fill="none" stroke="#202020" stroke-width="0.5"/><line x1="340" y1="21" x2="340" y2="241.00079" fill="none" stroke="#202020" stroke-width="0.5"/><line x1="350" y1="21" x2="350" y2="241.00079" fill="none" stroke="#202020" stroke-width="0.5"/><line x1="360" y1="21" x2="360" y2="241.00079" fill="none" stroke="#202020" stroke-width="0.5"/><line x1="370" y1="21" x2="370" y2="241.00079" fill="none" stroke="#202020" stroke-width="0.5"/><line x1="380" y1="21" x2="380" y2="241.00079" fill="none" stroke="#202020" stroke-width="0.5"/><line x1="9.99999" y1="110.9986" x2="389.99991" y2="110.9986" fill="none" stroke="#202020" stroke-width="0.5"/><line x1="9.99999" y1="120.99937" x2="389.99991" y2="120.99937" fill="none" stroke="#202020" stroke-width="0.5"/><line x1="9.99999" y1="100.9986" x2="389.99991" y2="100.9986" fill="none" stroke="#202020" stroke-width="0.5"/><line x1="9.99999" y1="90.9986" x2="389.99991" y2="90.9986" fill="none" stroke="#202020" stroke-width="0.5"/><line x1="9.99999" y1="80.9986" x2="389.99991" y2="80.9986" fill="none" stroke="#202020" stroke-width="0.5"/><line x1="9.99999" y1="70.9986" x2="389.99991" y2="70.9986" fill="none" stroke="#202020" stroke-width="0.5"/><line x1="9.99999" y1="60.9986" x2="389.99991" y2="60.9986" fill="none" stroke="#202020" stroke-width="0.5"/><line x1="9.99999" y1="50.9992" x2="389.99991" y2="50.9992" fill="none" stroke="#202020" stroke-width="0.5"/><line x1="9.99999" y1="40.99939" x2="389.99991" y2="40.99939" fill="none" stroke="#202020" stroke-width="0.5"/><line x1="9.99999" y1="31" x2="389.99991" y2="31" fill="none" stroke="#202020" stroke-width="0.5"/><line x1="9.99999" y1="190.9986" x2="389.99991" y2="190.9986" fill="none" stroke="#202020" stroke-width="0.5"/><line x1="9.99999" y1="200.99937" x2="389.99991" y2="200.99937" fill="none" stroke="#202020" stroke-width="0.5"/><line x1="9.99999" y1="180.9986" x2="389.99991" y2="180.9986" fill="none" stroke="#202020" stroke-width="0.5"/><line x1="9.99999" y1="220.9986" x2="389.99991" y2="220.9986" fill="none" stroke="#202020" stroke-width="0.5"/><line x1="9.99999" y1="230.9986" x2="389.99991" y2="230.9986" fill="none" stroke="#202020" stroke-width="0.5"/><line x1="9.99999" y1="210.9986" x2="389.99991" y2="210.9986" fill="none" stroke="#202020" stroke-width="0.5"/><line x1="9.99999" y1="170.9986" x2="389.99991" y2="170.9986" fill="none" stroke="#202020" stroke-width="0.5"/><line x1="9.99999" y1="160.9986" x2="389.99991" y2="160.9986" fill="none" stroke="#202020" stroke-width="0.5"/><line x1="9.99999" y1="150.9986" x2="389.99991" y2="150.9986" fill="none" stroke="#202020" stroke-width="0.5"/><line x1="9.99999" y1="140.9986" x2="389.99991" y2="140.9986" fill="none" stroke="#202020" stroke-width="0.5"/><line x1="9.99999" y1="130.9992" x2="389.99991" y2="130.9992" fill="none" stroke="#202020" stroke-width="0.5"/><path d="M121.582,55.69824h-2.15234l-.56641,1.80078h-.76562l1.999-5.90527h.8457l1.999,5.90527h-.793Zm-.18945-.60254-.2793-.90039c-.207-.65722-.39551-1.30566-.585-1.99023h-.03613c-.18848.68457-.37793,1.333-.585,1.99023l-.28809.90039Z" fill="#cacaca"/><path d="M123.67773,53.72656h-.64843V53.169l.68457-.0459.08984-1.22364h.62109v1.22364h1.17969v.60351H124.4248V56.1582c0,.53907.1709.84571.67579.84571a1.5786,1.5786,0,0,0,.49511-.11719l.14356.55859a2.73051,2.73051,0,0,1-.81055.16211c-.93555,0-1.251-.59472-1.251-1.459Z" fill="#cacaca"/><path d="M126.71973,53.72656h-.64844V53.169l.68457-.0459.08984-1.22364h.6211v1.22364h1.17968v.60351H127.4668V56.1582c0,.53907.1709.84571.67578.84571a1.57872,1.57872,0,0,0,.49512-.11719l.14355.55859a2.73045,2.73045,0,0,1-.81055.16211c-.93554,0-1.251-.59472-1.251-1.459Z" fill="#cacaca"/><path d="M131.94922,54.72656c0-.55859-.18945-1.09863-.90039-1.09863a2.34881,2.34881,0,0,0-1.30469.46777l-.29785-.51269a3.25183,3.25183,0,0,1,1.71973-.56739c1.07128,0,1.52148.71094,1.52148,1.80079V57.499h-.6123l-.0625-.52246h-.01856a2.37921,2.37921,0,0,1-1.44922.63086,1.19278,1.19278,0,0,1-1.28711-1.24219C129.25781,55.41016,130.08594,54.93359,131.94922,54.72656ZM130.752,57.0127a1.7926,1.7926,0,0,0,1.19727-.585V55.21289c-1.46777.17969-1.96289.53906-1.96289,1.09766A.67091.67091,0,0,0,130.752,57.0127Z" fill="#cacaca"/><path d="M135.86426,53.01562a1.8026,1.8026,0,0,1,1.27832.52247l-.36914.47753a1.3201,1.3201,0,0,0-.88184-.38769c-.792,0-1.36816.68457-1.36816,1.69238,0,1,.54883,1.67481,1.34961,1.67481a1.56106,1.56106,0,0,0,1.02636-.44141l.333.48633a2.1661,2.1661,0,0,1-1.42187.56738,2.0556,2.0556,0,0,1-2.05274-2.28711A2.11944,2.11944,0,0,1,135.86426,53.01562Z" fill="#cacaca"/><path d="M138.18555,51.08887h.72949v4.33886h.02637l1.86425-2.30468h.81934l-1.46777,1.75586,1.665,2.62011h-.80957l-1.27832-2.10644-.81934.9541V57.499h-.72949Z" fill="#cacaca"/><path d="M61.4248,37.09375h.75586v5.26563h2.5752V42.999H61.4248Z" fill="#cacaca"/><path d="M67.23926,38.51562c1.11621,0,1.74609.80079,1.74609,2.05274a2.68273,2.68273,0,0,1-.02637.40527H66.00586a1.45552,1.45552,0,0,0,1.458,1.53907,1.97927,1.97927,0,0,0,1.08984-.3418l.26074.48535a2.598,2.598,0,0,1-1.44043.45117,2.3144,2.3144,0,0,1-.13476-4.5918Zm1.09765,1.97168c0-.8916-.3955-1.38574-1.08007-1.38574a1.36427,1.36427,0,0,0-1.25977,1.38574Z" fill="#cacaca"/><path d="M69.47949,38.62305h.76465l.82813,2.48535c.126.43262.2705.874.40527,1.28808h.03613c.126-.41406.27051-.85546.39649-1.28808l.82812-2.48535h.72949L71.919,42.999h-.86426Z" fill="#cacaca"/><path d="M75.915,38.51562c1.11621,0,1.74609.80079,1.74609,2.05274a2.68416,2.68416,0,0,1-.02636.40527H74.68164a1.45552,1.45552,0,0,0,1.458,1.53907,1.97927,1.97927,0,0,0,1.08984-.3418l.26074.48535a2.598,2.598,0,0,1-1.44043.45117,2.3144,2.3144,0,0,1-.13476-4.5918ZM77.0127,40.4873c0-.8916-.39551-1.38574-1.08008-1.38574a1.36428,1.36428,0,0,0-1.25977,1.38574Z" fill="#cacaca"/><path d="M78.74023,36.58887h.73829v5.582c0,.2334.09863.32422.207.32422a.60331.60331,0,0,0,.16211-.01856l.09863.5586a.99147.99147,0,0,1-.42285.07226c-.5586,0-.78321-.35156-.78321-.99023Z" fill="#cacaca"/><path d="M42.28125,76.09375h1.81836c1.30566,0,2.17871.44141,2.17871,1.7373,0,1.24317-.89062,1.82715-2.17871,1.82715h-1.0625V82h-.75586ZM44.001,79.04688c1.03515,0,1.53027-.37891,1.53027-1.21583,0-.85449-.5127-1.13378-1.53027-1.13378h-.96387v2.34961Z" fill="#cacaca"/><path d="M48.79785,77.51562c1.11621,0,1.7461.80176,1.7461,2.05274a2.6966,2.6966,0,0,1-.02637.40625H47.56445a1.45552,1.45552,0,0,0,1.458,1.53906,1.97923,1.97923,0,0,0,1.08984-.34179l.26075.48535a2.6055,2.6055,0,0,1-1.44043.45019,2.3144,2.3144,0,0,1-.13477-4.5918Zm1.09766,1.97266c0-.8916-.39551-1.38672-1.08008-1.38672a1.36455,1.36455,0,0,0-1.25977,1.38672Z" fill="#cacaca"/><path d="M53.97266,79.22656c0-.55859-.18848-1.09765-.90039-1.09765a2.35471,2.35471,0,0,0-1.30567.46777l-.29687-.5127a3.24362,3.24362,0,0,1,1.71972-.56836c1.07129,0,1.52149.71192,1.52149,1.80079V82h-.61231l-.0625-.52246h-.01855a2.378,2.378,0,0,1-1.44922.62988,1.19278,1.19278,0,0,1-1.28711-1.24219C51.28125,79.91016,52.10938,79.43359,53.97266,79.22656Zm-1.19727,2.28711a1.78985,1.78985,0,0,0,1.19727-.58594V79.71289c-1.46778.17969-1.96289.54-1.96289,1.09766A.67071.67071,0,0,0,52.77539,81.51367Z" fill="#cacaca"/><path d="M56.10547,75.58984H56.835v4.33887h.02637L58.72559,77.624H59.544l-1.4668,1.75586L59.74219,82h-.80957L57.6543,79.89258l-.81934.95508V82h-.72949Z" fill="#cacaca"/><path d="M62.42285,76.09375h.75586v5.2666h2.5752V82H62.42285Z" fill="#cacaca"/><path d="M68.23828,77.51562c1.11621,0,1.7461.80176,1.7461,2.05274a2.6966,2.6966,0,0,1-.02637.40625H67.00488a1.45552,1.45552,0,0,0,1.458,1.53906,1.97923,1.97923,0,0,0,1.08984-.34179l.26075.48535a2.6055,2.6055,0,0,1-1.44043.45019,2.3144,2.3144,0,0,1-.13477-4.5918Zm1.09766,1.97266c0-.8916-.39551-1.38672-1.08008-1.38672a1.36455,1.36455,0,0,0-1.25977,1.38672Z" fill="#cacaca"/><path d="M70.47852,77.624h.76464l.82813,2.48536c.126.43164.27051.873.40527,1.2871h.03614c.126-.41406.2705-.85546.39648-1.2871L73.7373,77.624h.7295L72.918,82h-.86426Z" fill="#cacaca"/><path d="M76.91406,77.51562c1.11621,0,1.7461.80176,1.7461,2.05274a2.6966,2.6966,0,0,1-.02637.40625H75.68066a1.45553,1.45553,0,0,0,1.458,1.53906,1.97929,1.97929,0,0,0,1.08985-.34179l.26074.48535a2.6055,2.6055,0,0,1-1.44043.45019,2.3144,2.3144,0,0,1-.13477-4.5918Zm1.09766,1.97266c0-.8916-.39551-1.38672-1.08008-1.38672a1.36454,1.36454,0,0,0-1.25976,1.38672Z" fill="#cacaca"/><path d="M79.73926,75.58984h.73828v5.582c0,.23339.09863.32421.207.32421a.60362.60362,0,0,0,.16211-.01855l.09863.55762a.99147.99147,0,0,1-.42285.07226c-.55859,0-.7832-.35156-.7832-.99023Z" fill="#cacaca"/><path d="M18.874,96.59375h1.75586c1.19727,0,2.03418.4043,2.03418,1.43945a1.28359,1.28359,0,0,1-1.03515,1.28809v.03613c.86425.13477,1.36816.60352,1.36816,1.41309,0,1.16113-.918,1.72851-2.23242,1.72851H18.874Zm1.62989,2.52051c.999,0,1.42187-.36035,1.42187-1.01758,0-.63965-.47656-.90918-1.38672-.90918h-.90918v1.92676Zm.15234,2.79c1.00879,0,1.60254-.36914,1.60254-1.16992,0-.72852-.56738-1.0625-1.60254-1.0625H19.62988v2.23242Z" fill="#cacaca"/><path d="M24.07617,98.12305h.61231l.0625.793h.02734a1.49689,1.49689,0,0,1,1.24219-.9004,1.09761,1.09761,0,0,1,.46875.08985l-.14453.64844a1.22432,1.22432,0,0,0-.42285-.07227c-.36915,0-.81055.27051-1.10743,1.00879V102.499h-.73828Z" fill="#cacaca"/><path d="M28.74805,98.01562c1.11621,0,1.74609.80079,1.74609,2.05274a2.68273,2.68273,0,0,1-.02637.40527H27.51465a1.45552,1.45552,0,0,0,1.458,1.53907,1.97927,1.97927,0,0,0,1.08984-.3418l.26074.48535a2.598,2.598,0,0,1-1.44043.45117,2.3144,2.3144,0,0,1-.13476-4.5918ZM29.8457,99.9873c0-.8916-.3955-1.38574-1.08008-1.38574a1.36427,1.36427,0,0,0-1.25976,1.38574Z" fill="#cacaca"/><path d="M33.92285,99.72656c0-.55859-.18847-1.09863-.90039-1.09863a2.35476,2.35476,0,0,0-1.30566.46777l-.29688-.51269a3.25186,3.25186,0,0,1,1.71973-.56739c1.07129,0,1.52148.71094,1.52148,1.80079V102.499h-.6123l-.0625-.52246h-.01856a2.37921,2.37921,0,0,1-1.44922.63086,1.19277,1.19277,0,0,1-1.2871-1.24219C31.23145,100.41016,32.05957,99.93359,33.92285,99.72656Zm-1.19726,2.28614a1.79258,1.79258,0,0,0,1.19726-.585v-1.21484c-1.46777.17969-1.96289.53906-1.96289,1.09766A.67049.67049,0,0,0,32.72559,102.0127Z" fill="#cacaca"/><path d="M36.05469,96.08887h.72949v4.33886h.02637l1.86425-2.30468h.81934l-1.46777,1.75586,1.665,2.62011h-.80957l-1.27832-2.10644-.81934.9541V102.499h-.72949Z" fill="#cacaca"/><path d="M41.24805,102.86816v1.47657h-.73828V98.12305h.6123l.0625.50488h.02734a2.26469,2.26469,0,0,1,1.39551-.61231c1.125,0,1.72852.87305,1.72852,2.23243,0,1.48633-.8916,2.35937-1.89063,2.35937a2.03324,2.03324,0,0,1-1.21582-.5039Zm1.07129-.88183c.71972,0,1.251-.65821,1.251-1.73828,0-.96289-.32422-1.61133-1.15234-1.61133a1.84228,1.84228,0,0,0-1.16992.59375v2.29687A1.73819,1.73819,0,0,0,42.31934,101.98633Z" fill="#cacaca"/><path d="M47.20605,98.01562a2.314,2.314,0,1,1-2.02539,2.30469A2.09177,2.09177,0,0,1,47.20605,98.01562Zm0,3.9795c.75684,0,1.26075-.67481,1.26075-1.67481,0-1.00781-.50391-1.69238-1.26075-1.69238-.74707,0-1.25976.68457-1.25976,1.69238C45.94629,101.32031,46.459,101.99512,47.20605,101.99512Z" fill="#cacaca"/><path d="M50.24805,96.74609a.51459.51459,0,0,1,1.02636,0,.51451.51451,0,0,1-1.02636,0Zm.13476,1.377h.73828v4.376h-.73828Z" fill="#cacaca"/><path d="M52.59668,98.12305h.6123l.0625.63086h.02735a2.06263,2.06263,0,0,1,1.46777-.73829c.918,0,1.332.59376,1.332,1.71094V102.499h-.73828V99.8252c0-.81934-.25195-1.1709-.82812-1.1709-.4502,0-.75586.23437-1.19727.67578V102.499h-.73828Z" fill="#cacaca"/><path d="M57.64551,98.72656h-.64844V98.169l.68457-.0459.08984-1.22364h.6211v1.22364h1.17969v.60351H58.39258v2.43164c0,.53907.1709.84571.67578.84571a1.57866,1.57866,0,0,0,.49512-.11719l.14355.55859a2.73045,2.73045,0,0,1-.81055.16211c-.93554,0-1.251-.59472-1.251-1.459Z" fill="#cacaca"/><path d="M62.4248,96.59375h.75586v5.26563h2.5752v.63964H62.4248Z" fill="#cacaca"/><path d="M68.23926,98.01562c1.11621,0,1.74609.80079,1.74609,2.05274a2.68273,2.68273,0,0,1-.02637.40527H67.00586a1.45552,1.45552,0,0,0,1.458,1.53907,1.97927,1.97927,0,0,0,1.08984-.3418l.26074.48535a2.598,2.598,0,0,1-1.44043.45117,2.3144,2.3144,0,0,1-.13476-4.5918Zm1.09765,1.97168c0-.8916-.3955-1.38574-1.08007-1.38574a1.36427,1.36427,0,0,0-1.25977,1.38574Z" fill="#cacaca"/><path d="M70.47949,98.12305h.76465l.82813,2.48535c.126.43262.2705.874.40527,1.28808h.03613c.126-.41406.27051-.85546.39649-1.28808l.82812-2.48535h.72949L72.919,102.499h-.86426Z" fill="#cacaca"/><path d="M76.915,98.01562c1.11621,0,1.74609.80079,1.74609,2.05274a2.68416,2.68416,0,0,1-.02636.40527H75.68164a1.45552,1.45552,0,0,0,1.458,1.53907,1.97927,1.97927,0,0,0,1.08984-.3418l.26074.48535a2.598,2.598,0,0,1-1.44043.45117,2.3144,2.3144,0,0,1-.13476-4.5918ZM78.0127,99.9873c0-.8916-.39551-1.38574-1.08008-1.38574a1.36428,1.36428,0,0,0-1.25977,1.38574Z" fill="#cacaca"/><path d="M79.74023,96.08887h.73829v5.582c0,.2334.09863.32422.207.32422a.60331.60331,0,0,0,.16211-.01856l.09863.5586a.99147.99147,0,0,1-.42285.07226c-.5586,0-.78321-.35156-.78321-.99023Z" fill="#cacaca"/><path d="M32.58105,171.21094a2.29409,2.29409,0,0,0,1.62891.73828c.77442,0,1.2334-.38672,1.2334-.96289,0-.60352-.43164-.792-.99024-1.04395l-.8457-.36914a1.58028,1.58028,0,0,1,.666-3.08789,2.41109,2.41109,0,0,1,1.7373.72949l-.39648.48633a1.8943,1.8943,0,0,0-1.34082-.55859c-.666,0-1.10742.333-1.10742.86426,0,.56738.52246.7832.98144.98144l.8457.35938a1.64489,1.64489,0,0,1,1.21582,1.57617,1.79248,1.79248,0,0,1-2.0166,1.68359,2.84187,2.84187,0,0,1-2.06152-.873Z" fill="#cacaca"/><path d="M37.20605,168.12305h.748v2.67383c0,.82031.24219,1.17089.81836,1.17089.4502,0,.76563-.22558,1.17969-.73828v-3.10644h.73828v4.376h-.61231l-.0625-.68457h-.02734a1.84883,1.84883,0,0,1-1.44043.793c-.92773,0-1.3418-.59472-1.3418-1.71094Z" fill="#cacaca"/><path d="M42.04883,171.50879a1.97048,1.97048,0,0,0,1.28711.52246c.57617,0,.86426-.30664.86426-.68457,0-.4502-.52149-.64844-.999-.82813-.62109-.22558-1.30566-.52246-1.30566-1.26074,0-.70215.55859-1.24219,1.5039-1.24219a2.18181,2.18181,0,0,1,1.35938.49512l-.35156.46778a1.62452,1.62452,0,0,0-.999-.38672c-.54882,0-.80078.29687-.80078.63086,0,.40429.47656.5664.97168.75586.63086.23437,1.333.49511,1.333,1.32324,0,.71094-.56738,1.30566-1.60254,1.30566a2.637,2.637,0,0,1-1.62988-.60351Z" fill="#cacaca"/><path d="M46.0625,168.72656h-.64844V168.169l.68457-.0459.08985-1.22364h.62109v1.22364h1.17969v.60351H46.80957v2.43164c0,.53907.1709.84571.67578.84571a1.5786,1.5786,0,0,0,.49512-.11719l.14355.55859a2.73045,2.73045,0,0,1-.81054.16211c-.93555,0-1.251-.59472-1.251-1.459Z" fill="#cacaca"/><path d="M51.292,169.72656c0-.55859-.18847-1.09863-.90039-1.09863a2.35476,2.35476,0,0,0-1.30566.46777l-.29688-.51269a3.25186,3.25186,0,0,1,1.71973-.56739c1.07129,0,1.52148.71094,1.52148,1.80079V172.499H51.418l-.0625-.52246h-.01856a2.37921,2.37921,0,0,1-1.44921.63086,1.19277,1.19277,0,0,1-1.28711-1.24219C48.60059,170.41016,49.42871,169.93359,51.292,169.72656Zm-1.19726,2.28614a1.79258,1.79258,0,0,0,1.19726-.585v-1.21484c-1.46777.17969-1.96289.53906-1.96289,1.09766A.67049.67049,0,0,0,50.09473,172.0127Z" fill="#cacaca"/><path d="M53.29,166.74609a.51459.51459,0,0,1,1.02637,0,.51452.51452,0,0,1-1.02637,0Zm.13476,1.377h.73829v4.376H53.4248Z" fill="#cacaca"/><path d="M55.63867,168.12305H56.251l.0625.63086h.02734a2.06263,2.06263,0,0,1,1.46777-.73829c.918,0,1.332.59376,1.332,1.71094V172.499h-.73828V169.8252c0-.81934-.252-1.1709-.82812-1.1709-.4502,0-.75586.23437-1.19727.67578V172.499h-.73828Z" fill="#cacaca"/><path d="M62.42383,166.59375h.75586v5.26563h2.57519v.63964h-3.331Z" fill="#cacaca"/><path d="M68.23926,168.01562c1.11621,0,1.74609.80079,1.74609,2.05274a2.68273,2.68273,0,0,1-.02637.40527H67.00586a1.45552,1.45552,0,0,0,1.458,1.53907,1.97927,1.97927,0,0,0,1.08984-.3418l.26074.48535a2.598,2.598,0,0,1-1.44043.45117,2.3144,2.3144,0,0,1-.13476-4.5918Zm1.09765,1.97168c0-.8916-.3955-1.38574-1.08007-1.38574a1.36427,1.36427,0,0,0-1.25977,1.38574Z" fill="#cacaca"/><path d="M70.47949,168.12305h.76465l.82813,2.48535c.126.43262.2705.874.40527,1.28808h.03613c.126-.41406.27051-.85546.39649-1.28808l.82812-2.48535h.72949L72.919,172.499h-.86426Z" fill="#cacaca"/><path d="M76.915,168.01562c1.11621,0,1.74609.80079,1.74609,2.05274a2.68416,2.68416,0,0,1-.02636.40527H75.68164a1.45552,1.45552,0,0,0,1.458,1.53907,1.97927,1.97927,0,0,0,1.08984-.3418l.26074.48535a2.598,2.598,0,0,1-1.44043.45117,2.3144,2.3144,0,0,1-.13476-4.5918Zm1.09766,1.97168c0-.8916-.39551-1.38574-1.08008-1.38574a1.36428,1.36428,0,0,0-1.25977,1.38574Z" fill="#cacaca"/><path d="M79.74023,166.08887h.73829v5.582c0,.2334.09863.32422.207.32422a.60331.60331,0,0,0,.16211-.01856l.09863.5586a.99147.99147,0,0,1-.42285.07226c-.5586,0-.78321-.35156-.78321-.99023Z" fill="#cacaca"/><path d="M359.562,217.39258H357.77v-.63086h4.33105v.63086h-1.792V222.668H359.562Z" fill="#cacaca"/><path d="M362.92822,216.915a.51452.51452,0,0,1,1.02637,0,.51452.51452,0,0,1-1.02637,0Zm.13477,1.37793h.73828v4.375H363.063Z" fill="#cacaca"/><path d="M365.27686,218.293h.6123l.0625.62988h.02734a1.922,1.922,0,0,1,1.35938-.73828,1.14808,1.14808,0,0,1,1.20605.83691,2.07162,2.07162,0,0,1,1.44043-.83691c.90039,0,1.333.59473,1.333,1.71V222.668h-.73828v-2.67383c0-.81934-.26172-1.16992-.81055-1.16992a1.60591,1.60591,0,0,0-1.09863.6748V222.668h-.73828v-2.67383c0-.81934-.26074-1.16992-.81836-1.16992a1.641,1.641,0,0,0-1.09863.6748V222.668h-.73828Z" fill="#cacaca"/><path d="M374.37646,218.18457c1.11622,0,1.7461.80176,1.7461,2.05273a2.67378,2.67378,0,0,1-.02637.40528h-2.95312a1.45552,1.45552,0,0,0,1.458,1.53906,1.97919,1.97919,0,0,0,1.08985-.3418l.26074.48633a2.613,2.613,0,0,1-1.44043.44922,2.31385,2.31385,0,0,1-.13477-4.59082Zm1.09766,1.97168c0-.89063-.39551-1.38672-1.08008-1.38672a1.36454,1.36454,0,0,0-1.25976,1.38672Z" fill="#cacaca"/><path d="M96.91162,216.76172H97.686l2.14257,3.709.63868,1.22461h.03613c-.03613-.59375-.09863-1.25976-.09863-1.88086v-3.05273h.71093V222.668h-.77441l-2.13281-3.71875-.63965-1.21484h-.03614c.03614.59374.08985,1.2246.08985,1.8457V222.668h-.71094Z" fill="#cacaca"/><path d="M104.34619,218.18457a2.31341,2.31341,0,1,1-2.02539,2.30469A2.09052,2.09052,0,0,1,104.34619,218.18457Zm0,3.97949c.75684,0,1.26074-.67578,1.26074-1.6748,0-1.00879-.5039-1.69238-1.26074-1.69238-.74707,0-1.25976.68359-1.25976,1.69238C103.08643,221.48828,103.59912,222.16406,104.34619,222.16406Z" fill="#cacaca"/><path d="M107.64893,218.89648h-.64844v-.55859l.68457-.04492.08984-1.22461h.6211V218.293h1.17968v.60351H108.396v2.42969c0,.541.17089.84668.67578.84668a1.60581,1.60581,0,0,0,.49511-.11719l.14356.55762a2.67032,2.67032,0,0,1-.81055.16211c-.93554,0-1.251-.59375-1.251-1.458Z" fill="#cacaca"/><path d="M112.11377,218.18457c1.11621,0,1.74609.80176,1.74609,2.05273a2.67521,2.67521,0,0,1-.02636.40528h-2.95313a1.45552,1.45552,0,0,0,1.458,1.53906,1.97919,1.97919,0,0,0,1.08984-.3418l.26074.48633a2.61289,2.61289,0,0,1-1.44042.44922,2.31385,2.31385,0,0,1-.13477-4.59082Zm1.09766,1.97168c0-.89063-.39551-1.38672-1.08008-1.38672a1.36455,1.36455,0,0,0-1.25977,1.38672Z" fill="#cacaca"/><path d="M116.45947,219.6875c0-1.89062,1.044-3.0332,2.5293-3.0332,1.47656,0,2.52051,1.15234,2.52051,3.0332,0,1.90039-1.044,3.08789-2.52051,3.08789C117.50342,222.77539,116.45947,221.58789,116.45947,219.6875Zm4.27637,0c0-1.4668-.69336-2.376-1.74707-2.376-1.0625,0-1.75488.90918-1.75488,2.376,0,1.47656.69238,2.43164,1.75488,2.43164C120.04248,222.11914,120.73584,221.16406,120.73584,219.6875Z" fill="#cacaca"/><path d="M122.687,218.293h.61231l.0625.62988h.02734a2.06266,2.06266,0,0,1,1.46777-.73828c.918,0,1.332.59473,1.332,1.71V222.668h-.73828v-2.67383c0-.81934-.252-1.16992-.82812-1.16992-.4502,0-.75586.23437-1.19727.6748V222.668H122.687Z" fill="#cacaca"/><path d="M275.29,216.76172h.77441l2.14258,3.709.63867,1.22461h.03614c-.03614-.59375-.09864-1.25976-.09864-1.88086v-3.05273h.71094V222.668h-.77441l-2.13282-3.71875-.63964-1.21484h-.03614c.03614.59374.08985,1.2246.08985,1.8457V222.668H275.29Z" fill="#cacaca"/><path d="M282.72461,218.18457a2.31341,2.31341,0,1,1-2.02539,2.30469A2.09052,2.09052,0,0,1,282.72461,218.18457Zm0,3.97949c.75684,0,1.26074-.67578,1.26074-1.6748,0-1.00879-.5039-1.69238-1.26074-1.69238-.74707,0-1.25977.68359-1.25977,1.69238C281.46484,221.48828,281.97754,222.16406,282.72461,222.16406Z" fill="#cacaca"/><path d="M286.02734,218.89648h-.64843v-.55859l.68457-.04492.08984-1.22461h.62109V218.293h1.17969v.60351h-1.17969v2.42969c0,.541.1709.84668.67579.84668a1.60581,1.60581,0,0,0,.49511-.11719l.14356.55762a2.67039,2.67039,0,0,1-.81055.16211c-.93555,0-1.251-.59375-1.251-1.458Z" fill="#cacaca"/><path d="M290.49219,218.18457c1.11621,0,1.74609.80176,1.74609,2.05273a2.67378,2.67378,0,0,1-.02637.40528h-2.95312a1.45552,1.45552,0,0,0,1.458,1.53906,1.97919,1.97919,0,0,0,1.08984-.3418l.26074.48633a2.613,2.613,0,0,1-1.44043.44922,2.31385,2.31385,0,0,1-.13476-4.59082Zm1.09765,1.97168c0-.89063-.3955-1.38672-1.08007-1.38672a1.36454,1.36454,0,0,0-1.25977,1.38672Z" fill="#cacaca"/><path d="M294.83789,219.6875c0-1.89062,1.04395-3.0332,2.5293-3.0332,1.47656,0,2.52051,1.15234,2.52051,3.0332,0,1.90039-1.04395,3.08789-2.52051,3.08789C295.88184,222.77539,294.83789,221.58789,294.83789,219.6875Zm4.27637,0c0-1.4668-.69336-2.376-1.74707-2.376-1.0625,0-1.75489.90918-1.75489,2.376,0,1.47656.69239,2.43164,1.75489,2.43164C298.4209,222.11914,299.11426,221.16406,299.11426,219.6875Z" fill="#cacaca"/><path d="M305.60254,216.86133a1.28859,1.28859,0,0,0-.49512-.10742c-.41406,0-.62109.28711-.62109.8457v.69336h.92773v.60351h-.92773V222.668h-.73828v-3.77149h-1.81836V222.668h-.73828v-3.77149h-.59375v-.55859l.59375-.04492v-.57617c0-.91016.45019-1.47657,1.35937-1.47657a2.004,2.004,0,0,1,.80078.16211l-.15234.5586a1.40161,1.40161,0,0,0-.585-.11719c-.43262,0-.68457.31445-.68457.89063v.55859h1.81836v-.69336c0-.8916.40527-1.44922,1.27832-1.44922a1.98238,1.98238,0,0,1,.72949.14356Z" fill="#cacaca"/><path d="M156.23975,51.59375h1.47656c1.81836,0,2.791,1.05273,2.791,2.92578,0,1.88086-.97265,2.97949-2.75488,2.97949h-1.51269Zm1.42285,5.293c1.38574,0,2.07031-.873,2.07031-2.36719,0-1.48633-.68457-2.31445-2.07031-2.31445h-.667v4.68164Z" fill="#cacaca"/><path d="M163.34131,53.01562c1.11621,0,1.74609.80079,1.74609,2.05274a2.68416,2.68416,0,0,1-.02636.40527h-2.95313a1.45552,1.45552,0,0,0,1.458,1.53907,1.97927,1.97927,0,0,0,1.08984-.3418l.26074.48535a2.598,2.598,0,0,1-1.44043.45117,2.3144,2.3144,0,0,1-.13476-4.5918ZM164.439,54.9873c0-.8916-.3955-1.38574-1.08007-1.38574a1.36427,1.36427,0,0,0-1.25977,1.38574Z" fill="#cacaca"/><path d="M167.94873,53.01562a1.80258,1.80258,0,0,1,1.27832.52247l-.36914.47753a1.3201,1.3201,0,0,0-.88184-.38769c-.792,0-1.36816.68457-1.36816,1.69238,0,1,.54883,1.67481,1.34961,1.67481a1.56111,1.56111,0,0,0,1.02637-.44141l.333.48633a2.16608,2.16608,0,0,1-1.42187.56738,2.0556,2.0556,0,0,1-2.05273-2.28711A2.11943,2.11943,0,0,1,167.94873,53.01562Z" fill="#cacaca"/><path d="M172.65674,54.72656c0-.55859-.18945-1.09863-.90039-1.09863a2.34881,2.34881,0,0,0-1.30469.46777l-.29785-.51269a3.25183,3.25183,0,0,1,1.71973-.56739c1.07128,0,1.52148.71094,1.52148,1.80079V57.499h-.61231l-.0625-.52246h-.01855a2.37921,2.37921,0,0,1-1.44922.63086,1.19278,1.19278,0,0,1-1.28711-1.24219C169.96533,55.41016,170.79346,54.93359,172.65674,54.72656Zm-1.19727,2.28614a1.7926,1.7926,0,0,0,1.19727-.585V55.21289c-1.46778.17969-1.96289.53906-1.96289,1.09766A.67091.67091,0,0,0,171.45947,57.0127Z" fill="#cacaca"/><path d="M174.82471,58.76855c.49511,0,.81054-.39648.99023-.93652l.09863-.32422-1.75488-4.38476h.76465l.8916,2.42187c.13477.37891.28809.82813.42285,1.23438h.03614c.126-.39649.25195-.84668.36914-1.23438l.7832-2.42187h.7207l-1.64843,4.73633c-.30567.86425-.75586,1.52148-1.6377,1.52148a1.46421,1.46421,0,0,1-.51367-.08984l.14453-.58594A1.26761,1.26761,0,0,0,174.82471,58.76855Z" fill="#cacaca"/><path d="M180.78174,56.88672h1.31445V52.65625h-1.04394v-.47852a3.41469,3.41469,0,0,0,1.21484-.42187h.56738v5.13086H184.023v.6123h-3.24121Z" fill="#cacaca"/><path d="M226.23926,51.59375h1.47656c1.81836,0,2.791,1.05273,2.791,2.92578,0,1.88086-.97266,2.97949-2.75489,2.97949h-1.51269Zm1.42285,5.293c1.38574,0,2.07031-.873,2.07031-2.36719,0-1.48633-.68457-2.31445-2.07031-2.31445h-.667v4.68164Z" fill="#cacaca"/><path d="M233.34082,53.01562c1.11621,0,1.74609.80079,1.74609,2.05274a2.68416,2.68416,0,0,1-.02636.40527h-2.95313a1.45553,1.45553,0,0,0,1.458,1.53907,1.97927,1.97927,0,0,0,1.08984-.3418l.26075.48535a2.598,2.598,0,0,1-1.44043.45117,2.3144,2.3144,0,0,1-.13477-4.5918Zm1.09766,1.97168c0-.8916-.39551-1.38574-1.08008-1.38574a1.36428,1.36428,0,0,0-1.25977,1.38574Z" fill="#cacaca"/><path d="M237.94824,53.01562a1.80258,1.80258,0,0,1,1.27832.52247l-.36914.47753a1.3201,1.3201,0,0,0-.88183-.38769c-.792,0-1.36817.68457-1.36817,1.69238,0,1,.54883,1.67481,1.34961,1.67481a1.56109,1.56109,0,0,0,1.02637-.44141l.333.48633a2.16612,2.16612,0,0,1-1.42188.56738,2.0556,2.0556,0,0,1-2.05273-2.28711A2.11943,2.11943,0,0,1,237.94824,53.01562Z" fill="#cacaca"/><path d="M242.65625,54.72656c0-.55859-.18945-1.09863-.90039-1.09863a2.34881,2.34881,0,0,0-1.30469.46777l-.29785-.51269a3.25183,3.25183,0,0,1,1.71973-.56739c1.07129,0,1.52148.71094,1.52148,1.80079V57.499h-.6123l-.0625-.52246h-.01856a2.37921,2.37921,0,0,1-1.44922.63086,1.19278,1.19278,0,0,1-1.28711-1.24219C239.96484,55.41016,240.793,54.93359,242.65625,54.72656ZM241.459,57.0127a1.79258,1.79258,0,0,0,1.19727-.585V55.21289c-1.46777.17969-1.96289.53906-1.96289,1.09766A.67091.67091,0,0,0,241.459,57.0127Z" fill="#cacaca"/><path d="M244.82422,58.76855c.49512,0,.81055-.39648.99023-.93652l.09864-.32422-1.75489-4.38476h.76465l.8916,2.42187c.13477.37891.28809.82813.42285,1.23438h.03614c.126-.39649.25195-.84668.36914-1.23438l.7832-2.42187h.7207l-1.64843,4.73633c-.30567.86425-.75586,1.52148-1.6377,1.52148a1.46421,1.46421,0,0,1-.51367-.08984l.14453-.58594A1.26761,1.26761,0,0,0,244.82422,58.76855Z" fill="#cacaca"/><path d="M250.43066,57.05859c1.72852-1.7207,2.7002-2.75586,2.7002-3.68261A1.01727,1.01727,0,0,0,252.042,52.25a1.69374,1.69374,0,0,0-1.22461.69336l-.42285-.42285a2.25234,2.25234,0,0,1,1.73731-.873,1.59518,1.59518,0,0,1,1.71972,1.69238c0,1.08008-.98144,2.15137-2.34082,3.57422.31543-.02734.666-.05468.96289-.05468h1.666V57.499h-3.709Z" fill="#cacaca"/><path d="M309.50732,57.499l-1.42285-2.49316H307.022V57.499h-.75586V51.59375h1.8545c1.19726,0,2.06152.43164,2.06152,1.65625a1.61945,1.61945,0,0,1-1.32324,1.67383l1.5039,2.57519ZM307.022,54.39258h.99024c.91894,0,1.42285-.377,1.42285-1.14258,0-.77441-.50391-1.05371-1.42285-1.05371H307.022Z" fill="#cacaca"/><path d="M312.95361,53.01562c1.11621,0,1.7461.80079,1.7461,2.05274a2.68273,2.68273,0,0,1-.02637.40527h-2.95313a1.45553,1.45553,0,0,0,1.458,1.53907,1.97927,1.97927,0,0,0,1.08985-.3418l.26074.48535a2.598,2.598,0,0,1-1.44043.45117,2.3144,2.3144,0,0,1-.13477-4.5918Zm1.09766,1.97168c0-.8916-.39551-1.38574-1.08008-1.38574a1.36427,1.36427,0,0,0-1.25976,1.38574Z" fill="#cacaca"/><path d="M315.77881,51.08887h.73828v5.582c0,.2334.09863.32422.207.32422a.60327.60327,0,0,0,.16211-.01856l.09863.5586a.99147.99147,0,0,1-.42285.07226c-.55859,0-.7832-.35156-.7832-.99023Z" fill="#cacaca"/><path d="M319.7124,53.01562c1.11621,0,1.7461.80079,1.7461,2.05274a2.68273,2.68273,0,0,1-.02637.40527H318.479a1.45553,1.45553,0,0,0,1.458,1.53907,1.9793,1.9793,0,0,0,1.08985-.3418l.26074.48535a2.598,2.598,0,0,1-1.44043.45117,2.3144,2.3144,0,0,1-.13477-4.5918Zm1.09766,1.97168c0-.8916-.39551-1.38574-1.08008-1.38574a1.36428,1.36428,0,0,0-1.25977,1.38574Z" fill="#cacaca"/><path d="M324.88721,54.72656c0-.55859-.18848-1.09863-.90039-1.09863a2.35479,2.35479,0,0,0-1.30567.46777l-.29687-.51269a3.25182,3.25182,0,0,1,1.71972-.56739c1.07129,0,1.52149.71094,1.52149,1.80079V57.499h-.61231l-.0625-.52246h-.01855a2.37921,2.37921,0,0,1-1.44922.63086,1.19278,1.19278,0,0,1-1.28711-1.24219C322.1958,55.41016,323.02393,54.93359,324.88721,54.72656Zm-1.19727,2.28614a1.7926,1.7926,0,0,0,1.19727-.585V55.21289c-1.46778.17969-1.96289.53906-1.96289,1.09766A.67048.67048,0,0,0,323.68994,57.0127Z" fill="#cacaca"/><path d="M326.90283,56.50879a1.9705,1.9705,0,0,0,1.28711.52246c.57617,0,.86426-.30664.86426-.68457,0-.4502-.52149-.64844-.999-.82813-.6211-.22558-1.30567-.52246-1.30567-1.26074,0-.70215.5586-1.24219,1.50391-1.24219a2.18176,2.18176,0,0,1,1.35937.49512l-.35156.46778a1.62449,1.62449,0,0,0-.999-.38672c-.54883,0-.80078.29687-.80078.63086,0,.40429.47656.5664.97168.75586.63085.23437,1.333.49511,1.333,1.32324,0,.71094-.56738,1.30566-1.60254,1.30566a2.637,2.637,0,0,1-1.62988-.60351Z" fill="#cacaca"/><path d="M332.4292,53.01562c1.11621,0,1.74609.80079,1.74609,2.05274a2.68416,2.68416,0,0,1-.02636.40527H331.1958a1.45552,1.45552,0,0,0,1.458,1.53907,1.97927,1.97927,0,0,0,1.08984-.3418l.26074.48535a2.598,2.598,0,0,1-1.44043.45117,2.3144,2.3144,0,0,1-.13476-4.5918Zm1.09766,1.97168c0-.8916-.39551-1.38574-1.08008-1.38574A1.36428,1.36428,0,0,0,331.187,54.9873Z" fill="#cacaca"/><path d="M172.83008,11.12109h3.40332V11.752h-2.64746v1.8545h2.2334v.63964h-2.2334v2.14258h2.7373v.63867h-3.49316Z" fill="#cacaca"/><path d="M177.4834,12.65234h.6123l.0625.62989h.02735a2.0626,2.0626,0,0,1,1.46777-.73828c.918,0,1.332.59472,1.332,1.71v2.77343h-.73828V14.35352c0-.81934-.252-1.16993-.82812-1.16993-.4502,0-.75586.23438-1.19727.67481v3.16894h-.73828Z" fill="#cacaca"/><path d="M181.77637,12.65234h.76465l.82812,2.48438c.126.43164.27051.873.40527,1.28711h.03614c.126-.41406.2705-.85547.39648-1.28711l.82813-2.48438h.72949l-1.54883,4.375h-.86426Z" fill="#cacaca"/><path d="M188.21191,12.544c1.11621,0,1.7461.80175,1.7461,2.05273a2.67363,2.67363,0,0,1-.02637.40527h-2.95312a1.45552,1.45552,0,0,0,1.458,1.53907,1.97927,1.97927,0,0,0,1.08985-.3418l.26074.48633a2.613,2.613,0,0,1-1.44043.44922,2.09186,2.09186,0,0,1-2.09766-2.28614A2.11032,2.11032,0,0,1,188.21191,12.544Zm1.09766,1.97167c0-.89062-.39551-1.38671-1.08008-1.38671a1.36453,1.36453,0,0,0-1.25976,1.38671Z" fill="#cacaca"/><path d="M191.03711,10.61719h.73828v5.582c0,.23437.09863.32422.207.32422a.6355.6355,0,0,0,.16211-.01758l.09863.55762a.99384.99384,0,0,1-.42285.07129c-.55859,0-.7832-.35059-.7832-.99024Z" fill="#cacaca"/><path d="M195.0332,12.544a2.09051,2.09051,0,0,1,2.02539,2.30468,2.04026,2.04026,0,1,1-4.05078,0A2.09051,2.09051,0,0,1,195.0332,12.544Zm0,3.97949c.75684,0,1.26075-.67578,1.26075-1.67481,0-1.00879-.50391-1.69238-1.26075-1.69238-.74707,0-1.25976.68359-1.25976,1.69238C193.77344,15.84766,194.28613,16.52344,195.0332,16.52344Z" fill="#cacaca"/><path d="M198.94824,17.39648v1.47657H198.21V12.65234h.61231l.0625.50391h.02734a2.26465,2.26465,0,0,1,1.39551-.6123c1.125,0,1.72851.874,1.72851,2.23339,0,1.48438-.8916,2.35743-1.89062,2.35743a2.02718,2.02718,0,0,1-1.21582-.50391Zm1.07129-.88281c.71973,0,1.251-.65625,1.251-1.73633,0-.96386-.32422-1.6123-1.15235-1.6123a1.83943,1.83943,0,0,0-1.16992.59473v2.29492A1.72486,1.72486,0,0,0,200.01953,16.51367Z" fill="#cacaca"/><path d="M204.84375,12.544c1.11621,0,1.74609.80175,1.74609,2.05273a2.67507,2.67507,0,0,1-.02636.40527h-2.95313a1.45553,1.45553,0,0,0,1.458,1.53907,1.97927,1.97927,0,0,0,1.08984-.3418l.26075.48633a2.613,2.613,0,0,1-1.44043.44922,2.09186,2.09186,0,0,1-2.09766-2.28614A2.11032,2.11032,0,0,1,204.84375,12.544Zm1.09766,1.97167c0-.89062-.39551-1.38671-1.08008-1.38671a1.36454,1.36454,0,0,0-1.25977,1.38671Z" fill="#cacaca"/><path d="M212.23242,15.22656h-2.15234l-.56641,1.80078h-.76562l1.999-5.90625h.8457l1.999,5.90625h-.793Zm-.18945-.60351-.2793-.90039c-.207-.65625-.39551-1.30469-.585-1.98828h-.03613c-.18848.68359-.37793,1.332-.585,1.98828l-.28809.90039Z" fill="#cacaca"/><path d="M220.55762,17.13477a4.63113,4.63113,0,0,1-1.35938-.67481,2.47913,2.47913,0,0,1-1.70117.67481,1.64983,1.64983,0,0,1-1.80078-1.6377,2.12425,2.12425,0,0,1,1.16113-1.70215,3.16915,3.16915,0,0,1-.38672-1.38574,1.33579,1.33579,0,0,1,1.36817-1.39551A1.08867,1.08867,0,0,1,219,12.18359c0,.77442-.6748,1.26953-1.332,1.74707a7.67765,7.67765,0,0,0,1.49414,1.65625,5.13727,5.13727,0,0,0,.82812-1.74707h.69336a6.71863,6.71863,0,0,1-1.03515,2.11621,3.90961,3.90961,0,0,0,1.10742.56739Zm-2.9795-.59375a1.723,1.723,0,0,0,1.125-.47657,8.95557,8.95557,0,0,1-1.54882-1.75586,1.55457,1.55457,0,0,0-.73828,1.14258A1.08911,1.08911,0,0,0,217.57812,16.541Zm-.18945-3.10547c.54-.36035,1.00879-.72071,1.00879-1.24219,0-.34277-.16211-.64844-.55859-.64844a.76754.76754,0,0,0-.72949.85547A2.48457,2.48457,0,0,0,217.38867,13.43555Z" fill="#cacaca"/><path d="M223.49023,11.12109h1.75586c1.19727,0,2.03418.40625,2.03418,1.44141a1.28329,1.28329,0,0,1-1.03515,1.28711v.03516c.86426.13574,1.36816.60351,1.36816,1.41406,0,1.16113-.918,1.72851-2.23242,1.72851h-1.89063Zm1.62989,2.52149c.999,0,1.42187-.36035,1.42187-1.01758,0-.63867-.47656-.90918-1.38574-.90918h-.91016v1.92676Zm.15234,2.791c1.00879,0,1.60254-.36914,1.60254-1.17089,0-.7295-.56641-1.06153-1.60254-1.06153h-1.02637v2.23242Z" fill="#cacaca"/><line x1="79.99992" y1="210.99951" x2="369.45767" y2="210.99951" fill="none" stroke="#979797" stroke-width="0.5"/><polygon points="367.301 213.544 366.96 213.178 369.266 211 366.96 208.821 367.301 208.455 370 211 367.301 213.544" fill="#979797"/><line x1="90.00003" y1="41.54297" x2="90.00003" y2="221.00049" fill="none" stroke="#979797" stroke-width="0.5"/><polygon points="87.455 43.7 87.821 44.041 90 41.735 92.178 44.041 92.544 43.7 90 41 87.455 43.7" fill="#979797"/><line x1="84.25" y1="80.99961" x2="90.25" y2="80.99884" fill="none" stroke="#979797" stroke-width="0.5"/><line x1="84.25" y1="100.99961" x2="90.25" y2="100.99884" fill="none" stroke="#979797" stroke-width="0.5"/><line x1="84.25" y1="170.99961" x2="90.25" y2="170.99884" fill="none" stroke="#979797" stroke-width="0.5"/><line x1="110" y1="210.99998" x2="110" y2="40.99984" fill="none" stroke="#666" stroke-width="0.5" stroke-dasharray="2 1"/><line x1="89.99925" y1="81" x2="150" y2="81" fill="none" stroke="#666" stroke-width="0.5" stroke-dasharray="2 1"/><line x1="150" y1="210.99998" x2="150" y2="40.99984" fill="none" stroke="#666" stroke-width="0.5" stroke-dasharray="2 1"/><line x1="190" y1="210.99998" x2="190" y2="40.99984" fill="none" stroke="#666" stroke-width="0.5" stroke-dasharray="2 1"/><line x1="290" y1="210.99998" x2="290" y2="40.99984" fill="none" stroke="#666" stroke-width="0.5" stroke-dasharray="2 1"/><line x1="350" y1="210.99998" x2="350" y2="40.99984" fill="none" stroke="#666" stroke-width="0.5" stroke-dasharray="2 1"/><line x1="89.99962" y1="170.99961" x2="290.00038" y2="170.99961" fill="none" stroke="#666" stroke-width="0.5" stroke-dasharray="2 1"/><line x1="89.99962" y1="100.99961" x2="190.00038" y2="100.99961" fill="none" stroke="#666" stroke-width="0.5" stroke-dasharray="2 1"/><path d="M110,211H350c-33.25-1.47729-54.5-12.22607-60-40-50-.58936-83.25-10.91064-100-70L150,81l-.00055.00171C147.49982,191.79443,133.24988,211,110,211Z" fill="#535568"/><path d="M110,211c23.24988,0,37.49982-19.20557,39.99945-129.99829L149.99976,81C126.74967,81,112.49976,100.2055,110,211Z" fill="#6d718a"/><path d="M149.99976,81c-23.25009,0-37.5,19.20549-39.99976,130" fill="none" stroke="#e9a460" stroke-width="0.8" stroke-dasharray="2 2"/><path d="M110,211c23.24988,0,37.49982-19.20557,39.99945-129.99829L150,81" fill="none" stroke="#e9a460" stroke-width="0.8" stroke-dasharray="2 2"/><path d="M149.99945,81.00171,150,81l40,20c16.75,59.08936,50,69.41064,100,70,5.5,27.77393,26.75,38.52271,60,40" fill="none" stroke="#e9a460" stroke-width="0.8"/><line x1="150" y1="81" x2="110" y2="211" fill="none" stroke="#e9a460" stroke-width="0.8"/><circle cx="150" cy="81" r="2.25" fill="#c46417"/><path d="M150,79a2,2,0,1,1-2,2,2.00212,2.00212,0,0,1,2-2m0-.5a2.5,2.5,0,1,0,2.5,2.5,2.49991,2.49991,0,0,0-2.5-2.5Z" fill="#c1c9fd"/><path d="M150,78.5a2.5,2.5,0,1,1-2.5,2.5,2.49991,2.49991,0,0,1,2.5-2.5m0-.5a3,3,0,1,0,3,3,3.00333,3.00333,0,0,0-3-3Z"/><circle cx="290" cy="170.99902" r="2.25" fill="#c46417"/><path d="M290,168.99854a2,2,0,1,1-2,2,2.00212,2.00212,0,0,1,2-2m0-.5a2.5,2.5,0,1,0,2.5,2.5,2.49991,2.49991,0,0,0-2.5-2.5Z" fill="#c1c9fd"/><path d="M290,168.49854a2.5,2.5,0,1,1-2.5,2.5,2.49991,2.49991,0,0,1,2.5-2.5m0-.5a3,3,0,1,0,3,3,3.00333,3.00333,0,0,0-3-3Z"/><circle cx="190" cy="101" r="2.25" fill="#c46417"/><path d="M190,99a2,2,0,1,1-2,2,2.00212,2.00212,0,0,1,2-2m0-.5a2.5,2.5,0,1,0,2.5,2.5,2.49991,2.49991,0,0,0-2.5-2.5Z" fill="#c1c9fd"/><path d="M190,98.5a2.5,2.5,0,1,1-2.5,2.5,2.49991,2.49991,0,0,1,2.5-2.5m0-.5a3,3,0,1,0,3,3,3.00333,3.00333,0,0,0-3-3Z"/></svg>