<svg xmlns="http://www.w3.org/2000/svg" viewBox="0 0 420 276">
  <title>envelope-ab</title>
  <g>
    <rect x="0.25049" y="0.25" width="419.5" height="275.5" rx="1.75" ry="1.75" fill="#202020"/>
    <path d="M418.00046.5a1.50166,1.50166,0,0,1,1.5,1.5V274a1.50166,1.50166,0,0,1-1.5,1.5h-416a1.50167,1.50167,0,0,1-1.5-1.5V2a1.50167,1.50167,0,0,1,1.5-1.5h416m0-.5h-416a2,2,0,0,0-2,2V274a2,2,0,0,0,2,2h416a2,2,0,0,0,2-2V2a2,2,0,0,0-2-2Z" fill="#363636"/>
  </g>
  <g>
    <rect x="24.5" y="33.5" width="371" height="221" fill="#0f0f0f"/>
    <path d="M395,34V254H25V34H395m1-1H24V255H396V33Z" fill="#363636"/>
  </g>
  <g>
    <rect x="24.5" y="22.5" width="371" height="11" fill="#363636"/>
    <path d="M395,23V33H25V23H395m1-1H24V34H396V22Z" fill="#363636"/>
  </g>
  <g>
    <line x1="65" y1="34" x2="65" y2="254.00079" fill="none" stroke="#202020" stroke-width="0.5"/>
    <line x1="55" y1="34" x2="55" y2="254.00079" fill="none" stroke="#202020" stroke-width="0.5"/>
    <line x1="45" y1="34" x2="45" y2="254.00079" fill="none" stroke="#202020" stroke-width="0.5"/>
    <line x1="35" y1="34" x2="35" y2="254.00079" fill="none" stroke="#202020" stroke-width="0.5"/>
    <line x1="75" y1="34" x2="75" y2="254.00079" fill="none" stroke="#202020" stroke-width="0.5"/>
    <line x1="85" y1="34" x2="85" y2="254.00079" fill="none" stroke="#202020" stroke-width="0.5"/>
    <line x1="95" y1="34" x2="95" y2="254.00079" fill="none" stroke="#202020" stroke-width="0.5"/>
    <line x1="105" y1="34" x2="105" y2="254.00079" fill="none" stroke="#202020" stroke-width="0.5"/>
    <line x1="115" y1="34" x2="115" y2="254.00079" fill="none" stroke="#202020" stroke-width="0.5"/>
    <line x1="125" y1="34" x2="125" y2="254.00079" fill="none" stroke="#202020" stroke-width="0.5"/>
    <line x1="135" y1="34" x2="135" y2="254.00079" fill="none" stroke="#202020" stroke-width="0.5"/>
    <line x1="145" y1="34" x2="145" y2="254.00079" fill="none" stroke="#202020" stroke-width="0.5"/>
    <line x1="155" y1="34" x2="155" y2="254.00079" fill="none" stroke="#202020" stroke-width="0.5"/>
    <line x1="165" y1="34" x2="165" y2="254.00079" fill="none" stroke="#202020" stroke-width="0.5"/>
    <line x1="175" y1="34" x2="175" y2="254.00079" fill="none" stroke="#202020" stroke-width="0.5"/>
    <line x1="185" y1="34" x2="185" y2="254.00079" fill="none" stroke="#202020" stroke-width="0.5"/>
    <line x1="195" y1="34" x2="195" y2="254.00079" fill="none" stroke="#202020" stroke-width="0.5"/>
    <line x1="225" y1="34" x2="225" y2="254.00079" fill="none" stroke="#202020" stroke-width="0.5"/>
    <line x1="215" y1="34" x2="215" y2="254.00079" fill="none" stroke="#202020" stroke-width="0.5"/>
    <line x1="205" y1="34" x2="205" y2="254.00079" fill="none" stroke="#202020" stroke-width="0.5"/>
    <line x1="235" y1="34" x2="235" y2="254.00079" fill="none" stroke="#202020" stroke-width="0.5"/>
    <line x1="245" y1="34" x2="245" y2="254.00079" fill="none" stroke="#202020" stroke-width="0.5"/>
    <line x1="255" y1="34" x2="255" y2="254.00079" fill="none" stroke="#202020" stroke-width="0.5"/>
    <line x1="265" y1="34" x2="265" y2="254.00079" fill="none" stroke="#202020" stroke-width="0.5"/>
    <line x1="275" y1="34" x2="275" y2="254.00079" fill="none" stroke="#202020" stroke-width="0.5"/>
    <line x1="285" y1="34" x2="285" y2="254.00079" fill="none" stroke="#202020" stroke-width="0.5"/>
    <line x1="295" y1="34" x2="295" y2="254.00079" fill="none" stroke="#202020" stroke-width="0.5"/>
    <line x1="305" y1="34" x2="305" y2="254.00079" fill="none" stroke="#202020" stroke-width="0.5"/>
    <line x1="315" y1="34" x2="315" y2="254.00079" fill="none" stroke="#202020" stroke-width="0.5"/>
    <line x1="325" y1="34" x2="325" y2="254.00079" fill="none" stroke="#202020" stroke-width="0.5"/>
    <line x1="335" y1="34" x2="335" y2="254.00079" fill="none" stroke="#202020" stroke-width="0.5"/>
    <line x1="345" y1="34" x2="345" y2="254.00079" fill="none" stroke="#202020" stroke-width="0.5"/>
    <line x1="355" y1="34" x2="355" y2="254.00079" fill="none" stroke="#202020" stroke-width="0.5"/>
    <line x1="365" y1="34" x2="365" y2="254.00079" fill="none" stroke="#202020" stroke-width="0.5"/>
    <line x1="375" y1="34" x2="375" y2="254.00079" fill="none" stroke="#202020" stroke-width="0.5"/>
    <line x1="385" y1="34" x2="385" y2="254.00079" fill="none" stroke="#202020" stroke-width="0.5"/>
    <line x1="24.99997" y1="123.9986" x2="394.99995" y2="123.9986" fill="none" stroke="#202020" stroke-width="0.5"/>
    <line x1="24.99997" y1="133.99937" x2="394.99995" y2="133.99937" fill="none" stroke="#202020" stroke-width="0.5"/>
    <line x1="24.99997" y1="113.9986" x2="394.99995" y2="113.9986" fill="none" stroke="#202020" stroke-width="0.5"/>
    <line x1="24.99997" y1="103.9986" x2="394.99995" y2="103.9986" fill="none" stroke="#202020" stroke-width="0.5"/>
    <line x1="24.99997" y1="93.9986" x2="394.99995" y2="93.9986" fill="none" stroke="#202020" stroke-width="0.5"/>
    <line x1="24.99997" y1="83.9986" x2="394.99995" y2="83.9986" fill="none" stroke="#202020" stroke-width="0.5"/>
    <line x1="24.99997" y1="73.9986" x2="394.99995" y2="73.9986" fill="none" stroke="#202020" stroke-width="0.5"/>
    <line x1="24.99997" y1="63.99921" x2="394.99995" y2="63.99921" fill="none" stroke="#202020" stroke-width="0.5"/>
    <line x1="24.99997" y1="53.9994" x2="394.99995" y2="53.9994" fill="none" stroke="#202020" stroke-width="0.5"/>
    <line x1="24.99997" y1="44" x2="394.99995" y2="44" fill="none" stroke="#202020" stroke-width="0.5"/>
    <line x1="24.99997" y1="203.9986" x2="394.99995" y2="203.9986" fill="none" stroke="#202020" stroke-width="0.5"/>
    <line x1="24.99997" y1="213.99937" x2="394.99995" y2="213.99937" fill="none" stroke="#202020" stroke-width="0.5"/>
    <line x1="24.99997" y1="193.9986" x2="394.99995" y2="193.9986" fill="none" stroke="#202020" stroke-width="0.5"/>
    <line x1="24.99997" y1="233.9986" x2="394.99995" y2="233.9986" fill="none" stroke="#202020" stroke-width="0.5"/>
    <line x1="24.99997" y1="243.9986" x2="394.99995" y2="243.9986" fill="none" stroke="#202020" stroke-width="0.5"/>
    <line x1="24.99997" y1="223.9986" x2="394.99995" y2="223.9986" fill="none" stroke="#202020" stroke-width="0.5"/>
    <line x1="24.99997" y1="183.9986" x2="394.99995" y2="183.9986" fill="none" stroke="#202020" stroke-width="0.5"/>
    <line x1="24.99997" y1="173.9986" x2="394.99995" y2="173.9986" fill="none" stroke="#202020" stroke-width="0.5"/>
    <line x1="24.99997" y1="163.9986" x2="394.99995" y2="163.9986" fill="none" stroke="#202020" stroke-width="0.5"/>
    <line x1="24.99997" y1="153.9986" x2="394.99995" y2="153.9986" fill="none" stroke="#202020" stroke-width="0.5"/>
    <line x1="24.99997" y1="143.99921" x2="394.99995" y2="143.99921" fill="none" stroke="#202020" stroke-width="0.5"/>
  </g>
  <g>
    <g>
      <path d="M128.89453,68.916h-1.82812l-.53906,1.583h-.3291l1.63184-4.61621h.32227l1.625,4.61621h-.34375Zm-.09082-.27344-.29492-.86133c-.18164-.5459-.34961-1.0293-.51074-1.59668h-.02832c-.16113.56738-.32227,1.05078-.51074,1.59668l-.29492.86133Z" fill="#cacaca"/>
      <path d="M130.44727,67.40332h-.52539V67.165l.53223-.02832.042-.97266h.26563v.97266h.97363v.2666h-.97363V69.5957c0,.42773.10547.71484.56738.71484a1.13791,1.13791,0,0,0,.4209-.10547l.084.252a1.86817,1.86817,0,0,1-.54687.126c-.65137,0-.83984-.41309-.83984-1.01562Z" fill="#cacaca"/>
      <path d="M132.63184,67.40332h-.52539V67.165l.53223-.02832.042-.97266h.26563v.97266h.97363v.2666h-.97363V69.5957c0,.42773.10547.71484.56738.71484a1.13791,1.13791,0,0,0,.4209-.10547l.084.252a1.86817,1.86817,0,0,1-.54687.126c-.65137,0-.83984-.41309-.83984-1.01562Z" fill="#cacaca"/>
      <path d="M136.57324,68.39063c.01465-.51172-.13281-1.06445-.791-1.06445a1.85359,1.85359,0,0,0-1.07129.39258l-.14062-.23145a2.2449,2.2449,0,0,1,1.24707-.43457c.79785,0,1.06445.57422,1.06445,1.2959V70.499H136.623l-.03516-.43457h-.01465a1.99162,1.99162,0,0,1-1.19043.51855.88544.88544,0,0,1-.98047-.9248C134.40234,68.916,135.082,68.55859,136.57324,68.39063Zm-1.1416,1.92578a1.75837,1.75837,0,0,0,1.1416-.5459v-1.1416c-1.37891.16113-1.84863.4834-1.84863,1.01563A.63006.63006,0,0,0,135.43164,70.31641Z" fill="#cacaca"/>
      <path d="M139.33789,67.05273a1.37682,1.37682,0,0,1,.9873.41406l-.18262.2168a1.14462,1.14462,0,0,0-.79785-.35742,1.33459,1.33459,0,0,0-1.21875,1.499c0,.88184.4834,1.48535,1.21875,1.48535a1.35313,1.35313,0,0,0,.89648-.38574l.16113.21a1.58646,1.58646,0,0,1-1.07227.44824,1.5571,1.5571,0,0,1-1.52637-1.75781A1.5938,1.5938,0,0,1,139.33789,67.05273Z" fill="#cacaca"/>
      <path d="M141.22754,65.46289h.30762v3.71289h.01465l1.65918-2.03906h.35742l-1.09277,1.33105L143.749,70.499h-.34375l-1.11328-1.7998-.75684.88281v.917h-.30762Z" fill="#cacaca"/>
    </g>
    <g>
      <path d="M71.26953,56.38281h.32227v4.33594h2.12207V60.999H71.26953Z" fill="#cacaca"/>
      <path d="M75.582,57.55273c.79785,0,1.28809.56836,1.28809,1.55469a1.57515,1.57515,0,0,1-.01367.25293H74.43359a1.31944,1.31944,0,0,0,1.26758,1.45605,1.49083,1.49083,0,0,0,.90332-.30078l.126.23828a1.87271,1.87271,0,0,1-1.05762.3291,1.78751,1.78751,0,0,1-.09082-3.53027Zm.99414,1.56934c0-.86133-.38477-1.30273-.9873-1.30273a1.268,1.268,0,0,0-1.15527,1.30273Z" fill="#cacaca"/>
      <path d="M77.30273,57.63672h.33594l.75684,2.1084c.10449.32227.23145.65918.33594.9668h.02832c.1123-.30762.23047-.64453.34277-.9668l.75684-2.1084h.31543L78.92773,60.999h-.36426Z" fill="#cacaca"/>
      <path d="M82.085,57.55273c.79785,0,1.28809.56836,1.28809,1.55469a1.57515,1.57515,0,0,1-.01367.25293H80.93652a1.31944,1.31944,0,0,0,1.26758,1.45605,1.49083,1.49083,0,0,0,.90332-.30078l.126.23828a1.87271,1.87271,0,0,1-1.05762.3291,1.78751,1.78751,0,0,1-.09082-3.53027Zm.99414,1.56934c0-.86133-.38477-1.30273-.9873-1.30273a1.268,1.268,0,0,0-1.15527,1.30273Z" fill="#cacaca"/>
      <path d="M84.28223,55.96289h.30762v4.62988c0,.14746.06348.21777.14746.21777a.51838.51838,0,0,0,.126-.01465l.05566.252a.66188.66188,0,0,1-.22363.03516c-.27344,0-.41309-.168-.41309-.53223Z" fill="#cacaca"/>
    </g>
    <g>
      <path d="M57.17676,90.38379H58.4375c1.0293,0,1.63867.33691,1.63867,1.28906,0,.90332-.61621,1.34473-1.63867,1.34473H57.499V95h-.32227Zm1.17676,2.36035c.94531,0,1.39355-.31445,1.39355-1.07129,0-.77734-.45508-1.01562-1.39355-1.01562H57.499v2.08691Z" fill="#cacaca"/>
      <path d="M62.02832,91.55371c.79785,0,1.28809.56738,1.28809,1.55469a1.57516,1.57516,0,0,1-.01367.25293H60.87988a1.31944,1.31944,0,0,0,1.26758,1.45605,1.48522,1.48522,0,0,0,.90332-.30176l.126.23828a1.86515,1.86515,0,0,1-1.05762.33008,1.78751,1.78751,0,0,1-.09082-3.53027Zm.99414,1.56934c0-.86133-.38477-1.30273-.9873-1.30273A1.26733,1.26733,0,0,0,60.87988,93.123Z" fill="#cacaca"/>
      <path d="M66.10254,92.8916c.01465-.51172-.13281-1.06543-.791-1.06543a1.85359,1.85359,0,0,0-1.07129.39258l-.14062-.23047a2.2449,2.2449,0,0,1,1.24707-.43457c.79785,0,1.06445.57422,1.06445,1.2959V95h-.25879l-.03516-.43457h-.01465a1.99746,1.99746,0,0,1-1.19043.51855.88544.88544,0,0,1-.98047-.9248C63.93164,93.416,64.61133,93.05957,66.10254,92.8916Zm-1.1416,1.92578a1.75837,1.75837,0,0,0,1.1416-.5459V93.12891c-1.37891.16211-1.84863.48438-1.84863,1.01563A.63032.63032,0,0,0,64.96094,94.81738Z" fill="#cacaca"/>
      <path d="M67.61426,89.96387h.30762v3.71191h.01465L69.5957,91.6377h.35742l-1.09277,1.33105L70.13574,95H69.792l-1.11328-1.80078-.75684.88281V95h-.30762Z" fill="#cacaca"/>
      <path d="M72.26855,90.38379h.32227v4.335h2.12207V95H72.26855Z" fill="#cacaca"/>
      <path d="M76.58105,91.55371c.79785,0,1.28809.56738,1.28809,1.55469a1.57516,1.57516,0,0,1-.01367.25293H75.43262a1.31944,1.31944,0,0,0,1.26758,1.45605,1.48522,1.48522,0,0,0,.90332-.30176l.126.23828a1.86515,1.86515,0,0,1-1.05762.33008,1.78751,1.78751,0,0,1-.09082-3.53027ZM77.5752,93.123c0-.86133-.38477-1.30273-.9873-1.30273A1.26733,1.26733,0,0,0,75.43262,93.123Z" fill="#cacaca"/>
      <path d="M78.30176,91.6377h.33594l.75684,2.1084c.10449.32227.23145.6582.33594.9668h.02832c.1123-.30859.23047-.64453.34277-.9668l.75684-2.1084h.31543L79.92676,95H79.5625Z" fill="#cacaca"/>
      <path d="M83.084,91.55371c.79785,0,1.28809.56738,1.28809,1.55469a1.57516,1.57516,0,0,1-.01367.25293H81.93555a1.31944,1.31944,0,0,0,1.26758,1.45605,1.48522,1.48522,0,0,0,.90332-.30176l.126.23828a1.86515,1.86515,0,0,1-1.05762.33008,1.78751,1.78751,0,0,1-.09082-3.53027Zm.99414,1.56934c0-.86133-.38477-1.30273-.9873-1.30273A1.26733,1.26733,0,0,0,81.93555,93.123Z" fill="#cacaca"/>
      <path d="M85.28125,89.96387h.30762v4.62988c0,.14648.06348.2168.14746.2168a.554.554,0,0,0,.126-.01367l.05566.252a.66188.66188,0,0,1-.22363.03516c-.27344,0-.41309-.168-.41309-.5332Z" fill="#cacaca"/>
    </g>
    <g>
      <path d="M39.65039,110.88281h1.24707c.92383,0,1.51953.35156,1.51953,1.12109a.9978.9978,0,0,1-.81934,1.00879v.02832c.67969.09766,1.10645.47656,1.10645,1.11328,0,.88965-.67187,1.34473-1.71582,1.34473H39.65039Zm1.11328,2.03125c.95313,0,1.33105-.30762,1.33105-.917,0-.59473-.44141-.84668-1.28809-.84668h-.834v1.76367Zm.14063,2.31836c.917,0,1.47754-.33594,1.47754-1.07812,0-.6582-.53906-.98047-1.47754-.98047h-.93164v2.05859Z" fill="#cacaca"/>
      <path d="M43.63379,112.13672h.26563l.02832.624h.02148a1.15314,1.15314,0,0,1,.95215-.708.69619.69619,0,0,1,.33594.07031l-.07031.28027a.72926.72926,0,0,0-.30762-.05566c-.30078,0-.6582.23047-.918.86133v2.29h-.30762Z" fill="#cacaca"/>
      <path d="M46.96582,112.05273c.79785,0,1.28809.56836,1.28809,1.55469a1.57516,1.57516,0,0,1-.01367.25293H45.81738a1.31944,1.31944,0,0,0,1.26758,1.45605,1.49083,1.49083,0,0,0,.90332-.30078l.126.23828a1.87271,1.87271,0,0,1-1.05762.3291,1.78751,1.78751,0,0,1-.09082-3.53027Zm.99414,1.56934c0-.86133-.38477-1.30273-.9873-1.30273a1.268,1.268,0,0,0-1.15527,1.30273Z" fill="#cacaca"/>
      <path d="M51.04,113.39063c.01465-.51172-.13281-1.06445-.791-1.06445a1.85359,1.85359,0,0,0-1.07129.39258l-.14062-.23145a2.24489,2.24489,0,0,1,1.24707-.43457c.79785,0,1.06445.57422,1.06445,1.2959V115.499h-.25879l-.03516-.43457H51.04a1.99162,1.99162,0,0,1-1.19043.51855.88544.88544,0,0,1-.98047-.9248C48.86914,113.916,49.54883,113.55859,51.04,113.39063Zm-1.1416,1.92578a1.75837,1.75837,0,0,0,1.1416-.5459v-1.1416c-1.37891.16113-1.84863.4834-1.84863,1.01563A.63006.63006,0,0,0,49.89844,115.31641Z" fill="#cacaca"/>
      <path d="M52.55176,110.46289h.30762v3.71289H52.874l1.65918-2.03906h.35742l-1.09277,1.33105,1.27539,2.03125h-.34375l-1.11328-1.7998-.75684.88281v.917h-.30762Z" fill="#cacaca"/>
      <path d="M56.10742,115.793v1.22656H55.7998v-4.88281h.26563l.02832.4209h.02148a1.96662,1.96662,0,0,1,1.1416-.50488c.89648,0,1.34473.67285,1.34473,1.7168a1.608,1.608,0,0,1-1.48535,1.81348,1.77348,1.77348,0,0,1-1.00879-.41309Zm.99512-.48242c.67871,0,1.16895-.63086,1.16895-1.541,0-.82617-.29395-1.44336-1.06445-1.44336a1.7831,1.7831,0,0,0-1.09961.55273V114.875A1.64471,1.64471,0,0,0,57.10254,115.31055Z" fill="#cacaca"/>
      <path d="M60.833,112.05273a1.78745,1.78745,0,1,1-1.50586,1.77246A1.58333,1.58333,0,0,1,60.833,112.05273Zm0,3.25781c.67969,0,1.19043-.60352,1.19043-1.48535,0-.88965-.51074-1.499-1.19043-1.499s-1.18359.60938-1.18359,1.499C59.64941,114.707,60.15332,115.31055,60.833,115.31055Z" fill="#cacaca"/>
      <path d="M63.2334,111.05176a.28039.28039,0,1,1,.28027.27246A.26856.26856,0,0,1,63.2334,111.05176Zm.11914,1.085h.30762v3.3623h-.30762Z" fill="#cacaca"/>
      <path d="M64.95508,112.13672h.26563l.02832.51855h.02148a1.64224,1.64224,0,0,1,1.15527-.60254c.69336,0,1.01563.4209,1.01563,1.28906V115.499h-.30859v-2.11523c0-.71387-.22363-1.0498-.77051-1.0498-.39844,0-.68555.209-1.09961.62988V115.499h-.30762Z" fill="#cacaca"/>
      <path d="M68.75684,112.40332h-.52539V112.165l.53223-.02832.042-.97266h.26563v.97266h.97363v.2666h-.97363v2.19238c0,.42773.10547.71484.56738.71484a1.13791,1.13791,0,0,0,.4209-.10547l.084.252a1.86817,1.86817,0,0,1-.54687.126c-.65137,0-.83984-.41309-.83984-1.01562Z" fill="#cacaca"/>
      <path d="M72.26953,110.88281h.32227v4.33594h2.12207v.28027H72.26953Z" fill="#cacaca"/>
      <path d="M76.583,112.05273c.79785,0,1.28809.56836,1.28809,1.55469a1.57516,1.57516,0,0,1-.01367.25293H75.43457a1.31944,1.31944,0,0,0,1.26758,1.45605,1.49083,1.49083,0,0,0,.90332-.30078l.126.23828a1.87271,1.87271,0,0,1-1.05762.3291,1.78751,1.78751,0,0,1-.09082-3.53027Zm.99414,1.56934c0-.86133-.38477-1.30273-.9873-1.30273a1.268,1.268,0,0,0-1.15527,1.30273Z" fill="#cacaca"/>
      <path d="M78.30371,112.13672h.33594l.75684,2.1084c.10449.32227.23145.65918.33594.9668h.02832c.1123-.30762.23047-.64453.34277-.9668l.75684-2.1084h.31543l-1.24707,3.3623h-.36426Z" fill="#cacaca"/>
      <path d="M83.08594,112.05273c.79785,0,1.28809.56836,1.28809,1.55469a1.57516,1.57516,0,0,1-.01367.25293H81.9375a1.31944,1.31944,0,0,0,1.26758,1.45605,1.49083,1.49083,0,0,0,.90332-.30078l.126.23828a1.87271,1.87271,0,0,1-1.05762.3291,1.78751,1.78751,0,0,1-.09082-3.53027Zm.99414,1.56934c0-.86133-.38477-1.30273-.9873-1.30273a1.268,1.268,0,0,0-1.15527,1.30273Z" fill="#cacaca"/>
      <path d="M85.2832,110.46289h.30762v4.62988c0,.14746.06348.21777.14746.21777a.51838.51838,0,0,0,.126-.01465l.05566.252a.66188.66188,0,0,1-.22363.03516c-.27344,0-.41309-.168-.41309-.53223Z" fill="#cacaca"/>
    </g>
    <g>
      <path d="M49.72949,184.666a1.8207,1.8207,0,0,0,1.35938.623c.7002,0,1.14844-.37891,1.14844-.9248,0-.57422-.37793-.7627-.834-.96582l-.7002-.31641a1.26377,1.26377,0,0,1-.93164-1.14844,1.20943,1.20943,0,0,1,1.33789-1.13477,1.75941,1.75941,0,0,1,1.28906.55371l-.18945.21777a1.46223,1.46223,0,0,0-1.09961-.47656c-.60937,0-1.01562.32227-1.01562.82617,0,.53223.46289.73535.79883.88965l.7002.30762c.51172.23145.9668.51953.9668,1.22656A1.31239,1.31239,0,0,1,51.082,185.583a2.03526,2.03526,0,0,1-1.55566-.69336Z" fill="#cacaca"/>
      <path d="M53.41895,182.13672h.30762V184.252c0,.71484.22461,1.05078.76367,1.05078.39941,0,.69336-.21,1.08594-.68555v-2.48047h.30762v3.3623H55.625l-.03516-.56055h-.01367a1.50243,1.50243,0,0,1-1.1416.64453c-.69336,0-1.01562-.41992-1.01562-1.28809Z" fill="#cacaca"/>
      <path d="M56.93262,184.88965a1.55753,1.55753,0,0,0,1.07129.42676c.52539,0,.79883-.30762.79883-.665,0-.41992-.43457-.60254-.81934-.74219-.51172-.18262-1.07227-.38574-1.07227-.96,0-.49023.38574-.89648,1.08594-.89648a1.56014,1.56014,0,0,1,.96.35059l-.168.21777a1.2708,1.2708,0,0,0-.80566-.30176c-.51855,0-.75684.30176-.75684.60938,0,.37109.39258.53223.792.67871.52441.19727,1.09961.37109,1.09961,1.03027a1.00356,1.00356,0,0,1-1.13477.94531,1.95111,1.95111,0,0,1-1.2334-.46191Z" fill="#cacaca"/>
      <path d="M60.083,182.40332h-.52539V182.165l.53223-.02832.042-.97266h.26563v.97266h.97363v.2666h-.97363v2.19238c0,.42773.10547.71484.56738.71484a1.13791,1.13791,0,0,0,.4209-.10547l.084.252a1.86817,1.86817,0,0,1-.54687.126c-.65137,0-.83984-.41309-.83984-1.01562Z" fill="#cacaca"/>
      <path d="M64.02441,183.39063c.01465-.51172-.13281-1.06445-.791-1.06445a1.85359,1.85359,0,0,0-1.07129.39258l-.14062-.23145a2.24489,2.24489,0,0,1,1.24707-.43457c.79785,0,1.06445.57422,1.06445,1.2959V185.499h-.25879l-.03516-.43457h-.01465a1.99162,1.99162,0,0,1-1.19043.51855.88544.88544,0,0,1-.98047-.9248C61.85352,183.916,62.5332,183.55859,64.02441,183.39063Zm-1.1416,1.92578a1.75837,1.75837,0,0,0,1.1416-.5459v-1.1416c-1.37891.16113-1.84863.4834-1.84863,1.01563A.63006.63006,0,0,0,62.88281,185.31641Z" fill="#cacaca"/>
      <path d="M65.417,181.05176a.28039.28039,0,1,1,.28027.27246A.26856.26856,0,0,1,65.417,181.05176Zm.11914,1.085h.30762v3.3623h-.30762Z" fill="#cacaca"/>
      <path d="M67.13867,182.13672h.26563l.02832.51855h.02148a1.64224,1.64224,0,0,1,1.15527-.60254c.69336,0,1.01563.4209,1.01563,1.28906V185.499h-.30859v-2.11523c0-.71387-.22363-1.0498-.77051-1.0498-.39844,0-.68555.209-1.09961.62988V185.499h-.30762Z" fill="#cacaca"/>
      <path d="M72.26953,180.88281h.32227v4.33594h2.12207v.28027H72.26953Z" fill="#cacaca"/>
      <path d="M76.582,182.05273c.79785,0,1.28809.56836,1.28809,1.55469a1.57516,1.57516,0,0,1-.01367.25293H75.43359a1.31944,1.31944,0,0,0,1.26758,1.45605,1.49083,1.49083,0,0,0,.90332-.30078l.126.23828a1.87271,1.87271,0,0,1-1.05762.3291,1.78751,1.78751,0,0,1-.09082-3.53027Zm.99414,1.56934c0-.86133-.38477-1.30273-.9873-1.30273a1.268,1.268,0,0,0-1.15527,1.30273Z" fill="#cacaca"/>
      <path d="M78.30273,182.13672h.33594l.75684,2.1084c.10449.32227.23145.65918.33594.9668h.02832c.1123-.30762.23047-.64453.34277-.9668l.75684-2.1084h.31543l-1.24707,3.3623h-.36426Z" fill="#cacaca"/>
      <path d="M83.085,182.05273c.79785,0,1.28809.56836,1.28809,1.55469a1.57516,1.57516,0,0,1-.01367.25293H81.93652a1.31944,1.31944,0,0,0,1.26758,1.45605,1.49083,1.49083,0,0,0,.90332-.30078l.126.23828a1.87271,1.87271,0,0,1-1.05762.3291,1.78751,1.78751,0,0,1-.09082-3.53027Zm.99414,1.56934c0-.86133-.38477-1.30273-.9873-1.30273a1.268,1.268,0,0,0-1.15527,1.30273Z" fill="#cacaca"/>
      <path d="M85.28223,180.46289h.30762v4.62988c0,.14746.06348.21777.14746.21777a.51838.51838,0,0,0,.126-.01465l.05566.252a.66188.66188,0,0,1-.22363.03516c-.27344,0-.41309-.168-.41309-.53223Z" fill="#cacaca"/>
    </g>
    <g>
      <path d="M364.32959,230.33008h-1.47168v-.2793h3.25684v.2793h-1.46387V234.666h-.32129Z" fill="#cacaca"/>
      <path d="M366.8208,230.21875a.28027.28027,0,0,1,.56055,0,.28036.28036,0,0,1-.56055,0Zm.11914,1.08594h.30762V234.666h-.30762Z" fill="#cacaca"/>
      <path d="M368.54248,231.30469h.26563l.02832.51758h.02148a1.5376,1.5376,0,0,1,1.05664-.60156.87307.87307,0,0,1,.93164.68555,1.689,1.689,0,0,1,1.1416-.68555c.67285,0,1.00879.41992,1.00879,1.28809V234.666h-.31543v-2.11523c0-.71484-.2373-1.05078-.749-1.05078a1.46808,1.46808,0,0,0-1.00879.63086V234.666h-.30762v-2.11523c0-.71484-.23828-1.05078-.75684-1.05078a1.497,1.497,0,0,0-1.00879.63086V234.666h-.30762Z" fill="#cacaca"/>
      <path d="M375.41064,231.2207c.79785,0,1.28809.56641,1.28809,1.55469a1.5571,1.5571,0,0,1-.01367.252h-2.42285a1.31977,1.31977,0,0,0,1.26758,1.457,1.48522,1.48522,0,0,0,.90332-.30176l.126.23828a1.87271,1.87271,0,0,1-1.05762.3291,1.78694,1.78694,0,0,1-.09082-3.5293Zm.99414,1.56836c0-.86133-.38477-1.30273-.9873-1.30273a1.268,1.268,0,0,0-1.15527,1.30273Z" fill="#cacaca"/>
    </g>
    <g>
      <path d="M104.021,232.05078h.33594l1.94043,3.25586.52539.918h.02832c-.02148-.44824-.042-.89648-.042-1.34473v-2.8291h.30078V236.666h-.33594l-1.94043-3.25684-.52539-.917h-.02734c.02051.44141.042.86133.042,1.30859V236.666H104.021Z" fill="#cacaca"/>
      <path d="M109.63623,233.2207a1.78688,1.78688,0,1,1-1.50586,1.77148A1.58243,1.58243,0,0,1,109.63623,233.2207Zm0,3.25586c.67969,0,1.19043-.60156,1.19043-1.48437,0-.88965-.51074-1.499-1.19043-1.499s-1.18359.60938-1.18359,1.499C108.45264,235.875,108.95654,236.47656,109.63623,236.47656Z" fill="#cacaca"/>
      <path d="M112.23193,233.57031h-.52539V233.332l.53223-.02734.042-.97461h.26563v.97461H113.52v.26563h-.97363v2.19238c0,.42676.10547.71387.56738.71387a1.13639,1.13639,0,0,0,.4209-.10449l.084.252a1.90019,1.90019,0,0,1-.54687.126c-.65137,0-.83984-.41309-.83984-1.01562Z" fill="#cacaca"/>
      <path d="M115.45264,233.2207c.79785,0,1.28809.56641,1.28809,1.55469a1.5571,1.5571,0,0,1-.01367.252H114.3042a1.31977,1.31977,0,0,0,1.26758,1.457,1.48522,1.48522,0,0,0,.90332-.30176l.126.23828a1.87271,1.87271,0,0,1-1.05762.3291,1.78694,1.78694,0,0,1-.09082-3.5293Zm.99414,1.56836c0-.86133-.38477-1.30273-.9873-1.30273a1.268,1.268,0,0,0-1.15527,1.30273Z" fill="#cacaca"/>
      <path d="M118.75635,234.34082c0-1.457.791-2.374,1.90527-2.374,1.10645,0,1.89746.917,1.89746,2.374,0,1.46387-.791,2.40918-1.89746,2.40918C119.54736,236.75,118.75635,235.80469,118.75635,234.34082Zm3.4668,0c0-1.27441-.63086-2.08008-1.56152-2.08008-.93945,0-1.56934.80566-1.56934,2.08008,0,1.28223.62988,2.11523,1.56934,2.11523C121.59229,236.45605,122.22314,235.623,122.22314,234.34082Z" fill="#cacaca"/>
      <path d="M123.55811,233.30469h.26563l.02832.51758h.02148a1.641,1.641,0,0,1,1.15527-.60156c.69336,0,1.01563.41992,1.01563,1.28809V236.666h-.30859v-2.11523c0-.71484-.22363-1.05078-.77051-1.05078-.39844,0-.68555.21094-1.09961.63086V236.666h-.30762Z" fill="#cacaca"/>
    </g>
    <g>
      <path d="M284.042,232.05078h.33594l1.94043,3.25586.52539.918h.02832c-.02148-.44824-.042-.89648-.042-1.34473v-2.8291h.30078V236.666h-.33594l-1.94043-3.25684-.52539-.917h-.02734c.02051.44141.042.86133.042,1.30859V236.666H284.042Z" fill="#cacaca"/>
      <path d="M289.65723,233.2207a1.78688,1.78688,0,1,1-1.50586,1.77148A1.58243,1.58243,0,0,1,289.65723,233.2207Zm0,3.25586c.67969,0,1.19043-.60156,1.19043-1.48437,0-.88965-.51074-1.499-1.19043-1.499s-1.18359.60938-1.18359,1.499C288.47363,235.875,288.97754,236.47656,289.65723,236.47656Z" fill="#cacaca"/>
      <path d="M292.25293,233.57031h-.52539V233.332l.53223-.02734.042-.97461h.26563v.97461h.97363v.26563h-.97363v2.19238c0,.42676.10547.71387.56738.71387a1.13639,1.13639,0,0,0,.4209-.10449l.084.252a1.90019,1.90019,0,0,1-.54687.126c-.65137,0-.83984-.41309-.83984-1.01562Z" fill="#cacaca"/>
      <path d="M295.47363,233.2207c.79785,0,1.28809.56641,1.28809,1.55469a1.5571,1.5571,0,0,1-.01367.252H294.3252a1.31977,1.31977,0,0,0,1.26758,1.457,1.48522,1.48522,0,0,0,.90332-.30176l.126.23828a1.87271,1.87271,0,0,1-1.05762.3291,1.78694,1.78694,0,0,1-.09082-3.5293Zm.99414,1.56836c0-.86133-.38477-1.30273-.9873-1.30273a1.268,1.268,0,0,0-1.15527,1.30273Z" fill="#cacaca"/>
      <path d="M298.77734,234.34082c0-1.457.791-2.374,1.90527-2.374,1.10645,0,1.89746.917,1.89746,2.374,0,1.46387-.791,2.40918-1.89746,2.40918C299.56836,236.75,298.77734,235.80469,298.77734,234.34082Zm3.4668,0c0-1.27441-.63086-2.08008-1.56152-2.08008-.93945,0-1.56934.80566-1.56934,2.08008,0,1.28223.62988,2.11523,1.56934,2.11523C301.61328,236.45605,302.24414,235.623,302.24414,234.34082Z" fill="#cacaca"/>
      <path d="M306.73047,231.91016a.90268.90268,0,0,0-.40625-.09766c-.35742,0-.52539.28027-.52539.76367v.72852h.77734v.26563h-.77734v3.0957h-.30762v-3.0957h-1.55469v3.0957h-.30859v-3.0957h-.45508V233.332l.45508-.02734v-.624c0-.7002.33594-1.06445.91016-1.06445a1.38456,1.38456,0,0,1,.56738.126l-.084.252a1.03494,1.03494,0,0,0-.4834-.11133c-.39844,0-.60156.30078-.60156.81836v.60352h1.55469v-.75c0-.665.30078-1.00781.833-1.00781a1.24081,1.24081,0,0,1,.49023.11133Z" fill="#cacaca"/>
    </g>
    <g>
      <path d="M164.68994,65.88281h1.06445c1.42188,0,2.10156.89648,2.10156,2.291,0,1.40039-.67969,2.3252-2.09473,2.3252h-1.07129Zm1.0293,4.34375c1.25391,0,1.80078-.84766,1.80078-2.05273,0-1.19727-.54687-2.01758-1.80078-2.01758h-.707v4.07031Z" fill="#cacaca"/>
      <path d="M170.05322,67.05273c.79785,0,1.28809.56836,1.28809,1.55469a1.57515,1.57515,0,0,1-.01367.25293h-2.42285a1.31944,1.31944,0,0,0,1.26758,1.45605,1.49083,1.49083,0,0,0,.90332-.30078l.126.23828a1.87271,1.87271,0,0,1-1.05762.3291,1.78751,1.78751,0,0,1-.09082-3.53027Zm.99414,1.56934c0-.86133-.38477-1.30273-.9873-1.30273a1.268,1.268,0,0,0-1.15527,1.30273Z" fill="#cacaca"/>
      <path d="M173.50439,67.05273a1.37682,1.37682,0,0,1,.9873.41406l-.18262.2168a1.14462,1.14462,0,0,0-.79785-.35742,1.33459,1.33459,0,0,0-1.21875,1.499c0,.88184.4834,1.48535,1.21875,1.48535a1.35313,1.35313,0,0,0,.89648-.38574l.16113.21a1.58646,1.58646,0,0,1-1.07227.44824,1.5571,1.5571,0,0,1-1.52637-1.75781A1.5938,1.5938,0,0,1,173.50439,67.05273Z" fill="#cacaca"/>
      <path d="M177.3042,68.39063c.01465-.51172-.13281-1.06445-.791-1.06445a1.85359,1.85359,0,0,0-1.07129.39258l-.14062-.23145a2.2449,2.2449,0,0,1,1.24707-.43457c.79785,0,1.06445.57422,1.06445,1.2959V70.499H177.354l-.03516-.43457h-.01465a1.99162,1.99162,0,0,1-1.19043.51855.88544.88544,0,0,1-.98047-.9248C175.1333,68.916,175.813,68.55859,177.3042,68.39063Zm-1.1416,1.92578a1.75837,1.75837,0,0,0,1.1416-.5459v-1.1416c-1.37891.16113-1.84863.4834-1.84863,1.01563A.63006.63006,0,0,0,176.1626,70.31641Z" fill="#cacaca"/>
      <path d="M178.68311,71.74609c.41309,0,.69336-.37891.86133-.88965l.09082-.29395-1.37988-3.42578h.33594l.8125,2.11523c.10547.28125.23828.64453.36426.93945h.02832c.10449-.29492.2168-.6582.30762-.93945l.72168-2.11523h.31543l-1.33105,3.7832c-.18848.55957-.52539,1.11328-1.127,1.11328a.85449.85449,0,0,1-.34375-.07031l.07031-.27344A.78005.78005,0,0,0,178.68311,71.74609Z" fill="#cacaca"/>
      <path d="M183.20459,70.22656h1.05078V66.51367h-.79785v-.21a2.70452,2.70452,0,0,0,.86133-.28027h.252v4.20313h.97363V70.499h-2.33984Z" fill="#cacaca"/>
    </g>
    <g>
      <path d="M234.68945,65.88281h1.06445c1.42188,0,2.10156.89648,2.10156,2.291,0,1.40039-.67969,2.3252-2.09473,2.3252h-1.07129Zm1.0293,4.34375c1.25391,0,1.80078-.84766,1.80078-2.05273,0-1.19727-.54687-2.01758-1.80078-2.01758h-.707v4.07031Z" fill="#cacaca"/>
      <path d="M240.05273,67.05273c.79785,0,1.28809.56836,1.28809,1.55469a1.57515,1.57515,0,0,1-.01367.25293H238.9043a1.31944,1.31944,0,0,0,1.26758,1.45605,1.49083,1.49083,0,0,0,.90332-.30078l.126.23828a1.87271,1.87271,0,0,1-1.05762.3291,1.78751,1.78751,0,0,1-.09082-3.53027Zm.99414,1.56934c0-.86133-.38477-1.30273-.9873-1.30273a1.268,1.268,0,0,0-1.15527,1.30273Z" fill="#cacaca"/>
      <path d="M243.50391,67.05273a1.37682,1.37682,0,0,1,.9873.41406l-.18262.2168a1.14462,1.14462,0,0,0-.79785-.35742,1.33459,1.33459,0,0,0-1.21875,1.499c0,.88184.4834,1.48535,1.21875,1.48535a1.35313,1.35313,0,0,0,.89648-.38574l.16113.21a1.58646,1.58646,0,0,1-1.07227.44824,1.5571,1.5571,0,0,1-1.52637-1.75781A1.5938,1.5938,0,0,1,243.50391,67.05273Z" fill="#cacaca"/>
      <path d="M247.30371,68.39063c.01465-.51172-.13281-1.06445-.791-1.06445a1.85359,1.85359,0,0,0-1.07129.39258l-.14062-.23145a2.2449,2.2449,0,0,1,1.24707-.43457c.79785,0,1.06445.57422,1.06445,1.2959V70.499h-.25879l-.03516-.43457h-.01465a1.99162,1.99162,0,0,1-1.19043.51855.88544.88544,0,0,1-.98047-.9248C245.13281,68.916,245.8125,68.55859,247.30371,68.39063Zm-1.1416,1.92578a1.75837,1.75837,0,0,0,1.1416-.5459v-1.1416c-1.37891.16113-1.84863.4834-1.84863,1.01563A.63006.63006,0,0,0,246.16211,70.31641Z" fill="#cacaca"/>
      <path d="M248.68262,71.74609c.41309,0,.69336-.37891.86133-.88965l.09082-.29395-1.37988-3.42578h.33594l.8125,2.11523c.10547.28125.23828.64453.36426.93945h.02832c.10449-.29492.2168-.6582.30762-.93945l.72168-2.11523h.31543l-1.33105,3.7832c-.18848.55957-.52539,1.11328-1.127,1.11328a.85449.85449,0,0,1-.34375-.07031l.07031-.27344A.78005.78005,0,0,0,248.68262,71.74609Z" fill="#cacaca"/>
      <path d="M252.90332,70.30273c1.4707-1.49219,2.20605-2.3252,2.20605-3.10254a.90354.90354,0,0,0-.97363-.99512,1.40062,1.40062,0,0,0-1.043.58887l-.20312-.19629a1.68937,1.68937,0,0,1,1.27441-.6582,1.16475,1.16475,0,0,1,1.26074,1.25391c0,.88867-.8125,1.74414-2.05176,3.06055.24512-.01367.50391-.03516.749-.03516h1.52637V70.499h-2.74512Z" fill="#cacaca"/>
    </g>
    <g>
      <path d="M317.29443,70.499,316.04736,68.377h-.98047V70.499h-.32227V65.88281H316.061c.918,0,1.52051.33691,1.52051,1.21875a1.21,1.21,0,0,1-1.18359,1.25391l1.26758,2.14355Zm-1.31738-2.3877c.82031,0,1.26855-.33008,1.26855-1.00977,0-.69336-.44824-.94531-1.26855-.94531h-.91016v1.95508Z" fill="#cacaca"/>
      <path d="M319.71533,67.05273c.79785,0,1.28809.56836,1.28809,1.55469a1.57515,1.57515,0,0,1-.01367.25293h-2.42285a1.31944,1.31944,0,0,0,1.26758,1.45605,1.49083,1.49083,0,0,0,.90332-.30078l.126.23828a1.87271,1.87271,0,0,1-1.05762.3291,1.78751,1.78751,0,0,1-.09082-3.53027Zm.99414,1.56934c0-.86133-.38477-1.30273-.9873-1.30273a1.268,1.268,0,0,0-1.15527,1.30273Z" fill="#cacaca"/>
      <path d="M321.9126,65.46289h.30762v4.62988c0,.14746.06348.21777.14746.21777a.51838.51838,0,0,0,.126-.01465l.05566.252a.66188.66188,0,0,1-.22363.03516c-.27344,0-.41309-.168-.41309-.53223Z" fill="#cacaca"/>
      <path d="M324.75537,67.05273c.79785,0,1.28809.56836,1.28809,1.55469a1.57516,1.57516,0,0,1-.01367.25293h-2.42285a1.31944,1.31944,0,0,0,1.26758,1.45605,1.49083,1.49083,0,0,0,.90332-.30078l.126.23828a1.87271,1.87271,0,0,1-1.05762.3291,1.78751,1.78751,0,0,1-.09082-3.53027Zm.99414,1.56934c0-.86133-.38477-1.30273-.9873-1.30273a1.268,1.268,0,0,0-1.15527,1.30273Z" fill="#cacaca"/>
      <path d="M328.82959,68.39063c.01465-.51172-.13281-1.06445-.791-1.06445a1.85359,1.85359,0,0,0-1.07129.39258l-.14062-.23145a2.2449,2.2449,0,0,1,1.24707-.43457c.79785,0,1.06445.57422,1.06445,1.2959V70.499h-.25879l-.03516-.43457h-.01465a1.99162,1.99162,0,0,1-1.19043.51855.88544.88544,0,0,1-.98047-.9248C326.65869,68.916,327.33838,68.55859,328.82959,68.39063Zm-1.1416,1.92578a1.75837,1.75837,0,0,0,1.1416-.5459v-1.1416c-1.37891.16113-1.84863.4834-1.84863,1.01563A.63006.63006,0,0,0,327.688,70.31641Z" fill="#cacaca"/>
      <path d="M330.10205,69.88965a1.55753,1.55753,0,0,0,1.07129.42676c.52539,0,.79883-.30762.79883-.665,0-.41992-.43457-.60254-.81934-.74219-.51172-.18262-1.07227-.38574-1.07227-.96,0-.49023.38574-.89648,1.08594-.89648a1.56014,1.56014,0,0,1,.96.35059l-.168.21777a1.2708,1.2708,0,0,0-.80566-.30176c-.51855,0-.75684.30176-.75684.60938,0,.37109.39258.53223.792.67871.52441.19727,1.09961.37109,1.09961,1.03027a1.00356,1.00356,0,0,1-1.13477.94531,1.95111,1.95111,0,0,1-1.2334-.46191Z" fill="#cacaca"/>
      <path d="M334.35889,67.05273c.79785,0,1.28809.56836,1.28809,1.55469a1.57515,1.57515,0,0,1-.01367.25293h-2.42285a1.31944,1.31944,0,0,0,1.26758,1.45605,1.49083,1.49083,0,0,0,.90332-.30078l.126.23828a1.87271,1.87271,0,0,1-1.05762.3291,1.78751,1.78751,0,0,1-.09082-3.53027Zm.99414,1.56934c0-.86133-.38477-1.30273-.9873-1.30273a1.268,1.268,0,0,0-1.15527,1.30273Z" fill="#cacaca"/>
    </g>
    <g>
      <path d="M189.59912,26.41211h2.52148v.2793h-2.19922v1.74414H191.77v.28125h-1.84863v2.03027h2.26953v.28027h-2.5918Z" fill="#cacaca"/>
      <path d="M193.13428,27.666h.26563l.02832.51758h.02148A1.641,1.641,0,0,1,194.605,27.582c.69336,0,1.01563.41992,1.01563,1.28809v2.15723H195.312V28.91211c0-.71484-.22363-1.05078-.77051-1.05078-.39844,0-.68555.21094-1.09961.63086v2.53516h-.30762Z" fill="#cacaca"/>
      <path d="M196.29736,27.666h.33594l.75684,2.10742c.10449.32227.23145.6582.33594.9668h.02832c.1123-.30859.23047-.64453.34277-.9668L198.854,27.666h.31543l-1.24707,3.36133h-.36426Z" fill="#cacaca"/>
      <path d="M201.07959,27.582c.79785,0,1.28809.56641,1.28809,1.55469a1.5571,1.5571,0,0,1-.01367.252h-2.42285a1.31977,1.31977,0,0,0,1.26758,1.457,1.48522,1.48522,0,0,0,.90332-.30176l.126.23828a1.87271,1.87271,0,0,1-1.05762.3291,1.588,1.588,0,0,1-1.55469-1.75781A1.60247,1.60247,0,0,1,201.07959,27.582Zm.99414,1.56836c0-.86133-.38477-1.30273-.9873-1.30273a1.268,1.268,0,0,0-1.15527,1.30273Z" fill="#cacaca"/>
      <path d="M203.27686,25.99219h.30762v4.62891c0,.14648.06348.2168.14746.2168a.554.554,0,0,0,.126-.01367l.05566.252a.63838.63838,0,0,1-.22363.03516c-.27344,0-.41309-.168-.41309-.53223Z" fill="#cacaca"/>
      <path d="M206.16162,27.582a1.58243,1.58243,0,0,1,1.5127,1.77148,1.52685,1.52685,0,1,1-3.01855,0A1.58159,1.58159,0,0,1,206.16162,27.582Zm0,3.25586c.67969,0,1.19043-.60156,1.19043-1.48437,0-.88965-.51074-1.499-1.19043-1.499s-1.18359.60938-1.18359,1.499C204.978,30.23633,205.48193,30.83789,206.16162,30.83789Z" fill="#cacaca"/>
      <path d="M208.98877,31.32129v1.22559h-.30762V27.666h.26563l.02832.41992h.02148a1.95914,1.95914,0,0,1,1.1416-.50391c.89648,0,1.34473.67188,1.34473,1.71484a1.60778,1.60778,0,0,1-1.48535,1.81445,1.7803,1.7803,0,0,1-1.00879-.41309Zm.99512-.4834c.67871,0,1.16895-.62988,1.16895-1.541,0-.82617-.29395-1.44238-1.06445-1.44238a1.78,1.78,0,0,0-1.09961.55371V30.4043A1.65183,1.65183,0,0,0,209.98389,30.83789Z" fill="#cacaca"/>
      <path d="M213.67236,27.582c.79785,0,1.28809.56641,1.28809,1.55469a1.5571,1.5571,0,0,1-.01367.252h-2.42285a1.31977,1.31977,0,0,0,1.26758,1.457,1.48522,1.48522,0,0,0,.90332-.30176l.126.23828a1.87271,1.87271,0,0,1-1.05762.3291,1.588,1.588,0,0,1-1.55469-1.75781A1.60247,1.60247,0,0,1,213.67236,27.582Zm.99414,1.56836c0-.86133-.38477-1.30273-.9873-1.30273a1.268,1.268,0,0,0-1.15527,1.30273Z" fill="#cacaca"/>
      <path d="M219.34326,29.44434h-1.82812l-.53906,1.583h-.3291l1.63184-4.61523h.32227l1.625,4.61523h-.34375Zm-.09082-.27246-.29492-.86133c-.18164-.54687-.34961-1.03027-.51074-1.59766h-.02832c-.16113.56738-.32227,1.05078-.51074,1.59766l-.29492.86133Z" fill="#cacaca"/>
      <path d="M225.4751,31.11133a3.606,3.606,0,0,1-.9873-.58105,1.72917,1.72917,0,0,1-1.26074.58105,1.25023,1.25023,0,0,1-1.33105-1.25391c0-.60937.46289-1.002.94531-1.3584a2.71731,2.71731,0,0,1-.30762-1.1416.95561.95561,0,0,1,.95215-1.0293.75512.75512,0,0,1,.77051.83984c0,.5957-.53906.98828-1.06445,1.37988a6.17309,6.17309,0,0,0,1.28125,1.583,4.19018,4.19018,0,0,0,.72852-1.51953h.30176a4.97867,4.97867,0,0,1-.81934,1.69531,3.3007,3.3007,0,0,0,.89648.53125Zm-1.19727-.76367a6.70909,6.70909,0,0,1-1.31055-1.625,1.52155,1.52155,0,0,0-.75586,1.11426,1.00049,1.00049,0,0,0,1.04395,1.00879A1.46994,1.46994,0,0,0,224.27783,30.34766Zm-1.19824-2.02344c.46973-.33594.89648-.666.89648-1.14258,0-.30078-.13281-.60156-.50391-.60156a.68578.68578,0,0,0-.65137.76367A2.32916,2.32916,0,0,0,223.07959,28.32422Z" fill="#cacaca"/>
      <path d="M227.72021,26.41211h1.24707c.92383,0,1.51953.34961,1.51953,1.12012a.9985.9985,0,0,1-.81934,1.00879v.02734c.67969.09863,1.10645.47656,1.10645,1.11426,0,.88965-.67187,1.34473-1.71582,1.34473h-1.33789Zm1.11328,2.03125c.95313,0,1.33105-.30859,1.33105-.918,0-.5957-.44141-.84766-1.28809-.84766h-.834v1.76563Zm.14063,2.31836c.917,0,1.47754-.33691,1.47754-1.0791,0-.6582-.53906-.98047-1.47754-.98047h-.93164v2.05957Z" fill="#cacaca"/>
    </g>
  </g>
  <g>
    <g>
      <line x1="84.99992" y1="223.99951" x2="374.45767" y2="223.99951" fill="none" stroke="#979797" stroke-width="0.5"/>
      <polygon points="372.301 226.544 371.96 226.178 374.266 224 371.96 221.821 372.301 221.455 375 224 372.301 226.544" fill="#979797"/>
    </g>
    <g>
      <line x1="95.00003" y1="54.54297" x2="95.00003" y2="234.00049" fill="none" stroke="#979797" stroke-width="0.5"/>
      <polygon points="92.455 56.7 92.821 57.041 95 54.735 97.178 57.041 97.544 56.7 95 54 92.455 56.7" fill="#979797"/>
    </g>
    <line x1="89.25" y1="93.99961" x2="95.25" y2="93.99884" fill="none" stroke="#979797" stroke-width="0.5"/>
    <line x1="89.25" y1="113.99961" x2="95.25" y2="113.99884" fill="none" stroke="#979797" stroke-width="0.5"/>
    <line x1="89.25" y1="183.99961" x2="95.25" y2="183.99884" fill="none" stroke="#979797" stroke-width="0.5"/>
  </g>
  <g>
    <path d="M115,224H355c-33.25-1.47729-54.5-12.22607-60-40-50-.58936-83.25-10.91064-100-70L155,94l-.00055.00171C152.49982,204.79443,138.24988,224,115,224Z" fill="#535568"/>
    <path d="M115,224c23.24988,0,37.49982-19.20557,39.99945-129.99829L154.99976,94C131.74967,94,117.49976,113.2055,115,224Z" fill="#6d718a"/>
    <path d="M154.99976,94c-23.25009,0-37.5,19.20549-39.99976,130" fill="none" stroke="#e9a460" stroke-width="0.6" stroke-dasharray="2 2"/>
    <path d="M115,224c23.24988,0,37.49982-19.20557,39.99945-129.99829L155,94" fill="none" stroke="#e9a460" stroke-width="0.6" stroke-dasharray="2 2"/>
    <path d="M154.99945,94.00171,155,94l40,20c16.75,59.08936,50,69.41064,100,70,5.5,27.77393,26.75,38.52271,60,40" fill="none" stroke="#e9a460" stroke-width="0.6"/>
    <line x1="155" y1="94" x2="115" y2="224" fill="none" stroke="#e9a460" stroke-width="0.6"/>
  </g>
  <g>
    <line x1="115" y1="223.99998" x2="115" y2="53.99984" fill="none" stroke="#666" stroke-width="0.4" stroke-dasharray="2 1"/>
    <line x1="94.99925" y1="94" x2="155" y2="94" fill="none" stroke="#666" stroke-width="0.4" stroke-dasharray="2 1"/>
    <line x1="155" y1="223.99998" x2="155" y2="53.99984" fill="none" stroke="#666" stroke-width="0.4" stroke-dasharray="2 1"/>
    <line x1="195" y1="223.99998" x2="195" y2="53.99984" fill="none" stroke="#666" stroke-width="0.4" stroke-dasharray="2 1"/>
    <line x1="295" y1="223.99998" x2="295" y2="53.99984" fill="none" stroke="#666" stroke-width="0.4" stroke-dasharray="2 1"/>
    <line x1="355" y1="223.99998" x2="355" y2="53.99984" fill="none" stroke="#666" stroke-width="0.4" stroke-dasharray="2 1"/>
    <line x1="94.99962" y1="183.99961" x2="295.00038" y2="183.99961" fill="none" stroke="#666" stroke-width="0.4" stroke-dasharray="2 1"/>
    <line x1="94.99962" y1="113.99961" x2="195.00038" y2="113.99961" fill="none" stroke="#666" stroke-width="0.4" stroke-dasharray="2 1"/>
  </g>
  <g>
    <g>
      <circle cx="155" cy="94" r="2.25" fill="#c46417"/>
      <path d="M155,92a2,2,0,1,1-2,2,2.00212,2.00212,0,0,1,2-2m0-.5a2.5,2.5,0,1,0,2.5,2.5,2.49991,2.49991,0,0,0-2.5-2.5Z" fill="#c1c9fd"/>
      <path d="M155,91.5a2.5,2.5,0,1,1-2.5,2.5,2.49991,2.49991,0,0,1,2.5-2.5m0-.5a3,3,0,1,0,3,3,3.00334,3.00334,0,0,0-3-3Z"/>
    </g>
    <g>
      <circle cx="295" cy="183.99902" r="2.25" fill="#c46417"/>
      <path d="M295,181.99854a2,2,0,1,1-2,2,2.00212,2.00212,0,0,1,2-2m0-.5a2.5,2.5,0,1,0,2.5,2.5,2.49991,2.49991,0,0,0-2.5-2.5Z" fill="#c1c9fd"/>
      <path d="M295,181.49854a2.5,2.5,0,1,1-2.5,2.5,2.49991,2.49991,0,0,1,2.5-2.5m0-.5a3,3,0,1,0,3,3,3.00334,3.00334,0,0,0-3-3Z"/>
    </g>
    <g>
      <circle cx="195" cy="114" r="2.25" fill="#c46417"/>
      <path d="M195,112a2,2,0,1,1-2,2,2.00212,2.00212,0,0,1,2-2m0-.5a2.5,2.5,0,1,0,2.5,2.5,2.49991,2.49991,0,0,0-2.5-2.5Z" fill="#c1c9fd"/>
      <path d="M195,111.5a2.5,2.5,0,1,1-2.5,2.5,2.49991,2.49991,0,0,1,2.5-2.5m0-.5a3,3,0,1,0,3,3,3.00334,3.00334,0,0,0-3-3Z"/>
    </g>
  </g>
</svg>
