<svg xmlns="http://www.w3.org/2000/svg" viewBox="0 0 395 145"><title>fbmix</title><rect x="0.25" y="0.25" width="394.5" height="144.5" rx="1.75" ry="1.75" fill="#202020"/><path d="M393,.5A1.50164,1.50164,0,0,1,394.5,2V143a1.50164,1.50164,0,0,1-1.5,1.5H2A1.50168,1.50168,0,0,1,.5,143V2A1.50168,1.50168,0,0,1,2,.5H393m0-.5H2A2.00006,2.00006,0,0,0,0,2V143a2.00006,2.00006,0,0,0,2,2H393a2,2,0,0,0,2-2V2a2,2,0,0,0-2-2Z" fill="#363636"/><path d="M309.08594,123.67969h.58789v2.71093c0,1.10645.46972,1.45606,1.06445,1.45606.60938,0,1.09375-.34961,1.09375-1.45606v-2.71093h.55957V126.376c0,1.47754-.71387,1.98242-1.65332,1.98242-.9375,0-1.65234-.50488-1.65234-1.98242Z" fill="#979797"/><path d="M313.43359,127.50391a1.52613,1.52613,0,0,0,1.001.40625c.44824,0,.67285-.23828.67285-.53223,0-.35059-.40625-.50488-.77734-.64453-.48438-.17481-1.01563-.40625-1.01563-.98047,0-.54688.4336-.9668,1.16895-.9668a1.69708,1.69708,0,0,1,1.05762.38575l-.27344.36425a1.25978,1.25978,0,0,0-.77735-.30175c-.42675,0-.623.23144-.623.49023,0,.31543.37109.44141.75586.58887.49023.18164,1.03711.38476,1.03711,1.02929,0,.55274-.44141,1.01563-1.2461,1.01563a2.04179,2.04179,0,0,1-1.26758-.46973Z" fill="#979797"/><path d="M317.73145,124.78613c.86816,0,1.35839.62305,1.35839,1.59668a1.9498,1.9498,0,0,1-.02148.31543h-2.29688a1.13322,1.13322,0,0,0,1.13477,1.19727,1.53722,1.53722,0,0,0,.84766-.26563l.20312.37793a2.02629,2.02629,0,0,1-1.12109.35059,1.80065,1.80065,0,0,1-.10449-3.57227Zm.85449,1.53418c0-.69336-.3086-1.0791-.84082-1.0791a1.06319,1.06319,0,0,0-.98047,1.0791Z" fill="#979797"/><path d="M319.92871,124.87012h.47656l.04883.61621h.02051a1.16629,1.16629,0,0,1,.9668-.7002.84814.84814,0,0,1,.36425.07032l-.1123.5039a.94244.94244,0,0,0-.32813-.05566c-.28711,0-.63085.21-.8623.78418v2.18554h-.57422Z" fill="#979797"/><path d="M323.80664,123.67969h.58789v4.59472h-.58789Z" fill="#979797"/><path d="M325.57812,124.87012h.47657l.04883.49023h.0205a1.60514,1.60514,0,0,1,1.1416-.57422c.71485,0,1.03711.46289,1.03711,1.33106v2.15722h-.57421v-2.08007c0-.6377-.19727-.91114-.64454-.91114-.35058,0-.58886.18262-.93164.52539v2.46582h-.57422Z" fill="#979797"/><path d="M329.50391,125.33984H329v-.43457l.53223-.03515.07031-.95215h.4834v.95215h.918v.46972h-.918v1.89063c0,.41992.13281.6582.52539.6582a1.22908,1.22908,0,0,0,.38476-.09082l.11231.43457a2.12429,2.12429,0,0,1-.62988.126c-.72852,0-.97461-.46289-.97461-1.13477Z" fill="#979797"/><path d="M332.97754,124.78613c.86816,0,1.3584.62305,1.3584,1.59668a1.94969,1.94969,0,0,1-.02149.31543h-2.29687a1.13322,1.13322,0,0,0,1.13476,1.19727A1.53719,1.53719,0,0,0,334,127.62988l.20312.37793a2.02629,2.02629,0,0,1-1.12109.35059,1.80065,1.80065,0,0,1-.10449-3.57227Zm.85449,1.53418c0-.69336-.30859-1.0791-.84082-1.0791a1.06319,1.06319,0,0,0-.98047,1.0791Z" fill="#979797"/><path d="M335.17383,124.87012h.47656l.04883.61621h.02148a1.16505,1.16505,0,0,1,.9668-.7002.84368.84368,0,0,1,.36328.07032l-.11133.5039a.95213.95213,0,0,0-.3291-.05566c-.28711,0-.62988.21-.8623.78418v2.18554h-.57422Z" fill="#979797"/><path d="M339.13672,123.75684a.96029.96029,0,0,0-.38477-.084c-.32226,0-.47656.22363-.47656.6582v.53907h.72168v.46972h-.72168v2.93457h-.57422v-2.93457h-.46289v-.43457l.46289-.03515v-.53907c0-.69335.31445-1.12793.99414-1.12793a1.55629,1.55629,0,0,1,.56836.11231Z" fill="#979797"/><path d="M341.43359,126.11719c0-.43457-.14648-.85449-.70117-.85449a1.83336,1.83336,0,0,0-1.01562.36425l-.23047-.39941a2.52587,2.52587,0,0,1,1.33789-.44141c.834,0,1.18359.55371,1.18359,1.40137v2.08691h-.47656l-.04883-.40625h-.01367a1.854,1.854,0,0,1-1.12793.49024.928.928,0,0,1-1.001-.9668C339.33984,126.64941,339.98438,126.27832,341.43359,126.11719Zm-.93164,1.77832a1.391,1.391,0,0,0,.93164-.45508v-.94531c-1.1416.14062-1.52734.41992-1.52734.85449A.52142.52142,0,0,0,340.502,127.89551Z" fill="#979797"/><path d="M344.47852,124.78613a1.40435,1.40435,0,0,1,.99414.40625l-.28711.3711a1.02961,1.02961,0,0,0-.68653-.30078c-.61621,0-1.06445.53222-1.06445,1.3164,0,.77735.42676,1.30274,1.05078,1.30274a1.216,1.216,0,0,0,.79785-.34278l.25977.37793a1.687,1.687,0,0,1-1.10742.44141,1.59856,1.59856,0,0,1-1.59571-1.7793A1.6481,1.6481,0,0,1,344.47852,124.78613Z" fill="#979797"/><path d="M347.41113,124.78613c.86817,0,1.3584.62305,1.3584,1.59668a1.9498,1.9498,0,0,1-.02148.31543h-2.29688a1.13322,1.13322,0,0,0,1.13477,1.19727,1.53719,1.53719,0,0,0,.84765-.26563l.20313.37793a2.0263,2.0263,0,0,1-1.1211.35059,1.80065,1.80065,0,0,1-.10449-3.57227Zm.85449,1.53418c0-.69336-.30859-1.0791-.84082-1.0791a1.06319,1.06319,0,0,0-.98046,1.0791Z" fill="#979797"/><path d="M352.84375,123.5957a1.69408,1.69408,0,0,1,1.25293.56739l-.3291.37109a1.229,1.229,0,0,0-.918-.42773c-.875,0-1.457.71484-1.457,1.85644,0,1.15527.55469,1.88379,1.42969,1.88379a1.34261,1.34261,0,0,0,1.05078-.51074l.32812.35644a1.75712,1.75712,0,0,1-1.39258.666c-1.15625,0-2.01757-.88281-2.01757-2.38184A2.11392,2.11392,0,0,1,352.84375,123.5957Z" fill="#979797"/><path d="M356.30762,124.78613a1.80026,1.80026,0,1,1-1.5752,1.793A1.6264,1.6264,0,0,1,356.30762,124.78613Zm0,3.09571c.58886,0,.98047-.52539.98047-1.30274,0-.78418-.39161-1.3164-.98047-1.3164-.58106,0-.98047.53222-.98047,1.3164C355.32715,127.35645,355.72656,127.88184,356.30762,127.88184Z" fill="#979797"/><path d="M358.77734,124.87012h.47657l.04882.49023h.02149a1.60328,1.60328,0,0,1,1.1416-.57422c.71387,0,1.03613.46289,1.03613,1.33106v2.15722h-.57422v-2.08007c0-.6377-.19531-.91114-.64453-.91114-.34961,0-.58789.18262-.93164.52539v2.46582h-.57422Z" fill="#979797"/><path d="M362.70508,125.33984h-.50391v-.43457l.53125-.03515.07031-.95215h.48438v.95215h.917v.46972h-.917v1.89063c0,.41992.13281.6582.52441.6582a1.2415,1.2415,0,0,0,.38575-.09082l.11132.43457a2.11807,2.11807,0,0,1-.62988.126c-.72851,0-.97363-.46289-.97363-1.13477Z" fill="#979797"/><path d="M364.97266,124.87012h.47656l.04883.61621h.02148a1.16505,1.16505,0,0,1,.9668-.7002.84368.84368,0,0,1,.36328.07032l-.11133.5039a.95213.95213,0,0,0-.3291-.05566c-.28711,0-.62988.21-.8623.78418v2.18554h-.57422Z" fill="#979797"/><path d="M368.65625,124.78613a1.80012,1.80012,0,1,1-1.57617,1.793A1.62709,1.62709,0,0,1,368.65625,124.78613Zm0,3.09571c.58789,0,.98047-.52539.98047-1.30274,0-.78418-.39258-1.3164-.98047-1.3164-.582,0-.98047.53222-.98047,1.3164C367.67578,127.35645,368.07422,127.88184,368.65625,127.88184Z" fill="#979797"/><path d="M371.126,123.28711h.57422v4.34277c0,.18164.07714.252.16113.252a.49413.49413,0,0,0,.126-.01368l.07715.4336a.769.769,0,0,1-.3291.05664c-.43457,0-.60937-.27344-.60937-.77051Z" fill="#979797"/><rect x="265.34961" y="30.35122" width="49.30078" height="29.30078" rx="2.65039" ry="2.65039" fill="#31333d"/><path d="M312,30.70156a2.30266,2.30266,0,0,1,2.3,2.3v24a2.30266,2.30266,0,0,1-2.3,2.3H268a2.30266,2.30266,0,0,1-2.3-2.3v-24a2.30266,2.30266,0,0,1,2.3-2.3h44m0-.7H268a3.00886,3.00886,0,0,0-3,3v24a3.00887,3.00887,0,0,0,3,3h44a3.00887,3.00887,0,0,0,3-3v-24a3.00886,3.00886,0,0,0-3-3Z" fill="#e9a460"/><path d="M345,55.57837a.495.495,0,1,1,.495-.49487A.49482.49482,0,0,1,345,55.57837Z" fill="#7f7f7f"/><path d="M345,57.50488a.495.495,0,1,1,.495-.49487A.49481.49481,0,0,1,345,57.50488Z" fill="#7f7f7f"/><path d="M345,59.4314a.495.495,0,1,1,.495-.49488A.49482.49482,0,0,1,345,59.4314Z" fill="#7f7f7f"/><circle cx="345" cy="60.86304" r="0.49506" fill="#7f7f7f"/><circle cx="345" cy="62.78955" r="0.49506" fill="#7f7f7f"/><path d="M345,65.21118a.495.495,0,1,1,.495-.49512A.495.495,0,0,1,345,65.21118Z" fill="#7f7f7f"/><path d="M345,67.1377a.495.495,0,1,1,.495-.49512A.495.495,0,0,1,345,67.1377Z" fill="#7f7f7f"/><path d="M345,69.06421a.495.495,0,1,1,.495-.49512A.495.495,0,0,1,345,69.06421Z" fill="#7f7f7f"/><polygon points="341.946 56.24 342.385 56.649 344.999 53.882 347.614 56.649 348.053 56.24 344.999 53.001 341.946 56.24" fill="#7f7f7f"/><line x1="364.24084" y1="45" x2="352.5" y2="45" fill="none" stroke="#e9a460" stroke-width="0.7"/><polygon points="361.221 41.437 360.744 41.95 363.972 44.999 360.744 48.05 361.221 48.562 365 44.999 361.221 41.437" fill="#e9a460"/><line x1="336.24084" y1="45.00171" x2="315" y2="45.00171" fill="none" stroke="#e9a460" stroke-width="0.7"/><polygon points="333.221 41.439 332.744 41.951 335.972 45.001 332.744 48.051 333.221 48.564 337 45.001 333.221 41.439" fill="#e9a460"/><line x1="264.24084" y1="45.00073" x2="35" y2="45.00073" fill="none" stroke="#e9a460" stroke-width="0.7"/><polygon points="261.221 41.438 260.744 41.95 263.972 45 260.744 48.05 261.221 48.563 265 45 261.221 41.438" fill="#e9a460"/><line x1="55" y1="70" x2="55" y2="45" fill="none" stroke="#e9a460" stroke-width="0.7"/><line x1="60" y1="50" x2="50" y2="40" fill="none" stroke="#e9a460" stroke-width="0.7"/><line x1="55" y1="100" x2="55" y2="85.75903" fill="none" stroke="#e9a460" stroke-width="0.7"/><polygon points="58.563 88.779 58.05 89.256 55.001 86.028 51.951 89.256 51.438 88.779 55.001 85 58.563 88.779" fill="#e9a460"/><line x1="125" y1="70" x2="125" y2="45" fill="none" stroke="#e9a460" stroke-width="0.7"/><line x1="130" y1="50" x2="120" y2="40" fill="none" stroke="#e9a460" stroke-width="0.7"/><line x1="125" y1="100" x2="125" y2="85.75903" fill="none" stroke="#e9a460" stroke-width="0.7"/><polygon points="128.563 88.779 128.05 89.256 125.001 86.028 121.95 89.256 121.438 88.779 125.001 85 128.563 88.779" fill="#e9a460"/><line x1="195" y1="70" x2="195" y2="45" fill="none" stroke="#e9a460" stroke-width="0.7"/><line x1="200" y1="50" x2="190" y2="40" fill="none" stroke="#e9a460" stroke-width="0.7"/><line x1="195" y1="100" x2="195" y2="85.75903" fill="none" stroke="#e9a460" stroke-width="0.7"/><polygon points="198.563 88.779 198.05 89.256 195.001 86.028 191.95 89.256 191.438 88.779 195.001 85 198.563 88.779" fill="#e9a460"/><circle cx="345" cy="45" r="7.5" fill="#31333d"/><circle cx="345" cy="45" r="7.5" fill="none" stroke="#e9a460" stroke-width="0.7"/><line x1="341.75" y1="41.75" x2="348.25" y2="48.25" fill="#31333d" stroke="#e9a460" stroke-width="0.7"/><line x1="341.75" y1="48.25" x2="348.25" y2="41.75" fill="#31333d" stroke="#e9a460" stroke-width="0.7"/><circle cx="55" cy="77.5" r="7.5" fill="#31333d"/><circle cx="55" cy="77.5" r="7.5" fill="none" stroke="#e9a460" stroke-width="0.7"/><line x1="51.75" y1="74.25" x2="58.25" y2="80.75" fill="#31333d" stroke="#e9a460" stroke-width="0.7"/><line x1="51.75" y1="80.75" x2="58.25" y2="74.25" fill="#31333d" stroke="#e9a460" stroke-width="0.7"/><circle cx="125" cy="77.5" r="7.5" fill="#31333d"/><circle cx="125" cy="77.5" r="7.5" fill="none" stroke="#e9a460" stroke-width="0.7"/><line x1="121.75" y1="74.25" x2="128.25" y2="80.75" fill="#31333d" stroke="#e9a460" stroke-width="0.7"/><line x1="121.75" y1="80.75" x2="128.25" y2="74.25" fill="#31333d" stroke="#e9a460" stroke-width="0.7"/><circle cx="195" cy="77.5" r="7.5" fill="#31333d"/><circle cx="195" cy="77.5" r="7.5" fill="none" stroke="#e9a460" stroke-width="0.7"/><line x1="191.75" y1="74.25" x2="198.25" y2="80.75" fill="#31333d" stroke="#e9a460" stroke-width="0.7"/><line x1="191.75" y1="80.75" x2="198.25" y2="74.25" fill="#31333d" stroke="#e9a460" stroke-width="0.7"/><path d="M300,122a2.00589,2.00589,0,0,1,2,2v4a2.00589,2.00589,0,0,1-2,2h-8a2.00589,2.00589,0,0,1-2-2v-4a2.00589,2.00589,0,0,1,2-2h8m0-1h-8a3.00337,3.00337,0,0,0-3,3v4a3.00337,3.00337,0,0,0,3,3h8a3.00337,3.00337,0,0,0,3-3v-4a3.00337,3.00337,0,0,0-3-3Z" fill="#4271c2"/><path d="M335.7832,24.09473H336.54v5.2666h2.57422V30.001H335.7832Z" fill="#e9a460"/><path d="M341.59766,25.51758c1.11621,0,1.74609.80078,1.74609,2.05273a2.68277,2.68277,0,0,1-.02637.40528h-2.95312a1.45609,1.45609,0,0,0,1.458,1.53906,1.97678,1.97678,0,0,0,1.08984-.3418l.26074.48535a2.60282,2.60282,0,0,1-1.44043.4502,2.09185,2.09185,0,0,1-2.09765-2.28613A2.11032,2.11032,0,0,1,341.59766,25.51758Zm1.09863,1.97168c0-.8916-.39649-1.38672-1.08106-1.38672a1.36522,1.36522,0,0,0-1.25976,1.38672Z" fill="#e9a460"/><path d="M343.83789,25.625h.76465l.8291,2.48535c.126.43164.26953.873.4043,1.28711h.03613c.126-.41406.27051-.85547.39648-1.28711l.82813-2.48535h.72949l-1.54883,4.376h-.86425Z" fill="#e9a460"/><path d="M350.27344,25.51758c1.11621,0,1.74609.80078,1.74609,2.05273a2.68277,2.68277,0,0,1-.02637.40528H349.04a1.45609,1.45609,0,0,0,1.458,1.53906,1.97676,1.97676,0,0,0,1.08984-.3418l.26074.48535a2.60282,2.60282,0,0,1-1.44043.4502,2.09185,2.09185,0,0,1-2.09765-2.28613A2.11032,2.11032,0,0,1,350.27344,25.51758Zm1.09863,1.97168c0-.8916-.39648-1.38672-1.08105-1.38672a1.36522,1.36522,0,0,0-1.25977,1.38672Z" fill="#e9a460"/><path d="M353.09863,23.59082h.73828v5.582c0,.2334.09961.32324.207.32324a.63578.63578,0,0,0,.1621-.01757l.09864.55859a.99388.99388,0,0,1-.42285.07129c-.55762,0-.78321-.35059-.78321-.99024Z" fill="#e9a460"/><path d="M341.33984,72.25586h.67188v2.62988h.01562L344.21,72.25586h.75977l-1.64649,1.999,1.89453,3.2461h-.74316l-1.56738-2.72657-.89551,1.06348V77.501h-.67188Z" fill="#b0b0b0"/><path d="M346.89941,72.81543h-1.59179v-.55957h3.84668v.55957h-1.5918V77.501h-.66309Z" fill="#b0b0b0"/><circle cx="65.0039" cy="77.49937" r="0.49506" fill="#b0b0b0"/><path d="M67.34717,77.49937a.495.495,0,1,1-.495-.49512A.49507.49507,0,0,1,67.34717,77.49937Z" fill="#b0b0b0"/><circle cx="68.70038" cy="77.49937" r="0.49506" fill="#b0b0b0"/><circle cx="70.54858" cy="77.49937" r="0.49506" fill="#b0b0b0"/><circle cx="72.39679" cy="77.49937" r="0.49506" fill="#b0b0b0"/><polygon points="66.239 80.553 66.648 80.114 63.881 77.5 66.648 74.886 66.239 74.446 63 77.5 66.239 80.553" fill="#b0b0b0"/><rect x="74.99996" y="72.49937" width="25.00004" height="10" rx="3" ry="3" fill="#7f7f7f" stroke="#b0b0b0" stroke-width="0.5"/><path d="M97,72.5001a3.00872,3.00872,0,0,1,3,3v4a3.00887,3.00887,0,0,1-3,3H78a3.00886,3.00886,0,0,1-3-3v-4a3.00871,3.00871,0,0,1,3-3H97m0-1H78a4.00455,4.00455,0,0,0-4,4v4a4.00454,4.00454,0,0,0,4,4H97a4.00458,4.00458,0,0,0,4-4v-4a4.00459,4.00459,0,0,0-4-4Z" fill="#4271c2"/><path d="M81.17383,75.32031a1.69236,1.69236,0,0,1,1.25293.56739l-.3291.37109a1.22762,1.22762,0,0,0-.917-.42676c-.876,0-1.457.71485-1.457,1.85547,0,1.15625.55371,1.88477,1.42871,1.88477a1.3407,1.3407,0,0,0,1.05078-.51172l.32911.35742a1.76111,1.76111,0,0,1-1.39356.665c-1.15625,0-2.01758-.88184-2.01758-2.38184A2.115,2.115,0,0,1,81.17383,75.32031Z" fill="#e4e4e4"/><path d="M84.6377,76.51172a1.7997,1.7997,0,1,1-1.5752,1.793A1.626,1.626,0,0,1,84.6377,76.51172Zm0,3.0957c.58886,0,.98046-.52539.98046-1.30273,0-.78516-.3916-1.31739-.98046-1.31739-.58106,0-.98047.53223-.98047,1.31739C83.65723,79.082,84.05664,79.60742,84.6377,79.60742Z" fill="#e4e4e4"/><path d="M87.1084,76.5957H87.585l.04883.49024h.02051a1.49494,1.49494,0,0,1,1.05761-.57422.89193.89193,0,0,1,.93848.65039,1.60983,1.60983,0,0,1,1.12109-.65039c.7002,0,1.03614.46191,1.03614,1.33008V79.999H91.2334V77.919c0-.6377-.20313-.91114-.62988-.91114a1.24918,1.24918,0,0,0-.8545.52539V79.999H89.1748V77.919c0-.6377-.20312-.91114-.63769-.91114a1.28053,1.28053,0,0,0-.85449.52539V79.999H87.1084Z" fill="#e4e4e4"/><path d="M92.91113,75.01172h.57422v1.35937l-.01367.61621a1.68588,1.68588,0,0,1,1.06445-.47558c.88282,0,1.35157.67871,1.35157,1.72949,0,1.16309-.69336,1.8418-1.47071,1.8418a1.54071,1.54071,0,0,1-.97363-.41992h-.02051L93.374,79.999h-.46289Zm1.40821,4.58789c.56054,0,.97363-.51172.97363-1.35156,0-.75-.25195-1.25391-.89649-1.25391a1.40346,1.40346,0,0,0-.91113.46289v1.78516A1.3307,1.3307,0,0,0,94.31934,79.59961Z" fill="#e4e4e4"/><circle cx="135.0039" cy="77.49937" r="0.49506" fill="#b0b0b0"/><path d="M137.34717,77.49937a.495.495,0,1,1-.495-.49512A.49507.49507,0,0,1,137.34717,77.49937Z" fill="#b0b0b0"/><circle cx="138.70038" cy="77.49937" r="0.49506" fill="#b0b0b0"/><circle cx="140.54858" cy="77.49937" r="0.49506" fill="#b0b0b0"/><circle cx="142.39679" cy="77.49937" r="0.49506" fill="#b0b0b0"/><polygon points="136.239 80.553 136.648 80.114 133.881 77.5 136.648 74.886 136.239 74.446 133 77.5 136.239 80.553" fill="#b0b0b0"/><rect x="144.99996" y="72.49937" width="25.00004" height="10" rx="3" ry="3" fill="#7f7f7f" stroke="#b0b0b0" stroke-width="0.5"/><path d="M167,72.5001a3.00872,3.00872,0,0,1,3,3v4a3.00887,3.00887,0,0,1-3,3H148a3.00886,3.00886,0,0,1-3-3v-4a3.00871,3.00871,0,0,1,3-3h19m0-1H148a4.00455,4.00455,0,0,0-4,4v4a4.00454,4.00454,0,0,0,4,4h19a4.00458,4.00458,0,0,0,4-4v-4a4.00459,4.00459,0,0,0-4-4Z" fill="#4271c2"/><path d="M152.78223,78.99805a1.78769,1.78769,0,0,0,1.26757.57422c.60254,0,.959-.30176.959-.75,0-.46875-.33594-.61622-.77051-.8125l-.6582-.28711a1.22947,1.22947,0,0,1,.51855-2.40235,1.879,1.879,0,0,1,1.35157.56739l-.30762.37792a1.48082,1.48082,0,0,0-1.04395-.43359c-.51855,0-.86133.25879-.86133.67188,0,.4414.40625.60937.76368.76367l.6582.28027a1.27884,1.27884,0,0,1,.94531,1.22559,1.39417,1.39417,0,0,1-1.56933,1.30957,2.2166,2.2166,0,0,1-1.60352-.67871Z" fill="#e4e4e4"/><path d="M155.84082,75.4043h.61621l.74219,2.47949c.16113.5459.27344.98047.4414,1.52051h.02833c.168-.54.2871-.97461.4414-1.52051l.73535-2.47949h.59473l-1.457,4.59472h-.67871Z" fill="#e4e4e4"/><path d="M160.03418,75.4043h2.6543v.49023h-2.06641v1.55469h1.751v.49023h-1.751V79.999h-.58789Z" fill="#e4e4e4"/><circle cx="205.0039" cy="77.49937" r="0.49506" fill="#b0b0b0"/><path d="M207.34717,77.49937a.495.495,0,1,1-.495-.49512A.49507.49507,0,0,1,207.34717,77.49937Z" fill="#b0b0b0"/><circle cx="208.70038" cy="77.49937" r="0.49506" fill="#b0b0b0"/><circle cx="210.54858" cy="77.49937" r="0.49506" fill="#b0b0b0"/><circle cx="212.39679" cy="77.49937" r="0.49506" fill="#b0b0b0"/><polygon points="206.239 80.553 206.648 80.114 203.881 77.5 206.648 74.886 206.239 74.446 203 77.5 206.239 80.553" fill="#b0b0b0"/><rect x="214.99996" y="72.49937" width="25.00004" height="10" rx="3" ry="3" fill="#7f7f7f" stroke="#b0b0b0" stroke-width="0.5"/><path d="M237,72.5001a3.00872,3.00872,0,0,1,3,3v4a3.00887,3.00887,0,0,1-3,3H218a3.00886,3.00886,0,0,1-3-3v-4a3.00871,3.00871,0,0,1,3-3h19m0-1H218a4.00455,4.00455,0,0,0-4,4v4a4.00454,4.00454,0,0,0,4,4h19a4.00458,4.00458,0,0,0,4-4v-4a4.00459,4.00459,0,0,0-4-4Z" fill="#4271c2"/><path d="M218.32715,75.4043h2.64746v.49023H218.915v1.44336h1.7373V77.835H218.915v1.667H221.044V79.999h-2.7168Z" fill="#e4e4e4"/><path d="M225.47559,75.48145a1.01569,1.01569,0,0,0-.38477-.084c-.32227,0-.4834.22363-.4834.6582v.54h.7207v.46875h-.7207V79.999h-.57422V77.06445h-1.415V79.999H222.044V77.06445h-.4629v-.43359l.4629-.03516v-.44922c0-.707.3496-1.14843,1.05761-1.14843a1.55064,1.55064,0,0,1,.62305.12695l-.11914.43359a1.11125,1.11125,0,0,0-.45508-.09082c-.33594,0-.53223.24512-.53223.69336v.43457h1.415v-.54c0-.69336.31446-1.12793.99414-1.12793a1.53473,1.53473,0,0,1,.56739.11329Z" fill="#e4e4e4"/><path d="M227.169,76.51172c.86816,0,1.35839.62305,1.35839,1.5957a1.96285,1.96285,0,0,1-.02148.31641H226.209a1.13323,1.13323,0,0,0,1.13477,1.19726,1.53813,1.53813,0,0,0,.84766-.2666l.20312.37793a2.02629,2.02629,0,0,1-1.12109.35059,1.8,1.8,0,0,1-.10449-3.57129Zm.85449,1.5332c0-.69336-.3086-1.07812-.84082-1.07812a1.06151,1.06151,0,0,0-.98047,1.07812Z" fill="#e4e4e4"/><path d="M230.752,76.51172a1.4027,1.4027,0,0,1,.99512.40625l-.28711.37109a1.02614,1.02614,0,0,0-.68652-.30176c-.61621,0-1.06446.53223-1.06446,1.31739,0,.77734.42676,1.30273,1.05079,1.30273a1.21692,1.21692,0,0,0,.79785-.34375l.25879.37793A1.68261,1.68261,0,0,1,230.71,80.083a1.59841,1.59841,0,0,1-1.59668-1.77832A1.64808,1.64808,0,0,1,230.752,76.51172Z" fill="#e4e4e4"/><path d="M232.65527,77.06445h-.5039v-.43359l.53222-.03516.07032-.95312h.48339v.95312h.917v.46875h-.917v1.89063c0,.41992.13282.6582.52442.6582a1.268,1.268,0,0,0,.38574-.08984l.11231.43359a2.12451,2.12451,0,0,1-.63086.126c-.72852,0-.97364-.46192-.97364-1.13477Z" fill="#e4e4e4"/><path d="M234.833,79.22852a1.5281,1.5281,0,0,0,1.001.40625c.44825,0,.67286-.23829.67286-.53223,0-.35059-.40625-.50488-.77735-.64453-.4834-.17481-1.01562-.40625-1.01562-.98047,0-.5459.43359-.96582,1.16894-.96582a1.69215,1.69215,0,0,1,1.05762.38476l-.27246.36426a1.26782,1.26782,0,0,0-.77735-.30176c-.42773,0-.624.23145-.624.49024,0,.31543.3711.4414.75684.58887.49023.18261,1.03613.38574,1.03613,1.02929,0,.55371-.44141,1.01563-1.24609,1.01563a2.044,2.044,0,0,1-1.26758-.46973Z" fill="#e4e4e4"/><path d="M276.67285,46.05078a2.42747,2.42747,0,0,0,1.7207.7793c.81739,0,1.30176-.40918,1.30176-1.01758,0-.63672-.45605-.83594-1.04492-1.10254l-.89355-.38965a1.66871,1.66871,0,0,1,.70312-3.26074,2.54724,2.54724,0,0,1,1.835.77051l-.41894.51269a2.0031,2.0031,0,0,0-1.416-.58886c-.70312,0-1.16894.35156-1.16894.91211,0,.5996.55078.82714,1.03613,1.03613l.89355.37988a1.73828,1.73828,0,0,1,1.28321,1.66406,1.89222,1.89222,0,0,1-2.12989,1.77735,3.004,3.004,0,0,1-2.17675-.92188Z" fill="#e9a460"/><path d="M281.62207,40.64062h.7793v1.84473l-.02832.9502a2.21,2.21,0,0,1,1.54-.75977c.96972,0,1.40722.62695,1.40722,1.80664v2.92774H284.54V44.58594c0-.86524-.26563-1.23535-.874-1.23535-.47559,0-.79883.24707-1.26465.71289v3.34668h-.7793Z" fill="#e9a460"/><path d="M289.4043,44.48242c0-.58984-.19922-1.16015-.95118-1.16015a2.48643,2.48643,0,0,0-1.37792.49414l-.31348-.542a3.43127,3.43127,0,0,1,1.81543-.59863c1.13086,0,1.60644.751,1.60644,1.90039v2.834h-.64648l-.06641-.55176h-.01855a2.51282,2.51282,0,0,1-1.53125.665,1.25967,1.25967,0,0,1-1.35938-1.31153C286.56152,45.2041,287.43652,44.7002,289.4043,44.48242Zm-1.26465,2.41406a1.893,1.893,0,0,0,1.26465-.61816v-1.2832c-1.54981.19043-2.07227.57031-2.07227,1.15918A.70792.70792,0,0,0,288.13965,46.89648Z" fill="#e9a460"/><path d="M292.43359,47.79883V49.3584h-.78027V42.78906h.64648l.06739.53321h.02832a2.39112,2.39112,0,0,1,1.47363-.64649c1.1875,0,1.8252.92188,1.8252,2.35742,0,1.56836-.94141,2.49024-1.99707,2.49024a2.13963,2.13963,0,0,1-1.28321-.53223Zm1.13086-.93164c.76075,0,1.32129-.69336,1.32129-1.834,0-1.01758-.34179-1.70117-1.21679-1.70117a1.947,1.947,0,0,0-1.23536.62695v2.42383A1.828,1.828,0,0,0,293.56445,46.86719Z" fill="#e9a460"/><path d="M298.65625,42.67578c1.17871,0,1.84473.8457,1.84473,2.167a2.70956,2.70956,0,0,1-.0293.42871h-3.11719a1.53643,1.53643,0,0,0,1.53906,1.625,2.08575,2.08575,0,0,0,1.1504-.36132l.27636.51367a2.75818,2.75818,0,0,1-1.52148.47461,2.44335,2.44335,0,0,1-.14258-4.84766Zm1.16016,2.082c0-.9414-.41895-1.46484-1.14063-1.46484a1.44242,1.44242,0,0,0-1.331,1.46484Z" fill="#e9a460"/><path d="M301.6377,42.78906h.64648l.06738.83692h.02832a1.581,1.581,0,0,1,1.31153-.9502,1.14483,1.14483,0,0,1,.49414.09473l-.15137.68457a1.31106,1.31106,0,0,0-.44727-.07617c-.38964,0-.85546.28515-1.16894,1.06445v2.9668h-.78027Z" fill="#e9a460"/></svg>