<?xml version="1.0" encoding="utf-8"?>
<!-- Generator: Adobe Illustrator 21.1.0, SVG Export Plug-In . SVG Version: 6.00 Build 0)  -->
<svg version="1.1" xmlns="http://www.w3.org/2000/svg" xmlns:xlink="http://www.w3.org/1999/xlink" x="0px" y="0px"
	 viewBox="0 0 395 145" style="enable-background:new 0 0 395 145;" xml:space="preserve">
<style type="text/css">
	.st0{fill:#202020;}
	.st1{fill:#363636;}
	.st2{fill:#979797;}
	.st3{display:none;}
	.st4{display:inline;fill:#B0B0B0;}
	.st5{display:inline;}
	.st6{fill:#4E4E4E;}
	.st7{fill:#666666;}
	.st8{fill:#0F0F0F;}
	.st9{fill:none;stroke:#202020;stroke-width:0.5;}
	.st10{fill:#6D718A;}
	.st11{fill:none;stroke:#666666;stroke-width:0.4;stroke-dasharray:2,1;}
	.st12{fill:none;stroke:#E9A460;stroke-width:0.4;}
	.st13{fill:#535568;stroke:#E9A460;stroke-width:0.4;}
	.st14{fill:none;stroke:#E9A460;stroke-width:0.4;stroke-miterlimit:10;}
	.st15{fill:#535568;}
	.st16{fill:#B0B0B0;}
	.st17{fill:none;}
	.st18{fill:#CACACA;}
	.st19{fill:#E4E4E4;}
	.st20{fill:none;stroke:#979797;stroke-width:0.5;}
	.st21{fill:#535568;stroke:#E9A460;stroke-width:0.4;stroke-miterlimit:10;}
	.st22{fill:none;stroke:#E9A460;stroke-width:0.6;stroke-dasharray:2,2;}
	.st23{fill:none;stroke:#E9A460;stroke-width:0.6;}
	.st24{fill:none;stroke:#E9D77D;stroke-width:0.4;stroke-miterlimit:10;}
	.st25{fill:#C46417;}
	.st26{fill:#C1C9FD;}
	.st27{fill:#7F7F7F;}
	.st28{fill:#31333D;}
	.st29{fill:#E9A460;}
	.st30{clip-path:url(#SVGID_4_);fill:#7F7F7F;}
	.st31{clip-path:url(#SVGID_6_);fill:#7F7F7F;}
	.st32{clip-path:url(#SVGID_8_);fill:#7F7F7F;}
	.st33{clip-path:url(#SVGID_10_);fill:#7F7F7F;}
	.st34{clip-path:url(#SVGID_37_);fill:#7F7F7F;}
	.st35{clip-path:url(#SVGID_38_);fill:#7F7F7F;}
	.st36{clip-path:url(#SVGID_39_);fill:#7F7F7F;}
	.st37{clip-path:url(#SVGID_40_);fill:#7F7F7F;}
	.st38{clip-path:url(#SVGID_41_);fill:#7F7F7F;}
	.st39{clip-path:url(#SVGID_42_);fill:#7F7F7F;}
	.st40{clip-path:url(#SVGID_43_);fill:#7F7F7F;}
	.st41{clip-path:url(#SVGID_44_);fill:#7F7F7F;}
	.st42{clip-path:url(#SVGID_45_);fill:#7F7F7F;}
	.st43{clip-path:url(#SVGID_46_);fill:#7F7F7F;}
	.st44{clip-path:url(#SVGID_47_);fill:#7F7F7F;}
	.st45{clip-path:url(#SVGID_48_);fill:#7F7F7F;}
	.st46{clip-path:url(#SVGID_49_);fill:#7F7F7F;}
	.st47{clip-path:url(#SVGID_50_);fill:#7F7F7F;}
	.st48{clip-path:url(#SVGID_51_);fill:#7F7F7F;}
	.st49{clip-path:url(#SVGID_52_);fill:#7F7F7F;}
	.st50{clip-path:url(#SVGID_53_);fill:#7F7F7F;}
	.st51{clip-path:url(#SVGID_54_);fill:#7F7F7F;}
	.st52{clip-path:url(#SVGID_55_);fill:#7F7F7F;}
	.st53{clip-path:url(#SVGID_56_);fill:#7F7F7F;}
	.st54{clip-path:url(#SVGID_57_);fill:#B0B0B0;}
	.st55{clip-path:url(#SVGID_58_);fill:#B0B0B0;}
	.st56{clip-path:url(#SVGID_59_);fill:#B0B0B0;}
	.st57{clip-path:url(#SVGID_60_);fill:#B0B0B0;}
	.st58{clip-path:url(#SVGID_61_);fill:#B0B0B0;}
	.st59{clip-path:url(#SVGID_62_);fill:#B0B0B0;}
	.st60{fill:none;stroke:#E9A460;stroke-width:0.7;}
	.st61{fill:#31333D;stroke:#E9A460;stroke-width:0.7;}
	.st62{fill:none;stroke:#7F7F7F;stroke-width:0.7;}
	.st63{fill:#4E4E4E;stroke:#7F7F7F;stroke-width:0.7;}
	.st64{fill:#4E4E4E;stroke:#7F7F7F;stroke-width:0.5;}
	.st65{fill:#666666;stroke:#7F7F7F;stroke-width:0.5;}
	.st66{fill:#7F7F7F;stroke:#B0B0B0;stroke-width:0.5;}
	.st67{fill:#4271C2;}
</style>
<g id="Beispiele_Plots">
</g>
<g id="Invert">
	<g>
		<path class="st0" d="M2,144.75c-0.9648438,0-1.75-0.7851562-1.75-1.75V2c0-0.9648438,0.7851562-1.75,1.75-1.75h391
			c0.9648438,0,1.75,0.7851562,1.75,1.75v141c0,0.9648438-0.7851562,1.75-1.75,1.75H2z"/>
		<path class="st1" d="M393,0.5c0.8271484,0,1.5,0.6728516,1.5,1.5v141c0,0.8271484-0.6728516,1.5-1.5,1.5H2
			c-0.8270874,0-1.5-0.6728516-1.5-1.5V2c0-0.8271484,0.6729126-1.5,1.5-1.5H393 M393,0H2C0.8954468,0,0,0.8955078,0,2v141
			c0,1.1044922,0.8954468,2,2,2h391c1.1046143,0,2-0.8955078,2-2V2C395,0.8955078,394.1046143,0,393,0L393,0z"/>
	</g>
</g>
<g id="Unterschrift">
</g>
<g id="Legende">
	<g>
		<path class="st2" d="M309.0859375,123.6796875h0.5878906v2.7109375c0,1.1064453,0.4697266,1.4560547,1.0644531,1.4560547
			c0.609375,0,1.09375-0.3496094,1.09375-1.4560547v-2.7109375h0.5595703v2.6962891
			c0,1.4775391-0.7138672,1.9824219-1.6533203,1.9824219c-0.9375,0-1.6523438-0.5048828-1.6523438-1.9824219V123.6796875z"/>
		<path class="st2" d="M313.4335938,127.5039062c0.2929688,0.2382812,0.5947266,0.40625,1.0009766,0.40625
			c0.4482422,0,0.6728516-0.2382812,0.6728516-0.5322266c0-0.3505859-0.40625-0.5048828-0.7773438-0.6445312
			c-0.484375-0.1748047-1.015625-0.40625-1.015625-0.9804688c0-0.546875,0.4335938-0.9667969,1.1689453-0.9667969
			c0.4267578,0,0.7978516,0.1748047,1.0576172,0.3857422l-0.2734375,0.3642578
			c-0.2304688-0.1757812-0.4765625-0.3017578-0.7773438-0.3017578c-0.4267578,0-0.6230469,0.2314453-0.6230469,0.4902344
			c0,0.3154297,0.3710938,0.4414062,0.7558594,0.5888672c0.4902344,0.1816406,1.0371094,0.3847656,1.0371094,1.0292969
			c0,0.5527344-0.4414062,1.015625-1.2460938,1.015625c-0.484375,0-0.9462891-0.203125-1.2675781-0.4697266L313.4335938,127.5039062
			z"/>
		<path class="st2" d="M317.7314453,124.7861328c0.8681641,0,1.3583984,0.6230469,1.3583984,1.5966797
			c0,0.1191406-0.0068359,0.2314453-0.0214844,0.3154297h-2.296875c0.0429688,0.7353516,0.4833984,1.1972656,1.1347656,1.1972656
			c0.3222656,0,0.5957031-0.1044922,0.8476562-0.265625l0.203125,0.3779297
			c-0.2949219,0.1894531-0.6582031,0.3505859-1.1210938,0.3505859c-0.9101562,0-1.6308594-0.6660156-1.6308594-1.7792969
			S316.9541016,124.7861328,317.7314453,124.7861328z M318.5859375,126.3203125
			c0-0.6933594-0.3085938-1.0791016-0.8408203-1.0791016c-0.4755859,0-0.9101562,0.3925781-0.9804688,1.0791016H318.5859375z"/>
		<path class="st2" d="M319.9287109,124.8701172h0.4765625l0.0488281,0.6162109h0.0205078
			c0.2314453-0.4267578,0.5820312-0.7001953,0.9667969-0.7001953c0.1474609,0,0.2519531,0.0214844,0.3642578,0.0703125
			l-0.1123047,0.5039062c-0.1113281-0.0351562-0.1884766-0.0556641-0.328125-0.0556641
			c-0.2871094,0-0.6308594,0.2099609-0.8623047,0.7841797v2.1855469h-0.5742188V124.8701172z"/>
		<path class="st2" d="M323.8066406,123.6796875h0.5878906v4.5947266h-0.5878906V123.6796875z"/>
		<path class="st2" d="M325.578125,124.8701172h0.4765625l0.0488281,0.4902344h0.0205078
			c0.3222656-0.3222656,0.6728516-0.5742188,1.1416016-0.5742188c0.7148438,0,1.0371094,0.4628906,1.0371094,1.3310547v2.1572266
			h-0.5742188v-2.0800781c0-0.6376953-0.1972656-0.9111328-0.6445312-0.9111328
			c-0.3505859,0-0.5888672,0.1826172-0.9316406,0.5253906v2.4658203h-0.5742188V124.8701172z"/>
		<path class="st2" d="M329.5039062,125.3398438H329v-0.4345703l0.5322266-0.0351562l0.0703125-0.9521484h0.4833984v0.9521484
			h0.9179688v0.4697266h-0.9179688v1.890625c0,0.4199219,0.1328125,0.6582031,0.5253906,0.6582031
			c0.1191406,0,0.2734375-0.0488281,0.3847656-0.0908203l0.1123047,0.4345703
			c-0.1894531,0.0625-0.4208984,0.1259766-0.6298828,0.1259766c-0.7285156,0-0.9746094-0.4628906-0.9746094-1.1347656V125.3398438z"
			/>
		<path class="st2" d="M332.9775391,124.7861328c0.8681641,0,1.3583984,0.6230469,1.3583984,1.5966797
			c0,0.1191406-0.0068359,0.2314453-0.0214844,0.3154297h-2.296875c0.0429688,0.7353516,0.4833984,1.1972656,1.1347656,1.1972656
			c0.3222656,0,0.5957031-0.1044922,0.8476562-0.265625l0.203125,0.3779297
			c-0.2949219,0.1894531-0.6582031,0.3505859-1.1210938,0.3505859c-0.9101562,0-1.6308594-0.6660156-1.6308594-1.7792969
			S332.2001953,124.7861328,332.9775391,124.7861328z M333.8320312,126.3203125
			c0-0.6933594-0.3085938-1.0791016-0.8408203-1.0791016c-0.4755859,0-0.9101562,0.3925781-0.9804688,1.0791016H333.8320312z"/>
		<path class="st2" d="M335.1738281,124.8701172h0.4765625l0.0488281,0.6162109h0.0214844
			c0.2304688-0.4267578,0.5820312-0.7001953,0.9667969-0.7001953c0.1464844,0,0.2519531,0.0214844,0.3632812,0.0703125
			l-0.1113281,0.5039062c-0.1123047-0.0351562-0.1894531-0.0556641-0.3291016-0.0556641
			c-0.2871094,0-0.6298828,0.2099609-0.8623047,0.7841797v2.1855469h-0.5742188V124.8701172z"/>
		<path class="st2" d="M339.1367188,123.7568359c-0.1259766-0.0556641-0.2587891-0.0839844-0.3847656-0.0839844
			c-0.3222656,0-0.4765625,0.2236328-0.4765625,0.6582031v0.5390625h0.7216797v0.4697266h-0.7216797v2.9345703h-0.5742188
			v-2.9345703h-0.4628906v-0.4345703l0.4628906-0.0351562v-0.5390625c0-0.6933594,0.3144531-1.1279297,0.9941406-1.1279297
			c0.2109375,0,0.4140625,0.0498047,0.5683594,0.1123047L339.1367188,123.7568359z"/>
		<path class="st2" d="M341.4335938,126.1171875c0-0.4345703-0.1464844-0.8544922-0.7011719-0.8544922
			c-0.3984375,0-0.7480469,0.1816406-1.015625,0.3642578l-0.2304688-0.3994141
			c0.3154297-0.203125,0.7910156-0.4414062,1.3378906-0.4414062c0.8339844,0,1.1835938,0.5537109,1.1835938,1.4013672v2.0869141
			H341.53125l-0.0488281-0.40625H341.46875c-0.3300781,0.265625-0.7070312,0.4902344-1.1279297,0.4902344
			c-0.5742188,0-1.0009766-0.3574219-1.0009766-0.9667969C339.3398438,126.6494141,339.984375,126.2783203,341.4335938,126.1171875z
			 M340.5019531,127.8955078c0.3291016,0,0.6025391-0.1601562,0.9316406-0.4550781v-0.9453125
			c-1.1416016,0.140625-1.5273438,0.4199219-1.5273438,0.8544922
			C339.90625,127.7353516,340.1660156,127.8955078,340.5019531,127.8955078z"/>
		<path class="st2" d="M344.4785156,124.7861328c0.4472656,0,0.7636719,0.1894531,0.9941406,0.40625l-0.2871094,0.3710938
			c-0.203125-0.1748047-0.4130859-0.3007812-0.6865234-0.3007812c-0.6162109,0-1.0644531,0.5322266-1.0644531,1.3164062
			c0,0.7773438,0.4267578,1.3027344,1.0507812,1.3027344c0.3212891,0,0.5947266-0.1611328,0.7978516-0.3427734l0.2597656,0.3779297
			c-0.3085938,0.2734375-0.7011719,0.4414062-1.1074219,0.4414062c-0.9023438,0-1.5957031-0.6513672-1.5957031-1.7792969
			C342.8398438,125.4375,343.6025391,124.7861328,344.4785156,124.7861328z"/>
		<path class="st2" d="M347.4111328,124.7861328c0.8681641,0,1.3583984,0.6230469,1.3583984,1.5966797
			c0,0.1191406-0.0068359,0.2314453-0.0214844,0.3154297h-2.296875c0.0429688,0.7353516,0.4833984,1.1972656,1.1347656,1.1972656
			c0.3222656,0,0.5957031-0.1044922,0.8476562-0.265625l0.203125,0.3779297
			c-0.2949219,0.1894531-0.6582031,0.3505859-1.1210938,0.3505859c-0.9101562,0-1.6308594-0.6660156-1.6308594-1.7792969
			S346.6337891,124.7861328,347.4111328,124.7861328z M348.265625,126.3203125c0-0.6933594-0.3085938-1.0791016-0.8408203-1.0791016
			c-0.4755859,0-0.9101562,0.3925781-0.9804688,1.0791016H348.265625z"/>
		<path class="st2" d="M352.84375,123.5957031c0.5449219,0,0.9804688,0.265625,1.2529297,0.5673828l-0.3291016,0.3710938
			c-0.2451172-0.2587891-0.5390625-0.4277344-0.9179688-0.4277344c-0.875,0-1.4570312,0.7148438-1.4570312,1.8564453
			c0,1.1552734,0.5546875,1.8837891,1.4296875,1.8837891c0.4335938,0,0.7558594-0.1816406,1.0507812-0.5107422l0.328125,0.3564453
			c-0.3564453,0.4208984-0.8125,0.6660156-1.3925781,0.6660156c-1.15625,0-2.0175781-0.8828125-2.0175781-2.3818359
			C350.7910156,124.4990234,351.6660156,123.5957031,352.84375,123.5957031z"/>
		<path class="st2" d="M356.3076172,124.7861328c0.8330078,0,1.5751953,0.6513672,1.5751953,1.7929688
			c0,1.1279297-0.7421875,1.7792969-1.5751953,1.7792969s-1.5751953-0.6513672-1.5751953-1.7792969
			C354.7324219,125.4375,355.4746094,124.7861328,356.3076172,124.7861328z M356.3076172,127.8818359
			c0.5888672,0,0.9804688-0.5253906,0.9804688-1.3027344c0-0.7841797-0.3916016-1.3164062-0.9804688-1.3164062
			c-0.5810547,0-0.9804688,0.5322266-0.9804688,1.3164062C355.3271484,127.3564453,355.7265625,127.8818359,356.3076172,127.8818359
			z"/>
		<path class="st2" d="M358.7773438,124.8701172h0.4765625l0.0488281,0.4902344h0.0214844
			c0.3222656-0.3222656,0.671875-0.5742188,1.1416016-0.5742188c0.7138672,0,1.0361328,0.4628906,1.0361328,1.3310547v2.1572266
			h-0.5742188v-2.0800781c0-0.6376953-0.1953125-0.9111328-0.6445312-0.9111328
			c-0.3496094,0-0.5878906,0.1826172-0.9316406,0.5253906v2.4658203h-0.5742188V124.8701172z"/>
		<path class="st2" d="M362.7050781,125.3398438h-0.5039062v-0.4345703l0.53125-0.0351562l0.0703125-0.9521484h0.484375v0.9521484
			h0.9169922v0.4697266h-0.9169922v1.890625c0,0.4199219,0.1328125,0.6582031,0.5244141,0.6582031
			c0.1191406,0,0.2734375-0.0488281,0.3857422-0.0908203l0.1113281,0.4345703
			c-0.1894531,0.0625-0.4199219,0.1259766-0.6298828,0.1259766c-0.7285156,0-0.9736328-0.4628906-0.9736328-1.1347656V125.3398438z"
			/>
		<path class="st2" d="M364.9726562,124.8701172h0.4765625l0.0488281,0.6162109h0.0214844
			c0.2304688-0.4267578,0.5820312-0.7001953,0.9667969-0.7001953c0.1464844,0,0.2519531,0.0214844,0.3632812,0.0703125
			l-0.1113281,0.5039062c-0.1123047-0.0351562-0.1894531-0.0556641-0.3291016-0.0556641
			c-0.2871094,0-0.6298828,0.2099609-0.8623047,0.7841797v2.1855469h-0.5742188V124.8701172z"/>
		<path class="st2" d="M368.65625,124.7861328c0.8330078,0,1.5761719,0.6513672,1.5761719,1.7929688
			c0,1.1279297-0.7431641,1.7792969-1.5761719,1.7792969c-0.8339844,0-1.5761719-0.6513672-1.5761719-1.7792969
			C367.0800781,125.4375,367.8222656,124.7861328,368.65625,124.7861328z M368.65625,127.8818359
			c0.5878906,0,0.9804688-0.5253906,0.9804688-1.3027344c0-0.7841797-0.3925781-1.3164062-0.9804688-1.3164062
			c-0.5820312,0-0.9804688,0.5322266-0.9804688,1.3164062C367.6757812,127.3564453,368.0742188,127.8818359,368.65625,127.8818359z"
			/>
		<path class="st2" d="M371.1259766,123.2871094h0.5742188v4.3427734c0,0.1816406,0.0771484,0.2519531,0.1611328,0.2519531
			c0.0351562,0,0.0625,0,0.1259766-0.0136719l0.0771484,0.4335938c-0.0771484,0.0351562-0.1748047,0.0566406-0.3291016,0.0566406
			c-0.4345703,0-0.609375-0.2734375-0.609375-0.7705078V123.2871094z"/>
	</g>
</g>
<g id="Überschrift_Kasten" class="st3">
</g>
<g id="Überschrift" class="st3">
</g>
<g id="Raster_BG">
</g>
<g id="Diagramm_Header">
</g>
<g id="Dreiecke">
</g>
<g id="Raster">
</g>
<g id="Kurvenflächen_Shaper">
</g>
<g id="Graphen_L2">
</g>
<g id="Graphen_Beschr_B">
</g>
<g id="Graphen_Beschriftung">
</g>
<g id="Ko-Typo">
</g>
<g id="Ko-Achsen">
</g>
<g id="Graphen_L1">
	<g id="Graphen_Pfeile">
	</g>
</g>
<g id="Punkte_Kurven">
</g>
<g id="Graphen_XTra">
</g>
<g id="Drähte">
</g>
<g id="Modul_BGs_L2">
</g>
<g id="Modul_BGs_L1">
	<g>
		<path class="st28" d="M268,59.6519966c-1.4609375,0-2.6503906-1.1894531-2.6503906-2.6503906v-24
			c0-1.4609375,1.1894531-2.6503906,2.6503906-2.6503906h44c1.4609375,0,2.6503906,1.1894531,2.6503906,2.6503906v24
			c0,1.4609375-1.1894531,2.6503906-2.6503906,2.6503906H268z"/>
		<path class="st29" d="M312,30.7015572c1.2681885,0,2.3000488,1.0317383,2.3000488,2.3000488v24
			c0,1.2683105-1.0318604,2.3000488-2.3000488,2.3000488h-44c-1.2681885,0-2.3000488-1.0317383-2.3000488-2.3000488v-24
			c0-1.2683105,1.0318604-2.3000488,2.3000488-2.3000488H312 M312,30.001606h-44c-1.6500244,0-3,1.3500977-3,3v24
			c0,1.6499023,1.3499756,3,3,3h44c1.6500244,0,3-1.3500977,3-3v-24C315,31.3517036,313.6500244,30.001606,312,30.001606
			L312,30.001606z"/>
	</g>
</g>
<g id="Pfeile_L4">
	<g>
		<g>
			<g>
				<circle class="st27" cx="345" cy="55.0834351" r="0.4949951"/>
			</g>
			<g>
				<circle class="st27" cx="345" cy="57.0099487" r="0.4949951"/>
			</g>
			<g>
				<circle class="st27" cx="345" cy="58.9364624" r="0.4949951"/>
			</g>
			<g>
				<circle class="st27" cx="345" cy="60.8630371" r="0.4950562"/>
			</g>
			<g>
				<circle class="st27" cx="345" cy="62.7895508" r="0.4950562"/>
			</g>
			<g>
				<circle class="st27" cx="345" cy="64.7161255" r="0.4949951"/>
			</g>
			<g>
				<circle class="st27" cx="345" cy="66.6426392" r="0.4949951"/>
			</g>
			<g>
				<circle class="st27" cx="345" cy="68.5691528" r="0.4949951"/>
			</g>
			<g>
				<polygon class="st27" points="341.9460449,56.2399902 342.385498,56.6494141 344.9993896,53.8823242 347.6138916,56.6494141 
					348.0533447,56.2399902 344.9993896,53.0012207 				"/>
			</g>
		</g>
	</g>
</g>
<g id="Pfeile_L3">
</g>
<g id="Pfeile_L2">
</g>
<g id="Pfeile_L1">
	<g>
		<g>
			<line class="st60" x1="364.2408447" y1="45" x2="352.5" y2="45"/>
			<g>
				<polygon class="st29" points="361.2214355,41.4370117 360.7438965,41.949707 363.972168,44.9992676 360.7438965,48.0495605 
					361.2214355,48.5622559 365,44.9992676 				"/>
			</g>
		</g>
	</g>
	<g>
		<g>
			<line class="st60" x1="336.2408447" y1="45.001709" x2="315" y2="45.001709"/>
			<g>
				<polygon class="st29" points="333.2214355,41.4387207 332.7438965,41.951416 335.972168,45.0009766 332.7438965,48.0510254 
					333.2214355,48.5637207 337,45.0009766 				"/>
			</g>
		</g>
	</g>
	<g>
		<g>
			<line class="st60" x1="264.2408447" y1="45.0007324" x2="35" y2="45.0007324"/>
			<g>
				<polygon class="st29" points="261.2214355,41.4377441 260.7438965,41.9504395 263.972168,45 260.7438965,48.0500488 
					261.2214355,48.5627441 265,45 				"/>
			</g>
		</g>
	</g>
	<line class="st60" x1="55" y1="70" x2="55" y2="45"/>
	<line class="st60" x1="60" y1="50" x2="50" y2="40"/>
	<g>
		<g>
			<line class="st60" x1="55" y1="100" x2="55" y2="85.7590332"/>
			<g>
				<polygon class="st29" points="58.5628662,88.7785645 58.0501709,89.2561035 55.0006714,86.027832 51.9505005,89.2561035 
					51.4378052,88.7785645 55.0006714,85 				"/>
			</g>
		</g>
	</g>
	<line class="st60" x1="125" y1="70" x2="125" y2="45"/>
	<line class="st60" x1="130" y1="50" x2="120" y2="40"/>
	<g>
		<g>
			<line class="st60" x1="125" y1="100" x2="125" y2="85.7590332"/>
			<g>
				<polygon class="st29" points="128.5628662,88.7785645 128.0501709,89.2561035 125.0007324,86.027832 121.9504395,89.2561035 
					121.4377441,88.7785645 125.0007324,85 				"/>
			</g>
		</g>
	</g>
	<line class="st60" x1="195" y1="70" x2="195" y2="45"/>
	<line class="st60" x1="200" y1="50" x2="190" y2="40"/>
	<g>
		<g>
			<line class="st60" x1="195" y1="100" x2="195" y2="85.7590332"/>
			<g>
				<polygon class="st29" points="198.5628662,88.7785645 198.0501709,89.2561035 195.0007324,86.027832 191.9504395,89.2561035 
					191.4377441,88.7785645 195.0007324,85 				"/>
			</g>
		</g>
	</g>
</g>
<g id="Punkte">
</g>
<g id="Produkt">
	<g>
		<g>
			<circle class="st28" cx="345" cy="45" r="7.5"/>
			<circle class="st60" cx="345" cy="45" r="7.5"/>
		</g>
		<g>
			<line class="st61" x1="341.75" y1="41.75" x2="348.25" y2="48.25"/>
			<line class="st61" x1="341.75" y1="48.25" x2="348.25" y2="41.75"/>
		</g>
	</g>
	<g>
		<g>
			<circle class="st28" cx="55" cy="77.5" r="7.5"/>
			<circle class="st60" cx="55" cy="77.5" r="7.5"/>
		</g>
		<g>
			<line class="st61" x1="51.75" y1="74.25" x2="58.25" y2="80.75"/>
			<line class="st61" x1="51.75" y1="80.75" x2="58.25" y2="74.25"/>
		</g>
	</g>
	<g>
		<g>
			<circle class="st28" cx="125" cy="77.5" r="7.5"/>
			<circle class="st60" cx="125" cy="77.5" r="7.5"/>
		</g>
		<g>
			<line class="st61" x1="121.75" y1="74.25" x2="128.25" y2="80.75"/>
			<line class="st61" x1="121.75" y1="80.75" x2="128.25" y2="74.25"/>
		</g>
	</g>
	<g>
		<g>
			<circle class="st28" cx="195" cy="77.5" r="7.5"/>
			<circle class="st60" cx="195" cy="77.5" r="7.5"/>
		</g>
		<g>
			<line class="st61" x1="191.75" y1="74.25" x2="198.25" y2="80.75"/>
			<line class="st61" x1="191.75" y1="80.75" x2="198.25" y2="74.25"/>
		</g>
	</g>
</g>
<g id="Typo_E4">
</g>
<g id="Label_UI">
</g>
<g id="Label_UI_Heller">
</g>
<g id="UI_Controls_Rahmen">
	<g>
		<path class="st67" d="M300,122c1.1000061,0,2,0.9000244,2,2v4c0,1.0999756-0.8999939,2-2,2h-8c-1.1000061,0-2-0.9000244-2-2v-4
			c0-1.0999756,0.8999939-2,2-2H300 M300,121h-8c-1.6542053,0-3,1.3457642-3,3v4c0,1.6542358,1.3457947,3,3,3h8
			c1.6542053,0,3-1.3457642,3-3v-4C303,122.3457642,301.6542053,121,300,121L300,121z"/>
	</g>
</g>
<g id="Typo_E_2.5">
</g>
<g id="Typo_E_2.5_Heller">
</g>
<g id="Typo_No_BG_2">
</g>
<g id="Typo_No_BG_1">
	<g>
		<path class="st29" d="M335.7832031,24.0947266h0.7568359v5.2666016h2.5742188v0.6396484h-3.3310547V24.0947266z"/>
		<path class="st29" d="M341.5976562,25.5175781c1.1162109,0,1.7460938,0.8007812,1.7460938,2.0527344
			c0,0.1523438-0.0087891,0.296875-0.0263672,0.4052734h-2.953125c0.0537109,0.9443359,0.6210938,1.5390625,1.4580078,1.5390625
			c0.4150391,0,0.765625-0.1347656,1.0898438-0.3417969l0.2607422,0.4853516
			c-0.3779297,0.2431641-0.8457031,0.4501953-1.4404297,0.4501953c-1.1699219,0-2.0976562-0.8544922-2.0976562-2.2861328
			S340.5986328,25.5175781,341.5976562,25.5175781z M342.6962891,27.4892578c0-0.8916016-0.3964844-1.3867188-1.0810547-1.3867188
			c-0.6113281,0-1.1699219,0.5039062-1.2597656,1.3867188H342.6962891z"/>
		<path class="st29" d="M343.8378906,25.625h0.7646484l0.8291016,2.4853516
			c0.1259766,0.4316406,0.2695312,0.8730469,0.4042969,1.2871094h0.0361328
			c0.1259766-0.4140625,0.2705078-0.8554688,0.3964844-1.2871094l0.828125-2.4853516h0.7294922l-1.5488281,4.3759766h-0.8642578
			L343.8378906,25.625z"/>
		<path class="st29" d="M350.2734375,25.5175781c1.1162109,0,1.7460938,0.8007812,1.7460938,2.0527344
			c0,0.1523438-0.0087891,0.296875-0.0263672,0.4052734h-2.953125c0.0537109,0.9443359,0.6210938,1.5390625,1.4580078,1.5390625
			c0.4150391,0,0.765625-0.1347656,1.0898438-0.3417969l0.2607422,0.4853516
			c-0.3779297,0.2431641-0.8457031,0.4501953-1.4404297,0.4501953c-1.1699219,0-2.0976562-0.8544922-2.0976562-2.2861328
			S349.2744141,25.5175781,350.2734375,25.5175781z M351.3720703,27.4892578c0-0.8916016-0.3964844-1.3867188-1.0810547-1.3867188
			c-0.6113281,0-1.1699219,0.5039062-1.2597656,1.3867188H351.3720703z"/>
		<path class="st29" d="M353.0986328,23.5908203h0.7382812v5.5820312c0,0.2333984,0.0996094,0.3232422,0.2070312,0.3232422
			c0.0449219,0,0.0810547,0,0.1621094-0.0175781l0.0986328,0.5585938c-0.0986328,0.0449219-0.2246094,0.0712891-0.4228516,0.0712891
			c-0.5576172,0-0.7832031-0.3505859-0.7832031-0.9902344V23.5908203z"/>
	</g>
</g>
<g id="Typo_E2">
	<g>
		<path class="st16" d="M341.3398438,72.2558594h0.671875v2.6298828h0.015625l2.1826172-2.6298828h0.7597656l-1.6464844,1.9990234
			l1.8945312,3.2460938h-0.7431641l-1.5673828-2.7265625l-0.8955078,1.0634766v1.6630859h-0.671875V72.2558594z"/>
		<path class="st16" d="M346.8994141,72.8154297h-1.5917969v-0.5595703h3.8466797v0.5595703H347.5625v4.6855469h-0.6630859
			V72.8154297z"/>
	</g>
	<g>
		<g>
			<g>
				<circle class="st16" cx="65.0039062" cy="77.4993668" r="0.4950562"/>
			</g>
			<g>
				<circle class="st16" cx="66.8521576" cy="77.4993668" r="0.4950714"/>
			</g>
			<g>
				<circle class="st16" cx="68.7003784" cy="77.4993668" r="0.4950562"/>
			</g>
			<g>
				<circle class="st16" cx="70.548584" cy="77.4993668" r="0.4950562"/>
			</g>
			<g>
				<circle class="st16" cx="72.3967896" cy="77.4993668" r="0.4950562"/>
			</g>
			<g>
				<polygon class="st16" points="66.2387695,80.5533218 66.6480713,80.1138687 63.8809776,77.499855 66.6480713,74.8855972 
					66.2387695,74.4461441 62.9999962,77.499855 				"/>
			</g>
		</g>
	</g>
	<path class="st66" d="M97,82.4993744H77.9999542c-1.6568527,0-3-1.3431473-3-3v-4c0-1.6500015,1.3499985-3,3-3H97
		c1.6500015,0,3,1.3499985,3,3v4C100,81.1562271,98.6568527,82.4993744,97,82.4993744z"/>
	<g>
		<path class="st67" d="M97,72.5000992c1.6500244,0,3,1.3498535,3,3v4c0,1.6499023-1.3499756,3-3,3H78c-1.6500244,0-3-1.3500977-3-3
			v-4c0-1.6501465,1.3499756-3,3-3H97 M97,71.5000992H78c-2.2056274,0-4,1.7944336-4,4v4c0,2.2055664,1.7943726,4,4,4h19
			c2.2055664,0,4-1.7944336,4-4v-4C101,73.2945328,99.2055664,71.5000992,97,71.5000992L97,71.5000992z"/>
	</g>
	<g>
		<path class="st19" d="M81.1738281,75.3203125c0.5458984,0,0.9804688,0.265625,1.2529297,0.5673828l-0.3291016,0.3710938
			C81.8525391,76,81.5585938,75.8320312,81.1806641,75.8320312c-0.8759766,0-1.4570312,0.7148438-1.4570312,1.8554688
			c0,1.15625,0.5537109,1.8847656,1.4287109,1.8847656c0.4345703,0,0.7568359-0.1826172,1.0507812-0.5117188l0.3291016,0.3574219
			c-0.3574219,0.4199219-0.8125,0.6650391-1.3935547,0.6650391c-1.15625,0-2.0175781-0.8818359-2.0175781-2.3818359
			C79.1210938,76.2246094,79.9970703,75.3203125,81.1738281,75.3203125z"/>
		<path class="st19" d="M84.6376953,76.5117188c0.8339844,0,1.5761719,0.6503906,1.5761719,1.7929688
			c0,1.1269531-0.7421875,1.7783203-1.5761719,1.7783203c-0.8330078,0-1.5751953-0.6513672-1.5751953-1.7783203
			C83.0625,77.1621094,83.8046875,76.5117188,84.6376953,76.5117188z M84.6376953,79.6074219
			c0.5888672,0,0.9804688-0.5253906,0.9804688-1.3027344c0-0.7851562-0.3916016-1.3173828-0.9804688-1.3173828
			c-0.5810547,0-0.9804688,0.5322266-0.9804688,1.3173828C83.6572266,79.0820312,84.0566406,79.6074219,84.6376953,79.6074219z"/>
		<path class="st19" d="M87.1083984,76.5957031h0.4765625l0.0488281,0.4902344h0.0205078
			c0.2939453-0.3222656,0.6513672-0.5742188,1.0576172-0.5742188c0.5185547,0,0.7988281,0.2441406,0.9384766,0.6503906
			c0.3574219-0.3847656,0.7080078-0.6503906,1.1210938-0.6503906c0.7001953,0,1.0361328,0.4619141,1.0361328,1.3300781v2.1572266
			h-0.5742188v-2.0800781c0-0.6376953-0.203125-0.9111328-0.6298828-0.9111328
			c-0.2666016,0-0.5400391,0.1757812-0.8544922,0.5253906v2.4658203h-0.5742188v-2.0800781
			c0-0.6376953-0.203125-0.9111328-0.6376953-0.9111328c-0.2519531,0-0.5390625,0.1757812-0.8544922,0.5253906v2.4658203h-0.5742188
			V76.5957031z"/>
		<path class="st19" d="M92.9111328,75.0117188h0.5742188v1.359375l-0.0136719,0.6162109
			c0.3085938-0.2724609,0.6865234-0.4755859,1.0644531-0.4755859c0.8828125,0,1.3515625,0.6787109,1.3515625,1.7294922
			c0,1.1630859-0.6933594,1.8417969-1.4707031,1.8417969c-0.3144531,0-0.671875-0.1533203-0.9736328-0.4199219h-0.0205078
			l-0.0488281,0.3359375h-0.4628906V75.0117188z M94.3193359,79.5996094c0.5605469,0,0.9736328-0.5117188,0.9736328-1.3515625
			c0-0.75-0.2519531-1.2539062-0.8964844-1.2539062c-0.2871094,0-0.5888672,0.1611328-0.9111328,0.4628906v1.7851562
			C93.7871094,79.5019531,94.0947266,79.5996094,94.3193359,79.5996094z"/>
	</g>
	<g>
		<g>
			<g>
				<circle class="st16" cx="135.0039062" cy="77.4993668" r="0.4950562"/>
			</g>
			<g>
				<circle class="st16" cx="136.8521576" cy="77.4993668" r="0.4950714"/>
			</g>
			<g>
				<circle class="st16" cx="138.7003784" cy="77.4993668" r="0.4950562"/>
			</g>
			<g>
				<circle class="st16" cx="140.548584" cy="77.4993668" r="0.4950562"/>
			</g>
			<g>
				<circle class="st16" cx="142.3967896" cy="77.4993668" r="0.4950562"/>
			</g>
			<g>
				<polygon class="st16" points="136.2387695,80.5533218 136.6480713,80.1138687 133.8809814,77.499855 136.6480713,74.8855972 
					136.2387695,74.4461441 133,77.499855 				"/>
			</g>
		</g>
	</g>
	<path class="st66" d="M167,82.4993744h-19.0000458c-1.6568604,0-3-1.3431473-3-3v-4c0-1.6500015,1.3500061-3,3-3H167
		c1.6499939,0,3,1.3499985,3,3v4C170,81.1562271,168.6568604,82.4993744,167,82.4993744z"/>
	<g>
		<path class="st67" d="M167,72.5000992c1.6500244,0,3,1.3498535,3,3v4c0,1.6499023-1.3499756,3-3,3h-19
			c-1.6500244,0-3-1.3500977-3-3v-4c0-1.6501465,1.3499756-3,3-3H167 M167,71.5000992h-19c-2.2056274,0-4,1.7944336-4,4v4
			c0,2.2055664,1.7943726,4,4,4h19c2.2055664,0,4-1.7944336,4-4v-4C171,73.2945328,169.2055664,71.5000992,167,71.5000992
			L167,71.5000992z"/>
	</g>
	<g>
		<path class="st19" d="M152.7822266,78.9980469c0.3291016,0.3427734,0.7841797,0.5742188,1.2675781,0.5742188
			c0.6025391,0,0.9589844-0.3017578,0.9589844-0.75c0-0.46875-0.3359375-0.6162109-0.7705078-0.8125l-0.6582031-0.2871094
			c-0.4267578-0.1816406-0.9316406-0.5117188-0.9316406-1.1835938c0-0.7001953,0.6171875-1.21875,1.4501953-1.21875
			c0.5458984,0,1.0292969,0.2314453,1.3515625,0.5673828l-0.3076172,0.3779297
			c-0.2802734-0.265625-0.6240234-0.4335938-1.0439453-0.4335938c-0.5185547,0-0.8613281,0.2587891-0.8613281,0.671875
			c0,0.4414062,0.40625,0.609375,0.7636719,0.7636719l0.6582031,0.2802734
			c0.5322266,0.2314453,0.9453125,0.5458984,0.9453125,1.2255859c0,0.7285156-0.6025391,1.3095703-1.5693359,1.3095703
			c-0.6435547,0-1.2041016-0.2666016-1.6035156-0.6787109L152.7822266,78.9980469z"/>
		<path class="st19" d="M155.8408203,75.4042969h0.6162109l0.7421875,2.4794922
			c0.1611328,0.5458984,0.2734375,0.9804688,0.4414062,1.5205078h0.0283203
			c0.1679688-0.5400391,0.2871094-0.9746094,0.4414062-1.5205078l0.7353516-2.4794922h0.5947266l-1.4570312,4.5947266h-0.6787109
			L155.8408203,75.4042969z"/>
		<path class="st19" d="M160.0341797,75.4042969h2.6542969v0.4902344h-2.0664062v1.5546875h1.7509766v0.4902344h-1.7509766
			v2.0595703h-0.5878906V75.4042969z"/>
	</g>
	<g>
		<g>
			<g>
				<circle class="st16" cx="205.0039062" cy="77.4993668" r="0.4950562"/>
			</g>
			<g>
				<circle class="st16" cx="206.8521576" cy="77.4993668" r="0.4950714"/>
			</g>
			<g>
				<circle class="st16" cx="208.7003784" cy="77.4993668" r="0.4950562"/>
			</g>
			<g>
				<circle class="st16" cx="210.548584" cy="77.4993668" r="0.4950562"/>
			</g>
			<g>
				<circle class="st16" cx="212.3967896" cy="77.4993668" r="0.4950562"/>
			</g>
			<g>
				<polygon class="st16" points="206.2387695,80.5533218 206.6480713,80.1138687 203.8809814,77.499855 206.6480713,74.8855972 
					206.2387695,74.4461441 203,77.499855 				"/>
			</g>
		</g>
	</g>
	<path class="st66" d="M237,82.4993744h-19.0000458c-1.6568604,0-3-1.3431473-3-3v-4c0-1.6500015,1.3500061-3,3-3H237
		c1.6499939,0,3,1.3499985,3,3v4C240,81.1562271,238.6568604,82.4993744,237,82.4993744z"/>
	<g>
		<path class="st67" d="M237,72.5000992c1.6500244,0,3,1.3498535,3,3v4c0,1.6499023-1.3499756,3-3,3h-19
			c-1.6500244,0-3-1.3500977-3-3v-4c0-1.6501465,1.3499756-3,3-3H237 M237,71.5000992h-19c-2.2056274,0-4,1.7944336-4,4v4
			c0,2.2055664,1.7943726,4,4,4h19c2.2055664,0,4-1.7944336,4-4v-4C241,73.2945328,239.2055664,71.5000992,237,71.5000992
			L237,71.5000992z"/>
	</g>
	<g>
		<path class="st19" d="M218.3271484,75.4042969h2.6474609v0.4902344h-2.0595703v1.4433594h1.7373047v0.4970703h-1.7373047
			v1.6669922h2.1289062v0.4970703h-2.7167969V75.4042969z"/>
		<path class="st19" d="M225.4755859,75.4814453c-0.1328125-0.0556641-0.2666016-0.0839844-0.3847656-0.0839844
			c-0.3222656,0-0.4833984,0.2236328-0.4833984,0.6582031v0.5400391h0.7207031v0.46875h-0.7207031v2.9345703h-0.5742188v-2.9345703
			h-1.4150391v2.9345703h-0.5742188v-2.9345703h-0.4628906v-0.4335938l0.4628906-0.0351562v-0.4492188
			c0-0.7070312,0.3496094-1.1484375,1.0576172-1.1484375c0.2236328,0,0.4550781,0.0488281,0.6230469,0.1269531l-0.1191406,0.4335938
			c-0.1474609-0.0625-0.2871094-0.0908203-0.4550781-0.0908203c-0.3359375,0-0.5322266,0.2451172-0.5322266,0.6933594v0.4345703
			h1.4150391v-0.5400391c0-0.6933594,0.3144531-1.1279297,0.9941406-1.1279297c0.2099609,0,0.4130859,0.0498047,0.5673828,0.1132812
			L225.4755859,75.4814453z"/>
		<path class="st19" d="M227.1689453,76.5117188c0.8681641,0,1.3583984,0.6230469,1.3583984,1.5957031
			c0,0.1191406-0.0068359,0.2324219-0.0214844,0.3164062h-2.296875c0.0419922,0.734375,0.4833984,1.1972656,1.1347656,1.1972656
			c0.3222656,0,0.5957031-0.1054688,0.8476562-0.2666016l0.203125,0.3779297
			c-0.2949219,0.1894531-0.6582031,0.3505859-1.1210938,0.3505859c-0.9101562,0-1.6318359-0.6650391-1.6318359-1.7783203
			C225.6416016,77.1904297,226.3916016,76.5117188,227.1689453,76.5117188z M228.0234375,78.0449219
			c0-0.6933594-0.3085938-1.078125-0.8408203-1.078125c-0.4765625,0-0.9101562,0.3916016-0.9804688,1.078125H228.0234375z"/>
		<path class="st19" d="M230.7519531,76.5117188c0.4482422,0,0.7636719,0.1884766,0.9951172,0.40625l-0.2871094,0.3710938
			c-0.203125-0.1757812-0.4130859-0.3017578-0.6865234-0.3017578c-0.6162109,0-1.0644531,0.5322266-1.0644531,1.3173828
			c0,0.7773438,0.4267578,1.3027344,1.0507812,1.3027344c0.3212891,0,0.5947266-0.1621094,0.7978516-0.34375l0.2587891,0.3779297
			c-0.3076172,0.2734375-0.7001953,0.4414062-1.1064453,0.4414062c-0.9033203,0-1.5966797-0.6513672-1.5966797-1.7783203
			C229.1132812,77.1621094,229.8769531,76.5117188,230.7519531,76.5117188z"/>
		<path class="st19" d="M232.6552734,77.0644531h-0.5039062v-0.4335938l0.5322266-0.0351562l0.0703125-0.953125h0.4833984v0.953125
			h0.9169922v0.46875h-0.9169922v1.890625c0,0.4199219,0.1328125,0.6582031,0.5244141,0.6582031
			c0.1191406,0,0.2734375-0.0488281,0.3857422-0.0898438l0.1123047,0.4335938
			c-0.1894531,0.0625-0.4208984,0.1259766-0.6308594,0.1259766c-0.7285156,0-0.9736328-0.4619141-0.9736328-1.1347656V77.0644531z"
			/>
		<path class="st19" d="M234.8330078,79.2285156c0.2939453,0.2382812,0.5947266,0.40625,1.0009766,0.40625
			c0.4482422,0,0.6728516-0.2382812,0.6728516-0.5322266c0-0.3505859-0.40625-0.5048828-0.7773438-0.6445312
			c-0.4833984-0.1748047-1.015625-0.40625-1.015625-0.9804688c0-0.5458984,0.4335938-0.9658203,1.1689453-0.9658203
			c0.4277344,0,0.7988281,0.1738281,1.0576172,0.3847656l-0.2724609,0.3642578
			c-0.2314453-0.1748047-0.4765625-0.3017578-0.7773438-0.3017578c-0.4277344,0-0.6240234,0.2314453-0.6240234,0.4902344
			c0,0.3154297,0.3710938,0.4414062,0.7568359,0.5888672c0.4902344,0.1826172,1.0361328,0.3857422,1.0361328,1.0292969
			c0,0.5537109-0.4414062,1.015625-1.2460938,1.015625c-0.4833984,0-0.9462891-0.203125-1.2675781-0.4697266L234.8330078,79.2285156
			z"/>
	</g>
</g>
<g id="Typo_E1">
	<g>
		<path class="st29" d="M276.6728516,46.0507812c0.4462891,0.4648438,1.0644531,0.7792969,1.7207031,0.7792969
			c0.8173828,0,1.3017578-0.4091797,1.3017578-1.0175781c0-0.6367188-0.4560547-0.8359375-1.0449219-1.1025391l-0.8935547-0.3896484
			c-0.5800781-0.2480469-1.2646484-0.6943359-1.2646484-1.6074219c0-0.9492188,0.8369141-1.6533203,1.9677734-1.6533203
			c0.7412109,0,1.3974609,0.3134766,1.8349609,0.7705078l-0.4189453,0.5126953
			c-0.3798828-0.3613281-0.8457031-0.5888672-1.4160156-0.5888672c-0.703125,0-1.1689453,0.3515625-1.1689453,0.9121094
			c0,0.5996094,0.5507812,0.8271484,1.0361328,1.0361328l0.8935547,0.3798828
			c0.7216797,0.3144531,1.2832031,0.7421875,1.2832031,1.6640625c0,0.9882812-0.8173828,1.7773438-2.1298828,1.7773438
			c-0.8740234,0-1.6347656-0.3613281-2.1767578-0.921875L276.6728516,46.0507812z"/>
		<path class="st29" d="M281.6220703,40.640625h0.7792969v1.8447266l-0.0283203,0.9501953
			c0.4375-0.4179688,0.9033203-0.7597656,1.5400391-0.7597656c0.9697266,0,1.4072266,0.6269531,1.4072266,1.8066406v2.9277344
			h-0.7802734v-2.8242188c0-0.8652344-0.265625-1.2353516-0.8740234-1.2353516
			c-0.4755859,0-0.7988281,0.2470703-1.2646484,0.7128906v3.3466797h-0.7792969V40.640625z"/>
		<path class="st29" d="M289.4042969,44.4824219c0-0.5898438-0.1992188-1.1601562-0.9511719-1.1601562
			c-0.5410156,0-1.0166016,0.2470703-1.3779297,0.4941406l-0.3134766-0.5419922
			c0.4277344-0.2753906,1.0742188-0.5986328,1.8154297-0.5986328c1.1308594,0,1.6064453,0.7509766,1.6064453,1.9003906v2.8339844
			h-0.6464844l-0.0664062-0.5517578h-0.0185547c-0.4472656,0.3613281-0.9609375,0.6650391-1.53125,0.6650391
			c-0.7792969,0-1.359375-0.484375-1.359375-1.3115234C286.5615234,45.2041016,287.4365234,44.7001953,289.4042969,44.4824219z
			 M288.1396484,46.8964844c0.4472656,0,0.8173828-0.21875,1.2646484-0.6181641v-1.2832031
			c-1.5498047,0.1904297-2.0722656,0.5703125-2.0722656,1.1591797
			C287.3320312,46.6777344,287.6835938,46.8964844,288.1396484,46.8964844z"/>
		<path class="st29" d="M292.4335938,47.7988281v1.5595703h-0.7802734v-6.5693359h0.6464844l0.0673828,0.5332031h0.0283203
			c0.4179688-0.3515625,0.9316406-0.6464844,1.4736328-0.6464844c1.1875,0,1.8251953,0.921875,1.8251953,2.3574219
			c0,1.5683594-0.9414062,2.4902344-1.9970703,2.4902344c-0.4277344,0-0.8554688-0.1992188-1.2832031-0.5322266
			L292.4335938,47.7988281z M293.5644531,46.8671875c0.7607422,0,1.3212891-0.6933594,1.3212891-1.8339844
			c0-1.0175781-0.3417969-1.7011719-1.2167969-1.7011719c-0.3896484,0-0.7792969,0.21875-1.2353516,0.6269531v2.4238281
			C292.8515625,46.734375,293.2607422,46.8671875,293.5644531,46.8671875z"/>
		<path class="st29" d="M298.65625,42.6757812c1.1787109,0,1.8447266,0.8457031,1.8447266,2.1669922
			c0,0.1611328-0.0097656,0.3134766-0.0292969,0.4287109h-3.1171875c0.0566406,0.9980469,0.6552734,1.625,1.5390625,1.625
			c0.4375,0,0.8085938-0.1425781,1.1503906-0.3613281l0.2763672,0.5136719
			c-0.3994141,0.2558594-0.8935547,0.4746094-1.5214844,0.4746094c-1.2353516,0-2.2148438-0.9023438-2.2148438-2.4140625
			S297.6015625,42.6757812,298.65625,42.6757812z M299.8164062,44.7578125c0-0.9414062-0.4189453-1.4648438-1.140625-1.4648438
			c-0.6464844,0-1.2363281,0.5332031-1.3310547,1.4648438H299.8164062z"/>
		<path class="st29" d="M301.6376953,42.7890625h0.6464844l0.0673828,0.8369141h0.0283203
			c0.3134766-0.5791016,0.7890625-0.9501953,1.3115234-0.9501953c0.2001953,0,0.3427734,0.0283203,0.4941406,0.0947266
			l-0.1513672,0.6845703c-0.1523438-0.046875-0.2568359-0.0761719-0.4472656-0.0761719
			c-0.3896484,0-0.8554688,0.2851562-1.1689453,1.0644531v2.9667969h-0.7802734V42.7890625z"/>
	</g>
</g>
<g id="Plus">
</g>
</svg>
