<svg xmlns="http://www.w3.org/2000/svg" viewBox="0 0 390 305"><title>osc-1</title><rect x="0.25" y="0.25" width="389.5" height="304.5" rx="1.75" fill="#202020"/><path d="M388,.5A1.50164,1.50164,0,0,1,389.5,2V303a1.50164,1.50164,0,0,1-1.5,1.5H2A1.50168,1.50168,0,0,1,.5,303V2A1.50168,1.50168,0,0,1,2,.5H388m0-.5H2A2.00006,2.00006,0,0,0,0,2V303a2.00006,2.00006,0,0,0,2,2H388a2,2,0,0,0,2-2V2a2,2,0,0,0-2-2Z" fill="#363636"/><rect x="6.87598" y="5.875" width="200.24902" height="92.25" fill="#0f0f0f"/><path d="M207,6V98.00049H7.00085V6H207m.25-.25H6.75085V98.25049H207.25V5.75Z" fill="#363636"/><rect x="211.875" y="5.875" width="170.25" height="92.25" fill="#0f0f0f"/><path d="M382.00024,6V98.00049H212.00012V6H382.00024m.25-.25H211.75012V98.25049H382.25024V5.75Z" fill="#363636"/><rect x="6.87598" y="105.875" width="200.24902" height="92.25" fill="#0f0f0f"/><path d="M207,106v92.00049H7.00085V106H207m.25-.25H6.75085v92.50049H207.25V105.75Z" fill="#363636"/><rect x="211.875" y="105.875" width="170.25" height="92.25" fill="#0f0f0f"/><path d="M382.00024,106v92.00049H212.00012V106H382.00024m.25-.25H211.75012v92.50049H382.25024V105.75Z" fill="#363636"/><rect x="6.87598" y="205.875" width="200.24902" height="92.25" fill="#0f0f0f"/><path d="M207,206v92.00049H7.00085V206H207m.25-.25H6.75085v92.50049H207.25V205.75Z" fill="#363636"/><rect x="211.875" y="205.875" width="170.25" height="92.25" fill="#0f0f0f"/><path d="M382.00024,206v92.00049H212.00012V206H382.00024m.25-.25H211.75012v92.50049H382.25024V205.75Z" fill="#363636"/><rect x="7.00013" y="6" width="199.99989" height="12" fill="#363636"/><rect x="212.00009" y="6" width="170.00011" height="12" fill="#363636"/><rect x="7.00013" y="106" width="199.99989" height="12" fill="#363636"/><rect x="212.00009" y="106" width="170.00011" height="12" fill="#363636"/><rect x="7.00013" y="206" width="199.99989" height="12" fill="#363636"/><rect x="212.00009" y="206" width="170.00011" height="12" fill="#363636"/><line x1="47.00013" y1="18.00042" x2="47.00013" y2="98.00042" fill="none" stroke="#202020" stroke-width="0.5"/><line x1="37.00013" y1="18.00042" x2="37.00013" y2="98.00042" fill="none" stroke="#202020" stroke-width="0.5"/><line x1="57.00013" y1="18.00042" x2="57.00013" y2="98.00042" fill="none" stroke="#202020" stroke-width="0.5"/><line x1="67.00013" y1="18.00042" x2="67.00013" y2="98.00042" fill="none" stroke="#202020" stroke-width="0.5"/><line x1="77.00013" y1="18.00042" x2="77.00013" y2="98.00042" fill="none" stroke="#202020" stroke-width="0.5"/><line x1="87.00013" y1="18.00042" x2="87.00013" y2="98.00042" fill="none" stroke="#202020" stroke-width="0.5"/><line x1="97.00013" y1="18.00042" x2="97.00013" y2="98.00042" fill="none" stroke="#202020" stroke-width="0.5"/><line x1="107.00013" y1="18.00042" x2="107.00013" y2="98.00042" fill="none" stroke="#202020" stroke-width="0.5"/><line x1="117.00013" y1="18.00042" x2="117.00013" y2="98.00042" fill="none" stroke="#202020" stroke-width="0.5"/><line x1="127.00013" y1="18.00042" x2="127.00013" y2="98.00042" fill="none" stroke="#202020" stroke-width="0.5"/><line x1="137.00013" y1="18.00042" x2="137.00013" y2="98.00042" fill="none" stroke="#202020" stroke-width="0.5"/><line x1="147.00013" y1="18.00042" x2="147.00013" y2="98.00042" fill="none" stroke="#202020" stroke-width="0.5"/><line x1="157.00013" y1="18.00042" x2="157.00013" y2="98.00042" fill="none" stroke="#202020" stroke-width="0.5"/><line x1="167.00013" y1="18.00042" x2="167.00013" y2="98.00042" fill="none" stroke="#202020" stroke-width="0.5"/><line x1="177.00013" y1="18.00042" x2="177.00013" y2="98.00042" fill="none" stroke="#202020" stroke-width="0.5"/><line x1="187.00013" y1="18.00042" x2="187.00013" y2="98.00042" fill="none" stroke="#202020" stroke-width="0.5"/><line x1="197.00013" y1="18.00042" x2="197.00013" y2="98.00042" fill="none" stroke="#202020" stroke-width="0.5"/><line x1="6.99994" y1="88.00046" x2="206.99982" y2="88.00046" fill="none" stroke="#202020" stroke-width="0.5"/><line x1="6.99994" y1="78.00046" x2="206.99982" y2="78.00046" fill="none" stroke="#202020" stroke-width="0.5"/><line x1="6.99994" y1="68.00046" x2="206.99982" y2="68.00046" fill="none" stroke="#202020" stroke-width="0.5"/><line x1="6.99994" y1="58.00046" x2="206.99982" y2="58.00046" fill="none" stroke="#202020" stroke-width="0.5"/><line x1="6.99994" y1="48.00046" x2="206.99982" y2="48.00046" fill="none" stroke="#202020" stroke-width="0.5"/><line x1="7.00013" y1="38.00046" x2="207.00002" y2="38.00046" fill="none" stroke="#202020" stroke-width="0.5"/><line x1="7.00013" y1="28.00046" x2="207.00002" y2="28.00046" fill="none" stroke="#202020" stroke-width="0.5"/><line x1="27.00013" y1="18.00042" x2="27.00013" y2="98.00042" fill="none" stroke="#202020" stroke-width="0.5"/><line x1="17.00013" y1="18.00042" x2="17.00013" y2="98.00042" fill="none" stroke="#202020" stroke-width="0.5"/><line x1="272.0001" y1="18.00042" x2="272.0001" y2="98.00042" fill="none" stroke="#202020" stroke-width="0.5"/><line x1="262.0001" y1="18.00042" x2="262.0001" y2="98.00042" fill="none" stroke="#202020" stroke-width="0.5"/><line x1="282.0001" y1="18.00042" x2="282.0001" y2="98.00042" fill="none" stroke="#202020" stroke-width="0.5"/><line x1="292.0001" y1="18.00042" x2="292.0001" y2="98.00042" fill="none" stroke="#202020" stroke-width="0.5"/><line x1="302.00019" y1="18.00042" x2="302.00019" y2="98.00042" fill="none" stroke="#202020" stroke-width="0.5"/><line x1="312.0001" y1="18.00042" x2="312.0001" y2="98.00042" fill="none" stroke="#202020" stroke-width="0.5"/><line x1="322.0001" y1="18.00042" x2="322.0001" y2="98.00042" fill="none" stroke="#202020" stroke-width="0.5"/><line x1="332.0001" y1="18.00042" x2="332.0001" y2="98.00042" fill="none" stroke="#202020" stroke-width="0.5"/><line x1="342.0001" y1="18.00042" x2="342.0001" y2="98.00042" fill="none" stroke="#202020" stroke-width="0.5"/><line x1="352.0001" y1="18.00042" x2="352.0001" y2="98.00042" fill="none" stroke="#202020" stroke-width="0.5"/><line x1="362.0001" y1="18.00042" x2="362.0001" y2="98.00042" fill="none" stroke="#202020" stroke-width="0.5"/><line x1="372.0001" y1="18.00042" x2="372.0001" y2="98.00042" fill="none" stroke="#202020" stroke-width="0.5"/><line x1="212.00009" y1="88.0004" x2="382.00026" y2="88.0004" fill="none" stroke="#202020" stroke-width="0.5"/><line x1="212.00009" y1="78.0004" x2="382.00026" y2="78.0004" fill="none" stroke="#202020" stroke-width="0.5"/><line x1="212.00009" y1="68.0004" x2="382.00026" y2="68.0004" fill="none" stroke="#202020" stroke-width="0.5"/><line x1="212.00009" y1="58.0004" x2="382.00026" y2="58.0004" fill="none" stroke="#202020" stroke-width="0.5"/><line x1="212.00009" y1="48.0004" x2="382.00026" y2="48.0004" fill="none" stroke="#202020" stroke-width="0.5"/><line x1="212.00024" y1="38.0004" x2="382.00042" y2="38.0004" fill="none" stroke="#202020" stroke-width="0.5"/><line x1="212.00024" y1="28.0004" x2="382.00042" y2="28.0004" fill="none" stroke="#202020" stroke-width="0.5"/><line x1="252.0001" y1="18.00042" x2="252.0001" y2="98.00042" fill="none" stroke="#202020" stroke-width="0.5"/><line x1="242.0001" y1="18.00042" x2="242.0001" y2="98.00042" fill="none" stroke="#202020" stroke-width="0.5"/><line x1="232.0001" y1="18.00042" x2="232.0001" y2="98.00042" fill="none" stroke="#202020" stroke-width="0.5"/><line x1="222.0001" y1="18.00042" x2="222.0001" y2="98.00042" fill="none" stroke="#202020" stroke-width="0.5"/><line x1="47.00013" y1="118.00042" x2="47.00013" y2="198.00042" fill="none" stroke="#202020" stroke-width="0.5"/><line x1="37.00013" y1="118.00042" x2="37.00013" y2="198.00042" fill="none" stroke="#202020" stroke-width="0.5"/><line x1="57.00013" y1="118.00042" x2="57.00013" y2="198.00042" fill="none" stroke="#202020" stroke-width="0.5"/><line x1="67.00013" y1="118.00042" x2="67.00013" y2="198.00042" fill="none" stroke="#202020" stroke-width="0.5"/><line x1="77.00013" y1="118.00042" x2="77.00013" y2="198.00042" fill="none" stroke="#202020" stroke-width="0.5"/><line x1="87.00013" y1="118.00042" x2="87.00013" y2="198.00042" fill="none" stroke="#202020" stroke-width="0.5"/><line x1="97.00013" y1="118.00042" x2="97.00013" y2="198.00042" fill="none" stroke="#202020" stroke-width="0.5"/><line x1="107.00013" y1="118.00042" x2="107.00013" y2="198.00042" fill="none" stroke="#202020" stroke-width="0.5"/><line x1="117.00013" y1="118.00042" x2="117.00013" y2="198.00042" fill="none" stroke="#202020" stroke-width="0.5"/><line x1="127.00013" y1="118.00042" x2="127.00013" y2="198.00042" fill="none" stroke="#202020" stroke-width="0.5"/><line x1="137.00013" y1="118.00042" x2="137.00013" y2="198.00042" fill="none" stroke="#202020" stroke-width="0.5"/><line x1="147.00013" y1="118.00042" x2="147.00013" y2="198.00042" fill="none" stroke="#202020" stroke-width="0.5"/><line x1="157.00013" y1="118.00042" x2="157.00013" y2="198.00042" fill="none" stroke="#202020" stroke-width="0.5"/><line x1="167.00013" y1="118.00042" x2="167.00013" y2="198.00042" fill="none" stroke="#202020" stroke-width="0.5"/><line x1="177.00013" y1="118.00042" x2="177.00013" y2="198.00042" fill="none" stroke="#202020" stroke-width="0.5"/><line x1="187.00013" y1="118.00042" x2="187.00013" y2="198.00042" fill="none" stroke="#202020" stroke-width="0.5"/><line x1="197.00013" y1="118.00042" x2="197.00013" y2="198.00042" fill="none" stroke="#202020" stroke-width="0.5"/><line x1="6.99994" y1="188.00046" x2="206.99982" y2="188.00046" fill="none" stroke="#202020" stroke-width="0.5"/><line x1="6.99994" y1="178.00046" x2="206.99982" y2="178.00046" fill="none" stroke="#202020" stroke-width="0.5"/><line x1="6.99994" y1="168.00046" x2="206.99982" y2="168.00046" fill="none" stroke="#202020" stroke-width="0.5"/><line x1="6.99994" y1="158.00046" x2="206.99982" y2="158.00046" fill="none" stroke="#202020" stroke-width="0.5"/><line x1="6.99994" y1="148.00046" x2="206.99982" y2="148.00046" fill="none" stroke="#202020" stroke-width="0.5"/><line x1="7.00013" y1="138.00046" x2="207.00002" y2="138.00046" fill="none" stroke="#202020" stroke-width="0.5"/><line x1="7.00013" y1="128.00046" x2="207.00002" y2="128.00046" fill="none" stroke="#202020" stroke-width="0.5"/><line x1="27.00013" y1="118.00042" x2="27.00013" y2="198.00042" fill="none" stroke="#202020" stroke-width="0.5"/><line x1="17.00013" y1="118.00042" x2="17.00013" y2="198.00042" fill="none" stroke="#202020" stroke-width="0.5"/><line x1="272.0001" y1="118.00042" x2="272.0001" y2="198.00042" fill="none" stroke="#202020" stroke-width="0.5"/><line x1="262.0001" y1="118.00042" x2="262.0001" y2="198.00042" fill="none" stroke="#202020" stroke-width="0.5"/><line x1="282.0001" y1="118.00042" x2="282.0001" y2="198.00042" fill="none" stroke="#202020" stroke-width="0.5"/><line x1="292.0001" y1="118.00042" x2="292.0001" y2="198.00042" fill="none" stroke="#202020" stroke-width="0.5"/><line x1="302.00019" y1="118.00042" x2="302.00019" y2="198.00042" fill="none" stroke="#202020" stroke-width="0.5"/><line x1="312.0001" y1="118.00042" x2="312.0001" y2="198.00042" fill="none" stroke="#202020" stroke-width="0.5"/><line x1="322.0001" y1="118.00042" x2="322.0001" y2="198.00042" fill="none" stroke="#202020" stroke-width="0.5"/><line x1="332.0001" y1="118.00042" x2="332.0001" y2="198.00042" fill="none" stroke="#202020" stroke-width="0.5"/><line x1="342.0001" y1="118.00042" x2="342.0001" y2="198.00042" fill="none" stroke="#202020" stroke-width="0.5"/><line x1="352.0001" y1="118.00042" x2="352.0001" y2="198.00042" fill="none" stroke="#202020" stroke-width="0.5"/><line x1="362.0001" y1="118.00042" x2="362.0001" y2="198.00042" fill="none" stroke="#202020" stroke-width="0.5"/><line x1="372.0001" y1="118.00042" x2="372.0001" y2="198.00042" fill="none" stroke="#202020" stroke-width="0.5"/><line x1="212.00009" y1="188.0004" x2="382.00026" y2="188.0004" fill="none" stroke="#202020" stroke-width="0.5"/><line x1="212.00009" y1="178.0004" x2="382.00026" y2="178.0004" fill="none" stroke="#202020" stroke-width="0.5"/><line x1="212.00009" y1="168.0004" x2="382.00026" y2="168.0004" fill="none" stroke="#202020" stroke-width="0.5"/><line x1="212.00009" y1="158.0004" x2="382.00026" y2="158.0004" fill="none" stroke="#202020" stroke-width="0.5"/><line x1="212.00009" y1="148.0004" x2="382.00026" y2="148.0004" fill="none" stroke="#202020" stroke-width="0.5"/><line x1="212.00024" y1="138.0004" x2="382.00042" y2="138.0004" fill="none" stroke="#202020" stroke-width="0.5"/><line x1="212.00024" y1="128.0004" x2="382.00042" y2="128.0004" fill="none" stroke="#202020" stroke-width="0.5"/><line x1="252.0001" y1="118.00042" x2="252.0001" y2="198.00042" fill="none" stroke="#202020" stroke-width="0.5"/><line x1="242.0001" y1="118.00042" x2="242.0001" y2="198.00042" fill="none" stroke="#202020" stroke-width="0.5"/><line x1="232.0001" y1="118.00042" x2="232.0001" y2="198.00042" fill="none" stroke="#202020" stroke-width="0.5"/><line x1="222.0001" y1="118.00042" x2="222.0001" y2="198.00042" fill="none" stroke="#202020" stroke-width="0.5"/><line x1="47.00013" y1="218.00042" x2="47.00013" y2="298.00042" fill="none" stroke="#202020" stroke-width="0.5"/><line x1="37.00013" y1="218.00042" x2="37.00013" y2="298.00042" fill="none" stroke="#202020" stroke-width="0.5"/><line x1="57.00013" y1="218.00042" x2="57.00013" y2="298.00042" fill="none" stroke="#202020" stroke-width="0.5"/><line x1="67.00013" y1="218.00042" x2="67.00013" y2="298.00042" fill="none" stroke="#202020" stroke-width="0.5"/><line x1="77.00013" y1="218.00042" x2="77.00013" y2="298.00042" fill="none" stroke="#202020" stroke-width="0.5"/><line x1="87.00013" y1="218.00042" x2="87.00013" y2="298.00042" fill="none" stroke="#202020" stroke-width="0.5"/><line x1="97.00013" y1="218.00042" x2="97.00013" y2="298.00042" fill="none" stroke="#202020" stroke-width="0.5"/><line x1="107.00013" y1="218.00042" x2="107.00013" y2="298.00042" fill="none" stroke="#202020" stroke-width="0.5"/><line x1="117.00013" y1="218.00042" x2="117.00013" y2="298.00042" fill="none" stroke="#202020" stroke-width="0.5"/><line x1="127.00013" y1="218.00042" x2="127.00013" y2="298.00042" fill="none" stroke="#202020" stroke-width="0.5"/><line x1="137.00013" y1="218.00042" x2="137.00013" y2="298.00042" fill="none" stroke="#202020" stroke-width="0.5"/><line x1="147.00013" y1="218.00042" x2="147.00013" y2="298.00042" fill="none" stroke="#202020" stroke-width="0.5"/><line x1="157.00013" y1="218.00042" x2="157.00013" y2="298.00042" fill="none" stroke="#202020" stroke-width="0.5"/><line x1="167.00013" y1="218.00042" x2="167.00013" y2="298.00042" fill="none" stroke="#202020" stroke-width="0.5"/><line x1="177.00013" y1="218.00042" x2="177.00013" y2="298.00042" fill="none" stroke="#202020" stroke-width="0.5"/><line x1="187.00013" y1="218.00042" x2="187.00013" y2="298.00042" fill="none" stroke="#202020" stroke-width="0.5"/><line x1="197.00013" y1="218.00042" x2="197.00013" y2="298.00042" fill="none" stroke="#202020" stroke-width="0.5"/><line x1="6.99994" y1="288.00046" x2="206.99982" y2="288.00046" fill="none" stroke="#202020" stroke-width="0.5"/><line x1="6.99994" y1="278.00046" x2="206.99982" y2="278.00046" fill="none" stroke="#202020" stroke-width="0.5"/><line x1="6.99994" y1="268.00046" x2="206.99982" y2="268.00046" fill="none" stroke="#202020" stroke-width="0.5"/><line x1="6.99994" y1="258.00046" x2="206.99982" y2="258.00046" fill="none" stroke="#202020" stroke-width="0.5"/><line x1="6.99994" y1="248.00046" x2="206.99982" y2="248.00046" fill="none" stroke="#202020" stroke-width="0.5"/><line x1="7.00013" y1="238.00046" x2="207.00002" y2="238.00046" fill="none" stroke="#202020" stroke-width="0.5"/><line x1="7.00013" y1="228.00046" x2="207.00002" y2="228.00046" fill="none" stroke="#202020" stroke-width="0.5"/><line x1="27.00013" y1="218.00042" x2="27.00013" y2="298.00042" fill="none" stroke="#202020" stroke-width="0.5"/><line x1="17.00013" y1="218.00042" x2="17.00013" y2="298.00042" fill="none" stroke="#202020" stroke-width="0.5"/><line x1="272.0001" y1="218.00042" x2="272.0001" y2="298.00042" fill="none" stroke="#202020" stroke-width="0.5"/><line x1="262.0001" y1="218.00042" x2="262.0001" y2="298.00042" fill="none" stroke="#202020" stroke-width="0.5"/><line x1="282.0001" y1="218.00042" x2="282.0001" y2="298.00042" fill="none" stroke="#202020" stroke-width="0.5"/><line x1="292.0001" y1="218.00042" x2="292.0001" y2="298.00042" fill="none" stroke="#202020" stroke-width="0.5"/><line x1="302.00019" y1="218.00042" x2="302.00019" y2="298.00042" fill="none" stroke="#202020" stroke-width="0.5"/><line x1="312.0001" y1="218.00042" x2="312.0001" y2="298.00042" fill="none" stroke="#202020" stroke-width="0.5"/><line x1="322.0001" y1="218.00042" x2="322.0001" y2="298.00042" fill="none" stroke="#202020" stroke-width="0.5"/><line x1="332.0001" y1="218.00042" x2="332.0001" y2="298.00042" fill="none" stroke="#202020" stroke-width="0.5"/><line x1="342.0001" y1="218.00042" x2="342.0001" y2="298.00042" fill="none" stroke="#202020" stroke-width="0.5"/><line x1="352.0001" y1="218.00042" x2="352.0001" y2="298.00042" fill="none" stroke="#202020" stroke-width="0.5"/><line x1="362.0001" y1="218.00042" x2="362.0001" y2="298.00042" fill="none" stroke="#202020" stroke-width="0.5"/><line x1="372.0001" y1="218.00042" x2="372.0001" y2="298.00042" fill="none" stroke="#202020" stroke-width="0.5"/><line x1="212.00009" y1="288.0004" x2="382.00026" y2="288.0004" fill="none" stroke="#202020" stroke-width="0.5"/><line x1="212.00009" y1="278.0004" x2="382.00026" y2="278.0004" fill="none" stroke="#202020" stroke-width="0.5"/><line x1="212.00009" y1="268.0004" x2="382.00026" y2="268.0004" fill="none" stroke="#202020" stroke-width="0.5"/><line x1="212.00009" y1="258.0004" x2="382.00026" y2="258.0004" fill="none" stroke="#202020" stroke-width="0.5"/><line x1="212.00009" y1="248.0004" x2="382.00026" y2="248.0004" fill="none" stroke="#202020" stroke-width="0.5"/><line x1="212.00024" y1="238.0004" x2="382.00042" y2="238.0004" fill="none" stroke="#202020" stroke-width="0.5"/><line x1="212.00024" y1="228.0004" x2="382.00042" y2="228.0004" fill="none" stroke="#202020" stroke-width="0.5"/><line x1="252.0001" y1="218.00042" x2="252.0001" y2="298.00042" fill="none" stroke="#202020" stroke-width="0.5"/><line x1="242.0001" y1="218.00042" x2="242.0001" y2="298.00042" fill="none" stroke="#202020" stroke-width="0.5"/><line x1="232.0001" y1="218.00042" x2="232.0001" y2="298.00042" fill="none" stroke="#202020" stroke-width="0.5"/><line x1="222.0001" y1="218.00042" x2="222.0001" y2="298.00042" fill="none" stroke="#202020" stroke-width="0.5"/><path d="M107.67285,11.87891c0-1.6875.99121-2.71875,2.32617-2.71875a1.91431,1.91431,0,0,1,1.43946.64746l-.35938.43164a1.43449,1.43449,0,0,0-1.07226-.49512c-.99122,0-1.64649.81445-1.64649,2.11816,0,1.31934.63184,2.15137,1.62305,2.15137a1.58207,1.58207,0,0,0,1.21484-.59179l.36817.416a2.03334,2.03334,0,0,1-1.60743.75879C108.64844,14.59668,107.67285,13.58984,107.67285,11.87891Z" fill="#cacaca"/><path d="M112.34473,13.07812V10.61523h.66406v2.375c0,.72657.21582,1.03907.72754,1.03907.39941,0,.67969-.2002,1.04687-.65625V10.61523h.65625V14.501h-.54394l-.05567-.60743h-.02441a1.64329,1.64329,0,0,1-1.2793.70313C112.71289,14.59668,112.34473,14.06934,112.34473,13.07812Z" fill="#cacaca"/><path d="M116.752,10.61523h.544l.05566.70313h.02442a1.32937,1.32937,0,0,1,1.10351-.79883.95632.95632,0,0,1,.416.08008l-.12793.57519a1.0867,1.0867,0,0,0-.376-.06347c-.32812,0-.71972.23926-.9834.89453V14.501H116.752Z" fill="#cacaca"/><path d="M119.168,10.61523h.67969l.73535,2.207c.1123.38281.24023.77539.36035,1.14257h.03223c.11132-.36718.23925-.75976.35156-1.14257l.73535-2.207H122.71L121.335,14.501h-.76758Z" fill="#cacaca"/><path d="M123.14453,12.56641a1.87389,1.87389,0,0,1,1.74317-2.04688c.99121,0,1.55078.71094,1.55078,1.82227a2.44951,2.44951,0,0,1-.02442.376H123.792a1.2892,1.2892,0,0,0,1.29492,1.35157,1.759,1.759,0,0,0,.96778-.30372l.23144.43165a2.31309,2.31309,0,0,1-1.27929.39941A1.85723,1.85723,0,0,1,123.14453,12.56641Zm2.71777-.32032c0-.7832-.35156-1.207-.959-1.207a1.19959,1.19959,0,0,0-1.11914,1.207Z" fill="#cacaca"/><path d="M190.32227,64.63477V62.48438h-.5752v-.4961l.60742-.04.08008-1.08691h.55176v1.08691h1.04687v.53614h-1.04687v2.1582c0,.48047.15137.752.59961.752a1.41541,1.41541,0,0,0,.43945-.10449l.12793.49609a2.41757,2.41757,0,0,1-.71973.14356C190.60254,65.92969,190.32227,65.40234,190.32227,64.63477Z" fill="#cacaca"/><path d="M284.3252,11.85449c0-1.67871.91894-2.69433,2.23828-2.69433s2.24707,1.02343,2.24707,2.69433c0,1.68653-.92774,2.74219-2.24707,2.74219S284.3252,13.541,284.3252,11.85449Zm3.79,0c0-1.30371-.61621-2.11035-1.55175-2.11035s-1.55078.80664-1.55078,2.11035c0,1.31153.61523,2.15918,1.55078,2.15918S288.11523,13.166,288.11523,11.85449Z" fill="#cacaca"/><path d="M289.82031,13.07812V10.61523h.66407v2.375c0,.72657.21582,1.03907.72753,1.03907.39942,0,.67969-.2002,1.04688-.65625V10.61523h.65625V14.501h-.54395l-.05566-.60743H292.291a1.64331,1.64331,0,0,1-1.2793.70313C290.18848,14.59668,289.82031,14.06934,289.82031,13.07812Z" fill="#cacaca"/><path d="M294.34082,13.30176V11.15039h-.57617v-.49512l.6084-.04.08007-1.08789h.55176v1.08789h1.04688v.53516h-1.04688v2.15918c0,.47949.15137.751.59961.751a1.38688,1.38688,0,0,0,.43946-.10352l.12793.49609a2.38735,2.38735,0,0,1-.71973.14356C294.62109,14.59668,294.34082,14.06934,294.34082,13.30176Z" fill="#cacaca"/><path d="M296.93262,10.61523h.54394l.05567.44727h.02441a2.01356,2.01356,0,0,1,1.23926-.543c1,0,1.53515.77539,1.53515,1.98242,0,1.31934-.791,2.09473-1.67871,2.09473a1.79981,1.79981,0,0,1-1.08007-.44727l.0166.67871v1.3125h-.65625Zm2.71875,1.88672c0-.85547-.28809-1.43164-1.02344-1.43164a1.63714,1.63714,0,0,0-1.03906.52832V13.6377a1.53518,1.53518,0,0,0,.95117.40722C299.17969,14.04492,299.65137,13.46094,299.65137,12.502Z" fill="#cacaca"/><path d="M301.31641,13.07812V10.61523h.66406v2.375c0,.72657.21582,1.03907.72754,1.03907.39941,0,.67969-.2002,1.04687-.65625V10.61523h.65625V14.501h-.54394l-.05567-.60743h-.02441a1.64329,1.64329,0,0,1-1.2793.70313C301.68457,14.59668,301.31641,14.06934,301.31641,13.07812Z" fill="#cacaca"/><path d="M305.83691,13.30176V11.15039h-.57617v-.49512l.6084-.04.08008-1.08789h.55176v1.08789h1.04687v.53516H306.501v2.15918c0,.47949.15136.751.59961.751A1.38682,1.38682,0,0,0,307.54,13.957l.12793.49609a2.38723,2.38723,0,0,1-.71973.14356C306.11719,14.59668,305.83691,14.06934,305.83691,13.30176Z" fill="#cacaca"/><path d="M309.709,13.82129l.39942-.46387a2.05175,2.05175,0,0,0,1.44726.65625c.6875,0,1.09571-.34375,1.09571-.85547,0-.53613-.376-.7041-.87207-.92773l-.751-.32813a1.474,1.474,0,0,1-1.06348-1.35156,1.49,1.49,0,0,1,1.64746-1.39062,2.17677,2.17677,0,0,1,1.55079.64746l-.36036.43164a1.67031,1.67031,0,0,0-1.19043-.49512c-.584,0-.97558.29492-.97558.76758,0,.50293.45508.69531.87109.87109l.74317.32031a1.459,1.459,0,0,1,1.08007,1.39844,1.58379,1.58379,0,0,1-1.7832,1.49512A2.54434,2.54434,0,0,1,309.709,13.82129Z" fill="#cacaca"/><path d="M314.18066,9.3916a.45676.45676,0,0,1,.91114,0,.45676.45676,0,0,1-.91114,0Zm.11914,1.22363h.65625V14.501h-.65625Z" fill="#cacaca"/><path d="M315.97168,15.24414a1.12394,1.12394,0,0,1,.56836-.87891V14.333a.71567.71567,0,0,1-.34375-.63184.90561.90561,0,0,1,.42383-.71875v-.0332a1.37083,1.37083,0,0,1,.959-2.42969,1.53628,1.53628,0,0,1,.55176.0957h1.35156v.50391h-.7998a1.1275,1.1275,0,0,1,.32031.79883,1.33375,1.33375,0,0,1-1.42383,1.35156,1.36407,1.36407,0,0,1-.584-.13574.58918.58918,0,0,0-.24707.46387c0,.248.15918.42382.6875.42382h.751c.9043,0,1.35938.2793,1.35938.92774,0,.71875-.75977,1.34277-1.9668,1.34277C316.62793,16.292,315.97168,15.916,315.97168,15.24414Zm2.93457-.19922c0-.35937-.2793-.48047-.7832-.48047h-.67188a1.90024,1.90024,0,0,1-.5039-.06347.81967.81967,0,0,0-.39942.65527c0,.416.42383.67969,1.127.67969C318.419,15.83594,318.90625,15.45312,318.90625,15.04492Zm-.50391-3.14258a.82679.82679,0,1,0-1.64648,0,.82913.82913,0,1,0,1.64648,0Z" fill="#cacaca"/><path d="M320.2998,10.61523h.54395l.05566.55957h.02442a1.83071,1.83071,0,0,1,1.30371-.65527c.81543,0,1.18262.52735,1.18262,1.51856V14.501h-.65528V12.127c0-.72851-.22363-1.04-.73535-1.04-.40039,0-.67187.208-1.06348.59961V14.501h-.65625Z" fill="#cacaca"/><path d="M324.43652,13.49414c0-.84766.72754-1.27148,2.38282-1.456,0-.49512-.16016-.97559-.79981-.97559a2.10966,2.10966,0,0,0-1.15918.416l-.25586-.45508a2.87775,2.87775,0,0,1,1.52735-.50391c.95117,0,1.35058.63086,1.35058,1.59863V14.501h-.54394l-.05567-.46387h-.02343a2.07522,2.07522,0,0,1-1.28809.55957A1.05652,1.05652,0,0,1,324.43652,13.49414Zm2.38282.05469V12.4707c-1.2959.15918-1.74317.47852-1.74317.97461,0,.43946.30371.624.6875.624A1.57638,1.57638,0,0,0,326.81934,13.54883Z" fill="#cacaca"/><path d="M328.708,13.7168V8.80859h.65625v4.957c0,.207.08789.28711.18359.28711a.55805.55805,0,0,0,.14356-.01562l.08886.49609a.90266.90266,0,0,1-.376.06348C328.9082,14.59668,328.708,14.28516,328.708,13.7168Z" fill="#cacaca"/><path d="M364.89648,84.65039h-.52734V84.1543l.52734-.04v-.61621c0-.791.35938-1.28711,1.13575-1.28711a1.77559,1.77559,0,0,1,.64746.12793l-.14453.5039a1.09485,1.09485,0,0,0-.43946-.0957c-.36718,0-.54394.25586-.54394.751v.61621h.82422v.53613h-.82422V88h-.65528Z" fill="#cacaca"/><path d="M221.62305,32.75488h.75195L224.14941,38h-.71093l-.4961-1.59961h-1.91113L220.52734,38h-.67871Zm-.42383,3.11035h1.57519l-.248-.7998c-.19141-.583-.35938-1.15918-.52735-1.7666h-.03222c-.16016.60742-.32715,1.18359-.51953,1.7666Z" fill="#cacaca"/><path d="M107.67285,111.87891c0-1.6875.99121-2.71875,2.32617-2.71875a1.91431,1.91431,0,0,1,1.43946.64746l-.35938.43164a1.43449,1.43449,0,0,0-1.07226-.49512c-.99122,0-1.64649.81445-1.64649,2.11816,0,1.31934.63184,2.15137,1.62305,2.15137a1.58207,1.58207,0,0,0,1.21484-.59179l.36817.416a2.03334,2.03334,0,0,1-1.60743.75879C108.64844,114.59668,107.67285,113.58984,107.67285,111.87891Z" fill="#cacaca"/><path d="M112.34473,113.07812v-2.46289h.66406v2.375c0,.72657.21582,1.03907.72754,1.03907.39941,0,.67969-.2002,1.04687-.65625v-2.75782h.65625V114.501h-.54394l-.05567-.60743h-.02441a1.64329,1.64329,0,0,1-1.2793.70313C112.71289,114.59668,112.34473,114.06934,112.34473,113.07812Z" fill="#cacaca"/><path d="M116.752,110.61523h.544l.05566.70313h.02442a1.32937,1.32937,0,0,1,1.10351-.79883.95632.95632,0,0,1,.416.08008l-.12793.57519a1.0867,1.0867,0,0,0-.376-.06347c-.32812,0-.71972.23926-.9834.89453V114.501H116.752Z" fill="#cacaca"/><path d="M119.168,110.61523h.67969l.73535,2.207c.1123.38281.24023.77539.36035,1.14257h.03223c.11132-.36718.23925-.75976.35156-1.14257l.73535-2.207H122.71l-1.375,3.88575h-.76758Z" fill="#cacaca"/><path d="M123.14453,112.56641a1.87389,1.87389,0,0,1,1.74317-2.04688c.99121,0,1.55078.71094,1.55078,1.82227a2.44951,2.44951,0,0,1-.02442.376H123.792a1.2892,1.2892,0,0,0,1.29492,1.35157,1.759,1.759,0,0,0,.96778-.30372l.23144.43165a2.31309,2.31309,0,0,1-1.27929.39941A1.85723,1.85723,0,0,1,123.14453,112.56641Zm2.71777-.32032c0-.7832-.35156-1.207-.959-1.207a1.19959,1.19959,0,0,0-1.11914,1.207Z" fill="#cacaca"/><path d="M190.32227,164.63477v-2.15039h-.5752v-.4961l.60742-.04.08008-1.08691h.55176v1.08691h1.04687v.53614h-1.04687v2.1582c0,.48047.15137.75195.59961.75195a1.41541,1.41541,0,0,0,.43945-.10449l.12793.49609a2.41757,2.41757,0,0,1-.71973.14356C190.60254,165.92969,190.32227,165.40234,190.32227,164.63477Z" fill="#cacaca"/><path d="M284.3252,111.85449c0-1.67871.91894-2.69433,2.23828-2.69433s2.24707,1.02343,2.24707,2.69433c0,1.68653-.92774,2.74219-2.24707,2.74219S284.3252,113.541,284.3252,111.85449Zm3.79,0c0-1.30371-.61621-2.11035-1.55175-2.11035s-1.55078.80664-1.55078,2.11035c0,1.31153.61523,2.15918,1.55078,2.15918S288.11523,113.166,288.11523,111.85449Z" fill="#cacaca"/><path d="M289.82031,113.07812v-2.46289h.66407v2.375c0,.72657.21582,1.03907.72753,1.03907.39942,0,.67969-.2002,1.04688-.65625v-2.75782h.65625V114.501h-.54395l-.05566-.60743H292.291a1.64331,1.64331,0,0,1-1.2793.70313C290.18848,114.59668,289.82031,114.06934,289.82031,113.07812Z" fill="#cacaca"/><path d="M294.34082,113.30176v-2.15137h-.57617v-.49512l.6084-.04.08007-1.08789h.55176v1.08789h1.04688v.53516h-1.04688v2.15918c0,.47949.15137.751.59961.751a1.38688,1.38688,0,0,0,.43946-.10352l.12793.49609a2.38735,2.38735,0,0,1-.71973.14356C294.62109,114.59668,294.34082,114.06934,294.34082,113.30176Z" fill="#cacaca"/><path d="M296.93262,110.61523h.54394l.05567.44727h.02441a2.01356,2.01356,0,0,1,1.23926-.543c1,0,1.53515.77539,1.53515,1.98242,0,1.31934-.791,2.09473-1.67871,2.09473a1.79981,1.79981,0,0,1-1.08007-.44727l.0166.67871v1.3125h-.65625Zm2.71875,1.88672c0-.85547-.28809-1.43164-1.02344-1.43164a1.63714,1.63714,0,0,0-1.03906.52832v2.03907a1.53518,1.53518,0,0,0,.95117.40722C299.17969,114.04492,299.65137,113.46094,299.65137,112.502Z" fill="#cacaca"/><path d="M301.31641,113.07812v-2.46289h.66406v2.375c0,.72657.21582,1.03907.72754,1.03907.39941,0,.67969-.2002,1.04687-.65625v-2.75782h.65625V114.501h-.54394l-.05567-.60743h-.02441a1.64329,1.64329,0,0,1-1.2793.70313C301.68457,114.59668,301.31641,114.06934,301.31641,113.07812Z" fill="#cacaca"/><path d="M305.83691,113.30176v-2.15137h-.57617v-.49512l.6084-.04.08008-1.08789h.55176v1.08789h1.04687v.53516H306.501v2.15918c0,.47949.15136.751.59961.751a1.38682,1.38682,0,0,0,.43945-.10352l.12793.49609a2.38723,2.38723,0,0,1-.71973.14356C306.11719,114.59668,305.83691,114.06934,305.83691,113.30176Z" fill="#cacaca"/><path d="M309.709,113.82129l.39942-.46387a2.05175,2.05175,0,0,0,1.44726.65625c.6875,0,1.09571-.34375,1.09571-.85547,0-.53613-.376-.7041-.87207-.92773l-.751-.32813a1.474,1.474,0,0,1-1.06348-1.35156,1.49,1.49,0,0,1,1.64746-1.39062,2.17677,2.17677,0,0,1,1.55079.64746l-.36036.43164a1.67031,1.67031,0,0,0-1.19043-.49512c-.584,0-.97558.29492-.97558.76758,0,.50293.45508.69531.87109.87109l.74317.32031a1.459,1.459,0,0,1,1.08007,1.39844,1.58379,1.58379,0,0,1-1.7832,1.49512A2.54434,2.54434,0,0,1,309.709,113.82129Z" fill="#cacaca"/><path d="M314.18066,109.3916a.45676.45676,0,0,1,.91114,0,.45676.45676,0,0,1-.91114,0Zm.11914,1.22363h.65625V114.501h-.65625Z" fill="#cacaca"/><path d="M315.97168,115.24414a1.12394,1.12394,0,0,1,.56836-.87891V114.333a.71567.71567,0,0,1-.34375-.63184.90561.90561,0,0,1,.42383-.71875v-.0332a1.37083,1.37083,0,0,1,.959-2.42969,1.53628,1.53628,0,0,1,.55176.0957h1.35156v.50391h-.7998a1.1275,1.1275,0,0,1,.32031.79883,1.33375,1.33375,0,0,1-1.42383,1.35156,1.36407,1.36407,0,0,1-.584-.13574.58918.58918,0,0,0-.24707.46387c0,.248.15918.42382.6875.42382h.751c.9043,0,1.35938.2793,1.35938.92774,0,.71875-.75977,1.34277-1.9668,1.34277C316.62793,116.292,315.97168,115.916,315.97168,115.24414Zm2.93457-.19922c0-.35937-.2793-.48047-.7832-.48047h-.67188a1.90024,1.90024,0,0,1-.5039-.06347.81967.81967,0,0,0-.39942.65527c0,.416.42383.67969,1.127.67969C318.419,115.83594,318.90625,115.45312,318.90625,115.04492Zm-.50391-3.14258a.82679.82679,0,1,0-1.64648,0,.82913.82913,0,1,0,1.64648,0Z" fill="#cacaca"/><path d="M320.2998,110.61523h.54395l.05566.55957h.02442a1.83071,1.83071,0,0,1,1.30371-.65527c.81543,0,1.18262.52735,1.18262,1.51856V114.501h-.65528v-2.374c0-.72851-.22363-1.04-.73535-1.04-.40039,0-.67187.208-1.06348.59961V114.501h-.65625Z" fill="#cacaca"/><path d="M324.43652,113.49414c0-.84766.72754-1.27148,2.38282-1.45605,0-.49512-.16016-.97559-.79981-.97559a2.10966,2.10966,0,0,0-1.15918.416l-.25586-.45508a2.87775,2.87775,0,0,1,1.52735-.50391c.95117,0,1.35058.63086,1.35058,1.59863V114.501h-.54394l-.05567-.46387h-.02343a2.07522,2.07522,0,0,1-1.28809.55957A1.05652,1.05652,0,0,1,324.43652,113.49414Zm2.38282.05469V112.4707c-1.2959.15918-1.74317.47852-1.74317.97461,0,.43946.30371.624.6875.624A1.57638,1.57638,0,0,0,326.81934,113.54883Z" fill="#cacaca"/><path d="M328.708,113.7168v-4.90821h.65625v4.957c0,.207.08789.28711.18359.28711a.55805.55805,0,0,0,.14356-.01562l.08886.49609a.90266.90266,0,0,1-.376.06348C328.9082,114.59668,328.708,114.28516,328.708,113.7168Z" fill="#cacaca"/><path d="M364.89648,184.65039h-.52734v-.49609l.52734-.04v-.61621c0-.791.35938-1.28711,1.13575-1.28711a1.77559,1.77559,0,0,1,.64746.12793l-.14453.5039a1.09485,1.09485,0,0,0-.43946-.0957c-.36718,0-.54394.25586-.54394.751v.61621h.82422v.53613h-.82422V188h-.65528Z" fill="#cacaca"/><path d="M221.62305,132.75488h.75195L224.14941,138h-.71093l-.4961-1.59961h-1.91113L220.52734,138h-.67871Zm-.42383,3.11035h1.57519l-.248-.7998c-.19141-.583-.35938-1.15918-.52735-1.7666h-.03222c-.16016.60742-.32715,1.18359-.51953,1.7666Z" fill="#cacaca"/><path d="M107.67285,211.87891c0-1.6875.99121-2.71875,2.32617-2.71875a1.91431,1.91431,0,0,1,1.43946.64746l-.35938.43164a1.43449,1.43449,0,0,0-1.07226-.49512c-.99122,0-1.64649.81445-1.64649,2.11816,0,1.31934.63184,2.15137,1.62305,2.15137a1.58207,1.58207,0,0,0,1.21484-.59179l.36817.416a2.03334,2.03334,0,0,1-1.60743.75879C108.64844,214.59668,107.67285,213.58984,107.67285,211.87891Z" fill="#cacaca"/><path d="M112.34473,213.07812v-2.46289h.66406v2.375c0,.72657.21582,1.03907.72754,1.03907.39941,0,.67969-.2002,1.04687-.65625v-2.75782h.65625V214.501h-.54394l-.05567-.60743h-.02441a1.64329,1.64329,0,0,1-1.2793.70313C112.71289,214.59668,112.34473,214.06934,112.34473,213.07812Z" fill="#cacaca"/><path d="M116.752,210.61523h.544l.05566.70313h.02442a1.32937,1.32937,0,0,1,1.10351-.79883.95632.95632,0,0,1,.416.08008l-.12793.57519a1.0867,1.0867,0,0,0-.376-.06347c-.32812,0-.71972.23926-.9834.89453V214.501H116.752Z" fill="#cacaca"/><path d="M119.168,210.61523h.67969l.73535,2.207c.1123.38281.24023.77539.36035,1.14257h.03223c.11132-.36718.23925-.75976.35156-1.14257l.73535-2.207H122.71l-1.375,3.88575h-.76758Z" fill="#cacaca"/><path d="M123.14453,212.56641a1.87389,1.87389,0,0,1,1.74317-2.04688c.99121,0,1.55078.71094,1.55078,1.82227a2.44951,2.44951,0,0,1-.02442.376H123.792a1.2892,1.2892,0,0,0,1.29492,1.35157,1.759,1.759,0,0,0,.96778-.30372l.23144.43165a2.31309,2.31309,0,0,1-1.27929.39941A1.85723,1.85723,0,0,1,123.14453,212.56641Zm2.71777-.32032c0-.7832-.35156-1.207-.959-1.207a1.19959,1.19959,0,0,0-1.11914,1.207Z" fill="#cacaca"/><path d="M190.32227,264.63477v-2.15039h-.5752v-.4961l.60742-.04.08008-1.08691h.55176v1.08691h1.04687v.53614h-1.04687v2.1582c0,.48047.15137.75195.59961.75195a1.41541,1.41541,0,0,0,.43945-.10449l.12793.49609a2.41757,2.41757,0,0,1-.71973.14356C190.60254,265.92969,190.32227,265.40234,190.32227,264.63477Z" fill="#cacaca"/><path d="M284.3252,211.85449c0-1.67871.91894-2.69433,2.23828-2.69433s2.24707,1.02343,2.24707,2.69433c0,1.68653-.92774,2.74219-2.24707,2.74219S284.3252,213.541,284.3252,211.85449Zm3.79,0c0-1.30371-.61621-2.11035-1.55175-2.11035s-1.55078.80664-1.55078,2.11035c0,1.31153.61523,2.15918,1.55078,2.15918S288.11523,213.166,288.11523,211.85449Z" fill="#cacaca"/><path d="M289.82031,213.07812v-2.46289h.66407v2.375c0,.72657.21582,1.03907.72753,1.03907.39942,0,.67969-.2002,1.04688-.65625v-2.75782h.65625V214.501h-.54395l-.05566-.60743H292.291a1.64331,1.64331,0,0,1-1.2793.70313C290.18848,214.59668,289.82031,214.06934,289.82031,213.07812Z" fill="#cacaca"/><path d="M294.34082,213.30176v-2.15137h-.57617v-.49512l.6084-.04.08007-1.08789h.55176v1.08789h1.04688v.53516h-1.04688v2.15918c0,.47949.15137.751.59961.751a1.38688,1.38688,0,0,0,.43946-.10352l.12793.49609a2.38735,2.38735,0,0,1-.71973.14356C294.62109,214.59668,294.34082,214.06934,294.34082,213.30176Z" fill="#cacaca"/><path d="M296.93262,210.61523h.54394l.05567.44727h.02441a2.01356,2.01356,0,0,1,1.23926-.543c1,0,1.53515.77539,1.53515,1.98242,0,1.31934-.791,2.09473-1.67871,2.09473a1.79981,1.79981,0,0,1-1.08007-.44727l.0166.67871v1.3125h-.65625Zm2.71875,1.88672c0-.85547-.28809-1.43164-1.02344-1.43164a1.63714,1.63714,0,0,0-1.03906.52832v2.03907a1.53518,1.53518,0,0,0,.95117.40722C299.17969,214.04492,299.65137,213.46094,299.65137,212.502Z" fill="#cacaca"/><path d="M301.31641,213.07812v-2.46289h.66406v2.375c0,.72657.21582,1.03907.72754,1.03907.39941,0,.67969-.2002,1.04687-.65625v-2.75782h.65625V214.501h-.54394l-.05567-.60743h-.02441a1.64329,1.64329,0,0,1-1.2793.70313C301.68457,214.59668,301.31641,214.06934,301.31641,213.07812Z" fill="#cacaca"/><path d="M305.83691,213.30176v-2.15137h-.57617v-.49512l.6084-.04.08008-1.08789h.55176v1.08789h1.04687v.53516H306.501v2.15918c0,.47949.15136.751.59961.751a1.38682,1.38682,0,0,0,.43945-.10352l.12793.49609a2.38723,2.38723,0,0,1-.71973.14356C306.11719,214.59668,305.83691,214.06934,305.83691,213.30176Z" fill="#cacaca"/><path d="M309.709,213.82129l.39942-.46387a2.05175,2.05175,0,0,0,1.44726.65625c.6875,0,1.09571-.34375,1.09571-.85547,0-.53613-.376-.7041-.87207-.92773l-.751-.32813a1.474,1.474,0,0,1-1.06348-1.35156,1.49,1.49,0,0,1,1.64746-1.39062,2.17677,2.17677,0,0,1,1.55079.64746l-.36036.43164a1.67031,1.67031,0,0,0-1.19043-.49512c-.584,0-.97558.29492-.97558.76758,0,.50293.45508.69531.87109.87109l.74317.32031a1.459,1.459,0,0,1,1.08007,1.39844,1.58379,1.58379,0,0,1-1.7832,1.49512A2.54434,2.54434,0,0,1,309.709,213.82129Z" fill="#cacaca"/><path d="M314.18066,209.3916a.45676.45676,0,0,1,.91114,0,.45676.45676,0,0,1-.91114,0Zm.11914,1.22363h.65625V214.501h-.65625Z" fill="#cacaca"/><path d="M315.97168,215.24414a1.12394,1.12394,0,0,1,.56836-.87891V214.333a.71567.71567,0,0,1-.34375-.63184.90561.90561,0,0,1,.42383-.71875v-.0332a1.37083,1.37083,0,0,1,.959-2.42969,1.53628,1.53628,0,0,1,.55176.0957h1.35156v.50391h-.7998a1.1275,1.1275,0,0,1,.32031.79883,1.33375,1.33375,0,0,1-1.42383,1.35156,1.36407,1.36407,0,0,1-.584-.13574.58918.58918,0,0,0-.24707.46387c0,.248.15918.42382.6875.42382h.751c.9043,0,1.35938.2793,1.35938.92774,0,.71875-.75977,1.34277-1.9668,1.34277C316.62793,216.292,315.97168,215.916,315.97168,215.24414Zm2.93457-.19922c0-.35937-.2793-.48047-.7832-.48047h-.67188a1.90024,1.90024,0,0,1-.5039-.06347.81967.81967,0,0,0-.39942.65527c0,.416.42383.67969,1.127.67969C318.419,215.83594,318.90625,215.45312,318.90625,215.04492Zm-.50391-3.14258a.82679.82679,0,1,0-1.64648,0,.82913.82913,0,1,0,1.64648,0Z" fill="#cacaca"/><path d="M320.2998,210.61523h.54395l.05566.55957h.02442a1.83071,1.83071,0,0,1,1.30371-.65527c.81543,0,1.18262.52735,1.18262,1.51856V214.501h-.65528v-2.374c0-.72851-.22363-1.04-.73535-1.04-.40039,0-.67187.208-1.06348.59961V214.501h-.65625Z" fill="#cacaca"/><path d="M324.43652,213.49414c0-.84766.72754-1.27148,2.38282-1.456,0-.49512-.16016-.97559-.79981-.97559a2.10966,2.10966,0,0,0-1.15918.416l-.25586-.45508a2.87775,2.87775,0,0,1,1.52735-.50391c.95117,0,1.35058.63086,1.35058,1.59863V214.501h-.54394l-.05567-.46387h-.02343a2.07522,2.07522,0,0,1-1.28809.55957A1.05652,1.05652,0,0,1,324.43652,213.49414Zm2.38282.05469V212.4707c-1.2959.15918-1.74317.47852-1.74317.97461,0,.43946.30371.624.6875.624A1.57638,1.57638,0,0,0,326.81934,213.54883Z" fill="#cacaca"/><path d="M328.708,213.7168v-4.90821h.65625v4.957c0,.207.08789.28711.18359.28711a.55805.55805,0,0,0,.14356-.01562l.08886.49609a.90266.90266,0,0,1-.376.06348C328.9082,214.59668,328.708,214.28516,328.708,213.7168Z" fill="#cacaca"/><path d="M364.89648,284.65039h-.52734v-.49609l.52734-.04v-.61621c0-.791.35938-1.28711,1.13575-1.28711a1.77559,1.77559,0,0,1,.64746.12793l-.14453.5039a1.09485,1.09485,0,0,0-.43946-.0957c-.36718,0-.54394.25586-.54394.751v.61621h.82422v.53613h-.82422V288h-.65528Z" fill="#cacaca"/><path d="M221.62305,232.75488h.75195L224.14941,238h-.71093l-.4961-1.59961h-1.91113L220.52734,238h-.67871Zm-.42383,3.11035h1.57519l-.248-.7998c-.19141-.583-.35938-1.15918-.52735-1.7666h-.03222c-.16016.60742-.32715,1.18359-.51953,1.7666Z" fill="#cacaca"/><line x1="17.00012" y1="58.00049" x2="196.45789" y2="58.00049" fill="none" stroke="#979797" stroke-width="0.5"/><polygon points="194.301 60.545 193.96 60.179 196.266 58.001 193.96 55.822 194.301 55.456 197 58.001 194.301 60.545" fill="#979797"/><line x1="232.00012" y1="28.54248" x2="232.00012" y2="88.21973" fill="none" stroke="#979797" stroke-width="0.5"/><polygon points="229.455 30.699 229.821 31.041 232 28.734 234.178 31.041 234.545 30.699 232 28 229.455 30.699" fill="#979797"/><line x1="222.00012" y1="78.00049" x2="371.45789" y2="78.00049" fill="none" stroke="#979797" stroke-width="0.5"/><polygon points="369.301 80.545 368.96 80.179 371.266 78.001 368.96 75.822 369.301 75.456 372 78.001 369.301 80.545" fill="#979797"/><line x1="17.00012" y1="158.00049" x2="196.45789" y2="158.00049" fill="none" stroke="#979797" stroke-width="0.5"/><polygon points="194.301 160.545 193.96 160.179 196.266 158.001 193.96 155.822 194.301 155.456 197 158.001 194.301 160.545" fill="#979797"/><line x1="232.00012" y1="128.54248" x2="232.00012" y2="188.21973" fill="none" stroke="#979797" stroke-width="0.5"/><polygon points="229.455 130.699 229.821 131.041 232 128.734 234.178 131.041 234.545 130.699 232 128 229.455 130.699" fill="#979797"/><line x1="222.00012" y1="178.00049" x2="371.45789" y2="178.00049" fill="none" stroke="#979797" stroke-width="0.5"/><polygon points="369.301 180.545 368.96 180.179 371.266 178.001 368.96 175.822 369.301 175.456 372 178.001 369.301 180.545" fill="#979797"/><line x1="17.00012" y1="258.00049" x2="196.45789" y2="258.00049" fill="none" stroke="#979797" stroke-width="0.5"/><polygon points="194.301 260.545 193.96 260.179 196.266 258.001 193.96 255.822 194.301 255.456 197 258.001 194.301 260.545" fill="#979797"/><line x1="232.00012" y1="228.54248" x2="232.00012" y2="288.21973" fill="none" stroke="#979797" stroke-width="0.5"/><polygon points="229.455 230.699 229.821 231.041 232 228.734 234.178 231.041 234.545 230.699 232 228 229.455 230.699" fill="#979797"/><line x1="222.00012" y1="278.00049" x2="371.45789" y2="278.00049" fill="none" stroke="#979797" stroke-width="0.5"/><polygon points="369.301 280.545 368.96 280.179 371.266 278.001 368.96 275.822 369.301 275.456 372 278.001 369.301 280.545" fill="#979797"/><path d="M186.99976,38.11035c-6.85711,0-11.42852,7.99988-15.99992,19.99969S161.857,78.10973,154.99991,78.10973,143.57139,70.10986,139,58.11s-9.14282-19.99968-15.99993-19.99968-11.42851,7.99987-15.99992,19.99969S97.85732,78.10973,91.00021,78.10973,79.5717,70.10986,75.00029,58.11005,65.85747,38.11036,59.00036,38.11036,47.57185,46.11023,43.00044,58.11005,33.85763,78.10974,27.00051,78.10974" fill="none" stroke="#e9a460" stroke-width="0.8"/><path d="M186.99721,137.7744c-6.47465,0-12.57508,8.04525-19.56751,20.11313s-13.09287,20.11314-19.56752,20.11314-9.00708-8.04526-10.64751-20.11314-4.17287-20.11313-10.64752-20.11313-12.57508,8.04526-19.56751,20.11314-13.09286,20.11313-19.56751,20.11313-9.00708-8.04525-10.64752-20.11313S72.61174,137.7744,66.13709,137.7744,53.562,145.81966,46.56958,157.88754s-13.09286,20.11313-19.56751,20.11313" fill="none" stroke="#e9a460" stroke-width="0.8"/><path d="M27.00213,277.99974c6.80182,0,18.80917-12.71671,25.31545-19.99963S70.83122,238.00048,77.633,238.00048c1.17873.00008,2.02561,10,2.02561,19.99995s.84689,19.99987,2.02562,20c6.80181,0,18.80917-12.71671,25.31545-19.99963v-.00064c6.50628-7.28292,18.51363-19.99963,25.31544-19.99963,1.17873.00008,2.02561,10,2.02562,19.99995s.84688,19.99987,2.02561,20c6.80182,0,18.80917-12.71671,25.31545-19.99963v-.00064c6.50628-7.28292,18.51363-19.99963,25.31545-19.99963" fill="none" stroke="#e9a460" stroke-width="0.7"/><line x1="252.0001" y1="78.00039" x2="252.0001" y2="43.00039" fill="none" stroke="#e9a460" stroke-width="3"/><line x1="252.00033" y1="178.00035" x2="252.00033" y2="143.00035" fill="none" stroke="#e9a460" stroke-width="3"/><line x1="282.00033" y1="178.0004" x2="282.00033" y2="160.5004" fill="none" stroke="#e9a460" stroke-width="3"/><line x1="312.00033" y1="178.00035" x2="312.00033" y2="166.50035" fill="none" stroke="#e9a460" stroke-width="3"/><line x1="342.00033" y1="178.00035" x2="342.00033" y2="170.00035" fill="none" stroke="#e9a460" stroke-width="3"/><line x1="252.01567" y1="243" x2="252.01567" y2="278" fill="none" stroke="#e9a460" stroke-width="3"/><line x1="257.30796" y1="249.23064" x2="257.30796" y2="278" fill="none" stroke="#e9a460" stroke-width="3"/><line x1="262.60025" y1="253.38232" x2="262.60025" y2="278" fill="none" stroke="#e9a460" stroke-width="3"/><line x1="267.89253" y1="256.66495" x2="267.89253" y2="278" fill="none" stroke="#e9a460" stroke-width="3"/><line x1="273.18482" y1="259.4244" x2="273.18482" y2="278" fill="none" stroke="#e9a460" stroke-width="3"/><line x1="278.4771" y1="261.81921" x2="278.4771" y2="278" fill="none" stroke="#e9a460" stroke-width="3"/><line x1="283.76939" y1="263.93414" x2="283.76939" y2="278" fill="none" stroke="#e9a460" stroke-width="3"/><line x1="289.06167" y1="265.82673" x2="289.06167" y2="278" fill="none" stroke="#e9a460" stroke-width="3"/><line x1="294.35396" y1="267.52949" x2="294.35396" y2="278" fill="none" stroke="#e9a460" stroke-width="3"/><line x1="299.64624" y1="269.06995" x2="299.64624" y2="278" fill="none" stroke="#e9a460" stroke-width="3"/><line x1="304.93853" y1="270.46625" x2="304.93853" y2="278" fill="none" stroke="#e9a460" stroke-width="3"/><line x1="310.23081" y1="271.72745" x2="310.23081" y2="278" fill="none" stroke="#e9a460" stroke-width="3"/><line x1="315.5231" y1="272.86294" x2="315.5231" y2="278" fill="none" stroke="#e9a460" stroke-width="3"/><line x1="320.81539" y1="273.88116" x2="320.81539" y2="278" fill="none" stroke="#e9a460" stroke-width="3"/><line x1="326.10767" y1="274.77804" x2="326.10767" y2="278" fill="none" stroke="#e9a460" stroke-width="3"/><line x1="331.39996" y1="275.56015" x2="331.39996" y2="278" fill="none" stroke="#e9a460" stroke-width="3"/><line x1="336.69224" y1="276.22343" x2="336.69224" y2="278" fill="none" stroke="#e9a460" stroke-width="3"/><line x1="341.98453" y1="276.75881" x2="341.98453" y2="278" fill="none" stroke="#e9a460" stroke-width="3"/></svg>