<svg xmlns="http://www.w3.org/2000/svg" viewBox="0 0 390 305"><title>osc-1</title><rect x="0.25" y="0.25" width="389.5" height="304.5" rx="1.75" ry="1.75" fill="#202020"/><path d="M388,.5A1.50164,1.50164,0,0,1,389.5,2V303a1.50164,1.50164,0,0,1-1.5,1.5H2A1.50168,1.50168,0,0,1,.5,303V2A1.50168,1.50168,0,0,1,2,.5H388m0-.5H2A2.00006,2.00006,0,0,0,0,2V303a2.00006,2.00006,0,0,0,2,2H388a2,2,0,0,0,2-2V2a2,2,0,0,0-2-2Z" fill="#363636"/><rect x="7.375" y="7.875" width="220.25" height="90.25" fill="#0f0f0f"/><path d="M227.5,8V98H7.5V8h220m.25-.25H7.25v90.5h220.5V7.75Z" fill="#363636"/><rect x="232.375" y="7.875" width="150.25" height="90.25" fill="#0f0f0f"/><path d="M382.50012,8V98H232.5V8H382.50012m.25-.25H232.25v90.5H382.75012V7.75Z" fill="#363636"/><rect x="232.375" y="207.875" width="150.25" height="90.25" fill="#0f0f0f"/><path d="M382.50012,208v90H232.5V208H382.50012m.25-.25H232.25v90.5H382.75012v-90.5Z" fill="#363636"/><rect x="7.375" y="107.875" width="220.25" height="90.25" fill="#0f0f0f"/><path d="M227.5,108v90H7.5V108h220m.25-.25H7.25v90.5h220.5v-90.5Z" fill="#363636"/><rect x="7.375" y="207.875" width="220.25" height="90.25" fill="#0f0f0f"/><path d="M227.5,208v90H7.5V208h220m.25-.25H7.25v90.5h220.5v-90.5Z" fill="#363636"/><rect x="232.375" y="107.875" width="150.25" height="90.25" fill="#0f0f0f"/><path d="M382.50012,108v90H232.5V108H382.50012m.25-.25H232.25v90.5H382.75012v-90.5Z" fill="#363636"/><rect x="7.5" y="5.99958" width="220" height="12" fill="#363636"/><rect x="232.5" y="5.99958" width="150.00009" height="12" fill="#363636"/><rect x="7.5" y="105.99958" width="220" height="12" fill="#363636"/><rect x="232.5" y="105.99958" width="150.00009" height="12" fill="#363636"/><rect x="7.5" y="206.12292" width="220" height="11.85379" fill="#363636"/><rect x="232.5" y="206.26913" width="150.00009" height="11.85379" fill="#363636"/><line x1="47.5" y1="18" x2="47.5" y2="98" fill="none" stroke="#202020" stroke-width="0.5"/><line x1="37.5" y1="18" x2="37.5" y2="98" fill="none" stroke="#202020" stroke-width="0.5"/><line x1="57.5" y1="18" x2="57.5" y2="98" fill="none" stroke="#202020" stroke-width="0.5"/><line x1="67.5" y1="18" x2="67.5" y2="98" fill="none" stroke="#202020" stroke-width="0.5"/><line x1="77.5" y1="18" x2="77.5" y2="98" fill="none" stroke="#202020" stroke-width="0.5"/><line x1="87.5" y1="18" x2="87.5" y2="98" fill="none" stroke="#202020" stroke-width="0.5"/><line x1="97.5" y1="18" x2="97.5" y2="98" fill="none" stroke="#202020" stroke-width="0.5"/><line x1="107.5" y1="18" x2="107.5" y2="98" fill="none" stroke="#202020" stroke-width="0.5"/><line x1="117.5" y1="18" x2="117.5" y2="98" fill="none" stroke="#202020" stroke-width="0.5"/><line x1="127.5" y1="18" x2="127.5" y2="98" fill="none" stroke="#202020" stroke-width="0.5"/><line x1="137.5" y1="18" x2="137.5" y2="98" fill="none" stroke="#202020" stroke-width="0.5"/><line x1="147.5" y1="18" x2="147.5" y2="98" fill="none" stroke="#202020" stroke-width="0.5"/><line x1="157.5" y1="18" x2="157.5" y2="98" fill="none" stroke="#202020" stroke-width="0.5"/><line x1="167.5" y1="18" x2="167.5" y2="98" fill="none" stroke="#202020" stroke-width="0.5"/><line x1="177.5" y1="18" x2="177.5" y2="98" fill="none" stroke="#202020" stroke-width="0.5"/><line x1="187.5" y1="18" x2="187.5" y2="98" fill="none" stroke="#202020" stroke-width="0.5"/><line x1="197.5" y1="18" x2="197.5" y2="98" fill="none" stroke="#202020" stroke-width="0.5"/><line x1="207.5" y1="18" x2="207.5" y2="98" fill="none" stroke="#202020" stroke-width="0.5"/><line x1="217.5" y1="18" x2="217.5" y2="98" fill="none" stroke="#202020" stroke-width="0.5"/><line x1="7.49967" y1="88" x2="227.49988" y2="88" fill="none" stroke="#202020" stroke-width="0.5"/><line x1="7.49967" y1="78" x2="227.49988" y2="78" fill="none" stroke="#202020" stroke-width="0.5"/><line x1="7.49967" y1="68" x2="227.49988" y2="68" fill="none" stroke="#202020" stroke-width="0.5"/><line x1="7.49967" y1="58" x2="227.49988" y2="58" fill="none" stroke="#202020" stroke-width="0.5"/><line x1="7.49967" y1="48" x2="227.49988" y2="48" fill="none" stroke="#202020" stroke-width="0.5"/><line x1="7.49989" y1="38" x2="227.50009" y2="38" fill="none" stroke="#202020" stroke-width="0.5"/><line x1="7.49989" y1="28" x2="227.50009" y2="28" fill="none" stroke="#202020" stroke-width="0.5"/><line x1="27.5" y1="18" x2="27.5" y2="98" fill="none" stroke="#202020" stroke-width="0.5"/><line x1="17.5" y1="18" x2="17.5" y2="98" fill="none" stroke="#202020" stroke-width="0.5"/><line x1="272.5" y1="18" x2="272.5" y2="98" fill="none" stroke="#202020" stroke-width="0.5"/><line x1="262.5" y1="18" x2="262.5" y2="98" fill="none" stroke="#202020" stroke-width="0.5"/><line x1="282.5" y1="18" x2="282.5" y2="98" fill="none" stroke="#202020" stroke-width="0.5"/><line x1="292.5" y1="18" x2="292.5" y2="98" fill="none" stroke="#202020" stroke-width="0.5"/><line x1="302.50009" y1="18" x2="302.50009" y2="98" fill="none" stroke="#202020" stroke-width="0.5"/><line x1="312.5" y1="18" x2="312.5" y2="98" fill="none" stroke="#202020" stroke-width="0.5"/><line x1="322.5" y1="18" x2="322.5" y2="98" fill="none" stroke="#202020" stroke-width="0.5"/><line x1="332.5" y1="18" x2="332.5" y2="98" fill="none" stroke="#202020" stroke-width="0.5"/><line x1="342.5" y1="18" x2="342.5" y2="98" fill="none" stroke="#202020" stroke-width="0.5"/><line x1="352.5" y1="18" x2="352.5" y2="98" fill="none" stroke="#202020" stroke-width="0.5"/><line x1="362.5" y1="18" x2="362.5" y2="98" fill="none" stroke="#202020" stroke-width="0.5"/><line x1="372.5" y1="18" x2="372.5" y2="98" fill="none" stroke="#202020" stroke-width="0.5"/><line x1="232.5" y1="88.00003" x2="382.50028" y2="88.00003" fill="none" stroke="#202020" stroke-width="0.5"/><line x1="232.5" y1="78.00003" x2="382.50028" y2="78.00003" fill="none" stroke="#202020" stroke-width="0.5"/><line x1="232.5" y1="68.00003" x2="382.50028" y2="68.00003" fill="none" stroke="#202020" stroke-width="0.5"/><line x1="232.5" y1="58.00003" x2="382.50028" y2="58.00003" fill="none" stroke="#202020" stroke-width="0.5"/><line x1="232.5" y1="48.00003" x2="382.50028" y2="48.00003" fill="none" stroke="#202020" stroke-width="0.5"/><line x1="232.50015" y1="38.00003" x2="382.50043" y2="38.00003" fill="none" stroke="#202020" stroke-width="0.5"/><line x1="232.50015" y1="28.00003" x2="382.50043" y2="28.00003" fill="none" stroke="#202020" stroke-width="0.5"/><line x1="252.5" y1="18" x2="252.5" y2="98" fill="none" stroke="#202020" stroke-width="0.5"/><line x1="242.5" y1="18" x2="242.5" y2="98" fill="none" stroke="#202020" stroke-width="0.5"/><line x1="272.5" y1="218" x2="272.5" y2="298" fill="none" stroke="#202020" stroke-width="0.5"/><line x1="262.5" y1="218" x2="262.5" y2="298" fill="none" stroke="#202020" stroke-width="0.5"/><line x1="282.5" y1="218" x2="282.5" y2="298" fill="none" stroke="#202020" stroke-width="0.5"/><line x1="292.5" y1="218" x2="292.5" y2="298" fill="none" stroke="#202020" stroke-width="0.5"/><line x1="302.50009" y1="218" x2="302.50009" y2="298" fill="none" stroke="#202020" stroke-width="0.5"/><line x1="312.5" y1="218" x2="312.5" y2="298" fill="none" stroke="#202020" stroke-width="0.5"/><line x1="322.5" y1="218" x2="322.5" y2="298" fill="none" stroke="#202020" stroke-width="0.5"/><line x1="332.5" y1="218" x2="332.5" y2="298" fill="none" stroke="#202020" stroke-width="0.5"/><line x1="342.5" y1="218" x2="342.5" y2="298" fill="none" stroke="#202020" stroke-width="0.5"/><line x1="352.5" y1="218" x2="352.5" y2="298" fill="none" stroke="#202020" stroke-width="0.5"/><line x1="362.5" y1="218" x2="362.5" y2="298" fill="none" stroke="#202020" stroke-width="0.5"/><line x1="372.5" y1="218" x2="372.5" y2="298" fill="none" stroke="#202020" stroke-width="0.5"/><line x1="232.5" y1="288.00003" x2="382.50028" y2="288.00003" fill="none" stroke="#202020" stroke-width="0.5"/><line x1="232.5" y1="278.00003" x2="382.50028" y2="278.00003" fill="none" stroke="#202020" stroke-width="0.5"/><line x1="232.5" y1="268.00003" x2="382.50028" y2="268.00003" fill="none" stroke="#202020" stroke-width="0.5"/><line x1="232.5" y1="258.00003" x2="382.50028" y2="258.00003" fill="none" stroke="#202020" stroke-width="0.5"/><line x1="232.5" y1="248.00003" x2="382.50028" y2="248.00003" fill="none" stroke="#202020" stroke-width="0.5"/><line x1="232.50015" y1="238.00003" x2="382.50043" y2="238.00003" fill="none" stroke="#202020" stroke-width="0.5"/><line x1="232.50015" y1="228.00003" x2="382.50043" y2="228.00003" fill="none" stroke="#202020" stroke-width="0.5"/><line x1="252.5" y1="218" x2="252.5" y2="298" fill="none" stroke="#202020" stroke-width="0.5"/><line x1="242.5" y1="218" x2="242.5" y2="298" fill="none" stroke="#202020" stroke-width="0.5"/><line x1="47.5" y1="118" x2="47.5" y2="198" fill="none" stroke="#202020" stroke-width="0.5"/><line x1="37.5" y1="118" x2="37.5" y2="198" fill="none" stroke="#202020" stroke-width="0.5"/><line x1="57.5" y1="118" x2="57.5" y2="198" fill="none" stroke="#202020" stroke-width="0.5"/><line x1="67.5" y1="118" x2="67.5" y2="198" fill="none" stroke="#202020" stroke-width="0.5"/><line x1="77.5" y1="118" x2="77.5" y2="198" fill="none" stroke="#202020" stroke-width="0.5"/><line x1="87.5" y1="118" x2="87.5" y2="198" fill="none" stroke="#202020" stroke-width="0.5"/><line x1="97.5" y1="118" x2="97.5" y2="198" fill="none" stroke="#202020" stroke-width="0.5"/><line x1="107.5" y1="118" x2="107.5" y2="198" fill="none" stroke="#202020" stroke-width="0.5"/><line x1="117.5" y1="118" x2="117.5" y2="198" fill="none" stroke="#202020" stroke-width="0.5"/><line x1="127.5" y1="118" x2="127.5" y2="198" fill="none" stroke="#202020" stroke-width="0.5"/><line x1="137.5" y1="118" x2="137.5" y2="198" fill="none" stroke="#202020" stroke-width="0.5"/><line x1="147.5" y1="118" x2="147.5" y2="198" fill="none" stroke="#202020" stroke-width="0.5"/><line x1="157.5" y1="118" x2="157.5" y2="198" fill="none" stroke="#202020" stroke-width="0.5"/><line x1="167.5" y1="118" x2="167.5" y2="198" fill="none" stroke="#202020" stroke-width="0.5"/><line x1="177.5" y1="118" x2="177.5" y2="198" fill="none" stroke="#202020" stroke-width="0.5"/><line x1="187.5" y1="118" x2="187.5" y2="198" fill="none" stroke="#202020" stroke-width="0.5"/><line x1="197.5" y1="118" x2="197.5" y2="198" fill="none" stroke="#202020" stroke-width="0.5"/><line x1="207.5" y1="118" x2="207.5" y2="198" fill="none" stroke="#202020" stroke-width="0.5"/><line x1="217.5" y1="118" x2="217.5" y2="198" fill="none" stroke="#202020" stroke-width="0.5"/><line x1="7.49967" y1="188" x2="227.49988" y2="188" fill="none" stroke="#202020" stroke-width="0.5"/><line x1="7.49967" y1="178" x2="227.49988" y2="178" fill="none" stroke="#202020" stroke-width="0.5"/><line x1="7.49967" y1="168" x2="227.49988" y2="168" fill="none" stroke="#202020" stroke-width="0.5"/><line x1="7.49967" y1="158" x2="227.49988" y2="158" fill="none" stroke="#202020" stroke-width="0.5"/><line x1="7.49967" y1="148" x2="227.49988" y2="148" fill="none" stroke="#202020" stroke-width="0.5"/><line x1="7.49989" y1="138" x2="227.50009" y2="138" fill="none" stroke="#202020" stroke-width="0.5"/><line x1="7.49989" y1="128" x2="227.50009" y2="128" fill="none" stroke="#202020" stroke-width="0.5"/><line x1="27.5" y1="118" x2="27.5" y2="198" fill="none" stroke="#202020" stroke-width="0.5"/><line x1="17.5" y1="118" x2="17.5" y2="198" fill="none" stroke="#202020" stroke-width="0.5"/><line x1="47.5" y1="218" x2="47.5" y2="298" fill="none" stroke="#202020" stroke-width="0.5"/><line x1="37.5" y1="218" x2="37.5" y2="298" fill="none" stroke="#202020" stroke-width="0.5"/><line x1="57.5" y1="218" x2="57.5" y2="298" fill="none" stroke="#202020" stroke-width="0.5"/><line x1="67.5" y1="218" x2="67.5" y2="298" fill="none" stroke="#202020" stroke-width="0.5"/><line x1="77.5" y1="218" x2="77.5" y2="298" fill="none" stroke="#202020" stroke-width="0.5"/><line x1="87.5" y1="218" x2="87.5" y2="298" fill="none" stroke="#202020" stroke-width="0.5"/><line x1="97.5" y1="218" x2="97.5" y2="298" fill="none" stroke="#202020" stroke-width="0.5"/><line x1="107.5" y1="218" x2="107.5" y2="298" fill="none" stroke="#202020" stroke-width="0.5"/><line x1="117.5" y1="218" x2="117.5" y2="298" fill="none" stroke="#202020" stroke-width="0.5"/><line x1="127.5" y1="218" x2="127.5" y2="298" fill="none" stroke="#202020" stroke-width="0.5"/><line x1="137.5" y1="218" x2="137.5" y2="298" fill="none" stroke="#202020" stroke-width="0.5"/><line x1="147.5" y1="218" x2="147.5" y2="298" fill="none" stroke="#202020" stroke-width="0.5"/><line x1="157.5" y1="218" x2="157.5" y2="298" fill="none" stroke="#202020" stroke-width="0.5"/><line x1="167.5" y1="218" x2="167.5" y2="298" fill="none" stroke="#202020" stroke-width="0.5"/><line x1="177.5" y1="218" x2="177.5" y2="298" fill="none" stroke="#202020" stroke-width="0.5"/><line x1="187.5" y1="218" x2="187.5" y2="298" fill="none" stroke="#202020" stroke-width="0.5"/><line x1="197.5" y1="218" x2="197.5" y2="298" fill="none" stroke="#202020" stroke-width="0.5"/><line x1="207.5" y1="218" x2="207.5" y2="298" fill="none" stroke="#202020" stroke-width="0.5"/><line x1="217.5" y1="218" x2="217.5" y2="298" fill="none" stroke="#202020" stroke-width="0.5"/><line x1="7.49967" y1="288" x2="227.49988" y2="288" fill="none" stroke="#202020" stroke-width="0.5"/><line x1="7.49967" y1="278" x2="227.49988" y2="278" fill="none" stroke="#202020" stroke-width="0.5"/><line x1="7.49967" y1="268" x2="227.49988" y2="268" fill="none" stroke="#202020" stroke-width="0.5"/><line x1="7.49967" y1="258" x2="227.49988" y2="258" fill="none" stroke="#202020" stroke-width="0.5"/><line x1="7.49967" y1="248" x2="227.49988" y2="248" fill="none" stroke="#202020" stroke-width="0.5"/><line x1="7.49989" y1="238" x2="227.50009" y2="238" fill="none" stroke="#202020" stroke-width="0.5"/><line x1="7.49989" y1="228" x2="227.50009" y2="228" fill="none" stroke="#202020" stroke-width="0.5"/><line x1="27.5" y1="218" x2="27.5" y2="298" fill="none" stroke="#202020" stroke-width="0.5"/><line x1="17.5" y1="218" x2="17.5" y2="298" fill="none" stroke="#202020" stroke-width="0.5"/><line x1="272.5" y1="118" x2="272.5" y2="198" fill="none" stroke="#202020" stroke-width="0.5"/><line x1="262.5" y1="118" x2="262.5" y2="198" fill="none" stroke="#202020" stroke-width="0.5"/><line x1="282.5" y1="118" x2="282.5" y2="198" fill="none" stroke="#202020" stroke-width="0.5"/><line x1="292.5" y1="118" x2="292.5" y2="198" fill="none" stroke="#202020" stroke-width="0.5"/><line x1="302.50009" y1="118" x2="302.50009" y2="198" fill="none" stroke="#202020" stroke-width="0.5"/><line x1="312.5" y1="118" x2="312.5" y2="198" fill="none" stroke="#202020" stroke-width="0.5"/><line x1="322.5" y1="118" x2="322.5" y2="198" fill="none" stroke="#202020" stroke-width="0.5"/><line x1="332.5" y1="118" x2="332.5" y2="198" fill="none" stroke="#202020" stroke-width="0.5"/><line x1="342.5" y1="118" x2="342.5" y2="198" fill="none" stroke="#202020" stroke-width="0.5"/><line x1="352.5" y1="118" x2="352.5" y2="198" fill="none" stroke="#202020" stroke-width="0.5"/><line x1="362.5" y1="118" x2="362.5" y2="198" fill="none" stroke="#202020" stroke-width="0.5"/><line x1="372.5" y1="118" x2="372.5" y2="198" fill="none" stroke="#202020" stroke-width="0.5"/><line x1="232.5" y1="188.00003" x2="382.50028" y2="188.00003" fill="none" stroke="#202020" stroke-width="0.5"/><line x1="232.5" y1="178.00003" x2="382.50028" y2="178.00003" fill="none" stroke="#202020" stroke-width="0.5"/><line x1="232.5" y1="168.00003" x2="382.50028" y2="168.00003" fill="none" stroke="#202020" stroke-width="0.5"/><line x1="232.5" y1="158.00003" x2="382.50028" y2="158.00003" fill="none" stroke="#202020" stroke-width="0.5"/><line x1="232.5" y1="148.00003" x2="382.50028" y2="148.00003" fill="none" stroke="#202020" stroke-width="0.5"/><line x1="232.50015" y1="138.00003" x2="382.50043" y2="138.00003" fill="none" stroke="#202020" stroke-width="0.5"/><line x1="232.50015" y1="128.00003" x2="382.50043" y2="128.00003" fill="none" stroke="#202020" stroke-width="0.5"/><line x1="252.5" y1="118" x2="252.5" y2="198" fill="none" stroke="#202020" stroke-width="0.5"/><line x1="242.5" y1="118" x2="242.5" y2="198" fill="none" stroke="#202020" stroke-width="0.5"/><path d="M110.53418,9.16016a1.93791,1.93791,0,0,1,1.43164.64648l-.376.42383a1.4059,1.4059,0,0,0-1.04785-.48731c-.999,0-1.66308.81543-1.66308,2.11817,0,1.32031.63183,2.15137,1.63183,2.15137a1.53283,1.53283,0,0,0,1.19922-.583l.376.40722a2.01075,2.01075,0,0,1-1.5918.75879c-1.31934,0-2.30273-1.00683-2.30273-2.71777A2.41369,2.41369,0,0,1,110.53418,9.16016Z" fill="#cacaca"/><path d="M112.84766,10.61523h.66406v2.374c0,.72754.21582,1.04.72754,1.04.39941,0,.67969-.20118,1.04687-.65625V10.61523h.65625V14.5h-.54394l-.05567-.60742h-.02441a1.64052,1.64052,0,0,1-1.2793.70312c-.82324,0-1.1914-.52734-1.1914-1.51855Z" fill="#cacaca"/><path d="M117.25488,10.61523h.54395l.05566.70313h.02442a1.32873,1.32873,0,0,1,1.10351-.79981.97071.97071,0,0,1,.416.08008l-.12793.5752a1.11,1.11,0,0,0-.376-.06348c-.32812,0-.71973.23926-.9834.89551V14.5h-.65625Z" fill="#cacaca"/><path d="M119.62305,10.61523h.67968l.73536,2.20606c.1123.38379.24023.77637.36035,1.14355h.03222c.11133-.36718.23926-.75976.35157-1.14355l.73535-2.20606h.64746L121.79,14.5h-.76758Z" fill="#cacaca"/><path d="M125.3418,10.51855c.99218,0,1.55175.71192,1.55175,1.82325a2.23268,2.23268,0,0,1-.02441.35937h-2.62207a1.293,1.293,0,0,0,1.29492,1.36719,1.75811,1.75811,0,0,0,.96778-.30274l.23144.43165a2.32068,2.32068,0,0,1-1.2793.39843,1.85723,1.85723,0,0,1-1.8623-2.03027A1.87441,1.87441,0,0,1,125.3418,10.51855Zm.97558,1.751c0-.791-.35156-1.23047-.959-1.23047a1.211,1.211,0,0,0-1.11914,1.23047Z" fill="#cacaca"/><path d="M107.95117,30.62793c.43945,0,.71973-.35254.87988-.831l.0879-.28907-1.55957-3.89258h.67968l.792,2.15039c.12012.33594.25586.73536.376,1.09571h.03125c.11231-.35156.22461-.75195.32813-1.09571l.69531-2.15039h.63965l-1.46289,4.20508c-.27149.76758-.67188,1.35157-1.45508,1.35157a1.29529,1.29529,0,0,1-.45606-.08008l.12793-.51953A1.1701,1.1701,0,0,0,107.95117,30.62793Z" fill="#cacaca"/><path d="M239.459,26.51855a1.59967,1.59967,0,0,1,1.0879.44825l-.03223-.66407V24.80762h.66406V30.5h-.54394l-.05567-.45508h-.02441a1.75626,1.75626,0,0,1-1.17578.55078c-.97461,0-1.60645-.73437-1.60645-2.03027A1.84055,1.84055,0,0,1,239.459,26.51855Zm.06446,3.52637a1.31523,1.31523,0,0,0,.99121-.53515V27.47852a1.34959,1.34959,0,0,0-.94336-.40821c-.624,0-1.11914.59961-1.11914,1.48731C238.45215,29.48438,238.84375,30.04492,239.52344,30.04492Z" fill="#cacaca"/><path d="M242.53125,25.25586h1.55957c1.06348,0,1.80664.35937,1.80664,1.2793a1.13911,1.13911,0,0,1-.91894,1.14257V27.71c.76757.12012,1.21484.53613,1.21484,1.25488,0,1.03125-.81543,1.53516-1.98242,1.53516h-1.67969Zm1.44727,2.23828c.88769,0,1.26367-.32031,1.26367-.90332,0-.56738-.42383-.80762-1.23145-.80762h-.80762v1.71094Zm.13574,2.47852c.89551,0,1.42383-.32813,1.42383-1.03907,0-.64843-.50391-.94336-1.42383-.94336h-.91114v1.98243Z" fill="#cacaca"/><path d="M213.57324,65.80273l-1.1748-1.85546h.71191l.51953.85546c.12012.209.248.43165.38379.64844h.03223c.11133-.21679.23144-.43945.35156-.64844l.47168-.85546h.6875L214.38086,65.875l1.26367,1.959h-.71191l-.56739-.90429c-.13574-.23145-.28027-.47071-.42382-.69531h-.03223c-.13574.2246-.26367.45507-.3916.69531l-.52735.90429h-.6875Z" fill="#cacaca"/><path d="M284.80078,11.85352c0-1.67872.92774-2.69336,2.24707-2.69336,1.31153,0,2.23828,1.02343,2.23828,2.69336,0,1.6875-.92675,2.74218-2.23828,2.74218C285.72852,14.5957,284.80078,13.541,284.80078,11.85352Zm3.79785,0c0-1.30274-.61523-2.11036-1.55078-2.11036-.94336,0-1.55957.80762-1.55957,2.11036,0,1.31152.61621,2.15918,1.55957,2.15918C287.9834,14.0127,288.59863,13.165,288.59863,11.85352Z" fill="#cacaca"/><path d="M290.28027,10.61523h.66407v2.374c0,.72754.21582,1.04.72754,1.04.39941,0,.67968-.20118,1.04687-.65625V10.61523h.65625V14.5h-.54395l-.05566-.60742H292.751a1.64054,1.64054,0,0,1-1.2793.70312c-.82324,0-1.19141-.52734-1.19141-1.51855Z" fill="#cacaca"/><path d="M294.80078,11.15039h-.57519V10.6543l.60742-.03907.08008-1.08789h.55175v1.08789h1.04688v.53516h-1.04688v2.1582c0,.48047.15137.752.59961.752a1.41381,1.41381,0,0,0,.43946-.10352l.12793.49609a2.4168,2.4168,0,0,1-.71973.14258c-.83106,0-1.11133-.52734-1.11133-1.29492Z" fill="#cacaca"/><path d="M298.04883,14.82812v1.31153h-.65625V10.61523h.54394l.05567.44727h.02441a2.00933,2.00933,0,0,1,1.23926-.544c.999,0,1.53516.77637,1.53516,1.9834,0,1.31836-.792,2.09375-1.67872,2.09375a1.79985,1.79985,0,0,1-1.08007-.44726ZM299,14.04492c.63965,0,1.11133-.584,1.11133-1.543,0-.85547-.28809-1.43164-1.02344-1.43164a1.63518,1.63518,0,0,0-1.03906.52735v2.03906A1.53729,1.53729,0,0,0,299,14.04492Z" fill="#cacaca"/><path d="M301.77637,10.61523h.66406v2.374c0,.72754.21582,1.04.72754,1.04.39941,0,.67969-.20118,1.04687-.65625V10.61523h.65625V14.5h-.54394l-.05567-.60742h-.02441a1.64051,1.64051,0,0,1-1.2793.70312c-.82324,0-1.1914-.52734-1.1914-1.51855Z" fill="#cacaca"/><path d="M306.29688,11.15039h-.5752V10.6543l.60742-.03907.08008-1.08789h.55176v1.08789h1.04687v.53516h-1.04687v2.1582c0,.48047.15136.752.59961.752A1.41382,1.41382,0,0,0,308,13.957l.12793.49609a2.41674,2.41674,0,0,1-.71973.14258c-.83105,0-1.11132-.52734-1.11132-1.29492Z" fill="#cacaca"/><path d="M310.56836,13.35742a2.04052,2.04052,0,0,0,1.44726.65528c.6875,0,1.09473-.34375,1.09473-.85547,0-.53614-.38281-.70411-.8789-.92676l-.752-.32813a1.48613,1.48613,0,0,1-1.06347-1.35156,1.49727,1.49727,0,0,1,1.65527-1.39062,2.14426,2.14426,0,0,1,1.543.64648l-.35156.43164a1.69056,1.69056,0,0,0-1.19141-.49512c-.5918,0-.9834.2959-.9834.76758,0,.50293.46387.69629.87207.87207l.751.31934a1.46039,1.46039,0,0,1,1.0791,1.39941,1.591,1.591,0,0,1-1.791,1.49414,2.51851,2.51851,0,0,1-1.83007-.77539Z" fill="#cacaca"/><path d="M314.61719,9.39062a.45675.45675,0,0,1,.91113,0,.45675.45675,0,0,1-.91113,0Zm.11914,1.22461h.65625V14.5h-.65625Z" fill="#cacaca"/><path d="M316.97656,14.36523V14.332a.714.714,0,0,1-.34375-.63086.909.909,0,0,1,.42383-.71972v-.03223a1.37146,1.37146,0,0,1,.959-2.43067,1.53481,1.53481,0,0,1,.55176.09668H319.919v.50293h-.79981a1.12934,1.12934,0,0,1,.31934.79981,1.33294,1.33294,0,0,1-1.42286,1.35156,1.3652,1.3652,0,0,1-.584-.13672.59107.59107,0,0,0-.24707.46485c0,.24707.15918.42382.6875.42382h.751c.90429,0,1.35937.2793,1.35937.92676,0,.71973-.75976,1.34278-1.9668,1.34278-.95117,0-1.60742-.375-1.60742-1.04688A1.11864,1.11864,0,0,1,316.97656,14.36523Zm1.13477,1.47071c.74414,0,1.23144-.38379,1.23144-.791,0-.36035-.27929-.48047-.7832-.48047h-.67187a1.86347,1.86347,0,0,1-.50391-.06445.81983.81983,0,0,0-.39941.65625C316.98438,15.57227,317.4082,15.83594,318.11133,15.83594Zm.72754-3.9336a.82688.82688,0,1,0-1.64649,0,.82913.82913,0,1,0,1.64649,0Z" fill="#cacaca"/><path d="M320.73633,10.61523h.54394l.05567.5586h.02441a1.83435,1.83435,0,0,1,1.30371-.65528c.81543,0,1.18262.52833,1.18262,1.51856V14.5h-.65527V12.126c0-.72754-.22364-1.04-.73536-1.04-.40039,0-.67187.209-1.06347.59961V14.5h-.65625Z" fill="#cacaca"/><path d="M327.31152,12.03711c0-.49512-.168-.97461-.7998-.97461a2.08,2.08,0,0,0-1.15918.416l-.26367-.45606a2.88615,2.88615,0,0,1,1.52734-.50391c.95117,0,1.35059.63184,1.35059,1.59864V14.5h-.543l-.05664-.46289h-.01563a2.11707,2.11707,0,0,1-1.28711.55859,1.059,1.059,0,0,1-1.14355-1.10254C324.9209,12.64551,325.65625,12.22168,327.31152,12.03711Zm-1.06347,2.03125a1.59106,1.59106,0,0,0,1.06347-.51953v-1.0791c-1.30371.15918-1.74316.47949-1.74316.97558A.59518.59518,0,0,0,326.24805,14.06836Z" fill="#cacaca"/><path d="M329.208,8.80762h.65625v4.958c0,.207.08789.28711.18359.28711a.55805.55805,0,0,0,.14356-.01562l.08886.49609a.90517.90517,0,0,1-.376.0625c-.4961,0-.69629-.31054-.69629-.8789Z" fill="#cacaca"/><path d="M368.63574,83.42773h.75586v2.47559h2.7461V83.42773h.74707V89.334h-.74707V86.55176h-2.7461V89.334h-.75586Z" fill="#cacaca"/><path d="M373.95508,88.9375l2.30469-3.376H374.207V84.958h2.98926v.39648l-2.30469,3.376h2.376V89.334h-3.3125Z" fill="#cacaca"/><path d="M110.53418,109.16016a1.93791,1.93791,0,0,1,1.43164.64648l-.376.42383a1.4059,1.4059,0,0,0-1.04785-.48731c-.999,0-1.66308.81543-1.66308,2.11817,0,1.32031.63183,2.15137,1.63183,2.15137a1.53283,1.53283,0,0,0,1.19922-.583l.376.40722a2.01075,2.01075,0,0,1-1.5918.75879c-1.31934,0-2.30273-1.00683-2.30273-2.71777A2.41369,2.41369,0,0,1,110.53418,109.16016Z" fill="#cacaca"/><path d="M112.84766,110.61523h.66406v2.374c0,.72754.21582,1.04.72754,1.04.39941,0,.67969-.20118,1.04687-.65625v-2.75782h.65625V114.5h-.54394l-.05567-.60742h-.02441a1.64052,1.64052,0,0,1-1.2793.70312c-.82324,0-1.1914-.52734-1.1914-1.51855Z" fill="#cacaca"/><path d="M117.25488,110.61523h.54395l.05566.70313h.02442a1.32873,1.32873,0,0,1,1.10351-.79981.97071.97071,0,0,1,.416.08008l-.12793.5752a1.11,1.11,0,0,0-.376-.06348c-.32812,0-.71973.23926-.9834.89551V114.5h-.65625Z" fill="#cacaca"/><path d="M119.62305,110.61523h.67968l.73536,2.20606c.1123.38379.24023.77637.36035,1.14355h.03222c.11133-.36718.23926-.75976.35157-1.14355l.73535-2.20606h.64746L121.79,114.5h-.76758Z" fill="#cacaca"/><path d="M125.3418,110.51855c.99218,0,1.55175.71192,1.55175,1.82325a2.23268,2.23268,0,0,1-.02441.35937h-2.62207a1.293,1.293,0,0,0,1.29492,1.36719,1.75811,1.75811,0,0,0,.96778-.30274l.23144.43165a2.32068,2.32068,0,0,1-1.2793.39843,2.05508,2.05508,0,0,1-.12011-4.07715Zm.97558,1.751c0-.791-.35156-1.23047-.959-1.23047a1.211,1.211,0,0,0-1.11914,1.23047Z" fill="#cacaca"/><path d="M107.95117,130.62793c.43945,0,.71973-.35254.87988-.83105l.0879-.28907-1.55957-3.89258h.67968l.792,2.15039c.12012.33594.25586.73536.376,1.09571h.03125c.11231-.35156.22461-.752.32813-1.09571l.69531-2.15039h.63965l-1.46289,4.20508c-.27149.76758-.67188,1.35157-1.45508,1.35157a1.29529,1.29529,0,0,1-.45606-.08008l.12793-.51953A1.1701,1.1701,0,0,0,107.95117,130.62793Z" fill="#cacaca"/><path d="M239.459,126.51855a1.59967,1.59967,0,0,1,1.0879.44825l-.03223-.66407v-1.49511h.66406V130.5h-.54394l-.05567-.45508h-.02441a1.75626,1.75626,0,0,1-1.17578.55078c-.97461,0-1.60645-.73437-1.60645-2.03027A1.84055,1.84055,0,0,1,239.459,126.51855Zm.06446,3.52637a1.31523,1.31523,0,0,0,.99121-.53515v-2.03125a1.34959,1.34959,0,0,0-.94336-.40821c-.624,0-1.11914.59961-1.11914,1.48731C238.45215,129.48438,238.84375,130.04492,239.52344,130.04492Z" fill="#cacaca"/><path d="M242.53125,125.25586h1.55957c1.06348,0,1.80664.35937,1.80664,1.2793a1.13911,1.13911,0,0,1-.91894,1.14257V127.71c.76757.12012,1.21484.53613,1.21484,1.25488,0,1.03125-.81543,1.53516-1.98242,1.53516h-1.67969Zm1.44727,2.23828c.88769,0,1.26367-.32031,1.26367-.90332,0-.56738-.42383-.80762-1.23145-.80762h-.80762v1.71094Zm.13574,2.47852c.89551,0,1.42383-.32813,1.42383-1.03907,0-.64843-.50391-.94336-1.42383-.94336h-.91114v1.98243Z" fill="#cacaca"/><path d="M213.52539,167.04688l-1.32324-2.08887h.80078l.585.96387c.13574.23437.2793.48632.43262.72851h.03613c.126-.24219.26074-.49414.39551-.72851l.53125-.96387h.77441l-1.32324,2.16992,1.42188,2.20605h-.80079l-.63867-1.01757c-.15332-.26172-.31543-.53125-.47754-.78321h-.03613c-.15332.252-.29687.5127-.44141.78321l-.59375,1.01757h-.77441Z" fill="#cacaca"/><path d="M284.80078,111.85352c0-1.67872.92774-2.69336,2.24707-2.69336,1.31153,0,2.23828,1.02343,2.23828,2.69336,0,1.6875-.92675,2.74218-2.23828,2.74218C285.72852,114.5957,284.80078,113.541,284.80078,111.85352Zm3.79785,0c0-1.30274-.61523-2.11036-1.55078-2.11036-.94336,0-1.55957.80762-1.55957,2.11036,0,1.31152.61621,2.15918,1.55957,2.15918C287.9834,114.0127,288.59863,113.165,288.59863,111.85352Z" fill="#cacaca"/><path d="M290.28027,110.61523h.66407v2.374c0,.72754.21582,1.04.72754,1.04.39941,0,.67968-.20118,1.04687-.65625v-2.75782h.65625V114.5h-.54395l-.05566-.60742H292.751a1.64054,1.64054,0,0,1-1.2793.70312c-.82324,0-1.19141-.52734-1.19141-1.51855Z" fill="#cacaca"/><path d="M294.80078,111.15039h-.57519v-.49609l.60742-.03907.08008-1.08789h.55175v1.08789h1.04688v.53516h-1.04688v2.1582c0,.48047.15137.752.59961.752a1.41381,1.41381,0,0,0,.43946-.10352l.12793.49609a2.4168,2.4168,0,0,1-.71973.14258c-.83106,0-1.11133-.52734-1.11133-1.29492Z" fill="#cacaca"/><path d="M298.04883,114.82812v1.31153h-.65625v-5.52442h.54394l.05567.44727h.02441a2.00933,2.00933,0,0,1,1.23926-.54395c.999,0,1.53516.77637,1.53516,1.9834,0,1.31836-.792,2.09375-1.67872,2.09375a1.79985,1.79985,0,0,1-1.08007-.44726Zm.95117-.7832c.63965,0,1.11133-.584,1.11133-1.543,0-.85547-.28809-1.43164-1.02344-1.43164a1.63518,1.63518,0,0,0-1.03906.52735v2.03906A1.53729,1.53729,0,0,0,299,114.04492Z" fill="#cacaca"/><path d="M301.77637,110.61523h.66406v2.374c0,.72754.21582,1.04.72754,1.04.39941,0,.67969-.20118,1.04687-.65625v-2.75782h.65625V114.5h-.54394l-.05567-.60742h-.02441a1.64051,1.64051,0,0,1-1.2793.70312c-.82324,0-1.1914-.52734-1.1914-1.51855Z" fill="#cacaca"/><path d="M306.29688,111.15039h-.5752v-.49609l.60742-.03907.08008-1.08789h.55176v1.08789h1.04687v.53516h-1.04687v2.1582c0,.48047.15136.752.59961.752A1.41382,1.41382,0,0,0,308,113.957l.12793.49609a2.41674,2.41674,0,0,1-.71973.14258c-.83105,0-1.11132-.52734-1.11132-1.29492Z" fill="#cacaca"/><path d="M310.56836,113.35742a2.04052,2.04052,0,0,0,1.44726.65528c.6875,0,1.09473-.34375,1.09473-.85547,0-.53614-.38281-.70411-.8789-.92676l-.752-.32813a1.40338,1.40338,0,0,1,.5918-2.74218,2.14426,2.14426,0,0,1,1.543.64648l-.35156.43164a1.69056,1.69056,0,0,0-1.19141-.49512c-.5918,0-.9834.2959-.9834.76758,0,.50293.46387.69629.87207.87207l.751.31934a1.46039,1.46039,0,0,1,1.0791,1.39941,1.591,1.591,0,0,1-1.791,1.49414,2.51851,2.51851,0,0,1-1.83007-.77539Z" fill="#cacaca"/><path d="M314.61719,109.39062a.45675.45675,0,0,1,.91113,0,.45675.45675,0,0,1-.91113,0Zm.11914,1.22461h.65625V114.5h-.65625Z" fill="#cacaca"/><path d="M316.97656,114.36523v-.0332a.714.714,0,0,1-.34375-.63086.909.909,0,0,1,.42383-.71972v-.03223a1.37146,1.37146,0,0,1,.959-2.43067,1.53481,1.53481,0,0,1,.55176.09668H319.919v.50293h-.79981a1.12934,1.12934,0,0,1,.31934.79981,1.33294,1.33294,0,0,1-1.42286,1.35156,1.3652,1.3652,0,0,1-.584-.13672.59107.59107,0,0,0-.24707.46485c0,.24707.15918.42382.6875.42382h.751c.90429,0,1.35937.2793,1.35937.92676,0,.71973-.75976,1.34278-1.9668,1.34278-.95117,0-1.60742-.375-1.60742-1.04688A1.11864,1.11864,0,0,1,316.97656,114.36523Zm1.13477,1.47071c.74414,0,1.23144-.38379,1.23144-.791,0-.36035-.27929-.48047-.7832-.48047h-.67187a1.86347,1.86347,0,0,1-.50391-.06445.81983.81983,0,0,0-.39941.65625C316.98438,115.57227,317.4082,115.83594,318.11133,115.83594Zm.72754-3.9336a.82688.82688,0,1,0-1.64649,0,.82913.82913,0,1,0,1.64649,0Z" fill="#cacaca"/><path d="M320.73633,110.61523h.54394l.05567.5586h.02441a1.83435,1.83435,0,0,1,1.30371-.65528c.81543,0,1.18262.52833,1.18262,1.51856V114.5h-.65527v-2.374c0-.72754-.22364-1.04-.73536-1.04-.40039,0-.67187.209-1.06347.59961V114.5h-.65625Z" fill="#cacaca"/><path d="M327.31152,112.03711c0-.49512-.168-.97461-.7998-.97461a2.08,2.08,0,0,0-1.15918.416l-.26367-.45606a2.88615,2.88615,0,0,1,1.52734-.50391c.95117,0,1.35059.63184,1.35059,1.59864V114.5h-.543l-.05664-.46289h-.01563a2.11707,2.11707,0,0,1-1.28711.55859,1.059,1.059,0,0,1-1.14355-1.10254C324.9209,112.64551,325.65625,112.22168,327.31152,112.03711Zm-1.06347,2.03125a1.59106,1.59106,0,0,0,1.06347-.51953v-1.0791c-1.30371.15918-1.74316.47949-1.74316.97558A.59518.59518,0,0,0,326.24805,114.06836Z" fill="#cacaca"/><path d="M329.208,108.80762h.65625v4.958c0,.207.08789.28711.18359.28711a.55805.55805,0,0,0,.14356-.01562l.08886.49609a.90517.90517,0,0,1-.376.0625c-.4961,0-.69629-.31054-.69629-.8789Z" fill="#cacaca"/><path d="M369.084,184.08789h.67188v2.19922h2.43848v-2.19922h.66406V189.334h-.66406v-2.4707h-2.43848v2.4707H369.084Z" fill="#cacaca"/><path d="M373.8125,188.98242l2.04688-2.999h-1.82325v-.53613h2.6543v.35156l-2.04688,2.999h2.11133v.53613H373.8125Z" fill="#cacaca"/><path d="M110.53418,209.16016a1.93791,1.93791,0,0,1,1.43164.64648l-.376.42383a1.4059,1.4059,0,0,0-1.04785-.48731c-.999,0-1.66308.81543-1.66308,2.11817,0,1.32031.63183,2.15137,1.63183,2.15137a1.53283,1.53283,0,0,0,1.19922-.583l.376.40722a2.01075,2.01075,0,0,1-1.5918.75879c-1.31934,0-2.30273-1.00683-2.30273-2.71777A2.41369,2.41369,0,0,1,110.53418,209.16016Z" fill="#cacaca"/><path d="M112.84766,210.61523h.66406v2.374c0,.72754.21582,1.04.72754,1.04.39941,0,.67969-.20118,1.04687-.65625v-2.75782h.65625V214.5h-.54394l-.05567-.60742h-.02441a1.64052,1.64052,0,0,1-1.2793.70312c-.82324,0-1.1914-.52734-1.1914-1.51855Z" fill="#cacaca"/><path d="M117.25488,210.61523h.54395l.05566.70313h.02442a1.32873,1.32873,0,0,1,1.10351-.79981.97071.97071,0,0,1,.416.08008l-.12793.5752a1.11,1.11,0,0,0-.376-.06348c-.32812,0-.71973.23926-.9834.89551V214.5h-.65625Z" fill="#cacaca"/><path d="M119.62305,210.61523h.67968l.73536,2.20606c.1123.38379.24023.77637.36035,1.14355h.03222c.11133-.36718.23926-.75976.35157-1.14355l.73535-2.20606h.64746L121.79,214.5h-.76758Z" fill="#cacaca"/><path d="M125.3418,210.51855c.99218,0,1.55175.71192,1.55175,1.82325a2.23268,2.23268,0,0,1-.02441.35937h-2.62207a1.293,1.293,0,0,0,1.29492,1.36719,1.75811,1.75811,0,0,0,.96778-.30274l.23144.43165a2.32068,2.32068,0,0,1-1.2793.39843,2.05508,2.05508,0,0,1-.12011-4.07715Zm.97558,1.751c0-.791-.35156-1.23047-.959-1.23047a1.211,1.211,0,0,0-1.11914,1.23047Z" fill="#cacaca"/><path d="M107.95117,230.62793c.43945,0,.71973-.35254.87988-.83105l.0879-.28907-1.55957-3.89258h.67968l.792,2.15039c.12012.33594.25586.73536.376,1.09571h.03125c.11231-.35156.22461-.752.32813-1.09571l.69531-2.15039h.63965l-1.46289,4.20508c-.27149.76758-.67188,1.35157-1.45508,1.35157a1.29529,1.29529,0,0,1-.45606-.08008l.12793-.51953A1.1701,1.1701,0,0,0,107.95117,230.62793Z" fill="#cacaca"/><path d="M239.459,226.51855a1.59967,1.59967,0,0,1,1.0879.44825l-.03223-.66407v-1.49511h.66406V230.5h-.54394l-.05567-.45508h-.02441a1.75626,1.75626,0,0,1-1.17578.55078c-.97461,0-1.60645-.73437-1.60645-2.03027A1.84055,1.84055,0,0,1,239.459,226.51855Zm.06446,3.52637a1.31523,1.31523,0,0,0,.99121-.53515v-2.03125a1.34959,1.34959,0,0,0-.94336-.40821c-.624,0-1.11914.59961-1.11914,1.48731C238.45215,229.48438,238.84375,230.04492,239.52344,230.04492Z" fill="#cacaca"/><path d="M242.53125,225.25586h1.55957c1.06348,0,1.80664.35937,1.80664,1.2793a1.13911,1.13911,0,0,1-.91894,1.14257V227.71c.76757.12012,1.21484.53613,1.21484,1.25488,0,1.03125-.81543,1.53516-1.98242,1.53516h-1.67969Zm1.44727,2.23828c.88769,0,1.26367-.32031,1.26367-.90332,0-.56738-.42383-.80762-1.23145-.80762h-.80762v1.71094Zm.13574,2.47852c.89551,0,1.42383-.32813,1.42383-1.03907,0-.64843-.50391-.94336-1.42383-.94336h-.91114v1.98243Z" fill="#cacaca"/><path d="M213.57324,267.30273l-1.1748-1.85546h.71191l.51953.85546c.12012.209.248.43165.38379.64844h.03223c.11133-.21679.23144-.43945.35156-.64844l.47168-.85546h.6875l-1.17578,1.92773,1.26367,1.959h-.71191l-.56739-.90429c-.13574-.23145-.28027-.47071-.42382-.69531h-.03223c-.13574.2246-.26367.45507-.3916.69531l-.52735.90429h-.6875Z" fill="#cacaca"/><path d="M284.80078,211.85352c0-1.67872.92774-2.69336,2.24707-2.69336,1.31153,0,2.23828,1.02343,2.23828,2.69336,0,1.6875-.92675,2.74218-2.23828,2.74218C285.72852,214.5957,284.80078,213.541,284.80078,211.85352Zm3.79785,0c0-1.30274-.61523-2.11036-1.55078-2.11036-.94336,0-1.55957.80762-1.55957,2.11036,0,1.31152.61621,2.15918,1.55957,2.15918C287.9834,214.0127,288.59863,213.165,288.59863,211.85352Z" fill="#cacaca"/><path d="M290.28027,210.61523h.66407v2.374c0,.72754.21582,1.04.72754,1.04.39941,0,.67968-.20118,1.04687-.65625v-2.75782h.65625V214.5h-.54395l-.05566-.60742H292.751a1.64054,1.64054,0,0,1-1.2793.70312c-.82324,0-1.19141-.52734-1.19141-1.51855Z" fill="#cacaca"/><path d="M294.80078,211.15039h-.57519v-.49609l.60742-.03907.08008-1.08789h.55175v1.08789h1.04688v.53516h-1.04688v2.1582c0,.48047.15137.752.59961.752a1.41381,1.41381,0,0,0,.43946-.10352l.12793.49609a2.4168,2.4168,0,0,1-.71973.14258c-.83106,0-1.11133-.52734-1.11133-1.29492Z" fill="#cacaca"/><path d="M298.04883,214.82812v1.31153h-.65625v-5.52442h.54394l.05567.44727h.02441a2.00933,2.00933,0,0,1,1.23926-.54395c.999,0,1.53516.77637,1.53516,1.9834,0,1.31836-.792,2.09375-1.67872,2.09375a1.79985,1.79985,0,0,1-1.08007-.44726Zm.95117-.7832c.63965,0,1.11133-.584,1.11133-1.543,0-.85547-.28809-1.43164-1.02344-1.43164a1.63518,1.63518,0,0,0-1.03906.52735v2.03906A1.53729,1.53729,0,0,0,299,214.04492Z" fill="#cacaca"/><path d="M301.77637,210.61523h.66406v2.374c0,.72754.21582,1.04.72754,1.04.39941,0,.67969-.20118,1.04687-.65625v-2.75782h.65625V214.5h-.54394l-.05567-.60742h-.02441a1.64051,1.64051,0,0,1-1.2793.70312c-.82324,0-1.1914-.52734-1.1914-1.51855Z" fill="#cacaca"/><path d="M306.29688,211.15039h-.5752v-.49609l.60742-.03907.08008-1.08789h.55176v1.08789h1.04687v.53516h-1.04687v2.1582c0,.48047.15136.752.59961.752A1.41382,1.41382,0,0,0,308,213.957l.12793.49609a2.41674,2.41674,0,0,1-.71973.14258c-.83105,0-1.11132-.52734-1.11132-1.29492Z" fill="#cacaca"/><path d="M310.56836,213.35742a2.04052,2.04052,0,0,0,1.44726.65528c.6875,0,1.09473-.34375,1.09473-.85547,0-.53614-.38281-.70411-.8789-.92676l-.752-.32813a1.40338,1.40338,0,0,1,.5918-2.74218,2.14426,2.14426,0,0,1,1.543.64648l-.35156.43164a1.69056,1.69056,0,0,0-1.19141-.49512c-.5918,0-.9834.2959-.9834.76758,0,.50293.46387.69629.87207.87207l.751.31934a1.46039,1.46039,0,0,1,1.0791,1.39941,1.591,1.591,0,0,1-1.791,1.49414,2.51851,2.51851,0,0,1-1.83007-.77539Z" fill="#cacaca"/><path d="M314.61719,209.39062a.45675.45675,0,0,1,.91113,0,.45675.45675,0,0,1-.91113,0Zm.11914,1.22461h.65625V214.5h-.65625Z" fill="#cacaca"/><path d="M316.97656,214.36523v-.0332a.714.714,0,0,1-.34375-.63086.909.909,0,0,1,.42383-.71972v-.03223a1.37146,1.37146,0,0,1,.959-2.43067,1.53481,1.53481,0,0,1,.55176.09668H319.919v.50293h-.79981a1.12934,1.12934,0,0,1,.31934.79981,1.33294,1.33294,0,0,1-1.42286,1.35156,1.3652,1.3652,0,0,1-.584-.13672.59107.59107,0,0,0-.24707.46485c0,.24707.15918.42382.6875.42382h.751c.90429,0,1.35937.2793,1.35937.92676,0,.71973-.75976,1.34278-1.9668,1.34278-.95117,0-1.60742-.375-1.60742-1.04688A1.11864,1.11864,0,0,1,316.97656,214.36523Zm1.13477,1.47071c.74414,0,1.23144-.38379,1.23144-.791,0-.36035-.27929-.48047-.7832-.48047h-.67187a1.86347,1.86347,0,0,1-.50391-.06445.81983.81983,0,0,0-.39941.65625C316.98438,215.57227,317.4082,215.83594,318.11133,215.83594Zm.72754-3.9336a.82688.82688,0,1,0-1.64649,0,.82913.82913,0,1,0,1.64649,0Z" fill="#cacaca"/><path d="M320.73633,210.61523h.54394l.05567.5586h.02441a1.83435,1.83435,0,0,1,1.30371-.65528c.81543,0,1.18262.52833,1.18262,1.51856V214.5h-.65527v-2.374c0-.72754-.22364-1.04-.73536-1.04-.40039,0-.67187.209-1.06347.59961V214.5h-.65625Z" fill="#cacaca"/><path d="M327.31152,212.03711c0-.49512-.168-.97461-.7998-.97461a2.08,2.08,0,0,0-1.15918.416l-.26367-.45606a2.88615,2.88615,0,0,1,1.52734-.50391c.95117,0,1.35059.63184,1.35059,1.59864V214.5h-.543l-.05664-.46289h-.01563a2.11707,2.11707,0,0,1-1.28711.55859,1.059,1.059,0,0,1-1.14355-1.10254C324.9209,212.64551,325.65625,212.22168,327.31152,212.03711Zm-1.06347,2.03125a1.59106,1.59106,0,0,0,1.06347-.51953v-1.0791c-1.30371.15918-1.74316.47949-1.74316.97558A.59518.59518,0,0,0,326.24805,214.06836Z" fill="#cacaca"/><path d="M329.208,208.80762h.65625v4.958c0,.207.08789.28711.18359.28711a.55805.55805,0,0,0,.14356-.01562l.08886.49609a.90517.90517,0,0,1-.376.0625c-.4961,0-.69629-.31054-.69629-.8789Z" fill="#cacaca"/><path d="M369.084,284.08789h.67188v2.19922h2.43848v-2.19922h.66406V289.334h-.66406v-2.4707h-2.43848v2.4707H369.084Z" fill="#cacaca"/><path d="M373.8125,288.98242l2.04688-2.999h-1.82325v-.53613h2.6543v.35156l-2.04688,2.999h2.11133v.53613H373.8125Z" fill="#cacaca"/><line x1="117.5" y1="23.54224" x2="117.5" y2="93" fill="none" stroke="#979797" stroke-width="0.5"/><polygon points="114.955 25.699 115.321 26.04 117.5 23.734 119.678 26.04 120.044 25.699 117.5 23 114.955 25.699" fill="#979797"/><line x1="17.5" y1="58" x2="216.95775" y2="58" fill="none" stroke="#979797" stroke-width="0.5"/><polygon points="214.801 60.545 214.46 60.179 216.766 58 214.46 55.822 214.801 55.456 217.5 58 214.801 60.545" fill="#979797"/><line x1="252.5" y1="23.54224" x2="252.5" y2="88" fill="none" stroke="#979797" stroke-width="0.5"/><polygon points="249.955 25.699 250.321 26.04 252.5 23.734 254.678 26.04 255.044 25.699 252.5 23 249.955 25.699" fill="#979797"/><line x1="247.5" y1="78" x2="376.95776" y2="78" fill="none" stroke="#979797" stroke-width="0.5"/><polygon points="374.801 80.545 374.46 80.179 376.766 78 374.46 75.822 374.801 75.456 377.5 78 374.801 80.545" fill="#979797"/><line x1="117.5" y1="123.54224" x2="117.5" y2="193" fill="none" stroke="#979797" stroke-width="0.5"/><polygon points="114.955 125.699 115.321 126.04 117.5 123.734 119.678 126.04 120.044 125.699 117.5 123 114.955 125.699" fill="#979797"/><line x1="17.5" y1="158" x2="216.95775" y2="158" fill="none" stroke="#979797" stroke-width="0.5"/><polygon points="214.801 160.545 214.46 160.179 216.766 158 214.46 155.822 214.801 155.456 217.5 158 214.801 160.545" fill="#979797"/><line x1="252.5" y1="123.54224" x2="252.5" y2="188" fill="none" stroke="#979797" stroke-width="0.5"/><polygon points="249.955 125.699 250.321 126.04 252.5 123.734 254.678 126.04 255.044 125.699 252.5 123 249.955 125.699" fill="#979797"/><line x1="242.50009" y1="178" x2="371.95786" y2="178" fill="none" stroke="#979797" stroke-width="0.5"/><polygon points="369.801 180.545 369.46 180.179 371.766 178 369.46 175.822 369.801 175.456 372.5 178 369.801 180.545" fill="#979797"/><line x1="117.5" y1="223.54224" x2="117.5" y2="293" fill="none" stroke="#979797" stroke-width="0.5"/><polygon points="114.955 225.699 115.321 226.04 117.5 223.734 119.678 226.04 120.044 225.699 117.5 223 114.955 225.699" fill="#979797"/><line x1="17.5" y1="258" x2="216.95775" y2="258" fill="none" stroke="#979797" stroke-width="0.5"/><polygon points="214.801 260.545 214.46 260.179 216.766 258 214.46 255.822 214.801 255.456 217.5 258 214.801 260.545" fill="#979797"/><line x1="252.5" y1="223.54224" x2="252.5" y2="288" fill="none" stroke="#979797" stroke-width="0.5"/><polygon points="249.955 225.699 250.321 226.04 252.5 223.734 254.678 226.04 255.044 225.699 252.5 223 249.955 225.699" fill="#979797"/><line x1="242.50009" y1="278" x2="371.95786" y2="278" fill="none" stroke="#979797" stroke-width="0.5"/><polygon points="369.801 280.545 369.46 280.179 371.766 278 369.46 275.822 369.801 275.456 372.5 278 369.801 280.545" fill="#979797"/><path d="M207.50032,33.00007c-7.71429,0-12.85715,10-18,25s-10.28572,25-18,25-12.85716-10-18-25-10.28573-25-18-25-12.85716,10-18,25-10.28572,25-18,25-12.85715-10-18-25-10.28573-25-18-25-12.85716,10-18,25-10.28572,25-18,25" fill="none" stroke="#e9a460" stroke-width="0.8"/><path d="M207.50019,133.00012c-7.28421,0-14.14741,10-22.01414,25s-14.72992,25-22.01413,25-10.13328-10-11.97883-25-4.69462-25-11.97883-25-14.1474,10-22.01413,25-14.72993,25-22.01413,25-10.13329-10-11.97883-25-4.69463-25-11.97883-25-14.14741,10-22.01414,25-14.72992,25-22.01413,25" fill="none" stroke="#e9a460" stroke-width="0.8"/><path d="M27.5,283c8.494,0,16.66328-12.97846,24.93977-25s16.44579-25,24.93977-25c6.14458,0,6.86747,6.33319,7.59036,25s1.44578,25,7.59036,25c8.494,0,16.66328-12.97846,24.93977-25s16.44579-25,24.93977-25c6.14458,0,6.86747,6.33319,7.59036,25s1.44578,25,7.59036,25c8.494,0,16.66328-12.97846,24.93977-25S199.006,233,207.5,233" fill="none" stroke="#e9a460" stroke-width="0.8"/><line x1="262.5" y1="242.87666" x2="262.5" y2="278" fill="none" stroke="#e9a460" stroke-width="3"/><line x1="267.5" y1="249.12926" x2="267.5" y2="278" fill="none" stroke="#e9a460" stroke-width="3"/><line x1="272.5" y1="253.29557" x2="272.5" y2="278" fill="none" stroke="#e9a460" stroke-width="3"/><line x1="277.5" y1="256.58977" x2="277.5" y2="278" fill="none" stroke="#e9a460" stroke-width="3"/><line x1="282.5" y1="259.35894" x2="282.5" y2="278" fill="none" stroke="#e9a460" stroke-width="3"/><line x1="287.5" y1="261.76219" x2="287.5" y2="278" fill="none" stroke="#e9a460" stroke-width="3"/><line x1="292.5" y1="263.88457" x2="292.5" y2="278" fill="none" stroke="#e9a460" stroke-width="3"/><line x1="297.5" y1="265.78383" x2="297.5" y2="278" fill="none" stroke="#e9a460" stroke-width="3"/><line x1="302.5" y1="267.49259" x2="302.5" y2="278" fill="none" stroke="#e9a460" stroke-width="3"/><line x1="307.5" y1="269.03848" x2="307.5" y2="278" fill="none" stroke="#e9a460" stroke-width="3"/><line x1="312.5" y1="270.4397" x2="312.5" y2="278" fill="none" stroke="#e9a460" stroke-width="3"/><line x1="317.5" y1="271.70535" x2="317.5" y2="278" fill="none" stroke="#e9a460" stroke-width="3"/><line x1="322.5" y1="272.84484" x2="322.5" y2="278" fill="none" stroke="#e9a460" stroke-width="3"/><line x1="327.5" y1="273.86664" x2="327.5" y2="278" fill="none" stroke="#e9a460" stroke-width="3"/><line x1="332.5" y1="274.76669" x2="332.5" y2="278" fill="none" stroke="#e9a460" stroke-width="3"/><line x1="337.5" y1="275.55156" x2="337.5" y2="278" fill="none" stroke="#e9a460" stroke-width="3"/><line x1="342.5" y1="276.21717" x2="342.5" y2="278" fill="none" stroke="#e9a460" stroke-width="3"/><line x1="347.5" y1="276.75444" x2="347.5" y2="278" fill="none" stroke="#e9a460" stroke-width="3"/><line x1="262.86977" y1="143" x2="262.86977" y2="178.12334" fill="none" stroke="#e9a460" stroke-width="3"/><line x1="267.5" y1="159.48228" x2="267.5" y2="178.12334" fill="none" stroke="#e9a460" stroke-width="3"/><line x1="272.5" y1="167.61593" x2="272.5" y2="178.12334" fill="none" stroke="#e9a460" stroke-width="3"/><line x1="277.5" y1="172.96817" x2="277.5" y2="178.12334" fill="none" stroke="#e9a460" stroke-width="3"/><line x1="262.86977" y1="42.87666" x2="262.86977" y2="78" fill="none" stroke="#e9a460" stroke-width="3"/></svg>