<?xml version="1.0" encoding="utf-8"?>
<!-- Generator: Adobe Illustrator 21.1.0, SVG Export Plug-In . SVG Version: 6.00 Build 0)  -->
<svg version="1.1" xmlns="http://www.w3.org/2000/svg" xmlns:xlink="http://www.w3.org/1999/xlink" x="0px" y="0px"
	 viewBox="0 0 590 190" style="enable-background:new 0 0 590 190;" xml:space="preserve">
<style type="text/css">
	.st0{fill:#202020;}
	.st1{fill:#363636;}
	.st2{fill:#979797;}
	.st3{display:none;}
	.st4{display:inline;fill:#B0B0B0;}
	.st5{display:inline;}
	.st6{fill:#4E4E4E;}
	.st7{fill:#666666;}
	.st8{fill:#0F0F0F;}
	.st9{fill:none;stroke:#202020;stroke-width:0.5;}
	.st10{fill:#6D718A;}
	.st11{fill:none;stroke:#666666;stroke-width:0.4;stroke-dasharray:2,1;}
	.st12{fill:none;stroke:#E9A460;stroke-width:0.4;}
	.st13{fill:#535568;stroke:#E9A460;stroke-width:0.4;}
	.st14{fill:none;stroke:#E9A460;stroke-width:0.4;stroke-miterlimit:10;}
	.st15{fill:#535568;}
	.st16{fill:#B0B0B0;}
	.st17{fill:none;}
	.st18{fill:#CACACA;}
	.st19{fill:#E4E4E4;}
	.st20{fill:none;stroke:#979797;stroke-width:0.5;}
	.st21{fill:#535568;stroke:#E9A460;stroke-width:0.4;stroke-miterlimit:10;}
	.st22{fill:none;stroke:#E9A460;stroke-width:0.6;stroke-dasharray:2,2;}
	.st23{fill:none;stroke:#E9A460;stroke-width:0.6;}
	.st24{fill:none;stroke:#E9D77D;stroke-width:0.4;stroke-miterlimit:10;}
	.st25{fill:#C46417;}
	.st26{fill:#C1C9FD;}
	.st27{fill:#7F7F7F;}
	.st28{fill:#31333D;}
	.st29{fill:#E9A460;}
	.st30{clip-path:url(#SVGID_4_);fill:#7F7F7F;}
	.st31{clip-path:url(#SVGID_6_);fill:#7F7F7F;}
	.st32{clip-path:url(#SVGID_8_);fill:#7F7F7F;}
	.st33{clip-path:url(#SVGID_10_);fill:#7F7F7F;}
	.st34{clip-path:url(#SVGID_37_);fill:#7F7F7F;}
	.st35{clip-path:url(#SVGID_38_);fill:#7F7F7F;}
	.st36{clip-path:url(#SVGID_39_);fill:#7F7F7F;}
	.st37{clip-path:url(#SVGID_40_);fill:#7F7F7F;}
	.st38{clip-path:url(#SVGID_41_);fill:#7F7F7F;}
	.st39{clip-path:url(#SVGID_42_);fill:#7F7F7F;}
	.st40{clip-path:url(#SVGID_43_);fill:#7F7F7F;}
	.st41{clip-path:url(#SVGID_44_);fill:#7F7F7F;}
	.st42{clip-path:url(#SVGID_45_);fill:#7F7F7F;}
	.st43{clip-path:url(#SVGID_46_);fill:#7F7F7F;}
	.st44{clip-path:url(#SVGID_47_);fill:#7F7F7F;}
	.st45{clip-path:url(#SVGID_48_);fill:#7F7F7F;}
	.st46{clip-path:url(#SVGID_49_);fill:#7F7F7F;}
	.st47{clip-path:url(#SVGID_50_);fill:#7F7F7F;}
	.st48{clip-path:url(#SVGID_51_);fill:#7F7F7F;}
	.st49{clip-path:url(#SVGID_52_);fill:#7F7F7F;}
	.st50{clip-path:url(#SVGID_53_);fill:#7F7F7F;}
	.st51{clip-path:url(#SVGID_54_);fill:#7F7F7F;}
	.st52{clip-path:url(#SVGID_55_);fill:#7F7F7F;}
	.st53{clip-path:url(#SVGID_56_);fill:#7F7F7F;}
	.st54{clip-path:url(#SVGID_57_);fill:#B0B0B0;}
	.st55{clip-path:url(#SVGID_58_);fill:#B0B0B0;}
	.st56{clip-path:url(#SVGID_59_);fill:#B0B0B0;}
	.st57{clip-path:url(#SVGID_60_);fill:#B0B0B0;}
	.st58{clip-path:url(#SVGID_61_);fill:#B0B0B0;}
	.st59{clip-path:url(#SVGID_62_);fill:#B0B0B0;}
	.st60{fill:none;stroke:#E9A460;stroke-width:0.7;}
	.st61{fill:#31333D;stroke:#E9A460;stroke-width:0.7;}
	.st62{fill:none;stroke:#7F7F7F;stroke-width:0.7;}
	.st63{fill:#4E4E4E;stroke:#7F7F7F;stroke-width:0.7;}
	.st64{fill:#4E4E4E;stroke:#7F7F7F;stroke-width:0.5;}
	.st65{fill:#666666;stroke:#7F7F7F;stroke-width:0.5;}
	.st66{fill:#7F7F7F;stroke:#B0B0B0;stroke-width:0.5;}
	.st67{fill:#4271C2;}
</style>
<g id="Beispiele_Plots">
</g>
<g id="Invert">
	<g>
		<path class="st0" d="M2,189.75c-0.9648438,0-1.75-0.7851562-1.75-1.75V2c0-0.9648438,0.7851562-1.75,1.75-1.75h586
			c0.9648438,0,1.75,0.7851562,1.75,1.75v186c0,0.9648438-0.7851562,1.75-1.75,1.75H2z"/>
		<path class="st1" d="M588,0.5c0.8270264,0,1.5,0.6728516,1.5,1.5v186c0,0.8271484-0.6729736,1.5-1.5,1.5H2
			c-0.8270874,0-1.5-0.6728516-1.5-1.5V2c0-0.8271484,0.6729126-1.5,1.5-1.5H588 M588,0H2C0.8954468,0,0,0.8955078,0,2v186
			c0,1.1044922,0.8954468,2,2,2h586c1.1046143,0,2-0.8955078,2-2V2C590,0.8955078,589.1046143,0,588,0L588,0z"/>
	</g>
</g>
<g id="Unterschrift">
</g>
<g id="Legende">
	<g>
		<path class="st2" d="M503.6689453,168.6796875h0.5888672v2.7109375c0,1.1064453,0.46875,1.4560547,1.0644531,1.4560547
			c0.609375,0,1.0917969-0.3496094,1.0917969-1.4560547v-2.7109375h0.5605469v2.6962891
			c0,1.4775391-0.7148438,1.9824219-1.6523438,1.9824219c-0.9394531,0-1.6533203-0.5048828-1.6533203-1.9824219V168.6796875z"/>
		<path class="st2" d="M508.015625,172.5039062c0.2949219,0.2382812,0.5957031,0.40625,1.0019531,0.40625
			c0.4482422,0,0.671875-0.2382812,0.671875-0.5322266c0-0.3505859-0.40625-0.5048828-0.7773438-0.6445312
			c-0.4824219-0.1748047-1.015625-0.40625-1.015625-0.9804688c0-0.546875,0.4345703-0.9667969,1.1699219-0.9667969
			c0.4277344,0,0.7988281,0.1748047,1.0576172,0.3857422l-0.2724609,0.3642578
			c-0.2324219-0.1757812-0.4765625-0.3017578-0.7773438-0.3017578c-0.4277344,0-0.6240234,0.2314453-0.6240234,0.4902344
			c0,0.3154297,0.3710938,0.4414062,0.7568359,0.5888672c0.4902344,0.1816406,1.0361328,0.3847656,1.0361328,1.0292969
			c0,0.5527344-0.4414062,1.015625-1.2470703,1.015625c-0.4824219,0-0.9453125-0.203125-1.2675781-0.4697266L508.015625,172.5039062
			z"/>
		<path class="st2" d="M512.3144531,169.7861328c0.8681641,0,1.3583984,0.6230469,1.3583984,1.5966797
			c0,0.1191406-0.0068359,0.2314453-0.0205078,0.3154297h-2.296875c0.0410156,0.7353516,0.4824219,1.1972656,1.1337891,1.1972656
			c0.3222656,0,0.5957031-0.1044922,0.8476562-0.265625l0.203125,0.3779297
			c-0.2939453,0.1894531-0.6582031,0.3505859-1.1201172,0.3505859c-0.9111328,0-1.6328125-0.6660156-1.6328125-1.7792969
			S511.5371094,169.7861328,512.3144531,169.7861328z M513.1689453,171.3203125
			c0-0.6933594-0.3076172-1.0791016-0.8408203-1.0791016c-0.4765625,0-0.9101562,0.3925781-0.9804688,1.0791016H513.1689453z"/>
		<path class="st2" d="M514.5117188,169.8701172h0.4765625l0.0488281,0.6162109h0.0214844
			c0.2304688-0.4267578,0.5810547-0.7001953,0.9658203-0.7001953c0.1474609,0,0.2529297,0.0214844,0.3642578,0.0703125
			l-0.1113281,0.5039062c-0.1132812-0.0351562-0.1894531-0.0556641-0.3300781-0.0556641
			c-0.2871094,0-0.6298828,0.2099609-0.8613281,0.7841797v2.1855469h-0.5742188V169.8701172z"/>
		<path class="st2" d="M518.3896484,168.6796875h0.5888672v4.5947266h-0.5888672V168.6796875z"/>
		<path class="st2" d="M520.1601562,169.8701172h0.4765625l0.0488281,0.4902344h0.0214844
			c0.3222656-0.3222656,0.671875-0.5742188,1.1416016-0.5742188c0.7138672,0,1.0361328,0.4628906,1.0361328,1.3310547v2.1572266
			h-0.5742188v-2.0800781c0-0.6376953-0.1953125-0.9111328-0.6445312-0.9111328
			c-0.3496094,0-0.5878906,0.1826172-0.9316406,0.5253906v2.4658203h-0.5742188V169.8701172z"/>
		<path class="st2" d="M524.0878906,170.3398438h-0.5048828v-0.4345703l0.5322266-0.0351562l0.0703125-0.9521484h0.4833984
			v0.9521484h0.9169922v0.4697266h-0.9169922v1.890625c0,0.4199219,0.1328125,0.6582031,0.5244141,0.6582031
			c0.1191406,0,0.2734375-0.0488281,0.3857422-0.0908203l0.1123047,0.4345703
			c-0.1894531,0.0625-0.4199219,0.1259766-0.6308594,0.1259766c-0.7285156,0-0.9726562-0.4628906-0.9726562-1.1347656V170.3398438z"
			/>
		<path class="st2" d="M527.5605469,169.7861328c0.8681641,0,1.3583984,0.6230469,1.3583984,1.5966797
			c0,0.1191406-0.0068359,0.2314453-0.0205078,0.3154297h-2.296875c0.0410156,0.7353516,0.4824219,1.1972656,1.1337891,1.1972656
			c0.3222656,0,0.5957031-0.1044922,0.8476562-0.265625l0.203125,0.3779297
			c-0.2939453,0.1894531-0.6582031,0.3505859-1.1201172,0.3505859c-0.9111328,0-1.6328125-0.6660156-1.6328125-1.7792969
			S526.7832031,169.7861328,527.5605469,169.7861328z M528.4150391,171.3203125
			c0-0.6933594-0.3076172-1.0791016-0.8408203-1.0791016c-0.4765625,0-0.9101562,0.3925781-0.9804688,1.0791016H528.4150391z"/>
		<path class="st2" d="M529.7578125,169.8701172h0.4765625l0.0488281,0.6162109h0.0205078
			c0.2314453-0.4267578,0.5810547-0.7001953,0.9658203-0.7001953c0.1484375,0,0.2529297,0.0214844,0.3652344,0.0703125
			l-0.1123047,0.5039062c-0.1123047-0.0351562-0.1884766-0.0556641-0.3291016-0.0556641
			c-0.2871094,0-0.6308594,0.2099609-0.8613281,0.7841797v2.1855469h-0.5742188V169.8701172z"/>
		<path class="st2" d="M533.7197266,168.7568359c-0.1259766-0.0556641-0.2587891-0.0839844-0.3847656-0.0839844
			c-0.3222656,0-0.4765625,0.2236328-0.4765625,0.6582031v0.5390625h0.7216797v0.4697266h-0.7216797v2.9345703h-0.5742188
			v-2.9345703h-0.4619141v-0.4345703l0.4619141-0.0351562v-0.5390625c0-0.6933594,0.3154297-1.1279297,0.9951172-1.1279297
			c0.2089844,0,0.4121094,0.0498047,0.5664062,0.1123047L533.7197266,168.7568359z"/>
		<path class="st2" d="M536.0166016,171.1171875c0-0.4345703-0.1474609-0.8544922-0.7001953-0.8544922
			c-0.3994141,0-0.75,0.1816406-1.015625,0.3642578l-0.2314453-0.3994141
			c0.3154297-0.203125,0.7919922-0.4414062,1.3378906-0.4414062c0.8330078,0,1.1835938,0.5537109,1.1835938,1.4013672v2.0869141
			h-0.4755859l-0.0498047-0.40625h-0.0146484c-0.328125,0.265625-0.7070312,0.4902344-1.1269531,0.4902344
			c-0.5742188,0-1.0019531-0.3574219-1.0019531-0.9667969C533.921875,171.6494141,534.5664062,171.2783203,536.0166016,171.1171875z
			 M535.0849609,172.8955078c0.3291016,0,0.6025391-0.1601562,0.9316406-0.4550781v-0.9453125
			c-1.1416016,0.140625-1.5263672,0.4199219-1.5263672,0.8544922
			C534.4902344,172.7353516,534.7480469,172.8955078,535.0849609,172.8955078z"/>
		<path class="st2" d="M539.0605469,169.7861328c0.4492188,0,0.7636719,0.1894531,0.9951172,0.40625l-0.2871094,0.3710938
			c-0.203125-0.1748047-0.4130859-0.3007812-0.6865234-0.3007812c-0.6162109,0-1.0644531,0.5322266-1.0644531,1.3164062
			c0,0.7773438,0.4277344,1.3027344,1.0507812,1.3027344c0.3222656,0,0.5957031-0.1611328,0.7988281-0.3427734l0.2578125,0.3779297
			c-0.3076172,0.2734375-0.6992188,0.4414062-1.1054688,0.4414062c-0.9042969,0-1.5976562-0.6513672-1.5976562-1.7792969
			C537.421875,170.4375,538.1855469,169.7861328,539.0605469,169.7861328z"/>
		<path class="st2" d="M541.9941406,169.7861328c0.8681641,0,1.3583984,0.6230469,1.3583984,1.5966797
			c0,0.1191406-0.0068359,0.2314453-0.0205078,0.3154297h-2.296875c0.0410156,0.7353516,0.4824219,1.1972656,1.1337891,1.1972656
			c0.3222656,0,0.5957031-0.1044922,0.8476562-0.265625l0.203125,0.3779297
			c-0.2939453,0.1894531-0.6582031,0.3505859-1.1201172,0.3505859c-0.9111328,0-1.6328125-0.6660156-1.6328125-1.7792969
			S541.2167969,169.7861328,541.9941406,169.7861328z M542.8486328,171.3203125
			c0-0.6933594-0.3076172-1.0791016-0.8408203-1.0791016c-0.4765625,0-0.9101562,0.3925781-0.9804688,1.0791016H542.8486328z"/>
		<path class="st2" d="M547.4257812,168.5957031c0.546875,0,0.9804688,0.265625,1.2539062,0.5673828l-0.3291016,0.3710938
			c-0.2451172-0.2587891-0.5400391-0.4277344-0.9169922-0.4277344c-0.8759766,0-1.4570312,0.7148438-1.4570312,1.8564453
			c0,1.1552734,0.5527344,1.8837891,1.4287109,1.8837891c0.4345703,0,0.7568359-0.1816406,1.0498047-0.5107422l0.3300781,0.3564453
			c-0.3574219,0.4208984-0.8125,0.6660156-1.3945312,0.6660156c-1.1552734,0-2.0166016-0.8828125-2.0166016-2.3818359
			C545.3740234,169.4990234,546.25,168.5957031,547.4257812,168.5957031z"/>
		<path class="st2" d="M550.890625,169.7861328c0.8339844,0,1.5761719,0.6513672,1.5761719,1.7929688
			c0,1.1279297-0.7421875,1.7792969-1.5761719,1.7792969s-1.5761719-0.6513672-1.5761719-1.7792969
			C549.3144531,170.4375,550.0566406,169.7861328,550.890625,169.7861328z M550.890625,172.8818359
			c0.5878906,0,0.9804688-0.5253906,0.9804688-1.3027344c0-0.7841797-0.3925781-1.3164062-0.9804688-1.3164062
			c-0.5810547,0-0.9804688,0.5322266-0.9804688,1.3164062C549.9101562,172.3564453,550.3095703,172.8818359,550.890625,172.8818359z
			"/>
		<path class="st2" d="M553.3613281,169.8701172h0.4765625l0.0488281,0.4902344h0.0205078
			c0.3222656-0.3222656,0.6728516-0.5742188,1.1416016-0.5742188c0.7148438,0,1.0371094,0.4628906,1.0371094,1.3310547v2.1572266
			h-0.5742188v-2.0800781c0-0.6376953-0.1972656-0.9111328-0.6445312-0.9111328
			c-0.3505859,0-0.5888672,0.1826172-0.9316406,0.5253906v2.4658203h-0.5742188V169.8701172z"/>
		<path class="st2" d="M557.2880859,170.3398438h-0.5048828v-0.4345703l0.5332031-0.0351562l0.0703125-0.9521484h0.4824219
			v0.9521484h0.9179688v0.4697266h-0.9179688v1.890625c0,0.4199219,0.1328125,0.6582031,0.5253906,0.6582031
			c0.1191406,0,0.2734375-0.0488281,0.3847656-0.0908203l0.1132812,0.4345703
			c-0.1894531,0.0625-0.4208984,0.1259766-0.6308594,0.1259766c-0.7285156,0-0.9736328-0.4628906-0.9736328-1.1347656V170.3398438z"
			/>
		<path class="st2" d="M559.5566406,169.8701172h0.4765625l0.0488281,0.6162109h0.0205078
			c0.2314453-0.4267578,0.5810547-0.7001953,0.9658203-0.7001953c0.1484375,0,0.2529297,0.0214844,0.3652344,0.0703125
			l-0.1123047,0.5039062c-0.1123047-0.0351562-0.1884766-0.0556641-0.3291016-0.0556641
			c-0.2871094,0-0.6308594,0.2099609-0.8613281,0.7841797v2.1855469h-0.5742188V169.8701172z"/>
		<path class="st2" d="M563.2382812,169.7861328c0.8339844,0,1.5761719,0.6513672,1.5761719,1.7929688
			c0,1.1279297-0.7421875,1.7792969-1.5761719,1.7792969c-0.8330078,0-1.5751953-0.6513672-1.5751953-1.7792969
			C561.6630859,170.4375,562.4052734,169.7861328,563.2382812,169.7861328z M563.2382812,172.8818359
			c0.5888672,0,0.9804688-0.5253906,0.9804688-1.3027344c0-0.7841797-0.3916016-1.3164062-0.9804688-1.3164062
			c-0.5800781,0-0.9804688,0.5322266-0.9804688,1.3164062C562.2578125,172.3564453,562.6582031,172.8818359,563.2382812,172.8818359
			z"/>
		<path class="st2" d="M565.7089844,168.2871094h0.5742188v4.3427734c0,0.1816406,0.0771484,0.2519531,0.1611328,0.2519531
			c0.0351562,0,0.0634766,0,0.1259766-0.0136719l0.0771484,0.4335938c-0.0771484,0.0351562-0.1748047,0.0566406-0.3291016,0.0566406
			c-0.4335938,0-0.609375-0.2734375-0.609375-0.7705078V168.2871094z"/>
	</g>
</g>
<g id="Überschrift_Kasten" class="st3">
</g>
<g id="Überschrift" class="st3">
</g>
<g id="Raster_BG">
</g>
<g id="Diagramm_Header">
</g>
<g id="Dreiecke">
</g>
<g id="Raster">
</g>
<g id="Kurvenflächen_Shaper">
</g>
<g id="Graphen_L2">
</g>
<g id="Graphen_Beschr_B">
</g>
<g id="Graphen_Beschriftung">
</g>
<g id="Ko-Typo">
</g>
<g id="Ko-Achsen">
</g>
<g id="Graphen_L1">
	<g id="Graphen_Pfeile">
	</g>
</g>
<g id="Punkte_Kurven">
</g>
<g id="Graphen_XTra">
</g>
<g id="Drähte">
</g>
<g id="Modul_BGs_L2">
</g>
<g id="Modul_BGs_L1">
	<g>
		<path class="st28" d="M403,129.6503906c-1.4609375,0-2.6503906-1.1894531-2.6503906-2.6503906v-24
			c0-1.4609375,1.1894531-2.6503906,2.6503906-2.6503906h44c1.4609375,0,2.6503906,1.1894531,2.6503906,2.6503906v24
			c0,1.4609375-1.1894531,2.6503906-2.6503906,2.6503906H403z"/>
		<path class="st29" d="M447,100.6999512c1.2681885,0,2.3000488,1.0317383,2.3000488,2.3000488v24
			c0,1.2683105-1.0318604,2.3000488-2.3000488,2.3000488h-44c-1.2681885,0-2.3000488-1.0317383-2.3000488-2.3000488v-24
			c0-1.2683105,1.0318604-2.3000488,2.3000488-2.3000488H447 M447,100h-44c-1.6500244,0-3,1.3500977-3,3v24
			c0,1.6499023,1.3499756,3,3,3h44c1.6500244,0,3-1.3500977,3-3v-24C450,101.3500977,448.6500244,100,447,100L447,100z"/>
	</g>
	<g>
		<path class="st28" d="M353,124.6503906c-1.4609375,0-2.6503906-1.1894531-2.6503906-2.6503906v-14
			c0-1.4609375,1.1894531-2.6503906,2.6503906-2.6503906h24c1.4609375,0,2.6503906,1.1894531,2.6503906,2.6503906v14
			c0,1.4609375-1.1894531,2.6503906-2.6503906,2.6503906H353z"/>
		<path class="st29" d="M377,105.6999512c1.2681885,0,2.3000488,1.0317383,2.3000488,2.3000488v14
			c0,1.2683105-1.0318604,2.3000488-2.3000488,2.3000488h-24c-1.2681885,0-2.3000488-1.0317383-2.3000488-2.3000488v-14
			c0-1.2683105,1.0318604-2.3000488,2.3000488-2.3000488H377 M377,105h-24c-1.6500244,0-3,1.3500977-3,3v14
			c0,1.6499023,1.3499756,3,3,3h24c1.6500244,0,3-1.3500977,3-3v-14C380,106.3500977,378.6500244,105,377,105L377,105z"/>
	</g>
	<g>
		<path class="st28" d="M278,87.1503906c-1.4609375,0-2.6503906-1.1894531-2.6503906-2.6503906v-9
			c0-1.4609375,1.1894531-2.6503906,2.6503906-2.6503906h24c1.4609375,0,2.6503906,1.1894531,2.6503906,2.6503906v9
			c0,1.4609375-1.1894531,2.6503906-2.6503906,2.6503906H278z"/>
		<path class="st29" d="M302,73.1999512c1.2682495,0,2.2999878,1.0317383,2.2999878,2.3000488v9
			c0,1.2683105-1.0317383,2.3000488-2.2999878,2.3000488h-24c-1.2682495,0-2.2999878-1.0317383-2.2999878-2.3000488v-9
			c0-1.2683105,1.0317383-2.3000488,2.2999878-2.3000488H302 M302,72.5h-24c-1.6500244,0-3,1.3500977-3,3v9
			c0,1.6499023,1.3499756,3,3,3h24c1.6500244,0,3-1.3500977,3-3v-9C305,73.8500977,303.6500244,72.5,302,72.5L302,72.5z"/>
	</g>
	<g>
		<path class="st28" d="M203,87.1503906c-1.4609375,0-2.6503906-1.1894531-2.6503906-2.6503906v-9
			c0-1.4609375,1.1894531-2.6503906,2.6503906-2.6503906h24c1.4609375,0,2.6503906,1.1894531,2.6503906,2.6503906v9
			c0,1.4609375-1.1894531,2.6503906-2.6503906,2.6503906H203z"/>
		<path class="st29" d="M227,73.1999512c1.2682495,0,2.2999878,1.0317383,2.2999878,2.3000488v9
			c0,1.2683105-1.0317383,2.3000488-2.2999878,2.3000488h-24c-1.2682495,0-2.2999878-1.0317383-2.2999878-2.3000488v-9
			c0-1.2683105,1.0317383-2.3000488,2.2999878-2.3000488H227 M227,72.5h-24c-1.6500244,0-3,1.3500977-3,3v9
			c0,1.6499023,1.3499756,3,3,3h24c1.6500244,0,3-1.3500977,3-3v-9C230,73.8500977,228.6500244,72.5,227,72.5L227,72.5z"/>
	</g>
	<g>
		<path class="st28" d="M128,87.1503906c-1.4609375,0-2.6503906-1.1894531-2.6503906-2.6503906v-9
			c0-1.4609375,1.1894531-2.6503906,2.6503906-2.6503906h24c1.4609375,0,2.6503906,1.1894531,2.6503906,2.6503906v9
			c0,1.4609375-1.1894531,2.6503906-2.6503906,2.6503906H128z"/>
		<path class="st29" d="M152,73.1999512c1.2682495,0,2.2999878,1.0317383,2.2999878,2.3000488v9
			c0,1.2683105-1.0317383,2.3000488-2.2999878,2.3000488h-24c-1.2682495,0-2.2999878-1.0317383-2.2999878-2.3000488v-9
			c0-1.2683105,1.0317383-2.3000488,2.2999878-2.3000488H152 M152,72.5h-24c-1.6500244,0-3,1.3500977-3,3v9
			c0,1.6499023,1.3499756,3,3,3h24c1.6500244,0,3-1.3500977,3-3v-9C155,73.8500977,153.6500244,72.5,152,72.5L152,72.5z"/>
	</g>
	<g>
		<path class="st28" d="M53,87.1503906c-1.4609375,0-2.6503906-1.1894531-2.6503906-2.6503906v-9
			c0-1.4609375,1.1894531-2.6503906,2.6503906-2.6503906h24c1.4609375,0,2.6503906,1.1894531,2.6503906,2.6503906v9
			c0,1.4609375-1.1894531,2.6503906-2.6503906,2.6503906H53z"/>
		<path class="st29" d="M77,73.1999512c1.2682495,0,2.2999878,1.0317383,2.2999878,2.3000488v9
			c0,1.2683105-1.0317383,2.3000488-2.2999878,2.3000488H53c-1.2682495,0-2.2999878-1.0317383-2.2999878-2.3000488v-9
			c0-1.2683105,1.0317383-2.3000488,2.2999878-2.3000488H77 M77,72.5H53c-1.6500244,0-3,1.3500977-3,3v9
			c0,1.6499023,1.3499756,3,3,3h24c1.6500244,0,3-1.3500977,3-3v-9C80,73.8500977,78.6500244,72.5,77,72.5L77,72.5z"/>
	</g>
	<g>
		<path class="st28" d="M473,124.6503906c-1.4609375,0-2.6503906-1.1894531-2.6503906-2.6503906v-14
			c0-1.4609375,1.1894531-2.6503906,2.6503906-2.6503906h44c1.4609375,0,2.6503906,1.1894531,2.6503906,2.6503906v14
			c0,1.4609375-1.1894531,2.6503906-2.6503906,2.6503906H473z"/>
		<path class="st29" d="M517,105.6999512c1.2681885,0,2.3000488,1.0317383,2.3000488,2.3000488v14
			c0,1.2683105-1.0318604,2.3000488-2.3000488,2.3000488h-44c-1.2681885,0-2.3000488-1.0317383-2.3000488-2.3000488v-14
			c0-1.2683105,1.0318604-2.3000488,2.3000488-2.3000488H517 M517,105h-44c-1.6500244,0-3,1.3500977-3,3v14
			c0,1.6499023,1.3499756,3,3,3h44c1.6500244,0,3-1.3500977,3-3v-14C520,106.3500977,518.6500244,105,517,105L517,105z"/>
	</g>
</g>
<g id="Pfeile_L4">
	<g>
		<g>
			<g>
				<circle class="st16" cx="75.0039444" cy="45" r="0.4950562"/>
			</g>
			<g>
				<circle class="st16" cx="76.85215" cy="45" r="0.4950562"/>
			</g>
			<g>
				<circle class="st16" cx="78.7003555" cy="45" r="0.4950562"/>
			</g>
			<g>
				<circle class="st16" cx="80.5486069" cy="45" r="0.4950714"/>
			</g>
			<g>
				<circle class="st16" cx="82.3968277" cy="45" r="0.4950562"/>
			</g>
			<g>
				<polygon class="st16" points="76.2388077,48.0539551 76.6480484,47.614502 73.8809586,45.0004883 76.6480484,42.3862305 
					76.2388077,41.9467773 72.9999771,45.0004883 				"/>
			</g>
		</g>
	</g>
	<g>
		<g>
			<g>
				<circle class="st16" cx="150.0039368" cy="45" r="0.4950562"/>
			</g>
			<g>
				<circle class="st16" cx="151.8521423" cy="45" r="0.4950562"/>
			</g>
			<g>
				<circle class="st16" cx="153.7003479" cy="45" r="0.4950562"/>
			</g>
			<g>
				<circle class="st16" cx="155.5486145" cy="45" r="0.4950714"/>
			</g>
			<g>
				<circle class="st16" cx="157.3968201" cy="45" r="0.4950562"/>
			</g>
			<g>
				<polygon class="st16" points="151.2388,48.0539551 151.6480408,47.614502 148.8809509,45.0004883 151.6480408,42.3862305 
					151.2388,41.9467773 147.9999695,45.0004883 				"/>
			</g>
		</g>
	</g>
	<g>
		<g>
			<g>
				<circle class="st16" cx="225.0039368" cy="45" r="0.4950562"/>
			</g>
			<g>
				<circle class="st16" cx="226.8521423" cy="45" r="0.4950562"/>
			</g>
			<g>
				<circle class="st16" cx="228.7003479" cy="45" r="0.4950562"/>
			</g>
			<g>
				<circle class="st16" cx="230.5486145" cy="45" r="0.4950714"/>
			</g>
			<g>
				<circle class="st16" cx="232.3968201" cy="45" r="0.4950562"/>
			</g>
			<g>
				<polygon class="st16" points="226.2388,48.0539551 226.6480408,47.614502 223.8809509,45.0004883 226.6480408,42.3862305 
					226.2388,41.9467773 222.9999695,45.0004883 				"/>
			</g>
		</g>
	</g>
	<g>
		<g>
			<g>
				<circle class="st16" cx="300.0039368" cy="45" r="0.4950562"/>
			</g>
			<g>
				<circle class="st16" cx="301.8521423" cy="45" r="0.4950562"/>
			</g>
			<g>
				<circle class="st16" cx="303.7003479" cy="45" r="0.4950562"/>
			</g>
			<g>
				<circle class="st16" cx="305.5486145" cy="45" r="0.4950714"/>
			</g>
			<g>
				<circle class="st16" cx="307.3968201" cy="45" r="0.4950562"/>
			</g>
			<g>
				<polygon class="st16" points="301.2388,48.0539551 301.6480408,47.614502 298.8809509,45.0004883 301.6480408,42.3862305 
					301.2388,41.9467773 297.9999695,45.0004883 				"/>
			</g>
		</g>
	</g>
	<g>
		<g>
			<g>
				<circle class="st27" cx="425" cy="97.4894409" r="0.4949951"/>
			</g>
			<g>
				<circle class="st27" cx="425" cy="95.6344604" r="0.4949951"/>
			</g>
			<g>
				<circle class="st27" cx="425" cy="93.7796021" r="0.4949951"/>
			</g>
			<g>
				<circle class="st27" cx="425" cy="91.9246216" r="0.4949951"/>
			</g>
			<g>
				<circle class="st27" cx="425" cy="90.0697632" r="0.4949951"/>
			</g>
			<g>
				<circle class="st27" cx="425" cy="88.2147827" r="0.4949951"/>
			</g>
			<g>
				<circle class="st27" cx="425" cy="86.3599243" r="0.4949951"/>
			</g>
			<g>
				<polygon class="st27" points="428.0539551,96.2612305 427.614502,95.8518066 425.0006104,98.6191406 422.3861084,95.8518066 
					421.9466553,96.2612305 425.0006104,99.5 				"/>
			</g>
		</g>
	</g>
</g>
<g id="Pfeile_L3">
</g>
<g id="Pfeile_L2">
</g>
<g id="Pfeile_L1">
	<g>
		<g>
			<line class="st60" x1="540.2408447" y1="110" x2="520" y2="110"/>
			<g>
				<polygon class="st29" points="537.2214355,106.4370117 536.7438965,106.949707 539.972168,109.9992676 536.7438965,113.0495605 
					537.2214355,113.5622559 541,109.9992676 				"/>
			</g>
		</g>
	</g>
	<g>
		<g>
			<line class="st60" x1="540.2408447" y1="120" x2="520" y2="120"/>
			<g>
				<polygon class="st29" points="537.2214355,116.4370117 536.7438965,116.949707 539.972168,119.9992676 536.7438965,123.0495605 
					537.2214355,123.5622559 541,119.9992676 				"/>
			</g>
		</g>
	</g>
	<g>
		<g>
			<line class="st60" x1="569.2408447" y1="115" x2="557.5" y2="115"/>
			<g>
				<polygon class="st29" points="566.2214355,111.4370117 565.7438965,111.949707 568.972168,114.9992676 565.7438965,118.0495605 
					566.2214355,118.5622559 570,114.9992676 				"/>
			</g>
		</g>
	</g>
	<g>
		<g>
			<line class="st60" x1="469.2408447" y1="110" x2="450" y2="110"/>
			<g>
				<polygon class="st29" points="466.2214355,106.4370117 465.7438965,106.949707 468.972168,109.9992676 465.7438965,113.0495605 
					466.2214355,113.5622559 470,109.9992676 				"/>
			</g>
		</g>
	</g>
	<g>
		<g>
			<line class="st60" x1="469.2408447" y1="120" x2="450" y2="120"/>
			<g>
				<polygon class="st29" points="466.2214355,116.4370117 465.7438965,116.949707 468.972168,119.9992676 465.7438965,123.0495605 
					466.2214355,123.5622559 470,119.9992676 				"/>
			</g>
		</g>
	</g>
	<g>
		<g>
			<line class="st60" x1="399.2408447" y1="110" x2="380" y2="110"/>
			<g>
				<polygon class="st29" points="396.2214355,106.4370117 395.7438965,106.949707 398.972168,109.9992676 395.7438965,113.0495605 
					396.2214355,113.5622559 400,109.9992676 				"/>
			</g>
		</g>
	</g>
	<g>
		<g>
			<line class="st60" x1="65" y1="71.7409668" x2="65" y2="52.5"/>
			<g>
				<polygon class="st29" points="68.5628662,68.7214355 68.0501709,68.2438965 65.0006714,71.472168 61.9505005,68.2438965 
					61.4378052,68.7214355 65.0006714,72.5 				"/>
			</g>
		</g>
	</g>
	<g>
		<g>
			<line class="st60" x1="65" y1="36.2409668" x2="65" y2="20"/>
			<g>
				<polygon class="st29" points="68.5628662,33.2214355 68.0501709,32.7438965 65.0006714,35.972168 61.9505005,32.7438965 
					61.4378052,33.2214355 65.0006714,37 				"/>
			</g>
		</g>
	</g>
	<g>
		<g>
			<line class="st60" x1="399.2408447" y1="120" x2="380" y2="120"/>
			<g>
				<polygon class="st29" points="396.2214355,116.4370117 395.7438965,116.949707 398.972168,119.9992676 395.7438965,123.0495605 
					396.2214355,123.5622559 400,119.9992676 				"/>
			</g>
		</g>
	</g>
	<g>
		<g>
			<line class="st60" x1="349.2408447" y1="110" x2="25" y2="110"/>
			<g>
				<polygon class="st29" points="346.2214355,106.4370117 345.7438965,106.949707 348.972168,109.9992676 345.7438965,113.0495605 
					346.2214355,113.5622559 350,109.9992676 				"/>
			</g>
		</g>
	</g>
	<polyline class="st60" points="50,80 40,80 40,110 	"/>
	<polyline class="st60" points="80,80 90,80 90,120 	"/>
	<g>
		<g>
			<line class="st60" x1="349.2408447" y1="120" x2="25" y2="120"/>
			<g>
				<polygon class="st29" points="346.2214355,116.4370117 345.7438965,116.949707 348.972168,119.9992676 345.7438965,123.0495605 
					346.2214355,123.5622559 350,119.9992676 				"/>
			</g>
		</g>
	</g>
	<line class="st60" x1="95" y1="115" x2="85" y2="125"/>
	<line class="st60" x1="45" y1="105" x2="35" y2="115"/>
	<g>
		<g>
			<line class="st60" x1="140" y1="71.7409668" x2="140" y2="52.5"/>
			<g>
				<polygon class="st29" points="143.5628662,68.7214355 143.0501709,68.2438965 140.0006714,71.472168 136.9505005,68.2438965 
					136.4378052,68.7214355 140.0006714,72.5 				"/>
			</g>
		</g>
	</g>
	<g>
		<g>
			<line class="st60" x1="140" y1="36.2409668" x2="140" y2="20"/>
			<g>
				<polygon class="st29" points="143.5628662,33.2214355 143.0501709,32.7438965 140.0006714,35.972168 136.9505005,32.7438965 
					136.4378052,33.2214355 140.0006714,37 				"/>
			</g>
		</g>
	</g>
	<polyline class="st60" points="125,80 115,80 115,110 	"/>
	<polyline class="st60" points="155,80 165,80 165,120 	"/>
	<line class="st60" x1="170" y1="115" x2="160" y2="125"/>
	<line class="st60" x1="120" y1="105" x2="110" y2="115"/>
	<g>
		<g>
			<line class="st60" x1="214.999939" y1="71.7409668" x2="214.999939" y2="52.5"/>
			<g>
				<polygon class="st29" points="218.5628662,68.7214355 218.0501709,68.2438965 215.0006104,71.472168 211.9504395,68.2438965 
					211.4377441,68.7214355 215.0006104,72.5 				"/>
			</g>
		</g>
	</g>
	<g>
		<g>
			<line class="st60" x1="214.9999542" y1="36.2409668" x2="214.9999542" y2="20"/>
			<g>
				<polygon class="st29" points="218.5628204,33.2214355 218.0501251,32.7438965 215.0006256,35.972168 211.9504547,32.7438965 
					211.4377594,33.2214355 215.0006256,37 				"/>
			</g>
		</g>
	</g>
	<polyline class="st60" points="199.9999542,80 189.9999542,80 189.9999542,110 	"/>
	<polyline class="st60" points="229.9999542,80 239.9999542,80 239.9999542,120 	"/>
	<line class="st60" x1="244.9999542" y1="115" x2="234.9999542" y2="125"/>
	<line class="st60" x1="194.9999542" y1="105" x2="184.9999542" y2="115"/>
	<g>
		<g>
			<line class="st60" x1="290" y1="71.7409668" x2="290" y2="52.5"/>
			<g>
				<polygon class="st29" points="293.5628662,68.7214355 293.0501709,68.2438965 290.0006714,71.472168 286.9505005,68.2438965 
					286.4378052,68.7214355 290.0006714,72.5 				"/>
			</g>
		</g>
	</g>
	<g>
		<g>
			<line class="st60" x1="290" y1="36.2409668" x2="290" y2="20"/>
			<g>
				<polygon class="st29" points="293.5628662,33.2214355 293.0501709,32.7438965 290.0006714,35.972168 286.9505005,32.7438965 
					286.4378052,33.2214355 290.0006714,37 				"/>
			</g>
		</g>
	</g>
	<polyline class="st60" points="275,80 265,80 265,110 	"/>
	<polyline class="st60" points="305,80 315,80 315,120 	"/>
	<line class="st60" x1="320" y1="115" x2="310" y2="125"/>
	<line class="st60" x1="270" y1="105" x2="260" y2="115"/>
</g>
<g id="Punkte">
</g>
<g id="Produkt">
	<g>
		<g>
			<circle class="st28" cx="550" cy="115" r="7.5"/>
			<circle class="st60" cx="550" cy="115" r="7.5"/>
		</g>
		<g>
			<line class="st61" x1="546.75" y1="111.75" x2="553.25" y2="118.25"/>
			<line class="st61" x1="546.75" y1="118.25" x2="553.25" y2="111.75"/>
		</g>
	</g>
	<g>
		<g>
			<circle class="st28" cx="65" cy="45" r="7.5"/>
			<circle class="st60" cx="65" cy="45" r="7.5"/>
		</g>
		<g>
			<line class="st61" x1="61.75" y1="41.75" x2="68.25" y2="48.25"/>
			<line class="st61" x1="61.75" y1="48.25" x2="68.25" y2="41.75"/>
		</g>
	</g>
	<g>
		<g>
			<circle class="st28" cx="140" cy="45" r="7.5"/>
			<circle class="st60" cx="140" cy="45" r="7.5"/>
		</g>
		<g>
			<line class="st61" x1="136.75" y1="41.75" x2="143.25" y2="48.25"/>
			<line class="st61" x1="136.75" y1="48.25" x2="143.25" y2="41.75"/>
		</g>
	</g>
	<g>
		<g>
			<circle class="st28" cx="214.9999542" cy="45" r="7.5"/>
			<circle class="st60" cx="214.9999542" cy="45" r="7.5"/>
		</g>
		<g>
			<line class="st61" x1="211.7499542" y1="41.75" x2="218.2499542" y2="48.25"/>
			<line class="st61" x1="211.7499542" y1="48.25" x2="218.2499542" y2="41.75"/>
		</g>
	</g>
	<g>
		<g>
			<circle class="st28" cx="290" cy="45" r="7.5"/>
			<circle class="st60" cx="290" cy="45" r="7.5"/>
		</g>
		<g>
			<line class="st61" x1="286.75" y1="41.75" x2="293.25" y2="48.25"/>
			<line class="st61" x1="286.75" y1="48.25" x2="293.25" y2="41.75"/>
		</g>
	</g>
</g>
<g id="Typo_E4">
</g>
<g id="Label_UI">
</g>
<g id="Label_UI_Heller">
</g>
<g id="UI_Controls_Rahmen">
	<g>
		<path class="st67" d="M494.5830078,167c1.1000061,0,2,0.9000244,2,2v4c0,1.0999756-0.8999939,2-2,2h-8
			c-1.1000061,0-2-0.9000244-2-2v-4c0-1.0999756,0.8999939-2,2-2H494.5830078 M494.5830078,166h-8c-1.6542053,0-3,1.3457642-3,3v4
			c0,1.6542358,1.3457947,3,3,3h8c1.6542053,0,3-1.3457642,3-3v-4C497.5830078,167.3457642,496.2372131,166,494.5830078,166
			L494.5830078,166z"/>
	</g>
</g>
<g id="Typo_E_2.5">
	<path class="st64" d="M437,85h-24c-1.6568604,0-3-1.3431473-3-3v-4c0-1.6500015,1.3500061-3,3-3h24c1.6499939,0,3,1.3499985,3,3v4
		C440,83.6568527,438.6568604,85,437,85z"/>
	<g>
		<path class="st16" d="M414.2480469,77.90625h0.5888672v2.3046875h0.0136719l1.9121094-2.3046875h0.6650391l-1.4423828,1.75
			L417.6455078,82.5h-0.6513672l-1.3730469-2.3876953l-0.7841797,0.9306641V82.5h-0.5888672V77.90625z"/>
		<path class="st16" d="M419.4638672,79.0126953c0.8681641,0,1.3583984,0.6230469,1.3583984,1.5966797
			c0,0.1191406-0.0068359,0.2314453-0.0205078,0.3154297h-2.296875c0.0419922,0.7353516,0.4824219,1.1972656,1.1337891,1.1972656
			c0.3222656,0,0.5957031-0.1044922,0.8476562-0.2666016l0.203125,0.3789062
			c-0.2939453,0.1894531-0.6582031,0.3496094-1.1201172,0.3496094c-0.9111328,0-1.6318359-0.6650391-1.6318359-1.7783203
			C417.9375,79.6914062,418.6865234,79.0126953,419.4638672,79.0126953z M420.3183594,80.546875
			c0-0.6933594-0.3076172-1.0791016-0.8408203-1.0791016c-0.4755859,0-0.9101562,0.3916016-0.9804688,1.0791016H420.3183594z"/>
		<path class="st16" d="M421.7246094,83.4882812c0.3847656,0,0.6298828-0.3085938,0.7695312-0.7285156l0.0771484-0.2519531
			l-1.3652344-3.4111328h0.5947266l0.6933594,1.8837891c0.1054688,0.2949219,0.2246094,0.6445312,0.3300781,0.9589844h0.0273438
			c0.0986328-0.3076172,0.1962891-0.6582031,0.2871094-0.9589844l0.609375-1.8837891h0.5605469l-1.2822266,3.6845703
			c-0.2373047,0.671875-0.5878906,1.1835938-1.2744141,1.1835938c-0.1542969,0-0.2871094-0.0292969-0.3994141-0.0703125
			l0.1123047-0.4550781C421.5351562,83.4599609,421.6396484,83.4882812,421.7246094,83.4882812z"/>
		<path class="st16" d="M426.4140625,77.90625h1.4140625c1.015625,0,1.6953125,0.3427734,1.6953125,1.3515625
			c0,0.9667969-0.6933594,1.421875-1.6953125,1.421875h-0.8261719V82.5h-0.5878906V77.90625z M427.7519531,80.203125
			c0.8046875,0,1.1904297-0.2939453,1.1904297-0.9453125c0-0.6660156-0.3994141-0.8828125-1.1904297-0.8828125h-0.75v1.828125
			H427.7519531z"/>
		<path class="st16" d="M431.53125,79.0126953c0.8339844,0,1.5761719,0.6513672,1.5761719,1.7929688
			c0,1.1279297-0.7421875,1.7783203-1.5761719,1.7783203c-0.8330078,0-1.5751953-0.6503906-1.5751953-1.7783203
			C429.9560547,79.6640625,430.6982422,79.0126953,431.53125,79.0126953z M431.53125,82.1083984
			c0.5888672,0,0.9804688-0.5253906,0.9804688-1.3027344c0-0.7841797-0.3916016-1.3173828-0.9804688-1.3173828
			c-0.5810547,0-0.9804688,0.5332031-0.9804688,1.3173828C430.5507812,81.5830078,430.9501953,82.1083984,431.53125,82.1083984z"/>
		<path class="st16" d="M433.9111328,81.7304688c0.2939453,0.2382812,0.5947266,0.40625,1.0009766,0.40625
			c0.4482422,0,0.6728516-0.2382812,0.6728516-0.5332031c0-0.3496094-0.40625-0.5039062-0.7773438-0.6445312
			c-0.4833984-0.1738281-1.015625-0.40625-1.015625-0.9804688c0-0.5458984,0.4335938-0.9658203,1.1689453-0.9658203
			c0.4277344,0,0.7988281,0.1748047,1.0576172,0.3857422l-0.2724609,0.3632812
			c-0.2314453-0.1748047-0.4765625-0.3007812-0.7773438-0.3007812c-0.4277344,0-0.6240234,0.2304688-0.6240234,0.4902344
			c0,0.3144531,0.3710938,0.4414062,0.7568359,0.5878906c0.4902344,0.1826172,1.0361328,0.3857422,1.0361328,1.0292969
			c0,0.5537109-0.4414062,1.015625-1.2460938,1.015625c-0.4833984,0-0.9462891-0.203125-1.2675781-0.46875L433.9111328,81.7304688z"
			/>
	</g>
</g>
<g id="Typo_E_2.5_Heller">
</g>
<g id="Typo_No_BG_2">
</g>
<g id="Typo_No_BG_1">
	<g>
		<path class="st29" d="M540.7832031,94.09375h0.7568359v5.265625h2.5742188v0.6396484h-3.3310547V94.09375z"/>
		<path class="st29" d="M546.5976562,95.515625c1.1162109,0,1.7460938,0.8007812,1.7460938,2.0527344
			c0,0.1523438-0.0087891,0.296875-0.0263672,0.4052734h-2.953125c0.0537109,0.9443359,0.6210938,1.5390625,1.4580078,1.5390625
			c0.4150391,0,0.765625-0.1347656,1.0898438-0.3417969l0.2607422,0.4853516
			c-0.3779297,0.2441406-0.8457031,0.4511719-1.4404297,0.4511719c-1.1699219,0-2.0976562-0.8554688-2.0976562-2.2871094
			S545.5986328,95.515625,546.5976562,95.515625z M547.6962891,97.4873047c0-0.8916016-0.3964844-1.3857422-1.0810547-1.3857422
			c-0.6113281,0-1.1699219,0.5039062-1.2597656,1.3857422H547.6962891z"/>
		<path class="st29" d="M548.8378906,95.6230469h0.7646484l0.8291016,2.4853516
			c0.1259766,0.4326172,0.2695312,0.8740234,0.4042969,1.2880859h0.0361328
			c0.1259766-0.4140625,0.2705078-0.8554688,0.3964844-1.2880859l0.828125-2.4853516h0.7294922l-1.5488281,4.3759766h-0.8642578
			L548.8378906,95.6230469z"/>
		<path class="st29" d="M555.2734375,95.515625c1.1162109,0,1.7460938,0.8007812,1.7460938,2.0527344
			c0,0.1523438-0.0087891,0.296875-0.0263672,0.4052734h-2.953125c0.0537109,0.9443359,0.6210938,1.5390625,1.4580078,1.5390625
			c0.4150391,0,0.765625-0.1347656,1.0898438-0.3417969l0.2607422,0.4853516
			c-0.3779297,0.2441406-0.8457031,0.4511719-1.4404297,0.4511719c-1.1699219,0-2.0976562-0.8554688-2.0976562-2.2871094
			S554.2744141,95.515625,555.2734375,95.515625z M556.3720703,97.4873047c0-0.8916016-0.3964844-1.3857422-1.0810547-1.3857422
			c-0.6113281,0-1.1699219,0.5039062-1.2597656,1.3857422H556.3720703z"/>
		<path class="st29" d="M558.0986328,93.5898438h0.7382812v5.5810547c0,0.2333984,0.0996094,0.3232422,0.2070312,0.3232422
			c0.0449219,0,0.0810547,0,0.1621094-0.0175781l0.0986328,0.5585938c-0.0986328,0.0449219-0.2246094,0.0722656-0.4228516,0.0722656
			c-0.5576172,0-0.7832031-0.3515625-0.7832031-0.9902344V93.5898438z"/>
	</g>
</g>
<g id="Typo_E2">
	<path class="st66" d="M107,50H88c-1.6568527,0-3-1.3431435-3-3v-4c0-1.6499977,1.3500061-3,3-3h19c1.6500015,0,3,1.3500023,3,3v4
		C110,48.6568565,108.6568604,50,107,50z"/>
	<g>
		<path class="st67" d="M107,40.0007324c1.6499634,0,3,1.3498535,3,3v4c0,1.6499023-1.3500366,3-3,3H88
			c-1.6499634,0-3-1.3500977-3-3v-4c0-1.6501465,1.3500366-3,3-3H107 M107,39.0007324H88c-2.2056274,0-4,1.7944336-4,4v4
			c0,2.2055664,1.7943726,4,4,4h19c2.2056274,0,4-1.7944336,4-4v-4C111,40.795166,109.2056274,39.0007324,107,39.0007324
			L107,39.0007324z"/>
	</g>
	<g>
		<path class="st19" d="M98.3271484,46.0986328h-1.6738281L96.2119141,47.5h-0.5947266l1.5546875-4.5947266h0.6582031
			L99.3847656,47.5h-0.6162109L98.3271484,46.0986328z M98.1806641,45.6298828l-0.2177734-0.7001953
			c-0.1611328-0.5117188-0.3076172-1.015625-0.4550781-1.5478516h-0.0283203
			c-0.1464844,0.5322266-0.2939453,1.0361328-0.4550781,1.5478516l-0.2236328,0.7001953H98.1806641z"/>
	</g>
	<path class="st66" d="M182,50h-19c-1.6568451,0-3-1.3431435-3-3v-4c0-1.6499977,1.3500061-3,3-3h19c1.6500092,0,3,1.3500023,3,3v4
		C185,48.6568565,183.6568604,50,182,50z"/>
	<g>
		<path class="st67" d="M182,40.0007324c1.6499634,0,3,1.3498535,3,3v4c0,1.6499023-1.3500366,3-3,3h-19
			c-1.6499634,0-3-1.3500977-3-3v-4c0-1.6501465,1.3500366-3,3-3H182 M182,39.0007324h-19c-2.2056274,0-4,1.7944336-4,4v4
			c0,2.2055664,1.7943726,4,4,4h19c2.2056274,0,4-1.7944336,4-4v-4C186,40.795166,184.2056274,39.0007324,182,39.0007324
			L182,39.0007324z"/>
	</g>
	<g>
		<path class="st19" d="M171.0693359,42.9052734h1.3652344c0.9316406,0,1.5830078,0.3154297,1.5830078,1.1210938
			c0,0.4550781-0.2587891,0.8613281-0.8056641,1.0009766v0.0283203c0.6728516,0.1044922,1.0644531,0.46875,1.0644531,1.0996094
			c0,0.9033203-0.7138672,1.3447266-1.7363281,1.3447266h-1.4707031V42.9052734z M172.3369141,44.8662109
			c0.7773438,0,1.1064453-0.2802734,1.1064453-0.7910156c0-0.4970703-0.3710938-0.7080078-1.078125-0.7080078h-0.7080078v1.4990234
			H172.3369141z M172.4560547,47.0371094c0.7841797,0,1.2460938-0.2871094,1.2460938-0.9101562
			c0-0.5673828-0.4404297-0.8261719-1.2460938-0.8261719h-0.7988281v1.7363281H172.4560547z"/>
	</g>
	<path class="st66" d="M257,50h-19.0000458c-1.6568451,0-3-1.3431435-3-3v-4c0-1.6499977,1.3500061-3,3-3H257
		c1.6499939,0,3,1.3500023,3,3v4C260,48.6568565,258.6568604,50,257,50z"/>
	<g>
		<path class="st67" d="M257,40.0007324c1.6499634,0,3,1.3498535,3,3v4c0,1.6499023-1.3500366,3-3,3h-19
			c-1.6500244,0-3-1.3500977-3-3v-4c0-1.6501465,1.3499756-3,3-3H257 M257,39.0007324h-19c-2.2056274,0-4,1.7944336-4,4v4
			c0,2.2055664,1.7943726,4,4,4h19c2.2056274,0,4-1.7944336,4-4v-4C261,40.795166,259.2056274,39.0007324,257,39.0007324
			L257,39.0007324z"/>
	</g>
	<g>
		<path class="st19" d="M241.1738281,42.8212891c0.5458984,0,0.9804688,0.265625,1.2529297,0.5673828l-0.3291016,0.3710938
			c-0.2451172-0.2587891-0.5390625-0.4277344-0.9169922-0.4277344c-0.8759766,0-1.4570312,0.7148438-1.4570312,1.8564453
			c0,1.1552734,0.5537109,1.8837891,1.4287109,1.8837891c0.4345703,0,0.7568359-0.1816406,1.0507812-0.5107422l0.3291016,0.3564453
			c-0.3574219,0.4208984-0.8125,0.6660156-1.3935547,0.6660156c-1.15625,0-2.0175781-0.8828125-2.0175781-2.3818359
			C239.1210938,43.7246094,239.9970703,42.8212891,241.1738281,42.8212891z"/>
		<path class="st19" d="M244.6376953,44.0117188c0.8339844,0,1.5761719,0.6513672,1.5761719,1.7929688
			c0,1.1279297-0.7421875,1.7792969-1.5761719,1.7792969c-0.8330078,0-1.5751953-0.6513672-1.5751953-1.7792969
			C243.0625,44.6630859,243.8046875,44.0117188,244.6376953,44.0117188z M244.6376953,47.1074219
			c0.5888672,0,0.9804688-0.5253906,0.9804688-1.3027344c0-0.7841797-0.3916016-1.3164062-0.9804688-1.3164062
			c-0.5810547,0-0.9804688,0.5322266-0.9804688,1.3164062C243.6572266,46.5820312,244.0566406,47.1074219,244.6376953,47.1074219z"
			/>
		<path class="st19" d="M247.1083984,44.0957031h0.4765625l0.0488281,0.4902344h0.0205078
			c0.2939453-0.3222656,0.6513672-0.5742188,1.0576172-0.5742188c0.5185547,0,0.7988281,0.2451172,0.9384766,0.6513672
			c0.3574219-0.3847656,0.7080078-0.6513672,1.1210938-0.6513672c0.7001953,0,1.0361328,0.4628906,1.0361328,1.3310547V47.5
			h-0.5742188v-2.0800781c0-0.6376953-0.203125-0.9111328-0.6298828-0.9111328
			c-0.2666016,0-0.5400391,0.1757812-0.8544922,0.5253906V47.5h-0.5742188v-2.0800781
			c0-0.6376953-0.203125-0.9111328-0.6376953-0.9111328c-0.2519531,0-0.5390625,0.1757812-0.8544922,0.5253906V47.5h-0.5742188
			V44.0957031z"/>
		<path class="st19" d="M252.9111328,42.5126953h0.5742188v1.359375l-0.0136719,0.6162109
			c0.3085938-0.2734375,0.6865234-0.4765625,1.0644531-0.4765625c0.8828125,0,1.3515625,0.6796875,1.3515625,1.7304688
			c0,1.1621094-0.6933594,1.8417969-1.4707031,1.8417969c-0.3144531,0-0.671875-0.1542969-0.9736328-0.4199219h-0.0205078
			L253.3740234,47.5h-0.4628906V42.5126953z M254.3193359,47.1005859c0.5605469,0,0.9736328-0.5117188,0.9736328-1.3515625
			c0-0.75-0.2519531-1.2539062-0.8964844-1.2539062c-0.2871094,0-0.5888672,0.1611328-0.9111328,0.4619141v1.7861328
			C253.7871094,47.0029297,254.0947266,47.1005859,254.3193359,47.1005859z"/>
	</g>
	<path class="st66" d="M332,50h-19c-1.6568604,0-3-1.3431435-3-3v-4c0-1.6499977,1.3500061-3,3-3h19c1.6499939,0,3,1.3500023,3,3v4
		C335,48.6568565,333.6568604,50,332,50z"/>
	<g>
		<path class="st67" d="M332,40.0007324c1.6500244,0,3,1.3498535,3,3v4c0,1.6499023-1.3499756,3-3,3h-19
			c-1.6499634,0-3-1.3500977-3-3v-4c0-1.6501465,1.3500366-3,3-3H332 M332,39.0007324h-19c-2.2056274,0-4,1.7944336-4,4v4
			c0,2.2055664,1.7943726,4,4,4h19c2.2055664,0,4-1.7944336,4-4v-4C336,40.795166,334.2055664,39.0007324,332,39.0007324
			L332,39.0007324z"/>
	</g>
	<g>
		<path class="st19" d="M317.7822266,46.4980469c0.3291016,0.34375,0.7841797,0.5742188,1.2675781,0.5742188
			c0.6025391,0,0.9599609-0.3007812,0.9599609-0.7490234c0-0.4697266-0.3359375-0.6162109-0.7705078-0.8125l-0.6582031-0.2871094
			c-0.4277344-0.1826172-0.9316406-0.5117188-0.9316406-1.1835938c0-0.7001953,0.6162109-1.21875,1.4501953-1.21875
			c0.5458984,0,1.0292969,0.2314453,1.3515625,0.5673828l-0.3085938,0.3779297
			c-0.2802734-0.265625-0.6230469-0.4345703-1.0429688-0.4345703c-0.5185547,0-0.8623047,0.2597656-0.8623047,0.6728516
			c0,0.4414062,0.40625,0.609375,0.7636719,0.7636719l0.6582031,0.2802734
			c0.5322266,0.2304688,0.9453125,0.5458984,0.9453125,1.2255859c0,0.7285156-0.6015625,1.3095703-1.5683594,1.3095703
			c-0.6445312,0-1.2050781-0.2666016-1.6035156-0.6796875L317.7822266,46.4980469z"/>
		<path class="st19" d="M320.8408203,42.9052734h0.6171875l0.7421875,2.4794922
			c0.1611328,0.5458984,0.2724609,0.9804688,0.4414062,1.5195312h0.0273438
			c0.1679688-0.5390625,0.2871094-0.9736328,0.4414062-1.5195312l0.7353516-2.4794922h0.5957031L322.984375,47.5h-0.6796875
			L320.8408203,42.9052734z"/>
		<path class="st19" d="M325.0341797,42.9052734h2.6542969v0.4902344h-2.0654297v1.5546875h1.7509766v0.4902344h-1.7509766V47.5
			h-0.5888672V42.9052734z"/>
	</g>
</g>
<g id="Typo_E1">
	<g>
		<path class="st29" d="M411.6728516,116.0488281c0.4462891,0.4658203,1.0644531,0.7792969,1.7207031,0.7792969
			c0.8173828,0,1.3017578-0.4091797,1.3017578-1.0175781c0-0.6367188-0.4560547-0.8359375-1.0449219-1.1025391l-0.8935547-0.3896484
			c-0.5800781-0.2470703-1.2646484-0.6943359-1.2646484-1.6064453c0-0.9501953,0.8369141-1.6542969,1.9677734-1.6542969
			c0.7412109,0,1.3974609,0.3134766,1.8349609,0.7705078l-0.4189453,0.5126953
			c-0.3798828-0.3613281-0.8457031-0.5888672-1.4160156-0.5888672c-0.703125,0-1.1689453,0.3515625-1.1689453,0.9121094
			c0,0.5996094,0.5507812,0.8271484,1.0361328,1.0361328l0.8935547,0.3808594
			c0.7216797,0.3134766,1.2832031,0.7412109,1.2832031,1.6630859c0,0.9892578-0.8173828,1.7783203-2.1298828,1.7783203
			c-0.8740234,0-1.6347656-0.3613281-2.1767578-0.9228516L411.6728516,116.0488281z"/>
		<path class="st29" d="M416.6220703,110.6396484h0.7792969v1.84375l-0.0283203,0.9511719
			c0.4375-0.4189453,0.9033203-0.7607422,1.5400391-0.7607422c0.9697266,0,1.4072266,0.6269531,1.4072266,1.8066406v2.9277344
			h-0.7802734v-2.8232422c0-0.8652344-0.265625-1.2363281-0.8740234-1.2363281
			c-0.4755859,0-0.7988281,0.2470703-1.2646484,0.7128906v3.3466797h-0.7792969V110.6396484z"/>
		<path class="st29" d="M424.4042969,114.4804688c0-0.5898438-0.1992188-1.1601562-0.9511719-1.1601562
			c-0.5410156,0-1.0166016,0.2470703-1.3779297,0.4941406l-0.3134766-0.5419922
			c0.4277344-0.2753906,1.0742188-0.5986328,1.8154297-0.5986328c1.1308594,0,1.6064453,0.7509766,1.6064453,1.9013672v2.8330078
			h-0.6464844l-0.0664062-0.5517578h-0.0185547c-0.4472656,0.3613281-0.9609375,0.6660156-1.53125,0.6660156
			c-0.7792969,0-1.359375-0.4853516-1.359375-1.3125C421.5615234,115.2021484,422.4365234,114.6982422,424.4042969,114.4804688z
			 M423.1396484,116.8945312c0.4472656,0,0.8173828-0.21875,1.2646484-0.6181641v-1.2832031
			c-1.5498047,0.1904297-2.0722656,0.5703125-2.0722656,1.1601562
			C422.3320312,116.6757812,422.6835938,116.8945312,423.1396484,116.8945312z"/>
		<path class="st29" d="M427.4335938,117.7978516v1.5585938h-0.7802734v-6.5683594h0.6464844l0.0673828,0.5322266h0.0283203
			c0.4179688-0.3515625,0.9316406-0.6464844,1.4736328-0.6464844c1.1875,0,1.8251953,0.921875,1.8251953,2.3574219
			c0,1.5683594-0.9414062,2.4912109-1.9970703,2.4912109c-0.4277344,0-0.8554688-0.2001953-1.2832031-0.5332031
			L427.4335938,117.7978516z M428.5644531,116.8662109c0.7607422,0,1.3212891-0.6943359,1.3212891-1.8349609
			c0-1.0166016-0.3417969-1.7011719-1.2167969-1.7011719c-0.3896484,0-0.7792969,0.21875-1.2353516,0.6269531v2.4238281
			C427.8515625,116.7333984,428.2607422,116.8662109,428.5644531,116.8662109z"/>
		<path class="st29" d="M433.65625,112.6738281c1.1787109,0,1.8447266,0.8457031,1.8447266,2.1669922
			c0,0.1621094-0.0097656,0.3144531-0.0292969,0.4287109h-3.1171875c0.0566406,0.9980469,0.6552734,1.625,1.5390625,1.625
			c0.4375,0,0.8085938-0.1425781,1.1503906-0.3613281l0.2763672,0.5136719
			c-0.3994141,0.2568359-0.8935547,0.4755859-1.5214844,0.4755859c-1.2353516,0-2.2148438-0.9033203-2.2148438-2.4150391
			S432.6015625,112.6738281,433.65625,112.6738281z M434.8164062,114.7558594c0-0.9414062-0.4189453-1.4638672-1.140625-1.4638672
			c-0.6464844,0-1.2363281,0.5322266-1.3310547,1.4638672H434.8164062z"/>
		<path class="st29" d="M436.6376953,112.7880859h0.6464844l0.0673828,0.8359375h0.0283203
			c0.3134766-0.5791016,0.7890625-0.9501953,1.3115234-0.9501953c0.2001953,0,0.3427734,0.0283203,0.4941406,0.0947266
			l-0.1513672,0.6845703c-0.1523438-0.046875-0.2568359-0.0761719-0.4472656-0.0761719
			c-0.3896484,0-0.8554688,0.2851562-1.1689453,1.0654297v2.9658203h-0.7802734V112.7880859z"/>
	</g>
	<g>
		<path class="st29" d="M358.2890625,111.171875h1.9199219c1.3779297,0,2.3007812,0.4658203,2.3007812,1.8349609
			c0,1.3115234-0.9414062,1.9296875-2.3007812,1.9296875h-1.1220703v2.4716797h-0.7978516V111.171875z M360.1044922,114.2900391
			c1.0927734,0,1.6162109-0.3994141,1.6162109-1.2832031c0-0.9033203-0.5419922-1.1982422-1.6162109-1.1982422h-1.0175781v2.4814453
			H360.1044922z"/>
		<path class="st29" d="M365.8710938,114.4804688c0-0.5898438-0.1992188-1.1601562-0.9501953-1.1601562
			c-0.5419922,0-1.0175781,0.2470703-1.3779297,0.4941406l-0.3144531-0.5419922
			c0.4277344-0.2753906,1.0742188-0.5986328,1.8164062-0.5986328c1.1308594,0,1.6064453,0.7509766,1.6064453,1.9013672v2.8330078
			h-0.6464844l-0.0664062-0.5517578h-0.0195312c-0.4462891,0.3613281-0.9599609,0.6660156-1.5302734,0.6660156
			c-0.7792969,0-1.359375-0.4853516-1.359375-1.3125C363.0292969,115.2021484,363.9033203,114.6982422,365.8710938,114.4804688z
			 M364.6074219,116.8945312c0.4462891,0,0.8173828-0.21875,1.2636719-0.6181641v-1.2832031
			c-1.5488281,0.1904297-2.0722656,0.5703125-2.0722656,1.1601562
			C363.7988281,116.6757812,364.1513672,116.8945312,364.6074219,116.8945312z"/>
		<path class="st29" d="M368.1210938,112.7880859h0.6464844l0.0664062,0.6650391h0.0283203
			c0.4375-0.4375,0.9130859-0.7792969,1.5498047-0.7792969c0.9697266,0,1.4072266,0.6269531,1.4072266,1.8066406v2.9277344
			h-0.7802734v-2.8232422c0-0.8652344-0.265625-1.2363281-0.8740234-1.2363281
			c-0.4755859,0-0.7988281,0.2470703-1.2646484,0.7128906v3.3466797h-0.7792969V112.7880859z"/>
	</g>
	<g>
		<path class="st29" d="M283.2890625,77.171875h1.9199219c1.3779297,0,2.3007812,0.4658203,2.3007812,1.8349609
			c0,1.3115234-0.9414062,1.9296875-2.3007812,1.9296875h-1.1220703v2.4716797h-0.7978516V77.171875z M285.1044922,80.2900391
			c1.0927734,0,1.6162109-0.3994141,1.6162109-1.2832031c0-0.9033203-0.5419922-1.1982422-1.6162109-1.1982422h-1.0175781v2.4814453
			H285.1044922z"/>
		<path class="st29" d="M290.8710938,80.4804688c0-0.5898438-0.1992188-1.1601562-0.9501953-1.1601562
			c-0.5419922,0-1.0175781,0.2470703-1.3779297,0.4941406l-0.3144531-0.5419922
			c0.4277344-0.2753906,1.0742188-0.5986328,1.8164062-0.5986328c1.1308594,0,1.6064453,0.7509766,1.6064453,1.9013672v2.8330078
			h-0.6464844l-0.0664062-0.5517578h-0.0195312c-0.4462891,0.3613281-0.9599609,0.6660156-1.5302734,0.6660156
			c-0.7792969,0-1.359375-0.4853516-1.359375-1.3125C288.0292969,81.2021484,288.9033203,80.6982422,290.8710938,80.4804688z
			 M289.6074219,82.8945312c0.4462891,0,0.8173828-0.21875,1.2636719-0.6181641v-1.2832031
			c-1.5488281,0.1904297-2.0722656,0.5703125-2.0722656,1.1601562
			C288.7988281,82.6757812,289.1513672,82.8945312,289.6074219,82.8945312z"/>
		<path class="st29" d="M293.1210938,78.7880859h0.6464844l0.0664062,0.6650391h0.0283203
			c0.4375-0.4375,0.9130859-0.7792969,1.5498047-0.7792969c0.9697266,0,1.4072266,0.6269531,1.4072266,1.8066406v2.9277344
			h-0.7802734v-2.8232422c0-0.8652344-0.265625-1.2363281-0.8740234-1.2363281
			c-0.4755859,0-0.7988281,0.2470703-1.2646484,0.7128906v3.3466797h-0.7792969V78.7880859z"/>
	</g>
	<g>
		<path class="st29" d="M208.2890625,77.171875h1.9199219c1.3779297,0,2.3007812,0.4658203,2.3007812,1.8349609
			c0,1.3115234-0.9414062,1.9296875-2.3007812,1.9296875h-1.1220703v2.4716797h-0.7978516V77.171875z M210.1044922,80.2900391
			c1.0927734,0,1.6162109-0.3994141,1.6162109-1.2832031c0-0.9033203-0.5419922-1.1982422-1.6162109-1.1982422h-1.0175781v2.4814453
			H210.1044922z"/>
		<path class="st29" d="M215.8710938,80.4804688c0-0.5898438-0.1992188-1.1601562-0.9501953-1.1601562
			c-0.5419922,0-1.0175781,0.2470703-1.3779297,0.4941406l-0.3144531-0.5419922
			c0.4277344-0.2753906,1.0742188-0.5986328,1.8164062-0.5986328c1.1308594,0,1.6064453,0.7509766,1.6064453,1.9013672v2.8330078
			h-0.6464844l-0.0664062-0.5517578h-0.0195312c-0.4462891,0.3613281-0.9599609,0.6660156-1.5302734,0.6660156
			c-0.7792969,0-1.359375-0.4853516-1.359375-1.3125C213.0292969,81.2021484,213.9033203,80.6982422,215.8710938,80.4804688z
			 M214.6074219,82.8945312c0.4462891,0,0.8173828-0.21875,1.2636719-0.6181641v-1.2832031
			c-1.5488281,0.1904297-2.0722656,0.5703125-2.0722656,1.1601562
			C213.7988281,82.6757812,214.1513672,82.8945312,214.6074219,82.8945312z"/>
		<path class="st29" d="M218.1210938,78.7880859h0.6464844l0.0664062,0.6650391h0.0283203
			c0.4375-0.4375,0.9130859-0.7792969,1.5498047-0.7792969c0.9697266,0,1.4072266,0.6269531,1.4072266,1.8066406v2.9277344
			h-0.7802734v-2.8232422c0-0.8652344-0.265625-1.2363281-0.8740234-1.2363281
			c-0.4755859,0-0.7988281,0.2470703-1.2646484,0.7128906v3.3466797h-0.7792969V78.7880859z"/>
	</g>
	<g>
		<path class="st29" d="M133.2890625,77.171875h1.9199219c1.3779297,0,2.3007812,0.4658203,2.3007812,1.8349609
			c0,1.3115234-0.9414062,1.9296875-2.3007812,1.9296875h-1.1220703v2.4716797h-0.7978516V77.171875z M135.1044922,80.2900391
			c1.0927734,0,1.6162109-0.3994141,1.6162109-1.2832031c0-0.9033203-0.5419922-1.1982422-1.6162109-1.1982422h-1.0175781v2.4814453
			H135.1044922z"/>
		<path class="st29" d="M140.8710938,80.4804688c0-0.5898438-0.1992188-1.1601562-0.9501953-1.1601562
			c-0.5419922,0-1.0175781,0.2470703-1.3779297,0.4941406l-0.3144531-0.5419922
			c0.4277344-0.2753906,1.0742188-0.5986328,1.8164062-0.5986328c1.1308594,0,1.6064453,0.7509766,1.6064453,1.9013672v2.8330078
			h-0.6464844l-0.0664062-0.5517578h-0.0195312c-0.4462891,0.3613281-0.9599609,0.6660156-1.5302734,0.6660156
			c-0.7792969,0-1.359375-0.4853516-1.359375-1.3125C138.0292969,81.2021484,138.9033203,80.6982422,140.8710938,80.4804688z
			 M139.6074219,82.8945312c0.4462891,0,0.8173828-0.21875,1.2636719-0.6181641v-1.2832031
			c-1.5488281,0.1904297-2.0722656,0.5703125-2.0722656,1.1601562
			C138.7988281,82.6757812,139.1513672,82.8945312,139.6074219,82.8945312z"/>
		<path class="st29" d="M143.1210938,78.7880859h0.6464844l0.0664062,0.6650391h0.0283203
			c0.4375-0.4375,0.9130859-0.7792969,1.5498047-0.7792969c0.9697266,0,1.4072266,0.6269531,1.4072266,1.8066406v2.9277344
			h-0.7802734v-2.8232422c0-0.8652344-0.265625-1.2363281-0.8740234-1.2363281
			c-0.4755859,0-0.7988281,0.2470703-1.2646484,0.7128906v3.3466797h-0.7792969V78.7880859z"/>
	</g>
	<g>
		<path class="st29" d="M58.2890625,77.171875h1.9199219c1.3779297,0,2.3007812,0.4658203,2.3007812,1.8349609
			c0,1.3115234-0.9414062,1.9296875-2.3007812,1.9296875h-1.1220703v2.4716797h-0.7978516V77.171875z M60.1044922,80.2900391
			c1.0927734,0,1.6162109-0.3994141,1.6162109-1.2832031c0-0.9033203-0.5419922-1.1982422-1.6162109-1.1982422h-1.0175781v2.4814453
			H60.1044922z"/>
		<path class="st29" d="M65.8710938,80.4804688c0-0.5898438-0.1992188-1.1601562-0.9501953-1.1601562
			c-0.5419922,0-1.0175781,0.2470703-1.3779297,0.4941406l-0.3144531-0.5419922
			c0.4277344-0.2753906,1.0742188-0.5986328,1.8164062-0.5986328c1.1308594,0,1.6064453,0.7509766,1.6064453,1.9013672v2.8330078
			h-0.6464844l-0.0664062-0.5517578h-0.0195312c-0.4462891,0.3613281-0.9599609,0.6660156-1.5302734,0.6660156
			c-0.7792969,0-1.359375-0.4853516-1.359375-1.3125C63.0292969,81.2021484,63.9033203,80.6982422,65.8710938,80.4804688z
			 M64.6074219,82.8945312c0.4462891,0,0.8173828-0.21875,1.2636719-0.6181641v-1.2832031
			c-1.5488281,0.1904297-2.0722656,0.5703125-2.0722656,1.1601562
			C63.7988281,82.6757812,64.1513672,82.8945312,64.6074219,82.8945312z"/>
		<path class="st29" d="M68.1210938,78.7880859h0.6464844l0.0664062,0.6650391h0.0283203
			c0.4375-0.4375,0.9130859-0.7792969,1.5498047-0.7792969c0.9697266,0,1.4072266,0.6269531,1.4072266,1.8066406v2.9277344
			h-0.7802734v-2.8232422c0-0.8652344-0.265625-1.2363281-0.8740234-1.2363281
			c-0.4755859,0-0.7988281,0.2470703-1.2646484,0.7128906v3.3466797h-0.7792969V78.7880859z"/>
	</g>
	<g>
		<path class="st29" d="M476.7890625,111.171875H477.625l1.0078125,3.3652344
			c0.21875,0.7412109,0.3710938,1.3310547,0.5996094,2.0625h0.0371094c0.2285156-0.7314453,0.390625-1.3212891,0.5996094-2.0625
			l0.9980469-3.3652344h0.8076172l-1.9765625,6.2363281h-0.9228516L476.7890625,111.171875z"/>
		<path class="st29" d="M484.0869141,112.6738281c1.1308594,0,2.1386719,0.8837891,2.1386719,2.4335938
			c0,1.5302734-1.0078125,2.4150391-2.1386719,2.4150391c-1.1318359,0-2.1386719-0.8847656-2.1386719-2.4150391
			C481.9482422,113.5576172,482.9550781,112.6738281,484.0869141,112.6738281z M484.0869141,116.8759766
			c0.7978516,0,1.3310547-0.7128906,1.3310547-1.7685547c0-1.0644531-0.5332031-1.7871094-1.3310547-1.7871094
			c-0.7890625,0-1.3310547,0.7226562-1.3310547,1.7871094C482.7558594,116.1630859,483.2978516,116.8759766,484.0869141,116.8759766
			z"/>
		<path class="st29" d="M487.2958984,111.3330078c0-0.3037109,0.2382812-0.5029297,0.5419922-0.5029297
			c0.3046875,0,0.5419922,0.1992188,0.5419922,0.5029297c0,0.2949219-0.2373047,0.5039062-0.5419922,0.5039062
			C487.5341797,111.8369141,487.2958984,111.6279297,487.2958984,111.3330078z M487.4384766,112.7880859h0.7802734v4.6201172
			h-0.7802734V112.7880859z"/>
		<path class="st29" d="M491.6582031,112.6738281c0.6083984,0,1.0361328,0.2568359,1.3496094,0.5517578l-0.3896484,0.5039062
			c-0.2753906-0.2382812-0.5605469-0.4091797-0.9316406-0.4091797c-0.8369141,0-1.4453125,0.7226562-1.4453125,1.7871094
			c0,1.0556641,0.5800781,1.7685547,1.4267578,1.7685547c0.4365234,0,0.8076172-0.21875,1.0830078-0.4658203l0.3525391,0.5126953
			c-0.4189453,0.3710938-0.9511719,0.5996094-1.5029297,0.5996094c-1.2255859,0-2.1669922-0.8847656-2.1669922-2.4150391
			C489.4335938,113.5576172,490.4697266,112.6738281,491.6582031,112.6738281z"/>
		<path class="st29" d="M495.6386719,112.6738281c1.1787109,0,1.84375,0.8457031,1.84375,2.1669922
			c0,0.1621094-0.0097656,0.3144531-0.0283203,0.4287109h-3.1181641c0.0566406,0.9980469,0.65625,1.625,1.5400391,1.625
			c0.4375,0,0.8076172-0.1425781,1.1503906-0.3613281l0.2753906,0.5136719
			c-0.3994141,0.2568359-0.8935547,0.4755859-1.5205078,0.4755859c-1.2363281,0-2.2148438-0.9033203-2.2148438-2.4150391
			S494.5830078,112.6738281,495.6386719,112.6738281z M496.7978516,114.7558594c0-0.9414062-0.4179688-1.4638672-1.140625-1.4638672
			c-0.6464844,0-1.2353516,0.5322266-1.3310547,1.4638672H496.7978516z"/>
		<path class="st29" d="M500.5869141,111.171875h0.9404297l1.2080078,3.3457031l0.4462891,1.2744141h0.0380859l0.4375-1.2744141
			l1.1972656-3.3457031h0.9316406v6.2363281h-0.7509766v-3.4316406c0-0.5517578,0.0664062-1.2929688,0.1044922-1.8447266h-0.0380859
			l-0.4941406,1.3876953l-1.1972656,3.2607422h-0.4560547l-1.1982422-3.2607422l-0.4941406-1.3876953h-0.0380859
			c0.0380859,0.5517578,0.0947266,1.2929688,0.0947266,1.8447266v3.4316406h-0.7314453V111.171875z"/>
		<path class="st29" d="M507.2548828,111.3330078c0-0.3037109,0.2382812-0.5029297,0.5419922-0.5029297
			c0.3046875,0,0.5419922,0.1992188,0.5419922,0.5029297c0,0.2949219-0.2373047,0.5039062-0.5419922,0.5039062
			C507.4931641,111.8369141,507.2548828,111.6279297,507.2548828,111.3330078z M507.3974609,112.7880859h0.7802734v4.6201172
			h-0.7802734V112.7880859z"/>
		<path class="st29" d="M510.5996094,114.9931641l-1.3974609-2.2050781h0.8466797l0.6171875,1.0166016
			c0.1425781,0.2480469,0.2949219,0.5136719,0.4570312,0.7705078h0.0380859
			c0.1328125-0.2568359,0.2753906-0.5224609,0.4179688-0.7705078l0.5605469-1.0166016h0.8173828l-1.3974609,2.2910156
			l1.5029297,2.3291016h-0.8466797l-0.6748047-1.0742188c-0.1611328-0.2763672-0.3330078-0.5615234-0.5039062-0.8271484h-0.0380859
			c-0.1611328,0.265625-0.3134766,0.5419922-0.4658203,0.8271484l-0.6269531,1.0742188h-0.8173828L510.5996094,114.9931641z"/>
	</g>
</g>
<g id="Plus">
</g>
</svg>
