<svg xmlns="http://www.w3.org/2000/svg" viewBox="0 0 568 405"><title>svf</title><rect x="0.37207" y="0.25" width="567.5" height="404.5" rx="1.75" ry="1.75" fill="#202020"/><path d="M566.122.49985A1.50187,1.50187,0,0,1,567.62213,2V403a1.50184,1.50184,0,0,1-1.50012,1.50012h-564A1.50187,1.50187,0,0,1,.62187,403V2A1.50189,1.50189,0,0,1,2.122.49985h564m0-.49985h-564a2,2,0,0,0-2,2V403a2,2,0,0,0,2,2h564a2,2,0,0,0,2-2V2a2,2,0,0,0-2-2Z" fill="#363636"/><path d="M473.11035,368.377v-2.69726h.58106v2.71093c0,1.10645.46923,1.457,1.07177,1.457.60938,0,1.08545-.35059,1.08545-1.457v-2.71093h.56055V368.377c0,1.47754-.70752,1.98145-1.646,1.98145S473.11035,369.85449,473.11035,368.377Z" fill="#979797"/><path d="M477.18408,369.88965l.28711-.38574a1.5294,1.5294,0,0,0,1.00147.40625c.44824,0,.67236-.23828.67236-.53223,0-.34961-.40625-.50391-.77734-.64453-.4834-.17481-1.01563-.40625-1.01563-.98047,0-.5459.43408-.96582,1.16943-.96582a1.7,1.7,0,0,1,1.05762.38477l-.27295.36425a1.26675,1.26675,0,0,0-.77734-.30078c-.42725,0-.62354.23047-.62354.49024,0,.32226.3711.4414.75635.58789.49024.18261,1.03662.38574,1.03662,1.02929,0,.55371-.4414,1.01563-1.24658,1.01563A2.0501,2.0501,0,0,1,477.18408,369.88965Z" fill="#979797"/><path d="M480.24316,368.58008a1.64124,1.64124,0,0,1,1.52686-1.793c.86816,0,1.3584.62305,1.3584,1.59668a2.20405,2.20405,0,0,1-.021.3291h-2.29687a1.12848,1.12848,0,0,0,1.13427,1.18359,1.538,1.538,0,0,0,.84766-.2666l.20313.37891a2.03217,2.03217,0,0,1-1.12061.34961A1.62717,1.62717,0,0,1,480.24316,368.58008Zm2.38135-.28028c0-.68652-.3081-1.05761-.84082-1.05761a1.05124,1.05124,0,0,0-.98047,1.05761Z" fill="#979797"/><path d="M483.9668,366.87109h.47656l.04883.61621h.021a1.16316,1.16316,0,0,1,.96631-.70019.84689.84689,0,0,1,.36426.06934l-.11182.50488a.94932.94932,0,0,0-.3291-.05664c-.28711,0-.63037.21093-.86181.78515v2.18457h-.57422Z" fill="#979797"/><path d="M487.85205,365.67969h.58106v4.59472h-.58106Z" fill="#979797"/><path d="M489.63672,366.87109h.47656l.04883.49024h.021a1.60415,1.60415,0,0,1,1.1416-.57422c.71435,0,1.03662.46191,1.03662,1.33008v2.15722h-.57422v-2.08007c0-.63672-.19629-.91016-.64453-.91016-.3501,0-.58838.18164-.93164.52539v2.46484h-.57422Z" fill="#979797"/><path d="M493.564,369.22363v-1.88379h-.50439v-.43359l.53223-.03516.07031-.95312h.4834v.95312h.91748v.46875h-.91748v1.89161c0,.41992.13281.6582.5249.6582a1.23521,1.23521,0,0,0,.38525-.09082l.11231.43359a2.09086,2.09086,0,0,1-.63037.126C493.80908,370.3584,493.564,369.89648,493.564,369.22363Z" fill="#979797"/><path d="M495.48193,368.58008a1.64124,1.64124,0,0,1,1.52686-1.793c.86816,0,1.3584.62305,1.3584,1.59668a2.20405,2.20405,0,0,1-.021.3291h-2.29687a1.12848,1.12848,0,0,0,1.13427,1.18359,1.538,1.538,0,0,0,.84766-.2666l.20313.37891a2.03217,2.03217,0,0,1-1.12061.34961A1.62716,1.62716,0,0,1,495.48193,368.58008Zm2.38135-.28028c0-.68652-.3081-1.05761-.84082-1.05761a1.05123,1.05123,0,0,0-.98047,1.05761Z" fill="#979797"/><path d="M499.20557,366.87109h.47656l.04883.61621h.021a1.16316,1.16316,0,0,1,.96631-.70019.84689.84689,0,0,1,.36426.06934l-.11182.50488a.94932.94932,0,0,0-.3291-.05664c-.28711,0-.63037.21093-.86181.78515v2.18457h-.57422Z" fill="#979797"/><path d="M501.73291,367.33984h-.4624v-.43359l.4624-.03516v-.54c0-.69335.31494-1.127.99463-1.127a1.53508,1.53508,0,0,1,.56738.11231l-.12646.44043a.96029.96029,0,0,0-.38477-.084c-.32226,0-.47656.22461-.47656.6582v.54h.72168v.46875h-.72168v2.93457h-.57422Z" fill="#979797"/><path d="M503.32861,369.39258c0-.74317.63721-1.11426,2.08692-1.27539,0-.4336-.14014-.85449-.7002-.85449a1.85481,1.85481,0,0,0-1.01562.36425l-.22412-.39941a2.52719,2.52719,0,0,1,1.33789-.44043c.83349,0,1.18359.55273,1.18359,1.40039v2.08691h-.47656l-.04883-.40625h-.021a1.813,1.813,0,0,1-1.12744.49024A.92571.92571,0,0,1,503.32861,369.39258Zm2.08692.04883v-.94532c-1.13428.13965-1.52686.41993-1.52686.8545,0,.38476.26612.54589.60254.54589A1.38,1.38,0,0,0,505.41553,369.44141Z" fill="#979797"/><path d="M506.81445,368.58008a1.64837,1.64837,0,0,1,1.63867-1.793,1.41424,1.41424,0,0,1,.99463.39844l-.29394.3789a.9963.9963,0,0,0-.67969-.30175c-.61621,0-1.06445.53222-1.06445,1.31738,0,.77734.42724,1.30273,1.05078,1.30273a1.20951,1.20951,0,0,0,.79834-.34375l.252.38574a1.663,1.663,0,0,1-1.09961.4336A1.59841,1.59841,0,0,1,506.81445,368.58008Z" fill="#979797"/><path d="M509.85938,368.58008a1.64123,1.64123,0,0,1,1.52685-1.793c.86816,0,1.3584.62305,1.3584,1.59668a2.20405,2.20405,0,0,1-.021.3291h-2.29687a1.12848,1.12848,0,0,0,1.13428,1.18359,1.538,1.538,0,0,0,.84765-.2666l.20313.37891a2.03217,2.03217,0,0,1-1.12061.34961A1.62716,1.62716,0,0,1,509.85938,368.58008Zm2.38134-.28028c0-.68652-.3081-1.05761-.84082-1.05761a1.05124,1.05124,0,0,0-.98047,1.05761Z" fill="#979797"/><path d="M514.77344,367.97754a2.10894,2.10894,0,0,1,2.03808-2.38184,1.68,1.68,0,0,1,1.26075.56739l-.31543.3789a1.25479,1.25479,0,0,0-.93848-.43457c-.86816,0-1.44336.71485-1.44336,1.85645,0,1.15527.55371,1.88379,1.42188,1.88379a1.3854,1.3854,0,0,0,1.06445-.51856l.32226.36426a1.77825,1.77825,0,0,1-1.40722.665C515.62793,370.3584,514.77344,369.47656,514.77344,367.97754Z" fill="#979797"/><path d="M518.72852,368.58008a1.58723,1.58723,0,1,1,1.57519,1.77832A1.6264,1.6264,0,0,1,518.72852,368.58008Zm2.55566,0c0-.78516-.3916-1.31738-.98047-1.31738-.58105,0-.98047.53222-.98047,1.31738,0,.77734.39942,1.30273.98047,1.30273C520.89258,369.88281,521.28418,369.35742,521.28418,368.58008Z" fill="#979797"/><path d="M522.77441,366.87109h.47657l.04882.49024h.02051a1.60508,1.60508,0,0,1,1.1416-.57422c.71485,0,1.03711.46191,1.03711,1.33008v2.15722h-.57422v-2.08007c0-.63672-.19628-.91016-.64453-.91016-.35058,0-.58886.18164-.93164.52539v2.46484h-.57422Z" fill="#979797"/><path d="M526.70117,369.22363v-1.88379h-.5039v-.43359l.53222-.03516.07031-.95312h.4834v.95312h.917v.46875h-.917v1.89161c0,.41992.13282.6582.52442.6582a1.24144,1.24144,0,0,0,.38574-.09082l.1123.43359a2.09394,2.09394,0,0,1-.63086.126C526.94629,370.3584,526.70117,369.89648,526.70117,369.22363Z" fill="#979797"/><path d="M528.96875,366.87109h.47656l.04883.61621h.02148a1.16188,1.16188,0,0,1,.96583-.70019.84534.84534,0,0,1,.36425.06934l-.11132.50488a.95149.95149,0,0,0-.32911-.05664c-.28711,0-.63086.21093-.8623.78515v2.18457h-.57422Z" fill="#979797"/><path d="M531.07617,368.58008a1.58723,1.58723,0,1,1,1.5752,1.77832A1.6264,1.6264,0,0,1,531.07617,368.58008Zm2.55567,0c0-.78516-.39161-1.31738-.98047-1.31738-.58106,0-.98047.53222-.98047,1.31738,0,.77734.39941,1.30273.98047,1.30273C533.24023,369.88281,533.63184,369.35742,533.63184,368.58008Z" fill="#979797"/><path d="M535.12207,369.58789v-4.2998h.57422v4.34179c0,.18262.07715.25293.16113.25293a.46278.46278,0,0,0,.126-.01465l.07715.43457a.77117.77117,0,0,1-.3291.05567C535.29688,370.3584,535.12207,370.08594,535.12207,369.58789Z" fill="#979797"/><rect x="120.25" y="80.25" width="124.5" height="19.5" rx="2.75" ry="2.75" fill="#4e4e4e"/><path d="M242,80.5a2.50286,2.50286,0,0,1,2.5,2.5V97a2.50286,2.50286,0,0,1-2.5,2.5H123a2.50285,2.50285,0,0,1-2.5-2.5V83a2.50285,2.50285,0,0,1,2.5-2.5H242m0-.5H123a3.00881,3.00881,0,0,0-3,3V97a3.00881,3.00881,0,0,0,3,3H242a3.00881,3.00881,0,0,0,3-3V83a3.00881,3.00881,0,0,0-3-3Z" fill="#7f7f7f"/><rect x="410.25" y="80.25" width="79.5" height="19.5" rx="2.75" ry="2.75" fill="#4e4e4e"/><path d="M487,80.5a2.50284,2.50284,0,0,1,2.5,2.5V97a2.50284,2.50284,0,0,1-2.5,2.5H413a2.50284,2.50284,0,0,1-2.5-2.5V83a2.50284,2.50284,0,0,1,2.5-2.5h74m0-.5H413a3.00881,3.00881,0,0,0-3,3V97a3.00881,3.00881,0,0,0,3,3h74a3.00881,3.00881,0,0,0,3-3V83a3.00881,3.00881,0,0,0-3-3Z" fill="#7f7f7f"/><path d="M268,155.34961h73.99951A2.65039,2.65039,0,0,1,344.6499,158v44.00049A2.6499,2.6499,0,0,1,342,204.65039H268.00049A2.65039,2.65039,0,0,1,265.3501,202V157.99951A2.6499,2.6499,0,0,1,268,155.34961Z" fill="#31333d"/><path d="M342,155.7a2.30257,2.30257,0,0,1,2.3,2.3v44a2.30257,2.30257,0,0,1-2.3,2.3H268a2.30257,2.30257,0,0,1-2.3-2.3V158a2.30257,2.30257,0,0,1,2.3-2.3h74m0-.7H268a3.00881,3.00881,0,0,0-3,3v44a3.00881,3.00881,0,0,0,3,3h74a3.00881,3.00881,0,0,0,3-3V158a3.00881,3.00881,0,0,0-3-3Z" fill="#e9a460"/><path d="M268,275.34961h73.99951A2.65039,2.65039,0,0,1,344.6499,278v44.00049A2.6499,2.6499,0,0,1,342,324.65039H268.00049A2.65039,2.65039,0,0,1,265.3501,322V277.99951A2.6499,2.6499,0,0,1,268,275.34961Z" fill="#31333d"/><path d="M342,275.7a2.30257,2.30257,0,0,1,2.3,2.3v44a2.30257,2.30257,0,0,1-2.3,2.3H268a2.30257,2.30257,0,0,1-2.3-2.3V278a2.30257,2.30257,0,0,1,2.3-2.3h74m0-.7H268a3.00881,3.00881,0,0,0-3,3v44a3.00881,3.00881,0,0,0,3,3h74a3.00881,3.00881,0,0,0,3-3V278a3.00881,3.00881,0,0,0-3-3Z" fill="#e9a460"/><path d="M363,155.34961h8.99951A2.65039,2.65039,0,0,1,374.6499,158v44.00049A2.6499,2.6499,0,0,1,372,204.65039h-8.99951A2.65039,2.65039,0,0,1,360.3501,202V157.99951A2.6499,2.6499,0,0,1,363,155.34961Z" fill="#31333d"/><path d="M372,155.7a2.30257,2.30257,0,0,1,2.3,2.3v44a2.30257,2.30257,0,0,1-2.3,2.3h-9a2.30257,2.30257,0,0,1-2.3-2.3V158a2.30257,2.30257,0,0,1,2.3-2.3h9m0-.7h-9a3.00881,3.00881,0,0,0-3,3v44a3.00881,3.00881,0,0,0,3,3h9a3.00881,3.00881,0,0,0,3-3V158a3.00881,3.00881,0,0,0-3-3Z" fill="#e9a460"/><path d="M363,275.34961h8.99951A2.65039,2.65039,0,0,1,374.6499,278v44.00049A2.6499,2.6499,0,0,1,372,324.65039h-8.99951A2.65039,2.65039,0,0,1,360.3501,322V277.99951A2.6499,2.6499,0,0,1,363,275.34961Z" fill="#31333d"/><path d="M372,275.7a2.30257,2.30257,0,0,1,2.3,2.3v44a2.30257,2.30257,0,0,1-2.3,2.3h-9a2.30257,2.30257,0,0,1-2.3-2.3V278a2.30257,2.30257,0,0,1,2.3-2.3h9m0-.7h-9a3.00881,3.00881,0,0,0-3,3v44a3.00881,3.00881,0,0,0,3,3h9a3.00881,3.00881,0,0,0,3-3V278a3.00881,3.00881,0,0,0-3-3Z" fill="#e9a460"/><path d="M168,275.34961h34a2.6499,2.6499,0,0,1,2.6499,2.6499v44.001A2.6499,2.6499,0,0,1,202,324.65039H168.00049A2.65039,2.65039,0,0,1,165.3501,322V277.99951A2.6499,2.6499,0,0,1,168,275.34961Z" fill="#31333d"/><path d="M202,275.7a2.30258,2.30258,0,0,1,2.3,2.3v44a2.30258,2.30258,0,0,1-2.3,2.3H168a2.30258,2.30258,0,0,1-2.3-2.3V278a2.30258,2.30258,0,0,1,2.3-2.3h34m0-.7H168a3.00881,3.00881,0,0,0-3,3v44a3.00881,3.00881,0,0,0,3,3h34a3.00881,3.00881,0,0,0,3-3V278a3.00881,3.00881,0,0,0-3-3Z" fill="#e9a460"/><path d="M438,215.34961h34a2.6499,2.6499,0,0,1,2.6499,2.6499v44.001A2.6499,2.6499,0,0,1,472,264.65039H438.00049A2.65039,2.65039,0,0,1,435.3501,262V217.99951A2.6499,2.6499,0,0,1,438,215.34961Z" fill="#31333d"/><path d="M472,215.7a2.30257,2.30257,0,0,1,2.3,2.3v44a2.30257,2.30257,0,0,1-2.3,2.3H438a2.30257,2.30257,0,0,1-2.3-2.3V218a2.30257,2.30257,0,0,1,2.3-2.3h34m0-.7H438a3.00881,3.00881,0,0,0-3,3v44a3.00881,3.00881,0,0,0,3,3h34a3.00881,3.00881,0,0,0,3-3V218a3.00881,3.00881,0,0,0-3-3Z" fill="#e9a460"/><path d="M117.04573,85a.495.495,0,1,1,.495.495A.495.495,0,0,1,117.04573,85Z" fill="#7f7f7f"/><path d="M115.24216,85a.495.495,0,1,1,.495.495A.495.495,0,0,1,115.24216,85Z" fill="#7f7f7f"/><path d="M113.43858,85a.495.495,0,1,1,.495.495A.495.495,0,0,1,113.43858,85Z" fill="#7f7f7f"/><path d="M111.635,85a.495.495,0,1,1,.495.495A.495.495,0,0,1,111.635,85Z" fill="#7f7f7f"/><path d="M109.83144,85a.495.495,0,1,1,.495.495A.495.495,0,0,1,109.83144,85Z" fill="#7f7f7f"/><path d="M108.02786,85a.495.495,0,1,1,.495.495A.495.495,0,0,1,108.02786,85Z" fill="#7f7f7f"/><path d="M106.22429,85a.495.495,0,1,1,.495.495A.495.495,0,0,1,106.22429,85Z" fill="#7f7f7f"/><path d="M104.42072,85a.495.495,0,1,1,.495.495A.495.495,0,0,1,104.42072,85Z" fill="#7f7f7f"/><path d="M102.61714,85a.495.495,0,1,1,.495.495A.495.495,0,0,1,102.61714,85Z" fill="#7f7f7f"/><path d="M100.81358,85a.495.495,0,1,1,.495.495A.495.495,0,0,1,100.81358,85Z" fill="#7f7f7f"/><polygon points="116.261 81.946 115.852 82.385 118.619 84.999 115.852 87.614 116.261 88.053 119.5 84.999 116.261 81.946" fill="#7f7f7f"/><path d="M117.04573,95a.495.495,0,1,1,.495.495A.495.495,0,0,1,117.04573,95Z" fill="#7f7f7f"/><path d="M115.24216,95a.495.495,0,1,1,.495.495A.495.495,0,0,1,115.24216,95Z" fill="#7f7f7f"/><path d="M113.43858,95a.495.495,0,1,1,.495.495A.495.495,0,0,1,113.43858,95Z" fill="#7f7f7f"/><path d="M111.635,95a.495.495,0,1,1,.495.495A.495.495,0,0,1,111.635,95Z" fill="#7f7f7f"/><path d="M109.83144,95a.495.495,0,1,1,.495.495A.495.495,0,0,1,109.83144,95Z" fill="#7f7f7f"/><path d="M108.02786,95a.495.495,0,1,1,.495.495A.495.495,0,0,1,108.02786,95Z" fill="#7f7f7f"/><path d="M106.22429,95a.495.495,0,1,1,.495.495A.495.495,0,0,1,106.22429,95Z" fill="#7f7f7f"/><path d="M104.42072,95a.495.495,0,1,1,.495.495A.495.495,0,0,1,104.42072,95Z" fill="#7f7f7f"/><path d="M102.61714,95a.495.495,0,1,1,.495.495A.495.495,0,0,1,102.61714,95Z" fill="#7f7f7f"/><path d="M100.81358,95a.495.495,0,1,1,.495.495A.495.495,0,0,1,100.81358,95Z" fill="#7f7f7f"/><polygon points="116.261 91.946 115.852 92.385 118.619 94.999 115.852 97.614 116.261 98.053 119.5 94.999 116.261 91.946" fill="#7f7f7f"/><path d="M180,76.99432a.495.495,0,1,1-.495.495A.495.495,0,0,1,180,76.99432Z" fill="#7f7f7f"/><path d="M180,75.1394a.495.495,0,1,1-.495.49506A.495.495,0,0,1,180,75.1394Z" fill="#7f7f7f"/><path d="M180,73.28455a.495.495,0,1,1-.495.495A.495.495,0,0,1,180,73.28455Z" fill="#7f7f7f"/><path d="M180,71.42963a.495.495,0,1,1-.495.495A.495.495,0,0,1,180,71.42963Z" fill="#7f7f7f"/><path d="M180,69.57471a.495.495,0,1,1-.495.495A.495.495,0,0,1,180,69.57471Z" fill="#7f7f7f"/><path d="M180,67.71979a.495.495,0,1,1-.495.495A.495.495,0,0,1,180,67.71979Z" fill="#7f7f7f"/><path d="M180,65.86487a.495.495,0,1,1-.495.495A.495.495,0,0,1,180,65.86487Z" fill="#7f7f7f"/><polygon points="183.054 76.261 182.614 75.852 180.001 78.619 177.386 75.852 176.947 76.261 180.001 79.5 183.054 76.261" fill="#7f7f7f"/><path d="M159.99976,111.99438a.495.495,0,1,1-.495.495A.495.495,0,0,1,159.99976,111.99438Z" fill="#7f7f7f"/><path d="M159.99976,110.13947a.495.495,0,1,1-.495.495A.495.495,0,0,1,159.99976,110.13947Z" fill="#7f7f7f"/><path d="M159.99976,108.28455a.495.495,0,1,1-.495.495A.495.495,0,0,1,159.99976,108.28455Z" fill="#7f7f7f"/><path d="M159.99976,106.42963a.495.495,0,1,1-.495.495A.495.495,0,0,1,159.99976,106.42963Z" fill="#7f7f7f"/><path d="M159.99976,104.57477a.495.495,0,1,1-.495.495A.495.495,0,0,1,159.99976,104.57477Z" fill="#7f7f7f"/><path d="M159.99976,102.71985a.495.495,0,1,1-.495.495A.495.495,0,0,1,159.99976,102.71985Z" fill="#7f7f7f"/><path d="M159.99976,100.86493a.495.495,0,1,1-.495.495A.495.495,0,0,1,159.99976,100.86493Z" fill="#7f7f7f"/><polygon points="163.054 111.261 162.614 110.852 160 113.619 157.386 110.852 156.946 111.261 160 114.5 163.054 111.261" fill="#7f7f7f"/><circle cx="204.99976" cy="112.48938" r="0.495" fill="#7f7f7f"/><circle cx="204.99976" cy="110.63446" r="0.495" fill="#7f7f7f"/><circle cx="204.99976" cy="108.77954" r="0.495" fill="#7f7f7f"/><path d="M204.99976,106.42963a.495.495,0,1,1-.495.495A.495.495,0,0,1,204.99976,106.42963Z" fill="#7f7f7f"/><circle cx="204.99976" cy="105.06976" r="0.495" fill="#7f7f7f"/><circle cx="204.99976" cy="103.21484" r="0.495" fill="#7f7f7f"/><circle cx="204.99976" cy="101.35992" r="0.495" fill="#7f7f7f"/><polygon points="208.054 111.261 207.614 110.852 205 113.619 202.386 110.852 201.946 111.261 205 114.5 208.054 111.261" fill="#7f7f7f"/><circle cx="429.99976" cy="112.48938" r="0.495" fill="#7f7f7f"/><circle cx="429.99976" cy="110.63446" r="0.495" fill="#7f7f7f"/><circle cx="429.99976" cy="108.77954" r="0.495" fill="#7f7f7f"/><path d="M429.99976,106.42963a.495.495,0,1,1-.495.495A.495.495,0,0,1,429.99976,106.42963Z" fill="#7f7f7f"/><circle cx="429.99976" cy="105.06976" r="0.495" fill="#7f7f7f"/><circle cx="429.99976" cy="103.21484" r="0.495" fill="#7f7f7f"/><circle cx="429.99976" cy="101.35992" r="0.495" fill="#7f7f7f"/><polygon points="433.054 111.261 432.614 110.852 430 113.619 427.386 110.852 426.946 111.261 430 114.5 433.054 111.261" fill="#7f7f7f"/><circle cx="469.99976" cy="112.48938" r="0.495" fill="#7f7f7f"/><circle cx="469.99976" cy="110.63446" r="0.495" fill="#7f7f7f"/><circle cx="469.99976" cy="108.77954" r="0.495" fill="#7f7f7f"/><path d="M469.99976,106.42963a.495.495,0,1,1-.495.495A.495.495,0,0,1,469.99976,106.42963Z" fill="#7f7f7f"/><circle cx="469.99976" cy="105.06976" r="0.495" fill="#7f7f7f"/><circle cx="469.99976" cy="103.21484" r="0.495" fill="#7f7f7f"/><circle cx="469.99976" cy="101.35992" r="0.495" fill="#7f7f7f"/><polygon points="473.054 111.261 472.614 110.852 470 113.619 467.386 110.852 466.946 111.261 470 114.5 473.054 111.261" fill="#7f7f7f"/><circle cx="367.5" cy="152.48938" r="0.495" fill="#7f7f7f"/><circle cx="367.5" cy="150.63446" r="0.495" fill="#7f7f7f"/><circle cx="367.5" cy="148.77954" r="0.495" fill="#7f7f7f"/><path d="M367.5,146.42963a.495.495,0,1,1-.495.495A.495.495,0,0,1,367.5,146.42963Z" fill="#7f7f7f"/><path d="M367.5,144.57471a.495.495,0,1,1-.495.495A.49505.49505,0,0,1,367.5,144.57471Z" fill="#7f7f7f"/><circle cx="367.5" cy="143.21484" r="0.495" fill="#7f7f7f"/><circle cx="367.5" cy="141.35992" r="0.495" fill="#7f7f7f"/><polygon points="370.554 151.261 370.114 150.852 367.501 153.619 364.886 150.852 364.447 151.261 367.501 154.5 370.554 151.261" fill="#7f7f7f"/><circle cx="367.5" cy="272.48938" r="0.495" fill="#7f7f7f"/><circle cx="367.5" cy="270.63446" r="0.495" fill="#7f7f7f"/><circle cx="367.5" cy="268.77954" r="0.495" fill="#7f7f7f"/><path d="M367.5,266.42963a.495.495,0,1,1-.495.495A.495.495,0,0,1,367.5,266.42963Z" fill="#7f7f7f"/><path d="M367.5,264.57471a.495.495,0,1,1-.495.495A.49505.49505,0,0,1,367.5,264.57471Z" fill="#7f7f7f"/><circle cx="367.5" cy="263.21484" r="0.495" fill="#7f7f7f"/><circle cx="367.5" cy="261.35992" r="0.495" fill="#7f7f7f"/><polygon points="370.554 271.261 370.114 270.852 367.501 273.619 364.886 270.852 364.447 271.261 367.501 274.5 370.554 271.261" fill="#7f7f7f"/><circle cx="290" cy="152.48938" r="0.495" fill="#7f7f7f"/><circle cx="290" cy="150.63446" r="0.495" fill="#7f7f7f"/><circle cx="290" cy="148.77954" r="0.495" fill="#7f7f7f"/><path d="M290,146.42963a.495.495,0,1,1-.495.495A.495.495,0,0,1,290,146.42963Z" fill="#7f7f7f"/><path d="M290,144.57471a.495.495,0,1,1-.495.495A.49505.49505,0,0,1,290,144.57471Z" fill="#7f7f7f"/><circle cx="290" cy="143.21484" r="0.495" fill="#7f7f7f"/><circle cx="290" cy="141.35992" r="0.495" fill="#7f7f7f"/><polygon points="293.054 151.261 292.614 150.852 290.001 153.619 287.386 150.852 286.947 151.261 290.001 154.5 293.054 151.261" fill="#7f7f7f"/><circle cx="290" cy="272.48938" r="0.495" fill="#7f7f7f"/><circle cx="290" cy="270.63446" r="0.495" fill="#7f7f7f"/><circle cx="290" cy="268.77954" r="0.495" fill="#7f7f7f"/><path d="M290,266.42963a.495.495,0,1,1-.495.495A.495.495,0,0,1,290,266.42963Z" fill="#7f7f7f"/><path d="M290,264.57471a.495.495,0,1,1-.495.495A.49505.49505,0,0,1,290,264.57471Z" fill="#7f7f7f"/><circle cx="290" cy="263.21484" r="0.495" fill="#7f7f7f"/><circle cx="290" cy="261.35992" r="0.495" fill="#7f7f7f"/><polygon points="293.054 271.261 292.614 270.852 290.001 273.619 287.386 270.852 286.947 271.261 290.001 274.5 293.054 271.261" fill="#7f7f7f"/><circle cx="320.00006" cy="152.48944" r="0.495" fill="#b0b0b0"/><circle cx="320.00006" cy="150.63452" r="0.495" fill="#b0b0b0"/><circle cx="320.00006" cy="148.7796" r="0.495" fill="#b0b0b0"/><circle cx="320.00006" cy="146.92468" r="0.495" fill="#b0b0b0"/><circle cx="320.00006" cy="145.06976" r="0.495" fill="#b0b0b0"/><circle cx="320.00006" cy="143.21484" r="0.495" fill="#b0b0b0"/><circle cx="320.00006" cy="141.35992" r="0.495" fill="#b0b0b0"/><polygon points="323.054 151.261 322.615 150.852 320.001 153.619 317.386 150.852 316.947 151.261 320.001 154.5 323.054 151.261" fill="#b0b0b0"/><circle cx="320.00006" cy="272.48944" r="0.495" fill="#b0b0b0"/><circle cx="320.00006" cy="270.63452" r="0.495" fill="#b0b0b0"/><circle cx="320.00006" cy="268.7796" r="0.495" fill="#b0b0b0"/><circle cx="320.00006" cy="266.92468" r="0.495" fill="#b0b0b0"/><circle cx="320.00006" cy="265.06976" r="0.495" fill="#b0b0b0"/><circle cx="320.00006" cy="263.21484" r="0.495" fill="#b0b0b0"/><circle cx="320.00006" cy="261.35992" r="0.495" fill="#b0b0b0"/><polygon points="323.054 271.261 322.615 270.852 320.001 273.619 317.386 270.852 316.947 271.261 320.001 274.5 323.054 271.261" fill="#b0b0b0"/><circle cx="185" cy="272.48938" r="0.495" fill="#b0b0b0"/><circle cx="185" cy="270.63446" r="0.495" fill="#b0b0b0"/><circle cx="185" cy="268.77954" r="0.495" fill="#b0b0b0"/><path d="M185,266.42963a.495.495,0,1,1-.495.495A.495.495,0,0,1,185,266.42963Z" fill="#b0b0b0"/><path d="M185,264.57471a.495.495,0,1,1-.495.495A.49505.49505,0,0,1,185,264.57471Z" fill="#b0b0b0"/><circle cx="185" cy="263.21484" r="0.495" fill="#b0b0b0"/><circle cx="185" cy="261.35992" r="0.495" fill="#b0b0b0"/><polygon points="188.054 271.261 187.614 270.852 185.001 273.619 182.386 270.852 181.947 271.261 185.001 274.5 188.054 271.261" fill="#b0b0b0"/><circle cx="455" cy="212.48938" r="0.495" fill="#b0b0b0"/><circle cx="455" cy="210.63446" r="0.495" fill="#b0b0b0"/><circle cx="455" cy="208.77954" r="0.495" fill="#b0b0b0"/><path d="M455,206.42963a.495.495,0,1,1-.495.495A.495.495,0,0,1,455,206.42963Z" fill="#b0b0b0"/><path d="M455,204.57471a.495.495,0,1,1-.495.495A.49505.49505,0,0,1,455,204.57471Z" fill="#b0b0b0"/><circle cx="455" cy="203.21484" r="0.495" fill="#b0b0b0"/><circle cx="455" cy="201.35992" r="0.495" fill="#b0b0b0"/><polygon points="458.054 211.261 457.614 210.852 455.001 213.619 452.386 210.852 451.947 211.261 455.001 214.5 458.054 211.261" fill="#b0b0b0"/><circle cx="185" cy="359.48938" r="0.495" fill="#b0b0b0"/><circle cx="185" cy="357.63446" r="0.495" fill="#b0b0b0"/><circle cx="185" cy="355.77954" r="0.495" fill="#b0b0b0"/><path d="M185,353.42963a.495.495,0,1,1-.495.495A.495.495,0,0,1,185,353.42963Z" fill="#b0b0b0"/><path d="M185,351.57471a.495.495,0,1,1-.495.495A.49505.49505,0,0,1,185,351.57471Z" fill="#b0b0b0"/><circle cx="185" cy="350.21484" r="0.495" fill="#b0b0b0"/><circle cx="185" cy="348.35992" r="0.495" fill="#b0b0b0"/><polygon points="188.054 358.261 187.614 357.852 185.001 360.619 182.386 357.852 181.947 358.261 185.001 361.5 188.054 358.261" fill="#b0b0b0"/><circle cx="449.99994" cy="77.54071" r="0.495" fill="#7f7f7f"/><circle cx="449.99994" cy="75.73712" r="0.495" fill="#7f7f7f"/><circle cx="449.99994" cy="73.93353" r="0.495" fill="#7f7f7f"/><circle cx="449.99994" cy="72.12994" r="0.495" fill="#7f7f7f"/><circle cx="449.99994" cy="70.32642" r="0.495" fill="#7f7f7f"/><circle cx="449.99994" cy="68.52283" r="0.495" fill="#7f7f7f"/><circle cx="449.99994" cy="66.71924" r="0.495" fill="#7f7f7f"/><path d="M449.99994,64.42065a.495.495,0,1,1-.495.495A.495.495,0,0,1,449.99994,64.42065Z" fill="#7f7f7f"/><circle cx="449.99994" cy="63.11212" r="0.495" fill="#7f7f7f"/><circle cx="449.99994" cy="61.30853" r="0.495" fill="#7f7f7f"/><polygon points="453.054 76.261 452.614 75.852 450.001 78.619 447.386 75.852 446.947 76.261 450.001 79.5 453.054 76.261" fill="#7f7f7f"/><line x1="263.74084" y1="180" x2="75" y2="180" fill="none" stroke="#e9a460" stroke-width="0.7"/><polygon points="260.721 176.437 260.244 176.95 263.472 179.999 260.244 183.049 260.721 183.562 264.5 179.999 260.721 176.437" fill="#e9a460"/><line x1="176.24084" y1="370" x2="135" y2="370" fill="none" stroke="#e9a460" stroke-width="0.7"/><polygon points="173.221 366.437 172.744 366.95 175.972 369.999 172.744 373.049 173.221 373.562 177 369.999 173.221 366.437" fill="#e9a460"/><polyline points="433.741 250 385 250 385 300 375 300" fill="none" stroke="#e9a460" stroke-width="0.7"/><polygon points="430.721 246.437 430.244 246.95 433.472 249.999 430.244 253.049 430.721 253.562 434.5 249.999 430.721 246.437" fill="#e9a460"/><line x1="263.74084" y1="300" x2="205" y2="300" fill="none" stroke="#e9a460" stroke-width="0.7"/><polygon points="260.721 296.437 260.244 296.95 263.472 299.999 260.244 303.049 260.721 303.562 264.5 299.999 260.721 296.437" fill="#e9a460"/><polyline points="163.741 310 115 310 115 180" fill="none" stroke="#e9a460" stroke-width="0.7"/><polygon points="160.721 306.437 160.244 306.95 163.472 309.999 160.244 313.049 160.721 313.562 164.5 309.999 160.721 306.437" fill="#e9a460"/><line x1="263.74084" y1="315" x2="235" y2="315" fill="none" stroke="#e9a460" stroke-width="0.7"/><polygon points="260.721 311.437 260.244 311.95 263.472 314.999 260.244 318.049 260.721 318.562 264.5 314.999 260.721 311.437" fill="#e9a460"/><polyline points="263.741 195 235 195 235 370 192.5 370" fill="none" stroke="#e9a460" stroke-width="0.7"/><polygon points="260.721 191.437 260.244 191.95 263.472 194.999 260.244 198.049 260.721 198.562 264.5 194.999 260.721 191.437" fill="#e9a460"/><polyline points="385 230 135 230 135 290 163.741 290" fill="none" stroke="#e9a460" stroke-width="0.7"/><polygon points="160.721 293.563 160.244 293.05 163.472 290.001 160.244 286.951 160.721 286.438 164.5 290.001 160.721 293.563" fill="#e9a460"/><polyline points="433.741 230 385 230 385 180 375 180" fill="none" stroke="#e9a460" stroke-width="0.7"/><polygon points="430.721 226.437 430.244 226.95 433.472 229.999 430.244 233.049 430.721 233.562 434.5 229.999 430.721 226.437" fill="#e9a460"/><line x1="360" y1="170" x2="345" y2="170" fill="none" stroke="#e9a460" stroke-width="0.7"/><line x1="360" y1="180" x2="345" y2="180" fill="none" stroke="#e9a460" stroke-width="0.7"/><line x1="360" y1="190" x2="345" y2="190" fill="none" stroke="#e9a460" stroke-width="0.7"/><line x1="360" y1="287.5" x2="345" y2="287.5" fill="none" stroke="#e9a460" stroke-width="0.7"/><line x1="360" y1="312.5" x2="345" y2="312.5" fill="none" stroke="#e9a460" stroke-width="0.7"/><line x1="360" y1="300" x2="345" y2="300" fill="none" stroke="#e9a460" stroke-width="0.7"/><line x1="504.24084" y1="240" x2="475" y2="240" fill="none" stroke="#e9a460" stroke-width="0.7"/><polygon points="501.221 236.437 500.744 236.95 503.972 239.999 500.744 243.049 501.221 243.562 505 239.999 501.221 236.437" fill="#e9a460"/><circle cx="235" cy="315" r="2.5" fill="#e9a460"/><circle cx="385" cy="230" r="2.5" fill="#e9a460"/><circle cx="115" cy="180" r="2.5" fill="#e9a460"/><circle cx="185" cy="370" r="7.5" fill="#31333d"/><circle cx="185" cy="370" r="7.5" fill="none" stroke="#e9a460" stroke-width="0.7"/><line x1="181.75" y1="366.75" x2="188.25" y2="373.25" fill="#31333d" stroke="#e9a460" stroke-width="0.7"/><line x1="181.75" y1="373.25" x2="188.25" y2="366.75" fill="#31333d" stroke="#e9a460" stroke-width="0.7"/><rect x="162.99999" y="45" width="33.99995" height="10" fill="#4e4e4e" stroke="#7f7f7f" stroke-width="0.5"/><path d="M163,55h34a0,0,0,0,1,0,0v7a3,3,0,0,1-3,3H166a3,3,0,0,1-3-3V55A0,0,0,0,1,163,55Z" fill="#4e4e4e" stroke="#7f7f7f" stroke-width="0.5"/><path d="M166,24.99937h28a3,3,0,0,1,3,3v7a0,0,0,0,1,0,0H163a0,0,0,0,1,0,0v-7A3,3,0,0,1,166,24.99937Z" fill="#7f7f7f" stroke="#b0b0b0" stroke-width="0.5"/><rect x="432.99998" y="49.99937" width="33.99995" height="10" rx="3" ry="3" fill="#7f7f7f" stroke="#b0b0b0" stroke-width="0.5"/><rect x="437.99998" y="189.99937" width="33.99995" height="10" rx="3" ry="3" fill="#7f7f7f" stroke="#b0b0b0" stroke-width="0.5"/><rect x="167.99998" y="249.99937" width="33.99995" height="10" rx="3" ry="3" fill="#7f7f7f" stroke="#b0b0b0" stroke-width="0.5"/><rect x="174.99996" y="336.49937" width="20" height="10" rx="3" ry="3" fill="#7f7f7f" stroke="#b0b0b0" stroke-width="0.5"/><rect x="305.99996" y="129.99937" width="28" height="10" rx="3" ry="3" fill="#7f7f7f" stroke="#b0b0b0" stroke-width="0.5"/><rect x="305.99996" y="249.99937" width="28" height="10" rx="3" ry="3" fill="#7f7f7f" stroke="#b0b0b0" stroke-width="0.5"/><rect x="162.99998" y="34.99937" width="33.99995" height="10" fill="#7f7f7f" stroke="#b0b0b0" stroke-width="0.5"/><path d="M194,25a3.00883,3.00883,0,0,1,3,3V62a3.00881,3.00881,0,0,1-3,3H166a3.00881,3.00881,0,0,1-3-3V28a3.00883,3.00883,0,0,1,3-3h28m0-1H166a4.00453,4.00453,0,0,0-4,4V62a4.00451,4.00451,0,0,0,4,4h28a4.00451,4.00451,0,0,0,4-4V28a4.00453,4.00453,0,0,0-4-4Z" fill="#4271c2"/><path d="M464,50a3.00881,3.00881,0,0,1,3,3v4a3.00881,3.00881,0,0,1-3,3H436a3.00881,3.00881,0,0,1-3-3V53a3.00881,3.00881,0,0,1,3-3h28m0-1H436a4.00452,4.00452,0,0,0-4,4v4a4.00452,4.00452,0,0,0,4,4h28a4.00452,4.00452,0,0,0,4-4V53a4.00452,4.00452,0,0,0-4-4Z" fill="#4271c2"/><path d="M331,130a3.00881,3.00881,0,0,1,3,3v4a3.00881,3.00881,0,0,1-3,3H309a3.00881,3.00881,0,0,1-3-3v-4a3.00881,3.00881,0,0,1,3-3h22m0-1H309a4.00452,4.00452,0,0,0-4,4v4a4.00452,4.00452,0,0,0,4,4h22a4.00452,4.00452,0,0,0,4-4v-4a4.00452,4.00452,0,0,0-4-4Z" fill="#4271c2"/><path d="M331,250a3.00881,3.00881,0,0,1,3,3v4a3.00881,3.00881,0,0,1-3,3H309a3.00881,3.00881,0,0,1-3-3v-4a3.00881,3.00881,0,0,1,3-3h22m0-1H309a4.00452,4.00452,0,0,0-4,4v4a4.00452,4.00452,0,0,0,4,4h22a4.00452,4.00452,0,0,0,4-4v-4a4.00452,4.00452,0,0,0-4-4Z" fill="#4271c2"/><path d="M469,190a3.00881,3.00881,0,0,1,3,3v4a3.00881,3.00881,0,0,1-3,3H441a3.00881,3.00881,0,0,1-3-3v-4a3.00881,3.00881,0,0,1,3-3h28m0-1H441a4.00452,4.00452,0,0,0-4,4v4a4.00452,4.00452,0,0,0,4,4h28a4.00452,4.00452,0,0,0,4-4v-4a4.00452,4.00452,0,0,0-4-4Z" fill="#4271c2"/><path d="M199,250a3.00881,3.00881,0,0,1,3,3v4a3.00881,3.00881,0,0,1-3,3H171a3.00881,3.00881,0,0,1-3-3v-4a3.00881,3.00881,0,0,1,3-3h28m0-1H171a4.00451,4.00451,0,0,0-4,4v4a4.00451,4.00451,0,0,0,4,4h28a4.00451,4.00451,0,0,0,4-4v-4a4.00451,4.00451,0,0,0-4-4Z" fill="#4271c2"/><path d="M192,336.5a3.00881,3.00881,0,0,1,3,3v4a3.00881,3.00881,0,0,1-3,3H178a3.00881,3.00881,0,0,1-3-3v-4a3.00881,3.00881,0,0,1,3-3h14m0-1H178a4.00451,4.00451,0,0,0-4,4v4a4.00451,4.00451,0,0,0,4,4h14a4.00451,4.00451,0,0,0,4-4v-4a4.00451,4.00451,0,0,0-4-4Z" fill="#4271c2"/><path d="M464,364a2.00589,2.00589,0,0,1,2,2v4a2.00589,2.00589,0,0,1-2,2h-8a2.00589,2.00589,0,0,1-2-2v-4a2.00589,2.00589,0,0,1,2-2h8m0-1h-8a3.00337,3.00337,0,0,0-3,3v4a3.00337,3.00337,0,0,0,3,3h8a3.00337,3.00337,0,0,0,3-3v-4a3.00337,3.00337,0,0,0-3-3Z" fill="#4271c2"/><path d="M169.87793,47.90527h.58105V50.21h.02149l1.91162-2.30469h.65869l-1.436,1.751L173.2749,52.5h-.65136l-1.373-2.38867-.79151.93164V52.5h-.58105Z" fill="#b0b0b0"/><path d="M173.57373,50.80469a1.64183,1.64183,0,0,1,1.52686-1.793c.86816,0,1.35839.62305,1.35839,1.59766a2.19021,2.19021,0,0,1-.021.32812h-2.29688a1.12791,1.12791,0,0,0,1.13428,1.18359,1.53729,1.53729,0,0,0,.84766-.26562l.20312.37891a2.03218,2.03218,0,0,1-1.1206.3496A1.628,1.628,0,0,1,173.57373,50.80469Zm2.38135-.2793c0-.6875-.30811-1.05859-.84082-1.05859a1.05221,1.05221,0,0,0-.98047,1.05859Z" fill="#b0b0b0"/><path d="M176.98926,53.89355l.1123-.45507a1.01861,1.01861,0,0,0,.25928.04882c.38477,0,.63037-.30761.77-.72753l.07715-.25293-1.36572-3.41114h.59521l.69336,1.88477c.10547.29394.22412.64453.32959.959h.02783c.09815-.30859.19629-.6582.28711-.959l.60938-1.88477h.56l-1.28173,3.68457c-.2378.67285-.58789,1.1836-1.27442,1.1836A1.13176,1.13176,0,0,1,176.98926,53.89355Z" fill="#b0b0b0"/><path d="M183.01025,48.39648h-1.38671v-.49121h3.36181v.49121h-1.38672V52.5h-.58838Z" fill="#b0b0b0"/><path d="M185.43164,49.0957h.47656l.04883.61719h.021a1.16435,1.16435,0,0,1,.96631-.70117.84666.84666,0,0,1,.36425.07031l-.11181.50391a.94992.94992,0,0,0-.3291-.05567c-.28711,0-.63038.21-.86182.78418V52.5h-.57422Z" fill="#b0b0b0"/><path d="M187.86035,47.51367h.56738v3.375h.021l1.44971-1.793h.63769L189.394,50.46191,190.68994,52.5h-.63037l-.99463-1.63867-.63721.74219V52.5h-.56738Z" fill="#b0b0b0"/><path d="M172.53809,57.90527h2.64746v.49121h-2.06641v1.44141h1.74414v.498h-1.74414v1.667h2.13623V62.5h-2.71728Z" fill="#b0b0b0"/><path d="M176.1709,59.0957h.47656l.04883.49024h.021a1.60415,1.60415,0,0,1,1.1416-.57422c.71435,0,1.03662.46289,1.03662,1.33105V62.5h-.57422V60.41992c0-.63672-.19629-.91015-.64453-.91015-.3501,0-.58838.18164-.93164.52539V62.5h-.57422Z" fill="#b0b0b0"/><path d="M179.50977,59.0957h.59521l.64453,1.9336c.09815.33593.21.67968.31494,1.002h.02832c.09815-.32227.21-.666.30811-1.002l.64453-1.9336h.56689L181.40771,62.5h-.67236Z" fill="#b0b0b0"/><path d="M184.459,60.20312a2.10842,2.10842,0,0,1,2.03809-2.38183,1.67831,1.67831,0,0,1,1.26074.56738l-.31543.37891a1.254,1.254,0,0,0-.93847-.43555c-.86817,0-1.44287.71485-1.44287,1.85742,0,1.1543.55371,1.88282,1.42187,1.88282a1.38443,1.38443,0,0,0,1.06445-.51758l.32227.36328a1.77643,1.77643,0,0,1-1.40772.666C185.31348,62.584,184.459,61.70117,184.459,60.20312Z" fill="#b0b0b0"/><path d="M269.64355,312.27051h3.15821v.78418h-2.23047v1.47851h1.90283v.78418h-1.90283V317.5h-.92774Z" fill="#b0b0b0"/><path d="M273.72363,312.27051H274.771l.92773,2.55859c.11182.32813.22363.67969.33594,1.02344h.03174c.11181-.34375.21582-.69531.32763-1.02344l.90381-2.55859H278.353V317.5h-.85547v-2.39062c0-.48829.07226-1.1836.12012-1.66309h-.03223l-.42383,1.21484-.85547,2.35059h-.55176l-.86328-2.35059-.416-1.21484h-.03174c.04.47949.11963,1.1748.11963,1.66309V317.5h-.83936Z" fill="#b0b0b0"/><path d="M347.96973,289.12988h.66357v2.19922h2.43848v-2.19922h.67187V294.375h-.67187v-2.4707H348.6333v2.4707h-.66357Z" fill="#b0b0b0"/><path d="M347.96973,301.75488h1.55908c1.06348,0,1.79883.36035,1.79883,1.2793a1.14751,1.14751,0,0,1-.76758,1.14355V304.21a1.206,1.206,0,0,1,1.07129,1.25488c0,1.03125-.81543,1.53516-1.99073,1.53516h-1.67089Zm1.439,2.23145c.89551,0,1.26367-.32813,1.26367-.86426,0-.60742-.416-.83887-1.23144-.83887h-.80762v1.70313Zm.13623,2.48633c.90332,0,1.43115-.32813,1.43115-1.03125,0-.64844-.51171-.94336-1.43115-.94336h-.91162v1.97461Z" fill="#b0b0b0"/><path d="M348.46973,314.12988h.66357v4.67774h2.29492v.56738h-2.95849Z" fill="#b0b0b0"/><path d="M268.64355,192.29883h3.15821v.78418h-2.23047v1.47851h1.90283v.78418h-1.90283v2.18262h-.92774Z" fill="#b0b0b0"/><path d="M272.72363,192.29883H273.771l.92773,2.55859c.11182.32813.22363.67969.33594,1.02344h.03174c.11181-.34375.21582-.69531.32763-1.02344l.90381-2.55859H277.353v5.22949h-.85547V195.1377c0-.48829.07226-1.1836.12012-1.66309h-.03223l-.42383,1.21484-.85547,2.35059h-.55176l-.86328-2.35059-.416-1.21484h-.03174c.04.47949.11963,1.1748.11963,1.66309v2.39062h-.83936Z" fill="#b0b0b0"/><path d="M170.27,30.20215a2.10921,2.10921,0,0,1,2.03809-2.38184,1.67831,1.67831,0,0,1,1.26074.56739l-.31543.3789a1.254,1.254,0,0,0-.93848-.43457c-.86816,0-1.44287.71485-1.44287,1.85645,0,1.15527.55371,1.88379,1.42188,1.88379a1.3854,1.3854,0,0,0,1.06445-.51856l.32226.36426a1.77851,1.77851,0,0,1-1.40771.665C171.12451,32.583,170.27,31.70117,170.27,30.20215Z" fill="#e4e4e4"/><path d="M174.3584,31.25293V29.0957h.58105v2.08008c0,.63672.18946.91016.6377.91016.3501,0,.59521-.17481.91748-.57422v-2.416h.57422V32.499h-.47656l-.04883-.53222h-.021a1.43865,1.43865,0,0,1-1.1206.61621C174.68066,32.583,174.3584,32.12109,174.3584,31.25293Z" fill="#e4e4e4"/><path d="M178.313,31.44824V29.56445h-.5044v-.43359l.53223-.03516.07031-.95312h.4834v.95312h.91748v.46875h-.91748v1.8916c0,.41993.13281.65821.5249.65821a1.23534,1.23534,0,0,0,.38526-.09082l.1123.43359a2.09086,2.09086,0,0,1-.63037.126C178.55811,32.583,178.313,32.12109,178.313,31.44824Z" fill="#e4e4e4"/><path d="M181.771,30.18066c0-1.4707.80517-2.36035,1.96093-2.36035s1.96827.89649,1.96827,2.36035c0,1.47852-.8125,2.40235-1.96827,2.40235S181.771,31.65918,181.771,30.18066Zm3.31982,0c0-1.1416-.53955-1.84863-1.35889-1.84863s-1.35888.707-1.35888,1.84863c0,1.14942.53955,1.89161,1.35888,1.89161S185.09082,31.33008,185.09082,30.18066Z" fill="#e4e4e4"/><path d="M188.72314,29.56445h-1.42187V32.499h-.57422V29.56445h-.4624v-.43359l.4624-.03516v-.44824c0-.708.3501-1.14844,1.05762-1.14844a1.56972,1.56972,0,0,1,.62353.126l-.11914.43359a1.11192,1.11192,0,0,0-.45556-.09082c-.33594,0-.53223.24512-.53223.69336v.43457h1.42187v-.54c0-.69336.315-1.127.99463-1.127a1.53514,1.53514,0,0,1,.56739.11231l-.12647.44043a.96028.96028,0,0,0-.38476-.084c-.32227,0-.47657.22461-.47657.6582v.54h.72168v.46875h-.72168V32.499h-.57422Z" fill="#e4e4e4"/><path d="M442.00928,52.9043h.58105V57.002h2.01026V57.499h-2.59131Z" fill="#e4e4e4"/><path d="M444.68994,55.53809h2.7876v.39941h-2.7876Z" fill="#e4e4e4"/><path d="M448.39307,52.9043h1.36572c.93164,0,1.57568.31543,1.57568,1.12109a1.00574,1.00574,0,0,1-.67236,1.002v.02735a1.05757,1.05757,0,0,1,.93848,1.09961c0,.90332-.71436,1.34472-1.74366,1.34472h-1.46386Zm1.26074,1.9541c.78418,0,1.10644-.28711,1.10644-.75586,0-.53223-.36425-.73535-1.07861-.73535h-.70752V54.8584Zm.11914,2.17871c.7915,0,1.25342-.28711,1.25342-.90332,0-.56738-.44825-.82715-1.25342-.82715h-.79883v1.73047Z" fill="#e4e4e4"/><path d="M452.166,55.52441h1.61084v.44141H452.166Z" fill="#e4e4e4"/><path d="M454.686,52.9043h.58105v1.92675h2.13623V52.9043h.58838V57.499h-.58838V55.335h-2.13623V57.499H454.686Z" fill="#e4e4e4"/><path d="M311.65967,132.9043h1.43554c.93848,0,1.61084.33691,1.61084,1.28906a1.25407,1.25407,0,0,1-1.03613,1.30273l1.16944,2.00293h-.65821l-1.10693-1.93945h-.8335V137.499h-.58105Zm1.35156,2.17871c.71436,0,1.11377-.29395,1.11377-.88965,0-.60254-.39941-.81934-1.11377-.81934h-.77051v1.709Z" fill="#e4e4e4"/><path d="M315.26465,135.80469a1.64123,1.64123,0,0,1,1.52685-1.793c.86817,0,1.3584.62305,1.3584,1.59668a2.20418,2.20418,0,0,1-.021.3291H315.832a1.12848,1.12848,0,0,0,1.13428,1.18359,1.53809,1.53809,0,0,0,.84765-.2666l.20313.37891a2.03212,2.03212,0,0,1-1.12061.34961A1.62716,1.62716,0,0,1,315.26465,135.80469Zm2.38135-.28028c0-.68652-.30811-1.05761-.84082-1.05761a1.05123,1.05123,0,0,0-.98047,1.05761Z" fill="#e4e4e4"/><path d="M318.61035,137.11426l.28711-.38574a1.5294,1.5294,0,0,0,1.00147.40625c.44824,0,.67236-.23829.67236-.53223,0-.34961-.40625-.50391-.77734-.64453-.4834-.17481-1.01563-.40625-1.01563-.98047,0-.5459.43408-.96582,1.16943-.96582a1.7,1.7,0,0,1,1.05762.38476l-.273.36426a1.26675,1.26675,0,0,0-.77734-.30078c-.42725,0-.62354.23047-.62354.49024,0,.32226.3711.4414.75635.58789.49023.18261,1.03662.38574,1.03662,1.02929,0,.55371-.4414,1.01563-1.24658,1.01563A2.0501,2.0501,0,0,1,318.61035,137.11426Z" fill="#e4e4e4"/><path d="M321.66943,135.80469a1.58745,1.58745,0,1,1,1.57569,1.77832A1.62647,1.62647,0,0,1,321.66943,135.80469Zm2.55616,0c0-.78516-.39209-1.31739-.98047-1.31739-.58106,0-.98047.53223-.98047,1.31739,0,.77734.39941,1.30273.98047,1.30273C323.8335,137.10742,324.22559,136.582,324.22559,135.80469Z" fill="#e4e4e4"/><path d="M325.71533,134.0957h.47656l.04883.49024h.021a1.60415,1.60415,0,0,1,1.1416-.57422c.71436,0,1.03662.46191,1.03662,1.33008V137.499h-.57422V135.419c0-.63672-.19629-.91016-.64453-.91016-.3501,0-.58838.18164-.93164.52539V137.499h-.57422Z" fill="#e4e4e4"/><path d="M311.65967,252.9043h1.43554c.93848,0,1.61084.33691,1.61084,1.28906a1.25407,1.25407,0,0,1-1.03613,1.30273l1.16944,2.00293h-.65821l-1.10693-1.93945h-.8335V257.499h-.58105Zm1.35156,2.17871c.71436,0,1.11377-.29395,1.11377-.88965,0-.60254-.39941-.81934-1.11377-.81934h-.77051v1.709Z" fill="#e4e4e4"/><path d="M315.26465,255.80469a1.64123,1.64123,0,0,1,1.52685-1.793c.86817,0,1.3584.62305,1.3584,1.59668a2.20418,2.20418,0,0,1-.021.3291H315.832a1.12848,1.12848,0,0,0,1.13428,1.18359,1.53809,1.53809,0,0,0,.84765-.2666l.20313.37891a2.03212,2.03212,0,0,1-1.12061.34961A1.62716,1.62716,0,0,1,315.26465,255.80469Zm2.38135-.28028c0-.68652-.30811-1.05761-.84082-1.05761a1.05123,1.05123,0,0,0-.98047,1.05761Z" fill="#e4e4e4"/><path d="M318.61035,257.11426l.28711-.38574a1.5294,1.5294,0,0,0,1.00147.40625c.44824,0,.67236-.23829.67236-.53223,0-.34961-.40625-.50391-.77734-.64453-.4834-.17481-1.01563-.40625-1.01563-.98047,0-.5459.43408-.96582,1.16943-.96582a1.7,1.7,0,0,1,1.05762.38476l-.273.36426a1.26675,1.26675,0,0,0-.77734-.30078c-.42725,0-.62354.23047-.62354.49024,0,.32226.3711.4414.75635.58789.49023.18261,1.03662.38574,1.03662,1.02929,0,.55371-.4414,1.01563-1.24658,1.01563A2.0501,2.0501,0,0,1,318.61035,257.11426Z" fill="#e4e4e4"/><path d="M321.66943,255.80469a1.58745,1.58745,0,1,1,1.57569,1.77832A1.62647,1.62647,0,0,1,321.66943,255.80469Zm2.55616,0c0-.78516-.39209-1.31739-.98047-1.31739-.58106,0-.98047.53223-.98047,1.31739,0,.77734.39941,1.30273.98047,1.30273C323.8335,257.10742,324.22559,256.582,324.22559,255.80469Z" fill="#e4e4e4"/><path d="M325.71533,254.0957h.47656l.04883.49024h.021a1.60415,1.60415,0,0,1,1.1416-.57422c.71436,0,1.03662.46191,1.03662,1.33008V257.499h-.57422V255.419c0-.63672-.19629-.91016-.64453-.91016-.3501,0-.58838.18164-.93164.52539V257.499h-.57422Z" fill="#e4e4e4"/><path d="M169.90918,41.9043l.35059-.40625a1.80011,1.80011,0,0,0,1.26757.57422c.602,0,.95948-.30176.95948-.75,0-.46875-.32911-.61622-.76368-.8125l-.6582-.28711a1.29036,1.29036,0,0,1-.93164-1.1836,1.30545,1.30545,0,0,1,1.44287-1.21875,1.9075,1.9075,0,0,1,1.35889.56739l-.31543.3789a1.46261,1.46261,0,0,0-1.04346-.43457c-.51123,0-.85449.25879-.85449.67188,0,.4414.39941.60937.76367.76367l.65137.28027a1.27884,1.27884,0,0,1,.94531,1.22559,1.38718,1.38718,0,0,1-1.56152,1.30957A2.22917,2.22917,0,0,1,169.90918,41.9043Z" fill="#e4e4e4"/><path d="M173.92725,39.0957h.47656l.04883.3916h.021a1.7628,1.7628,0,0,1,1.08545-.47558c.87549,0,1.34473.67871,1.34473,1.73633,0,1.15625-.69336,1.835-1.4707,1.835a1.5767,1.5767,0,0,1-.94532-.3916l.01367.59472v1.14844h-.57421Zm2.38134,1.65235c0-.749-.252-1.25293-.89648-1.25293a1.4313,1.4313,0,0,0-.91065.46191v1.78613a1.34754,1.34754,0,0,0,.8335.35645C175.89551,42.09961,176.30859,41.58887,176.30859,40.74805Z" fill="#e4e4e4"/><path d="M177.8125,39.0957h.47656l.04883.61621h.021a1.16314,1.16314,0,0,1,.96631-.70019.847.847,0,0,1,.36425.06933l-.11181.50489a.94941.94941,0,0,0-.3291-.05664c-.28711,0-.63038.21093-.86182.78515V42.499h-.57422Z" fill="#e4e4e4"/><path d="M179.91943,40.80469a1.64124,1.64124,0,0,1,1.52686-1.793c.86816,0,1.3584.62305,1.3584,1.59668a2.20405,2.20405,0,0,1-.021.3291h-2.29687a1.12848,1.12848,0,0,0,1.13427,1.18359,1.5381,1.5381,0,0,0,.84766-.2666l.20313.37891a2.03217,2.03217,0,0,1-1.12061.34961A1.62716,1.62716,0,0,1,179.91943,40.80469Zm2.38135-.28028c0-.68652-.3081-1.05761-.84082-1.05761a1.05123,1.05123,0,0,0-.98047,1.05761Z" fill="#e4e4e4"/><path d="M183.33545,41.61719c0-.74317.63721-1.11426,2.08691-1.27539,0-.4336-.14013-.8545-.70019-.8545a1.85488,1.85488,0,0,0-1.01563.36426l-.22412-.39941a2.52722,2.52722,0,0,1,1.33789-.44043c.8335,0,1.1836.55273,1.1836,1.40039V42.499h-.47657l-.04882-.40625h-.021a1.81306,1.81306,0,0,1-1.12744.49024A.92571.92571,0,0,1,183.33545,41.61719Zm2.08691.04883V40.7207c-1.13427.13965-1.52685.41992-1.52685.8545,0,.38476.26611.54589.60254.54589A1.38,1.38,0,0,0,185.42236,41.666Z" fill="#e4e4e4"/><path d="M186.82812,40.80469a1.61153,1.61153,0,0,1,1.478-1.793,1.40045,1.40045,0,0,1,.95215.3916l-.02783-.581V37.5127h.58154V42.499h-.47656l-.04883-.39941h-.021a1.533,1.533,0,0,1-1.02978.4834C187.38135,42.583,186.82812,41.93848,186.82812,40.80469Zm2.40235.82617v-1.7793a1.185,1.185,0,0,0-.82617-.35644c-.54639,0-.981.52441-.981,1.30176,0,.8125.34326,1.30273.93848,1.30273A1.15058,1.15058,0,0,0,189.23047,41.63086Z" fill="#e4e4e4"/><path d="M444.728,192.90527h1.30957c1.02978,0,1.72314.34278,1.72314,1.35157,0,.96679-.68652,1.42187-1.69482,1.42187h-.75684V197.5H444.728Zm1.26758,2.29688c.79834,0,1.18359-.29395,1.18359-.94531,0-.665-.40625-.88184-1.21143-.88184h-.65869v1.82715Z" fill="#e4e4e4"/><path d="M448.12305,196.61719c0-.74219.6372-1.11328,2.08691-1.27442,0-.43457-.14014-.85449-.70019-.85449a1.84725,1.84725,0,0,0-1.01563.36426l-.22412-.39942a2.52746,2.52746,0,0,1,1.33789-.4414c.8335,0,1.18359.55371,1.18359,1.40137V197.5h-.47656l-.04883-.40625h-.021a1.81842,1.81842,0,0,1-1.12744.49023A.92645.92645,0,0,1,448.12305,196.61719Zm2.08691.04883v-.94532c-1.13428.14063-1.52685.41992-1.52685.8545,0,.38574.26611.54589.60253.54589A1.37566,1.37566,0,0,0,450.21,196.666Z" fill="#e4e4e4"/><path d="M451.86084,194.0957h.47656l.04883.61621h.021a1.165,1.165,0,0,1,.96631-.70019.84666.84666,0,0,1,.36425.07031l-.11181.50391a.94992.94992,0,0,0-.3291-.05567c-.28711,0-.63038.21-.86182.78418V197.5h-.57422Z" fill="#e4e4e4"/><path d="M453.91162,196.61719c0-.74219.63721-1.11328,2.08692-1.27442,0-.43457-.14014-.85449-.7002-.85449a1.84727,1.84727,0,0,0-1.01563.36426l-.22412-.39942a2.52749,2.52749,0,0,1,1.33789-.4414c.8335,0,1.1836.55371,1.1836,1.40137V197.5h-.47656l-.04883-.40625h-.021a1.81837,1.81837,0,0,1-1.12744.49023A.92646.92646,0,0,1,453.91162,196.61719Zm2.08692.04883v-.94532c-1.13428.14063-1.52686.41992-1.52686.8545,0,.38574.26611.54589.60254.54589A1.3757,1.3757,0,0,0,455.99854,196.666Z" fill="#e4e4e4"/><path d="M457.6499,196.81348V192.5127h.57422v4.34277c0,.18164.07715.25195.16113.25195a.4926.4926,0,0,0,.126-.01367l.07715.43359a.76884.76884,0,0,1-.3291.05664C457.8252,197.584,457.6499,197.31055,457.6499,196.81348Z" fill="#e4e4e4"/><path d="M459.43457,196.81348V192.5127h.57422v4.34277c0,.18164.07715.25195.16113.25195a.4926.4926,0,0,0,.126-.01367l.07715.43359a.76884.76884,0,0,1-.3291.05664C459.60986,197.584,459.43457,197.31055,459.43457,196.81348Z" fill="#e4e4e4"/><path d="M460.96777,195.80469a1.64184,1.64184,0,0,1,1.52686-1.793c.86816,0,1.3584.62305,1.3584,1.59668a2.20405,2.20405,0,0,1-.021.3291h-2.29687a1.12848,1.12848,0,0,0,1.13427,1.18359,1.53727,1.53727,0,0,0,.84766-.26562l.20312.37793a2.02468,2.02468,0,0,1-1.1206.35058A1.628,1.628,0,0,1,460.96777,195.80469Zm2.38135-.28028c0-.68652-.3081-1.05761-.84082-1.05761a1.052,1.052,0,0,0-.98047,1.05761Z" fill="#e4e4e4"/><path d="M464.69141,196.81348V192.5127h.57421v4.34277c0,.18164.07715.25195.16114.25195a.49253.49253,0,0,0,.126-.01367l.07715.43359a.76881.76881,0,0,1-.3291.05664C464.8667,197.584,464.69141,197.31055,464.69141,196.81348Z" fill="#e4e4e4"/><path d="M174.728,252.90527h1.30957c1.02978,0,1.72314.34278,1.72314,1.35157,0,.96679-.68652,1.42187-1.69482,1.42187h-.75684V257.5H174.728Zm1.26758,2.29688c.79834,0,1.18359-.29395,1.18359-.94531,0-.665-.40625-.88184-1.21143-.88184h-.65869v1.82715Z" fill="#e4e4e4"/><path d="M178.12305,256.61719c0-.74219.6372-1.11328,2.08691-1.27442,0-.43457-.14014-.85449-.70019-.85449a1.84725,1.84725,0,0,0-1.01563.36426l-.22412-.39942a2.52746,2.52746,0,0,1,1.33789-.4414c.8335,0,1.18359.55371,1.18359,1.40137V257.5h-.47656l-.04883-.40625h-.021a1.81842,1.81842,0,0,1-1.12744.49023A.92645.92645,0,0,1,178.12305,256.61719Zm2.08691.04883v-.94532c-1.13428.14063-1.52685.41992-1.52685.8545,0,.38574.26611.54589.60253.54589A1.37566,1.37566,0,0,0,180.21,256.666Z" fill="#e4e4e4"/><path d="M181.86084,254.0957h.47656l.04883.61621h.021a1.165,1.165,0,0,1,.96631-.70019.84666.84666,0,0,1,.36425.07031l-.11181.50391a.94992.94992,0,0,0-.3291-.05567c-.28711,0-.63038.21-.86182.78418V257.5h-.57422Z" fill="#e4e4e4"/><path d="M183.91162,256.61719c0-.74219.63721-1.11328,2.08692-1.27442,0-.43457-.14014-.85449-.7002-.85449a1.84727,1.84727,0,0,0-1.01563.36426l-.22412-.39942a2.52749,2.52749,0,0,1,1.33789-.4414c.8335,0,1.1836.55371,1.1836,1.40137V257.5h-.47656l-.04883-.40625h-.021a1.81837,1.81837,0,0,1-1.12744.49023A.92646.92646,0,0,1,183.91162,256.61719Zm2.08692.04883v-.94532c-1.13428.14063-1.52686.41992-1.52686.8545,0,.38574.26611.54589.60254.54589A1.3757,1.3757,0,0,0,185.99854,256.666Z" fill="#e4e4e4"/><path d="M187.6499,256.81348V252.5127h.57422v4.34277c0,.18164.07715.25195.16113.25195a.4926.4926,0,0,0,.126-.01367l.07715.43359a.76884.76884,0,0,1-.3291.05664C187.8252,257.584,187.6499,257.31055,187.6499,256.81348Z" fill="#e4e4e4"/><path d="M189.43457,256.81348V252.5127h.57422v4.34277c0,.18164.07715.25195.16113.25195a.4926.4926,0,0,0,.126-.01367l.07715.43359a.76884.76884,0,0,1-.3291.05664C189.60986,257.584,189.43457,257.31055,189.43457,256.81348Z" fill="#e4e4e4"/><path d="M190.96777,255.80469a1.64184,1.64184,0,0,1,1.52686-1.793c.86816,0,1.3584.62305,1.3584,1.59668a2.20405,2.20405,0,0,1-.021.3291h-2.29687a1.12848,1.12848,0,0,0,1.13427,1.18359,1.53727,1.53727,0,0,0,.84766-.26562l.20312.37793a2.02468,2.02468,0,0,1-1.1206.35058A1.628,1.628,0,0,1,190.96777,255.80469Zm2.38135-.28028c0-.68652-.3081-1.05761-.84082-1.05761a1.052,1.052,0,0,0-.98047,1.05761Z" fill="#e4e4e4"/><path d="M194.69141,256.81348V252.5127h.57421v4.34277c0,.18164.07715.25195.16114.25195a.49253.49253,0,0,0,.126-.01367l.07715.43359a.76881.76881,0,0,1-.3291.05664C194.8667,257.584,194.69141,257.31055,194.69141,256.81348Z" fill="#e4e4e4"/><path d="M181.35693,339.40527h2.64746v.49024H181.938v1.55469h1.751v.49023h-1.751V344h-.58106Z" fill="#e4e4e4"/><path d="M184.81494,339.40527h.7002l.88281,2.45118c.11182.31543.2168.64453.3291.96h.02783c.11231-.31543.20313-.64453.31543-.96l.86817-2.45118h.70752V344h-.54639v-2.52832c0-.40625.04932-.95313.07715-1.35938h-.02783l-.36426,1.04395-.86865,2.38086h-.38526l-.86816-2.38086-.36426-1.04395H185.27c.02832.40625.07031.95313.07031,1.35938V344h-.52539Z" fill="#e4e4e4"/><path d="M357.66211,132.90527h.58105v4.09766h2.01026V137.5h-2.59131Z" fill="#979797"/><path d="M360.34277,135.52441h1.61084v.44141h-1.61084Z" fill="#979797"/><path d="M362.86328,132.90527H364.229c.93164,0,1.57569.31543,1.57569,1.1211a1.00369,1.00369,0,0,1-.67237,1.001v.02832a1.05627,1.05627,0,0,1,.93848,1.09961c0,.90332-.71435,1.34473-1.74365,1.34473h-1.46387Zm1.26074,1.95411c.78418,0,1.10645-.28711,1.10645-.75684,0-.53223-.36426-.73535-1.07861-.73535h-.70752v1.49219Zm.11914,2.17773c.79151,0,1.25342-.28711,1.25342-.90332,0-.56738-.44824-.82617-1.25342-.82617h-.79882v1.72949Z" fill="#979797"/><path d="M366.63574,135.52441h1.61084v.44141h-1.61084Z" fill="#979797"/><path d="M369.15576,132.90527h.58106v1.92578h2.13623v-1.92578h.58838V137.5h-.58838v-2.16406h-2.13623V137.5h-.58106Z" fill="#979797"/><path d="M375.043,137.02344h1.02246v-3.292h-.8125v-.3711a2.65692,2.65692,0,0,0,.9458-.3291h.44141v3.99219h.92431V137.5H375.043Z" fill="#979797"/><path d="M357.66211,252.90527h.58105v4.09766h2.01026V257.5h-2.59131Z" fill="#979797"/><path d="M360.34277,255.52441h1.61084v.44141h-1.61084Z" fill="#979797"/><path d="M362.86328,252.90527H364.229c.93164,0,1.57569.31543,1.57569,1.1211a1.00369,1.00369,0,0,1-.67237,1.001v.02832a1.05627,1.05627,0,0,1,.93848,1.09961c0,.90332-.71435,1.34473-1.74365,1.34473h-1.46387Zm1.26074,1.95411c.78418,0,1.10645-.28711,1.10645-.75684,0-.53223-.36426-.73535-1.07861-.73535h-.70752v1.49219Zm.11914,2.17773c.79151,0,1.25342-.28711,1.25342-.90332,0-.56738-.44824-.82617-1.25342-.82617h-.79882v1.72949Z" fill="#979797"/><path d="M366.63574,255.52441h1.61084v.44141h-1.61084Z" fill="#979797"/><path d="M369.15576,252.90527h.58106v1.92578h2.13623v-1.92578h.58838V257.5h-.58838v-2.16406h-2.13623V257.5h-.58106Z" fill="#979797"/><path d="M374.77,257.15625c1.34473-1.33691,2.10107-2.14258,2.10107-2.86426a.791.791,0,0,0-.84765-.875,1.31344,1.31344,0,0,0-.95215.53906l-.32959-.3291a1.75506,1.75506,0,0,1,1.35205-.67968,1.241,1.241,0,0,1,1.3374,1.3164c0,.84082-.76318,1.67383-1.8208,2.78125.24512-.02148.51807-.042.74951-.042h1.29541V257.5H374.77Z" fill="#979797"/><path d="M282.87451,135.20215a2.10807,2.10807,0,0,1,2.03809-2.38086,1.67491,1.67491,0,0,1,1.26074.56738l-.31543.37793a1.25655,1.25655,0,0,0-.93848-.43457c-.86816,0-1.44287.71485-1.44287,1.85645,0,1.15527.55371,1.88379,1.42188,1.88379a1.38754,1.38754,0,0,0,1.06445-.51758l.32227.36328a1.77643,1.77643,0,0,1-1.40772.666C283.729,137.584,282.87451,136.70117,282.87451,135.20215Z" fill="#979797"/><path d="M286.96289,136.25293V134.0957h.58106v2.08008c0,.6377.18945.91113.63769.91113.3501,0,.59522-.17578.91748-.57421v-2.417h.57422V137.5h-.47656l-.04883-.53223h-.021a1.43861,1.43861,0,0,1-1.1206.61621C287.28516,137.584,286.96289,137.12109,286.96289,136.25293Z" fill="#979797"/><path d="M290.91748,136.44922v-1.88379h-.50439v-.43457l.53222-.03516.07031-.95215h.4834v.95215h.91748v.46973H291.499v1.89062c0,.41993.13282.65821.52491.65821a1.23528,1.23528,0,0,0,.38525-.09082l.1123.43457a2.12125,2.12125,0,0,1-.63037.126C291.1626,137.584,290.91748,137.12109,290.91748,136.44922Z" fill="#979797"/><path d="M294.56445,137.02344h1.02246v-3.292h-.8125v-.3711a2.65685,2.65685,0,0,0,.9458-.3291h.44141v3.99219h.92432V137.5h-2.52149Z" fill="#979797"/><path d="M282.87451,255.20215a2.10807,2.10807,0,0,1,2.03809-2.38086,1.67491,1.67491,0,0,1,1.26074.56738l-.31543.37793a1.25655,1.25655,0,0,0-.93848-.43457c-.86816,0-1.44287.71485-1.44287,1.85645,0,1.15527.55371,1.88379,1.42188,1.88379a1.38754,1.38754,0,0,0,1.06445-.51758l.32227.36328a1.77643,1.77643,0,0,1-1.40772.666C283.729,257.584,282.87451,256.70117,282.87451,255.20215Z" fill="#979797"/><path d="M286.96289,256.25293V254.0957h.58106v2.08008c0,.6377.18945.91113.63769.91113.3501,0,.59522-.17578.91748-.57421v-2.417h.57422V257.5h-.47656l-.04883-.53223h-.021a1.43861,1.43861,0,0,1-1.1206.61621C287.28516,257.584,286.96289,257.12109,286.96289,256.25293Z" fill="#979797"/><path d="M290.91748,256.44922v-1.88379h-.50439v-.43457l.53222-.03516.07031-.95215h.4834v.95215h.91748v.46973H291.499v1.89062c0,.41993.13282.65821.52491.65821a1.23528,1.23528,0,0,0,.38525-.09082l.1123.43457a2.12125,2.12125,0,0,1-.63037.126C291.1626,257.584,290.91748,257.12109,290.91748,256.44922Z" fill="#979797"/><path d="M294.2915,257.15625c1.34473-1.33691,2.10108-2.14258,2.10108-2.86426a.791.791,0,0,0-.84766-.875,1.31346,1.31346,0,0,0-.95215.53906l-.32959-.3291a1.75507,1.75507,0,0,1,1.35205-.67968,1.241,1.241,0,0,1,1.33741,1.3164c0,.84082-.76319,1.67383-1.8208,2.78125.24511-.02148.51806-.042.74951-.042h1.29541V257.5H294.2915Z" fill="#979797"/><path d="M152.87451,120.70215a2.10807,2.10807,0,0,1,2.03809-2.38086,1.67491,1.67491,0,0,1,1.26074.56738l-.31543.37793a1.25655,1.25655,0,0,0-.93848-.43457c-.86816,0-1.44287.71485-1.44287,1.85645,0,1.15527.55371,1.88379,1.42188,1.88379a1.38754,1.38754,0,0,0,1.06445-.51758l.32227.36328a1.77643,1.77643,0,0,1-1.40772.666C153.729,123.084,152.87451,122.20117,152.87451,120.70215Z" fill="#979797"/><path d="M156.96289,121.75293V119.5957h.58106v2.08008c0,.6377.18945.91113.63769.91113.3501,0,.59522-.17578.91748-.57421v-2.417h.57422V123h-.47656l-.04883-.53223h-.021a1.43861,1.43861,0,0,1-1.1206.61621C157.28516,123.084,156.96289,122.62109,156.96289,121.75293Z" fill="#979797"/><path d="M160.91748,121.94922v-1.88379h-.50439v-.43457l.53222-.03516.07031-.95215h.4834v.95215h.91748v.46973H161.499v1.89062c0,.41993.13282.65821.52491.65821a1.23528,1.23528,0,0,0,.38525-.09082l.1123.43457a2.12125,2.12125,0,0,1-.63037.126C161.1626,123.084,160.91748,122.62109,160.91748,121.94922Z" fill="#979797"/><path d="M164.56445,122.52344h1.02246v-3.292h-.8125v-.3711a2.65685,2.65685,0,0,0,.9458-.3291h.44141v3.99219h.92432V123h-2.52149Z" fill="#979797"/><path d="M197.87451,120.70215a2.10807,2.10807,0,0,1,2.03809-2.38086,1.67491,1.67491,0,0,1,1.26074.56738l-.31543.37793a1.25655,1.25655,0,0,0-.93848-.43457c-.86816,0-1.44287.71485-1.44287,1.85645,0,1.15527.55371,1.88379,1.42188,1.88379a1.38754,1.38754,0,0,0,1.06445-.51758l.32227.36328a1.77643,1.77643,0,0,1-1.40772.666C198.729,123.084,197.87451,122.20117,197.87451,120.70215Z" fill="#979797"/><path d="M201.96289,121.75293V119.5957h.58106v2.08008c0,.6377.18945.91113.63769.91113.3501,0,.59522-.17578.91748-.57421v-2.417h.57422V123h-.47656l-.04883-.53223h-.021a1.43861,1.43861,0,0,1-1.1206.61621C202.28516,123.084,201.96289,122.62109,201.96289,121.75293Z" fill="#979797"/><path d="M205.91748,121.94922v-1.88379h-.50439v-.43457l.53222-.03516.07031-.95215h.4834v.95215h.91748v.46973H206.499v1.89062c0,.41993.13282.65821.52491.65821a1.23528,1.23528,0,0,0,.38525-.09082l.1123.43457a2.12125,2.12125,0,0,1-.63037.126C206.1626,123.084,205.91748,122.62109,205.91748,121.94922Z" fill="#979797"/><path d="M209.2915,122.65625c1.34473-1.33691,2.10108-2.14258,2.10108-2.86426a.791.791,0,0,0-.84766-.875,1.31346,1.31346,0,0,0-.95215.53906l-.32959-.3291a1.75507,1.75507,0,0,1,1.352-.67968,1.241,1.241,0,0,1,1.33741,1.3164c0,.84082-.76319,1.67383-1.8208,2.78125.24511-.02148.51806-.042.74951-.042h1.29541V123H209.2915Z" fill="#979797"/><path d="M420.16211,118.40527h.58105v4.09766h2.01026V123h-2.59131Z" fill="#979797"/><path d="M422.84277,121.02441h1.61084v.44141h-1.61084Z" fill="#979797"/><path d="M425.36328,118.40527H426.729c.93164,0,1.57569.31543,1.57569,1.1211a1.00369,1.00369,0,0,1-.67237,1.001v.02832a1.05627,1.05627,0,0,1,.93848,1.09961c0,.90332-.71435,1.34473-1.74365,1.34473h-1.46387Zm1.26074,1.95411c.78418,0,1.10645-.28711,1.10645-.75684,0-.53223-.36426-.73535-1.07861-.73535h-.70752v1.49219Zm.11914,2.17773c.79151,0,1.25342-.28711,1.25342-.90332,0-.56738-.44824-.82617-1.25342-.82617h-.79882v1.72949Z" fill="#979797"/><path d="M429.13574,121.02441h1.61084v.44141h-1.61084Z" fill="#979797"/><path d="M431.65576,118.40527h.58106v1.92578h2.13623v-1.92578h.58838V123h-.58838v-2.16406h-2.13623V123h-.58106Z" fill="#979797"/><path d="M437.543,122.52344h1.02246v-3.292h-.8125v-.3711a2.65692,2.65692,0,0,0,.9458-.3291h.44141v3.99219h.92431V123H437.543Z" fill="#979797"/><path d="M460.16211,118.40527h.58105v4.09766h2.01026V123h-2.59131Z" fill="#979797"/><path d="M462.84277,121.02441h1.61084v.44141h-1.61084Z" fill="#979797"/><path d="M465.36328,118.40527H466.729c.93164,0,1.57569.31543,1.57569,1.1211a1.00369,1.00369,0,0,1-.67237,1.001v.02832a1.05627,1.05627,0,0,1,.93848,1.09961c0,.90332-.71435,1.34473-1.74365,1.34473h-1.46387Zm1.26074,1.95411c.78418,0,1.10645-.28711,1.10645-.75684,0-.53223-.36426-.73535-1.07861-.73535h-.70752v1.49219Zm.11914,2.17773c.79151,0,1.25342-.28711,1.25342-.90332,0-.56738-.44824-.82617-1.25342-.82617h-.79882v1.72949Z" fill="#979797"/><path d="M469.13574,121.02441h1.61084v.44141h-1.61084Z" fill="#979797"/><path d="M471.65576,118.40527h.58106v1.92578h2.13623v-1.92578h.58838V123h-.58838v-2.16406h-2.13623V123h-.58106Z" fill="#979797"/><path d="M477.27,122.65625c1.34473-1.33691,2.10107-2.14258,2.10107-2.86426a.791.791,0,0,0-.84765-.875,1.31344,1.31344,0,0,0-.95215.53906l-.32959-.3291a1.75506,1.75506,0,0,1,1.35205-.67968,1.241,1.241,0,0,1,1.3374,1.3164c0,.84082-.76318,1.67383-1.8208,2.78125.24512-.02148.51807-.042.74951-.042h1.29541V123H477.27Z" fill="#979797"/><path d="M30.76318,82.40527h.60254L33.02539,85.291l.49707.95312h.02832c-.02832-.46289-.07031-.98047-.07031-1.46387v-2.375h.55322V87h-.602l-1.667-2.89258-.49707-.94531h-.02832c.03515.46191.07715.95215.07715,1.43555V87h-.55323Z" fill="#979797"/><path d="M34.98389,85.30566A1.58723,1.58723,0,1,1,36.55957,87.084,1.62646,1.62646,0,0,1,34.98389,85.30566Zm2.55615,0c0-.78515-.39209-1.31738-.98047-1.31738-.581,0-.98047.53223-.98047,1.31738,0,.77735.39942,1.30274.98047,1.30274C37.148,86.6084,37.54,86.083,37.54,85.30566Z" fill="#979797"/><path d="M39.00928,85.94922V84.06543h-.5044v-.43359l.53223-.03516.07031-.95313h.4834v.95313h.91748v.46875h-.91748V85.957c0,.41992.13281.6582.5249.6582a1.23506,1.23506,0,0,0,.38526-.09082l.1123.4336a2.09116,2.09116,0,0,1-.63037.126C39.25439,87.084,39.00928,86.62207,39.00928,85.94922Z" fill="#979797"/><path d="M40.92676,85.30566a1.64122,1.64122,0,0,1,1.52685-1.793c.86817,0,1.3584.623,1.3584,1.59668a2.20428,2.20428,0,0,1-.021.3291H41.49414a1.12848,1.12848,0,0,0,1.13428,1.18359,1.53809,1.53809,0,0,0,.84765-.2666l.20313.37891a2.03219,2.03219,0,0,1-1.12061.3496A1.62715,1.62715,0,0,1,40.92676,85.30566Zm2.38135-.28027c0-.68652-.30811-1.05762-.84082-1.05762a1.05124,1.05124,0,0,0-.98047,1.05762Z" fill="#979797"/><path d="M46.10693,82.40527H47.4165c1.02979,0,1.72315.34375,1.72315,1.35254,0,.96582-.68653,1.42188-1.69483,1.42188H46.688V87h-.58106Zm1.26758,2.29785c.79834,0,1.1836-.29394,1.1836-.94531,0-.666-.40625-.88281-1.21143-.88281H46.688v1.82812Z" fill="#979797"/><path d="M49.90771,82.52441a.40023.40023,0,0,1,.79834,0,.40016.40016,0,0,1-.79834,0Zm.105,1.07227h.57421V87H50.0127Z" fill="#979797"/><path d="M51.833,85.94922V84.06543h-.5044v-.43359l.53223-.03516.07031-.95313h.4834v.95313H53.332v.46875h-.91748V85.957c0,.41992.13281.6582.5249.6582a1.23506,1.23506,0,0,0,.38526-.09082l.1123.4336a2.09116,2.09116,0,0,1-.63037.126C52.07812,87.084,51.833,86.62207,51.833,85.94922Z" fill="#979797"/><path d="M53.751,85.30566a1.64836,1.64836,0,0,1,1.63867-1.793,1.41429,1.41429,0,0,1,.99463.39843l-.29395.37891a.99631.99631,0,0,0-.67969-.30176c-.61621,0-1.06445.53223-1.06445,1.31738,0,.77735.42725,1.30274,1.05078,1.30274a1.20956,1.20956,0,0,0,.79834-.34375l.252.38574a1.6631,1.6631,0,0,1-1.09961.43359A1.59841,1.59841,0,0,1,53.751,85.30566Z" fill="#979797"/><path d="M57.19482,82.01367H57.769v1.3584l-.021.7002a1.62916,1.62916,0,0,1,1.13476-.55957c.71436,0,1.03662.46191,1.03662,1.33007V87h-.57422V84.91992c0-.63672-.19628-.91015-.64453-.91015-.35009,0-.58838.18164-.93164.52539V87h-.57422Z" fill="#979797"/><path d="M62.05273,85.80957a1.64871,1.64871,0,0,1,.90332-1.32324,2.47656,2.47656,0,0,1-.30078-1.0791,1.03956,1.03956,0,0,1,1.06446-1.08594.84794.84794,0,0,1,.90332.91113c0,.60254-.52539.98731-1.03662,1.3584A5.9658,5.9658,0,0,0,64.749,85.87988a4.0138,4.0138,0,0,0,.64453-1.35937h.53907a5.225,5.225,0,0,1-.80518,1.64648,3.06363,3.06363,0,0,0,.86133.44141L65.835,87.084a3.59159,3.59159,0,0,1-1.05762-.52539,1.92941,1.92941,0,0,1-1.32373.52539A1.2837,1.2837,0,0,1,62.05273,85.80957Zm2.33936.44141a6.74925,6.74925,0,0,1-1.20459-1.36621,1.21136,1.21136,0,0,0-.57471.88964.84714.84714,0,0,0,.90381.84766A1.34029,1.34029,0,0,0,64.39209,86.251Zm-1.02246-2.04493c.41992-.28027.78418-.56054.78418-.96679,0-.2666-.126-.50391-.43408-.50391a.5969.5969,0,0,0-.56739.665A1.93,1.93,0,0,0,63.36963,84.20605Z" fill="#979797"/><path d="M68.12158,82.40527h1.30957c1.02979,0,1.72315.34375,1.72315,1.35254,0,.96582-.68653,1.42188-1.69483,1.42188h-.75683V87h-.58106Zm1.26758,2.29785c.79834,0,1.18359-.29394,1.18359-.94531,0-.666-.40625-.88281-1.21142-.88281h-.65869v1.82812Z" fill="#979797"/><path d="M71.92236,82.52441a.40023.40023,0,0,1,.79834,0,.40016.40016,0,0,1-.79834,0Zm.105,1.07227h.57422V87h-.57422Z" fill="#979797"/><path d="M73.84766,85.94922V84.06543h-.5044v-.43359l.53223-.03516.07031-.95313h.4834v.95313h.91748v.46875H74.4292V85.957c0,.41992.13281.6582.5249.6582a1.23506,1.23506,0,0,0,.38526-.09082l.1123.4336a2.09116,2.09116,0,0,1-.63037.126C74.09277,87.084,73.84766,86.62207,73.84766,85.94922Z" fill="#979797"/><path d="M75.76562,85.30566a1.64836,1.64836,0,0,1,1.63868-1.793,1.41431,1.41431,0,0,1,.99463.39843L78.105,84.29a.99631.99631,0,0,0-.67969-.30176c-.61621,0-1.06445.53223-1.06445,1.31738,0,.77735.42725,1.30274,1.05078,1.30274a1.20956,1.20956,0,0,0,.79834-.34375l.252.38574a1.66308,1.66308,0,0,1-1.09961.43359A1.59841,1.59841,0,0,1,75.76562,85.30566Z" fill="#979797"/><path d="M79.20947,82.01367h.57422v1.3584l-.021.7002a1.62916,1.62916,0,0,1,1.13476-.55957c.71436,0,1.03662.46191,1.03662,1.33007V87h-.57422V84.91992c0-.63672-.19629-.91015-.64453-.91015-.3501,0-.58838.18164-.93164.52539V87h-.57422Z" fill="#979797"/><path d="M83.54932,86.65039h-.021L83.47949,87h-.4624V82.01367h.57422v1.3584l-.01367.61621a1.68365,1.68365,0,0,1,1.06445-.47558c.88232,0,1.35156.67871,1.35156,1.72949,0,1.16308-.69336,1.84179-1.4707,1.84179A1.52911,1.52911,0,0,1,83.54932,86.65039ZM85.39844,85.249c0-.749-.252-1.25293-.89649-1.25293a1.40055,1.40055,0,0,0-.91064.46192v1.78613a1.333,1.333,0,0,0,.83349.35645C84.98535,86.60059,85.39844,86.08984,85.39844,85.249Z" fill="#979797"/><path d="M86.63623,85.30566a1.64123,1.64123,0,0,1,1.52686-1.793c.86816,0,1.35839.623,1.35839,1.59668a2.20428,2.20428,0,0,1-.021.3291H87.20361a1.12848,1.12848,0,0,0,1.13428,1.18359,1.53813,1.53813,0,0,0,.84766-.2666l.20312.37891a2.03218,2.03218,0,0,1-1.1206.3496A1.62715,1.62715,0,0,1,86.63623,85.30566Zm2.38135-.28027c0-.68652-.30811-1.05762-.84082-1.05762a1.05124,1.05124,0,0,0-.98047,1.05762Z" fill="#979797"/><path d="M90.36035,83.59668h.47656l.04883.49023h.021a1.60418,1.60418,0,0,1,1.1416-.57421c.71436,0,1.03662.46191,1.03662,1.33007V87h-.57422V84.91992c0-.63672-.19629-.91015-.64453-.91015-.3501,0-.58838.18164-.93164.52539V87h-.57422Z" fill="#979797"/><path d="M93.94385,85.30566a1.61151,1.61151,0,0,1,1.478-1.793,1.40044,1.40044,0,0,1,.95214.3916l-.02783-.58106V82.01367h.58154V87h-.47656l-.04883-.39941h-.021a1.53306,1.53306,0,0,1-1.02979.48339C94.49707,87.084,93.94385,86.43945,93.94385,85.30566Zm2.40234.82618v-1.7793a1.185,1.185,0,0,0-.82617-.35645c-.54639,0-.981.52442-.981,1.30176,0,.8125.34326,1.30274.93848,1.30274A1.15058,1.15058,0,0,0,96.34619,86.13184Z" fill="#979797"/><path d="M81.94629,92.90527h2.64746v.49121H82.52734v1.44141h1.74414v.498H82.52734v1.667h2.13623V97.5H81.94629Z" fill="#979797"/><path d="M85.5791,94.0957h.47656l.04883.49024h.021a1.60415,1.60415,0,0,1,1.1416-.57422c.71436,0,1.03662.46289,1.03662,1.33105V97.5h-.57422V95.41992c0-.63672-.19629-.91015-.64453-.91015-.3501,0-.58838.18164-.93164.52539V97.5H85.5791Z" fill="#979797"/><path d="M88.918,94.0957h.59521l.64453,1.9336c.09815.33593.21.67968.315,1.00195H90.501c.09814-.32227.21-.666.3081-1.00195l.64453-1.9336h.5669L90.81592,97.5h-.67237Z" fill="#979797"/><path d="M93.86719,95.20312a2.10868,2.10868,0,0,1,2.03808-2.38183,1.67835,1.67835,0,0,1,1.26075.56738l-.31543.37891a1.25483,1.25483,0,0,0-.93848-.43555c-.86816,0-1.44287.71485-1.44287,1.85742,0,1.1543.55371,1.88282,1.42187,1.88282a1.38446,1.38446,0,0,0,1.06446-.51758l.32226.36328a1.77643,1.77643,0,0,1-1.40771.666C94.72168,97.584,93.86719,96.70117,93.86719,95.20312Z" fill="#979797"/><path d="M120.31543,366.51074h3.40332v.63086H121.063v1.99805h2.25049v.62988H121.063V372.417h-.74756Z" fill="#e9a460"/><path d="M124.76123,366.51074h.90039l1.13428,3.15137c.144.40527.2793.82812.42334,1.2334h.03613c.144-.40528.26074-.82813.40479-1.2334l1.1167-3.15137h.90918V372.417h-.70215v-3.25c0-.52246.063-1.22461.09863-1.74707h-.03564l-.46827,1.3418-1.11621,3.06055h-.49511l-1.1167-3.06055-.46778-1.3418h-.03613c.03613.52246.08984,1.22461.08984,1.74707v3.25h-.67529Z" fill="#e9a460"/><path d="M508.96826,239.30176c0-1.89063,1.03516-3.03418,2.52051-3.03418s2.52978,1.15234,2.52978,3.03418c0,1.89941-1.04443,3.08789-2.52978,3.08789S508.96826,241.20117,508.96826,239.30176Zm4.26709,0c0-1.46778-.69336-2.377-1.74658-2.377s-1.74658.90918-1.74658,2.377c0,1.47656.69336,2.43066,1.74658,2.43066S513.23535,240.77832,513.23535,239.30176Z" fill="#e9a460"/><path d="M515.15137,240.67871v-2.77246h.74707v2.67383c0,.81933.24316,1.16992.81933,1.16992.4502,0,.76563-.22461,1.17969-.73828v-3.10547h.73828v4.375h-.6123l-.06348-.68359h-.02637a1.852,1.852,0,0,1-1.44043.792C515.56543,242.38965,515.15137,241.79492,515.15137,240.67871Z" fill="#e9a460"/><path d="M520.23633,240.93066v-2.42089h-.64844v-.5586l.68457-.04492.08984-1.22461h.6211v1.22461h1.17969v.60352H520.9834v2.43066c0,.54.1709.8457.6748.8457a1.56629,1.56629,0,0,0,.49512-.11718l.14453.55859a2.7002,2.7002,0,0,1-.81055.16211C520.55078,242.38965,520.23633,241.79492,520.23633,240.93066Z" fill="#e9a460"/><path d="M66.02,176.09375h.74756V182H66.02Z" fill="#e9a460"/><path d="M68.31494,177.624h.61231l.063.63086h.02686a2.06253,2.06253,0,0,1,1.46729-.73828c.91845,0,1.33251.59375,1.33251,1.71V182h-.73828v-2.67383c0-.81933-.25195-1.1709-.82812-1.1709-.4502,0-.75635.23438-1.19727.67578V182h-.73828Z" fill="#e9a460"/><path d="M159.39648,89.90527c0-1.68652.99122-2.71875,2.32666-2.71875a1.9138,1.9138,0,0,1,1.439.64844l-.35986.43164a1.4333,1.4333,0,0,0-1.07129-.49609c-.9917,0-1.647.81543-1.647,2.11914,0,1.31933.63135,2.15039,1.62305,2.15039a1.58138,1.58138,0,0,0,1.21533-.5918l.36768.416a2.02958,2.02958,0,0,1-1.60693.75976C160.37158,92.624,159.39648,91.61621,159.39648,89.90527Z" fill="#b0b0b0"/><path d="M164.06836,91.10449V88.64258h.66357v2.374c0,.72754.21582,1.04.72754,1.04.39991,0,.67969-.20019,1.04737-.65625V88.64258h.65576v3.88574h-.54346l-.05615-.6084h-.02393a1.64309,1.64309,0,0,1-1.27929.7041C164.436,92.624,164.06836,92.09668,164.06836,91.10449Z" fill="#b0b0b0"/><path d="M168.58789,91.3291V89.17773h-.57568v-.49511l.60791-.04.07959-1.08789h.55175v1.08789h1.04737v.53515h-1.04737v2.15918c0,.4795.15186.751.59961.751a1.41358,1.41358,0,0,0,.44-.10351l.12793.49609a2.42079,2.42079,0,0,1-.71973.14355C168.86768,92.624,168.58789,92.09668,168.58789,91.3291Z" fill="#b0b0b0"/><path d="M170.78027,90.59277a1.81234,1.81234,0,1,1,1.79932,2.03125A1.85738,1.85738,0,0,1,170.78027,90.59277Zm2.91846,0c0-.8955-.44775-1.50293-1.11914-1.50293-.66357,0-1.11963.60743-1.11963,1.50293,0,.8877.45606,1.48731,1.11963,1.48731C173.251,92.08008,173.69873,91.48047,173.69873,90.59277Z" fill="#b0b0b0"/><path d="M177.79492,89.17773h-1.623v3.35059h-.65577V89.17773h-.52783v-.49511l.52783-.04v-.51172c0-.80762.39991-1.31152,1.20752-1.31152a1.79175,1.79175,0,0,1,.71143.14355l-.13574.49609a1.25515,1.25515,0,0,0-.52-.10449c-.38379,0-.60742.28028-.60742.792v.4961h1.623v-.61621c0-.791.35987-1.28711,1.13526-1.28711a1.75806,1.75806,0,0,1,.64794.12793l-.144.5039a1.08417,1.08417,0,0,0-.43994-.0957c-.36768,0-.54346.25586-.54346.751v.61621h.82325v.53515h-.82325v3.35059h-.65576Z" fill="#b0b0b0"/><path d="M181.37988,89.90527c0-1.68652.9917-2.71875,2.32715-2.71875a1.9138,1.9138,0,0,1,1.439.64844l-.35987.43164a1.43327,1.43327,0,0,0-1.07129-.49609c-.99121,0-1.647.81543-1.647,2.11914,0,1.31933.63135,2.15039,1.62305,2.15039a1.58215,1.58215,0,0,0,1.21533-.5918l.36768.416a2.02958,2.02958,0,0,1-1.60694.75976C182.35547,92.624,181.37988,91.61621,181.37988,89.90527Z" fill="#b0b0b0"/><path d="M185.8999,90.59277a1.81234,1.81234,0,1,1,1.79932,2.03125A1.85738,1.85738,0,0,1,185.8999,90.59277Zm2.91846,0c0-.8955-.44775-1.50293-1.11914-1.50293-.66406,0-1.11963.60743-1.11963,1.50293,0,.8877.45557,1.48731,1.11963,1.48731C188.37061,92.08008,188.81836,91.48047,188.81836,90.59277Z" fill="#b0b0b0"/><path d="M190.52393,88.64258h.54345l.05616.55957h.02392a1.83074,1.83074,0,0,1,1.30322-.65625c.81543,0,1.1836.52832,1.1836,1.51953v2.46289h-.65576v-2.375c0-.72754-.22413-1.03906-.73584-1.03906-.39942,0-.67139.208-1.063.59961v2.81445h-.65576Z" fill="#b0b0b0"/><path d="M195.01172,91.3291V89.17773H194.436v-.49511l.60791-.04.07959-1.08789h.55175v1.08789h1.04737v.53515h-1.04737v2.15918c0,.4795.15186.751.59961.751a1.41352,1.41352,0,0,0,.43994-.10351l.12793.49609a2.42066,2.42066,0,0,1-.71972.14355C195.2915,92.624,195.01172,92.09668,195.01172,91.3291Z" fill="#b0b0b0"/><path d="M197.604,88.64258h.54346l.05615.70312h.02393a1.33,1.33,0,0,1,1.10351-.7998.96829.96829,0,0,1,.41553.08008l-.12793.57617a1.08511,1.08511,0,0,0-.37549-.06445c-.32812,0-.71972.24023-.98339.8955v2.49512H197.604Z" fill="#b0b0b0"/><path d="M200.01172,90.59277A1.81234,1.81234,0,1,1,201.811,92.624,1.85738,1.85738,0,0,1,200.01172,90.59277Zm2.91846,0c0-.8955-.44776-1.50293-1.11914-1.50293-.66358,0-1.11963.60743-1.11963,1.50293,0,.8877.45605,1.48731,1.11963,1.48731C202.48242,92.08008,202.93018,91.48047,202.93018,90.59277Z" fill="#b0b0b0"/><path d="M204.63574,91.74414V86.835h.65528v4.957c0,.208.08837.28809.18408.28809a.5648.5648,0,0,0,.144-.01563l.08789.49512a.88016.88016,0,0,1-.376.06445C204.83545,92.624,204.63574,92.3125,204.63574,91.74414Z" fill="#b0b0b0"/><path d="M428.21582,87.2832h.66357V91.96h2.29444v.56836h-2.958Z" fill="#b0b0b0"/><path d="M431.27979,90.27344h1.83935v.5039h-1.83935Z" fill="#b0b0b0"/><path d="M434.15967,87.2832h1.55908c1.06348,0,1.79883.35938,1.79883,1.2793a1.14751,1.14751,0,0,1-.76758,1.14355v.03125a1.207,1.207,0,0,1,1.07129,1.25586c0,1.03125-.81543,1.53516-1.99072,1.53516h-1.6709Zm1.439,2.23047c.89551,0,1.26367-.32812,1.26367-.86328,0-.60742-.416-.83984-1.23144-.83984h-.80762v1.70312ZM435.73486,92c.90332,0,1.43116-.32715,1.43116-1.03125,0-.64746-.51172-.94336-1.43116-.94336h-.91162V92Z" fill="#b0b0b0"/><path d="M438.47168,90.27344H440.311v.5039h-1.83936Z" fill="#b0b0b0"/><path d="M441.35156,87.2832h.66358v2.19825h2.43847V87.2832h.67188v5.24512h-.67188v-2.4707h-2.43847v2.4707h-.66358Z" fill="#b0b0b0"/><path d="M447.86328,89.90527c0-1.68652.9917-2.71875,2.32715-2.71875a1.91378,1.91378,0,0,1,1.439.64844l-.35986.43164a1.43327,1.43327,0,0,0-1.07129-.49609c-.99121,0-1.647.81543-1.647,2.11914,0,1.31933.63135,2.15039,1.62305,2.15039a1.58217,1.58217,0,0,0,1.21533-.5918l.36767.416a2.02955,2.02955,0,0,1-1.60693.75976C448.83887,92.624,447.86328,91.61621,447.86328,89.90527Z" fill="#b0b0b0"/><path d="M452.3833,90.59277a1.81234,1.81234,0,1,1,1.79932,2.03125A1.85738,1.85738,0,0,1,452.3833,90.59277Zm2.91846,0c0-.8955-.44776-1.50293-1.11914-1.50293-.66407,0-1.11963.60743-1.11963,1.50293,0,.8877.45556,1.48731,1.11963,1.48731C454.854,92.08008,455.30176,91.48047,455.30176,90.59277Z" fill="#b0b0b0"/><path d="M457.00732,88.64258h.54346l.05615.55957h.02393a1.83074,1.83074,0,0,1,1.30322-.65625c.81543,0,1.1836.52832,1.1836,1.51953v2.46289h-.65577v-2.375c0-.72754-.22412-1.03906-.73584-1.03906-.39941,0-.67138.208-1.063.59961v2.81445h-.65577Z" fill="#b0b0b0"/><path d="M461.49512,91.3291V89.17773h-.57569v-.49511l.60791-.04.07959-1.08789h.55176v1.08789h1.04736v.53515h-1.04736v2.15918c0,.4795.15186.751.59961.751a1.41352,1.41352,0,0,0,.43994-.10351l.12793.49609a2.42066,2.42066,0,0,1-.71972.14355C461.7749,92.624,461.49512,92.09668,461.49512,91.3291Z" fill="#b0b0b0"/><path d="M464.0874,88.64258h.54346l.05615.70312h.02393a1.33,1.33,0,0,1,1.10351-.7998.96829.96829,0,0,1,.41553.08008l-.12793.57617a1.08511,1.08511,0,0,0-.37549-.06445c-.32812,0-.71972.24023-.9834.8955v2.49512h-.65576Z" fill="#b0b0b0"/><path d="M466.49561,90.59277a1.81234,1.81234,0,1,1,1.79931,2.03125A1.85737,1.85737,0,0,1,466.49561,90.59277Zm2.91845,0c0-.8955-.44775-1.50293-1.11914-1.50293-.66406,0-1.11963.60743-1.11963,1.50293,0,.8877.45557,1.48731,1.11963,1.48731C468.96631,92.08008,469.41406,91.48047,469.41406,90.59277Z" fill="#b0b0b0"/><path d="M471.11963,91.74414V86.835h.65576v4.957c0,.208.08789.28809.18359.28809a.563.563,0,0,0,.144-.01563l.08789.49512a.88016.88016,0,0,1-.376.06445C471.31934,92.624,471.11963,92.3125,471.11963,91.74414Z" fill="#b0b0b0"/><path d="M284.54688,182.06836c1.82519-1.81543,2.85156-2.9082,2.85156-3.8877a1.07387,1.07387,0,0,0-1.1499-1.18847,1.7863,1.7863,0,0,0-1.293.73242l-.44678-.44727a2.38183,2.38183,0,0,1,1.83447-.92187,1.68453,1.68453,0,0,1,1.81592,1.78711c0,1.14062-1.03613,2.27148-2.47168,3.77441.33252-.02929.70361-.05761,1.01709-.05761h1.75879v.6748h-3.9165Z" fill="#e9a460"/><path d="M289.27783,179.85352h2.18653v.59863h-2.18653Z" fill="#e9a460"/><path d="M292.69775,176.29883h1.77784c1.39746,0,2.33837.46484,2.33837,1.834,0,1.3125-.93164,1.92969-2.30029,1.92969h-1.02685v2.47168h-.78907Zm1.72071,3.11719c1.08349,0,1.60644-.39844,1.60644-1.28321,0-.90332-.55127-1.19726-1.64453-1.19726h-.89355V179.416Z" fill="#e9a460"/><path d="M297.42871,180.23438a2.15459,2.15459,0,1,1,2.13867,2.41406A2.20741,2.20741,0,0,1,297.42871,180.23438Zm3.46973,0c0-1.06543-.53272-1.78809-1.33106-1.78809-.78906,0-1.33105.72266-1.33105,1.78809,0,1.05468.542,1.76757,1.33105,1.76757C300.36572,182.002,300.89844,181.28906,300.89844,180.23438Z" fill="#e9a460"/><path d="M302.91943,181.60254v-5.83692h.77979v5.89454c0,.24707.10449.34179.21875.34179a.66938.66938,0,0,0,.1709-.01855l.10449.58887a1.04287,1.04287,0,0,1-.44678.07617C303.15723,182.64844,302.91943,182.27734,302.91943,181.60254Z" fill="#e9a460"/><path d="M305,180.23438a2.2279,2.2279,0,0,1,2.07227-2.4336c1.17871,0,1.84423.8457,1.84423,2.167a3.00484,3.00484,0,0,1-.0288.44629H305.77a1.53249,1.53249,0,0,0,1.53955,1.60742,2.08694,2.08694,0,0,0,1.15039-.36132l.27588.51269a2.75029,2.75029,0,0,1-1.521.47559A2.20907,2.20907,0,0,1,305,180.23438Zm3.23193-.38086c0-.93164-.41845-1.43555-1.14062-1.43555a1.4276,1.4276,0,0,0-1.33106,1.43555Z" fill="#e9a460"/><path d="M311.57373,181.72656l.4751-.55176a2.44218,2.44218,0,0,0,1.7207.7793c.81738,0,1.30225-.4082,1.30225-1.0166,0-.63672-.44678-.83691-1.03614-1.10254l-.89355-.38965a1.66788,1.66788,0,0,1,.69385-3.26074,2.58785,2.58785,0,0,1,1.84424.76953l-.42774.51367a1.98867,1.98867,0,0,0-1.4165-.58984c-.69385,0-1.15967.35156-1.15967.91309,0,.59863.542.82714,1.03613,1.03613l.88428.37988a1.73683,1.73683,0,0,1,1.2832,1.66406,1.88322,1.88322,0,0,1-2.11963,1.77735A3.02406,3.02406,0,0,1,311.57373,181.72656Z" fill="#e9a460"/><path d="M316.24756,176.29883h.84619l.998,3.36426c.228.74218.3706,1.331.6084,2.06347h.03808c.228-.73242.38037-1.32129.59863-2.06347l.99854-3.36426h.80762l-1.97705,6.23535h-.92237Z" fill="#e9a460"/><path d="M321.99561,176.29883h3.59326v.665h-2.8042v2.11035h2.37646v.665h-2.37646v2.79492h-.78906Z" fill="#e9a460"/><path d="M284.54688,302.06836c1.82519-1.81543,2.85156-2.9082,2.85156-3.8877a1.07387,1.07387,0,0,0-1.1499-1.18847,1.7863,1.7863,0,0,0-1.293.73242l-.44678-.44727a2.38183,2.38183,0,0,1,1.83447-.92187,1.68453,1.68453,0,0,1,1.81592,1.78711c0,1.14062-1.03613,2.27148-2.47168,3.77441.33252-.02929.70361-.05761,1.01709-.05761h1.75879v.6748h-3.9165Z" fill="#e9a460"/><path d="M289.27783,299.85352h2.18653v.59863h-2.18653Z" fill="#e9a460"/><path d="M292.69775,296.29883h1.77784c1.39746,0,2.33837.46484,2.33837,1.834,0,1.3125-.93164,1.92969-2.30029,1.92969h-1.02685v2.47168h-.78907Zm1.72071,3.11719c1.08349,0,1.60644-.39844,1.60644-1.28321,0-.90332-.55127-1.19726-1.64453-1.19726h-.89355V299.416Z" fill="#e9a460"/><path d="M297.42871,300.23438a2.15459,2.15459,0,1,1,2.13867,2.41406A2.20741,2.20741,0,0,1,297.42871,300.23438Zm3.46973,0c0-1.06543-.53272-1.78809-1.33106-1.78809-.78906,0-1.33105.72266-1.33105,1.78809,0,1.05468.542,1.76757,1.33105,1.76757C300.36572,302.002,300.89844,301.28906,300.89844,300.23438Z" fill="#e9a460"/><path d="M302.91943,301.60254v-5.83692h.77979v5.89454c0,.24707.10449.34179.21875.34179a.66938.66938,0,0,0,.1709-.01855l.10449.58887a1.04287,1.04287,0,0,1-.44678.07617C303.15723,302.64844,302.91943,302.27734,302.91943,301.60254Z" fill="#e9a460"/><path d="M305,300.23438a2.2279,2.2279,0,0,1,2.07227-2.4336c1.17871,0,1.84423.8457,1.84423,2.167a3.00484,3.00484,0,0,1-.0288.44629H305.77a1.53249,1.53249,0,0,0,1.53955,1.60742,2.08694,2.08694,0,0,0,1.15039-.36132l.27588.51269a2.75029,2.75029,0,0,1-1.521.47559A2.20907,2.20907,0,0,1,305,300.23438Zm3.23193-.38086c0-.93164-.41845-1.43555-1.14062-1.43555a1.4276,1.4276,0,0,0-1.33106,1.43555Z" fill="#e9a460"/><path d="M311.57373,301.72656l.4751-.55176a2.44218,2.44218,0,0,0,1.7207.7793c.81738,0,1.30225-.4082,1.30225-1.0166,0-.63672-.44678-.83691-1.03614-1.10254l-.89355-.38965a1.66788,1.66788,0,0,1,.69385-3.26074,2.58785,2.58785,0,0,1,1.84424.76953l-.42774.51367a1.98867,1.98867,0,0,0-1.4165-.58984c-.69385,0-1.15967.35156-1.15967.91309,0,.59863.542.82714,1.03613,1.03613l.88428.37988a1.73683,1.73683,0,0,1,1.2832,1.66406,1.88322,1.88322,0,0,1-2.11963,1.77735A3.02406,3.02406,0,0,1,311.57373,301.72656Z" fill="#e9a460"/><path d="M316.24756,296.29883h.84619l.998,3.36426c.228.74218.3706,1.33105.6084,2.06347h.03808c.228-.73242.38037-1.32129.59863-2.06347l.99854-3.36426h.80762l-1.97705,6.23535h-.92237Z" fill="#e9a460"/><path d="M321.99561,296.29883h3.59326v.665h-2.8042v2.11035h2.37646v.665h-2.37646v2.79492h-.78906Z" fill="#e9a460"/><path d="M173.60156,299.31152l-1.69238-3.01269h.87451l.84619,1.59668c.16162.28515.29492.542.48487.90332h.03808c.1709-.36133.29444-.61817.44678-.90332l.82715-1.59668h.83642l-1.70166,3.05078,1.81543,3.18457h-.87451l-.9126-1.68262c-.16162-.30371-.33252-.61718-.53222-.998h-.03809c-.18066.38086-.34228.69433-.49414.998l-.90332,1.68262h-.83643Z" fill="#e9a460"/><path d="M176.64941,299.85352h2.18653v.59863h-2.18653Z" fill="#e9a460"/><path d="M180.06982,296.29883h3.59327v.665h-2.8042v2.11035h2.37646v.665h-2.37646v2.79492h-.78907Z" fill="#e9a460"/><path d="M184.07861,301.33691c0-1.00781.86524-1.51171,2.833-1.73046,0-.58887-.18994-1.16016-.95068-1.16016a2.51394,2.51394,0,0,0-1.37842.49512l-.3042-.542a3.43156,3.43156,0,0,1,1.81592-.59863c1.13135,0,1.60644.751,1.60644,1.90039v2.833h-.64648l-.06641-.55078H186.959a2.462,2.462,0,0,1-1.53027.665A1.257,1.257,0,0,1,184.07861,301.33691Zm2.833.06641v-1.2832c-1.54.18945-2.07226.57031-2.07226,1.15918,0,.52343.36132.74218.81738.74218A1.87256,1.87256,0,0,0,186.91162,301.40332Z" fill="#e9a460"/><path d="M188.81885,300.23438a2.18777,2.18777,0,0,1,2.00586-2.4336,1.90241,1.90241,0,0,1,1.293.53223l-.03809-.78906v-1.77833h.78906v6.76856h-.64648l-.06641-.542H192.127a2.081,2.081,0,0,1-1.39746.65625C189.56982,302.64844,188.81885,301.77441,188.81885,300.23438Zm3.26074,1.12109v-2.41406a1.60527,1.60527,0,0,0-1.12158-.48536c-.7417,0-1.33106.7129-1.33106,1.76856,0,1.10254.46582,1.76758,1.27393,1.76758A1.56366,1.56366,0,0,0,192.07959,301.35547Z" fill="#e9a460"/><path d="M194.082,300.23438a2.2279,2.2279,0,0,1,2.07227-2.4336c1.17871,0,1.84424.8457,1.84424,2.167a3.00471,3.00471,0,0,1-.02881.44629h-3.11768a1.53249,1.53249,0,0,0,1.53955,1.60742,2.08694,2.08694,0,0,0,1.15039-.36132l.27588.51269a2.75028,2.75028,0,0,1-1.521.47559A2.20908,2.20908,0,0,1,194.082,300.23438Zm3.23193-.38086c0-.93164-.41845-1.43555-1.14062-1.43555a1.42759,1.42759,0,0,0-1.33105,1.43555Z" fill="#e9a460"/><path d="M443.60156,239.31152l-1.69238-3.01269h.87451l.84619,1.59668c.16162.28515.29492.542.48487.90332h.03808c.1709-.36133.29444-.61817.44678-.90332l.82715-1.59668h.83642l-1.70166,3.05078,1.81543,3.18457h-.87451l-.9126-1.68262c-.16162-.30371-.33252-.61718-.53222-.998h-.03809c-.18066.38086-.34228.69433-.49414.998l-.90332,1.68262h-.83643Z" fill="#e9a460"/><path d="M446.64941,239.85352h2.18653v.59863h-2.18653Z" fill="#e9a460"/><path d="M450.06982,236.29883h3.59327v.665h-2.8042v2.11035h2.37646v.665h-2.37646v2.79492h-.78907Z" fill="#e9a460"/><path d="M454.07861,241.33691c0-1.00781.86524-1.51171,2.833-1.73046,0-.58887-.18994-1.16016-.95068-1.16016a2.51394,2.51394,0,0,0-1.37842.49512l-.3042-.542a3.43156,3.43156,0,0,1,1.81592-.59863c1.13135,0,1.60644.751,1.60644,1.90039v2.833h-.64648l-.06641-.55078H456.959a2.462,2.462,0,0,1-1.53027.665A1.257,1.257,0,0,1,454.07861,241.33691Zm2.833.06641v-1.2832c-1.54.18945-2.07226.57031-2.07226,1.15918,0,.52343.36132.74218.81738.74218A1.87256,1.87256,0,0,0,456.91162,241.40332Z" fill="#e9a460"/><path d="M458.81885,240.23438a2.18777,2.18777,0,0,1,2.00586-2.4336,1.90241,1.90241,0,0,1,1.293.53223l-.03809-.78906v-1.77833h.78906v6.76856h-.64648l-.06641-.542H462.127a2.081,2.081,0,0,1-1.39746.65625C459.56982,242.64844,458.81885,241.77441,458.81885,240.23438Zm3.26074,1.12109v-2.41406a1.60527,1.60527,0,0,0-1.12158-.48536c-.7417,0-1.33106.7129-1.33106,1.76856,0,1.10254.46582,1.76758,1.27393,1.76758A1.56366,1.56366,0,0,0,462.07959,241.35547Z" fill="#e9a460"/><path d="M464.082,240.23438a2.2279,2.2279,0,0,1,2.07227-2.4336c1.17871,0,1.84424.8457,1.84424,2.167a3.00471,3.00471,0,0,1-.02881.44629h-3.11768a1.53249,1.53249,0,0,0,1.53955,1.60742,2.08694,2.08694,0,0,0,1.15039-.36132l.27588.51269a2.75028,2.75028,0,0,1-1.521.47559A2.20908,2.20908,0,0,1,464.082,240.23438Zm3.23193-.38086c0-.93164-.41845-1.43555-1.14062-1.43555a1.42759,1.42759,0,0,0-1.33105,1.43555Z" fill="#e9a460"/></svg>