<svg xmlns="http://www.w3.org/2000/svg" viewBox="0 0 465 108"><title>synth engine x-simple</title><rect x="0.22363" y="0.22363" width="464.55273" height="107.55273" rx="1.77637" ry="1.77637" fill="#202020"/><path d="M463,.44727A1.55431,1.55431,0,0,1,464.55276,2V106A1.55431,1.55431,0,0,1,463,107.55273H2A1.5543,1.5543,0,0,1,.44724,106V2A1.5543,1.5543,0,0,1,2,.44727H463M463,0H2A2.00582,2.00582,0,0,0,0,2V106a2.00582,2.00582,0,0,0,2,2H463a2.00581,2.00581,0,0,0,2-2V2a2.00581,2.00581,0,0,0-2-2Z" fill="#7f7f7f"/><rect x="6.78564" y="20.24219" width="69.55273" height="26.55273" rx="1.77637" ry="1.77637" fill="#cacaca"/><path d="M74.56226,20.46582A1.55435,1.55435,0,0,1,76.115,22.01855v23a1.55435,1.55435,0,0,1-1.55278,1.55274h-66a1.55435,1.55435,0,0,1-1.55279-1.55274v-23a1.55435,1.55435,0,0,1,1.55279-1.55273h66m0-.44727h-66a2.00614,2.00614,0,0,0-2,2v23a2.00582,2.00582,0,0,0,2,2h66a2.00582,2.00582,0,0,0,2-2v-23a2.00614,2.00614,0,0,0-2-2Z" fill="#202020"/><rect x="99.78564" y="47.22363" width="72.55273" height="35.55273" rx="1.77637" ry="1.77637" fill="#cacaca"/><path d="M170.56226,47.44727A1.55434,1.55434,0,0,1,172.11505,49V81a1.55434,1.55434,0,0,1-1.55279,1.55273h-69A1.55434,1.55434,0,0,1,100.00947,81V49a1.55434,1.55434,0,0,1,1.55279-1.55273h69m0-.44727h-69a2.00582,2.00582,0,0,0-2,2V81a2.00582,2.00582,0,0,0,2,2h69a2.00582,2.00582,0,0,0,2-2V49a2.00582,2.00582,0,0,0-2-2Z" fill="#202020"/><rect x="194.78564" y="47.24219" width="67.55273" height="26.55273" rx="1.77637" ry="1.77637" fill="#cacaca"/><path d="M260.56226,47.46582a1.55436,1.55436,0,0,1,1.55279,1.55273v23a1.55436,1.55436,0,0,1-1.55279,1.55274h-64a1.55436,1.55436,0,0,1-1.5528-1.55274v-23a1.55435,1.55435,0,0,1,1.5528-1.55273h64m0-.44727h-64a2.00613,2.00613,0,0,0-2,2v23a2.00581,2.00581,0,0,0,2,2h64a2.00582,2.00582,0,0,0,2-2v-23a2.00614,2.00614,0,0,0-2-2Z" fill="#202020"/><rect x="294.28564" y="22.24219" width="67.55273" height="26.55273" rx="1.77637" ry="1.77637" fill="#cacaca"/><path d="M360.06226,22.46582a1.55436,1.55436,0,0,1,1.55279,1.55273v23a1.55436,1.55436,0,0,1-1.55279,1.55274h-64a1.55436,1.55436,0,0,1-1.5528-1.55274v-23a1.55436,1.55436,0,0,1,1.5528-1.55273h64m0-.44727h-64a2.00613,2.00613,0,0,0-2,2v23a2.00581,2.00581,0,0,0,2,2h64a2.00582,2.00582,0,0,0,2-2v-23a2.00614,2.00614,0,0,0-2-2Z" fill="#202020"/><rect x="299.78564" y="72.24219" width="56.55273" height="26.55273" rx="1.77637" ry="1.77637" fill="#cacaca"/><path d="M354.56226,72.46582a1.55436,1.55436,0,0,1,1.55279,1.55273v23a1.55436,1.55436,0,0,1-1.55279,1.55274h-53a1.55436,1.55436,0,0,1-1.5528-1.55274v-23a1.55436,1.55436,0,0,1,1.5528-1.55273h53m0-.44727h-53a2.00613,2.00613,0,0,0-2,2v23a2.00581,2.00581,0,0,0,2,2h53a2.00582,2.00582,0,0,0,2-2v-23a2.00614,2.00614,0,0,0-2-2Z" fill="#202020"/><rect x="368.78564" y="71.74219" width="64.55273" height="27.55273" rx="1.77637" ry="1.77637" fill="#cacaca"/><path d="M431.56226,71.96582a1.55436,1.55436,0,0,1,1.55279,1.55273v24a1.55436,1.55436,0,0,1-1.55279,1.55274h-61a1.55436,1.55436,0,0,1-1.5528-1.55274v-24a1.55436,1.55436,0,0,1,1.5528-1.55273h61m0-.44727h-61a2.00613,2.00613,0,0,0-2,2v24a2.00581,2.00581,0,0,0,2,2h61a2.00582,2.00582,0,0,0,2-2v-24a2.00614,2.00614,0,0,0-2-2Z" fill="#202020"/><path d="M11.72266,28.86621h5.29492v.98145H12.88477v2.88476h3.48828v.99512H12.88477v3.334h4.27246v.99414H11.72266Z" fill="#202020"/><path d="M18.98828,31.24805h.95313l.09765.98047h.042a3.20836,3.20836,0,0,1,2.28321-1.14844c1.42871,0,2.07324.9248,2.07324,2.66113v4.31445H23.28906V33.89551c0-1.27442-.39258-1.82129-1.28906-1.82129-.7002,0-1.17676.36426-1.86328,1.05078v4.93066H18.98828Z" fill="#202020"/><path d="M25.666,31.24805h1.19043l1.28906,3.86621c.19629.67187.41992,1.3584.62988,2.00293H28.832c.19629-.64453.41992-1.33106.61621-2.00293l1.28906-3.86621h1.13379l-2.40918,6.80761H28.11719Z" fill="#202020"/><path d="M32.624,34.666a3.28307,3.28307,0,0,1,3.05371-3.58594c1.73633,0,2.7168,1.24609,2.7168,3.19336a4.40833,4.40833,0,0,1-.042.6582H33.75879a2.257,2.257,0,0,0,2.26855,2.36719,3.07532,3.07532,0,0,0,1.69532-.53223l.40625.75684a4.05683,4.05683,0,0,1-2.24121.70019A3.25516,3.25516,0,0,1,32.624,34.666Zm4.7627-.56055c0-1.373-.61621-2.11524-1.68164-2.11524a2.10321,2.10321,0,0,0-1.96094,2.11524Z" fill="#202020"/><path d="M40.07227,36.68262V28.082H41.2207V36.7666c0,.36426.1543.50488.32227.50488a.95238.95238,0,0,0,.252-.02832l.1543.86817a1.54014,1.54014,0,0,1-.6582.1123C40.42285,38.22363,40.07227,37.67773,40.07227,36.68262Z" fill="#202020"/><path d="M43.1377,34.666c0-2.28321,1.48437-3.58594,3.15136-3.58594s3.15137,1.30273,3.15137,3.58594a3.17456,3.17456,0,1,1-6.30273,0Zm5.1123,0c0-1.56934-.78418-2.63379-1.96094-2.63379-1.16211,0-1.96094,1.06445-1.96094,2.63379,0,1.55468.79883,2.60546,1.96094,2.60546C47.46582,37.27148,48.25,36.2207,48.25,34.666Z" fill="#202020"/><path d="M51.22949,31.24805h.95313l.09765.78418h.042a3.5212,3.5212,0,0,1,2.17089-.95215c1.751,0,2.68946,1.3584,2.68946,3.47363,0,2.31152-1.38672,3.66992-2.94141,3.66992a3.15492,3.15492,0,0,1-1.89062-.78418l.02734,1.19043v2.29688H51.22949Zm4.7627,3.30566c0-1.499-.50391-2.50683-1.793-2.50683a2.8674,2.8674,0,0,0-1.82129.92382V36.543a2.69366,2.69366,0,0,0,1.667.71387C55.166,37.25684,55.99219,36.23438,55.99219,34.55371Z" fill="#202020"/><path d="M58.49609,34.666a3.28307,3.28307,0,0,1,3.05371-3.58594c1.73633,0,2.7168,1.24609,2.7168,3.19336a4.40833,4.40833,0,0,1-.042.6582H59.63086a2.257,2.257,0,0,0,2.26855,2.36719,3.07532,3.07532,0,0,0,1.69532-.53223l.40625.75684a4.05683,4.05683,0,0,1-2.24121.70019A3.25516,3.25516,0,0,1,58.49609,34.666Zm4.7627-.56055c0-1.373-.61621-2.11524-1.68164-2.11524a2.10321,2.10321,0,0,0-1.96094,2.11524Z" fill="#202020"/><path d="M65.1875,37.28516l.57422-.77051a3.05876,3.05876,0,0,0,2.00293.8125c.89648,0,1.34473-.47656,1.34473-1.06445,0-.7002-.8125-1.00879-1.55469-1.28907-.9668-.34961-2.03125-.8125-2.03125-1.96093,0-1.09278.86816-1.93262,2.33886-1.93262a3.39489,3.39489,0,0,1,2.11524.77051l-.5459.72851a2.52877,2.52877,0,0,0-1.55469-.60254c-.85449,0-1.24707.46192-1.24707.98047,0,.64453.74219.88281,1.5127,1.17676.98047.36426,2.07324.77051,2.07324,2.05859,0,1.10645-.88281,2.03125-2.49316,2.03125A4.09514,4.09514,0,0,1,65.1875,37.28516Z" fill="#202020"/><path d="M103.44971,58.86523c0-2.9414,1.61035-4.7207,3.92187-4.7207s3.93653,1.793,3.93653,4.7207c0,2.95606-1.625,4.80469-3.93653,4.80469S103.44971,61.82129,103.44971,58.86523Zm6.63965,0c0-2.2832-1.07911-3.69824-2.71778-3.69824s-2.71777,1.415-2.71777,3.69824c0,2.29786,1.0791,3.78223,2.71777,3.78223S110.08936,61.16309,110.08936,58.86523Z" fill="#202020"/><path d="M112.40967,62.73145l.57422-.77051a3.05876,3.05876,0,0,0,2.00293.8125c.89648,0,1.34472-.47656,1.34472-1.06446,0-.70019-.8125-1.00878-1.55468-1.28906-.9668-.34961-2.03125-.8125-2.03125-1.96094,0-1.09277.86816-1.93261,2.33886-1.93261a3.39492,3.39492,0,0,1,2.11524.77051l-.5459.72851a2.52873,2.52873,0,0,0-1.55469-.60254c-.85449,0-1.24707.46192-1.24707.98047,0,.64453.74219.88281,1.5127,1.17676.98046.36426,2.07324.77051,2.07324,2.05859,0,1.10645-.88281,2.03125-2.49317,2.03125A4.09513,4.09513,0,0,1,112.40967,62.73145Z" fill="#202020"/><path d="M118.52783,60.1123a3.29673,3.29673,0,0,1,3.27735-3.58593,2.829,2.829,0,0,1,1.98925.79785l-.58789.75683a1.9959,1.9959,0,0,0-1.35937-.60253c-1.23242,0-2.12891,1.06445-2.12891,2.63378,0,1.55469.85449,2.60547,2.10156,2.60547a2.42281,2.42281,0,0,0,1.59668-.68652l.50391.77051a3.3223,3.3223,0,0,1-2.19922.86816C119.91455,63.66992,118.52783,62.36719,118.52783,60.1123Z" fill="#202020"/><path d="M125.20557,54.55078a.80046.80046,0,0,1,1.59668,0,.80039.80039,0,0,1-1.59668,0Zm.21,2.14356H126.564V63.502h-1.14843Z" fill="#202020"/><path d="M128.85889,62.12891V53.52832h1.14843v8.68457c0,.36426.1543.50488.32227.50488a.95238.95238,0,0,0,.25195-.02832l.1543.86817a1.54014,1.54014,0,0,1-.6582.1123C129.20947,63.66992,128.85889,63.124,128.85889,62.12891Z" fill="#202020"/><path d="M132.4292,62.12891V53.52832h1.14844v8.68457c0,.36426.15429.50488.32226.50488a.95248.95248,0,0,0,.252-.02832l.15429.86817a1.54011,1.54011,0,0,1-.6582.1123C132.77979,63.66992,132.4292,63.124,132.4292,62.12891Z" fill="#202020"/><path d="M135.57861,61.7373c0-1.48535,1.27442-2.22753,4.17383-2.5498,0-.86816-.28027-1.709-1.40039-1.709a3.70207,3.70207,0,0,0-2.03125.72851l-.44824-.79883a5.05467,5.05467,0,0,1,2.67578-.88183c1.667,0,2.36719,1.10644,2.36719,2.80175V63.502h-.95313l-.09765-.8125h-.042a3.63147,3.63147,0,0,1-2.25488.98047A1.85217,1.85217,0,0,1,135.57861,61.7373Zm4.17383.09766V59.94434c-2.26855.28027-3.05371.83984-3.05371,1.709,0,.77051.53223,1.0918,1.20508,1.0918A2.75565,2.75565,0,0,0,139.75244,61.835Z" fill="#202020"/><path d="M143.05518,61.40039V57.63281h-1.00879v-.86816l1.06445-.07031.14062-1.90528h.9668v1.90528h1.835v.93847h-1.835V61.415c0,.83984.26563,1.31641,1.04981,1.31641a2.47023,2.47023,0,0,0,.7705-.18165l.22461.86817a4.21189,4.21189,0,0,1-1.26074.252C143.54541,63.66992,143.05518,62.74512,143.05518,61.40039Z" fill="#202020"/><path d="M146.89111,60.1123c0-2.2832,1.48438-3.58593,3.15137-3.58593s3.15234,1.30273,3.15234,3.58593a3.175,3.175,0,1,1-6.30371,0Zm5.11231,0c0-1.56933-.78418-2.63378-1.96094-2.63378-1.16211,0-1.96094,1.06445-1.96094,2.63378,0,1.55469.79883,2.60547,1.96094,2.60547C151.21924,62.71777,152.00342,61.667,152.00342,60.1123Z" fill="#202020"/><path d="M154.98291,56.69434h.95313l.09765,1.23242h.042a2.32817,2.32817,0,0,1,1.93262-1.40039,1.69362,1.69362,0,0,1,.72852.13965l-.22364,1.00878a1.89948,1.89948,0,0,0-.6582-.1123c-.57422,0-1.26074.4209-1.72363,1.56934V63.502h-1.14844Z" fill="#202020"/><path d="M159.02881,62.73145l.57422-.77051a3.05876,3.05876,0,0,0,2.00293.8125c.89648,0,1.34472-.47656,1.34472-1.06446,0-.70019-.8125-1.00878-1.55468-1.28906-.9668-.34961-2.03125-.8125-2.03125-1.96094,0-1.09277.86816-1.93261,2.33886-1.93261a3.39489,3.39489,0,0,1,2.11524.77051l-.5459.72851a2.52873,2.52873,0,0,0-1.55469-.60254c-.85449,0-1.24707.46192-1.24707.98047,0,.64453.74219.88281,1.5127,1.17676.98047.36426,2.07324.77051,2.07324,2.05859,0,1.10645-.88281,2.03125-2.49317,2.03125A4.09513,4.09513,0,0,1,159.02881,62.73145Z" fill="#202020"/><path d="M168.38232,53.55664h.84082l-3.74023,12.18652h-.84082Z" fill="#202020"/><path d="M112.88525,76.31152l.70118-.8125a3.59623,3.59623,0,0,0,2.53515,1.14844c1.2041,0,1.919-.60254,1.919-1.499,0-.93848-.65821-1.23242-1.52735-1.625l-1.3164-.57422A2.58275,2.58275,0,0,1,113.3335,70.582a2.61089,2.61089,0,0,1,2.88574-2.4375A3.815,3.815,0,0,1,118.937,69.2793l-.63086.75683a2.92923,2.92923,0,0,0-2.08691-.86914c-1.02246,0-1.709.51856-1.709,1.34473,0,.88281.79883,1.21875,1.52735,1.52734l1.30273.56055a2.5568,2.5568,0,0,1,1.89063,2.45117c0,1.457-1.19043,2.61914-3.124,2.61914A4.45849,4.45849,0,0,1,112.88525,76.31152Z" fill="#202020"/><path d="M120.92139,67.52832h1.14843v2.71777l-.042,1.40039a3.25563,3.25563,0,0,1,2.26953-1.12011c1.42871,0,2.07325.9248,2.07325,2.66113v4.31445h-1.14844V73.3418c0-1.27442-.39258-1.82129-1.28906-1.82129-.7002,0-1.17676.36426-1.86329,1.05078v4.93066h-1.14843Z" fill="#202020"/><path d="M128.11768,75.7373c0-1.48535,1.27441-2.22753,4.17382-2.5498,0-.86816-.28027-1.709-1.40039-1.709a3.70207,3.70207,0,0,0-2.03125.72851l-.44824-.79883a5.05467,5.05467,0,0,1,2.67578-.88183c1.667,0,2.36719,1.10644,2.36719,2.80175v4.17383h-.95313l-.09765-.8125h-.042a3.63148,3.63148,0,0,1-2.25489.98047A1.85216,1.85216,0,0,1,128.11768,75.7373Zm4.17382.09766V73.94434c-2.26855.28027-3.05371.83984-3.05371,1.709,0,.77051.53223,1.0918,1.20508,1.0918A2.75565,2.75565,0,0,0,132.2915,75.835Z" fill="#202020"/><path d="M135.59326,70.69434h.95313l.09765.78418h.042a3.5212,3.5212,0,0,1,2.17089-.95215c1.751,0,2.68946,1.3584,2.68946,3.47363,0,2.31152-1.38672,3.66992-2.94141,3.66992a3.15492,3.15492,0,0,1-1.89062-.78418l.02734,1.19043v2.29688h-1.14844ZM140.356,74c0-1.499-.50391-2.50684-1.793-2.50684a2.86742,2.86742,0,0,0-1.82129.92383v3.57227a2.69363,2.69363,0,0,0,1.667.71386C139.52979,76.70312,140.356,75.68066,140.356,74Z" fill="#202020"/><path d="M142.85986,74.1123a3.28306,3.28306,0,0,1,3.05371-3.58593c1.73633,0,2.7168,1.24609,2.7168,3.19336a4.40833,4.40833,0,0,1-.042.6582h-4.59375a2.257,2.257,0,0,0,2.26855,2.36719,3.07535,3.07535,0,0,0,1.69532-.53223l.40625.75684a4.05683,4.05683,0,0,1-2.24121.70019A3.25516,3.25516,0,0,1,142.85986,74.1123Zm4.7627-.56054c0-1.37305-.61621-2.11524-1.68164-2.11524A2.10321,2.10321,0,0,0,143.98,73.55176Z" fill="#202020"/><path d="M150.30713,70.69434h.95312l.09766,1.23242h.042a2.32817,2.32817,0,0,1,1.93262-1.40039,1.69362,1.69362,0,0,1,.72852.13965l-.22364,1.00878a1.89948,1.89948,0,0,0-.6582-.1123c-.57422,0-1.26074.4209-1.72363,1.56934v4.37011h-1.14844Z" fill="#202020"/><path d="M154.353,76.73145l.57422-.77051a3.05876,3.05876,0,0,0,2.00293.8125c.89648,0,1.34472-.47656,1.34472-1.06446,0-.70019-.8125-1.00878-1.55469-1.28906-.96679-.34961-2.03125-.8125-2.03125-1.96094,0-1.09277.86817-1.93261,2.33887-1.93261a3.39492,3.39492,0,0,1,2.11524.77051l-.5459.72851a2.52873,2.52873,0,0,0-1.55469-.60254c-.85449,0-1.24707.46192-1.24707.98047,0,.64453.74219.88281,1.5127,1.17676.98046.36426,2.07324.77051,2.07324,2.05859,0,1.10645-.88281,2.03125-2.49317,2.03125A4.09513,4.09513,0,0,1,154.353,76.73145Z" fill="#202020"/><path d="M211.78467,55.86621h5.29492v.98145h-4.13281V59.957h3.502v.98047h-3.502v4.11816h-1.16211Z" fill="#202020"/><path d="M218.37842,56.10449a.80046.80046,0,0,1,1.59668,0,.80039.80039,0,0,1-1.59668,0Zm.21,2.14356h1.14844v6.80761h-1.14844Z" fill="#202020"/><path d="M222.03174,63.68262V55.082h1.14844V63.7666c0,.36426.15429.50488.32226.50488a.95238.95238,0,0,0,.25195-.02832l.1543.86817a1.54014,1.54014,0,0,1-.6582.1123C222.38232,65.22363,222.03174,64.67773,222.03174,63.68262Z" fill="#202020"/><path d="M225.79834,62.9541V59.18652h-1.00879v-.86816l1.06445-.07031.14063-1.90528h.9668v1.90528h1.835v.93847h-1.835v3.78223c0,.83984.26562,1.31641,1.0498,1.31641a2.47055,2.47055,0,0,0,.77051-.18164l.22461.86816a4.212,4.212,0,0,1-1.26074.25195C226.28857,65.22363,225.79834,64.29883,225.79834,62.9541Z" fill="#202020"/><path d="M229.63428,61.666a3.28306,3.28306,0,0,1,3.05371-3.58594c1.73633,0,2.7168,1.24609,2.7168,3.19336a4.4082,4.4082,0,0,1-.042.6582H230.769a2.257,2.257,0,0,0,2.26856,2.36719,3.07531,3.07531,0,0,0,1.69531-.53223l.40625.75684a4.05683,4.05683,0,0,1-2.24121.70019A3.25515,3.25515,0,0,1,229.63428,61.666Zm4.76269-.56055c0-1.373-.61621-2.11524-1.68164-2.11524a2.10321,2.10321,0,0,0-1.96094,2.11524Z" fill="#202020"/><path d="M237.08154,58.24805h.95313l.09765,1.23242h.042a2.32815,2.32815,0,0,1,1.93261-1.40039,1.69356,1.69356,0,0,1,.72852.13965l-.22363,1.00879a1.89925,1.89925,0,0,0-.65821-.11231c-.57422,0-1.26074.4209-1.72363,1.56934v4.37011h-1.14844Z" fill="#202020"/><path d="M241.12744,64.28516l.57422-.77051a3.05876,3.05876,0,0,0,2.00293.8125c.89648,0,1.34473-.47656,1.34473-1.06445,0-.7002-.8125-1.00879-1.55469-1.28907-.9668-.34961-2.03125-.8125-2.03125-1.96093,0-1.09278.86816-1.93262,2.33887-1.93262a3.39486,3.39486,0,0,1,2.11523.77051l-.5459.72851a2.52877,2.52877,0,0,0-1.55469-.60254c-.85449,0-1.24707.46192-1.24707.98047,0,.64453.74219.88281,1.5127,1.17676.98047.36426,2.07324.77051,2.07324,2.05859,0,1.10645-.88281,2.03125-2.49316,2.03125A4.09516,4.09516,0,0,1,241.12744,64.28516Z" fill="#202020"/><path d="M301.17627,30.86621h5.29492v.98145h-4.13281V34.957h3.502v.98047h-3.502v4.11816h-1.16211Z" fill="#202020"/><path d="M307.27979,36.666a3.28306,3.28306,0,0,1,3.05371-3.58594c1.73632,0,2.71679,1.24609,2.71679,3.19336a4.40833,4.40833,0,0,1-.042.6582h-4.59375a2.257,2.257,0,0,0,2.26856,2.36719,3.07531,3.07531,0,0,0,1.69531-.53223l.40625.75684a4.05683,4.05683,0,0,1-2.24121.70019A3.25515,3.25515,0,0,1,307.27979,36.666Zm4.76269-.56055c0-1.373-.61621-2.11524-1.68164-2.11524a2.10321,2.10321,0,0,0-1.96094,2.11524Z" fill="#202020"/><path d="M314.22412,36.666a3.28306,3.28306,0,0,1,3.05371-3.58594c1.73633,0,2.7168,1.24609,2.7168,3.19336a4.40833,4.40833,0,0,1-.042.6582h-4.59375a2.257,2.257,0,0,0,2.26855,2.36719,3.07529,3.07529,0,0,0,1.69531-.53223l.40625.75684a4.05677,4.05677,0,0,1-2.24121.70019A3.25515,3.25515,0,0,1,314.22412,36.666Zm4.7627-.56055c0-1.373-.61621-2.11524-1.68164-2.11524a2.1032,2.1032,0,0,0-1.96094,2.11524Z" fill="#202020"/><path d="M321.18115,36.666c0-2.21387,1.40137-3.58594,2.95606-3.58594a2.80188,2.80188,0,0,1,1.90429.78418l-.05566-1.16211V30.082h1.16309v9.97363h-.95313l-.09766-.79882h-.042a3.07037,3.07037,0,0,1-2.05957.96679C322.2876,40.22363,321.18115,38.93457,321.18115,36.666Zm4.80469,1.65234V34.76074a2.36715,2.36715,0,0,0-1.65234-.71386c-1.09278,0-1.96192,1.0498-1.96192,2.60449,0,1.625.68653,2.60547,1.877,2.60547A2.30257,2.30257,0,0,0,325.98584,38.31836Z" fill="#202020"/><path d="M330.50635,39.35547h-.042l-.09766.70019h-.92481V30.082h1.14844V32.7998l-.02734,1.23243a3.36357,3.36357,0,0,1,2.1289-.95215c1.76465,0,2.70313,1.3584,2.70313,3.46,0,2.32519-1.38672,3.68359-2.94141,3.68359A3.05468,3.05468,0,0,1,330.50635,39.35547Zm3.69824-2.80176c0-1.499-.50391-2.50683-1.793-2.50683a2.80571,2.80571,0,0,0-1.82129.92382V38.543a2.66257,2.66257,0,0,0,1.667.71387C333.37842,39.25684,334.20459,38.23438,334.20459,36.55371Z" fill="#202020"/><path d="M336.56787,38.291c0-1.48536,1.27442-2.22754,4.17383-2.54981,0-.86816-.28027-1.709-1.40039-1.709a3.70207,3.70207,0,0,0-2.03125.72851l-.44824-.79883a5.05464,5.05464,0,0,1,2.67578-.88183c1.667,0,2.36719,1.10644,2.36719,2.80176v4.17382h-.95313l-.09766-.8125h-.042a3.63147,3.63147,0,0,1-2.25488.98047A1.85215,1.85215,0,0,1,336.56787,38.291Zm4.17383.09765V36.49805c-2.26856.28027-3.05371.83984-3.05371,1.709,0,.77051.53222,1.0918,1.20508,1.0918A2.75565,2.75565,0,0,0,340.7417,38.38867Z" fill="#202020"/><path d="M343.53955,36.666a3.29673,3.29673,0,0,1,3.27734-3.58594,2.829,2.829,0,0,1,1.98926.79785l-.58789.75684a1.99586,1.99586,0,0,0-1.35937-.60254c-1.23243,0-2.12891,1.06445-2.12891,2.63379,0,1.55468.85449,2.60546,2.10156,2.60546a2.42283,2.42283,0,0,0,1.59668-.68652l.50391.77051a3.3223,3.3223,0,0,1-2.19922.86816C344.92627,40.22363,343.53955,38.9209,343.53955,36.666Z" fill="#202020"/><path d="M350.42725,30.082H351.562V36.834h.042l2.89942-3.58593h1.27539l-2.28418,2.73144,2.5918,4.07617h-1.26075l-1.98925-3.27734L351.562,38.2627v1.793h-1.13476Z" fill="#202020"/><path d="M313.59375,80.86621h1.40039l1.76563,4.90332c.22363.62988.43359,1.28809.6582,1.91895h.05566c.22461-.63086.40625-1.28907.63086-1.91895l1.73633-4.90332h1.415v9.18945h-1.09277V84.999c0-.8125.09863-1.90527.15429-2.71777h-.05566l-.72852,2.08691-1.7373,4.7627h-.77051l-1.73633-4.7627-.72851-2.08691h-.05664c.05664.8125.14062,1.90527.14062,2.71777v5.05664h-1.05078Z" fill="#202020"/><path d="M323.44922,81.10449a.80046.80046,0,0,1,1.59668,0,.80039.80039,0,0,1-1.59668,0Zm.21,2.14356h1.14844v6.80761h-1.14844Z" fill="#202020"/><path d="M328.37793,86.49805l-2.05859-3.25h1.24707l.91015,1.499c.21.36426.43457.75586.67188,1.13477h.05664c.19629-.37891.40625-.77051.61621-1.13477l.82617-1.499h1.20508L329.793,86.624l2.21387,3.43164h-1.24707l-.99512-1.583c-.23731-.40625-.49024-.82618-.74219-1.21875h-.05566c-.23828.39257-.46192.79882-.68653,1.21875l-.9248,1.583h-1.2041Z" fill="#202020"/><path d="M332.60547,86.666a3.28306,3.28306,0,0,1,3.05371-3.58594c1.73633,0,2.7168,1.24609,2.7168,3.19336a4.4082,4.4082,0,0,1-.042.6582h-4.59375a2.257,2.257,0,0,0,2.26856,2.36719,3.07529,3.07529,0,0,0,1.69531-.53223l.40625.75684a4.0568,4.0568,0,0,1-2.24121.70019A3.25515,3.25515,0,0,1,332.60547,86.666Zm4.76269-.56055c0-1.373-.61621-2.11524-1.68164-2.11524a2.1032,2.1032,0,0,0-1.96093,2.11524Z" fill="#202020"/><path d="M340.05273,83.24805h.95313l.09766,1.23242h.042a2.32815,2.32815,0,0,1,1.93261-1.40039,1.69356,1.69356,0,0,1,.72852.13965l-.22363,1.00879a1.89925,1.89925,0,0,0-.65821-.11231c-.57421,0-1.26074.4209-1.72363,1.56934v4.37011h-1.14844Z" fill="#202020"/><path d="M382.84229,80.86621h5.29492v.98145h-4.13282v2.88476h3.48829v.99512h-3.48829v3.334h4.27247v.99414h-5.43457Z" fill="#202020"/><path d="M394.29639,84.18652h-2.84375v5.86914H390.3042V84.18652h-.92481v-.86816l.92481-.07031v-.89649c0-1.415.70019-2.29687,2.11523-2.29687a3.13107,3.13107,0,0,1,1.2461.252l-.23731.86816a2.20816,2.20816,0,0,0-.91113-.18164c-.67188,0-1.06445.49024-1.06445,1.38672v.86817h2.84375V82.169c0-1.38672.62988-2.25489,1.98925-2.25489a3.09027,3.09027,0,0,1,1.13477.22461l-.25293.88184a1.92069,1.92069,0,0,0-.76953-.168c-.64453,0-.95313.44824-.95313,1.31641v1.0791h1.44336v.93847h-1.44336v5.86914h-1.14843Z" fill="#202020"/><path d="M397.54248,86.666a3.28306,3.28306,0,0,1,3.05371-3.58594c1.73633,0,2.7168,1.24609,2.7168,3.19336a4.40833,4.40833,0,0,1-.042.6582h-4.59375a2.257,2.257,0,0,0,2.26855,2.36719,3.07529,3.07529,0,0,0,1.69531-.53223l.40625.75684a4.05677,4.05677,0,0,1-2.24121.70019A3.25515,3.25515,0,0,1,397.54248,86.666Zm4.7627-.56055c0-1.373-.61622-2.11524-1.68164-2.11524a2.1032,2.1032,0,0,0-1.96094,2.11524Z" fill="#202020"/><path d="M404.48584,86.666a3.29673,3.29673,0,0,1,3.27734-3.58594,2.829,2.829,0,0,1,1.98926.79785l-.58789.75684a1.99586,1.99586,0,0,0-1.35937-.60254c-1.23243,0-2.12891,1.06445-2.12891,2.63379,0,1.55468.85449,2.60546,2.10156,2.60546a2.42285,2.42285,0,0,0,1.59668-.68652l.50391.77051a3.3223,3.3223,0,0,1-2.19922.86816C405.87256,90.22363,404.48584,88.9209,404.48584,86.666Z" fill="#202020"/><path d="M411.43018,87.9541V84.18652h-1.00879v-.86816l1.06445-.07031.14062-1.90528h.9668v1.90528h1.835v.93847h-1.835v3.78223c0,.83984.26563,1.31641,1.04981,1.31641a2.47049,2.47049,0,0,0,.7705-.18164l.22461.86816a4.21189,4.21189,0,0,1-1.26074.25195C411.92041,90.22363,411.43018,89.29883,411.43018,87.9541Z" fill="#202020"/><path d="M415.06982,89.28516l.57422-.77051a3.05876,3.05876,0,0,0,2.00293.8125c.89649,0,1.34473-.47656,1.34473-1.06445,0-.7002-.8125-1.00879-1.55469-1.28907-.9668-.34961-2.03125-.8125-2.03125-1.96093,0-1.09278.86817-1.93262,2.33887-1.93262a3.39486,3.39486,0,0,1,2.11523.77051l-.5459.72851a2.52876,2.52876,0,0,0-1.55468-.60254c-.85449,0-1.24707.46192-1.24707.98047,0,.64453.74218.88281,1.51269,1.17676.98047.36426,2.07324.77051,2.07324,2.05859,0,1.10645-.88281,2.03125-2.49316,2.03125A4.09516,4.09516,0,0,1,415.06982,89.28516Z" fill="#202020"/><polyline points="76.063 33.519 134.562 33.519 134.562 41.287" fill="none" stroke="#979797"/><polygon points="140.029 40.554 129.095 40.554 134.561 46.019 140.029 40.554" fill="#979797"/><polyline points="134.562 33.519 228.562 33.519 228.562 41.787" fill="none" stroke="#979797"/><polygon points="234.029 41.054 223.095 41.054 228.561 46.519 234.029 41.054" fill="#979797"/><line x1="172.06258" y1="67.01855" x2="189.33026" y2="67.01855" fill="none" stroke="#979797"/><polygon points="188.597 61.552 188.597 72.485 194.062 67.02 188.597 61.552" fill="#979797"/><line x1="262.06258" y1="60.51875" x2="273.56225" y2="60.51875" fill="none" stroke="#979797"/><line x1="356.06226" y1="85.51855" x2="363.32993" y2="85.51855" fill="none" stroke="#979797"/><polygon points="362.597 80.052 362.597 90.985 368.062 85.52 362.597 80.052" fill="#979797"/><line x1="433.56259" y1="85.51855" x2="452.83026" y2="85.51855" fill="none" stroke="#979797"/><polygon points="452.097 80.052 452.097 90.985 457.562 85.52 452.097 80.052" fill="#979797"/><polyline points="94.081 65 86.313 65 86.313 13.519 367.813 13.519 367.813 35.519 362.062 35.519" fill="none" stroke="#979797"/><polygon points="93.348 70.467 93.348 59.533 98.813 64.999 93.348 70.467" fill="#979797"/><polyline points="180.73 13.519 180.73 55.019 189.33 55.019" fill="none" stroke="#979797"/><polygon points="188.597 49.552 188.597 60.485 194.062 55.02 188.597 49.552" fill="#979797"/><polyline points="180.729 67.019 180.729 92.519 294.33 92.519" fill="none" stroke="#979797"/><polygon points="293.597 87.052 293.597 97.985 299.062 92.52 293.597 87.052" fill="#979797"/><polyline points="294.856 79.519 274.229 79.519 274.229 29.019 289.33 29.019" fill="none" stroke="#979797"/><polygon points="294.204 84.378 294.204 74.659 299.062 79.518 294.204 84.378" fill="#979797"/><polygon points="288.597 23.552 288.597 34.485 294.062 29.02 288.597 23.552" fill="#979797"/><polyline points="441.813 85.519 441.813 60.519 283.438 60.519 283.438 42.019 289.33 42.019" fill="none" stroke="#979797"/><polygon points="288.597 36.552 288.597 47.485 294.062 42.02 288.597 36.552" fill="#979797"/></svg>