<svg xmlns="http://www.w3.org/2000/svg" width="120" height="36" viewBox="0 0 120 36"><title>Dir-Load_Disabled</title><rect x="0.5" y="0.5" width="119" height="35" rx="3.5" ry="3.5" fill="#333"/><path d="M116,1a3.00342,3.00342,0,0,1,3,3V32a3.00342,3.00342,0,0,1-3,3H4a3.00342,3.00342,0,0,1-3-3V4A3.00342,3.00342,0,0,1,4,1H116m0-1H4A4,4,0,0,0,0,4V32a4,4,0,0,0,4,4H116a4,4,0,0,0,4-4V4a4,4,0,0,0-4-4Z"/><path d="M12.49023,12.02734c3.91016,0,6.2168,2.11133,6.2168,6.333,0,4.24121-2.30664,6.4502-6.09765,6.4502H9.07031V12.02734Zm3.89063,6.333c0-3.12793-1.4668-4.49609-4.04688-4.49609h-.99609v9.1084H12.334C14.91406,22.97266,16.38086,21.50781,16.38086,18.36035Z"/><path d="M21.81641,12.26172a1.39416,1.39416,0,1,1,1.38867,1.27051A1.29191,1.29191,0,0,1,21.81641,12.26172Zm2.50195,2.95117v9.59766H22.07227V15.21289Z"/><path d="M30.02734,15.21289l.15625,1.70117h.07813a3.26161,3.26161,0,0,1,2.7168-1.93554,2.44057,2.44057,0,0,1,1.0957.19531l-.39063,1.95508a3.147,3.147,0,0,0-.998-.15625c-.76172,0-1.67969.52734-2.26758,1.97461v5.86328H28.17188V15.21289Z"/><path d="M35.61914,20.02148c0-3.127,2.16992-5.043,4.418-5.043,2.59961,0,3.96875,1.877,3.96875,4.55468A5.2329,5.2329,0,0,1,43.9082,20.627H37.80859a2.74775,2.74775,0,0,0,2.834,2.67871,4.00868,4.00868,0,0,0,2.22851-.7041l.76172,1.40821a6.05257,6.05257,0,0,1-3.2832,1.03515C37.69141,25.04492,35.61914,23.1875,35.61914,20.02148Zm4.47656-3.30273a2.41049,2.41049,0,0,0-2.30664,2.38477h4.26172C42.05078,17.61719,41.40625,16.71875,40.0957,16.71875Z"/><path d="M46.50977,20.02148a4.73417,4.73417,0,0,1,4.80859-5.043,4.133,4.133,0,0,1,2.81445,1.07519l-1.0957,1.46582a2.34454,2.34454,0,0,0-1.60156-.70312c-1.54493,0-2.61914,1.26953-2.61914,3.20507,0,1.916,1.05468,3.18555,2.56054,3.18555a3.20806,3.20806,0,0,0,1.97461-.82031l.918,1.48535a4.7898,4.7898,0,0,1-3.127,1.17285C48.52344,25.04492,46.50977,23.207,46.50977,20.02148Z"/><path d="M57.28125,21.56641V16.99219H55.91406V15.31055l1.48438-.09766.27344-2.61914h1.877v2.61914h2.44336v1.7793H59.54883v4.57422c0,1.13281.42969,1.68066,1.34961,1.68066a2.75,2.75,0,0,0,.99609-.21582l.39063,1.66211a6.12791,6.12791,0,0,1-1.95508.35156C58.10156,25.04492,57.28125,23.6377,57.28125,21.56641Z"/><path d="M72.33594,12.02734V22.89453h5.3164v1.916h-7.584V12.02734Z"/><path d="M79.78516,20.02148c0-3.20507,2.16992-5.043,4.55468-5.043,2.4043,0,4.57227,1.83789,4.57227,5.043,0,3.18555-2.168,5.02344-4.57227,5.02344C81.95508,25.04492,79.78516,23.207,79.78516,20.02148Zm6.82031,0c0-1.93554-.85938-3.20507-2.26563-3.20507-1.4082,0-2.248,1.26953-2.248,3.20507,0,1.916.83984,3.18555,2.248,3.18555C85.74609,23.207,86.60547,21.9375,86.60547,20.02148Z"/><path d="M91.37891,22.23047c0-2.05274,1.69921-3.127,5.64843-3.55762-.03906-1.0166-.44922-1.876-1.75976-1.876a5.47712,5.47712,0,0,0-2.69727.9375L91.75,16.22949a7.50167,7.50167,0,0,1,3.94922-1.251c2.38281,0,3.57617,1.46679,3.57617,4.14453v5.6875H97.418l-.15625-1.05567h-.07813a4.66966,4.66966,0,0,1-2.9707,1.29A2.68187,2.68187,0,0,1,91.37891,22.23047Zm5.64843,0V20.08008c-2.61914.332-3.47851,1.0166-3.47851,1.97461,0,.85937.58594,1.23144,1.38672,1.23144A3.05052,3.05052,0,0,0,97.02734,22.23047Z"/><path d="M102.36523,20.02148c0-3.127,1.97461-5.043,4.06641-5.043a3.54215,3.54215,0,0,1,2.52148,1.05566l-.07812-1.54395V11.01074h2.24805V24.81055h-1.85743l-.15624-1.03614h-.07813a3.99764,3.99764,0,0,1-2.7168,1.27051C103.91016,25.04492,102.36523,23.1875,102.36523,20.02148Zm6.50977,2.0918V17.63672a2.86347,2.86347,0,0,0-1.95508-.80078c-1.23047,0-2.22851,1.15234-2.22851,3.166,0,2.07227.7832,3.18555,2.16992,3.18555A2.59229,2.59229,0,0,0,108.875,22.11328Z"/></svg>