<svg xmlns="http://www.w3.org/2000/svg" width="120" height="36" viewBox="0 0 120 36">
  <defs>
    <style>
      .a {
        fill: #333;
      }
    </style>
  </defs>
  <title>Dir-Load_Disabled</title>
  <g>
    <rect class="a" x="0.60352" y="0.60352" width="118.79297" height="34.79297" rx="3.39648" ry="3.39648"/>
    <path d="M116,1.20651A2.79664,2.79664,0,0,1,118.79346,4V32A2.79664,2.79664,0,0,1,116,34.79349H4A2.79664,2.79664,0,0,1,1.20654,32V4A2.79664,2.79664,0,0,1,4,1.20651H116M116,0H4A4,4,0,0,0,0,4V32a4,4,0,0,0,4,4H116a4,4,0,0,0,4-4V4a4,4,0,0,0-4-4Z"/>
  </g>
  <g>
    <path d="M14.875,12.13867c3.7998,0,6.041,2.05176,6.041,6.1543,0,4.123-2.24122,6.26953-5.92676,6.26953H11.55078V12.13867Zm3.78027,6.1543c0-3.03906-1.4248-4.36914-3.93164-4.36914h-.96875v8.85254h.96875C17.23047,22.77637,18.65527,21.35156,18.65527,18.293Z"/>
    <path d="M23.749,12.36621a1.35383,1.35383,0,1,1,1.34864,1.23535A1.25432,1.25432,0,0,1,23.749,12.36621Zm2.43164,2.86914V24.5625H23.99512V15.23535Z"/>
    <path d="M31.53809,15.23535l.15234,1.65235h.07617a3.16864,3.16864,0,0,1,2.64063-1.88086,2.37165,2.37165,0,0,1,1.06347.19043l-.37988,1.89941a3.05509,3.05509,0,0,0-.96875-.15137c-.74121,0-1.63379.5127-2.20312,1.918V24.5625H29.7334V15.23535Z"/>
    <path d="M36.78223,19.9082c0-3.03906,2.10839-4.90136,4.293-4.90136,2.52734,0,3.85644,1.82421,3.85644,4.42675a5.11014,5.11014,0,0,1-.09473,1.06348H38.91016a2.66961,2.66961,0,0,0,2.7539,2.60254,3.90009,3.90009,0,0,0,2.166-.68359l.74121,1.36718A5.88773,5.88773,0,0,1,41.37988,24.79C38.7959,24.79,36.78223,22.98535,36.78223,19.9082Zm4.35058-3.21a2.34245,2.34245,0,0,0-2.24219,2.31738h4.14161C43.03223,17.57129,42.40527,16.69824,41.13281,16.69824Z"/>
    <path d="M47.17578,19.9082a4.60081,4.60081,0,0,1,4.67285-4.90136A4.02156,4.02156,0,0,1,54.585,16.05176l-1.06445,1.4248a2.28206,2.28206,0,0,0-1.55762-.68359c-1.501,0-2.5459,1.23437-2.5459,3.11523,0,1.86133,1.02637,3.09668,2.48926,3.09668a3.11492,3.11492,0,0,0,1.919-.79785l.89257,1.44336a4.65871,4.65871,0,0,1-3.04,1.13965C49.13281,24.79,47.17578,23.00488,47.17578,19.9082Z"/>
    <path d="M57.4541,21.40918V16.96387H56.124V15.33008l1.44434-.09473.26562-2.5459H59.6582v2.5459h2.374v1.72852h-2.374v4.44531c0,1.10156.418,1.63379,1.31055,1.63379a2.68544,2.68544,0,0,0,.96875-.209l.37988,1.61426A5.96046,5.96046,0,0,1,60.418,24.79C58.252,24.79,57.4541,23.42285,57.4541,21.40918Z"/>
    <path d="M71.7041,12.13867v10.5625h5.167V24.5625H69.5V12.13867Z"/>
    <path d="M78.75293,19.9082c0-3.11523,2.1084-4.90136,4.42578-4.90136,2.33691,0,4.44629,1.78613,4.44629,4.90136,0,3.09668-2.10938,4.88184-4.44629,4.88184C80.86133,24.79,78.75293,23.00488,78.75293,19.9082Zm6.62988,0c0-1.88086-.83593-3.11523-2.2041-3.11523-1.36719,0-2.18457,1.23437-2.18457,3.11523,0,1.86133.81738,3.09668,2.18457,3.09668C84.54688,23.00488,85.38281,21.76953,85.38281,19.9082Z"/>
    <path d="M89.83105,22.05469c0-1.99414,1.65235-3.03907,5.49024-3.457-.03809-.98828-.4375-1.82422-1.71-1.82422a5.31369,5.31369,0,0,0-2.62207.91211l-.79785-1.46289a7.30117,7.30117,0,0,1,3.83789-1.21582c2.31738,0,3.47656,1.4248,3.47656,4.02734V24.5625H95.70117l-.15234-1.02539h-.07617A4.54277,4.54277,0,0,1,92.585,24.79,2.60678,2.60678,0,0,1,89.83105,22.05469Zm5.49024,0V19.96484c-2.5459.32325-3.38184.98828-3.38184,1.919,0,.83594.57032,1.19726,1.34864,1.19726A2.96557,2.96557,0,0,0,95.32129,22.05469Z"/>
    <path d="M100.31836,19.9082c0-3.03906,1.91894-4.90136,3.95117-4.90136a3.44745,3.44745,0,0,1,2.45117,1.02636l-.07617-1.501V11.15039h2.18457V24.5625h-1.80469l-.15234-1.00684h-.07617A3.88728,3.88728,0,0,1,104.15527,24.79C101.81934,24.79,100.31836,22.98535,100.31836,19.9082Zm6.32617,2.03223V17.59082a2.78215,2.78215,0,0,0-1.90039-.7793c-1.19629,0-2.165,1.1211-2.165,3.07813,0,2.01367.75977,3.0957,2.1084,3.0957A2.51684,2.51684,0,0,0,106.64453,21.94043Z"/>
  </g>
</svg>
