<svg xmlns="http://www.w3.org/2000/svg" width="38" height="28" viewBox="0 0 38 28"><title>FB</title><path d="M16.95554,7.085V8.88356H10.97607v4.221h4.933v1.72411h-4.933V20.987H8.06417V7.085Z" fill="#666"/><path d="M23.53055,7.1c2.89031,0,4.70987.8778,4.70987,3.447a3.004,3.004,0,0,1-1.95419,2.9224V13.555a3.50352,3.50352,0,0,1,3.03546,3.31851c0,2.80467-2.08587,4.032-5.42718,4.02647H19.05592V7.1Zm2.86916,4.03068c0-1.80924-.98023-2.188-3.04044-2.188H21.875v4.13991h1.44145C25.40625,13.125,26.39971,12.86065,26.39971,11.13068Zm.64934,5.81831c0-1.20535-1.4133-2.33931-3.51145-2.33931H21.875v4.44565h1.7626C25.73814,19.09186,27.04905,18.5119,27.04905,16.949Z" fill="#666"/></svg>