<svg xmlns="http://www.w3.org/2000/svg" width="50" height="36" viewBox="0 0 50 36"><title>Fine_Disabled_B</title><rect x="0.5" y="0.5" width="49" height="35" rx="3.5" ry="3.5" fill="#333"/><path d="M46,1a3.00337,3.00337,0,0,1,3,3V32a3.00337,3.00337,0,0,1-3,3H4a3.00337,3.00337,0,0,1-3-3V4A3.00337,3.00337,0,0,1,4,1H46m0-1H4A4,4,0,0,0,0,4V32a4,4,0,0,0,4,4H46a4.01175,4.01175,0,0,0,4-4V4a4.01175,4.01175,0,0,0-4-4Z"/><path d="M15.75391,12.02734v1.91553H10.2998v3.61572h4.65235v1.916H10.2998v5.33594H8.0332V12.02734Z"/><path d="M18.042,12.26172a1.2908,1.2908,0,0,1,1.3877-1.29,1.28451,1.28451,0,1,1,0,2.56055A1.28718,1.28718,0,0,1,18.042,12.26172Zm2.502,2.95166v9.59717H18.29688V15.21338Z"/><path d="M25.76465,15.21338l.15625,1.29H25.999a4.45873,4.45873,0,0,1,3.14746-1.5249c2.05176,0,2.95118,1.38769,2.95118,3.81152v6.02051h-2.248V19.084c0-1.584-.44922-2.17041-1.50488-2.17041a3.04116,3.04116,0,0,0-2.18946,1.19288v6.7041H23.9082V15.21338Z"/><path d="M34.71875,20.02148c0-3.12744,2.16992-5.043,4.418-5.043,2.59961,0,3.96777,1.87646,3.96777,4.55468a5.24423,5.24423,0,0,1-.09765,1.09473H36.9082a2.747,2.747,0,0,0,2.834,2.67773,4.00578,4.00578,0,0,0,2.22851-.7041l.76172,1.40821a6.05519,6.05519,0,0,1-3.2832,1.03515C36.791,25.04492,34.71875,23.18848,34.71875,20.02148Zm4.47656-3.30322a2.41031,2.41031,0,0,0-2.30664,2.38526h4.26074C41.14941,17.61719,40.50488,16.71826,39.19531,16.71826Z"/></svg>