<svg xmlns="http://www.w3.org/2000/svg" width="50" height="36" viewBox="0 0 50 36"><title>Fine_Enabled_B</title><rect x="0.5" y="0.5" width="49" height="35" rx="3.5" ry="3.5" fill="#4d4d4d"/><path d="M46,1a3.00337,3.00337,0,0,1,3,3V32a3.00337,3.00337,0,0,1-3,3H4a3.00337,3.00337,0,0,1-3-3V4A3.00337,3.00337,0,0,1,4,1H46m0-1H4A4,4,0,0,0,0,4V32a4,4,0,0,0,4,4H46a4,4,0,0,0,4-4V4a4,4,0,0,0-4-4Z" fill="#666"/><path d="M15.75391,12.02734v1.916H10.2998v3.61523h4.65235v1.916H10.2998v5.33594H8.0332V12.02734Z" fill="#ccc"/><path d="M18.042,12.26172a1.39192,1.39192,0,0,1,2.77637,0,1.28775,1.28775,0,0,1-1.38867,1.27051A1.28746,1.28746,0,0,1,18.042,12.26172Zm2.502,2.95117v9.59766H18.29688V15.21289Z" fill="#ccc"/><path d="M25.76465,15.21289l.15625,1.291H25.999a4.45545,4.45545,0,0,1,3.14746-1.52539c2.05176,0,2.95118,1.38769,2.95118,3.81152v6.02051h-2.248V19.084c0-1.584-.44922-2.16992-1.50488-2.16992a3.04234,3.04234,0,0,0-2.18946,1.19141v6.70508H23.9082V15.21289Z" fill="#ccc"/><path d="M34.71875,20.02148c0-3.127,2.16992-5.043,4.418-5.043,2.59961,0,3.96777,1.877,3.96777,4.55468a5.23369,5.23369,0,0,1-.09765,1.09375H36.9082a2.74717,2.74717,0,0,0,2.834,2.67871,4.0135,4.0135,0,0,0,2.22851-.7041l.76172,1.40821a6.05519,6.05519,0,0,1-3.2832,1.03515C36.791,25.04492,34.71875,23.1875,34.71875,20.02148Zm4.47656-3.30273a2.40983,2.40983,0,0,0-2.30664,2.38477h4.26074C41.14941,17.61719,40.50488,16.71875,39.19531,16.71875Z" fill="#ccc"/></svg>