<svg xmlns="http://www.w3.org/2000/svg" width="53" height="28" viewBox="0 0 53 28"><title>FX-I-inactive</title><rect width="53" height="28" rx="4" ry="4" fill="#666"/><path d="M25.414,14.6852,22.32056,20.987H19.4l4.16207-7.21656L19.45269,7.08333h3.14974l2.66556,5.3473h.47319l2.7273-5.3473h3.04974l-4.10938,6.68715L31.67233,20.987h-3.022L25.64118,14.6852Z"/><path d="M18.95554,7.085V8.88356H12.97607v4.221h4.933v1.72411h-4.933V20.987h-2.9119V7.085Z"/><polygon points="35.106 7.062 35.106 8.915 37.064 8.915 37.064 19.064 35.023 19.064 35.023 20.9 41.967 20.9 41.967 19.064 39.942 19.064 39.942 8.915 41.967 8.915 41.967 7.062 35.106 7.062"/></svg>