<svg xmlns="http://www.w3.org/2000/svg" width="53" height="28" viewBox="0 0 53 28"><title>FX-II-inactive</title><rect width="53" height="28" rx="4" ry="4" fill="#666"/><path d="M22.414,14.6852,19.32056,20.987H16.4l4.16207-7.21656L16.45269,7.08333h3.14974l2.66556,5.3473h.47319l2.7273-5.3473h3.04974l-4.10938,6.68715L28.67233,20.987h-3.022L22.64118,14.6852Z"/><path d="M15.95554,7.085V8.88356H9.97607v4.221h4.933v1.72411h-4.933V20.987H7.06417V7.085Z"/><polygon points="32.106 7.062 32.106 8.915 34.064 8.915 34.064 19.064 32.023 19.064 32.023 20.9 38.967 20.9 38.967 19.064 36.942 19.064 36.942 8.915 38.967 8.915 38.967 7.062 32.106 7.062"/><polygon points="40.106 7.062 40.106 8.915 42.064 8.915 42.064 19.064 40.023 19.064 40.023 20.9 46.967 20.9 46.967 19.064 44.942 19.064 44.942 8.915 46.967 8.915 46.967 7.062 40.106 7.062"/></svg>