<svg xmlns="http://www.w3.org/2000/svg" width="53" height="28" viewBox="0 0 53 28"><title>FX-I-active</title><rect width="53" height="28" rx="4" ry="4" fill="#666"/><polygon points="28.335 21.487 25.523 15.598 22.632 21.487 18.535 21.487 22.98 13.778 18.559 6.583 22.912 6.583 25.507 11.79 28.162 6.583 32.413 6.583 27.993 13.775 32.548 21.487 28.335 21.487" fill="#00a3ff"/><path d="M31.51825,7.08334l-4.10944,6.68714L31.6723,20.987h-3.022l-3.00916-6.30185H25.414L22.32056,20.987H19.4l4.162-7.21655L19.4527,7.08334h3.14972L25.268,12.43063h.47314l2.72736-5.34729h3.04974m1.78827-1H27.856L27.5777,6.629l-2.06562,4.0498-2.0147-4.04159-.27613-.55387H17.66443l.93628,1.52356,3.79761,6.17981-3.86457,6.70072-.86487,1.4996h5.27478l.2746-.55936,2.29846-4.6824,2.2312,4.67267.27173.56909h5.40491l-.8913-1.50867-3.957-6.69772,3.794-6.17374.93628-1.52356Z" fill="#333"/><polygon points="9.564 21.487 9.564 6.585 19.455 6.585 19.455 9.384 13.476 9.384 13.476 12.604 18.409 12.604 18.409 15.329 13.476 15.329 13.476 21.487 9.564 21.487" fill="#00a3ff"/><path d="M18.95551,7.085V8.88358H12.97607v4.22094h4.93305v1.72409H12.97607V20.987H10.06415V7.085h8.89136m1-1H9.06415V21.987h4.91192V15.82861h4.93305V12.10452H13.97607V9.88358h5.97944V6.085Z" fill="#333"/><polygon points="34.522 21.4 34.522 18.564 36.564 18.564 36.564 9.415 34.605 9.415 34.605 6.562 42.467 6.562 42.467 9.415 40.442 9.415 40.442 18.564 42.467 18.564 42.467 21.4 34.522 21.4" fill="#00a3ff"/><path d="M41.96655,7.0625V8.91519H39.94232V19.06424h2.02423V20.9H35.02283V19.06424H37.064V8.91519H35.1059V7.0625h6.86065m1-1H34.1059V9.91519H36.064v8.14905H34.02283V21.9h8.94372V18.06424H40.94232V9.91519h2.02423V6.0625Z" fill="#333"/><path d="M25.414,14.6852,22.32056,20.987H19.4l4.16207-7.21656L19.45269,7.08333h3.14974l2.66556,5.3473h.47319l2.7273-5.3473h3.04974l-4.10938,6.68715L31.67233,20.987h-3.022L25.64118,14.6852Z" fill="#00a3ff"/><path d="M18.95554,7.085V8.88356H12.97607v4.221h4.933v1.72411h-4.933V20.987h-2.9119V7.085Z" fill="#00a3ff"/><polygon points="35.106 7.062 35.106 8.915 37.064 8.915 37.064 19.064 35.023 19.064 35.023 20.9 41.967 20.9 41.967 19.064 39.942 19.064 39.942 8.915 41.967 8.915 41.967 7.062 35.106 7.062" fill="#00a3ff"/></svg>