<svg xmlns="http://www.w3.org/2000/svg" viewBox="0 0 28 28"><defs><style>.a{fill:#333;}</style></defs><title>BB_Buttons_1.8</title><rect class="a" x="0.5" y="0.5" width="27" height="27" rx="2.5" ry="2.5"/><path d="M25,1a2,2,0,0,1,2,2V25a2,2,0,0,1-2,2H3a2,2,0,0,1-2-2V3A2,2,0,0,1,3,1H25m0-1H3A3,3,0,0,0,0,3V25a3,3,0,0,0,3,3H25a3,3,0,0,0,3-3V3a3,3,0,0,0-3-3h0Z"/><path d="M15.19,12a1.35,1.35,0,0,0-1.46-1.44,2.46,2.46,0,0,0-1.85.94l-1.15-1.06A4.08,4.08,0,0,1,13.88,8.9c1.94,0,3.33,1,3.33,3,0,2.29-2.81,3.1-2.56,5.42H12.83C12.45,14.68,15.19,13.66,15.19,12Zm-1.44,6.55a1.41,1.41,0,0,1,0,2.81A1.41,1.41,0,0,1,13.75,18.59Z"/></svg>