<svg xmlns="http://www.w3.org/2000/svg" width="51" height="95" viewBox="0 0 51 95">
  <defs>
    <style>
      .a {
        fill: #666;
      }

      .b {
        fill: #1a1a1a;
        stroke: #1a1a1a;
        stroke-miterlimit: 10;
        stroke-width: 0.3px;
      }
    </style>
  </defs>
  <title>Layer_FB_B</title>
  <rect class="a" y="40" width="28" height="20" rx="4" ry="4"/>
  <path class="a" d="M18.5,17H51V14H18.5A6.50753,6.50753,0,0,0,12,20.5v59A6.50753,6.50753,0,0,0,18.5,86H43l-5,5,2,2,8.5-8.49707L40,76l-2,2,5,5H18.5A3.50424,3.50424,0,0,1,15,79.5v-59A3.50424,3.50424,0,0,1,18.5,17Z"/>
  <g>
    <path class="b" d="M12.55487,44v1.868H7.48324v3.36291h4.32634v1.69485H7.48324v4.876H5.37461V44Z"/>
    <path class="b" d="M18.3551,44c2.454,0,4.25362.74529,4.25362,2.92664A2.91568,2.91568,0,0,1,20.6948,49.5079v.07271a2.93369,2.93369,0,0,1,2.532,2.81757c0,2.38131-1.72572,3.40828-4.56265,3.40358h-4.1082V44Zm2.18134,3.32224c0-1.53613-.57755-1.77281-2.32677-1.77281H16.66455v3.44518h1.50877C19.986,49.08118,20.53644,48.79107,20.53644,47.32224Zm.63623,5.14c0-1.0234-.94525-1.88619-2.72669-1.88619H16.66455v3.58967H18.446C20.22945,54.19677,21.17267,53.78926,21.17267,52.46227Z"/>
  </g>
</svg>
