<svg xmlns="http://www.w3.org/2000/svg" width="120" height="36" viewBox="0 0 120 36"><title>Load-to-Part_Active</title><rect x="0.5" y="0.5" width="119" height="35" rx="3.5" ry="3.5" fill="#76839c"/><path d="M116,1a3.00342,3.00342,0,0,1,3,3V32a3.00342,3.00342,0,0,1-3,3H4a3.00342,3.00342,0,0,1-3-3V4A3.00342,3.00342,0,0,1,4,1H116m0-1H4A4,4,0,0,0,0,4V32a4,4,0,0,0,4,4H116a4,4,0,0,0,4-4V4a4,4,0,0,0-4-4Z" fill="#1a1a1a"/><path d="M25.07422,13.94336v-1.916h9.65625v1.916H31.03516V24.81055H28.76758V13.94336Z" fill="#e6e6e6"/><path d="M35.63086,20.02148c0-3.20507,2.16992-5.043,4.55469-5.043,2.40429,0,4.57226,1.83789,4.57226,5.043,0,3.18555-2.168,5.02344-4.57226,5.02344C37.80078,25.04492,35.63086,23.207,35.63086,20.02148Zm6.82031,0c0-1.93554-.85937-3.20507-2.26562-3.20507-1.40821,0-2.248,1.26953-2.248,3.20507,0,1.916.83984,3.18555,2.248,3.18555C41.5918,23.207,42.45117,21.9375,42.45117,20.02148Z" fill="#e6e6e6"/><path d="M57.07617,12.02734c2.834,0,4.94531.97657,4.94531,3.94825,0,2.834-2.11132,4.14355-4.86718,4.14355H55.31641v4.69141H53.05078V12.02734Zm2.7168,3.94825c0-1.60254-.99609-2.13086-2.89258-2.13086h-1.584v4.457h1.66211C58.875,18.30176,59.793,17.53906,59.793,15.97559Z" fill="#e6e6e6"/><path d="M63.959,22.23047c0-2.05274,1.70118-3.127,5.6504-3.55762-.03907-1.0166-.45118-1.876-1.75977-1.876a5.464,5.464,0,0,0-2.69727.9375l-.82226-1.50489a7.50736,7.50736,0,0,1,3.94922-1.251c2.38476,0,3.57617,1.46679,3.57617,4.14453v5.6875H70l-.15625-1.05567h-.07813a4.67461,4.67461,0,0,1-2.97265,1.29A2.68291,2.68291,0,0,1,63.959,22.23047Zm5.6504,0V20.08008c-2.61915.332-3.48047,1.0166-3.48047,1.97461,0,.85937.58593,1.23144,1.38867,1.23144A3.05808,3.05808,0,0,0,69.60938,22.23047Z" fill="#e6e6e6"/><path d="M77.39062,15.21289l.15626,1.70117H77.625a3.25918,3.25918,0,0,1,2.7168-1.93554,2.437,2.437,0,0,1,1.09375.19531l-.39063,1.95508a3.13454,3.13454,0,0,0-.99609-.15625c-.76172,0-1.68164.52734-2.26758,1.97461v5.86328H75.5332V15.21289Z" fill="#e6e6e6"/><path d="M84.13477,21.56641V16.99219H82.76758V15.31055l1.48437-.09766.27344-2.61914h1.87695v2.61914H88.8457v1.7793H86.40234v4.57422c0,1.13281.42969,1.68066,1.34961,1.68066a2.75007,2.75007,0,0,0,.9961-.21582l.39062,1.66211a6.1278,6.1278,0,0,1-1.95508.35156C84.95508,25.04492,84.13477,23.6377,84.13477,21.56641Z" fill="#e6e6e6"/></svg>