<svg xmlns="http://www.w3.org/2000/svg" width="120" height="36" viewBox="0 0 120 36"><title>Load-to-Part_Disabled</title><rect x="0.5" y="0.5" width="119" height="35" rx="3.5" ry="3.5" fill="#333"/><path d="M116,1a3.00342,3.00342,0,0,1,3,3V32a3.00342,3.00342,0,0,1-3,3H4a3.00342,3.00342,0,0,1-3-3V4A3.00342,3.00342,0,0,1,4,1H116m0-1H4A4,4,0,0,0,0,4V32a4,4,0,0,0,4,4H116a4,4,0,0,0,4-4V4a4,4,0,0,0-4-4Z"/><path d="M28.07422,13.94336v-1.916h9.65625v1.916H34.03711V24.81055H31.76953V13.94336Z"/><path d="M38.63086,20.02148c0-3.20507,2.16992-5.043,4.55469-5.043,2.40429,0,4.57422,1.83789,4.57422,5.043,0,3.18555-2.16993,5.02344-4.57422,5.02344C40.80078,25.04492,38.63086,23.207,38.63086,20.02148Zm6.82226,0c0-1.93554-.85937-3.20507-2.26757-3.20507-1.40625,0-2.248,1.26953-2.248,3.20507,0,1.916.8418,3.18555,2.248,3.18555C44.59375,23.207,45.45312,21.9375,45.45312,20.02148Z"/><path d="M60.07812,12.02734c2.834,0,4.94532.97657,4.94532,3.94825,0,2.834-2.11133,4.14355-4.86719,4.14355H58.31836v4.69141H56.05078V12.02734Zm2.7168,3.94825c0-1.60254-.998-2.13086-2.89258-2.13086h-1.584v4.457h1.66211C61.875,18.30176,62.79492,17.53906,62.79492,15.97559Z"/><path d="M66.96094,22.23047c0-2.05274,1.69922-3.127,5.64844-3.55762-.03907-1.0166-.44922-1.876-1.75977-1.876a5.47712,5.47712,0,0,0-2.69727.9375L67.332,16.22949a7.50167,7.50167,0,0,1,3.94922-1.251c2.38281,0,3.57617,1.46679,3.57617,4.14453v5.6875H73l-.15625-1.05567h-.07813a4.66966,4.66966,0,0,1-2.9707,1.29A2.68187,2.68187,0,0,1,66.96094,22.23047Zm5.64844,0V20.08008c-2.61915.332-3.47852,1.0166-3.47852,1.97461,0,.85937.58594,1.23144,1.38672,1.23144A3.05056,3.05056,0,0,0,72.60938,22.23047Z"/><path d="M80.39062,15.21289l.15626,1.70117H80.625a3.26161,3.26161,0,0,1,2.7168-1.93554,2.44057,2.44057,0,0,1,1.0957.19531l-.39062,1.95508a3.14711,3.14711,0,0,0-.99805-.15625c-.76172,0-1.67969.52734-2.26758,1.97461v5.86328H78.53516V15.21289Z"/><path d="M87.13672,21.56641V16.99219H85.76758V15.31055l1.48633-.09766.27343-2.61914h1.877v2.61914h2.44336v1.7793H89.4043v4.57422c0,1.13281.42968,1.68066,1.34765,1.68066a2.75007,2.75007,0,0,0,.9961-.21582l.39257,1.66211a6.1486,6.1486,0,0,1-1.95507.35156C87.957,25.04492,87.13672,23.6377,87.13672,21.56641Z"/></svg>