<svg xmlns="http://www.w3.org/2000/svg" width="62" height="36" viewBox="0 0 62 36"><title>MC_Amt_Inaktiv</title><path d="M18,35.5a17.5,17.5,0,0,1,0-35H44a17.5,17.5,0,0,1,0,35Z" fill="#4d4d4d"/><path d="M44,1a17,17,0,1,1,0,34H18A17,17,0,0,1,18,1H44m0-1H18A18.05291,18.05291,0,0,0,0,18v0A18.05288,18.05288,0,0,0,18,36H44A18,18,0,0,0,62,18v0A18,18,0,0,0,44,0Z"/><rect x="18" y="11" width="26" height="4" fill="#ff5e1f"/><rect x="18" y="21" width="26" height="4" fill="#ff5e1f"/><rect x="9" y="15" width="44" height="6"/><rect x="29" y="8" width="4" height="20" fill="#999"/></svg>