<svg xmlns="http://www.w3.org/2000/svg" width="30" height="30" viewBox="0 0 30 30"><title>MC_A_Label</title><path d="M15,1.5A13.5,13.5,0,1,1,1.5,15,13.51528,13.51528,0,0,1,15,1.5m0-1A14.5,14.5,0,1,0,29.5,15,14.5,14.5,0,0,0,15,.5Z" fill="#999"/><path d="M17.01667,17.74553H12.90843L11.952,20.98438H9.72021L13.73332,9.01562H16.2849l3.99489,11.96876H17.97212ZM16.52882,16.08l-.43116-1.46409c-.3755-1.26258-.751-2.63534-1.10728-3.95351h-.07489c-.33805,1.336-.69433,2.69093-1.088,3.95351L13.39628,16.08Z" fill="#999"/></svg>