<svg xmlns="http://www.w3.org/2000/svg" width="36" height="36" viewBox="0 0 36 36"><title>MC_B_Enabled</title><circle cx="18" cy="18" r="17" fill="#4d4d4d"/><path d="M18,1.5A16.5,16.5,0,1,1,1.5,18,16.51869,16.51869,0,0,1,18,1.5m0-1A17.5,17.5,0,1,0,35.5,18,17.5,17.5,0,0,0,18,.5Z" fill="#666"/><path d="M13.02188,11.00141H17.4375c2.996,0,5.46639,1.14442,5.46639,3.682a3.23479,3.23479,0,0,1-2.5038,3.24772v.09155c2.10105.36619,3.28637,1.53175,3.28637,3.54469,0,2.99541-2.39247,4.391-5.61225,4.391H13.02188Zm4.42693,6.19735c2.26994,0,2.90653-.79937,2.90653-2.19492,0-1.3721-.746-1.94372-2.84-1.94372H15.61517v4.13864Zm.358,6.70086c2.1458,0,3.33112-.509,3.33112-2.4009,0-1.71747-1.1624-2.4009-3.33112-2.4009H15.61517v4.8018Z" fill="#ccc"/></svg>