<svg xmlns="http://www.w3.org/2000/svg" width="30" height="30" viewBox="0 0 30 30">
  <defs>
    <style>
      .a {
        fill: #999;
      }
    </style>
  </defs>
  <title>MC_B_Label</title>
  <path class="a" d="M15,1.5A13.5,13.5,0,1,1,1.5,15,13.51528,13.51528,0,0,1,15,1.5m0-1A14.5,14.5,0,1,0,29.5,15,14.5,14.5,0,0,0,15,.5Z"/>
  <path class="a" d="M11.36816,9.01562h3.78223c2.42578,0,4.2168.75041,4.2168,2.946a2.40619,2.40619,0,0,1-2.02735,2.59862v.07345C19.041,14.92655,20,15.86058,20,17.47058c0,2.39712-1.93555,3.5138-4.542,3.5138H11.36816Zm3.56837,4.85148c1.665,0,2.35352-.37569,2.35352-1.7569,0-1.09781-.76074-1.43129-2.29883-1.43129H13.45216V13.8671Zm.28907,5.19723c1.73828,0,2.6904-.31742,2.6904-1.67232,0-1.24373-.93454-1.8381-2.6904-1.8381H13.45216v3.51042Z"/>
</svg>
