<svg xmlns="http://www.w3.org/2000/svg" width="36" height="36" viewBox="0 0 36 36">
  <defs>
    <style>
      .a {
        fill: gray;
      }

      .b {
        fill: #999;
      }

      .c {
        fill: #e6e6e6;
      }
    </style>
  </defs>
  <title>MC_C_Active</title>
  <g>
    <circle class="a" cx="18" cy="18" r="17"/>
    <path class="b" d="M18,1.5A16.5,16.5,0,1,1,1.5,18,16.51869,16.51869,0,0,1,18,1.5m0-1A17.5,17.5,0,1,0,35.5,18,17.5,17.5,0,0,0,18,.5Z"/>
  </g>
  <path class="c" d="M18.76779,11.33337a5.86894,5.86894,0,0,1,4.2293,1.85237l-1.45528,1.60518a3.82152,3.82152,0,0,0-2.75071-1.20443c-2.43323,0-4.18378,2.0081-4.18378,5.287,0,3.32361,1.614,5.33171,4.09276,5.33171a4.05845,4.05845,0,0,0,3.13811-1.45054l1.45528,1.58448a5.98735,5.98735,0,0,1-4.6389,2.11918c-3.77529,0-6.75355-2.67674-6.75355-7.51731C11.901,14.16692,14.94811,11.33337,18.76779,11.33337Z"/>
</svg>
