<svg xmlns="http://www.w3.org/2000/svg" xmlns:xlink="http://www.w3.org/1999/xlink" width="36" height="36" viewBox="0 0 36 36"><defs><clipPath id="a"><circle cx="18" cy="58" r="17.5" fill="none"/></clipPath></defs><title>MC_C_Deselected</title><g style="isolation:isolate"><g clip-path="url(#a)"><image width="52" height="52" transform="translate(-5 35)" xlink:href="MC_C_Deselected1.png" style="mix-blend-mode:multiply"/><image width="52" height="52" transform="translate(-7 33)" xlink:href="MC_C_Deselected2.png"/></g><circle cx="18" cy="18" r="17" fill="#4c5870" stroke="#000" stroke-miterlimit="10"/><path d="M19.07511,10.89583a5.86893,5.86893,0,0,1,4.22929,1.85238l-1.45527,1.60517A3.82153,3.82153,0,0,0,19.09842,13.149c-2.43323,0-4.18378,2.0081-4.18378,5.287,0,3.3236,1.614,5.3317,4.09276,5.3317a4.05841,4.05841,0,0,0,3.13811-1.45054l1.45528,1.58449a5.98735,5.98735,0,0,1-4.63891,2.11917c-3.77528,0-6.75355-2.67674-6.75355-7.5173C12.20833,13.72939,15.25542,10.89583,19.07511,10.89583Z" fill="#101010"/></g></svg>