<svg xmlns="http://www.w3.org/2000/svg" width="38" height="38" viewBox="0 0 38 38"><title>MC_Edit_Enabled</title><rect x="0.5" y="0.5" width="37" height="37" rx="3.5" ry="3.5" fill="#4d4d4d"/><path d="M34,1a3.00339,3.00339,0,0,1,3,3V34a3.00339,3.00339,0,0,1-3,3H4a3.00339,3.00339,0,0,1-3-3V4A3.00339,3.00339,0,0,1,4,1H34m0-1H4A4,4,0,0,0,0,4V34a4,4,0,0,0,4,4H34a4,4,0,0,0,4-4V4a4,4,0,0,0-4-4Z" fill="#666"/><path d="M11.39978,13.06228a10.842,10.842,0,0,1,15.20044,0" fill="none" stroke="#ccc" stroke-miterlimit="10" stroke-width="11"/><circle cx="19" cy="20.80952" r="10.85714" fill="none" stroke="#000" stroke-miterlimit="10" stroke-width="5"/><polygon points="19 23.619 8.45 36.19 29.55 36.19 19 23.619" fill="#4d4d4d"/><circle cx="19" cy="20.90952" r="2.2619" fill="#ccc"/></svg>