<svg xmlns="http://www.w3.org/2000/svg" width="62" height="36" viewBox="0 0 62 36">
  <defs>
    <style>
      .a {
        fill: #4d4d4d;
      }

      .b {
        fill: #999;
      }

      .c {
        fill: #ff5e1f;
      }
    </style>
  </defs>
  <title>MC_Pos_Inaktiv</title>
  <g>
    <path class="a" d="M18,35.5a17.5,17.5,0,0,1,0-35H44a17.5,17.5,0,0,1,0,35Z"/>
    <path d="M44,1a17,17,0,0,1,.00006,34H18a17,17,0,0,1-.00006-34H44m0-1H17.99994A18.05287,18.05287,0,0,0,0,18v0A18.05291,18.05291,0,0,0,18,36H44.00006A17.99995,17.99995,0,0,0,62,18v0A18,18,0,0,0,44,0Z"/>
  </g>
  <rect x="9" y="15" width="44" height="6"/>
  <rect class="b" x="18" y="11" width="26" height="4"/>
  <rect class="b" x="18" y="21" width="26" height="4"/>
  <rect class="c" x="29" y="8" width="4" height="20"/>
</svg>
