<svg xmlns="http://www.w3.org/2000/svg" viewBox="0 0 66 28"><defs><style>.a{fill:#4d4d4d;}.b{fill:#666;}.c{fill:#ccc;}</style></defs><title>BB_Buttons_1.8</title><rect class="a" x="1" y="1" width="64" height="26" rx="3" ry="3"/><path class="b" d="M62,1a3,3,0,0,1,3,3V24a3,3,0,0,1-3,3H4a3,3,0,0,1-3-3V4A3,3,0,0,1,4,1H62m0-1H4A4,4,0,0,0,0,4V24a4,4,0,0,0,4,4H62a4,4,0,0,0,4-4V4a4,4,0,0,0-4-4h0Z"/><path class="c" d="M13,9.84h2.93c1.88,0,3.26.58,3.26,2.26a2,2,0,0,1-1.57,2v0.06a2.12,2.12,0,0,1,2.06,2.17c0,1.83-1.5,2.69-3.52,2.69H13V9.84Zm2.77,3.8c1.29,0,1.82-.49,1.82-1.34S17,11.1,15.83,11.1H14.64v2.54h1.15ZM16,17.74c1.34,0,2.09-.5,2.09-1.54S17.37,14.8,16,14.8H14.64v2.94H16Z"/><path class="c" d="M25,14.6a1.18,1.18,0,0,0-1.25-1.34,3.83,3.83,0,0,0-1.93.67l-0.59-1.08A5.33,5.33,0,0,1,24,12c1.72,0,2.56,1.05,2.56,3V19H25.25l-0.13-.76h0a3.35,3.35,0,0,1-2.13.92,1.93,1.93,0,0,1-2-2C20.91,15.68,22.14,14.91,25,14.6Zm-1.5,3.31a2.16,2.16,0,0,0,1.5-.76V15.61c-1.86.24-2.48,0.73-2.48,1.42A0.85,0.85,0,0,0,23.46,17.91Z"/><path class="c" d="M28.53,12.12h1.33L30,13H30A3.19,3.19,0,0,1,32.28,12c1.47,0,2.12,1,2.12,2.73V19H32.79V14.9c0-1.13-.32-1.56-1.08-1.56a2.18,2.18,0,0,0-1.57.85V19H28.53V12.12Z"/><path class="c" d="M36.37,9.11H38v6.18h0l2.55-3.17h1.76L40,14.92,42.54,19H40.79L39,16,38,17.25V19H36.37V9.11Z"/><path class="c" d="M47.46,17a1.09,1.09,0,1,1-1,1.09A1.05,1.05,0,0,1,47.46,17Z"/><path class="c" d="M50.88,17a1.09,1.09,0,1,1-1,1.09A1.05,1.05,0,0,1,50.88,17Z"/><path class="c" d="M54.32,17a1.09,1.09,0,1,1-1,1.09A1.05,1.05,0,0,1,54.32,17Z"/></svg>