<svg xmlns="http://www.w3.org/2000/svg" width="36" height="36" viewBox="0 0 36 36">
  <defs>
    <style>
      .a {
        fill: #4d4d4d;
      }

      .b {
        fill: #666;
      }

      .c {
        fill: none;
        stroke: #ccc;
        stroke-miterlimit: 10;
        stroke-width: 3px;
      }

      .d {
        fill: #ccc;
      }
    </style>
  </defs>
  <title>Menu_Bank_Enabled_S</title>
  <g>
    <rect class="a" x="0.5" y="0.5" width="35" height="35" rx="3.5" ry="3.5"/>
    <path class="b" d="M32,1a3.00339,3.00339,0,0,1,3,3V32a3.00339,3.00339,0,0,1-3,3H4a3.00339,3.00339,0,0,1-3-3V4A3.00339,3.00339,0,0,1,4,1H32m0-1H4A4,4,0,0,0,0,4V32a4,4,0,0,0,4,4H32a4,4,0,0,0,4-4V4a4,4,0,0,0-4-4Z"/>
  </g>
  <line class="c" x1="25" y1="12.5" x2="12" y2="12.5"/>
  <line class="c" x1="25" y1="7.5" x2="12" y2="7.5"/>
  <line class="c" x1="25" y1="17.5" x2="17" y2="17.5"/>
  <g>
    <path class="d" d="M6.22949,30.79V15.21h6.001c4.32617,0,6.51953,1.3916,6.51953,4.13574a3.85418,3.85418,0,0,1-1.63672,3.1045,3.98486,3.98486,0,0,1,2.23633,3.57519c0,2.17383-1.17188,4.76465-6.75391,4.76465Zm6.1084-3.60254c2.05566,0,2.05566-.34473,2.05566-1.17676,0-.78418,0-1.17773-2.05566-1.17773L10.75,24.834V27.1875ZM10.75,21.02344l1.26465-.001c2.03515,0,2.03515-.77539,2.03515-1.14746,0-.541,0-.96875-1.99218-.96875l-1.30762.001Z"/>
    <path class="a" d="M12.23053,15.96008c2.90634,0,5.76947.60569,5.76947,3.38561a3.37773,3.37773,0,0,1-2.6915,3.137v.08641C16.85919,22.91359,18.6,23.95834,18.6,26.02544c0,3.0579-2.62085,4.01448-6.004,4.01448H6.97916V15.96008h5.25137M10,21.77335l2.0145-.00058C13.97385,21.77277,14.8,21.08,14.8,19.875c0-1.37785-.91254-1.71875-2.74228-1.71875L10,18.15684v3.61651m0,6.16415H12.338c2.06677,0,2.80579-.35539,2.80579-1.92709,0-1.48645-.6958-1.92707-2.80579-1.92707L10,24.08392V27.9375m2.23053-13.47742H5.47916V31.53992H12.596c6.52911,0,7.504-3.455,7.504-5.51448a4.62312,4.62312,0,0,0-1.76947-3.6758A4.55622,4.55622,0,0,0,19.5,19.34569c0-2.22879-1.26117-4.88561-7.26947-4.88561ZM11.5,19.65641l.55814-.00016a4.34655,4.34655,0,0,1,1.23788.11494c.00232.02724.004.06156.004.10381a.47925.47925,0,0,1-.022.17708,2.32132,2.32132,0,0,1-1.26352.22069l-.5145.00015v-.61651Zm0,5.92714.83832-.00021a4.43391,4.43391,0,0,1,1.28506.12081,1.86109,1.86109,0,0,1,.02036.30626,2.04073,2.04073,0,0,1-.02063.32148,5.02609,5.02609,0,0,1-1.28516.10561H11.5v-.854Z"/>
  </g>
</svg>
