<svg xmlns="http://www.w3.org/2000/svg" width="114" height="36" viewBox="0 0 114 36"><title>Menu_Split_Enabled_L</title><path d="M78.5,35.5V.5H110A3.50424,3.50424,0,0,1,113.5,4V32a3.50424,3.50424,0,0,1-3.5,3.5Z" fill="#4d4d4d"/><path d="M110,1a3.00339,3.00339,0,0,1,3,3V32a3.00339,3.00339,0,0,1-3,3H79V1h31m0-1H78V36h32a4,4,0,0,0,4-4V4a4,4,0,0,0-4-4Z" fill="#666"/><path d="M4,35.5A3.50424,3.50424,0,0,1,.5,32V4A3.50424,3.50424,0,0,1,4,.5H78.5v35Z" fill="#4d4d4d"/><path d="M78,1V35H4a3.00339,3.00339,0,0,1-3-3V4A3.00339,3.00339,0,0,1,4,1H78m1-1H4A4,4,0,0,0,0,4V32a4,4,0,0,0,4,4H79V0Z" fill="#666"/><line x1="104" y1="17.5" x2="88" y2="17.5" fill="none" stroke="#ccc" stroke-miterlimit="10" stroke-width="3"/><line x1="104" y1="11.5" x2="88" y2="11.5" fill="none" stroke="#ccc" stroke-miterlimit="10" stroke-width="3"/><line x1="104" y1="23.5" x2="88" y2="23.5" fill="none" stroke="#ccc" stroke-miterlimit="10" stroke-width="3"/><path d="M20.89062,23.168l1.32911-1.543A5.08669,5.08669,0,0,0,25.543,23.07031c1.44629,0,2.22754-.64453,2.22754-1.64062,0-1.05664-.82031-1.38867-1.97363-1.877L24.03711,18.79A3.68475,3.68475,0,0,1,21.457,15.38867c0-2.03222,1.79883-3.5957,4.30078-3.5957A5.64218,5.64218,0,0,1,29.68652,13.415L28.5332,14.86133a4.168,4.168,0,0,0-2.77539-1.09473c-1.21191,0-2.01367.56738-2.01367,1.50488,0,.99707.97754,1.36914,2.0332,1.79883l1.73926.72266c1.50488.64551,2.58008,1.60351,2.58008,3.46,0,2.07227-1.71973,3.792-4.59277,3.792A6.61764,6.61764,0,0,1,20.89062,23.168Z" fill="#ccc"/><path d="M35.06445,15.21289l.15625,1.0166h.07813a4.67954,4.67954,0,0,1,2.89355-1.251c2.38379,0,3.77246,1.916,3.77246,4.88671,0,3.28321-1.97461,5.17969-4.10546,5.17969a3.88584,3.88584,0,0,1-2.4629-1.05469l.0586,1.60157v3.01074H33.208V15.21289Zm4.57422,4.67188c0-1.916-.626-3.04883-2.07226-3.04883a3.06742,3.06742,0,0,0-2.11133,1.07422v4.47656a3.03735,3.03735,0,0,0,1.93554.80078C38.66113,23.1875,39.63867,22.05469,39.63867,19.88477Z" fill="#ccc"/><path d="M45.21191,22.34766V11.01074H47.459v11.4541c0,.54688.25489.74219.48926.74219a1.34556,1.34556,0,0,0,.35156-.03906l.293,1.68164a3.06854,3.06854,0,0,1-1.19238.19531C45.79785,25.04492,45.21191,24.00977,45.21191,22.34766Z" fill="#ccc"/><path d="M51.23242,12.26172a1.39363,1.39363,0,1,1,1.3877,1.27051A1.29108,1.29108,0,0,1,51.23242,12.26172Zm2.502,2.95117v9.59766H51.4873V15.21289Z" fill="#ccc"/><path d="M57.919,21.56641V16.99219H56.55078V15.31055l1.48535-.09766.27344-2.61914h1.877v2.61914h2.44336v1.7793H60.18652v4.57422c0,1.13281.42969,1.68066,1.34864,1.68066a2.75,2.75,0,0,0,.99609-.21582l.3916,1.66211a6.13825,6.13825,0,0,1-1.95508.35156C58.73926,25.04492,57.919,23.6377,57.919,21.56641Z" fill="#ccc"/></svg>