<svg xmlns="http://www.w3.org/2000/svg" width="150" height="36" viewBox="0 0 150 36"><title>Menu_Load-II_Active</title><path d="M114.5,35.5V.5H146A3.50424,3.50424,0,0,1,149.5,4V32a3.50424,3.50424,0,0,1-3.5,3.5Z" fill="gray"/><path d="M146,1a3.00337,3.00337,0,0,1,3,3V32a3.00337,3.00337,0,0,1-3,3H115V1h31m0-1H114V36h32a4.01175,4.01175,0,0,0,4-4V4a4.01175,4.01175,0,0,0-4-4Z" fill="#999"/><path d="M4.82617,35.5A4.33071,4.33071,0,0,1,.5,31.17383V4.82617A4.33071,4.33071,0,0,1,4.82617.5H114.5v35Z" fill="gray"/><path d="M114,1V35H4.82611A3.83042,3.83042,0,0,1,1,31.17392V4.8261A3.83043,3.83043,0,0,1,4.82611,1H114m1-1H4.82611A4.8261,4.8261,0,0,0,0,4.8261V31.17392A4.82609,4.82609,0,0,0,4.82611,36H115V0Z" fill="#999"/><path d="M16.30762,12.02734V22.89453H21.625v1.916H14.041V12.02734Z" fill="#e6e6e6"/><path d="M23.75781,20.02148c0-3.20507,2.16992-5.043,4.55469-5.043,2.4043,0,4.57324,1.83789,4.57324,5.043,0,3.18555-2.16894,5.02344-4.57324,5.02344C25.92773,25.04492,23.75781,23.207,23.75781,20.02148Zm6.82129,0c0-1.93554-.85937-3.20507-2.2666-3.20507s-2.248,1.26953-2.248,3.20507c0,1.916.84082,3.18555,2.248,3.18555S30.5791,21.9375,30.5791,20.02148Z" fill="#e6e6e6"/><path d="M35.35156,22.23047c0-2.05274,1.7002-3.127,5.64942-3.55762-.03907-1.0166-.4502-1.876-1.75977-1.876a5.47048,5.47048,0,0,0-2.69726.9375l-.82129-1.50489a7.50447,7.50447,0,0,1,3.94922-1.251c2.38378,0,3.57617,1.46679,3.57617,4.14453v5.6875H41.3916l-.15625-1.05567h-.07812a4.67214,4.67214,0,0,1-2.97168,1.29A2.68239,2.68239,0,0,1,35.35156,22.23047Zm5.64942,0V20.08008c-2.61914.332-3.4795,1.0166-3.4795,1.97461,0,.85937.58594,1.23144,1.3877,1.23144A3.05432,3.05432,0,0,0,41.001,22.23047Z" fill="#e6e6e6"/><path d="M46.33887,20.02148c0-3.127,1.97461-5.043,4.06543-5.043a3.54047,3.54047,0,0,1,2.52148,1.05566l-.07812-1.54395V11.01074h2.248V24.81055H53.23926L53.082,23.77441h-.07812a3.99568,3.99568,0,0,1-2.7168,1.27051C47.88281,25.04492,46.33887,23.1875,46.33887,20.02148Zm6.50879,2.0918V17.63672a2.8613,2.8613,0,0,0-1.95411-.80078c-1.23144,0-2.22851,1.15234-2.22851,3.166,0,2.07227.78223,3.18555,2.16992,3.18555A2.59061,2.59061,0,0,0,52.84766,22.11328Z" fill="#e6e6e6"/><path d="M64.14941,21.56641V16.99219H62.78125V15.31055l1.48535-.09766L64.54,12.59375H66.417v2.61914h2.44336v1.7793H66.417v4.57422c0,1.13281.42969,1.68066,1.34863,1.68066a2.75,2.75,0,0,0,.9961-.21582l.3916,1.66211a6.13825,6.13825,0,0,1-1.95508.35156C64.96973,25.04492,64.14941,23.6377,64.14941,21.56641Z" fill="#e6e6e6"/><path d="M70.91406,20.02148c0-3.20507,2.16992-5.043,4.55469-5.043,2.4043,0,4.57324,1.83789,4.57324,5.043,0,3.18555-2.16894,5.02344-4.57324,5.02344C73.084,25.04492,70.91406,23.207,70.91406,20.02148Zm6.82129,0c0-1.93554-.85937-3.20507-2.2666-3.20507s-2.24805,1.26953-2.24805,3.20507c0,1.916.84082,3.18555,2.24805,3.18555S77.73535,21.9375,77.73535,20.02148Z" fill="#e6e6e6"/><path d="M88.70508,22.89453h2.502V13.94336h-2.502v-1.916h12.54883v1.916H98.77148v8.95117h2.48243v1.916H88.70508Zm7.79883,0V13.94336h-3.0293v8.95117Z" fill="#e6e6e6"/><line x1="140" y1="17.5" x2="124" y2="17.5" fill="none" stroke="#e6e6e6" stroke-miterlimit="10" stroke-width="3"/><line x1="140" y1="11.5" x2="124" y2="11.5" fill="none" stroke="#e6e6e6" stroke-miterlimit="10" stroke-width="3"/><line x1="140" y1="23.5" x2="124" y2="23.5" fill="none" stroke="#e6e6e6" stroke-miterlimit="10" stroke-width="3"/></svg>