<svg xmlns="http://www.w3.org/2000/svg" width="150" height="36" viewBox="0 0 150 36">
  <defs>
    <style>
      .a {
        fill: gray;
      }

      .b {
        fill: #999;
      }

      .c {
        fill: #e6e6e6;
      }

      .d {
        fill: none;
        stroke: #e6e6e6;
        stroke-miterlimit: 10;
        stroke-width: 3px;
      }
    </style>
  </defs>
  <title>Menu_Dir-Load_Active</title>
  <g>
    <path class="a" d="M114.5,35.5V.5H146A3.50424,3.50424,0,0,1,149.5,4V32a3.50424,3.50424,0,0,1-3.5,3.5Z"/>
    <path class="b" d="M146,1a3.00337,3.00337,0,0,1,3,3V32a3.00337,3.00337,0,0,1-3,3H115V1h31m0-1H114V36h32a4.01175,4.01175,0,0,0,4-4V4a4.01175,4.01175,0,0,0-4-4Z"/>
  </g>
  <g>
    <path class="a" d="M4.82617,35.39648A4.22776,4.22776,0,0,1,.60352,31.17383V4.82617A4.22776,4.22776,0,0,1,4.82617.60352H114.39648v34.793Z"/>
    <path class="b" d="M113.79346,1.20653v33.587H4.82611a3.62367,3.62367,0,0,1-3.61957-3.61957V4.8261A3.62366,3.62366,0,0,1,4.82611,1.20653H113.79346M115,0H4.82611A4.8261,4.8261,0,0,0,0,4.8261V31.17392A4.82609,4.82609,0,0,0,4.82611,36H115V0Z"/>
  </g>
  <g>
    <path class="c" d="M11.874,12.13867c3.79981,0,6.041,2.05078,6.041,6.1543,0,4.123-2.24121,6.26953-5.92676,6.26953H8.5498V12.13867ZM15.6543,18.293c0-3.03906-1.42481-4.36914-3.93164-4.36914h-.96973v8.85351h.96973C14.22949,22.77734,15.6543,21.35156,15.6543,18.293Z"/>
    <path class="c" d="M20.74805,12.36621a1.35382,1.35382,0,1,1,1.34863,1.23535A1.25376,1.25376,0,0,1,20.74805,12.36621Zm2.43164,2.86817V24.5625H20.99414V15.23438Z"/>
    <path class="c" d="M28.53711,15.23438l.15234,1.65332h.07617a3.16864,3.16864,0,0,1,2.64063-1.88086,2.37173,2.37173,0,0,1,1.06348.19043l-.37989,1.89941a3.055,3.055,0,0,0-.96875-.15137c-.74121,0-1.63379.51172-2.20312,1.918V24.5625H26.73242V15.23438Z"/>
    <path class="c" d="M33.78125,19.9082c0-3.03906,2.1084-4.90136,4.293-4.90136,2.52734,0,3.85644,1.82324,3.85644,4.42675a5.11025,5.11025,0,0,1-.09472,1.06348H35.90918a2.669,2.669,0,0,0,2.75391,2.60254,3.9,3.9,0,0,0,2.166-.68359l.74121,1.36718a5.88037,5.88037,0,0,1-3.1914,1.00782C35.79492,24.791,33.78125,22.98633,33.78125,19.9082Zm4.35059-3.21093a2.3434,2.3434,0,0,0-2.24219,2.31835h4.1416C40.03125,17.57129,39.4043,16.69727,38.13184,16.69727Z"/>
    <path class="c" d="M44.1748,19.9082a4.60082,4.60082,0,0,1,4.67286-4.90136A4.02155,4.02155,0,0,1,51.584,16.05176l-1.06445,1.4248a2.2777,2.2777,0,0,0-1.55762-.68359c-1.501,0-2.54589,1.23437-2.54589,3.11523,0,1.86133,1.02636,3.09668,2.48925,3.09668a3.11,3.11,0,0,0,1.918-.79785l.89356,1.44336a4.65984,4.65984,0,0,1-3.04,1.14063C46.13184,24.791,44.1748,23.00488,44.1748,19.9082Z"/>
    <path class="c" d="M54.45312,21.40918V16.96387H53.12305V15.33008l1.44433-.0957.26563-2.54493h1.82422v2.54493h2.374v1.72949h-2.374v4.44531c0,1.10156.418,1.63379,1.31054,1.63379a2.68539,2.68539,0,0,0,.96875-.209l.37989,1.61524a5.9878,5.9878,0,0,1-1.89942.3418C55.251,24.791,54.45312,23.42285,54.45312,21.40918Z"/>
    <path class="c" d="M68.70215,12.13867v10.5625h5.168V24.5625H66.499V12.13867Z"/>
    <path class="c" d="M75.75195,19.9082c0-3.11523,2.1084-4.90136,4.42578-4.90136,2.33692,0,4.44629,1.78613,4.44629,4.90136,0,3.09668-2.10937,4.88282-4.44629,4.88282C77.86035,24.791,75.75195,23.00488,75.75195,19.9082Zm6.62989,0c0-1.88086-.83594-3.11523-2.20411-3.11523-1.36718,0-2.18457,1.23437-2.18457,3.11523,0,1.86133.81739,3.09668,2.18457,3.09668C81.5459,23.00488,82.38184,21.76953,82.38184,19.9082Z"/>
    <path class="c" d="M86.83008,22.05469c0-1.99414,1.65234-3.03907,5.49023-3.457-.03808-.98828-.4375-1.82422-1.71-1.82422a5.31369,5.31369,0,0,0-2.62207.91211l-.79785-1.46289a7.29254,7.29254,0,0,1,3.83789-1.21582c2.31738,0,3.47656,1.4248,3.47656,4.02734V24.5625H92.7002l-.15235-1.02539h-.07617A4.53886,4.53886,0,0,1,89.584,24.791,2.60755,2.60755,0,0,1,86.83008,22.05469Zm5.49023,0V19.96484c-2.5459.32325-3.38183.98828-3.38183,1.919,0,.83594.57031,1.19629,1.34863,1.19629A2.964,2.964,0,0,0,92.32031,22.05469Z"/>
    <path class="c" d="M97.31738,19.9082c0-3.03906,1.91895-4.90136,3.95117-4.90136a3.4475,3.4475,0,0,1,2.45118,1.02636l-.07618-1.501V11.15039h2.18457V24.5625h-1.80468l-.15235-1.00684h-.07617A3.88413,3.88413,0,0,1,101.1543,24.791C98.81836,24.791,97.31738,22.98633,97.31738,19.9082Zm6.32617,2.03321V17.58984a2.78524,2.78524,0,0,0-1.90039-.77832c-1.19628,0-2.165,1.1211-2.165,3.07715,0,2.01367.75977,3.09766,2.1084,3.09766A2.52269,2.52269,0,0,0,103.64355,21.94141Z"/>
  </g>
  <line class="d" x1="140" y1="17.5" x2="124" y2="17.5"/>
  <line class="d" x1="140" y1="11.5" x2="124" y2="11.5"/>
  <line class="d" x1="140" y1="23.5" x2="124" y2="23.5"/>
</svg>
