<svg xmlns="http://www.w3.org/2000/svg" width="36" height="36" viewBox="0 0 36 36"><title>Menu_Bank_Active_S</title><rect x="0.5" y="0.5" width="35" height="35" rx="3.5" ry="3.5" fill="gray"/><path d="M32,1a3.00339,3.00339,0,0,1,3,3V32a3.00339,3.00339,0,0,1-3,3H4a3.00339,3.00339,0,0,1-3-3V4A3.00339,3.00339,0,0,1,4,1H32m0-1H4A4.01175,4.01175,0,0,0,0,4V32a4.01175,4.01175,0,0,0,4,4H32a4.01175,4.01175,0,0,0,4-4V4a4.01175,4.01175,0,0,0-4-4Z" fill="#999"/><line x1="25" y1="12.5" x2="12" y2="12.5" fill="none" stroke="#e6e6e6" stroke-miterlimit="10" stroke-width="3"/><line x1="25" y1="7.5" x2="12" y2="7.5" fill="none" stroke="#e6e6e6" stroke-miterlimit="10" stroke-width="3"/><line x1="25" y1="17.5" x2="17" y2="17.5" fill="none" stroke="#e6e6e6" stroke-miterlimit="10" stroke-width="3"/><path d="M6.01367,30.99707V15.01562h5.46875c5.22266,0,6.00293,2.78321,6.00293,4.44239a4.42927,4.42927,0,0,1-1.03223,2.88379,4.28844,4.28844,0,0,1,1.75879,3.61132c0,3.15821-2.37988,5.044-6.36718,5.044Zm5.5752-3.92383c2.206,0,2.206-.53808,2.206-1.1084,0-.32519,0-1.3164-2.206-1.3164H10.49414v2.4248Zm-.32032-5.98535c1.7793,0,1.7793-.70117,1.7793-1.07715,0-.40039,0-1.07129-1.73633-1.07129h-.81738v2.14844Z" fill="gray"/><path d="M11.482,16.01568c2.88611,0,5.00315.87641,5.00315,3.44205A3.15156,3.15156,0,0,1,14.539,22.49335v.08545a3.25721,3.25721,0,0,1,2.67246,3.37388c0,2.80063-2.28794,4.04483-5.36628,4.04483H7.014V16.01568h4.468M9.49423,22.08786h1.77414c2.04412,0,2.7793-.87959,2.7793-2.077,0-1.36827-.91968-2.07151-2.73657-2.07151H9.49423v4.14848m0,5.98541h2.09461c2.34865,0,3.20651-.63577,3.20651-2.10877,0-1.47508-1.11087-2.3165-3.20651-2.3165H9.49423v4.42527M11.482,14.01568H5.014V31.99751h6.83114c4.54367,0,7.36628-2.31625,7.36628-6.04483a5.41016,5.41016,0,0,0-1.433-3.76922,5.52854,5.52854,0,0,0,.70667-2.72573c0-1.63626-.68238-5.44205-7.00315-5.44205Zm.01224,6.06685V19.9429a2.48827,2.48827,0,0,1,.51972.06637,2.383,2.383,0,0,1-.51972.07326Zm0,5.56547h.09461a2.37048,2.37048,0,0,1,1.2037.21538c-.0022.00944.00281.04475.00281.10112v.00134a5.04177,5.04177,0,0,1-1.20651.10743h-.09461V25.648Z" fill="gray"/><path d="M11.482,16.01569c2.88608,0,5.00312.8764,5.00312,3.442A3.15156,3.15156,0,0,1,14.539,22.49336v.08545a3.25718,3.25718,0,0,1,2.67245,3.37387c0,2.80063-2.28793,4.04482-5.36628,4.04482H7.014V16.01569Zm2.56565,3.99521c0-1.36828-.91966-2.07151-2.73655-2.07151H9.49422v4.14847h1.77416C13.31249,22.08786,14.04766,21.20827,14.04766,20.0109Zm.74769,5.9536c0-1.47508-1.11086-2.3165-3.20653-2.3165H9.49422v4.42526h2.0946C13.93749,28.07326,14.79535,27.4375,14.79535,25.9645Z" fill="#e6e6e6"/></svg>