<svg xmlns="http://www.w3.org/2000/svg" width="114" height="36" viewBox="0 0 114 36"><title>Menu_Info_Enabled_L</title><path d="M78.5,35.5V.5H110A3.50424,3.50424,0,0,1,113.5,4V32a3.50424,3.50424,0,0,1-3.5,3.5Z" fill="#4d4d4d"/><path d="M110,1a3.00337,3.00337,0,0,1,3,3V32a3.00337,3.00337,0,0,1-3,3H79V1h31m0-1H78V36h32a4,4,0,0,0,4-4V4a4,4,0,0,0-4-4Z" fill="#666"/><path d="M4,35.5A3.50424,3.50424,0,0,1,.5,32V4A3.50424,3.50424,0,0,1,4,.5H78.5v35Z" fill="#4d4d4d"/><path d="M78,1V35H4a3.0034,3.0034,0,0,1-3-3V4A3.0034,3.0034,0,0,1,4,1H78m1-1H4A4,4,0,0,0,0,4V32a4,4,0,0,0,4,4H79V0Z" fill="#666"/><path d="M25.32617,12.02734V24.81055H23.05859V12.02734Z" fill="#ccc"/><path d="M31.21,15.21289l.15625,1.291h.07813a4.45543,4.45543,0,0,1,3.14746-1.52539c2.05175,0,2.95117,1.38769,2.95117,3.81152v6.02051h-2.248V19.084c0-1.584-.44922-2.16992-1.50488-2.16992a3.0423,3.0423,0,0,0-2.18945,1.19141v6.70508H29.35352V15.21289Z" fill="#ccc"/><path d="M40.37891,16.99219V15.31055l1.29-.09766V14.2168c0-1.99414.91894-3.44043,3.18554-3.44043a4.86517,4.86517,0,0,1,1.75977.332l-.43067,1.68066a2.64815,2.64815,0,0,0-1.05468-.23437c-.78223,0-1.21192.50781-1.21192,1.623v1.03516h1.876v1.7793H43.917v7.81836H41.669V16.99219Z" fill="#ccc"/><path d="M47.63184,20.02148c0-3.20507,2.16992-5.043,4.55468-5.043,2.4043,0,4.57325,1.83789,4.57325,5.043,0,3.18555-2.169,5.02344-4.57325,5.02344C49.80176,25.04492,47.63184,23.207,47.63184,20.02148Zm6.82128,0c0-1.93554-.85937-3.20507-2.2666-3.20507s-2.248,1.26953-2.248,3.20507c0,1.916.84082,3.18555,2.248,3.18555S54.45312,21.9375,54.45312,20.02148Z" fill="#ccc"/><line x1="103" y1="26.5" x2="89" y2="26.5" fill="none" stroke="#ccc" stroke-miterlimit="10" stroke-width="3"/><polyline points="90 15.5 96.5 15.5 96.5 26.5" fill="none" stroke="#ccc" stroke-miterlimit="10" stroke-width="3"/><path d="M98.1,9a2.27318,2.27318,0,0,0-.56579-1.53421,2.363,2.363,0,0,0-3.06842,0,2.363,2.363,0,0,0,0,3.06842,2.363,2.363,0,0,0,3.06842,0A2.27318,2.27318,0,0,0,98.1,9Z" fill="#ccc"/></svg>