<svg xmlns="http://www.w3.org/2000/svg" width="150" height="36" viewBox="0 0 150 36"><title>Menu_Load-I_Enabled</title><path d="M114.5,35.5V.5H146A3.50424,3.50424,0,0,1,149.5,4V32a3.50424,3.50424,0,0,1-3.5,3.5Z" fill="#4d4d4d"/><path d="M146,1a3.00337,3.00337,0,0,1,3,3V32a3.00337,3.00337,0,0,1-3,3H115V1h31m0-1H114V36h32a4,4,0,0,0,4-4V4a4,4,0,0,0-4-4Z" fill="#666"/><path d="M4,35.5A3.50424,3.50424,0,0,1,.5,32V4A3.50424,3.50424,0,0,1,4,.5H114.5v35Z" fill="#4d4d4d"/><path d="M114,1V35H4a3.00342,3.00342,0,0,1-3-3V4A3.00342,3.00342,0,0,1,4,1H114m1-1H4A4,4,0,0,0,0,4V32a4,4,0,0,0,4,4H115V0Z" fill="#666"/><line x1="140" y1="17.5" x2="124" y2="17.5" fill="none" stroke="#ccc" stroke-miterlimit="10" stroke-width="3"/><line x1="140" y1="11.5" x2="124" y2="11.5" fill="none" stroke="#ccc" stroke-miterlimit="10" stroke-width="3"/><line x1="140" y1="23.5" x2="124" y2="23.5" fill="none" stroke="#ccc" stroke-miterlimit="10" stroke-width="3"/><path d="M18.30859,12.02734V22.89453H23.626v1.916H16.042V12.02734Z" fill="#ccc"/><path d="M25.75879,20.02148c0-3.20507,2.16992-5.043,4.55469-5.043,2.40429,0,4.57324,1.83789,4.57324,5.043,0,3.18555-2.16895,5.02344-4.57324,5.02344C27.92871,25.04492,25.75879,23.207,25.75879,20.02148Zm6.82129,0c0-1.93554-.85938-3.20507-2.2666-3.20507s-2.248,1.26953-2.248,3.20507c0,1.916.84082,3.18555,2.248,3.18555S32.58008,21.9375,32.58008,20.02148Z" fill="#ccc"/><path d="M37.35254,22.23047c0-2.05274,1.70019-3.127,5.64941-3.55762-.03906-1.0166-.45019-1.876-1.75976-1.876a5.47051,5.47051,0,0,0-2.69727.9375l-.82129-1.50489a7.50453,7.50453,0,0,1,3.94922-1.251c2.38379,0,3.57617,1.46679,3.57617,4.14453v5.6875H43.39258l-.15625-1.05567H43.1582a4.67214,4.67214,0,0,1-2.97168,1.29A2.68239,2.68239,0,0,1,37.35254,22.23047Zm5.64941,0V20.08008c-2.61914.332-3.47949,1.0166-3.47949,1.97461,0,.85937.58594,1.23144,1.3877,1.23144A3.05429,3.05429,0,0,0,43.002,22.23047Z" fill="#ccc"/><path d="M48.33984,20.02148c0-3.127,1.97461-5.043,4.06543-5.043a3.54047,3.54047,0,0,1,2.52149,1.05566l-.07813-1.54395V11.01074h2.248V24.81055H55.24023L55.083,23.77441h-.07813a3.99564,3.99564,0,0,1-2.71679,1.27051C49.88379,25.04492,48.33984,23.1875,48.33984,20.02148Zm6.50879,2.0918V17.63672a2.86128,2.86128,0,0,0-1.9541-.80078c-1.23144,0-2.22851,1.15234-2.22851,3.166,0,2.07227.78222,3.18555,2.16992,3.18555A2.59059,2.59059,0,0,0,54.84863,22.11328Z" fill="#ccc"/><path d="M66.15039,21.56641V16.99219H64.78223V15.31055l1.48535-.09766.27344-2.61914H68.418v2.61914h2.44336v1.7793H68.418v4.57422c0,1.13281.42969,1.68066,1.34863,1.68066a2.75007,2.75007,0,0,0,.9961-.21582l.3916,1.66211a6.1383,6.1383,0,0,1-1.95508.35156C66.9707,25.04492,66.15039,23.6377,66.15039,21.56641Z" fill="#ccc"/><path d="M72.915,20.02148c0-3.20507,2.16992-5.043,4.55469-5.043,2.40429,0,4.57324,1.83789,4.57324,5.043,0,3.18555-2.16895,5.02344-4.57324,5.02344C75.085,25.04492,72.915,23.207,72.915,20.02148Zm6.82129,0c0-1.93554-.85938-3.20507-2.2666-3.20507s-2.248,1.26953-2.248,3.20507c0,1.916.84082,3.18555,2.248,3.18555S79.73633,21.9375,79.73633,20.02148Z" fill="#ccc"/><path d="M92.875,22.89453V13.94336H90.96v-1.916h6.0791v1.916H95.14258v8.95117h1.89648v1.916H90.96v-1.916Z" fill="#ccc"/></svg>