<svg xmlns="http://www.w3.org/2000/svg" width="36" height="36" viewBox="0 0 36 36"><title>Menu_Preset_Active_S</title><rect x="0.5" y="0.5" width="35" height="35" rx="3.5" ry="3.5" fill="gray"/><path d="M32,1a3.00339,3.00339,0,0,1,3,3V32a3.00339,3.00339,0,0,1-3,3H4a3.00339,3.00339,0,0,1-3-3V4A3.00339,3.00339,0,0,1,4,1H32m0-1H4A4.01176,4.01176,0,0,0,0,4V32a4.01176,4.01176,0,0,0,4,4H32a4.01175,4.01175,0,0,0,4-4V4a4.01175,4.01175,0,0,0-4-4Z" fill="#999"/><line x1="26" y1="12.5" x2="13" y2="12.5" fill="none" stroke="#e6e6e6" stroke-miterlimit="10" stroke-width="3"/><line x1="26" y1="7.5" x2="13" y2="7.5" fill="none" stroke="#e6e6e6" stroke-miterlimit="10" stroke-width="3"/><line x1="25.5" y1="17.5" x2="17" y2="17.5" fill="none" stroke="#e6e6e6" stroke-miterlimit="10" stroke-width="3"/><path d="M7.02539,31V15.01465h5.40527c5.57715,0,6.41016,3.333,6.41016,5.32031,0,3.41211-2.42383,5.53223-6.3252,5.53223H11.50586V31Zm5.29883-9.12109c1.918,0,2.07812-.7627,2.07812-1.544,0-.68457,0-1.332-2.16406-1.332h-.73242v2.876Z" fill="gray"/><path d="M12.43057,16.01507c3.10041,0,5.41022,1.0689,5.41022,4.3194,0,3.10042-2.30981,4.53309-5.32474,4.53309H10.50539V30H8.0257V16.01507h4.40487m-1.92518,6.86426h1.81836c2.0737,0,3.079-.8344,3.079-2.54486,0-1.75372-1.09079-2.33117-3.1645-2.33117H10.50539v4.876m1.92518-8.86426H6.0257V32h6.47969V26.86756h.01066c4.44962,0,7.32474-2.56439,7.32474-6.53309,0-1.90006-.72206-6.3194-7.41022-6.3194Zm.07482,6.86123v-.86873a3.12688,3.12688,0,0,1,.88527.1213,1.51715,1.51715,0,0,1,.01211.2056.98772.98772,0,0,1-.053.39168l-.00034-.00012a2.04112,2.04112,0,0,1-.84408.15027Z" fill="gray"/><path d="M12.43058,16.01507c3.1004,0,5.41021,1.0689,5.41021,4.31941,0,3.1004-2.30981,4.53308-5.32474,4.53308H10.50538V30H8.0257V16.01507Zm2.9722,4.31941c0-1.75373-1.0908-2.33118-3.16451-2.33118H10.50538v4.876h1.81836C14.39744,22.87933,15.40278,22.04493,15.40278,20.33448Z" fill="#e6e6e6"/></svg>