<svg xmlns="http://www.w3.org/2000/svg" width="114" height="36" viewBox="0 0 114 36"><title>Menu_Bank_Disabled_L</title><path d="M78.5,35.5V.5H110A3.50424,3.50424,0,0,1,113.5,4V32a3.50424,3.50424,0,0,1-3.5,3.5Z" fill="#333"/><path d="M110,1a3.00339,3.00339,0,0,1,3,3V32a3.00339,3.00339,0,0,1-3,3H79V1h31m0-1H78V36h32a4.01175,4.01175,0,0,0,4-4V4a4.01175,4.01175,0,0,0-4-4Z"/><path d="M4,35.5A3.50424,3.50424,0,0,1,.5,32V4A3.50424,3.50424,0,0,1,4,.5H78.5v35Z" fill="#333"/><path d="M78,1V35H4a3.0034,3.0034,0,0,1-3-3V4A3.0034,3.0034,0,0,1,4,1H78m1-1H4A4,4,0,0,0,0,4V32a4,4,0,0,0,4,4H79V0Z"/><path d="M22.28516,12.02734c2.63867,0,4.57422.80127,4.57422,3.147a2.88138,2.88138,0,0,1-1.7793,2.77539v.07861a2.91934,2.91934,0,0,1,2.44336,3.0293c0,2.56054-2.0918,3.75293-4.90625,3.75293h-4.417V12.02734Zm2.3457,3.479c0-1.251-.84082-1.72022-2.50195-1.72022H20.4668v3.51856h1.623C23.86816,17.30469,24.63086,16.60107,24.63086,15.50635Zm.68359,5.43408c0-1.34863-1.01562-1.93457-2.93164-1.93457h-1.916v4.0459h1.916C24.25977,23.05176,25.31445,22.36719,25.31445,20.94043Z"/><path d="M30.14453,22.23047c0-2.05176,1.7002-3.127,5.64942-3.55762-.03907-1.01611-.4502-1.87646-1.75977-1.87646a5.4673,5.4673,0,0,0-2.69727.93847l-.82129-1.50537a7.50885,7.50885,0,0,1,3.94922-1.251c2.38379,0,3.57618,1.4663,3.57618,4.14453v5.6875H36.18457l-.15625-1.05567H35.9502a4.67219,4.67219,0,0,1-2.97168,1.29A2.68239,2.68239,0,0,1,30.14453,22.23047Zm5.64942,0V20.08008c-2.61915.333-3.4795,1.0166-3.4795,1.97461,0,.86035.58594,1.23144,1.3877,1.23144A3.05028,3.05028,0,0,0,35.794,22.23047Z"/><path d="M43.5752,15.21338l.15625,1.29h.07812a4.45871,4.45871,0,0,1,3.14746-1.5249c2.05176,0,2.95117,1.38769,2.95117,3.81152v6.02051h-2.248V19.084c0-1.584-.44922-2.17041-1.50489-2.17041a3.04115,3.04115,0,0,0-2.18945,1.19288v6.7041H41.71875V15.21338Z"/><path d="M55.85156,11.01074v8.62012h.0586l3.55761-4.41748h2.46289l-3.2832,3.90967,3.61524,5.6875H59.81934l-2.46192-4.16309-1.50586,1.71973v2.44336h-2.208V11.01074Z"/><line x1="104" y1="17.5" x2="88" y2="17.5" fill="none" stroke="#000" stroke-miterlimit="10" stroke-width="3"/><line x1="104" y1="11.5" x2="88" y2="11.5" fill="none" stroke="#000" stroke-miterlimit="10" stroke-width="3"/><line x1="104" y1="23.5" x2="88" y2="23.5" fill="none" stroke="#000" stroke-miterlimit="10" stroke-width="3"/></svg>