<svg xmlns="http://www.w3.org/2000/svg" viewBox="0 0 66 28"><defs><style>.a{fill:gray;}.b{fill:#999;}.c{fill:#e6e6e6;}</style></defs><title>BB_Buttons_1.8</title><rect class="a" x="1" y="1" width="64" height="26" rx="3" ry="3"/><path class="b" d="M62,1a3,3,0,0,1,3,3V24a3,3,0,0,1-3,3H4a3,3,0,0,1-3-3V4A3,3,0,0,1,4,1H62m0-1H4A4,4,0,0,0,0,4V24a4,4,0,0,0,4,4H62a4,4,0,0,0,4-4V4a4,4,0,0,0-4-4h0Z"/><path class="c" d="M9.22,9.84H12.3c2,0,3.47.7,3.47,2.83s-1.51,3-3.47,3H10.85V19H9.22V9.84Zm2.94,4.5c1.37,0,2-.55,2-1.67s-0.69-1.53-2-1.53H10.85v3.19h1.32Z"/><path class="c" d="M17.33,12.12h1.33l0.11,1.22h0.06A2.34,2.34,0,0,1,20.77,12a1.75,1.75,0,0,1,.78.14l-0.28,1.4a2.24,2.24,0,0,0-.71-0.11,1.89,1.89,0,0,0-1.62,1.42V19H17.33V12.12Z"/><path class="c" d="M25.13,12C27,12,28,13.3,28,15.22a3.46,3.46,0,0,1-.07.76H23.53a2,2,0,0,0,2,1.95,2.88,2.88,0,0,0,1.6-.5l0.55,1a4.34,4.34,0,0,1-2.35.74A3.32,3.32,0,0,1,22,15.57,3.35,3.35,0,0,1,25.13,12Zm1.44,3c0-1.09-.46-1.75-1.4-1.75A1.74,1.74,0,0,0,23.52,15h3.05Z"/><path class="c" d="M29.58,17.18a3.06,3.06,0,0,0,1.91.77,0.9,0.9,0,0,0,1.09-.83c0-.57-0.74-0.83-1.47-1.11-0.91-.34-1.93-0.85-1.93-2s1-2.06,2.51-2.06a3.7,3.7,0,0,1,2.28.83l-0.74,1a2.56,2.56,0,0,0-1.51-.59,0.83,0.83,0,0,0-1,.76c0,0.53.69,0.76,1.43,1,0.94,0.35,2,.8,2,2.09s-0.94,2.13-2.68,2.13a4.36,4.36,0,0,1-2.61-1Z"/><path class="c" d="M38.26,12c1.86,0,2.84,1.34,2.84,3.26A3.46,3.46,0,0,1,41,16H36.66a2,2,0,0,0,2,1.95,2.88,2.88,0,0,0,1.6-.5l0.55,1a4.34,4.34,0,0,1-2.35.74,3.32,3.32,0,0,1-3.39-3.6A3.35,3.35,0,0,1,38.26,12Zm1.44,3c0-1.09-.46-1.75-1.4-1.75A1.74,1.74,0,0,0,36.65,15H39.7Z"/><path class="c" d="M42.65,13.4h-1v-1.2l1.06-.07,0.2-1.88h1.34v1.88H46V13.4H44.28v3.28a1,1,0,0,0,1,1.2A2,2,0,0,0,46,17.72l0.28,1.19a4.39,4.39,0,0,1-1.4.25c-1.6,0-2.19-1-2.19-2.49V13.4Z"/><path class="c" d="M51.25,17a1.09,1.09,0,1,1-1,1.09A1.05,1.05,0,0,1,51.25,17Z"/><path class="c" d="M54.68,17a1.09,1.09,0,1,1-1,1.09A1.05,1.05,0,0,1,54.68,17Z"/><path class="c" d="M58.11,17a1.09,1.09,0,1,1-1,1.09A1.05,1.05,0,0,1,58.11,17Z"/></svg>