<svg xmlns="http://www.w3.org/2000/svg" width="114" height="36" viewBox="0 0 114 36"><title>Menu_Layer_Disabled_L</title><path d="M78.5,35.5V.5H110A3.50424,3.50424,0,0,1,113.5,4V32a3.50424,3.50424,0,0,1-3.5,3.5Z" fill="#333"/><path d="M110,1a3.00339,3.00339,0,0,1,3,3V32a3.00339,3.00339,0,0,1-3,3H79V1h31m0-1H78V36h32a4.01176,4.01176,0,0,0,4-4V4a4.01176,4.01176,0,0,0-4-4Z"/><path d="M4,35.5A3.50424,3.50424,0,0,1,.5,32V4A3.50424,3.50424,0,0,1,4,.5H78.5v35Z" fill="#333"/><path d="M78,1V35H4a3.0034,3.0034,0,0,1-3-3V4A3.0034,3.0034,0,0,1,4,1H78m1-1H4A4,4,0,0,0,0,4V32a4,4,0,0,0,4,4H79V0Z"/><path d="M19.2832,12.02734V22.89453h5.31739v1.916h-7.584V12.02734Z" fill="#ccc"/><path d="M27.10449,22.23047c0-2.05274,1.7002-3.127,5.64942-3.55762-.03907-1.0166-.4502-1.876-1.75977-1.876a5.47048,5.47048,0,0,0-2.69726.9375l-.82129-1.50489a7.50446,7.50446,0,0,1,3.94921-1.251c2.38379,0,3.57618,1.46679,3.57618,4.14453v5.6875H33.14453l-.15625-1.05567h-.07812a4.67217,4.67217,0,0,1-2.97168,1.29A2.68239,2.68239,0,0,1,27.10449,22.23047Zm5.64942,0V20.08008c-2.61914.332-3.4795,1.0166-3.4795,1.97461,0,.85937.58594,1.23144,1.3877,1.23144A3.05432,3.05432,0,0,0,32.75391,22.23047Z" fill="#ccc"/><path d="M38.07227,28.56348l.41015-1.75879a2.37063,2.37063,0,0,0,.68457.13672,2.011,2.011,0,0,0,1.915-1.64258l.17676-.60547-3.77246-9.48047h2.28613l1.66211,4.71094c.27344.84082.54688,1.79883.83984,2.69726h.07813c.23535-.8789.48926-1.83691.72363-2.69726l1.44629-4.71094h2.16992L43.21289,25.24023c-.80078,2.16993-1.79785,3.51856-3.88965,3.51856A3.735,3.735,0,0,1,38.07227,28.56348Z" fill="#ccc"/><path d="M48.59082,20.02148c0-3.127,2.16992-5.043,4.418-5.043,2.59961,0,3.96777,1.877,3.96777,4.55468a5.23369,5.23369,0,0,1-.09765,1.09375H50.78027a2.74717,2.74717,0,0,0,2.834,2.67871,4.0135,4.0135,0,0,0,2.22851-.7041l.76172,1.40821a6.05519,6.05519,0,0,1-3.2832,1.03515C50.66309,25.04492,48.59082,23.1875,48.59082,20.02148Zm4.47656-3.30273a2.40983,2.40983,0,0,0-2.30664,2.38477h4.26074C55.02148,17.61719,54.377,16.71875,53.06738,16.71875Z" fill="#ccc"/><path d="M61.96191,15.21289l.15625,1.70117h.07813a3.26039,3.26039,0,0,1,2.7168-1.93554,2.43875,2.43875,0,0,1,1.09472.19531l-.39062,1.95508a3.1408,3.1408,0,0,0-.99707-.15625c-.76172,0-1.68067.52734-2.26758,1.97461v5.86328H60.10547V15.21289Z" fill="#ccc"/><line x1="104" y1="17.5" x2="88" y2="17.5" fill="none" stroke="#000" stroke-miterlimit="10" stroke-width="3"/><line x1="104" y1="11.5" x2="88" y2="11.5" fill="none" stroke="#000" stroke-miterlimit="10" stroke-width="3"/><line x1="104" y1="23.5" x2="88" y2="23.5" fill="none" stroke="#000" stroke-miterlimit="10" stroke-width="3"/></svg>