<svg xmlns="http://www.w3.org/2000/svg" width="36" height="36" viewBox="0 0 36 36">
  <defs>
    <style>
      .a {
        fill: #333;
      }
    </style>
  </defs>
  <title>More_A_Disabled</title>
  <g>
    <rect class="a" x="0.5" y="0.5" width="35" height="35" rx="3.5" ry="3.5"/>
    <path d="M32,1a3.00337,3.00337,0,0,1,3,3V32a3.00337,3.00337,0,0,1-3,3H4a3.00337,3.00337,0,0,1-3-3V4A3.00337,3.00337,0,0,1,4,1H32m0-1H4A4,4,0,0,0,0,4V32a4,4,0,0,0,4,4H32a4.01175,4.01175,0,0,0,4-4V4a4.01175,4.01175,0,0,0-4-4Z"/>
  </g>
  <path d="M20.1,18a2.27318,2.27318,0,0,0-.56579-1.53421,2.363,2.363,0,0,0-3.06842,0,2.363,2.363,0,0,0,0,3.06842,2.363,2.363,0,0,0,3.06842,0A2.27318,2.27318,0,0,0,20.1,18Z"/>
  <path d="M12.1,18a2.27318,2.27318,0,0,0-.56579-1.53421,2.363,2.363,0,0,0-3.06842,0,2.363,2.363,0,0,0,0,3.06842,2.363,2.363,0,0,0,3.06842,0A2.27318,2.27318,0,0,0,12.1,18Z"/>
  <path d="M28.1,18a2.27318,2.27318,0,0,0-.56579-1.53421,2.363,2.363,0,0,0-3.06842,0,2.172,2.172,0,0,0,3.06842,3.06842A2.27318,2.27318,0,0,0,28.1,18Z"/>
</svg>
