<svg xmlns="http://www.w3.org/2000/svg" width="38" height="38" viewBox="0 0 38 38"><title>Mute_Active_A</title><rect x="0.5" y="0.5" width="37" height="37" rx="3.5" ry="3.5" fill="#76839c"/><path d="M34,1a3.00342,3.00342,0,0,1,3,3V34a3.00342,3.00342,0,0,1-3,3H4a3.00342,3.00342,0,0,1-3-3V4A3.00342,3.00342,0,0,1,4,1H34m0-1H4A4.01179,4.01179,0,0,0,0,4V34a4.01179,4.01179,0,0,0,4,4H34a4.01179,4.01179,0,0,0,4-4V4a4.01179,4.01179,0,0,0-4-4Z" fill="#1a1a1a"/><path d="M15.69268,28.43754l-5-5h-5v-8h5l5-5h1v18Zm6-3-2-2,4-4-4-4,2-2,4,4,4-4,2,2-4,4,4,4-2,2-4-4Z" fill="#e6e6e6"/></svg>