<svg xmlns="http://www.w3.org/2000/svg" width="38" height="38" viewBox="0 0 38 38">
  <defs>
    <style>
      .a {
        fill: gray;
      }

      .b {
        fill: #999;
      }

      .c {
        fill: none;
        stroke: #e6e6e6;
        stroke-miterlimit: 10;
        stroke-width: 3px;
      }
    </style>
  </defs>
  <title>Preset_Up_Active</title>
  <g>
    <path class="a" d="M.5,37.5V5A4.50491,4.50491,0,0,1,5,.5H33A4.50492,4.50492,0,0,1,37.5,5V37.5Z"/>
    <path class="b" d="M33,1a4.00451,4.00451,0,0,1,4,4V37H1V5A4.00451,4.00451,0,0,1,5,1H33m0-1H5A5.0147,5.0147,0,0,0,0,5V38H38V5a5.0147,5.0147,0,0,0-5-5Z"/>
  </g>
  <polyline class="c" points="27 23 19 15 11 23"/>
</svg>
