<svg xmlns="http://www.w3.org/2000/svg" width="52" height="32" viewBox="0 0 52 32"><title>Redo_Active</title><path d="M1.5,30.75v-29H47a3.50424,3.50424,0,0,1,3.5,3.5v22a3.50424,3.50424,0,0,1-3.5,3.5Z" fill="gray"/><path d="M47,2.25a3.00338,3.00338,0,0,1,3,3v22a3.00338,3.00338,0,0,1-3,3H2v-28H47m0-1H1v30H47a4.01175,4.01175,0,0,0,4-4v-22a4.01175,4.01175,0,0,0-4-4Z" fill="#999"/><path d="M47,1.25a4.01175,4.01175,0,0,1,4,4v22a4.01175,4.01175,0,0,1-4,4H1v-30H47m0-1H0v32H47a5.00566,5.00566,0,0,0,5-5v-22a5.00566,5.00566,0,0,0-5-5Z"/><path d="M26.85327,23.5H23.34148C19.54524,23.5,17,20.96154,17,18s2.54524-5.5,6.34148-5.5H35.98159" fill="none" stroke="#e6e6e6" stroke-miterlimit="10" stroke-width="2.8"/><polyline points="31 18.5 37 12.5 31 7.5" fill="none" stroke="#e6e6e6" stroke-miterlimit="10" stroke-width="2.6"/></svg>