<svg xmlns="http://www.w3.org/2000/svg" width="38" height="38" viewBox="0 0 38 38"><title>Select_Active</title><rect x="0.5" y="0.5" width="37" height="37" rx="3.5" ry="3.5" fill="#76839c"/><path d="M34,1a3.00338,3.00338,0,0,1,3,3V34a3.00338,3.00338,0,0,1-3,3H4a3.00337,3.00337,0,0,1-3-3V4A3.00337,3.00337,0,0,1,4,1H34m0-1H4A4.01175,4.01175,0,0,0,0,4V34a4.01175,4.01175,0,0,0,4,4H34a4.01175,4.01175,0,0,0,4-4V4a4.01175,4.01175,0,0,0-4-4Z" fill="#1a1a1a"/><path d="M5.80664,23.168l1.3291-1.543A5.08671,5.08671,0,0,0,10.459,23.07031c1.44629,0,2.22754-.64453,2.22754-1.64062,0-1.05664-.82031-1.38867-1.97363-1.877L8.95312,18.79a3.68474,3.68474,0,0,1-2.58007-3.40137c0-2.03222,1.79882-3.5957,4.30078-3.5957A5.64218,5.64218,0,0,1,14.60254,13.415l-1.15332,1.44629a4.168,4.168,0,0,0-2.77539-1.09473c-1.21192,0-2.01367.56738-2.01367,1.50488,0,.99707.97753,1.36914,2.0332,1.79883l1.73926.72266c1.50488.64551,2.58007,1.60351,2.58007,3.46,0,2.07227-1.71972,3.792-4.59277,3.792A6.61762,6.61762,0,0,1,5.80664,23.168Z" fill="#e6e6e6"/><path d="M17.00879,20.02148c0-3.127,2.16992-5.043,4.418-5.043,2.59961,0,3.96777,1.877,3.96777,4.55468a5.2329,5.2329,0,0,1-.09766,1.09375H19.19824a2.74716,2.74716,0,0,0,2.834,2.67871,4.01353,4.01353,0,0,0,2.22851-.7041l.76172,1.40821a6.05519,6.05519,0,0,1-3.2832,1.03515C19.08105,25.04492,17.00879,23.1875,17.00879,20.02148Zm4.47656-3.30273a2.40983,2.40983,0,0,0-2.30664,2.38477h4.26074C23.43945,17.61719,22.79492,16.71875,21.48535,16.71875Z" fill="#e6e6e6"/><path d="M28.03516,22.34766V11.01074h2.24707v11.4541c0,.54688.25488.74219.48925.74219a1.34567,1.34567,0,0,0,.35157-.03906l.293,1.68164a3.06854,3.06854,0,0,1-1.19238.19531C28.62109,25.04492,28.03516,24.00977,28.03516,22.34766Z" fill="#e6e6e6"/></svg>