<svg xmlns="http://www.w3.org/2000/svg" width="38" height="38" viewBox="0 0 38 38">
  <defs>
    <style>
      .a {
        fill: #4d4d4d;
      }

      .b {
        fill: #666;
      }

      .c {
        fill: #ccc;
      }
    </style>
  </defs>
  <title>Select_Enabled</title>
  <g>
    <rect class="a" x="0.5" y="0.5" width="37" height="37" rx="3.5" ry="3.5"/>
    <path class="b" d="M34,1a3.00338,3.00338,0,0,1,3,3V34a3.00338,3.00338,0,0,1-3,3H4a3.00337,3.00337,0,0,1-3-3V4A3.00337,3.00337,0,0,1,4,1H34m0-1H4A4,4,0,0,0,0,4V34a4,4,0,0,0,4,4H34a4,4,0,0,0,4-4V4a4,4,0,0,0-4-4Z"/>
  </g>
  <g>
    <path class="c" d="M7.525,23.49982l1.29588-1.53053a4.58535,4.58535,0,0,0,2.98868,1.29318c1.30092,0,2.0039-.57731,2.0039-1.46788,0-.94378-.73833-1.241-1.77563-1.67772l-1.63171-.78173a3.39905,3.39905,0,0,1-2.271-2.94118,3.55758,3.55758,0,0,1,3.86842-3.4215,5.36045,5.36045,0,0,1,3.58309,1.60643l-1.0873,1.34318a3.99138,3.99138,0,0,0-2.49579-1.18454,1.753,1.753,0,0,0-1.91442,1.552c0,.89056.98216,1.3757,1.93159,1.76024l1.56454.64378c1.35344.57731,2.42105,1.3533,2.42105,2.89339,0,1.85242-1.64737,3.44058-4.232,3.44058A6.08806,6.08806,0,0,1,7.525,23.49982Z"/>
    <path class="c" d="M17.16667,20.592c0-2.76108,2.0488-4.75447,4.064-4.75447,2.33139,0,3.76527,1.90969,3.76527,4.27321a4.04522,4.04522,0,0,1-.08762.9151H19.23259a2.58169,2.58169,0,0,0,2.54186,2.51756,3.928,3.928,0,0,0,2.10117-.57162l.93115,1.45678a6.62715,6.62715,0,0,1-3.29516.649A4.23587,4.23587,0,0,1,17.16667,20.592Zm5.97278-.80945A2.11845,2.11845,0,0,0,21.184,17.424a2.09489,2.09489,0,0,0-1.96854,2.35857Z"/>
    <path class="c" d="M27.0418,22.73184V13.02246h1.9541V22.8334c-.05.47656.17168.64648.37578.64648a4.88448,4.88448,0,0,0,.73714-.17253l.44921,1.55654a6.39161,6.39161,0,0,1-1.61291.21365C27.55156,25.07754,27.0418,24.17617,27.0418,22.73184Z"/>
  </g>
</svg>
