<svg xmlns="http://www.w3.org/2000/svg" width="38" height="38" viewBox="0 0 38 38"><title>Select_Disabled_B</title><rect x="0.5" y="0.5" width="37" height="37" rx="3.5" ry="3.5" fill="#333"/><path d="M34,1a3.00338,3.00338,0,0,1,3,3V34a3.00338,3.00338,0,0,1-3,3H4a3.00337,3.00337,0,0,1-3-3V4A3.00337,3.00337,0,0,1,4,1H34m0-1H4A4.01175,4.01175,0,0,0,0,4V34a4.01175,4.01175,0,0,0,4,4H34a4.01175,4.01175,0,0,0,4-4V4a4.01175,4.01175,0,0,0-4-4Z"/><rect x="12" y="6" width="20" height="26" fill="#4d4d4d"/><rect x="13" y="7" width="18" height="4"/><rect x="13" y="17" width="18" height="4"/><rect x="12.5" y="11.5" width="19" height="5" fill="#3e3e3e"/><path d="M31,12v4H13V12H31m1-1H12v6H32V11Z" fill="#666"/><rect x="13" y="27" width="18" height="4"/><rect x="13" y="22" width="18" height="4"/><polygon points="20.1 13.9 5.5 18.4 10.2 21.2 6 25.4 8.6 28 12.8 23.8 15.6 28.5 20.1 13.9" fill="#1a1a1a" stroke="#666" stroke-miterlimit="10"/></svg>