<svg xmlns="http://www.w3.org/2000/svg" width="70" height="95" viewBox="0 0 70 95">
  <defs>
    <style>
      .a {
        fill: #666;
      }

      .b {
        fill: #1a1a1a;
        stroke: #1a1a1a;
        stroke-miterlimit: 10;
        stroke-width: 0.3px;
      }
    </style>
  </defs>
  <title>Split_FX_A</title>
  <path class="a" d="M61,7,59,9l5,5H49.46973a8.52793,8.52793,0,0,0-7.71094,4.92383L13.52051,79.81348A5.5207,5.5207,0,0,1,8.53027,83H0v3H8.53027a8.52793,8.52793,0,0,0,7.71094-4.92383L44.47949,20.18652A5.5207,5.5207,0,0,1,49.46973,17H64l-5,5,2,2,8.5-8.49707Z"/>
  <g>
    <rect class="a" x="11" y="40" width="38" height="20" rx="4" ry="4"/>
    <path class="b" d="M29.33608,50.58454,26.92084,55.887h-2.326l3.473-6.08457-3.428-5.71743h2.522l2.13442,4.57187h.31907L31.74975,44.085h2.522l-3.428,5.71743L34.4035,55.887H31.99074l-2.46042-5.3025Z"/>
    <path class="b" d="M22.65554,44.085v1.79852H17.57607v3.22095h4.233v1.72411h-4.233V55.887h-2.2119V44.085Z"/>
    <polygon class="b" points="38.006 44.065 38.006 45.992 40.45 45.992 40.45 54.073 38.106 54.073 38.106 55.9 44.9 55.9 44.9 54.073 42.656 54.073 42.656 45.992 44.9 45.992 44.9 44.065 38.006 44.065"/>
  </g>
</svg>
