<svg xmlns="http://www.w3.org/2000/svg" width="38" height="38" viewBox="0 0 38 38"><title>Sync_Disabled</title><rect x="0.5" y="0.5" width="37" height="37" rx="3.5" ry="3.5" fill="#4d4d4d"/><path d="M34,1a3.00342,3.00342,0,0,1,3,3V34a3.00342,3.00342,0,0,1-3,3H4a3.00337,3.00337,0,0,1-3-3V4A3.00337,3.00337,0,0,1,4,1H34m0-1H4A4,4,0,0,0,0,4V34a4,4,0,0,0,4,4H34a4,4,0,0,0,4-4V4a4,4,0,0,0-4-4Z" fill="#666"/><rect x="6.5" y="11.5" width="25" height="15"/><path d="M31,12V26H7V12H31m1-1H6V27H32V11Z" fill="#333"/><path d="M30,13V25H8V13H30m1-1H7V26H31V12Z" fill="#ccc"/><rect x="9" y="17" width="13" height="6" fill="gray"/><rect x="15.99999" y="15.00007" width="12.99997" height="5.99994" fill="#b3b3b3"/><rect x="16.00002" y="21.00008" width="6.00001" height="1" fill="#4d4d4d"/><rect x="15" y="17" width="1" height="4.99999" fill="#4d4d4d"/><rect x="16" y="14" width="1" height="9.99998" fill="#fff"/><rect x="21" y="14" width="1" height="9.99998" fill="#fff"/></svg>