<svg xmlns="http://www.w3.org/2000/svg" width="30" height="30" viewBox="0 0 30 30"><title>Write_A_Active</title><rect x="0.5" y="0.5" width="29" height="29" rx="3.5" ry="3.5" fill="gray"/><path d="M26,1a3.00881,3.00881,0,0,1,3,3V26a3.00881,3.00881,0,0,1-3,3H4a3.00881,3.00881,0,0,1-3-3V4A3.00881,3.00881,0,0,1,4,1H26m0-1H4A4.00451,4.00451,0,0,0,0,4V26a4.00451,4.00451,0,0,0,4,4H26a4.00451,4.00451,0,0,0,4-4V4a4.00451,4.00451,0,0,0-4-4Z" fill="#999"/><path d="M12.25,9.25v8.5a3.00882,3.00882,0,0,0,3,3h5.5" fill="none" stroke="#e6e6e6" stroke-miterlimit="10" stroke-width="1.5"/><polyline points="7.75 13 12.25 8.5 16.75 13" fill="none" stroke="#e6e6e6" stroke-miterlimit="10" stroke-width="1.5"/></svg>