<svg viewBox="0 0 280 150" xmlns="http://www.w3.org/2000/svg"><path d="m0 0h280v150h-280z" fill="#4d4d4d"/><g fill="#e6e6e6"><path d="m180.627 18.52441h-2.25488v-.81441h5.48926v.81445h-2.26568v6.60055h-.9687z"/><path d="m185.59863 18.30371a.59963.59963 0 0 1 -1.19922 0 .59017.59017 0 0 1 .60547-.60449.5739.5739 0 0 1 .59375.60449zm-1.07812 6.82129v-5.3252h.96875v5.3252z"/><path d="m187.09473 21.53809c0-.68164-.02149-1.23145-.04395-1.73829h.86914l.04395.91309h.02246a2.09377 2.09377 0 0 1 1.89258-1.0332c1.28711 0 2.25488 1.08886 2.25488 2.706 0 1.91406-1.166 2.86035-2.41992 2.86035a1.86983 1.86983 0 0 1 -1.63965-.83593h-.02149v2.89355h-.958zm.958 1.41992a2.13949 2.13949 0 0 0 .04395.39551 1.49413 1.49413 0 0 0 1.45215 1.13378c1.02246 0 1.61719-.83691 1.61719-2.05761 0-1.06739-.56153-1.98047-1.585-1.98047a1.67436 1.67436 0 0 0 -1.52832 1.5957z"/><path d="m179.21875 31.80859a10.01719 10.01719 0 0 1 1.83789-.15332 3.03175 3.03175 0 0 1 2.14453.6045 1.84653 1.84653 0 0 1 .583 1.4082 1.94589 1.94589 0 0 1 -1.39648 1.89258v.0332a1.84841 1.84841 0 0 1 1.08886 1.49609 11.783 11.783 0 0 0 .57227 2.03516h-.99024a9.58046 9.58046 0 0 1 -.49511-1.77148c-.21973-1.02247-.61621-1.40821-1.48536-1.44141h-.90234v3.21289h-.957zm.957 3.37793h.97949c1.02344 0 1.67188-.56152 1.67188-1.4082 0-.957-.69238-1.375-1.70508-1.38672a3.93144 3.93144 0 0 0 -.94629.08887z"/><path d="m186.292 32.30371a.59963.59963 0 0 1 -1.19922 0 .59017.59017 0 0 1 .60547-.60449.5739.5739 0 0 1 .59375.60449zm-1.07813 6.82129v-5.3252h.96875v5.3252z"/><path d="m187.78711 35.24121c0-.5498-.01074-1.001-.044-1.44141h.8584l.05469.88086h.02246a1.95555 1.95555 0 0 1 1.75977-1.001c.7373 0 1.88183.43945 1.88183 2.26562v3.17972h-.96875v-3.06934c0-.85839-.31836-1.57324-1.23144-1.57324a1.37583 1.37583 0 0 0 -1.29883.99024 1.39526 1.39526 0 0 0 -.06543.45117v3.20117h-.96875z"/><path d="m198.48047 33.7998c-.02149.38575-.04395.81446-.04395 1.46387v3.09082a3.06349 3.06349 0 0 1 -.75879 2.43164 2.82342 2.82342 0 0 1 -1.93652.63867 3.43944 3.43944 0 0 1 -1.77148-.44042l.24218-.73731a3.00782 3.00782 0 0 0 1.5625.418c.99024 0 1.71582-.5166 1.71582-1.85938v-.59375h-.02148a1.90028 1.90028 0 0 1 -1.69434.89063 2.38005 2.38005 0 0 1 -2.2666-2.5957 2.5557 2.5557 0 0 1 2.39844-2.82715 1.76976 1.76976 0 0 1 1.66113.92383h.02246l.04395-.80372zm-1.001 2.10157a1.3761 1.3761 0 0 0 -.05469-.43946 1.39539 1.39539 0 0 0 -1.35351-1.02343c-.92383 0-1.584.78125-1.584 2.01269 0 1.0459.52735 1.915 1.57325 1.915a1.415 1.415 0 0 0 1.34179-.99023 1.69741 1.69741 0 0 0 .07715-.51758z"/><path d="m179.08691 51.959a3.39256 3.39256 0 0 0 1.71582.48438c.9795 0 1.55176-.51758 1.55176-1.26563 0-.69335-.39648-1.08886-1.39746-1.47461-1.21-.42871-1.958-1.05566-1.958-2.10058a2.135 2.135 0 0 1 2.39844-2.01367 3.362 3.362 0 0 1 1.63867.36328l-.26367.78125a2.94417 2.94417 0 0 0 -1.4082-.35254c-1.01172 0-1.39746.60547-1.39746 1.11133 0 .69336.45117 1.03418 1.47461 1.43066 1.2539.4834 1.89257 1.08887 1.89257 2.17774 0 1.14453-.84765 2.13476-2.59668 2.13476a3.82846 3.82846 0 0 1 -1.89257-.47363z"/><path d="m184.6084 45.31348h.96875v7.81152h-.96875z"/><path d="m187.74316 50.63867a1.70651 1.70651 0 0 0 1.82715 1.84863 3.49611 3.49611 0 0 0 1.47364-.27539l.165.69336a4.32289 4.32289 0 0 1 -1.77148.33008 2.47285 2.47285 0 0 1 -2.61816-2.68457 2.5846 2.5846 0 0 1 2.49707-2.87109 2.256 2.256 0 0 1 2.20117 2.50781 3.688 3.688 0 0 1 -.0332.45117zm2.83887-.69336a1.37839 1.37839 0 0 0 -1.3418-1.57324 1.60462 1.60462 0 0 0 -1.48535 1.57324z"/><path d="m193.25391 50.63867a1.70625 1.70625 0 0 0 1.82617 1.84863 3.49776 3.49776 0 0 0 1.47461-.27539l.165.69336a4.32294 4.32294 0 0 1 -1.77149.33008 2.47285 2.47285 0 0 1 -2.61816-2.68457 2.5846 2.5846 0 0 1 2.49707-2.87109 2.256 2.256 0 0 1 2.20117 2.50781 3.688 3.688 0 0 1 -.0332.45117zm2.83886-.69336a1.37839 1.37839 0 0 0 -1.34179-1.57324 1.60462 1.60462 0 0 0 -1.48536 1.57324z"/><path d="m198.60059 47.7998 1.04589 2.99317a13.75588 13.75588 0 0 1 .42872 1.36426h.0332c.12109-.44043.27441-.88086.45117-1.36426l1.03418-2.99317h1.01172l-2.08985 5.3252h-.9248l-2.02441-5.3252z"/><path d="m203.94629 50.63867a1.70651 1.70651 0 0 0 1.82715 1.84863 3.49606 3.49606 0 0 0 1.47363-.27539l.165.69336a4.32294 4.32294 0 0 1 -1.77149.33008 2.47285 2.47285 0 0 1 -2.61816-2.68457 2.5846 2.5846 0 0 1 2.49707-2.87109 2.256 2.256 0 0 1 2.20117 2.50781 3.688 3.688 0 0 1 -.0332.45117zm2.83887-.69336a1.37839 1.37839 0 0 0 -1.3418-1.57324 1.60462 1.60462 0 0 0 -1.48535 1.57324z"/></g><path d="m168.66667 134.10484h74.33333a6 6 0 0 0 6-6v-33.46734" fill="none" stroke="#000" stroke-miterlimit="10" stroke-width="2.6"/><path d="m246.09091 29.14881h5.81818v4.83543h-5.81818z"/><path d="m246.09091 39.52531h5.81818v3.58984h-5.81818z"/><path d="m252.63636 79.54h-7.27272v-36.06867a1 1 0 0 1 1-1h5.27272a1 1 0 0 1 1 1z" fill="#e6e6e6"/><path d="m251.63636 29.64349h-5.27272a1 1 0 0 1 -1-1v-1.51918h7.27272v1.51918a1 1 0 0 1 -1 1z" fill="#e6e6e6"/><rect fill="#e6e6e6" height="7.27273" rx="1" width="7.27273" x="245.36364" y="32.99451"/><path d="m243.54545 59.82531h10.90909v55.35102h-10.90909z" fill="#1a1a1a"/><path d="m251.182 25.475 1.454 1.649h-3.636-3.636l1.454-1.649z" fill="#999"/><path d="m253 21.28-1.818 4.195h-4.364l-1.818-4.195z" fill="#666"/><path d="m245 21.27986 3.46186-4.8626a.72727.72727 0 0 1 1.07628 0l3.46186 4.8626z" fill="#e6e6e6"/><path d="m242.4541 117.18945a1.556 1.556 0 0 1 -1.55371-1.55468v-51.37305a.82409.82409 0 0 1 .57617-.78809l3.49317-1.11133 4.02539-.18652 4.00976.18262 3.51856 1.11523a.82409.82409 0 0 1 .57617.78809v51.37305a1.556 1.556 0 0 1 -1.55371 1.55468z" fill="#1a1a1a"/><path d="m249 62.27588 4 .18164 3.49329 1.11157a.72738.72738 0 0 1 .50671.69312v51.37279a1.45447 1.45447 0 0 1 -1.45459 1.45435h-13.09082a1.45447 1.45447 0 0 1 -1.45459-1.45435v-51.37279a.72738.72738 0 0 1 .50671-.69312l3.49329-1.11157zm0-.2002-.009.00049-4 .18164-.02649.00122-.02515.00782-3.49336 1.11157a.92416.92416 0 0 0 -.646.88379v51.37279a1.65632 1.65632 0 0 0 1.65454 1.6543h13.09082a1.65632 1.65632 0 0 0 1.65464-1.6543v-51.37279a.92416.92416 0 0 0 -.646-.88379l-3.49329-1.11157-.02515-.00782-.02649-.00122-4-.18164z"/><path d="m245 117.08945h-2.54545a1.45454 1.45454 0 0 1 -1.45455-1.45454v-51.37275a.72726.72726 0 0 1 .50676-.693l3.49324-1.11152z" fill="#4d4d4d"/><path d="m253 117.089h-4-4v-54.631l4-.182 4 .182z" fill="#333"/><path d="m32.74822 114.17307 75.935.90136a.89631.89631 0 0 0 .8858-.90136v-2.93891a.89632.89632 0 0 0 -.8858-.90137l-75.935-4.50684a2.18 2.18 0 0 0 -1.454 1.46955v5.408a2.18 2.18 0 0 0 1.454 1.46957z" fill="#1a1a1a"/><path d="m33.6769 111.205 74.06369.96127c.47518 0 .864-.1602.864-.356v-.83378c0-.19579-.38879-.356-.864-.356l-74.06369-3.61469c-.47518 0-1.41815.38459-1.41815.58038v3.03844c0 .19579.94297.58038 1.41815.58038z" fill="#f2f2f2"/><path d="m85.97224 130.10484h80.79376l-5.73544-20.91584c-.76679-2.79635-3.74769-4.77914-7.18488-4.77914h-67.87344z" stroke="#000" stroke-miterlimit="10" stroke-width=".2"/><path d="m88.63375 130.10484h74l-5.25312-19.34992c-.70231-2.587-3.43256-4.42133-6.58073-4.42133h-62.16615z" fill="#1a1a1a"/><rect fill="#1a1a1a" height="8" rx="2" stroke="#000" stroke-miterlimit="10" stroke-width=".2" transform="matrix(-1 0 0 -1 194.89554 268.20968)" width="150" x="22.44777" y="130.10484"/><path d="m241 22.50491h-38.25" fill="none" stroke="#e6e6e6" stroke-miterlimit="10" stroke-width=".7"/><path d="m241 36.50491h-38.25" fill="none" stroke="#e6e6e6" stroke-miterlimit="10" stroke-width=".7"/><path d="m241 50.50491h-28.36426" fill="none" stroke="#e6e6e6" stroke-miterlimit="10" stroke-width=".7"/></svg>