<svg xmlns="http://www.w3.org/2000/svg" xmlns:xlink="http://www.w3.org/1999/xlink" viewBox="0 0 290 104"><defs><radialGradient id="a" cx="168.97834" cy="27.09135" r="11.62417" gradientTransform="translate(8.03575 50.66271) scale(0.97297)" gradientUnits="userSpaceOnUse"><stop offset="0" stop-color="#737373"/><stop offset="0.37995" stop-color="#505050"/><stop offset="0.7527" stop-color="#323232"/><stop offset="0.86603" stop-color="#212121"/><stop offset="1" stop-color="#121212"/></radialGradient></defs><title>front-l</title><rect width="290" height="104" fill="#ccc"/><path d="M238.61523,39.69727a3.17664,3.17664,0,0,1-2.28857-.9502,2.68817,2.68817,0,0,1-.76953-1.97949l.70361-18.0166a2.95,2.95,0,0,1,3.05811-2.72559h11.37842a2.9511,2.9511,0,0,1,3.05859,2.72559l.70361,18.0166a2.68817,2.68817,0,0,1-.76953,1.97949,3.18166,3.18166,0,0,1-2.28906.9502Z"/><path d="M250.69742,16.4a2.58747,2.58747,0,0,1,2.68393,2.3653l.70363,18.01642a2.567,2.567,0,0,1-2.68393,2.54022H238.61543a2.567,2.567,0,0,1-2.68394-2.54022l.70363-18.01642A2.58748,2.58748,0,0,1,239.31906,16.4h11.37836m0-.75H239.31906a3.32425,3.32425,0,0,0-3.43336,3.086l-.70365,18.01642a3.06156,3.06156,0,0,0,.87438,2.2547,3.55679,3.55679,0,0,0,2.559,1.06482h12.78562a3.55684,3.55684,0,0,0,2.559-1.06482,3.06163,3.06163,0,0,0,.87437-2.2547L254.13078,18.736a3.32427,3.32427,0,0,0-3.43336-3.086Z"/><path d="M183.75,39.69727a3.18166,3.18166,0,0,1-2.28906-.9502,2.68817,2.68817,0,0,1-.76953-1.97949L181.395,18.751a2.95045,2.95045,0,0,1,3.05859-2.72559h11.37793a2.95047,2.95047,0,0,1,3.0586,2.72559l.70361,18.0166a2.68817,2.68817,0,0,1-.76953,1.97949,3.18168,3.18168,0,0,1-2.28906.9502Z"/><path d="M195.83176,16.4a2.58748,2.58748,0,0,1,2.68394,2.3653l.70363,18.01642a2.567,2.567,0,0,1-2.68394,2.54022H183.74977a2.567,2.567,0,0,1-2.68393-2.54022l.70363-18.01642A2.58747,2.58747,0,0,1,184.4534,16.4h11.37836m0-.75H184.4534A3.32428,3.32428,0,0,0,181.02,18.736l-.70362,18.01642a3.06159,3.06159,0,0,0,.87437,2.2547,3.55684,3.55684,0,0,0,2.559,1.06482h12.78562a3.55681,3.55681,0,0,0,2.559-1.06482,3.06156,3.06156,0,0,0,.87438-2.2547L199.26512,18.736a3.32425,3.32425,0,0,0-3.43336-3.086Z"/><path d="M152.96191,39.69727a3.18168,3.18168,0,0,1-2.28906-.9502,2.68817,2.68817,0,0,1-.76953-1.97949l.70361-18.0166a2.9511,2.9511,0,0,1,3.0586-2.72559H165.044a2.95,2.95,0,0,1,3.0581,2.72559l.7041,18.0166a2.68817,2.68817,0,0,1-.76953,1.97949,3.18249,3.18249,0,0,1-2.28906.9502Z"/><path d="M165.04384,16.4a2.58748,2.58748,0,0,1,2.68394,2.3653l.70363,18.01642a2.567,2.567,0,0,1-2.68394,2.54022H152.96185a2.567,2.567,0,0,1-2.68394-2.54022l.70363-18.01642A2.58748,2.58748,0,0,1,153.66548,16.4h11.37836m0-.75H153.66548a3.32425,3.32425,0,0,0-3.43336,3.086l-.70365,18.01642a3.06173,3.06173,0,0,0,.87439,2.2547,3.55684,3.55684,0,0,0,2.559,1.06482h12.78562a3.55684,3.55684,0,0,0,2.559-1.06482,3.06169,3.06169,0,0,0,.87439-2.25464L168.4772,18.736a3.32425,3.32425,0,0,0-3.43336-3.086Z"/><path d="M122.17383,39.69727a3.18164,3.18164,0,0,1-2.28906-.9502,2.68769,2.68769,0,0,1-.76905-1.97949l.70362-18.0166a2.95,2.95,0,0,1,3.0581-2.72559h11.37842a2.9511,2.9511,0,0,1,3.05859,2.72559l.70362,18.0166a2.68817,2.68817,0,0,1-.76953,1.97949,3.18168,3.18168,0,0,1-2.28907.9502Z"/><path d="M134.25592,16.4a2.58747,2.58747,0,0,1,2.68393,2.3653l.70363,18.01642a2.567,2.567,0,0,1-2.68393,2.54022H122.17393A2.567,2.567,0,0,1,119.49,36.78174l.70363-18.01642A2.58747,2.58747,0,0,1,122.87755,16.4h11.37837m0-.75H122.87755a3.32426,3.32426,0,0,0-3.43336,3.086l-.70363,18.01642a3.06156,3.06156,0,0,0,.87438,2.2547,3.55679,3.55679,0,0,0,2.559,1.06482h12.78562a3.55684,3.55684,0,0,0,2.559-1.06482,3.06159,3.06159,0,0,0,.87437-2.2547L137.68929,18.736a3.32428,3.32428,0,0,0-3.43337-3.086Z"/><path d="M67.30811,39.69727a3.17665,3.17665,0,0,1-2.28858-.9502A2.68817,2.68817,0,0,1,64.25,36.76758l.70361-18.0166a2.95,2.95,0,0,1,3.05811-2.72559H79.39014A2.9511,2.9511,0,0,1,82.44873,18.751l.70361,18.0166a2.68817,2.68817,0,0,1-.76953,1.97949,3.18166,3.18166,0,0,1-2.28906.9502Z"/><path d="M79.39027,16.4a2.58747,2.58747,0,0,1,2.68393,2.3653l.70363,18.01642A2.567,2.567,0,0,1,80.09389,39.322H67.30827a2.567,2.567,0,0,1-2.68393-2.54022L65.328,18.76532A2.58748,2.58748,0,0,1,68.0119,16.4H79.39027m0-.75H68.0119a3.32428,3.32428,0,0,0-3.43337,3.086l-.70362,18.01642a3.0616,3.0616,0,0,0,.87438,2.2547,3.55678,3.55678,0,0,0,2.559,1.06482H80.09389a3.55679,3.55679,0,0,0,2.559-1.06482,3.06156,3.06156,0,0,0,.87438-2.2547L82.82363,18.736a3.32426,3.32426,0,0,0-3.43336-3.086Z"/><path d="M35.33643,39.69727a3.18168,3.18168,0,0,1-2.28907-.9502,2.68817,2.68817,0,0,1-.76953-1.97949l.70362-18.0166A2.95045,2.95045,0,0,1,36.04,16.02539H47.418A2.95045,2.95045,0,0,1,50.47656,18.751l.70362,18.0166a2.68818,2.68818,0,0,1-.76954,1.97949,3.18164,3.18164,0,0,1-2.28906.9502Z"/><path d="M47.41819,16.4a2.58748,2.58748,0,0,1,2.68394,2.3653l.70363,18.01642A2.567,2.567,0,0,1,48.12182,39.322H35.3362a2.567,2.567,0,0,1-2.68394-2.54022l.70363-18.01642A2.58748,2.58748,0,0,1,36.03983,16.4H47.41819m0-.75H36.03983a3.32427,3.32427,0,0,0-3.43337,3.086l-.70363,18.01642a3.06161,3.06161,0,0,0,.87439,2.2547,3.5568,3.5568,0,0,0,2.559,1.06482H48.12182a3.5568,3.5568,0,0,0,2.559-1.06482,3.06157,3.06157,0,0,0,.87439-2.25464L50.85156,18.736a3.32427,3.32427,0,0,0-3.43337-3.086Z"/><path d="M16.48975,97.97461a2.74613,2.74613,0,0,1-2.74317-2.74316V58.8125a2.73694,2.73694,0,0,1,.78955-1.91016V42.65039l-.83252-7.61133h.09864a2.3538,2.3538,0,0,1-.05567-.50879V31.69238A2.44532,2.44532,0,0,1,16.18945,29.25H41.13721a2.44411,2.44411,0,0,1,2.06836,1.14355A2.44408,2.44408,0,0,1,45.27393,29.25H70.22168a2.44387,2.44387,0,0,1,2.06787,1.14355A2.44409,2.44409,0,0,1,74.35791,29.25H99.30566a2.44408,2.44408,0,0,1,2.06836,1.14355A2.4439,2.4439,0,0,1,103.44189,29.25h24.94776a2.44409,2.44409,0,0,1,2.06836,1.14355A2.44408,2.44408,0,0,1,132.52637,29.25h24.94726a2.44408,2.44408,0,0,1,2.06836,1.14355A2.44409,2.44409,0,0,1,161.61035,29.25h24.94776a2.4439,2.4439,0,0,1,2.06787,1.14355A2.44408,2.44408,0,0,1,190.69434,29.25h24.94775a2.44409,2.44409,0,0,1,2.06836,1.14355A2.44387,2.44387,0,0,1,219.77832,29.25h24.94775a2.44408,2.44408,0,0,1,2.06836,1.14355A2.44411,2.44411,0,0,1,248.86279,29.25h24.94776a2.44532,2.44532,0,0,1,2.44287,2.44238v2.83789a2.3538,2.3538,0,0,1-.05567.50879h.09864l-.79541,7.29785.00195,13.73145h.75049V97.97461Z"/><path d="M273.81036,29.62457a2.06815,2.06815,0,0,1,2.06818,2.06818v2.83771a2.04828,2.04828,0,0,1-.20544.884h.20544l-.75073,6.881v14.1482h.75073V97.6H16.48975a2.37525,2.37525,0,0,1-2.36829-2.36829V58.812a2.35513,2.35513,0,0,1,.78943-1.75006V42.65021l-.78943-7.23572h.20543a2.0487,2.0487,0,0,1-.20543-.884V31.69275a2.06816,2.06816,0,0,1,2.06818-2.06818H41.13739a2.06815,2.06815,0,0,1,2.06818,2.06818,2.06815,2.06815,0,0,1,2.06818-2.06818H70.2215a2.06812,2.06812,0,0,1,2.06818,2.06818,2.06816,2.06816,0,0,1,2.06821-2.06818H99.30568a2.06816,2.06816,0,0,1,2.06818,2.06818,2.06814,2.06814,0,0,1,2.06814-2.06818h24.94779a2.06815,2.06815,0,0,1,2.06817,2.06818,2.06815,2.06815,0,0,1,2.06815-2.06818h24.94778a2.06815,2.06815,0,0,1,2.06815,2.06818,2.06815,2.06815,0,0,1,2.06817-2.06818H186.558a2.06814,2.06814,0,0,1,2.06814,2.06818,2.06816,2.06816,0,0,1,2.06818-2.06818h24.94779a2.06817,2.06817,0,0,1,2.06822,2.06818,2.06811,2.06811,0,0,1,2.06817-2.06818h24.94776a2.06815,2.06815,0,0,1,2.06817,2.06818,2.06816,2.06816,0,0,1,2.06818-2.06818h24.94775m0-.75H248.86261a2.811,2.811,0,0,0-2.06818.90576,2.81092,2.81092,0,0,0-2.06817-.90576H219.7785a2.811,2.811,0,0,0-2.06819.90576,2.811,2.811,0,0,0-2.0682-.90576H190.69432a2.811,2.811,0,0,0-2.06818.90576,2.81087,2.81087,0,0,0-2.06814-.90576H161.61021a2.811,2.811,0,0,0-2.06817.90576,2.81088,2.81088,0,0,0-2.06815-.90576H132.52611a2.81088,2.81088,0,0,0-2.06815.90576,2.811,2.811,0,0,0-2.06817-.90576H103.442a2.81089,2.81089,0,0,0-2.06814.90576,2.81093,2.81093,0,0,0-2.06818-.90576H74.35789a2.811,2.811,0,0,0-2.0682.90576,2.811,2.811,0,0,0-2.06819-.90576H45.27375a2.811,2.811,0,0,0-2.06818.90576,2.81093,2.81093,0,0,0-2.06818-.90576H16.18964a2.82136,2.82136,0,0,0-2.81818,2.81818v2.83771q0,.06711.00331.134h-.08959l.09071.83136.785,7.19513v14.0639a3.10794,3.10794,0,0,0-.78943,2.05713V95.23169A3.12183,3.12183,0,0,0,16.48975,98.35H276.62854V55.69373h-.75073V42.3363l.7463-6.84045.0907-.83136h-.08957q.0033-.06693.0033-.134V31.69275a2.82136,2.82136,0,0,0-2.81818-2.81818Z"/><path d="M251.401,39.322H238.61543a2.567,2.567,0,0,1-2.68394-2.5402l.70363-18.01642A2.5875,2.5875,0,0,1,239.31906,16.4h11.37836a2.5875,2.5875,0,0,1,2.68393,2.36534l.70363,18.01642A2.567,2.567,0,0,1,251.401,39.322Z" fill="#4d4d4d"/><path d="M239.97867,16.316H250.0378a2.33347,2.33347,0,0,1,2.37276,2.20046l.62205,16.76058a2.32545,2.32545,0,0,1-2.37276,2.36314H239.35662a2.32544,2.32544,0,0,1-2.37275-2.36314l.622-16.76058A2.33347,2.33347,0,0,1,239.97867,16.316Z" fill="#333"/><path d="M240.63829,16.23191h8.7399a2.0852,2.0852,0,0,1,2.06157,2.03559l.54047,15.50474a2.0893,2.0893,0,0,1-2.06158,2.18607h-9.82083a2.0893,2.0893,0,0,1-2.06158-2.18607l.54047-15.50474A2.0852,2.0852,0,0,1,240.63829,16.23191Z" fill="#1a1a1a"/><path d="M249.17746,34.27649H240.839a1.8608,1.8608,0,0,1-1.75039-2.009l.45889-14.24889a1.84487,1.84487,0,0,1,1.75039-1.87072h7.42067a1.84489,1.84489,0,0,1,1.7504,1.87072l.45888,14.24889A1.8608,1.8608,0,0,1,249.17746,34.27649Z"/><path d="M196.53539,39.322H183.74977a2.567,2.567,0,0,1-2.68394-2.5402l.70363-18.01642A2.58751,2.58751,0,0,1,184.4534,16.4h11.37836a2.58751,2.58751,0,0,1,2.68394,2.36534l.70363,18.01642A2.567,2.567,0,0,1,196.53539,39.322Z" fill="#4d4d4d"/><path d="M185.113,16.316h10.05913a2.33346,2.33346,0,0,1,2.37275,2.20046L198.167,35.277a2.32544,2.32544,0,0,1-2.37276,2.36314H184.491a2.32545,2.32545,0,0,1-2.37276-2.36314l.62205-16.76058A2.33346,2.33346,0,0,1,185.113,16.316Z" fill="#333"/><path d="M185.77263,16.23191h8.7399a2.08521,2.08521,0,0,1,2.06158,2.03559l.54047,15.50474a2.08931,2.08931,0,0,1-2.06158,2.18607h-9.82084a2.0893,2.0893,0,0,1-2.06157-2.18607l.54047-15.50474A2.0852,2.0852,0,0,1,185.77263,16.23191Z" fill="#1a1a1a"/><path d="M194.3118,34.27649h-8.33844a1.86082,1.86082,0,0,1-1.7504-2.009l.45889-14.24889a1.84488,1.84488,0,0,1,1.7504-1.87072h7.42067a1.84487,1.84487,0,0,1,1.75039,1.87072l.45889,14.24889A1.86082,1.86082,0,0,1,194.3118,34.27649Z"/><path d="M165.74747,39.322H152.96185a2.567,2.567,0,0,1-2.68394-2.5402l.70363-18.01642A2.58751,2.58751,0,0,1,153.66548,16.4h11.37836a2.58751,2.58751,0,0,1,2.68394,2.36534l.70363,18.01642A2.567,2.567,0,0,1,165.74747,39.322Z" fill="#4d4d4d"/><path d="M154.3251,16.316h10.05912a2.33346,2.33346,0,0,1,2.37276,2.20046L167.379,35.277a2.32545,2.32545,0,0,1-2.37276,2.36314H153.70305a2.32545,2.32545,0,0,1-2.37276-2.36314l.62205-16.76058A2.33346,2.33346,0,0,1,154.3251,16.316Z" fill="#333"/><path d="M154.98471,16.23191h8.7399a2.08521,2.08521,0,0,1,2.06158,2.03559l.54046,15.50474a2.0893,2.0893,0,0,1-2.06157,2.18607h-9.82084a2.0893,2.0893,0,0,1-2.06157-2.18607l.54046-15.50474A2.08521,2.08521,0,0,1,154.98471,16.23191Z" fill="#1a1a1a"/><path d="M163.52388,34.27649h-8.33844a1.86082,1.86082,0,0,1-1.7504-2.009l.45889-14.24889a1.84488,1.84488,0,0,1,1.7504-1.87072H163.065a1.84488,1.84488,0,0,1,1.7504,1.87072l.45889,14.24889A1.86082,1.86082,0,0,1,163.52388,34.27649Z"/><path d="M134.95955,39.322H122.17393a2.567,2.567,0,0,1-2.68394-2.5402l.70363-18.01642A2.58751,2.58751,0,0,1,122.87756,16.4h11.37836a2.58751,2.58751,0,0,1,2.68394,2.36534l.70363,18.01642A2.567,2.567,0,0,1,134.95955,39.322Z" fill="#4d4d4d"/><path d="M123.53717,16.316H133.5963a2.33346,2.33346,0,0,1,2.37276,2.20046l.622,16.76058a2.32545,2.32545,0,0,1-2.37276,2.36314H122.91513a2.32544,2.32544,0,0,1-2.37276-2.36314l.62205-16.76058A2.33346,2.33346,0,0,1,123.53717,16.316Z" fill="#333"/><path d="M124.19679,16.23191h8.7399a2.0852,2.0852,0,0,1,2.06157,2.03559l.54047,15.50474a2.0893,2.0893,0,0,1-2.06157,2.18607h-9.82084a2.08931,2.08931,0,0,1-2.06158-2.18607l.54047-15.50474A2.08521,2.08521,0,0,1,124.19679,16.23191Z" fill="#1a1a1a"/><path d="M132.736,34.27649h-8.33844a1.86082,1.86082,0,0,1-1.7504-2.009l.45889-14.24889a1.84487,1.84487,0,0,1,1.75039-1.87072h7.42067a1.84488,1.84488,0,0,1,1.7504,1.87072l.45889,14.24889A1.86082,1.86082,0,0,1,132.736,34.27649Z"/><path d="M80.09389,39.322H67.30828a2.567,2.567,0,0,1-2.68394-2.5402L65.328,18.76534A2.5875,2.5875,0,0,1,68.0119,16.4H79.39026a2.5875,2.5875,0,0,1,2.68394,2.36534l.70363,18.01642A2.567,2.567,0,0,1,80.09389,39.322Z" fill="#4d4d4d"/><path d="M68.67152,16.64929H78.73065a2.33348,2.33348,0,0,1,2.37276,2.20047l.622,16.76057a2.32543,2.32543,0,0,1-2.37275,2.36314H68.04947A2.42174,2.42174,0,0,1,65.67671,35.277l.62205-16.76058A2.33171,2.33171,0,0,1,68.67152,16.64929Z" fill="#333"/><path d="M69.33113,16.89858H78.071a2.0852,2.0852,0,0,1,2.06158,2.03559l.54047,15.50474A2.0893,2.0893,0,0,1,78.6115,36.625H68.79067c-1.16814,0-2.10322-.99155-2.06158-2.85274l.54047-15.50474A2.19689,2.19689,0,0,1,69.33113,16.89858Z" fill="#1a1a1a"/><path d="M77.87031,35.27649H69.53186c-.99181,0-1.78575-.91124-1.75039-3.009l.45888-14.24889a2.70107,2.70107,0,0,1,1.7504-.87072h7.42067a1.84487,1.84487,0,0,1,1.75039,1.87072l.45889,14.24889A1.8608,1.8608,0,0,1,77.87031,35.27649Z"/><path d="M48.12182,39.322H35.3362a2.567,2.567,0,0,1-2.68394-2.5402l.70363-18.01642A2.58751,2.58751,0,0,1,36.03983,16.4H47.41819a2.58751,2.58751,0,0,1,2.68394,2.36534l.70363,18.01642A2.567,2.567,0,0,1,48.12182,39.322Z" fill="#4d4d4d"/><path d="M36.69945,16.316H46.75858a2.33346,2.33346,0,0,1,2.37275,2.20046L49.75338,35.277a2.32544,2.32544,0,0,1-2.37276,2.36314H36.0774A2.32545,2.32545,0,0,1,33.70464,35.277l.62205-16.76058A2.33346,2.33346,0,0,1,36.69945,16.316Z" fill="#333"/><path d="M37.35906,16.23191H46.099a2.08521,2.08521,0,0,1,2.06158,2.03559L48.701,33.77224a2.08931,2.08931,0,0,1-2.06158,2.18607H36.81859A2.0893,2.0893,0,0,1,34.757,33.77224l.54047-15.50474A2.0852,2.0852,0,0,1,37.35906,16.23191Z" fill="#1a1a1a"/><path d="M45.89823,34.27649H37.55979a1.86082,1.86082,0,0,1-1.7504-2.009l.45889-14.24889a1.84488,1.84488,0,0,1,1.7504-1.87072h7.42067a1.84487,1.84487,0,0,1,1.75039,1.87072l.45889,14.24889A1.86082,1.86082,0,0,1,45.89823,34.27649Z"/><line x1="14.91089" y1="31.82829" x2="14.91089" y2="59.8914" fill="none" stroke="#000" stroke-miterlimit="10" stroke-width="1.84545"/><line x1="275.08911" y1="31.82829" x2="275.08911" y2="59.8914" fill="none" stroke="#000" stroke-miterlimit="10" stroke-width="1.84545"/><rect x="43.20558" y="35.53401" width="29.08412" height="24.46217" fill="#4d4d4d"/><rect x="14.91089" y="35.53401" width="28.29469" height="24.46217" fill="#4d4d4d"/><line x1="43.20558" y1="31.82829" x2="43.20558" y2="56.44373" fill="none" stroke="#000" stroke-miterlimit="10" stroke-width="1.84545"/><rect x="72.2897" y="35.53401" width="29.08412" height="24.46217" fill="#4d4d4d"/><rect x="101.37382" y="35.53401" width="29.08412" height="24.46217" fill="#4d4d4d"/><rect x="130.45794" y="35.53401" width="29.08412" height="24.46217" fill="#4d4d4d"/><rect x="159.54206" y="35.53401" width="29.08412" height="24.46217" fill="#4d4d4d"/><rect x="188.62618" y="35.53401" width="29.08412" height="24.46217" fill="#4d4d4d"/><rect x="217.7103" y="35.53401" width="29.08412" height="24.46217" fill="#4d4d4d"/><rect x="246.79442" y="35.53401" width="28.33342" height="24.46217" fill="#4d4d4d"/><path d="M16.48975,97.46094a2.23224,2.23224,0,0,1-2.23-2.22949V58.8125a2.23245,2.23245,0,0,1,2.23-2.23047H275.74023V97.46094Z" fill="gray"/><path d="M275.60172,56.72058V97.32312H16.48977a2.09383,2.09383,0,0,1-2.09147-2.09143V58.812a2.09383,2.09383,0,0,1,2.09147-2.09143h259.112m.27682-.27685H16.48977a2.37525,2.37525,0,0,0-2.3683,2.36828V95.23169A2.37522,2.37522,0,0,0,16.48977,97.6H275.87854V56.44373Z" fill="gray"/><rect x="63.30093" y="59.8914" width="154.2891" height="34.26092" rx="4.77273" ry="4.77273" fill="#1a1a1a" stroke="#000" stroke-miterlimit="10" stroke-width="0.3"/><circle cx="172.4471" cy="77.02186" r="11.89" fill="#3d3d3d"/><circle cx="172.4471" cy="77.02186" r="11.31" stroke="#000" stroke-miterlimit="10" stroke-width="0.5" fill="url(#a)"/><circle cx="172.4471" cy="77.02186" r="8" fill="#333" stroke="#424242" stroke-miterlimit="10" stroke-width="0.29"/><path d="M60.20775,82.81859c0,8.45871-4.31208,12.46055-12.14063,12.46055H18.76347c-1.82787,0-2.27371-1.11721-2.27371-2.459V61.14294c0-1.81838.69076-2.52827,2.66446-2.52827H33.071C48.05819,58.61467,60.20775,69.3877,60.20775,82.81859Z" fill="#999"/><path d="M32.77262,59.68142c14.29322,0,25.88016,10.3439,25.88016,23.23977,0,8.12177-4.1124,11.96421-11.57843,11.96421H19.12768c-1.74323,0-2.16842-1.07271-2.16842-2.361V62.109c0-1.746.65877-2.42756,2.54107-2.42756Z" fill="#a6a6a6"/><path d="M32.47429,60.74817c13.59919,0,24.62352,9.91477,24.62352,22.27563,0,7.78483-3.91272,11.46785-11.01623,11.46785H19.49189c-1.65858,0-2.06313-1.02821-2.06313-2.26306V63.075c0-1.67351.62678-2.32685,2.41769-2.32685Z" fill="#b3b3b3"/><path d="M32.176,61.81493c12.90518,0,23.36689,9.48562,23.36689,21.31148,0,7.44788-3.713,10.97149-10.454,10.97149H19.85609c-1.57393,0-1.95784-.9837-1.95784-2.16511V64.04106c0-1.60108.5948-2.22613,2.29431-2.22613Z" fill="#bfbfbf"/><path d="M53.98787,83.229c0,7.11093-3.51335,10.47513-9.89183,10.47513H20.2203c-1.48929,0-1.85255-.9392-1.85255-2.06716V65.00711c0-1.52865.56281-2.12543,2.17092-2.12543h11.339C44.08877,62.88168,53.98787,71.93817,53.98787,83.229Z" fill="#ccc"/><path d="M220.56347,82.81859c0,8.45871,4.31208,12.46055,12.14063,12.46055h43.17444V58.61467H247.70026C232.713,58.61467,220.56347,69.3877,220.56347,82.81859Z" fill="#999"/><path d="M222.11844,82.92119c0,8.12177,4.1124,11.96421,11.57843,11.96421h42.18167v-35.204H247.9986C233.70538,59.68142,222.11844,70.02532,222.11844,82.92119Z" fill="#a6a6a6"/><path d="M223.67341,83.0238c0,7.78483,3.91271,11.46785,11.01623,11.46785h41.1889V60.74817H248.29693C234.69774,60.74817,223.67341,70.66294,223.67341,83.0238Z" fill="#b3b3b3"/><path d="M225.22838,83.12641c0,7.44788,3.713,10.97149,10.454,10.97149h40.19613v-32.283H248.59527C235.69009,61.81493,225.22838,71.30055,225.22838,83.12641Z" fill="#bfbfbf"/><path d="M226.78335,83.229c0,7.11093,3.51335,10.47513,9.89182,10.47513h39.20337V62.88168H248.8936C236.68245,62.88168,226.78335,71.93817,226.78335,83.229Z" fill="#ccc"/><line x1="72.2897" y1="34.26248" x2="72.2897" y2="56.44373" fill="none" stroke="#000" stroke-miterlimit="10" stroke-width="1.84545"/><line x1="101.37382" y1="34.26248" x2="101.37382" y2="56.44373" fill="none" stroke="#000" stroke-miterlimit="10" stroke-width="1.84545"/><line x1="130.45794" y1="34.26248" x2="130.45794" y2="56.44373" fill="none" stroke="#000" stroke-miterlimit="10" stroke-width="1.84545"/><line x1="159.54206" y1="34.26248" x2="159.54206" y2="56.44373" fill="none" stroke="#000" stroke-miterlimit="10" stroke-width="1.84545"/><line x1="188.62618" y1="34.26248" x2="188.62618" y2="56.44373" fill="none" stroke="#000" stroke-miterlimit="10" stroke-width="1.84545"/><line x1="217.7103" y1="34.26248" x2="217.7103" y2="56.44373" fill="none" stroke="#000" stroke-miterlimit="10" stroke-width="1.84545"/><line x1="246.79442" y1="34.26248" x2="246.79442" y2="56.44373" fill="none" stroke="#000" stroke-miterlimit="10" stroke-width="1.84545"/><polygon points="72.29 35.414 43.206 35.414 43.995 42.65 71.5 42.65 72.29 35.414" fill="#1a1a1a"/><polygon points="101.374 35.414 72.29 35.414 73.079 42.65 100.584 42.65 101.374 35.414" fill="#1a1a1a"/><polygon points="130.458 35.414 101.374 35.414 102.163 42.65 129.669 42.65 130.458 35.414" fill="#1a1a1a"/><polygon points="159.542 35.414 130.458 35.414 131.247 42.65 158.753 42.65 159.542 35.414" fill="#1a1a1a"/><polygon points="188.626 35.414 159.542 35.414 160.331 42.65 187.837 42.65 188.626 35.414" fill="#1a1a1a"/><polygon points="217.71 35.414 188.626 35.414 189.416 42.65 216.921 42.65 217.71 35.414" fill="#1a1a1a"/><polygon points="246.794 35.414 217.71 35.414 218.5 42.65 246.005 42.65 246.794 35.414" fill="#1a1a1a"/><polygon points="275.879 35.414 246.794 35.414 247.584 42.65 275.089 42.65 275.879 35.414" fill="#1a1a1a"/><rect x="246.79442" y="29.62456" width="29.08412" height="6.97407" rx="2.06818" ry="2.06818" fill="#ccc" stroke="#000" stroke-miterlimit="10" stroke-width="0.18455"/><rect x="248.24836" y="30.74329" width="26.05132" height="3.94717" rx="1.97358" ry="1.97358" fill="#f2f2f2"/><rect x="188.62618" y="29.62456" width="29.08412" height="6.97407" rx="2.06818" ry="2.06818" fill="#ccc" stroke="#000" stroke-miterlimit="10" stroke-width="0.18455"/><rect x="190.08011" y="30.74329" width="26.05132" height="3.94717" rx="1.97358" ry="1.97358" fill="#f2f2f2"/><rect x="159.54206" y="29.62456" width="29.08412" height="6.97407" rx="2.06818" ry="2.06818" fill="#ccc" stroke="#000" stroke-miterlimit="10" stroke-width="0.18455"/><rect x="160.99599" y="30.74329" width="26.05132" height="3.94717" rx="1.97358" ry="1.97358" fill="#f2f2f2"/><rect x="130.45794" y="29.62456" width="29.08412" height="6.97407" rx="2.06818" ry="2.06818" fill="#ccc" stroke="#000" stroke-miterlimit="10" stroke-width="0.18455"/><rect x="131.91187" y="30.74329" width="26.05132" height="3.94717" rx="1.97358" ry="1.97358" fill="#f2f2f2"/><rect x="101.37382" y="29.62456" width="29.08412" height="6.97407" rx="2.06818" ry="2.06818" fill="#ccc" stroke="#000" stroke-miterlimit="10" stroke-width="0.18455"/><rect x="102.82775" y="30.74329" width="26.05132" height="3.94717" rx="1.97358" ry="1.97358" fill="#f2f2f2"/><rect x="72.2897" y="29.62456" width="29.08412" height="6.97407" rx="2.06818" ry="2.06818" fill="#ccc" stroke="#000" stroke-miterlimit="10" stroke-width="0.18455"/><rect x="73.74363" y="30.74329" width="26.05132" height="3.94717" rx="1.97358" ry="1.97358" fill="#f2f2f2"/><rect x="43.20558" y="29.62456" width="29.08412" height="6.97407" rx="2.06818" ry="2.06818" fill="#ccc" stroke="#000" stroke-miterlimit="10" stroke-width="0.18455"/><rect x="44.65951" y="30.74329" width="26.05132" height="3.94717" rx="1.97358" ry="1.97358" fill="#f2f2f2"/><polygon points="43.206 35.414 14.121 35.414 14.911 42.65 42.416 42.65 43.206 35.414" fill="#1a1a1a"/><path d="M179.46338,69.63037l-8.13734,6.696a1.12094,1.12094,0,0,0,.07912,1.65063l.315.315a1.12094,1.12094,0,0,0,1.65062.07912l6.69606-8.13731Z" fill="#ccc"/><rect x="14.12146" y="29.62456" width="29.08412" height="6.97407" rx="2.06818" ry="2.06818" fill="#ccc" stroke="#000" stroke-miterlimit="10" stroke-width="0.18455"/><rect x="15.57539" y="30.74329" width="26.05132" height="3.94717" rx="1.97358" ry="1.97358" fill="#f2f2f2"/><rect x="217.7103" y="29.62456" width="29.08412" height="6.97407" rx="2.06818" ry="2.06818" fill="#ccc" stroke="#000" stroke-miterlimit="10" stroke-width="0.18455"/><rect x="219.28917" y="30.74329" width="26.05132" height="3.94717" rx="1.97358" ry="1.97358" fill="#f2f2f2"/><circle cx="112.64523" cy="77.0746" r="10.5" stroke="#333" stroke-miterlimit="10" stroke-width="0.5"/><path d="M117.81118,69.06953l4.29991,7.44761a1,1,0,0,1,0,1l-4.29991,7.4476a1,1,0,0,1-.866.5H108.3453a1,1,0,0,1-.866-.5l-4.29992-7.44759a1,1,0,0,1,0-1l4.29992-7.4476a1,1,0,0,1,.866-.5h8.59986A1,1,0,0,1,117.81118,69.06953Z" fill="#333" stroke="#4d4d4d" stroke-miterlimit="10" stroke-width="0.5"/><circle cx="112.64523" cy="77.0746" r="6.125" stroke="#4d4d4d" stroke-miterlimit="10" stroke-width="0.5"/></svg>