<svg xmlns="http://www.w3.org/2000/svg" viewBox="0 0 646 184"><title>gfk_undo-b-web</title><line x1="251" y1="13" x2="276.59686" y2="13" fill="none" stroke="#6c718c" stroke-width="2"/><polygon points="273.823 17.067 289 13 273.823 8.933 273.823 17.067" fill="#6c718c"/><line x1="349" y1="13" x2="374.59692" y2="13" fill="none" stroke="#6c718c" stroke-width="2"/><polygon points="371.823 17.067 387 13 371.823 8.933 371.823 17.067" fill="#6c718c"/><line x1="447" y1="13" x2="472.59692" y2="13" fill="none" stroke="#6c718c" stroke-width="2"/><polygon points="469.823 17.067 485 13 469.823 8.933 469.823 17.067" fill="#6c718c"/><line x1="545" y1="13" x2="570.59692" y2="13" fill="none" stroke="#666" stroke-width="2"/><polygon points="567.823 17.067 583 13 567.823 8.933 567.823 17.067" fill="#666"/><line x1="545" y1="170" x2="570.59692" y2="170" fill="none" stroke="#6c718c" stroke-width="2"/><polygon points="567.823 174.067 583 170 567.823 165.933 567.823 174.067" fill="#6c718c"/><line x1="251" y1="57" x2="276.59686" y2="57" fill="none" stroke="#6c718c" stroke-width="2"/><polygon points="273.823 61.067 289 57 273.823 52.933 273.823 61.067" fill="#6c718c"/><line x1="251" y1="101" x2="276.59686" y2="101" fill="none" stroke="#6c718c" stroke-width="2"/><polygon points="273.823 105.067 289 101 273.823 96.933 273.823 105.067" fill="#6c718c"/><line x1="251" y1="155" x2="276.59686" y2="155" fill="none" stroke="#6c718c" stroke-width="2"/><polygon points="273.823 159.067 289 155 273.823 150.933 273.823 159.067" fill="#6c718c"/><line x1="349" y1="101" x2="374.59692" y2="101" fill="none" stroke="#6c718c" stroke-width="2"/><polygon points="371.823 105.067 387 101.003 371.823 96.933 371.823 105.067" fill="#6c718c"/><line x1="349" y1="155" x2="374.59692" y2="155" fill="none" stroke="#6c718c" stroke-width="2"/><polygon points="371.823 159.067 387 155 371.823 150.933 371.823 159.067" fill="#6c718c"/><line x1="447" y1="101" x2="472.59692" y2="101" fill="none" stroke="#4d4d4d" stroke-width="2"/><polygon points="469.823 105.067 485 101 469.823 96.933 469.823 105.067" fill="#4d4d4d"/><line x1="545" y1="101" x2="570.59692" y2="101" fill="none" stroke="#4d4d4d" stroke-width="2"/><polygon points="567.823 105.067 583 101 567.823 96.933 567.823 105.067" fill="#4d4d4d"/><line x1="545" y1="140" x2="570.59692" y2="140" fill="none" stroke="#4d4d4d" stroke-width="2"/><polygon points="567.823 144.067 583 140 567.823 135.933 567.823 144.067" fill="#4d4d4d"/><line x1="349" y1="57" x2="374.59692" y2="57" fill="none" stroke="#4d4d4d" stroke-width="2"/><polygon points="371.823 61.067 387 57 371.823 52.933 371.823 61.067" fill="#4d4d4d"/><line x1="447" y1="57" x2="472.59692" y2="57" fill="none" stroke="#4d4d4d" stroke-width="2"/><polygon points="469.823 61.067 485 57 469.823 52.933 469.823 61.067" fill="#4d4d4d"/><line x1="545" y1="57" x2="570.59692" y2="57" fill="none" stroke="#4d4d4d" stroke-width="2"/><polygon points="567.823 61.067 583 57 567.823 52.933 567.823 61.067" fill="#4d4d4d"/><path d="M3.56934,10.02734V8.84961l1.2539-.09473V7.292c0-1.88086.85547-3.05859,2.69824-3.05859a4.18377,4.18377,0,0,1,1.53809.30371l-.3418,1.19727a2.58891,2.58891,0,0,0-1.04492-.22852c-.874,0-1.292.6084-1.292,1.78613V8.75488h1.957v1.27246h-1.957v7.96H4.82324v-7.96Z" fill="#ccc"/><path d="M9.82031,5.84766a1.00933,1.00933,0,0,1,1.083-1.00684,1.00987,1.00987,0,0,1,1.083,1.00684,1.02083,1.02083,0,0,1-1.083,1.00683A1.02027,1.02027,0,0,1,9.82031,5.84766Zm1.84278,2.90722V17.9873H10.10547V8.75488Z" fill="#ccc"/><path d="M15.06445,8.75488l1.74707,5.24317c.2666.91211.57032,1.84277.85547,2.71679h.07617c.26563-.874.56934-1.80468.83594-2.71679l1.74707-5.24317h1.53906L18.59766,17.9873H16.77344L13.44922,8.75488Z" fill="#ccc"/><path d="M22.89258,13.38965c0-3.02051,2.03222-4.86328,4.14062-4.86328,2.35645,0,3.68555,1.6914,3.68555,4.332a6.03044,6.03044,0,0,1-.05664.89258H24.43066a3.06313,3.06313,0,0,0,3.07813,3.21093,4.17,4.17,0,0,0,2.29883-.72265l.55078,1.02636a5.501,5.501,0,0,1-3.04.94922C24.84863,18.21484,22.89258,16.41016,22.89258,13.38965Zm4.17871-3.62793c-1.292,0-2.46973,1.04492-2.65918,2.86816h4.93945C29.35156,10.76855,28.51562,9.76172,27.07129,9.76172Z" fill="#ccc"/><path d="M36.11621,13.38965c0-3.02051,2.03223-4.86328,4.14063-4.86328,2.35644,0,3.68554,1.6914,3.68554,4.332a6.03044,6.03044,0,0,1-.05664.89258H37.6543a3.06311,3.06311,0,0,0,3.07812,3.21093,4.17,4.17,0,0,0,2.29883-.72265l.55078,1.02636a5.501,5.501,0,0,1-3.04.94922C38.07227,18.21484,36.11621,16.41016,36.11621,13.38965Zm4.17871-3.62793c-1.292,0-2.46972,1.04492-2.65918,2.86816H42.5752C42.5752,10.76855,41.73926,9.76172,40.29492,9.76172Z" fill="#ccc"/><path d="M45.55859,13.38965c0-3.001,1.89942-4.86328,4.00879-4.86328a3.80221,3.80221,0,0,1,2.583,1.06445l-.07617-1.57715V4.46094h1.57715V17.9873h-1.292l-.13282-1.083h-.05664a4.164,4.164,0,0,1-2.793,1.31054C47.05957,18.21484,45.55859,16.46777,45.55859,13.38965Zm6.51563,2.24219v-4.8252A3.21027,3.21027,0,0,0,49.833,9.83789c-1.48145,0-2.65918,1.42481-2.65918,3.5332,0,2.20313.93066,3.53321,2.54492,3.53321A3.124,3.124,0,0,0,52.07422,15.63184Z" fill="#ccc"/><path d="M56.4834,5.84766a1.08589,1.08589,0,0,1,2.166,0,1.08589,1.08589,0,0,1-2.166,0Zm1.84277,2.90722V17.9873H56.76855V8.75488Z" fill="#ccc"/><path d="M61.708,15.1377V10.02734H60.34082V8.84961l1.44336-.09473.19043-2.584h1.31055v2.584h2.48828v1.27246H63.28516v5.12891c0,1.14063.36132,1.78613,1.4248,1.78613a3.34348,3.34348,0,0,0,1.04492-.24707l.30371,1.17774a5.6993,5.6993,0,0,1-1.71.34179C62.37305,18.21484,61.708,16.96191,61.708,15.1377Z" fill="#ccc"/><path d="M67.5791,5.84766a1.08589,1.08589,0,0,1,2.166,0,1.08589,1.08589,0,0,1-2.166,0Zm1.84278,2.90722V17.9873H67.86426V8.75488Z" fill="#ccc"/><path d="M73.83008,8.75488l.13281,1.33008h.05762a4.34964,4.34964,0,0,1,3.0957-1.55859c1.93848,0,2.81152,1.2539,2.81152,3.60937V17.9873H78.37012V12.34473c0-1.72852-.53125-2.46875-1.74707-2.46875-.9502,0-1.59571.49316-2.52735,1.42382v6.6875H72.53809V8.75488Z" fill="#ccc"/><path d="M82.22754,19.75391a2.668,2.668,0,0,1,1.34961-2.08985v-.07617a1.70212,1.70212,0,0,1-.81738-1.5,2.1637,2.1637,0,0,1,1.00683-1.71v-.07617a3.25919,3.25919,0,0,1,2.2793-5.77539,3.68984,3.68984,0,0,1,1.31152.22851h3.21V9.95117H88.668a2.6797,2.6797,0,0,1,.75976,1.90039,3.16818,3.16818,0,0,1-3.38183,3.21,3.22716,3.22716,0,0,1-1.38672-.32226,1.39933,1.39933,0,0,0-.58887,1.10156c0,.58887.37989,1.00684,1.63379,1.00684h1.78613c2.14649,0,3.2295.665,3.2295,2.20312,0,1.71-1.80469,3.19238-4.67383,3.19238C83.78613,22.24316,82.22754,21.34961,82.22754,19.75391Zm6.97266-.47461c0-.85547-.665-1.13965-1.86231-1.13965h-1.5957a4.4823,4.4823,0,0,1-1.19629-.15235,1.944,1.944,0,0,0-.9502,1.55762c0,.98828,1.00684,1.61524,2.67871,1.61524C88.041,21.16016,89.2002,20.24805,89.2002,19.2793Zm-1.19727-7.46582a1.96495,1.96495,0,1,0-3.91309,0,1.97034,1.97034,0,1,0,3.91309,0Z" fill="#ccc"/><path d="M95.28125,16.94238l.77832-1.04492a4.15,4.15,0,0,0,2.7168,1.10156c1.21582,0,1.82422-.6455,1.82422-1.44336,0-.95019-1.10254-1.36816-2.10938-1.748-1.31055-.47461-2.75391-1.10157-2.75391-2.65918,0-1.48145,1.17774-2.62207,3.17188-2.62207a4.61312,4.61312,0,0,1,2.86914,1.04492l-.74121.98828a3.43138,3.43138,0,0,0-2.1084-.81738c-1.15918,0-1.69141.62695-1.69141,1.33008,0,.874,1.00684,1.19726,2.05176,1.5957,1.33008.49414,2.81153,1.04492,2.81153,2.793,0,1.501-1.19629,2.7539-3.38086,2.7539A5.55713,5.55713,0,0,1,95.28125,16.94238Z" fill="#ccc"/><path d="M104.15332,15.1377V10.02734h-1.36719V8.84961l1.44336-.09473.19043-2.584h1.31055v2.584h2.48828v1.27246h-2.48828v5.12891c0,1.14063.36133,1.78613,1.4248,1.78613a3.34354,3.34354,0,0,0,1.04493-.24707l.30371,1.17774a5.69943,5.69943,0,0,1-1.71.34179C104.81836,18.21484,104.15332,16.96191,104.15332,15.1377Z" fill="#ccc"/><path d="M109.36035,13.38965c0-3.02051,2.03223-4.86328,4.1416-4.86328,2.35547,0,3.68555,1.6914,3.68555,4.332a6.0176,6.0176,0,0,1-.05762.89258h-6.23047a3.0618,3.0618,0,0,0,3.07715,3.21093,4.17,4.17,0,0,0,2.29883-.72265l.55078,1.02636a5.501,5.501,0,0,1-3.04.94922C111.31738,18.21484,109.36035,16.41016,109.36035,13.38965ZM113.54,9.76172c-1.292,0-2.46973,1.04492-2.66016,2.86816h4.93946C115.81934,10.76855,114.9834,9.76172,113.54,9.76172Z" fill="#ccc"/><path d="M120.75977,8.75488l.13281,1.06348h.05762a4.77341,4.77341,0,0,1,2.94433-1.292c2.374,0,3.64746,1.84277,3.64746,4.71191,0,3.13379-1.88086,4.97656-3.98926,4.97656a4.2811,4.2811,0,0,1-2.56543-1.06347l.03809,1.61523v3.11524h-1.55762V8.75488Zm5.167,4.4834c0-2.0332-.6836-3.40039-2.43164-3.40039a3.88919,3.88919,0,0,0-2.46973,1.25391v4.84375a3.65388,3.65388,0,0,0,2.26074.96875C124.80566,16.9043,125.92676,15.51758,125.92676,13.23828Z" fill="#ccc"/><path d="M128.9873,16.94238l.77832-1.04492a4.15,4.15,0,0,0,2.7168,1.10156c1.21582,0,1.82422-.6455,1.82422-1.44336,0-.95019-1.10254-1.36816-2.10937-1.748-1.31055-.47461-2.75391-1.10157-2.75391-2.65918,0-1.48145,1.17773-2.62207,3.17187-2.62207a4.61317,4.61317,0,0,1,2.86915,1.04492l-.74122.98828a3.43137,3.43137,0,0,0-2.10839-.81738c-1.15918,0-1.69141.62695-1.69141,1.33008,0,.874,1.00684,1.19726,2.05176,1.5957,1.33008.49414,2.81152,1.04492,2.81152,2.793,0,1.501-1.19629,2.7539-3.38086,2.7539A5.55717,5.55717,0,0,1,128.9873,16.94238Z" fill="#ccc"/><path d="M137.65039,10.17969a1.13338,1.13338,0,1,1,2.26074,0,1.13132,1.13132,0,1,1-2.26074,0Zm0,6.85742a1.13338,1.13338,0,1,1,2.26074,0,1.13132,1.13132,0,1,1-2.26074,0Z" fill="#ccc"/><path d="M4.4248,58.60547V52.75488H6.001v5.6416c0,1.7295.51367,2.46973,1.72949,2.46973.94922,0,1.61426-.47461,2.48828-1.55762V52.75488h1.55762V61.9873h-1.292L10.35156,60.544h-.05664a3.90256,3.90256,0,0,1-3.04,1.67089C5.29883,62.21484,4.4248,60.96191,4.4248,58.60547Z" fill="#ccc"/><path d="M16.18555,52.75488l.13281,1.33008H16.375a4.35355,4.35355,0,0,1,3.09668-1.55859c1.9375,0,2.81152,1.2539,2.81152,3.60937V61.9873H20.72559V56.34473c0-1.72852-.53223-2.46875-1.748-2.46875-.94922,0-1.5957.49316-2.52637,1.42382v6.6875H14.89355V52.75488Z" fill="#ccc"/><path d="M24.62207,57.38965c0-3.001,1.89941-4.86328,4.00781-4.86328a3.80457,3.80457,0,0,1,2.584,1.06445l-.07617-1.57715V48.46094h1.57714V61.9873h-1.292L31.29,60.9043h-.05762a4.1637,4.1637,0,0,1-2.792,1.31054C26.12207,62.21484,24.62207,60.46777,24.62207,57.38965Zm6.51563,2.24219v-4.8252a3.21194,3.21194,0,0,0-2.24122-.96875c-1.48242,0-2.66015,1.42481-2.66015,3.5332,0,2.20313.93066,3.53321,2.5459,3.53321A3.12555,3.12555,0,0,0,31.1377,59.63184Z" fill="#ccc"/><path d="M35.14746,57.38965c0-3.09668,2.01367-4.86328,4.27442-4.86328,2.25976,0,4.27441,1.7666,4.27441,4.86328,0,3.05859-2.01465,4.82519-4.27441,4.82519C37.16113,62.21484,35.14746,60.44824,35.14746,57.38965Zm6.93359,0c0-2.127-1.06347-3.57129-2.65917-3.57129-1.57715,0-2.66016,1.44434-2.66016,3.57129,0,2.10937,1.083,3.53418,2.66016,3.53418C41.01758,60.92383,42.08105,59.499,42.08105,57.38965Z" fill="#ccc"/><path d="M50.19531,59.1377V54.02734H48.82715V52.84961l1.44433-.09473.18946-2.584h1.31054v2.584h2.48926v1.27246H51.77148v5.12891c0,1.14063.36133,1.78613,1.42481,1.78613a3.34348,3.34348,0,0,0,1.04492-.24707l.30469,1.17774a5.71158,5.71158,0,0,1-1.71.34179C50.86035,62.21484,50.19531,60.96191,50.19531,59.1377Z" fill="#ccc"/><path d="M57.90918,48.46094v3.68554l-.05762,1.9004a4.41676,4.41676,0,0,1,3.07813-1.52051c1.9375,0,2.81152,1.2539,2.81152,3.60937V61.9873H62.18359V56.34473c0-1.72852-.53222-2.46875-1.748-2.46875-.9502,0-1.59571.49316-2.52637,1.42382v6.6875H56.35156V48.46094Z" fill="#ccc"/><path d="M67.97852,52.75488l.13281,1.67188H68.169A3.15617,3.15617,0,0,1,70.79,52.52637a2.29831,2.29831,0,0,1,.98828.19043L71.47363,54.085a2.56469,2.56469,0,0,0-.89258-.15234c-.77929,0-1.71.56933-2.33691,2.12793V61.9873H66.68652V52.75488Z" fill="#ccc"/><path d="M72.40625,57.38965c0-3.02051,2.03223-4.86328,4.1416-4.86328,2.35547,0,3.68555,1.6914,3.68555,4.332a6.0176,6.0176,0,0,1-.05762.89258H73.94531a3.0618,3.0618,0,0,0,3.07715,3.21093,4.17,4.17,0,0,0,2.29883-.72265l.55078,1.02636a5.501,5.501,0,0,1-3.04.94922C74.36328,62.21484,72.40625,60.41016,72.40625,57.38965Zm4.17969-3.62793c-1.292,0-2.46973,1.04492-2.66016,2.86816h4.93945C78.86523,54.76855,78.0293,53.76172,76.58594,53.76172Z" fill="#ccc"/><path d="M81.83008,57.38965c0-3.02051,2.03222-4.86328,4.1416-4.86328,2.35547,0,3.68555,1.6914,3.68555,4.332a6.0176,6.0176,0,0,1-.05762.89258H83.36914a3.0618,3.0618,0,0,0,3.07715,3.21093,4.17,4.17,0,0,0,2.29883-.72265l.55078,1.02636a5.501,5.501,0,0,1-3.04.94922C83.78711,62.21484,81.83008,60.41016,81.83008,57.38965Zm4.17969-3.62793c-1.292,0-2.46973,1.04492-2.66016,2.86816h4.93945C88.28906,54.76855,87.45312,53.76172,86.00977,53.76172Z" fill="#ccc"/><path d="M94.71191,60.94238l.77832-1.04492A4.15,4.15,0,0,0,98.207,60.999c1.21582,0,1.82422-.6455,1.82422-1.44336,0-.95019-1.10254-1.36816-2.10937-1.748C96.61133,57.333,95.168,56.70605,95.168,55.14844c0-1.48145,1.17773-2.62207,3.17187-2.62207a4.61312,4.61312,0,0,1,2.86914,1.04492l-.74121.98828a3.43137,3.43137,0,0,0-2.10839-.81738c-1.15918,0-1.69141.627-1.69141,1.33008,0,.874,1.00683,1.19726,2.05176,1.5957,1.33007.49414,2.81152,1.04492,2.81152,2.793,0,1.501-1.19629,2.7539-3.38086,2.7539A5.55717,5.55717,0,0,1,94.71191,60.94238Z" fill="#ccc"/><path d="M103.585,59.1377V54.02734H102.2168V52.84961l1.44336-.09473.19043-2.584h1.31054v2.584h2.48828v1.27246h-2.48828v5.12891c0,1.14063.36133,1.78613,1.42481,1.78613a3.34348,3.34348,0,0,0,1.04492-.24707l.30371,1.17774a5.69937,5.69937,0,0,1-1.71.34179C104.249,62.21484,103.585,60.96191,103.585,59.1377Z" fill="#ccc"/><path d="M108.791,57.38965c0-3.02051,2.03222-4.86328,4.1416-4.86328,2.35547,0,3.68554,1.6914,3.68554,4.332a6.01908,6.01908,0,0,1-.05761.89258h-6.23047a3.06179,3.06179,0,0,0,3.07715,3.21093,4.17,4.17,0,0,0,2.29882-.72265l.55079,1.02636a5.50109,5.50109,0,0,1-3.04.94922C110.74805,62.21484,108.791,60.41016,108.791,57.38965Zm4.17968-3.62793c-1.292,0-2.46972,1.04492-2.66015,2.86816H115.25C115.25,54.76855,114.41406,53.76172,112.9707,53.76172Z" fill="#ccc"/><path d="M120.19043,52.75488l.13281,1.06348h.05664a4.77834,4.77834,0,0,1,2.94532-1.292c2.374,0,3.64746,1.84277,3.64746,4.71191,0,3.13379-1.88086,4.97656-3.98926,4.97656a4.28107,4.28107,0,0,1-2.56543-1.06347l.03808,1.61523v3.11524h-1.55761v-13.127Zm5.167,4.4834c0-2.0332-.68359-3.40039-2.43164-3.40039a3.88919,3.88919,0,0,0-2.46973,1.25391v4.84375a3.65391,3.65391,0,0,0,2.26075.96875C124.23633,60.9043,125.35742,59.51758,125.35742,57.23828Z" fill="#ccc"/><path d="M128.417,60.94238l.77832-1.04492a4.15,4.15,0,0,0,2.7168,1.10156c1.21582,0,1.82422-.6455,1.82422-1.44336,0-.95019-1.10254-1.36816-2.10938-1.748-1.31054-.47461-2.7539-1.10157-2.7539-2.65918,0-1.48145,1.17773-2.62207,3.17187-2.62207a4.61312,4.61312,0,0,1,2.86914,1.04492l-.74121.98828a3.43138,3.43138,0,0,0-2.1084-.81738c-1.15918,0-1.6914.627-1.6914,1.33008,0,.874,1.00683,1.19726,2.05175,1.5957,1.33008.49414,2.81153,1.04492,2.81153,2.793,0,1.501-1.19629,2.7539-3.38086,2.7539A5.55717,5.55717,0,0,1,128.417,60.94238Z" fill="#ccc"/><path d="M137.08008,54.17969a1.13338,1.13338,0,1,1,2.26074,0,1.13132,1.13132,0,1,1-2.26074,0Zm0,6.85742a1.13338,1.13338,0,1,1,2.26074,0,1.13132,1.13132,0,1,1-2.26074,0Z" fill="#ccc"/><path d="M5.84961,96.75488l.13281,1.67188h.05664a3.15875,3.15875,0,0,1,2.62207-1.90039,2.29379,2.29379,0,0,1,.98731.19043L9.34473,98.085a2.56473,2.56473,0,0,0-.89258-.15234c-.7793,0-1.71.56933-2.33692,2.12793v5.92675H4.55762V96.75488Z" fill="#ccc"/><path d="M10.27637,101.38965c0-3.02051,2.0332-4.86328,4.1416-4.86328,2.35547,0,3.68555,1.6914,3.68555,4.332a6.019,6.019,0,0,1-.05762.89258H11.81543a3.06236,3.06236,0,0,0,3.07715,3.21093,4.16754,4.16754,0,0,0,2.29883-.72265l.55078,1.02636a5.49769,5.49769,0,0,1-3.03907.94922C12.2334,106.21484,10.27637,104.41016,10.27637,101.38965Zm4.17968-3.62793c-1.292,0-2.46972,1.04492-2.66015,2.86816h4.93945C16.73535,98.76855,15.89941,97.76172,14.45605,97.76172Z" fill="#ccc"/><path d="M19.71973,101.38965c0-3.001,1.89941-4.86328,4.00781-4.86328a3.80455,3.80455,0,0,1,2.584,1.06445l-.07617-1.57715V92.46094H27.8125V105.9873h-1.292l-.13281-1.083h-.05762a4.1637,4.1637,0,0,1-2.792,1.31054C21.21973,106.21484,19.71973,104.46777,19.71973,101.38965Zm6.51562,2.24219v-4.8252a3.21192,3.21192,0,0,0-2.24121-.96875c-1.48242,0-2.66016,1.42481-2.66016,3.5332,0,2.20313.93067,3.53321,2.5459,3.53321A3.12552,3.12552,0,0,0,26.23535,103.63184Z" fill="#ccc"/><path d="M30.24512,101.38965c0-3.09668,2.01367-4.86328,4.27441-4.86328S38.794,98.293,38.794,101.38965c0,3.05859-2.01368,4.82519-4.27442,4.82519S30.24512,104.44824,30.24512,101.38965Zm6.93359,0c0-2.127-1.06348-3.57129-2.65918-3.57129-1.57715,0-2.65918,1.44434-2.65918,3.57129,0,2.10937,1.082,3.53418,2.65918,3.53418C36.11523,104.92383,37.17871,103.499,37.17871,101.38965Z" fill="#ccc"/><path d="M44.34277,101.38965c0-3.09668,2.01368-4.86328,4.27442-4.86328s4.27441,1.7666,4.27441,4.86328c0,3.05859-2.01367,4.82519-4.27441,4.82519S44.34277,104.44824,44.34277,101.38965Zm6.9336,0c0-2.127-1.06348-3.57129-2.65918-3.57129-1.57715,0-2.65918,1.44434-2.65918,3.57129,0,2.10937,1.082,3.53418,2.65918,3.53418C50.21289,104.92383,51.27637,103.499,51.27637,101.38965Z" fill="#ccc"/><path d="M56.61621,96.75488,56.75,98.085h.05664a4.35173,4.35173,0,0,1,3.09668-1.55859c1.9375,0,2.81152,1.2539,2.81152,3.60937v5.85156H61.15723v-5.64257c0-1.72852-.53223-2.46875-1.748-2.46875-.9502,0-1.5957.49316-2.52637,1.42382v6.6875H55.3252V96.75488Z" fill="#ccc"/><path d="M65.03418,101.38965c0-3.02051,2.03223-4.86328,4.1416-4.86328,2.35547,0,3.68555,1.6914,3.68555,4.332a6.0176,6.0176,0,0,1-.05762.89258H66.57324a3.0618,3.0618,0,0,0,3.07715,3.21093,4.17,4.17,0,0,0,2.29883-.72265L72.5,105.26562a5.501,5.501,0,0,1-3.04.94922C66.99121,106.21484,65.03418,104.41016,65.03418,101.38965Zm4.17969-3.62793c-1.292,0-2.46973,1.04492-2.66016,2.86816h4.93945C71.49316,98.76855,70.65723,97.76172,69.21387,97.76172Z" fill="#ccc"/><path d="M77.916,104.94238l.77832-1.04492a4.15,4.15,0,0,0,2.71679,1.10156c1.21582,0,1.82422-.6455,1.82422-1.44336,0-.95019-1.10254-1.36816-2.10937-1.748-1.31055-.47461-2.75391-1.10157-2.75391-2.65918,0-1.48145,1.17773-2.62207,3.17188-2.62207a4.61316,4.61316,0,0,1,2.86914,1.04492l-.74121.98828a3.43142,3.43142,0,0,0-2.1084-.81738c-1.15918,0-1.69141.627-1.69141,1.33008,0,.874,1.00684,1.19726,2.05176,1.5957,1.33008.49414,2.81152,1.04492,2.81152,2.793,0,1.501-1.19629,2.7539-3.38086,2.7539A5.55712,5.55712,0,0,1,77.916,104.94238Z" fill="#ccc"/><path d="M86.78809,103.1377V98.02734H85.4209V96.84961l1.44336-.09473.19043-2.584h1.31054v2.584h2.48829v1.27246H88.36523v5.12891c0,1.14063.36133,1.78613,1.42481,1.78613a3.34348,3.34348,0,0,0,1.04492-.24707l.30371,1.17774a5.69937,5.69937,0,0,1-1.71.34179C87.45312,106.21484,86.78809,104.96191,86.78809,103.1377Z" fill="#ccc"/><path d="M91.99512,101.38965c0-3.02051,2.03222-4.86328,4.1416-4.86328,2.35547,0,3.68555,1.6914,3.68555,4.332a6.019,6.019,0,0,1-.05762.89258H93.53418a3.0618,3.0618,0,0,0,3.07715,3.21093,4.17,4.17,0,0,0,2.29883-.72265l.55078,1.02636a5.50107,5.50107,0,0,1-3.04.94922C93.95215,106.21484,91.99512,104.41016,91.99512,101.38965Zm4.17968-3.62793c-1.292,0-2.46972,1.04492-2.66015,2.86816H98.4541C98.4541,98.76855,97.61816,97.76172,96.1748,97.76172Z" fill="#ccc"/><path d="M103.39453,96.75488l.13281,1.06348h.05762a4.77344,4.77344,0,0,1,2.94434-1.292c2.374,0,3.64746,1.84277,3.64746,4.71191,0,3.13379-1.88086,4.97656-3.98926,4.97656a4.28107,4.28107,0,0,1-2.56543-1.06347l.03809,1.61523v3.11524h-1.55762v-13.127Zm5.167,4.4834c0-2.0332-.68359-3.40039-2.43164-3.40039a3.88917,3.88917,0,0,0-2.46972,1.25391v4.84375a3.65386,3.65386,0,0,0,2.26074.96875C107.44043,104.9043,108.56152,103.51758,108.56152,101.23828Z" fill="#ccc"/><path d="M112.32422,98.17969a1.13338,1.13338,0,1,1,2.26074,0,1.13132,1.13132,0,1,1-2.26074,0Zm0,6.85742a1.13338,1.13338,0,1,1,2.26074,0,1.13132,1.13132,0,1,1-2.26074,0Z" fill="#ccc"/><path d="M4.82324,157.1377v-5.11036H3.45605v-1.17773l1.44336-.09473.19043-2.584H6.40039v2.584H8.88867v1.27246H6.40039v5.12891c0,1.14063.36035,1.78613,1.42481,1.78613a3.34348,3.34348,0,0,0,1.04492-.24707l.30371,1.17774a5.69943,5.69943,0,0,1-1.71.34179C5.48828,160.21484,4.82324,158.96191,4.82324,157.1377Z" fill="#ccc"/><path d="M11.47363,150.75488l1.36719,5.33789c.209.874.37988,1.71.55078,2.56446h.07617c.209-.8545.39942-1.709.627-2.56446l1.4248-5.33789h1.51953l1.44434,5.33789c.22754.874.43652,1.71.64551,2.56446h.07617c.209-.8545.37988-1.69043.57031-2.56446l1.34863-5.33789h1.48145l-2.46973,9.23242H18.23633l-1.33008-4.958c-.22754-.874-.39844-1.7295-.627-2.66016h-.0752c-.209.93066-.39941,1.80469-.64648,2.67871l-1.292,4.93945H12.44238l-2.56445-9.23242Z" fill="#ccc"/><path d="M23.86133,155.38965c0-3.09668,2.01367-4.86328,4.27441-4.86328s4.27442,1.7666,4.27442,4.86328c0,3.05859-2.01368,4.82519-4.27442,4.82519S23.86133,158.44824,23.86133,155.38965Zm6.93359,0c0-2.12695-1.06347-3.57129-2.65918-3.57129-1.57715,0-2.65918,1.44434-2.65918,3.57129,0,2.10937,1.082,3.53418,2.65918,3.53418C29.73145,158.92383,30.79492,157.499,30.79492,155.38965Z" fill="#ccc"/><path d="M39.93457,150.75488l.13281,1.33008H40.125a4.35173,4.35173,0,0,1,3.09668-1.55859c1.9375,0,2.81152,1.2539,2.81152,3.60937v5.85156H44.47559v-5.64257c0-1.72852-.53223-2.46875-1.748-2.46875-.9502,0-1.5957.49316-2.52637,1.42382v6.6875H38.64258v-9.23242Z" fill="#ccc"/><path d="M48.35254,155.38965c0-3.02051,2.03223-4.86328,4.14062-4.86328,2.35645,0,3.68653,1.6914,3.68653,4.332a6.0176,6.0176,0,0,1-.05762.89258H49.89062a3.06313,3.06313,0,0,0,3.07813,3.21093,4.17,4.17,0,0,0,2.29883-.72265l.55078,1.02636a5.501,5.501,0,0,1-3.04.94922C50.30859,160.21484,48.35254,158.41016,48.35254,155.38965Zm4.17871-3.62793c-1.292,0-2.46973,1.04492-2.65918,2.86816h4.93945C54.81152,152.76855,53.97559,151.76172,52.53125,151.76172Z" fill="#ccc"/><path d="M59.04883,150.75488l1.36816,5.33789c.209.874.37989,1.71.55078,2.56446H61.044c.209-.8545.39843-1.709.626-2.56446l1.42481-5.33789h1.5205l1.44336,5.33789c.22852.874.4375,1.71.64649,2.56446h.07519c.209-.8545.37989-1.69043.57032-2.56446l1.34863-5.33789h1.48144l-2.46875,9.23242H65.81152l-1.3291-4.958c-.22851-.874-.39941-1.7295-.627-2.66016H63.7793c-.209.93066-.39942,1.80469-.64649,2.67871l-1.291,4.93945H60.01758l-2.56446-9.23242Z" fill="#ccc"/><path d="M75.3125,155.38965c0-3.02051,2.03223-4.86328,4.1416-4.86328,2.35547,0,3.68555,1.6914,3.68555,4.332a6.0176,6.0176,0,0,1-.05762.89258H76.85156a3.0618,3.0618,0,0,0,3.07715,3.21093,4.17,4.17,0,0,0,2.29883-.72265l.55078,1.02636a5.501,5.501,0,0,1-3.04.94922C77.26953,160.21484,75.3125,158.41016,75.3125,155.38965Zm4.17969-3.62793c-1.292,0-2.46973,1.04492-2.66016,2.86816h4.93945C81.77148,152.76855,80.93555,151.76172,79.49219,151.76172Z" fill="#ccc"/><path d="M84.75488,155.38965c0-3.001,1.90039-4.86328,4.00879-4.86328a3.80642,3.80642,0,0,1,2.584,1.06445l-.07618-1.57715v-3.55273h1.57618V159.9873h-1.291l-.13379-1.083h-.05664a4.164,4.164,0,0,1-2.793,1.31054C86.25586,160.21484,84.75488,158.46777,84.75488,155.38965Zm6.5166,2.24219v-4.8252a3.214,3.214,0,0,0-2.24218-.96875c-1.48145,0-2.65918,1.42481-2.65918,3.5332,0,2.20313.93066,3.53321,2.5459,3.53321A3.12552,3.12552,0,0,0,91.27148,157.63184Z" fill="#ccc"/><path d="M95.67969,147.84766a1.08589,1.08589,0,0,1,2.166,0,1.08589,1.08589,0,0,1-2.166,0Zm1.84277,2.90722v9.23242H95.96484v-9.23242Z" fill="#ccc"/><path d="M100.90527,157.1377v-5.11036H99.53711v-1.17773l1.44336-.09473.19043-2.584h1.31055v2.584h2.48828v1.27246h-2.48828v5.12891c0,1.14063.36132,1.78613,1.4248,1.78613a3.34348,3.34348,0,0,0,1.04492-.24707l.30371,1.17774a5.69937,5.69937,0,0,1-1.71.34179C101.56934,160.21484,100.90527,158.96191,100.90527,157.1377Z" fill="#ccc"/><path d="M106.77539,147.84766a1.08589,1.08589,0,0,1,2.166,0,1.08589,1.08589,0,0,1-2.166,0Zm1.84277,2.90722v9.23242h-1.55761v-9.23242Z" fill="#ccc"/><path d="M113.02637,150.75488l.13281,1.33008h.05664a4.35355,4.35355,0,0,1,3.09668-1.55859c1.93848,0,2.81152,1.2539,2.81152,3.60937v5.85156h-1.55761v-5.64257c0-1.72852-.53125-2.46875-1.74707-2.46875-.9502,0-1.59571.49316-2.52735,1.42382v6.6875h-1.55761v-9.23242Z" fill="#ccc"/><path d="M121.42383,161.75391a2.668,2.668,0,0,1,1.34961-2.08985v-.07617a1.70213,1.70213,0,0,1-.81739-1.5,2.16371,2.16371,0,0,1,1.00684-1.71v-.07617a3.25919,3.25919,0,0,1,2.2793-5.77539,3.68984,3.68984,0,0,1,1.31152.22851h3.21v1.19629h-1.89941a2.6797,2.6797,0,0,1,.75976,1.90039,3.16818,3.16818,0,0,1-3.38183,3.21,3.22716,3.22716,0,0,1-1.38672-.32226,1.39933,1.39933,0,0,0-.58887,1.10156c0,.58887.37988,1.00684,1.63379,1.00684h1.78613c2.14649,0,3.2295.665,3.2295,2.20312,0,1.71-1.80469,3.19238-4.67383,3.19238C122.98242,164.24316,121.42383,163.34961,121.42383,161.75391Zm6.97265-.47461c0-.85547-.665-1.13965-1.8623-1.13965h-1.5957a4.4822,4.4822,0,0,1-1.19629-.15235,1.944,1.944,0,0,0-.9502,1.55762c0,.98828,1.00684,1.61524,2.67871,1.61524C127.2373,163.16016,128.39648,162.24805,128.39648,161.2793Zm-1.19726-7.46582a1.96495,1.96495,0,1,0-3.91309,0,1.97034,1.97034,0,1,0,3.91309,0Z" fill="#ccc"/><path d="M134.47754,158.94238l.77832-1.04492a4.15,4.15,0,0,0,2.7168,1.10156c1.21582,0,1.82422-.6455,1.82422-1.44336,0-.95019-1.10254-1.36816-2.10938-1.748-1.31055-.47461-2.75391-1.10157-2.75391-2.65918,0-1.48145,1.17774-2.62207,3.17188-2.62207a4.61314,4.61314,0,0,1,2.86914,1.04492l-.74121.98828a3.43138,3.43138,0,0,0-2.1084-.81738c-1.15918,0-1.69141.62695-1.69141,1.33008,0,.874,1.00684,1.19726,2.05176,1.5957,1.33008.49414,2.81153,1.04492,2.81153,2.793,0,1.501-1.19629,2.7539-3.38086,2.7539A5.55713,5.55713,0,0,1,134.47754,158.94238Z" fill="#ccc"/><path d="M143.35059,157.1377v-5.11036h-1.36817v-1.17773l1.44336-.09473.19043-2.584h1.31055v2.584H147.415v1.27246h-2.48828v5.12891c0,1.14063.36133,1.78613,1.4248,1.78613a3.34348,3.34348,0,0,0,1.04492-.24707l.30372,1.17774a5.69943,5.69943,0,0,1-1.71.34179C144.01465,160.21484,143.35059,158.96191,143.35059,157.1377Z" fill="#ccc"/><path d="M148.55664,155.38965c0-3.02051,2.03223-4.86328,4.1416-4.86328,2.35547,0,3.68555,1.6914,3.68555,4.332a6.0176,6.0176,0,0,1-.05762.89258H150.0957a3.0618,3.0618,0,0,0,3.07715,3.21093,4.17,4.17,0,0,0,2.29883-.72265l.55078,1.02636a5.501,5.501,0,0,1-3.04.94922C150.51367,160.21484,148.55664,158.41016,148.55664,155.38965Zm4.17969-3.62793c-1.292,0-2.46973,1.04492-2.66016,2.86816h4.93945C155.01562,152.76855,154.17969,151.76172,152.73633,151.76172Z" fill="#ccc"/><path d="M159.95605,150.75488l.13282,1.06348h.05664a4.77832,4.77832,0,0,1,2.94531-1.292c2.374,0,3.64746,1.84277,3.64746,4.71191,0,3.13379-1.88086,4.97656-3.98926,4.97656a4.28107,4.28107,0,0,1-2.56543-1.06347l.03809,1.61523v3.11524h-1.55762v-13.127Zm5.167,4.4834c0-2.0332-.6836-3.40039-2.43164-3.40039a3.88919,3.88919,0,0,0-2.46973,1.25391v4.84375a3.65388,3.65388,0,0,0,2.26074.96875C164.002,158.9043,165.12305,157.51758,165.12305,155.23828Z" fill="#ccc"/><path d="M168.18359,158.94238l.77832-1.04492a4.15,4.15,0,0,0,2.7168,1.10156c1.21582,0,1.82422-.6455,1.82422-1.44336,0-.95019-1.10254-1.36816-2.10938-1.748-1.31054-.47461-2.7539-1.10157-2.7539-2.65918,0-1.48145,1.17773-2.62207,3.17187-2.62207a4.61312,4.61312,0,0,1,2.86914,1.04492l-.74121.98828a3.43138,3.43138,0,0,0-2.1084-.81738c-1.15917,0-1.6914.62695-1.6914,1.33008,0,.874,1.00683,1.19726,2.05176,1.5957,1.33007.49414,2.81152,1.04492,2.81152,2.793,0,1.501-1.19629,2.7539-3.38086,2.7539A5.55717,5.55717,0,0,1,168.18359,158.94238Z" fill="#ccc"/><path d="M176.84668,152.17969a1.13338,1.13338,0,1,1,2.26074,0,1.13132,1.13132,0,1,1-2.26074,0Zm0,6.85742a1.13338,1.13338,0,1,1,2.26074,0,1.13132,1.13132,0,1,1-2.26074,0Z" fill="#ccc"/><polyline points="613 23 613 31 319 31 319 39.639" fill="none" stroke="#ff953d" stroke-width="2"/><polygon points="327.504 38.499 310.496 38.499 318.999 47 327.504 38.499" fill="#ff953d"/><polyline points="319 67 319 75 417 75 417 83.639" fill="none" stroke="#ff953d" stroke-width="2"/><polygon points="425.504 82.499 408.496 82.499 416.999 91 425.504 82.499" fill="#ff953d"/><polyline points="472.597 140 461 140 461 155" fill="none" stroke="#4d4d4d" stroke-width="2"/><polygon points="469.823 135.933 485 139.997 469.823 144.067 469.823 135.933" fill="#4d4d4d"/><polyline points="447 155 461 155 461 170 472.597 170" fill="none" stroke="#6c718c" stroke-width="2"/><polygon points="469.823 174.067 485 170.003 469.823 165.933 469.823 174.067" fill="#6c718c"/><rect x="387.00011" y="47" width="60" height="20" rx="4" ry="4" fill="#333"/><rect x="485.00011" y="91" width="60" height="20" rx="4" ry="4" fill="#333"/><rect x="485.00011" y="130" width="60" height="20" rx="4" ry="4" fill="#333"/><rect x="583.00011" y="130" width="60" height="20" rx="4" ry="4" fill="#333"/><rect x="485.00011" y="47" width="60" height="20" rx="4" ry="4" fill="#333"/><rect x="583.00011" y="91" width="60" height="20" rx="4" ry="4" fill="#333"/><rect x="583.00011" y="47" width="60" height="20" rx="4" ry="4" fill="#333"/><rect x="191.00011" y="47" width="60" height="20" rx="4" ry="4" fill="#8187a3"/><rect x="191.00011" y="91" width="60" height="20" rx="4" ry="4" fill="#8187a3"/><rect x="289.00011" y="91" width="60" height="20" rx="4" ry="4" fill="#8187a3"/><rect x="387.00011" y="145" width="60" height="20" rx="4" ry="4" fill="#8187a3"/><rect x="289.00011" y="145" width="60" height="20" rx="4" ry="4" fill="#8187a3"/><rect x="190.99976" y="145" width="60" height="20" rx="4" ry="4" fill="#8187a3"/><rect x="485.00011" y="160" width="60" height="20" rx="4" ry="4" fill="#8187a3"/><rect x="191.00011" y="3" width="60" height="20" rx="4" ry="4" fill="#8187a3"/><rect x="288.99907" y="3" width="60" height="20" rx="4" ry="4" fill="#8187a3"/><rect x="387.00011" y="3" width="60" height="20" rx="4" ry="4" fill="#8187a3"/><rect x="485.00011" y="3" width="60" height="20" rx="4" ry="4" fill="#8187a3"/><rect x="289.00011" y="47" width="60" height="20" rx="4" ry="4" fill="#ff953d"/><rect x="387.00011" y="91" width="60" height="20" rx="4" ry="4" fill="#ff953d"/><rect x="582.99906" y="160" width="60" height="20" rx="4" ry="4" fill="#ff953d"/><rect x="582.99906" y="3" width="60" height="20" rx="4" ry="4" fill="#ff953d"/><path d="M201.2373,14.11523c0-2.71972,1.8877-4.38476,3.8418-4.38476,2.26074,0,3.45117,1.63183,3.45117,3.96a4.57287,4.57287,0,0,1-.085.95215H203.1416a2.38952,2.38952,0,0,0,2.46485,2.3291,3.48748,3.48748,0,0,0,1.9375-.6123L208.207,17.583a5.263,5.263,0,0,1-2.85547.90137A4.025,4.025,0,0,1,201.2373,14.11523Zm3.89258-2.87207a2.09524,2.09524,0,0,0-2.00488,2.07325h3.70508C206.83008,12.02441,206.26953,11.24316,205.12988,11.24316Z" fill="#1a1a1a"/><path d="M209.89062,14.11523c0-2.71972,1.7168-4.38476,3.53516-4.38476a3.08112,3.08112,0,0,1,2.19336.918l-.06836-1.34278V6.2793h1.95508v12.001h-1.61524l-.13574-.90136h-.06836a3.47382,3.47382,0,0,1-2.3623,1.10547C211.2334,18.48438,209.89062,16.86914,209.89062,14.11523Zm5.66016,1.81934V12.042a2.48933,2.48933,0,0,0-1.69922-.69726c-1.07129,0-1.93847,1.00293-1.93847,2.7539,0,1.80176.67968,2.77051,1.88671,2.77051A2.25286,2.25286,0,0,0,215.55078,15.93457Z" fill="#1a1a1a"/><path d="M219.76758,7.36719a1.2117,1.2117,0,1,1,1.207,1.10547A1.1228,1.1228,0,0,1,219.76758,7.36719Zm2.17578,2.56738v8.3457h-1.9541V9.93457Z" fill="#1a1a1a"/><path d="M224.73145,15.459V11.48145H223.541V10.01953l1.292-.085.23828-2.27832h1.63183V9.93457h2.124v1.54688h-2.124V15.459c0,.98536.374,1.46192,1.17286,1.46192a2.395,2.395,0,0,0,.86621-.1875l.34082,1.44531a5.3512,5.3512,0,0,1-1.7002.30567C225.44531,18.48438,224.73145,17.26074,224.73145,15.459Z" fill="#1a1a1a"/><path d="M236.41016,16.68262V9.57715H234.4209V8.35352a7.28061,7.28061,0,0,0,2.499-.88379h1.46192v9.21289h2.125v1.59765h-6.51075V16.68262Z" fill="#1a1a1a"/><path d="M299.23828,14.11523c0-2.71972,1.88672-4.38476,3.84082-4.38476,2.26172,0,3.45117,1.63183,3.45117,3.96a4.57287,4.57287,0,0,1-.085.95215H301.1416a2.38952,2.38952,0,0,0,2.46485,2.3291,3.48748,3.48748,0,0,0,1.9375-.6123L306.207,17.583a5.263,5.263,0,0,1-2.85547.90137A4.02476,4.02476,0,0,1,299.23828,14.11523Zm3.89258-2.87207a2.09537,2.09537,0,0,0-2.00586,2.07325h3.70508C304.83008,12.02441,304.26953,11.24316,303.13086,11.24316Z" fill="#1a1a1a"/><path d="M307.89062,14.11523c0-2.71972,1.71778-4.38476,3.53614-4.38476a3.07712,3.07712,0,0,1,2.19238.918l-.06738-1.34278V6.2793h1.9541v12.001H313.8916l-.13574-.90136h-.06836a3.47778,3.47778,0,0,1-2.3623,1.10547C309.23438,18.48438,307.89062,16.86914,307.89062,14.11523Zm5.66114,1.81934V12.042a2.48983,2.48983,0,0,0-1.7002-.69726c-1.07031,0-1.9375,1.00293-1.9375,2.7539,0,1.80176.67969,2.77051,1.88672,2.77051A2.2557,2.2557,0,0,0,313.55176,15.93457Z" fill="#1a1a1a"/><path d="M317.76758,7.36719a1.2117,1.2117,0,1,1,1.207,1.10547A1.1228,1.1228,0,0,1,317.76758,7.36719Zm2.17578,2.56738v8.3457h-1.9541V9.93457Z" fill="#1a1a1a"/><path d="M322.73145,15.459V11.48145H321.541V10.01953l1.292-.085.23828-2.27832h1.63183V9.93457h2.124v1.54688h-2.124V15.459c0,.98536.374,1.46192,1.17286,1.46192a2.395,2.395,0,0,0,.86621-.1875l.34082,1.44531a5.3512,5.3512,0,0,1-1.7002.30567C323.44531,18.48438,322.73145,17.26074,322.73145,15.459Z" fill="#1a1a1a"/><path d="M336.2793,10.68164a1.67632,1.67632,0,0,0-1.78418-1.86914,2.9874,2.9874,0,0,0-2.1084,1.207l-1.08789-1.08789a4.42463,4.42463,0,0,1,3.45117-1.666,3.16011,3.16011,0,0,1,3.417,3.31446c0,1.9209-1.78515,3.89258-3.92676,6.15332.56055-.05078,1.27442-.11914,1.80176-.11914h2.65137v1.666h-7.30957V17.1416C334.39258,14.23438,336.2793,12.33105,336.2793,10.68164Z" fill="#1a1a1a"/><path d="M397.23828,14.11523c0-2.71972,1.88672-4.38476,3.84082-4.38476,2.26172,0,3.45117,1.63183,3.45117,3.96a4.57287,4.57287,0,0,1-.085.95215H399.1416a2.38952,2.38952,0,0,0,2.46485,2.3291,3.48748,3.48748,0,0,0,1.9375-.6123L404.207,17.583a5.263,5.263,0,0,1-2.85547.90137A4.02476,4.02476,0,0,1,397.23828,14.11523Zm3.89258-2.87207a2.09537,2.09537,0,0,0-2.00586,2.07325h3.70508C402.83008,12.02441,402.26953,11.24316,401.13086,11.24316Z" fill="#1a1a1a"/><path d="M405.89062,14.11523c0-2.71972,1.71778-4.38476,3.53614-4.38476a3.07712,3.07712,0,0,1,2.19238.918l-.06738-1.34278V6.2793h1.9541v12.001H411.8916l-.13574-.90136h-.06836a3.47778,3.47778,0,0,1-2.3623,1.10547C407.23438,18.48438,405.89062,16.86914,405.89062,14.11523Zm5.66114,1.81934V12.042a2.48983,2.48983,0,0,0-1.7002-.69726c-1.07031,0-1.9375,1.00293-1.9375,2.7539,0,1.80176.67969,2.77051,1.88672,2.77051A2.2557,2.2557,0,0,0,411.55176,15.93457Z" fill="#1a1a1a"/><path d="M415.76758,7.36719a1.2117,1.2117,0,1,1,1.207,1.10547A1.1228,1.1228,0,0,1,415.76758,7.36719Zm2.17578,2.56738v8.3457h-1.9541V9.93457Z" fill="#1a1a1a"/><path d="M420.73145,15.459V11.48145H419.541V10.01953l1.292-.085.23828-2.27832h1.63183V9.93457h2.124v1.54688h-2.124V15.459c0,.98536.374,1.46192,1.17286,1.46192a2.395,2.395,0,0,0,.86621-.1875l.34082,1.44531a5.3512,5.3512,0,0,1-1.7002.30567C421.44531,18.48438,420.73145,17.26074,420.73145,15.459Z" fill="#1a1a1a"/><path d="M429.14648,16.9541l.93457-1.25781a3.53317,3.53317,0,0,0,2.56641,1.19043c1.17285,0,1.98926-.61231,1.98926-1.63184,0-1.12207-.71387-1.83593-3.17871-1.83593V11.99121c2.125,0,2.82129-.73144,2.82129-1.73437a1.41089,1.41089,0,0,0-1.59766-1.44434A3.154,3.154,0,0,0,430.50586,9.832l-1.00293-1.207A4.77469,4.77469,0,0,1,432.75,7.26562c2.07324,0,3.502,1.01954,3.502,2.85547a2.59464,2.59464,0,0,1-1.88769,2.48145v.06836a2.74992,2.74992,0,0,1,2.24414,2.68555c0,1.97167-1.7168,3.12793-3.791,3.12793A4.69742,4.69742,0,0,1,429.14648,16.9541Z" fill="#1a1a1a"/><path d="M495.23828,14.11523c0-2.71972,1.88672-4.38476,3.84082-4.38476,2.26172,0,3.45117,1.63183,3.45117,3.96a4.57287,4.57287,0,0,1-.085.95215H497.1416a2.38952,2.38952,0,0,0,2.46485,2.3291,3.48748,3.48748,0,0,0,1.9375-.6123L502.207,17.583a5.263,5.263,0,0,1-2.85547.90137A4.02476,4.02476,0,0,1,495.23828,14.11523Zm3.89258-2.87207a2.09537,2.09537,0,0,0-2.00586,2.07325h3.70508C500.83008,12.02441,500.26953,11.24316,499.13086,11.24316Z" fill="#1a1a1a"/><path d="M503.89062,14.11523c0-2.71972,1.71778-4.38476,3.53614-4.38476a3.07712,3.07712,0,0,1,2.19238.918l-.06738-1.34278V6.2793h1.9541v12.001H509.8916l-.13574-.90136h-.06836a3.47778,3.47778,0,0,1-2.3623,1.10547C505.23438,18.48438,503.89062,16.86914,503.89062,14.11523Zm5.66114,1.81934V12.042a2.48983,2.48983,0,0,0-1.7002-.69726c-1.07031,0-1.9375,1.00293-1.9375,2.7539,0,1.80176.67969,2.77051,1.88672,2.77051A2.2557,2.2557,0,0,0,509.55176,15.93457Z" fill="#1a1a1a"/><path d="M513.76758,7.36719a1.2117,1.2117,0,1,1,1.207,1.10547A1.1228,1.1228,0,0,1,513.76758,7.36719Zm2.17578,2.56738v8.3457h-1.9541V9.93457Z" fill="#1a1a1a"/><path d="M518.73145,15.459V11.48145H517.541V10.01953l1.292-.085.23828-2.27832h1.63183V9.93457h2.124v1.54688h-2.124V15.459c0,.98536.374,1.46192,1.17286,1.46192a2.395,2.395,0,0,0,.86621-.1875l.34082,1.44531a5.3512,5.3512,0,0,1-1.7002.30567C519.44531,18.48438,518.73145,17.26074,518.73145,15.459Z" fill="#1a1a1a"/><path d="M527.044,15.49219V14.167l4.28417-6.69726h2.32813v6.50976h1.36035v1.5127h-1.36035v2.78808h-1.83594V15.49219Zm4.77636-3.96c0-.62891.05176-1.61524.085-2.24414h-.06738c-.27246.56054-.57812,1.10546-.88379,1.68261l-1.97168,3.00879h2.83789Z" fill="#1a1a1a"/><path d="M593.23828,14.11523c0-2.71972,1.88672-4.38476,3.84082-4.38476,2.26172,0,3.45117,1.63183,3.45117,3.96a4.57287,4.57287,0,0,1-.085.95215H595.1416a2.38952,2.38952,0,0,0,2.46485,2.3291,3.48748,3.48748,0,0,0,1.9375-.6123L600.207,17.583a5.263,5.263,0,0,1-2.85547.90137A4.02476,4.02476,0,0,1,593.23828,14.11523Zm3.89258-2.87207a2.09537,2.09537,0,0,0-2.00586,2.07325h3.70508C598.83008,12.02441,598.26953,11.24316,597.13086,11.24316Z" fill="#1a1a1a"/><path d="M601.89062,14.11523c0-2.71972,1.71778-4.38476,3.53614-4.38476a3.07712,3.07712,0,0,1,2.19238.918l-.06738-1.34278V6.2793h1.9541v12.001H607.8916l-.13574-.90136h-.06836a3.47778,3.47778,0,0,1-2.3623,1.10547C603.23438,18.48438,601.89062,16.86914,601.89062,14.11523Zm5.66114,1.81934V12.042a2.48983,2.48983,0,0,0-1.7002-.69726c-1.07031,0-1.9375,1.00293-1.9375,2.7539,0,1.80176.67969,2.77051,1.88672,2.77051A2.2557,2.2557,0,0,0,607.55176,15.93457Z" fill="#1a1a1a"/><path d="M611.76758,7.36719a1.2117,1.2117,0,1,1,1.207,1.10547A1.1228,1.1228,0,0,1,611.76758,7.36719Zm2.17578,2.56738v8.3457h-1.9541V9.93457Z" fill="#1a1a1a"/><path d="M616.73145,15.459V11.48145H615.541V10.01953l1.292-.085.23828-2.27832h1.63183V9.93457h2.124v1.54688h-2.124V15.459c0,.98536.374,1.46192,1.17286,1.46192a2.395,2.395,0,0,0,.86621-.1875l.34082,1.44531a5.3512,5.3512,0,0,1-1.7002.30567C617.44531,18.48438,616.73145,17.26074,616.73145,15.459Z" fill="#1a1a1a"/><path d="M625.14648,16.98828l.9004-1.25781a3.62509,3.62509,0,0,0,2.5332,1.15625,1.95845,1.95845,0,0,0,2.09082-2.07422A1.85726,1.85726,0,0,0,628.68164,12.79a2.77182,2.77182,0,0,0-1.7334.61133l-.93554-.59473.32324-5.33691h5.77929V9.11816h-4.0791l-.2207,2.61817a3.05265,3.05265,0,0,1,1.42773-.35742,3.14217,3.14217,0,0,1,3.39942,3.38281,3.64487,3.64487,0,0,1-3.80762,3.72266A4.962,4.962,0,0,1,625.14648,16.98828Z" fill="#1a1a1a"/><path d="M201.2373,58.11523c0-2.71972,1.8877-4.38476,3.8418-4.38476,2.26074,0,3.45117,1.63183,3.45117,3.96a4.57287,4.57287,0,0,1-.085.95215H203.1416a2.38952,2.38952,0,0,0,2.46485,2.3291,3.48748,3.48748,0,0,0,1.9375-.6123L208.207,61.583a5.263,5.263,0,0,1-2.85547.90137A4.025,4.025,0,0,1,201.2373,58.11523Zm3.89258-2.87207a2.09524,2.09524,0,0,0-2.00488,2.07325h3.70508C206.83008,56.02441,206.26953,55.24316,205.12988,55.24316Z" fill="#1a1a1a"/><path d="M209.89062,58.11523c0-2.71972,1.7168-4.38476,3.53516-4.38476a3.08112,3.08112,0,0,1,2.19336.918l-.06836-1.34278V50.2793h1.95508v12.001h-1.61524l-.13574-.90136h-.06836a3.47382,3.47382,0,0,1-2.3623,1.10547C211.2334,62.48438,209.89062,60.86914,209.89062,58.11523Zm5.66016,1.81934V56.042a2.48933,2.48933,0,0,0-1.69922-.69726c-1.07129,0-1.93847,1.00293-1.93847,2.7539,0,1.80176.67968,2.77051,1.88671,2.77051A2.25286,2.25286,0,0,0,215.55078,59.93457Z" fill="#1a1a1a"/><path d="M219.76758,51.36719a1.2117,1.2117,0,1,1,1.207,1.10547A1.1228,1.1228,0,0,1,219.76758,51.36719Zm2.17578,2.56738v8.3457h-1.9541v-8.3457Z" fill="#1a1a1a"/><path d="M224.73145,59.459V55.48145H223.541V54.01953l1.292-.085.23828-2.27832h1.63183v2.27832h2.124v1.54688h-2.124V59.459c0,.98536.374,1.46192,1.17286,1.46192a2.395,2.395,0,0,0,.86621-.1875l.34082,1.44531a5.3512,5.3512,0,0,1-1.7002.30567C225.44531,62.48438,224.73145,61.26074,224.73145,59.459Z" fill="#1a1a1a"/><path d="M236.41016,60.68262V53.57715H234.4209V52.35352a7.28061,7.28061,0,0,0,2.499-.88379h1.46192v9.21289h2.125v1.59765h-6.51075V60.68262Z" fill="#1a1a1a"/><path d="M299.23828,58.11523c0-2.71972,1.88672-4.38476,3.84082-4.38476,2.26172,0,3.45117,1.63183,3.45117,3.96a4.57287,4.57287,0,0,1-.085.95215H301.1416a2.38952,2.38952,0,0,0,2.46485,2.3291,3.48748,3.48748,0,0,0,1.9375-.6123L306.207,61.583a5.263,5.263,0,0,1-2.85547.90137A4.02476,4.02476,0,0,1,299.23828,58.11523Zm3.89258-2.87207a2.09537,2.09537,0,0,0-2.00586,2.07325h3.70508C304.83008,56.02441,304.26953,55.24316,303.13086,55.24316Z" fill="#1a1a1a"/><path d="M307.89062,58.11523c0-2.71972,1.71778-4.38476,3.53614-4.38476a3.07712,3.07712,0,0,1,2.19238.918l-.06738-1.34278V50.2793h1.9541v12.001H313.8916l-.13574-.90136h-.06836a3.47778,3.47778,0,0,1-2.3623,1.10547C309.23438,62.48438,307.89062,60.86914,307.89062,58.11523Zm5.66114,1.81934V56.042a2.48983,2.48983,0,0,0-1.7002-.69726c-1.07031,0-1.9375,1.00293-1.9375,2.7539,0,1.80176.67969,2.77051,1.88672,2.77051A2.2557,2.2557,0,0,0,313.55176,59.93457Z" fill="#1a1a1a"/><path d="M317.76758,51.36719a1.2117,1.2117,0,1,1,1.207,1.10547A1.1228,1.1228,0,0,1,317.76758,51.36719Zm2.17578,2.56738v8.3457h-1.9541v-8.3457Z" fill="#1a1a1a"/><path d="M322.73145,59.459V55.48145H321.541V54.01953l1.292-.085.23828-2.27832h1.63183v2.27832h2.124v1.54688h-2.124V59.459c0,.98536.374,1.46192,1.17286,1.46192a2.395,2.395,0,0,0,.86621-.1875l.34082,1.44531a5.3512,5.3512,0,0,1-1.7002.30567C323.44531,62.48438,322.73145,61.26074,322.73145,59.459Z" fill="#1a1a1a"/><path d="M336.2793,54.68164a1.67632,1.67632,0,0,0-1.78418-1.86914,2.9874,2.9874,0,0,0-2.1084,1.207l-1.08789-1.08789a4.42463,4.42463,0,0,1,3.45117-1.666,3.16011,3.16011,0,0,1,3.417,3.31446c0,1.9209-1.78515,3.89258-3.92676,6.15332.56055-.05078,1.27442-.11914,1.80176-.11914h2.65137v1.666h-7.30957V61.1416C334.39258,58.23438,336.2793,56.33105,336.2793,54.68164Z" fill="#1a1a1a"/><path d="M397.23828,58.11523c0-2.71972,1.88672-4.38476,3.84082-4.38476,2.26172,0,3.45117,1.63183,3.45117,3.96a4.57287,4.57287,0,0,1-.085.95215H399.1416a2.38952,2.38952,0,0,0,2.46485,2.3291,3.48748,3.48748,0,0,0,1.9375-.6123L404.207,61.583a5.263,5.263,0,0,1-2.85547.90137A4.02476,4.02476,0,0,1,397.23828,58.11523Zm3.89258-2.87207a2.09537,2.09537,0,0,0-2.00586,2.07325h3.70508C402.83008,56.02441,402.26953,55.24316,401.13086,55.24316Z" fill="gray"/><path d="M405.89062,58.11523c0-2.71972,1.71778-4.38476,3.53614-4.38476a3.07712,3.07712,0,0,1,2.19238.918l-.06738-1.34278V50.2793h1.9541v12.001H411.8916l-.13574-.90136h-.06836a3.47778,3.47778,0,0,1-2.3623,1.10547C407.23438,62.48438,405.89062,60.86914,405.89062,58.11523Zm5.66114,1.81934V56.042a2.48983,2.48983,0,0,0-1.7002-.69726c-1.07031,0-1.9375,1.00293-1.9375,2.7539,0,1.80176.67969,2.77051,1.88672,2.77051A2.2557,2.2557,0,0,0,411.55176,59.93457Z" fill="gray"/><path d="M415.76758,51.36719a1.2117,1.2117,0,1,1,1.207,1.10547A1.1228,1.1228,0,0,1,415.76758,51.36719Zm2.17578,2.56738v8.3457h-1.9541v-8.3457Z" fill="gray"/><path d="M420.73145,59.459V55.48145H419.541V54.01953l1.292-.085.23828-2.27832h1.63183v2.27832h2.124v1.54688h-2.124V59.459c0,.98536.374,1.46192,1.17286,1.46192a2.395,2.395,0,0,0,.86621-.1875l.34082,1.44531a5.3512,5.3512,0,0,1-1.7002.30567C421.44531,62.48438,420.73145,61.26074,420.73145,59.459Z" fill="gray"/><path d="M429.14648,60.9541l.93457-1.25781a3.53317,3.53317,0,0,0,2.56641,1.19043c1.17285,0,1.98926-.61231,1.98926-1.63184,0-1.12207-.71387-1.83593-3.17871-1.83593V55.99121c2.125,0,2.82129-.73144,2.82129-1.73437a1.41089,1.41089,0,0,0-1.59766-1.44434,3.154,3.154,0,0,0-2.17578,1.01953l-1.00293-1.207A4.77469,4.77469,0,0,1,432.75,51.26562c2.07324,0,3.502,1.01954,3.502,2.85547a2.59464,2.59464,0,0,1-1.88769,2.48145v.06836a2.74992,2.74992,0,0,1,2.24414,2.68555c0,1.97167-1.7168,3.12793-3.791,3.12793A4.69742,4.69742,0,0,1,429.14648,60.9541Z" fill="gray"/><path d="M495.23828,58.11523c0-2.71972,1.88672-4.38476,3.84082-4.38476,2.26172,0,3.45117,1.63183,3.45117,3.96a4.57287,4.57287,0,0,1-.085.95215H497.1416a2.38952,2.38952,0,0,0,2.46485,2.3291,3.48748,3.48748,0,0,0,1.9375-.6123L502.207,61.583a5.263,5.263,0,0,1-2.85547.90137A4.02476,4.02476,0,0,1,495.23828,58.11523Zm3.89258-2.87207a2.09537,2.09537,0,0,0-2.00586,2.07325h3.70508C500.83008,56.02441,500.26953,55.24316,499.13086,55.24316Z" fill="gray"/><path d="M503.89062,58.11523c0-2.71972,1.71778-4.38476,3.53614-4.38476a3.07712,3.07712,0,0,1,2.19238.918l-.06738-1.34278V50.2793h1.9541v12.001H509.8916l-.13574-.90136h-.06836a3.47778,3.47778,0,0,1-2.3623,1.10547C505.23438,62.48438,503.89062,60.86914,503.89062,58.11523Zm5.66114,1.81934V56.042a2.48983,2.48983,0,0,0-1.7002-.69726c-1.07031,0-1.9375,1.00293-1.9375,2.7539,0,1.80176.67969,2.77051,1.88672,2.77051A2.2557,2.2557,0,0,0,509.55176,59.93457Z" fill="gray"/><path d="M513.76758,51.36719a1.2117,1.2117,0,1,1,1.207,1.10547A1.1228,1.1228,0,0,1,513.76758,51.36719Zm2.17578,2.56738v8.3457h-1.9541v-8.3457Z" fill="gray"/><path d="M518.73145,59.459V55.48145H517.541V54.01953l1.292-.085.23828-2.27832h1.63183v2.27832h2.124v1.54688h-2.124V59.459c0,.98536.374,1.46192,1.17286,1.46192a2.395,2.395,0,0,0,.86621-.1875l.34082,1.44531a5.3512,5.3512,0,0,1-1.7002.30567C519.44531,62.48438,518.73145,61.26074,518.73145,59.459Z" fill="gray"/><path d="M527.044,59.49219V58.167l4.28417-6.69726h2.32813v6.50976h1.36035v1.5127h-1.36035v2.78808h-1.83594V59.49219Zm4.77636-3.96c0-.62891.05176-1.61524.085-2.24414h-.06738c-.27246.56054-.57812,1.10546-.88379,1.68261l-1.97168,3.00879h2.83789Z" fill="gray"/><path d="M593.23828,58.11523c0-2.71972,1.88672-4.38476,3.84082-4.38476,2.26172,0,3.45117,1.63183,3.45117,3.96a4.57287,4.57287,0,0,1-.085.95215H595.1416a2.38952,2.38952,0,0,0,2.46485,2.3291,3.48748,3.48748,0,0,0,1.9375-.6123L600.207,61.583a5.263,5.263,0,0,1-2.85547.90137A4.02476,4.02476,0,0,1,593.23828,58.11523Zm3.89258-2.87207a2.09537,2.09537,0,0,0-2.00586,2.07325h3.70508C598.83008,56.02441,598.26953,55.24316,597.13086,55.24316Z" fill="gray"/><path d="M601.89062,58.11523c0-2.71972,1.71778-4.38476,3.53614-4.38476a3.07712,3.07712,0,0,1,2.19238.918l-.06738-1.34278V50.2793h1.9541v12.001H607.8916l-.13574-.90136h-.06836a3.47778,3.47778,0,0,1-2.3623,1.10547C603.23438,62.48438,601.89062,60.86914,601.89062,58.11523Zm5.66114,1.81934V56.042a2.48983,2.48983,0,0,0-1.7002-.69726c-1.07031,0-1.9375,1.00293-1.9375,2.7539,0,1.80176.67969,2.77051,1.88672,2.77051A2.2557,2.2557,0,0,0,607.55176,59.93457Z" fill="gray"/><path d="M611.76758,51.36719a1.2117,1.2117,0,1,1,1.207,1.10547A1.1228,1.1228,0,0,1,611.76758,51.36719Zm2.17578,2.56738v8.3457h-1.9541v-8.3457Z" fill="gray"/><path d="M616.73145,59.459V55.48145H615.541V54.01953l1.292-.085.23828-2.27832h1.63183v2.27832h2.124v1.54688h-2.124V59.459c0,.98536.374,1.46192,1.17286,1.46192a2.395,2.395,0,0,0,.86621-.1875l.34082,1.44531a5.3512,5.3512,0,0,1-1.7002.30567C617.44531,62.48438,616.73145,61.26074,616.73145,59.459Z" fill="gray"/><path d="M625.14648,60.98828l.9004-1.25781a3.62509,3.62509,0,0,0,2.5332,1.15625,1.95845,1.95845,0,0,0,2.09082-2.07422A1.85726,1.85726,0,0,0,628.68164,56.79a2.77182,2.77182,0,0,0-1.7334.61133l-.93554-.59473.32324-5.33691h5.77929v1.64843h-4.0791l-.2207,2.61817a3.05265,3.05265,0,0,1,1.42773-.35742,3.14217,3.14217,0,0,1,3.39942,3.38281,3.64487,3.64487,0,0,1-3.80762,3.72266A4.962,4.962,0,0,1,625.14648,60.98828Z" fill="gray"/><path d="M201.2373,102.11523c0-2.71972,1.8877-4.38476,3.8418-4.38476,2.26074,0,3.45117,1.63183,3.45117,3.96a4.57287,4.57287,0,0,1-.085.95215H203.1416a2.38952,2.38952,0,0,0,2.46485,2.3291,3.48748,3.48748,0,0,0,1.9375-.6123l.66308,1.22363a5.263,5.263,0,0,1-2.85547.90137A4.025,4.025,0,0,1,201.2373,102.11523Zm3.89258-2.87207a2.09524,2.09524,0,0,0-2.00488,2.07325h3.70508C206.83008,100.02441,206.26953,99.24316,205.12988,99.24316Z" fill="#1a1a1a"/><path d="M209.89062,102.11523c0-2.71972,1.7168-4.38476,3.53516-4.38476a3.08112,3.08112,0,0,1,2.19336.918l-.06836-1.34278V94.2793h1.95508v12.001h-1.61524l-.13574-.90136h-.06836a3.47382,3.47382,0,0,1-2.3623,1.10547C211.2334,106.48438,209.89062,104.86914,209.89062,102.11523Zm5.66016,1.81934V100.042a2.48933,2.48933,0,0,0-1.69922-.69726c-1.07129,0-1.93847,1.00293-1.93847,2.7539,0,1.80176.67968,2.77051,1.88671,2.77051A2.25286,2.25286,0,0,0,215.55078,103.93457Z" fill="#1a1a1a"/><path d="M219.76758,95.36719a1.2117,1.2117,0,1,1,1.207,1.10547A1.1228,1.1228,0,0,1,219.76758,95.36719Zm2.17578,2.56738v8.3457h-1.9541v-8.3457Z" fill="#1a1a1a"/><path d="M224.73145,103.459V99.48145H223.541V98.01953l1.292-.085.23828-2.27832h1.63183v2.27832h2.124v1.54688h-2.124V103.459c0,.98536.374,1.46192,1.17286,1.46192a2.395,2.395,0,0,0,.86621-.1875l.34082,1.44531a5.3512,5.3512,0,0,1-1.7002.30567C225.44531,106.48438,224.73145,105.26074,224.73145,103.459Z" fill="#1a1a1a"/><path d="M236.41016,104.68262V97.57715H234.4209V96.35352a7.28061,7.28061,0,0,0,2.499-.88379h1.46192v9.21289h2.125v1.59765h-6.51075v-1.59765Z" fill="#1a1a1a"/><path d="M299.23828,102.11523c0-2.71972,1.88672-4.38476,3.84082-4.38476,2.26172,0,3.45117,1.63183,3.45117,3.96a4.57287,4.57287,0,0,1-.085.95215H301.1416a2.38952,2.38952,0,0,0,2.46485,2.3291,3.48748,3.48748,0,0,0,1.9375-.6123l.66308,1.22363a5.263,5.263,0,0,1-2.85547.90137A4.02476,4.02476,0,0,1,299.23828,102.11523Zm3.89258-2.87207a2.09537,2.09537,0,0,0-2.00586,2.07325h3.70508C304.83008,100.02441,304.26953,99.24316,303.13086,99.24316Z" fill="#1a1a1a"/><path d="M307.89062,102.11523c0-2.71972,1.71778-4.38476,3.53614-4.38476a3.07712,3.07712,0,0,1,2.19238.918l-.06738-1.34278V94.2793h1.9541v12.001H313.8916l-.13574-.90136h-.06836a3.47778,3.47778,0,0,1-2.3623,1.10547C309.23438,106.48438,307.89062,104.86914,307.89062,102.11523Zm5.66114,1.81934V100.042a2.48983,2.48983,0,0,0-1.7002-.69726c-1.07031,0-1.9375,1.00293-1.9375,2.7539,0,1.80176.67969,2.77051,1.88672,2.77051A2.2557,2.2557,0,0,0,313.55176,103.93457Z" fill="#1a1a1a"/><path d="M317.76758,95.36719a1.2117,1.2117,0,1,1,1.207,1.10547A1.1228,1.1228,0,0,1,317.76758,95.36719Zm2.17578,2.56738v8.3457h-1.9541v-8.3457Z" fill="#1a1a1a"/><path d="M322.73145,103.459V99.48145H321.541V98.01953l1.292-.085.23828-2.27832h1.63183v2.27832h2.124v1.54688h-2.124V103.459c0,.98536.374,1.46192,1.17286,1.46192a2.395,2.395,0,0,0,.86621-.1875l.34082,1.44531a5.3512,5.3512,0,0,1-1.7002.30567C323.44531,106.48438,322.73145,105.26074,322.73145,103.459Z" fill="#1a1a1a"/><path d="M336.2793,98.68164a1.67632,1.67632,0,0,0-1.78418-1.86914,2.9874,2.9874,0,0,0-2.1084,1.207l-1.08789-1.08789a4.42463,4.42463,0,0,1,3.45117-1.666,3.16011,3.16011,0,0,1,3.417,3.31446c0,1.9209-1.78515,3.89258-3.92676,6.15332.56055-.05078,1.27442-.11914,1.80176-.11914h2.65137v1.666h-7.30957V105.1416C334.39258,102.23438,336.2793,100.33105,336.2793,98.68164Z" fill="#1a1a1a"/><path d="M397.23828,102.11523c0-2.71972,1.88672-4.38476,3.84082-4.38476,2.26172,0,3.45117,1.63183,3.45117,3.96a4.57287,4.57287,0,0,1-.085.95215H399.1416a2.38952,2.38952,0,0,0,2.46485,2.3291,3.48748,3.48748,0,0,0,1.9375-.6123l.66308,1.22363a5.263,5.263,0,0,1-2.85547.90137A4.02476,4.02476,0,0,1,397.23828,102.11523Zm3.89258-2.87207a2.09537,2.09537,0,0,0-2.00586,2.07325h3.70508C402.83008,100.02441,402.26953,99.24316,401.13086,99.24316Z" fill="#1a1a1a"/><path d="M405.89062,102.11523c0-2.71972,1.71778-4.38476,3.53614-4.38476a3.07712,3.07712,0,0,1,2.19238.918l-.06738-1.34278V94.2793h1.9541v12.001H411.8916l-.13574-.90136h-.06836a3.47778,3.47778,0,0,1-2.3623,1.10547C407.23438,106.48438,405.89062,104.86914,405.89062,102.11523Zm5.66114,1.81934V100.042a2.48983,2.48983,0,0,0-1.7002-.69726c-1.07031,0-1.9375,1.00293-1.9375,2.7539,0,1.80176.67969,2.77051,1.88672,2.77051A2.2557,2.2557,0,0,0,411.55176,103.93457Z" fill="#1a1a1a"/><path d="M415.76758,95.36719a1.2117,1.2117,0,1,1,1.207,1.10547A1.1228,1.1228,0,0,1,415.76758,95.36719Zm2.17578,2.56738v8.3457h-1.9541v-8.3457Z" fill="#1a1a1a"/><path d="M420.73145,103.459V99.48145H419.541V98.01953l1.292-.085.23828-2.27832h1.63183v2.27832h2.124v1.54688h-2.124V103.459c0,.98536.374,1.46192,1.17286,1.46192a2.395,2.395,0,0,0,.86621-.1875l.34082,1.44531a5.3512,5.3512,0,0,1-1.7002.30567C421.44531,106.48438,420.73145,105.26074,420.73145,103.459Z" fill="#1a1a1a"/><path d="M429.14648,104.9541l.93457-1.25781a3.53317,3.53317,0,0,0,2.56641,1.19043c1.17285,0,1.98926-.61231,1.98926-1.63184,0-1.12207-.71387-1.83593-3.17871-1.83593V99.99121c2.125,0,2.82129-.73144,2.82129-1.73437a1.41089,1.41089,0,0,0-1.59766-1.44434,3.154,3.154,0,0,0-2.17578,1.01953l-1.00293-1.207A4.77469,4.77469,0,0,1,432.75,95.26562c2.07324,0,3.502,1.01954,3.502,2.85547a2.59464,2.59464,0,0,1-1.88769,2.48145v.06836a2.74992,2.74992,0,0,1,2.24414,2.68555c0,1.97167-1.7168,3.12793-3.791,3.12793A4.69742,4.69742,0,0,1,429.14648,104.9541Z" fill="#1a1a1a"/><path d="M495.23828,102.11523c0-2.71972,1.88672-4.38476,3.84082-4.38476,2.26172,0,3.45117,1.63183,3.45117,3.96a4.57287,4.57287,0,0,1-.085.95215H497.1416a2.38952,2.38952,0,0,0,2.46485,2.3291,3.48748,3.48748,0,0,0,1.9375-.6123l.66308,1.22363a5.263,5.263,0,0,1-2.85547.90137A4.02476,4.02476,0,0,1,495.23828,102.11523Zm3.89258-2.87207a2.09537,2.09537,0,0,0-2.00586,2.07325h3.70508C500.83008,100.02441,500.26953,99.24316,499.13086,99.24316Z" fill="gray"/><path d="M503.89062,102.11523c0-2.71972,1.71778-4.38476,3.53614-4.38476a3.07712,3.07712,0,0,1,2.19238.918l-.06738-1.34278V94.2793h1.9541v12.001H509.8916l-.13574-.90136h-.06836a3.47778,3.47778,0,0,1-2.3623,1.10547C505.23438,106.48438,503.89062,104.86914,503.89062,102.11523Zm5.66114,1.81934V100.042a2.48983,2.48983,0,0,0-1.7002-.69726c-1.07031,0-1.9375,1.00293-1.9375,2.7539,0,1.80176.67969,2.77051,1.88672,2.77051A2.2557,2.2557,0,0,0,509.55176,103.93457Z" fill="gray"/><path d="M513.76758,95.36719a1.2117,1.2117,0,1,1,1.207,1.10547A1.1228,1.1228,0,0,1,513.76758,95.36719Zm2.17578,2.56738v8.3457h-1.9541v-8.3457Z" fill="gray"/><path d="M518.73145,103.459V99.48145H517.541V98.01953l1.292-.085.23828-2.27832h1.63183v2.27832h2.124v1.54688h-2.124V103.459c0,.98536.374,1.46192,1.17286,1.46192a2.395,2.395,0,0,0,.86621-.1875l.34082,1.44531a5.3512,5.3512,0,0,1-1.7002.30567C519.44531,106.48438,518.73145,105.26074,518.73145,103.459Z" fill="gray"/><path d="M527.044,103.49219V102.167l4.28417-6.69726h2.32813v6.50976h1.36035v1.5127h-1.36035v2.78808h-1.83594v-2.78808Zm4.77636-3.96c0-.62891.05176-1.61524.085-2.24414h-.06738c-.27246.56054-.57812,1.10546-.88379,1.68261l-1.97168,3.00879h2.83789Z" fill="gray"/><path d="M593.23828,102.11523c0-2.71972,1.88672-4.38476,3.84082-4.38476,2.26172,0,3.45117,1.63183,3.45117,3.96a4.57287,4.57287,0,0,1-.085.95215H595.1416a2.38952,2.38952,0,0,0,2.46485,2.3291,3.48748,3.48748,0,0,0,1.9375-.6123l.66308,1.22363a5.263,5.263,0,0,1-2.85547.90137A4.02476,4.02476,0,0,1,593.23828,102.11523Zm3.89258-2.87207a2.09537,2.09537,0,0,0-2.00586,2.07325h3.70508C598.83008,100.02441,598.26953,99.24316,597.13086,99.24316Z" fill="gray"/><path d="M601.89062,102.11523c0-2.71972,1.71778-4.38476,3.53614-4.38476a3.07712,3.07712,0,0,1,2.19238.918l-.06738-1.34278V94.2793h1.9541v12.001H607.8916l-.13574-.90136h-.06836a3.47778,3.47778,0,0,1-2.3623,1.10547C603.23438,106.48438,601.89062,104.86914,601.89062,102.11523Zm5.66114,1.81934V100.042a2.48983,2.48983,0,0,0-1.7002-.69726c-1.07031,0-1.9375,1.00293-1.9375,2.7539,0,1.80176.67969,2.77051,1.88672,2.77051A2.2557,2.2557,0,0,0,607.55176,103.93457Z" fill="gray"/><path d="M611.76758,95.36719a1.2117,1.2117,0,1,1,1.207,1.10547A1.1228,1.1228,0,0,1,611.76758,95.36719Zm2.17578,2.56738v8.3457h-1.9541v-8.3457Z" fill="gray"/><path d="M616.73145,103.459V99.48145H615.541V98.01953l1.292-.085.23828-2.27832h1.63183v2.27832h2.124v1.54688h-2.124V103.459c0,.98536.374,1.46192,1.17286,1.46192a2.395,2.395,0,0,0,.86621-.1875l.34082,1.44531a5.3512,5.3512,0,0,1-1.7002.30567C617.44531,106.48438,616.73145,105.26074,616.73145,103.459Z" fill="gray"/><path d="M625.14648,104.98828l.9004-1.25781a3.62509,3.62509,0,0,0,2.5332,1.15625,1.95845,1.95845,0,0,0,2.09082-2.07422,1.85726,1.85726,0,0,0-1.98926-2.02246,2.77182,2.77182,0,0,0-1.7334.61133l-.93554-.59473.32324-5.33691h5.77929v1.64843h-4.0791l-.2207,2.61817a3.05265,3.05265,0,0,1,1.42773-.35742,3.14217,3.14217,0,0,1,3.39942,3.38281,3.64487,3.64487,0,0,1-3.80762,3.72266A4.962,4.962,0,0,1,625.14648,104.98828Z" fill="gray"/><path d="M495.23828,141.11523c0-2.71972,1.88672-4.38476,3.84082-4.38476,2.26172,0,3.45117,1.63183,3.45117,3.96a4.57287,4.57287,0,0,1-.085.95215H497.1416a2.38952,2.38952,0,0,0,2.46485,2.3291,3.48748,3.48748,0,0,0,1.9375-.6123l.66308,1.22363a5.263,5.263,0,0,1-2.85547.90137A4.02476,4.02476,0,0,1,495.23828,141.11523Zm3.89258-2.87207a2.09537,2.09537,0,0,0-2.00586,2.07325h3.70508C500.83008,139.02441,500.26953,138.24316,499.13086,138.24316Z" fill="gray"/><path d="M503.89062,141.11523c0-2.71972,1.71778-4.38476,3.53614-4.38476a3.07712,3.07712,0,0,1,2.19238.918l-.06738-1.34278V133.2793h1.9541v12.001H509.8916l-.13574-.90136h-.06836a3.47778,3.47778,0,0,1-2.3623,1.10547C505.23438,145.48438,503.89062,143.86914,503.89062,141.11523Zm5.66114,1.81934V139.042a2.48983,2.48983,0,0,0-1.7002-.69726c-1.07031,0-1.9375,1.00293-1.9375,2.7539,0,1.80176.67969,2.77051,1.88672,2.77051A2.2557,2.2557,0,0,0,509.55176,142.93457Z" fill="gray"/><path d="M513.76758,134.36719a1.2117,1.2117,0,1,1,1.207,1.10547A1.1228,1.1228,0,0,1,513.76758,134.36719Zm2.17578,2.56738v8.3457h-1.9541v-8.3457Z" fill="gray"/><path d="M518.73145,142.459v-3.97753H517.541v-1.46192l1.292-.085.23828-2.27832h1.63183v2.27832h2.124v1.54688h-2.124V142.459c0,.98536.374,1.46192,1.17286,1.46192a2.395,2.395,0,0,0,.86621-.1875l.34082,1.44531a5.3512,5.3512,0,0,1-1.7002.30567C519.44531,145.48438,518.73145,144.26074,518.73145,142.459Z" fill="gray"/><path d="M527.044,142.49219V141.167l4.28417-6.69726h2.32813v6.50976h1.36035v1.5127h-1.36035v2.78808h-1.83594v-2.78808Zm4.77636-3.96c0-.62891.05176-1.61524.085-2.24414h-.06738c-.27246.56054-.57812,1.10546-.88379,1.68261l-1.97168,3.00879h2.83789Z" fill="gray"/><path d="M593.23828,141.11523c0-2.71972,1.88672-4.38476,3.84082-4.38476,2.26172,0,3.45117,1.63183,3.45117,3.96a4.57287,4.57287,0,0,1-.085.95215H595.1416a2.38952,2.38952,0,0,0,2.46485,2.3291,3.48748,3.48748,0,0,0,1.9375-.6123l.66308,1.22363a5.263,5.263,0,0,1-2.85547.90137A4.02476,4.02476,0,0,1,593.23828,141.11523Zm3.89258-2.87207a2.09537,2.09537,0,0,0-2.00586,2.07325h3.70508C598.83008,139.02441,598.26953,138.24316,597.13086,138.24316Z" fill="gray"/><path d="M601.89062,141.11523c0-2.71972,1.71778-4.38476,3.53614-4.38476a3.07712,3.07712,0,0,1,2.19238.918l-.06738-1.34278V133.2793h1.9541v12.001H607.8916l-.13574-.90136h-.06836a3.47778,3.47778,0,0,1-2.3623,1.10547C603.23438,145.48438,601.89062,143.86914,601.89062,141.11523Zm5.66114,1.81934V139.042a2.48983,2.48983,0,0,0-1.7002-.69726c-1.07031,0-1.9375,1.00293-1.9375,2.7539,0,1.80176.67969,2.77051,1.88672,2.77051A2.2557,2.2557,0,0,0,607.55176,142.93457Z" fill="gray"/><path d="M611.76758,134.36719a1.2117,1.2117,0,1,1,1.207,1.10547A1.1228,1.1228,0,0,1,611.76758,134.36719Zm2.17578,2.56738v8.3457h-1.9541v-8.3457Z" fill="gray"/><path d="M616.73145,142.459v-3.97753H615.541v-1.46192l1.292-.085.23828-2.27832h1.63183v2.27832h2.124v1.54688h-2.124V142.459c0,.98536.374,1.46192,1.17286,1.46192a2.395,2.395,0,0,0,.86621-.1875l.34082,1.44531a5.3512,5.3512,0,0,1-1.7002.30567C617.44531,145.48438,616.73145,144.26074,616.73145,142.459Z" fill="gray"/><path d="M625.14648,143.98828l.9004-1.25781a3.62509,3.62509,0,0,0,2.5332,1.15625,1.95845,1.95845,0,0,0,2.09082-2.07422,1.85726,1.85726,0,0,0-1.98926-2.02246,2.77182,2.77182,0,0,0-1.7334.61133l-.93554-.59473.32324-5.33691h5.77929v1.64843h-4.0791l-.2207,2.61817a3.05265,3.05265,0,0,1,1.42773-.35742,3.14217,3.14217,0,0,1,3.39942,3.38281,3.64487,3.64487,0,0,1-3.80762,3.72266A4.962,4.962,0,0,1,625.14648,143.98828Z" fill="gray"/><path d="M201.2373,156.11523c0-2.71972,1.8877-4.38476,3.8418-4.38476,2.26074,0,3.45117,1.63183,3.45117,3.96a4.57287,4.57287,0,0,1-.085.95215H203.1416a2.38952,2.38952,0,0,0,2.46485,2.3291,3.48748,3.48748,0,0,0,1.9375-.6123l.66308,1.22363a5.263,5.263,0,0,1-2.85547.90137A4.025,4.025,0,0,1,201.2373,156.11523Zm3.89258-2.87207a2.09524,2.09524,0,0,0-2.00488,2.07325h3.70508C206.83008,154.02441,206.26953,153.24316,205.12988,153.24316Z" fill="#1a1a1a"/><path d="M209.89062,156.11523c0-2.71972,1.7168-4.38476,3.53516-4.38476a3.08112,3.08112,0,0,1,2.19336.918l-.06836-1.34278V148.2793h1.95508v12.001h-1.61524l-.13574-.90136h-.06836a3.47382,3.47382,0,0,1-2.3623,1.10547C211.2334,160.48438,209.89062,158.86914,209.89062,156.11523Zm5.66016,1.81934V154.042a2.48933,2.48933,0,0,0-1.69922-.69726c-1.07129,0-1.93847,1.00293-1.93847,2.7539,0,1.80176.67968,2.77051,1.88671,2.77051A2.25286,2.25286,0,0,0,215.55078,157.93457Z" fill="#1a1a1a"/><path d="M219.76758,149.36719a1.2117,1.2117,0,1,1,1.207,1.10547A1.1228,1.1228,0,0,1,219.76758,149.36719Zm2.17578,2.56738v8.3457h-1.9541v-8.3457Z" fill="#1a1a1a"/><path d="M224.73145,157.459v-3.97753H223.541v-1.46192l1.292-.085.23828-2.27832h1.63183v2.27832h2.124v1.54688h-2.124V157.459c0,.98536.374,1.46192,1.17286,1.46192a2.395,2.395,0,0,0,.86621-.1875l.34082,1.44531a5.3512,5.3512,0,0,1-1.7002.30567C225.44531,160.48438,224.73145,159.26074,224.73145,157.459Z" fill="#1a1a1a"/><path d="M236.41016,158.68262v-7.10547H234.4209v-1.22363a7.28061,7.28061,0,0,0,2.499-.88379h1.46192v9.21289h2.125v1.59765h-6.51075v-1.59765Z" fill="#1a1a1a"/><path d="M299.23828,156.11523c0-2.71972,1.88672-4.38476,3.84082-4.38476,2.26172,0,3.45117,1.63183,3.45117,3.96a4.57287,4.57287,0,0,1-.085.95215H301.1416a2.38952,2.38952,0,0,0,2.46485,2.3291,3.48748,3.48748,0,0,0,1.9375-.6123l.66308,1.22363a5.263,5.263,0,0,1-2.85547.90137A4.02476,4.02476,0,0,1,299.23828,156.11523Zm3.89258-2.87207a2.09537,2.09537,0,0,0-2.00586,2.07325h3.70508C304.83008,154.02441,304.26953,153.24316,303.13086,153.24316Z" fill="#1a1a1a"/><path d="M307.89062,156.11523c0-2.71972,1.71778-4.38476,3.53614-4.38476a3.07712,3.07712,0,0,1,2.19238.918l-.06738-1.34278V148.2793h1.9541v12.001H313.8916l-.13574-.90136h-.06836a3.47778,3.47778,0,0,1-2.3623,1.10547C309.23438,160.48438,307.89062,158.86914,307.89062,156.11523Zm5.66114,1.81934V154.042a2.48983,2.48983,0,0,0-1.7002-.69726c-1.07031,0-1.9375,1.00293-1.9375,2.7539,0,1.80176.67969,2.77051,1.88672,2.77051A2.2557,2.2557,0,0,0,313.55176,157.93457Z" fill="#1a1a1a"/><path d="M317.76758,149.36719a1.2117,1.2117,0,1,1,1.207,1.10547A1.1228,1.1228,0,0,1,317.76758,149.36719Zm2.17578,2.56738v8.3457h-1.9541v-8.3457Z" fill="#1a1a1a"/><path d="M322.73145,157.459v-3.97753H321.541v-1.46192l1.292-.085.23828-2.27832h1.63183v2.27832h2.124v1.54688h-2.124V157.459c0,.98536.374,1.46192,1.17286,1.46192a2.395,2.395,0,0,0,.86621-.1875l.34082,1.44531a5.3512,5.3512,0,0,1-1.7002.30567C323.44531,160.48438,322.73145,159.26074,322.73145,157.459Z" fill="#1a1a1a"/><path d="M336.2793,152.68164a1.67632,1.67632,0,0,0-1.78418-1.86914,2.9874,2.9874,0,0,0-2.1084,1.207l-1.08789-1.08789a4.42463,4.42463,0,0,1,3.45117-1.666,3.16011,3.16011,0,0,1,3.417,3.31446c0,1.9209-1.78515,3.89258-3.92676,6.15332.56055-.05078,1.27442-.11914,1.80176-.11914h2.65137v1.666h-7.30957V159.1416C334.39258,156.23438,336.2793,154.33105,336.2793,152.68164Z" fill="#1a1a1a"/><path d="M397.23828,156.11523c0-2.71972,1.88672-4.38476,3.84082-4.38476,2.26172,0,3.45117,1.63183,3.45117,3.96a4.57287,4.57287,0,0,1-.085.95215H399.1416a2.38952,2.38952,0,0,0,2.46485,2.3291,3.48748,3.48748,0,0,0,1.9375-.6123l.66308,1.22363a5.263,5.263,0,0,1-2.85547.90137A4.02476,4.02476,0,0,1,397.23828,156.11523Zm3.89258-2.87207a2.09537,2.09537,0,0,0-2.00586,2.07325h3.70508C402.83008,154.02441,402.26953,153.24316,401.13086,153.24316Z" fill="#1a1a1a"/><path d="M405.89062,156.11523c0-2.71972,1.71778-4.38476,3.53614-4.38476a3.07712,3.07712,0,0,1,2.19238.918l-.06738-1.34278V148.2793h1.9541v12.001H411.8916l-.13574-.90136h-.06836a3.47778,3.47778,0,0,1-2.3623,1.10547C407.23438,160.48438,405.89062,158.86914,405.89062,156.11523Zm5.66114,1.81934V154.042a2.48983,2.48983,0,0,0-1.7002-.69726c-1.07031,0-1.9375,1.00293-1.9375,2.7539,0,1.80176.67969,2.77051,1.88672,2.77051A2.2557,2.2557,0,0,0,411.55176,157.93457Z" fill="#1a1a1a"/><path d="M415.76758,149.36719a1.2117,1.2117,0,1,1,1.207,1.10547A1.1228,1.1228,0,0,1,415.76758,149.36719Zm2.17578,2.56738v8.3457h-1.9541v-8.3457Z" fill="#1a1a1a"/><path d="M420.73145,157.459v-3.97753H419.541v-1.46192l1.292-.085.23828-2.27832h1.63183v2.27832h2.124v1.54688h-2.124V157.459c0,.98536.374,1.46192,1.17286,1.46192a2.395,2.395,0,0,0,.86621-.1875l.34082,1.44531a5.3512,5.3512,0,0,1-1.7002.30567C421.44531,160.48438,420.73145,159.26074,420.73145,157.459Z" fill="#1a1a1a"/><path d="M429.14648,158.9541l.93457-1.25781a3.53317,3.53317,0,0,0,2.56641,1.19043c1.17285,0,1.98926-.61231,1.98926-1.63184,0-1.12207-.71387-1.83593-3.17871-1.83593v-1.42774c2.125,0,2.82129-.73144,2.82129-1.73437a1.41089,1.41089,0,0,0-1.59766-1.44434,3.154,3.154,0,0,0-2.17578,1.01953l-1.00293-1.207a4.77469,4.77469,0,0,1,3.24707-1.35938c2.07324,0,3.502,1.01954,3.502,2.85547a2.59464,2.59464,0,0,1-1.88769,2.48145v.06836a2.74992,2.74992,0,0,1,2.24414,2.68555c0,1.97167-1.7168,3.12793-3.791,3.12793A4.69742,4.69742,0,0,1,429.14648,158.9541Z" fill="#1a1a1a"/><path d="M495.23828,171.11523c0-2.71972,1.88672-4.38476,3.84082-4.38476,2.26172,0,3.45117,1.63183,3.45117,3.96a4.57287,4.57287,0,0,1-.085.95215H497.1416a2.38952,2.38952,0,0,0,2.46485,2.3291,3.48748,3.48748,0,0,0,1.9375-.6123l.66308,1.22363a5.263,5.263,0,0,1-2.85547.90137A4.02476,4.02476,0,0,1,495.23828,171.11523Zm3.89258-2.87207a2.09537,2.09537,0,0,0-2.00586,2.07325h3.70508C500.83008,169.02441,500.26953,168.24316,499.13086,168.24316Z" fill="#1a1a1a"/><path d="M503.89062,171.11523c0-2.71972,1.71778-4.38476,3.53614-4.38476a3.07712,3.07712,0,0,1,2.19238.918l-.06738-1.34278V163.2793h1.9541v12.001H509.8916l-.13574-.90136h-.06836a3.47778,3.47778,0,0,1-2.3623,1.10547C505.23438,175.48438,503.89062,173.86914,503.89062,171.11523Zm5.66114,1.81934V169.042a2.48983,2.48983,0,0,0-1.7002-.69726c-1.07031,0-1.9375,1.00293-1.9375,2.7539,0,1.80176.67969,2.77051,1.88672,2.77051A2.2557,2.2557,0,0,0,509.55176,172.93457Z" fill="#1a1a1a"/><path d="M513.76758,164.36719a1.2117,1.2117,0,1,1,1.207,1.10547A1.1228,1.1228,0,0,1,513.76758,164.36719Zm2.17578,2.56738v8.3457h-1.9541v-8.3457Z" fill="#1a1a1a"/><path d="M518.73145,172.459v-3.97753H517.541v-1.46192l1.292-.085.23828-2.27832h1.63183v2.27832h2.124v1.54688h-2.124V172.459c0,.98536.374,1.46192,1.17286,1.46192a2.395,2.395,0,0,0,.86621-.1875l.34082,1.44531a5.3512,5.3512,0,0,1-1.7002.30567C519.44531,175.48438,518.73145,174.26074,518.73145,172.459Z" fill="#1a1a1a"/><path d="M527.48633,170.19824c0-4.19922,2.04-5.93262,4.249-5.93262a3.8563,3.8563,0,0,1,2.89063,1.22364l-1.05469,1.18945a2.33335,2.33335,0,0,0-1.7168-.81543c-1.35937,0-2.46484,1.00293-2.5498,3.99414a3.19826,3.19826,0,0,1,2.3457-1.27441c1.87012,0,3.16211,1.08789,3.16211,3.34863a3.37389,3.37389,0,0,1-3.39941,3.55274C529.28809,175.48438,527.48633,173.835,527.48633,170.19824Zm5.50683,1.7334c0-1.27441-.6289-1.9209-1.69921-1.9209a2.41477,2.41477,0,0,0-1.9375,1.24121c.20312,1.9209.96875,2.73633,2.02246,2.73633C532.2793,173.98828,532.99316,173.25781,532.99316,171.93164Z" fill="#1a1a1a"/><path d="M593.23828,171.11523c0-2.71972,1.88672-4.38476,3.84082-4.38476,2.26172,0,3.45117,1.63183,3.45117,3.96a4.57287,4.57287,0,0,1-.085.95215H595.1416a2.38952,2.38952,0,0,0,2.46485,2.3291,3.48748,3.48748,0,0,0,1.9375-.6123l.66308,1.22363a5.263,5.263,0,0,1-2.85547.90137A4.02476,4.02476,0,0,1,593.23828,171.11523Zm3.89258-2.87207a2.09537,2.09537,0,0,0-2.00586,2.07325h3.70508C598.83008,169.02441,598.26953,168.24316,597.13086,168.24316Z" fill="#1a1a1a"/><path d="M601.89062,171.11523c0-2.71972,1.71778-4.38476,3.53614-4.38476a3.07712,3.07712,0,0,1,2.19238.918l-.06738-1.34278V163.2793h1.9541v12.001H607.8916l-.13574-.90136h-.06836a3.47778,3.47778,0,0,1-2.3623,1.10547C603.23438,175.48438,601.89062,173.86914,601.89062,171.11523Zm5.66114,1.81934V169.042a2.48983,2.48983,0,0,0-1.7002-.69726c-1.07031,0-1.9375,1.00293-1.9375,2.7539,0,1.80176.67969,2.77051,1.88672,2.77051A2.2557,2.2557,0,0,0,607.55176,172.93457Z" fill="#1a1a1a"/><path d="M611.76758,164.36719a1.2117,1.2117,0,1,1,1.207,1.10547A1.1228,1.1228,0,0,1,611.76758,164.36719Zm2.17578,2.56738v8.3457h-1.9541v-8.3457Z" fill="#1a1a1a"/><path d="M616.73145,172.459v-3.97753H615.541v-1.46192l1.292-.085.23828-2.27832h1.63183v2.27832h2.124v1.54688h-2.124V172.459c0,.98536.374,1.46192,1.17286,1.46192a2.395,2.395,0,0,0,.86621-.1875l.34082,1.44531a5.3512,5.3512,0,0,1-1.7002.30567C617.44531,175.48438,616.73145,174.26074,616.73145,172.459Z" fill="#1a1a1a"/><path d="M630.60254,166.11816h-5.11621v-1.64843h7.25781v1.18945c-2.53223,3.14453-2.97461,5.40527-3.16113,9.62109h-1.98926A15.14646,15.14646,0,0,1,630.60254,166.11816Z" fill="#1a1a1a"/></svg>