<svg xmlns="http://www.w3.org/2000/svg" xmlns:xlink="http://www.w3.org/1999/xlink" viewBox="0 0 1080 856"><defs><linearGradient id="a" x1="138.1674" y1="123.23038" x2="138.1674" y2="160.57292" gradientUnits="userSpaceOnUse"><stop offset="0" stop-color="#e6e6e6"/><stop offset="0.1144" stop-color="#e0e0e0"/><stop offset="0.27295" stop-color="#cecece"/><stop offset="0.45731" stop-color="#b0b0b0"/><stop offset="0.66114" stop-color="#878787"/><stop offset="0.87829" stop-color="#535353"/><stop offset="1" stop-color="#333"/></linearGradient><linearGradient id="b" x1="309.94308" y1="123.23038" x2="309.94308" y2="160.57292" xlink:href="#a"/><linearGradient id="c" x1="474.25026" y1="123.23038" x2="474.25026" y2="160.57292" xlink:href="#a"/><linearGradient id="d" x1="646.02595" y1="123.23038" x2="646.02595" y2="160.57292" xlink:href="#a"/><linearGradient id="e" x1="810.35861" y1="123.23038" x2="810.35861" y2="160.57292" xlink:href="#a"/><linearGradient id="f" x1="982.10881" y1="123.23038" x2="982.10881" y2="160.57292" xlink:href="#a"/><linearGradient id="g" x1="138.1674" y1="295.00607" x2="138.1674" y2="332.34861" xlink:href="#a"/><linearGradient id="h" x1="309.94308" y1="295.00607" x2="309.94308" y2="332.34861" xlink:href="#a"/><linearGradient id="i" x1="474.25026" y1="295.00607" x2="474.25026" y2="332.34861" xlink:href="#a"/><linearGradient id="j" x1="646.02595" y1="295.00607" x2="646.02595" y2="332.34861" xlink:href="#a"/><linearGradient id="k" x1="810.33312" y1="295.00607" x2="810.33312" y2="332.34861" xlink:href="#a"/><linearGradient id="l" x1="982.10881" y1="295.00607" x2="982.10881" y2="332.34861" xlink:href="#a"/><linearGradient id="m" x1="138.1674" y1="713.24252" x2="138.1674" y2="750.58506" xlink:href="#a"/><linearGradient id="n" x1="309.94308" y1="713.24252" x2="309.94308" y2="750.58506" xlink:href="#a"/><linearGradient id="o" x1="474.25026" y1="713.24252" x2="474.25026" y2="750.58506" xlink:href="#a"/><linearGradient id="p" x1="646.02595" y1="713.24252" x2="646.02595" y2="750.58506" xlink:href="#a"/><linearGradient id="q" x1="810.35861" y1="713.24252" x2="810.35861" y2="750.58506" xlink:href="#a"/><linearGradient id="r" x1="982.10881" y1="713.24252" x2="982.10881" y2="750.58506" xlink:href="#a"/><linearGradient id="s" x1="138.1674" y1="541.46683" x2="138.1674" y2="578.80937" xlink:href="#a"/><linearGradient id="t" x1="309.94308" y1="541.46683" x2="309.94308" y2="578.80937" xlink:href="#a"/><linearGradient id="u" x1="474.25026" y1="541.46683" x2="474.25026" y2="578.80937" xlink:href="#a"/><linearGradient id="v" x1="646.02595" y1="541.46683" x2="646.02595" y2="578.80937" xlink:href="#a"/><linearGradient id="w" x1="810.33312" y1="541.46683" x2="810.33312" y2="578.80937" xlink:href="#a"/><linearGradient id="x" x1="982.10881" y1="541.46683" x2="982.10881" y2="578.80937" xlink:href="#a"/></defs><title>pan_pp1</title><path d="M63.48232,180.37805a3.72065,3.72065,0,1,1-3.72067,3.7207,3.72488,3.72488,0,0,1,3.72067-3.7207m0-1.13391a4.85456,4.85456,0,1,0,4.85453,4.85461,4.85456,4.85456,0,0,0-4.85453-4.85461Z" fill="#e6e6e6"/><path d="M63.48232,195.31506a3.72065,3.72065,0,1,1-3.72067,3.72071,3.72489,3.72489,0,0,1,3.72067-3.72071m0-1.13391a4.85456,4.85456,0,1,0,4.85453,4.85462,4.85456,4.85456,0,0,0-4.85453-4.85462Z" fill="#e6e6e6"/><path d="M907.42371,187.84656a3.72064,3.72064,0,1,1-3.72065,3.7207,3.72491,3.72491,0,0,1,3.72065-3.7207m0-1.13391a4.85455,4.85455,0,1,0,4.85455,4.85461,4.85456,4.85456,0,0,0-4.85455-4.85461Z" fill="#e6e6e6"/><path d="M63.48232,352.15381a3.72058,3.72058,0,1,1-3.72067,3.72058,3.72486,3.72486,0,0,1,3.72067-3.72058m0-1.13391a4.85449,4.85449,0,1,0,4.85453,4.85449,4.85453,4.85453,0,0,0-4.85453-4.85449Z" fill="#e6e6e6"/><path d="M63.48232,367.09082a3.72064,3.72064,0,1,1-3.72067,3.72058,3.72486,3.72486,0,0,1,3.72067-3.72058m0-1.13391a4.85456,4.85456,0,1,0,4.85453,4.85449,4.85453,4.85453,0,0,0-4.85453-4.85449Z" fill="#e6e6e6"/><path d="M907.42371,777.85876a3.72065,3.72065,0,1,1-3.72065,3.72059,3.72489,3.72489,0,0,1,3.72065-3.72059m0-1.13391a4.85456,4.85456,0,1,0,4.85455,4.8545,4.85455,4.85455,0,0,0-4.85455-4.8545Z" fill="#e6e6e6"/><path d="M63.48232,770.39026a3.72058,3.72058,0,1,1-3.72067,3.72058,3.72486,3.72486,0,0,1,3.72067-3.72058m0-1.13391a4.85449,4.85449,0,1,0,4.85453,4.85449,4.85453,4.85453,0,0,0-4.85453-4.85449Z" fill="#e6e6e6"/><path d="M63.48232,785.32727a3.72064,3.72064,0,1,1-3.72067,3.72058,3.72486,3.72486,0,0,1,3.72067-3.72058m0-1.13391a4.85456,4.85456,0,1,0,4.85453,4.85449,4.85453,4.85453,0,0,0-4.85453-4.85449Z" fill="#e6e6e6"/><circle cx="399.56518" cy="609.80368" r="4.85453" fill="#e6e6e6"/><circle cx="235.258" cy="363.34292" r="4.85453" fill="#e6e6e6"/><circle cx="399.56518" cy="363.34292" r="4.85453" fill="#e6e6e6"/><path d="M63.48232,606.083a3.72064,3.72064,0,1,1-3.72067,3.7207,3.72488,3.72488,0,0,1,3.72067-3.7207m0-1.13391a4.85455,4.85455,0,1,0,4.85453,4.85461,4.85456,4.85456,0,0,0-4.85453-4.85461Z" fill="#e6e6e6"/><path d="M735.64807,359.62231a3.72059,3.72059,0,1,1-3.7207,3.72059,3.72483,3.72483,0,0,1,3.7207-3.72059m0-1.13391a4.8545,4.8545,0,1,0,4.85449,4.8545,4.85455,4.85455,0,0,0-4.85449-4.8545Z" fill="#e6e6e6"/><path d="M735.64807,606.083a3.72064,3.72064,0,1,1-3.7207,3.7207,3.72486,3.72486,0,0,1,3.7207-3.7207m0-1.13391a4.85455,4.85455,0,1,0,4.85449,4.85461,4.85457,4.85457,0,0,0-4.85449-4.85461Z" fill="#e6e6e6"/><rect x="1" y="1" width="1078" height="853.36133" rx="11" ry="11" fill="#1a1a1a"/><path d="M1068,2a10.01134,10.01134,0,0,1,10,10V843.361a10.01134,10.01134,0,0,1-10,10H12a10.01132,10.01132,0,0,1-10-10V12A10.01132,10.01132,0,0,1,12,2H1068m0-2H12A12,12,0,0,0,0,12V843.361a12,12,0,0,0,12,12H1068a12,12,0,0,0,12-12V12a12,12,0,0,0-12-12Z" fill="#4d4d4d"/><rect x="25.13965" y="58.74805" width="1032.6543" height="158.83887" rx="5" ry="5" fill="#414141"/><path d="M1052.79388,59.74811a3.99988,3.99988,0,0,1,4,4V212.58667a4,4,0,0,1-4,4.00012H30.13976a4.00009,4.00009,0,0,1-4-4.00012V63.74811a4,4,0,0,1,4-4H1052.79388m0-2H30.13976a6.0068,6.0068,0,0,0-6,6V212.58667a6.00687,6.00687,0,0,0,6,6.00012H1052.79388a6.00686,6.00686,0,0,0,6-6.00012V63.74811a6.0068,6.0068,0,0,0-6-6Z" fill="#ffa861"/><rect x="25.13965" y="230.52344" width="509.85889" height="158.83887" rx="5" ry="5" fill="#414141"/><path d="M529.99832,231.5238a4,4,0,0,1,4,4V384.36243a4,4,0,0,1-4,4H30.13978a4,4,0,0,1-4-4V235.5238a4,4,0,0,1,4-4H529.99832m0-2H30.13978a6.00676,6.00676,0,0,0-6,6V384.36243a6.00676,6.00676,0,0,0,6,6H529.99832a6.00678,6.00678,0,0,0,6-6V235.5238a6.00678,6.00678,0,0,0-6-6Z" fill="#ced2d9"/><rect x="547.93555" y="230.52344" width="509.8584" height="158.83887" rx="5" ry="5" fill="#414141"/><path d="M1052.79388,231.5238a3.99993,3.99993,0,0,1,4,4V384.36243a4,4,0,0,1-4,4H552.93536a4,4,0,0,1-4-4V235.5238a4,4,0,0,1,4-4h499.85852m0-2H552.93536a6.00676,6.00676,0,0,0-6,6V384.36243a6.00676,6.00676,0,0,0,6,6h499.85852a6.00676,6.00676,0,0,0,6-6V235.5238a6.00676,6.00676,0,0,0-6-6Z" fill="#ffa861"/><rect x="25.13965" y="648.75977" width="1032.6543" height="158.83887" rx="5" ry="5" fill="#414141"/><path d="M1052.79388,649.76025a3.99989,3.99989,0,0,1,4,4V802.59888a4,4,0,0,1-4,4H30.13976a4.00007,4.00007,0,0,1-4-4V653.76025a4,4,0,0,1,4-4H1052.79388m0-2H30.13976a6.00676,6.00676,0,0,0-6,6V802.59888a6.00676,6.00676,0,0,0,6,6H1052.79388a6.00676,6.00676,0,0,0,6-6V653.76025a6.00676,6.00676,0,0,0-6-6Z" fill="#ded66f"/><rect x="25.13965" y="476.98438" width="509.85889" height="158.83887" rx="5" ry="5" fill="#414141"/><path d="M529.99832,477.9845a4,4,0,0,1,4,4V630.82312a4,4,0,0,1-4,4.00012H30.13978a4,4,0,0,1-4-4.00012V481.9845a4,4,0,0,1,4-4H529.99832m0-2H30.13978a6.00676,6.00676,0,0,0-6,6V630.82312a6.00687,6.00687,0,0,0,6,6.00012H529.99832a6.00688,6.00688,0,0,0,6-6.00012V481.9845a6.00678,6.00678,0,0,0-6-6Z" fill="#ced2d9"/><rect x="547.93555" y="476.98438" width="509.8584" height="158.83887" rx="5" ry="5" fill="#414141"/><path d="M1052.79388,477.9845a4,4,0,0,1,4,4V630.82312a4,4,0,0,1-4,4.00012H552.93536a4,4,0,0,1-4-4.00012V481.9845a4,4,0,0,1,4-4h499.85852m0-2H552.93536a6.00676,6.00676,0,0,0-6,6V630.82312a6.00686,6.00686,0,0,0,6,6.00012h499.85852a6.00686,6.00686,0,0,0,6-6.00012V481.9845a6.00676,6.00676,0,0,0-6-6Z" fill="#ded66f"/><circle cx="63.48232" cy="184.09872" r="4.85453" fill="#e6e6e6"/><circle cx="63.48232" cy="199.03574" r="4.85453" fill="#e6e6e6"/><circle cx="907.42373" cy="191.56723" r="4.85453" fill="#e6e6e6"/><circle cx="63.48232" cy="348.37441" r="4.85453" fill="#e6e6e6"/><circle cx="63.48232" cy="363.31143" r="4.85453" fill="#e6e6e6"/><circle cx="63.48232" cy="378.31143" r="4.85453" fill="#e6e6e6"/><circle cx="907.42373" cy="781.57937" r="4.85453" fill="#e6e6e6"/><circle cx="63.48232" cy="774.11086" r="4.85453" fill="#e6e6e6"/><circle cx="63.48232" cy="789.04788" r="4.85453" fill="#e6e6e6"/><circle cx="399.56518" cy="609.80368" r="4.85453" fill="#e6e6e6"/><circle cx="235.258" cy="363.34292" r="4.85453" fill="#e6e6e6"/><circle cx="235.258" cy="781.57937" r="4.85453" fill="#e6e6e6"/><circle cx="399.56518" cy="363.34292" r="4.85453" fill="#e6e6e6"/><circle cx="63.48232" cy="609.80368" r="4.85453" fill="#e6e6e6"/><circle cx="735.64804" cy="363.34292" r="4.85453" fill="#e6e6e6"/><circle cx="735.64804" cy="191.56723" r="4.85453" fill="#e6e6e6"/><circle cx="571.34087" cy="191.56723" r="4.85453" fill="#e6e6e6"/><circle cx="735.64804" cy="609.80368" r="4.85453" fill="#e6e6e6"/><circle cx="571.34087" cy="781.57937" r="4.85453" fill="#e6e6e6"/><circle cx="735.64804" cy="781.57937" r="4.85453" fill="#e6e6e6"/><circle cx="235.258" cy="191.56723" r="4.85453" fill="#e6e6e6"/><circle cx="63.48232" cy="141.90165" r="11.20276" fill="#b3b3b3" stroke="#252525" stroke-miterlimit="10" stroke-width="1.2"/><circle cx="235.258" cy="141.57086" r="11.20276" fill="#b3b3b3" stroke="#252525" stroke-miterlimit="10" stroke-width="1.2"/><circle cx="571.34087" cy="141.57086" r="11.20276" fill="#b3b3b3" stroke="#252525" stroke-miterlimit="10" stroke-width="1.2"/><circle cx="735.64804" cy="141.57086" r="11.20276" fill="#b3b3b3" stroke="#252525" stroke-miterlimit="10" stroke-width="1.2"/><circle cx="907.42373" cy="141.57086" r="11.20276" fill="#b3b3b3" stroke="#252525" stroke-miterlimit="10" stroke-width="1.2"/><circle cx="63.48232" cy="313.67734" r="11.20276" fill="#b3b3b3" stroke="#252525" stroke-miterlimit="10" stroke-width="1.2"/><circle cx="235.258" cy="313.34655" r="11.20276" fill="#b3b3b3" stroke="#252525" stroke-miterlimit="10" stroke-width="1.2"/><circle cx="399.56518" cy="313.34655" r="11.20276" fill="#b3b3b3" stroke="#252525" stroke-miterlimit="10" stroke-width="1.2"/><circle cx="571.34087" cy="313.67734" r="11.20276" fill="#b3b3b3" stroke="#252525" stroke-miterlimit="10" stroke-width="1.2"/><circle cx="735.64804" cy="313.34655" r="11.20276" fill="#b3b3b3" stroke="#252525" stroke-miterlimit="10" stroke-width="1.2"/><circle cx="907.42373" cy="313.34655" r="11.20276" fill="#b3b3b3" stroke="#252525" stroke-miterlimit="10" stroke-width="1.2"/><circle cx="63.48232" cy="731.91379" r="11.20276" fill="#b3b3b3" stroke="#252525" stroke-miterlimit="10" stroke-width="1.2"/><circle cx="235.258" cy="731.583" r="11.20276" fill="#b3b3b3" stroke="#252525" stroke-miterlimit="10" stroke-width="1.2"/><circle cx="399.56518" cy="731.583" r="11.20276" fill="#b3b3b3" stroke="#252525" stroke-miterlimit="10" stroke-width="1.2"/><circle cx="571.34087" cy="731.583" r="11.20276" fill="#b3b3b3" stroke="#252525" stroke-miterlimit="10" stroke-width="1.2"/><circle cx="735.64804" cy="731.583" r="11.20276" fill="#b3b3b3" stroke="#252525" stroke-miterlimit="10" stroke-width="1.2"/><circle cx="907.42373" cy="731.583" r="11.20276" fill="#b3b3b3" stroke="#252525" stroke-miterlimit="10" stroke-width="1.2"/><circle cx="63.48232" cy="560.1381" r="11.20276" fill="#b3b3b3" stroke="#252525" stroke-miterlimit="10" stroke-width="1.2"/><circle cx="235.258" cy="559.80731" r="11.20276" fill="#b3b3b3" stroke="#252525" stroke-miterlimit="10" stroke-width="1.2"/><circle cx="399.56518" cy="559.80731" r="11.20276" fill="#b3b3b3" stroke="#252525" stroke-miterlimit="10" stroke-width="1.2"/><circle cx="571.34087" cy="560.1381" r="11.20276" fill="#b3b3b3" stroke="#252525" stroke-miterlimit="10" stroke-width="1.2"/><circle cx="735.64804" cy="559.80731" r="11.20276" fill="#b3b3b3" stroke="#252525" stroke-miterlimit="10" stroke-width="1.2"/><circle cx="907.42373" cy="559.80731" r="11.20276" fill="#b3b3b3" stroke="#252525" stroke-miterlimit="10" stroke-width="1.2"/><circle cx="399.56518" cy="141.57086" r="11.20276" fill="#b3b3b3" stroke="#252525" stroke-miterlimit="10" stroke-width="1.2"/><path d="M110.6709,184.22461h3.2539l5.0962,15.64746h-2.91895l-1.22021-4.23535h-5.26368l-1.22021,4.23535h-2.82324Zm-.40674,9.23535h3.99561l-.5503-1.91406c-.50244-1.65137-.957-3.44531-1.41162-5.168h-.0957c-.43067,1.74707-.88526,3.5166-1.3877,5.168Z" fill="#e6e6e6"/><path d="M120.74414,195.90039v-5.59863h-1.6748v-2.05762l1.81836-.11914.335-3.207h2.29687v3.207h2.99072v2.17676h-2.99072v5.59863c0,1.3877.52637,2.05762,1.65088,2.05762a3.3884,3.3884,0,0,0,1.22021-.2627l.47852,2.03321a7.51726,7.51726,0,0,1-2.39258.43066C121.749,200.15918,120.74414,198.43652,120.74414,195.90039Z" fill="#e6e6e6"/><path d="M128.90332,195.90039v-5.59863h-1.6748v-2.05762l1.81836-.11914.335-3.207h2.29687v3.207h2.99072v2.17676h-2.99072v5.59863c0,1.3877.52637,2.05762,1.65088,2.05762a3.3884,3.3884,0,0,0,1.22021-.2627l.47852,2.03321a7.51726,7.51726,0,0,1-2.39258.43066C129.9082,200.15918,128.90332,198.43652,128.90332,195.90039Z" fill="#e6e6e6"/><path d="M136.00928,196.71387c0-2.5127,2.08154-3.82813,6.91455-4.35449-.04785-1.24415-.55029-2.29688-2.15332-2.29688a6.69321,6.69321,0,0,0-3.30176,1.14844l-1.00488-1.8418a9.18078,9.18078,0,0,1,4.833-1.53125c2.91894,0,4.37841,1.794,4.37841,5.07227v6.96191h-2.27295l-.1914-1.292h-.09571a5.7217,5.7217,0,0,1-3.63671,1.5791A3.28405,3.28405,0,0,1,136.00928,196.71387Zm6.91455,0V194.082c-3.20606.40625-4.25879,1.24414-4.25879,2.416,0,1.05273.71777,1.50781,1.69873,1.50781A3.73482,3.73482,0,0,0,142.92383,196.71387Z" fill="#e6e6e6"/><path d="M148.21191,194.00977a5.79349,5.79349,0,0,1,5.88575-6.17188,5.06365,5.06365,0,0,1,3.44531,1.31543l-1.33985,1.79395a2.87423,2.87423,0,0,0-1.96191-.86133c-1.89014,0-3.20605,1.55566-3.20605,3.92383,0,2.3457,1.292,3.90039,3.13427,3.90039a3.92053,3.92053,0,0,0,2.41651-1.00489l1.12451,1.81836a5.86642,5.86642,0,0,1-3.82813,1.43555C150.67627,200.15918,148.21191,197.91016,148.21191,194.00977Z" fill="#e6e6e6"/><path d="M160.03125,182.98047h2.70361v10.55078h.07178l4.35449-5.40625h3.01465l-4.01953,4.78516,4.42627,6.96191H167.5918l-3.01465-5.09668-1.84229,2.10547v2.99121h-2.70361Z" fill="#e6e6e6"/><path d="M272.35986,184.22461h4.187c4.78515,0,7.60839,2.584,7.60839,7.75195,0,5.19141-2.82324,7.89551-7.46484,7.89551h-4.33057Zm3.99561,13.39844c3.1582,0,4.95264-1.79493,4.95264-5.64649,0-3.82812-1.79444-5.50293-4.95264-5.50293h-1.22022v11.14942Z" fill="#e6e6e6"/><path d="M286.30908,194.00977c0-3.82813,2.65576-6.17188,5.40723-6.17188,3.18213,0,4.85693,2.29688,4.85693,5.57422a6.41069,6.41069,0,0,1-.11963,1.33984h-7.46484a3.36176,3.36176,0,0,0,3.46924,3.27735,4.90386,4.90386,0,0,0,2.72754-.86133l.9331,1.72265a7.409,7.409,0,0,1-4.01953,1.26856C288.84521,200.15918,286.30908,197.88672,286.30908,194.00977Zm7.87158-1.124c0-1.81836-.78955-2.91894-2.39257-2.91894-1.3877,0-2.584,1.02929-2.82325,2.91894Z" fill="#e6e6e6"/><path d="M298.43945,194.00977a5.79349,5.79349,0,0,1,5.88575-6.17188,5.06365,5.06365,0,0,1,3.44531,1.31543l-1.33985,1.79395a2.87423,2.87423,0,0,0-1.96191-.86133c-1.89014,0-3.20605,1.55566-3.20605,3.92383,0,2.3457,1.292,3.90039,3.13427,3.90039a3.92055,3.92055,0,0,0,2.41651-1.00489l1.12451,1.81836a5.86642,5.86642,0,0,1-3.82813,1.43555C300.90381,200.15918,298.43945,197.91016,298.43945,194.00977Z" fill="#e6e6e6"/><path d="M309.398,196.71387c0-2.5127,2.08154-3.82813,6.91455-4.35449-.04785-1.24415-.55029-2.29688-2.15332-2.29688a6.69324,6.69324,0,0,0-3.30176,1.14844l-1.00488-1.8418a9.18081,9.18081,0,0,1,4.833-1.53125c2.91894,0,4.37841,1.794,4.37841,5.07227v6.96191H316.791l-.19141-1.292h-.0957a5.72175,5.72175,0,0,1-3.63672,1.5791A3.28405,3.28405,0,0,1,309.398,196.71387Zm6.91455,0V194.082c-3.20605.40625-4.25879,1.24414-4.25879,2.416,0,1.05273.71777,1.50781,1.69873,1.50781A3.7348,3.7348,0,0,0,316.3125,196.71387Z" fill="#e6e6e6"/><path d="M321.624,204.46582l.50244-2.15332a2.87061,2.87061,0,0,0,.83741.168,2.46267,2.46267,0,0,0,2.34472-2.00977l.21534-.74218L320.90625,188.125h2.79932l2.03369,5.76562c.335,1.0293.66992,2.20118,1.02881,3.30176h.0957c.28711-1.07715.59814-2.249.88525-3.30176l1.77051-5.76562h2.65576l-4.25879,12.27344c-.981,2.65625-2.20117,4.30664-4.76123,4.30664A4.56759,4.56759,0,0,1,321.624,204.46582Z" fill="#e6e6e6"/><path d="M339.01855,197.62305H342.416v-10.001H339.6167v-1.72266a10.22688,10.22688,0,0,0,3.51709-1.24414h2.05762v12.96778h2.99072v2.249h-9.16358Z" fill="#e6e6e6"/><path d="M432.6748,184.22461h5.00049c3.23,0,5.59864.98047,5.59864,3.85156a3.52714,3.52714,0,0,1-2.17725,3.39844v.0957a3.57312,3.57312,0,0,1,2.99072,3.708c0,3.13379-2.56006,4.59375-6.00537,4.59375H432.6748Zm4.76124,6.46c2.17724,0,3.11035-.86133,3.11035-2.20117,0-1.53125-1.02881-2.10547-3.0625-2.10547H435.4502v4.30664Zm.35888,7.03418c2.29688,0,3.58887-.83789,3.58887-2.584,0-1.65039-1.24414-2.36915-3.58887-2.36915H435.4502v4.95313Z" fill="#e6e6e6"/><path d="M446.9585,184.22461h4.92871c3.46924,0,6.05322,1.19629,6.05322,4.833,0,3.46972-2.584,5.07226-5.95752,5.07226h-2.249v5.74219H446.9585Zm4.80908,7.67969c2.3208,0,3.44531-.93262,3.44531-2.84668,0-1.96192-1.22021-2.6084-3.541-2.6084h-1.938v5.45508Z" fill="#e6e6e6"/><path d="M465.669,184.22461h2.77539v13.30273h6.50781v2.34473H465.669Z" fill="#e6e6e6"/><path d="M476.36426,194.00977c0-3.82813,2.65576-6.17188,5.40722-6.17188,3.18213,0,4.85694,2.29688,4.85694,5.57422a6.41069,6.41069,0,0,1-.11963,1.33984H479.044a3.36176,3.36176,0,0,0,3.46923,3.27735,4.90383,4.90383,0,0,0,2.72754-.86133l.93311,1.72265a7.409,7.409,0,0,1-4.01953,1.26856C478.90039,200.15918,476.36426,197.88672,476.36426,194.00977Zm7.87158-1.124c0-1.81836-.78955-2.91894-2.39258-2.91894-1.38769,0-2.584,1.02929-2.82324,2.91894Z" fill="#e6e6e6"/><path d="M487.80127,188.125h2.79932l1.86621,6.10059c.311,1.14843.66992,2.34472.981,3.541h.09571c.335-1.19629.66992-2.39258,1.00488-3.541l1.86621-6.10059h2.65576l-3.9956,11.74707h-3.18213Z" fill="#e6e6e6"/><path d="M500.19482,194.00977c0-3.82813,2.65577-6.17188,5.40723-6.17188,3.18213,0,4.85693,2.29688,4.85693,5.57422a6.41149,6.41149,0,0,1-.11962,1.33984h-7.46485a3.36176,3.36176,0,0,0,3.46924,3.27735,4.90386,4.90386,0,0,0,2.72754-.86133l.9331,1.72265a7.409,7.409,0,0,1-4.01953,1.26856C502.731,200.15918,500.19482,197.88672,500.19482,194.00977Zm7.87159-1.124c0-1.81836-.78955-2.91894-2.39258-2.91894-1.3877,0-2.584,1.02929-2.82324,2.91894Z" fill="#e6e6e6"/><path d="M513.09131,196.85742V182.98047h2.75146V197.001c0,.66992.311.90918.59815.90918a1.64794,1.64794,0,0,0,.43066-.04786l.35889,2.05762a3.75656,3.75656,0,0,1-1.45947.23926C513.80908,200.15918,513.09131,198.89062,513.09131,196.85742Z" fill="#e6e6e6"/><path d="M608.438,184.22461h4.187c4.78516,0,7.6084,2.584,7.6084,7.75195,0,5.19141-2.82324,7.89551-7.46485,7.89551H608.438Zm3.9956,13.39844c3.15821,0,4.95313-1.79493,4.95313-5.64649,0-3.82812-1.79492-5.50293-4.95313-5.50293h-1.22021v11.14942Z" fill="#e6e6e6"/><path d="M622.38672,194.00977c0-3.82813,2.65625-6.17188,5.4082-6.17188,3.18164,0,4.85645,2.29688,4.85645,5.57422a6.37211,6.37211,0,0,1-.12012,1.33984h-7.46484a3.363,3.363,0,0,0,3.46972,3.27735,4.90383,4.90383,0,0,0,2.72754-.86133l.9336,1.72265a7.41293,7.41293,0,0,1-4.01954,1.26856C624.92383,200.15918,622.38672,197.88672,622.38672,194.00977Zm7.87207-1.124c0-1.81836-.79-2.91894-2.39258-2.91894-1.38769,0-2.584,1.02929-2.82324,2.91894Z" fill="#e6e6e6"/><path d="M634.51758,194.00977a5.794,5.794,0,0,1,5.88672-6.17188,5.06461,5.06461,0,0,1,3.44531,1.31543l-1.33984,1.79395a2.8774,2.8774,0,0,0-1.96289-.86133c-1.88965,0-3.20508,1.55566-3.20508,3.92383,0,2.3457,1.291,3.90039,3.13379,3.90039a3.92182,3.92182,0,0,0,2.417-1.00489l1.124,1.81836a5.86639,5.86639,0,0,1-3.82812,1.43555C636.98242,200.15918,634.51758,197.91016,634.51758,194.00977Z" fill="#e6e6e6"/><path d="M645.47656,196.71387c0-2.5127,2.08106-3.82813,6.91406-4.35449-.04785-1.24415-.55078-2.29688-2.15332-2.29688a6.69321,6.69321,0,0,0-3.30175,1.14844l-1.00489-1.8418a9.18084,9.18084,0,0,1,4.833-1.53125c2.91895,0,4.37891,1.794,4.37891,5.07227v6.96191h-2.27344l-.19141-1.292h-.0957a5.7217,5.7217,0,0,1-3.63672,1.5791A3.28367,3.28367,0,0,1,645.47656,196.71387Zm6.91406,0V194.082c-3.20605.40625-4.25878,1.24414-4.25878,2.416,0,1.05273.71777,1.50781,1.69824,1.50781A3.73484,3.73484,0,0,0,652.39062,196.71387Z" fill="#e6e6e6"/><path d="M657.70215,204.46582l.50293-2.15332a2.86372,2.86372,0,0,0,.83691.168,2.46268,2.46268,0,0,0,2.34473-2.00977l.21484-.74218L656.98438,188.125h2.79882l2.03418,5.76562c.335,1.0293.66992,2.20118,1.02832,3.30176h.09571c.28711-1.07715.59863-2.249.88574-3.30176l1.77051-5.76562h2.65625l-4.25977,12.27344c-.98047,2.65625-2.20117,4.30664-4.76074,4.30664A4.56965,4.56965,0,0,1,657.70215,204.46582Z" fill="#e6e6e6"/><path d="M674.23535,198.26953c4.23535-4.0918,6.89063-6.77148,6.89063-9.0918a2.36121,2.36121,0,0,0-2.5127-2.63281,4.20883,4.20883,0,0,0-2.9668,1.69922l-1.53125-1.53125a6.22973,6.22973,0,0,1,4.85743-2.34473,4.44723,4.44723,0,0,1,4.80859,4.665c0,2.7041-2.51172,5.4795-5.52637,8.66211.79-.07226,1.79395-.168,2.53614-.168h3.73242v2.34473H674.23535Z" fill="#e6e6e6"/><path d="M773.1084,197.8623l1.627-1.88964a6.22035,6.22035,0,0,0,4.06738,1.76953c1.77051,0,2.72754-.78907,2.72754-2.00977,0-1.291-1.00488-1.69824-2.417-2.29687l-2.15234-.93262a4.509,4.509,0,0,1-3.15821-4.16309c0-2.48828,2.20118-4.40234,5.26368-4.40234a6.90521,6.90521,0,0,1,4.80859,1.98633l-1.41211,1.76953a5.09674,5.09674,0,0,0-3.39648-1.33984c-1.48438,0-2.46485.69433-2.46485,1.84277,0,1.21973,1.19629,1.6748,2.48828,2.20117l2.12891.88574c1.84277.78907,3.1582,1.96094,3.1582,4.23438,0,2.53613-2.10547,4.6416-5.62207,4.6416A8.10338,8.10338,0,0,1,773.1084,197.8623Z" fill="#e6e6e6"/><path d="M786.86621,195.49414V188.125h2.751v7.00977c0,1.9375.55078,2.65625,1.81836,2.65625,1.02929,0,1.72265-.47852,2.6084-1.627V188.125h2.751v11.74707h-2.248l-.21583-1.72266h-.07128a4.79123,4.79123,0,0,1-3.78125,2.00977C787.9668,200.15918,786.86621,198.46094,786.86621,195.49414Z" fill="#e6e6e6"/><path d="M799.11621,198.53223l1.292-1.77051a5.22824,5.22824,0,0,0,3.25391,1.3164c1.26758,0,1.86621-.59863,1.86621-1.4121,0-.98047-1.26855-1.41211-2.5127-1.89063-1.55468-.57422-3.30078-1.459-3.30078-3.4209,0-2.05761,1.65039-3.5166,4.28223-3.5166a6.34349,6.34349,0,0,1,3.89941,1.41113l-1.26757,1.67481a4.37582,4.37582,0,0,0-2.584-1.00488c-1.17187,0-1.72265.5498-1.72265,1.292,0,.93359,1.17187,1.292,2.44043,1.74609,1.60253.59863,3.374,1.36426,3.374,3.56543,0,2.00977-1.60352,3.63672-4.57031,3.63672A7.44207,7.44207,0,0,1,799.11621,198.53223Z" fill="#e6e6e6"/><path d="M810.53027,195.90039v-5.59863h-1.6748v-2.05762l1.81836-.11914.335-3.207h2.29687v3.207h2.99122v2.17676h-2.99122v5.59863c0,1.3877.52637,2.05762,1.65137,2.05762a3.38807,3.38807,0,0,0,1.21973-.2627l.47851,2.03321a7.51719,7.51719,0,0,1-2.39257.43066C811.53516,200.15918,810.53027,198.43652,810.53027,195.90039Z" fill="#e6e6e6"/><path d="M817.63672,196.71387c0-2.5127,2.08105-3.82813,6.91406-4.35449-.04785-1.24415-.55078-2.29688-2.15332-2.29688a6.69324,6.69324,0,0,0-3.30176,1.14844l-1.00488-1.8418a9.18081,9.18081,0,0,1,4.833-1.53125c2.91894,0,4.3789,1.794,4.3789,5.07227v6.96191H825.0293l-.19141-1.292h-.0957a5.72175,5.72175,0,0,1-3.63672,1.5791A3.28366,3.28366,0,0,1,817.63672,196.71387Zm6.91406,0V194.082c-3.20605.40625-4.25879,1.24414-4.25879,2.416,0,1.05273.71778,1.50781,1.69824,1.50781A3.73484,3.73484,0,0,0,824.55078,196.71387Z" fill="#e6e6e6"/><path d="M830.293,184.51172a1.7054,1.7054,0,1,1,1.69922,1.55469A1.5795,1.5795,0,0,1,830.293,184.51172Zm.31055,3.61328h2.75195v11.74707h-2.75195Z" fill="#e6e6e6"/><path d="M836.87305,188.125h2.27246l.1914,1.57812h.09571a5.45777,5.45777,0,0,1,3.85254-1.86523c2.51172,0,3.6123,1.69824,3.6123,4.665v7.36914h-2.751v-7.01074c0-1.9375-.55078-2.65528-1.84277-2.65528-1.02832,0-1.69824.50293-2.67969,1.46v8.20605h-2.751Z" fill="#e6e6e6"/><path d="M944.51758,184.22461h5.28711c3.2539,0,5.74219,1.14844,5.74219,4.6416a4.37846,4.37846,0,0,1-3.11036,4.47363l3.73243,6.53223h-3.11036l-3.373-6.125H947.293v6.125h-2.77539Zm5,7.32129c2.1289,0,3.30176-.90918,3.30176-2.67969,0-1.79394-1.17286-2.417-3.30176-2.417H947.293v5.09668Z" fill="#e6e6e6"/><path d="M957.4375,194.00977c0-3.82813,2.65625-6.17188,5.4082-6.17188,3.18164,0,4.85645,2.29688,4.85645,5.57422a6.37211,6.37211,0,0,1-.12012,1.33984h-7.46484a3.36305,3.36305,0,0,0,3.46972,3.27735,4.90383,4.90383,0,0,0,2.72754-.86133l.9336,1.72265a7.41292,7.41292,0,0,1-4.01953,1.26856C959.97461,200.15918,957.4375,197.88672,957.4375,194.00977Zm7.87207-1.124c0-1.81836-.79-2.91894-2.39258-2.91894-1.38769,0-2.584,1.02929-2.82324,2.91894Z" fill="#e6e6e6"/><path d="M970.334,196.85742V182.98047h2.751V197.001c0,.66992.31152.90918.59863.90918a1.64151,1.64151,0,0,0,.42969-.04786l.35938,2.05762a3.75559,3.75559,0,0,1-1.459.23926C971.05078,200.15918,970.334,198.89062,970.334,196.85742Z" fill="#e6e6e6"/><path d="M976.05273,194.00977c0-3.82813,2.65528-6.17188,5.40625-6.17188,3.18262,0,4.85743,2.29688,4.85743,5.57422a6.45045,6.45045,0,0,1-.11914,1.33984h-7.46485a3.36047,3.36047,0,0,0,3.46875,3.27735,4.90386,4.90386,0,0,0,2.72754-.86133l.93262,1.72265a7.40513,7.40513,0,0,1-4.01953,1.26856C978.58789,200.15918,976.05273,197.88672,976.05273,194.00977Zm7.8711-1.124c0-1.81836-.78906-2.91894-2.39258-2.91894-1.3877,0-2.584,1.02929-2.82324,2.91894Z" fill="#e6e6e6"/><path d="M988.03906,196.71387c0-2.5127,2.082-3.82813,6.915-4.35449-.04785-1.24415-.5498-2.29688-2.15332-2.29688a6.69324,6.69324,0,0,0-3.30176,1.14844l-1.00488-1.8418a9.18081,9.18081,0,0,1,4.833-1.53125c2.91894,0,4.37793,1.794,4.37793,5.07227v6.96191h-2.27246l-.19141-1.292h-.0957a5.72175,5.72175,0,0,1-3.63672,1.5791A3.28444,3.28444,0,0,1,988.03906,196.71387Zm6.915,0V194.082c-3.20605.40625-4.25879,1.24414-4.25879,2.416,0,1.05273.71778,1.50781,1.69922,1.50781A3.73474,3.73474,0,0,0,994.9541,196.71387Z" fill="#e6e6e6"/><path d="M999.835,198.53223l1.292-1.77051a5.22824,5.22824,0,0,0,3.25391,1.3164c1.26758,0,1.86621-.59863,1.86621-1.4121,0-.98047-1.26855-1.41211-2.51269-1.89063-1.55469-.57422-3.30079-1.459-3.30079-3.4209,0-2.05761,1.65039-3.5166,4.28223-3.5166a6.34349,6.34349,0,0,1,3.89941,1.41113l-1.26757,1.67481a4.37582,4.37582,0,0,0-2.584-1.00488c-1.17187,0-1.72265.5498-1.72265,1.292,0,.93359,1.17187,1.292,2.44043,1.74609,1.60253.59863,3.374,1.36426,3.374,3.56543,0,2.00977-1.60352,3.63672-4.57031,3.63672A7.44207,7.44207,0,0,1,999.835,198.53223Z" fill="#e6e6e6"/><path d="M1010.55469,194.00977c0-3.82813,2.65527-6.17188,5.40625-6.17188,3.18261,0,4.85742,2.29688,4.85742,5.57422a6.44976,6.44976,0,0,1-.11914,1.33984h-7.46484a3.36047,3.36047,0,0,0,3.46874,3.27735,4.90381,4.90381,0,0,0,2.72754-.86133l.93262,1.72265a7.4051,7.4051,0,0,1-4.01953,1.26856C1013.08984,200.15918,1010.55469,197.88672,1010.55469,194.00977Zm7.87109-1.124c0-1.81836-.78906-2.91894-2.39258-2.91894-1.38769,0-2.584,1.02929-2.82324,2.91894Z" fill="#e6e6e6"/><path d="M110.6709,356.002h3.2539l5.0962,15.64746h-2.91895l-1.22021-4.23535h-5.26368l-1.22021,4.23535h-2.82324Zm-.40674,9.23535h3.99561l-.5503-1.91406c-.50244-1.65136-.957-3.44531-1.41162-5.168h-.0957c-.43067,1.74707-.88526,3.51661-1.3877,5.168Z" fill="#e6e6e6"/><path d="M120.74414,367.67773V362.0791h-1.6748v-2.05762l1.81836-.11914.335-3.207h2.29687v3.207h2.99072v2.17676h-2.99072v5.59863c0,1.3877.52637,2.05762,1.65088,2.05762a3.3886,3.3886,0,0,0,1.22021-.26269l.47852,2.0332a7.51726,7.51726,0,0,1-2.39258.43066C121.749,371.93652,120.74414,370.21387,120.74414,367.67773Z" fill="#e6e6e6"/><path d="M128.90332,367.67773V362.0791h-1.6748v-2.05762l1.81836-.11914.335-3.207h2.29687v3.207h2.99072v2.17676h-2.99072v5.59863c0,1.3877.52637,2.05762,1.65088,2.05762a3.3886,3.3886,0,0,0,1.22021-.26269l.47852,2.0332a7.51726,7.51726,0,0,1-2.39258.43066C129.9082,371.93652,128.90332,370.21387,128.90332,367.67773Z" fill="#e6e6e6"/><path d="M136.00928,368.49121c0-2.51269,2.08154-3.82812,6.91455-4.35449-.04785-1.24414-.55029-2.29688-2.15332-2.29688a6.69321,6.69321,0,0,0-3.30176,1.14844l-1.00488-1.8418a9.18078,9.18078,0,0,1,4.833-1.53125c2.91894,0,4.37841,1.79395,4.37841,5.07227v6.96191h-2.27295l-.1914-1.292h-.09571a5.72165,5.72165,0,0,1-3.63671,1.5791A3.284,3.284,0,0,1,136.00928,368.49121Zm6.91455,0v-2.63183c-3.20606.40624-4.25879,1.24414-4.25879,2.416,0,1.05273.71777,1.50781,1.69873,1.50781A3.73478,3.73478,0,0,0,142.92383,368.49121Z" fill="#e6e6e6"/><path d="M148.21191,365.78711a5.79349,5.79349,0,0,1,5.88575-6.17188,5.06365,5.06365,0,0,1,3.44531,1.31543l-1.33985,1.79395a2.87423,2.87423,0,0,0-1.96191-.86133c-1.89014,0-3.20605,1.55567-3.20605,3.92383,0,2.3457,1.292,3.90039,3.13427,3.90039a3.92057,3.92057,0,0,0,2.41651-1.00488l1.12451,1.81836a5.8664,5.8664,0,0,1-3.82813,1.43554C150.67627,371.93652,148.21191,369.6875,148.21191,365.78711Z" fill="#e6e6e6"/><path d="M160.03125,354.75781h2.70361v10.55078h.07178l4.35449-5.40625h3.01465l-4.01953,4.78516,4.42627,6.96191H167.5918l-3.01465-5.09668-1.84229,2.10547v2.99121h-2.70361Z" fill="#e6e6e6"/><path d="M272.35986,356.002h4.187c4.78515,0,7.60839,2.584,7.60839,7.752,0,5.1914-2.82324,7.8955-7.46484,7.8955h-4.33057Zm3.99561,13.39844c3.1582,0,4.95264-1.79492,4.95264-5.64648,0-3.82813-1.79444-5.50293-4.95264-5.50293h-1.22022v11.14941Z" fill="#e6e6e6"/><path d="M286.30908,365.78711c0-3.82813,2.65576-6.17188,5.40723-6.17188,3.18213,0,4.85693,2.29688,4.85693,5.57422a6.4108,6.4108,0,0,1-.11963,1.33985h-7.46484a3.36176,3.36176,0,0,0,3.46924,3.27734,4.90386,4.90386,0,0,0,2.72754-.86133l.9331,1.72266a7.409,7.409,0,0,1-4.01953,1.26855C288.84521,371.93652,286.30908,369.66406,286.30908,365.78711Zm7.87158-1.124c0-1.81836-.78955-2.91895-2.39257-2.91895-1.3877,0-2.584,1.0293-2.82325,2.91895Z" fill="#e6e6e6"/><path d="M298.43945,365.78711a5.79349,5.79349,0,0,1,5.88575-6.17188,5.06365,5.06365,0,0,1,3.44531,1.31543l-1.33985,1.79395a2.87423,2.87423,0,0,0-1.96191-.86133c-1.89014,0-3.20605,1.55567-3.20605,3.92383,0,2.3457,1.292,3.90039,3.13427,3.90039a3.9206,3.9206,0,0,0,2.41651-1.00488L307.938,370.501a5.8664,5.8664,0,0,1-3.82813,1.43554C300.90381,371.93652,298.43945,369.6875,298.43945,365.78711Z" fill="#e6e6e6"/><path d="M309.398,368.49121c0-2.51269,2.08154-3.82812,6.91455-4.35449-.04785-1.24414-.55029-2.29688-2.15332-2.29688a6.69324,6.69324,0,0,0-3.30176,1.14844l-1.00488-1.8418a9.18081,9.18081,0,0,1,4.833-1.53125c2.91894,0,4.37841,1.79395,4.37841,5.07227v6.96191H316.791l-.19141-1.292h-.0957a5.72169,5.72169,0,0,1-3.63672,1.5791A3.284,3.284,0,0,1,309.398,368.49121Zm6.91455,0v-2.63183c-3.20605.40624-4.25879,1.24414-4.25879,2.416,0,1.05273.71777,1.50781,1.69873,1.50781A3.73476,3.73476,0,0,0,316.3125,368.49121Z" fill="#e6e6e6"/><path d="M321.624,376.24316l.50244-2.15332a2.87061,2.87061,0,0,0,.83741.168,2.46267,2.46267,0,0,0,2.34472-2.00976l.21534-.74219-4.61768-11.60352h2.79932l2.03369,5.76563c.335,1.0293.66992,2.20117,1.02881,3.30176h.0957c.28711-1.07715.59814-2.249.88525-3.30176l1.77051-5.76563h2.65576l-4.25879,12.27344c-.981,2.65625-2.20117,4.30664-4.76123,4.30664A4.56759,4.56759,0,0,1,321.624,376.24316Z" fill="#e6e6e6"/><path d="M339.01855,369.40039H342.416v-10.001H339.6167v-1.72265a10.22688,10.22688,0,0,0,3.51709-1.24414h2.05762v12.96777h2.99072v2.249h-9.16358Z" fill="#e6e6e6"/><path d="M436.67041,356.002h4.187c4.78516,0,7.6084,2.584,7.6084,7.752,0,5.1914-2.82324,7.8955-7.46484,7.8955h-4.33057Zm3.99561,13.39844c3.1582,0,4.95263-1.79492,4.95263-5.64648,0-3.82813-1.79443-5.50293-4.95263-5.50293H439.4458v11.14941Z" fill="#e6e6e6"/><path d="M450.61963,365.78711c0-3.82813,2.65576-6.17188,5.40723-6.17188,3.18212,0,4.85693,2.29688,4.85693,5.57422a6.4108,6.4108,0,0,1-.11963,1.33985h-7.46484a3.36175,3.36175,0,0,0,3.46923,3.27734,4.90381,4.90381,0,0,0,2.72754-.86133l.93311,1.72266a7.409,7.409,0,0,1-4.01953,1.26855C453.15576,371.93652,450.61963,369.66406,450.61963,365.78711Zm7.87158-1.124c0-1.81836-.78955-2.91895-2.39258-2.91895-1.38769,0-2.584,1.0293-2.82324,2.91895Z" fill="#e6e6e6"/><path d="M462.75,365.78711a5.79349,5.79349,0,0,1,5.88574-6.17188,5.06361,5.06361,0,0,1,3.44531,1.31543l-1.33984,1.79395a2.87423,2.87423,0,0,0-1.96191-.86133c-1.89014,0-3.20606,1.55567-3.20606,3.92383,0,2.3457,1.292,3.90039,3.13428,3.90039a3.92055,3.92055,0,0,0,2.4165-1.00488l1.12452,1.81836a5.86642,5.86642,0,0,1-3.82813,1.43554C465.21436,371.93652,462.75,369.6875,462.75,365.78711Z" fill="#e6e6e6"/><path d="M473.7085,368.49121c0-2.51269,2.08154-3.82812,6.91455-4.35449-.04785-1.24414-.5503-2.29688-2.15332-2.29688a6.69321,6.69321,0,0,0-3.30176,1.14844l-1.00488-1.8418a9.18077,9.18077,0,0,1,4.833-1.53125c2.91895,0,4.37842,1.79395,4.37842,5.07227v6.96191h-2.27295l-.1914-1.292h-.09571a5.72165,5.72165,0,0,1-3.63672,1.5791A3.284,3.284,0,0,1,473.7085,368.49121Zm6.91455,0v-2.63183c-3.20606.40624-4.25879,1.24414-4.25879,2.416,0,1.05273.71777,1.50781,1.69873,1.50781A3.73478,3.73478,0,0,0,480.62305,368.49121Z" fill="#e6e6e6"/><path d="M485.93457,376.24316l.50244-2.15332a2.87048,2.87048,0,0,0,.8374.168,2.46268,2.46268,0,0,0,2.34473-2.00976l.21533-.74219-4.61767-11.60352h2.79931l2.03369,5.76563c.335,1.0293.66993,2.20117,1.02881,3.30176h.09571c.28711-1.07715.59814-2.249.88525-3.30176l1.77051-5.76563h2.65576l-4.25879,12.27344c-.981,2.65625-2.20117,4.30664-4.76123,4.30664A4.56751,4.56751,0,0,1,485.93457,376.24316Z" fill="#e6e6e6"/><path d="M502.46777,370.04688c4.23487-4.0918,6.89063-6.77149,6.89063-9.0918a2.36085,2.36085,0,0,0-2.51221-2.63281,4.206,4.206,0,0,0-2.9668,1.69921l-1.53125-1.53125a6.22807,6.22807,0,0,1,4.85694-2.34472,4.44761,4.44761,0,0,1,4.80908,4.665c0,2.7041-2.51221,5.47949-5.52686,8.66211.78956-.07227,1.79444-.168,2.53614-.168h3.73242v2.34472H502.46777Z" fill="#e6e6e6"/><path d="M603.05615,356.002h2.77539v13.30274h6.50782v2.34472h-9.28321Z" fill="#e6e6e6"/><path d="M613.752,365.78711c0-3.82813,2.65625-6.17188,5.40723-6.17188,3.18262,0,4.85644,2.29688,4.85644,5.57422a6.38276,6.38276,0,0,1-.11914,1.33985h-7.46484a3.36163,3.36163,0,0,0,3.46875,3.27734,4.90455,4.90455,0,0,0,2.72852-.86133l.93261,1.72266a7.40768,7.40768,0,0,1-4.01953,1.26855C616.28809,371.93652,613.752,369.66406,613.752,365.78711Zm7.8711-1.124c0-1.81836-.78907-2.91895-2.39258-2.91895-1.38672,0-2.584,1.0293-2.82227,2.91895Z" fill="#e6e6e6"/><path d="M625.18848,359.90234h2.7998l1.86524,6.10059c.31152,1.14844.66992,2.34473.98144,3.541h.0957c.335-1.19629.66993-2.39258,1.00489-3.541l1.86621-6.10059H636.457l-3.99512,11.74707H629.2793Z" fill="#e6e6e6"/><path d="M637.582,365.78711c0-3.82813,2.65625-6.17188,5.4082-6.17188,3.18165,0,4.85645,2.29688,4.85645,5.57422a6.37222,6.37222,0,0,1-.12012,1.33985h-7.46484a3.363,3.363,0,0,0,3.46973,3.27734,4.9038,4.9038,0,0,0,2.72753-.86133l.9336,1.72266a7.41291,7.41291,0,0,1-4.01953,1.26855C640.11914,371.93652,637.582,369.66406,637.582,365.78711Zm7.87207-1.124c0-1.81836-.79-2.91895-2.39258-2.91895-1.38769,0-2.584,1.0293-2.82324,2.91895Z" fill="#e6e6e6"/><path d="M650.47852,368.63477v-13.877h2.751v14.02051c0,.66992.31153.90918.59863.90918a1.6418,1.6418,0,0,0,.42969-.04785l.35938,2.05762a3.75581,3.75581,0,0,1-1.459.23925C651.19531,371.93652,650.47852,370.668,650.47852,368.63477Z" fill="#e6e6e6"/><path d="M659.90527,356.002h2.94239l2.20117,7.8711c.50293,1.77148.86133,3.30273,1.38867,5.09668h.0957c.52539-1.794.88477-3.3252,1.36328-5.09668l2.17774-7.8711h2.84668l-4.85645,15.64746h-3.27832Z" fill="#e6e6e6"/><path d="M673.40039,365.78711c0-3.82813,2.65527-6.17188,5.40625-6.17188,3.18262,0,4.85742,2.29688,4.85742,5.57422a6.44987,6.44987,0,0,1-.11914,1.33985h-7.46484a3.36046,3.36046,0,0,0,3.46875,3.27734,4.90386,4.90386,0,0,0,2.72754-.86133l.93261,1.72266a7.40506,7.40506,0,0,1-4.01953,1.26855C675.93555,371.93652,673.40039,369.66406,673.40039,365.78711Zm7.87109-1.124c0-1.81836-.78906-2.91895-2.39257-2.91895-1.3877,0-2.584,1.0293-2.82325,2.91895Z" fill="#e6e6e6"/><path d="M686.29688,368.63477v-13.877h2.751v14.02051c0,.66992.31153.90918.59863.90918a1.64184,1.64184,0,0,0,.42969-.04785l.35938,2.05762a3.75581,3.75581,0,0,1-1.459.23925C687.01367,371.93652,686.29688,370.668,686.29688,368.63477Z" fill="#e6e6e6"/><path d="M776.91992,356.002h2.77539v13.30274h6.50781v2.34472h-9.2832Z" fill="#e6e6e6"/><path d="M787.61523,365.78711c0-3.82813,2.65625-6.17188,5.40821-6.17188,3.18164,0,4.85644,2.29688,4.85644,5.57422a6.373,6.373,0,0,1-.12011,1.33985h-7.46485a3.36305,3.36305,0,0,0,3.46973,3.27734,4.90386,4.90386,0,0,0,2.72754-.86133l.93359,1.72266a7.41291,7.41291,0,0,1-4.01953,1.26855C790.15234,371.93652,787.61523,369.66406,787.61523,365.78711Zm7.87207-1.124c0-1.81836-.79-2.91895-2.39257-2.91895-1.3877,0-2.584,1.0293-2.82325,2.91895Z" fill="#e6e6e6"/><path d="M799.05273,359.90234h2.79883l1.86719,6.10059c.31055,1.14844.66992,2.34473.98047,3.541h.0957c.335-1.19629.66992-2.39258,1.00488-3.541l1.86622-6.10059h2.65625l-3.9961,11.74707h-3.18164Z" fill="#e6e6e6"/><path d="M811.44727,365.78711c0-3.82813,2.65527-6.17188,5.40625-6.17188,3.18261,0,4.85742,2.29688,4.85742,5.57422a6.44987,6.44987,0,0,1-.11914,1.33985H814.127a3.36047,3.36047,0,0,0,3.46875,3.27734,4.90383,4.90383,0,0,0,2.72754-.86133l.93262,1.72266a7.40509,7.40509,0,0,1-4.01953,1.26855C813.98242,371.93652,811.44727,369.66406,811.44727,365.78711Zm7.87109-1.124c0-1.81836-.78906-2.91895-2.39258-2.91895-1.38769,0-2.584,1.0293-2.82324,2.91895Z" fill="#e6e6e6"/><path d="M824.3418,368.63477v-13.877h2.75195v14.02051c0,.66992.31055.90918.59766.90918a1.65482,1.65482,0,0,0,.43164-.04785l.3584,2.05762a3.75781,3.75781,0,0,1-1.46.23925C825.06055,371.93652,824.3418,370.668,824.3418,368.63477Z" fill="#e6e6e6"/><path d="M835.85156,356.002H838.627v7.10547h.07129l5.5752-7.10547h3.08594l-4.8086,6.10157,5.62207,9.54589h-3.0625l-4.23535-7.36914-2.24805,2.79981v4.56933h-2.77539Z" fill="#e6e6e6"/><path d="M852.76758,358.34668h-4.52246V356.002h11.81933v2.34473H855.543v13.30273h-2.77539Z" fill="#e6e6e6"/><path d="M959.76953,363.87305c0-5.11914,3.23047-8.15821,7.39356-8.15821a6.43605,6.43605,0,0,1,4.7373,1.98633l-1.4834,1.79395a4.23782,4.23782,0,0,0-3.1582-1.36426c-2.77539,0-4.6416,2.1543-4.6416,5.6709,0,3.56543,1.65039,5.71777,4.78515,5.71777a3.45846,3.45846,0,0,0,2.249-.69336v-3.373h-2.9668v-2.27343h5.45508v6.89062a7.17167,7.17167,0,0,1-5.001,1.86621C962.9043,371.93652,959.76953,369.06543,959.76953,363.87305Z" fill="#e6e6e6"/><path d="M974.74805,368.49121c0-2.51269,2.08105-3.82812,6.91406-4.35449-.04785-1.24414-.55078-2.29688-2.15332-2.29688a6.69324,6.69324,0,0,0-3.30176,1.14844l-1.00488-1.8418a9.18081,9.18081,0,0,1,4.833-1.53125c2.91894,0,4.3789,1.79395,4.3789,5.07227v6.96191h-2.27344l-.1914-1.292h-.0957a5.72169,5.72169,0,0,1-3.63672,1.5791A3.28366,3.28366,0,0,1,974.74805,368.49121Zm6.91406,0v-2.63183c-3.20606.40624-4.25879,1.24414-4.25879,2.416,0,1.05273.71777,1.50781,1.69824,1.50781A3.73484,3.73484,0,0,0,981.66211,368.49121Z" fill="#e6e6e6"/><path d="M987.40527,356.28906a1.7054,1.7054,0,1,1,1.69825,1.55469A1.57922,1.57922,0,0,1,987.40527,356.28906Zm.31153,3.61328h2.751v11.74707h-2.751Z" fill="#e6e6e6"/><path d="M993.98438,359.90234h2.27343l.19141,1.57813h.0957a5.45749,5.45749,0,0,1,3.85156-1.86524c2.5127,0,3.61329,1.69825,3.61329,4.665v7.36914h-2.752v-7.01074c0-1.9375-.5498-2.65527-1.84179-2.65527-1.0293,0-1.69922.50293-2.67969,1.46v8.20605h-2.75195Z" fill="#e6e6e6"/><path d="M110.6709,774.23633h3.2539l5.0962,15.64746h-2.91895l-1.22021-4.23535h-5.26368l-1.22021,4.23535h-2.82324Zm-.40674,9.23535h3.99561l-.5503-1.91406c-.50244-1.65137-.957-3.44532-1.41162-5.168h-.0957c-.43067,1.74707-.88526,3.5166-1.3877,5.168Z" fill="#e6e6e6"/><path d="M120.74414,785.91211v-5.59863h-1.6748v-2.05762l1.81836-.11914.335-3.207h2.29687v3.207h2.99072v2.17676h-2.99072v5.59863c0,1.38769.52637,2.05762,1.65088,2.05762a3.3884,3.3884,0,0,0,1.22021-.2627l.47852,2.0332a7.517,7.517,0,0,1-2.39258.43067C121.749,790.1709,120.74414,788.44824,120.74414,785.91211Z" fill="#e6e6e6"/><path d="M128.90332,785.91211v-5.59863h-1.6748v-2.05762l1.81836-.11914.335-3.207h2.29687v3.207h2.99072v2.17676h-2.99072v5.59863c0,1.38769.52637,2.05762,1.65088,2.05762a3.3884,3.3884,0,0,0,1.22021-.2627l.47852,2.0332a7.517,7.517,0,0,1-2.39258.43067C129.9082,790.1709,128.90332,788.44824,128.90332,785.91211Z" fill="#e6e6e6"/><path d="M136.00928,786.72559c0-2.5127,2.08154-3.82813,6.91455-4.3545-.04785-1.24414-.55029-2.29687-2.15332-2.29687a6.69321,6.69321,0,0,0-3.30176,1.14844l-1.00488-1.8418a9.18078,9.18078,0,0,1,4.833-1.53125c2.91894,0,4.37841,1.79394,4.37841,5.07227v6.96191h-2.27295l-.1914-1.292h-.09571a5.7217,5.7217,0,0,1-3.63671,1.5791A3.28405,3.28405,0,0,1,136.00928,786.72559Zm6.91455,0v-2.63184c-3.20606.40625-4.25879,1.24414-4.25879,2.416,0,1.05273.71777,1.50781,1.69873,1.50781A3.73482,3.73482,0,0,0,142.92383,786.72559Z" fill="#e6e6e6"/><path d="M148.21191,784.02148a5.79349,5.79349,0,0,1,5.88575-6.17187A5.06365,5.06365,0,0,1,157.543,779.165l-1.33985,1.79394a2.87426,2.87426,0,0,0-1.96191-.86132c-1.89014,0-3.20605,1.55566-3.20605,3.92382,0,2.34571,1.292,3.9004,3.13427,3.9004a3.92053,3.92053,0,0,0,2.41651-1.00489l1.12451,1.81836a5.86642,5.86642,0,0,1-3.82813,1.43555C150.67627,790.1709,148.21191,787.92188,148.21191,784.02148Z" fill="#e6e6e6"/><path d="M160.03125,772.99219h2.70361V783.543h.07178l4.35449-5.40625h3.01465l-4.01953,4.78516,4.42627,6.96191H167.5918l-3.01465-5.09668-1.84229,2.10547v2.99121h-2.70361Z" fill="#e6e6e6"/><path d="M272.35986,774.23633h4.187c4.78515,0,7.60839,2.584,7.60839,7.752,0,5.19141-2.82324,7.89551-7.46484,7.89551h-4.33057Zm3.99561,13.39844c3.1582,0,4.95264-1.79493,4.95264-5.64649,0-3.82812-1.79444-5.50293-4.95264-5.50293h-1.22022v11.14942Z" fill="#e6e6e6"/><path d="M286.30908,784.02148c0-3.82812,2.65576-6.17187,5.40723-6.17187,3.18213,0,4.85693,2.29687,4.85693,5.57422a6.41069,6.41069,0,0,1-.11963,1.33984h-7.46484A3.36176,3.36176,0,0,0,292.458,788.041a4.90386,4.90386,0,0,0,2.72754-.86133l.9331,1.72265a7.409,7.409,0,0,1-4.01953,1.26856C288.84521,790.1709,286.30908,787.89844,286.30908,784.02148Zm7.87158-1.124c0-1.81836-.78955-2.91894-2.39257-2.91894-1.3877,0-2.584,1.02929-2.82325,2.91894Z" fill="#e6e6e6"/><path d="M298.43945,784.02148a5.79349,5.79349,0,0,1,5.88575-6.17187,5.06365,5.06365,0,0,1,3.44531,1.31543l-1.33985,1.79394a2.87426,2.87426,0,0,0-1.96191-.86132c-1.89014,0-3.20605,1.55566-3.20605,3.92382,0,2.34571,1.292,3.9004,3.13427,3.9004a3.92055,3.92055,0,0,0,2.41651-1.00489l1.12451,1.81836a5.86642,5.86642,0,0,1-3.82813,1.43555C300.90381,790.1709,298.43945,787.92188,298.43945,784.02148Z" fill="#e6e6e6"/><path d="M309.398,786.72559c0-2.5127,2.08154-3.82813,6.91455-4.3545-.04785-1.24414-.55029-2.29687-2.15332-2.29687a6.69324,6.69324,0,0,0-3.30176,1.14844l-1.00488-1.8418a9.18081,9.18081,0,0,1,4.833-1.53125c2.91894,0,4.37841,1.79394,4.37841,5.07227v6.96191H316.791l-.19141-1.292h-.0957a5.72175,5.72175,0,0,1-3.63672,1.5791A3.28405,3.28405,0,0,1,309.398,786.72559Zm6.91455,0v-2.63184c-3.20605.40625-4.25879,1.24414-4.25879,2.416,0,1.05273.71777,1.50781,1.69873,1.50781A3.7348,3.7348,0,0,0,316.3125,786.72559Z" fill="#e6e6e6"/><path d="M321.624,794.47754l.50244-2.15332a2.87094,2.87094,0,0,0,.83741.168,2.46267,2.46267,0,0,0,2.34472-2.00977l.21534-.74219-4.61768-11.60351h2.79932l2.03369,5.76562c.335,1.0293.66992,2.20118,1.02881,3.30176h.0957c.28711-1.07715.59814-2.249.88525-3.30176l1.77051-5.76562h2.65576l-4.25879,12.27344c-.981,2.65625-2.20117,4.30664-4.76123,4.30664A4.56785,4.56785,0,0,1,321.624,794.47754Z" fill="#e6e6e6"/><path d="M339.01855,787.63477H342.416v-10.001H339.6167v-1.72266a10.22688,10.22688,0,0,0,3.51709-1.24414h2.05762v12.96778h2.99072v2.249h-9.16358Z" fill="#e6e6e6"/><path d="M432.6748,774.23633h5.00049c3.23,0,5.59864.98047,5.59864,3.85156a3.52714,3.52714,0,0,1-2.17725,3.39844v.0957a3.57312,3.57312,0,0,1,2.99072,3.708c0,3.13379-2.56006,4.59375-6.00537,4.59375H432.6748Zm4.76124,6.46c2.17724,0,3.11035-.86133,3.11035-2.20117,0-1.53125-1.02881-2.10547-3.0625-2.10547H435.4502v4.30664Zm.35888,7.03418c2.29688,0,3.58887-.83789,3.58887-2.584,0-1.65039-1.24414-2.36914-3.58887-2.36914H435.4502v4.95313Z" fill="#e6e6e6"/><path d="M446.9585,774.23633h4.92871c3.46924,0,6.05322,1.19629,6.05322,4.833,0,3.46972-2.584,5.07226-5.95752,5.07226h-2.249v5.74219H446.9585Zm4.80908,7.67969c2.3208,0,3.44531-.93262,3.44531-2.84668,0-1.96192-1.22021-2.6084-3.541-2.6084h-1.938V781.916Z" fill="#e6e6e6"/><path d="M465.669,774.23633h2.77539v13.30273h6.50781v2.34473H465.669Z" fill="#e6e6e6"/><path d="M476.36426,784.02148c0-3.82812,2.65576-6.17187,5.40722-6.17187,3.18213,0,4.85694,2.29687,4.85694,5.57422a6.41069,6.41069,0,0,1-.11963,1.33984H479.044a3.36176,3.36176,0,0,0,3.46923,3.27735,4.90383,4.90383,0,0,0,2.72754-.86133l.93311,1.72265a7.409,7.409,0,0,1-4.01953,1.26856C478.90039,790.1709,476.36426,787.89844,476.36426,784.02148Zm7.87158-1.124c0-1.81836-.78955-2.91894-2.39258-2.91894-1.38769,0-2.584,1.02929-2.82324,2.91894Z" fill="#e6e6e6"/><path d="M487.80127,778.13672h2.79932l1.86621,6.10058c.311,1.14844.66992,2.34473.981,3.541h.09571c.335-1.19629.66992-2.39258,1.00488-3.541l1.86621-6.10058h2.65576l-3.9956,11.74707h-3.18213Z" fill="#e6e6e6"/><path d="M500.19482,784.02148c0-3.82812,2.65577-6.17187,5.40723-6.17187,3.18213,0,4.85693,2.29687,4.85693,5.57422a6.41149,6.41149,0,0,1-.11962,1.33984h-7.46485a3.36176,3.36176,0,0,0,3.46924,3.27735,4.90386,4.90386,0,0,0,2.72754-.86133l.9331,1.72265a7.409,7.409,0,0,1-4.01953,1.26856C502.731,790.1709,500.19482,787.89844,500.19482,784.02148Zm7.87159-1.124c0-1.81836-.78955-2.91894-2.39258-2.91894-1.3877,0-2.584,1.02929-2.82324,2.91894Z" fill="#e6e6e6"/><path d="M513.09131,786.86914V772.99219h2.75146V787.0127c0,.66992.311.90918.59815.90918a1.64794,1.64794,0,0,0,.43066-.04786l.35889,2.05762a3.75656,3.75656,0,0,1-1.45947.23926C513.80908,790.1709,513.09131,788.90234,513.09131,786.86914Z" fill="#e6e6e6"/><path d="M608.438,774.23633h4.187c4.78516,0,7.6084,2.584,7.6084,7.752,0,5.19141-2.82324,7.89551-7.46485,7.89551H608.438Zm3.9956,13.39844c3.15821,0,4.95313-1.79493,4.95313-5.64649,0-3.82812-1.79492-5.50293-4.95313-5.50293h-1.22021v11.14942Z" fill="#e6e6e6"/><path d="M622.38672,784.02148c0-3.82812,2.65625-6.17187,5.4082-6.17187,3.18164,0,4.85645,2.29687,4.85645,5.57422a6.37211,6.37211,0,0,1-.12012,1.33984h-7.46484a3.363,3.363,0,0,0,3.46972,3.27735,4.90383,4.90383,0,0,0,2.72754-.86133l.9336,1.72265a7.41293,7.41293,0,0,1-4.01954,1.26856C624.92383,790.1709,622.38672,787.89844,622.38672,784.02148Zm7.87207-1.124c0-1.81836-.79-2.91894-2.39258-2.91894-1.38769,0-2.584,1.02929-2.82324,2.91894Z" fill="#e6e6e6"/><path d="M634.51758,784.02148a5.794,5.794,0,0,1,5.88672-6.17187,5.06461,5.06461,0,0,1,3.44531,1.31543l-1.33984,1.79394a2.87744,2.87744,0,0,0-1.96289-.86132c-1.88965,0-3.20508,1.55566-3.20508,3.92382,0,2.34571,1.291,3.9004,3.13379,3.9004a3.92182,3.92182,0,0,0,2.417-1.00489l1.124,1.81836a5.86639,5.86639,0,0,1-3.82812,1.43555C636.98242,790.1709,634.51758,787.92188,634.51758,784.02148Z" fill="#e6e6e6"/><path d="M645.47656,786.72559c0-2.5127,2.08106-3.82813,6.91406-4.3545-.04785-1.24414-.55078-2.29687-2.15332-2.29687a6.69321,6.69321,0,0,0-3.30175,1.14844l-1.00489-1.8418a9.18084,9.18084,0,0,1,4.833-1.53125c2.91895,0,4.37891,1.79394,4.37891,5.07227v6.96191h-2.27344l-.19141-1.292h-.0957a5.7217,5.7217,0,0,1-3.63672,1.5791A3.28367,3.28367,0,0,1,645.47656,786.72559Zm6.91406,0v-2.63184c-3.20605.40625-4.25878,1.24414-4.25878,2.416,0,1.05273.71777,1.50781,1.69824,1.50781A3.73484,3.73484,0,0,0,652.39062,786.72559Z" fill="#e6e6e6"/><path d="M657.70215,794.47754l.50293-2.15332a2.864,2.864,0,0,0,.83691.168,2.46268,2.46268,0,0,0,2.34473-2.00977l.21484-.74219-4.61718-11.60351h2.79882l2.03418,5.76562c.335,1.0293.66992,2.20118,1.02832,3.30176h.09571c.28711-1.07715.59863-2.249.88574-3.30176l1.77051-5.76562h2.65625l-4.25977,12.27344c-.98047,2.65625-2.20117,4.30664-4.76074,4.30664A4.5699,4.5699,0,0,1,657.70215,794.47754Z" fill="#e6e6e6"/><path d="M674.23535,788.28125c4.23535-4.0918,6.89063-6.77148,6.89063-9.0918a2.36121,2.36121,0,0,0-2.5127-2.63281,4.20883,4.20883,0,0,0-2.9668,1.69922l-1.53125-1.53125a6.22973,6.22973,0,0,1,4.85743-2.34473,4.44723,4.44723,0,0,1,4.80859,4.665c0,2.7041-2.51172,5.47949-5.52637,8.66211.79-.07226,1.79395-.168,2.53614-.168h3.73242v2.34473H674.23535Z" fill="#e6e6e6"/><path d="M773.1084,787.874l1.627-1.88964a6.22035,6.22035,0,0,0,4.06738,1.76953c1.77051,0,2.72754-.78907,2.72754-2.00977,0-1.291-1.00488-1.69824-2.417-2.29687l-2.15234-.93262a4.509,4.509,0,0,1-3.15821-4.16309c0-2.48828,2.20118-4.40234,5.26368-4.40234a6.90521,6.90521,0,0,1,4.80859,1.98633l-1.41211,1.76953a5.0967,5.0967,0,0,0-3.39648-1.33985c-1.48438,0-2.46485.69434-2.46485,1.84278,0,1.21972,1.19629,1.6748,2.48828,2.20117l2.12891.88574c1.84277.78906,3.1582,1.96094,3.1582,4.23438,0,2.53613-2.10547,4.6416-5.62207,4.6416A8.10342,8.10342,0,0,1,773.1084,787.874Z" fill="#e6e6e6"/><path d="M786.86621,785.50586v-7.36914h2.751v7.00976c0,1.9375.55078,2.65625,1.81836,2.65625,1.02929,0,1.72265-.47851,2.6084-1.62695v-8.03906h2.751v11.74707h-2.248l-.21583-1.72266h-.07128a4.79123,4.79123,0,0,1-3.78125,2.00977C787.9668,790.1709,786.86621,788.47266,786.86621,785.50586Z" fill="#e6e6e6"/><path d="M799.11621,788.544l1.292-1.77051a5.2283,5.2283,0,0,0,3.25391,1.3164c1.26758,0,1.86621-.59863,1.86621-1.41211,0-.98046-1.26855-1.41211-2.5127-1.89062-1.55468-.57422-3.30078-1.459-3.30078-3.4209,0-2.05762,1.65039-3.5166,4.28223-3.5166a6.34349,6.34349,0,0,1,3.89941,1.41113l-1.26757,1.67481a4.37584,4.37584,0,0,0-2.584-1.00489c-1.17187,0-1.72265.54981-1.72265,1.292,0,.93359,1.17187,1.292,2.44043,1.74609,1.60253.59863,3.374,1.36426,3.374,3.56543,0,2.00977-1.60352,3.63672-4.57031,3.63672A7.44207,7.44207,0,0,1,799.11621,788.544Z" fill="#e6e6e6"/><path d="M810.53027,785.91211v-5.59863h-1.6748v-2.05762l1.81836-.11914.335-3.207h2.29687v3.207h2.99122v2.17676h-2.99122v5.59863c0,1.38769.52637,2.05762,1.65137,2.05762a3.38807,3.38807,0,0,0,1.21973-.2627l.47851,2.0332a7.5169,7.5169,0,0,1-2.39257.43067C811.53516,790.1709,810.53027,788.44824,810.53027,785.91211Z" fill="#e6e6e6"/><path d="M817.63672,786.72559c0-2.5127,2.08105-3.82813,6.91406-4.3545-.04785-1.24414-.55078-2.29687-2.15332-2.29687a6.69324,6.69324,0,0,0-3.30176,1.14844l-1.00488-1.8418a9.18081,9.18081,0,0,1,4.833-1.53125c2.91894,0,4.3789,1.79394,4.3789,5.07227v6.96191H825.0293l-.19141-1.292h-.0957a5.72175,5.72175,0,0,1-3.63672,1.5791A3.28366,3.28366,0,0,1,817.63672,786.72559Zm6.91406,0v-2.63184c-3.20605.40625-4.25879,1.24414-4.25879,2.416,0,1.05273.71778,1.50781,1.69824,1.50781A3.73484,3.73484,0,0,0,824.55078,786.72559Z" fill="#e6e6e6"/><path d="M830.293,774.52344a1.7054,1.7054,0,1,1,1.69922,1.55468A1.5795,1.5795,0,0,1,830.293,774.52344Zm.31055,3.61328h2.75195v11.74707h-2.75195Z" fill="#e6e6e6"/><path d="M836.87305,778.13672h2.27246l.1914,1.57812h.09571a5.45777,5.45777,0,0,1,3.85254-1.86523c2.51172,0,3.6123,1.69824,3.6123,4.665v7.36914h-2.751v-7.01074c0-1.9375-.55078-2.65528-1.84277-2.65528-1.02832,0-1.69824.50293-2.67969,1.46v8.20606h-2.751Z" fill="#e6e6e6"/><path d="M944.51758,774.23633h5.28711c3.2539,0,5.74219,1.14844,5.74219,4.6416a4.37847,4.37847,0,0,1-3.11036,4.47363l3.73243,6.53223h-3.11036l-3.373-6.125H947.293v6.125h-2.77539Zm5,7.32129c2.1289,0,3.30176-.90918,3.30176-2.67969,0-1.79395-1.17286-2.417-3.30176-2.417H947.293v5.09668Z" fill="#e6e6e6"/><path d="M957.4375,784.02148c0-3.82812,2.65625-6.17187,5.4082-6.17187,3.18164,0,4.85645,2.29687,4.85645,5.57422a6.37211,6.37211,0,0,1-.12012,1.33984h-7.46484a3.36305,3.36305,0,0,0,3.46972,3.27735,4.90383,4.90383,0,0,0,2.72754-.86133l.9336,1.72265a7.41292,7.41292,0,0,1-4.01953,1.26856C959.97461,790.1709,957.4375,787.89844,957.4375,784.02148Zm7.87207-1.124c0-1.81836-.79-2.91894-2.39258-2.91894-1.38769,0-2.584,1.02929-2.82324,2.91894Z" fill="#e6e6e6"/><path d="M970.334,786.86914V772.99219h2.751V787.0127c0,.66992.31152.90918.59863.90918a1.64151,1.64151,0,0,0,.42969-.04786l.35938,2.05762a3.75559,3.75559,0,0,1-1.459.23926C971.05078,790.1709,970.334,788.90234,970.334,786.86914Z" fill="#e6e6e6"/><path d="M976.05273,784.02148c0-3.82812,2.65528-6.17187,5.40625-6.17187,3.18262,0,4.85743,2.29687,4.85743,5.57422a6.45045,6.45045,0,0,1-.11914,1.33984h-7.46485a3.36047,3.36047,0,0,0,3.46875,3.27735,4.90386,4.90386,0,0,0,2.72754-.86133l.93262,1.72265a7.40513,7.40513,0,0,1-4.01953,1.26856C978.58789,790.1709,976.05273,787.89844,976.05273,784.02148Zm7.8711-1.124c0-1.81836-.78906-2.91894-2.39258-2.91894-1.3877,0-2.584,1.02929-2.82324,2.91894Z" fill="#e6e6e6"/><path d="M988.03906,786.72559c0-2.5127,2.082-3.82813,6.915-4.3545-.04785-1.24414-.5498-2.29687-2.15332-2.29687a6.69324,6.69324,0,0,0-3.30176,1.14844l-1.00488-1.8418a9.18081,9.18081,0,0,1,4.833-1.53125c2.91894,0,4.37793,1.79394,4.37793,5.07227v6.96191h-2.27246l-.19141-1.292h-.0957a5.72175,5.72175,0,0,1-3.63672,1.5791A3.28444,3.28444,0,0,1,988.03906,786.72559Zm6.915,0v-2.63184c-3.20605.40625-4.25879,1.24414-4.25879,2.416,0,1.05273.71778,1.50781,1.69922,1.50781A3.73474,3.73474,0,0,0,994.9541,786.72559Z" fill="#e6e6e6"/><path d="M999.835,788.544l1.292-1.77051a5.2283,5.2283,0,0,0,3.25391,1.3164c1.26758,0,1.86621-.59863,1.86621-1.41211,0-.98046-1.26855-1.41211-2.51269-1.89062-1.55469-.57422-3.30079-1.459-3.30079-3.4209,0-2.05762,1.65039-3.5166,4.28223-3.5166a6.34349,6.34349,0,0,1,3.89941,1.41113l-1.26757,1.67481a4.37584,4.37584,0,0,0-2.584-1.00489c-1.17187,0-1.72265.54981-1.72265,1.292,0,.93359,1.17187,1.292,2.44043,1.74609,1.60253.59863,3.374,1.36426,3.374,3.56543,0,2.00977-1.60352,3.63672-4.57031,3.63672A7.44207,7.44207,0,0,1,999.835,788.544Z" fill="#e6e6e6"/><path d="M1010.55469,784.02148c0-3.82812,2.65527-6.17187,5.40625-6.17187,3.18261,0,4.85742,2.29687,4.85742,5.57422a6.44976,6.44976,0,0,1-.11914,1.33984h-7.46484a3.36047,3.36047,0,0,0,3.46874,3.27735,4.90381,4.90381,0,0,0,2.72754-.86133l.93262,1.72265a7.4051,7.4051,0,0,1-4.01953,1.26856C1013.08984,790.1709,1010.55469,787.89844,1010.55469,784.02148Zm7.87109-1.124c0-1.81836-.78906-2.91894-2.39258-2.91894-1.38769,0-2.584,1.02929-2.82324,2.91894Z" fill="#e6e6e6"/><path d="M100.59814,602.4668h5.2876c3.25391,0,5.74219,1.14843,5.74219,4.6416a4.37846,4.37846,0,0,1-3.11035,4.47363l3.73242,6.53223h-3.11035l-3.37354-6.125h-2.39257v6.125h-2.7754Zm5.00049,7.32129c2.1294,0,3.30176-.90918,3.30176-2.67969,0-1.79395-1.17236-2.417-3.30176-2.417h-2.22509v5.09668Z" fill="#e6e6e6"/><path d="M113.51855,612.252c0-3.82812,2.65577-6.17187,5.40723-6.17187,3.18213,0,4.85693,2.29687,4.85693,5.57422a6.41156,6.41156,0,0,1-.11962,1.33984h-7.46485a3.36176,3.36176,0,0,0,3.46924,3.27734,4.90385,4.90385,0,0,0,2.72754-.86132l.9331,1.72265a7.409,7.409,0,0,1-4.01953,1.26856C116.05469,618.40137,113.51855,616.12891,113.51855,612.252Zm7.87159-1.124c0-1.81836-.78955-2.91895-2.39258-2.91895-1.3877,0-2.584,1.0293-2.82324,2.91895Z" fill="#e6e6e6"/><path d="M126.41455,615.09961V601.22266H129.166v14.0205c0,.66993.311.90918.59814.90918a1.64827,1.64827,0,0,0,.43066-.04785l.35889,2.05762a3.75675,3.75675,0,0,1-1.45947.23926C127.13232,618.40137,126.41455,617.13281,126.41455,615.09961Z" fill="#e6e6e6"/><path d="M132.1333,612.252c0-3.82812,2.65576-6.17187,5.40723-6.17187,3.18213,0,4.85693,2.29687,4.85693,5.57422a6.41076,6.41076,0,0,1-.11963,1.33984H134.813a3.36176,3.36176,0,0,0,3.46924,3.27734,4.90385,4.90385,0,0,0,2.72754-.86132l.9331,1.72265a7.409,7.409,0,0,1-4.01953,1.26856C134.66943,618.40137,132.1333,616.12891,132.1333,612.252Zm7.87158-1.124c0-1.81836-.78955-2.91895-2.39258-2.91895-1.38769,0-2.584,1.0293-2.82324,2.91895Z" fill="#e6e6e6"/><path d="M144.12012,614.95605c0-2.51269,2.08154-3.82812,6.91455-4.35449-.04785-1.24414-.55029-2.29687-2.15332-2.29687a6.69319,6.69319,0,0,0-3.30176,1.14843l-1.00488-1.84179a9.18077,9.18077,0,0,1,4.833-1.53125c2.91895,0,4.37842,1.79394,4.37842,5.07226v6.96192h-2.273l-.1914-1.292h-.09571a5.7217,5.7217,0,0,1-3.63671,1.5791A3.28406,3.28406,0,0,1,144.12012,614.95605Zm6.91455,0v-2.63183c-3.20606.40625-4.25879,1.24414-4.25879,2.416,0,1.05274.71777,1.50782,1.69873,1.50782A3.73479,3.73479,0,0,0,151.03467,614.95605Z" fill="#e6e6e6"/><path d="M155.916,616.77441l1.292-1.7705a5.22825,5.22825,0,0,0,3.2539,1.3164c1.26807,0,1.86621-.59863,1.86621-1.41211,0-.98047-1.26806-1.41211-2.5122-1.89062-1.55518-.57422-3.30176-1.459-3.30176-3.4209,0-2.05762,1.65088-3.5166,4.28272-3.5166a6.345,6.345,0,0,1,3.8999,1.41113l-1.26807,1.67481a4.377,4.377,0,0,0-2.584-1.00489c-1.17237,0-1.72266.54981-1.72266,1.292,0,.9336,1.17236,1.292,2.44043,1.7461,1.603.59863,3.37354,1.36426,3.37354,3.56543,0,2.00976-1.603,3.63672-4.56983,3.63672A7.44313,7.44313,0,0,1,155.916,616.77441Z" fill="#e6e6e6"/><path d="M166.63477,612.252c0-3.82812,2.65576-6.17187,5.40722-6.17187,3.18213,0,4.85694,2.29687,4.85694,5.57422a6.41145,6.41145,0,0,1-.11963,1.33984h-7.46485a3.36176,3.36176,0,0,0,3.46924,3.27734,4.90385,4.90385,0,0,0,2.72754-.86132l.93311,1.72265a7.40906,7.40906,0,0,1-4.01954,1.26856C169.1709,618.40137,166.63477,616.12891,166.63477,612.252Zm7.87158-1.124c0-1.81836-.78955-2.91895-2.39258-2.91895-1.3877,0-2.584,1.0293-2.82324,2.91895Z" fill="#e6e6e6"/><path d="M266.95264,602.4668H269.728v13.30273h6.50781v2.34473h-9.2832Z" fill="#e6e6e6"/><path d="M277.64844,612.252c0-3.82812,2.65576-6.17187,5.40722-6.17187,3.18213,0,4.85694,2.29687,4.85694,5.57422a6.41076,6.41076,0,0,1-.11963,1.33984h-7.46485a3.36176,3.36176,0,0,0,3.46924,3.27734,4.90382,4.90382,0,0,0,2.72754-.86132l.93311,1.72265a7.409,7.409,0,0,1-4.01953,1.26856C280.18457,618.40137,277.64844,616.12891,277.64844,612.252Zm7.87158-1.124c0-1.81836-.78955-2.91895-2.39258-2.91895-1.38769,0-2.584,1.0293-2.82324,2.91895Z" fill="#e6e6e6"/><path d="M289.085,606.36719h2.79932l1.86621,6.10058c.311,1.14844.66992,2.34473.981,3.541h.0957c.335-1.19629.66992-2.39258,1.00488-3.541l1.86621-6.10058H300.354l-3.9956,11.74707h-3.18213Z" fill="#e6e6e6"/><path d="M301.479,612.252c0-3.82812,2.65577-6.17187,5.40723-6.17187,3.18213,0,4.85693,2.29687,4.85693,5.57422a6.41156,6.41156,0,0,1-.11962,1.33984h-7.46485a3.36176,3.36176,0,0,0,3.46924,3.27734,4.90385,4.90385,0,0,0,2.72754-.86132l.9331,1.72265a7.409,7.409,0,0,1-4.01953,1.26856C304.01514,618.40137,301.479,616.12891,301.479,612.252Zm7.87159-1.124c0-1.81836-.78955-2.91895-2.39258-2.91895-1.3877,0-2.584,1.0293-2.82324,2.91895Z" fill="#e6e6e6"/><path d="M314.375,615.09961V601.22266h2.75146v14.0205c0,.66993.311.90918.59815.90918a1.64827,1.64827,0,0,0,.43066-.04785l.35889,2.05762a3.75675,3.75675,0,0,1-1.45947.23926C315.09277,618.40137,314.375,617.13281,314.375,615.09961Z" fill="#e6e6e6"/><path d="M323.80176,602.4668h2.94287l2.20117,7.87109c.50244,1.77149.86133,3.30273,1.3877,5.09668h.0957c.52637-1.79395.88525-3.32519,1.36377-5.09668l2.17724-7.87109h2.84717l-4.85693,15.64746h-3.27783Z" fill="#e6e6e6"/><path d="M337.29639,612.252c0-3.82812,2.65576-6.17187,5.40722-6.17187,3.18213,0,4.85694,2.29687,4.85694,5.57422a6.41076,6.41076,0,0,1-.11963,1.33984h-7.46485a3.36176,3.36176,0,0,0,3.46924,3.27734,4.90382,4.90382,0,0,0,2.72754-.86132l.93311,1.72265a7.409,7.409,0,0,1-4.01953,1.26856C339.83252,618.40137,337.29639,616.12891,337.29639,612.252Zm7.87158-1.124c0-1.81836-.78955-2.91895-2.39258-2.91895-1.38769,0-2.584,1.0293-2.82324,2.91895Z" fill="#e6e6e6"/><path d="M350.19238,615.09961V601.22266h2.75147v14.0205c0,.66993.311.90918.59814.90918a1.64838,1.64838,0,0,0,.43067-.04785l.35888,2.05762a3.75671,3.75671,0,0,1-1.45947.23926C350.91016,618.40137,350.19238,617.13281,350.19238,615.09961Z" fill="#e6e6e6"/><path d="M433.36865,602.4668H436.144v13.30273h6.50782v2.34473h-9.28321Z" fill="#e6e6e6"/><path d="M444.06445,612.252c0-3.82812,2.65576-6.17187,5.40723-6.17187,3.18213,0,4.85693,2.29687,4.85693,5.57422a6.41076,6.41076,0,0,1-.11963,1.33984h-7.46484a3.36176,3.36176,0,0,0,3.46924,3.27734,4.90385,4.90385,0,0,0,2.72754-.86132l.9331,1.72265a7.409,7.409,0,0,1-4.01953,1.26856C446.60059,618.40137,444.06445,616.12891,444.06445,612.252Zm7.87159-1.124c0-1.81836-.78956-2.91895-2.39258-2.91895-1.3877,0-2.584,1.0293-2.82325,2.91895Z" fill="#e6e6e6"/><path d="M455.501,606.36719h2.79931l1.86621,6.10058c.311,1.14844.66993,2.34473.981,3.541h.0957c.335-1.19629.66993-2.39258,1.00489-3.541l1.86621-6.10058H466.77l-3.99561,11.74707h-3.18212Z" fill="#e6e6e6"/><path d="M467.895,612.252c0-3.82812,2.65576-6.17187,5.40723-6.17187,3.18213,0,4.85693,2.29687,4.85693,5.57422a6.41076,6.41076,0,0,1-.11963,1.33984h-7.46484a3.36175,3.36175,0,0,0,3.46924,3.27734,4.90379,4.90379,0,0,0,2.72753-.86132l.93311,1.72265a7.409,7.409,0,0,1-4.01953,1.26856C470.43115,618.40137,467.895,616.12891,467.895,612.252Zm7.87158-1.124c0-1.81836-.78955-2.91895-2.39258-2.91895-1.38769,0-2.584,1.0293-2.82324,2.91895Z" fill="#e6e6e6"/><path d="M480.791,615.09961V601.22266h2.75146v14.0205c0,.66993.311.90918.59814.90918a1.64834,1.64834,0,0,0,.43067-.04785l.35889,2.05762a3.7568,3.7568,0,0,1-1.45948.23926C481.50879,618.40137,480.791,617.13281,480.791,615.09961Z" fill="#e6e6e6"/><path d="M492.29932,602.4668h2.77539v7.10547h.07177l5.57471-7.10547h3.08643l-4.80908,6.10156,5.62255,9.5459h-3.0625l-4.23486-7.36914-2.249,2.7998v4.56934h-2.77539Z" fill="#e6e6e6"/><path d="M509.21533,604.81152h-4.522V602.4668H516.5127v2.34472h-4.522v13.30274h-2.77539Z" fill="#e6e6e6"/><path d="M603.05615,602.4668h2.77539v13.30273h6.50782v2.34473h-9.28321Z" fill="#e6e6e6"/><path d="M613.752,612.252c0-3.82812,2.65625-6.17187,5.40723-6.17187,3.18262,0,4.85644,2.29687,4.85644,5.57422a6.38272,6.38272,0,0,1-.11914,1.33984h-7.46484a3.36163,3.36163,0,0,0,3.46875,3.27734,4.90454,4.90454,0,0,0,2.72852-.86132l.93261,1.72265a7.40769,7.40769,0,0,1-4.01953,1.26856C616.28809,618.40137,613.752,616.12891,613.752,612.252Zm7.8711-1.124c0-1.81836-.78907-2.91895-2.39258-2.91895-1.38672,0-2.584,1.0293-2.82227,2.91895Z" fill="#e6e6e6"/><path d="M625.18848,606.36719h2.7998l1.86524,6.10058c.31152,1.14844.66992,2.34473.98144,3.541h.0957c.335-1.19629.66993-2.39258,1.00489-3.541l1.86621-6.10058H636.457l-3.99512,11.74707H629.2793Z" fill="#e6e6e6"/><path d="M637.582,612.252c0-3.82812,2.65625-6.17187,5.4082-6.17187,3.18165,0,4.85645,2.29687,4.85645,5.57422a6.37218,6.37218,0,0,1-.12012,1.33984h-7.46484a3.363,3.363,0,0,0,3.46973,3.27734,4.90379,4.90379,0,0,0,2.72753-.86132l.9336,1.72265a7.41292,7.41292,0,0,1-4.01953,1.26856C640.11914,618.40137,637.582,616.12891,637.582,612.252Zm7.87207-1.124c0-1.81836-.79-2.91895-2.39258-2.91895-1.38769,0-2.584,1.0293-2.82324,2.91895Z" fill="#e6e6e6"/><path d="M650.47852,615.09961V601.22266h2.751v14.0205c0,.66993.31153.90918.59863.90918a1.6418,1.6418,0,0,0,.42969-.04785l.35938,2.05762a3.75578,3.75578,0,0,1-1.459.23926C651.19531,618.40137,650.47852,617.13281,650.47852,615.09961Z" fill="#e6e6e6"/><path d="M659.90527,602.4668h2.94239l2.20117,7.87109c.50293,1.77149.86133,3.30273,1.38867,5.09668h.0957c.52539-1.79395.88477-3.32519,1.36328-5.09668l2.17774-7.87109h2.84668l-4.85645,15.64746h-3.27832Z" fill="#e6e6e6"/><path d="M673.40039,612.252c0-3.82812,2.65527-6.17187,5.40625-6.17187,3.18262,0,4.85742,2.29687,4.85742,5.57422a6.44983,6.44983,0,0,1-.11914,1.33984h-7.46484a3.36046,3.36046,0,0,0,3.46875,3.27734,4.90385,4.90385,0,0,0,2.72754-.86132l.93261,1.72265a7.40507,7.40507,0,0,1-4.01953,1.26856C675.93555,618.40137,673.40039,616.12891,673.40039,612.252Zm7.87109-1.124c0-1.81836-.78906-2.91895-2.39257-2.91895-1.3877,0-2.584,1.0293-2.82325,2.91895Z" fill="#e6e6e6"/><path d="M686.29688,615.09961V601.22266h2.751v14.0205c0,.66993.31153.90918.59863.90918a1.64184,1.64184,0,0,0,.42969-.04785l.35938,2.05762a3.75578,3.75578,0,0,1-1.459.23926C687.01367,618.40137,686.29688,617.13281,686.29688,615.09961Z" fill="#e6e6e6"/><path d="M776.91992,602.4668h2.77539v13.30273h6.50781v2.34473h-9.2832Z" fill="#e6e6e6"/><path d="M787.61523,612.252c0-3.82812,2.65625-6.17187,5.40821-6.17187,3.18164,0,4.85644,2.29687,4.85644,5.57422a6.373,6.373,0,0,1-.12011,1.33984h-7.46485a3.36305,3.36305,0,0,0,3.46973,3.27734,4.90385,4.90385,0,0,0,2.72754-.86132l.93359,1.72265a7.41292,7.41292,0,0,1-4.01953,1.26856C790.15234,618.40137,787.61523,616.12891,787.61523,612.252Zm7.87207-1.124c0-1.81836-.79-2.91895-2.39257-2.91895-1.3877,0-2.584,1.0293-2.82325,2.91895Z" fill="#e6e6e6"/><path d="M799.05273,606.36719h2.79883l1.86719,6.10058c.31055,1.14844.66992,2.34473.98047,3.541h.0957c.335-1.19629.66992-2.39258,1.00488-3.541l1.86622-6.10058h2.65625l-3.9961,11.74707h-3.18164Z" fill="#e6e6e6"/><path d="M811.44727,612.252c0-3.82812,2.65527-6.17187,5.40625-6.17187,3.18261,0,4.85742,2.29687,4.85742,5.57422a6.44983,6.44983,0,0,1-.11914,1.33984H814.127a3.36047,3.36047,0,0,0,3.46875,3.27734,4.90382,4.90382,0,0,0,2.72754-.86132l.93262,1.72265a7.4051,7.4051,0,0,1-4.01953,1.26856C813.98242,618.40137,811.44727,616.12891,811.44727,612.252Zm7.87109-1.124c0-1.81836-.78906-2.91895-2.39258-2.91895-1.38769,0-2.584,1.0293-2.82324,2.91895Z" fill="#e6e6e6"/><path d="M824.3418,615.09961V601.22266h2.75195v14.0205c0,.66993.31055.90918.59766.90918a1.65482,1.65482,0,0,0,.43164-.04785l.3584,2.05762a3.75779,3.75779,0,0,1-1.46.23926C825.06055,618.40137,824.3418,617.13281,824.3418,615.09961Z" fill="#e6e6e6"/><path d="M835.85156,602.4668H838.627v7.10547h.07129l5.5752-7.10547h3.08594l-4.8086,6.10156,5.62207,9.5459h-3.0625l-4.23535-7.36914-2.24805,2.7998v4.56934h-2.77539Z" fill="#e6e6e6"/><path d="M852.76758,604.81152h-4.52246V602.4668h11.81933v2.34472H855.543v13.30274h-2.77539Z" fill="#e6e6e6"/><path d="M959.76953,610.33789c0-5.11914,3.23047-8.1582,7.39356-8.1582a6.43605,6.43605,0,0,1,4.7373,1.98633L970.417,605.96a4.23786,4.23786,0,0,0-3.1582-1.36426c-2.77539,0-4.6416,2.1543-4.6416,5.6709,0,3.56543,1.65039,5.71778,4.78515,5.71778a3.45851,3.45851,0,0,0,2.249-.69336V611.918h-2.9668v-2.27344h5.45508v6.89063a7.17172,7.17172,0,0,1-5.001,1.86621C962.9043,618.40137,959.76953,615.53027,959.76953,610.33789Z" fill="#e6e6e6"/><path d="M974.74805,614.95605c0-2.51269,2.08105-3.82812,6.91406-4.35449-.04785-1.24414-.55078-2.29687-2.15332-2.29687a6.69322,6.69322,0,0,0-3.30176,1.14843l-1.00488-1.84179a9.18081,9.18081,0,0,1,4.833-1.53125c2.91894,0,4.3789,1.79394,4.3789,5.07226v6.96192h-2.27344l-.1914-1.292h-.0957a5.72175,5.72175,0,0,1-3.63672,1.5791A3.28367,3.28367,0,0,1,974.74805,614.95605Zm6.91406,0v-2.63183c-3.20606.40625-4.25879,1.24414-4.25879,2.416,0,1.05274.71777,1.50782,1.69824,1.50782A3.73485,3.73485,0,0,0,981.66211,614.95605Z" fill="#e6e6e6"/><path d="M987.40527,602.75391a1.7054,1.7054,0,1,1,1.69825,1.55468A1.57922,1.57922,0,0,1,987.40527,602.75391Zm.31153,3.61328h2.751v11.74707h-2.751Z" fill="#e6e6e6"/><path d="M993.98438,606.36719h2.27343l.19141,1.57812h.0957a5.45748,5.45748,0,0,1,3.85156-1.86523c2.5127,0,3.61329,1.69824,3.61329,4.665v7.36914h-2.752v-7.01074c0-1.9375-.5498-2.65528-1.84179-2.65528-1.0293,0-1.69922.50293-2.67969,1.46v8.20606h-2.75195Z" fill="#e6e6e6"/><path d="M1056.79389,97.0906H26.13978V63.74807a4,4,0,0,1,4-4H1052.79389a4,4,0,0,1,4,4Z" fill="#282828"/><path d="M30.13978,231.52375H529.99832a4,4,0,0,1,4,4v33.34254a0,0,0,0,1,0,0H26.13978a0,0,0,0,1,0,0V235.52375A4,4,0,0,1,30.13978,231.52375Z" fill="#282828"/><path d="M1056.79389,268.86629H548.93534V235.52375a4,4,0,0,1,4-4h499.85854a4,4,0,0,1,4,4Z" fill="#282828"/><path d="M30.13978,649.7602h1022.6541a4,4,0,0,1,4,4v33.34254a0,0,0,0,1,0,0H26.13978a0,0,0,0,1,0,0V653.76021A4,4,0,0,1,30.13978,649.7602Z" fill="#282828"/><path d="M30.13978,477.98452H529.99832a4,4,0,0,1,4,4v33.34254a0,0,0,0,1,0,0H26.13978a0,0,0,0,1,0,0V481.98452A4,4,0,0,1,30.13978,477.98452Z" fill="#282828"/><path d="M552.93535,477.98452h499.85854a4,4,0,0,1,4,4v33.34254a0,0,0,0,1,0,0H548.93534a0,0,0,0,1,0,0V481.98452A4,4,0,0,1,552.93535,477.98452Z" fill="#282828"/><rect x="93.35635" y="123.23038" width="89.6221" height="37.34254" rx="2" ry="2" stroke="#252525" stroke-miterlimit="10" fill="url(#a)"/><rect x="265.13204" y="123.23038" width="89.6221" height="37.34254" rx="2" ry="2" stroke="#252525" stroke-miterlimit="10" fill="url(#b)"/><rect x="429.43921" y="123.23038" width="89.6221" height="37.34254" rx="2" ry="2" stroke="#252525" stroke-miterlimit="10" fill="url(#c)"/><rect x="601.2149" y="123.23038" width="89.6221" height="37.34254" rx="2" ry="2" stroke="#252525" stroke-miterlimit="10" fill="url(#d)"/><rect x="765.54756" y="123.23038" width="89.6221" height="37.34254" rx="2" ry="2" stroke="#252525" stroke-miterlimit="10" fill="url(#e)"/><rect x="937.29776" y="123.23038" width="89.6221" height="37.34254" rx="2" ry="2" stroke="#252525" stroke-miterlimit="10" fill="url(#f)"/><rect x="93.35635" y="295.00607" width="89.6221" height="37.34254" rx="2" ry="2" stroke="#252525" stroke-miterlimit="10" fill="url(#g)"/><rect x="265.13204" y="295.00607" width="89.6221" height="37.34254" rx="2" ry="2" stroke="#252525" stroke-miterlimit="10" fill="url(#h)"/><rect x="429.43921" y="295.00607" width="89.6221" height="37.34254" rx="2" ry="2" stroke="#252525" stroke-miterlimit="10" fill="url(#i)"/><rect x="601.2149" y="295.00607" width="89.6221" height="37.34254" rx="2" ry="2" stroke="#252525" stroke-miterlimit="10" fill="url(#j)"/><rect x="765.52208" y="295.00607" width="89.6221" height="37.34254" rx="2" ry="2" stroke="#252525" stroke-miterlimit="10" fill="url(#k)"/><rect x="937.29776" y="295.00607" width="89.6221" height="37.34254" rx="2" ry="2" stroke="#252525" stroke-miterlimit="10" fill="url(#l)"/><rect x="93.35635" y="713.24252" width="89.6221" height="37.34254" rx="2" ry="2" stroke="#252525" stroke-miterlimit="10" fill="url(#m)"/><rect x="265.13204" y="713.24252" width="89.6221" height="37.34254" rx="2" ry="2" stroke="#252525" stroke-miterlimit="10" fill="url(#n)"/><rect x="429.43921" y="713.24252" width="89.6221" height="37.34254" rx="2" ry="2" stroke="#252525" stroke-miterlimit="10" fill="url(#o)"/><rect x="601.2149" y="713.24252" width="89.6221" height="37.34254" rx="2" ry="2" stroke="#252525" stroke-miterlimit="10" fill="url(#p)"/><rect x="765.54756" y="713.24252" width="89.6221" height="37.34254" rx="2" ry="2" stroke="#252525" stroke-miterlimit="10" fill="url(#q)"/><rect x="937.29776" y="713.24252" width="89.6221" height="37.34254" rx="2" ry="2" stroke="#252525" stroke-miterlimit="10" fill="url(#r)"/><rect x="93.35635" y="541.46683" width="89.6221" height="37.34254" rx="2" ry="2" stroke="#252525" stroke-miterlimit="10" fill="url(#s)"/><rect x="265.13204" y="541.46683" width="89.6221" height="37.34254" rx="2" ry="2" stroke="#252525" stroke-miterlimit="10" fill="url(#t)"/><rect x="429.43921" y="541.46683" width="89.6221" height="37.34254" rx="2" ry="2" stroke="#252525" stroke-miterlimit="10" fill="url(#u)"/><rect x="601.2149" y="541.46683" width="89.6221" height="37.34254" rx="2" ry="2" stroke="#252525" stroke-miterlimit="10" fill="url(#v)"/><rect x="765.52208" y="541.46683" width="89.6221" height="37.34254" rx="2" ry="2" stroke="#252525" stroke-miterlimit="10" fill="url(#w)"/><rect x="937.29776" y="541.46683" width="89.6221" height="37.34254" rx="2" ry="2" stroke="#252525" stroke-miterlimit="10" fill="url(#x)"/><path d="M486.67334,72.20117h9.42676V74.5459h-6.65137V78.541h5.62256v2.3457h-5.62256v4.61719h6.89063v2.34472h-9.666Z" fill="#ffa861"/><path d="M499.30664,76.10156h2.27295l.19141,1.57813h.0957a5.45761,5.45761,0,0,1,3.85205-1.86524c2.51221,0,3.61279,1.69825,3.61279,4.665v7.36914h-2.75146V80.83789c0-1.9375-.55029-2.65527-1.84229-2.65527-1.02881,0-1.69873.50293-2.67968,1.46v8.20605h-2.75147Z" fill="#ffa861"/><path d="M511.24609,76.10156h2.79932l1.86621,6.10059c.311,1.14844.66992,2.34473.981,3.541h.0957c.335-1.19628.66992-2.39257,1.00488-3.541l1.86622-6.10059h2.65576l-3.99561,11.74707H515.3374Z" fill="#ffa861"/><path d="M523.63965,81.98633c0-3.82813,2.65576-6.17188,5.40723-6.17188,3.18212,0,4.85693,2.29688,4.85693,5.57422a6.4108,6.4108,0,0,1-.11963,1.33985h-7.46484a3.36175,3.36175,0,0,0,3.46923,3.27734,4.90381,4.90381,0,0,0,2.72754-.86133l.93311,1.72266a7.409,7.409,0,0,1-4.01953,1.26855C526.17578,88.13574,523.63965,85.86328,523.63965,81.98633Zm7.87158-1.124c0-1.81835-.78955-2.91894-2.39258-2.91894-1.38769,0-2.584,1.0293-2.82324,2.91894Z" fill="#ffa861"/><path d="M536.53613,84.834V70.957h2.75147V84.97754c0,.66992.311.90918.59814.90918a1.64838,1.64838,0,0,0,.43067-.04785l.35888,2.05761a3.75652,3.75652,0,0,1-1.45947.23926C537.25391,88.13574,536.53613,86.86719,536.53613,84.834Z" fill="#ffa861"/><path d="M542.25439,81.98633c0-3.92383,2.65577-6.17188,5.57471-6.17188,2.94287,0,5.59863,2.24805,5.59863,6.17188,0,3.90039-2.65576,6.14941-5.59863,6.14941C544.91016,88.13574,542.25439,85.88672,542.25439,81.98633Zm8.3501,0c0-2.36817-1.05273-3.92383-2.77539-3.92383s-2.75146,1.55566-2.75146,3.92383c0,2.3457,1.02881,3.90039,2.75146,3.90039S550.60449,84.332,550.60449,81.98633Z" fill="#ffa861"/><path d="M556.15576,76.10156h2.273l.19141,1.24414h.0957a5.72554,5.72554,0,0,1,3.541-1.53125c2.91894,0,4.61767,2.34375,4.61767,5.98047,0,4.01953-2.4165,6.34082-5.02441,6.34082a4.75177,4.75177,0,0,1-3.01465-1.292l.07178,1.96191v3.68457h-2.75147Zm7.87158,5.71778c0-2.34473-.76562-3.73243-2.53613-3.73243a3.75414,3.75414,0,0,0-2.584,1.31543v5.4795a3.71626,3.71626,0,0,0,2.36865.98144C562.83105,85.86328,564.02734,84.47461,564.02734,81.81934Z" fill="#ffa861"/><path d="M568.88428,81.98633c0-3.82813,2.65576-6.17188,5.40722-6.17188,3.18213,0,4.85694,2.29688,4.85694,5.57422a6.4108,6.4108,0,0,1-.11963,1.33985H571.564a3.36176,3.36176,0,0,0,3.46924,3.27734,4.90383,4.90383,0,0,0,2.72754-.86133l.93311,1.72266a7.409,7.409,0,0,1-4.01953,1.26855C571.42041,88.13574,568.88428,85.86328,568.88428,81.98633Zm7.87158-1.124c0-1.81835-.78955-2.91894-2.39258-2.91894-1.38769,0-2.584,1.0293-2.82324,2.91894Z" fill="#ffa861"/><path d="M589.86768,72.20117h3.2539l5.09619,15.64746h-2.91894l-1.22022-4.23535h-5.26367l-1.22021,4.23535h-2.82325Zm-.40674,9.23535h3.9956l-.55029-1.91406c-.50244-1.65137-.957-3.44531-1.41162-5.168h-.0957c-.43067,1.74707-.88526,3.5166-1.3877,5.168Z" fill="#ffa861"/><path d="M225.05957,243.97852h9.42676v2.34472H227.835v3.99512h5.62256v2.3457H227.835v4.61719h6.89063V259.626h-9.666Z" fill="#ced2d9"/><path d="M237.69287,247.87891h2.273l.19141,1.57812h.0957a5.4576,5.4576,0,0,1,3.85205-1.86523c2.51221,0,3.61279,1.69824,3.61279,4.665V259.626h-2.75146v-7.01075c0-1.9375-.55029-2.65527-1.84229-2.65527-1.02881,0-1.69873.50293-2.67968,1.46V259.626h-2.75147Z" fill="#ced2d9"/><path d="M249.63184,247.87891h2.79931l1.86621,6.10058c.311,1.14844.66993,2.34473.981,3.541h.0957c.335-1.19629.66993-2.39258,1.00489-3.541l1.86621-6.10058h2.65576L256.90527,259.626h-3.18213Z" fill="#ced2d9"/><path d="M262.02588,253.76367c0-3.82812,2.65576-6.17187,5.40723-6.17187,3.18212,0,4.85693,2.29687,4.85693,5.57422a6.41076,6.41076,0,0,1-.11963,1.33984h-7.46484a3.36175,3.36175,0,0,0,3.46923,3.27734,4.9038,4.9038,0,0,0,2.72754-.86132l.93311,1.72265a7.409,7.409,0,0,1-4.01953,1.26856C264.562,259.91309,262.02588,257.64062,262.02588,253.76367Zm7.87158-1.124c0-1.81836-.78955-2.91895-2.39258-2.91895-1.38769,0-2.584,1.0293-2.82324,2.91895Z" fill="#ced2d9"/><path d="M274.92236,256.61133v-13.877h2.75147v14.0205c0,.66992.311.90918.59814.90918a1.64838,1.64838,0,0,0,.43067-.04785l.35888,2.05762a3.75671,3.75671,0,0,1-1.45947.23926C275.64014,259.91309,274.92236,258.64453,274.92236,256.61133Z" fill="#ced2d9"/><path d="M280.64062,253.76367c0-3.92383,2.65577-6.17187,5.57471-6.17187,2.94287,0,5.59863,2.248,5.59863,6.17187,0,3.90039-2.65576,6.14942-5.59863,6.14942C283.29639,259.91309,280.64062,257.66406,280.64062,253.76367Zm8.3501,0c0-2.36816-1.05273-3.92383-2.77539-3.92383s-2.75146,1.55567-2.75146,3.92383c0,2.34571,1.02881,3.90039,2.75146,3.90039S288.99072,256.10938,288.99072,253.76367Z" fill="#ced2d9"/><path d="M294.542,247.87891h2.27295l.19141,1.24414h.0957a5.72554,5.72554,0,0,1,3.541-1.53125c2.91894,0,4.61767,2.34375,4.61767,5.98047,0,4.01953-2.4165,6.34082-5.02441,6.34082a4.75179,4.75179,0,0,1-3.01465-1.292l.07178,1.96192v3.68457H294.542Zm7.87158,5.71777c0-2.34473-.76562-3.73242-2.53613-3.73242a3.7541,3.7541,0,0,0-2.584,1.31543v5.47949a3.71628,3.71628,0,0,0,2.36865.98144C301.21729,257.64062,302.41357,256.252,302.41357,253.59668Z" fill="#ced2d9"/><path d="M307.27051,253.76367c0-3.82812,2.65576-6.17187,5.40722-6.17187,3.18213,0,4.85694,2.29687,4.85694,5.57422a6.41076,6.41076,0,0,1-.11963,1.33984H309.9502a3.36175,3.36175,0,0,0,3.46923,3.27734,4.90382,4.90382,0,0,0,2.72754-.86132l.93311,1.72265a7.409,7.409,0,0,1-4.01953,1.26856C309.80664,259.91309,307.27051,257.64062,307.27051,253.76367Zm7.87158-1.124c0-1.81836-.78955-2.91895-2.39258-2.91895-1.38769,0-2.584,1.0293-2.82324,2.91895Z" fill="#ced2d9"/><path d="M324.37793,251.84961c0-5.11914,3.20605-8.1582,7.15381-8.1582a6.21223,6.21223,0,0,1,4.522,1.98632l-1.4834,1.79395a4.08039,4.08039,0,0,0-2.96679-1.36426c-2.56006,0-4.37842,2.1543-4.37842,5.6709,0,3.56543,1.6748,5.71777,4.30664,5.71777a4.45721,4.45721,0,0,0,3.34961-1.60254l1.4834,1.74707a6.30981,6.30981,0,0,1-4.92871,2.27247C327.48828,259.91309,324.37793,257.042,324.37793,251.84961Z" fill="#ced2d9"/><path d="M748.06836,243.97852h9.42578v2.34472h-6.65039v3.99512h5.62207v2.3457h-5.62207v4.61719h6.89063V259.626h-9.666Z" fill="#ffa861"/><path d="M760.70117,247.87891h2.27246l.19141,1.57812h.0957a5.4578,5.4578,0,0,1,3.85254-1.86523c2.51172,0,3.61231,1.69824,3.61231,4.665V259.626h-2.751v-7.01075c0-1.9375-.55078-2.65527-1.84277-2.65527-1.02832,0-1.69825.50293-2.67969,1.46V259.626h-2.751Z" fill="#ffa861"/><path d="M772.64062,247.87891h2.79883l1.86719,6.10058c.31055,1.14844.66992,2.34473.98047,3.541h.0957c.335-1.19629.66992-2.39258,1.00489-3.541l1.86621-6.10058h2.65625l-3.9961,11.74707h-3.18164Z" fill="#ffa861"/><path d="M785.03516,253.76367c0-3.82812,2.65527-6.17187,5.40625-6.17187,3.18261,0,4.85742,2.29687,4.85742,5.57422a6.44983,6.44983,0,0,1-.11914,1.33984h-7.46485a3.36047,3.36047,0,0,0,3.46875,3.27734,4.90382,4.90382,0,0,0,2.72754-.86132l.93262,1.72265a7.4051,7.4051,0,0,1-4.01953,1.26856C787.57031,259.91309,785.03516,257.64062,785.03516,253.76367Zm7.87109-1.124c0-1.81836-.78906-2.91895-2.39258-2.91895-1.38769,0-2.584,1.0293-2.82324,2.91895Z" fill="#ffa861"/><path d="M797.92969,256.61133v-13.877h2.75195v14.0205c0,.66992.31055.90918.59766.90918a1.65482,1.65482,0,0,0,.43164-.04785l.3584,2.05762a3.75773,3.75773,0,0,1-1.46.23926C798.64844,259.91309,797.92969,258.64453,797.92969,256.61133Z" fill="#ffa861"/><path d="M803.64844,253.76367c0-3.92383,2.65625-6.17187,5.57519-6.17187,2.94239,0,5.59864,2.248,5.59864,6.17187,0,3.90039-2.65625,6.14942-5.59864,6.14942C806.30469,259.91309,803.64844,257.66406,803.64844,253.76367Zm8.35058,0c0-2.36816-1.05273-3.92383-2.77539-3.92383s-2.751,1.55567-2.751,3.92383c0,2.34571,1.02832,3.90039,2.751,3.90039S811.999,256.10938,811.999,253.76367Z" fill="#ffa861"/><path d="M817.55078,247.87891h2.27246l.19141,1.24414h.0957a5.72673,5.72673,0,0,1,3.541-1.53125c2.91894,0,4.61816,2.34375,4.61816,5.98047,0,4.01953-2.417,6.34082-5.02539,6.34082a4.75047,4.75047,0,0,1-3.01367-1.292l.07129,1.96192v3.68457h-2.751Zm7.8711,5.71777c0-2.34473-.76563-3.73242-2.53614-3.73242a3.7541,3.7541,0,0,0-2.584,1.31543v5.47949a3.71614,3.71614,0,0,0,2.36816.98144C824.22559,257.64062,825.42188,256.252,825.42188,253.59668Z" fill="#ffa861"/><path d="M830.2793,253.76367c0-3.82812,2.65527-6.17187,5.40625-6.17187,3.18261,0,4.85742,2.29687,4.85742,5.57422a6.44983,6.44983,0,0,1-.11914,1.33984H832.959a3.36047,3.36047,0,0,0,3.46875,3.27734,4.9038,4.9038,0,0,0,2.72754-.86132l.93262,1.72265a7.4051,7.4051,0,0,1-4.01953,1.26856C832.81445,259.91309,830.2793,257.64062,830.2793,253.76367Zm7.87109-1.124c0-1.81836-.78906-2.91895-2.39258-2.91895-1.38769,0-2.584,1.0293-2.82324,2.91895Z" fill="#ffa861"/><path d="M851.26172,243.97852h3.2539L859.6123,259.626h-2.91894l-1.2207-4.23536H850.209l-1.21972,4.23536H846.166Zm-.40625,9.23535h3.99609l-.55078-1.91407c-.502-1.65136-.957-3.44531-1.41211-5.168h-.0957c-.42969,1.74707-.88477,3.5166-1.38672,5.168Z" fill="#ffa861"/><path d="M486.20654,662.21289h9.42676v2.34473h-6.65137v3.99511h5.62256v2.34571h-5.62256v4.61718h6.89063v2.34473h-9.666Z" fill="#ded66f"/><path d="M498.83984,666.11328h2.273l.19141,1.57813h.0957a5.45765,5.45765,0,0,1,3.85205-1.86524c2.51221,0,3.6128,1.69824,3.6128,4.665v7.36914h-2.75147v-7.01074c0-1.9375-.55029-2.65527-1.84228-2.65527-1.02881,0-1.69873.50293-2.67969,1.46v8.20605h-2.75147Z" fill="#ded66f"/><path d="M510.7793,666.11328h2.79931l1.86621,6.10059c.311,1.14843.66993,2.34472.981,3.541h.0957c.335-1.19629.66993-2.39258,1.00489-3.541l1.86621-6.10059h2.65576l-3.99561,11.74707h-3.18212Z" fill="#ded66f"/><path d="M523.17285,671.99805c0-3.82813,2.65576-6.17188,5.40723-6.17188,3.18213,0,4.85693,2.29688,4.85693,5.57422a6.41069,6.41069,0,0,1-.11963,1.33984h-7.46484a3.36176,3.36176,0,0,0,3.46924,3.27735,4.90386,4.90386,0,0,0,2.72754-.86133l.9331,1.72266a7.40907,7.40907,0,0,1-4.01953,1.26855C525.709,678.14746,523.17285,675.875,523.17285,671.99805Zm7.87158-1.124c0-1.81836-.78955-2.91894-2.39257-2.91894-1.3877,0-2.584,1.0293-2.82325,2.91894Z" fill="#ded66f"/><path d="M536.06934,674.8457V660.96875h2.75146v14.02051c0,.66992.311.90918.59815.90918a1.64831,1.64831,0,0,0,.43066-.04785l.35889,2.05761a3.75658,3.75658,0,0,1-1.45948.23926C536.78711,678.14746,536.06934,676.87891,536.06934,674.8457Z" fill="#ded66f"/><path d="M541.7876,671.99805c0-3.92383,2.65576-6.17188,5.5747-6.17188,2.94288,0,5.59864,2.248,5.59864,6.17188,0,3.90039-2.65576,6.14941-5.59864,6.14941C544.44336,678.14746,541.7876,675.89844,541.7876,671.99805Zm8.3501,0c0-2.36817-1.05274-3.92383-2.7754-3.92383s-2.75146,1.55566-2.75146,3.92383c0,2.3457,1.02881,3.90039,2.75146,3.90039S550.1377,674.34375,550.1377,671.99805Z" fill="#ded66f"/><path d="M555.689,666.11328h2.273l.19141,1.24414h.0957a5.72557,5.72557,0,0,1,3.541-1.53125c2.91894,0,4.61767,2.34375,4.61767,5.98047,0,4.01953-2.4165,6.34082-5.02441,6.34082a4.75177,4.75177,0,0,1-3.01465-1.292l.07178,1.96191V682.502H555.689Zm7.87159,5.71777c0-2.34472-.76563-3.73242-2.53614-3.73242a3.75416,3.75416,0,0,0-2.584,1.31543v5.47949a3.71624,3.71624,0,0,0,2.36865.98145C562.36426,675.875,563.56055,674.48633,563.56055,671.83105Z" fill="#ded66f"/><path d="M568.41748,671.99805c0-3.82813,2.65576-6.17188,5.40723-6.17188,3.18213,0,4.85693,2.29688,4.85693,5.57422a6.41069,6.41069,0,0,1-.11963,1.33984h-7.46484a3.36176,3.36176,0,0,0,3.46924,3.27735,4.90386,4.90386,0,0,0,2.72754-.86133l.9331,1.72266a7.40907,7.40907,0,0,1-4.01953,1.26855C570.95361,678.14746,568.41748,675.875,568.41748,671.99805Zm7.87158-1.124c0-1.81836-.78955-2.91894-2.39258-2.91894-1.38769,0-2.584,1.0293-2.82324,2.91894Z" fill="#ded66f"/><path d="M586.33838,662.21289h5.00049c3.23,0,5.59863.98047,5.59863,3.85156a3.52713,3.52713,0,0,1-2.17725,3.39844v.0957a3.57314,3.57314,0,0,1,2.99073,3.708c0,3.13379-2.56006,4.59375-6.00537,4.59375h-5.40723Zm4.76123,6.46c2.17725,0,3.11035-.86133,3.11035-2.20117,0-1.53125-1.02881-2.10547-3.0625-2.10547h-2.03369v4.30664Zm.35889,7.03418c2.29687,0,3.58886-.83789,3.58886-2.584,0-1.65039-1.24414-2.36914-3.58886-2.36914h-2.34473V675.707Z" fill="#ded66f"/><path d="M225.05957,490.43555h9.42676v2.34472H227.835v3.99512h5.62256v2.3457H227.835v4.61719h6.89063V506.083h-9.666Z" fill="#ced2d9"/><path d="M237.69287,494.33594h2.273l.19141,1.57812h.0957a5.4576,5.4576,0,0,1,3.85205-1.86523c2.51221,0,3.61279,1.69824,3.61279,4.665V506.083h-2.75146v-7.01074c0-1.9375-.55029-2.65528-1.84229-2.65528-1.02881,0-1.69873.50293-2.67968,1.46V506.083h-2.75147Z" fill="#ced2d9"/><path d="M249.63184,494.33594h2.79931l1.86621,6.10058c.311,1.14844.66993,2.34473.981,3.541h.0957c.335-1.19629.66993-2.39258,1.00489-3.541l1.86621-6.10058h2.65576L256.90527,506.083h-3.18213Z" fill="#ced2d9"/><path d="M262.02588,500.2207c0-3.82812,2.65576-6.17187,5.40723-6.17187,3.18212,0,4.85693,2.29687,4.85693,5.57422a6.41076,6.41076,0,0,1-.11963,1.33984h-7.46484a3.36175,3.36175,0,0,0,3.46923,3.27734,4.9038,4.9038,0,0,0,2.72754-.86132l.93311,1.72265a7.409,7.409,0,0,1-4.01953,1.26856C264.562,506.37012,262.02588,504.09766,262.02588,500.2207Zm7.87158-1.124c0-1.81836-.78955-2.91895-2.39258-2.91895-1.38769,0-2.584,1.0293-2.82324,2.91895Z" fill="#ced2d9"/><path d="M274.92236,503.06836V489.19141h2.75147v14.0205c0,.66993.311.90918.59814.90918a1.64838,1.64838,0,0,0,.43067-.04785l.35888,2.05762a3.75671,3.75671,0,0,1-1.45947.23926C275.64014,506.37012,274.92236,505.10156,274.92236,503.06836Z" fill="#ced2d9"/><path d="M280.64062,500.2207c0-3.92382,2.65577-6.17187,5.57471-6.17187,2.94287,0,5.59863,2.248,5.59863,6.17187,0,3.90039-2.65576,6.14942-5.59863,6.14942C283.29639,506.37012,280.64062,504.12109,280.64062,500.2207Zm8.3501,0c0-2.36816-1.05273-3.92382-2.77539-3.92382s-2.75146,1.55566-2.75146,3.92382c0,2.34571,1.02881,3.90039,2.75146,3.90039S288.99072,502.56641,288.99072,500.2207Z" fill="#ced2d9"/><path d="M294.542,494.33594h2.27295l.19141,1.24414h.0957a5.72554,5.72554,0,0,1,3.541-1.53125c2.91894,0,4.61767,2.34375,4.61767,5.98047,0,4.01953-2.4165,6.34082-5.02441,6.34082a4.75179,4.75179,0,0,1-3.01465-1.292l.07178,1.96192v3.68457H294.542Zm7.87158,5.71777c0-2.34473-.76562-3.73242-2.53613-3.73242a3.7541,3.7541,0,0,0-2.584,1.31543v5.47949a3.7163,3.7163,0,0,0,2.36865.98145C301.21729,504.09766,302.41357,502.709,302.41357,500.05371Z" fill="#ced2d9"/><path d="M307.27051,500.2207c0-3.82812,2.65576-6.17187,5.40722-6.17187,3.18213,0,4.85694,2.29687,4.85694,5.57422a6.41076,6.41076,0,0,1-.11963,1.33984H309.9502a3.36175,3.36175,0,0,0,3.46923,3.27734,4.90382,4.90382,0,0,0,2.72754-.86132l.93311,1.72265a7.409,7.409,0,0,1-4.01953,1.26856C309.80664,506.37012,307.27051,504.09766,307.27051,500.2207Zm7.87158-1.124c0-1.81836-.78955-2.91895-2.39258-2.91895-1.38769,0-2.584,1.0293-2.82324,2.91895Z" fill="#ced2d9"/><path d="M324.37793,498.30664c0-5.11914,3.20605-8.1582,7.15381-8.1582a6.2122,6.2122,0,0,1,4.522,1.98633l-1.4834,1.79394a4.08039,4.08039,0,0,0-2.96679-1.36426c-2.56006,0-4.37842,2.1543-4.37842,5.6709,0,3.56543,1.6748,5.71777,4.30664,5.71777a4.45723,4.45723,0,0,0,3.34961-1.60253l1.4834,1.74707a6.30983,6.30983,0,0,1-4.92871,2.27246C327.48828,506.37012,324.37793,503.499,324.37793,498.30664Z" fill="#ced2d9"/><path d="M747.60156,490.43555h9.42578v2.34472H750.377v3.99512H755.999v2.3457H750.377v4.61719h6.89063V506.083h-9.666Z" fill="#ded66f"/><path d="M760.23438,494.33594h2.27246l.1914,1.57812h.09571a5.45776,5.45776,0,0,1,3.85253-1.86523c2.51172,0,3.61231,1.69824,3.61231,4.665V506.083h-2.751v-7.01074c0-1.9375-.55078-2.65528-1.84277-2.65528-1.02832,0-1.69824.50293-2.67969,1.46V506.083h-2.751Z" fill="#ded66f"/><path d="M772.17383,494.33594h2.79883l1.86718,6.10058c.31055,1.14844.66993,2.34473.98047,3.541h.09571c.335-1.19629.66992-2.39258,1.00488-3.541l1.86621-6.10058h2.65625L779.44727,506.083h-3.18165Z" fill="#ded66f"/><path d="M784.56836,500.2207c0-3.82812,2.65527-6.17187,5.40625-6.17187,3.18262,0,4.85742,2.29687,4.85742,5.57422a6.44983,6.44983,0,0,1-.11914,1.33984h-7.46484a3.36046,3.36046,0,0,0,3.46875,3.27734,4.90385,4.90385,0,0,0,2.72754-.86132l.93261,1.72265a7.40507,7.40507,0,0,1-4.01953,1.26856C787.10352,506.37012,784.56836,504.09766,784.56836,500.2207Zm7.87109-1.124c0-1.81836-.78906-2.91895-2.39257-2.91895-1.3877,0-2.584,1.0293-2.82325,2.91895Z" fill="#ded66f"/><path d="M797.46289,503.06836V489.19141h2.75195v14.0205c0,.66993.31055.90918.59766.90918a1.65478,1.65478,0,0,0,.43164-.04785l.3584,2.05762a3.75773,3.75773,0,0,1-1.46.23926C798.18164,506.37012,797.46289,505.10156,797.46289,503.06836Z" fill="#ded66f"/><path d="M803.18164,500.2207c0-3.92382,2.65625-6.17187,5.5752-6.17187,2.94238,0,5.59863,2.248,5.59863,6.17187,0,3.90039-2.65625,6.14942-5.59863,6.14942C805.83789,506.37012,803.18164,504.12109,803.18164,500.2207Zm8.35059,0c0-2.36816-1.05274-3.92382-2.77539-3.92382s-2.751,1.55566-2.751,3.92382c0,2.34571,1.02832,3.90039,2.751,3.90039S811.53223,502.56641,811.53223,500.2207Z" fill="#ded66f"/><path d="M817.084,494.33594h2.27247l.1914,1.24414h.0957a5.72673,5.72673,0,0,1,3.541-1.53125c2.91895,0,4.61816,2.34375,4.61816,5.98047,0,4.01953-2.417,6.34082-5.02539,6.34082a4.75047,4.75047,0,0,1-3.01367-1.292L819.835,507.04v3.68457h-2.751Zm7.8711,5.71777c0-2.34473-.76563-3.73242-2.53613-3.73242a3.75412,3.75412,0,0,0-2.584,1.31543v5.47949a3.71617,3.71617,0,0,0,2.36816.98145C823.75879,504.09766,824.95508,502.709,824.95508,500.05371Z" fill="#ded66f"/><path d="M829.8125,500.2207c0-3.82812,2.65527-6.17187,5.40625-6.17187,3.18262,0,4.85742,2.29687,4.85742,5.57422a6.44983,6.44983,0,0,1-.11914,1.33984h-7.46484a3.36046,3.36046,0,0,0,3.46875,3.27734,4.90385,4.90385,0,0,0,2.72754-.86132l.93261,1.72265a7.40507,7.40507,0,0,1-4.01953,1.26856C832.34766,506.37012,829.8125,504.09766,829.8125,500.2207Zm7.87109-1.124c0-1.81836-.78906-2.91895-2.39257-2.91895-1.3877,0-2.584,1.0293-2.82325,2.91895Z" fill="#ded66f"/><path d="M847.73242,490.43555h5.001c3.22949,0,5.59863.98047,5.59863,3.85156a3.52686,3.52686,0,0,1-2.17773,3.39844v.0957a3.57352,3.57352,0,0,1,2.99121,3.708c0,3.13379-2.55957,4.59375-6.00489,4.59375h-5.4082Zm4.76172,6.46c2.17774,0,3.11035-.86133,3.11035-2.20117,0-1.53125-1.02832-2.10547-3.0625-2.10547h-2.03418v4.30664Zm.35938,7.03418c2.29687,0,3.58789-.83789,3.58789-2.584,0-1.65039-1.24414-2.36914-3.58789-2.36914h-2.34571v4.95313Z" fill="#ded66f"/></svg>