<svg xmlns="http://www.w3.org/2000/svg" xmlns:xlink="http://www.w3.org/1999/xlink" viewBox="0 0 270 214"><defs><linearGradient id="a" x1="34.54181" y1="30.80756" x2="34.54181" y2="40.14318" gradientUnits="userSpaceOnUse"><stop offset="0" stop-color="#e6e6e6"/><stop offset="0.1144" stop-color="#e0e0e0"/><stop offset="0.27295" stop-color="#cecece"/><stop offset="0.45731" stop-color="#b0b0b0"/><stop offset="0.66114" stop-color="#878787"/><stop offset="0.87829" stop-color="#535353"/><stop offset="1" stop-color="#333"/></linearGradient><linearGradient id="b" x1="77.48568" y1="30.80756" x2="77.48568" y2="40.14318" xlink:href="#a"/><linearGradient id="c" x1="118.56243" y1="30.80756" x2="118.56243" y2="40.14318" xlink:href="#a"/><linearGradient id="d" x1="161.5063" y1="30.80756" x2="161.5063" y2="40.14318" xlink:href="#a"/><linearGradient id="e" x1="202.58942" y1="30.80756" x2="202.58942" y2="40.14318" xlink:href="#a"/><linearGradient id="f" x1="245.52692" y1="30.80756" x2="245.52692" y2="40.14318" xlink:href="#a"/><linearGradient id="g" x1="34.54181" y1="73.75143" x2="34.54181" y2="83.08706" xlink:href="#a"/><linearGradient id="h" x1="77.48568" y1="73.75143" x2="77.48568" y2="83.08706" xlink:href="#a"/><linearGradient id="i" x1="118.56243" y1="73.75143" x2="118.56243" y2="83.08706" xlink:href="#a"/><linearGradient id="j" x1="161.5063" y1="73.75143" x2="161.5063" y2="83.08706" xlink:href="#a"/><linearGradient id="k" x1="202.58305" y1="73.75143" x2="202.58305" y2="83.08706" xlink:href="#a"/><linearGradient id="l" x1="245.52692" y1="73.75143" x2="245.52692" y2="83.08706" xlink:href="#a"/><linearGradient id="m" x1="34.54181" y1="178.31042" x2="34.54181" y2="187.64605" xlink:href="#a"/><linearGradient id="n" x1="77.48568" y1="178.31042" x2="77.48568" y2="187.64605" xlink:href="#a"/><linearGradient id="o" x1="118.56243" y1="178.31042" x2="118.56243" y2="187.64605" xlink:href="#a"/><linearGradient id="p" x1="161.5063" y1="178.31042" x2="161.5063" y2="187.64605" xlink:href="#a"/><linearGradient id="q" x1="202.58942" y1="178.31042" x2="202.58942" y2="187.64605" xlink:href="#a"/><linearGradient id="r" x1="245.52692" y1="178.31042" x2="245.52692" y2="187.64605" xlink:href="#a"/><linearGradient id="s" x1="34.54181" y1="135.36655" x2="34.54181" y2="144.70218" xlink:href="#a"/><linearGradient id="t" x1="77.48568" y1="135.36655" x2="77.48568" y2="144.70218" xlink:href="#a"/><linearGradient id="u" x1="118.56243" y1="135.36655" x2="118.56243" y2="144.70218" xlink:href="#a"/><linearGradient id="v" x1="161.5063" y1="135.36655" x2="161.5063" y2="144.70218" xlink:href="#a"/><linearGradient id="w" x1="202.58305" y1="135.36655" x2="202.58305" y2="144.70218" xlink:href="#a"/><linearGradient id="x" x1="245.52692" y1="135.36655" x2="245.52692" y2="144.70218" xlink:href="#a"/></defs><title>pan_pp1</title><rect x="0.25" y="0.25" width="269.5" height="213.33984" rx="2.75" ry="2.75" fill="#1a1a1a"/><path d="M267,.5A2.50286,2.50286,0,0,1,269.5,3V210.84021a2.50282,2.50282,0,0,1-2.5,2.5H3a2.50281,2.50281,0,0,1-2.5-2.5V3A2.50285,2.50285,0,0,1,3,.5H267m0-.5H3A3,3,0,0,0,0,3V210.84021a3,3,0,0,0,3,3H267a3,3,0,0,0,3-3V3a3,3,0,0,0-3-3Z" fill="#4d4d4d"/><rect x="6.28516" y="14.68652" width="258.16309" height="39.70996" rx="1.25" ry="1.25" fill="#414141"/><path d="M263.19815,14.937a1,1,0,0,1,1,1v37.2096a1,1,0,0,1-1,1H7.535a1,1,0,0,1-1-1V15.937a1,1,0,0,1,1-1h255.6632m0-.5H7.535a1.50171,1.50171,0,0,0-1.5,1.5v37.2096a1.50172,1.50172,0,0,0,1.5,1.5h255.6632a1.50172,1.50172,0,0,0,1.5-1.5V15.937a1.50171,1.50171,0,0,0-1.5-1.5Z" fill="#ffa861"/><rect x="6.28516" y="57.63086" width="127.46436" height="39.70996" rx="1.25" ry="1.25" fill="#414141"/><path d="M132.49943,57.88086a1,1,0,0,1,1,1V96.09052a1,1,0,0,1-1,1H7.53493a1,1,0,0,1-1-1V58.88086a1,1,0,0,1,1-1h124.9645m0-.5H7.53493a1.50171,1.50171,0,0,0-1.5,1.5V96.09052a1.50172,1.50172,0,0,0,1.5,1.5h124.9645a1.50172,1.50172,0,0,0,1.5-1.5V58.88086a1.50171,1.50171,0,0,0-1.5-1.5Z" fill="#ced2d9"/><rect x="136.98389" y="57.63086" width="127.46436" height="39.70996" rx="1.25" ry="1.25" fill="#414141"/><path d="M263.19817,57.88086a1,1,0,0,1,1,1V96.09052a1,1,0,0,1-1,1H138.23367a1,1,0,0,1-1-1V58.88086a1,1,0,0,1,1-1h124.9645m0-.5H138.23367a1.50171,1.50171,0,0,0-1.5,1.5V96.09052a1.50172,1.50172,0,0,0,1.5,1.5h124.9645a1.50172,1.50172,0,0,0,1.5-1.5V58.88086a1.50171,1.50171,0,0,0-1.5-1.5Z" fill="#ffa861"/><rect x="6.28516" y="162.18945" width="258.16309" height="39.70996" rx="1.25" ry="1.25" fill="#414141"/><path d="M263.19815,162.43982a1,1,0,0,1,1,1v37.20972a1,1,0,0,1-1,1H7.535a1,1,0,0,1-1-1V163.43982a1,1,0,0,1,1-1h255.6632m0-.5H7.535a1.50167,1.50167,0,0,0-1.5,1.5v37.20972a1.50168,1.50168,0,0,0,1.5,1.5h255.6632a1.50168,1.50168,0,0,0,1.5-1.5V163.43982a1.50167,1.50167,0,0,0-1.5-1.5Z" fill="#ded66f"/><rect x="6.28516" y="119.24609" width="127.46436" height="39.70996" rx="1.25" ry="1.25" fill="#414141"/><path d="M132.49943,119.496a1,1,0,0,1,1,1v37.2096a1,1,0,0,1-1,1H7.53493a1,1,0,0,1-1-1V120.496a1,1,0,0,1,1-1h124.9645m0-.5H7.53493a1.50171,1.50171,0,0,0-1.5,1.5v37.2096a1.50168,1.50168,0,0,0,1.5,1.5h124.9645a1.50168,1.50168,0,0,0,1.5-1.5V120.496a1.50171,1.50171,0,0,0-1.5-1.5Z" fill="#ced2d9"/><rect x="136.98389" y="119.24609" width="127.46436" height="39.70996" rx="1.25" ry="1.25" fill="#414141"/><path d="M263.19817,119.496a1,1,0,0,1,1,1v37.2096a1,1,0,0,1-1,1H138.23367a1,1,0,0,1-1-1V120.496a1,1,0,0,1,1-1h124.9645m0-.5H138.23367a1.50171,1.50171,0,0,0-1.5,1.5v37.2096a1.50168,1.50168,0,0,0,1.5,1.5h124.9645a1.50168,1.50168,0,0,0,1.5-1.5V120.496a1.50171,1.50171,0,0,0-1.5-1.5Z" fill="#ded66f"/><path d="M15.87056,45.09442a.93021.93021,0,1,1-.93017.93024.93126.93126,0,0,1,.93017-.93024m0-.28345a1.21366,1.21366,0,1,0,1.21363,1.21369A1.21367,1.21367,0,0,0,15.87056,44.811Z" fill="#e6e6e6"/><path d="M15.87056,48.82867a.93021.93021,0,1,1-.93017.93018.93125.93125,0,0,1,.93017-.93018m0-.28344a1.21365,1.21365,0,1,0,1.21363,1.21362,1.21365,1.21365,0,0,0-1.21363-1.21362Z" fill="#e6e6e6"/><path d="M226.85567,46.96155a.93021.93021,0,1,1-.93017.93017.93125.93125,0,0,1,.93017-.93017m0-.28345a1.21366,1.21366,0,1,0,1.21364,1.21362,1.21365,1.21365,0,0,0-1.21364-1.21362Z" fill="#e6e6e6"/><path d="M15.87056,88.03833a.93018.93018,0,1,1-.93017.93018.93125.93125,0,0,1,.93017-.93018m0-.28345a1.21363,1.21363,0,1,0,1.21363,1.21363,1.21362,1.21362,0,0,0-1.21363-1.21363Z" fill="#e6e6e6"/><path d="M15.87056,91.77258a.93018.93018,0,1,1-.93017.93018.93125.93125,0,0,1,.93017-.93018m0-.28344a1.21362,1.21362,0,1,0,1.21363,1.21362,1.21361,1.21361,0,0,0-1.21363-1.21362Z" fill="#e6e6e6"/><path d="M226.85567,194.46448a.93018.93018,0,1,1-.93017.93017.9312.9312,0,0,1,.93017-.93017m0-.28345a1.21363,1.21363,0,1,0,1.21364,1.21362,1.21361,1.21361,0,0,0-1.21364-1.21362Z" fill="#e6e6e6"/><path d="M15.87056,192.59729a.93018.93018,0,1,1-.93017.93018.93121.93121,0,0,1,.93017-.93018m0-.28345a1.21363,1.21363,0,1,0,1.21363,1.21363,1.21362,1.21362,0,0,0-1.21363-1.21363Z" fill="#e6e6e6"/><path d="M15.87056,196.33154a.93018.93018,0,1,1-.93017.93018.93121.93121,0,0,1,.93017-.93018m0-.28344a1.21362,1.21362,0,1,0,1.21363,1.21362,1.21361,1.21361,0,0,0-1.21363-1.21362Z" fill="#e6e6e6"/><circle cx="99.89118" cy="152.45074" r="1.21363" fill="#e6e6e6"/><circle cx="58.81443" cy="90.83562" r="1.21363" fill="#e6e6e6"/><circle cx="99.89118" cy="90.83562" r="1.21363" fill="#e6e6e6"/><path d="M15.87056,151.52051a.93024.93024,0,1,1-.93017.93017.9312.9312,0,0,1,.93017-.93017m0-.28345a1.21369,1.21369,0,1,0,1.21363,1.21362,1.21369,1.21369,0,0,0-1.21363-1.21362Z" fill="#e6e6e6"/><path d="M183.9118,89.90546a.93018.93018,0,1,1-.93017.93017.93123.93123,0,0,1,.93017-.93017m0-.28345a1.21363,1.21363,0,1,0,1.21363,1.21362A1.2136,1.2136,0,0,0,183.9118,89.622Z" fill="#e6e6e6"/><path d="M183.9118,151.52051a.93024.93024,0,1,1-.93017.93017.93119.93119,0,0,1,.93017-.93017m0-.28345a1.21369,1.21369,0,1,0,1.21363,1.21362,1.21368,1.21368,0,0,0-1.21363-1.21362Z" fill="#e6e6e6"/><circle cx="15.87056" cy="35.47537" r="2.80069" fill="#b3b3b3" stroke="#252525" stroke-miterlimit="10" stroke-width="0.3"/><circle cx="58.81443" cy="35.39267" r="2.80069" fill="#b3b3b3" stroke="#252525" stroke-miterlimit="10" stroke-width="0.3"/><circle cx="142.83505" cy="35.39267" r="2.80069" fill="#b3b3b3" stroke="#252525" stroke-miterlimit="10" stroke-width="0.3"/><circle cx="183.9118" cy="35.39267" r="2.80069" fill="#b3b3b3" stroke="#252525" stroke-miterlimit="10" stroke-width="0.3"/><circle cx="226.85567" cy="35.39267" r="2.80069" fill="#b3b3b3" stroke="#252525" stroke-miterlimit="10" stroke-width="0.3"/><circle cx="15.87056" cy="78.41924" r="2.80069" fill="#b3b3b3" stroke="#252525" stroke-miterlimit="10" stroke-width="0.3"/><circle cx="58.81443" cy="78.33655" r="2.80069" fill="#b3b3b3" stroke="#252525" stroke-miterlimit="10" stroke-width="0.3"/><circle cx="99.89118" cy="78.33655" r="2.80069" fill="#b3b3b3" stroke="#252525" stroke-miterlimit="10" stroke-width="0.3"/><circle cx="142.83505" cy="78.41924" r="2.80069" fill="#b3b3b3" stroke="#252525" stroke-miterlimit="10" stroke-width="0.3"/><circle cx="183.9118" cy="78.33655" r="2.80069" fill="#b3b3b3" stroke="#252525" stroke-miterlimit="10" stroke-width="0.3"/><circle cx="226.85567" cy="78.33655" r="2.80069" fill="#b3b3b3" stroke="#252525" stroke-miterlimit="10" stroke-width="0.3"/><circle cx="15.87056" cy="182.97824" r="2.80069" fill="#b3b3b3" stroke="#252525" stroke-miterlimit="10" stroke-width="0.3"/><circle cx="58.81443" cy="182.89554" r="2.80069" fill="#b3b3b3" stroke="#252525" stroke-miterlimit="10" stroke-width="0.3"/><circle cx="99.89118" cy="182.89554" r="2.80069" fill="#b3b3b3" stroke="#252525" stroke-miterlimit="10" stroke-width="0.3"/><circle cx="142.83505" cy="182.89554" r="2.80069" fill="#b3b3b3" stroke="#252525" stroke-miterlimit="10" stroke-width="0.3"/><circle cx="183.9118" cy="182.89554" r="2.80069" fill="#b3b3b3" stroke="#252525" stroke-miterlimit="10" stroke-width="0.3"/><circle cx="226.85567" cy="182.89554" r="2.80069" fill="#b3b3b3" stroke="#252525" stroke-miterlimit="10" stroke-width="0.3"/><circle cx="15.87056" cy="140.03436" r="2.80069" fill="#b3b3b3" stroke="#252525" stroke-miterlimit="10" stroke-width="0.3"/><circle cx="58.81443" cy="139.95167" r="2.80069" fill="#b3b3b3" stroke="#252525" stroke-miterlimit="10" stroke-width="0.3"/><circle cx="99.89118" cy="139.95167" r="2.80069" fill="#b3b3b3" stroke="#252525" stroke-miterlimit="10" stroke-width="0.3"/><circle cx="142.83505" cy="140.03436" r="2.80069" fill="#b3b3b3" stroke="#252525" stroke-miterlimit="10" stroke-width="0.3"/><circle cx="183.9118" cy="139.95167" r="2.80069" fill="#b3b3b3" stroke="#252525" stroke-miterlimit="10" stroke-width="0.3"/><circle cx="226.85567" cy="139.95167" r="2.80069" fill="#b3b3b3" stroke="#252525" stroke-miterlimit="10" stroke-width="0.3"/><circle cx="99.89118" cy="35.39267" r="2.80069" fill="#b3b3b3" stroke="#252525" stroke-miterlimit="10" stroke-width="0.3"/><path d="M27.66748,46.05664H28.481l1.27392,3.91113h-.72949l-.30518-1.05859H27.4043l-.30518,1.05859h-.70557Zm-.10205,2.30859h.999l-.13769-.47851c-.12549-.41309-.23926-.86133-.35254-1.292h-.02393c-.10791.43652-.22119.8789-.34717,1.292Z" fill="#e6e6e6"/><path d="M30.18555,48.97559V47.5752h-.41846v-.51368l.45459-.03027.084-.80176h.57422v.80176h.74756v.544h-.74756v1.40039c0,.34668.13135.51367.4126.51367a.83927.83927,0,0,0,.30518-.06543l.11914.50879a1.87657,1.87657,0,0,1-.59766.10742C30.437,50.04,30.18555,49.60938,30.18555,48.97559Z" fill="#e6e6e6"/><path d="M32.22559,48.97559V47.5752h-.41895v-.51368l.45459-.03027.0835-.80176H32.919v.80176h.748v.544h-.748v1.40039c0,.34668.13183.51367.41308.51367a.83444.83444,0,0,0,.30469-.06543l.12012.50879a1.883,1.883,0,0,1-.59864.10742C32.47656,50.04,32.22559,49.60938,32.22559,48.97559Z" fill="#e6e6e6"/><path d="M34.002,49.17871c0-.62793.52051-.957,1.72852-1.08887-.01172-.31054-.1377-.57422-.53809-.57422a1.67657,1.67657,0,0,0-.82568.28711l-.25147-.46093a2.3018,2.3018,0,0,1,1.2085-.38282c.73,0,1.09473.44922,1.09473,1.26856v1.74023H35.8501l-.04785-.32226h-.02393a1.43325,1.43325,0,0,1-.90918.39453A.82066.82066,0,0,1,34.002,49.17871Zm1.72852,0v-.6582c-.80176.10156-1.06445.31152-1.06445.60449,0,.2627.17919.377.42431.377A.93507.93507,0,0,0,35.73047,49.17871Z" fill="#e6e6e6"/><path d="M37.05225,48.50293a1.449,1.449,0,0,1,1.47168-1.544,1.26557,1.26557,0,0,1,.86132.32911l-.335.44921a.71889.71889,0,0,0-.49072-.21582c-.47266,0-.80127.38868-.80127.98145,0,.58594.32275.97461.78369.97461a.97872.97872,0,0,0,.604-.251l.28076.4541a1.46666,1.46666,0,0,1-.957.35938A1.39742,1.39742,0,0,1,37.05225,48.50293Z" fill="#e6e6e6"/><path d="M40.00732,45.74512h.67627v2.63769h.01758L41.79,47.03125h.75342l-1.00489,1.19629,1.10694,1.74023h-.748L41.144,48.69434l-.46045.52636v.74707h-.67627Z" fill="#e6e6e6"/><path d="M68.08984,46.05664h1.04688a1.957,1.957,0,0,1,.03564,3.91113H68.08984Zm.999,3.34961c.78906,0,1.23779-.44922,1.23779-1.41211,0-.957-.44873-1.376-1.23779-1.376h-.30518v2.78809Z" fill="#e6e6e6"/><path d="M71.57715,48.50293a1.43,1.43,0,0,1,1.352-1.544c.79541,0,1.21435.57422,1.21435,1.39454a1.5989,1.5989,0,0,1-.03027.335H72.24707a.84135.84135,0,0,0,.86719.81933,1.22666,1.22666,0,0,0,.68213-.21582l.2334.43067A1.8535,1.8535,0,0,1,73.0249,50.04,1.41636,1.41636,0,0,1,71.57715,48.50293Zm1.96777-.28125c0-.45508-.19726-.72949-.59765-.72949a.73713.73713,0,0,0-.70606.72949Z" fill="#e6e6e6"/><path d="M74.60938,48.50293a1.449,1.449,0,0,1,1.47167-1.544,1.26463,1.26463,0,0,1,.86133.32911l-.335.44921a.71889.71889,0,0,0-.49072-.21582c-.47217,0-.80127.38868-.80127.98145,0,.58594.32275.97461.7832.97461a.97886.97886,0,0,0,.60449-.251l.28126.4541a1.46765,1.46765,0,0,1-.957.35938A1.39752,1.39752,0,0,1,74.60938,48.50293Z" fill="#e6e6e6"/><path d="M77.34912,49.17871c0-.62793.52-.957,1.72852-1.08887-.01221-.31054-.1377-.57422-.53858-.57422a1.67488,1.67488,0,0,0-.82519.28711l-.251-.46093a2.29716,2.29716,0,0,1,1.208-.38282c.72949,0,1.09472.44922,1.09472,1.26856v1.74023h-.56835l-.04786-.32226h-.02392a1.43216,1.43216,0,0,1-.90918.39453A.82092.82092,0,0,1,77.34912,49.17871Zm1.72852,0v-.6582c-.80127.10156-1.06494.31152-1.06494.60449,0,.2627.17968.377.4248.377A.93507.93507,0,0,0,79.07764,49.17871Z" fill="#e6e6e6"/><path d="M80.40625,51.11621l.12549-.53809a.73049.73049,0,0,0,.20947.042.6153.6153,0,0,0,.58594-.50293l.05371-.18457-1.1543-2.90137h.69971l.5083,1.44141c.084.25683.168.55078.25732.82519h.02393c.07178-.26855.14941-.56152.22168-.82519l.44238-1.44141H83.044L81.979,50.09961c-.24511.66406-.55029,1.07715-1.18994,1.07715A1.13267,1.13267,0,0,1,80.40625,51.11621Z" fill="#e6e6e6"/><path d="M84.75391,49.40625h.84961v-2.501h-.69971v-.43066a2.55025,2.55025,0,0,0,.87939-.31055h.51416v3.24219h.74756v.56152h-2.291Z" fill="#e6e6e6"/><path d="M108.16846,46.05664h1.25c.80761,0,1.3999.24512,1.3999.96289a.88118.88118,0,0,1-.54443.84863v.02442a.89292.89292,0,0,1,.74755.92676c0,.78418-.64013,1.14843-1.50146,1.14843h-1.35156Zm1.18994,1.61426c.54443,0,.77783-.21485.77783-.54981,0-.38281-.25732-.52636-.76562-.52636h-.50831V47.6709Zm.08984,1.75879c.57422,0,.89746-.209.89746-.64551,0-.41309-.311-.59277-.89746-.59277h-.58594v1.23828Z" fill="#e6e6e6"/><path d="M111.73926,46.05664h1.23193c.86768,0,1.51319.29883,1.51319,1.208,0,.86719-.64551,1.26758-1.48926,1.26758h-.562v1.43554h-.69385Zm1.20215,1.91992c.58007,0,.86132-.2334.86132-.71191,0-.49024-.30517-.65235-.88525-.65235h-.48437v1.36426Z" fill="#e6e6e6"/><path d="M116.417,46.05664h.69385v3.3252h1.627v.58593H116.417Z" fill="#e6e6e6"/><path d="M119.09033,48.50293a1.43,1.43,0,0,1,1.35205-1.544c.79541,0,1.21387.57422,1.21387,1.39454a1.604,1.604,0,0,1-.02979.335h-1.86621a.84147.84147,0,0,0,.86768.81933,1.22627,1.22627,0,0,0,.68164-.21582l.2334.43067a1.85349,1.85349,0,0,1-1.00488.31738A1.41636,1.41636,0,0,1,119.09033,48.50293Zm1.96826-.28125c0-.45508-.19775-.72949-.59863-.72949a.73739.73739,0,0,0-.70557.72949Z" fill="#e6e6e6"/><path d="M121.94971,47.03125h.6997l.4668,1.52539c.07764.28711.16748.58594.24512.88477h.02392c.0835-.29883.16748-.59766.25147-.88477l.46631-1.52539h.66406l-.999,2.93652h-.79541Z" fill="#e6e6e6"/><path d="M125.04834,48.50293a1.43,1.43,0,0,1,1.35205-1.544c.79541,0,1.21387.57422,1.21387,1.39454a1.604,1.604,0,0,1-.02979.335h-1.86621a.84147.84147,0,0,0,.86768.81933,1.22629,1.22629,0,0,0,.68164-.21582l.2334.43067a1.8535,1.8535,0,0,1-1.00489.31738A1.41636,1.41636,0,0,1,125.04834,48.50293Zm1.96826-.28125c0-.45508-.19775-.72949-.59863-.72949a.73739.73739,0,0,0-.70557.72949Z" fill="#e6e6e6"/><path d="M128.27246,49.21484V45.74512h.688V49.25c0,.168.07764.22754.14941.22754a.4219.4219,0,0,0,.10791-.01172l.08985.51465a.95661.95661,0,0,1-.36524.05957C128.45215,50.04,128.27246,49.72266,128.27246,49.21484Z" fill="#e6e6e6"/><path d="M150.60205,46.05664h1.04639a1.957,1.957,0,0,1,.03613,3.91113h-1.08252Zm.99854,3.34961c.79,0,1.23828-.44922,1.23828-1.41211,0-.957-.44825-1.376-1.23828-1.376h-.30469v2.78809Z" fill="#e6e6e6"/><path d="M154.08887,48.50293a1.43,1.43,0,0,1,1.35205-1.544c.79541,0,1.21435.57422,1.21435,1.39454a1.5989,1.5989,0,0,1-.03027.335h-1.86621a.84135.84135,0,0,0,.86719.81933,1.22666,1.22666,0,0,0,.68213-.21582l.23339.43067a1.85347,1.85347,0,0,1-1.00488.31738A1.41635,1.41635,0,0,1,154.08887,48.50293Zm1.96777-.28125c0-.45508-.19726-.72949-.59766-.72949a.73713.73713,0,0,0-.70605.72949Z" fill="#e6e6e6"/><path d="M157.08594,49.17871c0-.62793.52051-.957,1.72851-1.08887-.01172-.31054-.13769-.57422-.53808-.57422a1.67664,1.67664,0,0,0-.82569.28711l-.25146-.46093a2.30177,2.30177,0,0,1,1.20849-.38282c.73,0,1.09473.44922,1.09473,1.26856v1.74023h-.56836l-.04785-.32226h-.02393a1.43325,1.43325,0,0,1-.90918.39453A.82065.82065,0,0,1,157.08594,49.17871Zm1.72851,0v-.6582c-.80175.10156-1.06445.31152-1.06445.60449,0,.2627.1792.377.42432.377A.93506.93506,0,0,0,158.81445,49.17871Z" fill="#e6e6e6"/><path d="M160.13672,48.50293a1.449,1.449,0,0,1,1.47168-1.544,1.26467,1.26467,0,0,1,.86133.32911l-.335.44921a.71893.71893,0,0,0-.49073-.21582c-.47216,0-.80127.38868-.80127.98145,0,.58594.32276.97461.78321.97461a.97886.97886,0,0,0,.60449-.251l.28125.4541a1.46761,1.46761,0,0,1-.957.35938A1.39752,1.39752,0,0,1,160.13672,48.50293Z" fill="#e6e6e6"/><path d="M162.87646,49.17871c0-.62793.52-.957,1.72852-1.08887-.01221-.31054-.13769-.57422-.53857-.57422a1.67491,1.67491,0,0,0-.8252.28711l-.251-.46093a2.29722,2.29722,0,0,1,1.208-.38282c.72949,0,1.09473.44922,1.09473,1.26856v1.74023h-.56836l-.04785-.32226h-.02393a1.43214,1.43214,0,0,1-.90918.39453A.82092.82092,0,0,1,162.87646,49.17871Zm1.72852,0v-.6582c-.80127.10156-1.06494.31152-1.06494.60449,0,.2627.17969.377.4248.377A.93507.93507,0,0,0,164.605,49.17871Z" fill="#e6e6e6"/><path d="M165.93262,51.11621l.126-.53809a.734.734,0,0,0,.209.042.615.615,0,0,0,.58642-.50293l.05371-.18457-1.15429-2.90137h.6997l.50879,1.44141c.0835.25683.167.55078.25684.82519h.02393c.07177-.26855.1499-.56152.22119-.82519l.44287-1.44141h.66406l-1.06494,3.06836c-.24512.66406-.55029,1.07715-1.19043,1.07715A1.13693,1.13693,0,0,1,165.93262,51.11621Z" fill="#e6e6e6"/><path d="M170.06641,49.56738c1.05859-1.02246,1.72265-1.69238,1.72265-2.27343a.59.59,0,0,0-.62842-.65723,1.05134,1.05134,0,0,0-.74169.4248l-.38282-.38281a1.5574,1.5574,0,0,1,1.21436-.58691,1.112,1.112,0,0,1,1.20215,1.167c0,.67578-.62793,1.36914-1.38135,2.165.19726-.01758.44824-.042.63379-.042h.9331v.58593h-2.57177Z" fill="#e6e6e6"/><path d="M193.27734,49.46582l.40625-.47266a1.55858,1.55858,0,0,0,1.01709.44239c.44287,0,.68213-.19727.68213-.502,0-.32324-.25146-.4248-.60449-.57421l-.53809-.2334a1.12835,1.12835,0,0,1-.78955-1.041,1.18983,1.18983,0,0,1,1.31592-1.10058,1.728,1.728,0,0,1,1.20215.49609l-.353.44336a1.27059,1.27059,0,0,0-.84912-.335c-.37109,0-.61621.17285-.61621.46,0,.30566.29883.41894.62207.55078l.53223.2207a1.09588,1.09588,0,0,1,.78955,1.05957A1.24347,1.24347,0,0,1,194.68848,50.04,2.02748,2.02748,0,0,1,193.27734,49.46582Z" fill="#e6e6e6"/><path d="M196.71631,48.87305v-1.8418h.688v1.75293c0,.48437.13769.66309.45459.66309.25732,0,.43066-.11915.65185-.40625V47.03125h.688v2.93652h-.5625l-.05371-.43066h-.01807a1.19462,1.19462,0,0,1-.94482.50293C196.99121,50.04,196.71631,49.61523,196.71631,48.87305Z" fill="#e6e6e6"/><path d="M199.7793,49.63281l.32324-.44238a1.30684,1.30684,0,0,0,.81348.3291c.31689,0,.4663-.14941.4663-.35254,0-.24609-.31689-.35351-.62793-.47265-.38916-.14356-.82568-.36524-.82568-.85547,0-.51465.41309-.87989,1.0708-.87989a1.58548,1.58548,0,0,1,.9751.35352l-.31738.419a1.08788,1.08788,0,0,0-.64551-.252c-.29346,0-.43067.1377-.43067.32324,0,.2334.293.32325.60987.43653.40088.14941.84326.34082.84326.8916,0,.502-.40039.90918-1.14258.90918A1.85982,1.85982,0,0,1,199.7793,49.63281Z" fill="#e6e6e6"/><path d="M202.63281,48.97559V47.5752h-.41894v-.51368l.45459-.03027.08349-.80176h.57422v.80176h.74805v.544h-.74805v1.40039c0,.34668.13184.51367.41309.51367a.83444.83444,0,0,0,.30469-.06543l.12011.50879a1.8829,1.8829,0,0,1-.59863.10742C202.88379,50.04,202.63281,49.60938,202.63281,48.97559Z" fill="#e6e6e6"/><path d="M204.40918,49.17871c0-.62793.52051-.957,1.72852-1.08887-.01172-.31054-.1377-.57422-.53809-.57422a1.67657,1.67657,0,0,0-.82568.28711l-.25147-.46093a2.30177,2.30177,0,0,1,1.2085-.38282c.73,0,1.09472.44922,1.09472,1.26856v1.74023h-.56836l-.04785-.32226h-.02392a1.43327,1.43327,0,0,1-.90918.39453A.82066.82066,0,0,1,204.40918,49.17871Zm1.72852,0v-.6582c-.80176.10156-1.06446.31152-1.06446.60449,0,.2627.1792.377.42432.377A.93509.93509,0,0,0,206.1377,49.17871Z" fill="#e6e6e6"/><path d="M207.57324,46.12793a.42648.42648,0,1,1,.42481.38867A.39483.39483,0,0,1,207.57324,46.12793Zm.07764.90332h.688v2.93652h-.688Z" fill="#e6e6e6"/><path d="M209.21777,47.03125h.56836l.04785.39453h.02393a1.36537,1.36537,0,0,1,.96289-.4668c.62842,0,.90332.42481.90332,1.167v1.84179h-.688v-1.752c0-.48437-.13769-.66406-.46045-.66406a.92925.92925,0,0,0-.66992.36426v2.05175h-.688Z" fill="#e6e6e6"/><path d="M236.12891,46.05664h1.32177c.81348,0,1.43555.28711,1.43555,1.16016a1.09443,1.09443,0,0,1-.77783,1.11816l.93359,1.63281h-.77783l-.84326-1.53125h-.59815v1.53125h-.69384Zm1.25,1.83008c.53222,0,.82519-.22754.82519-.66992,0-.44922-.293-.6045-.82519-.6045h-.55616v1.27442Z" fill="#e6e6e6"/><path d="M239.35889,48.50293a1.43,1.43,0,0,1,1.352-1.544c.79541,0,1.21386.57422,1.21386,1.39454a1.6041,1.6041,0,0,1-.02978.335h-1.86621a.84147.84147,0,0,0,.86767.81933,1.22627,1.22627,0,0,0,.68164-.21582l.2334.43067a1.85347,1.85347,0,0,1-1.00488.31738A1.41635,1.41635,0,0,1,239.35889,48.50293Zm1.96826-.28125c0-.45508-.19776-.72949-.59863-.72949a.73739.73739,0,0,0-.70557.72949Z" fill="#e6e6e6"/><path d="M242.583,49.21484V45.74512h.688V49.25c0,.168.07763.22754.14941.22754a.4219.4219,0,0,0,.10791-.01172l.08984.51465a.95652.95652,0,0,1-.36523.05957C242.7627,50.04,242.583,49.72266,242.583,49.21484Z" fill="#e6e6e6"/><path d="M244.01221,48.50293a1.43,1.43,0,0,1,1.352-1.544c.79541,0,1.21386.57422,1.21386,1.39454a1.6041,1.6041,0,0,1-.02978.335h-1.86621a.84147.84147,0,0,0,.86767.81933,1.22632,1.22632,0,0,0,.68165-.21582l.23339.43067A1.85347,1.85347,0,0,1,245.46,50.04,1.41635,1.41635,0,0,1,244.01221,48.50293Zm1.96826-.28125c0-.45508-.19776-.72949-.59863-.72949a.73739.73739,0,0,0-.70557.72949Z" fill="#e6e6e6"/><path d="M247.00928,49.17871c0-.62793.52-.957,1.72851-1.08887-.0122-.31054-.13769-.57422-.53857-.57422a1.675,1.675,0,0,0-.8252.28711l-.251-.46093a2.29715,2.29715,0,0,1,1.208-.38282c.7295,0,1.09473.44922,1.09473,1.26856v1.74023h-.56836l-.04785-.32226h-.02393a1.43214,1.43214,0,0,1-.90918.39453A.82091.82091,0,0,1,247.00928,49.17871Zm1.72851,0v-.6582c-.80127.10156-1.06494.31152-1.06494.60449,0,.2627.17969.377.42481.377A.93506.93506,0,0,0,248.73779,49.17871Z" fill="#e6e6e6"/><path d="M249.958,49.63281l.32324-.44238a1.30686,1.30686,0,0,0,.81348.3291c.31689,0,.46631-.14941.46631-.35254,0-.24609-.3169-.35351-.62793-.47265-.38916-.14356-.82569-.36524-.82569-.85547,0-.51465.41309-.87989,1.0708-.87989a1.58548,1.58548,0,0,1,.9751.35352l-.31738.419a1.08788,1.08788,0,0,0-.64551-.252c-.29346,0-.43066.1377-.43066.32324,0,.2334.293.32325.60986.43653.40088.14941.84326.34082.84326.8916,0,.502-.40039.90918-1.14258.90918A1.85982,1.85982,0,0,1,249.958,49.63281Z" fill="#e6e6e6"/><path d="M252.6377,48.50293a1.43,1.43,0,0,1,1.352-1.544c.79541,0,1.21435.57422,1.21435,1.39454a1.59958,1.59958,0,0,1-.03027.335h-1.86621a.84135.84135,0,0,0,.86718.81933,1.22661,1.22661,0,0,0,.68213-.21582l.2334.43067a1.85349,1.85349,0,0,1-1.00488.31738A1.41635,1.41635,0,0,1,252.6377,48.50293Zm1.96777-.28125c0-.45508-.19727-.72949-.59766-.72949a.73712.73712,0,0,0-.70605.72949Z" fill="#e6e6e6"/><path d="M27.66748,89H28.481l1.27392,3.91211h-.72949l-.30518-1.05859H27.4043l-.30518,1.05859h-.70557Zm-.10205,2.30859h.999l-.13769-.47851c-.12549-.41211-.23926-.86133-.35254-1.292h-.02393c-.10791.43652-.22119.87988-.34717,1.292Z" fill="#e6e6e6"/><path d="M30.18555,91.919V90.51953h-.41846v-.51465l.45459-.03027.084-.80078h.57422v.80078h.74756v.54492h-.74756V91.919c0,.34667.13135.51464.4126.51464a.83976.83976,0,0,0,.30518-.0664l.11914.50879a1.87657,1.87657,0,0,1-.59766.10742C30.437,92.9834,30.18555,92.55273,30.18555,91.919Z" fill="#e6e6e6"/><path d="M32.22559,91.919V90.51953h-.41895v-.51465l.45459-.03027.0835-.80078H32.919v.80078h.748v.54492h-.748V91.919c0,.34667.13183.51464.41308.51464a.83491.83491,0,0,0,.30469-.0664l.12012.50879a1.883,1.883,0,0,1-.59864.10742C32.47656,92.9834,32.22559,92.55273,32.22559,91.919Z" fill="#e6e6e6"/><path d="M34.002,92.12207c0-.62793.52051-.957,1.72852-1.08789-.01172-.31152-.1377-.57422-.53809-.57422a1.66691,1.66691,0,0,0-.82568.28711l-.25147-.46094a2.30188,2.30188,0,0,1,1.2085-.38281c.73,0,1.09473.44824,1.09473,1.26758v1.74121H35.8501l-.04785-.32324h-.02393a1.42813,1.42813,0,0,1-.90918.39453A.82066.82066,0,0,1,34.002,92.12207Zm1.72852,0v-.65723c-.80176.10157-1.06445.31055-1.06445.60352,0,.26367.17919.377.42431.377A.93108.93108,0,0,0,35.73047,92.12207Z" fill="#e6e6e6"/><path d="M37.05225,91.44629a1.44876,1.44876,0,0,1,1.47168-1.543,1.26562,1.26562,0,0,1,.86132.3291l-.335.44824a.71766.71766,0,0,0-.49072-.21484c-.47266,0-.80127.38867-.80127.98047,0,.58594.32275.97559.78369.97559a.9798.9798,0,0,0,.604-.252l.28076.45508a1.46557,1.46557,0,0,1-.957.3584A1.39691,1.39691,0,0,1,37.05225,91.44629Z" fill="#e6e6e6"/><path d="M40.00732,88.68945h.67627v2.6377h.01758L41.79,89.97461h.75342L41.53857,91.1709l1.10694,1.74121h-.748L41.144,91.6377l-.46045.52636v.748h-.67627Z" fill="#e6e6e6"/><path d="M68.084,89h1.04688a1.95751,1.95751,0,0,1,.03564,3.91211H68.084Zm.999,3.34961c.78906,0,1.23779-.44824,1.23779-1.41113,0-.957-.44873-1.376-1.23779-1.376h-.30518v2.78711Z" fill="#e6e6e6"/><path d="M71.57129,91.44629a1.42908,1.42908,0,0,1,1.352-1.543c.79541,0,1.21436.57422,1.21436,1.39356a1.58511,1.58511,0,0,1-.03028.335H72.24121a.8407.8407,0,0,0,.86719.81933,1.22565,1.22565,0,0,0,.68213-.21484l.2334.43066a1.85263,1.85263,0,0,1-1.00489.31641A1.41636,1.41636,0,0,1,71.57129,91.44629Zm1.96777-.28125c0-.4541-.19726-.72949-.59765-.72949a.73713.73713,0,0,0-.70606.72949Z" fill="#e6e6e6"/><path d="M74.56787,92.12207c0-.62793.52-.957,1.72852-1.08789-.01221-.31152-.1377-.57422-.53858-.57422a1.66523,1.66523,0,0,0-.82519.28711l-.251-.46094a2.29724,2.29724,0,0,1,1.208-.38281c.72949,0,1.09473.44824,1.09473,1.26758v1.74121H76.416l-.04786-.32324h-.02392a1.42706,1.42706,0,0,1-.90918.39453A.82092.82092,0,0,1,74.56787,92.12207Zm1.72852,0v-.65723c-.80127.10157-1.06494.31055-1.06494.60352,0,.26367.17968.377.4248.377A.93108.93108,0,0,0,76.29639,92.12207Z" fill="#e6e6e6"/><path d="M77.61816,91.44629a1.44877,1.44877,0,0,1,1.47168-1.543,1.26467,1.26467,0,0,1,.86133.3291l-.335.44824a.71766.71766,0,0,0-.49072-.21484c-.47217,0-.80127.38867-.80127.98047,0,.58594.32275.97559.7832.97559a.97993.97993,0,0,0,.60449-.252l.28125.45508a1.46652,1.46652,0,0,1-.957.3584A1.397,1.397,0,0,1,77.61816,91.44629Z" fill="#e6e6e6"/><path d="M80.41211,94.06055l.12549-.53809a.73141.73141,0,0,0,.20947.041.61537.61537,0,0,0,.58594-.502l.05371-.18554-1.1543-2.90137h.69971l.5083,1.44238c.084.25684.168.54981.25732.8252h.02393c.07178-.26953.14941-.5625.22168-.8252l.44238-1.44238h.66406L81.98486,93.044c-.24511.66308-.55029,1.07617-1.18994,1.07617A1.13477,1.13477,0,0,1,80.41211,94.06055Z" fill="#e6e6e6"/><path d="M84.76074,92.34961h.84912v-2.5h-.6997V89.419a2.56347,2.56347,0,0,0,.8789-.31153h.51465v3.24219h.74756v.5625H84.76074Z" fill="#e6e6e6"/><path d="M109.16748,89h1.04639a1.95751,1.95751,0,0,1,.03613,3.91211h-1.08252Zm.99854,3.34961c.79,0,1.23828-.44824,1.23828-1.41113,0-.957-.44825-1.376-1.23828-1.376h-.30469v2.78711Z" fill="#e6e6e6"/><path d="M112.6543,91.44629a1.42908,1.42908,0,0,1,1.352-1.543c.79541,0,1.21435.57422,1.21435,1.39356a1.58522,1.58522,0,0,1-.03027.335h-1.86621a.8407.8407,0,0,0,.86719.81933,1.22568,1.22568,0,0,0,.68213-.21484l.23339.43066a1.85259,1.85259,0,0,1-1.00488.31641A1.41635,1.41635,0,0,1,112.6543,91.44629Zm1.96777-.28125c0-.4541-.19727-.72949-.59766-.72949a.73713.73713,0,0,0-.70605.72949Z" fill="#e6e6e6"/><path d="M115.687,91.44629a1.44877,1.44877,0,0,1,1.47168-1.543,1.26562,1.26562,0,0,1,.86133.3291l-.335.44824a.71768.71768,0,0,0-.49072-.21484c-.47266,0-.80127.38867-.80127.98047,0,.58594.32275.97559.78369.97559a.97977.97977,0,0,0,.604-.252l.28076.45508a1.46557,1.46557,0,0,1-.957.3584A1.39691,1.39691,0,0,1,115.687,91.44629Z" fill="#e6e6e6"/><path d="M118.42676,92.12207c0-.62793.52051-.957,1.72851-1.08789-.01172-.31152-.13769-.57422-.53808-.57422a1.667,1.667,0,0,0-.82569.28711l-.25146-.46094a2.30185,2.30185,0,0,1,1.2085-.38281c.73,0,1.09472.44824,1.09472,1.26758v1.74121h-.56836l-.04785-.32324h-.02393a1.42813,1.42813,0,0,1-.90917.39453A.82066.82066,0,0,1,118.42676,92.12207Zm1.72851,0v-.65723c-.80175.10157-1.06445.31055-1.06445.60352,0,.26367.1792.377.42432.377A.93108.93108,0,0,0,120.15527,92.12207Z" fill="#e6e6e6"/><path d="M121.4834,94.06055l.126-.53809a.73473.73473,0,0,0,.209.041.61507.61507,0,0,0,.58643-.502l.05371-.18554-1.1543-2.90137h.69971l.50879,1.44238c.08349.25684.167.54981.25683.8252h.02393c.07177-.26953.1499-.5625.22119-.8252l.44287-1.44238h.66406L123.05664,93.044c-.24512.66308-.55029,1.07617-1.19043,1.07617A1.139,1.139,0,0,1,121.4834,94.06055Z" fill="#e6e6e6"/><path d="M125.61621,92.51074c1.05908-1.02246,1.72266-1.69238,1.72266-2.27246a.59034.59034,0,0,0-.62793-.6582,1.05134,1.05134,0,0,0-.7417.4248l-.38281-.38281a1.55643,1.55643,0,0,1,1.21435-.58594,1.1115,1.1115,0,0,1,1.20215,1.166c0,.67578-.62793,1.37012-1.38184,2.165.19776-.01758.44873-.041.63428-.041h.93311v.58594h-2.57227Z" fill="#e6e6e6"/><path d="M150.76367,89h.69385v3.32617h1.627v.58594h-2.3208Z" fill="#e6e6e6"/><path d="M153.4375,91.44629a1.42908,1.42908,0,0,1,1.352-1.543c.79541,0,1.21436.57422,1.21436,1.39356a1.58511,1.58511,0,0,1-.03028.335h-1.86621a.8407.8407,0,0,0,.86719.81933,1.22565,1.22565,0,0,0,.68213-.21484l.2334.43066a1.85263,1.85263,0,0,1-1.00489.31641A1.41636,1.41636,0,0,1,153.4375,91.44629Zm1.96777-.28125c0-.4541-.19726-.72949-.59765-.72949a.73713.73713,0,0,0-.70606.72949Z" fill="#e6e6e6"/><path d="M156.29639,89.97461h.6997l.4668,1.52539c.07764.28711.16748.58691.24512.88574h.02392c.0835-.29883.16748-.59863.25147-.88574l.46631-1.52539h.66406l-.999,2.9375h-.79541Z" fill="#e6e6e6"/><path d="M159.395,91.44629a1.42908,1.42908,0,0,1,1.35205-1.543c.79541,0,1.21387.57422,1.21387,1.39356a1.59041,1.59041,0,0,1-.02979.335h-1.86621a.84083.84083,0,0,0,.86768.81933,1.2253,1.2253,0,0,0,.68164-.21484l.2334.43066a1.85263,1.85263,0,0,1-1.00489.31641A1.41636,1.41636,0,0,1,159.395,91.44629Zm1.96826-.28125c0-.4541-.19775-.72949-.59863-.72949a.73739.73739,0,0,0-.70557.72949Z" fill="#e6e6e6"/><path d="M162.61914,92.1582V88.68945h.688v3.50489c0,.167.07764.22754.14941.22754a.39065.39065,0,0,0,.10791-.0127l.08985.51465a.93786.93786,0,0,1-.36524.05957C162.79883,92.9834,162.61914,92.667,162.61914,92.1582Z" fill="#e6e6e6"/><path d="M164.97607,89h.73584l.5503,1.96777c.12549.44239.21533.8252.34668,1.27442h.02392c.13184-.44922.22168-.832.34082-1.27442L167.51807,89H168.23l-1.21436,3.91211h-.81933Z" fill="#e6e6e6"/><path d="M168.34912,91.44629a1.42908,1.42908,0,0,1,1.352-1.543c.79541,0,1.21387.57422,1.21387,1.39356a1.59041,1.59041,0,0,1-.02979.335H169.019a.84083.84083,0,0,0,.86768.81933,1.22528,1.22528,0,0,0,.68164-.21484l.2334.43066a1.85262,1.85262,0,0,1-1.00488.31641A1.41636,1.41636,0,0,1,168.34912,91.44629Zm1.96826-.28125c0-.4541-.19775-.72949-.59863-.72949a.73739.73739,0,0,0-.70557.72949Z" fill="#e6e6e6"/><path d="M171.57324,92.1582V88.68945h.688v3.50489c0,.167.07764.22754.14941.22754a.39065.39065,0,0,0,.10791-.0127l.08985.51465a.93782.93782,0,0,1-.36524.05957C171.75293,92.9834,171.57324,92.667,171.57324,92.1582Z" fill="#e6e6e6"/><path d="M194.22949,89h.69385v3.32617h1.62695v.58594h-2.3208Z" fill="#e6e6e6"/><path d="M196.90332,91.44629a1.42908,1.42908,0,0,1,1.352-1.543c.79541,0,1.21436.57422,1.21436,1.39356a1.58511,1.58511,0,0,1-.03028.335h-1.86621a.8407.8407,0,0,0,.86719.81933,1.22565,1.22565,0,0,0,.68213-.21484l.2334.43066a1.85263,1.85263,0,0,1-1.00489.31641A1.41636,1.41636,0,0,1,196.90332,91.44629Zm1.96777-.28125c0-.4541-.19726-.72949-.59765-.72949a.73713.73713,0,0,0-.70606.72949Z" fill="#e6e6e6"/><path d="M199.76221,89.97461h.6997l.4668,1.52539c.07764.28711.16748.58691.24512.88574h.02392c.0835-.29883.16748-.59863.25147-.88574l.46631-1.52539h.66406l-.999,2.9375h-.79541Z" fill="#e6e6e6"/><path d="M202.86084,91.44629a1.42908,1.42908,0,0,1,1.352-1.543c.79541,0,1.21387.57422,1.21387,1.39356a1.59041,1.59041,0,0,1-.02979.335h-1.86621a.84083.84083,0,0,0,.86768.81933,1.2253,1.2253,0,0,0,.68164-.21484l.2334.43066a1.85263,1.85263,0,0,1-1.00489.31641A1.41636,1.41636,0,0,1,202.86084,91.44629Zm1.96826-.28125c0-.4541-.19775-.72949-.59863-.72949a.73739.73739,0,0,0-.70557.72949Z" fill="#e6e6e6"/><path d="M206.085,92.1582V88.68945h.688v3.50489c0,.167.07764.22754.14941.22754a.39065.39065,0,0,0,.10791-.0127l.08985.51465a.93786.93786,0,0,1-.36524.05957C206.26465,92.9834,206.085,92.667,206.085,92.1582Z" fill="#e6e6e6"/><path d="M208.9624,89h.69385v1.77637h.01758L211.06787,89h.77149l-1.20215,1.52539,1.40576,2.38672h-.76563l-1.05908-1.84277-.562.70019v1.14258h-.69385Z" fill="#e6e6e6"/><path d="M213.19092,89.58594h-1.13037V89h2.95459v.58594h-1.13037v3.32617h-.69385Z" fill="#e6e6e6"/><path d="M239.94189,90.96777A1.849,1.849,0,0,1,241.79,88.92871a1.61085,1.61085,0,0,1,1.18457.49609l-.37109.44825a1.05818,1.05818,0,0,0-.78907-.34082c-.69433,0-1.16064.53808-1.16064,1.418,0,.89062.4126,1.42968,1.19629,1.42968a.86631.86631,0,0,0,.562-.17383V91.3623h-.74121v-.56738h1.36328v1.72266a1.86514,1.86514,0,0,1-3.09229-1.54981Z" fill="#e6e6e6"/><path d="M243.68652,92.12207c0-.62793.52051-.957,1.72852-1.08789-.01172-.31152-.1377-.57422-.53809-.57422a1.66691,1.66691,0,0,0-.82568.28711l-.25147-.46094a2.30188,2.30188,0,0,1,1.2085-.38281c.73,0,1.09473.44824,1.09473,1.26758v1.74121h-.56836l-.04785-.32324h-.02393a1.42813,1.42813,0,0,1-.90918.39453A.82066.82066,0,0,1,243.68652,92.12207Zm1.72852,0v-.65723c-.80176.10157-1.06445.31055-1.06445.60352,0,.26367.1792.377.42431.377A.93108.93108,0,0,0,245.415,92.12207Z" fill="#e6e6e6"/><path d="M246.85059,89.07227a.42648.42648,0,1,1,.4248.38867A.39557.39557,0,0,1,246.85059,89.07227Zm.07763.90234h.688v2.9375h-.688Z" fill="#e6e6e6"/><path d="M248.49561,89.97461h.56835l.04786.39551h.02392a1.36248,1.36248,0,0,1,.96289-.4668c.62793,0,.90332.4248.90332,1.166v1.84277h-.688V91.15918c0-.48438-.1372-.66406-.46044-.66406a.93075.93075,0,0,0-.66993.36523v2.05176h-.688Z" fill="#e6e6e6"/><path d="M27.66748,193.55957H28.481l1.27392,3.91113h-.72949l-.30518-1.05859H27.4043l-.30518,1.05859h-.70557Zm-.10205,2.30859h.999l-.13769-.47851c-.12549-.41309-.23926-.86133-.35254-1.292h-.02393c-.10791.43652-.22119.8789-.34717,1.292Z" fill="#e6e6e6"/><path d="M30.18555,196.47852v-1.4004h-.41846v-.51367l.45459-.03027.084-.80176h.57422v.80176h.74756v.54394h-.74756v1.4004c0,.34668.13135.51367.4126.51367a.83927.83927,0,0,0,.30518-.06543l.11914.50879a1.87657,1.87657,0,0,1-.59766.10742C30.437,197.543,30.18555,197.1123,30.18555,196.47852Z" fill="#e6e6e6"/><path d="M32.22559,196.47852v-1.4004h-.41895v-.51367l.45459-.03027.0835-.80176H32.919v.80176h.748v.54394h-.748v1.4004c0,.34668.13183.51367.41308.51367a.83444.83444,0,0,0,.30469-.06543l.12012.50879a1.883,1.883,0,0,1-.59864.10742C32.47656,197.543,32.22559,197.1123,32.22559,196.47852Z" fill="#e6e6e6"/><path d="M34.002,196.68164c0-.62793.52051-.957,1.72852-1.08887-.01172-.31054-.1377-.57422-.53809-.57422a1.67657,1.67657,0,0,0-.82568.28711l-.25147-.46093a2.3018,2.3018,0,0,1,1.2085-.38282c.73,0,1.09473.44922,1.09473,1.26856v1.74023H35.8501l-.04785-.32226h-.02393a1.43325,1.43325,0,0,1-.90918.39453A.82066.82066,0,0,1,34.002,196.68164Zm1.72852,0v-.6582c-.80176.10156-1.06445.31152-1.06445.60449,0,.26269.17919.377.42431.377A.93507.93507,0,0,0,35.73047,196.68164Z" fill="#e6e6e6"/><path d="M37.05225,196.00586a1.449,1.449,0,0,1,1.47168-1.544,1.26557,1.26557,0,0,1,.86132.32911l-.335.44921a.71889.71889,0,0,0-.49072-.21582c-.47266,0-.80127.38868-.80127.98145,0,.58594.32275.97461.78369.97461a.97872.97872,0,0,0,.604-.251l.28076.4541a1.46666,1.46666,0,0,1-.957.35938A1.39742,1.39742,0,0,1,37.05225,196.00586Z" fill="#e6e6e6"/><path d="M40.00732,193.24805h.67627v2.63769h.01758L41.79,194.53418h.75342l-1.00489,1.19629,1.10694,1.74023h-.748l-.75342-1.27343-.46045.52636v.74707h-.67627Z" fill="#e6e6e6"/><path d="M68.084,193.55957h1.04688a1.957,1.957,0,0,1,.03564,3.91113H68.084Zm.999,3.34961c.78906,0,1.23779-.44922,1.23779-1.41211,0-.957-.44873-1.376-1.23779-1.376h-.30518v2.78809Z" fill="#e6e6e6"/><path d="M71.57129,196.00586a1.43,1.43,0,0,1,1.352-1.544c.79541,0,1.21436.57422,1.21436,1.39454a1.59887,1.59887,0,0,1-.03028.335H72.24121a.84135.84135,0,0,0,.86719.81933,1.22663,1.22663,0,0,0,.68213-.21582l.2334.43067a1.8535,1.8535,0,0,1-1.00489.31738A1.41636,1.41636,0,0,1,71.57129,196.00586Zm1.96777-.28125c0-.45508-.19726-.72949-.59765-.72949a.73713.73713,0,0,0-.70606.72949Z" fill="#e6e6e6"/><path d="M74.56787,196.68164c0-.62793.52-.957,1.72852-1.08887-.01221-.31054-.1377-.57422-.53858-.57422a1.67488,1.67488,0,0,0-.82519.28711l-.251-.46093a2.29716,2.29716,0,0,1,1.208-.38282c.72949,0,1.09473.44922,1.09473,1.26856v1.74023H76.416l-.04786-.32226h-.02392a1.43216,1.43216,0,0,1-.90918.39453A.82092.82092,0,0,1,74.56787,196.68164Zm1.72852,0v-.6582c-.80127.10156-1.06494.31152-1.06494.60449,0,.26269.17968.377.4248.377A.93507.93507,0,0,0,76.29639,196.68164Z" fill="#e6e6e6"/><path d="M77.61816,196.00586a1.449,1.449,0,0,1,1.47168-1.544,1.26463,1.26463,0,0,1,.86133.32911l-.335.44921a.71889.71889,0,0,0-.49072-.21582c-.47217,0-.80127.38868-.80127.98145,0,.58594.32275.97461.7832.97461a.97886.97886,0,0,0,.60449-.251l.28125.4541a1.46761,1.46761,0,0,1-.957.35938A1.39753,1.39753,0,0,1,77.61816,196.00586Z" fill="#e6e6e6"/><path d="M80.41211,198.61914l.12549-.53809a.73042.73042,0,0,0,.20947.042.61531.61531,0,0,0,.58594-.50293l.05371-.18457-1.1543-2.90137h.69971l.5083,1.44141c.084.25683.168.55078.25732.82519h.02393c.07178-.26855.14941-.56152.22168-.82519l.44238-1.44141h.66406l-1.06494,3.06836c-.24511.66406-.55029,1.07715-1.18994,1.07715A1.13267,1.13267,0,0,1,80.41211,198.61914Z" fill="#e6e6e6"/><path d="M84.76074,196.90918h.84912v-2.501h-.6997v-.43066a2.54366,2.54366,0,0,0,.8789-.31055h.51465v3.24219h.74756v.56152H84.76074Z" fill="#e6e6e6"/><path d="M108.16846,193.55957h1.25c.80761,0,1.3999.24512,1.3999.96289a.88118.88118,0,0,1-.54443.84863v.02442a.89292.89292,0,0,1,.74755.92676c0,.78418-.64013,1.14843-1.50146,1.14843h-1.35156Zm1.18994,1.61426c.54443,0,.77783-.21485.77783-.54981,0-.38281-.25732-.52636-.76562-.52636h-.50831v1.07617Zm.08984,1.75879c.57422,0,.89746-.209.89746-.64551,0-.41309-.311-.59277-.89746-.59277h-.58594v1.23828Z" fill="#e6e6e6"/><path d="M111.73926,193.55957h1.23193c.86768,0,1.51319.29883,1.51319,1.208,0,.86719-.64551,1.26758-1.48926,1.26758h-.562v1.43554h-.69385Zm1.20215,1.91992c.58007,0,.86132-.2334.86132-.71191,0-.49024-.30517-.65235-.88525-.65235h-.48437v1.36426Z" fill="#e6e6e6"/><path d="M116.417,193.55957h.69385v3.3252h1.627v.58593H116.417Z" fill="#e6e6e6"/><path d="M119.09033,196.00586a1.43,1.43,0,0,1,1.35205-1.544c.79541,0,1.21387.57422,1.21387,1.39454a1.60406,1.60406,0,0,1-.02979.335h-1.86621a.84147.84147,0,0,0,.86768.81933,1.22627,1.22627,0,0,0,.68164-.21582l.2334.43067a1.85349,1.85349,0,0,1-1.00488.31738A1.41636,1.41636,0,0,1,119.09033,196.00586Zm1.96826-.28125c0-.45508-.19775-.72949-.59863-.72949a.73739.73739,0,0,0-.70557.72949Z" fill="#e6e6e6"/><path d="M121.94971,194.53418h.6997l.4668,1.52539c.07764.28711.16748.58594.24512.88477h.02392c.0835-.29883.16748-.59766.25147-.88477l.46631-1.52539h.66406l-.999,2.93652h-.79541Z" fill="#e6e6e6"/><path d="M125.04834,196.00586a1.43,1.43,0,0,1,1.35205-1.544c.79541,0,1.21387.57422,1.21387,1.39454a1.60406,1.60406,0,0,1-.02979.335h-1.86621a.84147.84147,0,0,0,.86768.81933,1.22629,1.22629,0,0,0,.68164-.21582l.2334.43067a1.8535,1.8535,0,0,1-1.00489.31738A1.41636,1.41636,0,0,1,125.04834,196.00586Zm1.96826-.28125c0-.45508-.19775-.72949-.59863-.72949a.73739.73739,0,0,0-.70557.72949Z" fill="#e6e6e6"/><path d="M128.27246,196.71777v-3.46972h.688v3.50488c0,.168.07764.22754.14941.22754a.4219.4219,0,0,0,.10791-.01172l.08985.51465a.95661.95661,0,0,1-.36524.05957C128.45215,197.543,128.27246,197.22559,128.27246,196.71777Z" fill="#e6e6e6"/><path d="M150.60205,193.55957h1.04639a1.957,1.957,0,0,1,.03613,3.91113h-1.08252Zm.99854,3.34961c.79,0,1.23828-.44922,1.23828-1.41211,0-.957-.44825-1.376-1.23828-1.376h-.30469v2.78809Z" fill="#e6e6e6"/><path d="M154.08887,196.00586a1.43,1.43,0,0,1,1.35205-1.544c.79541,0,1.21435.57422,1.21435,1.39454a1.599,1.599,0,0,1-.03027.335h-1.86621a.84135.84135,0,0,0,.86719.81933,1.22666,1.22666,0,0,0,.68213-.21582l.23339.43067a1.85347,1.85347,0,0,1-1.00488.31738A1.41635,1.41635,0,0,1,154.08887,196.00586Zm1.96777-.28125c0-.45508-.19726-.72949-.59766-.72949a.73713.73713,0,0,0-.70605.72949Z" fill="#e6e6e6"/><path d="M157.08594,196.68164c0-.62793.52051-.957,1.72851-1.08887-.01172-.31054-.13769-.57422-.53808-.57422a1.67664,1.67664,0,0,0-.82569.28711l-.25146-.46093a2.30177,2.30177,0,0,1,1.20849-.38282c.73,0,1.09473.44922,1.09473,1.26856v1.74023h-.56836l-.04785-.32226h-.02393a1.43325,1.43325,0,0,1-.90918.39453A.82065.82065,0,0,1,157.08594,196.68164Zm1.72851,0v-.6582c-.80175.10156-1.06445.31152-1.06445.60449,0,.26269.1792.377.42432.377A.93506.93506,0,0,0,158.81445,196.68164Z" fill="#e6e6e6"/><path d="M160.13672,196.00586a1.449,1.449,0,0,1,1.47168-1.544,1.26467,1.26467,0,0,1,.86133.32911l-.335.44921a.71893.71893,0,0,0-.49073-.21582c-.47216,0-.80127.38868-.80127.98145,0,.58594.32276.97461.78321.97461a.97886.97886,0,0,0,.60449-.251l.28125.4541a1.46761,1.46761,0,0,1-.957.35938A1.39752,1.39752,0,0,1,160.13672,196.00586Z" fill="#e6e6e6"/><path d="M162.87646,196.68164c0-.62793.52-.957,1.72852-1.08887-.01221-.31054-.13769-.57422-.53857-.57422a1.67491,1.67491,0,0,0-.8252.28711l-.251-.46093a2.29722,2.29722,0,0,1,1.208-.38282c.72949,0,1.09473.44922,1.09473,1.26856v1.74023h-.56836l-.04785-.32226h-.02393a1.43214,1.43214,0,0,1-.90918.39453A.82092.82092,0,0,1,162.87646,196.68164Zm1.72852,0v-.6582c-.80127.10156-1.06494.31152-1.06494.60449,0,.26269.17969.377.4248.377A.93507.93507,0,0,0,164.605,196.68164Z" fill="#e6e6e6"/><path d="M165.93262,198.61914l.126-.53809a.734.734,0,0,0,.209.042.615.615,0,0,0,.58642-.50293l.05371-.18457-1.15429-2.90137h.6997l.50879,1.44141c.0835.25683.167.55078.25684.82519h.02393c.07177-.26855.1499-.56152.22119-.82519l.44287-1.44141h.66406l-1.06494,3.06836c-.24512.66406-.55029,1.07715-1.19043,1.07715A1.13693,1.13693,0,0,1,165.93262,198.61914Z" fill="#e6e6e6"/><path d="M170.06641,197.07031c1.05859-1.02246,1.72265-1.69238,1.72265-2.27343a.59.59,0,0,0-.62842-.65723,1.05134,1.05134,0,0,0-.74169.4248l-.38282-.38281a1.5574,1.5574,0,0,1,1.21436-.58691,1.112,1.112,0,0,1,1.20215,1.167c0,.67578-.62793,1.36914-1.38135,2.165.19726-.01758.44824-.042.63379-.042h.9331v.58593h-2.57177Z" fill="#e6e6e6"/><path d="M193.27734,196.96875l.40625-.47266a1.55858,1.55858,0,0,0,1.01709.44239c.44287,0,.68213-.19727.68213-.502,0-.32324-.25146-.4248-.60449-.57422l-.53809-.23339a1.12835,1.12835,0,0,1-.78955-1.041,1.18984,1.18984,0,0,1,1.31592-1.10059,1.728,1.728,0,0,1,1.20215.4961l-.353.44336a1.27059,1.27059,0,0,0-.84912-.335c-.37109,0-.61621.17285-.61621.46,0,.30566.29883.41894.62207.55078l.53223.2207a1.09588,1.09588,0,0,1,.78955,1.05957,1.24347,1.24347,0,0,1-1.40576,1.16016A2.02748,2.02748,0,0,1,193.27734,196.96875Z" fill="#e6e6e6"/><path d="M196.71631,196.376v-1.8418h.688v1.75293c0,.48437.13769.66309.45459.66309.25732,0,.43066-.11915.65185-.40625v-2.00977h.688v2.93652h-.5625l-.05371-.43066h-.01807a1.19462,1.19462,0,0,1-.94482.50293C196.99121,197.543,196.71631,197.11816,196.71631,196.376Z" fill="#e6e6e6"/><path d="M199.7793,197.13574l.32324-.44238a1.30684,1.30684,0,0,0,.81348.3291c.31689,0,.4663-.14941.4663-.35254,0-.24609-.31689-.35351-.62793-.47265-.38916-.14356-.82568-.36524-.82568-.85547,0-.51465.41309-.87989,1.0708-.87989a1.58548,1.58548,0,0,1,.9751.35352l-.31738.41895a1.08788,1.08788,0,0,0-.64551-.252c-.29346,0-.43067.1377-.43067.32324,0,.2334.293.32325.60987.43653.40088.14941.84326.34082.84326.8916,0,.50195-.40039.90918-1.14258.90918A1.85982,1.85982,0,0,1,199.7793,197.13574Z" fill="#e6e6e6"/><path d="M202.63281,196.47852v-1.4004h-.41894v-.51367l.45459-.03027.08349-.80176h.57422v.80176h.74805v.54394h-.74805v1.4004c0,.34668.13184.51367.41309.51367a.83444.83444,0,0,0,.30469-.06543l.12011.50879a1.8829,1.8829,0,0,1-.59863.10742C202.88379,197.543,202.63281,197.1123,202.63281,196.47852Z" fill="#e6e6e6"/><path d="M204.40918,196.68164c0-.62793.52051-.957,1.72852-1.08887-.01172-.31054-.1377-.57422-.53809-.57422a1.67657,1.67657,0,0,0-.82568.28711l-.25147-.46093a2.30177,2.30177,0,0,1,1.2085-.38282c.73,0,1.09472.44922,1.09472,1.26856v1.74023h-.56836l-.04785-.32226h-.02392a1.43327,1.43327,0,0,1-.90918.39453A.82066.82066,0,0,1,204.40918,196.68164Zm1.72852,0v-.6582c-.80176.10156-1.06446.31152-1.06446.60449,0,.26269.1792.377.42432.377A.93509.93509,0,0,0,206.1377,196.68164Z" fill="#e6e6e6"/><path d="M207.57324,193.63086a.42648.42648,0,1,1,.42481.38867A.39483.39483,0,0,1,207.57324,193.63086Zm.07764.90332h.688v2.93652h-.688Z" fill="#e6e6e6"/><path d="M209.21777,194.53418h.56836l.04785.39453h.02393a1.36537,1.36537,0,0,1,.96289-.4668c.62842,0,.90332.42481.90332,1.167v1.84179h-.688v-1.75195c0-.48437-.13769-.66406-.46045-.66406a.92925.92925,0,0,0-.66992.36426v2.05175h-.688Z" fill="#e6e6e6"/><path d="M236.12891,193.55957h1.32177c.81348,0,1.43555.28711,1.43555,1.16016a1.09443,1.09443,0,0,1-.77783,1.11816l.93359,1.63281h-.77783l-.84326-1.53125h-.59815v1.53125h-.69384Zm1.25,1.83008c.53222,0,.82519-.22754.82519-.66992,0-.44922-.293-.6045-.82519-.6045h-.55616v1.27442Z" fill="#e6e6e6"/><path d="M239.35889,196.00586a1.43,1.43,0,0,1,1.352-1.544c.79541,0,1.21386.57422,1.21386,1.39454a1.60417,1.60417,0,0,1-.02978.335h-1.86621a.84147.84147,0,0,0,.86767.81933,1.22627,1.22627,0,0,0,.68164-.21582l.2334.43067a1.85347,1.85347,0,0,1-1.00488.31738A1.41635,1.41635,0,0,1,239.35889,196.00586Zm1.96826-.28125c0-.45508-.19776-.72949-.59863-.72949a.73739.73739,0,0,0-.70557.72949Z" fill="#e6e6e6"/><path d="M242.583,196.71777v-3.46972h.688v3.50488c0,.168.07763.22754.14941.22754a.4219.4219,0,0,0,.10791-.01172l.08984.51465a.95652.95652,0,0,1-.36523.05957C242.7627,197.543,242.583,197.22559,242.583,196.71777Z" fill="#e6e6e6"/><path d="M244.01221,196.00586a1.43,1.43,0,0,1,1.352-1.544c.79541,0,1.21386.57422,1.21386,1.39454a1.60417,1.60417,0,0,1-.02978.335h-1.86621a.84147.84147,0,0,0,.86767.81933,1.22632,1.22632,0,0,0,.68165-.21582l.23339.43067a1.85347,1.85347,0,0,1-1.00488.31738A1.41635,1.41635,0,0,1,244.01221,196.00586Zm1.96826-.28125c0-.45508-.19776-.72949-.59863-.72949a.73739.73739,0,0,0-.70557.72949Z" fill="#e6e6e6"/><path d="M247.00928,196.68164c0-.62793.52-.957,1.72851-1.08887-.0122-.31054-.13769-.57422-.53857-.57422a1.675,1.675,0,0,0-.8252.28711l-.251-.46093a2.29715,2.29715,0,0,1,1.208-.38282c.7295,0,1.09473.44922,1.09473,1.26856v1.74023h-.56836l-.04785-.32226h-.02393a1.43214,1.43214,0,0,1-.90918.39453A.82091.82091,0,0,1,247.00928,196.68164Zm1.72851,0v-.6582c-.80127.10156-1.06494.31152-1.06494.60449,0,.26269.17969.377.42481.377A.93506.93506,0,0,0,248.73779,196.68164Z" fill="#e6e6e6"/><path d="M249.958,197.13574l.32324-.44238a1.30686,1.30686,0,0,0,.81348.3291c.31689,0,.46631-.14941.46631-.35254,0-.24609-.3169-.35351-.62793-.47265-.38916-.14356-.82569-.36524-.82569-.85547,0-.51465.41309-.87989,1.0708-.87989a1.58548,1.58548,0,0,1,.9751.35352l-.31738.41895a1.08788,1.08788,0,0,0-.64551-.252c-.29346,0-.43066.1377-.43066.32324,0,.2334.293.32325.60986.43653.40088.14941.84326.34082.84326.8916,0,.50195-.40039.90918-1.14258.90918A1.85982,1.85982,0,0,1,249.958,197.13574Z" fill="#e6e6e6"/><path d="M252.6377,196.00586a1.43,1.43,0,0,1,1.352-1.544c.79541,0,1.21435.57422,1.21435,1.39454a1.59965,1.59965,0,0,1-.03027.335h-1.86621a.84135.84135,0,0,0,.86718.81933,1.22661,1.22661,0,0,0,.68213-.21582l.2334.43067a1.85349,1.85349,0,0,1-1.00488.31738A1.41635,1.41635,0,0,1,252.6377,196.00586Zm1.96777-.28125c0-.45508-.19727-.72949-.59766-.72949a.73712.73712,0,0,0-.70605.72949Z" fill="#e6e6e6"/><path d="M25.14941,150.61719h1.32178c.81348,0,1.43555.28711,1.43555,1.16015a1.09444,1.09444,0,0,1-.77783,1.11817l.93359,1.63281h-.77783l-.84326-1.53125h-.59815v1.53125h-.69385Zm1.25,1.83008c.53223,0,.8252-.22754.8252-.66993,0-.44922-.293-.60449-.8252-.60449h-.55615v1.27442Z" fill="#e6e6e6"/><path d="M28.37939,153.06348a1.43,1.43,0,0,1,1.35206-1.54395c.79541,0,1.21386.57422,1.21386,1.39453a1.60471,1.60471,0,0,1-.02978.335H29.04932a.84148.84148,0,0,0,.86767.81934,1.22634,1.22634,0,0,0,.68164-.21582l.2334.43066a1.85342,1.85342,0,0,1-1.00488.31739A1.41636,1.41636,0,0,1,28.37939,153.06348Zm1.96827-.28125c0-.45508-.19776-.7295-.59864-.7295a.73739.73739,0,0,0-.70556.7295Z" fill="#e6e6e6"/><path d="M31.60352,153.77539v-3.46973h.688v3.50489c0,.168.07764.22754.14942.22754a.42194.42194,0,0,0,.10791-.01172l.08984.51465a.95652.95652,0,0,1-.36523.05957C31.7832,154.60059,31.60352,154.2832,31.60352,153.77539Z" fill="#e6e6e6"/><path d="M33.03271,153.06348a1.43,1.43,0,0,1,1.35206-1.54395c.79541,0,1.21386.57422,1.21386,1.39453a1.60471,1.60471,0,0,1-.02978.335H33.70264a.84148.84148,0,0,0,.86767.81934,1.22634,1.22634,0,0,0,.68164-.21582l.2334.43066a1.85342,1.85342,0,0,1-1.00488.31739A1.41636,1.41636,0,0,1,33.03271,153.06348Zm1.96827-.28125c0-.45508-.19776-.7295-.59864-.7295a.73739.73739,0,0,0-.70556.7295Z" fill="#e6e6e6"/><path d="M36.02979,153.73926c0-.62793.52-.957,1.72851-1.08887-.01221-.31055-.13769-.57422-.53857-.57422a1.67491,1.67491,0,0,0-.8252.28711l-.251-.46094a2.2973,2.2973,0,0,1,1.208-.38281c.72949,0,1.09473.44922,1.09473,1.26856v1.74023h-.56836l-.04785-.32227h-.02393a1.4321,1.4321,0,0,1-.90918.39454A.82091.82091,0,0,1,36.02979,153.73926Zm1.72851,0v-.65821c-.80127.10157-1.06494.31153-1.06494.6045,0,.26269.17969.37695.4248.37695A.93511.93511,0,0,0,37.7583,153.73926Z" fill="#e6e6e6"/><path d="M38.97852,154.19336l.32324-.44238a1.30684,1.30684,0,0,0,.81347.3291c.3169,0,.46631-.14942.46631-.35254,0-.24609-.31689-.35352-.62793-.47266-.38916-.14355-.82568-.36523-.82568-.85547,0-.51464.41309-.87988,1.0708-.87988a1.58548,1.58548,0,0,1,.9751.35352l-.31738.41894a1.08793,1.08793,0,0,0-.64551-.25195c-.29346,0-.43067.13769-.43067.32324,0,.2334.293.32324.60987.43652.40088.14942.84326.34082.84326.89161,0,.502-.40039.90918-1.14258.90918A1.8598,1.8598,0,0,1,38.97852,154.19336Z" fill="#e6e6e6"/><path d="M41.6582,153.06348a1.43,1.43,0,0,1,1.352-1.54395c.79541,0,1.21436.57422,1.21436,1.39453a1.59951,1.59951,0,0,1-.03027.335H42.32812a.84136.84136,0,0,0,.86719.81934,1.22669,1.22669,0,0,0,.68213-.21582l.2334.43066a1.85342,1.85342,0,0,1-1.00488.31739A1.41636,1.41636,0,0,1,41.6582,153.06348Zm1.96778-.28125c0-.45508-.19727-.7295-.59766-.7295a.73713.73713,0,0,0-.706.7295Z" fill="#e6e6e6"/><path d="M66.73779,150.61719h.69385v3.32519h1.62695v.58594h-2.3208Z" fill="#e6e6e6"/><path d="M69.41162,153.06348a1.43,1.43,0,0,1,1.35205-1.54395c.79541,0,1.21387.57422,1.21387,1.39453a1.60392,1.60392,0,0,1-.02979.335H70.08154a.84148.84148,0,0,0,.86768.81934,1.22634,1.22634,0,0,0,.68164-.21582l.2334.43066a1.85342,1.85342,0,0,1-1.00488.31739A1.41636,1.41636,0,0,1,69.41162,153.06348Zm1.96826-.28125c0-.45508-.19775-.7295-.59863-.7295a.7374.7374,0,0,0-.70557.7295Z" fill="#e6e6e6"/><path d="M72.27051,151.5918h.6997l.4668,1.52539c.07764.28711.16748.58593.24512.88476h.02392c.084-.29883.16749-.59765.251-.88476l.4668-1.52539h.66406l-.999,2.93652h-.79541Z" fill="#e6e6e6"/><path d="M75.36914,153.06348a1.43,1.43,0,0,1,1.35205-1.54395c.79541,0,1.21436.57422,1.21436,1.39453a1.59873,1.59873,0,0,1-.03028.335H76.03906a.84136.84136,0,0,0,.86719.81934,1.22671,1.22671,0,0,0,.68213-.21582l.2334.43066a1.85343,1.85343,0,0,1-1.00489.31739A1.41636,1.41636,0,0,1,75.36914,153.06348Zm1.96777-.28125c0-.45508-.19726-.7295-.59765-.7295a.73714.73714,0,0,0-.70606.7295Z" fill="#e6e6e6"/><path d="M78.59326,153.77539v-3.46973h.688v3.50489c0,.168.07764.22754.14941.22754a.42186.42186,0,0,0,.10791-.01172l.08936.51465a.952.952,0,0,1-.36475.05957C78.773,154.60059,78.59326,154.2832,78.59326,153.77539Z" fill="#e6e6e6"/><path d="M80.94971,150.61719h.73584l.55029,1.96777c.12549.44238.21533.8252.34668,1.27344h.02393c.13183-.44824.22167-.83106.34082-1.27344l.54443-1.96777h.71191l-1.21435,3.91113h-.81934Z" fill="#e6e6e6"/><path d="M84.32324,153.06348a1.43,1.43,0,0,1,1.35205-1.54395c.79541,0,1.21436.57422,1.21436,1.39453a1.59951,1.59951,0,0,1-.03027.335H84.99316a.84136.84136,0,0,0,.86719.81934,1.22669,1.22669,0,0,0,.68213-.21582l.2334.43066a1.85342,1.85342,0,0,1-1.00488.31739A1.41636,1.41636,0,0,1,84.32324,153.06348Zm1.96778-.28125c0-.45508-.19727-.7295-.59766-.7295a.73715.73715,0,0,0-.70606.7295Z" fill="#e6e6e6"/><path d="M87.54736,153.77539v-3.46973h.688v3.50489c0,.168.07764.22754.14942.22754a.42194.42194,0,0,0,.10791-.01172l.08935.51465a.95187.95187,0,0,1-.36474.05957C87.72705,154.60059,87.54736,154.2832,87.54736,153.77539Z" fill="#e6e6e6"/><path d="M108.3418,150.61719h.69384v3.32519h1.627v.58594h-2.3208Z" fill="#e6e6e6"/><path d="M111.01562,153.06348a1.43,1.43,0,0,1,1.35206-1.54395c.79541,0,1.21435.57422,1.21435,1.39453a1.59951,1.59951,0,0,1-.03027.335h-1.86621a.84136.84136,0,0,0,.86718.81934,1.22669,1.22669,0,0,0,.68213-.21582l.2334.43066a1.85342,1.85342,0,0,1-1.00488.31739A1.41636,1.41636,0,0,1,111.01562,153.06348Zm1.96778-.28125c0-.45508-.19727-.7295-.59766-.7295a.73713.73713,0,0,0-.70605.7295Z" fill="#e6e6e6"/><path d="M113.87451,151.5918h.69971l.4668,1.52539c.07763.28711.16748.58593.24511.88476h.02393c.08349-.29883.16748-.59765.25146-.88476l.46631-1.52539h.66406l-.999,2.93652h-.79541Z" fill="#e6e6e6"/><path d="M116.97314,153.06348a1.43,1.43,0,0,1,1.35206-1.54395c.79541,0,1.21386.57422,1.21386,1.39453a1.60471,1.60471,0,0,1-.02978.335h-1.86621a.84147.84147,0,0,0,.86767.81934,1.22634,1.22634,0,0,0,.68164-.21582l.2334.43066a1.85342,1.85342,0,0,1-1.00488.31739A1.41636,1.41636,0,0,1,116.97314,153.06348Zm1.96827-.28125c0-.45508-.19776-.7295-.59864-.7295a.73739.73739,0,0,0-.70556.7295Z" fill="#e6e6e6"/><path d="M120.19727,153.77539v-3.46973h.688v3.50489c0,.168.07764.22754.14942.22754a.42194.42194,0,0,0,.10791-.01172l.08984.51465a.95652.95652,0,0,1-.36523.05957C120.377,154.60059,120.19727,154.2832,120.19727,153.77539Z" fill="#e6e6e6"/><path d="M123.07471,150.61719h.69384v1.77636h.01758l1.394-1.77636h.77148l-1.20215,1.52441,1.40576,2.38672h-.76562l-1.05908-1.8418-.562.69922v1.14258h-.69384Z" fill="#e6e6e6"/><path d="M127.30322,151.20312h-1.13037v-.58593h2.95459v.58593h-1.13037v3.3252h-.69385Z" fill="#e6e6e6"/><path d="M150.76367,150.61719h.69385v3.32519h1.627v.58594h-2.3208Z" fill="#e6e6e6"/><path d="M153.4375,153.06348a1.43,1.43,0,0,1,1.352-1.54395c.79541,0,1.21436.57422,1.21436,1.39453a1.59873,1.59873,0,0,1-.03028.335h-1.86621a.84136.84136,0,0,0,.86719.81934,1.22671,1.22671,0,0,0,.68213-.21582l.2334.43066a1.85343,1.85343,0,0,1-1.00489.31739A1.41636,1.41636,0,0,1,153.4375,153.06348Zm1.96777-.28125c0-.45508-.19726-.7295-.59765-.7295a.73714.73714,0,0,0-.70606.7295Z" fill="#e6e6e6"/><path d="M156.29639,151.5918h.6997l.4668,1.52539c.07764.28711.16748.58593.24512.88476h.02392c.0835-.29883.16748-.59765.25147-.88476l.46631-1.52539h.66406l-.999,2.93652h-.79541Z" fill="#e6e6e6"/><path d="M159.395,153.06348a1.43,1.43,0,0,1,1.35205-1.54395c.79541,0,1.21387.57422,1.21387,1.39453a1.60392,1.60392,0,0,1-.02979.335h-1.86621a.84148.84148,0,0,0,.86768.81934,1.22637,1.22637,0,0,0,.68164-.21582l.2334.43066a1.85343,1.85343,0,0,1-1.00489.31739A1.41636,1.41636,0,0,1,159.395,153.06348Zm1.96826-.28125c0-.45508-.19775-.7295-.59863-.7295a.7374.7374,0,0,0-.70557.7295Z" fill="#e6e6e6"/><path d="M162.61914,153.77539v-3.46973h.688v3.50489c0,.168.07764.22754.14941.22754a.4219.4219,0,0,0,.10791-.01172l.08985.51465a.95661.95661,0,0,1-.36524.05957C162.79883,154.60059,162.61914,154.2832,162.61914,153.77539Z" fill="#e6e6e6"/><path d="M164.97607,150.61719h.73584l.5503,1.96777c.12549.44238.21533.8252.34668,1.27344h.02392c.13184-.44824.22168-.83106.34082-1.27344l.54444-1.96777H168.23l-1.21436,3.91113h-.81933Z" fill="#e6e6e6"/><path d="M168.34912,153.06348a1.43,1.43,0,0,1,1.352-1.54395c.79541,0,1.21387.57422,1.21387,1.39453a1.60392,1.60392,0,0,1-.02979.335H169.019a.84148.84148,0,0,0,.86768.81934,1.22634,1.22634,0,0,0,.68164-.21582l.2334.43066a1.85342,1.85342,0,0,1-1.00488.31739A1.41636,1.41636,0,0,1,168.34912,153.06348Zm1.96826-.28125c0-.45508-.19775-.7295-.59863-.7295a.7374.7374,0,0,0-.70557.7295Z" fill="#e6e6e6"/><path d="M171.57324,153.77539v-3.46973h.688v3.50489c0,.168.07764.22754.14941.22754a.4219.4219,0,0,0,.10791-.01172l.08985.51465a.95658.95658,0,0,1-.36524.05957C171.75293,154.60059,171.57324,154.2832,171.57324,153.77539Z" fill="#e6e6e6"/><path d="M194.22949,150.61719h.69385v3.32519h1.62695v.58594h-2.3208Z" fill="#e6e6e6"/><path d="M196.90332,153.06348a1.43,1.43,0,0,1,1.352-1.54395c.79541,0,1.21436.57422,1.21436,1.39453a1.59873,1.59873,0,0,1-.03028.335h-1.86621a.84136.84136,0,0,0,.86719.81934,1.22671,1.22671,0,0,0,.68213-.21582l.2334.43066a1.85343,1.85343,0,0,1-1.00489.31739A1.41636,1.41636,0,0,1,196.90332,153.06348Zm1.96777-.28125c0-.45508-.19726-.7295-.59765-.7295a.73714.73714,0,0,0-.70606.7295Z" fill="#e6e6e6"/><path d="M199.76221,151.5918h.6997l.4668,1.52539c.07764.28711.16748.58593.24512.88476h.02392c.0835-.29883.16748-.59765.25147-.88476l.46631-1.52539h.66406l-.999,2.93652h-.79541Z" fill="#e6e6e6"/><path d="M202.86084,153.06348a1.43,1.43,0,0,1,1.352-1.54395c.79541,0,1.21387.57422,1.21387,1.39453a1.60392,1.60392,0,0,1-.02979.335h-1.86621a.84148.84148,0,0,0,.86768.81934,1.22637,1.22637,0,0,0,.68164-.21582l.2334.43066a1.85343,1.85343,0,0,1-1.00489.31739A1.41636,1.41636,0,0,1,202.86084,153.06348Zm1.96826-.28125c0-.45508-.19775-.7295-.59863-.7295a.7374.7374,0,0,0-.70557.7295Z" fill="#e6e6e6"/><path d="M206.085,153.77539v-3.46973h.688v3.50489c0,.168.07764.22754.14941.22754a.4219.4219,0,0,0,.10791-.01172l.08985.51465a.95661.95661,0,0,1-.36524.05957C206.26465,154.60059,206.085,154.2832,206.085,153.77539Z" fill="#e6e6e6"/><path d="M208.9624,150.61719h.69385v1.77636h.01758l1.394-1.77636h.77149l-1.20215,1.52441,1.40576,2.38672h-.76563l-1.05908-1.8418-.562.69922v1.14258h-.69385Z" fill="#e6e6e6"/><path d="M213.19092,151.20312h-1.13037v-.58593h2.95459v.58593h-1.13037v3.3252h-.69385Z" fill="#e6e6e6"/><path d="M239.94189,152.585a1.84985,1.84985,0,0,1,1.84815-2.04,1.61082,1.61082,0,0,1,1.18457.4961l-.37109.44921a1.05822,1.05822,0,0,0-.78907-.34082c-.69433,0-1.16064.53809-1.16064,1.417,0,.8916.4126,1.42968,1.19629,1.42968a.86605.86605,0,0,0,.562-.17285v-.84375h-.74121v-.56836h1.36328v1.72266a1.86439,1.86439,0,0,1-3.09229-1.54883Z" fill="#e6e6e6"/><path d="M243.68652,153.73926c0-.62793.52051-.957,1.72852-1.08887-.01172-.31055-.1377-.57422-.53809-.57422a1.67657,1.67657,0,0,0-.82568.28711l-.25147-.46094a2.30188,2.30188,0,0,1,1.2085-.38281c.73,0,1.09473.44922,1.09473,1.26856v1.74023h-.56836l-.04785-.32227h-.02393a1.43321,1.43321,0,0,1-.90918.39454A.82066.82066,0,0,1,243.68652,153.73926Zm1.72852,0v-.65821c-.80176.10157-1.06445.31153-1.06445.6045,0,.26269.1792.37695.42431.37695A.93511.93511,0,0,0,245.415,153.73926Z" fill="#e6e6e6"/><path d="M246.85059,150.68848a.42648.42648,0,1,1,.4248.38867A.39482.39482,0,0,1,246.85059,150.68848Zm.07763.90332h.688v2.93652h-.688Z" fill="#e6e6e6"/><path d="M248.49561,151.5918h.56835l.04786.39453h.02392a1.36628,1.36628,0,0,1,.96289-.4668c.62793,0,.90332.42481.90332,1.167v1.8418h-.688v-1.752c0-.48438-.1372-.66407-.46044-.66407a.92925.92925,0,0,0-.66993.36426v2.05176h-.688Z" fill="#e6e6e6"/><path d="M264.19817,24.27262H6.53494V15.937a1,1,0,0,1,1-1H263.19817a1,1,0,0,1,1,1Z" fill="#282828"/><path d="M7.53494,57.88087H132.49943a1,1,0,0,1,1,1v8.33562a0,0,0,0,1,0,0H6.53494a0,0,0,0,1,0,0V58.88087a1,1,0,0,1,1-1Z" fill="#282828"/><path d="M264.19817,67.21649H137.23368V58.88087a1,1,0,0,1,1-1H263.19817a1,1,0,0,1,1,1Z" fill="#282828"/><path d="M7.53494,162.43986H263.19817a1,1,0,0,1,1,1v8.33562a0,0,0,0,1,0,0H6.53494a0,0,0,0,1,0,0v-8.33562A1,1,0,0,1,7.53494,162.43986Z" fill="#282828"/><path d="M7.53494,119.496H132.49943a1,1,0,0,1,1,1v8.33562a0,0,0,0,1,0,0H6.53494a0,0,0,0,1,0,0V120.496A1,1,0,0,1,7.53494,119.496Z" fill="#282828"/><path d="M138.23368,119.496H263.19817a1,1,0,0,1,1,1v8.33562a0,0,0,0,1,0,0H137.23368a0,0,0,0,1,0,0V120.496A1,1,0,0,1,138.23368,119.496Z" fill="#282828"/><rect x="23.33906" y="30.80756" width="22.4055" height="9.33562" rx="0.5" ry="0.5" stroke="#252525" stroke-miterlimit="10" stroke-width="0.25" fill="url(#a)"/><rect x="66.28293" y="30.80756" width="22.4055" height="9.33562" rx="0.5" ry="0.5" stroke="#252525" stroke-miterlimit="10" stroke-width="0.25" fill="url(#b)"/><rect x="107.35968" y="30.80756" width="22.4055" height="9.33562" rx="0.5" ry="0.5" stroke="#252525" stroke-miterlimit="10" stroke-width="0.25" fill="url(#c)"/><rect x="150.30355" y="30.80756" width="22.4055" height="9.33562" rx="0.5" ry="0.5" stroke="#252525" stroke-miterlimit="10" stroke-width="0.25" fill="url(#d)"/><rect x="191.38667" y="30.80756" width="22.4055" height="9.33562" rx="0.5" ry="0.5" stroke="#252525" stroke-miterlimit="10" stroke-width="0.25" fill="url(#e)"/><rect x="234.32417" y="30.80756" width="22.4055" height="9.33562" rx="0.5" ry="0.5" stroke="#252525" stroke-miterlimit="10" stroke-width="0.25" fill="url(#f)"/><rect x="23.33906" y="73.75143" width="22.4055" height="9.33562" rx="0.5" ry="0.5" stroke="#252525" stroke-miterlimit="10" stroke-width="0.25" fill="url(#g)"/><rect x="66.28293" y="73.75143" width="22.4055" height="9.33562" rx="0.5" ry="0.5" stroke="#252525" stroke-miterlimit="10" stroke-width="0.25" fill="url(#h)"/><rect x="107.35968" y="73.75143" width="22.4055" height="9.33562" rx="0.5" ry="0.5" stroke="#252525" stroke-miterlimit="10" stroke-width="0.25" fill="url(#i)"/><rect x="150.30355" y="73.75143" width="22.4055" height="9.33562" rx="0.5" ry="0.5" stroke="#252525" stroke-miterlimit="10" stroke-width="0.25" fill="url(#j)"/><rect x="191.3803" y="73.75143" width="22.4055" height="9.33562" rx="0.5" ry="0.5" stroke="#252525" stroke-miterlimit="10" stroke-width="0.25" fill="url(#k)"/><rect x="234.32417" y="73.75143" width="22.4055" height="9.33562" rx="0.5" ry="0.5" stroke="#252525" stroke-miterlimit="10" stroke-width="0.25" fill="url(#l)"/><rect x="23.33906" y="178.31042" width="22.4055" height="9.33562" rx="0.5" ry="0.5" stroke="#252525" stroke-miterlimit="10" stroke-width="0.25" fill="url(#m)"/><rect x="66.28293" y="178.31042" width="22.4055" height="9.33562" rx="0.5" ry="0.5" stroke="#252525" stroke-miterlimit="10" stroke-width="0.25" fill="url(#n)"/><rect x="107.35968" y="178.31042" width="22.4055" height="9.33562" rx="0.5" ry="0.5" stroke="#252525" stroke-miterlimit="10" stroke-width="0.25" fill="url(#o)"/><rect x="150.30355" y="178.31042" width="22.4055" height="9.33562" rx="0.5" ry="0.5" stroke="#252525" stroke-miterlimit="10" stroke-width="0.25" fill="url(#p)"/><rect x="191.38667" y="178.31042" width="22.4055" height="9.33562" rx="0.5" ry="0.5" stroke="#252525" stroke-miterlimit="10" stroke-width="0.25" fill="url(#q)"/><rect x="234.32417" y="178.31042" width="22.4055" height="9.33562" rx="0.5" ry="0.5" stroke="#252525" stroke-miterlimit="10" stroke-width="0.25" fill="url(#r)"/><rect x="23.33906" y="135.36655" width="22.4055" height="9.33562" rx="0.5" ry="0.5" stroke="#252525" stroke-miterlimit="10" stroke-width="0.25" fill="url(#s)"/><rect x="66.28293" y="135.36655" width="22.4055" height="9.33562" rx="0.5" ry="0.5" stroke="#252525" stroke-miterlimit="10" stroke-width="0.25" fill="url(#t)"/><rect x="107.35968" y="135.36655" width="22.4055" height="9.33562" rx="0.5" ry="0.5" stroke="#252525" stroke-miterlimit="10" stroke-width="0.25" fill="url(#u)"/><rect x="150.30355" y="135.36655" width="22.4055" height="9.33562" rx="0.5" ry="0.5" stroke="#252525" stroke-miterlimit="10" stroke-width="0.25" fill="url(#v)"/><rect x="191.3803" y="135.36655" width="22.4055" height="9.33562" rx="0.5" ry="0.5" stroke="#252525" stroke-miterlimit="10" stroke-width="0.25" fill="url(#w)"/><rect x="234.32417" y="135.36655" width="22.4055" height="9.33562" rx="0.5" ry="0.5" stroke="#252525" stroke-miterlimit="10" stroke-width="0.25" fill="url(#x)"/><path d="M121.66846,18.05078h2.35644v.58594h-1.6626v.999h1.40528v.58594H122.3623V21.376H124.085v.58593h-2.4165Z" fill="#ffa861"/><path d="M124.82666,19.02539h.56836l.04785.39453h.02393a1.3663,1.3663,0,0,1,.96289-.4668c.62793,0,.90332.42481.90332,1.167v1.84179h-.688V20.21c0-.48437-.13721-.66406-.46045-.66406a.92925.92925,0,0,0-.66992.36426v2.05175h-.688Z" fill="#ffa861"/><path d="M127.81152,19.02539h.69971l.4668,1.52539c.07763.28711.16748.58594.24511.88477h.02393c.084-.29883.16748-.59766.251-.88477l.46679-1.52539h.66407l-.999,2.93652h-.79541Z" fill="#ffa861"/><path d="M130.90967,20.49707a1.43,1.43,0,0,1,1.352-1.544c.79541,0,1.21387.57422,1.21387,1.39454a1.604,1.604,0,0,1-.02979.335h-1.86621a.84147.84147,0,0,0,.86768.81933,1.22631,1.22631,0,0,0,.68164-.21582l.23339.43067a1.85347,1.85347,0,0,1-1.00488.31738A1.41636,1.41636,0,0,1,130.90967,20.49707Zm1.96826-.28125c0-.45508-.19775-.72949-.59863-.72949a.73739.73739,0,0,0-.70557.72949Z" fill="#ffa861"/><path d="M134.13379,21.209V17.73926h.688v3.50488c0,.168.07763.22754.14941.22754a.4219.4219,0,0,0,.10791-.01172l.08985.51465a.95642.95642,0,0,1-.36524.05957C134.31348,22.03418,134.13379,21.7168,134.13379,21.209Z" fill="#ffa861"/><path d="M135.56348,20.49707a1.40374,1.40374,0,1,1,2.79345,0,1.40314,1.40314,0,1,1-2.79345,0Zm2.08789,0c0-.59277-.26367-.98145-.69434-.98145s-.6875.38868-.6875.98145c0,.58594.25684.97461.6875.97461S137.65137,21.083,137.65137,20.49707Z" fill="#ffa861"/><path d="M139.03857,19.02539h.56836l.04786.31055h.02392a1.43438,1.43438,0,0,1,.88525-.38282c.73,0,1.1543.58692,1.1543,1.4961,0,1.00488-.604,1.585-1.25586,1.585a1.19,1.19,0,0,1-.7539-.32324l.01806.49023v.92188h-.688Zm1.96827,1.42969c0-.58594-.19141-.9336-.63428-.9336a.94142.94142,0,0,0-.646.32911V21.2207a.92778.92778,0,0,0,.59229.24512C140.70752,21.46582,141.00684,21.11914,141.00684,20.45508Z" fill="#ffa861"/><path d="M142.2207,20.49707a1.43,1.43,0,0,1,1.35205-1.544c.79541,0,1.21436.57422,1.21436,1.39454a1.59958,1.59958,0,0,1-.03027.335h-1.86622a.84135.84135,0,0,0,.86719.81933,1.22661,1.22661,0,0,0,.68213-.21582l.2334.43067a1.85349,1.85349,0,0,1-1.00488.31738A1.41636,1.41636,0,0,1,142.2207,20.49707Zm1.96778-.28125c0-.45508-.19727-.72949-.59766-.72949a.73712.73712,0,0,0-.70605.72949Z" fill="#ffa861"/><path d="M147.4668,18.05078h.81347l1.27393,3.91113h-.73l-.30469-1.05859h-1.31592l-.30517,1.05859h-.70606Zm-.10157,2.3086h.99854l-.13721-.47852c-.126-.41309-.23926-.86133-.353-1.292h-.02393c-.10791.43652-.22168.8789-.34717,1.292Z" fill="#ffa861"/><path d="M56.26465,60.99414h2.35644v.58594H56.9585v.999h1.40576V63.165H56.9585v1.15527h1.72265v.58594h-2.4165Z" fill="#ced2d9"/><path d="M59.42285,61.96875h.56836l.04785.39551H60.063a1.36158,1.36158,0,0,1,.96289-.4668c.62842,0,.90332.42481.90332,1.166v1.84277h-.688V63.15332c0-.48437-.13769-.66406-.46045-.66406a.93075.93075,0,0,0-.66992.36523v2.05176h-.688Z" fill="#ced2d9"/><path d="M62.40771,61.96875h.69971l.4668,1.52539c.07764.28711.16748.58691.24512.88574h.02392c.0835-.29883.16748-.59863.25147-.88574l.46631-1.52539h.66406l-.999,2.9375h-.79541Z" fill="#ced2d9"/><path d="M65.50586,63.44043a1.42908,1.42908,0,0,1,1.35205-1.543c.79541,0,1.21436.57422,1.21436,1.39356a1.58511,1.58511,0,0,1-.03028.335H66.17578a.8407.8407,0,0,0,.86719.81933,1.22565,1.22565,0,0,0,.68213-.21484l.2334.43066a1.85263,1.85263,0,0,1-1.00489.31641A1.41636,1.41636,0,0,1,65.50586,63.44043Zm1.96777-.28125c0-.4541-.19726-.72949-.59765-.72949a.73713.73713,0,0,0-.70606.72949Z" fill="#ced2d9"/><path d="M68.73,64.15234V60.68359h.688v3.50489c0,.167.07764.22754.14941.22754a.39065.39065,0,0,0,.10791-.0127l.08936.51465a.93334.93334,0,0,1-.36475.05957C68.90967,64.97754,68.73,64.66113,68.73,64.15234Z" fill="#ced2d9"/><path d="M70.15967,63.44043a1.40314,1.40314,0,1,1,1.394,1.53711A1.42094,1.42094,0,0,1,70.15967,63.44043Zm2.0874,0c0-.5918-.26269-.98047-.69336-.98047s-.688.38867-.688.98047c0,.58594.25733.97559.688.97559S72.24707,64.02637,72.24707,63.44043Z" fill="#ced2d9"/><path d="M73.63477,61.96875h.56835l.04786.31152h.02392a1.43325,1.43325,0,0,1,.88526-.38281c.72949,0,1.15429.58594,1.15429,1.49512,0,1.00488-.604,1.585-1.25586,1.585a1.18846,1.18846,0,0,1-.7539-.32227l.01806.49024v.9209h-.688Zm1.96777,1.42969c0-.58594-.19141-.93262-.63379-.93262a.9365.9365,0,0,0-.646.3291v1.36914a.92683.92683,0,0,0,.59229.24512C75.30371,64.40918,75.60254,64.0625,75.60254,63.39844Z" fill="#ced2d9"/><path d="M76.81689,63.44043a1.42909,1.42909,0,0,1,1.35206-1.543c.79541,0,1.21386.57422,1.21386,1.39356a1.59119,1.59119,0,0,1-.02978.335H77.48682a.84082.84082,0,0,0,.86767.81933,1.22528,1.22528,0,0,0,.68164-.21484l.2334.43066a1.85262,1.85262,0,0,1-1.00488.31641A1.41636,1.41636,0,0,1,76.81689,63.44043Zm1.96827-.28125c0-.4541-.19776-.72949-.59864-.72949a.73738.73738,0,0,0-.70556.72949Z" fill="#ced2d9"/><path d="M81.09375,62.96191a1.83572,1.83572,0,0,1,1.78857-2.03906,1.54994,1.54994,0,0,1,1.13038.4961l-.37061.44824a1.02181,1.02181,0,0,0-.7417-.34082c-.64014,0-1.09473.53808-1.09473,1.418,0,.89062.41895,1.42968,1.07666,1.42968a1.11444,1.11444,0,0,0,.83741-.40136l.37109.43652a1.57717,1.57717,0,0,1-1.23242.56836A1.78879,1.78879,0,0,1,81.09375,62.96191Z" fill="#ced2d9"/><path d="M187.01709,60.99414h2.35645v.58594h-1.6626v.999h1.40527V63.165h-1.40527v1.15527h1.72265v.58594h-2.4165Z" fill="#ffa861"/><path d="M190.17529,61.96875h.56836l.04785.39551h.02393a1.3625,1.3625,0,0,1,.96289-.4668c.62793,0,.90332.42481.90332,1.166v1.84277h-.688V63.15332c0-.48437-.1372-.66406-.46045-.66406a.93075.93075,0,0,0-.66992.36523v2.05176h-.688Z" fill="#ffa861"/><path d="M193.16016,61.96875h.6997l.4668,1.52539c.07764.28711.16748.58691.24512.88574h.02392c.084-.29883.16748-.59863.251-.88574l.4668-1.52539h.66406l-.999,2.9375h-.79541Z" fill="#ffa861"/><path d="M196.2583,63.44043a1.42908,1.42908,0,0,1,1.35205-1.543c.79541,0,1.21387.57422,1.21387,1.39356a1.59041,1.59041,0,0,1-.02979.335h-1.86621a.84083.84083,0,0,0,.86768.81933,1.22528,1.22528,0,0,0,.68164-.21484l.2334.43066a1.85263,1.85263,0,0,1-1.00489.31641A1.41636,1.41636,0,0,1,196.2583,63.44043Zm1.96826-.28125c0-.4541-.19775-.72949-.59863-.72949a.73739.73739,0,0,0-.70557.72949Z" fill="#ffa861"/><path d="M199.48242,64.15234V60.68359h.688v3.50489c0,.167.07764.22754.14941.22754a.39065.39065,0,0,0,.10791-.0127l.08985.51465a.93786.93786,0,0,1-.36524.05957C199.66211,64.97754,199.48242,64.66113,199.48242,64.15234Z" fill="#ffa861"/><path d="M200.91211,63.44043a1.40314,1.40314,0,1,1,1.39355,1.53711A1.42086,1.42086,0,0,1,200.91211,63.44043Zm2.08789,0c0-.5918-.26367-.98047-.69434-.98047s-.6875.38867-.6875.98047c0,.58594.25684.97559.6875.97559S203,64.02637,203,63.44043Z" fill="#ffa861"/><path d="M204.38721,61.96875h.56836l.04785.31152h.02392a1.43442,1.43442,0,0,1,.88526-.38281c.73,0,1.15429.58594,1.15429,1.49512,0,1.00488-.604,1.585-1.25585,1.585a1.18847,1.18847,0,0,1-.75391-.32227l.01807.49024v.9209h-.688Zm1.96826,1.42969c0-.58594-.19141-.93262-.63428-.93262a.93737.93737,0,0,0-.646.3291v1.36914a.92776.92776,0,0,0,.59228.24512C206.05615,64.40918,206.35547,64.0625,206.35547,63.39844Z" fill="#ffa861"/><path d="M207.56934,63.44043a1.42908,1.42908,0,0,1,1.352-1.543c.79541,0,1.21435.57422,1.21435,1.39356a1.58522,1.58522,0,0,1-.03027.335h-1.86621a.8407.8407,0,0,0,.86719.81933,1.22562,1.22562,0,0,0,.68212-.21484l.2334.43066a1.85259,1.85259,0,0,1-1.00488.31641A1.41635,1.41635,0,0,1,207.56934,63.44043Zm1.96777-.28125c0-.4541-.19727-.72949-.59766-.72949a.73713.73713,0,0,0-.70605.72949Z" fill="#ffa861"/><path d="M212.81543,60.99414h.81348l1.27392,3.91211h-.73l-.30469-1.05859h-1.31591l-.30518,1.05859H211.541Zm-.10156,2.30859h.99853l-.1372-.47851c-.126-.41211-.23926-.86133-.353-1.292h-.02393c-.10791.43652-.22168.87988-.34717,1.292Z" fill="#ffa861"/><path d="M121.55176,165.55371h2.35644v.58594h-1.66259v.999h1.40576v.58594h-1.40576v1.1543h1.72265v.58593h-2.4165Z" fill="#ded66f"/><path d="M124.71,166.52832h.56836l.04785.39453h.02393a1.36537,1.36537,0,0,1,.96289-.4668c.62842,0,.90332.42481.90332,1.167v1.84179h-.688v-1.752c0-.48437-.1377-.66406-.46045-.66406a.92925.92925,0,0,0-.66992.36426v2.05175h-.688Z" fill="#ded66f"/><path d="M127.69482,166.52832h.69971l.4668,1.52539c.07763.28711.16748.58594.24512.88477h.02392c.0835-.29883.16748-.59766.25147-.88477l.4663-1.52539h.66407l-.999,2.93652h-.79541Z" fill="#ded66f"/><path d="M130.793,168a1.43,1.43,0,0,1,1.352-1.54395c.79541,0,1.21436.57422,1.21436,1.39454a1.5988,1.5988,0,0,1-.03028.335h-1.86621a.84135.84135,0,0,0,.86719.81933,1.22663,1.22663,0,0,0,.68213-.21582l.2334.43067a1.8535,1.8535,0,0,1-1.00489.31738A1.41636,1.41636,0,0,1,130.793,168Zm1.96777-.28125c0-.45508-.19726-.72949-.59765-.72949a.73713.73713,0,0,0-.70606.72949Z" fill="#ded66f"/><path d="M134.01709,168.71191v-3.46972h.688v3.50488c0,.168.07763.22754.14941.22754a.4219.4219,0,0,0,.10791-.01172l.08936.51465a.95177.95177,0,0,1-.36475.05957C134.19678,169.53711,134.01709,169.21973,134.01709,168.71191Z" fill="#ded66f"/><path d="M135.44678,168a1.40314,1.40314,0,1,1,1.394,1.53711A1.42125,1.42125,0,0,1,135.44678,168Zm2.0874,0c0-.59277-.2627-.98145-.69336-.98145s-.688.38868-.688.98145c0,.58594.25733.97461.688.97461S137.53418,168.58594,137.53418,168Z" fill="#ded66f"/><path d="M138.92188,166.52832h.56835l.04786.31055h.02392a1.43321,1.43321,0,0,1,.88526-.38282c.72949,0,1.15429.58692,1.15429,1.4961,0,1.00488-.604,1.585-1.25586,1.585a1.19,1.19,0,0,1-.7539-.32324l.01806.49023v.92188h-.688Zm1.96777,1.42969c0-.58594-.19141-.9336-.63379-.9336a.9405.9405,0,0,0-.646.32911v1.37011a.92683.92683,0,0,0,.59229.24512C140.59082,168.96875,140.88965,168.62207,140.88965,167.958Z" fill="#ded66f"/><path d="M142.104,168a1.43,1.43,0,0,1,1.352-1.54395c.79541,0,1.21387.57422,1.21387,1.39454a1.60478,1.60478,0,0,1-.02978.335h-1.86621a.84147.84147,0,0,0,.86767.81933,1.22627,1.22627,0,0,0,.68164-.21582l.2334.43067a1.85349,1.85349,0,0,1-1.00488.31738A1.41636,1.41636,0,0,1,142.104,168Zm1.96827-.28125c0-.45508-.19776-.72949-.59864-.72949a.73738.73738,0,0,0-.70556.72949Z" fill="#ded66f"/><path d="M146.58447,165.55371h1.25c.80762,0,1.39991.24512,1.39991.96289a.88119.88119,0,0,1-.54444.84863v.02442a.89292.89292,0,0,1,.74756.92676c0,.78418-.64014,1.14843-1.50146,1.14843h-1.35157Zm1.18994,1.61426c.54444,0,.77784-.21485.77784-.54981,0-.38281-.25733-.52636-.76563-.52636h-.5083V167.168Zm.08985,1.75879c.57422,0,.89746-.209.89746-.64551,0-.41309-.311-.59277-.89746-.59277h-.58594v1.23828Z" fill="#ded66f"/><path d="M56.26465,122.60938h2.35644v.58593H56.9585v.999h1.40576v.58593H56.9585v1.1543h1.72265v.58594h-2.4165Z" fill="#ced2d9"/><path d="M59.42285,123.584h.56836l.04785.39454H60.063a1.36533,1.36533,0,0,1,.96289-.4668c.62842,0,.90332.4248.90332,1.167v1.8418h-.688v-1.752c0-.48437-.13769-.66406-.46045-.66406a.92925.92925,0,0,0-.66992.36426v2.05176h-.688Z" fill="#ced2d9"/><path d="M62.40771,123.584h.69971l.4668,1.5254c.07764.2871.16748.58593.24512.88476h.02392c.0835-.29883.16748-.59766.25147-.88476l.46631-1.5254h.66406l-.999,2.93653h-.79541Z" fill="#ced2d9"/><path d="M65.50586,125.05566a1.43,1.43,0,0,1,1.35205-1.54394c.79541,0,1.21436.57422,1.21436,1.39453a1.59873,1.59873,0,0,1-.03028.335H66.17578a.84136.84136,0,0,0,.86719.81934,1.22671,1.22671,0,0,0,.68213-.21582l.2334.43066a1.85342,1.85342,0,0,1-1.00489.31738A1.41636,1.41636,0,0,1,65.50586,125.05566Zm1.96777-.28125c0-.45507-.19726-.72949-.59765-.72949a.73714.73714,0,0,0-.70606.72949Z" fill="#ced2d9"/><path d="M68.73,125.76758v-3.46973h.688v3.50488c0,.168.07764.22754.14941.22754a.4219.4219,0,0,0,.10791-.01172l.08936.51465a.95177.95177,0,0,1-.36475.05957C68.90967,126.59277,68.73,126.27539,68.73,125.76758Z" fill="#ced2d9"/><path d="M70.15967,125.05566a1.40314,1.40314,0,1,1,1.394,1.53711A1.42125,1.42125,0,0,1,70.15967,125.05566Zm2.0874,0c0-.59277-.26269-.98144-.69336-.98144s-.688.38867-.688.98144c0,.58594.25733.97461.688.97461S72.24707,125.6416,72.24707,125.05566Z" fill="#ced2d9"/><path d="M73.63477,123.584h.56835l.04786.31055h.02392a1.43325,1.43325,0,0,1,.88526-.38281c.72949,0,1.15429.58691,1.15429,1.49609,0,1.00489-.604,1.585-1.25586,1.585a1.18991,1.18991,0,0,1-.7539-.32324l.01806.49024v.92187h-.688Zm1.96777,1.42969c0-.58594-.19141-.93359-.63379-.93359a.94052.94052,0,0,0-.646.3291v1.37012a.92687.92687,0,0,0,.59229.24511C75.30371,126.02441,75.60254,125.67773,75.60254,125.01367Z" fill="#ced2d9"/><path d="M76.81689,125.05566a1.43,1.43,0,0,1,1.35206-1.54394c.79541,0,1.21386.57422,1.21386,1.39453a1.60471,1.60471,0,0,1-.02978.335H77.48682a.84148.84148,0,0,0,.86767.81934,1.22634,1.22634,0,0,0,.68164-.21582l.2334.43066a1.85341,1.85341,0,0,1-1.00488.31738A1.41636,1.41636,0,0,1,76.81689,125.05566Zm1.96827-.28125c0-.45507-.19776-.72949-.59864-.72949a.73739.73739,0,0,0-.70556.72949Z" fill="#ced2d9"/><path d="M81.09375,124.57715a1.8366,1.8366,0,0,1,1.78857-2.04,1.55368,1.55368,0,0,1,1.13038.49609l-.37061.44922a1.02185,1.02185,0,0,0-.7417-.34082c-.64014,0-1.09473.53809-1.09473,1.417,0,.89161.41895,1.42969,1.07666,1.42969a1.11348,1.11348,0,0,0,.83741-.40039l.37109.43652a1.57714,1.57714,0,0,1-1.23242.56836A1.78879,1.78879,0,0,1,81.09375,124.57715Z" fill="#ced2d9"/><path d="M186.90039,122.60938h2.35645v.58593h-1.6626v.999H189v.58593h-1.40576v1.1543h1.72265v.58594h-2.4165Z" fill="#ded66f"/><path d="M190.05859,123.584h.56836l.04785.39454h.02393a1.36533,1.36533,0,0,1,.96289-.4668c.62842,0,.90332.4248.90332,1.167v1.8418h-.688v-1.752c0-.48437-.13769-.66406-.46045-.66406a.92925.92925,0,0,0-.66992.36426v2.05176h-.688Z" fill="#ded66f"/><path d="M193.04346,123.584h.6997l.4668,1.5254c.07764.2871.16748.58593.24512.88476h.02392c.0835-.29883.16748-.59766.25147-.88476l.46631-1.5254h.66406l-.999,2.93653h-.79541Z" fill="#ded66f"/><path d="M196.1416,125.05566a1.43,1.43,0,0,1,1.352-1.54394c.79541,0,1.21436.57422,1.21436,1.39453a1.59873,1.59873,0,0,1-.03028.335h-1.86621a.84136.84136,0,0,0,.86719.81934,1.22669,1.22669,0,0,0,.68213-.21582l.2334.43066a1.85341,1.85341,0,0,1-1.00488.31738A1.41636,1.41636,0,0,1,196.1416,125.05566Zm1.96778-.28125c0-.45507-.19727-.72949-.59766-.72949a.73714.73714,0,0,0-.70606.72949Z" fill="#ded66f"/><path d="M199.36572,125.76758v-3.46973h.688v3.50488c0,.168.07764.22754.14941.22754a.422.422,0,0,0,.10792-.01172l.08935.51465a.95173.95173,0,0,1-.36475.05957C199.54541,126.59277,199.36572,126.27539,199.36572,125.76758Z" fill="#ded66f"/><path d="M200.79541,125.05566a1.40314,1.40314,0,1,1,1.394,1.53711A1.42125,1.42125,0,0,1,200.79541,125.05566Zm2.0874,0c0-.59277-.26269-.98144-.69336-.98144s-.688.38867-.688.98144c0,.58594.25733.97461.688.97461S202.88281,125.6416,202.88281,125.05566Z" fill="#ded66f"/><path d="M204.27051,123.584h.56836l.04785.31055h.02392a1.43328,1.43328,0,0,1,.88526-.38281c.72949,0,1.1543.58691,1.1543,1.49609,0,1.00489-.604,1.585-1.25586,1.585a1.18992,1.18992,0,0,1-.75391-.32324l.01807.49024v.92187h-.688Zm1.96777,1.42969c0-.58594-.1914-.93359-.63379-.93359a.9405.9405,0,0,0-.646.3291v1.37012a.92682.92682,0,0,0,.59228.24511C205.93945,126.02441,206.23828,125.67773,206.23828,125.01367Z" fill="#ded66f"/><path d="M207.45264,125.05566a1.43,1.43,0,0,1,1.352-1.54394c.79541,0,1.21386.57422,1.21386,1.39453a1.604,1.604,0,0,1-.02978.335h-1.86621a.84148.84148,0,0,0,.86767.81934,1.2264,1.2264,0,0,0,.68165-.21582l.23339.43066a1.85338,1.85338,0,0,1-1.00488.31738A1.41635,1.41635,0,0,1,207.45264,125.05566Zm1.96826-.28125c0-.45507-.19776-.72949-.59863-.72949a.7374.7374,0,0,0-.70557.72949Z" fill="#ded66f"/><path d="M211.93311,122.60938h1.25c.80761,0,1.3999.24511,1.3999.96289a.8812.8812,0,0,1-.54444.84863v.02441a.89293.89293,0,0,1,.74756.92676c0,.78418-.64013,1.14844-1.50146,1.14844h-1.35156Zm1.18994,1.61425c.54443,0,.77783-.21484.77783-.5498,0-.38281-.25733-.52637-.76563-.52637h-.5083v1.07617Zm.08984,1.75879c.57422,0,.89746-.209.89746-.64551,0-.41308-.311-.59277-.89746-.59277H212.627v1.23828Z" fill="#ded66f"/></svg>