<svg xmlns="http://www.w3.org/2000/svg" viewBox="0 0 1310 470"><title>fbmix</title><rect x="0.5" y="1.33398" width="1309" height="469" rx="3.5" ry="3.5" fill="#141414"/><path d="M1306,1.83374a3.00352,3.00352,0,0,1,3,3v462a3.00351,3.00351,0,0,1-3,3H4a3.00335,3.00335,0,0,1-3-3v-462a3.00336,3.00336,0,0,1,3-3H1306m0-1H4a4.00008,4.00008,0,0,0-4,4v462a4.00008,4.00008,0,0,0,4,4H1306a3.99992,3.99992,0,0,0,4-4v-462a3.99992,3.99992,0,0,0-4-4Z" fill="#666"/><path d="M916,89.53394h168a5.3,5.3,0,0,1,5.3,5.3V142.8335a5.3,5.3,0,0,1-5.3,5.3H915.99976a5.2998,5.2998,0,0,1-5.2998-5.2998V94.834a5.3,5.3,0,0,1,5.3-5.3Z" fill="#31333d"/><path d="M1084,90.23377a4.60533,4.60533,0,0,1,4.6001,4.6v48a4.60532,4.60532,0,0,1-4.6001,4.6H916a4.60532,4.60532,0,0,1-4.6001-4.6v-48a4.60533,4.60533,0,0,1,4.6001-4.6h168m0-1.4H916a6.01761,6.01761,0,0,0-6,6v48a6.01761,6.01761,0,0,0,6,6h168a6.01761,6.01761,0,0,0,6-6v-48a6.01761,6.01761,0,0,0-6-6Z" fill="#e9a460"/><path d="M146,249.53394h68.00024a5.2998,5.2998,0,0,1,5.2998,5.2998V272.8335a5.3,5.3,0,0,1-5.3,5.3H145.99976a5.2998,5.2998,0,0,1-5.2998-5.2998V254.834A5.3,5.3,0,0,1,146,249.53394Z" fill="#31333d"/><path d="M214,250.23377a4.60517,4.60517,0,0,1,4.6001,4.6v18a4.60519,4.60519,0,0,1-4.6001,4.6H146a4.60519,4.60519,0,0,1-4.6001-4.6v-18a4.60517,4.60517,0,0,1,4.6001-4.6h68m0-1.4H146a6.01778,6.01778,0,0,0-6,6v18a6.01778,6.01778,0,0,0,6,6h68a6.01778,6.01778,0,0,0,6-6v-18a6.01778,6.01778,0,0,0-6-6Z" fill="#e9a460"/><path d="M326,249.53394H434.00024a5.2998,5.2998,0,0,1,5.2998,5.2998V272.8335a5.3,5.3,0,0,1-5.3,5.3H325.99976a5.2998,5.2998,0,0,1-5.2998-5.2998V254.834A5.3,5.3,0,0,1,326,249.53394Z" fill="#31333d"/><path d="M434,250.23377a4.60517,4.60517,0,0,1,4.6001,4.6v18a4.60519,4.60519,0,0,1-4.6001,4.6H326a4.60519,4.60519,0,0,1-4.6001-4.6v-18a4.60517,4.60517,0,0,1,4.6001-4.6H434m0-1.4H326a6.01778,6.01778,0,0,0-6,6v18a6.01778,6.01778,0,0,0,6,6H434a6.01778,6.01778,0,0,0,6-6v-18a6.01778,6.01778,0,0,0-6-6Z" fill="#e9a460"/><rect x="540.69995" y="249.53394" width="118.6001" height="28.59961" rx="5.30005" ry="5.30005" fill="#31333d"/><path d="M654,250.23377a4.60517,4.60517,0,0,1,4.6001,4.6v18a4.60519,4.60519,0,0,1-4.6001,4.6H546a4.60519,4.60519,0,0,1-4.6001-4.6v-18a4.60517,4.60517,0,0,1,4.6001-4.6H654m0-1.4H546a6.01778,6.01778,0,0,0-6,6v18a6.01778,6.01778,0,0,0,6,6H654a6.01778,6.01778,0,0,0,6-6v-18a6.01778,6.01778,0,0,0-6-6Z" fill="#e9a460"/><path d="M766,249.53394H874.00024a5.2998,5.2998,0,0,1,5.2998,5.2998v18a5.2998,5.2998,0,0,1-5.2998,5.2998H766a5.3,5.3,0,0,1-5.3-5.3V254.834a5.3,5.3,0,0,1,5.3-5.3Z" fill="#31333d"/><path d="M874,250.23377a4.60517,4.60517,0,0,1,4.6001,4.6v18a4.60519,4.60519,0,0,1-4.6001,4.6H766a4.60519,4.60519,0,0,1-4.6001-4.6v-18a4.60517,4.60517,0,0,1,4.6001-4.6H874m0-1.4H766a6.01778,6.01778,0,0,0-6,6v18a6.01778,6.01778,0,0,0,6,6H874a6.01778,6.01778,0,0,0,6-6v-18a6.01778,6.01778,0,0,0-6-6Z" fill="#e9a460"/><path d="M686,359.53394h68.00024a5.2998,5.2998,0,0,1,5.2998,5.2998V382.8335a5.3,5.3,0,0,1-5.3,5.3H685.99976a5.2998,5.2998,0,0,1-5.2998-5.2998V364.834A5.3,5.3,0,0,1,686,359.53394Z" fill="#31333d"/><path d="M754,360.23374a4.6052,4.6052,0,0,1,4.6001,4.6v18a4.60519,4.60519,0,0,1-4.6001,4.6H686a4.60519,4.60519,0,0,1-4.6001-4.6v-18a4.6052,4.6052,0,0,1,4.6001-4.6h68m0-1.4H686a6.01778,6.01778,0,0,0-6,6v18a6.01778,6.01778,0,0,0,6,6h68a6.01778,6.01778,0,0,0,6-6v-18a6.01778,6.01778,0,0,0-6-6Z" fill="#e9a460"/><rect x="878.17993" y="359.53394" width="78.6001" height="28.59961" rx="5.30005" ry="5.30005" fill="#31333d"/><path d="M951.48,360.23374a4.60535,4.60535,0,0,1,4.6001,4.6v18a4.60534,4.60534,0,0,1-4.6001,4.6h-68a4.60534,4.60534,0,0,1-4.6001-4.6v-18a4.60535,4.60535,0,0,1,4.6001-4.6h68m0-1.4h-68a6.01761,6.01761,0,0,0-6,6v18a6.01761,6.01761,0,0,0,6,6h68a6.01761,6.01761,0,0,0,6-6v-18a6.01761,6.01761,0,0,0-6-6Z" fill="#e9a460"/><path d="M200.80347,434.58691v-5.39355h1.16259v5.4209c0,2.21386.93848,2.91406,2.14307,2.91406,1.21875,0,2.17114-.7002,2.17114-2.91406v-5.4209h1.12061v5.39355c0,2.95508-1.4148,3.96387-3.29175,3.96387S200.80347,437.542,200.80347,434.58691Z" fill="#979797"/><path d="M208.95068,437.6123l.57447-.7705a3.06039,3.06039,0,0,0,2.00317.8125c.89648,0,1.34473-.47657,1.34473-1.06446,0-.70019-.8125-1.00879-1.55493-1.28906-.96656-.34961-2.031-.8125-2.031-1.96094,0-1.09277.86841-1.93261,2.33911-1.93261a3.39955,3.39955,0,0,1,2.11524.76953l-.54639.72851a2.53023,2.53023,0,0,0-1.55493-.60156c-.85425,0-1.24659.46191-1.24659.98047,0,.64355.74244.88184,1.51294,1.17676.98047.36328,2.073.76953,2.073,2.05859,0,1.10645-.88232,2.03125-2.49341,2.03125A4.09855,4.09855,0,0,1,208.95068,437.6123Z" fill="#979797"/><path d="M215.06885,434.99316a3.2829,3.2829,0,0,1,3.05371-3.58593c1.73682,0,2.71753,1.24609,2.71753,3.19336a4.475,4.475,0,0,1-.042.6582h-4.59449a2.25735,2.25735,0,0,0,2.269,2.36719,3.07572,3.07572,0,0,0,1.69506-.53223l.40625.75684a4.05677,4.05677,0,0,1-2.24121.70019A3.25547,3.25547,0,0,1,215.06885,434.99316Zm4.76269-.56054c0-1.373-.61645-2.11524-1.68091-2.11524a2.10273,2.10273,0,0,0-1.96118,2.11524Z" fill="#979797"/><path d="M222.51685,431.5752h.95239l.09814,1.23242h.042a2.32785,2.32785,0,0,1,1.9331-1.40039,1.69611,1.69611,0,0,1,.72827.13965l-.22412,1.00878a1.89843,1.89843,0,0,0-.6582-.1123c-.57447,0-1.26074.41992-1.7229,1.56934v4.37011h-1.14868Z" fill="#979797"/><path d="M230.28662,429.19336h1.1626v9.18945h-1.1626Z" fill="#979797"/><path d="M233.85645,431.5752h.95239l.09814.98046h.042a3.20792,3.20792,0,0,1,2.28321-1.14843c1.42871,0,2.07324.92382,2.07324,2.66113v4.31445h-1.14868v-4.16015c0-1.27539-.39234-1.82129-1.28882-1.82129-.7002,0-1.17651.36425-1.863,1.05078v4.93066h-1.14843Z" fill="#979797"/><path d="M241.71045,436.28125v-3.76758H240.7019v-.86914l1.0647-.06933.13989-1.90528h.96656v1.90528h1.835v.93847h-1.835v3.78223c0,.83984.26611,1.3164,1.05053,1.3164a2.47527,2.47527,0,0,0,.77051-.18261l.22412.86914a4.20609,4.20609,0,0,1-1.26074.25195C242.20068,438.55078,241.71045,437.626,241.71045,436.28125Z" fill="#979797"/><path d="M245.54614,434.99316a3.2829,3.2829,0,0,1,3.05371-3.58593c1.73706,0,2.71753,1.24609,2.71753,3.19336a4.475,4.475,0,0,1-.042.6582h-4.59448a2.25748,2.25748,0,0,0,2.269,2.36719,3.07578,3.07578,0,0,0,1.69507-.53223l.40625.75684a4.0568,4.0568,0,0,1-2.24121.70019A3.25547,3.25547,0,0,1,245.54614,434.99316Zm4.7627-.56054c0-1.373-.61646-2.11524-1.68091-2.11524a2.10272,2.10272,0,0,0-1.96118,2.11524Z" fill="#979797"/><path d="M252.99414,431.5752h.95239l.09815,1.23242h.042a2.32788,2.32788,0,0,1,1.93311-1.40039,1.69614,1.69614,0,0,1,.72827.13965l-.22412,1.00878a1.89853,1.89853,0,0,0-.65821-.1123c-.57446,0-1.26074.41992-1.72314,1.56934v4.37011h-1.14844Z" fill="#979797"/><path d="M258.0481,432.51367h-.92456v-.86914l.92456-.06933v-1.07911c0-1.38671.63037-2.25488,1.989-2.25488a3.08765,3.08765,0,0,1,1.13477.22363l-.2522.88282a1.90875,1.90875,0,0,0-.77051-.168c-.64429,0-.95239.44824-.95239,1.3164v1.07911h1.44262v.93847h-1.44262v5.86914H258.0481Z" fill="#979797"/><path d="M261.23975,436.61719c0-1.48438,1.2749-2.22657,4.17431-2.54883,0-.86816-.28-1.709-1.40063-1.709a3.702,3.702,0,0,0-2.03125.72851l-.44824-.79883a5.053,5.053,0,0,1,2.67553-.88183c1.667,0,2.36719,1.10644,2.36719,2.80078v4.1748h-.95239l-.09815-.8125h-.042a3.63153,3.63153,0,0,1-2.25513.98047A1.85291,1.85291,0,0,1,261.23975,436.61719Zm4.17431.09863v-1.8916c-2.269.28027-3.05371.84082-3.05371,1.709,0,.77051.53247,1.09278,1.20484,1.09278A2.76048,2.76048,0,0,0,265.41406,436.71582Z" fill="#979797"/><path d="M268.21167,434.99316a3.29708,3.29708,0,0,1,3.27783-3.58593,2.82749,2.82749,0,0,1,1.989.79785l-.58838.75683a1.99417,1.99417,0,0,0-1.35865-.60253c-1.23266,0-2.12915,1.06445-2.12915,2.63378,0,1.55469.8545,2.60547,2.10108,2.60547a2.42086,2.42086,0,0,0,1.59692-.68652l.5044.77051a3.32327,3.32327,0,0,1-2.19922.86816C269.59839,438.55078,268.21167,437.24805,268.21167,434.99316Z" fill="#979797"/><path d="M274.30151,434.99316a3.2829,3.2829,0,0,1,3.05371-3.58593c1.73707,0,2.71753,1.24609,2.71753,3.19336a4.475,4.475,0,0,1-.042.6582h-4.59448a2.25748,2.25748,0,0,0,2.269,2.36719,3.07575,3.07575,0,0,0,1.69507-.53223l.40625.75684a4.0568,4.0568,0,0,1-2.24121.70019A3.25547,3.25547,0,0,1,274.30151,434.99316Zm4.7627-.56054c0-1.373-.61646-2.11524-1.68091-2.11524a2.10272,2.10272,0,0,0-1.96118,2.11524Z" fill="#979797"/><path d="M284.12939,433.78809c0-2.95606,1.73707-4.7627,4.07642-4.7627a3.35186,3.35186,0,0,1,2.52124,1.13477l-.63037.75683a2.51091,2.51091,0,0,0-1.87695-.86914c-1.73682,0-2.8855,1.42871-2.8855,3.71192,0,2.31152,1.10644,3.76855,2.8435,3.76855a2.77278,2.77278,0,0,0,2.12915-1.03711l.64429.72852a3.55423,3.55423,0,0,1-2.81543,1.331C285.83838,438.55078,284.12939,436.78613,284.12939,433.78809Z" fill="#979797"/><path d="M292.03931,434.99316c0-2.2832,1.48486-3.58593,3.15185-3.58593,1.66675,0,3.15161,1.30273,3.15161,3.58593a3.17488,3.17488,0,1,1-6.30346,0Zm5.11279,0c0-1.56933-.78442-2.63378-1.96094-2.63378-1.16284,0-1.96118,1.06445-1.96118,2.63378,0,1.55469.79834,2.60547,1.96118,2.60547C296.36768,437.59863,297.1521,436.54785,297.1521,434.99316Z" fill="#979797"/><path d="M300.13159,431.5752h.95239l.09815.98046h.042a3.20792,3.20792,0,0,1,2.2832-1.14843c1.42872,0,2.07325.92382,2.07325,2.66113v4.31445h-1.14869v-4.16015c0-1.27539-.39233-1.82129-1.28881-1.82129-.7002,0-1.17652.36425-1.8628,1.05078v4.93066h-1.14868Z" fill="#979797"/><path d="M307.9856,436.28125v-3.76758h-1.00855v-.86914l1.06445-.06933.14014-1.90528h.96655v1.90528h1.835v.93847h-1.835v3.78223c0,.83984.26612,1.3164,1.05054,1.3164a2.47534,2.47534,0,0,0,.77051-.18261l.22412.86914a4.20615,4.20615,0,0,1-1.26074.25195C308.47583,438.55078,307.9856,437.626,307.9856,436.28125Z" fill="#979797"/><path d="M312.52148,431.5752h.9524l.09814,1.23242h.042a2.32788,2.32788,0,0,1,1.93311-1.40039,1.69611,1.69611,0,0,1,.72827.13965l-.22412,1.00878a1.89843,1.89843,0,0,0-.6582-.1123c-.57447,0-1.26075.41992-1.72315,1.56934v4.37011h-1.14844Z" fill="#979797"/><path d="M316.73486,434.99316c0-2.2832,1.48487-3.58593,3.15186-3.58593,1.66675,0,3.15161,1.30273,3.15161,3.58593a3.17489,3.17489,0,1,1-6.30347,0Zm5.1128,0c0-1.56933-.78443-2.63378-1.96094-2.63378-1.1626,0-1.96118,1.06445-1.96118,2.63378,0,1.55469.79858,2.60547,1.96118,2.60547C321.06323,437.59863,321.84766,436.54785,321.84766,434.99316Z" fill="#979797"/><path d="M324.82715,437.00977v-8.60059h1.14844v8.68457c0,.36426.15429.50488.32226.50488a.9559.9559,0,0,0,.2522-.02832l.154.86817a1.5414,1.5414,0,0,1-.65845.1123C325.17725,438.55078,324.82715,438.00391,324.82715,437.00977Z" fill="#979797"/><path d="M1150,139.17685a1.032,1.032,0,1,1,1.03491-1.032A1.03347,1.03347,0,0,1,1150,139.17685Z" fill="#979797"/><path d="M1150,142.89194a1.032,1.032,0,1,1,1.03491-1.03192A1.03342,1.03342,0,0,1,1150,142.89194Z" fill="#979797"/><circle cx="1150" cy="145.5751" r="1.03491" fill="#979797"/><circle cx="1150" cy="149.29019" r="1.03491" fill="#979797"/><path d="M1150,154.03726a1.032,1.032,0,1,1,1.03491-1.032A1.03347,1.03347,0,0,1,1150,154.03726Z" fill="#979797"/><circle cx="1150" cy="156.72043" r="1.03491" fill="#979797"/><circle cx="1150" cy="160.43552" r="1.03491" fill="#979797"/><circle cx="1150" cy="164.1506" r="1.03491" fill="#979797"/><polygon points="1143.865 140.432 1144.964 141.455 1149.999 136.037 1155.035 141.455 1156.133 140.432 1149.999 133.835 1143.865 140.432" fill="#979797"/><path d="M935,83.39564a1.059,1.059,0,1,1-1.03516,1.05871A1.047,1.047,0,0,1,935,83.39564Z" fill="#cacaca"/><path d="M935,79.58436a1.059,1.059,0,1,1-1.03516,1.05865A1.047,1.047,0,0,1,935,79.58436Z" fill="#cacaca"/><path d="M935,75.773a1.059,1.059,0,1,1-1.03516,1.05871A1.047,1.047,0,0,1,935,75.773Z" fill="#cacaca"/><path d="M935,71.96168a1.059,1.059,0,1,1-1.03516,1.05871A1.047,1.047,0,0,1,935,71.96168Z" fill="#cacaca"/><path d="M935,68.15034a1.059,1.059,0,1,1-1.03516,1.05871A1.047,1.047,0,0,1,935,68.15034Z" fill="#cacaca"/><path d="M935,64.339a1.059,1.059,0,1,1-1.03516,1.05871A1.047,1.047,0,0,1,935,64.339Z" fill="#cacaca"/><path d="M935,60.52766a1.059,1.059,0,1,1-1.03516,1.05871A1.047,1.047,0,0,1,935,60.52766Z" fill="#cacaca"/><polygon points="941.135 82.237 940.036 81.214 935.001 86.631 929.965 81.214 928.867 82.237 935.001 88.834 941.135 82.237" fill="#cacaca"/><path d="M1000,83.39564a1.059,1.059,0,1,1-1.03516,1.05871A1.047,1.047,0,0,1,1000,83.39564Z" fill="#cacaca"/><path d="M1000,79.58436a1.059,1.059,0,1,1-1.03516,1.05865A1.047,1.047,0,0,1,1000,79.58436Z" fill="#cacaca"/><path d="M1000,75.773a1.059,1.059,0,1,1-1.03516,1.05871A1.047,1.047,0,0,1,1000,75.773Z" fill="#cacaca"/><path d="M1000,71.96168a1.059,1.059,0,1,1-1.03516,1.05871A1.047,1.047,0,0,1,1000,71.96168Z" fill="#cacaca"/><path d="M1000,68.15034a1.059,1.059,0,1,1-1.03516,1.05871A1.047,1.047,0,0,1,1000,68.15034Z" fill="#cacaca"/><path d="M1000,64.339a1.059,1.059,0,1,1-1.03516,1.05871A1.047,1.047,0,0,1,1000,64.339Z" fill="#cacaca"/><path d="M1000,60.52766a1.059,1.059,0,1,1-1.03516,1.05871A1.047,1.047,0,0,1,1000,60.52766Z" fill="#cacaca"/><polygon points="1006.135 82.237 1005.036 81.214 1000.001 86.631 994.965 81.214 993.867 82.237 1000.001 88.834 1006.135 82.237" fill="#cacaca"/><path d="M1065,83.39564a1.059,1.059,0,1,1-1.03516,1.05871A1.047,1.047,0,0,1,1065,83.39564Z" fill="#cacaca"/><path d="M1065,79.58436a1.059,1.059,0,1,1-1.03516,1.05865A1.047,1.047,0,0,1,1065,79.58436Z" fill="#cacaca"/><path d="M1065,75.773a1.059,1.059,0,1,1-1.03516,1.05871A1.047,1.047,0,0,1,1065,75.773Z" fill="#cacaca"/><path d="M1065,71.96168a1.059,1.059,0,1,1-1.03516,1.05871A1.047,1.047,0,0,1,1065,71.96168Z" fill="#cacaca"/><path d="M1065,68.15034a1.059,1.059,0,1,1-1.03516,1.05871A1.047,1.047,0,0,1,1065,68.15034Z" fill="#cacaca"/><path d="M1065,64.339a1.059,1.059,0,1,1-1.03516,1.05871A1.047,1.047,0,0,1,1065,64.339Z" fill="#cacaca"/><path d="M1065,60.52766a1.059,1.059,0,1,1-1.03516,1.05871A1.047,1.047,0,0,1,1065,60.52766Z" fill="#cacaca"/><polygon points="1071.135 82.237 1070.036 81.214 1065.001 86.631 1059.965 81.214 1058.867 82.237 1065.001 88.834 1071.135 82.237" fill="#cacaca"/><ellipse cx="199.26709" cy="198.83363" rx="1.01563" ry="1.03497" fill="#cacaca"/><ellipse cx="202.92334" cy="198.83363" rx="1.01563" ry="1.03497" fill="#cacaca"/><path d="M207.59473,198.83363a1.01557,1.01557,0,1,1-1.01563-1.035A1.02536,1.02536,0,0,1,207.59473,198.83363Z" fill="#cacaca"/><ellipse cx="210.23535" cy="198.83363" rx="1.01563" ry="1.03497" fill="#cacaca"/><ellipse cx="213.8916" cy="198.83363" rx="1.01563" ry="1.03497" fill="#cacaca"/><ellipse cx="217.54736" cy="198.83363" rx="1.01563" ry="1.03497" fill="#cacaca"/><ellipse cx="221.20361" cy="198.83363" rx="1.01563" ry="1.03497" fill="#cacaca"/><path d="M225.875,198.83363a1.01557,1.01557,0,1,1-1.01562-1.035A1.02536,1.02536,0,0,1,225.875,198.83363Z" fill="#cacaca"/><polygon points="201.597 204.968 202.62 203.87 197.203 198.835 202.62 193.799 201.597 192.7 195 198.835 201.597 204.968" fill="#cacaca"/><ellipse cx="399.26709" cy="198.83363" rx="1.01563" ry="1.03497" fill="#cacaca"/><ellipse cx="402.92334" cy="198.83363" rx="1.01563" ry="1.03497" fill="#cacaca"/><path d="M407.59473,198.83363a1.01557,1.01557,0,1,1-1.01563-1.035A1.02536,1.02536,0,0,1,407.59473,198.83363Z" fill="#cacaca"/><ellipse cx="410.23535" cy="198.83363" rx="1.01563" ry="1.03497" fill="#cacaca"/><ellipse cx="413.8916" cy="198.83363" rx="1.01563" ry="1.03497" fill="#cacaca"/><ellipse cx="417.54736" cy="198.83363" rx="1.01563" ry="1.03497" fill="#cacaca"/><ellipse cx="421.20361" cy="198.83363" rx="1.01563" ry="1.03497" fill="#cacaca"/><path d="M425.875,198.83363a1.01557,1.01557,0,1,1-1.01562-1.035A1.02536,1.02536,0,0,1,425.875,198.83363Z" fill="#cacaca"/><polygon points="401.597 204.968 402.62 203.87 397.203 198.835 402.62 193.799 401.597 192.7 395 198.835 401.597 204.968" fill="#cacaca"/><ellipse cx="619.26709" cy="198.83363" rx="1.01563" ry="1.03497" fill="#cacaca"/><ellipse cx="622.92334" cy="198.83363" rx="1.01563" ry="1.03497" fill="#cacaca"/><path d="M627.59473,198.83363a1.01557,1.01557,0,1,1-1.01563-1.035A1.02536,1.02536,0,0,1,627.59473,198.83363Z" fill="#cacaca"/><ellipse cx="630.23535" cy="198.83363" rx="1.01563" ry="1.03497" fill="#cacaca"/><ellipse cx="633.8916" cy="198.83363" rx="1.01563" ry="1.03497" fill="#cacaca"/><ellipse cx="637.54736" cy="198.83363" rx="1.01563" ry="1.03497" fill="#cacaca"/><ellipse cx="641.20361" cy="198.83363" rx="1.01563" ry="1.03497" fill="#cacaca"/><path d="M645.875,198.83363a1.01557,1.01557,0,1,1-1.01562-1.035A1.02536,1.02536,0,0,1,645.875,198.83363Z" fill="#cacaca"/><polygon points="621.597 204.968 622.62 203.87 617.203 198.835 622.62 193.799 621.597 192.7 615 198.835 621.597 204.968" fill="#cacaca"/><ellipse cx="839.26709" cy="198.83363" rx="1.01563" ry="1.03497" fill="#cacaca"/><ellipse cx="842.92334" cy="198.83363" rx="1.01563" ry="1.03497" fill="#cacaca"/><path d="M847.59473,198.83363a1.01557,1.01557,0,1,1-1.01563-1.035A1.02536,1.02536,0,0,1,847.59473,198.83363Z" fill="#cacaca"/><ellipse cx="850.23535" cy="198.83363" rx="1.01563" ry="1.03497" fill="#cacaca"/><ellipse cx="853.8916" cy="198.83363" rx="1.01563" ry="1.03497" fill="#cacaca"/><ellipse cx="857.54736" cy="198.83363" rx="1.01563" ry="1.03497" fill="#cacaca"/><ellipse cx="861.20361" cy="198.83363" rx="1.01563" ry="1.03497" fill="#cacaca"/><path d="M865.875,198.83363a1.01557,1.01557,0,1,1-1.01562-1.035A1.02536,1.02536,0,0,1,865.875,198.83363Z" fill="#cacaca"/><polygon points="841.597 204.968 842.62 203.87 837.203 198.835 842.62 193.799 841.597 192.7 835 198.835 841.597 204.968" fill="#cacaca"/><line x1="1188.37329" y1="118.83375" x2="1165" y2="118.83375" fill="none" stroke="#e9a460" stroke-width="1.5"/><polygon points="1183.403 112.699 1182.38 113.798 1187.798 118.832 1182.38 123.868 1183.403 124.967 1190 118.832 1183.403 112.699" fill="#e9a460"/><line x1="1133.37329" y1="118.83375" x2="1090" y2="118.83375" fill="none" stroke="#e9a460" stroke-width="1.5"/><polygon points="1128.403 112.699 1127.38 113.798 1132.798 118.832 1127.38 123.868 1128.403 124.967 1135 118.832 1128.403 112.699" fill="#e9a460"/><line x1="908.37329" y1="118.83375" x2="160" y2="118.83375" fill="none" stroke="#e9a460" stroke-width="1.5"/><polygon points="903.403 112.699 902.38 113.798 907.798 118.832 902.38 123.868 903.403 124.967 910 118.832 903.403 112.699" fill="#e9a460"/><polyline points="758.373 262.834 740 262.834 740 336.834 720 336.834 720 358.834" fill="none" stroke="#e9a460" stroke-width="1.5"/><polygon points="753.403 256.699 752.38 257.798 757.797 262.832 752.38 267.868 753.403 268.967 760 262.832 753.403 256.699" fill="#e9a460"/><polyline points="881.627 262.834 900 262.834 900 336.834 920 336.834 920 358.834" fill="none" stroke="#e9a460" stroke-width="1.5"/><polygon points="886.597 268.969 887.62 267.87 882.202 262.835 887.62 257.799 886.597 256.7 880 262.835 886.597 268.969" fill="#e9a460"/><polyline points="138.373 263.834 120 263.834 120 298.834" fill="none" stroke="#e9a460" stroke-width="1.5"/><polygon points="133.403 257.699 132.38 258.798 137.797 263.832 132.38 268.868 133.403 269.967 140 263.832 133.403 257.699" fill="#e9a460"/><polyline points="221.627 263.834 240 263.834 240 298.834" fill="none" stroke="#e9a460" stroke-width="1.5"/><polygon points="226.597 269.969 227.62 268.87 222.203 263.835 227.62 258.799 226.597 257.7 220 263.835 226.597 269.969" fill="#e9a460"/><polyline points="678.374 373.834 660 373.834 660 413.834" fill="none" stroke="#e9a460" stroke-width="1.5"/><polygon points="673.404 367.699 672.381 368.798 677.798 373.832 672.381 378.868 673.404 379.967 680.001 373.832 673.404 367.699" fill="#e9a460"/><polyline points="761.627 373.834 780 373.834 780 413.834" fill="none" stroke="#e9a460" stroke-width="1.5"/><polygon points="766.597 379.969 767.62 378.87 762.203 373.835 767.62 368.799 766.597 367.7 760 373.835 766.597 379.969" fill="#e9a460"/><polyline points="875.854 373.834 857.48 373.834 857.48 413.834" fill="none" stroke="#e9a460" stroke-width="1.5"/><polygon points="870.884 367.699 869.861 368.798 875.279 373.832 869.861 378.868 870.884 379.967 877.481 373.832 870.884 367.699" fill="#e9a460"/><polyline points="959.107 373.834 977.48 373.834 977.48 413.834" fill="none" stroke="#e9a460" stroke-width="1.5"/><polygon points="964.077 379.969 965.1 378.87 959.682 373.835 965.1 368.799 964.077 367.7 957.48 373.835 964.077 379.969" fill="#e9a460"/><line x1="180" y1="215.46052" x2="180" y2="248.83375" fill="none" stroke="#e9a460" stroke-width="1.5"/><polygon points="173.865 220.431 174.964 221.454 179.999 216.036 185.035 221.454 186.133 220.431 179.999 213.834 173.865 220.431" fill="#e9a460"/><polyline points="318.373 263.834 300 263.834 300 298.834" fill="none" stroke="#e9a460" stroke-width="1.5"/><polygon points="313.403 257.699 312.38 258.798 317.797 263.832 312.38 268.868 313.403 269.967 320 263.832 313.403 257.699" fill="#e9a460"/><polyline points="441.627 263.834 460 263.834 460 298.834" fill="none" stroke="#e9a460" stroke-width="1.5"/><polygon points="446.597 269.969 447.62 268.87 442.203 263.835 447.62 258.799 446.597 257.7 440 263.835 446.597 269.969" fill="#e9a460"/><line x1="380" y1="215.46052" x2="380" y2="248.83375" fill="none" stroke="#e9a460" stroke-width="1.5"/><polygon points="373.865 220.431 374.964 221.454 379.999 216.036 385.035 221.454 386.133 220.431 379.999 213.834 373.865 220.431" fill="#e9a460"/><polyline points="538.373 263.834 520 263.834 520 298.834" fill="none" stroke="#e9a460" stroke-width="1.5"/><polygon points="533.403 257.699 532.38 258.798 537.797 263.832 532.38 268.868 533.403 269.967 540 263.832 533.403 257.699" fill="#e9a460"/><polyline points="661.627 263.834 680 263.834 680 298.834" fill="none" stroke="#e9a460" stroke-width="1.5"/><polygon points="666.597 269.969 667.62 268.87 662.203 263.835 667.62 258.799 666.597 257.7 660 263.835 666.597 269.969" fill="#e9a460"/><line x1="600" y1="215.46052" x2="600" y2="248.83375" fill="none" stroke="#e9a460" stroke-width="1.5"/><polygon points="593.865 220.431 594.964 221.454 599.999 216.036 605.035 221.454 606.133 220.431 599.999 213.834 593.865 220.431" fill="#e9a460"/><line x1="820" y1="215.46052" x2="820" y2="248.83375" fill="none" stroke="#e9a460" stroke-width="1.5"/><polygon points="813.865 220.431 814.964 221.454 819.999 216.036 825.035 221.454 826.133 220.431 819.999 213.834 813.865 220.431" fill="#e9a460"/><line x1="180" y1="183.83375" x2="180" y2="118.83375" fill="none" stroke="#e9a460" stroke-width="2"/><line x1="190" y1="128.83375" x2="170" y2="108.83375" fill="none" stroke="#e9a460" stroke-width="2"/><line x1="380" y1="183.83375" x2="380" y2="118.83375" fill="none" stroke="#e9a460" stroke-width="2"/><line x1="390" y1="128.83375" x2="370" y2="108.83375" fill="none" stroke="#e9a460" stroke-width="2"/><line x1="600" y1="183.83375" x2="600" y2="118.83375" fill="none" stroke="#e9a460" stroke-width="2"/><line x1="610" y1="128.83375" x2="590" y2="108.83375" fill="none" stroke="#e9a460" stroke-width="2"/><line x1="820" y1="183.83375" x2="820" y2="118.83375" fill="none" stroke="#e9a460" stroke-width="2"/><line x1="830" y1="128.83375" x2="810" y2="108.83375" fill="none" stroke="#e9a460" stroke-width="2"/><circle cx="1150" cy="118.83375" r="14.29993" fill="#31333d"/><path d="M1150,105.23377a13.6,13.6,0,1,1-13.6001,13.6,13.61548,13.61548,0,0,1,13.6001-13.6m0-1.4a15,15,0,1,0,15,15,15,15,0,0,0-15-15Z" fill="#e9a460"/><circle cx="180" cy="198.83375" r="14.29993" fill="#31333d"/><path d="M180,185.23377a13.6,13.6,0,1,1-13.6001,13.6,13.61548,13.61548,0,0,1,13.6001-13.6m0-1.4a15,15,0,1,0,15,15,15,15,0,0,0-15-15Z" fill="#e9a460"/><circle cx="380" cy="198.83375" r="14.29993" fill="#31333d"/><path d="M380,185.23377a13.6,13.6,0,1,1-13.6001,13.6,13.61548,13.61548,0,0,1,13.6001-13.6m0-1.4a15,15,0,1,0,15,15,15,15,0,0,0-15-15Z" fill="#e9a460"/><circle cx="600" cy="198.83375" r="14.29993" fill="#31333d"/><path d="M600,185.23377a13.6,13.6,0,1,1-13.6001,13.6,13.61548,13.61548,0,0,1,13.6001-13.6m0-1.4a15,15,0,1,0,15,15,15,15,0,0,0-15-15Z" fill="#e9a460"/><circle cx="820" cy="198.83375" r="14.29993" fill="#31333d"/><path d="M820,185.23377a13.6,13.6,0,1,1-13.6001,13.6,13.61548,13.61548,0,0,1,13.6001-13.6m0-1.4a15,15,0,1,0,15,15,15,15,0,0,0-15-15Z" fill="#e9a460"/><line x1="1143.98959" y1="112.82334" x2="1156.01041" y2="124.84416" fill="#31333d" stroke="#e9a460" stroke-width="2"/><line x1="1143.98959" y1="124.84416" x2="1156.01041" y2="112.82334" fill="#31333d" stroke="#e9a460" stroke-width="2"/><line x1="173.98959" y1="192.82334" x2="186.01041" y2="204.84416" fill="#31333d" stroke="#e9a460" stroke-width="2"/><line x1="173.98959" y1="204.84416" x2="186.01041" y2="192.82334" fill="#31333d" stroke="#e9a460" stroke-width="2"/><line x1="373.98959" y1="192.82334" x2="386.01041" y2="204.84416" fill="#31333d" stroke="#e9a460" stroke-width="2"/><line x1="373.98959" y1="204.84416" x2="386.01041" y2="192.82334" fill="#31333d" stroke="#e9a460" stroke-width="2"/><line x1="593.98959" y1="192.82334" x2="606.01041" y2="204.84416" fill="#31333d" stroke="#e9a460" stroke-width="2"/><line x1="593.98959" y1="204.84416" x2="606.01041" y2="192.82334" fill="#31333d" stroke="#e9a460" stroke-width="2"/><line x1="813.98959" y1="192.82334" x2="826.01041" y2="204.84416" fill="#31333d" stroke="#e9a460" stroke-width="2"/><line x1="813.98959" y1="204.84416" x2="826.01041" y2="192.82334" fill="#31333d" stroke="#e9a460" stroke-width="2"/><rect x="909" y="37.83375" width="52" height="22" rx="7" ry="7" fill="#4e4e4e"/><path d="M954,38.83375a6.01757,6.01757,0,0,1,6,6v8a6,6,0,0,1-6,6H916a6.00014,6.00014,0,0,1-6-6v-8a6.01774,6.01774,0,0,1,6-6h38m0-2H916a8.00909,8.00909,0,0,0-8,8v8a8.00913,8.00913,0,0,0,8,8h38a8.00913,8.00913,0,0,0,8-8v-8a8.00909,8.00909,0,0,0-8-8Z" fill="#4271c2"/><path d="M954,39.33375a5.50622,5.50622,0,0,1,5.5,5.5v8a5.50623,5.50623,0,0,1-5.5,5.5H916a5.50623,5.50623,0,0,1-5.5-5.5v-8a5.50622,5.50622,0,0,1,5.5-5.5h38m0-.5H916a6.01774,6.01774,0,0,0-6,6v8a6.00014,6.00014,0,0,0,6,6h38a6,6,0,0,0,6-6v-8a6.01757,6.01757,0,0,0-6-6Z"/><rect x="974" y="37.83375" width="52" height="22" rx="7" ry="7" fill="#4e4e4e"/><path d="M1019,38.83375a6.01757,6.01757,0,0,1,6,6v8a6,6,0,0,1-6,6H981a6.00014,6.00014,0,0,1-6-6v-8a6.01774,6.01774,0,0,1,6-6h38m0-2H981a8.00909,8.00909,0,0,0-8,8v8a8.00913,8.00913,0,0,0,8,8h38a8.00913,8.00913,0,0,0,8-8v-8a8.00909,8.00909,0,0,0-8-8Z" fill="#4271c2"/><path d="M1019,39.33375a5.50622,5.50622,0,0,1,5.5,5.5v8a5.50623,5.50623,0,0,1-5.5,5.5H981a5.50623,5.50623,0,0,1-5.5-5.5v-8a5.50622,5.50622,0,0,1,5.5-5.5h38m0-.5H981a6.01774,6.01774,0,0,0-6,6v8a6.00014,6.00014,0,0,0,6,6h38a6,6,0,0,0,6-6v-8a6.01757,6.01757,0,0,0-6-6Z"/><rect x="1039" y="37.83375" width="52" height="22" rx="7" ry="7" fill="#4e4e4e"/><path d="M1084,38.83375a6.01757,6.01757,0,0,1,6,6v8a6,6,0,0,1-6,6h-38a6.00014,6.00014,0,0,1-6-6v-8a6.01774,6.01774,0,0,1,6-6h38m0-2h-38a8.00909,8.00909,0,0,0-8,8v8a8.00913,8.00913,0,0,0,8,8h38a8.00913,8.00913,0,0,0,8-8v-8a8.00909,8.00909,0,0,0-8-8Z" fill="#4271c2"/><path d="M1084,39.33375a5.50622,5.50622,0,0,1,5.5,5.5v8a5.50623,5.50623,0,0,1-5.5,5.5h-38a5.50623,5.50623,0,0,1-5.5-5.5v-8a5.50622,5.50622,0,0,1,5.5-5.5h38m0-.5h-38a6.01774,6.01774,0,0,0-6,6v8a6.00014,6.00014,0,0,0,6,6h38a6,6,0,0,0,6-6v-8a6.01757,6.01757,0,0,0-6-6Z"/><rect x="155.5835" y="423.83375" width="32" height="20" rx="5" ry="5" fill="#4e4e4e"/><path d="M182.5835,424.83375a4.01163,4.01163,0,0,1,4,4v10a4.0001,4.0001,0,0,1-4,4h-22a4.00009,4.00009,0,0,1-4-4v-10a4.01162,4.01162,0,0,1,4-4h22m0-2h-22a6.00667,6.00667,0,0,0-6,6v10a6.00667,6.00667,0,0,0,6,6h22a6.00668,6.00668,0,0,0,6-6v-10a6.00668,6.00668,0,0,0-6-6Z" fill="#4271c2"/><path d="M182.5835,425.33375a3.50411,3.50411,0,0,1,3.5,3.5v10a3.50411,3.50411,0,0,1-3.5,3.5h-22a3.50411,3.50411,0,0,1-3.5-3.5v-10a3.50411,3.50411,0,0,1,3.5-3.5h22m0-.5h-22a4.01162,4.01162,0,0,0-4,4v10a4.00009,4.00009,0,0,0,4,4h22a4.0001,4.0001,0,0,0,4-4v-10a4.01163,4.01163,0,0,0-4-4Z"/><rect x="226.50008" y="187.83375" width="82" height="22" rx="7" ry="7" fill="#4e4e4e"/><path d="M301.50008,188.83363a6.01778,6.01778,0,0,1,6,6v8a6.00015,6.00015,0,0,1-6,6h-68a6.00014,6.00014,0,0,1-6-6v-8a6.01777,6.01777,0,0,1,6-6h68m0-2h-68a8.00912,8.00912,0,0,0-8,8v8a8.00912,8.00912,0,0,0,8,8h68a8.00913,8.00913,0,0,0,8-8v-8a8.00912,8.00912,0,0,0-8-8Z" fill="#4271c2"/><path d="M301.50008,189.33363a5.50622,5.50622,0,0,1,5.5,5.5v8a5.50623,5.50623,0,0,1-5.5,5.5h-68a5.50622,5.50622,0,0,1-5.5-5.5v-8a5.50622,5.50622,0,0,1,5.5-5.5h68m0-.5h-68a6.01777,6.01777,0,0,0-6,6v8a6.00014,6.00014,0,0,0,6,6h68a6.00015,6.00015,0,0,0,6-6v-8a6.01778,6.01778,0,0,0-6-6Z"/><rect x="426.50008" y="187.83375" width="82" height="22" rx="7" ry="7" fill="#4e4e4e"/><path d="M501.50008,188.83363a6.01778,6.01778,0,0,1,6,6v8a6.00015,6.00015,0,0,1-6,6h-68a6.00014,6.00014,0,0,1-6-6v-8a6.01777,6.01777,0,0,1,6-6h68m0-2h-68a8.00912,8.00912,0,0,0-8,8v8a8.00912,8.00912,0,0,0,8,8h68a8.00913,8.00913,0,0,0,8-8v-8a8.00912,8.00912,0,0,0-8-8Z" fill="#4271c2"/><path d="M501.50008,189.33363a5.50622,5.50622,0,0,1,5.5,5.5v8a5.50623,5.50623,0,0,1-5.5,5.5h-68a5.50622,5.50622,0,0,1-5.5-5.5v-8a5.50622,5.50622,0,0,1,5.5-5.5h68m0-.5h-68a6.01777,6.01777,0,0,0-6,6v8a6.00014,6.00014,0,0,0,6,6h68a6.00015,6.00015,0,0,0,6-6v-8a6.01778,6.01778,0,0,0-6-6Z"/><rect x="646.50008" y="187.83375" width="82" height="22" rx="7" ry="7" fill="#4e4e4e"/><path d="M721.50008,188.83363a6.01778,6.01778,0,0,1,6,6v8a6.00015,6.00015,0,0,1-6,6h-68a6.00014,6.00014,0,0,1-6-6v-8a6.01777,6.01777,0,0,1,6-6h68m0-2h-68a8.00912,8.00912,0,0,0-8,8v8a8.00912,8.00912,0,0,0,8,8h68a8.00913,8.00913,0,0,0,8-8v-8a8.00912,8.00912,0,0,0-8-8Z" fill="#4271c2"/><path d="M721.50008,189.33363a5.50622,5.50622,0,0,1,5.5,5.5v8a5.50623,5.50623,0,0,1-5.5,5.5h-68a5.50622,5.50622,0,0,1-5.5-5.5v-8a5.50622,5.50622,0,0,1,5.5-5.5h68m0-.5h-68a6.01777,6.01777,0,0,0-6,6v8a6.00014,6.00014,0,0,0,6,6h68a6.00015,6.00015,0,0,0,6-6v-8a6.01778,6.01778,0,0,0-6-6Z"/><rect x="866.50008" y="187.83375" width="82" height="22" rx="7" ry="7" fill="#4e4e4e"/><path d="M941.50008,188.83363a6.01778,6.01778,0,0,1,6,6v8a6.00015,6.00015,0,0,1-6,6h-68a6.00014,6.00014,0,0,1-6-6v-8a6.01777,6.01777,0,0,1,6-6h68m0-2h-68a8.00912,8.00912,0,0,0-8,8v8a8.00912,8.00912,0,0,0,8,8h68a8.00913,8.00913,0,0,0,8-8v-8a8.00912,8.00912,0,0,0-8-8Z" fill="#4271c2"/><path d="M941.50008,189.33363a5.50622,5.50622,0,0,1,5.5,5.5v8a5.50623,5.50623,0,0,1-5.5,5.5h-68a5.50622,5.50622,0,0,1-5.5-5.5v-8a5.50622,5.50622,0,0,1,5.5-5.5h68m0-.5h-68a6.01777,6.01777,0,0,0-6,6v8a6.00014,6.00014,0,0,0,6,6h68a6.00015,6.00015,0,0,0,6-6v-8a6.01778,6.01778,0,0,0-6-6Z"/><path d="M867.48828,298.334h1.37647l1.10449,5.71387c.19189,1.13672.416,2.25684.6084,3.39356h.064c.24024-1.13672.4961-2.27246.73633-3.39356l1.45654-5.71387h1.21631l1.45654,5.71387c.25635,1.10449.51221,2.25684.76856,3.39356h.064c.1919-1.13672.38428-2.27246.59229-3.39356l1.10449-5.71387h1.28027l-2.17675,10.5h-1.60059l-1.58447-6.32226c-.19238-.81641-.35254-1.56934-.51221-2.38477h-.06445c-.15967.81543-.352,1.56836-.52783,2.38477l-1.55274,6.32226h-1.58447Z" fill="#e9a460"/><path d="M880.43262,304.96c0-2.54492,1.71289-4.09766,3.48926-4.09766,1.98486,0,3.10546,1.42481,3.10546,3.6504a5.0596,5.0596,0,0,1-.04834.752h-5.25a2.58047,2.58047,0,0,0,2.59327,2.70508,3.51417,3.51417,0,0,0,1.93652-.6084l.46435.86426a4.62888,4.62888,0,0,1-2.561.80078A3.7199,3.7199,0,0,1,880.43262,304.96Zm5.44238-.63965c0-1.56836-.70459-2.417-1.9209-2.417a2.40261,2.40261,0,0,0-2.24121,2.417Z" fill="#e9a460"/><path d="M889.0083,306.43262V302.127H887.856v-.99218l1.21631-.08008.16015-2.17676h1.10449v2.17676h2.09668V302.127h-2.09668v4.32227c0,.96.3042,1.50488,1.2002,1.50488a2.8059,2.8059,0,0,0,.88037-.209l.25635.99316a4.81791,4.81791,0,0,1-1.44043.28809C889.56836,309.02637,889.0083,307.96973,889.0083,306.43262Z" fill="#e9a460"/><path d="M749.80859,298.334h2.625c3.2334,0,4.96241,1.87207,4.96241,5.20215,0,3.34473-1.729,5.29785-4.89795,5.29785h-2.68946Zm2.5293,9.41114c2.44873,0,3.68115-1.55176,3.68115-4.209,0-2.6416-1.23242-4.11425-3.68115-4.11425h-1.20068v8.32324Z" fill="#e9a460"/><path d="M759.52051,301.05469h1.08838l.1123,1.40918h.04785a2.66189,2.66189,0,0,1,2.209-1.60157,1.94126,1.94126,0,0,1,.832.16016l-.25586,1.15332a2.17673,2.17673,0,0,0-.75244-.1289c-.65625,0-1.44043.48046-1.96875,1.793V308.834h-1.3125Z" fill="#e9a460"/><path d="M764.688,312.01953l.25586-1.041a2.25674,2.25674,0,0,0,.59228.1123c.88037,0,1.44043-.7041,1.76075-1.665l.17626-.57617-3.12158-7.79492h1.36084l1.58448,4.30566c.24023.67285.5122,1.47266.75244,2.19336h.064c.22412-.7041.44824-1.50488.65625-2.19336l1.39258-4.30566h1.28027l-2.92871,8.41992c-.54443,1.53613-1.34472,2.70508-2.91357,2.70508A2.58845,2.58845,0,0,1,764.688,312.01953Z" fill="#e9a460"/><path d="M236.73633,303.334h3.12158c2.12891,0,3.60107.71973,3.60107,2.56055a2.29641,2.29641,0,0,1-1.53662,2.28906v.06446a2.41542,2.41542,0,0,1,2.145,2.51269c0,2.06446-1.63281,3.07324-3.98535,3.07324h-3.3457Zm2.88135,4.46582c1.79248,0,2.5288-.65625,2.5288-1.72851,0-1.2168-.832-1.68067-2.46484-1.68067h-1.6167v3.40918Zm.272,4.97754c1.80859,0,2.86523-.65625,2.86523-2.06445,0-1.29687-1.02441-1.88867-2.86523-1.88867h-1.82471v3.95312Z" fill="#e9a460"/><path d="M119.24951,303.334h1.5044l3.55371,10.5h-1.42481l-.99219-3.20117h-3.82568l-1.0083,3.20117H115.6958Zm-.84863,6.22657h3.15332l-.49609-1.60059c-.38428-1.16894-.72022-2.32129-1.05616-3.53808h-.06445c-.31982,1.21679-.65625,2.36914-1.04,3.53808Z" fill="#e9a460"/><path d="M456.30566,312.69727v-7.44239h-1.66455v-1.12109h4.6416v1.12109h-1.64843v7.44239h1.64843V313.834h-4.6416v-1.13671Zm6.08252,0v-7.44239h-1.66455v-1.12109h4.6416v1.12109H463.7168v7.44239h1.64843V313.834h-4.6416v-1.13671Z" fill="#e9a460"/><path d="M299.34521,312.69727v-7.44239h-1.66455v-1.12109h4.64161v1.12109h-1.64844v7.44239h1.64844V313.834h-4.64161v-1.13671Z" fill="#e9a460"/><path d="M676.30566,312.69727v-7.44239h-1.66455v-1.12109h4.6416v1.12109h-1.64843v7.44239h1.64843V313.834h-4.6416v-1.13671Zm6.08252,0v-7.44239h-1.66455v-1.12109h4.6416v1.12109H683.7168v7.44239h1.64843V313.834h-4.6416v-1.13671Z" fill="#e9a460"/><path d="M519.34521,312.69727v-7.44239h-1.66455v-1.12109h4.64161v1.12109h-1.64844v7.44239h1.64844V313.834h-4.64161v-1.13671Z" fill="#e9a460"/><path d="M765.55371,420.334c3.2334,0,4.9624,1.87207,4.9624,5.20215,0,3.34473-1.729,5.29785-4.898,5.29785h-2.68945v-10.5Zm3.58545,5.20215c0-2.6416-1.23242-4.11425-3.68115-4.11425h-1.20069v8.32324H765.458C767.90674,429.74512,769.13916,428.19336,769.13916,425.53613Z" fill="#e9a460"/><path d="M773.729,423.05469l.11231,1.40918h.04785a2.66188,2.66188,0,0,1,2.209-1.60157,1.94128,1.94128,0,0,1,.832.16016l-.25586,1.15332a2.17673,2.17673,0,0,0-.75244-.1289c-.65626,0-1.44043.48046-1.96876,1.793V430.834h-1.3125v-7.77929Z" fill="#e9a460"/><path d="M777.80811,434.01953l.25585-1.041a2.2569,2.2569,0,0,0,.59229.1123c.88037,0,1.44043-.7041,1.76074-1.665l.17627-.57617-3.12158-7.79492h1.36084l1.58447,4.30566c.24024.67285.51221,1.47266.75244,2.19336h.064c.22412-.7041.44824-1.50488.65625-2.19336l1.39258-4.30566h1.28027l-2.92871,8.41992c-.54443,1.53613-1.34473,2.70508-2.91358,2.70508A2.58835,2.58835,0,0,1,777.80811,434.01953Z" fill="#e9a460"/><path d="M791.53711,429.69727v-7.44239h-1.66455v-1.12109h4.6416v1.12109h-1.64844v7.44239h1.64844V430.834h-4.6416v-1.13671Zm6.08252,0v-7.44239h-1.66455v-1.12109h4.6416v1.12109h-1.64844v7.44239h1.64844V430.834h-4.6416v-1.13671Z" fill="#e9a460"/><path d="M646.59375,420.334c3.2334,0,4.9624,1.87207,4.9624,5.20215,0,3.34473-1.729,5.29785-4.898,5.29785h-2.68945v-10.5Zm3.58545,5.20215c0-2.6416-1.23242-4.11425-3.68115-4.11425h-1.20069v8.32324h1.20069C648.94678,429.74512,650.1792,428.19336,650.1792,425.53613Z" fill="#e9a460"/><path d="M654.769,423.05469l.11231,1.40918h.04785a2.66188,2.66188,0,0,1,2.209-1.60157,1.9412,1.9412,0,0,1,.832.16016l-.25585,1.15332a2.17674,2.17674,0,0,0-.75245-.1289c-.65625,0-1.44043.48046-1.96875,1.793V430.834h-1.3125v-7.77929Z" fill="#e9a460"/><path d="M658.84814,434.01953l.25586-1.041a2.25682,2.25682,0,0,0,.59229.1123c.88037,0,1.44043-.7041,1.76074-1.665l.17627-.57617-3.12158-7.79492h1.36084l1.58447,4.30566c.24024.67285.51221,1.47266.75244,2.19336h.064c.22412-.7041.44824-1.50488.65625-2.19336l1.39258-4.30566h1.28027l-2.92871,8.41992c-.54444,1.53613-1.34473,2.70508-2.91358,2.70508A2.58845,2.58845,0,0,1,658.84814,434.01953Z" fill="#e9a460"/><path d="M672.57715,429.69727v-7.44239H670.9126v-1.12109h4.6416v1.12109h-1.64844v7.44239h1.64844V430.834h-4.6416v-1.13671Z" fill="#e9a460"/><path d="M963.03369,420.334c3.2334,0,4.9624,1.87207,4.9624,5.20215,0,3.34473-1.729,5.29785-4.898,5.29785h-2.68945v-10.5Zm3.58545,5.20215c0-2.6416-1.23242-4.11425-3.68115-4.11425H961.7373v8.32324H962.938C965.38672,429.74512,966.61914,428.19336,966.61914,425.53613Z" fill="#e9a460"/><path d="M971.209,423.05469l.11231,1.40918h.04785a2.66188,2.66188,0,0,1,2.209-1.60157,1.94128,1.94128,0,0,1,.832.16016l-.25586,1.15332a2.17673,2.17673,0,0,0-.75244-.1289c-.65625,0-1.44043.48046-1.96875,1.793V430.834h-1.3125v-7.77929Z" fill="#e9a460"/><path d="M975.28809,434.01953l.25586-1.041a2.25674,2.25674,0,0,0,.59228.1123c.88037,0,1.44043-.7041,1.76074-1.665l.17627-.57617-3.12158-7.79492h1.36084l1.58447,4.30566c.24024.67285.51221,1.47266.75244,2.19336h.064c.22412-.7041.44824-1.50488.65625-2.19336l1.39258-4.30566h1.28027l-2.92871,8.41992c-.54443,1.53613-1.34473,2.70508-2.91357,2.70508A2.58841,2.58841,0,0,1,975.28809,434.01953Z" fill="#e9a460"/><path d="M989.01709,429.69727v-7.44239h-1.66455v-1.12109h4.6416v1.12109H990.3457v7.44239h1.64844V430.834h-4.6416v-1.13671Zm6.08252,0v-7.44239h-1.66455v-1.12109h4.6416v1.12109h-1.64844v7.44239h1.64844V430.834h-4.6416v-1.13671Z" fill="#e9a460"/><path d="M844.07373,420.334c3.2334,0,4.9624,1.87207,4.9624,5.20215,0,3.34473-1.729,5.29785-4.89795,5.29785h-2.68945v-10.5Zm3.58545,5.20215c0-2.6416-1.23242-4.11425-3.68115-4.11425h-1.20069v8.32324H843.978C846.42676,429.74512,847.65918,428.19336,847.65918,425.53613Z" fill="#e9a460"/><path d="M852.249,423.05469l.11231,1.40918h.04785a2.66188,2.66188,0,0,1,2.209-1.60157,1.94128,1.94128,0,0,1,.832.16016l-.25586,1.15332a2.17674,2.17674,0,0,0-.75245-.1289c-.65625,0-1.44043.48046-1.96875,1.793V430.834h-1.3125v-7.77929Z" fill="#e9a460"/><path d="M856.32812,434.01953l.25586-1.041a2.2569,2.2569,0,0,0,.59229.1123c.88037,0,1.44043-.7041,1.76074-1.665l.17627-.57617-3.12158-7.79492h1.36084l1.58447,4.30566c.24024.67285.51221,1.47266.75244,2.19336h.064c.22412-.7041.44824-1.50488.65625-2.19336l1.39258-4.30566h1.28027l-2.92871,8.41992c-.54443,1.53613-1.34473,2.70508-2.91358,2.70508A2.58845,2.58845,0,0,1,856.32812,434.01953Z" fill="#e9a460"/><path d="M870.05713,429.69727v-7.44239h-1.66455v-1.12109h4.6416v1.12109h-1.64844v7.44239h1.64844V430.834h-4.6416v-1.13671Z" fill="#e9a460"/><path d="M920.09766,43.022h2.46c3.02978,0,4.6499,1.75489,4.6499,4.87451,0,3.13477-1.62012,4.96485-4.58984,4.96485h-2.52Zm2.37011,8.81934c2.29493,0,3.44971-1.45508,3.44971-3.94483,0-2.47509-1.15478-3.855-3.44971-3.855h-1.125v7.79981Z" fill="#e4e4e4"/><path d="M929.20264,45.57178h1.02l.105,1.31982h.04492a2.49374,2.49374,0,0,1,2.06982-1.5,1.81173,1.81173,0,0,1,.78028.1499l-.24024,1.08008a2.03313,2.03313,0,0,0-.70459-.12012c-.61523,0-1.3501.4502-1.84521,1.68018v4.67969h-1.23Z" fill="#e4e4e4"/><path d="M934.18262,43.27686a.85725.85725,0,0,1,1.71,0,.85725.85725,0,0,1-1.71,0Zm.22509,2.29492h1.23v7.28955h-1.23Z" fill="#e4e4e4"/><path d="M937.04736,45.57178h1.27491l1.37988,4.13965c.21.72021.45019,1.45507.6748,2.145h.06006c.21-.69.4502-1.42481.66016-2.145l1.37988-4.13965h1.21484l-2.57959,7.28955h-1.43994Z" fill="#e4e4e4"/><path d="M944.50244,49.23145c0-2.38477,1.605-3.83985,3.26953-3.83985,1.86035,0,2.91016,1.335,2.91016,3.41992a4.8047,4.8047,0,0,1-.04492.70508h-4.91992a2.41763,2.41763,0,0,0,2.42968,2.53467,3.29383,3.29383,0,0,0,1.81494-.56982l.43506.81a4.34166,4.34166,0,0,1-2.3999.75A3.486,3.486,0,0,1,944.50244,49.23145Zm5.09961-.6001c0-1.46973-.65967-2.26465-1.7998-2.26465a2.25123,2.25123,0,0,0-2.1001,2.26465Z" fill="#e4e4e4"/><path d="M987.61035,43.022h5.66992v1.04981h-4.4248v3.32959H992.605v1.05029h-3.74951v4.40967h-1.24512Z" fill="#e4e4e4"/><path d="M994.15039,49.23145c0-2.44483,1.58984-3.83985,3.375-3.83985,1.78467,0,3.37451,1.395,3.37451,3.83985,0,2.415-1.58984,3.81-3.37451,3.81C995.74023,53.0415,994.15039,51.64648,994.15039,49.23145Zm5.47461,0c0-1.67969-.83984-2.81983-2.09961-2.81983-1.24512,0-2.1001,1.14014-2.1001,2.81983,0,1.665.855,2.79,2.1001,2.79C998.78516,52.02148,999.625,50.89648,999.625,49.23145Z" fill="#e4e4e4"/><path d="M1002.82031,51.3916v-9.21h1.23v9.29981c0,.39013.165.54.34473.54a1.023,1.023,0,0,0,.27-.03027l.165.93018a1.66068,1.66068,0,0,1-.70508.12011C1003.19531,53.0415,1002.82031,52.45654,1002.82031,51.3916Z" fill="#e4e4e4"/><path d="M1006.12012,49.23145c0-2.36963,1.5-3.83985,3.165-3.83985a3.0021,3.0021,0,0,1,2.03955.83985l-.05957-1.24463V42.18164h1.24463V52.86133h-1.02l-.105-.855h-.04493a3.288,3.288,0,0,1-2.20507,1.03515C1007.30518,53.0415,1006.12012,51.66162,1006.12012,49.23145Zm5.145,1.77V47.19141a2.539,2.539,0,0,0-1.77-.76465c-1.16992,0-2.1001,1.125-2.1001,2.78955,0,1.74023.73486,2.79,2.00977,2.79A2.468,2.468,0,0,0,1011.26514,51.00146Z" fill="#e4e4e4"/><path d="M1051.26025,43.022h1.41016L1056,52.86133h-1.335l-.92969-3h-3.585l-.94531,3h-1.2749Zm-.79492,5.83448h2.95459l-.46484-1.5c-.35987-1.09473-.67481-2.17481-.98975-3.315h-.06006c-.30029,1.14014-.61523,2.22022-.97509,3.315Z" fill="#e4e4e4"/><path d="M1056.81006,52.03613l.61523-.8247a3.27946,3.27946,0,0,0,2.145.87011c.96,0,1.43994-.51025,1.43994-1.14013,0-.75-.87011-1.08008-1.665-1.37989-1.03515-.375-2.1748-.87011-2.1748-2.10009,0-1.16993.92969-2.06983,2.50488-2.06983a3.63693,3.63693,0,0,1,2.26465.8252l-.585.77978a2.70754,2.70754,0,0,0-1.665-.645c-.91455,0-1.335.49512-1.335,1.04981,0,.68994.79492.94531,1.62012,1.26025,1.0498.38965,2.21972.82471,2.21972,2.20459,0,1.18506-.94482,2.17529-2.66992,2.17529A4.38668,4.38668,0,0,1,1056.81006,52.03613Z" fill="#e4e4e4"/><path d="M1063.16992,55.84619l.23975-.9751a2.14958,2.14958,0,0,0,.55517.105c.8252,0,1.3501-.65966,1.64991-1.55957l.165-.54-2.92481-7.30468h1.2749l1.48487,4.03467c.22509.62988.48,1.37988.70507,2.05517h.06006c.21-.66016.41992-1.41016.61475-2.05517l1.30517-4.03467h1.19971l-2.74463,7.88965c-.51025,1.43994-1.26025,2.53466-2.73,2.53466A2.42259,2.42259,0,0,1,1063.16992,55.84619Z" fill="#e4e4e4"/><path d="M1070.91016,45.57178h1.02l.105,1.0498h.04492a3.2035,3.2035,0,0,1,2.26465-1.23,1.91353,1.91353,0,0,1,2.01025,1.395,3.44217,3.44217,0,0,1,2.3999-1.395c1.49951,0,2.21973.98975,2.21973,2.8501v4.61963h-1.23V48.40674c0-1.36524-.43506-1.9502-1.3501-1.9502a2.67441,2.67441,0,0,0-1.82959,1.125v5.27979h-1.23V48.40674c0-1.36524-.43506-1.9502-1.36523-1.9502a2.73392,2.73392,0,0,0-1.82959,1.125v5.27979h-1.23Z" fill="#e4e4e4"/><path d="M1131.91992,78.02344h1.49414v10.5332h5.168V89.835h-6.66211Z" fill="#e9a460"/><path d="M1139.65918,85.47754c0-2.86231,1.92676-4.60938,3.92529-4.60938,2.23291,0,3.49317,1.60254,3.49317,4.10547a5.70033,5.70033,0,0,1-.0542.84571h-5.90576a2.9026,2.9026,0,0,0,2.917,3.043,3.95534,3.95534,0,0,0,2.17871-.68359l.522.97168a5.20963,5.20963,0,0,1-2.88086.90039C1141.51367,90.05078,1139.65918,88.34082,1139.65918,85.47754Zm6.12207-.71973c0-1.76465-.79248-2.71875-2.16064-2.71875a2.70271,2.70271,0,0,0-2.521,2.71875Z" fill="#e9a460"/><path d="M1148.06445,81.084h1.53076l1.65625,4.96973c.25245.86426.54053,1.74707.81055,2.5752h.07178c.25195-.82813.54-1.71094.79248-2.5752l1.65625-4.96973h1.4585l-3.09668,8.751h-1.72852Z" fill="#e9a460"/><path d="M1157.01074,85.47754c0-2.86231,1.92676-4.60938,3.9253-4.60938,2.23291,0,3.49316,1.60254,3.49316,4.10547a5.70033,5.70033,0,0,1-.0542.84571h-5.90576a2.9026,2.9026,0,0,0,2.917,3.043,3.95531,3.95531,0,0,0,2.17871-.68359l.522.97168a5.2096,5.2096,0,0,1-2.88086.90039C1158.86523,90.05078,1157.01074,88.34082,1157.01074,85.47754Zm6.12207-.71973c0-1.76465-.79248-2.71875-2.16064-2.71875a2.70271,2.70271,0,0,0-2.521,2.71875Z" fill="#e9a460"/><path d="M1166.58691,88.07031V77.01562h1.47657V88.17871c0,.46777.19775.64746.41406.64746a1.26611,1.26611,0,0,0,.32373-.03515l.19824,1.11621a1.99251,1.99251,0,0,1-.84619.14355C1167.03711,90.05078,1166.58691,89.34863,1166.58691,88.07031Z" fill="#e9a460"/><path d="M1142.19678,171.68359h1.41113v5.59278h.05078l4.64063-5.59278h1.59765l-3.48437,4.25,4.02832,6.90137h-1.58057l-3.332-5.79687-1.92041,2.26074V182.835h-1.41113Z" fill="#cacaca"/><path d="M1154.0625,172.874h-3.36572v-1.19043h8.15918V172.874h-3.36573V182.835h-1.42773Z" fill="#cacaca"/><path d="M241.23486,191.99316l3.77393,11.15039h-1.51318l-1.05372-3.39941h-4.0625l-1.0708,3.39941h-1.44531l3.77393-11.15039Zm.8501,6.61231-.52685-1.7002c-.40821-1.24121-.76514-2.46484-1.12207-3.75683h-.06788c-.33984,1.292-.69726,2.51562-1.105,3.75683l-.52685,1.7002Z" fill="#cacaca"/><path d="M250.78906,191.0752l-4.53857,14.78808h-1.02L249.769,191.0752Z" fill="#cacaca"/><path d="M255.855,191.99316c2.26074,0,3.82422.76465,3.82422,2.71875a2.44023,2.44023,0,0,1-1.63184,2.43164v.06739a2.56482,2.56482,0,0,1,2.27784,2.66894c0,2.19239-1.73389,3.26367-4.23243,3.26367H252.54V191.99316Zm2.43066,2.90625c0-1.292-.88427-1.78515-2.61767-1.78515h-1.7168v3.62109h1.64844C257.50342,196.73535,258.28564,196.03809,258.28564,194.89941Zm.646,4.92969c0-1.377-1.08789-2.00586-3.043-2.00586h-1.9375v4.19824h1.9375C257.80957,202.02148,258.93164,201.3252,258.93164,199.8291Z" fill="#cacaca"/><path d="M268.21387,201.93652v-7.90429h-1.76758v-1.18946h4.9292v1.18946h-1.751v7.90429h1.751v1.207h-4.9292v-1.207Zm6.45947,0v-7.90429h-1.76807v-1.18946H277.835v1.18946h-1.751v7.90429h1.751v1.207h-4.92969v-1.207Z" fill="#cacaca"/><path d="M281.27,198.418a14.13182,14.13182,0,0,1,2.24365-7.7168l.8667.40723a14.64508,14.64508,0,0,0,0,14.61914l-.8667.4082A14.13509,14.13509,0,0,1,281.27,198.418Z" fill="#cacaca"/><path d="M288.83447,201.93652v-7.90429h-1.76806v-1.18946h4.92968v1.18946h-1.751v7.90429h1.751v1.207h-4.92968v-1.207Z" fill="#cacaca"/><path d="M296.63721,198.418a14.14675,14.14675,0,0,0-1.95459-7.30957l.8667-.40723a14.3914,14.3914,0,0,1,0,15.43457l-.8667-.4082A14.14677,14.14677,0,0,0,296.63721,198.418Z" fill="#cacaca"/><path d="M447.17627,197.56836c0-3.58691,2.10791-5.7793,4.94678-5.7793a4.06684,4.06684,0,0,1,3.05957,1.377l-.76514.917a3.047,3.047,0,0,0-2.27783-1.05371c-2.10742,0-3.50147,1.73437-3.50147,4.50488,0,2.80469,1.34278,4.57227,3.45069,4.57227a3.36468,3.36468,0,0,0,2.584-1.25782l.78174.88379a4.31265,4.31265,0,0,1-3.4165,1.61524C449.25,203.34766,447.17627,201.20605,447.17627,197.56836Z" fill="#cacaca"/><path d="M456.78125,199.03027c0-2.77148,1.80176-4.35156,3.82471-4.35156s3.8247,1.58008,3.8247,4.35156c0,2.73633-1.80175,4.31739-3.8247,4.31739S456.78125,201.7666,456.78125,199.03027Zm6.20459,0c0-1.90429-.95215-3.19629-2.37988-3.19629-1.41065,0-2.37989,1.292-2.37989,3.19629,0,1.88672.96924,3.16114,2.37989,3.16114C462.03369,202.19141,462.98584,200.917,462.98584,199.03027Z" fill="#cacaca"/><path d="M467.76318,194.88281l.11914,1.18946h.05079A3.6291,3.6291,0,0,1,470.5,194.67871a2.16825,2.16825,0,0,1,2.27783,1.58008,3.90254,3.90254,0,0,1,2.71973-1.58008c1.69971,0,2.51562,1.12109,2.51562,3.22949v5.23535h-1.394v-5.04882c0-1.54688-.49268-2.209-1.52978-2.209a3.03095,3.03095,0,0,0-2.07374,1.27442v5.98339h-1.394v-5.04882c0-1.54688-.49267-2.209-1.54687-2.209a3.10025,3.10025,0,0,0-2.07373,1.27442v5.98339h-1.39356v-8.26074Z" fill="#cacaca"/><path d="M481.9917,202.294h-.05078l-.11914.8496H480.7002V191.041h1.39355v3.29785l-.03369,1.49511a4.07891,4.07891,0,0,1,2.58349-1.15527c2.14161,0,3.28077,1.64844,3.28077,4.19824,0,2.82129-1.68311,4.47071-3.56983,4.47071A3.70231,3.70231,0,0,1,481.9917,202.294Zm4.48779-3.4004c0-1.81835-.61181-3.042-2.17578-3.042a3.40539,3.40539,0,0,0-2.21,1.12207v4.334a3.23463,3.23463,0,0,0,2.02295.86718C485.47656,202.1748,486.47949,200.93359,486.47949,198.89355Z" fill="#cacaca"/><path d="M675.09863,201.69824l.8501-.98535a4.36665,4.36665,0,0,0,3.07666,1.39356c1.46191,0,2.32861-.73047,2.32861-1.81836,0-1.13868-.79882-1.4961-1.85254-1.97168l-1.59814-.69727a3.13458,3.13458,0,0,1-2.26074-2.873c0-1.69921,1.479-2.957,3.502-2.957a4.62431,4.62431,0,0,1,3.29736,1.377l-.76464.917a3.55831,3.55831,0,0,0-2.53272-1.05371c-1.24121,0-2.07422.6289-2.07422,1.63183,0,1.07129.96924,1.47949,1.853,1.85352l1.58057.67969c1.292.56054,2.29492,1.32617,2.29492,2.97461,0,1.76757-1.44483,3.17871-3.79053,3.17871A5.40755,5.40755,0,0,1,675.09863,201.69824Z" fill="#cacaca"/><path d="M684.97559,191.99316l1.78515,6.01661c.40772,1.32617.6626,2.37988,1.08789,3.68847h.06787c.40772-1.30859.67969-2.3623,1.0708-3.68847l1.78467-6.01661h1.44483l-3.53565,11.15039h-1.64844l-3.56982-11.15039Z" fill="#cacaca"/><path d="M700.17285,191.99316v1.18946h-5.01416v3.77343h4.24951v1.19043h-4.24951v4.99707h-1.41113V191.99316Z" fill="#cacaca"/><path d="M891.74023,191.99316v1.18946h-5.01416v3.502h4.23243v1.20605h-4.23243v4.0459h5.18409v1.207h-6.59522V191.99316Z" fill="#cacaca"/><path d="M893.25391,196.02148v-1.05371l1.12207-.085v-1.30957c0-1.68262.76513-2.73633,2.41357-2.73633a3.75579,3.75579,0,0,1,1.377.27149l-.30566,1.07129a2.32777,2.32777,0,0,0-.93506-.2041c-.78223,0-1.15576.54394-1.15576,1.59765v1.30957h1.75049v1.13867H895.77v7.12207h-1.394v-7.12207Z" fill="#cacaca"/><path d="M898.21777,196.02148v-1.05371l1.12207-.085v-1.30957c0-1.68262.76514-2.73633,2.41358-2.73633a3.75579,3.75579,0,0,1,1.37695.27149l-.30566,1.07129a2.32784,2.32784,0,0,0-.93506-.2041c-.78223,0-1.15576.54394-1.15576,1.59765v1.30957h1.75049v1.13867h-1.75049v7.12207h-1.394v-7.12207Z" fill="#cacaca"/><path d="M903.28369,199.03027c0-2.70312,1.81885-4.35156,3.70557-4.35156,2.10791,0,3.29785,1.5127,3.29785,3.875a5.43969,5.43969,0,0,1-.05078.79883h-5.57569a2.74032,2.74032,0,0,0,2.75391,2.87305,3.735,3.735,0,0,0,2.05664-.64551l.49317.918a4.92,4.92,0,0,1-2.71973.84961C905.03467,203.34766,903.28369,201.73242,903.28369,199.03027Zm3.73975-3.24707a2.55131,2.55131,0,0,0-2.37989,2.56641h4.41993C909.06348,196.68457,908.31543,195.7832,907.02344,195.7832Z" fill="#cacaca"/><path d="M911.71533,199.03027a4.00075,4.00075,0,0,1,3.978-4.35156,3.42693,3.42693,0,0,1,2.41357.96875l-.71386.918a2.42391,2.42391,0,0,0-1.64893-.73145c-1.49609,0-2.584,1.292-2.584,3.19629,0,1.88672,1.03711,3.16114,2.5498,3.16114a2.93563,2.93563,0,0,0,1.938-.833l.61182.93555a4.02873,4.02873,0,0,1-2.66846,1.05371C913.39844,203.34766,911.71533,201.7666,911.71533,199.03027Z" fill="#cacaca"/><path d="M920.14746,200.59375v-4.57227h-1.22363v-1.05371l1.2915-.085.16992-2.3125h1.17286v2.3125h2.227v1.13867h-2.227v4.58887c0,1.02051.32324,1.59863,1.2749,1.59863a2.98738,2.98738,0,0,0,.93506-.22168l.272,1.05469a5.12039,5.12039,0,0,1-1.52979.30567C920.74219,203.34766,920.14746,202.22559,920.14746,200.59375Z" fill="#cacaca"/><path d="M924.56787,202.209l.69678-.93554a3.71459,3.71459,0,0,0,2.43066.98633c1.08789,0,1.63184-.57813,1.63184-1.292,0-.84961-.98584-1.22363-1.88672-1.56347-1.17285-.42578-2.46484-.98633-2.46484-2.37989,0-1.32617,1.0542-2.3457,2.83886-2.3457a4.12427,4.12427,0,0,1,2.5669.93457l-.66309.88379a3.06814,3.06814,0,0,0-1.88672-.73047c-1.03711,0-1.51318.56055-1.51318,1.18945,0,.78223.90137,1.07129,1.83594,1.42774,1.18994.44238,2.51562.93555,2.51562,2.499,0,1.34278-1.0708,2.46485-3.02539,2.46485A4.97464,4.97464,0,0,1,924.56787,202.209Z" fill="#cacaca"/><path d="M979.21289,122.94922l1-1.16016a5.14268,5.14268,0,0,0,3.62061,1.63965c1.7207,0,2.74072-.85937,2.74072-2.13965,0-1.34082-.93994-1.76074-2.18018-2.32129l-1.88037-.81933a3.68824,3.68824,0,0,1-2.66064-3.38086c0-2.001,1.74023-3.48145,4.1206-3.48145a5.44183,5.44183,0,0,1,3.88086,1.6211l-.8999,1.08007a4.18331,4.18331,0,0,0-2.981-1.24023c-1.46,0-2.44043.74023-2.44043,1.91992,0,1.26074,1.14014,1.74024,2.18067,2.18067l1.86035.7998c1.52.66016,2.70068,1.56055,2.70068,3.501,0,2.08105-1.70068,3.74121-4.46142,3.74121A6.365,6.365,0,0,1,979.21289,122.94922Z" fill="#e9a460"/><path d="M990.69287,110.40625h1.64063v3.88086l-.06006,2.001a4.64592,4.64592,0,0,1,3.24072-1.60059c2.04053,0,2.96045,1.32031,2.96045,3.80078v6.16113h-1.64014V118.708c0-1.82031-.56006-2.60059-1.84033-2.60059-1.00049,0-1.68066.52051-2.66064,1.5v7.042h-1.64063Z" fill="#e9a460"/><path d="M1000.97217,122.12891c0-2.12012,1.8208-3.18067,5.96142-3.64063,0-1.24023-.3999-2.44043-2.00048-2.44043a5.2827,5.2827,0,0,0-2.9004,1.04l-.64013-1.14062a7.21458,7.21458,0,0,1,3.8208-1.25977c2.38037,0,3.38037,1.58008,3.38037,4.001v5.96093h-1.35986l-.14014-1.16015h-.06006a5.18949,5.18949,0,0,1-3.2207,1.40039A2.64575,2.64575,0,0,1,1000.97217,122.12891Zm5.96142.13964v-2.70019c-3.24072.40039-4.36084,1.20019-4.36084,2.44043,0,1.10059.76026,1.56055,1.72022,1.56055A3.93784,3.93784,0,0,0,1006.93359,122.26855Z" fill="#e9a460"/><path d="M1011.65234,114.92773h1.36036l.14013,1.12012h.06006a5.03116,5.03116,0,0,1,3.10059-1.36035c2.50048,0,3.84082,1.94043,3.84082,4.96094,0,3.30078-1.98047,5.24121-4.20069,5.24121a4.50714,4.50714,0,0,1-2.70068-1.12012l.04,1.7002V128.75h-1.64063Zm6.80176,4.72071c0-2.14063-.72021-3.58106-2.56055-3.58106a4.09413,4.09413,0,0,0-2.60058,1.32032v5.10156a3.84485,3.84485,0,0,0,2.38037,1.01953C1017.27393,123.50879,1018.4541,122.04883,1018.4541,119.64844Z" fill="#e9a460"/><path d="M1022.03271,119.80859c0-3.18066,2.14014-5.12109,4.36084-5.12109,2.48047,0,3.88086,1.78027,3.88086,4.56055a6.36461,6.36461,0,0,1-.06005.94043h-6.56153c.12012,2.06054,1.38037,3.38086,3.24072,3.38086a4.38618,4.38618,0,0,0,2.42041-.76075l.58008,1.08106a5.78912,5.78912,0,0,1-3.20068,1C1024.09277,124.88965,1022.03271,122.98926,1022.03271,119.80859Zm6.80127-.80078c0-1.96-.88037-3.02051-2.40039-3.02051-1.36035,0-2.60058,1.10059-2.80078,3.02051Z" fill="#e9a460"/><path d="M1032.67188,114.92773h1.36035l.14013,1.75977h.06006a3.32569,3.32569,0,0,1,2.76074-2,2.40484,2.40484,0,0,1,1.04.2002l-.31982,1.44042a2.711,2.711,0,0,0-.94043-.16015c-.82031,0-1.80029.59961-2.46045,2.24023v6.24121h-1.64062Z" fill="#e9a460"/><path d="M164.38135,255.52637h1.88037l4.44092,13.123h-1.78028l-1.24023-4.001h-4.78125l-1.26026,4.001h-1.70019Zm-1.06006,7.78222h3.94043l-.62012-2.001c-.48-1.46-.8999-2.90039-1.32031-4.4209h-.07959c-.40039,1.52051-.82031,2.96094-1.30029,4.4209Z" fill="#e9a460"/><path d="M175.58057,263.04785H183.542v1.14063h-7.96142Z" fill="#e9a460"/><path d="M190.16016,255.52637H194.061c2.66064,0,4.501.90039,4.501,3.20117a2.871,2.871,0,0,1-1.92041,2.86035v.08008a3.01825,3.01825,0,0,1,2.68067,3.14062c0,2.58008-2.04053,3.84082-4.981,3.84082h-4.18115Zm3.60107,5.58105c2.24023,0,3.16065-.81933,3.16065-2.16015,0-1.52051-1.04053-2.10059-3.08106-2.10059h-2.02v4.26074Zm.33984,6.22168c2.26026,0,3.58057-.82031,3.58057-2.58008,0-1.62109-1.28027-2.36132-3.58057-2.36132H191.8208v4.9414Z" fill="#e9a460"/><path d="M343.08252,255.52637v1.40039h-5.90088v4.4414h5.001v1.40039h-5.001v5.88086H335.521v-13.123Z" fill="#e9a460"/><path d="M346.20117,258.92773l.14014,1.75977h.06006a3.32566,3.32566,0,0,1,2.76074-2,2.4049,2.4049,0,0,1,1.04.2002l-.31983,1.44042a2.711,2.711,0,0,0-.94043-.16015c-.82031,0-1.80029.59961-2.46044,2.24023v6.24121h-1.64063v-9.72168Z" fill="#e9a460"/><path d="M350.86084,263.80859c0-3.26074,2.12012-5.12109,4.501-5.12109,2.38037,0,4.50048,1.86035,4.50048,5.12109,0,3.22071-2.12011,5.08106-4.50048,5.08106C352.981,268.88965,350.86084,267.0293,350.86084,263.80859Zm7.30127,0c0-2.24023-1.12012-3.76074-2.80029-3.76074-1.66065,0-2.80078,1.52051-2.80078,3.76074,0,2.22071,1.14013,3.72071,2.80078,3.72071C357.042,267.5293,358.16211,266.0293,358.16211,263.80859Z" fill="#e9a460"/><path d="M363.78076,258.92773l.14014,1.40039h.06006a4.27033,4.27033,0,0,1,3.0205-1.64062,2.55116,2.55116,0,0,1,2.68067,1.86035,4.59165,4.59165,0,0,1,3.20068-1.86035c2.00049,0,2.96045,1.32031,2.96045,3.80078v6.16113h-1.64014V262.708c0-1.82031-.58007-2.60059-1.80029-2.60059a3.56681,3.56681,0,0,0-2.44043,1.5v7.042h-1.64062V262.708c0-1.82031-.58008-2.60059-1.82032-2.60059a3.64684,3.64684,0,0,0-2.44042,1.5v7.042h-1.64063v-9.72168Z" fill="#e9a460"/><path d="M385.84131,267.22949v-9.30273h-2.08057v-1.40039H389.562v1.40039h-2.06055v9.30273H389.562v1.41992h-5.80127v-1.41992Zm7.60156,0v-9.30273H391.3623v-1.40039h5.80127v1.40039h-2.06v9.30273h2.06v1.41992H391.3623v-1.41992Z" fill="#e9a460"/><path d="M405.2002,263.08789a16.638,16.638,0,0,1,2.64062-9.082l1.02051.48047a17.23086,17.23086,0,0,0,0,17.2041l-1.02051.47949A16.6355,16.6355,0,0,1,405.2002,263.08789Z" fill="#e9a460"/><path d="M414.10059,267.22949v-9.30273H412.02v-1.40039h5.80127v1.40039h-2.06055v9.30273h2.06055v1.41992H412.02v-1.41992Z" fill="#e9a460"/><path d="M423.28027,263.08789a16.64819,16.64819,0,0,0-2.30029-8.60156l1.02-.48047a16.93847,16.93847,0,0,1,0,18.16406l-1.02-.47949A16.64919,16.64919,0,0,0,423.28027,263.08789Z" fill="#e9a460"/><path d="M563.08252,255.52637v1.40039h-5.90088v4.4414h5.001v1.40039h-5.001v5.88086H555.521v-13.123Z" fill="#e9a460"/><path d="M566.20117,258.92773l.14014,1.75977h.06006a3.32566,3.32566,0,0,1,2.76074-2,2.4049,2.4049,0,0,1,1.04.2002l-.31983,1.44042a2.711,2.711,0,0,0-.94043-.16015c-.82031,0-1.80029.59961-2.46044,2.24023v6.24121h-1.64063v-9.72168Z" fill="#e9a460"/><path d="M570.86084,263.80859c0-3.26074,2.12012-5.12109,4.501-5.12109,2.38037,0,4.50048,1.86035,4.50048,5.12109,0,3.22071-2.12011,5.08106-4.50048,5.08106C572.981,268.88965,570.86084,267.0293,570.86084,263.80859Zm7.30127,0c0-2.24023-1.12012-3.76074-2.80029-3.76074-1.66065,0-2.80078,1.52051-2.80078,3.76074,0,2.22071,1.14013,3.72071,2.80078,3.72071C577.042,267.5293,578.16211,266.0293,578.16211,263.80859Z" fill="#e9a460"/><path d="M583.78076,258.92773l.14014,1.40039h.06006a4.27033,4.27033,0,0,1,3.0205-1.64062,2.55116,2.55116,0,0,1,2.68067,1.86035,4.59165,4.59165,0,0,1,3.20068-1.86035c2.00049,0,2.96045,1.32031,2.96045,3.80078v6.16113h-1.64014V262.708c0-1.82031-.58007-2.60059-1.80029-2.60059a3.56681,3.56681,0,0,0-2.44043,1.5v7.042h-1.64062V262.708c0-1.82031-.58008-2.60059-1.82032-2.60059a3.64684,3.64684,0,0,0-2.44042,1.5v7.042h-1.64063v-9.72168Z" fill="#e9a460"/><path d="M605.84131,267.22949v-9.30273h-2.08057v-1.40039H609.562v1.40039h-2.06055v9.30273H609.562v1.41992h-5.80127v-1.41992Zm7.60156,0v-9.30273H611.3623v-1.40039h5.80127v1.40039h-2.06005v9.30273h2.06005v1.41992H611.3623v-1.41992Z" fill="#e9a460"/><path d="M625.2002,263.08789a16.638,16.638,0,0,1,2.64062-9.082l1.02051.48047a17.23086,17.23086,0,0,0,0,17.2041l-1.02051.47949A16.6355,16.6355,0,0,1,625.2002,263.08789Z" fill="#e9a460"/><path d="M634.10059,267.22949v-9.30273H632.02v-1.40039h5.80127v1.40039h-2.06055v9.30273h2.06055v1.41992H632.02v-1.41992Z" fill="#e9a460"/><path d="M643.28027,263.08789a16.64819,16.64819,0,0,0-2.30029-8.60156l1.02-.48047a16.93847,16.93847,0,0,1,0,18.16406l-1.02-.47949A16.64919,16.64919,0,0,0,643.28027,263.08789Z" fill="#e9a460"/><path d="M776.42139,255.52637h4.10107c2.68066,0,4.60108.96,4.60108,3.68066a3.58271,3.58271,0,0,1-2.96094,3.7207l3.34082,5.72168h-1.88037l-3.16065-5.541H778.082v5.541h-1.66064Zm3.86084,6.22168c2.04052,0,3.18066-.83985,3.18066-2.541,0-1.71973-1.14014-2.33984-3.18066-2.33984H778.082v4.88086Z" fill="#e9a460"/><path d="M786.72119,263.80859c0-3.18066,2.14014-5.12109,4.36084-5.12109,2.48047,0,3.88086,1.78027,3.88086,4.56055a6.36311,6.36311,0,0,1-.06006.94043h-6.56152c.12012,2.06054,1.38037,3.38086,3.24072,3.38086a4.38618,4.38618,0,0,0,2.42041-.76075l.58008,1.08106a5.78912,5.78912,0,0,1-3.20068,1C788.78125,268.88965,786.72119,266.98926,786.72119,263.80859Zm6.80127-.80078c0-1.96-.88037-3.02051-2.40039-3.02051-1.36035,0-2.60059,1.10059-2.80078,3.02051Z" fill="#e9a460"/><path d="M796.06055,258.92773h1.70019l1.84033,5.52051c.28028.96094.6001,1.94043.90039,2.86133h.08008c.27979-.9209.6001-1.90039.87989-2.86133l1.84033-5.52051h1.6206l-3.44091,9.72168H799.561Z" fill="#e9a460"/><path d="M806.001,263.80859c0-3.18066,2.14013-5.12109,4.36084-5.12109,2.48047,0,3.88086,1.78027,3.88086,4.56055a6.36311,6.36311,0,0,1-.06006.94043h-6.56153c.12012,2.06054,1.38037,3.38086,3.24073,3.38086a4.38621,4.38621,0,0,0,2.42041-.76075l.58007,1.08106a5.78912,5.78912,0,0,1-3.20068,1C808.061,268.88965,806.001,266.98926,806.001,263.80859Zm6.80127-.80078c0-1.96-.88037-3.02051-2.40039-3.02051-1.36036,0-2.60059,1.10059-2.80079,3.02051Z" fill="#e9a460"/><path d="M816.64014,258.92773h1.36035l.14013,1.75977h.06006a3.32569,3.32569,0,0,1,2.76075-2,2.40482,2.40482,0,0,1,1.04.2002l-.31982,1.44042a2.711,2.711,0,0,0-.94043-.16015c-.82031,0-1.80029.59961-2.46045,2.24023v6.24121h-1.64062Z" fill="#e9a460"/><path d="M825.10059,267.64941h-.06006l-.14014,1h-1.32031V254.40625h1.64062v3.88086l-.04,1.76074a4.804,4.804,0,0,1,3.04053-1.36035c2.52051,0,3.86084,1.94043,3.86084,4.94043,0,3.32129-1.98047,5.26172-4.20068,5.26172A4.3571,4.3571,0,0,1,825.10059,267.64941Zm5.28125-4.001c0-2.14063-.72022-3.58106-2.56055-3.58106a4.00688,4.00688,0,0,0-2.60059,1.32032v5.10156a3.80342,3.80342,0,0,0,2.38037,1.01953C829.20166,267.50879,830.38184,266.04883,830.38184,263.64844Z" fill="#e9a460"/><path d="M838.7998,255.52637h2.00049l2.52051,7.002c.32031.90039.62012,1.83984.94043,2.74023h.08008c.31982-.90039.58008-1.83984.8999-2.74023l2.48047-7.002h2.02051v13.123h-1.56006v-7.22168c0-1.16015.13965-2.7207.21973-3.88085h-.08008l-1.04,2.98046-2.48047,6.80176h-1.1001l-2.481-6.80176-1.04-2.98046h-.08008c.08008,1.16015.20019,2.7207.20019,3.88085v7.22168H838.7998Z" fill="#e9a460"/><path d="M852.87988,255.86621a1.1432,1.1432,0,0,1,2.28028,0,1.14313,1.14313,0,0,1-2.28028,0Zm.29981,3.06152h1.64062v9.72168h-1.64062Z" fill="#e9a460"/><path d="M859.91992,263.56836l-2.94092-4.64063h1.78028l1.30029,2.13965c.30029.52051.62012,1.08106.96045,1.6211h.08008c.27978-.54.58008-1.10059.87988-1.6211l1.18066-2.13965h1.72022l-2.94092,4.82032,3.16065,4.90136h-1.78028l-1.41992-2.26074c-.34033-.58008-.70019-1.17969-1.06055-1.74023h-.08007c-.33985.56054-.66016,1.14062-.98,1.74023l-1.32032,2.26074h-1.72021Z" fill="#e9a460"/><path d="M697.44336,366.52637v1.40039h-5.90088v4.4414h5.001v1.40039h-5.001v5.88086h-1.66064v-13.123Z" fill="#e9a460"/><path d="M700.562,369.92773l.14014,1.75977h.06006a3.32566,3.32566,0,0,1,2.76074-2,2.4049,2.4049,0,0,1,1.04.2002l-.31983,1.44042a2.711,2.711,0,0,0-.94043-.16015c-.82031,0-1.80029.59961-2.46044,2.24023v6.24121h-1.64063v-9.72168Z" fill="#e9a460"/><path d="M705.22168,374.80859c0-3.26074,2.12012-5.12109,4.501-5.12109,2.38037,0,4.501,1.86035,4.501,5.12109,0,3.22071-2.1206,5.08106-4.501,5.08106C707.3418,379.88965,705.22168,378.0293,705.22168,374.80859Zm7.30127,0c0-2.24023-1.12012-3.76074-2.80029-3.76074-1.66065,0-2.80078,1.52051-2.80078,3.76074,0,2.22071,1.14013,3.72071,2.80078,3.72071C711.40283,378.5293,712.523,377.0293,712.523,374.80859Z" fill="#e9a460"/><path d="M718.1416,369.92773l.14014,1.40039h.06006a4.27033,4.27033,0,0,1,3.0205-1.64062,2.55116,2.55116,0,0,1,2.68067,1.86035,4.59259,4.59259,0,0,1,3.20068-1.86035c2.00049,0,2.96045,1.32031,2.96045,3.80078v6.16113H728.564V373.708c0-1.82031-.58007-2.60059-1.80029-2.60059a3.56681,3.56681,0,0,0-2.44043,1.5v7.042h-1.64062V373.708c0-1.82031-.58008-2.60059-1.82032-2.60059a3.64684,3.64684,0,0,0-2.44042,1.5v7.042h-1.64063v-9.72168Z" fill="#e9a460"/><path d="M740.20215,378.22949v-9.30273h-2.08057v-1.40039h5.80127v1.40039H741.8623v9.30273h2.06055v1.41992h-5.80127v-1.41992Zm7.60156,0v-9.30273h-2.08057v-1.40039h5.80127v1.40039h-2.06v9.30273h2.06v1.41992h-5.80127v-1.41992Z" fill="#e9a460"/><path d="M894.92334,366.52637v1.40039h-5.90088v4.4414h5.001v1.40039h-5.001v5.88086h-1.66064v-13.123Z" fill="#e9a460"/><path d="M898.042,369.92773l.14014,1.75977h.06006a3.32566,3.32566,0,0,1,2.76074-2,2.4049,2.4049,0,0,1,1.04.2002l-.31983,1.44042a2.711,2.711,0,0,0-.94043-.16015c-.82031,0-1.80029.59961-2.46044,2.24023v6.24121h-1.64063v-9.72168Z" fill="#e9a460"/><path d="M902.70166,374.80859c0-3.26074,2.12012-5.12109,4.501-5.12109,2.38037,0,4.501,1.86035,4.501,5.12109,0,3.22071-2.1206,5.08106-4.501,5.08106C904.82178,379.88965,902.70166,378.0293,902.70166,374.80859Zm7.30127,0c0-2.24023-1.12012-3.76074-2.80029-3.76074-1.66065,0-2.80078,1.52051-2.80078,3.76074,0,2.22071,1.14013,3.72071,2.80078,3.72071C908.88281,378.5293,910.00293,377.0293,910.00293,374.80859Z" fill="#e9a460"/><path d="M915.62158,369.92773l.14014,1.40039h.06006a4.27033,4.27033,0,0,1,3.02051-1.64062,2.55116,2.55116,0,0,1,2.68066,1.86035,4.59259,4.59259,0,0,1,3.20068-1.86035c2.00049,0,2.96045,1.32031,2.96045,3.80078v6.16113H926.044V373.708c0-1.82031-.58008-2.60059-1.8003-2.60059a3.56681,3.56681,0,0,0-2.44043,1.5v7.042H920.1626V373.708c0-1.82031-.58008-2.60059-1.82031-2.60059a3.64683,3.64683,0,0,0-2.44043,1.5v7.042h-1.64063v-9.72168Z" fill="#e9a460"/><path d="M937.68213,378.22949v-9.30273h-2.08057v-1.40039h5.80127v1.40039h-2.06054v9.30273h2.06054v1.41992h-5.80127v-1.41992Zm7.60156,0v-9.30273h-2.08057v-1.40039h5.80127v1.40039h-2.06v9.30273h2.06v1.41992h-5.80127v-1.41992Z" fill="#e9a460"/></svg>