<svg xmlns="http://www.w3.org/2000/svg" viewBox="0 0 280 150">
  <title>pedal-setup WEB</title>
  <g>
    <rect width="280" height="150" fill="#4d4d4d"/>
    <g>
      <path d="M180.627,18.52441h-2.25488V17.71h5.48926v.81445H181.5957V25.125H180.627Z" fill="#e6e6e6"/>
      <path d="M185.59863,18.30371a.59963.59963,0,0,1-1.19922,0,.59017.59017,0,0,1,.60547-.60449A.5739.5739,0,0,1,185.59863,18.30371ZM184.52051,25.125V19.7998h.96875V25.125Z" fill="#e6e6e6"/>
      <path d="M187.09473,21.53809c0-.68164-.02149-1.23145-.04395-1.73829h.86914l.04395.91309h.02246a2.09377,2.09377,0,0,1,1.89258-1.0332c1.28711,0,2.25488,1.08886,2.25488,2.706,0,1.91406-1.166,2.86035-2.41992,2.86035a1.86983,1.86983,0,0,1-1.63965-.83593h-.02149v2.89355h-.958Zm.958,1.41992a2.13949,2.13949,0,0,0,.04395.39551,1.49413,1.49413,0,0,0,1.45215,1.13378c1.02246,0,1.61719-.83691,1.61719-2.05761,0-1.06739-.56153-1.98047-1.585-1.98047a1.67436,1.67436,0,0,0-1.52832,1.5957Z" fill="#e6e6e6"/>
      <path d="M179.21875,31.80859a10.01719,10.01719,0,0,1,1.83789-.15332,3.03175,3.03175,0,0,1,2.14453.6045,1.84653,1.84653,0,0,1,.583,1.4082,1.94589,1.94589,0,0,1-1.39648,1.89258v.0332a1.84841,1.84841,0,0,1,1.08886,1.49609,11.783,11.783,0,0,0,.57227,2.03516h-.99024a9.58046,9.58046,0,0,1-.49511-1.77148c-.21973-1.02247-.61621-1.40821-1.48536-1.44141h-.90234V39.125h-.957Zm.957,3.37793h.97949c1.02344,0,1.67188-.56152,1.67188-1.4082,0-.957-.69238-1.375-1.70508-1.38672a3.93144,3.93144,0,0,0-.94629.08887Z" fill="#e6e6e6"/>
      <path d="M186.292,32.30371a.59963.59963,0,0,1-1.19922,0,.59017.59017,0,0,1,.60547-.60449A.5739.5739,0,0,1,186.292,32.30371ZM185.21387,39.125V33.7998h.96875V39.125Z" fill="#e6e6e6"/>
      <path d="M187.78711,35.24121c0-.5498-.01074-1.001-.044-1.44141h.8584l.05469.88086h.02246a1.95555,1.95555,0,0,1,1.75977-1.001c.7373,0,1.88183.43945,1.88183,2.26562V39.125h-.96875V36.05566c0-.85839-.31836-1.57324-1.23144-1.57324a1.37583,1.37583,0,0,0-1.29883.99024,1.39526,1.39526,0,0,0-.06543.45117V39.125h-.96875Z" fill="#e6e6e6"/>
      <path d="M198.48047,33.7998c-.02149.38575-.04395.81446-.04395,1.46387v3.09082a3.06349,3.06349,0,0,1-.75879,2.43164,2.82342,2.82342,0,0,1-1.93652.63867,3.43944,3.43944,0,0,1-1.77148-.44042l.24218-.73731a3.00782,3.00782,0,0,0,1.5625.418c.99024,0,1.71582-.5166,1.71582-1.85938v-.59375h-.02148a1.90028,1.90028,0,0,1-1.69434.89063,2.38005,2.38005,0,0,1-2.2666-2.5957,2.5557,2.5557,0,0,1,2.39844-2.82715,1.76976,1.76976,0,0,1,1.66113.92383h.02246l.04395-.80372Zm-1.001,2.10157a1.3761,1.3761,0,0,0-.05469-.43946,1.39539,1.39539,0,0,0-1.35351-1.02343c-.92383,0-1.584.78125-1.584,2.01269,0,1.0459.52735,1.915,1.57325,1.915a1.415,1.415,0,0,0,1.34179-.99023,1.69741,1.69741,0,0,0,.07715-.51758Z" fill="#e6e6e6"/>
      <path d="M179.08691,51.959a3.39256,3.39256,0,0,0,1.71582.48438c.9795,0,1.55176-.51758,1.55176-1.26563,0-.69335-.39648-1.08886-1.39746-1.47461-1.21-.42871-1.958-1.05566-1.958-2.10058a2.135,2.135,0,0,1,2.39844-2.01367,3.362,3.362,0,0,1,1.63867.36328l-.26367.78125a2.94417,2.94417,0,0,0-1.4082-.35254c-1.01172,0-1.39746.60547-1.39746,1.11133,0,.69336.45117,1.03418,1.47461,1.43066,1.2539.4834,1.89257,1.08887,1.89257,2.17774,0,1.14453-.84765,2.13476-2.59668,2.13476a3.82846,3.82846,0,0,1-1.89257-.47363Z" fill="#e6e6e6"/>
      <path d="M184.6084,45.31348h.96875V53.125h-.96875Z" fill="#e6e6e6"/>
      <path d="M187.74316,50.63867a1.70651,1.70651,0,0,0,1.82715,1.84863,3.49611,3.49611,0,0,0,1.47364-.27539l.165.69336a4.32289,4.32289,0,0,1-1.77148.33008,2.47285,2.47285,0,0,1-2.61816-2.68457,2.5846,2.5846,0,0,1,2.49707-2.87109,2.256,2.256,0,0,1,2.20117,2.50781,3.688,3.688,0,0,1-.0332.45117Zm2.83887-.69336a1.37839,1.37839,0,0,0-1.3418-1.57324,1.60462,1.60462,0,0,0-1.48535,1.57324Z" fill="#e6e6e6"/>
      <path d="M193.25391,50.63867a1.70625,1.70625,0,0,0,1.82617,1.84863,3.49776,3.49776,0,0,0,1.47461-.27539l.165.69336a4.32294,4.32294,0,0,1-1.77149.33008,2.47285,2.47285,0,0,1-2.61816-2.68457,2.5846,2.5846,0,0,1,2.49707-2.87109,2.256,2.256,0,0,1,2.20117,2.50781,3.688,3.688,0,0,1-.0332.45117Zm2.83886-.69336a1.37839,1.37839,0,0,0-1.34179-1.57324,1.60462,1.60462,0,0,0-1.48536,1.57324Z" fill="#e6e6e6"/>
      <path d="M198.60059,47.7998l1.04589,2.99317a13.75588,13.75588,0,0,1,.42872,1.36426h.0332c.12109-.44043.27441-.88086.45117-1.36426l1.03418-2.99317h1.01172l-2.08985,5.3252h-.9248l-2.02441-5.3252Z" fill="#e6e6e6"/>
      <path d="M203.94629,50.63867a1.70651,1.70651,0,0,0,1.82715,1.84863,3.49606,3.49606,0,0,0,1.47363-.27539l.165.69336a4.32294,4.32294,0,0,1-1.77149.33008,2.47285,2.47285,0,0,1-2.61816-2.68457,2.5846,2.5846,0,0,1,2.49707-2.87109,2.256,2.256,0,0,1,2.20117,2.50781,3.688,3.688,0,0,1-.0332.45117Zm2.83887-.69336a1.37839,1.37839,0,0,0-1.3418-1.57324,1.60462,1.60462,0,0,0-1.48535,1.57324Z" fill="#e6e6e6"/>
    </g>
    <path d="M168.66667,134.10484H243a6,6,0,0,0,6-6V94.6375" fill="none" stroke="#000" stroke-miterlimit="10" stroke-width="2.6"/>
    <rect x="246.09091" y="29.14881" width="5.81818" height="4.83543"/>
    <rect x="246.09091" y="39.52531" width="5.81818" height="3.58984"/>
    <path d="M252.63636,79.54h-7.27272V43.47133a1,1,0,0,1,1-1h5.27272a1,1,0,0,1,1,1Z" fill="#e6e6e6"/>
    <path d="M251.63636,29.64349h-5.27272a1,1,0,0,1-1-1V27.12431h7.27272v1.51918A1,1,0,0,1,251.63636,29.64349Z" fill="#e6e6e6"/>
    <rect x="245.36364" y="32.99451" width="7.27273" height="7.27273" rx="1" ry="1" fill="#e6e6e6"/>
    <rect x="243.54545" y="59.82531" width="10.90909" height="55.35102" fill="#1a1a1a"/>
    <polygon points="251.182 25.475 252.636 27.124 249 27.124 245.364 27.124 246.818 25.475 251.182 25.475" fill="#999"/>
    <polygon points="253 21.28 251.182 25.475 246.818 25.475 245 21.28 253 21.28" fill="#666"/>
    <path d="M245,21.27986l3.46186-4.8626a.72727.72727,0,0,1,1.07628,0L253,21.27986Z" fill="#e6e6e6"/>
    <g>
      <path d="M242.4541,117.18945a1.556,1.556,0,0,1-1.55371-1.55468V64.26172a.82409.82409,0,0,1,.57617-.78809l3.49317-1.11133,4.02539-.18652,4.00976.18262,3.51856,1.11523a.82409.82409,0,0,1,.57617.78809v51.37305a1.556,1.556,0,0,1-1.55371,1.55468Z" fill="#1a1a1a"/>
      <path d="M249,62.27588l4,.18164,3.49329,1.11157A.72738.72738,0,0,1,257,64.26221V115.635a1.45447,1.45447,0,0,1-1.45459,1.45435H242.45459A1.45447,1.45447,0,0,1,241,115.635V64.26221a.72738.72738,0,0,1,.50671-.69312L245,62.45752l4-.18164m0-.2002-.009.00049-4,.18164-.02649.00122-.02515.00782L241.446,63.37842a.92416.92416,0,0,0-.646.88379V115.635a1.65632,1.65632,0,0,0,1.65454,1.6543h13.09082A1.65632,1.65632,0,0,0,257.2,115.635V64.26221a.92416.92416,0,0,0-.646-.88379l-3.49329-1.11157-.02515-.00782-.02649-.00122-4-.18164L249,62.07568Z"/>
    </g>
    <path d="M245,117.08945h-2.54545A1.45454,1.45454,0,0,1,241,115.63491V64.26216a.72726.72726,0,0,1,.50676-.693L245,62.45764Z" fill="#4d4d4d"/>
    <polygon points="253 117.089 249 117.089 245 117.089 245 62.458 249 62.276 253 62.458 253 117.089" fill="#333"/>
    <g>
      <path d="M32.74822,114.17307l75.935.90136a.89631.89631,0,0,0,.8858-.90136v-2.93891a.89632.89632,0,0,0-.8858-.90137l-75.935-4.50684a2.18,2.18,0,0,0-1.454,1.46955v5.408A2.18,2.18,0,0,0,32.74822,114.17307Z" fill="#1a1a1a"/>
      <path d="M33.6769,111.205l74.06369.96127c.47518,0,.864-.1602.864-.356v-.83378c0-.19579-.38879-.356-.864-.356L33.6769,107.0058c-.47518,0-1.41815.38459-1.41815.58038v3.03844C32.25875,110.82041,33.20172,111.205,33.6769,111.205Z" fill="#f2f2f2"/>
      <path d="M85.97224,130.10484H166.766L161.03056,109.189c-.76679-2.79635-3.74769-4.77914-7.18488-4.77914H85.97224Z" stroke="#000" stroke-miterlimit="10" stroke-width="0.2"/>
      <path d="M88.63375,130.10484h74l-5.25312-19.34992c-.70231-2.587-3.43256-4.42133-6.58073-4.42133H88.63375Z" fill="#1a1a1a"/>
      <rect x="22.44777" y="130.10484" width="150" height="8" rx="2" ry="2" transform="translate(194.89554 268.20968) rotate(180)" fill="#1a1a1a" stroke="#000" stroke-miterlimit="10" stroke-width="0.2"/>
    </g>
    <line x1="241" y1="22.50491" x2="202.75" y2="22.50491" fill="none" stroke="#e6e6e6" stroke-miterlimit="10" stroke-width="0.7"/>
    <line x1="241" y1="36.50491" x2="202.75" y2="36.50491" fill="none" stroke="#e6e6e6" stroke-miterlimit="10" stroke-width="0.7"/>
    <line x1="241" y1="50.50491" x2="212.63574" y2="50.50491" fill="none" stroke="#e6e6e6" stroke-miterlimit="10" stroke-width="0.7"/>
  </g>
</svg>
