<svg xmlns="http://www.w3.org/2000/svg" width="38" height="38" viewBox="0 0 38 38">
  <defs>
    <style>
      .a {
        fill: #4d4d4d;
      }

      .b {
        fill: #666;
      }

      .c {
        fill: #333;
      }

      .d {
        fill: #ccc;
      }

      .e {
        fill: #999;
      }

      .f {
        fill: #e6e6e6;
      }
    </style>
  </defs>
  <title>Fade-Edit-Btn_Enabled</title>
  <g>
    <rect class="a" x="0.5" y="0.5" width="37" height="37" rx="3.5" ry="3.5"/>
    <path class="b" d="M34,1a3.00338,3.00338,0,0,1,3,3V34a3.00338,3.00338,0,0,1-3,3H4a3.00337,3.00337,0,0,1-3-3V4A3.00337,3.00337,0,0,1,4,1H34m0-1H4A4,4,0,0,0,0,4V34a4,4,0,0,0,4,4H34a4,4,0,0,0,4-4V4a4,4,0,0,0-4-4Z"/>
  </g>
  <g>
    <rect x="6.5" y="11.5" width="25" height="15"/>
    <path class="c" d="M31,12V26H7V12H31m1-1H6V27H32V11Z"/>
    <path class="d" d="M30,13V25H8V13H30m1-1H7V26H31V12Z"/>
  </g>
  <polygon class="e" points="14 14 9 14 9 24 24 24 14 14"/>
  <polygon class="e" points="24 14 29 14 29 24 14 24 24 14"/>
  <polygon class="f" points="19 19 14 24 24 24 19 19"/>
</svg>
