<svg xmlns="http://www.w3.org/2000/svg" width="70" height="80" viewBox="0 0 70 80">
  <defs>
    <style>
      .a {
        fill: #666;
      }

      .b {
        stroke: #000;
        stroke-miterlimit: 10;
        stroke-width: 0.4px;
      }
    </style>
  </defs>
  <title>Layer_FX_B</title>
  <path class="a" d="M60,60l-3,3,5,5H53q-6,0-9-6L20,9C18,4,12,0,7,0H0V4H7q6,0,9,6L40,63c2,5,8,9,13,9h9l-5,5,3,3L70,70Z"/>
  <rect class="a" x="13" y="25" width="34" height="22" rx="4" ry="4"/>
  <g>
    <path class="b" d="M35.849,36.6656l-2.78537,6.13616H30.38115l4.00528-7.02416-3.95332-6.60729H33.3416l2.46152,5.30658h.368l2.46153-5.30658h2.90849L37.58779,35.7776l4.10528,7.02416H38.91055L36.07306,36.6656Z"/>
    <path class="b" d="M27.56807,29.17031v2.15762H21.71016v3.88428h4.99707v1.95761H21.71016v5.63194H19.27461V29.17031Z"/>
  </g>
</svg>
