<svg xmlns="http://www.w3.org/2000/svg" width="51" height="96" viewBox="0 0 51 96">
  <defs>
    <style>
      .a {
        fill: #666;
      }

      .b {
        stroke: #000;
        stroke-miterlimit: 10;
        stroke-width: 0.4px;
      }
    </style>
  </defs>
  <title>Layer_FB_C</title>
  <path class="a" d="M21,92H51v4H21A13.67073,13.67073,0,0,1,7,82V22A13.67073,13.67073,0,0,1,21,8H40L35,3l3-3L48,10,38,20l-3-3,5-5H21c-6,0-10,4-10,10V82C11,88,15,92,21,92Z"/>
  <path class="a" d="M31,28H51V24H31c-4.9624,0-8,3-8,8V72c0,4.9624,3.0376,8,8,8h9l-5,5,3,3L48,78,38,68l-3,3,5,5H31c-2.75684,0-4-1.24316-4-4V32C27,29,28,28,31,28Z"/>
  <rect class="a" y="41" width="34" height="22" rx="4" ry="4"/>
  <g>
    <path class="b" d="M14.66807,45.17031v2.15762H8.81016v3.88428h4.99707v1.95761H8.81016v5.63194H6.37461V45.17031Z"/>
    <path class="b" d="M22.52256,45.17031c2.83447,0,4.91308.86084,4.91308,3.38037A3.3677,3.3677,0,0,1,25.225,51.53213v.084a3.38851,3.38851,0,0,1,2.92451,3.2544c0,2.75049-1.99326,3.93668-5.27,3.93125H18.13437V45.17031Zm2.51953,3.83731c0-1.77429-.66709-2.04766-2.6875-2.04766H20.56992v3.9793H22.3126C24.40625,51.03926,25.04209,50.70417,25.04209,49.00762Zm.73486,5.93691c0-1.18206-1.09179-2.17861-3.14941-2.17861H20.56992v4.14619h2.05762C24.6875,56.94794,25.777,56.47725,25.777,54.94453Z"/>
  </g>
</svg>
