<svg xmlns="http://www.w3.org/2000/svg" width="51" height="80" viewBox="0 0 51 80">
  <defs>
    <style>
      .a {
        fill: #666;
      }

      .b {
        stroke: #000;
        stroke-miterlimit: 10;
        stroke-width: 0.4px;
      }
    </style>
  </defs>
  <title>Layer_FB_B</title>
  <path class="a" d="M24,4H51V0H24a8.96258,8.96258,0,0,0-9,9V63a8.96258,8.96258,0,0,0,9,9H40l-5,5,3,3L48,70,38,60l-3,3,5,5H24a4.72387,4.72387,0,0,1-5-5V9A4.72387,4.72387,0,0,1,24,4Z"/>
  <rect class="a" y="25" width="34" height="22" rx="4" ry="4"/>
  <g>
    <path class="b" d="M14.66807,29.17031v2.15762H8.81016v3.88428h4.99707v1.95761H8.81016v5.63194H6.37461V29.17031Z"/>
    <path class="b" d="M22.52256,29.17031c2.83447,0,4.91308.86084,4.91308,3.38037A3.3677,3.3677,0,0,1,25.225,35.53213v.084a3.38851,3.38851,0,0,1,2.92451,3.2544c0,2.75049-1.99326,3.93668-5.27,3.93125H18.13437V29.17031Zm2.51953,3.83731c0-1.77429-.66709-2.04766-2.6875-2.04766H20.56992v3.9793H22.3126C24.40625,35.03926,25.04209,34.70417,25.04209,33.00762Zm.73486,5.93691c0-1.18206-1.09179-2.17861-3.14941-2.17861H20.56992v4.14619h2.05762C24.6875,40.94794,25.777,40.47725,25.777,38.94453Z"/>
  </g>
</svg>
