<svg xmlns="http://www.w3.org/2000/svg" width="70" height="80" viewBox="0 0 70 80">
  <defs>
    <style>
      .a {
        fill: #666;
      }

      .b {
        stroke: #000;
        stroke-miterlimit: 10;
        stroke-width: 0.4px;
      }
    </style>
  </defs>
  <title>Layer_FX_A</title>
  <path class="a" d="M60,20l-3-3,5-5H53q-6,0-9,6L20,71c-2,5-8,9-13,9H0V76H7q6,0,9-6L40,17c2-5,8-9,13-9h9L57,3l3-3L70,10Z"/>
  <rect class="a" x="13" y="33" width="34" height="22" rx="4" ry="4"/>
  <g>
    <path class="b" d="M35.849,44.6656l-2.78537,6.13616H30.38115l4.00528-7.02416-3.95332-6.60729H33.3416l2.46152,5.30658h.368l2.46153-5.30658h2.90849L37.58779,43.7776l4.10528,7.02416H38.91055L36.07306,44.6656Z"/>
    <path class="b" d="M27.56807,37.17031v2.15762H21.71016v3.88428h4.99707v1.95761H21.71016v5.63194H19.27461V37.17031Z"/>
  </g>
</svg>
