<svg xmlns="http://www.w3.org/2000/svg" width="36" height="36" viewBox="0 0 36 36">
  <defs>
    <style>
      .a {
        fill: gray;
      }

      .b {
        fill: #999;
      }

      .c {
        fill: #e6e6e6;
      }
    </style>
  </defs>
  <title>MC_A_Active</title>
  <g>
    <circle class="a" cx="18" cy="18" r="17"/>
    <path class="b" d="M18,1.5A16.5,16.5,0,1,1,1.5,18,16.51869,16.51869,0,0,1,18,1.5m0-1A17.5,17.5,0,1,0,35.5,18,17.5,17.5,0,0,0,18,.5Z"/>
  </g>
  <path class="c" d="M20.17534,22.36909H15.11872L13.9408,26.42577H11.19268l4.94165-14.98823h3.14038l4.918,14.98823H21.35214Zm-.49442-1.93155s-1.3251-5.28679-1.76471-6.937h-.43529c-.41481,1.67257-1.76253,6.937-1.76253,6.937Z"/>
</svg>
