<svg xmlns="http://www.w3.org/2000/svg" width="36" height="36" viewBox="0 0 36 36">
  <defs>
    <style>
      .a {
        fill: gray;
      }

      .b {
        fill: #999;
      }

      .c {
        fill: #e6e6e6;
      }
    </style>
  </defs>
  <title>MC_D_Active</title>
  <g>
    <circle class="a" cx="18" cy="18" r="17"/>
    <path class="b" d="M18,1.5A16.5,16.5,0,1,1,1.5,18,16.51869,16.51869,0,0,1,18,1.5m0-1A17.5,17.5,0,1,0,35.5,18,17.5,17.5,0,0,0,18,.5Z"/>
  </g>
  <path class="c" d="M12.69268,11.45558h4.19076c4.8175,0,7.68424,2.47826,7.68424,7.43252,0,4.97779-2.86674,7.57027-7.53961,7.57027H12.69268ZM16.6906,24.30152c3.17953,0,5.01034-1.72011,5.01034-5.41342,0-3.66978-1.83081-5.27566-5.01034-5.27566H15.48652V24.30152Z"/>
</svg>
