<svg xmlns="http://www.w3.org/2000/svg" width="62" height="36" viewBox="0 0 62 36">
  <defs>
    <style>
      .a {
        fill: gray;
      }

      .b {
        fill: #b3b3b3;
      }

      .c {
        fill: #e6e6e6;
      }

      .d {
        fill: #ff5e1f;
      }
    </style>
  </defs>
  <title>MC_Low_Aktiv</title>
  <g>
    <path class="a" d="M18,35.5a17.5,17.5,0,0,1,0-35H44a17.5,17.5,0,0,1,0,35Z"/>
    <path class="b" d="M44,1a17,17,0,1,1,0,34H18A17,17,0,0,1,18,1H44m0-1H18A18.05291,18.05291,0,0,0,0,18v0A18.05288,18.05288,0,0,0,18,36H44A18,18,0,0,0,62,18v0A18,18,0,0,0,44,0Z"/>
  </g>
  <rect x="9" y="15" width="44" height="6"/>
  <rect class="c" x="18" y="11" width="26" height="4"/>
  <rect class="c" x="18" y="21" width="26" height="4"/>
  <rect class="d" x="17" y="8" width="4" height="20"/>
</svg>
