<svg xmlns="http://www.w3.org/2000/svg" width="36" height="36" viewBox="0 0 36 36">
  <defs>
    <style>
      .a {
        fill: #333;
      }

      .b {
        fill: none;
        stroke: #000;
        stroke-miterlimit: 10;
        stroke-width: 3px;
      }
    </style>
  </defs>
  <title>Menu_A_Disabled</title>
  <g>
    <rect class="a" x="0.5" y="0.5" width="35" height="35" rx="3.5" ry="3.5"/>
    <path d="M32,1a3.00339,3.00339,0,0,1,3,3V32a3.00339,3.00339,0,0,1-3,3H4a3.00339,3.00339,0,0,1-3-3V4A3.00339,3.00339,0,0,1,4,1H32m0-1H4A4.01176,4.01176,0,0,0,0,4V32a4.01176,4.01176,0,0,0,4,4H32a4.01176,4.01176,0,0,0,4-4V4a4.01176,4.01176,0,0,0-4-4Z"/>
  </g>
  <line class="b" x1="26" y1="17.5" x2="10" y2="17.5"/>
  <line class="b" x1="26" y1="11.5" x2="10" y2="11.5"/>
  <line class="b" x1="26" y1="23.5" x2="10" y2="23.5"/>
</svg>
