<svg xmlns="http://www.w3.org/2000/svg" width="114" height="36" viewBox="0 0 114 36">
  <defs>
    <style>
      .a {
        fill: #4d4d4d;
      }

      .b {
        fill: #666;
      }

      .c {
        fill: #ccc;
      }

      .d {
        fill: none;
        stroke: #ccc;
        stroke-miterlimit: 10;
        stroke-width: 3px;
      }
    </style>
  </defs>
  <title>Menu_Single_Enabled_L</title>
  <g>
    <path class="a" d="M78.5,35.5V.5H110A3.50424,3.50424,0,0,1,113.5,4V32a3.50424,3.50424,0,0,1-3.5,3.5Z"/>
    <path class="b" d="M110,1a3.00337,3.00337,0,0,1,3,3V32a3.00337,3.00337,0,0,1-3,3H79V1h31m0-1H78V36h32a4,4,0,0,0,4-4V4a4,4,0,0,0-4-4Z"/>
  </g>
  <g>
    <path class="a" d="M4,35.5A3.50424,3.50424,0,0,1,.5,32V4A3.50424,3.50424,0,0,1,4,.5H78.5v35Z"/>
    <path class="b" d="M78,1V35H4a3.00339,3.00339,0,0,1-3-3V4A3.00339,3.00339,0,0,1,4,1H78m1-1H4A4,4,0,0,0,0,4V32a4,4,0,0,0,4,4H79V0Z"/>
  </g>
  <g>
    <path class="c" d="M12.53027,22.9668l1.291-1.501a4.94149,4.94149,0,0,0,3.22949,1.40527c1.40625,0,2.166-.62695,2.166-1.5957,0-1.02539-.79785-1.34766-1.91895-1.82324l-1.71-.74121a3.58036,3.58036,0,0,1-2.50684-3.30469c0-1.97656,1.74707-3.49609,4.17872-3.49609a5.47954,5.47954,0,0,1,3.81835,1.57714L19.958,14.89258a4.05252,4.05252,0,0,0-2.69824-1.06348c-1.17774,0-1.95606.55078-1.95606,1.46289,0,.96875.94922,1.3291,1.97559,1.74707l1.69043.70313a3.47758,3.47758,0,0,1,2.50781,3.36328c0,2.01367-1.67188,3.68555-4.46484,3.68555A6.43829,6.43829,0,0,1,12.53027,22.9668Z"/>
    <path class="c" d="M24.25293,12.36621a1.35383,1.35383,0,1,1,1.34863,1.23535A1.25376,1.25376,0,0,1,24.25293,12.36621Zm2.43164,2.86817V24.5625H24.499V15.23438Z"/>
    <path class="c" d="M32.23145,15.23438l.15234,1.2539H32.46a4.33323,4.33323,0,0,1,3.05859-1.48144c1.99415,0,2.86817,1.34863,2.86817,3.7041V24.5625H36.20215V18.99609c0-1.53906-.43653-2.10839-1.46289-2.10839a2.95511,2.95511,0,0,0-2.127,1.15918V24.5625H30.42676V15.23438Z"/>
    <path class="c" d="M41.38965,26.25391a2.40516,2.40516,0,0,1,1.33008-1.99512v-.07617a1.75417,1.75417,0,0,1-.83594-1.55762,2.24617,2.24617,0,0,1,1.02637-1.72852v-.07617a3.15018,3.15018,0,0,1-1.21582-2.46972,3.38586,3.38586,0,0,1,3.68554-3.34375,4.20421,4.20421,0,0,1,1.36719.22754h3.34375v1.61523h-1.71a2.49344,2.49344,0,0,1,.53223,1.57617c0,2.07129-1.55762,3.17383-3.53321,3.17383a3.425,3.425,0,0,1-1.27343-.248,1.07419,1.07419,0,0,0-.45606.89258c0,.5332.37988.85547,1.52051.85547h1.65234c2.24219,0,3.41992.68359,3.41992,2.29883,0,1.84277-1.93847,3.28711-4.97754,3.28711C43.043,28.68555,41.38965,27.88672,41.38965,26.25391Zm6.74414-.49414c0-.72266-.58887-.93165-1.65234-.93165H45.209a4.91012,4.91012,0,0,1-1.27343-.13281,1.56784,1.56784,0,0,0-.72168,1.23438c0,.83593.91211,1.33008,2.39355,1.33008C47.1084,27.25977,48.13379,26.55664,48.13379,25.75977Zm-1.13965-7.40918a1.637,1.637,0,1,0-3.248,0,1.64144,1.64144,0,1,0,3.248,0Z"/>
    <path class="c" d="M52.84668,22.169V11.15039h2.18555V22.2832c0,.53125.24609.72168.47461.72168a1.30558,1.30558,0,0,0,.34179-.03808l.28516,1.63379a2.9817,2.9817,0,0,1-1.15918.19043C53.417,24.791,52.84668,23.7832,52.84668,22.169Z"/>
    <path class="c" d="M58.33789,19.9082c0-3.03906,2.1084-4.90136,4.293-4.90136,2.52734,0,3.85644,1.82324,3.85644,4.42675a5.11025,5.11025,0,0,1-.09472,1.06348H60.46582a2.669,2.669,0,0,0,2.75391,2.60254,3.9,3.9,0,0,0,2.166-.68359l.74121,1.36718a5.88037,5.88037,0,0,1-3.1914,1.00782C60.35156,24.791,58.33789,22.98633,58.33789,19.9082Zm4.35059-3.21093a2.3434,2.3434,0,0,0-2.24219,2.31835h4.1416C64.58789,17.57129,63.96094,16.69727,62.68848,16.69727Z"/>
  </g>
  <line class="d" x1="104" y1="17.5" x2="88" y2="17.5"/>
  <line class="d" x1="104" y1="11.5" x2="88" y2="11.5"/>
  <line class="d" x1="104" y1="23.5" x2="88" y2="23.5"/>
</svg>
