<svg xmlns="http://www.w3.org/2000/svg" width="36" height="36" viewBox="0 0 36 36">
  <defs>
    <style>
      .a {
        fill: gray;
      }

      .b {
        fill: #999;
      }

      .c {
        fill: none;
        stroke: #e6e6e6;
        stroke-miterlimit: 10;
        stroke-width: 3px;
      }

      .d {
        fill: #e6e6e6;
      }
    </style>
  </defs>
  <title>Menu_Preset_Active_S</title>
  <g>
    <rect class="a" x="0.5" y="0.5" width="35" height="35" rx="3.5" ry="3.5"/>
    <path class="b" d="M32,1a3.00339,3.00339,0,0,1,3,3V32a3.00339,3.00339,0,0,1-3,3H4a3.00339,3.00339,0,0,1-3-3V4A3.00339,3.00339,0,0,1,4,1H32m0-1H4A4.01176,4.01176,0,0,0,0,4V32a4.01176,4.01176,0,0,0,4,4H32a4.01175,4.01175,0,0,0,4-4V4a4.01175,4.01175,0,0,0-4-4Z"/>
  </g>
  <line class="c" x1="26" y1="12.5" x2="13" y2="12.5"/>
  <line class="c" x1="26" y1="7.5" x2="13" y2="7.5"/>
  <line class="c" x1="25.5" y1="17.5" x2="17" y2="17.5"/>
  <g>
    <path class="d" d="M7.25,30.75V15.25h5.95117c3.86035,0,5.98632,1.85059,5.98632,5.21094,0,3.69726-3.2578,5.35156-6.48632,5.35156H11.542V30.75Zm4.89258-8.583c1.74219,0,2.626-.62011,2.626-1.84277,0-.76367-.20117-1.44922-2.626-1.44922H11.542v3.292Z"/>
    <path class="a" d="M13.20082,16c3.05566,0,5.23639,1.2081,5.23639,4.46127,0,3.10429-2.7446,4.60123-5.73639,4.60123H10.79167V30H8V16h5.20082m-2.40915,6.91666h1.35056c2.09359,0,3.37652-.88047,3.37652-2.59259,0-1.75523-1.3468-2.19907-3.37652-2.19907H10.79167v4.79166M13.20082,14.5H6.5v17h5.79167V26.5625h.40915c4.26068,0,7.23639-2.50892,7.23639-6.10123,0-3.78847-2.45532-5.96127-6.73639-5.96127Zm-.90915,6.915V19.62576c1.72708.01779,1.72708.34862,1.72708.69831,0,.318,0,1.05114-1.72708,1.09091Z"/>
  </g>
</svg>
