<svg xmlns="http://www.w3.org/2000/svg" width="114" height="36" viewBox="0 0 114 36">
  <defs>
    <style>
      .a {
        fill: #4d4d4d;
      }

      .b {
        fill: #666;
      }

      .c {
        fill: #ccc;
      }

      .d {
        fill: none;
        stroke: #ccc;
        stroke-miterlimit: 10;
        stroke-width: 3px;
      }
    </style>
  </defs>
  <title>Menu_Bank_Enabled_L</title>
  <g>
    <path class="a" d="M78.5,35.5V.5H110A3.50424,3.50424,0,0,1,113.5,4V32a3.50424,3.50424,0,0,1-3.5,3.5Z"/>
    <path class="b" d="M110,1a3.00339,3.00339,0,0,1,3,3V32a3.00339,3.00339,0,0,1-3,3H79V1h31m0-1H78V36h32a4,4,0,0,0,4-4V4a4,4,0,0,0-4-4Z"/>
  </g>
  <g>
    <path class="a" d="M4,35.5A3.50424,3.50424,0,0,1,.5,32V4A3.50424,3.50424,0,0,1,4,.5H78.5v35Z"/>
    <path class="b" d="M78,1V35H4a3.0034,3.0034,0,0,1-3-3V4A3.0034,3.0034,0,0,1,4,1H78m1-1H4A4,4,0,0,0,0,4V32a4,4,0,0,0,4,4H79V0Z"/>
  </g>
  <g>
    <path class="c" d="M22.77051,12.13867c2.56445,0,4.44531.77832,4.44531,3.0586a2.80017,2.80017,0,0,1-1.72949,2.69726v.07617a2.837,2.837,0,0,1,2.375,2.94434c0,2.48926-2.03223,3.64746-4.76856,3.64746h-4.293V12.13867Zm2.27929,3.38086c0-1.21484-.8164-1.67187-2.43164-1.67187H21.00391v3.41992h1.57617C24.30859,17.26758,25.0498,16.584,25.0498,15.51953Zm.665,5.28125c0-1.31055-.98828-1.88086-2.84961-1.88086H21.00391v3.93262h1.86132C24.68848,22.85254,25.71484,22.1875,25.71484,20.80078Z"/>
    <path class="c" d="M30.40918,22.05469c0-1.99414,1.65234-3.03907,5.49023-3.457-.03808-.98828-.4375-1.82422-1.71-1.82422a5.31369,5.31369,0,0,0-2.62207.91211l-.79785-1.46289a7.29254,7.29254,0,0,1,3.83789-1.21582c2.31738,0,3.47656,1.4248,3.47656,4.02734V24.5625H36.2793L36.127,23.53711h-.07617A4.53886,4.53886,0,0,1,33.16309,24.791,2.60756,2.60756,0,0,1,30.40918,22.05469Zm5.49023,0V19.96484c-2.54589.32325-3.38183.98828-3.38183,1.919,0,.83594.57031,1.19629,1.34863,1.19629A2.964,2.964,0,0,0,35.89941,22.05469Z"/>
    <path class="c" d="M43.46094,15.23438l.15234,1.2539h.07617a4.33323,4.33323,0,0,1,3.0586-1.48144c1.99414,0,2.86816,1.34863,2.86816,3.7041V24.5625H47.43164V18.99609c0-1.53906-.43652-2.10839-1.46289-2.10839a2.95509,2.95509,0,0,0-2.127,1.15918V24.5625H41.65625V15.23438Z"/>
    <path class="c" d="M55.39355,11.15039v8.37793h.05665l3.457-4.29394h2.39453l-3.19238,3.7998L61.624,24.5625H59.25l-2.39453-4.04688L55.39355,22.1875v2.375H53.24609V11.15039Z"/>
  </g>
  <line class="d" x1="104" y1="17.5" x2="88" y2="17.5"/>
  <line class="d" x1="104" y1="11.5" x2="88" y2="11.5"/>
  <line class="d" x1="104" y1="23.5" x2="88" y2="23.5"/>
</svg>
