<svg xmlns="http://www.w3.org/2000/svg" width="150" height="36" viewBox="0 0 150 36">
  <defs>
    <style>
      .a {
        fill: #333;
      }

      .b {
        fill: none;
        stroke: #000;
        stroke-miterlimit: 10;
        stroke-width: 3px;
      }
    </style>
  </defs>
  <title>Menu_Dir-Load_Disabled</title>
  <g>
    <path class="a" d="M114.5,35.5V.5H146A3.50424,3.50424,0,0,1,149.5,4V32a3.50424,3.50424,0,0,1-3.5,3.5Z"/>
    <path d="M146,1a3.00337,3.00337,0,0,1,3,3V32a3.00337,3.00337,0,0,1-3,3H115V1h31m0-1H114V36h32a4.01175,4.01175,0,0,0,4-4V4a4.01175,4.01175,0,0,0-4-4Z"/>
  </g>
  <g>
    <path class="a" d="M4.82617,35.39648A4.22776,4.22776,0,0,1,.60352,31.17383V4.82617A4.22776,4.22776,0,0,1,4.82617.60352H114.39648v34.793Z"/>
    <path d="M113.79346,1.20653V34.79347H4.82611A3.62366,3.62366,0,0,1,1.20654,31.1739V4.8261A3.62366,3.62366,0,0,1,4.82611,1.20653H113.79346M115,0H4.82611A4.8261,4.8261,0,0,0,0,4.8261V31.1739A4.8261,4.8261,0,0,0,4.82611,36H115V0Z"/>
  </g>
  <g>
    <path d="M11.874,12.13867c3.79981,0,6.041,2.05176,6.041,6.1543,0,4.123-2.24121,6.26953-5.92676,6.26953H8.5498V12.13867ZM15.6543,18.293c0-3.03906-1.42481-4.36914-3.93164-4.36914h-.96875v8.85254h.96875C14.22949,22.77637,15.6543,21.35156,15.6543,18.293Z"/>
    <path d="M20.74805,12.36621a1.35382,1.35382,0,1,1,1.34863,1.23535A1.25432,1.25432,0,0,1,20.74805,12.36621Zm2.43164,2.86914V24.5625H20.99414V15.23535Z"/>
    <path d="M28.53711,15.23535l.15234,1.65235h.07617a3.16864,3.16864,0,0,1,2.64063-1.88086,2.37173,2.37173,0,0,1,1.06348.19043l-.37989,1.89941a3.055,3.055,0,0,0-.96875-.15137c-.74121,0-1.63379.5127-2.20312,1.918V24.5625H26.73242V15.23535Z"/>
    <path d="M33.78125,19.9082c0-3.03906,2.1084-4.90136,4.293-4.90136,2.52734,0,3.85644,1.82421,3.85644,4.42675a5.11025,5.11025,0,0,1-.09472,1.06348H35.90918a2.66962,2.66962,0,0,0,2.75391,2.60254,3.9,3.9,0,0,0,2.166-.68359l.74121,1.36718A5.8877,5.8877,0,0,1,38.37891,24.79C35.79492,24.79,33.78125,22.98535,33.78125,19.9082Zm4.35059-3.21a2.34245,2.34245,0,0,0-2.24219,2.31738h4.1416C40.03125,17.57129,39.4043,16.69824,38.13184,16.69824Z"/>
    <path d="M44.1748,19.9082a4.60082,4.60082,0,0,1,4.67286-4.90136A4.02155,4.02155,0,0,1,51.584,16.05176l-1.06445,1.4248a2.28206,2.28206,0,0,0-1.55762-.68359c-1.501,0-2.54589,1.23437-2.54589,3.11523,0,1.86133,1.02636,3.09668,2.48925,3.09668a3.11492,3.11492,0,0,0,1.91895-.79785l.89258,1.44336a4.65875,4.65875,0,0,1-3.04,1.13965C46.13184,24.79,44.1748,23.00488,44.1748,19.9082Z"/>
    <path d="M54.45312,21.40918V16.96387H53.12305V15.33008l1.44433-.09473.26563-2.5459h1.82422v2.5459h2.374v1.72852h-2.374v4.44531c0,1.10156.418,1.63379,1.31054,1.63379a2.68539,2.68539,0,0,0,.96875-.209l.37989,1.61426A5.96053,5.96053,0,0,1,57.417,24.79C55.251,24.79,54.45312,23.42285,54.45312,21.40918Z"/>
    <path d="M68.70312,12.13867v10.5625h5.167V24.5625H66.499V12.13867Z"/>
    <path d="M75.75195,19.9082c0-3.11523,2.1084-4.90136,4.42578-4.90136,2.33692,0,4.44629,1.78613,4.44629,4.90136,0,3.09668-2.10937,4.88184-4.44629,4.88184C77.86035,24.79,75.75195,23.00488,75.75195,19.9082Zm6.62989,0c0-1.88086-.83594-3.11523-2.20411-3.11523-1.36718,0-2.18457,1.23437-2.18457,3.11523,0,1.86133.81739,3.09668,2.18457,3.09668C81.5459,23.00488,82.38184,21.76953,82.38184,19.9082Z"/>
    <path d="M86.83008,22.05469c0-1.99414,1.65234-3.03907,5.49023-3.457-.03808-.98828-.4375-1.82422-1.71-1.82422a5.31369,5.31369,0,0,0-2.62207.91211l-.79785-1.46289a7.3012,7.3012,0,0,1,3.83789-1.21582c2.31738,0,3.47656,1.4248,3.47656,4.02734V24.5625H92.7002l-.15235-1.02539h-.07617A4.54277,4.54277,0,0,1,89.584,24.79,2.60678,2.60678,0,0,1,86.83008,22.05469Zm5.49023,0V19.96484c-2.5459.32325-3.38183.98828-3.38183,1.919,0,.83594.57031,1.19726,1.34863,1.19726A2.96553,2.96553,0,0,0,92.32031,22.05469Z"/>
    <path d="M97.31738,19.9082c0-3.03906,1.91895-4.90136,3.95117-4.90136a3.4475,3.4475,0,0,1,2.45118,1.02636l-.07618-1.501V11.15039h2.18457V24.5625h-1.80468l-.15235-1.00684h-.07617A3.88725,3.88725,0,0,1,101.1543,24.79C98.81836,24.79,97.31738,22.98535,97.31738,19.9082Zm6.32617,2.03223V17.59082a2.78213,2.78213,0,0,0-1.90039-.7793c-1.19628,0-2.165,1.1211-2.165,3.07813,0,2.01367.75977,3.0957,2.1084,3.0957A2.51684,2.51684,0,0,0,103.64355,21.94043Z"/>
  </g>
  <line class="b" x1="140" y1="17.5" x2="124" y2="17.5"/>
  <line class="b" x1="140" y1="11.5" x2="124" y2="11.5"/>
  <line class="b" x1="140" y1="23.5" x2="124" y2="23.5"/>
</svg>
