<svg xmlns="http://www.w3.org/2000/svg" width="36" height="36" viewBox="0 0 36 36">
  <defs>
    <style>
      .a {
        fill: gray;
      }

      .b {
        fill: #999;
      }

      .c {
        fill: none;
        stroke: #e6e6e6;
        stroke-miterlimit: 10;
        stroke-width: 3px;
      }

      .d {
        fill: #e6e6e6;
      }
    </style>
  </defs>
  <title>Menu_Bank_Active_S</title>
  <g>
    <rect class="a" x="0.25" y="0.5" width="35" height="35" rx="3.5" ry="3.5"/>
    <path class="b" d="M31.75,1a3.00339,3.00339,0,0,1,3,3V32a3.00339,3.00339,0,0,1-3,3h-28a3.00339,3.00339,0,0,1-3-3V4a3.00339,3.00339,0,0,1,3-3h28m0-1h-28a4.01175,4.01175,0,0,0-4,4V32a4.01175,4.01175,0,0,0,4,4h28a4.01175,4.01175,0,0,0,4-4V4a4.01175,4.01175,0,0,0-4-4Z"/>
  </g>
  <line class="c" x1="25" y1="12.5" x2="12" y2="12.5"/>
  <line class="c" x1="25" y1="7.5" x2="12" y2="7.5"/>
  <line class="c" x1="25" y1="17.5" x2="17" y2="17.5"/>
  <g>
    <path class="d" d="M6.22949,30.79V15.21h6.001c4.32617,0,6.51953,1.3916,6.51953,4.13574a3.85418,3.85418,0,0,1-1.63672,3.1045,3.98486,3.98486,0,0,1,2.23633,3.57519c0,2.17383-1.17188,4.76465-6.75391,4.76465Zm6.1084-3.60254c2.25586,0,2.25586-.46777,2.25586-1.17676,0-.6582,0-1.17773-2.25586-1.17773L10.75,24.834V27.1875ZM10.75,21.02344l1.26465-.001c1.01953,0,2.23535-.19922,2.23535-1.14746,0-.43164,0-.96875-2.19238-.96875l-1.30762.001Z"/>
    <path class="a" d="M12.23053,15.96008c2.90634,0,5.76947.60569,5.76947,3.38561a3.37773,3.37773,0,0,1-2.6915,3.137v.08641C16.85919,22.91359,18.6,23.95834,18.6,26.02544c0,3.0579-2.62085,4.01448-6.004,4.01448H6.97916V15.96008h5.25137M10,21.77335l2.0145-.00058C13.97385,21.77277,15,21.08,15,19.875c0-1.37785-1.11255-1.71875-2.94229-1.71875L10,18.15684v3.61651m0,6.16415H12.338c2.06677,0,3.0058-.35539,3.0058-1.92709,0-1.48645-.89581-1.92707-3.0058-1.92707L10,24.08392V27.9375m2.23053-13.47742H5.47916V31.53992H12.596c6.52911,0,7.504-3.455,7.504-5.51448a4.62312,4.62312,0,0,0-1.76947-3.6758A4.55622,4.55622,0,0,0,19.5,19.34569c0-2.22879-1.26117-4.88561-7.26947-4.88561ZM11.5,19.65641l.55814-.00016a4.04843,4.04843,0,0,1,1.44009.16171c.00107.01576.00177.03469.00177.057a.26786.26786,0,0,1-.01053.09171c-.04315.0635-.42242.30606-1.475.30606l-.5145.00015v-.61651Zm0,5.92714.83832-.00021a3.86291,3.86291,0,0,1,1.48388.171,1.21,1.21,0,0,1,.02155.25605,1.366,1.366,0,0,1-.02243.27639,4.33652,4.33652,0,0,1-1.48337.1507H11.5v-.854Z"/>
  </g>
</svg>
