<svg xmlns="http://www.w3.org/2000/svg" width="114" height="36" viewBox="0 0 114 36">
  <defs>
    <style>
      .a {
        fill: #4d4d4d;
      }

      .b {
        fill: #666;
      }

      .c {
        fill: #ccc;
      }

      .d {
        fill: none;
        stroke: #ccc;
        stroke-miterlimit: 10;
        stroke-width: 3px;
      }
    </style>
  </defs>
  <title>Menu_Preset_Enabled_L</title>
  <g>
    <path class="a" d="M78.5,35.5V.5H110A3.50424,3.50424,0,0,1,113.5,4V32a3.50424,3.50424,0,0,1-3.5,3.5Z"/>
    <path class="b" d="M110,1a3.00339,3.00339,0,0,1,3,3V32a3.00339,3.00339,0,0,1-3,3H79V1h31m0-1H78V36h32a4,4,0,0,0,4-4V4a4,4,0,0,0-4-4Z"/>
  </g>
  <g>
    <path class="a" d="M4,35.5A3.50424,3.50424,0,0,1,.5,32V4A3.50424,3.50424,0,0,1,4,.5H78.5v35Z"/>
    <path class="b" d="M78,1V35H4a3.0034,3.0034,0,0,1-3-3V4A3.0034,3.0034,0,0,1,4,1H78m1-1H4A4,4,0,0,0,0,4V32a4,4,0,0,0,4,4H79V0Z"/>
  </g>
  <g>
    <path class="c" d="M16.57617,12.13867c2.75488,0,4.80664.94922,4.80664,3.83692,0,2.75488-2.05176,4.02734-4.73047,4.02734H14.86719V24.5625h-2.2041V12.13867Zm2.64063,3.83692c0-1.55762-.96875-2.07032-2.81153-2.07032H14.86719v4.33106h1.61426C18.32422,18.23633,19.2168,17.49609,19.2168,15.97559Z"/>
    <path class="c" d="M26.28516,15.23438l.15234,1.65332h.07617a3.16864,3.16864,0,0,1,2.64063-1.88086,2.37165,2.37165,0,0,1,1.06347.19043l-.37988,1.89941a3.05509,3.05509,0,0,0-.96875-.15137c-.74121,0-1.63379.51172-2.20312,1.918V24.5625H24.48047V15.23438Z"/>
    <path class="c" d="M31.71973,19.9082c0-3.03906,2.10839-4.90136,4.293-4.90136,2.52734,0,3.85644,1.82324,3.85644,4.42675a5.11014,5.11014,0,0,1-.09473,1.06348H33.84766a2.669,2.669,0,0,0,2.7539,2.60254,3.90009,3.90009,0,0,0,2.166-.68359l.74121,1.36718A5.88041,5.88041,0,0,1,36.31738,24.791C33.7334,24.791,31.71973,22.98633,31.71973,19.9082Zm4.35058-3.21093a2.3434,2.3434,0,0,0-2.24219,2.31835h4.14161C37.96973,17.57129,37.34277,16.69727,36.07031,16.69727Z"/>
    <path class="c" d="M41.97949,23.49805l1.02637-1.40528a4.15308,4.15308,0,0,0,2.583,1.04493c1.00683,0,1.48242-.47559,1.48242-1.12012,0-.7793-1.00684-1.1211-1.99512-1.502-1.23437-.45507-2.62109-1.1582-2.62109-2.71679,0-1.63281,1.31054-2.792,3.40039-2.792a5.03521,5.03521,0,0,1,3.0957,1.12109L47.94434,17.457a3.47169,3.47169,0,0,0-2.05079-.79687c-.93164,0-1.36816.43652-1.36816,1.02539,0,.74023.93066,1.02539,1.9375,1.38672,1.27344.47461,2.67871,1.083,2.67871,2.83007,0,1.59571-1.27246,2.88868-3.6289,2.88868A5.90087,5.90087,0,0,1,41.97949,23.49805Z"/>
    <path class="c" d="M51.44141,19.9082c0-3.03906,2.10839-4.90136,4.293-4.90136,2.52734,0,3.85644,1.82324,3.85644,4.42675a5.11014,5.11014,0,0,1-.09473,1.06348H53.56934a2.669,2.669,0,0,0,2.7539,2.60254,3.90009,3.90009,0,0,0,2.166-.68359l.74121,1.36718A5.88041,5.88041,0,0,1,56.03906,24.791C53.45508,24.791,51.44141,22.98633,51.44141,19.9082ZM55.792,16.69727a2.3434,2.3434,0,0,0-2.24219,2.31835h4.14161C57.69141,17.57129,57.06445,16.69727,55.792,16.69727Z"/>
    <path class="c" d="M62.76465,21.40918V16.96387H61.43457V15.33008l1.44434-.0957.26562-2.54493h1.82422v2.54493h2.374v1.72949h-2.374v4.44531c0,1.10156.418,1.63379,1.31055,1.63379a2.68549,2.68549,0,0,0,.96875-.209l.37988,1.61524a5.98779,5.98779,0,0,1-1.89941.3418C63.5625,24.791,62.76465,23.42285,62.76465,21.40918Z"/>
  </g>
  <line class="d" x1="104" y1="17.5" x2="88" y2="17.5"/>
  <line class="d" x1="104" y1="11.5" x2="88" y2="11.5"/>
  <line class="d" x1="104" y1="23.5" x2="88" y2="23.5"/>
</svg>
