<svg xmlns="http://www.w3.org/2000/svg" width="114" height="36" viewBox="0 0 114 36">
  <defs>
    <style>
      .a {
        fill: #333;
      }

      .b {
        fill: none;
        stroke: #000;
        stroke-miterlimit: 10;
        stroke-width: 3px;
      }
    </style>
  </defs>
  <title>Menu_Info_Disabled_L</title>
  <g>
    <path class="a" d="M78.5,35.5V.5H110A3.50424,3.50424,0,0,1,113.5,4V32a3.50424,3.50424,0,0,1-3.5,3.5Z"/>
    <path d="M110,1a3.00337,3.00337,0,0,1,3,3V32a3.00337,3.00337,0,0,1-3,3H79V1h31m0-1H78V36h32a4.01175,4.01175,0,0,0,4-4V4a4.01175,4.01175,0,0,0-4-4Z"/>
  </g>
  <g>
    <path class="a" d="M4,35.5A3.50424,3.50424,0,0,1,.5,32V4A3.50424,3.50424,0,0,1,4,.5H78.5v35Z"/>
    <path d="M78,1V35H4a3.0034,3.0034,0,0,1-3-3V4A3.0034,3.0034,0,0,1,4,1H78m1-1H4A4,4,0,0,0,0,4V32a4,4,0,0,0,4,4H79V0Z"/>
  </g>
  <g>
    <path d="M25.72559,12.13818V24.5625H23.52148V12.13818Z"/>
    <path d="M31.44336,15.23486l.15234,1.25391h.07618a4.3318,4.3318,0,0,1,3.05859-1.48193c1.99414,0,2.86816,1.34863,2.86816,3.7041V24.5625H35.41406V18.99609c0-1.53857-.43652-2.10839-1.46289-2.10839a2.95338,2.95338,0,0,0-2.12695,1.15918V24.5625H29.63867V15.23486Z"/>
    <path d="M40.35547,16.96387V15.33008l1.25293-.09522v-.96875c0-1.938.89355-3.34375,3.09668-3.34375a4.72291,4.72291,0,0,1,1.71.32325l-.418,1.63378a2.56957,2.56957,0,0,0-1.02539-.228c-.75977,0-1.17773.49365-1.17773,1.57666v1.00683h1.82324v1.729H43.794V24.5625H41.6084V16.96387Z"/>
    <path d="M47.4043,19.9082c0-3.11572,2.1084-4.90136,4.42578-4.90136,2.33691,0,4.44629,1.78564,4.44629,4.90136,0,3.09668-2.10938,4.88184-4.44629,4.88184C49.5127,24.79,47.4043,23.00488,47.4043,19.9082Zm6.62988,0c0-1.88086-.83594-3.11572-2.2041-3.11572-1.36719,0-2.18457,1.23486-2.18457,3.11572,0,1.86133.81738,3.09668,2.18457,3.09668C53.19824,23.00488,54.03418,21.76953,54.03418,19.9082Z"/>
  </g>
  <line class="b" x1="103" y1="26.5" x2="89" y2="26.5"/>
  <polyline class="b" points="90 15.5 96.5 15.5 96.5 26.5"/>
  <path d="M98.1,9a2.27318,2.27318,0,0,0-.56579-1.53421,2.363,2.363,0,0,0-3.06842,0,2.363,2.363,0,0,0,0,3.06842,2.363,2.363,0,0,0,3.06842,0A2.27318,2.27318,0,0,0,98.1,9Z"/>
</svg>
