<svg xmlns="http://www.w3.org/2000/svg" width="150" height="36" viewBox="0 0 150 36">
  <defs>
    <style>
      .a {
        fill: #4d4d4d;
      }

      .b {
        fill: #666;
      }

      .c {
        fill: #ccc;
      }

      .d {
        fill: none;
        stroke: #ccc;
        stroke-miterlimit: 10;
        stroke-width: 3px;
      }
    </style>
  </defs>
  <title>Menu_Load-I_Enabled</title>
  <g>
    <path class="a" d="M114.5,35.5V.5H146A3.50424,3.50424,0,0,1,149.5,4V32a3.50424,3.50424,0,0,1-3.5,3.5Z"/>
    <path class="b" d="M146,1a3.00337,3.00337,0,0,1,3,3V32a3.00337,3.00337,0,0,1-3,3H115V1h31m0-1H114V36h32a4,4,0,0,0,4-4V4a4,4,0,0,0-4-4Z"/>
  </g>
  <g>
    <path class="a" d="M4,35.39648A3.4,3.4,0,0,1,.60352,32V4A3.4,3.4,0,0,1,4,.60352H114.39648v34.793Z"/>
    <path class="b" d="M113.79346,1.20653V34.79347H4A2.79661,2.79661,0,0,1,1.20654,32V4A2.79661,2.79661,0,0,1,4,1.20653H113.79346M115,0H4A4,4,0,0,0,0,4V32a4,4,0,0,0,4,4H115V0Z"/>
  </g>
  <g>
    <path class="c" d="M20.77637,12.13867v10.5625h5.167V24.5625H18.57227V12.13867Z"/>
    <path class="c" d="M27.8252,19.9082c0-3.11523,2.10839-4.90136,4.42578-4.90136,2.33691,0,4.44629,1.78613,4.44629,4.90136,0,3.09668-2.10938,4.88282-4.44629,4.88282C29.93359,24.791,27.8252,23.00488,27.8252,19.9082Zm6.62988,0c0-1.88086-.83594-3.11523-2.2041-3.11523-1.36719,0-2.18457,1.23437-2.18457,3.11523,0,1.86133.81738,3.09668,2.18457,3.09668C33.61914,23.00488,34.45508,21.76953,34.45508,19.9082Z"/>
    <path class="c" d="M38.90234,22.05469c0-1.99414,1.65235-3.03907,5.49024-3.457-.03809-.98828-.4375-1.82422-1.71-1.82422a5.31366,5.31366,0,0,0-2.62207.91211l-.79785-1.46289a7.29248,7.29248,0,0,1,3.83789-1.21582c2.31738,0,3.47656,1.4248,3.47656,4.02734V24.5625H44.77246l-.15234-1.02539H44.544a4.53886,4.53886,0,0,1-2.8877,1.25391A2.60756,2.60756,0,0,1,38.90234,22.05469Zm5.49024,0V19.96484c-2.5459.32325-3.38184.98828-3.38184,1.919,0,.83594.57031,1.19629,1.34864,1.19629A2.96408,2.96408,0,0,0,44.39258,22.05469Z"/>
    <path class="c" d="M49.39062,19.9082c0-3.03906,1.919-4.90136,3.95118-4.90136A3.44749,3.44749,0,0,1,55.793,16.0332l-.07617-1.501V11.15039h2.18457V24.5625H56.09668l-.15234-1.00684h-.07618A3.88411,3.88411,0,0,1,53.22754,24.791C50.8916,24.791,49.39062,22.98633,49.39062,19.9082Zm6.32618,2.03321V17.58984a2.78528,2.78528,0,0,0-1.90039-.77832c-1.19629,0-2.165,1.1211-2.165,3.07715,0,2.01367.75976,3.09766,2.1084,3.09766A2.52271,2.52271,0,0,0,55.7168,21.94141Z"/>
    <path class="c" d="M66.31934,21.40918V16.96387H64.98926V15.33008l1.44433-.0957.26563-2.54493h1.82422v2.54493h2.374v1.72949h-2.374v4.44531c0,1.10156.418,1.63379,1.31054,1.63379a2.68539,2.68539,0,0,0,.96875-.209l.37989,1.61524a5.9878,5.9878,0,0,1-1.89942.3418C67.11719,24.791,66.31934,23.42285,66.31934,21.40918Z"/>
    <path class="c" d="M72.70312,19.9082c0-3.11523,2.1084-4.90136,4.42579-4.90136,2.33691,0,4.44629,1.78613,4.44629,4.90136,0,3.09668-2.10938,4.88282-4.44629,4.88282C74.81152,24.791,72.70312,23.00488,72.70312,19.9082Zm6.62989,0c0-1.88086-.83594-3.11523-2.2041-3.11523-1.36719,0-2.18457,1.23437-2.18457,3.11523,0,1.86133.81738,3.09668,2.18457,3.09668C78.49707,23.00488,79.333,21.76953,79.333,19.9082Z"/>
    <path class="c" d="M91.3418,22.70117v-7.752H89.47949V13.08789H95.3877v1.86133H93.54492v7.752H95.3877V24.5625H89.47949V22.70117Z"/>
  </g>
  <line class="d" x1="140" y1="17.5" x2="124" y2="17.5"/>
  <line class="d" x1="140" y1="11.5" x2="124" y2="11.5"/>
  <line class="d" x1="140" y1="23.5" x2="124" y2="23.5"/>
</svg>
