<svg xmlns="http://www.w3.org/2000/svg" width="150" height="36" viewBox="0 0 150 36">
  <defs>
    <style>
      .a {
        fill: #4d4d4d;
      }

      .b {
        fill: #666;
      }

      .c {
        fill: #ccc;
      }

      .d {
        fill: none;
        stroke: #ccc;
        stroke-miterlimit: 10;
        stroke-width: 3px;
      }
    </style>
  </defs>
  <title>Menu_Select_Enabled</title>
  <g>
    <path class="a" d="M114.5,35.5V.5H146A3.50424,3.50424,0,0,1,149.5,4V32a3.50424,3.50424,0,0,1-3.5,3.5Z"/>
    <path class="b" d="M146,1a3.00337,3.00337,0,0,1,3,3V32a3.00337,3.00337,0,0,1-3,3H115V1h31m0-1H114V36h32a4,4,0,0,0,4-4V4a4,4,0,0,0-4-4Z"/>
  </g>
  <g>
    <path class="a" d="M4.82617,35.39648A4.22776,4.22776,0,0,1,.60352,31.17383V4.82617A4.22776,4.22776,0,0,1,4.82617.60352H114.39648v34.793Z"/>
    <path class="b" d="M113.79346,1.20653V34.79347H4.82611A3.62366,3.62366,0,0,1,1.20654,31.1739V4.8261A3.62366,3.62366,0,0,1,4.82611,1.20653H113.79346M115,0H4.82611A4.8261,4.8261,0,0,0,0,4.8261V31.1739A4.8261,4.8261,0,0,0,4.82611,36H115V0Z"/>
  </g>
  <g>
    <path class="c" d="M9.19629,22.9668l1.291-1.501a4.94154,4.94154,0,0,0,3.2295,1.40527c1.40625,0,2.166-.62695,2.166-1.5957,0-1.02539-.79785-1.34766-1.91894-1.82324l-1.709-.74121a3.57869,3.57869,0,0,1-2.50781-3.30469c0-1.97656,1.74707-3.49609,4.17871-3.49609a5.47956,5.47956,0,0,1,3.81836,1.57714L16.624,14.89258a4.05252,4.05252,0,0,0-2.69824-1.06348c-1.17773,0-1.956.55078-1.956,1.46289,0,.96875.94922,1.3291,1.97558,1.74707l1.69043.70313a3.47758,3.47758,0,0,1,2.50781,3.36328c0,2.01367-1.67187,3.68555-4.46484,3.68555A6.43825,6.43825,0,0,1,9.19629,22.9668Z"/>
    <path class="c" d="M20.36719,19.9082c0-3.03906,2.1084-4.90136,4.293-4.90136,2.52734,0,3.85644,1.82324,3.85644,4.42675a5.11025,5.11025,0,0,1-.09472,1.06348H22.49512a2.669,2.669,0,0,0,2.7539,2.60254,3.9,3.9,0,0,0,2.166-.68359l.74121,1.36718A5.88038,5.88038,0,0,1,24.96484,24.791C22.38086,24.791,20.36719,22.98633,20.36719,19.9082Zm4.35058-3.21093a2.34339,2.34339,0,0,0-2.24218,2.31835h4.1416C26.61719,17.57129,25.99023,16.69727,24.71777,16.69727Z"/>
    <path class="c" d="M31.36816,22.169V11.15039h2.18555V22.2832c0,.53125.24609.72168.47461.72168a1.30561,1.30561,0,0,0,.3418-.03808l.28515,1.63379a2.98166,2.98166,0,0,1-1.15918.19043C31.93848,24.791,31.36816,23.7832,31.36816,22.169Z"/>
    <path class="c" d="M36.66992,19.9082c0-3.03906,2.1084-4.90136,4.293-4.90136,2.52734,0,3.85645,1.82324,3.85645,4.42675a5.11014,5.11014,0,0,1-.09473,1.06348H38.79785a2.669,2.669,0,0,0,2.75391,2.60254,3.9,3.9,0,0,0,2.166-.68359L44.459,23.7832a5.88037,5.88037,0,0,1-3.1914,1.00782C38.68359,24.791,36.66992,22.98633,36.66992,19.9082Zm4.35059-3.21093a2.3434,2.3434,0,0,0-2.24219,2.31835h4.1416C42.91992,17.57129,42.293,16.69727,41.02051,16.69727Z"/>
    <path class="c" d="M47.0625,19.9082a4.60081,4.60081,0,0,1,4.67285-4.90136,4.02156,4.02156,0,0,1,2.73633,1.04492l-1.06445,1.4248a2.2777,2.2777,0,0,0-1.55762-.68359c-1.501,0-2.5459,1.23437-2.5459,3.11523,0,1.86133,1.02637,3.09668,2.48926,3.09668a3.11487,3.11487,0,0,0,1.91894-.79785l.89258,1.44336a4.6598,4.6598,0,0,1-3.04,1.14063C49.01953,24.791,47.0625,23.00488,47.0625,19.9082Z"/>
    <path class="c" d="M57.34082,21.40918V16.96387H56.01074V15.33008l1.44434-.0957.26562-2.54493h1.82422v2.54493h2.374v1.72949h-2.374v4.44531c0,1.10156.418,1.63379,1.31055,1.63379a2.68549,2.68549,0,0,0,.96875-.209l.37988,1.61524a5.98773,5.98773,0,0,1-1.89941.3418C58.13867,24.791,57.34082,23.42285,57.34082,21.40918Z"/>
    <path class="c" d="M68.58887,19.9082c0-3.11523,2.1084-4.90136,4.42578-4.90136,2.33691,0,4.44629,1.78613,4.44629,4.90136,0,3.09668-2.10938,4.88282-4.44629,4.88282C70.69727,24.791,68.58887,23.00488,68.58887,19.9082Zm6.62988,0c0-1.88086-.83594-3.11523-2.2041-3.11523-1.36719,0-2.18457,1.23437-2.18457,3.11523,0,1.86133.81738,3.09668,2.18457,3.09668C74.38281,23.00488,75.21875,21.76953,75.21875,19.9082Z"/>
    <path class="c" d="M82.19238,15.23438l.15235,1.2539h.07617a4.33321,4.33321,0,0,1,3.05859-1.48144c1.99414,0,2.86817,1.34863,2.86817,3.7041V24.5625H86.16309V18.99609c0-1.53906-.43653-2.10839-1.46289-2.10839a2.95511,2.95511,0,0,0-2.127,1.15918V24.5625H80.3877V15.23438Z"/>
    <path class="c" d="M91.78711,22.169V11.15039h2.18555V22.2832c0,.53125.24609.72168.47461.72168a1.30558,1.30558,0,0,0,.34179-.03808l.28516,1.63379A2.9817,2.9817,0,0,1,93.915,24.791C92.35742,24.791,91.78711,23.7832,91.78711,22.169Z"/>
    <path class="c" d="M97.10742,28.21l.39942-1.71a2.30079,2.30079,0,0,0,.665.13281,1.954,1.954,0,0,0,1.86132-1.5957l.1709-.58789-3.666-9.21484h2.22265L100.375,19.8125c.2666.81738.53223,1.748.81738,2.62207h.07617c.22754-.85449.47461-1.78613.70215-2.62207l1.40625-4.57812h2.1084l-3.38086,9.74609c-.77929,2.10937-1.748,3.41992-3.78125,3.41992A3.62341,3.62341,0,0,1,97.10742,28.21Z"/>
  </g>
  <line class="d" x1="140" y1="17.5" x2="124" y2="17.5"/>
  <line class="d" x1="140" y1="11.5" x2="124" y2="11.5"/>
  <line class="d" x1="140" y1="23.5" x2="124" y2="23.5"/>
</svg>
