<svg xmlns="http://www.w3.org/2000/svg" width="114" height="36" viewBox="0 0 114 36">
  <defs>
    <style>
      .a {
        fill: gray;
      }

      .b {
        fill: #999;
      }

      .c {
        fill: #e6e6e6;
      }

      .d {
        fill: none;
        stroke: #e6e6e6;
        stroke-miterlimit: 10;
        stroke-width: 2.5px;
      }
    </style>
  </defs>
  <title>Menu_Search_Active_L</title>
  <g>
    <path class="a" d="M78.5,35.5V.5H110A3.50424,3.50424,0,0,1,113.5,4V32a3.50424,3.50424,0,0,1-3.5,3.5Z"/>
    <path class="b" d="M110,1a3.00337,3.00337,0,0,1,3,3V32a3.00337,3.00337,0,0,1-3,3H79V1h31m0-1H78V36h32a4.01175,4.01175,0,0,0,4-4V4a4.01175,4.01175,0,0,0-4-4Z"/>
  </g>
  <g>
    <path class="a" d="M4,35.5A3.50424,3.50424,0,0,1,.5,32V4A3.50424,3.50424,0,0,1,4,.5H78.5v35Z"/>
    <path class="b" d="M78,1V35H4a3.00342,3.00342,0,0,1-3-3V4A3.00342,3.00342,0,0,1,4,1H78m1-1H4A4,4,0,0,0,0,4V32a4,4,0,0,0,4,4H79V0Z"/>
  </g>
  <g>
    <path class="c" d="M25.72461,12.13867V24.5625H23.52148V12.13867Z"/>
    <path class="c" d="M31.44336,15.23438l.15234,1.2539h.07618a4.33319,4.33319,0,0,1,3.05859-1.48144c1.99414,0,2.86816,1.34863,2.86816,3.7041V24.5625H35.41406V18.99609c0-1.53906-.43652-2.10839-1.46289-2.10839a2.95511,2.95511,0,0,0-2.12695,1.15918V24.5625H29.63867V15.23438Z"/>
    <path class="c" d="M40.35547,16.96387V15.33008l1.25293-.0957v-.96876c0-1.9375.89355-3.34374,3.09668-3.34374a4.70093,4.70093,0,0,1,1.71.32421l-.418,1.63282a2.56849,2.56849,0,0,0-1.02539-.22754c-.75977,0-1.17773.49316-1.17773,1.57715v1.00586h1.82324v1.72949H43.794V24.5625H41.6084V16.96387Z"/>
    <path class="c" d="M47.4043,19.9082c0-3.11523,2.1084-4.90136,4.42578-4.90136,2.33691,0,4.44629,1.78613,4.44629,4.90136,0,3.09668-2.10938,4.88282-4.44629,4.88282C49.5127,24.791,47.4043,23.00488,47.4043,19.9082Zm6.62988,0c0-1.88086-.83594-3.11523-2.2041-3.11523-1.36719,0-2.18457,1.23437-2.18457,3.11523,0,1.86133.81738,3.09668,2.18457,3.09668C53.19824,23.00488,54.03418,21.76953,54.03418,19.9082Z"/>
  </g>
  <circle class="d" cx="94" cy="17" r="7.5"/>
  <path class="c" d="M102.66827,28.21368l-4.30311-5.50315,1.34537-1.34537,5.50315,4.30311a1.20006,1.20006,0,0,1,0,1.69712l-.84829.84829a1.20006,1.20006,0,0,1-1.69712,0Z"/>
</svg>
