<svg xmlns="http://www.w3.org/2000/svg" width="150" height="36" viewBox="0 0 150 36">
  <defs>
    <style>
      .a {
        fill: #4d4d4d;
      }

      .b {
        fill: #666;
      }

      .c {
        fill: #ccc;
      }

      .d {
        fill: none;
        stroke: #ccc;
        stroke-miterlimit: 10;
        stroke-width: 3px;
      }
    </style>
  </defs>
  <title>Menu_Load-II_Enabled</title>
  <g>
    <path class="a" d="M114.5,35.5V.5H146A3.50424,3.50424,0,0,1,149.5,4V32a3.50424,3.50424,0,0,1-3.5,3.5Z"/>
    <path class="b" d="M146,1a3.00337,3.00337,0,0,1,3,3V32a3.00337,3.00337,0,0,1-3,3H115V1h31m0-1H114V36h32a4,4,0,0,0,4-4V4a4,4,0,0,0-4-4Z"/>
  </g>
  <g>
    <path class="a" d="M4.82617,35.39648A4.22776,4.22776,0,0,1,.60352,31.17383V4.82617A4.22776,4.22776,0,0,1,4.82617.60352H114.39648v34.793Z"/>
    <path class="b" d="M113.79346,1.20653V34.79347H4.82611A3.62366,3.62366,0,0,1,1.20654,31.1739V4.8261A3.62366,3.62366,0,0,1,4.82611,1.20653H113.79346M115,0H4.82611A4.8261,4.8261,0,0,0,0,4.8261V31.1739A4.8261,4.8261,0,0,0,4.82611,36H115V0Z"/>
  </g>
  <g>
    <path class="c" d="M17.07129,12.13867v10.5625h5.167V24.5625H14.86719V12.13867Z"/>
    <path class="c" d="M24.12012,19.9082c0-3.11523,2.1084-4.90136,4.42578-4.90136,2.33691,0,4.44629,1.78613,4.44629,4.90136,0,3.09668-2.10938,4.88282-4.44629,4.88282C26.22852,24.791,24.12012,23.00488,24.12012,19.9082Zm6.62988,0c0-1.88086-.83594-3.11523-2.2041-3.11523-1.36719,0-2.18457,1.23437-2.18457,3.11523,0,1.86133.81738,3.09668,2.18457,3.09668C29.91406,23.00488,30.75,21.76953,30.75,19.9082Z"/>
    <path class="c" d="M35.19727,22.05469c0-1.99414,1.65234-3.03907,5.49023-3.457-.03809-.98828-.4375-1.82422-1.71-1.82422a5.31369,5.31369,0,0,0-2.62207.91211l-.79785-1.46289a7.29251,7.29251,0,0,1,3.83789-1.21582c2.31738,0,3.47656,1.4248,3.47656,4.02734V24.5625H41.06738L40.915,23.53711h-.07617a4.53886,4.53886,0,0,1-2.8877,1.25391A2.60755,2.60755,0,0,1,35.19727,22.05469Zm5.49023,0V19.96484c-2.5459.32325-3.38184.98828-3.38184,1.919,0,.83594.57032,1.19629,1.34864,1.19629A2.96406,2.96406,0,0,0,40.6875,22.05469Z"/>
    <path class="c" d="M45.68555,19.9082c0-3.03906,1.91894-4.90136,3.95117-4.90136a3.44747,3.44747,0,0,1,2.45117,1.02636l-.07617-1.501V11.15039h2.18457V24.5625H52.3916l-.15234-1.00684h-.07617A3.88416,3.88416,0,0,1,49.52246,24.791C47.18652,24.791,45.68555,22.98633,45.68555,19.9082Zm6.32617,2.03321V17.58984a2.78528,2.78528,0,0,0-1.90039-.77832c-1.19629,0-2.165,1.1211-2.165,3.07715,0,2.01367.75976,3.09766,2.1084,3.09766A2.52269,2.52269,0,0,0,52.01172,21.94141Z"/>
    <path class="c" d="M62.61426,21.40918V16.96387H61.28418V15.33008l1.44434-.0957.26562-2.54493h1.82422v2.54493h2.374v1.72949h-2.374v4.44531c0,1.10156.418,1.63379,1.31055,1.63379a2.68549,2.68549,0,0,0,.96875-.209l.37988,1.61524a5.9878,5.9878,0,0,1-1.89942.3418C63.41211,24.791,62.61426,23.42285,62.61426,21.40918Z"/>
    <path class="c" d="M68.99805,19.9082c0-3.11523,2.1084-4.90136,4.42578-4.90136,2.33691,0,4.44629,1.78613,4.44629,4.90136,0,3.09668-2.10938,4.88282-4.44629,4.88282C71.10645,24.791,68.99805,23.00488,68.99805,19.9082Zm6.62988,0c0-1.88086-.83594-3.11523-2.2041-3.11523-1.36719,0-2.18457,1.23437-2.18457,3.11523,0,1.86133.81738,3.09668,2.18457,3.09668C74.792,23.00488,75.62793,21.76953,75.62793,19.9082Z"/>
    <path class="c" d="M87.63672,22.70117v-7.752H85.77441V13.08789h5.90821v1.86133H89.83984v7.752h1.84278V24.5625H85.77441V22.70117Zm7.40918,0v-7.752H93.18359V13.08789H99.0918v1.86133H97.249v7.752H99.0918V24.5625H93.18359V22.70117Z"/>
  </g>
  <line class="d" x1="140" y1="17.5" x2="124" y2="17.5"/>
  <line class="d" x1="140" y1="11.5" x2="124" y2="11.5"/>
  <line class="d" x1="140" y1="23.5" x2="124" y2="23.5"/>
</svg>
