<svg xmlns="http://www.w3.org/2000/svg" width="114" height="36" viewBox="0 0 114 36">
  <defs>
    <style>
      .a {
        fill: #333;
      }

      .b {
        fill: none;
        stroke: #000;
        stroke-miterlimit: 10;
        stroke-width: 3px;
      }
    </style>
  </defs>
  <title>Menu_Layer_Disabled_L</title>
  <g>
    <path class="a" d="M78.5,35.5V.5H110A3.50424,3.50424,0,0,1,113.5,4V32a3.50424,3.50424,0,0,1-3.5,3.5Z"/>
    <path d="M110,1a3.00339,3.00339,0,0,1,3,3V32a3.00339,3.00339,0,0,1-3,3H79V1h31m0-1H78V36h32a4.01176,4.01176,0,0,0,4-4V4a4.01176,4.01176,0,0,0-4-4Z"/>
  </g>
  <g>
    <path class="a" d="M4,35.5A3.50424,3.50424,0,0,1,.5,32V4A3.50424,3.50424,0,0,1,4,.5H78.5v35Z"/>
    <path d="M78,1V35H4a3.0034,3.0034,0,0,1-3-3V4A3.0034,3.0034,0,0,1,4,1H78m1-1H4A4,4,0,0,0,0,4V32a4,4,0,0,0,4,4H79V0Z"/>
  </g>
  <g>
    <path d="M18.7041,12.13867v10.5625h5.168V24.5625H16.501V12.13867Z"/>
    <path d="M26.30469,22.05469c0-1.99414,1.65234-3.03907,5.49023-3.457-.03808-.98828-.4375-1.82422-1.71-1.82422a5.31369,5.31369,0,0,0-2.62207.91211L26.665,16.22266a7.3012,7.3012,0,0,1,3.83789-1.21582c2.31738,0,3.47656,1.4248,3.47656,4.02734V24.5625H32.1748l-.15234-1.02539h-.07617A4.54277,4.54277,0,0,1,29.05859,24.79,2.60677,2.60677,0,0,1,26.30469,22.05469Zm5.49023,0V19.96484c-2.5459.32325-3.38183.98828-3.38183,1.919,0,.83594.57031,1.19726,1.34863,1.19726A2.96555,2.96555,0,0,0,31.79492,22.05469Z"/>
    <path d="M36.96289,28.21l.39941-1.71a2.26872,2.26872,0,0,0,.665.13281,1.954,1.954,0,0,0,1.86133-1.5957l.1709-.58887-3.666-9.21289h2.22266l1.61426,4.57813c.2666.8164.53223,1.74707.81738,2.62109H41.124c.22754-.85449.47461-1.78516.70215-2.62109l1.40625-4.57813h2.1084L41.96,24.98047c-.7793,2.1084-1.748,3.41992-3.78125,3.41992A3.62337,3.62337,0,0,1,36.96289,28.21Z"/>
    <path d="M47.18555,19.9082c0-3.03906,2.1084-4.90136,4.293-4.90136,2.52734,0,3.85644,1.82421,3.85644,4.42675a5.10945,5.10945,0,0,1-.09473,1.06348H49.31348a2.66961,2.66961,0,0,0,2.7539,2.60254,3.90009,3.90009,0,0,0,2.166-.68359l.74121,1.36718A5.88773,5.88773,0,0,1,51.7832,24.79C49.19922,24.79,47.18555,22.98535,47.18555,19.9082Zm4.35058-3.21A2.34244,2.34244,0,0,0,49.294,19.01562h4.1416C53.43555,17.57129,52.80859,16.69824,51.53613,16.69824Z"/>
    <path d="M60.18066,15.23535,60.333,16.8877h.07617a3.16863,3.16863,0,0,1,2.64062-1.88086,2.37173,2.37173,0,0,1,1.06348.19043l-.37988,1.89941a3.05509,3.05509,0,0,0-.96875-.15137c-.74121,0-1.63379.5127-2.20313,1.918V24.5625H58.376V15.23535Z"/>
  </g>
  <line class="b" x1="104" y1="17.5" x2="88" y2="17.5"/>
  <line class="b" x1="104" y1="11.5" x2="88" y2="11.5"/>
  <line class="b" x1="104" y1="23.5" x2="88" y2="23.5"/>
</svg>
