<svg xmlns="http://www.w3.org/2000/svg" width="38" height="38" viewBox="0 0 38 38">
  <defs>
    <style>
      .a {
        fill: #4d4d4d;
      }

      .b {
        fill: #666;
      }
    </style>
  </defs>
  <title>Mute_Enabled_A</title>
  <g>
    <rect class="a" x="0.5" y="0.5" width="37" height="37" rx="3.5" ry="3.5"/>
    <path class="b" d="M34,1a3.00338,3.00338,0,0,1,3,3V34a3.00338,3.00338,0,0,1-3,3H4a3.00337,3.00337,0,0,1-3-3V4A3.00337,3.00337,0,0,1,4,1H34m0-1H4A4,4,0,0,0,0,4V34a4,4,0,0,0,4,4H34a4,4,0,0,0,4-4V4a4,4,0,0,0-4-4Z"/>
  </g>
  <path d="M16,28l-5-5H6V15h5l5-5h1V28Zm6-3-2-2,4-4-4-4,2-2,4,4,4-4,2,2-4,4,4,4-2,2-4-4Z"/>
</svg>
