<svg xmlns="http://www.w3.org/2000/svg" width="17" height="17" viewBox="0 0 17 17"><title>mute-part-a</title><polygon points="8.5 10.551 4.258 14.793 2.207 12.743 6.45 8.5 2.207 4.257 4.258 2.207 8.5 6.449 12.743 2.207 14.794 4.257 10.552 8.5 14.794 12.743 12.743 14.793 8.5 10.551" fill="#fff" fill-rule="evenodd"/><path d="M12.743,2.70156l1.55566,1.55566L10.05649,8.4999l4.24219,4.24268L12.743,14.29824,8.50034,10.05605,4.25766,14.29824,2.702,12.74258,6.94468,8.4999,2.702,4.25722,4.25766,2.70156,8.50034,6.94424,12.743,2.70156m0-.99-.495.495L8.50034,5.9543,4.75263,2.20659l-.495-.495-.495.495L2.207,3.76225l-.495.495.495.495L5.95474,8.4999,2.207,12.24761l-.495.495.495.495,1.55566,1.55566.49494.49495.495-.49492L8.50034,11.046l3.74773,3.74729.495.49492.49494-.49495,1.55566-1.55566.495-.49494-.49492-.495L11.04638,8.4999l3.7473-3.74773.49492-.495-.495-.49494L13.238,2.20659l-.495-.495Z"/></svg>