<svg xmlns="http://www.w3.org/2000/svg" width="70" height="95" viewBox="0 0 70 95">
  <defs>
    <style>
      .a {
        fill: #666;
      }

      .b {
        fill: #1a1a1a;
        stroke: #1a1a1a;
        stroke-miterlimit: 10;
        stroke-width: 0.3px;
      }
    </style>
  </defs>
  <title>Split_FX_B</title>
  <path class="a" d="M9,93l2-2L6,86H20.53027a8.52793,8.52793,0,0,0,7.71094-4.92383L56.47949,20.18652A5.5207,5.5207,0,0,1,61.46973,17H70V14H61.46973a8.52793,8.52793,0,0,0-7.71094,4.92383L25.52051,79.81348A5.5207,5.5207,0,0,1,20.53027,83H6l5-5L9,76,.5,84.49707Z"/>
  <g>
    <rect class="a" x="16" y="40" width="43" height="20" rx="4" ry="4"/>
    <path class="b" d="M34.33608,50.58454,31.92084,55.887h-2.326l3.473-6.08457-3.428-5.71743h2.522l2.13442,4.57187h.31907L36.74975,44.085h2.522l-3.428,5.71743L39.4035,55.887H36.99074l-2.46042-5.3025Z"/>
    <path class="b" d="M27.65554,44.085v1.79852H22.57607v3.22095h4.233v1.72411h-4.233V55.887h-2.2119V44.085Z"/>
    <path class="b" d="M54.9,45.99176V44.06512H43.00586v1.92664h2.44446V54.0733H43.1059V55.9H54.9V54.0733h-2.2445V45.99176Zm-4.4497,8.08154h-2.7948V45.99176h2.7948Z"/>
  </g>
</svg>
