<svg xmlns="http://www.w3.org/2000/svg" width="70" height="80" viewBox="0 0 70 80">
  <defs>
    <style>
      .a {
        fill: #666;
      }

      .b {
        stroke: #000;
        stroke-miterlimit: 10;
        stroke-width: 0.4px;
      }
    </style>
  </defs>
  <title>Split_FX_B</title>
  <path class="a" d="M10,60l3,3L8,68h9q6,0,9-6L50,9c2-5,8-9,13-9h7V4H63q-6,0-9,6L30,63c-2,5-8,9-13,9H8l5,5-3,3L0,70Z"/>
  <rect class="a" x="8" y="25" width="54" height="22" rx="4" ry="4"/>
  <g>
    <path class="b" d="M30.849,36.6656l-2.78537,6.13616H25.38115l4.00528-7.02416-3.95332-6.60729H28.3416l2.46153,5.30658h.368l2.46153-5.30658h2.90849L32.58779,35.7776l4.10528,7.02416H33.91055L31.07306,36.6656Z"/>
    <path class="b" d="M22.56807,29.17031v2.15762H16.71016v3.88428h4.99707v1.95761H16.71016v5.63194H14.27461V29.17031Z"/>
  </g>
  <path class="b" d="M49.2,41H46.8V31h2.4Zm-8-11.8V31h3V41h-3v1.8H54.8V41h-3V31h3V29.2Z"/>
</svg>
