<svg xmlns="http://www.w3.org/2000/svg" width="60" height="60" viewBox="0 0 60 60">
  <defs>
    <style>
      .a {
        fill: #76839c;
      }

      .b {
        fill: none;
        stroke: #e6e6e6;
        stroke-miterlimit: 10;
        stroke-width: 2px;
      }

      .c {
        fill: #f2f2f2;
      }

      .d {
        fill: #1a1a1a;
      }
    </style>
  </defs>
  <title>Store_Drag</title>
  <g>
    <rect class="a" x="11.5" y="11.5" width="37" height="37" rx="3.5" ry="3.5"/>
    <path d="M45,12a3.0034,3.0034,0,0,1,3,3V45a3.0034,3.0034,0,0,1-3,3H15a3.00339,3.00339,0,0,1-3-3V15a3.00339,3.00339,0,0,1,3-3H45m0-1H15a4,4,0,0,0-4,4V45a4,4,0,0,0,4,4H45a4,4,0,0,0,4-4V15a4,4,0,0,0-4-4Z"/>
  </g>
  <g>
    <path class="b" d="M37,34H26a4.01176,4.01176,0,0,1-4-4V20"/>
    <polyline class="b" points="31.5 40 37.5 34 31.5 28"/>
  </g>
  <g>
    <polygon class="c" points="21.791 7.5 29.5 0.476 37.209 7.5 21.791 7.5"/>
    <path class="d" d="M29.5,1.15282,35.91763,7H23.08237L29.5,1.15282M29.5-.2,20.5,8h18l-9-8.2Z"/>
  </g>
  <g>
    <polygon class="c" points="22.291 52.5 37.709 52.5 30 59.523 22.291 52.5"/>
    <path class="d" d="M36.41763,53,30,58.84718,23.58237,53H36.41763M39,52H21l9,8.2L39,52Z"/>
  </g>
  <g>
    <polygon class="c" points="52.5 22.291 59.523 30 52.5 37.709 52.5 22.291"/>
    <path class="d" d="M53,23.58236,58.8472,30,53,36.41764V23.58236M52,21V39l8.2-9L52,21Z"/>
  </g>
  <g>
    <polygon class="c" points="0.477 30.76 7.5 23.051 7.5 38.469 0.477 30.76"/>
    <path class="d" d="M7,24.34205V37.17732L1.1528,30.75969,7,24.34205m1-2.58236-8.2,9,8.2,9v-18Z"/>
  </g>
</svg>
