<svg xmlns="http://www.w3.org/2000/svg" width="52" height="32" viewBox="0 0 52 32">
  <defs>
    <style>
      .a {
        fill: #333;
      }

      .b, .c {
        fill: none;
        stroke: #000;
        stroke-miterlimit: 10;
      }

      .b {
        stroke-width: 2.8px;
      }

      .c {
        stroke-width: 2.6px;
      }
    </style>
  </defs>
  <title>Undo_Disabled</title>
  <g>
    <path class="a" d="M5,31.5A4.50491,4.50491,0,0,1,.5,27V5A4.50491,4.50491,0,0,1,5,.5H51.5v31Z"/>
    <path d="M51,1V31H5a4.01175,4.01175,0,0,1-4-4V5A4.01175,4.01175,0,0,1,5,1H51m1-1H5A5.00566,5.00566,0,0,0,0,5V27a5.00566,5.00566,0,0,0,5,5H52V0Z"/>
  </g>
  <g>
    <path class="b" d="M25.14673,23.5h3.51179C32.45476,23.5,35,20.96154,35,18s-2.54524-5.5-6.34148-5.5H16.01841"/>
    <polyline class="c" points="21 18.5 15 12.5 21 7.5"/>
  </g>
</svg>
