<svg xmlns="http://www.w3.org/2000/svg" width="28" height="28" viewBox="0 0 28 28">
  <defs>
    <style>
      .a {
        fill: #6c6c6c;
      }

      .b {
        fill: #333;
      }

      .c {
        fill: #cfd0cf;
      }

      .d {
        fill: #545454;
      }
    </style>
  </defs>
  <title>View_Menu_Icon</title>
  <g>
    <g>
      <path class="a" d="M6.5,18.5V5A1.50164,1.50164,0,0,1,8,3.5H24A1.50164,1.50164,0,0,1,25.5,5V18.5Z"/>
      <path d="M24,4a1,1,0,0,1,1,1V18H7V5A1,1,0,0,1,8,4H24m0-1H8A2.00228,2.00228,0,0,0,6,5V19H26V5a2.00228,2.00228,0,0,0-2-2Z"/>
    </g>
    <rect x="21" y="5" width="2" height="2"/>
    <rect class="b" x="9" y="8" width="14" height="8"/>
  </g>
  <g>
    <g>
      <path class="c" d="M2.5,25.5V12A1.50164,1.50164,0,0,1,4,10.5H20A1.50164,1.50164,0,0,1,21.5,12V25.5Z"/>
      <path d="M20,11a1,1,0,0,1,1,1V25H3V12a1,1,0,0,1,1-1H20m0-1H4a2.00228,2.00228,0,0,0-2,2V26H22V12a2.00228,2.00228,0,0,0-2-2Z"/>
    </g>
    <rect x="17" y="12" width="2" height="2"/>
    <rect class="d" x="5" y="15" width="14" height="8"/>
  </g>
</svg>
