<?xml version="1.0" encoding="utf-8"?>
<!-- Generator: Adobe Illustrator 21.0.0, SVG Export Plug-In . SVG Version: 6.00 Build 0)  -->
<svg version="1.1" id="Layer_1" xmlns="http://www.w3.org/2000/svg" xmlns:xlink="http://www.w3.org/1999/xlink" x="0px" y="0px"
	 viewBox="0 0 100 100" enable-background="new 0 0 100 100" xml:space="preserve">
<path fill="#FFFFFF" d="M34.4000015,19.8893337c18.3962212,0,22.9415779,44.3098831,34.401001,44.3098831
	C83.1998901,64.1992188,100,14.800333,100,9.3999996C100,3.3973334,96.6015549,0,90.5967789,0H9.3999996
	C3.3984444,0,0,3.3973334,0,9.3999996v65.6868134C6.4007778,47.4902229,20.399334,19.8893337,34.4000015,19.8893337
	L34.4000015,19.8893337z M65.5967789,80.1106873c-18.3984222,0-22.8851891-44.3099098-34.3966675-44.3099098
	C16.8001118,35.8007774,0,85.1996689,0,90.5978851C0,96.6015549,3.3984444,100,9.3999996,100h81.1967773
	C96.6015549,100,100,96.6015549,100,90.5978851V24.9132214C93.6035538,52.508667,79.6006699,80.1106873,65.5967789,80.1106873z"/>
<g>
</g>
<g>
</g>
<g>
</g>
<g>
</g>
<g>
</g>
</svg>
