<svg
    viewBox="-25 -25 150 150"
    xmlns="http://www.w3.org/2000/svg"
    xmlns:xlink="http://www.w3.org/1999/xlink"
>
    <path
        d="m34.4000015 19.8893337c18.3962212 0 22.9415779 44.3098831 34.401001 44.3098831 14.3988876.000002 31.1989975-49.3988838 31.1989975-54.7992172 0-6.0026662-3.3984451-9.3999996-9.4032211-9.3999996h-81.1967793c-6.0015552 0-9.3999996 3.3973334-9.3999996 9.3999996v65.6868134c6.4007778-27.5965901 20.399334-55.1974793 34.4000015-55.1974793zm31.1967774 60.2213536c-18.3984222 0-22.8851891-44.3099098-34.3966675-44.3099098-14.3999996-.0000001-31.2001114 49.3988914-31.2001114 54.7971076 0 6.0036698 3.3984444 9.4021149 9.3999996 9.4021149h81.1967773c6.004778 0 9.4032231-3.3984451 9.4032231-9.4021149v-65.6846637c-6.3964462 27.5954456-20.3993301 55.1974659-34.4032211 55.1974659z"
        fill="#ffffff"
    />
</svg>