<svg viewBox="0 0 800 250" xmlns="http://www.w3.org/2000/svg"><path d="m0 0h800v250h-800z" fill="#1a1a1a"/><g stroke-miterlimit="10"><path d="m38.34621 20.83516h725.98579v79.50025h-725.98579z" fill="#ccc" stroke="#666" stroke-width=".39369"/><path d="m764.332 229.63252h-24.8984a4.39536 4.39536 0 0 1 -4.36815-4.42207v-4.95056h-67.26945v4.95056a4.39536 4.39536 0 0 1 -4.36815 4.42207h-489.23231a4.39536 4.39536 0 0 1 -4.36815-4.42207v-4.95056h-99.59372v4.95056a4.39536 4.39536 0 0 1 -4.36815 4.42207h-27.51931v-129.29711h725.98579z" fill="#ccc" stroke="#666" stroke-width=".39369"/><rect fill="#ccc" height="215.78639" rx="1.3144" stroke="#666" stroke-width=".39369" width="18.34621" x="20" y="17.34064"/><rect fill="#ccc" height="215.78639" rx="1.3144" stroke="#666" stroke-width=".39369" width="18.34621" x="761.65379" y="16.87297"/><rect fill="#333" height="5.24177" rx=".35051" stroke="#000" stroke-width=".13144" width="15.72532" x="692.20027" y="217.37085"/></g><rect height="7.86266" rx=".35051" width="5.24177" x="697.44205" y="214.74996"/><path d="m704.064 231.56792h-8.00221a.94034.94034 0 0 1 -.87061-.93459l-.80687-11.29622h11.35718l-.80687 11.29622a.94034.94034 0 0 1 -.87062.93459z" fill="#666" stroke="#000" stroke-miterlimit="10" stroke-width=".13144"/><path d="m703.99427 231.56792h-.87363l.39825-9.11621a.52283.52283 0 0 1 .51836-.49371.46361.46361 0 0 1 .46906.49371z"/><path d="m702.247 231.56792h-.87363l.17068-9.11621a.50712.50712 0 0 1 .506-.49371.47753.47753 0 0 1 .48138.49371z" fill="#fff"/><path d="m700.49975 231.56792h-.87363l-.05689-9.11621a.492.492 0 0 1 .49371-.49371.492.492 0 0 1 .49371.49371z"/><path d="m698.75249 231.56792h-.87363l-.28446-9.11621a.47753.47753 0 0 1 .48138-.49371.50712.50712 0 0 1 .506.49371z"/><path d="m697.00523 231.56792h-.87363l-.512-9.11621a.46361.46361 0 0 1 .46906-.49371.52283.52283 0 0 1 .51836.49371z"/><rect fill="#333" height="5.24177" rx=".35051" stroke="#000" stroke-miterlimit="10" stroke-width=".13144" width="15.72532" x="109.48965" y="217.37085"/><rect height="7.86266" rx=".35051" width="5.24177" x="114.73143" y="214.74996"/><path d="m121.35342 231.56792h-8.00221a.94034.94034 0 0 1 -.87061-.93459l-.80687-11.29622h11.35718l-.80687 11.29622a.94034.94034 0 0 1 -.87062.93459z" fill="#666" stroke="#000" stroke-miterlimit="10" stroke-width=".13144"/><path d="m121.28365 231.56792h-.87365l.39825-9.11621a.52283.52283 0 0 1 .51836-.49371.46361.46361 0 0 1 .46906.49371z"/><path d="m119.53639 231.56792h-.87363l.17068-9.11621a.50712.50712 0 0 1 .506-.49371.47753.47753 0 0 1 .48138.49371z" fill="#fff"/><path d="m117.78913 231.56792h-.87363l-.05689-9.11621a.492.492 0 0 1 .49371-.49371.492.492 0 0 1 .49371.49371z"/><path d="m116.04187 231.56792h-.87363l-.28446-9.11621a.47753.47753 0 0 1 .48138-.49371.50712.50712 0 0 1 .506.49371z"/><path d="m114.29461 231.56792h-.87361l-.512-9.11621a.46361.46361 0 0 1 .46906-.49371.52283.52283 0 0 1 .51836.49371z"/><rect fill="#333" height="23.58799" rx="1.3144" stroke="#000" stroke-miterlimit="10" stroke-width=".08763" width="126.67622" x="335.32278" y="25.17245"/><rect fill="#1a1a1a" height="13.10444" rx="1.3144" width="21.84073" x="127.45638" y="30.88189"/><rect fill="#333" height="13.10444" rx="1.3144" stroke="#000" stroke-miterlimit="10" stroke-width=".08763" width="675.31531" x="63.68146" y="54.90669"/><path d="m64.99585 54.90669h672.68651a1.3144 1.3144 0 0 1 1.3144 1.3144v3.05375a0 0 0 0 1 0 0h-675.3153a0 0 0 0 1 0 0v-3.05375a1.3144 1.3144 0 0 1 1.31439-1.3144z" fill="#999" stroke="#000" stroke-miterlimit="10" stroke-width=".08763"/><rect fill="#333" height="13.10444" rx="1.3144" stroke="#000" stroke-miterlimit="10" stroke-width=".08763" width="675.31531" x="63.68146" y="79.36831"/><rect height="82.12114" rx=".87363" width="11.35718" x="52.32428" y="101.64585"/><path d="m60.95977 176.778h-5.91377c-.29692 0-.53762-.35369-.53762-.79v-72.67854c0-.4363.2407-.79.53762-.79h5.9138c.29692 0 .53762.35369.53762.79v72.67854c-.00004.43627-.24074.79-.53765.79z" fill="#4d4d4d"/><rect height="82.12114" rx=".87363" width="11.35718" x="75.91226" y="101.64585"/><path d="m84.54775 176.778h-5.91375c-.29692 0-.53762-.35369-.53762-.79v-72.67854c0-.4363.2407-.79.53762-.79h5.9138c.29692 0 .53762.35369.53762.79v72.67854c-.00005.43627-.24075.79-.53767.79z" fill="#4d4d4d"/><rect height="82.12114" rx=".87363" width="11.35718" x="112.60469" y="101.64585"/><path d="m121.24017 176.778h-5.9138c-.29692 0-.53762-.35369-.53762-.79v-72.67854c0-.4363.2407-.79.53762-.79h5.9138c.29692 0 .53762.35369.53762.79v72.67854c0 .43627-.2407.79-.53762.79z" fill="#4d4d4d"/><rect height="82.12114" rx=".87363" width="11.35718" x="136.19267" y="101.64585"/><path d="m144.82816 176.778h-5.9138c-.29692 0-.53762-.35369-.53762-.79v-72.67854c0-.4363.2407-.79.53762-.79h5.9138c.29692 0 .53762.35369.53762.79v72.67854c0 .43627-.2407.79-.53762.79z" fill="#4d4d4d"/><rect height="82.12114" rx=".87363" width="11.35718" x="156.46118" y="101.17818"/><path d="m165.09667 176.31028h-5.9138c-.29692 0-.53762-.35369-.53762-.79v-72.67849c0-.4363.2407-.79.53762-.79h5.9138c.29692 0 .53762.35369.53762.79v72.67851c0 .43629-.2407.78998-.53762.78998z" fill="#4d4d4d"/><rect height="82.12114" rx=".87363" width="11.35718" x="193.1536" y="101.17818"/><path d="m201.78909 176.31028h-5.9138c-.29692 0-.53762-.35369-.53762-.79v-72.67849c0-.4363.2407-.79.53762-.79h5.9138c.29692 0 .53762.35369.53762.79v72.67851c0 .43629-.24071.78998-.53762.78998z" fill="#4d4d4d"/><rect height="82.12114" rx=".87363" width="11.35718" x="216.74159" y="101.17818"/><path d="m225.37708 176.31028h-5.9138c-.29692 0-.53762-.35369-.53762-.79v-72.67849c0-.4363.2407-.79.53762-.79h5.9138c.29692 0 .53762.35369.53762.79v72.67851c0 .43629-.2407.78998-.53762.78998z" fill="#4d4d4d"/><rect height="82.12114" rx=".87363" width="11.35718" x="253.43401" y="101.17818"/><path d="m262.0695 176.31028h-5.9138c-.29692 0-.53762-.35369-.53762-.79v-72.67849c0-.4363.2407-.79.53762-.79h5.9138c.29692 0 .53762.35369.53762.79v72.67851c0 .43629-.2407.78998-.53762.78998z" fill="#4d4d4d"/><rect height="82.12114" rx=".87363" width="11.35718" x="277.022" y="101.17818"/><path d="m285.65749 176.31028h-5.9138c-.29692 0-.53762-.35369-.53762-.79v-72.67849c0-.4363.2407-.79.53762-.79h5.9138c.29692 0 .53762.35369.53762.79v72.67851c-.00001.43629-.24071.78998-.53762.78998z" fill="#4d4d4d"/><rect height="82.12114" rx=".87363" width="11.35718" x="297.11547" y="101.17818"/><path d="m305.751 176.31028h-5.9138c-.29692 0-.53762-.35369-.53762-.79v-72.67849c0-.4363.2407-.79.53762-.79h5.9138c.29692 0 .53762.35369.53762.79v72.67851c-.00005.43629-.24075.78998-.53762.78998z" fill="#4d4d4d"/><rect height="82.12114" rx=".87363" width="11.35718" x="333.80789" y="101.17818"/><path d="m342.44338 176.31028h-5.9138c-.29692 0-.53762-.35369-.53762-.79v-72.67849c0-.4363.2407-.79.53762-.79h5.9138c.29692 0 .53762.35369.53762.79v72.67851c0 .43629-.2407.78998-.53762.78998z" fill="#4d4d4d"/><rect height="82.12114" rx=".87363" width="11.35718" x="357.39588" y="101.17818"/><path d="m366.03136 176.31028h-5.9138c-.29692 0-.53762-.35369-.53762-.79v-72.67849c0-.4363.2407-.79.53762-.79h5.9138c.29692 0 .53762.35369.53762.79v72.67851c.00002.43629-.2407.78998-.53762.78998z" fill="#4d4d4d"/><rect height="82.12114" rx=".87363" width="11.35718" x="394.0883" y="101.17818"/><path d="m402.72379 176.31028h-5.91379c-.29692 0-.53762-.35369-.53762-.79v-72.67849c0-.4363.2407-.79.53762-.79h5.9138c.29692 0 .53762.35369.53762.79v72.67851c-.00001.43629-.24071.78998-.53763.78998z" fill="#4d4d4d"/><rect height="82.12114" rx=".87363" width="11.35718" x="417.67629" y="101.17818"/><path d="m426.31177 176.31028h-5.91377c-.29692 0-.53762-.35369-.53762-.79v-72.67849c0-.4363.2407-.79.53762-.79h5.9138c.29692 0 .53762.35369.53762.79v72.67851c-.00003.43629-.24073.78998-.53765.78998z" fill="#4d4d4d"/><rect height="82.12114" rx=".87363" width="11.35718" x="437.76976" y="101.17818"/><path d="m446.40524 176.31028h-5.9138c-.29692 0-.53762-.35369-.53762-.79v-72.67849c0-.4363.2407-.79.53762-.79h5.9138c.29692 0 .53762.35369.53762.79v72.67851c0 .43629-.2407.78998-.53762.78998z" fill="#4d4d4d"/><rect height="82.12114" rx=".87363" width="11.35718" x="474.46218" y="101.17818"/><path d="m483.09767 176.31028h-5.9138c-.29692 0-.53762-.35369-.53762-.79v-72.67849c0-.4363.2407-.79.53762-.79h5.9138c.29692 0 .53762.35369.53762.79v72.67851c-.00001.43629-.24071.78998-.53762.78998z" fill="#4d4d4d"/><rect height="82.12114" rx=".87363" width="11.35718" x="498.05016" y="101.17818"/><path d="m506.68565 176.31028h-5.9138c-.29692 0-.53762-.35369-.53762-.79v-72.67849c0-.4363.2407-.79.53762-.79h5.9138c.29692 0 .53762.35369.53762.79v72.67851c0 .43629-.2407.78998-.53762.78998z" fill="#4d4d4d"/><rect height="82.12114" rx=".87363" width="11.35718" x="534.74259" y="101.17818"/><path d="m543.37808 176.31028h-5.9138c-.29692 0-.53762-.35369-.53762-.79v-72.67849c0-.4363.2407-.79.53762-.79h5.9138c.29692 0 .53762.35369.53762.79v72.67851c-.00001.43629-.2407.78998-.53762.78998z" fill="#4d4d4d"/><rect height="82.12114" rx=".87363" width="11.35718" x="558.33057" y="101.17818"/><path d="m566.96606 176.31028h-5.9138c-.29692 0-.53762-.35369-.53762-.79v-72.67849c0-.4363.2407-.79.53762-.79h5.9138c.29692 0 .53762.35369.53762.79v72.67851c0 .43629-.24068.78998-.53762.78998z" fill="#4d4d4d"/><rect height="82.12114" rx=".87363" width="11.35718" x="578.42404" y="101.17818"/><path d="m587.05953 176.31028h-5.9138c-.29692 0-.53762-.35369-.53762-.79v-72.67849c0-.4363.2407-.79.53762-.79h5.9138c.29692 0 .53762.35369.53762.79v72.67851c0 .43629-.2407.78998-.53762.78998z" fill="#4d4d4d"/><rect height="82.12114" rx=".87363" width="11.35718" x="615.11647" y="101.17818"/><path d="m623.752 176.31028h-5.9138c-.29692 0-.53762-.35369-.53762-.79v-72.67849c0-.4363.2407-.79.53762-.79h5.9138c.29692 0 .53762.35369.53762.79v72.67851c-.00005.43629-.24075.78998-.53762.78998z" fill="#4d4d4d"/><rect height="82.12114" rx=".87363" width="11.35718" x="638.70445" y="101.17818"/><path d="m647.33994 176.31028h-5.9138c-.29692 0-.53762-.35369-.53762-.79v-72.67849c0-.4363.2407-.79.53762-.79h5.9138c.29692 0 .53762.35369.53762.79v72.67851c0 .43629-.2407.78998-.53762.78998z" fill="#4d4d4d"/><rect height="82.12114" rx=".87363" width="11.35718" x="675.39688" y="101.17818"/><path d="m684.03236 176.31028h-5.9138c-.29692 0-.53762-.35369-.53762-.79v-72.67849c0-.4363.2407-.79.53762-.79h5.9138c.29692 0 .53762.35369.53762.79v72.67851c.00002.43629-.2407.78998-.53762.78998z" fill="#4d4d4d"/><rect height="82.12114" rx=".87363" width="11.35718" x="698.98486" y="101.17818"/><path d="m707.62035 176.31028h-5.9138c-.29692 0-.53762-.35369-.53762-.79v-72.67849c0-.4363.2407-.79.53762-.79h5.9138c.29692 0 .53762.35369.53762.79v72.67851c.00003.43629-.2407.78998-.53762.78998z" fill="#4d4d4d"/><rect height="82.12114" rx=".87363" width="11.35718" x="719.07833" y="101.17818"/><path d="m727.71382 176.31028h-5.91382c-.29692 0-.53762-.35369-.53762-.79v-72.67849c0-.4363.2407-.79.53762-.79h5.9138c.29692 0 .53762.35369.53762.79v72.67851c.00002.43629-.24068.78998-.5376.78998z" fill="#4d4d4d"/><path d="m323.14941 226.61914a1.7937 1.7937 0 0 1 -1.7915-1.792v-121.43359a1.7937 1.7937 0 0 1 1.7915-1.792h7.86279a1.79359 1.79359 0 0 1 1.791 1.792v80.373a.83053.83053 0 0 0 .82959.83008h5.2417a1.79349 1.79349 0 0 1 1.7915 1.791v38.43945a1.7937 1.7937 0 0 1 -1.7915 1.792z" fill="#fff"/><path d="m331.012 101.64584a1.74725 1.74725 0 0 1 1.74725 1.74725v80.37391a.87366.87366 0 0 0 .87363.87366h5.24179a1.74727 1.74727 0 0 1 1.74725 1.74725v38.4397a1.74727 1.74727 0 0 1 -1.74725 1.74725h-15.72538a1.74727 1.74727 0 0 1 -1.74725-1.74725v-121.43451a1.74727 1.74727 0 0 1 1.74725-1.74725h7.86271m0-.08762h-7.86267a1.837 1.837 0 0 0 -1.83487 1.83487v121.43448a1.837 1.837 0 0 0 1.83487 1.8349h15.72534a1.837 1.837 0 0 0 1.83487-1.8349v-38.4397a1.837 1.837 0 0 0 -1.83487-1.8349h-5.24179a.7869.7869 0 0 1 -.786-.786v-80.37388a1.837 1.837 0 0 0 -1.83487-1.83487z" fill="#b3b3b3"/><path d="m363.33643 226.61914a1.7937 1.7937 0 0 1 -1.7915-1.792v-38.43944a1.79349 1.79349 0 0 1 1.7915-1.791h5.2417a.83053.83053 0 0 0 .82959-.83008v-80.373a1.79359 1.79359 0 0 1 1.791-1.792h7.86279a1.79359 1.79359 0 0 1 1.791 1.792v121.43353a1.79359 1.79359 0 0 1 -1.791 1.792z" fill="#fff"/><path d="m379.06155 101.64584a1.74728 1.74728 0 0 1 1.74728 1.74725v121.43449a1.74728 1.74728 0 0 1 -1.74728 1.74725h-15.72531a1.74725 1.74725 0 0 1 -1.74725-1.74725v-38.4397a1.74725 1.74725 0 0 1 1.74725-1.74725h5.24176a.87367.87367 0 0 0 .87366-.87366v-80.37387a1.74725 1.74725 0 0 1 1.74725-1.74725h7.86264m0-.08762h-7.86264a1.837 1.837 0 0 0 -1.83487 1.83487v80.3739a.78692.78692 0 0 1 -.786.786h-5.24176a1.837 1.837 0 0 0 -1.83487 1.8349v38.4397a1.837 1.837 0 0 0 1.83487 1.8349h15.72531a1.837 1.837 0 0 0 1.8349-1.8349v-121.4345a1.837 1.837 0 0 0 -1.8349-1.83487z" fill="#b3b3b3"/><path d="m343.24268 226.61914a1.79359 1.79359 0 0 1 -1.791-1.792v-38.43944a1.79338 1.79338 0 0 1 1.791-1.791h1.74756a.83053.83053 0 0 0 .82959-.83008v-80.373a1.79359 1.79359 0 0 1 1.791-1.792h6.98926a1.79359 1.79359 0 0 1 1.791 1.792v80.373a.83053.83053 0 0 0 .82959.83008h1.74756a1.79338 1.79338 0 0 1 1.791 1.791v38.43945a1.79359 1.79359 0 0 1 -1.791 1.792z" fill="#fff"/><path d="m354.59995 101.64584a1.74725 1.74725 0 0 1 1.74725 1.74725v80.37391a.87366.87366 0 0 0 .87363.87366h1.74728a1.74727 1.74727 0 0 1 1.74725 1.74725v38.4397a1.74727 1.74727 0 0 1 -1.74725 1.74725h-15.72534a1.74727 1.74727 0 0 1 -1.74725-1.74725v-38.4397a1.74728 1.74728 0 0 1 1.74728-1.74725l1.74722.00006a.87366.87366 0 0 0 .87363-.87366v-80.37396a1.74728 1.74728 0 0 1 1.74728-1.74725h6.989m0-.08762h-6.989a1.837 1.837 0 0 0 -1.8349 1.83487v80.3739a.7869.7869 0 0 1 -.786.786l-1.74722-.00006a1.837 1.837 0 0 0 -1.8349 1.8349v38.4397a1.837 1.837 0 0 0 1.83487 1.8349h15.72534a1.837 1.837 0 0 0 1.83487-1.8349v-38.4397a1.837 1.837 0 0 0 -1.83487-1.8349h-1.74728a.7869.7869 0 0 1 -.786-.786v-80.37384a1.837 1.837 0 0 0 -1.83487-1.83487z" fill="#b3b3b3"/><path d="m343.24268 226.61914a1.79359 1.79359 0 0 1 -1.791-1.792v-38.43944a1.79338 1.79338 0 0 1 1.791-1.791h1.74756a.83053.83053 0 0 0 .82959-.83008v-80.373a1.79359 1.79359 0 0 1 1.791-1.792h6.98926a1.79359 1.79359 0 0 1 1.791 1.792v80.373a.83053.83053 0 0 0 .82959.83008h1.74756a1.79338 1.79338 0 0 1 1.791 1.791v38.43945a1.79359 1.79359 0 0 1 -1.791 1.792z" fill="#fff"/><path d="m354.59995 101.64584a1.74725 1.74725 0 0 1 1.74725 1.74725v80.37391a.87366.87366 0 0 0 .87363.87366h1.74728a1.74727 1.74727 0 0 1 1.74725 1.74725v38.4397a1.74727 1.74727 0 0 1 -1.74725 1.74725h-15.72534a1.74727 1.74727 0 0 1 -1.74725-1.74725v-38.4397a1.74728 1.74728 0 0 1 1.74728-1.74725l1.74722.00006a.87366.87366 0 0 0 .87363-.87366v-80.37396a1.74728 1.74728 0 0 1 1.74728-1.74725h6.989m0-.08762h-6.989a1.837 1.837 0 0 0 -1.8349 1.83487v80.3739a.7869.7869 0 0 1 -.786.786l-1.74722-.00006a1.837 1.837 0 0 0 -1.8349 1.8349v38.4397a1.837 1.837 0 0 0 1.83487 1.8349h15.72534a1.837 1.837 0 0 0 1.83487-1.8349v-38.4397a1.837 1.837 0 0 0 -1.83487-1.8349h-1.74728a.7869.7869 0 0 1 -.786-.786v-80.37384a1.837 1.837 0 0 0 -1.83487-1.83487z" fill="#b3b3b3"/><path d="m403.52295 226.61914a1.79359 1.79359 0 0 1 -1.791-1.792v-38.43944a1.79349 1.79349 0 0 1 1.7915-1.791h1.74707a.83053.83053 0 0 0 .82959-.83008v-80.373a1.79359 1.79359 0 0 1 1.791-1.792h6.98926a1.79359 1.79359 0 0 1 1.791 1.792v80.373a.83063.83063 0 0 0 .83008.83008h1.74707a1.79338 1.79338 0 0 1 1.791 1.791v38.43945a1.79359 1.79359 0 0 1 -1.791 1.792z" fill="#fff"/><path d="m414.88037 101.64584a1.74727 1.74727 0 0 1 1.74725 1.74725v80.37391a.87366.87366 0 0 0 .87363.87366h1.74725a1.74725 1.74725 0 0 1 1.74725 1.74725v38.4397a1.74725 1.74725 0 0 1 -1.74725 1.74725h-15.72531a1.74728 1.74728 0 0 1 -1.74728-1.74725v-38.4397a1.74728 1.74728 0 0 1 1.74728-1.74725l1.74722.00006a.87367.87367 0 0 0 .87366-.87366v-80.37396a1.74725 1.74725 0 0 1 1.74725-1.74725h6.989m0-.08762h-6.989a1.837 1.837 0 0 0 -1.83487 1.83487v80.3739a.78692.78692 0 0 1 -.786.786l-1.74722-.00006a1.837 1.837 0 0 0 -1.8349 1.8349v38.4397a1.837 1.837 0 0 0 1.8349 1.8349h15.72527a1.837 1.837 0 0 0 1.83487-1.8349v-38.4397a1.837 1.837 0 0 0 -1.83487-1.8349h-1.74725a.7869.7869 0 0 1 -.786-.786v-80.37384a1.837 1.837 0 0 0 -1.83487-1.83487z" fill="#b3b3b3"/><path d="m423.6167 226.61914a1.79359 1.79359 0 0 1 -1.791-1.792v-38.43944a1.79338 1.79338 0 0 1 1.791-1.791h5.2417a.83053.83053 0 0 0 .82959-.83008v-80.373a1.7937 1.7937 0 0 1 1.7915-1.792h3.49414a1.7937 1.7937 0 0 1 1.7915 1.792v80.373a.83053.83053 0 0 0 .82959.83008h1.74707a1.79349 1.79349 0 0 1 1.7915 1.791v38.43945a1.7937 1.7937 0 0 1 -1.7915 1.792z" fill="#fff"/><path d="m434.97382 101.64584a1.74728 1.74728 0 0 1 1.74728 1.74725v80.37391a.87364.87364 0 0 0 .87363.87366h1.74727a1.74727 1.74727 0 0 1 1.74725 1.74725v38.4397a1.74727 1.74727 0 0 1 -1.74725 1.74725h-15.72536a1.74727 1.74727 0 0 1 -1.74725-1.74725v-38.4397a1.74728 1.74728 0 0 1 1.74728-1.74725l5.24176.00006a.87366.87366 0 0 0 .87363-.87366v-80.37396a1.74727 1.74727 0 0 1 1.74725-1.74725h3.49451m0-.08762h-3.49451a1.837 1.837 0 0 0 -1.83487 1.83487v80.3739a.7869.7869 0 0 1 -.786.786l-5.24176-.00006a1.837 1.837 0 0 0 -1.8349 1.8349v38.4397a1.837 1.837 0 0 0 1.83487 1.8349h15.72535a1.837 1.837 0 0 0 1.83487-1.8349v-38.4397a1.837 1.837 0 0 0 -1.83487-1.8349h-1.74725a.7869.7869 0 0 1 -.786-.786v-80.37384a1.837 1.837 0 0 0 -1.8349-1.83487z" fill="#b3b3b3"/><path d="m383.42969 226.61914a1.79359 1.79359 0 0 1 -1.791-1.792v-121.43359a1.79359 1.79359 0 0 1 1.791-1.792h7.86279a1.79359 1.79359 0 0 1 1.791 1.792v80.373a.83053.83053 0 0 0 .82959.83008h5.24219a1.79338 1.79338 0 0 1 1.791 1.791v38.43945a1.79359 1.79359 0 0 1 -1.791 1.792z" fill="#fff"/><path d="m391.29239 101.64584a1.74727 1.74727 0 0 1 1.74725 1.74725v80.37391a.87364.87364 0 0 0 .87363.87366h5.24173a1.74725 1.74725 0 0 1 1.74725 1.74725v38.4397a1.74725 1.74725 0 0 1 -1.74725 1.74725h-15.72528a1.74725 1.74725 0 0 1 -1.74725-1.74725v-121.43451a1.74725 1.74725 0 0 1 1.74725-1.74725h7.86267m0-.08762h-7.86267a1.837 1.837 0 0 0 -1.83487 1.83487v121.43448a1.837 1.837 0 0 0 1.83487 1.8349h15.72528a1.837 1.837 0 0 0 1.83487-1.8349v-38.4397a1.837 1.837 0 0 0 -1.83487-1.8349h-5.24176a.7869.7869 0 0 1 -.786-.786v-80.37388a1.837 1.837 0 0 0 -1.83487-1.83487z" fill="#b3b3b3"/><path d="m443.71 226.61914a1.79359 1.79359 0 0 1 -1.791-1.792v-38.43944a1.79338 1.79338 0 0 1 1.791-1.791h5.2417a.83063.83063 0 0 0 .83008-.83008v-80.373a1.79359 1.79359 0 0 1 1.791-1.792h7.86279a1.79359 1.79359 0 0 1 1.791 1.792v121.43353a1.79359 1.79359 0 0 1 -1.791 1.792z" fill="#fff"/><path d="m459.43546 101.64584a1.74727 1.74727 0 0 1 1.74725 1.74725v121.43449a1.74727 1.74727 0 0 1 -1.74725 1.74725h-15.72535a1.74727 1.74727 0 0 1 -1.74725-1.74725v-38.4397a1.74727 1.74727 0 0 1 1.74725-1.74725h5.24179a.87366.87366 0 0 0 .87363-.87366v-80.37387a1.74725 1.74725 0 0 1 1.74725-1.74725h7.86267m0-.08762h-7.86267a1.837 1.837 0 0 0 -1.83487 1.83487v80.3739a.7869.7869 0 0 1 -.786.786h-5.24179a1.837 1.837 0 0 0 -1.83487 1.8349v38.4397a1.837 1.837 0 0 0 1.83487 1.8349h15.72534a1.837 1.837 0 0 0 1.83487-1.8349v-121.4345a1.837 1.837 0 0 0 -1.83487-1.83487z" fill="#b3b3b3"/><path d="m463.80371 226.61914a1.7937 1.7937 0 0 1 -1.7915-1.792v-121.43359a1.7937 1.7937 0 0 1 1.7915-1.792h7.8623a1.7937 1.7937 0 0 1 1.7915 1.792v80.373a.83053.83053 0 0 0 .82959.83008h5.2417a1.79349 1.79349 0 0 1 1.7915 1.791v38.43945a1.7937 1.7937 0 0 1 -1.7915 1.792z" fill="#fff"/><path d="m471.66626 101.64584a1.74727 1.74727 0 0 1 1.74725 1.74725v80.37391a.87366.87366 0 0 0 .87363.87366h5.24176a1.74728 1.74728 0 0 1 1.74728 1.74725v38.4397a1.74728 1.74728 0 0 1 -1.74728 1.74725h-15.72531a1.74725 1.74725 0 0 1 -1.74725-1.74725v-121.43451a1.74725 1.74725 0 0 1 1.74725-1.74725h7.86267m0-.08762h-7.86267a1.837 1.837 0 0 0 -1.83487 1.83487v121.43448a1.837 1.837 0 0 0 1.83487 1.8349h15.72531a1.837 1.837 0 0 0 1.8349-1.8349v-38.4397a1.837 1.837 0 0 0 -1.8349-1.8349h-5.24176a.7869.7869 0 0 1 -.786-.786v-80.37388a1.837 1.837 0 0 0 -1.83487-1.83487z" fill="#b3b3b3"/><path d="m503.99072 226.61914a1.7937 1.7937 0 0 1 -1.7915-1.792v-38.43944a1.79349 1.79349 0 0 1 1.7915-1.791h5.2417a.83053.83053 0 0 0 .82959-.83008v-80.373a1.79359 1.79359 0 0 1 1.791-1.792h7.86279a1.79359 1.79359 0 0 1 1.791 1.792v121.43353a1.79359 1.79359 0 0 1 -1.791 1.792z" fill="#fff"/><path d="m519.71588 101.64584a1.74727 1.74727 0 0 1 1.74725 1.74725v121.43449a1.74727 1.74727 0 0 1 -1.74725 1.74725h-15.72534a1.74725 1.74725 0 0 1 -1.74725-1.74725v-38.4397a1.74725 1.74725 0 0 1 1.74725-1.74725h5.24176a.87366.87366 0 0 0 .87363-.87366v-80.37387a1.74727 1.74727 0 0 1 1.74725-1.74725h7.8627m0-.08762h-7.8627a1.837 1.837 0 0 0 -1.83487 1.83487v80.3739a.7869.7869 0 0 1 -.786.786h-5.24176a1.837 1.837 0 0 0 -1.83487 1.8349v38.4397a1.837 1.837 0 0 0 1.83487 1.8349h15.72534a1.837 1.837 0 0 0 1.8349-1.8349v-121.4345a1.837 1.837 0 0 0 -1.8349-1.83487z" fill="#b3b3b3"/><path d="m483.897 226.61914a1.79359 1.79359 0 0 1 -1.791-1.792v-38.43944a1.79338 1.79338 0 0 1 1.791-1.791h1.74756a.83053.83053 0 0 0 .82959-.83008v-80.373a1.79359 1.79359 0 0 1 1.791-1.792h6.98926a1.79359 1.79359 0 0 1 1.791 1.792v80.373a.83053.83053 0 0 0 .82959.83008h1.74756a1.79338 1.79338 0 0 1 1.791 1.791v38.43945a1.79359 1.79359 0 0 1 -1.791 1.792z" fill="#fff"/><path d="m495.25424 101.64584a1.74727 1.74727 0 0 1 1.74725 1.74725v80.37391a.87366.87366 0 0 0 .87363.87366h1.74725a1.74725 1.74725 0 0 1 1.74725 1.74725v38.4397a1.74725 1.74725 0 0 1 -1.74725 1.74725h-15.72531a1.74725 1.74725 0 0 1 -1.74725-1.74725v-38.4397a1.74727 1.74727 0 0 1 1.74725-1.74725l1.74725.00006a.87366.87366 0 0 0 .87363-.87366v-80.37396a1.74727 1.74727 0 0 1 1.74725-1.74725h6.989m0-.08762h-6.989a1.837 1.837 0 0 0 -1.83487 1.83487v80.3739a.7869.7869 0 0 1 -.786.786l-1.74725-.00006a1.837 1.837 0 0 0 -1.83487 1.8349v38.4397a1.837 1.837 0 0 0 1.83487 1.8349h15.72531a1.837 1.837 0 0 0 1.83487-1.8349v-38.4397a1.837 1.837 0 0 0 -1.83487-1.8349h-1.74725a.7869.7869 0 0 1 -.786-.786v-80.37384a1.837 1.837 0 0 0 -1.83487-1.83487z" fill="#b3b3b3"/><path d="m483.897 226.61914a1.79359 1.79359 0 0 1 -1.791-1.792v-38.43944a1.79338 1.79338 0 0 1 1.791-1.791h1.74756a.83053.83053 0 0 0 .82959-.83008v-80.373a1.79359 1.79359 0 0 1 1.791-1.792h6.98926a1.79359 1.79359 0 0 1 1.791 1.792v80.373a.83053.83053 0 0 0 .82959.83008h1.74756a1.79338 1.79338 0 0 1 1.791 1.791v38.43945a1.79359 1.79359 0 0 1 -1.791 1.792z" fill="#fff"/><path d="m495.25424 101.64584a1.74727 1.74727 0 0 1 1.74725 1.74725v80.37391a.87366.87366 0 0 0 .87363.87366h1.74725a1.74725 1.74725 0 0 1 1.74725 1.74725v38.4397a1.74725 1.74725 0 0 1 -1.74725 1.74725h-15.72531a1.74725 1.74725 0 0 1 -1.74725-1.74725v-38.4397a1.74727 1.74727 0 0 1 1.74725-1.74725l1.74725.00006a.87366.87366 0 0 0 .87363-.87366v-80.37396a1.74727 1.74727 0 0 1 1.74725-1.74725h6.989m0-.08762h-6.989a1.837 1.837 0 0 0 -1.83487 1.83487v80.3739a.7869.7869 0 0 1 -.786.786l-1.74725-.00006a1.837 1.837 0 0 0 -1.83487 1.8349v38.4397a1.837 1.837 0 0 0 1.83487 1.8349h15.72531a1.837 1.837 0 0 0 1.83487-1.8349v-38.4397a1.837 1.837 0 0 0 -1.83487-1.8349h-1.74725a.7869.7869 0 0 1 -.786-.786v-80.37384a1.837 1.837 0 0 0 -1.83487-1.83487z" fill="#b3b3b3"/><path d="m544.17773 226.61914a1.79359 1.79359 0 0 1 -1.791-1.792v-38.43944a1.79338 1.79338 0 0 1 1.791-1.791h1.74707a.83063.83063 0 0 0 .83008-.83008v-80.373a1.79359 1.79359 0 0 1 1.791-1.792h6.98828a1.7938 1.7938 0 0 1 1.792 1.792v80.373a.83042.83042 0 0 0 .8291.83008h1.74707a1.79359 1.79359 0 0 1 1.792 1.791v38.43945a1.7938 1.7938 0 0 1 -1.792 1.792z" fill="#fff"/><path d="m555.53467 101.64584a1.74727 1.74727 0 0 1 1.74725 1.74725v80.37391a.87364.87364 0 0 0 .8736.87366h1.74725a1.74723 1.74723 0 0 1 1.74725 1.74725v38.4397a1.74723 1.74723 0 0 1 -1.74725 1.74725h-15.72528a1.74723 1.74723 0 0 1 -1.74725-1.74725v-38.4397a1.74727 1.74727 0 0 1 1.74725-1.74725l1.74725.00006a.87364.87364 0 0 0 .8736-.87366v-80.37396a1.74727 1.74727 0 0 1 1.74725-1.74725h6.98907m0-.08762h-6.98907a1.837 1.837 0 0 0 -1.8349 1.83487v80.3739a.78685.78685 0 0 1 -.78595.786l-1.74725-.00006a1.837 1.837 0 0 0 -1.8349 1.8349v38.4397a1.837 1.837 0 0 0 1.8349 1.8349h15.72528a1.837 1.837 0 0 0 1.8349-1.8349v-38.4397a1.837 1.837 0 0 0 -1.8349-1.8349h-1.74725a.78685.78685 0 0 1 -.78595-.786v-80.37384a1.837 1.837 0 0 0 -1.8349-1.83487z" fill="#b3b3b3"/><path d="m564.27051 226.61914a1.79359 1.79359 0 0 1 -1.791-1.792v-38.43944a1.79338 1.79338 0 0 1 1.791-1.791h5.24219a.83063.83063 0 0 0 .83008-.83008v-80.373a1.79359 1.79359 0 0 1 1.791-1.792h3.49414a1.79359 1.79359 0 0 1 1.791 1.792v80.373a.83063.83063 0 0 0 .83008.83008h1.74707a1.79338 1.79338 0 0 1 1.791 1.791v38.43945a1.79359 1.79359 0 0 1 -1.791 1.792z" fill="#fff"/><path d="m575.62811 101.64584a1.74727 1.74727 0 0 1 1.74725 1.74725v80.37391a.87369.87369 0 0 0 .87366.87366h1.74725a1.74727 1.74727 0 0 1 1.74725 1.74725v38.4397a1.74727 1.74727 0 0 1 -1.74725 1.74725h-15.72533a1.74727 1.74727 0 0 1 -1.74725-1.74725v-38.4397a1.74727 1.74727 0 0 1 1.74725-1.74725l5.24176.00006a.87369.87369 0 0 0 .87366-.87366v-80.37396a1.74727 1.74727 0 0 1 1.74725-1.74725h3.49451m0-.08762h-3.49451a1.837 1.837 0 0 0 -1.8349 1.83487v80.3739a.7869.7869 0 0 1 -.786.786l-5.24176-.00006a1.837 1.837 0 0 0 -1.8349 1.8349v38.4397a1.837 1.837 0 0 0 1.8349 1.8349h15.72534a1.837 1.837 0 0 0 1.8349-1.8349v-38.4397a1.837 1.837 0 0 0 -1.8349-1.8349h-1.74729a.7869.7869 0 0 1 -.786-.786v-80.37384a1.837 1.837 0 0 0 -1.8349-1.83487z" fill="#b3b3b3"/><path d="m524.084 226.61914a1.79359 1.79359 0 0 1 -1.791-1.792v-121.43359a1.79359 1.79359 0 0 1 1.791-1.792h7.8623a1.7938 1.7938 0 0 1 1.792 1.792v80.373a.83042.83042 0 0 0 .8291.83008h5.24219a1.79338 1.79338 0 0 1 1.791 1.791v38.43945a1.79359 1.79359 0 0 1 -1.791 1.792z" fill="#fff"/><path d="m531.94666 101.64584a1.74727 1.74727 0 0 1 1.74725 1.74725v80.37391a.87369.87369 0 0 0 .87366.87366h5.24176a1.74727 1.74727 0 0 1 1.74725 1.74725v38.4397a1.74727 1.74727 0 0 1 -1.74725 1.74725h-15.72533a1.74727 1.74727 0 0 1 -1.74725-1.74725v-121.43451a1.74727 1.74727 0 0 1 1.74725-1.74725h7.86267m0-.08762h-7.86267a1.837 1.837 0 0 0 -1.8349 1.83487v121.43448a1.837 1.837 0 0 0 1.8349 1.8349h15.72534a1.837 1.837 0 0 0 1.8349-1.8349v-38.4397a1.837 1.837 0 0 0 -1.8349-1.8349h-5.24176a.7869.7869 0 0 1 -.786-.786v-80.37388a1.837 1.837 0 0 0 -1.8349-1.83487z" fill="#b3b3b3"/><path d="m584.36426 226.61914a1.79359 1.79359 0 0 1 -1.791-1.792v-38.43944a1.79338 1.79338 0 0 1 1.791-1.791h5.24219a.83042.83042 0 0 0 .8291-.83008v-80.373a1.7938 1.7938 0 0 1 1.792-1.792h7.8623a1.79359 1.79359 0 0 1 1.791 1.792v121.43353a1.79359 1.79359 0 0 1 -1.791 1.792z" fill="#fff"/><path d="m600.08972 101.64584a1.74727 1.74727 0 0 1 1.74725 1.74725v121.43449a1.74727 1.74727 0 0 1 -1.74725 1.74725h-15.72534a1.74727 1.74727 0 0 1 -1.74725-1.74725v-38.4397a1.74727 1.74727 0 0 1 1.74725-1.74725h5.24182a.87364.87364 0 0 0 .8736-.87366v-80.37387a1.74727 1.74727 0 0 1 1.74725-1.74725h7.86267m0-.08762h-7.86267a1.837 1.837 0 0 0 -1.8349 1.83487v80.3739a.78685.78685 0 0 1 -.78595.786h-5.24182a1.837 1.837 0 0 0 -1.8349 1.8349v38.4397a1.837 1.837 0 0 0 1.8349 1.8349h15.72534a1.837 1.837 0 0 0 1.8349-1.8349v-121.4345a1.837 1.837 0 0 0 -1.8349-1.83487z" fill="#b3b3b3"/><path d="m604.458 226.61914a1.79359 1.79359 0 0 1 -1.791-1.792v-121.43359a1.79359 1.79359 0 0 1 1.791-1.792h7.8623a1.79359 1.79359 0 0 1 1.791 1.792v80.373a.83063.83063 0 0 0 .83008.83008h5.24219a1.79338 1.79338 0 0 1 1.791 1.791v38.43945a1.79359 1.79359 0 0 1 -1.791 1.792z" fill="#fff"/><path d="m612.32056 101.64584a1.74727 1.74727 0 0 1 1.74725 1.74725v80.37391a.87364.87364 0 0 0 .8736.87366h5.24182a1.74727 1.74727 0 0 1 1.74725 1.74725v38.4397a1.74727 1.74727 0 0 1 -1.74725 1.74725h-15.72534a1.74727 1.74727 0 0 1 -1.74725-1.74725v-121.43451a1.74727 1.74727 0 0 1 1.74725-1.74725h7.86267m0-.08762h-7.86267a1.837 1.837 0 0 0 -1.8349 1.83487v121.43448a1.837 1.837 0 0 0 1.8349 1.8349h15.72534a1.837 1.837 0 0 0 1.8349-1.8349v-38.4397a1.837 1.837 0 0 0 -1.8349-1.8349h-5.24182a.78685.78685 0 0 1 -.78595-.786v-80.37388a1.837 1.837 0 0 0 -1.8349-1.83487z" fill="#b3b3b3"/><path d="m644.64453 226.61914a1.79359 1.79359 0 0 1 -1.791-1.792v-38.43944a1.79338 1.79338 0 0 1 1.791-1.791h5.24219a.83042.83042 0 0 0 .8291-.83008v-80.373a1.7938 1.7938 0 0 1 1.792-1.792h7.8623a1.79359 1.79359 0 0 1 1.791 1.792v121.43353a1.79359 1.79359 0 0 1 -1.791 1.792z" fill="#fff"/><path d="m660.37012 101.64584a1.74723 1.74723 0 0 1 1.74725 1.74725v121.43449a1.74723 1.74723 0 0 1 -1.74725 1.74725h-15.72528a1.74723 1.74723 0 0 1 -1.74725-1.74725v-38.4397a1.74723 1.74723 0 0 1 1.74725-1.74725h5.24176a.87364.87364 0 0 0 .8736-.87366v-80.37387a1.74729 1.74729 0 0 1 1.74731-1.74725h7.86261m0-.08762h-7.86261a1.837 1.837 0 0 0 -1.835 1.83487v80.3739a.78685.78685 0 0 1 -.78595.786h-5.24176a1.837 1.837 0 0 0 -1.8349 1.8349v38.4397a1.837 1.837 0 0 0 1.8349 1.8349h15.72528a1.837 1.837 0 0 0 1.8349-1.8349v-121.4345a1.837 1.837 0 0 0 -1.8349-1.83487z" fill="#b3b3b3"/><path d="m624.55176 226.61914a1.7938 1.7938 0 0 1 -1.792-1.792v-38.43944a1.79359 1.79359 0 0 1 1.792-1.791h1.74707a.83042.83042 0 0 0 .8291-.83008v-80.373a1.7938 1.7938 0 0 1 1.792-1.792h6.98828a1.7938 1.7938 0 0 1 1.792 1.792v80.373a.83042.83042 0 0 0 .8291.83008h1.74707a1.79359 1.79359 0 0 1 1.792 1.791v38.43945a1.7938 1.7938 0 0 1 -1.792 1.792z" fill="#fff"/><path d="m635.90851 101.64584a1.74723 1.74723 0 0 1 1.74725 1.74725v80.37391a.87369.87369 0 0 0 .87366.87366h1.74725a1.74727 1.74727 0 0 1 1.74725 1.74725v38.4397a1.74727 1.74727 0 0 1 -1.74725 1.74725h-15.72534a1.74727 1.74727 0 0 1 -1.74725-1.74725v-38.4397a1.74729 1.74729 0 0 1 1.74731-1.74725l1.74719.00006a.87369.87369 0 0 0 .87366-.87366v-80.37396a1.74727 1.74727 0 0 1 1.74725-1.74725h6.989m0-.08762h-6.989a1.837 1.837 0 0 0 -1.8349 1.83487v80.3739a.7869.7869 0 0 1 -.786.786l-1.74719-.00006a1.837 1.837 0 0 0 -1.835 1.8349v38.4397a1.837 1.837 0 0 0 1.8349 1.8349h15.72534a1.837 1.837 0 0 0 1.8349-1.8349v-38.4397a1.837 1.837 0 0 0 -1.8349-1.8349h-1.74725a.7869.7869 0 0 1 -.786-.786v-80.37384a1.837 1.837 0 0 0 -1.8349-1.83487z" fill="#b3b3b3"/><path d="m624.55176 226.61914a1.7938 1.7938 0 0 1 -1.792-1.792v-38.43944a1.79359 1.79359 0 0 1 1.792-1.791h1.74707a.83042.83042 0 0 0 .8291-.83008v-80.373a1.7938 1.7938 0 0 1 1.792-1.792h6.98828a1.7938 1.7938 0 0 1 1.792 1.792v80.373a.83042.83042 0 0 0 .8291.83008h1.74707a1.79359 1.79359 0 0 1 1.792 1.791v38.43945a1.7938 1.7938 0 0 1 -1.792 1.792z" fill="#fff"/><path d="m635.90851 101.64584a1.74723 1.74723 0 0 1 1.74725 1.74725v80.37391a.87369.87369 0 0 0 .87366.87366h1.74725a1.74727 1.74727 0 0 1 1.74725 1.74725v38.4397a1.74727 1.74727 0 0 1 -1.74725 1.74725h-15.72534a1.74727 1.74727 0 0 1 -1.74725-1.74725v-38.4397a1.74729 1.74729 0 0 1 1.74731-1.74725l1.74719.00006a.87369.87369 0 0 0 .87366-.87366v-80.37396a1.74727 1.74727 0 0 1 1.74725-1.74725h6.989m0-.08762h-6.989a1.837 1.837 0 0 0 -1.8349 1.83487v80.3739a.7869.7869 0 0 1 -.786.786l-1.74719-.00006a1.837 1.837 0 0 0 -1.835 1.8349v38.4397a1.837 1.837 0 0 0 1.8349 1.8349h15.72534a1.837 1.837 0 0 0 1.8349-1.8349v-38.4397a1.837 1.837 0 0 0 -1.8349-1.8349h-1.74725a.7869.7869 0 0 1 -.786-.786v-80.37384a1.837 1.837 0 0 0 -1.8349-1.83487z" fill="#b3b3b3"/><path d="m684.832 226.61914a1.79359 1.79359 0 0 1 -1.791-1.792v-38.43944a1.79338 1.79338 0 0 1 1.791-1.791h1.74707a.83063.83063 0 0 0 .83008-.83008v-80.373a1.79359 1.79359 0 0 1 1.791-1.792h6.98828a1.7938 1.7938 0 0 1 1.792 1.792v80.373a.83042.83042 0 0 0 .8291.83008h1.74707a1.79359 1.79359 0 0 1 1.792 1.791v38.43945a1.7938 1.7938 0 0 1 -1.792 1.792z" fill="#fff"/><path d="m696.189 101.64584a1.74727 1.74727 0 0 1 1.74725 1.74725v80.37391a.87364.87364 0 0 0 .8736.87366h1.74725a1.74723 1.74723 0 0 1 1.74725 1.74725v38.4397a1.74723 1.74723 0 0 1 -1.74725 1.74725h-15.72531a1.74729 1.74729 0 0 1 -1.74731-1.74725v-38.4397a1.74729 1.74729 0 0 1 1.74731-1.74725l1.74719.00006a.87365.87365 0 0 0 .87366-.87366v-80.37396a1.74727 1.74727 0 0 1 1.74725-1.74725h6.98911m0-.08762h-6.98907a1.837 1.837 0 0 0 -1.8349 1.83487v80.3739a.7869.7869 0 0 1 -.786.786l-1.74719-.00006a1.837 1.837 0 0 0 -1.835 1.8349v38.4397a1.837 1.837 0 0 0 1.835 1.8349h15.72528a1.837 1.837 0 0 0 1.8349-1.8349v-38.4397a1.837 1.837 0 0 0 -1.8349-1.8349h-1.74725a.78685.78685 0 0 1 -.78595-.786v-80.37384a1.837 1.837 0 0 0 -1.8349-1.83487z" fill="#b3b3b3"/><path d="m704.9248 226.61914a1.79359 1.79359 0 0 1 -1.791-1.792v-38.43944a1.79338 1.79338 0 0 1 1.791-1.791h5.2422a.83063.83063 0 0 0 .83008-.83008v-80.373a1.79359 1.79359 0 0 1 1.791-1.792h3.49414a1.79359 1.79359 0 0 1 1.791 1.792v80.373a.83063.83063 0 0 0 .83008.83008h1.74707a1.79338 1.79338 0 0 1 1.791 1.791v38.43945a1.79359 1.79359 0 0 1 -1.791 1.792z" fill="#fff"/><path d="m716.28241 101.64584a1.74727 1.74727 0 0 1 1.74725 1.74725v80.37391a.87365.87365 0 0 0 .87366.87366h1.74725a1.74727 1.74727 0 0 1 1.74725 1.74725v38.4397a1.74727 1.74727 0 0 1 -1.74725 1.74725h-15.72534a1.74727 1.74727 0 0 1 -1.74725-1.74725v-38.4397a1.74727 1.74727 0 0 1 1.74725-1.74725l5.24176.00006a.87369.87369 0 0 0 .87366-.87366v-80.37396a1.74723 1.74723 0 0 1 1.74725-1.74725h3.49451m0-.08762h-3.49451a1.837 1.837 0 0 0 -1.8349 1.83487v80.3739a.7869.7869 0 0 1 -.786.786l-5.24176-.00006a1.837 1.837 0 0 0 -1.8349 1.8349v38.4397a1.837 1.837 0 0 0 1.8349 1.8349h15.72534a1.837 1.837 0 0 0 1.8349-1.8349v-38.4397a1.837 1.837 0 0 0 -1.8349-1.8349h-1.74725a.7869.7869 0 0 1 -.786-.786v-80.37384a1.837 1.837 0 0 0 -1.8349-1.83487z" fill="#b3b3b3"/><path d="m664.73828 226.61914a1.79359 1.79359 0 0 1 -1.791-1.792v-121.43359a1.79359 1.79359 0 0 1 1.791-1.792h7.8623a1.7938 1.7938 0 0 1 1.792 1.792v80.373a.83042.83042 0 0 0 .8291.83008h5.24219a1.79338 1.79338 0 0 1 1.791 1.791v38.43945a1.79359 1.79359 0 0 1 -1.791 1.792z" fill="#fff"/><path d="m672.601 101.64584a1.74727 1.74727 0 0 1 1.74725 1.74725v80.37391a.87365.87365 0 0 0 .87366.87366h5.24176a1.74727 1.74727 0 0 1 1.74725 1.74725v38.4397a1.74727 1.74727 0 0 1 -1.74725 1.74725h-15.72539a1.74727 1.74727 0 0 1 -1.74725-1.74725v-121.43451a1.74727 1.74727 0 0 1 1.74725-1.74725h7.86272m0-.08762h-7.86267a1.837 1.837 0 0 0 -1.8349 1.83487v121.43448a1.837 1.837 0 0 0 1.8349 1.8349h15.72534a1.837 1.837 0 0 0 1.8349-1.8349v-38.4397a1.837 1.837 0 0 0 -1.8349-1.8349h-5.24176a.7869.7869 0 0 1 -.786-.786v-80.37388a1.837 1.837 0 0 0 -1.8349-1.83487z" fill="#b3b3b3"/><path d="m725.01855 226.61914a1.79359 1.79359 0 0 1 -1.791-1.792v-38.43944a1.79338 1.79338 0 0 1 1.791-1.791h5.24219a.83042.83042 0 0 0 .8291-.83008v-80.373a1.7938 1.7938 0 0 1 1.792-1.792h7.8623a1.79359 1.79359 0 0 1 1.791 1.792v121.43353a1.79359 1.79359 0 0 1 -1.791 1.792z" fill="#fff"/><path d="m740.744 101.64584a1.74727 1.74727 0 0 1 1.74725 1.74725v121.43449a1.74727 1.74727 0 0 1 -1.74725 1.74725h-15.72532a1.74727 1.74727 0 0 1 -1.74725-1.74725v-38.4397a1.74727 1.74727 0 0 1 1.74725-1.74725h5.24182a.87364.87364 0 0 0 .8736-.87366v-80.37387a1.74727 1.74727 0 0 1 1.74725-1.74725h7.86265m0-.08762h-7.86267a1.837 1.837 0 0 0 -1.8349 1.83487v80.3739a.78685.78685 0 0 1 -.78595.786h-5.24182a1.837 1.837 0 0 0 -1.8349 1.8349v38.4397a1.837 1.837 0 0 0 1.8349 1.8349h15.72534a1.837 1.837 0 0 0 1.8349-1.8349v-121.4345a1.837 1.837 0 0 0 -1.8349-1.83487z" fill="#b3b3b3"/><path d="m745.1123 101.60156h15.72461a1.792 1.792 0 0 1 1.792 1.792v121.43456a1.791 1.791 0 0 1 -1.791 1.791h-15.72463a1.792 1.792 0 0 1 -1.792-1.792v-121.43454a1.791 1.791 0 0 1 1.79102-1.79102z" fill="#fff"/><path d="m760.83746 101.64584a1.74729 1.74729 0 0 1 1.74731 1.74725v121.43449a1.74729 1.74729 0 0 1 -1.74731 1.74725h-15.72528a1.74723 1.74723 0 0 1 -1.74725-1.74725v-121.43448a1.74723 1.74723 0 0 1 1.74725-1.74725h15.72528m0-.08762h-15.72528a1.837 1.837 0 0 0 -1.8349 1.83487v121.43448a1.837 1.837 0 0 0 1.8349 1.8349h15.72528a1.837 1.837 0 0 0 1.835-1.8349v-121.43448a1.837 1.837 0 0 0 -1.835-1.83487z" fill="#b3b3b3"/><path d="m182.49512 226.61914a1.7937 1.7937 0 0 1 -1.7915-1.792v-121.43359a1.7937 1.7937 0 0 1 1.7915-1.792h7.86279a1.79359 1.79359 0 0 1 1.791 1.792v80.373a.83053.83053 0 0 0 .82959.83008h5.2417a1.79349 1.79349 0 0 1 1.7915 1.791v38.43945a1.7937 1.7937 0 0 1 -1.7915 1.792z" fill="#fff"/><path d="m190.35768 101.64584a1.74726 1.74726 0 0 1 1.74725 1.74725v80.37391a.87366.87366 0 0 0 .87363.87366h5.24178a1.74726 1.74726 0 0 1 1.74725 1.74725v38.4397a1.74726 1.74726 0 0 1 -1.74725 1.74725h-15.72534a1.74726 1.74726 0 0 1 -1.74725-1.74725v-121.43451a1.74726 1.74726 0 0 1 1.74725-1.74725h7.86267m0-.08762h-7.86267a1.837 1.837 0 0 0 -1.83488 1.83487v121.43448a1.837 1.837 0 0 0 1.83488 1.8349h15.72533a1.837 1.837 0 0 0 1.83488-1.8349v-38.4397a1.837 1.837 0 0 0 -1.83488-1.8349h-5.24178a.78688.78688 0 0 1 -.786-.786v-80.37388a1.837 1.837 0 0 0 -1.83488-1.83487z" fill="#b3b3b3"/><path d="m222.68213 226.61914a1.7937 1.7937 0 0 1 -1.7915-1.792v-38.43944a1.79349 1.79349 0 0 1 1.7915-1.791h5.2417a.83053.83053 0 0 0 .82959-.83008v-80.373a1.79359 1.79359 0 0 1 1.791-1.792h7.86279a1.79359 1.79359 0 0 1 1.791 1.792v121.43353a1.79359 1.79359 0 0 1 -1.791 1.792z" fill="#fff"/><path d="m238.40727 101.64584a1.74727 1.74727 0 0 1 1.74727 1.74725v121.43449a1.74727 1.74727 0 0 1 -1.74727 1.74725h-15.72527a1.74727 1.74727 0 0 1 -1.74727-1.74725v-38.4397a1.74727 1.74727 0 0 1 1.74727-1.74725h5.24178a.87366.87366 0 0 0 .87363-.87366v-80.37387a1.74726 1.74726 0 0 1 1.74725-1.74725h7.86266m0-.08762h-7.86266a1.837 1.837 0 0 0 -1.83487 1.83487v80.3739a.7869.7869 0 0 1 -.786.786h-5.24179a1.837 1.837 0 0 0 -1.8349 1.8349v38.4397a1.837 1.837 0 0 0 1.8349 1.8349h15.72531a1.837 1.837 0 0 0 1.8349-1.8349v-121.4345a1.837 1.837 0 0 0 -1.8349-1.83487z" fill="#b3b3b3"/><path d="m202.58838 226.61914a1.79359 1.79359 0 0 1 -1.791-1.792v-38.43944a1.79338 1.79338 0 0 1 1.791-1.791h1.74756a.83053.83053 0 0 0 .82959-.83008v-80.373a1.79359 1.79359 0 0 1 1.791-1.792h6.98926a1.79359 1.79359 0 0 1 1.791 1.792v80.373a.83053.83053 0 0 0 .82959.83008h1.74762a1.79338 1.79338 0 0 1 1.791 1.791v38.43945a1.79359 1.79359 0 0 1 -1.791 1.792z" fill="#fff"/><path d="m213.94566 101.64584a1.74726 1.74726 0 0 1 1.74725 1.74725v80.37391a.87366.87366 0 0 0 .87363.87366h1.74727a1.74726 1.74726 0 0 1 1.74725 1.74725v38.4397a1.74726 1.74726 0 0 1 -1.74725 1.74725h-15.72532a1.74726 1.74726 0 0 1 -1.74725-1.74725v-38.4397a1.74727 1.74727 0 0 1 1.74727-1.74725l1.74724.00006a.87365.87365 0 0 0 .87363-.87366v-80.37396a1.74728 1.74728 0 0 1 1.74727-1.74725h6.989m0-.08762h-6.989a1.837 1.837 0 0 0 -1.8349 1.83487v80.3739a.78689.78689 0 0 1 -.786.786l-1.74724-.00006a1.837 1.837 0 0 0 -1.8349 1.8349v38.4397a1.837 1.837 0 0 0 1.83488 1.8349h15.72533a1.837 1.837 0 0 0 1.83488-1.8349v-38.4397a1.837 1.837 0 0 0 -1.83488-1.8349h-1.74727a.78689.78689 0 0 1 -.786-.786v-80.37384a1.837 1.837 0 0 0 -1.83488-1.83487z" fill="#b3b3b3"/><path d="m202.58838 226.61914a1.79359 1.79359 0 0 1 -1.791-1.792v-38.43944a1.79338 1.79338 0 0 1 1.791-1.791h1.74756a.83053.83053 0 0 0 .82959-.83008v-80.373a1.79359 1.79359 0 0 1 1.791-1.792h6.98926a1.79359 1.79359 0 0 1 1.791 1.792v80.373a.83053.83053 0 0 0 .82959.83008h1.74762a1.79338 1.79338 0 0 1 1.791 1.791v38.43945a1.79359 1.79359 0 0 1 -1.791 1.792z" fill="#fff"/><path d="m213.94566 101.64584a1.74726 1.74726 0 0 1 1.74725 1.74725v80.37391a.87366.87366 0 0 0 .87363.87366h1.74727a1.74726 1.74726 0 0 1 1.74725 1.74725v38.4397a1.74726 1.74726 0 0 1 -1.74725 1.74725h-15.72532a1.74726 1.74726 0 0 1 -1.74725-1.74725v-38.4397a1.74727 1.74727 0 0 1 1.74727-1.74725l1.74724.00006a.87365.87365 0 0 0 .87363-.87366v-80.37396a1.74728 1.74728 0 0 1 1.74727-1.74725h6.989m0-.08762h-6.989a1.837 1.837 0 0 0 -1.8349 1.83487v80.3739a.78689.78689 0 0 1 -.786.786l-1.74724-.00006a1.837 1.837 0 0 0 -1.8349 1.8349v38.4397a1.837 1.837 0 0 0 1.83488 1.8349h15.72533a1.837 1.837 0 0 0 1.83488-1.8349v-38.4397a1.837 1.837 0 0 0 -1.83488-1.8349h-1.74727a.78689.78689 0 0 1 -.786-.786v-80.37384a1.837 1.837 0 0 0 -1.83488-1.83487z" fill="#b3b3b3"/><path d="m262.86865 226.61914a1.79359 1.79359 0 0 1 -1.791-1.792v-38.43944a1.79349 1.79349 0 0 1 1.7915-1.791h1.74707a.83053.83053 0 0 0 .82959-.83008v-80.373a1.79359 1.79359 0 0 1 1.791-1.792h6.98926a1.79359 1.79359 0 0 1 1.791 1.792v80.373a.83063.83063 0 0 0 .83008.83008h1.74707a1.79338 1.79338 0 0 1 1.791 1.791v38.43945a1.79359 1.79359 0 0 1 -1.791 1.792z" fill="#fff"/><path d="m274.22607 101.64584a1.74725 1.74725 0 0 1 1.74725 1.74725v80.37391a.87366.87366 0 0 0 .87363.87366h1.74725a1.74725 1.74725 0 0 1 1.74725 1.74725v38.4397a1.74725 1.74725 0 0 1 -1.74725 1.74725h-15.7253a1.74725 1.74725 0 0 1 -1.74725-1.74725v-38.4397a1.74727 1.74727 0 0 1 1.74725-1.74725l1.74725.00006a.87366.87366 0 0 0 .87363-.87366v-80.37396a1.74727 1.74727 0 0 1 1.74725-1.74725h6.989m0-.08762h-6.989a1.837 1.837 0 0 0 -1.83487 1.83487v80.3739a.7869.7869 0 0 1 -.786.786l-1.74725-.00006a1.837 1.837 0 0 0 -1.83487 1.8349v38.4397a1.837 1.837 0 0 0 1.83487 1.8349h15.72531a1.837 1.837 0 0 0 1.83487-1.8349v-38.4397a1.837 1.837 0 0 0 -1.83487-1.8349h-1.74722a.7869.7869 0 0 1 -.786-.786v-80.37384a1.837 1.837 0 0 0 -1.83487-1.83487z" fill="#b3b3b3"/><path d="m282.9624 226.61914a1.79359 1.79359 0 0 1 -1.791-1.792v-38.43944a1.79338 1.79338 0 0 1 1.791-1.791h5.2417a.83053.83053 0 0 0 .82959-.83008v-80.373a1.7937 1.7937 0 0 1 1.7915-1.792h3.49414a1.7937 1.7937 0 0 1 1.7915 1.792v80.373a.83053.83053 0 0 0 .82959.83008h1.74707a1.79349 1.79349 0 0 1 1.7915 1.791v38.43945a1.7937 1.7937 0 0 1 -1.7915 1.792z" fill="#fff"/><path d="m294.31955 101.64584a1.74727 1.74727 0 0 1 1.74725 1.74725v80.37391a.87366.87366 0 0 0 .87363.87366h1.74725a1.74725 1.74725 0 0 1 1.74725 1.74725v38.4397a1.74725 1.74725 0 0 1 -1.74725 1.74725h-15.72531a1.74725 1.74725 0 0 1 -1.74725-1.74725v-38.4397a1.74725 1.74725 0 0 1 1.74725-1.74725l5.24176.00006a.87366.87366 0 0 0 .87363-.87366v-80.37396a1.74727 1.74727 0 0 1 1.74725-1.74725h3.49454m0-.08762h-3.49455a1.837 1.837 0 0 0 -1.83487 1.83487v80.3739a.7869.7869 0 0 1 -.786.786l-5.24176-.00006a1.837 1.837 0 0 0 -1.83487 1.8349v38.4397a1.837 1.837 0 0 0 1.83487 1.8349h15.72531a1.837 1.837 0 0 0 1.83487-1.8349v-38.4397a1.837 1.837 0 0 0 -1.83487-1.8349h-1.74725a.7869.7869 0 0 1 -.786-.786v-80.37384a1.837 1.837 0 0 0 -1.83487-1.83487z" fill="#b3b3b3"/><path d="m242.77539 226.61914a1.79359 1.79359 0 0 1 -1.791-1.792v-121.43359a1.79359 1.79359 0 0 1 1.791-1.792h7.86279a1.79359 1.79359 0 0 1 1.791 1.792v80.373a.83053.83053 0 0 0 .82959.83008h5.24223a1.79338 1.79338 0 0 1 1.791 1.791v38.43945a1.79359 1.79359 0 0 1 -1.791 1.792z" fill="#fff"/><path d="m250.63809 101.64584a1.74726 1.74726 0 0 1 1.74725 1.74725v80.37391a.87366.87366 0 0 0 .87363.87366h5.24179a1.74727 1.74727 0 0 1 1.74725 1.74725v38.4397a1.74727 1.74727 0 0 1 -1.74725 1.74725h-15.72534a1.74726 1.74726 0 0 1 -1.74725-1.74725v-121.43451a1.74726 1.74726 0 0 1 1.74725-1.74725h7.86267m0-.08762h-7.86267a1.837 1.837 0 0 0 -1.83488 1.83487v121.43448a1.837 1.837 0 0 0 1.83488 1.8349h15.72534a1.837 1.837 0 0 0 1.83487-1.8349v-38.4397a1.837 1.837 0 0 0 -1.83487-1.8349h-5.24176a.7869.7869 0 0 1 -.786-.786v-80.37388a1.837 1.837 0 0 0 -1.83487-1.83487z" fill="#b3b3b3"/><path d="m303.05566 226.61914a1.79359 1.79359 0 0 1 -1.791-1.792v-38.43944a1.79338 1.79338 0 0 1 1.791-1.791h5.24219a.83053.83053 0 0 0 .82959-.83008v-80.373a1.79359 1.79359 0 0 1 1.791-1.792h7.86279a1.79359 1.79359 0 0 1 1.791 1.792v121.43353a1.79359 1.79359 0 0 1 -1.791 1.792z" fill="#fff"/><path d="m318.78116 101.64584a1.74725 1.74725 0 0 1 1.74725 1.74725v121.43449a1.74725 1.74725 0 0 1 -1.74725 1.74725h-15.72531a1.74728 1.74728 0 0 1 -1.74728-1.74725v-38.4397a1.74728 1.74728 0 0 1 1.74728-1.74725h5.24176a.87366.87366 0 0 0 .87363-.87366v-80.37387a1.74727 1.74727 0 0 1 1.74725-1.74725h7.86267m0-.08762h-7.86267a1.837 1.837 0 0 0 -1.83487 1.83487v80.3739a.7869.7869 0 0 1 -.786.786h-5.24176a1.837 1.837 0 0 0 -1.8349 1.8349v38.4397a1.837 1.837 0 0 0 1.8349 1.8349h15.72531a1.837 1.837 0 0 0 1.83487-1.8349v-121.4345a1.837 1.837 0 0 0 -1.83487-1.83487z" fill="#b3b3b3"/><path d="m41.84082 226.61914a1.7937 1.7937 0 0 1 -1.7915-1.792v-121.43359a1.7937 1.7937 0 0 1 1.7915-1.792h7.86279a1.79359 1.79359 0 0 1 1.791 1.792v80.373a.83053.83053 0 0 0 .82959.83008h5.2417a1.79349 1.79349 0 0 1 1.7915 1.791v38.43945a1.7937 1.7937 0 0 1 -1.7915 1.792z" fill="#fff"/><path d="m49.70339 101.64584a1.74727 1.74727 0 0 1 1.74726 1.74725v80.37391a.87366.87366 0 0 0 .87362.87366h5.24179a1.74727 1.74727 0 0 1 1.74726 1.74725v38.4397a1.74727 1.74727 0 0 1 -1.74726 1.74725h-15.72533a1.74727 1.74727 0 0 1 -1.74726-1.74725v-121.43451a1.74727 1.74727 0 0 1 1.74726-1.74725h7.86266m0-.08762h-7.86266a1.837 1.837 0 0 0 -1.83489 1.83487v121.43448a1.837 1.837 0 0 0 1.83489 1.8349h15.72533a1.837 1.837 0 0 0 1.83489-1.8349v-38.4397a1.837 1.837 0 0 0 -1.83489-1.8349h-5.24179a.78688.78688 0 0 1 -.786-.786v-80.37388a1.837 1.837 0 0 0 -1.83489-1.83487z" fill="#b3b3b3"/><path d="m82.02783 226.61914a1.7937 1.7937 0 0 1 -1.7915-1.792v-38.43944a1.79349 1.79349 0 0 1 1.7915-1.791h5.2417a.83053.83053 0 0 0 .82959-.83008v-80.373a1.79359 1.79359 0 0 1 1.791-1.792h7.86279a1.7937 1.7937 0 0 1 1.7915 1.792v121.43353a1.7937 1.7937 0 0 1 -1.7915 1.792z" fill="#fff"/><path d="m97.753 101.64584a1.74728 1.74728 0 0 1 1.74726 1.74725v121.43449a1.74728 1.74728 0 0 1 -1.74726 1.74725h-15.72534a1.74727 1.74727 0 0 1 -1.74725-1.74725v-38.4397a1.74727 1.74727 0 0 1 1.74725-1.74725h5.24178a.87366.87366 0 0 0 .87363-.87366v-80.37387a1.74727 1.74727 0 0 1 1.74726-1.74725h7.86267m0-.08762h-7.86266a1.837 1.837 0 0 0 -1.83489 1.83487v80.3739a.7869.7869 0 0 1 -.786.786h-5.24179a1.837 1.837 0 0 0 -1.83488 1.8349v38.4397a1.837 1.837 0 0 0 1.83488 1.8349h15.72534a1.837 1.837 0 0 0 1.83489-1.8349v-121.4345a1.837 1.837 0 0 0 -1.83489-1.83487z" fill="#b3b3b3"/><path d="m61.93408 226.61914a1.79359 1.79359 0 0 1 -1.791-1.792v-38.43944a1.79338 1.79338 0 0 1 1.791-1.791h1.74756a.83053.83053 0 0 0 .82959-.83008v-80.373a1.79359 1.79359 0 0 1 1.791-1.792h6.98927a1.79359 1.79359 0 0 1 1.791 1.792v80.373a.83053.83053 0 0 0 .82959.83008h1.74756a1.79338 1.79338 0 0 1 1.791 1.791v38.43945a1.79359 1.79359 0 0 1 -1.791 1.792z" fill="#fff"/><path d="m73.29137 101.64584a1.74726 1.74726 0 0 1 1.74726 1.74725v80.37391a.87366.87366 0 0 0 .87363.87366h1.74726a1.74727 1.74727 0 0 1 1.74726 1.74725v38.4397a1.74727 1.74727 0 0 1 -1.74726 1.74725h-15.72532a1.74727 1.74727 0 0 1 -1.74726-1.74725v-38.4397a1.74728 1.74728 0 0 1 1.74728-1.74725l1.74723.00006a.87367.87367 0 0 0 .87365-.87366v-80.37396a1.74726 1.74726 0 0 1 1.74726-1.74725h6.989m0-.08762h-6.989a1.837 1.837 0 0 0 -1.83489 1.83487v80.3739a.7869.7869 0 0 1 -.786.786l-1.74723-.00006a1.837 1.837 0 0 0 -1.83491 1.8349v38.4397a1.837 1.837 0 0 0 1.83489 1.8349h15.7253a1.837 1.837 0 0 0 1.83489-1.8349v-38.4397a1.837 1.837 0 0 0 -1.83489-1.8349h-1.74726a.7869.7869 0 0 1 -.786-.786v-80.37384a1.837 1.837 0 0 0 -1.83489-1.83487z" fill="#b3b3b3"/><path d="m61.93408 226.61914a1.79359 1.79359 0 0 1 -1.791-1.792v-38.43944a1.79338 1.79338 0 0 1 1.791-1.791h1.74756a.83053.83053 0 0 0 .82959-.83008v-80.373a1.79359 1.79359 0 0 1 1.791-1.792h6.98927a1.79359 1.79359 0 0 1 1.791 1.792v80.373a.83053.83053 0 0 0 .82959.83008h1.74756a1.79338 1.79338 0 0 1 1.791 1.791v38.43945a1.79359 1.79359 0 0 1 -1.791 1.792z" fill="#fff"/><path d="m73.29137 101.64584a1.74726 1.74726 0 0 1 1.74726 1.74725v80.37391a.87366.87366 0 0 0 .87363.87366h1.74726a1.74727 1.74727 0 0 1 1.74726 1.74725v38.4397a1.74727 1.74727 0 0 1 -1.74726 1.74725h-15.72532a1.74727 1.74727 0 0 1 -1.74726-1.74725v-38.4397a1.74728 1.74728 0 0 1 1.74728-1.74725l1.74723.00006a.87367.87367 0 0 0 .87365-.87366v-80.37396a1.74726 1.74726 0 0 1 1.74726-1.74725h6.989m0-.08762h-6.989a1.837 1.837 0 0 0 -1.83489 1.83487v80.3739a.7869.7869 0 0 1 -.786.786l-1.74723-.00006a1.837 1.837 0 0 0 -1.83491 1.8349v38.4397a1.837 1.837 0 0 0 1.83489 1.8349h15.7253a1.837 1.837 0 0 0 1.83489-1.8349v-38.4397a1.837 1.837 0 0 0 -1.83489-1.8349h-1.74726a.7869.7869 0 0 1 -.786-.786v-80.37384a1.837 1.837 0 0 0 -1.83489-1.83487z" fill="#b3b3b3"/><path d="m122.21484 226.61914a1.7937 1.7937 0 0 1 -1.7915-1.792v-38.43944a1.79349 1.79349 0 0 1 1.7915-1.791h1.74707a.83053.83053 0 0 0 .82959-.83008v-80.373a1.79359 1.79359 0 0 1 1.791-1.792h6.98926a1.79359 1.79359 0 0 1 1.791 1.792v80.373a.83063.83063 0 0 0 .83008.83008h1.74707a1.79338 1.79338 0 0 1 1.791 1.791v38.43945a1.79359 1.79359 0 0 1 -1.791 1.792z" fill="#fff"/><path d="m133.57179 101.64584a1.74726 1.74726 0 0 1 1.74725 1.74725v80.37391a.87365.87365 0 0 0 .87363.87366h1.74725a1.74728 1.74728 0 0 1 1.74727 1.74725v38.4397a1.74728 1.74728 0 0 1 -1.74727 1.74725h-15.72531a1.74727 1.74727 0 0 1 -1.74726-1.74725v-38.4397a1.74728 1.74728 0 0 1 1.74728-1.74725l1.74723.00006a.87367.87367 0 0 0 .87365-.87366v-80.37396a1.74725 1.74725 0 0 1 1.74725-1.74725h6.989m0-.08762h-6.989a1.837 1.837 0 0 0 -1.83488 1.83487v80.3739a.7869.7869 0 0 1 -.786.786l-1.74723-.00006a1.837 1.837 0 0 0 -1.83491 1.8349v38.4397a1.837 1.837 0 0 0 1.83489 1.8349h15.72532a1.837 1.837 0 0 0 1.8349-1.8349v-38.4397a1.837 1.837 0 0 0 -1.8349-1.8349h-1.74725a.78689.78689 0 0 1 -.786-.786v-80.37384a1.837 1.837 0 0 0 -1.83488-1.83487z" fill="#b3b3b3"/><path d="m142.30811 226.61914a1.79359 1.79359 0 0 1 -1.791-1.792v-38.43944a1.79338 1.79338 0 0 1 1.791-1.791h5.2417a.83053.83053 0 0 0 .82959-.83008v-80.373a1.7937 1.7937 0 0 1 1.7915-1.792h3.4941a1.7937 1.7937 0 0 1 1.7915 1.792v80.373a.83053.83053 0 0 0 .82959.83008h1.74707a1.79349 1.79349 0 0 1 1.7915 1.791v38.43945a1.7937 1.7937 0 0 1 -1.7915 1.792z" fill="#fff"/><path d="m153.66525 101.64584a1.74726 1.74726 0 0 1 1.74725 1.74725v80.37391a.87367.87367 0 0 0 .87364.87366h1.74725a1.74726 1.74726 0 0 1 1.74725 1.74725v38.4397a1.74726 1.74726 0 0 1 -1.74725 1.74725h-15.72531a1.74726 1.74726 0 0 1 -1.74725-1.74725v-38.4397a1.74728 1.74728 0 0 1 1.74727-1.74725l5.24174.00006a.87367.87367 0 0 0 .87364-.87366v-80.37396a1.74726 1.74726 0 0 1 1.74725-1.74725h3.49452m0-.08762h-3.49452a1.837 1.837 0 0 0 -1.83488 1.83487v80.3739a.78689.78689 0 0 1 -.786.786l-5.24174-.00006a1.837 1.837 0 0 0 -1.8349 1.8349v38.4397a1.837 1.837 0 0 0 1.83488 1.8349h15.72531a1.837 1.837 0 0 0 1.83488-1.8349v-38.4397a1.837 1.837 0 0 0 -1.83488-1.8349h-1.74725a.7869.7869 0 0 1 -.786-.786v-80.37384a1.837 1.837 0 0 0 -1.83488-1.83487z" fill="#b3b3b3"/><path d="m102.12109 226.61914a1.79359 1.79359 0 0 1 -1.791-1.792v-121.43359a1.79359 1.79359 0 0 1 1.791-1.792h7.86279a1.79359 1.79359 0 0 1 1.791 1.792v80.373a.83053.83053 0 0 0 .82959.83008h5.24219a1.79338 1.79338 0 0 1 1.791 1.791v38.43945a1.79359 1.79359 0 0 1 -1.791 1.792z" fill="#fff"/><path d="m109.9838 101.64584a1.74727 1.74727 0 0 1 1.74726 1.74725v80.37391a.87366.87366 0 0 0 .87363.87366h5.24177a1.74727 1.74727 0 0 1 1.74726 1.74725v38.4397a1.74727 1.74727 0 0 1 -1.74726 1.74725h-15.72533a1.74727 1.74727 0 0 1 -1.74726-1.74725v-121.43451a1.74727 1.74727 0 0 1 1.74726-1.74725h7.86266m0-.08762h-7.86266a1.837 1.837 0 0 0 -1.83489 1.83487v121.43448a1.837 1.837 0 0 0 1.83489 1.8349h15.72533a1.837 1.837 0 0 0 1.83489-1.8349v-38.4397a1.837 1.837 0 0 0 -1.83489-1.8349h-5.24177a.7869.7869 0 0 1 -.786-.786v-80.37388a1.837 1.837 0 0 0 -1.83489-1.83487z" fill="#b3b3b3"/><path d="m162.40137 226.61914a1.79359 1.79359 0 0 1 -1.791-1.792v-38.43944a1.79338 1.79338 0 0 1 1.791-1.791h5.24219a.83053.83053 0 0 0 .82959-.83008v-80.373a1.79359 1.79359 0 0 1 1.791-1.792h7.86285a1.79359 1.79359 0 0 1 1.791 1.792v121.43353a1.79359 1.79359 0 0 1 -1.791 1.792z" fill="#fff"/><path d="m178.12688 101.64584a1.74726 1.74726 0 0 1 1.74725 1.74725v121.43449a1.74726 1.74726 0 0 1 -1.74725 1.74725h-15.72533a1.74728 1.74728 0 0 1 -1.74727-1.74725v-38.4397a1.74728 1.74728 0 0 1 1.74727-1.74725h5.24178a.87366.87366 0 0 0 .87363-.87366v-80.37387a1.74726 1.74726 0 0 1 1.74725-1.74725h7.86267m0-.08762h-7.86267a1.837 1.837 0 0 0 -1.83487 1.83487v80.3739a.7869.7869 0 0 1 -.786.786h-5.24178a1.837 1.837 0 0 0 -1.8349 1.8349v38.4397a1.837 1.837 0 0 0 1.8349 1.8349h15.72533a1.837 1.837 0 0 0 1.83488-1.8349v-121.4345a1.837 1.837 0 0 0 -1.83488-1.83487z" fill="#b3b3b3"/><path d="m64.99585 79.36831h672.68651a1.3144 1.3144 0 0 1 1.3144 1.3144v3.05375a0 0 0 0 1 0 0h-675.3153a0 0 0 0 1 0 0v-3.05375a1.3144 1.3144 0 0 1 1.31439-1.3144z" fill="#999" stroke="#000" stroke-miterlimit="10" stroke-width=".08763"/><circle cx="546.57983" cy="81.55249" r="1.44775"/><path d="m546.58 80.14868a1.4037 1.4037 0 1 1 -1.40369 1.40369 1.4037 1.4037 0 0 1 1.40369-1.40369m0-.08765a1.49135 1.49135 0 1 0 1.49133 1.49133 1.493 1.493 0 0 0 -1.49133-1.49136z"/><circle cx="567.32886" cy="81.55249" r="1.44775"/><path d="m567.32861 80.14868a1.4037 1.4037 0 1 1 -1.40369 1.40369 1.40371 1.40371 0 0 1 1.40369-1.40369m0-.08765a1.49135 1.49135 0 1 0 1.49139 1.49134 1.493 1.493 0 0 0 -1.49139-1.49133z"/><circle cx="588.07739" cy="81.55249" r="1.44775"/><path d="m588.07733 80.14868a1.4037 1.4037 0 1 1 -1.40369 1.40369 1.40366 1.40366 0 0 1 1.40369-1.40369m0-.08765a1.49135 1.49135 0 1 0 1.49133 1.49133 1.493 1.493 0 0 0 -1.49133-1.49133z"/><circle cx="608.82593" cy="81.55249" r="1.44775"/><path d="m608.826 80.14868a1.4037 1.4037 0 1 1 -1.40375 1.40369 1.4037 1.4037 0 0 1 1.40375-1.40369m0-.08765a1.49135 1.49135 0 1 0 1.49133 1.49133 1.49309 1.49309 0 0 0 -1.49133-1.49136z"/><circle cx="629.57495" cy="81.55249" r="1.44775"/><path d="m629.57471 80.14868a1.4037 1.4037 0 1 1 -1.40369 1.40369 1.40366 1.40366 0 0 1 1.40369-1.40369m0-.08765a1.49135 1.49135 0 1 0 1.49133 1.49133 1.493 1.493 0 0 0 -1.49133-1.49133z"/><circle cx="650.32349" cy="81.55249" r="1.44775"/><path d="m650.32343 80.14868a1.4037 1.4037 0 1 1 -1.40375 1.40369 1.4037 1.4037 0 0 1 1.40375-1.40369m0-.08765a1.49135 1.49135 0 1 0 1.49133 1.49133 1.49309 1.49309 0 0 0 -1.49133-1.49133z"/><circle cx="671.07202" cy="81.55249" r="1.44775"/><path d="m671.07208 80.14868a1.4037 1.4037 0 1 1 -1.40369 1.40369 1.40371 1.40371 0 0 1 1.40369-1.40369m0-.08765a1.49135 1.49135 0 1 0 1.49139 1.49133 1.493 1.493 0 0 0 -1.49139-1.49133z"/><circle cx="691.82056" cy="81.55249" r="1.44775"/><path d="m691.8208 80.14868a1.4037 1.4037 0 1 1 -1.40369 1.40369 1.4037 1.4037 0 0 1 1.40369-1.40369m0-.08765a1.49135 1.49135 0 1 0 1.49133 1.49133 1.493 1.493 0 0 0 -1.49133-1.49136z"/><circle cx="712.56958" cy="81.55249" r="1.44775"/><path d="m712.56946 80.14868a1.4037 1.4037 0 1 1 -1.40369 1.40369 1.40371 1.40371 0 0 1 1.40369-1.40369m0-.08765a1.49135 1.49135 0 1 0 1.49139 1.49133 1.493 1.493 0 0 0 -1.49139-1.49133z"/><circle cx="733.31812" cy="81.55249" r="1.44775"/><path d="m733.31818 80.14868a1.4037 1.4037 0 1 1 -1.40369 1.40369 1.40366 1.40366 0 0 1 1.40369-1.40369m0-.08765a1.49135 1.49135 0 1 0 1.49133 1.49133 1.493 1.493 0 0 0 -1.49133-1.49133z"/><circle cx="401.33899" cy="57.09082" r="1.44739"/><path d="m401.33911 55.68707a1.4037 1.4037 0 1 1 -1.40372 1.40369 1.40368 1.40368 0 0 1 1.40372-1.40369m0-.08765a1.49135 1.49135 0 1 0 1.49133 1.49133 1.49306 1.49306 0 0 0 -1.49133-1.49133z"/><circle cx="422.08789" cy="57.09082" r="1.44751"/><path d="m422.0878 55.68707a1.4037 1.4037 0 1 1 -1.40369 1.40369 1.40371 1.40371 0 0 1 1.40369-1.40369m0-.08765a1.49135 1.49135 0 1 0 1.49136 1.49133 1.49306 1.49306 0 0 0 -1.49136-1.49133z"/><circle cx="442.83643" cy="57.09082" r="1.44751"/><path d="m442.83649 55.68707a1.4037 1.4037 0 1 1 -1.40369 1.40369 1.40371 1.40371 0 0 1 1.40369-1.40369m0-.08765a1.49135 1.49135 0 1 0 1.49136 1.49133 1.49306 1.49306 0 0 0 -1.49136-1.49133z"/><circle cx="463.58508" cy="57.09082" r="1.44739"/><path d="m463.58517 55.68707a1.4037 1.4037 0 1 1 -1.40369 1.40369 1.40371 1.40371 0 0 1 1.40369-1.40369m0-.08765a1.49135 1.49135 0 1 0 1.49136 1.49133 1.49306 1.49306 0 0 0 -1.49136-1.49133z"/><circle cx="484.33398" cy="57.09082" r="1.44751"/><path d="m484.33386 55.68707a1.4037 1.4037 0 1 1 -1.40369 1.40369 1.40369 1.40369 0 0 1 1.40369-1.40369m0-.08765a1.49135 1.49135 0 1 0 1.49136 1.49133 1.49306 1.49306 0 0 0 -1.49136-1.49133z"/><circle cx="505.08252" cy="57.09082" r="1.44751"/><path d="m505.08258 55.68707a1.4037 1.4037 0 1 1 -1.40372 1.40369 1.40368 1.40368 0 0 1 1.40372-1.40369m0-.08765a1.49135 1.49135 0 1 0 1.49133 1.49133 1.49306 1.49306 0 0 0 -1.49133-1.49133z"/><circle cx="525.8313" cy="57.09082" r="1.44751"/><path d="m525.83124 55.68707a1.4037 1.4037 0 1 1 -1.40369 1.40369 1.40371 1.40371 0 0 1 1.40369-1.40369m0-.08765a1.49135 1.49135 0 1 0 1.49139 1.49133 1.493 1.493 0 0 0 -1.49139-1.49133z"/><circle cx="546.57983" cy="57.09082" r="1.44751"/><path d="m546.58 55.68707a1.4037 1.4037 0 1 1 -1.40369 1.40369 1.4037 1.4037 0 0 1 1.40369-1.40369m0-.08765a1.49135 1.49135 0 1 0 1.49133 1.49133 1.493 1.493 0 0 0 -1.49133-1.49132z"/><circle cx="567.32886" cy="57.09082" r="1.44751"/><path d="m567.32861 55.68707a1.4037 1.4037 0 1 1 -1.40369 1.40369 1.40371 1.40371 0 0 1 1.40369-1.40369m0-.08765a1.49135 1.49135 0 1 0 1.49139 1.49134 1.493 1.493 0 0 0 -1.49139-1.49133z"/><circle cx="588.07739" cy="57.09082" r="1.44751"/><path d="m588.07733 55.68707a1.4037 1.4037 0 1 1 -1.40369 1.40369 1.40366 1.40366 0 0 1 1.40369-1.40369m0-.08765a1.49135 1.49135 0 1 0 1.49133 1.49133 1.493 1.493 0 0 0 -1.49133-1.49133z"/><circle cx="608.82593" cy="57.09082" r="1.44751"/><path d="m608.826 55.68707a1.4037 1.4037 0 1 1 -1.40375 1.40369 1.4037 1.4037 0 0 1 1.40375-1.40369m0-.08765a1.49135 1.49135 0 1 0 1.49133 1.49133 1.49309 1.49309 0 0 0 -1.49133-1.49133z"/><circle cx="629.57495" cy="57.09082" r="1.44751"/><path d="m629.57471 55.68707a1.4037 1.4037 0 1 1 -1.40369 1.40369 1.40366 1.40366 0 0 1 1.40369-1.40369m0-.08765a1.49135 1.49135 0 1 0 1.49133 1.49133 1.493 1.493 0 0 0 -1.49133-1.49133z"/><circle cx="650.32349" cy="57.09082" r="1.44751"/><path d="m650.32343 55.68707a1.4037 1.4037 0 1 1 -1.40375 1.40369 1.4037 1.4037 0 0 1 1.40375-1.40369m0-.08765a1.49135 1.49135 0 1 0 1.49133 1.49133 1.49309 1.49309 0 0 0 -1.49133-1.49133z"/><circle cx="671.07202" cy="57.09082" r="1.44751"/><path d="m671.07208 55.68707a1.4037 1.4037 0 1 1 -1.40369 1.40369 1.40371 1.40371 0 0 1 1.40369-1.40369m0-.08765a1.49135 1.49135 0 1 0 1.49139 1.49133 1.493 1.493 0 0 0 -1.49139-1.49133z"/><circle cx="691.82056" cy="57.09082" r="1.44751"/><path d="m691.8208 55.68707a1.4037 1.4037 0 1 1 -1.40369 1.40369 1.4037 1.4037 0 0 1 1.40369-1.40369m0-.08765a1.49135 1.49135 0 1 0 1.49133 1.49133 1.493 1.493 0 0 0 -1.49133-1.49133z"/><circle cx="712.56958" cy="57.09082" r="1.44751"/><path d="m712.56946 55.68707a1.4037 1.4037 0 1 1 -1.40369 1.40369 1.40371 1.40371 0 0 1 1.40369-1.40369m0-.08765a1.49135 1.49135 0 1 0 1.49139 1.49133 1.493 1.493 0 0 0 -1.49139-1.49133z"/><circle cx="733.31812" cy="57.09082" r="1.44751"/><path d="m733.31818 55.68707a1.4037 1.4037 0 1 1 -1.40369 1.40369 1.40366 1.40366 0 0 1 1.40369-1.40369m0-.08765a1.49135 1.49135 0 1 0 1.49133 1.49133 1.493 1.493 0 0 0 -1.49133-1.49133z"/><circle cx="69.35999" cy="81.55249" r="1.44763"/><path d="m69.36 80.14868a1.4037 1.4037 0 1 1 -1.4037 1.40369 1.40369 1.40369 0 0 1 1.4037-1.40369m0-.08765a1.49135 1.49135 0 1 0 1.49133 1.49133 1.493 1.493 0 0 0 -1.49133-1.49136z"/><circle cx="90.10876" cy="81.55249" r="1.44763"/><path d="m90.10873 80.14868a1.4037 1.4037 0 1 1 -1.4037 1.40369 1.40369 1.40369 0 0 1 1.4037-1.40369m0-.08765a1.49135 1.49135 0 1 0 1.49133 1.49133 1.493 1.493 0 0 0 -1.49133-1.49136z"/><circle cx="110.85742" cy="81.55249" r="1.44775"/><path d="m110.85743 80.14868a1.4037 1.4037 0 1 1 -1.4037 1.40369 1.4037 1.4037 0 0 1 1.4037-1.40369m0-.08765a1.49135 1.49135 0 1 0 1.49133 1.49133 1.493 1.493 0 0 0 -1.49133-1.49133z"/><circle cx="131.60608" cy="81.55249" r="1.44763"/><path d="m131.60612 80.14868a1.4037 1.4037 0 1 1 -1.4037 1.40369 1.4037 1.4037 0 0 1 1.4037-1.40369m0-.08765a1.49135 1.49135 0 1 0 1.49133 1.49133 1.493 1.493 0 0 0 -1.49133-1.49133z"/><circle cx="152.35486" cy="81.55249" r="1.44763"/><path d="m152.35481 80.14868a1.4037 1.4037 0 1 1 -1.4037 1.40369 1.4037 1.4037 0 0 1 1.4037-1.40369m0-.08765a1.49135 1.49135 0 1 0 1.49133 1.49133 1.493 1.493 0 0 0 -1.49133-1.49133z"/><circle cx="173.10352" cy="81.55249" r="1.44775"/><path d="m173.1035 80.14868a1.4037 1.4037 0 1 1 -1.4037 1.40369 1.4037 1.4037 0 0 1 1.4037-1.40369m0-.08765a1.49135 1.49135 0 1 0 1.49133 1.49133 1.493 1.493 0 0 0 -1.49133-1.49136z"/><circle cx="193.85217" cy="81.55249" r="1.44763"/><path d="m193.85219 80.14868a1.4037 1.4037 0 1 1 -1.4037 1.40369 1.40369 1.40369 0 0 1 1.4037-1.40369m0-.08765a1.49135 1.49135 0 1 0 1.49133 1.49133 1.493 1.493 0 0 0 -1.49133-1.49133z"/><circle cx="214.60095" cy="81.55249" r="1.44763"/><path d="m214.60089 80.14868a1.4037 1.4037 0 1 1 -1.4037 1.40369 1.4037 1.4037 0 0 1 1.4037-1.40369m0-.08765a1.49135 1.49135 0 1 0 1.49133 1.49133 1.493 1.493 0 0 0 -1.49133-1.49133z"/><circle cx="235.34961" cy="81.55249" r="1.44775"/><path d="m235.34958 80.14868a1.4037 1.4037 0 1 1 -1.4037 1.40369 1.4037 1.4037 0 0 1 1.4037-1.40369m0-.08765a1.49135 1.49135 0 1 0 1.49133 1.49133 1.493 1.493 0 0 0 -1.49133-1.49133z"/><circle cx="256.09814" cy="81.55249" r="1.44775"/><path d="m256.09827 80.14868a1.4037 1.4037 0 1 1 -1.4037 1.40369 1.40371 1.40371 0 0 1 1.4037-1.40369m0-.08765a1.49135 1.49135 0 1 0 1.49136 1.49133 1.493 1.493 0 0 0 -1.49136-1.49133z"/><circle cx="276.84705" cy="81.55249" r="1.44763"/><path d="m276.847 80.14868a1.4037 1.4037 0 1 1 -1.40369 1.40369 1.40371 1.40371 0 0 1 1.40369-1.40369m0-.08765a1.49135 1.49135 0 1 0 1.49136 1.49133 1.49306 1.49306 0 0 0 -1.49136-1.49136z"/><circle cx="297.5957" cy="81.55249" r="1.44775"/><path d="m297.59564 80.14868a1.4037 1.4037 0 1 1 -1.40369 1.40369 1.40371 1.40371 0 0 1 1.40369-1.40369m0-.08765a1.49135 1.49135 0 1 0 1.49136 1.49133 1.49306 1.49306 0 0 0 -1.49136-1.49133z"/><circle cx="318.34424" cy="81.55249" r="1.44775"/><path d="m318.34433 80.14868a1.4037 1.4037 0 1 1 -1.40369 1.40369 1.40369 1.40369 0 0 1 1.40369-1.40369m0-.08765a1.49135 1.49135 0 1 0 1.49136 1.49133 1.49306 1.49306 0 0 0 -1.49136-1.49133z"/><circle cx="339.09314" cy="81.55249" r="1.44763"/><path d="m339.093 80.14868a1.4037 1.4037 0 1 1 -1.40372 1.40369 1.40368 1.40368 0 0 1 1.40372-1.40369m0-.08765a1.49135 1.49135 0 1 0 1.49133 1.49133 1.49306 1.49306 0 0 0 -1.49133-1.49136z"/><circle cx="359.8418" cy="81.55249" r="1.44775"/><path d="m359.84174 80.14868a1.4037 1.4037 0 1 1 -1.40372 1.40369 1.40368 1.40368 0 0 1 1.40372-1.40369m0-.08765a1.49135 1.49135 0 1 0 1.49133 1.49133 1.49306 1.49306 0 0 0 -1.49133-1.49133z"/><circle cx="380.59033" cy="81.55249" r="1.44775"/><path d="m380.59042 80.14868a1.4037 1.4037 0 1 1 -1.40372 1.40369 1.40368 1.40368 0 0 1 1.40372-1.40369m0-.08765a1.49135 1.49135 0 1 0 1.49133 1.49133 1.49306 1.49306 0 0 0 -1.49133-1.49133z"/><circle cx="69.35999" cy="57.09082" fill="#808080" r="1.44763"/><path d="m69.36 55.68707a1.4037 1.4037 0 1 1 -1.4037 1.40369 1.40369 1.40369 0 0 1 1.4037-1.40369m0-.08765a1.49135 1.49135 0 1 0 1.49133 1.49133 1.493 1.493 0 0 0 -1.49133-1.49132z"/><circle cx="90.10876" cy="57.09082" fill="#808080" r="1.44763"/><path d="m90.10873 55.68707a1.4037 1.4037 0 1 1 -1.4037 1.40369 1.40369 1.40369 0 0 1 1.4037-1.40369m0-.08765a1.49135 1.49135 0 1 0 1.49133 1.49133 1.493 1.493 0 0 0 -1.49133-1.49133z"/><circle cx="110.85742" cy="57.09082" fill="#808080" r="1.44775"/><path d="m110.85743 55.68707a1.4037 1.4037 0 1 1 -1.4037 1.40369 1.4037 1.4037 0 0 1 1.4037-1.40369m0-.08765a1.49135 1.49135 0 1 0 1.49133 1.49133 1.493 1.493 0 0 0 -1.49133-1.49133z"/><circle cx="131.60608" cy="57.09082" fill="#808080" r="1.44763"/><path d="m131.60612 55.68707a1.4037 1.4037 0 1 1 -1.4037 1.40369 1.4037 1.4037 0 0 1 1.4037-1.40369m0-.08765a1.49135 1.49135 0 1 0 1.49133 1.49133 1.493 1.493 0 0 0 -1.49133-1.49133z"/><circle cx="152.35486" cy="57.09082" fill="#808080" r="1.44763"/><path d="m152.35481 55.68707a1.4037 1.4037 0 1 1 -1.4037 1.40369 1.4037 1.4037 0 0 1 1.4037-1.40369m0-.08765a1.49135 1.49135 0 1 0 1.49133 1.49133 1.493 1.493 0 0 0 -1.49133-1.49133z"/><circle cx="173.10352" cy="57.09082" fill="#808080" r="1.44775"/><path d="m173.1035 55.68707a1.4037 1.4037 0 1 1 -1.4037 1.40369 1.4037 1.4037 0 0 1 1.4037-1.40369m0-.08765a1.49135 1.49135 0 1 0 1.49133 1.49133 1.493 1.493 0 0 0 -1.49133-1.49133z"/><circle cx="193.85217" cy="57.09082" fill="#808080" r="1.44763"/><path d="m193.85219 55.68707a1.4037 1.4037 0 1 1 -1.4037 1.40369 1.40369 1.40369 0 0 1 1.4037-1.40369m0-.08765a1.49135 1.49135 0 1 0 1.49133 1.49133 1.493 1.493 0 0 0 -1.49133-1.49133z"/><circle cx="214.60095" cy="57.09082" fill="#808080" r="1.44763"/><path d="m214.60089 55.68707a1.4037 1.4037 0 1 1 -1.4037 1.40369 1.4037 1.4037 0 0 1 1.4037-1.40369m0-.08765a1.49135 1.49135 0 1 0 1.49133 1.49133 1.493 1.493 0 0 0 -1.49133-1.49133z"/><circle cx="235.34961" cy="57.09082" fill="#808080" r="1.44775"/><path d="m235.34958 55.68707a1.4037 1.4037 0 1 1 -1.4037 1.40369 1.4037 1.4037 0 0 1 1.4037-1.40369m0-.08765a1.49135 1.49135 0 1 0 1.49133 1.49133 1.493 1.493 0 0 0 -1.49133-1.49133z"/><circle cx="256.09814" cy="57.09082" fill="#808080" r="1.44775"/><path d="m256.09827 55.68707a1.4037 1.4037 0 1 1 -1.4037 1.40369 1.40371 1.40371 0 0 1 1.4037-1.40369m0-.08765a1.49135 1.49135 0 1 0 1.49136 1.49133 1.493 1.493 0 0 0 -1.49136-1.49133z"/><circle cx="276.84705" cy="57.09082" fill="#808080" r="1.44763"/><path d="m276.847 55.68707a1.4037 1.4037 0 1 1 -1.40369 1.40369 1.40371 1.40371 0 0 1 1.40369-1.40369m0-.08765a1.49135 1.49135 0 1 0 1.49136 1.49133 1.49306 1.49306 0 0 0 -1.49136-1.49133z"/><circle cx="297.5957" cy="57.09082" fill="#808080" r="1.44775"/><path d="m297.59564 55.68707a1.4037 1.4037 0 1 1 -1.40369 1.40369 1.40371 1.40371 0 0 1 1.40369-1.40369m0-.08765a1.49135 1.49135 0 1 0 1.49136 1.49133 1.49306 1.49306 0 0 0 -1.49136-1.49133z"/><circle cx="318.34424" cy="57.09082" fill="#808080" r="1.44775"/><path d="m318.34433 55.68707a1.4037 1.4037 0 1 1 -1.40369 1.40369 1.40369 1.40369 0 0 1 1.40369-1.40369m0-.08765a1.49135 1.49135 0 1 0 1.49136 1.49133 1.49306 1.49306 0 0 0 -1.49136-1.49133z"/><circle cx="339.09314" cy="57.09082" fill="#808080" r="1.44763"/><path d="m339.093 55.68707a1.4037 1.4037 0 1 1 -1.40372 1.40369 1.40368 1.40368 0 0 1 1.40372-1.40369m0-.08765a1.49135 1.49135 0 1 0 1.49133 1.49133 1.49306 1.49306 0 0 0 -1.49133-1.49133z"/><circle cx="359.8418" cy="57.09082" fill="#808080" r="1.44775"/><path d="m359.84174 55.68707a1.4037 1.4037 0 1 1 -1.40372 1.40369 1.40368 1.40368 0 0 1 1.40372-1.40369m0-.08765a1.49135 1.49135 0 1 0 1.49133 1.49133 1.49306 1.49306 0 0 0 -1.49133-1.49133z"/><circle cx="380.59033" cy="57.09082" fill="#808080" r="1.44775"/><path d="m380.59042 55.68707a1.4037 1.4037 0 1 1 -1.40372 1.40369 1.40368 1.40368 0 0 1 1.40372-1.40369m0-.08765a1.49135 1.49135 0 1 0 1.49133 1.49133 1.49306 1.49306 0 0 0 -1.49133-1.49133z"/><circle cx="401.33899" cy="81.55225" fill="#808080" r="1.44763"/><path d="m401.33911 80.14868a1.4037 1.4037 0 1 1 -1.40372 1.40369 1.40368 1.40368 0 0 1 1.40372-1.40369m0-.08765a1.49135 1.49135 0 1 0 1.49133 1.49133 1.49306 1.49306 0 0 0 -1.49133-1.49133z"/><circle cx="422.08789" cy="81.55225" fill="#808080" r="1.44775"/><path d="m422.0878 80.14868a1.4037 1.4037 0 1 1 -1.40369 1.40369 1.40371 1.40371 0 0 1 1.40369-1.40369m0-.08765a1.49135 1.49135 0 1 0 1.49136 1.49133 1.49306 1.49306 0 0 0 -1.49136-1.49136z"/><circle cx="442.83643" cy="81.55225" fill="#808080" r="1.44775"/><path d="m442.83649 80.14868a1.4037 1.4037 0 1 1 -1.40369 1.40369 1.40371 1.40371 0 0 1 1.40369-1.40369m0-.08765a1.49135 1.49135 0 1 0 1.49136 1.49133 1.49306 1.49306 0 0 0 -1.49136-1.49133z"/><circle cx="463.58508" cy="81.55225" fill="#808080" r="1.44763"/><path d="m463.58517 80.14868a1.4037 1.4037 0 1 1 -1.40369 1.40369 1.40371 1.40371 0 0 1 1.40369-1.40369m0-.08765a1.49135 1.49135 0 1 0 1.49136 1.49133 1.49306 1.49306 0 0 0 -1.49136-1.49133z"/><circle cx="484.33398" cy="81.55225" fill="#808080" r="1.44775"/><path d="m484.33386 80.14868a1.4037 1.4037 0 1 1 -1.40369 1.40369 1.40369 1.40369 0 0 1 1.40369-1.40369m0-.08765a1.49135 1.49135 0 1 0 1.49136 1.49133 1.49306 1.49306 0 0 0 -1.49136-1.49133z"/><circle cx="505.08252" cy="81.55225" fill="#808080" r="1.44775"/><path d="m505.08258 80.14868a1.4037 1.4037 0 1 1 -1.40372 1.40369 1.40368 1.40368 0 0 1 1.40372-1.40369m0-.08765a1.49135 1.49135 0 1 0 1.49133 1.49133 1.49306 1.49306 0 0 0 -1.49133-1.49133z"/><circle cx="525.8313" cy="81.55225" fill="#808080" r="1.44775"/><path d="m525.83124 80.14868a1.4037 1.4037 0 1 1 -1.40369 1.40369 1.40371 1.40371 0 0 1 1.40369-1.40369m0-.08765a1.49135 1.49135 0 1 0 1.49139 1.49133 1.493 1.493 0 0 0 -1.49139-1.49133z"/><rect fill="#ccc" height="4.36815" rx="1" stroke="#000" stroke-miterlimit="10" stroke-width=".1" width="10.48355" x="341.87647" y="34.34555"/><rect fill="#ccc" height="4.36815" rx="1" stroke="#000" stroke-miterlimit="10" stroke-width=".1" width="10.48355" x="358.31852" y="34.34555"/><rect fill="#ccc" height="4.36815" rx="1" stroke="#000" stroke-miterlimit="10" stroke-width=".1" width="10.48355" x="428.51971" y="34.34555"/><rect fill="#ccc" height="4.36815" rx="1" stroke="#000" stroke-miterlimit="10" stroke-width=".1" width="10.48355" x="444.96359" y="34.34555"/><rect height="13.10122" rx=".43813" stroke="#4d4d4d" stroke-miterlimit="10" stroke-width=".08763" width="49.59748" x="373.86215" y="28.23175"/></svg>