<svg xmlns="http://www.w3.org/2000/svg" xmlns:xlink="http://www.w3.org/1999/xlink" viewBox="0 0 800 150"><defs><clipPath id="a"><path d="M61.49271,81.71761H45.23565a7.83171,7.83171,0,0,1,.1217-1.17716H61.61441A7.83185,7.83185,0,0,0,61.49271,81.71761Z" fill="none"/></clipPath><clipPath id="b"><path d="M61.3827,134.97443H45.12564c-.45745,0-.78755-.429-.81261-1.43635H60.57009C60.59515,134.54541,60.92525,134.97443,61.3827,134.97443Z" fill="none"/></clipPath><clipPath id="c"><path d="M60.44485,78.72834H44.66172a.44925.44925,0,0,1-.37725-.219H60.0676A.44925.44925,0,0,0,60.44485,78.72834Z" fill="none"/></clipPath><clipPath id="d"><path d="M31.55693,38.486H15.29987a1.84179,1.84179,0,0,1-.29445-1.15581H31.26248A1.84179,1.84179,0,0,0,31.55693,38.486Z" fill="none"/></clipPath><clipPath id="e"><path d="M738.50729,81.71761h16.25706a7.83171,7.83171,0,0,0-.1217-1.17716H738.38559A7.83185,7.83185,0,0,1,738.50729,81.71761Z" fill="none"/></clipPath><clipPath id="f"><path d="M738.6173,134.97443h16.25706c.45745,0,.78755-.429.81261-1.43635H739.42991C739.40485,134.54541,739.07475,134.97443,738.6173,134.97443Z" fill="none"/></clipPath><clipPath id="g"><path d="M739.55515,78.72834h15.78313a.44925.44925,0,0,0,.37725-.219H739.9324A.44925.44925,0,0,1,739.55515,78.72834Z" fill="none"/></clipPath><clipPath id="h"><path d="M768.44307,38.486h16.25706a1.84179,1.84179,0,0,0,.29445-1.15581H768.73752A1.84179,1.84179,0,0,1,768.44307,38.486Z" fill="none"/></clipPath><clipPath id="i"><path d="M121.99449,78.58705H107.45254a3.29465,3.29465,0,0,0-.76668-2.1965h14.542A3.29465,3.29465,0,0,1,121.99449,78.58705Z" fill="none"/></clipPath><clipPath id="j"><path d="M94.52748,59.35872V45.37889c1.566,0,2.835.2313,2.835.5223V59.881C97.36251,59.59,96.09352,59.35872,94.52748,59.35872Z" fill="none"/></clipPath><clipPath id="k"><path d="M91.68349,59.881V45.9012c0-.291,1.269-.52231,2.844-.52231V59.35872C92.95253,59.35872,91.68349,59.59,91.68349,59.881Z" fill="none"/></clipPath><clipPath id="l"><path d="M678.24666,78.58705h14.54195a3.29461,3.29461,0,0,1,.76665-2.1965H679.01331A3.29461,3.29461,0,0,0,678.24666,78.58705Z" fill="none"/></clipPath><clipPath id="m"><path d="M705.48945,59.35872V45.37889c1.57507,0,2.844.2313,2.844.5223V59.881C708.33344,59.59,707.06452,59.35872,705.48945,59.35872Z" fill="none"/></clipPath><clipPath id="n"><path d="M702.64545,59.881V45.9012c0-.291,1.27808-.52231,2.844-.52231V59.35872C703.92353,59.35872,702.64545,59.59,702.64545,59.881Z" fill="none"/></clipPath><radialGradient id="o" cx="75.24815" cy="130.74966" r="0.60991" gradientTransform="translate(4.99983 -4.40087) scale(0.97073)" gradientUnits="userSpaceOnUse"><stop offset="0" stop-color="#fff"/><stop offset="0.12099" stop-color="#f9f9f9"/><stop offset="0.27686" stop-color="#e9e9e9"/><stop offset="0.45177" stop-color="#cfcfcf"/><stop offset="0.64062" stop-color="#aaa"/><stop offset="0.83843" stop-color="#7b7b7b"/><stop offset="1" stop-color="#4f4f4f"/></radialGradient><radialGradient id="p" cx="89.79553" cy="130.7494" r="3.74979" gradientTransform="translate(4.99983 -4.40087) scale(0.97073)" gradientUnits="userSpaceOnUse"><stop offset="0" stop-color="#c7c7c7"/><stop offset="0.34781" stop-color="#a9a9a9"/><stop offset="0.8886" stop-color="#737373"/><stop offset="1" stop-color="#262626"/></radialGradient><clipPath id="q"><path d="M103.07921,48.892q.352.34782.713.68636C102.508,48.37,98.84689,47.49323,94.527,47.49323v-.38832C98.90589,47.1144,102.23963,48.061,103.07921,48.892Z" fill="none"/></clipPath><clipPath id="r"><path d="M85.25154,49.58034q.36042-.33957.71335-.687c.83912-.831,4.18017-1.77887,8.56211-1.78841v.38832C90.20472,47.49323,86.53619,48.371,85.25154,49.58034Z" fill="none"/></clipPath><clipPath id="s"><path d="M94.527,52.80113v-5.3079c5.391,0,9.756,1.36543,9.756,3.03679v5.30789C104.283,54.16655,99.918,52.80113,94.527,52.80113Z" fill="none"/></clipPath><clipPath id="t"><path d="M84.762,55.83791V50.53c0-1.67136,4.374-3.03679,9.765-3.03679v5.3079C89.136,52.80113,84.762,54.16655,84.762,55.83791Z" fill="none"/></clipPath><clipPath id="u"><path d="M103.7899,56.79465q-.3602.33879-.71293.6855a.54666.54666,0,0,0,.206-.42482c.09328-.891-3.60952-2.19659-8.756-2.20775V52.80113c5.391,0,9.756,1.36542,9.756,3.03678A1.33649,1.33649,0,0,1,103.7899,56.79465Z" fill="none"/></clipPath><clipPath id="v"><path d="M85.96711,57.47871q-.352-.34756-.71305-.6859a1.33421,1.33421,0,0,1-.49206-.9549c0-1.67136,4.374-3.03678,9.765-3.03678v2.04645c-5.14779.01121-8.859,1.31742-8.765,2.20775A.54429.54429,0,0,0,85.96711,57.47871Z" fill="none"/></clipPath><clipPath id="w"><path d="M714.04574,48.891q.35206.34762.71312.686c-1.28676-1.21-4.9518-2.08174-9.2639-2.08174v-.38832C709.86629,47.11644,713.2031,48.05756,714.04574,48.891Z" fill="none"/></clipPath><clipPath id="x"><path d="M696.22215,49.577q.36022-.339.713-.68581c.84268-.83341,4.18126-1.77484,8.55982-1.7843v.38832C701.17561,47.49524,697.50914,48.367,696.22215,49.577Z" fill="none"/></clipPath><clipPath id="y"><path d="M705.495,52.80313V47.49524c5.382,0,9.756,1.358,9.756,3.03676v5.3079C715.251,54.1611,710.877,52.80313,705.495,52.80313Z" fill="none"/></clipPath><clipPath id="z"><path d="M695.73,55.83989V50.532c0-1.67881,4.374-3.03677,9.765-3.03677v5.30789C700.104,52.80313,695.73,54.1611,695.73,55.83989Z" fill="none"/></clipPath><clipPath id="aa"><path d="M714.75894,56.79487q-.36033.33912-.71318.68609a.54469.54469,0,0,0,.20524-.42365c.09262-.89764-3.61673-2.19652-8.756-2.20772V52.80313c5.382,0,9.756,1.358,9.756,3.03676A1.33442,1.33442,0,0,1,714.75894,56.79487Z" fill="none"/></clipPath><clipPath id="ab"><path d="M696.93513,57.48072q-.352-.34756-.71306-.68589a1.33432,1.33432,0,0,1-.49207-.95494c0-1.67879,4.374-3.03676,9.765-3.03676v2.04646c-5.14744.01112-8.85759,1.31026-8.765,2.20772A.54437.54437,0,0,0,696.93513,57.48072Z" fill="none"/></clipPath></defs><title>c-15-back-html</title><rect width="800" height="150" fill="#1a1a1a"/><path d="M65.17418,61.74017a.35986.35986,0,0,0-.36007.27286H48.557a.35987.35987,0,0,1,.36007-.27286Z" fill="#6f6f6f"/><g style="isolation:isolate"><polygon points="61.614 80.54 45.357 80.54 48.557 62.013 64.814 62.013 61.614 80.54" fill="#acacac"/><g style="isolation:isolate"><g clip-path="url(#a)"><g style="isolation:isolate"><path d="M61.49271,81.71761H45.23565a7.40714,7.40714,0,0,1,.05583-.7425H61.54854a7.40736,7.40736,0,0,0-.05583.7425" fill="#ccc"/><path d="M61.54854,80.97511H45.29148c.0195-.15835.04238-.307.06587-.43466H61.61441c-.02349.12763-.04637.27631-.06587.43466" fill="#b3b3b3"/></g></g></g><path d="M65.17418,61.74017c.21779,0,.45681.17548.48795.60553l3.44311,68.6163a1.2955,1.2955,0,0,1-.41224,1.11318l-6.94118,2.81919a.98669.98669,0,0,1-.36912.08006c-.45745,0-.78755-.429-.81261-1.43635l.92262-51.82047a7.83185,7.83185,0,0,1,.1217-1.17716L64.81411,62.013A.35986.35986,0,0,1,65.17418,61.74017Z" fill="#6f6f6f"/><g style="isolation:isolate"><g clip-path="url(#b)"><g style="isolation:isolate"><path d="M61.3827,134.97443H45.12564a.71377.71377,0,0,1-.66852-.54819H60.71418a.71377.71377,0,0,0,.66852.54819" fill="#5f5f5f"/><path d="M60.71418,134.42624H44.45712a1.86793,1.86793,0,0,1-.07591-.26129H60.63827a1.86658,1.86658,0,0,0,.07591.26129" fill="#6e6e6e"/><path d="M60.63827,134.165H44.38121a2.86839,2.86839,0,0,1-.05124-.33717H60.587a2.86839,2.86839,0,0,0,.05124.33717" fill="#7d7d7d"/><path d="M60.587,133.82778H44.33q-.013-.136-.01694-.2897H60.57009q.00382.15375.01694.2897" fill="#8c8c8c"/></g></g></g><polygon points="60.57 133.538 44.313 133.538 45.236 81.718 61.493 81.718 60.57 133.538" fill="#979797"/></g><g style="isolation:isolate"><g style="isolation:isolate"><g clip-path="url(#c)"><g style="isolation:isolate"><path d="M60.44485,78.72834H45.13564c-.47392,0-.75174-.06809-.85117-.219H60.0676a.44925.44925,0,0,0,.37725.219" fill="#5f5f5f"/></g></g></g><polygon points="60.068 78.509 44.284 78.509 15.3 38.486 31.557 38.486 60.068 78.509" fill="#545454"/><polygon points="31.262 37.33 15.005 37.33 18.185 15.51 34.443 15.51 31.262 37.33" fill="#a8a8a8"/><path d="M34.92454,15a.45049.45049,0,0,1,.3778.22011L63.813,55.24344a1.82937,1.82937,0,0,1,.29446,1.15156L60.9274,78.2193a.51.51,0,0,1-.48255.509.44925.44925,0,0,1-.37725-.219L31.55693,38.486a1.84179,1.84179,0,0,1-.29445-1.15581l3.18007-21.82005A.51175.51175,0,0,1,34.92454,15Z" fill="#6f6f6f"/><g style="isolation:isolate"><g clip-path="url(#d)"><g style="isolation:isolate"><path d="M31.55693,38.486a1.731,1.731,0,0,1-.1804-.352h-16.257a1.73094,1.73094,0,0,0,.18039.352H31.55693" fill="#5f5f5f"/><path d="M31.37653,38.134h-16.257a1.84206,1.84206,0,0,1-.076-.25726H31.3005a1.842,1.842,0,0,0,.076.25726" fill="#6e6e6e"/><path d="M31.3005,37.87676H15.04344a1.88743,1.88743,0,0,1-.03479-.22244H31.26571a1.8871,1.8871,0,0,0,.03479.22244" fill="#7d7d7d"/><path d="M15.00865,37.65432a1.89594,1.89594,0,0,1-.00845-.20819H31.25725a1.89842,1.89842,0,0,0,.00846.20819" fill="#8c8c8c"/><path d="M31.25725,37.44613H15.0002q.00083-.0579.00522-.11594H31.26248q-.00441.058-.00523.11594" fill="#9b9b9b"/></g></g></g></g><path d="M34.44255,15.51014A.51175.51175,0,0,1,34.92454,15H18.66748a.51175.51175,0,0,0-.482.51014Z" fill="#ccc"/><path d="M734.82582,61.74017a.35986.35986,0,0,1,.36007.27286H751.443a.35987.35987,0,0,0-.36007-.27286Z" fill="#6f6f6f"/><g style="isolation:isolate"><polygon points="738.386 80.54 754.643 80.54 751.443 62.013 735.186 62.013 738.386 80.54" fill="#acacac"/><g style="isolation:isolate"><g clip-path="url(#e)"><g style="isolation:isolate"><path d="M738.50729,81.71761h16.25706a7.40714,7.40714,0,0,0-.05583-.7425H738.45146a7.40736,7.40736,0,0,1,.05583.7425" fill="#ccc"/><path d="M738.45146,80.97511h16.25706c-.0195-.15835-.04238-.307-.06587-.43466H738.38559c.02349.12763.04637.27631.06587.43466" fill="#b3b3b3"/></g></g></g><path d="M734.82582,61.74017c-.21779,0-.45681.17548-.488.60553l-3.44311,68.6163a1.2955,1.2955,0,0,0,.41224,1.11318l6.94118,2.81919a.98669.98669,0,0,0,.36912.08006c.45745,0,.78755-.429.81261-1.43635l-.92262-51.82047a7.83185,7.83185,0,0,0-.1217-1.17716L735.18589,62.013A.35986.35986,0,0,0,734.82582,61.74017Z" fill="#6f6f6f"/><g style="isolation:isolate"><g clip-path="url(#f)"><g style="isolation:isolate"><path d="M738.6173,134.97443h16.25706a.71377.71377,0,0,0,.66852-.54819H739.28582a.71377.71377,0,0,1-.66852.54819" fill="#5f5f5f"/><path d="M739.28582,134.42624h16.25706a1.86793,1.86793,0,0,0,.07591-.26129H739.36173a1.86658,1.86658,0,0,1-.07591.26129" fill="#6e6e6e"/><path d="M739.36173,134.165h16.25706a2.86839,2.86839,0,0,0,.05124-.33717H739.413a2.86839,2.86839,0,0,1-.05124.33717" fill="#7d7d7d"/><path d="M739.413,133.82778H755.67q.013-.136.01694-.2897H739.42991q-.00382.15375-.01694.2897" fill="#8c8c8c"/></g></g></g><polygon points="739.43 133.538 755.687 133.538 754.764 81.718 738.507 81.718 739.43 133.538" fill="#979797"/></g><path d="M736.8465,132.48082a.86045.86045,0,0,1-.86044.86045H64.30134a.86045.86045,0,0,1-.86044-.86045Z" fill="#666"/><g style="isolation:isolate"><g style="isolation:isolate"><g clip-path="url(#g)"><g style="isolation:isolate"><path d="M739.55515,78.72834h15.30921c.47392,0,.75174-.06809.85117-.219H739.9324a.44925.44925,0,0,1-.37725.219" fill="#5f5f5f"/></g></g></g><polygon points="739.932 78.509 755.716 78.509 784.7 38.486 768.443 38.486 739.932 78.509" fill="#545454"/><polygon points="768.738 37.33 784.995 37.33 781.815 15.51 765.557 15.51 768.738 37.33" fill="#a8a8a8"/><path d="M765.07546,15a.45049.45049,0,0,0-.3778.22011L736.187,55.24344a1.82937,1.82937,0,0,0-.29446,1.15156l3.18007,21.8243a.51.51,0,0,0,.48255.509.44925.44925,0,0,0,.37725-.219L768.44307,38.486a1.84179,1.84179,0,0,0,.29445-1.15581l-3.18007-21.82005A.51175.51175,0,0,0,765.07546,15Z" fill="#6f6f6f"/><g style="isolation:isolate"><g clip-path="url(#h)"><g style="isolation:isolate"><path d="M768.44307,38.486a1.731,1.731,0,0,0,.1804-.352h16.25705a1.73094,1.73094,0,0,1-.18039.352H768.44307" fill="#5f5f5f"/><path d="M768.62347,38.134h16.25705a1.84206,1.84206,0,0,0,.076-.25726H768.6995a1.842,1.842,0,0,1-.076.25726" fill="#6e6e6e"/><path d="M768.6995,37.87676h16.25706a1.88743,1.88743,0,0,0,.03479-.22244H768.73429a1.8871,1.8871,0,0,1-.03479.22244" fill="#7d7d7d"/><path d="M784.99135,37.65432a1.89594,1.89594,0,0,0,.00845-.20819H768.74275a1.89842,1.89842,0,0,1-.00846.20819" fill="#8c8c8c"/><path d="M768.74275,37.44613H784.9998q-.00083-.0579-.00522-.11594H768.73752q.00441.058.00523.11594" fill="#9b9b9b"/></g></g></g></g><path d="M765.55745,15.51014a.51175.51175,0,0,0-.482-.51014h16.25706a.51175.51175,0,0,1,.482.51014Z" fill="#ccc"/><rect x="63.4409" y="72.46752" width="673.4056" height="60.65863" rx="2" ry="2" fill="#333"/><path d="M395.67869,91.90748c4.31365,0,5.379,10.39175,8.06413,10.39175,3.37477,0,7.31275-11.58282,7.31275-12.8451a1.99876,1.99876,0,0,0-2.20336-2.20551h-19.0336a1.99876,1.99876,0,0,0-2.20335,2.20551v15.394c1.50063-6.4647,4.78018-12.94065,8.06343-12.94065Zm7.31345,14.1226c-4.31514,0-5.36664-10.39175-8.06343-10.39175-3.37548,0-7.31345,11.58319-7.31345,12.84364a1.99932,1.99932,0,0,0,2.20335,2.207h19.0336a1.99933,1.99933,0,0,0,2.20336-2.207V93.08943C409.55639,99.55377,406.27534,106.03008,402.99214,106.03008Z" fill="#f2f2f2"/><path d="M368.755,121.30863l-1.84072-3.40119h-.08461v3.40119h-1.44224v-5.74244h1.79013l1.84036,3.39289h.07668v-3.39289h1.44185v5.74244Z" fill="#f2f2f2"/><path d="M371.68058,118.09367a2.62128,2.62128,0,0,1,5.24231,0v.68711a2.62128,2.62128,0,0,1-5.24231,0Zm1.44185.53488c0,1.06864.40719,1.43316,1.17893,1.43316.77211,0,1.1793-.36452,1.1793-1.43316V118.255c0-1.069-.40719-1.44184-1.1793-1.44184-.77174,0-1.17893.37283-1.17893,1.44184Z" fill="#f2f2f2"/><path d="M381.43464,121.30863l-1.84074-3.40119h-.085v3.40119h-1.44185v-5.74244h1.78974l1.84075,3.39289h.0763v-3.39289h1.44184v5.74244Z" fill="#f2f2f2"/><path d="M384.54686,115.56619h1.44185v4.42752h2.45985v1.31492h-3.9017Z" fill="#f2f2f2"/><path d="M390.78916,121.30863h-1.44224v-5.74244h1.44224Z" fill="#f2f2f2"/><path d="M395.48789,121.30863l-1.84074-3.40119h-.08462v3.40119h-1.44221v-5.74244h1.78974l1.84074,3.39289h.0763v-3.39289h1.44222v5.74244Z" fill="#f2f2f2"/><path d="M398.62541,121.30863v-5.74244h4.0717v1.31455h-2.62947v.89071h2.15425v1.27262h-2.15425v.99233h2.62947v1.27223Z" fill="#f2f2f2"/><path d="M405.31713,115.56619h1.76443l1.96841,5.74244h-1.5359l-.30521-.97533H405.1902l-.3056.97533h-1.53514Zm.2459,3.49488h1.27262l-.59342-1.89211h-.08539Z" fill="#f2f2f2"/><path d="M411.88229,119.42559h-.56887v1.883h-1.44185v-5.74244h2.25625a1.842,1.842,0,0,1,2.095,1.92536,1.63536,1.63536,0,0,1-1.03463,1.68813l1.41653,2.12895h-1.67113Zm.05062-1.27224c.57681,0,.8484-.119.8484-.64481,0-.47482-.31428-.6278-.8484-.6278h-.61949v1.27261Z" fill="#f2f2f2"/><path d="M415.90185,115.56619h.50881v5.31862h2.87576v.42382h-3.38457Z" fill="#f2f2f2"/><path d="M424.596,121.30863h-.53451l-.4752-1.38253H420.9228l-.4752,1.38253h-.53451l2.04434-5.74244h.5942Zm-2.30762-5.132h-.06764l-1.15361,3.31695H423.442Z" fill="#f2f2f2"/><path d="M428.59021,118.24665v.02531a1.41859,1.41859,0,0,1,1.14495,1.45053c0,1.06033-.61044,1.58614-1.934,1.58614h-1.934v-5.74244h1.75611c1.25561,0,1.86606.51713,1.86606,1.42485A1.20371,1.20371,0,0,1,428.59021,118.24665Zm-.89941-.17c.83143,0,1.28962-.36452,1.28962-1.04295,0-.74679-.42419-1.0437-1.39991-1.0437h-1.20424v2.08665Zm-1.31453.42458v2.38356h1.37421c1.06,0,1.47585-.3309,1.47585-1.19631,0-.79742-.54319-1.18725-1.45014-1.18725Z" fill="#f2f2f2"/><path d="M431.13431,116.93173c0-.82273.73773-1.43354,1.84867-1.43354a2.87688,2.87688,0,0,1,1.69683.50051l-.27992.33921a2.41166,2.41166,0,0,0-1.40823-.41589c-.831,0-1.34892.3736-1.34892,1.00971,0,.62781.3056.933,1.4086,1.22162,1.34024.35621,1.84868.83972,1.84868,1.75575,0,.89072-.65274,1.46753-1.94234,1.46753a3.60015,3.60015,0,0,1-1.90006-.56851l.27991-.34789a2.9457,2.9457,0,0,0,1.62015.49219c.91639,0,1.4339-.3649,1.4339-1.04332,0-.68711-.3819-1.018-1.50152-1.31454C431.52415,118.22966,431.13431,117.73746,431.13431,116.93173Z" fill="#f2f2f2"/><path d="M312.94189,98.87109v-1.333h.42139v1.36523c0,.51563.19238.68652.479.68652.291,0,.49414-.17089.49414-.68652V97.53809h.40332v1.333c0,.78028-.34522,1.08594-.89746,1.08594C313.294,99.957,312.94189,99.65137,312.94189,98.87109Z" fill="#f2f2f2"/><path d="M315.31738,99.6084l.24658-.28711a.94771.94771,0,0,0,.61768.26855c.26856,0,.41406-.12011.41406-.30468,0-.19629-.15283-.25782-.36718-.34864l-.32666-.1416a.6851.6851,0,0,1-.4795-.63183.72312.72312,0,0,1,.79932-.66895,1.04816,1.04816,0,0,1,.73.30176l-.21436.26855a.77533.77533,0,0,0-.51562-.20312c-.22559,0-.37451.10547-.37451.27929,0,.18555.18164.25489.37793.334l.32324.13477a.66474.66474,0,0,1,.47949.64257.75559.75559,0,0,1-.85351.70508A1.23311,1.23311,0,0,1,315.31738,99.6084Z" fill="#f2f2f2"/><path d="M317.64453,97.53809h.75928c.49023,0,.84961.14843.84961.585a.53634.53634,0,0,1-.33057.51562v.01465a.54175.54175,0,0,1,.4541.5625c0,.47559-.38867.69727-.91162.69727h-.8208Zm.72266.98046c.33056,0,.47217-.13085.47217-.334,0-.23242-.15625-.31934-.46485-.31934h-.30859v.65332Zm.05469,1.06739c.34863,0,.54492-.127.54492-.3916,0-.251-.189-.35938-.54492-.35938h-.356v.751Z" fill="#f2f2f2"/><rect x="313.46387" y="115.24805" width="5.23633" height="11.08887" rx="1.25" ry="1.25"/><path d="M317.4501,115.49817a1.003,1.003,0,0,1,1,1v8.58868a1.003,1.003,0,0,1-1,1h-2.73639a1.003,1.003,0,0,1-1-1v-8.58868a1.003,1.003,0,0,1,1-1h2.73639m0-.5h-2.73639a1.50172,1.50172,0,0,0-1.5,1.5v8.58868a1.50172,1.50172,0,0,0,1.5,1.5h2.73639a1.50172,1.50172,0,0,0,1.5-1.5v-8.58868a1.50172,1.50172,0,0,0-1.5-1.5Z" fill="gray"/><rect x="314.7129" y="116.27746" width="1.60529" height="9.03011" rx="0.6" ry="0.6" fill="#f2f2f2"/><rect x="315.51555" y="123.31838" width="1.29067" height="1.12874" rx="0.44542" ry="0.44542" fill="#999"/><rect x="315.51555" y="121.25822" width="1.29067" height="1.12874" rx="0.44542" ry="0.44542" fill="#999"/><rect x="315.51555" y="119.19806" width="1.29067" height="1.12874" rx="0.44542" ry="0.44542" fill="#999"/><rect x="315.51555" y="117.1379" width="1.29067" height="1.12874" rx="0.44542" ry="0.44542" fill="#999"/><path d="M36.36122,18.5013a.457.457,0,0,1,.43095-.45448H763.30742a.457.457,0,0,1,.431.45448Z" fill="#999"/><path d="M59.493,74.73426H740.6066a.404.404,0,0,0,.33737-.19433H59.15562a.404.404,0,0,0,.33737.19433" fill="#4d4d4d"/><polygon points="59.156 74.54 740.944 74.54 766.306 38.935 33.794 38.935 59.156 74.54"/><polygon points="33.531 37.912 766.569 37.912 763.738 18.501 36.361 18.501 33.531 37.912" fill="#252525"/><g style="isolation:isolate"><polygon points="121.994 129.755 107.453 129.755 107.453 78.587 121.994 78.587 121.994 86.533 113.737 86.533 113.737 88.859 121.994 88.859 121.994 119.708 113.884 119.708 113.884 122.034 121.994 122.034 121.994 129.755" fill="#141414"/><g style="isolation:isolate"><g clip-path="url(#i)"><g style="isolation:isolate"><path d="M121.99449,78.58705H107.45254c.00172-.09755.0007-.19-.0033-.27851h14.542c.004.0885.005.181.0033.27851" fill="#131313"/><path d="M121.99119,78.30854H107.44924a3.12788,3.12788,0,0,0-.032-.33309h14.542a3.12788,3.12788,0,0,1,.032.33309" fill="#161616"/><path d="M121.95922,77.97545H107.41727a2.53,2.53,0,0,0-.08949-.3849h14.542a2.53,2.53,0,0,1,.08949.3849" fill="#181818"/><path d="M121.86973,77.59055H107.32778a4.77906,4.77906,0,0,0-.64192-1.2h14.542a4.77906,4.77906,0,0,1,.64192,1.2" fill="#1c1c1c"/></g></g></g><path d="M99.84505,41.8393l21.93477,34.03944a4.303,4.303,0,0,1,.92386,2.70831v7.51589l-.70919.43019-8.25759-.00008v2.3258l8.25759.00009.70919-.43033-.00048,30.849-.70871.43022h-8.1102v2.3258h8.10981l.7091-.43022.00048,7.67814-.70919.47342-.00039-7.72134h-8.10981v-2.3258h8.1102V88.85894l-8.25759-.00009v-2.3258l8.25759.00008V78.58705a3.29465,3.29465,0,0,0-.76668-2.1965l-21.6511-33.5319Z" fill="#4d4d4d"/><polygon points="121.228 76.391 106.686 76.391 85.035 42.859 99.577 42.859 121.228 76.391" fill="#1f1f1f"/><polygon points="99.577 42.859 85.035 42.859 85.303 41.839 99.845 41.839 99.577 42.859" fill="#333"/></g><g style="isolation:isolate"><path d="M94.52748,59.35872c1.566,0,2.835.23129,2.835.52229,0,.28352-1.269.5223-2.835.5223-1.575,0-2.844-.23878-2.844-.5223C91.68349,59.59,92.95253,59.35872,94.52748,59.35872Z" fill="#191919"/><g style="isolation:isolate"><g clip-path="url(#j)"><g style="isolation:isolate"><path d="M94.52748,59.35872V45.37889c.25433,0,.50081.0061.7353.01757V59.37628c-.23449-.01146-.481-.01756-.7353-.01756" fill="#141414"/><path d="M95.26278,59.37628V45.39646a8.33354,8.33354,0,0,1,1.582.20262V59.5789a8.33354,8.33354,0,0,0-1.582-.20262" fill="#0d0d0d"/><path d="M96.84474,59.5789V45.59908a1.48743,1.48743,0,0,1,.40739.15638V59.73529a1.48772,1.48772,0,0,0-.40739-.15639" fill="#070707"/><path d="M97.25213,59.73529V45.75546a.31239.31239,0,0,1,.08472.07462V59.80991a.31223.31223,0,0,0-.08472-.07462"/><path d="M97.33685,59.80991V45.83008a.131.131,0,0,1,.0237.05136V59.86126a.13091.13091,0,0,0-.0237-.05135" fill="#070707"/><path d="M97.36055,59.86126V45.88144l.002.01975V59.881l-.002-.01975" fill="#0d0d0d"/></g></g></g><g style="isolation:isolate"><g clip-path="url(#k)"><g style="isolation:isolate"><path d="M91.68349,59.881V45.90119c0-.157.3694-.29663.95695-.39192V59.48909c-.58755.0953-.95695.23492-.95695.39192" fill="#1a1a1a"/><path d="M92.64044,59.48909V45.50927a12.27771,12.27771,0,0,1,1.887-.13038V59.35872a12.27784,12.27784,0,0,0-1.887.13037" fill="#141414"/></g></g></g></g><g style="isolation:isolate"><polygon points="678.247 129.755 692.789 129.755 692.789 122.034 684.479 122.034 684.479 119.708 692.788 119.708 692.788 88.859 692.079 88.859 684.479 88.859 684.479 86.533 692.079 86.533 692.788 86.533 692.789 78.587 678.247 78.587 678.247 129.755" fill="#141414"/><g style="isolation:isolate"><g clip-path="url(#l)"><g style="isolation:isolate"><path d="M678.24666,78.58705h14.54195c-.00172-.09756-.00069-.19.0033-.27854H678.25c-.004.08851-.005.181-.0033.27854" fill="#131313"/><path d="M678.25,78.30851h14.542a3.13088,3.13088,0,0,1,.032-.33311h-14.542a3.13043,3.13043,0,0,0-.032.3331" fill="#161616"/><path d="M678.28193,77.97541h14.542a2.53148,2.53148,0,0,1,.0895-.3849H678.37143a2.53161,2.53161,0,0,0-.0895.38491" fill="#181818"/><path d="M678.37143,77.5905h14.54195a4.77889,4.77889,0,0,1,.64188-1.2H679.01331a4.77889,4.77889,0,0,0-.64188,1.2" fill="#1c1c1c"/></g></g></g><path d="M700.39609,41.8393l-21.9348,34.03944a4.3031,4.3031,0,0,0-.92383,2.70831v50.6945l.7092.47342V78.58705a3.29461,3.29461,0,0,1,.76665-2.1965l21.65112-33.5319Z" fill="#4d4d4d"/><polygon points="679.013 76.391 693.555 76.391 715.206 42.859 700.664 42.859 679.013 76.391" fill="#1f1f1f"/><polygon points="700.664 42.859 715.206 42.859 714.938 41.839 700.396 41.839 700.664 42.859" fill="#333"/></g><path d="M686.0661,30.48939l2.07885,1.92668a5.26991,5.26991,0,0,1-3.82847,1.59718c-3.21164,0-5.4308-1.70076-5.683-5.31187l-.0982-1.40616c-.25208-3.61,1.72953-5.31109,4.94117-5.31109a6.08535,6.08535,0,0,1,4.05152,1.597l-1.80978,1.92649a2.86041,2.86041,0,0,0-2.10642-.83312c-1.49247,0-2.25016.83312-2.101,2.96845l.04845.69387c.14913,2.13552,1.02437,2.9857,2.51683,2.9857A2.4733,2.4733,0,0,0,686.0661,30.48939Z" fill="#f2f2f2"/><path d="M694.16678,33.874h-1.046l-.7426-10.63426L689.23753,24.443l-.40187-.76751,3.86217-1.60389h.64478Z" fill="#f2f2f2"/><path d="M700.37486,27.16212c-1.65625,0-2.54374.52281-2.987,1.168l-.53218-.13962-.42728-6.11887h6.86821l.06087.87164h-5.82222l.28,4.00984a4.81832,4.81832,0,0,1,2.70813-.66281,3.83413,3.83413,0,0,1,4.03173,3.81824c.18382,2.63242-1.45338,3.90474-4.0156,3.90474A6.24642,6.24642,0,0,1,696.89,32.93233l.52542-.71477a5.21408,5.21408,0,0,0,3.06329.924c1.81273,0,3.18391-.83637,3.03051-3.03309A2.85485,2.85485,0,0,0,700.37486,27.16212Z" fill="#f2f2f2"/><circle cx="447.53614" cy="87.69595" r="5.4498" stroke="#4d4d4d" stroke-miterlimit="10" stroke-width="0.5"/><circle cx="447.53614" cy="87.78199" r="3.31727" fill="gray"/><polygon points="447.536 85.8 445.895 86.748 445.895 88.644 447.536 89.592 449.178 88.644 449.178 86.748 447.536 85.8" fill="#1a1a1a"/><circle cx="447.53614" cy="120.87073" r="5.4498" stroke="#4d4d4d" stroke-miterlimit="10" stroke-width="0.5"/><circle cx="447.53614" cy="120.95677" r="3.31727" fill="gray"/><polygon points="447.536 118.975 445.895 119.923 445.895 121.819 447.536 122.766 449.178 121.819 449.178 119.923 447.536 118.975" fill="#1a1a1a"/><circle cx="352.75105" cy="87.69595" r="5.4498" stroke="#4d4d4d" stroke-miterlimit="10" stroke-width="0.5"/><circle cx="352.75105" cy="87.78199" r="3.31727" fill="gray"/><polygon points="352.751 85.8 351.109 86.748 351.109 88.644 352.751 89.592 354.393 88.644 354.393 86.748 352.751 85.8" fill="#1a1a1a"/><circle cx="352.75105" cy="120.87073" r="5.4498" stroke="#4d4d4d" stroke-miterlimit="10" stroke-width="0.5"/><circle cx="352.75105" cy="120.95677" r="3.31727" fill="gray"/><polygon points="352.751 118.975 351.109 119.923 351.109 121.819 352.751 122.766 354.393 121.819 354.393 119.923 352.751 118.975" fill="#1a1a1a"/><path d="M33.53057,37.9116a1.67366,1.67366,0,0,0,.263,1.02361H766.306a1.67372,1.67372,0,0,0,.263-1.02361Z" fill="#333"/><path d="M123.55889,31.03631l-1.56-3.57433H121.91l-.37442,3.57433H120.0199l.63215-6.03476h1.88125l1.56054,3.5656h.08059l.3735-3.5656h1.51524l-.63215,6.03476Z" fill="#f2f2f2"/><path d="M126.98736,27.65769a2.75673,2.75673,0,0,1,3.03991-2.7276c1.69388,0,2.66815.82889,2.46926,2.7276l-.07564.72209a2.75752,2.75752,0,0,1-3.04074,2.728c-1.69349,0-2.66732-.82928-2.46843-2.728Zm1.45636.56211c-.11764,1.123.27016,1.50611,1.08118,1.50611.81141,0,1.27946-.38308,1.3971-1.50611l.04113-.3926c.11768-1.12343-.2692-1.51524-1.08061-1.51524-.811,0-1.28.39181-1.39767,1.51524Z" fill="#f2f2f2"/><path d="M136.884,31.03631l-1.56-3.57433h-.0893l-.37442,3.57433H133.345l.63215-6.03476H135.858l1.56094,3.5656h.08018l.3735-3.5656h1.51524l-.63215,6.03476Z" fill="#f2f2f2"/><path d="M140.78683,25.00155h1.51524l-.4874,4.6529h2.58507l-.14475,1.38186h-4.10031Z" fill="#f2f2f2"/><path d="M146.71473,31.03631h-1.51565l.63215-6.03476h1.51565Z" fill="#f2f2f2"/><path d="M151.65265,31.03631l-1.56-3.57433h-.08892l-.37442,3.57433h-1.51563l.63215-6.03476h1.88085l1.56094,3.5656h.08018l.37351-3.5656h1.51562l-.63215,6.03476Z" fill="#f2f2f2"/><path d="M154.94988,31.03631l.63215-6.03476h4.279l-.14471,1.38146H156.953l-.09806.93606h2.26391l-.14009,1.3374h-2.26391l-.10924,1.04284h2.76331l-.14005,1.337Z" fill="#f2f2f2"/><path d="M162.61439,25.00155h1.85424l1.43646,6.03476H164.291l-.21337-1.025h-2.12142l-.42852,1.025H159.9144Zm-.12632,3.67278h1.3374l-.41534-1.98843h-.08973Z" fill="#f2f2f2"/><path d="M169.08888,29.05741h-.59783l-.2073,1.9789h-1.51524l.63215-6.03476h2.37111c1.34612,0,2.12782.70422,1.98964,2.02337a1.954,1.954,0,0,1-1.27313,1.77406l1.25427,2.23733h-1.7562Zm.19325-1.337c.60617,0,.90469-.12505.96257-.67763.05227-.499-.26117-.65977-.82248-.65977h-.651l-.14009,1.3374Z" fill="#f2f2f2"/><path d="M173.73791,25.00155h.64994l-.57343,5.47413h2.90693l-.05873.56063h-3.55686Z" fill="#f2f2f2"/><path d="M182.35767,31.03631h-.73456l-.29561-1.3953h-2.799l-.58793,1.3953H177.206l2.78055-6.03476h.8549Zm-1.97537-5.39324h-.07107l-1.57145,3.42818h2.49576Z" fill="#f2f2f2"/><path d="M186.77708,27.81846l-.00279.0266a1.3551,1.3551,0,0,1,1.10117,1.52437c-.11673,1.1143-.87977,1.72449-2.27075,1.72449H183.5146l.64423-6.15h1.90311c1.31954,0,1.9557.60106,1.85578,1.555A1.49414,1.49414,0,0,1,186.77708,27.81846Zm-.92648-.17864c.87375,0,1.33778-.38307,1.41246-1.096.08221-.78481-.27931-1.03922-1.3047-1.03922h-1.20792l-.22367,2.13525Zm-1.37661.50381-.25032,2.38966h1.38656c1.1139,0,1.52375-.29012,1.619-1.19959.08778-.838-.38857-1.19007-1.34169-1.19007Z" fill="#f2f2f2"/><path d="M189.53782,26.43661a2.02041,2.02041,0,0,1,2.16423-1.56413,2.77053,2.77053,0,0,1,1.72811.526l-.34357.4717a2.32191,2.32191,0,0,0-1.43414-.43706c-.87332,0-1.39506.335-1.46508,1.0035-.06912.65976.16686.9229,1.29424,1.22619,1.36924.37434,1.90192.94008,1.80108,1.90273-.09806.93607-.91117,1.59985-2.26642,1.59985a3.465,3.465,0,0,1-1.93419-.59745l.34453-.48083a2.8301,2.8301,0,0,0,1.64843.51725c.963,0,1.48341-.32586,1.5581-1.03882.07564-.72209-.23769-1.01222-1.38166-1.32384C189.8562,27.85821,189.44912,27.28335,189.53782,26.43661Z" fill="#f2f2f2"/><path d="M105.49492,24.14132c2.35641,0,2.34373,5.67668,3.81054,5.67668,1.84353,0,4.65751-6.32732,4.72974-7.01686a.974.974,0,0,0-1.07741-1.2048H102.56033a1.23219,1.23219,0,0,0-1.32982,1.2048l-.88089,8.40925c1.18968-3.53146,3.35176-7.06907,5.1453-7.06907Zm3.187,7.71473c-2.35722,0-2.337-5.67668-3.81015-5.67668-1.84392,0-4.65793,6.32753-4.73005,7.01607A.97427.97427,0,0,0,101.219,34.401h10.39745a1.23256,1.23256,0,0,0,1.32991-1.2056l.8808-8.40846C112.63833,28.31825,110.4754,31.85605,108.68189,31.85605Z" fill="#f2f2f2"/><g style="isolation:isolate"><ellipse cx="705.48945" cy="59.88101" rx="2.84399" ry="0.5223" fill="#191919"/><g style="isolation:isolate"><g clip-path="url(#m)"><g style="isolation:isolate"><path d="M705.48945,59.35872V45.37889c.25685,0,.50556.00615.74195.01771V59.37642c-.23639-.01155-.4851-.0177-.74195-.0177" fill="#141414"/><path d="M706.2314,59.37642V45.3966a8.35181,8.35181,0,0,1,1.58494.20278V59.57921a8.35087,8.35087,0,0,0-1.58494-.20279" fill="#0d0d0d"/><path d="M707.81634,59.57921V45.59938a1.48517,1.48517,0,0,1,.40681.15617V59.73537a1.48521,1.48521,0,0,0-.40681-.15616" fill="#070707"/><path d="M708.22315,59.73537V45.75555a.31209.31209,0,0,1,.08464.07454V59.80992a.31211.31211,0,0,0-.08464-.07455"/><path d="M708.30779,59.80992V45.83009a.13091.13091,0,0,1,.0237.05135V59.86127a.13091.13091,0,0,0-.0237-.05135" fill="#070707"/><path d="M708.33149,59.86127V45.88144l.00195.01975V59.881l-.00195-.01974" fill="#0d0d0d"/></g></g></g><g style="isolation:isolate"><g clip-path="url(#n)"><g style="isolation:isolate"><path d="M702.64545,59.881V45.90119c0-.15685.37129-.29635.95882-.39163V59.48938c-.58753.09529-.95882.23479-.95882.39163" fill="#1a1a1a"/><path d="M703.60427,59.48938V45.50956a12.267,12.267,0,0,1,1.88518-.13067V59.35872a12.26708,12.26708,0,0,0-1.88518.13066" fill="#141414"/></g></g></g></g><polygon points="122.703 121.603 121.994 122.034 113.884 122.034 114.238 121.603 122.703 121.603" fill="#4d4d4d"/><polygon points="122.703 88.429 121.994 88.859 113.737 88.859 114.238 88.429 122.703 88.429" fill="#4d4d4d"/><circle cx="114.62162" cy="120.87073" r="5.4498" stroke="#4d4d4d" stroke-miterlimit="10" stroke-width="0.5"/><circle cx="114.62162" cy="120.95677" r="3.31727" fill="gray"/><polygon points="114.622 118.975 112.98 119.923 112.98 121.819 114.622 122.766 116.263 121.819 116.263 119.923 114.622 118.975" fill="#1a1a1a"/><circle cx="114.62162" cy="87.69595" r="5.4498" stroke="#4d4d4d" stroke-miterlimit="10" stroke-width="0.5"/><circle cx="114.62162" cy="87.78199" r="3.31727" fill="gray"/><polygon points="114.622 85.8 112.98 86.748 112.98 88.644 114.622 89.592 116.263 88.644 116.263 86.748 114.622 85.8" fill="#1a1a1a"/><polygon points="692.788 88.859 692.079 88.429 683.822 88.429 684.323 88.859 692.788 88.859" fill="#4d4d4d"/><circle cx="685.33405" cy="87.69595" r="5.4498" stroke="#4d4d4d" stroke-miterlimit="10" stroke-width="0.5"/><circle cx="685.33405" cy="87.78199" r="3.31727" fill="gray"/><polygon points="685.334 85.8 683.692 86.748 683.692 88.644 685.334 89.592 686.976 88.644 686.976 86.748 685.334 85.8" fill="#1a1a1a"/><polygon points="692.789 122.034 692.079 121.603 683.822 121.603 684.323 122.034 692.789 122.034" fill="#4d4d4d"/><circle cx="685.33405" cy="120.87073" r="5.4498" stroke="#4d4d4d" stroke-miterlimit="10" stroke-width="0.5"/><circle cx="685.33405" cy="120.95677" r="3.31727" fill="gray"/><polygon points="685.334 118.975 683.692 119.923 683.692 121.819 685.334 122.766 686.976 121.819 686.976 119.923 685.334 118.975" fill="#1a1a1a"/><path d="M728.22626,59.92623h4.56391a.90313.90313,0,0,0,.73007-.3715l6.74213-9.17867a.90312.90312,0,0,0-.73007-1.43474h-4.56391a.90311.90311,0,0,0-.73007.3715l-6.74213,9.17867A.90312.90312,0,0,0,728.22626,59.92623Z" fill="#333"/><path d="M739.9324,54.62052l-4.59541-.90743-.00308-4.212h3.738a.86045.86045,0,0,1,.86045.86044Z" fill="#4d4d4d"/><polygon points="734.641 54.067 728.256 63.1 728.256 58.512 734.641 49.855 734.641 54.067"/><path d="M729.11836,63.974h3.73343a.86044.86044,0,0,0,.69558-.354l6.21862-8.54a.86044.86044,0,0,0-.69557-1.36694H735.337a.86044.86044,0,0,0-.69558.35395l-6.21862,8.54A.86045.86045,0,0,0,729.11836,63.974Z" fill="#333"/><path d="M729.63307,63.63727h3.03844a.73364.73364,0,0,0,.59306-.30178l5.85852-7.99764c.5356-.789.32442-1.16547-.59306-1.16547h-3.03844a.73361.73361,0,0,0-.59306.30178l-5.78831,7.923C728.62158,63.1,728.71271,63.63727,729.63307,63.63727Z" fill="#1a1a1a"/><path d="M730.52726,63.22915h1.79665a.72621.72621,0,0,0,.59306-.29378L738.27682,55.77c.5356-.789.32443-1.17348-.59306-1.17348h-1.79665a.72616.72616,0,0,0-.59305.29377L730.00441,61.981C729.51577,62.68389,729.6069,63.22915,730.52726,63.22915Z" stroke="#333" stroke-miterlimit="10" stroke-width="0.2"/><path d="M734.63833,49.85508a.86046.86046,0,0,1,.69558-.35395l.00308,4.212a.86044.86044,0,0,0-.69558.35395Z" fill="#666"/><path d="M739.9324,54.49726a.88139.88139,0,0,0-.86045-.78417v-4.212a.86045.86045,0,0,1,.86045.86044Z" fill="gray"/><rect x="629.88676" y="116.5685" width="27.53422" height="8.60445" rx="3.1" ry="3.1"/><rect x="630.53926" y="117.22649" width="26.22922" height="7.28847" rx="2" ry="2" fill="#333" stroke="#ccc" stroke-miterlimit="10" stroke-width="0.3"/><circle cx="654.4351" cy="120.87041" r="1.25586" fill="#333"/><path d="M654.43547,119.865a1.00577,1.00577,0,1,1-1.00574,1.00574,1.00687,1.00687,0,0,1,1.00574-1.00574m0-.5a1.50577,1.50577,0,1,0,1.50573,1.50574,1.50569,1.50569,0,0,0-1.50573-1.50574Z" fill="#ccc"/><circle cx="632.8726" cy="120.87041" r="1.25586" fill="#333"/><path d="M632.87223,119.865a1.00577,1.00577,0,1,1-1.00573,1.00574,1.0069,1.0069,0,0,1,1.00573-1.00574m0-.5a1.50577,1.50577,0,1,0,1.50586,1.50574,1.50576,1.50576,0,0,0-1.50586-1.50574Z" fill="#ccc"/><path d="M733.8367,52.82793c-23.13146,0-13.7562,20.3851-31.93309,20.3851-14.69284,0-29.73911-.10756-39.74178-.05378-21.18686.11391-24.95643,6.77027-24.95643,13.00588,0,10.86633.67632,25.19174.09128,31.694h12.28416c.467-8.34742-.55627-18.488-.487-32.51562.03052-6.182-1.3748-19.283,15.54178-19.283,8.38933,0,20.58824-.16133,37.268-.16133,13.76711,0,9.94889-6.29239,26.91424-6.29239Z"/><path d="M637.29668,117.85917c.585-6.5023-.09128-20.82771-.09128-31.694,0-6.23561,3.76957-12.892,24.95643-13.00588,10.00267-.05378,25.04894.05378,39.74178.05378,18.17689,0,8.80163-20.3851,31.93309-20.3851" fill="none" stroke="#333" stroke-linecap="round" stroke-miterlimit="10"/><path d="M638.32036,117.85917c.57521-6.65606-.13-20.63274-.12426-31.7625.00255-6.23115,3.34087-13.42456,24.17188-13.529,9.86822-.0493,24.67721.03585,39.53563.03585,17.80941,0,8.89724-19.21071,31.51485-19.21071" fill="none" stroke="#2f2f2f" stroke-linecap="round" stroke-miterlimit="10"/><path d="M639.344,117.85917c.56537-6.80982-.16878-20.43776-.15723-31.831.00508-6.22668,2.91217-13.95714,23.38732-14.05206,9.73377-.04481,24.30548.01793,39.32948.01793,17.44193,0,8.99284-18.03632,31.09662-18.03632" fill="none" stroke="#2a2a2a" stroke-linecap="round" stroke-miterlimit="10"/><path d="M640.36772,117.85917c.55554-6.96358-.20753-20.24278-.19021-31.89943.00763-6.22222,2.48347-14.48972,22.60276-14.57516,9.59934-.04033,23.93377,0,39.12334,0,17.07445,0,9.08845-16.86192,30.67838-16.86192" fill="none" stroke="#262626" stroke-linecap="round" stroke-miterlimit="10"/><path d="M641.3914,117.85917c.5457-7.11734-.24628-20.0478-.22319-31.9679.01017-6.21775,2.05478-15.0223,21.81821-15.09824,9.46489-.03585,23.562-.01793,38.91719-.01793,16.707,0,9.18405-15.68752,30.26014-15.68752" fill="none" stroke="#222" stroke-linecap="round" stroke-miterlimit="10"/><path d="M642.41508,117.85917c.53587-7.2711-.285-19.85282-.25617-32.03636.01272-6.21329,1.62608-15.55489,21.03366-15.62134,9.33045-.03137,23.19031-.03585,38.711-.03585,16.33948,0,9.27966-14.51313,29.8419-14.51313" fill="none" stroke="#1e1e1e" stroke-linecap="round" stroke-miterlimit="10"/><path d="M643.43876,117.85917c.526-7.42486-.32378-19.65784-.28915-32.10483.01527-6.20883,1.19739-16.08747,20.24911-16.14442,9.196-.02689,22.81859-.05378,38.50489-.05378,15.972,0,9.37526-13.33874,29.42367-13.33874" fill="none" stroke="#191919" stroke-linecap="round" stroke-miterlimit="10"/><path d="M644.46244,117.85917c.5162-7.57862-.36253-19.46287-.32212-32.17329.0178-6.20437.76868-16.62006,19.46455-16.66752,9.06155-.02241,22.44686-.0717,38.29874-.0717,15.60452,0,9.47087-12.16435,29.00543-12.16435" fill="none" stroke="#151515" stroke-linecap="round" stroke-miterlimit="10"/><path d="M645.48612,117.85917c.50636-7.73238-.40128-19.26789-.3551-32.24176.02035-6.1999.34-17.15263,18.68-17.1906,8.92711-.01793,22.07513-.08963,38.09259-.08963,15.237,0,9.56647-10.99,28.58719-10.99" fill="none" stroke="#111" stroke-linecap="round" stroke-miterlimit="10"/><path d="M646.5098,117.85917c.49653-7.88614-.44-19.07291-.38808-32.31022.02289-6.19544-.08871-17.68522,17.89544-17.7137,8.79267-.01344,21.70342-.10755,37.88645-.10755,14.86956,0,9.66208-9.81557,28.16895-9.81557" fill="none" stroke="#0d0d0d" stroke-linecap="round" stroke-miterlimit="10"/><path d="M647.53348,117.85917c.48669-8.0399-.47877-18.87793-.42106-32.37869.02544-6.191-.5174-18.2178,17.11089-18.23678,8.65822-.009,21.33169-.12549,37.6803-.12549,14.50208,0,9.75768-8.64117,27.75072-8.64117" fill="none" stroke="#090909" stroke-linecap="round" stroke-miterlimit="10"/><path d="M648.55716,117.85917c.47686-8.19366-.51752-18.683-.454-32.44715.028-6.18652-.94611-18.75039,16.32633-18.75988,8.52378-.00448,20.96-.14341,37.47415-.14341,14.13459,0,9.85329-7.46678,27.33248-7.46678" fill="none" stroke="#040404" stroke-linecap="round" stroke-miterlimit="10"/><path d="M649.58084,117.85917c.467-8.34742-.55627-18.488-.487-32.51562.03052-6.182-1.3748-19.283,15.54178-19.283,8.38933,0,20.58824-.16133,37.268-.16133,13.76711,0,9.94889-6.29239,26.91424-6.29239" fill="none" stroke="#000" stroke-linecap="round" stroke-miterlimit="10"/><path d="M649.58084,117.85917c.467-8.34742-.55627-18.488-.487-32.51562.03052-6.182-1.3748-19.283,15.54178-19.283,8.38933,0,20.58824-.16133,37.268-.16133,13.76711,0,9.94889-6.29239,26.91424-6.29239" fill="none" stroke="#666" stroke-linecap="round" stroke-miterlimit="10" stroke-width="0.4"/><rect x="635.46734" y="117.70965" width="16.37305" height="6.32216" rx="1" ry="1" fill="#333" stroke="#000" stroke-miterlimit="10" stroke-width="0.5"/><rect x="635.03712" y="117.42895" width="0.86045" height="6.88356" rx="0.33954" ry="0.33954" fill="#1a1a1a" stroke="#000" stroke-miterlimit="10" stroke-width="0.2"/><rect x="651.41017" y="117.42895" width="0.86045" height="6.88356" rx="0.33954" ry="0.33954" fill="#1a1a1a" stroke="#000" stroke-miterlimit="10" stroke-width="0.2"/><rect x="636.5552" y="118.24742" width="14.19733" height="2.43587" rx="0.96123" ry="0.96123" stroke="#4d4d4d" stroke-miterlimit="10" stroke-width="0.2"/><rect x="636.5552" y="121.05816" width="14.19733" height="2.43587" rx="0.96123" ry="0.96123" stroke="#4d4d4d" stroke-miterlimit="10" stroke-width="0.2"/><circle cx="78.04515" cy="122.5212" r="1.95049"/><circle cx="78.04515" cy="122.5212" r="1.95049" fill="none" stroke="#1a1a1a" stroke-miterlimit="10" stroke-width="1.29914"/><circle cx="78.04515" cy="122.5212" r="1.95049" fill="none" stroke="#b3b3b3" stroke-miterlimit="10" stroke-width="0.51758"/><circle cx="78.04515" cy="122.5212" r="0.59205" fill="url(#o)"/><path d="M86.4248,113.39355h.72266c.50879,0,.88818.17481.88818.709,0,.50879-.37939.74316-.874.74316h-.33008v.84278H86.4248Zm.70508,1.126c.34033,0,.50537-.13672.50537-.417,0-.28809-.17871-.38281-.519-.38281h-.28467v.7998Z" fill="#f2f2f2"/><path d="M88.52393,114.53027c0-.74023.41406-1.17871,1.01074-1.17871.6001,0,1.01416.43848,1.01416,1.17871,0,.74414-.41406,1.2002-1.01416,1.2002C88.938,115.73047,88.52393,115.27441,88.52393,114.53027Zm1.604,0c0-.51269-.23145-.82422-.59326-.82422-.36133,0-.59326.31153-.59326.82422,0,.51563.23193.84571.59326.84571C89.89648,115.376,90.12793,115.0459,90.12793,114.53027Z" fill="#f2f2f2"/><path d="M90.94287,113.39355h.418l.19971,1.15821c.03857.24512.07715.49121.1123.7334H91.687c.04932-.24219.09815-.49121.15088-.7334l.28076-1.15821h.35449l.28077,1.15821c.05273.23828.102.4873.15429.7334h.01416c.03516-.2461.07373-.49121.10889-.7334l.2002-1.15821h.38916l-.43848,2.29493h-.50537l-.28418-1.207c-.03858-.17969-.07373-.3545-.102-.53028h-.01367c-.03174.17578-.0669.35059-.10547.53028l-.27735,1.207h-.49463Z" fill="#f2f2f2"/><path d="M94.15576,113.39355h1.38233v.34375H94.5625v.58594h.82471v.34375H94.5625v.67774h1.01074v.34375H94.15576Z" fill="#f2f2f2"/><path d="M96.22021,113.39355h.7754c.47705,0,.84228.168.84228.68067a.64283.64283,0,0,1-.45605.65625l.54736.958h-.45654L96.978,114.79h-.35108v.89844h-.40674Zm.7334,1.07325c.312,0,.48438-.13282.48438-.39258,0-.26367-.17237-.35449-.48438-.35449h-.32666v.74707Z" fill="#f2f2f2"/><path d="M92.16642,126.16059a3.63965,3.63965,0,1,1,3.64063-3.63965A3.644,3.644,0,0,1,92.16642,126.16059Z" fill="url(#p)"/><path d="M92.16667,119.01044a3.51076,3.51076,0,1,1-3.51088,3.51074,3.51082,3.51082,0,0,1,3.51088-3.51074m0-.25879a3.76955,3.76955,0,1,0,3.76967,3.76953,3.77388,3.77388,0,0,0-3.76967-3.76953Z"/><path d="M93.14662,121.25975a1.75773,1.75773,0,0,1,.635.77114,1.73907,1.73907,0,0,1,.10212.329,1.76972,1.76972,0,0,1,0,.70646,1.74285,1.74285,0,0,1-.26372.62672,1.75787,1.75787,0,0,1-.77114.635,1.74027,1.74027,0,0,1-.329.10213,1.77021,1.77021,0,0,1-.70646,0,1.743,1.743,0,0,1-.62673-.26373,1.75793,1.75793,0,0,1-.635-.77114,1.73909,1.73909,0,0,1-.10213-.329,1.76972,1.76972,0,0,1,0-.70646,1.74325,1.74325,0,0,1,.26373-.62673,1.76251,1.76251,0,0,1,.47341-.47341" fill="none" stroke="#1a1a1a" stroke-miterlimit="10" stroke-width="0.6901"/><line x1="92.16667" y1="122.21667" x2="92.16667" y2="120.40881" fill="none" stroke="#1a1a1a" stroke-miterlimit="10" stroke-width="0.6901"/><path d="M81.98805,113.36318a1.13913,1.13913,0,0,0-1.12725,1.00128H79.31122a1.46561,1.46561,0,0,0-.88765-1.20956,1.4632,1.4632,0,0,0-1.606.314.14013.14013,0,0,0,.19829.19806,1.18514,1.18514,0,0,1,1.92889.37649,1.17027,1.17027,0,0,1,.07912.321h-.35674a.82533.82533,0,0,0-1.62757,0h-1.81a1.14144,1.14144,0,1,0,0,.2802h1.81a.82532.82532,0,0,0,1.62757,0h.35674a1.17013,1.17013,0,0,1-.079.32082,1.18428,1.18428,0,0,1-1.929.37672.14013.14013,0,0,0-.19829.19806,1.4637,1.4637,0,0,0,2.49367-.8956H80.8608a1.13881,1.13881,0,1,0,1.12725-1.28148Zm-7.88578,2.00242a.861.861,0,1,1,.861-.861A.861.861,0,0,1,74.10227,115.3656Zm7.88578,0a.861.861,0,1,1,.861-.861A.861.861,0,0,1,81.98805,115.3656Z" fill="#f2f2f2"/><rect x="81.49129" y="114.36446" width="0.99348" height="0.2802" fill="#f2f2f2"/><polygon points="74.242 113.909 73.962 113.909 73.962 114.364 73.506 114.364 73.506 114.645 73.962 114.645 73.962 115.101 74.242 115.101 74.242 114.645 74.698 114.645 74.698 114.364 74.242 114.364 74.242 113.909" fill="#f2f2f2"/><g style="isolation:isolate"><g style="isolation:isolate"><g clip-path="url(#q)"><g style="isolation:isolate"><path d="M94.527,47.49323v-.38832c.64087.00139,1.25936.02285,1.85091.06108l.10888.38872c-.63306-.04031-1.28847-.06148-1.95979-.06148" fill="#1d1d1d"/><path d="M96.48679,47.55471l-.10888-.38872a24.3183,24.3183,0,0,1,3.48061.4641l.43068.45055a24.1758,24.1758,0,0,0-3.80241-.52593" fill="#161616"/><path d="M100.2892,48.08064l-.43068-.45055a13.30581,13.30581,0,0,1,1.99237.572l.69775.6012a12.29161,12.29161,0,0,0-2.25944-.72266" fill="#0f0f0f"/><path d="M102.54864,48.8033l-.69775-.6012a3.74339,3.74339,0,0,1,1.22832.68988l.92356.91412a3.86391,3.86391,0,0,0-1.45413-1.0028" fill="#070707"/></g></g></g><g style="isolation:isolate"><g clip-path="url(#r)"><g style="isolation:isolate"><path d="M85.04138,49.80786l.92352-.91455.01832-.01779-.91907.904-.02277.02829" fill="#242424"/><path d="M85.06415,49.77957l.91907-.904a5.31839,5.31839,0,0,1,1.98565-.93544l-.58434.52162a5.182,5.182,0,0,0-2.32038,1.31787" fill="#2c2c2c"/><path d="M87.38453,48.4617l.58434-.52162a20.50856,20.50856,0,0,1,3.81647-.70229l-.17561.39385a19.73236,19.73236,0,0,0-4.2252.83006" fill="#242424"/><path d="M91.60973,47.63164l.17561-.39385c.85229-.08266,1.77146-.13077,2.74166-.13288v.38832c-1.016,0-1.996.0485-2.91727.13841" fill="#1d1d1d"/></g></g></g><g style="isolation:isolate"><g clip-path="url(#s)"><g style="isolation:isolate"><path d="M94.527,52.80113v-5.3079c.48548,0,.96264.01107,1.429.03245v5.30789c-.46639-.02137-.94355-.03244-1.429-.03244" fill="#2c2c2c"/><path d="M95.956,52.83357V47.52568c.95076.04356,1.8568.12993,2.69748.25254v5.3079c-.84068-.12261-1.74672-.209-2.69748-.25255" fill="#242424"/><path d="M98.65351,53.08612v-5.3079a19.85885,19.85885,0,0,1,2.119.42033v5.3079a19.85637,19.85637,0,0,0-2.119-.42033" fill="#1d1d1d"/><path d="M100.77254,53.50645v-5.3079a12.29764,12.29764,0,0,1,1.437.46162v5.3079a12.29764,12.29764,0,0,0-1.437-.46162" fill="#161616"/><path d="M102.20955,53.96807v-5.3079a6.43833,6.43833,0,0,1,1.11969.56085v5.3079a6.43692,6.43692,0,0,0-1.11969-.56085" fill="#0f0f0f"/><path d="M103.32924,54.52892V49.221a1.70329,1.70329,0,0,1,.95376,1.309v5.30789a1.70329,1.70329,0,0,0-.95376-1.309" fill="#070707"/></g></g></g><g style="isolation:isolate"><g clip-path="url(#t)"><g style="isolation:isolate"><path d="M84.762,55.83791V50.53q0-.04532.00427-.09033v5.3079q-.00426.045-.00427.09032" fill="#161616"/><path d="M84.76627,55.74759v-5.3079a.99357.99357,0,0,1,.031-.16889v5.3079a.99357.99357,0,0,0-.031.16889" fill="#1d1d1d"/><path d="M84.79731,55.5787V50.2708a1.12646,1.12646,0,0,1,.07038-.18774V55.391a1.12689,1.12689,0,0,0-.07038.18775" fill="#242424"/><path d="M84.86769,55.391V50.08306a1.39527,1.39527,0,0,1,.11709-.19914v5.30789a1.39582,1.39582,0,0,0-.11709.19914" fill="#2c2c2c"/><path d="M84.98478,55.19181V49.88392a1.91891,1.91891,0,0,1,.22166-.26V54.9318a1.91951,1.91951,0,0,0-.22166.26" fill="#333"/><path d="M85.20644,54.9318V49.62391a3.41038,3.41038,0,0,1,.65494-.49232v5.3079a3.41,3.41,0,0,0-.65494.49231" fill="#686868"/><path d="M85.86138,54.43949v-5.3079a7.65422,7.65422,0,0,1,1.40607-.63011v5.3079a7.65422,7.65422,0,0,0-1.40607.63011" fill="#7e7e7e"/><path d="M87.26745,53.80938v-5.3079a16.87091,16.87091,0,0,1,2.80281-.673v5.3079a16.86991,16.86991,0,0,0-2.80281.673" fill="#686868"/><path d="M90.07026,53.13637v-5.3079a26.88825,26.88825,0,0,1,2.85893-.2946v5.30789a26.89077,26.89077,0,0,0-2.85893.29461" fill="#333"/><path d="M92.92919,52.84176V47.53387c.51994-.02673,1.0537-.04064,1.59781-.04064v5.3079c-.54411,0-1.07787.01391-1.59781.04063" fill="#2c2c2c"/></g></g></g><path d="M94.527,54.84758c5.14648.01116,8.84928,1.31674,8.756,2.20775.09193.89821-3.60881,2.19653-8.756,2.20772-5.14745-.01112-8.85764-1.31026-8.765-2.20772C85.668,56.165,89.37921,54.85879,94.527,54.84758Z" fill="#333"/><g style="isolation:isolate"><g clip-path="url(#u)"><g style="isolation:isolate"><path d="M94.527,54.84758V52.80113q.13319,0,.26553.0011l-.01242,2.04695q-.126-.00132-.25311-.0016" fill="#9d9d9d"/><path d="M94.78011,54.84918l.01242-2.04695c.56019.00468,1.10857.0241,1.64129.057l-.10541,2.04623c-.49809-.03133-1.01509-.05075-1.5483-.05633" fill="#8f8f8f"/><path d="M96.32841,54.90551l.10541-2.04623c.55874.03456,1.10027.084,1.62018.14694l-.22386,2.03485c-.47771-.05677-.97932-.10271-1.50173-.13556" fill="#7e7e7e"/><path d="M97.83014,55.04107l.22386-2.03485c.54008.06537,1.05683.1453,1.54532.23822L99.238,55.25052c-.44117-.07982-.91162-.15048-1.40785-.20945" fill="#686868"/><path d="M99.238,55.25052l.36133-2.00608c.49452.09406.96007.20144,1.39153.32049l-.50661,1.95353c-.383-.09695-.79963-.18714-1.24625-.26794" fill="#333"/><path d="M100.48424,55.51846l.50661-1.95353a11.97355,11.97355,0,0,1,1.17325.38522l-.64725,1.8727c-.30913-.10637-.65449-.20868-1.03261-.30439" fill="#2c2c2c"/><path d="M101.51685,55.82285l.64725-1.8727a7.15726,7.15726,0,0,1,.92927.43556l-.77411,1.7598a7.69047,7.69047,0,0,0-.80241-.32266" fill="#242424"/><path d="M102.31926,56.14551l.77411-1.7598a3.74924,3.74924,0,0,1,.66727.47128l-.87927,1.61234a3.63436,3.63436,0,0,0-.56211-.32382" fill="#1d1d1d"/><path d="M102.88137,56.46933l.87927-1.61234a1.35589,1.35589,0,0,1,.52236.98092.96984.96984,0,0,1-.00724.11819l-.99255,1.1634a.32983.32983,0,0,0-.00021-.06417c.01914-.1828-.12151-.38306-.40163-.586" fill="#161616"/><path d="M103.28321,57.1195l.99255-1.1634a1.35088,1.35088,0,0,1-.41141.76547l-.898.85711a.7407.7407,0,0,0,.31687-.45918" fill="#0f0f0f"/><path d="M102.96634,57.57868l.898-.85711q-.03578.03674-.07445.07308l-.8848.83166q.0319-.02383.06124-.04763" fill="#070707"/></g></g></g><g style="isolation:isolate"><g clip-path="url(#v)"><g style="isolation:isolate"><path d="M86.13891,57.62482l-.88485-.832a1.62631,1.62631,0,0,1-.42557-.5984l.97155,1.06a1.06341,1.06341,0,0,0,.33887.37046" fill="#070707"/><path d="M85.8,57.25436l-.97155-1.06a1.04513,1.04513,0,0,1-.0548-.20648l.99016,1.14911a.42024.42024,0,0,0,.03619.11733" fill="#0f0f0f"/><path d="M85.76385,57.137l-.99016-1.14911a.97106.97106,0,0,1-.01169-.15l.00011-.0144.99917,1.22413.00072.00769a.33138.33138,0,0,0,.00185.0817" fill="#161616"/><path d="M85.76128,57.04764l-.99917-1.22413a.966.966,0,0,1,.01569-.15918l.98813,1.29647a.33193.33193,0,0,0-.00465.08684" fill="#1d1d1d"/><path d="M85.76593,56.9608l-.98813-1.29647a1.03084,1.03084,0,0,1,.03455-.13567l.976,1.35544a.406.406,0,0,0-.02239.0767" fill="#242424"/><path d="M85.78832,56.8841l-.976-1.35544a1.13686,1.13686,0,0,1,.04475-.1149l.9637,1.40349a.52473.52473,0,0,0-.03248.06685" fill="#2c2c2c"/><path d="M85.8208,56.81725l-.9637-1.40349q.02521-.05579.05692-.11091l.95015,1.44825a.68481.68481,0,0,0-.04337.06615" fill="#333"/><path d="M85.86417,56.7511,84.914,55.30285q.03059-.0532.0671-.10578l.93567,1.48948q-.02892.03243-.05262.06455" fill="#686868"/><path d="M85.91679,56.68655l-.93567-1.48948q.03823-.05508.08286-.1094l.91911,1.53065q-.036.03425-.0663.06823" fill="#7e7e7e"/><path d="M85.98309,56.61832,85.064,55.08767q.05468-.06659.11872-.132l.897,1.57834q-.05245.04229-.09657.08429" fill="#8f8f8f"/><path d="M86.07966,56.534l-.897-1.57834q.07815-.07982.1699-.15776L86.22,56.43049q-.07622.05189-.14029.10354" fill="#9d9d9d"/><path d="M86.22,56.43049l-.86735-1.63256a3.3591,3.3591,0,0,1,.276-.20976l.82263,1.7q-.12666.07113-.23124.14233" fill="#aaa"/><path d="M86.45119,56.28816l-.82263-1.7a4.93324,4.93324,0,0,1,.517-.30655l.74589,1.78914q-.245.1077-.44021.2174" fill="#b5b5b5"/><path d="M86.8914,56.07076l-.74589-1.78914a12.95019,12.95019,0,0,1,3.58607-1.08831l.334,2.01325a14.00062,14.00062,0,0,0-3.17414.8642" fill="#bfbfbf"/><path d="M90.06554,55.20656l-.334-2.01325c.663-.11678,1.374-.21015,2.12158-.27644l.15766,2.04268c-.69335.06141-1.34451.14572-1.94528.247" fill="#b5b5b5"/><path d="M92.01082,54.95955l-.15766-2.04268c.47477-.04211.96426-.07329,1.46549-.09261l.06219,2.0475q-.70844.02852-1.37.08779" fill="#aaa"/><path d="M93.38084,54.87176l-.06219-2.0475q.59392-.02291,1.20835-.02313v2.04645q-.586.00127-1.14616.02418" fill="#9d9d9d"/></g></g></g></g><ellipse cx="94.52346" cy="56.86306" rx="5.81538" ry="1.66154"/><g style="isolation:isolate"><g style="isolation:isolate"><g clip-path="url(#w)"><g style="isolation:isolate"><path d="M705.495,47.49524v-.38832c.64224.0014,1.26215.02291,1.8551.06123l.10882.38869c-.63452-.04039-1.29135-.0616-1.96392-.0616" fill="#1d1d1d"/><path d="M707.45888,47.55684l-.10882-.38869a24.34722,24.34722,0,0,1,3.48328.46421l.43127.45072a24.1943,24.1943,0,0,0-3.80573-.52624" fill="#161616"/><path d="M711.26461,48.08308l-.43127-.45072a13.27167,13.27167,0,0,1,1.987.57028l.69812.60131a12.26153,12.26153,0,0,0-2.25384-.72087" fill="#0f0f0f"/><path d="M713.51845,48.804l-.69812-.60131a3.73412,3.73412,0,0,1,1.22541.68835l.92348.91336a3.85886,3.85886,0,0,0-1.45077-1.0004" fill="#070707"/></g></g></g><g style="isolation:isolate"><g clip-path="url(#x)"><g style="isolation:isolate"><path d="M696.01159,49.80464l.92356-.91342.01861-.018-.91908.90282-.02309.02863" fill="#242424"/><path d="M696.03468,49.776l.91908-.90282a5.2988,5.2988,0,0,1,1.978-.93222l-.58581.522a5.16842,5.16842,0,0,0-2.31131,1.313" fill="#2c2c2c"/><path d="M698.346,48.463l.58581-.522a20.48047,20.48047,0,0,1,3.811-.70078l-.17674.394a19.70058,19.70058,0,0,0-4.22.82882" fill="#242424"/><path d="M702.566,47.63414l.17674-.394c.85522-.08292,1.778-.13117,2.75221-.13327v.38832c-1.02033,0-2.00424.04864-2.92895.1389" fill="#1d1d1d"/></g></g></g><g style="isolation:isolate"><g clip-path="url(#y)"><g style="isolation:isolate"><path d="M705.495,52.80313V47.49524c.48658,0,.96492.0111,1.43254.03253v5.3079c-.46762-.02144-.946-.03254-1.43254-.03254" fill="#2c2c2c"/><path d="M706.9275,52.83567v-5.3079c.95136.04361,1.85832.13,2.69994.25268v5.30789c-.84162-.12269-1.74858-.20907-2.69994-.25267" fill="#242424"/><path d="M709.62744,53.08834V47.78045a19.8476,19.8476,0,0,1,2.11954.42032v5.30789a19.8476,19.8476,0,0,0-2.11954-.42032" fill="#1d1d1d"/><path d="M711.747,53.50866V48.20077a12.17881,12.17881,0,0,1,1.46574.4734v5.30789a12.18059,12.18059,0,0,0-1.46574-.4734" fill="#161616"/><path d="M713.21272,53.98206V48.67417a6.35981,6.35981,0,0,1,1.08426.54642v5.3079a6.36053,6.36053,0,0,0-1.08426-.54643" fill="#0f0f0f"/><path d="M714.297,54.52849v-5.3079a1.70431,1.70431,0,0,1,.954,1.31141v5.30789a1.70431,1.70431,0,0,0-.954-1.3114" fill="#070707"/></g></g></g><g style="isolation:isolate"><g clip-path="url(#z)"><g style="isolation:isolate"><path d="M695.73,55.83989V50.532q0-.04567.0043-.091v5.3079q-.00429.04534-.0043.091" fill="#161616"/><path d="M695.7343,55.74886V50.441a1.0019,1.0019,0,0,1,.03129-.17023v5.3079a1.00154,1.00154,0,0,0-.03129.17023" fill="#1d1d1d"/><path d="M695.76559,55.57863v-5.3079a1.13276,1.13276,0,0,1,.07066-.18853v5.3079a1.13243,1.13243,0,0,0-.07066.18853" fill="#242424"/><path d="M695.83625,55.3901V50.0822a1.4,1.4,0,0,1,.11738-.19974v5.3079a1.39945,1.39945,0,0,0-.11738.19974" fill="#2c2c2c"/><path d="M695.95363,55.19036v-5.3079a1.92165,1.92165,0,0,1,.22216-.26068v5.30789a1.92172,1.92172,0,0,0-.22216.26069" fill="#333"/><path d="M696.17579,54.92967V49.62178a3.4049,3.4049,0,0,1,.65365-.49152v5.3079a3.40529,3.40529,0,0,0-.65365.49151" fill="#686868"/><path d="M696.82944,54.43816v-5.3079a7.62124,7.62124,0,0,1,1.4006-.62788v5.30789a7.62189,7.62189,0,0,0-1.4006.62789" fill="#7e7e7e"/><path d="M698.23,53.81027V48.50238a16.8259,16.8259,0,0,1,2.79807-.67168v5.3079a16.826,16.826,0,0,0-2.79807.67167" fill="#686868"/><path d="M701.02811,53.1386V47.8307a26.93858,26.93858,0,0,1,2.86275-.2947v5.30789a26.93849,26.93849,0,0,0-2.86275.29471" fill="#333"/><path d="M703.89086,52.84389V47.536c.52193-.02682,1.05779-.04076,1.6041-.04076v5.30789c-.54631,0-1.08217.01395-1.6041.04076" fill="#2c2c2c"/></g></g></g><path d="M705.495,54.84959c5.13931.0112,8.84866,1.31008,8.756,2.20772.09262.89768-3.61674,2.19655-8.756,2.20775-5.14744-.01112-8.85759-1.31025-8.765-2.20775C696.63737,56.15985,700.34752,54.86071,705.495,54.84959Z" fill="#333"/><g style="isolation:isolate"><g clip-path="url(#aa)"><g style="isolation:isolate"><path d="M705.495,54.84959V52.80313q.13315,0,.26547.00111l-.01235,2.047q-.126-.00132-.25312-.0016" fill="#9d9d9d"/><path d="M705.74808,54.85119l.01235-2.047c.56208.00468,1.11241.02417,1.64709.05727l-.10547,2.04625c-.49993-.03147-1.01884-.051-1.554-.05657" fill="#8f8f8f"/><path d="M707.30205,54.90776l.10547-2.04625c.55879.03459,1.10049.084,1.62062.147l-.224,2.03485c-.47787-.05676-.97961-.10271-1.50209-.13559" fill="#7e7e7e"/><path d="M708.80414,55.04335l.224-2.03485c.541.06546,1.0586.14552,1.5479.23862l-.36192,2.00595c-.44181-.07993-.913-.15068-1.41-.20972" fill="#686868"/><path d="M710.21412,55.25307l.36192-2.00595c.49443.09408.95993.20148,1.39131.3206l-.50748,1.9532c-.38283-.09693-.7993-.18708-1.24575-.26785" fill="#333"/><path d="M711.45987,55.52092l.50748-1.9532a11.93783,11.93783,0,0,1,1.168.38367l-.64775,1.8725c-.30779-.10589-.65154-.2077-1.02777-.303" fill="#2c2c2c"/><path d="M712.48764,55.82389l.64775-1.8725a7.135,7.135,0,0,1,.92674.43449l-.77442,1.75974a7.66042,7.66042,0,0,0-.80007-.32173" fill="#242424"/><path d="M713.28771,56.14562l.77442-1.75974a3.74035,3.74035,0,0,1,.66606.47062l-.87942,1.61251a3.62265,3.62265,0,0,0-.56106-.32339" fill="#1d1d1d"/><path d="M713.84877,56.469l.87942-1.61251a1.35858,1.35858,0,0,1,.52281.98339.96987.96987,0,0,1-.00723.11807l-.99252,1.16342a.328.328,0,0,0-.00025-.06407c.019-.18408-.1219-.385-.40223-.5883" fill="#161616"/><path d="M714.25125,57.12138l.99252-1.16342a1.34871,1.34871,0,0,1-.41036.76375l-.898.85757a.73834.73834,0,0,0,.31583-.4579" fill="#0f0f0f"/><path d="M713.93542,57.57928l.898-.85757q-.03579.03678-.07447.07316l-.88477.83206q.03192-.02387.06125-.04765" fill="#070707"/></g></g></g><g style="isolation:isolate"><g clip-path="url(#ab)"><g style="isolation:isolate"><path d="M697.10693,57.62683l-.88485-.832a1.62656,1.62656,0,0,1-.42558-.59842l.97155,1.06a1.0633,1.0633,0,0,0,.33888.37048" fill="#070707"/><path d="M696.76805,57.25635l-.97155-1.06a1.046,1.046,0,0,1-.05481-.2065l.99017,1.14912a.41991.41991,0,0,0,.03619.11733" fill="#0f0f0f"/><path d="M696.73186,57.139l-.99017-1.14912a.971.971,0,0,1-.01169-.15l.00011-.01451.99919,1.22416.0007.00777a.33147.33147,0,0,0,.00186.08171" fill="#161616"/><path d="M696.7293,57.04954l-.99919-1.22416a.97386.97386,0,0,1,.0158-.16039l.98823,1.29677a.33658.33658,0,0,0-.00484.08778" fill="#1d1d1d"/><path d="M696.73414,56.96176l-.98823-1.29677a1.03824,1.03824,0,0,1,.03469-.13635l.97614,1.35582a.41116.41116,0,0,0-.0226.0773" fill="#242424"/><path d="M696.75674,56.88446l-.97614-1.35582a1.14349,1.14349,0,0,1,.045-.11558l.96389,1.404a.53006.53006,0,0,0-.03274.06741" fill="#2c2c2c"/><path d="M696.78948,56.81705l-.96389-1.404q.0253-.056.05713-.11138l.95037,1.44881a.69041.69041,0,0,0-.04361.06656" fill="#333"/><path d="M696.83309,56.75049l-.95037-1.44881q.03069-.05341.06733-.10618l.93592,1.49008q-.02906.0326-.05288.06491" fill="#686868"/><path d="M696.886,56.68558l-.93592-1.49008q.03847-.05543.0834-.1101l.91931,1.5314q-.03624.03451-.06679.06878" fill="#7e7e7e"/><path d="M696.95276,56.6168l-.91931-1.5314q.05471-.0666.11877-.132l.89723,1.579q-.05248.04234-.09669.08442" fill="#8f8f8f"/><path d="M697.04945,56.53238l-.89723-1.579q.07819-.07984.17-.15779l.86769,1.63311q-.07626.05193-.14042.10367" fill="#9d9d9d"/><path d="M697.18987,56.42871l-.86769-1.63311a3.35238,3.35238,0,0,1,.27438-.20864l.82329,1.70011q-.12588.07074-.23.14164" fill="#aaa"/><path d="M697.41985,56.28707l-.82329-1.70011a4.91824,4.91824,0,0,1,.51694-.30666l.7466,1.78926q-.245.10768-.44025.21751" fill="#b5b5b5"/><path d="M697.8601,56.06956l-.7466-1.78926a12.85373,12.85373,0,0,1,3.54259-1.07889l.3385,2.01225a13.89428,13.89428,0,0,0-3.13449.8559" fill="#bfbfbf"/><path d="M700.99459,55.21366l-.3385-2.01225c.67123-.11927,1.39235-.21447,2.15117-.28185l.15889,2.04257c-.70363.06238-1.36367.14827-1.97156.25153" fill="#b5b5b5"/><path d="M702.96615,54.96213l-.15889-2.04257c.47511-.04219.965-.07348,1.4667-.09293l.063,2.04749q-.70893.02868-1.37082.088" fill="#aaa"/><path d="M704.337,54.87412l-.063-2.04749q.6-.02327,1.221-.0235v2.04646q-.59222.00127-1.158.02453" fill="#9d9d9d"/></g></g></g></g><ellipse cx="705.49068" cy="56.86306" rx="5.81538" ry="1.66154"/><path d="M247.8418,98.8584h.7539c.53125,0,.92676.18359.92676.74023,0,.53125-.39551.77637-.91211.77637h-.34375v.87891h-.4248Zm.73584,1.17578c.355,0,.52734-.14258.52734-.43555,0-.30078-.187-.39941-.542-.39941h-.29639v.835Z" fill="#f2f2f2"/><path d="M250.1543,98.8584h1.44336v.35937H250.5791v.61133h.86084v.35938h-.86084v.707h1.05469v.3584H250.1543Z" fill="#f2f2f2"/><path d="M252.30664,98.8584h.64111a1.19865,1.19865,0,0,1,.022,2.39551h-.66309Zm.61182,2.05078c.4834,0,.7583-.27441.7583-.86328,0-.58594-.2749-.84278-.7583-.84278h-.187v1.70606Z" fill="#f2f2f2"/><path d="M255.209,98.8584h.49805l.78027,2.39551h-.44677l-.187-.64844h-.80567l-.18652.64844h-.43213Zm-.062,1.41406h.61182l-.08447-.293c-.07666-.25293-.14649-.52734-.21631-.791h-.01465c-.06543.26757-.13525.53808-.21191.791Z" fill="#f2f2f2"/><path d="M256.96582,98.8584h.4248v2.03711h.9961v.3584h-1.4209Z" fill="#f2f2f2"/><path d="M258.73,100.94629l.249-.28906a.95238.95238,0,0,0,.62256.2705c.271,0,.41748-.12011.41748-.30761,0-.19727-.15381-.25977-.36963-.35157l-.33007-.14257a.68934.68934,0,0,1-.4834-.63672.72846.72846,0,0,1,.80566-.67383,1.05822,1.05822,0,0,1,.73633.30371l-.21582.27051a.7838.7838,0,0,0-.52051-.20508c-.22656,0-.37695.10645-.37695.28223,0,.18652.1831.25683.38086.33691l.32617.13574a.66915.66915,0,0,1,.4834.64746.76143.76143,0,0,1-.86084.71094A1.23958,1.23958,0,0,1,258.73,100.94629Z" fill="#f2f2f2"/><path d="M282.13428,113.415h.51758v-1.52442h-.42676v-.26269a1.551,1.551,0,0,0,.53613-.18945h.314V113.415h.45556v.34277h-1.39648Z" fill="#f2f2f2"/><path d="M262.52783,113.51367c.64551-.624,1.05029-1.03222,1.05029-1.38574a.36015.36015,0,0,0-.38281-.40137.64136.64136,0,0,0-.45263.25879l-.2334-.2334a.95219.95219,0,0,1,.74072-.35742.678.678,0,0,1,.73291.71094c0,.41211-.38281.835-.84229,1.32031.12012-.01074.27344-.02539.38624-.02539h.56884v.35742h-1.56787Z" fill="#f2f2f2"/><path d="M242.91162,113.47363l.20068-.27051a.75761.75761,0,0,0,.55079.25586c.25146,0,.42675-.13183.42675-.35058,0-.24024-.15332-.39356-.68213-.39356v-.30664c.45606,0,.60547-.15625.60547-.37207a.30248.30248,0,0,0-.34277-.30957.67782.67782,0,0,0-.4668.21875l-.21533-.25879a1.02509,1.02509,0,0,1,.69678-.292c.44482,0,.751.21875.751.61231a.55673.55673,0,0,1-.40479.5332v.01465a.58935.58935,0,0,1,.48145.57617c0,.42285-.36817.6709-.81348.6709A1.01056,1.01056,0,0,1,242.91162,113.47363Z" fill="#f2f2f2"/><path d="M224.37451,113.16016h-1.0249V112.875l.91943-1.43652h.49951V112.835h.29151v.3252h-.29151v.59765h-.394Zm0-.3252v-.52539c0-.13477.01123-.3457.01807-.48047h-.01416c-.0586.12012-.124.23633-.18994.36035l-.42286.64551Z" fill="#f2f2f2"/><line x1="263.27818" y1="106.60913" x2="263.27818" y2="109.86248" fill="none" stroke="#f2f2f2" stroke-miterlimit="10" stroke-width="0.21645"/><line x1="253.51815" y1="103.35579" x2="253.51815" y2="106.60913" fill="none" stroke="#f2f2f2" stroke-miterlimit="10" stroke-width="0.21645"/><polyline points="224.238 109.862 224.238 106.609 282.798 106.609 282.798 109.862" fill="none" stroke="#f2f2f2" stroke-miterlimit="10" stroke-width="0.21645"/><line x1="243.75812" y1="109.86248" x2="243.75812" y2="106.60913" fill="none" stroke="#f2f2f2" stroke-miterlimit="10" stroke-width="0.21645"/><circle cx="180.77197" cy="102.51206" r="7.91187"/><path d="M180.77214,95.03315a7.479,7.479,0,1,1-7.479,7.479,7.48746,7.48746,0,0,1,7.479-7.479m0-.86582a8.34481,8.34481,0,1,0,8.34479,8.34482,8.34482,8.34482,0,0,0-8.34479-8.34482Z" fill="#4d4d4d"/><path d="M180.77214,94.16733a8.34481,8.34481,0,1,1-8.34479,8.34482,8.34482,8.34482,0,0,1,8.34479-8.34482m0-.21646a8.56127,8.56127,0,1,0,8.56123,8.56128,8.57095,8.57095,0,0,0-8.56123-8.56128Z"/><circle cx="180.77214" cy="105.64144" r="1.17349" fill="#4d4d4d"/><circle cx="180.77214" cy="105.64144" r="0.83611" fill="#8d8d8d"/><circle cx="180.77214" cy="105.64144" r="0.49873" fill="#ccc"/><circle cx="177.12129" cy="102.51214" r="1.17349" fill="#4d4d4d"/><circle cx="177.12129" cy="102.51214" r="0.83611" fill="#8d8d8d"/><circle cx="177.12129" cy="102.51214" r="0.49873" fill="#ccc"/><circle cx="184.42299" cy="102.51214" r="1.17349" fill="#4d4d4d"/><circle cx="184.42299" cy="102.51214" r="0.83611" fill="#8d8d8d"/><circle cx="184.42299" cy="102.51214" r="0.49873" fill="#ccc"/><path d="M161.69287,81.77246h.49609l.77686,2.38477h-.44531l-.186-.64551h-.80224l-.186.64551H160.916Zm-.062,1.40723h.60889l-.084-.292c-.07617-.251-.14551-.52442-.21484-.78711h-.01465c-.06592.26562-.13477.53613-.21143.78711Z" fill="#f2f2f2"/><path d="M163.3877,83.11035V81.77246h.42285v1.37109c0,.51758.19336.68946.48144.68946.29151,0,.4961-.17188.4961-.68946V81.77246h.40478v1.33789c0,.78418-.34668,1.09082-.90088,1.09082C163.74121,84.20117,163.3877,83.89453,163.3877,83.11035Z" fill="#f2f2f2"/><path d="M165.97217,81.77246h.63818a1.19327,1.19327,0,0,1,.022,2.38477h-.66015Zm.60888,2.042c.48145,0,.75489-.27343.75489-.86035,0-.584-.27344-.83887-.75489-.83887h-.186v1.69922Z" fill="#f2f2f2"/><path d="M168.43652,81.77246h.42286v2.38477h-.42286Z" fill="#f2f2f2"/><path d="M169.52441,82.9541c0-.76953.43018-1.22558,1.0503-1.22558.62353,0,1.05371.456,1.05371,1.22558,0,.77246-.43018,1.24707-1.05371,1.24707C169.95459,84.20117,169.52441,83.72656,169.52441,82.9541Zm1.66651,0c0-.5332-.24072-.85742-.61621-.85742s-.61621.32422-.61621.85742c0,.53613.24072.87891.61621.87891S171.19092,83.49023,171.19092,82.9541Z" fill="#f2f2f2"/><path d="M173.08057,82.9541c0-.76953.43017-1.22558,1.05029-1.22558.62353,0,1.05371.456,1.05371,1.22558,0,.77246-.43018,1.24707-1.05371,1.24707C173.51074,84.20117,173.08057,83.72656,173.08057,82.9541Zm1.6665,0c0-.5332-.24072-.85742-.61621-.85742s-.61621.32422-.61621.85742c0,.53613.24072.87891.61621.87891S174.74707,83.49023,174.74707,82.9541Z" fill="#f2f2f2"/><path d="M175.83691,83.11035V81.77246h.42286v1.37109c0,.51758.19335.68946.48144.68946.2915,0,.49609-.17188.49609-.68946V81.77246h.40479v1.33789c0,.78418-.34668,1.09082-.90088,1.09082C176.19043,84.20117,175.83691,83.89453,175.83691,83.11035Z" fill="#f2f2f2"/><path d="M178.90283,82.12988h-.68945v-.35742h1.80176v.35742h-.68946v2.02735h-.42285Z" fill="#f2f2f2"/><path d="M180.13086,88.08984h.42285v2.02735h.99219v.35742h-1.415Z" fill="#f2f2f2"/><path d="M159.51562,88.08984h.80567c.49609,0,.87549.17481.87549.707a.66781.66781,0,0,1-.47412.68261l.56884.99512h-.47412l-.51416-.93359h-.36474v.93359h-.42286Zm.76221,1.11524c.32471,0,.50342-.1377.50342-.4082,0-.27344-.17871-.36817-.50342-.36817h-.33935v.77637Z" fill="#f2f2f2"/><circle cx="173.20967" cy="94.94967" r="1.46034"/><circle cx="188.33461" cy="110.07461" r="1.46034"/><line x1="172.68812" y1="94.42812" x2="173.73122" y2="95.47122" fill="#333" stroke="#333" stroke-linecap="round" stroke-miterlimit="10" stroke-width="0.30304"/><line x1="173.73122" y1="94.42812" x2="172.68812" y2="95.47122" fill="#333" stroke="#333" stroke-linecap="round" stroke-miterlimit="10" stroke-width="0.30304"/><line x1="187.81306" y1="109.55306" x2="188.85616" y2="110.59616" fill="#333" stroke="#333" stroke-linecap="round" stroke-miterlimit="10" stroke-width="0.30304"/><line x1="188.85616" y1="109.55306" x2="187.81306" y2="110.59616" fill="#333" stroke="#333" stroke-linecap="round" stroke-miterlimit="10" stroke-width="0.30304"/><path d="M160.28857,110.42417a7.91211,7.91211,0,1,1,7.91211-7.91211A7.92092,7.92092,0,0,1,160.28857,110.42417Z"/><path d="M160.28877,95.03315a7.479,7.479,0,1,1-7.479,7.479,7.48747,7.48747,0,0,1,7.479-7.479m0-.86582a8.34481,8.34481,0,1,0,8.34481,8.34482,8.34482,8.34482,0,0,0-8.34481-8.34482Z" fill="#4d4d4d"/><path d="M160.28877,94.16733a8.34481,8.34481,0,1,1-8.34479,8.34482,8.34483,8.34483,0,0,1,8.34479-8.34482m0-.21646a8.56127,8.56127,0,1,0,8.56125,8.56128,8.57095,8.57095,0,0,0-8.56125-8.56128Z"/><circle cx="160.28878" cy="105.64144" r="1.17349" fill="#4d4d4d"/><circle cx="160.28878" cy="105.64144" r="0.83611" fill="#8d8d8d"/><circle cx="160.28878" cy="105.64144" r="0.49873" fill="#ccc"/><circle cx="156.63793" cy="102.51214" r="1.17349" fill="#4d4d4d"/><circle cx="156.63793" cy="102.51214" r="0.83611" fill="#8d8d8d"/><circle cx="156.63793" cy="102.51214" r="0.49873" fill="#ccc"/><circle cx="163.93963" cy="102.51214" r="1.17349" fill="#4d4d4d"/><circle cx="163.93963" cy="102.51214" r="0.83611" fill="#8d8d8d"/><circle cx="163.93963" cy="102.51214" r="0.49873" fill="#ccc"/><circle cx="167.85125" cy="110.07461" r="1.46034"/><circle cx="152.72631" cy="94.94967" r="1.46034"/><line x1="152.20476" y1="94.42812" x2="153.24786" y2="95.47122" fill="#333" stroke="#333" stroke-linecap="round" stroke-miterlimit="10" stroke-width="0.30304"/><line x1="153.24786" y1="94.42812" x2="152.20476" y2="95.47122" fill="#333" stroke="#333" stroke-linecap="round" stroke-miterlimit="10" stroke-width="0.30304"/><line x1="167.3297" y1="109.55306" x2="168.3728" y2="110.59616" fill="#333" stroke="#333" stroke-linecap="round" stroke-miterlimit="10" stroke-width="0.30304"/><line x1="168.3728" y1="109.55306" x2="167.3297" y2="110.59616" fill="#333" stroke="#333" stroke-linecap="round" stroke-miterlimit="10" stroke-width="0.30304"/><line x1="160.28878" y1="111.13703" x2="160.28878" y2="115.96817" fill="none" stroke="#ccc" stroke-miterlimit="10" stroke-width="0.30304"/><line x1="180.77214" y1="111.26698" x2="180.77214" y2="115.96093" fill="none" stroke="#ccc" stroke-miterlimit="10" stroke-width="0.30304"/><circle cx="180.77214" cy="122.36967" r="6.25859" fill="gray" stroke="#1a1a1a" stroke-miterlimit="10" stroke-width="0.21645"/><path d="M183.80425,117.51663l2.65718,4.60234a.43289.43289,0,0,1,0,.43292l-2.65718,4.60234a.43292.43292,0,0,1-.37491.21645H178.115a.4329.4329,0,0,1-.37491-.21646l-2.65719-4.60233a.43294.43294,0,0,1,0-.43292l2.65719-4.60234a.43291.43291,0,0,1,.37491-.21645h5.31439A.43292.43292,0,0,1,183.80425,117.51663Z" fill="#999" stroke="#4d4d4d" stroke-miterlimit="10" stroke-width="0.21645"/><circle cx="180.77214" cy="122.36967" r="3.65085" stroke="#666" stroke-miterlimit="10" stroke-width="0.21645"/><circle cx="160.28863" cy="122.36967" r="6.25859" fill="gray" stroke="#1a1a1a" stroke-miterlimit="10" stroke-width="0.21645"/><path d="M163.32074,117.51663l2.65718,4.60234a.43289.43289,0,0,1,0,.43292l-2.65718,4.60234a.43292.43292,0,0,1-.37491.21645h-5.31439a.4329.4329,0,0,1-.37491-.21646l-2.65719-4.60233a.43294.43294,0,0,1,0-.43292l2.65719-4.60234a.43291.43291,0,0,1,.37491-.21645h5.31439A.43291.43291,0,0,1,163.32074,117.51663Z" fill="#999" stroke="#4d4d4d" stroke-miterlimit="10" stroke-width="0.21645"/><circle cx="160.28863" cy="122.36967" r="3.65085" stroke="#666" stroke-miterlimit="10" stroke-width="0.21645"/><circle cx="224.21848" cy="122.26585" r="6.25859" fill="#252525" stroke="#1a1a1a" stroke-miterlimit="10" stroke-width="0.21645"/><path d="M227.25058,117.4128l2.65719,4.60234a.43289.43289,0,0,1,0,.43292l-2.65719,4.60234a.4329.4329,0,0,1-.37491.21645h-5.31438a.4329.4329,0,0,1-.37491-.21645l-2.65719-4.60234a.43294.43294,0,0,1,0-.43292l2.65719-4.60234a.43291.43291,0,0,1,.37491-.21645h5.31438A.4329.4329,0,0,1,227.25058,117.4128Z" fill="#252525" stroke="#4d4d4d" stroke-miterlimit="10" stroke-width="0.21645"/><circle cx="224.21848" cy="122.26585" r="3.65085" stroke="#4d4d4d" stroke-miterlimit="10" stroke-width="0.21645"/><circle cx="243.77081" cy="122.26585" r="6.25859" fill="#252525" stroke="#1a1a1a" stroke-miterlimit="10" stroke-width="0.21645"/><path d="M246.80291,117.4128l2.65719,4.60234a.43294.43294,0,0,1,0,.43292l-2.65719,4.60234a.43291.43291,0,0,1-.37491.21645h-5.31439a.43292.43292,0,0,1-.37491-.21645l-2.65718-4.60234a.43289.43289,0,0,1,0-.43292l2.65718-4.60234a.43293.43293,0,0,1,.37492-.21645H246.428A.43291.43291,0,0,1,246.80291,117.4128Z" fill="#252525" stroke="#4d4d4d" stroke-miterlimit="10" stroke-width="0.21645"/><circle cx="243.77081" cy="122.26585" r="3.65085" stroke="#4d4d4d" stroke-miterlimit="10" stroke-width="0.21645"/><circle cx="263.32313" cy="122.26585" r="6.25859" fill="#252525" stroke="#1a1a1a" stroke-miterlimit="10" stroke-width="0.21645"/><path d="M266.35524,117.4128l2.65718,4.60234a.43289.43289,0,0,1,0,.43292l-2.65718,4.60234a.43291.43291,0,0,1-.37491.21645h-5.31439a.43291.43291,0,0,1-.37491-.21645l-2.65719-4.60234a.43294.43294,0,0,1,0-.43292l2.65719-4.60234a.43291.43291,0,0,1,.37491-.21645h5.31439A.43291.43291,0,0,1,266.35524,117.4128Z" fill="#252525" stroke="#4d4d4d" stroke-miterlimit="10" stroke-width="0.21645"/><circle cx="263.32313" cy="122.26585" r="3.65085" stroke="#4d4d4d" stroke-miterlimit="10" stroke-width="0.21645"/><circle cx="282.87546" cy="122.26585" r="6.25859" fill="#252525" stroke="#1a1a1a" stroke-miterlimit="10" stroke-width="0.21645"/><path d="M285.90756,117.4128l2.65719,4.60234a.43289.43289,0,0,1,0,.43292l-2.65719,4.60234a.4329.4329,0,0,1-.3749.21645h-5.31439a.43291.43291,0,0,1-.37491-.21645l-2.65719-4.60234a.43294.43294,0,0,1,0-.43292l2.65719-4.60234a.43291.43291,0,0,1,.37491-.21645h5.31438A.4329.4329,0,0,1,285.90756,117.4128Z" fill="#252525" stroke="#4d4d4d" stroke-miterlimit="10" stroke-width="0.21645"/><circle cx="282.87546" cy="122.26585" r="3.65085" stroke="#4d4d4d" stroke-miterlimit="10" stroke-width="0.21645"/></svg>