<svg xmlns="http://www.w3.org/2000/svg" viewBox="0 0 646 160"><title>gfk_undo-a-web</title><line x1="251" y1="13.66663" x2="276.59686" y2="13.66663" fill="none" stroke="#6c718c" stroke-width="2"/><polygon points="273.823 17.734 289 13.667 273.823 9.599 273.823 17.734" fill="#6c718c"/><line x1="349" y1="13.66663" x2="374.59692" y2="13.66663" fill="none" stroke="#6c718c" stroke-width="2"/><polygon points="371.823 17.734 387 13.667 371.823 9.599 371.823 17.734" fill="#6c718c"/><line x1="447" y1="13.66663" x2="472.59692" y2="13.66663" fill="none" stroke="#6c718c" stroke-width="2"/><polygon points="469.823 17.734 485 13.667 469.823 9.599 469.823 17.734" fill="#6c718c"/><line x1="545" y1="13.66663" x2="570.59692" y2="13.66663" fill="none" stroke="#6c718c" stroke-width="2"/><polygon points="567.823 17.734 583 13.667 567.823 9.599 567.823 17.734" fill="#6c718c"/><line x1="251" y1="57.66663" x2="276.59686" y2="57.66663" fill="none" stroke="#6c718c" stroke-width="2"/><polygon points="273.823 61.734 289 57.667 273.823 53.599 273.823 61.734" fill="#6c718c"/><line x1="251" y1="101.66663" x2="276.59686" y2="101.66663" fill="none" stroke="#6c718c" stroke-width="2"/><polygon points="273.823 105.734 289 101.667 273.823 97.599 273.823 105.734" fill="#6c718c"/><line x1="251" y1="145.66663" x2="276.59686" y2="145.66663" fill="none" stroke="#6c718c" stroke-width="2"/><polygon points="273.823 149.734 289 145.667 273.823 141.599 273.823 149.734" fill="#6c718c"/><line x1="349" y1="101.66663" x2="374.59692" y2="101.66663" fill="none" stroke="#6c718c" stroke-width="2"/><polygon points="371.823 105.734 387 101.667 371.823 97.599 371.823 105.734" fill="#6c718c"/><line x1="349" y1="145.66663" x2="374.59692" y2="145.66663" fill="none" stroke="#6c718c" stroke-width="2"/><polygon points="371.823 149.734 387 145.667 371.823 141.599 371.823 149.734" fill="#6c718c"/><line x1="447" y1="101.66663" x2="472.59692" y2="101.66663" fill="none" stroke="#4d4d4d" stroke-width="2"/><polygon points="469.823 105.734 485 101.667 469.823 97.599 469.823 105.734" fill="#4d4d4d"/><line x1="447" y1="145.66663" x2="472.59692" y2="145.66663" fill="none" stroke="#6c718c" stroke-width="2"/><polygon points="469.823 149.734 485 145.667 469.823 141.599 469.823 149.734" fill="#6c718c"/><line x1="545" y1="101.66663" x2="570.59692" y2="101.66663" fill="none" stroke="#4d4d4d" stroke-width="2"/><polygon points="567.823 105.734 583 101.667 567.823 97.599 567.823 105.734" fill="#4d4d4d"/><line x1="545" y1="145.66663" x2="570.59692" y2="145.66663" fill="none" stroke="#6c718c" stroke-width="2"/><polygon points="567.823 149.734 583 145.667 567.823 141.599 567.823 149.734" fill="#6c718c"/><line x1="349" y1="57.66663" x2="374.59692" y2="57.66663" fill="none" stroke="#4d4d4d" stroke-width="2"/><polygon points="371.823 61.734 387 57.667 371.823 53.599 371.823 61.734" fill="#4d4d4d"/><line x1="447" y1="57.66663" x2="472.59692" y2="57.66663" fill="none" stroke="#4d4d4d" stroke-width="2"/><polygon points="469.823 61.734 485 57.667 469.823 53.599 469.823 61.734" fill="#4d4d4d"/><line x1="545" y1="57.66663" x2="570.59692" y2="57.66663" fill="none" stroke="#4d4d4d" stroke-width="2"/><polygon points="567.823 61.734 583 57.667 567.823 53.599 567.823 61.734" fill="#4d4d4d"/><path d="M3.57031,10.69434V9.5166l1.25391-.09472V7.959c0-1.88086.85449-3.05859,2.69726-3.05859a4.185,4.185,0,0,1,1.53907.30371l-.3418,1.19727a2.59243,2.59243,0,0,0-1.04492-.22852c-.874,0-1.292.6084-1.292,1.78613v1.4629h1.957v1.27246h-1.957v7.96H4.82422v-7.96Z" fill="#ccc"/><path d="M9.82129,6.51465a1.009,1.009,0,0,1,1.082-1.00684,1.00934,1.00934,0,0,1,1.083,1.00684,1.01968,1.01968,0,0,1-1.083,1.00683A1.0194,1.0194,0,0,1,9.82129,6.51465Zm1.84277,2.90723V18.6543H10.10547V9.42188Z" fill="#ccc"/><path d="M15.06445,9.42188l1.748,5.24316c.26562.91211.56934,1.84277.85449,2.7168h.07617c.26563-.874.57032-1.80469.83594-2.7168l1.748-5.24316h1.53808L18.59766,18.6543H16.77441L13.4502,9.42188Z" fill="#ccc"/><path d="M22.89258,14.05664c0-3.02051,2.0332-4.86328,4.1416-4.86328,2.35547,0,3.68555,1.69141,3.68555,4.332a6.0175,6.0175,0,0,1-.05762.89258H24.43164a3.06237,3.06237,0,0,0,3.07715,3.21094,4.16755,4.16755,0,0,0,2.29883-.72266l.55078,1.02637a5.49776,5.49776,0,0,1-3.03906.94922C24.84961,18.88184,22.89258,17.07715,22.89258,14.05664Zm4.17969-3.62793c-1.292,0-2.46973,1.04492-2.66016,2.86817h4.93945C29.35156,11.43555,28.51562,10.42871,27.07227,10.42871Z" fill="#ccc"/><path d="M36.11621,14.05664c0-3.02051,2.0332-4.86328,4.1416-4.86328,2.35547,0,3.68555,1.69141,3.68555,4.332a6.0175,6.0175,0,0,1-.05762.89258H37.65527a3.06237,3.06237,0,0,0,3.07715,3.21094,4.1675,4.1675,0,0,0,2.29883-.72266l.55078,1.02637a5.49774,5.49774,0,0,1-3.03906.94922C38.07324,18.88184,36.11621,17.07715,36.11621,14.05664Zm4.17969-3.62793c-1.292,0-2.46973,1.04492-2.66016,2.86817H42.5752C42.5752,11.43555,41.73926,10.42871,40.2959,10.42871Z" fill="#ccc"/><path d="M45.55957,14.05664c0-3.001,1.89941-4.86328,4.00781-4.86328a3.80457,3.80457,0,0,1,2.584,1.06445L52.0752,8.68066V5.12793h1.57714V18.6543h-1.292l-.13281-1.083h-.05762a4.16371,4.16371,0,0,1-2.792,1.31055C47.05957,18.88184,45.55957,17.13477,45.55957,14.05664Zm6.51563,2.24219v-4.8252a3.21236,3.21236,0,0,0-2.24219-.96875c-1.48145,0-2.65918,1.42481-2.65918,3.53321,0,2.20312.93066,3.5332,2.5459,3.5332A3.12555,3.12555,0,0,0,52.0752,16.29883Z" fill="#ccc"/><path d="M56.48438,6.51465a1.08536,1.08536,0,0,1,2.165,0,1.08536,1.08536,0,0,1-2.165,0Zm1.84277,2.90723V18.6543h-1.5586V9.42188Z" fill="#ccc"/><path d="M61.709,15.80469V10.69434H60.34082V9.5166l1.44434-.09472.18945-2.584h1.31055v2.584h2.48925v1.27246H63.28516v5.1289c0,1.14063.36132,1.78614,1.4248,1.78614a3.3435,3.3435,0,0,0,1.04492-.24708L66.05957,18.54a5.71152,5.71152,0,0,1-1.71.3418C62.374,18.88184,61.709,17.62891,61.709,15.80469Z" fill="#ccc"/><path d="M67.58008,6.51465a1.08536,1.08536,0,0,1,2.165,0,1.08537,1.08537,0,0,1-2.165,0Zm1.84277,2.90723V18.6543H67.86426V9.42188Z" fill="#ccc"/><path d="M73.83008,9.42188l.13281,1.3291h.05762a4.35426,4.35426,0,0,1,3.09668-1.55762c1.9375,0,2.81152,1.25391,2.81152,3.60937V18.6543H78.37109V13.01172c0-1.72852-.53222-2.46875-1.748-2.46875-.9502,0-1.59571.49316-2.52637,1.4248V18.6543H72.53809V9.42188Z" fill="#ccc"/><path d="M82.22852,20.4209a2.6667,2.6667,0,0,1,1.34863-2.08985v-.07617a1.70212,1.70212,0,0,1-.81738-1.5,2.16372,2.16372,0,0,1,1.00683-1.71v-.07617a3.25924,3.25924,0,0,1,2.28028-5.77539,3.688,3.688,0,0,1,1.31054.22852h3.21094v1.19628H88.668a2.67558,2.67558,0,0,1,.75976,1.90039,3.16738,3.16738,0,0,1-3.38085,3.21,3.23793,3.23793,0,0,1-1.38672-.32227,1.39661,1.39661,0,0,0-.58887,1.10156c0,.58887.37988,1.00684,1.63379,1.00684h1.78515c2.14649,0,3.2295.665,3.2295,2.20312,0,1.71-1.80469,3.19141-4.67285,3.19141C83.78613,22.90918,82.22852,22.0166,82.22852,20.4209Zm6.97168-.47461c0-.85547-.665-1.13965-1.86133-1.13965H85.74219a4.48268,4.48268,0,0,1-1.19629-.15234,1.944,1.944,0,0,0-.9502,1.55761c0,.98829,1.00684,1.61524,2.67871,1.61524C88.041,21.82715,89.2002,20.915,89.2002,19.94629Zm-1.19727-7.46582a1.96495,1.96495,0,1,0-3.91309,0,1.97034,1.97034,0,1,0,3.91309,0Z" fill="#ccc"/><path d="M95.28125,17.60938l.7793-1.04493A4.14749,4.14749,0,0,0,98.77637,17.666c1.21582,0,1.82422-.64551,1.82422-1.44336,0-.9502-1.10157-1.36817-2.1084-1.74805C97.18066,14,95.7373,13.37305,95.7373,11.81543c0-1.48145,1.17774-2.62207,3.17188-2.62207a4.61318,4.61318,0,0,1,2.86914,1.04492l-.74121.98828a3.42565,3.42565,0,0,0-2.1084-.81738c-1.15918,0-1.69043.627-1.69043,1.33008,0,.874,1.00684,1.19726,2.05176,1.5957,1.3291.49414,2.81152,1.04492,2.81152,2.793,0,1.501-1.19726,2.75391-3.38183,2.75391A5.5594,5.5594,0,0,1,95.28125,17.60938Z" fill="#ccc"/><path d="M104.1543,15.80469V10.69434h-1.36817V9.5166l1.44434-.09472.18945-2.584h1.31055v2.584h2.48926v1.27246h-2.48926v5.1289c0,1.14063.36133,1.78614,1.4248,1.78614a3.34356,3.34356,0,0,0,1.04493-.24708l.30468,1.17774a5.71152,5.71152,0,0,1-1.71.3418C104.81934,18.88184,104.1543,17.62891,104.1543,15.80469Z" fill="#ccc"/><path d="M109.36035,14.05664c0-3.02051,2.0332-4.86328,4.1416-4.86328,2.35547,0,3.68555,1.69141,3.68555,4.332a6.0175,6.0175,0,0,1-.05762.89258h-6.23047a3.06237,3.06237,0,0,0,3.07715,3.21094,4.1675,4.1675,0,0,0,2.29883-.72266l.55078,1.02637a5.49774,5.49774,0,0,1-3.03906.94922C111.31738,18.88184,109.36035,17.07715,109.36035,14.05664ZM113.54,10.42871c-1.292,0-2.46973,1.04492-2.66016,2.86817h4.93946C115.81934,11.43555,114.9834,10.42871,113.54,10.42871Z" fill="#ccc"/><path d="M120.75977,9.42188l.13281,1.06347h.05762a4.7758,4.7758,0,0,1,2.94433-1.292c2.375,0,3.64746,1.84277,3.64746,4.71191,0,3.13379-1.88086,4.97657-3.98926,4.97657a4.27626,4.27626,0,0,1-2.56445-1.06348l.03809,1.61523v3.11524h-1.5586V9.42188Zm5.167,4.48339c0-2.0332-.6836-3.40039-2.43164-3.40039a3.885,3.885,0,0,0-2.46875,1.25391v4.84375a3.64957,3.64957,0,0,0,2.25976.96875C124.80664,17.57129,125.92676,16.18457,125.92676,13.90527Z" fill="#ccc"/><path d="M128.9873,17.60938l.7793-1.04493a4.14751,4.14751,0,0,0,2.71582,1.10157c1.21582,0,1.82422-.64551,1.82422-1.44336,0-.9502-1.10156-1.36817-2.1084-1.74805-1.31152-.47461-2.75488-1.10156-2.75488-2.65918,0-1.48145,1.17773-2.62207,3.17187-2.62207a4.61323,4.61323,0,0,1,2.86915,1.04492l-.74122.98828a3.42565,3.42565,0,0,0-2.10839-.81738c-1.15918,0-1.69043.627-1.69043,1.33008,0,.874,1.00683,1.19726,2.05175,1.5957,1.32911.49414,2.81153,1.04492,2.81153,2.793,0,1.501-1.19727,2.75391-3.38184,2.75391A5.55943,5.55943,0,0,1,128.9873,17.60938Z" fill="#ccc"/><path d="M137.65039,10.84668a1.13338,1.13338,0,1,1,2.26074,0,1.13132,1.13132,0,1,1-2.26074,0Zm0,6.85742a1.13338,1.13338,0,1,1,2.26074,0,1.13132,1.13132,0,1,1-2.26074,0Z" fill="#ccc"/><path d="M4.4248,59.27246V53.42188H6.002v5.6416c0,1.72949.5127,2.46972,1.72852,2.46972.95019,0,1.61523-.47461,2.48828-1.55761V53.42188h1.55859V62.6543h-1.292l-.13281-1.44336h-.05762a3.90079,3.90079,0,0,1-3.03906,1.6709C5.29883,62.88184,4.4248,61.62891,4.4248,59.27246Z" fill="#ccc"/><path d="M16.18555,53.42188l.13281,1.3291H16.376a4.35426,4.35426,0,0,1,3.09668-1.55762c1.9375,0,2.81152,1.25391,2.81152,3.60937V62.6543H20.72656V57.01172c0-1.72852-.53222-2.46875-1.748-2.46875-.9502,0-1.59571.49316-2.52637,1.4248V62.6543h-1.5586V53.42188Z" fill="#ccc"/><path d="M24.62207,58.05664c0-3.001,1.89941-4.86328,4.00879-4.86328a3.80221,3.80221,0,0,1,2.583,1.06445l-.07617-1.57715V49.12793h1.57714V62.6543h-1.292l-.13281-1.083H31.2334a4.164,4.164,0,0,1-2.793,1.31055C26.12305,62.88184,24.62207,61.13477,24.62207,58.05664Zm6.51563,2.24219v-4.8252a3.21027,3.21027,0,0,0-2.24122-.96875c-1.48144,0-2.65918,1.42481-2.65918,3.53321,0,2.20312.93067,3.5332,2.54493,3.5332A3.124,3.124,0,0,0,31.1377,60.29883Z" fill="#ccc"/><path d="M35.14746,58.05664c0-3.09668,2.01367-4.86328,4.27442-4.86328s4.27441,1.7666,4.27441,4.86328c0,3.05859-2.01367,4.8252-4.27441,4.8252S35.14746,61.11523,35.14746,58.05664Zm6.93359,0c0-2.127-1.06347-3.57129-2.65917-3.57129-1.57715,0-2.65918,1.44434-2.65918,3.57129,0,2.10938,1.082,3.53418,2.65918,3.53418C41.01758,61.59082,42.08105,60.166,42.08105,58.05664Z" fill="#ccc"/><path d="M50.19531,59.80469V54.69434H48.82812V53.5166l1.44336-.09472.19043-2.584h1.31055v2.584h2.48828v1.27246H51.77246v5.1289c0,1.14063.36035,1.78614,1.42481,1.78614a3.3435,3.3435,0,0,0,1.04492-.24708L54.5459,62.54a5.69944,5.69944,0,0,1-1.71.3418C50.86035,62.88184,50.19531,61.62891,50.19531,59.80469Z" fill="#ccc"/><path d="M57.90918,49.12793v3.68555l-.05664,1.90039a4.41457,4.41457,0,0,1,3.07715-1.52051c1.9375,0,2.81152,1.25391,2.81152,3.60937V62.6543H62.18359V57.01172c0-1.72852-.53222-2.46875-1.748-2.46875-.94922,0-1.59571.49316-2.52637,1.4248V62.6543H56.35156V49.12793Z" fill="#ccc"/><path d="M67.97949,53.42188l.13281,1.67187H68.169A3.15873,3.15873,0,0,1,70.791,53.19336a2.29392,2.29392,0,0,1,.9873.19043L71.47461,54.751a2.588,2.588,0,0,0-.89258-.15137c-.7793,0-1.71.56934-2.33691,2.12793V62.6543H66.6875V53.42188Z" fill="#ccc"/><path d="M72.40625,58.05664c0-3.02051,2.0332-4.86328,4.1416-4.86328,2.35547,0,3.68555,1.69141,3.68555,4.332a6.0175,6.0175,0,0,1-.05762.89258H73.94531a3.06237,3.06237,0,0,0,3.07715,3.21094,4.16753,4.16753,0,0,0,2.29883-.72266l.55078,1.02637a5.49776,5.49776,0,0,1-3.03906.94922C74.36328,62.88184,72.40625,61.07715,72.40625,58.05664Zm4.17969-3.62793c-1.292,0-2.46973,1.04492-2.66016,2.86817h4.93945C78.86523,55.43555,78.0293,54.42871,76.58594,54.42871Z" fill="#ccc"/><path d="M81.83008,58.05664c0-3.02051,2.03222-4.86328,4.14062-4.86328,2.35645,0,3.68555,1.69141,3.68555,4.332a6.03035,6.03035,0,0,1-.05664.89258H83.36816a3.06314,3.06314,0,0,0,3.07813,3.21094,4.17,4.17,0,0,0,2.29883-.72266l.55078,1.02637a5.50112,5.50112,0,0,1-3.04.94922C83.78613,62.88184,81.83008,61.07715,81.83008,58.05664Zm4.17871-3.62793c-1.292,0-2.46973,1.04492-2.65918,2.86817h4.93945C88.28906,55.43555,87.45312,54.42871,86.00879,54.42871Z" fill="#ccc"/><path d="M94.71191,61.60938l.7793-1.04493A4.14751,4.14751,0,0,0,98.207,61.666c1.21582,0,1.82422-.64551,1.82422-1.44336,0-.9502-1.10156-1.36817-2.1084-1.748C96.61133,58,95.168,57.37305,95.168,55.81543c0-1.48145,1.17773-2.62207,3.17187-2.62207a4.61318,4.61318,0,0,1,2.86914,1.04492l-.74121.98828a3.42565,3.42565,0,0,0-2.10839-.81738c-1.15918,0-1.69043.627-1.69043,1.33008,0,.874,1.00683,1.19726,2.05175,1.5957,1.3291.49414,2.81153,1.04492,2.81153,2.793,0,1.501-1.19727,2.75391-3.38184,2.75391A5.55943,5.55943,0,0,1,94.71191,61.60938Z" fill="#ccc"/><path d="M103.585,59.80469V54.69434H102.2168V53.5166l1.44433-.09472.18946-2.584h1.31054v2.584h2.48926v1.27246h-2.48926v5.1289c0,1.14063.36133,1.78614,1.42481,1.78614a3.3435,3.3435,0,0,0,1.04492-.24708l.30469,1.17774a5.71159,5.71159,0,0,1-1.71.3418C104.25,62.88184,103.585,61.62891,103.585,59.80469Z" fill="#ccc"/><path d="M108.791,58.05664c0-3.02051,2.03222-4.86328,4.14062-4.86328,2.35645,0,3.68555,1.69141,3.68555,4.332a6.03171,6.03171,0,0,1-.05664.89258H110.3291a3.06313,3.06313,0,0,0,3.07813,3.21094,4.17,4.17,0,0,0,2.29882-.72266l.55079,1.02637a5.50117,5.50117,0,0,1-3.04.94922C110.74707,62.88184,108.791,61.07715,108.791,58.05664Zm4.17871-3.62793c-1.292,0-2.46973,1.04492-2.65918,2.86817H115.25C115.25,55.43555,114.41406,54.42871,112.96973,54.42871Z" fill="#ccc"/><path d="M120.19043,53.42188l.13281,1.06347h.05664a4.77821,4.77821,0,0,1,2.94434-1.292c2.375,0,3.64746,1.84277,3.64746,4.71191,0,3.13379-1.87988,4.97657-3.98926,4.97657a4.28092,4.28092,0,0,1-2.56445-1.06348l.03808,1.61523v3.11524h-1.55761V53.42188Zm5.167,4.48339c0-2.0332-.68359-3.40039-2.43164-3.40039a3.88706,3.88706,0,0,0-2.46973,1.25391v4.84375a3.6518,3.6518,0,0,0,2.26075.96875C124.23633,61.57129,125.35742,60.18457,125.35742,57.90527Z" fill="#ccc"/><path d="M128.417,61.60938l.7793-1.04493a4.15,4.15,0,0,0,2.7168,1.10157c1.21582,0,1.82324-.64551,1.82324-1.44336,0-.9502-1.10156-1.36817-2.1084-1.748-1.31055-.47461-2.75488-1.10156-2.75488-2.65918,0-1.48145,1.17773-2.62207,3.17285-2.62207a4.60811,4.60811,0,0,1,2.86816,1.04492l-.74023.98828a3.42611,3.42611,0,0,0-2.10938-.81738c-1.1582,0-1.69043.627-1.69043,1.33008,0,.874,1.00684,1.19726,2.05176,1.5957,1.33008.49414,2.81152,1.04492,2.81152,2.793,0,1.501-1.19628,2.75391-3.38183,2.75391A5.55943,5.55943,0,0,1,128.417,61.60938Z" fill="#ccc"/><path d="M137.08105,54.84668a1.13338,1.13338,0,1,1,2.26075,0,1.13133,1.13133,0,1,1-2.26075,0Zm0,6.85742a1.13338,1.13338,0,1,1,2.26075,0,1.13133,1.13133,0,1,1-2.26075,0Z" fill="#ccc"/><path d="M5.84961,97.42188l.13281,1.67187H6.04a3.15741,3.15741,0,0,1,2.62109-1.90039,2.29546,2.29546,0,0,1,.98828.19043L9.3457,98.751a2.59777,2.59777,0,0,0-.89355-.15137c-.77832,0-1.709.56934-2.33594,2.12793v5.92676H4.55762V97.42188Z" fill="#ccc"/><path d="M10.27734,102.05664c0-3.02051,2.03223-4.86328,4.14063-4.86328,2.35644,0,3.68555,1.69141,3.68555,4.332a6.03171,6.03171,0,0,1-.05664.89258H11.81543a3.06313,3.06313,0,0,0,3.07812,3.21094,4.17,4.17,0,0,0,2.29883-.72266l.55078,1.02637a5.50112,5.50112,0,0,1-3.04.94922C12.2334,106.88184,10.27734,105.07715,10.27734,102.05664Zm4.17871-3.62793c-1.292,0-2.46972,1.04492-2.65917,2.86817h4.93945C16.73633,99.43555,15.90039,98.42871,14.45605,98.42871Z" fill="#ccc"/><path d="M19.71973,102.05664c0-3.001,1.89941-4.86328,4.00879-4.86328a3.80218,3.80218,0,0,1,2.583,1.06445l-.07617-1.57715V93.12793H27.8125V106.6543h-1.292l-.13281-1.083h-.05665a4.164,4.164,0,0,1-2.793,1.31055C21.2207,106.88184,19.71973,105.13477,19.71973,102.05664Zm6.51562,2.24219v-4.8252a3.21025,3.21025,0,0,0-2.24121-.96875c-1.48144,0-2.65918,1.42481-2.65918,3.53321,0,2.20312.93066,3.5332,2.54492,3.5332A3.124,3.124,0,0,0,26.23535,104.29883Z" fill="#ccc"/><path d="M30.24609,102.05664c0-3.09668,2.01368-4.86328,4.27442-4.86328,2.25976,0,4.27344,1.7666,4.27344,4.86328,0,3.05859-2.01368,4.8252-4.27344,4.8252C32.25977,106.88184,30.24609,105.11523,30.24609,102.05664Zm6.9336,0c0-2.127-1.06348-3.57129-2.65918-3.57129-1.57715,0-2.66016,1.44434-2.66016,3.57129,0,2.10938,1.083,3.53418,2.66016,3.53418C36.11621,105.59082,37.17969,104.166,37.17969,102.05664Z" fill="#ccc"/><path d="M44.34375,102.05664c0-3.09668,2.01367-4.86328,4.27441-4.86328,2.25977,0,4.27344,1.7666,4.27344,4.86328,0,3.05859-2.01367,4.8252-4.27344,4.8252C46.35742,106.88184,44.34375,105.11523,44.34375,102.05664Zm6.93359,0c0-2.127-1.06347-3.57129-2.65918-3.57129-1.57714,0-2.66015,1.44434-2.66015,3.57129,0,2.10938,1.083,3.53418,2.66015,3.53418C50.21387,105.59082,51.27734,104.166,51.27734,102.05664Z" fill="#ccc"/><path d="M56.61719,97.42188,56.75,98.751h.05664a4.35608,4.35608,0,0,1,3.09668-1.55762c1.9375,0,2.81152,1.25391,2.81152,3.60937v5.85157H61.15723v-5.64258c0-1.72852-.53223-2.46875-1.748-2.46875-.94922,0-1.5957.49316-2.52637,1.4248v6.68653H55.3252V97.42188Z" fill="#ccc"/><path d="M65.03418,102.05664c0-3.02051,2.0332-4.86328,4.1416-4.86328,2.35547,0,3.68555,1.69141,3.68555,4.332a6.0175,6.0175,0,0,1-.05762.89258H66.57324a3.06237,3.06237,0,0,0,3.07715,3.21094,4.16755,4.16755,0,0,0,2.29883-.72266L72.5,105.93262a5.49776,5.49776,0,0,1-3.03906.94922C66.99121,106.88184,65.03418,105.07715,65.03418,102.05664Zm4.17969-3.62793c-1.292,0-2.46973,1.04492-2.66016,2.86817h4.93945C71.49316,99.43555,70.65723,98.42871,69.21387,98.42871Z" fill="#ccc"/><path d="M77.916,105.60938l.77929-1.04493a4.14751,4.14751,0,0,0,2.71582,1.10157c1.21582,0,1.82422-.64551,1.82422-1.44336,0-.9502-1.10156-1.36817-2.1084-1.74805-1.31152-.47461-2.75488-1.10156-2.75488-2.65918,0-1.48145,1.17773-2.62207,3.17188-2.62207a4.61322,4.61322,0,0,1,2.86914,1.04492l-.74121.98828a3.4257,3.4257,0,0,0-2.1084-.81738c-1.15918,0-1.69043.62695-1.69043,1.33008,0,.874,1.00683,1.19726,2.05175,1.5957,1.32911.49414,2.81153,1.04492,2.81153,2.793,0,1.501-1.19727,2.75391-3.38184,2.75391A5.5594,5.5594,0,0,1,77.916,105.60938Z" fill="#ccc"/><path d="M86.78906,103.80469V98.69434H85.4209V97.5166l1.44433-.09472.18946-2.584h1.31054v2.584h2.48926v1.27246H88.36523v5.1289c0,1.14063.36133,1.78614,1.42481,1.78614a3.3435,3.3435,0,0,0,1.04492-.24708l.30469,1.17774a5.71159,5.71159,0,0,1-1.71.3418C87.4541,106.88184,86.78906,105.62891,86.78906,103.80469Z" fill="#ccc"/><path d="M91.99512,102.05664c0-3.02051,2.0332-4.86328,4.1416-4.86328,2.35547,0,3.68555,1.69141,3.68555,4.332a6.01886,6.01886,0,0,1-.05762.89258H93.53418a3.06237,3.06237,0,0,0,3.07715,3.21094,4.16755,4.16755,0,0,0,2.29883-.72266l.55078,1.02637a5.49776,5.49776,0,0,1-3.03906.94922C93.95215,106.88184,91.99512,105.07715,91.99512,102.05664Zm4.17968-3.62793c-1.292,0-2.46972,1.04492-2.66015,2.86817H98.4541C98.4541,99.43555,97.61816,98.42871,96.1748,98.42871Z" fill="#ccc"/><path d="M103.39453,97.42188l.13281,1.06347h.05664a4.77821,4.77821,0,0,1,2.94434-1.292c2.375,0,3.64746,1.84277,3.64746,4.71191,0,3.13379-1.87988,4.97657-3.98926,4.97657a4.28092,4.28092,0,0,1-2.56445-1.06348l.03809,1.61523v3.11524h-1.55762V97.42188Zm5.167,4.48339c0-2.0332-.68359-3.40039-2.43164-3.40039a3.88706,3.88706,0,0,0-2.46972,1.25391v4.84375a3.65176,3.65176,0,0,0,2.26074.96875C107.44043,105.57129,108.56152,104.18457,108.56152,101.90527Z" fill="#ccc"/><path d="M112.32422,98.84668a1.13338,1.13338,0,1,1,2.26074,0,1.13132,1.13132,0,1,1-2.26074,0Zm0,6.85742a1.13338,1.13338,0,1,1,2.26074,0,1.13132,1.13132,0,1,1-2.26074,0Z" fill="#ccc"/><path d="M4.82422,147.80469v-5.11035H3.45605V141.5166l1.44434-.09472.18945-2.584H6.40039v2.584H8.88965v1.27246H6.40039v5.1289c0,1.14063.36133,1.78614,1.42481,1.78614a3.3435,3.3435,0,0,0,1.04492-.24708L9.1748,150.54a5.71152,5.71152,0,0,1-1.71.3418C5.48926,150.88184,4.82422,149.62891,4.82422,147.80469Z" fill="#ccc"/><path d="M11.47363,141.42188l1.36817,5.33789c.209.874.37988,1.71.55078,2.56445h.07617c.209-.85449.39844-1.71.627-2.56445l1.42481-5.33789H17.04l1.44336,5.33789c.22851.874.4375,1.71.64648,2.56445h.07617c.209-.85449.37989-1.69043.56934-2.56445l1.34863-5.33789h1.48243l-2.46973,9.23242H18.23633l-1.3291-4.958c-.22852-.874-.39942-1.72852-.627-2.66016H16.2041c-.209.93164-.39941,1.80469-.64551,2.67871l-1.292,4.93946H12.44238l-2.56445-9.23242Z" fill="#ccc"/><path d="M23.8623,146.05664c0-3.09668,2.01368-4.86328,4.27442-4.86328,2.25976,0,4.27344,1.7666,4.27344,4.86328,0,3.05859-2.01368,4.8252-4.27344,4.8252C25.876,150.88184,23.8623,149.11523,23.8623,146.05664Zm6.9336,0c0-2.12695-1.06348-3.57129-2.65918-3.57129-1.57715,0-2.66016,1.44434-2.66016,3.57129,0,2.10938,1.083,3.53418,2.66016,3.53418C29.73242,149.59082,30.7959,148.166,30.7959,146.05664Z" fill="#ccc"/><path d="M39.93555,141.42188l.13281,1.3291H40.125a4.35608,4.35608,0,0,1,3.09668-1.55762c1.9375,0,2.81152,1.25391,2.81152,3.60937v5.85157H44.47559v-5.64258c0-1.72852-.53223-2.46875-1.748-2.46875-.94922,0-1.5957.49316-2.52637,1.4248v6.68653H38.64355v-9.23242Z" fill="#ccc"/><path d="M48.35254,146.05664c0-3.02051,2.0332-4.86328,4.1416-4.86328,2.35547,0,3.68555,1.69141,3.68555,4.332a6.0175,6.0175,0,0,1-.05762.89258H49.8916a3.06237,3.06237,0,0,0,3.07715,3.21094,4.16755,4.16755,0,0,0,2.29883-.72266l.55078,1.02637a5.49776,5.49776,0,0,1-3.03906.94922C50.30957,150.88184,48.35254,149.07715,48.35254,146.05664Zm4.17969-3.62793c-1.292,0-2.46973,1.04492-2.66016,2.86817h4.93945C54.81152,143.43555,53.97559,142.42871,52.53223,142.42871Z" fill="#ccc"/><path d="M59.04883,141.42188l1.36816,5.33789c.209.874.37989,1.71.55078,2.56445H61.044c.209-.85449.39843-1.71.627-2.56445l1.4248-5.33789h1.51953l1.44336,5.33789c.22852.874.4375,1.71.64649,2.56445h.07617c.209-.85449.37988-1.69043.56934-2.56445l1.34863-5.33789h1.48242l-2.46973,9.23242H65.81152l-1.3291-4.958c-.22851-.874-.39941-1.72852-.627-2.66016H63.7793c-.209.93164-.39942,1.80469-.64551,2.67871l-1.292,4.93946H60.01758l-2.56446-9.23242Z" fill="#ccc"/><path d="M75.31348,146.05664c0-3.02051,2.03222-4.86328,4.14062-4.86328,2.35645,0,3.68555,1.69141,3.68555,4.332a6.03171,6.03171,0,0,1-.05664.89258H76.85156a3.06314,3.06314,0,0,0,3.07813,3.21094,4.17,4.17,0,0,0,2.29883-.72266l.55078,1.02637a5.50115,5.50115,0,0,1-3.04.94922C77.26953,150.88184,75.31348,149.07715,75.31348,146.05664Zm4.17871-3.62793c-1.292,0-2.46973,1.04492-2.65918,2.86817h4.93945C81.77246,143.43555,80.93652,142.42871,79.49219,142.42871Z" fill="#ccc"/><path d="M84.75586,146.05664c0-3.001,1.89941-4.86328,4.00781-4.86328a3.80459,3.80459,0,0,1,2.584,1.06445l-.07618-1.57715v-3.55273h1.57715V150.6543h-1.292l-.13281-1.083h-.05762a4.16371,4.16371,0,0,1-2.792,1.31055C86.25586,150.88184,84.75586,149.13477,84.75586,146.05664Zm6.51562,2.24219v-4.8252a3.21232,3.21232,0,0,0-2.24218-.96875c-1.48145,0-2.65918,1.42481-2.65918,3.53321,0,2.20312.93066,3.5332,2.5459,3.5332A3.12552,3.12552,0,0,0,91.27148,148.29883Z" fill="#ccc"/><path d="M95.68066,138.51465a1.08536,1.08536,0,0,1,2.165,0,1.08537,1.08537,0,0,1-2.165,0Zm1.84278,2.90723v9.23242h-1.5586v-9.23242Z" fill="#ccc"/><path d="M100.90527,147.80469v-5.11035H99.53711V141.5166l1.44434-.09472.18945-2.584h1.31055v2.584h2.48925v1.27246h-2.48925v5.1289c0,1.14063.36132,1.78614,1.4248,1.78614a3.3435,3.3435,0,0,0,1.04492-.24708l.30469,1.17774a5.71159,5.71159,0,0,1-1.71.3418C101.57031,150.88184,100.90527,149.62891,100.90527,147.80469Z" fill="#ccc"/><path d="M106.77637,138.51465a1.08536,1.08536,0,0,1,2.165,0,1.08537,1.08537,0,0,1-2.165,0Zm1.84277,2.90723v9.23242h-1.55859v-9.23242Z" fill="#ccc"/><path d="M113.02637,141.42188l.13281,1.3291h.05762a4.35426,4.35426,0,0,1,3.09668-1.55762c1.9375,0,2.81152,1.25391,2.81152,3.60937v5.85157h-1.55762v-5.64258c0-1.72852-.53222-2.46875-1.748-2.46875-.9502,0-1.59571.49316-2.52637,1.4248v6.68653h-1.55859v-9.23242Z" fill="#ccc"/><path d="M121.4248,152.4209a2.66672,2.66672,0,0,1,1.34864-2.08985v-.07617a1.70143,1.70143,0,0,1-.81641-1.5,2.16372,2.16372,0,0,1,1.00684-1.71v-.07617a3.25871,3.25871,0,0,1,2.27929-5.77539,3.688,3.688,0,0,1,1.31055.22852h3.21094v1.19628h-1.89942a2.67967,2.67967,0,0,1,.75977,1.90039,3.1682,3.1682,0,0,1-3.38184,3.21,3.23792,3.23792,0,0,1-1.38671-.32227,1.39661,1.39661,0,0,0-.58887,1.10156c0,.58887.37988,1.00684,1.63379,1.00684h1.78613c2.14648,0,3.22949.665,3.22949,2.20312,0,1.71-1.80469,3.19141-4.67383,3.19141C122.98242,154.90918,121.4248,154.0166,121.4248,152.4209Zm6.97168-.47461c0-.85547-.66406-1.13965-1.86132-1.13965h-1.59571a4.48954,4.48954,0,0,1-1.19726-.15234,1.9451,1.9451,0,0,0-.94922,1.55761c0,.98829,1.00683,1.61524,2.67871,1.61524C127.23828,153.82715,128.39648,152.915,128.39648,151.94629Zm-1.19628-7.46582a1.96495,1.96495,0,1,0-3.91309,0,1.97034,1.97034,0,1,0,3.91309,0Z" fill="#ccc"/><path d="M134.47754,149.60938l.7793-1.04493a4.15,4.15,0,0,0,2.71679,1.10157c1.21582,0,1.82325-.64551,1.82325-1.44336,0-.9502-1.10157-1.36817-2.1084-1.748-1.31055-.47461-2.75489-1.10156-2.75489-2.65918,0-1.48145,1.17774-2.62207,3.17286-2.62207a4.60814,4.60814,0,0,1,2.86816,1.04492l-.74023.98828a3.42616,3.42616,0,0,0-2.10938-.81738c-1.1582,0-1.69043.627-1.69043,1.33008,0,.874,1.00684,1.19726,2.05176,1.5957,1.33008.49414,2.81152,1.04492,2.81152,2.793,0,1.501-1.19629,2.75391-3.38183,2.75391A5.5594,5.5594,0,0,1,134.47754,149.60938Z" fill="#ccc"/><path d="M143.35059,147.80469v-5.11035H141.9834V141.5166l1.44336-.09472.19043-2.584h1.31054v2.584H147.416v1.27246h-2.48829v5.1289c0,1.14063.36036,1.78614,1.42481,1.78614a3.3435,3.3435,0,0,0,1.04492-.24708l.30371,1.17774a5.69938,5.69938,0,0,1-1.71.3418C144.01562,150.88184,143.35059,149.62891,143.35059,147.80469Z" fill="#ccc"/><path d="M148.55664,146.05664c0-3.02051,2.0332-4.86328,4.1416-4.86328,2.35547,0,3.68555,1.69141,3.68555,4.332a6.0175,6.0175,0,0,1-.05762.89258H150.0957a3.06237,3.06237,0,0,0,3.07715,3.21094,4.17,4.17,0,0,0,2.29883-.72266l.55078,1.02637a5.50112,5.50112,0,0,1-3.04.94922C150.51367,150.88184,148.55664,149.07715,148.55664,146.05664Zm4.17969-3.62793c-1.292,0-2.46973,1.04492-2.66016,2.86817h4.93945C155.01562,143.43555,154.17969,142.42871,152.73633,142.42871Z" fill="#ccc"/><path d="M159.95605,141.42188l.13282,1.06347h.05761a4.77352,4.77352,0,0,1,2.94434-1.292c2.374,0,3.64746,1.84277,3.64746,4.71191,0,3.13379-1.88086,4.97657-3.98926,4.97657a4.28109,4.28109,0,0,1-2.56543-1.06348l.03809,1.61523v3.11524h-1.55762v-13.127Zm5.167,4.48339c0-2.0332-.6836-3.40039-2.43164-3.40039a3.88924,3.88924,0,0,0-2.46973,1.25391v4.84375a3.65388,3.65388,0,0,0,2.26074.96875C164.002,149.57129,165.12305,148.18457,165.12305,145.90527Z" fill="#ccc"/><path d="M168.18359,149.60938l.77832-1.04493a4.15,4.15,0,0,0,2.7168,1.10157c1.21582,0,1.82422-.64551,1.82422-1.44336,0-.9502-1.10254-1.36817-2.10938-1.748-1.31054-.47461-2.7539-1.10156-2.7539-2.65918,0-1.48145,1.17773-2.62207,3.17187-2.62207a4.61318,4.61318,0,0,1,2.86914,1.04492l-.74121.98828a3.42565,3.42565,0,0,0-2.1084-.81738c-1.15917,0-1.6914.627-1.6914,1.33008,0,.874,1.00683,1.19726,2.05176,1.5957,1.33007.49414,2.81152,1.04492,2.81152,2.793,0,1.501-1.19629,2.75391-3.38086,2.75391A5.55723,5.55723,0,0,1,168.18359,149.60938Z" fill="#ccc"/><path d="M176.84668,142.84668a1.13338,1.13338,0,1,1,2.26074,0,1.13132,1.13132,0,1,1-2.26074,0Zm0,6.85742a1.13338,1.13338,0,1,1,2.26074,0,1.13132,1.13132,0,1,1-2.26074,0Z" fill="#ccc"/><polyline points="613 23.667 613 31.667 319 31.667 319 40.306" fill="none" stroke="#ff953d" stroke-width="2"/><polygon points="327.504 39.166 310.496 39.166 318.999 47.667 327.504 39.166" fill="#ff953d"/><polyline points="319 67.667 319 75.667 417 75.667 417 84.306" fill="none" stroke="#ff953d" stroke-width="2"/><polygon points="425.504 83.166 408.496 83.166 416.999 91.667 425.504 83.166" fill="#ff953d"/><rect x="387.00011" y="47.66667" width="60" height="20" rx="4" ry="4" fill="#333"/><rect x="485" y="47.66667" width="60" height="20" rx="4" ry="4" fill="#333"/><rect x="485" y="91.66667" width="60" height="20" rx="4" ry="4" fill="#333"/><rect x="583" y="91.66667" width="60" height="20" rx="4" ry="4" fill="#333"/><rect x="583" y="47.66667" width="60" height="20" rx="4" ry="4" fill="#333"/><rect x="191" y="3.66667" width="60" height="20" rx="4" ry="4" fill="#8187a3"/><rect x="191" y="47.66667" width="60" height="20" rx="4" ry="4" fill="#8187a3"/><rect x="289.00011" y="91.66667" width="60" height="20" rx="4" ry="4" fill="#8187a3"/><rect x="191.00011" y="91.66667" width="60" height="20" rx="4" ry="4" fill="#8187a3"/><rect x="191.00011" y="135.66667" width="60" height="20" rx="4" ry="4" fill="#8187a3"/><rect x="289.00011" y="135.66667" width="60" height="20" rx="4" ry="4" fill="#8187a3"/><rect x="387.00011" y="135.66667" width="60" height="20" rx="4" ry="4" fill="#8187a3"/><rect x="485.00011" y="135.66667" width="60" height="20" rx="4" ry="4" fill="#8187a3"/><rect x="289.00011" y="3.66667" width="60" height="20" rx="4" ry="4" fill="#8187a3"/><rect x="387.00011" y="3.66667" width="60" height="20" rx="4" ry="4" fill="#8187a3"/><rect x="485" y="3.66667" width="60" height="20" rx="4" ry="4" fill="#8187a3"/><rect x="289.00011" y="47.66667" width="60" height="20" rx="4" ry="4" fill="#ff953d"/><rect x="387.00011" y="91.66667" width="60" height="20" rx="4" ry="4" fill="#ff953d"/><rect x="582.99906" y="135.66667" width="60" height="20" rx="4" ry="4" fill="#ff953d"/><rect x="583" y="3.66667" width="60" height="20" rx="4" ry="4" fill="#ff953d"/><path d="M201.23828,14.78223c0-2.71973,1.88672-4.38477,3.8418-4.38477,2.26074,0,3.45019,1.63184,3.45019,3.96a4.5728,4.5728,0,0,1-.085.95215H203.1416a2.38952,2.38952,0,0,0,2.46485,2.3291,3.493,3.493,0,0,0,1.93847-.6123L208.207,18.25a5.263,5.263,0,0,1-2.85547.90137A4.02476,4.02476,0,0,1,201.23828,14.78223Zm3.89258-2.87207A2.09536,2.09536,0,0,0,203.125,13.9834h3.70605C206.83105,12.69238,206.26953,11.91016,205.13086,11.91016Z" fill="#1a1a1a"/><path d="M209.89062,14.78223c0-2.71973,1.7168-4.38477,3.53614-4.38477a3.07889,3.07889,0,0,1,2.19238.918l-.06836-1.34375V6.94629h1.95508v12.001H215.8916l-.13672-.90137h-.06738a3.47808,3.47808,0,0,1-2.36328,1.10547C211.2334,19.15137,209.89062,17.53613,209.89062,14.78223Zm5.66016,1.81933V12.709a2.48764,2.48764,0,0,0-1.69922-.69726c-1.07129,0-1.9375,1.00293-1.9375,2.7539,0,1.80176.67969,2.77051,1.88672,2.77051A2.25257,2.25257,0,0,0,215.55078,16.60156Z" fill="#1a1a1a"/><path d="M219.76758,8.03418a1.2117,1.2117,0,1,1,1.207,1.10547A1.12226,1.12226,0,0,1,219.76758,8.03418Zm2.17578,2.56738v8.34571h-1.95508V10.60156Z" fill="#1a1a1a"/><path d="M224.73145,16.126V12.14746H223.542V10.68652l1.292-.085.23731-2.27832h1.63183v2.27832h2.125v1.5459h-2.125V16.126c0,.98535.374,1.46093,1.17286,1.46093a2.4042,2.4042,0,0,0,.86718-.18652l.33985,1.44531a5.34447,5.34447,0,0,1-1.69922.30567C225.44531,19.15137,224.73145,17.92773,224.73145,16.126Z" fill="#1a1a1a"/><path d="M236.41016,17.34961V10.24414H234.4209V9.02051a7.28019,7.28019,0,0,0,2.499-.88379h1.46192v9.21289h2.125v1.59766h-6.51075V17.34961Z" fill="#1a1a1a"/><path d="M201.23828,58.78223c0-2.71973,1.88672-4.38477,3.8418-4.38477,2.26074,0,3.45019,1.63184,3.45019,3.96a4.5728,4.5728,0,0,1-.085.95215H203.1416a2.38952,2.38952,0,0,0,2.46485,2.3291,3.493,3.493,0,0,0,1.93847-.6123L208.207,62.25a5.263,5.263,0,0,1-2.85547.90137A4.02476,4.02476,0,0,1,201.23828,58.78223Zm3.89258-2.87207A2.09536,2.09536,0,0,0,203.125,57.9834h3.70605C206.83105,56.69238,206.26953,55.91016,205.13086,55.91016Z" fill="#1a1a1a"/><path d="M209.89062,58.78223c0-2.71973,1.7168-4.38477,3.53614-4.38477a3.07889,3.07889,0,0,1,2.19238.918l-.06836-1.34375V50.94629h1.95508v12.001H215.8916l-.13672-.90137h-.06738a3.47808,3.47808,0,0,1-2.36328,1.10547C211.2334,63.15137,209.89062,61.53613,209.89062,58.78223Zm5.66016,1.81933V56.709a2.48764,2.48764,0,0,0-1.69922-.69726c-1.07129,0-1.9375,1.00293-1.9375,2.7539,0,1.80176.67969,2.77051,1.88672,2.77051A2.25257,2.25257,0,0,0,215.55078,60.60156Z" fill="#1a1a1a"/><path d="M219.76758,52.03418a1.2117,1.2117,0,1,1,1.207,1.10547A1.12226,1.12226,0,0,1,219.76758,52.03418Zm2.17578,2.56738v8.34571h-1.95508V54.60156Z" fill="#1a1a1a"/><path d="M224.73145,60.126V56.14746H223.542V54.68652l1.292-.085.23731-2.27832h1.63183v2.27832h2.125v1.5459h-2.125V60.126c0,.98535.374,1.46093,1.17286,1.46093a2.4042,2.4042,0,0,0,.86718-.18652l.33985,1.44531a5.34447,5.34447,0,0,1-1.69922.30567C225.44531,63.15137,224.73145,61.92773,224.73145,60.126Z" fill="#1a1a1a"/><path d="M236.41016,61.34961V54.24414H234.4209V53.02051a7.28019,7.28019,0,0,0,2.499-.88379h1.46192v9.21289h2.125v1.59766h-6.51075V61.34961Z" fill="#1a1a1a"/><path d="M299.23828,58.78223c0-2.71973,1.88672-4.38477,3.8418-4.38477,2.26074,0,3.45019,1.63184,3.45019,3.96a4.5728,4.5728,0,0,1-.085.95215H301.1416a2.38952,2.38952,0,0,0,2.46485,2.3291,3.493,3.493,0,0,0,1.93847-.6123L306.207,62.25a5.263,5.263,0,0,1-2.85547.90137A4.02476,4.02476,0,0,1,299.23828,58.78223Zm3.89258-2.87207A2.09536,2.09536,0,0,0,301.125,57.9834h3.70605C304.83105,56.69238,304.26953,55.91016,303.13086,55.91016Z" fill="#1a1a1a"/><path d="M307.89062,58.78223c0-2.71973,1.7168-4.38477,3.53516-4.38477a3.08116,3.08116,0,0,1,2.19336.918l-.06836-1.34375V50.94629h1.95508v12.001h-1.61524l-.13574-.90137h-.06738a3.47808,3.47808,0,0,1-2.36328,1.10547C309.2334,63.15137,307.89062,61.53613,307.89062,58.78223Zm5.66016,1.81933V56.709a2.48933,2.48933,0,0,0-1.69922-.69726c-1.07129,0-1.93847,1.00293-1.93847,2.7539,0,1.80176.68066,2.77051,1.88671,2.77051A2.25286,2.25286,0,0,0,313.55078,60.60156Z" fill="#1a1a1a"/><path d="M317.76758,52.03418a1.2117,1.2117,0,1,1,1.207,1.10547A1.1228,1.1228,0,0,1,317.76758,52.03418Zm2.17578,2.56738v8.34571h-1.9541V54.60156Z" fill="#1a1a1a"/><path d="M322.73145,60.126V56.14746H321.541V54.68652l1.292-.085.23828-2.27832h1.63183v2.27832h2.124v1.5459h-2.124V60.126c0,.98535.374,1.46093,1.17286,1.46093a2.39451,2.39451,0,0,0,.86621-.18652l.34082,1.44531a5.35092,5.35092,0,0,1-1.7002.30567C323.44531,63.15137,322.73145,61.92773,322.73145,60.126Z" fill="#1a1a1a"/><path d="M336.2793,55.34863a1.67632,1.67632,0,0,0-1.78418-1.86914,2.9874,2.9874,0,0,0-2.1084,1.207l-1.08789-1.08789a4.42465,4.42465,0,0,1,3.45117-1.666,3.16011,3.16011,0,0,1,3.417,3.31445c0,1.9209-1.78515,3.89258-3.92676,6.15332.56055-.05078,1.27442-.11914,1.80176-.11914h2.65137v1.666h-7.30957V61.80859C334.39258,58.90137,336.2793,56.99805,336.2793,55.34863Z" fill="#1a1a1a"/><path d="M495.23828,58.78223c0-2.71973,1.88672-4.38477,3.84082-4.38477,2.26074,0,3.45117,1.63184,3.45117,3.96a4.5728,4.5728,0,0,1-.085.95215H497.1416a2.38952,2.38952,0,0,0,2.46485,2.3291,3.48748,3.48748,0,0,0,1.9375-.6123L502.207,62.25a5.263,5.263,0,0,1-2.85547.90137A4.02476,4.02476,0,0,1,495.23828,58.78223Zm3.89258-2.87207A2.09536,2.09536,0,0,0,497.125,57.9834h3.70508C500.83008,56.69238,500.26953,55.91016,499.13086,55.91016Z" fill="gray"/><path d="M503.89062,58.78223c0-2.71973,1.7168-4.38477,3.53614-4.38477a3.07716,3.07716,0,0,1,2.19238.918l-.06738-1.34375V50.94629h1.9541v12.001H509.8916l-.13574-.90137h-.06836a3.47778,3.47778,0,0,1-2.3623,1.10547C505.23438,63.15137,503.89062,61.53613,503.89062,58.78223Zm5.66114,1.81933V56.709a2.48983,2.48983,0,0,0-1.7002-.69726c-1.07031,0-1.9375,1.00293-1.9375,2.7539,0,1.80176.67969,2.77051,1.88672,2.77051A2.2557,2.2557,0,0,0,509.55176,60.60156Z" fill="gray"/><path d="M513.76758,52.03418a1.2117,1.2117,0,1,1,1.207,1.10547A1.1228,1.1228,0,0,1,513.76758,52.03418Zm2.17578,2.56738v8.34571h-1.9541V54.60156Z" fill="gray"/><path d="M518.73145,60.126V56.14746H517.541V54.68652l1.292-.085.23828-2.27832h1.63183v2.27832h2.124v1.5459h-2.124V60.126c0,.98535.374,1.46093,1.17286,1.46093a2.39451,2.39451,0,0,0,.86621-.18652l.34082,1.44531a5.35092,5.35092,0,0,1-1.7002.30567C519.44531,63.15137,518.73145,61.92773,518.73145,60.126Z" fill="gray"/><path d="M527.044,60.15918V58.834l4.28417-6.69726h2.32813v6.50976h1.36035v1.5127h-1.36035v2.78809h-1.83594V60.15918Zm4.77636-3.96c0-.62891.05176-1.61524.08594-2.24414h-.06836c-.27246.56152-.57812,1.10449-.88379,1.68262l-1.97168,3.00878h2.83789Z" fill="gray"/><path d="M593.23828,58.78223c0-2.71973,1.88672-4.38477,3.84082-4.38477,2.26074,0,3.45117,1.63184,3.45117,3.96a4.5728,4.5728,0,0,1-.085.95215H595.1416a2.38952,2.38952,0,0,0,2.46485,2.3291,3.48748,3.48748,0,0,0,1.9375-.6123L600.207,62.25a5.263,5.263,0,0,1-2.85547.90137A4.02476,4.02476,0,0,1,593.23828,58.78223Zm3.89258-2.87207A2.09536,2.09536,0,0,0,595.125,57.9834h3.70508C598.83008,56.69238,598.26953,55.91016,597.13086,55.91016Z" fill="gray"/><path d="M601.89062,58.78223c0-2.71973,1.7168-4.38477,3.53614-4.38477a3.07716,3.07716,0,0,1,2.19238.918l-.06738-1.34375V50.94629h1.9541v12.001H607.8916l-.13574-.90137h-.06836a3.47778,3.47778,0,0,1-2.3623,1.10547C603.23438,63.15137,601.89062,61.53613,601.89062,58.78223Zm5.66114,1.81933V56.709a2.48983,2.48983,0,0,0-1.7002-.69726c-1.07031,0-1.9375,1.00293-1.9375,2.7539,0,1.80176.67969,2.77051,1.88672,2.77051A2.2557,2.2557,0,0,0,607.55176,60.60156Z" fill="gray"/><path d="M611.76758,52.03418a1.2117,1.2117,0,1,1,1.207,1.10547A1.1228,1.1228,0,0,1,611.76758,52.03418Zm2.17578,2.56738v8.34571h-1.9541V54.60156Z" fill="gray"/><path d="M616.73145,60.126V56.14746H615.541V54.68652l1.292-.085.23828-2.27832h1.63183v2.27832h2.124v1.5459h-2.124V60.126c0,.98535.374,1.46093,1.17286,1.46093a2.39451,2.39451,0,0,0,.86621-.18652l.34082,1.44531a5.35092,5.35092,0,0,1-1.7002.30567C617.44531,63.15137,616.73145,61.92773,616.73145,60.126Z" fill="gray"/><path d="M625.14648,61.65527l.9004-1.25781a3.625,3.625,0,0,0,2.5332,1.15625,1.95845,1.95845,0,0,0,2.09082-2.07422,1.85726,1.85726,0,0,0-1.98926-2.02246,2.77182,2.77182,0,0,0-1.7334.61133l-.93554-.59473.32324-5.33691h5.77929v1.64844h-4.0791l-.2207,2.61816a3.04968,3.04968,0,0,1,1.42773-.35742,3.14217,3.14217,0,0,1,3.39942,3.38281,3.64487,3.64487,0,0,1-3.80762,3.72266A4.962,4.962,0,0,1,625.14648,61.65527Z" fill="gray"/><path d="M201.23828,102.78223c0-2.71973,1.88672-4.38477,3.8418-4.38477,2.26074,0,3.45019,1.63184,3.45019,3.96a4.5728,4.5728,0,0,1-.085.95215H203.1416a2.38952,2.38952,0,0,0,2.46485,2.3291,3.493,3.493,0,0,0,1.93847-.6123L208.207,106.25a5.263,5.263,0,0,1-2.85547.90137A4.02476,4.02476,0,0,1,201.23828,102.78223Zm3.89258-2.87207a2.09536,2.09536,0,0,0-2.00586,2.07324h3.70605C206.83105,100.69238,206.26953,99.91016,205.13086,99.91016Z" fill="#1a1a1a"/><path d="M209.89062,102.78223c0-2.71973,1.7168-4.38477,3.53614-4.38477a3.07889,3.07889,0,0,1,2.19238.918l-.06836-1.34375V94.94629h1.95508v12.001H215.8916l-.13672-.90137h-.06738a3.47808,3.47808,0,0,1-2.36328,1.10547C211.2334,107.15137,209.89062,105.53613,209.89062,102.78223Zm5.66016,1.81933V100.709a2.48764,2.48764,0,0,0-1.69922-.69726c-1.07129,0-1.9375,1.00293-1.9375,2.7539,0,1.80176.67969,2.77051,1.88672,2.77051A2.25257,2.25257,0,0,0,215.55078,104.60156Z" fill="#1a1a1a"/><path d="M219.76758,96.03418a1.2117,1.2117,0,1,1,1.207,1.10547A1.12226,1.12226,0,0,1,219.76758,96.03418Zm2.17578,2.56738v8.34571h-1.95508V98.60156Z" fill="#1a1a1a"/><path d="M224.73145,104.126v-3.97852H223.542V98.68652l1.292-.085.23731-2.27832h1.63183v2.27832h2.125v1.5459h-2.125V104.126c0,.98535.374,1.46093,1.17286,1.46093a2.4042,2.4042,0,0,0,.86718-.18652l.33985,1.44531a5.34447,5.34447,0,0,1-1.69922.30567C225.44531,107.15137,224.73145,105.92773,224.73145,104.126Z" fill="#1a1a1a"/><path d="M236.41016,105.34961V98.24414H234.4209V97.02051a7.28019,7.28019,0,0,0,2.499-.88379h1.46192v9.21289h2.125v1.59766h-6.51075v-1.59766Z" fill="#1a1a1a"/><path d="M299.23828,102.78223c0-2.71973,1.88672-4.38477,3.8418-4.38477,2.26074,0,3.45019,1.63184,3.45019,3.96a4.5728,4.5728,0,0,1-.085.95215H301.1416a2.38952,2.38952,0,0,0,2.46485,2.3291,3.493,3.493,0,0,0,1.93847-.6123L306.207,106.25a5.263,5.263,0,0,1-2.85547.90137A4.02476,4.02476,0,0,1,299.23828,102.78223Zm3.89258-2.87207a2.09536,2.09536,0,0,0-2.00586,2.07324h3.70605C304.83105,100.69238,304.26953,99.91016,303.13086,99.91016Z" fill="#1a1a1a"/><path d="M307.89062,102.78223c0-2.71973,1.7168-4.38477,3.53516-4.38477a3.08116,3.08116,0,0,1,2.19336.918l-.06836-1.34375V94.94629h1.95508v12.001h-1.61524l-.13574-.90137h-.06738a3.47808,3.47808,0,0,1-2.36328,1.10547C309.2334,107.15137,307.89062,105.53613,307.89062,102.78223Zm5.66016,1.81933V100.709a2.48933,2.48933,0,0,0-1.69922-.69726c-1.07129,0-1.93847,1.00293-1.93847,2.7539,0,1.80176.68066,2.77051,1.88671,2.77051A2.25286,2.25286,0,0,0,313.55078,104.60156Z" fill="#1a1a1a"/><path d="M317.76758,96.03418a1.2117,1.2117,0,1,1,1.207,1.10547A1.1228,1.1228,0,0,1,317.76758,96.03418Zm2.17578,2.56738v8.34571h-1.9541V98.60156Z" fill="#1a1a1a"/><path d="M322.73145,104.126v-3.97852H321.541V98.68652l1.292-.085.23828-2.27832h1.63183v2.27832h2.124v1.5459h-2.124V104.126c0,.98535.374,1.46093,1.17286,1.46093a2.39451,2.39451,0,0,0,.86621-.18652l.34082,1.44531a5.35092,5.35092,0,0,1-1.7002.30567C323.44531,107.15137,322.73145,105.92773,322.73145,104.126Z" fill="#1a1a1a"/><path d="M336.2793,99.34863a1.67632,1.67632,0,0,0-1.78418-1.86914,2.9874,2.9874,0,0,0-2.1084,1.207l-1.08789-1.08789a4.42465,4.42465,0,0,1,3.45117-1.666,3.16011,3.16011,0,0,1,3.417,3.31445c0,1.9209-1.78515,3.89258-3.92676,6.15332.56055-.05078,1.27442-.11914,1.80176-.11914h2.65137v1.666h-7.30957v-1.13868C334.39258,102.90137,336.2793,100.99805,336.2793,99.34863Z" fill="#1a1a1a"/><path d="M397.23828,102.78223c0-2.71973,1.88672-4.38477,3.84082-4.38477,2.26074,0,3.45117,1.63184,3.45117,3.96a4.5728,4.5728,0,0,1-.085.95215H399.1416a2.38952,2.38952,0,0,0,2.46485,2.3291,3.48748,3.48748,0,0,0,1.9375-.6123L404.207,106.25a5.263,5.263,0,0,1-2.85547.90137A4.02476,4.02476,0,0,1,397.23828,102.78223Zm3.89258-2.87207a2.09536,2.09536,0,0,0-2.00586,2.07324h3.70508C402.83008,100.69238,402.26953,99.91016,401.13086,99.91016Z" fill="#1a1a1a"/><path d="M405.89062,102.78223c0-2.71973,1.7168-4.38477,3.53614-4.38477a3.07716,3.07716,0,0,1,2.19238.918l-.06738-1.34375V94.94629h1.9541v12.001H411.8916l-.13574-.90137h-.06836a3.47778,3.47778,0,0,1-2.3623,1.10547C407.23438,107.15137,405.89062,105.53613,405.89062,102.78223Zm5.66114,1.81933V100.709a2.48983,2.48983,0,0,0-1.7002-.69726c-1.07031,0-1.9375,1.00293-1.9375,2.7539,0,1.80176.67969,2.77051,1.88672,2.77051A2.2557,2.2557,0,0,0,411.55176,104.60156Z" fill="#1a1a1a"/><path d="M415.76758,96.03418a1.2117,1.2117,0,1,1,1.207,1.10547A1.1228,1.1228,0,0,1,415.76758,96.03418Zm2.17578,2.56738v8.34571h-1.9541V98.60156Z" fill="#1a1a1a"/><path d="M420.73145,104.126v-3.97852H419.541V98.68652l1.292-.085.23828-2.27832h1.63183v2.27832h2.124v1.5459h-2.124V104.126c0,.98535.374,1.46093,1.17286,1.46093a2.39451,2.39451,0,0,0,.86621-.18652l.34082,1.44531a5.35092,5.35092,0,0,1-1.7002.30567C421.44531,107.15137,420.73145,105.92773,420.73145,104.126Z" fill="#1a1a1a"/><path d="M429.14648,105.62109l.93457-1.25781a3.53317,3.53317,0,0,0,2.56641,1.19043c1.17285,0,1.98926-.6123,1.98926-1.63183,0-1.12208-.71387-1.83594-3.17871-1.83594V100.6582c2.125,0,2.82129-.73144,2.82129-1.73437a1.41089,1.41089,0,0,0-1.59766-1.44434,3.154,3.154,0,0,0-2.17578,1.01953l-1.00293-1.207A4.77468,4.77468,0,0,1,432.75,95.93262c2.07324,0,3.502,1.01953,3.502,2.85547a2.5958,2.5958,0,0,1-1.88769,2.48144v.06836a2.74992,2.74992,0,0,1,2.24414,2.68555c0,1.97168-1.7168,3.12793-3.79,3.12793A4.69813,4.69813,0,0,1,429.14648,105.62109Z" fill="#1a1a1a"/><path d="M495.23828,102.78223c0-2.71973,1.88672-4.38477,3.84082-4.38477,2.26074,0,3.45117,1.63184,3.45117,3.96a4.5728,4.5728,0,0,1-.085.95215H497.1416a2.38952,2.38952,0,0,0,2.46485,2.3291,3.48748,3.48748,0,0,0,1.9375-.6123L502.207,106.25a5.263,5.263,0,0,1-2.85547.90137A4.02476,4.02476,0,0,1,495.23828,102.78223Zm3.89258-2.87207a2.09536,2.09536,0,0,0-2.00586,2.07324h3.70508C500.83008,100.69238,500.26953,99.91016,499.13086,99.91016Z" fill="gray"/><path d="M503.89062,102.78223c0-2.71973,1.7168-4.38477,3.53614-4.38477a3.07716,3.07716,0,0,1,2.19238.918l-.06738-1.34375V94.94629h1.9541v12.001H509.8916l-.13574-.90137h-.06836a3.47778,3.47778,0,0,1-2.3623,1.10547C505.23438,107.15137,503.89062,105.53613,503.89062,102.78223Zm5.66114,1.81933V100.709a2.48983,2.48983,0,0,0-1.7002-.69726c-1.07031,0-1.9375,1.00293-1.9375,2.7539,0,1.80176.67969,2.77051,1.88672,2.77051A2.2557,2.2557,0,0,0,509.55176,104.60156Z" fill="gray"/><path d="M513.76758,96.03418a1.2117,1.2117,0,1,1,1.207,1.10547A1.1228,1.1228,0,0,1,513.76758,96.03418Zm2.17578,2.56738v8.34571h-1.9541V98.60156Z" fill="gray"/><path d="M518.73145,104.126v-3.97852H517.541V98.68652l1.292-.085.23828-2.27832h1.63183v2.27832h2.124v1.5459h-2.124V104.126c0,.98535.374,1.46093,1.17286,1.46093a2.39451,2.39451,0,0,0,.86621-.18652l.34082,1.44531a5.35092,5.35092,0,0,1-1.7002.30567C519.44531,107.15137,518.73145,105.92773,518.73145,104.126Z" fill="gray"/><path d="M527.044,104.15918V102.834l4.28417-6.69726h2.32813v6.50976h1.36035v1.5127h-1.36035v2.78809h-1.83594v-2.78809Zm4.77636-3.96c0-.62891.05176-1.61524.08594-2.24414h-.06836c-.27246.56152-.57812,1.10449-.88379,1.68262l-1.97168,3.00878h2.83789Z" fill="gray"/><path d="M593.23828,102.78223c0-2.71973,1.88672-4.38477,3.84082-4.38477,2.26074,0,3.45117,1.63184,3.45117,3.96a4.5728,4.5728,0,0,1-.085.95215H595.1416a2.38952,2.38952,0,0,0,2.46485,2.3291,3.48748,3.48748,0,0,0,1.9375-.6123L600.207,106.25a5.263,5.263,0,0,1-2.85547.90137A4.02476,4.02476,0,0,1,593.23828,102.78223Zm3.89258-2.87207a2.09536,2.09536,0,0,0-2.00586,2.07324h3.70508C598.83008,100.69238,598.26953,99.91016,597.13086,99.91016Z" fill="gray"/><path d="M601.89062,102.78223c0-2.71973,1.7168-4.38477,3.53614-4.38477a3.07716,3.07716,0,0,1,2.19238.918l-.06738-1.34375V94.94629h1.9541v12.001H607.8916l-.13574-.90137h-.06836a3.47778,3.47778,0,0,1-2.3623,1.10547C603.23438,107.15137,601.89062,105.53613,601.89062,102.78223Zm5.66114,1.81933V100.709a2.48983,2.48983,0,0,0-1.7002-.69726c-1.07031,0-1.9375,1.00293-1.9375,2.7539,0,1.80176.67969,2.77051,1.88672,2.77051A2.2557,2.2557,0,0,0,607.55176,104.60156Z" fill="gray"/><path d="M611.76758,96.03418a1.2117,1.2117,0,1,1,1.207,1.10547A1.1228,1.1228,0,0,1,611.76758,96.03418Zm2.17578,2.56738v8.34571h-1.9541V98.60156Z" fill="gray"/><path d="M616.73145,104.126v-3.97852H615.541V98.68652l1.292-.085.23828-2.27832h1.63183v2.27832h2.124v1.5459h-2.124V104.126c0,.98535.374,1.46093,1.17286,1.46093a2.39451,2.39451,0,0,0,.86621-.18652l.34082,1.44531a5.35092,5.35092,0,0,1-1.7002.30567C617.44531,107.15137,616.73145,105.92773,616.73145,104.126Z" fill="gray"/><path d="M625.14648,105.65527l.9004-1.25781a3.625,3.625,0,0,0,2.5332,1.15625,1.95845,1.95845,0,0,0,2.09082-2.07422,1.85726,1.85726,0,0,0-1.98926-2.02246,2.77182,2.77182,0,0,0-1.7334.61133l-.93554-.59473.32324-5.33691h5.77929v1.64844h-4.0791l-.2207,2.61816a3.04968,3.04968,0,0,1,1.42773-.35742,3.14217,3.14217,0,0,1,3.39942,3.38281,3.64487,3.64487,0,0,1-3.80762,3.72266A4.962,4.962,0,0,1,625.14648,105.65527Z" fill="gray"/><path d="M201.23828,146.78223c0-2.71973,1.88672-4.38477,3.8418-4.38477,2.26074,0,3.45019,1.63184,3.45019,3.96a4.5728,4.5728,0,0,1-.085.95215H203.1416a2.38952,2.38952,0,0,0,2.46485,2.3291,3.493,3.493,0,0,0,1.93847-.6123L208.207,150.25a5.263,5.263,0,0,1-2.85547.90137A4.02476,4.02476,0,0,1,201.23828,146.78223Zm3.89258-2.87207a2.09536,2.09536,0,0,0-2.00586,2.07324h3.70605C206.83105,144.69238,206.26953,143.91016,205.13086,143.91016Z" fill="#1a1a1a"/><path d="M209.89062,146.78223c0-2.71973,1.7168-4.38477,3.53614-4.38477a3.07889,3.07889,0,0,1,2.19238.918l-.06836-1.34375v-3.02539h1.95508v12.001H215.8916l-.13672-.90137h-.06738a3.47808,3.47808,0,0,1-2.36328,1.10547C211.2334,151.15137,209.89062,149.53613,209.89062,146.78223Zm5.66016,1.81933V144.709a2.48764,2.48764,0,0,0-1.69922-.69726c-1.07129,0-1.9375,1.00293-1.9375,2.7539,0,1.80176.67969,2.77051,1.88672,2.77051A2.25257,2.25257,0,0,0,215.55078,148.60156Z" fill="#1a1a1a"/><path d="M219.76758,140.03418a1.2117,1.2117,0,1,1,1.207,1.10547A1.12226,1.12226,0,0,1,219.76758,140.03418Zm2.17578,2.56738v8.34571h-1.95508v-8.34571Z" fill="#1a1a1a"/><path d="M224.73145,148.126v-3.97852H223.542v-1.46094l1.292-.085.23731-2.27832h1.63183v2.27832h2.125v1.5459h-2.125V148.126c0,.98535.374,1.46093,1.17286,1.46093a2.4042,2.4042,0,0,0,.86718-.18652l.33985,1.44531a5.34447,5.34447,0,0,1-1.69922.30567C225.44531,151.15137,224.73145,149.92773,224.73145,148.126Z" fill="#1a1a1a"/><path d="M236.41016,149.34961v-7.10547H234.4209v-1.22363a7.28019,7.28019,0,0,0,2.499-.88379h1.46192v9.21289h2.125v1.59766h-6.51075v-1.59766Z" fill="#1a1a1a"/><path d="M299.23828,146.78223c0-2.71973,1.88672-4.38477,3.8418-4.38477,2.26074,0,3.45019,1.63184,3.45019,3.96a4.5728,4.5728,0,0,1-.085.95215H301.1416a2.38952,2.38952,0,0,0,2.46485,2.3291,3.493,3.493,0,0,0,1.93847-.6123L306.207,150.25a5.263,5.263,0,0,1-2.85547.90137A4.02476,4.02476,0,0,1,299.23828,146.78223Zm3.89258-2.87207a2.09536,2.09536,0,0,0-2.00586,2.07324h3.70605C304.83105,144.69238,304.26953,143.91016,303.13086,143.91016Z" fill="#1a1a1a"/><path d="M307.89062,146.78223c0-2.71973,1.7168-4.38477,3.53516-4.38477a3.08116,3.08116,0,0,1,2.19336.918l-.06836-1.34375v-3.02539h1.95508v12.001h-1.61524l-.13574-.90137h-.06738a3.47808,3.47808,0,0,1-2.36328,1.10547C309.2334,151.15137,307.89062,149.53613,307.89062,146.78223Zm5.66016,1.81933V144.709a2.48933,2.48933,0,0,0-1.69922-.69726c-1.07129,0-1.93847,1.00293-1.93847,2.7539,0,1.80176.68066,2.77051,1.88671,2.77051A2.25286,2.25286,0,0,0,313.55078,148.60156Z" fill="#1a1a1a"/><path d="M317.76758,140.03418a1.2117,1.2117,0,1,1,1.207,1.10547A1.1228,1.1228,0,0,1,317.76758,140.03418Zm2.17578,2.56738v8.34571h-1.9541v-8.34571Z" fill="#1a1a1a"/><path d="M322.73145,148.126v-3.97852H321.541v-1.46094l1.292-.085.23828-2.27832h1.63183v2.27832h2.124v1.5459h-2.124V148.126c0,.98535.374,1.46093,1.17286,1.46093a2.39451,2.39451,0,0,0,.86621-.18652l.34082,1.44531a5.35092,5.35092,0,0,1-1.7002.30567C323.44531,151.15137,322.73145,149.92773,322.73145,148.126Z" fill="#1a1a1a"/><path d="M336.2793,143.34863a1.67632,1.67632,0,0,0-1.78418-1.86914,2.9874,2.9874,0,0,0-2.1084,1.207l-1.08789-1.08789a4.42465,4.42465,0,0,1,3.45117-1.666,3.16011,3.16011,0,0,1,3.417,3.31445c0,1.9209-1.78515,3.89258-3.92676,6.15332.56055-.05078,1.27442-.11914,1.80176-.11914h2.65137v1.666h-7.30957v-1.13868C334.39258,146.90137,336.2793,144.99805,336.2793,143.34863Z" fill="#1a1a1a"/><path d="M397.23828,146.78223c0-2.71973,1.88672-4.38477,3.84082-4.38477,2.26074,0,3.45117,1.63184,3.45117,3.96a4.5728,4.5728,0,0,1-.085.95215H399.1416a2.38952,2.38952,0,0,0,2.46485,2.3291,3.48748,3.48748,0,0,0,1.9375-.6123L404.207,150.25a5.263,5.263,0,0,1-2.85547.90137A4.02476,4.02476,0,0,1,397.23828,146.78223Zm3.89258-2.87207a2.09536,2.09536,0,0,0-2.00586,2.07324h3.70508C402.83008,144.69238,402.26953,143.91016,401.13086,143.91016Z" fill="#1a1a1a"/><path d="M405.89062,146.78223c0-2.71973,1.7168-4.38477,3.53614-4.38477a3.07716,3.07716,0,0,1,2.19238.918l-.06738-1.34375v-3.02539h1.9541v12.001H411.8916l-.13574-.90137h-.06836a3.47778,3.47778,0,0,1-2.3623,1.10547C407.23438,151.15137,405.89062,149.53613,405.89062,146.78223Zm5.66114,1.81933V144.709a2.48983,2.48983,0,0,0-1.7002-.69726c-1.07031,0-1.9375,1.00293-1.9375,2.7539,0,1.80176.67969,2.77051,1.88672,2.77051A2.2557,2.2557,0,0,0,411.55176,148.60156Z" fill="#1a1a1a"/><path d="M415.76758,140.03418a1.2117,1.2117,0,1,1,1.207,1.10547A1.1228,1.1228,0,0,1,415.76758,140.03418Zm2.17578,2.56738v8.34571h-1.9541v-8.34571Z" fill="#1a1a1a"/><path d="M420.73145,148.126v-3.97852H419.541v-1.46094l1.292-.085.23828-2.27832h1.63183v2.27832h2.124v1.5459h-2.124V148.126c0,.98535.374,1.46093,1.17286,1.46093a2.39451,2.39451,0,0,0,.86621-.18652l.34082,1.44531a5.35092,5.35092,0,0,1-1.7002.30567C421.44531,151.15137,420.73145,149.92773,420.73145,148.126Z" fill="#1a1a1a"/><path d="M429.14648,149.62109l.93457-1.25781a3.53317,3.53317,0,0,0,2.56641,1.19043c1.17285,0,1.98926-.6123,1.98926-1.63183,0-1.12208-.71387-1.83594-3.17871-1.83594V144.6582c2.125,0,2.82129-.73144,2.82129-1.73437a1.41089,1.41089,0,0,0-1.59766-1.44434,3.154,3.154,0,0,0-2.17578,1.01953l-1.00293-1.207a4.77468,4.77468,0,0,1,3.24707-1.35937c2.07324,0,3.502,1.01953,3.502,2.85547a2.5958,2.5958,0,0,1-1.88769,2.48144v.06836a2.74992,2.74992,0,0,1,2.24414,2.68555c0,1.97168-1.7168,3.12793-3.79,3.12793A4.69813,4.69813,0,0,1,429.14648,149.62109Z" fill="#1a1a1a"/><path d="M495.23828,146.78223c0-2.71973,1.88672-4.38477,3.84082-4.38477,2.26074,0,3.45117,1.63184,3.45117,3.96a4.5728,4.5728,0,0,1-.085.95215H497.1416a2.38952,2.38952,0,0,0,2.46485,2.3291,3.48748,3.48748,0,0,0,1.9375-.6123L502.207,150.25a5.263,5.263,0,0,1-2.85547.90137A4.02476,4.02476,0,0,1,495.23828,146.78223Zm3.89258-2.87207a2.09536,2.09536,0,0,0-2.00586,2.07324h3.70508C500.83008,144.69238,500.26953,143.91016,499.13086,143.91016Z" fill="#1a1a1a"/><path d="M503.89062,146.78223c0-2.71973,1.7168-4.38477,3.53614-4.38477a3.07716,3.07716,0,0,1,2.19238.918l-.06738-1.34375v-3.02539h1.9541v12.001H509.8916l-.13574-.90137h-.06836a3.47778,3.47778,0,0,1-2.3623,1.10547C505.23438,151.15137,503.89062,149.53613,503.89062,146.78223Zm5.66114,1.81933V144.709a2.48983,2.48983,0,0,0-1.7002-.69726c-1.07031,0-1.9375,1.00293-1.9375,2.7539,0,1.80176.67969,2.77051,1.88672,2.77051A2.2557,2.2557,0,0,0,509.55176,148.60156Z" fill="#1a1a1a"/><path d="M513.76758,140.03418a1.2117,1.2117,0,1,1,1.207,1.10547A1.1228,1.1228,0,0,1,513.76758,140.03418Zm2.17578,2.56738v8.34571h-1.9541v-8.34571Z" fill="#1a1a1a"/><path d="M518.73145,148.126v-3.97852H517.541v-1.46094l1.292-.085.23828-2.27832h1.63183v2.27832h2.124v1.5459h-2.124V148.126c0,.98535.374,1.46093,1.17286,1.46093a2.39451,2.39451,0,0,0,.86621-.18652l.34082,1.44531a5.35092,5.35092,0,0,1-1.7002.30567C519.44531,151.15137,518.73145,149.92773,518.73145,148.126Z" fill="#1a1a1a"/><path d="M527.48633,145.86523c0-4.19921,2.04-5.93261,4.249-5.93261a3.85237,3.85237,0,0,1,2.88965,1.22363l-1.05371,1.18945a2.33338,2.33338,0,0,0-1.7168-.81543c-1.35937,0-2.46484,1.00293-2.5498,3.99414a3.1983,3.1983,0,0,1,2.3457-1.27441c1.87012,0,3.16211,1.08789,3.16211,3.34863a3.37389,3.37389,0,0,1-3.39941,3.55274C529.28809,151.15137,527.48633,149.502,527.48633,145.86523Zm5.50781,1.7334c0-1.27539-.62988-1.9209-1.70019-1.9209a2.41476,2.41476,0,0,0-1.9375,1.24122c.20312,1.92089.96875,2.73632,2.02246,2.73632C532.2793,149.65527,532.99414,148.9248,532.99414,147.59863Z" fill="#1a1a1a"/><path d="M593.23828,146.78223c0-2.71973,1.88672-4.38477,3.84082-4.38477,2.26074,0,3.45117,1.63184,3.45117,3.96a4.5728,4.5728,0,0,1-.085.95215H595.1416a2.38952,2.38952,0,0,0,2.46485,2.3291,3.48748,3.48748,0,0,0,1.9375-.6123L600.207,150.25a5.263,5.263,0,0,1-2.85547.90137A4.02476,4.02476,0,0,1,593.23828,146.78223Zm3.89258-2.87207a2.09536,2.09536,0,0,0-2.00586,2.07324h3.70508C598.83008,144.69238,598.26953,143.91016,597.13086,143.91016Z" fill="#1a1a1a"/><path d="M601.89062,146.78223c0-2.71973,1.7168-4.38477,3.53614-4.38477a3.07716,3.07716,0,0,1,2.19238.918l-.06738-1.34375v-3.02539h1.9541v12.001H607.8916l-.13574-.90137h-.06836a3.47778,3.47778,0,0,1-2.3623,1.10547C603.23438,151.15137,601.89062,149.53613,601.89062,146.78223Zm5.66114,1.81933V144.709a2.48983,2.48983,0,0,0-1.7002-.69726c-1.07031,0-1.9375,1.00293-1.9375,2.7539,0,1.80176.67969,2.77051,1.88672,2.77051A2.2557,2.2557,0,0,0,607.55176,148.60156Z" fill="#1a1a1a"/><path d="M611.76758,140.03418a1.2117,1.2117,0,1,1,1.207,1.10547A1.1228,1.1228,0,0,1,611.76758,140.03418Zm2.17578,2.56738v8.34571h-1.9541v-8.34571Z" fill="#1a1a1a"/><path d="M616.73145,148.126v-3.97852H615.541v-1.46094l1.292-.085.23828-2.27832h1.63183v2.27832h2.124v1.5459h-2.124V148.126c0,.98535.374,1.46093,1.17286,1.46093a2.39451,2.39451,0,0,0,.86621-.18652l.34082,1.44531a5.35092,5.35092,0,0,1-1.7002.30567C617.44531,151.15137,616.73145,149.92773,616.73145,148.126Z" fill="#1a1a1a"/><path d="M630.60254,141.78516h-5.11621v-1.64844h7.25781v1.18945c-2.53223,3.14453-2.97461,5.40528-3.16113,9.6211h-1.98926A15.14856,15.14856,0,0,1,630.60254,141.78516Z" fill="#1a1a1a"/><path d="M299.23828,14.78223c0-2.71973,1.88672-4.38477,3.8418-4.38477,2.26074,0,3.45019,1.63184,3.45019,3.96a4.5728,4.5728,0,0,1-.085.95215H301.1416a2.38952,2.38952,0,0,0,2.46485,2.3291,3.493,3.493,0,0,0,1.93847-.6123L306.207,18.25a5.263,5.263,0,0,1-2.85547.90137A4.02476,4.02476,0,0,1,299.23828,14.78223Zm3.89258-2.87207A2.09536,2.09536,0,0,0,301.125,13.9834h3.70605C304.83105,12.69238,304.26953,11.91016,303.13086,11.91016Z" fill="#1a1a1a"/><path d="M307.89062,14.78223c0-2.71973,1.7168-4.38477,3.53516-4.38477a3.08116,3.08116,0,0,1,2.19336.918l-.06836-1.34375V6.94629h1.95508v12.001h-1.61524l-.13574-.90137h-.06738a3.47808,3.47808,0,0,1-2.36328,1.10547C309.2334,19.15137,307.89062,17.53613,307.89062,14.78223Zm5.66016,1.81933V12.709a2.48933,2.48933,0,0,0-1.69922-.69726c-1.07129,0-1.93847,1.00293-1.93847,2.7539,0,1.80176.68066,2.77051,1.88671,2.77051A2.25286,2.25286,0,0,0,313.55078,16.60156Z" fill="#1a1a1a"/><path d="M317.76758,8.03418a1.2117,1.2117,0,1,1,1.207,1.10547A1.1228,1.1228,0,0,1,317.76758,8.03418Zm2.17578,2.56738v8.34571h-1.9541V10.60156Z" fill="#1a1a1a"/><path d="M322.73145,16.126V12.14746H321.541V10.68652l1.292-.085.23828-2.27832h1.63183v2.27832h2.124v1.5459h-2.124V16.126c0,.98535.374,1.46093,1.17286,1.46093a2.39451,2.39451,0,0,0,.86621-.18652l.34082,1.44531a5.35092,5.35092,0,0,1-1.7002.30567C323.44531,19.15137,322.73145,17.92773,322.73145,16.126Z" fill="#1a1a1a"/><path d="M336.2793,11.34863a1.67632,1.67632,0,0,0-1.78418-1.86914,2.9874,2.9874,0,0,0-2.1084,1.207l-1.08789-1.08789a4.42465,4.42465,0,0,1,3.45117-1.666,3.16011,3.16011,0,0,1,3.417,3.31445c0,1.9209-1.78515,3.89258-3.92676,6.15332.56055-.05078,1.27442-.11914,1.80176-.11914h2.65137v1.666h-7.30957V17.80859C334.39258,14.90137,336.2793,12.998,336.2793,11.34863Z" fill="#1a1a1a"/><path d="M397.23828,14.78223c0-2.71973,1.88672-4.38477,3.84082-4.38477,2.26074,0,3.45117,1.63184,3.45117,3.96a4.5728,4.5728,0,0,1-.085.95215H399.1416a2.38952,2.38952,0,0,0,2.46485,2.3291,3.48748,3.48748,0,0,0,1.9375-.6123L404.207,18.25a5.263,5.263,0,0,1-2.85547.90137A4.02476,4.02476,0,0,1,397.23828,14.78223Zm3.89258-2.87207A2.09536,2.09536,0,0,0,399.125,13.9834h3.70508C402.83008,12.69238,402.26953,11.91016,401.13086,11.91016Z" fill="#1a1a1a"/><path d="M405.89062,14.78223c0-2.71973,1.7168-4.38477,3.53614-4.38477a3.07716,3.07716,0,0,1,2.19238.918l-.06738-1.34375V6.94629h1.9541v12.001H411.8916l-.13574-.90137h-.06836a3.47778,3.47778,0,0,1-2.3623,1.10547C407.23438,19.15137,405.89062,17.53613,405.89062,14.78223Zm5.66114,1.81933V12.709a2.48983,2.48983,0,0,0-1.7002-.69726c-1.07031,0-1.9375,1.00293-1.9375,2.7539,0,1.80176.67969,2.77051,1.88672,2.77051A2.2557,2.2557,0,0,0,411.55176,16.60156Z" fill="#1a1a1a"/><path d="M415.76758,8.03418a1.2117,1.2117,0,1,1,1.207,1.10547A1.1228,1.1228,0,0,1,415.76758,8.03418Zm2.17578,2.56738v8.34571h-1.9541V10.60156Z" fill="#1a1a1a"/><path d="M420.73145,16.126V12.14746H419.541V10.68652l1.292-.085.23828-2.27832h1.63183v2.27832h2.124v1.5459h-2.124V16.126c0,.98535.374,1.46093,1.17286,1.46093a2.39451,2.39451,0,0,0,.86621-.18652l.34082,1.44531a5.35092,5.35092,0,0,1-1.7002.30567C421.44531,19.15137,420.73145,17.92773,420.73145,16.126Z" fill="#1a1a1a"/><path d="M429.14648,17.62109l.93457-1.25781a3.53317,3.53317,0,0,0,2.56641,1.19043c1.17285,0,1.98926-.6123,1.98926-1.63183,0-1.12208-.71387-1.83594-3.17871-1.83594V12.6582c2.125,0,2.82129-.73144,2.82129-1.73437a1.41089,1.41089,0,0,0-1.59766-1.44434,3.154,3.154,0,0,0-2.17578,1.01953l-1.00293-1.207A4.77468,4.77468,0,0,1,432.75,7.93262c2.07324,0,3.502,1.01953,3.502,2.85547a2.5958,2.5958,0,0,1-1.88769,2.48144v.06836a2.74992,2.74992,0,0,1,2.24414,2.68555c0,1.97168-1.7168,3.12793-3.79,3.12793A4.69813,4.69813,0,0,1,429.14648,17.62109Z" fill="#1a1a1a"/><path d="M495.23828,14.78223c0-2.71973,1.88672-4.38477,3.84082-4.38477,2.26074,0,3.45117,1.63184,3.45117,3.96a4.5728,4.5728,0,0,1-.085.95215H497.1416a2.38952,2.38952,0,0,0,2.46485,2.3291,3.48748,3.48748,0,0,0,1.9375-.6123L502.207,18.25a5.263,5.263,0,0,1-2.85547.90137A4.02476,4.02476,0,0,1,495.23828,14.78223Zm3.89258-2.87207A2.09536,2.09536,0,0,0,497.125,13.9834h3.70508C500.83008,12.69238,500.26953,11.91016,499.13086,11.91016Z" fill="#1a1a1a"/><path d="M503.89062,14.78223c0-2.71973,1.7168-4.38477,3.53614-4.38477a3.07716,3.07716,0,0,1,2.19238.918l-.06738-1.34375V6.94629h1.9541v12.001H509.8916l-.13574-.90137h-.06836a3.47778,3.47778,0,0,1-2.3623,1.10547C505.23438,19.15137,503.89062,17.53613,503.89062,14.78223Zm5.66114,1.81933V12.709a2.48983,2.48983,0,0,0-1.7002-.69726c-1.07031,0-1.9375,1.00293-1.9375,2.7539,0,1.80176.67969,2.77051,1.88672,2.77051A2.2557,2.2557,0,0,0,509.55176,16.60156Z" fill="#1a1a1a"/><path d="M513.76758,8.03418a1.2117,1.2117,0,1,1,1.207,1.10547A1.1228,1.1228,0,0,1,513.76758,8.03418Zm2.17578,2.56738v8.34571h-1.9541V10.60156Z" fill="#1a1a1a"/><path d="M518.73145,16.126V12.14746H517.541V10.68652l1.292-.085.23828-2.27832h1.63183v2.27832h2.124v1.5459h-2.124V16.126c0,.98535.374,1.46093,1.17286,1.46093a2.39451,2.39451,0,0,0,.86621-.18652l.34082,1.44531a5.35092,5.35092,0,0,1-1.7002.30567C519.44531,19.15137,518.73145,17.92773,518.73145,16.126Z" fill="#1a1a1a"/><path d="M527.044,16.15918V14.834l4.28417-6.69726h2.32813v6.50976h1.36035v1.5127h-1.36035v2.78809h-1.83594V16.15918Zm4.77636-3.96c0-.62891.05176-1.61524.08594-2.24414h-.06836c-.27246.56152-.57812,1.10449-.88379,1.68262l-1.97168,3.00878h2.83789Z" fill="#1a1a1a"/><path d="M593.23828,14.78223c0-2.71973,1.88672-4.38477,3.84082-4.38477,2.26074,0,3.45117,1.63184,3.45117,3.96a4.5728,4.5728,0,0,1-.085.95215H595.1416a2.38952,2.38952,0,0,0,2.46485,2.3291,3.48748,3.48748,0,0,0,1.9375-.6123L600.207,18.25a5.263,5.263,0,0,1-2.85547.90137A4.02476,4.02476,0,0,1,593.23828,14.78223Zm3.89258-2.87207A2.09536,2.09536,0,0,0,595.125,13.9834h3.70508C598.83008,12.69238,598.26953,11.91016,597.13086,11.91016Z" fill="#1a1a1a"/><path d="M601.89062,14.78223c0-2.71973,1.7168-4.38477,3.53614-4.38477a3.07716,3.07716,0,0,1,2.19238.918l-.06738-1.34375V6.94629h1.9541v12.001H607.8916l-.13574-.90137h-.06836a3.47778,3.47778,0,0,1-2.3623,1.10547C603.23438,19.15137,601.89062,17.53613,601.89062,14.78223Zm5.66114,1.81933V12.709a2.48983,2.48983,0,0,0-1.7002-.69726c-1.07031,0-1.9375,1.00293-1.9375,2.7539,0,1.80176.67969,2.77051,1.88672,2.77051A2.2557,2.2557,0,0,0,607.55176,16.60156Z" fill="#1a1a1a"/><path d="M611.76758,8.03418a1.2117,1.2117,0,1,1,1.207,1.10547A1.1228,1.1228,0,0,1,611.76758,8.03418Zm2.17578,2.56738v8.34571h-1.9541V10.60156Z" fill="#1a1a1a"/><path d="M616.73145,16.126V12.14746H615.541V10.68652l1.292-.085.23828-2.27832h1.63183v2.27832h2.124v1.5459h-2.124V16.126c0,.98535.374,1.46093,1.17286,1.46093a2.39451,2.39451,0,0,0,.86621-.18652l.34082,1.44531a5.35092,5.35092,0,0,1-1.7002.30567C617.44531,19.15137,616.73145,17.92773,616.73145,16.126Z" fill="#1a1a1a"/><path d="M625.14648,17.65527l.9004-1.25781a3.625,3.625,0,0,0,2.5332,1.15625,1.95845,1.95845,0,0,0,2.09082-2.07422,1.85726,1.85726,0,0,0-1.98926-2.02246,2.77182,2.77182,0,0,0-1.7334.61133l-.93554-.59473.32324-5.33691h5.77929V9.78516h-4.0791l-.2207,2.61816a3.04968,3.04968,0,0,1,1.42773-.35742,3.14217,3.14217,0,0,1,3.39942,3.38281,3.64487,3.64487,0,0,1-3.80762,3.72266A4.962,4.962,0,0,1,625.14648,17.65527Z" fill="#1a1a1a"/><path d="M397.23828,58.78223c0-2.71973,1.88672-4.38477,3.84082-4.38477,2.26074,0,3.45117,1.63184,3.45117,3.96a4.5728,4.5728,0,0,1-.085.95215H399.1416a2.38952,2.38952,0,0,0,2.46485,2.3291,3.48748,3.48748,0,0,0,1.9375-.6123L404.207,62.25a5.263,5.263,0,0,1-2.85547.90137A4.02476,4.02476,0,0,1,397.23828,58.78223Zm3.89258-2.87207A2.09536,2.09536,0,0,0,399.125,57.9834h3.70508C402.83008,56.69238,402.26953,55.91016,401.13086,55.91016Z" fill="gray"/><path d="M405.89062,58.78223c0-2.71973,1.7168-4.38477,3.53614-4.38477a3.07716,3.07716,0,0,1,2.19238.918l-.06738-1.34375V50.94629h1.9541v12.001H411.8916l-.13574-.90137h-.06836a3.47778,3.47778,0,0,1-2.3623,1.10547C407.23438,63.15137,405.89062,61.53613,405.89062,58.78223Zm5.66114,1.81933V56.709a2.48983,2.48983,0,0,0-1.7002-.69726c-1.07031,0-1.9375,1.00293-1.9375,2.7539,0,1.80176.67969,2.77051,1.88672,2.77051A2.2557,2.2557,0,0,0,411.55176,60.60156Z" fill="gray"/><path d="M415.76758,52.03418a1.2117,1.2117,0,1,1,1.207,1.10547A1.1228,1.1228,0,0,1,415.76758,52.03418Zm2.17578,2.56738v8.34571h-1.9541V54.60156Z" fill="gray"/><path d="M420.73145,60.126V56.14746H419.541V54.68652l1.292-.085.23828-2.27832h1.63183v2.27832h2.124v1.5459h-2.124V60.126c0,.98535.374,1.46093,1.17286,1.46093a2.39451,2.39451,0,0,0,.86621-.18652l.34082,1.44531a5.35092,5.35092,0,0,1-1.7002.30567C421.44531,63.15137,420.73145,61.92773,420.73145,60.126Z" fill="gray"/><path d="M429.14648,61.62109l.93457-1.25781a3.53317,3.53317,0,0,0,2.56641,1.19043c1.17285,0,1.98926-.6123,1.98926-1.63183,0-1.12208-.71387-1.83594-3.17871-1.83594V56.6582c2.125,0,2.82129-.73144,2.82129-1.73437a1.41089,1.41089,0,0,0-1.59766-1.44434,3.154,3.154,0,0,0-2.17578,1.01953l-1.00293-1.207A4.77468,4.77468,0,0,1,432.75,51.93262c2.07324,0,3.502,1.01953,3.502,2.85547a2.5958,2.5958,0,0,1-1.88769,2.48144v.06836a2.74992,2.74992,0,0,1,2.24414,2.68555c0,1.97168-1.7168,3.12793-3.79,3.12793A4.69813,4.69813,0,0,1,429.14648,61.62109Z" fill="gray"/></svg>