<svg xmlns="http://www.w3.org/2000/svg" xmlns:xlink="http://www.w3.org/1999/xlink" viewBox="0 0 800 280"><defs><clipPath id="a"><rect x="197.26667" y="-15.36022" width="206.86857" height="315.93332" rx="2.52316" ry="2.52316" transform="translate(158.09452 443.30739) rotate(-90)" fill="none"/></clipPath></defs><title>gfk_gui-devices</title><rect width="799.99788" height="280" fill="#1a1a1a"/><rect x="182.44581" y="-48.84232" width="236.76369" height="382.89751" rx="9.1878" ry="9.1878" transform="translate(158.22122 443.43409) rotate(-90)" stroke="#999" stroke-miterlimit="10" stroke-width="2.52316"/><rect x="197.26667" y="-15.36022" width="206.86857" height="315.93332" rx="2.52316" ry="2.52316" transform="translate(158.09452 443.30739) rotate(-90)" fill="#333" stroke="#666" stroke-miterlimit="10" stroke-width="0.50463"/><rect x="462.2553" y="136.62756" width="26.30708" height="11.95776" rx="4.17627" ry="4.17627" transform="translate(332.8024 618.01528) rotate(-90)" fill="#1a1a1a" stroke="#b3b3b3" stroke-miterlimit="10"/><g clip-path="url(#a)"><rect x="158.1543" y="76.55322" width="65.92285" height="131.0415" rx="5.13379" ry="5.13379" fill="#594d46"/><path d="M218.9436,77.05327a4.63392,4.63392,0,0,1,4.63391,4.6339V202.4608a4.63394,4.63394,0,0,1-4.63391,4.6339H163.28833a4.63387,4.63387,0,0,1-4.63391-4.6339V81.68717a4.63385,4.63385,0,0,1,4.63391-4.6339H218.9436m0-1H163.28833a5.64027,5.64027,0,0,0-5.63391,5.6339V202.4608a5.64027,5.64027,0,0,0,5.63391,5.6339H218.9436a5.64027,5.64027,0,0,0,5.63391-5.6339V81.68717a5.64027,5.64027,0,0,0-5.63391-5.6339Z"/><path d="M163.27956,77.05327h55.65527a4.63391,4.63391,0,0,1,4.63391,4.63391V97.5553a0,0,0,0,1,0,0H158.64565a0,0,0,0,1,0,0V81.68718A4.63391,4.63391,0,0,1,163.27956,77.05327Z" fill="#e5b28c"/><path d="M235.25977,76.54785H290.915a5.13379,5.13379,0,0,1,5.13379,5.13379V202.45557a5.13379,5.13379,0,0,1-5.13379,5.13379H235.26025a5.13428,5.13428,0,0,1-5.13428-5.13428V81.68164A5.13379,5.13379,0,0,1,235.25977,76.54785Z" fill="#594d46"/><path d="M290.91516,77.04779a4.63392,4.63392,0,0,1,4.63391,4.63389V202.45529a4.63393,4.63393,0,0,1-4.63391,4.63391H235.25989a4.63393,4.63393,0,0,1-4.63391-4.63391V81.68168a4.63392,4.63392,0,0,1,4.63391-4.63389h55.65527m0-1H235.25989a5.64026,5.64026,0,0,0-5.63391,5.63389V202.45529a5.64028,5.64028,0,0,0,5.63391,5.63391h55.65527a5.64028,5.64028,0,0,0,5.63391-5.63391V81.68168a5.64026,5.64026,0,0,0-5.63391-5.63389Z"/><path d="M235.25986,77.04778h55.65527a4.63391,4.63391,0,0,1,4.63391,4.63391V97.54976a0,0,0,0,1,0,0H230.626a0,0,0,0,1,0,0V81.68169A4.63391,4.63391,0,0,1,235.25986,77.04778Z" fill="#e5b28c"/><path d="M267.05078,156.49023l.457-.20214a10.92188,10.92188,0,1,0-8.81445,0l.457.20214-2.60742,5.9087-.458-.20215a17.3838,17.3838,0,1,1,14.03125,0l-.458.20215Z" fill="#262626"/><path d="M263.10046,129.42709a16.87181,16.87181,0,0,1,6.81348,32.31205l-2.20435-4.99367a11.4217,11.4217,0,1,0-9.21813,0l-2.20435,4.9936a16.87171,16.87171,0,0,1,6.81335-32.312m0-1a17.87172,17.87172,0,0,0-7.21753,34.22669l.915.40425.40393-.91512,2.20435-4.9936.40369-.91457-.91431-.404a10.42139,10.42139,0,1,1,8.40991,0l-.91455.404.40381.91455,2.20435,4.99367.40393.91513.915-.40425a17.87183,17.87183,0,0,0-7.21766-34.22675Z"/><path d="M251.25185,146.30472a11.85,11.85,0,0,0,6.67968,10.65145l-.93017,2.10726-.93017,2.10726a16.46247,16.46247,0,0,1-9.42763-14.866Z" fill="#ff953d" stroke="#ff953d"/><line x1="263.10041" y1="146.30437" x2="246.07812" y2="146.30472" fill="none" stroke="#000" stroke-width="4"/><line x1="263.10041" y1="146.30437" x2="246.07812" y2="146.30472" fill="none" stroke="#fff" stroke-width="2"/><path d="M263.10059,149.27393a2.96949,2.96949,0,1,1,2.96875-2.96973A2.97286,2.97286,0,0,1,263.10059,149.27393Z" fill="#ff953d"/><path d="M263.10046,143.68245a2.62194,2.62194,0,1,1-2.62194,2.62192,2.62487,2.62487,0,0,1,2.62194-2.62192m0-.6951a3.317,3.317,0,1,0,3.317,3.317,3.317,3.317,0,0,0-3.317-3.317Z"/><rect x="302.05664" y="76.54785" width="65.92285" height="63.36035" rx="5.13379" ry="5.13379" fill="#594d46"/><path d="M362.846,77.04778a4.63393,4.63393,0,0,1,4.63391,4.63391v53.09253a4.63392,4.63392,0,0,1-4.63391,4.63389H307.19067a4.63392,4.63392,0,0,1-4.63391-4.63389V81.68169a4.63393,4.63393,0,0,1,4.63391-4.63391H362.846m0-1H307.19067a5.64028,5.64028,0,0,0-5.63391,5.63391v53.09253a5.64028,5.64028,0,0,0,5.63391,5.63389H362.846a5.64028,5.64028,0,0,0,5.63391-5.63389V81.68169a5.64028,5.64028,0,0,0-5.63391-5.63391Z"/><path d="M307.1958,144.229h55.65479a5.13379,5.13379,0,0,1,5.13379,5.13379v53.09277a5.13379,5.13379,0,0,1-5.13379,5.13379H307.1958a5.13428,5.13428,0,0,1-5.13428-5.13428v-53.0918A5.13428,5.13428,0,0,1,307.1958,144.229Z" fill="#594d46"/><path d="M362.85022,144.72887a4.63384,4.63384,0,0,1,4.63391,4.63391v53.09251a4.63385,4.63385,0,0,1-4.63391,4.63391H307.195a4.63393,4.63393,0,0,1-4.63391-4.63391V149.36278a4.63392,4.63392,0,0,1,4.63391-4.63391h55.65527m0-1H307.195a5.64028,5.64028,0,0,0-5.63391,5.63391v53.09251a5.64028,5.64028,0,0,0,5.63391,5.63391h55.65527a5.64028,5.64028,0,0,0,5.63391-5.63391V149.36278a5.64028,5.64028,0,0,0-5.63391-5.63391Z"/><path d="M307.195,144.72892h55.65527a4.63391,4.63391,0,0,1,4.63391,4.63391v9.88836a0,0,0,0,1,0,0H302.56109a0,0,0,0,1,0,0v-9.88836A4.63391,4.63391,0,0,1,307.195,144.72892Z" fill="#e5b28c"/><rect x="374.02441" y="76.55322" width="65.92285" height="131.0415" rx="5.13379" ry="5.13379" fill="#594d46"/><path d="M434.81348,77.05327a4.63393,4.63393,0,0,1,4.63391,4.6339V202.4608a4.63395,4.63395,0,0,1-4.63391,4.6339H379.1582a4.63395,4.63395,0,0,1-4.63391-4.6339V81.68717a4.63393,4.63393,0,0,1,4.63391-4.6339h55.65528m0-1H379.1582a5.64028,5.64028,0,0,0-5.63391,5.6339V202.4608a5.64028,5.64028,0,0,0,5.63391,5.6339h55.65528a5.64028,5.64028,0,0,0,5.63391-5.6339V81.68717a5.64028,5.64028,0,0,0-5.63391-5.6339Z"/><path d="M379.14949,77.05327h55.65527a4.63391,4.63391,0,0,1,4.63391,4.63391V97.5553a0,0,0,0,1,0,0H374.51558a0,0,0,0,1,0,0V81.68718A4.63391,4.63391,0,0,1,379.14949,77.05327Z" fill="#e5b28c"/><rect x="186.60254" y="113.46094" width="9" height="69.34033" fill="#262626"/><path d="M195.10291,113.96113v68.34009h-8V113.96113h8m1-1h-10v70.34009h10V112.96113Z"/><rect x="402.45996" y="113.46094" width="9" height="69.34033" fill="#262626"/><path d="M410.96,113.96113v68.34009h-8V113.96113h8m1-1h-10v70.34009h10V112.96113Z"/><rect x="402.95991" y="135.81688" width="8" height="46.48434" fill="#ff953d"/><rect x="187.10289" y="150.28839" width="8" height="32.01284" fill="#ff953d"/><rect x="402.90336" y="134.83333" width="8" height="1.65851" fill="#fff"/><rect x="187.1217" y="149.4544" width="8" height="1.65851" fill="#fff"/><path d="M338.96875,193.14014l.457-.20215a10.92188,10.92188,0,1,0-8.81445,0l.457.20215-2.60742,5.90869-.458-.20215a17.38379,17.38379,0,1,1,14.03125,0l-.458.20215Z" fill="#262626"/><path d="M335.01843,166.07721a16.87181,16.87181,0,0,1,6.8136,32.312l-2.20434-4.99365a11.42164,11.42164,0,1,0-9.21827,0l-2.20434,4.99359a16.87174,16.87174,0,0,1,6.81335-32.312m0-1a17.87175,17.87175,0,0,0-7.21753,34.22668l.915.40426.40393-.91512,2.20435-4.99359.40369-.91454-.91431-.404a10.42151,10.42151,0,1,1,8.40991,0l-.91431.404.40369.91452,2.20435,4.99366.40393.91513.915-.40425a17.87183,17.87183,0,0,0-7.21778-34.22675Z"/><path d="M323.1699,182.95484a11.85,11.85,0,0,0,6.67968,10.65145l-.93017,2.10726-.93016,2.10727a16.46242,16.46242,0,0,1-9.42763-14.866Z" fill="#ff953d" stroke="#ff953d"/><line x1="335.01846" y1="182.95449" x2="318.02353" y2="182.95484" fill="none" stroke="#000" stroke-width="4"/><line x1="335.01846" y1="182.95449" x2="318.02353" y2="182.95484" fill="none" stroke="#fff" stroke-width="2"/><circle cx="335.01855" cy="182.95459" r="2.96948" fill="#ff953d"/><path d="M335.01843,180.33257a2.62193,2.62193,0,1,1-2.622,2.62193,2.62487,2.62487,0,0,1,2.622-2.62193m0-.6951a3.317,3.317,0,1,0,3.317,3.317,3.317,3.317,0,0,0-3.317-3.317Z"/><path d="M338.96875,125.04492l.457-.20215a10.92188,10.92188,0,1,0-8.81445,0l.457.20215-2.60742,5.90869-.458-.20215a17.38379,17.38379,0,1,1,14.03125,0l-.458.20215Z" fill="#262626"/><path d="M335.01843,97.98209a16.87181,16.87181,0,0,1,6.8136,32.312l-2.20434-4.99365a11.42164,11.42164,0,1,0-9.21827,0l-2.20434,4.99359a16.87174,16.87174,0,0,1,6.81335-32.312m0-1a17.87175,17.87175,0,0,0-7.21753,34.22668l.915.40425.40393-.91511,2.20435-4.99359.40369-.91454-.91431-.404a10.42151,10.42151,0,1,1,8.40991,0l-.91431.404.40369.91453,2.20435,4.99364.40393.91513.915-.40425a17.87182,17.87182,0,0,0-7.21778-34.22674Z"/><path d="M323.1699,114.85972a11.85,11.85,0,0,0,6.67968,10.65145l-.93017,2.10726-.93016,2.10727a16.46242,16.46242,0,0,1-9.42763-14.866Z" fill="#ff953d" stroke="#ff953d"/><line x1="335.01846" y1="114.85937" x2="317.95833" y2="114.85972" fill="none" stroke="#000" stroke-width="4"/><line x1="335.01846" y1="114.85937" x2="317.95833" y2="114.85972" fill="none" stroke="#fff" stroke-width="2"/><circle cx="335.01855" cy="114.85938" r="2.96948" fill="#ff953d"/><path d="M335.01843,112.23744a2.62194,2.62194,0,1,1-2.622,2.62194,2.62488,2.62488,0,0,1,2.622-2.62194m0-.69508a3.317,3.317,0,1,0,3.317,3.317,3.317,3.317,0,0,0-3.317-3.317Z"/><path d="M307.19069,77.04783H362.846a4.63391,4.63391,0,0,1,4.63391,4.63391V91.5701a0,0,0,0,1,0,0H302.55679a0,0,0,0,1,0,0V81.68174A4.63391,4.63391,0,0,1,307.19069,77.04783Z" fill="#e5b28c"/></g><path d="M136.12012,22.374V21.03467a2.77645,2.77645,0,0,1,2.77343-2.77295H174.208a2.77646,2.77646,0,0,1,2.77344,2.77295V22.374Z"/><path d="M174.20837,18.51172a2.52316,2.52316,0,0,1,2.5232,2.52316V22.124H136.37018V21.03487a2.52314,2.52314,0,0,1,2.52313-2.52315h35.31506m0-.5H138.89331a3.02654,3.02654,0,0,0-3.02313,3.02315V22.624h41.36139V21.03488a3.0266,3.0266,0,0,0-3.0232-3.02316Z" fill="#4d4d4d"/><path d="M182.458,22.374V21.03467a2.77645,2.77645,0,0,1,2.77344-2.77295H194.54a2.77645,2.77645,0,0,1,2.77344,2.77295V22.374Z"/><path d="M194.54,18.51172a2.52316,2.52316,0,0,1,2.52319,2.52316V22.124H182.7085V21.03488a2.52312,2.52312,0,0,1,2.52307-2.52316H194.54m0-.5h-9.30847a3.0265,3.0265,0,0,0-3.02307,3.02316V22.624h15.35473V21.03488A3.0266,3.0266,0,0,0,194.54,18.01172Z" fill="#4d4d4d"/><rect x="551.22757" y="22.62396" width="136.14837" height="238.36432" rx="7.07892" ry="7.07892" stroke="#999" stroke-miterlimit="10" stroke-width="1.94402"/><rect x="560.53285" y="43.38862" width="117.53782" height="196.67726" rx="1.94402" ry="1.94402" fill="#333" stroke="#666" stroke-miterlimit="10" stroke-width="0.3888"/><rect x="611.11332" y="246.76574" width="16.37689" height="7.44404" rx="2.45366" ry="2.45366" fill="#1a1a1a" stroke="#b3b3b3" stroke-miterlimit="10"/><path d="M688.62207,64.80273v-25.626h1.0166a1.73461,1.73461,0,0,1,1.73242,1.73242V63.07031a1.73461,1.73461,0,0,1-1.73242,1.73242Z"/><path d="M689.63867,39.42677a1.48242,1.48242,0,0,1,1.48242,1.48242V63.07043a1.48241,1.48241,0,0,1-1.48242,1.48243h-.76623V39.42677h.76623m0-.5h-1.26623V65.05286h1.26623a1.98465,1.98465,0,0,0,1.98242-1.98243V40.90919a1.98466,1.98466,0,0,0-1.98242-1.98242Z" fill="#4d4d4d"/><path d="M688.62207,77.46V68.02344h1.0166a1.73461,1.73461,0,0,1,1.73242,1.73242v5.97168A1.73461,1.73461,0,0,1,689.63867,77.46Z"/><path d="M689.63867,68.27364a1.4824,1.4824,0,0,1,1.48242,1.48242v5.97143a1.4824,1.4824,0,0,1-1.48242,1.48242h-.76623V68.27364h.76623m0-.5h-1.26623v9.93627h1.26623a1.98465,1.98465,0,0,0,1.98242-1.98242V69.75606a1.98465,1.98465,0,0,0-1.98242-1.98242Z" fill="#4d4d4d"/><path d="M577.35352,54.541h36.58887a3.375,3.375,0,0,1,3.375,3.375v79.395a3.376,3.376,0,0,1-3.376,3.376H577.35352a3.375,3.375,0,0,1-3.375-3.375V57.916A3.375,3.375,0,0,1,577.35352,54.541Z" fill="#66574b"/><path d="M613.94153,54.86983a3.04631,3.04631,0,0,1,3.04626,3.04632v79.39606a3.04632,3.04632,0,0,1-3.04626,3.04633H577.35388a3.04632,3.04632,0,0,1-3.04626-3.04633V57.91615a3.04631,3.04631,0,0,1,3.04626-3.04632h36.58765m0-.6574H577.35388a3.70782,3.70782,0,0,0-3.70361,3.70372v79.39606a3.70782,3.70782,0,0,0,3.70361,3.70372h36.58765a3.70782,3.70782,0,0,0,3.70361-3.70372V57.91615a3.70782,3.70782,0,0,0-3.70361-3.70372Z"/><path d="M577.34821,54.86983h36.58755a3.04631,3.04631,0,0,1,3.04631,3.04631V68.34778a0,0,0,0,1,0,0H574.30189a0,0,0,0,1,0,0V57.91615A3.04631,3.04631,0,0,1,577.34821,54.86983Z" fill="#cfb199"/><path d="M624.668,54.5376h36.58789a3.375,3.375,0,0,1,3.375,3.375v79.395a3.376,3.376,0,0,1-3.376,3.376H624.667a3.375,3.375,0,0,1-3.375-3.375v-79.395A3.376,3.376,0,0,1,624.668,54.5376Z" fill="#66574b"/><path d="M661.25525,54.86622a3.04635,3.04635,0,0,1,3.04639,3.04632v79.39607a3.04634,3.04634,0,0,1-3.04639,3.04631H624.66772a3.04631,3.04631,0,0,1-3.04626-3.04631V57.91254a3.04631,3.04631,0,0,1,3.04626-3.04632h36.58753m0-.6574H624.66772a3.70782,3.70782,0,0,0-3.70361,3.70372v79.39607a3.70782,3.70782,0,0,0,3.70361,3.70372h36.58753a3.70792,3.70792,0,0,0,3.70373-3.70372V57.91254a3.70792,3.70792,0,0,0-3.70373-3.70372Z"/><path d="M624.66776,54.86623h36.58755a3.04631,3.04631,0,0,1,3.04631,3.04631v10.4316a0,0,0,0,1,0,0H621.62145a0,0,0,0,1,0,0V57.91254A3.04631,3.04631,0,0,1,624.66776,54.86623Z" fill="#cfb199"/><path d="M645.56673,107.09083l.30078-.13281a7.17969,7.17969,0,1,0-5.79492,0l.30078.13281-1.71484,3.88477-.30078-.13281a11.42871,11.42871,0,1,1,9.22461,0l-.30078.13281Z" fill="#262626"/><path d="M642.97005,89.30018a11.09145,11.09145,0,0,1,4.47913,21.2418l-1.4491-3.28281a7.5086,7.5086,0,1,0-6.05994,0l-1.44921,3.28278a11.0914,11.0914,0,0,1,4.47912-21.24177m0-.6574a11.74879,11.74879,0,0,0-4.74475,22.50048l.60144.26575.26563-.60156,1.44922-3.28281.26538-.60119-.6012-.2656a6.851,6.851,0,1,1,5.52869,0l-.6012.26556.26538.60123,1.4491,3.28281.26562.60159.60144-.26575a11.74884,11.74884,0,0,0-4.74475-22.50051Z"/><path d="M635.18083,100.39545a7.79013,7.79013,0,0,0,4.39119,7.00222l-.61149,1.38531-.61149,1.3853a10.82234,10.82234,0,0,1-6.19768-9.77283Z" fill="#ff953d" stroke="#ff953d" stroke-width="0.6574"/><line x1="642.97002" y1="100.39522" x2="631.77964" y2="100.39545" fill="none" stroke="#000" stroke-width="2.62958"/><line x1="642.97002" y1="100.39522" x2="631.77964" y2="100.39545" fill="none" stroke="#fff" stroke-width="1.31479"/><path d="M642.96973,102.34717a1.95191,1.95191,0,1,1,1.95215-1.95215A1.95436,1.95436,0,0,1,642.96973,102.34717Z" fill="#ff953d"/><path d="M642.97,98.67157a1.72365,1.72365,0,1,1-1.72363,1.72366A1.72569,1.72569,0,0,1,642.97,98.67157m0-.457a2.18061,2.18061,0,1,0,2.18066,2.18062A2.18062,2.18062,0,0,0,642.97,98.21461Z"/><path d="M577.34863,144.52588h36.58789a3.375,3.375,0,0,1,3.375,3.375v34.90137a3.376,3.376,0,0,1-3.376,3.376H577.34863a3.376,3.376,0,0,1-3.376-3.376V147.90186A3.376,3.376,0,0,1,577.34863,144.52588Z" fill="#66574b"/><path d="M613.93579,144.85434a3.04633,3.04633,0,0,1,3.04627,3.04633v34.9028a3.04631,3.04631,0,0,1-3.04627,3.04631H577.34827a3.04633,3.04633,0,0,1-3.04639-3.04631v-34.9028a3.04634,3.04634,0,0,1,3.04639-3.04633h36.58752m0-.65739H577.34827a3.70792,3.70792,0,0,0-3.70374,3.70372v34.9028a3.70794,3.70794,0,0,0,3.70374,3.70372h36.58752a3.70782,3.70782,0,0,0,3.70361-3.70372v-34.9028a3.70781,3.70781,0,0,0-3.70361-3.70372Z"/><path d="M577.35059,189.019h36.58887a3.375,3.375,0,0,1,3.375,3.375V227.2959a3.376,3.376,0,0,1-3.376,3.376H577.35156a3.376,3.376,0,0,1-3.376-3.376V192.394A3.375,3.375,0,0,1,577.35059,189.019Z" fill="#66574b"/><path d="M613.9386,189.34761a3.04631,3.04631,0,0,1,3.04626,3.04631v34.9028a3.04632,3.04632,0,0,1-3.04626,3.04633H577.35107a3.04634,3.04634,0,0,1-3.04638-3.04633v-34.9028a3.04633,3.04633,0,0,1,3.04638-3.04631H613.9386m0-.65741H577.35107a3.70793,3.70793,0,0,0-3.70373,3.70372v34.9028a3.70792,3.70792,0,0,0,3.70373,3.70372H613.9386a3.70782,3.70782,0,0,0,3.70361-3.70372v-34.9028a3.70782,3.70782,0,0,0-3.70361-3.70372Z"/><path d="M577.351,189.34765h36.58755a3.04631,3.04631,0,0,1,3.04631,3.04631v6.50057a0,0,0,0,1,0,0H574.30472a0,0,0,0,1,0,0V192.394A3.04631,3.04631,0,0,1,577.351,189.34765Z" fill="#cfb199"/><rect x="621.28418" y="144.5293" width="43.33789" height="86.146" rx="3.375" ry="3.375" fill="#66574b"/><path d="M661.247,144.858a3.0463,3.0463,0,0,1,3.04626,3.04631v79.39607a3.04631,3.04631,0,0,1-3.04626,3.04631H624.6593a3.04631,3.04631,0,0,1-3.04626-3.04631V147.90427a3.0463,3.0463,0,0,1,3.04626-3.04631H661.247m0-.6574H624.6593a3.70782,3.70782,0,0,0-3.70361,3.70371v79.39607a3.70781,3.70781,0,0,0,3.70361,3.7037H661.247a3.70781,3.70781,0,0,0,3.70361-3.7037V147.90427a3.70782,3.70782,0,0,0-3.70361-3.70371Z"/><path d="M624.65362,144.858h36.58755a3.04631,3.04631,0,0,1,3.04631,3.04631V158.3359a0,0,0,0,1,0,0H621.60731a0,0,0,0,1,0,0V147.90427A3.04631,3.04631,0,0,1,624.65362,144.858Z" fill="#cfb199"/><rect x="592.68001" y="78.80373" width="5.91797" height="45.58496" fill="#262626"/><path d="M598.26876,79.13292V124.0594H593.0096V79.13292h5.25916m.65735-.65741h-6.57386v46.2413h6.57386V78.47551Z"/><rect x="639.97786" y="168.79201" width="5.91699" height="45.58496" fill="#262626"/><path d="M645.56563,169.12105V214.0475h-5.25915V169.12105h5.25915m.65735-.65741h-6.57385v46.24127H646.223V168.46364Z"/><rect x="640.30649" y="183.48891" width="5.25917" height="30.55862" fill="#ff953d"/><rect x="593.00957" y="103.0143" width="5.25917" height="21.04511" fill="#ff953d"/><rect x="640.26932" y="182.84233" width="5.25917" height="1.0903" fill="#fff"/><rect x="593.02193" y="102.46604" width="5.25917" height="1.0903" fill="#fff"/><path d="M598.23861,221.17287l.30078-.13282a7.18018,7.18018,0,1,0-5.79395,0l.30078.13282-1.71484,3.88476-.30078-.13281a11.42823,11.42823,0,1,1,9.22363,0l-.30078.13281Z" fill="#262626"/><path d="M595.64205,203.38191a11.0915,11.0915,0,0,1,4.47925,21.24182l-1.4491-3.28283a7.50854,7.50854,0,1,0-6.06006,0l-1.44909,3.28277a11.09139,11.09139,0,0,1,4.479-21.24176m0-.65741a11.7488,11.7488,0,0,0-4.74463,22.50049l.60144.26575.26563-.60163,1.44909-3.28277.26538-.6012-.60119-.26556a6.85108,6.85108,0,1,1,5.52881,0l-.6012.26556.26538.6012,1.4491,3.28283.26562.60163.60144-.26575a11.7489,11.7489,0,0,0-4.74487-22.50055Z"/><path d="M587.85287,214.47722a7.79015,7.79015,0,0,0,4.39119,7.00221l-.61148,1.38531-.61149,1.38531a10.82235,10.82235,0,0,1-6.19769-9.77283Z" fill="#ff953d" stroke="#ff953d" stroke-width="0.6574"/><line x1="595.64207" y1="214.47698" x2="584.46967" y2="214.47722" fill="none" stroke="#000" stroke-width="2.62958"/><line x1="595.64207" y1="214.47698" x2="584.46967" y2="214.47722" fill="none" stroke="#fff" stroke-width="1.31479"/><path d="M595.6416,216.4292a1.95215,1.95215,0,1,1,1.95215-1.95215A1.95353,1.95353,0,0,1,595.6416,216.4292Z" fill="#ff953d"/><path d="M595.64209,212.75334a1.72364,1.72364,0,1,1-1.72376,1.72365,1.72558,1.72558,0,0,1,1.72376-1.72365m0-.457a2.1806,2.1806,0,1,0,2.18054,2.1806,2.18062,2.18062,0,0,0-2.18054-2.1806Z"/><path d="M598.23861,176.40724l.30078-.13281a7.18018,7.18018,0,1,0-5.79395,0l.30078.13281-1.71484,3.88477-.30078-.13282a11.42823,11.42823,0,1,1,9.22363,0l-.30078.13282Z" fill="#262626"/><path d="M595.64205,158.61647a11.0915,11.0915,0,0,1,4.47925,21.24182l-1.4491-3.28284a7.50854,7.50854,0,1,0-6.06006,0l-1.44909,3.28278a11.09139,11.09139,0,0,1,4.479-21.24176m0-.65741a11.7488,11.7488,0,0,0-4.74463,22.50049l.60144.26574.26563-.60162,1.44909-3.28277.26538-.6012-.60119-.26556a6.85108,6.85108,0,1,1,5.52881,0l-.6012.26556.26538.6012,1.4491,3.28283.26562.60163.60144-.26575a11.7489,11.7489,0,0,0-4.74487-22.50055Z"/><path d="M587.85287,169.71176a7.79017,7.79017,0,0,0,4.39119,7.00222l-.61148,1.38531-.61149,1.3853a10.82232,10.82232,0,0,1-6.19769-9.77283Z" fill="#ff953d" stroke="#ff953d" stroke-width="0.6574"/><line x1="595.64207" y1="169.71153" x2="584.42681" y2="169.71176" fill="none" stroke="#000" stroke-width="2.62958"/><line x1="595.64207" y1="169.71153" x2="584.42681" y2="169.71176" fill="none" stroke="#fff" stroke-width="1.31479"/><path d="M595.6416,171.66357a1.95215,1.95215,0,1,1,1.95215-1.95214A1.95352,1.95352,0,0,1,595.6416,171.66357Z" fill="#ff953d"/><path d="M595.64209,167.98788a1.72365,1.72365,0,1,1-1.72376,1.72365,1.72558,1.72558,0,0,1,1.72376-1.72365m0-.45695a2.18061,2.18061,0,1,0,2.18054,2.1806,2.18063,2.18063,0,0,0-2.18054-2.1806Z"/><path d="M577.34821,144.85438h36.58755a3.04631,3.04631,0,0,1,3.04631,3.04631v6.50057a0,0,0,0,1,0,0H574.30189a0,0,0,0,1,0,0v-6.50057A3.04631,3.04631,0,0,1,577.34821,144.85438Z" fill="#cfb199"/></svg>