<svg xmlns="http://www.w3.org/2000/svg" width="1620" height="1380" viewBox="0 0 1620 1380"><title>mod-scheme</title><rect width="1620" height="1380" fill="#202020"/><path d="M50.80957,72.05566H68.5752v3.29H54.71094v9.68164H66.41309v3.33594H54.71094V99.54883h14.334v3.33691H50.80957Z" fill="#b3b3b3"/><path d="M78.02344,90.94824,71.11426,80.04492h4.18262l3.05566,5.0293c.7041,1.22168,1.456,2.53711,2.25586,3.80664h.1875c.6582-1.26953,1.36328-2.585,2.06836-3.80664l2.77246-5.0293h4.042L82.76953,91.37109l7.42578,11.51465H86.0127L82.67578,97.5752c-.79883-1.36329-1.64453-2.77247-2.49121-4.08887h-.1875c-.79883,1.3164-1.55078,2.67871-2.30273,4.08887l-3.10157,5.31054h-4.042Z" fill="#b3b3b3"/><path d="M94.23828,95.83594V83.19434H90.85449V80.28027l3.57227-.23535.46972-6.3916h3.24219v6.3916h6.15723v3.14942H98.13867V95.88281c0,2.82031.89356,4.418,3.52539,4.418a8.2928,8.2928,0,0,0,2.585-.61133l.752,2.91407a14.1112,14.1112,0,0,1-4.23047.8457C95.88281,103.44922,94.23828,100.34766,94.23828,95.83594Z" fill="#b3b3b3"/><path d="M107.11719,91.5127c0-7.47266,5.02832-12.03125,10.24511-12.03125,5.82813,0,9.11719,4.18261,9.11719,10.71484a14.98005,14.98005,0,0,1-.14062,2.209h-15.415c.28222,4.84082,3.24316,7.94239,7.61328,7.94239a10.325,10.325,0,0,0,5.68652-1.78516l1.36328,2.53711a13.59679,13.59679,0,0,1-7.51953,2.34961C111.958,103.44922,107.11719,98.98535,107.11719,91.5127Zm15.97851-1.87989c0-4.60547-2.06738-7.09668-5.63965-7.09668-3.19531,0-6.10937,2.585-6.5791,7.09668Z" fill="#b3b3b3"/><path d="M132.12012,80.04492h3.19629l.3291,4.13574h.14062c1.55078-2.86621,3.90039-4.69921,6.48535-4.69921a5.67258,5.67258,0,0,1,2.44434.46972l-.752,3.38379a6.38689,6.38689,0,0,0-2.209-.376c-1.92676,0-4.22949,1.41016-5.78125,5.26368v14.66308h-3.85351Z" fill="#b3b3b3"/><path d="M148.42773,80.04492H151.624l.3291,3.29h.14063c2.16211-2.16211,4.51172-3.85351,7.66016-3.85351,4.79394,0,6.95605,3.10156,6.95605,8.92871v14.47558h-3.85351v-13.958c0-4.27734-1.31641-6.10937-4.32422-6.10937-2.34961,0-3.94727,1.22168-6.25,3.52441v16.543h-3.8545Z" fill="#b3b3b3"/><path d="M172.72754,96.96387c0-4.98145,4.27637-7.47266,14.00488-8.55371,0-2.91309-.94043-5.7334-4.70019-5.7334a12.41379,12.41379,0,0,0-6.81446,2.44433l-1.5039-2.67871a16.95038,16.95038,0,0,1,8.97656-2.96093c5.59277,0,7.94238,3.71289,7.94238,9.39941v14.00488H187.4375l-.3291-2.72558h-.1416c-2.16114,1.78515-4.69922,3.28906-7.56641,3.28906C175.59375,103.44922,172.72754,101.05273,172.72754,96.96387Zm14.00488.3291V90.94824c-7.61426.94043-10.24512,2.82031-10.24512,5.7334,0,2.585,1.78516,3.666,4.041,3.666C182.7373,100.34766,184.52344,99.2666,186.73242,97.293Z" fill="#b3b3b3"/><path d="M197.8252,98.28027V69.42383h3.85351V98.5625c0,1.22168.51758,1.69141,1.08106,1.69141a3.25253,3.25253,0,0,0,.84668-.09375l.5166,2.91406a5.19908,5.19908,0,0,1-2.209.375C199,103.44922,197.8252,101.61719,197.8252,98.28027Z" fill="#b3b3b3"/><path d="M219.585,72.05566h7.708c9.49316,0,14.56933,5.499,14.56933,15.27442,0,9.82226-5.07617,15.55566-14.38183,15.55566H219.585Zm7.42578,27.63379c7.19043,0,10.80957-4.55859,10.80957-12.35937,0-7.75488-3.61914-12.07813-10.80957-12.07813h-3.52441v24.4375Z" fill="#b3b3b3"/><path d="M246.42285,91.5127c0-7.47266,5.02832-12.03125,10.24512-12.03125,5.82715,0,9.11719,4.18261,9.11719,10.71484a14.97992,14.97992,0,0,1-.14063,2.209h-15.415c.28223,4.84082,3.24219,7.94239,7.61328,7.94239a10.32511,10.32511,0,0,0,5.68653-1.78516l1.36328,2.53711a13.59681,13.59681,0,0,1-7.51953,2.34961C251.26367,103.44922,246.42285,98.98535,246.42285,91.5127Zm15.97852-1.87989c0-4.60547-2.06739-7.09668-5.63965-7.09668-3.19531,0-6.10938,2.585-6.5791,7.09668Z" fill="#b3b3b3"/><path d="M268.37012,80.04492h3.99511l4.32422,12.97168c.65723,2.25586,1.40918,4.5586,2.11426,6.7207h.18848c.65722-2.1621,1.40918-4.46484,2.06738-6.7207l4.32422-12.97168h3.80664l-8.084,22.84082h-4.51172Z" fill="#b3b3b3"/><path d="M292.90332,72.85449a2.68629,2.68629,0,0,1,5.3584,0,2.68629,2.68629,0,0,1-5.3584,0Zm.70508,7.19043h3.85351v22.84082H293.6084Z" fill="#b3b3b3"/><path d="M303.47852,91.5127c0-7.66114,5.12207-12.03125,10.99707-12.03125a9.47959,9.47959,0,0,1,6.67382,2.67871l-1.97461,2.53808a6.69754,6.69754,0,0,0-4.55859-2.02148c-4.13574,0-7.14355,3.57226-7.14355,8.83594,0,5.21679,2.86718,8.74121,7.0498,8.74121a8.11627,8.11627,0,0,0,5.35742-2.30274l1.69239,2.585a11.14309,11.14309,0,0,1-7.37891,2.91309C308.13086,103.44922,303.47852,99.0791,303.47852,91.5127Z" fill="#b3b3b3"/><path d="M323.92383,91.5127c0-7.47266,5.02832-12.03125,10.24512-12.03125,5.82812,0,9.11718,4.18261,9.11718,10.71484a14.98005,14.98005,0,0,1-.14062,2.209h-15.415c.28223,4.84082,3.24316,7.94239,7.61328,7.94239a10.325,10.325,0,0,0,5.68652-1.78516l1.36328,2.53711a13.59679,13.59679,0,0,1-7.51953,2.34961C328.76465,103.44922,323.92383,98.98535,323.92383,91.5127Zm15.97851-1.87989c0-4.60547-2.06738-7.09668-5.63964-7.09668-3.19532,0-6.10938,2.585-6.57911,7.09668Z" fill="#b3b3b3"/><path d="M346.3877,100.30078l1.92773-2.585a10.26651,10.26651,0,0,0,6.7207,2.72559c3.00782,0,4.51172-1.59766,4.51172-3.57129,0-2.34961-2.72656-3.38379-5.2168-4.32324-3.24316-1.17579-6.81445-2.72657-6.81445-6.58008,0-3.666,2.91309-6.48535,7.84766-6.48535a11.39729,11.39729,0,0,1,7.09668,2.585l-1.833,2.44336a8.48091,8.48091,0,0,0-5.2168-2.02051c-2.86621,0-4.18261,1.55078-4.18261,3.29,0,2.16113,2.49121,2.96,5.07617,3.94726,3.29,1.22168,6.95508,2.585,6.95508,6.90821,0,3.71289-2.96,6.81445-8.36524,6.81445A13.74764,13.74764,0,0,1,346.3877,100.30078Z" fill="#b3b3b3"/><path d="M436.30469,72.05566h3.90136V84.97949H454.54V72.05566h3.94726v30.83008H454.54V88.36328h-14.334v14.52246h-3.90136Z" fill="#b3b3b3"/><path d="M465.16309,96.96387c0-4.98145,4.27636-7.47266,14.00488-8.55371,0-2.91309-.94043-5.7334-4.7002-5.7334a12.41376,12.41376,0,0,0-6.81445,2.44433l-1.50391-2.67871a16.95045,16.95045,0,0,1,8.97657-2.96093c5.59277,0,7.94238,3.71289,7.94238,9.39941v14.00488h-3.19531l-.3291-2.72558h-.14161c-2.16113,1.78515-4.69922,3.28906-7.5664,3.28906C468.0293,103.44922,465.16309,101.05273,465.16309,96.96387Zm14.00488.3291V90.94824c-7.61426.94043-10.24512,2.82031-10.24512,5.7334,0,2.585,1.78516,3.666,4.041,3.666C475.17285,100.34766,476.959,99.2666,479.168,97.293Z" fill="#b3b3b3"/><path d="M490.26074,80.04492H493.457l.3291,4.13574h.14063c1.55078-2.86621,3.90039-4.69921,6.48535-4.69921a5.67264,5.67264,0,0,1,2.44434.46972l-.752,3.38379a6.38684,6.38684,0,0,0-2.209-.376c-1.92676,0-4.22949,1.41016-5.78125,5.26368v14.66308h-3.85352Z" fill="#b3b3b3"/><path d="M504.4541,91.5127c0-7.42579,4.69922-12.03125,9.916-12.03125,2.63183,0,4.37109.98632,6.3916,2.63183l-.1875-3.90137V69.42383h3.90039v33.46191H521.2793l-.3291-2.67871h-.14161a10.304,10.304,0,0,1-6.9082,3.24219C508.167,103.44922,504.4541,99.126,504.4541,91.5127Zm16.12012,5.54589V85.12109a7.94861,7.94861,0,0,0-5.5459-2.39746c-3.666,0-6.58008,3.52539-6.58008,8.74219,0,5.45117,2.30371,8.74121,6.29785,8.74121C516.86133,100.207,518.69434,99.17285,520.57422,97.05859Z" fill="#b3b3b3"/><path d="M529.458,80.04492h3.94726L536.79,93.251c.5166,2.16211.93945,4.23047,1.3623,6.34472h.18848c.5166-2.11425.98633-4.22949,1.55078-6.34472L543.416,80.04492h3.75976L550.74805,93.251c.56347,2.16211,1.08105,4.23047,1.59765,6.34472h.1875c.51758-2.11425.94043-4.18261,1.41016-6.34472l3.33691-13.20606h3.666l-6.10938,22.84082h-4.70019l-3.29-12.2666c-.56348-2.16113-.98633-4.27637-1.55078-6.5791h-.1875c-.51758,2.30273-.98731,4.46484-1.59863,6.626l-3.19532,12.21972h-4.51172Z" fill="#b3b3b3"/><path d="M564.0498,96.96387c0-4.98145,4.27637-7.47266,14.00489-8.55371,0-2.91309-.94043-5.7334-4.7002-5.7334A12.41376,12.41376,0,0,0,566.54,85.12109l-1.50391-2.67871a16.95045,16.95045,0,0,1,8.97657-2.96093c5.59277,0,7.94238,3.71289,7.94238,9.39941v14.00488h-3.19531l-.32911-2.72558h-.1416c-2.16113,1.78515-4.69922,3.28906-7.5664,3.28906C566.916,103.44922,564.0498,101.05273,564.0498,96.96387Zm14.00489.3291V90.94824c-7.61426.94043-10.24512,2.82031-10.24512,5.7334,0,2.585,1.78516,3.666,4.041,3.666C574.05957,100.34766,575.8457,99.2666,578.05469,97.293Z" fill="#b3b3b3"/><path d="M589.14746,80.04492h3.19629l.3291,4.13574h.14063c1.55078-2.86621,3.90039-4.69921,6.48535-4.69921a5.67257,5.67257,0,0,1,2.44433.46972l-.75195,3.38379a6.38684,6.38684,0,0,0-2.209-.376c-1.92676,0-4.2295,1.41016-5.78125,5.26368v14.66308h-3.85352Z" fill="#b3b3b3"/><path d="M603.294,91.5127c0-7.47266,5.02832-12.03125,10.24511-12.03125,5.82715,0,9.11719,4.18261,9.11719,10.71484a14.97855,14.97855,0,0,1-.14063,2.209h-15.415c.28222,4.84082,3.24218,7.94239,7.61328,7.94239a10.32507,10.32507,0,0,0,5.68652-1.78516l1.36328,2.53711a13.59681,13.59681,0,0,1-7.51953,2.34961C608.13477,103.44922,603.294,98.98535,603.294,91.5127Zm15.97851-1.87989c0-4.60547-2.06738-7.09668-5.63965-7.09668-3.19531,0-6.10937,2.585-6.5791,7.09668Z" fill="#b3b3b3"/><path d="M635.81738,98.89062,638.167,96.165a12.07712,12.07712,0,0,0,8.50684,3.85351c4.042,0,6.43847-2.0205,6.43847-5.02832,0-3.14843-2.209-4.13574-5.12207-5.45117l-4.418-1.92773c-2.91407-1.22168-6.251-3.43067-6.251-7.94238,0-4.69922,4.08887-8.17676,9.68164-8.17676a12.7914,12.7914,0,0,1,9.11719,3.80664l-2.11426,2.53711a9.83386,9.83386,0,0,0-7.00293-2.91309c-3.43066,0-5.7334,1.73828-5.7334,4.51172,0,2.96,2.67871,4.08887,5.12207,5.12207l4.3711,1.87988c3.57226,1.55078,6.34472,3.666,6.34472,8.22461,0,4.8877-3.99512,8.78809-10.48047,8.78809A14.94944,14.94944,0,0,1,635.81738,98.89062Z" fill="#b3b3b3"/><path d="M661.10352,91.5127c0-7.66114,4.98144-12.03125,10.57421-12.03125S682.252,83.85156,682.252,91.5127c0,7.5664-4.98144,11.93652-10.57422,11.93652S661.10352,99.0791,661.10352,91.5127Zm17.15332,0c0-5.26368-2.63184-8.83594-6.57911-8.83594-3.90136,0-6.58007,3.57226-6.58007,8.83594,0,5.21679,2.67871,8.74121,6.58007,8.74121C675.625,100.25391,678.25684,96.72949,678.25684,91.5127Z" fill="#b3b3b3"/><path d="M687.93945,94.52051V80.04492h3.90137v13.958c0,4.27734,1.26856,6.11035,4.27637,6.11035,2.34961,0,3.99511-1.17578,6.15722-3.85449V80.04492h3.85352v22.84082h-3.19629l-.3291-3.57129h-.14063c-2.11523,2.49024-4.37109,4.13477-7.51953,4.13477C690.10156,103.44922,687.93945,100.34766,687.93945,94.52051Z" fill="#b3b3b3"/><path d="M713.83594,80.04492h3.19629l.3291,4.13574h.14062c1.55078-2.86621,3.90039-4.69921,6.48535-4.69921a5.67258,5.67258,0,0,1,2.44434.46972l-.75195,3.38379a6.38689,6.38689,0,0,0-2.209-.376c-1.92675,0-4.22949,1.41016-5.78027,5.26368v14.66308h-3.85449Z" fill="#b3b3b3"/><path d="M727.9834,91.5127c0-7.66114,5.12207-12.03125,10.99707-12.03125a9.48147,9.48147,0,0,1,6.67383,2.67871l-1.97364,2.53808a6.70178,6.70178,0,0,0-4.55957-2.02148c-4.13574,0-7.14355,3.57226-7.14355,8.83594,0,5.21679,2.86719,8.74121,7.0498,8.74121a8.11629,8.11629,0,0,0,5.35743-2.30274l1.69238,2.585a11.14119,11.14119,0,0,1-7.37891,2.91309C732.63574,103.44922,727.9834,99.0791,727.9834,91.5127Z" fill="#b3b3b3"/><path d="M748.42773,91.5127c0-7.47266,5.02832-12.03125,10.24512-12.03125,5.82813,0,9.11719,4.18261,9.11719,10.71484a14.97992,14.97992,0,0,1-.14063,2.209h-15.415c.28222,4.84082,3.24316,7.94239,7.61328,7.94239a10.32507,10.32507,0,0,0,5.68652-1.78516l1.36328,2.53711a13.59681,13.59681,0,0,1-7.51953,2.34961C753.26855,103.44922,748.42773,98.98535,748.42773,91.5127Zm15.97852-1.87989c0-4.60547-2.06738-7.09668-5.63965-7.09668-3.19531,0-6.10937,2.585-6.5791,7.09668Z" fill="#b3b3b3"/><path d="M770.89355,100.30078l1.92676-2.585a10.266,10.266,0,0,0,6.71973,2.72559c3.00781,0,4.51172-1.59766,4.51172-3.57129,0-2.34961-2.72559-3.38379-5.21582-4.32324-3.24317-1.17579-6.81543-2.72657-6.81543-6.58008,0-3.666,2.91406-6.48535,7.84863-6.48535a11.39729,11.39729,0,0,1,7.09668,2.585l-1.833,2.44336a8.48046,8.48046,0,0,0-5.21582-2.02051c-2.86719,0-4.18359,1.55078-4.18359,3.29,0,2.16113,2.49121,2.96,5.07617,3.94726,3.29,1.22168,6.95508,2.585,6.95508,6.90821,0,3.71289-2.96094,6.81445-8.36524,6.81445A13.74491,13.74491,0,0,1,770.89355,100.30078Z" fill="#b3b3b3"/><path d="M866.45312,72.05566h4.7002l5.92188,16.44922c.75195,2.11426,1.45605,4.32324,2.208,6.43848h.18848c.75195-2.11524,1.36328-4.32422,2.11523-6.43848l5.82715-16.44922h4.74707v30.83008h-3.666V85.91992c0-2.72558.3291-6.3916.5166-9.11719h-.1875l-2.44434,7.002-5.82715,15.97949h-2.585l-5.82812-15.97949-2.44336-7.002h-.18848c.18848,2.72559.47071,6.39161.47071,9.11719v16.96582h-3.5254Z" fill="#b3b3b3"/><path d="M898.83691,96.96387c0-4.98145,4.27637-7.47266,14.00489-8.55371,0-2.91309-.94043-5.7334-4.7002-5.7334a12.41376,12.41376,0,0,0-6.81445,2.44433l-1.50391-2.67871a16.95044,16.95044,0,0,1,8.97656-2.96093c5.59278,0,7.94239,3.71289,7.94239,9.39941v14.00488h-3.19531l-.32911-2.72558h-.1416c-2.16113,1.78515-4.69922,3.28906-7.5664,3.28906C901.70312,103.44922,898.83691,101.05273,898.83691,96.96387Zm14.00489.3291V90.94824c-7.61426.94043-10.24512,2.82031-10.24512,5.7334,0,2.585,1.78516,3.666,4.041,3.666C908.84668,100.34766,910.63281,99.2666,912.8418,97.293Z" fill="#b3b3b3"/><path d="M922.24219,91.5127c0-7.66114,5.12207-12.03125,10.99707-12.03125a9.47964,9.47964,0,0,1,6.67383,2.67871l-1.97461,2.53808a6.69758,6.69758,0,0,0-4.5586-2.02148c-4.13574,0-7.14355,3.57226-7.14355,8.83594,0,5.21679,2.86719,8.74121,7.0498,8.74121a8.11625,8.11625,0,0,0,5.35742-2.30274l1.69239,2.585a11.14309,11.14309,0,0,1-7.37891,2.91309C926.89453,103.44922,922.24219,99.0791,922.24219,91.5127Z" fill="#b3b3b3"/><path d="M945.36523,80.04492h3.19629l.3291,4.13574h.14063c1.55078-2.86621,3.90039-4.69921,6.48535-4.69921a5.67261,5.67261,0,0,1,2.44434.46972l-.752,3.38379A6.38684,6.38684,0,0,0,955,82.959c-1.92676,0-4.22949,1.41016-5.78027,5.26368v14.66308h-3.8545Z" fill="#b3b3b3"/><path d="M959.5127,91.5127c0-7.66114,4.98144-12.03125,10.57421-12.03125s10.57422,4.37011,10.57422,12.03125c0,7.5664-4.98144,11.93652-10.57422,11.93652S959.5127,99.0791,959.5127,91.5127Zm17.15332,0c0-5.26368-2.63184-8.83594-6.57911-8.83594-3.90039,0-6.58007,3.57226-6.58007,8.83594,0,5.21679,2.67968,8.74121,6.58007,8.74121C974.03418,100.25391,976.666,96.72949,976.666,91.5127Z" fill="#b3b3b3"/><path d="M994.667,87.4707c0-9.916,5.82813-15.97851,13.67676-15.97851a11.24475,11.24475,0,0,1,8.459,3.80664l-2.11425,2.53711a8.42918,8.42918,0,0,0-6.29786-2.91309c-5.82714,0-9.68164,4.793-9.68164,12.4541,0,7.75391,3.7129,12.6416,9.541,12.6416a9.3035,9.3035,0,0,0,7.14355-3.47753l2.16114,2.44433a11.92822,11.92822,0,0,1-9.44629,4.46387C1000.40137,103.44922,994.667,97.52832,994.667,87.4707Z" fill="#b3b3b3"/><path d="M1021.22266,91.5127c0-7.66114,4.98144-12.03125,10.57422-12.03125s10.57421,4.37011,10.57421,12.03125c0,7.5664-4.98144,11.93652-10.57421,11.93652S1021.22266,99.0791,1021.22266,91.5127Zm17.15332,0c0-5.26368-2.63184-8.83594-6.5791-8.83594-3.90137,0-6.58008,3.57226-6.58008,8.83594,0,5.21679,2.67871,8.74121,6.58008,8.74121C1035.74414,100.25391,1038.376,96.72949,1038.376,91.5127Z" fill="#b3b3b3"/><path d="M1048.3877,80.04492h3.19628l.32911,3.29h.14062c2.16211-2.16211,4.51172-3.85351,7.66016-3.85351,4.79394,0,6.95605,3.10156,6.95605,8.92871v14.47558h-3.85351v-13.958c0-4.27734-1.31641-6.10937-4.32422-6.10937-2.34961,0-3.94727,1.22168-6.251,3.52441v16.543h-3.85351Z" fill="#b3b3b3"/><path d="M1074.75488,95.83594V83.19434h-3.38379V80.28027l3.57129-.23535.47071-6.3916h3.24218v6.3916h6.15723v3.14942h-6.15723V95.88281c0,2.82031.89356,4.418,3.52539,4.418a8.2928,8.2928,0,0,0,2.585-.61133l.752,2.91407a14.11114,14.11114,0,0,1-4.23047.8457C1076.39941,103.44922,1074.75488,100.34766,1074.75488,95.83594Z" fill="#b3b3b3"/><path d="M1089.98242,80.04492h3.19629l.3291,4.13574h.14063c1.55078-2.86621,3.90039-4.69921,6.48535-4.69921a5.67257,5.67257,0,0,1,2.44433.46972l-.75195,3.38379a6.38684,6.38684,0,0,0-2.209-.376c-1.92676,0-4.22949,1.41016-5.78028,5.26368v14.66308h-3.85449Z" fill="#b3b3b3"/><path d="M1104.12988,91.5127c0-7.66114,4.98145-12.03125,10.57422-12.03125s10.57422,4.37011,10.57422,12.03125c0,7.5664-4.98144,11.93652-10.57422,11.93652S1104.12988,99.0791,1104.12988,91.5127Zm17.15332,0c0-5.26368-2.63183-8.83594-6.5791-8.83594-3.90039,0-6.58008,3.57226-6.58008,8.83594,0,5.21679,2.67969,8.74121,6.58008,8.74121C1118.65137,100.25391,1121.2832,96.72949,1121.2832,91.5127Z" fill="#b3b3b3"/><path d="M1131.29492,98.28027V69.42383h3.85449V98.5625c0,1.22168.51661,1.69141,1.08008,1.69141a3.24872,3.24872,0,0,0,.84668-.09375l.5166,2.91406a5.199,5.199,0,0,1-2.209.375C1132.46973,103.44922,1131.29492,101.61719,1131.29492,98.28027Z" fill="#b3b3b3"/><path d="M1140.74121,100.30078l1.92774-2.585a10.26651,10.26651,0,0,0,6.7207,2.72559c3.00781,0,4.51172-1.59766,4.51172-3.57129,0-2.34961-2.72657-3.38379-5.2168-4.32324-3.24316-1.17579-6.81445-2.72657-6.81445-6.58008,0-3.666,2.91308-6.48535,7.84765-6.48535a11.39729,11.39729,0,0,1,7.09668,2.585l-1.833,2.44336a8.481,8.481,0,0,0-5.2168-2.02051c-2.86621,0-4.18262,1.55078-4.18262,3.29,0,2.16113,2.49121,2.96,5.07617,3.94726,3.29,1.22168,6.95508,2.585,6.95508,6.90821,0,3.71289-2.96,6.81445-8.36523,6.81445A13.74767,13.74767,0,0,1,1140.74121,100.30078Z" fill="#b3b3b3"/><path d="M1243.42285,75.3457h-9.30469v-3.29h22.5586v3.29h-9.30567v27.54h-3.94824Z" fill="#b3b3b3"/><path d="M1257.00684,96.96387c0-4.98145,4.27636-7.47266,14.00488-8.55371,0-2.91309-.94043-5.7334-4.7002-5.7334a12.41376,12.41376,0,0,0-6.81445,2.44433l-1.50391-2.67871a16.95045,16.95045,0,0,1,8.97657-2.96093c5.59277,0,7.94238,3.71289,7.94238,9.39941v14.00488h-3.19531l-.3291-2.72558h-.14161c-2.16113,1.78515-4.69921,3.28906-7.5664,3.28906C1259.87305,103.44922,1257.00684,101.05273,1257.00684,96.96387Zm14.00488.3291V90.94824c-7.61426.94043-10.24512,2.82031-10.24512,5.7334,0,2.585,1.78516,3.666,4.041,3.666C1267.0166,100.34766,1268.80273,99.2666,1271.01172,97.293Z" fill="#b3b3b3"/><path d="M1282.10449,80.04492h3.19629l.3291,4.13574h.14063c1.55078-2.86621,3.90039-4.69921,6.48535-4.69921a5.67264,5.67264,0,0,1,2.44434.46972l-.752,3.38379a6.38684,6.38684,0,0,0-2.209-.376c-1.92676,0-4.22949,1.41016-5.78125,5.26368v14.66308h-3.85352Z" fill="#b3b3b3"/><path d="M1296.2041,107.25684c0-1.92676,1.26856-3.75977,3.33594-5.16993v-.18847a4.21755,4.21755,0,0,1-2.02051-3.71289,5.35051,5.35051,0,0,1,2.49121-4.2295v-.1875a8.085,8.085,0,0,1-2.96094-6.15722c0-4.98145,3.94727-8.12988,8.60059-8.12988a9.11477,9.11477,0,0,1,3.24219.56347h7.94238v2.96094h-4.69922a6.62405,6.62405,0,0,1,1.87988,4.70019c0,4.8877-3.71289,7.94239-8.36523,7.94239a7.98162,7.98162,0,0,1-3.43066-.79883,3.46134,3.46134,0,0,0-1.457,2.72559c0,1.457.93945,2.49121,4.041,2.49121h4.418c5.31055,0,7.99023,1.64453,7.99023,5.45117,0,4.22949-4.46484,7.89551-11.56152,7.89551C1300.05762,113.41309,1296.2041,111.2041,1296.2041,107.25684Zm17.24805-1.17481c0-2.11523-1.64551-2.82031-4.60645-2.82031h-3.94726a11.11192,11.11192,0,0,1-2.96094-.376,4.80991,4.80991,0,0,0-2.34961,3.85352c0,2.44433,2.49023,3.99512,6.626,3.99512C1310.585,110.73438,1313.45215,108.47852,1313.45215,106.082Zm-2.96094-18.4707c0-3.33594-2.16211-5.31055-4.84082-5.31055s-4.84082,1.97461-4.84082,5.31055c0,3.33691,2.209,5.45215,4.84082,5.45215S1310.49121,90.94824,1310.49121,87.61133Z" fill="#b3b3b3"/><path d="M1319.28125,91.5127c0-7.47266,5.02832-12.03125,10.24512-12.03125,5.82812,0,9.11718,4.18261,9.11718,10.71484a14.98005,14.98005,0,0,1-.14062,2.209h-15.415c.28223,4.84082,3.24316,7.94239,7.61328,7.94239a10.32511,10.32511,0,0,0,5.68653-1.78516l1.36328,2.53711a13.59684,13.59684,0,0,1-7.51953,2.34961C1324.12207,103.44922,1319.28125,98.98535,1319.28125,91.5127Zm15.97852-1.87989c0-4.60547-2.06739-7.09668-5.63965-7.09668-3.19532,0-6.10938,2.585-6.5791,7.09668Z" fill="#b3b3b3"/><path d="M1344.47266,95.83594V83.19434h-3.38379V80.28027l3.57226-.23535.46973-6.3916h3.24219v6.3916h6.15722v3.14942h-6.15722V95.88281c0,2.82031.89355,4.418,3.52539,4.418a8.2928,8.2928,0,0,0,2.585-.61133l.75195,2.91407a14.11114,14.11114,0,0,1-4.23047.8457C1346.11719,103.44922,1344.47266,100.34766,1344.47266,95.83594Z" fill="#b3b3b3"/><path d="M1369.47656,72.05566h8.78906c6.90821,0,11.56055,2.30274,11.56055,9.07032,0,6.48535-4.60547,9.54-11.37305,9.54h-5.07519v12.21972h-3.90137Zm8.50684,15.415c5.35742,0,7.94238-1.97363,7.94238-6.34472,0-4.46485-2.72558-5.92188-8.13086-5.92188h-4.417V87.4707Z" fill="#b3b3b3"/><path d="M1392.27051,96.96387c0-4.98145,4.27734-7.47266,14.00586-8.55371,0-2.91309-.94043-5.7334-4.7002-5.7334a12.41376,12.41376,0,0,0-6.81445,2.44433l-1.50391-2.67871a16.95045,16.95045,0,0,1,8.97657-2.96093c5.59277,0,7.94238,3.71289,7.94238,9.39941v14.00488h-3.19531l-.32911-2.72558h-.1416c-2.16113,1.78515-4.69922,3.28906-7.5664,3.28906C1395.1377,103.44922,1392.27051,101.05273,1392.27051,96.96387Zm14.00586.3291V90.94824c-7.61328.94043-10.2461,2.82031-10.2461,5.7334,0,2.585,1.78614,3.666,4.042,3.666C1402.28125,100.34766,1404.06738,99.2666,1406.27637,97.293Z" fill="#b3b3b3"/><path d="M1417.36914,80.04492h3.19629l.3291,4.13574h.14063c1.55078-2.86621,3.90039-4.69921,6.48535-4.69921a5.67257,5.67257,0,0,1,2.44433.46972l-.752,3.38379a6.38684,6.38684,0,0,0-2.209-.376c-1.92676,0-4.2295,1.41016-5.78028,5.26368v14.66308h-3.85449Z" fill="#b3b3b3"/><path d="M1431.13965,96.96387c0-4.98145,4.27734-7.47266,14.00586-8.55371,0-2.91309-.94043-5.7334-4.7002-5.7334a12.41376,12.41376,0,0,0-6.81445,2.44433l-1.50391-2.67871a16.95045,16.95045,0,0,1,8.97657-2.96093c5.59277,0,7.94238,3.71289,7.94238,9.39941v14.00488h-3.19531l-.32911-2.72558h-.1416c-2.16113,1.78515-4.69922,3.28906-7.5664,3.28906C1434.00684,103.44922,1431.13965,101.05273,1431.13965,96.96387Zm14.00586.3291V90.94824c-7.61328.94043-10.2461,2.82031-10.2461,5.7334,0,2.585,1.78614,3.666,4.042,3.666C1441.15039,100.34766,1442.93652,99.2666,1445.14551,97.293Z" fill="#b3b3b3"/><path d="M1456.2373,80.04492h3.19629l.32911,3.29h.14062c1.97363-2.16211,4.37109-3.85351,7.09668-3.85351,3.47754,0,5.35742,1.64453,6.29785,4.37011,2.39649-2.584,4.7461-4.37011,7.51953-4.37011,4.69922,0,6.95508,3.10156,6.95508,8.92871v14.47558H1483.919v-13.958c0-4.27734-1.36329-6.10937-4.2295-6.10937-1.78613,0-3.61914,1.1748-5.73437,3.52441v16.543h-3.85352v-13.958c0-4.27734-1.3623-6.10937-4.27636-6.10937-1.69239,0-3.61915,1.1748-5.73438,3.52441v16.543h-3.85352Z" fill="#b3b3b3"/><path d="M1493.50879,91.5127c0-7.47266,5.02832-12.03125,10.24512-12.03125,5.82714,0,9.11718,4.18261,9.11718,10.71484a14.98005,14.98005,0,0,1-.14062,2.209h-15.415c.28223,4.84082,3.24219,7.94239,7.61328,7.94239a10.325,10.325,0,0,0,5.68652-1.78516l1.36329,2.53711a13.59685,13.59685,0,0,1-7.51954,2.34961C1498.34961,103.44922,1493.50879,98.98535,1493.50879,91.5127Zm15.97851-1.87989c0-4.60547-2.06738-7.09668-5.63964-7.09668-3.19532,0-6.10938,2.585-6.57911,7.09668Z" fill="#b3b3b3"/><path d="M1518.7002,95.83594V83.19434h-3.38379V80.28027l3.57129-.23535.4707-6.3916h3.24219v6.3916h6.15722v3.14942h-6.15722V95.88281c0,2.82031.89355,4.418,3.52539,4.418a8.29293,8.29293,0,0,0,2.585-.61133l.752,2.91407a14.11114,14.11114,0,0,1-4.23047.8457C1520.34473,103.44922,1518.7002,100.34766,1518.7002,95.83594Z" fill="#b3b3b3"/><path d="M1531.5791,91.5127c0-7.47266,5.02832-12.03125,10.24512-12.03125,5.82715,0,9.11719,4.18261,9.11719,10.71484a14.97992,14.97992,0,0,1-.14063,2.209h-15.415c.28223,4.84082,3.24219,7.94239,7.61328,7.94239a10.32511,10.32511,0,0,0,5.68653-1.78516l1.36328,2.53711a13.59681,13.59681,0,0,1-7.51953,2.34961C1536.41992,103.44922,1531.5791,98.98535,1531.5791,91.5127Zm15.97852-1.87989c0-4.60547-2.06739-7.09668-5.63965-7.09668-3.19531,0-6.10938,2.585-6.5791,7.09668Z" fill="#b3b3b3"/><path d="M1556.582,80.04492h3.19629l.3291,4.13574h.14063c1.55078-2.86621,3.90039-4.69921,6.48535-4.69921a5.67257,5.67257,0,0,1,2.44433.46972l-.752,3.38379a6.38684,6.38684,0,0,0-2.209-.376c-1.92676,0-4.2295,1.41016-5.78028,5.26368v14.66308H1556.582Z" fill="#b3b3b3"/><path d="M1570.165,100.30078l1.92676-2.585a10.266,10.266,0,0,0,6.71972,2.72559c3.00782,0,4.51172-1.59766,4.51172-3.57129,0-2.34961-2.72558-3.38379-5.21582-4.32324-3.24316-1.17579-6.81543-2.72657-6.81543-6.58008,0-3.666,2.91406-6.48535,7.84863-6.48535a11.39729,11.39729,0,0,1,7.09668,2.585l-1.833,2.44336a8.48048,8.48048,0,0,0-5.21582-2.02051c-2.86719,0-4.1836,1.55078-4.1836,3.29,0,2.16113,2.49121,2.96,5.07617,3.94726,3.29,1.22168,6.95508,2.585,6.95508,6.90821,0,3.71289-2.96093,6.81445-8.36523,6.81445A13.74487,13.74487,0,0,1,1570.165,100.30078Z" fill="#b3b3b3"/><path d="M1133.51465,999.31934h4.60058l5.79688,16.10254c.73535,2.06933,1.42578,4.23242,2.16211,6.30273h.18359c.73633-2.07031,1.334-4.2334,2.07031-6.30273l5.70508-16.10254h4.64649V1029.499h-3.58887V1012.8916c0-2.66894.32227-6.25683.50586-8.92578h-.18359l-2.39258,6.85547-5.7041,15.6416h-2.53028l-5.70508-15.6416-2.39257-6.85547h-.1836c.1836,2.66895.46,6.25684.46,8.92578V1029.499h-3.45019Z" fill="#b3b3b3"/><path d="M1164.93164,1018.36621c0-7.499,4.877-11.77734,10.35156-11.77734s10.35059,4.27832,10.35059,11.77734c0,7.40625-4.876,11.68457-10.35059,11.68457S1164.93164,1025.77246,1164.93164,1018.36621Zm16.792,0c0-5.15332-2.57617-8.64941-6.44043-8.64941-3.81836,0-6.4414,3.49609-6.4414,8.64941,0,5.10645,2.623,8.55664,6.4414,8.55664C1179.14746,1026.92285,1181.72363,1023.47266,1181.72363,1018.36621Z" fill="#b3b3b3"/><path d="M1189.90918,1018.36621c0-7.26953,4.60059-11.77734,9.707-11.77734,2.57617,0,4.27832.96582,6.25684,2.57617l-.1836-3.81836v-8.60352h3.81836V1029.499h-3.1289l-.32129-2.62207h-.13867a10.0863,10.0863,0,0,1-6.7627,3.17383C1193.544,1030.05078,1189.90918,1025.81836,1189.90918,1018.36621Zm15.78027,5.42774v-11.68457a7.78365,7.78365,0,0,0-5.42871-2.34668c-3.58886,0-6.4414,3.45019-6.4414,8.55664,0,5.33691,2.25488,8.55761,6.165,8.55761C1202.05469,1026.877,1203.84863,1025.86426,1205.68945,1023.794Z" fill="#b3b3b3"/><path d="M1232.82812,999.31934h4.32422l10.21289,30.17968h-4.09472l-2.85156-9.20117h-10.99512l-2.89844,9.20117h-3.91113Zm-2.43847,17.89648h9.0625l-1.42578-4.60059c-1.10449-3.35839-2.07032-6.67089-3.03614-10.167h-.18457c-.91992,3.4961-1.88574,6.8086-2.99023,10.167Z" fill="#b3b3b3"/><path d="M1251.27246,1007.14062h3.12793l.32227,3.22071h.13769c1.93262-2.11719,4.2793-3.77246,6.94727-3.77246,3.40429,0,5.24414,1.60937,6.165,4.27832,2.3457-2.53028,4.64648-4.27832,7.36035-4.27832,4.60058,0,6.80859,3.03613,6.80859,8.74023V1029.499h-3.77246v-13.66308c0-4.18653-1.334-5.98145-4.13965-5.98145-1.749,0-3.543,1.15039-5.61328,3.4502V1029.499h-3.77246v-13.66308c0-4.18653-1.334-5.98145-4.18652-5.98145-1.65625,0-3.542,1.15039-5.61231,3.4502V1029.499h-3.77246Z" fill="#b3b3b3"/><path d="M1287.75,1018.36621c0-7.499,4.877-11.77734,10.35156-11.77734s10.35059,4.27832,10.35059,11.77734c0,7.40625-4.876,11.68457-10.35059,11.68457S1287.75,1025.77246,1287.75,1018.36621Zm16.792,0c0-5.15332-2.57617-8.64941-6.44043-8.64941-3.81836,0-6.4414,3.49609-6.4414,8.64941,0,5.10645,2.623,8.55664,6.4414,8.55664C1301.96582,1026.92285,1304.542,1023.47266,1304.542,1018.36621Z" fill="#b3b3b3"/><path d="M1314.01562,1021.31055v-14.16993h3.81836v13.66309c0,4.18652,1.24219,5.98145,4.18653,5.98145,2.30078,0,3.91113-1.15039,6.02734-3.77246v-15.87208h3.77246v22.3584h-3.1289l-.32227-3.49609h-.13769c-2.07032,2.4375-4.27833,4.04785-7.36133,4.04785C1316.13184,1030.05078,1314.01562,1027.01465,1314.01562,1021.31055Z" fill="#b3b3b3"/><path d="M1339.36133,1007.14062h3.12793l.32226,3.22071h.13868c2.11621-2.11719,4.416-3.77246,7.498-3.77246,4.69238,0,6.80957,3.03613,6.80957,8.74023V1029.499h-3.77246v-13.66308c0-4.18653-1.28906-5.98145-4.2334-5.98145-2.2998,0-3.86425,1.19629-6.11816,3.4502V1029.499h-3.77246Z" fill="#b3b3b3"/><path d="M1365.167,1022.59863v-12.376h-3.31152v-2.85254l3.49609-.2295.46-6.25683h3.17481v6.25683h6.02637v3.082h-6.02637v12.42187c0,2.75977.874,4.32422,3.45019,4.32422a8.14046,8.14046,0,0,0,2.53028-.59766l.73632,2.85157a13.80552,13.80552,0,0,1-4.14062.82812C1366.77734,1030.05078,1365.167,1027.01465,1365.167,1022.59863Z" fill="#b3b3b3"/><line x1="316.33337" y1="270.63794" x2="435.0907" y2="209.92505" fill="none" stroke="gray" stroke-width="4"/><polygon points="433.677 221.089 460.333 197.02 425.213 204.533 433.677 221.089" fill="gray"/><line x1="1150.67334" y1="311" x2="1329.60327" y2="241.29126" fill="none" stroke="gray" stroke-width="4"/><polygon points="1327.07 252.256 1356.02 231 1320.32 234.93 1327.07 252.256" fill="gray"/><line x1="1150.67334" y1="470.77002" x2="1330.64575" y2="381.08228" fill="none" stroke="gray" stroke-width="4"/><polygon points="1329.117 392.231 1356.02 368.438 1320.824 375.59 1329.117 392.231" fill="gray"/><line x1="1150.67334" y1="634" x2="1337.21582" y2="423.52197" fill="none" stroke="gray" stroke-width="4"/><polygon points="1339.968 434.434 1356.02 402.306 1326.052 422.101 1339.968 434.434" fill="gray"/><line x1="1150.67334" y1="791" x2="1330.09937" y2="870.49316" fill="none" stroke="gray" stroke-width="4"/><polygon points="1320.536 876.425 1356.02 881.977 1328.068 859.425 1320.536 876.425" fill="gray"/><line x1="1150.67334" y1="791" x2="1338.53052" y2="551.32764" fill="none" stroke="gray" stroke-width="4"/><polygon points="1341.936 562.053 1356.02 529.015 1327.302 550.583 1341.936 562.053" fill="gray"/><line x1="1150.67334" y1="470.77002" x2="1341.97974" y2="806.37061" fill="none" stroke="gray" stroke-width="4"/><polygon points="1330.763 805.466 1356.02 831 1346.917 796.258 1330.763 805.466" fill="gray"/><line x1="750.67334" y1="191" x2="840.13501" y2="279.10693" fill="none" stroke="gray" stroke-width="4"/><polygon points="829.094 281.282 860.334 299 842.141 268.034 829.094 281.282" fill="gray"/><line x1="750.67334" y1="392.66675" x2="836.00598" y2="341.61011" fill="none" stroke="gray" stroke-width="4"/><polygon points="835.338 352.844 860.334 327.054 825.792 336.888 835.338 352.844" fill="gray"/><line x1="750.67334" y1="585.09326" x2="833.28906" y2="611.06836" fill="none" stroke="gray" stroke-width="4"/><polygon points="824.452 618.035 860.334 619.572 830.029 600.298 824.452 618.035" fill="gray"/><line x1="750.67334" y1="777.18018" x2="838.1781" y2="707.32275" fill="none" stroke="gray" stroke-width="4"/><polygon points="839.023 718.544 860.334 689.635 827.423 704.013 839.023 718.544" fill="gray"/><line x1="750.67334" y1="871" x2="835.63904" y2="823.0918" fill="none" stroke="gray" stroke-width="4"/><polygon points="834.682 834.304 860.334 809.167 825.55 818.107 834.682 834.304" fill="gray"/><line x1="750.67334" y1="676.71436" x2="832.68726" y2="658.09619" fill="none" stroke="gray" stroke-width="4"/><polygon points="828.562 668.566 860.334 651.82 824.446 650.434 828.562 668.566" fill="gray"/><line x1="750.67334" y1="392.66675" x2="836.10999" y2="444.61377" fill="none" stroke="gray" stroke-width="4"/><polygon points="825.862 449.263 860.334 459.342 835.522 433.376 825.862 449.263" fill="gray"/><line x1="316.33337" y1="400.41016" x2="437.52661" y2="310.92334" fill="none" stroke="gray" stroke-width="4"/><polygon points="437.948 322.169 460.333 294.083 426.903 307.211 437.948 322.169" fill="gray"/><line x1="316.33337" y1="557.39233" x2="441.67456" y2="414.01099" fill="none" stroke="gray" stroke-width="4"/><polygon points="444.501 424.903 460.333 392.667 430.502 412.666 444.501 424.903" fill="gray"/><line x1="316.33337" y1="687.16455" x2="443.33679" y2="517.61426" fill="none" stroke="gray" stroke-width="4"/><polygon points="446.976 528.263 460.333 494.924 432.095 517.115 446.976 528.263" fill="gray"/><rect x="469.67285" y="150" width="282" height="82" rx="7" ry="7" fill="#4e4e4e"/><path d="M744.67334,151a6.01757,6.01757,0,0,1,6,6v68a6.01757,6.01757,0,0,1-6,6h-268a6.01757,6.01757,0,0,1-6-6V157a6.01757,6.01757,0,0,1,6-6h268m0-2h-268a8.00909,8.00909,0,0,0-8,8v68a8.00909,8.00909,0,0,0,8,8h268a8.00909,8.00909,0,0,0,8-8V157a8.00909,8.00909,0,0,0-8-8Z"/><path d="M744.67334,153a4.00458,4.00458,0,0,1,4,4v68a4.00458,4.00458,0,0,1-4,4h-268a4.00458,4.00458,0,0,1-4-4V157a4.00458,4.00458,0,0,1,4-4h268m0-2h-268a6.01757,6.01757,0,0,0-6,6v68a6.01757,6.01757,0,0,0,6,6h268a6.01757,6.01757,0,0,0,6-6V157a6.01757,6.01757,0,0,0-6-6Z" fill="#666"/><rect x="469.67285" y="247.14258" width="282" height="82" rx="7" ry="7" fill="#4e4e4e"/><path d="M744.67334,248.14282a6.01757,6.01757,0,0,1,6,6v68a6.01757,6.01757,0,0,1-6,6h-268a6.01757,6.01757,0,0,1-6-6v-68a6.01757,6.01757,0,0,1,6-6h268m0-2h-268a8.00909,8.00909,0,0,0-8,8v68a8.00908,8.00908,0,0,0,8,8h268a8.00909,8.00909,0,0,0,8-8v-68a8.00909,8.00909,0,0,0-8-8Z"/><path d="M744.67334,250.14282a4.00458,4.00458,0,0,1,4,4v68a4.00458,4.00458,0,0,1-4,4h-268a4.00458,4.00458,0,0,1-4-4v-68a4.00458,4.00458,0,0,1,4-4h268m0-2h-268a6.01757,6.01757,0,0,0-6,6v68a6.01757,6.01757,0,0,0,6,6h268a6.01757,6.01757,0,0,0,6-6v-68a6.01757,6.01757,0,0,0-6-6Z" fill="#666"/><rect x="469.67285" y="344.28613" width="282" height="82" rx="7" ry="7" fill="#4e4e4e"/><path d="M744.67334,345.28564a6.01758,6.01758,0,0,1,6,6v68a6.01757,6.01757,0,0,1-6,6h-268a6.01757,6.01757,0,0,1-6-6v-68a6.01758,6.01758,0,0,1,6-6h268m0-2h-268a8.00909,8.00909,0,0,0-8,8v68a8.00908,8.00908,0,0,0,8,8h268a8.00909,8.00909,0,0,0,8-8v-68a8.00909,8.00909,0,0,0-8-8Z"/><path d="M744.67334,347.28564a4.00458,4.00458,0,0,1,4,4v68a4.00458,4.00458,0,0,1-4,4h-268a4.00458,4.00458,0,0,1-4-4v-68a4.00458,4.00458,0,0,1,4-4h268m0-2h-268a6.01758,6.01758,0,0,0-6,6v68a6.01757,6.01757,0,0,0,6,6h268a6.01757,6.01757,0,0,0,6-6v-68a6.01758,6.01758,0,0,0-6-6Z" fill="#666"/><rect x="469.67285" y="441.42871" width="282" height="82" rx="7" ry="7" fill="#4e4e4e"/><path d="M744.67334,442.42847a6.01773,6.01773,0,0,1,6,6v68a6.01757,6.01757,0,0,1-6,6h-268a6.01757,6.01757,0,0,1-6-6v-68a6.01773,6.01773,0,0,1,6-6h268m0-2h-268a8.00908,8.00908,0,0,0-8,8v68a8.00909,8.00909,0,0,0,8,8h268a8.00909,8.00909,0,0,0,8-8v-68a8.00909,8.00909,0,0,0-8-8Z"/><path d="M744.67334,444.42847a4.00458,4.00458,0,0,1,4,4v68a4.00458,4.00458,0,0,1-4,4h-268a4.00458,4.00458,0,0,1-4-4v-68a4.00458,4.00458,0,0,1,4-4h268m0-2h-268a6.01773,6.01773,0,0,0-6,6v68a6.01757,6.01757,0,0,0,6,6h268a6.01757,6.01757,0,0,0,6-6v-68a6.01773,6.01773,0,0,0-6-6Z" fill="#666"/><rect x="869.67285" y="270" width="282" height="82" rx="7" ry="7" fill="#4e4e4e"/><path d="M1144.67334,271a6.01757,6.01757,0,0,1,6,6v68a6.01757,6.01757,0,0,1-6,6h-268a6.01757,6.01757,0,0,1-6-6V277a6.01757,6.01757,0,0,1,6-6h268m0-2h-268a8.00909,8.00909,0,0,0-8,8v68a8.00909,8.00909,0,0,0,8,8h268a8.00917,8.00917,0,0,0,8-8V277a8.00917,8.00917,0,0,0-8-8Z"/><path d="M1144.67334,273a4.00458,4.00458,0,0,1,4,4v68a4.00458,4.00458,0,0,1-4,4h-268a4.00458,4.00458,0,0,1-4-4V277a4.00458,4.00458,0,0,1,4-4h268m0-2h-268a6.01757,6.01757,0,0,0-6,6v68a6.01757,6.01757,0,0,0,6,6h268a6.01757,6.01757,0,0,0,6-6V277a6.01757,6.01757,0,0,0-6-6Z" fill="#666"/><rect x="869.67285" y="430" width="282" height="82" rx="7" ry="7" fill="#4e4e4e"/><path d="M1144.67334,431a6.01757,6.01757,0,0,1,6,6v68a6.01757,6.01757,0,0,1-6,6h-268a6.01757,6.01757,0,0,1-6-6V437a6.01757,6.01757,0,0,1,6-6h268m0-2h-268a8.00909,8.00909,0,0,0-8,8v68a8.00909,8.00909,0,0,0,8,8h268a8.00917,8.00917,0,0,0,8-8V437a8.00917,8.00917,0,0,0-8-8Z"/><path d="M1144.67334,433a4.00458,4.00458,0,0,1,4,4v68a4.00458,4.00458,0,0,1-4,4h-268a4.00458,4.00458,0,0,1-4-4V437a4.00458,4.00458,0,0,1,4-4h268m0-2h-268a6.01757,6.01757,0,0,0-6,6v68a6.01757,6.01757,0,0,0,6,6h268a6.01757,6.01757,0,0,0,6-6V437a6.01757,6.01757,0,0,0-6-6Z" fill="#666"/><rect x="869.67285" y="590" width="282" height="82" rx="7" ry="7" fill="#4e4e4e"/><path d="M1144.67334,591a6.01757,6.01757,0,0,1,6,6v68a6.01774,6.01774,0,0,1-6,6h-268a6.01774,6.01774,0,0,1-6-6V597a6.01757,6.01757,0,0,1,6-6h268m0-2h-268a8.00909,8.00909,0,0,0-8,8v68a8.00909,8.00909,0,0,0,8,8h268a8.00917,8.00917,0,0,0,8-8V597a8.00917,8.00917,0,0,0-8-8Z"/><path d="M1144.67334,593a4.00458,4.00458,0,0,1,4,4v68a4.00458,4.00458,0,0,1-4,4h-268a4.00458,4.00458,0,0,1-4-4V597a4.00458,4.00458,0,0,1,4-4h268m0-2h-268a6.01757,6.01757,0,0,0-6,6v68a6.01774,6.01774,0,0,0,6,6h268a6.01774,6.01774,0,0,0,6-6V597a6.01757,6.01757,0,0,0-6-6Z" fill="#666"/><rect x="869.67285" y="750" width="282" height="82" rx="7" ry="7" fill="#4e4e4e"/><path d="M1144.67334,751a6.01774,6.01774,0,0,1,6,6v68a6.01774,6.01774,0,0,1-6,6h-268a6.01774,6.01774,0,0,1-6-6V757a6.01774,6.01774,0,0,1,6-6h268m0-2h-268a8.00909,8.00909,0,0,0-8,8v68a8.00909,8.00909,0,0,0,8,8h268a8.00917,8.00917,0,0,0,8-8V757a8.00917,8.00917,0,0,0-8-8Z"/><path d="M1144.67334,753a4.00458,4.00458,0,0,1,4,4v68a4.00458,4.00458,0,0,1-4,4h-268a4.00458,4.00458,0,0,1-4-4V757a4.00458,4.00458,0,0,1,4-4h268m0-2h-268a6.01774,6.01774,0,0,0-6,6v68a6.01774,6.01774,0,0,0,6,6h268a6.01774,6.01774,0,0,0,6-6V757a6.01774,6.01774,0,0,0-6-6Z" fill="#666"/><rect x="469.67285" y="538.57129" width="282" height="82" rx="7" ry="7" fill="#4e4e4e"/><path d="M744.67334,539.57153a6.01757,6.01757,0,0,1,6,6v68a6.01773,6.01773,0,0,1-6,6h-268a6.01773,6.01773,0,0,1-6-6v-68a6.01757,6.01757,0,0,1,6-6h268m0-2h-268a8.00909,8.00909,0,0,0-8,8v68a8.00908,8.00908,0,0,0,8,8h268a8.00909,8.00909,0,0,0,8-8v-68a8.00909,8.00909,0,0,0-8-8Z"/><path d="M744.67334,541.57153a4.00458,4.00458,0,0,1,4,4v68a4.00458,4.00458,0,0,1-4,4h-268a4.00458,4.00458,0,0,1-4-4v-68a4.00458,4.00458,0,0,1,4-4h268m0-2h-268a6.01757,6.01757,0,0,0-6,6v68a6.01773,6.01773,0,0,0,6,6h268a6.01773,6.01773,0,0,0,6-6v-68a6.01757,6.01757,0,0,0-6-6Z" fill="#666"/><rect x="469.67285" y="635.71387" width="282" height="82" rx="7" ry="7" fill="#4e4e4e"/><path d="M744.67334,636.71436a6.01757,6.01757,0,0,1,6,6v68a6.01774,6.01774,0,0,1-6,6h-268a6.01774,6.01774,0,0,1-6-6v-68a6.01757,6.01757,0,0,1,6-6h268m0-2h-268a8.00908,8.00908,0,0,0-8,8v68a8.00909,8.00909,0,0,0,8,8h268a8.00909,8.00909,0,0,0,8-8v-68a8.00909,8.00909,0,0,0-8-8Z"/><path d="M744.67334,638.71436a4.00458,4.00458,0,0,1,4,4v68a4.00458,4.00458,0,0,1-4,4h-268a4.00458,4.00458,0,0,1-4-4v-68a4.00458,4.00458,0,0,1,4-4h268m0-2h-268a6.01757,6.01757,0,0,0-6,6v68a6.01774,6.01774,0,0,0,6,6h268a6.01774,6.01774,0,0,0,6-6v-68a6.01757,6.01757,0,0,0-6-6Z" fill="#666"/><rect x="469.67285" y="732.85742" width="282" height="82" rx="7" ry="7" fill="#4e4e4e"/><path d="M744.67334,733.85693a6.01774,6.01774,0,0,1,6,6v68a6.01741,6.01741,0,0,1-6,6h-268a6.01741,6.01741,0,0,1-6-6v-68a6.01774,6.01774,0,0,1,6-6h268m0-2h-268a8.00909,8.00909,0,0,0-8,8v68a8.00908,8.00908,0,0,0,8,8h268a8.00909,8.00909,0,0,0,8-8v-68a8.00909,8.00909,0,0,0-8-8Z"/><path d="M744.67334,735.85693a4.00458,4.00458,0,0,1,4,4v68a4.00458,4.00458,0,0,1-4,4h-268a4.00458,4.00458,0,0,1-4-4v-68a4.00458,4.00458,0,0,1,4-4h268m0-2h-268a6.01774,6.01774,0,0,0-6,6v68a6.01741,6.01741,0,0,0,6,6h268a6.01741,6.01741,0,0,0,6-6v-68a6.01774,6.01774,0,0,0-6-6Z" fill="#666"/><rect x="469.67285" y="830" width="282" height="82" rx="7" ry="7" fill="#4e4e4e"/><path d="M744.67334,831a6.01774,6.01774,0,0,1,6,6v68a6.01774,6.01774,0,0,1-6,6h-268a6.01774,6.01774,0,0,1-6-6V837a6.01774,6.01774,0,0,1,6-6h268m0-2h-268a8.00909,8.00909,0,0,0-8,8v68a8.00909,8.00909,0,0,0,8,8h268a8.00909,8.00909,0,0,0,8-8V837a8.00909,8.00909,0,0,0-8-8Z"/><path d="M744.67334,833a4.00458,4.00458,0,0,1,4,4v68a4.00458,4.00458,0,0,1-4,4h-268a4.00458,4.00458,0,0,1-4-4V837a4.00458,4.00458,0,0,1,4-4h268m0-2h-268a6.01774,6.01774,0,0,0-6,6v68a6.01774,6.01774,0,0,0,6,6h268a6.01774,6.01774,0,0,0,6-6V837a6.01774,6.01774,0,0,0-6-6Z" fill="#666"/><polygon points="1340.673 1241 1159.673 1301 1159.673 1081 1340.673 1141 1340.673 1241" fill="#7f7f7f"/><rect x="1420.02279" y="1061.34961" width="33.30078" height="249.30078" fill="#666"/><path d="M1452.97347,1061.7v248.6001h-32.6001V1061.7h32.6001m.7-.69995h-34v250h34V1061Z" fill="#202020"/><rect x="1421.67333" y="1181" width="30" height="130" fill="#e4e4e4"/><rect x="1402.17333" y="1141" width="14" height="100" fill="#cacaca"/><rect x="1457.17333" y="1141" width="14" height="100" fill="#cacaca"/><line x1="1421.67333" y1="1181" x2="1451.67333" y2="1181" fill="none" stroke="#000" stroke-width="9"/><line x1="1421.67333" y1="1181" x2="1451.67333" y2="1181" fill="none" stroke="#fff" stroke-width="4"/><line x1="610.67334" y1="1161" x2="613.67334" y2="1161" fill="none" stroke="#f1f1f1" stroke-width="4"/><polyline points="619.682 1161 1159.673 1161.001 1340.673 1181 1396.669 1181" fill="none" stroke="#f1f1f1" stroke-width="4" stroke-dasharray="6.00841 6.00841"/><line x1="1399.67334" y1="1181" x2="1402.67334" y2="1181" fill="none" stroke="#f1f1f1" stroke-width="4"/><line x1="1340.67358" y1="1141" x2="1343.67358" y2="1141" fill="none" stroke="#7f7f7f" stroke-width="4"/><line x1="1349.89575" y1="1141" x2="1396.5625" y2="1141" fill="none" stroke="#7f7f7f" stroke-width="4" stroke-dasharray="6.22222 6.22222"/><line x1="1399.67358" y1="1141" x2="1402.67358" y2="1141" fill="none" stroke="#7f7f7f" stroke-width="4"/><line x1="610.61658" y1="1080.99951" x2="613.61658" y2="1080.99951" fill="none" stroke="#7f7f7f" stroke-width="4"/><line x1="619.58423" y1="1080.99951" x2="1153.68896" y2="1080.99951" fill="none" stroke="#7f7f7f" stroke-width="4" stroke-dasharray="5.96765 5.96765"/><line x1="1156.67261" y1="1080.99951" x2="1159.67261" y2="1080.99951" fill="none" stroke="#7f7f7f" stroke-width="4"/><line x1="610.61658" y1="1300.99951" x2="613.61658" y2="1300.99951" fill="none" stroke="#7f7f7f" stroke-width="4"/><line x1="619.58423" y1="1300.99951" x2="1153.68896" y2="1300.99951" fill="none" stroke="#7f7f7f" stroke-width="4" stroke-dasharray="5.96765 5.96765"/><line x1="1156.67285" y1="1300.99951" x2="1159.67285" y2="1300.99951" fill="none" stroke="#7f7f7f" stroke-width="4"/><line x1="1340.67358" y1="1241" x2="1343.67358" y2="1241" fill="none" stroke="#7f7f7f" stroke-width="4"/><line x1="1349.89575" y1="1241" x2="1396.5625" y2="1241" fill="none" stroke="#7f7f7f" stroke-width="4" stroke-dasharray="6.22222 6.22222"/><line x1="1399.67358" y1="1241" x2="1402.67358" y2="1241" fill="none" stroke="#7f7f7f" stroke-width="4"/><rect x="985.92318" y="1061.25" width="49.5" height="259.5" rx="1.75" ry="1.75" fill="#666"/><path d="M1033.6733,1061.5a1.50164,1.50164,0,0,1,1.5,1.5v256a1.50164,1.50164,0,0,1-1.5,1.5h-46a1.50164,1.50164,0,0,1-1.5-1.5V1063a1.50164,1.50164,0,0,1,1.5-1.5h46m0-.5h-46a2.00583,2.00583,0,0,0-2,2v256a2.00583,2.00583,0,0,0,2,2h46a2.00583,2.00583,0,0,0,2-2V1063a2.00583,2.00583,0,0,0-2-2Z" fill="#202020"/><line x1="1010.67333" y1="1071" x2="1010.67333" y2="1311" fill="none" stroke="#000" stroke-width="3"/><circle cx="1010.67333" cy="1161" r="15" fill="#fff" stroke="#000" stroke-width="2"/><path d="M76.17668,563.36627a5.97958,5.97958,0,0,1-5.97405-5.974V546.34491a5.97959,5.97959,0,0,1,5.97405-5.97405h28.53774L131.873,524.65165l-13.32026-6.91215-40.5325,7.71258-2.97536-15.65153,11.059-2.10259-1.13647-1.03845,6.14907-6.73481,3.148,1.19481,1.98124-2.17026,3.15037,1.19481,1.97891-2.17026,3.15271,1.19248,1.98123-2.17259,3.15038,1.19481,1.97657-2.16793,3.15271,1.19481,1.98123-2.17259,3.15038,1.19481,1.9789-2.17026,3.15505,1.19481,1.9789-2.17026,3.15271,1.19247,1.98357-2.17025,8.9214,3.38607-.70942,1.86922,75.1773-14.30271-1.4095-1.28582,6.14673-6.73247,3.15271,1.19481,1.98124-2.17026,3.14571,1.19481,1.98123-2.17259,3.15271,1.19481,1.98357-2.17026,3.14805,1.19248,1.98123-2.17026,3.15038,1.19481,1.98124-2.17026,3.1527,1.19481,1.98124-2.17026,3.14571,1.19481,1.9789-2.17026,3.15271,1.19247,1.98124-2.17026,3.15271,1.19248,1.98357-2.17026,3.148,1.19481,1.98124-2.17026,3.148,1.19481,1.98124-2.17259,3.155,1.19481,1.98124-2.16793,3.148,1.19248,1.9789-2.17026,3.15271,1.19247,1.9789-2.17026,3.15505,1.19481,1.98123-2.17026,8.92607,3.38141-.8331,2.19359,5.946-1.12946,2.973,15.6492-111.76133,21.2662-8.62037,9.90618L243.492,540.37086h66.86732a5.97958,5.97958,0,0,1,5.974,5.97405v11.04732a5.97957,5.97957,0,0,1-5.974,5.974Z" fill="#979797" stroke="#000" stroke-miterlimit="10"/><polyline points="301.986 468.152 298.835 466.958 296.855 469.128 293.703 467.934 291.723 470.105 288.572 468.911 286.591 471.081 283.44 469.887 281.46 472.058 278.309 470.864 276.328 473.034 273.177 471.84 271.197 474.01 268.045 472.816 266.065 474.987 262.914 473.793 260.933 475.963 257.782 474.769 255.802 476.94 252.651 475.746 250.67 477.916 247.519 476.722 245.539 478.892 242.387 477.698 240.407 479.869 237.256 478.675 235.275 480.845 232.124 479.651 230.144 481.822 226.993 480.628 225.012 482.798 221.861 481.604 219.881 483.774"/><polygon points="225.906 486.544 227.887 484.374 231.04 485.568 233.019 483.397 236.169 484.591 238.15 482.421 241.302 483.615 243.282 481.444 246.435 482.638 248.414 480.467 251.564 481.661 253.545 479.492 256.697 480.686 258.677 478.516 261.829 479.71 263.809 477.539 266.959 478.733 268.94 476.562 272.092 477.756 274.072 475.586 277.224 476.78 279.204 474.609 282.354 475.803 284.335 473.634 287.487 474.828 289.467 472.657 292.619 473.851 294.599 471.681 297.748 472.874 299.73 470.704 300.857 471.131 303.116 465.173 297.942 463.212 295.96 465.383 292.808 464.189 290.828 466.359 287.676 465.165 285.696 467.336 282.547 466.142 280.565 468.311 277.413 467.117 275.433 469.288 272.281 468.094 270.301 470.264 267.152 469.071 265.17 471.241 262.018 470.047 260.038 472.218 256.886 471.024 254.906 473.194 251.757 472.001 249.776 474.169 246.623 472.976 244.643 475.146 241.491 473.952 239.511 476.123 236.362 474.929 234.381 477.099 231.228 475.905 229.248 478.076 226.099 476.882 224.118 479.053 220.965 477.859 217.527 481.627 220.741 484.56 220.732 484.584 220.793 484.607 222.235 485.923 222.757 485.351 225.906 486.544"/><polyline points="136.883 499.864 133.731 498.67 131.751 500.841 128.6 499.647 126.619 501.817 123.468 500.623 121.488 502.793 118.337 501.6 116.356 503.77 113.205 502.576 111.225 504.746 108.073 503.552 106.093 505.723 102.942 504.529 100.961 506.699 97.81 505.505 95.83 507.676 92.679 506.482 90.698 508.652"/><polygon points="96.726 511.421 98.705 509.251 101.858 510.445 103.838 508.274 106.987 509.468 108.968 507.299 112.119 508.494 114.1 506.322 117.253 507.516 119.232 505.346 122.383 506.54 124.363 504.369 127.515 505.563 129.495 503.392 132.644 504.586 134.626 502.416 135.753 502.842 138.012 496.885 132.838 494.924 130.856 497.095 127.704 495.901 125.724 498.071 122.572 496.877 120.592 499.048 117.441 497.854 115.461 500.024 112.309 498.831 110.331 501 107.18 499.804 105.199 501.976 102.046 500.782 100.067 502.953 96.914 501.759 94.934 503.929 91.785 502.736 88.345 506.504 91.559 509.438 91.55 509.46 91.608 509.484 93.05 510.8 93.573 510.227 96.726 511.421"/><rect x="73.78822" y="543.95492" width="238.96185" height="15.82733" rx="1" ry="1" fill="#202020" stroke="#4e4e4e" stroke-miterlimit="10"/><polygon points="174.103 502.971 243.009 542.853 105.197 542.853 174.103 502.971"/><path d="M171.10587,533.67539l37.40738-42.98208-99.59814,18.95088,50.57863,26.24068A9.55848,9.55848,0,0,0,171.10587,533.67539Z" fill="#333" stroke="#999" stroke-miterlimit="10" stroke-width="0.3"/><line x1="310.45062" y1="473.11941" x2="78.87954" y2="517.18134"/><rect x="76.8021" y="489.57387" width="235.72526" height="11.15209" transform="translate(-89.12297 45.11399) rotate(-10.77316)" fill="#666"/><circle cx="163.19359" cy="522.31512" r="6.33611" fill="#999"/><path d="M76.17668,276.61206a5.97959,5.97959,0,0,1-5.97405-5.974V259.59069a5.97958,5.97958,0,0,1,5.97405-5.974h28.53774L131.873,237.89744l-13.32026-6.91216-40.5325,7.71259-2.97536-15.65154,11.059-2.10258-1.13647-1.03846,6.14907-6.7348,3.148,1.19481,1.98124-2.17026,3.15037,1.19481,1.97891-2.17026,3.15271,1.19247,1.98123-2.17259,3.15038,1.19481,1.97657-2.16793,3.15271,1.19481,1.98123-2.17259,3.15038,1.19481,1.9789-2.17026,3.15505,1.19481,1.9789-2.17026,3.15271,1.19248,1.98357-2.17026,8.9214,3.38607-.70942,1.86922,75.1773-14.3027-1.4095-1.28582,6.14673-6.73247,3.15271,1.1948,1.98124-2.17025,3.14571,1.1948,1.98123-2.17259,3.15271,1.19481,1.98357-2.17026,3.14805,1.19248,1.98123-2.17026,3.15038,1.19481,1.98124-2.17026,3.1527,1.19481,1.98124-2.17026,3.14571,1.19481,1.9789-2.17026,3.15271,1.19248,1.98124-2.17026,3.15271,1.19247,1.98357-2.17026,3.148,1.19481,1.98124-2.17026,3.148,1.19481,1.98124-2.17259,3.155,1.19481,1.98124-2.16793,3.148,1.19248,1.9789-2.17026,3.15271,1.19248,1.9789-2.17026,3.15505,1.19481,1.98123-2.17026,8.92607,3.3814-.8331,2.1936,5.946-1.12947,2.973,15.6492-111.76133,21.2662-8.62037,9.90618,49.58925,28.7011h66.86732a5.97957,5.97957,0,0,1,5.974,5.974V270.638a5.97958,5.97958,0,0,1-5.974,5.974Z" fill="#979797" stroke="#000" stroke-miterlimit="10"/><polyline points="301.986 181.398 298.835 180.204 296.855 182.374 293.703 181.18 291.723 183.351 288.572 182.157 286.591 184.327 283.44 183.133 281.46 185.303 278.309 184.109 276.328 186.28 273.177 185.086 271.197 187.256 268.045 186.062 266.065 188.233 262.914 187.039 260.933 189.209 257.782 188.015 255.802 190.185 252.651 188.991 250.67 191.162 247.519 189.968 245.539 192.138 242.387 190.944 240.407 193.115 237.256 191.921 235.275 194.091 232.124 192.897 230.144 195.067 226.993 193.874 225.012 196.044 221.861 194.85 219.881 197.02"/><polygon points="225.906 199.79 227.887 197.62 231.04 198.814 233.019 196.643 236.169 197.837 238.15 195.666 241.302 196.86 243.282 194.69 246.435 195.884 248.414 193.713 251.564 194.907 253.545 192.738 256.697 193.932 258.677 191.761 261.829 192.955 263.809 190.785 266.959 191.978 268.94 189.808 272.092 191.002 274.072 188.831 277.224 190.025 279.204 187.855 282.354 189.048 284.335 186.88 287.487 188.074 289.467 185.903 292.619 187.097 294.599 184.926 297.748 186.12 299.73 183.95 300.857 184.376 303.116 178.419 297.942 176.458 295.96 178.628 292.808 177.434 290.828 179.605 287.676 178.411 285.696 180.582 282.547 179.388 280.565 181.557 277.413 180.363 275.433 182.533 272.281 181.34 270.301 183.51 267.152 182.316 265.17 184.487 262.018 183.293 260.038 185.463 256.886 184.269 254.906 186.44 251.757 185.246 249.776 187.415 246.623 186.221 244.643 188.392 241.491 187.198 239.511 189.368 236.362 188.175 234.381 190.345 231.228 189.151 229.248 191.322 226.099 190.128 224.118 192.299 220.965 191.105 217.527 194.873 220.741 197.805 220.732 197.829 220.793 197.853 222.235 199.169 222.757 198.597 225.906 199.79"/><polyline points="136.883 213.11 133.731 211.916 131.751 214.086 128.6 212.892 126.619 215.063 123.468 213.869 121.488 216.039 118.337 214.845 116.356 217.016 113.205 215.822 111.225 217.992 108.073 216.798 106.093 218.968 102.942 217.775 100.961 219.945 97.81 218.751 95.83 220.921 92.679 219.727 90.698 221.898"/><polygon points="96.726 224.667 98.705 222.497 101.858 223.691 103.838 221.52 106.987 222.714 108.968 220.545 112.119 221.74 114.1 219.568 117.253 220.762 119.232 218.592 122.383 219.785 124.363 217.615 127.515 218.809 129.495 216.638 132.644 217.832 134.626 215.661 135.753 216.088 138.012 210.131 132.838 208.17 130.856 210.34 127.704 209.146 125.724 211.317 122.572 210.123 120.592 212.293 117.441 211.1 115.461 213.27 112.309 212.076 110.331 214.246 107.18 213.05 105.199 215.222 102.046 214.028 100.067 216.199 96.914 215.005 94.934 217.175 91.785 215.982 88.345 219.75 91.559 222.684 91.55 222.706 91.608 222.729 93.05 224.046 93.573 223.473 96.726 224.667"/><rect x="73.78822" y="257.2007" width="238.96185" height="15.82733" rx="1" ry="1" fill="#202020" stroke="#4e4e4e" stroke-miterlimit="10"/><polygon points="174.103 216.216 243.009 256.099 105.197 256.099 174.103 216.216"/><path d="M171.10587,246.92117l37.40738-42.98208L108.91511,222.89l50.57863,26.24068A9.55848,9.55848,0,0,0,171.10587,246.92117Z" fill="#333" stroke="#999" stroke-miterlimit="10" stroke-width="0.3"/><line x1="310.45062" y1="186.36519" x2="78.87954" y2="230.42712"/><rect x="76.8021" y="202.81965" width="235.72526" height="11.15209" transform="translate(-35.52257 40.05993) rotate(-10.77316)" fill="#666"/><circle cx="163.19359" cy="235.5609" r="6.33611" fill="#999"/><path d="M533.21094,176.74414h10.09765c7.93848,0,13.28418,2.64648,13.28418,10.42285,0,7.45215-5.292,10.96192-13.06836,10.96192h-5.832v14.04h-4.48144Zm9.77344,17.71289c6.15624,0,9.12695-2.26855,9.12695-7.29,0-5.13086-3.13281-6.80469-9.34278-6.80469h-5.07617V194.457Z" fill="#e4e4e4"/><path d="M560.10352,199.10059c0-8.58594,5.77734-13.82422,11.77148-13.82422,6.69629,0,10.47656,4.80664,10.47656,12.3125a17.11981,17.11981,0,0,1-.16211,2.53808H564.47754c.32324,5.56153,3.72558,9.126,8.74805,9.126a11.86035,11.86035,0,0,0,6.53418-2.05176l1.56543,2.916a15.62759,15.62759,0,0,1-8.63965,2.70019C565.665,212.81738,560.10352,207.68652,560.10352,199.10059Zm18.36035-2.16016c0-5.292-2.376-8.1543-6.48047-8.1543-3.67188,0-7.02051,2.97071-7.56055,8.1543Z" fill="#e4e4e4"/><path d="M586.94043,199.10059c0-8.53223,5.40039-13.82422,11.39453-13.82422,3.02344,0,5.02149,1.13379,7.34375,3.02441l-.21582-4.48242V173.7207h4.48145V212.169h-3.67188l-.37793-3.07813h-.16211c-2.05176,1.998-4.85937,3.72656-7.9375,3.72656C591.20605,212.81738,586.94043,207.84863,586.94043,199.10059Zm18.52246,6.37207V191.75684a9.13268,9.13268,0,0,0-6.37207-2.75391c-4.21191,0-7.56055,4.0498-7.56055,10.04395,0,6.26367,2.64649,10.04394,7.23633,10.04394C601.19629,209.09082,603.30273,207.90332,605.46289,205.47266Z" fill="#e4e4e4"/><path d="M617.17969,205.36523c0-5.72461,4.91406-8.58691,16.09277-9.82812,0-3.34863-1.08008-6.58887-5.40039-6.58887a14.26853,14.26853,0,0,0-7.83008,2.8086l-1.72754-3.07813a19.47276,19.47276,0,0,1,10.31348-3.40234c6.42676,0,9.12695,4.2666,9.12695,10.80078V212.169H634.082l-.37793-3.13184H633.542c-2.4834,2.05176-5.39941,3.78027-8.69336,3.78027C620.47461,212.81738,617.17969,210.0625,617.17969,205.36523Zm16.09277.37793v-7.29C624.52441,199.5332,621.5,201.69238,621.5,205.041c0,2.96972,2.05176,4.21191,4.64453,4.21191C628.68262,209.25293,630.73438,208.01074,633.27246,205.74316Z" fill="#e4e4e4"/><path d="M646.01562,206.877V173.7207h4.42872v33.48047c0,1.40332.59375,1.94336,1.24218,1.94336a3.7403,3.7403,0,0,0,.97168-.10742l.59375,3.34766a5.95035,5.95035,0,0,1-2.53808.43261C647.36621,212.81738,646.01562,210.71094,646.01562,206.877Z" fill="#e4e4e4"/><path d="M670.42285,208.49707h7.88477V183.11621H672.043v-2.86133a20.48706,20.48706,0,0,0,7.29-2.53808h3.40234v30.78027h7.12793V212.169H670.42285Z" fill="#e4e4e4"/><path d="M533.21094,273.88477h10.09765c7.93848,0,13.28418,2.64648,13.28418,10.42285,0,7.45215-5.292,10.96191-13.06836,10.96191h-5.832v14.04h-4.48144Zm9.77344,17.71289c6.15624,0,9.12695-2.26856,9.12695-7.29,0-5.13086-3.13281-6.80469-9.34278-6.80469h-5.07617v14.09473Z" fill="#e4e4e4"/><path d="M560.10352,296.24121c0-8.58594,5.77734-13.82422,11.77148-13.82422,6.69629,0,10.47656,4.80664,10.47656,12.3125a17.12005,17.12005,0,0,1-.16211,2.53809H564.47754c.32324,5.56152,3.72558,9.126,8.74805,9.126a11.86042,11.86042,0,0,0,6.53418-2.05175l1.56543,2.916a15.6276,15.6276,0,0,1-8.63965,2.7002C565.665,309.958,560.10352,304.82715,560.10352,296.24121Zm18.36035-2.16016c0-5.292-2.376-8.15429-6.48047-8.15429-3.67188,0-7.02051,2.9707-7.56055,8.15429Z" fill="#e4e4e4"/><path d="M586.94043,296.24121c0-8.53223,5.40039-13.82422,11.39453-13.82422,3.02344,0,5.02149,1.13379,7.34375,3.02442l-.21582-4.48243V270.86133h4.48145v38.44824h-3.67188l-.37793-3.07812h-.16211c-2.05176,1.998-4.85937,3.72656-7.9375,3.72656C591.20605,309.958,586.94043,304.98926,586.94043,296.24121Zm18.52246,6.37207V288.89746a9.13268,9.13268,0,0,0-6.37207-2.75391c-4.21191,0-7.56055,4.04981-7.56055,10.04395,0,6.26367,2.64649,10.04395,7.23633,10.04395C601.19629,306.23145,603.30273,305.044,605.46289,302.61328Z" fill="#e4e4e4"/><path d="M617.17969,302.50586c0-5.72461,4.91406-8.58691,16.09277-9.82813,0-3.34863-1.08008-6.58886-5.40039-6.58886a14.26852,14.26852,0,0,0-7.83008,2.80859l-1.72754-3.07812a19.47276,19.47276,0,0,1,10.31348-3.40235c6.42676,0,9.12695,4.2666,9.12695,10.80078v16.0918H634.082l-.37793-3.13184H633.542c-2.4834,2.05176-5.39941,3.78028-8.69336,3.78028C620.47461,309.958,617.17969,307.20312,617.17969,302.50586Zm16.09277.37793v-7.29C624.52441,296.67383,621.5,298.833,621.5,302.18164c0,2.96973,2.05176,4.21191,4.64453,4.21191C628.68262,306.39355,630.73438,305.15137,633.27246,302.88379Z" fill="#e4e4e4"/><path d="M646.01562,304.01758V270.86133h4.42872V304.3418c0,1.40332.59375,1.94336,1.24218,1.94336a3.74,3.74,0,0,0,.97168-.10743l.59375,3.34766a5.95017,5.95017,0,0,1-2.53808.43262C647.36621,309.958,646.01562,307.85156,646.01562,304.01758Z" fill="#e4e4e4"/><path d="M668.31738,306.66309c10.36817-10.31348,16.2002-16.52344,16.2002-22.08594,0-3.94238-2.16016-6.75-6.53418-6.75-2.86231,0-5.3457,1.83594-7.34375,4.1582l-2.53809-2.53808c2.86133-3.13184,5.93946-5.23829,10.42188-5.23829,6.37207,0,10.31445,4.04981,10.31445,10.15235,0,6.47949-5.88672,12.90625-14.04,21.43847,1.88965-.1621,3.99512-.32421,5.77735-.32421h9.99023v3.834H668.31738Z" fill="#e4e4e4"/><path d="M533.21094,371.02832h10.09765c7.93848,0,13.28418,2.64648,13.28418,10.42285,0,7.45215-5.292,10.96192-13.06836,10.96192h-5.832v14.04h-4.48144Zm9.77344,17.71289c6.15624,0,9.12695-2.26855,9.12695-7.29,0-5.13086-3.13281-6.80469-9.34278-6.80469h-5.07617v14.09473Z" fill="#e4e4e4"/><path d="M560.10352,393.38477c0-8.58594,5.77734-13.82422,11.77148-13.82422,6.69629,0,10.47656,4.80664,10.47656,12.3125a17.11981,17.11981,0,0,1-.16211,2.53808H564.47754c.32324,5.56153,3.72558,9.126,8.74805,9.126a11.86035,11.86035,0,0,0,6.53418-2.05176l1.56543,2.916a15.62759,15.62759,0,0,1-8.63965,2.70019C565.665,407.10156,560.10352,401.9707,560.10352,393.38477Zm18.36035-2.16016c0-5.292-2.376-8.1543-6.48047-8.1543-3.67188,0-7.02051,2.97071-7.56055,8.1543Z" fill="#e4e4e4"/><path d="M586.94043,393.38477c0-8.53223,5.40039-13.82422,11.39453-13.82422,3.02344,0,5.02149,1.13379,7.34375,3.02441l-.21582-4.48242V368.00488h4.48145v38.44824h-3.67188l-.37793-3.07812h-.16211c-2.05176,1.998-4.85937,3.72656-7.9375,3.72656C591.20605,407.10156,586.94043,402.13281,586.94043,393.38477Zm18.52246,6.37207V386.041a9.13268,9.13268,0,0,0-6.37207-2.75391c-4.21191,0-7.56055,4.0498-7.56055,10.04394,0,6.26368,2.64649,10.04395,7.23633,10.04395C601.19629,403.375,603.30273,402.1875,605.46289,399.75684Z" fill="#e4e4e4"/><path d="M617.17969,399.64941c0-5.72461,4.91406-8.58691,16.09277-9.82812,0-3.34863-1.08008-6.58887-5.40039-6.58887a14.26853,14.26853,0,0,0-7.83008,2.8086l-1.72754-3.07813a19.47276,19.47276,0,0,1,10.31348-3.40234c6.42676,0,9.12695,4.2666,9.12695,10.80078v16.09179H634.082l-.37793-3.13183H633.542c-2.4834,2.05176-5.39941,3.78027-8.69336,3.78027C620.47461,407.10156,617.17969,404.34668,617.17969,399.64941Zm16.09277.37793v-7.29c-8.74805,1.08008-11.77246,3.23926-11.77246,6.5879,0,2.96972,2.05176,4.21191,4.64453,4.21191C628.68262,403.53711,630.73438,402.29492,633.27246,400.02734Z" fill="#e4e4e4"/><path d="M646.01562,401.16113V368.00488h4.42872v33.48047c0,1.40332.59375,1.94336,1.24218,1.94336a3.7403,3.7403,0,0,0,.97168-.10742l.59375,3.34766a5.95035,5.95035,0,0,1-2.53808.43261C647.36621,407.10156,646.01562,404.99512,646.01562,401.16113Z" fill="#e4e4e4"/><path d="M667.56152,402.24121l2.26758-2.916a11.6957,11.6957,0,0,0,8.80274,4.10351c4.15722,0,7.12793-2.4834,7.12793-6.31738,0-4.10449-2.8086-6.8584-11.01661-6.8584v-3.40234c7.34473,0,9.77442-2.80762,9.77442-6.42579,0-3.34863-2.26856-5.4541-5.94043-5.4541-2.86133,0-5.292,1.458-7.34375,3.50977l-2.376-2.80762a14.18463,14.18463,0,0,1,9.88184-4.32031c5.99414,0,10.31445,3.18652,10.31445,8.74805,0,4.1582-2.53809,6.80468-6.26465,8.208v.21582c4.15821.97266,7.45215,3.9961,7.45215,8.749,0,6.10156-5.02148,9.82812-11.33984,9.82812A14.6367,14.6367,0,0,1,667.56152,402.24121Z" fill="#e4e4e4"/><path d="M533.21094,468.1709h10.09765c7.93848,0,13.28418,2.64648,13.28418,10.42285,0,7.45215-5.292,10.96191-13.06836,10.96191h-5.832v14.04h-4.48144Zm9.77344,17.71289c6.15624,0,9.12695-2.26856,9.12695-7.29,0-5.13086-3.13281-6.80469-9.34278-6.80469h-5.07617v14.09473Z" fill="#e4e4e4"/><path d="M560.10352,490.52734c0-8.58593,5.77734-13.82422,11.77148-13.82422,6.69629,0,10.47656,4.80665,10.47656,12.3125a17.12005,17.12005,0,0,1-.16211,2.53809H564.47754c.32324,5.56152,3.72558,9.126,8.74805,9.126a11.86035,11.86035,0,0,0,6.53418-2.05176l1.56543,2.916a15.62767,15.62767,0,0,1-8.63965,2.70019C565.665,504.24414,560.10352,499.11328,560.10352,490.52734Zm18.36035-2.16015c0-5.292-2.376-8.1543-6.48047-8.1543-3.67188,0-7.02051,2.9707-7.56055,8.1543Z" fill="#e4e4e4"/><path d="M586.94043,490.52734c0-8.53222,5.40039-13.82422,11.39453-13.82422,3.02344,0,5.02149,1.13379,7.34375,3.02442l-.21582-4.48242V465.14746h4.48145V503.5957h-3.67188l-.37793-3.07812h-.16211c-2.05176,1.998-4.85937,3.72656-7.9375,3.72656C591.20605,504.24414,586.94043,499.27539,586.94043,490.52734Zm18.52246,6.37207V483.18359a9.13271,9.13271,0,0,0-6.37207-2.7539c-4.21191,0-7.56055,4.0498-7.56055,10.04394,0,6.26367,2.64649,10.04395,7.23633,10.04395C601.19629,500.51758,603.30273,499.33008,605.46289,496.89941Z" fill="#e4e4e4"/><path d="M617.17969,496.792c0-5.72461,4.91406-8.58691,16.09277-9.82812,0-3.34864-1.08008-6.58887-5.40039-6.58887a14.2686,14.2686,0,0,0-7.83008,2.80859l-1.72754-3.07812a19.47276,19.47276,0,0,1,10.31348-3.40235c6.42676,0,9.12695,4.26661,9.12695,10.80079V503.5957H634.082l-.37793-3.13183H633.542c-2.4834,2.05175-5.39941,3.78027-8.69336,3.78027C620.47461,504.24414,617.17969,501.48926,617.17969,496.792Zm16.09277.37793v-7.29C624.52441,490.96,621.5,493.11914,621.5,496.46777c0,2.96973,2.05176,4.21192,4.64453,4.21192C628.68262,500.67969,630.73438,499.4375,633.27246,497.16992Z" fill="#e4e4e4"/><path d="M646.01562,498.30371V465.14746h4.42872v33.48047c0,1.40332.59375,1.94336,1.24218,1.94336a3.7403,3.7403,0,0,0,.97168-.10742l.59375,3.34765a5.95017,5.95017,0,0,1-2.53808.43262C647.36621,504.24414,646.01562,502.1377,646.01562,498.30371Z" fill="#e4e4e4"/><path d="M682.57324,494.0918h-15.498v-2.916l14.74218-22.03223h4.96778v21.38379h4.69824v3.56446h-4.69824v9.5039h-4.21192Zm0-3.56446v-9.99023c0-1.83594.16211-4.80566.27051-6.6416h-.21582c-.86426,1.67383-1.83691,3.18554-2.80859,4.85937l-8.0459,11.77246Z" fill="#e4e4e4"/><path d="M960.39941,296.74316h5.39942l6.80469,18.90039c.86425,2.43067,1.67382,4.96778,2.53808,7.39844h.21582c.86426-2.43066,1.56641-4.96777,2.42969-7.39844l6.69629-18.90039h5.4541V332.168h-4.21191V312.67383c0-3.13184.37793-7.34473.59375-10.47656h-.21582l-2.80762,8.04589-6.69629,18.36036h-2.9707l-6.69532-18.36036-2.80859-8.04589h-.21582c.21582,3.13183.54,7.34472.54,10.47656V332.168h-4.04981Z" fill="#e4e4e4"/><path d="M997.60449,314.45605c0-11.39453,6.69629-18.36035,15.71485-18.36035a12.92309,12.92309,0,0,1,9.71972,4.374l-2.42968,2.916a9.6816,9.6816,0,0,0-7.23633-3.34863c-6.69629,0-11.124,5.50879-11.124,14.31055,0,8.91015,4.26563,14.52636,10.96192,14.52636,3.40234,0,5.94043-1.51172,8.208-3.99609l2.48437,2.80762a13.7058,13.7058,0,0,1-10.85449,5.13086C1004.19336,332.81641,997.60449,326.01172,997.60449,314.45605Z" fill="#e4e4e4"/><path d="M1048.58105,296.74316h5.07618l11.98828,35.42481h-4.80664l-3.34766-10.79981H1044.585l-3.40234,10.79981h-4.58985Zm-2.8623,21.00684h10.63867l-1.6748-5.40039c-1.2959-3.94238-2.42969-7.83008-3.56348-11.93457h-.21582c-1.08008,4.10449-2.21484,7.99219-3.51074,11.93457Z" fill="#e4e4e4"/><path d="M959.21191,456.74219h5.39942l6.80469,18.90039c.86425,2.43066,1.67382,4.96777,2.53808,7.39844h.21582c.86426-2.43067,1.56641-4.96778,2.42969-7.39844l6.69629-18.90039H988.75V492.167h-4.21191V472.67285c0-3.13183.37793-7.34473.59375-10.47656H984.916l-2.80762,8.0459-6.69629,18.36035h-2.9707l-6.69532-18.36035-2.80859-8.0459h-.21582c.21582,3.13183.54,7.34473.54,10.47656V492.167h-4.04981Z" fill="#e4e4e4"/><path d="M996.417,474.45508c0-11.39453,6.69629-18.36035,15.71485-18.36035a12.92309,12.92309,0,0,1,9.71972,4.374l-2.42968,2.916a9.68158,9.68158,0,0,0-7.23633-3.34864c-6.69629,0-11.124,5.50879-11.124,14.31055,0,8.91016,4.26563,14.52637,10.96192,14.52637,3.40234,0,5.94043-1.51172,8.208-3.9961l2.48437,2.80762a13.7058,13.7058,0,0,1-10.85449,5.13086C1003.00586,492.81543,996.417,486.01074,996.417,474.45508Z" fill="#e4e4e4"/><path d="M1040.10352,456.74219h10.53027c7.18164,0,12.14941,2.43066,12.14941,8.64062,0,3.50977-1.83593,6.6416-5.18359,7.72168v.21582c4.26562.81055,7.23633,3.61817,7.23633,8.47852,0,6.96582-5.50879,10.36816-13.44629,10.36816h-11.28613Zm9.71972,15.0664c6.04785,0,8.53223-2.21386,8.53223-5.832,0-4.10449-2.80762-5.66992-8.31641-5.66992h-5.4541v11.50195Zm.918,16.79395c6.10254,0,9.666-2.21387,9.666-6.96582,0-4.374-3.45606-6.37207-9.666-6.37207H1044.585v13.33789Z" fill="#e4e4e4"/><path d="M959.6709,616.74219h5.39941l6.80469,18.90039c.86426,2.43066,1.67383,4.96777,2.53809,7.39844h.21582c.86425-2.43067,1.5664-4.96778,2.42968-7.39844l6.69629-18.90039h5.4541V652.167h-4.21191V632.67285c0-3.13183.37793-7.34473.59375-10.47656H985.375l-2.80762,8.0459-6.69629,18.36035h-2.9707l-6.69531-18.36035-2.8086-8.0459h-.21582c.21582,3.13183.54,7.34473.54,10.47656V652.167h-4.0498Z" fill="#e4e4e4"/><path d="M996.876,634.45508c0-11.39453,6.69629-18.36035,15.71484-18.36035a12.92311,12.92311,0,0,1,9.71973,4.374l-2.42969,2.916a9.68156,9.68156,0,0,0-7.23633-3.34864c-6.69629,0-11.124,5.50879-11.124,14.31055,0,8.91016,4.26562,14.52637,10.96191,14.52637,3.40235,0,5.94043-1.51172,8.208-3.9961l2.48437,2.80762a13.70578,13.70578,0,0,1-10.85449,5.13086C1003.46484,652.81543,996.876,646.01074,996.876,634.45508Z" fill="#e4e4e4"/><path d="M1038.50977,634.45508c0-11.39453,6.69628-18.36035,15.71484-18.36035a12.92311,12.92311,0,0,1,9.71973,4.374l-2.42969,2.916a9.68158,9.68158,0,0,0-7.23633-3.34864c-6.69629,0-11.124,5.50879-11.124,14.31055,0,8.91016,4.26562,14.52637,10.96191,14.52637,3.40234,0,5.94043-1.51172,8.208-3.9961l2.48437,2.80762a13.70578,13.70578,0,0,1-10.85449,5.13086C1045.09863,652.81543,1038.50977,646.01074,1038.50977,634.45508Z" fill="#e4e4e4"/><path d="M963.88281,776.74219h5.39942l6.80468,18.90039c.86426,2.43066,1.67383,4.96777,2.53809,7.39844h.21582c.86426-2.43067,1.56641-4.96778,2.42969-7.39844l6.69629-18.90039h5.4541V812.167H989.209V792.67285c0-3.13183.37793-7.34473.59375-10.47656h-.21582l-2.80761,8.0459L980.083,808.60254H977.1123L970.417,790.24219l-2.80859-8.0459h-.21582c.21582,3.13183.54,7.34473.54,10.47656V812.167h-4.04981Z" fill="#e4e4e4"/><path d="M1001.08789,794.45508c0-11.39453,6.69629-18.36035,15.71484-18.36035a12.92309,12.92309,0,0,1,9.71973,4.374l-2.42969,2.916a9.68156,9.68156,0,0,0-7.23632-3.34864c-6.69629,0-11.124,5.50879-11.124,14.31055,0,8.91016,4.26563,14.52637,10.96192,14.52637,3.40234,0,5.94043-1.51172,8.208-3.9961l2.48438,2.80762a13.7058,13.7058,0,0,1-10.85449,5.13086C1007.67676,812.81543,1001.08789,806.01074,1001.08789,794.45508Z" fill="#e4e4e4"/><path d="M1044.77441,776.74219h8.85547c10.90821,0,16.74024,6.31836,16.74024,17.55078,0,11.28613-5.832,17.874-16.52344,17.874h-9.07227Zm8.53223,31.75293c8.26172,0,12.41992-5.23828,12.41992-14.20215,0-8.91016-4.1582-13.87891-12.41992-13.87891h-4.05078v28.08106Z" fill="#e4e4e4"/><path d="M533.69531,565.31445h10.53028c7.18164,0,12.14941,2.43067,12.14941,8.64063,0,3.50976-1.83594,6.6416-5.18359,7.72168v.21582c4.26562.81054,7.23632,3.61816,7.23632,8.47851,0,6.96582-5.50878,10.36817-13.44628,10.36817H533.69531Zm9.71973,15.06641c6.04785,0,8.53223-2.21387,8.53223-5.832,0-4.10449-2.80762-5.66992-8.31641-5.66992h-5.4541v11.50195Zm.918,16.79394c6.10254,0,9.666-2.21386,9.666-6.96582,0-4.374-3.45605-6.37207-9.666-6.37207h-6.15625V597.1748Z" fill="#e4e4e4"/><path d="M563.07129,587.6709c0-8.58594,5.77734-13.82422,11.77148-13.82422,6.69629,0,10.47657,4.80664,10.47657,12.3125a17.12141,17.12141,0,0,1-.16211,2.53809H567.44531c.32324,5.56152,3.72559,9.126,8.74805,9.126a11.86032,11.86032,0,0,0,6.53418-2.05176l1.56543,2.916a15.62757,15.62757,0,0,1-8.63965,2.7002C568.63281,601.3877,563.07129,596.25684,563.07129,587.6709Zm18.36035-2.16016c0-5.292-2.376-8.15429-6.48047-8.15429-3.67187,0-7.02051,2.9707-7.56055,8.15429Z" fill="#e4e4e4"/><path d="M591.79785,574.49512h3.67285l.37793,3.78027h.16211c2.4834-2.48437,5.1836-4.42871,8.80176-4.42871,5.50781,0,7.99219,3.56445,7.99219,10.26074v16.63184H608.376V584.70117c0-4.91406-1.51172-7.02051-4.96778-7.02051-2.70019,0-4.53613,1.4043-7.18164,4.04981v19.00879h-4.42871Z" fill="#e4e4e4"/><path d="M619.44629,587.6709c0-8.53223,5.40039-13.82422,11.39453-13.82422,3.02344,0,5.02148,1.13379,7.34375,3.02441l-.21582-4.48242V562.291h4.48145v38.44824h-3.67188l-.37793-3.07813h-.16211c-2.05176,1.99805-4.85937,3.72657-7.9375,3.72657C623.71191,601.3877,619.44629,596.419,619.44629,587.6709Zm18.52246,6.37207V580.32715a9.13268,9.13268,0,0,0-6.37207-2.75391c-4.21191,0-7.56055,4.04981-7.56055,10.04395,0,6.26367,2.64649,10.04394,7.23633,10.04394C633.70215,597.66113,635.80859,596.47363,637.96875,594.043Z" fill="#e4e4e4"/><path d="M649.3623,587.6709c0-8.58594,5.77735-13.82422,11.77149-13.82422,6.69629,0,10.47656,4.80664,10.47656,12.3125a17.12005,17.12005,0,0,1-.16211,2.53809H653.73633c.32324,5.56152,3.72558,9.126,8.74805,9.126a11.86029,11.86029,0,0,0,6.53417-2.05176l1.56543,2.916a15.62753,15.62753,0,0,1-8.63964,2.7002C654.92383,601.3877,649.3623,596.25684,649.3623,587.6709Zm18.36036-2.16016c0-5.292-2.376-8.15429-6.48047-8.15429-3.67188,0-7.02051,2.9707-7.56055,8.15429Z" fill="#e4e4e4"/><path d="M678.08887,574.49512h3.67285l.37793,4.75195h.16211c1.78125-3.29395,4.48144-5.40039,7.45117-5.40039a6.52072,6.52072,0,0,1,2.80859.54l-.86425,3.88867a7.33418,7.33418,0,0,0-2.53809-.43262c-2.21387,0-4.86035,1.62012-6.6416,6.04785v16.84864h-4.42871Z" fill="#e4e4e4"/><path d="M504.916,662.457h5.07617l11.98828,35.42481h-4.80664L513.82617,687.082H500.91992l-3.40234,10.79981h-4.58985Zm-2.86231,21.00684h10.63867l-1.6748-5.40039c-1.2959-3.94239-2.42969-7.83008-3.56348-11.93457h-.21582c-1.08008,4.10449-2.21484,7.99218-3.51074,11.93457Z" fill="#e4e4e4"/><path d="M526.78613,675.25586h-3.56445v-3.34863l3.56445-.26953v-4.15821c0-5.34668,2.42969-8.69433,7.668-8.69433a11.88609,11.88609,0,0,1,4.374.86425l-.97265,3.40235a7.36252,7.36252,0,0,0-2.96973-.64844c-2.48437,0-3.67187,1.72754-3.67187,5.07617v4.15821h9.6123l.54-7.34473h3.67188v7.34473H552.166v3.61816h-7.12793v14.58008c0,3.24023,1.08007,5.07617,4.10351,5.07617a9.53416,9.53416,0,0,0,2.9707-.70215l.86329,3.34766a16.18735,16.18735,0,0,1-4.85938.97265c-5.61621,0-7.50586-3.56445-7.50586-8.749V675.25586h-9.39648v22.626h-4.42774Z" fill="#e4e4e4"/><path d="M555.40625,684.81348c0-8.58594,5.77734-13.82422,11.77148-13.82422,6.69629,0,10.47657,4.80664,10.47657,12.3125a17.11981,17.11981,0,0,1-.16211,2.53808H559.78027c.32325,5.56153,3.72559,9.126,8.74805,9.126a11.86032,11.86032,0,0,0,6.53418-2.05176l1.56543,2.916a15.62757,15.62757,0,0,1-8.63965,2.70019C560.96777,698.53027,555.40625,693.39941,555.40625,684.81348Zm18.36035-2.16016c0-5.292-2.376-8.1543-6.48047-8.1543-3.67187,0-7.02051,2.97071-7.56054,8.1543Z" fill="#e4e4e4"/><path d="M584.13281,671.6377h3.67285l.37793,4.75195h.16114c1.78222-3.29395,4.48242-5.40039,7.45215-5.40039a6.52078,6.52078,0,0,1,2.80859.54l-.86426,3.88867a7.33418,7.33418,0,0,0-2.53809-.43262c-2.21386,0-4.86035,1.62012-6.6416,6.04785v16.84864h-4.42871Z" fill="#e4e4e4"/><path d="M603.626,689.78125V675.25586h-3.8877v-3.34863l4.10449-.26953.54-7.34473h3.72559v7.34473h7.07422v3.61816H608.1084v14.58008c0,3.24023,1.02637,5.07617,4.0498,5.07617a9.53429,9.53429,0,0,0,2.97071-.70215l.86328,3.34766a16.18735,16.18735,0,0,1-4.85938.97265C605.5166,698.53027,603.626,694.96582,603.626,689.78125Z" fill="#e4e4e4"/><path d="M618.42285,684.81348c0-8.80176,5.72363-13.82422,12.14942-13.82422,6.42675,0,12.15039,5.02246,12.15039,13.82422,0,8.69433-5.72364,13.71679-12.15039,13.71679C624.14648,698.53027,618.42285,693.50781,618.42285,684.81348Zm19.71,0c0-6.04786-3.02441-10.15235-7.56054-10.15235-4.48145,0-7.55957,4.10449-7.55957,10.15235,0,5.99414,3.07812,10.04394,7.55957,10.04394C635.1084,694.85742,638.13281,690.80762,638.13281,684.81348Z" fill="#e4e4e4"/><path d="M649.25586,688.26953V671.6377h4.48242v16.03808c0,4.91406,1.458,7.01953,4.91406,7.01953,2.7002,0,4.58985-1.34961,7.07422-4.42773V671.6377h4.42774v26.24414h-3.67188l-.37793-4.1045h-.16211c-2.42968,2.86231-5.02246,4.75293-8.64062,4.75293C651.74023,698.53027,649.25586,694.96582,649.25586,688.26953Z" fill="#e4e4e4"/><path d="M677.06543,684.81348c0-8.80176,5.88574-13.82422,12.63574-13.82422a10.89318,10.89318,0,0,1,7.668,3.07812l-2.26758,2.916a7.699,7.699,0,0,0-5.23828-2.32227c-4.752,0-8.208,4.10449-8.208,10.15235,0,5.99414,3.29395,10.04394,8.09961,10.04394a9.32611,9.32611,0,0,0,6.15625-2.64551l1.94434,2.96973a12.80044,12.80044,0,0,1-8.47852,3.34863C682.41113,698.53027,677.06543,693.50781,677.06543,684.81348Z" fill="#e4e4e4"/><path d="M703.63281,659.43359h4.42871v10.47559l-.16211,5.40039c2.4834-2.376,5.12989-4.32031,8.74805-4.32031,5.50781,0,7.99219,3.56445,7.99219,10.26074v16.63184h-4.42871V681.84375c0-4.91406-1.51172-7.02051-4.96778-7.02051-2.70019,0-4.53613,1.4043-7.18164,4.04981v19.00879h-4.42871Z" fill="#e4e4e4"/><path d="M515.44629,759.60059H526.5166c7.23535,0,12.41992,2.59277,12.41992,9.93652,0,5.50781-3.13183,8.85644-7.99218,10.04394l9.01757,15.44434h-5.07519l-8.53223-14.958h-6.42676v14.958h-4.48144Zm10.42187,16.79492c5.50782,0,8.58594-2.26856,8.58594-6.8584,0-4.64453-3.07812-6.31836-8.58594-6.31836h-5.94043v13.17676Z" fill="#e4e4e4"/><path d="M544.92969,760.51855a3.08634,3.08634,0,0,1,6.15625,0,3.08626,3.08626,0,0,1-6.15625,0Zm.80957,8.2627H550.168v26.24414h-4.42871Z" fill="#e4e4e4"/><path d="M563.127,792.3252h-.16211l-.37793,2.70019h-3.56445V756.57715h4.42871v10.47558l-.1084,4.752c2.376-2.10547,5.292-3.67188,8.208-3.67188,6.80469,0,10.42285,5.23828,10.42285,13.33789,0,8.96485-5.34668,14.20313-11.34082,14.20313A11.76212,11.76212,0,0,1,563.127,792.3252Zm14.25586-10.79981c0-5.77832-1.94336-9.666-6.91211-9.666-2.21386,0-4.53613,1.24121-7.01953,3.56347v13.77051a10.27048,10.27048,0,0,0,6.42578,2.75391C574.19727,791.94727,577.38281,788.00488,577.38281,781.52539Z" fill="#e4e4e4"/><path d="M592.98828,792.3252h-.16211l-.37793,2.70019h-3.56445V756.57715h4.42871v10.47558l-.1084,4.752c2.376-2.10547,5.292-3.67188,8.208-3.67188,6.80469,0,10.42285,5.23828,10.42285,13.33789,0,8.96485-5.34668,14.20313-11.34082,14.20313A11.76212,11.76212,0,0,1,592.98828,792.3252Zm14.25586-10.79981c0-5.77832-1.94336-9.666-6.91211-9.666-2.21387,0-4.53613,1.24121-7.01953,3.56347v13.77051a10.27048,10.27048,0,0,0,6.42578,2.75391C604.05859,791.94727,607.24414,788.00488,607.24414,781.52539Z" fill="#e4e4e4"/><path d="M616.80176,781.957c0-8.80176,5.72363-13.82422,12.14941-13.82422,6.42676,0,12.15039,5.02246,12.15039,13.82422,0,8.69434-5.72363,13.7168-12.15039,13.7168C622.52539,795.67383,616.80176,790.65137,616.80176,781.957Zm19.71,0c0-6.04785-3.02442-10.15234-7.56055-10.15234-4.48144,0-7.55957,4.10449-7.55957,10.15234,0,5.99414,3.07813,10.04395,7.55957,10.04395C633.4873,792.001,636.51172,787.95117,636.51172,781.957Z" fill="#e4e4e4"/><path d="M648.0127,768.78125h3.67285l.37793,3.7793h.16211c2.48339-2.4834,5.18359-4.42774,8.80175-4.42774,5.50782,0,7.99219,3.56446,7.99219,10.26074v16.63184h-4.42871V778.9873c0-4.91406-1.51172-7.0205-4.96777-7.0205-2.7002,0-4.53614,1.40429-7.18164,4.05078v19.00781H648.0127Z" fill="#e4e4e4"/><path d="M688.18848,791.35352h7.88476V765.97266h-6.26465v-2.86133a20.487,20.487,0,0,0,7.29-2.53809H700.501v30.78028h7.12793v3.67187H688.18848Z" fill="#e4e4e4"/><path d="M515.44531,856.74316h11.07031c7.23536,0,12.41993,2.59278,12.41993,9.93653,0,5.50781-3.13184,8.85644-7.99219,10.04394l9.01855,15.44434h-5.07617l-8.53222-14.958h-6.42676v14.958h-4.48145Zm10.42188,16.79493c5.50781,0,8.58593-2.26856,8.58593-6.8584,0-4.64453-3.07812-6.31836-8.58593-6.31836h-5.94043v13.17676Z" fill="#e4e4e4"/><path d="M544.92871,857.66113a3.08634,3.08634,0,0,1,6.15625,0,3.08626,3.08626,0,0,1-6.15625,0Zm.80957,8.2627H550.167V892.168h-4.42871Z" fill="#e4e4e4"/><path d="M563.126,889.46777h-.16211l-.37793,2.7002h-3.56446V853.71973h4.42872v10.47558l-.1084,4.752c2.376-2.10547,5.292-3.67188,8.208-3.67188,6.80469,0,10.42286,5.23828,10.42286,13.33789,0,8.96484-5.34668,14.20313-11.34082,14.20313A11.76206,11.76206,0,0,1,563.126,889.46777Zm14.25586-10.7998c0-5.77832-1.94336-9.666-6.91211-9.666-2.21387,0-4.53614,1.24121-7.01953,3.56348v13.77051a10.2705,10.2705,0,0,0,6.42578,2.7539C574.19629,889.08984,577.38184,885.14746,577.38184,878.668Z" fill="#e4e4e4"/><path d="M592.9873,889.46777h-.1621l-.37793,2.7002h-3.56446V853.71973h4.42871v10.47558l-.1084,4.752c2.376-2.10547,5.292-3.67188,8.208-3.67188,6.80469,0,10.42285,5.23828,10.42285,13.33789,0,8.96484-5.34668,14.20313-11.34082,14.20313A11.7621,11.7621,0,0,1,592.9873,889.46777Zm14.25586-10.7998c0-5.77832-1.94336-9.666-6.91211-9.666-2.21386,0-4.53613,1.24121-7.01953,3.56348v13.77051a10.27054,10.27054,0,0,0,6.42578,2.7539C604.05762,889.08984,607.24316,885.14746,607.24316,878.668Z" fill="#e4e4e4"/><path d="M616.80078,879.09961c0-8.80176,5.72363-13.82422,12.14942-13.82422,6.42675,0,12.15039,5.02246,12.15039,13.82422,0,8.69434-5.72364,13.7168-12.15039,13.7168C622.52441,892.81641,616.80078,887.794,616.80078,879.09961Zm19.71,0c0-6.04785-3.02441-10.15234-7.56054-10.15234-4.48145,0-7.55958,4.10449-7.55958,10.15234,0,5.99414,3.07813,10.04394,7.55958,10.04394C633.48633,889.14355,636.51074,885.09375,636.51074,879.09961Z" fill="#e4e4e4"/><path d="M648.01172,865.92383h3.67285l.37793,3.77929h.16113c2.48438-2.48339,5.18457-4.42773,8.80274-4.42773,5.50781,0,7.99218,3.56445,7.99218,10.26074V892.168h-4.42871V876.12988c0-4.91406-1.51172-7.0205-4.96777-7.0205-2.70019,0-4.53613,1.40429-7.18164,4.05078V892.168h-4.42871Z" fill="#e4e4e4"/><path d="M686.082,889.52148c10.36817-10.31347,16.2002-16.52343,16.2002-22.08593,0-3.94239-2.16016-6.75-6.53418-6.75-2.86231,0-5.34571,1.83593-7.34375,4.1582l-2.53809-2.53809c2.86133-3.13183,5.93945-5.23828,10.42188-5.23828,6.37207,0,10.31445,4.04981,10.31445,10.15235,0,6.47949-5.88672,12.90625-14.041,21.43847,1.89063-.16211,3.9961-.32422,5.77832-.32422h9.99024v3.834H686.082Z" fill="#e4e4e4"/><path d="M1409.07324,257.53711a56.99807,56.99807,0,1,1,46.00781,0l-2.18066.96191-9.05566-20.51367,2.17968-.959a34.56641,34.56641,0,1,0-27.89648,0l2.17871.958-9.05371,20.51464Z" fill="#7f7f7f"/><path d="M1432.07544,149.45215a55.9594,55.9594,0,0,1,22.60132,107.16943l-1.26563.5586-8.24707-18.68287,1.26294-.5559a35.56568,35.56568,0,1,0-28.70312,0l1.26318.5559-8.24463,18.68287-1.26562-.5586a55.95868,55.95868,0,0,1,22.59863-107.16943m0-2a57.95876,57.95876,0,0,0-23.40674,110.999l1.26611.55884,1.82984.80737.80762-1.82983,8.24462-18.68286.80811-1.83155-1.83228-.80639-1.26318-.55591a33.56579,33.56579,0,1,1,27.08936.001l-1.2605.55493-1.83252.80664.80859,1.83154,8.24707,18.68286.80762,1.82959,1.82959-.80761,1.26563-.5586a57.95934,57.95934,0,0,0-23.40894-110.999Z"/><line x1="1432.07547" y1="205.64947" x2="1483.74625" y2="183.84971" fill="none" stroke="#000" stroke-linecap="round" stroke-width="11"/><line x1="1432.07547" y1="205.64947" x2="1483.74625" y2="183.84971" fill="none" stroke="#fff" stroke-linecap="round" stroke-width="4"/><path d="M1432.07552,215.70605a10.05615,10.05615,0,1,1,10.05566-10.05664A10.06845,10.06845,0,0,1,1432.07552,215.70605Z" fill="#7f7f7f"/><path d="M1432.07552,196.09326a9.55616,9.55616,0,1,1-9.55615,9.55615,9.567,9.567,0,0,1,9.55615-9.55615m0-1a10.55616,10.55616,0,1,0,10.55615,10.55615,10.55621,10.55621,0,0,0-10.55615-10.55615Z"/><path d="M1409.07324,395.53711a56.99807,56.99807,0,1,1,46.00781,0l-2.18066.96191-9.05566-20.51367,2.17968-.959a34.56641,34.56641,0,1,0-27.89648,0l2.17871.958-9.05371,20.51464Z" fill="#7f7f7f"/><path d="M1432.07544,287.45215a55.9594,55.9594,0,0,1,22.60132,107.16943l-1.26563.5586-8.24707-18.68287,1.26294-.5559a35.56568,35.56568,0,1,0-28.70312,0l1.26318.5559-8.24463,18.68287-1.26562-.5586a55.95868,55.95868,0,0,1,22.59863-107.16943m0-2a57.95876,57.95876,0,0,0-23.40674,110.999l1.26611.55884,1.82984.80737.80762-1.82983,8.24462-18.68286.80811-1.83155-1.83228-.80639-1.26318-.55591a33.56579,33.56579,0,1,1,27.08936.001l-1.2605.55493-1.83252.80664.80859,1.83154,8.24707,18.68286.80762,1.82959,1.82959-.80761,1.26563-.5586a57.95934,57.95934,0,0,0-23.40894-110.999Z"/><line x1="1432.07547" y1="343.64947" x2="1483.74625" y2="321.84971" fill="none" stroke="#000" stroke-linecap="round" stroke-width="11"/><line x1="1432.07547" y1="343.64947" x2="1483.74625" y2="321.84971" fill="none" stroke="#fff" stroke-linecap="round" stroke-width="4"/><path d="M1432.07552,353.70605a10.05615,10.05615,0,1,1,10.05566-10.05664A10.06845,10.06845,0,0,1,1432.07552,353.70605Z" fill="#7f7f7f"/><path d="M1432.07552,334.09326a9.55616,9.55616,0,1,1-9.55615,9.55615,9.567,9.567,0,0,1,9.55615-9.55615m0-1a10.55616,10.55616,0,1,0,10.55615,10.55615,10.55621,10.55621,0,0,0-10.55615-10.55615Z"/><path d="M1409.07324,533.53711a56.99807,56.99807,0,1,1,46.00781,0l-2.18066.96191-9.05566-20.51367,2.17968-.959a34.56641,34.56641,0,1,0-27.89648,0l2.17871.958-9.05371,20.51464Z" fill="#7f7f7f"/><path d="M1432.07544,425.45215a55.9594,55.9594,0,0,1,22.60132,107.16943l-1.26563.5586-8.24707-18.68287,1.26294-.5559a35.56568,35.56568,0,1,0-28.70312,0l1.26318.5559-8.24463,18.68287-1.26562-.5586a55.95868,55.95868,0,0,1,22.59863-107.16943m0-2a57.95876,57.95876,0,0,0-23.40674,110.999l1.26611.55884,1.82984.80737.80762-1.82983,8.24462-18.68286.80811-1.83155-1.83228-.80639-1.26318-.55591a33.56579,33.56579,0,1,1,27.08936.001l-1.2605.55493-1.83252.80664.80859,1.83154,8.24707,18.68286.80762,1.82959,1.82959-.80761,1.26563-.5586a57.95934,57.95934,0,0,0-23.40894-110.999Z"/><line x1="1432.07547" y1="481.64947" x2="1483.74625" y2="459.84971" fill="none" stroke="#000" stroke-linecap="round" stroke-width="11"/><line x1="1432.07547" y1="481.64947" x2="1483.74625" y2="459.84971" fill="none" stroke="#fff" stroke-linecap="round" stroke-width="4"/><path d="M1432.07552,491.70605a10.05615,10.05615,0,1,1,10.05566-10.05664A10.06845,10.06845,0,0,1,1432.07552,491.70605Z" fill="#7f7f7f"/><path d="M1432.07552,472.09326a9.55616,9.55616,0,1,1-9.55615,9.55615,9.567,9.567,0,0,1,9.55615-9.55615m0-1a10.55616,10.55616,0,1,0,10.55615,10.55615,10.55621,10.55621,0,0,0-10.55615-10.55615Z"/><path d="M1409.07324,671.53711a56.99807,56.99807,0,1,1,46.00781,0l-2.18066.96191-9.05566-20.51367,2.17968-.959a34.56641,34.56641,0,1,0-27.89648,0l2.17871.958-9.05371,20.51464Z" fill="#7f7f7f"/><path d="M1432.07544,563.45215a55.9594,55.9594,0,0,1,22.60132,107.16943l-1.26563.5586-8.24707-18.68262,1.26294-.55615a35.56568,35.56568,0,1,0-28.70312,0l1.26318.55615-8.24463,18.68262-1.26562-.5586a55.95868,55.95868,0,0,1,22.59863-107.16943m0-2a57.95876,57.95876,0,0,0-23.40674,110.999l1.26611.5586,1.82984.80761.80762-1.82959,8.24462-18.68261.80811-1.83155-1.832-.80664-1.26318-.55615a33.56567,33.56567,0,1,1,27.08911.001l-1.261.55517-1.832.80713.80859,1.83106,8.24707,18.68261.80762,1.82959,1.82959-.80761,1.26563-.5586a57.95934,57.95934,0,0,0-23.40894-110.999Z"/><line x1="1432.07547" y1="619.64947" x2="1483.74625" y2="597.84971" fill="none" stroke="#000" stroke-linecap="round" stroke-width="11"/><line x1="1432.07547" y1="619.64947" x2="1483.74625" y2="597.84971" fill="none" stroke="#fff" stroke-linecap="round" stroke-width="4"/><path d="M1432.07552,629.70605a10.05615,10.05615,0,1,1,10.05566-10.05664A10.06845,10.06845,0,0,1,1432.07552,629.70605Z" fill="#7f7f7f"/><path d="M1432.07552,610.09326a9.55616,9.55616,0,1,1-9.55615,9.55615,9.567,9.567,0,0,1,9.55615-9.55615m0-1a10.55616,10.55616,0,1,0,10.55615,10.55615,10.55621,10.55621,0,0,0-10.55615-10.55615Z"/><path d="M1409.07324,809.53711a56.99807,56.99807,0,1,1,46.00781,0l-2.18066.96191-9.05566-20.51367,2.17968-.959a34.56641,34.56641,0,1,0-27.89648,0l2.17871.958-9.05371,20.51464Z" fill="#7f7f7f"/><path d="M1432.07544,701.45215a55.9594,55.9594,0,0,1,22.60132,107.16943l-1.26563.5586-8.24707-18.68262,1.26294-.55615a35.56568,35.56568,0,1,0-28.70312,0l1.26318.55615-8.24463,18.68262-1.26562-.5586a55.95868,55.95868,0,0,1,22.59863-107.16943m0-2a57.95876,57.95876,0,0,0-23.40674,110.999l1.26611.5586,1.82984.80761.80762-1.82959,8.24462-18.68261.80811-1.83155-1.832-.80664-1.26318-.55615a33.56567,33.56567,0,1,1,27.08911.001l-1.261.55517-1.832.80713.80859,1.83106,8.24707,18.68261.80762,1.82959,1.82959-.80761,1.26563-.5586a57.95934,57.95934,0,0,0-23.40894-110.999Z"/><line x1="1432.07547" y1="757.64947" x2="1483.74625" y2="735.84971" fill="none" stroke="#000" stroke-linecap="round" stroke-width="11"/><line x1="1432.07547" y1="757.64947" x2="1483.74625" y2="735.84971" fill="none" stroke="#fff" stroke-linecap="round" stroke-width="4"/><path d="M1432.07552,767.70605a10.05615,10.05615,0,1,1,10.05566-10.05664A10.06845,10.06845,0,0,1,1432.07552,767.70605Z" fill="#7f7f7f"/><path d="M1432.07552,748.09326a9.55616,9.55616,0,1,1-9.55615,9.55615,9.567,9.567,0,0,1,9.55615-9.55615m0-1a10.55616,10.55616,0,1,0,10.55615,10.55615,10.55621,10.55621,0,0,0-10.55615-10.55615Z"/><path d="M1409.07324,947.53711a56.99807,56.99807,0,1,1,46.00781,0l-2.18066.96191-9.05566-20.51367,2.17968-.959a34.56641,34.56641,0,1,0-27.89648,0l2.17871.958-9.05371,20.51464Z" fill="#7f7f7f"/><path d="M1432.07544,839.45215a55.9594,55.9594,0,0,1,22.60132,107.16943l-1.26563.5586-8.24707-18.68262,1.26294-.55615a35.56568,35.56568,0,1,0-28.70312,0l1.26318.55615-8.24463,18.68262-1.26562-.5586a55.95868,55.95868,0,0,1,22.59863-107.16943m0-2a57.95876,57.95876,0,0,0-23.40674,110.999l1.26611.5586,1.82984.80761.80762-1.82959,8.24462-18.68261.80811-1.83155-1.832-.80664-1.26318-.55615a33.56567,33.56567,0,1,1,27.08911.001l-1.261.55517-1.832.80713.80859,1.83106,8.24707,18.68261.80762,1.82959,1.82959-.80761,1.26563-.5586a57.95934,57.95934,0,0,0-23.40894-110.999Z"/><line x1="1432.07547" y1="895.64947" x2="1483.74625" y2="873.84971" fill="none" stroke="#000" stroke-linecap="round" stroke-width="11"/><line x1="1432.07547" y1="895.64947" x2="1483.74625" y2="873.84971" fill="none" stroke="#fff" stroke-linecap="round" stroke-width="4"/><path d="M1432.07552,905.70605a10.05615,10.05615,0,1,1,10.05566-10.05664A10.06845,10.06845,0,0,1,1432.07552,905.70605Z" fill="#7f7f7f"/><path d="M1432.07552,886.09326a9.55616,9.55616,0,1,1-9.55615,9.55615,9.567,9.567,0,0,1,9.55615-9.55615m0-1a10.55616,10.55616,0,1,0,10.55615,10.55615,10.55621,10.55621,0,0,0-10.55615-10.55615Z"/><path d="M76.17668,693.13843a5.97959,5.97959,0,0,1-5.97405-5.974v-9.77083a5.97959,5.97959,0,0,1,5.97405-5.97405h96.06079V652.9863L90.169,652.01319c-2.08391,0-4.67889-2.609-4.67889-4.73024v-8.61569c0-2.12125,2.595-4.73023,4.7069-4.73023l82.04045,4.86325v-7.47923h110.8769c6.74414,0,12.54083,3.96247,14.09735,9.63548l8.34966,30.463h4.79791a5.97958,5.97958,0,0,1,5.974,5.97405v9.77083a5.97958,5.97958,0,0,1-5.974,5.974Z" fill="#979797" stroke="#000" stroke-miterlimit="10"/><path d="M90.1965,649.624,211.167,651.06a1.42791,1.42791,0,0,0,1.41115-1.436v-4.682a1.42791,1.42791,0,0,0-1.41115-1.436L90.1965,636.32613a3.47294,3.47294,0,0,0-2.31631,2.34116v8.61556A3.473,3.473,0,0,0,90.1965,649.624Z" fill="#363636"/><path d="M91.676,644.89554l117.9893,1.53141c.757,0,1.37638-.2552,1.37638-.56712v-1.32831c0-.31192-.61937-.56712-1.37638-.56712L91.676,638.20577c-.757,0-2.25923.61269-2.25923.9246v4.84057C89.41673,644.28286,90.919,644.89554,91.676,644.89554Z" fill="#f2f2f2"/><path d="M174.98658,675.005H303.69733l-9.13692-33.32126c-1.22157-4.45489-5.97037-7.61369-11.4461-7.61369H174.98658Z" stroke="#ccc" stroke-miterlimit="10" stroke-width="0.3"/><path d="M180.15011,675.005h116.9643l-8.30307-29.29525c-1.11008-3.91663-5.4255-6.69377-10.4015-6.69377H180.15011Z" fill="#202020"/><rect x="73.78707" y="675.00504" width="238.96185" height="14.54805" rx="1" ry="1" fill="#202020" stroke="#4e4e4e" stroke-miterlimit="10"/><path d="M76.17668,406.38421a5.97959,5.97959,0,0,1-5.97405-5.974v-9.77083a5.97959,5.97959,0,0,1,5.97405-5.974h96.06079v-18.4332L90.169,365.259c-2.08391,0-4.67889-2.609-4.67889-4.73023V351.913c0-2.12125,2.595-4.73023,4.7069-4.73023l82.04045,4.86325v-7.47923h110.8769c6.74414,0,12.54083,3.96248,14.09735,9.63549l8.34966,30.463h4.79791a5.97958,5.97958,0,0,1,5.974,5.974v9.77083a5.97958,5.97958,0,0,1-5.974,5.974Z" fill="#979797" stroke="#000" stroke-miterlimit="10"/><path d="M90.1965,362.86978l120.97053,1.436a1.42791,1.42791,0,0,0,1.41115-1.436v-4.682a1.42791,1.42791,0,0,0-1.41115-1.436L90.1965,349.57192a3.47293,3.47293,0,0,0-2.31631,2.34115v8.61556A3.47293,3.47293,0,0,0,90.1965,362.86978Z" fill="#363636"/><path d="M91.676,358.14133l117.9893,1.5314c.757,0,1.37638-.2552,1.37638-.56711V357.7773c0-.31191-.61937-.56712-1.37638-.56712L91.676,351.45155c-.757,0-2.25923.61269-2.25923.9246v4.84058C89.41673,357.52864,90.919,358.14133,91.676,358.14133Z" fill="#f2f2f2"/><path d="M174.98658,388.25082H303.69733l-9.13692-33.32126c-1.22157-4.45489-5.97037-7.61369-11.4461-7.61369H174.98658Z" stroke="#ccc" stroke-miterlimit="10" stroke-width="0.3"/><path d="M180.15011,388.25082h116.9643l-8.30307-29.29524c-1.11008-3.91663-5.4255-6.69377-10.4015-6.69377H180.15011Z" fill="#202020"/><rect x="73.78707" y="388.25082" width="238.96185" height="14.54805" rx="1" ry="1" fill="#202020" stroke="#4e4e4e" stroke-miterlimit="10"/><rect x="585.92318" y="1061.25" width="49.5" height="259.5" rx="1.75" ry="1.75" fill="#666"/><path d="M633.6733,1061.5a1.50164,1.50164,0,0,1,1.5,1.5v256a1.50164,1.50164,0,0,1-1.5,1.5h-46a1.50164,1.50164,0,0,1-1.5-1.5V1063a1.50164,1.50164,0,0,1,1.5-1.5h46m0-.5h-46a2.00583,2.00583,0,0,0-2,2v256a2.00583,2.00583,0,0,0,2,2h46a2.00583,2.00583,0,0,0,2-2V1063a2.00583,2.00583,0,0,0-2-2Z" fill="#202020"/><line x1="610.67333" y1="1071" x2="610.67333" y2="1311" fill="none" stroke="#000" stroke-width="3"/><circle cx="610.67333" cy="1161" r="15" fill="#fff" stroke="#000" stroke-width="2"/></svg>