<svg height="300" viewBox="0 0 760 300" width="760" xmlns="http://www.w3.org/2000/svg"><path d="m0 0h760v300h-760z" fill="#202020"/><g fill="#e4e4e4"><path d="m44.89746 34.57031h3l3.7793 10.499c.48047 1.34961.92969 2.75976 1.41015 4.11035h.12009c.47949-1.35059.87012-2.76074 1.34961-4.11035l3.71973-10.499h3.03027v19.67869h-2.33981v-10.82908c0-1.74023.21-4.08008.33008-5.82031h-.12012l-1.56055 4.46973-3.71973 10.20019h-1.64941l-3.71973-10.20019-1.56054-4.46973h-.12012c.12012 1.74023.30078 4.08008.30078 5.82031v10.82908h-2.25z"/><path d="m65.56641 50.46875c0-3.17969 2.73047-4.76953 8.94043-5.459 0-1.86036-.60059-3.66016-3-3.66016a7.9343 7.9343 0 0 0 -4.35059 1.55957l-.96-1.71a10.83291 10.83291 0 0 1 5.73047-1.88965c3.56933 0 5.06933 2.37012 5.06933 6v8.93949h-2.04l-.21-1.74023h-.08984a7.77515 7.77515 0 0 1 -4.83008 2.10059 3.96772 3.96772 0 0 1 -4.25972-4.14061zm8.94043.21v-4.0498c-4.86036.60058-6.54 1.80078-6.54 3.66015 0 1.65039 1.13965 2.33985 2.58008 2.33985 1.40913-.00004 2.54976-.6895 3.95992-1.95024z"/><path d="m80.50684 46.98926c0-4.88965 3.26953-7.67969 7.01953-7.67969a6.05146 6.05146 0 0 1 4.25976 1.71l-1.25976 1.62012a4.27578 4.27578 0 0 0 -2.91016-1.29c-2.63965 0-4.55957 2.28027-4.55957 5.63965 0 3.33008 1.83008 5.58008 4.5 5.58008a5.185 5.185 0 0 0 3.41992-1.46973l1.08008 1.64931a7.1132 7.1132 0 0 1 -4.71 1.86036c-3.87008.00002-6.8398-2.79002-6.8398-7.6201z"/><path d="m95.2666 39.66992h2.04l.21 2.63965h.08985c.99023-1.83008 2.49023-3 4.13964-3a3.62616 3.62616 0 0 1 1.56055.29981l-.48047 2.16015a4.0677 4.0677 0 0 0 -1.41015-.24023c-1.2295 0-2.69922.90039-3.68946 3.36035v9.35935h-2.46z"/><path d="m104.2959 46.98926c0-4.88965 3.17969-7.67969 6.75-7.67969 3.56933 0 6.75 2.79 6.75 7.67969 0 4.83008-3.18067 7.62012-6.75 7.62012-3.57031 0-6.75-2.79004-6.75-7.62012zm10.94922 0c0-3.35938-1.67969-5.63965-4.19922-5.63965-2.49024 0-4.2002 2.28027-4.2002 5.63965 0 3.33008 1.71 5.58008 4.2002 5.58008 2.51953 0 4.19922-2.25 4.19922-5.58008z"/><path d="m126.73535 44.40918c0-6.3291 3.7207-10.19922 8.73047-10.19922a7.1796 7.1796 0 0 1 5.39941 2.42969l-1.34961 1.62012a5.38068 5.38068 0 0 0 -4.0205-1.86036c-3.71973 0-6.17969 3.06055-6.17969 7.9502 0 4.94922 2.37012 8.06934 6.08984 8.06934a5.93729 5.93729 0 0 0 4.55957-2.21973l1.37989 1.55957a7.61412 7.61412 0 0 1 -6.0293 2.85059c-4.91992 0-8.58008-3.78028-8.58008-10.2002z"/><path d="m143.68555 46.98926c0-4.88965 3.17968-7.67969 6.75-7.67969 3.56933 0 6.749 2.79 6.749 7.67969 0 4.83008-3.17969 7.62012-6.749 7.62012-3.57032 0-6.75-2.79004-6.75-7.62012zm10.94922 0c0-3.35938-1.67969-5.63965-4.19922-5.63965-2.49024 0-4.2002 2.28027-4.2002 5.63965 0 3.33008 1.71 5.58008 4.2002 5.58008 2.51953 0 4.19922-2.25 4.19922-5.58008z"/><path d="m161.02539 39.66992h2.04l.21 2.09961h.08984a6.87244 6.87244 0 0 1 4.88965-2.46c3.05957 0 4.44043 1.97949 4.44043 5.7002v9.23927h-2.46v-8.90916c0-2.73046-.84082-3.90039-2.76074-3.90039-1.499 0-2.51953.78028-3.98926 2.25v10.55955h-2.46z"/><path d="m177.85547 49.749v-8.06931h-2.16016v-1.86035l2.28028-.14942.2998-4.08008h2.07031v4.08008h3.92969v2.00977h-3.92969v8.09961c0 1.7998.56934 2.81933 2.25 2.81933a5.29953 5.29953 0 0 0 1.64942-.38965l.48047 1.86036a9.0239 9.0239 0 0 1 -2.7002.54c-3.12012.00004-4.16992-1.98043-4.16992-4.86034z"/><path d="m187.5752 39.66992h2.04l.21 2.63965h.08984c.99023-1.83008 2.49023-3 4.13965-3a3.62612 3.62612 0 0 1 1.56054.29981l-.48046 2.16015a4.06776 4.06776 0 0 0 -1.41016-.24023c-1.22949 0-2.69922.90039-3.68945 3.36035v9.35935h-2.46z"/><path d="m196.60547 46.98926c0-4.88965 3.17969-7.67969 6.75-7.67969 3.56933 0 6.749 2.79 6.749 7.67969 0 4.83008-3.17969 7.62012-6.749 7.62012-3.57031 0-6.75-2.79004-6.75-7.62012zm10.94922 0c0-3.35938-1.67969-5.63965-4.19922-5.63965-2.49024 0-4.2002 2.28027-4.2002 5.63965 0 3.33008 1.71 5.58008 4.2002 5.58008 2.51953 0 4.19922-2.25 4.19922-5.58008z"/><path d="m213.94531 51.30957v-18.41992h2.46v18.59961c0 .78027.33008 1.08008.68946 1.08008a2.0457 2.0457 0 0 0 .54-.06055l.33007 1.86035a3.3211 3.3211 0 0 1 -1.41015.24024c-1.85938 0-2.60938-1.16993-2.60938-3.29981z"/><path d="m332.84766 34.57031h3l3.77929 10.499c.48047 1.34961.92969 2.75976 1.41016 4.11035h.12012c.47949-1.35059.87011-2.76074 1.34961-4.11035l3.71972-10.499h3.03028v19.67869h-2.33984v-10.82908c0-1.74023.21-4.08008.33008-5.82031h-.12008l-1.56054 4.46973-3.71973 10.20019h-1.64941l-3.71973-10.20019-1.56059-4.46973h-.12011c.12011 1.74023.30078 4.08008.30078 5.82031v10.82908h-2.25z"/><path d="m353.33691 46.98926c0-4.88965 3.17969-7.67969 6.75-7.67969 3.56934 0 6.75 2.79 6.75 7.67969 0 4.83008-3.18066 7.62012-6.75 7.62012-3.57031 0-6.75-2.79004-6.75-7.62012zm10.94922 0c0-3.35938-1.67968-5.63965-4.19922-5.63965-2.49023 0-4.20019 2.28027-4.20019 5.63965 0 3.33008 1.71 5.58008 4.20019 5.58008 2.51954 0 4.19922-2.25 4.19922-5.58008z"/><path d="m369.627 46.98926c0-4.73926 3-7.67969 6.3291-7.67969a6.00658 6.00658 0 0 1 4.08008 1.67969l-.12018-2.48926v-5.61035h2.49023v21.35935h-2.04l-.21-1.71h-.08984a6.576 6.576 0 0 1 -4.41016 2.07032c-3.65916.00006-6.02923-2.75971-6.02923-7.62006zm10.28907 3.54v-7.62008a5.07466 5.07466 0 0 0 -3.54-1.5293c-2.33985 0-4.19922 2.25-4.19922 5.5791 0 3.48047 1.46972 5.58008 4.01953 5.58008a4.9328 4.9328 0 0 0 3.71962-2.00976z"/><path d="m397.61621 34.57031h2.81934l6.66015 19.67869h-2.66992l-1.86035-6h-7.16895l-1.89062 6h-2.54981zm-1.58984 11.669h5.90918l-.92969-3c-.71973-2.18946-1.34961-4.34961-1.97949-6.62988h-.12012c-.60059 2.28027-1.23047 4.44042-1.9502 6.62988z"/><path d="m409.64648 39.66992h2.04l.21 2.09961h.08985a6.40711 6.40711 0 0 1 4.53027-2.46 3.82592 3.82592 0 0 1 4.01953 2.79c1.5293-1.65039 3.0293-2.79 4.79981-2.79 3 0 4.43945 1.97949 4.43945 5.7002v9.23927h-2.46v-8.90916c0-2.73046-.87012-3.90039-2.69922-3.90039-1.14062 0-2.31055.75-3.66016 2.25v10.55955h-2.46v-8.90916c0-2.73046-.87011-3.90039-2.72949-3.90039-1.08008 0-2.31055.75-3.66015 2.25v10.55955h-2.46z"/><path d="m433.43652 46.98926c0-4.88965 3.17969-7.67969 6.75-7.67969 3.56934 0 6.75 2.79 6.75 7.67969 0 4.83008-3.18066 7.62012-6.75 7.62012-3.57031 0-6.75-2.79004-6.75-7.62012zm10.94922 0c0-3.35938-1.67969-5.63965-4.19922-5.63965-2.49023 0-4.20019 2.28027-4.20019 5.63965 0 3.33008 1.71 5.58008 4.20019 5.58008 2.51953 0 4.19922-2.25 4.19922-5.58008z"/><path d="m450.56641 48.90918v-9.23926h2.49023v8.90918c0 2.73047.80957 3.90039 2.72949 3.90039 1.5 0 2.54981-.75 3.92969-2.46v-10.34957h2.46v14.57908h-2.04l-.21-2.28027h-.08984c-1.34961 1.58984-2.79 2.64063-4.79981 2.64063-3.08988.00002-4.46976-1.98045-4.46976-5.70018z"/><path d="m467.0957 39.66992h2.04l.21 2.09961h.08985a6.8724 6.8724 0 0 1 4.88965-2.46c3.05957 0 4.44042 1.97949 4.44042 5.7002v9.23927h-2.46v-8.90916c0-2.73046-.84082-3.90039-2.76074-3.90039-1.499 0-2.51953.78028-3.98926 2.25v10.55955h-2.46z"/><path d="m483.92578 49.749v-8.06931h-2.16016v-1.86035l2.28028-.14942.2998-4.08008h2.0703v4.08008h3.92968v2.00977h-3.92968v8.09961c0 1.7998.56933 2.81933 2.25 2.81933a5.29947 5.29947 0 0 0 1.64941-.38965l.48047 1.86036a9.02384 9.02384 0 0 1 -2.7002.54c-3.12009.00004-4.1699-1.98043-4.1699-4.86034z"/><path d="m578.32715 34.57031h5.60937c4.41016 0 7.37989 1.46973 7.37989 5.78907 0 4.13964-2.94043 6.08984-7.25977 6.08984h-3.24023v7.79978h-2.48926zm5.42969 9.83887c3.41992 0 5.06933-1.25977 5.06933-4.0498 0-2.84961-1.73926-3.7793-5.18945-3.7793h-2.82031v7.8291z"/><path d="m592.876 50.46875c0-3.17969 2.73047-4.76953 8.94043-5.459 0-1.86036-.60059-3.66016-3-3.66016a7.9343 7.9343 0 0 0 -4.35059 1.55957l-.96-1.71a10.83291 10.83291 0 0 1 5.73047-1.88965c3.56933 0 5.06933 2.37012 5.06933 6v8.93949h-2.04l-.21-1.74023h-.08984a7.77515 7.77515 0 0 1 -4.83008 2.10059 3.96772 3.96772 0 0 1 -4.25972-4.14061zm8.94043.21v-4.0498c-4.86036.60058-6.54 1.80078-6.54 3.66015 0 1.65039 1.13965 2.33985 2.58008 2.33985 1.40911-.00004 2.54974-.6895 3.9599-1.95024z"/><path d="m608.89648 39.66992h2.04l.21 2.63965h.08985c.99023-1.83008 2.49023-3 4.13965-3a3.62615 3.62615 0 0 1 1.56054.29981l-.48047 2.16015a4.0677 4.0677 0 0 0 -1.41015-.24023c-1.22949 0-2.69922.90039-3.68945 3.36035v9.35935h-2.46z"/><path d="m617.68652 50.46875c0-3.17969 2.73047-4.76953 8.94043-5.459 0-1.86036-.60058-3.66016-3-3.66016a7.93426 7.93426 0 0 0 -4.35058 1.55957l-.96-1.71a10.83287 10.83287 0 0 1 5.73047-1.88965c3.56933 0 5.06933 2.37012 5.06933 6v8.93949h-2.04l-.21-1.74023h-.08984a7.77517 7.77517 0 0 1 -4.83008 2.10059 3.96772 3.96772 0 0 1 -4.25973-4.14061zm8.94043.21v-4.0498c-4.86035.60058-6.54 1.80078-6.54 3.66015 0 1.65039 1.13965 2.33985 2.58008 2.33985 1.40914-.00004 2.54977-.6895 3.95997-1.95024z"/><path d="m633.707 39.66992h2.04l.21 2.09961h.08985a6.40709 6.40709 0 0 1 4.53027-2.46 3.82593 3.82593 0 0 1 4.01953 2.79c1.5293-1.65039 3.0293-2.79 4.7998-2.79 3 0 4.43946 1.97949 4.43946 5.7002v9.23927h-2.46v-8.90916c0-2.73046-.87012-3.90039-2.69922-3.90039-1.14063 0-2.31055.75-3.66016 2.25v10.55955h-2.46v-8.90916c0-2.73046-.87012-3.90039-2.72949-3.90039-1.08008 0-2.31055.75-3.66016 2.25v10.55955h-2.46z"/><path d="m657.49609 46.98926c0-4.76953 3.21-7.67969 6.54-7.67969 3.71973 0 5.81934 2.66992 5.81934 6.83984a9.60669 9.60669 0 0 1 -.08985 1.41016h-9.83984c.18067 3.08984 2.07031 5.06934 4.86035 5.06934a6.59261 6.59261 0 0 0 3.62989-1.13965l.87011 1.62012a8.68859 8.68859 0 0 1 -4.7998 1.5c-3.90035 0-6.9902-2.85059-6.9902-7.62012zm10.19922-1.2002c0-2.93945-1.31933-4.52929-3.59961-4.52929-2.04 0-3.89941 1.64941-4.19922 4.52929z"/><path d="m673.57617 49.749v-8.06931h-2.16017v-1.86035l2.28027-.14942.2998-4.08008h2.07032v4.08008h3.92968v2.00977h-3.92968v8.09961c0 1.7998.56933 2.81933 2.25 2.81933a5.29947 5.29947 0 0 0 1.64941-.38965l.48047 1.86036a9.02384 9.02384 0 0 1 -2.7002.54c-3.12007.00004-4.1699-1.98043-4.1699-4.86034z"/><path d="m681.7959 46.98926c0-4.76953 3.21-7.67969 6.54-7.67969 3.71972 0 5.81933 2.66992 5.81933 6.83984a9.60821 9.60821 0 0 1 -.08984 1.41016h-9.83984c.18066 3.08984 2.07031 5.06934 4.86035 5.06934a6.5926 6.5926 0 0 0 3.62988-1.13965l.87012 1.62012a8.68862 8.68862 0 0 1 -4.79981 1.5c-3.90035 0-6.99019-2.85059-6.99019-7.62012zm10.19922-1.2002c0-2.93945-1.31934-4.52929-3.59961-4.52929-2.04 0-3.89942 1.64941-4.19922 4.52929z"/><path d="m697.75586 39.66992h2.04l.21 2.63965h.08984c.99024-1.83008 2.49024-3 4.13965-3a3.62619 3.62619 0 0 1 1.56055.29981l-.48047 2.16015a4.06771 4.06771 0 0 0 -1.41016-.24023c-1.22949 0-2.69922.90039-3.68945 3.36035v9.35935h-2.46z"/></g><path d="m480.667 215.75-140 50v-160l140 50z" fill="#4e4e4e"/><path d="m632.66667 113.75h16v144h-16z" fill="#666"/><path d="m632.66667 175.75h16v98h-16z" fill="#e4e4e4"/><path d="m615.66667 155.75h10v60h-10z" fill="#cacaca"/><path d="m655.66667 155.75h10v60h-10z" fill="#cacaca"/><path d="m632.66667 175.75h16" fill="none" stroke="#000" stroke-width="6"/><path d="m632.66667 175.75h16" fill="none" stroke="#fff" stroke-width="2"/><path d="m165.66675 155.75h3" fill="none" stroke="#f1f1f1" stroke-width="2"/><path d="m173.715 155.75 166.952.001 140 19.999h144.475" fill="none" stroke="#f1f1f1" stroke-dasharray="6.05817 5.04848" stroke-width="2"/><path d="m627.66675 175.75h3" fill="none" stroke="#f1f1f1" stroke-width="2"/><path d="m480.66675 155.75h3" fill="none" stroke="#7f7f7f" stroke-width="2"/><path d="m488.78564 155.75h121.32154" fill="none" stroke="#7f7f7f" stroke-dasharray="6.14286 5.11905" stroke-width="2"/><path d="m612.66675 155.75h3" fill="none" stroke="#7f7f7f" stroke-width="2"/><path d="m165.66675 105.75h3" fill="none" stroke="#7f7f7f" stroke-width="2"/><path d="m173.63721 105.75h161.54419" fill="none" stroke="#7f7f7f" stroke-dasharray="5.96471 4.97059" stroke-width="2"/><path d="m337.66675 105.75h3" fill="none" stroke="#7f7f7f" stroke-width="2"/><path d="m165.66675 265.75h3" fill="none" stroke="#7f7f7f" stroke-width="2"/><path d="m173.63721 265.75h161.54419" fill="none" stroke="#7f7f7f" stroke-dasharray="5.96471 4.97059" stroke-width="2"/><path d="m337.66675 265.75h3" fill="none" stroke="#7f7f7f" stroke-width="2"/><path d="m480.66675 215.75h3" fill="none" stroke="#7f7f7f" stroke-width="2"/><path d="m488.78564 215.75h121.32154" fill="none" stroke="#7f7f7f" stroke-dasharray="6.14286 5.11905" stroke-width="2"/><path d="m612.66675 215.75h3" fill="none" stroke="#7f7f7f" stroke-width="2"/><rect fill="#7f7f7f" height="179.5" rx="1.75" width="29.5" x="135.91667" y="96"/><path d="m163.66667 96.25a1.50164 1.50164 0 0 1 1.5 1.5v176a1.50164 1.50164 0 0 1 -1.5 1.5h-26a1.50164 1.50164 0 0 1 -1.5-1.5v-176a1.50164 1.50164 0 0 1 1.5-1.5zm0-.5h-26a2.00575 2.00575 0 0 0 -2 2v176a2.00575 2.00575 0 0 0 2 2h26a2.00576 2.00576 0 0 0 2-2v-176a2.00576 2.00576 0 0 0 -2-2z" fill="#202020"/><path d="m150.66667 105.75v160" fill="none" stroke="#202020" stroke-width="2"/><circle cx="150.66667" cy="155.75" fill="#fff" r="10" stroke="#4e4e4e" stroke-width=".7"/></svg>