<svg xmlns="http://www.w3.org/2000/svg" xmlns:xlink="http://www.w3.org/1999/xlink" viewBox="0 0 1080 856"><defs><linearGradient id="a" x1="138.16724" y1="123.70948" x2="138.16724" y2="161.05198" gradientUnits="userSpaceOnUse"><stop offset="0" stop-color="#e6e6e6"/><stop offset="0.1144" stop-color="#e0e0e0"/><stop offset="0.27295" stop-color="#cecece"/><stop offset="0.45731" stop-color="#b0b0b0"/><stop offset="0.66114" stop-color="#878787"/><stop offset="0.87829" stop-color="#535353"/><stop offset="1" stop-color="#333"/></linearGradient><linearGradient id="b" x1="309.94273" y1="123.70948" x2="309.94273" y2="161.05198" xlink:href="#a"/><linearGradient id="c" x1="474.24971" y1="123.70948" x2="474.24971" y2="161.05198" xlink:href="#a"/><linearGradient id="d" x1="646.0252" y1="123.70948" x2="646.0252" y2="161.05198" xlink:href="#a"/><linearGradient id="e" x1="810.35767" y1="123.70948" x2="810.35767" y2="161.05198" xlink:href="#a"/><linearGradient id="f" x1="982.10767" y1="123.70948" x2="982.10767" y2="161.05198" xlink:href="#a"/><linearGradient id="g" x1="138.16724" y1="295.48497" x2="138.16724" y2="332.82747" xlink:href="#a"/><linearGradient id="h" x1="309.94273" y1="295.48497" x2="309.94273" y2="332.82747" xlink:href="#a"/><linearGradient id="i" x1="474.24971" y1="295.48497" x2="474.24971" y2="332.82747" xlink:href="#a"/><linearGradient id="j" x1="646.0252" y1="295.48497" x2="646.0252" y2="332.82747" xlink:href="#a"/><linearGradient id="k" x1="810.35767" y1="295.48497" x2="810.35767" y2="332.82747" xlink:href="#a"/><linearGradient id="l" x1="982.10767" y1="295.48497" x2="982.10767" y2="332.82747" xlink:href="#a"/><linearGradient id="m" x1="138.16724" y1="713.72094" x2="138.16724" y2="751.06343" xlink:href="#a"/><linearGradient id="n" x1="309.94273" y1="713.72094" x2="309.94273" y2="751.06343" xlink:href="#a"/><linearGradient id="o" x1="474.24971" y1="713.72094" x2="474.24971" y2="751.06343" xlink:href="#a"/><linearGradient id="p" x1="646.0252" y1="713.72094" x2="646.0252" y2="751.06343" xlink:href="#a"/><linearGradient id="q" x1="810.35767" y1="713.72094" x2="810.35767" y2="751.06343" xlink:href="#a"/><linearGradient id="r" x1="982.10767" y1="713.72094" x2="982.10767" y2="751.06343" xlink:href="#a"/><linearGradient id="s" x1="138.16724" y1="541.94545" x2="138.16724" y2="579.28795" xlink:href="#a"/><linearGradient id="t" x1="309.94273" y1="541.94545" x2="309.94273" y2="579.28795" xlink:href="#a"/><linearGradient id="u" x1="474.24971" y1="541.94545" x2="474.24971" y2="579.28795" xlink:href="#a"/><linearGradient id="v" x1="646.0252" y1="541.94545" x2="646.0252" y2="579.28795" xlink:href="#a"/><linearGradient id="w" x1="810.35767" y1="541.94545" x2="810.35767" y2="579.28795" xlink:href="#a"/><linearGradient id="x" x1="982.10767" y1="541.94545" x2="982.10767" y2="579.28795" xlink:href="#a"/></defs><title>pan_pp2</title><path d="M235.25769,188.32568a3.72059,3.72059,0,1,1-3.72058,3.72058,3.72484,3.72484,0,0,1,3.72058-3.72058m0-1.13391a4.8545,4.8545,0,1,0,4.85461,4.85449,4.85445,4.85445,0,0,0-4.85461-4.85449Z" fill="#e6e6e6"/><path d="M63.4823,180.85718a3.72058,3.72058,0,1,1-3.7207,3.72058,3.72483,3.72483,0,0,1,3.7207-3.72058m0-1.13391a4.85449,4.85449,0,1,0,4.85449,4.85449,4.85456,4.85456,0,0,0-4.85449-4.85449Z" fill="#e6e6e6"/><path d="M63.4823,195.79419a3.72058,3.72058,0,1,1-3.7207,3.72058,3.72483,3.72483,0,0,1,3.7207-3.72058m0-1.13391a4.85449,4.85449,0,1,0,4.85449,4.85449,4.85448,4.85448,0,0,0-4.85449-4.85449Z" fill="#e6e6e6"/><path d="M571.34021,180.85718a3.72058,3.72058,0,1,1-3.72058,3.72058,3.72483,3.72483,0,0,1,3.72058-3.72058m0-1.13391a4.85449,4.85449,0,1,0,4.85449,4.85449,4.85453,4.85453,0,0,0-4.85449-4.85449Z" fill="#e6e6e6"/><path d="M571.34021,195.79419a3.72058,3.72058,0,1,1-3.72058,3.72058,3.72483,3.72483,0,0,1,3.72058-3.72058m0-1.13391a4.85449,4.85449,0,1,0,4.85449,4.85449,4.85445,4.85445,0,0,0-4.85449-4.85449Z" fill="#e6e6e6"/><path d="M735.64722,180.85718a3.72058,3.72058,0,1,1-3.72058,3.72058,3.72483,3.72483,0,0,1,3.72058-3.72058m0-1.13391a4.85449,4.85449,0,1,0,4.85449,4.85449,4.85445,4.85445,0,0,0-4.85449-4.85449Z" fill="#e6e6e6"/><path d="M735.64722,195.79419a3.72058,3.72058,0,1,1-3.72058,3.72058,3.72483,3.72483,0,0,1,3.72058-3.72058m0-1.13391a4.85449,4.85449,0,1,0,4.85449,4.85449,4.85438,4.85438,0,0,0-4.85449-4.85449Z" fill="#e6e6e6"/><path d="M907.42273,180.85718a3.72058,3.72058,0,1,1-3.7207,3.72058,3.72483,3.72483,0,0,1,3.7207-3.72058m0-1.13391a4.85449,4.85449,0,1,0,4.85449,4.85449,4.85456,4.85456,0,0,0-4.85449-4.85449Z" fill="#e6e6e6"/><path d="M907.42273,195.79419a3.72058,3.72058,0,1,1-3.7207,3.72058,3.72483,3.72483,0,0,1,3.7207-3.72058m0-1.13391a4.85449,4.85449,0,1,0,4.85449,4.85449,4.85448,4.85448,0,0,0-4.85449-4.85449Z" fill="#e6e6e6"/><path d="M735.64722,360.10107a3.72065,3.72065,0,1,1-3.72058,3.72071,3.72485,3.72485,0,0,1,3.72058-3.72071m0-1.13391a4.85456,4.85456,0,1,0,4.85449,4.85462,4.85448,4.85448,0,0,0-4.85449-4.85462Z" fill="#e6e6e6"/><path d="M63.4823,360.10107a3.72065,3.72065,0,1,1-3.7207,3.72071,3.72485,3.72485,0,0,1,3.7207-3.72071m0-1.13391a4.85456,4.85456,0,1,0,4.85449,4.85462,4.85458,4.85458,0,0,0-4.85449-4.85462Z" fill="#e6e6e6"/><path d="M235.25769,778.337a3.72064,3.72064,0,1,1-3.72058,3.7207,3.72486,3.72486,0,0,1,3.72058-3.7207m0-1.13392a4.85456,4.85456,0,1,0,4.85461,4.85462,4.85456,4.85456,0,0,0-4.85461-4.85462Z" fill="#e6e6e6"/><path d="M63.4823,770.86865a3.72058,3.72058,0,1,1-3.7207,3.72058,3.72483,3.72483,0,0,1,3.7207-3.72058m0-1.13391a4.8545,4.8545,0,1,0,4.85449,4.85449,4.85448,4.85448,0,0,0-4.85449-4.85449Z" fill="#e6e6e6"/><path d="M63.4823,785.80554a3.72065,3.72065,0,1,1-3.7207,3.72071,3.72485,3.72485,0,0,1,3.7207-3.72071m0-1.13391a4.85456,4.85456,0,1,0,4.85449,4.85462,4.85458,4.85458,0,0,0-4.85449-4.85462Z" fill="#e6e6e6"/><path d="M571.34021,770.86865a3.72058,3.72058,0,1,1-3.72058,3.72058,3.72483,3.72483,0,0,1,3.72058-3.72058m0-1.13391a4.8545,4.8545,0,1,0,4.85449,4.85449,4.85445,4.85445,0,0,0-4.85449-4.85449Z" fill="#e6e6e6"/><path d="M571.34021,785.80554a3.72065,3.72065,0,1,1-3.72058,3.72071,3.72485,3.72485,0,0,1,3.72058-3.72071m0-1.13391a4.85456,4.85456,0,1,0,4.85449,4.85462,4.85456,4.85456,0,0,0-4.85449-4.85462Z" fill="#e6e6e6"/><path d="M735.64722,770.86865a3.72058,3.72058,0,1,1-3.72058,3.72058,3.72483,3.72483,0,0,1,3.72058-3.72058m0-1.13391a4.8545,4.8545,0,1,0,4.85449,4.85449,4.85438,4.85438,0,0,0-4.85449-4.85449Z" fill="#e6e6e6"/><path d="M735.64722,785.80554a3.72065,3.72065,0,1,1-3.72058,3.72071,3.72485,3.72485,0,0,1,3.72058-3.72071m0-1.13391a4.85456,4.85456,0,1,0,4.85449,4.85462,4.85448,4.85448,0,0,0-4.85449-4.85462Z" fill="#e6e6e6"/><path d="M907.42273,770.86865a3.72058,3.72058,0,1,1-3.7207,3.72058,3.72483,3.72483,0,0,1,3.7207-3.72058m0-1.13391a4.8545,4.8545,0,1,0,4.85449,4.85449,4.85448,4.85448,0,0,0-4.85449-4.85449Z" fill="#e6e6e6"/><path d="M907.42273,785.80554a3.72065,3.72065,0,1,1-3.7207,3.72071,3.72485,3.72485,0,0,1,3.7207-3.72071m0-1.13391a4.85456,4.85456,0,1,0,4.85449,4.85462,4.85458,4.85458,0,0,0-4.85449-4.85462Z" fill="#e6e6e6"/><path d="M735.64722,606.56165a3.72058,3.72058,0,1,1-3.72058,3.72058,3.72482,3.72482,0,0,1,3.72058-3.72058m0-1.13392a4.8545,4.8545,0,1,0,4.85449,4.8545,4.85446,4.85446,0,0,0-4.85449-4.8545Z" fill="#e6e6e6"/><path d="M63.4823,606.56165a3.72058,3.72058,0,1,1-3.7207,3.72058,3.72482,3.72482,0,0,1,3.7207-3.72058m0-1.13392a4.8545,4.8545,0,1,0,4.85449,4.8545,4.85456,4.85456,0,0,0-4.85449-4.8545Z" fill="#e6e6e6"/><rect x="1" y="0.83984" width="1078" height="854" rx="11" ry="11" fill="#1a1a1a"/><path d="M1068,1.84021a10.01141,10.01141,0,0,1,10,10v832a10.01138,10.01138,0,0,1-10,10H12a10.0113,10.0113,0,0,1-10-10v-832a10.01134,10.01134,0,0,1,10-10H1068m0-2H12a12,12,0,0,0-12,12v832a12,12,0,0,0,12,12H1068a12,12,0,0,0,12-12v-832a12,12,0,0,0-12-12Z" fill="#4d4d4d"/><rect x="25.13965" y="59.22754" width="1032.65332" height="158.83789" rx="5" ry="5" fill="#414141"/><path d="M1052.79272,60.22729a4,4,0,0,1,4,4V213.06567a4,4,0,0,1-4,4H30.13977a4,4,0,0,1-4-4V64.22729a4,4,0,0,1,4-4h1022.653m0-2H30.13977a6.00684,6.00684,0,0,0-6,6V213.06567a6.00687,6.00687,0,0,0,6,6h1022.653a6.00687,6.00687,0,0,0,6-6V64.22729a6.00684,6.00684,0,0,0-6-6Z" fill="#ffa861"/><rect x="25.13965" y="231.00293" width="1032.65332" height="158.83789" rx="5" ry="5" fill="#414141"/><path d="M1052.79272,232.00269a4.00011,4.00011,0,0,1,4,4v148.8385a4.00012,4.00012,0,0,1-4,4H30.13977a4,4,0,0,1-4-4V236.00269a4,4,0,0,1,4-4h1022.653m0-2H30.13977a6.00687,6.00687,0,0,0-6,6v148.8385a6.0068,6.0068,0,0,0,6,6h1022.653a6.0068,6.0068,0,0,0,6-6V236.00269a6.00687,6.00687,0,0,0-6-6Z" fill="#ffa861"/><rect x="25.13965" y="649.23828" width="1032.65332" height="158.83887" rx="5" ry="5" fill="#414141"/><path d="M1052.79272,650.23865a4.00011,4.00011,0,0,1,4,4v148.8385a4,4,0,0,1-4,4H30.13977a4,4,0,0,1-4-4V654.23865a4,4,0,0,1,4-4h1022.653m0-2H30.13977a6.0068,6.0068,0,0,0-6,6v148.8385a6.00687,6.00687,0,0,0,6,6h1022.653a6.00687,6.00687,0,0,0,6-6V654.23865a6.0068,6.0068,0,0,0-6-6Z" fill="#ded66f"/><rect x="25.13965" y="477.46289" width="1032.65332" height="158.83887" rx="5" ry="5" fill="#414141"/><path d="M1052.79272,478.46326a4,4,0,0,1,4,4V631.30164a4,4,0,0,1-4,4H30.13977a4,4,0,0,1-4-4V482.46326a4,4,0,0,1,4-4h1022.653m0-2H30.13977a6.00687,6.00687,0,0,0-6,6V631.30164a6.00687,6.00687,0,0,0,6,6h1022.653a6.00687,6.00687,0,0,0,6-6V482.46326a6.00687,6.00687,0,0,0-6-6Z" fill="#ded66f"/><circle cx="235.25773" cy="192.04625" r="4.85452" fill="#e6e6e6"/><circle cx="63.48225" cy="184.57775" r="4.85452" fill="#e6e6e6"/><circle cx="63.48225" cy="199.51475" r="4.85452" fill="#e6e6e6"/><circle cx="571.34021" cy="184.57775" r="4.85452" fill="#e6e6e6"/><circle cx="571.34021" cy="199.51475" r="4.85452" fill="#e6e6e6"/><circle cx="735.64719" cy="184.57775" r="4.85452" fill="#e6e6e6"/><circle cx="735.64719" cy="199.51475" r="4.85452" fill="#e6e6e6"/><circle cx="907.42268" cy="184.57775" r="4.85452" fill="#e6e6e6"/><circle cx="907.42268" cy="199.51475" r="4.85452" fill="#e6e6e6"/><circle cx="735.64719" cy="363.82174" r="4.85452" fill="#e6e6e6"/><circle cx="63.48225" cy="363.82174" r="4.85452" fill="#e6e6e6"/><circle cx="235.25773" cy="782.05771" r="4.85452" fill="#e6e6e6"/><circle cx="63.48225" cy="774.58921" r="4.85452" fill="#e6e6e6"/><circle cx="63.48225" cy="789.52621" r="4.85452" fill="#e6e6e6"/><circle cx="571.34021" cy="774.58921" r="4.85452" fill="#e6e6e6"/><circle cx="571.34021" cy="789.52621" r="4.85452" fill="#e6e6e6"/><circle cx="735.64719" cy="774.58921" r="4.85452" fill="#e6e6e6"/><circle cx="735.64719" cy="789.52621" r="4.85452" fill="#e6e6e6"/><circle cx="907.42268" cy="774.58921" r="4.85452" fill="#e6e6e6"/><circle cx="907.42268" cy="789.52621" r="4.85452" fill="#e6e6e6"/><circle cx="735.64719" cy="610.28222" r="4.85452" fill="#e6e6e6"/><circle cx="63.48225" cy="610.28222" r="4.85452" fill="#e6e6e6"/><circle cx="399.56472" cy="191.56723" r="4.85452" fill="#e6e6e6"/><circle cx="399.56472" cy="781.57937" r="4.85452" fill="#e6e6e6"/><circle cx="235.25773" cy="142.04994" r="11.20275" fill="#b3b3b3" stroke="#252525" stroke-miterlimit="10" stroke-width="1.2"/><circle cx="399.56472" cy="142.04994" r="11.20275" fill="#b3b3b3" stroke="#252525" stroke-miterlimit="10" stroke-width="1.2"/><circle cx="571.34021" cy="142.04994" r="11.20275" fill="#b3b3b3" stroke="#252525" stroke-miterlimit="10" stroke-width="1.2"/><circle cx="735.64719" cy="142.04994" r="11.20275" fill="#b3b3b3" stroke="#252525" stroke-miterlimit="10" stroke-width="1.2"/><circle cx="907.42268" cy="142.04994" r="11.20275" fill="#b3b3b3" stroke="#252525" stroke-miterlimit="10" stroke-width="1.2"/><circle cx="235.25773" cy="313.82543" r="11.20275" fill="#b3b3b3" stroke="#252525" stroke-miterlimit="10" stroke-width="1.2"/><circle cx="399.56472" cy="313.82543" r="11.20275" fill="#b3b3b3" stroke="#252525" stroke-miterlimit="10" stroke-width="1.2"/><circle cx="571.34021" cy="313.82543" r="11.20275" fill="#b3b3b3" stroke="#252525" stroke-miterlimit="10" stroke-width="1.2"/><circle cx="735.64719" cy="313.82543" r="11.20275" fill="#b3b3b3" stroke="#252525" stroke-miterlimit="10" stroke-width="1.2"/><circle cx="907.42268" cy="313.82543" r="11.20275" fill="#b3b3b3" stroke="#252525" stroke-miterlimit="10" stroke-width="1.2"/><circle cx="63.48225" cy="732.39219" r="11.20275" fill="#b3b3b3" stroke="#252525" stroke-miterlimit="10" stroke-width="1.2"/><circle cx="235.25773" cy="732.0614" r="11.20275" fill="#b3b3b3" stroke="#252525" stroke-miterlimit="10" stroke-width="1.2"/><circle cx="399.56472" cy="732.0614" r="11.20275" fill="#b3b3b3" stroke="#252525" stroke-miterlimit="10" stroke-width="1.2"/><circle cx="571.34021" cy="732.0614" r="11.20275" fill="#b3b3b3" stroke="#252525" stroke-miterlimit="10" stroke-width="1.2"/><circle cx="735.64719" cy="732.0614" r="11.20275" fill="#b3b3b3" stroke="#252525" stroke-miterlimit="10" stroke-width="1.2"/><circle cx="907.42268" cy="732.0614" r="11.20275" fill="#b3b3b3" stroke="#252525" stroke-miterlimit="10" stroke-width="1.2"/><circle cx="63.48225" cy="560.6167" r="11.20275" fill="#b3b3b3" stroke="#252525" stroke-miterlimit="10" stroke-width="1.2"/><circle cx="235.25773" cy="560.28591" r="11.20275" fill="#b3b3b3" stroke="#252525" stroke-miterlimit="10" stroke-width="1.2"/><circle cx="399.56472" cy="560.28591" r="11.20275" fill="#b3b3b3" stroke="#252525" stroke-miterlimit="10" stroke-width="1.2"/><circle cx="571.34021" cy="560.28591" r="11.20275" fill="#b3b3b3" stroke="#252525" stroke-miterlimit="10" stroke-width="1.2"/><circle cx="735.64719" cy="560.28591" r="11.20275" fill="#b3b3b3" stroke="#252525" stroke-miterlimit="10" stroke-width="1.2"/><circle cx="907.42268" cy="560.28591" r="11.20275" fill="#b3b3b3" stroke="#252525" stroke-miterlimit="10" stroke-width="1.2"/><circle cx="63.48225" cy="314.15622" r="11.20275" fill="#b3b3b3" stroke="#252525" stroke-miterlimit="10" stroke-width="1.2"/><circle cx="63.48225" cy="142.38073" r="11.20275" fill="#b3b3b3" stroke="#252525" stroke-miterlimit="10" stroke-width="1.2"/><path d="M113.75781,184.7041h4.92969c3.46875,0,6.05273,1.19629,6.05273,4.833,0,3.46875-2.584,5.07227-5.957,5.07227h-2.25v5.74218h-2.77539Zm4.80957,7.68067c2.32129,0,3.44532-.9336,3.44532-2.84766,0-1.96191-1.21973-2.60742-3.541-2.60742H116.5332v5.45508Z" fill="#e6e6e6"/><path d="M127.13281,184.99121a1.70531,1.70531,0,1,1,1.69922,1.55567A1.58006,1.58006,0,0,1,127.13281,184.99121Zm.31055,3.61231h2.752v11.748h-2.752Z" fill="#e6e6e6"/><path d="M134.11914,196.37988v-5.59863h-1.6748v-2.05762l1.81836-.12011.335-3.20508h2.29687v3.20508h2.99024v2.17773h-2.99024v5.59863c0,1.3877.52637,2.05762,1.65039,2.05762a3.34871,3.34871,0,0,0,1.2207-.26367l.47852,2.03418a7.49009,7.49009,0,0,1-2.39258.43066C135.124,200.63867,134.11914,198.916,134.11914,196.37988Z" fill="#e6e6e6"/><path d="M141.20117,194.49023a5.79563,5.79563,0,0,1,5.88672-6.17382,5.06046,5.06046,0,0,1,3.44531,1.3164l-1.33984,1.79492a2.87305,2.87305,0,0,0-1.96289-.86132c-1.88965,0-3.20508,1.55468-3.20508,3.92382,0,2.34375,1.291,3.89942,3.13379,3.89942a3.9163,3.9163,0,0,0,2.417-1.00488l1.124,1.81835a5.86638,5.86638,0,0,1-3.82813,1.43555C143.666,200.63867,141.20117,198.38965,141.20117,194.49023Z" fill="#e6e6e6"/><path d="M153.02148,183.46h2.751v4.35449l-.0957,2.27344a5.38586,5.38586,0,0,1,3.75683-1.77148c2.51172,0,3.61231,1.69921,3.61231,4.666v7.36914h-2.751V193.3418c0-1.93848-.55078-2.65625-1.84277-2.65625-1.02832,0-1.69824.50195-2.67969,1.459v8.207h-2.751Z" fill="#e6e6e6"/><path d="M286.21484,184.7041h9.4502v2.34473h-6.67481v4.42578h5.69336v2.3457h-5.69336v6.53125h-2.77539Z" fill="#e6e6e6"/><path d="M298.17773,197.33691V183.46h2.751v14.02051c0,.66992.31152.90918.59863.90918a1.64184,1.64184,0,0,0,.42969-.04785l.35938,2.05761a3.75559,3.75559,0,0,1-1.459.23926C298.89453,200.63867,298.17773,199.37109,298.17773,197.33691Z" fill="#e6e6e6"/><path d="M304.542,195.97266v-7.36914h2.751v7.01074c0,1.93847.55078,2.65527,1.81836,2.65527,1.02929,0,1.72265-.47851,2.6084-1.62695v-8.03906h2.751v11.748h-2.248l-.21582-1.72265h-.07129a4.78849,4.78849,0,0,1-3.78125,2.00976C305.64258,200.63867,304.542,198.93945,304.542,195.97266Z" fill="#e6e6e6"/><path d="M317.19922,194.49023a5.79468,5.79468,0,0,1,5.88476-6.17382,5.05861,5.05861,0,0,1,3.44532,1.3164l-1.33985,1.79492a2.86676,2.86676,0,0,0-1.96093-.86132c-1.89063,0-3.207,1.55468-3.207,3.92382,0,2.34375,1.293,3.89942,3.13477,3.89942a3.91371,3.91371,0,0,0,2.416-1.00488l1.125,1.81835a5.86638,5.86638,0,0,1-3.82813,1.43555C319.66309,200.63867,317.19922,198.38965,317.19922,194.49023Z" fill="#e6e6e6"/><path d="M329.18652,196.37988v-5.59863h-1.6748v-2.05762l1.81836-.12011.335-3.20508h2.29687v3.20508h2.99121v2.17773h-2.99121v5.59863c0,1.3877.52637,2.05762,1.65137,2.05762a3.348,3.348,0,0,0,1.21973-.26367l.47851,2.03418a7.49008,7.49008,0,0,1-2.39257.43066C330.19141,200.63867,329.18652,198.916,329.18652,196.37988Z" fill="#e6e6e6"/><path d="M445.21094,184.7041h4.92968c3.46876,0,6.05274,1.19629,6.05274,4.833,0,3.46875-2.584,5.07227-5.957,5.07227h-2.25v5.74218h-2.77539Zm4.80957,7.68067c2.32129,0,3.44531-.9336,3.44531-2.84766,0-1.96191-1.21973-2.60742-3.541-2.60742h-1.93847v5.45508Z" fill="#e6e6e6"/><path d="M458.89648,183.46h2.752v4.35449l-.09571,2.27344a5.3836,5.3836,0,0,1,3.75586-1.77148c2.5127,0,3.61329,1.69921,3.61329,4.666v7.36914h-2.752V193.3418c0-1.93848-.5498-2.65625-1.8418-2.65625-1.02929,0-1.69921.50195-2.67968,1.459v8.207h-2.752Z" fill="#e6e6e6"/><path d="M471.627,197.19336c0-2.51172,2.08106-3.82813,6.91407-4.35449-.04786-1.24414-.55079-2.29688-2.15332-2.29688a6.69321,6.69321,0,0,0-3.30176,1.14844l-1.00489-1.84277a9.19807,9.19807,0,0,1,4.833-1.53125c2.91895,0,4.37891,1.79492,4.37891,5.07226v6.96289h-2.27344l-.19141-1.292h-.0957a5.71659,5.71659,0,0,1-3.63672,1.5791A3.28366,3.28366,0,0,1,471.627,197.19336Zm6.91407,0v-2.63184c-3.20606.40723-4.25879,1.24414-4.25879,2.417,0,1.05273.71777,1.50683,1.69824,1.50683A3.73484,3.73484,0,0,0,478.541,197.19336Z" fill="#e6e6e6"/><path d="M483.42188,199.01172l1.292-1.77051a5.22689,5.22689,0,0,0,3.2539,1.31543c1.26856,0,1.86621-.59766,1.86621-1.41113,0-.98145-1.26757-1.41113-2.51171-1.88965-1.55567-.57422-3.30274-1.46-3.30274-3.42188,0-2.05761,1.65137-3.51757,4.2832-3.51757a6.341,6.341,0,0,1,3.90039,1.41211l-1.26855,1.6748a4.372,4.372,0,0,0-2.584-1.00488c-1.17286,0-1.72266.55078-1.72266,1.292,0,.93262,1.17285,1.292,2.44043,1.74707,1.60352.59766,3.37305,1.36328,3.37305,3.56445,0,2.00977-1.60254,3.63672-4.56934,3.63672A7.43807,7.43807,0,0,1,483.42188,199.01172Z" fill="#e6e6e6"/><path d="M494.14062,194.49023c0-3.82812,2.65626-6.17382,5.40821-6.17382,3.18164,0,4.85644,2.29687,4.85644,5.57519a6.373,6.373,0,0,1-.12011,1.33985h-7.46485a3.36454,3.36454,0,0,0,3.46973,3.27832,4.91159,4.91159,0,0,0,2.72754-.86133l.93359,1.72265a7.42026,7.42026,0,0,1-4.01953,1.26758C496.67773,200.63867,494.14062,198.36523,494.14062,194.49023Zm7.87208-1.125c0-1.81835-.79-2.91894-2.39258-2.91894-1.3877,0-2.584,1.02832-2.82324,2.91894Z" fill="#e6e6e6"/><path d="M610.13086,184.7041h4.92773c3.46973,0,6.05371,1.19629,6.05371,4.833,0,3.46875-2.584,5.07227-5.958,5.07227h-2.24805v5.74218h-2.77539Zm4.80859,7.68067c2.32032,0,3.44532-.9336,3.44532-2.84766,0-1.96191-1.22071-2.60742-3.541-2.60742h-1.9375v5.45508Z" fill="#e6e6e6"/><path d="M624.05469,184.7041h3.13476l2.77539,7.65625c.335.98145.66993,2.03418,1.00489,3.0625h.0957c.335-1.02832.64551-2.08105.98145-3.0625L634.75,184.7041h3.1582v15.64746h-2.56054v-7.15429c0-1.459.21582-3.541.35937-4.97657h-.0957l-1.26758,3.63672-2.56055,7.03516h-1.65039l-2.584-7.03516-1.24414-3.63672H626.209c.11914,1.43555.3584,3.51758.3584,4.97657v7.15429h-2.51269Z" fill="#e6e6e6"/><path d="M645.58887,198.3418l1.62695-1.89063a6.22268,6.22268,0,0,0,4.06738,1.77149c1.77051,0,2.72754-.79,2.72754-2.00977,0-1.293-1.00488-1.69922-2.417-2.29687l-2.15234-.9336a4.51,4.51,0,0,1-3.15821-4.16308c0-2.48829,2.20118-4.40235,5.26368-4.40235a6.90864,6.90864,0,0,1,4.80859,1.98535l-1.41211,1.77149a5.092,5.092,0,0,0-3.39648-1.33985c-1.48438,0-2.46485.69336-2.46485,1.8418,0,1.2207,1.19629,1.67481,2.48828,2.20117l2.12891.88477c1.84277.79,3.1582,1.96289,3.1582,4.23535,0,2.53613-2.10547,4.6416-5.62207,4.6416A8.10771,8.10771,0,0,1,645.58887,198.3418Z" fill="#e6e6e6"/><path d="M658.70117,194.49023c0-3.82812,2.65528-6.17382,5.40625-6.17382,3.18262,0,4.85742,2.29687,4.85742,5.57519a6.44987,6.44987,0,0,1-.11914,1.33985h-7.46484a3.36194,3.36194,0,0,0,3.46875,3.27832,4.91159,4.91159,0,0,0,2.72754-.86133l.93262,1.72265a7.41246,7.41246,0,0,1-4.01954,1.26758C661.23633,200.63867,658.70117,198.36523,658.70117,194.49023Zm7.8711-1.125c0-1.81835-.78907-2.91894-2.39258-2.91894-1.3877,0-2.584,1.02832-2.82324,2.91894Z" fill="#e6e6e6"/><path d="M671.59766,197.33691V183.46h2.751v14.02051c0,.66992.31153.90918.59864.90918a1.64177,1.64177,0,0,0,.42968-.04785l.35938,2.05761a3.75559,3.75559,0,0,1-1.459.23926C672.31445,200.63867,671.59766,199.37109,671.59766,197.33691Z" fill="#e6e6e6"/><path d="M678.55859,190.78125h-1.57812v-2.05762l1.57812-.12011v-1.21973c0-2.44043,1.125-4.21094,3.90039-4.21094a5.93251,5.93251,0,0,1,2.15332.40723l-.52636,2.05664a3.24223,3.24223,0,0,0-1.292-.28711c-.957,0-1.4834.623-1.4834,1.98633v1.26758h2.29687v2.17773h-2.29687v9.57031h-2.752Z" fill="#e6e6e6"/><path d="M786.93555,184.7041h4.92968c3.46875,0,6.05274,1.19629,6.05274,4.833,0,3.46875-2.584,5.07227-5.957,5.07227h-2.25v5.74218h-2.77539Zm4.80957,7.68067c2.32129,0,3.44531-.9336,3.44531-2.84766,0-1.96191-1.21973-2.60742-3.541-2.60742h-1.93847v5.45508Z" fill="#e6e6e6"/><path d="M800.86133,184.7041h3.13379l2.77539,7.65625c.335.98145.66992,2.03418,1.00488,3.0625h.0957c.335-1.02832.64649-2.08105.98047-3.0625l2.7041-7.65625h3.15821v15.64746H812.1543v-7.15429c0-1.459.21484-3.541.3584-4.97657H812.417l-1.26855,3.63672-2.55957,7.03516H806.9375l-2.584-7.03516-1.24414-3.63672h-.09571c.12012,1.43555.35938,3.51758.35938,4.97657v7.15429h-2.51172Z" fill="#e6e6e6"/><path d="M823.4707,184.7041h5.001c3.22949,0,5.59863.98145,5.59863,3.85254a3.526,3.526,0,0,1-2.17773,3.39648v.09571a3.57453,3.57453,0,0,1,2.99121,3.709c0,3.13477-2.55957,4.59375-6.00488,4.59375H823.4707Zm4.76172,6.46c2.17774,0,3.11035-.86133,3.11035-2.20117,0-1.53125-1.02832-2.10547-3.0625-2.10547h-2.03418v4.30664Zm.35938,7.03418c2.29687,0,3.58789-.83691,3.58789-2.584,0-1.65137-1.24414-2.36817-3.58789-2.36817h-2.34571v4.95215Z" fill="#e6e6e6"/><path d="M952.59961,184.7041h4.92969c3.46875,0,6.05273,1.19629,6.05273,4.833,0,3.46875-2.584,5.07227-5.957,5.07227h-2.25v5.74218h-2.77539Zm4.80957,7.68067c2.32129,0,3.44531-.9336,3.44531-2.84766,0-1.96191-1.21972-2.60742-3.541-2.60742H955.375v5.45508Z" fill="#e6e6e6"/><path d="M966.52539,184.7041h3.13379l2.77539,7.65625c.335.98145.66992,2.03418,1.00488,3.0625h.09571c.335-1.02832.64648-2.08105.98046-3.0625l2.70411-7.65625h3.1582v15.64746h-2.55957v-7.15429c0-1.459.21484-3.541.3584-4.97657h-.09571l-1.26855,3.63672-2.55957,7.03516h-1.65137l-2.584-7.03516-1.24414-3.63672h-.09571c.12012,1.43555.35938,3.51758.35938,4.97657v7.15429h-2.51172Z" fill="#e6e6e6"/><path d="M989.13477,184.7041h9.45117v2.34473h-6.67578v4.42578h5.69531v2.3457h-5.69531v6.53125h-2.77539Z" fill="#e6e6e6"/><path d="M1001.33789,184.7041h5c3.23047,0,5.59863.98145,5.59863,3.85254a3.52659,3.52659,0,0,1-2.17675,3.39648v.09571a3.57376,3.57376,0,0,1,2.99023,3.709c0,3.13477-2.56055,4.59375-6.00586,4.59375h-5.40625Zm4.76074,6.46c2.17676,0,3.11035-.86133,3.11035-2.20117,0-1.53125-1.02929-2.10547-3.0625-2.10547h-2.0332v4.30664Zm.3584,7.03418c2.29688,0,3.58985-.83691,3.58985-2.584,0-1.65137-1.24415-2.36817-3.58985-2.36817h-2.34375v4.95215Z" fill="#e6e6e6"/><path d="M113.19531,356.47949h4.1875c4.78516,0,7.6084,2.584,7.6084,7.752,0,5.19238-2.82324,7.8955-7.46484,7.8955h-4.33106Zm3.9961,13.39844c3.1582,0,4.95312-1.79395,4.95312-5.64648,0-3.82813-1.79492-5.50293-4.95312-5.50293H115.9707v11.14941Z" fill="#e6e6e6"/><path d="M127.91016,360.37891h2.27343l.19141,2.082h.0957a3.99278,3.99278,0,0,1,3.32618-2.36914,2.9801,2.9801,0,0,1,1.33984.24023l-.47852,2.39258a3.83374,3.83374,0,0,0-1.2207-.19141c-.93359,0-2.05762.64551-2.77539,2.416V372.127h-2.752Z" fill="#e6e6e6"/><path d="M136.52344,356.7666a1.70531,1.70531,0,1,1,1.69922,1.55567A1.58006,1.58006,0,0,1,136.52344,356.7666Zm.31054,3.61231h2.752v11.748h-2.752Z" fill="#e6e6e6"/><path d="M141.64453,360.37891h2.79883l1.86719,6.10156c.31054,1.14844.66992,2.34473.98047,3.541h.0957c.335-1.19628.66992-2.39257,1.00488-3.541l1.86621-6.10156h2.65625L148.918,372.127h-3.18164Z" fill="#e6e6e6"/><path d="M154.03711,366.26562c0-3.82812,2.65625-6.17382,5.4082-6.17382,3.18164,0,4.85645,2.29687,4.85645,5.57519a6.37222,6.37222,0,0,1-.12012,1.33985H156.7168a3.36453,3.36453,0,0,0,3.46972,3.27832,4.91156,4.91156,0,0,0,2.72754-.86133l.9336,1.72265a7.42019,7.42019,0,0,1-4.01954,1.26758C156.57422,372.41406,154.03711,370.14062,154.03711,366.26562Zm7.87207-1.125c0-1.81835-.79-2.91894-2.39258-2.91894-1.38769,0-2.584,1.02832-2.82324,2.91894Z" fill="#e6e6e6"/><path d="M289.46875,356.47949h9.4502v2.34473h-6.67481V363.25h5.69336v2.3457h-5.69336V372.127h-2.77539Z" fill="#e6e6e6"/><path d="M300.2832,366.26562c0-3.92382,2.65528-6.17382,5.57422-6.17382,2.94336,0,5.59863,2.25,5.59863,6.17382,0,3.89942-2.65527,6.14844-5.59863,6.14844C302.93848,372.41406,300.2832,370.165,300.2832,366.26562Zm8.34961,0c0-2.36914-1.05273-3.92382-2.77539-3.92382s-2.75195,1.55468-2.75195,3.92382c0,2.34376,1.0293,3.89942,2.75195,3.89942S308.63281,368.60938,308.63281,366.26562Z" fill="#e6e6e6"/><path d="M314.18359,369.1123v-13.877h2.752v14.02051c0,.66992.31054.90918.59765.90918a1.65478,1.65478,0,0,0,.43164-.04785l.3584,2.05761a3.75751,3.75751,0,0,1-1.46.23926C314.90234,372.41406,314.18359,371.14648,314.18359,369.1123Z" fill="#e6e6e6"/><path d="M319.95117,366.26562c0-3.82812,2.416-6.17382,4.97656-6.17382a4.33515,4.33515,0,0,1,3.08594,1.293l-.0957-1.89063v-4.25879h2.75195V372.127h-2.27344l-.1914-1.26757h-.0957a4.89509,4.89509,0,0,1-3.32618,1.55468C321.84082,372.41406,319.95117,370.14062,319.95117,366.26562Zm7.9668,2.55958v-5.4795a3.50715,3.50715,0,0,0-2.39258-.98047c-1.50781,0-2.72754,1.41211-2.72754,3.876,0,2.53613.957,3.89941,2.65527,3.89941A3.16946,3.16946,0,0,0,327.918,368.8252Z" fill="#e6e6e6"/><path d="M451.252,356.47949h3.25391l5.09668,15.64746h-2.91895l-1.2207-4.23437h-5.26367l-1.21973,4.23437h-2.82324Zm-.40625,9.23535h3.9961l-.55078-1.91406c-.502-1.65039-.957-3.44531-1.41211-5.168h-.09571c-.42968,1.7461-.88476,3.51758-1.38672,5.168Z" fill="#e6e6e6"/><path d="M460.55957,370.78711l1.292-1.77051a5.22694,5.22694,0,0,0,3.25391,1.31543c1.26758,0,1.86621-.59765,1.86621-1.41113,0-.98145-1.26856-1.41113-2.5127-1.88965-1.55468-.57422-3.30078-1.46-3.30078-3.42187,0-2.05762,1.65039-3.51758,4.28223-3.51758a6.33805,6.33805,0,0,1,3.89941,1.41211l-1.26757,1.6748a4.36956,4.36956,0,0,0-2.584-1.00488c-1.17187,0-1.72266.55078-1.72266,1.292,0,.93262,1.17188,1.292,2.44043,1.74707,1.60254.59766,3.374,1.36328,3.374,3.56445,0,2.00977-1.60352,3.63672-4.57031,3.63672A7.4358,7.4358,0,0,1,460.55957,370.78711Z" fill="#e6e6e6"/><path d="M471.30273,376.7207l.502-2.15332a2.91061,2.91061,0,0,0,.83789.167,2.46168,2.46168,0,0,0,2.34472-2.00977l.21582-.74121L470.585,360.37891h2.79981l2.0332,5.7666c.335,1.02832.66992,2.20117,1.0293,3.30176h.0957c.28711-1.07618.59765-2.249.88476-3.30176l1.77051-5.7666h2.65528l-4.25782,12.27441c-.98144,2.65527-2.20117,4.30664-4.76172,4.30664A4.56545,4.56545,0,0,1,471.30273,376.7207Z" fill="#e6e6e6"/><path d="M483.88867,360.37891h2.27246l.19141,1.60351h.0957a4.96869,4.96869,0,0,1,3.58887-1.89062,3.19612,3.19612,0,0,1,3.25391,2.10547c1.125-1.19532,2.29687-2.10547,3.78027-2.10547,2.48828,0,3.63672,1.69922,3.63672,4.666V372.127h-2.77539v-7.00976c0-1.93848-.57422-2.65625-1.79395-2.65625a3.65254,3.65254,0,0,0-2.46484,1.459v8.207h-2.752v-7.00976c0-1.93848-.57422-2.65625-1.81836-2.65625a3.70245,3.70245,0,0,0-2.46387,1.459v8.207h-2.751Z" fill="#e6e6e6"/><path d="M630.2168,356.47949h3.13379l2.77539,7.65625c.335.98145.66992,2.03418,1.00488,3.0625h.0957c.335-1.02832.64649-2.08105.98047-3.0625l2.7041-7.65625h3.15821V372.127h-2.55957v-7.15429c0-1.459.21484-3.541.35839-4.97657h-.0957l-1.26855,3.63672-2.55957,7.03516H636.293l-2.584-7.03516-1.24414-3.63672h-.0957c.12012,1.43555.35938,3.51758.35938,4.97657V372.127H630.2168Z" fill="#e6e6e6"/><path d="M647.49121,356.7666a1.70531,1.70531,0,1,1,1.69824,1.55567A1.57977,1.57977,0,0,1,647.49121,356.7666Zm.31152,3.61231h2.751v11.748h-2.751Z" fill="#e6e6e6"/><path d="M656.3916,366.002l-3.49316-5.623h2.96679l1.31641,2.22558c.334.64551.7168,1.33985,1.07617,1.98535h.09571c.2871-.6455.62207-1.33984.90918-1.98535l1.124-2.22558h2.84766l-3.46876,5.93359,3.73243,5.81445h-2.9668l-1.43555-2.32031c-.38281-.69434-.79-1.41211-1.19726-2.082h-.09571c-.334.66992-.69335,1.36328-1.02832,2.082l-1.24414,2.32031h-2.87109Z" fill="#e6e6e6"/><path d="M778.9082,356.47949h9.45118v2.34473h-6.67579V363.25h5.69532v2.3457h-5.69532V372.127H778.9082Z" fill="#e6e6e6"/><path d="M791.11133,356.47949h5c3.23047,0,5.59863.98145,5.59863,3.85254a3.52662,3.52662,0,0,1-2.17676,3.39649v.0957a3.57376,3.57376,0,0,1,2.99024,3.709c0,3.13477-2.56055,4.59375-6.00586,4.59375h-5.40625Zm4.76074,6.46c2.17676,0,3.11035-.86133,3.11035-2.20117,0-1.53125-1.0293-2.10547-3.0625-2.10547h-2.0332v4.30664Zm.3584,7.03418c2.29687,0,3.58984-.83691,3.58984-2.584,0-1.65137-1.24414-2.36817-3.58984-2.36817h-2.34375v4.95215Z" fill="#e6e6e6"/><path d="M810.17969,356.47949h3.13476l2.77539,7.65625c.335.98145.66993,2.03418,1.00489,3.0625h.0957c.335-1.02832.64551-2.08105.98145-3.0625l2.70312-7.65625h3.1582V372.127h-2.56054v-7.15429c0-1.459.21582-3.541.35937-4.97657h-.0957l-1.26758,3.63672L817.9082,370.668h-1.65039l-2.584-7.03516-1.24414-3.63672H812.334c.11914,1.43555.3584,3.51758.3584,4.97657V372.127h-2.51269Z" fill="#e6e6e6"/><path d="M827.45508,356.7666a1.70531,1.70531,0,1,1,1.69922,1.55567A1.58006,1.58006,0,0,1,827.45508,356.7666Zm.31054,3.61231h2.752v11.748h-2.752Z" fill="#e6e6e6"/><path d="M836.35547,366.002l-3.49317-5.623h2.9668l1.31543,2.22558c.33594.64551.71875,1.33985,1.07715,1.98535h.0957c.28711-.6455.62207-1.33984.90918-1.98535l1.125-2.22558h2.84668l-3.46972,5.93359,3.73242,5.81445h-2.9668l-1.43555-2.32031c-.38281-.69434-.78906-1.41211-1.19531-2.082h-.0957c-.33594.66992-.69434,1.36328-1.0293,2.082l-1.24414,2.32031h-2.87109Z" fill="#e6e6e6"/><path d="M936.35352,356.47949h5.28808c3.25391,0,5.74219,1.14844,5.74219,4.6416a4.38044,4.38044,0,0,1-3.11035,4.47461l3.73242,6.53125h-3.11035l-3.374-6.125h-2.39257v6.125h-2.77539Zm5.001,7.32129c2.12989,0,3.30176-.90918,3.30176-2.67969,0-1.79492-1.17187-2.416-3.30176-2.416h-2.22558v5.0957Z" fill="#e6e6e6"/><path d="M949.96777,356.7666a1.70531,1.70531,0,1,1,1.69825,1.55567A1.57977,1.57977,0,0,1,949.96777,356.7666Zm.31153,3.61231h2.751v11.748h-2.751Z" fill="#e6e6e6"/><path d="M956.54688,360.37891h2.27343l.19141,1.58007h.0957a5.45573,5.45573,0,0,1,3.85156-1.86718c2.5127,0,3.61329,1.69922,3.61329,4.666V372.127h-2.752v-7.00976c0-1.93848-.5498-2.65625-1.84179-2.65625-1.0293,0-1.69922.502-2.67969,1.459v8.207h-2.75195Z" fill="#e6e6e6"/><path d="M969.15723,374.25586a3.02809,3.02809,0,0,1,1.6748-2.51172v-.0957a2.21,2.21,0,0,1-1.05273-1.96192,2.83259,2.83259,0,0,1,1.292-2.17675v-.09571a3.96732,3.96732,0,0,1-1.53125-3.11133c0-2.70312,2.17676-4.21093,4.6416-4.21093a5.30345,5.30345,0,0,1,1.72266.28711h4.21093v2.03418h-2.15332a3.13808,3.13808,0,0,1,.66993,1.98535c0,2.6084-1.96192,3.99609-4.4502,3.99609a4.34935,4.34935,0,0,1-1.60352-.31055,1.35039,1.35039,0,0,0-.57421,1.124c0,.66992.47851,1.07715,1.91406,1.07715H976c2.82324,0,4.30664.86132,4.30664,2.89453,0,2.32031-2.44043,4.13867-6.26855,4.13867C971.23828,377.31836,969.15723,376.31445,969.15723,374.25586Zm8.49316-.62109c0-.91016-.74121-1.17286-2.08105-1.17286H973.9668a6.24673,6.24673,0,0,1-1.60352-.167,1.97449,1.97449,0,0,0-.90918,1.55469c0,1.05273,1.14844,1.6748,3.01465,1.6748C976.35938,375.52441,977.65039,374.63867,977.65039,373.63477Zm-1.43555-9.332a2.0617,2.0617,0,1,0-4.09082,0,2.06753,2.06753,0,1,0,4.09082,0Z" fill="#e6e6e6"/><path d="M987.41211,356.47949h3.13477l2.77539,7.65625c.335.98145.66992,2.03418,1.00488,3.0625h.0957c.335-1.02832.64551-2.08105.98145-3.0625l2.70312-7.65625h3.1582V372.127h-2.56054v-7.15429c0-1.459.21582-3.541.35937-4.97657h-.0957l-1.26758,3.63672-2.56055,7.03516h-1.65039l-2.584-7.03516-1.24414-3.63672h-.0957c.11914,1.43555.35839,3.51758.35839,4.97657V372.127h-2.51269Z" fill="#e6e6e6"/><path d="M1004.23242,366.26562c0-3.92382,2.65625-6.17382,5.5752-6.17382,2.94238,0,5.59863,2.25,5.59863,6.17382,0,3.89942-2.65625,6.14844-5.59863,6.14844C1006.88867,372.41406,1004.23242,370.165,1004.23242,366.26562Zm8.35059,0c0-2.36914-1.05274-3.92382-2.77539-3.92382s-2.751,1.55468-2.751,3.92382c0,2.34376,1.02832,3.89942,2.751,3.89942S1012.583,368.60938,1012.583,366.26562Z" fill="#e6e6e6"/><path d="M1017.416,366.26562c0-3.82812,2.417-6.17382,4.97656-6.17382a4.33744,4.33744,0,0,1,3.08691,1.293l-.0957-1.89063v-4.25879h2.751V372.127h-2.27247l-.1914-1.26757h-.0957a4.89479,4.89479,0,0,1-3.3252,1.55468C1019.30664,372.41406,1017.416,370.14062,1017.416,366.26562Zm7.96777,2.55958v-5.4795a3.50544,3.50544,0,0,0-2.39258-.98047c-1.50683,0-2.72754,1.41211-2.72754,3.876,0,2.53613.957,3.89941,2.65625,3.89941A3.172,3.172,0,0,0,1025.38379,368.8252Z" fill="#e6e6e6"/><path d="M113.75781,774.71582h4.92969c3.46875,0,6.05273,1.19629,6.05273,4.833,0,3.46875-2.584,5.07226-5.957,5.07226h-2.25v5.74219h-2.77539Zm4.80957,7.68066c2.32129,0,3.44532-.93359,3.44532-2.84765,0-1.96192-1.21973-2.60742-3.541-2.60742H116.5332v5.45507Z" fill="#e6e6e6"/><path d="M127.13281,775.00293a1.70531,1.70531,0,1,1,1.69922,1.55566A1.58006,1.58006,0,0,1,127.13281,775.00293Zm.31055,3.6123h2.752v11.74805h-2.752Z" fill="#e6e6e6"/><path d="M134.11914,786.3916V780.793h-1.6748v-2.05762l1.81836-.12012.335-3.20507h2.29687v3.20507h2.99024V780.793h-2.99024v5.59863c0,1.3877.52637,2.05762,1.65039,2.05762a3.34871,3.34871,0,0,0,1.2207-.26367l.47852,2.03418a7.49009,7.49009,0,0,1-2.39258.43066C135.124,790.65039,134.11914,788.92773,134.11914,786.3916Z" fill="#e6e6e6"/><path d="M141.20117,784.502a5.79563,5.79563,0,0,1,5.88672-6.17383,5.06047,5.06047,0,0,1,3.44531,1.31641l-1.33984,1.79492a2.87306,2.87306,0,0,0-1.96289-.86133c-1.88965,0-3.20508,1.55469-3.20508,3.92383,0,2.34375,1.291,3.89942,3.13379,3.89942a3.91625,3.91625,0,0,0,2.417-1.00489l1.124,1.81836a5.86638,5.86638,0,0,1-3.82813,1.43555C143.666,790.65039,141.20117,788.40137,141.20117,784.502Z" fill="#e6e6e6"/><path d="M153.02148,773.47168h2.751v4.35449l-.0957,2.27344a5.38587,5.38587,0,0,1,3.75683-1.77149c2.51172,0,3.61231,1.69922,3.61231,4.666v7.36914h-2.751v-7.00976c0-1.93848-.55078-2.65625-1.84277-2.65625-1.02832,0-1.69824.50195-2.67969,1.459v8.207h-2.751Z" fill="#e6e6e6"/><path d="M286.21484,774.71582h9.4502v2.34473h-6.67481v4.42578h5.69336v2.3457h-5.69336v6.53125h-2.77539Z" fill="#e6e6e6"/><path d="M298.17773,787.34863V773.47168h2.751v14.02051c0,.66992.31152.90918.59863.90918a1.64184,1.64184,0,0,0,.42969-.04785l.35938,2.05761a3.75559,3.75559,0,0,1-1.459.23926C298.89453,790.65039,298.17773,789.38281,298.17773,787.34863Z" fill="#e6e6e6"/><path d="M304.542,785.98438v-7.36915h2.751V785.626c0,1.93847.55078,2.65527,1.81836,2.65527,1.02929,0,1.72265-.47852,2.6084-1.62695v-8.03907h2.751v11.74805h-2.248l-.21582-1.72266h-.07129a4.78847,4.78847,0,0,1-3.78125,2.00977C305.64258,790.65039,304.542,788.95117,304.542,785.98438Z" fill="#e6e6e6"/><path d="M317.19922,784.502a5.79469,5.79469,0,0,1,5.88476-6.17383,5.05861,5.05861,0,0,1,3.44532,1.31641l-1.33985,1.79492a2.86677,2.86677,0,0,0-1.96093-.86133c-1.89063,0-3.207,1.55469-3.207,3.92383,0,2.34375,1.293,3.89942,3.13477,3.89942a3.91366,3.91366,0,0,0,2.416-1.00489l1.125,1.81836a5.86638,5.86638,0,0,1-3.82813,1.43555C319.66309,790.65039,317.19922,788.40137,317.19922,784.502Z" fill="#e6e6e6"/><path d="M329.18652,786.3916V780.793h-1.6748v-2.05762l1.81836-.12012.335-3.20507h2.29687v3.20507h2.99121V780.793h-2.99121v5.59863c0,1.3877.52637,2.05762,1.65137,2.05762a3.348,3.348,0,0,0,1.21973-.26367l.47851,2.03418a7.49008,7.49008,0,0,1-2.39257.43066C330.19141,790.65039,329.18652,788.92773,329.18652,786.3916Z" fill="#e6e6e6"/><path d="M445.21094,774.71582h4.92968c3.46876,0,6.05274,1.19629,6.05274,4.833,0,3.46875-2.584,5.07226-5.957,5.07226h-2.25v5.74219h-2.77539Zm4.80957,7.68066c2.32129,0,3.44531-.93359,3.44531-2.84765,0-1.96192-1.21973-2.60742-3.541-2.60742h-1.93847v5.45507Z" fill="#e6e6e6"/><path d="M458.89648,773.47168h2.752v4.35449l-.09571,2.27344a5.38361,5.38361,0,0,1,3.75586-1.77149c2.5127,0,3.61329,1.69922,3.61329,4.666v7.36914h-2.752v-7.00976c0-1.93848-.5498-2.65625-1.8418-2.65625-1.02929,0-1.69921.50195-2.67968,1.459v8.207h-2.752Z" fill="#e6e6e6"/><path d="M471.627,787.20508c0-2.51172,2.08106-3.82813,6.91407-4.35449-.04786-1.24414-.55079-2.29688-2.15332-2.29688a6.69321,6.69321,0,0,0-3.30176,1.14844l-1.00489-1.84277a9.19808,9.19808,0,0,1,4.833-1.53126c2.91895,0,4.37891,1.79493,4.37891,5.07227v6.96289h-2.27344l-.19141-1.292h-.0957a5.71659,5.71659,0,0,1-3.63672,1.5791A3.28366,3.28366,0,0,1,471.627,787.20508Zm6.91407,0v-2.63184c-3.20606.40723-4.25879,1.24414-4.25879,2.417,0,1.05274.71777,1.50684,1.69824,1.50684A3.73488,3.73488,0,0,0,478.541,787.20508Z" fill="#e6e6e6"/><path d="M483.42188,789.02344l1.292-1.77051a5.22689,5.22689,0,0,0,3.2539,1.31543c1.26856,0,1.86621-.59766,1.86621-1.41113,0-.98145-1.26757-1.41114-2.51171-1.88965-1.55567-.57422-3.30274-1.46-3.30274-3.42188,0-2.05761,1.65137-3.51758,4.2832-3.51758a6.341,6.341,0,0,1,3.90039,1.41211l-1.26855,1.67481a4.372,4.372,0,0,0-2.584-1.00488c-1.17286,0-1.72266.55078-1.72266,1.292,0,.93262,1.17285,1.292,2.44043,1.74707,1.60352.59766,3.37305,1.36328,3.37305,3.56445,0,2.00977-1.60254,3.63672-4.56934,3.63672A7.43807,7.43807,0,0,1,483.42188,789.02344Z" fill="#e6e6e6"/><path d="M494.14062,784.502c0-3.82812,2.65626-6.17383,5.40821-6.17383,3.18164,0,4.85644,2.29688,4.85644,5.5752a6.37289,6.37289,0,0,1-.12011,1.33984h-7.46485a3.36453,3.36453,0,0,0,3.46973,3.27832,4.91158,4.91158,0,0,0,2.72754-.86132l.93359,1.72265a7.42026,7.42026,0,0,1-4.01953,1.26758C496.67773,790.65039,494.14062,788.377,494.14062,784.502Zm7.87208-1.125c0-1.81836-.79-2.91894-2.39258-2.91894-1.3877,0-2.584,1.02832-2.82324,2.91894Z" fill="#e6e6e6"/><path d="M610.13086,774.71582h4.92773c3.46973,0,6.05371,1.19629,6.05371,4.833,0,3.46875-2.584,5.07226-5.958,5.07226h-2.24805v5.74219h-2.77539Zm4.80859,7.68066c2.32032,0,3.44532-.93359,3.44532-2.84765,0-1.96192-1.22071-2.60742-3.541-2.60742h-1.9375v5.45507Z" fill="#e6e6e6"/><path d="M624.05469,774.71582h3.13476l2.77539,7.65625c.335.98145.66993,2.03418,1.00489,3.0625h.0957c.335-1.02832.64551-2.08105.98145-3.0625l2.70312-7.65625h3.1582v15.64746h-2.56054V783.209c0-1.459.21582-3.541.35937-4.97656h-.0957l-1.26758,3.63672-2.56055,7.03516h-1.65039l-2.584-7.03516-1.24414-3.63672H626.209c.11914,1.43555.3584,3.51758.3584,4.97656v7.1543h-2.51269Z" fill="#e6e6e6"/><path d="M645.58887,788.35352l1.62695-1.89063a6.22273,6.22273,0,0,0,4.06738,1.77149c1.77051,0,2.72754-.79,2.72754-2.00977,0-1.293-1.00488-1.69922-2.417-2.29688l-2.15234-.93359a4.51,4.51,0,0,1-3.15821-4.16309c0-2.48828,2.20118-4.40234,5.26368-4.40234a6.90864,6.90864,0,0,1,4.80859,1.98535l-1.41211,1.77149a5.092,5.092,0,0,0-3.39648-1.33985c-1.48438,0-2.46485.69336-2.46485,1.8418,0,1.2207,1.19629,1.6748,2.48828,2.20117l2.12891.88477c1.84277.79,3.1582,1.96289,3.1582,4.23535,0,2.53613-2.10547,4.6416-5.62207,4.6416A8.10771,8.10771,0,0,1,645.58887,788.35352Z" fill="#e6e6e6"/><path d="M658.70117,784.502c0-3.82812,2.65528-6.17383,5.40625-6.17383,3.18262,0,4.85742,2.29688,4.85742,5.5752a6.44976,6.44976,0,0,1-.11914,1.33984h-7.46484a3.36194,3.36194,0,0,0,3.46875,3.27832,4.91158,4.91158,0,0,0,2.72754-.86132l.93262,1.72265a7.41246,7.41246,0,0,1-4.01954,1.26758C661.23633,790.65039,658.70117,788.377,658.70117,784.502Zm7.8711-1.125c0-1.81836-.78907-2.91894-2.39258-2.91894-1.3877,0-2.584,1.02832-2.82324,2.91894Z" fill="#e6e6e6"/><path d="M671.59766,787.34863V773.47168h2.751v14.02051c0,.66992.31153.90918.59864.90918a1.64177,1.64177,0,0,0,.42968-.04785l.35938,2.05761a3.75559,3.75559,0,0,1-1.459.23926C672.31445,790.65039,671.59766,789.38281,671.59766,787.34863Z" fill="#e6e6e6"/><path d="M678.55859,780.793h-1.57812v-2.05762l1.57812-.12012v-1.21972c0-2.44043,1.125-4.21094,3.90039-4.21094a5.93251,5.93251,0,0,1,2.15332.40723l-.52636,2.05664a3.24223,3.24223,0,0,0-1.292-.28711c-.957,0-1.4834.62305-1.4834,1.98633v1.26757h2.29687V780.793h-2.29687v9.57031h-2.752Z" fill="#e6e6e6"/><path d="M787.40234,774.71582h4.92774c3.46972,0,6.05371,1.19629,6.05371,4.833,0,3.46875-2.584,5.07226-5.958,5.07226h-2.24805v5.74219h-2.77539Zm4.8086,7.68066c2.32031,0,3.44531-.93359,3.44531-2.84765,0-1.96192-1.2207-2.60742-3.541-2.60742h-1.9375v5.45507Z" fill="#e6e6e6"/><path d="M801.32617,774.71582h3.13477l2.77539,7.65625c.335.98145.66992,2.03418,1.00488,3.0625h.0957c.335-1.02832.64551-2.08105.98145-3.0625l2.70312-7.65625h3.15821v15.64746h-2.56055V783.209c0-1.459.21582-3.541.35938-4.97656h-.09571l-1.26758,3.63672-2.56054,7.03516H807.4043l-2.584-7.03516-1.24414-3.63672h-.0957c.11914,1.43555.3584,3.51758.3584,4.97656v7.1543h-2.5127Z" fill="#e6e6e6"/><path d="M827,774.71582h3.25391l5.0957,15.64746h-2.91895l-1.21972-4.23437h-5.26367l-1.22071,4.23437h-2.82324Zm-.40723,9.23535h3.99512l-.5498-1.91406c-.50293-1.65039-.957-3.44531-1.41114-5.168h-.0957c-.43164,1.74609-.88574,3.51758-1.38867,5.168Z" fill="#e6e6e6"/><path d="M952.59961,774.71582h4.92969c3.46875,0,6.05273,1.19629,6.05273,4.833,0,3.46875-2.584,5.07226-5.957,5.07226h-2.25v5.74219h-2.77539Zm4.80957,7.68066c2.32129,0,3.44531-.93359,3.44531-2.84765,0-1.96192-1.21972-2.60742-3.541-2.60742H955.375v5.45507Z" fill="#e6e6e6"/><path d="M966.52539,774.71582h3.13379l2.77539,7.65625c.335.98145.66992,2.03418,1.00488,3.0625h.09571c.335-1.02832.64648-2.08105.98046-3.0625l2.70411-7.65625h3.1582v15.64746h-2.55957V783.209c0-1.459.21484-3.541.3584-4.97656h-.09571l-1.26855,3.63672-2.55957,7.03516h-1.65137l-2.584-7.03516-1.24414-3.63672h-.09571c.12012,1.43555.35938,3.51758.35938,4.97656v7.1543h-2.51172Z" fill="#e6e6e6"/><path d="M989.13477,774.71582h9.45117v2.34473h-6.67578v4.42578h5.69531v2.3457h-5.69531v6.53125h-2.77539Z" fill="#e6e6e6"/><path d="M1001.33789,774.71582h5c3.23047,0,5.59863.98145,5.59863,3.85254a3.52659,3.52659,0,0,1-2.17675,3.39648v.09571a3.57376,3.57376,0,0,1,2.99023,3.709c0,3.13477-2.56055,4.59375-6.00586,4.59375h-5.40625Zm4.76074,6.46c2.17676,0,3.11035-.86133,3.11035-2.20117,0-1.53125-1.02929-2.10547-3.0625-2.10547h-2.0332v4.30664Zm.3584,7.03418c2.29688,0,3.58985-.83691,3.58985-2.584,0-1.65137-1.24415-2.36817-3.58985-2.36817h-2.34375V788.21Z" fill="#e6e6e6"/><path d="M113.19531,602.94629h4.1875c4.78516,0,7.6084,2.584,7.6084,7.752,0,5.19238-2.82324,7.89551-7.46484,7.89551h-4.33106Zm3.9961,13.39844c3.1582,0,4.95312-1.79395,4.95312-5.64649,0-3.82812-1.79492-5.50293-4.95312-5.50293H115.9707v11.14942Z" fill="#e6e6e6"/><path d="M127.91016,606.8457h2.27343l.19141,2.082h.0957a3.99278,3.99278,0,0,1,3.32618-2.36914,2.98009,2.98009,0,0,1,1.33984.24024l-.47852,2.39258A3.83374,3.83374,0,0,0,133.4375,609c-.93359,0-2.05762.64551-2.77539,2.416v7.17773h-2.752Z" fill="#e6e6e6"/><path d="M136.52344,603.2334a1.70531,1.70531,0,1,1,1.69922,1.55566A1.58006,1.58006,0,0,1,136.52344,603.2334Zm.31054,3.6123h2.752v11.74805h-2.752Z" fill="#e6e6e6"/><path d="M141.64453,606.8457h2.79883l1.86719,6.10157c.31054,1.14843.66992,2.34472.98047,3.541h.0957c.335-1.19629.66992-2.39258,1.00488-3.541l1.86621-6.10157h2.65625L148.918,618.59375h-3.18164Z" fill="#e6e6e6"/><path d="M154.03711,612.73242c0-3.82812,2.65625-6.17383,5.4082-6.17383,3.18164,0,4.85645,2.29688,4.85645,5.5752a6.37211,6.37211,0,0,1-.12012,1.33984H156.7168a3.36452,3.36452,0,0,0,3.46972,3.27832,4.91148,4.91148,0,0,0,2.72754-.86133l.9336,1.72266a7.42027,7.42027,0,0,1-4.01954,1.26758C156.57422,618.88086,154.03711,616.60742,154.03711,612.73242Zm7.87207-1.125c0-1.81836-.79-2.91894-2.39258-2.91894-1.38769,0-2.584,1.02832-2.82324,2.91894Z" fill="#e6e6e6"/><path d="M289.46875,602.94629h9.4502V605.291h-6.67481v4.42578h5.69336v2.3457h-5.69336v6.53125h-2.77539Z" fill="#e6e6e6"/><path d="M300.2832,612.73242c0-3.92383,2.65528-6.17383,5.57422-6.17383,2.94336,0,5.59863,2.25,5.59863,6.17383,0,3.89942-2.65527,6.14844-5.59863,6.14844C302.93848,618.88086,300.2832,616.63184,300.2832,612.73242Zm8.34961,0c0-2.36914-1.05273-3.92383-2.77539-3.92383s-2.75195,1.55469-2.75195,3.92383c0,2.34375,1.0293,3.89942,2.75195,3.89942S308.63281,615.07617,308.63281,612.73242Z" fill="#e6e6e6"/><path d="M314.18359,615.5791v-13.877h2.752v14.02051c0,.66992.31054.90918.59765.90918a1.65445,1.65445,0,0,0,.43164-.04786l.3584,2.05762a3.75751,3.75751,0,0,1-1.46.23926C314.90234,618.88086,314.18359,617.61328,314.18359,615.5791Z" fill="#e6e6e6"/><path d="M319.95117,612.73242c0-3.82812,2.416-6.17383,4.97656-6.17383a4.33515,4.33515,0,0,1,3.08594,1.293l-.0957-1.89062v-4.25879h2.75195v16.8916h-2.27344l-.1914-1.26758h-.0957a4.89506,4.89506,0,0,1-3.32618,1.55469C321.84082,618.88086,319.95117,616.60742,319.95117,612.73242Zm7.9668,2.55957V609.8125a3.5071,3.5071,0,0,0-2.39258-.98047c-1.50781,0-2.72754,1.41211-2.72754,3.876,0,2.53613.957,3.89941,2.65527,3.89941A3.16947,3.16947,0,0,0,327.918,615.292Z" fill="#e6e6e6"/><path d="M451.252,602.94629h3.25391l5.09668,15.64746h-2.91895l-1.2207-4.23437h-5.26367l-1.21973,4.23437h-2.82324Zm-.40625,9.23535h3.9961l-.55078-1.91406c-.502-1.65039-.957-3.44531-1.41211-5.168h-.09571c-.42968,1.74609-.88476,3.51758-1.38672,5.168Z" fill="#e6e6e6"/><path d="M460.55957,617.25391l1.292-1.77051a5.22694,5.22694,0,0,0,3.25391,1.31543c1.26758,0,1.86621-.59766,1.86621-1.41113,0-.98145-1.26856-1.41114-2.5127-1.88965-1.55468-.57422-3.30078-1.46-3.30078-3.42188,0-2.05762,1.65039-3.51758,4.28223-3.51758a6.33811,6.33811,0,0,1,3.89941,1.41211l-1.26757,1.67481a4.36958,4.36958,0,0,0-2.584-1.00489c-1.17187,0-1.72266.55079-1.72266,1.292,0,.93261,1.17188,1.292,2.44043,1.74707,1.60254.59765,3.374,1.36328,3.374,3.56445,0,2.00977-1.60352,3.63672-4.57031,3.63672A7.4358,7.4358,0,0,1,460.55957,617.25391Z" fill="#e6e6e6"/><path d="M471.30273,623.1875l.502-2.15332a2.91062,2.91062,0,0,0,.83789.167,2.46167,2.46167,0,0,0,2.34472-2.00976l.21582-.74121L470.585,606.8457h2.79981l2.0332,5.7666c.335,1.02832.66992,2.20118,1.0293,3.30176h.0957c.28711-1.07617.59765-2.249.88476-3.30176l1.77051-5.7666h2.65528l-4.25782,12.27442c-.98144,2.65527-2.20117,4.30664-4.76172,4.30664A4.56571,4.56571,0,0,1,471.30273,623.1875Z" fill="#e6e6e6"/><path d="M483.88867,606.8457h2.27246l.19141,1.60352h.0957a4.96866,4.96866,0,0,1,3.58887-1.89063,3.19612,3.19612,0,0,1,3.25391,2.10547c1.125-1.19531,2.29687-2.10547,3.78027-2.10547,2.48828,0,3.63672,1.69922,3.63672,4.666v7.36914h-2.77539V611.584c0-1.93847-.57422-2.65625-1.79395-2.65625a3.65256,3.65256,0,0,0-2.46484,1.459v8.207h-2.752V611.584c0-1.93847-.57422-2.65625-1.81836-2.65625a3.70247,3.70247,0,0,0-2.46387,1.459v8.207h-2.751Z" fill="#e6e6e6"/><path d="M630.2168,602.94629h3.13379l2.77539,7.65625c.335.98144.66992,2.03418,1.00488,3.0625h.0957c.335-1.02832.64649-2.08106.98047-3.0625l2.7041-7.65625h3.15821v15.64746h-2.55957v-7.1543c0-1.459.21484-3.541.35839-4.97656h-.0957l-1.26855,3.63672-2.55957,7.03516H636.293l-2.584-7.03516-1.24414-3.63672h-.0957c.12012,1.43555.35938,3.51758.35938,4.97656v7.1543H630.2168Z" fill="#e6e6e6"/><path d="M647.49121,603.2334a1.70531,1.70531,0,1,1,1.69824,1.55566A1.57977,1.57977,0,0,1,647.49121,603.2334Zm.31152,3.6123h2.751v11.74805h-2.751Z" fill="#e6e6e6"/><path d="M656.3916,612.46875l-3.49316-5.62305h2.96679l1.31641,2.22559c.334.64551.7168,1.33984,1.07617,1.98535h.09571c.2871-.64551.62207-1.33984.90918-1.98535l1.124-2.22559h2.84766l-3.46876,5.9336,3.73243,5.81445h-2.9668l-1.43555-2.32031c-.38281-.69434-.79-1.41211-1.19726-2.082h-.09571c-.334.66992-.69335,1.36328-1.02832,2.082l-1.24414,2.32031h-2.87109Z" fill="#e6e6e6"/><path d="M778.9082,602.94629h9.45118V605.291h-6.67579v4.42578h5.69532v2.3457h-5.69532v6.53125H778.9082Z" fill="#e6e6e6"/><path d="M791.11133,602.94629h5c3.23047,0,5.59863.98144,5.59863,3.85254a3.5266,3.5266,0,0,1-2.17676,3.39648v.09571A3.57376,3.57376,0,0,1,802.52344,614c0,3.13477-2.56055,4.59375-6.00586,4.59375h-5.40625Zm4.76074,6.46c2.17676,0,3.11035-.86133,3.11035-2.20117,0-1.53125-1.0293-2.10547-3.0625-2.10547h-2.0332v4.30664Zm.3584,7.03418c2.29687,0,3.58984-.83691,3.58984-2.584,0-1.65137-1.24414-2.36817-3.58984-2.36817h-2.34375v4.95215Z" fill="#e6e6e6"/><path d="M810.17969,602.94629h3.13476l2.77539,7.65625c.335.98144.66993,2.03418,1.00489,3.0625h.0957c.335-1.02832.64551-2.08106.98145-3.0625l2.70312-7.65625h3.1582v15.64746h-2.56054v-7.1543c0-1.459.21582-3.541.35937-4.97656h-.0957l-1.26758,3.63672-2.56055,7.03516h-1.65039l-2.584-7.03516-1.24414-3.63672H812.334c.11914,1.43555.3584,3.51758.3584,4.97656v7.1543h-2.51269Z" fill="#e6e6e6"/><path d="M827.45508,603.2334a1.70531,1.70531,0,1,1,1.69922,1.55566A1.58006,1.58006,0,0,1,827.45508,603.2334Zm.31054,3.6123h2.752v11.74805h-2.752Z" fill="#e6e6e6"/><path d="M836.35547,612.46875l-3.49317-5.62305h2.9668l1.31543,2.22559c.33594.64551.71875,1.33984,1.07715,1.98535h.0957c.28711-.64551.62207-1.33984.90918-1.98535l1.125-2.22559h2.84668l-3.46972,5.9336,3.73242,5.81445h-2.9668l-1.43555-2.32031c-.38281-.69434-.78906-1.41211-1.19531-2.082h-.0957c-.33594.66992-.69434,1.36328-1.0293,2.082l-1.24414,2.32031h-2.87109Z" fill="#e6e6e6"/><path d="M936.35352,602.94629h5.28808c3.25391,0,5.74219,1.14844,5.74219,4.6416a4.38044,4.38044,0,0,1-3.11035,4.47461l3.73242,6.53125h-3.11035l-3.374-6.125h-2.39257v6.125h-2.77539Zm5.001,7.32129c2.12989,0,3.30176-.90918,3.30176-2.67969,0-1.79492-1.17187-2.416-3.30176-2.416h-2.22558v5.0957Z" fill="#e6e6e6"/><path d="M949.96777,603.2334a1.70531,1.70531,0,1,1,1.69825,1.55566A1.57977,1.57977,0,0,1,949.96777,603.2334Zm.31153,3.6123h2.751v11.74805h-2.751Z" fill="#e6e6e6"/><path d="M956.54688,606.8457h2.27343l.19141,1.58008h.0957a5.4557,5.4557,0,0,1,3.85156-1.86719c2.5127,0,3.61329,1.69922,3.61329,4.666v7.36914h-2.752V611.584c0-1.93847-.5498-2.65625-1.84179-2.65625-1.0293,0-1.69922.502-2.67969,1.459v8.207h-2.75195Z" fill="#e6e6e6"/><path d="M969.15723,620.72266a3.02809,3.02809,0,0,1,1.6748-2.51172v-.09571a2.20992,2.20992,0,0,1-1.05273-1.96191,2.83262,2.83262,0,0,1,1.292-2.17676v-.0957a3.96733,3.96733,0,0,1-1.53125-3.11133c0-2.70312,2.17676-4.21094,4.6416-4.21094a5.30372,5.30372,0,0,1,1.72266.28711h4.21093v2.03418h-2.15332a3.13808,3.13808,0,0,1,.66993,1.98535c0,2.6084-1.96192,3.9961-4.4502,3.9961a4.34955,4.34955,0,0,1-1.60352-.31055,1.35038,1.35038,0,0,0-.57421,1.124c0,.66993.47851,1.07715,1.91406,1.07715H976c2.82324,0,4.30664.86133,4.30664,2.89453,0,2.32032-2.44043,4.13868-6.26855,4.13868C971.23828,623.78516,969.15723,622.78125,969.15723,620.72266Zm8.49316-.6211c0-.91015-.74121-1.17285-2.08105-1.17285H973.9668a6.24673,6.24673,0,0,1-1.60352-.167,1.97446,1.97446,0,0,0-.90918,1.55469c0,1.05273,1.14844,1.6748,3.01465,1.6748C976.35938,621.99121,977.65039,621.10547,977.65039,620.10156Zm-1.43555-9.332a2.0617,2.0617,0,1,0-4.09082,0,2.06753,2.06753,0,1,0,4.09082,0Z" fill="#e6e6e6"/><path d="M987.41211,602.94629h3.13477l2.77539,7.65625c.335.98144.66992,2.03418,1.00488,3.0625h.0957c.335-1.02832.64551-2.08106.98145-3.0625l2.70312-7.65625h3.1582v15.64746h-2.56054v-7.1543c0-1.459.21582-3.541.35937-4.97656h-.0957l-1.26758,3.63672-2.56055,7.03516h-1.65039l-2.584-7.03516-1.24414-3.63672h-.0957c.11914,1.43555.35839,3.51758.35839,4.97656v7.1543h-2.51269Z" fill="#e6e6e6"/><path d="M1004.23242,612.73242c0-3.92383,2.65625-6.17383,5.5752-6.17383,2.94238,0,5.59863,2.25,5.59863,6.17383,0,3.89942-2.65625,6.14844-5.59863,6.14844C1006.88867,618.88086,1004.23242,616.63184,1004.23242,612.73242Zm8.35059,0c0-2.36914-1.05274-3.92383-2.77539-3.92383s-2.751,1.55469-2.751,3.92383c0,2.34375,1.02832,3.89942,2.751,3.89942S1012.583,615.07617,1012.583,612.73242Z" fill="#e6e6e6"/><path d="M1017.416,612.73242c0-3.82812,2.417-6.17383,4.97656-6.17383a4.33744,4.33744,0,0,1,3.08691,1.293l-.0957-1.89062v-4.25879h2.751v16.8916h-2.27247l-.1914-1.26758h-.0957a4.89475,4.89475,0,0,1-3.3252,1.55469C1019.30664,618.88086,1017.416,616.60742,1017.416,612.73242Zm7.96777,2.55957V609.8125a3.50539,3.50539,0,0,0-2.39258-.98047c-1.50683,0-2.72754,1.41211-2.72754,3.876,0,2.53613.957,3.89941,2.65625,3.89941A3.172,3.172,0,0,0,1025.38379,615.292Z" fill="#e6e6e6"/><path d="M1056.79267,97.56973H26.13975V64.22724a4,4,0,0,1,4-4H1052.79267a4,4,0,0,1,4,4Z" fill="#282828"/><path d="M1056.79267,269.34522H26.13975v-33.3425a4,4,0,0,1,4-4H1052.79267a4,4,0,0,1,4,4Z" fill="#282828"/><path d="M30.13975,650.23869H1052.79267a4,4,0,0,1,4,4v33.3425a0,0,0,0,1,0,0H26.13975a0,0,0,0,1,0,0v-33.3425A4,4,0,0,1,30.13975,650.23869Z" fill="#282828"/><path d="M30.13975,478.46321H1052.79267a4,4,0,0,1,4,4v33.3425a0,0,0,0,1,0,0H26.13975a0,0,0,0,1,0,0v-33.3425A4,4,0,0,1,30.13975,478.46321Z" fill="#282828"/><rect x="93.35624" y="123.70948" width="89.62199" height="37.3425" rx="2" ry="2" stroke="#252525" stroke-miterlimit="10" fill="url(#a)"/><rect x="265.13173" y="123.70948" width="89.62199" height="37.3425" rx="2" ry="2" stroke="#252525" stroke-miterlimit="10" fill="url(#b)"/><rect x="429.43872" y="123.70948" width="89.62199" height="37.3425" rx="2" ry="2" stroke="#252525" stroke-miterlimit="10" fill="url(#c)"/><rect x="601.2142" y="123.70948" width="89.62199" height="37.3425" rx="2" ry="2" stroke="#252525" stroke-miterlimit="10" fill="url(#d)"/><rect x="765.54667" y="123.70948" width="89.62199" height="37.3425" rx="2" ry="2" stroke="#252525" stroke-miterlimit="10" fill="url(#e)"/><rect x="937.29668" y="123.70948" width="89.62199" height="37.3425" rx="2" ry="2" stroke="#252525" stroke-miterlimit="10" fill="url(#f)"/><rect x="93.35624" y="295.48497" width="89.62199" height="37.3425" rx="2" ry="2" stroke="#252525" stroke-miterlimit="10" fill="url(#g)"/><rect x="265.13173" y="295.48497" width="89.62199" height="37.3425" rx="2" ry="2" stroke="#252525" stroke-miterlimit="10" fill="url(#h)"/><rect x="429.43872" y="295.48497" width="89.62199" height="37.3425" rx="2" ry="2" stroke="#252525" stroke-miterlimit="10" fill="url(#i)"/><rect x="601.2142" y="295.48497" width="89.62199" height="37.3425" rx="2" ry="2" stroke="#252525" stroke-miterlimit="10" fill="url(#j)"/><rect x="765.54667" y="295.48497" width="89.62199" height="37.3425" rx="2" ry="2" stroke="#252525" stroke-miterlimit="10" fill="url(#k)"/><rect x="937.29668" y="295.48497" width="89.62199" height="37.3425" rx="2" ry="2" stroke="#252525" stroke-miterlimit="10" fill="url(#l)"/><rect x="93.35624" y="713.72094" width="89.62199" height="37.3425" rx="2" ry="2" stroke="#252525" stroke-miterlimit="10" fill="url(#m)"/><rect x="265.13173" y="713.72094" width="89.62199" height="37.3425" rx="2" ry="2" stroke="#252525" stroke-miterlimit="10" fill="url(#n)"/><rect x="429.43872" y="713.72094" width="89.62199" height="37.3425" rx="2" ry="2" stroke="#252525" stroke-miterlimit="10" fill="url(#o)"/><rect x="601.2142" y="713.72094" width="89.62199" height="37.3425" rx="2" ry="2" stroke="#252525" stroke-miterlimit="10" fill="url(#p)"/><rect x="765.54667" y="713.72094" width="89.62199" height="37.3425" rx="2" ry="2" stroke="#252525" stroke-miterlimit="10" fill="url(#q)"/><rect x="937.29668" y="713.72094" width="89.62199" height="37.3425" rx="2" ry="2" stroke="#252525" stroke-miterlimit="10" fill="url(#r)"/><rect x="93.35624" y="541.94545" width="89.62199" height="37.3425" rx="2" ry="2" stroke="#252525" stroke-miterlimit="10" fill="url(#s)"/><rect x="265.13173" y="541.94545" width="89.62199" height="37.3425" rx="2" ry="2" stroke="#252525" stroke-miterlimit="10" fill="url(#t)"/><rect x="429.43872" y="541.94545" width="89.62199" height="37.3425" rx="2" ry="2" stroke="#252525" stroke-miterlimit="10" fill="url(#u)"/><rect x="601.2142" y="541.94545" width="89.62199" height="37.3425" rx="2" ry="2" stroke="#252525" stroke-miterlimit="10" fill="url(#v)"/><rect x="765.54667" y="541.94545" width="89.62199" height="37.3425" rx="2" ry="2" stroke="#252525" stroke-miterlimit="10" fill="url(#w)"/><rect x="937.29668" y="541.94545" width="89.62199" height="37.3425" rx="2" ry="2" stroke="#252525" stroke-miterlimit="10" fill="url(#x)"/><path d="M484.02734,80.43262c0-5.04785,2.82227-8.03907,6.89063-8.03907,4.09082,0,6.91406,2.99122,6.91406,8.03907,0,5.07226-2.82324,8.18261-6.91406,8.18261C486.84961,88.61523,484.02734,85.50488,484.02734,80.43262Zm10.9336,0c0-3.49317-1.5791-5.62207-4.043-5.62207-2.46485,0-4.044,2.1289-4.044,5.62207,0,3.5166,1.5791,5.7666,4.044,5.7666C493.38184,86.19922,494.96094,83.94922,494.96094,80.43262Z" fill="#ffa861"/><path d="M499.55469,86.98828l1.292-1.77051a5.22691,5.22691,0,0,0,3.25391,1.31543c1.26855,0,1.86621-.59765,1.86621-1.41113,0-.98145-1.26758-1.41113-2.51172-1.88965-1.55567-.57422-3.30274-1.46-3.30274-3.42187,0-2.05762,1.65137-3.51758,4.28321-3.51758a6.341,6.341,0,0,1,3.90039,1.41211l-1.26856,1.6748a4.3719,4.3719,0,0,0-2.584-1.00488c-1.17285,0-1.72266.55078-1.72266,1.292,0,.93262,1.17285,1.292,2.44043,1.74707,1.60352.59766,3.37305,1.36328,3.37305,3.56446,0,2.00976-1.60254,3.63671-4.56934,3.63671A7.438,7.438,0,0,1,499.55469,86.98828Z" fill="#ffa861"/><path d="M510.27344,82.4668a5.79563,5.79563,0,0,1,5.88672-6.17383,5.06051,5.06051,0,0,1,3.44531,1.31641l-1.33985,1.79492a2.873,2.873,0,0,0-1.96289-.86133c-1.88964,0-3.20507,1.55469-3.20507,3.92383,0,2.34375,1.291,3.89941,3.13379,3.89941a3.91632,3.91632,0,0,0,2.417-1.00488l1.124,1.81836a5.86638,5.86638,0,0,1-3.82812,1.43554C512.73828,88.61523,510.27344,86.36621,510.27344,82.4668Z" fill="#ffa861"/><path d="M521.78223,72.96777a1.70531,1.70531,0,1,1,1.69824,1.55567A1.57977,1.57977,0,0,1,521.78223,72.96777Zm.31152,3.61231h2.751v11.748h-2.751Z" fill="#ffa861"/><path d="M528.36133,85.31348v-13.877h2.752V85.457c0,.66992.31055.90918.59766.90918a1.65482,1.65482,0,0,0,.43164-.04785l.3584,2.05762a3.75776,3.75776,0,0,1-1.46.23925C529.08008,88.61523,528.36133,87.34766,528.36133,85.31348Z" fill="#ffa861"/><path d="M534.8457,85.31348v-13.877h2.752V85.457c0,.66992.31054.90918.59765.90918a1.65478,1.65478,0,0,0,.43164-.04785l.3584,2.05762a3.75772,3.75772,0,0,1-1.46.23925C535.56445,88.61523,534.8457,87.34766,534.8457,85.31348Z" fill="#ffa861"/><path d="M540.709,85.16992c0-2.51172,2.08106-3.82812,6.91407-4.35449-.04785-1.24414-.55078-2.29688-2.15332-2.29688A6.69321,6.69321,0,0,0,542.168,79.667l-1.00488-1.84277a9.198,9.198,0,0,1,4.833-1.53125c2.91895,0,4.37891,1.79492,4.37891,5.07226v6.96289h-2.27344l-.1914-1.292h-.09571a5.71654,5.71654,0,0,1-3.63672,1.5791A3.28366,3.28366,0,0,1,540.709,85.16992Zm6.91407,0V82.53809c-3.20606.40722-4.25879,1.24414-4.25879,2.417,0,1.05273.71777,1.50683,1.69824,1.50683A3.73484,3.73484,0,0,0,547.62305,85.16992Z" fill="#ffa861"/><path d="M553.7002,84.35645V78.75781h-1.67481V76.7002l1.81836-.12012.335-3.20508h2.29688v3.20508h2.99121v2.17773h-2.99121v5.59864c0,1.38769.52636,2.05761,1.65136,2.05761a3.348,3.348,0,0,0,1.21973-.26367l.47852,2.03418a7.4902,7.4902,0,0,1-2.39258.43066C554.70508,88.61523,553.7002,86.89258,553.7002,84.35645Z" fill="#ffa861"/><path d="M560.7832,82.4668c0-3.92383,2.65528-6.17383,5.57422-6.17383,2.94336,0,5.59863,2.25,5.59863,6.17383,0,3.89941-2.65527,6.14843-5.59863,6.14843C563.43848,88.61523,560.7832,86.36621,560.7832,82.4668Zm8.34961,0c0-2.36914-1.05273-3.92383-2.77539-3.92383s-2.752,1.55469-2.752,3.92383c0,2.34375,1.0293,3.89941,2.752,3.89941S569.13281,84.81055,569.13281,82.4668Z" fill="#ffa861"/><path d="M574.68359,76.58008H576.957l.19141,2.082h.0957a3.99278,3.99278,0,0,1,3.32617-2.36914,2.98012,2.98012,0,0,1,1.33985.24023l-.47852,2.39258a3.8338,3.8338,0,0,0-1.2207-.1914c-.9336,0-2.05762.6455-2.77539,2.416v7.17773h-2.752Z" fill="#ffa861"/><path d="M591.69531,72.68066h3.25391l5.0957,15.64746H597.126l-1.21973-4.23437h-5.26367l-1.2207,4.23437h-2.82325Zm-.40722,9.23536h3.99511l-.5498-1.91407c-.50293-1.65039-.957-3.44531-1.41113-5.168h-.09571c-.43164,1.7461-.88574,3.51758-1.38867,5.168Z" fill="#ffa861"/><path d="M496.624,258.09375l1.627-1.89063a6.22266,6.22266,0,0,0,4.06738,1.77149c1.77051,0,2.72754-.79,2.72754-2.00977,0-1.293-1.00488-1.69922-2.417-2.29687l-2.15235-.93359a4.51,4.51,0,0,1-3.1582-4.16309c0-2.48828,2.20117-4.40234,5.26367-4.40234a6.90858,6.90858,0,0,1,4.80859,1.98535l-1.4121,1.77148a5.09194,5.09194,0,0,0-3.39649-1.33984c-1.48437,0-2.46484.69336-2.46484,1.84179,0,1.22071,1.19629,1.67481,2.48828,2.20118l2.12891.88476c1.84277.79,3.1582,1.96289,3.1582,4.23535,0,2.53614-2.10547,4.6416-5.62207,4.6416A8.10773,8.10773,0,0,1,496.624,258.09375Z" fill="#ffa861"/><path d="M510.502,243.21191h2.751v4.3545l-.0957,2.27343a5.38586,5.38586,0,0,1,3.75683-1.77148c2.51172,0,3.61231,1.69922,3.61231,4.666v7.36914h-2.751v-7.00977c0-1.93848-.55078-2.65625-1.84277-2.65625-1.02832,0-1.69824.50195-2.67969,1.459v8.207h-2.751Z" fill="#ffa861"/><path d="M523.23047,256.94531c0-2.51172,2.08105-3.82812,6.91406-4.35449-.04785-1.24414-.55078-2.29687-2.15332-2.29687a6.69322,6.69322,0,0,0-3.30176,1.14843l-1.00488-1.84277a9.198,9.198,0,0,1,4.833-1.53125c2.91894,0,4.3789,1.79492,4.3789,5.07226v6.9629h-2.27343l-.19141-1.292h-.0957a5.71659,5.71659,0,0,1-3.63672,1.5791A3.28366,3.28366,0,0,1,523.23047,256.94531Zm6.91406,0v-2.63183c-3.20605.40722-4.25879,1.24414-4.25879,2.417,0,1.05273.71778,1.50683,1.69824,1.50683A3.7348,3.7348,0,0,0,530.14453,256.94531Z" fill="#ffa861"/><path d="M536.19922,248.35547h2.27246l.19141,1.24414h.0957a5.73213,5.73213,0,0,1,3.541-1.53125c2.91895,0,4.61817,2.3457,4.61817,5.98242,0,4.01953-2.417,6.33984-5.02539,6.33984a4.75045,4.75045,0,0,1-3.01367-1.292l.07129,1.96192v3.68457h-2.751Zm7.87109,5.71875c0-2.34473-.76562-3.73242-2.53613-3.73242a3.75177,3.75177,0,0,0-2.584,1.3164v5.47852a3.71424,3.71424,0,0,0,2.36816.98047C542.874,258.11719,544.07031,256.73047,544.07031,254.07422Z" fill="#ffa861"/><path d="M548.92773,254.24219c0-3.82813,2.65528-6.17383,5.40625-6.17383,3.18262,0,4.85743,2.29687,4.85743,5.57519a6.45056,6.45056,0,0,1-.11914,1.33985h-7.46485a3.362,3.362,0,0,0,3.46875,3.27832,4.91151,4.91151,0,0,0,2.72754-.86133l.93262,1.72266a7.41245,7.41245,0,0,1-4.01953,1.26757C551.46289,260.39062,548.92773,258.11719,548.92773,254.24219Zm7.8711-1.125c0-1.81836-.78906-2.91895-2.39258-2.91895-1.3877,0-2.584,1.02832-2.82324,2.91895Z" fill="#ffa861"/><path d="M561.82422,248.35547h2.27246l.19141,2.082h.0957a3.99026,3.99026,0,0,1,3.32519-2.36914,2.97459,2.97459,0,0,1,1.33985.24023l-.47852,2.39258a3.81856,3.81856,0,0,0-1.21972-.1914c-.93262,0-2.05762.6455-2.77539,2.416v7.17774h-2.751Z" fill="#ffa861"/><path d="M578.834,244.45605h3.25391l5.09668,15.64747h-2.91895l-1.2207-4.23438h-5.26367l-1.21973,4.23438h-2.82324Zm-.40625,9.23536h3.9961l-.55078-1.91407c-.502-1.65039-.957-3.44531-1.41211-5.168h-.09571c-.42968,1.74609-.88476,3.51757-1.38671,5.168Z" fill="#ffa861"/><path d="M483.56055,670.44434c0-5.04786,2.82226-8.03907,6.89062-8.03907,4.09082,0,6.91406,2.99121,6.91406,8.03907,0,5.07226-2.82324,8.18261-6.91406,8.18261C486.38281,678.627,483.56055,675.5166,483.56055,670.44434Zm10.93359,0c0-3.49317-1.5791-5.62207-4.043-5.62207-2.46484,0-4.04394,2.1289-4.04394,5.62207,0,3.5166,1.5791,5.7666,4.04394,5.7666C492.915,676.21094,494.49414,673.96094,494.49414,670.44434Z" fill="#ded66f"/><path d="M499.08789,677l1.292-1.77051a5.22694,5.22694,0,0,0,3.25391,1.31543c1.26855,0,1.86621-.59765,1.86621-1.41113,0-.98145-1.26758-1.41113-2.51172-1.88965-1.55566-.57422-3.30273-1.46-3.30273-3.42187,0-2.05762,1.65136-3.51758,4.2832-3.51758a6.341,6.341,0,0,1,3.90039,1.41211l-1.26855,1.6748a4.372,4.372,0,0,0-2.584-1.00488c-1.17285,0-1.72265.55078-1.72265,1.292,0,.93262,1.17285,1.292,2.44043,1.74707,1.60351.59766,3.373,1.36328,3.373,3.56445,0,2.00977-1.60254,3.63672-4.56933,3.63672A7.43813,7.43813,0,0,1,499.08789,677Z" fill="#ded66f"/><path d="M509.80664,672.47852a5.79563,5.79563,0,0,1,5.88672-6.17383,5.06053,5.06053,0,0,1,3.44531,1.3164l-1.33984,1.79493a2.873,2.873,0,0,0-1.96289-.86133c-1.88965,0-3.20508,1.55469-3.20508,3.92383,0,2.34375,1.291,3.89941,3.13379,3.89941a3.9163,3.9163,0,0,0,2.417-1.00488l1.124,1.81836a5.86638,5.86638,0,0,1-3.82812,1.43554C512.27148,678.627,509.80664,676.37793,509.80664,672.47852Z" fill="#ded66f"/><path d="M521.31543,662.97949a1.70531,1.70531,0,1,1,1.69824,1.55567A1.57977,1.57977,0,0,1,521.31543,662.97949Zm.31152,3.61231h2.751v11.748h-2.751Z" fill="#ded66f"/><path d="M527.89453,675.3252v-13.877h2.75195v14.02051c0,.66992.31055.90918.59766.90918a1.65478,1.65478,0,0,0,.43164-.04785l.3584,2.05762a3.75776,3.75776,0,0,1-1.46.23925C528.61328,678.627,527.89453,677.35938,527.89453,675.3252Z" fill="#ded66f"/><path d="M534.37891,675.3252v-13.877h2.75195v14.02051c0,.66992.31055.90918.59766.90918a1.65482,1.65482,0,0,0,.43164-.04785l.35839,2.05762a3.75772,3.75772,0,0,1-1.46.23925C535.09766,678.627,534.37891,677.35938,534.37891,675.3252Z" fill="#ded66f"/><path d="M540.24219,675.18164c0-2.51172,2.08105-3.82812,6.91406-4.35449-.04785-1.24414-.55078-2.29688-2.15332-2.29688a6.69324,6.69324,0,0,0-3.30176,1.14844l-1.00488-1.84277a9.198,9.198,0,0,1,4.833-1.53125c2.91894,0,4.3789,1.79492,4.3789,5.07226v6.96289h-2.27343l-.19141-1.292h-.0957a5.71664,5.71664,0,0,1-3.63672,1.5791A3.28366,3.28366,0,0,1,540.24219,675.18164Zm6.91406,0V672.5498c-3.20605.40723-4.25879,1.24415-4.25879,2.417,0,1.05273.71777,1.50683,1.69824,1.50683A3.73484,3.73484,0,0,0,547.15625,675.18164Z" fill="#ded66f"/><path d="M553.2334,674.36816v-5.59863h-1.67481v-2.05762l1.81836-.12011.335-3.20508h2.29688v3.20508H559v2.17773h-2.99121v5.59863c0,1.3877.52637,2.05762,1.65137,2.05762a3.34792,3.34792,0,0,0,1.21972-.26367l.47852,2.03418a7.49014,7.49014,0,0,1-2.39258.43066C554.23828,678.627,553.2334,676.9043,553.2334,674.36816Z" fill="#ded66f"/><path d="M560.31641,672.47852c0-3.92383,2.65527-6.17383,5.57421-6.17383,2.94336,0,5.59864,2.25,5.59864,6.17383,0,3.89941-2.65528,6.14843-5.59864,6.14843C562.97168,678.627,560.31641,676.37793,560.31641,672.47852Zm8.34961,0c0-2.36914-1.05274-3.92383-2.7754-3.92383s-2.75195,1.55469-2.75195,3.92383c0,2.34375,1.0293,3.89941,2.75195,3.89941S568.666,674.82227,568.666,672.47852Z" fill="#ded66f"/><path d="M574.2168,666.5918h2.27343l.19141,2.082h.0957a3.9928,3.9928,0,0,1,3.32618-2.36914,2.9801,2.9801,0,0,1,1.33984.24023l-.47852,2.39258a3.83374,3.83374,0,0,0-1.2207-.19141c-.93359,0-2.05762.64551-2.77539,2.416v7.17773H574.2168Z" fill="#ded66f"/><path d="M588.166,662.69238h5c3.23046,0,5.59863.98145,5.59863,3.85254a3.52662,3.52662,0,0,1-2.17676,3.39649v.0957a3.57375,3.57375,0,0,1,2.99023,3.709c0,3.13477-2.56054,4.59375-6.00585,4.59375H588.166Zm4.76074,6.46c2.17676,0,3.11035-.86132,3.11035-2.20117,0-1.53125-1.0293-2.10547-3.0625-2.10547h-2.0332v4.30664Zm.3584,7.03418c2.29687,0,3.58984-.83691,3.58984-2.584,0-1.65137-1.24414-2.36816-3.58984-2.36816h-2.34375v4.95214Z" fill="#ded66f"/><path d="M496.15723,504.55273l1.62695-1.89062a6.22271,6.22271,0,0,0,4.06738,1.77148c1.77051,0,2.72754-.79,2.72754-2.00976,0-1.293-1.00488-1.69922-2.417-2.29688l-2.15234-.93359a4.51,4.51,0,0,1-3.15821-4.16309c0-2.48828,2.20117-4.40234,5.26367-4.40234a6.90862,6.90862,0,0,1,4.8086,1.98535l-1.41211,1.77149a5.092,5.092,0,0,0-3.39649-1.33985c-1.48437,0-2.46484.69336-2.46484,1.8418,0,1.2207,1.19629,1.6748,2.48828,2.20117l2.12891.88477c1.84277.79,3.1582,1.96289,3.1582,4.23535,0,2.53613-2.10547,4.6416-5.62207,4.6416A8.10765,8.10765,0,0,1,496.15723,504.55273Z" fill="#ded66f"/><path d="M510.03516,489.6709h2.751v4.35449l-.0957,2.27344a5.38585,5.38585,0,0,1,3.75684-1.77149c2.51171,0,3.6123,1.69922,3.6123,4.666v7.36914h-2.751v-7.00977c0-1.93847-.55078-2.65625-1.84277-2.65625-1.02832,0-1.69824.502-2.67969,1.459v8.207h-2.751Z" fill="#ded66f"/><path d="M522.76367,503.4043c0-2.51172,2.08106-3.82813,6.91406-4.3545-.04785-1.24414-.55078-2.29687-2.15332-2.29687a6.69321,6.69321,0,0,0-3.30175,1.14844l-1.00489-1.84278a9.19807,9.19807,0,0,1,4.833-1.53125c2.91895,0,4.37891,1.79493,4.37891,5.07227v6.96289h-2.27344l-.19141-1.292h-.0957a5.71659,5.71659,0,0,1-3.63672,1.5791A3.28366,3.28366,0,0,1,522.76367,503.4043Zm6.91406,0v-2.63184c-3.20605.40723-4.25878,1.24414-4.25878,2.417,0,1.05274.71777,1.50684,1.69824,1.50684A3.73484,3.73484,0,0,0,529.67773,503.4043Z" fill="#ded66f"/><path d="M535.73242,494.81445h2.27246l.19141,1.24414h.0957a5.73218,5.73218,0,0,1,3.541-1.53125c2.91894,0,4.61816,2.34571,4.61816,5.98243,0,4.01953-2.417,6.33984-5.02539,6.33984a4.75051,4.75051,0,0,1-3.01367-1.292l.07129,1.96191v3.68457h-2.751Zm7.8711,5.71875c0-2.34472-.76563-3.73242-2.53614-3.73242a3.75179,3.75179,0,0,0-2.584,1.31641v5.47851a3.7142,3.7142,0,0,0,2.36816.98047C542.40723,504.57617,543.60352,503.18945,543.60352,500.5332Z" fill="#ded66f"/><path d="M548.46094,500.70117c0-3.82812,2.65527-6.17383,5.40625-6.17383,3.18261,0,4.85742,2.29688,4.85742,5.5752a6.44976,6.44976,0,0,1-.11914,1.33984h-7.46485a3.362,3.362,0,0,0,3.46876,3.27832,4.91152,4.91152,0,0,0,2.72753-.86132l.93262,1.72265a7.4124,7.4124,0,0,1-4.01953,1.26758C550.99609,506.84961,548.46094,504.57617,548.46094,500.70117Zm7.87109-1.125c0-1.81836-.78906-2.91894-2.39258-2.91894-1.38769,0-2.584,1.02832-2.82324,2.91894Z" fill="#ded66f"/><path d="M561.35742,494.81445h2.27246l.19141,2.082h.0957a3.99028,3.99028,0,0,1,3.3252-2.36914,2.97456,2.97456,0,0,1,1.33984.24024l-.47851,2.39258a3.81862,3.81862,0,0,0-1.21973-.19141c-.93262,0-2.05762.64551-2.77539,2.416v7.17773h-2.751Z" fill="#ded66f"/><path d="M575.30469,490.915h5.001c3.2295,0,5.59864.98144,5.59864,3.85254a3.526,3.526,0,0,1-2.17774,3.39648v.09571a3.57452,3.57452,0,0,1,2.99121,3.709c0,3.13477-2.55957,4.59375-6.00488,4.59375h-5.4082Zm4.76172,6.46c2.17773,0,3.11035-.86133,3.11035-2.20117,0-1.53125-1.02832-2.10547-3.0625-2.10547h-2.03418V497.375Zm.35937,7.03418c2.29688,0,3.58789-.83691,3.58789-2.584,0-1.65137-1.24414-2.36817-3.58789-2.36817h-2.3457v4.95215Z" fill="#ded66f"/></svg>