<svg xmlns="http://www.w3.org/2000/svg" xmlns:xlink="http://www.w3.org/1999/xlink" viewBox="0 0 270 214"><defs><linearGradient id="a" x1="34.54181" y1="30.80756" x2="34.54181" y2="40.14318" gradientUnits="userSpaceOnUse"><stop offset="0" stop-color="#e6e6e6"/><stop offset="0.1144" stop-color="#e0e0e0"/><stop offset="0.27295" stop-color="#cecece"/><stop offset="0.45731" stop-color="#b0b0b0"/><stop offset="0.66114" stop-color="#878787"/><stop offset="0.87829" stop-color="#535353"/><stop offset="1" stop-color="#333"/></linearGradient><linearGradient id="b" x1="77.48568" y1="30.80756" x2="77.48568" y2="40.14318" xlink:href="#a"/><linearGradient id="c" x1="118.56243" y1="30.80756" x2="118.56243" y2="40.14318" xlink:href="#a"/><linearGradient id="d" x1="161.5063" y1="30.80756" x2="161.5063" y2="40.14318" xlink:href="#a"/><linearGradient id="e" x1="202.58942" y1="30.80756" x2="202.58942" y2="40.14318" xlink:href="#a"/><linearGradient id="f" x1="245.52692" y1="30.80756" x2="245.52692" y2="40.14318" xlink:href="#a"/><linearGradient id="g" x1="34.54181" y1="73.75143" x2="34.54181" y2="83.08706" xlink:href="#a"/><linearGradient id="h" x1="77.48568" y1="73.75143" x2="77.48568" y2="83.08706" xlink:href="#a"/><linearGradient id="i" x1="118.56243" y1="73.75143" x2="118.56243" y2="83.08706" xlink:href="#a"/><linearGradient id="j" x1="161.5063" y1="73.75143" x2="161.5063" y2="83.08706" xlink:href="#a"/><linearGradient id="k" x1="202.58942" y1="73.75143" x2="202.58942" y2="83.08706" xlink:href="#a"/><linearGradient id="l" x1="245.52692" y1="73.75143" x2="245.52692" y2="83.08706" xlink:href="#a"/><linearGradient id="m" x1="34.54181" y1="178.31042" x2="34.54181" y2="187.64605" xlink:href="#a"/><linearGradient id="n" x1="77.48568" y1="178.31042" x2="77.48568" y2="187.64605" xlink:href="#a"/><linearGradient id="o" x1="118.56243" y1="178.31042" x2="118.56243" y2="187.64605" xlink:href="#a"/><linearGradient id="p" x1="161.5063" y1="178.31042" x2="161.5063" y2="187.64605" xlink:href="#a"/><linearGradient id="q" x1="202.58942" y1="178.31042" x2="202.58942" y2="187.64605" xlink:href="#a"/><linearGradient id="r" x1="245.52692" y1="178.31042" x2="245.52692" y2="187.64605" xlink:href="#a"/><linearGradient id="s" x1="34.54181" y1="135.36655" x2="34.54181" y2="144.70218" xlink:href="#a"/><linearGradient id="t" x1="77.48568" y1="135.36655" x2="77.48568" y2="144.70218" xlink:href="#a"/><linearGradient id="u" x1="118.56243" y1="135.36655" x2="118.56243" y2="144.70218" xlink:href="#a"/><linearGradient id="v" x1="161.5063" y1="135.36655" x2="161.5063" y2="144.70218" xlink:href="#a"/><linearGradient id="w" x1="202.58942" y1="135.36655" x2="202.58942" y2="144.70218" xlink:href="#a"/><linearGradient id="x" x1="245.52692" y1="135.36655" x2="245.52692" y2="144.70218" xlink:href="#a"/></defs><title>pan_pp2</title><rect x="0.25" y="0.08984" width="269.5" height="213.5" rx="2.75" ry="2.75" fill="#1a1a1a"/><path d="M267,.34027a2.50284,2.50284,0,0,1,2.5,2.5V210.84021a2.50281,2.50281,0,0,1-2.5,2.5H3a2.50282,2.50282,0,0,1-2.5-2.5V2.84027a2.50286,2.50286,0,0,1,2.5-2.5H267m0-.5H3a3,3,0,0,0-3,3V210.84021a3,3,0,0,0,3,3H267a3,3,0,0,0,3-3V2.84027a3,3,0,0,0-3-3Z" fill="#4d4d4d"/><rect x="6.28516" y="14.68652" width="258.16309" height="39.70996" rx="1.25" ry="1.25" fill="#414141"/><path d="M263.19818,14.937a1,1,0,0,1,1,1v37.2096a1,1,0,0,1-1,1H7.53494a1,1,0,0,1-1-1V15.937a1,1,0,0,1,1-1H263.19818m0-.5H7.53494a1.50171,1.50171,0,0,0-1.5,1.5v37.2096a1.50172,1.50172,0,0,0,1.5,1.5H263.19818a1.50172,1.50172,0,0,0,1.5-1.5V15.937a1.50172,1.50172,0,0,0-1.5-1.5Z" fill="#ffa861"/><rect x="6.28516" y="57.63086" width="258.16309" height="39.70996" rx="1.25" ry="1.25" fill="#414141"/><path d="M263.19818,57.88086a1,1,0,0,1,1,1V96.09052a1,1,0,0,1-1,1H7.53494a1,1,0,0,1-1-1V58.88086a1,1,0,0,1,1-1H263.19818m0-.5H7.53494a1.50171,1.50171,0,0,0-1.5,1.5V96.09052a1.50172,1.50172,0,0,0,1.5,1.5H263.19818a1.50172,1.50172,0,0,0,1.5-1.5V58.88086a1.50172,1.50172,0,0,0-1.5-1.5Z" fill="#ffa861"/><rect x="6.28516" y="162.18945" width="258.16309" height="39.70996" rx="1.25" ry="1.25" fill="#414141"/><path d="M263.19818,162.43982a1,1,0,0,1,1,1v37.20972a1,1,0,0,1-1,1H7.53494a1,1,0,0,1-1-1V163.43982a1,1,0,0,1,1-1H263.19818m0-.5H7.53494a1.50167,1.50167,0,0,0-1.5,1.5v37.20972a1.50168,1.50168,0,0,0,1.5,1.5H263.19818a1.50168,1.50168,0,0,0,1.5-1.5V163.43982a1.50168,1.50168,0,0,0-1.5-1.5Z" fill="#ded66f"/><rect x="6.28516" y="119.24609" width="258.16309" height="39.70996" rx="1.25" ry="1.25" fill="#414141"/><path d="M263.19818,119.496a1,1,0,0,1,1,1v37.2096a1,1,0,0,1-1,1H7.53494a1,1,0,0,1-1-1V120.496a1,1,0,0,1,1-1H263.19818m0-.5H7.53494a1.50171,1.50171,0,0,0-1.5,1.5v37.2096a1.50168,1.50168,0,0,0,1.5,1.5H263.19818a1.50168,1.50168,0,0,0,1.5-1.5V120.496a1.50172,1.50172,0,0,0-1.5-1.5Z" fill="#ded66f"/><path d="M58.81442,46.96155a.93021.93021,0,1,1-.93014.93017.93124.93124,0,0,1,.93014-.93017m0-.28345a1.21366,1.21366,0,1,0,1.21366,1.21362,1.21366,1.21366,0,0,0-1.21366-1.21362Z" fill="#e6e6e6"/><path d="M15.87056,45.09442a.93021.93021,0,1,1-.93016.93024.93127.93127,0,0,1,.93016-.93024m0-.28345a1.21366,1.21366,0,1,0,1.21364,1.21369A1.21366,1.21366,0,0,0,15.87056,44.811Z" fill="#e6e6e6"/><path d="M15.87056,48.82867a.93021.93021,0,1,1-.93016.93018.93126.93126,0,0,1,.93016-.93018m0-.28344a1.21365,1.21365,0,1,0,1.21364,1.21362,1.21364,1.21364,0,0,0-1.21364-1.21362Z" fill="#e6e6e6"/><path d="M142.83505,45.09442a.93021.93021,0,1,1-.93014.93024.93125.93125,0,0,1,.93014-.93024m0-.28345a1.21366,1.21366,0,1,0,1.21363,1.21369,1.21367,1.21367,0,0,0-1.21363-1.21369Z" fill="#e6e6e6"/><path d="M142.83505,48.82867a.93021.93021,0,1,1-.93014.93018.93124.93124,0,0,1,.93014-.93018m0-.28344a1.21365,1.21365,0,1,0,1.21363,1.21362,1.21364,1.21364,0,0,0-1.21363-1.21362Z" fill="#e6e6e6"/><path d="M183.9118,45.09442a.93021.93021,0,1,1-.93014.93024.93125.93125,0,0,1,.93014-.93024m0-.28345a1.21366,1.21366,0,1,0,1.21363,1.21369A1.21365,1.21365,0,0,0,183.9118,44.811Z" fill="#e6e6e6"/><path d="M183.9118,48.82867a.93021.93021,0,1,1-.93014.93018.93124.93124,0,0,1,.93014-.93018m0-.28344a1.21365,1.21365,0,1,0,1.21363,1.21362,1.21363,1.21363,0,0,0-1.21363-1.21362Z" fill="#e6e6e6"/><path d="M226.85568,45.09442a.93021.93021,0,1,1-.93017.93024.93125.93125,0,0,1,.93017-.93024m0-.28345a1.21366,1.21366,0,1,0,1.21363,1.21369,1.21367,1.21367,0,0,0-1.21363-1.21369Z" fill="#e6e6e6"/><path d="M226.85568,48.82867a.93021.93021,0,1,1-.93017.93018.93124.93124,0,0,1,.93017-.93018m0-.28344a1.21365,1.21365,0,1,0,1.21363,1.21362,1.21365,1.21365,0,0,0-1.21363-1.21362Z" fill="#e6e6e6"/><path d="M183.9118,89.90546a.93018.93018,0,1,1-.93014.93017.93123.93123,0,0,1,.93014-.93017m0-.28345a1.21363,1.21363,0,1,0,1.21363,1.21362A1.21359,1.21359,0,0,0,183.9118,89.622Z" fill="#e6e6e6"/><path d="M15.87056,89.90546a.93018.93018,0,1,1-.93016.93017.93125.93125,0,0,1,.93016-.93017m0-.28345a1.21363,1.21363,0,1,0,1.21364,1.21362A1.2136,1.2136,0,0,0,15.87056,89.622Z" fill="#e6e6e6"/><path d="M58.81442,194.46448a.93018.93018,0,1,1-.93014.93017.9312.9312,0,0,1,.93014-.93017m0-.28345a1.21363,1.21363,0,1,0,1.21366,1.21362,1.21362,1.21362,0,0,0-1.21366-1.21362Z" fill="#e6e6e6"/><path d="M15.87056,192.59729a.93018.93018,0,1,1-.93016.93018.93122.93122,0,0,1,.93016-.93018m0-.28345a1.21363,1.21363,0,1,0,1.21364,1.21363,1.21361,1.21361,0,0,0-1.21364-1.21363Z" fill="#e6e6e6"/><path d="M15.87056,196.33154a.93018.93018,0,1,1-.93016.93018.93122.93122,0,0,1,.93016-.93018m0-.28344a1.21362,1.21362,0,1,0,1.21364,1.21362,1.2136,1.2136,0,0,0-1.21364-1.21362Z" fill="#e6e6e6"/><path d="M142.83505,192.59729a.93018.93018,0,1,1-.93014.93018.9312.9312,0,0,1,.93014-.93018m0-.28345a1.21363,1.21363,0,1,0,1.21363,1.21363,1.21361,1.21361,0,0,0-1.21363-1.21363Z" fill="#e6e6e6"/><path d="M142.83505,196.33154a.93018.93018,0,1,1-.93014.93018.9312.9312,0,0,1,.93014-.93018m0-.28344a1.21362,1.21362,0,1,0,1.21363,1.21362,1.21361,1.21361,0,0,0-1.21363-1.21362Z" fill="#e6e6e6"/><path d="M183.9118,192.59729a.93018.93018,0,1,1-.93014.93018.9312.9312,0,0,1,.93014-.93018m0-.28345a1.21363,1.21363,0,1,0,1.21363,1.21363,1.2136,1.2136,0,0,0-1.21363-1.21363Z" fill="#e6e6e6"/><path d="M183.9118,196.33154a.93018.93018,0,1,1-.93014.93018.9312.9312,0,0,1,.93014-.93018m0-.28344a1.21362,1.21362,0,1,0,1.21363,1.21362,1.21359,1.21359,0,0,0-1.21363-1.21362Z" fill="#e6e6e6"/><path d="M226.85568,192.59729a.93018.93018,0,1,1-.93017.93018.9312.9312,0,0,1,.93017-.93018m0-.28345a1.21363,1.21363,0,1,0,1.21363,1.21363,1.21362,1.21362,0,0,0-1.21363-1.21363Z" fill="#e6e6e6"/><path d="M226.85568,196.33154a.93018.93018,0,1,1-.93017.93018.9312.9312,0,0,1,.93017-.93018m0-.28344a1.21362,1.21362,0,1,0,1.21363,1.21362,1.21361,1.21361,0,0,0-1.21363-1.21362Z" fill="#e6e6e6"/><path d="M183.9118,151.52051a.93024.93024,0,1,1-.93014.93017.93119.93119,0,0,1,.93014-.93017m0-.28345a1.21369,1.21369,0,1,0,1.21363,1.21362,1.21368,1.21368,0,0,0-1.21363-1.21362Z" fill="#e6e6e6"/><path d="M15.87056,151.52051a.93024.93024,0,1,1-.93016.93017.93121.93121,0,0,1,.93016-.93017m0-.28345a1.21369,1.21369,0,1,0,1.21364,1.21362,1.21368,1.21368,0,0,0-1.21364-1.21362Z" fill="#e6e6e6"/><circle cx="58.81443" cy="35.39267" r="2.80069" fill="#b3b3b3" stroke="#252525" stroke-miterlimit="10" stroke-width="0.3"/><circle cx="99.89118" cy="35.39267" r="2.80069" fill="#b3b3b3" stroke="#252525" stroke-miterlimit="10" stroke-width="0.3"/><circle cx="142.83505" cy="35.39267" r="2.80069" fill="#b3b3b3" stroke="#252525" stroke-miterlimit="10" stroke-width="0.3"/><circle cx="183.9118" cy="35.39267" r="2.80069" fill="#b3b3b3" stroke="#252525" stroke-miterlimit="10" stroke-width="0.3"/><circle cx="226.85567" cy="35.39267" r="2.80069" fill="#b3b3b3" stroke="#252525" stroke-miterlimit="10" stroke-width="0.3"/><circle cx="58.81443" cy="78.33655" r="2.80069" fill="#b3b3b3" stroke="#252525" stroke-miterlimit="10" stroke-width="0.3"/><circle cx="99.89118" cy="78.33655" r="2.80069" fill="#b3b3b3" stroke="#252525" stroke-miterlimit="10" stroke-width="0.3"/><circle cx="142.83505" cy="78.33655" r="2.80069" fill="#b3b3b3" stroke="#252525" stroke-miterlimit="10" stroke-width="0.3"/><circle cx="183.9118" cy="78.33655" r="2.80069" fill="#b3b3b3" stroke="#252525" stroke-miterlimit="10" stroke-width="0.3"/><circle cx="226.85567" cy="78.33655" r="2.80069" fill="#b3b3b3" stroke="#252525" stroke-miterlimit="10" stroke-width="0.3"/><circle cx="15.87056" cy="182.97824" r="2.80069" fill="#b3b3b3" stroke="#252525" stroke-miterlimit="10" stroke-width="0.3"/><circle cx="58.81443" cy="182.89554" r="2.80069" fill="#b3b3b3" stroke="#252525" stroke-miterlimit="10" stroke-width="0.3"/><circle cx="99.89118" cy="182.89554" r="2.80069" fill="#b3b3b3" stroke="#252525" stroke-miterlimit="10" stroke-width="0.3"/><circle cx="142.83505" cy="182.89554" r="2.80069" fill="#b3b3b3" stroke="#252525" stroke-miterlimit="10" stroke-width="0.3"/><circle cx="183.9118" cy="182.89554" r="2.80069" fill="#b3b3b3" stroke="#252525" stroke-miterlimit="10" stroke-width="0.3"/><circle cx="226.85567" cy="182.89554" r="2.80069" fill="#b3b3b3" stroke="#252525" stroke-miterlimit="10" stroke-width="0.3"/><circle cx="15.87056" cy="140.03436" r="2.80069" fill="#b3b3b3" stroke="#252525" stroke-miterlimit="10" stroke-width="0.3"/><circle cx="58.81443" cy="139.95167" r="2.80069" fill="#b3b3b3" stroke="#252525" stroke-miterlimit="10" stroke-width="0.3"/><circle cx="99.89118" cy="139.95167" r="2.80069" fill="#b3b3b3" stroke="#252525" stroke-miterlimit="10" stroke-width="0.3"/><circle cx="142.83505" cy="139.95167" r="2.80069" fill="#b3b3b3" stroke="#252525" stroke-miterlimit="10" stroke-width="0.3"/><circle cx="183.9118" cy="139.95167" r="2.80069" fill="#b3b3b3" stroke="#252525" stroke-miterlimit="10" stroke-width="0.3"/><circle cx="226.85567" cy="139.95167" r="2.80069" fill="#b3b3b3" stroke="#252525" stroke-miterlimit="10" stroke-width="0.3"/><circle cx="15.87056" cy="78.41924" r="2.80069" fill="#b3b3b3" stroke="#252525" stroke-miterlimit="10" stroke-width="0.3"/><circle cx="15.87056" cy="35.47537" r="2.80069" fill="#b3b3b3" stroke="#252525" stroke-miterlimit="10" stroke-width="0.3"/><path d="M28.43945,46.05664h1.23194c.86718,0,1.51367.29883,1.51367,1.208,0,.86719-.64649,1.26758-1.48975,1.26758h-.562v1.43554h-.69385Zm1.20215,1.91992c.58008,0,.86133-.2334.86133-.71191,0-.49024-.30518-.65235-.88525-.65235H29.1333v1.36426Z" fill="#e6e6e6"/><path d="M31.7832,46.12793a.42622.42622,0,1,1,.42481.38867A.39456.39456,0,0,1,31.7832,46.12793Zm.07764.90332h.688v2.93652h-.688Z" fill="#e6e6e6"/><path d="M33.52979,48.97559V47.5752h-.41895v-.51368l.45459-.03027.0835-.80176h.57421v.80176h.748v.544h-.748v1.40039c0,.34668.13184.51367.41309.51367a.83444.83444,0,0,0,.30469-.06543l.12012.50879a1.883,1.883,0,0,1-.59864.10742C33.78076,50.04,33.52979,49.60938,33.52979,48.97559Z" fill="#e6e6e6"/><path d="M35.2998,48.50293a1.449,1.449,0,0,1,1.47168-1.544,1.26558,1.26558,0,0,1,.86133.32911l-.335.44921a.71889.71889,0,0,0-.49072-.21582c-.47266,0-.80127.38868-.80127.98145,0,.58594.32275.97461.78369.97461a.9787.9787,0,0,0,.604-.251l.28077.4541a1.46668,1.46668,0,0,1-.957.35938A1.39743,1.39743,0,0,1,35.2998,48.50293Z" fill="#e6e6e6"/><path d="M38.25488,45.74512h.688V46.834l-.02392.56836a1.34683,1.34683,0,0,1,.939-.44336c.62793,0,.90332.42481.90332,1.167v1.84179h-.688v-1.752c0-.48437-.1372-.66406-.46045-.66406a.92925.92925,0,0,0-.66992.36426v2.05175h-.688Z" fill="#e6e6e6"/><path d="M71.55371,46.05664H73.9165v.58594H72.24756V47.749H73.6709V48.335H72.24756v1.63281h-.69385Z" fill="#e6e6e6"/><path d="M74.54443,49.21484V45.74512h.688V49.25c0,.168.07764.22754.14942.22754a.42194.42194,0,0,0,.10791-.01172l.08984.51465a.95652.95652,0,0,1-.36523.05957C74.72412,50.04,74.54443,49.72266,74.54443,49.21484Z" fill="#e6e6e6"/><path d="M76.13525,48.87305v-1.8418h.688v1.75293c0,.48437.13721.66309.45459.66309.25684,0,.43067-.11915.65186-.40625V47.03125h.688v2.93652h-.5625l-.05372-.43066H77.9834a1.1961,1.1961,0,0,1-.94483.50293C76.41064,50.04,76.13525,49.61523,76.13525,48.87305Z" fill="#e6e6e6"/><path d="M79.2998,48.50293a1.449,1.449,0,0,1,1.47168-1.544,1.26558,1.26558,0,0,1,.86133.32911l-.335.44921a.71889.71889,0,0,0-.49072-.21582c-.47266,0-.80127.38868-.80127.98145,0,.58594.32275.97461.78369.97461a.9787.9787,0,0,0,.604-.251l.28077.4541a1.46668,1.46668,0,0,1-.957.35938A1.39743,1.39743,0,0,1,79.2998,48.50293Z" fill="#e6e6e6"/><path d="M82.29639,48.97559V47.5752h-.41846v-.51368l.45459-.03027.084-.80176h.57422v.80176h.74756v.544h-.74756v1.40039c0,.34668.13135.51367.4126.51367a.83927.83927,0,0,0,.30518-.06543l.11914.50879A1.87657,1.87657,0,0,1,83.23,50.04C82.54785,50.04,82.29639,49.60938,82.29639,48.97559Z" fill="#e6e6e6"/><path d="M111.30225,46.05664h1.23242c.86719,0,1.51367.29883,1.51367,1.208,0,.86719-.64648,1.26758-1.48926,1.26758h-.5625v1.43554h-.69433Zm1.20312,1.91992c.58008,0,.86133-.2334.86133-.71191,0-.49024-.30566-.65235-.88574-.65235h-.48438v1.36426Z" fill="#e6e6e6"/><path d="M114.72412,45.74512h.6875V46.834l-.02344.56836a1.3461,1.3461,0,0,1,.93946-.44336c.62793,0,.90234.42481.90234,1.167v1.84179h-.6875v-1.752c0-.48437-.13769-.66406-.46094-.66406a.93178.93178,0,0,0-.66992.36426v2.05175h-.6875Z" fill="#e6e6e6"/><path d="M117.90674,49.17871c0-.62793.52051-.957,1.72851-1.08887-.01171-.31054-.13769-.57422-.53808-.57422a1.67992,1.67992,0,0,0-.82617.28711l-.251-.46093a2.30146,2.30146,0,0,1,1.208-.38282c.73047,0,1.09472.44922,1.09472,1.26856v1.74023h-.56738l-.04883-.32226h-.02343a1.43438,1.43438,0,0,1-.90918.39453A.82066.82066,0,0,1,117.90674,49.17871Zm1.72851,0v-.6582c-.80175.10156-1.06445.31152-1.06445.60449,0,.2627.17871.377.42481.377A.935.935,0,0,0,119.63525,49.17871Z" fill="#e6e6e6"/><path d="M120.855,49.63281l.32324-.44238a1.308,1.308,0,0,0,.81348.3291c.31641,0,.4668-.14941.4668-.35254,0-.24609-.31739-.35351-.62891-.47265-.38867-.14356-.8252-.36524-.8252-.85547,0-.51465.41309-.87989,1.07129-.87989a1.58514,1.58514,0,0,1,.97461.35352l-.31738.419a1.08667,1.08667,0,0,0-.64551-.252c-.293,0-.43066.1377-.43066.32324,0,.2334.293.32325.61035.43653.40039.14941.84277.34082.84277.8916,0,.502-.40039.90918-1.14257.90918A1.85982,1.85982,0,0,1,120.855,49.63281Z" fill="#e6e6e6"/><path d="M123.53467,48.50293a1.43,1.43,0,0,1,1.35156-1.544c.7959,0,1.21484.57422,1.21484,1.39454a1.56629,1.56629,0,0,1-.03027.335h-1.86621a.84076.84076,0,0,0,.86719.81933,1.22269,1.22269,0,0,0,.68164-.21582l.2334.43067a1.8496,1.8496,0,0,1-1.00489.31738A1.416,1.416,0,0,1,123.53467,48.50293Zm1.96777-.28125c0-.45508-.19726-.72949-.59765-.72949a.73746.73746,0,0,0-.70606.72949Z" fill="#e6e6e6"/><path d="M152.53174,46.05664h1.23242c.86719,0,1.51367.29883,1.51367,1.208,0,.86719-.64648,1.26758-1.48926,1.26758h-.5625v1.43554h-.69433Zm1.20215,1.91992c.58105,0,.86132-.2334.86132-.71191,0-.49024-.30468-.65235-.88476-.65235h-.48438v1.36426Z" fill="#e6e6e6"/><path d="M156.01318,46.05664h.78418l.69336,1.91406c.084.24512.168.50782.251.76563h.02441c.084-.25781.16114-.52051.24512-.76563l.67578-1.91406h.79v3.91113h-.64062V48.17969c0-.36524.05371-.88574.08984-1.24414h-.02344l-.31738.90918-.63965,1.75879h-.41309l-.6455-1.75879-.31153-.90918h-.02343c.02929.3584.08984.8789.08984,1.24414v1.78808h-.62891Z" fill="#e6e6e6"/><path d="M161.397,49.46582l.40625-.47266a1.55842,1.55842,0,0,0,1.0166.44239c.44336,0,.68262-.19727.68262-.502,0-.32324-.251-.4248-.60449-.57421l-.53809-.2334a1.12877,1.12877,0,0,1-.79-1.041,1.19029,1.19029,0,0,1,1.31641-1.10058,1.728,1.728,0,0,1,1.20215.49609l-.35254.44336a1.27371,1.27371,0,0,0-.84961-.335c-.37109,0-.61621.17285-.61621.46,0,.30566.29883.41894.62207.55078l.53223.2207a1.09631,1.09631,0,0,1,.79,1.05957A1.24365,1.24365,0,0,1,162.80811,50.04,2.0266,2.0266,0,0,1,161.397,49.46582Z" fill="#e6e6e6"/><path d="M164.67432,48.50293a1.43,1.43,0,0,1,1.35156-1.544c.7959,0,1.21484.57422,1.21484,1.39454a1.63292,1.63292,0,0,1-.03027.335h-1.86621a.84076.84076,0,0,0,.86719.81933,1.23059,1.23059,0,0,0,.68261-.21582l.23242.43067a1.85216,1.85216,0,0,1-1.00488.31738A1.416,1.416,0,0,1,164.67432,48.50293Zm1.96777-.28125c0-.45508-.19727-.72949-.59766-.72949a.7368.7368,0,0,0-.70605.72949Z" fill="#e6e6e6"/><path d="M167.89893,49.21484V45.74512h.68847V49.25c0,.168.07715.22754.14942.22754a.42056.42056,0,0,0,.10742-.01172l.08984.51465a.95836.95836,0,0,1-.36523.05957C168.07861,50.04,167.89893,49.72266,167.89893,49.21484Z" fill="#e6e6e6"/><path d="M169.64014,47.5752h-.39551v-.51368l.39551-.03027v-.30469c0-.61035.28125-1.05273.97461-1.05273a1.49049,1.49049,0,0,1,.53808.10156l-.13183.51367a.80641.80641,0,0,0-.32227-.07129c-.23926,0-.37109.15528-.37109.4961v.31738h.57422v.544h-.57422v2.39257h-.6875Z" fill="#e6e6e6"/><path d="M196.73291,46.05664h1.23242c.86719,0,1.51367.29883,1.51367,1.208,0,.86719-.64648,1.26758-1.48925,1.26758h-.5625v1.43554h-.69434Zm1.20215,1.91992c.58105,0,.86133-.2334.86133-.71191,0-.49024-.30469-.65235-.88477-.65235h-.48437v1.36426Z" fill="#e6e6e6"/><path d="M200.21436,46.05664h.78418l.69335,1.91406c.084.24512.168.50782.251.76563h.02442c.084-.25781.16113-.52051.24511-.76563l.67578-1.91406h.79v3.91113h-.64062V48.17969c0-.36524.05371-.88574.08984-1.24414H203.104l-.31738.90918-.63965,1.75879h-.41308l-.64551-1.75879-.31152-.90918h-.02344c.02929.3584.08984.8789.08984,1.24414v1.78808h-.6289Z" fill="#e6e6e6"/><path d="M205.8667,46.05664h1.25c.80762,0,1.40039.24512,1.40039.96289a.8802.8802,0,0,1-.54492.84863v.02442a.89331.89331,0,0,1,.748.92676c0,.78418-.63964,1.14843-1.501,1.14843H205.8667Zm1.19043,1.61426c.54492,0,.77832-.21485.77832-.54981,0-.38281-.25781-.52636-.76563-.52636H206.561V47.6709Zm.08984,1.75879c.57422,0,.89746-.209.89746-.64551,0-.41309-.31152-.59277-.89746-.59277H206.561v1.23828Z" fill="#e6e6e6"/><path d="M238.14893,46.05664h1.23242c.86719,0,1.51367.29883,1.51367,1.208,0,.86719-.64648,1.26758-1.48926,1.26758h-.5625v1.43554h-.69433Zm1.20214,1.91992c.58106,0,.86133-.2334.86133-.71191,0-.49024-.30469-.65235-.88476-.65235h-.48438v1.36426Z" fill="#e6e6e6"/><path d="M241.63037,46.05664h.78418l.69336,1.91406c.084.24512.168.50782.251.76563h.02441c.084-.25781.16113-.52051.24512-.76563l.67578-1.91406h.79v3.91113h-.64063V48.17969c0-.36524.05371-.88574.08985-1.24414H244.52l-.31738.90918-.63965,1.75879h-.41309l-.64551-1.75879-.31152-.90918h-.02344c.0293.3584.08985.8789.08985,1.24414v1.78808h-.62891Z" fill="#e6e6e6"/><path d="M247.28271,46.05664H249.646v.58594h-1.66895V47.749h1.42383V48.335h-1.42383v1.63281h-.69434Z" fill="#e6e6e6"/><path d="M250.3335,46.05664h1.25c.80761,0,1.40039.24512,1.40039.96289a.8802.8802,0,0,1-.54493.84863v.02442a.89331.89331,0,0,1,.748.92676c0,.78418-.63965,1.14843-1.501,1.14843H250.3335Zm1.19043,1.61426c.54492,0,.77832-.21485.77832-.54981,0-.38281-.25782-.52636-.76563-.52636h-.50879V47.6709Zm.08984,1.75879c.57422,0,.89746-.209.89746-.64551,0-.41309-.31152-.59277-.89746-.59277h-.58594v1.23828Z" fill="#e6e6e6"/><path d="M28.29883,89h1.04638a1.95751,1.95751,0,0,1,.03614,3.91211H28.29883Zm.99853,3.34961c.79,0,1.23828-.44824,1.23828-1.41113,0-.957-.44824-1.376-1.23828-1.376h-.30468v2.78711Z" fill="#e6e6e6"/><path d="M31.97705,89.97461h.56836l.04785.52051h.02393a.99756.99756,0,0,1,.83154-.5918.74566.74566,0,0,1,.335.05957l-.11963.59863a.95283.95283,0,0,0-.30517-.04785c-.2334,0-.51465.16113-.69385.60352v1.79492h-.688Z" fill="#e6e6e6"/><path d="M34.13086,89.07227a.42622.42622,0,1,1,.4248.38867A.3953.3953,0,0,1,34.13086,89.07227Zm.07764.90234h.688v2.9375h-.688Z" fill="#e6e6e6"/><path d="M35.41064,89.97461h.69971L36.57715,91.5c.07764.28711.16748.58691.24512.88574h.02392c.084-.29883.16748-.59863.251-.88574l.46679-1.52539H38.228l-.999,2.9375h-.79541Z" fill="#e6e6e6"/><path d="M38.50928,91.44629a1.42908,1.42908,0,0,1,1.35205-1.543c.79541,0,1.21435.57422,1.21435,1.39356a1.58522,1.58522,0,0,1-.03027.335H39.1792a.8407.8407,0,0,0,.86719.81933,1.22568,1.22568,0,0,0,.68213-.21484l.23339.43066a1.85259,1.85259,0,0,1-1.00488.31641A1.41635,1.41635,0,0,1,38.50928,91.44629Zm1.96777-.28125c0-.4541-.19726-.72949-.59766-.72949a.73713.73713,0,0,0-.706.72949Z" fill="#e6e6e6"/><path d="M72.36719,89H74.73v.58594H73.061v1.10644h1.42334v.58692H73.061v1.63281h-.69385Z" fill="#e6e6e6"/><path d="M75.0708,91.44629a1.40314,1.40314,0,1,1,1.39356,1.53711A1.42086,1.42086,0,0,1,75.0708,91.44629Zm2.08789,0c0-.5918-.26367-.98047-.69433-.98047s-.6875.38867-.6875.98047c0,.58594.25683.97559.6875.97559S77.15869,92.03223,77.15869,91.44629Z" fill="#e6e6e6"/><path d="M78.5459,92.1582V88.68945h.688v3.50489c0,.167.07763.22754.14941.22754a.39069.39069,0,0,0,.10791-.0127l.08936.51465a.93334.93334,0,0,1-.36475.05957C78.72559,92.9834,78.5459,92.667,78.5459,92.1582Z" fill="#e6e6e6"/><path d="M79.98779,91.44629a1.38351,1.38351,0,0,1,1.24414-1.543,1.08526,1.08526,0,0,1,.77149.32324l-.02393-.47265V88.68945h.688v4.22266h-.56836l-.04785-.31738h-.02393a1.22116,1.22116,0,0,1-.83154.38867C80.46045,92.9834,79.98779,92.415,79.98779,91.44629Zm1.9917.64062V90.7168a.87491.87491,0,0,0-.59814-.24512c-.377,0-.68164.35254-.68164.96875,0,.63379.23925.97461.66357.97461A.79356.79356,0,0,0,81.97949,92.08691Z" fill="#e6e6e6"/><path d="M112.812,89h.81348l1.27441,3.91211h-.72949l-.30566-1.05859h-1.31543l-.30567,1.05859h-.70508Zm-.10156,2.30859h.999l-.13769-.47851c-.125-.41211-.23926-.86133-.35254-1.292h-.02442c-.10742.43652-.2207.87988-.34668,1.292Z" fill="#e6e6e6"/><path d="M115.13916,92.57715l.32324-.44238a1.30447,1.30447,0,0,0,.81348.32812c.31641,0,.46582-.14941.46582-.35254,0-.24512-.31641-.35254-.62793-.47265-.38867-.14356-.8252-.36426-.8252-.85547,0-.51368.41309-.87891,1.07032-.87891a1.58532,1.58532,0,0,1,.97558.35254l-.31738.41894a1.09171,1.09171,0,0,0-.64551-.251c-.293,0-.43066.13769-.43066.32324,0,.23242.293.32227.60937.43652.40137.14942.84375.34082.84375.89063,0,.50293-.40039.90918-1.14258.90918A1.85892,1.85892,0,0,1,115.13916,92.57715Z" fill="#e6e6e6"/><path d="M117.82471,94.06055l.126-.53809a.7348.7348,0,0,0,.209.041.61455.61455,0,0,0,.58594-.502l.05468-.18554L117.646,89.97461h.69921L118.854,91.417c.083.25684.167.54981.25684.8252h.02441c.07129-.26953.14942-.5625.22071-.8252l.44238-1.44238h.66406L119.398,93.044c-.24512.66308-.54981,1.07617-1.19043,1.07617A1.14111,1.14111,0,0,1,117.82471,94.06055Z" fill="#e6e6e6"/><path d="M120.97119,89.97461h.56836l.04785.40137h.02344a1.24314,1.24314,0,0,1,.89746-.47266.79875.79875,0,0,1,.81348.52637,1.33494,1.33494,0,0,1,.94531-.52637c.62207,0,.90918.4248.90918,1.166v1.84277h-.69434V91.15918c0-.48438-.14257-.66406-.44824-.66406a.91461.91461,0,0,0-.61621.36523v2.05176H122.73V91.15918c0-.48438-.14355-.66406-.45508-.66406a.92489.92489,0,0,0-.61523.36523v2.05176h-.68848Z" fill="#e6e6e6"/><path d="M157.55322,89h.78418l.69336,1.91406c.084.24512.168.50879.252.76563h.02344c.084-.25684.16114-.52051.24512-.76563L160.22705,89h.79v3.91211h-.64063V91.12305c0-.36426.05469-.88477.08985-1.24414h-.02344l-.31738.90918-.63965,1.75879h-.41309l-.6455-1.75879-.31153-.90918h-.02343c.02929.35937.08886.87988.08886,1.24414v1.78906h-.62793Z" fill="#e6e6e6"/><path d="M161.87256,89.07227a.42595.42595,0,1,1,.42383.38867A.39474.39474,0,0,1,161.87256,89.07227Zm.07715.90234h.68847v2.9375h-.68847Z" fill="#e6e6e6"/><path d="M164.09717,91.38086l-.87305-1.40625h.74219l.32812.55664c.084.16113.17969.335.26953.49609h.02344c.07227-.16113.15625-.335.22754-.49609l.28125-.55664h.71192l-.86719,1.4834.93262,1.4541h-.74122L164.773,92.332c-.0957-.17383-.19727-.35351-.29883-.52051h-.02344c-.084.167-.17382.34082-.25781.52051l-.31055.58008h-.71777Z" fill="#e6e6e6"/><path d="M194.72607,89h2.36329v.58594h-1.66895v1.10644h1.42383v.58692h-1.42383v1.63281h-.69434Z" fill="#e6e6e6"/><path d="M197.77686,89h1.25c.80761,0,1.40039.24512,1.40039.96289a.88153.88153,0,0,1-.54493.84961v.02344a.89433.89433,0,0,1,.74805.92773c0,.78321-.63965,1.14844-1.501,1.14844h-1.35253Zm1.19043,1.61523c.54492,0,.77832-.21582.77832-.55078,0-.38281-.25782-.52636-.76563-.52636h-.50879v1.07714Zm.08984,1.75879c.57422,0,.89746-.21.89746-.64648,0-.41309-.31152-.5918-.89746-.5918h-.58594V92.374Z" fill="#e6e6e6"/><path d="M202.54346,89h.78418l.69336,1.91406c.084.24512.168.50879.252.76563h.02344c.084-.25684.16113-.52051.24511-.76563L205.21729,89h.79v3.91211h-.64062V91.12305c0-.36426.05469-.88477.08984-1.24414h-.02343l-.31739.90918-.63965,1.75879H204.063l-.64551-1.75879-.31152-.90918h-.02344c.0293.35937.08887.87988.08887,1.24414v1.78906h-.62793Z" fill="#e6e6e6"/><path d="M206.86279,89.07227a.42648.42648,0,1,1,.42481.38867A.39558.39558,0,0,1,206.86279,89.07227Zm.07813.90234h.6875v2.9375h-.6875Z" fill="#e6e6e6"/><path d="M209.0874,91.38086l-.873-1.40625h.74218l.32813.55664c.084.16113.17969.335.26953.49609h.02344c.07226-.16113.15625-.335.22754-.49609l.28125-.55664h.71191l-.86719,1.4834.93262,1.4541h-.74121l-.35938-.58008c-.0957-.17383-.19726-.35351-.29882-.52051h-.02344c-.084.167-.17383.34082-.25781.52051l-.31055.58008h-.71777Z" fill="#e6e6e6"/><path d="M234.0874,89h1.32227c.81347,0,1.43554.28711,1.43554,1.16016a1.09525,1.09525,0,0,1-.77734,1.11914l.93262,1.63281h-.77735l-.84375-1.53125h-.59765v1.53125h-.69434Zm1.25,1.83008c.53321,0,.82617-.22656.82617-.66992,0-.44825-.293-.60352-.82617-.60352h-.55566v1.27344Z" fill="#e6e6e6"/><path d="M237.4917,89.07227a.42595.42595,0,1,1,.42383.38867A.39474.39474,0,0,1,237.4917,89.07227Zm.07715.90234h.68847v2.9375h-.68847Z" fill="#e6e6e6"/><path d="M239.13623,89.97461h.56836l.04785.39551h.02442a1.3597,1.3597,0,0,1,.96289-.4668c.62793,0,.90234.4248.90234,1.166v1.84277h-.6875V91.15918c0-.48438-.1377-.66406-.46094-.66406a.93329.93329,0,0,0-.66992.36523v2.05176h-.6875Z" fill="#e6e6e6"/><path d="M242.28857,93.44434a.75568.75568,0,0,1,.41895-.62793V92.792a.55239.55239,0,0,1-.26367-.49023.70544.70544,0,0,1,.32324-.54395V91.7334a.99193.99193,0,0,1-.38281-.77735,1.066,1.066,0,0,1,1.16015-1.05273,1.34157,1.34157,0,0,1,.43067.07129h1.05273v.50879h-.53808a.78348.78348,0,0,1,.168.49609.99661.99661,0,0,1-1.11328.999,1.08591,1.08591,0,0,1-.40039-.07715.33646.33646,0,0,0-.14355.28125c0,.167.11914.26855.47851.26855h.52051c.70508,0,1.07617.21582,1.07617.72363,0,.58008-.60937,1.03516-1.5664,1.03516C242.80908,94.21,242.28857,93.959,242.28857,93.44434Zm2.12305-.15528c0-.22754-.18555-.293-.51953-.293h-.40137a1.57847,1.57847,0,0,1-.40039-.042.49394.49394,0,0,0-.22754.38867c0,.2627.28711.41895.75391.41895C244.08936,93.76172,244.41162,93.54,244.41162,93.28906Zm-.3584-2.333a.51532.51532,0,1,0-1.02246,0,.51672.51672,0,1,0,1.02246,0Z" fill="#e6e6e6"/><path d="M246.85205,89h.78418l.69336,1.91406c.084.24512.168.50879.25195.76563h.02344c.084-.25684.16113-.52051.24512-.76563L249.52588,89h.79v3.91211h-.64063V91.12305c0-.36426.05469-.88477.08985-1.24414h-.02344l-.31738.90918-.63965,1.75879h-.41309l-.64551-1.75879-.31152-.90918h-.02344c.0293.35937.08887.87988.08887,1.24414v1.78906h-.62793Z" fill="#e6e6e6"/><path d="M251.05713,91.44629a1.40336,1.40336,0,1,1,1.39355,1.53711A1.42086,1.42086,0,0,1,251.05713,91.44629Zm2.08789,0c0-.5918-.26367-.98047-.69434-.98047s-.6875.38867-.6875.98047c0,.58594.25684.97559.6875.97559S253.145,92.03223,253.145,91.44629Z" fill="#e6e6e6"/><path d="M254.353,91.44629a1.38382,1.38382,0,0,1,1.24414-1.543,1.08351,1.08351,0,0,1,.77148.32324l-.02344-.47265V88.68945h.6875v4.22266h-.56835l-.04688-.31738h-.02441a1.223,1.223,0,0,1-.83106.38867C254.82568,92.9834,254.353,92.415,254.353,91.44629Zm1.99218.64062V90.7168a.873.873,0,0,0-.59765-.24512c-.37695,0-.68262.35254-.68262.96875,0,.63379.23926.97461.66406.97461A.79356.79356,0,0,0,256.34521,92.08691Z" fill="#e6e6e6"/><path d="M28.43945,193.55957h1.23194c.86718,0,1.51367.29883,1.51367,1.208,0,.86719-.64649,1.26758-1.48975,1.26758h-.562v1.43554h-.69385Zm1.20215,1.91992c.58008,0,.86133-.2334.86133-.71191,0-.49024-.30518-.65235-.88525-.65235H29.1333v1.36426Z" fill="#e6e6e6"/><path d="M31.7832,193.63086a.42622.42622,0,1,1,.42481.38867A.39456.39456,0,0,1,31.7832,193.63086Zm.07764.90332h.688v2.93652h-.688Z" fill="#e6e6e6"/><path d="M33.52979,196.47852v-1.4004h-.41895v-.51367l.45459-.03027.0835-.80176h.57421v.80176h.748v.54394h-.748v1.4004c0,.34668.13184.51367.41309.51367a.83444.83444,0,0,0,.30469-.06543l.12012.50879a1.883,1.883,0,0,1-.59864.10742C33.78076,197.543,33.52979,197.1123,33.52979,196.47852Z" fill="#e6e6e6"/><path d="M35.2998,196.00586a1.449,1.449,0,0,1,1.47168-1.544,1.26558,1.26558,0,0,1,.86133.32911l-.335.44921a.71889.71889,0,0,0-.49072-.21582c-.47266,0-.80127.38868-.80127.98145,0,.58594.32275.97461.78369.97461a.9787.9787,0,0,0,.604-.251l.28077.4541a1.46668,1.46668,0,0,1-.957.35938A1.39743,1.39743,0,0,1,35.2998,196.00586Z" fill="#e6e6e6"/><path d="M38.25488,193.24805h.688v1.08886l-.02392.56836a1.34683,1.34683,0,0,1,.939-.44336c.62793,0,.90332.42481.90332,1.167v1.84179h-.688v-1.75195c0-.48437-.1372-.66406-.46045-.66406a.92925.92925,0,0,0-.66992.36426v2.05175h-.688Z" fill="#e6e6e6"/><path d="M71.55371,193.55957H73.9165v.58594H72.24756V195.252H73.6709v.58594H72.24756v1.63281h-.69385Z" fill="#e6e6e6"/><path d="M74.54443,196.71777v-3.46972h.688v3.50488c0,.168.07764.22754.14942.22754a.42194.42194,0,0,0,.10791-.01172l.08984.51465a.95652.95652,0,0,1-.36523.05957C74.72412,197.543,74.54443,197.22559,74.54443,196.71777Z" fill="#e6e6e6"/><path d="M76.13525,196.376v-1.8418h.688v1.75293c0,.48437.13721.66309.45459.66309.25684,0,.43067-.11915.65186-.40625v-2.00977h.688v2.93652h-.5625l-.05372-.43066H77.9834a1.1961,1.1961,0,0,1-.94483.50293C76.41064,197.543,76.13525,197.11816,76.13525,196.376Z" fill="#e6e6e6"/><path d="M79.2998,196.00586a1.449,1.449,0,0,1,1.47168-1.544,1.26558,1.26558,0,0,1,.86133.32911l-.335.44921a.71889.71889,0,0,0-.49072-.21582c-.47266,0-.80127.38868-.80127.98145,0,.58594.32275.97461.78369.97461a.9787.9787,0,0,0,.604-.251l.28077.4541a1.46668,1.46668,0,0,1-.957.35938A1.39743,1.39743,0,0,1,79.2998,196.00586Z" fill="#e6e6e6"/><path d="M82.29639,196.47852v-1.4004h-.41846v-.51367l.45459-.03027.084-.80176h.57422v.80176h.74756v.54394h-.74756v1.4004c0,.34668.13135.51367.4126.51367a.83927.83927,0,0,0,.30518-.06543l.11914.50879a1.87657,1.87657,0,0,1-.59766.10742C82.54785,197.543,82.29639,197.1123,82.29639,196.47852Z" fill="#e6e6e6"/><path d="M111.30225,193.55957h1.23242c.86719,0,1.51367.29883,1.51367,1.208,0,.86719-.64648,1.26758-1.48926,1.26758h-.5625v1.43554h-.69433Zm1.20312,1.91992c.58008,0,.86133-.2334.86133-.71191,0-.49024-.30566-.65235-.88574-.65235h-.48438v1.36426Z" fill="#e6e6e6"/><path d="M114.72412,193.24805h.6875v1.08886l-.02344.56836a1.3461,1.3461,0,0,1,.93946-.44336c.62793,0,.90234.42481.90234,1.167v1.84179h-.6875v-1.75195c0-.48437-.13769-.66406-.46094-.66406a.93178.93178,0,0,0-.66992.36426v2.05175h-.6875Z" fill="#e6e6e6"/><path d="M117.90674,196.68164c0-.62793.52051-.957,1.72851-1.08887-.01171-.31054-.13769-.57422-.53808-.57422a1.67992,1.67992,0,0,0-.82617.28711l-.251-.46093a2.30146,2.30146,0,0,1,1.208-.38282c.73047,0,1.09472.44922,1.09472,1.26856v1.74023h-.56738l-.04883-.32226h-.02343a1.43438,1.43438,0,0,1-.90918.39453A.82066.82066,0,0,1,117.90674,196.68164Zm1.72851,0v-.6582c-.80175.10156-1.06445.31152-1.06445.60449,0,.26269.17871.377.42481.377A.935.935,0,0,0,119.63525,196.68164Z" fill="#e6e6e6"/><path d="M120.855,197.13574l.32324-.44238a1.308,1.308,0,0,0,.81348.3291c.31641,0,.4668-.14941.4668-.35254,0-.24609-.31739-.35351-.62891-.47265-.38867-.14356-.8252-.36524-.8252-.85547,0-.51465.41309-.87989,1.07129-.87989a1.58514,1.58514,0,0,1,.97461.35352l-.31738.41895a1.08667,1.08667,0,0,0-.64551-.252c-.293,0-.43066.1377-.43066.32324,0,.2334.293.32325.61035.43653.40039.14941.84277.34082.84277.8916,0,.50195-.40039.90918-1.14257.90918A1.85982,1.85982,0,0,1,120.855,197.13574Z" fill="#e6e6e6"/><path d="M123.53467,196.00586a1.43,1.43,0,0,1,1.35156-1.544c.7959,0,1.21484.57422,1.21484,1.39454a1.56635,1.56635,0,0,1-.03027.335h-1.86621a.84076.84076,0,0,0,.86719.81933,1.22269,1.22269,0,0,0,.68164-.21582l.2334.43067a1.8496,1.8496,0,0,1-1.00489.31738A1.416,1.416,0,0,1,123.53467,196.00586Zm1.96777-.28125c0-.45508-.19726-.72949-.59765-.72949a.73746.73746,0,0,0-.70606.72949Z" fill="#e6e6e6"/><path d="M152.53174,193.55957h1.23242c.86719,0,1.51367.29883,1.51367,1.208,0,.86719-.64648,1.26758-1.48926,1.26758h-.5625v1.43554h-.69433Zm1.20215,1.91992c.58105,0,.86132-.2334.86132-.71191,0-.49024-.30468-.65235-.88476-.65235h-.48438v1.36426Z" fill="#e6e6e6"/><path d="M156.01318,193.55957h.78418l.69336,1.91406c.084.24512.168.50782.251.76563h.02441c.084-.25781.16114-.52051.24512-.76563l.67578-1.91406h.79v3.91113h-.64062v-1.78808c0-.36524.05371-.88574.08984-1.24414h-.02344l-.31738.90918-.63965,1.75879h-.41309l-.6455-1.75879-.31153-.90918h-.02343c.02929.3584.08984.8789.08984,1.24414v1.78808h-.62891Z" fill="#e6e6e6"/><path d="M161.397,196.96875l.40625-.47266a1.55842,1.55842,0,0,0,1.0166.44239c.44336,0,.68262-.19727.68262-.502,0-.32324-.251-.4248-.60449-.57422l-.53809-.23339a1.12877,1.12877,0,0,1-.79-1.041,1.1903,1.1903,0,0,1,1.31641-1.10059,1.728,1.728,0,0,1,1.20215.4961l-.35254.44336a1.27371,1.27371,0,0,0-.84961-.335c-.37109,0-.61621.17285-.61621.46,0,.30566.29883.41894.62207.55078l.53223.2207a1.09631,1.09631,0,0,1,.79,1.05957,1.24365,1.24365,0,0,1-1.40625,1.16016A2.0266,2.0266,0,0,1,161.397,196.96875Z" fill="#e6e6e6"/><path d="M164.67432,196.00586a1.43,1.43,0,0,1,1.35156-1.544c.7959,0,1.21484.57422,1.21484,1.39454a1.633,1.633,0,0,1-.03027.335h-1.86621a.84076.84076,0,0,0,.86719.81933,1.23059,1.23059,0,0,0,.68261-.21582l.23242.43067a1.85216,1.85216,0,0,1-1.00488.31738A1.416,1.416,0,0,1,164.67432,196.00586Zm1.96777-.28125c0-.45508-.19727-.72949-.59766-.72949a.7368.7368,0,0,0-.70605.72949Z" fill="#e6e6e6"/><path d="M167.89893,196.71777v-3.46972h.68847v3.50488c0,.168.07715.22754.14942.22754a.42056.42056,0,0,0,.10742-.01172l.08984.51465a.95836.95836,0,0,1-.36523.05957C168.07861,197.543,167.89893,197.22559,167.89893,196.71777Z" fill="#e6e6e6"/><path d="M169.64014,195.07812h-.39551v-.51367l.39551-.03027v-.30469c0-.61035.28125-1.05273.97461-1.05273a1.49049,1.49049,0,0,1,.53808.10156l-.13183.51367a.80641.80641,0,0,0-.32227-.07129c-.23926,0-.37109.15528-.37109.4961v.31738h.57422v.54394h-.57422v2.39258h-.6875Z" fill="#e6e6e6"/><path d="M196.8501,193.55957h1.23242c.86719,0,1.51367.29883,1.51367,1.208,0,.86719-.64648,1.26758-1.48926,1.26758h-.5625v1.43554h-.69433Zm1.20215,1.91992c.58105,0,.86132-.2334.86132-.71191,0-.49024-.30468-.65235-.88476-.65235h-.48438v1.36426Z" fill="#e6e6e6"/><path d="M200.33154,193.55957h.78418l.69336,1.91406c.084.24512.168.50782.251.76563h.02441c.084-.25781.16114-.52051.24512-.76563l.67578-1.91406h.79v3.91113h-.64062v-1.78808c0-.36524.05371-.88574.08984-1.24414h-.02344l-.31738.90918-.63965,1.75879h-.41309l-.6455-1.75879-.31153-.90918h-.02343c.02929.3584.08984.8789.08984,1.24414v1.78808h-.62891Z" fill="#e6e6e6"/><path d="M206.74951,193.55957h.81348l1.27441,3.91113h-.72949l-.30566-1.05859h-1.31543l-.30567,1.05859h-.70508Zm-.10156,2.30859h.999l-.13769-.47851c-.125-.41309-.23926-.86133-.35254-1.292h-.02442c-.10742.43652-.2207.8789-.34668,1.292Z" fill="#e6e6e6"/><path d="M238.14893,193.55957h1.23242c.86719,0,1.51367.29883,1.51367,1.208,0,.86719-.64648,1.26758-1.48926,1.26758h-.5625v1.43554h-.69433Zm1.20214,1.91992c.58106,0,.86133-.2334.86133-.71191,0-.49024-.30469-.65235-.88476-.65235h-.48438v1.36426Z" fill="#e6e6e6"/><path d="M241.63037,193.55957h.78418l.69336,1.91406c.084.24512.168.50782.251.76563h.02441c.084-.25781.16113-.52051.24512-.76563l.67578-1.91406h.79v3.91113h-.64063v-1.78808c0-.36524.05371-.88574.08985-1.24414H244.52l-.31738.90918-.63965,1.75879h-.41309l-.64551-1.75879-.31152-.90918h-.02344c.0293.3584.08985.8789.08985,1.24414v1.78808h-.62891Z" fill="#e6e6e6"/><path d="M247.28271,193.55957H249.646v.58594h-1.66895V195.252h1.42383v.58594h-1.42383v1.63281h-.69434Z" fill="#e6e6e6"/><path d="M250.3335,193.55957h1.25c.80761,0,1.40039.24512,1.40039.96289a.8802.8802,0,0,1-.54493.84863v.02442a.89331.89331,0,0,1,.748.92676c0,.78418-.63965,1.14843-1.501,1.14843H250.3335Zm1.19043,1.61426c.54492,0,.77832-.21485.77832-.54981,0-.38281-.25782-.52636-.76563-.52636h-.50879v1.07617Zm.08984,1.75879c.57422,0,.89746-.209.89746-.64551,0-.41309-.31152-.59277-.89746-.59277h-.58594v1.23828Z" fill="#e6e6e6"/><path d="M28.29883,150.61719h1.04638a1.957,1.957,0,0,1,.03614,3.91113H28.29883Zm.99853,3.34961c.79,0,1.23828-.44922,1.23828-1.41211,0-.957-.44824-1.376-1.23828-1.376h-.30468v2.78809Z" fill="#e6e6e6"/><path d="M31.97705,151.5918h.56836l.04785.5205h.02393a.99882.99882,0,0,1,.83154-.59277.74444.74444,0,0,1,.335.06055l-.11963.59765a.98076.98076,0,0,0-.30517-.04785c-.2334,0-.51465.16211-.69385.6045v1.79394h-.688Z" fill="#e6e6e6"/><path d="M34.13086,150.68848a.42622.42622,0,1,1,.4248.38867A.39455.39455,0,0,1,34.13086,150.68848Zm.07764.90332h.688v2.93652h-.688Z" fill="#e6e6e6"/><path d="M35.41064,151.5918h.69971l.4668,1.52539c.07764.28711.16748.58593.24512.88476h.02392c.084-.29883.16748-.59765.251-.88476l.46679-1.52539H38.228l-.999,2.93652h-.79541Z" fill="#e6e6e6"/><path d="M38.50928,153.06348a1.43,1.43,0,0,1,1.35205-1.54395c.79541,0,1.21435.57422,1.21435,1.39453a1.59883,1.59883,0,0,1-.03027.335H39.1792a.84136.84136,0,0,0,.86719.81934,1.22674,1.22674,0,0,0,.68213-.21582l.23339.43066a1.85339,1.85339,0,0,1-1.00488.31739A1.41635,1.41635,0,0,1,38.50928,153.06348Zm1.96777-.28125c0-.45508-.19726-.7295-.59766-.7295a.73714.73714,0,0,0-.706.7295Z" fill="#e6e6e6"/><path d="M72.36719,150.61719H74.73v.58593H73.061v1.10645h1.42334v.58594H73.061v1.63281h-.69385Z" fill="#e6e6e6"/><path d="M75.0708,153.06348a1.40314,1.40314,0,1,1,1.39356,1.53711A1.42117,1.42117,0,0,1,75.0708,153.06348Zm2.08789,0c0-.59278-.26367-.98145-.69433-.98145s-.6875.38867-.6875.98145c0,.58593.25683.97461.6875.97461S77.15869,153.64941,77.15869,153.06348Z" fill="#e6e6e6"/><path d="M78.5459,153.77539v-3.46973h.688v3.50489c0,.168.07763.22754.14941.22754a.42194.42194,0,0,0,.10791-.01172l.08936.51465a.952.952,0,0,1-.36475.05957C78.72559,154.60059,78.5459,154.2832,78.5459,153.77539Z" fill="#e6e6e6"/><path d="M79.98779,153.06348a1.38449,1.38449,0,0,1,1.24414-1.54395,1.08526,1.08526,0,0,1,.77149.32324l-.02393-.47265v-1.06446h.688v4.22266h-.56836l-.04785-.31641h-.02393a1.22536,1.22536,0,0,1-.83154.38868C80.46045,154.60059,79.98779,154.03223,79.98779,153.06348Zm1.9917.63964V152.333a.87949.87949,0,0,0-.59814-.24512c-.377,0-.68164.35352-.68164.96973,0,.63379.23925.97461.66357.97461A.792.792,0,0,0,81.97949,153.70312Z" fill="#e6e6e6"/><path d="M112.812,150.61719h.81348l1.27441,3.91113h-.72949l-.30566-1.05859h-1.31543l-.30567,1.05859h-.70508Zm-.10156,2.30859h.999l-.13769-.47851c-.125-.41309-.23926-.86133-.35254-1.292h-.02442c-.10742.43653-.2207.87891-.34668,1.292Z" fill="#e6e6e6"/><path d="M115.13916,154.19336l.32324-.44238a1.30578,1.30578,0,0,0,.81348.3291c.31641,0,.46582-.14942.46582-.35254,0-.24609-.31641-.35352-.62793-.47266-.38867-.14355-.8252-.36523-.8252-.85547,0-.51464.41309-.87988,1.07032-.87988a1.5858,1.5858,0,0,1,.97558.35352l-.31738.41894a1.08675,1.08675,0,0,0-.64551-.25195c-.293,0-.43066.13769-.43066.32324,0,.2334.293.32324.60937.43652.40137.14942.84375.34082.84375.89161,0,.502-.40039.90918-1.14258.90918A1.85982,1.85982,0,0,1,115.13916,154.19336Z" fill="#e6e6e6"/><path d="M117.82471,155.67676l.126-.53809a.734.734,0,0,0,.209.042.61448.61448,0,0,0,.58594-.50293l.05468-.18457L117.646,151.5918h.69921l.50879,1.4414c.083.25684.167.55078.25684.8252h.02441c.07129-.26856.14942-.56152.22071-.8252l.44238-1.4414h.66406l-1.06445,3.06836c-.24512.66406-.54981,1.07714-1.19043,1.07714A1.1391,1.1391,0,0,1,117.82471,155.67676Z" fill="#e6e6e6"/><path d="M120.97119,151.5918h.56836l.04785.40039h.02344a1.24657,1.24657,0,0,1,.89746-.47266.79992.79992,0,0,1,.81348.52637,1.33494,1.33494,0,0,1,.94531-.52637c.62207,0,.90918.42481.90918,1.167v1.8418h-.69434v-1.752c0-.48438-.14257-.66407-.44824-.66407a.91265.91265,0,0,0-.61621.36426v2.05176H122.73v-1.752c0-.48438-.14355-.66407-.45508-.66407a.92285.92285,0,0,0-.61523.36426v2.05176h-.68848Z" fill="#e6e6e6"/><path d="M157.55322,150.61719h.78418l.69336,1.91406c.084.24512.168.50781.252.76563h.02344c.084-.25782.16114-.52051.24512-.76563l.67578-1.91406h.79v3.91113h-.64063v-1.78809c0-.36523.05469-.88574.08985-1.24414h-.02344l-.31738.90918-.63965,1.75879h-.41309l-.6455-1.75879-.31153-.90918h-.02343c.02929.3584.08886.87891.08886,1.24414v1.78809h-.62793Z" fill="#e6e6e6"/><path d="M161.87256,150.68848a.42595.42595,0,1,1,.42383.38867A.394.394,0,0,1,161.87256,150.68848Zm.07715.90332h.68847v2.93652h-.68847Z" fill="#e6e6e6"/><path d="M164.09717,152.99707l-.87305-1.40527h.74219l.32812.55664c.084.16113.17969.335.26953.49609h.02344c.07227-.16113.15625-.335.22754-.49609l.28125-.55664h.71192l-.86719,1.4834.93262,1.45312h-.74122l-.35937-.58008c-.0957-.17285-.19727-.35254-.29883-.52051h-.02344c-.084.168-.17382.34082-.25781.52051l-.31055.58008h-.71777Z" fill="#e6e6e6"/><path d="M194.72607,150.61719h2.36329v.58593h-1.66895v1.10645h1.42383v.58594h-1.42383v1.63281h-.69434Z" fill="#e6e6e6"/><path d="M197.77686,150.61719h1.25c.80761,0,1.40039.24511,1.40039.96289a.8802.8802,0,0,1-.54493.84863v.02441a.89332.89332,0,0,1,.74805.92676c0,.78418-.63965,1.14844-1.501,1.14844h-1.35253Zm1.19043,1.61426c.54492,0,.77832-.21485.77832-.54981,0-.38281-.25782-.52637-.76563-.52637h-.50879v1.07618Zm.08984,1.75878c.57422,0,.89746-.209.89746-.6455,0-.41309-.31152-.59278-.89746-.59278h-.58594v1.23828Z" fill="#e6e6e6"/><path d="M202.54346,150.61719h.78418l.69336,1.91406c.084.24512.168.50781.252.76563h.02344c.084-.25782.16113-.52051.24511-.76563l.67579-1.91406h.79v3.91113h-.64062v-1.78809c0-.36523.05469-.88574.08984-1.24414h-.02343l-.31739.90918-.63965,1.75879H204.063l-.64551-1.75879-.31152-.90918h-.02344c.0293.3584.08887.87891.08887,1.24414v1.78809h-.62793Z" fill="#e6e6e6"/><path d="M206.86279,150.68848a.42648.42648,0,1,1,.42481.38867A.39483.39483,0,0,1,206.86279,150.68848Zm.07813.90332h.6875v2.93652h-.6875Z" fill="#e6e6e6"/><path d="M209.0874,152.99707l-.873-1.40527h.74218l.32813.55664c.084.16113.17969.335.26953.49609h.02344c.07226-.16113.15625-.335.22754-.49609l.28125-.55664h.71191l-.86719,1.4834.93262,1.45312h-.74121l-.35938-.58008c-.0957-.17285-.19726-.35254-.29882-.52051h-.02344c-.084.168-.17383.34082-.25781.52051l-.31055.58008h-.71777Z" fill="#e6e6e6"/><path d="M234.0874,150.61719h1.32227c.81347,0,1.43554.28711,1.43554,1.16015a1.09406,1.09406,0,0,1-.77734,1.11817l.93262,1.63281h-.77735l-.84375-1.53125h-.59765v1.53125h-.69434Zm1.25,1.83008c.53321,0,.82617-.22754.82617-.66993,0-.44922-.293-.60449-.82617-.60449h-.55566v1.27442Z" fill="#e6e6e6"/><path d="M237.4917,150.68848a.42595.42595,0,1,1,.42383.38867A.394.394,0,0,1,237.4917,150.68848Zm.07715.90332h.68847v2.93652h-.68847Z" fill="#e6e6e6"/><path d="M239.13623,151.5918h.56836l.04785.39453h.02442a1.36347,1.36347,0,0,1,.96289-.4668c.62793,0,.90234.42481.90234,1.167v1.8418h-.6875v-1.752c0-.48438-.1377-.66407-.46094-.66407a.93178.93178,0,0,0-.66992.36426v2.05176h-.6875Z" fill="#e6e6e6"/><path d="M242.28857,155.06055a.75693.75693,0,0,1,.41895-.62793v-.02344a.5524.5524,0,0,1-.26367-.49023.70883.70883,0,0,1,.32324-.54493v-.02343a.99242.99242,0,0,1-.38281-.77832,1.066,1.066,0,0,1,1.16015-1.05274,1.3141,1.3141,0,0,1,.43067.07227h1.05273v.50879h-.53808a.78345.78345,0,0,1,.168.49609.99661.99661,0,0,1-1.11328.999,1.08769,1.08769,0,0,1-.40039-.07812.33773.33773,0,0,0-.14355.28125c0,.168.11914.26953.47851.26953h.52051c.70508,0,1.07617.21484,1.07617.72363,0,.58008-.60937,1.03418-1.5664,1.03418C242.80908,155.82617,242.28857,155.5752,242.28857,155.06055Zm2.12305-.15528c0-.22754-.18555-.293-.51953-.293h-.40137a1.53506,1.53506,0,0,1-.40039-.042.49534.49534,0,0,0-.22754.38867c0,.26368.28711.41895.75391.41895C244.08936,155.37793,244.41162,155.15625,244.41162,154.90527Zm-.3584-2.333a.51532.51532,0,1,0-1.02246,0,.51684.51684,0,1,0,1.02246,0Z" fill="#e6e6e6"/><path d="M246.85205,150.61719h.78418l.69336,1.91406c.084.24512.168.50781.25195.76563h.02344c.084-.25782.16113-.52051.24512-.76563l.67578-1.91406h.79v3.91113h-.64063v-1.78809c0-.36523.05469-.88574.08985-1.24414h-.02344l-.31738.90918-.63965,1.75879h-.41309l-.64551-1.75879-.31152-.90918h-.02344c.0293.3584.08887.87891.08887,1.24414v1.78809h-.62793Z" fill="#e6e6e6"/><path d="M251.05713,153.06348a1.40336,1.40336,0,1,1,1.39355,1.53711A1.42117,1.42117,0,0,1,251.05713,153.06348Zm2.08789,0c0-.59278-.26367-.98145-.69434-.98145s-.6875.38867-.6875.98145c0,.58593.25684.97461.6875.97461S253.145,153.64941,253.145,153.06348Z" fill="#e6e6e6"/><path d="M254.353,153.06348a1.38479,1.38479,0,0,1,1.24414-1.54395,1.08351,1.08351,0,0,1,.77148.32324l-.02344-.47265v-1.06446h.6875v4.22266h-.56835l-.04688-.31641h-.02441a1.2272,1.2272,0,0,1-.83106.38868C254.82568,154.60059,254.353,154.03223,254.353,153.06348Zm1.99218.63964V152.333a.87753.87753,0,0,0-.59765-.24512c-.37695,0-.68262.35352-.68262.96973,0,.63379.23926.97461.66406.97461A.792.792,0,0,0,256.34521,153.70312Z" fill="#e6e6e6"/><path d="M264.19817,24.27262H6.53494V15.937a1,1,0,0,1,1-1H263.19817a1,1,0,0,1,1,1Z" fill="#282828"/><path d="M264.19817,67.21649H6.53494V58.88087a1,1,0,0,1,1-1H263.19817a1,1,0,0,1,1,1Z" fill="#282828"/><path d="M7.53494,162.43986H263.19817a1,1,0,0,1,1,1v8.33562a0,0,0,0,1,0,0H6.53494a0,0,0,0,1,0,0v-8.33562A1,1,0,0,1,7.53494,162.43986Z" fill="#282828"/><path d="M7.53494,119.496H263.19817a1,1,0,0,1,1,1v8.33562a0,0,0,0,1,0,0H6.53494a0,0,0,0,1,0,0V120.496A1,1,0,0,1,7.53494,119.496Z" fill="#282828"/><rect x="23.33906" y="30.80756" width="22.4055" height="9.33562" rx="0.5" ry="0.5" stroke="#252525" stroke-miterlimit="10" stroke-width="0.25" fill="url(#a)"/><rect x="66.28293" y="30.80756" width="22.4055" height="9.33562" rx="0.5" ry="0.5" stroke="#252525" stroke-miterlimit="10" stroke-width="0.25" fill="url(#b)"/><rect x="107.35968" y="30.80756" width="22.4055" height="9.33562" rx="0.5" ry="0.5" stroke="#252525" stroke-miterlimit="10" stroke-width="0.25" fill="url(#c)"/><rect x="150.30355" y="30.80756" width="22.4055" height="9.33562" rx="0.5" ry="0.5" stroke="#252525" stroke-miterlimit="10" stroke-width="0.25" fill="url(#d)"/><rect x="191.38667" y="30.80756" width="22.4055" height="9.33562" rx="0.5" ry="0.5" stroke="#252525" stroke-miterlimit="10" stroke-width="0.25" fill="url(#e)"/><rect x="234.32417" y="30.80756" width="22.4055" height="9.33562" rx="0.5" ry="0.5" stroke="#252525" stroke-miterlimit="10" stroke-width="0.25" fill="url(#f)"/><rect x="23.33906" y="73.75143" width="22.4055" height="9.33562" rx="0.5" ry="0.5" stroke="#252525" stroke-miterlimit="10" stroke-width="0.25" fill="url(#g)"/><rect x="66.28293" y="73.75143" width="22.4055" height="9.33562" rx="0.5" ry="0.5" stroke="#252525" stroke-miterlimit="10" stroke-width="0.25" fill="url(#h)"/><rect x="107.35968" y="73.75143" width="22.4055" height="9.33562" rx="0.5" ry="0.5" stroke="#252525" stroke-miterlimit="10" stroke-width="0.25" fill="url(#i)"/><rect x="150.30355" y="73.75143" width="22.4055" height="9.33562" rx="0.5" ry="0.5" stroke="#252525" stroke-miterlimit="10" stroke-width="0.25" fill="url(#j)"/><rect x="191.38667" y="73.75143" width="22.4055" height="9.33562" rx="0.5" ry="0.5" stroke="#252525" stroke-miterlimit="10" stroke-width="0.25" fill="url(#k)"/><rect x="234.32417" y="73.75143" width="22.4055" height="9.33562" rx="0.5" ry="0.5" stroke="#252525" stroke-miterlimit="10" stroke-width="0.25" fill="url(#l)"/><rect x="23.33906" y="178.31042" width="22.4055" height="9.33562" rx="0.5" ry="0.5" stroke="#252525" stroke-miterlimit="10" stroke-width="0.25" fill="url(#m)"/><rect x="66.28293" y="178.31042" width="22.4055" height="9.33562" rx="0.5" ry="0.5" stroke="#252525" stroke-miterlimit="10" stroke-width="0.25" fill="url(#n)"/><rect x="107.35968" y="178.31042" width="22.4055" height="9.33562" rx="0.5" ry="0.5" stroke="#252525" stroke-miterlimit="10" stroke-width="0.25" fill="url(#o)"/><rect x="150.30355" y="178.31042" width="22.4055" height="9.33562" rx="0.5" ry="0.5" stroke="#252525" stroke-miterlimit="10" stroke-width="0.25" fill="url(#p)"/><rect x="191.38667" y="178.31042" width="22.4055" height="9.33562" rx="0.5" ry="0.5" stroke="#252525" stroke-miterlimit="10" stroke-width="0.25" fill="url(#q)"/><rect x="234.32417" y="178.31042" width="22.4055" height="9.33562" rx="0.5" ry="0.5" stroke="#252525" stroke-miterlimit="10" stroke-width="0.25" fill="url(#r)"/><rect x="23.33906" y="135.36655" width="22.4055" height="9.33562" rx="0.5" ry="0.5" stroke="#252525" stroke-miterlimit="10" stroke-width="0.25" fill="url(#s)"/><rect x="66.28293" y="135.36655" width="22.4055" height="9.33562" rx="0.5" ry="0.5" stroke="#252525" stroke-miterlimit="10" stroke-width="0.25" fill="url(#t)"/><rect x="107.35968" y="135.36655" width="22.4055" height="9.33562" rx="0.5" ry="0.5" stroke="#252525" stroke-miterlimit="10" stroke-width="0.25" fill="url(#u)"/><rect x="150.30355" y="135.36655" width="22.4055" height="9.33562" rx="0.5" ry="0.5" stroke="#252525" stroke-miterlimit="10" stroke-width="0.25" fill="url(#v)"/><rect x="191.38667" y="135.36655" width="22.4055" height="9.33562" rx="0.5" ry="0.5" stroke="#252525" stroke-miterlimit="10" stroke-width="0.25" fill="url(#w)"/><rect x="234.32417" y="135.36655" width="22.4055" height="9.33562" rx="0.5" ry="0.5" stroke="#252525" stroke-miterlimit="10" stroke-width="0.25" fill="url(#x)"/><path d="M121.00635,19.98828c0-1.26172.70605-2.00976,1.72265-2.00976,1.02246,0,1.72852.748,1.72852,2.00976,0,1.26856-.70606,2.0459-1.72852,2.0459C121.7124,22.03418,121.00635,21.25684,121.00635,19.98828Zm2.7334,0c0-.873-.39454-1.40527-1.01075-1.40527s-1.01074.53222-1.01074,1.40527c0,.87891.39453,1.44141,1.01074,1.44141S123.73975,20.86719,123.73975,19.98828Z" fill="#ffa861"/><path d="M124.88818,21.627l.32325-.44238a1.30785,1.30785,0,0,0,.81347.3291c.31641,0,.4668-.14941.4668-.35254,0-.24609-.31738-.35351-.62891-.47265-.38867-.14356-.82519-.36524-.82519-.85547,0-.51465.41308-.87989,1.07129-.87989a1.58516,1.58516,0,0,1,.97461.35352l-.31739.41895a1.08673,1.08673,0,0,0-.6455-.252c-.293,0-.43067.1377-.43067.32325,0,.23339.293.32324.61035.43652.40039.14941.84278.34082.84278.8916,0,.502-.40039.90918-1.14258.90918A1.85985,1.85985,0,0,1,124.88818,21.627Z" fill="#ffa861"/><path d="M127.56787,20.49707a1.44878,1.44878,0,0,1,1.47168-1.544,1.2656,1.2656,0,0,1,.86133.32911l-.335.44922a.71686.71686,0,0,0-.49024-.21583c-.47265,0-.80175.38868-.80175.98145,0,.58594.32324.97461.7832.97461a.98.98,0,0,0,.60449-.251l.28125.4541a1.46761,1.46761,0,0,1-.957.35938A1.39752,1.39752,0,0,1,127.56787,20.49707Z" fill="#ffa861"/><path d="M130.44482,18.12207a.42648.42648,0,1,1,.42481.38867A.39483.39483,0,0,1,130.44482,18.12207Zm.07813.90332h.6875v2.93652h-.6875Z" fill="#ffa861"/><path d="M132.09033,21.209V17.73926h.68848v3.50488c0,.168.07715.22754.14941.22754a.42052.42052,0,0,0,.10742-.01172l.08985.51465a.95822.95822,0,0,1-.36524.05957C132.27,22.03418,132.09033,21.7168,132.09033,21.209Z" fill="#ffa861"/><path d="M133.71143,21.209V17.73926h.68847v3.50488c0,.168.07715.22754.14942.22754a.42056.42056,0,0,0,.10742-.01172l.08984.51465a.95816.95816,0,0,1-.36523.05957C133.89111,22.03418,133.71143,21.7168,133.71143,21.209Z" fill="#ffa861"/><path d="M135.17725,21.17285c0-.62793.5205-.957,1.72851-1.08887-.01172-.31054-.13769-.57421-.53808-.57421a1.6732,1.6732,0,0,0-.8252.28711l-.252-.46094a2.302,2.302,0,0,1,1.209-.38282c.72949,0,1.09375.44922,1.09375,1.26856v1.74023h-.56836l-.04687-.32226h-.02442a1.43214,1.43214,0,0,1-.90918.39453A.82065.82065,0,0,1,135.17725,21.17285Zm1.72851,0v-.6582c-.80176.10156-1.06445.31152-1.06445.60449,0,.2627.17969.37695.4248.37695A.935.935,0,0,0,136.90576,21.17285Z" fill="#ffa861"/><path d="M138.42432,20.96973V19.56934h-.41895v-.51368l.45508-.03027.084-.80176h.57422v.80176h.74707v.54395h-.74707v1.40039c0,.34668.13086.51367.41211.51367a.84189.84189,0,0,0,.30567-.06543l.11914.50879a1.874,1.874,0,0,1-.59766.10742C138.67529,22.03418,138.42432,21.60352,138.42432,20.96973Z" fill="#ffa861"/><path d="M140.19482,20.49707a1.40353,1.40353,0,1,1,2.793,0,1.40292,1.40292,0,1,1-2.793,0Zm2.08789,0c0-.59277-.26367-.98145-.69433-.98145s-.6875.38868-.6875.98145c0,.58594.25683.97461.6875.97461S142.28271,21.083,142.28271,20.49707Z" fill="#ffa861"/><path d="M143.67041,19.02539h.56836l.04785.52051h.02344a.99949.99949,0,0,1,.832-.59278.74444.74444,0,0,1,.335.06055l-.12012.59766a.97263.97263,0,0,0-.30468-.04785c-.2334,0-.51465.16211-.69336.60449v1.79394h-.68848Z" fill="#ffa861"/><path d="M147.92334,18.05078h.81348l1.27441,3.91113h-.72949l-.30567-1.05859h-1.31543l-.30566,1.05859h-.70508Zm-.10156,2.3086h.999l-.13769-.47852c-.125-.41309-.23926-.86133-.35254-1.292h-.02442c-.10742.43652-.2207.8789-.34668,1.292Z" fill="#ffa861"/><path d="M124.15576,64.40332l.40625-.47266a1.5551,1.5551,0,0,0,1.01758.44336c.44238,0,.68164-.19726.68164-.50293,0-.32324-.25195-.4248-.60449-.57421l-.53809-.2334a1.12647,1.12647,0,0,1-.79-1.04,1.19029,1.19029,0,0,1,1.31641-1.10059,1.728,1.728,0,0,1,1.20215.4961l-.35254.44238a1.27848,1.27848,0,0,0-.84961-.335c-.37109,0-.61621.17383-.61621.46093,0,.30469.29883.419.62207.54981l.53223.22168a1.09424,1.09424,0,0,1,.79,1.05859,1.24365,1.24365,0,0,1-1.40625,1.16016A2.0241,2.0241,0,0,1,124.15576,64.40332Z" fill="#ffa861"/><path d="M127.62451,60.68359h.6875v1.08789l-.02344.56836a1.3452,1.3452,0,0,1,.93946-.44238c.62793,0,.90234.42481.90234,1.166v1.84277h-.6875V63.15332c0-.48437-.13769-.66406-.46094-.66406a.93331.93331,0,0,0-.66992.36523v2.05176h-.6875Z" fill="#ffa861"/><path d="M130.80713,64.11621c0-.62793.52051-.957,1.72851-1.08789-.01171-.31152-.13769-.57422-.53808-.57422a1.67023,1.67023,0,0,0-.82617.28711l-.251-.46094a2.30155,2.30155,0,0,1,1.208-.38281c.73047,0,1.09472.44824,1.09472,1.26758v1.74121h-.56738l-.04883-.32324h-.02343a1.42925,1.42925,0,0,1-.90918.39453A.82066.82066,0,0,1,130.80713,64.11621Zm1.72851,0V63.459c-.80175.10157-1.06445.31055-1.06445.60352,0,.26367.17871.37695.42481.37695A.931.931,0,0,0,132.53564,64.11621Z" fill="#ffa861"/><path d="M134.04932,61.96875h.56836l.04785.31152h.02343a1.43688,1.43688,0,0,1,.88575-.38281c.72949,0,1.15429.58594,1.15429,1.49512,0,1.00488-.60449,1.585-1.25586,1.585a1.18952,1.18952,0,0,1-.7539-.32227l.01855.49024v.9209h-.68847Zm1.96777,1.42969c0-.58594-.19141-.93262-.63379-.93262a.93374.93374,0,0,0-.64551.3291v1.36914a.92474.92474,0,0,0,.5918.24512C135.71826,64.40918,136.01709,64.0625,136.01709,63.39844Z" fill="#ffa861"/><path d="M137.231,63.44043a1.429,1.429,0,0,1,1.35156-1.543c.7959,0,1.21484.57422,1.21484,1.39356a1.61868,1.61868,0,0,1-.03027.335h-1.86621a.84012.84012,0,0,0,.86719.81933,1.22959,1.22959,0,0,0,.68261-.21484l.23243.43066a1.85132,1.85132,0,0,1-1.00489.31641A1.416,1.416,0,0,1,137.231,63.44043Zm1.96777-.28125c0-.4541-.19727-.72949-.59766-.72949a.7368.7368,0,0,0-.70605.72949Z" fill="#ffa861"/><path d="M140.45557,61.96875h.56836l.04785.52051h.02343a.99825.99825,0,0,1,.832-.5918.74569.74569,0,0,1,.335.05957l-.12012.59863a.94537.94537,0,0,0-.30469-.04785c-.2334,0-.51465.16114-.69336.60352v1.79492h-.68847Z" fill="#ffa861"/><path d="M144.70752,60.99414h.81348l1.27441,3.91211h-.72949l-.30567-1.05859h-1.31543l-.30468,1.05859h-.70606Zm-.10156,2.30859h.999l-.13769-.47851c-.125-.41211-.23926-.86133-.35254-1.292h-.02442c-.10742.43652-.2207.87988-.34668,1.292Z" fill="#ffa861"/><path d="M120.88916,167.49121c0-1.26172.706-2.00976,1.72266-2.00976,1.02246,0,1.72851.748,1.72851,2.00976,0,1.26856-.706,2.0459-1.72851,2.0459C121.59521,169.53711,120.88916,168.75977,120.88916,167.49121Zm2.7334,0c0-.87305-.39453-1.40527-1.01074-1.40527s-1.01075.53222-1.01075,1.40527c0,.87891.39454,1.44141,1.01075,1.44141S123.62256,168.37012,123.62256,167.49121Z" fill="#ded66f"/><path d="M124.771,169.12988l.32324-.44238a1.30792,1.30792,0,0,0,.81347.3291c.31641,0,.4668-.14941.4668-.35254,0-.24609-.31738-.35351-.6289-.47265-.38868-.14356-.8252-.36524-.8252-.85547,0-.51465.41309-.87989,1.07129-.87989a1.58516,1.58516,0,0,1,.97461.35352l-.31738.41895a1.0867,1.0867,0,0,0-.64551-.252c-.293,0-.43067.1377-.43067.32324,0,.2334.293.32325.61036.43653.40039.14941.84277.34082.84277.8916,0,.502-.40039.90918-1.14258.90918A1.85982,1.85982,0,0,1,124.771,169.12988Z" fill="#ded66f"/><path d="M127.45068,168a1.44878,1.44878,0,0,1,1.47168-1.54395,1.26558,1.26558,0,0,1,.86133.32911l-.335.44922a.71684.71684,0,0,0-.49023-.21583c-.47266,0-.80176.38868-.80176.98145,0,.58594.32324.97461.7832.97461a.98.98,0,0,0,.60449-.251l.28125.4541a1.46761,1.46761,0,0,1-.957.35938A1.39752,1.39752,0,0,1,127.45068,168Z" fill="#ded66f"/><path d="M130.32764,165.625a.42648.42648,0,1,1,.4248.38867A.39482.39482,0,0,1,130.32764,165.625Zm.07812.90332h.6875v2.93652h-.6875Z" fill="#ded66f"/><path d="M131.97314,168.71191v-3.46972h.68848v3.50488c0,.168.07715.22754.14942.22754a.42056.42056,0,0,0,.10742-.01172l.08984.51465a.95816.95816,0,0,1-.36523.05957C132.15283,169.53711,131.97314,169.21973,131.97314,168.71191Z" fill="#ded66f"/><path d="M133.59424,168.71191v-3.46972h.68847v3.50488c0,.168.07715.22754.14942.22754a.42052.42052,0,0,0,.10742-.01172l.08984.51465a.95816.95816,0,0,1-.36523.05957C133.77393,169.53711,133.59424,169.21973,133.59424,168.71191Z" fill="#ded66f"/><path d="M135.06006,168.67578c0-.62793.52051-.957,1.72851-1.08887-.01171-.31054-.13769-.57421-.53808-.57421a1.67328,1.67328,0,0,0-.8252.2871l-.25195-.46093a2.30208,2.30208,0,0,1,1.209-.38282c.7295,0,1.09375.44922,1.09375,1.26856v1.74023h-.56836l-.04687-.32226h-.02441a1.43216,1.43216,0,0,1-.90918.39453A.82066.82066,0,0,1,135.06006,168.67578Zm1.72851,0v-.6582c-.80175.10156-1.06445.31152-1.06445.60449,0,.2627.17969.37695.42481.37695A.935.935,0,0,0,136.78857,168.67578Z" fill="#ded66f"/><path d="M138.30713,168.47266v-1.40039h-.41895v-.51368l.45508-.03027.084-.80176h.57421v.80176h.74708v.54395h-.74708v1.40039c0,.34668.13086.51367.41211.51367a.84185.84185,0,0,0,.30567-.06543l.11914.50879a1.87391,1.87391,0,0,1-.59766.10742C138.55811,169.53711,138.30713,169.10645,138.30713,168.47266Z" fill="#ded66f"/><path d="M140.07764,168a1.40292,1.40292,0,1,1,1.39355,1.53711A1.42117,1.42117,0,0,1,140.07764,168Zm2.08789,0c0-.59277-.26367-.98145-.69434-.98145s-.6875.38868-.6875.98145c0,.58594.25684.97461.6875.97461S142.16553,168.58594,142.16553,168Z" fill="#ded66f"/><path d="M143.55322,166.52832h.56836l.04785.52051h.02344a.99949.99949,0,0,1,.832-.59278.74441.74441,0,0,1,.335.06055l-.12011.59766a.9727.9727,0,0,0-.30469-.04785c-.2334,0-.51465.16211-.69336.60449v1.79394h-.68848Z" fill="#ded66f"/><path d="M147.04053,165.55371h1.25c.80761,0,1.40039.24512,1.40039.96289a.8802.8802,0,0,1-.54492.84863v.02442a.89331.89331,0,0,1,.748.92676c0,.78418-.63965,1.14843-1.501,1.14843h-1.35254ZM148.231,167.168c.54492,0,.77832-.21485.77832-.54981,0-.38281-.25782-.52636-.76563-.52636h-.50879V167.168Zm.08984,1.75879c.57422,0,.89746-.209.89746-.64551,0-.41309-.31152-.59277-.89746-.59277h-.58594v1.23828Z" fill="#ded66f"/><path d="M124.03955,126.01855l.40625-.47265a1.55844,1.55844,0,0,0,1.0166.44238c.44336,0,.68262-.19726.68262-.502,0-.32324-.251-.42481-.60449-.57422l-.53809-.2334a1.12877,1.12877,0,0,1-.79-1.041,1.19029,1.19029,0,0,1,1.31641-1.10059,1.728,1.728,0,0,1,1.20215.49609l-.35254.44336a1.27372,1.27372,0,0,0-.84961-.335c-.3711,0-.61621.17285-.61621.46,0,.30567.29883.41895.62207.55078l.53222.22071a1.0963,1.0963,0,0,1,.79,1.05957,1.24364,1.24364,0,0,1-1.40625,1.16015A2.0266,2.0266,0,0,1,124.03955,126.01855Z" fill="#ded66f"/><path d="M127.5083,122.29785h.68848v1.08887l-.02442.56836a1.34606,1.34606,0,0,1,.93946-.44336c.62793,0,.90332.4248.90332,1.167v1.8418h-.68848v-1.752c0-.48437-.1377-.66406-.46-.66406a.92838.92838,0,0,0-.66992.36426v2.05176h-.68848Z" fill="#ded66f"/><path d="M130.69092,125.73145c0-.62793.52051-.957,1.72851-1.08887-.01172-.31055-.13769-.57422-.53808-.57422a1.67329,1.67329,0,0,0-.8252.28711l-.25195-.46094a2.30216,2.30216,0,0,1,1.209-.38281c.7295,0,1.09375.44922,1.09375,1.26855v1.74024h-.56836l-.04687-.32227h-.02441a1.43211,1.43211,0,0,1-.90918.39453A.82065.82065,0,0,1,130.69092,125.73145Zm1.72851,0v-.65821c-.80175.10156-1.06445.31153-1.06445.60449,0,.2627.17969.377.42481.377A.935.935,0,0,0,132.41943,125.73145Z" fill="#ded66f"/><path d="M133.93311,123.584h.56835l.04786.31055h.02441a1.432,1.432,0,0,1,.88477-.38281c.72949,0,1.15429.58691,1.15429,1.49609,0,1.00489-.60351,1.585-1.25586,1.585a1.18885,1.18885,0,0,1-.7539-.32324l.01758.49024v.92187h-.6875Zm1.96777,1.42969c0-.58594-.19141-.93359-.63379-.93359a.94329.94329,0,0,0-.64648.3291v1.37012a.92891.92891,0,0,0,.59277.24511C135.60205,126.02441,135.90088,125.67773,135.90088,125.01367Z" fill="#ded66f"/><path d="M137.11475,125.05566a1.42994,1.42994,0,0,1,1.35156-1.54394c.7959,0,1.21484.57422,1.21484,1.39453a1.56687,1.56687,0,0,1-.03027.335h-1.86621a.84077.84077,0,0,0,.86719.81934,1.22276,1.22276,0,0,0,.68164-.21582l.23339.43066a1.84946,1.84946,0,0,1-1.00488.31738A1.416,1.416,0,0,1,137.11475,125.05566Zm1.96777-.28125c0-.45507-.19727-.72949-.59766-.72949a.73746.73746,0,0,0-.70605.72949Z" fill="#ded66f"/><path d="M140.33936,123.584h.56835l.04786.52051H140.98a.997.997,0,0,1,.83106-.59277.74433.74433,0,0,1,.335.06055l-.12012.59765a.97265.97265,0,0,0-.30469-.04785c-.2334,0-.51465.16211-.69433.60449v1.79395h-.6875Z" fill="#ded66f"/><path d="M143.82568,122.60938h1.25c.80762,0,1.40039.24511,1.40039.96289a.8802.8802,0,0,1-.54492.84863v.02441a.89332.89332,0,0,1,.74805.92676c0,.78418-.63965,1.14844-1.501,1.14844h-1.35254Zm1.19043,1.61425c.54493,0,.77832-.21484.77832-.5498,0-.38281-.25781-.52637-.76562-.52637H144.52v1.07617Zm.08985,1.75879c.57422,0,.89746-.209.89746-.64551,0-.41308-.31153-.59277-.89746-.59277H144.52v1.23828Z" fill="#ded66f"/></svg>