<svg xmlns="http://www.w3.org/2000/svg" xmlns:xlink="http://www.w3.org/1999/xlink" viewBox="0 0 400 300"><defs><linearGradient id="a" x1="47.13672" y1="31.24268" x2="47.13672" y2="47.05225" gradientUnits="userSpaceOnUse"><stop offset="0" stop-color="#e6e6e6"/><stop offset="0.1144" stop-color="#e0e0e0"/><stop offset="0.27295" stop-color="#cecece"/><stop offset="0.45731" stop-color="#b0b0b0"/><stop offset="0.66114" stop-color="#878787"/><stop offset="0.87829" stop-color="#535353"/><stop offset="1" stop-color="#333"/></linearGradient><linearGradient id="b" x1="110.07324" y1="31.24268" x2="110.07324" y2="47.05225" xlink:href="#a"/><linearGradient id="c" x1="173.00879" y1="31.24268" x2="173.00879" y2="47.05225" xlink:href="#a"/><linearGradient id="d" x1="235.94531" y1="31.24268" x2="235.94531" y2="47.05225" xlink:href="#a"/><linearGradient id="e" x1="298.87988" y1="31.24268" x2="298.87988" y2="47.05225" xlink:href="#a"/><linearGradient id="f" x1="361.75879" y1="31.24268" x2="361.75879" y2="47.05225" xlink:href="#a"/><linearGradient id="g" x1="47.13672" y1="94.17578" x2="47.13672" y2="109.98535" xlink:href="#a"/><linearGradient id="h" x1="110.07324" y1="94.17578" x2="110.07324" y2="109.98535" xlink:href="#a"/><linearGradient id="i" x1="173.00879" y1="94.17578" x2="173.00879" y2="109.98535" xlink:href="#a"/><linearGradient id="j" x1="235.94531" y1="94.17578" x2="235.94531" y2="109.98535" xlink:href="#a"/><linearGradient id="k" x1="298.87988" y1="94.17578" x2="298.87988" y2="109.98535" xlink:href="#a"/><linearGradient id="l" x1="361.75879" y1="94.17578" x2="361.75879" y2="109.98535" xlink:href="#a"/><linearGradient id="m" x1="47.13672" y1="187.53857" x2="47.13672" y2="203.34814" xlink:href="#a"/><linearGradient id="n" x1="110.07324" y1="187.53857" x2="110.07324" y2="203.34814" xlink:href="#a"/><linearGradient id="o" x1="173.00879" y1="187.53857" x2="173.00879" y2="203.34814" xlink:href="#a"/><linearGradient id="p" x1="235.94531" y1="187.53857" x2="235.94531" y2="203.34814" xlink:href="#a"/><linearGradient id="q" x1="298.87988" y1="187.53857" x2="298.87988" y2="203.34814" xlink:href="#a"/><linearGradient id="r" x1="361.75879" y1="187.53857" x2="361.75879" y2="203.34814" xlink:href="#a"/><linearGradient id="s" x1="47.13672" y1="250.41406" x2="47.13672" y2="266.22363" xlink:href="#a"/><linearGradient id="t" x1="110.07324" y1="250.41406" x2="110.07324" y2="266.22363" xlink:href="#a"/><linearGradient id="u" x1="173.00879" y1="250.41406" x2="173.00879" y2="266.22363" xlink:href="#a"/><linearGradient id="v" x1="235.94531" y1="250.41406" x2="235.94531" y2="266.22363" xlink:href="#a"/><linearGradient id="w" x1="298.87988" y1="250.41406" x2="298.87988" y2="266.22363" xlink:href="#a"/><linearGradient id="x" x1="361.75879" y1="250.41406" x2="361.75879" y2="266.22363" xlink:href="#a"/></defs><title>parameter-panel</title><rect width="400" height="300"/><path d="M11.44678,72.73438H388.55566a2.27246,2.27246,0,0,1,2.27246,2.27246V127.562a2.27246,2.27246,0,0,1-2.27246,2.27246H11.44678a2.27295,2.27295,0,0,1-2.27295-2.27295V75.00732A2.27295,2.27295,0,0,1,11.44678,72.73438Z" fill="#414141"/><path d="M388.55566,72.98425a2.02853,2.02853,0,0,1,2.02259,2.02259v52.55481a2.02853,2.02853,0,0,1-2.02259,2.02258H11.44617a2.02853,2.02853,0,0,1-2.02259-2.02258V75.00684a2.02853,2.02853,0,0,1,2.02259-2.02259H388.55566m0-.5H11.44617a2.52549,2.52549,0,0,0-2.52259,2.52259v52.55481a2.52548,2.52548,0,0,0,2.52259,2.52258H388.55566a2.52543,2.52543,0,0,0,2.52259-2.52258V75.00684a2.52544,2.52544,0,0,0-2.52259-2.52259Z" fill="gray"/><path d="M11.44434,9.74121H388.5542a2.27295,2.27295,0,0,1,2.27295,2.27295V64.56885a2.27246,2.27246,0,0,1-2.27246,2.27246H11.44434a2.27246,2.27246,0,0,1-2.27246-2.27246V12.01367a2.27246,2.27246,0,0,1,2.27246-2.27246Z" fill="#414141"/><path d="M388.55481,9.99139a2.02852,2.02852,0,0,1,2.02258,2.02259V64.56879a2.02852,2.02852,0,0,1-2.02258,2.02258H11.44434a2.02853,2.02853,0,0,1-2.02259-2.02258V12.014a2.02853,2.02853,0,0,1,2.02259-2.02259H388.55481m0-.5H11.44434A2.52544,2.52544,0,0,0,8.92175,12.014V64.56879a2.52543,2.52543,0,0,0,2.52259,2.52258H388.55481a2.52543,2.52543,0,0,0,2.52258-2.52258V12.014a2.52544,2.52544,0,0,0-2.52258-2.52259Z" fill="gray"/><path d="M11.44678,228.97266H388.55566a2.27246,2.27246,0,0,1,2.27246,2.27246v52.55518a2.27246,2.27246,0,0,1-2.27246,2.27246H11.44678a2.27295,2.27295,0,0,1-2.27295-2.27295v-52.5542A2.27295,2.27295,0,0,1,11.44678,228.97266Z" fill="#414141"/><path d="M388.55566,229.2226a2.02849,2.02849,0,0,1,2.02259,2.02255v52.55478a2.02856,2.02856,0,0,1-2.02259,2.02264H11.44617a2.02856,2.02856,0,0,1-2.02259-2.02264V231.24515a2.02849,2.02849,0,0,1,2.02259-2.02255H388.55566m0-.5H11.44617a2.52543,2.52543,0,0,0-2.52259,2.52255v52.55478a2.52549,2.52549,0,0,0,2.52259,2.52264H388.55566a2.52545,2.52545,0,0,0,2.52259-2.52264V231.24515a2.52539,2.52539,0,0,0-2.52259-2.52255Z" fill="gray"/><rect x="9.17383" y="166.09375" width="381.6543" height="57.09961" rx="2.27246" ry="2.27246" fill="#414141"/><path d="M388.55566,166.34357a2.02852,2.02852,0,0,1,2.02259,2.02258V220.921a2.0285,2.0285,0,0,1-2.02259,2.02258H11.44617A2.0285,2.0285,0,0,1,9.42358,220.921V168.36615a2.02852,2.02852,0,0,1,2.02259-2.02258H388.55566m0-.5H11.44617a2.52548,2.52548,0,0,0-2.52259,2.52258V220.921a2.52548,2.52548,0,0,0,2.52259,2.52258H388.55566a2.52543,2.52543,0,0,0,2.52259-2.52258V168.36615a2.52543,2.52543,0,0,0-2.52259-2.52258Z" fill="gray"/><path d="M390.57736,87.65091H9.42269V75.07948a1.99736,1.99736,0,0,1,1.86841-2.09524H388.70894a1.99766,1.99766,0,0,1,1.86842,2.09524Z" fill="#333"/><path d="M390.57736,24.65806H9.42175V12.08663A1.99736,1.99736,0,0,1,11.29017,9.9914H388.70894a1.99766,1.99766,0,0,1,1.86842,2.09523Z" fill="#333"/><path d="M390.57825,243.88922H9.42358V231.3178a1.99771,1.99771,0,0,1,1.86841-2.09524H388.70985a1.998,1.998,0,0,1,1.8684,2.09524Z" fill="#333"/><path d="M390.57825,181.01021H9.42358V168.43878a1.99737,1.99737,0,0,1,1.86841-2.09524H388.70985a1.99769,1.99769,0,0,1,1.8684,2.09524Z" fill="#333"/><circle cx="272.10081" cy="209.78825" r="2.06983" transform="translate(21.62603 444.97401) rotate(-80.8289)" fill="#dcddde"/><path d="M211.30356,125.21575a2.06982,2.06982,0,1,1-2.06982-2.06982A2.07068,2.07068,0,0,1,211.30356,125.21575Z" fill="#dcddde"/><path d="M148.42463,122.82854a2.06982,2.06982,0,1,1-2.06981-2.06984A2.07082,2.07082,0,0,1,148.42463,122.82854Z" fill="#dcddde"/><path d="M272.10254,58.48242a1.35315,1.35315,0,1,1-1.35315,1.35315,1.35472,1.35472,0,0,1,1.35315-1.35315m0-.71667a2.06983,2.06983,0,1,0,2.07,2.06982,2.07026,2.07026,0,0,0-2.07-2.06982Z" fill="#dcddde"/><path d="M272.10254,52.08289a1.35312,1.35312,0,1,1-1.35315,1.35308,1.3547,1.3547,0,0,1,1.35315-1.35308m0-.71668a2.0698,2.0698,0,1,0,2.07,2.06976,2.07021,2.07021,0,0,0-2.07-2.06976Z" fill="#dcddde"/><path d="M335.10559,55.28766a1.35315,1.35315,0,1,1-1.35315,1.35321,1.35474,1.35474,0,0,1,1.35315-1.35321m0-.71668a2.06983,2.06983,0,1,0,2.06983,2.06989,2.07019,2.07019,0,0,0-2.06983-2.06989Z" fill="#dcddde"/><path d="M83.24347,115.07568a1.35315,1.35315,0,1,1-1.35315,1.35315,1.35464,1.35464,0,0,1,1.35315-1.35315m0-.71667a2.06983,2.06983,0,1,0,2.06976,2.06982,2.06955,2.06955,0,0,0-2.06976-2.06982Z" fill="#dcddde"/><path d="M83.24347,121.4754a1.35312,1.35312,0,1,1-1.35315,1.35315,1.35464,1.35464,0,0,1,1.35315-1.35315m0-.71667a2.0698,2.0698,0,1,0,2.06976,2.06982,2.06947,2.06947,0,0,0-2.06976-2.06982Z" fill="#dcddde"/><path d="M209.23376,117.462a1.35315,1.35315,0,1,1-1.35314,1.35314,1.35468,1.35468,0,0,1,1.35314-1.35314m0-.71668a2.06983,2.06983,0,1,0,2.06983,2.06982,2.06963,2.06963,0,0,0-2.06983-2.06982Z" fill="#dcddde"/><path d="M209.23376,111.06146a1.35315,1.35315,0,1,1-1.35314,1.35315,1.35469,1.35469,0,0,1,1.35314-1.35315m0-.71667a2.06983,2.06983,0,1,0,2.06983,2.06982,2.06963,2.06963,0,0,0-2.06983-2.06982Z" fill="#dcddde"/><path d="M146.35486,115.07568a1.35315,1.35315,0,1,1-1.35315,1.35315,1.35469,1.35469,0,0,1,1.35315-1.35315m0-.71667a2.06983,2.06983,0,1,0,2.06982,2.06982,2.06956,2.06956,0,0,0-2.06982-2.06982Z" fill="#dcddde"/><path d="M272.22571,115.07568a1.35315,1.35315,0,1,1-1.35315,1.35315,1.35469,1.35469,0,0,1,1.35315-1.35315m0-.71667a2.06983,2.06983,0,1,0,2.06982,2.06982,2.07019,2.07019,0,0,0-2.06982-2.06982Z" fill="#dcddde"/><path d="M272.22571,121.4754a1.35312,1.35312,0,1,1-1.35315,1.35315,1.35469,1.35469,0,0,1,1.35315-1.35315m0-.71667a2.0698,2.0698,0,1,0,2.06982,2.06982,2.0701,2.0701,0,0,0-2.06982-2.06982Z" fill="#dcddde"/><path d="M334.98706,118.26263a1.35315,1.35315,0,1,1-1.35315,1.35315,1.35469,1.35469,0,0,1,1.35315-1.35315m0-.71667a2.06983,2.06983,0,1,0,2.06982,2.06982,2.069,2.069,0,0,0-2.06982-2.06982Z" fill="#dcddde"/><path d="M146.35486,208.43509a1.35315,1.35315,0,1,1-1.35315,1.35315,1.35471,1.35471,0,0,1,1.35315-1.35315m0-.71668a2.06983,2.06983,0,1,0,2.06982,2.06983,2.0695,2.0695,0,0,0-2.06982-2.06983Z" fill="#dcddde"/><path d="M146.35486,214.83469a1.35315,1.35315,0,1,1-1.35315,1.35315,1.35471,1.35471,0,0,1,1.35315-1.35315m0-.71668a2.06983,2.06983,0,1,0,2.06982,2.06983,2.06954,2.06954,0,0,0-2.06982-2.06983Z" fill="#dcddde"/><path d="M272.10083,215.02029a1.35315,1.35315,0,1,1-1.35315,1.35315,1.35471,1.35471,0,0,1,1.35315-1.35315m0-.71667a2.06983,2.06983,0,1,0,2.06982,2.06982,2.069,2.069,0,0,0-2.06982-2.06982Z" fill="#dcddde"/><path d="M334.97974,211.63486a1.35314,1.35314,0,1,1-1.35315,1.35315,1.35471,1.35471,0,0,1,1.35315-1.35315m0-.71668a2.06981,2.06981,0,1,0,2.06982,2.06983,2.069,2.069,0,0,0-2.06982-2.06983Z" fill="#dcddde"/><path d="M209.23376,214.834a1.35381,1.35381,0,1,1-1.35314,1.35447,1.35536,1.35536,0,0,1,1.35314-1.35447m0-.71667a2.07048,2.07048,0,1,0,2.06983,2.07114,2.06983,2.06983,0,0,0-2.06983-2.07114Z" fill="#dcddde"/><path d="M209.23376,208.43509a1.35315,1.35315,0,1,1-1.35314,1.35315,1.3547,1.3547,0,0,1,1.35314-1.35315m0-.71668a2.06983,2.06983,0,1,0,2.06983,2.06983,2.06964,2.06964,0,0,0-2.06983-2.06983Z" fill="#dcddde"/><path d="M272.22571,271.314a1.35315,1.35315,0,1,1-1.35315,1.35315,1.35471,1.35471,0,0,1,1.35315-1.35315m0-.71668a2.06983,2.06983,0,1,0,2.06982,2.06983,2.07017,2.07017,0,0,0-2.06982-2.06983Z" fill="#dcddde"/><path d="M272.22571,277.71359a1.35315,1.35315,0,1,1-1.35315,1.35315,1.35471,1.35471,0,0,1,1.35315-1.35315m0-.71667a2.06983,2.06983,0,1,0,2.06982,2.06982,2.07018,2.07018,0,0,0-2.06982-2.06982Z" fill="#dcddde"/><path d="M20.35437,274.51385a1.35315,1.35315,0,1,1-1.35315,1.35315,1.35468,1.35468,0,0,1,1.35315-1.35315m0-.71667a2.06983,2.06983,0,1,0,2.06982,2.06982,2.0695,2.0695,0,0,0-2.06982-2.06982Z" fill="#dcddde"/><path d="M83.23608,274.51385A1.35315,1.35315,0,1,1,81.883,275.867a1.35467,1.35467,0,0,1,1.35308-1.35315m0-.71667a2.06983,2.06983,0,1,0,2.06983,2.06982,2.06949,2.06949,0,0,0-2.06983-2.06982Z" fill="#dcddde"/><path d="M146.35486,274.51385a1.35315,1.35315,0,1,1-1.35315,1.35315,1.35471,1.35471,0,0,1,1.35315-1.35315m0-.71667a2.06983,2.06983,0,1,0,2.06982,2.06982,2.0695,2.0695,0,0,0-2.06982-2.06982Z" fill="#dcddde"/><path d="M209.23376,274.51385a1.35315,1.35315,0,1,1-1.35314,1.35315,1.35471,1.35471,0,0,1,1.35314-1.35315m0-.71667a2.06983,2.06983,0,1,0,2.06983,2.06982,2.06958,2.06958,0,0,0-2.06983-2.06982Z" fill="#dcddde"/><path d="M334.85669,274.51385a1.35315,1.35315,0,1,1-1.35315,1.35315,1.35471,1.35471,0,0,1,1.35315-1.35315m0-.71667a2.06983,2.06983,0,1,0,2.06982,2.06982,2.069,2.069,0,0,0-2.06982-2.06982Z" fill="#dcddde"/><path d="M34.707,56.70264c0-2.1128,1.32324-3.3667,2.95215-3.3667a2.56592,2.56592,0,0,1,1.86621.81933l-.6123.74073a1.68343,1.68343,0,0,0-1.22461-.563c-1.05567,0-1.80664.88867-1.80664,2.33984,0,1.47119.6914,2.35986,1.77734,2.35986a1.839,1.839,0,0,0,1.38184-.66162l.6123.72071a2.60328,2.60328,0,0,1-2.0332.938C35.99121,60.02979,34.707,58.84473,34.707,56.70264Z" fill="#dcddde"/><path d="M40.56445,57.49219a2.31626,2.31626,0,1,1,2.30078,2.5376A2.34557,2.34557,0,0,1,40.56445,57.49219Zm3.44629,0c0-.977-.43457-1.61865-1.14551-1.61865s-1.13574.6416-1.13574,1.61865c0,.96777.42481,1.60937,1.13574,1.60937S44.01074,58.46,44.01074,57.49219Z" fill="#dcddde"/><path d="M46.55078,55.064h.9375l.0791.66114h.04a2.04793,2.04793,0,0,1,1.48047-.77979,1.31878,1.31878,0,0,1,1.34277.86865,2.20005,2.20005,0,0,1,1.55957-.86865c1.02735,0,1.501.70117,1.501,1.9253v3.04052H52.3457V57.01855c0-.7998-.23632-1.0957-.74023-1.0957a1.50644,1.50644,0,0,0-1.0166.60205v3.38623H49.45312V57.01855c0-.7998-.23632-1.0957-.75-1.0957a1.52628,1.52628,0,0,0-1.0166.60205v3.38623H46.55078Z" fill="#dcddde"/><path d="M56.15039,59.398h-.0293l-.09863.51318H55.124V52.94141h1.13575v1.79638l-.03028.80957a2.21257,2.21257,0,0,1,1.40235-.602c1.21386,0,1.915.96729,1.915,2.458,0,1.66846-.99708,2.62647-2.07325,2.62647A1.93858,1.93858,0,0,1,56.15039,59.398Zm2.22168-1.97461c0-.96777-.31641-1.54-1.04687-1.54a1.5468,1.5468,0,0,0-1.06543.543V58.687a1.512,1.512,0,0,0,.97656.40479C57.87891,59.0918,58.37207,58.519,58.37207,57.42334Z" fill="#dcddde"/><path d="M38.63379,116.33252h1.34277l2.10254,6.45654H40.875l-.50391-1.74756H38.19922l-.50293,1.74756h-1.165Zm-.168,3.81055h1.64844l-.22656-.78955c-.207-.68116-.39454-1.42188-.582-2.13233h-.04c-.17773.7207-.36523,1.45117-.57226,2.13233Z" fill="#dcddde"/><path d="M44.94727,119.92627h3.90918v.75H44.94727Z" fill="#dcddde"/><path d="M52.56152,116.33252H54.625c1.333,0,2.31055.40478,2.31055,1.58936a1.45518,1.45518,0,0,1-.89844,1.40185v.03955a1.47509,1.47509,0,0,1,1.2334,1.53027c0,1.29346-1.05567,1.89551-2.47754,1.89551H52.56152Zm1.96485,2.66553c.89843,0,1.2832-.35547,1.2832-.90821,0-.63183-.4248-.86865-1.26367-.86865H53.707v1.77686Zm.14746,2.90234c.94824,0,1.48144-.34521,1.48144-1.06592,0-.68115-.51367-.97754-1.48144-.97754H53.707v2.04346Z" fill="#dcddde"/><path d="M98.95117,59.082l.67188-.78027a2.56659,2.56659,0,0,0,1.67773.731c.73047,0,1.126-.32617,1.126-.82959,0-.5332-.415-.70068-.99707-.94775l-.88867-.38476a1.86125,1.86125,0,0,1-1.30372-1.71778,1.964,1.964,0,0,1,2.17188-1.81689,2.84817,2.84817,0,0,1,1.98437.81933l-.582.731a2.10366,2.10366,0,0,0-1.40234-.55322c-.61133,0-1.0166.28662-1.0166.76025,0,.50342.49414.69141,1.02734.9082l.87793.36524a1.80691,1.80691,0,0,1,1.30371,1.74756,2.05287,2.05287,0,0,1-2.32031,1.91553A3.3455,3.3455,0,0,1,98.95117,59.082Z" fill="#dcddde"/><path d="M104.82812,59.25977a.741.741,0,0,1,.74024-.77051.77135.77135,0,0,1,0,1.54053A.74086.74086,0,0,1,104.82812,59.25977Z" fill="#dcddde"/><path d="M106.43945,53.45459h1.21387l.9082,3.248c.207.73047.35547,1.3623.57227,2.103h.04c.21679-.74072.36523-1.37255.5625-2.103l.89844-3.248h1.1748l-2.00391,6.45654h-1.35254Z" fill="#dcddde"/><path d="M111.9502,59.25977a.74039.74039,0,0,1,.74023-.77051.77135.77135,0,0,1,0,1.54053A.74027.74027,0,0,1,111.9502,59.25977Z" fill="#dcddde"/><path d="M115.11133,53.45459h3.89941v.96729h-2.7539v1.82666h2.34961v.96728h-2.34961v2.69531h-1.14551Z" fill="#dcddde"/><path d="M119.38867,59.25977a.741.741,0,0,1,.74024-.77051.77135.77135,0,0,1,0,1.54053A.74086.74086,0,0,1,119.38867,59.25977Z" fill="#dcddde"/><path d="M158.90918,53.45459h3.88965v.96729h-2.74414V56.0708H162.374v.96729h-2.31933v1.90576h2.84277v.96728h-3.98828Z" fill="#dcddde"/><path d="M167.541,55.96191h-1.83594v3.94922h-1.13574V55.96191H163.918v-.84863l.65137-.04932v-.4248a1.53833,1.53833,0,0,1,1.67871-1.71777,2.38447,2.38447,0,0,1,.94726.17773l-.21679.84912a1.30378,1.30378,0,0,0-.61231-.12842c-.4043,0-.66113.27637-.66113.81934v.4248H167.541v-.5039c0-1.00684.4541-1.73731,1.5996-1.73731a2.41345,2.41345,0,0,1,.88868.168l-.21778.84864a1.26524,1.26524,0,0,0-.52343-.11817c-.4043,0-.61133.25684-.61133.81934V55.064h.94726v.898h-.94726v3.94922H167.541Z" fill="#dcddde"/><path d="M170.30762,57.49219a2.35927,2.35927,0,0,1,2.23144-2.54688c1.31348,0,2.00391.94776,2.00391,2.3003a2.66894,2.66894,0,0,1-.04883.55273h-3.08008a1.38734,1.38734,0,0,0,1.43164,1.35254,2.02535,2.02535,0,0,0,1.125-.35547l.38477.71094a3.05581,3.05581,0,0,1-1.6582.52344A2.33786,2.33786,0,0,1,170.30762,57.49219Zm3.248-.46387c0-.75-.32519-1.20459-.98632-1.20459a1.21724,1.21724,0,0,0-1.165,1.20459Z" fill="#dcddde"/><path d="M175.5625,57.49219a2.39121,2.39121,0,0,1,2.42871-2.54688,2.08863,2.08863,0,0,1,1.42188.543l-.55274.74024a1.18564,1.18564,0,0,0-.80957-.355c-.78027,0-1.32324.6416-1.32324,1.61865,0,.96777.5332,1.60937,1.29394,1.60937a1.61664,1.61664,0,0,0,.99707-.41455l.46387.75049a2.42205,2.42205,0,0,1-1.58008.59229A2.30688,2.30688,0,0,1,175.5625,57.49219Z" fill="#dcddde"/><path d="M180.75879,58.27246V55.96191h-.69141v-.84863l.751-.04932.13769-1.32324h.94825V55.064h1.2334v.898h-1.2334v2.31055c0,.57227.21679.84863.68066.84863a1.39667,1.39667,0,0,0,.50391-.10839l.19726.83935a3.09765,3.09765,0,0,1-.9873.17774C181.17285,60.02979,180.75879,59.31885,180.75879,58.27246Z" fill="#dcddde"/><path d="M183.82129,59.3584l.5332-.73047a2.1553,2.1553,0,0,0,1.3418.543c.52344,0,.77051-.24707.77051-.58252,0-.40479-.52344-.58252-1.03711-.78027-.6416-.23682-1.36231-.60206-1.36231-1.41163,0-.84912.68164-1.45117,1.76758-1.45117a2.61933,2.61933,0,0,1,1.60938.58252l-.52344.69092a1.808,1.808,0,0,0-1.06641-.41455c-.4834,0-.71094.227-.71094.5332,0,.38477.48438.53321,1.00684.72071.66211.24658,1.39258.5625,1.39258,1.4707,0,.82959-.66113,1.501-1.88574,1.501A3.07091,3.07091,0,0,1,183.82129,59.3584Z" fill="#dcddde"/><path d="M221.18262,53.45459h2.18164c1.34277,0,2.37012.47363,2.37012,1.915a1.80722,1.80722,0,0,1-1.28418,1.84619l1.54,2.69531H224.707l-1.3916-2.52734h-.98731v2.52734h-1.1455Zm2.06347,3.021c.87891,0,1.36231-.375,1.36231-1.106,0-.74024-.4834-.99707-1.36231-.99707h-.918v2.103Z" fill="#dcddde"/><path d="M226.76367,57.49219a2.35927,2.35927,0,0,1,2.23145-2.54688c1.31347,0,2.0039.94776,2.0039,2.3003a2.66975,2.66975,0,0,1-.04882.55273h-3.08008a1.38733,1.38733,0,0,0,1.43164,1.35254,2.02538,2.02538,0,0,0,1.125-.35547l.38476.71094a3.05579,3.05579,0,0,1-1.6582.52344A2.33787,2.33787,0,0,1,226.76367,57.49219Zm3.24805-.46387c0-.75-.3252-1.20459-.98633-1.20459a1.21724,1.21724,0,0,0-1.165,1.20459Z" fill="#dcddde"/><path d="M231.73242,55.064h1.15528l.7705,2.51709c.12793.47413.27637.96778.4043,1.46143h.04c.13769-.49365.27637-.9873.41406-1.46143l.77051-2.51709h1.0957l-1.64843,4.84717H233.4209Z" fill="#dcddde"/><path d="M237.0957,57.49219a2.35927,2.35927,0,0,1,2.23145-2.54688c1.31347,0,2.0039.94776,2.0039,2.3003a2.66975,2.66975,0,0,1-.04882.55273h-3.08008a1.38733,1.38733,0,0,0,1.43164,1.35254,2.02538,2.02538,0,0,0,1.125-.35547l.38476.71094a3.05576,3.05576,0,0,1-1.6582.52344A2.33787,2.33787,0,0,1,237.0957,57.49219Zm3.24805-.46387c0-.75-.3252-1.20459-.98633-1.20459a1.21725,1.21725,0,0,0-1.165,1.20459Z" fill="#dcddde"/><path d="M242.667,55.064h.9375l.0791.85889h.04a1.64656,1.64656,0,0,1,1.37207-.97754,1.23518,1.23518,0,0,1,.55274.09864l-.19727.9873a1.58565,1.58565,0,0,0-.5039-.0791c-.38477,0-.84864.2666-1.14454.99707v2.96191H242.667Z" fill="#dcddde"/><path d="M247.624,59.398h-.02929l-.09864.51318h-.89843V52.94141h1.13574v1.79638l-.03028.80957a2.21257,2.21257,0,0,1,1.40235-.602c1.21387,0,1.915.96729,1.915,2.458,0,1.66846-.99707,2.62647-2.07324,2.62647A1.9386,1.9386,0,0,1,247.624,59.398Zm2.22168-1.97461c0-.96777-.3164-1.54-1.04687-1.54a1.5468,1.5468,0,0,0-1.06543.543V58.687a1.512,1.512,0,0,0,.97656.40479C249.35156,59.0918,249.8457,58.519,249.8457,57.42334Z" fill="#dcddde"/><path d="M288.01953,53.45459h1.72754a2.85035,2.85035,0,0,1,3.13965,3.19873c0,2.14209-1.165,3.25781-3.08008,3.25781h-1.78711Zm1.64844,5.52832c1.30371,0,2.04394-.74023,2.04394-2.32959,0-1.57959-.74023-2.27051-2.04394-2.27051H289.165v4.6001Z" fill="#dcddde"/><path d="M294.3418,55.064h.9375l.0791.85889h.04a1.64655,1.64655,0,0,1,1.37207-.97754,1.23514,1.23514,0,0,1,.55273.09864l-.19726.9873a1.58567,1.58567,0,0,0-.50391-.0791c-.38477,0-.84863.2666-1.14453.99707v2.96191H294.3418Z" fill="#dcddde"/><path d="M298.14453,53.57324a.70341.70341,0,1,1,.7002.6416A.65151.65151,0,0,1,298.14453,53.57324Zm.12793,1.49072h1.13574v4.84717h-1.13574Z" fill="#dcddde"/><path d="M300.50488,55.064h1.15528l.7705,2.51709c.12793.47413.27637.96778.4043,1.46143h.04c.1377-.49365.27637-.9873.41406-1.46143l.77051-2.51709h1.0957l-1.64843,4.84717h-1.31348Z" fill="#dcddde"/><path d="M305.86816,57.49219a2.35927,2.35927,0,0,1,2.23145-2.54688c1.31348,0,2.00391.94776,2.00391,2.3003a2.66964,2.66964,0,0,1-.04883.55273h-3.08008a1.38733,1.38733,0,0,0,1.43164,1.35254,2.02538,2.02538,0,0,0,1.125-.35547l.38477.71094a3.05582,3.05582,0,0,1-1.65821.52344A2.33787,2.33787,0,0,1,305.86816,57.49219Zm3.24805-.46387c0-.75-.32519-1.20459-.98633-1.20459a1.21725,1.21725,0,0,0-1.165,1.20459Z" fill="#dcddde"/><path d="M350.86426,53.45459h1.14551v5.48926h2.68554v.96728h-3.83105Z" fill="#dcddde"/><path d="M355.52637,57.49219a2.35927,2.35927,0,0,1,2.23144-2.54688c1.31348,0,2.00391.94776,2.00391,2.3003a2.66894,2.66894,0,0,1-.04883.55273h-3.08008a1.38734,1.38734,0,0,0,1.43164,1.35254,2.02535,2.02535,0,0,0,1.125-.35547l.38477.71094a3.05581,3.05581,0,0,1-1.6582.52344A2.33786,2.33786,0,0,1,355.52637,57.49219Zm3.248-.46387c0-.75-.32519-1.20459-.98632-1.20459a1.21724,1.21724,0,0,0-1.165,1.20459Z" fill="#dcddde"/><path d="M360.49512,55.064h1.15527l.77051,2.51709c.12793.47413.27637.96778.4043,1.46143h.04c.1377-.49365.27637-.9873.41407-1.46143l.7705-2.51709h1.09571l-1.64844,4.84717h-1.31348Z" fill="#dcddde"/><path d="M365.8584,57.49219a2.35927,2.35927,0,0,1,2.23144-2.54688c1.31348,0,2.00391.94776,2.00391,2.3003a2.66894,2.66894,0,0,1-.04883.55273h-3.08008a1.38734,1.38734,0,0,0,1.43164,1.35254,2.02533,2.02533,0,0,0,1.125-.35547l.38477.71094a3.05581,3.05581,0,0,1-1.6582.52344A2.33786,2.33786,0,0,1,365.8584,57.49219Zm3.248-.46387c0-.75-.3252-1.20459-.98633-1.20459a1.21724,1.21724,0,0,0-1.165,1.20459Z" fill="#dcddde"/><path d="M371.42969,58.667V52.94141h1.13574v5.78515c0,.27637.12793.375.24609.375a.68586.68586,0,0,0,.17774-.01953l.14844.84863a1.546,1.546,0,0,1-.60254.09913C371.72559,60.02979,371.42969,59.50635,371.42969,58.667Z" fill="#dcddde"/><path d="M46.42188,272.68359h1.34277l2.10254,6.45655h-1.2041l-.50391-1.74756H45.9873l-.50292,1.74756h-1.165Zm-.168,3.81055h1.64843l-.22656-.78955c-.207-.68115-.39453-1.42188-.582-2.13232h-.04c-.17773.7207-.36523,1.45117-.57226,2.13232Z" fill="#dcddde"/><path d="M107.90137,272.68359h2.06347c1.333,0,2.31055.40479,2.31055,1.58936a1.45517,1.45517,0,0,1-.89844,1.40185v.03956a1.47509,1.47509,0,0,1,1.2334,1.53027c0,1.29346-1.05566,1.89551-2.47754,1.89551h-2.23144Zm1.96484,2.66553c.89844,0,1.2832-.35547,1.2832-.9082,0-.63184-.4248-.86865-1.26367-.86865h-.83886v1.77685Zm.14746,2.90234c.94824,0,1.48145-.34521,1.48145-1.06591,0-.68116-.51367-.97754-1.48145-.97754h-.96679v2.04345Z" fill="#dcddde"/><path d="M160.58008,275.93164c0-2.11279,1.32324-3.3667,2.95215-3.3667a2.56594,2.56594,0,0,1,1.86621.81934l-.61231.74072a1.6834,1.6834,0,0,0-1.22461-.563c-1.05566,0-1.80664.88867-1.80664,2.33985,0,1.47119.69141,2.35986,1.77735,2.35986a1.83893,1.83893,0,0,0,1.38183-.66162l.61231.7207a2.60329,2.60329,0,0,1-2.03321.938C161.86426,279.25879,160.58008,278.07373,160.58008,275.93164Z" fill="#dcddde"/><path d="M166.4375,276.72119a2.31626,2.31626,0,1,1,2.30078,2.5376A2.34556,2.34556,0,0,1,166.4375,276.72119Zm3.44629,0c0-.977-.43457-1.61865-1.14551-1.61865s-1.13574.6416-1.13574,1.61865c0,.96777.4248,1.60938,1.13574,1.60938S169.88379,277.689,169.88379,276.72119Z" fill="#dcddde"/><path d="M172.42383,274.293h.9375l.0791.66113h.04a2.04791,2.04791,0,0,1,1.48047-.77978,1.31876,1.31876,0,0,1,1.34277.86865,2.20005,2.20005,0,0,1,1.55957-.86865c1.02734,0,1.501.70068,1.501,1.92529v3.04053h-1.14551v-2.89258c0-.79981-.23633-1.0957-.74023-1.0957a1.50642,1.50642,0,0,0-1.01661.60205v3.38623h-1.13574v-2.89258c0-.79981-.23633-1.0957-.75-1.0957a1.52622,1.52622,0,0,0-1.0166.60205v3.38623h-1.13574Z" fill="#dcddde"/><path d="M182.02344,278.627h-.0293l-.09863.51319h-.89844v-6.96973h1.13574v1.79639l-.03027.80957a2.21252,2.21252,0,0,1,1.40234-.602c1.21387,0,1.915.96728,1.915,2.458,0,1.66846-.99707,2.62647-2.07324,2.62647A1.93852,1.93852,0,0,1,182.02344,278.627Zm2.22168-1.97461c0-.96777-.31641-1.54-1.04688-1.54a1.5468,1.5468,0,0,0-1.06543.543V277.916a1.51207,1.51207,0,0,0,.97657.40478C183.752,278.3208,184.24512,277.74805,184.24512,276.65234Z" fill="#dcddde"/><path d="M224.82324,278.311l.67188-.78028a2.5666,2.5666,0,0,0,1.67773.731c.73047,0,1.126-.32617,1.126-.82959,0-.5332-.415-.70068-.99707-.94775l-.88867-.38477a1.86123,1.86123,0,0,1-1.30371-1.71777,1.964,1.964,0,0,1,2.17187-1.8169,2.84811,2.84811,0,0,1,1.98437.81934l-.582.731a2.10366,2.10366,0,0,0-1.40234-.55322c-.61133,0-1.0166.28662-1.0166.76026,0,.50341.49414.6914,1.02637.9082l.8789.36523a1.80692,1.80692,0,0,1,1.30371,1.74756,2.05286,2.05286,0,0,1-2.32031,1.91553A3.34549,3.34549,0,0,1,224.82324,278.311Z" fill="#dcddde"/><path d="M230.7002,278.48877a.74.74,0,0,1,.74023-.77.77109.77109,0,0,1,0,1.54A.74026.74026,0,0,1,230.7002,278.48877Z" fill="#dcddde"/><path d="M232.31152,272.68359h1.21387l.9082,3.24805c.207.73047.35547,1.36231.57227,2.10254h.04c.2168-.74023.36523-1.37207.5625-2.10254l.89844-3.24805h1.1748l-2.00391,6.45655H234.3252Z" fill="#dcddde"/><path d="M237.82227,278.48877a.74056.74056,0,0,1,.74023-.77.77109.77109,0,0,1,0,1.54A.74085.74085,0,0,1,237.82227,278.48877Z" fill="#dcddde"/><path d="M240.9834,272.68359h3.89941v.96729h-2.7539v1.82666h2.34961v.96728h-2.34961v2.69532H240.9834Z" fill="#dcddde"/><path d="M245.26074,278.48877a.74.74,0,0,1,.74024-.77.77109.77109,0,0,1,0,1.54A.74027.74027,0,0,1,245.26074,278.48877Z" fill="#dcddde"/><path d="M288.02051,272.68359h1.72754a2.85035,2.85035,0,0,1,3.13965,3.19873c0,2.14209-1.165,3.25782-3.08008,3.25782h-1.78711Zm1.64844,5.52832c1.30371,0,2.04394-.74023,2.04394-2.32959,0-1.57959-.74023-2.271-2.04394-2.271H289.166v4.60058Z" fill="#dcddde"/><path d="M294.34277,274.293h.9375l.07911.85889h.04a1.64654,1.64654,0,0,1,1.37207-.97754,1.2352,1.2352,0,0,1,.55274.09863l-.19727.9873a1.58593,1.58593,0,0,0-.5039-.0791c-.38477,0-.84864.2666-1.14453.99707v2.96192h-1.13575Z" fill="#dcddde"/><path d="M298.14551,272.80225a.70341.70341,0,1,1,.70019.6416A.65151.65151,0,0,1,298.14551,272.80225Zm.12793,1.49072h1.13574v4.84717h-1.13574Z" fill="#dcddde"/><path d="M300.50586,274.293h1.15527l.77051,2.51709c.12793.47412.27637.96777.4043,1.46142h.04c.13769-.49365.27636-.9873.41406-1.46142l.77051-2.51709h1.0957l-1.64844,4.84717h-1.31347Z" fill="#dcddde"/><path d="M305.86914,276.72119a2.35926,2.35926,0,0,1,2.23145-2.54687c1.31347,0,2.0039.94775,2.0039,2.30029a2.66894,2.66894,0,0,1-.04883.55273h-3.08007a1.38733,1.38733,0,0,0,1.43164,1.35254,2.02538,2.02538,0,0,0,1.125-.35547l.38476.71094a3.05581,3.05581,0,0,1-1.6582.52344A2.33787,2.33787,0,0,1,305.86914,276.72119Zm3.248-.46387c0-.75048-.3252-1.20459-.98633-1.20459a1.21724,1.21724,0,0,0-1.165,1.20459Z" fill="#dcddde"/><path d="M350.86523,272.68359h1.14551v5.48926h2.68555v.96729h-3.83106Z" fill="#dcddde"/><path d="M355.52734,276.72119a2.35926,2.35926,0,0,1,2.23145-2.54687c1.31348,0,2.00391.94775,2.00391,2.30029a2.66964,2.66964,0,0,1-.04883.55273h-3.08008a1.38733,1.38733,0,0,0,1.43164,1.35254,2.02538,2.02538,0,0,0,1.125-.35547l.38477.71094a3.05582,3.05582,0,0,1-1.65821.52344A2.33787,2.33787,0,0,1,355.52734,276.72119Zm3.24805-.46387c0-.75048-.32519-1.20459-.98633-1.20459a1.21725,1.21725,0,0,0-1.165,1.20459Z" fill="#dcddde"/><path d="M360.49609,274.293h1.15528l.77051,2.51709c.12792.47412.27636.96777.40429,1.46142h.04c.1377-.49365.27637-.9873.41406-1.46142l.77051-2.51709h1.0957l-1.64843,4.84717h-1.31348Z" fill="#dcddde"/><path d="M365.85938,276.72119a2.35925,2.35925,0,0,1,2.23144-2.54687c1.31348,0,2.00391.94775,2.00391,2.30029a2.66894,2.66894,0,0,1-.04883.55273h-3.08008a1.38733,1.38733,0,0,0,1.43164,1.35254,2.02538,2.02538,0,0,0,1.125-.35547l.38477.71094a3.05582,3.05582,0,0,1-1.65821.52344A2.33786,2.33786,0,0,1,365.85938,276.72119Zm3.248-.46387c0-.75048-.32519-1.20459-.98633-1.20459a1.21725,1.21725,0,0,0-1.165,1.20459Z" fill="#dcddde"/><path d="M371.43066,277.896v-5.72559h1.13575v5.78516c0,.27636.12793.375.24609.375a.68579.68579,0,0,0,.17773-.01953l.14844.84863a1.546,1.546,0,0,1-.60254.09912C371.72656,279.25879,371.43066,278.73535,371.43066,277.896Z" fill="#dcddde"/><path d="M355.8584,116.33252h2.03418c1.43066,0,2.49707.49365,2.49707,1.99414,0,1.43164-1.06641,2.09326-2.458,2.09326h-.92773v2.36914H355.8584Zm1.98437,3.16894c.958,0,1.42188-.38476,1.42188-1.1748,0-.80957-.50391-1.07617-1.46094-1.07617h-.7998v2.251Z" fill="#dcddde"/><path d="M361.85449,116.33252h1.293l1.14551,3.15918c.13867.40478.27637.83935.415,1.26367h.03906c.13867-.42432.2666-.85889.40527-1.26367l1.11524-3.15918h1.30273v6.45654h-1.05566V119.8374c0-.60254.08887-1.46142.14746-2.05371h-.03906l-.52344,1.50049L365.043,122.187h-.68067l-1.0664-2.90283-.51367-1.50049h-.03907c.04883.59229.14844,1.45117.14844,2.05371v2.95166h-1.03711Z" fill="#dcddde"/><path d="M286.1582,116.33252h1.14551v2.59619h2.61621v-2.59619h1.14453v6.45654h-1.14453v-2.86279h-2.61621v2.86279H286.1582Z" fill="#dcddde"/><path d="M292.72754,116.45117a.70341.70341,0,1,1,.70019.6416A.6515.6515,0,0,1,292.72754,116.45117Zm.12793,1.49072h1.13574v4.84717h-1.13574Z" fill="#dcddde"/><path d="M297.67578,119.58057c0-2.1128,1.32324-3.3667,2.95215-3.3667a2.56592,2.56592,0,0,1,1.86621.81933l-.6123.74073a1.68343,1.68343,0,0,0-1.22461-.563c-1.05567,0-1.80664.88867-1.80664,2.33984,0,1.47119.6914,2.35986,1.77734,2.35986a1.839,1.839,0,0,0,1.38184-.66162l.6123.72071a2.60327,2.60327,0,0,1-2.0332.938C298.96,122.90771,297.67578,121.72266,297.67578,119.58057Z" fill="#dcddde"/><path d="M303.7002,120.98242v-3.04053h1.13574v2.89258c0,.79932.22754,1.09571.75,1.09571.4248,0,.71094-.19727,1.07617-.67139v-3.3169h1.13574v4.84717h-.92773l-.08887-.71094H306.751a1.97516,1.97516,0,0,1-1.55957.82959C304.1543,122.90771,303.7002,122.20654,303.7002,120.98242Z" fill="#dcddde"/><path d="M309.65723,121.15039v-2.31055h-.69141v-.84863l.751-.04932.13769-1.32324h.94824v1.32324h1.2334v.89795h-1.2334v2.31055c0,.57227.2168.84863.68067.84863a1.39641,1.39641,0,0,0,.5039-.1084l.19727.83936a3.09767,3.09767,0,0,1-.9873.17773C310.07129,122.90771,309.65723,122.19678,309.65723,121.15039Z" fill="#dcddde"/><path d="M221.07227,116.33252H222.415l2.10254,6.45654h-1.2041l-.50391-1.74756H220.6377l-.50293,1.74756h-1.165Zm-.168,3.81055h1.64843l-.22656-.78955c-.207-.68116-.39453-1.42188-.582-2.13233h-.04c-.17773.7207-.36523,1.45117-.57226,2.13233Z" fill="#dcddde"/><path d="M225.56738,116.33252h2.03418c1.43067,0,2.49707.49365,2.49707,1.99414,0,1.43164-1.0664,2.09326-2.458,2.09326h-.92773v2.36914h-1.14551Zm1.98438,3.16894c.958,0,1.42187-.38476,1.42187-1.1748,0-.80957-.5039-1.07617-1.46093-1.07617h-.79981v2.251Z" fill="#dcddde"/><path d="M235.08887,117.2998h-1.86621v-.96728h4.877v.96728H236.2334v5.48926h-1.14453Z" fill="#dcddde"/><path d="M238.84277,120.98242v-3.04053h1.13575v2.89258c0,.79932.22753,1.09571.75,1.09571.4248,0,.71093-.19727,1.07617-.67139v-3.3169h1.13574v4.84717h-.92773l-.08887-.71094h-.03028a1.97513,1.97513,0,0,1-1.55957.82959C239.29688,122.90771,238.84277,122.20654,238.84277,120.98242Z" fill="#dcddde"/><path d="M244.63184,117.94189h.9375l.0791.65137h.04a2.252,2.252,0,0,1,1.58886-.77c1.03711,0,1.49121.70117,1.49121,1.9253v3.04052h-1.13574v-2.89258c0-.7998-.22656-1.0957-.75976-1.0957a1.53352,1.53352,0,0,0-1.10547.602v3.38623h-1.13574Z" fill="#dcddde"/><path d="M250.09375,120.37012a2.35927,2.35927,0,0,1,2.23145-2.54688c1.31347,0,2.0039.94776,2.0039,2.3003a2.66894,2.66894,0,0,1-.04883.55273H251.2002a1.38733,1.38733,0,0,0,1.43164,1.35254,2.02538,2.02538,0,0,0,1.125-.35547l.38476.71094a3.05581,3.05581,0,0,1-1.6582.52343A2.33785,2.33785,0,0,1,250.09375,120.37012Zm3.24805-.46387c0-.75-.3252-1.20459-.98633-1.20459a1.21724,1.21724,0,0,0-1.165,1.20459Z" fill="#dcddde"/><path d="M356.21484,209.69287h3.89942v.96729h-2.75391v1.82666H359.71v.96728h-2.34961v2.69531h-1.14551Z" fill="#dcddde"/><path d="M361.499,209.69287h1.293l1.14551,3.15918c.13867.40479.27637.83936.415,1.26367h.03906c.13867-.42431.2666-.85888.40528-1.26367l1.11523-3.15918h1.30273v6.45654h-1.05566v-2.95166c0-.60254.08887-1.46142.14746-2.05371h-.03906l-.52344,1.50049-1.05664,2.90283h-.68066l-1.06641-2.90283-.51367-1.50049h-.03906c.04882.59229.14843,1.45117.14843,2.05371v2.95166H361.499Z" fill="#dcddde"/><path d="M283.5459,215.32031l.67187-.78027a2.56664,2.56664,0,0,0,1.67774.731c.73047,0,1.126-.32618,1.126-.82959,0-.53321-.415-.70069-.99707-.94776l-.88867-.38476a1.86125,1.86125,0,0,1-1.30371-1.71778,1.964,1.964,0,0,1,2.17188-1.81689,2.84818,2.84818,0,0,1,1.98437.81933l-.582.731a2.10366,2.10366,0,0,0-1.40234-.55322c-.61133,0-1.01661.28662-1.01661.76025,0,.50342.49415.69141,1.02637.90821l.87891.36523a1.80691,1.80691,0,0,1,1.30371,1.74756,2.05286,2.05286,0,0,1-2.32031,1.91553A3.34548,3.34548,0,0,1,283.5459,215.32031Z" fill="#dcddde"/><path d="M289.52148,211.30225h.9375l.07911.51318h.04a2.36092,2.36092,0,0,1,1.46094-.63184c1.2041,0,1.90528.96729,1.90528,2.46827,0,1.6582-.99707,2.61621-2.07325,2.61621a1.96323,1.96323,0,0,1-1.24414-.53321l.03028.80957v1.52h-1.13575Zm3.248,2.35937c0-.96777-.31641-1.54-1.04687-1.54a1.5468,1.5468,0,0,0-1.06543.543v2.26074a1.53124,1.53124,0,0,0,.97656.40479C292.27539,215.33008,292.76953,214.75732,292.76953,213.66162Z" fill="#dcddde"/><path d="M295.33984,211.30225h.9375l.07911.85888h.04a1.64656,1.64656,0,0,1,1.37207-.97754,1.23518,1.23518,0,0,1,.55274.09864l-.19727.9873a1.58565,1.58565,0,0,0-.5039-.0791c-.38477,0-.84864.2666-1.14453.99707v2.96191h-1.13575Z" fill="#dcddde"/><path d="M298.85645,213.73047a2.35926,2.35926,0,0,1,2.23144-2.54688c1.31348,0,2.00391.94776,2.00391,2.3003a2.66894,2.66894,0,0,1-.04883.55273h-3.08008a1.38733,1.38733,0,0,0,1.43164,1.35254,2.02538,2.02538,0,0,0,1.125-.35547l.38477.71094a3.05582,3.05582,0,0,1-1.65821.52344A2.33786,2.33786,0,0,1,298.85645,213.73047Zm3.248-.46387c0-.75-.32519-1.20459-.98633-1.20459a1.21725,1.21725,0,0,0-1.165,1.20459Z" fill="#dcddde"/><path d="M304.05176,214.84619c0-1.03662.85937-1.57959,2.85351-1.79687-.01953-.51319-.22754-.94776-.88867-.94776a2.76185,2.76185,0,0,0-1.3623.47412l-.415-.76025a3.79513,3.79513,0,0,1,1.99414-.63184c1.20508,0,1.80664.74024,1.80664,2.09278v2.873h-.9375l-.0791-.5332h-.03906a2.36255,2.36255,0,0,1-1.501.65186A1.35556,1.35556,0,0,1,304.05176,214.84619Zm2.85351,0v-1.08594c-1.32324.168-1.75781.51319-1.75781.99707,0,.43457.29688.62207.70117.62207A1.54127,1.54127,0,0,0,306.90527,214.84619Z" fill="#dcddde"/><path d="M309.35645,213.73047a2.28376,2.28376,0,0,1,2.05273-2.54688,1.79222,1.79222,0,0,1,1.27441.53321l-.04-.78028v-1.75683h1.13575v6.96972h-.93848l-.0791-.52343h-.03906a2.01941,2.01941,0,0,1-1.37207.64209C310.13574,216.26807,309.35645,215.33008,309.35645,213.73047Zm3.2871,1.05664v-2.26074a1.44415,1.44415,0,0,0-.9873-.40479c-.62207,0-1.125.58252-1.125,1.59912,0,1.04639.39453,1.60938,1.0957,1.60938A1.30793,1.30793,0,0,0,312.64355,214.78711Z" fill="#dcddde"/><path d="M223.24219,209.69287h2.18164c1.34277,0,2.36914.47363,2.36914,1.915a1.80647,1.80647,0,0,1-1.2832,1.84619l1.54,2.69531h-1.2832l-1.3916-2.52734h-.9873v2.52734h-1.14551Zm2.06347,3.021c.87891,0,1.36231-.375,1.36231-1.106,0-.74023-.4834-.99707-1.36231-.99707h-.918v2.103Z" fill="#dcddde"/><path d="M228.82324,213.73047a2.35927,2.35927,0,0,1,2.23145-2.54688c1.31347,0,2.0039.94776,2.0039,2.3003a2.66975,2.66975,0,0,1-.04882.55273h-3.08008a1.38733,1.38733,0,0,0,1.43164,1.35254,2.02538,2.02538,0,0,0,1.125-.35547l.38476.71094a3.05576,3.05576,0,0,1-1.6582.52344A2.33787,2.33787,0,0,1,228.82324,213.73047Zm3.24805-.46387c0-.75-.3252-1.20459-.98633-1.20459a1.21724,1.21724,0,0,0-1.165,1.20459Z" fill="#dcddde"/><path d="M233.91113,215.59668l.53321-.73047a2.15527,2.15527,0,0,0,1.34179.543c.52344,0,.77051-.24707.77051-.58252,0-.40478-.52344-.58252-1.03711-.78027-.6416-.23682-1.3623-.602-1.3623-1.41162,0-.84913.68164-1.45118,1.76757-1.45118a2.61933,2.61933,0,0,1,1.60938.58252l-.52344.69092a1.808,1.808,0,0,0-1.0664-.41455c-.4834,0-.71094.227-.71094.5332,0,.38477.48437.53321,1.00683.72071.66211.24658,1.39258.5625,1.39258,1.4707,0,.82959-.66113,1.501-1.88574,1.501A3.07089,3.07089,0,0,1,233.91113,215.59668Z" fill="#dcddde"/><path d="M238.582,213.73047a2.31626,2.31626,0,1,1,2.30078,2.5376A2.34557,2.34557,0,0,1,238.582,213.73047Zm3.44629,0c0-.977-.43457-1.61865-1.14551-1.61865s-1.13574.6416-1.13574,1.61865c0,.96777.42481,1.60937,1.13574,1.60937S242.02832,214.69824,242.02832,213.73047Z" fill="#dcddde"/><path d="M244.56836,211.30225h.9375l.0791.65136h.04a2.25013,2.25013,0,0,1,1.58887-.77c1.03711,0,1.49121.70118,1.49121,1.9253v3.04052h-1.13574v-2.89257c0-.79981-.22657-1.09571-.75977-1.09571a1.53354,1.53354,0,0,0-1.10547.602v3.38623h-1.13574Z" fill="#dcddde"/><path d="M158.13965,212.94092c0-2.1128,1.32324-3.3667,2.95215-3.3667a2.56594,2.56594,0,0,1,1.86621.81933l-.61231.74073a1.6834,1.6834,0,0,0-1.22461-.563c-1.05566,0-1.80664.88867-1.80664,2.33984,0,1.47119.69141,2.35987,1.77735,2.35987a1.839,1.839,0,0,0,1.38183-.66162l.61231.7207a2.60329,2.60329,0,0,1-2.03321.938C159.42383,216.26807,158.13965,215.083,158.13965,212.94092Z" fill="#dcddde"/><path d="M164.165,214.34277v-3.04052h1.13574v2.89257c0,.79932.22754,1.09571.75,1.09571.42481,0,.71094-.19727,1.07617-.67139v-3.31689h1.13575v4.84716H167.335l-.08887-.71093h-.03027a1.97519,1.97519,0,0,1-1.55957.82959C164.61914,216.26807,164.165,215.56689,164.165,214.34277Z" fill="#dcddde"/><path d="M170.12207,214.51074V212.2002h-.69141v-.84864l.751-.04931.1377-1.32325h.94824v1.32325h1.2334v.898h-1.2334v2.31054c0,.57227.2168.84864.68066.84864a1.39667,1.39667,0,0,0,.50391-.1084l.19726.83935a3.0976,3.0976,0,0,1-.9873.17774C170.53613,216.26807,170.12207,215.55713,170.12207,214.51074Z" fill="#dcddde"/><path d="M175.752,212.8916c0-2.083,1.165-3.31738,2.84375-3.31738,1.68848,0,2.85254,1.23437,2.85254,3.31738,0,2.09278-1.16406,3.37647-2.85254,3.37647C176.917,216.26807,175.752,214.98438,175.752,212.8916Zm4.51172,0c0-1.4414-.65137-2.32031-1.668-2.32031s-1.66894.87891-1.66894,2.32031c0,1.45117.65234,2.3794,1.66894,2.3794S180.26367,214.34277,180.26367,212.8916Z" fill="#dcddde"/><path d="M186.0625,212.2002h-1.83594v3.94921h-1.13574V212.2002h-.65137v-.84864l.65137-.04931v-.42481a1.53834,1.53834,0,0,1,1.67871-1.71777,2.38449,2.38449,0,0,1,.94727.17773l-.2168.84912a1.30377,1.30377,0,0,0-.6123-.12841c-.4043,0-.66114.27636-.66114.81933v.42481h1.83594v-.50391c0-1.00684.4541-1.7373,1.59961-1.7373a2.41337,2.41337,0,0,1,.88867.168l-.21777.84864a1.26525,1.26525,0,0,0-.52344-.11817c-.4043,0-.61133.25684-.61133.81934v.52344h.94727v.898h-.94727v3.94921H186.0625Z" fill="#dcddde"/><path d="M88.71289,212.94092c0-2.1128,1.32324-3.3667,2.95215-3.3667a2.56592,2.56592,0,0,1,1.86621.81933l-.6123.74073a1.68343,1.68343,0,0,0-1.22461-.563c-1.05567,0-1.80664.88867-1.80664,2.33984,0,1.47119.6914,2.35987,1.77734,2.35987a1.839,1.839,0,0,0,1.38184-.66162l.6123.7207a2.60328,2.60328,0,0,1-2.0332.938C89.99707,216.26807,88.71289,215.083,88.71289,212.94092Z" fill="#dcddde"/><path d="M94.57031,213.73047a2.31626,2.31626,0,1,1,2.30078,2.5376A2.34557,2.34557,0,0,1,94.57031,213.73047Zm3.44629,0c0-.977-.43457-1.61865-1.14551-1.61865s-1.13574.6416-1.13574,1.61865c0,.96777.42481,1.60937,1.13574,1.60937S98.0166,214.69824,98.0166,213.73047Z" fill="#dcddde"/><path d="M100.55664,211.30225h.9375l.0791.66113h.04a2.04793,2.04793,0,0,1,1.48047-.77979,1.31877,1.31877,0,0,1,1.34277.86866,2.2,2.2,0,0,1,1.55957-.86866c1.02735,0,1.501.70118,1.501,1.9253v3.04052h-1.14551v-2.89257c0-.79981-.23633-1.09571-.74023-1.09571a1.50644,1.50644,0,0,0-1.0166.602v3.38623H103.459v-2.89257c0-.79981-.23632-1.09571-.75-1.09571a1.52628,1.52628,0,0,0-1.0166.602v3.38623h-1.13574Z" fill="#dcddde"/><path d="M110.15625,215.63623h-.0293l-.09863.51318h-.89844v-6.96972h1.13574v1.79638l-.03027.80957a2.21258,2.21258,0,0,1,1.40235-.602c1.21386,0,1.915.96729,1.915,2.458,0,1.66846-.99707,2.62647-2.07324,2.62647A1.93854,1.93854,0,0,1,110.15625,215.63623Zm2.22168-1.97461c0-.96777-.31641-1.54-1.04688-1.54a1.54682,1.54682,0,0,0-1.06543.543v2.26074a1.512,1.512,0,0,0,.97657.40479C111.88477,215.33008,112.37793,214.75732,112.37793,213.66162Z" fill="#dcddde"/><path d="M117.25977,209.69287h1.293l1.14551,3.15918c.13867.40479.27637.83936.415,1.26367h.03906c.13868-.42431.26661-.85888.40528-1.26367l1.11523-3.15918h1.30274v6.45654h-1.05567v-2.95166c0-.60254.08887-1.46142.14746-2.05371h-.03906l-.52344,1.50049-1.05664,2.90283h-.68066l-1.06641-2.90283-.51367-1.50049h-.03906c.04883.59229.14844,1.45117.14844,2.05371v2.95166h-1.03711Z" fill="#dcddde"/><path d="M124.63867,209.81152a.70341.70341,0,1,1,.7002.6416A.65151.65151,0,0,1,124.63867,209.81152Zm.12793,1.49073h1.13574v4.84716H124.7666Z" fill="#dcddde"/><path d="M128.55957,213.62207l-1.44141-2.31982h1.22364l.543.918c.13867.26661.29589.55274.44433.81934h.04c.11816-.2666.25586-.55273.375-.81934l.46387-.918h1.1748l-1.43164,2.44824,1.54,2.39892h-1.22363l-.59278-.95752c-.1582-.28662-.32617-.58251-.49414-.85888h-.03906c-.13769.27637-.28613.5625-.4248.85888l-.5127.95752h-1.18457Z" fill="#dcddde"/><path d="M38.63379,209.69287h1.34277l2.10254,6.45654H40.875l-.50391-1.74755H38.19922l-.50293,1.74755h-1.165Zm-.168,3.81055h1.64844l-.22656-.78955c-.207-.68116-.39454-1.42188-.582-2.13233h-.04c-.17773.72071-.36523,1.45117-.57226,2.13233Z" fill="#dcddde"/><path d="M44.94727,213.28662h3.90918v.75H44.94727Z" fill="#dcddde"/><path d="M52.56152,209.69287H54.625c1.333,0,2.31055.40479,2.31055,1.58936a1.45517,1.45517,0,0,1-.89844,1.40185v.03955a1.4751,1.4751,0,0,1,1.2334,1.53028c0,1.29345-1.05567,1.8955-2.47754,1.8955H52.56152Zm1.96485,2.66553c.89843,0,1.2832-.35547,1.2832-.9082,0-.63184-.4248-.86866-1.26367-.86866H53.707v1.77686Zm.14746,2.90234c.94824,0,1.48144-.34521,1.48144-1.06592,0-.68115-.51367-.97753-1.48144-.97753H53.707v2.04345Z" fill="#dcddde"/><path d="M160.47559,116.33252h1.72753a2.85035,2.85035,0,0,1,3.13965,3.19873c0,2.14209-1.165,3.25781-3.08007,3.25781h-1.78711Zm1.64843,5.52832c1.30371,0,2.04395-.74023,2.04395-2.32959,0-1.57959-.74024-2.27051-2.04395-2.27051h-.50293v4.6001Z" fill="#dcddde"/><path d="M166.48145,120.37012a2.35926,2.35926,0,0,1,2.23144-2.54688c1.31348,0,2.00391.94776,2.00391,2.3003a2.66894,2.66894,0,0,1-.04883.55273h-3.08008a1.38733,1.38733,0,0,0,1.43164,1.35254,2.02538,2.02538,0,0,0,1.125-.35547l.38477.71094a3.05581,3.05581,0,0,1-1.65821.52343A2.33785,2.33785,0,0,1,166.48145,120.37012Zm3.248-.46387c0-.75-.32519-1.20459-.98633-1.20459a1.21724,1.21724,0,0,0-1.165,1.20459Z" fill="#dcddde"/><path d="M171.73633,120.37012a2.3912,2.3912,0,0,1,2.42871-2.54688,2.08858,2.08858,0,0,1,1.42187.543l-.55273.74024a1.18569,1.18569,0,0,0-.80957-.355c-.78027,0-1.32324.64161-1.32324,1.61866,0,.96777.5332,1.60937,1.29394,1.60937a1.61664,1.61664,0,0,0,.99707-.41455l.46387.75049a2.422,2.422,0,0,1-1.58008.59228A2.30687,2.30687,0,0,1,171.73633,120.37012Z" fill="#dcddde"/><path d="M176.50684,121.48584c0-1.03662.85937-1.57959,2.85351-1.79688-.01953-.51318-.22754-.94775-.88867-.94775a2.76185,2.76185,0,0,0-1.3623.47412l-.415-.76025a3.79513,3.79513,0,0,1,1.99414-.63184c1.20507,0,1.80664.74024,1.80664,2.09278v2.873h-.9375l-.0791-.5332h-.03907a2.36254,2.36254,0,0,1-1.501.65185A1.35555,1.35555,0,0,1,176.50684,121.48584Zm2.85351,0V120.3999c-1.32324.168-1.75781.51319-1.75781.99707,0,.43457.29687.62207.70117.62207A1.54127,1.54127,0,0,0,179.36035,121.48584Z" fill="#dcddde"/><path d="M181.80176,124.68457l.207-.88867a1.18247,1.18247,0,0,0,.3457.06933,1.01532,1.01532,0,0,0,.9668-.82959l.08887-.30566-1.90528-4.78809h1.15528l.83886,2.37891c.13868.42481.27637.9082.42481,1.36279h.04c.11816-.44433.24609-.92822.36523-1.36279l.73047-2.37891h1.0957l-1.75781,5.06446c-.4043,1.0957-.9082,1.77685-1.96387,1.77685A1.88877,1.88877,0,0,1,181.80176,124.68457Z" fill="#dcddde"/><path d="M99.44629,116.33252h2.03418c1.43066,0,2.49707.49365,2.49707,1.99414,0,1.43164-1.06641,2.09326-2.458,2.09326h-.92773v2.36914H99.44629Zm1.98437,3.16894c.958,0,1.42188-.38476,1.42188-1.1748,0-.80957-.50391-1.07617-1.46094-1.07617h-.7998v2.251Z" fill="#dcddde"/><path d="M105.21582,116.45117a.70341.70341,0,1,1,.7002.6416A.65151.65151,0,0,1,105.21582,116.45117Zm.12793,1.49072h1.13574v4.84717h-1.13574Z" fill="#dcddde"/><path d="M108.3457,121.15039v-2.31055h-.6914v-.84863l.75-.04932.13867-1.32324h.94824v1.32324h1.2334v.89795h-1.2334v2.31055c0,.57227.2168.84863.68067.84863a1.39645,1.39645,0,0,0,.5039-.1084l.19727.83936a3.09768,3.09768,0,0,1-.98731.17773C108.75977,122.90771,108.3457,122.19678,108.3457,121.15039Z" fill="#dcddde"/><path d="M111.5166,120.37012a2.3912,2.3912,0,0,1,2.42871-2.54688,2.08863,2.08863,0,0,1,1.42188.543l-.55274.74024a1.18565,1.18565,0,0,0-.80957-.355c-.78027,0-1.32324.64161-1.32324,1.61866,0,.96777.5332,1.60937,1.29395,1.60937a1.61667,1.61667,0,0,0,.99707-.41455l.46386.75049a2.422,2.422,0,0,1-1.58007.59228A2.30687,2.30687,0,0,1,111.5166,120.37012Z" fill="#dcddde"/><path d="M116.64355,115.81934h1.13575v1.79638l-.04.938a2.22453,2.22453,0,0,1,1.5498-.73047c1.03711,0,1.49121.70117,1.49121,1.9253v3.04052h-1.13574v-2.89258c0-.7998-.22656-1.0957-.75976-1.0957a1.5335,1.5335,0,0,0-1.10547.602v3.38623h-1.13575Z" fill="#dcddde"/><path d="M167.22754,13.96143H171.127v.96728h-2.7539v1.82666h2.34961v.96729h-2.34961V20.418h-1.14551Z" fill="#dcddde"/><path d="M171.791,17.999a2.35926,2.35926,0,0,1,2.23144-2.54687c1.31348,0,2.00391.94775,2.00391,2.30029a2.669,2.669,0,0,1-.04883.55274h-3.08008a1.38733,1.38733,0,0,0,1.43164,1.35253,2.02537,2.02537,0,0,0,1.125-.35546l.38477.71093a3.05574,3.05574,0,0,1-1.65821.52344A2.33786,2.33786,0,0,1,171.791,17.999Zm3.248-.46386c0-.75-.32519-1.20459-.98633-1.20459a1.21723,1.21723,0,0,0-1.165,1.20459Z" fill="#dcddde"/><path d="M176.89746,17.999a2.35926,2.35926,0,0,1,2.23145-2.54687c1.31347,0,2.0039.94775,2.0039,2.30029a2.669,2.669,0,0,1-.04883.55274h-3.08007a1.38732,1.38732,0,0,0,1.43164,1.35253,2.02537,2.02537,0,0,0,1.125-.35546l.38476.71093a3.05571,3.05571,0,0,1-1.6582.52344A2.33787,2.33787,0,0,1,176.89746,17.999Zm3.24805-.46386c0-.75-.3252-1.20459-.98633-1.20459a1.21724,1.21724,0,0,0-1.165,1.20459Z" fill="#dcddde"/><path d="M182.02441,17.999a2.28375,2.28375,0,0,1,2.05274-2.54687,1.79226,1.79226,0,0,1,1.27441.5332l-.04-.78027V13.44824h1.13575V20.418h-.93848l-.0791-.52344h-.03907a2.01937,2.01937,0,0,1-1.37207.64209C182.80371,20.53662,182.02441,19.59863,182.02441,17.999Zm3.28711,1.05664V16.79492a1.44418,1.44418,0,0,0-.9873-.40478c-.62207,0-1.125.58252-1.125,1.59912,0,1.04638.39453,1.60937,1.0957,1.60937A1.30793,1.30793,0,0,0,185.31152,19.05566Z" fill="#dcddde"/><path d="M189.0166,19.90479h-.0293l-.09863.51318h-.89844V13.44824H189.126v1.79639l-.03028.80957a2.21257,2.21257,0,0,1,1.40235-.60205c1.21386,0,1.915.96728,1.915,2.458,0,1.66845-.99707,2.62646-2.07325,2.62646A1.93858,1.93858,0,0,1,189.0166,19.90479Zm2.22168-1.97461c0-.96778-.3164-1.54-1.04687-1.54a1.54676,1.54676,0,0,0-1.06543.543v2.26074a1.512,1.512,0,0,0,.97656.40478C190.74414,19.59863,191.23828,19.02588,191.23828,17.93018Z" fill="#dcddde"/><path d="M193.27539,19.11475c0-1.03663.85938-1.57959,2.85352-1.79688-.01953-.51318-.22754-.94775-.88868-.94775a2.76175,2.76175,0,0,0-1.3623.47412l-.415-.76026a3.79522,3.79522,0,0,1,1.99414-.63183c1.20508,0,1.80664.74023,1.80664,2.09277v2.873h-.9375l-.0791-.5332H196.208a2.36255,2.36255,0,0,1-1.501.65185A1.35555,1.35555,0,0,1,193.27539,19.11475Zm2.85352,0V18.02881c-1.32325.168-1.75782.51318-1.75782.99707,0,.43457.29688.62207.70118.62207A1.54133,1.54133,0,0,0,196.12891,19.11475Z" fill="#dcddde"/><path d="M198.41113,17.999a2.3912,2.3912,0,0,1,2.42871-2.54687,2.08858,2.08858,0,0,1,1.42188.543l-.55274.74023a1.18569,1.18569,0,0,0-.80957-.355c-.78027,0-1.32324.6416-1.32324,1.61865,0,.96778.53321,1.60938,1.29395,1.60938a1.61667,1.61667,0,0,0,.99707-.41455l.46386.75049a2.422,2.422,0,0,1-1.58007.59228A2.30688,2.30688,0,0,1,198.41113,17.999Z" fill="#dcddde"/><path d="M203.38965,13.44824h1.11523v4.35352h.03028l1.79687-2.231h1.24317L205.917,17.54492l1.82617,2.873h-1.23339l-1.24415-2.103-.76074.86914V20.418h-1.11523Z" fill="#dcddde"/><path d="M210.81738,13.96143h1.293l1.14551,3.15918c.13867.40478.27637.83935.415,1.26367H213.71c.13867-.42432.2666-.85889.40527-1.26367l1.11524-3.15918h1.30273V20.418h-1.05566V17.46631c0-.60254.08887-1.46143.14746-2.05371h-.03906l-.52344,1.50049-1.05664,2.90283h-.68066l-1.06641-2.90283-.51367-1.50049h-.03907c.04883.59228.14844,1.45117.14844,2.05371V20.418h-1.03711Z" fill="#dcddde"/><path d="M218.04883,14.08008a.70341.70341,0,1,1,.70019.6416A.65151.65151,0,0,1,218.04883,14.08008Zm.12793,1.49072h1.13574V20.418h-1.13574Z" fill="#dcddde"/><path d="M221.82129,17.89062l-1.44141-2.31982h1.22364l.543.918c.13868.2666.2959.55273.44434.81934h.04c.11816-.26661.25586-.55274.375-.81934l.46387-.918h1.1748L223.21289,18.019l1.54,2.39893H223.5293l-.59278-.95752c-.1582-.28662-.32617-.58252-.49414-.85889h-.03906c-.1377.27637-.28613.5625-.4248.85889l-.5127.95752h-1.18457Z" fill="#dcddde"/><path d="M225.17969,17.999a2.35926,2.35926,0,0,1,2.23144-2.54687c1.31348,0,2.00391.94775,2.00391,2.30029a2.669,2.669,0,0,1-.04883.55274h-3.08008a1.38734,1.38734,0,0,0,1.43164,1.35253,2.02534,2.02534,0,0,0,1.125-.35546l.38477.71093a3.05573,3.05573,0,0,1-1.6582.52344A2.33786,2.33786,0,0,1,225.17969,17.999Zm3.248-.46386c0-.75-.32519-1.20459-.98632-1.20459a1.21723,1.21723,0,0,0-1.165,1.20459Z" fill="#dcddde"/><path d="M230.60254,15.5708h.9375l.0791.85889h.04a1.64653,1.64653,0,0,1,1.37207-.97754,1.23512,1.23512,0,0,1,.55273.09863l-.19726.98731a1.58566,1.58566,0,0,0-.50391-.07911c-.38476,0-.84863.26661-1.14453.99707V20.418h-1.13574Z" fill="#dcddde"/><path d="M175.28711,80.20166c0-2.11279,1.32324-3.3667,2.95215-3.3667a2.56589,2.56589,0,0,1,1.86621.81934l-.61231.74072a1.6834,1.6834,0,0,0-1.22461-.563c-1.05566,0-1.80664.88867-1.80664,2.33985,0,1.47119.69141,2.35986,1.77735,2.35986a1.83893,1.83893,0,0,0,1.38183-.66162l.61231.7207a2.60328,2.60328,0,0,1-2.0332.938C176.57129,83.52881,175.28711,82.34375,175.28711,80.20166Z" fill="#dcddde"/><path d="M180.99609,80.99121a2.31626,2.31626,0,1,1,2.30079,2.5376A2.34556,2.34556,0,0,1,180.99609,80.99121Zm3.44629,0c0-.977-.43457-1.61865-1.1455-1.61865s-1.13575.6416-1.13575,1.61865c0,.96777.42481,1.60938,1.13575,1.60938S184.44238,81.959,184.44238,80.99121Z" fill="#dcddde"/><path d="M186.834,78.563h.9375l.07911.66113h.04a2.04791,2.04791,0,0,1,1.48047-.77978,1.31878,1.31878,0,0,1,1.34278.86865,2.2,2.2,0,0,1,1.55957-.86865c1.02734,0,1.501.70117,1.501,1.92529v3.04053h-1.1455V80.51758c0-.79981-.23633-1.0957-.74024-1.0957a1.50642,1.50642,0,0,0-1.0166.602v3.38623h-1.13574V80.51758c0-.79981-.23633-1.0957-.75-1.0957a1.52622,1.52622,0,0,0-1.0166.602v3.38623H186.834Z" fill="#dcddde"/><path d="M196.28613,82.897h-.02929l-.09864.51319h-.89843V76.44043h1.13574v1.79639l-.03028.80957a2.21257,2.21257,0,0,1,1.40235-.60205c1.21387,0,1.915.96728,1.915,2.458,0,1.66846-.99707,2.62647-2.07324,2.62647A1.93856,1.93856,0,0,1,196.28613,82.897Zm2.22168-1.97461c0-.96777-.3164-1.54-1.04687-1.54a1.5468,1.5468,0,0,0-1.06543.543V82.186a1.512,1.512,0,0,0,.97656.40478C198.01367,82.59082,198.50781,82.01807,198.50781,80.92236Z" fill="#dcddde"/><path d="M203.09277,76.95361h3.89942v.96729h-2.75391v1.82666h2.34961v.96728h-2.34961v2.69532h-1.14551Z" fill="#dcddde"/><path d="M208.00293,77.07227a.70341.70341,0,1,1,.70019.6416A.65151.65151,0,0,1,208.00293,77.07227Zm.12793,1.49072h1.13574v4.84717h-1.13574Z" fill="#dcddde"/><path d="M210.81738,82.166V76.44043h1.13574v5.78516c0,.27636.12793.375.2461.375a.68546.68546,0,0,0,.17773-.01954l.14844.84864a1.546,1.546,0,0,1-.60254.09912C211.11328,83.52881,210.81738,83.00537,210.81738,82.166Z" fill="#dcddde"/><path d="M213.76074,81.77148V79.46094h-.6914V78.6123l.751-.04931.1377-1.32324h.94824V78.563h1.2334v.89795h-1.2334v2.31054c0,.57227.2168.84864.68066.84864a1.39667,1.39667,0,0,0,.50391-.1084l.19727.83935a3.09772,3.09772,0,0,1-.98731.17774C214.1748,83.52881,213.76074,82.81787,213.76074,81.77148Z" fill="#dcddde"/><path d="M216.7832,80.99121a2.35926,2.35926,0,0,1,2.23145-2.54687c1.31347,0,2.0039.94775,2.0039,2.30029a2.66975,2.66975,0,0,1-.04882.55273h-3.08008a1.38733,1.38733,0,0,0,1.43164,1.35254,2.02538,2.02538,0,0,0,1.125-.35547l.38476.71094a3.05576,3.05576,0,0,1-1.6582.52344A2.33787,2.33787,0,0,1,216.7832,80.99121Zm3.24805-.46387c0-.75-.3252-1.20459-.98633-1.20459a1.21725,1.21725,0,0,0-1.165,1.20459Z" fill="#dcddde"/><path d="M222.20605,78.563h.9375l.07911.85889h.04a1.64651,1.64651,0,0,1,1.37207-.97754,1.23515,1.23515,0,0,1,.55273.09863l-.19727.9873a1.58584,1.58584,0,0,0-.5039-.0791c-.38477,0-.84863.2666-1.14453.99707v2.96192h-1.13575Z" fill="#dcddde"/><path d="M157.93359,175.93994l.67188-.78027a2.56663,2.56663,0,0,0,1.67773.731c.73047,0,1.126-.32617,1.126-.82958,0-.53321-.415-.70069-.99707-.94776l-.88867-.38476a1.86124,1.86124,0,0,1-1.30371-1.71778,1.96394,1.96394,0,0,1,2.17187-1.81689,2.84819,2.84819,0,0,1,1.98438.81933l-.582.731a2.10368,2.10368,0,0,0-1.40235-.55322c-.61133,0-1.0166.28662-1.0166.76025,0,.50342.49414.69141,1.02734.90821l.87793.36523a1.8069,1.8069,0,0,1,1.30371,1.74756,2.05287,2.05287,0,0,1-2.32031,1.91553A3.3455,3.3455,0,0,1,157.93359,175.93994Z" fill="#dcddde"/><path d="M163.67285,175.13037v-2.31006h-.6914v-.84912l.751-.04931.1377-1.32325h.94824v1.32325h1.2334v.89843h-1.2334v2.31006c0,.57227.2168.84912.68066.84912a1.3969,1.3969,0,0,0,.50391-.10888l.19727.83935a3.09772,3.09772,0,0,1-.98731.17774C164.08691,176.8877,163.67285,176.17676,163.67285,175.13037Z" fill="#dcddde"/><path d="M166.70508,175.46582c0-1.03662.85937-1.57959,2.85351-1.79687-.01953-.51319-.22754-.94776-.88867-.94776a2.76185,2.76185,0,0,0-1.3623.47412l-.415-.76025a3.79513,3.79513,0,0,1,1.99414-.63184c1.20508,0,1.80664.74024,1.80664,2.09278v2.873h-.9375l-.0791-.5332h-.03906a2.3626,2.3626,0,0,1-1.501.65186A1.35556,1.35556,0,0,1,166.70508,175.46582Zm2.85351,0v-1.08594c-1.32324.168-1.75781.51319-1.75781.99707,0,.43457.29688.62207.70117.62207A1.54127,1.54127,0,0,0,169.55859,175.46582Z" fill="#dcddde"/><path d="M172.168,175.13037v-2.31006h-.69141v-.84912l.75-.04931.13867-1.32325h.94825v1.32325h1.2334v.89843h-1.2334v2.31006c0,.57227.21679.84912.68066.84912a1.3969,1.3969,0,0,0,.50391-.10888l.19726.83935a3.09765,3.09765,0,0,1-.9873.17774C172.582,176.8877,172.168,176.17676,172.168,175.13037Z" fill="#dcddde"/><path d="M175.18945,174.3501a2.35927,2.35927,0,0,1,2.23145-2.54688c1.31348,0,2.0039.94776,2.0039,2.3003a2.66975,2.66975,0,0,1-.04882.55273H176.2959a1.38733,1.38733,0,0,0,1.43164,1.35254,2.02538,2.02538,0,0,0,1.125-.35547l.38476.71094a3.05576,3.05576,0,0,1-1.6582.52344A2.33787,2.33787,0,0,1,175.18945,174.3501Zm3.24805-.46387c0-.75049-.3252-1.20459-.98633-1.20459a1.21725,1.21725,0,0,0-1.165,1.20459Z" fill="#dcddde"/><path d="M181.92773,170.3125h1.21387l.9082,3.24805c.207.73047.35547,1.3623.57227,2.10254h.04c.2168-.74024.36523-1.37207.5625-2.10254l.89844-3.24805h1.1748L185.294,176.769h-1.35254Z" fill="#dcddde"/><path d="M187.53711,175.46582c0-1.03662.85937-1.57959,2.85351-1.79687-.01953-.51319-.22753-.94776-.88867-.94776a2.76185,2.76185,0,0,0-1.3623.47412l-.415-.76025a3.79513,3.79513,0,0,1,1.99414-.63184c1.20508,0,1.80664.74024,1.80664,2.09278v2.873h-.9375l-.0791-.5332h-.03906a2.36256,2.36256,0,0,1-1.501.65186A1.35556,1.35556,0,0,1,187.53711,175.46582Zm2.85351,0v-1.08594c-1.32324.168-1.75781.51319-1.75781.99707,0,.43457.29688.62207.70117.62207A1.54125,1.54125,0,0,0,190.39062,175.46582Z" fill="#dcddde"/><path d="M192.98926,171.92188h.9375l.0791.85888h.04a1.64655,1.64655,0,0,1,1.37207-.97754,1.23511,1.23511,0,0,1,.55273.09864l-.19726.9873a1.58567,1.58567,0,0,0-.50391-.0791c-.38476,0-.84863.2666-1.14453.99707V176.769h-1.13574Z" fill="#dcddde"/><path d="M196.64453,170.43115a.70341.70341,0,1,1,.7002.6416A.65151.65151,0,0,1,196.64453,170.43115Zm.12793,1.49073h1.13574V176.769h-1.13574Z" fill="#dcddde"/><path d="M199.20215,175.46582c0-1.03662.85937-1.57959,2.85351-1.79687-.01953-.51319-.22754-.94776-.88867-.94776a2.76185,2.76185,0,0,0-1.3623.47412l-.415-.76025a3.79513,3.79513,0,0,1,1.99414-.63184c1.20508,0,1.80664.74024,1.80664,2.09278v2.873h-.9375l-.0791-.5332h-.03906a2.36258,2.36258,0,0,1-1.501.65186A1.35556,1.35556,0,0,1,199.20215,175.46582Zm2.85351,0v-1.08594c-1.32324.168-1.75781.51319-1.75781.99707,0,.43457.29688.62207.70117.62207A1.54127,1.54127,0,0,0,202.05566,175.46582Z" fill="#dcddde"/><path d="M205.68164,176.25586h-.0293l-.09863.51318h-.89844v-6.96972H205.791v1.79638l-.03028.80957a2.21257,2.21257,0,0,1,1.40235-.602c1.21386,0,1.915.96729,1.915,2.458,0,1.66846-.99707,2.62647-2.07324,2.62647A1.93858,1.93858,0,0,1,205.68164,176.25586Zm2.22168-1.97461c0-.96777-.31641-1.54-1.04687-1.54a1.5468,1.5468,0,0,0-1.06543.543v2.26074a1.512,1.512,0,0,0,.97656.40479C207.41016,175.94971,207.90332,175.377,207.90332,174.28125Z" fill="#dcddde"/><path d="M210.31445,175.5249v-5.72558h1.13575v5.78515c0,.27637.12792.375.24609.375a.68579.68579,0,0,0,.17773-.01953l.14844.84863a1.546,1.546,0,0,1-.60254.09913C210.61035,176.8877,210.31445,176.36426,210.31445,175.5249Z" fill="#dcddde"/><path d="M212.77441,174.3501a2.35927,2.35927,0,0,1,2.23145-2.54688c1.31348,0,2.00391.94776,2.00391,2.3003a2.66964,2.66964,0,0,1-.04883.55273h-3.08008a1.38733,1.38733,0,0,0,1.43164,1.35254,2.02538,2.02538,0,0,0,1.125-.35547l.38477.71094a3.05582,3.05582,0,0,1-1.65821.52344A2.33787,2.33787,0,0,1,212.77441,174.3501Zm3.24805-.46387c0-.75049-.32519-1.20459-.98633-1.20459a1.21725,1.21725,0,0,0-1.165,1.20459Z" fill="#dcddde"/><path d="M220.37012,170.3125h3.89941v.96729h-2.75391v1.82666h2.34961v.96728h-2.34961V176.769h-1.1455Z" fill="#dcddde"/><path d="M225.28027,170.43115a.70341.70341,0,1,1,.7002.6416A.65151.65151,0,0,1,225.28027,170.43115Zm.12793,1.49073H226.544V176.769H225.4082Z" fill="#dcddde"/><path d="M228.09473,175.5249v-5.72558h1.13574v5.78515c0,.27637.12793.375.24609.375a.68586.68586,0,0,0,.17774-.01953l.14843.84863a1.546,1.546,0,0,1-.60253.09913C228.39062,176.8877,228.09473,176.36426,228.09473,175.5249Z" fill="#dcddde"/><path d="M231.03809,175.13037v-2.31006h-.69141v-.84912l.751-.04931.13769-1.32325h.94824v1.32325h1.2334v.89843h-1.2334v2.31006c0,.57227.2168.84912.68067.84912a1.39685,1.39685,0,0,0,.5039-.10888l.19727.83935a3.09767,3.09767,0,0,1-.98731.17774C231.45215,176.8877,231.03809,176.17676,231.03809,175.13037Z" fill="#dcddde"/><path d="M234.06055,174.3501a2.35927,2.35927,0,0,1,2.23144-2.54688c1.31348,0,2.00391.94776,2.00391,2.3003a2.66894,2.66894,0,0,1-.04883.55273H235.167a1.38733,1.38733,0,0,0,1.43164,1.35254,2.02535,2.02535,0,0,0,1.125-.35547l.38477.71094a3.05581,3.05581,0,0,1-1.6582.52344A2.33786,2.33786,0,0,1,234.06055,174.3501Zm3.248-.46387c0-.75049-.32519-1.20459-.98632-1.20459a1.21724,1.21724,0,0,0-1.165,1.20459Z" fill="#dcddde"/><path d="M239.4834,171.92188h.9375l.0791.85888h.04a1.64655,1.64655,0,0,1,1.37207-.97754,1.23511,1.23511,0,0,1,.55273.09864l-.19726.9873a1.58567,1.58567,0,0,0-.50391-.0791c-.38476,0-.84863.2666-1.14453.99707V176.769H239.4834Z" fill="#dcddde"/><path d="M172.18066,236.38867c0-2.083,1.165-3.31738,2.84375-3.31738,1.68848,0,2.85254,1.23437,2.85254,3.31738,0,2.09278-1.16406,3.37647-2.85254,3.37647C173.3457,239.76514,172.18066,238.48145,172.18066,236.38867Zm4.51172,0c0-1.4414-.65136-2.32031-1.668-2.32031s-1.66894.87891-1.66894,2.32031c0,1.45117.65234,2.3794,1.66894,2.3794S176.69238,237.83984,176.69238,236.38867Z" fill="#dcddde"/><path d="M179.125,237.83984v-3.04052h1.13574v2.89257c0,.79932.22754,1.09571.75,1.09571.42481,0,.71094-.19727,1.07617-.67139v-3.31689h1.13575v4.84716h-.92774l-.08887-.71093h-.03027a1.97519,1.97519,0,0,1-1.55957.82959C179.5791,239.76514,179.125,239.064,179.125,237.83984Z" fill="#dcddde"/><path d="M184.93359,238.00781v-2.31054h-.6914v-.84864l.75-.04931.13867-1.32325h.94824v1.32325h1.2334v.898h-1.2334v2.31054c0,.57227.2168.84864.68067.84864a1.39666,1.39666,0,0,0,.5039-.1084l.19727.83935a3.09767,3.09767,0,0,1-.98731.17774C185.34766,239.76514,184.93359,239.0542,184.93359,238.00781Z" fill="#dcddde"/><path d="M188.42969,234.79932h.9375l.0791.51318h.04a2.36088,2.36088,0,0,1,1.46094-.63184c1.2041,0,1.90527.96729,1.90527,2.46827,0,1.6582-.99707,2.61621-2.07324,2.61621a1.96318,1.96318,0,0,1-1.24414-.53321l.03027.80957v1.52h-1.13574Zm3.248,2.35937c0-.96777-.3164-1.54-1.04687-1.54a1.5468,1.5468,0,0,0-1.06543.543v2.26074a1.53124,1.53124,0,0,0,.97656.40479C191.18359,238.82715,191.67773,238.25439,191.67773,237.15869Z" fill="#dcddde"/><path d="M194.0498,237.83984v-3.04052h1.13575v2.89257c0,.79932.22754,1.09571.75,1.09571.4248,0,.71093-.19727,1.07617-.67139v-3.31689h1.13574v4.84716h-.92773l-.08887-.71093h-.03027a1.97519,1.97519,0,0,1-1.55957.82959C194.50391,239.76514,194.0498,239.064,194.0498,237.83984Z" fill="#dcddde"/><path d="M199.8584,238.00781v-2.31054H199.167v-.84864l.751-.04931.13769-1.32325h.94825v1.32325h1.23339v.898h-1.23339v2.31054c0,.57227.21679.84864.68066.84864a1.39672,1.39672,0,0,0,.50391-.1084l.19726.83935a3.09765,3.09765,0,0,1-.9873.17774C200.27246,239.76514,199.8584,239.0542,199.8584,238.00781Z" fill="#dcddde"/><path d="M205.52734,233.18994h1.293l1.14551,3.15918c.13867.40479.27637.83936.415,1.26367h.03906c.13867-.42431.2666-.85888.40528-1.26367l1.11523-3.15918h1.30273v6.45654H210.1875v-2.95166c0-.60253.08887-1.46142.14746-2.05371h-.03906l-.52344,1.50049-1.05664,2.90283h-.68066l-1.06641-2.90283-.51367-1.50049H206.416c.04882.59229.14843,1.45118.14843,2.05371v2.95166h-1.03711Z" fill="#dcddde"/><path d="M212.75879,233.30859a.7034.7034,0,1,1,.70019.64161A.6515.6515,0,0,1,212.75879,233.30859Zm.12793,1.49073h1.13574v4.84716h-1.13574Z" fill="#dcddde"/><path d="M216.53125,237.11914l-1.44141-2.31982h1.22364l.543.918c.13867.2666.29589.55273.44433.81933h.04c.11816-.2666.25586-.55273.375-.81933l.46387-.918h1.1748l-1.43164,2.44824,1.54,2.39892h-1.22363l-.59278-.95752c-.1582-.28662-.32617-.58251-.49414-.85888h-.03906c-.13769.27637-.28613.5625-.4248.85888l-.5127.95752h-1.18457Z" fill="#dcddde"/><path d="M219.88965,237.22754a2.35927,2.35927,0,0,1,2.23144-2.54688c1.31348,0,2.00391.94776,2.00391,2.3003a2.66894,2.66894,0,0,1-.04883.55273h-3.08008a1.38734,1.38734,0,0,0,1.43164,1.35254,2.02533,2.02533,0,0,0,1.125-.35547l.38477.71094a3.05581,3.05581,0,0,1-1.6582.52344A2.33786,2.33786,0,0,1,219.88965,237.22754Zm3.24805-.46387c0-.75-.3252-1.20459-.98633-1.20459a1.21724,1.21724,0,0,0-1.165,1.20459Z" fill="#dcddde"/><path d="M225.3125,234.79932h.9375l.0791.85888h.04a1.64655,1.64655,0,0,1,1.37207-.97754,1.23518,1.23518,0,0,1,.55274.09864l-.19727.9873a1.586,1.586,0,0,0-.50391-.0791c-.38476,0-.84863.2666-1.14453.99707v2.96191H225.3125Z" fill="#dcddde"/><path d="M31.63672,31.24268H62.63721A2.40479,2.40479,0,0,1,65.042,33.64746V44.647a2.40527,2.40527,0,0,1-2.40527,2.40527H31.63623a2.40479,2.40479,0,0,1-2.40479-2.40479V33.64795A2.40527,2.40527,0,0,1,31.63672,31.24268Z" fill="url(#a)"/><path d="M62.63647,31.6474a2,2,0,0,1,2,2v11a2,2,0,0,1-2,2h-31a2,2,0,0,1-2-2v-11a2,2,0,0,1,2-2h31m0-.81006h-31a2.81328,2.81328,0,0,0-2.81005,2.81006v11a2.81328,2.81328,0,0,0,2.81005,2.81006h31a2.81328,2.81328,0,0,0,2.81006-2.81006v-11a2.81328,2.81328,0,0,0-2.81006-2.81006Z" fill="#252525"/><path d="M94.57324,31.24268h31.00049a2.40479,2.40479,0,0,1,2.40479,2.40479V44.647a2.40527,2.40527,0,0,1-2.40527,2.40527H94.57275A2.40479,2.40479,0,0,1,92.168,44.64746V33.64795A2.40527,2.40527,0,0,1,94.57324,31.24268Z" fill="url(#b)"/><path d="M125.57336,31.6474a2.00006,2.00006,0,0,1,2,2v11a2.00006,2.00006,0,0,1-2,2H94.5733a2,2,0,0,1-2-2v-11a2,2,0,0,1,2-2h31.00006m0-.81006H94.5733a2.81328,2.81328,0,0,0-2.81006,2.81006v11a2.81328,2.81328,0,0,0,2.81006,2.81006h31.00006a2.81328,2.81328,0,0,0,2.81006-2.81006v-11a2.81328,2.81328,0,0,0-2.81006-2.81006Z" fill="#252525"/><path d="M157.50879,31.24268h31.00049a2.40479,2.40479,0,0,1,2.40479,2.40479V44.647a2.40527,2.40527,0,0,1-2.40527,2.40527H157.5083a2.40479,2.40479,0,0,1-2.40479-2.40479V33.64795A2.40527,2.40527,0,0,1,157.50879,31.24268Z" fill="url(#c)"/><path d="M188.50928,31.6474a2.00006,2.00006,0,0,1,2,2v11a2.00006,2.00006,0,0,1-2,2h-31a2,2,0,0,1-2-2v-11a2,2,0,0,1,2-2h31m0-.81006h-31a2.81328,2.81328,0,0,0-2.81006,2.81006v11a2.81328,2.81328,0,0,0,2.81006,2.81006h31a2.81328,2.81328,0,0,0,2.81006-2.81006v-11a2.81328,2.81328,0,0,0-2.81006-2.81006Z" fill="#252525"/><path d="M220.44531,31.24268H251.4458a2.40479,2.40479,0,0,1,2.40479,2.40479V44.647a2.40527,2.40527,0,0,1-2.40527,2.40527H220.44482A2.40479,2.40479,0,0,1,218.04,44.64746V33.64795A2.40527,2.40527,0,0,1,220.44531,31.24268Z" fill="url(#d)"/><path d="M251.44519,31.6474a2,2,0,0,1,2,2v11a2,2,0,0,1-2,2h-31a2,2,0,0,1-2-2v-11a2,2,0,0,1,2-2h31m0-.81006h-31a2.81328,2.81328,0,0,0-2.81006,2.81006v11a2.81328,2.81328,0,0,0,2.81006,2.81006h31a2.81328,2.81328,0,0,0,2.81006-2.81006v-11a2.81328,2.81328,0,0,0-2.81006-2.81006Z" fill="#252525"/><path d="M283.37988,31.24268h31.00049a2.40479,2.40479,0,0,1,2.40479,2.40479V44.647a2.40527,2.40527,0,0,1-2.40527,2.40527H283.37939a2.40479,2.40479,0,0,1-2.40479-2.40479V33.64795A2.40527,2.40527,0,0,1,283.37988,31.24268Z" fill="url(#e)"/><path d="M314.38013,31.6474a2,2,0,0,1,2,2v11a2,2,0,0,1-2,2h-31a2.00006,2.00006,0,0,1-2-2v-11a2.00006,2.00006,0,0,1,2-2h31m0-.81006h-31a2.81328,2.81328,0,0,0-2.81006,2.81006v11a2.81328,2.81328,0,0,0,2.81006,2.81006h31a2.81328,2.81328,0,0,0,2.81006-2.81006v-11a2.81328,2.81328,0,0,0-2.81006-2.81006Z" fill="#252525"/><path d="M346.25879,31.24268h31.00049a2.40479,2.40479,0,0,1,2.40479,2.40479V44.647a2.40527,2.40527,0,0,1-2.40527,2.40527H346.2583a2.40479,2.40479,0,0,1-2.40479-2.40479V33.64795A2.40527,2.40527,0,0,1,346.25879,31.24268Z" fill="url(#f)"/><path d="M377.25916,31.6474a2,2,0,0,1,2,2v11a2,2,0,0,1-2,2h-31a2,2,0,0,1-2-2v-11a2,2,0,0,1,2-2h31m0-.81006h-31a2.81328,2.81328,0,0,0-2.81006,2.81006v11a2.81328,2.81328,0,0,0,2.81006,2.81006h31a2.81328,2.81328,0,0,0,2.81-2.81006v-11a2.81328,2.81328,0,0,0-2.81-2.81006Z" fill="#252525"/><path d="M31.63672,94.17578H62.63721A2.40479,2.40479,0,0,1,65.042,96.58057v10.99951a2.40527,2.40527,0,0,1-2.40527,2.40527H31.63623a2.40479,2.40479,0,0,1-2.40479-2.40479V96.58105A2.40527,2.40527,0,0,1,31.63672,94.17578Z" fill="url(#g)"/><path d="M62.63647,94.58057a1.99994,1.99994,0,0,1,2,2v11a2,2,0,0,1-2,2h-31a2,2,0,0,1-2-2v-11a2,2,0,0,1,2-2h31m0-.81006h-31a2.81328,2.81328,0,0,0-2.81005,2.81006v11a2.81328,2.81328,0,0,0,2.81005,2.81005h31a2.81328,2.81328,0,0,0,2.81006-2.81005v-11a2.81328,2.81328,0,0,0-2.81006-2.81006Z" fill="#252525"/><path d="M94.57324,94.17578h31.00049a2.40479,2.40479,0,0,1,2.40479,2.40479v10.99951a2.40527,2.40527,0,0,1-2.40527,2.40527H94.57275a2.40479,2.40479,0,0,1-2.40479-2.40479V96.58105A2.40527,2.40527,0,0,1,94.57324,94.17578Z" fill="url(#h)"/><path d="M125.57336,94.58057a2,2,0,0,1,2,2v11a2.00006,2.00006,0,0,1-2,2H94.5733a2,2,0,0,1-2-2v-11a2,2,0,0,1,2-2h31.00006m0-.81006H94.5733a2.81328,2.81328,0,0,0-2.81006,2.81006v11a2.81328,2.81328,0,0,0,2.81006,2.81005h31.00006a2.81328,2.81328,0,0,0,2.81006-2.81005v-11a2.81328,2.81328,0,0,0-2.81006-2.81006Z" fill="#252525"/><path d="M157.50879,94.17578h31.00049a2.40479,2.40479,0,0,1,2.40479,2.40479v10.99951a2.40527,2.40527,0,0,1-2.40527,2.40527H157.5083a2.40479,2.40479,0,0,1-2.40479-2.40479V96.58105A2.40527,2.40527,0,0,1,157.50879,94.17578Z" fill="url(#i)"/><path d="M188.50928,94.58057a2,2,0,0,1,2,2v11a2.00006,2.00006,0,0,1-2,2h-31a2,2,0,0,1-2-2v-11a1.99994,1.99994,0,0,1,2-2h31m0-.81006h-31a2.81328,2.81328,0,0,0-2.81006,2.81006v11a2.81328,2.81328,0,0,0,2.81006,2.81005h31a2.81328,2.81328,0,0,0,2.81006-2.81005v-11a2.81328,2.81328,0,0,0-2.81006-2.81006Z" fill="#252525"/><path d="M220.44531,94.17578H251.4458a2.40479,2.40479,0,0,1,2.40479,2.40479v10.99951a2.40527,2.40527,0,0,1-2.40527,2.40527H220.44482a2.40479,2.40479,0,0,1-2.40479-2.40479V96.58105A2.40527,2.40527,0,0,1,220.44531,94.17578Z" fill="url(#j)"/><path d="M251.44519,94.58057a1.99994,1.99994,0,0,1,2,2v11a2,2,0,0,1-2,2h-31a2,2,0,0,1-2-2v-11a1.99994,1.99994,0,0,1,2-2h31m0-.81006h-31a2.81328,2.81328,0,0,0-2.81006,2.81006v11a2.81328,2.81328,0,0,0,2.81006,2.81005h31a2.81328,2.81328,0,0,0,2.81006-2.81005v-11a2.81328,2.81328,0,0,0-2.81006-2.81006Z" fill="#252525"/><path d="M283.37988,94.17578h31.00049a2.40479,2.40479,0,0,1,2.40479,2.40479v10.99951a2.40527,2.40527,0,0,1-2.40527,2.40527H283.37939a2.40479,2.40479,0,0,1-2.40479-2.40479V96.58105A2.40527,2.40527,0,0,1,283.37988,94.17578Z" fill="url(#k)"/><path d="M314.38013,94.58057a1.99994,1.99994,0,0,1,2,2v11a2,2,0,0,1-2,2h-31a2.00006,2.00006,0,0,1-2-2v-11a2,2,0,0,1,2-2h31m0-.81006h-31a2.81328,2.81328,0,0,0-2.81006,2.81006v11a2.81328,2.81328,0,0,0,2.81006,2.81005h31a2.81328,2.81328,0,0,0,2.81006-2.81005v-11a2.81328,2.81328,0,0,0-2.81006-2.81006Z" fill="#252525"/><path d="M346.25879,94.17578h31.00049a2.40479,2.40479,0,0,1,2.40479,2.40479v10.99951a2.40527,2.40527,0,0,1-2.40527,2.40527H346.2583a2.40479,2.40479,0,0,1-2.40479-2.40479V96.58105A2.40527,2.40527,0,0,1,346.25879,94.17578Z" fill="url(#l)"/><path d="M377.25916,94.58057a1.99994,1.99994,0,0,1,2,2v11a2,2,0,0,1-2,2h-31a2,2,0,0,1-2-2v-11a1.99994,1.99994,0,0,1,2-2h31m0-.81006h-31a2.81328,2.81328,0,0,0-2.81006,2.81006v11a2.81328,2.81328,0,0,0,2.81006,2.81005h31a2.81328,2.81328,0,0,0,2.81-2.81005v-11a2.81328,2.81328,0,0,0-2.81-2.81006Z" fill="#252525"/><path d="M31.63672,187.53857H62.63721a2.40479,2.40479,0,0,1,2.40479,2.40479v11a2.40479,2.40479,0,0,1-2.40479,2.40479H31.63672a2.40527,2.40527,0,0,1-2.40527-2.40527v-10.999A2.40527,2.40527,0,0,1,31.63672,187.53857Z" fill="url(#m)"/><path d="M62.63647,187.94351a2,2,0,0,1,2,2v11a2,2,0,0,1-2,2h-31a2,2,0,0,1-2-2v-11a2,2,0,0,1,2-2h31m0-.81h-31a2.81324,2.81324,0,0,0-2.81005,2.81v11a2.81324,2.81324,0,0,0,2.81005,2.81h31a2.81324,2.81324,0,0,0,2.81006-2.81v-11a2.81324,2.81324,0,0,0-2.81006-2.81Z" fill="#252525"/><path d="M94.57324,187.53857h31.00049a2.40479,2.40479,0,0,1,2.40479,2.40479v11a2.40479,2.40479,0,0,1-2.40479,2.40479H94.57324a2.40527,2.40527,0,0,1-2.40527-2.40527v-10.999A2.40527,2.40527,0,0,1,94.57324,187.53857Z" fill="url(#n)"/><path d="M125.57336,187.94351a2.00006,2.00006,0,0,1,2,2v11a2,2,0,0,1-2,2H94.5733a2,2,0,0,1-2-2v-11a2,2,0,0,1,2-2h31.00006m0-.81H94.5733a2.81324,2.81324,0,0,0-2.81006,2.81v11a2.81324,2.81324,0,0,0,2.81006,2.81h31.00006a2.81324,2.81324,0,0,0,2.81006-2.81v-11a2.81324,2.81324,0,0,0-2.81006-2.81Z" fill="#252525"/><path d="M157.50879,187.53857h31.00049a2.40479,2.40479,0,0,1,2.40479,2.40479v11a2.40479,2.40479,0,0,1-2.40479,2.40479H157.50879a2.40527,2.40527,0,0,1-2.40527-2.40527v-10.999A2.40527,2.40527,0,0,1,157.50879,187.53857Z" fill="url(#o)"/><path d="M188.50928,187.94351a2.00006,2.00006,0,0,1,2,2v11a2,2,0,0,1-2,2h-31a2,2,0,0,1-2-2v-11a2,2,0,0,1,2-2h31m0-.81h-31a2.81324,2.81324,0,0,0-2.81006,2.81v11a2.81324,2.81324,0,0,0,2.81006,2.81h31a2.81324,2.81324,0,0,0,2.81006-2.81v-11a2.81324,2.81324,0,0,0-2.81006-2.81Z" fill="#252525"/><path d="M220.44531,187.53857H251.4458a2.40479,2.40479,0,0,1,2.40479,2.40479v11a2.40479,2.40479,0,0,1-2.40479,2.40479H220.44531a2.40527,2.40527,0,0,1-2.40527-2.40527v-10.999A2.40527,2.40527,0,0,1,220.44531,187.53857Z" fill="url(#p)"/><path d="M251.44519,187.94351a2,2,0,0,1,2,2v11a2,2,0,0,1-2,2h-31a2,2,0,0,1-2-2v-11a2,2,0,0,1,2-2h31m0-.81h-31a2.81324,2.81324,0,0,0-2.81006,2.81v11a2.81324,2.81324,0,0,0,2.81006,2.81h31a2.81324,2.81324,0,0,0,2.81006-2.81v-11a2.81324,2.81324,0,0,0-2.81006-2.81Z" fill="#252525"/><path d="M283.37988,187.53857h31.00049a2.40479,2.40479,0,0,1,2.40479,2.40479v11a2.40479,2.40479,0,0,1-2.40479,2.40479H283.37988a2.40527,2.40527,0,0,1-2.40527-2.40527v-10.999A2.40527,2.40527,0,0,1,283.37988,187.53857Z" fill="url(#q)"/><path d="M314.38013,187.94351a2,2,0,0,1,2,2v11a2,2,0,0,1-2,2h-31a2,2,0,0,1-2-2v-11a2.00006,2.00006,0,0,1,2-2h31m0-.81h-31a2.81324,2.81324,0,0,0-2.81006,2.81v11a2.81324,2.81324,0,0,0,2.81006,2.81h31a2.81324,2.81324,0,0,0,2.81006-2.81v-11a2.81324,2.81324,0,0,0-2.81006-2.81Z" fill="#252525"/><path d="M346.25879,187.53857h31.00049a2.40479,2.40479,0,0,1,2.40479,2.40479v11a2.40479,2.40479,0,0,1-2.40479,2.40479H346.25879a2.40527,2.40527,0,0,1-2.40527-2.40527v-10.999A2.40527,2.40527,0,0,1,346.25879,187.53857Z" fill="url(#r)"/><path d="M377.25916,187.94351a2,2,0,0,1,2,2v11a2,2,0,0,1-2,2h-31a2,2,0,0,1-2-2v-11a2,2,0,0,1,2-2h31m0-.81h-31a2.81324,2.81324,0,0,0-2.81006,2.81v11a2.81324,2.81324,0,0,0,2.81006,2.81h31a2.81324,2.81324,0,0,0,2.81-2.81v-11a2.81324,2.81324,0,0,0-2.81-2.81Z" fill="#252525"/><path d="M31.63672,250.41406H62.63721a2.40479,2.40479,0,0,1,2.40479,2.40479v10.99951a2.40527,2.40527,0,0,1-2.40527,2.40527H31.63623a2.40479,2.40479,0,0,1-2.40479-2.40479V252.81934A2.40527,2.40527,0,0,1,31.63672,250.41406Z" fill="url(#s)"/><path d="M62.63647,250.81888a2,2,0,0,1,2,2v11a2,2,0,0,1-2,2h-31a2,2,0,0,1-2-2v-11a2,2,0,0,1,2-2h31m0-.81h-31a2.81324,2.81324,0,0,0-2.81005,2.81v11a2.81324,2.81324,0,0,0,2.81005,2.81h31a2.81324,2.81324,0,0,0,2.81006-2.81v-11a2.81324,2.81324,0,0,0-2.81006-2.81Z" fill="#252525"/><path d="M94.57324,250.41406h31.00049a2.40479,2.40479,0,0,1,2.40479,2.40479v10.99951a2.40527,2.40527,0,0,1-2.40527,2.40527H94.57275a2.40479,2.40479,0,0,1-2.40479-2.40479V252.81934A2.40527,2.40527,0,0,1,94.57324,250.41406Z" fill="url(#t)"/><path d="M125.57336,250.81888a2.00005,2.00005,0,0,1,2,2v11a2,2,0,0,1-2,2H94.5733a2,2,0,0,1-2-2v-11a2,2,0,0,1,2-2h31.00006m0-.81H94.5733a2.81324,2.81324,0,0,0-2.81006,2.81v11a2.81324,2.81324,0,0,0,2.81006,2.81h31.00006a2.81324,2.81324,0,0,0,2.81006-2.81v-11a2.81324,2.81324,0,0,0-2.81006-2.81Z" fill="#252525"/><path d="M157.50879,250.41406h31.00049a2.40479,2.40479,0,0,1,2.40479,2.40479v10.99951a2.40527,2.40527,0,0,1-2.40527,2.40527H157.5083a2.40479,2.40479,0,0,1-2.40479-2.40479V252.81934A2.40527,2.40527,0,0,1,157.50879,250.41406Z" fill="url(#u)"/><path d="M188.50928,250.81888a2.00006,2.00006,0,0,1,2,2v11a2,2,0,0,1-2,2h-31a2,2,0,0,1-2-2v-11a2,2,0,0,1,2-2h31m0-.81h-31a2.81324,2.81324,0,0,0-2.81006,2.81v11a2.81324,2.81324,0,0,0,2.81006,2.81h31a2.81324,2.81324,0,0,0,2.81006-2.81v-11a2.81324,2.81324,0,0,0-2.81006-2.81Z" fill="#252525"/><path d="M220.44531,250.41406H251.4458a2.40479,2.40479,0,0,1,2.40479,2.40479v10.99951a2.40527,2.40527,0,0,1-2.40527,2.40527H220.44482a2.40479,2.40479,0,0,1-2.40479-2.40479V252.81934A2.40527,2.40527,0,0,1,220.44531,250.41406Z" fill="url(#v)"/><path d="M251.44519,250.81888a2,2,0,0,1,2,2v11a2,2,0,0,1-2,2h-31a2,2,0,0,1-2-2v-11a2,2,0,0,1,2-2h31m0-.81h-31a2.81324,2.81324,0,0,0-2.81006,2.81v11a2.81324,2.81324,0,0,0,2.81006,2.81h31a2.81324,2.81324,0,0,0,2.81006-2.81v-11a2.81324,2.81324,0,0,0-2.81006-2.81Z" fill="#252525"/><path d="M283.37988,250.41406h31.00049a2.40479,2.40479,0,0,1,2.40479,2.40479v10.99951a2.40527,2.40527,0,0,1-2.40527,2.40527H283.37939a2.40479,2.40479,0,0,1-2.40479-2.40479V252.81934A2.40527,2.40527,0,0,1,283.37988,250.41406Z" fill="url(#w)"/><path d="M314.38013,250.81888a2,2,0,0,1,2,2v11a2,2,0,0,1-2,2h-31a2,2,0,0,1-2-2v-11a2.00005,2.00005,0,0,1,2-2h31m0-.81h-31a2.81324,2.81324,0,0,0-2.81006,2.81v11a2.81324,2.81324,0,0,0,2.81006,2.81h31a2.81324,2.81324,0,0,0,2.81006-2.81v-11a2.81324,2.81324,0,0,0-2.81006-2.81Z" fill="#252525"/><path d="M346.25879,250.41406h31.00049a2.40479,2.40479,0,0,1,2.40479,2.40479v10.99951a2.40527,2.40527,0,0,1-2.40527,2.40527H346.2583a2.40479,2.40479,0,0,1-2.40479-2.40479V252.81934A2.40527,2.40527,0,0,1,346.25879,250.41406Z" fill="url(#x)"/><path d="M377.25916,250.81888a2,2,0,0,1,2,2v11a2,2,0,0,1-2,2h-31a2,2,0,0,1-2-2v-11a2,2,0,0,1,2-2h31m0-.81h-31a2.81324,2.81324,0,0,0-2.81006,2.81v11a2.81324,2.81324,0,0,0,2.81006,2.81h31a2.81324,2.81324,0,0,0,2.81-2.81v-11a2.81324,2.81324,0,0,0-2.81-2.81Z" fill="#252525"/><path d="M24.74846,39.16318a4.26664,4.26664,0,1,1-4.2655-4.26731A4.26553,4.26553,0,0,1,24.74846,39.16318Z" fill="#b3b3b3" stroke="#1a1a1a" stroke-miterlimit="10" stroke-width="0.5"/><path d="M87.62879,39.16318a4.26664,4.26664,0,1,1-4.266-4.26731A4.26594,4.26594,0,0,1,87.62879,39.16318Z" fill="#b3b3b3" stroke="#1a1a1a" stroke-miterlimit="10" stroke-width="0.5"/><path d="M150.62119,39.16318a4.26665,4.26665,0,1,1-4.26543-4.26731A4.26548,4.26548,0,0,1,150.62119,39.16318Z" fill="#b3b3b3" stroke="#1a1a1a" stroke-miterlimit="10" stroke-width="0.5"/><path d="M213.50018,39.16318a4.2664,4.2664,0,1,1-4.2655-4.26731A4.26584,4.26584,0,0,1,213.50018,39.16318Z" fill="#b3b3b3" stroke="#1a1a1a" stroke-miterlimit="10" stroke-width="0.5"/><path d="M276.493,39.16318a4.2664,4.2664,0,1,1-4.26635-4.26731A4.26656,4.26656,0,0,1,276.493,39.16318Z" fill="#b3b3b3" stroke="#1a1a1a" stroke-miterlimit="10" stroke-width="0.5"/><path d="M339.37205,39.16318a4.26641,4.26641,0,1,1-4.26645-4.26731A4.26665,4.26665,0,0,1,339.37205,39.16318Z" fill="#b3b3b3" stroke="#1a1a1a" stroke-miterlimit="10" stroke-width="0.5"/><path d="M24.74846,102.03851A4.26664,4.26664,0,1,1,20.483,97.773,4.26591,4.26591,0,0,1,24.74846,102.03851Z" fill="#b3b3b3" stroke="#1a1a1a" stroke-miterlimit="10" stroke-width="0.5"/><path d="M87.62879,102.03851a4.26664,4.26664,0,1,1-4.266-4.2655A4.26631,4.26631,0,0,1,87.62879,102.03851Z" fill="#b3b3b3" stroke="#1a1a1a" stroke-miterlimit="10" stroke-width="0.5"/><path d="M150.62119,102.03851a4.26665,4.26665,0,1,1-4.26543-4.2655A4.26585,4.26585,0,0,1,150.62119,102.03851Z" fill="#b3b3b3" stroke="#1a1a1a" stroke-miterlimit="10" stroke-width="0.5"/><path d="M213.50018,102.03851a4.2664,4.2664,0,1,1-4.2655-4.2655A4.26621,4.26621,0,0,1,213.50018,102.03851Z" fill="#b3b3b3" stroke="#1a1a1a" stroke-miterlimit="10" stroke-width="0.5"/><path d="M276.493,102.03851a4.2664,4.2664,0,1,1-4.26635-4.2655A4.26694,4.26694,0,0,1,276.493,102.03851Z" fill="#b3b3b3" stroke="#1a1a1a" stroke-miterlimit="10" stroke-width="0.5"/><path d="M339.37205,102.03851a4.26641,4.26641,0,1,1-4.26645-4.2655A4.267,4.267,0,0,1,339.37205,102.03851Z" fill="#b3b3b3" stroke="#1a1a1a" stroke-miterlimit="10" stroke-width="0.5"/><path d="M24.74846,195.40148A4.26664,4.26664,0,1,1,20.483,191.136,4.26585,4.26585,0,0,1,24.74846,195.40148Z" fill="#b3b3b3" stroke="#1a1a1a" stroke-miterlimit="10" stroke-width="0.5"/><path d="M87.62879,195.40148a4.26664,4.26664,0,1,1-4.266-4.26549A4.26625,4.26625,0,0,1,87.62879,195.40148Z" fill="#b3b3b3" stroke="#1a1a1a" stroke-miterlimit="10" stroke-width="0.5"/><path d="M150.62119,195.40148a4.26665,4.26665,0,1,1-4.26543-4.26549A4.26579,4.26579,0,0,1,150.62119,195.40148Z" fill="#b3b3b3" stroke="#1a1a1a" stroke-miterlimit="10" stroke-width="0.5"/><path d="M213.50018,195.40148a4.2664,4.2664,0,1,1-4.2655-4.26549A4.26615,4.26615,0,0,1,213.50018,195.40148Z" fill="#b3b3b3" stroke="#1a1a1a" stroke-miterlimit="10" stroke-width="0.5"/><path d="M276.493,195.40148a4.2664,4.2664,0,1,1-4.26635-4.26549A4.26688,4.26688,0,0,1,276.493,195.40148Z" fill="#b3b3b3" stroke="#1a1a1a" stroke-miterlimit="10" stroke-width="0.5"/><path d="M339.37205,195.40148a4.26641,4.26641,0,1,1-4.26645-4.26549A4.267,4.267,0,0,1,339.37205,195.40148Z" fill="#b3b3b3" stroke="#1a1a1a" stroke-miterlimit="10" stroke-width="0.5"/><path d="M24.74846,258.27862a4.26664,4.26664,0,1,1-4.2655-4.26823A4.26634,4.26634,0,0,1,24.74846,258.27862Z" fill="#b3b3b3" stroke="#1a1a1a" stroke-miterlimit="10" stroke-width="0.5"/><path d="M87.62879,258.27862a4.26664,4.26664,0,1,1-4.266-4.26823A4.26674,4.26674,0,0,1,87.62879,258.27862Z" fill="#b3b3b3" stroke="#1a1a1a" stroke-miterlimit="10" stroke-width="0.5"/><path d="M150.62119,258.27862a4.26665,4.26665,0,1,1-4.26543-4.26823A4.26628,4.26628,0,0,1,150.62119,258.27862Z" fill="#b3b3b3" stroke="#1a1a1a" stroke-miterlimit="10" stroke-width="0.5"/><path d="M213.50018,258.27862a4.2664,4.2664,0,1,1-4.2655-4.26823A4.26664,4.26664,0,0,1,213.50018,258.27862Z" fill="#b3b3b3" stroke="#1a1a1a" stroke-miterlimit="10" stroke-width="0.5"/><path d="M276.493,258.27862a4.2664,4.2664,0,1,1-4.26635-4.26823A4.26737,4.26737,0,0,1,276.493,258.27862Z" fill="#b3b3b3" stroke="#1a1a1a" stroke-miterlimit="10" stroke-width="0.5"/><path d="M339.37205,258.27862a4.26641,4.26641,0,1,1-4.26645-4.26823A4.26745,4.26745,0,0,1,339.37205,258.27862Z" fill="#b3b3b3" stroke="#1a1a1a" stroke-miterlimit="10" stroke-width="0.5"/></svg>