<svg xmlns="http://www.w3.org/2000/svg" xmlns:xlink="http://www.w3.org/1999/xlink" viewBox="0 0 162 96"><defs><radialGradient id="a" cx="20.00043" cy="57.70547" r="0.68634" gradientUnits="userSpaceOnUse"><stop offset="0" stop-color="#fff"/><stop offset="0.10891" stop-color="#f9f9f9"/><stop offset="0.24917" stop-color="#e9e9e9"/><stop offset="0.40662" stop-color="#cfcfcf"/><stop offset="0.57669" stop-color="#aaa"/><stop offset="0.75686" stop-color="#7a7a7a"/><stop offset="0.94276" stop-color="#414141"/><stop offset="1" stop-color="#2e2e2e"/></radialGradient><radialGradient id="b" cx="38.37069" cy="57.70523" r="4.22009" gradientUnits="userSpaceOnUse"><stop offset="0" stop-color="#e6e6e6"/><stop offset="0.28382" stop-color="#c8c8c8"/><stop offset="0.8886" stop-color="#7d7d7d"/><stop offset="1" stop-color="#262626"/></radialGradient></defs><title>power</title><rect width="162" height="96" fill="#ccc"/><rect x="7.37549" y="41.19141" width="44.21289" height="25.8457" rx="0.7998" ry="0.7998" fill="#333"/><path d="M50.78873,41.39093a.60064.60064,0,0,1,.6.6v24.246a.60064.60064,0,0,1-.6.6H8.17545a.60064.60064,0,0,1-.6-.6v-24.246a.60064.60064,0,0,1,.6-.6H50.78873m0-.4H8.17545a1,1,0,0,0-1,1v24.246a1,1,0,0,0,1,1H50.78873a1,1,0,0,0,1-1v-24.246a1,1,0,0,0-1-1Z" fill="#4d4d4d"/><path d="M50.78873,40.99091a1,1,0,0,1,1,1v24.246a1,1,0,0,1-1,1H8.17545a1,1,0,0,1-1-1v-24.246a1,1,0,0,1,1-1H50.78873m0-.3H8.17545a1.30146,1.30146,0,0,0-1.3,1.3v24.246a1.30146,1.30146,0,0,0,1.3,1.3H50.78873a1.30146,1.30146,0,0,0,1.3-1.3v-24.246a1.30146,1.30146,0,0,0-1.3-1.3Z"/><circle cx="20.00043" cy="57.70547" r="2.26111"/><circle cx="20.00043" cy="57.70547" r="2.26111" fill="none" stroke="#1a1a1a" stroke-miterlimit="10" stroke-width="1.50603"/><circle cx="20.00043" cy="57.70547" r="2.26111" fill="none" stroke="#b3b3b3" stroke-miterlimit="10" stroke-width="0.6"/><circle cx="20.00043" cy="57.70547" r="0.68634" fill="url(#a)"/><path d="M22.51044,86.17607H57.9105a2.5,2.5,0,0,0,2.5-2.5v-66a2.5,2.5,0,0,1,2.5-2.5h0a2.5,2.5,0,0,1,2.5,2.5v66a2.5,2.5,0,0,0,2.5,2.5h0a2.5,2.5,0,0,0,2.5-2.5v-66a2.5,2.5,0,0,1,2.5-2.5h0a2.5,2.5,0,0,1,2.5,2.5v66a2.5,2.5,0,0,0,2.5,2.5h11a2.5,2.5,0,0,0,2.5-2.5v-5.5" fill="none" stroke="#4d4d4d" stroke-miterlimit="10" stroke-width="1.7"/><path d="M22.51044,86.17607H57.9105a2.5,2.5,0,0,0,2.5-2.5v-66a2.5,2.5,0,0,1,2.5-2.5h0a2.5,2.5,0,0,1,2.5,2.5v66a2.5,2.5,0,0,0,2.5,2.5h0a2.5,2.5,0,0,0,2.5-2.5v-66a2.5,2.5,0,0,1,2.5-2.5h0a2.5,2.5,0,0,1,2.5,2.5v66a2.5,2.5,0,0,0,2.5,2.5h11a2.5,2.5,0,0,0,2.5-2.5v-5.5" fill="none" stroke="#000" stroke-miterlimit="10" stroke-width="1.8"/><path d="M91.2105,27.17607v-9.5a2.5,2.5,0,0,1,2.5-2.5h11a2.5,2.5,0,0,1,2.5,2.5v66a2.5,2.5,0,0,0,2.5,2.5h0a2.5,2.5,0,0,0,2.5-2.5v-66a2.5,2.5,0,0,1,2.5-2.5h0a2.5,2.5,0,0,1,2.5,2.5v66a2.5,2.5,0,0,0,2.5,2.5h0a2.5,2.5,0,0,0,2.5-2.5v-66a2.5,2.5,0,0,1,2.5-2.5h0a2.5,2.5,0,0,1,2.5,2.5v66a2.5,2.5,0,0,0,2.5,2.5h0a2.5,2.5,0,0,0,2.5-2.5V51.67628a2.5,2.5,0,0,1,2.5-2.5h16.5a2.5,2.5,0,0,1,2.5,2.5v6.93308a2.5,2.5,0,0,1-2.5,2.5h-5.44374a2.5,2.5,0,0,1-2.5-2.5V33.033" fill="none" stroke="#4d4d4d" stroke-miterlimit="10" stroke-width="1.7"/><path d="M91.2105,27.17607v-9.5a2.5,2.5,0,0,1,2.5-2.5h11a2.5,2.5,0,0,1,2.5,2.5v66a2.5,2.5,0,0,0,2.5,2.5h0a2.5,2.5,0,0,0,2.5-2.5v-66a2.5,2.5,0,0,1,2.5-2.5h0a2.5,2.5,0,0,1,2.5,2.5v66a2.5,2.5,0,0,0,2.5,2.5h0a2.5,2.5,0,0,0,2.5-2.5v-66a2.5,2.5,0,0,1,2.5-2.5h0a2.5,2.5,0,0,1,2.5,2.5v66a2.5,2.5,0,0,0,2.5,2.5h0a2.5,2.5,0,0,0,2.5-2.5V51.67628a2.5,2.5,0,0,1,2.5-2.5h16.5a2.5,2.5,0,0,1,2.5,2.5v6.93308a2.5,2.5,0,0,1-2.5,2.5h-5.44374a2.5,2.5,0,0,1-2.5-2.5V33.033" fill="none" stroke="#000" stroke-miterlimit="10" stroke-width="1.8"/><path d="M90.37142,67.777H92.284a1.09961,1.09961,0,0,1,1.09961,1.09961v9.44873a1.1001,1.1001,0,0,1-1.1001,1.1001h-1.9126a1.09961,1.09961,0,0,1-1.09961-1.09961V68.87711A1.1001,1.1001,0,0,1,90.37142,67.777Z"/><path d="M92.28362,67.87692a1,1,0,0,1,1,1V78.326a1,1,0,0,1-1,1H90.37154a1,1,0,0,1-1-1v-9.4491a1,1,0,0,1,1-1h1.91208m0-.2H90.37154a1.20135,1.20135,0,0,0-1.2,1.2V78.326a1.20135,1.20135,0,0,0,1.2,1.2h1.91208a1.20135,1.20135,0,0,0,1.2-1.2v-9.4491a1.20135,1.20135,0,0,0-1.2-1.2Z" fill="#999"/><polygon points="87.748 35.438 87.748 29.628 89.574 21.926 93.081 21.926 94.905 29.604 94.908 35.438 87.748 35.438"/><path d="M93.00249,22.026l1.80481,7.60156V35.339H87.84786V29.62759L89.65267,22.026h3.34982m.15808-.2h-3.666l-.0365.15381-1.80481,7.60156L87.64785,35.339v.2h7.35946V29.62759l-1.81024-7.64776-.0365-.15381Z" fill="#999"/><path d="M82.65072,34.70279h17.353a2.1001,2.1001,0,0,1,2.1001,2.1001V74.60171a2.1001,2.1001,0,0,1-2.1001,2.1001H82.6512a2.1001,2.1001,0,0,1-2.1001-2.1001V36.8024A2.09961,2.09961,0,0,1,82.65072,34.70279Z"/><path d="M100.0039,34.80289a2,2,0,0,1,2,2V74.602a2,2,0,0,1-2,2H82.65127a2,2,0,0,1-2-2V36.80289a2,2,0,0,1,2-2H100.0039m0-.2H82.65127a2.20253,2.20253,0,0,0-2.2,2.2V74.602a2.20253,2.20253,0,0,0,2.2,2.2H100.0039a2.20253,2.20253,0,0,0,2.2-2.2V36.80289a2.20253,2.20253,0,0,0-2.2-2.2Z" fill="#999"/><path d="M139.85433,18.362V8.11587a.79029.79029,0,0,1,1.58057,0V18.362Z" fill="#f2f2f2"/><path d="M140.64464,7.426a.69.69,0,0,1,.69.69V18.26279h-1.38V8.116a.69.69,0,0,1,.69-.69m0-.2a.891.891,0,0,0-.89.89V18.4628h1.78006V8.116a.89107.89107,0,0,0-.89005-.89Z" fill="#333"/><path d="M145.262,18.362V8.11587a.79.79,0,0,1,1.58008,0V18.362Z" fill="#f2f2f2"/><path d="M146.052,7.426a.69.69,0,0,1,.69.69V18.26279h-1.38V8.116a.69.69,0,0,1,.69-.69m0-.2a.891.891,0,0,0-.89.89V18.4628H146.942V8.116a.89108.89108,0,0,0-.89005-.89Z" fill="#333"/><rect x="136.89212" y="13.82021" width="7.50506" height="1.38003" transform="translate(126.13442 155.15489) rotate(-90)" stroke="#4d4d4d" stroke-miterlimit="10" stroke-width="0.17257"/><rect x="142.29947" y="13.82021" width="7.50506" height="1.38003" transform="translate(131.54177 160.56223) rotate(-90)" stroke="#4d4d4d" stroke-miterlimit="10" stroke-width="0.17257"/><path d="M145.37553,33.033H141.268a.69.69,0,0,1-.69-.69V29.289a.69.69,0,0,0-.07588-.31458l-3.48116-7.54253a.69007.69007,0,0,1-.07588-.31458V14.43237a.69.69,0,0,1,.69-.69h11.42635a.69.69,0,0,1,.69.69V21.1151a.69.69,0,0,1-.07775.3182l-3.53039,7.53961a.69.69,0,0,0-.07775.3182V32.343A.69.69,0,0,1,145.37553,33.033Z" stroke="#4d4d4d" stroke-miterlimit="10" stroke-width="0.17257"/><path d="M141.52305,32.51549V28.85558a.79187.79187,0,0,0-.06022-.305L138.327,21.23708a.79205.79205,0,0,1-.06021-.305V14.82333a.37858.37858,0,0,1,.38378-.37315h9.3955a.37859.37859,0,0,1,.38379.37315V20.93a.79123.79123,0,0,1-.0617.30854l-3.17491,7.31064a.79133.79133,0,0,0-.0617.30853v3.65782Z" fill="#333" stroke="#4d4d4d" stroke-miterlimit="10" stroke-width="0.25886"/><line x1="140.77043" y1="19.92952" x2="145.92604" y2="19.92952" fill="none" stroke="#666" stroke-linecap="round" stroke-miterlimit="10" stroke-width="0.604"/><line x1="140.77043" y1="18.43669" x2="145.92604" y2="18.43669" fill="none" stroke="#666" stroke-linecap="round" stroke-miterlimit="10" stroke-width="0.604"/><line x1="140.77043" y1="16.94386" x2="145.92604" y2="16.94386" fill="none" stroke="#666" stroke-linecap="round" stroke-miterlimit="10" stroke-width="0.604"/><rect x="142.83074" y="29.30092" width="1.035" height="7.46415" rx="0.5175" ry="0.5175" transform="translate(110.31524 176.38122) rotate(-90)" stroke="#4d4d4d" stroke-miterlimit="10" stroke-width="0.17257"/><rect x="19.25595" y="71.54546" width="2.34183" height="5.22522" fill="#f2f2f2" stroke="#666" stroke-miterlimit="10" stroke-width="0.3"/><rect x="19.25595" y="70.84912" width="2.34183" height="0.93395" fill="#1a1a1a" stroke="#4d4d4d" stroke-miterlimit="10" stroke-width="0.3"/><rect x="17.85235" y="76.49671" width="5.149" height="2.79776" stroke="#4d4d4d" stroke-miterlimit="10" stroke-width="0.18178"/><polygon points="27.04 83.882 24.798 83.882 23.584 82.648 22.405 83.72 22.405 86.201 21.239 88.164 27.04 88.164 27.04 85.045 27.04 83.882" fill="#333" stroke="#666" stroke-miterlimit="10" stroke-width="0.18178"/><polygon points="22.405 86.201 22.405 83.72 23.584 82.648 23.584 77.896 20.427 77.896 17.27 77.896 17.27 86.201 22.405 86.201" fill="#333" stroke="#4d4d4d" stroke-miterlimit="10" stroke-width="0.18178"/><polygon points="29.935 84.005 29.935 88.041 29.001 88.084 29.001 83.962 29.935 84.005" fill="#333" stroke="#b3b3b3" stroke-miterlimit="10" stroke-width="0.18178"/><polygon points="28.515 83.929 28.515 88.117 27.581 88.164 27.581 83.882 28.515 83.929" fill="#333" stroke="#b3b3b3" stroke-miterlimit="10" stroke-width="0.18178"/><polygon points="31.355 84.076 31.355 87.97 30.421 88.01 30.421 84.036 31.355 84.076" fill="#333" stroke="#b3b3b3" stroke-miterlimit="10" stroke-width="0.18178"/><path d="M33.2697,84.59033v2.86538a.28648.28648,0,0,1-.27145.29219l-1.16631.17909V84.11905l1.16631.17908A.28649.28649,0,0,1,33.2697,84.59033Z" fill="#333" stroke="#b3b3b3" stroke-miterlimit="10" stroke-width="0.18178"/><polygon points="17.27 86.201 18.643 88.164 21.239 88.164 22.405 86.201 17.27 86.201" fill="#1a1a1a" stroke="#4d4d4d" stroke-miterlimit="10" stroke-width="0.18178"/><path d="M32.12109,47.12109H32.96c.59082,0,1.03076.20313,1.03076.82227,0,.59082-.43994.86426-1.01416.86426h-.3833v.97754h-.47217Zm.81885,1.30762c.395,0,.58643-.15918.58643-.48535,0-.334-.20752-.44336-.603-.44336h-.33008v.92871Z" fill="#f2f2f2"/><path d="M34.35107,48.44043c0-.85938.48047-1.36816,1.17334-1.36816.69678,0,1.17725.50878,1.17725,1.36816,0,.86426-.48047,1.39355-1.17725,1.39355C34.83154,49.834,34.35107,49.30469,34.35107,48.44043Zm1.86182,0c0-.59473-.269-.957-.68848-.957-.41992,0-.68847.3623-.68847.957,0,.59961.26855.98242.68847.98242C35.94385,49.42285,36.21289,49.04,36.21289,48.44043Z" fill="#f2f2f2"/><path d="M36.95166,47.12109h.48486l.23243,1.34375c.04443.28516.08935.57032.13037.85157h.01611c.05713-.28125.11426-.57032.17529-.85157l.32569-1.34375H38.728l.32617,1.34375c.061.27735.11816.56641.1792.85157h.01611c.041-.28516.08545-.57032.12647-.85157l.23193-1.34375h.45215l-.50879,2.66407h-.58691l-.33008-1.40137c-.04492-.208-.08545-.41113-.11817-.61524H38.5c-.03662.20411-.07764.40723-.12256.61524l-.32178,1.40137h-.57421Z" fill="#f2f2f2"/><path d="M40.47266,47.12109h1.605v.39844H40.94482v.68067h.95752v.39941h-.95752v.78613h1.17334v.39942h-1.6455Z" fill="#f2f2f2"/><path d="M42.66211,47.12109h.8999c.5542,0,.978.19532.978.79a.746.746,0,0,1-.52979.76172l.63575,1.11231h-.52979l-.57422-1.043h-.40771v1.043h-.47217Zm.85107,1.2461c.3628,0,.5625-.1543.5625-.45606,0-.30566-.1997-.41113-.5625-.41113h-.3789v.86719Z" fill="#f2f2f2"/><path d="M38.37093,61.92544a4.22021,4.22021,0,1,1,4.21973-4.21972A4.225,4.225,0,0,1,38.37093,61.92544Z" fill="url(#b)"/><path d="M38.37084,53.63565a4.06983,4.06983,0,1,1-4.07,4.06982,4.06989,4.06989,0,0,1,4.07-4.06982m0-.3a4.36982,4.36982,0,1,0,4.37,4.36981,4.37486,4.37486,0,0,0-4.37-4.36981Z"/><path d="M39.50684,56.24313a2.03784,2.03784,0,0,1,.73615.89395,2.01714,2.01714,0,0,1,.11839.38139,2.05162,2.05162,0,0,1,0,.819,2.02041,2.02041,0,0,1-.30573.72653,2.03774,2.03774,0,0,1-.89394.73614,2.01579,2.01579,0,0,1-.3814.11839,2.05162,2.05162,0,0,1-.819,0,2.02082,2.02082,0,0,1-.72653-.30572,2.03774,2.03774,0,0,1-.73614-.89394,2.01674,2.01674,0,0,1-.11839-.3814,2.05162,2.05162,0,0,1,0-.819,2.02082,2.02082,0,0,1,.30572-.72653,2.04346,2.04346,0,0,1,.54881-.54881" fill="none" stroke="#1a1a1a" stroke-miterlimit="10" stroke-width="0.8"/><line x1="38.37083" y1="57.35244" x2="38.37083" y2="55.25669" fill="none" stroke="#1a1a1a" stroke-miterlimit="10" stroke-width="0.8"/><path d="M25.07124,47.089a1.32055,1.32055,0,0,0-1.30677,1.16074H21.46812a1.699,1.699,0,0,0-1.029-1.40219,1.69622,1.69622,0,0,0-1.86178.364.16244.16244,0,1,0,.22986.2296,1.37387,1.37387,0,0,1,2.23607.43645,1.35586,1.35586,0,0,1,.09172.37217h-.41355a.95676.95676,0,0,0-1.88676,0H16.23638a1.32322,1.32322,0,1,0,0,.32482h2.59829a.95675.95675,0,0,0,1.88676,0H21.135a1.35629,1.35629,0,0,1-.09158.37191,1.37289,1.37289,0,0,1-2.23621.43671.16244.16244,0,0,0-.22986.2296,1.69679,1.69679,0,0,0,2.89079-1.03822h2.29635A1.32017,1.32017,0,1,0,25.07124,47.089ZM14.92963,49.41033a.99814.99814,0,1,1,.99813-.99815A.99814.99814,0,0,1,14.92963,49.41033Zm10.14161,0a.99814.99814,0,1,1,.99812-.99815A.99814.99814,0,0,1,25.07124,49.41033Z" fill="#f2f2f2"/><rect x="24.49537" y="48.24976" width="1.15169" height="0.32482" fill="#f2f2f2"/><polygon points="15.092 47.721 14.767 47.721 14.767 48.25 14.239 48.25 14.239 48.575 14.767 48.575 14.767 49.103 15.092 49.103 15.092 48.575 15.621 48.575 15.621 48.25 15.092 48.25 15.092 47.721" fill="#f2f2f2"/><line x1="89.82758" y1="32.85936" x2="92.82758" y2="32.85936" fill="none" stroke="#4d4d4d" stroke-linecap="round" stroke-miterlimit="10"/><line x1="89.82758" y1="30.85936" x2="92.82758" y2="30.85936" fill="none" stroke="#4d4d4d" stroke-linecap="round" stroke-miterlimit="10"/><line x1="89.82758" y1="28.85936" x2="92.82758" y2="28.85936" fill="none" stroke="#4d4d4d" stroke-linecap="round" stroke-miterlimit="10"/></svg>