<svg viewBox="0 0 646 170" xmlns="http://www.w3.org/2000/svg"><path d="m243 13h27.59689" fill="none" stroke="#666"/><path d="m267.823 17.067 15.177-4.067-15.177-4.067z" fill="#666"/><path d="m343 13h27.59689" fill="none" stroke="#666"/><path d="m367.823 17.067 15.177-4.067-15.177-4.067z" fill="#666"/><path d="m443 13h27.59689" fill="none" stroke="#666"/><path d="m467.823 17.067 15.177-4.067-15.177-4.067z" fill="#666"/><path d="m543 13h27.59686" fill="none" stroke="#666"/><path d="m567.823 17.067 15.177-4.067-15.177-4.067z" fill="#666"/><path d="m543 158h27.59686" fill="none" stroke="#666"/><path d="m567.823 162.067 15.177-4.067-15.177-4.067z" fill="#666"/><path d="m243 53h27.59689" fill="none" stroke="#666"/><path d="m267.823 57.067 15.177-4.067-15.177-4.067z" fill="#666"/><path d="m243 93h27.59689" fill="none" stroke="#666"/><path d="m267.823 97.067 15.177-4.067-15.177-4.067z" fill="#666"/><path d="m243 143h27.59689" fill="none" stroke="#666"/><path d="m267.823 147.067 15.177-4.067-15.177-4.067z" fill="#666"/><path d="m343 93h27.59689" fill="none" stroke="#666"/><path d="m367.823 97.067 15.177-4.064-15.177-4.07z" fill="#666"/><path d="m343 143h27.59689" fill="none" stroke="#666"/><path d="m367.823 147.067 15.177-4.067-15.177-4.067z" fill="#666"/><path d="m443 93h27.59689" fill="none" stroke="#4d4d4d"/><path d="m467.823 97.067 15.177-4.067-15.177-4.067z" fill="#4d4d4d"/><path d="m543 93h27.59686" fill="none" stroke="#4d4d4d"/><path d="m567.823 97.067 15.177-4.067-15.177-4.067z" fill="#4d4d4d"/><path d="m543 128h27.59686" fill="none" stroke="#4d4d4d"/><path d="m567.823 132.067 15.177-4.067-15.177-4.067z" fill="#4d4d4d"/><path d="m343 53h27.59689" fill="none" stroke="#4d4d4d"/><path d="m367.823 57.067 15.177-4.067-15.177-4.067z" fill="#4d4d4d"/><path d="m443 53h27.59689" fill="none" stroke="#4d4d4d"/><path d="m467.823 57.067 15.177-4.067-15.177-4.067z" fill="#4d4d4d"/><path d="m543 53h27.59686" fill="none" stroke="#4d4d4d"/><path d="m567.823 57.067 15.177-4.067-15.177-4.067z" fill="#4d4d4d"/><g fill="#ccc"><path d="m41.85254 10.44336h-1.18848v-1.11621l1.18848-.09082v-1.38574c0-1.78321.80957-2.89942 2.55664-2.89942a3.95923 3.95923 0 0 1 1.458.28809l-.32418 1.13474a2.44635 2.44635 0 0 0 -.99024-.21582c-.82812 0-1.22363.57618-1.22363 1.69239v1.38576h1.85449v1.207h-1.85452v7.54397h-1.47656z"/><path d="m46.58594 6.48145a1.0291 1.0291 0 0 1 2.05273 0 1.029 1.029 0 0 1 -2.05273 0zm.27051 2.75488h1.47655v8.751h-1.47655z"/><path d="m50.02344 9.23633h1.53027l1.65629 4.96972c.25293.86426.541 1.74707.81055 2.5752h.07226c.252-.82813.54-1.71094.792-2.5752l1.65619-4.96972h1.459l-3.09668 8.751h-1.72852z"/><path d="m58.96973 13.62988c0-2.8623 1.92675-4.60937 3.9248-4.60937 2.2334 0 3.49317 1.60254 3.49317 4.10547a5.70521 5.70521 0 0 1 -.05372.8457h-5.90625a2.9026 2.9026 0 0 0 2.917 3.043 3.95527 3.95527 0 0 0 2.17871-.6836l.52246.97168a5.21093 5.21093 0 0 1 -2.88086.90039c-2.34082-.00003-4.19531-1.70999-4.19531-4.57327zm6.12207-.71972c0-1.76465-.793-2.71875-2.16114-2.71875a2.702 2.702 0 0 0 -2.5205 2.71875z"/><path d="m71.49707 13.62988c0-2.8623 1.92676-4.60937 3.92578-4.60937 2.23242 0 3.49317 1.60254 3.49317 4.10547a5.69388 5.69388 0 0 1 -.05469.8457h-5.90528a2.90148 2.90148 0 0 0 2.917 3.043 3.95527 3.95527 0 0 0 2.17871-.6836l.52148.97168a5.20832 5.20832 0 0 1 -2.88086.90039c-2.34082-.00003-4.19531-1.70999-4.19531-4.57327zm6.12207-.71972c0-1.76465-.792-2.71875-2.16016-2.71875a2.70342 2.70342 0 0 0 -2.52148 2.71875z"/><path d="m80.44336 13.62988c0-2.84472 1.80078-4.60937 3.79883-4.60937a3.60331 3.60331 0 0 1 2.44922 1.00879l-.07227-1.49512v-3.36718h1.49414v12.8203h-1.22461l-.126-1.02636h-.05367a3.94822 3.94822 0 0 1 -2.64648 1.24218c-2.19729 0-3.61916-1.65624-3.61916-4.57324zm6.17578 2.125v-4.57324a3.043 3.043 0 0 0 -2.125-.91894c-1.4043 0-2.52051 1.35058-2.52051 3.3496 0 2.0879.88184 3.34864 2.41309 3.34864a2.96468 2.96468 0 0 0 2.23242-1.20606z"/><path d="m90.793 6.48145a1.0291 1.0291 0 0 1 2.05273 0 1.029 1.029 0 0 1 -2.05273 0zm.27051 2.75488h1.47649v8.751h-1.47652z"/><path d="m95.74316 15.28613v-4.84277h-1.29687v-1.11621l1.36914-.09082.17969-2.44824h1.24218v2.44824h2.3584v1.207h-2.3584v4.86133c0 1.08008.3418 1.69238 1.35059 1.69238a3.17187 3.17187 0 0 0 .99023-.23437l.28809 1.11621a5.39992 5.39992 0 0 1 -1.62012.32421c-1.87304.00003-2.50293-1.18844-2.50293-2.91696z"/><path d="m101.30469 6.48145a1.0291 1.0291 0 0 1 2.05273 0 1.029 1.029 0 0 1 -2.05273 0zm.27051 2.75488h1.47656v8.751h-1.47656z"/><path d="m106.00293 9.23633h1.22363l.126 1.26074h.05469a4.125 4.125 0 0 1 2.93457-1.47656c1.83691 0 2.665 1.18847 2.665 3.4209v5.54589h-1.47657v-5.34765c0-1.63867-.5039-2.34082-1.65625-2.34082-.90039 0-1.51269.46875-2.39453 1.35058v6.33789h-1.47656z"/><path d="m115.18262 19.66211a2.52634 2.52634 0 0 1 1.27832-1.98047v-.07226a1.6171 1.6171 0 0 1 -.77442-1.42286 2.048 2.048 0 0 1 .9541-1.62011v-.07227a3.08895 3.08895 0 0 1 2.16114-5.47363 3.49427 3.49427 0 0 1 1.24219.21582h3.043v1.13476h-1.80078a2.539 2.539 0 0 1 .72071 1.80079 3.00353 3.00353 0 0 1 -3.20508 3.043 3.05482 3.05482 0 0 1 -1.31446-.30664 1.329 1.329 0 0 0 -.55859 1.04492c0 .55762.36035.95411 1.54883.95411h1.69238c2.03516 0 3.06153.62988 3.06153 2.08789 0 1.62109-1.71094 3.02539-4.42969 3.02539-2.14262-.00004-3.61918-.84672-3.61918-2.35844zm6.6084-.4502c0-.81054-.63086-1.08007-1.76465-1.08007h-1.5127a4.256 4.256 0 0 1 -1.13476-.14454 1.845 1.845 0 0 0 -.90039 1.47657c0 .93652.95507 1.53027 2.53906 1.53027 1.6748 0 2.77342-.86426 2.77342-1.78223zm-1.13477-7.07617a1.86251 1.86251 0 1 0 -3.709 0 1.86764 1.86764 0 1 0 3.709 0z"/><path d="m127.54883 16.99707.7373-.99023a3.9376 3.9376 0 0 0 2.5752 1.04394c1.15234 0 1.72851-.6123 1.72851-1.36816 0-.90039-1.04394-1.29688-1.999-1.65625-1.24219-.4502-2.61035-1.04492-2.61035-2.52149 0-1.40429 1.11621-2.48437 3.00683-2.48437a4.3671 4.3671 0 0 1 2.71875.99023l-.70214.93653a3.24872 3.24872 0 0 0 -1.998-.77442c-1.09863 0-1.60254.59473-1.60254 1.26074 0 .82813.9541 1.13379 1.94434 1.5127 1.25976.46777 2.665.99023 2.665 2.64648 0 1.42188-1.13477 2.61035-3.20508 2.61035a5.26452 5.26452 0 0 1 -3.25882-1.20605z"/><path d="m135.95508 15.28613v-4.84277h-1.29688v-1.11621l1.36914-.09082.17969-2.44824h1.24219v2.44824h2.3584v1.207h-2.3584v4.86133c0 1.08008.3418 1.69238 1.35058 1.69238a3.17193 3.17193 0 0 0 .99024-.23437l.28808 1.11621a5.39979 5.39979 0 0 1 -1.62011.32421c-1.87301.00003-2.50293-1.18844-2.50293-2.91696z"/><path d="m140.88672 13.62988c0-2.8623 1.92676-4.60937 3.9248-4.60937 2.2334 0 3.49317 1.60254 3.49317 4.10547a5.7067 5.7067 0 0 1 -.05371.8457h-5.90625a2.90259 2.90259 0 0 0 2.917 3.043 3.95527 3.95527 0 0 0 2.17871-.6836l.52246.97168a5.21093 5.21093 0 0 1 -2.88086.90039c-2.34083-.00003-4.19532-1.70999-4.19532-4.57327zm6.12207-.71972c0-1.76465-.793-2.71875-2.16113-2.71875a2.702 2.702 0 0 0 -2.52051 2.71875z"/><path d="m150.46289 9.23633h1.22363l.126 1.00879h.05469a4.52931 4.52931 0 0 1 2.791-1.22461c2.25 0 3.457 1.74707 3.457 4.46582 0 2.9707-1.7832 4.71679-3.78125 4.71679a4.05552 4.05552 0 0 1 -2.43066-1.00781l.03613 1.53028v2.95312h-1.47656zm6.12109 4.25c0-1.92676-.64746-3.22363-2.30468-3.22363a3.68394 3.68394 0 0 0 -2.33985 1.18847v4.59183a3.46307 3.46307 0 0 0 2.14258.918c1.44043-.00006 2.50197-1.31452 2.50197-3.47467z"/><path d="m159.48047 16.99707.7373-.99023a3.9376 3.9376 0 0 0 2.5752 1.04394c1.15234 0 1.72851-.6123 1.72851-1.36816 0-.90039-1.04394-1.29688-1.999-1.65625-1.24219-.4502-2.61035-1.04492-2.61035-2.52149 0-1.40429 1.11621-2.48437 3.00684-2.48437a4.36714 4.36714 0 0 1 2.71875.99023l-.70215.93653a3.24872 3.24872 0 0 0 -1.99805-.77442c-1.09863 0-1.60254.59473-1.60254 1.26074 0 .82813.9541 1.13379 1.94434 1.5127 1.25976.46777 2.665.99023 2.665 2.64648 0 1.42188-1.13477 2.61035-3.20508 2.61035a5.26452 5.26452 0 0 1 -3.25877-1.20605z"/><path d="m167.68848 10.58691a1.07414 1.07414 0 1 1 2.14257 0 1.07219 1.07219 0 1 1 -2.14257 0zm0 6.5a1.07414 1.07414 0 1 1 2.14257 0 1.07219 1.07219 0 1 1 -2.14257 0z"/><path d="m42.01465 54.78223v-5.5459h1.49414v5.34767c0 1.63868.48633 2.34082 1.63867 2.34082.90039 0 1.53027-.45019 2.3584-1.47656v-6.21193h1.47656v8.751h-1.22461l-.126-1.36816h-.05372a3.69975 3.69975 0 0 1 -2.88085 1.584c-1.85447-.00005-2.68259-1.18852-2.68259-3.42094z"/><path d="m51.93262 49.23633h1.22363l.126 1.26074h.05468a4.12507 4.12507 0 0 1 2.93457-1.47656c1.83692 0 2.665 1.18847 2.665 3.4209v5.54589h-1.4765v-5.34765c0-1.63867-.50391-2.34082-1.65625-2.34082-.90039 0-1.51269.46875-2.39453 1.35058v6.33789h-1.4766z"/><path d="m61.14746 53.62988c0-2.84472 1.80078-4.60937 3.79981-4.60937a3.60279 3.60279 0 0 1 2.44824 1.00879l-.07227-1.49512v-3.36718h1.49512v12.8203h-1.22461l-.126-1.02636h-.05371a3.95054 3.95054 0 0 1 -2.64746 1.24218c-2.19627 0-3.61912-1.65624-3.61912-4.57324zm6.17578 2.125v-4.57324a3.04255 3.04255 0 0 0 -2.124-.91894c-1.4043 0-2.52051 1.35058-2.52051 3.3496 0 2.0879.88184 3.34864 2.41211 3.34864a2.96162 2.96162 0 0 0 2.2324-1.20606z"/><path d="m71.11914 53.62988c0-2.93457 1.90918-4.60937 4.05176-4.60937s4.05078 1.6748 4.05078 4.60937c0 2.89942-1.9082 4.57324-4.05078 4.57324s-4.05176-1.67382-4.05176-4.57324zm6.57227 0c0-2.0166-1.00782-3.38476-2.52051-3.38476-1.49414 0-2.52051 1.36816-2.52051 3.38476 0 1.999 1.02637 3.34961 2.52051 3.34961 1.51269 0 2.52051-1.35058 2.52051-3.34961z"/><path d="m85.376 55.28613v-4.84277h-1.2969v-1.11621l1.36914-.09082.17969-2.44824h1.24219v2.44824h2.3584v1.207h-2.3584v4.86133c0 1.08008.34179 1.69238 1.35058 1.69238a3.17193 3.17193 0 0 0 .99024-.23437l.28808 1.11621a5.39979 5.39979 0 0 1 -1.62011.32421c-1.87305.00003-2.50291-1.18844-2.50291-2.91696z"/><path d="m91.208 45.167h1.47656v3.49317l-.05469 1.80078a4.18508 4.18508 0 0 1 2.917-1.44043c1.83691 0 2.665 1.18847 2.665 3.4209v5.54588h-1.47652v-5.34765c0-1.63867-.5039-2.34082-1.65625-2.34082-.90039 0-1.51269.46875-2.39453 1.35058v6.33789h-1.47657z"/><path d="m101 49.23633h1.22363l.126 1.585h.05469a2.99189 2.99189 0 0 1 2.48437-1.80078 2.17611 2.17611 0 0 1 .93653.17969l-.28809 1.29687a2.45477 2.45477 0 0 0 -.84668-.14453c-.73828 0-1.62012.541-2.21387 2.01758v5.61714h-1.47658z"/><path d="m106.417 53.62988c0-2.8623 1.92676-4.60937 3.92578-4.60937 2.23243 0 3.49317 1.60254 3.49317 4.10547a5.69388 5.69388 0 0 1 -.05469.8457h-5.90526a2.90147 2.90147 0 0 0 2.917 3.043 3.95527 3.95527 0 0 0 2.17871-.6836l.52148.97168a5.20832 5.20832 0 0 1 -2.88086.90039c-2.34085-.00003-4.19533-1.70999-4.19533-4.57327zm6.12207-.71972c0-1.76465-.792-2.71875-2.16015-2.71875a2.70343 2.70343 0 0 0 -2.52149 2.71875z"/><path d="m115.34473 53.62988c0-2.8623 1.92675-4.60937 3.92578-4.60937 2.23242 0 3.49316 1.60254 3.49316 4.10547a5.69253 5.69253 0 0 1 -.05469.8457h-5.90527a2.90147 2.90147 0 0 0 2.917 3.043 3.95522 3.95522 0 0 0 2.17871-.6836l.52149.97168a5.20832 5.20832 0 0 1 -2.88086.90039c-2.34083-.00003-4.19532-1.70999-4.19532-4.57327zm6.12207-.71972c0-1.76465-.792-2.71875-2.16016-2.71875a2.70341 2.70341 0 0 0 -2.52148 2.71875z"/><path d="m127.54883 56.99707.7373-.99023a3.9376 3.9376 0 0 0 2.5752 1.04394c1.15234 0 1.72851-.6123 1.72851-1.36816 0-.90039-1.04394-1.29688-1.999-1.65625-1.24219-.4502-2.61035-1.04492-2.61035-2.52149 0-1.40429 1.11621-2.48437 3.00683-2.48437a4.3671 4.3671 0 0 1 2.71875.99023l-.70214.93653a3.24872 3.24872 0 0 0 -1.998-.77442c-1.09863 0-1.60254.59473-1.60254 1.26074 0 .82813.9541 1.13379 1.94434 1.5127 1.25976.46777 2.665.99023 2.665 2.64648 0 1.42188-1.13477 2.61035-3.20508 2.61035a5.26452 5.26452 0 0 1 -3.25882-1.20605z"/><path d="m135.95508 55.28613v-4.84277h-1.29688v-1.11621l1.36914-.09082.17969-2.44824h1.24219v2.44824h2.3584v1.207h-2.3584v4.86133c0 1.08008.3418 1.69238 1.35058 1.69238a3.17193 3.17193 0 0 0 .99024-.23437l.28808 1.11621a5.39979 5.39979 0 0 1 -1.62011.32421c-1.87301.00003-2.50293-1.18844-2.50293-2.91696z"/><path d="m140.88672 53.62988c0-2.8623 1.92676-4.60937 3.9248-4.60937 2.2334 0 3.49317 1.60254 3.49317 4.10547a5.7067 5.7067 0 0 1 -.05371.8457h-5.90625a2.90259 2.90259 0 0 0 2.917 3.043 3.95527 3.95527 0 0 0 2.17871-.6836l.52246.97168a5.21093 5.21093 0 0 1 -2.88086.90039c-2.34083-.00003-4.19532-1.70999-4.19532-4.57327zm6.12207-.71972c0-1.76465-.793-2.71875-2.16113-2.71875a2.702 2.702 0 0 0 -2.52051 2.71875z"/><path d="m150.46289 49.23633h1.22363l.126 1.00879h.05469a4.52931 4.52931 0 0 1 2.791-1.22461c2.25 0 3.457 1.74707 3.457 4.46582 0 2.9707-1.7832 4.71679-3.78125 4.71679a4.05552 4.05552 0 0 1 -2.43066-1.00781l.03613 1.53028v2.95312h-1.47656zm6.12109 4.25c0-1.92676-.64746-3.22363-2.30468-3.22363a3.68394 3.68394 0 0 0 -2.33985 1.18847v4.59183a3.46307 3.46307 0 0 0 2.14258.918c1.44043-.00006 2.50197-1.31452 2.50197-3.47467z"/><path d="m159.48047 56.99707.73828-.99023a3.93355 3.93355 0 0 0 2.5752 1.04394c1.15234 0 1.72851-.6123 1.72851-1.36816 0-.90039-1.04492-1.29688-1.999-1.65625-1.24219-.4502-2.61035-1.04492-2.61035-2.52149 0-1.40429 1.11621-2.48437 3.00683-2.48437a4.37154 4.37154 0 0 1 2.71875.99023l-.70215.93653a3.25139 3.25139 0 0 0 -1.999-.77442c-1.09863 0-1.60254.59473-1.60254 1.26074 0 .82813.9541 1.13379 1.94434 1.5127 1.26074.46777 2.665.99023 2.665 2.64648 0 1.42188-1.13379 2.61035-3.20508 2.61035a5.26452 5.26452 0 0 1 -3.25879-1.20605z"/><path d="m167.68848 50.58691a1.07414 1.07414 0 1 1 2.14257 0 1.07219 1.07219 0 1 1 -2.14257 0zm0 6.5a1.07414 1.07414 0 1 1 2.14257 0 1.07219 1.07219 0 1 1 -2.14257 0z"/><path d="m65.59375 89.23633h1.22461l.126 1.585h.05371a2.99443 2.99443 0 0 1 2.48535-1.80078 2.17158 2.17158 0 0 1 .93555.17969l-.28809 1.29687a2.449 2.449 0 0 0 -.8457-.14453c-.73828 0-1.6211.541-2.21485 2.01758v5.61714h-1.47658z"/><path d="m71.01172 93.62988c0-2.8623 1.92676-4.60937 3.9248-4.60937 2.2334 0 3.49317 1.60254 3.49317 4.10547a5.7067 5.7067 0 0 1 -.05371.8457h-5.90625a2.90259 2.90259 0 0 0 2.917 3.043 3.95527 3.95527 0 0 0 2.17871-.6836l.52246.97168a5.21093 5.21093 0 0 1 -2.88086.90039c-2.34083-.00003-4.19532-1.70999-4.19532-4.57327zm6.12207-.71972c0-1.76465-.793-2.71875-2.16113-2.71875a2.702 2.702 0 0 0 -2.52051 2.71875z"/><path d="m79.957 93.62988c0-2.84472 1.80078-4.60937 3.79981-4.60937a3.60279 3.60279 0 0 1 2.44824 1.00879l-.07227-1.49512v-3.36718h1.49512v12.8203h-1.22458l-.126-1.02636h-.05371a3.95054 3.95054 0 0 1 -2.64746 1.24218c-2.19627 0-3.61915-1.65624-3.61915-4.57324zm6.17578 2.125v-4.57324a3.04255 3.04255 0 0 0 -2.124-.91894c-1.4043 0-2.52051 1.35058-2.52051 3.3496 0 2.0879.88184 3.34864 2.41211 3.34864a2.96162 2.96162 0 0 0 2.23243-1.20606z"/><path d="m89.92871 93.62988c0-2.93457 1.90918-4.60937 4.05176-4.60937s4.05078 1.6748 4.05078 4.60937c0 2.89942-1.9082 4.57324-4.05078 4.57324s-4.05176-1.67382-4.05176-4.57324zm6.57227 0c0-2.0166-1.00782-3.38476-2.52051-3.38476-1.49414 0-2.52051 1.36816-2.52051 3.38476 0 1.999 1.02637 3.34961 2.52051 3.34961 1.51269 0 2.52053-1.35058 2.52053-3.34961z"/><path d="m103.28516 93.62988c0-2.93457 1.9082-4.60937 4.05078-4.60937s4.05176 1.6748 4.05176 4.60937c0 2.89942-1.90918 4.57324-4.05176 4.57324s-4.05078-1.67382-4.05078-4.57324zm6.57226 0c0-2.0166-1.00879-3.38476-2.52148-3.38476-1.49414 0-2.52051 1.36816-2.52051 3.38476 0 1.999 1.02637 3.34961 2.52051 3.34961 1.51269 0 2.52148-1.35058 2.52148-3.34961z"/><path d="m113.68945 89.23633h1.22364l.126 1.26074h.05469a4.12507 4.12507 0 0 1 2.93457-1.47656c1.83691 0 2.665 1.18847 2.665 3.4209v5.54589h-1.47655v-5.34765c0-1.63867-.50391-2.34082-1.65625-2.34082-.90039 0-1.5127.46875-2.39453 1.35058v6.33789h-1.47657z"/><path d="m122.88672 93.62988c0-2.8623 1.92676-4.60937 3.9248-4.60937 2.2334 0 3.49317 1.60254 3.49317 4.10547a5.7067 5.7067 0 0 1 -.05371.8457h-5.90625a2.90259 2.90259 0 0 0 2.917 3.043 3.95527 3.95527 0 0 0 2.17871-.6836l.52246.97168a5.21093 5.21093 0 0 1 -2.88086.90039c-2.34083-.00003-4.19532-1.70999-4.19532-4.57327zm6.12207-.71972c0-1.76465-.793-2.71875-2.16113-2.71875a2.702 2.702 0 0 0 -2.52051 2.71875z"/><path d="m135.09082 96.99707.7373-.99023a3.93762 3.93762 0 0 0 2.5752 1.04394c1.15234 0 1.72852-.6123 1.72852-1.36816 0-.90039-1.044-1.29688-1.999-1.65625-1.24219-.4502-2.61035-1.04492-2.61035-2.52149 0-1.40429 1.11621-2.48437 3.00684-2.48437a4.36714 4.36714 0 0 1 2.71875.99023l-.70215.93653a3.24872 3.24872 0 0 0 -1.998-.77442c-1.09863 0-1.60254.59473-1.60254 1.26074 0 .82813.9541 1.13379 1.94434 1.5127 1.25976.46777 2.665.99023 2.665 2.64648 0 1.42188-1.13477 2.61035-3.20508 2.61035a5.26454 5.26454 0 0 1 -3.25883-1.20605z"/><path d="m143.49707 95.28613v-4.84277h-1.29687v-1.11621l1.36914-.09082.17968-2.44824h1.24219v2.44824h2.3584v1.207h-2.3584v4.86133c0 1.08008.3418 1.69238 1.35059 1.69238a3.17187 3.17187 0 0 0 .99023-.23437l.28809 1.11621a5.39992 5.39992 0 0 1 -1.62012.32424c-1.873 0-2.50293-1.18847-2.50293-2.91699z"/><path d="m148.42871 93.62988c0-2.8623 1.92676-4.60937 3.92481-4.60937 2.23339 0 3.49316 1.60254 3.49316 4.10547a5.7067 5.7067 0 0 1 -.05371.8457h-5.90625a2.9026 2.9026 0 0 0 2.917 3.043 3.95524 3.95524 0 0 0 2.17871-.6836l.52246.97168a5.2109 5.2109 0 0 1 -2.88086.90039c-2.34083-.00003-4.19532-1.70999-4.19532-4.57327zm6.12207-.71972c0-1.76465-.793-2.71875-2.16113-2.71875a2.702 2.702 0 0 0 -2.52051 2.71875z"/><path d="m158.00488 89.23633h1.22364l.126 1.00879h.05469a4.52931 4.52931 0 0 1 2.791-1.22461c2.25 0 3.457 1.74707 3.457 4.46582 0 2.9707-1.78321 4.71679-3.78125 4.71679a4.05552 4.05552 0 0 1 -2.43067-1.00781l.03614 1.53028v2.95312h-1.47657zm6.1211 4.25c0-1.92676-.64746-3.22363-2.30469-3.22363a3.6839 3.6839 0 0 0 -2.33984 1.18847v4.59183a3.463 3.463 0 0 0 2.14257.918c1.44043-.00006 2.50198-1.31452 2.50198-3.47467z"/><path d="m167.68848 90.58691a1.07414 1.07414 0 1 1 2.14257 0 1.07219 1.07219 0 1 1 -2.14257 0zm0 6.5a1.07414 1.07414 0 1 1 2.14257 0 1.07219 1.07219 0 1 1 -2.14257 0z"/><path d="m4.71875 145.28613v-4.84277h-1.2959v-1.11621l1.36817-.09082.17968-2.44824h1.24317v2.44824h2.3584v1.207h-2.3584v4.86133c0 1.08008.34179 1.69238 1.34961 1.69238a3.16552 3.16552 0 0 0 .99023-.23437l.28809 1.11621a5.39382 5.39382 0 0 1 -1.62012.32421c-1.87207.00003-2.50293-1.18844-2.50293-2.91696z"/><path d="m9.50684 139.23633h1.51269l1.2959 5.05957c.19824.82812.36035 1.62109.52246 2.43066h.07129c.19824-.80957.37891-1.62011.59473-2.43066l1.35058-5.05957h1.44043l1.36817 5.05957c.21582.82812.41406 1.62109.6123 2.43066h.07227c.19726-.80957.35937-1.60254.54-2.43066l1.27832-5.05957h1.40429l-2.34082 8.751h-1.80074l-1.25971-4.69924c-.2168-.82813-.37891-1.63868-.59473-2.52051h-.07227c-.19726.88183-.37793 1.71-.61133 2.53808l-1.22467 4.68164h-1.7285z"/><path d="m22.75391 143.62988c0-2.93457 1.90918-4.60937 4.05175-4.60937s4.05079 1.6748 4.05079 4.60937c0 2.89942-1.90821 4.57324-4.05079 4.57324s-4.05175-1.67382-4.05175-4.57324zm6.57226 0c0-2.0166-1.00781-3.38476-2.52051-3.38476-1.49414 0-2.5205 1.36816-2.5205 3.38476 0 1.999 1.02636 3.34961 2.5205 3.34961 1.5127 0 2.52051-1.35058 2.52051-3.34961z"/><path d="m36.75879 139.23633h1.22363l.126 1.26074h.05469a4.125 4.125 0 0 1 2.93457-1.47656c1.83691 0 2.665 1.18847 2.665 3.4209v5.54589h-1.47655v-5.34765c0-1.63867-.5039-2.34082-1.65625-2.34082-.90039 0-1.51269.46875-2.39453 1.35058v6.33789h-1.47656z"/><path d="m45.95605 143.62988c0-2.8623 1.92676-4.60937 3.92579-4.60937 2.23242 0 3.49316 1.60254 3.49316 4.10547a5.69253 5.69253 0 0 1 -.05469.8457h-5.90531a2.90147 2.90147 0 0 0 2.917 3.043 3.95524 3.95524 0 0 0 2.17871-.6836l.52149.97168a5.20835 5.20835 0 0 1 -2.88086.90039c-2.34079-.00003-4.19529-1.70999-4.19529-4.57327zm6.12207-.71972c0-1.76465-.792-2.71875-2.16015-2.71875a2.70343 2.70343 0 0 0 -2.52149 2.71875z"/><path d="m54.57812 139.23633h1.5127l1.2959 5.05957c.19824.82812.36035 1.62109.52246 2.43066h.07129c.19824-.80957.37891-1.62011.59473-2.43066l1.35058-5.05957h1.44043l1.36817 5.05957c.21582.82812.41406 1.62109.6123 2.43066h.07232c.19726-.80957.35937-1.60254.54-2.43066l1.27832-5.05957h1.4043l-2.34082 8.751h-1.8008l-1.25977-4.69921c-.21679-.82813-.3789-1.63868-.59472-2.52051h-.07227c-.19726.88183-.37793 1.71-.61133 2.53808l-1.22461 4.68161h-1.72851z"/><path d="m71.49707 143.62988c0-2.8623 1.92676-4.60937 3.92578-4.60937 2.23242 0 3.49317 1.60254 3.49317 4.10547a5.69388 5.69388 0 0 1 -.05469.8457h-5.90528a2.90148 2.90148 0 0 0 2.917 3.043 3.95527 3.95527 0 0 0 2.17871-.6836l.52148.97168a5.20832 5.20832 0 0 1 -2.88086.90039c-2.34082-.00003-4.19531-1.70999-4.19531-4.57327zm6.12207-.71972c0-1.76465-.792-2.71875-2.16016-2.71875a2.70342 2.70342 0 0 0 -2.52148 2.71875z"/><path d="m80.44336 143.62988c0-2.84472 1.80078-4.60937 3.79883-4.60937a3.60331 3.60331 0 0 1 2.44922 1.00879l-.07227-1.49512v-3.36718h1.49414v12.8203h-1.22461l-.126-1.02636h-.05367a3.94822 3.94822 0 0 1 -2.64648 1.24218c-2.19729 0-3.61916-1.65624-3.61916-4.57324zm6.17578 2.125v-4.57324a3.043 3.043 0 0 0 -2.125-.91894c-1.4043 0-2.52051 1.35058-2.52051 3.3496 0 2.0879.88184 3.34864 2.41309 3.34864a2.96468 2.96468 0 0 0 2.23242-1.20606z"/><path d="m90.793 136.48145a1.0291 1.0291 0 0 1 2.05273 0 1.029 1.029 0 0 1 -2.05273 0zm.27051 2.75488h1.47649v8.751h-1.47652z"/><path d="m95.74316 145.28613v-4.84277h-1.29589v-1.11621l1.36816-.09082.17969-2.44824h1.24316v2.44824h2.3584v1.207h-2.3584v4.86133c0 1.08008.3418 1.69238 1.34961 1.69238a3.16546 3.16546 0 0 0 .99023-.23437l.28809 1.11621a5.39382 5.39382 0 0 1 -1.62012.32421c-1.87209.00003-2.50293-1.18844-2.50293-2.91696z"/><path d="m101.30469 136.48145a1.0291 1.0291 0 0 1 2.05273 0 1.029 1.029 0 0 1 -2.05273 0zm.27051 2.75488h1.47656v8.751h-1.47656z"/><path d="m106.00293 139.23633h1.22461l.126 1.26074h.05371a4.1253 4.1253 0 0 1 2.93554-1.47656c1.83594 0 2.66407 1.18847 2.66407 3.4209v5.54589h-1.47657v-5.34765c0-1.63867-.5039-2.34082-1.65625-2.34082-.90039 0-1.51269.46875-2.39453 1.35058v6.33789h-1.47656z"/><path d="m115.18262 149.66211a2.52634 2.52634 0 0 1 1.27832-1.98047v-.07226a1.6171 1.6171 0 0 1 -.77442-1.42286 2.048 2.048 0 0 1 .9541-1.62011v-.07227a3.08895 3.08895 0 0 1 2.16114-5.47363 3.49427 3.49427 0 0 1 1.24219.21582h3.043v1.13476h-1.80078a2.539 2.539 0 0 1 .72071 1.80079 3.00353 3.00353 0 0 1 -3.20508 3.043 3.05482 3.05482 0 0 1 -1.31446-.30664 1.329 1.329 0 0 0 -.55859 1.04492c0 .55762.36035.95411 1.54883.95411h1.69238c2.03516 0 3.06153.62988 3.06153 2.08789 0 1.62109-1.71094 3.02539-4.42969 3.02539-2.14262-.00004-3.61918-.84672-3.61918-2.35844zm6.6084-.4502c0-.81054-.63086-1.08007-1.76465-1.08007h-1.5127a4.256 4.256 0 0 1 -1.13476-.14454 1.845 1.845 0 0 0 -.90039 1.47657c0 .93652.95507 1.53027 2.53906 1.53027 1.6748 0 2.77342-.86426 2.77342-1.78223zm-1.13477-7.07617a1.86251 1.86251 0 1 0 -3.709 0 1.86764 1.86764 0 1 0 3.709 0z"/><path d="m127.54883 146.99707.7373-.99023a3.9376 3.9376 0 0 0 2.5752 1.04394c1.15234 0 1.72851-.6123 1.72851-1.36816 0-.90039-1.04394-1.29688-1.999-1.65625-1.24219-.4502-2.61035-1.04492-2.61035-2.52149 0-1.40429 1.11621-2.48437 3.00683-2.48437a4.3671 4.3671 0 0 1 2.71875.99023l-.70214.93653a3.24872 3.24872 0 0 0 -1.998-.77442c-1.09863 0-1.60254.59473-1.60254 1.26074 0 .82813.9541 1.13379 1.94434 1.5127 1.25976.46777 2.665.99023 2.665 2.64648 0 1.42188-1.13477 2.61035-3.20508 2.61035a5.26452 5.26452 0 0 1 -3.25882-1.20605z"/><path d="m135.95508 145.28613v-4.84277h-1.29688v-1.11621l1.36914-.09082.17969-2.44824h1.24219v2.44824h2.3584v1.207h-2.3584v4.86133c0 1.08008.3418 1.69238 1.35058 1.69238a3.17193 3.17193 0 0 0 .99024-.23437l.28808 1.11621a5.39979 5.39979 0 0 1 -1.62011.32421c-1.87301.00003-2.50293-1.18844-2.50293-2.91696z"/><path d="m140.88672 143.62988c0-2.8623 1.92676-4.60937 3.9248-4.60937 2.2334 0 3.49317 1.60254 3.49317 4.10547a5.7067 5.7067 0 0 1 -.05371.8457h-5.90625a2.90259 2.90259 0 0 0 2.917 3.043 3.95527 3.95527 0 0 0 2.17871-.6836l.52246.97168a5.21093 5.21093 0 0 1 -2.88086.90039c-2.34083-.00003-4.19532-1.70999-4.19532-4.57327zm6.12207-.71972c0-1.76465-.793-2.71875-2.16113-2.71875a2.702 2.702 0 0 0 -2.52051 2.71875z"/><path d="m150.46289 139.23633h1.22363l.126 1.00879h.05469a4.52931 4.52931 0 0 1 2.791-1.22461c2.25 0 3.457 1.74707 3.457 4.46582 0 2.9707-1.7832 4.71679-3.78125 4.71679a4.05552 4.05552 0 0 1 -2.43066-1.00781l.03613 1.53028v2.95312h-1.47656zm6.12109 4.25c0-1.92676-.64746-3.22363-2.30468-3.22363a3.68394 3.68394 0 0 0 -2.33985 1.18847v4.5918a3.46307 3.46307 0 0 0 2.14258.918c1.44043-.00003 2.50197-1.31449 2.50197-3.47464z"/><path d="m159.48047 146.99707.7373-.99023a3.9376 3.9376 0 0 0 2.5752 1.04394c1.15234 0 1.72851-.6123 1.72851-1.36816 0-.90039-1.04394-1.29688-1.999-1.65625-1.24219-.4502-2.61035-1.04492-2.61035-2.52149 0-1.40429 1.11621-2.48437 3.00684-2.48437a4.36714 4.36714 0 0 1 2.71875.99023l-.70215.93653a3.24872 3.24872 0 0 0 -1.99805-.77442c-1.09863 0-1.60254.59473-1.60254 1.26074 0 .82813.9541 1.13379 1.94434 1.5127 1.25976.46777 2.665.99023 2.665 2.64648 0 1.42188-1.13477 2.61035-3.20508 2.61035a5.26452 5.26452 0 0 1 -3.25877-1.20605z"/><path d="m167.68848 140.58691a1.07414 1.07414 0 1 1 2.14257 0 1.07219 1.07219 0 1 1 -2.14257 0zm0 6.5a1.07414 1.07414 0 1 1 2.14257 0 1.07219 1.07219 0 1 1 -2.14257 0z"/></g><path d="m613 23v8h-300v6.742" fill="none" stroke="#f2f2f2"/><path d="m319.074 36.928h-12.148l6.073 6.072z" fill="#f2f2f2"/><path d="m313 63v8h100v6.742" fill="none" stroke="#f2f2f2"/><path d="m419.074 76.928h-12.148l6.073 6.072z" fill="#f2f2f2"/><path d="m470.597 128h-7.597v15" fill="none" stroke="#4d4d4d"/><path d="m467.823 123.933 15.177 4.064-15.177 4.07z" fill="#4d4d4d"/><path d="m443 143h20v15h7.597" fill="none" stroke="#666"/><path d="m467.823 162.067 15.177-4.064-15.177-4.07z" fill="#666"/><rect fill="#808080" height="20" rx="4" width="60" x="183.00011" y="43"/><rect fill="#808080" height="20" rx="4" width="60" x="183.00011" y="83"/><rect fill="#808080" height="20" rx="4" width="60" x="283.00011" y="83"/><rect fill="#808080" height="20" rx="4" width="60" x="383.00011" y="133"/><rect fill="#808080" height="20" rx="4" width="60" x="283.00011" y="133"/><rect fill="#808080" height="20" rx="4" width="60" x="182.99976" y="133"/><rect fill="#808080" height="20" rx="4" width="60" x="483.00011" y="148"/><rect fill="#808080" height="20" rx="4" width="60" x="183.00011" y="3"/><rect fill="#808080" height="20" rx="4" width="60" x="282.99907" y="3"/><rect fill="#808080" height="20" rx="4" width="60" x="383.00011" y="3"/><rect fill="#808080" height="20" rx="4" width="60" x="483.00011" y="3"/><rect fill="#ccc" height="20" rx="4" width="60" x="283.00011" y="43"/><rect fill="#ccc" height="20" rx="4" width="60" x="383.00011" y="83"/><rect fill="#ccc" height="20" rx="4" width="60" x="582.99906" y="148"/><rect fill="#ccc" height="20" rx="4" width="60" x="582.99906" y="3"/><rect fill="#333" height="20" rx="4" width="60" x="383.00011" y="43"/><rect fill="#333" height="20" rx="4" width="60" x="483.00011" y="83"/><rect fill="#333" height="20" rx="4" width="60" x="483.00011" y="118"/><rect fill="#333" height="20" rx="4" width="60" x="583.00011" y="118"/><rect fill="#333" height="20" rx="4" width="60" x="483.00011" y="43"/><rect fill="#333" height="20" rx="4" width="60" x="583.00011" y="83"/><rect fill="#333" height="20" rx="4" width="60" x="583.00011" y="43"/><path d="m193.96 14.167c0-2.70312 1.81836-4.35156 3.70606-4.35156 2.10742 0 3.29687 1.51269 3.29687 3.875a5.37267 5.37267 0 0 1 -.05078.79883h-5.5752a2.74 2.74 0 0 0 2.75391 2.873 3.73754 3.73754 0 0 0 2.05664-.6455l.49316.918a4.92121 4.92121 0 0 1 -2.71972.84961c-2.21 0-3.96094-1.61524-3.96094-4.31738zm5.7793-.68066c0-1.665-.74805-2.56641-2.04-2.56641a2.5523 2.5523 0 0 0 -2.37988 2.56641z" fill="#1a1a1a"/><path d="m202.4082 14.167c0-2.68554 1.7002-4.35156 3.58692-4.35156a3.40618 3.40618 0 0 1 2.3125.95117l-.06836-1.41015v-3.17873h1.41113v12.10254h-1.15625l-.11914-.96875h-.05078a3.72705 3.72705 0 0 1 -2.499 1.17286c-2.07422 0-3.41702-1.56348-3.41702-4.31738zm5.83106 2.00586v-4.31837a2.87526 2.87526 0 0 0 -2.00586-.86621c-1.32617 0-2.37988 1.27442-2.37988 3.16113 0 1.97168.833 3.16211 2.27832 3.16211a2.79592 2.79592 0 0 0 2.10742-1.13867z" fill="#1a1a1a"/><path d="m212.18359 7.418a.97187.97187 0 0 1 1.93848 0 .9718.9718 0 0 1 -1.93848 0zm.25489 2.60156h1.39452v8.26074h-1.39453z" fill="#1a1a1a"/><path d="m216.8584 15.73047v-4.57227h-1.22363v-1.05371l1.292-.085.16992-2.3125h1.17285v2.3125h2.22656v1.13871h-2.22656v4.58887c0 1.02051.32227 1.59863 1.27442 1.59863a2.99338 2.99338 0 0 0 .93554-.22168l.27149 1.05469a5.11774 5.11774 0 0 1 -1.53028.30567c-1.76759 0-2.36231-1.12208-2.36231-2.75391z" fill="#1a1a1a"/><path d="m225.71484 17.124h2.48145v-7.98923h-1.97168v-.90039a6.45556 6.45556 0 0 0 2.29492-.79883h1.07129v9.68845h2.24318v1.15625h-6.11914z" fill="#1a1a1a"/><path d="m293.96094 14.167c0-2.70312 1.81836-4.35156 3.70508-4.35156 2.10839 0 3.29785 1.51269 3.29785 3.875a5.37267 5.37267 0 0 1 -.05078.79883h-5.5752a2.73983 2.73983 0 0 0 2.75293 2.873 3.73828 3.73828 0 0 0 2.05762-.6455l.49218.918a4.9186 4.9186 0 0 1 -2.71972.84961c-2.20899 0-3.95996-1.61524-3.95996-4.31738zm5.77929-.68066c0-1.665-.748-2.56641-2.04-2.56641a2.551 2.551 0 0 0 -2.37989 2.56641z" fill="#1a1a1a"/><path d="m302.40918 14.167c0-2.68554 1.7002-4.35156 3.58691-4.35156a3.402 3.402 0 0 1 2.31153.95117l-.06836-1.41015v-3.17873h1.41113v12.10254h-1.15527l-.11914-.96875h-.05176a3.72475 3.72475 0 0 1 -2.49805 1.17286c-2.07417 0-3.41699-1.56348-3.41699-4.31738zm5.83008 2.00586v-4.31837a2.872 2.872 0 0 0 -2.00586-.86621c-1.3252 0-2.37891 1.27442-2.37891 3.16113 0 1.97168.833 3.16211 2.27735 3.16211a2.79592 2.79592 0 0 0 2.10742-1.13867z" fill="#1a1a1a"/><path d="m312.18359 7.418a.97187.97187 0 0 1 1.93848 0 .9718.9718 0 0 1 -1.93848 0zm.25489 2.60156h1.39452v8.26074h-1.39453z" fill="#1a1a1a"/><path d="m316.85938 15.73047v-4.57227h-1.22364v-1.05371l1.292-.085.16993-2.3125h1.17285v2.3125h2.22656v1.13871h-2.22656v4.58887c0 1.02051.32226 1.59863 1.27441 1.59863a2.99344 2.99344 0 0 0 .93555-.22168l.27148 1.05469a5.11768 5.11768 0 0 1 -1.53027.30567c-1.76759 0-2.36231-1.12208-2.36231-2.75391z" fill="#1a1a1a"/><path d="m325.05273 17.44727c3.26368-3.24707 5.09961-5.20118 5.09961-6.95215a1.92059 1.92059 0 0 0 -2.05664-2.125 3.19577 3.19577 0 0 0 -2.31152 1.30859l-.79883-.79883a4.25621 4.25621 0 0 1 3.28027-1.64843 3.01217 3.01217 0 0 1 3.24708 3.19531c0 2.04-1.85352 4.0625-4.41993 6.749.59473-.05176 1.25782-.10254 1.81836-.10254h3.14551v1.207h-7.00391z" fill="#1a1a1a"/><path d="m393.96094 14.167c0-2.70312 1.81836-4.35156 3.70508-4.35156 2.10839 0 3.29785 1.51269 3.29785 3.875a5.37267 5.37267 0 0 1 -.05078.79883h-5.5752a2.73983 2.73983 0 0 0 2.75293 2.873 3.73828 3.73828 0 0 0 2.05762-.6455l.49218.918a4.9186 4.9186 0 0 1 -2.71972.84961c-2.20899 0-3.95996-1.61524-3.95996-4.31738zm5.77929-.68066c0-1.665-.748-2.56641-2.04-2.56641a2.551 2.551 0 0 0 -2.37989 2.56641z" fill="#1a1a1a"/><path d="m402.40918 14.167c0-2.68554 1.7002-4.35156 3.58691-4.35156a3.402 3.402 0 0 1 2.31153.95117l-.06836-1.41015v-3.17873h1.41113v12.10254h-1.15527l-.11914-.96875h-.05176a3.72475 3.72475 0 0 1 -2.49805 1.17286c-2.07417 0-3.41699-1.56348-3.41699-4.31738zm5.83008 2.00586v-4.31837a2.872 2.872 0 0 0 -2.00586-.86621c-1.3252 0-2.37891 1.27442-2.37891 3.16113 0 1.97168.833 3.16211 2.27735 3.16211a2.79592 2.79592 0 0 0 2.10742-1.13867z" fill="#1a1a1a"/><path d="m412.18359 7.418a.97187.97187 0 0 1 1.93848 0 .9718.9718 0 0 1 -1.93848 0zm.25489 2.60156h1.39452v8.26074h-1.39453z" fill="#1a1a1a"/><path d="m416.85938 15.73047v-4.57227h-1.22364v-1.05371l1.292-.085.16993-2.3125h1.17285v2.3125h2.22656v1.13871h-2.22656v4.58887c0 1.02051.32226 1.59863 1.27441 1.59863a2.99344 2.99344 0 0 0 .93555-.22168l.27148 1.05469a5.11768 5.11768 0 0 1 -1.53027.30567c-1.76759 0-2.36231-1.12208-2.36231-2.75391z" fill="#1a1a1a"/><path d="m424.81543 16.9541.71387-.918a3.67737 3.67737 0 0 0 2.7705 1.292 2.02072 2.02072 0 0 0 2.24317-1.98828c0-1.292-.88379-2.15918-3.4668-2.15918v-1.07029c2.31153 0 3.07617-.88476 3.07617-2.02344a1.66934 1.66934 0 0 0 -1.87011-1.71679 3.28821 3.28821 0 0 0 -2.31153 1.10547l-.748-.88477a4.46885 4.46885 0 0 1 3.1113-1.35937c1.88672 0 3.2461 1.00293 3.2461 2.7539a2.68882 2.68882 0 0 1 -1.97168 2.584v.06738a2.79835 2.79835 0 0 1 2.3457 2.7539c0 1.9209-1.58105 3.09376-3.56933 3.09376a4.606 4.606 0 0 1 -3.56936-1.53029z" fill="#1a1a1a"/><path d="m493.96094 14.167c0-2.70312 1.81836-4.35156 3.70508-4.35156 2.10839 0 3.29785 1.51269 3.29785 3.875a5.37267 5.37267 0 0 1 -.05078.79883h-5.5752a2.73983 2.73983 0 0 0 2.75293 2.873 3.73828 3.73828 0 0 0 2.05762-.6455l.49218.918a4.9186 4.9186 0 0 1 -2.71972.84961c-2.20899 0-3.95996-1.61524-3.95996-4.31738zm5.77929-.68066c0-1.665-.748-2.56641-2.04-2.56641a2.551 2.551 0 0 0 -2.37989 2.56641z" fill="#1a1a1a"/><path d="m502.40918 14.167c0-2.68554 1.7002-4.35156 3.58691-4.35156a3.402 3.402 0 0 1 2.31153.95117l-.06836-1.41015v-3.17873h1.41113v12.10254h-1.15527l-.11914-.96875h-.05176a3.72475 3.72475 0 0 1 -2.49805 1.17286c-2.07417 0-3.41699-1.56348-3.41699-4.31738zm5.83008 2.00586v-4.31837a2.872 2.872 0 0 0 -2.00586-.86621c-1.3252 0-2.37891 1.27442-2.37891 3.16113 0 1.97168.833 3.16211 2.27735 3.16211a2.79592 2.79592 0 0 0 2.10742-1.13867z" fill="#1a1a1a"/><path d="m512.18359 7.418a.97187.97187 0 0 1 1.93848 0 .9718.9718 0 0 1 -1.93848 0zm.25489 2.60156h1.39452v8.26074h-1.39453z" fill="#1a1a1a"/><path d="m516.85938 15.73047v-4.57227h-1.22364v-1.05371l1.292-.085.16993-2.3125h1.17285v2.3125h2.22656v1.13871h-2.22656v4.58887c0 1.02051.32226 1.59863 1.27441 1.59863a2.99344 2.99344 0 0 0 .93555-.22168l.27148 1.05469a5.11768 5.11768 0 0 1 -1.53027.30567c-1.76759 0-2.36231-1.12208-2.36231-2.75391z" fill="#1a1a1a"/><path d="m529.54 15.28809h-4.87793v-.917l4.64062-6.93554h1.56348v6.73145h1.47949v1.1211h-1.47949v2.99218h-1.32617zm0-1.1211v-3.14453c0-.57812.05176-1.51367.08594-2.09082h-.06836c-.27246.52637-.57813 1.00293-.88379 1.5293l-2.53321 3.706z" fill="#1a1a1a"/><path d="m593.96094 14.167c0-2.70312 1.81836-4.35156 3.70508-4.35156 2.10839 0 3.29785 1.51269 3.29785 3.875a5.37267 5.37267 0 0 1 -.05078.79883h-5.5752a2.73983 2.73983 0 0 0 2.75293 2.873 3.73828 3.73828 0 0 0 2.05762-.6455l.49218.918a4.9186 4.9186 0 0 1 -2.71972.84961c-2.20899 0-3.95996-1.61524-3.95996-4.31738zm5.77929-.68066c0-1.665-.748-2.56641-2.04-2.56641a2.551 2.551 0 0 0 -2.37989 2.56641z" fill="#1a1a1a"/><path d="m602.40918 14.167c0-2.68554 1.7002-4.35156 3.58691-4.35156a3.402 3.402 0 0 1 2.31153.95117l-.06836-1.41015v-3.17873h1.41113v12.10254h-1.15527l-.11914-.96875h-.05176a3.72475 3.72475 0 0 1 -2.498 1.17286c-2.07422 0-3.41704-1.56348-3.41704-4.31738zm5.83008 2.00586v-4.31837a2.872 2.872 0 0 0 -2.00586-.86621c-1.3252 0-2.37891 1.27442-2.37891 3.16113 0 1.97168.833 3.16211 2.27735 3.16211a2.79592 2.79592 0 0 0 2.10742-1.13867z" fill="#1a1a1a"/><path d="m612.18359 7.418a.97187.97187 0 0 1 1.93848 0 .9718.9718 0 0 1 -1.93848 0zm.25489 2.60156h1.39452v8.26074h-1.39453z" fill="#1a1a1a"/><path d="m616.85938 15.73047v-4.57227h-1.22364v-1.05371l1.292-.085.16993-2.3125h1.17285v2.3125h2.22656v1.13871h-2.22656v4.58887c0 1.02051.32226 1.59863 1.27441 1.59863a2.99344 2.99344 0 0 0 .93555-.22168l.27148 1.05469a5.11768 5.11768 0 0 1 -1.53027.30567c-1.76759 0-2.36231-1.12208-2.36231-2.75391z" fill="#1a1a1a"/><path d="m624.79785 17.00586.67969-.918a3.69183 3.69183 0 0 0 2.7373 1.24023 2.34052 2.34052 0 0 0 2.37989-2.48144 2.17926 2.17926 0 0 0 -2.3125-2.37988 3.055 3.055 0 0 0 -1.85254.66308l-.74805-.47558.35742-5.21875h5.42188v1.207h-4.19824l-.28907 3.21191a3.33485 3.33485 0 0 1 1.666-.4414 3.12165 3.12165 0 0 1 3.36523 3.39941 3.54611 3.54611 0 0 1 -3.65429 3.67188 4.75834 4.75834 0 0 1 -3.55272-1.47846z" fill="#1a1a1a"/><path d="m193.96 54.167c0-2.70312 1.81836-4.35156 3.70606-4.35156 2.10742 0 3.29687 1.51269 3.29687 3.875a5.37267 5.37267 0 0 1 -.05078.79883h-5.5752a2.74 2.74 0 0 0 2.75391 2.873 3.73754 3.73754 0 0 0 2.05664-.6455l.49316.918a4.92121 4.92121 0 0 1 -2.71972.84961c-2.21 0-3.96094-1.61524-3.96094-4.31738zm5.7793-.68066c0-1.665-.74805-2.56641-2.04-2.56641a2.5523 2.5523 0 0 0 -2.37988 2.56641z" fill="#1a1a1a"/><path d="m202.4082 54.167c0-2.68554 1.7002-4.35156 3.58692-4.35156a3.40618 3.40618 0 0 1 2.3125.95117l-.06836-1.41015v-3.17873h1.41113v12.10254h-1.15625l-.11914-.96875h-.05078a3.72705 3.72705 0 0 1 -2.499 1.17286c-2.07422 0-3.41702-1.56348-3.41702-4.31738zm5.83106 2.00586v-4.31837a2.87526 2.87526 0 0 0 -2.00586-.86621c-1.32617 0-2.37988 1.27442-2.37988 3.16113 0 1.97168.833 3.16211 2.27832 3.16211a2.79592 2.79592 0 0 0 2.10742-1.13867z" fill="#1a1a1a"/><path d="m212.18359 47.418a.97187.97187 0 0 1 1.93848 0 .9718.9718 0 0 1 -1.93848 0zm.25489 2.60156h1.39452v8.26074h-1.39453z" fill="#1a1a1a"/><path d="m216.8584 55.73047v-4.57227h-1.22363v-1.05371l1.292-.085.16992-2.3125h1.17285v2.3125h2.22656v1.13871h-2.22656v4.58887c0 1.02051.32227 1.59863 1.27442 1.59863a2.99338 2.99338 0 0 0 .93554-.22168l.27149 1.05469a5.11774 5.11774 0 0 1 -1.53028.30567c-1.76759 0-2.36231-1.12208-2.36231-2.75391z" fill="#1a1a1a"/><path d="m225.71484 57.124h2.48145v-7.98923h-1.97168v-.90039a6.45556 6.45556 0 0 0 2.29492-.79883h1.07129v9.68845h2.24318v1.15625h-6.11914z" fill="#1a1a1a"/><path d="m293.96094 54.167c0-2.70312 1.81836-4.35156 3.70508-4.35156 2.10839 0 3.29785 1.51269 3.29785 3.875a5.37267 5.37267 0 0 1 -.05078.79883h-5.5752a2.73983 2.73983 0 0 0 2.75293 2.873 3.73828 3.73828 0 0 0 2.05762-.6455l.49218.918a4.9186 4.9186 0 0 1 -2.71972.84961c-2.20899 0-3.95996-1.61524-3.95996-4.31738zm5.77929-.68066c0-1.665-.748-2.56641-2.04-2.56641a2.551 2.551 0 0 0 -2.37989 2.56641z" fill="#1a1a1a"/><path d="m302.40918 54.167c0-2.68554 1.7002-4.35156 3.58691-4.35156a3.402 3.402 0 0 1 2.31153.95117l-.06836-1.41015v-3.17873h1.41113v12.10254h-1.15527l-.11914-.96875h-.05176a3.72475 3.72475 0 0 1 -2.49805 1.17286c-2.07417 0-3.41699-1.56348-3.41699-4.31738zm5.83008 2.00586v-4.31837a2.872 2.872 0 0 0 -2.00586-.86621c-1.3252 0-2.37891 1.27442-2.37891 3.16113 0 1.97168.833 3.16211 2.27735 3.16211a2.79592 2.79592 0 0 0 2.10742-1.13867z" fill="#1a1a1a"/><path d="m312.18359 47.418a.97187.97187 0 0 1 1.93848 0 .9718.9718 0 0 1 -1.93848 0zm.25489 2.60156h1.39452v8.26074h-1.39453z" fill="#1a1a1a"/><path d="m316.85938 55.73047v-4.57227h-1.22364v-1.05371l1.292-.085.16993-2.3125h1.17285v2.3125h2.22656v1.13871h-2.22656v4.58887c0 1.02051.32226 1.59863 1.27441 1.59863a2.99344 2.99344 0 0 0 .93555-.22168l.27148 1.05469a5.11768 5.11768 0 0 1 -1.53027.30567c-1.76759 0-2.36231-1.12208-2.36231-2.75391z" fill="#1a1a1a"/><path d="m325.05273 57.44727c3.26368-3.24707 5.09961-5.20118 5.09961-6.95215a1.92059 1.92059 0 0 0 -2.05664-2.125 3.19577 3.19577 0 0 0 -2.31152 1.30859l-.79883-.79883a4.25621 4.25621 0 0 1 3.28027-1.64843 3.01217 3.01217 0 0 1 3.24708 3.19531c0 2.04-1.85352 4.0625-4.41993 6.749.59473-.05176 1.25782-.10254 1.81836-.10254h3.14551v1.207h-7.00391z" fill="#1a1a1a"/><path d="m393.96094 54.167c0-2.70312 1.81836-4.35156 3.70508-4.35156 2.10839 0 3.29785 1.51269 3.29785 3.875a5.37267 5.37267 0 0 1 -.05078.79883h-5.5752a2.73983 2.73983 0 0 0 2.75293 2.873 3.73828 3.73828 0 0 0 2.05762-.6455l.49218.918a4.9186 4.9186 0 0 1 -2.71972.84961c-2.20899 0-3.95996-1.61524-3.95996-4.31738zm5.77929-.68066c0-1.665-.748-2.56641-2.04-2.56641a2.551 2.551 0 0 0 -2.37989 2.56641z" fill="#808080"/><path d="m402.40918 54.167c0-2.68554 1.7002-4.35156 3.58691-4.35156a3.402 3.402 0 0 1 2.31153.95117l-.06836-1.41015v-3.17873h1.41113v12.10254h-1.15527l-.11914-.96875h-.05176a3.72475 3.72475 0 0 1 -2.49805 1.17286c-2.07417 0-3.41699-1.56348-3.41699-4.31738zm5.83008 2.00586v-4.31837a2.872 2.872 0 0 0 -2.00586-.86621c-1.3252 0-2.37891 1.27442-2.37891 3.16113 0 1.97168.833 3.16211 2.27735 3.16211a2.79592 2.79592 0 0 0 2.10742-1.13867z" fill="#808080"/><path d="m412.18359 47.418a.97187.97187 0 0 1 1.93848 0 .9718.9718 0 0 1 -1.93848 0zm.25489 2.60156h1.39452v8.26074h-1.39453z" fill="#808080"/><path d="m416.85938 55.73047v-4.57227h-1.22364v-1.05371l1.292-.085.16993-2.3125h1.17285v2.3125h2.22656v1.13871h-2.22656v4.58887c0 1.02051.32226 1.59863 1.27441 1.59863a2.99344 2.99344 0 0 0 .93555-.22168l.27148 1.05469a5.11768 5.11768 0 0 1 -1.53027.30567c-1.76759 0-2.36231-1.12208-2.36231-2.75391z" fill="#808080"/><path d="m424.81543 56.9541.71387-.918a3.67737 3.67737 0 0 0 2.7705 1.292 2.02072 2.02072 0 0 0 2.24317-1.98828c0-1.292-.88379-2.15918-3.4668-2.15918v-1.07029c2.31153 0 3.07617-.88476 3.07617-2.02344a1.66934 1.66934 0 0 0 -1.87011-1.71679 3.28821 3.28821 0 0 0 -2.31153 1.10547l-.748-.88477a4.46885 4.46885 0 0 1 3.11132-1.35937c1.88672 0 3.2461 1.00293 3.2461 2.7539a2.68882 2.68882 0 0 1 -1.97168 2.584v.06738a2.79835 2.79835 0 0 1 2.3457 2.7539c0 1.9209-1.58105 3.09376-3.56933 3.09376a4.606 4.606 0 0 1 -3.56938-1.53029z" fill="#808080"/><path d="m493.96094 54.167c0-2.70312 1.81836-4.35156 3.70508-4.35156 2.10839 0 3.29785 1.51269 3.29785 3.875a5.37267 5.37267 0 0 1 -.05078.79883h-5.5752a2.73983 2.73983 0 0 0 2.75293 2.873 3.73828 3.73828 0 0 0 2.05762-.6455l.49218.918a4.9186 4.9186 0 0 1 -2.71972.84961c-2.20899 0-3.95996-1.61524-3.95996-4.31738zm5.77929-.68066c0-1.665-.748-2.56641-2.04-2.56641a2.551 2.551 0 0 0 -2.37989 2.56641z" fill="#808080"/><path d="m502.40918 54.167c0-2.68554 1.7002-4.35156 3.58691-4.35156a3.402 3.402 0 0 1 2.31153.95117l-.06836-1.41015v-3.17873h1.41113v12.10254h-1.15527l-.11914-.96875h-.05176a3.72475 3.72475 0 0 1 -2.49805 1.17286c-2.07417 0-3.41699-1.56348-3.41699-4.31738zm5.83008 2.00586v-4.31837a2.872 2.872 0 0 0 -2.00586-.86621c-1.3252 0-2.37891 1.27442-2.37891 3.16113 0 1.97168.833 3.16211 2.27735 3.16211a2.79592 2.79592 0 0 0 2.10742-1.13867z" fill="#808080"/><path d="m512.18359 47.418a.97187.97187 0 0 1 1.93848 0 .9718.9718 0 0 1 -1.93848 0zm.25489 2.60156h1.39452v8.26074h-1.39453z" fill="#808080"/><path d="m516.85938 55.73047v-4.57227h-1.22364v-1.05371l1.292-.085.16993-2.3125h1.17285v2.3125h2.22656v1.13871h-2.22656v4.58887c0 1.02051.32226 1.59863 1.27441 1.59863a2.99344 2.99344 0 0 0 .93555-.22168l.27148 1.05469a5.11768 5.11768 0 0 1 -1.53027.30567c-1.76759 0-2.36231-1.12208-2.36231-2.75391z" fill="#808080"/><path d="m529.54 55.28809h-4.87793v-.917l4.64062-6.93554h1.56348v6.73145h1.47949v1.1211h-1.47949v2.99218h-1.32617zm0-1.1211v-3.14453c0-.57812.05176-1.51367.08594-2.09082h-.06836c-.27246.52637-.57813 1.00293-.88379 1.5293l-2.53321 3.706z" fill="#808080"/><path d="m593.96094 54.167c0-2.70312 1.81836-4.35156 3.70508-4.35156 2.10839 0 3.29785 1.51269 3.29785 3.875a5.37267 5.37267 0 0 1 -.05078.79883h-5.5752a2.73983 2.73983 0 0 0 2.75293 2.873 3.73828 3.73828 0 0 0 2.05762-.6455l.49218.918a4.9186 4.9186 0 0 1 -2.71972.84961c-2.20899 0-3.95996-1.61524-3.95996-4.31738zm5.77929-.68066c0-1.665-.748-2.56641-2.04-2.56641a2.551 2.551 0 0 0 -2.37989 2.56641z" fill="#808080"/><path d="m602.40918 54.167c0-2.68554 1.7002-4.35156 3.58691-4.35156a3.402 3.402 0 0 1 2.31153.95117l-.06836-1.41015v-3.17873h1.41113v12.10254h-1.15527l-.11914-.96875h-.05176a3.72475 3.72475 0 0 1 -2.498 1.17286c-2.07422 0-3.41704-1.56348-3.41704-4.31738zm5.83008 2.00586v-4.31837a2.872 2.872 0 0 0 -2.00586-.86621c-1.3252 0-2.37891 1.27442-2.37891 3.16113 0 1.97168.833 3.16211 2.27735 3.16211a2.79592 2.79592 0 0 0 2.10742-1.13867z" fill="#808080"/><path d="m612.18359 47.418a.97187.97187 0 0 1 1.93848 0 .9718.9718 0 0 1 -1.93848 0zm.25489 2.60156h1.39452v8.26074h-1.39453z" fill="#808080"/><path d="m616.85938 55.73047v-4.57227h-1.22364v-1.05371l1.292-.085.16993-2.3125h1.17285v2.3125h2.22656v1.13871h-2.22656v4.58887c0 1.02051.32226 1.59863 1.27441 1.59863a2.99344 2.99344 0 0 0 .93555-.22168l.27148 1.05469a5.11768 5.11768 0 0 1 -1.53027.30567c-1.76759 0-2.36231-1.12208-2.36231-2.75391z" fill="#808080"/><path d="m624.79785 57.00586.67969-.918a3.69183 3.69183 0 0 0 2.7373 1.24023 2.34052 2.34052 0 0 0 2.37989-2.48144 2.17926 2.17926 0 0 0 -2.3125-2.37988 3.055 3.055 0 0 0 -1.85254.66308l-.74805-.47558.35742-5.21875h5.42188v1.207h-4.19824l-.28907 3.21191a3.33485 3.33485 0 0 1 1.666-.4414 3.12165 3.12165 0 0 1 3.36523 3.39941 3.54611 3.54611 0 0 1 -3.65429 3.67188 4.75834 4.75834 0 0 1 -3.55272-1.47846z" fill="#808080"/><path d="m193.96 94.167c0-2.70312 1.81836-4.35156 3.70606-4.35156 2.10742 0 3.29687 1.51269 3.29687 3.875a5.37267 5.37267 0 0 1 -.05078.79883h-5.5752a2.74 2.74 0 0 0 2.75391 2.873 3.73754 3.73754 0 0 0 2.05664-.6455l.49316.918a4.92121 4.92121 0 0 1 -2.71972.84961c-2.21 0-3.96094-1.61524-3.96094-4.31738zm5.7793-.68066c0-1.665-.74805-2.56641-2.04-2.56641a2.5523 2.5523 0 0 0 -2.37988 2.56641z" fill="#1a1a1a"/><path d="m202.4082 94.167c0-2.68554 1.7002-4.35156 3.58692-4.35156a3.40618 3.40618 0 0 1 2.3125.95117l-.06836-1.41015v-3.17873h1.41113v12.10254h-1.15625l-.11914-.96875h-.05078a3.72705 3.72705 0 0 1 -2.499 1.17286c-2.07422 0-3.41702-1.56348-3.41702-4.31738zm5.83106 2.00586v-4.31837a2.87526 2.87526 0 0 0 -2.00586-.86621c-1.32617 0-2.37988 1.27442-2.37988 3.16113 0 1.97168.833 3.16211 2.27832 3.16211a2.79592 2.79592 0 0 0 2.10742-1.13867z" fill="#1a1a1a"/><path d="m212.18359 87.418a.97187.97187 0 0 1 1.93848 0 .9718.9718 0 0 1 -1.93848 0zm.25489 2.60156h1.39452v8.26074h-1.39453z" fill="#1a1a1a"/><path d="m216.8584 95.73047v-4.57227h-1.22363v-1.05371l1.292-.085.16992-2.3125h1.17285v2.3125h2.22656v1.13871h-2.22656v4.58887c0 1.02051.32227 1.59863 1.27442 1.59863a2.99338 2.99338 0 0 0 .93554-.22168l.27149 1.05469a5.11774 5.11774 0 0 1 -1.53028.30567c-1.76759 0-2.36231-1.12208-2.36231-2.75391z" fill="#1a1a1a"/><path d="m225.71484 97.124h2.48145v-7.98923h-1.97168v-.90039a6.45556 6.45556 0 0 0 2.29492-.79883h1.07129v9.68845h2.24318v1.15625h-6.11914z" fill="#1a1a1a"/><path d="m293.96094 94.167c0-2.70312 1.81836-4.35156 3.70508-4.35156 2.10839 0 3.29785 1.51269 3.29785 3.875a5.37267 5.37267 0 0 1 -.05078.79883h-5.5752a2.73983 2.73983 0 0 0 2.75293 2.873 3.73828 3.73828 0 0 0 2.05762-.6455l.49218.918a4.9186 4.9186 0 0 1 -2.71972.84961c-2.20899 0-3.95996-1.61524-3.95996-4.31738zm5.77929-.68066c0-1.665-.748-2.56641-2.04-2.56641a2.551 2.551 0 0 0 -2.37989 2.56641z" fill="#1a1a1a"/><path d="m302.40918 94.167c0-2.68554 1.7002-4.35156 3.58691-4.35156a3.402 3.402 0 0 1 2.31153.95117l-.06836-1.41015v-3.17873h1.41113v12.10254h-1.15527l-.11914-.96875h-.05176a3.72475 3.72475 0 0 1 -2.49805 1.17286c-2.07417 0-3.41699-1.56348-3.41699-4.31738zm5.83008 2.00586v-4.31837a2.872 2.872 0 0 0 -2.00586-.86621c-1.3252 0-2.37891 1.27442-2.37891 3.16113 0 1.97168.833 3.16211 2.27735 3.16211a2.79592 2.79592 0 0 0 2.10742-1.13867z" fill="#1a1a1a"/><path d="m312.18359 87.418a.97187.97187 0 0 1 1.93848 0 .9718.9718 0 0 1 -1.93848 0zm.25489 2.60156h1.39452v8.26074h-1.39453z" fill="#1a1a1a"/><path d="m316.85938 95.73047v-4.57227h-1.22364v-1.05371l1.292-.085.16993-2.3125h1.17285v2.3125h2.22656v1.13871h-2.22656v4.58887c0 1.02051.32226 1.59863 1.27441 1.59863a2.99344 2.99344 0 0 0 .93555-.22168l.27148 1.05469a5.11768 5.11768 0 0 1 -1.53027.30567c-1.76759 0-2.36231-1.12208-2.36231-2.75391z" fill="#1a1a1a"/><path d="m325.05273 97.44727c3.26368-3.24707 5.09961-5.20118 5.09961-6.95215a1.92059 1.92059 0 0 0 -2.05664-2.125 3.19577 3.19577 0 0 0 -2.31152 1.30859l-.79883-.79883a4.25621 4.25621 0 0 1 3.28027-1.64843 3.01217 3.01217 0 0 1 3.24708 3.19531c0 2.04-1.85352 4.0625-4.41993 6.749.59473-.05176 1.25782-.10254 1.81836-.10254h3.14551v1.207h-7.00391z" fill="#1a1a1a"/><path d="m393.96094 94.167c0-2.70312 1.81836-4.35156 3.70508-4.35156 2.10839 0 3.29785 1.51269 3.29785 3.875a5.37267 5.37267 0 0 1 -.05078.79883h-5.5752a2.73983 2.73983 0 0 0 2.75293 2.873 3.73828 3.73828 0 0 0 2.05762-.6455l.49218.918a4.9186 4.9186 0 0 1 -2.71972.84961c-2.20899 0-3.95996-1.61524-3.95996-4.31738zm5.77929-.68066c0-1.665-.748-2.56641-2.04-2.56641a2.551 2.551 0 0 0 -2.37989 2.56641z" fill="#1a1a1a"/><path d="m402.40918 94.167c0-2.68554 1.7002-4.35156 3.58691-4.35156a3.402 3.402 0 0 1 2.31153.95117l-.06836-1.41015v-3.17873h1.41113v12.10254h-1.15527l-.11914-.96875h-.05176a3.72475 3.72475 0 0 1 -2.49805 1.17286c-2.07417 0-3.41699-1.56348-3.41699-4.31738zm5.83008 2.00586v-4.31837a2.872 2.872 0 0 0 -2.00586-.86621c-1.3252 0-2.37891 1.27442-2.37891 3.16113 0 1.97168.833 3.16211 2.27735 3.16211a2.79592 2.79592 0 0 0 2.10742-1.13867z" fill="#1a1a1a"/><path d="m412.18359 87.418a.97187.97187 0 0 1 1.93848 0 .9718.9718 0 0 1 -1.93848 0zm.25489 2.60156h1.39452v8.26074h-1.39453z" fill="#1a1a1a"/><path d="m416.85938 95.73047v-4.57227h-1.22364v-1.05371l1.292-.085.16993-2.3125h1.17285v2.3125h2.22656v1.13871h-2.22656v4.58887c0 1.02051.32226 1.59863 1.27441 1.59863a2.99344 2.99344 0 0 0 .93555-.22168l.27148 1.05469a5.11768 5.11768 0 0 1 -1.53027.30567c-1.76759 0-2.36231-1.12208-2.36231-2.75391z" fill="#1a1a1a"/><path d="m424.81543 96.9541.71387-.918a3.67737 3.67737 0 0 0 2.7705 1.292 2.02072 2.02072 0 0 0 2.24317-1.98828c0-1.292-.88379-2.15918-3.4668-2.15918v-1.07029c2.31153 0 3.07617-.88476 3.07617-2.02344a1.66934 1.66934 0 0 0 -1.87011-1.71679 3.28821 3.28821 0 0 0 -2.31153 1.10547l-.748-.88477a4.46885 4.46885 0 0 1 3.11132-1.35937c1.88672 0 3.2461 1.00293 3.2461 2.7539a2.68882 2.68882 0 0 1 -1.97168 2.584v.06738a2.79835 2.79835 0 0 1 2.3457 2.7539c0 1.9209-1.58105 3.09376-3.56933 3.09376a4.606 4.606 0 0 1 -3.56938-1.53029z" fill="#1a1a1a"/><path d="m493.96094 94.167c0-2.70312 1.81836-4.35156 3.70508-4.35156 2.10839 0 3.29785 1.51269 3.29785 3.875a5.37267 5.37267 0 0 1 -.05078.79883h-5.5752a2.73983 2.73983 0 0 0 2.75293 2.873 3.73828 3.73828 0 0 0 2.05762-.6455l.49218.918a4.9186 4.9186 0 0 1 -2.71972.84961c-2.20899 0-3.95996-1.61524-3.95996-4.31738zm5.77929-.68066c0-1.665-.748-2.56641-2.04-2.56641a2.551 2.551 0 0 0 -2.37989 2.56641z" fill="#808080"/><path d="m502.40918 94.167c0-2.68554 1.7002-4.35156 3.58691-4.35156a3.402 3.402 0 0 1 2.31153.95117l-.06836-1.41015v-3.17873h1.41113v12.10254h-1.15527l-.11914-.96875h-.05176a3.72475 3.72475 0 0 1 -2.49805 1.17286c-2.07417 0-3.41699-1.56348-3.41699-4.31738zm5.83008 2.00586v-4.31837a2.872 2.872 0 0 0 -2.00586-.86621c-1.3252 0-2.37891 1.27442-2.37891 3.16113 0 1.97168.833 3.16211 2.27735 3.16211a2.79592 2.79592 0 0 0 2.10742-1.13867z" fill="#808080"/><path d="m512.18359 87.418a.97187.97187 0 0 1 1.93848 0 .9718.9718 0 0 1 -1.93848 0zm.25489 2.60156h1.39452v8.26074h-1.39453z" fill="#808080"/><path d="m516.85938 95.73047v-4.57227h-1.22364v-1.05371l1.292-.085.16993-2.3125h1.17285v2.3125h2.22656v1.13871h-2.22656v4.58887c0 1.02051.32226 1.59863 1.27441 1.59863a2.99344 2.99344 0 0 0 .93555-.22168l.27148 1.05469a5.11768 5.11768 0 0 1 -1.53027.30567c-1.76759 0-2.36231-1.12208-2.36231-2.75391z" fill="#808080"/><path d="m529.54 95.28809h-4.87793v-.917l4.64062-6.93554h1.56348v6.73145h1.47949v1.1211h-1.47949v2.99218h-1.32617zm0-1.1211v-3.14453c0-.57812.05176-1.51367.08594-2.09082h-.06836c-.27246.52637-.57813 1.00293-.88379 1.5293l-2.53317 3.70606z" fill="#808080"/><path d="m593.96094 94.167c0-2.70312 1.81836-4.35156 3.70508-4.35156 2.10839 0 3.29785 1.51269 3.29785 3.875a5.37267 5.37267 0 0 1 -.05078.79883h-5.5752a2.73983 2.73983 0 0 0 2.75293 2.873 3.73828 3.73828 0 0 0 2.05762-.6455l.49218.918a4.9186 4.9186 0 0 1 -2.71972.84961c-2.20899 0-3.95996-1.61524-3.95996-4.31738zm5.77929-.68066c0-1.665-.748-2.56641-2.04-2.56641a2.551 2.551 0 0 0 -2.37989 2.56641z" fill="#808080"/><path d="m602.40918 94.167c0-2.68554 1.7002-4.35156 3.58691-4.35156a3.402 3.402 0 0 1 2.31153.95117l-.06836-1.41015v-3.17873h1.41113v12.10254h-1.15527l-.11914-.96875h-.05176a3.72475 3.72475 0 0 1 -2.498 1.17286c-2.07422 0-3.41704-1.56348-3.41704-4.31738zm5.83008 2.00586v-4.31837a2.872 2.872 0 0 0 -2.00586-.86621c-1.3252 0-2.37891 1.27442-2.37891 3.16113 0 1.97168.833 3.16211 2.27735 3.16211a2.79592 2.79592 0 0 0 2.10742-1.13867z" fill="#808080"/><path d="m612.18359 87.418a.97187.97187 0 0 1 1.93848 0 .9718.9718 0 0 1 -1.93848 0zm.25489 2.60156h1.39452v8.26074h-1.39453z" fill="#808080"/><path d="m616.85938 95.73047v-4.57227h-1.22364v-1.05371l1.292-.085.16993-2.3125h1.17285v2.3125h2.22656v1.13871h-2.22656v4.58887c0 1.02051.32226 1.59863 1.27441 1.59863a2.99344 2.99344 0 0 0 .93555-.22168l.27148 1.05469a5.11768 5.11768 0 0 1 -1.53027.30567c-1.76759 0-2.36231-1.12208-2.36231-2.75391z" fill="#808080"/><path d="m624.79785 97.00586.67969-.918a3.69183 3.69183 0 0 0 2.7373 1.24023 2.34052 2.34052 0 0 0 2.37989-2.48144 2.17926 2.17926 0 0 0 -2.3125-2.37988 3.055 3.055 0 0 0 -1.85254.66308l-.74805-.47558.35742-5.21875h5.42188v1.207h-4.19824l-.28907 3.21191a3.33485 3.33485 0 0 1 1.666-.4414 3.12165 3.12165 0 0 1 3.36523 3.39941 3.54611 3.54611 0 0 1 -3.65429 3.67188 4.75834 4.75834 0 0 1 -3.55272-1.47846z" fill="#808080"/><path d="m493.96094 129.167c0-2.70312 1.81836-4.35156 3.70508-4.35156 2.10839 0 3.29785 1.51269 3.29785 3.875a5.37267 5.37267 0 0 1 -.05078.79883h-5.5752a2.73983 2.73983 0 0 0 2.75293 2.873 3.73828 3.73828 0 0 0 2.05762-.6455l.49218.918a4.9186 4.9186 0 0 1 -2.71972.84961c-2.20899 0-3.95996-1.61524-3.95996-4.31738zm5.77929-.68066c0-1.665-.748-2.56641-2.04-2.56641a2.551 2.551 0 0 0 -2.37989 2.56641z" fill="#808080"/><path d="m502.40918 129.167c0-2.68554 1.7002-4.35156 3.58691-4.35156a3.402 3.402 0 0 1 2.31153.95117l-.06836-1.41015v-3.17872h1.41113v12.10254h-1.15527l-.11914-.96875h-.05176a3.72475 3.72475 0 0 1 -2.49805 1.17286c-2.07417-.00001-3.41699-1.56349-3.41699-4.31739zm5.83008 2.00586v-4.31836a2.872 2.872 0 0 0 -2.00586-.86621c-1.3252 0-2.37891 1.27442-2.37891 3.16113 0 1.97168.833 3.16211 2.27735 3.16211a2.79592 2.79592 0 0 0 2.10742-1.13868z" fill="#808080"/><path d="m512.18359 122.418a.97187.97187 0 0 1 1.93848 0 .9718.9718 0 0 1 -1.93848 0zm.25489 2.60156h1.39452v8.26074h-1.39453z" fill="#808080"/><path d="m516.85938 130.73047v-4.57227h-1.22364v-1.05371l1.292-.085.16993-2.3125h1.17285v2.3125h2.22656v1.13867h-2.22656v4.58887c0 1.02051.32226 1.59863 1.27441 1.59863a2.99344 2.99344 0 0 0 .93555-.22168l.27148 1.05469a5.11768 5.11768 0 0 1 -1.53027.30567c-1.76759.00004-2.36231-1.12204-2.36231-2.75387z" fill="#808080"/><path d="m529.54 130.28809h-4.87793v-.917l4.64062-6.93554h1.56348v6.73145h1.47949v1.1211h-1.47949v2.99218h-1.32617zm0-1.1211v-3.14453c0-.57812.05176-1.51367.08594-2.09082h-.06836c-.27246.52637-.57813 1.00293-.88379 1.5293l-2.53321 3.70605z" fill="#808080"/><path d="m593.96094 129.167c0-2.70312 1.81836-4.35156 3.70508-4.35156 2.10839 0 3.29785 1.51269 3.29785 3.875a5.37267 5.37267 0 0 1 -.05078.79883h-5.5752a2.73983 2.73983 0 0 0 2.75293 2.873 3.73828 3.73828 0 0 0 2.05762-.6455l.49218.918a4.9186 4.9186 0 0 1 -2.71972.84961c-2.20899 0-3.95996-1.61524-3.95996-4.31738zm5.77929-.68066c0-1.665-.748-2.56641-2.04-2.56641a2.551 2.551 0 0 0 -2.37989 2.56641z" fill="#808080"/><path d="m602.40918 129.167c0-2.68554 1.7002-4.35156 3.58691-4.35156a3.402 3.402 0 0 1 2.31153.95117l-.06836-1.41015v-3.17872h1.41113v12.10254h-1.15527l-.11914-.96875h-.05176a3.72475 3.72475 0 0 1 -2.498 1.17286c-2.07422-.00001-3.41704-1.56349-3.41704-4.31739zm5.83008 2.00586v-4.31836a2.872 2.872 0 0 0 -2.00586-.86621c-1.3252 0-2.37891 1.27442-2.37891 3.16113 0 1.97168.833 3.16211 2.27735 3.16211a2.79592 2.79592 0 0 0 2.10742-1.13868z" fill="#808080"/><path d="m612.18359 122.418a.97187.97187 0 0 1 1.93848 0 .9718.9718 0 0 1 -1.93848 0zm.25489 2.60156h1.39452v8.26074h-1.39453z" fill="#808080"/><path d="m616.85938 130.73047v-4.57227h-1.22364v-1.05371l1.292-.085.16993-2.3125h1.17285v2.3125h2.22656v1.13867h-2.22656v4.58887c0 1.02051.32226 1.59863 1.27441 1.59863a2.99344 2.99344 0 0 0 .93555-.22168l.27148 1.05469a5.11768 5.11768 0 0 1 -1.53027.30567c-1.76759.00004-2.36231-1.12204-2.36231-2.75387z" fill="#808080"/><path d="m624.79785 132.00586.67969-.918a3.69183 3.69183 0 0 0 2.7373 1.24023 2.34052 2.34052 0 0 0 2.37989-2.48144 2.17926 2.17926 0 0 0 -2.3125-2.37988 3.055 3.055 0 0 0 -1.85254.66308l-.74805-.47558.35742-5.21875h5.42188v1.207h-4.19824l-.28907 3.21191a3.33485 3.33485 0 0 1 1.666-.4414 3.12165 3.12165 0 0 1 3.36523 3.39941 3.54611 3.54611 0 0 1 -3.65429 3.67188 4.75834 4.75834 0 0 1 -3.55272-1.47846z" fill="#808080"/><path d="m193.96 144.167c0-2.70312 1.81836-4.35156 3.70606-4.35156 2.10742 0 3.29687 1.51269 3.29687 3.875a5.37267 5.37267 0 0 1 -.05078.79883h-5.5752a2.74 2.74 0 0 0 2.75391 2.873 3.73754 3.73754 0 0 0 2.05664-.6455l.49316.918a4.92121 4.92121 0 0 1 -2.71972.84961c-2.21 0-3.96094-1.61524-3.96094-4.31738zm5.7793-.68066c0-1.665-.74805-2.56641-2.04-2.56641a2.5523 2.5523 0 0 0 -2.37988 2.56641z" fill="#1a1a1a"/><path d="m202.4082 144.167c0-2.68554 1.7002-4.35156 3.58692-4.35156a3.40618 3.40618 0 0 1 2.3125.95117l-.06836-1.41015v-3.17872h1.41113v12.10254h-1.15625l-.11914-.96875h-.05078a3.72705 3.72705 0 0 1 -2.499 1.17286c-2.07422-.00001-3.41702-1.56349-3.41702-4.31739zm5.83106 2.00586v-4.31836a2.87526 2.87526 0 0 0 -2.00586-.86621c-1.32617 0-2.37988 1.27442-2.37988 3.16113 0 1.97168.833 3.16211 2.27832 3.16211a2.79592 2.79592 0 0 0 2.10742-1.13868z" fill="#1a1a1a"/><path d="m212.18359 137.418a.97187.97187 0 0 1 1.93848 0 .9718.9718 0 0 1 -1.93848 0zm.25489 2.60156h1.39452v8.26074h-1.39453z" fill="#1a1a1a"/><path d="m216.8584 145.73047v-4.57227h-1.22363v-1.05371l1.292-.085.16992-2.3125h1.17285v2.3125h2.22656v1.13867h-2.22656v4.58887c0 1.02051.32227 1.59863 1.27442 1.59863a2.99338 2.99338 0 0 0 .93554-.22168l.27149 1.05469a5.11774 5.11774 0 0 1 -1.53028.30567c-1.76759.00004-2.36231-1.12204-2.36231-2.75387z" fill="#1a1a1a"/><path d="m225.71484 147.124h2.48145v-7.98925h-1.97168v-.90039a6.45556 6.45556 0 0 0 2.29492-.79883h1.07129v9.68847h2.24318v1.15625h-6.11914z" fill="#1a1a1a"/><path d="m293.96094 144.167c0-2.70312 1.81836-4.35156 3.70508-4.35156 2.10839 0 3.29785 1.51269 3.29785 3.875a5.37267 5.37267 0 0 1 -.05078.79883h-5.5752a2.73983 2.73983 0 0 0 2.75293 2.873 3.73828 3.73828 0 0 0 2.05762-.6455l.49218.918a4.9186 4.9186 0 0 1 -2.71972.84961c-2.20899 0-3.95996-1.61524-3.95996-4.31738zm5.77929-.68066c0-1.665-.748-2.56641-2.04-2.56641a2.551 2.551 0 0 0 -2.37989 2.56641z" fill="#1a1a1a"/><path d="m302.40918 144.167c0-2.68554 1.7002-4.35156 3.58691-4.35156a3.402 3.402 0 0 1 2.31153.95117l-.06836-1.41015v-3.17872h1.41113v12.10254h-1.15527l-.11914-.96875h-.05176a3.72475 3.72475 0 0 1 -2.49805 1.17286c-2.07417-.00001-3.41699-1.56349-3.41699-4.31739zm5.83008 2.00586v-4.31836a2.872 2.872 0 0 0 -2.00586-.86621c-1.3252 0-2.37891 1.27442-2.37891 3.16113 0 1.97168.833 3.16211 2.27735 3.16211a2.79592 2.79592 0 0 0 2.10742-1.13868z" fill="#1a1a1a"/><path d="m312.18359 137.418a.97187.97187 0 0 1 1.93848 0 .9718.9718 0 0 1 -1.93848 0zm.25489 2.60156h1.39452v8.26074h-1.39453z" fill="#1a1a1a"/><path d="m316.85938 145.73047v-4.57227h-1.22364v-1.05371l1.292-.085.16993-2.3125h1.17285v2.3125h2.22656v1.13867h-2.22656v4.58887c0 1.02051.32226 1.59863 1.27441 1.59863a2.99344 2.99344 0 0 0 .93555-.22168l.27148 1.05469a5.11768 5.11768 0 0 1 -1.53027.30567c-1.76759.00004-2.36231-1.12204-2.36231-2.75387z" fill="#1a1a1a"/><path d="m325.05273 147.44727c3.26368-3.24707 5.09961-5.20118 5.09961-6.95215a1.92059 1.92059 0 0 0 -2.05664-2.125 3.19577 3.19577 0 0 0 -2.31152 1.30859l-.79883-.79883a4.25621 4.25621 0 0 1 3.28027-1.64843 3.01217 3.01217 0 0 1 3.24708 3.19531c0 2.04-1.85352 4.0625-4.41993 6.749.59473-.05176 1.25782-.10254 1.81836-.10254h3.14551v1.207h-7.00391z" fill="#1a1a1a"/><path d="m393.96094 144.167c0-2.70312 1.81836-4.35156 3.70508-4.35156 2.10839 0 3.29785 1.51269 3.29785 3.875a5.37267 5.37267 0 0 1 -.05078.79883h-5.5752a2.73983 2.73983 0 0 0 2.75293 2.873 3.73828 3.73828 0 0 0 2.05762-.6455l.49218.918a4.9186 4.9186 0 0 1 -2.71972.84961c-2.20899 0-3.95996-1.61524-3.95996-4.31738zm5.77929-.68066c0-1.665-.748-2.56641-2.04-2.56641a2.551 2.551 0 0 0 -2.37989 2.56641z" fill="#1a1a1a"/><path d="m402.40918 144.167c0-2.68554 1.7002-4.35156 3.58691-4.35156a3.402 3.402 0 0 1 2.31153.95117l-.06836-1.41015v-3.17872h1.41113v12.10254h-1.15527l-.11914-.96875h-.05176a3.72475 3.72475 0 0 1 -2.49805 1.17286c-2.07417-.00001-3.41699-1.56349-3.41699-4.31739zm5.83008 2.00586v-4.31836a2.872 2.872 0 0 0 -2.00586-.86621c-1.3252 0-2.37891 1.27442-2.37891 3.16113 0 1.97168.833 3.16211 2.27735 3.16211a2.79592 2.79592 0 0 0 2.10742-1.13868z" fill="#1a1a1a"/><path d="m412.18359 137.418a.97187.97187 0 0 1 1.93848 0 .9718.9718 0 0 1 -1.93848 0zm.25489 2.60156h1.39452v8.26074h-1.39453z" fill="#1a1a1a"/><path d="m416.85938 145.73047v-4.57227h-1.22364v-1.05371l1.292-.085.16993-2.3125h1.17285v2.3125h2.22656v1.13867h-2.22656v4.58887c0 1.02051.32226 1.59863 1.27441 1.59863a2.99344 2.99344 0 0 0 .93555-.22168l.27148 1.05469a5.11768 5.11768 0 0 1 -1.53027.30567c-1.76759.00004-2.36231-1.12204-2.36231-2.75387z" fill="#1a1a1a"/><path d="m424.81543 146.9541.71387-.918a3.67737 3.67737 0 0 0 2.7705 1.292 2.02072 2.02072 0 0 0 2.24317-1.98828c0-1.292-.88379-2.15918-3.4668-2.15918v-1.07031c2.31153 0 3.07617-.88476 3.07617-2.02344a1.66934 1.66934 0 0 0 -1.87011-1.71679 3.28821 3.28821 0 0 0 -2.31153 1.10547l-.748-.88477a4.46885 4.46885 0 0 1 3.11132-1.35937c1.88672 0 3.2461 1.00293 3.2461 2.7539a2.68882 2.68882 0 0 1 -1.97168 2.584v.06738a2.79835 2.79835 0 0 1 2.3457 2.7539c0 1.9209-1.58105 3.09376-3.56933 3.09376a4.606 4.606 0 0 1 -3.56938-1.53027z" fill="#1a1a1a"/><path d="m493.96094 159.167c0-2.70312 1.81836-4.35156 3.70508-4.35156 2.10839 0 3.29785 1.51269 3.29785 3.875a5.37267 5.37267 0 0 1 -.05078.79883h-5.5752a2.73983 2.73983 0 0 0 2.75293 2.873 3.73828 3.73828 0 0 0 2.05762-.6455l.49218.918a4.9186 4.9186 0 0 1 -2.71972.84961c-2.20899 0-3.95996-1.61524-3.95996-4.31738zm5.77929-.68066c0-1.665-.748-2.56641-2.04-2.56641a2.551 2.551 0 0 0 -2.37989 2.56641z" fill="#1a1a1a"/><path d="m502.40918 159.167c0-2.68554 1.7002-4.35156 3.58691-4.35156a3.402 3.402 0 0 1 2.31153.95117l-.06836-1.41015v-3.17872h1.41113v12.10254h-1.15527l-.11914-.96875h-.05176a3.72475 3.72475 0 0 1 -2.49805 1.17286c-2.07417-.00001-3.41699-1.56349-3.41699-4.31739zm5.83008 2.00586v-4.31836a2.872 2.872 0 0 0 -2.00586-.86621c-1.3252 0-2.37891 1.27442-2.37891 3.16113 0 1.97168.833 3.16211 2.27735 3.16211a2.79592 2.79592 0 0 0 2.10742-1.13868z" fill="#1a1a1a"/><path d="m512.18359 152.418a.97187.97187 0 0 1 1.93848 0 .9718.9718 0 0 1 -1.93848 0zm.25489 2.60156h1.39452v8.26074h-1.39453z" fill="#1a1a1a"/><path d="m516.85938 160.73047v-4.57227h-1.22364v-1.05371l1.292-.085.16993-2.3125h1.17285v2.3125h2.22656v1.13867h-2.22656v4.58887c0 1.02051.32226 1.59863 1.27441 1.59863a2.99344 2.99344 0 0 0 .93555-.22168l.27148 1.05469a5.11768 5.11768 0 0 1 -1.53027.30567c-1.76759.00004-2.36231-1.12204-2.36231-2.75387z" fill="#1a1a1a"/><path d="m525.18848 158.26562c0-4.35156 1.97265-6.03417 4.13086-6.03417a3.42181 3.42181 0 0 1 2.61816 1.15625l-.78223.86621a2.362 2.362 0 0 0 -1.78515-.84961c-1.5127 0-2.78711 1.17285-2.85547 4.60644a3.46354 3.46354 0 0 1 2.5332-1.35937c1.86914 0 3.09375 1.12109 3.09375 3.34863a3.28021 3.28021 0 0 1 -3.21289 3.48438c-2.125 0-3.74023-1.73438-3.74023-5.21876zm5.62695 1.73438c0-1.41113-.66309-2.29492-2.00586-2.29492a2.88765 2.88765 0 0 0 -2.26074 1.42773c.16992 2.10742 1.00293 3.2461 2.37988 3.2461 1.07029 0 1.88672-.95118 1.88672-2.37891z" fill="#1a1a1a"/><path d="m593.96094 159.167c0-2.70312 1.81836-4.35156 3.70508-4.35156 2.10839 0 3.29785 1.51269 3.29785 3.875a5.37267 5.37267 0 0 1 -.05078.79883h-5.5752a2.73983 2.73983 0 0 0 2.75293 2.873 3.73828 3.73828 0 0 0 2.05762-.6455l.49218.918a4.9186 4.9186 0 0 1 -2.71972.84961c-2.20899 0-3.95996-1.61524-3.95996-4.31738zm5.77929-.68066c0-1.665-.748-2.56641-2.04-2.56641a2.551 2.551 0 0 0 -2.37989 2.56641z" fill="#1a1a1a"/><path d="m602.40918 159.167c0-2.68554 1.7002-4.35156 3.58691-4.35156a3.402 3.402 0 0 1 2.31153.95117l-.06836-1.41015v-3.17872h1.41113v12.10254h-1.15527l-.11914-.96875h-.05176a3.72475 3.72475 0 0 1 -2.498 1.17286c-2.07422-.00001-3.41704-1.56349-3.41704-4.31739zm5.83008 2.00586v-4.31836a2.872 2.872 0 0 0 -2.00586-.86621c-1.3252 0-2.37891 1.27442-2.37891 3.16113 0 1.97168.833 3.16211 2.27735 3.16211a2.79592 2.79592 0 0 0 2.10742-1.13868z" fill="#1a1a1a"/><path d="m612.18359 152.418a.97187.97187 0 0 1 1.93848 0 .9718.9718 0 0 1 -1.93848 0zm.25489 2.60156h1.39452v8.26074h-1.39453z" fill="#1a1a1a"/><path d="m616.85938 160.73047v-4.57227h-1.22364v-1.05371l1.292-.085.16993-2.3125h1.17285v2.3125h2.22656v1.13867h-2.22656v4.58887c0 1.02051.32226 1.59863 1.27441 1.59863a2.99344 2.99344 0 0 0 .93555-.22168l.27148 1.05469a5.11768 5.11768 0 0 1 -1.53027.30567c-1.76759.00004-2.36231-1.12204-2.36231-2.75387z" fill="#1a1a1a"/><path d="m630.52637 153.64258h-5.40528v-1.207h6.98633v.86718c-2.56738 3.28028-3.09375 5.74512-3.28125 9.97754h-1.44433a15.9576 15.9576 0 0 1 3.14453-9.63772z" fill="#1a1a1a"/></svg>