<svg xmlns="http://www.w3.org/2000/svg" xmlns:xlink="http://www.w3.org/1999/xlink" viewBox="0 0 290 104"><defs><radialGradient id="a" cx="152.1022" cy="22.85246" r="11.62417" gradientTransform="translate(8.03575 54.98704) scale(0.97297)" gradientUnits="userSpaceOnUse"><stop offset="0" stop-color="#737373"/><stop offset="0.37995" stop-color="#505050"/><stop offset="0.7527" stop-color="#323232"/><stop offset="0.86603" stop-color="#212121"/><stop offset="1" stop-color="#121212"/></radialGradient></defs><title>front-r</title><rect width="290" height="104" fill="#ccc"/><path d="M68.14014,39.89648a3.18088,3.18088,0,0,1-2.28907-.95019,2.68772,2.68772,0,0,1-.769-1.97949l.70361-18.01563a2.9501,2.9501,0,0,1,3.05811-2.72656H80.22217a2.95119,2.95119,0,0,1,3.05859,2.72656l.70362,18.01563a2.68891,2.68891,0,0,1-.76954,1.98047,3.18,3.18,0,0,1-2.28906.94921Z"/><path d="M80.22224,16.6a2.58751,2.58751,0,0,1,2.68393,2.36535l.70363,18.01642A2.567,2.567,0,0,1,80.92586,39.522H68.14024a2.567,2.567,0,0,1-2.68393-2.54022l.70362-18.01642A2.58752,2.58752,0,0,1,68.84387,16.6H80.22224m0-.75H68.84387A3.32433,3.32433,0,0,0,65.4105,18.936l-.70362,18.01641a3.06153,3.06153,0,0,0,.87436,2.2547,3.55683,3.55683,0,0,0,2.559,1.06482H80.92586a3.55679,3.55679,0,0,0,2.559-1.06482,3.06155,3.06155,0,0,0,.87438-2.2547L83.6556,18.936A3.3243,3.3243,0,0,0,80.22224,15.85Z"/><path d="M121.82178,39.89648a3.18,3.18,0,0,1-2.28907-.94921,2.68894,2.68894,0,0,1-.76953-1.98047l.70362-18.01563a2.95119,2.95119,0,0,1,3.05859-2.72656h11.37842a2.95119,2.95119,0,0,1,3.05859,2.72656L137.666,36.9668a2.68669,2.68669,0,0,1-.76954,1.97949,3.17773,3.17773,0,0,1-2.28906.95019Z"/><path d="M133.90375,16.6a2.58752,2.58752,0,0,1,2.68394,2.36535l.70363,18.01642a2.567,2.567,0,0,1-2.68394,2.54022H121.82176a2.567,2.567,0,0,1-2.68394-2.54022l.70363-18.01642A2.58752,2.58752,0,0,1,122.52539,16.6h11.37836m0-.75H122.52539A3.32431,3.32431,0,0,0,119.092,18.936l-.70363,18.01641a3.06159,3.06159,0,0,0,.87438,2.2547,3.5568,3.5568,0,0,0,2.559,1.06482h12.78562a3.55684,3.55684,0,0,0,2.559-1.06482,3.06167,3.06167,0,0,0,.87439-2.25464L137.33711,18.936A3.3243,3.3243,0,0,0,133.90375,15.85Z"/><path d="M153.00439,39.89648a3.18,3.18,0,0,1-2.28906-.94921,2.6889,2.6889,0,0,1-.76953-1.98047l.70361-18.01563a2.95119,2.95119,0,0,1,3.0586-2.72656h11.37842a2.95119,2.95119,0,0,1,3.05859,2.72656l.70361,18.01563a2.6889,2.6889,0,0,1-.76953,1.98047,3.18,3.18,0,0,1-2.28906.94921Z"/><path d="M165.0864,16.6a2.58748,2.58748,0,0,1,2.68392,2.36535l.70365,18.01642A2.567,2.567,0,0,1,165.79,39.522H153.00441a2.567,2.567,0,0,1-2.68394-2.54022l.70362-18.01642A2.58753,2.58753,0,0,1,153.708,16.6H165.0864m0-.75H153.708a3.32431,3.32431,0,0,0-3.43337,3.08606L149.571,36.95245a3.06154,3.06154,0,0,0,.87437,2.2547,3.55683,3.55683,0,0,0,2.559,1.06482H165.79a3.5568,3.5568,0,0,0,2.559-1.06482,3.06159,3.06159,0,0,0,.87439-2.25464L168.51976,18.936A3.32429,3.32429,0,0,0,165.0864,15.85Z"/><path d="M180.23975,39.89648a3.17972,3.17972,0,0,1-2.28858-.94921,2.6889,2.6889,0,0,1-.76953-1.98047l.70361-18.01563a2.9501,2.9501,0,0,1,3.05811-2.72656h11.37842a2.95119,2.95119,0,0,1,3.05859,2.72656L196.084,36.9668a2.68886,2.68886,0,0,1-.76953,1.98047,3.18,3.18,0,0,1-2.28906.94921Z"/><path d="M192.32187,16.6a2.58752,2.58752,0,0,1,2.68394,2.36535l.70363,18.01642A2.567,2.567,0,0,1,193.0255,39.522H180.23988a2.567,2.567,0,0,1-2.68394-2.54022l.70363-18.01642A2.58752,2.58752,0,0,1,180.94351,16.6h11.37836m0-.75H180.94351a3.3243,3.3243,0,0,0-3.43336,3.08606l-.70365,18.01641a3.06155,3.06155,0,0,0,.87438,2.2547,3.55679,3.55679,0,0,0,2.559,1.06482H193.0255a3.55684,3.55684,0,0,0,2.559-1.06482,3.06167,3.06167,0,0,0,.87439-2.25464L195.75523,18.936A3.3243,3.3243,0,0,0,192.32187,15.85Z"/><path d="M42.83057,98.1748V56.26855h.78955v-13.418l-.83252-7.61133h.09912a2.32411,2.32411,0,0,1-.05615-.50879V31.89258a2.446,2.446,0,0,1,2.44336-2.44336H70.22168a2.44387,2.44387,0,0,1,2.06787,1.14355,2.44409,2.44409,0,0,1,2.06836-1.14355H99.30566a2.44408,2.44408,0,0,1,2.06836,1.14355,2.4439,2.4439,0,0,1,2.06787-1.14355h24.94776a2.44409,2.44409,0,0,1,2.06836,1.14355,2.44408,2.44408,0,0,1,2.06836-1.14355h24.94726a2.44408,2.44408,0,0,1,2.06836,1.14355,2.44409,2.44409,0,0,1,2.06836-1.14355h24.94776a2.4439,2.4439,0,0,1,2.06787,1.14355,2.44408,2.44408,0,0,1,2.06836-1.14355h24.94775a2.44409,2.44409,0,0,1,2.06836,1.14355,2.44387,2.44387,0,0,1,2.06787-1.14355h24.94775a2.446,2.446,0,0,1,2.44336,2.44336v2.83789a2.32411,2.32411,0,0,1-.05615.50879h.09912l-.835,7.65234.00244,14.02637a3.05027,3.05027,0,0,1,.78955,2.09375V95.43164a2.52544,2.52544,0,0,1-2.21679,2.74316Z"/><path d="M244.72626,29.82452a2.06821,2.06821,0,0,1,2.06819,2.06818v2.83777a2.0485,2.0485,0,0,1-.2054.884h.2054l-.78945,7.23578V57.07568a2.61412,2.61412,0,0,1,.78945,1.93634V95.4317a2.162,2.162,0,0,1-1.842,2.36829H43.20555V56.64374H43.995V42.85022l-.78945-7.23578h.2054a2.0485,2.0485,0,0,1-.2054-.884V31.8927a2.06821,2.06821,0,0,1,2.0682-2.06818H70.2215a2.06818,2.06818,0,0,1,2.06817,2.06818,2.0682,2.0682,0,0,1,2.06819-2.06818H99.30561a2.06819,2.06819,0,0,1,2.06822,2.06818,2.06817,2.06817,0,0,1,2.06819-2.06818h24.94775A2.0682,2.0682,0,0,1,130.458,31.8927a2.06819,2.06819,0,0,1,2.06816-2.06818h24.94778a2.06819,2.06819,0,0,1,2.06816,2.06818,2.0682,2.0682,0,0,1,2.06818-2.06818H186.558a2.06816,2.06816,0,0,1,2.06819,2.06818,2.06819,2.06819,0,0,1,2.06822-2.06818h24.94776a2.0682,2.0682,0,0,1,2.06819,2.06818,2.06818,2.06818,0,0,1,2.06817-2.06818h24.94776m-27.22132,5.78992h.20539l-.013.11957h.02611l-.01306-.11957h.2054a2.04807,2.04807,0,0,1-.2054-.884,2.04806,2.04806,0,0,1-.20539.884m-29.08416,0h.20538l-.013.11957h.02611l-.01306-.11957h.2054a2.04807,2.04807,0,0,1-.2054-.884,2.0482,2.0482,0,0,1-.20538.884m-29.08411,0h.20538l-.013.11957h.0261l-.01306-.11957h.2054a2.04821,2.04821,0,0,1-.2054-.884,2.04834,2.04834,0,0,1-.20538.884m-29.08412,0h.2054l-.01306.11957h.0261l-.013-.11957h.20538a2.04834,2.04834,0,0,1-.20538-.884,2.04821,2.04821,0,0,1-.2054.884m-29.08411,0h.20539l-.013.11957h.02611l-.01306-.11957h.20539a2.04835,2.04835,0,0,1-.20539-.884,2.04806,2.04806,0,0,1-.20539.884m-29.08417,0h.2054l-.01306.11957h.02611l-.013-.11957h.20539a2.04821,2.04821,0,0,1-.20539-.884,2.04807,2.04807,0,0,1-.2054.884m172.642-6.53992H219.7785a2.81091,2.81091,0,0,0-2.06817.90577,2.811,2.811,0,0,0-2.06819-.90577H190.69438a2.811,2.811,0,0,0-2.06821.90577,2.811,2.811,0,0,0-2.0682-.90577H161.61023a2.81093,2.81093,0,0,0-2.06818.90577,2.81087,2.81087,0,0,0-2.06816-.90577H132.52611a2.81087,2.81087,0,0,0-2.06816.90577,2.81093,2.81093,0,0,0-2.06818-.90577H103.442a2.811,2.811,0,0,0-2.06819.90577,2.811,2.811,0,0,0-2.06822-.90577H74.35786a2.811,2.811,0,0,0-2.06819.90577,2.81091,2.81091,0,0,0-2.06817-.90577H45.27375a2.82139,2.82139,0,0,0-2.8182,2.81818v2.83777q0,.06711.00331.134h-.08958l.09069.83136.785,7.19525V55.89374h-.78945V98.55H244.95244a2.89526,2.89526,0,0,0,2.592-3.11829V59.012a3.47211,3.47211,0,0,0-.78945-2.23846V42.89105l.785-7.19525.0907-.83136h-.08958q.00328-.06683.00331-.134V31.8927a2.82139,2.82139,0,0,0-2.81819-2.81818Z"/><path d="M80.92586,39.522H68.14024a2.567,2.567,0,0,1-2.68393-2.54021l.70362-18.01642A2.58751,2.58751,0,0,1,68.84387,16.6H80.22223a2.5875,2.5875,0,0,1,2.68394,2.36534l.70363,18.01642A2.567,2.567,0,0,1,80.92586,39.522Z" fill="#4d4d4d"/><path d="M69.50349,16.516H79.56262a2.33347,2.33347,0,0,1,2.37276,2.20047L82.55743,35.477a2.32545,2.32545,0,0,1-2.37276,2.36314H68.88144A2.32545,2.32545,0,0,1,66.50868,35.477l.62205-16.76057A2.33347,2.33347,0,0,1,69.50349,16.516Z" fill="#333"/><path d="M70.1631,16.43191H78.903a2.0852,2.0852,0,0,1,2.06158,2.0356l.54047,15.50473a2.08931,2.08931,0,0,1-2.06158,2.18608H69.62263a2.08931,2.08931,0,0,1-2.06157-2.18608l.54047-15.50473A2.0852,2.0852,0,0,1,70.1631,16.43191Z" fill="#1a1a1a"/><path d="M78.70228,34.47649H70.36383a1.86082,1.86082,0,0,1-1.7504-2.009l.45889-14.24889a1.84489,1.84489,0,0,1,1.7504-1.87072h7.42067a1.84487,1.84487,0,0,1,1.75039,1.87072l.45889,14.24889A1.8608,1.8608,0,0,1,78.70228,34.47649Z"/><line x1="246.00501" y1="34.46249" x2="246.00501" y2="61.56904" fill="none" stroke="#000" stroke-miterlimit="10" stroke-width="1.84545"/><line x1="43.99499" y1="32.0283" x2="43.99499" y2="60.09141" fill="none" stroke="#000" stroke-miterlimit="10" stroke-width="1.84545"/><rect x="72.28969" y="35.73401" width="29.08413" height="24.46218" fill="#4d4d4d"/><rect x="43.99499" y="35.73401" width="28.29469" height="24.46218" fill="#4d4d4d"/><line x1="72.28969" y1="32.0283" x2="72.28969" y2="56.64373" fill="none" stroke="#000" stroke-miterlimit="10" stroke-width="1.84545"/><path d="M134.60738,39.522H121.82176a2.567,2.567,0,0,1-2.68394-2.54021l.70363-18.01642A2.5875,2.5875,0,0,1,122.52539,16.6h11.37836a2.58751,2.58751,0,0,1,2.68394,2.36534l.70363,18.01642A2.567,2.567,0,0,1,134.60738,39.522Z" fill="#4d4d4d"/><path d="M123.185,16.516h10.05913a2.33347,2.33347,0,0,1,2.37276,2.20047l.62205,16.76057a2.32544,2.32544,0,0,1-2.37276,2.36314H122.563A2.32543,2.32543,0,0,1,120.1902,35.477l.62205-16.76057A2.33346,2.33346,0,0,1,123.185,16.516Z" fill="#333"/><path d="M123.84462,16.43191h8.7399a2.0852,2.0852,0,0,1,2.06157,2.0356l.54047,15.50473a2.08931,2.08931,0,0,1-2.06157,2.18608h-9.82084a2.08931,2.08931,0,0,1-2.06158-2.18608l.54047-15.50473A2.0852,2.0852,0,0,1,123.84462,16.43191Z" fill="#1a1a1a"/><path d="M132.38379,34.47649h-8.33845a1.86081,1.86081,0,0,1-1.75039-2.009l.45889-14.24889a1.84487,1.84487,0,0,1,1.75039-1.87072h7.42067a1.84488,1.84488,0,0,1,1.7504,1.87072l.45889,14.24889A1.86082,1.86082,0,0,1,132.38379,34.47649Z"/><path d="M165.79,39.522H153.0044a2.567,2.567,0,0,1-2.68394-2.54021l.70363-18.01642A2.58751,2.58751,0,0,1,153.708,16.6h11.37836a2.5875,2.5875,0,0,1,2.68394,2.36534l.70363,18.01642A2.567,2.567,0,0,1,165.79,39.522Z" fill="#4d4d4d"/><path d="M154.36765,16.516h10.05913a2.33347,2.33347,0,0,1,2.37276,2.20047l.622,16.76057a2.32543,2.32543,0,0,1-2.37275,2.36314H153.7456a2.32545,2.32545,0,0,1-2.37276-2.36314l.62205-16.76057A2.33347,2.33347,0,0,1,154.36765,16.516Z" fill="#333"/><path d="M155.02726,16.43191h8.7399a2.0852,2.0852,0,0,1,2.06158,2.0356l.54047,15.50473a2.08931,2.08931,0,0,1-2.06158,2.18608h-9.82084a2.08931,2.08931,0,0,1-2.06157-2.18608l.54047-15.50473A2.0852,2.0852,0,0,1,155.02726,16.43191Z" fill="#1a1a1a"/><path d="M163.56644,34.47649H155.228a1.86082,1.86082,0,0,1-1.7504-2.009l.45889-14.24889a1.84488,1.84488,0,0,1,1.7504-1.87072h7.42067a1.84487,1.84487,0,0,1,1.75039,1.87072l.45889,14.24889A1.8608,1.8608,0,0,1,163.56644,34.47649Z"/><path d="M193.0255,39.522H180.23988a2.567,2.567,0,0,1-2.68394-2.54021l.70363-18.01642A2.5875,2.5875,0,0,1,180.94351,16.6h11.37836a2.58751,2.58751,0,0,1,2.68394,2.36534l.70363,18.01642A2.567,2.567,0,0,1,193.0255,39.522Z" fill="#4d4d4d"/><path d="M181.60312,16.516h10.05913a2.33347,2.33347,0,0,1,2.37276,2.20047l.62205,16.76057a2.32545,2.32545,0,0,1-2.37276,2.36314H180.98107a2.32543,2.32543,0,0,1-2.37275-2.36314l.622-16.76057A2.33347,2.33347,0,0,1,181.60312,16.516Z" fill="#333"/><path d="M182.26274,16.43191h8.7399a2.0852,2.0852,0,0,1,2.06157,2.0356l.54047,15.50473a2.08931,2.08931,0,0,1-2.06157,2.18608h-9.82084a2.08931,2.08931,0,0,1-2.06158-2.18608l.54047-15.50473A2.0852,2.0852,0,0,1,182.26274,16.43191Z" fill="#1a1a1a"/><path d="M190.80191,34.47649h-8.33845a1.8608,1.8608,0,0,1-1.75039-2.009l.45889-14.24889a1.84487,1.84487,0,0,1,1.75039-1.87072H190.343a1.84488,1.84488,0,0,1,1.7504,1.87072l.45889,14.24889A1.86082,1.86082,0,0,1,190.80191,34.47649Z"/><rect x="101.37381" y="35.73401" width="29.08413" height="24.46218" fill="#4d4d4d"/><rect x="130.45794" y="35.73401" width="29.08413" height="24.46218" fill="#4d4d4d"/><rect x="159.54206" y="35.73401" width="29.08413" height="24.46218" fill="#4d4d4d"/><rect x="188.62619" y="35.73401" width="29.08413" height="24.46218" fill="#4d4d4d"/><rect x="217.71031" y="35.73401" width="28.29469" height="24.46218" fill="#4d4d4d"/><path d="M43.34375,97.66113V56.78223H244.95264a2.02271,2.02271,0,0,1,1.70361,2.22949V95.43164a2.02271,2.02271,0,0,1-1.70361,2.22949Z" fill="gray"/><path d="M244.95242,56.92053c.86306,0,1.56519.93823,1.56519,2.09149V95.4317c0,1.15326-.70213,2.09149-1.56519,2.09149h-201.47V56.92053h201.47m0-.27679H43.20555V97.8H244.95242a2.162,2.162,0,0,0,1.842-2.36829V59.012a2.162,2.162,0,0,0-1.842-2.36828Z" fill="gray"/><path d="M208.877,83.0186c0,8.45872,4.31208,12.46056,12.14063,12.46056h21.0146c1.82786,0,2.27371-1.11721,2.27371-2.459V61.343c0-1.81839-.69076-2.52827-2.66446-2.52827h-5.62769C221.02654,58.81468,208.877,69.58771,208.877,83.0186Z" fill="#999"/><path d="M236.31211,59.88143c-14.29322,0-25.88016,10.3439-25.88016,23.23978,0,8.12177,4.1124,11.9642,11.57843,11.9642H241.668c1.74322,0,2.16842-1.07271,2.16842-2.361V62.309c0-1.746-.65877-2.42756-2.54108-2.42756Z" fill="#a6a6a6"/><path d="M236.61044,60.94818c-13.59919,0-24.62352,9.91477-24.62352,22.27564,0,7.78482,3.91271,11.46784,11.01623,11.46784h18.30064c1.65858,0,2.06313-1.0282,2.06313-2.26306V63.275c0-1.67352-.62678-2.32685-2.41769-2.32685Z" fill="#b3b3b3"/><path d="M236.90878,62.01494c-12.90518,0-23.36689,9.48563-23.36689,21.31149,0,7.44787,3.713,10.97149,10.454,10.97149h16.94366c1.57394,0,1.95784-.98371,1.95784-2.16512V64.24107c0-1.60108-.59479-2.22613-2.2943-2.22613Z" fill="#bfbfbf"/><path d="M215.09686,83.429c0,7.11093,3.51335,10.47514,9.89182,10.47514h15.58669c1.4893,0,1.85256-.9392,1.85256-2.06716V65.20712c0-1.52865-.56281-2.12543-2.17093-2.12543h-3.04989C224.996,63.08169,215.09686,72.13818,215.09686,83.429Z" fill="#ccc"/><path d="M102.59726,83.0186c0,8.45872-4.31208,12.46056-12.14063,12.46056H43.20556V58.81468H75.46047C90.4477,58.81468,102.59726,69.58771,102.59726,83.0186Z" fill="#999"/><path d="M101.04229,83.12121c0,8.12177-4.11239,11.9642-11.57843,11.9642H43.20556v-35.204H75.16213C89.45535,59.88143,101.04229,70.22533,101.04229,83.12121Z" fill="#a6a6a6"/><path d="M99.48732,83.22382c0,7.78482-3.91271,11.46784-11.01623,11.46784H43.20556V60.94818H74.8638C88.463,60.94818,99.48732,70.863,99.48732,83.22382Z" fill="#b3b3b3"/><path d="M97.93235,83.32643c0,7.44787-3.713,10.97149-10.454,10.97149H43.20556v-32.283h31.3599C87.47064,62.01494,97.93235,71.50057,97.93235,83.32643Z" fill="#bfbfbf"/><path d="M96.37738,83.429c0,7.11093-3.51335,10.47514-9.89182,10.47514h-43.28V63.08169H74.26713C86.47829,63.08169,96.37738,72.13818,96.37738,83.429Z" fill="#ccc"/><line x1="101.37381" y1="34.46249" x2="101.37381" y2="56.64373" fill="none" stroke="#000" stroke-miterlimit="10" stroke-width="1.84545"/><line x1="130.45794" y1="34.46249" x2="130.45794" y2="56.64373" fill="none" stroke="#000" stroke-miterlimit="10" stroke-width="1.84545"/><line x1="159.54206" y1="34.46249" x2="159.54206" y2="56.64373" fill="none" stroke="#000" stroke-miterlimit="10" stroke-width="1.84545"/><line x1="188.62619" y1="34.46249" x2="188.62619" y2="56.64373" fill="none" stroke="#000" stroke-miterlimit="10" stroke-width="1.84545"/><line x1="217.71031" y1="34.46249" x2="217.71031" y2="56.64373" fill="none" stroke="#000" stroke-miterlimit="10" stroke-width="1.84545"/><polygon points="101.374 35.614 72.29 35.614 73.079 42.85 100.584 42.85 101.374 35.614" fill="#1a1a1a"/><polygon points="130.458 35.614 101.374 35.614 102.163 42.85 129.669 42.85 130.458 35.614" fill="#1a1a1a"/><polygon points="159.542 35.614 130.458 35.614 131.247 42.85 158.753 42.85 159.542 35.614" fill="#1a1a1a"/><polygon points="188.626 35.614 159.542 35.614 160.331 42.85 187.837 42.85 188.626 35.614" fill="#1a1a1a"/><polygon points="217.71 35.614 188.626 35.614 189.416 42.85 216.921 42.85 217.71 35.614" fill="#1a1a1a"/><polygon points="246.794 35.614 217.71 35.614 218.5 42.85 246.005 42.85 246.794 35.614" fill="#1a1a1a"/><polygon points="72.29 35.614 43.206 35.614 43.995 42.85 71.5 42.85 72.29 35.614" fill="#1a1a1a"/><rect x="217.71031" y="29.82456" width="29.08413" height="6.97408" rx="2.06818" ry="2.06818" fill="#ccc" stroke="#000" stroke-miterlimit="10" stroke-width="0.18455"/><rect x="219.16425" y="30.9433" width="26.05132" height="3.94717" rx="1.97358" ry="1.97358" fill="#f2f2f2"/><rect x="159.54206" y="29.82456" width="29.08413" height="6.97408" rx="2.06818" ry="2.06818" fill="#ccc" stroke="#000" stroke-miterlimit="10" stroke-width="0.18455"/><rect x="160.996" y="30.9433" width="26.05132" height="3.94717" rx="1.97358" ry="1.97358" fill="#f2f2f2"/><rect x="130.45794" y="29.82456" width="29.08413" height="6.97408" rx="2.06818" ry="2.06818" fill="#ccc" stroke="#000" stroke-miterlimit="10" stroke-width="0.18455"/><rect x="131.91187" y="30.9433" width="26.05132" height="3.94717" rx="1.97358" ry="1.97358" fill="#f2f2f2"/><rect x="101.37381" y="29.82456" width="29.08413" height="6.97408" rx="2.06818" ry="2.06818" fill="#ccc" stroke="#000" stroke-miterlimit="10" stroke-width="0.18455"/><rect x="102.82775" y="30.9433" width="26.05132" height="3.94717" rx="1.97358" ry="1.97358" fill="#f2f2f2"/><rect x="72.28969" y="29.82456" width="29.08413" height="6.97408" rx="2.06818" ry="2.06818" fill="#ccc" stroke="#000" stroke-miterlimit="10" stroke-width="0.18455"/><rect x="73.74362" y="30.9433" width="26.05132" height="3.94717" rx="1.97358" ry="1.97358" fill="#f2f2f2"/><rect x="43.20556" y="29.82456" width="29.08413" height="6.97408" rx="2.06818" ry="2.06818" fill="#ccc" stroke="#000" stroke-miterlimit="10" stroke-width="0.18455"/><rect x="44.65949" y="30.9433" width="26.05132" height="3.94717" rx="1.97358" ry="1.97358" fill="#f2f2f2"/><rect x="188.62619" y="29.82456" width="29.08413" height="6.97408" rx="2.06818" ry="2.06818" fill="#ccc" stroke="#000" stroke-miterlimit="10" stroke-width="0.18455"/><rect x="190.08012" y="30.9433" width="26.05132" height="3.94717" rx="1.97358" ry="1.97358" fill="#f2f2f2"/><rect x="106.14963" y="60.0914" width="99.7549" height="34.26092" rx="4.77273" ry="4.77273" fill="#1a1a1a" stroke="#000" stroke-miterlimit="10" stroke-width="0.3"/><circle cx="156.02708" cy="77.22186" r="11.89" fill="#333"/><circle cx="156.02708" cy="77.22186" r="11.31" stroke="#000" stroke-miterlimit="10" stroke-width="0.5" fill="url(#a)"/><circle cx="156.02708" cy="77.22186" r="8" fill="#333" stroke="#424242" stroke-miterlimit="10" stroke-width="0.29"/><path d="M163.04336,69.83037l-8.13734,6.696a1.12094,1.12094,0,0,0,.07912,1.65063l.315.315a1.12094,1.12094,0,0,0,1.65062.07912l6.69606-8.13731Z" fill="#ccc"/></svg>