<svg xmlns="http://www.w3.org/2000/svg" viewBox="0 0 760 320"><title>gfk_mod-scheme-b</title><rect width="760" height="320" fill="#202020"/><path d="M53.41455,30.87988l3.52734,9.79981c.44825,1.26074.86817,2.57617,1.31641,3.83593h.11231c.44726-1.25976.81152-2.57519,1.25976-3.83593l3.47168-9.79981h2.82813V49.24805h-2.1836V39.13965c0-1.624.19531-3.80762.30762-5.43164h-.11231l-1.456,4.17187-3.47168,9.52051h-1.54l-3.47168-9.52051-1.456-4.17187h-.11231c.11231,1.624.28028,3.80761.28028,5.43164v10.1084H50.61377V30.87988Z" fill="#ccc"/><path d="M69.90576,45.71973c0-2.96778,2.54785-4.45118,8.34375-5.09571,0-1.73632-.55957-3.416-2.7998-3.416a7.39847,7.39847,0,0,0-4.05957,1.456l-.89649-1.5957a10.09521,10.09521,0,0,1,5.34766-1.76465c3.332,0,4.73242,2.21191,4.73242,5.60059v8.34375h-1.9043l-.19531-1.624h-.084a7.25925,7.25925,0,0,1-4.50879,1.96A3.70275,3.70275,0,0,1,69.90576,45.71973Zm8.34375.19629V42.13574c-4.53613.56055-6.10351,1.68067-6.10351,3.416,0,1.54,1.06347,2.18457,2.40722,2.18457C75.86963,47.73633,76.93408,47.0918,78.24951,45.916Z" fill="#ccc"/><path d="M83.8501,42.47168c0-4.56348,3.05176-7.168,6.55176-7.168a5.64945,5.64945,0,0,1,3.97656,1.59668l-1.17676,1.51172a3.98808,3.98808,0,0,0-2.71582-1.2041c-2.46387,0-4.25586,2.12793-4.25586,5.26367,0,3.1084,1.708,5.208,4.2002,5.208a4.831,4.831,0,0,0,3.1914-1.37207l1.00879,1.54A6.63675,6.63675,0,0,1,90.23389,49.584C86.62158,49.584,83.8501,46.98047,83.8501,42.47168Z" fill="#ccc"/><path d="M99.52979,35.63965l.19531,2.46484h.084c.92481-1.708,2.32422-2.80078,3.86426-2.80078a3.3771,3.3771,0,0,1,1.45605.28027l-.44824,2.01661a3.78891,3.78891,0,0,0-1.31543-.22461c-1.14843,0-2.52051.83984-3.44433,3.13574v8.73633h-2.2959V35.63965Z" fill="#ccc"/><path d="M106.05322,42.47168c0-4.56348,2.96778-7.168,6.29981-7.168s6.2998,2.60449,6.2998,7.168c0,4.50879-2.96777,7.1123-6.2998,7.1123S106.05322,46.98047,106.05322,42.47168Zm10.21973,0c0-3.13574-1.56738-5.26367-3.91992-5.26367-2.32422,0-3.91992,2.12793-3.91992,5.26367,0,3.1084,1.5957,5.208,3.91992,5.208C114.70557,47.67969,116.273,45.58008,116.273,42.47168Z" fill="#ccc"/><path d="M126.99756,40.06445c0-5.9082,3.47168-9.5205,8.14746-9.5205a6.701,6.701,0,0,1,5.04,2.26855l-1.25977,1.51172a5.01846,5.01846,0,0,0-3.75195-1.73633c-3.47168,0-5.76758,2.85645-5.76758,7.41992,0,4.62012,2.21192,7.53223,5.6836,7.53223a5.54186,5.54186,0,0,0,4.25585-2.07227l1.28809,1.45606a7.10532,7.10532,0,0,1-5.62793,2.66015C130.41357,49.584,126.99756,46.05566,126.99756,40.06445Z" fill="#ccc"/><path d="M142.81689,42.47168c0-4.56348,2.96778-7.168,6.29981-7.168s6.2998,2.60449,6.2998,7.168c0,4.50879-2.96777,7.1123-6.2998,7.1123S142.81689,46.98047,142.81689,42.47168Zm10.21973,0c0-3.13574-1.56738-5.26367-3.91992-5.26367-2.32422,0-3.91992,2.12793-3.91992,5.26367,0,3.1084,1.5957,5.208,3.91992,5.208C151.46924,47.67969,153.03662,45.58008,153.03662,42.47168Z" fill="#ccc"/><path d="M160.90479,35.63965l.19531,1.96094h.084a6.41621,6.41621,0,0,1,4.56446-2.29688c2.85644,0,4.14355,1.84863,4.14355,5.32031v8.624h-2.2959V40.93164c0-2.54785-.7832-3.63965-2.57519-3.63965-1.40039,0-2.35254.72852-3.72461,2.09961v9.85645h-2.2959V35.63965Z" fill="#ccc"/><path d="M174.70947,45.04785V37.51562h-2.0166V35.78027l2.12793-.14062.28027-3.80762h1.93164v3.80762h3.668v1.876h-3.668v7.56055c0,1.67969.53223,2.63184,2.10059,2.63184a4.94936,4.94936,0,0,0,1.54-.36426l.44727,1.73633a8.3994,8.3994,0,0,1-2.51954.5039C175.689,49.584,174.70947,47.73633,174.70947,45.04785Z" fill="#ccc"/><path d="M185.68506,35.63965l.19531,2.46484h.085c.92383-1.708,2.32324-2.80078,3.86328-2.80078a3.37715,3.37715,0,0,1,1.45606.28027l-.44824,2.01661A3.789,3.789,0,0,0,189.521,37.376c-1.14844,0-2.52051.83984-3.44434,3.13574v8.73633h-2.2959V35.63965Z" fill="#ccc"/><path d="M192.2085,42.47168c0-4.56348,2.96777-7.168,6.2998-7.168s6.29981,2.60449,6.29981,7.168c0,4.50879-2.96778,7.1123-6.29981,7.1123S192.2085,46.98047,192.2085,42.47168Zm10.21972,0c0-3.13574-1.56738-5.26367-3.91992-5.26367-2.32422,0-3.91992,2.12793-3.91992,5.26367,0,3.1084,1.5957,5.208,3.91992,5.208C200.86084,47.67969,202.42822,45.58008,202.42822,42.47168Z" fill="#ccc"/><path d="M208.39209,46.50391V29.3125h2.2959V46.67188c0,.72851.30859,1.00781.64453,1.00781a1.94051,1.94051,0,0,0,.50391-.05567l.30761,1.73633a3.09575,3.09575,0,0,1-1.31543.22363C209.09229,49.584,208.39209,48.49219,208.39209,46.50391Z" fill="#ccc"/><path d="M340.83447,30.87988l3.52735,9.79981c.44824,1.26074.86816,2.57617,1.3164,3.83593h.11231c.44726-1.25976.81152-2.57519,1.25976-3.83593l3.47168-9.79981h2.82813V49.24805h-2.1836V39.13965c0-1.624.19532-3.80762.30762-5.43164h-.1123l-1.45606,4.17187-3.47168,9.52051h-1.54l-3.47168-9.52051L339.96631,33.708H339.854c.11231,1.624.28028,3.80761.28028,5.43164v10.1084h-2.10059V30.87988Z" fill="#ccc"/><path d="M357.15771,42.47168c0-4.56348,2.96778-7.168,6.29981-7.168s6.2998,2.60449,6.2998,7.168c0,4.50879-2.96777,7.1123-6.2998,7.1123S357.15771,46.98047,357.15771,42.47168Zm10.21973,0c0-3.13574-1.56738-5.26367-3.91992-5.26367-2.32422,0-3.91992,2.12793-3.91992,5.26367,0,3.1084,1.5957,5.208,3.91992,5.208C365.81006,47.67969,367.37744,45.58008,367.37744,42.47168Z" fill="#ccc"/><path d="M372.36182,42.47168c0-4.42383,2.7998-7.168,5.90722-7.168a5.61024,5.61024,0,0,1,3.8086,1.56836l-.11231-2.32422V29.3125h2.32422V49.24805h-1.9043l-.19629-1.59571h-.084a6.13572,6.13572,0,0,1-4.11523,1.93164C374.57373,49.584,372.36182,47.00781,372.36182,42.47168Zm9.60351,3.30469V38.66406a4.73478,4.73478,0,0,0-3.30371-1.42773c-2.18457,0-3.91992,2.09961-3.91992,5.208,0,3.248,1.37207,5.208,3.752,5.208A4.60625,4.60625,0,0,0,381.96533,45.77637Z" fill="#ccc"/><path d="M401.1167,30.87988l6.21582,18.36817h-2.49121L403.105,43.64844H396.4126l-1.76367,5.59961H392.269l6.21582-18.36817Zm1.40039,10.89258-.86816-2.80078c-.67188-2.044-1.25977-4.05957-1.84766-6.1875H399.689c-.55957,2.12793-1.14746,4.14355-1.82031,6.1875l-.86719,2.80078Z" fill="#ccc"/><path d="M411.61768,35.63965l.19531,1.96094h.084a5.98318,5.98318,0,0,1,4.22852-2.29688,3.57074,3.57074,0,0,1,3.75195,2.60449c1.42774-1.54,2.82813-2.60449,4.47949-2.60449,2.80078,0,4.14453,1.84863,4.14453,5.32031v8.624h-2.29589V40.93164c0-2.54785-.8125-3.63965-2.52051-3.63965-1.06348,0-2.15527.7002-3.416,2.09961v9.85645h-2.2959V40.93164c0-2.54785-.81152-3.63965-2.54785-3.63965-1.00781,0-2.15625.7002-3.416,2.09961v9.85645h-2.2959V35.63965Z" fill="#ccc"/><path d="M431.91748,42.47168c0-4.56348,2.96777-7.168,6.29981-7.168s6.2998,2.60449,6.2998,7.168c0,4.50879-2.96777,7.1123-6.2998,7.1123S431.91748,46.98047,431.91748,42.47168Zm10.21973,0c0-3.13574-1.56739-5.26367-3.91992-5.26367-2.32422,0-3.91993,2.12793-3.91993,5.26367,0,3.1084,1.59571,5.208,3.91993,5.208C440.56982,47.67969,442.13721,45.58008,442.13721,42.47168Z" fill="#ccc"/><path d="M447.90479,44.26367v-8.624H450.229v8.3164c0,2.54786.75586,3.63965,2.54786,3.63965,1.40039,0,2.37988-.69922,3.668-2.2959V35.63965h2.2959v13.6084H456.8374l-.19629-2.12793h-.084a5.74993,5.74993,0,0,1-4.48047,2.46386C449.19287,49.584,447.90479,47.73633,447.90479,44.26367Z" fill="#ccc"/><path d="M465.23682,35.63965l.19531,1.96094h.084a6.41621,6.41621,0,0,1,4.56446-2.29688c2.85644,0,4.14355,1.84863,4.14355,5.32031v8.624h-2.2959V40.93164c0-2.54785-.7832-3.63965-2.57519-3.63965-1.40039,0-2.35254.72852-3.72461,2.09961v9.85645h-2.2959V35.63965Z" fill="#ccc"/><path d="M479.03955,45.04785V37.51562h-2.01562V35.78027l2.12793-.14062.28027-3.80762h1.93164v3.80762h3.668v1.876h-3.668v7.56055c0,1.67969.53223,2.63184,2.10059,2.63184a4.94936,4.94936,0,0,0,1.54-.36426l.44727,1.73633a8.3994,8.3994,0,0,1-2.51953.5039C480.02,49.584,479.03955,47.73633,479.03955,45.04785Z" fill="#ccc"/><path d="M587.71875,30.87988c4.11523,0,6.88672,1.37207,6.88672,5.4043,0,3.86426-2.74219,5.68359-6.77539,5.68359h-3.02344v7.28028h-2.32422V30.87988Zm4.56445,5.4043c0-2.66016-1.625-3.52832-4.8457-3.52832h-2.63086v7.30859h2.74414C590.74219,40.06445,592.2832,38.8877,592.2832,36.28418Z" fill="#ccc"/><path d="M596.0625,45.71973c0-2.96778,2.54688-4.45118,8.34375-5.09571,0-1.73632-.56055-3.416-2.80078-3.416a7.39244,7.39244,0,0,0-4.05859,1.456l-.89649-1.5957a10.09521,10.09521,0,0,1,5.34766-1.76465c3.332,0,4.73242,2.21191,4.73242,5.60059v8.34375h-1.9043l-.19531-1.624h-.084a7.26184,7.26184,0,0,1-4.50977,1.96A3.702,3.702,0,0,1,596.0625,45.71973Zm8.34375.19629V42.13574c-4.53711.56055-6.10352,1.68067-6.10352,3.416,0,1.54,1.0625,2.18457,2.40625,2.18457C602.02539,47.73633,603.08984,47.0918,604.40625,45.916Z" fill="#ccc"/><path d="M612.918,35.63965l.19531,2.46484h.084c.92578-1.708,2.32421-2.80078,3.86523-2.80078a3.36971,3.36971,0,0,1,1.45508.28027l-.44727,2.01661a3.7905,3.7905,0,0,0-1.3164-.22461c-1.14844,0-2.51953.83984-3.44336,3.13574v8.73633h-2.29688V35.63965Z" fill="#ccc"/><path d="M619.21875,45.71973c0-2.96778,2.54687-4.45118,8.34375-5.09571,0-1.73632-.56055-3.416-2.80078-3.416a7.39247,7.39247,0,0,0-4.0586,1.456l-.89648-1.5957a10.09521,10.09521,0,0,1,5.34766-1.76465c3.332,0,4.73242,2.21191,4.73242,5.60059v8.34375h-1.9043l-.19531-1.624h-.084a7.26179,7.26179,0,0,1-4.50976,1.96A3.702,3.702,0,0,1,619.21875,45.71973Zm8.34375.19629V42.13574c-4.53711.56055-6.10352,1.68067-6.10352,3.416,0,1.54,1.0625,2.18457,2.40625,2.18457C625.18164,47.73633,626.24609,47.0918,627.5625,45.916Z" fill="#ccc"/><path d="M636.07422,35.63965l.19531,1.96094h.084a5.98685,5.98685,0,0,1,4.22851-2.29688A3.57,3.57,0,0,1,644.334,37.9082c1.42774-1.54,2.82813-2.60449,4.48047-2.60449,2.80078,0,4.14453,1.84863,4.14453,5.32031v8.624h-2.29687V40.93164c0-2.54785-.8125-3.63965-2.51953-3.63965-1.06446,0-2.15625.7002-3.416,2.09961v9.85645h-2.29687V40.93164c0-2.54785-.81055-3.63965-2.54688-3.63965-1.00781,0-2.15625.7002-3.416,2.09961v9.85645h-2.29688V35.63965Z" fill="#ccc"/><path d="M656.375,42.47168c0-4.45117,2.99609-7.168,6.10352-7.168,3.47265,0,5.43164,2.49219,5.43164,6.38477a8.81182,8.81182,0,0,1-.084,1.31543h-9.18359c.168,2.88379,1.93164,4.73242,4.53515,4.73242a6.1443,6.1443,0,0,0,3.38868-1.06445l.8125,1.51171a8.0991,8.0991,0,0,1-4.48047,1.40039C659.25781,49.584,656.375,46.92383,656.375,42.47168Zm6.16016-5.34766c-1.9043,0-3.64063,1.54-3.91993,4.22852h7.2793C665.89453,38.6084,664.66211,37.124,662.53516,37.124Z" fill="#ccc"/><path d="M671.38086,45.04785V37.51562h-2.01563V35.78027l2.12891-.14062.2793-3.80762h1.93164v3.80762h3.668v1.876h-3.668v7.56055c0,1.67969.5332,2.63184,2.10156,2.63184a4.94348,4.94348,0,0,0,1.53906-.36426l.44727,1.73633a8.3994,8.3994,0,0,1-2.51953.5039C672.36133,49.584,671.38086,47.73633,671.38086,45.04785Z" fill="#ccc"/><path d="M679.05469,42.47168c0-4.45117,2.99609-7.168,6.10351-7.168,3.47266,0,5.43164,2.49219,5.43164,6.38477a8.812,8.812,0,0,1-.084,1.31543h-9.18359c.168,2.88379,1.93164,4.73242,4.53515,4.73242a6.14427,6.14427,0,0,0,3.38867-1.06445l.8125,1.51171a8.09905,8.09905,0,0,1-4.48047,1.40039C681.9375,49.584,679.05469,46.92383,679.05469,42.47168Zm6.16015-5.34766c-1.90429,0-3.64062,1.54-3.91992,4.22852h7.2793C688.57422,38.6084,687.3418,37.124,685.21484,37.124Z" fill="#ccc"/><path d="M695.85352,35.63965l.19531,2.46484h.084c.92578-1.708,2.32422-2.80078,3.86524-2.80078a3.36964,3.36964,0,0,1,1.45507.28027l-.44726,2.01661a3.79056,3.79056,0,0,0-1.31641-.22461c-1.14843,0-2.51953.83984-3.44336,3.13574v8.73633h-2.29687V35.63965Z" fill="#ccc"/><polygon points="480.667 169.75 340.667 289.75 340.667 129.75 480.667 79.75 480.667 169.75" fill="#6c718c"/><rect x="631.16699" y="129.25" width="19" height="169" fill="#ff953d"/><path d="M649.66669,129.75v168h-18v-168h18m1-1h-20v170h20v-170Z"/><rect x="614.66667" y="79.75" width="12" height="90" fill="#6c718c"/><rect x="654.66667" y="79.75" width="12" height="90" fill="#6c718c"/><line x1="165.66667" y1="179.75" x2="168.66667" y2="179.75" fill="none" stroke="#ff953d" stroke-width="2"/><polyline points="173.748 179.75 340.667 179.751 475.827 104.447" fill="none" stroke="#ff953d" stroke-width="2" stroke-dasharray="6.09746 5.08122"/><line x1="478.04596" y1="103.21021" x2="480.66666" y2="101.75" fill="none" stroke="#ff953d" stroke-width="2"/><line x1="485.66667" y1="129.75" x2="627.66667" y2="129.75" fill="none" stroke="#1a1a1a" stroke-width="2"/><line x1="485.66667" y1="129.75" x2="627.66667" y2="129.75" fill="none" stroke="#ff953d" stroke-width="2" stroke-dasharray="6 5"/><line x1="485.66666" y1="80.75" x2="488.66666" y2="80.75" fill="none" stroke="#6c718c" stroke-width="2"/><line x1="493.84058" y1="80.75" x2="605.07971" y2="80.75" fill="none" stroke="#6c718c" stroke-width="2" stroke-dasharray="6.2087 5.17391"/><line x1="607.66669" y1="80.75" x2="610.66669" y2="80.75" fill="none" stroke="#6c718c" stroke-width="2"/><line x1="165.66667" y1="130.75" x2="168.66667" y2="130.75" fill="none" stroke="#6c718c" stroke-width="2"/><line x1="173.79245" y1="130.75" x2="329.10376" y2="130.75" fill="none" stroke="#6c718c" stroke-width="2" stroke-dasharray="6.15094 5.12579"/><line x1="331.66666" y1="130.75" x2="334.66666" y2="130.75" fill="none" stroke="#6c718c" stroke-width="2"/><line x1="165.66667" y1="288.75" x2="168.66667" y2="288.75" fill="none" stroke="#6c718c" stroke-width="2"/><line x1="173.79245" y1="288.75" x2="329.10376" y2="288.75" fill="none" stroke="#6c718c" stroke-width="2" stroke-dasharray="6.15094 5.12579"/><line x1="331.66666" y1="288.75" x2="334.66666" y2="288.75" fill="none" stroke="#6c718c" stroke-width="2"/><line x1="485.66666" y1="168.75" x2="488.66666" y2="168.75" fill="none" stroke="#6c718c" stroke-width="2"/><line x1="493.84058" y1="168.75" x2="605.07971" y2="168.75" fill="none" stroke="#6c718c" stroke-width="2" stroke-dasharray="6.2087 5.17391"/><line x1="607.66669" y1="168.75" x2="610.66669" y2="168.75" fill="none" stroke="#6c718c" stroke-width="2"/><path d="M138.72168,117.24414h23.88867a5.56152,5.56152,0,0,1,5.56152,5.56152V296.69531a5.56055,5.56055,0,0,1-5.56055,5.56055H138.72266a5.56152,5.56152,0,0,1-5.56152-5.56152V122.80469A5.56055,5.56055,0,0,1,138.72168,117.24414Z" fill="#666"/><path d="M162.6114,117.75a5.07014,5.07014,0,0,1,5.05527,5.05518V296.69482A5.07014,5.07014,0,0,1,162.6114,301.75H138.72194a5.07012,5.07012,0,0,1-5.05527-5.05518V122.80518a5.07012,5.07012,0,0,1,5.05527-5.05518H162.6114m0-1.011H138.72194a6.07306,6.07306,0,0,0-6.06632,6.06617V296.69482a6.07306,6.07306,0,0,0,6.06632,6.06617H162.6114a6.07306,6.07306,0,0,0,6.06632-6.06617V122.80518a6.07306,6.07306,0,0,0-6.06632-6.06617Z"/><line x1="150.66667" y1="129.75" x2="150.66667" y2="289.75" fill="none" stroke="#000" stroke-width="2"/><circle cx="150.66667" cy="179.75" r="10" fill="#ff953d" stroke="#1a1a1a" stroke-width="2"/><line x1="141.66798" y1="129.4796" x2="159.66798" y2="129.4796" fill="none" stroke="#333" stroke-width="2"/><line x1="141.66798" y1="289.4796" x2="159.66798" y2="289.4796" fill="none" stroke="#333" stroke-width="2"/></svg>