<svg xmlns="http://www.w3.org/2000/svg" xmlns:xlink="http://www.w3.org/1999/xlink" viewBox="0 0 144 198"><defs><radialGradient id="a" cx="72" cy="46.479" r="12.02295" gradientUnits="userSpaceOnUse"><stop offset="0" stop-color="#5e5e5e"/><stop offset="0.2038" stop-color="#4d4d4d"/><stop offset="0.60591" stop-color="#212121"/><stop offset="0.87174"/><stop offset="1"/></radialGradient><radialGradient id="b" cx="72" cy="131.39408" r="13.02311" gradientUnits="userSpaceOnUse"><stop offset="0" stop-color="#5e5e5e"/><stop offset="0.90665"/><stop offset="1"/></radialGradient></defs><title>Lautsprecher</title><rect x="8.93183" y="7" width="126.13634" height="187.5" rx="6" ry="6"/><rect x="11" y="9.5" width="122" height="182.5" rx="4" ry="4" fill="#1a1a1a" stroke="gray" stroke-miterlimit="10" stroke-width="0.7"/><circle cx="72" cy="131.47901" r="48.5" fill="#666" stroke="#b3b3b3" stroke-miterlimit="10" stroke-width="0.3"/><circle cx="72" cy="131.47901" r="40.73923" fill="#333" stroke="#000" stroke-miterlimit="10" stroke-width="2"/><circle cx="72" cy="131.47901" r="32.49282" fill="#222"/><circle cx="72" cy="131.47901" r="24.24641" fill="#111"/><circle cx="72" cy="131.47901" r="16"/><circle cx="72" cy="131.479" r="14.75"/><path d="M72,116.979a14.5,14.5,0,1,1-14.5,14.5,14.51642,14.51642,0,0,1,14.5-14.5m0-.5a15,15,0,1,0,15,15,15,15,0,0,0-15-15Z" fill="#333"/><circle cx="94.37363" cy="92.73502" r="2"/><circle cx="49.62071" cy="92.73856" r="2"/><circle cx="27.26101" cy="131.45222" r="2"/><circle cx="49.6367" cy="170.22697" r="2"/><circle cx="94.39071" cy="170.2114" r="2"/><circle cx="116.73938" cy="131.39408" r="2"/><circle cx="72" cy="46.479" r="23.32324" fill="#4d4d4d"/><path d="M72,24.15566A22.32335,22.32335,0,1,1,49.67665,46.479,22.34864,22.34864,0,0,1,72,24.15566m0-2A24.32335,24.32335,0,1,0,96.32335,46.479,24.32335,24.32335,0,0,0,72,22.15566Z" fill="#666"/><path d="M72,22.40566A24.07335,24.07335,0,1,1,47.92665,46.479,24.10061,24.10061,0,0,1,72,22.40566m0-.25A24.32335,24.32335,0,1,0,96.32335,46.479,24.32335,24.32335,0,0,0,72,22.15566Z" fill="#b3b3b3"/><circle cx="72" cy="46.479" r="12.02295" fill="url(#a)"/><path d="M72,35.4559A11.02311,11.02311,0,1,1,60.97688,46.479,11.0356,11.0356,0,0,1,72,35.4559m0-2A13.02311,13.02311,0,1,0,85.02312,46.479,13.02312,13.02312,0,0,0,72,33.4559Z"/><path d="M72,33.4559A13.02311,13.02311,0,1,1,58.97688,46.479,13.02312,13.02312,0,0,1,72,33.4559m0-.25A13.27311,13.27311,0,1,0,85.27312,46.479,13.28815,13.28815,0,0,0,72,33.2059Z" fill="gray"/><circle cx="72" cy="131.39408" r="13.02311" fill="url(#b)"/><circle cx="85.02311" cy="33.41019" r="1.76169"/><circle cx="58.97689" cy="59.45641" r="1.76169"/><circle cx="85.02311" cy="59.45641" r="1.76169"/><circle cx="58.97689" cy="33.41019" r="1.76169"/></svg>