<svg height="320" viewBox="0 0 760 320" width="760" xmlns="http://www.w3.org/2000/svg"><path d="m0 0h760v320h-760z" fill="#202020"/><g fill="#e4e4e4"><path d="m44.89746 29.56934h3l3.7793 10.499c.48047 1.34961.92969 2.75976 1.41015 4.11035h.12009c.47949-1.35059.87012-2.76074 1.34961-4.11035l3.71973-10.499h3.03027v19.67871h-2.33981v-10.82905c0-1.74024.21-4.08008.33008-5.82032h-.12012l-1.56055 4.46973-3.71973 10.20014h-1.64941l-3.71973-10.20019-1.56054-4.46973h-.12012c.12012 1.74024.30078 4.08008.30078 5.82032v10.8291h-2.25z"/><path d="m65.56641 45.46777c0-3.17968 2.73047-4.76953 8.94043-5.459 0-1.86035-.60059-3.66016-3-3.66016a7.93437 7.93437 0 0 0 -4.35059 1.55957l-.96-1.71a10.83291 10.83291 0 0 1 5.73047-1.88965c3.56933 0 5.06933 2.37012 5.06933 6v8.93946h-2.04l-.21-1.74024h-.08984a7.77509 7.77509 0 0 1 -4.83008 2.10059 3.96772 3.96772 0 0 1 -4.25972-4.14057zm8.94043.21v-4.0498c-4.86036.60059-6.54 1.80078-6.54 3.66016 0 1.65039 1.13965 2.33984 2.58008 2.33984 1.40913-.00004 2.54976-.68949 3.95992-1.95024z"/><path d="m80.50684 41.98828c0-4.88965 3.26953-7.67969 7.01953-7.67969a6.0515 6.0515 0 0 1 4.25976 1.71l-1.25976 1.62012a4.27578 4.27578 0 0 0 -2.91016-1.29c-2.63965 0-4.55957 2.28028-4.55957 5.63965 0 3.33008 1.83008 5.58008 4.5 5.58008a5.185 5.185 0 0 0 3.41992-1.46973l1.08008 1.64942a7.11324 7.11324 0 0 1 -4.71 1.86035c-3.87008-.00008-6.8398-2.79012-6.8398-7.6202z"/><path d="m95.2666 34.669h2.04l.21 2.63964h.08985c.99023-1.83007 2.49023-3 4.13964-3a3.62631 3.62631 0 0 1 1.56055.29981l-.48047 2.16015a4.0677 4.0677 0 0 0 -1.41015-.24023c-1.2295 0-2.69922.90039-3.68946 3.36035v9.35938h-2.46z"/><path d="m104.2959 41.98828c0-4.88965 3.17969-7.67969 6.75-7.67969 3.56933 0 6.75 2.79 6.75 7.67969 0 4.83008-3.18067 7.62012-6.75 7.62012-3.57031 0-6.75-2.79004-6.75-7.62012zm10.94922 0c0-3.35937-1.67969-5.63965-4.19922-5.63965-2.49024 0-4.2002 2.28028-4.2002 5.63965 0 3.33008 1.71 5.58008 4.2002 5.58008 2.51953 0 4.19922-2.25 4.19922-5.58008z"/><path d="m126.73535 39.4082c0-6.3291 3.7207-10.19922 8.73047-10.19922a7.1796 7.1796 0 0 1 5.39941 2.42969l-1.34961 1.62012a5.38071 5.38071 0 0 0 -4.0205-1.86035c-3.71973 0-6.17969 3.06054-6.17969 7.95019 0 4.94922 2.37012 8.06934 6.08984 8.06934a5.93729 5.93729 0 0 0 4.55957-2.21973l1.37989 1.55957a7.61409 7.61409 0 0 1 -6.0293 2.85059c-4.91992 0-8.58008-3.78028-8.58008-10.2002z"/><path d="m143.68555 41.98828c0-4.88965 3.17968-7.67969 6.75-7.67969 3.56933 0 6.749 2.79 6.749 7.67969 0 4.83008-3.17969 7.62012-6.749 7.62012-3.57032 0-6.75-2.79004-6.75-7.62012zm10.94922 0c0-3.35937-1.67969-5.63965-4.19922-5.63965-2.49024 0-4.2002 2.28028-4.2002 5.63965 0 3.33008 1.71 5.58008 4.2002 5.58008 2.51953 0 4.19922-2.25 4.19922-5.58008z"/><path d="m161.02539 34.669h2.04l.21 2.0996h.08984a6.87244 6.87244 0 0 1 4.88965-2.46c3.05957 0 4.44043 1.9795 4.44043 5.7002v9.23926h-2.46v-8.90919c0-2.73047-.84082-3.90039-2.76074-3.90039-1.499 0-2.51953.78027-3.98926 2.25v10.55957h-2.46z"/><path d="m177.85547 44.74805v-8.06934h-2.16016v-1.86035l2.28028-.14941.2998-4.08008h2.07031v4.08013h3.92969v2.00976h-3.92969v8.09961c0 1.7998.56934 2.81934 2.25 2.81934a5.29953 5.29953 0 0 0 1.64942-.38965l.48047 1.86035a9.0239 9.0239 0 0 1 -2.7002.54c-3.12012-.00001-4.16992-1.98048-4.16992-4.86036z"/><path d="m187.5752 34.669h2.04l.21 2.63964h.08984c.99023-1.83007 2.49023-3 4.13965-3a3.62626 3.62626 0 0 1 1.56054.29981l-.48046 2.16015a4.06776 4.06776 0 0 0 -1.41016-.24023c-1.22949 0-2.69922.90039-3.68945 3.36035v9.35938h-2.46z"/><path d="m196.60547 41.98828c0-4.88965 3.17969-7.67969 6.75-7.67969 3.56933 0 6.749 2.79 6.749 7.67969 0 4.83008-3.17969 7.62012-6.749 7.62012-3.57031 0-6.75-2.79004-6.75-7.62012zm10.94922 0c0-3.35937-1.67969-5.63965-4.19922-5.63965-2.49024 0-4.2002 2.28028-4.2002 5.63965 0 3.33008 1.71 5.58008 4.2002 5.58008 2.51953 0 4.19922-2.25 4.19922-5.58008z"/><path d="m213.94531 46.30859v-18.41992h2.46v18.59961c0 .78027.33008 1.08008.68946 1.08008a2.0457 2.0457 0 0 0 .54-.06055l.33007 1.86035a3.32094 3.32094 0 0 1 -1.41015.24024c-1.85938 0-2.60938-1.16992-2.60938-3.29981z"/><path d="m332.84766 29.56934h3l3.77929 10.499c.48047 1.34961.92969 2.75976 1.41016 4.11035h.12012c.47949-1.35059.87011-2.76074 1.34961-4.11035l3.71972-10.499h3.03028v19.67871h-2.33984v-10.82905c0-1.74024.21-4.08008.33008-5.82032h-.12008l-1.56054 4.46973-3.71973 10.20019h-1.64941l-3.71973-10.20019-1.56059-4.46978h-.12011c.12011 1.74024.30078 4.08008.30078 5.82032v10.8291h-2.25z"/><path d="m353.33691 41.98828c0-4.88965 3.17969-7.67969 6.75-7.67969 3.56934 0 6.75 2.79 6.75 7.67969 0 4.83008-3.18066 7.62012-6.75 7.62012-3.57031 0-6.75-2.79004-6.75-7.62012zm10.94922 0c0-3.35937-1.67968-5.63965-4.19922-5.63965-2.49023 0-4.20019 2.28028-4.20019 5.63965 0 3.33008 1.71 5.58008 4.20019 5.58008 2.51954 0 4.19922-2.25 4.19922-5.58008z"/><path d="m369.627 41.98828c0-4.73926 3-7.67969 6.3291-7.67969a6.00662 6.00662 0 0 1 4.08008 1.67969l-.12018-2.48928v-5.61033h2.49023v21.35938h-2.04l-.21-1.71h-.08984a6.576 6.576 0 0 1 -4.41016 2.07031c-3.65916.00004-6.02923-2.75973-6.02923-7.62008zm10.28907 3.54v-7.62008a5.07469 5.07469 0 0 0 -3.54-1.52929c-2.33985 0-4.19922 2.25-4.19922 5.5791 0 3.48047 1.46972 5.58008 4.01953 5.58008a4.93282 4.93282 0 0 0 3.71962-2.00977z"/><path d="m397.61621 29.56934h2.81934l6.66015 19.67871h-2.66992l-1.86035-6h-7.16895l-1.89062 6h-2.54981zm-1.58984 11.66894h5.90918l-.92969-3c-.71973-2.18945-1.34961-4.34961-1.97949-6.62988h-.12012c-.60059 2.28027-1.23047 4.44043-1.9502 6.62988z"/><path d="m409.64648 34.669h2.04l.21 2.0996h.08985a6.40711 6.40711 0 0 1 4.53027-2.46 3.82592 3.82592 0 0 1 4.01953 2.79c1.5293-1.65039 3.0293-2.79 4.79981-2.79 3 0 4.43945 1.9795 4.43945 5.7002v9.23926h-2.46v-8.90919c0-2.73047-.87012-3.90039-2.69922-3.90039-1.14062 0-2.31055.75-3.66016 2.25v10.55957h-2.46v-8.90918c0-2.73047-.87011-3.90039-2.72949-3.90039-1.08008 0-2.31055.75-3.66015 2.25v10.55957h-2.46z"/><path d="m433.43652 41.98828c0-4.88965 3.17969-7.67969 6.75-7.67969 3.56934 0 6.75 2.79 6.75 7.67969 0 4.83008-3.18066 7.62012-6.75 7.62012-3.57031 0-6.75-2.79004-6.75-7.62012zm10.94922 0c0-3.35937-1.67969-5.63965-4.19922-5.63965-2.49023 0-4.20019 2.28028-4.20019 5.63965 0 3.33008 1.71 5.58008 4.20019 5.58008 2.51953 0 4.19922-2.25 4.19922-5.58008z"/><path d="m450.56641 43.9082v-9.2392h2.49023v8.90917c0 2.73047.80957 3.9004 2.72949 3.9004 1.5 0 2.54981-.75 3.92969-2.46v-10.34957h2.46v14.5791h-2.04l-.21-2.28028h-.08984c-1.34961 1.58985-2.79 2.64063-4.79981 2.64063-3.08988-.00005-4.46976-1.98052-4.46976-5.70025z"/><path d="m467.0957 34.669h2.04l.21 2.0996h.08985a6.8724 6.8724 0 0 1 4.88965-2.46c3.05957 0 4.44042 1.9795 4.44042 5.7002v9.23926h-2.46v-8.90919c0-2.73047-.84082-3.90039-2.76074-3.90039-1.499 0-2.51953.78027-3.98926 2.25v10.55957h-2.46z"/><path d="m483.92578 44.74805v-8.06934h-2.16016v-1.86035l2.28028-.14941.2998-4.08008h2.0703v4.08013h3.92968v2.00976h-3.92968v8.09961c0 1.7998.56933 2.81934 2.25 2.81934a5.29947 5.29947 0 0 0 1.64941-.38965l.48047 1.86035a9.02384 9.02384 0 0 1 -2.7002.54c-3.12009-.00001-4.1699-1.98048-4.1699-4.86036z"/><path d="m578.32715 29.56934h5.60937c4.41016 0 7.37989 1.46972 7.37989 5.78906 0 4.13965-2.94043 6.08984-7.25977 6.08984h-3.24023v7.79981h-2.48926zm5.42969 9.83886c3.41992 0 5.06933-1.25976 5.06933-4.0498 0-2.84961-1.73926-3.7793-5.18945-3.7793h-2.82031v7.8291z"/><path d="m592.876 45.46777c0-3.17968 2.73047-4.76953 8.94043-5.459 0-1.86035-.60059-3.66016-3-3.66016a7.93437 7.93437 0 0 0 -4.35059 1.55957l-.96-1.71a10.83291 10.83291 0 0 1 5.73047-1.88965c3.56933 0 5.06933 2.37012 5.06933 6v8.93946h-2.04l-.21-1.74024h-.08984a7.77509 7.77509 0 0 1 -4.83008 2.10059 3.96772 3.96772 0 0 1 -4.25972-4.14057zm8.94043.21v-4.0498c-4.86036.60059-6.54 1.80078-6.54 3.66016 0 1.65039 1.13965 2.33984 2.58008 2.33984 1.40911-.00004 2.54974-.68949 3.9599-1.95024z"/><path d="m608.89648 34.669h2.04l.21 2.63964h.08985c.99023-1.83007 2.49023-3 4.13965-3a3.62629 3.62629 0 0 1 1.56054.29981l-.48047 2.16015a4.0677 4.0677 0 0 0 -1.41015-.24023c-1.22949 0-2.69922.90039-3.68945 3.36035v9.35938h-2.46z"/><path d="m617.68652 45.46777c0-3.17968 2.73047-4.76953 8.94043-5.459 0-1.86035-.60058-3.66016-3-3.66016a7.93434 7.93434 0 0 0 -4.35058 1.55957l-.96-1.71a10.83287 10.83287 0 0 1 5.73047-1.88965c3.56933 0 5.06933 2.37012 5.06933 6v8.93946h-2.04l-.21-1.74024h-.08984a7.77512 7.77512 0 0 1 -4.83008 2.10059 3.96772 3.96772 0 0 1 -4.25973-4.14057zm8.94043.21v-4.0498c-4.86035.60059-6.54 1.80078-6.54 3.66016 0 1.65039 1.13965 2.33984 2.58008 2.33984 1.40914-.00004 2.54977-.68949 3.95997-1.95024z"/><path d="m633.707 34.669h2.04l.21 2.0996h.08985a6.40709 6.40709 0 0 1 4.53027-2.46 3.82593 3.82593 0 0 1 4.01953 2.79c1.5293-1.65039 3.0293-2.79 4.7998-2.79 3 0 4.43946 1.9795 4.43946 5.7002v9.23926h-2.46v-8.90919c0-2.73047-.87012-3.90039-2.69922-3.90039-1.14063 0-2.31055.75-3.66016 2.25v10.55957h-2.46v-8.90918c0-2.73047-.87012-3.90039-2.72949-3.90039-1.08008 0-2.31055.75-3.66016 2.25v10.55957h-2.46z"/><path d="m657.49609 41.98828c0-4.76953 3.21-7.67969 6.54-7.67969 3.71973 0 5.81934 2.66993 5.81934 6.83985a9.60664 9.60664 0 0 1 -.08985 1.41015h-9.83984c.18067 3.08985 2.07031 5.06934 4.86035 5.06934a6.59261 6.59261 0 0 0 3.62989-1.13965l.87011 1.62012a8.68859 8.68859 0 0 1 -4.7998 1.5c-3.90035 0-6.9902-2.85059-6.9902-7.62012zm10.19922-1.20019c0-2.93946-1.31933-4.5293-3.59961-4.5293-2.04 0-3.89941 1.64941-4.19922 4.5293z"/><path d="m673.57617 44.74805v-8.06934h-2.16017v-1.86035l2.28027-.14941.2998-4.08008h2.07032v4.08013h3.92968v2.00976h-3.92968v8.09961c0 1.7998.56933 2.81934 2.25 2.81934a5.29947 5.29947 0 0 0 1.64941-.38965l.48047 1.86035a9.02384 9.02384 0 0 1 -2.7002.54c-3.12007-.00001-4.1699-1.98048-4.1699-4.86036z"/><path d="m681.7959 41.98828c0-4.76953 3.21-7.67969 6.54-7.67969 3.71972 0 5.81933 2.66993 5.81933 6.83985a9.60816 9.60816 0 0 1 -.08984 1.41015h-9.83984c.18066 3.08985 2.07031 5.06934 4.86035 5.06934a6.5926 6.5926 0 0 0 3.62988-1.13965l.87012 1.62012a8.68862 8.68862 0 0 1 -4.79981 1.5c-3.90035 0-6.99019-2.85059-6.99019-7.62012zm10.19922-1.20019c0-2.93946-1.31934-4.5293-3.59961-4.5293-2.04 0-3.89942 1.64941-4.19922 4.5293z"/><path d="m697.75586 34.669h2.04l.21 2.63964h.08984c.99024-1.83007 2.49024-3 4.13965-3a3.62634 3.62634 0 0 1 1.56055.29981l-.48047 2.16015a4.06771 4.06771 0 0 0 -1.41016-.24023c-1.22949 0-2.69922.90039-3.68945 3.36035v9.35938h-2.46z"/></g><path d="m480.667 169.75-140 120v-160l140-50z" fill="#4e4e4e"/><path d="m632.66667 129.75h16v168h-16z" fill="#e4e4e4"/><path d="m615.66667 79.75h10v90h-10z" fill="#cacaca"/><path d="m655.66667 79.75h10v90h-10z" fill="#cacaca"/><path d="m165.66675 179.75h3" fill="none" stroke="#f1f1f1" stroke-width="2"/><path d="m173.748 179.75 166.919.001 135.16-75.304" fill="none" stroke="#f1f1f1" stroke-dasharray="6.09746 5.08122" stroke-width="2"/><path d="m478.0459 103.21021 2.62085-1.46021" fill="none" stroke="#f1f1f1" stroke-width="2"/><path d="m480.66675 129.75h3" fill="none" stroke="#f1f1f1" stroke-width="2"/><path d="m488.53149 129.75h136.70264" fill="none" stroke="#f1f1f1" stroke-dasharray="5.83784 4.86486" stroke-width="2"/><path d="m627.66675 129.75h3" fill="none" stroke="#f1f1f1" stroke-width="2"/><path d="m480.66675 79.75h3" fill="none" stroke="#7f7f7f" stroke-width="2"/><path d="m488.78564 79.75h121.32154" fill="none" stroke="#7f7f7f" stroke-dasharray="6.14286 5.11905" stroke-width="2"/><path d="m612.66675 79.75h3" fill="none" stroke="#7f7f7f" stroke-width="2"/><path d="m165.66675 129.75h3" fill="none" stroke="#7f7f7f" stroke-width="2"/><path d="m173.63721 129.75h161.54419" fill="none" stroke="#7f7f7f" stroke-dasharray="5.96471 4.97059" stroke-width="2"/><path d="m337.66675 129.75h3" fill="none" stroke="#7f7f7f" stroke-width="2"/><path d="m165.66675 289.75h3" fill="none" stroke="#7f7f7f" stroke-width="2"/><path d="m173.63721 289.75h161.54419" fill="none" stroke="#7f7f7f" stroke-dasharray="5.96471 4.97059" stroke-width="2"/><path d="m337.66675 289.75h3" fill="none" stroke="#7f7f7f" stroke-width="2"/><path d="m480.66675 169.75h3" fill="none" stroke="#7f7f7f" stroke-width="2"/><path d="m488.78564 169.75h121.32154" fill="none" stroke="#7f7f7f" stroke-dasharray="6.14286 5.11905" stroke-width="2"/><path d="m612.66675 169.75h3" fill="none" stroke="#7f7f7f" stroke-width="2"/><rect fill="#7f7f7f" height="179.5" rx="1.75" width="29.5" x="135.91667" y="120.00011"/><path d="m163.66667 120.25011a1.50164 1.50164 0 0 1 1.5 1.5v176a1.50164 1.50164 0 0 1 -1.5 1.5h-26a1.50164 1.50164 0 0 1 -1.5-1.5v-176a1.50164 1.50164 0 0 1 1.5-1.5zm0-.5h-26a2.00575 2.00575 0 0 0 -2 2v176a2.00591 2.00591 0 0 0 2 2h26a2.00592 2.00592 0 0 0 2-2v-176a2.00576 2.00576 0 0 0 -2-2z" fill="#202020"/><path d="m150.66667 129.75v160" fill="none" stroke="#202020" stroke-width="2"/><circle cx="150.66667" cy="179.75" fill="#fff" r="10" stroke="#4e4e4e" stroke-width=".7"/><path d="m139.66798 129.4796h22" fill="none" stroke="#4e4e4e" stroke-width=".7"/><path d="m139.66798 289.4796h22" fill="none" stroke="#4e4e4e" stroke-width=".7"/></svg>