<svg xmlns="http://www.w3.org/2000/svg" xmlns:xlink="http://www.w3.org/1999/xlink" viewBox="0 0 500 280"><defs><linearGradient id="a" x1="285.87239" y1="219.4111" x2="285.87239" y2="25.51746" gradientUnits="userSpaceOnUse"><stop offset="0" stop-color="#141414"/><stop offset="0.0576" stop-color="#999"/><stop offset="0.96594" stop-color="#999"/><stop offset="1" stop-color="#212121"/></linearGradient><linearGradient id="b" x1="51.87231" y1="544.49021" x2="51.87231" y2="16.59476" gradientUnits="userSpaceOnUse"><stop offset="0" stop-color="#4d4d4d"/><stop offset="0.02" stop-color="#999"/><stop offset="0.98" stop-color="#999"/><stop offset="1" stop-color="#1c1c1c"/></linearGradient></defs><title>pbribbons</title><rect width="500" height="280" fill="#ccc"/><path d="M29.1001,278.40625V20.418a3.82808,3.82808,0,0,1,3.82324-3.82422h37.898A3.82808,3.82808,0,0,1,74.64453,20.418v4.69922H497.90039V219.81152H74.64453v58.59473Z"/><path d="M70.82129,16.99463a3.42343,3.42343,0,0,1,3.42352,3.42352v5.09931H497.5V219.41107H74.24481v58.5943H29.5V20.41815a3.42359,3.42359,0,0,1,3.42352-3.42352H70.82129m0-.8H32.92352A4.22827,4.22827,0,0,0,28.7,20.41815V278.8053H75.04483V220.21106H498.3V24.71747H75.04483V20.41815a4.22829,4.22829,0,0,0-4.22354-4.22351Z"/><rect x="74.24479" y="219.4111" width="423.25521" height="58.59424" stroke="#000" stroke-miterlimit="10"/><path d="M497.5,25.51746H74.24479V219.4111H497.5Z" fill="url(#a)"/><path d="M29.1001,278.40527V20.418a3.82724,3.82724,0,0,1,3.82324-3.82324h37.898A3.82724,3.82724,0,0,1,74.64453,20.418v257.9873Z" fill="url(#b)"/><path d="M70.82129,16.99469a3.42336,3.42336,0,0,1,3.42349,3.42346V278.00537H29.5V20.41815a3.42358,3.42358,0,0,1,3.42352-3.42346h37.8978m0-.8H32.92349A4.22824,4.22824,0,0,0,28.7,20.41815V278.8053H75.04477V20.41815a4.22822,4.22822,0,0,0-4.22348-4.22345Z"/><path d="M449.24786,278.00534V226.86852a4.26142,4.26142,0,0,0-4.26155-4.2614H425.81022a4.2616,4.2616,0,0,0-4.26155,4.2614v51.13682" fill="#fff" stroke="#999" stroke-miterlimit="10"/><path d="M497.5,278.00534V222.60712H485.46984a4.26154,4.26154,0,0,0-4.26154,4.26154v51.13668" fill="#fff" stroke="#999" stroke-miterlimit="10"/><path d="M106.20523,278.00534V226.86852a4.26136,4.26136,0,0,0-4.26126-4.2614H82.76759a4.26135,4.26135,0,0,0-4.26126,4.2614v51.13682" fill="#fff" stroke="#999" stroke-miterlimit="10"/><path d="M108.08594,278.25488V226.86816a4.51617,4.51617,0,0,1,4.51123-4.51074h19.17676a4.51618,4.51618,0,0,1,4.51123,4.51074v51.38672Z" fill="#1a1a1a"/><path d="M131.77377,222.60712a4.26135,4.26135,0,0,1,4.26126,4.26141v51.13684H108.33615V226.86853a4.26135,4.26135,0,0,1,4.26126-4.26141h19.17636m0-.5H112.59741a4.76675,4.76675,0,0,0-4.76126,4.76141v51.63684H136.535V226.86853a4.76674,4.76674,0,0,0-4.76126-4.76141Z" fill="#333"/><path d="M128.76259,224.00544h-13.154c-1.61429,0-2.923,1.85973-2.923,4.15384v49.84616h19V228.15928C131.68559,225.86517,130.37688,224.00544,128.76259,224.00544Z" fill="#333"/><path d="M165.61465,278.25488V226.86816a4.51618,4.51618,0,0,1,4.51123-4.51074h19.17676a4.51618,4.51618,0,0,1,4.51123,4.51074v51.38672Z" fill="#1a1a1a"/><path d="M189.30249,222.60712a4.26135,4.26135,0,0,1,4.26126,4.26141v51.13684H165.86486V226.86853a4.26136,4.26136,0,0,1,4.26127-4.26141h19.17636m0-.5H170.12613a4.76675,4.76675,0,0,0-4.76127,4.76141v51.63684h28.69889V226.86853a4.76675,4.76675,0,0,0-4.76126-4.76141Z" fill="#333"/><path d="M186.2913,224.00544h-13.154c-1.6143,0-2.923,1.85973-2.923,4.15384v49.84616h19V228.15928C189.2143,225.86517,187.90559,224.00544,186.2913,224.00544Z" fill="#333"/><path d="M255.10423,278.25488V226.86816a4.51617,4.51617,0,0,1,4.51123-4.51074h19.17675a4.51617,4.51617,0,0,1,4.51123,4.51074v51.38672Z" fill="#1a1a1a"/><path d="M278.79206,222.60712a4.26135,4.26135,0,0,1,4.26126,4.26141v51.13684H255.35444V226.86853a4.26135,4.26135,0,0,1,4.26126-4.26141h19.17636m0-.5H259.6157a4.76674,4.76674,0,0,0-4.76126,4.76141v51.63684h28.69888V226.86853a4.76674,4.76674,0,0,0-4.76126-4.76141Z" fill="#333"/><path d="M275.78088,224.00544h-13.154c-1.61429,0-2.923,1.85973-2.923,4.15384v49.84616h19V228.15928C278.70388,225.86517,277.39517,224.00544,275.78088,224.00544Z" fill="#333"/><path d="M312.63308,278.25488V226.86816a4.51617,4.51617,0,0,1,4.51123-4.51074h19.17676a4.51618,4.51618,0,0,1,4.51123,4.51074v51.38672Z" fill="#1a1a1a"/><path d="M336.32091,222.60712a4.26135,4.26135,0,0,1,4.26126,4.26141v51.13684H312.88329V226.86853a4.26135,4.26135,0,0,1,4.26126-4.26141h19.17636m0-.5H317.14455a4.76675,4.76675,0,0,0-4.76126,4.76141v51.63684h28.69888V226.86853a4.76674,4.76674,0,0,0-4.76126-4.76141Z" fill="#333"/><path d="M333.30973,224.00544h-13.154c-1.61429,0-2.923,1.85973-2.923,4.15384v49.84616h19V228.15928C336.23273,225.86517,334.924,224.00544,333.30973,224.00544Z" fill="#333"/><path d="M361.63913,278.25488V226.86816a4.51617,4.51617,0,0,1,4.51123-4.51074h19.17676a4.51618,4.51618,0,0,1,4.51123,4.51074v51.38672Z" fill="#1a1a1a"/><path d="M385.327,222.60712a4.26135,4.26135,0,0,1,4.26126,4.26141v51.13684H361.88934V226.86853a4.26135,4.26135,0,0,1,4.26126-4.26141H385.327m0-.5H366.1506a4.76675,4.76675,0,0,0-4.76126,4.76141v51.63684h28.69888V226.86853a4.76674,4.76674,0,0,0-4.76126-4.76141Z" fill="#333"/><path d="M382.31578,224.00544h-13.154c-1.61429,0-2.923,1.85973-2.923,4.15384v49.84616h19V228.15928C385.23878,225.86517,383.93007,224.00544,382.31578,224.00544Z" fill="#333"/><path d="M451.12842,278.25488V226.86816a4.51618,4.51618,0,0,1,4.51123-4.51074h19.17676a4.51617,4.51617,0,0,1,4.51123,4.51074v51.38672Z" fill="#1a1a1a"/><path d="M474.81626,222.60712a4.26135,4.26135,0,0,1,4.26126,4.26141v51.13684H451.37864V226.86853a4.26135,4.26135,0,0,1,4.26126-4.26141h19.17636m0-.5H455.6399a4.76674,4.76674,0,0,0-4.76126,4.76141v51.63684h28.69888V226.86853a4.76674,4.76674,0,0,0-4.76126-4.76141Z" fill="#333"/><path d="M471.80507,224.00544h-13.154c-1.61429,0-2.923,1.85973-2.923,4.15384v49.84616h19V228.15928C474.72808,225.86517,473.41937,224.00544,471.80507,224.00544Z" fill="#333"/><path d="M223.39371,278.00534V226.86852a4.26136,4.26136,0,0,0-4.26127-4.2614H199.95607a4.26141,4.26141,0,0,0-4.26154,4.2614v51.13682" fill="#fff" stroke="#999" stroke-miterlimit="10"/><path d="M163.73408,278.00534V226.86852a4.26135,4.26135,0,0,0-4.26126-4.2614H142.42721a4.26136,4.26136,0,0,0-4.26126,4.2614v51.13682" fill="#fff" stroke="#999" stroke-miterlimit="10"/><path d="M310.75251,278.00534V226.86852a4.26142,4.26142,0,0,0-4.26154-4.2614H289.44536a4.26136,4.26136,0,0,0-4.26126,4.2614v51.13682" fill="#fff" stroke="#999" stroke-miterlimit="10"/><path d="M359.75856,278.00534V226.86852a4.26142,4.26142,0,0,0-4.26154-4.2614h-8.5228a4.26136,4.26136,0,0,0-4.26127,4.2614v51.13682" fill="#fff" stroke="#999" stroke-miterlimit="10"/><path d="M253.22366,278.00534V226.86852a4.26142,4.26142,0,0,0-4.26154-4.2614H229.78574a4.26135,4.26135,0,0,0-4.26126,4.2614v51.13682" fill="#fff" stroke="#999" stroke-miterlimit="10"/><path d="M419.41818,278.00534V226.86852a4.26141,4.26141,0,0,0-4.26154-4.2614H395.98026a4.26136,4.26136,0,0,0-4.26126,4.2614v51.13682" fill="#fff" stroke="#999" stroke-miterlimit="10"/><path d="M497.5,139.07524H139.45868a3.42341,3.42341,0,0,1-3.4235-3.4235V110.53822a3.4234,3.4234,0,0,1,3.4235-3.42349H497.5Zm0,59.65955H139.45868a3.4234,3.4234,0,0,1-3.4235-3.42349V170.19778a3.42341,3.42341,0,0,1,3.4235-3.4235H497.5Z" fill="#4d4d4d" stroke="#000" stroke-miterlimit="10" stroke-width="0.7"/><path d="M136.03518,117.76823v17.88351a3.42341,3.42341,0,0,0,3.4235,3.4235H497.5v-21.307Z" fill="#1a1a1a"/><path d="M136.03518,177.42779V195.3113a3.4234,3.4234,0,0,0,3.4235,3.42349H497.5v-21.307Z" fill="#1a1a1a"/><circle cx="149.88463" cy="112.5" r="3.5" fill="#ff4621"/><circle cx="200.48876" cy="112.5" r="3.5" fill="#ff4621"/><circle cx="251.09275" cy="112.5" r="3.5" fill="#ff4621"/><circle cx="301.69687" cy="112.5" r="3.5" fill="#ff4621"/><circle cx="352.301" cy="112.5" r="3.5" fill="#ff4621"/><circle cx="402.90513" cy="112.5" r="3.5" fill="#ff4621"/><circle cx="453.50926" cy="112.5" r="3.5" fill="#ff4621"/><circle cx="149.88463" cy="172.5" r="3.5" fill="#ff4621"/><circle cx="200.48876" cy="172.5" r="3.5" fill="#ff4621"/><circle cx="251.09275" cy="172.5" r="3.5" fill="#6e2014"/><circle cx="301.69687" cy="172.5" r="3.5" fill="#6e2014"/><circle cx="352.301" cy="172.5" r="3.5" fill="#6e2014"/><circle cx="402.90513" cy="172.5" r="3.5" fill="#6e2014"/><circle cx="453.50926" cy="172.5" r="3.5" fill="#6e2014"/><rect x="271.19687" y="56.16667" width="57.67654" height="33.39844" rx="5" ry="5"/><rect x="279.97654" y="59.40332" width="40.11721" height="26.92513" rx="5" ry="5" fill="#333"/><ellipse cx="300.03514" cy="72.86589" rx="11.88773" ry="8.50911" fill="#1a1a1a"/></svg>