<svg xmlns="http://www.w3.org/2000/svg" viewBox="0 0 300 374"><title>pedals</title><rect width="300" height="374" fill="#ccc"/><rect x="8.16016" y="8.66602" width="153.9458" height="72.78418" rx="1.5" ry="1.5" fill="#333"/><path d="M160.60577,9.1665a1.00114,1.00114,0,0,1,1,1V79.95007a1.00114,1.00114,0,0,1-1,1H9.66013a1.00114,1.00114,0,0,1-1-1V10.1665a1.00114,1.00114,0,0,1,1-1H160.60577m0-1H9.66013a2,2,0,0,0-2,2V79.95007a2,2,0,0,0,2,2H160.60577a2,2,0,0,0,2-2V10.1665a2,2,0,0,0-2-2Z" fill="#4d4d4d"/><path d="M160.60577,8.1665a2,2,0,0,1,2,2V79.95007a2,2,0,0,1-2,2H9.66013a2,2,0,0,1-2-2V10.1665a2,2,0,0,1,2-2H160.60577m0-.5H9.66013a2.50282,2.50282,0,0,0-2.5,2.5V79.95007a2.50282,2.50282,0,0,0,2.5,2.5H160.60577a2.50281,2.50281,0,0,0,2.5-2.5V10.1665a2.50281,2.50281,0,0,0-2.5-2.5Z"/><path d="M75.40918,20.81055h1.28516c.90527,0,1.5791.31152,1.5791,1.25976,0,.90528-.67383,1.32324-1.55371,1.32324h-.58692v1.498h-.72363Zm1.25391,2.00293c.60546,0,.89843-.24317.89843-.74317,0-.51172-.31738-.67969-.92285-.67969h-.50586v1.42286Z" fill="#f2f2f2"/><path d="M79.35156,20.81055h2.459v.61133H80.0752v1.042H81.542v.61133H80.0752v1.20507h1.79687v.61133H79.35156Z" fill="#f2f2f2"/><path d="M83.01953,20.81055h1.0918A1.80136,1.80136,0,0,1,86.0957,22.832a1.81706,1.81706,0,0,1-1.94726,2.05957H83.01953Zm1.042,3.49414c.82325,0,1.292-.46778,1.292-1.47266,0-.998-.46875-1.43555-1.292-1.43555h-.31836v2.90821Z" fill="#f2f2f2"/><path d="M87.96582,20.81055h.84863l1.33008,4.08105h-.76172l-.31836-1.10449h-1.373l-.31836,1.10449h-.73633Zm-.10547,2.4082h1.042l-.14355-.499c-.13086-.43067-.25-.89844-.36817-1.34766h-.02539c-.1123.45508-.23046.917-.36132,1.34766Z" fill="#f2f2f2"/><path d="M90.96,20.81055h.72363v3.46972h1.69825v.61133H90.96Z" fill="#f2f2f2"/><path d="M93.9668,24.36719l.4248-.49317a1.61853,1.61853,0,0,0,1.06055.46192c.46191,0,.71191-.20606.71191-.52442,0-.33691-.26269-.44238-.63086-.59863l-.56152-.24316a1.17767,1.17767,0,0,1-.82422-1.08594,1.24135,1.24135,0,0,1,1.37305-1.14844,1.80169,1.80169,0,0,1,1.25488.51758l-.36816.46191a1.33553,1.33553,0,0,0-.88672-.34961c-.38672,0-.64258.18165-.64258.48047,0,.31836.3125.4375.64941.57422l.55567.23145a1.14172,1.14172,0,0,1,.82324,1.10449,1.29761,1.29761,0,0,1-1.4668,1.21094A2.11382,2.11382,0,0,1,93.9668,24.36719Z" fill="#f2f2f2"/><path d="M118.27148,312.23145l.67969-.78907a2.59967,2.59967,0,0,0,1.69873.73926c.73975,0,1.13965-.33008,1.13965-.83984,0-.53907-.41992-.709-1.00976-.959l-.89942-.38965a1.88424,1.88424,0,0,1-1.31933-1.73925,1.98864,1.98864,0,0,1,2.19921-1.83887,2.88514,2.88514,0,0,1,2.00879.8291l-.58984.74024a2.12577,2.12577,0,0,0-1.41895-.55958c-.62011,0-1.02978.28907-1.02978.76954,0,.50976.5.69921,1.03955.91894l.88965.37012A1.829,1.829,0,0,1,122.979,311.252a2.07831,2.07831,0,0,1-2.34912,1.93946A3.38285,3.38285,0,0,1,118.27148,312.23145Z" fill="#1a1a1a"/><path d="M124.02148,311.24219v-3.07813h1.14942v2.92871c0,.80957.23,1.10938.75928,1.10938.43017,0,.71972-.2002,1.08935-.67969v-3.3584H128.169v4.90723h-.93946l-.08984-.71973h-.02979a2.00039,2.00039,0,0,1-1.5791.83985C124.481,313.19141,124.02148,312.48145,124.02148,311.24219Z" fill="#1a1a1a"/><path d="M129.14111,312.51172l.54-.73926a2.18128,2.18128,0,0,0,1.35889.54883c.52978,0,.77978-.249.77978-.58887,0-.41015-.52978-.58984-1.04931-.79-.6499-.24023-1.3794-.60937-1.3794-1.42871,0-.86035.68946-1.46972,1.78907-1.46972a2.64939,2.64939,0,0,1,1.6289.58984l-.52978.69922a1.826,1.826,0,0,0-1.0791-.41992c-.48975,0-.71973.23046-.71973.54,0,.38965.48974.54,1.01953.7295.66943.25,1.40918.57031,1.40918,1.48926,0,.83984-.66943,1.51953-1.90918,1.51953A3.10966,3.10966,0,0,1,129.14111,312.51172Z" fill="#1a1a1a"/><path d="M133.91113,311.41211v-2.33887h-.6997v-.85937l.75976-.04981.14014-1.33886h.95947v1.33886h1.249v.90918h-1.249v2.33887c0,.58008.21973.85937.68945.85937a1.41623,1.41623,0,0,0,.50977-.10937l.19971.84961a3.13474,3.13474,0,0,1-.99952.17969C134.33105,313.19141,133.91113,312.47168,133.91113,311.41211Z" fill="#1a1a1a"/><path d="M136.88135,311.752c0-1.0498.86963-1.59863,2.88818-1.81933-.01953-.51953-.22949-.959-.89941-.959a2.79515,2.79515,0,0,0-1.37891.47949l-.41992-.76953a3.83792,3.83792,0,0,1,2.019-.63964c1.21924,0,1.82862.75,1.82862,2.11914v2.9082h-.94922l-.08008-.54h-.04a2.38718,2.38718,0,0,1-1.519.66016A1.37221,1.37221,0,0,1,136.88135,311.752Zm2.88818,0v-1.09961c-1.33887.16993-1.77881.51954-1.77881,1.00977,0,.43945.29981.62988.70948.62988A1.55977,1.55977,0,0,0,139.76953,311.752Z" fill="#1a1a1a"/><path d="M142.17139,306.65527a.71251.71251,0,1,1,.70947.64942A.65972.65972,0,0,1,142.17139,306.65527Zm.12988,1.50879h1.14941v4.90723h-1.14941Z" fill="#1a1a1a"/><path d="M144.9209,308.16406h.94971l.07959.65918h.04a2.27984,2.27984,0,0,1,1.60938-.77929c1.04932,0,1.50928.71,1.50928,1.94921v3.07813h-1.14942v-2.92871c0-.80957-.23-1.10938-.76953-1.10938a1.55346,1.55346,0,0,0-1.11963.61035v3.42774H144.9209Z" fill="#1a1a1a"/><path d="M152.62109,306.53516h2.0586c1.44922,0,2.52881.499,2.52881,2.01855,0,1.44922-1.07959,2.11914-2.48877,2.11914h-.93946v2.39844h-1.15918Zm2.00879,3.208c.96973,0,1.43946-.38964,1.43946-1.18945,0-.81933-.50977-1.08887-1.4795-1.08887h-.80957v2.27832Z" fill="#1a1a1a"/><path d="M157.80127,310.62305a2.38827,2.38827,0,0,1,2.25879-2.5791c1.32959,0,2.02881.96,2.02881,2.3291a2.69426,2.69426,0,0,1-.04981.55957H158.9209a1.4046,1.4046,0,0,0,1.44922,1.36914,2.0529,2.0529,0,0,0,1.13916-.35938l.38965.71875a3.08985,3.08985,0,0,1-1.67872.53028A2.3662,2.3662,0,0,1,157.80127,310.62305Zm3.28809-.46973c0-.75977-.32959-1.21973-.999-1.21973a1.2326,1.2326,0,0,0-1.17969,1.21973Z" fill="#1a1a1a"/><path d="M162.89111,310.62305a2.31239,2.31239,0,0,1,2.0791-2.5791,1.811,1.811,0,0,1,1.28907.54l-.04-.79v-1.77833h1.14941v7.05567h-.94922l-.08007-.5293h-.04a2.04636,2.04636,0,0,1-1.38916.64942C163.68066,313.19141,162.89111,312.24219,162.89111,310.62305Zm3.32813,1.06933v-2.28906a1.46356,1.46356,0,0,0-.99951-.41016c-.6294,0-1.13916.58985-1.13916,1.61914,0,1.05958.3999,1.62989,1.10937,1.62989A1.32394,1.32394,0,0,0,166.21924,311.69238Z" fill="#1a1a1a"/><path d="M168.5708,311.752c0-1.0498.86963-1.59863,2.88818-1.81933-.01953-.51953-.22949-.959-.89941-.959a2.79521,2.79521,0,0,0-1.37891.47949l-.41992-.76953a3.83792,3.83792,0,0,1,2.019-.63964c1.21923,0,1.82861.75,1.82861,2.11914v2.9082h-.94922l-.08008-.54h-.04a2.38718,2.38718,0,0,1-1.519.66016A1.37221,1.37221,0,0,1,168.5708,311.752Zm2.88818,0v-1.09961c-1.33886.16993-1.7788.51954-1.7788,1.00977,0,.43945.2998.62988.70947.62988A1.55975,1.55975,0,0,0,171.459,311.752Z" fill="#1a1a1a"/><path d="M173.99072,311.81152v-5.7959h1.14942v5.85645c0,.2793.12988.37988.25.37988a.67087.67087,0,0,0,.17968-.0205l.14991.85937a1.55522,1.55522,0,0,1-.60938.10059C174.29053,313.19141,173.99072,312.66113,173.99072,311.81152Z" fill="#1a1a1a"/><path d="M133.854,45.61719h.88184V43.02148h-.72656v-.44726a2.64358,2.64358,0,0,0,.91308-.32324h.53418v3.36621h.77588v.584H133.854Z" fill="#f2f2f2"/><path d="M100.36084,45.78516c1.09961-1.0625,1.78857-1.75782,1.78857-2.36036a.61209.61209,0,0,0-.65185-.68261,1.09282,1.09282,0,0,0-.77.44043l-.39746-.39746a1.61645,1.61645,0,0,1,1.26074-.6084,1.15455,1.15455,0,0,1,1.24805,1.21094c0,.70214-.65186,1.42187-1.43457,2.248.20508-.01855.46582-.043.6582-.043h.96875v.6084h-2.67041Z" fill="#f2f2f2"/><path d="M67.02686,45.7168l.34179-.46a1.29073,1.29073,0,0,0,.9375.43554c.42871,0,.72656-.22363.72656-.59668,0-.41015-.26074-.6709-1.16113-.6709v-.52148c.77637,0,1.03076-.2666,1.03076-.63379a.51521.51521,0,0,0-.58349-.52734,1.15163,1.15163,0,0,0-.79492.37207l-.3667-.44043a1.7455,1.7455,0,0,1,1.18652-.49707c.75732,0,1.2793.373,1.2793,1.043a.94854.94854,0,0,1-.68946.90722v.02442a1.00586,1.00586,0,0,1,.81983.98144c0,.72071-.62744,1.14258-1.38526,1.14258A1.71725,1.71725,0,0,1,67.02686,45.7168Z" fill="#f2f2f2"/><path d="M34.99756,45.18262H33.25244v-.48438L34.81738,42.251h.85108v2.3789H36.165v.55274h-.49658v1.01855h-.6709Zm0-.55274v-.89453c0-.22949.01855-.58984.03076-.81933h-.02441c-.09961.20507-.21143.40332-.32325.61425l-.72021,1.09961Z" fill="#f2f2f2"/><line x1="101.71847" y1="34.01541" x2="101.71847" y2="39.56029" fill="none" stroke="#f2f2f2" stroke-miterlimit="10" stroke-width="0.5"/><line x1="85.08382" y1="28.47053" x2="85.08382" y2="34.01541" fill="none" stroke="#f2f2f2" stroke-miterlimit="10" stroke-width="0.5"/><polyline points="35.18 39.56 35.18 34.015 134.988 34.015 134.988 39.56" fill="none" stroke="#f2f2f2" stroke-miterlimit="10" stroke-width="0.5"/><line x1="68.44917" y1="39.56029" x2="68.44917" y2="34.01541" fill="none" stroke="#f2f2f2" stroke-miterlimit="10" stroke-width="0.5"/><path d="M189.27637,155.20508h3.938v.98047h-2.77881v1.668h2.34863v.98046h-2.34863v1.92774H193.314v.98047h-4.03759Z" fill="#1a1a1a"/><path d="M195.146,159.18359l-1.45948-2.34961h1.23926l.54981.92969c.14013.26953.2998.56055.4497.83008h.04c.12012-.26953.25977-.56055.37988-.83008l.46973-.92969h1.18945l-1.44921,2.47852,1.55908,2.42969H196.875l-.59961-.97071c-.16016-.28906-.33008-.58984-.5-.86914h-.04c-.13965.2793-.28955.57032-.42969.86914l-.51953.97071h-1.19922Z" fill="#1a1a1a"/><path d="M198.98633,156.834h.94971l.07958.51954h.04a2.39373,2.39373,0,0,1,1.4795-.63868c1.21923,0,1.92871.97852,1.92871,2.498,0,1.67969-1.00928,2.64844-2.09864,2.64844a1.98315,1.98315,0,0,1-1.25927-.53906l.02978.81835v1.53907h-1.14941Zm3.28808,2.38868c0-.97852-.31982-1.5586-1.05908-1.5586a1.56935,1.56935,0,0,0-1.07959.54883V160.502a1.548,1.548,0,0,0,.98975.41016C201.7749,160.91211,202.27441,160.332,202.27441,159.22266Z" fill="#1a1a1a"/><path d="M204.626,156.834h.9497l.07959.86914h.04a1.66805,1.66805,0,0,1,1.38965-.98828,1.24305,1.24305,0,0,1,.55957.09961l-.20019,1a1.58168,1.58168,0,0,0-.50977-.08007c-.38965,0-.85937.26953-1.15918,1.00976v2.99805H204.626Z" fill="#1a1a1a"/><path d="M207.936,159.293a2.38735,2.38735,0,0,1,2.25878-2.57813c1.32959,0,2.02881.959,2.02881,2.32813a2.7056,2.7056,0,0,1-.0498.56055h-3.11817a1.4046,1.4046,0,0,0,1.44922,1.36914,2.06064,2.06064,0,0,0,1.13916-.35938l.38965.71875a3.089,3.089,0,0,1-1.67871.5293A2.3662,2.3662,0,0,1,207.936,159.293Zm3.28808-.46875c0-.75977-.32959-1.2207-.999-1.2207a1.23282,1.23282,0,0,0-1.17969,1.2207Z" fill="#1a1a1a"/><path d="M212.83594,161.18164l.54-.73828a2.18123,2.18123,0,0,0,1.35888.54883c.52979,0,.77979-.25.77979-.58985,0-.41015-.52979-.58984-1.04932-.78906-.6499-.24023-1.37939-.60937-1.37939-1.42969,0-.85937.68945-1.46875,1.78906-1.46875a2.64352,2.64352,0,0,1,1.62891.58985l-.52979.69922a1.82478,1.82478,0,0,0-1.0791-.41993c-.48975,0-.71973.23047-.71973.53907,0,.39062.48975.541,1.01953.73047.66944.25,1.40918.57031,1.40918,1.48828,0,.83984-.66943,1.51953-1.90918,1.51953A3.10336,3.10336,0,0,1,212.83594,161.18164Z" fill="#1a1a1a"/><path d="M217.146,161.18164l.54-.73828a2.18123,2.18123,0,0,0,1.35888.54883c.52979,0,.77979-.25.77979-.58985,0-.41015-.52979-.58984-1.04932-.78906-.6499-.24023-1.37939-.60937-1.37939-1.42969,0-.85937.68945-1.46875,1.78906-1.46875a2.64346,2.64346,0,0,1,1.6289.58985l-.52978.69922a1.826,1.826,0,0,0-1.0791-.41993c-.48975,0-.71973.23047-.71973.53907,0,.39062.48975.541,1.01953.73047.66944.25,1.40918.57031,1.40918,1.48828,0,.83984-.66943,1.51953-1.90918,1.51953A3.10336,3.10336,0,0,1,217.146,161.18164Z" fill="#1a1a1a"/><path d="M221.81592,155.32617a.71261.71261,0,1,1,.70947.64844A.65972.65972,0,0,1,221.81592,155.32617Zm.12988,1.50781h1.14941v4.90821H221.9458Z" fill="#1a1a1a"/><path d="M224.24609,159.293a2.34446,2.34446,0,1,1,2.32862,2.56836A2.37377,2.37377,0,0,1,224.24609,159.293Zm3.48829,0c0-.99024-.43995-1.63867-1.15967-1.63867-.71924,0-1.14893.64843-1.14893,1.63867,0,.98047.42969,1.62891,1.14893,1.62891C227.29443,160.92188,227.73438,160.27344,227.73438,159.293Z" fill="#1a1a1a"/><path d="M230.05566,156.834h.94971l.07959.66016h.04a2.27981,2.27981,0,0,1,1.60938-.7793c1.04931,0,1.50927.709,1.50927,1.94922v3.07813h-1.14941V158.8125c0-.80859-.23-1.10938-.76953-1.10938a1.555,1.555,0,0,0-1.11963.61133v3.42774h-1.14942Z" fill="#1a1a1a"/><path d="M237.75586,155.20508h2.05859c1.44922,0,2.52881.5,2.52881,2.01953,0,1.44922-1.07959,2.11914-2.48877,2.11914H238.915v2.39844h-1.15918Zm2.00879,3.209c.96973,0,1.43945-.39062,1.43945-1.18945,0-.82031-.50976-1.08984-1.47949-1.08984H238.915v2.27929Z" fill="#1a1a1a"/><path d="M242.936,159.293a2.38735,2.38735,0,0,1,2.25878-2.57813c1.32959,0,2.02881.959,2.02881,2.32813a2.7056,2.7056,0,0,1-.0498.56055h-3.11817a1.4046,1.4046,0,0,0,1.44922,1.36914,2.06064,2.06064,0,0,0,1.13916-.35938l.38965.71875a3.089,3.089,0,0,1-1.67871.5293A2.3662,2.3662,0,0,1,242.936,159.293Zm3.28808-.46875c0-.75977-.32959-1.2207-.999-1.2207a1.23282,1.23282,0,0,0-1.17969,1.2207Z" fill="#1a1a1a"/><path d="M248.02588,159.293a2.31142,2.31142,0,0,1,2.0791-2.57813,1.8101,1.8101,0,0,1,1.28906.53907l-.04-.78907v-1.77929h1.14942v7.05664h-.94922l-.08008-.5293h-.04a2.04526,2.04526,0,0,1-1.38916.64844C248.81543,161.86133,248.02588,160.91211,248.02588,159.293Zm3.32812,1.07031v-2.28906a1.459,1.459,0,0,0-.99951-.41016c-.62939,0-1.13916.58985-1.13916,1.61914,0,1.0586.3999,1.62891,1.10938,1.62891A1.32555,1.32555,0,0,0,251.354,160.36328Z" fill="#1a1a1a"/><path d="M253.70557,160.42188c0-1.04883.86963-1.59766,2.88818-1.81836-.01953-.51954-.22949-.959-.89941-.959a2.79355,2.79355,0,0,0-1.37891.47852l-.41992-.76953a3.83729,3.83729,0,0,1,2.019-.63868c1.21924,0,1.82861.75,1.82861,2.11914v2.90821H256.794l-.08008-.541h-.04a2.38209,2.38209,0,0,1-1.519.66016A1.37221,1.37221,0,0,1,253.70557,160.42188Zm2.88818,0v-1.09961c-1.33887.16992-1.77881.51953-1.77881,1.00976,0,.43945.29981.63086.70947.63086A1.5613,1.5613,0,0,0,256.59375,160.42188Z" fill="#1a1a1a"/><path d="M259.12549,160.48242v-5.79687h1.14941V160.543c0,.2793.12989.37891.25.37891a.70249.70249,0,0,0,.17969-.01954l.1499.85938a1.55779,1.55779,0,0,1-.60937.09961C259.42529,161.86133,259.12549,161.332,259.12549,160.48242Z" fill="#1a1a1a"/><path d="M261.3457,161.18164l.54-.73828a2.18128,2.18128,0,0,0,1.35889.54883c.52978,0,.77978-.25.77978-.58985,0-.41015-.52978-.58984-1.04931-.78906-.6499-.24023-1.3794-.60937-1.3794-1.42969,0-.85937.68946-1.46875,1.78907-1.46875a2.64349,2.64349,0,0,1,1.6289.58985l-.52978.69922a1.82483,1.82483,0,0,0-1.0791-.41993c-.48975,0-.71973.23047-.71973.53907,0,.39062.48974.541,1.01953.73047.66943.25,1.40918.57031,1.40918,1.48828,0,.83984-.66943,1.51953-1.90918,1.51953A3.10339,3.10339,0,0,1,261.3457,161.18164Z" fill="#1a1a1a"/><path d="M91.06076,353.974H39.858a6.45067,6.45067,0,0,1-6.44362-6.44362V159.73718h2.57745V347.53041a3.8704,3.8704,0,0,0,3.86617,3.86617H91.06076Z" stroke="#666" stroke-miterlimit="10" stroke-width="0.5"/><path d="M174.06076,272.974H106.858a6.45067,6.45067,0,0,1-6.44362-6.44362V159.73718h2.57745V266.53041a3.8704,3.8704,0,0,0,3.86617,3.86617h67.20277Z" stroke="#666" stroke-miterlimit="10" stroke-width="0.5"/><path d="M175.06076,210.974H139.858a6.45067,6.45067,0,0,1-6.44362-6.44362V159.73718h2.57745v44.79323a3.8704,3.8704,0,0,0,3.86617,3.86617h35.20277Z" stroke="#666" stroke-miterlimit="10" stroke-width="0.5"/><path d="M266.127,217.877l-.07177-.06445c-.49024-.44434-.896-.85645-.896-1.40625v-.457H181.92432v.457c0,.54883-.40577.96191-.896,1.40625l-.07129.06445H169.80957l-.07178-.06445c-.49023-.44434-.896-.85645-.896-1.40625v-.457h-4.80713a1.06559,1.06559,0,0,1-1.064-1.06445l.81446-15.48145a1.06234,1.06234,0,0,1,1.064-1.05176l.57666-.05078,59.65039-.51367L173.769,178.625l-7.17627-1.63281a1.06506,1.06506,0,0,1-.80127-1.27442l.72412-3.1748a1.0584,1.0584,0,0,1,1.03711-.82813,1.07211,1.07211,0,0,1,.23633.02637l115.87207,26.4043a1.064,1.064,0,0,1,.80078,1.27441l-.72363,3.17481a1.0584,1.0584,0,0,1-1.03711.82812,1.07224,1.07224,0,0,1-.23633-.02637l-4.94336-1.126-17.26513,1.03027,19.2876,6.68067,5.82861.584a1.05815,1.05815,0,0,1,1.03662,1.0625l.40527,3.22559a1.06989,1.06989,0,0,1-1.062,1.0957h-6.70215v.457c0,.54883-.40576.96191-.896,1.40625l-.07129.06445Z" fill="#4d4d4d"/><path d="M167.55211,171.96487a.81709.81709,0,0,1,.1817.02054l115.87175,26.40424a.81427.81427,0,0,1,.61288.97485l-.72372,3.175a.81332.81332,0,0,1-.97467.61288l-4.943-1.12646L258.9877,203.126l20.47418,7.09167,5.88327.59631a.81658.81658,0,0,1,.81412.81418l.40711,3.25663a.81658.81658,0,0,1-.81412.8142h-6.952v.70682c0,.44965-.36447.81418-.81412,1.22135H266.22327c-.44965-.40717-.81418-.7717-.81418-1.22135V215.699H181.6743v.70682c0,.44965-.36453.81418-.81418,1.22135H169.90587c-.44965-.40717-.81413-.7717-.81413-1.22135V215.699h-5.057a.8166.8166,0,0,1-.81419-.8142l.81419-15.46906a.8166.8166,0,0,1,.81417-.81418l.59845-.05179,60.98135-.5245-52.57219-19.63465-7.20825-1.64248a.81432.81432,0,0,1-.6129-.97486l.72372-3.175a.81439.81439,0,0,1,.793-.63334m0-.5a1.30717,1.30717,0,0,0-1.28049,1.02219l-.72372,3.17508a1.31588,1.31588,0,0,0,.98916,1.57343l7.1758,1.6351,50.0103,18.67782-58.28006.50125-.63727.05365h-.00323a1.30455,1.30455,0,0,0-1.26783,1.31232l-.8135,15.44278a1.32055,1.32055,0,0,0,1.3135,1.34048h4.557v.20682a2.31144,2.31144,0,0,0,.97851,1.59195l.14285.1294h11.33977l.14287-.1294a2.31156,2.31156,0,0,0,.97856-1.59195V216.199h82.73479v.20682a2.3116,2.3116,0,0,0,.97854,1.59195l.14289.1294h12.14831l.14289-.12937a2.31144,2.31144,0,0,0,.97851-1.592V216.199h6.452a1.31566,1.31566,0,0,0,1.31412-1.3142v-.03113l-.00388-.03089-.40369-3.22934a1.31567,1.31567,0,0,0-1.28543-1.27914l-5.803-.58817-18.04287-6.24954,16.0079-.94732,4.87351,1.11059a1.32127,1.32127,0,0,0,.29272.033,1.30719,1.30719,0,0,0,1.28058-1.02231l.72369-3.17492a1.31426,1.31426,0,0,0-.98922-1.57346L167.84489,171.49792a1.31846,1.31846,0,0,0-.29278-.03305Z"/><polygon points="205.212 180.146 207.866 178.071 281.001 194.841 282.683 197.93 205.212 180.146" fill="#4d4d4d"/><path d="M207.92577,178.34152l72.90989,16.718,1.36252,2.502L205.78,180.01968l2.14582-1.67816m-.12041-.54059-.18762.14673-2.14582,1.67816-.82655.64643,1.02272.23477,76.41824,17.54178,1.08182.24832-.53085-.97479-1.36252-2.502-.10776-.19787-.2196-.05036-72.90991-16.718-.23215-.05323Z"/><polygon points="167.957 171.672 170.52 169.354 202.372 176.726 203.951 179.9 167.957 171.672" fill="#4d4d4d"/><path d="M170.59058,169.62714l31.60952,7.31518,1.29178,2.59665-35.0108-8.00391,2.1095-1.90792m-.1417-.546-.19369.1752-2.1095,1.90793-.71228.64422.93623.214,35.01081,8.00391,1.02945.23535-.47036-.9455-1.29177-2.59665-.10509-.21121-.22984-.05319L170.70331,169.14l-.25443-.05889Z"/><path d="M180.8601,213.55629H169.90587a.81417.81417,0,0,0-.81417.81416v2.03541c0,.44965.36452.81417.81417,1.22125H180.8601c.44965-.40708.81417-.7716.81417-1.22125v-2.03541A.81417.81417,0,0,0,180.8601,213.55629Z"/><path d="M277.98608,213.55629H266.22325a.81417.81417,0,0,0-.81417.81416v2.03541c0,.44965.36452.81417.81417,1.22125h11.76283c.44965-.40708.81417-.7716.81417-1.22125v-2.03541A.81417.81417,0,0,0,277.98608,213.55629Z"/><polygon points="243.829 197.876 165.447 198.55 284.399 211.928 243.829 197.876"/><polygon points="279.331 201.922 170.398 177.099 242.672 204.092 279.331 201.922" fill="#333" stroke="#666" stroke-miterlimit="10" stroke-width="0.3"/><rect x="222.68452" y="127.33367" width="4.88478" height="120.47044" rx="0.81416" ry="0.81416" transform="translate(-7.77247 365.3949) rotate(-77.16291)" stroke="#666" stroke-miterlimit="10" stroke-width="0.3"/><circle cx="243.01486" cy="199.91093" r="2.44249" stroke="#666" stroke-miterlimit="10" stroke-width="0.5"/><path d="M285.75221,215.699H164.03475a.81656.81656,0,0,1-.81416-.81417l.81416-15.46911a.81656.81656,0,0,1,.81417-.81416L285.34513,210.814a.81656.81656,0,0,1,.81416.81417l.40708,3.25665A.81656.81656,0,0,1,285.75221,215.699Z" fill="#333" stroke="#666" stroke-miterlimit="10" stroke-width="0.3"/><polygon points="205.78 180.02 207.926 178.342 280.836 195.06 282.198 197.562 205.78 180.02" fill="#333"/><polygon points="168.481 171.535 170.591 169.627 202.2 176.942 203.492 179.539 168.481 171.535" fill="#333"/><circle cx="214.92621" cy="206.42424" r="4.4779" fill="#666" stroke="#b3b3b3" stroke-miterlimit="10" stroke-width="0.2"/><path d="M266.127,279.5957l-.07177-.06445c-.49024-.44434-.896-.85645-.896-1.40723v-.457H181.92432v.457c0,.54981-.40577.96289-.896,1.40723l-.07129.06445H169.80957l-.07178-.06445c-.49023-.44434-.896-.85645-.896-1.40723v-.457h-4.80713a1.06559,1.06559,0,0,1-1.064-1.06445l.81446-15.48145a1.06234,1.06234,0,0,1,1.064-1.05175l.57666-.05079,59.65039-.51367L173.769,240.34277,166.59277,238.71a1.06584,1.06584,0,0,1-.80127-1.27441l.72412-3.17481a1.0584,1.0584,0,0,1,1.03711-.82812,1.0727,1.0727,0,0,1,.23633.02636l115.87207,26.4043a1.06708,1.06708,0,0,1,.80078,1.27539l-.72363,3.17481a1.05631,1.05631,0,0,1-1.03564.82714,1.08633,1.08633,0,0,1-.23828-.02636l-4.94288-1.126-17.26513,1.03027,19.2876,6.68067,5.82861.584a1.059,1.059,0,0,1,1.03662,1.06348l.40527,3.22461a1.06989,1.06989,0,0,1-1.062,1.0957h-6.70215v.457c0,.54981-.40576.96289-.896,1.40723l-.07129.06445Z" fill="#4d4d4d"/><path d="M167.55214,233.683a.81867.81867,0,0,1,.18167.02054l115.87175,26.40424a.81428.81428,0,0,1,.61288.97488l-.72372,3.17493a.81347.81347,0,0,1-.97467.61291l-4.943-1.12646-18.58933,1.1001,20.47418,7.09164,5.88327.59631a.8166.8166,0,0,1,.81412.81421l.40711,3.25659a.8166.8166,0,0,1-.81412.81421h-6.952v.70685c0,.44965-.36447.81415-.81412,1.22131H266.22327c-.44965-.40716-.81418-.77166-.81418-1.22131v-.70685H181.6743v.70685c0,.44965-.36453.81415-.81418,1.22131H169.90587c-.44965-.40716-.81413-.77166-.81413-1.22131v-.70685h-5.057a.81663.81663,0,0,1-.81419-.81421l.81419-15.46905a.8166.8166,0,0,1,.81417-.81418l.59845-.05179,60.98135-.5245L173.85655,240.1087l-7.20825-1.64251a.81432.81432,0,0,1-.6129-.97486l.72372-3.175a.81436.81436,0,0,1,.793-.63333m0-.5a1.30716,1.30716,0,0,0-1.2805,1.02219l-.72372,3.17508a1.31588,1.31588,0,0,0,.98916,1.57342l7.1758,1.63514,50.01028,18.67779-58.28.50128-.63725.05362h-.00324a1.30455,1.30455,0,0,0-1.26784,1.31232l-.8135,15.44275a1.32055,1.32055,0,0,0,1.3135,1.34051h4.557v.20685a2.31157,2.31157,0,0,0,.97851,1.59192l.14285.12939h11.33977l.14287-.12939a2.31156,2.31156,0,0,0,.97856-1.59192v-.20685h82.73479v.20685a2.31161,2.31161,0,0,0,.97854,1.59192l.14289.12939h12.14831l.14289-.12939a2.31131,2.31131,0,0,0,.97851-1.59192v-.20685h6.452a1.31564,1.31564,0,0,0,1.31412-1.31421v-.03112l-.00388-.03089-.40369-3.22931a1.3157,1.3157,0,0,0-1.28543-1.27917l-5.803-.58817-18.04287-6.24951,16.0079-.94733,4.87351,1.1106a1.3133,1.3133,0,0,0,1.5733-.98929l.72369-3.17492a1.31576,1.31576,0,0,0-.98922-1.57349L167.84489,233.216a1.321,1.321,0,0,0-.29277-.03305Z"/><polygon points="205.212 241.863 207.866 239.789 281.001 256.559 282.683 259.647 205.212 241.863" fill="#4d4d4d"/><path d="M207.92577,240.0596l72.90989,16.718,1.36252,2.502L205.78,241.73776l2.14582-1.67816m-.12041-.54059-.18762.14673-2.14582,1.67816-.82655.64643,1.02272.23477,76.41824,17.54178,1.08182.24832-.53085-.97479-1.36252-2.502-.10776-.19787-.2196-.05036-72.90991-16.718-.23215-.05323Z"/><polygon points="167.957 233.39 170.52 231.072 202.372 238.443 203.951 241.618 167.957 233.39" fill="#4d4d4d"/><path d="M170.59058,231.34521l31.60952,7.31519,1.29178,2.59665-35.0108-8.00391,2.1095-1.90793m-.1417-.546-.19369.17521-2.1095,1.90792-.71228.64423.93623.214,35.01081,8.00391,1.02945.23535-.47036-.9455-1.29177-2.59665-.10509-.21121-.22984-.05319-31.60953-7.31519-.25443-.0589Z"/><path d="M180.8601,275.27437H169.90587a.81417.81417,0,0,0-.81417.81417V278.124c0,.44965.36452.81416.81417,1.22124H180.8601c.44965-.40708.81417-.77159.81417-1.22124v-2.03541A.81417.81417,0,0,0,180.8601,275.27437Z"/><path d="M277.98608,275.27437H266.22325a.81417.81417,0,0,0-.81417.81417V278.124c0,.44965.36452.81416.81417,1.22124h11.76283c.44965-.40708.81417-.77159.81417-1.22124v-2.03541A.81417.81417,0,0,0,277.98608,275.27437Z"/><polygon points="243.829 259.594 165.447 260.268 284.399 273.646 243.829 259.594"/><polygon points="279.331 263.64 170.398 238.817 242.672 265.81 279.331 263.64" fill="#333" stroke="#666" stroke-miterlimit="10" stroke-width="0.3"/><rect x="222.68452" y="189.05175" width="4.88478" height="120.47044" rx="0.81416" ry="0.81416" transform="translate(-67.94796 413.40048) rotate(-77.16291)" stroke="#666" stroke-miterlimit="10" stroke-width="0.3"/><circle cx="243.01486" cy="261.62901" r="2.44249" stroke="#666" stroke-miterlimit="10" stroke-width="0.5"/><path d="M285.75221,277.4171H164.03475a.81655.81655,0,0,1-.81416-.81416l.81416-15.46911a.81657.81657,0,0,1,.81417-.81417l120.49621,12.21246a.81655.81655,0,0,1,.81416.81416l.40708,3.25666A.81655.81655,0,0,1,285.75221,277.4171Z" fill="#333" stroke="#666" stroke-miterlimit="10" stroke-width="0.3"/><polygon points="205.78 241.738 207.926 240.06 280.836 256.778 282.198 259.28 205.78 241.738" fill="#333"/><polygon points="168.481 233.253 170.591 231.345 202.2 238.66 203.492 241.257 168.481 233.253" fill="#333"/><circle cx="214.92621" cy="268.14232" r="4.4779" fill="#666" stroke="#b3b3b3" stroke-miterlimit="10" stroke-width="0.2"/><circle cx="34.73392" cy="63.20913" r="10.5" fill="#1a1a1a" stroke="#000" stroke-miterlimit="10" stroke-width="0.5"/><path d="M39.89987,55.20406l4.29991,7.4476a1,1,0,0,1,0,1l-4.29991,7.44759a1,1,0,0,1-.866.5H30.434a1,1,0,0,1-.866-.5l-4.29992-7.44759a1,1,0,0,1,0-1L29.568,55.20407a1,1,0,0,1,.866-.5h8.59986A1,1,0,0,1,39.89987,55.20406Z" fill="#333" stroke="#4d4d4d" stroke-miterlimit="10" stroke-width="0.5"/><circle cx="34.73392" cy="63.20913" r="6.125" stroke="#4d4d4d" stroke-miterlimit="10" stroke-width="0.5"/><circle cx="68.44917" cy="63.20913" r="10.5" fill="#1a1a1a" stroke="#000" stroke-miterlimit="10" stroke-width="0.5"/><path d="M73.61512,55.20406l4.29991,7.4476a1,1,0,0,1,0,1l-4.29991,7.44759a1,1,0,0,1-.866.5H64.14924a1,1,0,0,1-.866-.5L58.9833,63.65169a1,1,0,0,1,0-1l4.29992-7.44759a1,1,0,0,1,.866-.5H72.7491A1,1,0,0,1,73.61512,55.20406Z" fill="#333" stroke="#4d4d4d" stroke-miterlimit="10" stroke-width="0.5"/><circle cx="68.44917" cy="63.20913" r="6.125" stroke="#4d4d4d" stroke-miterlimit="10" stroke-width="0.5"/><circle cx="101.71847" cy="63.20913" r="11" fill="#1a1a1a" stroke="#000" stroke-miterlimit="10" stroke-width="0.5"/><path d="M107.11667,54.79906l4.53217,7.84987a1,1,0,0,1,0,1l-4.53217,7.84986a1,1,0,0,1-.866.5H97.18629a1,1,0,0,1-.866-.5L91.7881,63.649a1,1,0,0,1,0-1l4.53217-7.84987a1,1,0,0,1,.866-.5h9.06436A1,1,0,0,1,107.11667,54.79906Z" fill="#333" stroke="#4d4d4d" stroke-miterlimit="10" stroke-width="0.5"/><circle cx="101.71847" cy="63.20913" r="6.41667" stroke="#4d4d4d" stroke-miterlimit="10" stroke-width="0.5"/><circle cx="134.98777" cy="63.20913" r="10.5" fill="#1a1a1a" stroke="#000" stroke-miterlimit="10" stroke-width="0.5"/><path d="M140.15372,55.20406l4.29992,7.4476a1,1,0,0,1,0,1l-4.29992,7.44759a1,1,0,0,1-.866.5h-8.59985a1,1,0,0,1-.866-.5l-4.29991-7.44759a1,1,0,0,1,0-1l4.29991-7.44759a1,1,0,0,1,.866-.5h8.59987A1,1,0,0,1,140.15372,55.20406Z" fill="#333" stroke="#4d4d4d" stroke-miterlimit="10" stroke-width="0.5"/><circle cx="134.98777" cy="63.20913" r="6.125" stroke="#4d4d4d" stroke-miterlimit="10" stroke-width="0.5"/><path d="M40.52679,125.49591l-1.576-.50146v-3.51709H37.54523v-11.291a.98742.98742,0,0,0-.85187-.97009v-1.76367a.98738.98738,0,0,0,.85187-.9701v-3.62213a.98738.98738,0,0,0-.85187-.97009V99.23993a.98738.98738,0,0,0,.85187-.97009v-.94745l-1.12445-1.27515,1.40557-3.24292-2.6762-3.759a.56225.56225,0,0,0-.832,0l-2.67615,3.759,1.40552,3.24292L31.923,97.32239v.94745a.98738.98738,0,0,0,.85187.97009v2.65033a.98738.98738,0,0,0-.85187.97009v3.62213a.98738.98738,0,0,0,.85187.9701v1.76367a.98747.98747,0,0,0-.85187.97009v11.291H30.51752v3.51715l-1.576.5014a.5623.5623,0,0,0-.39179.53577v39.71356c0,.621,1.12445,1.12445,1.12445,1.12445l1.96778.75476h6.18438l1.96772-.75476s1.12445-.50342,1.12445-1.12445V126.03168A.56232.56232,0,0,0,40.52679,125.49591Z" fill="#4d4d4d" stroke="#4d4d4d" stroke-miterlimit="10"/><rect x="32.77493" y="98.88743" width="3.91843" height="19.48757" fill="#333"/><polygon points="36.421 96.047 37.545 97.322 34.734 97.322 31.923 97.322 33.047 96.047 36.421 96.047" fill="#999"/><polygon points="37.826 92.804 36.421 96.047 33.047 96.047 31.642 92.804 37.826 92.804" fill="#666"/><path d="M31.642,92.80436l2.67618-3.759a.5622.5622,0,0,1,.832,0l2.67618,3.759Z" fill="#f2f2f2"/><path d="M32.92306,109.18637h3.62216a1,1,0,0,1,1,1v27.6558a0,0,0,0,1,0,0H31.92306a0,0,0,0,1,0,0v-27.6558A1,1,0,0,1,32.92306,109.18637Z" fill="#f2f2f2"/><rect x="31.92306" y="101.86034" width="5.62216" height="5.62216" rx="1" ry="1" fill="#f2f2f2"/><path d="M31.92306,97.3224h5.62216a0,0,0,0,1,0,0v.94745a1,1,0,0,1-1,1H32.92306a1,1,0,0,1-1-1V97.3224A0,0,0,0,1,31.92306,97.3224Z" fill="#f2f2f2"/><rect x="30.26758" y="121.22754" width="8.93311" height="43.28906" fill="#1a1a1a"/><path d="M38.95076,121.47739v42.78894H30.51752V121.47739h8.43324m.5-.5H30.01752v43.78894h9.43324V120.97739Z" fill="#4d4d4d"/><path d="M31.64209,167.874l-2.05713-.7705c-.14307-.06348-1.28516-.59766-1.28516-1.3584V126.03174a.809.809,0,0,1,.56592-.77393l2.70069-.85937,3.15673-.15186,3.11426.14063,2.76514.8706a.809.809,0,0,1,.56592.77393v39.71338c0,.76074-1.14209,1.29492-1.27246,1.35351l-2.02344.77539Z" fill="#333"/><path d="M34.73414,124.49615l3.09219.14057,2.70044.85922a.56224.56224,0,0,1,.39175.53577v39.71353c0,.621-1.12444,1.12445-1.12444,1.12445l-1.96775.75476H31.642l-1.96775-.75476s-1.12444-.50342-1.12444-1.12445V126.03171a.56226.56226,0,0,1,.39175-.53577l2.70044-.85922,3.09219-.14057m0-.50051-.02271.001-3.09219.14057-.066.003-.06293.02-2.70044.85922a1.0586,1.0586,0,0,0-.74015,1.01224v39.71353c0,.89944,1.183,1.47464,1.42013,1.58081l1.993.76523.08646.03317h6.36958l.08646-.03317,1.96775-.75473c.2624-.11667,1.44538-.69187,1.44538-1.59131V126.03171a1.05852,1.05852,0,0,0-.74012-1.01221l-2.70047-.85925-.06293-.02-.066-.003-3.09219-.14057-.02271-.001Z" fill="#4d4d4d"/><path d="M37.82633,124.63672l2.70044.85923a.56222.56222,0,0,1,.39175.53575v39.71355c0,.621-1.12443,1.12443-1.12443,1.12443l-1.96776.75478Z"/><path d="M31.642,124.63672l-2.70044.85923a.56222.56222,0,0,0-.39175.53575v39.71355c0,.621,1.12443,1.12443,1.12443,1.12443l1.96776.75478Z" fill="#666"/><path d="M107.52679,125.49591l-1.57605-.50146v-3.51709h-1.40551v-11.291a.98742.98742,0,0,0-.85187-.97009v-1.76367a.98738.98738,0,0,0,.85187-.9701v-3.62213a.98738.98738,0,0,0-.85187-.97009V99.23993a.98738.98738,0,0,0,.85187-.97009v-.94745l-1.12445-1.27515,1.40557-3.24292-2.6762-3.759a.56225.56225,0,0,0-.832,0l-2.67615,3.759,1.40552,3.24292L98.923,97.32239v.94745a.98738.98738,0,0,0,.85187.97009v2.65033a.98738.98738,0,0,0-.85187.97009v3.62213a.98738.98738,0,0,0,.85187.9701v1.76367a.98747.98747,0,0,0-.85187.97009v11.291H97.51752v3.51715l-1.576.5014a.5623.5623,0,0,0-.39179.53577v39.71356c0,.621,1.12445,1.12445,1.12445,1.12445l1.96778.75476h6.18438l1.96772-.75476s1.12445-.50342,1.12445-1.12445V126.03168A.56232.56232,0,0,0,107.52679,125.49591Z" fill="#4d4d4d" stroke="#4d4d4d" stroke-miterlimit="10"/><rect x="99.77493" y="98.88743" width="3.91843" height="19.48757" fill="#333"/><polygon points="103.421 96.047 104.545 97.322 101.734 97.322 98.923 97.322 100.047 96.047 103.421 96.047" fill="#999"/><polygon points="104.826 92.804 103.421 96.047 100.047 96.047 98.642 92.804 104.826 92.804" fill="#666"/><path d="M98.642,92.80436l2.67618-3.759a.5622.5622,0,0,1,.832,0l2.67618,3.759Z" fill="#f2f2f2"/><path d="M99.92306,109.18637h3.62216a1,1,0,0,1,1,1v27.6558a0,0,0,0,1,0,0H98.92306a0,0,0,0,1,0,0v-27.6558A1,1,0,0,1,99.92306,109.18637Z" fill="#f2f2f2"/><rect x="98.92306" y="101.86034" width="5.62216" height="5.62216" rx="1" ry="1" fill="#f2f2f2"/><path d="M98.92306,97.3224h5.62216a0,0,0,0,1,0,0v.94745a1,1,0,0,1-1,1H99.92306a1,1,0,0,1-1-1V97.3224A0,0,0,0,1,98.92306,97.3224Z" fill="#f2f2f2"/><rect x="97.26758" y="121.22754" width="8.93311" height="43.28906" fill="#1a1a1a"/><path d="M105.95076,121.47739v42.78894H97.51752V121.47739h8.43324m.5-.5H97.01752v43.78894h9.43324V120.97739Z" fill="#4d4d4d"/><path d="M98.64209,167.874l-2.05713-.7705c-.14307-.06348-1.28516-.59766-1.28516-1.3584V126.03174a.809.809,0,0,1,.56592-.77393l2.70069-.85937,3.15673-.15186,3.11426.14063,2.76514.8706a.809.809,0,0,1,.56592.77393v39.71338c0,.76074-1.14209,1.29492-1.27246,1.35351l-2.02344.77539Z" fill="#333"/><path d="M101.73414,124.49615l3.09219.14057,2.70044.85922a.56224.56224,0,0,1,.39175.53577v39.71353c0,.621-1.12444,1.12445-1.12444,1.12445l-1.96775.75476H98.642l-1.96775-.75476s-1.12444-.50342-1.12444-1.12445V126.03171a.56226.56226,0,0,1,.39175-.53577l2.70044-.85922,3.09219-.14057m0-.50051-.02271.001-3.09219.14057-.066.003-.06293.02-2.70044.85922a1.0586,1.0586,0,0,0-.74015,1.01224v39.71353c0,.89944,1.183,1.47464,1.42013,1.58081l1.993.76523.08646.03317h6.36958l.08646-.03317,1.96775-.75473c.2624-.11667,1.44538-.69187,1.44538-1.59131V126.03171a1.05852,1.05852,0,0,0-.74012-1.01221l-2.70047-.85925-.06293-.02-.066-.003-3.09219-.14057-.02271-.001Z" fill="#4d4d4d"/><path d="M104.82633,124.63672l2.70044.85923a.56222.56222,0,0,1,.39175.53575v39.71355c0,.621-1.12443,1.12443-1.12443,1.12443l-1.96776.75478Z"/><path d="M98.642,124.63672l-2.70044.85923a.56222.56222,0,0,0-.39175.53575v39.71355c0,.621,1.12443,1.12443,1.12443,1.12443l1.96776.75478Z" fill="#666"/><path d="M140.52679,125.49591l-1.57605-.50146v-3.51709h-1.40551v-11.291a.98742.98742,0,0,0-.85187-.97009v-1.76367a.98738.98738,0,0,0,.85187-.9701v-3.62213a.98738.98738,0,0,0-.85187-.97009V99.23993a.98738.98738,0,0,0,.85187-.97009v-.94745l-1.12445-1.27515,1.40557-3.24292-2.6762-3.759a.56225.56225,0,0,0-.832,0l-2.67615,3.759,1.40552,3.24292L131.923,97.32239v.94745a.98738.98738,0,0,0,.85187.97009v2.65033a.98738.98738,0,0,0-.85187.97009v3.62213a.98738.98738,0,0,0,.85187.9701v1.76367a.98747.98747,0,0,0-.85187.97009v11.291h-1.40551v3.51715l-1.576.5014a.5623.5623,0,0,0-.39179.53577v39.71356c0,.621,1.12445,1.12445,1.12445,1.12445l1.96778.75476h6.18438l1.96772-.75476s1.12445-.50342,1.12445-1.12445V126.03168A.56232.56232,0,0,0,140.52679,125.49591Z" fill="#4d4d4d" stroke="#4d4d4d" stroke-miterlimit="10"/><rect x="132.77493" y="98.88743" width="3.91843" height="19.48757" fill="#333"/><polygon points="136.421 96.047 137.545 97.322 134.734 97.322 131.923 97.322 133.047 96.047 136.421 96.047" fill="#999"/><polygon points="137.826 92.804 136.421 96.047 133.047 96.047 131.642 92.804 137.826 92.804" fill="#666"/><path d="M131.642,92.80436l2.67618-3.759a.5622.5622,0,0,1,.832,0l2.67618,3.759Z" fill="#f2f2f2"/><path d="M132.92306,109.18637h3.62216a1,1,0,0,1,1,1v27.6558a0,0,0,0,1,0,0h-5.62216a0,0,0,0,1,0,0v-27.6558A1,1,0,0,1,132.92306,109.18637Z" fill="#f2f2f2"/><rect x="131.92306" y="101.86034" width="5.62216" height="5.62216" rx="1" ry="1" fill="#f2f2f2"/><path d="M131.92306,97.3224h5.62216a0,0,0,0,1,0,0v.94745a1,1,0,0,1-1,1h-3.62216a1,1,0,0,1-1-1V97.3224A0,0,0,0,1,131.92306,97.3224Z" fill="#f2f2f2"/><rect x="130.26758" y="121.22754" width="8.93311" height="43.28906" fill="#1a1a1a"/><path d="M138.95076,121.47739v42.78894h-8.43324V121.47739h8.43324m.5-.5h-9.43324v43.78894h9.43324V120.97739Z" fill="#4d4d4d"/><path d="M131.64209,167.874l-2.05713-.7705c-.14307-.06348-1.28516-.59766-1.28516-1.3584V126.03174a.809.809,0,0,1,.56592-.77393l2.70069-.85937,3.15673-.15186,3.11426.14063,2.76514.8706a.809.809,0,0,1,.56592.77393v39.71338c0,.76074-1.14209,1.29492-1.27246,1.35351l-2.02344.77539Z" fill="#333"/><path d="M134.73414,124.49615l3.09219.14057,2.70044.85922a.56224.56224,0,0,1,.39175.53577v39.71353c0,.621-1.12444,1.12445-1.12444,1.12445l-1.96775.75476H131.642l-1.96775-.75476s-1.12444-.50342-1.12444-1.12445V126.03171a.56226.56226,0,0,1,.39175-.53577l2.70044-.85922,3.09219-.14057m0-.50051-.02271.001-3.09219.14057-.066.003-.06293.02-2.70044.85922a1.0586,1.0586,0,0,0-.74015,1.01224v39.71353c0,.89944,1.183,1.47464,1.42013,1.58081l1.993.76523.08646.03317h6.36958l.08646-.03317,1.96775-.75473c.2624-.11667,1.44538-.69187,1.44538-1.59131V126.03171a1.05852,1.05852,0,0,0-.74012-1.01221l-2.70047-.85925-.06293-.02-.066-.003-3.09219-.14057-.02271-.001Z" fill="#4d4d4d"/><path d="M137.82633,124.63672l2.70044.85923a.56222.56222,0,0,1,.39175.53575v39.71355c0,.621-1.12443,1.12443-1.12443,1.12443l-1.96776.75478Z"/><path d="M131.642,124.63672l-2.70044.85923a.56222.56222,0,0,0-.39175.53575v39.71355c0,.621,1.12443,1.12443,1.12443,1.12443l1.96776.75478Z" fill="#666"/><path d="M82.69092,346.88672H207.5625a2.15039,2.15039,0,0,1,2.15039,2.15039v6.272a2.1499,2.1499,0,0,1-2.1499,2.1499H82.69141a2.15039,2.15039,0,0,1-2.15039-2.15039v-6.272A2.1499,2.1499,0,0,1,82.69092,346.88672Z"/><path d="M207.56311,347.03687a2.00586,2.00586,0,0,1,2,2v6.27166a2.00586,2.00586,0,0,1-2,2H82.6907a2.00586,2.00586,0,0,1-2-2v-6.27166a2.00586,2.00586,0,0,1,2-2H207.56311m0-.3H82.6907a2.30258,2.30258,0,0,0-2.3,2.3v6.27166a2.30262,2.30262,0,0,0,2.3,2.3H207.56311a2.30262,2.30262,0,0,0,2.3-2.3v-6.27166a2.30258,2.30258,0,0,0-2.3-2.3Z"/><path d="M138.2876,330.56836l-.29981.01172v-1.16895l.29981-.02148v-.27832l65.52344-4.63477c.05175-.0039.10253-.00586.15332-.00586a2.152,2.152,0,0,1,2.14843,2.15039v2.60254a2.15264,2.15264,0,0,1-2.1499,2.15039l-65.67529,2.00391Z"/><path d="M203.96518,324.62134a2.00018,2.00018,0,0,1,1.99747,2.00006v2.60205a2,2,0,0,1-2,2l-65.52515,2v-2.8114l-.3.01141v-.87292l.3-.02124v-.27875l65.38409-4.62415c.04824-.00341.096-.00506.14359-.00506m0-.3c-.0546,0-.10941.00189-.16473.0058l-65.38411,4.62414-.27884.01972v.27875l-.02118.00152-.27881.01972v1.46411l.3-.01142v2.80909l.30916-.00946,65.52514-2a2.30048,2.30048,0,0,0,2.29085-2.29987V326.6214a2.30137,2.30137,0,0,0-2.29747-2.3Z"/><path d="M85.37549,347.1875l4.98-18.16016c.68017-2.48242,3.27832-4.21679,6.31738-4.21679h58.46338v22.377Z"/><path d="M154.9861,324.961v22.07587H85.57224L90.49979,329.067c.65879-2.40247,3.21982-4.106,6.17289-4.106H154.9861m.3-.3H96.67268c-3.1063,0-5.76365,1.77918-6.46221,4.3266l-4.92754,17.96991-.104.37933h70.1072V324.661Z"/><rect x="80.69071" y="347.03685" width="128.87239" height="10.27171" rx="2" ry="2" fill="#1a1a1a" stroke="#666" stroke-miterlimit="10" stroke-width="0.5"/><path d="M138.4375,333.22348l65.52517-2a2,2,0,0,0,2-2v-2.602a2,2,0,0,0-2.14109-1.995l-65.38408,4.62415Z" fill="#999"/><path d="M138.1375,330.42348,204.60938,327.9c.88474-.02941,1.05329-.32353,1.05329-.87652v-.102a2,2,0,0,0-2.14109-1.995l-65.38408,4.62415Z" fill="#e6e6e6"/><path d="M154.9861,346.41667H90.12242L94.727,330.297c.6156-2.15512,3.00876-3.68323,5.76825-3.68323H154.9861Z" fill="#333"/></svg>