<svg viewBox="0 0 646 146" xmlns="http://www.w3.org/2000/svg"><path d="m243 13.66667h27.59689" fill="none" stroke="#666"/><path d="m267.823 17.734 15.177-4.067-15.177-4.068z" fill="#666"/><path d="m343 13.66667h27.59689" fill="none" stroke="#666"/><path d="m367.823 17.734 15.177-4.067-15.177-4.068z" fill="#666"/><path d="m443 13.66667h27.59689" fill="none" stroke="#666"/><path d="m467.823 17.734 15.177-4.067-15.177-4.068z" fill="#666"/><path d="m543 13.66667h27.59686" fill="none" stroke="#666"/><path d="m567.823 17.734 15.177-4.067-15.177-4.068z" fill="#666"/><path d="m243 53.66667h27.59689" fill="none" stroke="#666"/><path d="m267.823 57.734 15.177-4.067-15.177-4.068z" fill="#666"/><path d="m243 93.66667h27.59689" fill="none" stroke="#666"/><path d="m267.823 97.734 15.177-4.067-15.177-4.068z" fill="#666"/><path d="m243 133.66667h27.59689" fill="none" stroke="#666"/><path d="m267.823 137.734 15.177-4.067-15.177-4.068z" fill="#666"/><path d="m343 93.66667h27.59689" fill="none" stroke="#666"/><path d="m367.823 97.734 15.177-4.067-15.177-4.068z" fill="#666"/><path d="m343 133.66667h27.59689" fill="none" stroke="#666"/><path d="m367.823 137.734 15.177-4.067-15.177-4.068z" fill="#666"/><path d="m443 93.66667h27.59689" fill="none" stroke="#4d4d4d"/><path d="m467.823 97.734 15.177-4.067-15.177-4.068z" fill="#4d4d4d"/><path d="m443 133.66667h27.59689" fill="none" stroke="#666"/><path d="m467.823 137.734 15.177-4.067-15.177-4.068z" fill="#666"/><path d="m543 93.66667h27.59686" fill="none" stroke="#4d4d4d"/><path d="m567.823 97.734 15.177-4.067-15.177-4.068z" fill="#4d4d4d"/><path d="m543 133.66667h27.59686" fill="none" stroke="#666"/><path d="m567.823 137.734 15.177-4.067-15.177-4.068z" fill="#666"/><path d="m343 53.66667h27.59689" fill="none" stroke="#4d4d4d"/><path d="m367.823 57.734 15.177-4.067-15.177-4.068z" fill="#4d4d4d"/><path d="m443 53.66667h27.59689" fill="none" stroke="#4d4d4d"/><path d="m467.823 57.734 15.177-4.067-15.177-4.068z" fill="#4d4d4d"/><path d="m543 53.66667h27.59686" fill="none" stroke="#4d4d4d"/><path d="m567.823 57.734 15.177-4.067-15.177-4.068z" fill="#4d4d4d"/><g fill="#ccc"><path d="m41.85254 11.11035h-1.18848v-1.11621l1.18848-.09082v-1.38574c0-1.7832.81006-2.89942 2.55664-2.89942a3.964 3.964 0 0 1 1.4585.28809l-.32422 1.13475a2.44791 2.44791 0 0 0 -.99024-.21582c-.82812 0-1.22412.57617-1.22412 1.69238v1.38576h1.85449v1.207h-1.85449v7.54398h-1.47656z"/><path d="m46.58643 7.14844a1.02884 1.02884 0 0 1 2.05224 0 1.02876 1.02876 0 0 1 -2.05224 0zm.27 2.75488h1.47657v8.751h-1.47655z"/><path d="m50.02344 9.90332h1.53076l1.65625 4.96973c.25244.86425.54053 1.74707.81055 2.57519h.07177c.252-.82812.54-1.71094.79248-2.57519l1.65625-4.96973h1.4585l-3.09668 8.751h-1.72852z"/><path d="m58.96973 14.29688c0-2.86231 1.92675-4.60938 3.92529-4.60938 2.23291 0 3.49316 1.60254 3.49316 4.10547a5.69893 5.69893 0 0 1 -.0542.8457h-5.90576a2.90262 2.90262 0 0 0 2.917 3.043 3.95535 3.95535 0 0 0 2.17872-.68359l.522.97168a5.20971 5.20971 0 0 1 -2.88086.90039c-2.34086-.00003-4.19535-1.70999-4.19535-4.57327zm6.12207-.71973c0-1.76465-.79248-2.71875-2.16065-2.71875a2.70269 2.70269 0 0 0 -2.521 2.71875z"/><path d="m71.49756 14.29688c0-2.86231 1.92676-4.60938 3.92529-4.60938 2.23242 0 3.49317 1.60254 3.49317 4.10547a5.70028 5.70028 0 0 1 -.0542.8457h-5.90577a2.90234 2.90234 0 0 0 2.917 3.043 3.95534 3.95534 0 0 0 2.17871-.68359l.522.97168a5.20971 5.20971 0 0 1 -2.88086.90039c-2.34085-.00003-4.19534-1.70999-4.19534-4.57327zm6.12207-.71973c0-1.76465-.79248-2.71875-2.16065-2.71875a2.7027 2.7027 0 0 0 -2.521 2.71875z"/><path d="m80.44336 14.29688c0-2.84473 1.80078-4.60938 3.79932-4.60938a3.603 3.603 0 0 1 2.44873 1.00879l-.07227-1.49512v-3.36617h1.49463v12.8193h-1.22461l-.126-1.02637h-.05371a3.94935 3.94935 0 0 1 -2.647 1.24219c-2.19673 0-3.61909-1.65625-3.61909-4.57324zm6.17578 2.125v-4.57325a3.04278 3.04278 0 0 0 -2.12451-.91894c-1.4043 0-2.521 1.35058-2.521 3.34961 0 2.08789.88233 3.34863 2.41309 3.34863a2.96314 2.96314 0 0 0 2.23242-1.20605z"/><path d="m90.79346 7.14844a1.02884 1.02884 0 0 1 2.05224 0 1.02876 1.02876 0 0 1 -2.05224 0zm.27 2.75488h1.47654v8.751h-1.47652z"/><path d="m95.74316 15.95312v-4.84277h-1.29638v-1.11621l1.36865-.09082.17969-2.44824h1.24267v2.44824h2.3584v1.207h-2.3584v4.86133c0 1.08008.3418 1.69238 1.3501 1.69238a3.16839 3.16839 0 0 0 .99023-.23437l.28809 1.11621a5.39688 5.39688 0 0 1 -1.62012.32422c-1.87255.00003-2.50293-1.18845-2.50293-2.91697z"/><path d="m101.30518 7.14844a1.02884 1.02884 0 0 1 2.05224 0 1.02876 1.02876 0 0 1 -2.05224 0zm.27 2.75488h1.47656v8.751h-1.47654z"/><path d="m106.00293 9.90332h1.22412l.126 1.26074h.0542a4.12517 4.12517 0 0 1 2.93506-1.47656c1.83642 0 2.66455 1.18848 2.66455 3.4209v5.5459h-1.47657v-5.34766c0-1.63867-.5039-2.34082-1.65625-2.34082-.90039 0-1.51269.46875-2.39453 1.35059v6.33789h-1.47656z"/><path d="m115.18262 20.3291a2.52634 2.52634 0 0 1 1.27832-1.98047v-.07226a1.61673 1.61673 0 0 1 -.77393-1.42285 2.048 2.048 0 0 1 .9541-1.62012v-.07227a3.08869 3.08869 0 0 1 2.16065-5.47363 3.49709 3.49709 0 0 1 1.24267.21582h3.04248v1.13477h-1.80029a2.53869 2.53869 0 0 1 .72022 1.80078 3.00328 3.00328 0 0 1 -3.20508 3.043 3.0566 3.0566 0 0 1 -1.31446-.30664 1.3285 1.3285 0 0 0 -.5581 1.04492c0 .55761.36035.9541 1.54834.9541h1.69287c2.03467 0 3.061.62988 3.061 2.08887 0 1.62011-1.71094 3.02441-4.42969 3.02441-2.14254-.00003-3.6191-.84671-3.6191-2.35843zm6.6084-.45019c0-.81055-.63038-1.08106-1.76465-1.08106h-1.5127a4.24755 4.24755 0 0 1 -1.13428-.14355 1.84372 1.84372 0 0 0 -.90039 1.47656c0 .93652.95459 1.53027 2.53907 1.53027 1.67431 0 2.77293-.86425 2.77293-1.78222zm-1.13477-7.07618a1.86251 1.86251 0 1 0 -3.709 0 1.86764 1.86764 0 1 0 3.709 0z"/><path d="m127.54883 17.66406.73779-.99023a3.93533 3.93533 0 0 0 2.57471 1.04394c1.15234 0 1.72851-.6123 1.72851-1.36816 0-.90039-1.04394-1.2959-1.99853-1.65625-1.24219-.4502-2.61084-1.04492-2.61084-2.52051 0-1.40527 1.1167-2.48535 3.00732-2.48535a4.36938 4.36938 0 0 1 2.71875.99023l-.70215.93653a3.25 3.25 0 0 0 -1.99853-.77442c-1.09863 0-1.60254.59473-1.60254 1.26075 0 .82812.9541 1.13379 1.94434 1.51171 1.26025.46875 2.665.99122 2.665 2.64747 0 1.42187-1.13477 2.61035-3.20508 2.61035a5.26453 5.26453 0 0 1 -3.25875-1.20606z"/><path d="m135.95508 15.95312v-4.84277h-1.29639v-1.11621l1.36865-.09082.17969-2.44824h1.24268v2.44824h2.3584v1.207h-2.3584v4.86133c0 1.08008.34179 1.69238 1.35009 1.69238a3.16845 3.16845 0 0 0 .99024-.23437l.28808 1.11621a5.39675 5.39675 0 0 1 -1.62011.32422c-1.87256.00003-2.50293-1.18845-2.50293-2.91697z"/><path d="m140.88672 14.29688c0-2.86231 1.92676-4.60938 3.92529-4.60938 2.23291 0 3.49317 1.60254 3.49317 4.10547a5.70028 5.70028 0 0 1 -.0542.8457h-5.90577a2.90262 2.90262 0 0 0 2.917 3.043 3.95534 3.95534 0 0 0 2.17871-.68359l.522.97168a5.20971 5.20971 0 0 1 -2.88086.90039c-2.34085-.00003-4.19534-1.70999-4.19534-4.57327zm6.12207-.71973c0-1.76465-.79248-2.71875-2.16065-2.71875a2.7027 2.7027 0 0 0 -2.521 2.71875z"/><path d="m150.46289 9.90332h1.22411l.126 1.00879h.0542a4.52931 4.52931 0 0 1 2.791-1.22461c2.25049 0 3.457 1.74707 3.457 4.46582 0 2.9707-1.78271 4.7168-3.78125 4.7168a4.0567 4.0567 0 0 1 -2.43066-1.00782l.03613 1.53028v2.95312h-1.47656zm6.12158 4.25c0-1.92676-.648-3.22363-2.30468-3.22363a3.68492 3.68492 0 0 0 -2.34034 1.18847v4.59184a3.463 3.463 0 0 0 2.14258.918c1.44043-.00007 2.50244-1.31452 2.50244-3.47468z"/><path d="m159.48047 17.66406.73779-.99023a3.93533 3.93533 0 0 0 2.57471 1.04394c1.15234 0 1.72851-.6123 1.72851-1.36816 0-.90039-1.04394-1.2959-1.99853-1.65625-1.24219-.4502-2.61084-1.04492-2.61084-2.52051 0-1.40527 1.1167-2.48535 3.00732-2.48535a4.36938 4.36938 0 0 1 2.71875.99023l-.70214.93653a3.25007 3.25007 0 0 0 -1.99854-.77442c-1.09863 0-1.60254.59473-1.60254 1.26075 0 .82812.9541 1.13379 1.94434 1.51171 1.26025.46875 2.665.99122 2.665 2.64747 0 1.42187-1.13477 2.61035-3.20508 2.61035a5.26453 5.26453 0 0 1 -3.25875-1.20606z"/><path d="m167.68848 11.25391a1.07414 1.07414 0 1 1 2.14257 0 1.07219 1.07219 0 1 1 -2.14257 0zm0 6.5a1.07414 1.07414 0 1 1 2.14257 0 1.07219 1.07219 0 1 1 -2.14257 0z"/><path d="m42.01465 55.44922v-5.5459h1.49414v5.34768c0 1.63867.48633 2.34082 1.63867 2.34082.90039 0 1.53027-.4502 2.3584-1.47657v-6.21193h1.47656v8.751h-1.22412l-.126-1.36817h-.0542a3.69827 3.69827 0 0 1 -2.88085 1.584c-1.85448-.00003-2.6826-1.18851-2.6826-3.42093z"/><path d="m51.93262 49.90332h1.22412l.126 1.26074h.0542a4.1252 4.1252 0 0 1 2.93506-1.47656c1.83643 0 2.66455 1.18848 2.66455 3.4209v5.5459h-1.47655v-5.34766c0-1.63867-.50391-2.34082-1.65625-2.34082-.90039 0-1.51269.46875-2.39453 1.35059v6.33789h-1.4766z"/><path d="m61.148 54.29688c0-2.84473 1.80078-4.60938 3.79932-4.60938a3.603 3.603 0 0 1 2.44868 1.00879l-.07227-1.49512v-3.36617h1.49463v12.8193h-1.22461l-.126-1.02637h-.05371a3.94935 3.94935 0 0 1 -2.647 1.24219c-2.19673 0-3.61904-1.65625-3.61904-4.57324zm6.17578 2.125v-4.57325a3.04278 3.04278 0 0 0 -2.12451-.91894c-1.4043 0-2.52051 1.35058-2.52051 3.34961 0 2.08789.88184 3.34863 2.4126 3.34863a2.96314 2.96314 0 0 0 2.23237-1.20605z"/><path d="m71.11963 54.29688c0-2.93458 1.90869-4.60938 4.05127-4.60938s4.05127 1.6748 4.05127 4.60938c0 2.89941-1.90869 4.57324-4.05127 4.57324s-4.05127-1.67383-4.05127-4.57324zm6.57226 0c0-2.01661-1.0083-3.38477-2.521-3.38477-1.49414 0-2.52051 1.36816-2.52051 3.38477 0 1.999 1.02637 3.34863 2.52051 3.34863 1.5127 0 2.521-1.34961 2.521-3.34863z"/><path d="m85.376 55.95312v-4.84277h-1.29641v-1.11621l1.36865-.09082.17969-2.44824h1.24268v2.44824h2.35839v1.207h-2.35839v4.86133c0 1.08008.34179 1.69238 1.35009 1.69238a3.16845 3.16845 0 0 0 .99024-.23437l.28806 1.11624a5.39681 5.39681 0 0 1 -1.62011.32422c-1.87254 0-2.50289-1.18848-2.50289-2.917z"/><path d="m91.208 45.835h1.47656v3.49219l-.0542 1.80078a4.18413 4.18413 0 0 1 2.917-1.44043c1.83643 0 2.66455 1.18848 2.66455 3.4209v5.5459h-1.47656v-5.3477c0-1.63867-.5039-2.34082-1.65625-2.34082-.90039 0-1.51269.46875-2.39453 1.35059v6.33789h-1.47657z"/><path d="m101 49.90332h1.22412l.126 1.585h.0542a2.99317 2.99317 0 0 1 2.48486-1.80078 2.1595 2.1595 0 0 1 .936.18066l-.28809 1.2959a2.45245 2.45245 0 0 0 -.84619-.14355c-.73828 0-1.62061.54-2.21436 2.01562v5.61813h-1.47654z"/><path d="m106.41748 54.29688c0-2.86231 1.92676-4.60938 3.92529-4.60938 2.23243 0 3.49317 1.60254 3.49317 4.10547a5.70028 5.70028 0 0 1 -.0542.8457h-5.90574a2.90233 2.90233 0 0 0 2.917 3.043 3.95534 3.95534 0 0 0 2.17871-.68359l.522.97168a5.20971 5.20971 0 0 1 -2.88086.90039c-2.34085-.00003-4.19537-1.70999-4.19537-4.57327zm6.12207-.71973c0-1.76465-.79248-2.71875-2.16064-2.71875a2.70271 2.70271 0 0 0 -2.521 2.71875z"/><path d="m115.34521 54.29688c0-2.86231 1.92676-4.60938 3.9253-4.60938 2.23242 0 3.49316 1.60254 3.49316 4.10547a5.69893 5.69893 0 0 1 -.0542.8457h-5.90576a2.90233 2.90233 0 0 0 2.917 3.043 3.95529 3.95529 0 0 0 2.17871-.68359l.522.97168a5.20973 5.20973 0 0 1 -2.88086.90039c-2.34085-.00003-4.19535-1.70999-4.19535-4.57327zm6.12208-.71973c0-1.76465-.79249-2.71875-2.16065-2.71875a2.70271 2.70271 0 0 0 -2.521 2.71875z"/><path d="m127.54883 57.66406.73779-.99023a3.93533 3.93533 0 0 0 2.57471 1.04394c1.15234 0 1.72851-.6123 1.72851-1.36816 0-.90039-1.04394-1.2959-1.99853-1.65625-1.24219-.4502-2.61084-1.04492-2.61084-2.52051 0-1.40527 1.1167-2.48535 3.00732-2.48535a4.36938 4.36938 0 0 1 2.71875.99023l-.70215.93653a3.25 3.25 0 0 0 -1.99853-.77442c-1.09863 0-1.60254.59473-1.60254 1.26075 0 .82812.9541 1.13379 1.94434 1.51171 1.26025.46875 2.665.99122 2.665 2.64747 0 1.42187-1.13477 2.61035-3.20508 2.61035a5.26453 5.26453 0 0 1 -3.25875-1.20606z"/><path d="m135.95508 55.95312v-4.84277h-1.29639v-1.11621l1.36865-.09082.17969-2.44824h1.24268v2.44824h2.3584v1.207h-2.3584v4.86133c0 1.08008.34179 1.69238 1.35009 1.69238a3.16845 3.16845 0 0 0 .99024-.23437l.28808 1.11621a5.39675 5.39675 0 0 1 -1.62011.32422c-1.87256.00003-2.50293-1.18845-2.50293-2.91697z"/><path d="m140.88672 54.29688c0-2.86231 1.92676-4.60938 3.92529-4.60938 2.23291 0 3.49317 1.60254 3.49317 4.10547a5.70028 5.70028 0 0 1 -.0542.8457h-5.90577a2.90262 2.90262 0 0 0 2.917 3.043 3.95534 3.95534 0 0 0 2.17871-.68359l.522.97168a5.20971 5.20971 0 0 1 -2.88086.90039c-2.34085-.00003-4.19534-1.70999-4.19534-4.57327zm6.12207-.71973c0-1.76465-.79248-2.71875-2.16065-2.71875a2.7027 2.7027 0 0 0 -2.521 2.71875z"/><path d="m150.46289 49.90332h1.22411l.126 1.00879h.0542a4.52931 4.52931 0 0 1 2.791-1.22461c2.25049 0 3.457 1.74707 3.457 4.46582 0 2.9707-1.78271 4.7168-3.78125 4.7168a4.0567 4.0567 0 0 1 -2.43066-1.00782l.03613 1.53028v2.95312h-1.47656zm6.12158 4.25c0-1.92676-.648-3.22363-2.30468-3.22363a3.68492 3.68492 0 0 0 -2.34034 1.18847v4.59184a3.463 3.463 0 0 0 2.14258.918c1.44043-.00007 2.50244-1.31452 2.50244-3.47468z"/><path d="m159.48047 57.66406.73828-.99023a3.93558 3.93558 0 0 0 2.5752 1.04394c1.15234 0 1.72851-.6123 1.72851-1.36816 0-.90039-1.04443-1.2959-1.999-1.65625-1.24219-.4502-2.61035-1.04492-2.61035-2.52051 0-1.40527 1.11621-2.48535 3.00683-2.48535a4.36938 4.36938 0 0 1 2.71875.99023l-.70215.93653a3.25027 3.25027 0 0 0 -1.999-.77442c-1.09814 0-1.602.59473-1.602 1.26075 0 .82812.9541 1.13379 1.94434 1.51171 1.26025.46875 2.665.99122 2.665 2.64747 0 1.42187-1.13427 2.61035-3.20507 2.61035a5.26593 5.26593 0 0 1 -3.25934-1.20606z"/><path d="m167.68848 51.25391a1.07414 1.07414 0 1 1 2.14257 0 1.07219 1.07219 0 1 1 -2.14257 0zm0 6.5a1.07414 1.07414 0 1 1 2.14257 0 1.07219 1.07219 0 1 1 -2.14257 0z"/><path d="m65.59424 89.90332h1.22412l.126 1.585h.0542a2.99315 2.99315 0 0 1 2.48484-1.80082 2.15942 2.15942 0 0 1 .936.18066l-.28808 1.2959a2.45245 2.45245 0 0 0 -.84619-.14355c-.73828 0-1.62061.54-2.21485 2.01562v5.61817h-1.47604z"/><path d="m71.01172 94.29688c0-2.86231 1.92676-4.60938 3.92529-4.60938 2.23291 0 3.49317 1.60254 3.49317 4.10547a5.70028 5.70028 0 0 1 -.0542.8457h-5.90577a2.90262 2.90262 0 0 0 2.917 3.043 3.95534 3.95534 0 0 0 2.17871-.68359l.522.97168a5.20971 5.20971 0 0 1 -2.88086.90039c-2.34085-.00003-4.19534-1.70999-4.19534-4.57327zm6.12207-.71973c0-1.76465-.79248-2.71875-2.16065-2.71875a2.7027 2.7027 0 0 0 -2.521 2.71875z"/><path d="m79.95752 94.29688c0-2.84473 1.80078-4.60938 3.79932-4.60938a3.603 3.603 0 0 1 2.44873 1.00879l-.07227-1.49512v-3.36617h1.49463v12.8193h-1.22461l-.126-1.02637h-.05371a3.94935 3.94935 0 0 1 -2.647 1.24219c-2.19673 0-3.61909-1.65625-3.61909-4.57324zm6.17578 2.125v-4.57325a3.04278 3.04278 0 0 0 -2.12451-.91894c-1.4043 0-2.52051 1.35058-2.52051 3.34961 0 2.08789.88184 3.34863 2.4126 3.34863a2.96314 2.96314 0 0 0 2.23242-1.20605z"/><path d="m89.9292 94.29688c0-2.93458 1.90869-4.60938 4.05127-4.60938s4.05127 1.6748 4.05127 4.60938c0 2.89941-1.90869 4.57324-4.05127 4.57324s-4.05127-1.67383-4.05127-4.57324zm6.57226 0c0-2.01661-1.0083-3.38477-2.521-3.38477-1.49414 0-2.52051 1.36816-2.52051 3.38477 0 1.999 1.02637 3.34863 2.52051 3.34863 1.5127 0 2.521-1.34961 2.521-3.34863z"/><path d="m103.28516 94.29688c0-2.93458 1.90869-4.60938 4.05127-4.60938s4.05127 1.6748 4.05127 4.60938c0 2.89941-1.9087 4.57324-4.05127 4.57324s-4.05127-1.67383-4.05127-4.57324zm6.57226 0c0-2.01661-1.0083-3.38477-2.521-3.38477-1.49463 0-2.52051 1.36816-2.52051 3.38477 0 1.999 1.02588 3.34863 2.52051 3.34863 1.5127 0 2.521-1.34961 2.521-3.34863z"/><path d="m113.68945 89.90332h1.22412l.126 1.26074h.0542a4.1252 4.1252 0 0 1 2.93506-1.47656c1.83642 0 2.66455 1.18848 2.66455 3.4209v5.5459h-1.47658v-5.34766c0-1.63867-.50391-2.34082-1.65625-2.34082-.90039 0-1.5127.46875-2.39453 1.35059v6.33789h-1.47657z"/><path d="m122.88672 94.29688c0-2.86231 1.92676-4.60938 3.92529-4.60938 2.23291 0 3.49317 1.60254 3.49317 4.10547a5.70028 5.70028 0 0 1 -.0542.8457h-5.90577a2.90262 2.90262 0 0 0 2.917 3.043 3.95534 3.95534 0 0 0 2.17871-.68359l.522.97168a5.20971 5.20971 0 0 1 -2.88086.90039c-2.34085-.00003-4.19534-1.70999-4.19534-4.57327zm6.12207-.71973c0-1.76465-.79248-2.71875-2.16065-2.71875a2.7027 2.7027 0 0 0 -2.521 2.71875z"/><path d="m135.09082 97.66406.73779-.99023a3.93535 3.93535 0 0 0 2.57471 1.04394c1.15234 0 1.72852-.6123 1.72852-1.36816 0-.90039-1.044-1.2959-1.99854-1.65625-1.24219-.4502-2.61084-1.04492-2.61084-2.52051 0-1.40527 1.1167-2.48535 3.00733-2.48535a4.36942 4.36942 0 0 1 2.71875.99023l-.70215.93653a3.25007 3.25007 0 0 0 -1.99854-.77442c-1.09863 0-1.60254.59473-1.60254 1.26075 0 .82812.9541 1.13379 1.94434 1.51171 1.26025.46875 2.665.99122 2.665 2.64747 0 1.42187-1.13477 2.61035-3.20508 2.61035a5.26455 5.26455 0 0 1 -3.25875-1.20606z"/><path d="m143.49707 95.95312v-4.84277h-1.29639v-1.11621l1.36866-.09082.17968-2.44824h1.24268v2.44824h2.3584v1.207h-2.3584v4.86133c0 1.08008.3418 1.69238 1.3501 1.69238a3.16839 3.16839 0 0 0 .99023-.23437l.28809 1.11621a5.39688 5.39688 0 0 1 -1.62012.32425c-1.87256 0-2.50293-1.18848-2.50293-2.917z"/><path d="m148.42871 94.29688c0-2.86231 1.92676-4.60938 3.92529-4.60938 2.23291 0 3.49317 1.60254 3.49317 4.10547a5.70028 5.70028 0 0 1 -.0542.8457h-5.90576a2.90261 2.90261 0 0 0 2.917 3.043 3.95534 3.95534 0 0 0 2.17871-.68359l.522.97168a5.20968 5.20968 0 0 1 -2.88086.90039c-2.34086-.00003-4.19535-1.70999-4.19535-4.57327zm6.12207-.71973c0-1.76465-.79248-2.71875-2.16064-2.71875a2.70271 2.70271 0 0 0 -2.521 2.71875z"/><path d="m158.00488 89.90332h1.22412l.126 1.00879h.0542a4.52931 4.52931 0 0 1 2.791-1.22461c2.25048 0 3.457 1.74707 3.457 4.46582 0 2.9707-1.78272 4.7168-3.78125 4.7168a4.05671 4.05671 0 0 1 -2.43067-1.00782l.03614 1.53028v2.95312h-1.47657zm6.12158 4.25c0-1.92676-.64794-3.22363-2.30468-3.22363a3.6849 3.6849 0 0 0 -2.34033 1.18847v4.59184a3.463 3.463 0 0 0 2.14257.918c1.44043-.00007 2.50244-1.31452 2.50244-3.47468z"/><path d="m167.68848 91.25391a1.07414 1.07414 0 1 1 2.14257 0 1.07219 1.07219 0 1 1 -2.14257 0zm0 6.5a1.07414 1.07414 0 1 1 2.14257 0 1.07219 1.07219 0 1 1 -2.14257 0z"/><path d="m4.71924 135.95312v-4.84277h-1.29639v-1.11621l1.36817-.09082.18017-2.44824h1.24268v2.44824h2.3584v1.207h-2.3584v4.86133c0 1.08008.34179 1.69238 1.35009 1.69238a3.16845 3.16845 0 0 0 .99024-.23437l.28809 1.11621a5.39688 5.39688 0 0 1 -1.62012.32422c-1.87256.00003-2.50293-1.18845-2.50293-2.91697z"/><path d="m9.50684 129.90332h1.51269l1.2959 5.05957c.19824.82813.36035 1.62109.52246 2.43066h.07178c.19824-.80957.37842-1.62011.59424-2.43066l1.35058-5.05957h1.44043l1.36817 5.05957c.2163.82813.41406 1.62109.6123 2.43066h.07227c.19775-.80957.35986-1.60253.54-2.43066l1.27832-5.05957h1.40429l-2.34082 8.751h-1.80025l-1.2602-4.69924c-.21631-.82813-.37842-1.63867-.59424-2.52051h-.07227c-.19775.88184-.37793 1.71-.61182 2.53809l-1.22467 4.68164h-1.7285z"/><path d="m22.75439 134.29688c0-2.93458 1.9087-4.60938 4.05127-4.60938s4.05127 1.6748 4.05127 4.60938c0 2.89941-1.90869 4.57324-4.05127 4.57324s-4.05127-1.67383-4.05127-4.57324zm6.57227 0c0-2.01661-1.0083-3.38477-2.521-3.38477-1.49414 0-2.5205 1.36816-2.5205 3.38477 0 1.999 1.02636 3.34863 2.5205 3.34863 1.5127 0 2.521-1.34961 2.521-3.34863z"/><path d="m36.75879 129.90332h1.22412l.126 1.26074h.0542a4.12516 4.12516 0 0 1 2.93505-1.47656c1.83643 0 2.66456 1.18848 2.66456 3.4209v5.5459h-1.47659v-5.34766c0-1.63867-.5039-2.34082-1.65625-2.34082-.90039 0-1.51269.46875-2.39453 1.35059v6.33789h-1.47656z"/><path d="m45.95654 134.29688c0-2.86231 1.92676-4.60938 3.9253-4.60938 2.23242 0 3.49316 1.60254 3.49316 4.10547a5.70028 5.70028 0 0 1 -.0542.8457h-5.9058a2.90233 2.90233 0 0 0 2.917 3.043 3.95531 3.95531 0 0 0 2.17871-.68359l.522.97168a5.20967 5.20967 0 0 1 -2.88085.90039c-2.34086-.00003-4.19532-1.70999-4.19532-4.57327zm6.12207-.71973c0-1.76465-.79248-2.71875-2.16064-2.71875a2.70271 2.70271 0 0 0 -2.521 2.71875z"/><path d="m54.57812 129.90332h1.5127l1.2959 5.05957c.19824.82813.36035 1.62109.52246 2.43066h.07182c.19824-.80957.37842-1.62011.59424-2.43066l1.35058-5.05957h1.44043l1.36817 5.05957c.2163.82813.41406 1.62109.6123 2.43066h.07228c.19775-.80957.35986-1.60253.54-2.43066l1.27832-5.05957h1.4043l-2.34082 8.751h-1.80031l-1.26026-4.69922c-.2163-.82813-.37841-1.63867-.59423-2.52051h-.07227c-.19775.88184-.37793 1.71-.61182 2.53809l-1.22461 4.68162h-1.72851z"/><path d="m71.49756 134.29688c0-2.86231 1.92676-4.60938 3.92529-4.60938 2.23242 0 3.49317 1.60254 3.49317 4.10547a5.70028 5.70028 0 0 1 -.0542.8457h-5.90577a2.90234 2.90234 0 0 0 2.917 3.043 3.95534 3.95534 0 0 0 2.17871-.68359l.522.97168a5.20971 5.20971 0 0 1 -2.88086.90039c-2.34085-.00003-4.19534-1.70999-4.19534-4.57327zm6.12207-.71973c0-1.76465-.79248-2.71875-2.16065-2.71875a2.7027 2.7027 0 0 0 -2.521 2.71875z"/><path d="m80.44336 134.29688c0-2.84473 1.80078-4.60938 3.79932-4.60938a3.603 3.603 0 0 1 2.44873 1.00879l-.07227-1.49512v-3.36617h1.49463v12.8193h-1.22461l-.126-1.02637h-.05371a3.94935 3.94935 0 0 1 -2.647 1.24219c-2.19673 0-3.61909-1.65625-3.61909-4.57324zm6.17578 2.125v-4.57325a3.04278 3.04278 0 0 0 -2.12451-.91894c-1.4043 0-2.521 1.35058-2.521 3.34961 0 2.08789.88233 3.34863 2.41309 3.34863a2.96314 2.96314 0 0 0 2.23242-1.20605z"/><path d="m90.79346 127.14844a1.02884 1.02884 0 0 1 2.05224 0 1.02876 1.02876 0 0 1 -2.05224 0zm.27 2.75488h1.47654v8.751h-1.47652z"/><path d="m95.74365 135.95312v-4.84277h-1.29638v-1.11621l1.36816-.09082.18018-2.44824h1.24267v2.44824h2.3584v1.207h-2.3584v4.86133c0 1.08008.3418 1.69238 1.3501 1.69238a3.16839 3.16839 0 0 0 .99023-.23437l.28809 1.11621a5.39688 5.39688 0 0 1 -1.62012.32422c-1.87258.00003-2.50293-1.18845-2.50293-2.91697z"/><path d="m101.30518 127.14844a1.02884 1.02884 0 0 1 2.05224 0 1.02876 1.02876 0 0 1 -2.05224 0zm.27 2.75488h1.47656v8.751h-1.47654z"/><path d="m106.00342 129.90332h1.22412l.126 1.26074h.05419a4.1252 4.1252 0 0 1 2.93506-1.47656c1.83643 0 2.66455 1.18848 2.66455 3.4209v5.5459h-1.47656v-5.34766c0-1.63867-.5039-2.34082-1.65625-2.34082-.90039 0-1.51269.46875-2.395 1.35059v6.33789h-1.47607z"/><path d="m115.18262 140.3291a2.52634 2.52634 0 0 1 1.27832-1.98047v-.07226a1.61673 1.61673 0 0 1 -.77393-1.42285 2.048 2.048 0 0 1 .9541-1.62012v-.07227a3.08869 3.08869 0 0 1 2.16065-5.47363 3.49709 3.49709 0 0 1 1.24267.21582h3.04248v1.13477h-1.80029a2.53869 2.53869 0 0 1 .72022 1.80078 3.00328 3.00328 0 0 1 -3.20508 3.043 3.0566 3.0566 0 0 1 -1.31446-.30664 1.3285 1.3285 0 0 0 -.5581 1.04492c0 .55761.36035.9541 1.54834.9541h1.69287c2.03467 0 3.061.62988 3.061 2.08887 0 1.62011-1.71094 3.02441-4.42969 3.02441-2.14254-.00003-3.6191-.84671-3.6191-2.35843zm6.6084-.45019c0-.81055-.63038-1.08106-1.76465-1.08106h-1.5127a4.24755 4.24755 0 0 1 -1.13428-.14355 1.84372 1.84372 0 0 0 -.90039 1.47656c0 .93652.95459 1.53027 2.53907 1.53027 1.67431 0 2.77293-.86425 2.77293-1.78222zm-1.13477-7.07618a1.86251 1.86251 0 1 0 -3.709 0 1.86764 1.86764 0 1 0 3.709 0z"/><path d="m127.54883 137.66406.73779-.99023a3.93533 3.93533 0 0 0 2.57471 1.04394c1.15234 0 1.72851-.6123 1.72851-1.36816 0-.90039-1.04394-1.2959-1.99853-1.65625-1.24219-.4502-2.61084-1.04492-2.61084-2.52051 0-1.40527 1.1167-2.48535 3.00732-2.48535a4.36938 4.36938 0 0 1 2.71875.99023l-.70215.93653a3.25 3.25 0 0 0 -1.99853-.77442c-1.09863 0-1.60254.59473-1.60254 1.26075 0 .82812.9541 1.13379 1.94434 1.51171 1.26025.46875 2.665.99122 2.665 2.64747 0 1.42187-1.13477 2.61035-3.20508 2.61035a5.26453 5.26453 0 0 1 -3.25875-1.20606z"/><path d="m135.95508 135.95312v-4.84277h-1.29639v-1.11621l1.36865-.09082.17969-2.44824h1.24268v2.44824h2.3584v1.207h-2.3584v4.86133c0 1.08008.34179 1.69238 1.35009 1.69238a3.16845 3.16845 0 0 0 .99024-.23437l.28808 1.11621a5.39675 5.39675 0 0 1 -1.62011.32422c-1.87256.00003-2.50293-1.18845-2.50293-2.91697z"/><path d="m140.88672 134.29688c0-2.86231 1.92676-4.60938 3.92529-4.60938 2.23291 0 3.49317 1.60254 3.49317 4.10547a5.70028 5.70028 0 0 1 -.0542.8457h-5.90577a2.90262 2.90262 0 0 0 2.917 3.043 3.95534 3.95534 0 0 0 2.17871-.68359l.522.97168a5.20971 5.20971 0 0 1 -2.88086.90039c-2.34085-.00003-4.19534-1.70999-4.19534-4.57327zm6.12207-.71973c0-1.76465-.79248-2.71875-2.16065-2.71875a2.7027 2.7027 0 0 0 -2.521 2.71875z"/><path d="m150.46289 129.90332h1.22411l.126 1.00879h.0542a4.52931 4.52931 0 0 1 2.791-1.22461c2.25049 0 3.457 1.74707 3.457 4.46582 0 2.9707-1.78271 4.7168-3.78125 4.7168a4.0567 4.0567 0 0 1 -2.43066-1.00782l.03613 1.53028v2.95312h-1.47656zm6.12158 4.25c0-1.92676-.648-3.22363-2.30468-3.22363a3.68492 3.68492 0 0 0 -2.34034 1.18847v4.59184a3.463 3.463 0 0 0 2.14258.918c1.44043-.00007 2.50244-1.31452 2.50244-3.47468z"/><path d="m159.48047 137.66406.73779-.99023a3.93533 3.93533 0 0 0 2.57471 1.04394c1.15234 0 1.72851-.6123 1.72851-1.36816 0-.90039-1.04394-1.2959-1.99853-1.65625-1.24219-.4502-2.61084-1.04492-2.61084-2.52051 0-1.40527 1.1167-2.48535 3.00732-2.48535a4.36938 4.36938 0 0 1 2.71875.99023l-.70214.93653a3.25007 3.25007 0 0 0 -1.99854-.77442c-1.09863 0-1.60254.59473-1.60254 1.26075 0 .82812.9541 1.13379 1.94434 1.51171 1.26025.46875 2.665.99122 2.665 2.64747 0 1.42187-1.13477 2.61035-3.20508 2.61035a5.26453 5.26453 0 0 1 -3.25875-1.20606z"/><path d="m167.68848 131.25391a1.07414 1.07414 0 1 1 2.14257 0 1.07219 1.07219 0 1 1 -2.14257 0zm0 6.5a1.07414 1.07414 0 1 1 2.14257 0 1.07219 1.07219 0 1 1 -2.14257 0z"/></g><path d="m613 23.667v8h-300v6.742" fill="none" stroke="#f2f2f2"/><path d="m319.074 37.594h-12.148l6.073 6.073z" fill="#f2f2f2"/><path d="m313 63.667v8h100v6.742" fill="none" stroke="#f2f2f2"/><path d="m419.074 77.594h-12.148l6.073 6.073z" fill="#f2f2f2"/><rect fill="#808080" height="20" rx="4" width="60" x="183" y="3.66667"/><rect fill="#808080" height="20" rx="4" width="60" x="183" y="43.66667"/><rect fill="#808080" height="20" rx="4" width="60" x="283.00011" y="83.66667"/><rect fill="#808080" height="20" rx="4" width="60" x="183.00011" y="83.66667"/><rect fill="#808080" height="20" rx="4" width="60" x="183.00011" y="123.66667"/><rect fill="#808080" height="20" rx="4" width="60" x="283.00011" y="123.66667"/><rect fill="#808080" height="20" rx="4" width="60" x="383.00011" y="123.66667"/><rect fill="#808080" height="20" rx="4" width="60" x="483.00011" y="123.66667"/><rect fill="#808080" height="20" rx="4" width="60" x="283.00011" y="3.66667"/><rect fill="#ccc" height="20" rx="4" width="60" x="283.00011" y="43.66667"/><rect fill="#ccc" height="20" rx="4" width="60" x="383.00011" y="83.66667"/><rect fill="#ccc" height="20" rx="4" width="60" x="582.99906" y="123.66667"/><rect fill="#808080" height="20" rx="4" width="60" x="383.00011" y="3.66667"/><rect fill="#333" height="20" rx="4" width="60" x="383.00011" y="43.66667"/><rect fill="#333" height="20" rx="4" width="60" x="483" y="43.66667"/><rect fill="#333" height="20" rx="4" width="60" x="483" y="83.66667"/><rect fill="#333" height="20" rx="4" width="60" x="583" y="83.66667"/><rect fill="#333" height="20" rx="4" width="60" x="583" y="43.66667"/><rect fill="#808080" height="20" rx="4" width="60" x="483" y="3.66667"/><rect fill="#ccc" height="20" rx="4" width="60" x="583" y="3.66667"/><path d="m193.96 14.834c0-2.70312 1.81885-4.35156 3.70606-4.35156 2.10742 0 3.29736 1.5127 3.29736 3.875a5.43969 5.43969 0 0 1 -.05078.79883h-5.57569a2.74032 2.74032 0 0 0 2.75391 2.873 3.73506 3.73506 0 0 0 2.05664-.64551l.49316.918a4.9199 4.9199 0 0 1 -2.71972.84961c-2.21 0-3.96094-1.61524-3.96094-4.31737zm5.77979-.68066c0-1.665-.748-2.56641-2.04-2.56641a2.55164 2.55164 0 0 0 -2.37989 2.56641z" fill="#1a1a1a"/><path d="m202.40869 14.834c0-2.68652 1.69971-4.35156 3.58692-4.35156a3.40382 3.40382 0 0 1 2.31152.95117l-.06787-1.41015v-3.17873h1.41064v12.10254h-1.15576l-.11914-.96875h-.05078a3.72711 3.72711 0 0 1 -2.499 1.17285c-2.07376 0-3.41653-1.56446-3.41653-4.31737zm5.83057 2.00586v-4.31838a2.87443 2.87443 0 0 0 -2.00586-.86621c-1.32569 0-2.37988 1.27442-2.37988 3.16114 0 1.97168.833 3.16211 2.27783 3.16211a2.79681 2.79681 0 0 0 2.10791-1.13868z" fill="#1a1a1a"/><path d="m212.18359 8.085a.97161.97161 0 0 1 1.938 0 .97153.97153 0 0 1 -1.938 0zm.25537 2.60156h1.39356v8.26075h-1.39352z" fill="#1a1a1a"/><path d="m216.8584 16.39746v-4.57226h-1.22363v-1.05372l1.2915-.085.16992-2.3125h1.17281v2.3125h2.22705v1.13872h-2.22705v4.58886c0 1.02051.32325 1.59864 1.27491 1.59864a2.98753 2.98753 0 0 0 .93505-.22168l.272 1.05468a5.12039 5.12039 0 0 1 -1.52979.30567c-1.76805 0-2.36277-1.12207-2.36277-2.75391z" fill="#1a1a1a"/><path d="m225.71533 17.791h2.48194v-7.98924h-1.97168v-.90039a6.456 6.456 0 0 0 2.29441-.79883h1.0708v9.68846h2.2442v1.15625h-6.11963z" fill="#1a1a1a"/><path d="m193.96 54.834c0-2.70312 1.81885-4.35156 3.70606-4.35156 2.10742 0 3.29736 1.5127 3.29736 3.875a5.43969 5.43969 0 0 1 -.05078.79883h-5.57569a2.74032 2.74032 0 0 0 2.75391 2.873 3.73506 3.73506 0 0 0 2.05664-.64551l.49316.918a4.9199 4.9199 0 0 1 -2.71972.84961c-2.21 0-3.96094-1.61524-3.96094-4.31737zm5.77979-.68066c0-1.665-.748-2.56641-2.04-2.56641a2.55164 2.55164 0 0 0 -2.37989 2.56641z" fill="#1a1a1a"/><path d="m202.40869 54.834c0-2.68652 1.69971-4.35156 3.58692-4.35156a3.40382 3.40382 0 0 1 2.31152.95117l-.06787-1.41015v-3.17873h1.41064v12.10254h-1.15576l-.11914-.96875h-.05078a3.72711 3.72711 0 0 1 -2.499 1.17285c-2.07376 0-3.41653-1.56446-3.41653-4.31737zm5.83057 2.00586v-4.31838a2.87443 2.87443 0 0 0 -2.00586-.86621c-1.32569 0-2.37988 1.27442-2.37988 3.16114 0 1.97168.833 3.16211 2.27783 3.16211a2.79681 2.79681 0 0 0 2.10791-1.13868z" fill="#1a1a1a"/><path d="m212.18359 48.085a.97161.97161 0 0 1 1.938 0 .97153.97153 0 0 1 -1.938 0zm.25537 2.60156h1.39356v8.26075h-1.39352z" fill="#1a1a1a"/><path d="m216.8584 56.39746v-4.57226h-1.22363v-1.05372l1.2915-.085.16992-2.3125h1.17281v2.3125h2.22705v1.13872h-2.22705v4.58886c0 1.02051.32325 1.59864 1.27491 1.59864a2.98753 2.98753 0 0 0 .93505-.22168l.272 1.05468a5.12039 5.12039 0 0 1 -1.52979.30567c-1.76805 0-2.36277-1.12207-2.36277-2.75391z" fill="#1a1a1a"/><path d="m225.71533 57.791h2.48194v-7.98924h-1.97168v-.90039a6.456 6.456 0 0 0 2.29443-.79883h1.0708v9.68846h2.24418v1.15625h-6.11963z" fill="#1a1a1a"/><path d="m293.96 54.834c0-2.70312 1.81885-4.35156 3.70606-4.35156 2.10742 0 3.29736 1.5127 3.29736 3.875a5.43969 5.43969 0 0 1 -.05078.79883h-5.57569a2.74032 2.74032 0 0 0 2.75391 2.873 3.73506 3.73506 0 0 0 2.05664-.64551l.49316.918a4.9199 4.9199 0 0 1 -2.71972.84961c-2.21 0-3.96094-1.61524-3.96094-4.31737zm5.77979-.68066c0-1.665-.74805-2.56641-2.04-2.56641a2.55164 2.55164 0 0 0 -2.37989 2.56641z" fill="#1a1a1a"/><path d="m302.40918 54.834c0-2.68652 1.7002-4.35156 3.58691-4.35156a3.402 3.402 0 0 1 2.31153.95117l-.06836-1.41015v-3.17873h1.41113v12.10254h-1.15527l-.11914-.96875h-.05176a3.72478 3.72478 0 0 1 -2.49805 1.17285c-2.07417 0-3.41699-1.56446-3.41699-4.31737zm5.83008 2.00586v-4.31838a2.87153 2.87153 0 0 0 -2.00488-.86621c-1.32618 0-2.37989 1.27442-2.37989 3.16114 0 1.97168.833 3.16211 2.27735 3.16211a2.79594 2.79594 0 0 0 2.10742-1.13868z" fill="#1a1a1a"/><path d="m312.18359 48.085a.97187.97187 0 0 1 1.93848 0 .9718.9718 0 0 1 -1.93848 0zm.25489 2.60156h1.39452v8.26075h-1.39453z" fill="#1a1a1a"/><path d="m316.8584 56.39746v-4.57226h-1.22363v-1.05372l1.292-.085.16992-2.3125h1.17285v2.3125h2.22656v1.13872h-2.22656v4.58886c0 1.02051.32227 1.59864 1.27442 1.59864a2.99366 2.99366 0 0 0 .93554-.22168l.27149 1.05468a5.11743 5.11743 0 0 1 -1.53028.30567c-1.76759 0-2.36231-1.12207-2.36231-2.75391z" fill="#1a1a1a"/><path d="m325.05273 58.11426c3.26368-3.2461 5.09961-5.20117 5.09961-6.95215a1.92059 1.92059 0 0 0 -2.05664-2.125 3.19577 3.19577 0 0 0 -2.31152 1.30859l-.79883-.79882a4.25619 4.25619 0 0 1 3.28027-1.64844 3.01217 3.01217 0 0 1 3.24708 3.19531c0 2.04-1.85352 4.0625-4.41993 6.749.59473-.05175 1.25782-.10254 1.81836-.10254h3.14551v1.207h-7.00391z" fill="#1a1a1a"/><path d="m493.96094 54.834c0-2.70312 1.81836-4.35156 3.70508-4.35156 2.10839 0 3.29785 1.5127 3.29785 3.875a5.37267 5.37267 0 0 1 -.05078.79883h-5.5752a2.73983 2.73983 0 0 0 2.75293 2.873 3.73829 3.73829 0 0 0 2.05762-.64551l.49218.918a4.9186 4.9186 0 0 1 -2.71972.84961c-2.20899 0-3.95996-1.61524-3.95996-4.31737zm5.77929-.68066c0-1.665-.748-2.56641-2.04-2.56641a2.551 2.551 0 0 0 -2.37989 2.56641z" fill="#808080"/><path d="m502.40918 54.834c0-2.68652 1.7002-4.35156 3.58691-4.35156a3.402 3.402 0 0 1 2.31153.95117l-.06836-1.41015v-3.17873h1.41113v12.10254h-1.15527l-.11914-.96875h-.05176a3.72478 3.72478 0 0 1 -2.49805 1.17285c-2.07417 0-3.41699-1.56446-3.41699-4.31737zm5.83008 2.00586v-4.31838a2.87153 2.87153 0 0 0 -2.00488-.86621c-1.32618 0-2.37989 1.27442-2.37989 3.16114 0 1.97168.833 3.16211 2.27735 3.16211a2.79594 2.79594 0 0 0 2.10742-1.13868z" fill="#808080"/><path d="m512.18359 48.085a.97187.97187 0 0 1 1.93848 0 .9718.9718 0 0 1 -1.93848 0zm.25489 2.60156h1.39452v8.26075h-1.39453z" fill="#808080"/><path d="m516.85938 56.39746v-4.57226h-1.22364v-1.05372l1.292-.085.16993-2.3125h1.17285v2.3125h2.22656v1.13872h-2.22656v4.58886c0 1.02051.32226 1.59864 1.27441 1.59864a2.99372 2.99372 0 0 0 .93555-.22168l.27148 1.05468a5.11737 5.11737 0 0 1 -1.53027.30567c-1.76759 0-2.36231-1.12207-2.36231-2.75391z" fill="#808080"/><path d="m529.541 55.95605h-4.87891v-.918l4.64062-6.93555h1.56348v6.7315h1.47949v1.12207h-1.47949v2.99122h-1.32519zm0-1.12207v-3.14453c0-.57812.05078-1.51367.085-2.09082h-.06836c-.27246.52637-.57813 1.00293-.88379 1.5293l-2.53321 3.706z" fill="#808080"/><path d="m593.96094 54.834c0-2.70312 1.81836-4.35156 3.70508-4.35156 2.10839 0 3.29785 1.5127 3.29785 3.875a5.37267 5.37267 0 0 1 -.05078.79883h-5.5752a2.73983 2.73983 0 0 0 2.75293 2.873 3.73829 3.73829 0 0 0 2.05762-.64551l.49218.918a4.9186 4.9186 0 0 1 -2.71972.84961c-2.20899 0-3.95996-1.61524-3.95996-4.31737zm5.77929-.68066c0-1.665-.748-2.56641-2.04-2.56641a2.551 2.551 0 0 0 -2.37989 2.56641z" fill="#808080"/><path d="m602.40918 54.834c0-2.68652 1.7002-4.35156 3.58691-4.35156a3.402 3.402 0 0 1 2.31153.95117l-.06836-1.41015v-3.17873h1.41113v12.10254h-1.15527l-.11914-.96875h-.05176a3.72478 3.72478 0 0 1 -2.498 1.17285c-2.07422 0-3.41704-1.56446-3.41704-4.31737zm5.83008 2.00586v-4.31838a2.87153 2.87153 0 0 0 -2.00488-.86621c-1.32618 0-2.37989 1.27442-2.37989 3.16114 0 1.97168.833 3.16211 2.27735 3.16211a2.79594 2.79594 0 0 0 2.10742-1.13868z" fill="#808080"/><path d="m612.18359 48.085a.97187.97187 0 0 1 1.93848 0 .9718.9718 0 0 1 -1.93848 0zm.25489 2.60156h1.39452v8.26075h-1.39453z" fill="#808080"/><path d="m616.85938 56.39746v-4.57226h-1.22364v-1.05372l1.292-.085.16993-2.3125h1.17285v2.3125h2.22656v1.13872h-2.22656v4.58886c0 1.02051.32226 1.59864 1.27441 1.59864a2.99372 2.99372 0 0 0 .93555-.22168l.27148 1.05468a5.11737 5.11737 0 0 1 -1.53027.30567c-1.76759 0-2.36231-1.12207-2.36231-2.75391z" fill="#808080"/><path d="m624.79785 57.67285.67969-.918a3.69183 3.69183 0 0 0 2.7373 1.24024 2.34 2.34 0 0 0 2.37989-2.48145 2.17926 2.17926 0 0 0 -2.3125-2.37988 3.05492 3.05492 0 0 0 -1.85254.66309l-.74805-.47559.35742-5.21875h5.42188v1.207h-4.19824l-.28907 3.21191a3.33485 3.33485 0 0 1 1.666-.4414 3.12165 3.12165 0 0 1 3.36523 3.39941 3.54611 3.54611 0 0 1 -3.65429 3.67188 4.75834 4.75834 0 0 1 -3.55272-1.47846z" fill="#808080"/><path d="m193.96 94.834c0-2.70312 1.81885-4.35156 3.70606-4.35156 2.10742 0 3.29736 1.5127 3.29736 3.875a5.43969 5.43969 0 0 1 -.05078.79883h-5.57569a2.74032 2.74032 0 0 0 2.75391 2.87305 3.73506 3.73506 0 0 0 2.05664-.64551l.49316.918a4.9199 4.9199 0 0 1 -2.71972.84961c-2.21-.00005-3.96094-1.61529-3.96094-4.31742zm5.77979-.68066c0-1.665-.748-2.56641-2.04-2.56641a2.55164 2.55164 0 0 0 -2.37989 2.56641z" fill="#1a1a1a"/><path d="m202.40869 94.834c0-2.68652 1.69971-4.35156 3.58692-4.35156a3.40382 3.40382 0 0 1 2.31152.95117l-.06787-1.41015v-3.17873h1.41064v12.10254h-1.15576l-.11914-.96875h-.05078a3.72711 3.72711 0 0 1 -2.499 1.17285c-2.07376 0-3.41653-1.56446-3.41653-4.31737zm5.83057 2.00586v-4.31838a2.87443 2.87443 0 0 0 -2.00586-.86621c-1.32569 0-2.37988 1.27442-2.37988 3.16114 0 1.97168.833 3.16211 2.27783 3.16211a2.79681 2.79681 0 0 0 2.10791-1.13868z" fill="#1a1a1a"/><path d="m212.18359 88.085a.97161.97161 0 0 1 1.938 0 .97153.97153 0 0 1 -1.938 0zm.25537 2.60156h1.39356v8.26075h-1.39352z" fill="#1a1a1a"/><path d="m216.8584 96.39746v-4.57226h-1.22363v-1.05372l1.2915-.085.16992-2.3125h1.17281v2.3125h2.22705v1.13872h-2.22705v4.58886c0 1.02051.32325 1.59864 1.27491 1.59864a2.98753 2.98753 0 0 0 .93505-.22168l.272 1.05468a5.12039 5.12039 0 0 1 -1.52979.30567c-1.76805 0-2.36277-1.12207-2.36277-2.75391z" fill="#1a1a1a"/><path d="m225.71533 97.791h2.48194v-7.98924h-1.97168v-.90039a6.456 6.456 0 0 0 2.29443-.79883h1.0708v9.68846h2.24418v1.15625h-6.11963z" fill="#1a1a1a"/><path d="m293.96 94.834c0-2.70312 1.81885-4.35156 3.70606-4.35156 2.10742 0 3.29736 1.5127 3.29736 3.875a5.43969 5.43969 0 0 1 -.05078.79883h-5.57569a2.74032 2.74032 0 0 0 2.75391 2.87305 3.73506 3.73506 0 0 0 2.05664-.64551l.49316.918a4.9199 4.9199 0 0 1 -2.71972.84961c-2.21-.00005-3.96094-1.61529-3.96094-4.31742zm5.77979-.68066c0-1.665-.74805-2.56641-2.04-2.56641a2.55164 2.55164 0 0 0 -2.37989 2.56641z" fill="#1a1a1a"/><path d="m302.40918 94.834c0-2.68652 1.7002-4.35156 3.58691-4.35156a3.402 3.402 0 0 1 2.31153.95117l-.06836-1.41015v-3.17873h1.41113v12.10254h-1.15527l-.11914-.96875h-.05176a3.72478 3.72478 0 0 1 -2.49805 1.17285c-2.07417 0-3.41699-1.56446-3.41699-4.31737zm5.83008 2.00586v-4.31838a2.87153 2.87153 0 0 0 -2.00488-.86621c-1.32618 0-2.37989 1.27442-2.37989 3.16114 0 1.97168.833 3.16211 2.27735 3.16211a2.79594 2.79594 0 0 0 2.10742-1.13868z" fill="#1a1a1a"/><path d="m312.18359 88.085a.97187.97187 0 0 1 1.93848 0 .9718.9718 0 0 1 -1.93848 0zm.25489 2.60156h1.39452v8.26075h-1.39453z" fill="#1a1a1a"/><path d="m316.8584 96.39746v-4.57226h-1.22363v-1.05372l1.292-.085.16992-2.3125h1.17285v2.3125h2.22656v1.13872h-2.22656v4.58886c0 1.02051.32227 1.59864 1.27442 1.59864a2.99366 2.99366 0 0 0 .93554-.22168l.27149 1.05468a5.11743 5.11743 0 0 1 -1.53028.30567c-1.76759 0-2.36231-1.12207-2.36231-2.75391z" fill="#1a1a1a"/><path d="m325.05273 98.11426c3.26368-3.2461 5.09961-5.20117 5.09961-6.95215a1.92059 1.92059 0 0 0 -2.05664-2.125 3.19577 3.19577 0 0 0 -2.31152 1.30859l-.79883-.79882a4.25619 4.25619 0 0 1 3.28027-1.64844 3.01217 3.01217 0 0 1 3.24708 3.19531c0 2.04-1.85352 4.0625-4.41993 6.749.59473-.05175 1.25782-.10254 1.81836-.10254h3.14551v1.207h-7.00391z" fill="#1a1a1a"/><path d="m393.96094 94.834c0-2.70312 1.81836-4.35156 3.70508-4.35156 2.10839 0 3.29785 1.5127 3.29785 3.875a5.37267 5.37267 0 0 1 -.05078.79883h-5.5752a2.73983 2.73983 0 0 0 2.75293 2.87305 3.73829 3.73829 0 0 0 2.05762-.64551l.49218.918a4.9186 4.9186 0 0 1 -2.71972.84961c-2.20899-.00005-3.95996-1.61529-3.95996-4.31742zm5.77929-.68066c0-1.665-.748-2.56641-2.04-2.56641a2.551 2.551 0 0 0 -2.37989 2.56641z" fill="#1a1a1a"/><path d="m402.40918 94.834c0-2.68652 1.7002-4.35156 3.58691-4.35156a3.402 3.402 0 0 1 2.31153.95117l-.06836-1.41015v-3.17873h1.41113v12.10254h-1.15527l-.11914-.96875h-.05176a3.72478 3.72478 0 0 1 -2.49805 1.17285c-2.07417 0-3.41699-1.56446-3.41699-4.31737zm5.83008 2.00586v-4.31838a2.87153 2.87153 0 0 0 -2.00488-.86621c-1.32618 0-2.37989 1.27442-2.37989 3.16114 0 1.97168.833 3.16211 2.27735 3.16211a2.79594 2.79594 0 0 0 2.10742-1.13868z" fill="#1a1a1a"/><path d="m412.18359 88.085a.97187.97187 0 0 1 1.93848 0 .9718.9718 0 0 1 -1.93848 0zm.25489 2.60156h1.39452v8.26075h-1.39453z" fill="#1a1a1a"/><path d="m416.85938 96.39746v-4.57226h-1.22364v-1.05372l1.292-.085.16993-2.3125h1.17285v2.3125h2.22656v1.13872h-2.22656v4.58886c0 1.02051.32226 1.59864 1.27441 1.59864a2.99372 2.99372 0 0 0 .93555-.22168l.27148 1.05468a5.11737 5.11737 0 0 1 -1.53027.30567c-1.76759 0-2.36231-1.12207-2.36231-2.75391z" fill="#1a1a1a"/><path d="m424.81543 97.62109.71387-.918a3.67738 3.67738 0 0 0 2.7705 1.292 2.02073 2.02073 0 0 0 2.24317-1.98828c0-1.292-.88379-2.15918-3.4668-2.15918v-1.07029c2.31153 0 3.07617-.88476 3.07617-2.02343a1.66934 1.66934 0 0 0 -1.87011-1.7168 3.28821 3.28821 0 0 0 -2.31153 1.10547l-.748-.88477a4.46885 4.46885 0 0 1 3.11132-1.35937c1.88672 0 3.2461 1.00293 3.2461 2.7539a2.68679 2.68679 0 0 1 -1.97168 2.583v.06836a2.79836 2.79836 0 0 1 2.3457 2.75391c0 1.9209-1.58105 3.09375-3.56933 3.09375a4.606 4.606 0 0 1 -3.56938-1.53027z" fill="#1a1a1a"/><path d="m493.96094 94.834c0-2.70312 1.81836-4.35156 3.70508-4.35156 2.10839 0 3.29785 1.5127 3.29785 3.875a5.37267 5.37267 0 0 1 -.05078.79883h-5.5752a2.73983 2.73983 0 0 0 2.75293 2.87305 3.73829 3.73829 0 0 0 2.05762-.64551l.49218.918a4.9186 4.9186 0 0 1 -2.71972.84961c-2.20899-.00005-3.95996-1.61529-3.95996-4.31742zm5.77929-.68066c0-1.665-.748-2.56641-2.04-2.56641a2.551 2.551 0 0 0 -2.37989 2.56641z" fill="#808080"/><path d="m502.40918 94.834c0-2.68652 1.7002-4.35156 3.58691-4.35156a3.402 3.402 0 0 1 2.31153.95117l-.06836-1.41015v-3.17873h1.41113v12.10254h-1.15527l-.11914-.96875h-.05176a3.72478 3.72478 0 0 1 -2.49805 1.17285c-2.07417 0-3.41699-1.56446-3.41699-4.31737zm5.83008 2.00586v-4.31838a2.87153 2.87153 0 0 0 -2.00488-.86621c-1.32618 0-2.37989 1.27442-2.37989 3.16114 0 1.97168.833 3.16211 2.27735 3.16211a2.79594 2.79594 0 0 0 2.10742-1.13868z" fill="#808080"/><path d="m512.18359 88.085a.97187.97187 0 0 1 1.93848 0 .9718.9718 0 0 1 -1.93848 0zm.25489 2.60156h1.39452v8.26075h-1.39453z" fill="#808080"/><path d="m516.85938 96.39746v-4.57226h-1.22364v-1.05372l1.292-.085.16993-2.3125h1.17285v2.3125h2.22656v1.13872h-2.22656v4.58886c0 1.02051.32226 1.59864 1.27441 1.59864a2.99372 2.99372 0 0 0 .93555-.22168l.27148 1.05468a5.11737 5.11737 0 0 1 -1.53027.30567c-1.76759 0-2.36231-1.12207-2.36231-2.75391z" fill="#808080"/><path d="m529.541 95.95605h-4.87891v-.918l4.64062-6.93555h1.56348v6.7315h1.47949v1.12207h-1.47949v2.99122h-1.32519zm0-1.12207v-3.14453c0-.57812.05078-1.51367.085-2.09082h-.06836c-.27246.52637-.57813 1.00293-.88379 1.5293l-2.53321 3.706z" fill="#808080"/><path d="m593.96094 94.834c0-2.70312 1.81836-4.35156 3.70508-4.35156 2.10839 0 3.29785 1.5127 3.29785 3.875a5.37267 5.37267 0 0 1 -.05078.79883h-5.5752a2.73983 2.73983 0 0 0 2.75293 2.87305 3.73829 3.73829 0 0 0 2.05762-.64551l.49218.918a4.9186 4.9186 0 0 1 -2.71972.84961c-2.20899-.00005-3.95996-1.61529-3.95996-4.31742zm5.77929-.68066c0-1.665-.748-2.56641-2.04-2.56641a2.551 2.551 0 0 0 -2.37989 2.56641z" fill="#808080"/><path d="m602.40918 94.834c0-2.68652 1.7002-4.35156 3.58691-4.35156a3.402 3.402 0 0 1 2.31153.95117l-.06836-1.41015v-3.17873h1.41113v12.10254h-1.15527l-.11914-.96875h-.05176a3.72478 3.72478 0 0 1 -2.498 1.17285c-2.07422 0-3.41704-1.56446-3.41704-4.31737zm5.83008 2.00586v-4.31838a2.87153 2.87153 0 0 0 -2.00488-.86621c-1.32618 0-2.37989 1.27442-2.37989 3.16114 0 1.97168.833 3.16211 2.27735 3.16211a2.79594 2.79594 0 0 0 2.10742-1.13868z" fill="#808080"/><path d="m612.18359 88.085a.97187.97187 0 0 1 1.93848 0 .9718.9718 0 0 1 -1.93848 0zm.25489 2.60156h1.39452v8.26075h-1.39453z" fill="#808080"/><path d="m616.85938 96.39746v-4.57226h-1.22364v-1.05372l1.292-.085.16993-2.3125h1.17285v2.3125h2.22656v1.13872h-2.22656v4.58886c0 1.02051.32226 1.59864 1.27441 1.59864a2.99372 2.99372 0 0 0 .93555-.22168l.27148 1.05468a5.11737 5.11737 0 0 1 -1.53027.30567c-1.76759 0-2.36231-1.12207-2.36231-2.75391z" fill="#808080"/><path d="m624.79785 97.67285.67969-.918a3.69183 3.69183 0 0 0 2.7373 1.24024 2.34 2.34 0 0 0 2.37989-2.48145 2.17926 2.17926 0 0 0 -2.3125-2.37988 3.05492 3.05492 0 0 0 -1.85254.66309l-.74805-.47559.35742-5.21875h5.42188v1.207h-4.19824l-.28907 3.21191a3.33485 3.33485 0 0 1 1.666-.4414 3.12165 3.12165 0 0 1 3.36523 3.39941 3.54611 3.54611 0 0 1 -3.65429 3.67188 4.75834 4.75834 0 0 1 -3.55272-1.47846z" fill="#808080"/><path d="m193.96 134.834c0-2.70312 1.81885-4.35156 3.70606-4.35156 2.10742 0 3.29736 1.5127 3.29736 3.875a5.43969 5.43969 0 0 1 -.05078.79883h-5.57569a2.74032 2.74032 0 0 0 2.75391 2.87305 3.73506 3.73506 0 0 0 2.05664-.64551l.49316.918a4.9199 4.9199 0 0 1 -2.71972.84961c-2.21-.00005-3.96094-1.61529-3.96094-4.31742zm5.77979-.68066c0-1.665-.748-2.56641-2.04-2.56641a2.55164 2.55164 0 0 0 -2.37989 2.56641z" fill="#1a1a1a"/><path d="m202.40869 134.834c0-2.68652 1.69971-4.35156 3.58692-4.35156a3.40382 3.40382 0 0 1 2.31152.95117l-.06787-1.41015v-3.17871h1.41064v12.10254h-1.15576l-.11914-.96875h-.05078a3.72711 3.72711 0 0 1 -2.499 1.17285c-2.07376-.00002-3.41653-1.56448-3.41653-4.31739zm5.83057 2.00586v-4.31836a2.87443 2.87443 0 0 0 -2.00586-.86621c-1.32569 0-2.37988 1.27442-2.37988 3.16114 0 1.97168.833 3.16211 2.27783 3.16211a2.79681 2.79681 0 0 0 2.10791-1.1387z" fill="#1a1a1a"/><path d="m212.18359 128.085a.97161.97161 0 0 1 1.938 0 .97153.97153 0 0 1 -1.938 0zm.25537 2.60156h1.39356v8.26075h-1.39352z" fill="#1a1a1a"/><path d="m216.8584 136.39746v-4.57226h-1.22363v-1.05372l1.2915-.085.16992-2.3125h1.17281v2.3125h2.22705v1.13868h-2.22705v4.58886c0 1.02051.32325 1.59864 1.27491 1.59864a2.98753 2.98753 0 0 0 .93505-.22168l.272 1.05468a5.12039 5.12039 0 0 1 -1.52979.30567c-1.76805.00004-2.36277-1.12203-2.36277-2.75387z" fill="#1a1a1a"/><path d="m225.71533 137.791h2.48194v-7.98926h-1.97168v-.90039a6.456 6.456 0 0 0 2.29443-.79883h1.0708v9.68848h2.24418v1.15625h-6.11963z" fill="#1a1a1a"/><path d="m293.96 134.834c0-2.70312 1.81885-4.35156 3.70606-4.35156 2.10742 0 3.29736 1.5127 3.29736 3.875a5.43969 5.43969 0 0 1 -.05078.79883h-5.57569a2.74032 2.74032 0 0 0 2.75391 2.87305 3.73506 3.73506 0 0 0 2.05664-.64551l.49316.918a4.9199 4.9199 0 0 1 -2.71972.84961c-2.21-.00005-3.96094-1.61529-3.96094-4.31742zm5.77979-.68066c0-1.665-.74805-2.56641-2.04-2.56641a2.55164 2.55164 0 0 0 -2.37989 2.56641z" fill="#1a1a1a"/><path d="m302.40918 134.834c0-2.68652 1.7002-4.35156 3.58691-4.35156a3.402 3.402 0 0 1 2.31153.95117l-.06836-1.41015v-3.17871h1.41113v12.10254h-1.15527l-.11914-.96875h-.05176a3.72478 3.72478 0 0 1 -2.49805 1.17285c-2.07417-.00002-3.41699-1.56448-3.41699-4.31739zm5.83008 2.00586v-4.31836a2.87153 2.87153 0 0 0 -2.00488-.86621c-1.32618 0-2.37989 1.27442-2.37989 3.16114 0 1.97168.833 3.16211 2.27735 3.16211a2.79594 2.79594 0 0 0 2.10742-1.1387z" fill="#1a1a1a"/><path d="m312.18359 128.085a.97187.97187 0 0 1 1.93848 0 .9718.9718 0 0 1 -1.93848 0zm.25489 2.60156h1.39452v8.26075h-1.39453z" fill="#1a1a1a"/><path d="m316.8584 136.39746v-4.57226h-1.22363v-1.05372l1.292-.085.16992-2.3125h1.17285v2.3125h2.22656v1.13868h-2.22656v4.58886c0 1.02051.32227 1.59864 1.27442 1.59864a2.99366 2.99366 0 0 0 .93554-.22168l.27149 1.05468a5.11743 5.11743 0 0 1 -1.53028.30567c-1.76759.00004-2.36231-1.12203-2.36231-2.75387z" fill="#1a1a1a"/><path d="m325.05273 138.11426c3.26368-3.2461 5.09961-5.20117 5.09961-6.95215a1.92059 1.92059 0 0 0 -2.05664-2.125 3.19577 3.19577 0 0 0 -2.31152 1.30859l-.79883-.79882a4.25619 4.25619 0 0 1 3.28027-1.64844 3.01217 3.01217 0 0 1 3.24708 3.19531c0 2.04-1.85352 4.0625-4.41993 6.749.59473-.05175 1.25782-.10254 1.81836-.10254h3.14551v1.207h-7.00391z" fill="#1a1a1a"/><path d="m393.96094 134.834c0-2.70312 1.81836-4.35156 3.70508-4.35156 2.10839 0 3.29785 1.5127 3.29785 3.875a5.37267 5.37267 0 0 1 -.05078.79883h-5.5752a2.73983 2.73983 0 0 0 2.75293 2.87305 3.73829 3.73829 0 0 0 2.05762-.64551l.49218.918a4.9186 4.9186 0 0 1 -2.71972.84961c-2.20899-.00005-3.95996-1.61529-3.95996-4.31742zm5.77929-.68066c0-1.665-.748-2.56641-2.04-2.56641a2.551 2.551 0 0 0 -2.37989 2.56641z" fill="#1a1a1a"/><path d="m402.40918 134.834c0-2.68652 1.7002-4.35156 3.58691-4.35156a3.402 3.402 0 0 1 2.31153.95117l-.06836-1.41015v-3.17871h1.41113v12.10254h-1.15527l-.11914-.96875h-.05176a3.72478 3.72478 0 0 1 -2.49805 1.17285c-2.07417-.00002-3.41699-1.56448-3.41699-4.31739zm5.83008 2.00586v-4.31836a2.87153 2.87153 0 0 0 -2.00488-.86621c-1.32618 0-2.37989 1.27442-2.37989 3.16114 0 1.97168.833 3.16211 2.27735 3.16211a2.79594 2.79594 0 0 0 2.10742-1.1387z" fill="#1a1a1a"/><path d="m412.18359 128.085a.97187.97187 0 0 1 1.93848 0 .9718.9718 0 0 1 -1.93848 0zm.25489 2.60156h1.39452v8.26075h-1.39453z" fill="#1a1a1a"/><path d="m416.85938 136.39746v-4.57226h-1.22364v-1.05372l1.292-.085.16993-2.3125h1.17285v2.3125h2.22656v1.13868h-2.22656v4.58886c0 1.02051.32226 1.59864 1.27441 1.59864a2.99372 2.99372 0 0 0 .93555-.22168l.27148 1.05468a5.11737 5.11737 0 0 1 -1.53027.30567c-1.76759.00004-2.36231-1.12203-2.36231-2.75387z" fill="#1a1a1a"/><path d="m424.81543 137.62109.71387-.918a3.67738 3.67738 0 0 0 2.7705 1.292 2.02073 2.02073 0 0 0 2.24317-1.98828c0-1.292-.88379-2.15918-3.4668-2.15918v-1.07032c2.31153 0 3.07617-.88476 3.07617-2.02343a1.66934 1.66934 0 0 0 -1.87011-1.7168 3.28821 3.28821 0 0 0 -2.31153 1.10547l-.748-.88477a4.46885 4.46885 0 0 1 3.11132-1.35937c1.88672 0 3.2461 1.00293 3.2461 2.7539a2.68679 2.68679 0 0 1 -1.97168 2.583v.06836a2.79836 2.79836 0 0 1 2.3457 2.75391c0 1.9209-1.58105 3.09375-3.56933 3.09375a4.606 4.606 0 0 1 -3.56938-1.53024z" fill="#1a1a1a"/><path d="m493.96094 134.834c0-2.70312 1.81836-4.35156 3.70508-4.35156 2.10839 0 3.29785 1.5127 3.29785 3.875a5.37267 5.37267 0 0 1 -.05078.79883h-5.5752a2.73983 2.73983 0 0 0 2.75293 2.87305 3.73829 3.73829 0 0 0 2.05762-.64551l.49218.918a4.9186 4.9186 0 0 1 -2.71972.84961c-2.20899-.00005-3.95996-1.61529-3.95996-4.31742zm5.77929-.68066c0-1.665-.748-2.56641-2.04-2.56641a2.551 2.551 0 0 0 -2.37989 2.56641z" fill="#1a1a1a"/><path d="m502.40918 134.834c0-2.68652 1.7002-4.35156 3.58691-4.35156a3.402 3.402 0 0 1 2.31153.95117l-.06836-1.41015v-3.17871h1.41113v12.10254h-1.15527l-.11914-.96875h-.05176a3.72478 3.72478 0 0 1 -2.49805 1.17285c-2.07417-.00002-3.41699-1.56448-3.41699-4.31739zm5.83008 2.00586v-4.31836a2.87153 2.87153 0 0 0 -2.00488-.86621c-1.32618 0-2.37989 1.27442-2.37989 3.16114 0 1.97168.833 3.16211 2.27735 3.16211a2.79594 2.79594 0 0 0 2.10742-1.1387z" fill="#1a1a1a"/><path d="m512.18359 128.085a.97187.97187 0 0 1 1.93848 0 .9718.9718 0 0 1 -1.93848 0zm.25489 2.60156h1.39452v8.26075h-1.39453z" fill="#1a1a1a"/><path d="m516.85938 136.39746v-4.57226h-1.22364v-1.05372l1.292-.085.16993-2.3125h1.17285v2.3125h2.22656v1.13868h-2.22656v4.58886c0 1.02051.32226 1.59864 1.27441 1.59864a2.99372 2.99372 0 0 0 .93555-.22168l.27148 1.05468a5.11737 5.11737 0 0 1 -1.53027.30567c-1.76759.00004-2.36231-1.12203-2.36231-2.75387z" fill="#1a1a1a"/><path d="m525.18945 133.93262c0-4.35157 1.97168-6.03418 4.12989-6.03418a3.42181 3.42181 0 0 1 2.61816 1.15625l-.78223.86621a2.362 2.362 0 0 0 -1.78515-.84961c-1.5127 0-2.78711 1.17285-2.85547 4.60644a3.46357 3.46357 0 0 1 2.5332-1.35937c1.86914 0 3.09375 1.12109 3.09375 3.34863a3.28021 3.28021 0 0 1 -3.21289 3.48438c-2.125 0-3.73926-1.73437-3.73926-5.21875zm5.626 1.73437c0-1.41113-.66309-2.29492-2.00586-2.29492a2.88767 2.88767 0 0 0 -2.26074 1.42773c.16992 2.10743 1.00293 3.2461 2.37988 3.2461 1.07027 0 1.8867-.95117 1.8867-2.3789z" fill="#1a1a1a"/><path d="m593.96094 134.834c0-2.70312 1.81836-4.35156 3.70508-4.35156 2.10839 0 3.29785 1.5127 3.29785 3.875a5.37267 5.37267 0 0 1 -.05078.79883h-5.5752a2.73983 2.73983 0 0 0 2.75293 2.87305 3.73829 3.73829 0 0 0 2.05762-.64551l.49218.918a4.9186 4.9186 0 0 1 -2.71972.84961c-2.20899-.00005-3.95996-1.61529-3.95996-4.31742zm5.77929-.68066c0-1.665-.748-2.56641-2.04-2.56641a2.551 2.551 0 0 0 -2.37989 2.56641z" fill="#1a1a1a"/><path d="m602.40918 134.834c0-2.68652 1.7002-4.35156 3.58691-4.35156a3.402 3.402 0 0 1 2.31153.95117l-.06836-1.41015v-3.17871h1.41113v12.10254h-1.15527l-.11914-.96875h-.05176a3.72478 3.72478 0 0 1 -2.498 1.17285c-2.07422-.00002-3.41704-1.56448-3.41704-4.31739zm5.83008 2.00586v-4.31836a2.87153 2.87153 0 0 0 -2.00488-.86621c-1.32618 0-2.37989 1.27442-2.37989 3.16114 0 1.97168.833 3.16211 2.27735 3.16211a2.79594 2.79594 0 0 0 2.10742-1.1387z" fill="#1a1a1a"/><path d="m612.18359 128.085a.97187.97187 0 0 1 1.93848 0 .9718.9718 0 0 1 -1.93848 0zm.25489 2.60156h1.39452v8.26075h-1.39453z" fill="#1a1a1a"/><path d="m616.85938 136.39746v-4.57226h-1.22364v-1.05372l1.292-.085.16993-2.3125h1.17285v2.3125h2.22656v1.13868h-2.22656v4.58886c0 1.02051.32226 1.59864 1.27441 1.59864a2.99372 2.99372 0 0 0 .93555-.22168l.27148 1.05468a5.11737 5.11737 0 0 1 -1.53027.30567c-1.76759.00004-2.36231-1.12203-2.36231-2.75387z" fill="#1a1a1a"/><path d="m630.52637 129.30957h-5.40528v-1.207h6.98633v.86719c-2.5664 3.28027-3.09375 5.74511-3.28125 9.97754h-1.44433a15.95974 15.95974 0 0 1 3.14453-9.63773z" fill="#1a1a1a"/><path d="m293.96 14.834c0-2.70312 1.81885-4.35156 3.70606-4.35156 2.10742 0 3.29736 1.5127 3.29736 3.875a5.43969 5.43969 0 0 1 -.05078.79883h-5.57569a2.74032 2.74032 0 0 0 2.75391 2.873 3.73506 3.73506 0 0 0 2.05664-.64551l.49316.918a4.9199 4.9199 0 0 1 -2.71972.84961c-2.21 0-3.96094-1.61524-3.96094-4.31737zm5.77979-.68066c0-1.665-.74805-2.56641-2.04-2.56641a2.55164 2.55164 0 0 0 -2.37989 2.56641z" fill="#1a1a1a"/><path d="m302.40918 14.834c0-2.68652 1.7002-4.35156 3.58691-4.35156a3.402 3.402 0 0 1 2.31153.95117l-.06836-1.41015v-3.17873h1.41113v12.10254h-1.15527l-.11914-.96875h-.05176a3.72478 3.72478 0 0 1 -2.49805 1.17285c-2.07417 0-3.41699-1.56446-3.41699-4.31737zm5.83008 2.00586v-4.31838a2.87153 2.87153 0 0 0 -2.00488-.86621c-1.32618 0-2.37989 1.27442-2.37989 3.16114 0 1.97168.833 3.16211 2.27735 3.16211a2.79594 2.79594 0 0 0 2.10742-1.13868z" fill="#1a1a1a"/><path d="m312.18359 8.085a.97187.97187 0 0 1 1.93848 0 .9718.9718 0 0 1 -1.93848 0zm.25489 2.60156h1.39452v8.26075h-1.39453z" fill="#1a1a1a"/><path d="m316.8584 16.39746v-4.57226h-1.22363v-1.05372l1.292-.085.16992-2.3125h1.17285v2.3125h2.22656v1.13872h-2.22656v4.58886c0 1.02051.32227 1.59864 1.27442 1.59864a2.99366 2.99366 0 0 0 .93554-.22168l.27149 1.05468a5.11743 5.11743 0 0 1 -1.53028.30567c-1.76759 0-2.36231-1.12207-2.36231-2.75391z" fill="#1a1a1a"/><path d="m325.05273 18.11426c3.26368-3.2461 5.09961-5.20117 5.09961-6.95215a1.92059 1.92059 0 0 0 -2.05664-2.125 3.19577 3.19577 0 0 0 -2.31152 1.30859l-.79883-.79882a4.25619 4.25619 0 0 1 3.28027-1.64844 3.01217 3.01217 0 0 1 3.24708 3.19531c0 2.04-1.85352 4.0625-4.41993 6.749.59473-.05175 1.25782-.10254 1.81836-.10254h3.14551v1.207h-7.00391z" fill="#1a1a1a"/><path d="m393.96094 14.834c0-2.70312 1.81836-4.35156 3.70508-4.35156 2.10839 0 3.29785 1.5127 3.29785 3.875a5.37267 5.37267 0 0 1 -.05078.79883h-5.5752a2.73983 2.73983 0 0 0 2.75293 2.873 3.73829 3.73829 0 0 0 2.05762-.64551l.49218.918a4.9186 4.9186 0 0 1 -2.71972.84961c-2.20899 0-3.95996-1.61524-3.95996-4.31737zm5.77929-.68066c0-1.665-.748-2.56641-2.04-2.56641a2.551 2.551 0 0 0 -2.37989 2.56641z" fill="#1a1a1a"/><path d="m402.40918 14.834c0-2.68652 1.7002-4.35156 3.58691-4.35156a3.402 3.402 0 0 1 2.31153.95117l-.06836-1.41015v-3.17873h1.41113v12.10254h-1.15527l-.11914-.96875h-.05176a3.72478 3.72478 0 0 1 -2.49805 1.17285c-2.07417 0-3.41699-1.56446-3.41699-4.31737zm5.83008 2.00586v-4.31838a2.87153 2.87153 0 0 0 -2.00488-.86621c-1.32618 0-2.37989 1.27442-2.37989 3.16114 0 1.97168.833 3.16211 2.27735 3.16211a2.79594 2.79594 0 0 0 2.10742-1.13868z" fill="#1a1a1a"/><path d="m412.18359 8.085a.97187.97187 0 0 1 1.93848 0 .9718.9718 0 0 1 -1.93848 0zm.25489 2.60156h1.39452v8.26075h-1.39453z" fill="#1a1a1a"/><path d="m416.85938 16.39746v-4.57226h-1.22364v-1.05372l1.292-.085.16993-2.3125h1.17285v2.3125h2.22656v1.13872h-2.22656v4.58886c0 1.02051.32226 1.59864 1.27441 1.59864a2.99372 2.99372 0 0 0 .93555-.22168l.27148 1.05468a5.11737 5.11737 0 0 1 -1.53027.30567c-1.76759 0-2.36231-1.12207-2.36231-2.75391z" fill="#1a1a1a"/><path d="m424.81543 17.62109.71387-.918a3.67738 3.67738 0 0 0 2.7705 1.292 2.02073 2.02073 0 0 0 2.24317-1.98828c0-1.292-.88379-2.15918-3.4668-2.15918v-1.07029c2.31153 0 3.07617-.88476 3.07617-2.02343a1.66934 1.66934 0 0 0 -1.87011-1.7168 3.28821 3.28821 0 0 0 -2.31153 1.10547l-.748-.88477a4.46885 4.46885 0 0 1 3.1113-1.35937c1.88672 0 3.2461 1.00293 3.2461 2.7539a2.68679 2.68679 0 0 1 -1.97168 2.583v.06836a2.79836 2.79836 0 0 1 2.3457 2.75391c0 1.9209-1.58105 3.09375-3.56933 3.09375a4.606 4.606 0 0 1 -3.56936-1.53027z" fill="#1a1a1a"/><path d="m493.96094 14.834c0-2.70312 1.81836-4.35156 3.70508-4.35156 2.10839 0 3.29785 1.5127 3.29785 3.875a5.37267 5.37267 0 0 1 -.05078.79883h-5.5752a2.73983 2.73983 0 0 0 2.75293 2.873 3.73829 3.73829 0 0 0 2.05762-.64551l.49218.918a4.9186 4.9186 0 0 1 -2.71972.84961c-2.20899 0-3.95996-1.61524-3.95996-4.31737zm5.77929-.68066c0-1.665-.748-2.56641-2.04-2.56641a2.551 2.551 0 0 0 -2.37989 2.56641z" fill="#1a1a1a"/><path d="m502.40918 14.834c0-2.68652 1.7002-4.35156 3.58691-4.35156a3.402 3.402 0 0 1 2.31153.95117l-.06836-1.41015v-3.17873h1.41113v12.10254h-1.15527l-.11914-.96875h-.05176a3.72478 3.72478 0 0 1 -2.49805 1.17285c-2.07417 0-3.41699-1.56446-3.41699-4.31737zm5.83008 2.00586v-4.31838a2.87153 2.87153 0 0 0 -2.00488-.86621c-1.32618 0-2.37989 1.27442-2.37989 3.16114 0 1.97168.833 3.16211 2.27735 3.16211a2.79594 2.79594 0 0 0 2.10742-1.13868z" fill="#1a1a1a"/><path d="m512.18359 8.085a.97187.97187 0 0 1 1.93848 0 .9718.9718 0 0 1 -1.93848 0zm.25489 2.60156h1.39452v8.26075h-1.39453z" fill="#1a1a1a"/><path d="m516.85938 16.39746v-4.57226h-1.22364v-1.05372l1.292-.085.16993-2.3125h1.17285v2.3125h2.22656v1.13872h-2.22656v4.58886c0 1.02051.32226 1.59864 1.27441 1.59864a2.99372 2.99372 0 0 0 .93555-.22168l.27148 1.05468a5.11737 5.11737 0 0 1 -1.53027.30567c-1.76759 0-2.36231-1.12207-2.36231-2.75391z" fill="#1a1a1a"/><path d="m529.541 15.95605h-4.87891v-.918l4.64062-6.93555h1.56348v6.7315h1.47949v1.12207h-1.47949v2.99122h-1.32519zm0-1.12207v-3.14453c0-.57812.05078-1.51367.085-2.09082h-.06836c-.27246.52637-.57813 1.00293-.88379 1.5293l-2.53323 3.70607z" fill="#1a1a1a"/><path d="m593.96094 14.834c0-2.70312 1.81836-4.35156 3.70508-4.35156 2.10839 0 3.29785 1.5127 3.29785 3.875a5.37267 5.37267 0 0 1 -.05078.79883h-5.5752a2.73983 2.73983 0 0 0 2.75293 2.873 3.73829 3.73829 0 0 0 2.05762-.64551l.49218.918a4.9186 4.9186 0 0 1 -2.71972.84961c-2.20899 0-3.95996-1.61524-3.95996-4.31737zm5.77929-.68066c0-1.665-.748-2.56641-2.04-2.56641a2.551 2.551 0 0 0 -2.37989 2.56641z" fill="#1a1a1a"/><path d="m602.40918 14.834c0-2.68652 1.7002-4.35156 3.58691-4.35156a3.402 3.402 0 0 1 2.31153.95117l-.06836-1.41015v-3.17873h1.41113v12.10254h-1.15527l-.11914-.96875h-.05176a3.72478 3.72478 0 0 1 -2.498 1.17285c-2.07422 0-3.41704-1.56446-3.41704-4.31737zm5.83008 2.00586v-4.31838a2.87153 2.87153 0 0 0 -2.00488-.86621c-1.32618 0-2.37989 1.27442-2.37989 3.16114 0 1.97168.833 3.16211 2.27735 3.16211a2.79594 2.79594 0 0 0 2.10742-1.13868z" fill="#1a1a1a"/><path d="m612.18359 8.085a.97187.97187 0 0 1 1.93848 0 .9718.9718 0 0 1 -1.93848 0zm.25489 2.60156h1.39452v8.26075h-1.39453z" fill="#1a1a1a"/><path d="m616.85938 16.39746v-4.57226h-1.22364v-1.05372l1.292-.085.16993-2.3125h1.17285v2.3125h2.22656v1.13872h-2.22656v4.58886c0 1.02051.32226 1.59864 1.27441 1.59864a2.99372 2.99372 0 0 0 .93555-.22168l.27148 1.05468a5.11737 5.11737 0 0 1 -1.53027.30567c-1.76759 0-2.36231-1.12207-2.36231-2.75391z" fill="#1a1a1a"/><path d="m624.79785 17.67285.67969-.918a3.69183 3.69183 0 0 0 2.7373 1.24024 2.34 2.34 0 0 0 2.37989-2.48145 2.17926 2.17926 0 0 0 -2.3125-2.37988 3.05492 3.05492 0 0 0 -1.85254.66309l-.74805-.47559.35742-5.21875h5.42188v1.207h-4.19824l-.28907 3.21191a3.33485 3.33485 0 0 1 1.666-.4414 3.12165 3.12165 0 0 1 3.36523 3.39941 3.54611 3.54611 0 0 1 -3.65429 3.67188 4.75834 4.75834 0 0 1 -3.55272-1.47846z" fill="#1a1a1a"/><path d="m393.96094 54.834c0-2.70312 1.81836-4.35156 3.70508-4.35156 2.10839 0 3.29785 1.5127 3.29785 3.875a5.37267 5.37267 0 0 1 -.05078.79883h-5.5752a2.73983 2.73983 0 0 0 2.75293 2.873 3.73829 3.73829 0 0 0 2.05762-.64551l.49218.918a4.9186 4.9186 0 0 1 -2.71972.84961c-2.20899 0-3.95996-1.61524-3.95996-4.31737zm5.77929-.68066c0-1.665-.748-2.56641-2.04-2.56641a2.551 2.551 0 0 0 -2.37989 2.56641z" fill="#808080"/><path d="m402.40918 54.834c0-2.68652 1.7002-4.35156 3.58691-4.35156a3.402 3.402 0 0 1 2.31153.95117l-.06836-1.41015v-3.17873h1.41113v12.10254h-1.15527l-.11914-.96875h-.05176a3.72478 3.72478 0 0 1 -2.49805 1.17285c-2.07417 0-3.41699-1.56446-3.41699-4.31737zm5.83008 2.00586v-4.31838a2.87153 2.87153 0 0 0 -2.00488-.86621c-1.32618 0-2.37989 1.27442-2.37989 3.16114 0 1.97168.833 3.16211 2.27735 3.16211a2.79594 2.79594 0 0 0 2.10742-1.13868z" fill="#808080"/><path d="m412.18359 48.085a.97187.97187 0 0 1 1.93848 0 .9718.9718 0 0 1 -1.93848 0zm.25489 2.60156h1.39452v8.26075h-1.39453z" fill="#808080"/><path d="m416.85938 56.39746v-4.57226h-1.22364v-1.05372l1.292-.085.16993-2.3125h1.17285v2.3125h2.22656v1.13872h-2.22656v4.58886c0 1.02051.32226 1.59864 1.27441 1.59864a2.99372 2.99372 0 0 0 .93555-.22168l.27148 1.05468a5.11737 5.11737 0 0 1 -1.53027.30567c-1.76759 0-2.36231-1.12207-2.36231-2.75391z" fill="#808080"/><path d="m424.81543 57.62109.71387-.918a3.67738 3.67738 0 0 0 2.7705 1.292 2.02073 2.02073 0 0 0 2.24317-1.98828c0-1.292-.88379-2.15918-3.4668-2.15918v-1.07029c2.31153 0 3.07617-.88476 3.07617-2.02343a1.66934 1.66934 0 0 0 -1.87011-1.7168 3.28821 3.28821 0 0 0 -2.31153 1.10547l-.748-.88477a4.46885 4.46885 0 0 1 3.11132-1.35937c1.88672 0 3.2461 1.00293 3.2461 2.7539a2.68679 2.68679 0 0 1 -1.97168 2.583v.06836a2.79836 2.79836 0 0 1 2.3457 2.75391c0 1.9209-1.58105 3.09375-3.56933 3.09375a4.606 4.606 0 0 1 -3.56938-1.53027z" fill="#808080"/></svg>