<svg height="55" viewBox="0 0 365.66667 55" width="365.66667" xmlns="http://www.w3.org/2000/svg"><rect fill="#1a1a1a" height="49" rx="7.5" width="49" x="109.75" y="2.80436"/><path d="m151.25 3.304a7.00792 7.00792 0 0 1 7 7v34a7.00793 7.00793 0 0 1 -7 7h-34a7.00793 7.00793 0 0 1 -7-7v-34a7.00793 7.00793 0 0 1 7-7h34m0-1h-34a8.02351 8.02351 0 0 0 -8 8v34a8.02353 8.02353 0 0 0 8 8h34a8.02353 8.02353 0 0 0 8-8v-34a8.02352 8.02352 0 0 0 -8-8z" fill="#808080"/><path d="m140.9541 22.34928h-13.08789l.64014-2.55957h16.67187l-.54394 2.5918-17.28028 17.69629h14.59229l-.54395 2.55957h-18.11234l.544-2.52737z" fill="#fff"/><rect fill="#1a1a1a" height="49" rx="7.5" width="99" x="4.25" y="2.85026"/><path d="m95.75 3.35066a7.00792 7.00792 0 0 1 7 7v34a7.00793 7.00793 0 0 1 -7 7h-84a7.00793 7.00793 0 0 1 -7-7v-34a7.00792 7.00792 0 0 1 7-7h84m0-1h-84a8.02352 8.02352 0 0 0 -8 8v34a8.02351 8.02351 0 0 0 8 8h84a8.02351 8.02351 0 0 0 8-8v-34a8.02352 8.02352 0 0 0 -8-8z" fill="#808080"/><g fill="#fff"><path d="m48.31006 30.28678a3.3098 3.3098 0 0 0 -2.32031-.76855 4.86941 4.86941 0 0 0 -2.5083.63769 5.9872 5.9872 0 0 0 -1.82715 1.65332 7.46049 7.46049 0 0 0 -1.11621 2.27637 8.62284 8.62284 0 0 0 -.377 2.47949 7.03064 7.03064 0 0 0 .18848 1.65332 3.67339 3.67339 0 0 0 .62353 1.36231 3.1035 3.1035 0 0 0 1.14551.92871 3.9734 3.9734 0 0 0 1.7544.34766 4.44217 4.44217 0 0 0 2.72607-.84082 4.82637 4.82637 0 0 0 1.65283-2.2334h2.46489a6.83593 6.83593 0 0 1 -2.436 3.88574 7.1104 7.1104 0 0 1 -4.40771 1.334 5.98676 5.98676 0 0 1 -4.62553-1.68162 6.75487 6.75487 0 0 1 -1.55176-4.7559 11.10676 11.10676 0 0 1 .53662-3.45117 8.94278 8.94278 0 0 1 1.59522-2.94336 7.79644 7.79644 0 0 1 2.60986-2.05857 7.89468 7.89468 0 0 1 3.55225-.76856 6.163 6.163 0 0 1 4.04589 1.23243 4.96 4.96 0 0 1 1.58008 3.87109h-2.46484a2.77791 2.77791 0 0 0 -.84082-2.16018z"/><path d="m64.23047 27.69108-.46387 2.17481h-2.9873l-1.856 8.8164c-.01953.17383-.03906.33789-.05811.49317a4.022 4.022 0 0 0 -.0288.49218.80362.80362 0 0 0 .4497.79785 2.33959 2.33959 0 0 0 1.0293.21778 3.51553 3.51553 0 0 0 .7251-.07324 5.93632 5.93632 0 0 0 .6958-.18848l-.43506 2.26269q-.43506.05713-.86963.10157-.43506.04248-.87012.043a7.97854 7.97854 0 0 1 -1.30517-.10157 2.90685 2.90685 0 0 1 -1.0586-.377 2.11458 2.11458 0 0 1 -.72461-.73926 2.29608 2.29608 0 0 1 -.27587-1.18945 4.06255 4.06255 0 0 1 .04394-.6084q.04321-.29.10108-.63769l1.97216-9.30957h-2.523l.46387-2.17481h2.523l.92822-4.4375h2.46485l-.92774 4.4375z"/><path d="m71.45117 27.69108-.7251 3.21875h.05811a8.217 8.217 0 0 1 2.21826-2.55176 5.22137 5.22137 0 0 1 3.2334-1.01465 3.0484 3.0484 0 0 0 .43506-.02929 1.118 1.118 0 0 1 .43506.02929l-.58008 2.63868a1.70706 1.70706 0 0 0 -.377-.0293h-.34766q-.46436 0-.75439.01465a3.63779 3.63779 0 0 0 -.72461.13086 4.76275 4.76275 0 0 0 -1.8125.89843 6.39025 6.39025 0 0 0 -1.37793 1.53711 6.087 6.087 0 0 0 -.78272 1.69629q-.29.97266-.46387 1.8125l-1.42138 6.6416h-2.436l3.103-14.99316z"/><path d="m84.646 21.97819-4.3501 20.70605h-2.436l4.32129-20.706z"/></g><rect fill="#1a1a1a" height="49" rx="7.5" width="49" x="313.25" y="2.78101"/><path d="m354.75 3.28062a7.00793 7.00793 0 0 1 7 7v34a7.00794 7.00794 0 0 1 -7 7h-34a7.00794 7.00794 0 0 1 -7-7v-34a7.00793 7.00793 0 0 1 7-7zm0-1h-34a8.02352 8.02352 0 0 0 -8 8v34a8.02353 8.02353 0 0 0 8 8h34a8.02353 8.02353 0 0 0 8-8v-34a8.02352 8.02352 0 0 0 -8-8z" fill="#808080"/><path d="m330.08594 19.76628h3.23242l4.67187 11.07226 8.67188-11.07226h3.52l-11.07176 13.66406-1.98435 9.18359h-2.9761l1.95215-9.18359z" fill="#fff"/><rect fill="#1a1a1a" height="49" rx="7.5" width="99" x="207.75" y="2.82691"/><path d="m299.25 3.32731a7.00793 7.00793 0 0 1 7 7v34a7.00794 7.00794 0 0 1 -7 7h-84a7.00793 7.00793 0 0 1 -7-7v-34a7.00792 7.00792 0 0 1 7-7h84m0-1h-84a8.02353 8.02353 0 0 0 -8 8v34a8.02352 8.02352 0 0 0 8 8h84a8.02352 8.02352 0 0 0 8-8v-34a8.02353 8.02353 0 0 0 -8-8z" fill="#808080"/><path d="m251.81006 30.26335a3.30975 3.30975 0 0 0 -2.32031-.76856 4.86039 4.86039 0 0 0 -2.5083.63867 5.97154 5.97154 0 0 0 -1.82715 1.65235 7.46044 7.46044 0 0 0 -1.11621 2.27636 8.62291 8.62291 0 0 0 -.377 2.4795 7.0307 7.0307 0 0 0 .18848 1.65332 3.66622 3.66622 0 0 0 .62353 1.3623 3.10341 3.10341 0 0 0 1.14551.92871 3.9734 3.9734 0 0 0 1.7544.34766 4.4421 4.4421 0 0 0 2.72607-.84082 4.8236 4.8236 0 0 0 1.65283-2.23242h2.46485a6.83333 6.83333 0 0 1 -2.436 3.88476 7.10425 7.10425 0 0 1 -4.40771 1.334 5.98679 5.98679 0 0 1 -4.62549-1.68164 6.7549 6.7549 0 0 1 -1.55176-4.75586 11.10678 11.10678 0 0 1 .53662-3.45118 8.95241 8.95241 0 0 1 1.59522-2.94335 7.80861 7.80861 0 0 1 2.60986-2.0586 7.90771 7.90771 0 0 1 3.55225-.76855 6.16838 6.16838 0 0 1 4.04589 1.23242 4.96078 4.96078 0 0 1 1.58008 3.87207h-2.46484a2.78006 2.78006 0 0 0 -.84082-2.16114z" fill="#fff"/><path d="m267.73047 27.66764-.46387 2.17481h-2.9873l-1.856 8.8164c-.01953.17383-.03906.33789-.05811.49317a4.05006 4.05006 0 0 0 -.0288.49316.80309.80309 0 0 0 .4497.79688 2.33973 2.33973 0 0 0 1.0293.21777 3.51484 3.51484 0 0 0 .7251-.07324 5.92806 5.92806 0 0 0 .6958-.1875l-.43506 2.26172c-.29.03906-.57959.07226-.86963.10156a8.6503 8.6503 0 0 1 -.87012.043 7.87271 7.87271 0 0 1 -1.30517-.10156 2.88917 2.88917 0 0 1 -1.0586-.377 2.11455 2.11455 0 0 1 -.72461-.73925 2.29479 2.29479 0 0 1 -.27587-1.18848 4.06626 4.06626 0 0 1 .04394-.60938q.04321-.29.10108-.63769l1.97216-9.30957h-2.523l.46387-2.17481h2.52295l.92822-4.43652h2.46485l-.92774 4.43652z" fill="#fff"/><path d="m274.95117 27.66764-.7251 3.21973h.05811a8.22056 8.22056 0 0 1 2.21826-2.55273 5.22736 5.22736 0 0 1 3.2334-1.01465 3.04835 3.04835 0 0 0 .43506-.0293 1.15672 1.15672 0 0 1 .43506.0293l-.58008 2.63867a1.786 1.786 0 0 0 -.37695-.02832h-.34766c-.30957 0-.561.0039-.75439.01367a3.63852 3.63852 0 0 0 -.72461.13086 4.77676 4.77676 0 0 0 -1.8125.89844 6.38987 6.38987 0 0 0 -1.37793 1.53711 6.0932 6.0932 0 0 0 -.78272 1.69726q-.29.97119-.46387 1.8125l-1.42138 6.64063h-2.436l3.103-14.99317z" fill="#fff"/><path d="m288.146 21.95475-4.3501 20.70606h-2.436l4.32129-20.70606z" fill="#fff"/><path d="m181.48438 29.71257h-8.95069v-4.2002h8.95069v-9.4502h4.35009v9.4502h8.95069v4.2002h-8.95069v9.45117h-4.35009z" fill="#f2f2f2"/></svg>