<svg xmlns="http://www.w3.org/2000/svg" viewBox="0 0 760 725"><title>comb-dia-1</title><rect x="0.5" y="0.5" width="759" height="724" rx="3.5" ry="3.5" fill="#141414"/><path d="M756,1a3.00344,3.00344,0,0,1,3,3V721a3.00344,3.00344,0,0,1-3,3H4a3.00336,3.00336,0,0,1-3-3V4A3.00336,3.00336,0,0,1,4,1H756m0-1H4A4,4,0,0,0,0,4V721a4,4,0,0,0,4,4H756a4,4,0,0,0,4-4V4a4,4,0,0,0-4-4Z" fill="#666"/><rect x="10" y="35" width="740" height="320"/><rect x="10" y="395" width="740" height="320"/><line x1="70" y1="35" x2="70" y2="355" fill="none" stroke="#202020"/><line x1="50" y1="35" x2="50" y2="355" fill="none" stroke="#202020"/><line x1="90" y1="35" x2="90" y2="355" fill="none" stroke="#202020"/><line x1="110" y1="35" x2="110" y2="355" fill="none" stroke="#202020"/><line x1="130" y1="35" x2="130" y2="355" fill="none" stroke="#202020"/><line x1="150" y1="35" x2="150" y2="355" fill="none" stroke="#202020"/><line x1="170" y1="35" x2="170" y2="355" fill="none" stroke="#202020"/><line x1="190" y1="35" x2="190" y2="355" fill="none" stroke="#202020"/><line x1="210" y1="35" x2="210" y2="355" fill="none" stroke="#202020"/><line x1="230" y1="35" x2="230" y2="355" fill="none" stroke="#202020"/><line x1="250" y1="35" x2="250" y2="355" fill="none" stroke="#202020"/><line x1="270" y1="35" x2="270" y2="355" fill="none" stroke="#202020"/><line x1="290" y1="35" x2="290" y2="355" fill="none" stroke="#202020"/><line x1="310" y1="35" x2="310" y2="355" fill="none" stroke="#202020"/><line x1="330" y1="35" x2="330" y2="355" fill="none" stroke="#202020"/><line x1="9.99996" y1="134.9986" x2="749.9999" y2="134.9986" fill="none" stroke="#202020"/><line x1="9.99996" y1="155.00014" x2="749.9999" y2="155.00014" fill="none" stroke="#202020"/><line x1="9.99996" y1="114.9986" x2="749.9999" y2="114.9986" fill="none" stroke="#202020"/><line x1="9.99996" y1="94.9986" x2="749.9999" y2="94.9986" fill="none" stroke="#202020"/><line x1="9.99996" y1="74.9986" x2="749.9999" y2="74.9986" fill="none" stroke="#202020"/><line x1="9.99996" y1="54.9986" x2="749.9999" y2="54.9986" fill="none" stroke="#202020"/><line x1="9.99996" y1="275.00033" x2="749.9999" y2="275.00033" fill="none" stroke="#202020"/><line x1="9.99996" y1="295.00187" x2="749.9999" y2="295.00187" fill="none" stroke="#202020"/><line x1="9.99996" y1="315.00033" x2="749.9999" y2="315.00033" fill="none" stroke="#202020"/><line x1="9.99996" y1="335.00033" x2="749.9999" y2="335.00033" fill="none" stroke="#202020"/><line x1="9.99996" y1="255.00033" x2="749.9999" y2="255.00033" fill="none" stroke="#202020"/><line x1="9.99996" y1="235.00033" x2="749.9999" y2="235.00033" fill="none" stroke="#202020"/><line x1="9.99996" y1="215.00033" x2="749.9999" y2="215.00033" fill="none" stroke="#202020"/><line x1="9.99996" y1="195.00033" x2="749.9999" y2="195.00033" fill="none" stroke="#202020"/><line x1="9.99996" y1="175.00033" x2="749.9999" y2="175.00033" fill="none" stroke="#202020"/><line x1="30" y1="35" x2="30" y2="355" fill="none" stroke="#202020"/><line x1="390" y1="35" x2="390" y2="355" fill="none" stroke="#202020"/><line x1="370" y1="35" x2="370" y2="355" fill="none" stroke="#202020"/><line x1="410" y1="35" x2="410" y2="355" fill="none" stroke="#202020"/><line x1="430" y1="35" x2="430" y2="355" fill="none" stroke="#202020"/><line x1="450" y1="35" x2="450" y2="355" fill="none" stroke="#202020"/><line x1="470" y1="35" x2="470" y2="355" fill="none" stroke="#202020"/><line x1="490" y1="35" x2="490" y2="355" fill="none" stroke="#202020"/><line x1="510" y1="35" x2="510" y2="355" fill="none" stroke="#202020"/><line x1="530" y1="35" x2="530" y2="355" fill="none" stroke="#202020"/><line x1="550" y1="35" x2="550" y2="355" fill="none" stroke="#202020"/><line x1="570" y1="35" x2="570" y2="355" fill="none" stroke="#202020"/><line x1="590" y1="35" x2="590" y2="355" fill="none" stroke="#202020"/><line x1="610" y1="35" x2="610" y2="355" fill="none" stroke="#202020"/><line x1="630" y1="35" x2="630" y2="355" fill="none" stroke="#202020"/><line x1="650" y1="35" x2="650" y2="355" fill="none" stroke="#202020"/><line x1="670" y1="35" x2="670" y2="355" fill="none" stroke="#202020"/><line x1="690" y1="35" x2="690" y2="355" fill="none" stroke="#202020"/><line x1="710" y1="35" x2="710" y2="355" fill="none" stroke="#202020"/><line x1="730" y1="35" x2="730" y2="355" fill="none" stroke="#202020"/><line x1="350" y1="35" x2="350" y2="355" fill="none" stroke="#202020"/><line x1="70" y1="395" x2="70" y2="715" fill="none" stroke="#202020"/><line x1="50" y1="395" x2="50" y2="715" fill="none" stroke="#202020"/><line x1="90" y1="395" x2="90" y2="715" fill="none" stroke="#202020"/><line x1="110" y1="395" x2="110" y2="715" fill="none" stroke="#202020"/><line x1="130" y1="395" x2="130" y2="715" fill="none" stroke="#202020"/><line x1="150" y1="395" x2="150" y2="715" fill="none" stroke="#202020"/><line x1="170" y1="395" x2="170" y2="715" fill="none" stroke="#202020"/><line x1="190" y1="395" x2="190" y2="715" fill="none" stroke="#202020"/><line x1="210" y1="395" x2="210" y2="715" fill="none" stroke="#202020"/><line x1="230" y1="395" x2="230" y2="715" fill="none" stroke="#202020"/><line x1="250" y1="395" x2="250" y2="715" fill="none" stroke="#202020"/><line x1="270" y1="395" x2="270" y2="715" fill="none" stroke="#202020"/><line x1="290" y1="395" x2="290" y2="715" fill="none" stroke="#202020"/><line x1="310" y1="395" x2="310" y2="715" fill="none" stroke="#202020"/><line x1="330" y1="395" x2="330" y2="715" fill="none" stroke="#202020"/><line x1="9.99997" y1="494.99796" x2="749.99996" y2="494.99796" fill="none" stroke="#202020"/><line x1="9.99997" y1="514.9995" x2="749.99996" y2="514.9995" fill="none" stroke="#202020"/><line x1="9.99997" y1="474.99796" x2="749.99996" y2="474.99796" fill="none" stroke="#202020"/><line x1="9.99997" y1="454.99796" x2="749.99996" y2="454.99796" fill="none" stroke="#202020"/><line x1="9.99997" y1="434.99796" x2="749.99996" y2="434.99796" fill="none" stroke="#202020"/><line x1="9.99997" y1="415.00002" x2="749.99996" y2="415.00002" fill="none" stroke="#202020"/><line x1="9.99997" y1="634.99969" x2="749.99996" y2="634.99969" fill="none" stroke="#202020"/><line x1="9.99997" y1="655.00123" x2="749.99996" y2="655.00123" fill="none" stroke="#202020"/><line x1="9.99997" y1="674.99969" x2="749.99996" y2="674.99969" fill="none" stroke="#202020"/><line x1="9.99997" y1="694.99969" x2="749.99996" y2="694.99969" fill="none" stroke="#202020"/><line x1="9.99997" y1="614.99969" x2="749.99996" y2="614.99969" fill="none" stroke="#202020"/><line x1="9.99997" y1="594.99969" x2="749.99996" y2="594.99969" fill="none" stroke="#202020"/><line x1="9.99997" y1="574.99969" x2="749.99996" y2="574.99969" fill="none" stroke="#202020"/><line x1="9.99997" y1="554.99969" x2="749.99996" y2="554.99969" fill="none" stroke="#202020"/><line x1="9.99997" y1="534.99969" x2="749.99996" y2="534.99969" fill="none" stroke="#202020"/><line x1="30" y1="395" x2="30" y2="715" fill="none" stroke="#202020"/><line x1="390" y1="395" x2="390" y2="715" fill="none" stroke="#202020"/><line x1="370" y1="395" x2="370" y2="715" fill="none" stroke="#202020"/><line x1="410" y1="395" x2="410" y2="715" fill="none" stroke="#202020"/><line x1="430" y1="395" x2="430" y2="715" fill="none" stroke="#202020"/><line x1="450" y1="395" x2="450" y2="715" fill="none" stroke="#202020"/><line x1="470" y1="395" x2="470" y2="715" fill="none" stroke="#202020"/><line x1="490" y1="395" x2="490" y2="715" fill="none" stroke="#202020"/><line x1="510" y1="395" x2="510" y2="715" fill="none" stroke="#202020"/><line x1="530" y1="395" x2="530" y2="715" fill="none" stroke="#202020"/><line x1="550" y1="395" x2="550" y2="715" fill="none" stroke="#202020"/><line x1="570" y1="395" x2="570" y2="715" fill="none" stroke="#202020"/><line x1="590" y1="395" x2="590" y2="715" fill="none" stroke="#202020"/><line x1="610" y1="395" x2="610" y2="715" fill="none" stroke="#202020"/><line x1="630" y1="395" x2="630" y2="715" fill="none" stroke="#202020"/><line x1="650" y1="395" x2="650" y2="715" fill="none" stroke="#202020"/><line x1="670" y1="395" x2="670" y2="715" fill="none" stroke="#202020"/><line x1="690" y1="395" x2="690" y2="715" fill="none" stroke="#202020"/><line x1="710" y1="395" x2="710" y2="715" fill="none" stroke="#202020"/><line x1="730" y1="395" x2="730" y2="715" fill="none" stroke="#202020"/><line x1="350" y1="395" x2="350" y2="715" fill="none" stroke="#202020"/><rect x="10" y="10" width="740" height="25" fill="#363636"/><rect x="10" y="370" width="740" height="25" fill="#363636"/><path d="M325.63135,375.522h1.49414V387.3335h-1.49414Z" fill="#cacaca"/><path d="M330.22119,378.58252h1.22412l.126,1.26074h.0542a4.12517,4.12517,0,0,1,2.93506-1.47656c1.83642,0,2.66455,1.18848,2.66455,3.4209v5.5459h-1.47656v-5.34766c0-1.63867-.50391-2.34082-1.65625-2.34082-.9004,0-1.5127.46875-2.395,1.35059v6.33789h-1.47608Z" fill="#cacaca"/><path d="M338.80664,378.58252h1.53027l1.65625,4.96973c.25245.86425.54053,1.74707.81055,2.57519h.07178c.25244-.82812.54053-1.71094.79248-2.57519l1.65625-4.96973h1.45849l-3.09667,8.751h-1.72852Z" fill="#cacaca"/><path d="M347.75244,382.97607c0-2.8623,1.92676-4.60937,3.92529-4.60937,2.23243,0,3.49317,1.60254,3.49317,4.10547a5.70028,5.70028,0,0,1-.0542.8457h-5.90576a2.90175,2.90175,0,0,0,2.917,3.043,3.95534,3.95534,0,0,0,2.17871-.68359l.522.97168a5.20968,5.20968,0,0,1-2.88086.90039C349.60693,387.54932,347.75244,385.83936,347.75244,382.97607Zm6.12207-.71972c0-1.76465-.79248-2.71875-2.16064-2.71875a2.70271,2.70271,0,0,0-2.521,2.71875Z" fill="#cacaca"/><path d="M357.32861,378.58252h1.22412l.126,1.585h.0542a2.99317,2.99317,0,0,1,2.48486-1.80078,2.17384,2.17384,0,0,1,.936.17969l-.28809,1.29687a2.45185,2.45185,0,0,0-.84619-.14453c-.73828,0-1.6206.541-2.21484,2.01758v5.61719h-1.47608Z" fill="#cacaca"/><path d="M363.82617,384.63232v-4.84277h-1.29638v-1.11621l1.36865-.09082.17968-2.44824h1.24268v2.44824h2.3584v1.207h-2.3584v4.86133c0,1.08008.3418,1.69238,1.3501,1.69238a3.16839,3.16839,0,0,0,.99023-.23437l.28809,1.11621a5.39688,5.39688,0,0,1-1.62012.32422C364.45654,387.54932,363.82617,386.36084,363.82617,384.63232Z" fill="#cacaca"/><path d="M368.7583,382.97607c0-2.8623,1.92676-4.60937,3.92529-4.60937,2.23243,0,3.49317,1.60254,3.49317,4.10547a5.70028,5.70028,0,0,1-.0542.8457H370.2168a2.90175,2.90175,0,0,0,2.917,3.043,3.95534,3.95534,0,0,0,2.17871-.68359l.522.97168a5.20971,5.20971,0,0,1-2.88086.90039C370.61279,387.54932,368.7583,385.83936,368.7583,382.97607Zm6.12207-.71972c0-1.76465-.79248-2.71875-2.16064-2.71875a2.70271,2.70271,0,0,0-2.521,2.71875Z" fill="#cacaca"/><path d="M377.7041,382.97607c0-2.84472,1.80078-4.60937,3.79932-4.60937a3.603,3.603,0,0,1,2.44873,1.00879l-.07227-1.49512v-3.36719h1.49463V387.3335H384.1499l-.126-1.02637h-.05372a3.94939,3.94939,0,0,1-2.647,1.24219C379.12646,387.54932,377.7041,385.89307,377.7041,382.97607Zm6.17578,2.125v-4.57324a3.04276,3.04276,0,0,0-2.12451-.91894c-1.4043,0-2.521,1.35058-2.521,3.34961,0,2.08789.88232,3.34863,2.41308,3.34863A2.96315,2.96315,0,0,0,383.87988,385.10107Z" fill="#cacaca"/><path d="M392.06836,375.522h1.80029l2.269,6.30176c.28808.81055.5581,1.65625.84619,2.4668h.07177c.28809-.81055.52246-1.65625.81055-2.4668l2.23242-6.30176H401.917V387.3335H400.5127v-6.5c0-1.04395.126-2.44825.19824-3.49317h-.07227l-.936,2.68262-2.23291,6.12207h-.99024l-2.23242-6.12207-.93652-2.68262h-.07178c.07178,1.04492.17969,2.44922.17969,3.49317v6.5h-1.3501Z" fill="#cacaca"/><path d="M404.73975,375.82764a1.02884,1.02884,0,0,1,2.05224,0,1.02876,1.02876,0,0,1-2.05224,0Zm.27,2.75488h1.47656v8.751h-1.47656Z" fill="#cacaca"/><path d="M411.07568,382.76025l-2.64648-4.17773h1.60254l1.17041,1.92676c.27.46875.5581.97265.86426,1.459h.07177c.252-.48633.522-.99023.79248-1.459l1.062-1.92676H415.541l-2.64649,4.33984,2.84473,4.41114h-1.60254l-1.27832-2.03418c-.30615-.52246-.63037-1.0625-.9541-1.56739H411.832c-.30615.50489-.59424,1.02637-.88232,1.56739l-1.188,2.03418h-1.54883Z" fill="#cacaca"/><path d="M307.36182,15.521h1.54834l4.26709,7.418,1.2788,2.44922h.07178c-.07178-1.18847-.18017-2.52148-.18017-3.76367V15.521H315.77V27.33252h-1.54834L309.93652,19.896l-1.27832-2.43067h-.07226c.09033,1.18848.19824,2.44922.19824,3.69141v6.17578h-1.42236Z" fill="#cacaca"/><path d="M318.21533,22.9751c0-2.93457,1.90869-4.60938,4.05127-4.60938s4.05127,1.67481,4.05127,4.60938c0,2.89941-1.90869,4.57324-4.05127,4.57324S318.21533,25.87451,318.21533,22.9751Zm6.57227,0c0-2.0166-1.0083-3.38477-2.521-3.38477-1.49414,0-2.52051,1.36817-2.52051,3.38477,0,1.999,1.02637,3.34863,2.52051,3.34863C323.7793,26.32373,324.7876,24.97412,324.7876,22.9751Z" fill="#cacaca"/><path d="M328.61963,18.58154h1.22412l.126,1.26075h.0542a4.12514,4.12514,0,0,1,2.935-1.47657c1.83643,0,2.66456,1.18848,2.66456,3.4209v5.5459H334.147V21.98486c0-1.63867-.5039-2.34082-1.65625-2.34082-.90039,0-1.51269.46875-2.395,1.35059v6.33789h-1.47607Z" fill="#cacaca"/><path d="M337.72705,22.25537h4.14111v1.13379h-4.14111Z" fill="#cacaca"/><path d="M343.793,15.82666a1.02884,1.02884,0,0,1,2.05224,0,1.02876,1.02876,0,0,1-2.05224,0Zm.27,2.75488h1.47607v8.751H344.063Z" fill="#cacaca"/><path d="M348.49072,18.58154h1.22412l.126,1.26075h.0542a4.12516,4.12516,0,0,1,2.93506-1.47657c1.83642,0,2.66455,1.18848,2.66455,3.4209v5.5459h-1.47656V21.98486c0-1.63867-.50391-2.34082-1.65625-2.34082-.90039,0-1.5127.46875-2.395,1.35059v6.33789h-1.47608Z" fill="#cacaca"/><path d="M357.07617,18.58154h1.53076l1.65625,4.96973c.25244.86426.54053,1.74707.81055,2.57519h.07178c.252-.82812.54-1.71093.79248-2.57519l1.65625-4.96973h1.45849l-3.09668,8.751h-1.72851Z" fill="#cacaca"/><path d="M366.02246,22.9751c0-2.86231,1.92676-4.60938,3.92529-4.60938,2.23291,0,3.49317,1.60254,3.49317,4.10547a5.70019,5.70019,0,0,1-.0542.8457H367.481a2.9026,2.9026,0,0,0,2.917,3.043,3.95534,3.95534,0,0,0,2.17871-.68359l.522.97168a5.2096,5.2096,0,0,1-2.88086.90039C367.877,27.54834,366.02246,25.83838,366.02246,22.9751Zm6.12207-.71973c0-1.76465-.79248-2.71875-2.16064-2.71875a2.70271,2.70271,0,0,0-2.521,2.71875Z" fill="#cacaca"/><path d="M375.59863,18.58154h1.22412l.126,1.585h.0542a2.99317,2.99317,0,0,1,2.48486-1.80078,2.15935,2.15935,0,0,1,.936.18067l-.28809,1.2959a2.45217,2.45217,0,0,0-.84619-.14356c-.73828,0-1.6206.54-2.21435,2.01563v5.61816h-1.47657Z" fill="#cacaca"/><path d="M382.09619,24.63135V19.78857H380.7998V18.67236l1.36817-.09082.18017-2.44824h1.24268v2.44824h2.3584v1.207h-2.3584V24.6499c0,1.08008.3418,1.69239,1.3501,1.69239a3.1684,3.1684,0,0,0,.99023-.23438l.28809,1.11621a5.39688,5.39688,0,0,1-1.62012.32422C382.72656,27.54834,382.09619,26.35986,382.09619,24.63135Z" fill="#cacaca"/><path d="M387.02783,22.9751c0-2.86231,1.92676-4.60938,3.92529-4.60938,2.23243,0,3.49317,1.60254,3.49317,4.10547a5.70019,5.70019,0,0,1-.0542.8457h-5.90576a2.90233,2.90233,0,0,0,2.917,3.043,3.95531,3.95531,0,0,0,2.17871-.68359l.522.97168a5.2096,5.2096,0,0,1-2.88086.90039C388.88232,27.54834,387.02783,25.83838,387.02783,22.9751Zm6.12207-.71973c0-1.76465-.79248-2.71875-2.16064-2.71875a2.70271,2.70271,0,0,0-2.521,2.71875Z" fill="#cacaca"/><path d="M395.97363,22.9751c0-2.84473,1.80078-4.60938,3.79932-4.60938a3.603,3.603,0,0,1,2.44873,1.00879l-.07227-1.49512V14.51318H403.644V27.33252h-1.22461l-.126-1.02637h-.05371a3.94937,3.94937,0,0,1-2.647,1.24219C397.396,27.54834,395.97363,25.89209,395.97363,22.9751Zm6.17578,2.125V20.52686a3.04273,3.04273,0,0,0-2.12451-.91895c-1.40429,0-2.521,1.35059-2.521,3.34961,0,2.08789.88232,3.34863,2.41308,3.34863A2.96314,2.96314,0,0,0,402.14941,25.1001Z" fill="#cacaca"/><path d="M410.33789,15.521h1.80029l2.26905,6.30175c.28808.81055.5581,1.65625.84619,2.4668h.07178c.28808-.81055.52246-1.65625.81054-2.4668l2.23242-6.30175h1.81836V27.33252h-1.40429v-6.5c0-1.04395.126-2.44824.19824-3.49316h-.07227l-.936,2.68261L415.73926,26.144H414.749L412.5166,20.022l-.93652-2.68261h-.07178c.07178,1.04492.17969,2.44921.17969,3.49316v6.5h-1.3501Z" fill="#cacaca"/><path d="M423.00977,15.82666a1.02884,1.02884,0,0,1,2.05224,0,1.02876,1.02876,0,0,1-2.05224,0Zm.27,2.75488h1.47607v8.751h-1.47607Z" fill="#cacaca"/><path d="M429.3457,22.75928l-2.64648-4.17774h1.60254l1.16992,1.92676c.27051.46875.55859.97266.86426,1.459h.07226c.252-.48633.522-.99024.792-1.459l1.0625-1.92676H433.811l-2.64649,4.33985,2.84473,4.41113h-1.60254l-1.27832-2.03418c-.30615-.52246-.63037-1.0625-.9541-1.56641h-.07227c-.30615.50391-.59424,1.02539-.88232,1.56641l-1.18848,2.03418h-1.54834Z" fill="#cacaca"/><path d="M71.26562,113.86182c0-3.42578,1.23292-5.26661,3.28174-5.26661,2.03272,0,3.26514,1.84083,3.26514,5.26661,0,3.4248-1.23242,5.33007-3.26514,5.33007C72.49854,119.19189,71.26562,117.28662,71.26562,113.86182Zm5.26612,0c0-2.99317-.80029-4.21-1.98438-4.21-1.20068,0-2.001,1.21679-2.001,4.21s.80029,4.27343,2.001,4.27343C75.73145,118.13525,76.53174,116.855,76.53174,113.86182Z" fill="#b0b0b0"/><path d="M82.46582,115.12549c0-2.52832,1.60059-4.09766,3.37744-4.09766a3.209,3.209,0,0,1,2.17676.89649l-.064-1.32813V107.603h1.32862v11.39648H88.1958l-.11182-.91211h-.04785a3.51247,3.51247,0,0,1-2.353,1.10449C83.73,119.19189,82.46582,117.71924,82.46582,115.12549Zm5.49023,1.88965v-4.06641a2.70929,2.70929,0,0,0-1.88867-.81641c-1.24853,0-2.24121,1.20118-2.24121,2.97754,0,1.85645.78418,2.97754,2.145,2.97754A2.63516,2.63516,0,0,0,87.95605,117.01514Z" fill="#b0b0b0"/><path d="M95.15527,108.49951c2.12891,0,3.60108.71973,3.60108,2.56055a2.29643,2.29643,0,0,1-1.53662,2.28906v.06445a2.41544,2.41544,0,0,1,2.145,2.5127c0,2.06445-1.63282,3.07324-3.98536,3.07324h-3.3457v-10.5Zm2.28858,2.73731c0-1.2168-.832-1.68067-2.46485-1.68067H93.3623v3.40918H94.915C96.70752,112.96533,97.44385,112.30908,97.44385,111.23682Zm.6084,4.6416c0-1.29688-1.02442-1.88867-2.86524-1.88867H93.3623v3.95312H95.187C96.99609,117.94287,98.05225,117.28662,98.05225,115.87842Z" fill="#b0b0b0"/><path d="M61.95654,154.51807v.91211h-6.3706v-.91211Z" fill="#b0b0b0"/><path d="M68.05176,151.66846a1.80926,1.80926,0,0,0-1.937-2.001A3.01214,3.01214,0,0,0,63.938,150.8999l-.75244-.75195a4.00815,4.00815,0,0,1,3.08935-1.55274A2.83642,2.83642,0,0,1,69.332,151.605c0,1.91992-1.74463,3.8252-4.16162,6.35449.56006-.04883,1.18457-.09668,1.71289-.09668h2.96094v1.13672H63.24951v-.78418C66.32275,155.15771,68.05176,153.31689,68.05176,151.66846Z" fill="#b0b0b0"/><path d="M71.26562,153.86182c0-3.42578,1.23292-5.26661,3.28174-5.26661,2.03272,0,3.26514,1.84083,3.26514,5.26661,0,3.4248-1.23242,5.33007-3.26514,5.33007C72.49854,159.19189,71.26562,157.28662,71.26562,153.86182Zm5.26612,0c0-2.99317-.80029-4.21-1.98438-4.21-1.20068,0-2.001,1.21679-2.001,4.21s.80029,4.27343,2.001,4.27343C75.73145,158.13525,76.53174,156.855,76.53174,153.86182Z" fill="#b0b0b0"/><path d="M82.46582,155.12549c0-2.52832,1.60059-4.09766,3.37744-4.09766a3.209,3.209,0,0,1,2.17676.89649l-.064-1.32813V147.603h1.32862v11.39648H88.1958l-.11182-.91211h-.04785a3.51247,3.51247,0,0,1-2.353,1.10449C83.73,159.19189,82.46582,157.71924,82.46582,155.12549Zm5.49023,1.88965v-4.06641a2.70929,2.70929,0,0,0-1.88867-.81641c-1.24853,0-2.24121,1.20118-2.24121,2.97754,0,1.85645.78418,2.97754,2.145,2.97754A2.63516,2.63516,0,0,0,87.95605,157.01514Z" fill="#b0b0b0"/><path d="M95.15527,148.49951c2.12891,0,3.60108.71973,3.60108,2.56055a2.29643,2.29643,0,0,1-1.53662,2.28906v.06445a2.41544,2.41544,0,0,1,2.145,2.5127c0,2.06445-1.63282,3.07324-3.98536,3.07324h-3.3457v-10.5Zm2.28858,2.73731c0-1.2168-.832-1.68067-2.46485-1.68067H93.3623v3.40918H94.915C96.70752,152.96533,97.44385,152.30908,97.44385,151.23682Zm.6084,4.6416c0-1.29688-1.02442-1.88867-2.86524-1.88867H93.3623v3.95312H95.187C96.99609,157.94287,98.05225,157.28662,98.05225,155.87842Z" fill="#b0b0b0"/><path d="M223.65869,145.24951v-7.52246h-1.85693v-.84863a6.08453,6.08453,0,0,0,2.16113-.752h1.0083v9.123H227.084v1.08887h-5.7622v-1.08887Z" fill="#b0b0b0"/><path d="M229.04932,145.5376a.95492.95492,0,1,1,1.90478,0,.95323.95323,0,1,1-1.90478,0Z" fill="#b0b0b0"/><path d="M232.69727,141.20068c0-3.42578,1.23291-5.2666,3.28173-5.2666,2.03272,0,3.26514,1.84082,3.26514,5.2666,0,3.42481-1.23242,5.33008-3.26514,5.33008C233.93018,146.53076,232.69727,144.62549,232.69727,141.20068Zm5.26611,0c0-2.99316-.80029-4.21-1.98438-4.21-1.20068,0-2.001,1.2168-2.001,4.21s.80029,4.27344,2.001,4.27344C237.16309,145.47412,237.96338,144.19385,237.96338,141.20068Z" fill="#b0b0b0"/><path d="M325.49951,139.00732a1.80926,1.80926,0,0,0-1.937-2.001,3.01218,3.01218,0,0,0-2.17676,1.23242l-.75244-.75195a4.00815,4.00815,0,0,1,3.08936-1.55274,2.83642,2.83642,0,0,1,3.05713,3.00977c0,1.91992-1.74463,3.82519-4.16163,6.35449.56006-.04883,1.18457-.09668,1.71289-.09668H327.292v1.13672h-6.59472v-.78418C323.77051,142.49658,325.49951,140.65576,325.49951,139.00732Z" fill="#b0b0b0"/><path d="M329.04932,145.5376a.95492.95492,0,1,1,1.90478,0,.95323.95323,0,1,1-1.90478,0Z" fill="#b0b0b0"/><path d="M332.69727,141.20068c0-3.42578,1.23291-5.2666,3.28173-5.2666,2.03272,0,3.26514,1.84082,3.26514,5.2666,0,3.42481-1.23242,5.33008-3.26514,5.33008C333.93018,146.53076,332.69727,144.62549,332.69727,141.20068Zm5.26611,0c0-2.99316-.80029-4.21-1.98438-4.21-1.20068,0-2.001,1.2168-2.001,4.21s.80029,4.27344,2.001,4.27344C337.16309,145.47412,337.96338,144.19385,337.96338,141.20068Z" fill="#b0b0b0"/><path d="M420.47314,145.09033l.67237-.86523a3.46643,3.46643,0,0,0,2.60888,1.21679,1.90383,1.90383,0,0,0,2.11329-1.873c0-1.21582-.83252-2.03223-3.26563-2.03223v-1.00879c2.17676,0,2.89746-.832,2.89746-1.90429a1.57187,1.57187,0,0,0-1.76074-1.61719,3.097,3.097,0,0,0-2.17725,1.041l-.7041-.833a4.20427,4.20427,0,0,1,2.9292-1.28028c1.77686,0,3.05713.94434,3.05713,2.59278a2.53145,2.53145,0,0,1-1.85645,2.43359v.06348a2.63506,2.63506,0,0,1,2.2085,2.59375c0,1.80859-1.48828,2.91308-3.36133,2.91308A4.34085,4.34085,0,0,1,420.47314,145.09033Z" fill="#b0b0b0"/><path d="M429.04932,145.5376a.95492.95492,0,1,1,1.90478,0,.95323.95323,0,1,1-1.90478,0Z" fill="#b0b0b0"/><path d="M432.69727,141.20068c0-3.42578,1.23291-5.2666,3.28173-5.2666,2.03272,0,3.26514,1.84082,3.26514,5.2666,0,3.42481-1.23242,5.33008-3.26514,5.33008C433.93018,146.53076,432.69727,144.62549,432.69727,141.20068Zm5.26611,0c0-2.99316-.80029-4.21-1.98438-4.21-1.20068,0-2.001,1.2168-2.001,4.21s.80029,4.27344,2.001,4.27344C437.16309,145.47412,437.96338,144.19385,437.96338,141.20068Z" fill="#b0b0b0"/><path d="M520.32227,143.521v-.86426l4.37011-6.53028h1.47217v6.3379h1.39258V143.521h-1.39258v2.81738H524.916V143.521Zm4.59375-4.01758c0-.54395.04834-1.42481.08007-1.96875h-.064c-.25586.49609-.54395.94433-.832,1.44043l-2.38526,3.48926H524.916Z" fill="#b0b0b0"/><path d="M529.04248,145.5376a.95493.95493,0,1,1,1.90479,0,.95323.95323,0,1,1-1.90479,0Z" fill="#b0b0b0"/><path d="M532.69043,141.20068c0-3.42578,1.23291-5.2666,3.28174-5.2666,2.03271,0,3.26513,1.84082,3.26513,5.2666,0,3.42481-1.23242,5.33008-3.26513,5.33008C533.92334,146.53076,532.69043,144.62549,532.69043,141.20068Zm5.26611,0c0-2.99316-.80029-4.21-1.98437-4.21-1.20069,0-2.001,1.2168-2.001,4.21s.80029,4.27344,2.001,4.27344C537.15625,145.47412,537.95654,144.19385,537.95654,141.20068Z" fill="#b0b0b0"/><path d="M620.45068,145.13818l.64014-.86425a3.476,3.476,0,0,0,2.57715,1.168,2.20363,2.20363,0,0,0,2.24072-2.33691,2.05226,2.05226,0,0,0-2.17676-2.24121,2.87126,2.87126,0,0,0-1.74463.625l-.70459-.44824.33643-4.91407h5.106v1.13672h-3.95362l-.272,3.02442a3.13742,3.13742,0,0,1,1.56836-.416,2.93984,2.93984,0,0,1,3.16943,3.20117,3.33957,3.33957,0,0,1-3.4414,3.458A4.47648,4.47648,0,0,1,620.45068,145.13818Z" fill="#b0b0b0"/><path d="M629.04248,145.5376a.95493.95493,0,1,1,1.90479,0,.95323.95323,0,1,1-1.90479,0Z" fill="#b0b0b0"/><path d="M632.69043,141.20068c0-3.42578,1.23291-5.2666,3.28174-5.2666,2.03271,0,3.26513,1.84082,3.26513,5.2666,0,3.42481-1.23242,5.33008-3.26513,5.33008C633.92334,146.53076,632.69043,144.62549,632.69043,141.20068Zm5.26611,0c0-2.99316-.80029-4.21-1.98437-4.21-1.20069,0-2.001,1.2168-2.001,4.21s.80029,4.27344,2.001,4.27344C637.15625,145.47412,637.95654,144.19385,637.95654,141.20068Z" fill="#b0b0b0"/><path d="M61.95654,194.51807v.91211h-6.3706v-.91211Z" fill="#b0b0b0"/><path d="M62.88135,196.18213v-.86426l4.37011-6.53027h1.47217v6.33789h1.39258v1.05664H68.72363v2.81738h-1.248v-2.81738Zm4.59424-4.01758c0-.54394.04785-1.4248.07959-1.96875h-.064c-.25586.49609-.54394.94434-.832,1.44043l-2.38525,3.48926h3.20166Z" fill="#b0b0b0"/><path d="M71.26562,193.86182c0-3.42578,1.23292-5.26661,3.28174-5.26661,2.03272,0,3.26514,1.84083,3.26514,5.26661,0,3.4248-1.23242,5.33007-3.26514,5.33007C72.49854,199.19189,71.26562,197.28662,71.26562,193.86182Zm5.26612,0c0-2.99317-.80029-4.21-1.98438-4.21-1.20068,0-2.001,1.21679-2.001,4.21s.80029,4.27343,2.001,4.27343C75.73145,198.13525,76.53174,196.855,76.53174,193.86182Z" fill="#b0b0b0"/><path d="M82.46582,195.12549c0-2.52832,1.60059-4.09766,3.37744-4.09766a3.209,3.209,0,0,1,2.17676.89649l-.064-1.32813V187.603h1.32862v11.39648H88.1958l-.11182-.91211h-.04785a3.51247,3.51247,0,0,1-2.353,1.10449C83.73,199.19189,82.46582,197.71924,82.46582,195.12549Zm5.49023,1.88965v-4.06641a2.70929,2.70929,0,0,0-1.88867-.81641c-1.24853,0-2.24121,1.20118-2.24121,2.97754,0,1.85645.78418,2.97754,2.145,2.97754A2.63516,2.63516,0,0,0,87.95605,197.01514Z" fill="#b0b0b0"/><path d="M95.15527,188.49951c2.12891,0,3.60108.71973,3.60108,2.56055a2.29643,2.29643,0,0,1-1.53662,2.28906v.06445a2.41544,2.41544,0,0,1,2.145,2.5127c0,2.06445-1.63282,3.07324-3.98536,3.07324h-3.3457v-10.5Zm2.28858,2.73731c0-1.2168-.832-1.68067-2.46485-1.68067H93.3623v3.40918H94.915C96.70752,192.96533,97.44385,192.30908,97.44385,191.23682Zm.6084,4.6416c0-1.29688-1.02442-1.88867-2.86524-1.88867H93.3623v3.95312H95.187C96.99609,197.94287,98.05225,197.28662,98.05225,195.87842Z" fill="#b0b0b0"/><path d="M61.95654,234.51807v.91211h-6.3706v-.91211Z" fill="#b0b0b0"/><path d="M63.37793,234.27783c0-4.09765,1.85645-5.68262,3.88916-5.68262a3.21928,3.21928,0,0,1,2.46533,1.08887l-.73633.81641a2.22219,2.22219,0,0,0-1.68066-.80078c-1.42481,0-2.625,1.10449-2.68945,4.33789a3.26274,3.26274,0,0,1,2.38525-1.28028c1.76074,0,2.91309,1.05567,2.91309,3.15332a3.089,3.089,0,0,1-3.02539,3.28125C64.89844,239.19189,63.37793,237.55908,63.37793,234.27783Zm5.29785,1.63281c0-1.3291-.624-2.16113-1.88867-2.16113a2.72056,2.72056,0,0,0-2.12891,1.34473c.16016,1.98437.94434,3.05664,2.24073,3.05664C67.90771,238.15088,68.67578,237.25439,68.67578,235.91064Z" fill="#b0b0b0"/><path d="M71.26562,233.86182c0-3.42578,1.23292-5.26661,3.28174-5.26661,2.03272,0,3.26514,1.84083,3.26514,5.26661,0,3.4248-1.23242,5.33007-3.26514,5.33007C72.49854,239.19189,71.26562,237.28662,71.26562,233.86182Zm5.26612,0c0-2.99317-.80029-4.21-1.98438-4.21-1.20068,0-2.001,1.21679-2.001,4.21s.80029,4.27343,2.001,4.27343C75.73145,238.13525,76.53174,236.855,76.53174,233.86182Z" fill="#b0b0b0"/><path d="M82.46582,235.12549c0-2.52832,1.60059-4.09766,3.37744-4.09766a3.209,3.209,0,0,1,2.17676.89649l-.064-1.32813V227.603h1.32862v11.39648H88.1958l-.11182-.91211h-.04785a3.51247,3.51247,0,0,1-2.353,1.10449C83.73,239.19189,82.46582,237.71924,82.46582,235.12549Zm5.49023,1.88965v-4.06641a2.70929,2.70929,0,0,0-1.88867-.81641c-1.24853,0-2.24121,1.20118-2.24121,2.97754,0,1.85645.78418,2.97754,2.145,2.97754A2.63516,2.63516,0,0,0,87.95605,237.01514Z" fill="#b0b0b0"/><path d="M95.15527,228.49951c2.12891,0,3.60108.71973,3.60108,2.56055a2.29643,2.29643,0,0,1-1.53662,2.28906v.06445a2.41544,2.41544,0,0,1,2.145,2.5127c0,2.06445-1.63282,3.07324-3.98536,3.07324h-3.3457v-10.5Zm2.28858,2.73731c0-1.2168-.832-1.68067-2.46485-1.68067H93.3623v3.40918H94.915C96.70752,232.96533,97.44385,232.30908,97.44385,231.23682Zm.6084,4.6416c0-1.29688-1.02442-1.88867-2.86524-1.88867H93.3623v3.95312H95.187C96.99609,237.94287,98.05225,237.28662,98.05225,235.87842Z" fill="#b0b0b0"/><path d="M61.95654,274.51807v.91211h-6.3706v-.91211Z" fill="#b0b0b0"/><path d="M63.26562,276.39014a3.228,3.228,0,0,1,1.9209-2.75293v-.06348a2.899,2.899,0,0,1-1.4248-2.35352,2.89834,2.89834,0,0,1,5.77832.09571,3.36378,3.36378,0,0,1-1.4082,2.46582v.06347a2.94753,2.94753,0,0,1,1.77636,2.625c0,1.52051-1.3125,2.72168-3.29736,2.72168C64.69043,279.19189,63.26562,278.00732,63.26562,276.39014Zm5.37842.03222c0-1.3125-1.29687-1.793-2.76953-2.38476a2.76648,2.76648,0,0,0-1.42431,2.22461,2.02421,2.02421,0,0,0,2.19287,1.95312A1.81864,1.81864,0,0,0,68.644,276.42236Zm-.24023-5.042a1.70455,1.70455,0,0,0-1.77686-1.80859,1.5796,1.5796,0,0,0-1.64843,1.64843c0,1.2168,1.12011,1.72852,2.35253,2.209A2.75287,2.75287,0,0,0,68.40381,271.38037Z" fill="#b0b0b0"/><path d="M71.26562,273.86182c0-3.42578,1.23292-5.26661,3.28174-5.26661,2.03272,0,3.26514,1.84083,3.26514,5.26661,0,3.4248-1.23242,5.33007-3.26514,5.33007C72.49854,279.19189,71.26562,277.28662,71.26562,273.86182Zm5.26612,0c0-2.99317-.80029-4.21-1.98438-4.21-1.20068,0-2.001,1.21679-2.001,4.21s.80029,4.27343,2.001,4.27343C75.73145,278.13525,76.53174,276.855,76.53174,273.86182Z" fill="#b0b0b0"/><path d="M82.46582,275.12549c0-2.52832,1.60059-4.09766,3.37744-4.09766a3.209,3.209,0,0,1,2.17676.89649l-.064-1.32813V267.603h1.32862v11.39648H88.1958l-.11182-.91211h-.04785a3.51247,3.51247,0,0,1-2.353,1.10449C83.73,279.19189,82.46582,277.71924,82.46582,275.12549Zm5.49023,1.88965v-4.06641a2.70929,2.70929,0,0,0-1.88867-.81641c-1.24853,0-2.24121,1.20118-2.24121,2.97754,0,1.85645.78418,2.97754,2.145,2.97754A2.63516,2.63516,0,0,0,87.95605,277.01514Z" fill="#b0b0b0"/><path d="M95.15527,268.49951c2.12891,0,3.60108.71973,3.60108,2.56055a2.29643,2.29643,0,0,1-1.53662,2.28906v.06445a2.41544,2.41544,0,0,1,2.145,2.5127c0,2.06445-1.63282,3.07324-3.98536,3.07324h-3.3457v-10.5Zm2.28858,2.73731c0-1.2168-.832-1.68067-2.46485-1.68067H93.3623v3.40918H94.915C96.70752,272.96533,97.44385,272.30908,97.44385,271.23682Zm.6084,4.6416c0-1.29688-1.02442-1.88867-2.86524-1.88867H93.3623v3.95312H95.187C96.99609,277.94287,98.05225,277.28662,98.05225,275.87842Z" fill="#b0b0b0"/><path d="M71.26562,473.86377c0-3.42578,1.23292-5.2666,3.28174-5.2666,2.03272,0,3.26514,1.84082,3.26514,5.2666,0,3.4248-1.23242,5.33008-3.26514,5.33008C72.49854,479.19385,71.26562,477.28857,71.26562,473.86377Zm5.26612,0c0-2.99316-.80029-4.21-1.98438-4.21-1.20068,0-2.001,1.2168-2.001,4.21s.80029,4.27344,2.001,4.27344C75.73145,478.13721,76.53174,476.85693,76.53174,473.86377Z" fill="#b0b0b0"/><path d="M82.46582,475.12744c0-2.52832,1.60059-4.09765,3.37744-4.09765a3.209,3.209,0,0,1,2.17676.89648l-.064-1.32813V467.605h1.32862v11.39648H88.1958l-.11182-.9121h-.04785a3.51252,3.51252,0,0,1-2.353,1.10449C83.73,479.19385,82.46582,477.72119,82.46582,475.12744Zm5.49023,1.88965v-4.06641a2.70931,2.70931,0,0,0-1.88867-.8164c-1.24853,0-2.24121,1.20117-2.24121,2.97754,0,1.85644.78418,2.97754,2.145,2.97754A2.63514,2.63514,0,0,0,87.95605,477.01709Z" fill="#b0b0b0"/><path d="M95.15527,468.50146c2.12891,0,3.60108.71973,3.60108,2.56055a2.29642,2.29642,0,0,1-1.53662,2.28906v.06446a2.41542,2.41542,0,0,1,2.145,2.51269c0,2.06446-1.63282,3.07324-3.98536,3.07324h-3.3457v-10.5Zm2.28858,2.73731c0-1.2168-.832-1.68066-2.46485-1.68066H93.3623v3.40918H94.915C96.70752,472.96729,97.44385,472.311,97.44385,471.23877Zm.6084,4.6416c0-1.29687-1.02442-1.88867-2.86524-1.88867H93.3623v3.95312H95.187C96.99609,477.94482,98.05225,477.28857,98.05225,475.88037Z" fill="#b0b0b0"/><path d="M61.95654,514.52v.91211h-6.3706V514.52Z" fill="#b0b0b0"/><path d="M68.05176,511.67041a1.80926,1.80926,0,0,0-1.937-2.001,3.01216,3.01216,0,0,0-2.17676,1.23243l-.75244-.752a4.00814,4.00814,0,0,1,3.08935-1.55273,2.83641,2.83641,0,0,1,3.05713,3.00976c0,1.91993-1.74463,3.8252-4.16162,6.3545.56006-.04883,1.18457-.09668,1.71289-.09668h2.96094v1.13671H63.24951v-.78417C66.32275,515.15967,68.05176,513.31885,68.05176,511.67041Z" fill="#b0b0b0"/><path d="M71.26562,513.86377c0-3.42578,1.23292-5.2666,3.28174-5.2666,2.03272,0,3.26514,1.84082,3.26514,5.2666,0,3.4248-1.23242,5.33008-3.26514,5.33008C72.49854,519.19385,71.26562,517.28857,71.26562,513.86377Zm5.26612,0c0-2.99316-.80029-4.21-1.98438-4.21-1.20068,0-2.001,1.2168-2.001,4.21s.80029,4.27344,2.001,4.27344C75.73145,518.13721,76.53174,516.85693,76.53174,513.86377Z" fill="#b0b0b0"/><path d="M82.46582,515.12744c0-2.52832,1.60059-4.09765,3.37744-4.09765a3.209,3.209,0,0,1,2.17676.89648l-.064-1.32813V507.605h1.32862v11.39648H88.1958l-.11182-.9121h-.04785a3.51252,3.51252,0,0,1-2.353,1.10449C83.73,519.19385,82.46582,517.72119,82.46582,515.12744Zm5.49023,1.88965v-4.06641a2.70931,2.70931,0,0,0-1.88867-.8164c-1.24853,0-2.24121,1.20117-2.24121,2.97754,0,1.85644.78418,2.97754,2.145,2.97754A2.63514,2.63514,0,0,0,87.95605,517.01709Z" fill="#b0b0b0"/><path d="M95.15527,508.50146c2.12891,0,3.60108.71973,3.60108,2.56055a2.29642,2.29642,0,0,1-1.53662,2.28906v.06446a2.41542,2.41542,0,0,1,2.145,2.51269c0,2.06446-1.63282,3.07324-3.98536,3.07324h-3.3457v-10.5Zm2.28858,2.73731c0-1.2168-.832-1.68066-2.46485-1.68066H93.3623v3.40918H94.915C96.70752,512.96729,97.44385,512.311,97.44385,511.23877Zm.6084,4.6416c0-1.29687-1.02442-1.88867-2.86524-1.88867H93.3623v3.95312H95.187C96.99609,517.94482,98.05225,517.28857,98.05225,515.88037Z" fill="#b0b0b0"/><path d="M61.95654,554.52v.91211h-6.3706V554.52Z" fill="#b0b0b0"/><path d="M62.88135,556.18408v-.86426l4.37011-6.53027h1.47217v6.33789h1.39258v1.05664H68.72363v2.81738h-1.248v-2.81738Zm4.59424-4.01758c0-.54394.04785-1.4248.07959-1.96875h-.064c-.25586.4961-.54394.94434-.832,1.44043l-2.38525,3.48926h3.20166Z" fill="#b0b0b0"/><path d="M71.26562,553.86377c0-3.42578,1.23292-5.2666,3.28174-5.2666,2.03272,0,3.26514,1.84082,3.26514,5.2666,0,3.4248-1.23242,5.33008-3.26514,5.33008C72.49854,559.19385,71.26562,557.28857,71.26562,553.86377Zm5.26612,0c0-2.99316-.80029-4.21-1.98438-4.21-1.20068,0-2.001,1.2168-2.001,4.21s.80029,4.27344,2.001,4.27344C75.73145,558.13721,76.53174,556.85693,76.53174,553.86377Z" fill="#b0b0b0"/><path d="M82.46582,555.12744c0-2.52832,1.60059-4.09765,3.37744-4.09765a3.209,3.209,0,0,1,2.17676.89648l-.064-1.32813V547.605h1.32862v11.39648H88.1958l-.11182-.9121h-.04785a3.51252,3.51252,0,0,1-2.353,1.10449C83.73,559.19385,82.46582,557.72119,82.46582,555.12744Zm5.49023,1.88965v-4.06641a2.70931,2.70931,0,0,0-1.88867-.8164c-1.24853,0-2.24121,1.20117-2.24121,2.97754,0,1.85644.78418,2.97754,2.145,2.97754A2.63514,2.63514,0,0,0,87.95605,557.01709Z" fill="#b0b0b0"/><path d="M95.15527,548.50146c2.12891,0,3.60108.71973,3.60108,2.56055a2.29642,2.29642,0,0,1-1.53662,2.28906v.06446a2.41542,2.41542,0,0,1,2.145,2.51269c0,2.06446-1.63282,3.07324-3.98536,3.07324h-3.3457v-10.5Zm2.28858,2.73731c0-1.2168-.832-1.68066-2.46485-1.68066H93.3623v3.40918H94.915C96.70752,552.96729,97.44385,552.311,97.44385,551.23877Zm.6084,4.6416c0-1.29687-1.02442-1.88867-2.86524-1.88867H93.3623v3.95312H95.187C96.99609,557.94482,98.05225,557.28857,98.05225,555.88037Z" fill="#b0b0b0"/><path d="M61.95654,594.52v.91211h-6.3706V594.52Z" fill="#b0b0b0"/><path d="M63.37793,594.27979c0-4.09766,1.85645-5.68262,3.88916-5.68262a3.21928,3.21928,0,0,1,2.46533,1.08887l-.73633.8164a2.22219,2.22219,0,0,0-1.68066-.80078c-1.42481,0-2.625,1.10449-2.68945,4.33789a3.26272,3.26272,0,0,1,2.38525-1.28027c1.76074,0,2.91309,1.05566,2.91309,3.15332a3.089,3.089,0,0,1-3.02539,3.28125C64.89844,599.19385,63.37793,597.561,63.37793,594.27979Zm5.29785,1.63281c0-1.3291-.624-2.16114-1.88867-2.16114a2.72059,2.72059,0,0,0-2.12891,1.34473c.16016,1.98438.94434,3.05664,2.24073,3.05664C67.90771,598.15283,68.67578,597.25635,68.67578,595.9126Z" fill="#b0b0b0"/><path d="M71.26562,593.86377c0-3.42578,1.23292-5.2666,3.28174-5.2666,2.03272,0,3.26514,1.84082,3.26514,5.2666,0,3.4248-1.23242,5.33008-3.26514,5.33008C72.49854,599.19385,71.26562,597.28857,71.26562,593.86377Zm5.26612,0c0-2.99316-.80029-4.21-1.98438-4.21-1.20068,0-2.001,1.2168-2.001,4.21s.80029,4.27344,2.001,4.27344C75.73145,598.13721,76.53174,596.85693,76.53174,593.86377Z" fill="#b0b0b0"/><path d="M82.46582,595.12744c0-2.52832,1.60059-4.09765,3.37744-4.09765a3.209,3.209,0,0,1,2.17676.89648l-.064-1.32813V587.605h1.32862v11.39648H88.1958l-.11182-.9121h-.04785a3.51252,3.51252,0,0,1-2.353,1.10449C83.73,599.19385,82.46582,597.72119,82.46582,595.12744Zm5.49023,1.88965v-4.06641a2.70931,2.70931,0,0,0-1.88867-.8164c-1.24853,0-2.24121,1.20117-2.24121,2.97754,0,1.85644.78418,2.97754,2.145,2.97754A2.63514,2.63514,0,0,0,87.95605,597.01709Z" fill="#b0b0b0"/><path d="M95.15527,588.50146c2.12891,0,3.60108.71973,3.60108,2.56055a2.29642,2.29642,0,0,1-1.53662,2.28906v.06446a2.41542,2.41542,0,0,1,2.145,2.51269c0,2.06446-1.63282,3.07324-3.98536,3.07324h-3.3457v-10.5Zm2.28858,2.73731c0-1.2168-.832-1.68066-2.46485-1.68066H93.3623v3.40918H94.915C96.70752,592.96729,97.44385,592.311,97.44385,591.23877Zm.6084,4.6416c0-1.29687-1.02442-1.88867-2.86524-1.88867H93.3623v3.95312H95.187C96.99609,597.94482,98.05225,597.28857,98.05225,595.88037Z" fill="#b0b0b0"/><path d="M61.95654,634.52v.91211h-6.3706V634.52Z" fill="#b0b0b0"/><path d="M63.26562,636.39209a3.22806,3.22806,0,0,1,1.9209-2.75293v-.06348a2.899,2.899,0,0,1-1.4248-2.35351,2.89834,2.89834,0,0,1,5.77832.0957,3.36378,3.36378,0,0,1-1.4082,2.46582v.06348a2.94751,2.94751,0,0,1,1.77636,2.625c0,1.52051-1.3125,2.72168-3.29736,2.72168C64.69043,639.19385,63.26562,638.00928,63.26562,636.39209Zm5.37842.03223c0-1.3125-1.29687-1.793-2.76953-2.38477a2.76651,2.76651,0,0,0-1.42431,2.22461,2.02422,2.02422,0,0,0,2.19287,1.95313A1.81864,1.81864,0,0,0,68.644,636.42432Zm-.24023-5.042a1.70456,1.70456,0,0,0-1.77686-1.80859,1.5796,1.5796,0,0,0-1.64843,1.64844c0,1.21679,1.12011,1.72851,2.35253,2.209A2.75286,2.75286,0,0,0,68.40381,631.38232Z" fill="#b0b0b0"/><path d="M71.26562,633.86377c0-3.42578,1.23292-5.2666,3.28174-5.2666,2.03272,0,3.26514,1.84082,3.26514,5.2666,0,3.4248-1.23242,5.33008-3.26514,5.33008C72.49854,639.19385,71.26562,637.28857,71.26562,633.86377Zm5.26612,0c0-2.99316-.80029-4.21-1.98438-4.21-1.20068,0-2.001,1.2168-2.001,4.21s.80029,4.27344,2.001,4.27344C75.73145,638.13721,76.53174,636.85693,76.53174,633.86377Z" fill="#b0b0b0"/><path d="M82.46582,635.12744c0-2.52832,1.60059-4.09765,3.37744-4.09765a3.209,3.209,0,0,1,2.17676.89648l-.064-1.32813V627.605h1.32862v11.39648H88.1958l-.11182-.9121h-.04785a3.51252,3.51252,0,0,1-2.353,1.10449C83.73,639.19385,82.46582,637.72119,82.46582,635.12744Zm5.49023,1.88965v-4.06641a2.70931,2.70931,0,0,0-1.88867-.8164c-1.24853,0-2.24121,1.20117-2.24121,2.97754,0,1.85644.78418,2.97754,2.145,2.97754A2.63514,2.63514,0,0,0,87.95605,637.01709Z" fill="#b0b0b0"/><path d="M95.15527,628.50146c2.12891,0,3.60108.71973,3.60108,2.56055a2.29642,2.29642,0,0,1-1.53662,2.28906v.06446a2.41542,2.41542,0,0,1,2.145,2.51269c0,2.06446-1.63282,3.07324-3.98536,3.07324h-3.3457v-10.5Zm2.28858,2.73731c0-1.2168-.832-1.68066-2.46485-1.68066H93.3623v3.40918H94.915C96.70752,632.96729,97.44385,632.311,97.44385,631.23877Zm.6084,4.6416c0-1.29687-1.02442-1.88867-2.86524-1.88867H93.3623v3.95312H95.187C96.99609,637.94482,98.05225,637.28857,98.05225,635.88037Z" fill="#b0b0b0"/><path d="M35.85938,54.49951l2.01708,5.60156c.25586.72071.4961,1.47266.75245,2.19336h.064c.25586-.7207.46387-1.47265.72022-2.19336L41.398,54.49951h1.6167v10.5H41.76611V59.22119c0-.92871.11182-2.17676.17578-3.10547h-.064l-.832,2.38477L39.061,63.94287h-.88038L36.1958,58.50049l-.83252-2.38477h-.064c.064.92871.16015,2.17676.16015,3.10547v5.77832H34.25879v-10.5Z" fill="#b0b0b0"/><path d="M45.28271,62.98291c0-1.69727,1.45655-2.54492,4.76954-2.91309,0-.99316-.31983-1.95312-1.60059-1.95312a4.23158,4.23158,0,0,0-2.3208.832l-.51221-.91211a5.776,5.776,0,0,1,3.05713-1.00879c1.90479,0,2.70508,1.26465,2.70508,3.20215v4.76953H50.29248l-.11182-.92871h-.04834a4.14972,4.14972,0,0,1-2.57666,1.12109A2.11673,2.11673,0,0,1,45.28271,62.98291Zm4.76954.1123V60.93408c-2.59278.32031-3.48926.96-3.48926,1.95215,0,.88086.6084,1.249,1.37646,1.249A3.15321,3.15321,0,0,0,50.05225,63.09521Z" fill="#b0b0b0"/><path d="M53.23438,66.48779a2.24585,2.24585,0,0,1,1.13671-1.76074v-.06348a1.43591,1.43591,0,0,1-.68847-1.26464,1.82146,1.82146,0,0,1,.84814-1.44043V61.894a2.746,2.746,0,0,1,1.9209-4.86621,3.10027,3.10027,0,0,1,1.10449.19238h2.70508V58.229H58.66064a2.25429,2.25429,0,0,1,.64014,1.60059,2.6697,2.6697,0,0,1-2.84912,2.70508,2.70752,2.70752,0,0,1-1.16846-.27246,1.17908,1.17908,0,0,0-.49609.92871c0,.49609.32031.84863,1.37646.84863h1.50489c1.80859,0,2.7207.55957,2.7207,1.85645,0,1.44043-1.52051,2.68945-3.9375,2.68945C54.54688,68.58545,53.23438,67.83252,53.23438,66.48779Zm5.87451-.39941c0-.7207-.56006-.96094-1.56885-.96094H56.1958a3.80551,3.80551,0,0,1-1.00879-.12793,1.63934,1.63934,0,0,0-.80029,1.3125c0,.832.84863,1.36035,2.25732,1.36035C58.13232,67.67236,59.10889,66.90381,59.10889,66.08838Zm-1.0083-6.291a1.65575,1.65575,0,1,0-3.29737,0,1.66031,1.66031,0,1,0,3.29737,0Z" fill="#b0b0b0"/><path d="M62.979,57.22021l.11231,1.1211h.04785a3.66779,3.66779,0,0,1,2.60889-1.31348c1.63281,0,2.36914,1.05664,2.36914,3.042v4.92969h-1.3125v-4.7539c0-1.457-.44824-2.08106-1.47266-2.08106-.80029,0-1.34473.416-2.12891,1.2002v5.63476h-1.3125v-7.7793Z" fill="#b0b0b0"/><path d="M70.40234,54.771a.91482.91482,0,0,1,1.82471,0,.91475.91475,0,0,1-1.82471,0Zm1.55274,2.44921v7.7793h-1.3125v-7.7793Z" fill="#b0b0b0"/><path d="M74.80225,62.59814V58.29248H73.6499v-.99219l1.21631-.08008.16016-2.17675h1.10449v2.17675h2.09668v1.07227H76.13086v4.32227c0,.96.3042,1.50488,1.20019,1.50488a2.80591,2.80591,0,0,0,.88038-.209l.25634.99317a4.81822,4.81822,0,0,1-1.44043.28808C75.3623,65.19189,74.80225,64.13525,74.80225,62.59814Z" fill="#b0b0b0"/><path d="M79.87451,62.1499V57.22021h1.32813v4.75391c0,1.457.43261,2.08106,1.457,2.08106.80029,0,1.36035-.40039,2.09668-1.3125V57.22021h1.3125v7.7793H84.98047l-.11231-1.2168h-.04785a3.2882,3.2882,0,0,1-2.561,1.40918C80.61084,65.19189,79.87451,64.13525,79.87451,62.1499Z" fill="#b0b0b0"/><path d="M88.13037,61.12549c0-2.52832,1.60059-4.09766,3.37744-4.09766a3.209,3.209,0,0,1,2.17676.89649l-.064-1.32813V53.603h1.32861V64.99951H93.86035l-.11181-.91211h-.04786a3.51243,3.51243,0,0,1-2.353,1.10449C89.39453,65.19189,88.13037,63.71924,88.13037,61.12549Zm5.49024,1.88965V58.94873a2.70951,2.70951,0,0,0-1.88916-.81641c-1.248,0-2.24073,1.20118-2.24073,2.97754,0,1.85645.78418,2.97754,2.145,2.97754A2.6352,2.6352,0,0,0,93.62061,63.01514Z" fill="#b0b0b0"/><path d="M96.99414,61.12549c0-2.54492,1.71289-4.09766,3.48926-4.09766,1.98486,0,3.10547,1.42481,3.10547,3.65039a5.0611,5.0611,0,0,1-.04834.752h-5.25a2.58045,2.58045,0,0,0,2.59326,2.70507,3.51414,3.51414,0,0,0,1.93652-.60839l.46436.86425a4.62886,4.62886,0,0,1-2.561.80078A3.7199,3.7199,0,0,1,96.99414,61.12549Zm3.52148-3.05664a2.40262,2.40262,0,0,0-2.24121,2.417h4.16211C102.43652,58.91748,101.73193,58.06885,100.51562,58.06885Z" fill="#b0b0b0"/><path d="M55.82666,80.54932a13.3099,13.3099,0,0,1,2.11279-7.26661l.81641.38379a13.78781,13.78781,0,0,0,0,13.76563l-.81641.38476A13.31314,13.31314,0,0,1,55.82666,80.54932Z" fill="#b0b0b0"/><path d="M60.11475,81.12549c0-2.52832,1.60058-4.09766,3.37744-4.09766a3.209,3.209,0,0,1,2.17676.89649l-.064-1.32813V73.603h1.32861V84.99951H65.84473l-.11182-.91211h-.04785a3.51247,3.51247,0,0,1-2.353,1.10449C61.37891,85.19189,60.11475,83.71924,60.11475,81.12549ZM65.605,83.01514V78.94873a2.7095,2.7095,0,0,0-1.88916-.81641c-1.248,0-2.24072,1.20118-2.24072,2.97754,0,1.85645.78418,2.97754,2.145,2.97754A2.63518,2.63518,0,0,0,65.605,83.01514Z" fill="#b0b0b0"/><path d="M72.8042,74.49951c2.12891,0,3.60107.71973,3.60107,2.56055a2.29641,2.29641,0,0,1-1.53662,2.28906v.06445a2.41544,2.41544,0,0,1,2.145,2.5127c0,2.06445-1.63281,3.07324-3.98535,3.07324h-3.3457v-10.5Zm2.28857,2.73731c0-1.2168-.832-1.68067-2.46484-1.68067h-1.6167v3.40918H72.564C74.35645,78.96533,75.09277,78.30908,75.09277,77.23682Zm.6084,4.6416c0-1.29688-1.02441-1.88867-2.86523-1.88867H71.01123v3.95312h1.82471C74.64453,83.94287,75.70117,83.28662,75.70117,81.87842Z" fill="#b0b0b0"/><path d="M80.09912,80.54932A13.32048,13.32048,0,0,0,78.2583,73.6665l.81641-.38379a13.55423,13.55423,0,0,1,0,14.53418l-.81641-.38476A13.31541,13.31541,0,0,0,80.09912,80.54932Z" fill="#b0b0b0"/><path d="M672.46777,134.5v1.12012h-4.72216v3.55371h4.00146V140.294h-4.00146V145H666.417V134.5Z" fill="#b0b0b0"/><path d="M674.96143,137.2207l.1123,1.40918h.04785a2.6619,2.6619,0,0,1,2.209-1.60156,1.94126,1.94126,0,0,1,.832.16016l-.25586,1.15332a2.17672,2.17672,0,0,0-.75244-.12891c-.65625,0-1.44043.48047-1.96875,1.793V145h-1.3125v-7.7793Z" fill="#b0b0b0"/><path d="M678.68848,141.126c0-2.54493,1.71289-4.09766,3.48925-4.09766,1.98487,0,3.10547,1.4248,3.10547,3.65039a5.05951,5.05951,0,0,1-.04834.75195h-5.25a2.58046,2.58046,0,0,0,2.59326,2.70508,3.5141,3.5141,0,0,0,1.93653-.6084l.46435.86426a4.6288,4.6288,0,0,1-2.561.80078A3.71989,3.71989,0,0,1,678.68848,141.126Zm3.52148-3.05664a2.40261,2.40261,0,0,0-2.24121,2.417h4.16211C684.13086,138.918,683.42627,138.06934,682.21,138.06934Z" fill="#b0b0b0"/><path d="M692.19482,144.10352a3.45094,3.45094,0,0,1-2.33691,1.08886c-1.95312,0-3.21729-1.47265-3.21729-4.0664,0-2.52832,1.60059-4.09766,3.37745-4.09766a3.1671,3.1671,0,0,1,2.22461.92871h.03222l.12793-.73633h1.05664v11.06055h-1.32861v-2.76953Zm-.064-1.0879v-4.0664a2.7093,2.7093,0,0,0-1.88867-.81641c-1.24854,0-2.24121,1.20117-2.24121,2.97754,0,1.85645.78418,2.97754,2.145,2.97754A2.63518,2.63518,0,0,0,692.13086,143.01562Z" fill="#b0b0b0"/><path d="M695.96875,142.15039V137.2207h1.32813v4.75391c0,1.457.43261,2.081,1.457,2.081.80029,0,1.36035-.40039,2.09668-1.3125V137.2207h1.3125V145h-1.08838l-.11231-1.2168h-.04785a3.2882,3.2882,0,0,1-2.561,1.40918C696.70508,145.19238,695.96875,144.13574,695.96875,142.15039Z" fill="#b0b0b0"/><path d="M704.208,141.126c0-2.54493,1.71289-4.09766,3.48926-4.09766,1.98486,0,3.10546,1.4248,3.10546,3.65039a5.05951,5.05951,0,0,1-.04834.75195h-5.25a2.58047,2.58047,0,0,0,2.59327,2.70508,3.51409,3.51409,0,0,0,1.93652-.6084l.46436.86426a4.62886,4.62886,0,0,1-2.561.80078A3.7199,3.7199,0,0,1,704.208,141.126Zm3.52148-3.05664a2.40261,2.40261,0,0,0-2.24121,2.417h4.16211C709.65039,138.918,708.9458,138.06934,707.72949,138.06934Z" fill="#b0b0b0"/><path d="M713.80859,137.2207l.11231,1.1211h.04785a3.66779,3.66779,0,0,1,2.60889-1.31348c1.63281,0,2.36914,1.05664,2.36914,3.042V145h-1.3125v-4.75391c0-1.457-.44824-2.08105-1.47266-2.08105-.80029,0-1.34473.416-2.12891,1.20019V145h-1.3125v-7.7793Z" fill="#b0b0b0"/><path d="M720.896,141.126a3.76787,3.76787,0,0,1,3.7456-4.09766,3.23,3.23,0,0,1,2.27295.91309l-.67236.86425a2.28025,2.28025,0,0,0-1.55274-.68847c-1.40869,0-2.4331,1.21679-2.4331,3.00879,0,1.77734.97656,2.97754,2.40136,2.97754a2.76316,2.76316,0,0,0,1.82471-.78418l.57617.87988a3.7932,3.7932,0,0,1-2.51318.99316C722.48047,145.19238,720.896,143.70312,720.896,141.126Z" fill="#b0b0b0"/><path d="M728.08008,148.18555l.25586-1.041a2.25634,2.25634,0,0,0,.59228.11231c.88037,0,1.44092-.70411,1.76074-1.665l.17627-.57618-3.12158-7.79492h1.36084l1.58447,4.30567c.24024.67285.51221,1.47265.75245,2.19336h.064c.22412-.70411.44824-1.50489.65625-2.19336l1.39258-4.30567h1.28027l-2.9292,8.41992c-.54394,1.53614-1.34423,2.70508-2.91308,2.70508A2.58846,2.58846,0,0,1,728.08008,148.18555Z" fill="#b0b0b0"/><path d="M687.27393,154.5c2.145,0,3.68164.76758,3.68164,2.94531a2.86663,2.86663,0,0,1-2.36866,2.97657L691.25977,165h-1.5044l-2.5293-4.43359h-1.90478V165h-1.32861V154.5Zm2.353,2.94531c0-1.37695-.91211-1.873-2.54492-1.873h-1.76074v3.90527H687.082C688.71484,159.47754,689.627,158.80566,689.627,157.44531Z" fill="#b0b0b0"/><path d="M692.42432,162.9834c0-1.69727,1.45654-2.54492,4.76953-2.91309,0-.99316-.31983-1.95312-1.60059-1.95312a4.23161,4.23161,0,0,0-2.3208.832l-.51221-.91211a5.776,5.776,0,0,1,3.05713-1.00879c1.90479,0,2.70508,1.26465,2.70508,3.20215V165h-1.08838l-.11181-.92871h-.04834a4.14976,4.14976,0,0,1-2.57666,1.12109A2.11673,2.11673,0,0,1,692.42432,162.9834Zm4.76953.1123v-2.16113c-2.59278.32031-3.48926.96-3.48926,1.95215,0,.88086.6084,1.249,1.37646,1.249A3.15319,3.15319,0,0,0,697.19385,163.0957Z" fill="#b0b0b0"/><path d="M700.96875,162.59863V158.293h-1.15234v-.99219l1.2163-.08008.16016-2.17675h1.10449v2.17675H704.394V158.293h-2.09668v4.32226c0,.96.3042,1.50489,1.2002,1.50489a2.80592,2.80592,0,0,0,.88037-.209l.25635.99317a4.81822,4.81822,0,0,1-1.44043.28808C701.52881,165.19238,700.96875,164.13574,700.96875,162.59863Z" fill="#b0b0b0"/><path d="M705.91211,154.77148a.91482.91482,0,0,1,1.82471,0,.91475.91475,0,0,1-1.82471,0Zm1.55273,2.44922V165h-1.3125v-7.7793Z" fill="#b0b0b0"/><path d="M709.51221,161.126c0-2.6084,1.69677-4.09766,3.60156-4.09766s3.60107,1.48926,3.60107,4.09766c0,2.57714-1.69629,4.0664-3.60107,4.0664S709.51221,163.70312,709.51221,161.126Zm5.84228,0c0-1.792-.89648-3.00879-2.24072-3.00879-1.32861,0-2.24121,1.21679-2.24121,3.00879,0,1.77734.9126,2.97754,2.24121,2.97754C714.458,164.10352,715.35449,162.90332,715.35449,161.126Z" fill="#b0b0b0"/><path d="M170.76123,499.86182c0-3.42578,1.23291-5.26661,3.28174-5.26661,2.03271,0,3.26514,1.84083,3.26514,5.26661,0,3.4248-1.23243,5.33007-3.26514,5.33007C171.99414,505.19189,170.76123,503.28662,170.76123,499.86182Zm5.26611,0c0-2.99317-.80029-4.21-1.98437-4.21-1.20068,0-2.001,1.21679-2.001,4.21s.8003,4.27343,2.001,4.27343C175.22705,504.13525,176.02734,502.855,176.02734,499.86182Z" fill="#b0b0b0"/><path d="M179.04932,504.19873a.95492.95492,0,1,1,1.90478,0,.95323.95323,0,1,1-1.90478,0Z" fill="#b0b0b0"/><path d="M182.39355,503.79932l.64014-.86426a3.476,3.476,0,0,0,2.57715,1.168,2.20337,2.20337,0,0,0,2.24072-2.33692,2.05226,2.05226,0,0,0-2.17676-2.24121,2.87123,2.87123,0,0,0-1.74462.625l-.70459-.44824.33642-4.91406h5.106v1.13672h-3.95361l-.272,3.02441a3.13742,3.13742,0,0,1,1.56836-.416,2.93985,2.93985,0,0,1,3.16944,3.20118,3.33957,3.33957,0,0,1-3.44141,3.458A4.47651,4.47651,0,0,1,182.39355,503.79932Z" fill="#b0b0b0"/><path d="M273.65869,503.91064v-7.52246h-1.85693v-.84863a6.08454,6.08454,0,0,0,2.16113-.752h1.0083v9.123H277.084v1.08887h-5.7622v-1.08887Z" fill="#b0b0b0"/><path d="M279.04932,504.19873a.95492.95492,0,1,1,1.90478,0,.95323.95323,0,1,1-1.90478,0Z" fill="#b0b0b0"/><path d="M282.39355,503.79932l.64014-.86426a3.476,3.476,0,0,0,2.57715,1.168,2.20337,2.20337,0,0,0,2.24072-2.33692,2.05226,2.05226,0,0,0-2.17676-2.24121,2.87123,2.87123,0,0,0-1.74462.625l-.70459-.44824.33642-4.91406h5.106v1.13672h-3.95361l-.272,3.02441a3.13742,3.13742,0,0,1,1.56836-.416,2.93985,2.93985,0,0,1,3.16944,3.20118,3.33957,3.33957,0,0,1-3.44141,3.458A4.47651,4.47651,0,0,1,282.39355,503.79932Z" fill="#b0b0b0"/><path d="M375.49951,497.66846a1.80926,1.80926,0,0,0-1.937-2.001,3.01218,3.01218,0,0,0-2.17676,1.23242l-.75244-.752a4.00815,4.00815,0,0,1,3.08936-1.55274,2.83642,2.83642,0,0,1,3.05713,3.00977c0,1.91992-1.74463,3.8252-4.16163,6.35449.56006-.04883,1.18457-.09668,1.71289-.09668H377.292v1.13672h-6.59472v-.78418C373.77051,501.15771,375.49951,499.31689,375.49951,497.66846Z" fill="#b0b0b0"/><path d="M379.04932,504.19873a.95492.95492,0,1,1,1.90478,0,.95323.95323,0,1,1-1.90478,0Z" fill="#b0b0b0"/><path d="M382.39355,503.79932l.64014-.86426a3.476,3.476,0,0,0,2.57715,1.168,2.20337,2.20337,0,0,0,2.24072-2.33692,2.05226,2.05226,0,0,0-2.17676-2.24121,2.87123,2.87123,0,0,0-1.74462.625l-.70459-.44824.33642-4.91406h5.106v1.13672h-3.95361l-.272,3.02441a3.13742,3.13742,0,0,1,1.56836-.416,2.93985,2.93985,0,0,1,3.16944,3.20118,3.33957,3.33957,0,0,1-3.44141,3.458A4.47651,4.47651,0,0,1,382.39355,503.79932Z" fill="#b0b0b0"/><path d="M470.47314,503.75146l.67237-.86523a3.46641,3.46641,0,0,0,2.60888,1.2168,1.90384,1.90384,0,0,0,2.11329-1.873c0-1.21582-.83252-2.03223-3.26563-2.03223V499.189c2.17676,0,2.89746-.832,2.89746-1.90429a1.57235,1.57235,0,0,0-1.76074-1.61719,3.097,3.097,0,0,0-2.17725,1.041l-.7041-.833a4.20427,4.20427,0,0,1,2.9292-1.28028c1.77686,0,3.05713.94434,3.05713,2.59278a2.53144,2.53144,0,0,1-1.85645,2.43359v.06348a2.63506,2.63506,0,0,1,2.2085,2.59375c0,1.80859-1.48828,2.91308-3.36133,2.91308A4.34085,4.34085,0,0,1,470.47314,503.75146Z" fill="#b0b0b0"/><path d="M479.04932,504.19873a.95492.95492,0,1,1,1.90478,0,.95323.95323,0,1,1-1.90478,0Z" fill="#b0b0b0"/><path d="M482.39355,503.79932l.64014-.86426a3.476,3.476,0,0,0,2.57715,1.168,2.20337,2.20337,0,0,0,2.24072-2.33692,2.05226,2.05226,0,0,0-2.17676-2.24121,2.87123,2.87123,0,0,0-1.74462.625l-.70459-.44824.33642-4.91406h5.106v1.13672h-3.95361l-.272,3.02441a3.13742,3.13742,0,0,1,1.56836-.416,2.93985,2.93985,0,0,1,3.16944,3.20118,3.33957,3.33957,0,0,1-3.44141,3.458A4.47651,4.47651,0,0,1,482.39355,503.79932Z" fill="#b0b0b0"/><path d="M570.3291,502.18213v-.86426l4.37012-6.53027h1.47217v6.33789H577.564v1.05664h-1.39257v2.81738h-1.24854v-2.81738Zm4.59375-4.01758c0-.54394.04834-1.4248.08008-1.96875h-.064c-.25585.49609-.54394.94434-.832,1.44043l-2.38525,3.48926h3.20117Z" fill="#b0b0b0"/><path d="M579.04932,504.19873a.95492.95492,0,1,1,1.90478,0,.95323.95323,0,1,1-1.90478,0Z" fill="#b0b0b0"/><path d="M582.39355,503.79932l.64014-.86426a3.476,3.476,0,0,0,2.57715,1.168,2.20337,2.20337,0,0,0,2.24072-2.33692,2.05226,2.05226,0,0,0-2.17676-2.24121,2.87123,2.87123,0,0,0-1.74462.625l-.70459-.44824.33642-4.91406h5.106v1.13672h-3.95361l-.272,3.02441a3.13742,3.13742,0,0,1,1.56836-.416,2.93985,2.93985,0,0,1,3.16944,3.20118,3.33957,3.33957,0,0,1-3.44141,3.458A4.47651,4.47651,0,0,1,582.39355,503.79932Z" fill="#b0b0b0"/><path d="M35.85938,414.49951l2.01708,5.60156c.25586.72071.4961,1.47266.75245,2.19336h.064c.25586-.7207.46387-1.47265.72022-2.19336l1.98486-5.60156h1.6167v10.5H41.76611v-5.77832c0-.92871.11182-2.17676.17578-3.10547h-.064l-.832,2.38477L39.061,423.94287h-.88038l-1.98486-5.44238-.83252-2.38477h-.064c.064.92871.16015,2.17676.16015,3.10547v5.77832H34.25879v-10.5Z" fill="#b0b0b0"/><path d="M45.28271,422.98291c0-1.69727,1.45655-2.54492,4.76954-2.91309,0-.99316-.31983-1.95312-1.60059-1.95312a4.23158,4.23158,0,0,0-2.3208.832l-.51221-.91211a5.776,5.776,0,0,1,3.05713-1.00879c1.90479,0,2.70508,1.26465,2.70508,3.20215v4.76953H50.29248l-.11182-.92871h-.04834a4.14972,4.14972,0,0,1-2.57666,1.12109A2.11673,2.11673,0,0,1,45.28271,422.98291Zm4.76954.1123v-2.16113c-2.59278.32031-3.48926.96-3.48926,1.95215,0,.88086.6084,1.249,1.37646,1.249A3.15321,3.15321,0,0,0,50.05225,423.09521Z" fill="#b0b0b0"/><path d="M53.23438,426.48779a2.24585,2.24585,0,0,1,1.13671-1.76074v-.06348a1.43591,1.43591,0,0,1-.68847-1.26464,1.82146,1.82146,0,0,1,.84814-1.44043V421.894a2.746,2.746,0,0,1,1.9209-4.86621,3.10027,3.10027,0,0,1,1.10449.19238h2.70508V418.229H58.66064a2.25429,2.25429,0,0,1,.64014,1.60059,2.6697,2.6697,0,0,1-2.84912,2.70508,2.70752,2.70752,0,0,1-1.16846-.27246,1.17908,1.17908,0,0,0-.49609.92871c0,.49609.32031.84863,1.37646.84863h1.50489c1.80859,0,2.7207.55957,2.7207,1.85645,0,1.44043-1.52051,2.68945-3.9375,2.68945C54.54688,428.58545,53.23438,427.83252,53.23438,426.48779Zm5.87451-.39941c0-.7207-.56006-.96094-1.56885-.96094H56.1958a3.80551,3.80551,0,0,1-1.00879-.12793,1.63934,1.63934,0,0,0-.80029,1.3125c0,.832.84863,1.36035,2.25732,1.36035C58.13232,427.67236,59.10889,426.90381,59.10889,426.08838Zm-1.0083-6.291a1.65575,1.65575,0,1,0-3.29737,0,1.66031,1.66031,0,1,0,3.29737,0Z" fill="#b0b0b0"/><path d="M62.979,417.22021l.11231,1.1211h.04785a3.66779,3.66779,0,0,1,2.60889-1.31348c1.63281,0,2.36914,1.05664,2.36914,3.042v4.92969h-1.3125v-4.7539c0-1.457-.44824-2.08106-1.47266-2.08106-.80029,0-1.34473.416-2.12891,1.2002v5.63476h-1.3125v-7.7793Z" fill="#b0b0b0"/><path d="M70.40234,414.771a.91482.91482,0,0,1,1.82471,0,.91475.91475,0,0,1-1.82471,0Zm1.55274,2.44921v7.7793h-1.3125v-7.7793Z" fill="#b0b0b0"/><path d="M74.80225,422.59814v-4.30566H73.6499v-.99219l1.21631-.08008.16016-2.17675h1.10449v2.17675h2.09668v1.07227H76.13086v4.32227c0,.96.3042,1.50488,1.20019,1.50488a2.80591,2.80591,0,0,0,.88038-.209l.25634.99317a4.81822,4.81822,0,0,1-1.44043.28808C75.3623,425.19189,74.80225,424.13525,74.80225,422.59814Z" fill="#b0b0b0"/><path d="M79.87451,422.1499v-4.92969h1.32813v4.75391c0,1.457.43261,2.08106,1.457,2.08106.80029,0,1.36035-.40039,2.09668-1.3125v-5.52247h1.3125v7.7793H84.98047l-.11231-1.2168h-.04785a3.2882,3.2882,0,0,1-2.561,1.40918C80.61084,425.19189,79.87451,424.13525,79.87451,422.1499Z" fill="#b0b0b0"/><path d="M88.13037,421.12549c0-2.52832,1.60059-4.09766,3.37744-4.09766a3.209,3.209,0,0,1,2.17676.89649l-.064-1.32813V413.603h1.32861v11.39648H93.86035l-.11181-.91211h-.04786a3.51243,3.51243,0,0,1-2.353,1.10449C89.39453,425.19189,88.13037,423.71924,88.13037,421.12549Zm5.49024,1.88965v-4.06641a2.70951,2.70951,0,0,0-1.88916-.81641c-1.248,0-2.24073,1.20118-2.24073,2.97754,0,1.85645.78418,2.97754,2.145,2.97754A2.6352,2.6352,0,0,0,93.62061,423.01514Z" fill="#b0b0b0"/><path d="M96.99414,421.12549c0-2.54492,1.71289-4.09766,3.48926-4.09766,1.98486,0,3.10547,1.42481,3.10547,3.65039a5.0611,5.0611,0,0,1-.04834.752h-5.25a2.58045,2.58045,0,0,0,2.59326,2.70507,3.51414,3.51414,0,0,0,1.93652-.60839l.46436.86425a4.62886,4.62886,0,0,1-2.561.80078A3.7199,3.7199,0,0,1,96.99414,421.12549Zm3.52148-3.05664a2.40262,2.40262,0,0,0-2.24121,2.417h4.16211C102.43652,418.91748,101.73193,418.06885,100.51562,418.06885Z" fill="#b0b0b0"/><path d="M55.82666,440.54932a13.3099,13.3099,0,0,1,2.11279-7.26661l.81641.38379a13.78781,13.78781,0,0,0,0,13.76563l-.81641.38476A13.31314,13.31314,0,0,1,55.82666,440.54932Z" fill="#b0b0b0"/><path d="M60.11475,441.12549c0-2.52832,1.60058-4.09766,3.37744-4.09766a3.209,3.209,0,0,1,2.17676.89649l-.064-1.32813V433.603h1.32861v11.39648H65.84473l-.11182-.91211h-.04785a3.51247,3.51247,0,0,1-2.353,1.10449C61.37891,445.19189,60.11475,443.71924,60.11475,441.12549Zm5.49023,1.88965v-4.06641a2.7095,2.7095,0,0,0-1.88916-.81641c-1.248,0-2.24072,1.20118-2.24072,2.97754,0,1.85645.78418,2.97754,2.145,2.97754A2.63518,2.63518,0,0,0,65.605,443.01514Z" fill="#b0b0b0"/><path d="M72.8042,434.49951c2.12891,0,3.60107.71973,3.60107,2.56055a2.29641,2.29641,0,0,1-1.53662,2.28906v.06445a2.41544,2.41544,0,0,1,2.145,2.5127c0,2.06445-1.63281,3.07324-3.98535,3.07324h-3.3457v-10.5Zm2.28857,2.73731c0-1.2168-.832-1.68067-2.46484-1.68067h-1.6167v3.40918H72.564C74.35645,438.96533,75.09277,438.30908,75.09277,437.23682Zm.6084,4.6416c0-1.29688-1.02441-1.88867-2.86523-1.88867H71.01123v3.95312h1.82471C74.64453,443.94287,75.70117,443.28662,75.70117,441.87842Z" fill="#b0b0b0"/><path d="M80.09912,440.54932a13.32048,13.32048,0,0,0-1.84082-6.88282l.81641-.38379a13.55423,13.55423,0,0,1,0,14.53418l-.81641-.38476A13.31541,13.31541,0,0,0,80.09912,440.54932Z" fill="#b0b0b0"/><path d="M672.46777,494.5v1.12012h-4.72216v3.55371h4.00146V500.294h-4.00146V505H666.417V494.5Z" fill="#b0b0b0"/><path d="M674.96143,497.2207l.1123,1.40918h.04785a2.6619,2.6619,0,0,1,2.209-1.60156,1.94126,1.94126,0,0,1,.832.16016l-.25586,1.15332a2.17672,2.17672,0,0,0-.75244-.12891c-.65625,0-1.44043.48047-1.96875,1.793V505h-1.3125v-7.7793Z" fill="#b0b0b0"/><path d="M678.68848,501.126c0-2.54493,1.71289-4.09766,3.48925-4.09766,1.98487,0,3.10547,1.4248,3.10547,3.65039a5.05951,5.05951,0,0,1-.04834.75195h-5.25a2.58046,2.58046,0,0,0,2.59326,2.70508,3.5141,3.5141,0,0,0,1.93653-.6084l.46435.86426a4.6288,4.6288,0,0,1-2.561.80078A3.71989,3.71989,0,0,1,678.68848,501.126Zm3.52148-3.05664a2.40261,2.40261,0,0,0-2.24121,2.417h4.16211C684.13086,498.918,683.42627,498.06934,682.21,498.06934Z" fill="#b0b0b0"/><path d="M692.19482,504.10352a3.45094,3.45094,0,0,1-2.33691,1.08886c-1.95312,0-3.21729-1.47265-3.21729-4.0664,0-2.52832,1.60059-4.09766,3.37745-4.09766a3.1671,3.1671,0,0,1,2.22461.92871h.03222l.12793-.73633h1.05664v11.06055h-1.32861v-2.76953Zm-.064-1.0879v-4.0664a2.7093,2.7093,0,0,0-1.88867-.81641c-1.24854,0-2.24121,1.20117-2.24121,2.97754,0,1.85645.78418,2.97754,2.145,2.97754A2.63518,2.63518,0,0,0,692.13086,503.01562Z" fill="#b0b0b0"/><path d="M695.96875,502.15039V497.2207h1.32813v4.75391c0,1.457.43261,2.08105,1.457,2.08105.80029,0,1.36035-.40039,2.09668-1.3125V497.2207h1.3125V505h-1.08838l-.11231-1.2168h-.04785a3.2882,3.2882,0,0,1-2.561,1.40918C696.70508,505.19238,695.96875,504.13574,695.96875,502.15039Z" fill="#b0b0b0"/><path d="M704.208,501.126c0-2.54493,1.71289-4.09766,3.48926-4.09766,1.98486,0,3.10546,1.4248,3.10546,3.65039a5.05951,5.05951,0,0,1-.04834.75195h-5.25a2.58047,2.58047,0,0,0,2.59327,2.70508,3.51409,3.51409,0,0,0,1.93652-.6084l.46436.86426a4.62886,4.62886,0,0,1-2.561.80078A3.7199,3.7199,0,0,1,704.208,501.126Zm3.52148-3.05664a2.40261,2.40261,0,0,0-2.24121,2.417h4.16211C709.65039,498.918,708.9458,498.06934,707.72949,498.06934Z" fill="#b0b0b0"/><path d="M713.80859,497.2207l.11231,1.1211h.04785a3.66779,3.66779,0,0,1,2.60889-1.31348c1.63281,0,2.36914,1.05664,2.36914,3.042V505h-1.3125v-4.75391c0-1.457-.44824-2.08105-1.47266-2.08105-.80029,0-1.34473.416-2.12891,1.20019V505h-1.3125v-7.7793Z" fill="#b0b0b0"/><path d="M720.896,501.126a3.76787,3.76787,0,0,1,3.7456-4.09766,3.23,3.23,0,0,1,2.27295.91309l-.67236.86425a2.28025,2.28025,0,0,0-1.55274-.68847c-1.40869,0-2.4331,1.21679-2.4331,3.00879,0,1.77734.97656,2.97754,2.40136,2.97754a2.76316,2.76316,0,0,0,1.82471-.78418l.57617.87988a3.7932,3.7932,0,0,1-2.51318.99316C722.48047,505.19238,720.896,503.70312,720.896,501.126Z" fill="#b0b0b0"/><path d="M728.08008,508.18555l.25586-1.041a2.25634,2.25634,0,0,0,.59228.11231c.88037,0,1.44092-.70411,1.76074-1.665l.17627-.57618-3.12158-7.79492h1.36084l1.58447,4.30567c.24024.67285.51221,1.47265.75245,2.19336h.064c.22412-.70411.44824-1.50489.65625-2.19336l1.39258-4.30567h1.28027l-2.9292,8.41992c-.54394,1.53614-1.34423,2.70508-2.91308,2.70508A2.58846,2.58846,0,0,1,728.08008,508.18555Z" fill="#b0b0b0"/><path d="M687.27393,514.5c2.145,0,3.68164.76758,3.68164,2.94531a2.86663,2.86663,0,0,1-2.36866,2.97657L691.25977,525h-1.5044l-2.5293-4.43359h-1.90478V525h-1.32861V514.5Zm2.353,2.94531c0-1.37695-.91211-1.873-2.54492-1.873h-1.76074v3.90527H687.082C688.71484,519.47754,689.627,518.80566,689.627,517.44531Z" fill="#b0b0b0"/><path d="M692.42432,522.9834c0-1.69727,1.45654-2.54492,4.76953-2.91309,0-.99316-.31983-1.95312-1.60059-1.95312a4.23161,4.23161,0,0,0-2.3208.832l-.51221-.91211a5.776,5.776,0,0,1,3.05713-1.00879c1.90479,0,2.70508,1.26465,2.70508,3.20215V525h-1.08838l-.11181-.92871h-.04834a4.14976,4.14976,0,0,1-2.57666,1.12109A2.11673,2.11673,0,0,1,692.42432,522.9834Zm4.76953.1123v-2.16113c-2.59278.32031-3.48926.96-3.48926,1.95215,0,.88086.6084,1.249,1.37646,1.249A3.15319,3.15319,0,0,0,697.19385,523.0957Z" fill="#b0b0b0"/><path d="M700.96875,522.59863V518.293h-1.15234v-.99219l1.2163-.08008.16016-2.17675h1.10449v2.17675H704.394V518.293h-2.09668v4.32226c0,.96.3042,1.50489,1.2002,1.50489a2.80592,2.80592,0,0,0,.88037-.209l.25635.99317a4.81822,4.81822,0,0,1-1.44043.28808C701.52881,525.19238,700.96875,524.13574,700.96875,522.59863Z" fill="#b0b0b0"/><path d="M705.91211,514.77148a.91482.91482,0,0,1,1.82471,0,.91475.91475,0,0,1-1.82471,0Zm1.55273,2.44922V525h-1.3125v-7.7793Z" fill="#b0b0b0"/><path d="M709.51221,521.126c0-2.6084,1.69677-4.09766,3.60156-4.09766s3.60107,1.48926,3.60107,4.09766c0,2.57714-1.69629,4.0664-3.60107,4.0664S709.51221,523.70312,709.51221,521.126Zm5.84228,0c0-1.792-.89648-3.00879-2.24072-3.00879-1.32861,0-2.24121,1.21679-2.24121,3.00879,0,1.77734.9126,2.97754,2.24121,2.97754C714.458,524.10352,715.35449,522.90332,715.35449,521.126Z" fill="#b0b0b0"/><line x1="110" y1="115.00061" x2="698.69861" y2="115.00061" fill="none" stroke="#7f7f7f" stroke-width="1.2"/><polygon points="694.722 119.908 693.904 119.03 698.238 115.002 693.904 110.973 694.722 110.094 700 115.002 694.722 119.908" fill="#7f7f7f"/><line x1="130" y1="335.00061" x2="130" y2="76.302" fill="none" stroke="#7f7f7f" stroke-width="1.2"/><polygon points="134.908 80.278 134.029 81.097 130.001 76.763 125.972 81.097 125.093 80.278 130.001 75.001 134.908 80.278" fill="#7f7f7f"/><line x1="110" y1="475" x2="698.69861" y2="475" fill="none" stroke="#7f7f7f" stroke-width="1.2"/><polygon points="694.722 479.908 693.904 479.029 698.238 475.001 693.904 470.972 694.722 470.093 700 475.001 694.722 479.908" fill="#7f7f7f"/><line x1="130" y1="695" x2="130" y2="436.30176" fill="none" stroke="#7f7f7f" stroke-width="1.2"/><polygon points="134.908 440.278 134.029 441.096 130.001 436.762 125.972 441.096 125.093 440.278 130.001 435 134.908 440.278" fill="#7f7f7f"/><line x1="124" y1="95.00063" x2="130" y2="94.99909" fill="none" stroke="#7f7f7f" stroke-width="1.2"/><line x1="124" y1="135.00063" x2="130" y2="134.99909" fill="none" stroke="#7f7f7f" stroke-width="1.2"/><line x1="124" y1="175.00063" x2="130" y2="174.99909" fill="none" stroke="#7f7f7f" stroke-width="1.2"/><line x1="124" y1="215.00063" x2="130" y2="214.99909" fill="none" stroke="#7f7f7f" stroke-width="1.2"/><line x1="124" y1="255.00063" x2="130" y2="254.99909" fill="none" stroke="#7f7f7f" stroke-width="1.2"/><line x1="124" y1="295" x2="130" y2="294.99846" fill="none" stroke="#7f7f7f" stroke-width="1.2"/><line x1="116" y1="155.00063" x2="130" y2="154.99909" fill="none" stroke="#7f7f7f" stroke-width="1.2"/><line x1="116" y1="235.00063" x2="130" y2="234.99909" fill="none" stroke="#7f7f7f" stroke-width="1.2"/><line x1="116" y1="275.00063" x2="130" y2="274.99909" fill="none" stroke="#7f7f7f" stroke-width="1.2"/><line x1="116" y1="195.00217" x2="130" y2="195.00063" fill="none" stroke="#7f7f7f" stroke-width="1.2"/><line x1="124" y1="455.00187" x2="130" y2="455.00033" fill="none" stroke="#7f7f7f" stroke-width="1.2"/><line x1="124" y1="495.00187" x2="130" y2="495.00033" fill="none" stroke="#7f7f7f" stroke-width="1.2"/><line x1="124" y1="535.00187" x2="130" y2="535.00033" fill="none" stroke="#7f7f7f" stroke-width="1.2"/><line x1="124" y1="575.00187" x2="130" y2="575.00033" fill="none" stroke="#7f7f7f" stroke-width="1.2"/><line x1="124" y1="615.00187" x2="130" y2="615.00033" fill="none" stroke="#7f7f7f" stroke-width="1.2"/><line x1="124" y1="655" x2="130" y2="654.99846" fill="none" stroke="#7f7f7f" stroke-width="1.2"/><line x1="116" y1="515.00187" x2="130" y2="515.00033" fill="none" stroke="#7f7f7f" stroke-width="1.2"/><line x1="116" y1="595.00187" x2="130" y2="595.00033" fill="none" stroke="#7f7f7f" stroke-width="1.2"/><line x1="116" y1="635.00187" x2="130" y2="635.00033" fill="none" stroke="#7f7f7f" stroke-width="1.2"/><line x1="116" y1="555.00341" x2="130" y2="555.00187" fill="none" stroke="#7f7f7f" stroke-width="1.2"/><line x1="180" y1="123.00063" x2="179.99384" y2="115.00063" fill="none" stroke="#7f7f7f" stroke-width="1.2"/><line x1="280.00616" y1="123.00063" x2="280" y2="115.00063" fill="none" stroke="#7f7f7f" stroke-width="1.2"/><line x1="380" y1="123.00063" x2="379.99384" y2="115.00063" fill="none" stroke="#7f7f7f" stroke-width="1.2"/><line x1="480.00616" y1="123.00063" x2="480" y2="115.00063" fill="none" stroke="#7f7f7f" stroke-width="1.2"/><line x1="580.00616" y1="123.00063" x2="580" y2="115.00063" fill="none" stroke="#7f7f7f" stroke-width="1.2"/><line x1="229.99384" y1="129.00063" x2="229.98768" y2="115.00063" fill="none" stroke="#7f7f7f" stroke-width="1.2"/><line x1="330" y1="129.00063" x2="329.99384" y2="115.00063" fill="none" stroke="#7f7f7f" stroke-width="1.2"/><line x1="429.99384" y1="129.00063" x2="429.98768" y2="115.00063" fill="none" stroke="#7f7f7f" stroke-width="1.2"/><line x1="530" y1="129.00063" x2="529.99384" y2="115.00063" fill="none" stroke="#7f7f7f" stroke-width="1.2"/><line x1="630" y1="129.00063" x2="629.99384" y2="115.00063" fill="none" stroke="#7f7f7f" stroke-width="1.2"/><line x1="180.00616" y1="489.00033" x2="180" y2="475.00033" fill="none" stroke="#7f7f7f" stroke-width="1.2"/><line x1="280.01232" y1="489.00033" x2="280.00616" y2="475.00033" fill="none" stroke="#7f7f7f" stroke-width="1.2"/><line x1="380.00616" y1="489.00033" x2="380" y2="475.00033" fill="none" stroke="#7f7f7f" stroke-width="1.2"/><line x1="480.01232" y1="489.00033" x2="480.00616" y2="475.00033" fill="none" stroke="#7f7f7f" stroke-width="1.2"/><line x1="580.01232" y1="489.00033" x2="580.00616" y2="475.00033" fill="none" stroke="#7f7f7f" stroke-width="1.2"/><line x1="229.99384" y1="485" x2="229.98768" y2="475" fill="none" stroke="#7f7f7f" stroke-width="1.2"/><line x1="330" y1="485" x2="329.99384" y2="475" fill="none" stroke="#7f7f7f" stroke-width="1.2"/><line x1="429.99384" y1="485" x2="429.98768" y2="475" fill="none" stroke="#7f7f7f" stroke-width="1.2"/><line x1="530" y1="485" x2="529.99384" y2="475" fill="none" stroke="#7f7f7f" stroke-width="1.2"/><line x1="630" y1="485" x2="629.99384" y2="475" fill="none" stroke="#7f7f7f" stroke-width="1.2"/><path d="M130,104.00063c30,0,50,49.46154,50,211" fill="none" stroke="#e9a460" stroke-width="1.4"/><path d="M180,315.00063c0-161.53846,20-211,50-211s50,49.46154,50,211" fill="none" stroke="#e9a460" stroke-width="1.4"/><path d="M280,315.00063c0-161.53846,20-211,50-211s50,49.46154,50,211" fill="none" stroke="#e9a460" stroke-width="1.4"/><path d="M380,315.00063c0-161.53846,20-211,50-211s50,49.46154,50,211" fill="none" stroke="#e9a460" stroke-width="1.4"/><path d="M480,315.00063c0-161.53846,20-211,50-211s50,49.46154,50,211" fill="none" stroke="#e9a460" stroke-width="1.4"/><path d="M580,315.00063c0-161.53846,20-211,50-211" fill="none" stroke="#e9a460" stroke-width="1.4"/><path d="M130,675c0-161.53846,20-211,50-211s50,49.46154,50,211" fill="none" stroke="#e9a460" stroke-width="1.4"/><path d="M230,675c0-161.53846,20-211,50-211s50,49.46154,50,211" fill="none" stroke="#e9a460" stroke-width="1.4"/><path d="M330,675c0-161.53846,20-211,50-211s50,49.46154,50,211" fill="none" stroke="#e9a460" stroke-width="1.4"/><path d="M430,675c0-161.53846,20-211,50-211s50,49.46154,50,211" fill="none" stroke="#e9a460" stroke-width="1.4"/><path d="M530,675c0-161.53846,20-211,50-211s50,49.46154,50,211" fill="none" stroke="#e9a460" stroke-width="1.4"/></svg>