<svg height="1160" viewBox="0 0 800 1160" width="800" xmlns="http://www.w3.org/2000/svg"><path d="m3.99976.5h792.00024a3.5 3.5 0 0 1 3.5 3.5v1152a3.5 3.5 0 0 1 -3.5 3.5h-792a3.5 3.5 0 0 1 -3.5-3.5v-1152.00024a3.49976 3.49976 0 0 1 3.49976-3.49976z" fill="#141414"/><path d="m796 1a3.00356 3.00356 0 0 1 3 3v1152a3.00352 3.00352 0 0 1 -3 3h-792a3.00336 3.00336 0 0 1 -3-3v-1152a3.0034 3.0034 0 0 1 3-3zm0-1h-792a3.99977 3.99977 0 0 0 -4 4v1152a3.99973 3.99973 0 0 0 4 4h792a4 4 0 0 0 4-4v-1152a4.00008 4.00008 0 0 0 -4-4z" fill="#666"/><path d="m19 41h762v341.99805h-762z" fill="#0f0f0f"/><path d="m780 42.00006v339.99823h-760v-339.99823zm2-2h-764v343.99823h764z" fill="#363636"/><path d="m19 421h762v341.99805h-762z" fill="#0f0f0f"/><path d="m780 421.99988v339.99829h-760v-339.99829zm2-2h-764v343.99829h764z" fill="#363636"/><path d="m19 801h762v341.99805h-762z" fill="#0f0f0f"/><path d="m780 801.99976v339.99829h-760v-339.99829zm2-2h-764v343.99829h764z" fill="#363636"/><path d="m19 15h762v26h-762z" fill="#363636"/><path d="m780 16v24h-760v-24zm2-2h-764v28h764z" fill="#363636"/><path d="m19 395h762v26h-762z" fill="#363636"/><path d="m780 395.99988v24h-760v-24zm2-2h-764v28h764z" fill="#363636"/><path d="m19 775h762v26h-762z" fill="#363636"/><path d="m780 775.99976v24h-760v-24zm2-2h-764v28h764z" fill="#363636"/><path d="m499.99997 41.99999v339.99834" fill="none" stroke="#202020"/><path d="m479.99998 41.99999v339.99834" fill="none" stroke="#202020"/><path d="m459.99998 41.99999v339.99834" fill="none" stroke="#202020"/><path d="m519.99996 41.99999v339.99834" fill="none" stroke="#202020"/><path d="m539.99996 41.99999v339.99834" fill="none" stroke="#202020"/><path d="m559.99995 41.99999v339.99834" fill="none" stroke="#202020"/><path d="m579.99995 41.99999v339.99834" fill="none" stroke="#202020"/><path d="m599.99994 41.99999v339.99834" fill="none" stroke="#202020"/><path d="m619.99993 41.99999v339.99834" fill="none" stroke="#202020"/><path d="m639.99993 41.99999v339.99834" fill="none" stroke="#202020"/><path d="m659.99992 41.99999v339.99834" fill="none" stroke="#202020"/><path d="m679.99991 41.99999v339.99834" fill="none" stroke="#202020"/><path d="m699.99991 41.99999v339.99834" fill="none" stroke="#202020"/><path d="m719.9999 41.99999v339.99834" fill="none" stroke="#202020"/><path d="m739.9999 41.99999v339.99834" fill="none" stroke="#202020"/><path d="m759.99989 41.99999v339.99834" fill="none" stroke="#202020"/><path d="m180.00007 41.99999v339.99834" fill="none" stroke="#202020"/><path d="m160.00007 41.99999v339.99834" fill="none" stroke="#202020"/><path d="m140.00008 41.99999v339.99834" fill="none" stroke="#202020"/><path d="m200.00006 41.99999v339.99834" fill="none" stroke="#202020"/><path d="m120.00009 41.99999v339.99834" fill="none" stroke="#202020"/><path d="m100.00009 41.99999v339.99834" fill="none" stroke="#202020"/><path d="m80.0001 41.99999v339.99834" fill="none" stroke="#202020"/><path d="m60.0001 41.99999v339.99834" fill="none" stroke="#202020"/><path d="m40.00011 41.99999v339.99834" fill="none" stroke="#202020"/><path d="m220.00005 41.99999v339.99834" fill="none" stroke="#202020"/><path d="m240.00005 41.99999v339.99834" fill="none" stroke="#202020"/><path d="m260.00004 41.99999v339.99834" fill="none" stroke="#202020"/><path d="m280.00004 41.99999v339.99834" fill="none" stroke="#202020"/><path d="m300.00003 41.99999v339.99834" fill="none" stroke="#202020"/><path d="m320.00002 41.99999v339.99834" fill="none" stroke="#202020"/><path d="m340.00002 41.99999v339.99834" fill="none" stroke="#202020"/><path d="m360.00001 41.99999v339.99834" fill="none" stroke="#202020"/><path d="m380.00001 41.99999v339.99834" fill="none" stroke="#202020"/><path d="m400 41.99999v339.99834" fill="none" stroke="#202020"/><path d="m419.99999 41.99999v339.99834" fill="none" stroke="#202020"/><path d="m439.99999 41.99999v339.99834" fill="none" stroke="#202020"/><path d="m20.0001 221.99811h759.99685" fill="none" stroke="#202020"/><path d="m20.0001 241.99964h759.99685" fill="none" stroke="#202020"/><path d="m20.0001 261.99964h759.99685" fill="none" stroke="#202020"/><path d="m20.0001 281.99963h759.99685" fill="none" stroke="#202020"/><path d="m20.0001 201.99812h759.99685" fill="none" stroke="#202020"/><path d="m20.0001 181.99812h759.99685" fill="none" stroke="#202020"/><path d="m20.0001 161.99813h759.99685" fill="none" stroke="#202020"/><path d="m20.0001 141.99813h759.99685" fill="none" stroke="#202020"/><path d="m20.0001 121.99814h759.99685" fill="none" stroke="#202020"/><path d="m20.0001 101.99969h759.99685" fill="none" stroke="#202020"/><path d="m20.0001 81.99815h759.99685" fill="none" stroke="#202020"/><path d="m20.0001 61.9997h759.99685" fill="none" stroke="#202020"/><path d="m20.0001 361.99833h759.99685" fill="none" stroke="#202020"/><path d="m20.0001 341.99834h759.99685" fill="none" stroke="#202020"/><path d="m20.0001 321.99835h759.99685" fill="none" stroke="#202020"/><path d="m20.0001 301.99989h759.99685" fill="none" stroke="#202020"/><path d="m499.99997 421.99987v339.99834" fill="none" stroke="#202020"/><path d="m479.99998 421.99987v339.99834" fill="none" stroke="#202020"/><path d="m459.99998 421.99987v339.99834" fill="none" stroke="#202020"/><path d="m519.99996 421.99987v339.99834" fill="none" stroke="#202020"/><path d="m539.99996 421.99987v339.99834" fill="none" stroke="#202020"/><path d="m559.99995 421.99987v339.99834" fill="none" stroke="#202020"/><path d="m579.99995 421.99987v339.99834" fill="none" stroke="#202020"/><path d="m599.99994 421.99987v339.99834" fill="none" stroke="#202020"/><path d="m619.99993 421.99987v339.99834" fill="none" stroke="#202020"/><path d="m639.99993 421.99987v339.99834" fill="none" stroke="#202020"/><path d="m659.99992 421.99987v339.99834" fill="none" stroke="#202020"/><path d="m679.99991 421.99987v339.99834" fill="none" stroke="#202020"/><path d="m699.99991 421.99987v339.99834" fill="none" stroke="#202020"/><path d="m719.9999 421.99987v339.99834" fill="none" stroke="#202020"/><path d="m739.9999 421.99987v339.99834" fill="none" stroke="#202020"/><path d="m759.99989 421.99987v339.99834" fill="none" stroke="#202020"/><path d="m180.00007 421.99987v339.99834" fill="none" stroke="#202020"/><path d="m160.00007 421.99987v339.99834" fill="none" stroke="#202020"/><path d="m140.00008 421.99987v339.99834" fill="none" stroke="#202020"/><path d="m200.00006 421.99987v339.99834" fill="none" stroke="#202020"/><path d="m120.00009 421.99987v339.99834" fill="none" stroke="#202020"/><path d="m100.00009 421.99987v339.99834" fill="none" stroke="#202020"/><path d="m80.0001 421.99987v339.99834" fill="none" stroke="#202020"/><path d="m60.0001 421.99987v339.99834" fill="none" stroke="#202020"/><path d="m40.00011 421.99987v339.99834" fill="none" stroke="#202020"/><path d="m220.00005 421.99987v339.99834" fill="none" stroke="#202020"/><path d="m240.00005 421.99987v339.99834" fill="none" stroke="#202020"/><path d="m260.00004 421.99987v339.99834" fill="none" stroke="#202020"/><path d="m280.00004 421.99987v339.99834" fill="none" stroke="#202020"/><path d="m300.00003 421.99987v339.99834" fill="none" stroke="#202020"/><path d="m320.00002 421.99987v339.99834" fill="none" stroke="#202020"/><path d="m340.00002 421.99987v339.99834" fill="none" stroke="#202020"/><path d="m360.00001 421.99987v339.99834" fill="none" stroke="#202020"/><path d="m380.00001 421.99987v339.99834" fill="none" stroke="#202020"/><path d="m400 421.99987v339.99834" fill="none" stroke="#202020"/><path d="m419.99999 421.99987v339.99834" fill="none" stroke="#202020"/><path d="m439.99999 421.99987v339.99834" fill="none" stroke="#202020"/><path d="m20.0001 601.99799h759.99685" fill="none" stroke="#202020"/><path d="m20.0001 621.99953h759.99685" fill="none" stroke="#202020"/><path d="m20.0001 641.99952h759.99685" fill="none" stroke="#202020"/><path d="m20.0001 661.99952h759.99685" fill="none" stroke="#202020"/><path d="m20.0001 581.998h759.99685" fill="none" stroke="#202020"/><path d="m20.0001 561.99801h759.99685" fill="none" stroke="#202020"/><path d="m20.0001 541.99801h759.99685" fill="none" stroke="#202020"/><path d="m20.0001 521.99802h759.99685" fill="none" stroke="#202020"/><path d="m20.0001 501.99802h759.99685" fill="none" stroke="#202020"/><path d="m20.0001 481.99957h759.99685" fill="none" stroke="#202020"/><path d="m20.0001 461.99804h759.99685" fill="none" stroke="#202020"/><path d="m20.0001 441.99958h759.99685" fill="none" stroke="#202020"/><path d="m20.0001 741.99822h759.99685" fill="none" stroke="#202020"/><path d="m20.0001 721.99822h759.99685" fill="none" stroke="#202020"/><path d="m20.0001 701.99823h759.99685" fill="none" stroke="#202020"/><path d="m20.0001 681.99978h759.99685" fill="none" stroke="#202020"/><path d="m499.99997 801.99976v339.99834" fill="none" stroke="#202020"/><path d="m479.99998 801.99976v339.99834" fill="none" stroke="#202020"/><path d="m459.99998 801.99976v339.99834" fill="none" stroke="#202020"/><path d="m519.99996 801.99976v339.99834" fill="none" stroke="#202020"/><path d="m539.99996 801.99976v339.99834" fill="none" stroke="#202020"/><path d="m559.99995 801.99976v339.99834" fill="none" stroke="#202020"/><path d="m579.99995 801.99976v339.99834" fill="none" stroke="#202020"/><path d="m599.99994 801.99976v339.99834" fill="none" stroke="#202020"/><path d="m619.99993 801.99976v339.99834" fill="none" stroke="#202020"/><path d="m639.99993 801.99976v339.99834" fill="none" stroke="#202020"/><path d="m659.99992 801.99976v339.99834" fill="none" stroke="#202020"/><path d="m679.99991 801.99976v339.99834" fill="none" stroke="#202020"/><path d="m699.99991 801.99976v339.99834" fill="none" stroke="#202020"/><path d="m719.9999 801.99976v339.99834" fill="none" stroke="#202020"/><path d="m739.9999 801.99976v339.99834" fill="none" stroke="#202020"/><path d="m759.99989 801.99976v339.99834" fill="none" stroke="#202020"/><path d="m180.00007 801.99976v339.99834" fill="none" stroke="#202020"/><path d="m160.00007 801.99976v339.99834" fill="none" stroke="#202020"/><path d="m140.00008 801.99976v339.99834" fill="none" stroke="#202020"/><path d="m200.00006 801.99976v339.99834" fill="none" stroke="#202020"/><path d="m120.00009 801.99976v339.99834" fill="none" stroke="#202020"/><path d="m100.00009 801.99976v339.99834" fill="none" stroke="#202020"/><path d="m80.0001 801.99976v339.99834" fill="none" stroke="#202020"/><path d="m60.0001 801.99976v339.99834" fill="none" stroke="#202020"/><path d="m40.00011 801.99976v339.99834" fill="none" stroke="#202020"/><path d="m220.00005 801.99976v339.99834" fill="none" stroke="#202020"/><path d="m240.00005 801.99976v339.99834" fill="none" stroke="#202020"/><path d="m260.00004 801.99976v339.99834" fill="none" stroke="#202020"/><path d="m280.00004 801.99976v339.99834" fill="none" stroke="#202020"/><path d="m300.00003 801.99976v339.99834" fill="none" stroke="#202020"/><path d="m320.00002 801.99976v339.99834" fill="none" stroke="#202020"/><path d="m340.00002 801.99976v339.99834" fill="none" stroke="#202020"/><path d="m360.00001 801.99976v339.99834" fill="none" stroke="#202020"/><path d="m380.00001 801.99976v339.99834" fill="none" stroke="#202020"/><path d="m400 801.99976v339.99834" fill="none" stroke="#202020"/><path d="m419.99999 801.99976v339.99834" fill="none" stroke="#202020"/><path d="m439.99999 801.99976v339.99834" fill="none" stroke="#202020"/><path d="m20.0001 981.99788h759.99685" fill="none" stroke="#202020"/><path d="m20.0001 1001.99941h759.99685" fill="none" stroke="#202020"/><path d="m20.0001 1021.99941h759.99685" fill="none" stroke="#202020"/><path d="m20.0001 1041.9994h759.99685" fill="none" stroke="#202020"/><path d="m20.0001 961.99788h759.99685" fill="none" stroke="#202020"/><path d="m20.0001 941.99789h759.99685" fill="none" stroke="#202020"/><path d="m20.0001 921.9979h759.99685" fill="none" stroke="#202020"/><path d="m20.0001 901.9979h759.99685" fill="none" stroke="#202020"/><path d="m20.0001 881.99791h759.99685" fill="none" stroke="#202020"/><path d="m20.0001 861.99945h759.99685" fill="none" stroke="#202020"/><path d="m20.0001 841.99792h759.99685" fill="none" stroke="#202020"/><path d="m20.0001 821.99947h759.99685" fill="none" stroke="#202020"/><path d="m20.0001 1121.9981h759.99685" fill="none" stroke="#202020"/><path d="m20.0001 1101.99811h759.99685" fill="none" stroke="#202020"/><path d="m20.0001 1081.99811h759.99685" fill="none" stroke="#202020"/><path d="m20.0001 1061.99966h759.99685" fill="none" stroke="#202020"/><g fill="#cacaca"><path d="m131.01025 341.21777c0-3.85351 1.38623-5.92382 3.69092-5.92382 2.28687 0 3.67334 2.07031 3.67334 5.92382 0 3.85254-1.38647 5.99512-3.67334 5.99512-2.30469 0-3.69092-2.14258-3.69092-5.99512zm5.92383 0c0-3.36718-.90039-4.73632-2.23291-4.73632-1.3501 0-2.25049 1.36914-2.25049 4.73632 0 3.36621.90039 4.80664 2.25049 4.80664 1.33252 0 2.23291-1.44041 2.23291-4.80664z"/><path d="m140.33447 346.09668a1.07414 1.07414 0 1 1 2.14258 0 1.0722 1.0722 0 1 1 -2.14258 0z"/><path d="m144.438 341.21777c0-3.85351 1.38623-5.92382 3.69092-5.92382 2.28686 0 3.67334 2.07031 3.67334 5.92382 0 3.85254-1.38648 5.99512-3.67334 5.99512-2.3047 0-3.69092-2.14258-3.69092-5.99512zm5.92383 0c0-3.36718-.90039-4.73632-2.23291-4.73632-1.3501 0-2.25049 1.36914-2.25049 4.73632 0 3.36621.90039 4.80664 2.25049 4.80664 1.33251 0 2.2329-1.44041 2.2329-4.80664z"/><path d="m131.01025 721.22266c0-3.85352 1.38623-5.92383 3.69092-5.92383 2.28687 0 3.67334 2.07031 3.67334 5.92383 0 3.85254-1.38647 5.99511-3.67334 5.99511-2.30469 0-3.69092-2.14257-3.69092-5.99511zm5.92383 0c0-3.36719-.90039-4.73633-2.23291-4.73633-1.3501 0-2.25049 1.36914-2.25049 4.73633 0 3.36621.90039 4.80664 2.25049 4.80664 1.33252 0 2.23291-1.44043 2.23291-4.80664z"/><path d="m140.33447 726.10156a1.07414 1.07414 0 1 1 2.14258 0 1.0722 1.0722 0 1 1 -2.14258 0z"/><path d="m144.438 721.22266c0-3.85352 1.38623-5.92383 3.69092-5.92383 2.28686 0 3.67334 2.07031 3.67334 5.92383 0 3.85254-1.38648 5.99511-3.67334 5.99511-2.3047 0-3.69092-2.14257-3.69092-5.99511zm5.92383 0c0-3.36719-.90039-4.73633-2.23291-4.73633-1.3501 0-2.25049 1.36914-2.25049 4.73633 0 3.36621.90039 4.80664 2.25049 4.80664 1.33251 0 2.2329-1.44043 2.2329-4.80664z"/><path d="m131.01025 1101.22363c0-3.85351 1.38623-5.92383 3.69092-5.92383 2.28687 0 3.67334 2.07032 3.67334 5.92383 0 3.85254-1.38647 5.99512-3.67334 5.99512-2.30469 0-3.69092-2.14258-3.69092-5.99512zm5.92383 0c0-3.36718-.90039-4.73633-2.23291-4.73633-1.3501 0-2.25049 1.36915-2.25049 4.73633 0 3.36621.90039 4.80664 2.25049 4.80664 1.33252 0 2.23291-1.44043 2.23291-4.80664z"/><path d="m140.33447 1106.10254a1.07414 1.07414 0 1 1 2.14258 0 1.0722 1.0722 0 1 1 -2.14258 0z"/><path d="m144.438 1101.22363c0-3.85351 1.38623-5.92383 3.69092-5.92383 2.28686 0 3.67334 2.07032 3.67334 5.92383 0 3.85254-1.38648 5.99512-3.67334 5.99512-2.3047 0-3.69092-2.14258-3.69092-5.99512zm5.92383 0c0-3.36718-.90039-4.73633-2.23291-4.73633-1.3501 0-2.25049 1.36915-2.25049 4.73633 0 3.36621.90039 4.80664 2.25049 4.80664 1.33251 0 2.2329-1.44043 2.2329-4.80664z"/><path d="m231.80542 80.18652h1.69238l3.99732 11.81153h-1.60254l-1.11621-3.60059h-4.30347l-1.13428 3.60059h-1.53051zm-.95435 7.00391h3.54712l-.55835-1.80078c-.43213-1.31445-.81005-2.61035-1.18823-3.97852h-.072c-.36011 1.36817-.73828 2.66407-1.17041 3.97852z"/><path d="m239.02271 89.29688v-4.84278h-1.29639v-1.11621l1.36841-.09082.18017-2.44824h1.24219v2.44824h2.35891v1.207h-2.35889v4.86133c0 1.08008.34229 1.69238 1.35059 1.69238a3.17009 3.17009 0 0 0 .99023-.23437l.28809 1.11621a5.40159 5.40159 0 0 1 -1.62061.32422c-1.87258.00003-2.5027-1.18845-2.5027-2.91696z"/><path d="m244.74683 89.29688v-4.84278h-1.29639v-1.11621l1.36841-.09082.18017-2.44824h1.24219v2.44824h2.35889v1.207h-2.35889v4.86133c0 1.08008.34229 1.69238 1.35059 1.69238a3.17 3.17 0 0 0 .99023-.23437l.28809 1.11621a5.40159 5.40159 0 0 1 -1.62061.32422c-1.87251.00003-2.50268-1.18845-2.50268-2.91696z"/><path d="m249.66064 89.72949c0-1.9082 1.63843-2.86328 5.36573-3.27734 0-1.11621-.36035-2.19629-1.80078-2.19629a4.75233 4.75233 0 0 0 -2.6106.93652l-.57617-1.02636a6.49181 6.49181 0 0 1 3.439-1.13477c2.14258 0 3.043 1.42285 3.043 3.60156v5.36524h-1.22436l-.126-1.044h-.0542a4.67058 4.67058 0 0 1 -2.89892 1.25977 2.38093 2.38093 0 0 1 -2.5567-2.48433zm5.36573.126v-2.43069c-2.917.36036-3.9253 1.08008-3.9253 2.19629 0 .99024.68409 1.4043 1.54834 1.4043a3.54838 3.54838 0 0 0 2.37696-1.16992z"/><path d="m258.62451 87.64062c0-2.93457 1.9624-4.60937 4.21314-4.60937a3.63068 3.63068 0 0 1 2.55688 1.02637l-.75635.97265a2.56626 2.56626 0 0 0 -1.74658-.77441c-1.58447 0-2.73681 1.36816-2.73681 3.38476 0 1.999 1.09838 3.34864 2.70092 3.34864a3.108 3.108 0 0 0 2.05249-.88184l.6482.99024a4.26887 4.26887 0 0 1 -2.82691 1.11621c-2.32249 0-4.10498-1.67387-4.10498-4.57325z"/><path d="m267.48047 79.17871h1.45853v8.67774h.0542l3.72705-4.60938h1.63843l-2.93481 3.51172 3.33105 5.23926h-1.6206l-2.55664-4.21289-1.63868 1.9082v2.30469h-1.45849z"/><path d="m118.814 72.19043h1.49463v10.5332h5.16748v1.27832h-6.66211z"/><path d="m126.55371 79.64453c0-2.8623 1.92676-4.60937 3.92529-4.60937 2.23267 0 3.49317 1.60254 3.49317 4.10546a5.70033 5.70033 0 0 1 -.0542.84571h-5.90576a2.90261 2.90261 0 0 0 2.917 3.043 3.95527 3.95527 0 0 0 2.17871-.6836l.522.97168a5.209 5.209 0 0 1 -2.88086.90039c-2.34061-.00003-4.19535-1.70999-4.19535-4.57327zm6.12207-.71973c0-1.76464-.79248-2.71875-2.16064-2.71875a2.70271 2.70271 0 0 0 -2.521 2.71875z"/><path d="m134.95923 75.251h1.53052l1.65649 4.96972c.25195.86426.54 1.74707.8103 2.5752h.07178c.2522-.82813.54028-1.71094.79248-2.5752l1.65625-4.96972h1.4585l-3.09693 8.751h-1.72851z"/><path d="m143.90527 79.64453c0-2.8623 1.92676-4.60937 3.9253-4.60937 2.23266 0 3.49316 1.60254 3.49316 4.10546a5.70033 5.70033 0 0 1 -.0542.84571h-5.90576a2.90261 2.90261 0 0 0 2.917 3.043 3.95522 3.95522 0 0 0 2.17871-.6836l.522.97168a5.209 5.209 0 0 1 -2.88086.90039c-2.34062-.00003-4.19535-1.70999-4.19535-4.57327zm6.12207-.71973c0-1.76464-.79248-2.71875-2.16064-2.71875a2.70271 2.70271 0 0 0 -2.521 2.71875z"/><path d="m153.48145 82.2373v-11.05468h1.47631v11.16308c0 .46778.198.64746.41407.64746a1.27033 1.27033 0 0 0 .32421-.03515l.198 1.11621a1.99174 1.99174 0 0 1 -.84619.14355c-1.11645 0-1.5664-.70215-1.5664-1.98047z"/><path d="m38.09082 133.19336h3.36694c2.64673 0 4.4292.88184 4.4292 3.47461 0 2.48535-1.7644 3.65527-4.35717 3.65527h-1.94458v4.68164h-1.49439zm3.25879 5.90527c2.05273 0 3.043-.75586 3.043-2.43066 0-1.71-1.04444-2.26856-3.115-2.26856h-1.6924v4.69922z"/><path d="m47.05469 140.64746c0-2.8623 1.92651-4.60937 3.925-4.60937 2.23266 0 3.49292 1.60253 3.49292 4.10546a5.70347 5.70347 0 0 1 -.054.84571h-5.90567a2.902 2.902 0 0 0 2.917 3.043 3.9532 3.9532 0 0 0 2.17847-.6836l.52222.97168a5.209 5.209 0 0 1 -2.88086.90039c-2.34059-.00003-4.19508-1.70999-4.19508-4.57327zm6.12158-.71973c0-1.76464-.792-2.71875-2.16065-2.71875a2.70249 2.70249 0 0 0 -2.5205 2.71875z"/><path d="m55.83862 142.73633c0-1.90918 1.63843-2.86328 5.36548-3.27735 0-1.11621-.35986-2.19628-1.80029-2.19628a4.75312 4.75312 0 0 0 -2.61084.93652l-.57617-1.02637a6.4919 6.4919 0 0 1 3.439-1.13476c2.14258 0 3.043 1.42285 3.043 3.60156v5.36523h-1.22443l-.12623-1.04394h-.054a4.67059 4.67059 0 0 1 -2.89868 1.25976 2.381 2.381 0 0 1 -2.55684-2.48437zm5.36548.126v-2.43066c-2.91675.36035-3.925 1.08008-3.925 2.19629 0 .99023.68433 1.4043 1.54859 1.4043a3.54735 3.54735 0 0 0 2.37641-1.16996z"/><path d="m65.45068 132.18457h1.45826v8.67871h.054l3.7273-4.60937h1.63842l-2.93481 3.51171 3.33081 5.23926h-1.62041l-2.55689-4.21288-1.63842 1.90821v2.30468h-1.45826z"/><path d="m77.87158 132.2207h1.08032l-4.80737 15.665h-1.08053z"/><path d="m80.8042 133.19336h3.51123c2.39453 0 4.05127.81055 4.05127 2.88086a2.585 2.585 0 0 1 -1.72852 2.57519v.07129a2.718 2.718 0 0 1 2.4126 2.82715c0 2.32227-1.83642 3.457-4.4834 3.457h-3.76318zm3.24121 5.02344c2.0166 0 2.84473-.73828 2.84473-1.94434 0-1.36816-.93628-1.89062-2.773-1.89062h-1.81831v3.835zm.30591 5.59961c2.03467 0 3.2229-.73829 3.2229-2.32227 0-1.459-1.15234-2.125-3.2229-2.125h-2.05249v4.44727z"/><path d="m91.24414 136.25391h1.22461l.126 1.585h.054a2.99283 2.99283 0 0 1 2.48462-1.80078 2.17546 2.17546 0 0 1 .93652.17968l-.28808 1.29688a2.45414 2.45414 0 0 0 -.84644-.14453c-.738 0-1.62036.541-2.2146 2.01758v5.61718h-1.47663z"/><path d="m96.66211 140.64746c0-2.8623 1.92651-4.60937 3.925-4.60937 2.23266 0 3.49292 1.60253 3.49292 4.10546a5.70212 5.70212 0 0 1 -.054.84571h-5.90567a2.902 2.902 0 0 0 2.917 3.043 3.9532 3.9532 0 0 0 2.17847-.6836l.52222.97168a5.209 5.209 0 0 1 -2.88086.90039c-2.34059-.00003-4.19508-1.70999-4.19508-4.57327zm6.12158-.71973c0-1.76464-.792-2.71875-2.16064-2.71875a2.7025 2.7025 0 0 0 -2.52051 2.71875z"/><path d="m105.4458 142.73633c0-1.90918 1.63843-2.86328 5.36572-3.27735 0-1.11621-.36035-2.19628-1.80078-2.19628a4.7523 4.7523 0 0 0 -2.61059.93652l-.57618-1.02637a6.492 6.492 0 0 1 3.439-1.13476c2.14258 0 3.043 1.42285 3.043 3.60156v5.36523h-1.22437l-.126-1.04394h-.0542a4.67065 4.67065 0 0 1 -2.89893 1.25976 2.38092 2.38092 0 0 1 -2.55667-2.48437zm5.36572.126v-2.43066c-2.917.36035-3.92529 1.08008-3.92529 2.19629 0 .99023.68408 1.4043 1.54834 1.4043a3.54835 3.54835 0 0 0 2.37695-1.16996z"/><path d="m115.05811 132.18457h1.45825v8.67871h.054l3.7273-4.60937h1.63834l-2.93482 3.51171 3.33081 5.23926h-1.62036l-2.55688-4.21289-1.63843 1.90821v2.30468h-1.45825z"/><path d="m123.96777 136.25391h1.22461l.126 1.00879h.054a4.52929 4.52929 0 0 1 2.79078-1.22461c2.25073 0 3.457 1.74707 3.457 4.46582 0 2.9707-1.78247 4.71679-3.781 4.71679a4.05856 4.05856 0 0 1 -2.43091-1.00781l.03614 1.53027v2.95313h-1.47657zm6.12207 4.25c0-1.92676-.64843-3.22364-2.30468-3.22364a3.68593 3.68593 0 0 0 -2.34082 1.18848v4.5918a3.46354 3.46354 0 0 0 2.14257.918c1.44043-.00003 2.50293-1.31449 2.50293-3.47464z"/><path d="m133.30957 140.64746c0-2.93457 1.90845-4.60937 4.051-4.60937 2.14282 0 4.05127 1.6748 4.05127 4.60937 0 2.89942-1.90845 4.57324-4.05127 4.57324-2.14257 0-4.051-1.67382-4.051-4.57324zm6.57178 0c0-2.0166-1.0083-3.38476-2.52075-3.38476-1.49439 0-2.52076 1.36816-2.52076 3.38476 0 1.999 1.02637 3.34961 2.52076 3.34961 1.51245 0 2.52075-1.35059 2.52075-3.34961z"/><path d="m143.44336 133.499a1.0291 1.0291 0 0 1 2.05273 0 1.029 1.029 0 0 1 -2.05273 0zm.27 2.75489h1.47656v8.751h-1.47656z"/><path d="m148.14111 136.25391h1.22461l.126 1.26074h.05395a4.12555 4.12555 0 0 1 2.93482-1.47656c1.83667 0 2.66479 1.18847 2.66479 3.42089v5.5459h-1.47628v-5.34765c0-1.63868-.50416-2.34082-1.6565-2.34082-.90039 0-1.51245.46875-2.39477 1.35058v6.33789h-1.47657z"/><path d="m158.23926 142.30371v-4.84277h-1.29639v-1.11621l1.36841-.09082.17993-2.44825h1.24243v2.44825h2.35865v1.207h-2.35865v4.86133c0 1.08007.342 1.69238 1.35034 1.69238a3.16983 3.16983 0 0 0 .99048-.23438l.28809 1.11621a5.4 5.4 0 0 1 -1.62061.32422c-1.87256.00003-2.50268-1.18844-2.50268-2.91696z"/><path d="m124.814 157.19336h1.49463v10.5332h5.16748v1.27832h-6.66211z"/><path d="m132.55371 164.64746c0-2.8623 1.92676-4.60937 3.92529-4.60937 2.23267 0 3.49317 1.60253 3.49317 4.10546a5.70033 5.70033 0 0 1 -.0542.84571h-5.90576a2.902 2.902 0 0 0 2.917 3.043 3.95527 3.95527 0 0 0 2.17871-.6836l.522.97168a5.209 5.209 0 0 1 -2.88086.90039c-2.34061-.00003-4.19535-1.70999-4.19535-4.57327zm6.12207-.71973c0-1.76464-.79248-2.71875-2.16064-2.71875a2.70271 2.70271 0 0 0 -2.521 2.71875z"/><path d="m140.95923 160.25391h1.53052l1.65649 4.96972c.25195.86426.54 1.74707.8103 2.5752h.07178c.2522-.82813.54028-1.71094.79248-2.5752l1.65625-4.96972h1.4585l-3.09693 8.751h-1.72851z"/><path d="m149.90527 164.64746c0-2.8623 1.92676-4.60937 3.9253-4.60937 2.23266 0 3.49316 1.60253 3.49316 4.10546a5.70033 5.70033 0 0 1 -.0542.84571h-5.90576a2.902 2.902 0 0 0 2.917 3.043 3.95522 3.95522 0 0 0 2.17871-.6836l.522.97168a5.209 5.209 0 0 1 -2.88086.90039c-2.34062-.00003-4.19535-1.70999-4.19535-4.57327zm6.12207-.71973c0-1.76464-.79248-2.71875-2.16064-2.71875a2.70271 2.70271 0 0 0 -2.521 2.71875z"/><path d="m159.48145 167.24023v-11.05566h1.47631v11.16406c0 .46778.198.64844.41407.64844a1.23721 1.23721 0 0 0 .32421-.03613l.198 1.11621a1.99174 1.99174 0 0 1 -.84619.14355c-1.11645 0-1.5664-.70215-1.5664-1.98047z"/><path d="m719.64551 363.2959v-4.84278h-1.29639v-1.11621l1.36865-.09082.17969-2.44824h1.24268v2.44824h2.3584v1.207h-2.3584v4.86133c0 1.08008.34179 1.69239 1.35009 1.69239a3.16846 3.16846 0 0 0 .99024-.23438l.28808 1.11621a5.39681 5.39681 0 0 1 -1.62011.32422c-1.87256.00003-2.50293-1.18845-2.50293-2.91696z"/><path d="m300.5957 80.18652h2.95313c3.637 0 5.58154 2.10645 5.58154 5.85157 0 3.76367-1.94458 5.96-5.50976 5.96h-3.02491zm2.845 10.58692c2.75489 0 4.14136-1.7461 4.14136-4.73535 0-2.97071-1.38647-4.627-4.14136-4.627h-1.35034v9.36231z"/><path d="m310.87354 87.64062c0-2.8623 1.92651-4.60937 3.925-4.60937 2.23267 0 3.49292 1.60254 3.49292 4.10547a5.70356 5.70356 0 0 1 -.05395.8457h-5.90576a2.90261 2.90261 0 0 0 2.917 3.043 3.95329 3.95329 0 0 0 2.17847-.68359l.52221.97168a5.209 5.209 0 0 1 -2.88086.90039c-2.34057-.00003-4.19503-1.70999-4.19503-4.57328zm6.12158-.71972c0-1.76465-.792-2.71875-2.16065-2.71875a2.7025 2.7025 0 0 0 -2.52047 2.71875z"/><path d="m319.80127 87.64062c0-2.93457 1.9624-4.60937 4.21313-4.60937a3.63071 3.63071 0 0 1 2.55689 1.02637l-.75635.97265a2.56626 2.56626 0 0 0 -1.74658-.77441c-1.58447 0-2.73682 1.36816-2.73682 3.38476 0 1.999 1.09839 3.34864 2.70093 3.34864a3.108 3.108 0 0 0 2.05249-.88184l.64819.99024a4.26885 4.26885 0 0 1 -2.8269 1.11621c-2.32251 0-4.10498-1.67387-4.10498-4.57325z"/><path d="m327.93726 89.72949c0-1.9082 1.63842-2.86328 5.36547-3.27734 0-1.11621-.35986-2.19629-1.80029-2.19629a4.75312 4.75312 0 0 0 -2.61084.93652l-.57617-1.02636a6.49184 6.49184 0 0 1 3.439-1.13477c2.14258 0 3.043 1.42285 3.043 3.60156v5.36524h-1.22443l-.12622-1.044h-.054a4.6705 4.6705 0 0 1 -2.89868 1.25977 2.381 2.381 0 0 1 -2.55684-2.48433zm5.36547.126v-2.43069c-2.91674.36036-3.925 1.08008-3.925 2.19629 0 .99024.68432 1.4043 1.54858 1.4043a3.54734 3.54734 0 0 0 2.37642-1.16992z"/><path d="m336.667 95.58105.28809-1.16992a2.58544 2.58544 0 0 0 .666.126c.99048 0 1.62061-.793 1.98072-1.873l.198-.64844-3.511-8.76855h1.53052l1.78247 4.84375c.27.75586.57617 1.65625.84619 2.4668h.072c.2522-.792.50415-1.69239.73828-2.4668l1.56641-4.84375h1.44043l-3.29493 9.4707c-.6123 1.72852-1.51245 3.043-3.27685 3.043a2.89759 2.89759 0 0 1 -1.02633-.17979z"/><path d="m349.501 90.77344h2.6289v-8.46192h-2.08862v-.95507a6.829 6.829 0 0 0 2.43066-.84571h1.13428v10.2627h2.37671v1.22461h-6.48193z"/><path d="m452.59619 80.18457h2.95264c3.63721 0 5.582 2.10645 5.582 5.85156 0 3.76367-1.94482 5.96-5.50977 5.96h-3.0249zm2.84473 10.58691c2.75488 0 4.14111-1.74609 4.14111-4.73535 0-2.9707-1.38623-4.62695-4.14111-4.62695h-1.35059v9.3623z"/><path d="m462.87354 87.63867c0-2.8623 1.92675-4.60937 3.92529-4.60937 2.23242 0 3.49316 1.60254 3.49316 4.10547a5.69893 5.69893 0 0 1 -.0542.8457h-5.90579a2.90233 2.90233 0 0 0 2.917 3.043 3.95522 3.95522 0 0 0 2.17871-.6836l.522.97168a5.20965 5.20965 0 0 1 -2.88086.90039c-2.34085-.00003-4.19531-1.70999-4.19531-4.57327zm6.12207-.71972c0-1.76465-.79249-2.71875-2.16065-2.71875a2.70271 2.70271 0 0 0 -2.521 2.71875z"/><path d="m471.80127 87.63867c0-2.93457 1.96289-4.60937 4.21338-4.60937a3.63013 3.63013 0 0 1 2.55664 1.02636l-.75586.97266a2.56669 2.56669 0 0 0 -1.74658-.77441c-1.58447 0-2.73682 1.36816-2.73682 3.38476 0 1.999 1.09815 3.34863 2.70068 3.34863a3.11016 3.11016 0 0 0 2.05274-.88183l.648.99023a4.26772 4.26772 0 0 1 -2.82666 1.11621c-2.32279 0-4.10552-1.67382-4.10552-4.57324z"/><path d="m479.9375 89.72754c0-1.9082 1.63818-2.86328 5.36523-3.27734 0-1.11622-.35986-2.19629-1.80029-2.19629a4.75312 4.75312 0 0 0 -2.61084.93652l-.57617-1.02637a6.49193 6.49193 0 0 1 3.439-1.13476c2.14258 0 3.043 1.42285 3.043 3.60156v5.36523h-1.22461l-.126-1.04394h-.05371a4.67238 4.67238 0 0 1 -2.89893 1.25976 2.38079 2.38079 0 0 1 -2.55668-2.48437zm5.36523.126v-2.43069c-2.917.36035-3.9248 1.08008-3.9248 2.19629 0 .99024.68408 1.4043 1.54834 1.4043a3.54734 3.54734 0 0 0 2.37646-1.16992z"/><path d="m488.66748 95.5791.28809-1.16992a2.5874 2.5874 0 0 0 .666.126c.99024 0 1.62061-.793 1.981-1.87305l.19775-.64844-3.51123-8.76855h1.53076l1.78272 4.84375c.27.75586.57617 1.65625.84619 2.46679h.07178c.252-.792.50439-1.69238.73828-2.46679l1.56641-4.84375h1.44042l-3.29492 9.4707c-.6123 1.72852-1.51269 3.043-3.27685 3.043a2.89859 2.89859 0 0 1 -1.0264-.17974z"/><path d="m500.79932 91.11426c3.457-3.43946 5.40185-5.50977 5.40185-7.36426a2.035 2.035 0 0 0 -2.17871-2.251 3.38422 3.38422 0 0 0 -2.44873 1.38672l-.84619-.84668a4.5092 4.5092 0 0 1 3.47461-1.74609 3.19036 3.19036 0 0 1 3.43945 3.38476c0 2.16016-1.96289 4.30274-4.68164 7.14844.63037-.05469 1.33252-.1084 1.92676-.1084h3.331v1.27832h-7.41845z"/><path d="m613.01611 80.18652h3.69089c2.4126 0 4.14111.86426 4.14111 3.3125a3.22562 3.22562 0 0 1 -2.66455 3.34961l3.00684 5.14942h-1.69238l-2.84473-4.98731h-2.14307v4.98731h-1.49414zm3.4751 5.59961c1.83643 0 2.86279-.75586 2.86279-2.28711 0-1.54785-1.02636-2.10644-2.86279-2.10644h-1.981v4.39355z"/><path d="m622.28564 87.64062c0-2.8623 1.92676-4.60937 3.9253-4.60937 2.23242 0 3.49316 1.60254 3.49316 4.10547a5.69893 5.69893 0 0 1 -.0542.8457h-5.90576a2.90233 2.90233 0 0 0 2.917 3.043 3.95529 3.95529 0 0 0 2.17871-.68359l.522.97168a5.20973 5.20973 0 0 1 -2.88086.90039c-2.34085-.00003-4.19535-1.70999-4.19535-4.57328zm6.12207-.71972c0-1.76465-.79248-2.71875-2.16064-2.71875a2.70271 2.70271 0 0 0 -2.521 2.71875z"/><path d="m631.86182 90.2334v-11.05469h1.47607v11.16309c0 .46777.19824.64746.41455.64746a1.26767 1.26767 0 0 0 .32373-.03516l.19824 1.11621a1.99233 1.99233 0 0 1 -.84619.14356c-1.11622 0-1.5664-.70215-1.5664-1.98047z"/><path d="m635.80322 87.64062c0-2.8623 1.92676-4.60937 3.9253-4.60937 2.23242 0 3.49316 1.60254 3.49316 4.10547a5.70028 5.70028 0 0 1 -.0542.8457h-5.90576a2.90233 2.90233 0 0 0 2.917 3.043 3.95531 3.95531 0 0 0 2.17871-.68359l.522.97168a5.20967 5.20967 0 0 1 -2.88085.90039c-2.34087-.00003-4.19536-1.70999-4.19536-4.57328zm6.12207-.71972c0-1.76465-.79248-2.71875-2.16064-2.71875a2.70271 2.70271 0 0 0 -2.521 2.71875z"/><path d="m644.58691 89.72949c0-1.9082 1.63868-2.86328 5.36573-3.27734 0-1.11621-.35987-2.19629-1.8003-2.19629a4.75315 4.75315 0 0 0 -2.61084.93652l-.57617-1.02636a6.49185 6.49185 0 0 1 3.439-1.13477c2.14258 0 3.043 1.42285 3.043 3.60156v5.36524h-1.22461l-.126-1.044h-.05372a4.67231 4.67231 0 0 1 -2.89893 1.25977 2.38119 2.38119 0 0 1 -2.55716-2.48433zm5.36573.126v-2.43069c-2.91651.36036-3.9253 1.08008-3.9253 2.19629 0 .99024.68457 1.4043 1.54883 1.4043a3.54736 3.54736 0 0 0 2.37647-1.16992z"/><path d="m653.22656 91.00781.73828-.99023a3.9356 3.9356 0 0 0 2.5752 1.04394c1.15234 0 1.72851-.6123 1.72851-1.36816 0-.90039-1.04443-1.2959-1.999-1.65625-1.24219-.4502-2.61035-1.04492-2.61035-2.52051 0-1.40527 1.11621-2.48535 3.00684-2.48535a4.36942 4.36942 0 0 1 2.71875.99023l-.70215.93653a3.2503 3.2503 0 0 0 -1.999-.77442c-1.09814 0-1.602.59473-1.602 1.26075 0 .82812.9541 1.13378 1.94434 1.51171 1.26025.46875 2.665.99122 2.665 2.64747 0 1.42187-1.13428 2.61035-3.20508 2.61035a5.266 5.266 0 0 1 -3.25934-1.20606z"/><path d="m661.09277 87.64062c0-2.8623 1.92676-4.60937 3.9253-4.60937 2.23291 0 3.49316 1.60254 3.49316 4.10547a5.70028 5.70028 0 0 1 -.0542.8457h-5.90576a2.90262 2.90262 0 0 0 2.917 3.043 3.95529 3.95529 0 0 0 2.17871-.68359l.522.97168a5.20973 5.20973 0 0 1 -2.88086.90039c-2.34085-.00003-4.19535-1.70999-4.19535-4.57328zm6.12207-.71972c0-1.76465-.79248-2.71875-2.16064-2.71875a2.70271 2.70271 0 0 0 -2.521 2.71875z"/><path d="m266.74805 22.24707h6.80595v1.26074h-5.31153v3.709h4.48316v1.27832h-4.48316v4.28515h5.49146v1.27832h-6.98584z"/><path d="m276.08984 25.30762h1.22416l.12623 1.26074h.054a4.1251 4.1251 0 0 1 2.93477-1.47656c1.83666 0 2.66479 1.18847 2.66479 3.4209v5.54589h-1.47632v-5.34765c0-1.63867-.50415-2.34082-1.65649-2.34082-.90039 0-1.51245.46875-2.39478 1.35058v6.33789h-1.47632z"/><path d="m284.67529 25.30762h1.53052l1.65649 4.96972c.252.86426.54 1.74707.81006 2.5752h.07227c.252-.82813.54-1.71094.792-2.5752l1.65674-4.96972h1.45825l-3.09692 8.751h-1.72852z"/><path d="m293.62158 29.70117c0-2.8623 1.92652-4.60937 3.925-4.60937 2.23267 0 3.49292 1.60254 3.49292 4.10547a5.70356 5.70356 0 0 1 -.054.8457h-5.90577a2.90262 2.90262 0 0 0 2.917 3.043 3.95319 3.95319 0 0 0 2.17846-.6836l.52222.97168a5.209 5.209 0 0 1 -2.88086.90039c-2.34048-.00003-4.19497-1.70999-4.19497-4.57327zm6.12158-.71972c0-1.76465-.792-2.71875-2.16064-2.71875a2.70249 2.70249 0 0 0 -2.52051 2.71875z"/><path d="m303.19727 32.294v-11.05474h1.47656v11.16308c0 .46778.198.64746.41406.64746a1.27039 1.27039 0 0 0 .32422-.03515l.198 1.11621a1.99178 1.99178 0 0 1 -.84619.14355c-1.11646 0-1.56665-.70214-1.56665-1.98041z"/><path d="m307.13916 29.70117c0-2.93457 1.90845-4.60937 4.051-4.60937 2.14282 0 4.05127 1.6748 4.05127 4.60937 0 2.89942-1.90845 4.57324-4.05127 4.57324-2.14255 0-4.051-1.67382-4.051-4.57324zm6.57178 0c0-2.0166-1.0083-3.38476-2.52075-3.38476-1.49439 0-2.52076 1.36816-2.52076 3.38476 0 1.999 1.02637 3.34863 2.52076 3.34863 1.51245 0 2.52075-1.3496 2.52075-3.34863z"/><path d="m317.543 25.30762h1.22461l.126 1.00879h.054a4.52926 4.52926 0 0 1 2.79077-1.22461c2.25073 0 3.457 1.74707 3.457 4.46582 0 2.9707-1.78247 4.71679-3.781 4.71679a4.05851 4.05851 0 0 1 -2.43091-1.00781l.03613 1.53028v2.95312h-1.4766zm6.12207 4.25c0-1.92676-.64844-3.22364-2.30469-3.22364a3.686 3.686 0 0 0 -2.34082 1.18848v4.5918a3.46359 3.46359 0 0 0 2.14258.918c1.4404-.00003 2.50286-1.31449 2.50286-3.47464z"/><path d="m326.88477 29.70117c0-2.8623 1.92651-4.60937 3.925-4.60937 2.23267 0 3.49292 1.60254 3.49292 4.10547a5.70356 5.70356 0 0 1 -.05395.8457h-5.90574a2.90261 2.90261 0 0 0 2.917 3.043 3.95322 3.95322 0 0 0 2.17847-.6836l.52221.97168a5.209 5.209 0 0 1 -2.88086.90039c-2.34056-.00003-4.19505-1.70999-4.19505-4.57327zm6.12158-.71972c0-1.76465-.792-2.71875-2.16065-2.71875a2.70248 2.70248 0 0 0 -2.5205 2.71875z"/><path d="m339.01611 25.30762h1.51245l1.29639 5.05957c.198.82812.36011 1.62109.52222 2.43066h.072c.198-.80957.37817-1.62012.594-2.43066l1.35059-5.05957h1.44043l1.36841 5.05957c.21606.82812.41406 1.62109.61206 2.43066h.072c.198-.80957.36011-1.60254.54028-2.43066l1.27832-5.05957h1.4043l-2.34058 8.751h-1.80053l-1.26026-4.69921c-.21631-.82813-.37817-1.63868-.59424-2.52051h-.072c-.198.88183-.37817 1.71-.6123 2.53808l-1.22437 4.68164h-1.72851z"/><path d="m352.71411 22.55273a1.02911 1.02911 0 0 1 2.05274 0 1.029 1.029 0 0 1 -2.05274 0zm.27027 2.75489h1.47631v8.751h-1.47631z"/><path d="m357.66406 31.35742v-4.84277h-1.29638v-1.11621l1.3684-.09082.17994-2.44824h1.24243v2.44824h2.35864v1.207h-2.35864v4.86138c0 1.08007.342 1.69238 1.35034 1.69238a3.17 3.17 0 0 0 .99048-.23438l.28808 1.11622a5.40027 5.40027 0 0 1 -1.6206.32421c-1.87256-.00002-2.50269-1.18849-2.50269-2.91701z"/><path d="m363.49609 21.23926h1.47632v3.49219l-.054 1.80078a4.184 4.184 0 0 1 2.91675-1.44043c1.83667 0 2.66479 1.18847 2.66479 3.4209v5.54589h-1.47632v-5.34765c0-1.63867-.50415-2.34082-1.65649-2.34082-.90039 0-1.51245.46875-2.39478 1.35058v6.33789h-1.47632z"/><path d="m377.03174 22.24707h2.95312c3.637 0 5.58155 2.10645 5.58155 5.85156 0 3.76367-1.94458 5.96-5.50977 5.96h-3.0249zm2.845 10.58691c2.75488 0 4.14136-1.74609 4.14136-4.73535 0-2.9707-1.38648-4.627-4.14136-4.627h-1.35034v9.36237z"/><path d="m387.30957 29.70117c0-2.8623 1.92651-4.60937 3.925-4.60937 2.23267 0 3.49292 1.60254 3.49292 4.10547a5.70207 5.70207 0 0 1 -.054.8457h-5.90576a2.90262 2.90262 0 0 0 2.917 3.043 3.9532 3.9532 0 0 0 2.17847-.6836l.52222.97168a5.209 5.209 0 0 1 -2.88086.90039c-2.3405-.00003-4.19499-1.70999-4.19499-4.57327zm6.12158-.71972c0-1.76465-.792-2.71875-2.16064-2.71875a2.70249 2.70249 0 0 0 -2.52051 2.71875z"/><path d="m396.2373 29.70117c0-2.93457 1.96241-4.60937 4.21314-4.60937a3.63072 3.63072 0 0 1 2.55688 1.02636l-.75634.97266a2.56624 2.56624 0 0 0 -1.74659-.77441c-1.58447 0-2.73681 1.36816-2.73681 3.38476 0 1.999 1.09839 3.34863 2.70093 3.34863a3.108 3.108 0 0 0 2.05249-.8818l.64819.99023a4.26882 4.26882 0 0 1 -2.8269 1.11621c-2.32251-.00003-4.10499-1.67385-4.10499-4.57327z"/><path d="m404.37305 31.79c0-1.9082 1.63842-2.86328 5.36572-3.27734 0-1.11622-.36035-2.19629-1.80078-2.19629a4.75233 4.75233 0 0 0 -2.6106.93652l-.57617-1.02637a6.4919 6.4919 0 0 1 3.439-1.13476c2.14257 0 3.043 1.42285 3.043 3.60156v5.36523h-1.22436l-.126-1.04394h-.0542a4.6706 4.6706 0 0 1 -2.89892 1.25976 2.38092 2.38092 0 0 1 -2.55669-2.48437zm5.36572.126v-2.43065c-2.917.36035-3.92529 1.08008-3.92529 2.19629 0 .99024.68408 1.4043 1.54834 1.4043a3.54838 3.54838 0 0 0 2.37695-1.16994z"/><path d="m413.103 37.6416.28808-1.16992a2.58551 2.58551 0 0 0 .666.126c.99048 0 1.6206-.793 1.98071-1.873l.198-.64844-3.511-8.76855h1.53052l1.78247 4.84375c.27.75586.57617 1.65625.84619 2.46679h.072c.252-.792.5044-1.69238.73829-2.46679l1.5664-4.84375h1.44043l-3.29492 9.4707c-.6123 1.72852-1.51245 3.043-3.27686 3.043a2.89749 2.89749 0 0 1 -1.02631-.17979z"/><path d="m425.937 32.834h2.62891v-8.46193h-2.08887v-.95507a6.832 6.832 0 0 0 2.43115-.8457h1.13428v10.2627h2.37653v1.22461h-6.482z"/><path d="m437.99707 31.79c0-1.9082 1.63818-2.86328 5.36523-3.27734 0-1.11622-.35986-2.19629-1.80029-2.19629a4.75312 4.75312 0 0 0 -2.61084.93652l-.57617-1.02637a6.49193 6.49193 0 0 1 3.439-1.13476c2.14258 0 3.043 1.42285 3.043 3.60156v5.36523h-1.22461l-.126-1.04394h-.05371a4.67238 4.67238 0 0 1 -2.89893 1.25976 2.38079 2.38079 0 0 1 -2.55668-2.48437zm5.36523.126v-2.43065c-2.917.36035-3.9248 1.08008-3.9248 2.19629 0 .99024.68408 1.4043 1.54834 1.4043a3.54734 3.54734 0 0 0 2.37646-1.16994z"/><path d="m446.63672 33.06836.73779-.99024a3.93529 3.93529 0 0 0 2.57471 1.044c1.15234 0 1.72851-.6123 1.72851-1.36816 0-.90039-1.04394-1.2959-1.99853-1.65625-1.24219-.4502-2.61084-1.04493-2.61084-2.52051 0-1.40527 1.1167-2.48535 3.00732-2.48535a4.36932 4.36932 0 0 1 2.71875.99023l-.70214.93652a3.25012 3.25012 0 0 0 -1.99854-.77441c-1.09863 0-1.60254.59473-1.60254 1.26074 0 .82813.9541 1.13379 1.94434 1.51172 1.26025.46875 2.665.99121 2.665 2.64746 0 1.42188-1.13477 2.61035-3.20508 2.61035a5.26452 5.26452 0 0 1 -3.25875-1.2061z"/><path d="m458.89453 22.24707h1.49414v4.95117h5.4917v-4.95117h1.5127v11.81152h-1.5127v-5.56347h-5.4917v5.56347h-1.49414z"/><path d="m469.83789 29.70117c0-2.93457 1.90869-4.60937 4.05127-4.60937s4.05127 1.6748 4.05127 4.60937c0 2.89942-1.90869 4.57324-4.05127 4.57324s-4.05127-1.67382-4.05127-4.57324zm6.57227 0c0-2.0166-1.0083-3.38476-2.521-3.38476-1.49463 0-2.52051 1.36816-2.52051 3.38476 0 1.999 1.02588 3.34863 2.52051 3.34863 1.5127 0 2.521-1.3496 2.521-3.34863z"/><path d="m480.24219 32.294v-11.05474h1.47656v11.16308c0 .46778.19775.64746.41406.64746a1.26607 1.26607 0 0 0 .32373-.03515l.19825 1.11621a1.9926 1.9926 0 0 1 -.8462.14355c-1.11621 0-1.5664-.70214-1.5664-1.98041z"/><path d="m484.20166 29.70117c0-2.84472 1.80078-4.60937 3.79932-4.60937a3.603 3.603 0 0 1 2.44873 1.00879l-.07227-1.49512v-3.36621h1.49463v12.81933h-1.22461l-.126-1.02636h-.05371a3.94938 3.94938 0 0 1 -2.647 1.24218c-2.19675 0-3.61909-1.65625-3.61909-4.57324zm6.17578 2.125v-4.57324a3.04279 3.04279 0 0 0 -2.12451-.91895c-1.4043 0-2.52051 1.35059-2.52051 3.34961 0 2.08789.88184 3.34864 2.4126 3.34864a2.96315 2.96315 0 0 0 2.23242-1.20606z"/><path d="m501.01465 23.50781h-3.56543v-1.26074h8.64258v1.26074h-3.56494v10.55078h-1.51221z"/><path d="m507.7998 22.55273a1.02884 1.02884 0 0 1 2.05225 0 1.02877 1.02877 0 0 1 -2.05225 0zm.27 2.75489h1.47608v8.751h-1.47608z"/><path d="m512.49756 25.30762h1.22412l.126 1.26074h.0542a3.84582 3.84582 0 0 1 2.71875-1.47656 2.2955 2.2955 0 0 1 2.41259 1.6748 4.13588 4.13588 0 0 1 2.88086-1.6748c1.80078 0 2.665 1.18847 2.665 3.4209v5.54589h-1.47656v-5.34765c0-1.63867-.522-2.34082-1.62061-2.34082a3.21027 3.21027 0 0 0 -2.19629 1.35058v6.33789h-1.47656v-5.34765c0-1.63867-.522-2.34082-1.63867-2.34082a3.28432 3.28432 0 0 0 -2.19678 1.35058v6.33789h-1.47607z"/><path d="m526.771 29.70117c0-2.8623 1.92675-4.60937 3.92529-4.60937 2.23242 0 3.49316 1.60254 3.49316 4.10547a5.69893 5.69893 0 0 1 -.0542.8457h-5.90576a2.90233 2.90233 0 0 0 2.917 3.043 3.95527 3.95527 0 0 0 2.17872-.6836l.522.97168a5.20963 5.20963 0 0 1 -2.88086.90039c-2.34086-.00003-4.19535-1.70999-4.19535-4.57327zm6.12207-.71972c0-1.76465-.79248-2.71875-2.16065-2.71875a2.70269 2.70269 0 0 0 -2.521 2.71875z"/><path d="m118.814 452.19043h1.49463v10.5332h5.16748v1.27837h-6.66211z"/><path d="m126.55371 459.64453c0-2.8623 1.92676-4.60937 3.92529-4.60937 2.23267 0 3.49317 1.60254 3.49317 4.10546a5.70033 5.70033 0 0 1 -.0542.84571h-5.90576a2.90261 2.90261 0 0 0 2.917 3.043 3.95527 3.95527 0 0 0 2.17871-.6836l.522.97168a5.209 5.209 0 0 1 -2.88086.90039c-2.34061-.00003-4.19535-1.70999-4.19535-4.57327zm6.12207-.71973c0-1.76464-.79248-2.71875-2.16064-2.71875a2.70271 2.70271 0 0 0 -2.521 2.71875z"/><path d="m134.95923 455.251h1.53052l1.65649 4.96972c.25195.86426.54 1.74707.8103 2.5752h.07178c.2522-.82813.54028-1.71094.79248-2.5752l1.65625-4.96972h1.4585l-3.09693 8.751h-1.72851z"/><path d="m143.90527 459.64453c0-2.8623 1.92676-4.60937 3.9253-4.60937 2.23266 0 3.49316 1.60254 3.49316 4.10546a5.70033 5.70033 0 0 1 -.0542.84571h-5.90576a2.90261 2.90261 0 0 0 2.917 3.043 3.95522 3.95522 0 0 0 2.17871-.6836l.522.97168a5.209 5.209 0 0 1 -2.88086.90039c-2.34062-.00003-4.19535-1.70999-4.19535-4.57327zm6.12207-.71973c0-1.76464-.79248-2.71875-2.16064-2.71875a2.70271 2.70271 0 0 0 -2.521 2.71875z"/><path d="m153.48145 462.2373v-11.05468h1.47631v11.16308c0 .46778.198.64746.41407.64746a1.27033 1.27033 0 0 0 .32421-.03515l.198 1.11621a1.99174 1.99174 0 0 1 -.84619.14355c-1.11645 0-1.5664-.70215-1.5664-1.98047z"/><path d="m84.80029 515.19336h3.36719c2.64673 0 4.4292.88184 4.4292 3.47461 0 2.48535-1.7644 3.65527-4.35718 3.65527h-1.94458v4.68164h-1.49463zm3.259 5.90527c2.05273 0 3.043-.75586 3.043-2.43066 0-1.71-1.04418-2.26856-3.115-2.26856h-1.69237v4.69922z"/><path d="m93.76416 522.64746c0-2.8623 1.92676-4.60937 3.92529-4.60937 2.23267 0 3.49317 1.60253 3.49317 4.10546a5.70033 5.70033 0 0 1 -.0542.84571h-5.90576a2.902 2.902 0 0 0 2.917 3.043 3.95527 3.95527 0 0 0 2.17871-.6836l.522.97168a5.209 5.209 0 0 1 -2.88086.90039c-2.34061-.00003-4.19535-1.70999-4.19535-4.57327zm6.12207-.71973c0-1.76464-.79248-2.71875-2.16064-2.71875a2.70271 2.70271 0 0 0 -2.521 2.71875z"/><path d="m102.54834 524.73633c0-1.90918 1.63843-2.86328 5.36572-3.27735 0-1.11621-.36035-2.19628-1.80078-2.19628a4.7523 4.7523 0 0 0 -2.61059.93652l-.57618-1.02637a6.492 6.492 0 0 1 3.439-1.13476c2.14258 0 3.043 1.42285 3.043 3.60156v5.36523h-1.22437l-.126-1.04394h-.0542a4.67065 4.67065 0 0 1 -2.89893 1.25976 2.38092 2.38092 0 0 1 -2.55667-2.48437zm5.36572.126v-2.43066c-2.917.36035-3.92529 1.08008-3.92529 2.19629 0 .99023.68408 1.4043 1.54834 1.4043a3.54837 3.54837 0 0 0 2.37695-1.16996z"/><path d="m112.16016 514.18457h1.45849v8.67871h.0542l3.72705-4.60937h1.63843l-2.93481 3.51171 3.331 5.23926h-1.62052l-2.55664-4.21289-1.63867 1.90821v2.30468h-1.45849z"/><path d="m124.81445 515.19336h1.49439v10.5332h5.16748v1.27832h-6.66187z"/><path d="m132.5542 522.64746c0-2.8623 1.92651-4.60937 3.925-4.60937 2.23266 0 3.49292 1.60253 3.49292 4.10546a5.70212 5.70212 0 0 1 -.054.84571h-5.90576a2.902 2.902 0 0 0 2.917 3.043 3.9532 3.9532 0 0 0 2.17847-.6836l.52222.97168a5.209 5.209 0 0 1 -2.88086.90039c-2.3405-.00003-4.19499-1.70999-4.19499-4.57327zm6.12158-.71973c0-1.76464-.792-2.71875-2.16064-2.71875a2.7025 2.7025 0 0 0 -2.52051 2.71875z"/><path d="m140.95923 518.25391h1.53052l1.65649 4.96972c.25195.86426.54 1.74707.8103 2.5752h.07178c.2522-.82813.54028-1.71094.79248-2.5752l1.65625-4.96972h1.4585l-3.09693 8.751h-1.72851z"/><path d="m149.90527 522.64746c0-2.8623 1.92676-4.60937 3.9253-4.60937 2.23266 0 3.49316 1.60253 3.49316 4.10546a5.70033 5.70033 0 0 1 -.0542.84571h-5.90576a2.902 2.902 0 0 0 2.917 3.043 3.95522 3.95522 0 0 0 2.17871-.6836l.522.97168a5.209 5.209 0 0 1 -2.88086.90039c-2.34062-.00003-4.19535-1.70999-4.19535-4.57327zm6.12207-.71973c0-1.76464-.79248-2.71875-2.16064-2.71875a2.70271 2.70271 0 0 0 -2.521 2.71875z"/><path d="m159.48145 525.24023v-11.05566h1.47631v11.16406c0 .46778.198.64844.41407.64844a1.23721 1.23721 0 0 0 .32421-.03613l.198 1.11621a1.99174 1.99174 0 0 1 -.84619.14355c-1.11645 0-1.5664-.70215-1.5664-1.98047z"/><path d="m37.80322 635.68945h3.51123c2.39453 0 4.05127.81055 4.05127 2.88086a2.585 2.585 0 0 1 -1.72851 2.5752v.07129a2.718 2.718 0 0 1 2.41259 2.8272c0 2.32226-1.83642 3.457-4.48339 3.457h-3.76319zm3.24121 5.02344c2.01661 0 2.84473-.73828 2.84473-1.94434 0-1.36816-.93628-1.89062-2.77295-1.89062h-1.81836v3.835zm.30591 5.59961c2.03467 0 3.2229-.73828 3.2229-2.32227 0-1.459-1.15234-2.125-3.2229-2.125h-2.05249v4.44727z"/><path d="m48.24316 638.75h1.22461l.126 1.585h.054a2.99282 2.99282 0 0 1 2.48461-1.80078 2.17536 2.17536 0 0 1 .93653.17969l-.28809 1.29687a2.45432 2.45432 0 0 0 -.84643-.14453c-.738 0-1.62037.541-2.2146 2.01758v5.61717h-1.47663z"/><path d="m53.66064 643.14355c0-2.8623 1.92676-4.60937 3.9253-4.60937 2.23266 0 3.49316 1.60254 3.49316 4.10547a5.69893 5.69893 0 0 1 -.0542.8457h-5.90576a2.902 2.902 0 0 0 2.917 3.043 3.95529 3.95529 0 0 0 2.17871-.68359l.522.97168a5.20909 5.20909 0 0 1 -2.88086.90039c-2.34061-.00003-4.19535-1.70999-4.19535-4.57328zm6.12207-.71972c0-1.76465-.79248-2.71875-2.16064-2.71875a2.70271 2.70271 0 0 0 -2.521 2.71875z"/><path d="m62.44482 645.23242c0-1.90918 1.63843-2.86328 5.36573-3.27734 0-1.11621-.36035-2.19629-1.80078-2.19629a4.7523 4.7523 0 0 0 -2.6106.93652l-.57617-1.02631a6.49181 6.49181 0 0 1 3.439-1.13477c2.14258 0 3.043 1.42285 3.043 3.60156v5.36521h-1.22443l-.126-1.04395h-.0542a4.67063 4.67063 0 0 1 -2.89893 1.25977 2.38092 2.38092 0 0 1 -2.55662-2.4844zm5.36573.126v-2.43067c-2.917.36036-3.9253 1.08008-3.9253 2.19629 0 .99024.68409 1.4043 1.54834 1.4043a3.54838 3.54838 0 0 0 2.37696-1.16994z"/><path d="m72.05713 634.68066h1.45825v8.67872h.054l3.72725-4.60938h1.63843l-2.93482 3.51172 3.33081 5.23926h-1.62036l-2.55688-4.21289-1.63843 1.9082v2.30471h-1.45825z"/><path d="m80.9668 638.75h1.22461l.126 1.00879h.054a4.52924 4.52924 0 0 1 2.79077-1.22461c2.25073 0 3.457 1.74707 3.457 4.46582 0 2.9707-1.78247 4.7168-3.781 4.7168a4.05847 4.05847 0 0 1 -2.4309-1.00782l.03613 1.53028v2.95312h-1.47661zm6.12207 4.25c0-1.92676-.64844-3.22363-2.30469-3.22363a3.68593 3.68593 0 0 0 -2.34082 1.18847v4.5918a3.46353 3.46353 0 0 0 2.14258.918c1.44043-.00003 2.50293-1.31448 2.50293-3.47464z"/><path d="m90.30859 643.14355c0-2.93457 1.90845-4.60937 4.051-4.60937 2.14282 0 4.05127 1.6748 4.05127 4.60937 0 2.89942-1.90845 4.57325-4.05127 4.57325-2.14259 0-4.051-1.6738-4.051-4.57325zm6.57178 0c0-2.0166-1.0083-3.38476-2.52075-3.38476-1.49439 0-2.52075 1.36816-2.52075 3.38476 0 1.999 1.02636 3.34961 2.52075 3.34961 1.51245 0 2.52075-1.35058 2.52075-3.34961z"/><path d="m100.44238 635.99512a1.02911 1.02911 0 0 1 2.05274 0 1.029 1.029 0 0 1 -2.05274 0zm.27 2.75488h1.47662v8.751h-1.4766z"/><path d="m105.14014 638.75h1.22461l.126 1.26074h.054a4.12556 4.12556 0 0 1 2.93481-1.47656c1.83667 0 2.6648 1.18848 2.6648 3.4209v5.5459h-1.47636v-5.34766c0-1.63867-.50415-2.34082-1.6565-2.34082-.90039 0-1.51245.46875-2.39477 1.35059v6.33791h-1.47656z"/><path d="m115.23828 644.7998v-4.8428h-1.29639v-1.11621l1.36841-.09082.17993-2.44824h1.24244v2.44827h2.35864v1.207h-2.35864v4.86133c0 1.08008.342 1.69238 1.35034 1.69238a3.16994 3.16994 0 0 0 .99048-.23437l.28808 1.11621a5.4 5.4 0 0 1 -1.6206.32422c-1.87256.00003-2.50269-1.18845-2.50269-2.91697z"/><path d="m124.814 635.68945h1.49463v10.53321h5.16748v1.27834h-6.66211z"/><path d="m132.55371 643.14355c0-2.8623 1.92676-4.60937 3.92529-4.60937 2.23267 0 3.49317 1.60254 3.49317 4.10547a5.70028 5.70028 0 0 1 -.0542.8457h-5.90576a2.902 2.902 0 0 0 2.917 3.043 3.95534 3.95534 0 0 0 2.17871-.68359l.522.97168a5.209 5.209 0 0 1 -2.88086.90039c-2.34061-.00003-4.19535-1.70999-4.19535-4.57328zm6.12207-.71972c0-1.76465-.79248-2.71875-2.16064-2.71875a2.70271 2.70271 0 0 0 -2.521 2.71875z"/><path d="m140.95923 638.75h1.53052l1.65649 4.96973c.25195.86425.54 1.74707.8103 2.57519h.07178c.2522-.82812.54028-1.71094.79248-2.57519l1.65625-4.96973h1.4585l-3.09693 8.751h-1.72851z"/><path d="m149.90527 643.14355c0-2.8623 1.92676-4.60937 3.9253-4.60937 2.23266 0 3.49316 1.60254 3.49316 4.10547a5.70028 5.70028 0 0 1 -.0542.8457h-5.90576a2.902 2.902 0 0 0 2.917 3.043 3.95529 3.95529 0 0 0 2.17871-.68359l.522.97168a5.20909 5.20909 0 0 1 -2.88086.90039c-2.34062-.00003-4.19535-1.70999-4.19535-4.57328zm6.12207-.71972c0-1.76465-.79248-2.71875-2.16064-2.71875a2.70271 2.70271 0 0 0 -2.521 2.71875z"/><path d="m159.48145 645.73633v-11.05567h1.47631v11.16407c0 .46777.198.64843.41407.64843a1.23721 1.23721 0 0 0 .32421-.03613l.198 1.11621a1.99156 1.99156 0 0 1 -.84619.14356c-1.11645 0-1.5664-.70215-1.5664-1.98047z"/><path d="m719.64551 743.2959v-4.84278h-1.29639v-1.11621l1.36865-.09082.17969-2.44824h1.24268v2.44824h2.3584v1.207h-2.3584v4.86133c0 1.08008.34179 1.69239 1.35009 1.69239a3.16846 3.16846 0 0 0 .99024-.23438l.28808 1.11621a5.39681 5.39681 0 0 1 -1.62011.32422c-1.87256.00003-2.50293-1.18845-2.50293-2.91696z"/><path d="m220.5957 460.18652h2.95313c3.637 0 5.58154 2.10645 5.58154 5.85157 0 3.76367-1.94458 5.96-5.50976 5.96h-3.02491zm2.845 10.58692c2.75489 0 4.14136-1.7461 4.14136-4.73535 0-2.97071-1.38647-4.627-4.14136-4.627h-1.35034v9.36231z"/><path d="m230.87354 467.64062c0-2.8623 1.92651-4.60937 3.925-4.60937 2.23267 0 3.49292 1.60254 3.49292 4.10547a5.70356 5.70356 0 0 1 -.054.8457h-5.90576a2.90261 2.90261 0 0 0 2.917 3.043 3.95329 3.95329 0 0 0 2.17847-.68359l.52221.97168a5.209 5.209 0 0 1 -2.88086.90039c-2.34052-.00003-4.19498-1.70999-4.19498-4.57328zm6.12158-.71972c0-1.76465-.792-2.71875-2.16065-2.71875a2.7025 2.7025 0 0 0 -2.52051 2.71875z"/><path d="m239.80127 467.64062c0-2.93457 1.9624-4.60937 4.21313-4.60937a3.63071 3.63071 0 0 1 2.55689 1.02637l-.75635.97265a2.56626 2.56626 0 0 0 -1.74658-.77441c-1.58447 0-2.73682 1.36816-2.73682 3.38476 0 1.999 1.09839 3.34864 2.70093 3.34864a3.108 3.108 0 0 0 2.05249-.88184l.64819.99024a4.26885 4.26885 0 0 1 -2.8269 1.11621c-2.32251 0-4.10498-1.67387-4.10498-4.57325z"/><path d="m247.93726 469.72949c0-1.9082 1.63842-2.86328 5.36547-3.27734 0-1.11621-.35986-2.19629-1.80029-2.19629a4.75312 4.75312 0 0 0 -2.61084.93652l-.57617-1.02636a6.49184 6.49184 0 0 1 3.439-1.13477c2.14258 0 3.043 1.42285 3.043 3.60156v5.36524h-1.22443l-.12622-1.04395h-.054a4.6705 4.6705 0 0 1 -2.89868 1.25977 2.381 2.381 0 0 1 -2.55684-2.48438zm5.36547.126v-2.43069c-2.91674.36036-3.925 1.08008-3.925 2.19629 0 .99024.68432 1.4043 1.54858 1.4043a3.54734 3.54734 0 0 0 2.37642-1.16992z"/><path d="m256.667 475.58105.28809-1.16992a2.58544 2.58544 0 0 0 .666.126c.99048 0 1.62061-.793 1.98072-1.873l.198-.64844-3.511-8.76855h1.53052l1.78247 4.84375c.27.75586.57617 1.65625.84619 2.4668h.072c.2522-.792.50415-1.69239.73828-2.4668l1.56641-4.84375h1.44043l-3.29493 9.4707c-.6123 1.72852-1.51245 3.043-3.27685 3.043a2.89759 2.89759 0 0 1 -1.02633-.17979z"/><path d="m269.501 470.77344h2.6289v-8.46192h-2.08862v-.95507a6.829 6.829 0 0 0 2.43066-.84571h1.13428v10.2627h2.37671v1.22461h-6.48193z"/><path d="m401.92969 460.18457h2.95312c3.637 0 5.58155 2.10645 5.58155 5.85156 0 3.76367-1.94458 5.96-5.50977 5.96h-3.0249zm2.845 10.58691c2.75488 0 4.14136-1.74609 4.14136-4.73535 0-2.9707-1.38648-4.627-4.14136-4.627h-1.35034v9.3623z"/><path d="m412.20752 467.63867c0-2.8623 1.92651-4.60937 3.925-4.60937 2.23266 0 3.49292 1.60254 3.49292 4.10547a5.77413 5.77413 0 0 1 -.05371.8457h-5.906a2.90262 2.90262 0 0 0 2.917 3.043 3.95258 3.95258 0 0 0 2.17847-.6836l.52246.97168a5.21112 5.21112 0 0 1 -2.8811.90039c-2.34056-.00003-4.19504-1.70994-4.19504-4.57327zm6.12158-.71972c0-1.76465-.792-2.71875-2.16064-2.71875a2.70249 2.70249 0 0 0 -2.52046 2.7188z"/><path d="m421.13477 467.63867c0-2.93457 1.96289-4.60937 4.21337-4.60937a3.62922 3.62922 0 0 1 2.55665 1.02636l-.75635.97266a2.56461 2.56461 0 0 0 -1.7461-.77441c-1.58447 0-2.73681 1.36816-2.73681 3.38476 0 1.999 1.09814 3.34863 2.70068 3.34863a3.11016 3.11016 0 0 0 2.05274-.88183l.64794.99023a4.26866 4.26866 0 0 1 -2.82666 1.11621c-2.32275 0-4.10546-1.67382-4.10546-4.57324z"/><path d="m429.27148 469.72754c0-1.9082 1.63819-2.86328 5.36524-3.27734 0-1.11622-.35986-2.19629-1.80029-2.19629a4.75309 4.75309 0 0 0 -2.61084.93652l-.57618-1.02637a6.49193 6.49193 0 0 1 3.439-1.13476c2.14258 0 3.043 1.42285 3.043 3.60156v5.36523h-1.22461l-.126-1.04394h-.05371a4.67236 4.67236 0 0 1 -2.89893 1.25976 2.38079 2.38079 0 0 1 -2.55668-2.48437zm5.36524.126v-2.43067c-2.917.36035-3.92481 1.08008-3.92481 2.19629 0 .99024.68409 1.4043 1.54834 1.4043a3.54734 3.54734 0 0 0 2.37647-1.16994z"/><path d="m438.001 475.5791.28808-1.16992a2.58756 2.58756 0 0 0 .666.126c.99023 0 1.6206-.793 1.98047-1.87305l.19824-.64844-3.51074-8.76855h1.53027l1.78223 4.84375c.2705.75586.57617 1.65625.84668 2.46679h.07177c.252-.792.5044-1.69238.73829-2.46679l1.5664-4.84375h1.44043l-3.29492 9.4707c-.61231 1.72852-1.51221 3.043-3.27686 3.043a2.89649 2.89649 0 0 1 -1.02634-.17974z"/><path d="m450.13281 471.11426c3.457-3.43946 5.40137-5.50977 5.40137-7.36426a2.0344 2.0344 0 0 0 -2.17822-2.251 3.3842 3.3842 0 0 0 -2.44873 1.38672l-.84668-.84668a4.51091 4.51091 0 0 1 3.47509-1.74609 3.19 3.19 0 0 1 3.439 3.38476c0 2.16016-1.9624 4.30274-4.68115 7.14844.63037-.05469 1.33252-.1084 1.92675-.1084h3.33057v1.27832h-7.418z"/><path d="m613.01611 460.18652h3.69089c2.4126 0 4.14111.86426 4.14111 3.3125a3.22562 3.22562 0 0 1 -2.66455 3.34961l3.00684 5.14942h-1.69238l-2.84473-4.98731h-2.14307v4.98731h-1.49414zm3.4751 5.59961c1.83643 0 2.86279-.75586 2.86279-2.28711 0-1.54785-1.02636-2.10644-2.86279-2.10644h-1.981v4.39355z"/><path d="m622.28564 467.64062c0-2.8623 1.92676-4.60937 3.9253-4.60937 2.23242 0 3.49316 1.60254 3.49316 4.10547a5.69893 5.69893 0 0 1 -.0542.8457h-5.90576a2.90233 2.90233 0 0 0 2.917 3.043 3.95529 3.95529 0 0 0 2.17871-.68359l.522.97168a5.20973 5.20973 0 0 1 -2.88086.90039c-2.34085-.00003-4.19535-1.70999-4.19535-4.57328zm6.12207-.71972c0-1.76465-.79248-2.71875-2.16064-2.71875a2.70271 2.70271 0 0 0 -2.521 2.71875z"/><path d="m631.86182 470.2334v-11.05469h1.47607v11.16309c0 .46777.19824.64746.41455.64746a1.26767 1.26767 0 0 0 .32373-.03516l.19824 1.11621a1.99233 1.99233 0 0 1 -.84619.14356c-1.11622 0-1.5664-.70215-1.5664-1.98047z"/><path d="m635.80322 467.64062c0-2.8623 1.92676-4.60937 3.9253-4.60937 2.23242 0 3.49316 1.60254 3.49316 4.10547a5.70028 5.70028 0 0 1 -.0542.8457h-5.90576a2.90233 2.90233 0 0 0 2.917 3.043 3.95531 3.95531 0 0 0 2.17871-.68359l.522.97168a5.20967 5.20967 0 0 1 -2.88085.90039c-2.34087-.00003-4.19536-1.70999-4.19536-4.57328zm6.12207-.71972c0-1.76465-.79248-2.71875-2.16064-2.71875a2.70271 2.70271 0 0 0 -2.521 2.71875z"/><path d="m644.58691 469.72949c0-1.9082 1.63868-2.86328 5.36573-3.27734 0-1.11621-.35987-2.19629-1.8003-2.19629a4.75315 4.75315 0 0 0 -2.61084.93652l-.57617-1.02636a6.49185 6.49185 0 0 1 3.439-1.13477c2.14258 0 3.043 1.42285 3.043 3.60156v5.36524h-1.22461l-.126-1.04395h-.05372a4.67231 4.67231 0 0 1 -2.89893 1.25977 2.38119 2.38119 0 0 1 -2.55716-2.48438zm5.36573.126v-2.43069c-2.91651.36036-3.9253 1.08008-3.9253 2.19629 0 .99024.68457 1.4043 1.54883 1.4043a3.54736 3.54736 0 0 0 2.37647-1.16992z"/><path d="m653.22656 471.00781.73828-.99023a3.9356 3.9356 0 0 0 2.5752 1.04394c1.15234 0 1.72851-.6123 1.72851-1.36816 0-.90039-1.04443-1.2959-1.999-1.65625-1.24219-.4502-2.61035-1.04492-2.61035-2.52051 0-1.40527 1.11621-2.48535 3.00684-2.48535a4.36942 4.36942 0 0 1 2.71875.99023l-.70215.93653a3.2503 3.2503 0 0 0 -1.999-.77442c-1.09814 0-1.602.59473-1.602 1.26075 0 .82812.9541 1.13378 1.94434 1.51171 1.26025.46875 2.665.99122 2.665 2.64747 0 1.42187-1.13428 2.61035-3.20508 2.61035a5.266 5.266 0 0 1 -3.25934-1.20606z"/><path d="m661.09277 467.64062c0-2.8623 1.92676-4.60937 3.9253-4.60937 2.23291 0 3.49316 1.60254 3.49316 4.10547a5.70028 5.70028 0 0 1 -.0542.8457h-5.90576a2.90262 2.90262 0 0 0 2.917 3.043 3.95529 3.95529 0 0 0 2.17871-.68359l.522.97168a5.20973 5.20973 0 0 1 -2.88086.90039c-2.34085-.00003-4.19535-1.70999-4.19535-4.57328zm6.12207-.71972c0-1.76465-.79248-2.71875-2.16064-2.71875a2.70271 2.70271 0 0 0 -2.521 2.71875z"/><path d="m325.12988 402.24707h3.36719c2.64673 0 4.4292.88184 4.4292 3.47461 0 2.48535-1.7644 3.65527-4.35718 3.65527h-1.94458v4.68164h-1.49463zm3.259 5.90625c2.05273 0 3.043-.75684 3.043-2.43164 0-1.71-1.04418-2.26856-3.115-2.26856h-1.69238v4.7002z"/><path d="m334.09375 409.70117c0-2.8623 1.92676-4.60937 3.92529-4.60937 2.23267 0 3.49317 1.60254 3.49317 4.10547a5.70028 5.70028 0 0 1 -.0542.8457h-5.90576a2.90261 2.90261 0 0 0 2.917 3.043 3.95527 3.95527 0 0 0 2.17871-.6836l.522.97168a5.209 5.209 0 0 1 -2.88086.90039c-2.34061-.00003-4.19535-1.70999-4.19535-4.57327zm6.12207-.71972c0-1.76465-.79248-2.71875-2.16064-2.71875a2.70271 2.70271 0 0 0 -2.521 2.71875z"/><path d="m343.66992 405.30762h1.22408l.12622 1.585h.054a2.99285 2.99285 0 0 1 2.48486-1.80078 2.1595 2.1595 0 0 1 .936.18066l-.28809 1.2959a2.45342 2.45342 0 0 0 -.84619-.14356c-.73828 0-1.62036.54-2.2146 2.01563v5.61816h-1.47632z"/><path d="m349.0874 409.70117c0-2.93457 1.96265-4.60937 4.21338-4.60937a3.62966 3.62966 0 0 1 2.55664 1.02636l-.7561.97266a2.56575 2.56575 0 0 0 -1.74658-.77441c-1.58448 0-2.73682 1.36816-2.73682 3.38476 0 1.999 1.09839 3.34863 2.70093 3.34863a3.1085 3.1085 0 0 0 2.05249-.88183l.64819.99023a4.26868 4.26868 0 0 1 -2.82666 1.11621c-2.32275 0-4.10547-1.67382-4.10547-4.57324z"/><path d="m357.81738 410.85352v-5.5459h1.49462v5.34765c0 1.63868.48609 2.34082 1.63843 2.34082.90015 0 1.53052-.45019 2.35864-1.47656v-6.21191h1.47656v8.751h-1.22463l-.126-1.36816h-.054a3.699 3.699 0 0 1 -2.88086 1.584c-1.85439-.00005-2.68276-1.18852-2.68276-3.42094z"/><path d="m366.76318 413.06836.73828-.99024a3.9338 3.9338 0 0 0 2.57471 1.04395c1.15235 0 1.72852-.6123 1.72852-1.36816 0-.90039-1.04444-1.2959-1.99854-1.65625-1.24243-.4502-2.61084-1.04493-2.61084-2.52051 0-1.40527 1.11621-2.48535 3.00684-2.48535a4.36769 4.36769 0 0 1 2.71875.99023l-.70215.93652a3.24957 3.24957 0 0 0 -1.99854-.77441c-1.09838 0-1.60253.59473-1.60253 1.26074 0 .82813.95434 1.13379 1.94458 1.51172 1.26049.46875 2.66479.99121 2.66479 2.64746 0 1.42188-1.13428 2.61035-3.20483 2.61035a5.26471 5.26471 0 0 1 -3.25904-1.20605z"/><path d="m374.30493 413.06836.73828-.99024a3.9343 3.9343 0 0 0 2.57471 1.04395c1.15234 0 1.72852-.6123 1.72852-1.36816 0-.90039-1.04419-1.2959-1.99854-1.65625-1.24243-.4502-2.61084-1.04493-2.61084-2.52051 0-1.40527 1.11646-2.48535 3.00684-2.48535a4.36893 4.36893 0 0 1 2.719.99023l-.70239.93652a3.249 3.249 0 0 0 -1.99854-.77441c-1.09839 0-1.60254.59473-1.60254 1.26074 0 .82813.95435 1.13379 1.94458 1.51172 1.2605.46875 2.6648.99121 2.6648 2.64746 0 1.42188-1.13428 2.61035-3.20484 2.61035a5.26523 5.26523 0 0 1 -3.25904-1.20605z"/><path d="m382.54883 402.55273a1.0291 1.0291 0 0 1 2.05273 0 1.029 1.029 0 0 1 -2.05273 0zm.27 2.75489h1.47656v8.751h-1.47656z"/><path d="m385.98633 405.30762h1.53052l1.65649 4.96972c.252.86426.54 1.74707.81006 2.5752h.07226c.252-.82813.54-1.71094.792-2.5752l1.65673-4.96972h1.45826l-3.09693 8.751h-1.72851z"/><path d="m394.93262 409.70117c0-2.8623 1.92651-4.60937 3.925-4.60937 2.23266 0 3.49292 1.60254 3.49292 4.10547a5.70343 5.70343 0 0 1 -.054.8457h-5.90576a2.90261 2.90261 0 0 0 2.917 3.043 3.9532 3.9532 0 0 0 2.17847-.6836l.52221.97168a5.209 5.209 0 0 1 -2.88085.90039c-2.3405-.00003-4.19499-1.70999-4.19499-4.57327zm6.12158-.71972c0-1.76465-.792-2.71875-2.16065-2.71875a2.70248 2.70248 0 0 0 -2.5205 2.71875z"/><path d="m408.25244 402.24707h6.80591v1.26074h-5.31152v3.709h4.48317v1.27832h-4.48315v4.28515h5.49145v1.27832h-6.98584z"/><path d="m417.59424 405.30762h1.22461l.126 1.26074h.0542a4.125 4.125 0 0 1 2.93457-1.47656c1.83643 0 2.665 1.18847 2.665 3.4209v5.54589h-1.47656v-5.34765c0-1.63867-.50439-2.34082-1.65674-2.34082-.8999 0-1.51221.46875-2.39453 1.35058v6.33789h-1.47656z"/><path d="m426.17969 405.30762h1.53076l1.65625 4.96972c.25244.86426.54053 1.74707.81055 2.5752h.07177c.252-.82813.54-1.71094.79248-2.5752l1.65625-4.96972h1.4585l-3.09668 8.751h-1.72852z"/><path d="m435.126 409.70117c0-2.8623 1.92675-4.60937 3.92529-4.60937 2.23291 0 3.49316 1.60254 3.49316 4.10547a5.69893 5.69893 0 0 1 -.0542.8457h-5.90576a2.90262 2.90262 0 0 0 2.917 3.043 3.95527 3.95527 0 0 0 2.17872-.6836l.522.97168a5.20963 5.20963 0 0 1 -2.88086.90039c-2.34088-.00003-4.19535-1.70999-4.19535-4.57327zm6.12207-.71972c0-1.76465-.79248-2.71875-2.16065-2.71875a2.70269 2.70269 0 0 0 -2.521 2.71875z"/><path d="m444.70215 412.294v-11.05474h1.47656v11.16308c0 .46778.19775.64746.41406.64746a1.26607 1.26607 0 0 0 .32373-.03515l.19825 1.11621a1.9926 1.9926 0 0 1 -.8462.14355c-1.11621 0-1.5664-.70214-1.5664-1.98041z"/><path d="m448.64355 409.70117c0-2.93457 1.9087-4.60937 4.05127-4.60937s4.05127 1.6748 4.05127 4.60937c0 2.89942-1.90869 4.57324-4.05127 4.57324s-4.05127-1.67382-4.05127-4.57324zm6.57227 0c0-2.0166-1.0083-3.38476-2.521-3.38476-1.49462 0-2.5205 1.36816-2.5205 3.38476 0 1.999 1.02588 3.34863 2.5205 3.34863 1.5127 0 2.521-1.3496 2.521-3.34863z"/><path d="m459.04785 405.30762h1.22415l.126 1.00879h.0542a4.52931 4.52931 0 0 1 2.791-1.22461c2.25049 0 3.457 1.74707 3.457 4.46582 0 2.9707-1.78272 4.71679-3.78125 4.71679a4.05675 4.05675 0 0 1 -2.43067-1.00781l.03613 1.53028v2.95312h-1.47656zm6.12158 4.25c0-1.92676-.64795-3.22364-2.30468-3.22364a3.68494 3.68494 0 0 0 -2.34034 1.18848v4.5918a3.46307 3.46307 0 0 0 2.14258.918c1.44043-.00003 2.50244-1.31449 2.50244-3.47464z"/><path d="m468.38916 409.70117c0-2.8623 1.92676-4.60937 3.92529-4.60937 2.23243 0 3.49317 1.60254 3.49317 4.10547a5.70028 5.70028 0 0 1 -.0542.8457h-5.90576a2.90233 2.90233 0 0 0 2.917 3.043 3.95527 3.95527 0 0 0 2.17871-.6836l.522.97168a5.20963 5.20963 0 0 1 -2.88086.90039c-2.34086-.00003-4.19535-1.70999-4.19535-4.57327zm6.12207-.71972c0-1.76465-.79248-2.71875-2.16064-2.71875a2.70271 2.70271 0 0 0 -2.521 2.71875z"/><path d="m118.814 832.18945h1.49463v10.53321h5.16748v1.27834h-6.66211z"/><path d="m126.55371 839.64355c0-2.8623 1.92676-4.60937 3.92529-4.60937 2.23267 0 3.49317 1.60254 3.49317 4.10547a5.70028 5.70028 0 0 1 -.0542.8457h-5.90576a2.902 2.902 0 0 0 2.917 3.043 3.95534 3.95534 0 0 0 2.17871-.68359l.522.97168a5.209 5.209 0 0 1 -2.88086.90039c-2.34061-.00003-4.19535-1.70999-4.19535-4.57328zm6.12207-.71972c0-1.76465-.79248-2.71875-2.16064-2.71875a2.70271 2.70271 0 0 0 -2.521 2.71875z"/><path d="m134.95923 835.25h1.53052l1.65649 4.96973c.25195.86425.54 1.74707.8103 2.57519h.07178c.2522-.82812.54028-1.71094.79248-2.57519l1.65625-4.96973h1.4585l-3.09693 8.751h-1.72851z"/><path d="m143.90527 839.64355c0-2.8623 1.92676-4.60937 3.9253-4.60937 2.23266 0 3.49316 1.60254 3.49316 4.10547a5.70028 5.70028 0 0 1 -.0542.8457h-5.90576a2.902 2.902 0 0 0 2.917 3.043 3.95529 3.95529 0 0 0 2.17871-.68359l.522.97168a5.20909 5.20909 0 0 1 -2.88086.90039c-2.34062-.00003-4.19535-1.70999-4.19535-4.57328zm6.12207-.71972c0-1.76465-.79248-2.71875-2.16064-2.71875a2.70271 2.70271 0 0 0 -2.521 2.71875z"/><path d="m153.48145 842.23633v-11.05567h1.47631v11.16407c0 .46777.198.64843.41407.64843a1.23721 1.23721 0 0 0 .32421-.03613l.198 1.11621a1.99156 1.99156 0 0 1 -.84619.14356c-1.11645 0-1.5664-.70215-1.5664-1.98047z"/><path d="m31.61084 885.19336h3.36716c2.64673 0 4.4292.88184 4.4292 3.47461 0 2.48535-1.76441 3.65527-4.35718 3.65527h-1.94455v4.68164h-1.49463zm3.259 5.90527c2.05274 0 3.043-.75586 3.043-2.43066 0-1.71-1.04419-2.26856-3.115-2.26856h-1.69237v4.69922z"/><path d="m40.57471 892.64746c0-2.8623 1.92675-4.60937 3.92529-4.60937 2.23267 0 3.49316 1.60253 3.49316 4.10546a5.699 5.699 0 0 1 -.0542.84571h-5.90576a2.902 2.902 0 0 0 2.917 3.043 3.95527 3.95527 0 0 0 2.17871-.6836l.522.97168a5.209 5.209 0 0 1 -2.88086.90039c-2.34061-.00003-4.19534-1.70999-4.19534-4.57327zm6.12207-.71973c0-1.76464-.79248-2.71875-2.16065-2.71875a2.7027 2.7027 0 0 0 -2.521 2.71875z"/><path d="m49.35889 894.73633c0-1.90918 1.63842-2.86328 5.36572-3.27735 0-1.11621-.36035-2.19628-1.80078-2.19628a4.75233 4.75233 0 0 0 -2.6106.93652l-.57617-1.02637a6.4919 6.4919 0 0 1 3.439-1.13476c2.14257 0 3.043 1.42285 3.043 3.60156v5.36523h-1.22443l-.126-1.04394h-.0542a4.6706 4.6706 0 0 1 -2.89892 1.25976 2.38092 2.38092 0 0 1 -2.55662-2.48437zm5.36572.126v-2.43066c-2.917.36035-3.92529 1.08008-3.92529 2.19629 0 .99023.68408 1.4043 1.54834 1.4043a3.54839 3.54839 0 0 0 2.37695-1.16996z"/><path d="m58.9707 884.18457h1.4585v8.67871h.0542l3.727-4.60937h1.63843l-2.93482 3.51171 3.33106 5.23926h-1.62056l-2.55664-4.21288-1.63867 1.9082v2.30468h-1.4585z"/><path d="m71.39185 884.2207h1.08032l-4.80762 15.665h-1.08008z"/><path d="m74.32471 885.19336h3.511c2.39478 0 4.051.81055 4.051 2.88086a2.58472 2.58472 0 0 1 -1.72852 2.57519v.07129a2.718 2.718 0 0 1 2.41284 2.82715c0 2.32227-1.83666 3.457-4.48339 3.457h-3.76293zm3.24072 5.02344c2.0166 0 2.845-.73828 2.845-1.94434 0-1.36816-.93628-1.89062-2.7727-1.89062h-1.81864v3.835zm.30615 5.59961c2.03467 0 3.22315-.73829 3.22315-2.32227 0-1.459-1.15235-2.125-3.22315-2.125h-2.05249v4.44727z"/><path d="m84.76465 888.25391h1.22412l.12622 1.585h.054a2.99282 2.99282 0 0 1 2.48486-1.80078 2.17392 2.17392 0 0 1 .936.17968l-.28808 1.29688a2.45272 2.45272 0 0 0 -.84619-.14453c-.73828 0-1.62036.541-2.2146 2.01758v5.61718h-1.47633z"/><path d="m90.18213 892.64746c0-2.8623 1.92676-4.60937 3.92529-4.60937 2.23267 0 3.49317 1.60253 3.49317 4.10546a5.70033 5.70033 0 0 1 -.0542.84571h-5.90577a2.902 2.902 0 0 0 2.917 3.043 3.95527 3.95527 0 0 0 2.17871-.6836l.522.97168a5.209 5.209 0 0 1 -2.88086.90039c-2.3406-.00003-4.19534-1.70999-4.19534-4.57327zm6.12207-.71973c0-1.76464-.79248-2.71875-2.16065-2.71875a2.70271 2.70271 0 0 0 -2.521 2.71875z"/><path d="m98.96606 894.73633c0-1.90918 1.63843-2.86328 5.36548-3.27735 0-1.11621-.35986-2.19628-1.80029-2.19628a4.75312 4.75312 0 0 0 -2.61084.93652l-.57617-1.02637a6.49193 6.49193 0 0 1 3.439-1.13476c2.14258 0 3.043 1.42285 3.043 3.60156v5.36523h-1.22436l-.12622-1.04394h-.054a4.67056 4.67056 0 0 1 -2.89868 1.25976 2.381 2.381 0 0 1 -2.55692-2.48437zm5.36548.126v-2.43066c-2.91675.36035-3.925 1.08008-3.925 2.19629 0 .99023.68433 1.4043 1.54859 1.4043a3.54735 3.54735 0 0 0 2.37641-1.16996z"/><path d="m108.57812 884.18457h1.4585v8.67871h.0542l3.72705-4.60937h1.63843l-2.93482 3.51171 3.33106 5.23926h-1.62061l-2.55664-4.21289-1.63867 1.90821v2.30468h-1.4585z"/><path d="m117.48828 888.25391h1.22412l.12622 1.00879h.054a4.52984 4.52984 0 0 1 2.79077-1.22461c2.25073 0 3.457 1.74707 3.457 4.46582 0 2.9707-1.78247 4.71679-3.781 4.71679a4.05732 4.05732 0 0 1 -2.43067-1.00781l.03589 1.53027v2.95313h-1.47632zm6.12158 4.25c0-1.92676-.64795-3.22364-2.30468-3.22364a3.686 3.686 0 0 0 -2.34058 1.18848v4.5918a3.46359 3.46359 0 0 0 2.14258.918c1.44043-.00003 2.50268-1.31449 2.50268-3.47464z"/><path d="m126.82959 892.64746c0-2.93457 1.90869-4.60937 4.05127-4.60937s4.05127 1.6748 4.05127 4.60937c0 2.89942-1.90869 4.57324-4.05127 4.57324s-4.05127-1.67382-4.05127-4.57324zm6.572 0c0-2.0166-1.0083-3.38476-2.52075-3.38476-1.49439 0-2.52075 1.36816-2.52075 3.38476 0 1.999 1.02636 3.34961 2.52075 3.34961 1.51247 0 2.52077-1.35059 2.52077-3.34961z"/><path d="m136.96362 885.499a1.02911 1.02911 0 0 1 2.05274 0 1.029 1.029 0 0 1 -2.05274 0zm.27027 2.75489h1.47632v8.751h-1.47632z"/><path d="m141.66162 888.25391h1.22412l.12622 1.26074h.054a4.12506 4.12506 0 0 1 2.93481-1.47656c1.83667 0 2.6648 1.18847 2.6648 3.42089v5.5459h-1.47632v-5.34765c0-1.63868-.50415-2.34082-1.6565-2.34082-.90039 0-1.51245.46875-2.39477 1.35058v6.33789h-1.47632z"/><path d="m151.75952 894.30371v-4.84277h-1.29639v-1.11621l1.36841-.09082.18018-2.44825h1.24219v2.44825h2.35888v1.207h-2.35888v4.86133c0 1.08007.34228 1.69238 1.35058 1.69238a3.1701 3.1701 0 0 0 .99024-.23438l.28808 1.11621a5.40153 5.40153 0 0 1 -1.6206.32422c-1.87256.00003-2.50269-1.18844-2.50269-2.91696z"/><path d="m161.28247 884.2207h1.08032l-4.80761 15.665h-1.08008z"/><path d="m64.7124 919.47461.90039-1.04492a4.624 4.624 0 0 0 3.259 1.47656c1.54834 0 2.46655-.77441 2.46655-1.92676 0-1.20605-.84619-1.584-1.9624-2.08789l-1.69263-.73828a3.32008 3.32008 0 0 1 -2.39478-3.043c0-1.80078 1.56665-3.13281 3.70923-3.13281a4.9 4.9 0 0 1 3.49292 1.458l-.81006.97265a3.76494 3.76494 0 0 0 -2.68282-1.11616c-1.31445 0-2.19653.666-2.19653 1.72852 0 1.13379 1.02612 1.5664 1.9624 1.96191l1.67456.7207c1.36841.59376 2.43067 1.4043 2.43067 3.1504 0 1.873-1.53052 3.36718-4.01514 3.36718a5.72722 5.72722 0 0 1 -4.14136-1.7461z"/><path d="m74.91846 917.7998v-5.54589h1.49463v5.34765c0 1.63867.48608 2.34082 1.63842 2.34082.90015 0 1.53052-.45019 2.35865-1.47656v-6.21191h1.47656v8.751h-1.22461l-.126-1.36816h-.054a3.699 3.699 0 0 1 -2.88086 1.584c-1.85442-.00005-2.68279-1.18852-2.68279-3.42095z"/><path d="m83.86426 920.01465.73828-.99024a3.93376 3.93376 0 0 0 2.57471 1.04395c1.15234 0 1.72851-.61231 1.72851-1.36816 0-.9004-1.04443-1.29688-1.99853-1.65625-1.24244-.4502-2.61084-1.04493-2.61084-2.52149 0-1.4043 1.11621-2.48437 3.00683-2.48437a4.36766 4.36766 0 0 1 2.71875.99023l-.70215.93652a3.24952 3.24952 0 0 0 -1.99853-.77441c-1.09839 0-1.60254.59473-1.60254 1.26074 0 .82813.95435 1.13379 1.94458 1.5127 1.2605.46777 2.66479.99023 2.66479 2.64648 0 1.42188-1.13427 2.61035-3.20483 2.61035a5.26466 5.26466 0 0 1 -3.25903-1.20605z"/><path d="m92.27051 918.30371v-4.84277h-1.29639v-1.11621l1.36841-.09082.17993-2.44825h1.24243v2.44825h2.35865v1.207h-2.35865v4.86133c0 1.08007.342 1.69238 1.35034 1.69238a3.16983 3.16983 0 0 0 .99048-.23438l.28809 1.11621a5.4 5.4 0 0 1 -1.62061.32422c-1.87256.00003-2.50268-1.18844-2.50268-2.91696z"/><path d="m97.18433 918.73633c0-1.90918 1.63842-2.86328 5.36547-3.27735 0-1.11621-.35986-2.19628-1.80029-2.19628a4.75312 4.75312 0 0 0 -2.61084.93652l-.57617-1.02637a6.49193 6.49193 0 0 1 3.439-1.13476c2.14258 0 3.043 1.42285 3.043 3.60156v5.36523h-1.22436l-.12622-1.04394h-.054a4.67054 4.67054 0 0 1 -2.89868 1.25976 2.381 2.381 0 0 1 -2.55691-2.48437zm5.36547.126v-2.43066c-2.91674.36035-3.925 1.08008-3.925 2.19629 0 .99023.68432 1.4043 1.54858 1.4043a3.54735 3.54735 0 0 0 2.37642-1.16996z"/><path d="m106.52637 909.499a1.0291 1.0291 0 0 1 2.05273 0 1.029 1.029 0 0 1 -2.05273 0zm.27 2.75489h1.47663v8.751h-1.47656z"/><path d="m111.22412 912.25391h1.22461l.126 1.26074h.054a4.12555 4.12555 0 0 1 2.93482-1.47656c1.83667 0 2.66479 1.18847 2.66479 3.42089v5.5459h-1.47634v-5.34765c0-1.63868-.50415-2.34082-1.65649-2.34082-.90039 0-1.51245.46875-2.39478 1.35058v6.33789h-1.47656z"/><path d="m124.814 909.19336h1.49463v10.5332h5.16748v1.27832h-6.66211z"/><path d="m132.55371 916.64746c0-2.8623 1.92676-4.60937 3.92529-4.60937 2.23267 0 3.49317 1.60253 3.49317 4.10546a5.70033 5.70033 0 0 1 -.0542.84571h-5.90576a2.902 2.902 0 0 0 2.917 3.043 3.95527 3.95527 0 0 0 2.17871-.6836l.522.97168a5.209 5.209 0 0 1 -2.88086.90039c-2.34061-.00003-4.19535-1.70999-4.19535-4.57327zm6.12207-.71973c0-1.76464-.79248-2.71875-2.16064-2.71875a2.70271 2.70271 0 0 0 -2.521 2.71875z"/><path d="m140.95923 912.25391h1.53052l1.65649 4.96972c.25195.86426.54 1.74707.8103 2.5752h.07178c.2522-.82813.54028-1.71094.79248-2.5752l1.65625-4.96972h1.4585l-3.09693 8.751h-1.72851z"/><path d="m149.90527 916.64746c0-2.8623 1.92676-4.60937 3.9253-4.60937 2.23266 0 3.49316 1.60253 3.49316 4.10546a5.70033 5.70033 0 0 1 -.0542.84571h-5.90576a2.902 2.902 0 0 0 2.917 3.043 3.95522 3.95522 0 0 0 2.17871-.6836l.522.97168a5.209 5.209 0 0 1 -2.88086.90039c-2.34062-.00003-4.19535-1.70999-4.19535-4.57327zm6.12207-.71973c0-1.76464-.79248-2.71875-2.16064-2.71875a2.70271 2.70271 0 0 0 -2.521 2.71875z"/><path d="m159.48145 919.24023v-11.05566h1.47631v11.16406c0 .46778.198.64844.41407.64844a1.23721 1.23721 0 0 0 .32421-.03613l.198 1.11621a1.99174 1.99174 0 0 1 -.84619.14355c-1.11645 0-1.5664-.70215-1.5664-1.98047z"/><path d="m719.64551 1123.2959v-4.84278h-1.29639v-1.11621l1.36865-.09082.17969-2.44824h1.24268v2.44824h2.3584v1.207h-2.3584v4.86133c0 1.08008.34179 1.69239 1.35009 1.69239a3.16846 3.16846 0 0 0 .99024-.23438l.28808 1.11621a5.39681 5.39681 0 0 1 -1.62011.32422c-1.87256.00003-2.50293-1.18845-2.50293-2.91696z"/><path d="m228.47144 840.18555h1.69238l3.99731 11.81152h-1.60254l-1.11621-3.60156h-4.30346l-1.13428 3.60156h-1.53052zm-.95435 7.0039h3.54712l-.55835-1.80078c-.43213-1.31347-.81006-2.61035-1.18823-3.97851h-.072c-.36011 1.36816-.73829 2.665-1.17041 3.97851z"/><path d="m235.68872 849.2959v-4.84278h-1.29639v-1.11621l1.36841-.09082.18018-2.44824h1.24219v2.44824h2.35889v1.207h-2.35888v4.86133c0 1.08008.34228 1.69239 1.35058 1.69239a3.1701 3.1701 0 0 0 .99024-.23438l.28808 1.11621a5.40153 5.40153 0 0 1 -1.6206.32422c-1.87257.00003-2.5027-1.18845-2.5027-2.91696z"/><path d="m241.41284 849.2959v-4.84278h-1.29638v-1.11621l1.3684-.09082.18018-2.44824h1.24219v2.44824h2.35888v1.207h-2.35888v4.86133c0 1.08008.34228 1.69239 1.35058 1.69239a3.1701 3.1701 0 0 0 .99024-.23438l.28808 1.11621a5.40153 5.40153 0 0 1 -1.6206.32422c-1.87253.00003-2.50269-1.18845-2.50269-2.91696z"/><path d="m246.32666 849.72852c0-1.90918 1.63843-2.86329 5.36572-3.27735 0-1.11621-.36035-2.19629-1.80078-2.19629a4.75231 4.75231 0 0 0 -2.61059.93653l-.57618-1.02637a6.492 6.492 0 0 1 3.439-1.13477c2.14258 0 3.043 1.42285 3.043 3.60157v5.36523h-1.22443l-.126-1.04395h-.0542a4.6706 4.6706 0 0 1 -2.89893 1.25977 2.38092 2.38092 0 0 1 -2.55661-2.48437zm5.36572.126v-2.43066c-2.917.36035-3.92529 1.08008-3.92529 2.19629 0 .99023.68408 1.40429 1.54834 1.40429a3.54834 3.54834 0 0 0 2.37695-1.16995z"/><path d="m255.29053 847.63965c0-2.93457 1.9624-4.60938 4.21313-4.60938a3.63491 3.63491 0 0 1 2.55689 1.02637l-.75635.97266a2.56623 2.56623 0 0 0 -1.74658-.77442c-1.58448 0-2.73682 1.36817-2.73682 3.38477 0 1.999 1.09839 3.34961 2.70093 3.34961a3.109 3.109 0 0 0 2.05249-.88281l.64819.99023a4.2688 4.2688 0 0 1 -2.8269 1.11621c-2.32251 0-4.10498-1.67383-4.10498-4.57324z"/><path d="m264.14648 839.17676h1.4585v8.67871h.0542l3.72705-4.60938h1.63843l-2.93482 3.51172 3.33106 5.23926h-1.62061l-2.55664-4.21289-1.63867 1.9082v2.30469h-1.4585z"/><path d="m302.5957 840.18555h2.95313c3.637 0 5.58154 2.10644 5.58154 5.85156 0 3.76367-1.94458 5.96-5.50976 5.96h-3.02491zm2.845 10.58691c2.75489 0 4.14136-1.74609 4.14136-4.73535 0-2.9707-1.38647-4.62695-4.14136-4.62695h-1.35034v9.3623z"/><path d="m312.87354 847.63965c0-2.86231 1.92651-4.60938 3.925-4.60938 2.23267 0 3.49292 1.60254 3.49292 4.10547a5.7037 5.7037 0 0 1 -.05395.84571h-5.90576a2.902 2.902 0 0 0 2.917 3.043 3.95329 3.95329 0 0 0 2.17847-.68359l.52221.97168a5.209 5.209 0 0 1 -2.88086.90039c-2.34057-.00004-4.19503-1.71-4.19503-4.57328zm6.12158-.71973c0-1.76465-.792-2.71875-2.16065-2.71875a2.7025 2.7025 0 0 0 -2.52051 2.71875z"/><path d="m321.80127 847.63965c0-2.93457 1.9624-4.60938 4.21313-4.60938a3.63491 3.63491 0 0 1 2.55689 1.02637l-.75635.97266a2.56623 2.56623 0 0 0 -1.74658-.77442c-1.58447 0-2.73682 1.36817-2.73682 3.38477 0 1.999 1.09839 3.34961 2.70093 3.34961a3.109 3.109 0 0 0 2.05249-.88281l.64819.99023a4.2688 4.2688 0 0 1 -2.8269 1.11621c-2.32251 0-4.10498-1.67383-4.10498-4.57324z"/><path d="m329.93726 849.72852c0-1.90918 1.63842-2.86329 5.36547-3.27735 0-1.11621-.35986-2.19629-1.80029-2.19629a4.75313 4.75313 0 0 0 -2.61084.93653l-.57617-1.02637a6.49193 6.49193 0 0 1 3.439-1.13477c2.14258 0 3.043 1.42285 3.043 3.60157v5.36523h-1.22443l-.12622-1.04395h-.054a4.6705 4.6705 0 0 1 -2.89868 1.25977 2.381 2.381 0 0 1 -2.55684-2.48437zm5.36547.126v-2.43066c-2.91674.36035-3.925 1.08008-3.925 2.19629 0 .99023.68432 1.40429 1.54858 1.40429a3.54734 3.54734 0 0 0 2.37642-1.16995z"/><path d="m338.667 855.58008.28809-1.16992a2.58544 2.58544 0 0 0 .666.126c.99048 0 1.62061-.793 1.98072-1.873l.198-.64844-3.511-8.76856h1.53052l1.78247 4.84375c.27.75586.57617 1.65625.84619 2.4668h.072c.2522-.792.50415-1.69238.73828-2.4668l1.56641-4.84375h1.44043l-3.29493 9.47168c-.6123 1.72852-1.51245 3.042-3.27685 3.042a2.89759 2.89759 0 0 1 -1.02633-.17976z"/><path d="m351.501 850.77246h2.6289v-8.46191h-2.08862v-.95508a6.829 6.829 0 0 0 2.43066-.8457h1.13428v10.26269h2.37671v1.22461h-6.48193z"/><path d="m453.93018 840.18359h2.95263c3.63721 0 5.582 2.10645 5.582 5.85157 0 3.76367-1.94482 5.96-5.50976 5.96h-3.0249zm2.84472 10.58692c2.75489 0 4.14112-1.7461 4.14112-4.73535 0-2.97071-1.38623-4.627-4.14112-4.627h-1.35058v9.36231z"/><path d="m464.20752 847.6377c0-2.86231 1.92676-4.60938 3.92529-4.60938 2.23242 0 3.49317 1.60254 3.49317 4.10547a5.70028 5.70028 0 0 1 -.0542.8457h-5.90578a2.90175 2.90175 0 0 0 2.917 3.043 3.95534 3.95534 0 0 0 2.17871-.68359l.522.97168a5.20963 5.20963 0 0 1 -2.88086.90039c-2.34085-.00003-4.19533-1.70997-4.19533-4.57327zm6.12207-.71973c0-1.76465-.79248-2.71875-2.16064-2.71875a2.7027 2.7027 0 0 0 -2.521 2.71875z"/><path d="m473.13525 847.6377c0-2.93458 1.96289-4.60938 4.21338-4.60938a3.63425 3.63425 0 0 1 2.55664 1.02637l-.75586.97265a2.56673 2.56673 0 0 0 -1.74658-.77441c-1.58447 0-2.73681 1.36816-2.73681 3.38477 0 1.999 1.09814 3.3496 2.70068 3.3496a3.11105 3.11105 0 0 0 2.05273-.88281l.648.99024a4.26771 4.26771 0 0 1 -2.82666 1.11621c-2.32277 0-4.10552-1.67383-4.10552-4.57324z"/><path d="m481.27148 849.72656c0-1.90918 1.63819-2.86328 5.36524-3.27734 0-1.11621-.35986-2.19629-1.80029-2.19629a4.75309 4.75309 0 0 0 -2.61084.93652l-.57618-1.02636a6.49185 6.49185 0 0 1 3.439-1.13477c2.14258 0 3.043 1.42285 3.043 3.60156v5.36524h-1.22461l-.126-1.04395h-.05371a4.67231 4.67231 0 0 1 -2.89893 1.25977 2.3808 2.3808 0 0 1 -2.55668-2.48438zm5.36524.126v-2.43066c-2.917.36035-3.92481 1.08007-3.92481 2.19628 0 .99024.68409 1.4043 1.54834 1.4043a3.54734 3.54734 0 0 0 2.37647-1.16994z"/><path d="m490.00146 855.57812.28809-1.16992a2.58756 2.58756 0 0 0 .666.126c.99023 0 1.6206-.793 1.98095-1.87305l.19776-.64843-3.51123-8.76856h1.53076l1.78271 4.84375c.27.75586.57618 1.65625.84619 2.4668h.07178c.252-.792.5044-1.69239.73828-2.4668l1.56641-4.84375h1.44043l-3.29492 9.47168c-.61231 1.72852-1.5127 3.042-3.27686 3.042a2.89863 2.89863 0 0 1 -1.02635-.17972z"/><path d="m502.1333 851.11328c3.457-3.43945 5.40186-5.50976 5.40186-7.36426a2.035 2.035 0 0 0 -2.17871-2.251 3.3842 3.3842 0 0 0 -2.44874 1.38672l-.84619-.84668a4.50918 4.50918 0 0 1 3.47461-1.7461 3.19037 3.19037 0 0 1 3.43946 3.38477c0 2.16015-1.96289 4.30273-4.68164 7.14844.63037-.05469 1.33251-.1084 1.92675-.1084h3.33106v1.27832h-7.41846z"/><path d="m613.01611 840.18555h3.69089c2.4126 0 4.14111.86425 4.14111 3.31347a3.2253 3.2253 0 0 1 -2.66455 3.34864l3.00684 5.14941h-1.69238l-2.84473-4.9873h-2.14307v4.9873h-1.49414zm3.4751 5.59961c1.83643 0 2.86279-.75586 2.86279-2.28614 0-1.54882-1.02636-2.10742-2.86279-2.10742h-1.981v4.39356z"/><path d="m622.28564 847.63965c0-2.86231 1.92676-4.60938 3.9253-4.60938 2.23242 0 3.49316 1.60254 3.49316 4.10547a5.69907 5.69907 0 0 1 -.0542.84571h-5.90576a2.90175 2.90175 0 0 0 2.917 3.043 3.95529 3.95529 0 0 0 2.17871-.68359l.522.97168a5.20965 5.20965 0 0 1 -2.88086.90039c-2.34085-.00004-4.19535-1.71-4.19535-4.57328zm6.12207-.71973c0-1.76465-.79248-2.71875-2.16064-2.71875a2.70271 2.70271 0 0 0 -2.521 2.71875z"/><path d="m631.86182 850.23242v-11.05566h1.47607v11.16406c0 .46777.19824.64844.41455.64844a1.23464 1.23464 0 0 0 .32373-.03614l.19824 1.11622a1.99251 1.99251 0 0 1 -.84619.14355c-1.11622 0-1.5664-.70215-1.5664-1.98047z"/><path d="m635.80322 847.63965c0-2.86231 1.92676-4.60938 3.9253-4.60938 2.23242 0 3.49316 1.60254 3.49316 4.10547a5.70043 5.70043 0 0 1 -.0542.84571h-5.90576a2.90175 2.90175 0 0 0 2.917 3.043 3.95531 3.95531 0 0 0 2.17871-.68359l.522.97168a5.20959 5.20959 0 0 1 -2.88085.90039c-2.34087-.00004-4.19536-1.71-4.19536-4.57328zm6.12207-.71973c0-1.76465-.79248-2.71875-2.16064-2.71875a2.70271 2.70271 0 0 0 -2.521 2.71875z"/><path d="m644.58691 849.72852c0-1.90918 1.63868-2.86329 5.36573-3.27735 0-1.11621-.35987-2.19629-1.8003-2.19629a4.75316 4.75316 0 0 0 -2.61084.93653l-.57617-1.02637a6.49194 6.49194 0 0 1 3.439-1.13477c2.14258 0 3.043 1.42285 3.043 3.60157v5.36523h-1.22461l-.126-1.04395h-.05372a4.67231 4.67231 0 0 1 -2.89893 1.25977 2.38119 2.38119 0 0 1 -2.55716-2.48437zm5.36573.126v-2.43066c-2.91651.36035-3.9253 1.08008-3.9253 2.19629 0 .99023.68457 1.40429 1.54883 1.40429a3.54736 3.54736 0 0 0 2.37647-1.16995z"/><path d="m653.22656 851.00684.73828-.99024a3.93556 3.93556 0 0 0 2.5752 1.04395c1.15234 0 1.72851-.61231 1.72851-1.36817 0-.90039-1.04443-1.29687-1.999-1.65625-1.24219-.45019-2.61035-1.04492-2.61035-2.52148 0-1.4043 1.11621-2.48438 3.00684-2.48438a4.36937 4.36937 0 0 1 2.71875.99024l-.70215.93652a3.25035 3.25035 0 0 0 -1.999-.77441c-1.09814 0-1.602.59472-1.602 1.26074 0 .82812.9541 1.13379 1.94434 1.51269 1.26025.46778 2.665.99024 2.665 2.64649 0 1.42187-1.13428 2.61035-3.20508 2.61035a5.26594 5.26594 0 0 1 -3.25934-1.20605z"/><path d="m661.09277 847.63965c0-2.86231 1.92676-4.60938 3.9253-4.60938 2.23291 0 3.49316 1.60254 3.49316 4.10547a5.70043 5.70043 0 0 1 -.0542.84571h-5.90576a2.902 2.902 0 0 0 2.917 3.043 3.95529 3.95529 0 0 0 2.17871-.68359l.522.97168a5.20965 5.20965 0 0 1 -2.88086.90039c-2.34085-.00004-4.19535-1.71-4.19535-4.57328zm6.12207-.71973c0-1.76465-.79248-2.71875-2.16064-2.71875a2.70271 2.70271 0 0 0 -2.521 2.71875z"/><path d="m320.95361 788.09766c0-3.78125 2.07056-6.06739 5.04151-6.06739s5.05957 2.30469 5.05957 6.06739c0 3.7998-2.08863 6.17578-5.05957 6.17578s-5.04151-2.37598-5.04151-6.17578zm8.53467 0c0-2.93457-1.38647-4.75293-3.49316-4.75293s-3.49317 1.81836-3.49317 4.75293c0 2.95312 1.38648 4.86132 3.49317 4.86132s3.49316-1.9082 3.49316-4.86132z"/><path d="m333.44531 785.30664h1.22461l.126 1.585h.05395a2.99285 2.99285 0 0 1 2.48462-1.80078 2.17536 2.17536 0 0 1 .93653.17969l-.28809 1.29687a2.45438 2.45438 0 0 0 -.84644-.14453c-.738 0-1.62036.541-2.21459 2.01758v5.61719h-1.47657z"/><path d="m338.84521 795.73242a2.52573 2.52573 0 0 1 1.27833-1.98047v-.07226a1.61588 1.61588 0 0 1 -.77417-1.42285 2.04822 2.04822 0 0 1 .95434-1.62012v-.07227a3.08856 3.08856 0 0 1 2.16065-5.47363 3.49422 3.49422 0 0 1 1.24218.21582h3.043v1.13477h-1.80054a2.53865 2.53865 0 0 1 .72022 1.80078 3.0032 3.0032 0 0 1 -3.20483 3.043 3.055 3.055 0 0 1 -1.31446-.30664 1.32713 1.32713 0 0 0 -.5581 1.04492c0 .55761.35986.9541 1.54834.9541h1.69238c2.03467 0 3.061.62988 3.061 2.08789 0 1.62109-1.71044 3.02539-4.42919 3.02539-2.14283-.00003-3.61915-.84671-3.61915-2.35843zm6.60791-.45019c0-.81055-.63012-1.08008-1.76464-1.08008h-1.51221a4.24815 4.24815 0 0 1 -1.13452-.14453 1.844 1.844 0 0 0 -.90015 1.47656c0 .93652.9541 1.53027 2.53858 1.53027 1.67456 0 2.77294-.86425 2.77294-1.78222zm-1.13427-7.07618a1.86262 1.86262 0 1 0 -3.70923 0 1.86775 1.86775 0 1 0 3.70923 0z"/><path d="m347.75537 791.78906c0-1.90918 1.63843-2.86328 5.36572-3.27734 0-1.11621-.36035-2.19629-1.80078-2.19629a4.7523 4.7523 0 0 0 -2.61059.93652l-.57618-1.02636a6.49188 6.49188 0 0 1 3.439-1.13477c2.14258 0 3.043 1.42285 3.043 3.60156v5.36524h-1.22437l-.126-1.04395h-.0542a4.6706 4.6706 0 0 1 -2.89893 1.25977 2.38092 2.38092 0 0 1 -2.55667-2.48438zm5.36572.126v-2.43066c-2.917.36035-3.92529 1.08007-3.92529 2.19628 0 .99024.68408 1.4043 1.54834 1.4043a3.54834 3.54834 0 0 0 2.37695-1.16998z"/><path d="m357.36719 785.30664h1.22461l.126 1.26074h.054a4.12556 4.12556 0 0 1 2.93481-1.47656c1.83667 0 2.6648 1.18848 2.6648 3.4209v5.5459h-1.47641v-5.34762c0-1.63867-.50415-2.34082-1.65649-2.34082-.9004 0-1.51246.46875-2.39478 1.35059v6.33789h-1.47656z"/><path d="m366.4751 788.98047h4.14111v1.13379h-4.14111z"/><path d="m371.83887 793.06738.73828-.99023a3.9338 3.9338 0 0 0 2.57471 1.04394c1.15234 0 1.72851-.6123 1.72851-1.36816 0-.90039-1.04443-1.29688-1.99853-1.65625-1.24244-.4502-2.61084-1.04492-2.61084-2.52148 0-1.4043 1.11621-2.48438 3.00683-2.48438a4.36772 4.36772 0 0 1 2.71875.99023l-.70215.93653a3.24947 3.24947 0 0 0 -1.99853-.77442c-1.09839 0-1.60254.59473-1.60254 1.26075 0 .82812.95435 1.13379 1.94458 1.51269 1.2605.46778 2.66479.99024 2.66479 2.64649 0 1.42187-1.13427 2.61035-3.20483 2.61035a5.26467 5.26467 0 0 1 -3.25903-1.20606z"/><path d="m380.24512 791.35645v-4.84278h-1.29639v-1.11621l1.36841-.09082.17993-2.44824h1.24243v2.44824h2.35864v1.207h-2.35864v4.86136c0 1.08008.342 1.69238 1.35034 1.69238a3.16981 3.16981 0 0 0 .99048-.23437l.28809 1.11621a5.4 5.4 0 0 1 -1.62061.32422c-1.87256 0-2.50268-1.18844-2.50268-2.91699z"/><path d="m385.19482 797.64062.28809-1.16992a2.58551 2.58551 0 0 0 .666.126c.99047 0 1.6206-.793 1.98071-1.87305l.198-.64843-3.511-8.76856h1.53052l1.78247 4.84375c.27.75586.57617 1.65625.84619 2.4668h.072c.2522-.792.50415-1.69239.73828-2.4668l1.56641-4.84375h1.44051l-3.29492 9.47168c-.61231 1.72852-1.51245 3.042-3.27686 3.042a2.89759 2.89759 0 0 1 -1.0264-.17972z"/><path d="m394.48291 792.293v-11.0557h1.47656v11.16407c0 .46777.198.64843.41407.64843a1.23725 1.23725 0 0 0 .32421-.03613l.198 1.11621a1.99156 1.99156 0 0 1 -.84619.14356c-1.11645 0-1.56665-.70215-1.56665-1.98044z"/><path d="m398.4248 789.7002c0-2.86231 1.92652-4.60938 3.925-4.60938 2.23267 0 3.49292 1.60254 3.49292 4.10547a5.70356 5.70356 0 0 1 -.05395.8457h-5.90576a2.902 2.902 0 0 0 2.917 3.043 3.95329 3.95329 0 0 0 2.17847-.68359l.52221.97168a5.209 5.209 0 0 1 -2.88086.90039c-2.34053-.00003-4.19503-1.70999-4.19503-4.57327zm6.12159-.71973c0-1.76465-.792-2.71875-2.16065-2.71875a2.7025 2.7025 0 0 0 -2.52051 2.71875z"/><path d="m411.74463 782.24609h6.80615v1.26075h-5.31178v3.709h4.48316v1.27832h-4.48316v4.28516h5.49146v1.27832h-6.98584z"/><path d="m421.08643 785.30664h1.22412l.126 1.26074h.0542a4.1252 4.1252 0 0 1 2.93506-1.47656c1.83643 0 2.66455 1.18848 2.66455 3.4209v5.5459h-1.47656v-5.34762c0-1.63867-.50391-2.34082-1.65625-2.34082-.90039 0-1.5127.46875-2.395 1.35059v6.33789h-1.47607z"/><path d="m429.67188 785.30664h1.53076l1.65625 4.96973c.25244.86425.54052 1.74707.81054 2.57519h.07178c.25195-.82812.54-1.71094.79248-2.57519l1.65625-4.96973h1.4585l-3.09668 8.751h-1.72852z"/><path d="m438.61768 789.7002c0-2.86231 1.92675-4.60938 3.92529-4.60938 2.23242 0 3.49316 1.60254 3.49316 4.10547a5.69893 5.69893 0 0 1 -.0542.8457h-5.90576a2.90175 2.90175 0 0 0 2.917 3.043 3.95535 3.95535 0 0 0 2.17872-.68359l.522.97168a5.20965 5.20965 0 0 1 -2.88086.90039c-2.34086-.00003-4.19535-1.70999-4.19535-4.57327zm6.12207-.71973c0-1.76465-.79248-2.71875-2.16065-2.71875a2.70269 2.70269 0 0 0 -2.521 2.71875z"/><path d="m448.19434 792.293v-11.0557h1.47656v11.16407c0 .46777.19775.64843.41406.64843a1.23311 1.23311 0 0 0 .32373-.03613l.19824 1.11621a1.99233 1.99233 0 0 1 -.84619.14356c-1.11621 0-1.5664-.70215-1.5664-1.98044z"/><path d="m452.13525 789.7002c0-2.93458 1.9087-4.60938 4.05127-4.60938s4.05127 1.6748 4.05127 4.60938c0 2.89941-1.90869 4.57324-4.05127 4.57324s-4.05127-1.67383-4.05127-4.57324zm6.57227 0c0-2.01661-1.0083-3.38477-2.521-3.38477-1.49414 0-2.5205 1.36816-2.5205 3.38477 0 1.999 1.02636 3.3496 2.5205 3.3496 1.5127 0 2.521-1.35058 2.521-3.3496z"/><path d="m462.53955 785.30664h1.22412l.126 1.00879h.0542a4.53049 4.53049 0 0 1 2.791-1.22461c2.25049 0 3.457 1.74707 3.457 4.46582 0 2.9707-1.78271 4.7168-3.78125 4.7168a4.05787 4.05787 0 0 1 -2.43066-1.00782l.03564 1.53028v2.9531h-1.47607zm6.12158 4.25c0-1.92676-.648-3.22363-2.30468-3.22363a3.68593 3.68593 0 0 0 -2.34083 1.18847v4.5918a3.46517 3.46517 0 0 0 2.14307.918c1.44043-.00003 2.50244-1.31448 2.50244-3.47464z"/><path d="m471.88135 789.7002c0-2.86231 1.92676-4.60938 3.92529-4.60938 2.23242 0 3.49316 1.60254 3.49316 4.10547a5.70041 5.70041 0 0 1 -.05419.8457h-5.90577a2.90176 2.90176 0 0 0 2.917 3.043 3.95534 3.95534 0 0 0 2.17871-.68359l.522.97168a5.20963 5.20963 0 0 1 -2.88086.90039c-2.34085-.00003-4.19534-1.70999-4.19534-4.57327zm6.12207-.71973c0-1.76465-.79248-2.71875-2.16065-2.71875a2.70269 2.70269 0 0 0 -2.521 2.71875z"/></g><path d="m159.99902 341.99817h578.91553" fill="none" stroke="#979797"/><path d="m734.601 347.088-.682-.732 4.612-4.357-4.612-4.357.682-.733 5.398 5.09z" fill="#979797"/><path d="m179.99951 63.08429v298.9118" fill="none" stroke="#979797"/><path d="m174.91 67.398.732.682 4.357-4.612 4.357 4.612.732-.682-5.089-5.398z" fill="#979797"/><path d="m168.50007 142.0015 12-.00154" fill="none" stroke="#979797"/><path d="m159.99902 721.99805h578.91553" fill="none" stroke="#979797"/><path d="m734.601 727.088-.682-.733 4.612-4.356-4.612-4.357.682-.733 5.398 5.09z" fill="#979797"/><path d="m179.99951 443.08423v298.91174" fill="none" stroke="#979797"/><path d="m174.91 447.398.732.682 4.357-4.612 4.357 4.612.732-.682-5.089-5.398z" fill="#979797"/><path d="m168.50007 522.00138 12-.00154" fill="none" stroke="#979797"/><path d="m167.99932 642.00134 11.99999-.00154" fill="none" stroke="#979797"/><path d="m159.99902 1101.99792h578.91553" fill="none" stroke="#979797"/><path d="m734.601 1107.088-.682-.733 4.612-4.356-4.612-4.358.682-.732 5.398 5.09z" fill="#979797"/><path d="m179.99951 823.08411v298.91174" fill="none" stroke="#979797"/><path d="m174.91 827.398.732.682 4.357-4.612 4.357 4.612.732-.682-5.089-5.398z" fill="#979797"/><path d="m168.50007 902.00126 12-.00154" fill="none" stroke="#979797"/><path d="m220.00005 341.99814v-239.99998" fill="none" stroke="#666" stroke-dasharray="4 2"/><path d="m179.99931 141.99996h100.00073" fill="none" stroke="#666" stroke-dasharray="4 2"/><path d="m280.00004 341.99814v-239.99998" fill="none" stroke="#666" stroke-dasharray="4 2"/><path d="m380.00001 341.99814v-239.99998" fill="none" stroke="#666" stroke-dasharray="4 2"/><path d="m579.99995 341.99814v-239.99998" fill="none" stroke="#666" stroke-dasharray="4 2"/><path d="m699.99991 341.99814v-239.99998" fill="none" stroke="#666" stroke-dasharray="4 2"/><path d="m220.00005 721.99803v-239.99998" fill="none" stroke="#666" stroke-dasharray="4 2"/><path d="m179.99931 521.99984h40.00094" fill="none" stroke="#666" stroke-dasharray="4 2"/><path d="m179.99931 641.9998h100.00073" fill="none" stroke="#666" stroke-dasharray="4 2"/><path d="m280.00004 721.99803v-239.99998" fill="none" stroke="#666" stroke-dasharray="4 2"/><path d="m579.99995 721.99803v-239.99998" fill="none" stroke="#666" stroke-dasharray="4 2"/><path d="m699.99991 721.99803v-239.99998" fill="none" stroke="#666" stroke-dasharray="4 2"/><path d="m220.00005 1101.99791v-239.99998" fill="none" stroke="#666" stroke-dasharray="4 2"/><path d="m179.99931 901.99972h100.00073" fill="none" stroke="#666" stroke-dasharray="4 2"/><path d="m280.00004 1101.99791v-239.99998" fill="none" stroke="#666" stroke-dasharray="4 2"/><path d="m380.00001 1101.99791v-239.99998" fill="none" stroke="#666" stroke-dasharray="4 2"/><path d="m579.99995 1101.99791v-239.99998" fill="none" stroke="#666" stroke-dasharray="4 2"/><path d="m699.99991 1101.99791v-239.99998" fill="none" stroke="#666" stroke-dasharray="4 2"/><path d="m699.99991 341.99834h-119.99923c-108.33346-1.62072-167.50051-74.15554-200.00055-199.99834h-100.00013l-60.0007 199.99834" fill="none" stroke="#e9a460" stroke-width="1.4"/><path d="m699.99991 1101.99791c-68.00267-4.9952-104-99.9985-120-199.99665h-299.99991l-60 199.99665" fill="none" stroke="#e9a460" stroke-width="1.4"/><path d="m220.00005 721.998.0002-200 59.99975 120.00152c31.16669 39.00027 140 80.00331 300 79.99848h120" fill="none" stroke="#e9a460" stroke-width="1.4"/><circle cx="380.00024" cy="142" fill="#c46417" r="4.5"/><path d="m380 138a4 4 0 1 1 -4 4 4.00458 4.00458 0 0 1 4-4m0-1a5 5 0 1 0 5 5 5.00009 5.00009 0 0 0 -5-5z" fill="#fff"/><path d="m380 137a5 5 0 1 1 -5 5 4.99978 4.99978 0 0 1 5-5m0-1a6 6 0 1 0 6 6 6.00672 6.00672 0 0 0 -6-6z"/><circle cx="580.00049" cy="341.99805" fill="#c46417" r="4.5"/><path d="m580.00049 337.99829a4 4 0 1 1 -4 4 4.00458 4.00458 0 0 1 4-4m0-1a5 5 0 1 0 5 5 4.99986 4.99986 0 0 0 -5-5z" fill="#fff"/><path d="m580.00049 336.99829a5 5 0 1 1 -5 5 5.00017 5.00017 0 0 1 5-5m0-1a6 6 0 1 0 6 6 6.00671 6.00671 0 0 0 -6-6z"/><circle cx="280" cy="142" fill="#c46417" r="4.5"/><path d="m280 138a4 4 0 1 1 -4 4 4.00458 4.00458 0 0 1 4-4m0-1a5 5 0 1 0 5 5 5.00009 5.00009 0 0 0 -5-5z" fill="#fff"/><path d="m280 137a5 5 0 1 1 -5 5 5.00009 5.00009 0 0 1 5-5m0-1a6 6 0 1 0 6 6 6.00672 6.00672 0 0 0 -6-6z"/><path d="m280.00122 646.499a4.49881 4.49881 0 1 1 3.082-1.22168 4.45694 4.45694 0 0 1 -3.082 1.22168z" fill="#c46417"/><path d="m279.999 637.99951a4 4 0 1 1 -2.91259 6.7406 3.99994 3.99994 0 0 1 2.91259-6.7406m0-1a5.00006 5.00006 0 1 0 3.64307 1.57434 4.98281 4.98281 0 0 0 -3.64307-1.57434z" fill="#fff"/><path d="m279.999 636.99951a5 5 0 1 1 -3.4248 1.35791 4.98589 4.98589 0 0 1 3.4248-1.35791m0-1a5.99956 5.99956 0 1 0 4.37159 1.88916 5.97752 5.97752 0 0 0 -4.37159-1.88916z"/><circle cx="580.00049" cy="722.00293" fill="#c46417" r="4.5"/><path d="m580.00049 718.00281a4 4 0 1 1 -4 4 4.00458 4.00458 0 0 1 4-4m0-1a5 5 0 1 0 5 5 4.99986 4.99986 0 0 0 -5-5z" fill="#fff"/><path d="m580.00049 717.00281a5 5 0 1 1 -5 5 5.00017 5.00017 0 0 1 5-5m0-1a6 6 0 1 0 6 6 6.00671 6.00671 0 0 0 -6-6z"/><circle cx="220.00024" cy="521.99805" fill="#c46417" r="4.5"/><path d="m220.00049 517.99805a4 4 0 1 1 -4 4 4.00458 4.00458 0 0 1 4-4m0-1a5 5 0 1 0 5 5 4.99977 4.99977 0 0 0 -5-5z" fill="#fff"/><path d="m220.00049 516.99805a5 5 0 1 1 -5 5 5.00009 5.00009 0 0 1 5-5m0-1a6 6 0 1 0 6 6 6.00671 6.00671 0 0 0 -6-6z"/><circle cx="380" cy="902.00098" fill="#c46417" r="4.5"/><path d="m380 898.00122a4 4 0 1 1 -4 4 4.00458 4.00458 0 0 1 4-4m0-1a5 5 0 1 0 5 5 5.00017 5.00017 0 0 0 -5-5z" fill="#fff"/><path d="m380 897.00122a5 5 0 1 1 -5 5 5.00017 5.00017 0 0 1 5-5m0-1a6 6 0 1 0 6 6 6.00672 6.00672 0 0 0 -6-6z"/><circle cx="580.00049" cy="902.00098" fill="#c46417" r="4.5"/><path d="m580.00049 898.00122a4 4 0 1 1 -4 4 4.00458 4.00458 0 0 1 4-4m0-1a5 5 0 1 0 5 5 4.99986 4.99986 0 0 0 -5-5z" fill="#fff"/><path d="m580.00049 897.00122a5 5 0 1 1 -5 5 5.00017 5.00017 0 0 1 5-5m0-1a6 6 0 1 0 6 6 6.00671 6.00671 0 0 0 -6-6z"/><circle cx="280" cy="902.00098" fill="#c46417" r="4.5"/><path d="m280 898.00122a4 4 0 1 1 -4 4 4.00458 4.00458 0 0 1 4-4m0-1a5 5 0 1 0 5 5 5.00017 5.00017 0 0 0 -5-5z" fill="#fff"/><path d="m280 897.00122a5 5 0 1 1 -5 5 5.00017 5.00017 0 0 1 5-5m0-1a6 6 0 1 0 6 6 6.00672 6.00672 0 0 0 -6-6z"/></svg>