<svg xmlns="http://www.w3.org/2000/svg" viewBox="0 0 800 570"><title>envelope-c</title><rect x="0.5" y="0.5" width="799" height="569" rx="3.5" ry="3.5" fill="#141414"/><path d="M796,1a3.00336,3.00336,0,0,1,3,3V566a3.00336,3.00336,0,0,1-3,3H3.99976A3.00331,3.00331,0,0,1,1,566V4A3.00331,3.00331,0,0,1,3.99976,1H796m0-1H3.99976A3.99983,3.99983,0,0,0,0,4V566a3.99991,3.99991,0,0,0,3.99976,4H796a4.00012,4.00012,0,0,0,4-4V4a4,4,0,0,0-4-4Z" fill="#666"/><rect x="10" y="40" width="780" height="520"/><line x1="770" y1="40" x2="770" y2="560" fill="none" stroke="#202020"/><line x1="750" y1="40" x2="750" y2="560" fill="none" stroke="#202020"/><line x1="730" y1="40" x2="730" y2="560" fill="none" stroke="#202020"/><line x1="710" y1="40" x2="710" y2="560" fill="none" stroke="#202020"/><line x1="690" y1="40" x2="690" y2="560" fill="none" stroke="#202020"/><line x1="670" y1="40" x2="670" y2="560" fill="none" stroke="#202020"/><line x1="650" y1="40" x2="650" y2="560" fill="none" stroke="#202020"/><line x1="630" y1="40" x2="630" y2="560" fill="none" stroke="#202020"/><line x1="610" y1="40" x2="610" y2="560" fill="none" stroke="#202020"/><line x1="590" y1="40" x2="590" y2="560" fill="none" stroke="#202020"/><line x1="570" y1="40" x2="570" y2="560" fill="none" stroke="#202020"/><line x1="550" y1="40" x2="550" y2="560" fill="none" stroke="#202020"/><line x1="530" y1="40" x2="530" y2="560" fill="none" stroke="#202020"/><line x1="510" y1="40" x2="510" y2="560" fill="none" stroke="#202020"/><line x1="490" y1="40" x2="490" y2="560" fill="none" stroke="#202020"/><line x1="470" y1="40" x2="470" y2="560" fill="none" stroke="#202020"/><line x1="450" y1="40" x2="450" y2="560" fill="none" stroke="#202020"/><line x1="430" y1="40" x2="430" y2="560" fill="none" stroke="#202020"/><line x1="410" y1="40" x2="410" y2="560" fill="none" stroke="#202020"/><line x1="390" y1="40" x2="390" y2="560" fill="none" stroke="#202020"/><line x1="370" y1="40" x2="370" y2="560" fill="none" stroke="#202020"/><line x1="350" y1="40" x2="350" y2="560" fill="none" stroke="#202020"/><line x1="330" y1="40" x2="330" y2="560" fill="none" stroke="#202020"/><line x1="310" y1="40" x2="310" y2="560" fill="none" stroke="#202020"/><line x1="290" y1="40" x2="290" y2="560" fill="none" stroke="#202020"/><line x1="270" y1="40" x2="270" y2="560" fill="none" stroke="#202020"/><line x1="250" y1="40" x2="250" y2="560" fill="none" stroke="#202020"/><line x1="230" y1="40" x2="230" y2="560" fill="none" stroke="#202020"/><line x1="210" y1="40" x2="210" y2="560" fill="none" stroke="#202020"/><line x1="190" y1="40" x2="190" y2="560" fill="none" stroke="#202020"/><line x1="170" y1="40" x2="170" y2="560" fill="none" stroke="#202020"/><line x1="150" y1="40" x2="150" y2="560" fill="none" stroke="#202020"/><line x1="130" y1="40" x2="130" y2="560" fill="none" stroke="#202020"/><line x1="110" y1="40" x2="110" y2="560" fill="none" stroke="#202020"/><line x1="90" y1="40" x2="90" y2="560" fill="none" stroke="#202020"/><line x1="70" y1="40" x2="70" y2="560" fill="none" stroke="#202020"/><line x1="50" y1="40" x2="50" y2="560" fill="none" stroke="#202020"/><line x1="30" y1="40" x2="30" y2="560" fill="none" stroke="#202020"/><line x1="790" y1="520" x2="10" y2="520" fill="none" stroke="#202020"/><line x1="790" y1="540" x2="10" y2="540" fill="none" stroke="#202020"/><line x1="790" y1="500" x2="10" y2="500" fill="none" stroke="#202020"/><line x1="790" y1="480" x2="10" y2="480" fill="none" stroke="#202020"/><line x1="790" y1="460" x2="10" y2="460" fill="none" stroke="#202020"/><line x1="790" y1="440" x2="10" y2="440" fill="none" stroke="#202020"/><line x1="790" y1="420" x2="10" y2="420" fill="none" stroke="#202020"/><line x1="790" y1="400" x2="10" y2="400" fill="none" stroke="#202020"/><line x1="790" y1="380" x2="10" y2="380" fill="none" stroke="#202020"/><line x1="790" y1="360" x2="10" y2="360" fill="none" stroke="#202020"/><line x1="790" y1="340" x2="10" y2="340" fill="none" stroke="#202020"/><line x1="790" y1="320" x2="10" y2="320" fill="none" stroke="#202020"/><line x1="790" y1="300" x2="10" y2="300" fill="none" stroke="#202020"/><line x1="790" y1="280" x2="10" y2="280" fill="none" stroke="#202020"/><line x1="790" y1="260" x2="10" y2="260" fill="none" stroke="#202020"/><line x1="790" y1="240" x2="10" y2="240" fill="none" stroke="#202020"/><line x1="790" y1="220" x2="10" y2="220" fill="none" stroke="#202020"/><line x1="790" y1="180" x2="10" y2="180" fill="none" stroke="#202020"/><line x1="790" y1="160" x2="10" y2="160" fill="none" stroke="#202020"/><line x1="790" y1="140" x2="10" y2="140" fill="none" stroke="#202020"/><line x1="790" y1="120" x2="10" y2="120" fill="none" stroke="#202020"/><line x1="790" y1="100" x2="10" y2="100" fill="none" stroke="#202020"/><line x1="790" y1="80" x2="10" y2="80" fill="none" stroke="#202020"/><line x1="790" y1="60" x2="10" y2="60" fill="none" stroke="#202020"/><line x1="790" y1="200" x2="10" y2="200" fill="none" stroke="#202020"/><rect x="10" y="10" width="780" height="30" fill="#363636"/><path d="M349.75293,18.18945h6.80615v1.25977h-5.31152v3.709h4.4834v1.2793h-4.4834v4.28516h5.4917V30h-6.98633Z" fill="#cacaca"/><path d="M359.09473,21.25h1.22461l.126,1.25977h.05371a4.12609,4.12609,0,0,1,2.93506-1.47657c1.83643,0,2.66455,1.18946,2.66455,3.42188V30h-1.47607V24.65234c0-1.63867-.5044-2.33984-1.65674-2.33984-.90039,0-1.51221.46875-2.39453,1.34961V30h-1.47656Z" fill="#cacaca"/><path d="M367.68066,21.25h1.53028l1.65625,4.96875c.252.86523.54,1.748.81054,2.57617h.07178c.25244-.82812.54053-1.71094.79248-2.57617L374.19824,21.25h1.4585L372.55957,30h-1.72852Z" fill="#cacaca"/><path d="M376.62646,25.64258c0-2.86133,1.92676-4.60938,3.9253-4.60938,2.23242,0,3.49316,1.60352,3.49316,4.10547a5.68064,5.68064,0,0,1-.0542.84571H378.085a2.902,2.902,0,0,0,2.917,3.043,3.95529,3.95529,0,0,0,2.17871-.68359l.522.97266a5.20973,5.20973,0,0,1-2.88086.90039C378.48145,30.2168,376.62646,28.50586,376.62646,25.64258Zm6.12208-.71875c0-1.76563-.79249-2.71875-2.16065-2.71875a2.70271,2.70271,0,0,0-2.521,2.71875Z" fill="#cacaca"/><path d="M386.20264,28.23633V17.18164h1.47607V28.34375c0,.46875.19824.64844.41406.64844a1.26906,1.26906,0,0,0,.32422-.03516l.19824,1.11524a1.99013,1.99013,0,0,1-.84619.14453C386.65234,30.2168,386.20264,29.51367,386.20264,28.23633Z" fill="#cacaca"/><path d="M390.144,25.64258c0-2.9336,1.90869-4.60938,4.05127-4.60938s4.05127,1.67578,4.05127,4.60938c0,2.90039-1.90869,4.57422-4.05127,4.57422S390.144,28.543,390.144,25.64258Zm6.57178,0c0-2.01563-1.00781-3.38477-2.52051-3.38477-1.49414,0-2.52051,1.36914-2.52051,3.38477,0,2,1.02637,3.34961,2.52051,3.34961C395.708,28.99219,396.71582,27.64258,396.71582,25.64258Z" fill="#cacaca"/><path d="M400.54834,21.25h1.22412l.126,1.00781h.0542a4.53045,4.53045,0,0,1,2.79052-1.22461c2.251,0,3.457,1.748,3.457,4.4668,0,2.9707-1.78223,4.7168-3.78077,4.7168a4.06391,4.06391,0,0,1-2.43066-1.00782l.03564,1.5293v2.95313h-1.47607Zm6.12158,4.25c0-1.92773-.64795-3.22461-2.30469-3.22461a3.68309,3.68309,0,0,0-2.34082,1.18945v4.5918a3.464,3.464,0,0,0,2.14258.918C405.60742,28.97461,406.66992,27.66016,406.66992,25.5Z" fill="#cacaca"/><path d="M409.88965,25.64258c0-2.86133,1.92676-4.60938,3.92529-4.60938,2.23291,0,3.49317,1.60352,3.49317,4.10547a5.682,5.682,0,0,1-.0542.84571h-5.90577a2.902,2.902,0,0,0,2.917,3.043,3.95534,3.95534,0,0,0,2.17871-.68359l.522.97266a5.2084,5.2084,0,0,1-2.88086.90039C411.74414,30.2168,409.88965,28.50586,409.88965,25.64258Zm6.12207-.71875c0-1.76563-.79248-2.71875-2.16065-2.71875a2.70269,2.70269,0,0,0-2.521,2.71875Z" fill="#cacaca"/><path d="M422.52539,24.0957c0-3.80078,2.23291-6.123,5.23975-6.123a4.30453,4.30453,0,0,1,3.24072,1.459l-.81006.97266a3.22964,3.22964,0,0,0-2.4126-1.11719c-2.23242,0-3.709,1.83594-3.709,4.77148,0,2.97071,1.42236,4.84375,3.65527,4.84375a3.5631,3.5631,0,0,0,2.73633-1.332l.82813.93555a4.57038,4.57038,0,0,1-3.61866,1.71094C424.72217,30.2168,422.52539,27.94727,422.52539,24.0957Z" fill="#cacaca"/><path d="M123.40918,219.93066c0-3.42578,1.23242-5.2666,3.28125-5.2666,2.03271,0,3.26514,1.84082,3.26514,5.2666,0,3.42481-1.23243,5.33008-3.26514,5.33008C124.6416,225.26074,123.40918,223.35547,123.40918,219.93066Zm5.26562,0c0-2.99316-.80029-4.21-1.98437-4.21-1.20068,0-2.001,1.2168-2.001,4.21s.8003,4.27344,2.001,4.27344C127.87451,224.2041,128.6748,222.92383,128.6748,219.93066Z" fill="#b0b0b0"/><path d="M131.69678,224.26758a.95492.95492,0,1,1,1.90478,0,.95323.95323,0,1,1-1.90478,0Z" fill="#b0b0b0"/><path d="M135.34473,219.93066c0-3.42578,1.23242-5.2666,3.28125-5.2666,2.03271,0,3.26562,1.84082,3.26562,5.2666,0,3.42481-1.23291,5.33008-3.26562,5.33008C136.57715,225.26074,135.34473,223.35547,135.34473,219.93066Zm5.26611,0c0-2.99316-.80029-4.21-1.98486-4.21-1.2002,0-2.001,1.2168-2.001,4.21s.80078,4.27344,2.001,4.27344C139.81055,224.2041,140.61084,222.92383,140.61084,219.93066Z" fill="#b0b0b0"/><path d="M234.146,89.5l3.55322,10.5H236.2749l-.99267-3.20117H231.457L230.44873,100h-1.36084l3.55371-10.5Zm.80029,6.22656-.49609-1.59961c-.38379-1.16992-.72022-2.32226-1.05665-3.53906h-.06347c-.32031,1.2168-.65625,2.36914-1.041,3.53906l-.49609,1.59961Z" fill="#b0b0b0"/><path d="M239.05664,97.59961V93.293H237.9043v-.99219l1.21631-.08008.16015-2.17578h1.10449V92.2207h2.09668V93.293h-2.09668v4.32226c0,.96094.3042,1.50586,1.20069,1.50586a2.83672,2.83672,0,0,0,.87988-.209l.25635.99219a4.78893,4.78893,0,0,1-1.44092.28906C239.61719,100.19336,239.05664,99.13672,239.05664,97.59961Z" fill="#b0b0b0"/><path d="M244.14453,97.59961V93.293h-1.15234v-.99219l1.21679-.08008.16016-2.17578h1.10449V92.2207h2.09668V93.293h-2.09668v4.32226c0,.96094.30371,1.50586,1.2002,1.50586a2.83967,2.83967,0,0,0,.88037-.209l.25635.99219a4.795,4.795,0,0,1-1.44092.28906C244.70508,100.19336,244.14453,99.13672,244.14453,97.59961Z" fill="#b0b0b0"/><path d="M248.5127,97.98438c0-1.69727,1.45605-2.54493,4.76953-2.91407,0-.99219-.31983-1.95312-1.60059-1.95312a4.22879,4.22879,0,0,0-2.3208.832l-.51221-.91211a5.78424,5.78424,0,0,1,3.05713-1.00781c1.90479,0,2.70557,1.26367,2.70557,3.20117V100h-1.08887l-.1123-.92773h-.04786a4.15521,4.15521,0,0,1-2.57714,1.12109A2.11684,2.11684,0,0,1,248.5127,97.98438Zm4.76953.11132V95.93555c-2.59278.32031-3.48926.959-3.48926,1.95117,0,.88086.6084,1.25,1.37695,1.25A3.15477,3.15477,0,0,0,253.28223,98.0957Z" fill="#b0b0b0"/><path d="M256.48047,96.12695a3.76733,3.76733,0,0,1,3.7456-4.09765,3.22953,3.22953,0,0,1,2.27295.91211l-.67236.86523a2.28126,2.28126,0,0,0-1.55273-.68945c-1.4087,0-2.43311,1.21679-2.43311,3.00976,0,1.77735.97656,2.97657,2.40137,2.97657a2.76569,2.76569,0,0,0,1.82422-.78321l.57617.87891a3.7911,3.7911,0,0,1-2.5127.99414C258.06543,100.19336,256.48047,98.70312,256.48047,96.12695Z" fill="#b0b0b0"/><path d="M265.64941,88.60352v7.71484h.04786l3.31347-4.09766h1.45606l-2.60889,3.1211L270.81934,100h-1.44043l-2.27344-3.74414-1.45606,1.69531V100h-1.29687V88.60352Z" fill="#b0b0b0"/><path d="M127.74609,69.5v9.36328h4.59375V80h-5.92236V69.5Z" fill="#b0b0b0"/><path d="M133.29688,76.12695c0-2.54492,1.71289-4.09765,3.48974-4.09765,1.98486,0,3.105,1.42382,3.105,3.65039a5.07515,5.07515,0,0,1-.04785.752h-5.25a2.58007,2.58007,0,0,0,2.59277,2.70508,3.51,3.51,0,0,0,1.937-.60938l.46435.86524a4.63962,4.63962,0,0,1-2.56152.80078A3.72069,3.72069,0,0,1,133.29688,76.12695Zm3.52148-3.05664a2.40125,2.40125,0,0,0-2.24072,2.416h4.16162C138.73926,73.918,138.03516,73.07031,136.81836,73.07031Z" fill="#b0b0b0"/><path d="M142.12891,72.2207l1.47265,4.418c.22412.76953.48047,1.55274.72071,2.28906h.06347c.22461-.73632.48047-1.51953.70459-2.28906l1.47217-4.418h1.29688L145.10645,80h-1.53711l-2.80079-7.7793Z" fill="#b0b0b0"/><path d="M148.7207,76.12695c0-2.54492,1.71289-4.09765,3.48926-4.09765,1.98486,0,3.10547,1.42382,3.10547,3.65039a5.14268,5.14268,0,0,1-.04785.752h-5.25049a2.58046,2.58046,0,0,0,2.59326,2.70508,3.5072,3.5072,0,0,0,1.93653-.60938l.46435.86524a4.63662,4.63662,0,0,1-2.561.80078A3.72043,3.72043,0,0,1,148.7207,76.12695Zm3.52149-3.05664a2.40129,2.40129,0,0,0-2.24121,2.416h4.16211C154.16309,73.918,153.4585,73.07031,152.24219,73.07031Z" fill="#b0b0b0"/><path d="M157.23242,78.43164V68.60352h1.3125v9.92382c0,.416.17627.57618.36817.57618a1.12613,1.12613,0,0,0,.28808-.03125l.17627.99218a1.76433,1.76433,0,0,1-.75244.12891C157.63281,80.19336,157.23242,79.56836,157.23242,78.43164Z" fill="#b0b0b0"/><path d="M84.44043,132.50684c2.35352,0,3.9375.78418,3.9375,3.08886,0,2.209-1.56836,3.249-3.87305,3.249h-1.729v4.16211H81.44727v-10.5Zm2.60937,3.08886c0-1.5205-.92871-2.0166-2.76953-2.0166H82.77588v4.17774h1.56885C86.16943,137.75684,87.0498,137.084,87.0498,135.5957Z" fill="#b0b0b0"/><path d="M89.415,139.13281c0-2.54492,1.71289-4.09765,3.48926-4.09765,1.98535,0,3.10547,1.4248,3.10547,3.65039a5.0658,5.0658,0,0,1-.04786.75195h-5.25a2.58009,2.58009,0,0,0,2.59278,2.70508,3.517,3.517,0,0,0,1.937-.6084l.46435.86426a4.63187,4.63187,0,0,1-2.56152.80078A3.72016,3.72016,0,0,1,89.415,139.13281Zm3.52148-3.05664a2.40189,2.40189,0,0,0-2.24072,2.417h4.16162C94.85742,136.9248,94.15332,136.07617,92.93652,136.07617Z" fill="#b0b0b0"/><path d="M97.22314,140.99023c0-1.69726,1.45655-2.54492,4.77-2.91308,0-.99317-.32031-1.95313-1.60058-1.95313a4.23187,4.23187,0,0,0-2.32129.832l-.51172-.9121a5.77413,5.77413,0,0,1,3.05664-1.00879c1.90527,0,2.70557,1.26464,2.70557,3.20214v4.76954H102.2334l-.11231-.92872h-.04785a4.14987,4.14987,0,0,1-2.57715,1.1211A2.117,2.117,0,0,1,97.22314,140.99023Zm4.77.11231v-2.16113c-2.59277.32031-3.48925.96-3.48925,1.95214,0,.88086.60839,1.249,1.37646,1.249A3.15419,3.15419,0,0,0,101.99316,141.10254Z" fill="#b0b0b0"/><path d="M107.064,131.61035v7.71485h.04786l3.31347-4.09766h1.45655l-2.60938,3.12109,2.96143,4.65821h-1.44043l-2.27295-3.74512L107.064,140.958v2.04883h-1.29638V131.61035Z" fill="#b0b0b0"/><path d="M118.34375,132.50684v9.36328h4.59375v1.13672h-5.92188v-10.5Z" fill="#b0b0b0"/><path d="M123.895,139.13281c0-2.54492,1.7124-4.09765,3.48975-4.09765,1.98437,0,3.105,1.4248,3.105,3.65039a5.061,5.061,0,0,1-.04834.75195h-5.25a2.58046,2.58046,0,0,0,2.59326,2.70508,3.51827,3.51827,0,0,0,1.937-.6084l.46387.86426a4.63024,4.63024,0,0,1-2.561.80078A3.72017,3.72017,0,0,1,123.895,139.13281Zm3.52148-3.05664a2.40223,2.40223,0,0,0-2.24072,2.417h4.16113C129.33691,136.9248,128.63281,136.07617,127.4165,136.07617Z" fill="#b0b0b0"/><path d="M132.72705,135.22754l1.47217,4.418c.22461.76855.48047,1.55273.7207,2.28906h.064c.22412-.73633.48-1.52051.70459-2.28906l1.47216-4.418H138.457l-2.75293,7.7793h-1.53662l-2.80127-7.7793Z" fill="#b0b0b0"/><path d="M139.31836,139.13281c0-2.54492,1.71289-4.09765,3.48926-4.09765,1.98535,0,3.10547,1.4248,3.10547,3.65039a5.0658,5.0658,0,0,1-.04786.75195h-5.25a2.58009,2.58009,0,0,0,2.59278,2.70508,3.517,3.517,0,0,0,1.937-.6084l.46436.86426a4.63193,4.63193,0,0,1-2.56153.80078A3.72017,3.72017,0,0,1,139.31836,139.13281Zm3.52148-3.05664a2.40189,2.40189,0,0,0-2.24072,2.417h4.16162C144.76074,136.9248,144.05664,136.07617,142.83984,136.07617Z" fill="#b0b0b0"/><path d="M147.83057,141.43848v-9.82813h1.3125v9.92383c0,.416.17627.57617.36816.57617a1.09518,1.09518,0,0,0,.28809-.03223l.17627.99317a1.76829,1.76829,0,0,1-.75245.12793C148.23047,143.19922,147.83057,142.57422,147.83057,141.43848Z" fill="#b0b0b0"/><path d="M17.19385,172.50391c2.1289,0,3.60156.71875,3.60156,2.56054a2.297,2.297,0,0,1-1.53662,2.28907v.06445a2.41473,2.41473,0,0,1,2.14453,2.51172c0,2.06445-1.63232,3.07422-3.98535,3.07422H14.07275v-10.5Zm2.28906,2.73632c0-1.21679-.83252-1.67968-2.46533-1.67968H15.40137v3.4082H16.9541C18.74658,176.96875,19.48291,176.3125,19.48291,175.24023Zm.60791,4.64258c0-1.29687-1.02441-1.88867-2.86523-1.88867H15.40137v3.95313h1.82422C19.03467,181.94727,20.09082,181.291,20.09082,179.88281Z" fill="#b0b0b0"/><path d="M24.44092,175.22461l.11181,1.4082h.04834a2.6619,2.6619,0,0,1,2.209-1.60156,1.945,1.945,0,0,1,.83252.16016l-.25635,1.15234a2.22477,2.22477,0,0,0-.75244-.12695c-.65625,0-1.44043.48047-1.96875,1.793v4.99414h-1.3125v-7.7793Z" fill="#b0b0b0"/><path d="M28.168,179.12891c0-2.54493,1.71289-4.09766,3.48926-4.09766,1.98535,0,3.10547,1.42578,3.10547,3.65039a5.0566,5.0566,0,0,1-.04786.752h-5.25a2.58009,2.58009,0,0,0,2.59278,2.70508,3.524,3.524,0,0,0,1.937-.60742l.46435.86328a4.62407,4.62407,0,0,1-2.56152.80078A3.71963,3.71963,0,0,1,28.168,179.12891Zm3.52148-3.05664a2.40287,2.40287,0,0,0-2.24072,2.418h4.16162C33.61035,176.92188,32.90625,176.07227,31.68945,176.07227Z" fill="#b0b0b0"/><path d="M35.97607,180.98633c0-1.69727,1.45655-2.54492,4.77-2.91211,0-.99414-.32031-1.95313-1.60058-1.95313a4.23187,4.23187,0,0,0-2.32129.832l-.51172-.9121a5.76588,5.76588,0,0,1,3.05664-1.00977c1.90527,0,2.70557,1.26563,2.70557,3.20313v4.76953H40.98633l-.11231-.92969h-.04785a4.14455,4.14455,0,0,1-2.57715,1.12109A2.117,2.117,0,0,1,35.97607,180.98633Zm4.77.11328V178.9375c-2.59277.32031-3.48925.96094-3.48925,1.95312,0,.88086.60839,1.248,1.37646,1.248A3.15257,3.15257,0,0,0,40.74609,181.09961Z" fill="#b0b0b0"/><path d="M45.81689,171.60742v7.71485h.04786l3.31347-4.09766h1.45655l-2.60938,3.12109,2.96143,4.65821H49.54639l-2.273-3.7461-1.45655,1.69727v2.04883H44.52051V171.60742Z" fill="#b0b0b0"/><path d="M53.52832,175.22461l.1123.89648h.04786a4.03112,4.03112,0,0,1,2.48144-1.08984c2.001,0,3.07324,1.55273,3.07324,3.9707,0,2.64063-1.585,4.19336-3.36132,4.19336a3.60433,3.60433,0,0,1-2.16114-.89648l.03223,1.36133v2.625h-1.3125V175.22461Zm4.354,3.77734c0-1.71289-.57617-2.86523-2.04882-2.86523a3.27078,3.27078,0,0,0-2.08057,1.05664v4.082a3.08113,3.08113,0,0,0,1.9043.81641C56.938,182.0918,57.88232,180.92188,57.88232,179.002Z" fill="#b0b0b0"/><path d="M60.74414,179.12891c0-2.60743,1.69629-4.09766,3.60107-4.09766s3.60157,1.49023,3.60157,4.09766c0,2.57812-1.69678,4.0664-3.60157,4.0664S60.74414,181.707,60.74414,179.12891Zm5.8418,0c0-1.791-.896-3.00782-2.24073-3.00782-1.32861,0-2.24072,1.2168-2.24072,3.00782,0,1.77734.91211,2.97851,2.24072,2.97851C65.68994,182.10742,66.58594,180.90625,66.58594,179.12891Z" fill="#b0b0b0"/><path d="M69.75195,172.77539a.91482.91482,0,0,1,1.82471,0,.91482.91482,0,0,1-1.82471,0Zm1.55274,2.44922v7.7793h-1.3125v-7.7793Z" fill="#b0b0b0"/><path d="M75.01611,175.22461l.11182,1.11914h.04834a3.674,3.674,0,0,1,2.60889-1.3125c1.63281,0,2.36914,1.05664,2.36914,3.043v4.92969H78.8418V178.25c0-1.457-.44825-2.082-1.47266-2.082-.80029,0-1.34473.416-2.12891,1.20117v5.63477h-1.3125v-7.7793Z" fill="#b0b0b0"/><path d="M82.90381,180.60156v-4.30468H81.751v-.99219l1.21679-.08008.16016-2.17773h1.10449v2.17773H86.3291v1.07227H84.23242v4.32226c0,.959.30371,1.50391,1.2002,1.50391a2.78523,2.78523,0,0,0,.88086-.209l.25586.99414a4.84771,4.84771,0,0,1-1.44043.28711C83.46387,183.19531,82.90381,182.13867,82.90381,180.60156Z" fill="#b0b0b0"/><path d="M92.74414,172.50391v9.36328h4.59375v1.13672H91.416v-10.5Z" fill="#b0b0b0"/><path d="M98.29541,179.12891c0-2.54493,1.7124-4.09766,3.48975-4.09766,1.98437,0,3.105,1.42578,3.105,3.65039a5.05169,5.05169,0,0,1-.04834.752h-5.25a2.58046,2.58046,0,0,0,2.59326,2.70508,3.52525,3.52525,0,0,0,1.937-.60742l.46387.86328a4.62245,4.62245,0,0,1-2.561.80078A3.71963,3.71963,0,0,1,98.29541,179.12891Zm3.52148-3.05664a2.40321,2.40321,0,0,0-2.24072,2.418h4.16113C103.7373,176.92188,103.0332,176.07227,101.81689,176.07227Z" fill="#b0b0b0"/><path d="M107.12744,175.22461l1.47217,4.418c.22461.76758.48047,1.55273.7207,2.28906h.064c.22412-.73633.48-1.52148.70459-2.28906l1.47217-4.418h1.29638l-2.75293,7.7793h-1.53662l-2.80127-7.7793Z" fill="#b0b0b0"/><path d="M113.71875,179.12891c0-2.54493,1.71289-4.09766,3.48926-4.09766,1.98535,0,3.10547,1.42578,3.10547,3.65039a5.0566,5.0566,0,0,1-.04786.752h-5.25a2.58009,2.58009,0,0,0,2.59278,2.70508,3.524,3.524,0,0,0,1.937-.60742l.46436.86328a4.62413,4.62413,0,0,1-2.56153.80078A3.71963,3.71963,0,0,1,113.71875,179.12891Zm3.52148-3.05664a2.40288,2.40288,0,0,0-2.24072,2.418h4.16162C119.16113,176.92188,118.457,176.07227,117.24023,176.07227Z" fill="#b0b0b0"/><path d="M122.231,181.43555v-9.82813h1.3125v9.92383c0,.416.17627.57617.36816.57617a1.06451,1.06451,0,0,0,.28809-.0332l.17627.99414a1.77066,1.77066,0,0,1-.75244.12695C122.63086,183.19531,122.231,182.57031,122.231,181.43555Z" fill="#b0b0b0"/><path d="M128.71094,178.55273a13.31031,13.31031,0,0,1,2.1123-7.26562l.81641.38281a13.78781,13.78781,0,0,0,0,13.76563l-.81641.38476A13.31206,13.31206,0,0,1,128.71094,178.55273Z" fill="#b0b0b0"/><path d="M135.36768,178.52148l2.145-.80078v-.0625l-2.145-.80078-3.37745-1.248v-1.13672l6.8667,2.6875v1.05664l-6.8667,2.68945v-1.13672Z" fill="#b0b0b0"/><path d="M139.30273,177.86523c0-3.42578,1.23243-5.26562,3.28125-5.26562,2.03223,0,3.26514,1.83984,3.26514,5.26562s-1.23291,5.33008-3.26514,5.33008C140.53516,183.19531,139.30273,181.291,139.30273,177.86523Zm5.26563,0c0-2.99218-.79981-4.209-1.98438-4.209-1.20068,0-2.001,1.2168-2.001,4.209,0,2.99415.80029,4.27344,2.001,4.27344C143.76855,182.13867,144.56836,180.85938,144.56836,177.86523Z" fill="#b0b0b0"/><path d="M148.19922,178.55273a13.323,13.323,0,0,0-1.84082-6.88281l.8164-.38281a13.55514,13.55514,0,0,1,0,14.5332l-.8164-.38476A13.31289,13.31289,0,0,0,148.19922,178.55273Z" fill="#b0b0b0"/><path d="M29.99219,261.64258l.80029-.92774a4.116,4.116,0,0,0,2.897,1.3125c1.37647,0,2.19287-.68945,2.19287-1.71289,0-1.07226-.75244-1.4082-1.74462-1.85742l-1.50489-.65625a2.94985,2.94985,0,0,1-2.12842-2.70508c0-1.59961,1.39258-2.78515,3.29737-2.78515a4.36053,4.36053,0,0,1,3.105,1.29687l-.72022.86524a3.3434,3.3434,0,0,0-2.38476-.99219c-1.169,0-1.95313.5918-1.95313,1.53515,0,1.00977.9126,1.39258,1.74463,1.7461l1.48877.63867c1.21631.5293,2.16065,1.25,2.16065,2.80273,0,1.66407-1.36036,2.99219-3.56934,2.99219A5.08708,5.08708,0,0,1,29.99219,261.64258Z" fill="#b0b0b0"/><path d="M39.064,260.1543v-4.92969h1.32862v4.75391c0,1.457.43213,2.08007,1.45654,2.08007.80029,0,1.36084-.40039,2.09717-1.3125v-5.52148h1.3125v7.7793H44.17041l-.1123-1.2168h-.04786a3.2899,3.2899,0,0,1-2.561,1.4082C39.80029,263.19531,39.064,262.13867,39.064,260.1543Z" fill="#b0b0b0"/><path d="M47.01562,262.12305l.65626-.88086a3.4971,3.4971,0,0,0,2.28906.92969c1.02441,0,1.53662-.54493,1.53662-1.2168,0-.80078-.92822-1.15235-1.77686-1.47266-1.10449-.40039-2.3208-.92969-2.3208-2.24219,0-1.248.99219-2.209,2.67285-2.209a3.88131,3.88131,0,0,1,2.417.88086l-.624.832a2.88683,2.88683,0,0,0-1.77685-.6875c-.97657,0-1.42432.52734-1.42432,1.12109,0,.73633.84815,1.00782,1.72852,1.34375,1.1206.416,2.36914.88086,2.36914,2.35352,0,1.26367-1.00879,2.32031-2.84912,2.32031A4.68812,4.68812,0,0,1,47.01562,262.12305Z" fill="#b0b0b0"/><path d="M54.48828,260.60156v-4.30468H53.33594v-.99219l1.21631-.08008.16015-2.17773h1.10449v2.17773h2.09668v1.07227H55.81689v4.32226c0,.959.30372,1.50391,1.2002,1.50391a2.78234,2.78234,0,0,0,.88037-.209l.25635.99414a4.84781,4.84781,0,0,1-1.44092.28711C55.04834,263.19531,54.48828,262.13867,54.48828,260.60156Z" fill="#b0b0b0"/><path d="M58.856,260.98633c0-1.69727,1.45654-2.54492,4.77-2.91211,0-.99414-.32032-1.95313-1.60059-1.95313a4.2319,4.2319,0,0,0-2.32129.832l-.51221-.9121a5.7695,5.7695,0,0,1,3.05762-1.00977c1.9043,0,2.70508,1.26563,2.70508,3.20313v4.76953H63.86572l-.11181-.92969h-.04786a4.14568,4.14568,0,0,1-2.57714,1.12109A2.117,2.117,0,0,1,58.856,260.98633Zm4.77.11328V258.9375c-2.59327.32031-3.48975.96094-3.48975,1.95312,0,.88086.6084,1.248,1.377,1.248A3.15354,3.15354,0,0,0,63.626,261.09961Z" fill="#b0b0b0"/><path d="M67.16016,252.77539a.91482.91482,0,0,1,1.8247,0,.91482.91482,0,0,1-1.8247,0Zm1.55224,2.44922v7.7793H67.3999v-7.7793Z" fill="#b0b0b0"/><path d="M72.42432,255.22461l.11181,1.11914h.04834a3.674,3.674,0,0,1,2.60889-1.3125c1.63281,0,2.36914,1.05664,2.36914,3.043v4.92969H76.25V258.25c0-1.457-.44824-2.082-1.47266-2.082-.80029,0-1.34472.416-2.1289,1.20117v5.63477h-1.3125v-7.7793Z" fill="#b0b0b0"/><path d="M84.74414,252.50391v9.36328h4.59424v1.13672H83.416v-10.5Z" fill="#b0b0b0"/><path d="M90.29541,259.12891c0-2.54493,1.71289-4.09766,3.48975-4.09766,1.98437,0,3.105,1.42578,3.105,3.65039a5.12517,5.12517,0,0,1-.04785.75195H91.5918a2.58046,2.58046,0,0,0,2.59326,2.70508,3.524,3.524,0,0,0,1.937-.60742l.46387.86328a4.62115,4.62115,0,0,1-2.561.80078A3.71963,3.71963,0,0,1,90.29541,259.12891Zm3.52148-3.05664a2.40321,2.40321,0,0,0-2.24072,2.418h4.16162C95.73779,256.92188,95.0332,256.07227,93.81689,256.07227Z" fill="#b0b0b0"/><path d="M99.12744,255.22461l1.47266,4.418c.22412.76758.48,1.55273.72021,2.28906h.064c.22412-.73633.48047-1.52148.70459-2.28906l1.47217-4.418h1.29687l-2.75342,7.7793h-1.53662l-2.80078-7.7793Z" fill="#b0b0b0"/><path d="M105.71924,259.12891c0-2.54493,1.7124-4.09766,3.48926-4.09766,1.98486,0,3.10546,1.42578,3.10546,3.65039a5.05034,5.05034,0,0,1-.04834.75195h-5.25a2.58047,2.58047,0,0,0,2.59327,2.70508,3.52238,3.52238,0,0,0,1.93652-.60742l.46436.86328a4.62245,4.62245,0,0,1-2.561.80078A3.71937,3.71937,0,0,1,105.71924,259.12891Zm3.52148-3.05664a2.40326,2.40326,0,0,0-2.24121,2.418h4.16162C111.16113,256.92188,110.457,256.07227,109.24072,256.07227Z" fill="#b0b0b0"/><path d="M114.231,261.43555v-9.82813h1.3125v9.92383c0,.416.17627.57617.36816.57617a1.06451,1.06451,0,0,0,.28809-.0332l.17627.99414a1.77066,1.77066,0,0,1-.75244.127C114.63135,263.19531,114.231,262.57031,114.231,261.43555Z" fill="#b0b0b0"/><path d="M121.51074,258.55273a13.31056,13.31056,0,0,1,2.1128-7.26562l.8164.38281a13.78781,13.78781,0,0,0,0,13.76563l-.8164.38476A13.31232,13.31232,0,0,1,121.51074,258.55273Z" fill="#b0b0b0"/><path d="M127.19043,257.16016l6.8667-2.6875v1.13672l-3.37695,1.248-2.145.80078v.0625l2.145.80078,3.37695,1.248v1.13672l-6.8667-2.68945Z" fill="#b0b0b0"/><path d="M136.90234,257.86523c0-3.42578,1.23243-5.26562,3.28125-5.26562,2.03321,0,3.26563,1.83984,3.26563,5.26562s-1.23242,5.33008-3.26563,5.33008C138.13477,263.19531,136.90234,261.291,136.90234,257.86523Zm5.26612,0c0-2.99218-.8003-4.209-1.98487-4.209-1.20019,0-2.00048,1.2168-2.00048,4.209,0,2.99415.80029,4.27344,2.00048,4.27344C141.36816,262.13867,142.16846,260.85938,142.16846,257.86523Z" fill="#b0b0b0"/><path d="M148.19922,258.55273a13.323,13.323,0,0,0-1.84082-6.88281l.8164-.38281a13.55249,13.55249,0,0,1,0,14.5332l-.8164-.38476A13.31289,13.31289,0,0,0,148.19922,258.55273Z" fill="#b0b0b0"/><path d="M123.40918,439.93066c0-3.42578,1.23242-5.2666,3.28125-5.2666,2.03271,0,3.26514,1.84082,3.26514,5.2666,0,3.42481-1.23243,5.33008-3.26514,5.33008C124.6416,445.26074,123.40918,443.35547,123.40918,439.93066Zm5.26562,0c0-2.99316-.80029-4.21-1.98437-4.21-1.20068,0-2.001,1.2168-2.001,4.21s.8003,4.27344,2.001,4.27344C127.87451,444.2041,128.6748,442.92383,128.6748,439.93066Z" fill="#b0b0b0"/><path d="M131.69678,444.26758a.95492.95492,0,1,1,1.90478,0,.95323.95323,0,1,1-1.90478,0Z" fill="#b0b0b0"/><path d="M135.34473,439.93066c0-3.42578,1.23242-5.2666,3.28125-5.2666,2.03271,0,3.26562,1.84082,3.26562,5.2666,0,3.42481-1.23291,5.33008-3.26562,5.33008C136.57715,445.26074,135.34473,443.35547,135.34473,439.93066Zm5.26611,0c0-2.99316-.80029-4.21-1.98486-4.21-1.2002,0-2.001,1.2168-2.001,4.21s.80078,4.27344,2.001,4.27344C139.81055,444.2041,140.61084,442.92383,140.61084,439.93066Z" fill="#b0b0b0"/><path d="M84.44092,352.50586c2.353,0,3.9375.78418,3.9375,3.08887,0,2.209-1.56885,3.249-3.87354,3.249h-1.729v4.16211H81.44775v-10.5Zm2.60888,3.08887c0-1.52051-.92822-2.01661-2.769-2.01661H82.77588v4.17774h1.56885C86.16943,357.75586,87.0498,357.083,87.0498,355.59473Z" fill="#b0b0b0"/><path d="M89.41553,359.13184c0-2.54493,1.7124-4.09766,3.48926-4.09766,1.98486,0,3.10546,1.4248,3.10546,3.65039a5.0596,5.0596,0,0,1-.04834.75195h-5.25a2.58047,2.58047,0,0,0,2.59327,2.70508,3.51532,3.51532,0,0,0,1.93652-.6084l.46435.86426a4.6301,4.6301,0,0,1-2.561.80078A3.7199,3.7199,0,0,1,89.41553,359.13184ZM92.937,356.0752a2.40228,2.40228,0,0,0-2.24121,2.417h4.16162C94.85742,356.92383,94.15332,356.0752,92.937,356.0752Z" fill="#b0b0b0"/><path d="M97.22314,360.98926c0-1.69727,1.45655-2.54492,4.77-2.91309,0-.99316-.31982-1.95312-1.60058-1.95312a4.22876,4.22876,0,0,0-2.3208.832l-.51221-.91211a5.77593,5.77593,0,0,1,3.05713-1.00879c1.90478,0,2.70508,1.26465,2.70508,3.20215v4.76953H102.2334l-.11231-.92871h-.04785a4.14986,4.14986,0,0,1-2.57715,1.12109A2.117,2.117,0,0,1,97.22314,360.98926Zm4.77.1123v-2.16113c-2.59277.32031-3.48925.96-3.48925,1.95215,0,.88086.60839,1.249,1.37646,1.249A3.15415,3.15415,0,0,0,101.99316,361.10156Z" fill="#b0b0b0"/><path d="M107.064,351.60938v7.71484h.04786l3.31347-4.09766h1.45655l-2.60889,3.1211,2.96094,4.6582h-1.44043l-2.27295-3.74512L107.064,360.957v2.04883h-1.29638V351.60938Z" fill="#b0b0b0"/><path d="M118.34375,352.50586v9.36328H122.938v1.13672h-5.92237v-10.5Z" fill="#b0b0b0"/><path d="M123.895,359.13184c0-2.54493,1.71289-4.09766,3.48975-4.09766,1.98437,0,3.105,1.4248,3.105,3.65039a5.13309,5.13309,0,0,1-.04786.75195h-5.25048a2.58046,2.58046,0,0,0,2.59326,2.70508,3.51693,3.51693,0,0,0,1.937-.6084l.46387.86426a4.62886,4.62886,0,0,1-2.561.80078A3.72017,3.72017,0,0,1,123.895,359.13184Zm3.52148-3.05664a2.40223,2.40223,0,0,0-2.24072,2.417h4.16162C129.3374,356.92383,128.63281,356.0752,127.4165,356.0752Z" fill="#b0b0b0"/><path d="M132.72705,355.22656l1.47266,4.418c.22412.76856.48,1.55274.72021,2.28906h.064c.22412-.73632.48047-1.5205.70459-2.28906l1.47216-4.418h1.29688l-2.75342,7.7793h-1.53662l-2.80078-7.7793Z" fill="#b0b0b0"/><path d="M139.31885,359.13184c0-2.54493,1.7124-4.09766,3.48926-4.09766,1.98486,0,3.10546,1.4248,3.10546,3.65039a5.0596,5.0596,0,0,1-.04834.75195h-5.25a2.58047,2.58047,0,0,0,2.59327,2.70508,3.51532,3.51532,0,0,0,1.93652-.6084l.46436.86426a4.63016,4.63016,0,0,1-2.561.80078A3.7199,3.7199,0,0,1,139.31885,359.13184Zm3.52148-3.05664a2.40228,2.40228,0,0,0-2.24121,2.417h4.16162C144.76074,356.92383,144.05664,356.0752,142.84033,356.0752Z" fill="#b0b0b0"/><path d="M147.83057,361.4375v-9.82812h1.3125v9.92382c0,.416.17627.57618.36816.57618a1.09518,1.09518,0,0,0,.28809-.03223l.17627.99316a1.76829,1.76829,0,0,1-.75245.12793C148.231,363.19824,147.83057,362.57324,147.83057,361.4375Z" fill="#b0b0b0"/><path d="M17.19385,472.50391c2.1289,0,3.60156.71875,3.60156,2.56054a2.29644,2.29644,0,0,1-1.53662,2.28907v.06445a2.41513,2.41513,0,0,1,2.145,2.51172c0,2.06445-1.63281,3.07422-3.98584,3.07422H14.07275v-10.5Zm2.28906,2.73632c0-1.21679-.832-1.67968-2.46484-1.67968h-1.6167v3.4082H16.9541C18.74658,476.96875,19.48291,476.3125,19.48291,475.24023Zm.6084,4.64258c0-1.29687-1.02442-1.88867-2.86524-1.88867h-1.8247v3.95313h1.8247C19.03467,481.94727,20.09131,481.291,20.09131,479.88281Z" fill="#b0b0b0"/><path d="M24.44092,475.22461l.1123,1.4082h.04785a2.6619,2.6619,0,0,1,2.209-1.60156,1.945,1.945,0,0,1,.83252.16016l-.25635,1.15234a2.22263,2.22263,0,0,0-.75244-.127c-.65625,0-1.44043.48047-1.96875,1.793v4.99414h-1.3125v-7.7793Z" fill="#b0b0b0"/><path d="M28.16846,479.12891c0-2.54493,1.7124-4.09766,3.48925-4.09766,1.98487,0,3.10547,1.42578,3.10547,3.65039a5.05034,5.05034,0,0,1-.04834.75195h-5.25a2.58047,2.58047,0,0,0,2.59327,2.70508,3.52238,3.52238,0,0,0,1.93652-.60742l.46435.86328a4.62238,4.62238,0,0,1-2.561.80078A3.71936,3.71936,0,0,1,28.16846,479.12891Zm3.52148-3.05664a2.40325,2.40325,0,0,0-2.24121,2.418h4.16162C33.61035,476.92188,32.90625,476.07227,31.68994,476.07227Z" fill="#b0b0b0"/><path d="M35.97607,480.98633c0-1.69727,1.45655-2.54492,4.77-2.91211,0-.99414-.31982-1.95313-1.60058-1.95313a4.22884,4.22884,0,0,0-2.3208.832l-.51221-.9121a5.76764,5.76764,0,0,1,3.05713-1.00977c1.90478,0,2.70508,1.26563,2.70508,3.20313v4.76953H40.98633l-.11231-.92969h-.04785a4.14455,4.14455,0,0,1-2.57715,1.12109A2.117,2.117,0,0,1,35.97607,480.98633Zm4.77.11328V478.9375c-2.59277.32031-3.48925.96094-3.48925,1.95312,0,.88086.60839,1.248,1.37646,1.248A3.15257,3.15257,0,0,0,40.74609,481.09961Z" fill="#b0b0b0"/><path d="M45.81689,471.60742v7.71485h.04786l3.31347-4.09766h1.45655l-2.60889,3.12109,2.96094,4.65821H49.54639l-2.273-3.7461-1.45655,1.69727v2.04883H44.52051V471.60742Z" fill="#b0b0b0"/><path d="M53.52881,475.22461l.11181.89648H53.689a4.02871,4.02871,0,0,1,2.481-1.08984c2.001,0,3.07324,1.55273,3.07324,3.9707,0,2.64063-1.58447,4.19336-3.36132,4.19336a3.60549,3.60549,0,0,1-2.16114-.89648l.03223,1.36133v2.625h-1.3125V475.22461Zm4.35351,3.77734c0-1.71289-.57617-2.86523-2.04882-2.86523a3.27078,3.27078,0,0,0-2.08057,1.05664v4.082a3.08117,3.08117,0,0,0,1.90478.81641C56.938,482.0918,57.88232,480.92188,57.88232,479.002Z" fill="#b0b0b0"/><path d="M60.74414,479.12891c0-2.60743,1.69678-4.09766,3.60107-4.09766,1.90479,0,3.60157,1.49023,3.60157,4.09766,0,2.57812-1.69678,4.0664-3.60157,4.0664C62.44092,483.19531,60.74414,481.707,60.74414,479.12891Zm5.84229,0c0-1.791-.89649-3.00782-2.24122-3.00782-1.32812,0-2.24072,1.2168-2.24072,3.00782,0,1.77734.9126,2.97851,2.24072,2.97851C65.68994,482.10742,66.58643,480.90625,66.58643,479.12891Z" fill="#b0b0b0"/><path d="M69.75195,472.77539a.91482.91482,0,0,1,1.82471,0,.91482.91482,0,0,1-1.82471,0Zm1.55274,2.44922v7.7793h-1.3125v-7.7793Z" fill="#b0b0b0"/><path d="M75.01611,475.22461l.11231,1.11914h.04785a3.67414,3.67414,0,0,1,2.60937-1.3125c1.63233,0,2.36866,1.05664,2.36866,3.043v4.92969H78.8418V478.25c0-1.457-.44825-2.082-1.47266-2.082-.80029,0-1.34424.416-2.12891,1.20117v5.63477h-1.3125v-7.7793Z" fill="#b0b0b0"/><path d="M82.90381,480.60156v-4.30468H81.75146v-.99219l1.21631-.08008.16016-2.17773h1.10449v2.17773H86.3291v1.07227H84.23242v4.32226c0,.959.3042,1.50391,1.20069,1.50391a2.78547,2.78547,0,0,0,.88037-.209l.25586.99414a4.84771,4.84771,0,0,1-1.44043.28711C83.46436,483.19531,82.90381,482.13867,82.90381,480.60156Z" fill="#b0b0b0"/><path d="M92.74414,472.50391v9.36328h4.59424v1.13672H91.416v-10.5Z" fill="#b0b0b0"/><path d="M98.29541,479.12891c0-2.54493,1.71289-4.09766,3.48975-4.09766,1.98437,0,3.105,1.42578,3.105,3.65039a5.12517,5.12517,0,0,1-.04785.75195H99.5918a2.58046,2.58046,0,0,0,2.59326,2.70508,3.524,3.524,0,0,0,1.937-.60742l.46387.86328a4.62115,4.62115,0,0,1-2.561.80078A3.71963,3.71963,0,0,1,98.29541,479.12891Zm3.52148-3.05664a2.40321,2.40321,0,0,0-2.24072,2.418h4.16162C103.73779,476.92188,103.0332,476.07227,101.81689,476.07227Z" fill="#b0b0b0"/><path d="M107.12744,475.22461l1.47266,4.418c.22412.76758.48,1.55273.72021,2.28906h.064c.22412-.73633.48047-1.52148.70459-2.28906l1.47217-4.418h1.29687l-2.75342,7.7793h-1.53662l-2.80078-7.7793Z" fill="#b0b0b0"/><path d="M113.71924,479.12891c0-2.54493,1.7124-4.09766,3.48926-4.09766,1.98486,0,3.10546,1.42578,3.10546,3.65039a5.05034,5.05034,0,0,1-.04834.75195h-5.25a2.58047,2.58047,0,0,0,2.59327,2.70508,3.52238,3.52238,0,0,0,1.93652-.60742l.46436.86328a4.62245,4.62245,0,0,1-2.561.80078A3.71937,3.71937,0,0,1,113.71924,479.12891Zm3.52148-3.05664a2.40326,2.40326,0,0,0-2.24121,2.418h4.16162C119.16113,476.92188,118.457,476.07227,117.24072,476.07227Z" fill="#b0b0b0"/><path d="M122.231,481.43555v-9.82813h1.3125v9.92383c0,.416.17627.57617.36816.57617a1.06451,1.06451,0,0,0,.28809-.0332l.17627.99414a1.77066,1.77066,0,0,1-.75244.127C122.63135,483.19531,122.231,482.57031,122.231,481.43555Z" fill="#b0b0b0"/><path d="M128.71094,478.55273a13.30654,13.30654,0,0,1,2.11279-7.26562l.81641.38281a13.78781,13.78781,0,0,0,0,13.76563l-.81641.38476A13.3083,13.3083,0,0,1,128.71094,478.55273Z" fill="#b0b0b0"/><path d="M131.99023,477.16016l6.8667-2.6875v1.13672l-3.37695,1.248-2.145.80078v.0625l2.145.80078,3.37695,1.248v1.13672l-6.8667-2.68945Z" fill="#b0b0b0"/><path d="M139.30273,477.86523c0-3.42578,1.23243-5.26562,3.28125-5.26562,2.03272,0,3.26514,1.83984,3.26514,5.26562s-1.23242,5.33008-3.26514,5.33008C140.53516,483.19531,139.30273,481.291,139.30273,477.86523Zm5.26612,0c0-2.99218-.8003-4.209-1.98487-4.209-1.20068,0-2.001,1.2168-2.001,4.209,0,2.99415.80029,4.27344,2.001,4.27344C143.76855,482.13867,144.56885,480.85938,144.56885,477.86523Z" fill="#b0b0b0"/><path d="M148.19922,478.55273a13.323,13.323,0,0,0-1.84082-6.88281l.8164-.38281a13.55249,13.55249,0,0,1,0,14.5332l-.8164-.38476A13.31289,13.31289,0,0,0,148.19922,478.55273Z" fill="#b0b0b0"/><path d="M29.99219,401.64258l.7998-.92774a4.11712,4.11712,0,0,0,2.89746,1.3125c1.37647,0,2.19287-.68945,2.19287-1.71289,0-1.07226-.75244-1.4082-1.74462-1.85742l-1.50489-.65625a2.95027,2.95027,0,0,1-2.1289-2.70508c0-1.59961,1.39257-2.78515,3.29785-2.78515a4.36053,4.36053,0,0,1,3.105,1.29687l-.72022.86524a3.34426,3.34426,0,0,0-2.38476-.99219c-1.169,0-1.95313.5918-1.95313,1.53515,0,1.00977.91211,1.39258,1.74463,1.7461l1.48877.63867c1.21631.5293,2.16065,1.25,2.16065,2.80273,0,1.66407-1.36036,2.99219-3.56934,2.99219A5.08708,5.08708,0,0,1,29.99219,401.64258Z" fill="#b0b0b0"/><path d="M39.064,400.1543v-4.92969h1.32862v4.75391c0,1.457.43213,2.08007,1.45654,2.08007.80029,0,1.36084-.40039,2.09717-1.3125v-5.52148h1.3125v7.7793H44.16992l-.11181-1.2168h-.04834a3.28829,3.28829,0,0,1-2.56055,1.4082C39.80029,403.19531,39.064,402.13867,39.064,400.1543Z" fill="#b0b0b0"/><path d="M47.01562,402.12305l.65626-.88086a3.4951,3.4951,0,0,0,2.28906.92969c1.02441,0,1.53613-.54493,1.53613-1.2168,0-.80078-.92773-1.15235-1.77637-1.47266-1.10449-.40039-2.32129-.92969-2.32129-2.24219,0-1.248.99268-2.209,2.67334-2.209a3.88241,3.88241,0,0,1,2.417.88086l-.62452.832a2.88436,2.88436,0,0,0-1.77636-.6875c-.97657,0-1.42481.52734-1.42481,1.12109,0,.73633.84864,1.00782,1.72852,1.34375,1.12109.416,2.36914.88086,2.36914,2.35352,0,1.26367-1.0083,2.32031-2.84863,2.32031A4.68812,4.68812,0,0,1,47.01562,402.12305Z" fill="#b0b0b0"/><path d="M54.48828,400.60156v-4.30468H53.33594v-.99219l1.21582-.08008.16015-2.17773h1.1045v2.17773h2.09668v1.07227H55.81641v4.32226c0,.959.3042,1.50391,1.20068,1.50391a2.78234,2.78234,0,0,0,.88037-.209l.25586.99414a4.84152,4.84152,0,0,1-1.44043.28711C55.04834,403.19531,54.48828,402.13867,54.48828,400.60156Z" fill="#b0b0b0"/><path d="M58.85547,400.98633c0-1.69727,1.457-2.54492,4.77051-2.91211,0-.99414-.32032-1.95313-1.60059-1.95313a4.2319,4.2319,0,0,0-2.32129.832l-.51221-.9121a5.7692,5.7692,0,0,1,3.05713-1.00977c1.90479,0,2.70508,1.26563,2.70508,3.20313v4.76953H63.86572l-.11181-.92969h-.04786a4.14568,4.14568,0,0,1-2.57714,1.12109A2.11712,2.11712,0,0,1,58.85547,400.98633Zm4.77051.11328V398.9375c-2.59327.32031-3.48975.96094-3.48975,1.95312,0,.88086.6084,1.248,1.37647,1.248A3.15456,3.15456,0,0,0,63.626,401.09961Z" fill="#b0b0b0"/><path d="M67.16016,392.77539a.91456.91456,0,0,1,1.82422,0,.91456.91456,0,0,1-1.82422,0Zm1.55224,2.44922v7.7793H67.3999v-7.7793Z" fill="#b0b0b0"/><path d="M72.42383,395.22461l.1123,1.11914H72.584a3.67505,3.67505,0,0,1,2.60938-1.3125c1.63281,0,2.36914,1.05664,2.36914,3.043v4.92969H76.25V398.25c0-1.457-.44824-2.082-1.47266-2.082-.80078,0-1.34472.416-2.1289,1.20117v5.63477h-1.3125v-7.7793Z" fill="#b0b0b0"/><path d="M84.74414,392.50391v9.36328h4.59375v1.13672H83.416v-10.5Z" fill="#b0b0b0"/><path d="M90.29541,399.12891c0-2.54493,1.7124-4.09766,3.48975-4.09766,1.98437,0,3.105,1.42578,3.105,3.65039a5.05169,5.05169,0,0,1-.04834.75195h-5.25a2.58046,2.58046,0,0,0,2.59326,2.70508,3.52525,3.52525,0,0,0,1.937-.60742l.46387.86328a4.62245,4.62245,0,0,1-2.561.80078A3.71963,3.71963,0,0,1,90.29541,399.12891Zm3.52148-3.05664a2.40321,2.40321,0,0,0-2.24072,2.418H95.7373C95.7373,396.92188,95.0332,396.07227,93.81689,396.07227Z" fill="#b0b0b0"/><path d="M99.12744,395.22461l1.47217,4.418c.22461.76758.48047,1.55273.7207,2.28906h.064c.22412-.73633.48-1.52148.70459-2.28906l1.47217-4.418h1.29638l-2.75293,7.7793h-1.53662l-2.80127-7.7793Z" fill="#b0b0b0"/><path d="M105.71875,399.12891c0-2.54493,1.71289-4.09766,3.48926-4.09766,1.98535,0,3.10547,1.42578,3.10547,3.65039a5.0566,5.0566,0,0,1-.04786.75195h-5.25a2.58009,2.58009,0,0,0,2.59278,2.70508,3.524,3.524,0,0,0,1.937-.60742l.46436.86328a4.62413,4.62413,0,0,1-2.56153.80078A3.71963,3.71963,0,0,1,105.71875,399.12891Zm3.52148-3.05664a2.40288,2.40288,0,0,0-2.24072,2.418h4.16162C111.16113,396.92188,110.457,396.07227,109.24023,396.07227Z" fill="#b0b0b0"/><path d="M114.231,401.43555v-9.82813h1.3125v9.92383c0,.416.17627.57617.36816.57617a1.06451,1.06451,0,0,0,.28809-.0332l.17627.99414a1.77066,1.77066,0,0,1-.75244.127C114.63086,403.19531,114.231,402.57031,114.231,401.43555Z" fill="#b0b0b0"/><path d="M121.51074,398.55273a13.30647,13.30647,0,0,1,2.1128-7.26562l.8164.38281a13.78781,13.78781,0,0,0,0,13.76563l-.8164.38476A13.30822,13.30822,0,0,1,121.51074,398.55273Z" fill="#b0b0b0"/><path d="M130.56787,398.52148l2.145-.80078v-.0625l-2.145-.80078-3.37744-1.248v-1.13672l6.8667,2.6875v1.05664l-6.8667,2.68945v-1.13672Z" fill="#b0b0b0"/><path d="M136.90234,397.86523c0-3.42578,1.23243-5.26562,3.28125-5.26562,2.03321,0,3.26563,1.83984,3.26563,5.26562s-1.23242,5.33008-3.26563,5.33008C138.13477,403.19531,136.90234,401.291,136.90234,397.86523Zm5.26612,0c0-2.99218-.8003-4.209-1.98487-4.209-1.20019,0-2.001,1.2168-2.001,4.209,0,2.99415.80078,4.27344,2.001,4.27344C141.36816,402.13867,142.16846,400.85938,142.16846,397.86523Z" fill="#b0b0b0"/><path d="M148.19922,398.55273a13.323,13.323,0,0,0-1.84082-6.88281l.8164-.38281a13.55514,13.55514,0,0,1,0,14.5332l-.8164-.38476A13.31289,13.31289,0,0,0,148.19922,398.55273Z" fill="#b0b0b0"/><path d="M726.12891,237.59961V233.293h-1.15284v-.99219l1.21631-.08008.16016-2.17578H727.457v2.17578h2.09668V233.293H727.457v4.32226c0,.96094.3042,1.50586,1.20068,1.50586a2.8364,2.8364,0,0,0,.88038-.209l.25586.99219a4.78286,4.78286,0,0,1-1.44043.28906C726.689,240.19336,726.12891,239.13672,726.12891,237.59961Z" fill="#b0b0b0"/><path d="M726.12891,457.59961V453.293h-1.15284v-.99219l1.21631-.08008.16016-2.17578H727.457v2.17578h2.09668V453.293H727.457v4.32226c0,.96094.3042,1.50586,1.20068,1.50586a2.8364,2.8364,0,0,0,.88038-.209l.25586.99219a4.78286,4.78286,0,0,1-1.44043.28906C726.689,460.19336,726.12891,459.13672,726.12891,457.59961Z" fill="#b0b0b0"/><path d="M185.59375,519.5l3.793,6.5957,1.13672,2.17578h.064c-.064-1.05664-.15967-2.24023-.15967-3.3457V519.5h1.26416V530h-1.37646l-3.80957-6.60938-1.13672-2.1621h-.06348c.08008,1.05664.17579,2.17773.17579,3.28125V530H184.2168V519.5Z" fill="#b0b0b0"/><path d="M193.86426,526.127c0-2.60937,1.69678-4.09765,3.60156-4.09765s3.60156,1.48828,3.60156,4.09765c0,2.57617-1.69677,4.06641-3.60156,4.06641S193.86426,528.70312,193.86426,526.127Zm5.84277,0c0-1.793-.89648-3.00976-2.24121-3.00976-1.32812,0-2.24072,1.21679-2.24072,3.00976,0,1.77735.9126,2.97657,2.24072,2.97657C198.81055,529.10352,199.707,527.9043,199.707,526.127Z" fill="#b0b0b0"/><path d="M203.06445,527.59961V523.293h-1.15234v-.99219l1.2168-.08008.16015-2.17578h1.10449v2.17578h2.09668V523.293h-2.09668v4.32226c0,.96094.30372,1.50586,1.2002,1.50586a2.83967,2.83967,0,0,0,.88037-.209l.25635.99219a4.795,4.795,0,0,1-1.44092.28906C203.625,530.19336,203.06445,529.13672,203.06445,527.59961Z" fill="#b0b0b0"/><path d="M207.44824,526.127c0-2.54492,1.71289-4.09765,3.48975-4.09765,1.98486,0,3.105,1.42382,3.105,3.65039a5.07651,5.07651,0,0,1-.04785.75195h-5.25a2.58007,2.58007,0,0,0,2.59277,2.70508,3.51,3.51,0,0,0,1.937-.60938l.46436.86524a4.63963,4.63963,0,0,1-2.56153.80078A3.7207,3.7207,0,0,1,207.44824,526.127Zm3.52149-3.05664a2.40126,2.40126,0,0,0-2.24073,2.416h4.16162C212.89062,523.918,212.18652,523.07031,210.96973,523.07031Z" fill="#b0b0b0"/><path d="M218.68018,524.70312c0-3.36132,1.84082-5.39453,4.48193-5.39453s4.498,2.04883,4.498,5.39453c0,3.377-1.85694,5.49024-4.498,5.49024S218.68018,528.08008,218.68018,524.70312Zm7.5874,0c0-2.60937-1.23242-4.22656-3.10547-4.22656s-3.10547,1.61719-3.10547,4.22656c0,2.625,1.23242,4.32032,3.10547,4.32032S226.26758,527.32812,226.26758,524.70312Z" fill="#b0b0b0"/><path d="M230.87256,522.2207l.11182,1.1211h.04833a3.66671,3.66671,0,0,1,2.60889-1.3125c1.63281,0,2.36914,1.05664,2.36914,3.041V530h-1.3125v-4.75391c0-1.457-.44824-2.08007-1.47265-2.08007-.8003,0-1.34473.416-2.12891,1.19921V530h-1.3125v-7.7793Z" fill="#b0b0b0"/><path d="M545.35352,519.5l3.79345,6.5957,1.13623,2.17578h.06446c-.06446-1.05664-.16016-2.24023-.16016-3.3457V519.5h1.26465V530H550.0752l-3.80958-6.60938-1.13623-2.1621h-.064c.08008,1.05664.17578,2.17773.17578,3.28125V530h-1.26416V519.5Z" fill="#b0b0b0"/><path d="M553.62451,526.127c0-2.60937,1.69678-4.09765,3.60108-4.09765,1.90527,0,3.60156,1.48828,3.60156,4.09765,0,2.57617-1.69629,4.06641-3.60156,4.06641C555.32129,530.19336,553.62451,528.70312,553.62451,526.127Zm5.84229,0c0-1.793-.89649-3.00976-2.24121-3.00976-1.32813,0-2.24024,1.21679-2.24024,3.00976,0,1.77735.91211,2.97657,2.24024,2.97657C558.57031,529.10352,559.4668,527.9043,559.4668,526.127Z" fill="#b0b0b0"/><path d="M562.82471,527.59961V523.293h-1.15235v-.99219l1.21631-.08008.16016-2.17578h1.10449v2.17578H566.25V523.293h-2.09668v4.32226c0,.96094.30371,1.50586,1.2002,1.50586a2.83935,2.83935,0,0,0,.88086-.209l.25585.99219a4.78869,4.78869,0,0,1-1.44043.28906C563.38477,530.19336,562.82471,529.13672,562.82471,527.59961Z" fill="#b0b0b0"/><path d="M567.2085,526.127c0-2.54492,1.7124-4.09765,3.48925-4.09765,1.98487,0,3.10547,1.42382,3.10547,3.65039a5.06889,5.06889,0,0,1-.04834.75195h-5.25a2.58046,2.58046,0,0,0,2.59326,2.70508,3.51128,3.51128,0,0,0,1.937-.60938l.46386.86524a4.63793,4.63793,0,0,1-2.561.80078A3.72069,3.72069,0,0,1,567.2085,526.127Zm3.52148-3.05664a2.40092,2.40092,0,0,0-2.24072,2.416h4.16113C572.65039,523.918,571.94629,523.07031,570.73,523.07031Z" fill="#b0b0b0"/><path d="M578.44043,524.70312c0-3.36132,1.84082-5.39453,4.48145-5.39453,2.6416,0,4.498,2.04883,4.498,5.39453,0,3.377-1.85644,5.49024-4.498,5.49024C580.28125,530.19336,578.44043,528.08008,578.44043,524.70312Zm7.58691,0c0-2.60937-1.23242-4.22656-3.10546-4.22656-1.87256,0-3.105,1.61719-3.105,4.22656,0,2.625,1.23243,4.32032,3.105,4.32032C584.79492,529.02344,586.02734,527.32812,586.02734,524.70312Z" fill="#b0b0b0"/><path d="M591.08105,523.293V530h-1.3125v-6.707h-1.05664v-.99219l1.05664-.08008v-1.02343c0-1.61719.79981-2.625,2.417-2.625a3.59234,3.59234,0,0,1,1.42431.28711l-.272.99218a2.541,2.541,0,0,0-1.04053-.207c-.76806,0-1.21631.56055-1.21631,1.584v.99218h3.249v-1.23242c0-1.584.7207-2.57617,2.273-2.57617a3.515,3.515,0,0,1,1.29638.25586l-.28808,1.00781a2.201,2.201,0,0,0-.87988-.1914c-.73633,0-1.08887.51171-1.08887,1.5039v1.23242H597.291V523.293h-1.64844V530h-1.3125v-6.707Z" fill="#b0b0b0"/><path d="M308.26562,89.5c3.2334,0,4.96192,1.87305,4.96192,5.20312,0,3.34376-1.72852,5.29688-4.89746,5.29688h-2.68946V89.5Zm3.58594,5.20312c0-2.64257-1.23242-4.11523-3.68164-4.11523h-1.20068v8.32422h1.20068C310.61914,98.91211,311.85156,97.35938,311.85156,94.70312Z" fill="#b0b0b0"/><path d="M314.77637,96.12695c0-2.54492,1.71289-4.09765,3.48925-4.09765,1.98487,0,3.10547,1.42382,3.10547,3.65039a5.14268,5.14268,0,0,1-.04785.752h-5.25049a2.58047,2.58047,0,0,0,2.59327,2.70508,3.50716,3.50716,0,0,0,1.93652-.60938l.46435.86524a4.63662,4.63662,0,0,1-2.561.80078A3.72043,3.72043,0,0,1,314.77637,96.12695Zm3.52148-3.05664a2.4013,2.4013,0,0,0-2.24121,2.416h4.16211C320.21875,93.918,319.51416,93.07031,318.29785,93.07031Z" fill="#b0b0b0"/><path d="M322.71191,96.12695a3.7676,3.7676,0,0,1,3.74561-4.09765,3.22865,3.22865,0,0,1,2.273.91211l-.67188.86523a2.28223,2.28223,0,0,0-1.55273-.68945c-1.40869,0-2.43311,1.21679-2.43311,3.00976,0,1.77735.97608,2.97657,2.40088,2.97657a2.76587,2.76587,0,0,0,1.82471-.78321l.57617.87891a3.79231,3.79231,0,0,1-2.51318.99414C324.29688,100.19336,322.71191,98.70312,322.71191,96.12695Z" fill="#b0b0b0"/><path d="M329.94434,97.98438c0-1.69727,1.45605-2.54493,4.76953-2.91407,0-.99219-.31983-1.95312-1.60059-1.95312a4.22879,4.22879,0,0,0-2.3208.832l-.51221-.91211a5.78424,5.78424,0,0,1,3.05713-1.00781c1.90479,0,2.70557,1.26367,2.70557,3.20117V100H334.9541l-.1123-.92773H334.794a4.15526,4.15526,0,0,1-2.57715,1.12109A2.11684,2.11684,0,0,1,329.94434,97.98438Zm4.76953.11132V95.93555c-2.59278.32031-3.48926.959-3.48926,1.95117,0,.88086.6084,1.25,1.377,1.25A3.15477,3.15477,0,0,0,334.71387,98.0957Z" fill="#b0b0b0"/><path d="M337.7041,103.18555l.25586-1.041a2.25633,2.25633,0,0,0,.59229.11328c.88037,0,1.44091-.70508,1.76074-1.666l.17627-.57618-3.1211-7.79492h1.36036l1.58447,4.30664c.24023.67188.51221,1.47266.75244,2.19336h.064c.22413-.70508.44825-1.50586.65625-2.19336l1.39258-4.30664H344.459l-2.92968,8.41992c-.54395,1.53711-1.34424,2.70508-2.91309,2.70508A2.58846,2.58846,0,0,1,337.7041,103.18555Z" fill="#b0b0b0"/><path d="M351.44922,98.91211V91.38867h-1.85693V90.541a6.07461,6.07461,0,0,0,2.16064-.752h1.00879v9.123h2.11279V100H349.1123V98.91211Z" fill="#b0b0b0"/><path d="M448.26562,89.5c3.2334,0,4.96192,1.87305,4.96192,5.20312,0,3.34376-1.72852,5.29688-4.89746,5.29688h-2.68946V89.5Zm3.58594,5.20312c0-2.64257-1.23242-4.11523-3.68164-4.11523h-1.20068v8.32422h1.20068C450.61914,98.91211,451.85156,97.35938,451.85156,94.70312Z" fill="#b0b0b0"/><path d="M454.77637,96.12695c0-2.54492,1.71289-4.09765,3.48925-4.09765,1.98487,0,3.10547,1.42382,3.10547,3.65039a5.14268,5.14268,0,0,1-.04785.752h-5.25049a2.58047,2.58047,0,0,0,2.59327,2.70508,3.50716,3.50716,0,0,0,1.93652-.60938l.46435.86524a4.63662,4.63662,0,0,1-2.561.80078A3.72043,3.72043,0,0,1,454.77637,96.12695Zm3.52148-3.05664a2.4013,2.4013,0,0,0-2.24121,2.416h4.16211C460.21875,93.918,459.51416,93.07031,458.29785,93.07031Z" fill="#b0b0b0"/><path d="M462.71191,96.12695a3.7676,3.7676,0,0,1,3.74561-4.09765,3.22865,3.22865,0,0,1,2.273.91211l-.67188.86523a2.28223,2.28223,0,0,0-1.55273-.68945c-1.40869,0-2.43311,1.21679-2.43311,3.00976,0,1.77735.97608,2.97657,2.40088,2.97657a2.76587,2.76587,0,0,0,1.82471-.78321l.57617.87891a3.79231,3.79231,0,0,1-2.51318.99414C464.29688,100.19336,462.71191,98.70312,462.71191,96.12695Z" fill="#b0b0b0"/><path d="M469.94434,97.98438c0-1.69727,1.45605-2.54493,4.76953-2.91407,0-.99219-.31983-1.95312-1.60059-1.95312a4.22879,4.22879,0,0,0-2.3208.832l-.51221-.91211a5.78424,5.78424,0,0,1,3.05713-1.00781c1.90479,0,2.70557,1.26367,2.70557,3.20117V100H474.9541l-.1123-.92773H474.794a4.15526,4.15526,0,0,1-2.57715,1.12109A2.11684,2.11684,0,0,1,469.94434,97.98438Zm4.76953.11132V95.93555c-2.59278.32031-3.48926.959-3.48926,1.95117,0,.88086.6084,1.25,1.377,1.25A3.15477,3.15477,0,0,0,474.71387,98.0957Z" fill="#b0b0b0"/><path d="M477.7041,103.18555l.25586-1.041a2.25633,2.25633,0,0,0,.59229.11328c.88037,0,1.44091-.70508,1.76074-1.666l.17627-.57618-3.1211-7.79492h1.36036l1.58447,4.30664c.24023.67188.51221,1.47266.75244,2.19336h.064c.22413-.70508.44825-1.50586.65625-2.19336l1.39258-4.30664H484.459l-2.92968,8.41992c-.54395,1.53711-1.34424,2.70508-2.91309,2.70508A2.58846,2.58846,0,0,1,477.7041,103.18555Z" fill="#b0b0b0"/><path d="M493.29,92.66992a1.81,1.81,0,0,0-1.937-2.002,3.01214,3.01214,0,0,0-2.17676,1.23242l-.75244-.752a4.01115,4.01115,0,0,1,3.08935-1.55274,2.83691,2.83691,0,0,1,3.05713,3.00977c0,1.91992-1.74463,3.82617-4.16162,6.35547.56006-.04883,1.18457-.09766,1.7124-.09766h2.96143V100h-6.59473v-.7832C491.561,96.1582,493.29,94.31836,493.29,92.66992Z" fill="#b0b0b0"/><path d="M619.03418,89.5c2.145,0,3.68164.76953,3.68164,2.94531a2.86591,2.86591,0,0,1-2.36914,2.97657L623.02,100h-1.5044l-2.52929-4.43359h-1.90479V100h-1.32861V89.5Zm2.35352,2.94531c0-1.377-.9126-1.873-2.54541-1.873h-1.76075v3.90625h1.76075C620.4751,94.47852,621.3877,93.80664,621.3877,92.44531Z" fill="#b0b0b0"/><path d="M623.99268,96.12695c0-2.54492,1.7124-4.09765,3.48925-4.09765,1.98487,0,3.10547,1.42382,3.10547,3.65039a5.06889,5.06889,0,0,1-.04834.752h-5.25a2.58046,2.58046,0,0,0,2.59326,2.70508,3.51128,3.51128,0,0,0,1.937-.60938l.46386.86524a4.63793,4.63793,0,0,1-2.561.80078A3.72069,3.72069,0,0,1,623.99268,96.12695Zm3.52148-3.05664a2.40092,2.40092,0,0,0-2.24072,2.416h4.16113C629.43457,93.918,628.73047,93.07031,627.51416,93.07031Z" fill="#b0b0b0"/><path d="M632.50488,98.43164V88.60352h1.3125v9.92382c0,.416.17578.57618.36817.57618a1.13,1.13,0,0,0,.28808-.03125l.17578.99218a1.76337,1.76337,0,0,1-.75195.12891C632.90479,100.19336,632.50488,99.56836,632.50488,98.43164Z" fill="#b0b0b0"/><path d="M636.0083,96.12695c0-2.54492,1.7124-4.09765,3.48926-4.09765,1.98486,0,3.10547,1.42382,3.10547,3.65039a5.07024,5.07024,0,0,1-.04834.752h-5.25a2.58046,2.58046,0,0,0,2.59326,2.70508,3.51125,3.51125,0,0,0,1.937-.60938l.46387.86524a4.638,4.638,0,0,1-2.561.80078A3.7207,3.7207,0,0,1,636.0083,96.12695Zm3.52149-3.05664a2.40092,2.40092,0,0,0-2.24073,2.416h4.16114C641.4502,93.918,640.74609,93.07031,639.52979,93.07031Z" fill="#b0b0b0"/><path d="M643.81641,97.98438c0-1.69727,1.45605-2.54493,4.76953-2.91407,0-.99219-.31983-1.95312-1.60059-1.95312a4.22879,4.22879,0,0,0-2.3208.832l-.51221-.91211a5.78424,5.78424,0,0,1,3.05713-1.00781c1.90479,0,2.70557,1.26367,2.70557,3.20117V100h-1.08887l-.1123-.92773H648.666a4.15526,4.15526,0,0,1-2.57715,1.12109A2.11684,2.11684,0,0,1,643.81641,97.98438Zm4.76953.11132V95.93555c-2.59278.32031-3.48926.959-3.48926,1.95117,0,.88086.6084,1.25,1.37695,1.25A3.15477,3.15477,0,0,0,648.58594,98.0957Z" fill="#b0b0b0"/><path d="M651.49609,99.12109l.65625-.88086a3.5031,3.5031,0,0,0,2.28907.92774c1.02441,0,1.53613-.54492,1.53613-1.2168,0-.80078-.92774-1.15234-1.77637-1.47265-1.10449-.4004-2.32129-.92774-2.32129-2.24024,0-1.24805.99268-2.209,2.67334-2.209a3.88125,3.88125,0,0,1,2.417.88086l-.62451.832a2.88642,2.88642,0,0,0-1.77636-.68946c-.97657,0-1.42481.5293-1.42481,1.1211,0,.73633.84863,1.00781,1.72852,1.3457,1.12109.416,2.36914.87891,2.36914,2.35156,0,1.26563-1.0083,2.32227-2.84864,2.32227A4.68806,4.68806,0,0,1,651.49609,99.12109Z" fill="#b0b0b0"/><path d="M658.48828,96.12695c0-2.54492,1.7124-4.09765,3.48926-4.09765,1.98437,0,3.10547,1.42382,3.10547,3.65039a5.13624,5.13624,0,0,1-.04834.752h-5.25049a2.58084,2.58084,0,0,0,2.59375,2.70508,3.50839,3.50839,0,0,0,1.93652-.60938l.46387.86524a4.63493,4.63493,0,0,1-2.56055.80078A3.72043,3.72043,0,0,1,658.48828,96.12695Zm3.52149-3.05664a2.40131,2.40131,0,0,0-2.24122,2.416h4.16163C663.93018,93.918,663.22559,93.07031,662.00977,93.07031Z" fill="#b0b0b0"/><line x1="150.00024" y1="220.00012" x2="748.69849" y2="220.00012" fill="none" stroke="#7f7f7f" stroke-width="1.2"/><polygon points="744.722 224.908 743.904 224.029 748.238 220.001 743.904 215.972 744.722 215.093 750 220.001 744.722 224.908" fill="#7f7f7f"/><line x1="170.00049" y1="280" x2="170.00049" y2="81.30151" fill="none" stroke="#7f7f7f" stroke-width="1.2"/><polygon points="174.908 85.278 174.029 86.096 170.001 81.762 165.973 86.096 165.094 85.278 170.001 80 174.908 85.278" fill="#7f7f7f"/><line x1="150.00024" y1="440" x2="748.69849" y2="440" fill="none" stroke="#7f7f7f" stroke-width="1.2"/><polygon points="744.722 444.908 743.904 444.029 748.238 440.001 743.904 435.972 744.722 435.093 750 440.001 744.722 444.908" fill="#7f7f7f"/><line x1="170.00049" y1="499.99988" x2="170.00049" y2="321.30139" fill="none" stroke="#7f7f7f" stroke-width="1.2"/><polygon points="174.908 325.278 174.029 326.096 170.001 321.762 165.973 326.096 165.094 325.278 170.001 320 174.908 325.278" fill="#7f7f7f"/><line x1="158.50035" y1="140.00163" x2="170.50035" y2="140.00009" fill="none" stroke="#7f7f7f" stroke-width="1.2"/><line x1="158.50035" y1="360.00152" x2="170.50035" y2="359.99998" fill="none" stroke="#7f7f7f" stroke-width="1.2"/><line x1="158.50035" y1="400.00152" x2="170.50035" y2="399.99998" fill="none" stroke="#7f7f7f" stroke-width="1.2"/><line x1="158.50035" y1="480" x2="170.50035" y2="479.99846" fill="none" stroke="#7f7f7f" stroke-width="1.2"/><line x1="158.50035" y1="260.00011" x2="170.50035" y2="259.99857" fill="none" stroke="#7f7f7f" stroke-width="1.2"/><line x1="158.50035" y1="180.00165" x2="170.50035" y2="180.00011" fill="none" stroke="#7f7f7f" stroke-width="1.2"/><line x1="169" y1="480" x2="170" y2="480" fill="none" stroke="#666"/><line x1="172" y1="480" x2="367" y2="480" fill="none" stroke="#666" stroke-dasharray="2 2"/><line x1="368" y1="480" x2="369" y2="480" fill="none" stroke="#666"/><line x1="169" y1="400" x2="170" y2="400" fill="none" stroke="#666"/><line x1="172" y1="400" x2="567" y2="400" fill="none" stroke="#666" stroke-dasharray="2 2"/><line x1="568" y1="400" x2="569" y2="400" fill="none" stroke="#666"/><line x1="169" y1="260.00012" x2="170" y2="260.00012" fill="none" stroke="#666"/><line x1="172" y1="260.00012" x2="567" y2="260.00012" fill="none" stroke="#666" stroke-dasharray="2 2"/><line x1="568" y1="260.00012" x2="569" y2="260.00012" fill="none" stroke="#666"/><line x1="169" y1="180.00012" x2="170" y2="180.00012" fill="none" stroke="#666"/><line x1="172" y1="180.00012" x2="367" y2="180.00012" fill="none" stroke="#666" stroke-dasharray="2 2"/><line x1="368" y1="180.00012" x2="369" y2="180.00012" fill="none" stroke="#666"/><line x1="169" y1="140.00012" x2="170" y2="140.00012" fill="none" stroke="#666"/><line x1="172" y1="140.00012" x2="267" y2="140.00012" fill="none" stroke="#666" stroke-dasharray="2 2"/><line x1="268" y1="140.00012" x2="269" y2="140.00012" fill="none" stroke="#666"/><line x1="169" y1="360" x2="170" y2="360" fill="none" stroke="#666"/><line x1="172" y1="360" x2="267" y2="360" fill="none" stroke="#666" stroke-dasharray="2 2"/><line x1="268" y1="360" x2="269" y2="360" fill="none" stroke="#666"/><line x1="570" y1="500" x2="570" y2="499" fill="none" stroke="#666"/><line x1="570" y1="497.01025" x2="570" y2="111.99487" fill="none" stroke="#666" stroke-dasharray="1.98974 1.98974"/><line x1="570" y1="111" x2="570" y2="110" fill="none" stroke="#666"/><line x1="370" y1="500" x2="370" y2="499" fill="none" stroke="#666"/><line x1="370" y1="497.01025" x2="370" y2="111.99487" fill="none" stroke="#666" stroke-dasharray="1.98974 1.98974"/><line x1="370" y1="111" x2="370" y2="110" fill="none" stroke="#666"/><line x1="270" y1="500" x2="270" y2="499" fill="none" stroke="#666"/><line x1="270" y1="497.01025" x2="270" y2="111.99487" fill="none" stroke="#666" stroke-dasharray="1.98974 1.98974"/><line x1="270" y1="111" x2="270" y2="110" fill="none" stroke="#666"/><line x1="210" y1="500" x2="210" y2="499" fill="none" stroke="#666"/><line x1="210" y1="497.01025" x2="210" y2="111.99487" fill="none" stroke="#666" stroke-dasharray="1.98974 1.98974"/><line x1="210" y1="111" x2="210" y2="110" fill="none" stroke="#666"/><path d="M210.00033,439.99994l60-80,100,119.99994c25-54.9999,70.999-80,199.99994-80,30,30,92.72707,40,139.99978,40" fill="none" stroke="#e9a460" stroke-miterlimit="10" stroke-width="1.4"/><path d="M210.50035,220.00006l59.5-80,100,39.9974c24,55.50264,65.5,80.00255,199.99994,80.00255,30-30,92.72707-40,139.99978-40" fill="none" stroke="#e9a460" stroke-miterlimit="10" stroke-width="1.4"/><circle cx="270" cy="140" r="4.5" fill="#c46417"/><path d="M270,136.00012a4,4,0,1,1-4,3.99994,4.00453,4.00453,0,0,1,4-3.99994m0-1a5,5,0,1,0,5,4.99994,4.99993,4.99993,0,0,0-5-4.99994Z" fill="#fff"/><path d="M270,135.00012a5,5,0,1,1-5,4.99994,4.99993,4.99993,0,0,1,5-4.99994m0-1a6,6,0,1,0,6,5.99994,6.00682,6.00682,0,0,0-6-5.99994Z"/><circle cx="370" cy="180" r="4.5" fill="#c46417"/><path d="M370,176.00012a4,4,0,1,1-4,4,4.00454,4.00454,0,0,1,4-4m0-1a5,5,0,1,0,5,5,5,5,0,0,0-5-5Z" fill="#fff"/><path d="M370,175.00012a5,5,0,1,1-5,5,5,5,0,0,1,5-5m0-1a6,6,0,1,0,6,6,6.00684,6.00684,0,0,0-6-6Z"/><circle cx="570" cy="260" r="4.5" fill="#c46417"/><path d="M570.00024,256.00006a4,4,0,1,1-4,4,4.00454,4.00454,0,0,1,4-4m0-1a5,5,0,1,0,5,5,5,5,0,0,0-5-5Z" fill="#fff"/><path d="M570.00024,255.00006a5,5,0,1,1-5,5,5,5,0,0,1,5-5m0-1a6,6,0,1,0,6,6,6.00684,6.00684,0,0,0-6-6Z"/><circle cx="270.00049" cy="360" r="4.5" fill="#c46417"/><path d="M270.00024,356a4,4,0,1,1-4,4,4.00454,4.00454,0,0,1,4-4m0-1a5,5,0,1,0,5,5,5,5,0,0,0-5-5Z" fill="#fff"/><path d="M270.00024,355a5,5,0,1,1-5,5,5,5,0,0,1,5-5m0-1a6,6,0,1,0,6,6,6.00684,6.00684,0,0,0-6-6Z"/><circle cx="370" cy="480" r="4.5" fill="#c46417"/><path d="M370,476a4,4,0,1,1-4,4,4.00454,4.00454,0,0,1,4-4m0-1a5,5,0,1,0,5,5,5,5,0,0,0-5-5Z" fill="#fff"/><path d="M370,475a5,5,0,1,1-5,5,5,5,0,0,1,5-5m0-1a6,6,0,1,0,6,6,6.00684,6.00684,0,0,0-6-6Z"/><circle cx="570.00049" cy="400" r="4.5" fill="#c46417"/><path d="M570.00024,396a4,4,0,1,1-4,4,4.00454,4.00454,0,0,1,4-4m0-1a5,5,0,1,0,5,5,5,5,0,0,0-5-5Z" fill="#fff"/><path d="M570.00024,395a5,5,0,1,1-5,5,5,5,0,0,1,5-5m0-1a6,6,0,1,0,6,6,6.00684,6.00684,0,0,0-6-6Z"/></svg>