<svg viewBox="0 0 800 760.00047" xmlns="http://www.w3.org/2000/svg"><rect fill="#141414" height="758.98633" rx="3.54688" width="798.98682" x=".50659" y=".50731"/><path d="m795.94629 1.01341a3.0436 3.0436 0 0 1 3.04028 3.04028v751.89258a3.0436 3.0436 0 0 1 -3.04028 3.04028h-791.89258a3.044 3.044 0 0 1 -3.04053-3.04028v-751.89258a3.044 3.044 0 0 1 3.04053-3.04028zm0-1.01343h-791.89258a4.05375 4.05375 0 0 0 -4.05371 4.05371v751.89258a4.05375 4.05375 0 0 0 4.05371 4.05373h791.89258a4.05375 4.05375 0 0 0 4.05371-4.05373v-751.89258a4.05375 4.05375 0 0 0 -4.05371-4.05369z" fill="#666"/><path d="m270.82349 83.02514h87.94727a6.15082 6.15082 0 0 1 6.15082 6.15082v92.2262a0 0 0 0 1 0 0h-100.24891a0 0 0 0 1 0 0v-92.22616a6.15082 6.15082 0 0 1 6.15082-6.15086z" fill="#363636"/><path d="m270.29421 83.02506h89.00579a5.62154 5.62154 0 0 1 5.62154 5.62154v22.48618a0 0 0 0 1 0 0h-100.24887a0 0 0 0 1 0 0v-22.48618a5.62154 5.62154 0 0 1 5.62154-5.62154z" fill="#575757"/><path d="m288.87842 92.04758h3.20727c2.52124 0 4.21924.84082 4.21924 3.31055 0 2.36621-1.68091 3.48144-4.15063 3.48144h-1.8523v4.459h-1.42358zm3.10449 5.625c1.95508 0 2.89844-.71973 2.89844-2.31445 0-1.62989-.99463-2.16114-2.967-2.16114h-1.61235v4.47559z" fill="#cacaca"/><path d="m299.01758 92.04758h1.71484l2.16113 6.00293c.27442.77148.53174 1.57812.80616 2.34961h.0686c.27441-.77149.49731-1.57813.77173-2.34961l2.12671-6.00293h1.73218v11.251h-1.33765v-6.19143c0-.99512.11987-2.333.18872-3.32715h-.06885l-.8916 2.55567-2.127 5.83105h-.94312l-2.12671-5.83105-.89179-2.55567h-.06861c.06861.99414.17139 2.332.17139 3.32715v6.19141h-1.28613z" fill="#cacaca"/><path d="m314.95508 101.84055.85766-.99414a4.40866 4.40866 0 0 0 3.10425 1.40625c1.4751 0 2.34961-.73828 2.34961-1.83594 0-1.14844-.80591-1.50879-1.86938-1.98926l-1.61206-.70312a3.16092 3.16092 0 0 1 -2.28125-2.89844c0-1.71484 1.49218-2.98437 3.5332-2.98437a4.66786 4.66786 0 0 1 3.32715 1.38964l-.77173.92578a3.58939 3.58939 0 0 0 -2.55542-1.06347c-1.25195 0-2.09229.63476-2.09229 1.64648 0 1.08106.97754 1.49219 1.86939 1.87012l1.595.68555c1.30347.5664 2.31543 1.33789 2.31543 3.00195 0 1.7832-1.458 3.207-3.82471 3.207a5.4577 5.4577 0 0 1 -3.94485-1.66403z" fill="#cacaca"/><path d="m324.61377 99.14817c0-2.72754 1.835-4.39063 3.73877-4.39063 2.12671 0 3.32715 1.52637 3.32715 3.91016a5.47882 5.47882 0 0 1 -.05127.80664h-5.62549a2.76443 2.76443 0 0 0 2.77832 2.89844 3.76548 3.76548 0 0 0 2.0752-.65235l.49755.92676a4.96582 4.96582 0 0 1 -2.74414.85742c-2.22973 0-3.99609-1.62988-3.99609-4.35644zm5.83105-.68653c0-1.68066-.75439-2.58984-2.0581-2.58984a2.57435 2.57435 0 0 0 -2.40088 2.58984z" fill="#cacaca"/><path d="m334.169 101.61789v-10.53125h1.40649v10.63379c0 .44629.18872.61817.39453.61817a1.153 1.153 0 0 0 .30859-.03516l.18873 1.06348a1.88972 1.88972 0 0 1 -.80616.13769c-1.06328 0-1.49218-.66894-1.49218-1.88672z" fill="#cacaca"/><path d="m339.21265 96.112h-1.13208v-1.06344l1.13208-.085v-1.32125c0-1.69727.77173-2.76075 2.4353-2.76075a3.77888 3.77888 0 0 1 1.3894.27442l-.30883 1.08008a2.34988 2.34988 0 0 0 -.94336-.20606c-.78882 0-1.166.54883-1.166 1.61231v1.32129h1.76636v1.1484h-1.76636v7.18653h-1.40649z" fill="#cacaca"/><path d="m302.10112 168.865a22.01771 22.01771 0 1 1 22.01771 0" fill="none" stroke="#141414" stroke-miterlimit="10" stroke-width="11.00886"/><path d="m313.11 127.77937a21.73373 21.73373 0 0 1 8.53592 1.74172 22.31765 22.31765 0 0 1 11.74008 11.74008" fill="none" stroke="#e9a460" stroke-miterlimit="10" stroke-width="11.00886"/><path d="m313.10997 149.79708 25.39201-10.68968" fill="none" stroke="#fff" stroke-miterlimit="10" stroke-width="3.7477"/><circle cx="313.10997" cy="149.79708" fill="#e9a460" r="5.62154"/><path d="m264.67267 181.76387h100.2489a0 0 0 0 1 0 0v44.97235a5.62154 5.62154 0 0 1 -5.62157 5.62155h-89.00579a5.62154 5.62154 0 0 1 -5.62154-5.62154v-44.97236a0 0 0 0 1 0 0z" fill="#363636"/><path d="m359.30664 83.02513a5.62171 5.62171 0 0 1 5.62158 5.62158v138.0896a5.62187 5.62187 0 0 1 -5.62158 5.62158h-89.00586a5.62187 5.62187 0 0 1 -5.62158-5.62158v-138.0896a5.62171 5.62171 0 0 1 5.62158-5.62158zm0-.937h-89.00586a6.56613 6.56613 0 0 0 -6.55859 6.55859v138.0896a6.56613 6.56613 0 0 0 6.55859 6.55859h89.00586a6.56613 6.56613 0 0 0 6.55859-6.55859v-138.08961a6.56613 6.56613 0 0 0 -6.55859-6.55859z" fill="#7f7f7f"/><rect fill="#323232" height="46.8462" rx="4.83548" stroke="#7f7f7f" stroke-width=".80591" width="100.2489" x="264.67931" y="269.76773"/><path d="m264.67931 181.76396h100.2489v22.4241h-100.2489z" fill="#4e4e4e"/><path d="m297.16772 188.40305h6.3733v1.17969h-4.97388v3.47363h4.19824v1.19726h-4.19824v4.0127h5.14258v1.19727h-6.542z" fill="#cacaca"/><path d="m305.92065 191.26926h1.14649l.11816 1.18066h.05054a3.86 3.86 0 0 1 2.74829-1.38281c1.72 0 2.49536 1.11231 2.49536 3.20313v5.19336h-1.38257v-5.00782c0-1.53418-.47192-2.1914-1.551-2.1914-.84326 0-1.41651.4375-2.24268 1.26367v5.93555h-1.38257z" fill="#cacaca"/><path d="m313.96606 191.26926h1.43311l1.55127 4.65332c.23608.80957.50586 1.63574.75879 2.41113h.06738c.23609-.77539.50586-1.60156.74194-2.41113l1.551-4.65332h1.36572l-2.8999 8.19434h-1.61865z" fill="#cacaca"/><path d="m328.80664 188.40305h1.585l3.74317 11.06055h-1.50081l-1.04541-3.37207h-4.02978l-1.06226 3.37207h-1.4331zm-.89355 6.55859h3.32153l-.52271-1.68554c-.40454-1.23145-.75879-2.44532-1.11279-3.72657h-.06738c-.3374 1.28125-.69141 2.49512-1.096 3.72657z" fill="#cacaca"/><path d="m287.16442 213.69231h55.27852v8.43232h-55.27852z" fill="#141414"/><path d="m287.16442 213.69231h36.08355v8.43232h-36.08355z" fill="#b0b0b0"/><path d="m321.95662 213.69231h2.58271v8.43232h-2.58271z" fill="#fff"/><path d="m278.834 291.89524c0-3.61817 2.12671-5.83106 4.991-5.83106a4.10642 4.10642 0 0 1 3.08716 1.38965l-.772.92578a3.07394 3.07394 0 0 0 -2.2981-1.06348c-2.12671 0-3.533 1.75-3.533 4.54493 0 2.83007 1.35474 4.61425 3.48145 4.61425a3.39432 3.39432 0 0 0 2.60693-1.26953l.78906.8916a4.353 4.353 0 0 1 -3.44726 1.62989c-2.81297 0-4.90524-2.16114-4.90524-5.83203z" fill="#cacaca"/><path d="m289.57324 289.18625h1.16651l.11987 1.50879h.05151a2.85135 2.85135 0 0 1 2.3667-1.71484 2.08447 2.08447 0 0 1 .89209.1709l-.27441 1.23535a2.32868 2.32868 0 0 0 -.80615-.1377c-.70313 0-1.54371.51465-2.10962 1.92188v5.35058h-1.4065z" fill="#cacaca"/><path d="m295.166 293.37082c0-2.7959 1.81811-4.39062 3.85913-4.39062 2.04077 0 3.85888 1.59472 3.85888 4.39062 0 2.76074-1.81811 4.35645-3.85888 4.35645-2.041 0-3.85913-1.59571-3.85913-4.35645zm6.26025 0c0-1.9209-.96045-3.22461-2.40112-3.22461-1.42359 0-2.40113 1.30371-2.40113 3.22461 0 1.90332.97754 3.19043 2.40113 3.19043 1.44069 0 2.40114-1.28711 2.40114-3.19043z" fill="#cacaca"/><path d="m304.58447 296.57785.70313-.94336a3.75029 3.75029 0 0 0 2.45263.99512c1.09766 0 1.64649-.583 1.64649-1.30371 0-.85742-.99463-1.23535-1.90381-1.57812-1.18335-.42872-2.48682-.99415-2.48682-2.40137 0-1.33692 1.06348-2.36621 2.86426-2.36621a4.16053 4.16053 0 0 1 2.58985.94336l-.66895.8916a3.09544 3.09544 0 0 0 -1.90381-.73731c-1.04614 0-1.52637.56543-1.52637 1.2002 0 .78906.90894 1.08105 1.8523 1.4414 1.20044.44532 2.53833.94239 2.53833 2.52051 0 1.35547-1.08057 2.48731-3.053 2.48731a5.02 5.02 0 0 1 -3.10423-1.14942z" fill="#cacaca"/><path d="m312.20142 296.57785.70312-.94336a3.74978 3.74978 0 0 0 2.45264.99512c1.09765 0 1.64648-.583 1.64648-1.30371 0-.85742-.99487-1.23535-1.90381-1.57812-1.18335-.42872-2.48681-.99415-2.48681-2.40137 0-1.33692 1.06323-2.36621 2.86425-2.36621a4.15921 4.15921 0 0 1 2.5896.94336l-.6687.8916a3.096 3.096 0 0 0 -1.90381-.73731c-1.04614 0-1.52636.56543-1.52636 1.2002 0 .78906.90893 1.08105 1.85229 1.4414 1.20044.44532 2.53833.94239 2.53833 2.52051 0 1.35547-1.08056 2.48731-3.053 2.48731a5.01939 5.01939 0 0 1 -3.10422-1.14942z" fill="#cacaca"/><path d="m320.98462 290.33469h-1.13208v-1.06348l1.13208-.085v-1.32121c0-1.69726.77173-2.76074 2.4353-2.76074a3.77919 3.77919 0 0 1 1.38941.27441l-.30884 1.08008a2.34983 2.34983 0 0 0 -.94336-.20605c-.78882 0-1.166.54883-1.166 1.6123v1.32129h1.76636v1.14844h-1.76636v7.18652h-1.40649z" fill="#cacaca"/><path d="m325.32544 295.36008c0-1.81836 1.56079-2.72656 5.11108-3.12109 0-1.06348-.34326-2.09278-1.71533-2.09278a4.53672 4.53672 0 0 0 -2.48681.8916l-.54883-.97753a6.18952 6.18952 0 0 1 3.27588-1.08008c2.041 0 2.89843 1.35449 2.89843 3.42968v5.11133h-1.16626l-.11987-.99511h-.05151a4.44447 4.44447 0 0 1 -2.76148 1.20117 2.26836 2.26836 0 0 1 -2.4353-2.36719zm5.11108.12012v-2.31543c-2.77856.34277-3.739 1.02929-3.739 2.09277 0 .94336.65161 1.33789 1.47485 1.33789a3.3782 3.3782 0 0 0 2.26415-1.11523z" fill="#cacaca"/><path d="m334.31494 293.37082c0-2.71 1.71509-4.39062 3.61865-4.39062a3.43643 3.43643 0 0 1 2.33252.96l-.06836-1.42285v-3.208h1.42334v12.21191h-1.16626l-.11987-.97754h-.05151a3.76025 3.76025 0 0 1 -2.52124 1.1836c-2.09229-.00005-3.44727-1.57818-3.44727-4.3565zm5.88281 2.02344v-4.35645a2.90389 2.90389 0 0 0 -2.02392-.874c-1.33789 0-2.40112 1.28613-2.40112 3.18945 0 1.99024.84033 3.19043 2.29809 3.19043a2.81948 2.81948 0 0 0 2.12695-1.14943z" fill="#cacaca"/><path d="m344.24805 293.37082c0-2.72754 1.835-4.39062 3.73877-4.39062 2.12671 0 3.32714 1.52636 3.32714 3.91015a5.47877 5.47877 0 0 1 -.05126.80664h-5.62549a2.76443 2.76443 0 0 0 2.77832 2.89844 3.76541 3.76541 0 0 0 2.07519-.65234l.49756.92676a4.96582 4.96582 0 0 1 -2.74414.85742c-2.22974 0-3.99609-1.62989-3.99609-4.35645zm5.83105-.68652c0-1.68067-.75439-2.58985-2.0581-2.58985a2.57435 2.57435 0 0 0 -2.40088 2.58985z" fill="#cacaca"/><path d="m552.999 217.87668h1.71534l2.16088 6.00293c.27442.77149.53174 1.57813.80616 2.34961h.0686c.27441-.77148.49731-1.57812.77173-2.34961l2.12671-6.00293h1.73218v11.251h-1.3376v-6.19141c0-.99512.12012-2.333.18848-3.32715h-.06836l-.89209 2.55567-2.12647 5.83105h-.94336l-2.12671-5.83105-.89184-2.55567h-.06865c.06861.99414.17139 2.332.17139 3.32715v6.19141h-1.28639z" fill="#cacaca"/><path d="m564.71631 224.97727c0-2.7959 1.81811-4.39063 3.85913-4.39063 2.04077 0 3.85889 1.59473 3.85889 4.39063 0 2.76074-1.81812 4.35644-3.85889 4.35644-2.04102 0-3.85913-1.59571-3.85913-4.35644zm6.26025 0c0-1.9209-.96045-3.22461-2.40112-3.22461-1.42358 0-2.40112 1.30371-2.40112 3.22461 0 1.90332.97754 3.18945 2.40112 3.18945 1.44067 0 2.40112-1.28613 2.40112-3.18945z" fill="#cacaca"/><path d="m574.032 224.97727c0-2.71 1.71509-4.39063 3.6189-4.39063a3.4369 3.4369 0 0 1 2.33252.96l-.06885-1.42285v-3.207h1.42358v12.21094h-1.16625l-.12012-.97754h-.05127a3.76028 3.76028 0 0 1 -2.52124 1.18359c-2.09255-.00007-3.44727-1.57819-3.44727-4.35651zm5.88257 2.02343v-4.35644a2.90291 2.90291 0 0 0 -2.02368-.874c-1.33765 0-2.40112 1.28613-2.40112 3.18945 0 1.99023.84033 3.19043 2.29834 3.19043a2.819 2.819 0 0 0 2.12644-1.14944z" fill="#cacaca"/><path d="m584.03345 226.07492v-5.28222h1.42355v5.09375c0 1.56054.46289 2.22949 1.56055 2.22949.85766 0 1.458-.42871 2.24682-1.40625v-5.917h1.4065v8.335h-1.16651l-.11987-1.30371h-.05149a3.52316 3.52316 0 0 1 -2.74414 1.50976c-1.76659-.00003-2.55541-1.13186-2.55541-3.25882z" fill="#cacaca"/><path d="m593.48584 227.447v-10.53028h1.40649v10.63281c0 .44629.18872.61719.39454.61719a1.18476 1.18476 0 0 0 .30859-.03418l.18872 1.06348a1.88964 1.88964 0 0 1 -.80615.13769c-1.06324 0-1.49219-.66894-1.49219-1.88671z" fill="#cacaca"/><path d="m597.346 226.96653c0-1.81739 1.56079-2.72657 5.11108-3.1211 0-1.06348-.34326-2.09277-1.71533-2.09277a4.53678 4.53678 0 0 0 -2.48682.8916l-.54883-.97754a6.18964 6.18964 0 0 1 3.27588-1.08008c2.041 0 2.89844 1.35449 2.89844 3.42969v5.11133h-1.16626l-.11987-.99512h-.05152a4.44442 4.44442 0 0 1 -2.76147 1.20117 2.26835 2.26835 0 0 1 -2.4353-2.36718zm5.11108.12011v-2.31543c-2.77856.34278-3.739 1.0293-3.739 2.09278 0 .94336.65161 1.33789 1.47485 1.33789a3.37819 3.37819 0 0 0 2.26407-1.11524z" fill="#cacaca"/><path d="m606.50708 226.55539v-4.61426h-1.23486v-1.06347l1.30346-.085.17139-2.333h1.18359v2.333h2.24659v1.14843h-2.24659v4.63091c0 1.0293.32569 1.61231 1.28614 1.61231a3.0371 3.0371 0 0 0 .94336-.22266l.27441 1.06348a5.14628 5.14628 0 0 1 -1.54346.30859c-1.78369-.00001-2.38403-1.13184-2.38403-2.77833z" fill="#cacaca"/><path d="m611.208 224.97727c0-2.72754 1.8352-4.39063 3.739-4.39063 2.12671 0 3.32739 1.52637 3.32739 3.91016a5.47562 5.47562 0 0 1 -.05151.80664h-5.62549a2.765 2.765 0 0 0 2.77832 2.89844 3.7675 3.7675 0 0 0 2.07544-.65235l.49732.92676a4.96585 4.96585 0 0 1 -2.74414.85742c-2.22972 0-3.99633-1.62988-3.99633-4.35644zm5.83154-.68653c0-1.68066-.75488-2.58984-2.0581-2.58984a2.57456 2.57456 0 0 0 -2.40137 2.58984z" fill="#cacaca"/><path d="m619.73438 224.97727c0-2.71 1.71508-4.39063 3.61865-4.39063a3.43644 3.43644 0 0 1 2.33252.96l-.06836-1.42285v-3.207h1.42334v12.21094h-1.16626l-.11988-.97754h-.05151a3.76026 3.76026 0 0 1 -2.52124 1.18359c-2.09228-.00007-3.44726-1.57819-3.44726-4.35651zm5.88281 2.02343v-4.35644a2.90385 2.90385 0 0 0 -2.02393-.874c-1.33789 0-2.40112 1.28613-2.40112 3.18945 0 1.99023.84033 3.19043 2.29809 3.19043a2.81948 2.81948 0 0 0 2.12696-1.14944z" fill="#cacaca"/><path d="m632.60107 227.66965.85743-.99414a4.40862 4.40862 0 0 0 3.10424 1.40625c1.4751 0 2.34986-.73731 2.34986-1.835 0-1.14942-.80615-1.50977-1.86963-1.99024l-1.61206-.70312a3.1607 3.1607 0 0 1 -2.281-2.89844c0-1.71484 1.49195-2.98437 3.533-2.98437a4.66925 4.66925 0 0 1 3.32739 1.38965l-.772.92578a3.58934 3.58934 0 0 0 -2.55542-1.06348c-1.25195 0-2.09253.63477-2.09253 1.64648 0 1.08106.97779 1.49219 1.86963 1.87012l1.595.68555c1.30347.5664 2.31543 1.33789 2.31543 3.00195 0 1.7832-1.45776 3.207-3.82471 3.207a5.45674 5.45674 0 0 1 -3.94463-1.66399z" fill="#cacaca"/><path d="m642.19067 218.16867a.98011.98011 0 0 1 1.95508 0 .98019.98019 0 0 1 -1.95508 0zm.25708 2.624h1.4065v8.335h-1.4065z" fill="#cacaca"/><path d="m646.03345 230.72238a2.40688 2.40688 0 0 1 1.21777-1.88671v-.06836a1.5377 1.5377 0 0 1 -.73755-1.3545 1.95368 1.95368 0 0 1 .90918-1.54394v-.06836a2.94205 2.94205 0 0 1 2.05811-5.21387 3.3273 3.3273 0 0 1 1.18335.20606h2.89843v1.08008h-1.71508a2.41543 2.41543 0 0 1 .686 1.71484 2.8601 2.8601 0 0 1 -3.05273 2.89844 2.91518 2.91518 0 0 1 -1.2522-.291 1.26137 1.26137 0 0 0 -.53149.99414c0 .53223.34277.90918 1.47485.90918h1.61206c1.93823 0 2.91577.60059 2.91577 1.99024 0 1.543-1.62939 2.88085-4.219 2.88085-2.04098-.00002-3.44747-.80568-3.44747-2.24709zm6.29443-.42871c0-.77148-.60034-1.02929-1.68091-1.02929h-1.44043a4.07239 4.07239 0 0 1 -1.08056-.13672 1.75535 1.75535 0 0 0 -.85767 1.40625c0 .8916.90894 1.458 2.41821 1.458 1.59522.00001 2.64136-.82324 2.64136-1.69824zm-1.08057-6.74023a1.774 1.774 0 1 0 -3.53295 0 1.779 1.779 0 1 0 3.53295 0z" fill="#cacaca"/><path d="m655.31445 220.7927h1.16655l.11987 1.20019h.05151a3.92869 3.92869 0 0 1 2.79566-1.40625c1.74927 0 2.53833 1.13184 2.53833 3.25879v5.28223h-1.4065v-5.09375c0-1.56055-.48022-2.22949-1.57788-2.22949-.85742 0-1.44067.44531-2.281 1.28613v6.03711h-1.4065z" fill="#cacaca"/><path d="m664.18408 226.96653c0-1.81739 1.56079-2.72657 5.11084-3.1211 0-1.06348-.34277-2.09277-1.71484-2.09277a4.53755 4.53755 0 0 0 -2.48706.8916l-.54883-.97754a6.1896 6.1896 0 0 1 3.27588-1.08008c2.041 0 2.89844 1.35449 2.89844 3.42969v5.11133h-1.16626l-.12012-.99512h-.05127a4.44439 4.44439 0 0 1 -2.76123 1.20117 2.26843 2.26843 0 0 1 -2.43555-2.36718zm5.11084.12011v-2.31543c-2.77832.34278-3.73877 1.0293-3.73877 2.09278 0 .94336.65186 1.33789 1.4751 1.33789a3.37717 3.37717 0 0 0 2.26367-1.11524z" fill="#cacaca"/><path d="m673.34521 227.447v-10.53028h1.40625v10.63281c0 .44629.18873.61719.39454.61719a1.18476 1.18476 0 0 0 .30859-.03418l.18872 1.06348a1.88964 1.88964 0 0 1 -.80615.13769c-1.06323 0-1.49195-.66894-1.49195-1.88671z" fill="#cacaca"/><path d="m411.63428 135.63645c0-3.61914 2.12671-5.832 4.991-5.832a4.10639 4.10639 0 0 1 3.08716 1.38964l-.772.92579a3.07391 3.07391 0 0 0 -2.2981-1.06348c-2.12671 0-3.533 1.75-3.533 4.54492 0 2.83008 1.35473 4.61426 3.48144 4.61426a3.39433 3.39433 0 0 0 2.60693-1.26953l.78907.8916a4.353 4.353 0 0 1 -3.44727 1.62988c-2.81295-.00003-4.90523-2.16116-4.90523-5.83108z" fill="#cacaca"/><path d="m421.32715 137.11106c0-2.7959 1.81811-4.39063 3.85913-4.39063 2.04077 0 3.85889 1.59473 3.85889 4.39063 0 2.76074-1.81812 4.35644-3.85889 4.35644-2.04102 0-3.85913-1.5957-3.85913-4.35644zm6.26025 0c0-1.9209-.96045-3.22461-2.40112-3.22461-1.42358 0-2.40112 1.30371-2.40112 3.22461 0 1.90332.97754 3.18945 2.40112 3.18945 1.44072 0 2.40112-1.28613 2.40112-3.18945z" fill="#cacaca"/><path d="m431.24316 132.92649h1.166l.12012 1.20019h.05151a3.92821 3.92821 0 0 1 2.79565-1.40625c1.74927 0 2.53833 1.13184 2.53833 3.25879v5.28223h-1.40647v-5.09375c0-1.56055-.48022-2.2295-1.57788-2.2295-.85742 0-1.44067.44532-2.281 1.28614v6.03711h-1.40625z" fill="#cacaca"/><path d="m440.86719 138.68918v-4.61426h-1.23487v-1.06347l1.30347-.085.17163-2.333h1.18335v2.333h2.24683v1.14843h-2.24683v4.63086c0 1.0293.32593 1.61231 1.28638 1.61231a3.03712 3.03712 0 0 0 .94311-.22266l.27442 1.06348a5.1482 5.1482 0 0 1 -1.54346.30859c-1.78369.00004-2.38403-1.13179-2.38403-2.77828z" fill="#cacaca"/><path d="m446.42578 132.92649h1.166l.12011 1.50879h.05152a2.85137 2.85137 0 0 1 2.36694-1.71485 2.06838 2.06838 0 0 1 .8916.17188l-.27441 1.23437a2.32778 2.32778 0 0 0 -.80591-.13672c-.70337 0-1.5437.51367-2.10962 1.91992v5.35157h-1.40625z" fill="#cacaca"/><path d="m451.58936 137.11106c0-2.7959 1.81811-4.39063 3.85913-4.39063 2.04077 0 3.85888 1.59473 3.85888 4.39063 0 2.76074-1.81811 4.35644-3.85888 4.35644-2.04102 0-3.85913-1.5957-3.85913-4.35644zm6.26025 0c0-1.9209-.96045-3.22461-2.40112-3.22461-1.42359 0-2.40113 1.30371-2.40113 3.22461 0 1.90332.97754 3.18945 2.40113 3.18945 1.44067 0 2.40112-1.28613 2.40112-3.18945z" fill="#cacaca"/><path d="m461.50537 139.58078v-10.53027h1.40625v10.63281c0 .44629.18872.61719.39453.61719a1.18479 1.18479 0 0 0 .3086-.03418l.18872 1.06348a1.88966 1.88966 0 0 1 -.80616.13769c-1.06323 0-1.49194-.66894-1.49194-1.88672z" fill="#cacaca"/><path d="m469.44824 130.01047h3.207c2.52124 0 4.21924.84082 4.21924 3.31055 0 2.36621-1.68091 3.48144-4.15063 3.48144h-1.8523v4.459h-1.42334zm3.10425 5.626c1.95508 0 2.89844-.72071 2.89844-2.31543 0-1.62989-.99488-2.16114-2.967-2.16114h-1.61231v4.47657z" fill="#cacaca"/><path d="m477.99219 137.11106c0-2.7959 1.81787-4.39063 3.85888-4.39063s3.85889 1.59473 3.85889 4.39063c0 2.76074-1.81787 4.35644-3.85889 4.35644s-3.85888-1.5957-3.85888-4.35644zm6.26 0c0-1.9209-.96045-3.22461-2.40113-3.22461-1.42358 0-2.40112 1.30371-2.40112 3.22461 0 1.90332.97754 3.18945 2.40112 3.18945 1.44069 0 2.40114-1.28613 2.40114-3.18945z" fill="#cacaca"/><path d="m486.98145 140.31809.70312-.94336a3.75029 3.75029 0 0 0 2.45264.99512c1.09765 0 1.64648-.583 1.64648-1.30372 0-.85742-.99463-1.23437-1.90381-1.57812-1.18335-.42871-2.48681-.99414-2.48681-2.40039 0-1.33789 1.06347-2.36719 2.86425-2.36719a4.16051 4.16051 0 0 1 2.58985.94336l-.66895.8916a3.09543 3.09543 0 0 0 -1.90381-.7373c-1.04614 0-1.52636.56543-1.52636 1.20019 0 .78907.90893 1.08106 1.85229 1.44043 1.20044.44629 2.53833.94336 2.53833 2.52149 0 1.35547-1.08056 2.4873-3.053 2.4873a5.02 5.02 0 0 1 -3.10422-1.14941z" fill="#cacaca"/><path d="m494.83862 130.30246a.98011.98011 0 0 1 1.95508 0 .98019.98019 0 0 1 -1.95508 0zm.25708 2.624h1.4065v8.335h-1.4065z" fill="#cacaca"/><path d="m499.55591 138.68918v-4.61426h-1.23491v-1.06347l1.30347-.085.17139-2.333h1.18359v2.333h2.24658v1.14843h-2.24658v4.63086c0 1.0293.32569 1.61231 1.28613 1.61231a3.037 3.037 0 0 0 .94336-.22266l.27442 1.06348a5.14658 5.14658 0 0 1 -1.54346.30859c-1.78365.00004-2.38399-1.13179-2.38399-2.77828z" fill="#cacaca"/><path d="m504.85718 130.30246a.98011.98011 0 0 1 1.95508 0 .98019.98019 0 0 1 -1.95508 0zm.25708 2.624h1.40649v8.335h-1.40649z" fill="#cacaca"/><path d="m508.71729 137.11106c0-2.7959 1.81787-4.39063 3.85888-4.39063s3.85889 1.59473 3.85889 4.39063c0 2.76074-1.81787 4.35644-3.85889 4.35644s-3.85888-1.5957-3.85888-4.35644zm6.26 0c0-1.9209-.96044-3.22461-2.40112-3.22461-1.42358 0-2.40112 1.30371-2.40112 3.22461 0 1.90332.97754 3.18945 2.40112 3.18945 1.44068 0 2.40112-1.28613 2.40112-3.18945z" fill="#cacaca"/><path d="m518.63281 132.92649h1.166l.12012 1.20019h.05151a3.92821 3.92821 0 0 1 2.79565-1.40625c1.74927 0 2.53833 1.13184 2.53833 3.25879v5.28223h-1.40642v-5.09375c0-1.56055-.48023-2.2295-1.57788-2.2295-.85742 0-1.44068.44532-2.281 1.28614v6.03711h-1.40625z" fill="#cacaca"/><path d="m435.83252 310.363h1.71484l2.16114 6.00293c.27441.77148.53173 1.57812.80615 2.34961h.0686c.27442-.77149.49732-1.57813.77173-2.34961l2.12671-6.00293h1.73218v11.251h-1.33765v-6.19141c0-.99512.11987-2.333.18872-3.32715h-.06885l-.8916 2.55567-2.127 5.83105h-.94312l-2.12671-5.83105-.89184-2.55567h-.0686c.0686.99414.17138 2.332.17138 3.32715v6.19141h-1.28613z" fill="#cacaca"/><path d="m448.04712 318.56125v-5.28225h1.42358v5.09375c0 1.56054.46289 2.22949 1.56055 2.22949.85767 0 1.458-.42871 2.24683-1.40625v-5.917h1.40649v8.335h-1.1665l-.11988-1.30371h-.05151a3.52319 3.52319 0 0 1 -2.74414 1.50976c-1.7666-.00004-2.55542-1.13184-2.55542-3.25879z" fill="#cacaca"/><path d="m457.49951 319.93332v-10.53125h1.4065v10.63379c0 .44629.18872.61817.39453.61817a1.15308 1.15308 0 0 0 .30859-.03516l.18872 1.06348a1.88964 1.88964 0 0 1 -.80615.13769c-1.06323-.00004-1.49219-.66894-1.49219-1.88672z" fill="#cacaca"/><path d="m462.1145 319.04172v-4.61426h-1.23486v-1.06346l1.30347-.085.17138-2.333h1.1836v2.333h2.24658v1.14843h-2.24658v4.63086c0 1.0293.32568 1.61231 1.28613 1.61231a3.037 3.037 0 0 0 .94336-.22266l.27441 1.06348a5.14658 5.14658 0 0 1 -1.54345.30859c-1.7837-.00001-2.38404-1.13181-2.38404-2.77829z" fill="#cacaca"/><path d="m467.41577 310.655a.98011.98011 0 0 1 1.95508 0 .98019.98019 0 0 1 -1.95508 0zm.25708 2.624h1.4065v8.335h-1.4065z" fill="#cacaca"/><path d="m471.89307 313.279h1.166l.12012.96h.05151a4.31234 4.31234 0 0 1 2.65845-1.166c2.1438 0 3.293 1.66309 3.293 4.25293 0 2.83008-1.698 4.49414-3.60181 4.49414a3.8629 3.8629 0 0 1 -2.31518-.96094l.03418 1.458v2.8125h-1.40625zm5.83105 4.04687c0-1.835-.61719-3.06934-2.19531-3.06934a3.51207 3.51207 0 0 0 -2.22949 1.13184v4.37305a3.2987 3.2987 0 0 0 2.041.875c1.37208.00003 2.3838-1.25193 2.3838-3.31052z" fill="#cacaca"/><path d="m481.41406 319.93332v-10.53125h1.4065v10.63379c0 .44629.18872.61817.39453.61817a1.15308 1.15308 0 0 0 .30859-.03516l.18872 1.06348a1.88964 1.88964 0 0 1 -.80615.13769c-1.06325-.00004-1.49219-.66894-1.49219-1.88672z" fill="#cacaca"/><path d="m485.53149 310.655a.98011.98011 0 0 1 1.95508 0 .98019.98019 0 0 1 -1.95508 0zm.25708 2.624h1.4065v8.335h-1.4065z" fill="#cacaca"/><path d="m489.3916 317.4636c0-2.72754 1.835-4.39063 3.73877-4.39063 2.12671 0 3.32715 1.52637 3.32715 3.91016a5.47882 5.47882 0 0 1 -.05127.80664h-5.62549a2.76443 2.76443 0 0 0 2.77832 2.89843 3.76547 3.76547 0 0 0 2.0752-.65234l.49756.92676a4.96585 4.96585 0 0 1 -2.74414.85742c-2.2297-.00004-3.9961-1.62988-3.9961-4.35644zm5.83106-.68653c0-1.68066-.7544-2.58984-2.05811-2.58984a2.57436 2.57436 0 0 0 -2.40088 2.58984z" fill="#cacaca"/><path d="m498.51807 313.279h1.166l.12012 1.50878h.05151a2.85139 2.85139 0 0 1 2.367-1.71484 2.08312 2.08312 0 0 1 .8916.1709l-.27442 1.23535a2.32718 2.32718 0 0 0 -.8059-.13769c-.70337 0-1.54371.51464-2.10962 1.92187v5.35063h-1.40625z" fill="#cacaca"/><path d="m780 45.33519v307.72h-760v-307.72zm1.90259-1.90259h-763.80542v311.5254h763.80542z" fill="#363636"/><path d="m19 401.00047h762v341.99805h-762z" fill="#0f0f0f"/><path d="m780 402.00023v339.99829h-760v-339.99829zm2-2h-764v343.99829h764z" fill="#363636"/><path d="m19 375.00047h762v26h-762z" fill="#363636"/><path d="m780 376.00023v24h-760v-24zm2-2h-764v28h764z" fill="#363636"/><path d="m19 19.66844h762v26h-762z" fill="#363636"/><path d="m780 20.66868v24h-760v-24zm2-2h-764v28h764z" fill="#363636"/><path d="m499.99997 402.00011v339.99834" fill="none" stroke="#202020"/><path d="m479.99998 402.00011v339.99834" fill="none" stroke="#202020"/><path d="m459.99998 402.00011v339.99834" fill="none" stroke="#202020"/><path d="m519.99996 402.00011v339.99834" fill="none" stroke="#202020"/><path d="m539.99996 402.00011v339.99834" fill="none" stroke="#202020"/><path d="m559.99995 402.00011v339.99834" fill="none" stroke="#202020"/><path d="m579.99995 402.00011v339.99834" fill="none" stroke="#202020"/><path d="m599.99994 402.00011v339.99834" fill="none" stroke="#202020"/><path d="m619.99993 402.00011v339.99834" fill="none" stroke="#202020"/><path d="m639.99993 402.00011v339.99834" fill="none" stroke="#202020"/><path d="m659.99992 402.00011v339.99834" fill="none" stroke="#202020"/><path d="m679.99991 402.00011v339.99834" fill="none" stroke="#202020"/><path d="m699.99991 402.00011v339.99834" fill="none" stroke="#202020"/><path d="m719.9999 402.00011v339.99834" fill="none" stroke="#202020"/><path d="m739.9999 402.00011v339.99834" fill="none" stroke="#202020"/><path d="m759.99989 402.00011v339.99834" fill="none" stroke="#202020"/><path d="m180.00007 402.00011v339.99834" fill="none" stroke="#202020"/><path d="m160.00007 402.00011v339.99834" fill="none" stroke="#202020"/><path d="m140.00008 402.00011v339.99834" fill="none" stroke="#202020"/><path d="m200.00006 402.00011v339.99834" fill="none" stroke="#202020"/><path d="m120.00009 402.00011v339.99834" fill="none" stroke="#202020"/><path d="m100.00009 402.00011v339.99834" fill="none" stroke="#202020"/><path d="m80.0001 402.00011v339.99834" fill="none" stroke="#202020"/><path d="m60.0001 402.00011v339.99834" fill="none" stroke="#202020"/><path d="m40.00011 402.00011v339.99834" fill="none" stroke="#202020"/><path d="m220.00005 402.00011v339.99834" fill="none" stroke="#202020"/><path d="m240.00005 402.00011v339.99834" fill="none" stroke="#202020"/><path d="m260.00004 402.00011v339.99834" fill="none" stroke="#202020"/><path d="m280.00004 402.00011v339.99834" fill="none" stroke="#202020"/><path d="m300.00003 402.00011v339.99834" fill="none" stroke="#202020"/><path d="m320.00002 402.00011v339.99834" fill="none" stroke="#202020"/><path d="m340.00002 402.00011v339.99834" fill="none" stroke="#202020"/><path d="m360.00001 402.00011v339.99834" fill="none" stroke="#202020"/><path d="m380.00001 402.00011v339.99834" fill="none" stroke="#202020"/><path d="m400 402.00011v339.99834" fill="none" stroke="#202020"/><path d="m419.99999 402.00011v339.99834" fill="none" stroke="#202020"/><path d="m439.99999 402.00011v339.99834" fill="none" stroke="#202020"/><path d="m20.0001 581.99823h759.99685" fill="none" stroke="#202020"/><path d="m20.0001 601.99977h759.99685" fill="none" stroke="#202020"/><path d="m20.0001 621.99976h759.99685" fill="none" stroke="#202020"/><path d="m20.0001 641.99975h759.99685" fill="none" stroke="#202020"/><path d="m20.0001 561.99824h759.99685" fill="none" stroke="#202020"/><path d="m20.0001 541.99824h759.99685" fill="none" stroke="#202020"/><path d="m20.0001 521.99825h759.99685" fill="none" stroke="#202020"/><path d="m20.0001 501.99826h759.99685" fill="none" stroke="#202020"/><path d="m20.0001 481.99826h759.99685" fill="none" stroke="#202020"/><path d="m20.0001 461.99981h759.99685" fill="none" stroke="#202020"/><path d="m20.0001 441.99827h759.99685" fill="none" stroke="#202020"/><path d="m20.0001 421.99982h759.99685" fill="none" stroke="#202020"/><path d="m20.0001 721.99846h759.99685" fill="none" stroke="#202020"/><path d="m20.0001 701.99846h759.99685" fill="none" stroke="#202020"/><path d="m20.0001 681.99847h759.99685" fill="none" stroke="#202020"/><path d="m20.0001 662.00001h759.99685" fill="none" stroke="#202020"/><g fill="#cacaca"><path d="m35.05518 452.19113h1.80082l2.26855 6.30176c.28809.81055.55811 1.65625.84619 2.4668h.072c.28809-.81055.52222-1.65625.81031-2.4668l2.23266-6.30176h1.81859v11.81153h-1.40454v-6.5c0-1.04395.12622-2.44824.198-3.49317h-.07176l-.93653 2.68262-2.23247 6.12207h-.99048l-2.23266-6.12207-.93628-2.68262h-.072c.072 1.04493.18017 2.44922.18017 3.49317v6.5h-1.35057z"/><path d="m47.87085 460.79758v-5.5459h1.49438v5.34766c0 1.63867.48633 2.34082 1.63868 2.34082.90014 0 1.53027-.4502 2.35864-1.47656v-6.21192h1.47632v8.751h-1.22412l-.12622-1.36817h-.054a3.699 3.699 0 0 1 -2.88086 1.584c-1.85445-.00003-2.68282-1.18851-2.68282-3.42093z"/><path d="m57.78906 462.238v-11.05565h1.47632v11.16406c0 .46777.198.64844.41406.64844a1.237 1.237 0 0 0 .32422-.03614l.198 1.11621a1.9916 1.9916 0 0 1 -.84619.14356c-1.11647 0-1.56641-.70215-1.56641-1.98048z"/><path d="m62.63086 461.30149v-4.84278h-1.29639v-1.11621l1.36841-.09082.17993-2.44824h1.24243v2.44824h2.35865v1.207h-2.35865v4.86132c0 1.08008.34205 1.69238 1.35035 1.69238a3.16982 3.16982 0 0 0 .99047-.23437l.28809 1.11621a5.4 5.4 0 0 1 -1.62061.32422c-1.87254.00004-2.50268-1.18844-2.50268-2.91695z"/><path d="m68.19238 452.4968a1.02911 1.02911 0 0 1 2.05274 0 1.029 1.029 0 0 1 -2.05274 0zm.27 2.75488h1.47662v8.751h-1.4766z"/><path d="m72.89014 455.25168h1.22461l.126 1.00879h.054a4.52924 4.52924 0 0 1 2.79077-1.22461c2.25073 0 3.457 1.74707 3.457 4.46582 0 2.9707-1.78247 4.7168-3.781 4.7168a4.05851 4.05851 0 0 1 -2.4309-1.00781l.03613 1.53027v2.95312h-1.47661zm6.12207 4.25c0-1.92676-.64844-3.22363-2.30469-3.22363a3.6859 3.6859 0 0 0 -2.34082 1.18848v4.59179a3.46353 3.46353 0 0 0 2.14258.918c1.44043-.00003 2.50293-1.31448 2.50293-3.47464z"/><path d="m82.88037 462.238v-11.05565h1.47632v11.16406c0 .46777.198.64844.41406.64844a1.237 1.237 0 0 0 .32422-.03614l.198 1.11621a1.9916 1.9916 0 0 1 -.84619.14356c-1.11646 0-1.56641-.70215-1.56641-1.98048z"/><path d="m87.2 452.4968a1.02911 1.02911 0 0 1 2.05274 0 1.029 1.029 0 0 1 -2.05274 0zm.27026 2.75488h1.47632v8.751h-1.47637z"/><path d="m91.24951 459.64524c0-2.86231 1.92676-4.60938 3.92529-4.60938 2.23267 0 3.49317 1.60254 3.49317 4.10547a5.70028 5.70028 0 0 1 -.0542.8457h-5.90577a2.902 2.902 0 0 0 2.917 3.043 3.95534 3.95534 0 0 0 2.17871-.68359l.522.97168a5.209 5.209 0 0 1 -2.88086.90039c-2.3406-.00003-4.19534-1.70999-4.19534-4.57327zm6.12207-.71973c0-1.76465-.79248-2.71875-2.16064-2.71875a2.70271 2.70271 0 0 0 -2.521 2.71875z"/><path d="m100.82568 455.25168h1.22412l.12623 1.585h.054a2.99287 2.99287 0 0 1 2.48486-1.80078 2.17384 2.17384 0 0 1 .936.17969l-.28809 1.29687a2.45287 2.45287 0 0 0 -.84619-.14453c-.73828 0-1.62036.541-2.2146 2.01758v5.61719h-1.47632z"/><path d="m71.64355 505.782h2.62891v-8.462h-2.08862v-.955a6.82882 6.82882 0 0 0 2.43066-.8457h1.13428v10.2627h2.37671v1.22461h-6.48194z"/><path d="m80.3374 506.10617a1.07414 1.07414 0 1 1 2.14258 0 1.0722 1.0722 0 1 1 -2.14258 0z"/><path d="m84.44116 501.22727c0-3.85352 1.38648-5.92383 3.69116-5.92383 2.28663 0 3.6731 2.07031 3.6731 5.92383 0 3.85254-1.38647 5.99511-3.6731 5.99511-2.30468 0-3.69116-2.14257-3.69116-5.99511zm5.92383 0c0-3.36719-.90039-4.73633-2.23267-4.73633-1.35058 0-2.25073 1.36914-2.25073 4.73633 0 3.36621.90015 4.80664 2.25073 4.80664 1.33228 0 2.23268-1.44043 2.23268-4.80664z"/><path d="m71.01343 701.89328c0-3.85351 1.38647-5.92383 3.69116-5.92383 2.28662 0 3.6731 2.07032 3.6731 5.92383 0 3.85254-1.38648 5.99512-3.6731 5.99512-2.30469 0-3.69116-2.14258-3.69116-5.99512zm5.92383 0c0-3.36718-.90039-4.73633-2.23267-4.73633-1.35059 0-2.25073 1.36915-2.25073 4.73633 0 3.36621.90014 4.80664 2.25073 4.80664 1.33228 0 2.23267-1.44043 2.23267-4.80664z"/><path d="m80.3374 706.77219a1.07414 1.07414 0 1 1 2.14258 0 1.0722 1.0722 0 1 1 -2.14258 0z"/><path d="m84.44116 701.89328c0-3.85351 1.38648-5.92383 3.69116-5.92383 2.28663 0 3.6731 2.07032 3.6731 5.92383 0 3.85254-1.38647 5.99512-3.6731 5.99512-2.30468 0-3.69116-2.14258-3.69116-5.99512zm5.92383 0c0-3.36718-.90039-4.73633-2.23267-4.73633-1.35058 0-2.25073 1.36915-2.25073 4.73633 0 3.36621.90015 4.80664 2.25073 4.80664 1.33228 0 2.23268-1.44043 2.23268-4.80664z"/><path d="m659.64551 723.29758v-4.84277h-1.29639v-1.11621l1.36865-.09082.17969-2.44825h1.24268v2.44825h2.3584v1.207h-2.3584v4.86132c0 1.08008.34179 1.69239 1.35009 1.69239a3.16846 3.16846 0 0 0 .99024-.23438l.28808 1.11621a5.39681 5.39681 0 0 1 -1.62011.32422c-1.87256.00003-2.50293-1.18844-2.50293-2.91696z"/><path d="m168.47144 440.18723h1.69238l3.99731 11.81152h-1.60254l-1.11621-3.60156h-4.30346l-1.13428 3.60156h-1.53052zm-.95435 7.0039h3.54712l-.55835-1.80078c-.43213-1.31347-.81006-2.61035-1.18823-3.97851h-.072c-.36011 1.36816-.73829 2.665-1.17041 3.97851z"/><path d="m175.68872 449.29758v-4.84277h-1.29639v-1.11621l1.36841-.09082.18018-2.44825h1.24219v2.44825h2.35889v1.207h-2.35888v4.86132c0 1.08008.34228 1.69239 1.35058 1.69239a3.1701 3.1701 0 0 0 .99024-.23438l.28808 1.11621a5.40153 5.40153 0 0 1 -1.6206.32422c-1.87257.00003-2.5027-1.18844-2.5027-2.91696z"/><path d="m181.41284 449.29758v-4.84277h-1.29638v-1.11621l1.3684-.09082.18018-2.44825h1.24219v2.44825h2.35888v1.207h-2.35888v4.86132c0 1.08008.34228 1.69239 1.35058 1.69239a3.1701 3.1701 0 0 0 .99024-.23438l.28808 1.11621a5.40153 5.40153 0 0 1 -1.6206.32422c-1.87253.00003-2.50269-1.18844-2.50269-2.91696z"/><path d="m186.32666 449.7302c0-1.90918 1.63843-2.86328 5.36572-3.27735 0-1.11621-.36035-2.19629-1.80078-2.19629a4.75231 4.75231 0 0 0 -2.61059.93653l-.57618-1.02637a6.492 6.492 0 0 1 3.439-1.13477c2.14258 0 3.043 1.42286 3.043 3.60157v5.36523h-1.22443l-.126-1.04394h-.0542a4.67065 4.67065 0 0 1 -2.89893 1.25976 2.38092 2.38092 0 0 1 -2.55661-2.48437zm5.36572.126v-2.43066c-2.917.36035-3.92529 1.08008-3.92529 2.19629 0 .99023.68408 1.4043 1.54834 1.4043a3.54835 3.54835 0 0 0 2.37695-1.16996z"/><path d="m195.29053 447.64133c0-2.93457 1.9624-4.60938 4.21313-4.60938a3.63491 3.63491 0 0 1 2.55689 1.02637l-.75635.97266a2.56623 2.56623 0 0 0 -1.74658-.77442c-1.58448 0-2.73682 1.36817-2.73682 3.38477 0 1.999 1.09839 3.34961 2.70093 3.34961a3.109 3.109 0 0 0 2.05249-.88281l.64819.99023a4.2688 4.2688 0 0 1 -2.8269 1.11621c-2.32251 0-4.10498-1.67383-4.10498-4.57324z"/><path d="m204.14648 439.17844h1.4585v8.67871h.0542l3.72705-4.60937h1.63843l-2.93482 3.51171 3.33106 5.23926h-1.62061l-2.55664-4.21289-1.63867 1.9082v2.30469h-1.4585z"/><path d="m222.5957 440.18723h2.95313c3.637 0 5.58154 2.10644 5.58154 5.85156 0 3.76367-1.94458 5.96-5.50976 5.96h-3.02491zm2.845 10.58691c2.75489 0 4.14136-1.74609 4.14136-4.73535 0-2.9707-1.38647-4.627-4.14136-4.627h-1.35034v9.3623z"/><path d="m232.87354 447.64133c0-2.8623 1.92651-4.60938 3.925-4.60938 2.23267 0 3.49292 1.60254 3.49292 4.10547a5.70361 5.70361 0 0 1 -.054.84571h-5.90576a2.902 2.902 0 0 0 2.917 3.043 3.9533 3.9533 0 0 0 2.17847-.6836l.52221.97168a5.209 5.209 0 0 1 -2.88086.90039c-2.34052-.00003-4.19498-1.70999-4.19498-4.57327zm6.12158-.71973c0-1.76465-.792-2.71875-2.16065-2.71875a2.7025 2.7025 0 0 0 -2.52051 2.71875z"/><path d="m241.80127 447.64133c0-2.93457 1.9624-4.60938 4.21313-4.60938a3.63491 3.63491 0 0 1 2.55689 1.02637l-.75635.97266a2.56623 2.56623 0 0 0 -1.74658-.77442c-1.58447 0-2.73682 1.36817-2.73682 3.38477 0 1.999 1.09839 3.34961 2.70093 3.34961a3.109 3.109 0 0 0 2.05249-.88281l.64819.99023a4.2688 4.2688 0 0 1 -2.8269 1.11621c-2.32251 0-4.10498-1.67383-4.10498-4.57324z"/><path d="m249.93726 449.7302c0-1.90918 1.63842-2.86328 5.36547-3.27735 0-1.11621-.35986-2.19629-1.80029-2.19629a4.75313 4.75313 0 0 0 -2.61084.93653l-.57617-1.02637a6.49193 6.49193 0 0 1 3.439-1.13477c2.14258 0 3.043 1.42286 3.043 3.60157v5.36523h-1.22443l-.12622-1.04394h-.054a4.67054 4.67054 0 0 1 -2.89868 1.25976 2.381 2.381 0 0 1 -2.55684-2.48437zm5.36547.126v-2.43066c-2.91674.36035-3.925 1.08008-3.925 2.19629 0 .99023.68432 1.4043 1.54858 1.4043a3.54735 3.54735 0 0 0 2.37642-1.16996z"/><path d="m258.667 455.58176.28809-1.16992a2.58544 2.58544 0 0 0 .666.126c.99048 0 1.62061-.793 1.98072-1.873l.198-.64844-3.511-8.76855h1.53052l1.78247 4.84375c.27.75585.57617 1.65625.84619 2.46679h.072c.2522-.792.50415-1.69238.73828-2.46679l1.56641-4.84375h1.44043l-3.29493 9.47167c-.6123 1.72852-1.51245 3.042-3.27685 3.042a2.89759 2.89759 0 0 1 -1.02633-.17976z"/><path d="m271.501 450.77414h2.6289v-8.46191h-2.08862v-.95508a6.829 6.829 0 0 0 2.43066-.8457h1.13428v10.26269h2.37671v1.22461h-6.48193z"/><path d="m383.93018 440.18528h2.95263c3.63721 0 5.582 2.10644 5.582 5.85156 0 3.76367-1.94482 5.96-5.50976 5.96h-3.0249zm2.84472 10.58691c2.75489 0 4.14112-1.74609 4.14112-4.73535 0-2.97071-1.38623-4.627-4.14112-4.627h-1.35058v9.36231z"/><path d="m394.20752 447.63938c0-2.86231 1.92676-4.60938 3.92529-4.60938 2.23242 0 3.49317 1.60254 3.49317 4.10547a5.70028 5.70028 0 0 1 -.0542.8457h-5.90578a2.90175 2.90175 0 0 0 2.917 3.043 3.95534 3.95534 0 0 0 2.17871-.68359l.522.97168a5.20963 5.20963 0 0 1 -2.88086.90039c-2.34085-.00003-4.19533-1.70999-4.19533-4.57327zm6.12207-.71973c0-1.76465-.79248-2.71875-2.16064-2.71875a2.7027 2.7027 0 0 0 -2.521 2.71875z"/><path d="m403.13525 447.63938c0-2.93457 1.96289-4.60938 4.21338-4.60938a3.63425 3.63425 0 0 1 2.55664 1.02637l-.75586.97266a2.5667 2.5667 0 0 0 -1.74658-.77442c-1.58447 0-2.73681 1.36817-2.73681 3.38477 0 1.999 1.09814 3.34961 2.70068 3.34961a3.11106 3.11106 0 0 0 2.05273-.88282l.648.99024a4.26771 4.26771 0 0 1 -2.82666 1.11621c-2.32277 0-4.10552-1.67383-4.10552-4.57324z"/><path d="m411.27148 449.72824c0-1.90918 1.63819-2.86328 5.36524-3.27734 0-1.11621-.35986-2.19629-1.80029-2.19629a4.75309 4.75309 0 0 0 -2.61084.93652l-.57618-1.02636a6.49194 6.49194 0 0 1 3.439-1.13477c2.14258 0 3.043 1.42285 3.043 3.60156v5.36524h-1.22461l-.126-1.04395h-.05371a4.67231 4.67231 0 0 1 -2.89893 1.25977 2.3808 2.3808 0 0 1 -2.55668-2.48438zm5.36524.126v-2.43066c-2.917.36035-3.92481 1.08007-3.92481 2.19629 0 .99023.68409 1.40429 1.54834 1.40429a3.54734 3.54734 0 0 0 2.37647-1.16994z"/><path d="m420.00146 455.57981.28809-1.16993a2.58713 2.58713 0 0 0 .666.126c.99023 0 1.6206-.793 1.98095-1.87305l.19776-.64843-3.51123-8.76856h1.53076l1.78271 4.84375c.27.75586.57618 1.65625.84619 2.4668h.07178c.252-.792.5044-1.69238.73828-2.4668l1.56641-4.84375h1.44043l-3.29492 9.47168c-.61231 1.72852-1.5127 3.042-3.27686 3.042a2.89887 2.89887 0 0 1 -1.02635-.17971z"/><path d="m432.1333 451.115c3.457-3.43945 5.40186-5.50976 5.40186-7.36426a2.035 2.035 0 0 0 -2.17871-2.251 3.3842 3.3842 0 0 0 -2.44874 1.38672l-.84619-.84668a4.50918 4.50918 0 0 1 3.47461-1.7461 3.19037 3.19037 0 0 1 3.43946 3.38477c0 2.16016-1.96289 4.30273-4.68164 7.14844.63037-.05469 1.33251-.1084 1.92675-.1084h3.33106v1.27832h-7.41846z"/><path d="m553.01611 440.18723h3.69089c2.4126 0 4.14111.86426 4.14111 3.31347a3.2253 3.2253 0 0 1 -2.66455 3.34864l3.00684 5.14941h-1.69238l-2.84473-4.9873h-2.14307v4.9873h-1.49414zm3.4751 5.59961c1.83643 0 2.86279-.75586 2.86279-2.28614 0-1.54882-1.02636-2.10742-2.86279-2.10742h-1.981v4.39356z"/><path d="m562.28564 447.64133c0-2.8623 1.92676-4.60938 3.9253-4.60938 2.23242 0 3.49316 1.60254 3.49316 4.10547a5.699 5.699 0 0 1 -.0542.84571h-5.90576a2.90175 2.90175 0 0 0 2.917 3.043 3.9553 3.9553 0 0 0 2.17871-.6836l.522.97168a5.20965 5.20965 0 0 1 -2.88086.90039c-2.34085-.00003-4.19535-1.70999-4.19535-4.57327zm6.12207-.71973c0-1.76465-.79248-2.71875-2.16064-2.71875a2.70271 2.70271 0 0 0 -2.521 2.71875z"/><path d="m571.86182 450.2341v-11.05566h1.47607v11.16406c0 .46778.19824.64844.41455.64844a1.235 1.235 0 0 0 .32373-.03613l.19824 1.11621a1.99251 1.99251 0 0 1 -.84619.14355c-1.11622 0-1.5664-.70215-1.5664-1.98047z"/><path d="m575.80322 447.64133c0-2.8623 1.92676-4.60938 3.9253-4.60938 2.23242 0 3.49316 1.60254 3.49316 4.10547a5.70033 5.70033 0 0 1 -.0542.84571h-5.90576a2.90175 2.90175 0 0 0 2.917 3.043 3.95532 3.95532 0 0 0 2.17871-.6836l.522.97168a5.20959 5.20959 0 0 1 -2.88085.90039c-2.34087-.00003-4.19536-1.70999-4.19536-4.57327zm6.12207-.71973c0-1.76465-.79248-2.71875-2.16064-2.71875a2.70271 2.70271 0 0 0 -2.521 2.71875z"/><path d="m584.58691 449.7302c0-1.90918 1.63868-2.86328 5.36573-3.27735 0-1.11621-.35987-2.19629-1.8003-2.19629a4.75316 4.75316 0 0 0 -2.61084.93653l-.57617-1.02637a6.49194 6.49194 0 0 1 3.439-1.13477c2.14258 0 3.043 1.42286 3.043 3.60157v5.36523h-1.22461l-.126-1.04394h-.05372a4.67236 4.67236 0 0 1 -2.89893 1.25976 2.38119 2.38119 0 0 1 -2.55716-2.48437zm5.36573.126v-2.43066c-2.91651.36035-3.9253 1.08008-3.9253 2.19629 0 .99023.68457 1.4043 1.54883 1.4043a3.54737 3.54737 0 0 0 2.37647-1.16996z"/><path d="m593.22656 451.00852.73828-.99024a3.93556 3.93556 0 0 0 2.5752 1.04395c1.15234 0 1.72851-.61231 1.72851-1.36817 0-.90039-1.04443-1.29687-1.999-1.65625-1.24219-.45019-2.61035-1.04492-2.61035-2.52148 0-1.4043 1.11621-2.48438 3.00684-2.48438a4.36937 4.36937 0 0 1 2.71875.99024l-.70215.93652a3.25035 3.25035 0 0 0 -1.999-.77441c-1.09814 0-1.602.59473-1.602 1.26074 0 .82813.9541 1.13379 1.94434 1.5127 1.26025.46777 2.665.99023 2.665 2.64648 0 1.42188-1.13428 2.61035-3.20508 2.61035a5.26594 5.26594 0 0 1 -3.25934-1.20605z"/><path d="m601.09277 447.64133c0-2.8623 1.92676-4.60938 3.9253-4.60938 2.23291 0 3.49316 1.60254 3.49316 4.10547a5.70033 5.70033 0 0 1 -.0542.84571h-5.90576a2.902 2.902 0 0 0 2.917 3.043 3.9553 3.9553 0 0 0 2.17871-.6836l.522.97168a5.20965 5.20965 0 0 1 -2.88086.90039c-2.34085-.00003-4.19535-1.70999-4.19535-4.57327zm6.12207-.71973c0-1.76465-.79248-2.71875-2.16064-2.71875a2.70271 2.70271 0 0 0 -2.521 2.71875z"/><path d="m666.69238 440.18723h6.80567v1.26077h-5.31153v3.709h4.4834v1.27833h-4.4834v4.28515h5.4917v1.27832h-6.98584z"/><path d="m676.03418 443.24778h1.22412l.126 1.26074h.0542a4.12514 4.12514 0 0 1 2.93506-1.47657c1.83642 0 2.66455 1.18848 2.66455 3.4209v5.5459h-1.47657v-5.34765c0-1.63868-.5039-2.34082-1.65625-2.34082-.90039 0-1.51269.46875-2.39453 1.35058v6.33789h-1.47656z"/><path d="m684.61914 443.24778h1.53076l1.65625 4.96972c.25244.86426.54053 1.74707.81055 2.5752h.07178c.25195-.82813.54-1.71094.79248-2.5752l1.65625-4.96972h1.45849l-3.09668 8.751h-1.72851z"/><path d="m693.56543 447.64133c0-2.8623 1.92676-4.60938 3.92529-4.60938 2.23291 0 3.49317 1.60254 3.49317 4.10547a5.70033 5.70033 0 0 1 -.0542.84571h-5.90576a2.902 2.902 0 0 0 2.917 3.043 3.95535 3.95535 0 0 0 2.17871-.6836l.522.97168a5.20963 5.20963 0 0 1 -2.88086.90039c-2.34086-.00003-4.19535-1.70999-4.19535-4.57327zm6.12207-.71973c0-1.76465-.79248-2.71875-2.16064-2.71875a2.70271 2.70271 0 0 0 -2.521 2.71875z"/><path d="m703.1416 450.2341v-11.05566h1.47656v11.16406c0 .46778.19776.64844.41407.64844a1.23311 1.23311 0 0 0 .32373-.03613l.19824 1.11621a1.99255 1.99255 0 0 1 -.84619.14355c-1.11621 0-1.56641-.70215-1.56641-1.98047z"/><path d="m707.083 447.64133c0-2.93457 1.90869-4.60938 4.05127-4.60938s4.05127 1.67481 4.05127 4.60938c0 2.89941-1.90869 4.57324-4.05127 4.57324s-4.05127-1.67383-4.05127-4.57324zm6.57226 0c0-2.0166-1.0083-3.38477-2.521-3.38477-1.49463 0-2.52051 1.36817-2.52051 3.38477 0 1.999 1.02588 3.34961 2.52051 3.34961 1.51274 0 2.52101-1.35059 2.52101-3.34961z"/><path d="m717.4873 443.24778h1.22413l.126 1.00878h.0542a4.52937 4.52937 0 0 1 2.791-1.22461c2.25049 0 3.457 1.74708 3.457 4.46583 0 2.9707-1.78272 4.71679-3.78125 4.71679a4.05675 4.05675 0 0 1 -2.43067-1.00781l.03614 1.53027v2.95313h-1.47655zm6.12159 4.25c0-1.92676-.64795-3.22364-2.30469-3.22364a3.68487 3.68487 0 0 0 -2.34033 1.18848v4.5918a3.463 3.463 0 0 0 2.14258.918c1.44043-.00004 2.50244-1.31449 2.50244-3.47464z"/><path d="m726.8291 447.64133c0-2.8623 1.92676-4.60938 3.92529-4.60938 2.23291 0 3.49317 1.60254 3.49317 4.10547a5.70033 5.70033 0 0 1 -.0542.84571h-5.90576a2.902 2.902 0 0 0 2.917 3.043 3.95535 3.95535 0 0 0 2.17871-.6836l.522.97168a5.2096 5.2096 0 0 1 -2.88086.90039c-2.34086-.00003-4.19535-1.70999-4.19535-4.57327zm6.12207-.71973c0-1.76465-.79248-2.71875-2.16064-2.71875a2.70271 2.70271 0 0 0 -2.521 2.71875z"/><path d="m673.95557 458.18723h1.69243l3.99707 11.81152h-1.60207l-1.1167-3.60156h-4.30322l-1.13428 3.60156h-1.5303zm-.95459 7.0039h3.54736l-.55811-1.80078c-.43212-1.31347-.81054-2.61035-1.18847-3.97851h-.07227c-.35986 1.36816-.73779 2.665-1.16992 3.97851z"/><path d="m681.17285 461.24778h1.22415l.126 1.26074h.0542a3.84585 3.84585 0 0 1 2.71875-1.47657 2.29552 2.29552 0 0 1 2.4126 1.67481 4.13586 4.13586 0 0 1 2.88086-1.67481c1.80078 0 2.665 1.18848 2.665 3.4209v5.5459h-1.47656v-5.34765c0-1.63868-.522-2.34082-1.6206-2.34082a3.21025 3.21025 0 0 0 -2.19629 1.35058v6.33789h-1.47656v-5.34765c0-1.63868-.52247-2.34082-1.63868-2.34082a3.28251 3.28251 0 0 0 -2.19629 1.35058v6.33789h-1.47656z"/><path d="m695.44629 465.64133c0-2.93457 1.90869-4.60938 4.05127-4.60938s4.05127 1.67481 4.05127 4.60938c0 2.89941-1.90869 4.57324-4.05127 4.57324s-4.05127-1.67383-4.05127-4.57324zm6.57226 0c0-2.0166-1.0083-3.38477-2.521-3.38477-1.49463 0-2.52051 1.36817-2.52051 3.38477 0 1.999 1.02588 3.34961 2.52051 3.34961 1.5127 0 2.521-1.35059 2.521-3.34961z"/><path d="m705.72461 466.79367v-5.54589h1.49414v5.34765c0 1.63867.48633 2.34082 1.63867 2.34082.90039 0 1.53028-.45019 2.3584-1.47656v-6.21191h1.47656v8.751h-1.22412l-.126-1.36816h-.0542a3.6983 3.6983 0 0 1 -2.88086 1.584c-1.85447-.00005-2.68259-1.18852-2.68259-3.42095z"/><path d="m715.64209 461.24778h1.22412l.126 1.26074h.0542a4.12514 4.12514 0 0 1 2.93506-1.47657c1.83642 0 2.66455 1.18848 2.66455 3.4209v5.5459h-1.47657v-5.34765c0-1.63868-.5039-2.34082-1.65625-2.34082-.90039 0-1.51269.46875-2.395 1.35058v6.33789h-1.47607z"/><path d="m725.74023 467.29758v-4.84277h-1.29638v-1.11621l1.36865-.09082.17969-2.44825h1.24267v2.44825h2.3584v1.207h-2.3584v4.86132c0 1.08008.3418 1.69239 1.3501 1.69239a3.16853 3.16853 0 0 0 .99024-.23438l.28808 1.11621a5.39688 5.39688 0 0 1 -1.62012.32422c-1.87255.00003-2.50293-1.18844-2.50293-2.91696z"/><path d="m328.811 382.24778h6.80615v1.26074h-5.31153v3.709h4.4834v1.27832h-4.4834v4.28516h5.4917v1.27832h-6.98632z"/><path d="m338.15283 385.30832h1.22461l.126 1.26074h.05395a4.12558 4.12558 0 0 1 2.93482-1.47656c1.83667 0 2.66479 1.18848 2.66479 3.4209v5.5459h-1.47632v-5.34766c0-1.63867-.50415-2.34082-1.65649-2.34082-.90039 0-1.51245.46875-2.39478 1.35059v6.33789h-1.47656z"/><path d="m346.73853 385.30832h1.53047l1.6565 4.96973c.25195.86426.54 1.74707.8103 2.57519h.07178c.25219-.82812.54028-1.71093.79248-2.57519l1.65625-4.96973h1.45849l-3.09692 8.751h-1.72848z"/><path d="m355.68457 389.70188c0-2.86231 1.92676-4.60938 3.92529-4.60938 2.23267 0 3.49317 1.60254 3.49317 4.10547a5.70028 5.70028 0 0 1 -.0542.8457h-5.90576a2.902 2.902 0 0 0 2.917 3.043 3.95534 3.95534 0 0 0 2.17871-.68359l.522.97168a5.209 5.209 0 0 1 -2.88086.90039c-2.34061-.00003-4.19535-1.70999-4.19535-4.57327zm6.12207-.71973c0-1.76465-.79248-2.71875-2.16064-2.71875a2.70271 2.70271 0 0 0 -2.521 2.71875z"/><path d="m365.26074 392.29465v-11.05565h1.47632v11.16406c0 .46777.198.64844.41406.64844a1.237 1.237 0 0 0 .32422-.03614l.198 1.11621a1.9916 1.9916 0 0 1 -.84619.14356c-1.11646-.00001-1.56641-.70213-1.56641-1.98048z"/><path d="m369.20215 389.70188c0-2.93457 1.90869-4.60938 4.05127-4.60938s4.05127 1.67481 4.05127 4.60938c0 2.89941-1.90869 4.57324-4.05127 4.57324s-4.05127-1.67383-4.05127-4.57324zm6.572 0c0-2.0166-1.0083-3.38477-2.52075-3.38477-1.49439 0-2.52075 1.36817-2.52075 3.38477 0 1.999 1.02636 3.34961 2.52075 3.34961 1.51247 0 2.52077-1.35059 2.52077-3.34961z"/><path d="m379.60645 385.30832h1.22412l.12622 1.00879h.05395a4.52992 4.52992 0 0 1 2.79077-1.22461c2.25074 0 3.457 1.74707 3.457 4.46582 0 2.97071-1.78247 4.7168-3.781 4.7168a4.0573 4.0573 0 0 1 -2.43066-1.00781l.03588 1.53027v2.95312h-1.47631zm6.12158 4.25c0-1.92676-.64795-3.22363-2.30469-3.22363a3.686 3.686 0 0 0 -2.34058 1.18848v4.59183a3.46353 3.46353 0 0 0 2.14258.918c1.44043-.00007 2.50266-1.31452 2.50266-3.47468z"/><path d="m388.94775 389.70188c0-2.86231 1.92676-4.60938 3.9253-4.60938 2.23266 0 3.49316 1.60254 3.49316 4.10547a5.70028 5.70028 0 0 1 -.0542.8457h-5.90576a2.902 2.902 0 0 0 2.917 3.043 3.95529 3.95529 0 0 0 2.17871-.68359l.522.97168a5.209 5.209 0 0 1 -2.88086.90039c-2.34061-.00003-4.19535-1.70999-4.19535-4.57327zm6.12207-.71973c0-1.76465-.79248-2.71875-2.16064-2.71875a2.70271 2.70271 0 0 0 -2.521 2.71875z"/><path d="m402.26807 382.24778h1.80029l2.2688 6.30175c.28808.81055.5581 1.65625.84619 2.4668h.072c.28809-.81055.52222-1.65625.8103-2.4668l2.23267-6.30175h1.8186v11.81152h-1.40452v-6.5c0-1.04395.126-2.44824.19824-3.49317h-.07226l-.936 2.68262-2.23291 6.12207h-.99023l-2.23267-6.12207-.93628-2.68262h-.072c.072 1.04493.18018 2.44922.18018 3.49317v6.5h-1.35034z"/><path d="m415.0835 390.85422v-5.5459h1.49462v5.34768c0 1.63867.48584 2.34082 1.63819 2.34082.90039 0 1.53076-.4502 2.35889-1.47656v-6.21192h1.47656v8.751h-1.22461l-.126-1.36817h-.05371a3.69976 3.69976 0 0 1 -2.88086 1.584c-1.85471-.00005-2.68308-1.18853-2.68308-3.42095z"/><path d="m425.00146 392.29465v-11.05565h1.47608v11.16406c0 .46777.19824.64844.41455.64844a1.23468 1.23468 0 0 0 .32373-.03614l.19824 1.11621a1.99233 1.99233 0 0 1 -.84619.14356c-1.11621-.00001-1.56641-.70213-1.56641-1.98048z"/><path d="m429.84326 391.35813v-4.84278h-1.29638v-1.11621l1.36816-.09082.18017-2.44824h1.24268v2.44824h2.3584v1.207h-2.3584v4.86133c0 1.08008.3418 1.69238 1.3501 1.69238a3.16839 3.16839 0 0 0 .99023-.23437l.28809 1.11621a5.39688 5.39688 0 0 1 -1.62012.32422c-1.87256.00003-2.50293-1.18845-2.50293-2.91696z"/><path d="m435.40527 382.55344a1.02884 1.02884 0 0 1 2.05225 0 1.02877 1.02877 0 0 1 -2.05225 0zm.27 2.75488h1.47608v8.751h-1.47608z"/><path d="m440.103 385.30832h1.22412l.126 1.00879h.0542a4.53055 4.53055 0 0 1 2.791-1.22461c2.25049 0 3.457 1.74707 3.457 4.46582 0 2.97071-1.78271 4.7168-3.78125 4.7168a4.0579 4.0579 0 0 1 -2.43066-1.00781l.03564 1.53027v2.95312h-1.47605zm6.12158 4.25c0-1.92676-.64795-3.22363-2.30469-3.22363a3.6859 3.6859 0 0 0 -2.34082 1.18848v4.59183a3.46515 3.46515 0 0 0 2.14307.918c1.44046-.00007 2.50247-1.31452 2.50247-3.47468z"/><path d="m450.09277 392.29465v-11.05565h1.47657v11.16406c0 .46777.19775.64844.41406.64844a1.23279 1.23279 0 0 0 .32373-.03614l.19824 1.11621a1.99233 1.99233 0 0 1 -.84619.14356c-1.11618-.00001-1.56641-.70213-1.56641-1.98048z"/><path d="m454.4126 382.55344a1.02884 1.02884 0 0 1 2.05224 0 1.02876 1.02876 0 0 1 -2.05224 0zm.27 2.75488h1.47656v8.751h-1.47656z"/><path d="m458.46191 389.70188c0-2.86231 1.92676-4.60938 3.9253-4.60938 2.23291 0 3.49316 1.60254 3.49316 4.10547a5.70028 5.70028 0 0 1 -.0542.8457h-5.90576a2.902 2.902 0 0 0 2.917 3.043 3.95529 3.95529 0 0 0 2.17871-.68359l.522.97168a5.20965 5.20965 0 0 1 -2.88086.90039c-2.34085-.00003-4.19535-1.70999-4.19535-4.57327zm6.12207-.71973c0-1.76465-.79248-2.71875-2.16064-2.71875a2.70271 2.70271 0 0 0 -2.521 2.71875z"/><path d="m468.03809 385.30832h1.22412l.126 1.585h.0542a2.99317 2.99317 0 0 1 2.48487-1.80078 2.17377 2.17377 0 0 1 .936.17969l-.28808 1.29687a2.45191 2.45191 0 0 0 -.8462-.14453c-.73828 0-1.6206.541-2.21435 2.01758v5.61719h-1.47656z"/><path d="m334.79541 26.91672h6.80615v1.26074h-5.31156v3.709h4.4834v1.27832h-4.4834v4.28515h5.4917v1.27832h-6.98633z"/><path d="m344.13721 29.97727h1.22461l.126 1.26074h.054a4.12552 4.12552 0 0 1 2.93481-1.47656c1.83667 0 2.6648 1.18847 2.6648 3.4209v5.54589h-1.47643v-5.34765c0-1.63867-.50415-2.34082-1.6565-2.34082-.90039 0-1.51245.46875-2.39477 1.35058v6.33789h-1.47656z"/><path d="m352.7229 29.97727h1.53052l1.65649 4.96972c.252.86426.54 1.74707.8103 2.5752h.07178c.2522-.82813.54029-1.71094.79248-2.5752l1.65625-4.96972h1.4585l-3.09693 8.751h-1.72851z"/><path d="m361.669 34.37082c0-2.8623 1.92675-4.60937 3.92529-4.60937 2.23266 0 3.49316 1.60254 3.49316 4.10547a5.69893 5.69893 0 0 1 -.0542.8457h-5.90576a2.902 2.902 0 0 0 2.917 3.043 3.95522 3.95522 0 0 0 2.17871-.6836l.522.97168a5.209 5.209 0 0 1 -2.88086.90039c-2.34066-.00003-4.19534-1.70999-4.19534-4.57327zm6.12207-.71972c0-1.76465-.79248-2.71875-2.16065-2.71875a2.70269 2.70269 0 0 0 -2.521 2.71875z"/><path d="m371.24512 36.9636v-11.05567h1.47632v11.16407c0 .46778.198.64844.41406.64844a1.23728 1.23728 0 0 0 .32422-.03613l.198 1.11621a1.99171 1.99171 0 0 1 -.84619.14355c-1.11646-.00001-1.56641-.70215-1.56641-1.98047z"/><path d="m375.18652 34.37082c0-2.93457 1.90869-4.60937 4.05127-4.60937s4.05127 1.6748 4.05127 4.60937c0 2.89942-1.90869 4.57324-4.05127 4.57324s-4.05127-1.67382-4.05127-4.57324zm6.572 0c0-2.0166-1.0083-3.38476-2.52075-3.38476-1.49438 0-2.52075 1.36816-2.52075 3.38476 0 1.999 1.02637 3.34961 2.52075 3.34961 1.51247 0 2.52077-1.35058 2.52077-3.34961z"/><path d="m385.59082 29.97727h1.22412l.12622 1.00879h.054a4.52984 4.52984 0 0 1 2.79077-1.22461c2.25073 0 3.457 1.74707 3.457 4.46582 0 2.9707-1.78247 4.71679-3.781 4.71679a4.05732 4.05732 0 0 1 -2.43066-1.00781l.03589 1.53028v2.95312h-1.47632zm6.12158 4.25c0-1.92676-.64795-3.22364-2.30469-3.22364a3.686 3.686 0 0 0 -2.34057 1.18848v4.5918a3.46357 3.46357 0 0 0 2.14258.918c1.44043-.00003 2.50268-1.31449 2.50268-3.47464z"/><path d="m394.93213 34.37082c0-2.8623 1.92676-4.60937 3.92529-4.60937 2.23267 0 3.49317 1.60254 3.49317 4.10547a5.70028 5.70028 0 0 1 -.0542.8457h-5.90577a2.902 2.902 0 0 0 2.917 3.043 3.95527 3.95527 0 0 0 2.17871-.6836l.522.97168a5.209 5.209 0 0 1 -2.88086.90039c-2.3406-.00003-4.19534-1.70999-4.19534-4.57327zm6.12207-.71972c0-1.76465-.79248-2.71875-2.16065-2.71875a2.7027 2.7027 0 0 0 -2.521 2.71875z"/><path d="m410.68311 26.91672h1.69238l3.99731 11.81152h-1.60254l-1.11645-3.60156h-4.30322l-1.13428 3.60156h-1.53052zm-.95435 7.00391h3.54712l-.55811-1.80078c-.43213-1.31348-.8103-2.61036-1.18847-3.97852h-.072c-.36011 1.36816-.73829 2.665-1.17041 3.97852z"/><path d="m417.8999 29.97727h1.22461l.126 1.26074h.0542a3.84491 3.84491 0 0 1 2.71875-1.47656 2.29624 2.29624 0 0 1 2.4126 1.6748 4.1349 4.1349 0 0 1 2.88085-1.6748c1.8003 0 2.66456 1.18847 2.66456 3.4209v5.54589h-1.47608v-5.34765c0-1.63867-.52246-2.34082-1.6206-2.34082a3.211 3.211 0 0 0 -2.19678 1.35058v6.33789h-1.47656v-5.34765c0-1.63867-.522-2.34082-1.63819-2.34082a3.28231 3.28231 0 0 0 -2.19678 1.35058v6.33789h-1.47658z"/><path d="m432.17334 34.37082c0-2.93457 1.90869-4.60937 4.05127-4.60937s4.05127 1.6748 4.05127 4.60937c0 2.89942-1.90869 4.57324-4.05127 4.57324s-4.05127-1.67382-4.05127-4.57324zm6.57227 0c0-2.0166-1.00831-3.38476-2.521-3.38476-1.49414 0-2.52051 1.36816-2.52051 3.38476 0 1.999 1.02637 3.34961 2.52051 3.34961 1.51269 0 2.521-1.35058 2.521-3.34961z"/><path d="m442.45166 35.52317v-5.5459h1.49414v5.34765c0 1.63868.48633 2.34082 1.63867 2.34082.90039 0 1.53028-.45019 2.35889-1.47656v-6.21191h1.47607v8.751h-1.22412l-.126-1.36816h-.0542a3.6983 3.6983 0 0 1 -2.88086 1.584c-1.85446-.00005-2.68259-1.18852-2.68259-3.42094z"/><path d="m452.36963 29.97727h1.22412l.126 1.26074h.0542a4.12513 4.12513 0 0 1 2.935-1.47656c1.83643 0 2.66456 1.18847 2.66456 3.4209v5.54589h-1.47651v-5.34765c0-1.63867-.5039-2.34082-1.65625-2.34082-.90039 0-1.51269.46875-2.395 1.35058v6.33789h-1.47607z"/><path d="m462.46777 36.02707v-4.84277h-1.29638v-1.11621l1.36865-.09082.17969-2.44824h1.24267v2.44824h2.3584v1.207h-2.3584v4.86133c0 1.08007.3418 1.69238 1.3501 1.69238a3.1684 3.1684 0 0 0 .99023-.23438l.28809 1.11622a5.39718 5.39718 0 0 1 -1.62012.32421c-1.87256.00003-2.50293-1.18844-2.50293-2.91696z"/></g><path d="m715.58008 500.8552c0-3.6377 1.30859-5.59278 3.48437-5.59278 2.15918 0 3.46778 1.95508 3.46778 5.59278s-1.3086 5.66015-3.46778 5.66015c-2.17578 0-3.48437-2.02246-3.48437-5.66015zm5.59228 0c0-3.17871-.85009-4.47071-2.10791-4.47071-1.2749 0-2.12451 1.292-2.12451 4.47071s.84961 4.53808 2.12451 4.53808c1.25782 0 2.10791-1.35937 2.10791-4.53808z" fill="#979797"/><path d="m723.87549 498.45774c0-2.22657 1.00293-3.501 2.53271-3.501 1.51319 0 2.53321 1.27441 2.53321 3.501 0 2.26074-1.02 3.53613-2.53321 3.53613-1.52978 0-2.53271-1.27539-2.53271-3.53613zm3.99463 0c0-1.76758-.59473-2.63477-1.46192-2.63477-.88379 0-1.47851.86719-1.47851 2.63477 0 1.76855.59472 2.66894 1.47851 2.66894.86719 0 1.46192-.90039 1.46192-2.66894zm5.01465-3.501h.95214l-6.1538 11.55859h-.95166zm-1.24073 8.02246c0-2.22656 1.00293-3.501 2.53272-3.501 1.51269 0 2.53271 1.27442 2.53271 3.501 0 2.26074-1.02 3.53613-2.53271 3.53613-1.52976.00002-2.53276-1.27533-2.53276-3.53611zm3.99463 0c0-1.76758-.59521-2.63477-1.46191-2.63477-.88379 0-1.479.86719-1.479 2.63477 0 1.76856.59522 2.66895 1.479 2.66895.8667.00002 1.46191-.90037 1.46191-2.66893z" fill="#979797"/><path d="m715.51172 555.10324c3.26367-3.24707 5.09961-5.20117 5.09961-6.95214a1.92059 1.92059 0 0 0 -2.05664-2.125 3.19845 3.19845 0 0 0 -2.312 1.30859l-.79883-.79883a4.2587 4.2587 0 0 1 3.28076-1.64844 3.01179 3.01179 0 0 1 3.24658 3.19532c0 2.04-1.85254 4.0625-4.41943 6.749.59472-.05176 1.25781-.10254 1.81885-.10254h3.14453v1.207h-7.00342z" fill="#979797"/><path d="m723.70557 554.66184.68017-.918a3.69074 3.69074 0 0 0 2.73682 1.24023 2.33988 2.33988 0 0 0 2.37939-2.48144 2.179 2.179 0 0 0 -2.31152-2.37988 3.05312 3.05312 0 0 0 -1.853.66308l-.74756-.47558.35694-5.21875h5.42236v1.207h-4.19873l-.28906 3.21191a3.3362 3.3362 0 0 1 1.666-.44141 3.1218 3.1218 0 0 1 3.36573 3.39942 3.54649 3.54649 0 0 1 -3.65479 3.67187 4.75744 4.75744 0 0 1 -3.55275-1.47845z" fill="#979797"/><path d="m732.32471 548.08274c0-2.22657 1.00293-3.501 2.53271-3.501 1.51319 0 2.5332 1.27441 2.5332 3.501 0 2.26074-1.02 3.53613-2.5332 3.53613-1.52978 0-2.53271-1.27539-2.53271-3.53613zm3.99463 0c0-1.76758-.59473-2.63477-1.46192-2.63477-.88379 0-1.47851.86719-1.47851 2.63477 0 1.76855.59472 2.66894 1.47851 2.66894.86719 0 1.46192-.90039 1.46192-2.66894zm5.01464-3.501h.95215l-6.15381 11.55859h-.95166zm-1.24072 8.02246c0-2.22656 1.00293-3.501 2.53272-3.501 1.51269 0 2.53271 1.27442 2.53271 3.501 0 2.26074-1.02 3.53613-2.53271 3.53613-1.52979.00002-2.53272-1.27533-2.53272-3.53611zm3.99463 0c0-1.76758-.59521-2.63477-1.46191-2.63477-.88379 0-1.479.86719-1.479 2.63477 0 1.76856.59522 2.66895 1.479 2.66895.8667.00002 1.46191-.90037 1.46191-2.66893z" fill="#979797"/><path d="m715.25684 604.28684.68017-.918a3.69074 3.69074 0 0 0 2.73682 1.24023 2.33988 2.33988 0 0 0 2.37939-2.48144 2.17876 2.17876 0 0 0 -2.31152-2.37988 3.05312 3.05312 0 0 0 -1.853.66308l-.74756-.47558.35694-5.21875h5.42236v1.207h-4.19873l-.28906 3.21191a3.3362 3.3362 0 0 1 1.666-.44141 3.122 3.122 0 0 1 3.36573 3.39942 3.54649 3.54649 0 0 1 -3.65479 3.67187 4.75744 4.75744 0 0 1 -3.55275-1.47845z" fill="#979797"/><path d="m724.02881 600.1052c0-3.6377 1.30859-5.59278 3.48437-5.59278 2.1587 0 3.46778 1.95508 3.46778 5.59278s-1.30908 5.66015-3.46778 5.66015c-2.17578 0-3.48437-2.02246-3.48437-5.66015zm5.59228 0c0-3.17871-.85009-4.47071-2.10791-4.47071-1.2749 0-2.12451 1.292-2.12451 4.47071s.84961 4.53808 2.12451 4.53808c1.25782 0 2.10791-1.35937 2.10791-4.53808z" fill="#979797"/><path d="m732.32471 597.70774c0-2.22657 1.00293-3.501 2.53271-3.501 1.51319 0 2.5332 1.27441 2.5332 3.501 0 2.26074-1.02 3.53613-2.5332 3.53613-1.52978 0-2.53271-1.27539-2.53271-3.53613zm3.99463 0c0-1.76758-.59473-2.63477-1.46192-2.63477-.88379 0-1.47851.86719-1.47851 2.63477 0 1.76855.59472 2.66894 1.47851 2.66894.86719 0 1.46192-.90039 1.46192-2.66894zm5.01464-3.501h.95215l-6.15381 11.55859h-.95166zm-1.24072 8.02246c0-2.22656 1.00293-3.501 2.53272-3.501 1.51269 0 2.53271 1.27442 2.53271 3.501 0 2.26074-1.02 3.53613-2.53271 3.53613-1.52979.00002-2.53272-1.27533-2.53272-3.53611zm3.99463 0c0-1.76758-.59521-2.63477-1.46191-2.63477-.88379 0-1.479.86719-1.479 2.63477 0 1.76856.59522 2.66895 1.479 2.66895.8667.00002 1.46191-.90037 1.46191-2.66893z" fill="#979797"/><path d="m720.98535 645.54856h-5.40527v-1.207h6.98633v.86718c-2.5669 3.28028-3.09375 5.74512-3.28077 9.97754h-1.44482a15.96077 15.96077 0 0 1 3.14453-9.63772z" fill="#979797"/><path d="m723.70557 653.91184.68017-.918a3.69074 3.69074 0 0 0 2.73682 1.24023 2.33988 2.33988 0 0 0 2.37939-2.48144 2.179 2.179 0 0 0 -2.31152-2.37988 3.05312 3.05312 0 0 0 -1.853.66308l-.74756-.47558.35694-5.21875h5.42236v1.207h-4.19873l-.28906 3.21191a3.3362 3.3362 0 0 1 1.666-.44141 3.1218 3.1218 0 0 1 3.36573 3.39942 3.54649 3.54649 0 0 1 -3.65479 3.67187 4.75744 4.75744 0 0 1 -3.55275-1.47845z" fill="#979797"/><path d="m732.32471 647.33274c0-2.22657 1.00293-3.501 2.53271-3.501 1.51319 0 2.5332 1.27441 2.5332 3.501 0 2.26074-1.02 3.53613-2.5332 3.53613-1.52978 0-2.53271-1.27539-2.53271-3.53613zm3.99463 0c0-1.76758-.59473-2.63477-1.46192-2.63477-.88379 0-1.47851.86719-1.47851 2.63477 0 1.76855.59472 2.66894 1.47851 2.66894.86719 0 1.46192-.90039 1.46192-2.66894zm5.01464-3.501h.95215l-6.15381 11.55859h-.95166zm-1.24072 8.02246c0-2.22656 1.00293-3.501 2.53272-3.501 1.51269 0 2.53271 1.27442 2.53271 3.501 0 2.26074-1.02 3.53613-2.53271 3.53613-1.52979.00002-2.53272-1.27533-2.53272-3.53611zm3.99463 0c0-1.76758-.59521-2.63477-1.46191-2.63477-.88379 0-1.479.86719-1.479 2.63477 0 1.76856.59522 2.66895 1.479 2.66895.8667.00002 1.46191-.90037 1.46191-2.66893z" fill="#979797"/><path d="m716.1748 703.655h2.48194v-7.98926h-1.97168v-.90039a6.45594 6.45594 0 0 0 2.29443-.79882h1.0708v9.68847h2.24414v1.15625h-6.11963z" fill="#979797"/><path d="m724.02881 699.3552c0-3.6377 1.30859-5.59278 3.48437-5.59278 2.1587 0 3.46778 1.95508 3.46778 5.59278s-1.30908 5.66015-3.46778 5.66015c-2.17578 0-3.48437-2.02246-3.48437-5.66015zm5.59228 0c0-3.17871-.85009-4.47071-2.10791-4.47071-1.2749 0-2.12451 1.292-2.12451 4.47071s.84961 4.53808 2.12451 4.53808c1.25782 0 2.10791-1.35937 2.10791-4.53808z" fill="#979797"/><path d="m732.478 699.3552c0-3.6377 1.30859-5.59278 3.48437-5.59278 2.15869 0 3.46778 1.95508 3.46778 5.59278s-1.30909 5.66015-3.46778 5.66015c-2.17575 0-3.48437-2.02246-3.48437-5.66015zm5.59228 0c0-3.17871-.8501-4.47071-2.10791-4.47071-1.2749 0-2.12451 1.292-2.12451 4.47071s.84961 4.53808 2.12451 4.53808c1.25784 0 2.10794-1.35937 2.10794-4.53808z" fill="#979797"/><path d="m740.77344 696.95774c0-2.22657 1.00293-3.501 2.5332-3.501 1.5127 0 2.53272 1.27441 2.53272 3.501 0 2.26074-1.02 3.53613-2.53272 3.53613-1.53027 0-2.5332-1.27539-2.5332-3.53613zm3.99463 0c0-1.76758-.59473-2.63477-1.46143-2.63477-.88428 0-1.479.86719-1.479 2.63477 0 1.76855.59472 2.66894 1.479 2.66894.8667 0 1.46143-.90039 1.46143-2.66894zm5.01464-3.501h.95215l-6.15381 11.55859h-.95166zm-1.24072 8.02246c0-2.22656 1.00293-3.501 2.53272-3.501 1.51269 0 2.53271 1.27442 2.53271 3.501 0 2.26074-1.02 3.53613-2.53271 3.53613-1.52979.00002-2.53271-1.27533-2.53271-3.53611zm3.99463 0c0-1.76758-.59521-2.63477-1.46191-2.63477-.88379 0-1.479.86719-1.479 2.63477 0 1.76856.59522 2.66895 1.479 2.66895.8667.00002 1.46191-.90037 1.46191-2.66893z" fill="#979797"/><path d="m204.219 284.27121h2.46167v-7.9248h-1.95581v-.89356a6.41579 6.41579 0 0 0 2.27613-.792h1.06225v9.61035h2.22559v1.14649h-6.06983z" fill="#cacaca"/><path d="m212.365 284.57492a1.006 1.006 0 1 1 2.00659 0 1.00413 1.00413 0 1 1 -2.00659 0z" fill="#cacaca"/><path d="m216.21045 280.00559c0-3.6084 1.29834-5.54785 3.45654-5.54785 2.14112 0 3.43946 1.93945 3.43946 5.54785s-1.29834 5.61426-3.43946 5.61426c-2.1582 0-3.45654-2.00585-3.45654-5.61426zm5.54712 0c0-3.15332-.843-4.43457-2.09058-4.43457-1.26465 0-2.10766 1.28125-2.10766 4.43457 0 3.15234.843 4.502 2.10766 4.502 1.24756-.00005 2.09058-1.34966 2.09058-4.502z" fill="#cacaca"/><path d="m186.83057 301.05735h6.37329v1.17965h-4.97386v3.47364h4.19824v1.19726h-4.19824v4.0127h5.14258v1.19726h-6.542z" fill="#cacaca"/><path d="m195.58374 303.92356h1.14648l.11817 1.18066h.05054a3.86 3.86 0 0 1 2.74829-1.38281c1.72 0 2.49536 1.1123 2.49536 3.20312v5.19336h-1.38258v-5.00781c0-1.53418-.47192-2.19141-1.551-2.19141-.84326 0-1.4165.4375-2.24267 1.26368v5.93554h-1.38257z" fill="#cacaca"/><path d="m203.62891 303.92356h1.4331l1.55127 4.65332c.23609.80957.50586 1.63574.75879 2.41113h.06738c.23609-.77539.50586-1.60156.742-2.41113l1.551-4.65332h1.36572l-2.8999 8.19433h-1.61865z" fill="#cacaca"/><path d="m218.46948 301.05735h1.585l3.74317 11.06054h-1.50073l-1.04542-3.37207h-4.02978l-1.062 3.37207h-1.43335zm-.89355 6.55859h3.32153l-.5227-1.68555c-.40455-1.23144-.75879-2.44531-1.1128-3.72656h-.06738c-.33716 1.28125-.69141 2.49512-1.09595 3.72656z" fill="#cacaca"/><path d="m99.99902 701.99827h578.91553" fill="none" stroke="#979797"/><path d="m674.601 707.088-.682-.732 4.612-4.357-4.612-4.357.682-.733 5.398 5.09z" fill="#979797"/><path d="m119.99951 423.08445v298.91163" fill="none" stroke="#979797"/><path d="m114.91 427.398.732.682 4.357-4.612 4.357 4.612.732-.682-5.089-5.398z" fill="#979797"/><path d="m699.99902 501.99876v198.3728" fill="none" stroke="#979797"/><path d="m693.864 695.401 1.099-1.023 5.035 5.418 5.036-5.418 1.098 1.023-6.134 6.597z" fill="#979797"/><path d="m706.49951 501.99856h-13" fill="none" stroke="#979797"/><path d="m100.00032 502.00272 19.99899-.00264" fill="none" stroke="#979797"/><path d="m230.01407 279.79342 34.66524-.00248" fill="none" stroke="#7f7f7f" stroke-width="1.87385"/><path d="m485.07275 224.33299 56.99317-.00244" fill="none" stroke="#7f7f7f" stroke-width="1.87385"/><path d="m535.857 231.995-1.278-1.373 6.768-6.289-6.769-6.292 1.278-1.372 8.242 7.663z" fill="#7f7f7f"/><path d="m314.79883 232.35789.00244 34.63916" fill="none" stroke="#7f7f7f" stroke-width="1.87385"/><path d="m307.137 260.789 1.372-1.279 6.29 6.768 6.291-6.769 1.373 1.279-7.663 8.241z" fill="#7f7f7f"/><path d="m230.01407 306.49408 34.66524-.00248" fill="none" stroke="#7f7f7f" stroke-width="1.87385"/><path d="m468.676 242.761v51.084h-18.437l-18.437.001-48.437.001h-18.437" fill="none" stroke="#7f7f7f" stroke-width="1.87385"/><path d="m461.013 248.97 1.372 1.279 6.29-6.769 6.291 6.769 1.372-1.279-7.663-8.241z" fill="#7f7f7f"/><path d="m364.921 156.336h18.439 48.439 18.439 18.438v49.569" fill="none" stroke="#7f7f7f" stroke-width="1.87385"/><path d="m461.013 199.696 1.372-1.279 6.29 6.769 6.291-6.769 1.372 1.279-7.663 8.241z" fill="#7f7f7f"/><circle cx="468.67643" cy="224.33296" fill="#4d4d4d" r="16.39617"/><circle cx="468.67643" cy="224.33296" fill="none" r="16.39617" stroke="#979797" stroke-width="1.87385"/><path d="m461.61931 217.27584 14.11424 14.11425" fill="none" stroke="#ccc" stroke-width="1.85348"/><path d="m461.61931 231.39009 14.11424-14.11425" fill="none" stroke="#ccc" stroke-width="1.85348"/><path d="m160.00005 701.99826v-239.99998" fill="none" stroke="#666" stroke-dasharray="4 2"/><path d="m119.99931 502.00008h100.00073" fill="none" stroke="#666" stroke-dasharray="4 2"/><path d="m220.00004 701.99826v-239.99998" fill="none" stroke="#666" stroke-dasharray="4 2"/><path d="m280.00002 701.99826v-239.99998" fill="none" stroke="#666" stroke-dasharray="4 2"/><path d="m519.99995 701.99826v-239.99998" fill="none" stroke="#666" stroke-dasharray="4 2"/><path d="m639.99991 701.99826v-239.99998" fill="none" stroke="#666" stroke-dasharray="4 2"/><path d="m639.99991 701.99826c-59.75014 0-105.76627-27.96258-120-50.432h-199.99991c-13.33244 0-26.67462-6.21716-40-19.54253l-60.03294-69.457-59.96706 139.43153" fill="none" stroke="#e9a460" stroke-width="1.4"/><path d="m639.99991 652.00912c-54.77088 0-99.36642-20.99448-120-37.824h-199.99991c-12.30119 0-26.70352-4.66286-39.99975-14.6569l-60.03291-52.09278-59.96734 104.57368" fill="none" stroke="#e9a460" stroke-width="1.4"/><path d="m639.99991 602.02c-49.79162 0-92.96657-14.02638-120-25.216h-199.99991c-11.26994 0-26.73243-3.10857-39.9995-9.77126l-60.03288-34.72852-59.96762 69.71578" fill="none" stroke="#e9a460" stroke-width="1.4"/><path d="m639.99991 552.03084c-44.81236 0-86.56672-7.05828-120-12.608h-199.99991a183.73756 183.73756 0 0 1 -39.99926-4.88563l-60.03284-17.36427-59.9679 34.8579" fill="none" stroke="#e9a460" stroke-width="1.4"/><path d="m639.99991 502.0417c-39.8331 0-80.16687-.09019-120 0h-359.99991" fill="none" stroke="#e9a460" stroke-width="1.4"/></svg>