<svg enable-background="new 0 0 3160 1460" viewBox="0 0 3160 1460" xmlns="http://www.w3.org/2000/svg"><path d="m1120 486v80h-460v-100h112.8983154" fill="none" stroke="#0089ff" stroke-width="2.6"/><path d="m763.4217529 477.6969299-1.9508667-2.094696 10.329773-9.5994263-10.329773-9.6022644 1.9508667-2.094696 12.5782471 11.6969604z" fill="#0089ff"/><path d="m980 426h52.898315" fill="none" stroke="#0089ff" stroke-width="2.6"/><path d="m1023.4217529 437.6969299-1.9508667-2.094696 10.329773-9.5994263-10.329773-9.6022644 1.9508667-2.094696 12.5782471 11.6969604z" fill="#0089ff"/><path d="m1240 426h58.898315" fill="none" stroke="#0089ff" stroke-width="2.6"/><path d="m1289.4217529 437.6969299-1.9509277-2.094696 10.329834-9.5994263-10.329834-9.6022644 1.9509277-2.094696 12.5782471 11.6969604z" fill="#0089ff"/><path d="m1354 426h172.898315" fill="none" stroke="#0089ff" stroke-width="2.6"/><path d="m1517.4217529 437.6969299-1.9509277-2.094696 10.329834-9.5994263-10.329834-9.6022644 1.9509277-2.094696 12.5782471 11.6969604z" fill="#0089ff"/><path d="m1646 426h63.898315" fill="none" stroke="#0089ff" stroke-width="2.6"/><path d="m1700.4217529 437.6969299-1.9509277-2.094696 10.329834-9.5994263-10.329834-9.6022644 1.9509277-2.094696 12.5782471 11.6969604z" fill="#0089ff"/><path d="m1772.5 426h127.5v160h112.8983154" fill="none" stroke="#0089ff" stroke-width="2.6"/><path d="m2003.4217529 597.6969604-1.9509277-2.0947265 10.329834-9.5994263-10.329834-9.6022339 1.9509277-2.0947265 12.5782471 11.6969604z" fill="#0089ff"/><path d="m2240 626h80v334.8983154" fill="none" stroke="#0089ff" stroke-width="2.6"/><path d="m2308.3029785 951.4217529 2.0947266-1.9508667 9.5996094 10.329773 9.6020507-10.329773 2.0947266 1.9508667-11.6967773 12.5782471z" fill="#0089ff"/><path d="m2520 993.5h37.898438" fill="none" stroke="#0089ff" stroke-width="2.6"/><path d="m2548.4216309 1005.1969604-1.9506836-2.0947265 10.3298339-9.5994263-10.3298339-9.6022339 1.9506836-2.0947265 12.5783691 11.6969604z" fill="#0089ff"/><path d="m2520 1018.5h37.898438" fill="none" stroke="#0089ff" stroke-width="2.6"/><path d="m2548.4216309 1030.1970215-1.9506836-2.0947266 10.3298339-9.5994873-10.3298339-9.6022339 1.9506836-2.0947265 12.5783691 11.6969604z" fill="#0089ff"/><path d="m2695 996h105v150h-960v107.5h132.8983154" fill="none" stroke="#0089ff" stroke-width="2.6"/><path d="m1963.4217529 1265.1968994-1.9509277-2.0947265 10.329834-9.5993653-10.329834-9.6022949 1.9509277-2.0947266 12.5782471 11.6970215z" fill="#0089ff"/><path d="m2695 1016h85v110h-960v152.5h152.8983154" fill="none" stroke="#0089ff" stroke-width="2.6"/><path d="m1963.4217529 1290.1968994-1.9509277-2.0947265 10.329834-9.5993653-10.329834-9.6022949 1.9509277-2.0947266 12.5782471 11.6970215z" fill="#0089ff"/><path d="m2120 1253.5h52.898438" fill="none" stroke="#0089ff" stroke-width="2.6"/><path d="m2163.4216309 1265.1968994-1.9506836-2.0947265 10.3298339-9.5993653-10.3298339-9.6022949 1.9506836-2.0947266 12.5783691 11.6970215z" fill="#0089ff"/><path d="m2120 1278.5h52.898438" fill="none" stroke="#0089ff" stroke-width="2.6"/><path d="m2163.4216309 1290.1968994-1.9506836-2.0947265 10.3298339-9.5993653-10.3298339-9.6022949 1.9506836-2.0947266 12.5783691 11.6970215z" fill="#0089ff"/><path d="m2320 1253.5h52.898438" fill="none" stroke="#0089ff" stroke-width="2.6"/><path d="m2363.4216309 1265.1968994-1.9506836-2.0947265 10.3298339-9.5993653-10.3298339-9.6022949 1.9506836-2.0947266 12.5783691 11.6970215z" fill="#0089ff"/><path d="m2320 1278.5h52.898438" fill="none" stroke="#0089ff" stroke-width="2.6"/><path d="m2363.4216309 1290.1968994-1.9506836-2.0947265 10.3298339-9.5993653-10.3298339-9.6022949 1.9506836-2.0947266 12.5783691 11.6970215z" fill="#0089ff"/><path d="m2520 1253.5h52.898438" fill="none" stroke="#0089ff" stroke-width="2.6"/><path d="m2563.4216309 1265.1968994-1.9506836-2.0947265 10.3298339-9.5993653-10.3298339-9.6022949 1.9506836-2.0947266 12.5783691 11.6970215z" fill="#0089ff"/><path d="m2520 1278.5h52.898438" fill="none" stroke="#0089ff" stroke-width="2.6"/><path d="m2563.4216309 1290.1968994-1.9506836-2.0947265 10.3298339-9.5993653-10.3298339-9.6022949 1.9506836-2.0947266 12.5783691 11.6970215z" fill="#0089ff"/><path d="m2720 1253.5h52.898438" fill="none" stroke="#0089ff" stroke-width="2.6"/><path d="m2763.4216309 1265.1968994-1.9506836-2.0947265 10.3298339-9.5993653-10.3298339-9.6022949 1.9506836-2.0947266 12.5783691 11.6970215z" fill="#0089ff"/><path d="m2720 1278.5h52.898438" fill="none" stroke="#0089ff" stroke-width="2.6"/><path d="m2763.4216309 1290.1968994-1.9506836-2.0947265 10.3298339-9.5993653-10.3298339-9.6022949 1.9506836-2.0947266 12.5783691 11.6970215z" fill="#0089ff"/><path d="m2920 1253.5h156.898438" fill="none" stroke="#0089ff" stroke-width="2.6"/><path d="m3067.4216309 1265.1968994-1.9506836-2.0947265 10.3298339-9.5993653-10.3298339-9.6022949 1.9506836-2.0947266 12.5783691 11.6970215z" fill="#0089ff"/><path d="m2920 1278.5h156.898438" fill="none" stroke="#0089ff" stroke-width="2.6"/><g fill="#0089ff"><path d="m3067.4216309 1290.1968994-1.9506836-2.0947265 10.3298339-9.5993653-10.3298339-9.6022949 1.9506836-2.0947266 12.5783691 11.6970215z"/><path d="m1900 591c-2.75 0-5-2.25-5-5 0-2.75 2.25-5 5-5 2.75 0 5 2.25 5 5 0 2.75-2.25 5-5 5z" stroke="#0089ff" stroke-width="4"/><path d="m2320 631c-2.75 0-5-2.25-5-5 0-2.75 2.25-5 5-5 2.75 0 5 2.25 5 5 0 2.75-2.25 5-5 5z" stroke="#0089ff" stroke-width="4"/><path d="m1900 431c-2.75 0-5-2.25-5-5 0-2.75 2.25-5 5-5 2.75 0 5 2.25 5 5 0 2.75-2.25 5-5 5z" stroke="#0089ff" stroke-width="4"/><path d="m2345 910h-50c-7.6999512 0-14-6.2999878-14-14 0-7.7000122 6.3000488-14 14-14h50c7.6999512 0 14 6.2999878 14 14 0 7.7000122-6.3000488 14-14 14z"/><path d="m734 480h-28c-7.7000122 0-14-6.2999878-14-14 0-7.7000122 6.2999878-14 14-14h28c7.7000122 0 14 6.2999878 14 14 0 7.7000122-6.2999878 14-14 14z"/><path d="m1879 1267c-7.6999512 0-14-6.3000488-14-14 0-7.6999512 6.3000488-14 14-14 7.6999512 0 14 6.3000488 14 14 0 7.6999512-6.3000488 14-14 14z"/><path d="m1956 600c-7.6999512 0-14-6.2999878-14-13.999939v-.000061c0-7.7000122 6.3000488-14 14-14 7.6999512 0 14 6.2999878 14 14v.000061c0 7.6999512-6.3000488 13.999939-14 13.999939z"/><path d="m1913 1292c-7.6999512 0-14-6.3000488-14-14 0-7.6999512 6.3000488-14 14-14 7.6999512 0 14 6.3000488 14 14 0 7.6999512-6.3000488 14-14 14z"/><path d="m3005 1267.5c-7.6999512 0-14-6.3000488-14-14 0-7.6999512 6.3000488-14 14-14 7.6999512 0 14 6.3000488 14 14 0 7.6999512-6.3000488 14-14 14z"/><path d="m3039 1291.5c-7.6999512 0-14-6.3000488-14-14 0-7.6999512 6.3000488-14 14-14 7.6999512 0 14 6.3000488 14 14 0 7.6999512-6.3000488 14-14 14z"/></g><path d="m2290.8046875 896.6992188c0-5.1367188 3.2167969-8.1845703 7.1767578-8.1845703 1.96875 0 3.5527344.9365234 4.5361328 1.9921875l-1.4873047 1.7998047c-.8164062-.8154297-1.7529297-1.3681641-2.9765625-1.3681641-2.5683594 0-4.3925781 2.1601562-4.3925781 5.6884766 0 3.5771484 1.6806641 5.7373047 4.3203125 5.7373047 1.3925781 0 2.4726562-.6484375 3.3603516-1.6083984l1.4882812 1.7519531c-1.2724609 1.4638672-2.9287109 2.2802734-4.9443359 2.2802734-3.9609375-.0000001-7.0810547-2.8798829-7.0810547-8.0888672z"/><path d="m2304.4375 898.6191406c0-3.9355469 2.6640625-6.1923828 5.5917969-6.1923828 2.953125 0 5.6171875 2.2568359 5.6171875 6.1923828 0 3.9130859-2.6640625 6.1689453-5.6171875 6.1689453-2.9277344 0-5.5917969-2.2558593-5.5917969-6.1689453zm8.3759766 0c0-2.3759766-1.0556641-3.9355469-2.7841797-3.9355469-1.7275391 0-2.7597656 1.5595703-2.7597656 3.9355469 0 2.3525391 1.0322266 3.9130859 2.7597656 3.9130859 1.7285156.0000001 2.7841797-1.5605468 2.7841797-3.9130859z"/><path d="m2318.3808594 892.7148438h2.2802734l.1923828 1.6083984h.0957031c.984375-1.0566406 2.1367188-1.8964844 3.6005859-1.8964844 1.7275391 0 2.7119141.7919922 3.2636719 2.1123047 1.1289062-1.2001953 2.3046875-2.1123047 3.7929688-2.1123047 2.4960938 0 3.6484375 1.7041016 3.6484375 4.6806641v7.3925781h-2.7841797v-7.0322266c0-1.9443359-.5761719-2.6650391-1.8007812-2.6650391-.7441406 0-1.5595703.4804688-2.4716797 1.4648438v8.2324219h-2.7607422v-7.0322266c0-1.9443359-.5761719-2.6650391-1.8242188-2.6650391-.7197266 0-1.5595703.4804688-2.4716797 1.4648438v8.2324219h-2.7607422v-11.7851562z"/><path d="m2341.1083984 903.2519531h-.0712891l-.2402343 1.2480469h-2.1845703v-16.9453125h2.7607422v4.3681641l-.0722656 1.9677734c.984375-.8632812 2.2080078-1.4638672 3.4082031-1.4638672 2.9521484 0 4.65625 2.3525391 4.65625 5.9765625 0 4.0566406-2.4238281 6.3847656-5.0400391 6.3847656-1.0800781 0-2.2324219-.5517578-3.2167969-1.5361328zm5.4003907-4.8007812c0-2.3515625-.7675781-3.7441406-2.5439453-3.7441406-.8642578 0-1.6796875.4326172-2.5917969 1.3203125v5.4960938c.8398438.7207031 1.6796875.984375 2.3759766.984375 1.5595703-.0000001 2.7597656-1.3925782 2.7597656-4.0566407z"/><path d="m701.0078125 472.4833984 1.6318359-1.8955078c1.1279297 1.0556641 2.640625 1.7763672 4.0810547 1.7763672 1.7753906 0 2.7353516-.7929688 2.7353516-2.0166016 0-1.2958984-1.0078125-1.7041016-2.4238281-2.3046875l-2.1601562-.9355469c-1.5361328-.6484375-3.1679688-1.8720703-3.1679688-4.1767578 0-2.4960938 2.2080078-4.4160156 5.2802734-4.4160156 1.8242188 0 3.6005859.7675781 4.8242188 1.9921875l-1.4160156 1.7763672c-1.0078125-.8398438-2.0644531-1.3447266-3.4082031-1.3447266-1.4882812 0-2.4726562.6962891-2.4726562 1.8486328 0 1.2236328 1.2001953 1.6796875 2.4960938 2.2080078l2.1367188.8876953c1.8476562.7929688 3.1679688 1.96875 3.1679688 4.2490234 0 2.5439453-2.1123047 4.65625-5.640625 4.65625-2.1113284.0000001-4.1757815-.8398436-5.6640628-2.3046874z"/><path d="m714.1601562 468.6191406c0-3.8398438 2.6640625-6.1923828 5.4238281-6.1923828 3.1923828 0 4.8730469 2.3046875 4.8730469 5.5927734 0 .5283203-.0478516 1.0556641-.1201172 1.34375h-7.4892578c.2402344 2.0888672 1.5849609 3.2880859 3.4804688 3.2880859 1.0087891 0 1.8720703-.3115234 2.7363281-.8632812l.9365234 1.7275391c-1.1279297.7441406-2.5449219 1.2724609-4.0322266 1.2724609-3.2646483 0-5.8085937-2.2802734-5.8085937-6.1689453zm7.8964844-1.1279297c0-1.8242188-.7919922-2.9277344-2.4003906-2.9277344-1.3916016 0-2.5917969 1.0322266-2.8320312 2.9277344z"/><path d="m727.0957031 471.4755859v-13.9208984h2.7607422v14.0654297c0 .671875.3115234.9121094.5996094.9121094.1201172 0 .2158203 0 .4326172-.0488281l.359375 2.0644531c-.3359375.1445312-.8154297.2402344-1.4638672.2402344-1.9677735-.0000001-2.6884766-1.272461-2.6884766-3.3125001z"/><path d="m734.0800781 464.8994141h-1.5839844v-2.0644531l1.5839844-.1201172v-1.2236328c0-2.4482422 1.1279297-4.2246094 3.9121094-4.2246094.8398438 0 1.6318359.1923828 2.1601562.4082031l-.5283203 2.0634766c-.4316406-.1914062-.8876953-.2871094-1.2958984-.2871094-.9599609 0-1.4882812.6240234-1.4882812 1.9921875v1.2714844h2.3046875v2.1845703h-2.3046875v9.6005859h-2.7597656v-9.6005859z"/><path d="m1874.7441406 1246.0625h2.7841797v13.3447266h6.5283203v2.3525391h-9.3125z"/><path d="m1908.2490234 1271.0625h5.3046875c3.2636719 0 5.7607422 1.1523438 5.7607422 4.65625 0 2.4003906-1.2490234 3.8408203-3.1210938 4.4882812l3.7451172 6.5527344h-3.1210938l-3.3837891-6.1445312h-2.4003906v6.1445312h-2.7841797v-15.6972656zm5.0166016 7.3447266c2.1357422 0 3.3125-.9121094 3.3125-2.6884766 0-1.7998047-1.1767578-2.4238281-3.3125-2.4238281h-2.2324219v5.1123047z"/><path d="m1954.3681641 577.96875h3.2646484l5.1123047 15.6972656h-2.9287109l-1.2236328-4.2480469h-5.2802735l-1.2246094 4.2480469h-2.8320312zm-.4082032 9.2646484h4.0087891l-.5527344-1.9199219c-.5039062-1.65625-.9599609-3.4560547-1.4160156-5.1845703h-.0957031c-.4316406 1.7519531-.8876953 3.5283203-1.3925781 5.1845703z"/><path d="m3000.7441406 1246.5625h2.7841797v13.3447266h6.5283203v2.3525391h-9.3125z"/><path d="m3034.2490234 1270.5625h5.3046875c3.2636719 0 5.7607422 1.1523438 5.7607422 4.65625 0 2.4003906-1.2490234 3.8408203-3.1210938 4.4882812l3.7451172 6.5527344h-3.1210938l-3.3837891-6.1445312h-2.4003906v6.1445312h-2.7841797v-15.6972656zm5.0166016 7.3447266c2.1357422 0 3.3125-.9121094 3.3125-2.6884766 0-1.7998047-1.1767578-2.4238281-3.3125-2.4238281h-2.2324219v5.1123047z"/></svg>