<svg enable-background="new 0 0 3720 1660" viewBox="0 0 3720 1660" xmlns="http://www.w3.org/2000/svg"><path d="m1013.071838 530h-57.071838" fill="none" stroke="#0089ff" stroke-width="3"/><path d="m1004.1254272 518.9573975-1.8417358 1.977539 9.7518921 9.062439-9.7518921 9.0650024 1.8417358 1.9775391 11.8745728-11.0425415z" fill="#0089ff"/><path d="m940 552.928162v61.071838" fill="none" stroke="#0089ff" stroke-width="3"/><path d="m928.9574585 561.8745728 1.977478 1.8417358 9.062439-9.7518921 9.0650635 9.7518921 1.977539-1.8417358-11.0426025-11.8745728z" fill="#0089ff"/><path d="m1717.0718994 670h-217.0718994v-140h-160" fill="none" stroke="#0089ff" stroke-width="3"/><path d="m1708.1253662 658.9574585-1.8416748 1.977478 9.7519531 9.062439-9.7519531 9.0650635 1.8416748 1.977539 11.8746338-11.0426025z" fill="#0089ff"/><path d="m1980 523.0718384v-33.0718384h-60v80h-44" fill="none" stroke="#0089ff" stroke-width="3"/><path d="m1991.0426025 514.1254272-1.977539-1.8417358-9.062378 9.7518921-9.0650634-9.7518921-1.9775391 1.8417358 11.0426025 11.8745728z" fill="#0089ff"/><path d="m1787.071899 670h-31.071899" fill="none" stroke="#0089ff" stroke-width="3"/><path d="m1778.1253662 658.9574585-1.8416748 1.977478 9.7519531 9.062439-9.7519531 9.0650635 1.8416748 1.977539 11.8746338-11.0426025z" fill="#0089ff"/><path d="m1860 616.9281616v53.0718384h-34" fill="none" stroke="#0089ff" stroke-width="3"/><path d="m1848.9573975 625.8745728 1.977539 1.8417358 9.062378-9.7518921 9.0650634 9.7518921 1.9775391-1.8417358-11.0426025-11.8745728z" fill="#0089ff"/><path d="m1173.071899 530h-73.071899" fill="none" stroke="#0089ff" stroke-width="3"/><path d="m1164.1253662 518.9573975-1.8416748 1.977539 9.7519531 9.062439-9.7519531 9.0650024 1.8416748 1.9775391 11.8746338-11.0425415z" fill="#0089ff"/><path d="m940 652.928162v21.071838" fill="none" stroke="#0089ff" stroke-width="3"/><path d="m928.9574585 661.8745728 1.977478 1.8417358 9.062439-9.7518921 9.0650635 9.7518921 1.977539-1.8417358-11.0426025-11.8745728z" fill="#0089ff"/><path d="m940 712.928162v41.071838" fill="none" stroke="#0089ff" stroke-width="3"/><path d="m928.9574585 721.8745728 1.977478 1.8417358 9.062439-9.7518921 9.0650635 9.7518921 1.977539-1.8417358-11.0426025-11.8745728z" fill="#0089ff"/><path d="m1013.071838 1230h-57.071838" fill="none" stroke="#0089ff" stroke-width="3"/><path d="m1004.1254272 1218.9573975-1.8417358 1.977539 9.7518921 9.062378-9.7518921 9.0650634 1.8417358 1.9775391 11.8745728-11.0426025z" fill="#0089ff"/><path d="m940 1087.071899v-21.071899" fill="none" stroke="#0089ff" stroke-width="3"/><path d="m951.0425415 1078.1253662-1.977478-1.8416748-9.062439 9.7519531-9.0650635-9.7519531-1.977539 1.8416748 11.0426025 11.8746338z" fill="#0089ff"/><path d="m940 1027.071777v-21.071777" fill="none" stroke="#0089ff" stroke-width="3"/><path d="m951.0425415 1018.1254272-1.977478-1.8417358-9.062439 9.7519531-9.0650635-9.7519531-1.977539 1.8417358 11.0426025 11.8745728z" fill="#0089ff"/><path d="m940 1207.071899v-81.071899" fill="none" stroke="#0089ff" stroke-width="3"/><path d="m951.0425415 1198.1253662-1.977478-1.8416748-9.062439 9.7519531-9.0650635-9.7519531-1.977539 1.8416748 11.0426025 11.8746338z" fill="#0089ff"/><path d="m940 969.5718384v-39.5718384h320v-220l120 .0007324v-180.0007324" fill="none" stroke="#0089ff" stroke-width="3"/><path d="m951.0425415 960.6254272-1.977478-1.8417358-9.062439 9.7518921-9.0650635-9.7518921-1.977539 1.8417358 11.0426025 11.8745728z" fill="#0089ff"/><path d="m1173.071899 1230h-73.071899" fill="none" stroke="#0089ff" stroke-width="3"/><path d="m1164.1253662 1218.9573975-1.8416748 1.977539 9.7519531 9.062378-9.7519531 9.0650634 1.8416748 1.9775391 11.8746338-11.0426025z" fill="#0089ff"/><path d="m940 790.4281616v39.5718384h440v400" fill="none" stroke="#0089ff" stroke-width="3"/><path d="m928.9574585 799.3745728 1.977478 1.8417358 9.062439-9.7518921 9.0650635 9.7518921 1.977539-1.8417358-11.0426025-11.8745728z" fill="#0089ff"/><path d="m1717.0718994 1370h-217.0718994v-140h-160" fill="none" stroke="#0089ff" stroke-width="3"/><path d="m1708.1253662 1358.9573975-1.8416748 1.977539 9.7519531 9.062378-9.7519531 9.0650634 1.8416748 1.9775391 11.8746338-11.0426025z" fill="#0089ff"/><path d="m2400 1103.0718994v-133.0718994h-306.0009766l.0012207 240h-98.0002441" fill="none" stroke="#0089ff" stroke-width="3"/><path d="m2411.0424805 1094.1253662-1.9775391-1.8416748-9.0622559 9.7519531-9.0651855-9.7519531-1.9775391 1.8416748 11.0427246 11.8746338z" fill="#0089ff"/><path d="m1980 1256.9281006v33.0718994h-60v-80h-44" fill="none" stroke="#0089ff" stroke-width="3"/><path d="m1968.9573975 1265.8746338 1.977539 1.8416748 9.062378-9.7519531 9.0650634 9.7519531 1.9775391-1.8416748-11.0426025-11.8746338z" fill="#0089ff"/><path d="m1787.071899 1370h-31.071899" fill="none" stroke="#0089ff" stroke-width="3"/><path d="m1778.1253662 1358.9573975-1.8416748 1.977539 9.7519531 9.062378-9.7519531 9.0650634 1.8416748 1.9775391 11.8746338-11.0426025z" fill="#0089ff"/><path d="m2893.071777 1136h-33.071777" fill="none" stroke="#0089ff" stroke-width="3"/><path d="m2884.1254883 1124.9573975-1.8417969 1.977539 9.7519531 9.062378-9.7519531 9.0650634 1.8417969 1.9775391 11.8745117-11.0426025z" fill="#0089ff"/><path d="m2893.071777 1164h-33.071777" fill="none" stroke="#0089ff" stroke-width="3"/><path d="m2884.1254883 1152.9573975-1.8417969 1.977539 9.7519531 9.062378-9.7519531 9.0650634 1.8417969 1.9775391 11.8745117-11.0426025z" fill="#0089ff"/><path d="m2991.071777 1136h-31.071777" fill="none" stroke="#0089ff" stroke-width="3"/><path d="m2982.1254883 1124.9573975-1.8417969 1.977539 9.7519531 9.062378-9.7519531 9.0650634 1.8417969 1.9775391 11.8745117-11.0426025z" fill="#0089ff"/><path d="m2991.071777 1164h-31.071777" fill="none" stroke="#0089ff" stroke-width="3"/><path d="m2982.1254883 1152.9573975-1.8417969 1.977539 9.7519531 9.062378-9.7519531 9.0650634 1.8417969 1.9775391 11.8745117-11.0426025z" fill="#0089ff"/><path d="m2453.071777 1406h-53.071777" fill="none" stroke="#0089ff" stroke-width="3"/><path d="m2444.1254883 1394.9573975-1.8417969 1.977539 9.7519531 9.062378-9.7519531 9.0650634 1.8417969 1.9775391 11.8745117-11.0426025z" fill="#0089ff"/><path d="m2453.071777 1434h-53.071777" fill="none" stroke="#0089ff" stroke-width="3"/><path d="m2444.1254883 1422.9573975-1.8417969 1.977539 9.7519531 9.062378-9.7519531 9.0650634 1.8417969 1.9775391 11.8745117-11.0426025z" fill="#0089ff"/><path d="m2673.071777 1406h-53.071777" fill="none" stroke="#0089ff" stroke-width="3"/><path d="m2664.1254883 1394.9573975-1.8417969 1.977539 9.7519531 9.062378-9.7519531 9.0650634 1.8417969 1.9775391 11.8745117-11.0426025z" fill="#0089ff"/><path d="m2673.071777 1434h-53.071777" fill="none" stroke="#0089ff" stroke-width="3"/><path d="m2664.1254883 1422.9573975-1.8417969 1.977539 9.7519531 9.062378-9.7519531 9.0650634 1.8417969 1.9775391 11.8745117-11.0426025z" fill="#0089ff"/><path d="m2893.071777 1406h-53.071777" fill="none" stroke="#0089ff" stroke-width="3"/><path d="m2884.1254883 1394.9573975-1.8417969 1.977539 9.7519531 9.062378-9.7519531 9.0650634 1.8417969 1.9775391 11.8745117-11.0426025z" fill="#0089ff"/><path d="m2893.071777 1434h-53.071777" fill="none" stroke="#0089ff" stroke-width="3"/><path d="m2884.1254883 1422.9573975-1.8417969 1.977539 9.7519531 9.062378-9.7519531 9.0650634 1.8417969 1.9775391 11.8745117-11.0426025z" fill="#0089ff"/><path d="m3113.071777 1406h-53.071777" fill="none" stroke="#0089ff" stroke-width="3"/><path d="m3104.1254883 1394.9573975-1.8417969 1.977539 9.7519531 9.062378-9.7519531 9.0650634 1.8417969 1.9775391 11.8745117-11.0426025z" fill="#0089ff"/><path d="m3113.071777 1434h-53.071777" fill="none" stroke="#0089ff" stroke-width="3"/><path d="m3104.1254883 1422.9573975-1.8417969 1.977539 9.7519531 9.062378-9.7519531 9.0650634 1.8417969 1.9775391 11.8745117-11.0426025z" fill="#0089ff"/><path d="m3353.071777 1406h-73.071777" fill="none" stroke="#0089ff" stroke-width="3"/><path d="m3344.1254883 1394.9573975-1.8417969 1.977539 9.7519531 9.062378-9.7519531 9.0650634 1.8417969 1.9775391 11.8745117-11.0426025z" fill="#0089ff"/><path d="m3353.071777 1434h-73.071777" fill="none" stroke="#0089ff" stroke-width="3"/><path d="m3344.1254883 1422.9573975-1.8417969 1.977539 9.7519531 9.062378-9.7519531 9.0650634 1.8417969 1.9775391 11.8745117-11.0426025z" fill="#0089ff"/><path d="m3433.071777 1406h-33.071777" fill="none" stroke="#0089ff" stroke-width="3"/><path d="m3424.1254883 1394.9573975-1.8417969 1.977539 9.7519531 9.062378-9.7519531 9.0650634 1.8417969 1.9775391 11.8745117-11.0426025z" fill="#0089ff"/><path d="m3433.071777 1434h-33.071777" fill="none" stroke="#0089ff" stroke-width="3"/><path d="m3424.1254883 1422.9573975-1.8417969 1.977539 9.7519531 9.062378-9.7519531 9.0650634 1.8417969 1.9775391 11.8745117-11.0426025z" fill="#0089ff"/><path d="m3621.071777 1407h-101.071777" fill="none" stroke="#0089ff" stroke-width="3"/><path d="m3612.1254883 1395.9573975-1.8417969 1.977539 9.7519531 9.062378-9.7519531 9.0650634 1.8417969 1.9775391 11.8745117-11.0426025z" fill="#0089ff"/><path d="m3621.071777 1433h-101.071777" fill="none" stroke="#0089ff" stroke-width="3"/><path d="m3612.1254883 1421.9573975-1.8417969 1.977539 9.7519531 9.062378-9.7519531 9.0650634 1.8417969 1.9775391 11.8745117-11.0426025z" fill="#0089ff"/><path d="m3113.071777 1136h-27.071777" fill="none" stroke="#0089ff" stroke-width="3"/><path d="m3104.1254883 1124.9573975-1.8417969 1.977539 9.7519531 9.062378-9.7519531 9.0650634 1.8417969 1.9775391 11.8745117-11.0426025z" fill="#0089ff"/><path d="m3113.071777 1164h-27.071777" fill="none" stroke="#0089ff" stroke-width="3"/><path d="m3104.1254883 1152.9573975-1.8417969 1.977539 9.7519531 9.062378-9.7519531 9.0650634 1.8417969 1.9775391 11.8745117-11.0426025z" fill="#0089ff"/><path d="m3253.071777 1136h-33.071777" fill="none" stroke="#0089ff" stroke-width="3"/><path d="m3244.1254883 1124.9573975-1.8417969 1.977539 9.7519531 9.062378-9.7519531 9.0650634 1.8417969 1.9775391 11.8745117-11.0426025z" fill="#0089ff"/><path d="m3253.071777 1164h-33.071777" fill="none" stroke="#0089ff" stroke-width="3"/><path d="m3244.1254883 1152.9573975-1.8417969 1.977539 9.7519531 9.062378-9.7519531 9.0650634 1.8417969 1.9775391 11.8745117-11.0426025z" fill="#0089ff"/><path d="m1860 1256.9281006v113.0718994h-34" fill="none" stroke="#0089ff" stroke-width="3"/><path d="m1848.9573975 1265.8746338 1.977539 1.8416748 9.062378-9.7519531 9.0650634 9.7519531 1.9775391-1.8416748-11.0426025-11.8746338z" fill="#0089ff"/><path d="m2180 1103.0718994v-533.0718994h-184" fill="none" stroke="#0089ff" stroke-width="3"/><path d="m2191.0424805 1094.1253662-1.9775391-1.8416748-9.0622559 9.7519531-9.0651855-9.7519531-1.9775391 1.8416748 11.0427246 11.8746338z" fill="#0089ff"/><path d="m2233.0717773 1433h-153.0717773v-183h1260v-90h-36" fill="none" stroke="#0089ff" stroke-width="3"/><path d="m2224.1254883 1421.9573975-1.8417969 1.977539 9.7519531 9.062378-9.7519531 9.0650634 1.8417969 1.9775391 11.8745117-11.0426025z" fill="#0089ff"/><path d="m2233.0717773 1407h-133.0717773v-137h1260v-130h-56" fill="none" stroke="#0089ff" stroke-width="3"/><g fill="#0089ff"><path d="m2224.1254883 1395.9573975-1.8417969 1.977539 9.7519531 9.062378-9.7519531 9.0650634 1.8417969 1.9775391 11.8745117-11.0426025z"/><path d="m2180 577c-3.8500977 0-7-3.1500244-7-7 0-3.8499756 3.1499023-7 7-7 3.8500977 0 7 3.1500244 7 7 0 3.8499756-3.1499023 7-7 7z"/><path d="m1920 577c-3.8499756 0-7-3.1500244-7-7 0-3.8499756 3.1500244-7 7-7 3.8499756 0 7 3.1500244 7 7 0 3.8499756-3.1500244 7-7 7z"/><path d="m1920 1217c-3.8499756 0-7-3.1500244-7-7 0-3.8499756 3.1500244-7 7-7 3.8499756 0 7 3.1500244 7 7 0 3.8499756-3.1500244 7-7 7z"/><path d="m1500 1237c-3.8499756 0-7-3.1500244-7-7 0-3.8499756 3.1500244-7 7-7 3.8499756 0 7 3.1500244 7 7 0 3.8499756-3.1500244 7-7 7z"/><path d="m1380 1237c-3.8499756 0-7-3.1500244-7-7 0-3.8499756 3.1500244-7 7-7 3.8499756 0 7 3.1500244 7 7 0 3.8499756-3.1500244 7-7 7z"/><path d="m1380 537c-3.8499756 0-7-3.1500244-7-7 0-3.8499756 3.1500244-7 7-7 3.8499756 0 7 3.1500244 7 7 0 3.8499756-3.1500244 7-7 7z"/><path d="m1500 537c-3.8499756 0-7-3.1500244-7-7 0-3.8499756 3.1500244-7 7-7 3.8499756 0 7 3.1500244 7 7 0 3.8499756-3.1500244 7-7 7z"/><path d="m2400 977c-3.8500977 0-7-3.1500244-7-7 0-3.8499756 3.1499023-7 7-7 3.8500977 0 7 3.1500244 7 7 0 3.8499756-3.1499023 7-7 7z"/><path d="m1143 1242h-14c-6.5999756 0-12-5.4000244-12-12 0-6.5999756 5.4000244-12 12-12h14c6.5999756 0 12 5.4000244 12 12 0 6.5999756-5.4000244 12-12 12z"/><path d="m1143 542h-14c-6.5999756 0-12-5.3999634-12-12 0-6.5999756 5.4000244-12 12-12h14c6.5999756 0 12 5.4000244 12 12 0 6.6000366-5.4000244 12-12 12z"/><path d="m2407 1082h-14c-6.6000977 0-12-5.4000244-12-12 0-6.5999756 5.3999023-12 12-12h14c6.6000977 0 12 5.4000244 12 12 0 6.5999756-5.3999023 12-12 12z"/><path d="m2187 1082h-14c-6.6000977 0-12-5.4000244-12-12 0-6.5999756 5.3999023-12 12-12h14c6.6000977 0 12 5.4000244 12 12 0 6.5999756-5.3999023 12-12 12z"/><path d="m3559 1419h-14c-6.6000977 0-12-5.4000244-12-12 0-6.5999756 5.3999023-12 12-12h14c6.6000977 0 12 5.4000244 12 12 0 6.5999756-5.3999023 12-12 12z"/><path d="m3593 1445h-14c-6.6000977 0-12-5.4000244-12-12 0-6.5999756 5.3999023-12 12-12h14c6.6000977 0 12 5.4000244 12 12 0 6.5999756-5.3999023 12-12 12z"/><path d="m2163 1419h-14c-6.6000977 0-12-5.4000244-12-12 0-6.5999756 5.3999023-12 12-12h14c6.6000977 0 12 5.4000244 12 12 0 6.5999756-5.3999023 12-12 12z"/><path d="m2197 1445h-14c-6.6000977 0-12-5.4000244-12-12 0-6.5999756 5.3999023-12 12-12h14c6.6000977 0 12 5.4000244 12 12 0 6.5999756-5.3999023 12-12 12z"/></g><path d="m1124.7841797 1224.1767578h4.1210938c2.9003906 0 5.0615234 1 5.0615234 4.0410156 0 2.9003906-2.1611328 4.2412109-4.9814453 4.2412109h-1.8808594v4.8007812h-2.3203125zm4.0214844 6.421875c1.9404297 0 2.8798828-.7802734 2.8798828-2.3808594 0-1.640625-1.0195312-2.1806641-2.9599609-2.1806641h-1.6210938v4.5615234h1.7011719z"/><path d="m1136.4238281 1224.1767578h2.6210938l2.3203125 6.4013672c.2802734.8203125.5595703 1.7001953.8398438 2.5605469h.0800781c.2802734-.8603516.5400391-1.7402344.8203125-2.5605469l2.2607422-6.4013672h2.640625v13.0830078h-2.140625v-5.9814453c0-1.2197266.1796875-2.9609375.2998047-4.1611328h-.0800781l-1.0605469 3.0410156-2.1396484 5.8808594h-1.3808594l-2.1601562-5.8808594-1.0400391-3.0410156h-.0800781c.0996094 1.2001953.2998047 2.9414062.2998047 4.1611328v5.9814453h-2.1005859v-13.0830078z"/><path d="m1124.7841797 524.1767578h4.1210938c2.9003906 0 5.0615234 1 5.0615234 4.0410156 0 2.9003906-2.1611328 4.2412109-4.9814453 4.2412109h-1.8808594v4.8007812h-2.3203125zm4.0214844 6.421875c1.9404297 0 2.8798828-.7802734 2.8798828-2.3808594 0-1.640625-1.0195312-2.1806641-2.9599609-2.1806641h-1.6210938v4.5615234h1.7011719z"/><path d="m1136.4238281 524.1767578h2.6210938l2.3203125 6.4013672c.2802734.8203125.5595703 1.7001953.8398438 2.5605469h.0800781c.2802734-.8603516.5400391-1.7402344.8203125-2.5605469l2.2607422-6.4013672h2.640625v13.0830078h-2.140625v-5.9814453c0-1.2197266.1796875-2.9609375.2998047-4.1611328h-.0800781l-1.0605469 3.0410156-2.1396484 5.8808594h-1.3808594l-2.1601562-5.8808594-1.0400391-3.0410156h-.0800781c.0996094 1.2001953.2998047 2.9414062.2998047 4.1611328v5.9814453h-2.1005859v-13.0830078z"/><path d="m2395.8837891 1064.1767578h4.1806641c2.7011719 0 4.6816406.8203125 4.6816406 3.2207031 0 1.2402344-.6806641 2.4404297-1.8203125 2.8408203v.0800781c1.4404297.3203125 2.5 1.3398438 2.5 3.1005859 0 2.6201172-2.140625 3.8408203-5.0205078 3.8408203h-4.5214844zm3.9814453 5.4013672c1.8203125 0 2.6005859-.7197266 2.6005859-1.8408203 0-1.2802734-.8603516-1.7597656-2.5605469-1.7597656h-1.7011719v3.6005859zm.2998047 5.8808594c1.9199219 0 3.0009766-.7001953 3.0009766-2.1601562 0-1.3798828-1.0410156-1.9804688-3.0009766-1.9804688h-1.9609375v4.140625z"/><path d="m2178.8339844 1064.1767578h2.7207031l4.2607422 13.0830078h-2.4404297l-1.0205078-3.5410156h-4.4003906l-1.0205078 3.5410156h-2.3603516zm-.3398438 7.7216797h3.3408203l-.4599609-1.6005859c-.4199219-1.3798828-.8007812-2.8798828-1.1806641-4.3203125h-.0800781c-.3603516 1.4599609-.7402344 2.9404297-1.1601562 4.3203125z"/><path d="m3548.4169922 1401.1767578h2.3203125v11.1230469h5.4414062v1.9599609h-7.7617188v-13.0830078z"/><path d="m3582.1005859 1427.1767578h4.4208984c2.7207031 0 4.8007812.9599609 4.8007812 3.8808594 0 2.0009766-1.0400391 3.2011719-2.5996094 3.7412109l3.1201172 5.4609375h-2.6005859l-2.8203125-5.1210938h-2.0009766v5.1210938h-2.3203125v-13.0830078zm4.1806641 6.1210938c1.78125 0 2.7607422-.7597656 2.7607422-2.2402344 0-1.5-.9794922-2.0205078-2.7607422-2.0205078h-1.8603516v4.2607422z"/><path d="m2152.4169922 1401.1767578h2.3203125v11.1230469h5.4414062v1.9599609h-7.7617188v-13.0830078z"/><path d="m2186.1005859 1427.1767578h4.4208984c2.7207031 0 4.8007812.9599609 4.8007812 3.8808594 0 2.0009766-1.0400391 3.2011719-2.5996094 3.7412109l3.1201172 5.4609375h-2.6005859l-2.8203125-5.1210938h-2.0009766v5.1210938h-2.3203125v-13.0830078zm4.1806641 6.1210938c1.78125 0 2.7607422-.7597656 2.7607422-2.2402344 0-1.5-.9794922-2.0205078-2.7607422-2.0205078h-1.8603516v4.2607422z"/></svg>