<svg xmlns="http://www.w3.org/2000/svg" viewBox="0 0 1470 900"><title>scale-equal</title><rect x="0.5" y="0.5" width="1469" height="899" rx="3.5" ry="3.5" fill="#141414"/><path d="M1466,1a3.00335,3.00335,0,0,1,3,3V896a3.00336,3.00336,0,0,1-3,3H4a3.00344,3.00344,0,0,1-3-3V4A3.00344,3.00344,0,0,1,4,1H1466m0-1H4A4,4,0,0,0,0,4V896a4,4,0,0,0,4,4H1466a4,4,0,0,0,4-4V4a4,4,0,0,0-4-4Z" fill="#666"/><rect x="175" y="100" width="1200" height="585" fill="#434343"/><line x1="175" y1="120" x2="1375" y2="120" fill="none" stroke="#2d2d2d" stroke-miterlimit="10"/><line x1="175" y1="140" x2="1375" y2="140" fill="none" stroke="#2d2d2d" stroke-miterlimit="10"/><line x1="175" y1="160" x2="1375" y2="160" fill="none" stroke="#2d2d2d" stroke-miterlimit="10"/><line x1="175" y1="180" x2="1375" y2="180" fill="none" stroke="#2d2d2d" stroke-miterlimit="10"/><line x1="175" y1="200" x2="1375" y2="200" fill="none" stroke="#2d2d2d" stroke-miterlimit="10"/><line x1="175" y1="220" x2="1375" y2="220" fill="none" stroke="#2d2d2d" stroke-miterlimit="10"/><line x1="175" y1="240" x2="1375" y2="240" fill="none" stroke="#2d2d2d" stroke-miterlimit="10"/><line x1="175" y1="260" x2="1375" y2="260" fill="none" stroke="#2d2d2d" stroke-miterlimit="10"/><line x1="175" y1="280" x2="1375" y2="280" fill="none" stroke="#2d2d2d" stroke-miterlimit="10"/><line x1="175" y1="300" x2="1375" y2="300" fill="none" stroke="#2d2d2d" stroke-miterlimit="10"/><line x1="175" y1="360" x2="1375" y2="360" fill="none" stroke="#2d2d2d" stroke-miterlimit="10"/><line x1="175" y1="380" x2="1375" y2="380" fill="none" stroke="#2d2d2d" stroke-miterlimit="10"/><line x1="175" y1="400" x2="1375" y2="400" fill="none" stroke="#2d2d2d" stroke-miterlimit="10"/><line x1="175" y1="340" x2="1375" y2="340" fill="none" stroke="#2d2d2d" stroke-miterlimit="10"/><line x1="175" y1="420" x2="1375" y2="420" fill="none" stroke="#2d2d2d" stroke-miterlimit="10"/><line x1="175" y1="440" x2="1375" y2="440" fill="none" stroke="#2d2d2d" stroke-miterlimit="10"/><line x1="175" y1="460" x2="1375" y2="460" fill="none" stroke="#2d2d2d" stroke-miterlimit="10"/><line x1="175" y1="480" x2="1375" y2="480" fill="none" stroke="#2d2d2d" stroke-miterlimit="10"/><line x1="175" y1="500" x2="1375" y2="500" fill="none" stroke="#2d2d2d" stroke-miterlimit="10"/><line x1="175" y1="520" x2="1375" y2="520" fill="none" stroke="#2d2d2d" stroke-miterlimit="10"/><line x1="175" y1="540" x2="1375" y2="540" fill="none" stroke="#2d2d2d" stroke-miterlimit="10"/><line x1="175" y1="580" x2="1375" y2="580" fill="none" stroke="#2d2d2d" stroke-miterlimit="10"/><line x1="175" y1="600" x2="1375" y2="600" fill="none" stroke="#2d2d2d" stroke-miterlimit="10"/><line x1="175" y1="320" x2="1375" y2="320" fill="none" stroke="#1a1c24" stroke-miterlimit="10" stroke-width="2"/><line x1="175" y1="560" x2="1375" y2="560" fill="none" stroke="#1a1c24" stroke-miterlimit="10" stroke-width="2"/><rect x="274.99996" y="100" width="50" height="585.00026" fill="#595959"/><rect x="875" y="100" width="50" height="585.00026" fill="#595959"/><line x1="225" y1="685.00027" x2="225" y2="100" fill="none" stroke="#2d2d2d" stroke-miterlimit="10"/><line x1="175" y1="685.00027" x2="175" y2="100" fill="none" stroke="#2d2d2d" stroke-miterlimit="10"/><line x1="325" y1="685.00027" x2="325" y2="100" fill="none" stroke="#2d2d2d" stroke-miterlimit="10"/><line x1="275" y1="685.00027" x2="275" y2="100" fill="none" stroke="#2d2d2d" stroke-miterlimit="10"/><line x1="425" y1="685.00027" x2="425" y2="100" fill="none" stroke="#2d2d2d" stroke-miterlimit="10"/><line x1="375" y1="685.00027" x2="375" y2="100" fill="none" stroke="#2d2d2d" stroke-miterlimit="10"/><line x1="525" y1="685.00027" x2="525" y2="100" fill="none" stroke="#2d2d2d" stroke-miterlimit="10"/><line x1="475" y1="685.00027" x2="475" y2="100" fill="none" stroke="#2d2d2d" stroke-miterlimit="10"/><line x1="625" y1="685.00027" x2="625" y2="100" fill="none" stroke="#2d2d2d" stroke-miterlimit="10"/><line x1="575" y1="685.00027" x2="575" y2="100" fill="none" stroke="#2d2d2d" stroke-miterlimit="10"/><line x1="725" y1="685.00027" x2="725" y2="100" fill="none" stroke="#2d2d2d" stroke-miterlimit="10"/><line x1="675" y1="685.00027" x2="675" y2="100" fill="none" stroke="#2d2d2d" stroke-miterlimit="10"/><line x1="825" y1="685.00027" x2="825" y2="100" fill="none" stroke="#2d2d2d" stroke-miterlimit="10"/><line x1="775" y1="685.00027" x2="775" y2="100" fill="none" stroke="#2d2d2d" stroke-miterlimit="10"/><line x1="925" y1="685.00027" x2="925" y2="100" fill="none" stroke="#2d2d2d" stroke-miterlimit="10"/><line x1="875" y1="685.00027" x2="875" y2="100" fill="none" stroke="#2d2d2d" stroke-miterlimit="10"/><line x1="1025" y1="685.00027" x2="1025" y2="100" fill="none" stroke="#2d2d2d" stroke-miterlimit="10"/><line x1="975" y1="685.00027" x2="975" y2="100" fill="none" stroke="#2d2d2d" stroke-miterlimit="10"/><line x1="1125" y1="685.00027" x2="1125" y2="100" fill="none" stroke="#2d2d2d" stroke-miterlimit="10"/><line x1="1075" y1="685.00027" x2="1075" y2="100" fill="none" stroke="#2d2d2d" stroke-miterlimit="10"/><line x1="1225" y1="685.00027" x2="1225" y2="100" fill="none" stroke="#2d2d2d" stroke-miterlimit="10"/><line x1="1175" y1="685.00027" x2="1175" y2="100" fill="none" stroke="#2d2d2d" stroke-miterlimit="10"/><line x1="1325" y1="685.00027" x2="1325" y2="100" fill="none" stroke="#2d2d2d" stroke-miterlimit="10"/><line x1="1375" y1="685.00027" x2="1375" y2="100" fill="none" stroke="#2d2d2d" stroke-miterlimit="10"/><line x1="1275" y1="685.00027" x2="1275" y2="100" fill="none" stroke="#2d2d2d" stroke-miterlimit="10"/><rect x="275" y="800" width="600" height="30" fill="#707282"/><polygon points="1370 830 875 830 875 800 1430 800 1370 830" fill="#b8b9c2"/><polygon points="275 830 90 830 150 800 275 800 275 830" fill="#b8b9c2"/><polygon points="900 815 880 807.5 880 822.5 900 815" fill="#707282"/><polygon points="250 815 270 822.5 270 807.5 250 815" fill="#707282"/><line x1="275" y1="845" x2="275" y2="750.00026" fill="none" stroke="#b8b9c2" stroke-linecap="round" stroke-miterlimit="10"/><line x1="875" y1="845" x2="875" y2="750.00026" fill="none" stroke="#b8b9c2" stroke-linecap="round" stroke-miterlimit="10"/><path d="M225,685.00026h50a0,0,0,0,1,0,0v68a7,7,0,0,1-7,7H232a7,7,0,0,1-7-7v-68A0,0,0,0,1,225,685.00026Z" fill="#202020" stroke="#4e4e4e" stroke-miterlimit="10"/><path d="M325,685.00026h50a0,0,0,0,1,0,0v68a7,7,0,0,1-7,7H332a7,7,0,0,1-7-7v-68A0,0,0,0,1,325,685.00026Z" fill="#202020" stroke="#4e4e4e" stroke-miterlimit="10"/><path d="M675,685.00026h50a0,0,0,0,1,0,0v68a7,7,0,0,1-7,7H682a7,7,0,0,1-7-7v-68A0,0,0,0,1,675,685.00026Z" fill="#202020" stroke="#4e4e4e" stroke-miterlimit="10"/><path d="M475,685.00026h50a0,0,0,0,1,0,0v68a7,7,0,0,1-7,7H482a7,7,0,0,1-7-7v-68A0,0,0,0,1,475,685.00026Z" fill="#202020" stroke="#4e4e4e" stroke-miterlimit="10"/><path d="M575,685.00026h50a0,0,0,0,1,0,0v68a7,7,0,0,1-7,7H582a7,7,0,0,1-7-7v-68A0,0,0,0,1,575,685.00026Z" fill="#202020" stroke="#4e4e4e" stroke-miterlimit="10"/><path d="M825,685.00026h50a0,0,0,0,1,0,0v68a7,7,0,0,1-7,7H832a7,7,0,0,1-7-7v-68A0,0,0,0,1,825,685.00026Z" fill="#202020" stroke="#4e4e4e" stroke-miterlimit="10"/><path d="M925,685.00026h50a0,0,0,0,1,0,0v68a7,7,0,0,1-7,7H932a7,7,0,0,1-7-7v-68A0,0,0,0,1,925,685.00026Z" fill="#202020" stroke="#4e4e4e" stroke-miterlimit="10"/><path d="M1275,685.00026h50a0,0,0,0,1,0,0v68a7,7,0,0,1-7,7h-36a7,7,0,0,1-7-7v-68A0,0,0,0,1,1275,685.00026Z" fill="#202020" stroke="#4e4e4e" stroke-miterlimit="10"/><path d="M1075,685.00026h50a0,0,0,0,1,0,0v68a7,7,0,0,1-7,7h-36a7,7,0,0,1-7-7v-68A0,0,0,0,1,1075,685.00026Z" fill="#202020" stroke="#4e4e4e" stroke-miterlimit="10"/><path d="M1175,685.00026h50a0,0,0,0,1,0,0v68a7,7,0,0,1-7,7h-36a7,7,0,0,1-7-7v-68A0,0,0,0,1,1175,685.00026Z" fill="#202020" stroke="#4e4e4e" stroke-miterlimit="10"/><path d="M175,685.00026h50a0,0,0,0,1,0,0v68a7,7,0,0,1-7,7H182a7,7,0,0,1-7-7v-68A0,0,0,0,1,175,685.00026Z" fill="#f1f1f1" stroke="#363636" stroke-miterlimit="10"/><path d="M275,685.00026h50a0,0,0,0,1,0,0v68a7,7,0,0,1-7,7H282a7,7,0,0,1-7-7v-68A0,0,0,0,1,275,685.00026Z" fill="#f1f1f1" stroke="#363636" stroke-miterlimit="10"/><path d="M375,685.00026h50a0,0,0,0,1,0,0v68a7,7,0,0,1-7,7H382a7,7,0,0,1-7-7v-68A0,0,0,0,1,375,685.00026Z" fill="#f1f1f1" stroke="#363636" stroke-miterlimit="10"/><path d="M525,685.00026h50a0,0,0,0,1,0,0v68a7,7,0,0,1-7,7H532a7,7,0,0,1-7-7v-68A0,0,0,0,1,525,685.00026Z" fill="#f1f1f1" stroke="#363636" stroke-miterlimit="10"/><path d="M625,685.00026h50a0,0,0,0,1,0,0v68a7,7,0,0,1-7,7H632a7,7,0,0,1-7-7v-68A0,0,0,0,1,625,685.00026Z" fill="#f1f1f1" stroke="#363636" stroke-miterlimit="10"/><path d="M725,685.00026h50a0,0,0,0,1,0,0v68a7,7,0,0,1-7,7H732a7,7,0,0,1-7-7v-68A0,0,0,0,1,725,685.00026Z" fill="#f1f1f1" stroke="#363636" stroke-miterlimit="10"/><path d="M425,685.00026h50a0,0,0,0,1,0,0v68a7,7,0,0,1-7,7H432a7,7,0,0,1-7-7v-68A0,0,0,0,1,425,685.00026Z" fill="#f1f1f1" stroke="#363636" stroke-miterlimit="10"/><path d="M775,685.00026h50a0,0,0,0,1,0,0v68a7,7,0,0,1-7,7H782a7,7,0,0,1-7-7v-68A0,0,0,0,1,775,685.00026Z" fill="#f1f1f1" stroke="#363636" stroke-miterlimit="10"/><path d="M875,685.00026h50a0,0,0,0,1,0,0v68a7,7,0,0,1-7,7H882a7,7,0,0,1-7-7v-68A0,0,0,0,1,875,685.00026Z" fill="#f1f1f1" stroke="#363636" stroke-miterlimit="10"/><path d="M975,685.00026h50a0,0,0,0,1,0,0v68a7,7,0,0,1-7,7H982a7,7,0,0,1-7-7v-68A0,0,0,0,1,975,685.00026Z" fill="#f1f1f1" stroke="#363636" stroke-miterlimit="10"/><path d="M1125,685.00026h50a0,0,0,0,1,0,0v68a7,7,0,0,1-7,7h-36a7,7,0,0,1-7-7v-68A0,0,0,0,1,1125,685.00026Z" fill="#f1f1f1" stroke="#363636" stroke-miterlimit="10"/><path d="M1225,685.00026h50a0,0,0,0,1,0,0v68a7,7,0,0,1-7,7h-36a7,7,0,0,1-7-7v-68A0,0,0,0,1,1225,685.00026Z" fill="#f1f1f1" stroke="#363636" stroke-miterlimit="10"/><path d="M1325,685.00026h50a0,0,0,0,1,0,0v68a7,7,0,0,1-7,7h-36a7,7,0,0,1-7-7v-68A0,0,0,0,1,1325,685.00026Z" fill="#f1f1f1" stroke="#363636" stroke-miterlimit="10"/><path d="M1025,685.00026h50a0,0,0,0,1,0,0v68a7,7,0,0,1-7,7h-36a7,7,0,0,1-7-7v-68A0,0,0,0,1,1025,685.00026Z" fill="#f1f1f1" stroke="#363636" stroke-miterlimit="10"/><path d="M188.64551,742.7832c0-4.64258,2.72851-7.48144,6.40332-7.48144a5.26925,5.26925,0,0,1,3.96094,1.78222l-.99024,1.18848a3.94534,3.94534,0,0,0-2.94824-1.36426c-2.72852,0-4.5332,2.24414-4.5332,5.83106,0,3.62988,1.73828,5.91894,4.46679,5.91894a4.35624,4.35624,0,0,0,3.34473-1.6289l1.01172,1.14453a5.58535,5.58535,0,0,1-4.42285,2.08984C191.33008,750.26367,188.64551,747.49121,188.64551,742.7832Z" fill="#979797"/><path d="M200.94434,748.92188c4.22461-4.20313,6.60058-6.7334,6.60058-8.999a2.48642,2.48642,0,0,0-2.66211-2.751,4.13706,4.13706,0,0,0-2.99316,1.69433l-1.03418-1.03418a5.51156,5.51156,0,0,1,4.24707-2.13379,3.89871,3.89871,0,0,1,4.20215,4.13672c0,2.63965-2.39844,5.25879-5.72071,8.73438.77051-.06543,1.62891-.13184,2.3545-.13184h4.07031V750h-9.06445Z" fill="#979797"/><path d="M788.64648,742.7832c0-4.64258,2.72852-7.48144,6.40235-7.48144a5.26759,5.26759,0,0,1,3.96094,1.78222l-.99024,1.18848a3.94373,3.94373,0,0,0-2.94824-1.36426c-2.72852,0-4.53223,2.24414-4.53223,5.83106,0,3.62988,1.73828,5.91894,4.46582,5.91894a4.35473,4.35473,0,0,0,3.34473-1.6289l1.01172,1.14453a5.58483,5.58483,0,0,1-4.42188,2.08984C791.33008,750.26367,788.64648,747.49121,788.64648,742.7832Z" fill="#979797"/><path d="M800.63672,748.28418l.92383-1.18848a4.76466,4.76466,0,0,0,3.58593,1.67188,2.61637,2.61637,0,0,0,2.9043-2.57422c0-1.67188-1.14453-2.79395-4.48828-2.79395V742.0127c2.99219,0,3.98242-1.14356,3.98242-2.61817a2.1606,2.1606,0,0,0-2.41992-2.22265,4.25708,4.25708,0,0,0-2.99219,1.43066l-.96875-1.14453a5.78351,5.78351,0,0,1,4.02735-1.75977c2.4414,0,4.20214,1.29785,4.20214,3.56446a3.4797,3.4797,0,0,1-2.55273,3.34472v.08789a3.6213,3.6213,0,0,1,3.03613,3.56446c0,2.48632-2.0459,4.0039-4.62011,4.0039A5.96018,5.96018,0,0,1,800.63672,748.28418Z" fill="#979797"/><path d="M288.81641,734.25488h3.93652c4.84766,0,7.44043,2.80762,7.44043,7.80078,0,5.01563-2.59277,7.94434-7.34473,7.94434h-4.03222Zm3.792,14.11328c3.67285,0,5.52051-2.32812,5.52051-6.3125,0-3.96093-1.84766-6.16894-5.52051-6.16894h-1.79981v12.48144Z" fill="#4e4e4e"/><path d="M302.376,748.82422c4.6084-4.585,7.20019-7.34473,7.20019-9.81738a2.712,2.712,0,0,0-2.90429-3,4.51419,4.51419,0,0,0-3.26368,1.84765l-1.12793-1.12793a6.01033,6.01033,0,0,1,4.63184-2.32812,4.25427,4.25427,0,0,1,4.585,4.51269c0,2.87989-2.61621,5.73633-6.24121,9.52832.83984-.07129,1.77637-.14355,2.56836-.14355h4.44043V750H302.376Z" fill="#4e4e4e"/><path d="M888.81641,734.25488h3.93652c4.84863,0,7.44043,2.80762,7.44043,7.80078,0,5.01563-2.5918,7.94434-7.34473,7.94434h-4.03222Zm3.793,14.11328c3.67187,0,5.51953-2.32812,5.51953-6.3125,0-3.96093-1.84766-6.16894-5.51953-6.16894h-1.80079v12.48144Z" fill="#4e4e4e"/><path d="M902.04,748.12793l1.00879-1.2959a5.1979,5.1979,0,0,0,3.91211,1.82422c1.84765,0,3.168-1.10449,3.168-2.80859,0-1.82422-1.24805-3.04786-4.89649-3.04786v-1.51269c3.26367,0,4.34375-1.24805,4.34375-2.85645a2.35678,2.35678,0,0,0-2.63965-2.42382,4.64363,4.64363,0,0,0-3.26464,1.56054l-1.05567-1.249a6.30807,6.30807,0,0,1,4.3916-1.91992c2.665,0,4.585,1.416,4.585,3.88867a3.79588,3.79588,0,0,1-2.78418,3.64844v.0957a3.952,3.952,0,0,1,3.3125,3.88867c0,2.71192-2.23242,4.36817-5.041,4.36817A6.50776,6.50776,0,0,1,902.04,748.12793Z" fill="#4e4e4e"/><path d="M343.17285,647.74805H338.749V646.0752h4.42383v-5.26368h1.58008v5.26368h4.42383v1.67285h-4.42383v5.26367h-1.58008Z" fill="#b0b4d1"/><path d="M351.91992,653.9834h3.54883V641.29688h-2.81934v-1.43067a8.63227,8.63227,0,0,0,3.28125-1.26855h1.53125V653.9834h3.209v1.83594h-8.751Z" fill="#b0b4d1"/><path d="M237.13477,647.74805h-4.42383V646.0752h4.42383v-5.26368h1.58007v5.26368h4.42383v1.67285h-4.42383v5.26367h-1.58007Z" fill="#b0b4d1"/><path d="M245.88184,653.9834h3.54882V641.29688h-2.81933v-1.43067a8.63233,8.63233,0,0,0,3.28125-1.26855h1.53125V653.9834h3.209v1.83594h-8.751Z" fill="#b0b4d1"/><path d="M257.959,653.9834h3.54883V641.29688H258.6875v-1.43067a8.63752,8.63752,0,0,0,3.28223-1.26855H263.501V653.9834h3.208v1.83594h-8.75Z" fill="#b0b4d1"/><path d="M187.13477,647.74805h-4.42383V646.0752h4.42383v-5.26368h1.58007v5.26368h4.42383v1.67285h-4.42383v5.26367h-1.58007Z" fill="#b0b4d1"/><path d="M195.88184,653.9834h3.54882V641.29688h-2.81933v-1.43067a8.63233,8.63233,0,0,0,3.28125-1.26855h1.53125V653.9834h3.209v1.83594h-8.751Z" fill="#b0b4d1"/><path d="M207.10742,647.1543c0-5.77637,1.87207-8.87989,4.9834-8.87989,3.08691,0,4.959,3.10352,4.959,8.87989s-1.87207,8.98925-4.959,8.98925C208.97949,656.14355,207.10742,652.93066,207.10742,647.1543Zm7.99707,0c0-5.04688-1.21484-7.09864-3.01367-7.09864-1.82324,0-3.03809,2.05176-3.03809,7.09864,0,5.04785,1.21485,7.207,3.03809,7.207C213.88965,654.36133,215.10449,652.20215,215.10449,647.1543Z" fill="#b0b4d1"/><path d="M393.17285,647.74805H388.749V646.0752h4.42383v-5.26368h1.58008v5.26368h4.42383v1.67285h-4.42383v5.26367h-1.58008Z" fill="#b0b4d1"/><path d="M400.97168,654.49707c4.667-5.15625,7.293-8.25977,7.293-11.04,0-1.9707-.97266-3.374-2.94141-3.374a4.48228,4.48228,0,0,0-3.30566,2.07812l-1.14258-1.26855c1.28809-1.56543,2.67383-2.61817,4.69141-2.61817,2.86816,0,4.64257,2.02442,4.64257,5.07422,0,3.23926-2.64941,6.45117-6.32031,10.71582.85059-.08105,1.79883-.16113,2.60156-.16113h4.4961v1.916H400.97168Z" fill="#b0b4d1"/><path d="M443.17383,647.74805H438.75V646.0752h4.42383v-5.26368h1.58008v5.26368h4.42382v1.67285h-4.42382v5.26367h-1.58008Z" fill="#b0b4d1"/><path d="M450.63184,653.71387l1.0205-1.458a5.082,5.082,0,0,0,3.96289,2.05176,3.02481,3.02481,0,0,0,3.209-3.15821c0-2.05175-1.26465-3.42773-4.959-3.42773v-1.70117c3.30469,0,4.39942-1.40332,4.39942-3.21192a2.50719,2.50719,0,0,0-2.67383-2.72558,4.5339,4.5339,0,0,0-3.30566,1.7539l-1.07032-1.40332a6.11032,6.11032,0,0,1,4.44922-2.15918c2.69727,0,4.64258,1.5918,4.64258,4.37207a4.22462,4.22462,0,0,1-2.82031,4.10352v.10742a4.32975,4.32975,0,0,1,3.35449,4.373,4.79454,4.79454,0,0,1-5.10449,4.91308A6.32578,6.32578,0,0,1,450.63184,653.71387Z" fill="#b0b4d1"/><path d="M493.17383,647.74805H488.75V646.0752h4.42383v-5.26368h1.58008v5.26368h4.42382v1.67285h-4.42382v5.26367h-1.58008Z" fill="#b0b4d1"/><path d="M507.38965,651.06836h-6.97656v-1.457l6.63574-11.01367h2.23633v10.68945h2.11523v1.78125h-2.11523v4.751h-1.89551Zm0-1.78125V644.293c0-.917.07324-2.40235.12109-3.31934h-.09668c-.38867.83692-.82617,1.5918-1.26367,2.42871l-3.62305,5.88477Z" fill="#b0b4d1"/><path d="M543.17383,647.74805H538.75V646.0752h4.42383v-5.26368h1.58008v5.26368h4.42382v1.67285h-4.42382v5.26367h-1.58008Z" fill="#b0b4d1"/><path d="M550.60742,653.79492l.97266-1.458a5.07614,5.07614,0,0,0,3.91406,1.97071c1.89551,0,3.40234-1.53809,3.40234-3.94043,0-2.376-1.3125-3.7793-3.30566-3.7793a4.10349,4.10349,0,0,0-2.64941,1.05273l-1.07032-.75585.51172-8.28711h7.75391v1.917h-6.00391l-.41406,5.10156a4.40878,4.40878,0,0,1,2.38281-.70215c2.64844,0,4.8125,1.67383,4.8125,5.39844,0,3.72559-2.52734,5.83105-5.22656,5.83105A6.50769,6.50769,0,0,1,550.60742,653.79492Z" fill="#b0b4d1"/><path d="M593.17383,647.74805H588.75V646.0752h4.42383v-5.26368h1.58008v5.26368h4.42382v1.67285h-4.42382v5.26367h-1.58008Z" fill="#b0b4d1"/><path d="M601.167,647.85645c0-6.91016,2.81934-9.582,5.90625-9.582a4.69714,4.69714,0,0,1,3.74317,1.835l-1.11719,1.37695a3.25948,3.25948,0,0,0-2.55274-1.34961c-2.16406,0-3.98632,1.8623-4.084,7.31445a4.82869,4.82869,0,0,1,3.62207-2.15918c2.67383,0,4.42383,1.78125,4.42383,5.31739,0,3.29394-2.09082,5.53417-4.59473,5.53417C603.47656,656.14355,601.167,653.38965,601.167,647.85645Zm8.0459,2.75293c0-2.24024-.94824-3.64356-2.86914-3.64356a4.09145,4.09145,0,0,0-3.23242,2.26758c.24316,3.34668,1.43359,5.15527,3.40234,5.15527C608.0459,654.38867,609.21289,652.877,609.21289,650.60938Z" fill="#b0b4d1"/><path d="M643.17383,647.74805H638.75V646.0752h4.42383v-5.26368h1.58008v5.26368h4.42382v1.67285h-4.42382v5.26367h-1.58008Z" fill="#b0b4d1"/><path d="M658.7998,640.51465h-7.73046v-1.917h9.99023v1.37695c-3.66992,5.21-4.42383,9.12305-4.69043,15.84473h-2.06641C654.57031,649.34082,655.73633,645.23828,658.7998,640.51465Z" fill="#b0b4d1"/><path d="M693.17383,647.74805H688.75V646.0752h4.42383v-5.26368h1.58008v5.26368h4.42382v1.67285h-4.42382v5.26367h-1.58008Z" fill="#b0b4d1"/><path d="M700.99707,651.41992a5.45012,5.45012,0,0,1,2.917-4.64355V646.669a4.98246,4.98246,0,0,1-2.16406-3.96778,4.39,4.39,0,1,1,8.77539.16113,5.82328,5.82328,0,0,1-2.13867,4.15723v.1084a4.98874,4.98874,0,0,1,2.69726,4.42676c0,2.56445-1.99316,4.58886-5.00683,4.58886A4.77191,4.77191,0,0,1,700.99707,651.41992Zm8.167.05371c0-2.21386-1.96875-3.02343-4.20508-4.02246a4.7369,4.7369,0,0,0-2.16308,3.75195,3.21763,3.21763,0,0,0,3.33008,3.29395A2.89368,2.89368,0,0,0,709.16406,651.47363Zm-.36426-8.50293a2.75138,2.75138,0,0,0-2.69824-3.0498,2.5398,2.5398,0,0,0-2.5039,2.78027c0,2.05078,1.70117,2.915,3.57324,3.72461A4.82543,4.82543,0,0,0,708.7998,642.9707Z" fill="#b0b4d1"/><path d="M743.17383,647.74805H738.75V646.0752h4.42383v-5.26368h1.58008v5.26368h4.42382v1.67285h-4.42382v5.26367h-1.58008Z" fill="#b0b4d1"/><path d="M751.24023,654.335l1.11719-1.4043a3.28946,3.28946,0,0,0,2.55274,1.377c2.1875,0,4.03515-1.88965,4.10742-7.39551a4.74934,4.74934,0,0,1-3.64551,2.21289c-2.67383,0-4.39941-1.78125-4.39941-5.31738,0-3.293,2.08984-5.53321,4.56933-5.53321,3.06348,0,5.34766,2.75293,5.34766,8.28614,0,6.91015-2.81934,9.583-5.90723,9.583A4.75358,4.75358,0,0,1,751.24023,654.335Zm7.72852-9.17773c-.2666-3.34668-1.458-5.12891-3.42676-5.12891-1.50683,0-2.69824,1.51172-2.69824,3.7793,0,2.24023.94824,3.64355,2.86914,3.64355A4.10253,4.10253,0,0,0,758.96875,645.15723Z" fill="#b0b4d1"/><path d="M787.13477,647.74805h-4.42383V646.0752h4.42383v-5.26368h1.58007v5.26368h4.42383v1.67285h-4.42383v5.26367h-1.58007Z" fill="#b0b4d1"/><path d="M795.88281,653.9834h3.54883V641.29688h-2.82031v-1.43067a8.62588,8.62588,0,0,0,3.28125-1.26855h1.53125V653.9834h3.209v1.83594h-8.75Z" fill="#b0b4d1"/><path d="M807.10742,647.1543c0-5.77637,1.873-8.87989,4.98438-8.87989,3.08593,0,4.958,3.10352,4.958,8.87989s-1.87207,8.98925-4.958,8.98925C808.98047,656.14355,807.10742,652.93066,807.10742,647.1543Zm7.998,0c0-5.04688-1.21582-7.09864-3.01367-7.09864-1.82422,0-3.03907,2.05176-3.03907,7.09864,0,5.04785,1.21485,7.207,3.03907,7.207C813.88965,654.36133,815.10547,652.20215,815.10547,647.1543Z" fill="#b0b4d1"/><path d="M837.13477,647.74805h-4.42383V646.0752h4.42383v-5.26368h1.58007v5.26368h4.42383v1.67285h-4.42383v5.26367h-1.58007Z" fill="#b0b4d1"/><path d="M845.88281,653.9834h3.54883V641.29688h-2.82031v-1.43067a8.62588,8.62588,0,0,0,3.28125-1.26855h1.53125V653.9834h3.209v1.83594h-8.75Z" fill="#b0b4d1"/><path d="M857.959,653.9834h3.54883V641.29688H858.6875v-1.43067a8.631,8.631,0,0,0,3.28223-1.26855H863.501V653.9834h3.208v1.83594h-8.75Z" fill="#b0b4d1"/><path d="M943.17383,647.74805H938.75V646.0752h4.42383v-5.26368h1.58008v5.26368h4.42382v1.67285h-4.42382v5.26367h-1.58008Z" fill="#b0b4d1"/><path d="M951.91992,653.9834h3.54883V641.29688h-2.81934v-1.43067a8.644,8.644,0,0,0,3.28223-1.26855h1.53125V653.9834h3.208v1.83594h-8.751Z" fill="#b0b4d1"/><path d="M993.17383,647.74805H988.75V646.0752h4.42383v-5.26368h1.58008v5.26368h4.42382v1.67285h-4.42382v5.26367h-1.58008Z" fill="#b0b4d1"/><path d="M1000.97266,654.49707c4.666-5.15625,7.292-8.25977,7.292-11.04,0-1.9707-.97266-3.374-2.94141-3.374a4.48228,4.48228,0,0,0-3.30566,2.07812l-1.14258-1.26855c1.28906-1.56543,2.67383-2.61817,4.69141-2.61817,2.86816,0,4.64257,2.02442,4.64257,5.07422,0,3.23926-2.64941,6.45117-6.32031,10.71582.85156-.08105,1.79883-.16113,2.60156-.16113h4.4961v1.916h-10.01367Z" fill="#b0b4d1"/><path d="M1043.17383,647.74805H1038.75V646.0752h4.42383v-5.26368h1.58008v5.26368h4.42382v1.67285h-4.42382v5.26367h-1.58008Z" fill="#b0b4d1"/><path d="M1050.63184,653.71387l1.0205-1.458a5.082,5.082,0,0,0,3.96289,2.05176,3.02481,3.02481,0,0,0,3.209-3.15821c0-2.05175-1.26465-3.42773-4.959-3.42773v-1.70117c3.30469,0,4.39942-1.40332,4.39942-3.21192a2.50719,2.50719,0,0,0-2.67383-2.72558,4.5339,4.5339,0,0,0-3.30566,1.7539l-1.07032-1.40332a6.11032,6.11032,0,0,1,4.44922-2.15918c2.69727,0,4.64258,1.5918,4.64258,4.37207a4.22462,4.22462,0,0,1-2.82031,4.10352v.10742a4.32975,4.32975,0,0,1,3.35449,4.373,4.79454,4.79454,0,0,1-5.10449,4.91308A6.32578,6.32578,0,0,1,1050.63184,653.71387Z" fill="#b0b4d1"/><path d="M1093.17383,647.74805H1088.75V646.0752h4.42383v-5.26368h1.58008v5.26368h4.42382v1.67285h-4.42382v5.26367h-1.58008Z" fill="#b0b4d1"/><path d="M1107.38965,651.06836h-6.97656v-1.457l6.63574-11.01367h2.23633v10.68945h2.11523v1.78125h-2.11523v4.751h-1.89551Zm0-1.78125V644.293c0-.917.07324-2.40235.12109-3.31934h-.09668c-.38867.83692-.82617,1.5918-1.26367,2.42871l-3.623,5.88477Z" fill="#b0b4d1"/><path d="M1143.17383,647.74805H1138.75V646.0752h4.42383v-5.26368h1.58008v5.26368h4.42382v1.67285h-4.42382v5.26367h-1.58008Z" fill="#b0b4d1"/><path d="M1150.60742,653.79492l.97266-1.458a5.07614,5.07614,0,0,0,3.91406,1.97071c1.89551,0,3.40234-1.53809,3.40234-3.94043,0-2.376-1.3125-3.7793-3.30566-3.7793a4.10349,4.10349,0,0,0-2.64941,1.05273l-1.07032-.75585.51172-8.28711h7.75391v1.917h-6.00391l-.41406,5.10156a4.40878,4.40878,0,0,1,2.38281-.70215c2.64844,0,4.8125,1.67383,4.8125,5.39844,0,3.72559-2.52734,5.83105-5.22656,5.83105A6.50769,6.50769,0,0,1,1150.60742,653.79492Z" fill="#b0b4d1"/><path d="M1193.17383,647.74805H1188.75V646.0752h4.42383v-5.26368h1.58008v5.26368h4.42382v1.67285h-4.42382v5.26367h-1.58008Z" fill="#b0b4d1"/><path d="M1201.167,647.85645c0-6.91016,2.81934-9.582,5.90625-9.582a4.69714,4.69714,0,0,1,3.74317,1.835l-1.11719,1.37695a3.25948,3.25948,0,0,0-2.55274-1.34961c-2.16406,0-3.98632,1.8623-4.084,7.31445a4.82869,4.82869,0,0,1,3.62207-2.15918c2.67383,0,4.42383,1.78125,4.42383,5.31739,0,3.29394-2.09082,5.53417-4.59473,5.53417C1203.47656,656.14355,1201.167,653.38965,1201.167,647.85645Zm8.0459,2.75293c0-2.24024-.94824-3.64356-2.86914-3.64356a4.09145,4.09145,0,0,0-3.23242,2.26758c.24316,3.34668,1.43359,5.15527,3.40234,5.15527C1208.0459,654.38867,1209.21289,652.877,1209.21289,650.60938Z" fill="#b0b4d1"/><path d="M1243.17383,647.74805H1238.75V646.0752h4.42383v-5.26368h1.58008v5.26368h4.42382v1.67285h-4.42382v5.26367h-1.58008Z" fill="#b0b4d1"/><path d="M1258.79883,640.51465h-7.72949v-1.917h9.99023v1.37695c-3.66992,5.21-4.42383,9.12305-4.69043,15.84473h-2.06641C1254.57031,649.34082,1255.73633,645.23828,1258.79883,640.51465Z" fill="#b0b4d1"/><path d="M1293.17383,647.74805H1288.75V646.0752h4.42383v-5.26368h1.58008v5.26368h4.42382v1.67285h-4.42382v5.26367h-1.58008Z" fill="#b0b4d1"/><path d="M1300.99609,651.41992a5.451,5.451,0,0,1,2.918-4.64355V646.669a4.98246,4.98246,0,0,1-2.16406-3.96778,4.39,4.39,0,1,1,8.77539.16113,5.82328,5.82328,0,0,1-2.13867,4.15723v.1084a4.98874,4.98874,0,0,1,2.69726,4.42676c0,2.56445-1.99316,4.58886-5.00781,4.58886A4.77247,4.77247,0,0,1,1300.99609,651.41992Zm8.168.05371c0-2.21386-1.96875-3.02343-4.20508-4.02246a4.73538,4.73538,0,0,0-2.16406,3.75195,3.21819,3.21819,0,0,0,3.33008,3.29395A2.89446,2.89446,0,0,0,1309.16406,651.47363Zm-.36523-8.50293a2.75066,2.75066,0,0,0-2.69727-3.0498,2.5398,2.5398,0,0,0-2.5039,2.78027c0,2.05078,1.70117,2.915,3.57226,3.72461A4.82167,4.82167,0,0,0,1308.79883,642.9707Z" fill="#b0b4d1"/><path d="M1343.17383,647.74805H1338.75V646.0752h4.42383v-5.26368h1.58008v5.26368h4.42382v1.67285h-4.42382v5.26367h-1.58008Z" fill="#b0b4d1"/><path d="M1351.24023,654.335l1.11719-1.4043a3.28946,3.28946,0,0,0,2.55274,1.377c2.1875,0,4.03515-1.88965,4.10742-7.39551a4.74934,4.74934,0,0,1-3.64551,2.21289c-2.67383,0-4.39941-1.78125-4.39941-5.31738,0-3.293,2.08984-5.53321,4.56933-5.53321,3.06348,0,5.34766,2.75293,5.34766,8.28614,0,6.91015-2.81934,9.583-5.90723,9.583A4.75358,4.75358,0,0,1,1351.24023,654.335Zm7.72852-9.17773c-.2666-3.34668-1.458-5.12891-3.42676-5.12891-1.50683,0-2.69824,1.51172-2.69824,3.7793,0,2.24023.94824,3.64355,2.86914,3.64355A4.10253,4.10253,0,0,0,1358.96875,645.15723Z" fill="#b0b4d1"/><path d="M281.91309,638.06641h3.8623c2.63379,0,4.45606.98925,4.45606,3.51953a3.16922,3.16922,0,0,1-1.90137,3.14648v.08887a3.2295,3.2295,0,0,1,2.6543,3.4541c0,2.83887-2.02051,4.22461-4.93165,4.22461h-4.13964Zm3.56543,6.13867c2.21777,0,3.1289-.90235,3.1289-2.377,0-1.67187-1.0293-2.30957-3.0498-2.30957h-2.001v4.68653Zm.33593,6.84277c2.23828,0,3.5459-.90234,3.5459-2.83887,0-1.78222-1.26758-2.5957-3.5459-2.5957h-2.25781v5.43457Z" fill="#b0b4d1"/><path d="M292.80273,649.72754c0-2.332,1.80274-3.498,5.90235-4.00488,0-1.36426-.39551-2.6836-1.98047-2.6836a4.9214,4.9214,0,0,0-2.87207,1.14356l-.63379-1.25391a6.69188,6.69188,0,0,1,3.7832-1.38672c2.35645,0,3.34766,1.73828,3.34766,4.40137V652.5H299.002l-.13867-1.27637h-.05859a4.90513,4.90513,0,0,1-3.18946,1.54A2.76437,2.76437,0,0,1,292.80273,649.72754Zm5.90235.1543v-2.97071c-3.208.44043-4.31738,1.32032-4.31738,2.68457a1.55952,1.55952,0,0,0,1.70312,1.71582A3.76146,3.76146,0,0,0,298.70508,649.88184Z" fill="#b0b4d1"/><path d="M302.30664,651.29l.8125-1.21a4.11054,4.11054,0,0,0,2.832,1.27539,1.6735,1.6735,0,0,0,1.90137-1.67188c0-1.10058-1.14844-1.584-2.19824-2.02441-1.36719-.5498-2.87207-1.27637-2.87207-3.08008a3.01051,3.01051,0,0,1,3.30761-3.03711,4.52922,4.52922,0,0,1,2.99024,1.21094l-.77246,1.14355a3.38172,3.38172,0,0,0-2.19824-.94628,1.54937,1.54937,0,0,0-1.7627,1.541c0,1.01172,1.0498,1.38574,2.13867,1.84766,1.38672.57226,2.93164,1.21,2.93164,3.23437a3.19117,3.19117,0,0,1-3.52539,3.19043A5.46811,5.46811,0,0,1,302.30664,651.29Z" fill="#b0b4d1"/><path d="M310.959,647.1748c0-3.498,2.11914-5.63281,4.31836-5.63281,2.45508,0,3.8418,1.959,3.8418,5.01758a7.69416,7.69416,0,0,1-.05957,1.03418h-6.49609c.11914,2.26563,1.36621,3.71777,3.209,3.71777a4.06131,4.06131,0,0,0,2.39649-.83593l.57421,1.18847a5.35254,5.35254,0,0,1-3.16894,1.09961C312.999,652.76367,310.959,650.67383,310.959,647.1748Zm6.73438-.87988c0-2.15625-.87207-3.32226-2.37695-3.32226-1.34668,0-2.57422,1.21-2.77246,3.32226Z" fill="#b0b4d1"/><path d="M286.53711,660.06641h1.64355v7.23828h.05957l5.40723-7.23828h1.86133l-4.06055,5.5L296.14258,674.5h-1.8418l-3.88183-7.50293-2.23829,2.92676V674.5h-1.64355Z" fill="#b0b4d1"/><path d="M296.99121,669.1748c0-3.498,2.11914-5.63281,4.31738-5.63281,2.45606,0,3.84278,1.959,3.84278,5.01758a7.86,7.86,0,0,1-.05957,1.03418h-6.49707c.11914,2.26563,1.36718,3.71777,3.209,3.71777a4.05675,4.05675,0,0,0,2.39649-.83593l.57421,1.18847a5.35015,5.35015,0,0,1-3.16894,1.09961C299.03125,674.76367,296.99121,672.67383,296.99121,669.1748Zm6.7334-.87988c0-2.15625-.87109-3.32226-2.376-3.32226-1.34765,0-2.57519,1.21-2.77343,3.32226Z" fill="#b0b4d1"/><path d="M306.65332,678.87891l.31641-1.43067a2.56905,2.56905,0,0,0,.73242.1543c1.08984,0,1.7832-.96777,2.17871-2.28809l.21777-.792-3.86133-10.71582h1.6836l1.96,5.91895c.29785.92382.63379,2.02441.93164,3.01464h.0791c.27735-.96875.55469-2.06835.81152-3.01464l1.72364-5.91895h1.584l-3.624,11.57324c-.67383,2.11231-1.66406,3.71875-3.60449,3.71875A2.91221,2.91221,0,0,1,306.65332,678.87891Z" fill="#b0b4d1"/><path d="M881.91406,638.06641h3.86133c2.63477,0,4.457.98925,4.457,3.51953a3.17057,3.17057,0,0,1-1.90137,3.14648v.08887a3.22878,3.22878,0,0,1,2.65333,3.4541c0,2.83887-2.01954,4.22461-4.93165,4.22461h-4.13867Zm3.56446,6.13867c2.21875,0,3.12988-.90235,3.12988-2.377,0-1.67187-1.03028-2.30957-3.05078-2.30957h-2v4.68653Zm.33691,6.84277c2.23828,0,3.54492-.90234,3.54492-2.83887,0-1.78222-1.26758-2.5957-3.54492-2.5957h-2.25781v5.43457Z" fill="#b0b4d1"/><path d="M892.80371,649.72754c0-2.332,1.80176-3.498,5.90234-4.00488,0-1.36426-.39648-2.6836-1.98046-2.6836a4.91879,4.91879,0,0,0-2.87207,1.14356l-.63379-1.25391A6.68863,6.68863,0,0,1,897.002,641.542c2.35743,0,3.34766,1.73828,3.34766,4.40137V652.5h-1.34668l-.13867-1.27637h-.05957a4.90283,4.90283,0,0,1-3.18848,1.54A2.76386,2.76386,0,0,1,892.80371,649.72754Zm5.90234.1543v-2.97071c-3.209.44043-4.31835,1.32032-4.31835,2.68457a1.5598,1.5598,0,0,0,1.7041,1.71582A3.76326,3.76326,0,0,0,898.70605,649.88184Z" fill="#b0b4d1"/><path d="M902.30762,651.29l.81152-1.21a4.1124,4.1124,0,0,0,2.832,1.27539,1.6735,1.6735,0,0,0,1.90137-1.67188c0-1.10058-1.14844-1.584-2.19824-2.02441-1.36621-.5498-2.87207-1.27637-2.87207-3.08008a3.011,3.011,0,0,1,3.30761-3.03711,4.5338,4.5338,0,0,1,2.99121,1.21094l-.77246,1.14355a3.38172,3.38172,0,0,0-2.19824-.94628,1.54885,1.54885,0,0,0-1.76269,1.541c0,1.01172,1.04882,1.38574,2.13867,1.84766,1.38672.57226,2.93164,1.21,2.93164,3.23437a3.19118,3.19118,0,0,1-3.52539,3.19043A5.46606,5.46606,0,0,1,902.30762,651.29Z" fill="#b0b4d1"/><path d="M910.96,647.1748c0-3.498,2.11914-5.63281,4.31738-5.63281,2.45606,0,3.84278,1.959,3.84278,5.01758a7.86,7.86,0,0,1-.05957,1.03418h-6.49707c.11914,2.26563,1.36718,3.71777,3.209,3.71777a4.05675,4.05675,0,0,0,2.39649-.83593l.57421,1.18847a5.35015,5.35015,0,0,1-3.16894,1.09961C913,652.76367,910.96,650.67383,910.96,647.1748Zm6.7334-.87988c0-2.15625-.87109-3.32226-2.376-3.32226-1.34765,0-2.57519,1.21-2.77343,3.32226Z" fill="#b0b4d1"/><path d="M886.53711,660.06641h1.64355v7.23828h.05957l5.40723-7.23828h1.86133l-4.05957,5.5L896.14258,674.5h-1.8418l-3.88183-7.50293-2.23829,2.92676V674.5h-1.64355Z" fill="#b0b4d1"/><path d="M896.99121,669.1748c0-3.498,2.11914-5.63281,4.31738-5.63281,2.45606,0,3.84278,1.959,3.84278,5.01758a7.69416,7.69416,0,0,1-.05957,1.03418h-6.4961c.11914,2.26563,1.36621,3.71777,3.209,3.71777a4.06131,4.06131,0,0,0,2.39648-.83593l.57422,1.18847a5.35254,5.35254,0,0,1-3.16894,1.09961C899.03125,674.76367,896.99121,672.67383,896.99121,669.1748Zm6.73438-.87988c0-2.15625-.87207-3.32226-2.377-3.32226-1.34668,0-2.57519,1.21-2.77246,3.32226Z" fill="#b0b4d1"/><path d="M906.65332,678.87891l.31738-1.43067a2.56206,2.56206,0,0,0,.73242.1543c1.08887,0,1.78223-.96777,2.17872-2.28809l.21777-.792-3.86231-10.71582h1.6836l1.96094,5.91895c.29687.92382.63378,2.02441.93066,3.01464h.0791c.27735-.96875.55469-2.06835.8125-3.01464l1.72266-5.91895h1.585l-3.625,11.57324c-.67285,2.11231-1.66309,3.71875-3.60449,3.71875A2.91964,2.91964,0,0,1,906.65332,678.87891Z" fill="#b0b4d1"/><line x1="775" y1="500" x2="825" y2="500" fill="none" stroke="#a3866b" stroke-miterlimit="10" stroke-width="2"/><line x1="775" y1="480" x2="825" y2="480" fill="none" stroke="#a3866b" stroke-miterlimit="10" stroke-width="2"/><line x1="775" y1="460" x2="825" y2="460" fill="none" stroke="#a3866b" stroke-miterlimit="10" stroke-width="2"/><line x1="775" y1="440" x2="825" y2="440" fill="none" stroke="#a3866b" stroke-miterlimit="10" stroke-width="2"/><line x1="775" y1="420" x2="825" y2="420" fill="none" stroke="#a3866b" stroke-miterlimit="10" stroke-width="2"/><line x1="775" y1="400" x2="825" y2="400" fill="none" stroke="#a3866b" stroke-miterlimit="10" stroke-width="2"/><line x1="775" y1="380" x2="825" y2="380" fill="none" stroke="#a3866b" stroke-miterlimit="10" stroke-width="2"/><line x1="775" y1="340" x2="825" y2="340" fill="none" stroke="#a3866b" stroke-miterlimit="10" stroke-width="2"/><line x1="775" y1="300" x2="825" y2="300" fill="none" stroke="#a3866b" stroke-miterlimit="10" stroke-width="2"/><line x1="775" y1="280" x2="825" y2="280" fill="none" stroke="#a3866b" stroke-miterlimit="10" stroke-width="2"/><line x1="775" y1="260" x2="825" y2="260" fill="none" stroke="#a3866b" stroke-miterlimit="10" stroke-width="2"/><line x1="775" y1="240" x2="825" y2="240" fill="none" stroke="#a3866b" stroke-miterlimit="10" stroke-width="2"/><line x1="775" y1="220" x2="825" y2="220" fill="none" stroke="#a3866b" stroke-miterlimit="10" stroke-width="2"/><rect x="765" y="520.5" width="70" height="38.5" fill="#434343" opacity="0.85"/><path d="M802.5,365h-5V505H790l10,10,10-10h-7.5Z" fill="#d1b9a1"/><path d="M802.5,215H810l-10-10-10,10h7.5V355h5Z" fill="#d1b9a1"/><path d="M782.3584,526.26758h1.292l.13281,1.33008h.05664a4.06117,4.06117,0,0,1,2.86914-1.5586,2.421,2.421,0,0,1,2.54493,1.7666,4.369,4.369,0,0,1,3.04-1.7666c1.89941,0,2.81152,1.25391,2.81152,3.60938V535.5h-1.55762v-5.64258c0-1.72851-.55078-2.46875-1.71-2.46875a3.38761,3.38761,0,0,0-2.31738,1.42383V535.5h-1.55762v-5.64258c0-1.72851-.55078-2.46875-1.72851-2.46875a3.46736,3.46736,0,0,0-2.31836,1.42383V535.5H782.3584Z" fill="#d1b9a1"/><path d="M797.53906,533.10645c0-2.01368,1.72949-3.02051,5.66211-3.458,0-1.17774-.38086-2.31739-1.90039-2.31739a5.01669,5.01669,0,0,0-2.7539.98829l-.6084-1.083a6.85481,6.85481,0,0,1,3.62793-1.19727c2.26171,0,3.21093,1.501,3.21093,3.79981V535.5h-1.291l-.13379-1.10156h-.05664a4.9254,4.9254,0,0,1-3.0586,1.3291A2.51252,2.51252,0,0,1,797.53906,533.10645Zm5.66211.13281V530.6748c-3.07812.37989-4.1416,1.13965-4.1416,2.31739,0,1.04492.72168,1.48242,1.63379,1.48242A3.74373,3.74373,0,0,0,803.20117,533.23926Z" fill="#d1b9a1"/><path d="M809.41406,530.6748l-2.793-4.40722h1.69141l1.23438,2.03222c.28515.49415.58886,1.02637.9121,1.53907h.07618c.26562-.5127.55078-1.04492.83593-1.53907l1.1211-2.03222H814.125l-2.793,4.57812L814.334,535.5h-1.69043l-1.34863-2.14648c-.32324-.55079-.665-1.1211-1.00781-1.65332h-.0752c-.32324.53222-.62695,1.083-.93066,1.65332L808.02734,535.5h-1.63379Z" fill="#d1b9a1"/><path d="M815.70312,534.5498a1.13383,1.13383,0,1,1,2.26172,0,1.13179,1.13179,0,1,1-2.26172,0Z" fill="#d1b9a1"/><path d="M770.80664,550.18066h7.56055v1.083h-7.56055Z" fill="#d1b9a1"/><path d="M783.72656,552.40332a3.83336,3.83336,0,0,1,2.2793-3.26758v-.07617a3.439,3.439,0,0,1-1.69043-2.792,3.44006,3.44006,0,0,1,6.8584.11328,3.99129,3.99129,0,0,1-1.67188,2.92578v.07617a3.49792,3.49792,0,0,1,2.1084,3.11524c0,1.80468-1.55762,3.22949-3.91308,3.22949C785.418,555.72754,783.72656,554.32227,783.72656,552.40332Zm6.38282.03809c0-1.55762-1.53907-2.12793-3.28614-2.83008a3.2809,3.2809,0,0,0-1.69043,2.64062,2.40207,2.40207,0,0,0,2.60157,2.31739A2.15846,2.15846,0,0,0,790.10938,552.44141Zm-.28516-5.98438a2.02311,2.02311,0,0,0-2.1084-2.14648,1.87518,1.87518,0,0,0-1.95605,1.957c0,1.44336,1.33007,2.05176,2.792,2.62109A3.263,3.263,0,0,0,789.82422,546.457Z" fill="#d1b9a1"/><path d="M793.22656,549.40234c0-4.06543,1.46289-6.251,3.89453-6.251,2.41211,0,3.875,2.18554,3.875,6.251s-1.46289,6.3252-3.875,6.3252C794.68945,555.72754,793.22656,553.46777,793.22656,549.40234Zm6.25,0c0-3.55273-.94922-4.99707-2.35547-4.99707-1.4248,0-2.375,1.44434-2.375,4.99707,0,3.55176.9502,5.07227,2.375,5.07227C798.52734,554.47461,799.47656,552.9541,799.47656,549.40234Z" fill="#d1b9a1"/><path d="M802.66992,549.40234c0-4.06543,1.46289-6.251,3.89453-6.251,2.41211,0,3.875,2.18554,3.875,6.251s-1.46289,6.3252-3.875,6.3252C804.13281,555.72754,802.66992,553.46777,802.66992,549.40234Zm6.25,0c0-3.55273-.95019-4.99707-2.35547-4.99707-1.42578,0-2.375,1.44434-2.375,4.99707,0,3.55176.94922,5.07227,2.375,5.07227C807.96973,554.47461,808.91992,552.9541,808.91992,549.40234Z" fill="#d1b9a1"/><path d="M815.9502,550.90234c0-3.09668,2.07031-4.86328,4.44531-4.86328a3.8307,3.8307,0,0,1,2.69726,1.083l-.79785,1.02637a2.70319,2.70319,0,0,0-1.84277-.81739c-1.6709,0-2.8877,1.44434-2.8877,3.57129,0,2.10938,1.15918,3.53418,2.84961,3.53418a3.27889,3.27889,0,0,0,2.166-.93164l.68359,1.04492a4.50246,4.50246,0,0,1-2.98242,1.17774C817.83008,555.72754,815.9502,553.96094,815.9502,550.90234Z" fill="#d1b9a1"/><path d="M825.374,552.65039V547.54h-1.36816V546.3623l1.44434-.09472.19042-2.584h1.31055v2.584h2.48828V547.54h-2.48828V552.669c0,1.14062.36035,1.78613,1.42383,1.78613a3.3307,3.3307,0,0,0,1.04492-.24707l.30469,1.17773a5.71159,5.71159,0,0,1-1.71.3418C826.03906,555.72754,825.374,554.47461,825.374,552.65039Z" fill="#d1b9a1"/><rect x="765" y="160.5" width="70" height="39" fill="#434343" opacity="0.85"/><path d="M782.3584,163.76758h1.292l.13281,1.33008h.05664a4.06117,4.06117,0,0,1,2.86914-1.5586,2.421,2.421,0,0,1,2.54493,1.7666,4.369,4.369,0,0,1,3.04-1.7666c1.89941,0,2.81152,1.25391,2.81152,3.60938V173h-1.55762v-5.64258c0-1.72851-.55078-2.46875-1.71-2.46875a3.38761,3.38761,0,0,0-2.31738,1.42383V173h-1.55762v-5.64258c0-1.72851-.55078-2.46875-1.72851-2.46875a3.46736,3.46736,0,0,0-2.31836,1.42383V173H782.3584Z" fill="#d1b9a1"/><path d="M797.53906,170.60645c0-2.01368,1.72949-3.02051,5.66211-3.458,0-1.17774-.38086-2.31739-1.90039-2.31739a5.01669,5.01669,0,0,0-2.7539.98829l-.6084-1.083a6.85481,6.85481,0,0,1,3.62793-1.19727c2.26171,0,3.21093,1.501,3.21093,3.79981V173h-1.291l-.13379-1.10156h-.05664a4.9254,4.9254,0,0,1-3.0586,1.3291A2.51252,2.51252,0,0,1,797.53906,170.60645Zm5.66211.13281V168.1748c-3.07812.37989-4.1416,1.13965-4.1416,2.31739,0,1.04492.72168,1.48242,1.63379,1.48242A3.74373,3.74373,0,0,0,803.20117,170.73926Z" fill="#d1b9a1"/><path d="M809.41406,168.1748l-2.793-4.40722h1.69141l1.23438,2.03222c.28515.49415.58886,1.02637.9121,1.53907h.07618c.26562-.5127.55078-1.04492.83593-1.53907l1.1211-2.03222H814.125l-2.793,4.57812L814.334,173h-1.69043l-1.34863-2.14648c-.32324-.55079-.665-1.1211-1.00781-1.65332h-.0752c-.32324.53222-.62695,1.083-.93066,1.65332L808.02734,173h-1.63379Z" fill="#d1b9a1"/><path d="M815.70312,172.0498a1.13383,1.13383,0,1,1,2.26172,0,1.13179,1.13179,0,1,1-2.26172,0Z" fill="#d1b9a1"/><path d="M773.96973,187.32031h-3.458V186.1416h3.458v-3.7041h1.23535v3.7041h3.457v1.17871h-3.457v3.7041h-1.23535Z" fill="#d1b9a1"/><path d="M783.8877,189.90332a3.8308,3.8308,0,0,1,2.28027-3.26758v-.07617a3.43768,3.43768,0,0,1-1.69141-2.792,3.43953,3.43953,0,0,1,6.85742.11328,3.98736,3.98736,0,0,1-1.67089,2.92578v.07617a3.49632,3.49632,0,0,1,2.10839,3.11524c0,1.80468-1.55761,3.22949-3.91308,3.22949C785.57812,193.22754,783.8877,191.82227,783.8877,189.90332Zm6.38378.03809c0-1.55762-1.53906-2.12793-3.2871-2.83008A3.282,3.282,0,0,0,785.293,189.752a2.40269,2.40269,0,0,0,2.60351,2.31739A2.159,2.159,0,0,0,790.27148,189.94141Zm-.28515-5.98438a2.02389,2.02389,0,0,0-2.10938-2.14648,1.87543,1.87543,0,0,0-1.957,1.957c0,1.44336,1.33008,2.05176,2.793,2.62109A3.26743,3.26743,0,0,0,789.98633,183.957Z" fill="#d1b9a1"/><path d="M793.3877,186.90234c0-4.06543,1.46289-6.251,3.89453-6.251,2.41308,0,3.876,2.18554,3.876,6.251s-1.46289,6.3252-3.876,6.3252C794.85059,193.22754,793.3877,190.96777,793.3877,186.90234Zm6.25,0c0-3.55273-.9502-4.99707-2.35547-4.99707-1.42481,0-2.375,1.44434-2.375,4.99707,0,3.55176.95019,5.07227,2.375,5.07227C798.6875,191.97461,799.6377,190.4541,799.6377,186.90234Z" fill="#d1b9a1"/><path d="M802.83008,186.90234c0-4.06543,1.46289-6.251,3.89453-6.251,2.41309,0,3.876,2.18554,3.876,6.251s-1.46289,6.3252-3.876,6.3252C804.293,193.22754,802.83008,190.96777,802.83008,186.90234Zm6.25,0c0-3.55273-.94922-4.99707-2.35547-4.99707-1.42383,0-2.375,1.44434-2.375,4.99707,0,3.55176.95117,5.07227,2.375,5.07227C808.13086,191.97461,809.08008,190.4541,809.08008,186.90234Z" fill="#d1b9a1"/><path d="M816.11133,188.40234c0-3.09668,2.07031-4.86328,4.44531-4.86328a3.82708,3.82708,0,0,1,2.69727,1.083l-.79688,1.02637a2.70551,2.70551,0,0,0-1.84375-.81739c-1.6709,0-2.88672,1.44434-2.88672,3.57129,0,2.10938,1.15821,3.53418,2.84961,3.53418a3.281,3.281,0,0,0,2.166-.93164l.68359,1.04492a4.50246,4.50246,0,0,1-2.98242,1.17774C817.99219,193.22754,816.11133,191.46094,816.11133,188.40234Z" fill="#d1b9a1"/><path d="M825.53516,190.15039V185.04H824.168V183.8623l1.44336-.09472.18945-2.584h1.31055v2.584h2.48926V185.04h-2.48926V190.169c0,1.14062.36133,1.78613,1.42578,1.78613a3.35628,3.35628,0,0,0,1.04492-.24707l.30371,1.17773a5.69938,5.69938,0,0,1-1.71.3418C826.2002,193.22754,825.53516,191.97461,825.53516,190.15039Z" fill="#d1b9a1"/><line x1="174.99996" y1="600" x2="224.99996" y2="600" fill="none" stroke="#aeb3d6" stroke-miterlimit="10" stroke-width="2"/><line x1="224.99996" y1="580" x2="274.99996" y2="580" fill="none" stroke="#aeb3d6" stroke-miterlimit="10" stroke-width="2"/><line x1="324.99996" y1="540" x2="374.99996" y2="540" fill="none" stroke="#aeb3d6" stroke-miterlimit="10" stroke-width="2"/><line x1="374.99996" y1="520" x2="424.99996" y2="520" fill="none" stroke="#aeb3d6" stroke-miterlimit="10" stroke-width="2"/><line x1="375" y1="520" x2="425" y2="520" fill="none" stroke="#aeb3d6" stroke-miterlimit="10" stroke-width="2"/><line x1="425" y1="500" x2="475" y2="500" fill="none" stroke="#aeb3d6" stroke-miterlimit="10" stroke-width="2"/><line x1="475" y1="480" x2="525" y2="480" fill="none" stroke="#aeb3d6" stroke-miterlimit="10" stroke-width="2"/><line x1="525" y1="460" x2="575" y2="460" fill="none" stroke="#aeb3d6" stroke-miterlimit="10" stroke-width="2"/><line x1="575" y1="440" x2="625" y2="440" fill="none" stroke="#aeb3d6" stroke-miterlimit="10" stroke-width="2"/><line x1="625" y1="420" x2="675" y2="420" fill="none" stroke="#aeb3d6" stroke-miterlimit="10" stroke-width="2"/><line x1="675" y1="400" x2="725" y2="400" fill="none" stroke="#aeb3d6" stroke-miterlimit="10" stroke-width="2"/><line x1="725" y1="380" x2="775" y2="380" fill="none" stroke="#aeb3d6" stroke-miterlimit="10" stroke-width="2"/><line x1="825" y1="340" x2="875" y2="340" fill="none" stroke="#aeb3d6" stroke-miterlimit="10" stroke-width="2"/><line x1="925" y1="300" x2="975" y2="300" fill="none" stroke="#aeb3d6" stroke-miterlimit="10" stroke-width="2"/><line x1="975" y1="280" x2="1025" y2="280" fill="none" stroke="#aeb3d6" stroke-miterlimit="10" stroke-width="2"/><line x1="1025" y1="260" x2="1075" y2="260" fill="none" stroke="#aeb3d6" stroke-miterlimit="10" stroke-width="2"/><line x1="1075" y1="240" x2="1125" y2="240" fill="none" stroke="#aeb3d6" stroke-miterlimit="10" stroke-width="2"/><line x1="1125" y1="220" x2="1175" y2="220" fill="none" stroke="#aeb3d6" stroke-miterlimit="10" stroke-width="2"/><line x1="1175" y1="200" x2="1225" y2="200" fill="none" stroke="#aeb3d6" stroke-miterlimit="10" stroke-width="2"/><line x1="1225" y1="180" x2="1275" y2="180" fill="none" stroke="#aeb3d6" stroke-miterlimit="10" stroke-width="2"/><line x1="1275" y1="160" x2="1325" y2="160" fill="none" stroke="#aeb3d6" stroke-miterlimit="10" stroke-width="2"/><line x1="1325" y1="140" x2="1375" y2="140" fill="none" stroke="#aeb3d6" stroke-miterlimit="10" stroke-width="2"/><line x1="775" y1="360" x2="825" y2="360" fill="none" stroke="#aeb3d6" stroke-miterlimit="10" stroke-width="2"/><line x1="274.99996" y1="560" x2="324.99996" y2="560" fill="none" stroke="#979797" stroke-miterlimit="10" stroke-width="2"/><line x1="875" y1="320" x2="925" y2="320" fill="none" stroke="#979797" stroke-miterlimit="10" stroke-width="2"/><line x1="775" y1="199.99974" x2="825" y2="199.99974" fill="none" stroke="#ffa245" stroke-miterlimit="10" stroke-width="2"/><line x1="775" y1="519.99974" x2="825" y2="519.99974" fill="none" stroke="#ffa245" stroke-miterlimit="10" stroke-width="2"/><path d="M579.30664,40.2207h11.33984v2.10059h-8.8496V48.501h7.46972v2.12988h-7.46972v7.13965h9.14941v2.12988H579.30664Z" fill="#cacaca"/><path d="M603.81641,60.86035l.11914-2.63965a6.46551,6.46551,0,0,1-4.37891,2.04c-3.66016,0-6.0293-2.76074-6.0293-7.62012,0-4.74023,2.999-7.67968,6.32911-7.67968a5.93561,5.93561,0,0,1,4.16992,1.74023h.05957l.24023-1.37988h1.98047V66.0498h-2.49023Zm0-4.67969V48.56055a5.07631,5.07631,0,0,0-3.54-1.5293c-2.33985,0-4.2002,2.25-4.2002,5.5791,0,3.48047,1.47071,5.58008,4.01953,5.58008A4.9361,4.9361,0,0,0,603.81641,56.18066Z" fill="#cacaca"/><path d="M611.0166,54.56055V45.32129h2.48926v8.90918c0,2.73047.81055,3.90039,2.73047,3.90039,1.5,0,2.5498-.75,3.92969-2.46V45.32129h2.46v14.5791h-2.04l-.21-2.28027h-.08985c-1.35058,1.58984-2.79,2.64062-4.7998,2.64062C612.39648,60.26074,611.0166,58.28027,611.0166,54.56055Z" fill="#cacaca"/><path d="M626.64648,56.12012c0-3.17969,2.73047-4.76953,8.93946-5.459,0-1.86035-.59961-3.66015-3-3.66015a7.93386,7.93386,0,0,0-4.34961,1.55957l-.96-1.71a10.82086,10.82086,0,0,1,5.72949-1.88965c3.57031,0,5.07031,2.37011,5.07031,6v8.93945h-2.04l-.21-1.74023h-.08984a7.77746,7.77746,0,0,1-4.83008,2.10058A3.96772,3.96772,0,0,1,626.64648,56.12012Zm8.93946.21V52.28027c-4.85938.60059-6.53906,1.80078-6.53906,3.66016,0,1.65039,1.13867,2.33984,2.5791,2.33984C633.03613,58.28027,634.17578,57.59082,635.58594,56.33008Z" fill="#cacaca"/><path d="M642.666,56.96094V38.541H645.127v18.5996c0,.78028.33008,1.08008.68946,1.08008a2.04975,2.04975,0,0,0,.54-.06054l.33007,1.86035a3.32112,3.32112,0,0,1-1.41015.24023C643.416,60.26074,642.666,59.09082,642.666,56.96094Z" fill="#cacaca"/><path d="M660.63574,42.32129h-5.94043V40.2207H669.0957v2.10059h-5.93945v17.5791h-2.52051Z" fill="#cacaca"/><path d="M669.33594,52.64062c0-4.76953,3.21-7.67968,6.54-7.67968,3.71972,0,5.81933,2.66992,5.81933,6.83984a9.47425,9.47425,0,0,1-.08984,1.41016h-9.83985c.17969,3.08984,2.07032,5.06933,4.85938,5.06933a6.59323,6.59323,0,0,0,3.63086-1.13965l.86914,1.62012a8.68265,8.68265,0,0,1-4.79883,1.5C672.42578,60.26074,669.33594,57.41016,669.33594,52.64062Zm10.19922-1.20019c0-2.93945-1.31934-4.5293-3.59961-4.5293-2.03907,0-3.89942,1.64942-4.19922,4.5293Z" fill="#cacaca"/><path d="M685.29492,45.32129h2.041l.209,2.09961h.08985a6.409,6.409,0,0,1,4.53027-2.46,3.82707,3.82707,0,0,1,4.02051,2.79c1.52929-1.65039,3.02929-2.79,4.79883-2.79,3,0,4.43945,1.98047,4.43945,5.70019v9.23926h-2.459V50.99121c0-2.73047-.87011-3.90039-2.70019-3.90039-1.13965,0-2.30957.75-3.65918,2.25V59.90039h-2.46094V50.99121c0-2.73047-.86914-3.90039-2.72949-3.90039-1.08008,0-2.30957.75-3.65918,2.25V59.90039h-2.46094Z" fill="#cacaca"/><path d="M710.166,45.32129h2.03906L712.416,47.001h.08984a7.53989,7.53989,0,0,1,4.64941-2.04c3.75,0,5.75977,2.91015,5.75977,7.43945,0,4.9502-2.96973,7.86035-6.29981,7.86035a6.75779,6.75779,0,0,1-4.0498-1.68066l.05957,2.5498V66.0498h-2.459Zm10.19921,7.0791c0-3.21-1.08007-5.36914-3.83984-5.36914-1.23047,0-2.46.68945-3.90039,1.97949v7.64942a5.77044,5.77044,0,0,0,3.57031,1.53027C718.5957,58.19043,720.36523,56.001,720.36523,52.40039Z" fill="#cacaca"/><path d="M725.73438,52.64062c0-4.76953,3.21093-7.67968,6.54-7.67968,3.71973,0,5.81934,2.66992,5.81934,6.83984a9.4756,9.4756,0,0,1-.08984,1.41016H728.165c.17969,3.08984,2.06934,5.06933,4.85937,5.06933a6.59253,6.59253,0,0,0,3.62989-1.13965l.87011,1.62012a8.68336,8.68336,0,0,1-4.7998,1.5C728.82422,60.26074,725.73438,57.41016,725.73438,52.64062Zm10.20019-1.20019c0-2.93945-1.31934-4.5293-3.60059-4.5293-2.03906,0-3.89941,1.64942-4.19921,4.5293Z" fill="#cacaca"/><path d="M741.69531,45.32129h2.03907l.21093,2.63965h.08985c.98925-1.83008,2.48925-3,4.13867-3a3.62339,3.62339,0,0,1,1.56055.2998l-.48047,2.16016a4.06614,4.06614,0,0,0-1.40918-.24024c-1.2295,0-2.7002.90039-3.69043,3.36036v9.35937h-2.459Z" fill="#cacaca"/><path d="M750.48438,56.12012c0-3.17969,2.73046-4.76953,8.93945-5.459,0-1.86035-.59961-3.66015-3-3.66015a7.93386,7.93386,0,0,0-4.34961,1.55957l-.959-1.71a10.81492,10.81492,0,0,1,5.7295-1.88965c3.56933,0,5.06933,2.37011,5.06933,6v8.93945H759.875l-.21094-1.74023h-.08984a7.77514,7.77514,0,0,1-4.83008,2.10058A3.96771,3.96771,0,0,1,750.48438,56.12012Zm8.93945.21V52.28027c-4.85938.60059-6.53906,1.80078-6.53906,3.66016,0,1.65039,1.13964,2.33984,2.58007,2.33984C756.875,58.28027,758.01465,57.59082,759.42383,56.33008Z" fill="#cacaca"/><path d="M766.50488,45.32129h2.04l.21,2.09961h.08985a6.40711,6.40711,0,0,1,4.53027-2.46,3.82592,3.82592,0,0,1,4.01953,2.79c1.5293-1.65039,3.0293-2.79,4.79981-2.79,2.999,0,4.43945,1.98047,4.43945,5.70019v9.23926h-2.46V50.99121c0-2.73047-.86914-3.90039-2.69922-3.90039-1.14063,0-2.31055.75-3.66016,2.25V59.90039h-2.46V50.99121c0-2.73047-.87011-3.90039-2.72949-3.90039-1.08008,0-2.31055.75-3.66016,2.25V59.90039h-2.46Z" fill="#cacaca"/><path d="M790.29492,52.64062c0-4.76953,3.209-7.67968,6.53906-7.67968,3.72071,0,5.82032,2.66992,5.82032,6.83984a9.60808,9.60808,0,0,1-.08985,1.41016h-9.83984c.17969,3.08984,2.07031,5.06933,4.85937,5.06933a6.58753,6.58753,0,0,0,3.62989-1.13965l.87011,1.62012a8.686,8.686,0,0,1-4.7998,1.5C793.38477,60.26074,790.29492,57.41016,790.29492,52.64062Zm10.19922-1.20019c0-2.93945-1.32031-4.5293-3.59961-4.5293-2.04,0-3.90039,1.64942-4.20019,4.5293Z" fill="#cacaca"/><path d="M806.25391,45.32129h2.04l.21,2.09961h.08984a6.8724,6.8724,0,0,1,4.88965-2.46c3.05957,0,4.44043,1.98047,4.44043,5.70019v9.23926h-2.46094V50.99121c0-2.73047-.83984-3.90039-2.75977-3.90039-1.5,0-2.51953.78027-3.98925,2.25V59.90039h-2.46Z" fill="#cacaca"/><path d="M823.084,55.40039V47.33105h-2.16015V45.4707l2.28027-.14941.29981-4.08008h2.07031v4.08008h3.92969v2.00976h-3.92969v8.09961c0,1.79981.57031,2.81934,2.25,2.81934a5.29947,5.29947,0,0,0,1.64941-.38965l.47949,1.86035a9.00526,9.00526,0,0,1-2.69921.54C824.13379,60.26074,823.084,58.28027,823.084,55.40039Z" fill="#cacaca"/><path d="M837.60352,57.35059l1.5-1.74024a7.71019,7.71019,0,0,0,5.42968,2.46c2.58008,0,4.10938-1.29,4.10938-3.21,0-2.00976-1.40918-2.63965-3.26953-3.47949l-2.81934-1.23047c-1.86035-.7793-3.99023-2.18945-3.99023-5.06934,0-3,2.61035-5.21972,6.17968-5.21972A8.16329,8.16329,0,0,1,850.5625,42.291l-1.34961,1.62011a6.27526,6.27526,0,0,0-4.46973-1.86035c-2.18945,0-3.65918,1.11035-3.65918,2.87988,0,1.89063,1.709,2.61036,3.26954,3.27051l2.79,1.19922c2.28028.99023,4.04981,2.33984,4.04981,5.25,0,3.12012-2.55078,5.61035-6.68945,5.61035A9.54684,9.54684,0,0,1,837.60352,57.35059Z" fill="#cacaca"/><path d="M853.74414,52.64062c0-4.88964,3.26953-7.67968,7.01953-7.67968a6.05149,6.05149,0,0,1,4.25977,1.71L863.76367,48.291a4.27574,4.27574,0,0,0-2.91015-1.29c-2.64063,0-4.56055,2.28027-4.56055,5.63964,0,3.33008,1.83008,5.58008,4.5,5.58008a5.1809,5.1809,0,0,0,3.41992-1.46972l1.08008,1.64941a7.1127,7.1127,0,0,1-4.709,1.86035C856.71289,60.26074,853.74414,57.4707,853.74414,52.64062Z" fill="#cacaca"/><path d="M867.30371,56.12012c0-3.17969,2.72949-4.76953,8.93945-5.459,0-1.86035-.60058-3.66015-3-3.66015a7.93108,7.93108,0,0,0-4.34961,1.55957l-.96-1.71a10.81789,10.81789,0,0,1,5.7295-1.88965c3.57031,0,5.06933,2.37011,5.06933,6v8.93945h-2.03906l-.21-1.74023h-.09082a7.7703,7.7703,0,0,1-4.8291,2.10058A3.96722,3.96722,0,0,1,867.30371,56.12012Zm8.93945.21V52.28027c-4.86035.60059-6.54,1.80078-6.54,3.66016,0,1.65039,1.14063,2.33984,2.58008,2.33984C873.69336,58.28027,874.834,57.59082,876.24316,56.33008Z" fill="#cacaca"/><path d="M883.32422,56.96094V38.541h2.459v18.5996c0,.78028.33008,1.08008.69043,1.08008a2.04971,2.04971,0,0,0,.54-.06054l.33008,1.86035a3.32118,3.32118,0,0,1-1.41016.24023C884.07422,60.26074,883.32422,59.09082,883.32422,56.96094Z" fill="#cacaca"/><path d="M889.89258,52.64062c0-4.76953,3.21094-7.67968,6.54-7.67968,3.71972,0,5.81933,2.66992,5.81933,6.83984a9.47425,9.47425,0,0,1-.08984,1.41016h-9.83887c.17969,3.08984,2.06934,5.06933,4.85938,5.06933a6.59252,6.59252,0,0,0,3.62988-1.13965l.87012,1.62012a8.68342,8.68342,0,0,1-4.79981,1.5C892.98242,60.26074,889.89258,57.41016,889.89258,52.64062Zm10.20019-1.20019c0-2.93945-1.31933-4.5293-3.60058-4.5293-2.03907,0-3.89942,1.64942-4.19922,4.5293Z" fill="#cacaca"/><path d="M42.25,385.35352h4.67383c3.67383,0,6.14844,1.22558,6.14844,4.82421,0,3.44922-2.44922,5.07422-6.04883,5.07422H44.32422v6.498H42.25Zm4.52344,8.19824c2.84961,0,4.22363-1.04981,4.22363-3.374,0-2.374-1.44922-3.14941-4.32324-3.14941H44.32422v6.52344Z" fill="#979797"/><path d="M55.82422,385.7793a1.42855,1.42855,0,0,1,2.84961,0,1.42863,1.42863,0,0,1-2.84961,0Zm.375,3.82324H58.249V401.75h-2.0498Z" fill="#979797"/><path d="M62.69922,398.001v-6.72364H60.89941v-1.5498l1.89942-.125.25-3.39844h1.72461v3.39844h3.27344v1.6748H64.77344v6.749c0,1.499.47461,2.34863,1.875,2.34863a4.42685,4.42685,0,0,0,1.374-.32422l.39942,1.54883a7.46928,7.46928,0,0,1-2.249.45019C63.57422,402.0498,62.69922,400.40039,62.69922,398.001Z" fill="#979797"/><path d="M69.54883,395.70117c0-4.07324,2.72461-6.39844,5.84863-6.39844a5.04481,5.04481,0,0,1,3.54981,1.42481l-1.05079,1.34961a3.55852,3.55852,0,0,0-2.42382-1.07422c-2.19922,0-3.79883,1.89941-3.79883,4.69824,0,2.77442,1.52441,4.64942,3.749,4.64942a4.31731,4.31731,0,0,0,2.84863-1.22461l.9004,1.374a5.92658,5.92658,0,0,1-3.92383,1.5498C72.02344,402.0498,69.54883,399.72559,69.54883,395.70117Z" fill="#979797"/><path d="M81.84863,383.9541h2.04981v4.84863l-.0752,2.5a5.80711,5.80711,0,0,1,4.04981-2c2.54883,0,3.69824,1.65039,3.69824,4.749V401.75H89.52148v-7.42285c0-2.27442-.69921-3.25-2.29882-3.25-1.25,0-2.09961.65039-3.32422,1.875V401.75H81.84863Z" fill="#979797"/><line x1="110" y1="173.25349" x2="110" y2="575" fill="none" stroke="#979797" stroke-miterlimit="10" stroke-width="3"/><polygon points="97.73 183.194 99.928 185.24 109.997 174.405 120.069 185.24 122.267 183.194 109.997 170 97.73 183.194" fill="#979797"/></svg>