<svg enable-background="new 0 0 3160 1460" viewBox="0 0 3160 1460" xmlns="http://www.w3.org/2000/svg"><path d="m1120 486v80h-460v-100h112.8983154" fill="none" stroke="#0089ff" stroke-width="2.6"/><path d="m763.4217529 477.6969299-1.9508667-2.094696 10.329773-9.5994263-10.329773-9.6022644 1.9508667-2.0947265 12.5782471 11.6969909z" fill="#0089ff"/><path d="m980 426h52.898315" fill="none" stroke="#0089ff" stroke-width="2.6"/><path d="m1023.4217529 437.6969299-1.9508667-2.094696 10.329773-9.5994263-10.329773-9.6022644 1.9508667-2.0947265 12.5782471 11.6969909z" fill="#0089ff"/><path d="m1240 426h58.898315" fill="none" stroke="#0089ff" stroke-width="2.6"/><path d="m1289.4217529 437.6969299-1.9509277-2.094696 10.329834-9.5994263-10.329834-9.6022644 1.9509277-2.0947265 12.5782471 11.6969909z" fill="#0089ff"/><path d="m1354 426h172.898315" fill="none" stroke="#0089ff" stroke-width="2.6"/><path d="m1517.4217529 437.6969299-1.9509277-2.094696 10.329834-9.5994263-10.329834-9.6022644 1.9509277-2.0947265 12.5782471 11.6969909z" fill="#0089ff"/><path d="m1646 426h63.898315" fill="none" stroke="#0089ff" stroke-width="2.6"/><path d="m1700.4217529 437.6969299-1.9509277-2.094696 10.329834-9.5994263-10.329834-9.6022644 1.9509277-2.0947265 12.5782471 11.6969909z" fill="#0089ff"/><path d="m1772.5 426h587.5v160h132.8984375" fill="none" stroke="#0089ff" stroke-width="2.6"/><path d="m2483.4216309 597.6969604-1.9506836-2.0947265 10.3298339-9.5994263-10.3298339-9.6022339 1.9506836-2.0947265 12.5783691 11.6969604z" fill="#0089ff"/><path d="m1772 806h588v-140h132.8984375" fill="none" stroke="#0089ff" stroke-width="2.6"/><path d="m2483.4216309 677.6969604-1.9506836-2.0947265 10.3298339-9.5994263-10.3298339-9.6022339 1.9506836-2.0947265 12.5783691 11.6969604z" fill="#0089ff"/><path d="m1120 866v80h-460v-100h112.8983154" fill="none" stroke="#0089ff" stroke-width="2.6"/><path d="m763.4217529 857.6969604-1.9508667-2.0947265 10.329773-9.5994263-10.329773-9.6022339 1.9508667-2.0947265 12.5782471 11.6969604z" fill="#0089ff"/><path d="m980 806h52.898315" fill="none" stroke="#0089ff" stroke-width="2.6"/><path d="m1023.4217529 817.6969604-1.9508667-2.0947265 10.329773-9.5994263-10.329773-9.6022339 1.9508667-2.0947265 12.5782471 11.6969604z" fill="#0089ff"/><path d="m1240 806h58.898315" fill="none" stroke="#0089ff" stroke-width="2.6"/><path d="m1289.4217529 817.6969604-1.9509277-2.0947265 10.329834-9.5994263-10.329834-9.6022339 1.9509277-2.0947265 12.5782471 11.6969604z" fill="#0089ff"/><path d="m1354 806h172.898315" fill="none" stroke="#0089ff" stroke-width="2.6"/><path d="m1517.4217529 817.6969604-1.9509277-2.0947265 10.329834-9.5994263-10.329834-9.6022339 1.9509277-2.0947265 12.5782471 11.6969604z" fill="#0089ff"/><path d="m1646 806h63.898315" fill="none" stroke="#0089ff" stroke-width="2.6"/><path d="m1700.4217529 817.6969604-1.9509277-2.0947265 10.329834-9.5994263-10.329834-9.6022339 1.9509277-2.0947265 12.5782471 11.6969604z" fill="#0089ff"/><path d="m2720 626h80v160h-340v172.8983154" fill="none" stroke="#0089ff" stroke-width="2.6"/><path d="m2448.3029785 949.4217529 2.0947266-1.9508667 9.5996094 10.329773 9.6020507-10.329773 2.0947266 1.9508667-11.6967773 12.5782471z" fill="#0089ff"/><path d="m2520 993.5h37.898438" fill="none" stroke="#0089ff" stroke-width="2.6"/><path d="m2548.4216309 1005.1969604-1.9506836-2.0947265 10.3298339-9.5994263-10.3298339-9.6022339 1.9506836-2.0947265 12.5783691 11.6969604z" fill="#0089ff"/><path d="m2520 1018.5h37.898438" fill="none" stroke="#0089ff" stroke-width="2.6"/><path d="m2548.4216309 1030.1970215-1.9506836-2.0947266 10.3298339-9.5994873-10.3298339-9.6022339 1.9506836-2.0947265 12.5783691 11.6969604z" fill="#0089ff"/><path d="m2695 1016h85v110h-960v152.5h152.8983154" fill="none" stroke="#0089ff" stroke-width="2.6"/><path d="m1963.4217529 1290.1968994-1.9509277-2.0947265 10.329834-9.5993653-10.329834-9.6022949 1.9509277-2.0947266 12.5782471 11.6970215z" fill="#0089ff"/><path d="m2695 996h105v150h-960v107.5h132.8983154" fill="none" stroke="#0089ff" stroke-width="2.6"/><path d="m1963.4217529 1265.1968994-1.9509277-2.0947265 10.329834-9.5993653-10.329834-9.6022949 1.9509277-2.0947266 12.5782471 11.6970215z" fill="#0089ff"/><path d="m2120 1253.5h52.898438" fill="none" stroke="#0089ff" stroke-width="2.6"/><path d="m2163.4216309 1265.1968994-1.9506836-2.0947265 10.3298339-9.5993653-10.3298339-9.6022949 1.9506836-2.0947266 12.5783691 11.6970215z" fill="#0089ff"/><path d="m2120 1278.5h52.898438" fill="none" stroke="#0089ff" stroke-width="2.6"/><path d="m2163.4216309 1290.1968994-1.9506836-2.0947265 10.3298339-9.5993653-10.3298339-9.6022949 1.9506836-2.0947266 12.5783691 11.6970215z" fill="#0089ff"/><path d="m2320 1253.5h52.898438" fill="none" stroke="#0089ff" stroke-width="2.6"/><path d="m2363.4216309 1265.1968994-1.9506836-2.0947265 10.3298339-9.5993653-10.3298339-9.6022949 1.9506836-2.0947266 12.5783691 11.6970215z" fill="#0089ff"/><path d="m2320 1278.5h52.898438" fill="none" stroke="#0089ff" stroke-width="2.6"/><path d="m2363.4216309 1290.1968994-1.9506836-2.0947265 10.3298339-9.5993653-10.3298339-9.6022949 1.9506836-2.0947266 12.5783691 11.6970215z" fill="#0089ff"/><path d="m2520 1253.5h52.898438" fill="none" stroke="#0089ff" stroke-width="2.6"/><path d="m2563.4216309 1265.1968994-1.9506836-2.0947265 10.3298339-9.5993653-10.3298339-9.6022949 1.9506836-2.0947266 12.5783691 11.6970215z" fill="#0089ff"/><path d="m2520 1278.5h52.898438" fill="none" stroke="#0089ff" stroke-width="2.6"/><path d="m2563.4216309 1290.1968994-1.9506836-2.0947265 10.3298339-9.5993653-10.3298339-9.6022949 1.9506836-2.0947266 12.5783691 11.6970215z" fill="#0089ff"/><path d="m2720 1253.5h52.898438" fill="none" stroke="#0089ff" stroke-width="2.6"/><path d="m2763.4216309 1265.1968994-1.9506836-2.0947265 10.3298339-9.5993653-10.3298339-9.6022949 1.9506836-2.0947266 12.5783691 11.6970215z" fill="#0089ff"/><path d="m2720 1278.5h52.898438" fill="none" stroke="#0089ff" stroke-width="2.6"/><path d="m2763.4216309 1290.1968994-1.9506836-2.0947265 10.3298339-9.5993653-10.3298339-9.6022949 1.9506836-2.0947266 12.5783691 11.6970215z" fill="#0089ff"/><path d="m2920 1253.5h156.898438" fill="none" stroke="#0089ff" stroke-width="2.6"/><path d="m3067.4216309 1265.1968994-1.9506836-2.0947265 10.3298339-9.5993653-10.3298339-9.6022949 1.9506836-2.0947266 12.5783691 11.6970215z" fill="#0089ff"/><path d="m2920 1278.5h156.898438" fill="none" stroke="#0089ff" stroke-width="2.6"/><g fill="#0089ff"><path d="m3067.4216309 1290.1968994-1.9506836-2.0947265 10.3298339-9.5993653-10.3298339-9.6022949 1.9506836-2.0947266 12.5783691 11.6970215z"/><path d="m2800 631c-2.75 0-5-2.25-5-5 0-2.75 2.25-5 5-5 2.75 0 5 2.25 5 5 0 2.75-2.25 5-5 5z" stroke="#0089ff" stroke-width="4"/><path d="m734 860h-28c-7.7000122 0-14-6.2999878-14-14 0-7.7000122 6.2999878-14 14-14h28c7.7000122 0 14 6.2999878 14 14 0 7.7000122-6.2999878 14-14 14z"/><path d="m2474 910h-28c-7.6999512 0-14-6.2999878-14-14 0-7.7000122 6.3000488-14 14-14h28c7.6999512 0 14 6.2999878 14 14 0 7.7000122-6.3000488 14-14 14z"/><path d="m734 480h-28c-7.7000122 0-14-6.2999878-14-14 0-7.7000122 6.2999878-14 14-14h28c7.7000122 0 14 6.2999878 14 14 0 7.7000122-6.2999878 14-14 14z"/><path d="m1879 1267c-7.6999512 0-14-6.3000488-14-14 0-7.6999512 6.3000488-14 14-14 7.6999512 0 14 6.3000488 14 14 0 7.6999512-6.3000488 14-14 14z"/><path d="m1913 1292c-7.6999512 0-14-6.3000488-14-14 0-7.6999512 6.3000488-14 14-14 7.6999512 0 14 6.3000488 14 14 0 7.6999512-6.3000488 14-14 14z"/><path d="m2422 680c-7.6999512 0-14-6.2999878-14-13.999939v-.000061c0-7.7000122 6.3000488-14 14-14 7.6999512 0 14 6.2999878 14 14v.000061c0 7.6999512-6.3000488 13.999939-14 13.999939z"/><path d="m2422 600c-7.6999512 0-14-6.2999878-14-13.999939v-.000061c0-7.7000122 6.3000488-14 14-14 7.6999512 0 14 6.2999878 14 14v.000061c0 7.6999512-6.3000488 13.999939-14 13.999939z"/><path d="m3005 1267.5c-7.6999512 0-14-6.3000488-14-14 0-7.6999512 6.3000488-14 14-14 7.6999512 0 14 6.3000488 14 14 0 7.6999512-6.3000488 14-14 14z"/><path d="m3039 1291.5c-7.6999512 0-14-6.3000488-14-14 0-7.6999512 6.3000488-14 14-14 7.6999512 0 14 6.3000488 14 14 0 7.6999512-6.3000488 14-14 14z"/></g><path d="m2416.8291016 659.09375h5.0166016c3.2402344 0 5.6162109.984375 5.6162109 3.8642578 0 1.4882812-.8164062 2.9287109-2.1845703 3.4082031v.0957031c1.7285156.3847656 3.0009766 1.6083984 3.0009766 3.7207031 0 3.1445312-2.5683594 4.6083984-6.0244141 4.6083984h-5.4248047zm4.7763672 6.4804688c2.1845703 0 3.1201172-.8642578 3.1201172-2.2080078 0-1.5361328-1.0322266-2.1123047-3.0722656-2.1123047h-2.0400391v4.3203125zm.3603515 7.0566406c2.3037109 0 3.5996094-.8398438 3.5996094-2.5917969 0-1.65625-1.2480469-2.3769531-3.5996094-2.3769531h-2.3525391v4.96875z"/><path d="m2420.3681641 577.96875h3.2646484l5.1123047 15.6972656h-2.9287109l-1.2236328-4.2480469h-5.2802735l-1.2246094 4.2480469h-2.8320312zm-.4082032 9.2646484h4.0087891l-.5527344-1.9199219c-.5039062-1.65625-.9599609-3.4560547-1.4160156-5.1845703h-.0957031c-.4316406 1.7519531-.8876953 3.5283203-1.3925781 5.1845703z"/><path d="m2440.6201172 902.4833984 1.6318359-1.8955078c1.1279297 1.0556641 2.640625 1.7763672 4.0810547 1.7763672 1.7753906 0 2.7353516-.7929688 2.7353516-2.0166016 0-1.2958984-1.0078125-1.7041016-2.4238281-2.3046875l-2.1601562-.9355469c-1.5361328-.6484375-3.1679688-1.8720703-3.1679688-4.1767578 0-2.4960938 2.2080078-4.4160156 5.2802734-4.4160156 1.8242188 0 3.6005859.7675781 4.8242188 1.9921875l-1.4160156 1.7763672c-1.0078125-.8398438-2.0644531-1.3447266-3.4082031-1.3447266-1.4882812 0-2.4726562.6962891-2.4726562 1.8486328 0 1.2236328 1.2001953 1.6796875 2.4970703 2.2080078l2.1357422.8876953c1.8476562.7929688 3.1679688 1.96875 3.1679688 4.2490234 0 2.5439453-2.1123047 4.65625-5.640625 4.65625-2.1113283.0000001-4.1757815-.8398436-5.6640627-2.3046874z"/><path d="m2453.8925781 888.8027344h2.9521484l2.2080078 7.8964844c.5039062 1.7763672.8642578 3.3125 1.3925781 5.1123047h.0957031c.5283203-1.7998047.8876953-3.3359375 1.3681641-5.1123047l2.1835938-7.8964844h2.8564453l-4.8720703 15.6972656h-3.2880859z"/><path d="m2470.0439453 888.8027344h9.4804688v2.3525391h-6.6962891v4.4404297h5.7128906v2.3515625h-5.7128906v6.5527343h-2.7841797z"/><path d="m701.0078125 852.4833984 1.6318359-1.8955078c1.1279297 1.0556641 2.640625 1.7763672 4.0810547 1.7763672 1.7753906 0 2.7353516-.7929688 2.7353516-2.0166016 0-1.2958984-1.0078125-1.7041016-2.4238281-2.3046875l-2.1601562-.9355469c-1.5361328-.6484375-3.1679688-1.8720703-3.1679688-4.1767578 0-2.4960938 2.2080078-4.4160156 5.2802734-4.4160156 1.8242188 0 3.6005859.7675781 4.8242188 1.9921875l-1.4160156 1.7763672c-1.0078125-.8398438-2.0644531-1.3447266-3.4082031-1.3447266-1.4882812 0-2.4726562.6962891-2.4726562 1.8486328 0 1.2236328 1.2001953 1.6796875 2.4960938 2.2080078l2.1367188.8876953c1.8476562.7929688 3.1679688 1.96875 3.1679688 4.2490234 0 2.5439453-2.1123047 4.65625-5.640625 4.65625-2.1113284.0000001-4.1757815-.8398436-5.6640628-2.3046874z"/><path d="m714.1601562 848.6191406c0-3.8398438 2.6640625-6.1923828 5.4238281-6.1923828 3.1923828 0 4.8730469 2.3046875 4.8730469 5.5927734 0 .5283203-.0478516 1.0556641-.1201172 1.34375h-7.4892578c.2402344 2.0888672 1.5849609 3.2880859 3.4804688 3.2880859 1.0087891 0 1.8720703-.3115234 2.7363281-.8632812l.9365234 1.7275391c-1.1279297.7441406-2.5449219 1.2724609-4.0322266 1.2724609-3.2646483 0-5.8085937-2.2802734-5.8085937-6.1689453zm7.8964844-1.1279297c0-1.8242188-.7919922-2.9277344-2.4003906-2.9277344-1.3916016 0-2.5917969 1.0322266-2.8320312 2.9277344z"/><path d="m727.0957031 851.4755859v-13.9208984h2.7607422v14.0654297c0 .671875.3115234.9121094.5996094.9121094.1201172 0 .2158203 0 .4326172-.0488281l.359375 2.0644531c-.3359375.1445312-.8154297.2402344-1.4638672.2402344-1.9677735-.0000001-2.6884766-1.272461-2.6884766-3.3125001z"/><path d="m734.0800781 844.8994141h-1.5839844v-2.0644531l1.5839844-.1201172v-1.2236328c0-2.4482422 1.1279297-4.2246094 3.9121094-4.2246094.8398438 0 1.6318359.1923828 2.1601562.4082031l-.5283203 2.0634766c-.4316406-.1914062-.8876953-.2871094-1.2958984-.2871094-.9599609 0-1.4882812.6240234-1.4882812 1.9921875v1.2714844h2.3046875v2.1845703h-2.3046875v9.6005859h-2.7597656v-9.6005859z"/><path d="m701.0078125 472.4833984 1.6318359-1.8955078c1.1279297 1.0556641 2.640625 1.7763672 4.0810547 1.7763672 1.7753906 0 2.7353516-.7929688 2.7353516-2.0166016 0-1.2958984-1.0078125-1.7041016-2.4238281-2.3046875l-2.1601562-.9355469c-1.5361328-.6484375-3.1679688-1.8720703-3.1679688-4.1767578 0-2.4960938 2.2080078-4.4160156 5.2802734-4.4160156 1.8242188 0 3.6005859.7675781 4.8242188 1.9921875l-1.4160156 1.7763672c-1.0078125-.8398438-2.0644531-1.3447266-3.4082031-1.3447266-1.4882812 0-2.4726562.6962891-2.4726562 1.8486328 0 1.2236328 1.2001953 1.6796875 2.4960938 2.2080078l2.1367188.8876953c1.8476562.7929688 3.1679688 1.96875 3.1679688 4.2490234 0 2.5439453-2.1123047 4.65625-5.640625 4.65625-2.1113284.0000001-4.1757815-.8398436-5.6640628-2.3046874z"/><path d="m714.1601562 468.6191406c0-3.8398438 2.6640625-6.1923828 5.4238281-6.1923828 3.1923828 0 4.8730469 2.3046875 4.8730469 5.5927734 0 .5283203-.0478516 1.0556641-.1201172 1.34375h-7.4892578c.2402344 2.0888672 1.5849609 3.2880859 3.4804688 3.2880859 1.0087891 0 1.8720703-.3115234 2.7363281-.8632812l.9365234 1.7275391c-1.1279297.7441406-2.5449219 1.2724609-4.0322266 1.2724609-3.2646483 0-5.8085937-2.2802734-5.8085937-6.1689453zm7.8964844-1.1279297c0-1.8242188-.7919922-2.9277344-2.4003906-2.9277344-1.3916016 0-2.5917969 1.0322266-2.8320312 2.9277344z"/><path d="m727.0957031 471.4755859v-13.9208984h2.7607422v14.0654297c0 .671875.3115234.9121094.5996094.9121094.1201172 0 .2158203 0 .4326172-.0488281l.359375 2.0644531c-.3359375.1445312-.8154297.2402344-1.4638672.2402344-1.9677735-.0000001-2.6884766-1.272461-2.6884766-3.3125001z"/><path d="m734.0800781 464.8994141h-1.5839844v-2.0644531l1.5839844-.1201172v-1.2236328c0-2.4482422 1.1279297-4.2246094 3.9121094-4.2246094.8398438 0 1.6318359.1923828 2.1601562.4082031l-.5283203 2.0634766c-.4316406-.1914062-.8876953-.2871094-1.2958984-.2871094-.9599609 0-1.4882812.6240234-1.4882812 1.9921875v1.2714844h2.3046875v2.1845703h-2.3046875v9.6005859h-2.7597656v-9.6005859z"/><path d="m1874.7441406 1246.0625h2.7841797v13.3447266h6.5283203v2.3525391h-9.3125z"/><path d="m1908.2490234 1271.0625h5.3046875c3.2636719 0 5.7607422 1.1523438 5.7607422 4.65625 0 2.4003906-1.2490234 3.8408203-3.1210938 4.4882812l3.7451172 6.5527344h-3.1210938l-3.3837891-6.1445312h-2.4003906v6.1445312h-2.7841797v-15.6972656zm5.0166016 7.3447266c2.1357422 0 3.3125-.9121094 3.3125-2.6884766 0-1.7998047-1.1767578-2.4238281-3.3125-2.4238281h-2.2324219v5.1123047z"/><path d="m3000.7441406 1246.5625h2.7841797v13.3447266h6.5283203v2.3525391h-9.3125z"/><path d="m3034.2490234 1270.5625h5.3046875c3.2636719 0 5.7607422 1.1523438 5.7607422 4.65625 0 2.4003906-1.2490234 3.8408203-3.1210938 4.4882812l3.7451172 6.5527344h-3.1210938l-3.3837891-6.1445312h-2.4003906v6.1445312h-2.7841797v-15.6972656zm5.0166016 7.3447266c2.1357422 0 3.3125-.9121094 3.3125-2.6884766 0-1.7998047-1.1767578-2.4238281-3.3125-2.4238281h-2.2324219v5.1123047z"/></svg>