<svg xmlns="http://www.w3.org/2000/svg" viewBox="0 0 1470 900"><title>TL-verstimmt-1 web</title><rect x="0.25" y="0.25" width="1469.5" height="899.5" rx="1.75" ry="1.75" fill="#202020"/><path d="M1468,.5a1.50168,1.50168,0,0,1,1.5,1.5V898a1.50164,1.50164,0,0,1-1.5,1.5H2A1.50164,1.50164,0,0,1,.5,898V2A1.50168,1.50168,0,0,1,2,.5H1468m0-.5H2A2.00006,2.00006,0,0,0,0,2V898a2.0001,2.0001,0,0,0,2,2H1468a2.0001,2.0001,0,0,0,2-2V2a2.00006,2.00006,0,0,0-2-2Z" fill="#363636"/><rect x="175" y="100" width="1200" height="585" fill="#4e4e4e"/><line x1="175" y1="120" x2="1375" y2="120" fill="none" stroke="#363636" stroke-miterlimit="10"/><line x1="175" y1="140" x2="1375" y2="140" fill="none" stroke="#363636" stroke-miterlimit="10"/><line x1="175" y1="160" x2="1375" y2="160" fill="none" stroke="#363636" stroke-miterlimit="10"/><line x1="175" y1="180" x2="1375" y2="180" fill="none" stroke="#363636" stroke-miterlimit="10"/><line x1="175" y1="200" x2="1375" y2="200" fill="none" stroke="#363636" stroke-miterlimit="10"/><line x1="175" y1="220" x2="1375" y2="220" fill="none" stroke="#363636" stroke-miterlimit="10"/><line x1="175" y1="240" x2="1375" y2="240" fill="none" stroke="#363636" stroke-miterlimit="10"/><line x1="175" y1="260" x2="1375" y2="260" fill="none" stroke="#363636" stroke-miterlimit="10"/><line x1="175" y1="280" x2="1375" y2="280" fill="none" stroke="#363636" stroke-miterlimit="10"/><line x1="175" y1="300" x2="1375" y2="300" fill="none" stroke="#363636" stroke-miterlimit="10"/><line x1="175" y1="360" x2="1375" y2="360" fill="none" stroke="#363636" stroke-miterlimit="10"/><line x1="175" y1="380" x2="1375" y2="380" fill="none" stroke="#363636" stroke-miterlimit="10"/><line x1="175" y1="400" x2="1375" y2="400" fill="none" stroke="#363636" stroke-miterlimit="10"/><line x1="175" y1="340" x2="1375" y2="340" fill="none" stroke="#363636" stroke-miterlimit="10"/><line x1="175" y1="420" x2="1375" y2="420" fill="none" stroke="#363636" stroke-miterlimit="10"/><line x1="175" y1="440" x2="1375" y2="440" fill="none" stroke="#363636" stroke-miterlimit="10"/><line x1="175" y1="460" x2="1375" y2="460" fill="none" stroke="#363636" stroke-miterlimit="10"/><line x1="175" y1="480" x2="1375" y2="480" fill="none" stroke="#363636" stroke-miterlimit="10"/><line x1="175" y1="500" x2="1375" y2="500" fill="none" stroke="#363636" stroke-miterlimit="10"/><line x1="175" y1="520" x2="1375" y2="520" fill="none" stroke="#363636" stroke-miterlimit="10"/><line x1="175" y1="540" x2="1375" y2="540" fill="none" stroke="#363636" stroke-miterlimit="10"/><line x1="175" y1="580" x2="1375" y2="580" fill="none" stroke="#363636" stroke-miterlimit="10"/><line x1="175" y1="600" x2="1375" y2="600" fill="none" stroke="#363636" stroke-miterlimit="10"/><line x1="175" y1="320" x2="1375" y2="320" fill="none" stroke="#1a1c24" stroke-miterlimit="10" stroke-width="2"/><line x1="175" y1="560" x2="1375" y2="560" fill="none" stroke="#1a1c24" stroke-miterlimit="10" stroke-width="2"/><rect x="274.99996" y="100" width="50" height="585.00026" fill="#666"/><rect x="875" y="100" width="50" height="585.00026" fill="#666"/><line x1="224.99999" y1="685.00026" x2="224.99999" y2="100.00017" fill="none" stroke="#363636" stroke-miterlimit="10"/><line x1="174.99999" y1="685.00026" x2="174.99999" y2="100.00017" fill="none" stroke="#363636" stroke-miterlimit="10"/><line x1="324.99999" y1="685.00026" x2="324.99999" y2="100.00017" fill="none" stroke="#363636" stroke-miterlimit="10"/><line x1="274.99999" y1="685.00026" x2="274.99999" y2="100.00017" fill="none" stroke="#363636" stroke-miterlimit="10"/><line x1="424.99999" y1="685.00026" x2="424.99999" y2="100.00017" fill="none" stroke="#363636" stroke-miterlimit="10"/><line x1="374.99999" y1="685.00026" x2="374.99999" y2="100.00017" fill="none" stroke="#363636" stroke-miterlimit="10"/><line x1="524.99999" y1="685.00026" x2="524.99999" y2="100.00017" fill="none" stroke="#363636" stroke-miterlimit="10"/><line x1="474.99999" y1="685.00026" x2="474.99999" y2="100.00017" fill="none" stroke="#363636" stroke-miterlimit="10"/><line x1="624.99999" y1="685.00026" x2="624.99999" y2="100.00017" fill="none" stroke="#363636" stroke-miterlimit="10"/><line x1="574.99999" y1="685.00026" x2="574.99999" y2="100.00017" fill="none" stroke="#363636" stroke-miterlimit="10"/><line x1="724.99999" y1="685.00026" x2="724.99999" y2="100.00017" fill="none" stroke="#363636" stroke-miterlimit="10"/><line x1="674.99999" y1="685.00026" x2="674.99999" y2="100.00017" fill="none" stroke="#363636" stroke-miterlimit="10"/><line x1="824.99999" y1="685.00026" x2="824.99999" y2="100.00017" fill="none" stroke="#363636" stroke-miterlimit="10"/><line x1="774.99999" y1="685.00026" x2="774.99999" y2="100.00017" fill="none" stroke="#363636" stroke-miterlimit="10"/><line x1="924.99999" y1="685.00026" x2="924.99999" y2="100.00017" fill="none" stroke="#363636" stroke-miterlimit="10"/><line x1="874.99999" y1="685.00026" x2="874.99999" y2="100.00017" fill="none" stroke="#363636" stroke-miterlimit="10"/><line x1="1024.99999" y1="685.00026" x2="1024.99999" y2="100.00017" fill="none" stroke="#363636" stroke-miterlimit="10"/><line x1="974.99999" y1="685.00026" x2="974.99999" y2="100.00017" fill="none" stroke="#363636" stroke-miterlimit="10"/><line x1="1124.99999" y1="685.00026" x2="1124.99999" y2="100.00017" fill="none" stroke="#363636" stroke-miterlimit="10"/><line x1="1074.99999" y1="685.00026" x2="1074.99999" y2="100.00017" fill="none" stroke="#363636" stroke-miterlimit="10"/><line x1="1224.99999" y1="685.00026" x2="1224.99999" y2="100.00017" fill="none" stroke="#363636" stroke-miterlimit="10"/><line x1="1174.99999" y1="685.00026" x2="1174.99999" y2="100.00017" fill="none" stroke="#363636" stroke-miterlimit="10"/><line x1="1324.99999" y1="685.00026" x2="1324.99999" y2="100.00017" fill="none" stroke="#363636" stroke-miterlimit="10"/><line x1="1374.99999" y1="685.00026" x2="1374.99999" y2="100.00017" fill="none" stroke="#363636" stroke-miterlimit="10"/><line x1="1274.99999" y1="685.00026" x2="1274.99999" y2="100.00017" fill="none" stroke="#363636" stroke-miterlimit="10"/><rect x="275" y="800" width="600" height="30" fill="#7f8294"/><polygon points="1370 830 875 830 875 800 1430 800 1370 830" fill="#b8b9c2"/><polygon points="275 830 90 830 150 800 275 800 275 830" fill="#b8b9c2"/><polygon points="900 815 880 807.5 880 822.5 900 815" fill="#7f8294"/><polygon points="250 815 270 822.5 270 807.5 250 815" fill="#7f8294"/><line x1="275" y1="845" x2="275" y2="750.00026" fill="none" stroke="#b8b9c2" stroke-linecap="round" stroke-miterlimit="10"/><line x1="875" y1="845" x2="875" y2="750.00026" fill="none" stroke="#b8b9c2" stroke-linecap="round" stroke-miterlimit="10"/><path d="M225,685.00026h50a0,0,0,0,1,0,0v68a7,7,0,0,1-7,7H232a7,7,0,0,1-7-7v-68A0,0,0,0,1,225,685.00026Z" fill="#202020" stroke="#363636" stroke-miterlimit="10"/><path d="M325,685.00026h50a0,0,0,0,1,0,0v68a7,7,0,0,1-7,7H332a7,7,0,0,1-7-7v-68A0,0,0,0,1,325,685.00026Z" fill="#202020" stroke="#363636" stroke-miterlimit="10"/><path d="M675,685.00026h50a0,0,0,0,1,0,0v68a7,7,0,0,1-7,7H682a7,7,0,0,1-7-7v-68A0,0,0,0,1,675,685.00026Z" fill="#202020" stroke="#363636" stroke-miterlimit="10"/><path d="M475,685.00026h50a0,0,0,0,1,0,0v68a7,7,0,0,1-7,7H482a7,7,0,0,1-7-7v-68A0,0,0,0,1,475,685.00026Z" fill="#202020" stroke="#363636" stroke-miterlimit="10"/><path d="M575,685.00026h50a0,0,0,0,1,0,0v68a7,7,0,0,1-7,7H582a7,7,0,0,1-7-7v-68A0,0,0,0,1,575,685.00026Z" fill="#202020" stroke="#363636" stroke-miterlimit="10"/><path d="M825,685.00026h50a0,0,0,0,1,0,0v68a7,7,0,0,1-7,7H832a7,7,0,0,1-7-7v-68A0,0,0,0,1,825,685.00026Z" fill="#202020" stroke="#363636" stroke-miterlimit="10"/><path d="M925,685.00026h50a0,0,0,0,1,0,0v68a7,7,0,0,1-7,7H932a7,7,0,0,1-7-7v-68A0,0,0,0,1,925,685.00026Z" fill="#202020" stroke="#363636" stroke-miterlimit="10"/><path d="M1275,685.00026h50a0,0,0,0,1,0,0v68a7,7,0,0,1-7,7h-36a7,7,0,0,1-7-7v-68A0,0,0,0,1,1275,685.00026Z" fill="#202020" stroke="#363636" stroke-miterlimit="10"/><path d="M1075,685.00026h50a0,0,0,0,1,0,0v68a7,7,0,0,1-7,7h-36a7,7,0,0,1-7-7v-68A0,0,0,0,1,1075,685.00026Z" fill="#202020" stroke="#363636" stroke-miterlimit="10"/><path d="M1175,685.00026h50a0,0,0,0,1,0,0v68a7,7,0,0,1-7,7h-36a7,7,0,0,1-7-7v-68A0,0,0,0,1,1175,685.00026Z" fill="#202020" stroke="#363636" stroke-miterlimit="10"/><path d="M175,685.00026h50a0,0,0,0,1,0,0v68a7,7,0,0,1-7,7H182a7,7,0,0,1-7-7v-68A0,0,0,0,1,175,685.00026Z" fill="#f1f1f1" stroke="#363636" stroke-miterlimit="10"/><path d="M275,685.00026h50a0,0,0,0,1,0,0v68a7,7,0,0,1-7,7H282a7,7,0,0,1-7-7v-68A0,0,0,0,1,275,685.00026Z" fill="#f1f1f1" stroke="#363636" stroke-miterlimit="10"/><path d="M375,685.00026h50a0,0,0,0,1,0,0v68a7,7,0,0,1-7,7H382a7,7,0,0,1-7-7v-68A0,0,0,0,1,375,685.00026Z" fill="#f1f1f1" stroke="#363636" stroke-miterlimit="10"/><path d="M525,685.00026h50a0,0,0,0,1,0,0v68a7,7,0,0,1-7,7H532a7,7,0,0,1-7-7v-68A0,0,0,0,1,525,685.00026Z" fill="#f1f1f1" stroke="#363636" stroke-miterlimit="10"/><path d="M625,685.00026h50a0,0,0,0,1,0,0v68a7,7,0,0,1-7,7H632a7,7,0,0,1-7-7v-68A0,0,0,0,1,625,685.00026Z" fill="#f1f1f1" stroke="#363636" stroke-miterlimit="10"/><path d="M725,685.00026h50a0,0,0,0,1,0,0v68a7,7,0,0,1-7,7H732a7,7,0,0,1-7-7v-68A0,0,0,0,1,725,685.00026Z" fill="#f1f1f1" stroke="#363636" stroke-miterlimit="10"/><path d="M425,685.00026h50a0,0,0,0,1,0,0v68a7,7,0,0,1-7,7H432a7,7,0,0,1-7-7v-68A0,0,0,0,1,425,685.00026Z" fill="#f1f1f1" stroke="#363636" stroke-miterlimit="10"/><path d="M775,685.00026h50a0,0,0,0,1,0,0v68a7,7,0,0,1-7,7H782a7,7,0,0,1-7-7v-68A0,0,0,0,1,775,685.00026Z" fill="#f1f1f1" stroke="#363636" stroke-miterlimit="10"/><path d="M875,685.00026h50a0,0,0,0,1,0,0v68a7,7,0,0,1-7,7H882a7,7,0,0,1-7-7v-68A0,0,0,0,1,875,685.00026Z" fill="#f1f1f1" stroke="#363636" stroke-miterlimit="10"/><path d="M975,685.00026h50a0,0,0,0,1,0,0v68a7,7,0,0,1-7,7H982a7,7,0,0,1-7-7v-68A0,0,0,0,1,975,685.00026Z" fill="#f1f1f1" stroke="#363636" stroke-miterlimit="10"/><path d="M1125,685.00026h50a0,0,0,0,1,0,0v68a7,7,0,0,1-7,7h-36a7,7,0,0,1-7-7v-68A0,0,0,0,1,1125,685.00026Z" fill="#f1f1f1" stroke="#363636" stroke-miterlimit="10"/><path d="M1225,685.00026h50a0,0,0,0,1,0,0v68a7,7,0,0,1-7,7h-36a7,7,0,0,1-7-7v-68A0,0,0,0,1,1225,685.00026Z" fill="#f1f1f1" stroke="#363636" stroke-miterlimit="10"/><path d="M1325,685.00026h50a0,0,0,0,1,0,0v68a7,7,0,0,1-7,7h-36a7,7,0,0,1-7-7v-68A0,0,0,0,1,1325,685.00026Z" fill="#f1f1f1" stroke="#363636" stroke-miterlimit="10"/><path d="M1025,685.00026h50a0,0,0,0,1,0,0v68a7,7,0,0,1-7,7h-36a7,7,0,0,1-7-7v-68A0,0,0,0,1,1025,685.00026Z" fill="#f1f1f1" stroke="#363636" stroke-miterlimit="10"/><path d="M188.64551,742.7832c0-4.64258,2.72851-7.48144,6.40332-7.48144a5.26925,5.26925,0,0,1,3.96094,1.78222l-.99024,1.18848a3.94534,3.94534,0,0,0-2.94824-1.36426c-2.72852,0-4.5332,2.24414-4.5332,5.83106,0,3.62988,1.73828,5.91894,4.46679,5.91894a4.35624,4.35624,0,0,0,3.34473-1.6289l1.01172,1.14453a5.58535,5.58535,0,0,1-4.42285,2.08984C191.33008,750.26367,188.64551,747.49121,188.64551,742.7832Z" fill="#979797"/><path d="M200.94434,748.92188c4.22461-4.20313,6.60058-6.7334,6.60058-8.999a2.48642,2.48642,0,0,0-2.66211-2.751,4.13706,4.13706,0,0,0-2.99316,1.69433l-1.03418-1.03418a5.51156,5.51156,0,0,1,4.24707-2.13379,3.89871,3.89871,0,0,1,4.20215,4.13672c0,2.63965-2.39844,5.25879-5.72071,8.73438.77051-.06543,1.62891-.13184,2.3545-.13184h4.07031V750h-9.06445Z" fill="#979797"/><path d="M788.64648,742.7832c0-4.64258,2.72852-7.48144,6.40235-7.48144a5.26759,5.26759,0,0,1,3.96094,1.78222l-.99024,1.18848a3.94373,3.94373,0,0,0-2.94824-1.36426c-2.72852,0-4.53223,2.24414-4.53223,5.83106,0,3.62988,1.73828,5.91894,4.46582,5.91894a4.35473,4.35473,0,0,0,3.34473-1.6289l1.01172,1.14453a5.58483,5.58483,0,0,1-4.42188,2.08984C791.33008,750.26367,788.64648,747.49121,788.64648,742.7832Z" fill="#979797"/><path d="M800.63672,748.28418l.92383-1.18848a4.76466,4.76466,0,0,0,3.58593,1.67188,2.61637,2.61637,0,0,0,2.9043-2.57422c0-1.67188-1.14453-2.79395-4.48828-2.79395V742.0127c2.99219,0,3.98242-1.14356,3.98242-2.61817a2.1606,2.1606,0,0,0-2.41992-2.22265,4.25708,4.25708,0,0,0-2.99219,1.43066l-.96875-1.14453a5.78351,5.78351,0,0,1,4.02735-1.75977c2.4414,0,4.20214,1.29785,4.20214,3.56446a3.4797,3.4797,0,0,1-2.55273,3.34472v.08789a3.6213,3.6213,0,0,1,3.03613,3.56446c0,2.48632-2.0459,4.0039-4.62011,4.0039A5.96018,5.96018,0,0,1,800.63672,748.28418Z" fill="#979797"/><path d="M288.81641,734.25488h3.93652c4.84766,0,7.44043,2.80762,7.44043,7.80078,0,5.01563-2.59277,7.94434-7.34473,7.94434h-4.03222Zm3.792,14.11328c3.67285,0,5.52051-2.32812,5.52051-6.3125,0-3.96093-1.84766-6.16894-5.52051-6.16894h-1.79981v12.48144Z" fill="#4e4e4e"/><path d="M302.376,748.82422c4.6084-4.585,7.20019-7.34473,7.20019-9.81738a2.712,2.712,0,0,0-2.90429-3,4.51419,4.51419,0,0,0-3.26368,1.84765l-1.12793-1.12793a6.01033,6.01033,0,0,1,4.63184-2.32812,4.25427,4.25427,0,0,1,4.585,4.51269c0,2.87989-2.61621,5.73633-6.24121,9.52832.83984-.07129,1.77637-.14355,2.56836-.14355h4.44043V750H302.376Z" fill="#4e4e4e"/><path d="M888.81641,734.25488h3.93652c4.84863,0,7.44043,2.80762,7.44043,7.80078,0,5.01563-2.5918,7.94434-7.34473,7.94434h-4.03222Zm3.793,14.11328c3.67187,0,5.51953-2.32812,5.51953-6.3125,0-3.96093-1.84766-6.16894-5.51953-6.16894h-1.80079v12.48144Z" fill="#4e4e4e"/><path d="M902.04,748.12793l1.00879-1.2959a5.1979,5.1979,0,0,0,3.91211,1.82422c1.84765,0,3.168-1.10449,3.168-2.80859,0-1.82422-1.24805-3.04786-4.89649-3.04786v-1.51269c3.26367,0,4.34375-1.24805,4.34375-2.85645a2.35678,2.35678,0,0,0-2.63965-2.42382,4.64363,4.64363,0,0,0-3.26464,1.56054l-1.05567-1.249a6.30807,6.30807,0,0,1,4.3916-1.91992c2.665,0,4.585,1.416,4.585,3.88867a3.79588,3.79588,0,0,1-2.78418,3.64844v.0957a3.952,3.952,0,0,1,3.3125,3.88867c0,2.71192-2.23242,4.36817-5.041,4.36817A6.50776,6.50776,0,0,1,902.04,748.12793Z" fill="#4e4e4e"/><path d="M343.81836,649.24023h-4.00488V647.876h4.00488v-4.29H345.249v4.29h4.00391v1.36425H345.249v4.291h-1.43066Z" fill="#b0b4d1"/><path d="M351.73828,654.32324h3.21192V643.98145h-2.55176v-1.166a8.34365,8.34365,0,0,0,2.96972-1.03418h1.38672v12.542h2.9043v1.4961h-7.9209Z" fill="#b0b4d1"/><path d="M238.35156,649.24023h-4.00488V647.876h4.00488v-4.29h1.43067v4.29h4.0039v1.36425h-4.0039v4.291h-1.43067Z" fill="#b0b4d1"/><path d="M246.27148,654.32324h3.21192V643.98145h-2.55176v-1.166a8.34371,8.34371,0,0,0,2.96973-1.03418h1.38672v12.542h2.90429v1.4961h-7.9209Z" fill="#b0b4d1"/><path d="M257.20508,654.32324H260.417V643.98145h-2.55176v-1.166a8.34371,8.34371,0,0,0,2.96973-1.03418h1.38672v12.542h2.9043v1.4961h-7.9209Z" fill="#b0b4d1"/><path d="M188.35156,649.24023h-4.00488V647.876h4.00488v-4.29h1.43067v4.29h4.0039v1.36425h-4.0039v4.291h-1.43067Z" fill="#b0b4d1"/><path d="M196.27148,654.32324h3.21192V643.98145h-2.55176v-1.166a8.34371,8.34371,0,0,0,2.96973-1.03418h1.38672v12.542h2.90429v1.4961h-7.9209Z" fill="#b0b4d1"/><path d="M206.43457,648.75586c0-4.708,1.69434-7.23828,4.51074-7.23828,2.79492,0,4.48828,2.53027,4.48828,7.23828,0,4.709-1.69336,7.32715-4.48828,7.32715C208.12891,656.083,206.43457,653.46484,206.43457,648.75586Zm7.23926,0c0-4.11426-1.10059-5.78613-2.72852-5.78613-1.65039,0-2.75,1.67187-2.75,5.78613,0,4.11523,1.09961,5.875,2.75,5.875C212.57324,654.63086,213.67383,652.87109,213.67383,648.75586Z" fill="#b0b4d1"/><path d="M393.81836,649.24023h-4.00488V647.876h4.00488v-4.29H395.249v4.29h4.00391v1.36425H395.249v4.291h-1.43066Z" fill="#b0b4d1"/><path d="M400.87988,654.74121c4.22461-4.20312,6.60059-6.7334,6.60059-8.999a2.48642,2.48642,0,0,0-2.66211-2.751,4.137,4.137,0,0,0-2.99219,1.69434l-1.03418-1.03418a5.50811,5.50811,0,0,1,4.2461-2.13379,3.89947,3.89947,0,0,1,4.20312,4.13672c0,2.63965-2.39844,5.25879-5.7207,8.73437.76953-.06543,1.62793-.13183,2.35449-.13183h4.07031v1.5625h-9.06543Z" fill="#b0b4d1"/><path d="M543.81836,649.24023h-4.00391V647.876h4.00391v-4.29H545.249v4.29h4.00489v1.36425H545.249v4.291h-1.43066Z" fill="#b0b4d1"/><path d="M550.55078,654.169l.87891-1.18848a4.7734,4.7734,0,0,0,3.543,1.60644,3.02837,3.02837,0,0,0,3.08007-3.21191,2.82062,2.82062,0,0,0-2.99218-3.08105,3.95268,3.95268,0,0,0-2.39844.85839l-.96777-.61621.46191-6.75488h7.01953v1.5625h-5.43555l-.373,4.1582a4.30963,4.30963,0,0,1,2.15625-.57226,4.041,4.041,0,0,1,4.35547,4.40136,4.589,4.589,0,0,1-4.73047,4.752A6.14711,6.14711,0,0,1,550.55078,654.169Z" fill="#b0b4d1"/><path d="M593.81836,649.24023h-4.00391V647.876h4.00391v-4.29H595.249v4.29h4.00489v1.36425H595.249v4.291h-1.43066Z" fill="#b0b4d1"/><path d="M601.05664,649.32812c0-5.63281,2.55176-7.81054,5.3457-7.81054a4.42477,4.42477,0,0,1,3.38868,1.49609l-1.01172,1.12207a3.05541,3.05541,0,0,0-2.31055-1.10058c-1.958,0-3.6084,1.51855-3.69629,5.96289a4.48182,4.48182,0,0,1,3.27832-1.75977c2.41992,0,4.00488,1.45215,4.00488,4.334a4.24606,4.24606,0,0,1-4.15918,4.51074C603.14648,656.083,601.05664,653.83887,601.05664,649.32812Zm7.2832,2.24415c0-1.82618-.85937-2.96973-2.59765-2.96973a3.73906,3.73906,0,0,0-2.92578,1.84766c.2207,2.72851,1.29882,4.20312,3.08007,4.20312C607.2832,654.65332,608.33984,653.4209,608.33984,651.57227Z" fill="#b0b4d1"/><path d="M643.81836,649.24023h-4.00391V647.876h4.00391v-4.29H645.249v4.29h4.00489v1.36425H645.249v4.291h-1.43066Z" fill="#b0b4d1"/><path d="M657.96582,643.34375h-6.99707v-1.5625h9.043v1.12207c-3.32227,4.24707-4.00488,7.4375-4.24707,12.916h-1.87012C654.13672,650.53809,655.19336,647.19434,657.96582,643.34375Z" fill="#b0b4d1"/><path d="M693.81836,649.24023h-4.00391V647.876h4.00391v-4.29H695.249v4.29h4.00489v1.36425H695.249v4.291h-1.43066Z" fill="#b0b4d1"/><path d="M700.90234,652.23242a4.4358,4.4358,0,0,1,2.64063-3.78418v-.08789a3.98526,3.98526,0,0,1-1.959-3.23437,3.9843,3.9843,0,0,1,7.94336.13183,4.62372,4.62372,0,0,1-1.93554,3.38867v.0879a4.04912,4.04912,0,0,1,2.4414,3.60839c0,2.09082-1.80371,3.74024-4.53222,3.74024C702.86035,656.083,700.90234,654.45508,700.90234,652.23242Zm7.39356.04395c0-1.80371-1.7832-2.46387-3.80664-3.27832a3.80288,3.80288,0,0,0-1.959,3.05859,2.7829,2.7829,0,0,0,3.01465,2.68457A2.50029,2.50029,0,0,0,708.2959,652.27637Zm-.33008-6.93067a2.34387,2.34387,0,0,0-2.44238-2.48632,2.17175,2.17175,0,0,0-2.2666,2.2666c0,1.67187,1.54,2.376,3.23437,3.03613A3.78308,3.78308,0,0,0,707.96582,645.3457Z" fill="#b0b4d1"/><path d="M282.64355,640.03809h3.70411c2.52636,0,4.27441.85449,4.27441,3.03906a2.72637,2.72637,0,0,1-1.82422,2.7168v.07617a2.86678,2.86678,0,0,1,2.5459,2.98242c0,2.45019-1.9375,3.64746-4.73047,3.64746h-3.96973Zm3.41895,5.2998c2.12793,0,3.002-.77832,3.002-2.05176,0-1.44336-.98828-1.99414-2.92578-1.99414h-1.91894v4.0459Zm.32324,5.9082c2.14649,0,3.40039-.77832,3.40039-2.45019,0-1.53906-1.21582-2.24219-3.40039-2.24219h-2.166v4.69238Z" fill="#b0b4d1"/><path d="M293.09277,650.10645c0-2.01368,1.7295-3.02051,5.66114-3.458,0-1.17774-.37989-2.31739-1.89942-2.31739a5.02282,5.02282,0,0,0-2.75488.98829l-.60742-1.083a6.8518,6.8518,0,0,1,3.62793-1.19727c2.26074,0,3.21093,1.501,3.21093,3.79981V652.5h-1.292l-.13281-1.10156h-.05664a4.9277,4.9277,0,0,1-3.05859,1.3291A2.51252,2.51252,0,0,1,293.09277,650.10645Zm5.66114.13281V647.6748c-3.07715.37989-4.14063,1.13965-4.14063,2.31739,0,1.04492.72168,1.48242,1.63379,1.48242A3.74171,3.74171,0,0,0,298.75391,650.23926Z" fill="#b0b4d1"/><path d="M302.21289,651.45508l.7793-1.04492a4.15,4.15,0,0,0,2.71679,1.10156c1.21582,0,1.82325-.64551,1.82325-1.44336,0-.9502-1.10157-1.36816-2.1084-1.74805-1.31055-.47461-2.75488-1.10156-2.75488-2.65918,0-1.48144,1.17773-2.62207,3.17285-2.62207A4.60811,4.60811,0,0,1,308.71,644.084l-.74023.98829a3.43189,3.43189,0,0,0-2.10938-.81739c-1.1582,0-1.69043.627-1.69043,1.33008,0,.874,1.00684,1.19727,2.05176,1.5957,1.33008.49414,2.81152,1.04493,2.81152,2.793,0,1.501-1.19629,2.75391-3.38183,2.75391A5.55934,5.55934,0,0,1,302.21289,651.45508Z" fill="#b0b4d1"/><path d="M310.5166,647.90234c0-3.0205,2.03223-4.86328,4.14063-4.86328,2.35644,0,3.68554,1.69141,3.68554,4.332a6.03035,6.03035,0,0,1-.05664.89258h-6.23144a3.06313,3.06313,0,0,0,3.07812,3.21094,4.17,4.17,0,0,0,2.29883-.72266l.55078,1.02637a5.501,5.501,0,0,1-3.04.94922C312.47266,652.72754,310.5166,650.92285,310.5166,647.90234Zm6.459-.75976c0-1.86133-.83594-2.86817-2.28028-2.86817-1.292,0-2.46972,1.04493-2.65918,2.86817Z" fill="#b0b4d1"/><path d="M287.08008,660.03809h1.57617v6.25h.05762l5.18554-6.25h1.78614l-3.89453,4.749L296.293,672.5h-1.7666l-3.72364-6.47852-2.14648,2.52735V672.5h-1.57617Z" fill="#b0b4d1"/><path d="M297.1123,667.90234c0-3.0205,2.03223-4.86328,4.14063-4.86328,2.35645,0,3.68555,1.69141,3.68555,4.332a6.03171,6.03171,0,0,1-.05664.89258h-6.23145a3.06313,3.06313,0,0,0,3.07813,3.21094,4.17,4.17,0,0,0,2.29882-.72266l.55078,1.02637a5.501,5.501,0,0,1-3.04.94922C299.06836,672.72754,297.1123,670.92285,297.1123,667.90234Zm6.459-.75976c0-1.86133-.83594-2.86817-2.28027-2.86817-1.292,0-2.46973,1.04493-2.65918,2.86817Z" fill="#b0b4d1"/><path d="M306.38379,676.28027l.30371-1.23437a2.72265,2.72265,0,0,0,.70312.13281c1.04493,0,1.71-.83594,2.08985-1.97559l.209-.68457-3.70507-9.251h1.61523l1.88086,5.11035c.28418.79785.60742,1.74707.89258,2.60254h.07617c.26562-.83594.53125-1.78613.77832-2.60254l1.65332-5.11035h1.51953l-3.47656,9.99219c-.64551,1.82421-1.59571,3.21093-3.457,3.21093A3.05889,3.05889,0,0,1,306.38379,676.28027Z" fill="#b0b4d1"/><path d="M838.35156,649.24023h-4.0039V647.876h4.0039v-4.29h1.43067v4.29h4.00488v1.36425h-4.00488v4.291h-1.43067Z" fill="#b0b4d1"/><path d="M846.27148,654.32324h3.2129V643.98145h-2.55274v-1.166a8.35636,8.35636,0,0,0,2.9707-1.03418h1.38575v12.542h2.90429v1.4961h-7.9209Z" fill="#b0b4d1"/><path d="M857.20508,654.32324H860.418V643.98145h-2.55274v-1.166a8.35649,8.35649,0,0,0,2.97071-1.03418h1.38574v12.542h2.9043v1.4961h-7.9209Z" fill="#b0b4d1"/><path d="M943.81836,649.24023h-4.00391V647.876h4.00391v-4.29H945.249v4.29h4.00489v1.36425H945.249v4.291h-1.43066Z" fill="#b0b4d1"/><path d="M951.73828,654.32324h3.21289V643.98145h-2.55273v-1.166a8.35643,8.35643,0,0,0,2.9707-1.03418h1.38574v12.542h2.9043v1.4961h-7.9209Z" fill="#b0b4d1"/><path d="M993.81836,649.24023h-4.00391V647.876h4.00391v-4.29H995.249v4.29h4.00489v1.36425H995.249v4.291h-1.43066Z" fill="#b0b4d1"/><path d="M1000.87988,654.74121c4.22461-4.20312,6.60059-6.7334,6.60059-8.999a2.486,2.486,0,0,0-2.66211-2.751,4.137,4.137,0,0,0-2.99219,1.69434l-1.03418-1.03418a5.51156,5.51156,0,0,1,4.24707-2.13379,3.89919,3.89919,0,0,1,4.20215,4.13672c0,2.63965-2.39844,5.25879-5.7207,8.73437.77051-.06543,1.62793-.13183,2.35449-.13183h4.07031v1.5625h-9.06543Z" fill="#b0b4d1"/><path d="M1143.81836,649.24023h-4.00391V647.876h4.00391v-4.29h1.43066v4.29h4.00489v1.36425H1145.249v4.291h-1.43066Z" fill="#b0b4d1"/><path d="M1150.55078,654.169l.87891-1.18848a4.7734,4.7734,0,0,0,3.543,1.60644,3.02837,3.02837,0,0,0,3.08007-3.21191,2.82062,2.82062,0,0,0-2.99218-3.08105,3.95268,3.95268,0,0,0-2.39844.85839l-.96777-.61621.46191-6.75488h7.01953v1.5625h-5.43555l-.373,4.1582a4.30963,4.30963,0,0,1,2.15625-.57226,4.041,4.041,0,0,1,4.35547,4.40136,4.589,4.589,0,0,1-4.73047,4.752A6.14711,6.14711,0,0,1,1150.55078,654.169Z" fill="#b0b4d1"/><path d="M1193.81836,649.24023h-4.00391V647.876h4.00391v-4.29h1.43066v4.29h4.00489v1.36425H1195.249v4.291h-1.43066Z" fill="#b0b4d1"/><path d="M1201.05664,649.32812c0-5.63281,2.55176-7.81054,5.3457-7.81054a4.42477,4.42477,0,0,1,3.38868,1.49609l-1.01172,1.12207a3.05541,3.05541,0,0,0-2.31055-1.10058c-1.958,0-3.6084,1.51855-3.69629,5.96289a4.48182,4.48182,0,0,1,3.27832-1.75977c2.41992,0,4.00488,1.45215,4.00488,4.334a4.24606,4.24606,0,0,1-4.15918,4.51074C1203.14648,656.083,1201.05664,653.83887,1201.05664,649.32812Zm7.2832,2.24415c0-1.82618-.85937-2.96973-2.59765-2.96973a3.73906,3.73906,0,0,0-2.92578,1.84766c.2207,2.72851,1.29882,4.20312,3.08007,4.20312C1207.2832,654.65332,1208.33984,653.4209,1208.33984,651.57227Z" fill="#b0b4d1"/><path d="M1243.81836,649.24023h-4.00391V647.876h4.00391v-4.29h1.43066v4.29h4.00489v1.36425H1245.249v4.291h-1.43066Z" fill="#b0b4d1"/><path d="M1257.96484,643.34375h-6.99609v-1.5625h9.043v1.12207c-3.32227,4.24707-4.00488,7.4375-4.24707,12.916h-1.87012C1254.13672,650.53809,1255.19336,647.19434,1257.96484,643.34375Z" fill="#b0b4d1"/><path d="M1293.81836,649.24023h-4.00391V647.876h4.00391v-4.29h1.43066v4.29h4.00489v1.36425H1295.249v4.291h-1.43066Z" fill="#b0b4d1"/><path d="M1300.90234,652.23242a4.4358,4.4358,0,0,1,2.64063-3.78418v-.08789a3.983,3.983,0,0,1-1.959-3.23437,3.98431,3.98431,0,0,1,7.94336.13183,4.62372,4.62372,0,0,1-1.93554,3.38867v.0879a4.04912,4.04912,0,0,1,2.4414,3.60839c0,2.09082-1.80468,3.74024-4.53222,3.74024C1302.86035,656.083,1300.90234,654.45508,1300.90234,652.23242Zm7.39258.04395c0-1.80371-1.78222-2.46387-3.80664-3.27832a3.804,3.804,0,0,0-1.958,3.05859,2.78234,2.78234,0,0,0,3.01465,2.68457A2.49943,2.49943,0,0,0,1308.29492,652.27637Zm-.33008-6.93067a2.34363,2.34363,0,0,0-2.4414-2.48632,2.17253,2.17253,0,0,0-2.26758,2.2666c0,1.67187,1.541,2.376,3.23437,3.03613A3.77984,3.77984,0,0,0,1307.96484,645.3457Z" fill="#b0b4d1"/><path d="M882.64355,640.03809h3.70411c2.52734,0,4.27441.85449,4.27441,3.03906a2.72558,2.72558,0,0,1-1.82324,2.7168v.07617a2.86679,2.86679,0,0,1,2.5459,2.98242c0,2.45019-1.93848,3.64746-4.73047,3.64746h-3.97071Zm3.41993,5.2998c2.12695,0,3.001-.77832,3.001-2.05176,0-1.44336-.9873-1.99414-2.92578-1.99414h-1.918v4.0459Zm.32226,5.9082c2.14649,0,3.40039-.77832,3.40039-2.45019,0-1.53906-1.21582-2.24219-3.40039-2.24219h-2.165v4.69238Z" fill="#b0b4d1"/><path d="M893.09375,650.10645c0-2.01368,1.72852-3.02051,5.66113-3.458,0-1.17774-.37988-2.31739-1.89941-2.31739a5.01717,5.01717,0,0,0-2.75488.98829l-.6084-1.083a6.85839,6.85839,0,0,1,3.6289-1.19727c2.26075,0,3.21,1.501,3.21,3.79981V652.5H899.04l-.13379-1.10156h-.05664a4.92538,4.92538,0,0,1-3.05859,1.3291A2.51174,2.51174,0,0,1,893.09375,650.10645Zm5.66113.13281V647.6748c-3.07812.37989-4.1416,1.13965-4.1416,2.31739,0,1.04492.72168,1.48242,1.63379,1.48242A3.74373,3.74373,0,0,0,898.75488,650.23926Z" fill="#b0b4d1"/><path d="M902.21387,651.45508l.77929-1.04492a4.14757,4.14757,0,0,0,2.71582,1.10156c1.21582,0,1.82422-.64551,1.82422-1.44336,0-.9502-1.10156-1.36816-2.1084-1.74805-1.31152-.47461-2.75488-1.10156-2.75488-2.65918,0-1.48144,1.17774-2.62207,3.17188-2.62207a4.6132,4.6132,0,0,1,2.86914,1.04492l-.74121.98829a3.43143,3.43143,0,0,0-2.1084-.81739c-1.15918,0-1.69043.627-1.69043,1.33008,0,.874,1.00683,1.19727,2.05176,1.5957,1.3291.49414,2.81152,1.04493,2.81152,2.793,0,1.501-1.19727,2.75391-3.38184,2.75391A5.55934,5.55934,0,0,1,902.21387,651.45508Z" fill="#b0b4d1"/><path d="M910.5166,647.90234c0-3.0205,2.0332-4.86328,4.1416-4.86328,2.35547,0,3.68555,1.69141,3.68555,4.332a6.0175,6.0175,0,0,1-.05762.89258h-6.23047a3.06237,3.06237,0,0,0,3.07715,3.21094,4.1675,4.1675,0,0,0,2.29883-.72266l.55078,1.02637a5.49766,5.49766,0,0,1-3.03906.94922C912.47363,652.72754,910.5166,650.92285,910.5166,647.90234Zm6.459-.75976c0-1.86133-.83594-2.86817-2.2793-2.86817-1.292,0-2.46973,1.04493-2.66016,2.86817Z" fill="#b0b4d1"/><path d="M887.08008,660.03809h1.57715v6.25h.05664l5.18652-6.25h1.78516l-3.89453,4.749L896.294,672.5h-1.76661l-3.72363-6.47852-2.14648,2.52735V672.5h-1.57715Z" fill="#b0b4d1"/><path d="M897.1123,667.90234c0-3.0205,2.03321-4.86328,4.14161-4.86328,2.35547,0,3.68554,1.69141,3.68554,4.332a6.019,6.019,0,0,1-.05761.89258h-6.23047a3.06236,3.06236,0,0,0,3.07715,3.21094,4.16749,4.16749,0,0,0,2.29882-.72266l.55078,1.02637a5.49766,5.49766,0,0,1-3.03906.94922C899.06934,672.72754,897.1123,670.92285,897.1123,667.90234Zm6.459-.75976c0-1.86133-.83594-2.86817-2.2793-2.86817-1.292,0-2.46972,1.04493-2.66015,2.86817Z" fill="#b0b4d1"/><path d="M906.38379,676.28027l.30371-1.23437a2.73865,2.73865,0,0,0,.70312.13281c1.04493,0,1.71-.83594,2.08985-1.97559l.209-.68457-3.7041-9.251h1.61426l1.88086,5.11035c.28515.79785.6084,1.74707.89258,2.60254h.07617c.2666-.83594.53223-1.78613.7793-2.60254l1.65234-5.11035h1.51953l-3.47656,9.99219c-.64551,1.82421-1.59571,3.21093-3.457,3.21093A3.05889,3.05889,0,0,1,906.38379,676.28027Z" fill="#b0b4d1"/><path d="M443.81836,649.24023h-4.00391V647.876h4.00391v-4.29H445.249v4.29h4.00489v1.36425H445.249v4.291h-1.43066Z" fill="#ffa245"/><path d="M450.57227,654.10352l.92382-1.18848a4.76639,4.76639,0,0,0,3.58594,1.67187,2.61669,2.61669,0,0,0,2.90527-2.57421c0-1.67188-1.14453-2.79395-4.48925-2.79395V647.832c2.99218,0,3.98242-1.14355,3.98242-2.61816a2.1606,2.1606,0,0,0-2.41992-2.22266,4.2571,4.2571,0,0,0-2.99219,1.43067l-.96875-1.14454a5.78346,5.78346,0,0,1,4.02734-1.75976c2.44239,0,4.20215,1.29785,4.20215,3.56445a3.48,3.48,0,0,1-2.55176,3.34473v.08789a3.6222,3.6222,0,0,1,3.03614,3.56445c0,2.48633-2.0459,4.00391-4.62012,4.00391A5.96243,5.96243,0,0,1,450.57227,654.10352Z" fill="#ffa245"/><path d="M430.416,516.959h7.166v1.0254h-7.166Z" fill="#ffa245"/><path d="M439.74023,520.77539h2.62891v-8.46191h-2.08789v-.95508a6.82921,6.82921,0,0,0,2.43066-.8457h1.13379v10.26269h2.377V522h-6.48243Z" fill="#ffa245"/><path d="M448.05664,516.2207c0-3.85351,1.38672-5.92382,3.69141-5.92382,2.28613,0,3.67187,2.07031,3.67187,5.92382,0,3.85254-1.38574,5.99512-3.67187,5.99512C449.44336,522.21582,448.05664,520.07324,448.05664,516.2207Zm5.92383,0c0-3.36718-.90039-4.73632-2.23242-4.73632-1.35157,0-2.251,1.36914-2.251,4.73632,0,3.36621.89941,4.80664,2.251,4.80664C453.08008,521.02734,453.98047,519.58691,453.98047,516.2207Z" fill="#ffa245"/><path d="M457.03809,517.64258c0-2.93457,1.96289-4.60938,4.21386-4.60938a3.63425,3.63425,0,0,1,2.55664,1.02637l-.75683.97266a2.56462,2.56462,0,0,0-1.7461-.77442c-1.585,0-2.7373,1.36817-2.7373,3.38477,0,1.999,1.09863,3.34961,2.70117,3.34961a3.11114,3.11114,0,0,0,2.05274-.88281l.64843.99023a4.27181,4.27181,0,0,1-2.82715,1.11621C458.82031,522.21582,457.03809,520.542,457.03809,517.64258Z" fill="#ffa245"/><path d="M465.9668,519.29883v-4.84278h-1.29688v-1.11621l1.36817-.09082.18066-2.44824h1.24219V513.249h2.3584v1.207h-2.3584v4.86133c0,1.08008.34179,1.69239,1.34961,1.69239a3.15887,3.15887,0,0,0,.99023-.23438l.28906,1.11621a5.4,5.4,0,0,1-1.62109.32422C466.59668,522.21582,465.9668,521.02734,465.9668,519.29883Z" fill="#ffa245"/><path d="M493.81836,649.24023h-4.00391V647.876h4.00391v-4.29H495.249v4.29h4.00489v1.36425H495.249v4.291h-1.43066Z" fill="#ffa245"/><path d="M506.68945,651.94629H500.374v-1.1875l6.00684-8.97754h2.02441v8.71289h1.91407v1.45215h-1.91407v3.87305h-1.71582Zm0-1.45215v-4.07031c0-.748.06543-1.958.10938-2.70606h-.08789c-.35156.68164-.748,1.29785-1.14453,1.98047l-3.27832,4.7959Z" fill="#ffa245"/><path d="M483.41406,459.61621H480.1377V458.5h3.27636v-3.51074h1.1709V458.5h3.27637v1.11621H484.585V463.127h-1.1709Z" fill="#ffa245"/><path d="M488.93945,463.5957l.75586-.97265a3.90071,3.90071,0,0,0,2.93555,1.36914,2.14251,2.14251,0,0,0,2.377-2.10742c0-1.36817-.9375-2.28614-3.67383-2.28614v-1.13476c2.44922,0,3.25879-.93653,3.25879-2.14258a1.76781,1.76781,0,0,0-1.98047-1.81836,3.48317,3.48317,0,0,0-2.44824,1.16992l-.793-.93555a4.72917,4.72917,0,0,1,3.29493-1.44042c1.999,0,3.43945,1.06152,3.43945,2.916a2.8465,2.8465,0,0,1-2.08887,2.73731v.07226a2.96428,2.96428,0,0,1,2.48535,2.917c0,2.03418-1.6748,3.27637-3.78125,3.27637A4.88087,4.88087,0,0,1,488.93945,463.5957Z" fill="#ffa245"/><path d="M498.13672,464.11816c3.457-3.43945,5.40234-5.50976,5.40234-7.36425a2.035,2.035,0,0,0-2.17871-2.251,3.38411,3.38411,0,0,0-2.44824,1.38672l-.84668-.84668a4.50917,4.50917,0,0,1,3.47461-1.74609,3.19035,3.19035,0,0,1,3.43945,3.38476c0,2.16016-1.96289,4.30274-4.68164,7.14844.62988-.05469,1.333-.1084,1.92676-.1084h3.33105V465h-7.41894Z" fill="#ffa245"/><path d="M507.19141,460.64258c0-2.93457,1.96289-4.60938,4.21289-4.60938a3.63245,3.63245,0,0,1,2.55664,1.02637l-.75586.97266a2.56462,2.56462,0,0,0-1.7461-.77442c-1.584,0-2.73632,1.36817-2.73632,3.38477,0,1.999,1.09765,3.34961,2.70019,3.34961a3.11114,3.11114,0,0,0,2.05274-.88281l.64746.99023a4.26556,4.26556,0,0,1-2.82617,1.11621C508.97461,465.21582,507.19141,463.542,507.19141,460.64258Z" fill="#ffa245"/><path d="M516.11914,462.29883v-4.84278h-1.2959v-1.11621l1.36817-.09082.17968-2.44824h1.24317V456.249h2.3584v1.207h-2.3584v4.86133c0,1.08008.34179,1.69239,1.35058,1.69239a3.178,3.178,0,0,0,.99024-.23438l.28711,1.11621a5.39361,5.39361,0,0,1-1.61914.32422C516.75,465.21582,516.11914,464.02734,516.11914,462.29883Z" fill="#ffa245"/><path d="M743.81836,649.24023h-4.00391V647.876h4.00391v-4.29H745.249v4.29h4.00489v1.36425H745.249v4.291h-1.43066Z" fill="#ffa245"/><path d="M751.12207,654.60938l1.0127-1.14454a3.07709,3.07709,0,0,0,2.31054,1.12207c1.97949,0,3.65235-1.54,3.71778-6.02832a4.4,4.4,0,0,1-3.29981,1.80371c-2.4209,0-3.9834-1.45214-3.9834-4.334a4.24237,4.24237,0,0,1,4.13672-4.51074c2.77246,0,4.84082,2.24414,4.84082,6.75488,0,5.63281-2.55273,7.81055-5.34668,7.81055A4.49058,4.49058,0,0,1,751.12207,654.60938Zm6.99707-7.48145c-.24219-2.72852-1.32031-4.18066-3.10254-4.18066-1.36426,0-2.44238,1.23242-2.44238,3.08105,0,1.82617.8584,2.96973,2.59668,2.96973A3.74817,3.74817,0,0,0,758.11914,647.12793Z" fill="#ffa245"/><path d="M733.41406,362.11621H730.1377V361h3.27636v-3.51074h1.1709V361h3.27637v1.11621H734.585V365.627h-1.1709Z" fill="#ffa245"/><path d="M739.19141,366.61816c3.457-3.43945,5.40136-5.50976,5.40136-7.36425a2.03452,2.03452,0,0,0-2.17871-2.251,3.38413,3.38413,0,0,0-2.44824,1.38672l-.84668-.84668a4.5107,4.5107,0,0,1,3.47461-1.74609,3.19035,3.19035,0,0,1,3.43945,3.38476c0,2.16016-1.96289,4.30274-4.68164,7.14844.63086-.05469,1.333-.1084,1.92774-.1084h3.33008V367.5h-7.418Z" fill="#ffa245"/><path d="M747.86719,366.14941l.7207-.97168a3.90774,3.90774,0,0,0,2.89844,1.31446,2.47884,2.47884,0,0,0,2.52051-2.62891,2.30808,2.30808,0,0,0-2.44825-2.52148,3.22971,3.22971,0,0,0-1.96289.70215l-.793-.50391.37891-5.52734h5.74414V357.291h-4.44726l-.30664,3.40332a3.52815,3.52815,0,0,1,1.76464-.46875,3.30762,3.30762,0,0,1,3.56543,3.60156,3.75623,3.75623,0,0,1-3.87109,3.88867A5.0369,5.0369,0,0,1,747.86719,366.14941Z" fill="#ffa245"/><path d="M757.19141,363.14258c0-2.93457,1.96289-4.60938,4.21289-4.60938a3.63245,3.63245,0,0,1,2.55664,1.02637l-.75586.97266a2.56462,2.56462,0,0,0-1.7461-.77442c-1.584,0-2.73632,1.36817-2.73632,3.38477,0,1.999,1.09765,3.34961,2.70019,3.34961a3.11114,3.11114,0,0,0,2.05274-.88281l.64746.99023a4.26556,4.26556,0,0,1-2.82617,1.11621C758.97461,367.71582,757.19141,366.042,757.19141,363.14258Z" fill="#ffa245"/><path d="M766.11914,364.79883v-4.84278h-1.2959v-1.11621l1.36817-.09082.17968-2.44824h1.24317V358.749h2.3584v1.207h-2.3584v4.86133c0,1.08008.34179,1.69239,1.35058,1.69239a3.178,3.178,0,0,0,.99024-.23438l.28711,1.11621a5.39361,5.39361,0,0,1-1.61914.32422C766.75,367.71582,766.11914,366.52734,766.11914,364.79883Z" fill="#ffa245"/><path d="M1030.416,276.959h7.166v1.0254h-7.166Z" fill="#ffa245"/><path d="M1039.74023,280.77539h2.62891v-8.46191h-2.08789v-.95508a6.82921,6.82921,0,0,0,2.43066-.8457h1.13379v10.26269h2.377V282h-6.48243Z" fill="#ffa245"/><path d="M1048.05664,276.2207c0-3.85351,1.38672-5.92382,3.69141-5.92382,2.28613,0,3.67187,2.07031,3.67187,5.92382,0,3.85254-1.38574,5.99512-3.67187,5.99512C1049.44336,282.21582,1048.05664,280.07324,1048.05664,276.2207Zm5.92383,0c0-3.36718-.90039-4.73632-2.23242-4.73632-1.35157,0-2.251,1.36914-2.251,4.73632,0,3.36621.89941,4.80664,2.251,4.80664C1053.08008,281.02734,1053.98047,279.58691,1053.98047,276.2207Z" fill="#ffa245"/><path d="M1057.03809,277.64258c0-2.93457,1.96289-4.60938,4.21386-4.60938a3.63425,3.63425,0,0,1,2.55664,1.02637l-.75683.97266a2.56462,2.56462,0,0,0-1.7461-.77442c-1.585,0-2.7373,1.36817-2.7373,3.38477,0,1.999,1.09863,3.34961,2.70117,3.34961a3.11114,3.11114,0,0,0,2.05274-.88281l.64843.99023a4.27181,4.27181,0,0,1-2.82715,1.11621C1058.82031,282.21582,1057.03809,280.542,1057.03809,277.64258Z" fill="#ffa245"/><path d="M1065.9668,279.29883v-4.84278h-1.29688v-1.11621l1.36817-.09082.18066-2.44824h1.24219V273.249h2.3584v1.207h-2.3584v4.86133c0,1.08008.34179,1.69239,1.34961,1.69239a3.15887,3.15887,0,0,0,.99023-.23438l.28906,1.11621a5.4,5.4,0,0,1-1.62109.32422C1066.59668,282.21582,1065.9668,281.02734,1065.9668,279.29883Z" fill="#ffa245"/><path d="M1083.41406,219.61621h-3.27636V218.5h3.27636v-3.51074h1.1709V218.5h3.27637v1.11621H1084.585V223.127h-1.1709Z" fill="#ffa245"/><path d="M1088.93945,223.5957l.75586-.97265a3.90071,3.90071,0,0,0,2.93555,1.36914,2.14251,2.14251,0,0,0,2.377-2.10742c0-1.36817-.9375-2.28614-3.67383-2.28614v-1.13476c2.44922,0,3.25879-.93653,3.25879-2.14258a1.76781,1.76781,0,0,0-1.98047-1.81836,3.48317,3.48317,0,0,0-2.44824,1.16992l-.793-.93555a4.72917,4.72917,0,0,1,3.29493-1.44042c1.999,0,3.43945,1.06152,3.43945,2.916a2.8465,2.8465,0,0,1-2.08887,2.73731v.07226a2.96428,2.96428,0,0,1,2.48535,2.917c0,2.03418-1.6748,3.27637-3.78125,3.27637A4.88087,4.88087,0,0,1,1088.93945,223.5957Z" fill="#ffa245"/><path d="M1098.13672,224.11816c3.457-3.43945,5.40234-5.50976,5.40234-7.36425a2.035,2.035,0,0,0-2.17871-2.251,3.38411,3.38411,0,0,0-2.44824,1.38672l-.84668-.84668a4.50917,4.50917,0,0,1,3.47461-1.74609,3.19035,3.19035,0,0,1,3.43945,3.38476c0,2.16016-1.96289,4.30274-4.68164,7.14844.62988-.05469,1.333-.1084,1.92676-.1084h3.33105V225h-7.41894Z" fill="#ffa245"/><path d="M1107.19141,220.64258c0-2.93457,1.96289-4.60938,4.21289-4.60938a3.63245,3.63245,0,0,1,2.55664,1.02637l-.75586.97266a2.56462,2.56462,0,0,0-1.7461-.77442c-1.584,0-2.73632,1.36817-2.73632,3.38477,0,1.999,1.09765,3.34961,2.70019,3.34961a3.11114,3.11114,0,0,0,2.05274-.88281l.64746.99023a4.26556,4.26556,0,0,1-2.82617,1.11621C1108.97461,225.21582,1107.19141,223.542,1107.19141,220.64258Z" fill="#ffa245"/><path d="M1116.11914,222.29883v-4.84278h-1.2959v-1.11621l1.36817-.09082.17968-2.44824h1.24317V216.249h2.3584v1.207h-2.3584v4.86133c0,1.08008.34179,1.69239,1.35058,1.69239a3.178,3.178,0,0,0,.99024-.23438l.28711,1.11621a5.39361,5.39361,0,0,1-1.61914.32422C1116.75,225.21582,1116.11914,224.02734,1116.11914,222.29883Z" fill="#ffa245"/><path d="M1333.41406,122.11621h-3.27636V121h3.27636v-3.51074h1.1709V121h3.27637v1.11621H1334.585V125.627h-1.1709Z" fill="#ffa245"/><path d="M1339.19141,126.61816c3.457-3.43945,5.40136-5.50976,5.40136-7.36425a2.03452,2.03452,0,0,0-2.17871-2.251,3.38413,3.38413,0,0,0-2.44824,1.38672l-.84668-.84668a4.5107,4.5107,0,0,1,3.47461-1.74609,3.19035,3.19035,0,0,1,3.43945,3.38476c0,2.16016-1.96289,4.30274-4.68164,7.14844.63086-.05469,1.333-.1084,1.92774-.1084h3.33008V127.5h-7.418Z" fill="#ffa245"/><path d="M1347.86719,126.14941l.7207-.97168a3.90774,3.90774,0,0,0,2.89844,1.31446,2.47884,2.47884,0,0,0,2.52051-2.62891,2.30808,2.30808,0,0,0-2.44825-2.52148,3.22971,3.22971,0,0,0-1.96289.70215l-.793-.50391.37891-5.52734h5.74414V117.291h-4.44726l-.30664,3.40332a3.52815,3.52815,0,0,1,1.76464-.46875,3.30762,3.30762,0,0,1,3.56543,3.60156,3.75623,3.75623,0,0,1-3.87109,3.88867A5.0369,5.0369,0,0,1,1347.86719,126.14941Z" fill="#ffa245"/><path d="M1357.19141,123.14258c0-2.93457,1.96289-4.60938,4.21289-4.60938a3.63245,3.63245,0,0,1,2.55664,1.02637l-.75586.97266a2.56462,2.56462,0,0,0-1.7461-.77442c-1.584,0-2.73632,1.36817-2.73632,3.38477,0,1.999,1.09765,3.34961,2.70019,3.34961a3.11114,3.11114,0,0,0,2.05274-.88281l.64746.99023a4.26556,4.26556,0,0,1-2.82617,1.11621C1358.97461,127.71582,1357.19141,126.042,1357.19141,123.14258Z" fill="#ffa245"/><path d="M1366.11914,124.79883v-4.84278h-1.2959v-1.11621l1.36817-.09082.17968-2.44824h1.24317V118.749h2.3584v1.207h-2.3584v4.86133c0,1.08008.34179,1.69239,1.35058,1.69239a3.178,3.178,0,0,0,.99024-.23438l.28711,1.11621a5.39361,5.39361,0,0,1-1.61914.32422C1366.75,127.71582,1366.11914,126.52734,1366.11914,124.79883Z" fill="#ffa245"/><path d="M1043.81836,649.24023h-4.00391V647.876h4.00391v-4.29h1.43066v4.29h4.00489v1.36425H1045.249v4.291h-1.43066Z" fill="#ffa245"/><path d="M1050.57227,654.10352l.92382-1.18848a4.76639,4.76639,0,0,0,3.58594,1.67187,2.61669,2.61669,0,0,0,2.90527-2.57421c0-1.67188-1.14453-2.79395-4.48925-2.79395V647.832c2.99218,0,3.98242-1.14355,3.98242-2.61816a2.1606,2.1606,0,0,0-2.41992-2.22266,4.2571,4.2571,0,0,0-2.99219,1.43067l-.96875-1.14454a5.78346,5.78346,0,0,1,4.02734-1.75976c2.44239,0,4.20215,1.29785,4.20215,3.56445a3.48,3.48,0,0,1-2.55176,3.34473v.08789a3.6222,3.6222,0,0,1,3.03614,3.56445c0,2.48633-2.0459,4.00391-4.62012,4.00391A5.96243,5.96243,0,0,1,1050.57227,654.10352Z" fill="#ffa245"/><path d="M1093.81836,649.24023h-4.00391V647.876h4.00391v-4.29h1.43066v4.29h4.00489v1.36425H1095.249v4.291h-1.43066Z" fill="#ffa245"/><path d="M1106.68945,651.94629H1100.374v-1.1875l6.00684-8.97754h2.02441v8.71289h1.91407v1.45215h-1.91407v3.87305h-1.71582Zm0-1.45215v-4.07031c0-.748.06543-1.958.10938-2.70606h-.08789c-.35156.68164-.748,1.29785-1.14453,1.98047l-3.27832,4.7959Z" fill="#ffa245"/><path d="M1343.81836,649.24023h-4.00391V647.876h4.00391v-4.29h1.43066v4.29h4.00489v1.36425H1345.249v4.291h-1.43066Z" fill="#ffa245"/><path d="M1351.12207,654.60938l1.0127-1.14454a3.07709,3.07709,0,0,0,2.31054,1.12207c1.97949,0,3.65235-1.54,3.71778-6.02832a4.4,4.4,0,0,1-3.29981,1.80371c-2.4209,0-3.9834-1.45214-3.9834-4.334a4.24237,4.24237,0,0,1,4.13672-4.51074c2.77246,0,4.84082,2.24414,4.84082,6.75488,0,5.63281-2.55273,7.81055-5.34668,7.81055A4.49058,4.49058,0,0,1,1351.12207,654.60938Zm6.99707-7.48145c-.24219-2.72852-1.32031-4.18066-3.10254-4.18066-1.36426,0-2.44238,1.23242-2.44238,3.08105,0,1.82617.8584,2.96973,2.59668,2.96973A3.74817,3.74817,0,0,0,1358.11914,647.12793Z" fill="#ffa245"/><path d="M787.60156,649.24023h-4.0039V647.876h4.0039v-4.29h1.43067v4.29h4.00488v1.36425h-4.00488v4.291h-1.43067Z" fill="#ffa245"/><path d="M795.52148,654.32324h3.2129V643.98145h-2.55274v-1.166a8.35636,8.35636,0,0,0,2.9707-1.03418h1.38575v12.542h2.90429v1.4961h-7.9209Z" fill="#ffa245"/><path d="M805.68555,648.75586c0-4.708,1.69336-7.23828,4.50976-7.23828,2.79492,0,4.48828,2.53027,4.48828,7.23828,0,4.709-1.69336,7.32715-4.48828,7.32715C807.37891,656.083,805.68555,653.46484,805.68555,648.75586Zm7.23828,0c0-4.11426-1.09961-5.78613-2.72852-5.78613-1.65039,0-2.75,1.67187-2.75,5.78613,0,4.11523,1.09961,5.875,2.75,5.875C811.82422,654.63086,812.92383,652.87109,812.92383,648.75586Z" fill="#ffa245"/><path d="M782.66406,337.61621H779.3877V336.5h3.27636v-3.51074h1.1709V336.5h3.27637v1.11621H783.835V341.127h-1.1709Z" fill="#ffa245"/><path d="M793.19531,339.83105h-5.168v-.97265l4.916-7.3457h1.65625v7.12988H796.166v1.18847h-1.56641V343h-1.4043Zm0-1.18847v-3.33106c0-.6123.05371-1.60254.08985-2.21484h-.07227c-.28809.55859-.6123,1.0625-.93652,1.62109l-2.68262,3.92481Z" fill="#ffa245"/><path d="M797.13477,341.5957l.75683-.97265a3.89855,3.89855,0,0,0,2.93457,1.36914,2.142,2.142,0,0,0,2.37695-2.10742c0-1.36817-.93652-2.28614-3.67382-2.28614v-1.13476c2.44922,0,3.25976-.93653,3.25976-2.14258a1.76781,1.76781,0,0,0-1.98047-1.81836,3.4853,3.4853,0,0,0-2.44921,1.16992l-.792-.93555a4.72548,4.72548,0,0,1,3.29492-1.44042c1.999,0,3.43848,1.06152,3.43848,2.916a2.84676,2.84676,0,0,1-2.08789,2.73731v.07226a2.96344,2.96344,0,0,1,2.48438,2.917c0,2.03418-1.67383,3.27637-3.78125,3.27637A4.884,4.884,0,0,1,797.13477,341.5957Z" fill="#ffa245"/><path d="M806.44141,338.64258c0-2.93457,1.96289-4.60938,4.21289-4.60938a3.63245,3.63245,0,0,1,2.55664,1.02637l-.75586.97266a2.56462,2.56462,0,0,0-1.7461-.77442c-1.584,0-2.73632,1.36817-2.73632,3.38477,0,1.999,1.09765,3.34961,2.70019,3.34961a3.11114,3.11114,0,0,0,2.05274-.88281l.64746.99023a4.26556,4.26556,0,0,1-2.82617,1.11621C808.22461,343.21582,806.44141,341.542,806.44141,338.64258Z" fill="#ffa245"/><path d="M815.36914,340.29883v-4.84278h-1.2959v-1.11621l1.36817-.09082.17968-2.44824h1.24317V334.249h2.3584v1.207h-2.3584v4.86133c0,1.08008.34179,1.69239,1.35058,1.69239a3.178,3.178,0,0,0,.99024-.23438l.28711,1.11621a5.39361,5.39361,0,0,1-1.61914.32422C816,343.21582,815.36914,342.02734,815.36914,340.29883Z" fill="#ffa245"/><path d="M183.41406,577.61621H180.1377V576.5h3.27636v-3.51074h1.1709V576.5h3.27637v1.11621H184.585V581.127h-1.1709Z" fill="#ffa245"/><path d="M193.94531,579.83105h-5.168v-.97265l4.916-7.3457h1.65625v7.12988H196.916v1.18847h-1.56641V583h-1.4043Zm0-1.18847v-3.33106c0-.6123.05371-1.60254.08985-2.21484h-.07227c-.28809.55859-.6123,1.0625-.93652,1.62109l-2.68262,3.92481Z" fill="#ffa245"/><path d="M197.88477,581.5957l.75683-.97265a3.89855,3.89855,0,0,0,2.93457,1.36914,2.142,2.142,0,0,0,2.377-2.10742c0-1.36817-.93652-2.28614-3.67382-2.28614v-1.13476c2.44922,0,3.25976-.93653,3.25976-2.14258a1.76781,1.76781,0,0,0-1.98047-1.81836,3.4853,3.4853,0,0,0-2.44921,1.16992l-.792-.93555a4.72548,4.72548,0,0,1,3.29492-1.44042c1.999,0,3.43848,1.06152,3.43848,2.916a2.84676,2.84676,0,0,1-2.08789,2.73731v.07226a2.96344,2.96344,0,0,1,2.48438,2.917c0,2.03418-1.67383,3.27637-3.78125,3.27637A4.884,4.884,0,0,1,197.88477,581.5957Z" fill="#ffa245"/><path d="M207.19141,578.64258c0-2.93457,1.96289-4.60938,4.21289-4.60938a3.63245,3.63245,0,0,1,2.55664,1.02637l-.75586.97266a2.56462,2.56462,0,0,0-1.7461-.77442c-1.584,0-2.73632,1.36817-2.73632,3.38477,0,1.999,1.09765,3.34961,2.70019,3.34961a3.11114,3.11114,0,0,0,2.05274-.88281l.64746.99023a4.26556,4.26556,0,0,1-2.82617,1.11621C208.97461,583.21582,207.19141,581.542,207.19141,578.64258Z" fill="#ffa245"/><path d="M216.11914,580.29883v-4.84278h-1.2959v-1.11621l1.36817-.09082.17968-2.44824h1.24317V574.249h2.3584v1.207h-2.3584v4.86133c0,1.08008.34179,1.69239,1.35058,1.69239a3.178,3.178,0,0,0,.99024-.23438l.28711,1.11621a5.39361,5.39361,0,0,1-1.61914.32422C216.75,583.21582,216.11914,582.02734,216.11914,580.29883Z" fill="#ffa245"/><line x1="174.99996" y1="600" x2="224.99996" y2="600" fill="none" stroke="#aeb3d6" stroke-miterlimit="10" stroke-width="2"/><line x1="224.99996" y1="580" x2="274.99996" y2="580" fill="none" stroke="#aeb3d6" stroke-miterlimit="10" stroke-width="2"/><line x1="324.99996" y1="540" x2="374.99996" y2="540" fill="none" stroke="#aeb3d6" stroke-miterlimit="10" stroke-width="2"/><line x1="374.99996" y1="520" x2="424.99996" y2="520" fill="none" stroke="#aeb3d6" stroke-miterlimit="10" stroke-width="2"/><line x1="375" y1="520" x2="425" y2="520" fill="none" stroke="#aeb3d6" stroke-miterlimit="10" stroke-width="2"/><line x1="425" y1="500" x2="475" y2="500" fill="none" stroke="#aeb3d6" stroke-miterlimit="10" stroke-width="2"/><line x1="475" y1="480" x2="525" y2="480" fill="none" stroke="#aeb3d6" stroke-miterlimit="10" stroke-width="2"/><line x1="525" y1="460" x2="575" y2="460" fill="none" stroke="#aeb3d6" stroke-miterlimit="10" stroke-width="2"/><line x1="575" y1="440" x2="625" y2="440" fill="none" stroke="#aeb3d6" stroke-miterlimit="10" stroke-width="2"/><line x1="625" y1="420" x2="675" y2="420" fill="none" stroke="#aeb3d6" stroke-miterlimit="10" stroke-width="2"/><line x1="675" y1="400" x2="725" y2="400" fill="none" stroke="#aeb3d6" stroke-miterlimit="10" stroke-width="2"/><line x1="725" y1="380" x2="775" y2="380" fill="none" stroke="#aeb3d6" stroke-miterlimit="10" stroke-width="2"/><line x1="775" y1="360" x2="825" y2="360" fill="none" stroke="#aeb3d6" stroke-miterlimit="10" stroke-width="2"/><line x1="825" y1="340" x2="875" y2="340" fill="none" stroke="#aeb3d6" stroke-miterlimit="10" stroke-width="2"/><line x1="925" y1="300" x2="975" y2="300" fill="none" stroke="#aeb3d6" stroke-miterlimit="10" stroke-width="2"/><line x1="975" y1="280" x2="1025" y2="280" fill="none" stroke="#aeb3d6" stroke-miterlimit="10" stroke-width="2"/><line x1="1025" y1="260" x2="1075" y2="260" fill="none" stroke="#aeb3d6" stroke-miterlimit="10" stroke-width="2"/><line x1="1075" y1="240" x2="1125" y2="240" fill="none" stroke="#aeb3d6" stroke-miterlimit="10" stroke-width="2"/><line x1="1125" y1="220" x2="1175" y2="220" fill="none" stroke="#aeb3d6" stroke-miterlimit="10" stroke-width="2"/><line x1="1175" y1="200" x2="1225" y2="200" fill="none" stroke="#aeb3d6" stroke-miterlimit="10" stroke-width="2"/><line x1="1225" y1="180" x2="1275" y2="180" fill="none" stroke="#aeb3d6" stroke-miterlimit="10" stroke-width="2"/><line x1="1275" y1="160" x2="1325" y2="160" fill="none" stroke="#aeb3d6" stroke-miterlimit="10" stroke-width="2"/><line x1="1325" y1="140" x2="1375" y2="140" fill="none" stroke="#aeb3d6" stroke-miterlimit="10" stroke-width="2"/><line x1="274.99996" y1="560" x2="324.99996" y2="560" fill="none" stroke="#979797" stroke-miterlimit="10" stroke-width="2"/><line x1="875" y1="320" x2="925" y2="320" fill="none" stroke="#979797" stroke-miterlimit="10" stroke-width="2"/><line x1="425" y1="503.5" x2="475" y2="503.5" fill="none" stroke="#ffa245" stroke-miterlimit="10" stroke-width="2"/><line x1="175" y1="590" x2="225" y2="590" fill="none" stroke="#ffa245" stroke-miterlimit="10" stroke-width="2"/><line x1="475" y1="472" x2="525" y2="472" fill="none" stroke="#ffa245" stroke-miterlimit="10" stroke-width="2"/><line x1="725" y1="374.5" x2="775" y2="374.5" fill="none" stroke="#ffa245" stroke-miterlimit="10" stroke-width="2"/><line x1="775" y1="350" x2="825" y2="350" fill="none" stroke="#ffa245" stroke-miterlimit="10" stroke-width="2"/><line x1="1025" y1="263.5" x2="1075" y2="263.5" fill="none" stroke="#ffa245" stroke-miterlimit="10" stroke-width="2"/><line x1="1075" y1="232" x2="1125" y2="232" fill="none" stroke="#ffa245" stroke-miterlimit="10" stroke-width="2"/><line x1="1325" y1="134.5" x2="1375" y2="134.5" fill="none" stroke="#ffa245" stroke-miterlimit="10" stroke-width="2"/><path d="M547.458,57.35059l1.5-1.74024a7.70842,7.70842,0,0,0,5.42969,2.46c2.58007,0,4.11035-1.29,4.11035-3.21,0-2.00976-1.41016-2.63965-3.26953-3.47949l-2.82032-1.23047c-1.86035-.7793-3.99023-2.18945-3.99023-5.06934,0-3,2.60937-5.21972,6.17969-5.21972A8.16908,8.16908,0,0,1,560.418,42.291l-1.34961,1.62011a6.281,6.281,0,0,0-4.4707-1.86035c-2.18946,0-3.66016,1.11035-3.66016,2.87988,0,1.89063,1.71094,2.61036,3.27051,3.27051l2.79,1.19922c2.27929.99023,4.0498,2.33984,4.0498,5.25,0,3.12012-2.5498,5.61035-6.69043,5.61035A9.54459,9.54459,0,0,1,547.458,57.35059Z" fill="#cacaca"/><path d="M563.59766,52.64062c0-4.88964,3.2705-7.67968,7.01953-7.67968a6.05579,6.05579,0,0,1,4.26074,1.71L573.61719,48.291a4.27346,4.27346,0,0,0-2.90918-1.29c-2.63965,0-4.55957,2.28027-4.55957,5.63964,0,3.33008,1.83008,5.58008,4.5,5.58008a5.185,5.185,0,0,0,3.41992-1.46972l1.08008,1.64941a7.11573,7.11573,0,0,1-4.71094,1.86035C566.56836,60.26074,563.59766,57.4707,563.59766,52.64062Z" fill="#cacaca"/><path d="M577.1582,56.12012c0-3.17969,2.73047-4.76953,8.93946-5.459,0-1.86035-.59961-3.66015-3-3.66015a7.93386,7.93386,0,0,0-4.34961,1.55957l-.96-1.71a10.82083,10.82083,0,0,1,5.72949-1.88965c3.57031,0,5.07031,2.37011,5.07031,6v8.93945h-2.04l-.21-1.74023h-.08984a7.77746,7.77746,0,0,1-4.83008,2.10058A3.96772,3.96772,0,0,1,577.1582,56.12012Zm8.93946.21V52.28027c-4.85938.60059-6.53907,1.80078-6.53907,3.66016,0,1.65039,1.13868,2.33984,2.57911,2.33984C583.54785,58.28027,584.6875,57.59082,586.09766,56.33008Z" fill="#cacaca"/><path d="M593.17773,56.96094V38.541h2.46094v18.5996c0,.78028.33008,1.08008.68945,1.08008a2.04967,2.04967,0,0,0,.54-.06054l.32911,1.86035a3.313,3.313,0,0,1-1.40918.24023C593.92773,60.26074,593.17773,59.09082,593.17773,56.96094Z" fill="#cacaca"/><path d="M599.74805,52.64062c0-4.76953,3.209-7.67968,6.53906-7.67968,3.7207,0,5.82031,2.66992,5.82031,6.83984a9.60821,9.60821,0,0,1-.08984,1.41016h-9.83985c.17969,3.08984,2.07032,5.06933,4.85938,5.06933a6.5875,6.5875,0,0,0,3.62988-1.13965l.87012,1.62012a8.686,8.686,0,0,1-4.79981,1.5C602.83789,60.26074,599.74805,57.41016,599.74805,52.64062Zm10.19922-1.20019c0-2.93945-1.32032-4.5293-3.59961-4.5293-2.04,0-3.90039,1.64942-4.2002,4.5293Z" fill="#cacaca"/><path d="M619.9668,45.32129h2.51953l2.16015,8.42969c.33008,1.37988.59961,2.69922.87012,4.0498h.12012c.33008-1.35058.62988-2.70019.99023-4.0498l2.25-8.42969h2.39942l2.28027,8.42969c.35938,1.37988.68945,2.69922,1.01953,4.0498h.12012c.33008-1.35058.60059-2.66992.89941-4.0498l2.13086-8.42969h2.33985L636.166,59.90039h-3l-2.09961-7.83008c-.35938-1.37988-.62989-2.72949-.99024-4.19922H629.957c-.33008,1.46973-.63086,2.84961-1.02051,4.2295l-2.04,7.7998h-2.8789Z" fill="#cacaca"/><path d="M642.79688,40.73145a1.7145,1.7145,0,0,1,3.41992,0,1.7145,1.7145,0,0,1-3.41992,0Zm.44921,4.58984H645.707v14.5791h-2.46094Z" fill="#cacaca"/><path d="M651.04688,55.40039V47.33105h-2.16016V45.4707l2.2793-.14941.30078-4.08008h2.06933v4.08008h3.93067v2.00976h-3.93067v8.09961c0,1.79981.57032,2.81934,2.25,2.81934a5.29308,5.29308,0,0,0,1.64942-.38965l.48047,1.86035a9.01756,9.01756,0,0,1-2.69922.54C652.0957,60.26074,651.04688,58.28027,651.04688,55.40039Z" fill="#cacaca"/><path d="M660.76562,38.541h2.46094v5.82031l-.09082,3c1.37988-1.32031,2.85059-2.40039,4.86035-2.40039,3.05957,0,4.43946,1.98047,4.43946,5.70019v9.23926h-2.46V50.99121c0-2.73047-.83985-3.90039-2.75977-3.90039-1.5,0-2.52051.78027-3.98926,2.25V59.90039h-2.46094Z" fill="#cacaca"/><path d="M683.32617,40.2207h3l3.7793,10.5c.48047,1.34961.92969,2.75977,1.41015,4.11035h.12012c.47949-1.35058.87012-2.76074,1.34961-4.11035l3.71973-10.5h3.03027V59.90039h-2.33984V49.07129c0-1.74024.21-4.08008.3291-5.82031h-.11914l-1.56055,4.46972-3.71875,10.2002h-1.65039l-3.7207-10.2002-1.5586-4.46972h-.12109c.12109,1.74023.30078,4.08007.30078,5.82031v10.8291h-2.25Z" fill="#cacaca"/><path d="M704.44531,40.73145a1.7145,1.7145,0,0,1,3.41992,0,1.7145,1.7145,0,0,1-3.41992,0Zm.4502,4.58984h2.46v14.5791h-2.46Z" fill="#cacaca"/><path d="M711.19531,52.64062c0-4.88964,3.26953-7.67968,7.01953-7.67968a6.05147,6.05147,0,0,1,4.25977,1.71L721.21484,48.291a4.27574,4.27574,0,0,0-2.91015-1.29c-2.63965,0-4.55957,2.28027-4.55957,5.63964,0,3.33008,1.83008,5.58008,4.5,5.58008A5.18092,5.18092,0,0,0,721.665,56.751l1.08008,1.64941a7.11326,7.11326,0,0,1-4.71,1.86035C714.165,60.26074,711.19531,57.4707,711.19531,52.64062Z" fill="#cacaca"/><path d="M725.95508,45.32129h2.04l.21,2.63965h.08984c.99024-1.83008,2.49024-3,4.13965-3a3.61886,3.61886,0,0,1,1.55957.2998l-.47949,2.16016a4.0661,4.0661,0,0,0-1.40918-.24024c-1.23047,0-2.70117.90039-3.69043,3.36036v9.35937h-2.46Z" fill="#cacaca"/><path d="M734.98438,52.64062c0-4.88964,3.17968-7.67968,6.75-7.67968s6.75,2.79,6.75,7.67968c0,4.83008-3.17969,7.62012-6.75,7.62012S734.98438,57.4707,734.98438,52.64062Zm10.95019,0c0-3.35937-1.68066-5.63964-4.20019-5.63964-2.49024,0-4.19922,2.28027-4.19922,5.63964,0,3.33008,1.709,5.58008,4.19922,5.58008C744.25391,58.2207,745.93457,55.9707,745.93457,52.64062Z" fill="#cacaca"/><path d="M752.23438,55.40039V47.33105h-2.16016V45.4707l2.28027-.14941.29981-4.08008h2.07031v4.08008h3.92969v2.00976h-3.92969v8.09961c0,1.79981.57031,2.81934,2.25,2.81934a5.2994,5.2994,0,0,0,1.64941-.38965l.4795,1.86035a9.00533,9.00533,0,0,1-2.69922.54C753.28418,60.26074,752.23438,58.28027,752.23438,55.40039Z" fill="#cacaca"/><path d="M761.74414,54.56055V45.32129h2.49024v8.90918c0,2.73047.81054,3.90039,2.73046,3.90039,1.5,0,2.54883-.75,3.92969-2.46V45.32129h2.459v14.5791h-2.03907l-.21093-2.28027h-.08985c-1.34961,1.58984-2.78906,2.64062-4.79883,2.64062C763.125,60.26074,761.74414,58.28027,761.74414,54.56055Z" fill="#cacaca"/><path d="M778.27441,45.32129h2.04l.21,2.09961h.08985a6.8724,6.8724,0,0,1,4.88965-2.46c3.06054,0,4.43945,1.98047,4.43945,5.70019v9.23926h-2.459V50.99121c0-2.73047-.83985-3.90039-2.75977-3.90039-1.5,0-2.52051.78027-3.99023,2.25V59.90039h-2.46Z" fill="#cacaca"/><path d="M794.23438,40.73145a1.7145,1.7145,0,0,1,3.41992,0,1.7145,1.7145,0,0,1-3.41992,0Zm.44921,4.58984h2.46094v14.5791h-2.46094Z" fill="#cacaca"/><path d="M802.06445,45.32129h2.03907l.21093,2.09961h.08985a6.86849,6.86849,0,0,1,4.88867-2.46c3.06055,0,4.44043,1.98047,4.44043,5.70019v9.23926h-2.46V50.99121c0-2.73047-.83985-3.90039-2.75977-3.90039-1.5,0-2.51953.78027-3.99023,2.25V59.90039h-2.459Z" fill="#cacaca"/><path d="M817.36328,62.69043a4.20772,4.20772,0,0,1,2.13086-3.29981v-.12011a2.6912,2.6912,0,0,1-1.291-2.37012A3.41752,3.41752,0,0,1,819.793,54.2002v-.11915a5.147,5.147,0,0,1,3.60058-9.12011,5.81589,5.81589,0,0,1,2.06934.36035h5.07031v1.88965h-3a4.22876,4.22876,0,0,1,1.19922,3,5.002,5.002,0,0,1-5.33887,5.06933,5.0955,5.0955,0,0,1-2.19043-.50976,2.20932,2.20932,0,0,0-.92968,1.74023c0,.92969.59961,1.58985,2.58008,1.58985h2.82031c3.38867,0,5.09961,1.0498,5.09961,3.47949,0,2.70019-2.84961,5.04-7.37989,5.04C819.82422,66.62012,817.36328,65.21,817.36328,62.69043Zm11.00977-.75c0-1.34961-1.04981-1.79981-2.93946-1.79981h-2.51953a7.11542,7.11542,0,0,1-1.89062-.24023,3.07211,3.07211,0,0,0-1.5,2.46c0,1.55957,1.58984,2.54981,4.23047,2.54981C826.543,64.91016,828.37305,63.4707,828.37305,61.94043Zm-1.88965-11.79a3.1031,3.1031,0,1,0-6.17969,0,3.11177,3.11177,0,1,0,6.17969,0Z" fill="#cacaca"/><path d="M838.69336,49.9707c0-6.2998,3.45019-10.10937,8.40039-10.10937,4.94922,0,8.42969,3.83984,8.42969,10.10937,0,6.33008-3.48047,10.29-8.42969,10.29C842.14355,60.26074,838.69336,56.30078,838.69336,49.9707Zm14.21973,0c0-4.88965-2.30957-7.91992-5.81934-7.91992s-5.82031,3.03027-5.82031,7.91992c0,4.91992,2.31054,8.09961,5.82031,8.09961S852.91309,54.89062,852.91309,49.9707Z" fill="#cacaca"/><path d="M868.48242,47.33105h-6.08984V59.90039h-2.459V47.33105h-1.98047V45.4707l1.98047-.14941V43.40137c0-3.03028,1.5-4.91992,4.5293-4.91992a6.723,6.723,0,0,1,2.66992.54l-.50976,1.85938a4.7318,4.7318,0,0,0-1.9502-.38965c-1.44043,0-2.28027,1.04981-2.28027,2.96973v1.86035h6.08984V43.01074c0-2.96972,1.34961-4.8291,4.25977-4.8291a6.60917,6.60917,0,0,1,2.42969.47949l-.53907,1.88965a4.11308,4.11308,0,0,0-1.65039-.35937c-1.37988,0-2.03906.96-2.03906,2.81933v2.31055h3.08984v2.00976h-3.08984V59.90039h-2.46094Z" fill="#cacaca"/><path d="M875.083,58.25l1.22949-1.64941a6.56334,6.56334,0,0,0,4.291,1.74023c1.91992,0,2.8789-1.02051,2.8789-2.28027,0-1.5-1.74023-2.16016-3.33008-2.75977-2.06933-.75-4.34961-1.74023-4.34961-4.20019,0-2.33985,1.86036-4.13965,5.00977-4.13965a7.27673,7.27673,0,0,1,4.53027,1.65039l-1.16992,1.55957a5.415,5.415,0,0,0-3.33008-1.29c-1.8291,0-2.66992.99023-2.66992,2.09961,0,1.37988,1.59082,1.89062,3.24024,2.52051,2.09961.77929,4.43945,1.64941,4.43945,4.40918,0,2.37011-1.88965,4.35058-5.33984,4.35058A8.7735,8.7735,0,0,1,875.083,58.25Z" fill="#cacaca"/><path d="M888.19336,52.64062c0-4.76953,3.209-7.67968,6.53906-7.67968,3.7207,0,5.82031,2.66992,5.82031,6.83984a9.60821,9.60821,0,0,1-.08984,1.41016h-9.83984c.17968,3.08984,2.07031,5.06933,4.85937,5.06933a6.5875,6.5875,0,0,0,3.62988-1.13965l.87012,1.62012a8.686,8.686,0,0,1-4.7998,1.5C891.2832,60.26074,888.19336,57.41016,888.19336,52.64062Zm10.19922-1.20019c0-2.93945-1.32031-4.5293-3.59961-4.5293-2.04,0-3.90039,1.64942-4.2002,4.5293Z" fill="#cacaca"/><path d="M904.27246,55.40039V47.33105h-2.15918V45.4707l2.2793-.14941.2998-4.08008h2.06934v4.08008h3.93066v2.00976h-3.93066v8.09961c0,1.79981.57031,2.81934,2.25,2.81934a5.30535,5.30535,0,0,0,1.65039-.38965l.48047,1.86035a9.02384,9.02384,0,0,1-2.7002.54C905.32227,60.26074,904.27246,58.28027,904.27246,55.40039Z" fill="#cacaca"/><path d="M912.07227,58.25l1.23046-1.64941a6.55883,6.55883,0,0,0,4.29,1.74023c1.91993,0,2.87989-1.02051,2.87989-2.28027,0-1.5-1.74024-2.16016-3.33008-2.75977-2.07031-.75-4.34961-1.74023-4.34961-4.20019,0-2.33985,1.85937-4.13965,5.00976-4.13965a7.27168,7.27168,0,0,1,4.5293,1.65039l-1.16992,1.55957a5.41281,5.41281,0,0,0-3.33008-1.29c-1.8291,0-2.66992.99023-2.66992,2.09961,0,1.37988,1.58984,1.89062,3.24023,2.52051,2.09961.77929,4.43946,1.64941,4.43946,4.40918,0,2.37011-1.88868,4.35058-5.33985,4.35058A8.77569,8.77569,0,0,1,912.07227,58.25Z" fill="#cacaca"/><path d="M42.25,385.35352h4.67383c3.67383,0,6.14844,1.22558,6.14844,4.82421,0,3.44922-2.44922,5.07422-6.04883,5.07422H44.32422v6.498H42.25Zm4.52344,8.19824c2.84961,0,4.22363-1.04981,4.22363-3.374,0-2.374-1.44922-3.14941-4.32324-3.14941H44.32422v6.52344Z" fill="#979797"/><path d="M55.82422,385.7793a1.42855,1.42855,0,0,1,2.84961,0,1.42863,1.42863,0,0,1-2.84961,0Zm.375,3.82324H58.249V401.75h-2.0498Z" fill="#979797"/><path d="M62.69922,398.001v-6.72364H60.89941v-1.5498l1.89942-.125.25-3.39844h1.72461v3.39844h3.27344v1.6748H64.77344v6.749c0,1.499.47461,2.34863,1.875,2.34863a4.42685,4.42685,0,0,0,1.374-.32422l.39942,1.54883a7.46928,7.46928,0,0,1-2.249.45019C63.57422,402.0498,62.69922,400.40039,62.69922,398.001Z" fill="#979797"/><path d="M69.54883,395.70117c0-4.07324,2.72461-6.39844,5.84863-6.39844a5.04481,5.04481,0,0,1,3.54981,1.42481l-1.05079,1.34961a3.55852,3.55852,0,0,0-2.42382-1.07422c-2.19922,0-3.79883,1.89941-3.79883,4.69824,0,2.77442,1.52441,4.64942,3.749,4.64942a4.31731,4.31731,0,0,0,2.84863-1.22461l.9004,1.374a5.92658,5.92658,0,0,1-3.92383,1.5498C72.02344,402.0498,69.54883,399.72559,69.54883,395.70117Z" fill="#979797"/><path d="M81.84863,383.9541h2.04981v4.84863l-.0752,2.5a5.80711,5.80711,0,0,1,4.04981-2c2.54883,0,3.69824,1.65039,3.69824,4.749V401.75H89.52148v-7.42285c0-2.27442-.69921-3.25-2.29882-3.25-1.25,0-2.09961.65039-3.32422,1.875V401.75H81.84863Z" fill="#979797"/><polygon points="113 590 113 185 120 185 110 170 100 185 108 185 108 590 113 590" fill="#979797"/></svg>