<svg viewBox="0 0 254 64" xmlns="http://www.w3.org/2000/svg" xmlns:xlink="http://www.w3.org/1999/xlink"><linearGradient id="a" gradientUnits="userSpaceOnUse" x1="42.4043" x2="42.4043" y1="22.56787" y2="38.37744"><stop offset="0" stop-color="#e6e6e6"/><stop offset=".1144" stop-color="#e0e0e0"/><stop offset=".27295" stop-color="#cecece"/><stop offset=".45731" stop-color="#b0b0b0"/><stop offset=".66114" stop-color="#878787"/><stop offset=".87829" stop-color="#535353"/><stop offset="1" stop-color="#333"/></linearGradient><linearGradient id="b" x1="104.63672" x2="104.63672" xlink:href="#a" y1="22.56787" y2="38.37744"/><linearGradient id="c" x1="166.87012" x2="166.87012" xlink:href="#a" y1="22.56787" y2="38.37744"/><linearGradient id="d" x1="229.10254" x2="229.10254" xlink:href="#a" y1="22.56787" y2="38.37744"/><path d="m0 0h254v64h-254z"/><rect fill="#515151" height="57.78613" rx="2.88672" width="248.20898" x="2.89551" y="3.4696"/><path d="m248.21735 3.71948a2.63687 2.63687 0 0 1 2.6369 2.63684v52.01245a2.63689 2.63689 0 0 1 -2.6369 2.6369h-242.4347a2.63689 2.63689 0 0 1 -2.6369-2.6369v-52.01245a2.63687 2.63687 0 0 1 2.6369-2.63684zm0-.5h-242.4347a3.14042 3.14042 0 0 0 -3.1369 3.13684v52.01245a3.14048 3.14048 0 0 0 3.1369 3.1369h242.4347a3.14048 3.14048 0 0 0 3.1369-3.1369v-52.01245a3.14042 3.14042 0 0 0 -3.1369-3.13684z" fill="#b3b3b3"/><path d="m36.70605 49.647a5.70314 5.70314 0 1 1 5.7168 5.71631 5.70747 5.70747 0 0 1 -5.7168-5.71631zm2.88965 3.1416h1.22461l.5127-1.76464h2.14258l.50488 1.76464h1.26953l-2.13379-6.55371h-1.38672zm2.24219-3.47509c.19727-.6753.38672-1.41309.56641-2.12452.18945.70215.3789 1.44922.57617 2.12452l.2168.75634h-1.585z" fill="#e6e6e6"/><path d="m98.93848 49.647a5.70314 5.70314 0 1 1 5.71679 5.71631 5.70746 5.70746 0 0 1 -5.71679-5.71631zm3.79882 3.35791h2.16114c1.51172 0 2.40332-.68457 2.40332-1.83691a1.42875 1.42875 0 0 0 -1.17871-1.48535 1.41664 1.41664 0 0 0 .85449-1.35938c0-1.02636-.75586-1.54834-2.23242-1.54834h-2.00782zm1.15235-3.68213v-1.64749h.77441c.83692 0 1.18848.24317 1.18848.81006 0 .54932-.41406.8374-1.20606.8374zm0 2.78174v-1.90872h.90035c.94531 0 1.38672.29736 1.38672.90918 0 .65723-.46875.99951-1.38672.99951z" fill="#e6e6e6"/><path d="m161.17188 49.647a5.70314 5.70314 0 1 1 5.71679 5.71631 5.70746 5.70746 0 0 1 -5.71679-5.71631zm7.832 2.46631-.62989-.729a1.71059 1.71059 0 0 1 -1.32324.648c-1.02637 0-1.6748-.855-1.6748-2.23243 0-1.3413.68457-2.21484 1.71093-2.21484a1.58927 1.58927 0 0 1 1.16993.54932l.62109-.74707a2.491 2.491 0 0 0 -1.82715-.81055 2.9354 2.9354 0 0 0 -2.85449 3.25c0 2.06152 1.25195 3.21387 2.81836 3.21387a2.55134 2.55134 0 0 0 1.98929-.92733z" fill="#e6e6e6"/><path d="m223.4043 49.647a5.70314 5.70314 0 1 1 5.71679 5.71631 5.70746 5.70746 0 0 1 -5.71679-5.71631zm3.87109 3.28565h1.73731c1.89941 0 2.9707-1.13428 2.9707-3.14209a2.75522 2.75522 0 0 0 -3.0332-3.08789h-1.67481zm1.14356-.936v-4.35749h.459c1.28711 0 1.92676.71094 1.92676 2.15137 0 1.46777-.65723 2.20605-1.92676 2.20605z" fill="#e6e6e6"/><path d="m5.98047 3.71946h242.03912a2.83465 2.83465 0 0 1 2.83465 2.83465v11.66819a0 0 0 0 1 0 0h-247.70841a0 0 0 0 1 0 0v-11.66819a2.83465 2.83465 0 0 1 2.83464-2.83465z" fill="#333"/><g fill="#dcddde"><path d="m96.0127 7.64111h1.2793l1.13281 3.125c.13672.40039.27344.83008.41016 1.25h.03903c.13672-.41992.26368-.84961.40039-1.25l1.10352-3.125h1.28909v6.38672h-1.04492v-2.91992c0-.5957.08789-1.44531.14648-2.03125h-.03906l-.51758 1.48438-1.04492 2.87109h-.67383l-1.05469-2.87113-.50782-1.48438h-.03906c.04883.58594.14649 1.43555.14649 2.03125v2.91992h-1.02539z"/><path d="m103.03516 12.73877c0-1.02539.84961-1.5625 2.82226-1.77734-.01953-.50782-.22461-.9375-.8789-.9375a2.73191 2.73191 0 0 0 -1.34766.46875l-.41016-.752a3.75081 3.75081 0 0 1 1.97266-.625c1.19141 0 1.78711.73242 1.78711 2.07032v2.84179h-.92774l-.07812-.52734h-.03906a2.33434 2.33434 0 0 1 -1.48438.64453 1.34043 1.34043 0 0 1 -1.41601-1.40621zm2.82226 0v-1.07422c-1.30859.166-1.73828.50781-1.73828.98633 0 .42969.293.61523.69336.61523a1.52441 1.52441 0 0 0 1.04492-.52734z"/><path d="m108.11426 11.63525a2.365 2.365 0 0 1 2.40234-2.51953 2.066 2.066 0 0 1 1.40625.53711l-.54687.73242a1.17229 1.17229 0 0 0 -.80078-.35156c-.77149 0-1.3086.63477-1.3086 1.60156 0 .957.52735 1.5918 1.2793 1.5918a1.59911 1.59911 0 0 0 .98633-.41016l.459.74219a2.39442 2.39442 0 0 1 -1.5625.58594 2.2813 2.2813 0 0 1 -2.31447-2.50977z"/><path d="m113.03711 9.23291h.92773l.07813.84961h.03906a1.62895 1.62895 0 0 1 1.35742-.9668 1.21851 1.21851 0 0 1 .54688.09766l-.19531.97656a1.56731 1.56731 0 0 0 -.49805-.07812c-.38086 0-.83985.26367-1.13281.98632v2.92969h-1.12305z"/><path d="m116.36816 11.63525a2.29164 2.29164 0 1 1 4.56055 0 2.29077 2.29077 0 1 1 -4.56055 0zm3.40821 0c0-.96679-.42969-1.60156-1.13282-1.60156s-1.123.63477-1.123 1.60156c0 .957.41992 1.5918 1.123 1.5918s1.13282-.63476 1.13282-1.5918z"/><path d="m123.957 10.854c0-2.08984 1.30859-3.33007 2.91992-3.33007a2.53551 2.53551 0 0 1 1.84571.81054l-.60547.73242a1.66529 1.66529 0 0 0 -1.21094-.55664c-1.04492 0-1.78711.87891-1.78711 2.31446 0 1.45508.68359 2.334 1.75781 2.334a1.81945 1.81945 0 0 0 1.36719-.6543l.60547.7129a2.575 2.575 0 0 1 -2.01172.92773c-1.6113-.00004-2.88086-1.1719-2.88086-3.29104z"/><path d="m129.60254 11.63525a2.29164 2.29164 0 1 1 4.56055 0 2.29077 2.29077 0 1 1 -4.56055 0zm3.4082 0c0-.96679-.42969-1.60156-1.13281-1.60156s-1.123.63477-1.123 1.60156c0 .957.41992 1.5918 1.123 1.5918s1.13281-.63476 1.13281-1.5918z"/><path d="m135.375 9.23291h.92773l.07813.64453h.03906a2.22726 2.22726 0 0 1 1.57227-.76172c1.02539 0 1.47461.69336 1.47461 1.9043v3.00781h-1.12305v-2.86133c0-.791-.22461-1.084-.75195-1.084a1.51938 1.51938 0 0 0 -1.09375.5957v3.34961h-1.12305z"/><path d="m141.1084 12.40674v-2.28516h-.6836v-.83984l.74219-.04883.13672-1.30859h.9375v1.30859h1.2207v.88867h-1.2207v2.28516c0 .5664.21484.83984.67383.83984a1.37493 1.37493 0 0 0 .49805-.10742l.19531.83008a3.06269 3.06269 0 0 1 -.97656.17578c-1.11329-.00002-1.52344-.70313-1.52344-1.73828z"/><path d="m144.56641 9.23291h.92773l.07813.84961h.03906a1.62894 1.62894 0 0 1 1.35742-.9668 1.21843 1.21843 0 0 1 .54687.09766l-.19531.97656a1.56724 1.56724 0 0 0 -.498-.07812c-.38086 0-.83985.26367-1.13282.98632v2.92969h-1.123z"/><path d="m147.89648 11.63525a2.29164 2.29164 0 1 1 4.56055 0 2.29077 2.29077 0 1 1 -4.56055 0zm3.40821 0c0-.96679-.42969-1.60156-1.13281-1.60156s-1.123.63477-1.123 1.60156c0 .957.41992 1.5918 1.123 1.5918s1.13281-.63476 1.13281-1.5918z"/><path d="m153.669 12.79736v-5.66406h1.123v5.7227c0 .27343.127.37109.24414.37109a.67278.67278 0 0 0 .17578-.01953l.14649.83984a1.5332 1.5332 0 0 1 -.5957.09766c-.8008-.00006-1.09371-.51762-1.09371-1.3477z"/><path d="m155.93555 13.481.52734-.72266a2.13372 2.13372 0 0 0 1.32813.53711c.51757 0 .76171-.24414.76171-.57617 0-.40039-.51757-.57617-1.02539-.77149-.63476-.23437-1.34765-.5957-1.34765-1.39648 0-.83984.67383-1.43555 1.748-1.43555a2.58868 2.58868 0 0 1 1.5918.57617l-.51758.6836a1.78527 1.78527 0 0 0 -1.05468-.41016c-.47852 0-.70313.22461-.70313.52735 0 .38086.47852.52734.99609.71289.6543.24414 1.377.55664 1.377 1.45507 0 .82032-.6543 1.48438-1.86524 1.48438a3.03675 3.03675 0 0 1 -1.8164-.66406z"/></g><path d="m26.9043 22.56787h31.00049a2.40479 2.40479 0 0 1 2.40479 2.40479v10.99951a2.40527 2.40527 0 0 1 -2.40527 2.40527h-31.0005a2.40479 2.40479 0 0 1 -2.40481-2.40478v-10.99952a2.40527 2.40527 0 0 1 2.4053-2.40527z" fill="url(#a)"/><path d="m57.9043 22.97241a2 2 0 0 1 2 2v11a2 2 0 0 1 -2 2h-31a2 2 0 0 1 -2-2v-11a2 2 0 0 1 2-2zm0-.81006h-31a2.81328 2.81328 0 0 0 -2.81006 2.81006v11a2.81328 2.81328 0 0 0 2.81006 2.81006h31a2.81328 2.81328 0 0 0 2.81006-2.81006v-11a2.81328 2.81328 0 0 0 -2.81006-2.81006z" fill="#252525"/><path d="m89.13672 22.56787h31.00049a2.40479 2.40479 0 0 1 2.40479 2.40479v10.99951a2.40527 2.40527 0 0 1 -2.40527 2.40527h-31.0005a2.40479 2.40479 0 0 1 -2.40479-2.40479v-10.99951a2.40527 2.40527 0 0 1 2.40528-2.40527z" fill="url(#b)"/><path d="m120.13672 22.97241a2 2 0 0 1 2 2v11a2 2 0 0 1 -2 2h-31a2 2 0 0 1 -2-2v-11a2 2 0 0 1 2-2zm0-.81006h-31a2.81328 2.81328 0 0 0 -2.81006 2.81006v11a2.81328 2.81328 0 0 0 2.81006 2.81006h31a2.81328 2.81328 0 0 0 2.81006-2.81006v-11a2.81328 2.81328 0 0 0 -2.81006-2.81006z" fill="#252525"/><path d="m151.37012 22.56787h31.00049a2.40479 2.40479 0 0 1 2.40479 2.40479v10.99951a2.40527 2.40527 0 0 1 -2.40527 2.40527h-31.0005a2.40479 2.40479 0 0 1 -2.40479-2.40479v-10.99951a2.40527 2.40527 0 0 1 2.40528-2.40527z" fill="url(#c)"/><path d="m182.37012 22.97241a2 2 0 0 1 2 2v11a2 2 0 0 1 -2 2h-31a2 2 0 0 1 -2-2v-11a2 2 0 0 1 2-2zm0-.81006h-31a2.81328 2.81328 0 0 0 -2.81006 2.81006v11a2.81328 2.81328 0 0 0 2.81006 2.81006h31a2.81328 2.81328 0 0 0 2.81006-2.81006v-11a2.81328 2.81328 0 0 0 -2.81006-2.81006z" fill="#252525"/><path d="m213.60254 22.56787h31.00046a2.40479 2.40479 0 0 1 2.40479 2.40479v10.99951a2.40527 2.40527 0 0 1 -2.40527 2.40527h-31.00047a2.40479 2.40479 0 0 1 -2.40479-2.40479v-10.99951a2.40527 2.40527 0 0 1 2.40528-2.40527z" fill="url(#d)"/><path d="m244.60254 22.97241a2 2 0 0 1 2 2v11a2 2 0 0 1 -2 2h-31a2 2 0 0 1 -2-2v-11a2 2 0 0 1 2-2zm0-.81006h-31a2.81328 2.81328 0 0 0 -2.81006 2.81006v11a2.81328 2.81328 0 0 0 2.81006 2.81006h31a2.81328 2.81328 0 0 0 2.81006-2.81006v-11a2.81328 2.81328 0 0 0 -2.81006-2.81006z" fill="#252525"/><path d="m82.45512 30.4733a4.219 4.219 0 1 1 -4.21833-4.22055 4.21908 4.21908 0 0 1 4.21833 4.22055z" fill="#b3b3b3" stroke="#000" stroke-miterlimit="10" stroke-width=".5"/><path d="m20.2781 30.4733a4.219 4.219 0 1 1 -4.21973-4.22055 4.21909 4.21909 0 0 1 4.21973 4.22055z" fill="#b3b3b3" stroke="#000" stroke-miterlimit="10" stroke-width=".5"/><path d="m144.74388 30.4733a4.219 4.219 0 1 1 -4.21779-4.22055 4.21862 4.21862 0 0 1 4.21779 4.22055z" fill="#b3b3b3" stroke="#000" stroke-miterlimit="10" stroke-width=".5"/><path d="m206.92051 30.4733a4.21875 4.21875 0 1 1 -4.21786-4.22055 4.219 4.219 0 0 1 4.21786 4.22055z" fill="#b3b3b3" stroke="#000" stroke-miterlimit="10" stroke-width=".5"/></svg>