<svg xmlns="http://www.w3.org/2000/svg" width="90" height="20" viewBox="0 0 90 20"><title>Append_Disabled</title><rect x="0.5" y="0.5" width="89" height="19" rx="2.5" ry="2.5" fill="#333"/><path d="M87,1a2.00228,2.00228,0,0,1,2,2V17a2.00228,2.00228,0,0,1-2,2H3a2.00228,2.00228,0,0,1-2-2V3A2.00228,2.00228,0,0,1,3,1H87m0-1H3A3.00881,3.00881,0,0,0,0,3V17a3.00881,3.00881,0,0,0,3,3H87a3,3,0,0,0,3-3V3a3,3,0,0,0-3-3Z"/><line x1="80.4017" y1="10.29167" x2="70.9017" y2="10.29167" stroke="#000" stroke-miterlimit="10" stroke-width="1.6"/><line x1="80.4017" y1="6.76066" x2="70.9017" y2="6.76066" stroke="#000" stroke-miterlimit="10" stroke-width="1.6"/><line x1="80.4017" y1="13.82267" x2="70.9017" y2="13.82267" stroke="#000" stroke-miterlimit="10" stroke-width="1.6"/><path d="M20.81315,12.02734H18.07584l-.63672,2.21192h-1.4873l2.67383-8.17285h1.70019L22.987,14.23926h-1.5371Zm-.3252-1.13769-.28711-.999c-.25-.8623-.5-1.7998-.7373-2.69921h-.04981c-.22558.91211-.46289,1.83691-.72558,2.69921l-.28711.999Z"/><path d="M25.41373,14.73926v1.9248h-1.4375V8.10352h1.1875l.09961.64941h.04981a2.99237,2.99237,0,0,1,1.84961-.79981c1.52539,0,2.41211,1.22461,2.41211,3.124,0,2.09961-1.26172,3.3125-2.624,3.3125a2.4846,2.4846,0,0,1-1.57519-.67481ZM26.651,13.20215c.8125,0,1.43652-.72461,1.43652-2.11231,0-1.22461-.39941-1.94922-1.32422-1.94922a1.95729,1.95729,0,0,0-1.34961.6875v2.86133A1.9418,1.9418,0,0,0,26.651,13.20215Z"/><path d="M32.58854,14.73926v1.9248H31.151V8.10352h1.1875l.09961.64941h.0498a2.99242,2.99242,0,0,1,1.84961-.79981c1.52539,0,2.41211,1.22461,2.41211,3.124,0,2.09961-1.26172,3.3125-2.624,3.3125a2.48463,2.48463,0,0,1-1.5752-.67481Zm1.2373-1.53711c.81153,0,1.43653-.72461,1.43653-2.11231,0-1.22461-.39942-1.94922-1.32422-1.94922a1.95727,1.95727,0,0,0-1.34961.6875v2.86133A1.93985,1.93985,0,0,0,33.82584,13.20215Z"/><path d="M40.75065,7.95312c1.66211,0,2.53711,1.2002,2.53711,2.91211a3.11721,3.11721,0,0,1-.0625.67481H39.32584a1.76131,1.76131,0,0,0,1.81153,1.7373,2.56376,2.56376,0,0,0,1.4248-.45019l.4873.89941a3.86694,3.86694,0,0,1-2.09863.66309,2.95875,2.95875,0,0,1-3.02441-3.21192A2.98582,2.98582,0,0,1,40.75065,7.95312Zm1.28711,2.67481c0-.97461-.41211-1.5625-1.25-1.5625-.72461,0-1.34961.53711-1.47461,1.5625Z"/><path d="M44.78873,8.10352h1.1875l.09961.82421h.04981a2.85314,2.85314,0,0,1,2.01269-.97461c1.31153,0,1.88672.8877,1.88672,2.4375v3.84864h-1.4375V10.57812c0-1.01269-.28711-1.38769-.96191-1.38769a1.94334,1.94334,0,0,0-1.39942.76269v4.28614h-1.4375Z"/><path d="M54.13834,7.95312a2.26606,2.26606,0,0,1,1.61231.67481l-.04981-.98731V5.416h1.43653v8.82324H55.95084l-.10058-.66211h-.04981a2.56169,2.56169,0,0,1-1.7373.8125c-1.53711,0-2.52442-1.1875-2.52442-3.21192C51.53873,9.17773,52.80143,7.95312,54.13834,7.95312Zm.27539,5.249a1.65878,1.65878,0,0,0,1.28711-.6875V9.65332a1.83046,1.83046,0,0,0-1.25-.5127c-.78711,0-1.4248.73731-1.4248,2.02442C53.026,12.48926,53.526,13.20215,54.41373,13.20215Z"/></svg>