<svg xmlns="http://www.w3.org/2000/svg" viewBox="0 0 28 28"><defs><style>.a{fill:#4d4d4d;}.b{fill:#666;}.c{fill:#ccc;}.d{fill:none;stroke:#ccc;stroke-miterlimit:10;stroke-width:1.7px;}</style></defs><title>BB_Buttons_1.8</title><rect class="a" x="0.5" y="0.5" width="27" height="27" rx="2.5" ry="2.5"/><path class="b" d="M25,1a2,2,0,0,1,2,2V25a2,2,0,0,1-2,2H3a2,2,0,0,1-2-2V3A2,2,0,0,1,3,1H25m0-1H3A3,3,0,0,0,0,3V25a3,3,0,0,0,3,3H25a3,3,0,0,0,3-3V3a3,3,0,0,0-3-3h0Z"/><circle class="c" cx="14.43" cy="8.85" r="1.5"/><line class="d" x1="18.7" y1="20.78" x2="10.16" y2="20.78"/><polyline class="d" points="10.56 13.04 14.53 13.04 14.53 20.78"/></svg>