<svg xmlns="http://www.w3.org/2000/svg" width="86" height="22" viewBox="0 0 86 22"><title>Insert_Disabled</title><rect x="0.5" y="0.5" width="85" height="21" rx="2.5" ry="2.5" fill="#333"/><path d="M83,1a2.00228,2.00228,0,0,1,2,2V19a2.00228,2.00228,0,0,1-2,2H3a2.00228,2.00228,0,0,1-2-2V3A2.00228,2.00228,0,0,1,3,1H83m0-1H3A3.00881,3.00881,0,0,0,0,3V19a3.00881,3.00881,0,0,0,3,3H83a3,3,0,0,0,3-3V3a3,3,0,0,0-3-3Z"/><path d="M19.06011,6.42222h1.59521v8.99013H19.06011Z"/><path d="M22.91011,8.663h1.30625l.10957.90664h.05478a3.13848,3.13848,0,0,1,2.214-1.07207c1.44267,0,2.07539.97646,2.07539,2.68125v4.23349H27.08882V11.38511c0-1.114-.31582-1.52647-1.05811-1.52647a2.13767,2.13767,0,0,0-1.53935.839v4.71474H22.91011Z"/><path d="M30.81636,13.62485a2.99945,2.99945,0,0,0,1.87021.75625c.72832,0,1.07207-.34375,1.07207-.811,0-.56289-.72939-.811-1.44375-1.086-.89375-.32978-1.89707-.83789-1.89707-1.96582,0-1.18164.94854-2.0206,2.461-2.0206a3.64319,3.64319,0,0,1,2.24082.811l-.7294.9625a2.513,2.513,0,0,0-1.48457-.57793c-.67353,0-.98935.3169-.98935.74336,0,.52207.67353.74229,1.40185,1.00332.92168.34375,1.939.78311,1.939,2.04746,0,1.15479-.92168,2.09043-2.62647,2.09043a4.27576,4.27576,0,0,1-2.55664-.93564Z"/><path d="M39.47886,8.49761c1.82832,0,2.79082,1.32021,2.79082,3.20332a3.429,3.429,0,0,1-.06875.74228H37.91157a1.93744,1.93744,0,0,0,1.99268,1.911,2.82015,2.82015,0,0,0,1.56728-.49522l.536.98936a4.25377,4.25377,0,0,1-2.3085.72939,3.25462,3.25462,0,0,1-3.32685-3.5331A3.2844,3.2844,0,0,1,39.47886,8.49761Zm1.41582,2.94228c0-1.07207-.45332-1.71875-1.375-1.71875-.79707,0-1.48457.59082-1.62207,1.71875Z"/><path d="M43.91968,8.663h1.30625l.10957,1.1956h.05478a2.29421,2.29421,0,0,1,1.911-1.361,1.72546,1.72546,0,0,1,.77021.1375l-.275,1.375a2.20867,2.20867,0,0,0-.70146-.11065c-.536,0-1.18164.37168-1.59414,1.389v4.12392H43.91968Z"/><path d="M49.42075,9.91343h-.9625V8.73179L49.50239,8.663l.19336-1.84229h1.31914V8.663h1.71875V9.91343H51.01489v3.21728c0,.79707.30293,1.18164.94854,1.18164a1.92963,1.92963,0,0,0,.70146-.15146l.275,1.16875a4.32074,4.32074,0,0,1-1.375.24814c-1.56728,0-2.14414-.99043-2.14414-2.44707Z"/><line x1="81" y1="7" x2="71" y2="7" stroke="#000" stroke-miterlimit="10" stroke-width="1.6"/><line x1="81" y1="11" x2="71" y2="11" stroke="#000" stroke-miterlimit="10" stroke-width="1.6"/><line x1="81" y1="15" x2="71" y2="15" stroke="#000" stroke-miterlimit="10" stroke-width="1.6"/></svg>