<svg xmlns="http://www.w3.org/2000/svg" width="86" height="22" viewBox="0 0 86 22"><title>Insert_Disabled</title><rect x="0.5" y="0.5" width="85" height="21" rx="2.5" ry="2.5" fill="#333"/><path d="M83,1a2.00228,2.00228,0,0,1,2,2V19a2.00228,2.00228,0,0,1-2,2H3a2.00228,2.00228,0,0,1-2-2V3A2.00228,2.00228,0,0,1,3,1H83m0-1H3A3.00881,3.00881,0,0,0,0,3V19a3.00881,3.00881,0,0,0,3,3H83a3,3,0,0,0,3-3V3a3,3,0,0,0-3-3Z"/><line x1="81" y1="7" x2="71" y2="7" stroke="#000" stroke-miterlimit="10" stroke-width="2"/><line x1="81" y1="11" x2="71" y2="11" stroke="#000" stroke-miterlimit="10" stroke-width="2"/><line x1="81" y1="15" x2="71" y2="15" stroke="#000" stroke-miterlimit="10" stroke-width="2"/><path d="M18.06011,7.031h1.79521v8.8067H18.06011Z"/><path d="M22.18662,9.23953h1.40625l.10957.89535.15479.2a3.16788,3.16788,0,0,1,2.114-1.25872c1.44268,0,2.07539.9643,2.07539,2.64785v4.18077H26.26533V11.92769c-.03893-1.06593-.41582-1.40745-1.1581-1.40745-.59082,0-.67647.18537-1.23936.72852v4.656H22.18662Z"/><path d="M38.93522,9.07616c1.82832,0,2.79082,1.34814,2.79082,3.27109a3.57313,3.57313,0,0,1-.06875.758H37.36794a2.04463,2.04463,0,0,0,1.99267,2.05147c.57793,0,.94348-.44784,1.43762-.77034l.92781,1.47917a4.96635,4.96635,0,0,1-2.5706.44059,3.29259,3.29259,0,0,1-3.32686-3.60786A3.32726,3.32726,0,0,1,38.93522,9.07616ZM40.351,12.08069c0-1.09475-.45332-1.95511-1.375-1.95511-.79707,0-1.48457.80332-1.62207,1.95511Z"/><path d="M44.06968,9.04441h1.40625l.10957,1.22091h.05478a2.29541,2.29541,0,0,1,1.911-1.38983,1.69445,1.69445,0,0,1,.77021.1404l-.275,1.40409a2.16708,2.16708,0,0,0-.70146-.113c-.536,0-1.18164.37954-1.59414,1.41835v4.21118H44.06968Z"/><path d="M50.1422,10.32126h-.9625V9.11462l1.04522-.07021.19228-1.88126h1.31914V9.04441h1.71875v1.27685H51.73634v3.28535c0,.81394.30293,1.20664.94854,1.20664.23418,0,.55242-.43892.74471-.52339l.5,1.52084a6.07032,6.07032,0,0,1-1.64325.29476c-1.56728,0-2.14414-1.01139-2.14414-2.49885Z"/><path d="M29.60288,15.07589l.7336-1.00616a2.97171,2.97171,0,0,0,1.84861.74776c.72033,0,1.06014-.33981,1.06014-.80174,0-.5575-.72033-.80174-1.42738-1.0743-.88316-.32565-1.87516-.82829-1.87516-1.94329,0-1.169.93714-1.99816,2.43266-1.99816a3.607,3.607,0,0,1,2.21585.80174l-.72122.95218a2.48208,2.48208,0,0,0-1.4672-.57077c-.66635,0-.97873.31237-.97873.7336,0,.53007.66547.7336,1.38579.992.91148.33981,1.91675.77519,1.91675,2.02559,0,1.14155-.91059,2.06541-2.59637,2.06541A4.22378,4.22378,0,0,1,29.60288,15.07589Z"/></svg>