<svg xmlns="http://www.w3.org/2000/svg" width="80" height="20" viewBox="0 0 80 20"><title>Insert_Disabled</title><rect x="0.5" y="0.5" width="79" height="19" rx="2.5" ry="2.5" fill="#333"/><path d="M77,1a2.00228,2.00228,0,0,1,2,2V17a2.00228,2.00228,0,0,1-2,2H3a2.00228,2.00228,0,0,1-2-2V3A2.00228,2.00228,0,0,1,3,1H77m0-1H3A3.00881,3.00881,0,0,0,0,3V17a3.00881,3.00881,0,0,0,3,3H77a3,3,0,0,0,3-3V3a3,3,0,0,0-3-3Z"/><line x1="73.75" y1="10.29167" x2="64.25" y2="10.29167" stroke="#000" stroke-miterlimit="10" stroke-width="1.6"/><line x1="73.75" y1="6.76066" x2="64.25" y2="6.76066" stroke="#000" stroke-miterlimit="10" stroke-width="1.6"/><line x1="73.75" y1="13.82267" x2="64.25" y2="13.82267" stroke="#000" stroke-miterlimit="10" stroke-width="1.6"/><path d="M18.92969,6.06641h1.45019v8.17285H18.92969Z"/><path d="M22.45508,8.10352h1.1875l.09961.82421h.0498a2.85316,2.85316,0,0,1,2.0127-.97461c1.31152,0,1.88672.8877,1.88672,2.4375v3.84864h-1.4375V10.57812c0-1.01269-.28711-1.38769-.96192-1.38769a1.94333,1.94333,0,0,0-1.39941.76269v4.28614h-1.4375Z"/><path d="M28.96777,13.53906l.67481-.9248a2.72678,2.72678,0,0,0,1.70019.6875c.66211,0,.97461-.3125.97461-.73731,0-.51172-.66308-.7373-1.3125-.9873-.8125-.29981-1.72461-.76172-1.72461-1.78711,0-1.07422.86231-1.83692,2.23731-1.83692a3.31194,3.31194,0,0,1,2.03711.73731l-.66309.875A2.28455,2.28455,0,0,0,31.542,9.04c-.6123,0-.89941.28808-.89941.67578,0,.4873.6123.6748,1.27441.91211.83789.3125,1.7627.71191,1.7627,1.86133,0,1.0498-.83789,1.90039-2.3877,1.90039A3.887,3.887,0,0,1,28.96777,13.53906Z"/><path d="M34.69238,11.17773A2.98582,2.98582,0,0,1,37.5166,7.95312c1.66211,0,2.53711,1.2002,2.53711,2.91211a3.3678,3.3678,0,0,1-.0625.69922H36.0918a1.75667,1.75667,0,0,0,1.81152,1.71289,2.56374,2.56374,0,0,0,1.4248-.45019l.48731.89941a3.867,3.867,0,0,1-2.09863.66309A2.95875,2.95875,0,0,1,34.69238,11.17773Zm4.11133-.58789c0-.94922-.41211-1.52441-1.25-1.52441a1.54093,1.54093,0,0,0-1.47461,1.52441Z"/><path d="M41.55469,8.10352h1.1875l.09961,1.08691h.0498a2.08564,2.08564,0,0,1,1.73731-1.23731,1.56871,1.56871,0,0,1,.70019.125l-.25,1.25a2.00788,2.00788,0,0,0-.63769-.10058c-.48731,0-1.07422.33789-1.44922,1.26269v3.749h-1.4375Z"/><path d="M46.55469,12.165V9.24023h-.875V8.166l.95019-.0625.17481-1.67481h1.19922V8.10352h1.5625V9.24023h-1.5625V12.165c0,.72461.27539,1.07422.8623,1.07422a1.75412,1.75412,0,0,0,.6377-.1377l.25,1.0625a3.92769,3.92769,0,0,1-1.25.22559C47.0791,14.38965,46.55469,13.48926,46.55469,12.165Z"/></svg>