<svg xmlns="http://www.w3.org/2000/svg" width="80" height="20" viewBox="0 0 80 20"><title>Insert_Enabled</title><rect x="0.5" y="0.5" width="79" height="19" rx="2.5" ry="2.5" fill="#4d4d4d"/><path d="M77,1a2.00228,2.00228,0,0,1,2,2V17a2.00228,2.00228,0,0,1-2,2H3a2.00228,2.00228,0,0,1-2-2V3A2.00228,2.00228,0,0,1,3,1H77m0-1H3A3.00881,3.00881,0,0,0,0,3V17a3.00881,3.00881,0,0,0,3,3H77a3,3,0,0,0,3-3V3a3,3,0,0,0-3-3Z" fill="#666"/><line x1="73.75" y1="10.29167" x2="64.25" y2="10.29167" stroke="#ccc" stroke-miterlimit="10" stroke-width="1.6"/><line x1="73.75" y1="6.76066" x2="64.25" y2="6.76066" stroke="#ccc" stroke-miterlimit="10" stroke-width="1.6"/><line x1="73.75" y1="13.82267" x2="64.25" y2="13.82267" stroke="#ccc" stroke-miterlimit="10" stroke-width="1.6"/><text transform="translate(17.89291 14.23953)" font-size="12.5" fill="#ccc" font-family="SourceSansPro-Semibold, Source Sans Pro" font-weight="700" letter-spacing="0.01em">Insert</text></svg>