<svg xmlns="http://www.w3.org/2000/svg" width="38" height="38" viewBox="0 0 38 38"><title>Link_Enabled</title><rect x="0.5" y="0.5" width="37" height="37" rx="3.5" ry="3.5" fill="#4d4d4d"/><path d="M34,1a3.00337,3.00337,0,0,1,3,3V34a3.00337,3.00337,0,0,1-3,3H4a3.00337,3.00337,0,0,1-3-3V4A3.00337,3.00337,0,0,1,4,1H34m0-1H4A4,4,0,0,0,0,4V34a4,4,0,0,0,4,4H34a4,4,0,0,0,4-4V4a4,4,0,0,0-4-4Z" fill="#666"/><path d="M8.81249,25V12H12.453c3.99943,0,6.2025,2.48771,6.2025,6.55045,0,4.14-2.16015,6.44955-6.08232,6.44955Zm2.385-2H12.625c2.76537,0,3.89507-1.32254,3.89507-4.44955,0-3.09159-1.09107-4.44955-3.89507-4.44955H11.19751Z" fill="#ccc"/><polygon points="21.952 25 21.952 12 24.171 12 24.171 23 29.801 23 29.801 25 21.952 25" fill="#ccc"/></svg>