<svg xmlns="http://www.w3.org/2000/svg" width="36" height="34" viewBox="0 0 36 34"><title>Link_Enabled</title><rect x="0.5" y="0.5" width="35" height="33" rx="2.5" ry="2.5" fill="#4d4d4d"/><path d="M33,1a2.00228,2.00228,0,0,1,2,2V31a2.00228,2.00228,0,0,1-2,2H3a2.00228,2.00228,0,0,1-2-2V3A2.00228,2.00228,0,0,1,3,1H33m0-1H3A3.00881,3.00881,0,0,0,0,3V31a3.00881,3.00881,0,0,0,3,3H33a3.00881,3.00881,0,0,0,3-3V3a3.00881,3.00881,0,0,0-3-3Z" fill="#666"/><path d="M10,22.402v-10.3h2.69882c3.2384,0,5.02226,1.81167,5.02226,5.10134,0,3.35223-1.7491,5.19865-4.925,5.19865Zm1.6822-1.32855h.888c2.23916,0,3.42174-1.33811,3.42174-3.8701,0-2.50331-1.1513-3.77278-3.42174-3.77278h-.888Z" fill="#ccc"/><polygon points="19.978 22.402 19.978 12.102 21.659 12.102 21.659 21.009 26 21.009 26 22.402 19.978 22.402" fill="#ccc"/></svg>