<svg xmlns="http://www.w3.org/2000/svg" width="36" height="34" viewBox="0 0 36 34"><title>Load_Disabled</title><rect x="0.5" y="0.5" width="35" height="33" rx="2.5" ry="2.5" fill="#333"/><path d="M33,1a2.00228,2.00228,0,0,1,2,2V31a2.00228,2.00228,0,0,1-2,2H3a2.00226,2.00226,0,0,1-2-2V3A2.00226,2.00226,0,0,1,3,1H33m0-1H3A3.00883,3.00883,0,0,0,0,3V31a3.00883,3.00883,0,0,0,3,3H33a3.00881,3.00881,0,0,0,3-3V3a3.00881,3.00881,0,0,0-3-3Z"/><path d="M8.75,22.41974h8a3,3,0,0,0,3-3v-10" fill="none" stroke="#1a1a1a" stroke-miterlimit="10" stroke-width="2"/><polyline points="25.25 13.92 19.75 8.42 14.25 13.92" fill="none" stroke="#1a1a1a" stroke-miterlimit="10" stroke-width="2"/></svg>