<svg xmlns="http://www.w3.org/2000/svg" width="38" height="38" viewBox="0 0 38 38"><title>Load_Disabled</title><rect x="0.5" y="0.5" width="37" height="37" rx="1.5" ry="1.5" fill="#333"/><path d="M36,1a1.00114,1.00114,0,0,1,1,1V36a1.00114,1.00114,0,0,1-1,1H2a1.00114,1.00114,0,0,1-1-1V2A1.00114,1.00114,0,0,1,2,1H36m0-1H2A2.00587,2.00587,0,0,0,0,2V36a2.00587,2.00587,0,0,0,2,2H36a2.00587,2.00587,0,0,0,2-2V2a2.00587,2.00587,0,0,0-2-2Z"/><path d="M10.75,26h8a3,3,0,0,0,3-3V13" fill="none" stroke="#1a1a1a" stroke-miterlimit="10" stroke-width="2"/><polyline points="27.25 17.5 21.75 12 16.25 17.5" fill="none" stroke="#1a1a1a" stroke-miterlimit="10" stroke-width="2"/></svg>