<svg xmlns="http://www.w3.org/2000/svg" width="38" height="38" viewBox="0 0 38 38"><title>MC_A_Disabled</title><circle cx="19" cy="19" r="18.5" fill="#4d4d4d"/><path d="M19,1A18,18,0,1,1,1,19,18.02039,18.02039,0,0,1,19,1m0-1A19,19,0,1,0,38,19,19,19,0,0,0,19,0Z"/><path d="M21.40556,22.04952H16.50931l-1.14057,3.9576h-2.661L17.4927,11.38494h3.04079l4.762,14.62218H22.545Zm-.58174-2.03447-.51408-1.78889c-.44749-1.54222-.8939-3.21869-1.31956-4.82858h-.0895c-.40166,1.63172-.82623,3.28636-1.29665,4.82858L17.09,20.01505Z" fill="#1a1a1a"/></svg>