<?xml version="1.0" encoding="utf-8"?>
<!-- Generator: Adobe Illustrator 19.2.1, SVG Export Plug-In . SVG Version: 6.00 Build 0)  -->
<svg version="1.1" id="Layer_1" xmlns="http://www.w3.org/2000/svg" xmlns:xlink="http://www.w3.org/1999/xlink" x="0px" y="0px"
	 viewBox="0 0 34 34" enable-background="new 0 0 34 34" xml:space="preserve">
<g>
	<path fill="#4D4D4D" d="M17,33.5C7.9023438,33.5,0.5,26.0976562,0.5,17S7.9023438,0.5,17,0.5S33.5,7.9023438,33.5,17
		S26.0976562,33.5,17,33.5z"/>
	<path fill="#666666" d="M17,1c8.8224335,0,16,7.1775703,16,16s-7.1775665,16-16,16S1,25.8224335,1,17S8.1775665,1,17,1 M17,0
		C7.6111603,0,0,7.6111603,0,17s7.6111603,17,17,17s17-7.6111603,17-17S26.3888397,0,17,0L17,0z"/>
</g>
<g>
	<path fill="#CCCCCC" d="M19.1523438,19.7285156h-4.3808594l-1.0205078,3.5410156h-2.3808594l4.28125-13.0830078h2.7207031
		l4.2607422,13.0830078H20.171875L19.1523438,19.7285156z M18.6318359,17.9082031l-0.4599609-1.6005859
		c-0.4003906-1.3798828-0.7998047-2.8798828-1.1806641-4.3203125h-0.0800781
		c-0.359375,1.4599609-0.7392578,2.9404297-1.1601562,4.3203125l-0.4599609,1.6005859H18.6318359z"/>
</g>
</svg>
