<svg xmlns="http://www.w3.org/2000/svg" width="40" height="40" viewBox="0 0 40 40"><title>MC_A_Enabled</title><circle cx="20" cy="20" r="19" fill="#4d4d4d"/><path d="M20,1.5A18.5,18.5,0,1,1,1.5,20,18.521,18.521,0,0,1,20,1.5m0-1A19.5,19.5,0,1,0,39.5,20,19.5,19.5,0,0,0,20,.5Z" fill="#666"/><path d="M22.48266,23.93156H17.426l-1.17793,4.05668H13.5L18.44165,13H21.582L26.5,27.98824H23.65946ZM21.98824,22s-1.3251-5.28678-1.76471-6.937h-.43529C19.37343,16.73559,18.02571,22,18.02571,22Z" fill="#ccc"/></svg>