<svg xmlns="http://www.w3.org/2000/svg" width="26" height="26" viewBox="0 0 26 26"><title>MC_B_Label</title><path d="M13,1.5A11.5,11.5,0,1,1,1.5,13,11.513,11.513,0,0,1,13,1.5m0-1A12.5,12.5,0,1,0,25.5,13,12.5,12.5,0,0,0,13,.5Z" fill="gray"/><path d="M9.125,7.10755h3.78223c2.42578,0,4.21679.7504,4.21679,2.946a2.40619,2.40619,0,0,1-2.02734,2.59862v.07345c1.70117.29282,2.66016,1.22686,2.66016,2.83685,0,2.39712-1.93555,3.5138-4.542,3.5138H9.125ZM12.69336,11.959c1.665,0,2.35352-.37569,2.35352-1.7569,0-1.09781-.76075-1.43129-2.29883-1.43129H11.209V11.959Zm.28906,5.19723c1.73828,0,2.69041-.31742,2.69041-1.67232,0-1.24372-.93455-1.8381-2.69041-1.8381H11.209v3.51042Z" fill="gray"/></svg>