<svg xmlns="http://www.w3.org/2000/svg" width="40" height="40" viewBox="0 0 40 40"><title>MC_B_Disabled</title><circle cx="20" cy="20" r="19" fill="#4d4d4d"/><path d="M20,1.5A18.5,18.5,0,1,1,1.5,20,18.521,18.521,0,0,1,20,1.5m0-1A19.5,19.5,0,1,0,39.5,20,19.5,19.5,0,0,0,20,.5Z"/><path d="M15.02188,13.00141H19.4375c2.996,0,5.46639,1.14442,5.46639,3.682a3.23479,3.23479,0,0,1-2.5038,3.24772v.09155c2.10105.36619,3.28637,1.53175,3.28637,3.54469,0,2.99541-2.39247,4.391-5.61225,4.391H15.02188Zm4.42693,6.19735c2.26994,0,2.90653-.79937,2.90653-2.19492,0-1.3721-.746-1.94372-2.84-1.94372H17.61517v4.13864Zm.358,6.70086c2.1458,0,3.33112-.509,3.33112-2.4009,0-1.71747-1.1624-2.4009-3.33112-2.4009H17.61517v4.8018Z" fill="#1a1a1a"/></svg>