<?xml version="1.0" encoding="utf-8"?>
<!-- Generator: Adobe Illustrator 19.2.1, SVG Export Plug-In . SVG Version: 6.00 Build 0)  -->
<svg version="1.1" id="Layer_1" xmlns="http://www.w3.org/2000/svg" xmlns:xlink="http://www.w3.org/1999/xlink" x="0px" y="0px"
	 viewBox="0 0 34 34" enable-background="new 0 0 34 34" xml:space="preserve">
<g>
	<path fill="#4D4D4D" d="M17,33.5C7.9023438,33.5,0.5,26.0976562,0.5,17S7.9023438,0.5,17,0.5S33.5,7.9023438,33.5,17
		S26.0976562,33.5,17,33.5z"/>
	<path fill="#666666" d="M17,1c8.8224335,0,16,7.1775703,16,16s-7.1775665,16-16,16S1,25.8224335,1,17S8.1775665,1,17,1 M17,0
		C7.6111603,0,0,7.6111603,0,17s7.6111603,17,17,17s17-7.6111603,17-17S26.3888397,0,17,0L17,0z"/>
</g>
<g>
	<path fill="#CCCCCC" d="M17.7509766,9.9462891c1.6005859,0,2.9013672,0.7802734,3.7207031,1.6611328l-1.2802734,1.4394531
		c-0.6796875-0.6591797-1.4199219-1.0800781-2.4199219-1.0800781c-2.140625,0-3.6806641,1.8007812-3.6806641,4.7412109
		c0,2.9804688,1.4199219,4.78125,3.6005859,4.78125c1.1601562,0,2.0205078-0.4804688,2.7607422-1.3007812l1.2802734,1.4208984
		c-1.0605469,1.2197266-2.4208984,1.9003906-4.0810547,1.9003906c-3.3212891,0-5.9414062-2.4003906-5.9414062-6.7412109
		C11.7099609,12.4873047,14.390625,9.9462891,17.7509766,9.9462891z"/>
</g>
</svg>
