<svg xmlns="http://www.w3.org/2000/svg" width="26" height="26" viewBox="0 0 26 26"><title>MC_C_Label</title><path d="M13,1.5A11.5,11.5,0,1,1,1.5,13,11.513,11.513,0,0,1,13,1.5m0-1A12.5,12.5,0,1,0,25.5,13,12.5,12.5,0,0,0,13,.5Z" fill="gray"/><path d="M13.63281,7.03125a4.67513,4.67513,0,0,1,3.36524,1.47306L15.83984,9.78192a3.04127,3.04127,0,0,0-2.18945-.958c-1.93652,0-3.33008,1.59726-3.33008,4.2064,0,2.64572,1.28516,4.243,3.25782,4.243a3.22868,3.22868,0,0,0,2.49707-1.15341l1.1582,1.26028A4.76414,4.76414,0,0,1,13.541,19.066c-3.00391,0-5.374-2.12967-5.374-5.98177C8.167,9.28512,10.5918,7.03125,13.63281,7.03125Z" fill="gray"/></svg>