<svg xmlns="http://www.w3.org/2000/svg" width="38" height="38" viewBox="0 0 38 38"><title>MC_C_Disabled</title><circle cx="19" cy="19" r="18.5" fill="#4d4d4d"/><path d="M19,1A18,18,0,1,1,1,19,18.02039,18.02039,0,0,1,19,1m0-1A19,19,0,1,0,38,19,19,19,0,0,0,19,0Z"/><path d="M19.83933,11.11644A5.72257,5.72257,0,0,1,23.99776,12.973l-1.43089,1.6088a3.72507,3.72507,0,0,0-2.70462-1.20714c-2.39247,0-4.11369,2.01263-4.11369,5.299,0,3.33111,1.587,5.34375,4.02419,5.34375a3.96007,3.96007,0,0,0,3.08553-1.45382l1.4309,1.58806a5.841,5.841,0,0,1-4.56118,2.124c-3.712,0-6.6404-2.68279-6.6404-7.53429C13.0876,13.9564,16.08364,11.11644,19.83933,11.11644Z" fill="#1a1a1a"/></svg>