<?xml version="1.0" encoding="utf-8"?>
<!-- Generator: Adobe Illustrator 19.2.1, SVG Export Plug-In . SVG Version: 6.00 Build 0)  -->
<svg version="1.1" id="Layer_1" xmlns="http://www.w3.org/2000/svg" xmlns:xlink="http://www.w3.org/1999/xlink" x="0px" y="0px"
	 viewBox="0 0 34 34" enable-background="new 0 0 34 34" xml:space="preserve">
<g>
	<path fill="#4D4D4D" d="M17,33.5C7.9023438,33.5,0.5,26.0976562,0.5,17C0.5,7.9018555,7.9023438,0.5,17,0.5S33.5,7.9018555,33.5,17
		C33.5,26.0976562,26.0976562,33.5,17,33.5z"/>
	<path d="M17,1c8.8224335,0,16,7.1775703,16,16s-7.1775665,16-16,16S1,25.8224297,1,17S8.1775665,1,17,1 M17,0
		C7.6111603,0,0,7.6111598,0,17s7.6111603,17,17,17s17-7.6111603,17-17S26.3888397,0,17,0L17,0z"/>
</g>
<g>
	<path fill="#1A1A1A" d="M12.9101562,10.1865234h3.4804688c4.0009766,0,6.3818359,2.1611328,6.3818359,6.4814453
		c0,4.3408203-2.3808594,6.6015625-6.2617188,6.6015625h-3.6005859V10.1865234z M16.2304688,21.3886719
		c2.640625,0,4.1611328-1.5,4.1611328-4.7207031c0-3.2001953-1.5205078-4.6005859-4.1611328-4.6005859h-1v9.3212891H16.2304688z"/>
</g>
</svg>
