<svg xmlns="http://www.w3.org/2000/svg" width="38" height="38" viewBox="0 0 38 38"><title>MC_D_Disabled</title><circle cx="19" cy="19" r="18.5" fill="#4d4d4d"/><path d="M19,1A18,18,0,1,1,1,19,18.02039,18.02039,0,0,1,19,1m0-1A19,19,0,1,0,38,19,19,19,0,0,0,19,0Z"/><path d="M14.429,11.38494h3.88993c4.47168,0,7.13264,2.41538,7.13264,7.244,0,4.8515-2.661,7.37821-6.99839,7.37821H14.429ZM18.13994,23.905c2.95128,0,4.65067-1.67647,4.65067-5.27608,0-3.57669-1.69939-5.14184-4.65067-5.14184H17.02229V23.905Z" fill="#1a1a1a"/></svg>