<svg xmlns="http://www.w3.org/2000/svg" width="44" height="44" viewBox="0 0 44 44"><title>MC_Edit_Enabled</title><rect x="0.5" y="0.5" width="43" height="43" rx="1.5" ry="1.5" fill="#4d4d4d"/><path d="M42,1a1.00113,1.00113,0,0,1,1,1V42a1.00113,1.00113,0,0,1-1,1H2a1.00113,1.00113,0,0,1-1-1V2A1.00113,1.00113,0,0,1,2,1H42m0-1H2A2,2,0,0,0,0,2V42a2,2,0,0,0,2,2H42a2,2,0,0,0,2-2V2a2,2,0,0,0-2-2Z" fill="#666"/><path d="M13.59975,13.76683a11.98326,11.98326,0,0,1,16.8005,0" fill="none" stroke="#ccc" stroke-miterlimit="10" stroke-width="9"/><circle cx="22" cy="22.32958" r="2.5" fill="#ccc"/><circle cx="22" cy="22.32958" r="12" fill="none" stroke="#1a1a1a" stroke-miterlimit="10" stroke-width="3"/></svg>