<?xml version="1.0" encoding="utf-8"?>
<!-- Generator: Adobe Illustrator 21.0.2, SVG Export Plug-In . SVG Version: 6.00 Build 0)  -->
<svg version="1.1" id="Layer_1" xmlns="http://www.w3.org/2000/svg" xmlns:xlink="http://www.w3.org/1999/xlink" x="0px" y="0px"
	 viewBox="0 0 55 32" enable-background="new 0 0 55 32" xml:space="preserve">
<g>
	<path fill="#4D4D4D" d="M16,31.5C7.453125,31.5,0.5,24.546875,0.5,16S7.453125,0.5,16,0.5h23c8.546875,0,15.5,6.953125,15.5,15.5
		S47.546875,31.5,39,31.5H16z"/>
	<path d="M39.0000191,1C47.2710419,1,54,7.7289801,54,16.0000191C54,24.27104,47.2710419,31,39.0000191,31H15.99998
		C7.72896,31,1,24.2710209,1,15.99998C1,7.72896,7.72896,1,15.99998,1H39.0000191 M39.0000191,0H15.99998
		C7.1999898,0,0,7.1999898,0,15.99998v0.0000391C0,24.8000107,7.1999898,32,15.99998,32h23.0000381
		C47.8365593,32,55,24.8365593,55,16.0000191V15.99998C55,7.1634402,47.8365593,0,39.0000191,0L39.0000191,0z"/>
</g>
<g>
	<rect x="9.5" y="14.5" fill="#1A1A1A" width="36" height="3"/>
	<path d="M45,15v2H10v-2H45 M46,14h-1H10H9v1v2v1h1h35h1v-1v-2V14L46,14z"/>
</g>
<g>
	<rect x="16" y="9.5" fill="#808080" width="23" height="5"/>
	<path d="M38.5,10v4h-22v-4H38.5 M39.5,9h-1h-22h-1v1v4v1h1h22h1v-1v-4V9L39.5,9z"/>
</g>
<g>
	<rect x="16" y="17.5" fill="#808080" width="23" height="5"/>
	<path d="M38.5,18v4h-22v-4H38.5 M39.5,17h-1h-22h-1v1v4v1h1h22h1v-1v-4V17L39.5,17z"/>
</g>
<g>
	<rect x="35.5" y="7" fill="#A65E44" width="4" height="18"/>
	<path d="M39,7.5v17h-3v-17H39 M40,6.5h-5v19h5V6.5L40,6.5z"/>
</g>
</svg>
