<svg xmlns="http://www.w3.org/2000/svg" width="62" height="36" viewBox="0 0 62 36"><title>MC_Low_Aktiv</title><path d="M18,35.5a17.5,17.5,0,0,1,0-35H44a17.5,17.5,0,0,1,0,35Z" fill="gray"/><path d="M44,1a17,17,0,0,1,0,34H18A17,17,0,0,1,18,1H44m0-1H18A18.05292,18.05292,0,0,0,0,18v0A18.05288,18.05288,0,0,0,18,36H44A18,18,0,0,0,62,18v0A18,18,0,0,0,44,0Z" fill="#b3b3b3"/><rect x="10.5" y="15.5" width="41" height="5" fill="#1a1a1a"/><path d="M51,16v4H11V16H51m1-1H10v6H52V15Z"/><rect x="17.5" y="10.5" width="27" height="5" fill="#b3b3b3"/><path d="M44,11v4H18V11H44m1-1H17v6H45V10Z"/><rect x="17.5" y="20.5" width="27" height="5" fill="#b3b3b3"/><path d="M44,21v4H18V21H44m1-1H17v6H45V20Z"/><rect x="17.5" y="8.5" width="3" height="19" fill="#ff6b36"/><path d="M20,9V27H18V9h2m1-1H17V28h4V8Z"/></svg>