<?xml version="1.0" encoding="utf-8"?>
<!-- Generator: Adobe Illustrator 19.2.1, SVG Export Plug-In . SVG Version: 6.00 Build 0)  -->
<svg version="1.1" id="Layer_1" xmlns="http://www.w3.org/2000/svg" xmlns:xlink="http://www.w3.org/1999/xlink" x="0px" y="0px"
	 viewBox="0 0 87 28" enable-background="new 0 0 87 28" xml:space="preserve">
<g>
	<path fill="#4D4D4D" d="M59,27H4c-1.6500001,0-3-1.3500004-3-3V4c0-1.6500001,1.3499999-3,3-3h55V27z"/>
	<path fill="#666666" d="M59,1v26H4c-1.6500244,0-3-1.3499985-3-3V4c0-1.6500015,1.3499756-3,3-3H59 M60,0h-1H4
		C1.7944336,0,0,1.7943916,0,4v20c0,2.2056122,1.7944336,4,4,4h55h1v-1V1V0L60,0z"/>
</g>
<g>
	<path fill="#4D4D4D" d="M83,27H60V1h23c1.6500015,0,3,1.3499999,3,3v20C86,25.6499996,84.6500015,27,83,27z"/>
	<path fill="#666666" d="M83,1c1.6500244,0,3,1.3499985,3,3v20c0,1.6500015-1.3499756,3-3,3H60V1H83 M83,0H60h-1v1v26v1h1h23
		c2.2055664,0,4-1.7943878,4-4V4C87,1.7943916,85.2055664,0,83,0L83,0z"/>
</g>
<g>
	<path fill="#CCCCCC" d="M19.9355469,9.8105469V19h-1.1621094V9.8105469H19.9355469z"/>
	<path fill="#CCCCCC" d="M23.9951172,12.1923828l0.0986328,0.9804688h0.0419922
		c0.6435547-0.6445312,1.3447266-1.1484375,2.2832031-1.1484375c1.4287109,0,2.0732422,0.9248047,2.0732422,2.6611328V19h-1.1494141
		v-4.1601562c0-1.2753906-0.3916016-1.8212891-1.2880859-1.8212891c-0.7011719,0-1.1767578,0.3642578-1.8632812,1.0507812V19
		h-1.1484375v-6.8076172H23.9951172z"/>
	<path fill="#CCCCCC" d="M30.671875,13.1308594v-0.8691406l0.9248047-0.0693359v-1.0791016
		c0-1.3867188,0.6298828-2.2548828,1.9882812-2.2548828c0.4208984,0,0.8271484,0.0986328,1.1347656,0.2236328l-0.2519531,0.8828125
		c-0.2519531-0.1113281-0.5185547-0.1679688-0.7705078-0.1679688c-0.6445312,0-0.9521484,0.4482422-0.9521484,1.3164062v1.0791016
		H34.1875v0.9384766h-1.4423828V19h-1.1484375v-5.8691406H30.671875z"/>
	<path fill="#CCCCCC" d="M35.5439453,15.6103516c0-2.2832031,1.4853516-3.5859375,3.1523438-3.5859375
		s3.1513672,1.3027344,3.1513672,3.5859375c0,2.2548828-1.484375,3.5576172-3.1513672,3.5576172
		S35.5439453,17.8652344,35.5439453,15.6103516z M40.6572266,15.6103516c0-1.5693359-0.7841797-2.6337891-1.9609375-2.6337891
		c-1.1630859,0-1.9609375,1.0644531-1.9609375,2.6337891c0,1.5546875,0.7978516,2.6054688,1.9609375,2.6054688
		C39.8730469,18.2158203,40.6572266,17.1650391,40.6572266,15.6103516z"/>
</g>
<circle fill="#CCCCCC" cx="72.8000031" cy="8.1999998" r="1.35"/>
<line fill="none" stroke="#CCCCCC" stroke-width="1.4" stroke-miterlimit="10" x1="77.2718735" y1="19.7841797" x2="68.7281265" y2="19.7841797"/>
<polyline fill="none" stroke="#CCCCCC" stroke-width="1.4" stroke-miterlimit="10" points="69.1281281,12.5404301 
	73.0999985,12.5404301 73.0999985,19.7841797 "/>
</svg>
