<svg xmlns="http://www.w3.org/2000/svg" width="36" height="36" viewBox="0 0 36 36"><title>Menu_Info_Active_S</title><rect x="0.5" y="0.5" width="35" height="35" rx="3.5" ry="3.5" fill="gray"/><path d="M32,1a3.00342,3.00342,0,0,1,3,3V32a3.00342,3.00342,0,0,1-3,3H4a3.00342,3.00342,0,0,1-3-3V4A3.00342,3.00342,0,0,1,4,1H32m0-1H4A4,4,0,0,0,0,4V32a4,4,0,0,0,4,4H32a4.01179,4.01179,0,0,0,4-4V4a4.01179,4.01179,0,0,0-4-4Z" fill="#999"/><circle cx="19" cy="9" r="2" fill="#e6e6e6"/><line x1="26" y1="26.5" x2="12" y2="26.5" fill="none" stroke="#e6e6e6" stroke-miterlimit="10" stroke-width="3"/><polyline points="13 15.5 19.5 15.5 19.5 26.5" fill="none" stroke="#e6e6e6" stroke-miterlimit="10" stroke-width="3"/></svg>