<svg xmlns="http://www.w3.org/2000/svg" width="36" height="36" viewBox="0 0 36 36"><title>Menu_Search_Disabled_S</title><rect x="0.5" y="0.5" width="35" height="35" rx="3.5" ry="3.5" fill="#333"/><path d="M32,1a3.00337,3.00337,0,0,1,3,3V32a3.00337,3.00337,0,0,1-3,3H4a3.00337,3.00337,0,0,1-3-3V4A3.00337,3.00337,0,0,1,4,1H32m0-1H4A4,4,0,0,0,0,4V32a4,4,0,0,0,4,4H32a4.01175,4.01175,0,0,0,4-4V4a4.01175,4.01175,0,0,0-4-4Z"/><circle cx="16" cy="17" r="7.5" fill="none" stroke="#000" stroke-miterlimit="10" stroke-width="2.5"/><path d="M24.66827,28.21368l-4.30311-5.50315,1.34537-1.34537,5.50315,4.30311a1.20006,1.20006,0,0,1,0,1.69712l-.84829.84829a1.20006,1.20006,0,0,1-1.69712,0Z"/></svg>