<svg xmlns="http://www.w3.org/2000/svg" width="36" height="36" viewBox="0 0 36 36"><title>Menu_Bank_Active_S</title><rect x="0.25" y="0.5" width="35" height="35" rx="1.5" ry="1.5" fill="gray"/><path d="M33.75,1a1.00114,1.00114,0,0,1,1,1V34a1.00114,1.00114,0,0,1-1,1h-32a1.00114,1.00114,0,0,1-1-1V2a1.00114,1.00114,0,0,1,1-1h32m0-1h-32a2.00589,2.00589,0,0,0-2,2V34a2.00589,2.00589,0,0,0,2,2h32a2.00589,2.00589,0,0,0,2-2V2a2.00589,2.00589,0,0,0-2-2Z" fill="#999"/><line x1="27.25" y1="13" x2="12.25" y2="13" fill="none" stroke="#e6e6e6" stroke-miterlimit="10" stroke-width="2"/><line x1="27.25" y1="8" x2="12.25" y2="8" fill="none" stroke="#e6e6e6" stroke-miterlimit="10" stroke-width="2"/><line x1="27.25" y1="18" x2="12.25" y2="18" fill="none" stroke="#e6e6e6" stroke-miterlimit="10" stroke-width="2"/><path d="M6.98047,30.75V15.16992h5.25c4.7832,0,5.78711,2.293,5.78711,4.21582a4.15781,4.15781,0,0,1-1.16895,2.94531A3.92428,3.92428,0,0,1,18.75,25.86621c0,3.0127-2.3584,4.88379-6.1543,4.88379Zm5.35742-3.43848c2.47949,0,2.47949-1.14257,2.47949-1.57324,0-.44922,0-1.38281-2.47949-1.38281H10.97754v2.95605Zm-.32324-6.3291c2.04883,0,2.04883-.89355,2.04883-1.22949,0-.4834,0-1.14551-2.00586-1.14551H10.97754v2.375Z" fill="#e6e6e6"/><path d="M12.23047,15.92017c2.90637,0,5.03735.88276,5.03735,3.46566a3.1714,3.1714,0,0,1-1.95935,3.057v.08641A3.21614,3.21614,0,0,1,18,25.86643C18,28.68753,15.69617,30,12.596,30H7.73035V15.92017h4.50012m-2.00256,5.81269h1.78662c1.95935,0,2.79882-.77534,2.79882-1.98038,0-1.37785-.9259-1.89513-2.75561-1.89513H10.22791v3.87551m0,6.3288h2.11c2.0669,0,3.22986-.752,3.22986-2.32368,0-1.48645-1.11987-2.13217-3.22986-2.13217h-2.11v4.45585m2.00256-13.64149H6.23035V31.5H12.596C16.85449,31.5,19.5,29.34135,19.5,25.86643a4.76512,4.76512,0,0,0-1.57275-3.67136,5.01613,5.01613,0,0,0,.84057-2.80924c0-4.48181-4.57178-4.96566-6.53735-4.96566Zm-.50256,4.93718h.32983a2.50859,2.50859,0,0,1,1.24206.18568c-.00341.00857.01355.07513.01355.20945,0,.15592,0,.48038-1.29882.48038h-.28662v-.87551Zm0,5.74846h.61c1.72986,0,1.72986.39573,1.72986.63217,0,.30807,0,.82368-1.72986.82368h-.61V25.10581Z" fill="gray"/></svg>