<svg xmlns="http://www.w3.org/2000/svg" width="36" height="36" viewBox="0 0 36 36"><title>Menu_Preset_Active_S</title><rect x="0.5" y="0.5" width="35" height="35" rx="3.5" ry="3.5" fill="gray"/><path d="M32,1a3.00342,3.00342,0,0,1,3,3V32a3.00342,3.00342,0,0,1-3,3H4a3.00342,3.00342,0,0,1-3-3V4A3.00342,3.00342,0,0,1,4,1H32m0-1H4A4.01179,4.01179,0,0,0,0,4V32a4.01179,4.01179,0,0,0,4,4H32a4.01179,4.01179,0,0,0,4-4V4a4.01179,4.01179,0,0,0-4-4Z" fill="#999"/><line x1="26" y1="13" x2="13" y2="13" fill="none" stroke="#e6e6e6" stroke-miterlimit="10" stroke-width="2"/><line x1="26" y1="8" x2="13" y2="8" fill="none" stroke="#e6e6e6" stroke-miterlimit="10" stroke-width="2"/><line x1="26" y1="18" x2="13" y2="18" fill="none" stroke="#e6e6e6" stroke-miterlimit="10" stroke-width="2"/><path d="M7.25,30.75V15.25h5.45117c3.93067,0,6.18555,1.89941,6.18555,5.21094,0,3.251-2.42774,5.35156-6.18555,5.35156H11.542V30.75Zm4.89258-8.583c2.04394,0,2.32617-.88574,2.32617-1.84277,0-.90137-.15625-1.44922-2.32617-1.44922H11.542v3.292Z" fill="#e6e6e6"/><path d="M12.70081,16c3.05566,0,5.4364,1.2081,5.4364,4.46127,0,3.10429-2.44458,4.60123-5.4364,4.60123H10.79163V30H8V16h4.70081m-1.90918,6.91666h1.35058c2.09363,0,3.07654-.88047,3.07654-2.59259,0-1.75523-1.04675-2.19907-3.07654-2.19907H10.79163v4.79166M12.70081,14.5H6.5v17h5.79163V26.5625h.40918c4.14892,0,6.9364-2.4519,6.9364-6.10123,0-3.73276-2.593-5.96127-6.9364-5.96127Zm-.40918,6.91505V19.626c1.1416.01547,1.34838.20669,1.35693.21515h0a1.02179,1.02179,0,0,1,.07019.48293c0,.56713,0,1.05944-1.42712,1.091Z" fill="gray"/></svg>