<?xml version="1.0" encoding="utf-8"?>
<!-- Generator: Adobe Illustrator 19.2.1, SVG Export Plug-In . SVG Version: 6.00 Build 0)  -->
<svg version="1.1" id="Layer_1" xmlns="http://www.w3.org/2000/svg" xmlns:xlink="http://www.w3.org/1999/xlink" x="0px" y="0px"
	 viewBox="0 0 28 28" enable-background="new 0 0 28 28" xml:space="preserve">
<g>
	<path fill="#4D4D4D" d="M24,27H4c-1.6500001,0-3-1.3500004-3-3V4c0-1.6500001,1.3499999-3,3-3h20c1.6499996,0,3,1.3499999,3,3v20
		C27,25.6499996,25.6499996,27,24,27z"/>
	<path fill="#666666" d="M24,1c1.6500244,0,3,1.3499985,3,3v20c0,1.6500015-1.3499756,3-3,3H4c-1.6500244,0-3-1.3499985-3-3V4
		c0-1.6500015,1.3499756-3,3-3H24 M24,0H4C1.7944336,0,0,1.7943916,0,4v20c0,2.2056122,1.7944336,4,4,4h20
		c2.2055664,0,4-1.7943878,4-4V4C28,1.7943916,26.2055664,0,24,0L24,0z"/>
</g>
<g>
	
		<line fill="#B3B3B3" stroke="#999999" stroke-width="1.7" stroke-miterlimit="10" x1="21.8925781" y1="10" x2="10.8925781" y2="10"/>
	<line fill="#B3B3B3" stroke="#999999" stroke-width="1.7" stroke-miterlimit="10" x1="21.8925781" y1="6" x2="10.8925781" y2="6"/>
	
		<line fill="#B3B3B3" stroke="#999999" stroke-width="1.7" stroke-miterlimit="10" x1="21.8925781" y1="14" x2="10.8925781" y2="14"/>
</g>
<g>
	<g>
		<path fill="#CCCCCC" d="M5.5,23.9130859v-11.46875h4.0214844c3.6943359,0,4.4697266,2.0302734,4.4697266,3.7333984
			c0,2.4013672-1.7128906,3.8935547-4.4697266,3.8935547H8.3564453v3.8417969H5.5z M9.3613281,17.5830078
			c1.5859375,0,1.8046875-0.6757812,1.8046875-1.4052734c0-0.8066406-0.2880859-1.2441406-1.8046875-1.2441406H8.3564453v2.6494141
			H9.3613281z"/>
		<path fill="#4D4D4D" d="M9.5214844,12.944149c2.2890625,0,3.9697266,0.8007889,3.9697266,3.2333984
			c0,2.3212891-1.7285156,3.3935585-3.9697266,3.3935585H7.8564453v3.8417931H6v-10.46875H9.5214844 M7.8564453,18.0828285
			h1.5048828c1.5683594,0,2.3046875-0.625,2.3046875-1.9052811c0-1.3125-0.7841797-1.7441406-2.3046875-1.7441406H7.8564453
			V18.0828285 M9.5214844,11.944149H6H5v1v10.46875v0.9999962h1h1.8564453h1V23.412899V20.571106h0.6650391
			c3.019043,0,4.9697266-1.7245674,4.9697266-4.3935585C14.4912109,14.596508,13.8455811,11.944149,9.5214844,11.944149
			L9.5214844,11.944149z M8.8564453,15.4334068h0.5048828c1.3046875,0,1.3046875,0.2801018,1.3046875,0.7441406
			c0,0.4655495,0,0.9052811-1.3046875,0.9052811H8.8564453V15.4334068L8.8564453,15.4334068z"/>
	</g>
</g>
</svg>
