<svg xmlns="http://www.w3.org/2000/svg" width="114" height="36" viewBox="0 0 114 36"><title>Menu_Preset_Enabled_L</title><path d="M78.5,35.5V.5H112A1.50164,1.50164,0,0,1,113.5,2V34a1.50164,1.50164,0,0,1-1.5,1.5Z" fill="#4d4d4d"/><path d="M112,1a1.00114,1.00114,0,0,1,1,1V34a1.00114,1.00114,0,0,1-1,1H79V1h33m0-1H78V36h34a2,2,0,0,0,2-2V2a2,2,0,0,0-2-2Z" fill="#666"/><line x1="103.5" y1="18" x2="88.5" y2="18" fill="none" stroke="#ccc" stroke-miterlimit="10" stroke-width="2"/><line x1="103.5" y1="13" x2="88.5" y2="13" fill="none" stroke="#ccc" stroke-miterlimit="10" stroke-width="2"/><line x1="103.5" y1="23" x2="88.5" y2="23" fill="none" stroke="#ccc" stroke-miterlimit="10" stroke-width="2"/><path d="M2,35.5A1.50164,1.50164,0,0,1,.5,34V2A1.50164,1.50164,0,0,1,2,.5H78.5v35Z" fill="#4d4d4d"/><path d="M78,1V35H2a1.00114,1.00114,0,0,1-1-1V2A1.00114,1.00114,0,0,1,2,1H78m1-1H2A2,2,0,0,0,0,2V34a2,2,0,0,0,2,2H79V0Z" fill="#666"/><path d="M17.78516,12.78711c2.61132,0,4.55566.90039,4.55566,3.63672,0,2.61133-1.94434,3.81738-4.4834,3.81738H16.165V24.5625H14.07617V12.78711Zm2.50293,3.63672c0-1.47656-.918-1.96289-2.665-1.96289H16.165v4.10547h1.53027C19.44238,18.56641,20.28809,17.86426,20.28809,16.42383Z" fill="#ccc"/><path d="M26.98242,15.72168l.14453,1.56641h.07227a3.00242,3.00242,0,0,1,2.502-1.78223,2.25114,2.25114,0,0,1,1.00879.17969l-.36035,1.80078a2.89127,2.89127,0,0,0-.918-.14453c-.70215,0-1.54883.48632-2.08887,1.81933V24.5625H25.27246V15.72168Z" fill="#ccc"/><path d="M32.12988,20.15137c0-2.88086,1.998-4.64551,4.06934-4.64551,2.39453,0,3.65527,1.72852,3.65527,4.19531a4.76105,4.76105,0,0,1-.09082,1.00781H34.14648a2.53029,2.53029,0,0,0,2.61036,2.4668,3.69346,3.69346,0,0,0,2.05273-.64844l.70215,1.29688a5.572,5.572,0,0,1-3.02442.9541A4.26231,4.26231,0,0,1,32.12988,20.15137Zm4.123-3.043a2.22129,2.22129,0,0,0-2.125,2.19629h3.92578C38.05371,17.93652,37.459,17.1084,36.25293,17.1084Z" fill="#ccc"/><path d="M41.84961,23.55469l.97266-1.333a3.9337,3.9337,0,0,0,2.44921.99023c.95411,0,1.4043-.45019,1.4043-1.06152,0-.73828-.95508-1.0625-1.89062-1.42285-1.1709-.43262-2.48536-1.09863-2.48536-2.5752,0-1.54882,1.24317-2.64648,3.22364-2.64648a4.77007,4.77007,0,0,1,2.93457,1.0625l-.9541,1.25976a3.29683,3.29683,0,0,0-1.94434-.75585c-.88281,0-1.29687.41406-1.29687.97265,0,.70117.88183.97168,1.83691,1.31446,1.20605.44921,2.53809,1.02539,2.53809,2.68261,0,1.5127-1.20606,2.73633-3.43848,2.73633A5.60521,5.60521,0,0,1,41.84961,23.55469Z" fill="#ccc"/><path d="M50.81348,20.15137c0-2.88086,1.998-4.64551,4.06933-4.64551,2.39453,0,3.65528,1.72852,3.65528,4.19531a4.76172,4.76172,0,0,1-.09082,1.00781H52.83008a2.53028,2.53028,0,0,0,2.61035,2.4668,3.69341,3.69341,0,0,0,2.05273-.64844l.70215,1.29688a5.572,5.572,0,0,1-3.02441.9541A4.2623,4.2623,0,0,1,50.81348,20.15137Zm4.123-3.043a2.22131,2.22131,0,0,0-2.125,2.19629H56.7373C56.7373,17.93652,56.14258,17.1084,54.93652,17.1084Z" fill="#ccc"/><path d="M61.541,21.57422V17.36035H60.28125V15.8125l1.36816-.09082.252-2.41309h1.72851v2.41309h2.251v1.63867h-2.251v4.21387c0,1.04394.39649,1.54785,1.24219,1.54785a2.53228,2.53228,0,0,0,.919-.19824l.35937,1.53125a5.64308,5.64308,0,0,1-1.7998.32324C62.29785,24.77832,61.541,23.48242,61.541,21.57422Z" fill="#ccc"/></svg>