<?xml version="1.0" encoding="utf-8"?>
<!-- Generator: Adobe Illustrator 19.2.1, SVG Export Plug-In . SVG Version: 6.00 Build 0)  -->
<svg version="1.1" id="Layer_1" xmlns="http://www.w3.org/2000/svg" xmlns:xlink="http://www.w3.org/1999/xlink" x="0px" y="0px"
	 viewBox="0 0 87 28" enable-background="new 0 0 87 28" xml:space="preserve">
<g>
	<path fill="#333333" d="M59,27H4c-1.6500001,0-3-1.3500004-3-3V4c0-1.6500001,1.3499999-3,3-3h55V27z"/>
	<path d="M59,1v26H4c-1.6500244,0-3-1.3500004-3-3V4c0-1.6500001,1.3499756-3,3-3H59 M60,0h-1H4C1.7944336,0,0,1.79439,0,4v20
		c0,2.2056103,1.7944336,4,4,4h55h1v-1V1V0L60,0z"/>
</g>
<g>
	<path fill="#333333" d="M83,27H60V1h23c1.6500015,0,3,1.3499999,3,3v20C86,25.6499996,84.6500015,27,83,27z"/>
	<path d="M83,1c1.6500244,0,3,1.3499999,3,3v20c0,1.6499996-1.3499756,3-3,3H60V1H83 M83,0H60h-1v1v26v1h1h23
		c2.2055664,0,4-1.7943897,4-4V4C87,1.79439,85.2055664,0,83,0L83,0z"/>
</g>
<g>
	<path d="M13.6357422,9.8110352c2.0585938,0,3.4453125,0.6865234,3.4453125,2.7036133
		c0,1.9331055-1.3720703,2.8432617-3.3896484,2.8432617h-1.5126953V19h-1.1621094V9.8110352H13.6357422z M15.9189453,12.5146484
		c0-1.3310547-0.8125-1.7651367-2.4238281-1.7651367h-1.3164062v3.6557617h1.3730469
		C15.1484375,14.4052734,15.9189453,13.8173828,15.9189453,12.5146484z"/>
	<path d="M20.4804688,12.1923828l0.0986328,1.2324219h0.0419922c0.4619141-0.8544922,1.1621094-1.4003906,1.9326172-1.4003906
		c0.2939453,0,0.5039062,0.0419922,0.7285156,0.1396484l-0.2246094,1.0087891
		c-0.2236328-0.0698242-0.3779297-0.1123047-0.6582031-0.1123047c-0.5742188,0-1.2607422,0.4204102-1.7226562,1.5693359V19
		h-1.1484375v-6.8076172H20.4804688z"/>
	<path d="M24.4414062,15.6103516c0-2.2275391,1.4990234-3.5859375,3.0537109-3.5859375
		c1.7373047,0,2.7177734,1.246582,2.7177734,3.1933594c0,0.2382812-0.0136719,0.4902344-0.0419922,0.6586914h-4.5947266
		c0.0839844,1.4428711,0.9667969,2.3676758,2.2695312,2.3676758c0.6445312,0,1.1904297-0.2109375,1.6953125-0.5327148
		l0.4052734,0.7563477c-0.5878906,0.3779297-1.3164062,0.7001953-2.2402344,0.7001953
		C25.8847656,19.1679688,24.4414062,17.8374023,24.4414062,15.6103516z M27.5234375,12.9345703
		c-0.9521484,0-1.8212891,0.7705078-1.9609375,2.1152344h3.6416016
		C29.2041016,13.6772461,28.5878906,12.9345703,27.5234375,12.9345703z"/>
	<path d="M31.8330078,18.2294922l0.5742188-0.7705078c0.5888672,0.4765625,1.1914062,0.8125,2.0029297,0.8125
		c0.8964844,0,1.3447266-0.4760742,1.3447266-1.0644531c0-0.7001953-0.8115234-1.0087891-1.5546875-1.2885742
		c-0.9658203-0.3500977-2.03125-0.8125-2.03125-1.9614258c0-1.0922852,0.8691406-1.9326172,2.3398438-1.9326172
		c0.8544922,0,1.5966797,0.3500977,2.1152344,0.7700195l-0.546875,0.7285156
		c-0.4619141-0.3500977-0.9521484-0.6020508-1.5546875-0.6020508c-0.8544922,0-1.2460938,0.4619141-1.2460938,0.9804688
		c0,0.644043,0.7421875,0.8823242,1.5126953,1.1767578c0.9804688,0.3637695,2.0732422,0.7700195,2.0732422,2.059082
		c0,1.1069336-0.8828125,2.0307617-2.4941406,2.0307617C33.4023438,19.1679688,32.4775391,18.7617188,31.8330078,18.2294922z"/>
	<path d="M38.6513672,15.6103516c0-2.2275391,1.4990234-3.5859375,3.0537109-3.5859375
		c1.7373047,0,2.7177734,1.246582,2.7177734,3.1933594c0,0.2382812-0.0136719,0.4902344-0.0419922,0.6586914h-4.5947266
		c0.0839844,1.4428711,0.9667969,2.3676758,2.2695312,2.3676758c0.6445312,0,1.1904297-0.2109375,1.6953125-0.5327148
		l0.40625,0.7563477c-0.5888672,0.3779297-1.3173828,0.7001953-2.2421875,0.7001953
		C40.0947266,19.1679688,38.6513672,17.8374023,38.6513672,15.6103516z M41.7333984,12.9345703
		c-0.9521484,0-1.8212891,0.7705078-1.9609375,2.1152344h3.6416016
		C43.4140625,13.6772461,42.7978516,12.9345703,41.7333984,12.9345703z"/>
	<path d="M46.8564453,16.8989258v-3.7680664h-1.0087891V12.262207l1.0644531-0.0698242l0.1396484-1.9052734h0.9667969v1.9052734
		h1.8349609v0.9384766h-1.8349609v3.7822266c0,0.840332,0.2666016,1.3164062,1.0507812,1.3164062
		c0.2382812,0,0.5458984-0.0986328,0.7705078-0.1826172l0.2236328,0.8691406
		c-0.3779297,0.1259766-0.8398438,0.2519531-1.2607422,0.2519531
		C47.3466797,19.1679688,46.8564453,18.2441406,46.8564453,16.8989258z"/>
</g>
<g>
	<line fill="none" stroke="#000000" stroke-width="1.7" stroke-miterlimit="10" x1="79" y1="14" x2="67" y2="14"/>
	<line fill="none" stroke="#000000" stroke-width="1.7" stroke-miterlimit="10" x1="79" y1="10" x2="67" y2="10"/>
	<line fill="none" stroke="#000000" stroke-width="1.7" stroke-miterlimit="10" x1="79" y1="18" x2="67" y2="18"/>
</g>
</svg>
