<svg xmlns="http://www.w3.org/2000/svg" width="36" height="36" viewBox="0 0 36 36"><title>Menu_Preset_Disabled_S</title><rect x="0.5" y="0.5" width="35" height="35" rx="1.5" ry="1.5" fill="#333"/><path d="M34,1a1.00114,1.00114,0,0,1,1,1V34a1.00114,1.00114,0,0,1-1,1H2a1.00114,1.00114,0,0,1-1-1V2A1.00114,1.00114,0,0,1,2,1H34m0-1H2A2.00589,2.00589,0,0,0,0,2V34a2.00589,2.00589,0,0,0,2,2H34a2.00589,2.00589,0,0,0,2-2V2a2.00589,2.00589,0,0,0-2-2Z"/><line x1="27.5" y1="13" x2="12.5" y2="13" fill="none" stroke="#000" stroke-miterlimit="10" stroke-width="2"/><line x1="27.5" y1="8" x2="12.5" y2="8" fill="none" stroke="#000" stroke-miterlimit="10" stroke-width="2"/><line x1="27.5" y1="18" x2="12.5" y2="18" fill="none" stroke="#000" stroke-miterlimit="10" stroke-width="2"/><path d="M7.25,30.75V15.25h5.45117c4.999,0,6.04883,2.75977,6.04883,5.07422,0,3.26172-2.31738,5.28808-6.04883,5.28808H11.22852V30.75Zm5.2373-8.62793c1.93067,0,2.32618-.71875,2.32618-1.79785,0-.89649-.1709-1.583-2.32618-1.583H11.22852v3.38086Z"/><path d="M12.70081,16C15.75647,16,18,17.0709,18,20.32407c0,3.10429-2.30737,4.53824-5.29919,4.53824H10.47815V30H8V16h4.70081m-2.22266,6.872h2.00891c2.09363,0,3.07654-.83582,3.07654-2.54794,0-1.75523-1.04688-2.33247-3.07654-2.33247H10.47815V22.872M12.70081,14.5H6.5v17h5.47815V26.36231h.72266c4.13037,0,6.79919-2.37015,6.79919-6.03824C19.5,18.149,18.6167,14.5,12.70081,14.5Zm-.72266,4.9916h.50891c1.57654,0,1.57654.26088,1.57654.83247,0,.58549,0,1.04794-1.57654,1.04794h-.50891V19.4916Z" fill="#333"/></svg>