<svg xmlns="http://www.w3.org/2000/svg" width="36" height="36" viewBox="0 0 36 36"><title>Menu_A_Enabled</title><rect x="0.5" y="0.5" width="35" height="35" rx="1.5" ry="1.5" fill="#4d4d4d"/><path d="M34,1a1.00114,1.00114,0,0,1,1,1V34a1.00114,1.00114,0,0,1-1,1H2a1.00114,1.00114,0,0,1-1-1V2A1.00114,1.00114,0,0,1,2,1H34m0-1H2A2,2,0,0,0,0,2V34a2,2,0,0,0,2,2H34a2,2,0,0,0,2-2V2a2,2,0,0,0-2-2Z" fill="#666"/><line x1="25.5" y1="18" x2="10.5" y2="18" fill="none" stroke="#ccc" stroke-miterlimit="10" stroke-width="2"/><line x1="25.5" y1="13" x2="10.5" y2="13" fill="none" stroke="#ccc" stroke-miterlimit="10" stroke-width="2"/><line x1="25.5" y1="23" x2="10.5" y2="23" fill="none" stroke="#ccc" stroke-miterlimit="10" stroke-width="2"/></svg>