<?xml version="1.0" encoding="utf-8"?>
<!-- Generator: Adobe Illustrator 19.2.1, SVG Export Plug-In . SVG Version: 6.00 Build 0)  -->
<svg version="1.1" id="Layer_1" xmlns="http://www.w3.org/2000/svg" xmlns:xlink="http://www.w3.org/1999/xlink" x="0px" y="0px"
	 viewBox="0 0 28 28" enable-background="new 0 0 28 28" xml:space="preserve">
<g>
	<path fill="#333333" d="M24,27H4c-1.6500001,0-3-1.3500004-3-3V4c0-1.6500001,1.3499999-3,3-3h20c1.6499996,0,3,1.3499999,3,3v20
		C27,25.6499996,25.6499996,27,24,27z"/>
	<path d="M24,1c1.6500244,0,3,1.3499999,3,3v20c0,1.6499996-1.3499756,3-3,3H4c-1.6500244,0-3-1.3500004-3-3V4
		c0-1.6500001,1.3499756-3,3-3H24 M24,0H4C1.7944336,0,0,1.79439,0,4v20c0,2.2056103,1.7944336,4,4,4h20
		c2.2055664,0,4-1.7943897,4-4V4C28,1.79439,26.2055664,0,24,0L24,0z"/>
</g>
<g>
	
		<line fill="#CCCCCC" stroke="#000000" stroke-width="1.7" stroke-miterlimit="10" x1="22.4667969" y1="10" x2="11.4667969" y2="10"/>
	<line fill="#CCCCCC" stroke="#000000" stroke-width="1.7" stroke-miterlimit="10" x1="22.4667969" y1="6" x2="11.4667969" y2="6"/>
	
		<line fill="#CCCCCC" stroke="#000000" stroke-width="1.7" stroke-miterlimit="10" x1="22.4667969" y1="14" x2="11.4667969" y2="14"/>
</g>
<g>
	<g>
		<path d="M6.1494141,23.9121094V12.4448242h3.8457031c3.4960938,0,4.2294922,1.6733398,4.2294922,3.0771484
			c0,0.9116211-0.3769531,1.6889648-1.0322266,2.2050781c1.0351562,0.4995117,1.5917969,1.3979492,1.5917969,2.6118164
			c0,2.2041016-1.7314453,3.5732422-4.5175781,3.5732422H6.1494141z M10.0751953,21.4716797
			c1.8847656,0,1.8847656-0.9160156,1.8847656-1.2607422c0-0.3291016,0-1.1005859-1.8847656-1.1005859H9.0058594v2.3613281
			H10.0751953z M9.8183594,16.7827148c1.5810547,0,1.5810547-0.6748047,1.5810547-1.0371094
			c0-0.3217773,0-0.8603516-1.5322266-0.8603516H9.0058594v1.8974609H9.8183594z"/>
		<path fill="#333333" d="M9.9951172,12.9446383c2.1445312,0,3.7294922,0.65625,3.7294922,2.5771494
			c0,0.9921894-0.5605469,1.9521503-1.7929688,2.2724609v0.0644588c1.5048828,0.2558613,2.3525391,1.0722599,2.3525391,2.4804611
			c0,2.0966797-1.7119141,3.0732498-4.0175781,3.0732498H6.6494141V12.9446383H9.9951172 M8.5058594,17.2825279h1.3125
			c1.4726562,0,2.0810547-0.5605392,2.0810547-1.5371103c0-0.95996-0.671875-1.3603497-2.0322266-1.3603497H8.5058594V17.2825279
			 M8.5058594,21.9719887h1.5693359c1.5361328,0,2.3847656-0.57617,2.3847656-1.7607517
			c0-1.0878887-0.8320312-1.6005783-2.3847656-1.6005783H8.5058594V21.9719887 M9.9951172,11.9446383H6.6494141h-1v1v10.4677801v1h1
			h3.6171875c3.0949707,0,5.0175781-1.5607815,5.0175781-4.0732498c0-1.1632004-0.4544678-2.0931873-1.2907715-2.7107048
			c0.467041-0.5717278,0.7312012-1.3000431,0.7312012-2.1066761C14.7246094,14.1858377,14.1102295,11.9446383,9.9951172,11.9446383
			L9.9951172,11.9446383z M9.5058594,15.3850679h0.3613281c1.0322266,0,1.0322266,0.1997995,1.0322266,0.3603497
			c0,0.2517605,0,0.5371103-1.0810547,0.5371103h-0.3125V15.3850679L9.5058594,15.3850679z M9.5058594,19.6106586h0.5693359
			c1.3847656,0,1.3847656,0.4056396,1.3847656,0.6005783c0,0.2845306,0,0.7607517-1.3847656,0.7607517H9.5058594V19.6106586
			L9.5058594,19.6106586z"/>
	</g>
</g>
</svg>
