<svg xmlns="http://www.w3.org/2000/svg" width="114" height="36" viewBox="0 0 114 36"><title>Menu_Bank_Disabled_L</title><path d="M78.5,35.5V.5H112A1.50164,1.50164,0,0,1,113.5,2V34a1.50164,1.50164,0,0,1-1.5,1.5Z" fill="#333"/><path d="M112,1a1.00114,1.00114,0,0,1,1,1V34a1.00114,1.00114,0,0,1-1,1H79V1h33m0-1H78V36h34a2.00589,2.00589,0,0,0,2-2V2a2.00589,2.00589,0,0,0-2-2Z"/><line x1="103.5" y1="18" x2="88.5" y2="18" fill="none" stroke="#000" stroke-miterlimit="10" stroke-width="2"/><line x1="103.5" y1="13" x2="88.5" y2="13" fill="none" stroke="#000" stroke-miterlimit="10" stroke-width="2"/><line x1="103.5" y1="23" x2="88.5" y2="23" fill="none" stroke="#000" stroke-miterlimit="10" stroke-width="2"/><path d="M2,35.5A1.50164,1.50164,0,0,1,.5,34V2A1.50164,1.50164,0,0,1,2,.5H78.5v35Z" fill="#333"/><path d="M78,1V35H2a1.00114,1.00114,0,0,1-1-1V2A1.00114,1.00114,0,0,1,2,1H78m1-1H2A2,2,0,0,0,0,2V34a2,2,0,0,0,2,2H79V0Z"/><path d="M23.65332,12.78711c2.43066,0,4.21289.73828,4.21289,2.89941a2.652,2.652,0,0,1-1.63867,2.55567v.07226a2.68973,2.68973,0,0,1,2.251,2.791c0,2.3584-1.92676,3.457-4.51954,3.457H19.88965V12.78711Zm2.16016,3.20508c0-1.15235-.77442-1.585-2.30469-1.585H21.97852v3.24121h1.49414C25.11133,17.64844,25.81348,17,25.81348,15.99219Zm.63086,5.00488c0-1.24219-.93653-1.78223-2.70118-1.78223H21.97852v3.72754h1.76464C25.47168,22.94238,26.44434,22.31152,26.44434,20.99707Z"/><path d="M30.8877,22.18555c0-1.89063,1.5664-2.88086,5.20312-3.27637-.03613-.93652-.41406-1.72852-1.62012-1.72852a5.03226,5.03226,0,0,0-2.48535.86426l-.75586-1.38672a6.91172,6.91172,0,0,1,3.63672-1.15234c2.19727,0,3.29492,1.35059,3.29492,3.81738V24.5625h-1.71l-.14453-.97266h-.07226a4.299,4.299,0,0,1-2.73633,1.18848A2.47068,2.47068,0,0,1,30.8877,22.18555Zm5.20312,0V20.20508c-2.41309.30664-3.20508.93652-3.20508,1.81836,0,.793.54,1.13476,1.27832,1.13476A2.80976,2.80976,0,0,0,36.09082,22.18555Z"/><path d="M43.25391,15.72168l.14453,1.18848h.07226a4.10481,4.10481,0,0,1,2.89844-1.4043c1.89063,0,2.71875,1.27832,2.71875,3.51074v5.5459H47.01758V19.28711c0-1.459-.41406-1.999-1.38672-1.999a2.79988,2.79988,0,0,0-2.0166,1.09863V24.5625H41.544V15.72168Z"/><path d="M54.55762,11.85059V19.791h.05468l3.27637-4.06934h2.26856l-3.02442,3.60156,3.33106,5.23926h-2.251l-2.26855-3.835-1.38672,1.584v2.251H52.52344V11.85059Z"/></svg>