<svg xmlns="http://www.w3.org/2000/svg" width="80" height="20" viewBox="0 0 80 20"><title>Overwrite_Disabled</title><rect x="0.5" y="0.5" width="79" height="19" rx="2.5" ry="2.5" fill="#333"/><path d="M77,1a2.00228,2.00228,0,0,1,2,2V17a2.00228,2.00228,0,0,1-2,2H3a2.00228,2.00228,0,0,1-2-2V3A2.00228,2.00228,0,0,1,3,1H77m0-1H3A3.00881,3.00881,0,0,0,0,3V17a3.00881,3.00881,0,0,0,3,3H77a3,3,0,0,0,3-3V3a3,3,0,0,0-3-3Z"/><line x1="73.75" y1="10.29167" x2="64.25" y2="10.29167" stroke="#000" stroke-miterlimit="10" stroke-width="1.6"/><line x1="73.75" y1="6.76066" x2="64.25" y2="6.76066" stroke="#000" stroke-miterlimit="10" stroke-width="1.6"/><line x1="73.75" y1="13.82267" x2="64.25" y2="13.82267" stroke="#000" stroke-miterlimit="10" stroke-width="1.6"/><path d="M5.80078,10.11523c0-2.63671,1.47461-4.19921,3.59961-4.19921,2.13672,0,3.61133,1.5625,3.61133,4.19921,0,2.64942-1.47461,4.27442-3.61133,4.27442C7.27539,14.38965,5.80078,12.76465,5.80078,10.11523Zm5.71094,0c0-1.82421-.82422-2.93652-2.11133-2.93652-1.28809,0-2.1123,1.11231-2.1123,2.93652,0,1.83692.82421,3.01172,2.1123,3.01172C10.6875,13.127,11.51172,11.95215,11.51172,10.11523Z"/><path d="M13.88867,8.10352h1.46192L16.3252,11.29c.1621.59961.3496,1.22461.51269,1.84961h.04981c.1748-.625.3496-1.25.52441-1.84961l.97461-3.18652h1.38769L17.6875,14.23926H16.02539Z"/><path d="M20.48828,11.17773A2.98582,2.98582,0,0,1,23.3125,7.95312c1.66211,0,2.53711,1.2002,2.53711,2.91211a3.3678,3.3678,0,0,1-.0625.69922H21.8877a1.75667,1.75667,0,0,0,1.81152,1.71289,2.56376,2.56376,0,0,0,1.4248-.45019l.48731.89941a3.867,3.867,0,0,1-2.09863.66309A2.95875,2.95875,0,0,1,20.48828,11.17773Zm4.11133-.58789c0-.94922-.41211-1.52441-1.25-1.52441A1.54093,1.54093,0,0,0,21.875,10.58984Z"/><path d="M27.35059,8.10352h1.1875l.09961,1.08691h.0498a2.08563,2.08563,0,0,1,1.7373-1.23731,1.56876,1.56876,0,0,1,.7002.125l-.25,1.25a2.0079,2.0079,0,0,0-.6377-.10058c-.4873,0-1.07421.33789-1.44921,1.26269v3.749h-1.4375Z"/><path d="M31.67578,8.10352H33.126l.7373,3.18652c.125.58691.21192,1.16211.32422,1.76172h.0498c.11329-.59961.23829-1.18653.3877-1.76172l.7998-3.18652h1.3125L37.5498,11.29c.14942.58691.27442,1.16211.41211,1.76172h.04981c.1123-.59961.21289-1.17481.32519-1.76172l.73731-3.18652h1.34961l-1.5625,6.13574H37.14941l-.71191-2.86133c-.1377-.5752-.2373-1.1377-.375-1.78711h-.0498c-.11329.64941-.22559,1.22461-.36231,1.79883l-.70019,2.84961H33.30078Z"/><path d="M41.7627,8.10352h1.1875l.0996,1.08691h.04981a2.08563,2.08563,0,0,1,1.7373-1.23731,1.56876,1.56876,0,0,1,.7002.125l-.25,1.25a2.0079,2.0079,0,0,0-.6377-.10058c-.4873,0-1.07421.33789-1.44921,1.26269v3.749H41.7627Z"/><path d="M46.3877,6.21582a.89064.89064,0,1,1,.88671.8125A.82456.82456,0,0,1,46.3877,6.21582Zm.1621,1.8877h1.4375v6.13574H46.5498Z"/><path d="M50.16211,12.165V9.24023h-.875V8.166l.94922-.0625.17578-1.67481h1.19922V8.10352h1.5625V9.24023h-1.5625V12.165c0,.72461.27539,1.07422.8623,1.07422a1.75412,1.75412,0,0,0,.6377-.1377l.25,1.0625a3.92769,3.92769,0,0,1-1.25.22559C50.68652,14.38965,50.16211,13.48926,50.16211,12.165Z"/><path d="M53.9873,11.17773a2.98582,2.98582,0,0,1,2.82422-3.22461c1.66211,0,2.53711,1.2002,2.53711,2.91211a3.3678,3.3678,0,0,1-.0625.69922H55.38672a1.75667,1.75667,0,0,0,1.81152,1.71289,2.5638,2.5638,0,0,0,1.42481-.45019l.4873.89941a3.867,3.867,0,0,1-2.09863.66309A2.95875,2.95875,0,0,1,53.9873,11.17773Zm4.11133-.58789c0-.94922-.41211-1.52441-1.25-1.52441A1.54093,1.54093,0,0,0,55.374,10.58984Z"/></svg>