<svg xmlns="http://www.w3.org/2000/svg" width="90" height="20" viewBox="0 0 90 20"><title>Overwrite_Disabled</title><rect x="0.5" y="0.5" width="89" height="19" rx="2.5" ry="2.5" fill="#333"/><path d="M87,1a2.00228,2.00228,0,0,1,2,2V17a2.00228,2.00228,0,0,1-2,2H3a2.00228,2.00228,0,0,1-2-2V3A2.00228,2.00228,0,0,1,3,1H87m0-1H3A3.00881,3.00881,0,0,0,0,3V17a3.00881,3.00881,0,0,0,3,3H87a3,3,0,0,0,3-3V3a3,3,0,0,0-3-3Z"/><line x1="80.4017" y1="10.29167" x2="70.9017" y2="10.29167" stroke="#000" stroke-miterlimit="10" stroke-width="1.6"/><line x1="80.4017" y1="6.76066" x2="70.9017" y2="6.76066" stroke="#000" stroke-miterlimit="10" stroke-width="1.6"/><line x1="80.4017" y1="13.82267" x2="70.9017" y2="13.82267" stroke="#000" stroke-miterlimit="10" stroke-width="1.6"/><path d="M9.5983,10.11523c0-2.63671,1.47461-4.19921,3.61231-4.19921,2.124,0,3.59863,1.5625,3.59863,4.19921,0,2.64942-1.47461,4.27442-3.59863,4.27442C11.07291,14.38965,9.5983,12.76465,9.5983,10.11523Zm5.72364,0c0-1.82421-.83692-2.93652-2.11133-2.93652-1.28711,0-2.125,1.11231-2.125,2.93652,0,1.83692.83789,3.01172,2.125,3.01172C14.485,13.127,15.32194,11.95215,15.32194,10.11523Z"/><path d="M17.67447,8.10352h1.46192L20.111,11.29c.16211.59961.34961,1.22461.51269,1.84961h.04981c.1748-.625.34961-1.25.52441-1.84961l.97461-3.18652h1.3877L21.4733,14.23926H19.81119Z"/><path d="M27.0983,7.95312c1.66211,0,2.53711,1.2002,2.53711,2.91211a3.11721,3.11721,0,0,1-.0625.67481H25.6735a1.7613,1.7613,0,0,0,1.81152,1.7373,2.5638,2.5638,0,0,0,1.42481-.45019l.4873.89941a3.867,3.867,0,0,1-2.09863.66309,2.95875,2.95875,0,0,1-3.02442-3.21192A2.98582,2.98582,0,0,1,27.0983,7.95312Zm1.28711,2.67481c0-.97461-.41211-1.5625-1.25-1.5625-.72461,0-1.34961.53711-1.47461,1.5625Z"/><path d="M31.13541,8.10352h1.1875l.09961,1.08691h.04981a2.08563,2.08563,0,0,1,1.7373-1.23731,1.56876,1.56876,0,0,1,.7002.125l-.25,1.25a2.0079,2.0079,0,0,0-.6377-.10058c-.4873,0-1.07422.33789-1.44922,1.26269v3.749h-1.4375Z"/><path d="M35.4108,8.10352H36.861L37.5983,11.29c.125.58691.21192,1.16211.32422,1.76172h.04981c.11328-.59961.23828-1.18653.38769-1.76172l.79981-3.18652h1.3125l.8125,3.18652c.14941.58691.27441,1.16211.41211,1.76172h.0498c.1123-.59961.21289-1.17481.3252-1.76172l.7373-3.18652h1.34961l-1.5625,6.13574H40.88444l-.71192-2.86133c-.13769-.5752-.2373-1.1377-.375-1.78711h-.0498c-.11328.64941-.22559,1.22461-.36231,1.79883l-.70019,2.84961H37.0358Z"/><path d="M45.49772,8.10352h1.1875l.09961,1.08691h.0498a2.08564,2.08564,0,0,1,1.73731-1.23731,1.56871,1.56871,0,0,1,.70019.125l-.25,1.25a2.00788,2.00788,0,0,0-.63769-.10058c-.48731,0-1.07422.33789-1.44922,1.26269v3.749h-1.4375Z"/><path d="M50.12272,6.21582a.89064.89064,0,1,1,.88672.8125A.82456.82456,0,0,1,50.12272,6.21582Zm.16211,1.8877h1.4375v6.13574h-1.4375Z"/><path d="M53.89811,9.24023h-.875V8.166l.95019-.0625.17481-1.67481h1.19922V8.10352h1.5625V9.24023h-1.5625V12.165c0,.72461.27539,1.07422.8623,1.07422a1.75412,1.75412,0,0,0,.6377-.1377l.25,1.0625a3.92769,3.92769,0,0,1-1.25.22559c-1.42481,0-1.94922-.90039-1.94922-2.22461Z"/><path d="M60.62272,7.95312c1.66211,0,2.53711,1.2002,2.53711,2.91211a3.11721,3.11721,0,0,1-.0625.67481H59.19791a1.76131,1.76131,0,0,0,1.81153,1.7373,2.56376,2.56376,0,0,0,1.4248-.45019l.4873.89941a3.86694,3.86694,0,0,1-2.09863.66309,2.95875,2.95875,0,0,1-3.02441-3.21192A2.98582,2.98582,0,0,1,60.62272,7.95312Zm1.28711,2.67481c0-.97461-.41211-1.5625-1.25-1.5625-.72461,0-1.34961.53711-1.47461,1.5625Z"/></svg>