<svg xmlns="http://www.w3.org/2000/svg" width="30" height="30" viewBox="0 0 30 30"><title>Preset-Comp-Load_Disabled</title><rect x="0.5" y="0.5" width="29" height="29" rx="2.5" ry="2.5" fill="#333"/><path d="M27,1a2.00228,2.00228,0,0,1,2,2V27a2.00228,2.00228,0,0,1-2,2H3a2.00228,2.00228,0,0,1-2-2V3A2.00228,2.00228,0,0,1,3,1H27m0-1H3A3.00881,3.00881,0,0,0,0,3V27a3.00881,3.00881,0,0,0,3,3H27a3.00881,3.00881,0,0,0,3-3V3a3.00881,3.00881,0,0,0-3-3Z"/><path d="M6.04134,22.70866h8a3,3,0,0,0,3-3v-10" fill="none" stroke="#1a1a1a" stroke-miterlimit="10" stroke-width="2"/><polyline points="22.541 14.209 17.041 8.709 11.541 14.209" fill="none" stroke="#1a1a1a" stroke-miterlimit="10" stroke-width="2"/></svg>