<svg xmlns="http://www.w3.org/2000/svg" width="52" height="32" viewBox="0 0 52 32"><title>Redo_Enabled</title><path d="M.5,31.75V.75H47a4.50491,4.50491,0,0,1,4.5,4.5v22a4.50491,4.50491,0,0,1-4.5,4.5Z" fill="#4d4d4d"/><path d="M47,1.25a4.01175,4.01175,0,0,1,4,4v22a4.01175,4.01175,0,0,1-4,4H1v-30H47m0-1H0v32H47a5.00566,5.00566,0,0,0,5-5v-22a5.00566,5.00566,0,0,0-5-5Z"/><path d="M47,2.25a3.00337,3.00337,0,0,1,3,3v22a3.00337,3.00337,0,0,1-3,3H2v-28H47m0-1H1v30H47a4.01175,4.01175,0,0,0,4-4v-22a4.01175,4.01175,0,0,0-4-4Z" fill="#666"/><path d="M29,21a6.82757,6.82757,0,0,1-4.45833,1.9,5.77072,5.77072,0,0,1-3.97217-1.56949A5.34107,5.34107,0,0,1,19,17.542a4.97451,4.97451,0,0,1,1.47512-3.83589c1.04606-1.046,2.21529-1.66663,4.87754-1.66386L33,12.04205" fill="none" stroke="#ccc" stroke-miterlimit="10" stroke-width="2"/><polyline points="29 8 33 12 29 16" fill="none" stroke="#ccc" stroke-miterlimit="10" stroke-width="2"/></svg>