<svg xmlns="http://www.w3.org/2000/svg" width="38" height="38" viewBox="0 0 38 38"><title>Select_Enabled</title><rect x="0.5" y="0.5" width="37" height="37" rx="3.5" ry="3.5" fill="#4d4d4d"/><path d="M34,1a3.00337,3.00337,0,0,1,3,3V34a3.00337,3.00337,0,0,1-3,3H4a3.00337,3.00337,0,0,1-3-3V4A3.00337,3.00337,0,0,1,4,1H34m0-1H4A4,4,0,0,0,0,4V34a4,4,0,0,0,4,4H34a4,4,0,0,0,4-4V4a4,4,0,0,0-4-4Z" fill="#666"/><path d="M3.33008,21.26953l.81543-1.00488a3.03644,3.03644,0,0,0,2.03906.9414c.88672,0,1.36719-.41992,1.36719-1.06835,0-.6875-.50391-.9043-1.21192-1.22168L5.26074,18.419a2.3774,2.3774,0,0,1-1.583-2.21387,2.4374,2.4374,0,0,1,2.63868-2.3418,3.362,3.362,0,0,1,2.41015,1.05664l-.707.94141a2.4799,2.4799,0,0,0-1.70312-.71289c-.74414,0-1.23536.36914-1.23536.98047,0,.64843.59961.89062,1.24707,1.17089l1.06739.47071a2.31331,2.31331,0,0,1,1.583,2.25195,2.54673,2.54673,0,0,1-2.81836,2.46875A3.94246,3.94246,0,0,1,3.33008,21.26953Z" fill="#ccc"/><path d="M9.99023,19.2207c0-2.03613,1.33106-3.2832,2.71-3.2832,1.59472,0,2.43457,1.22168,2.43457,2.96582a3.599,3.599,0,0,1-.05957.71191H11.333a1.73126,1.73126,0,0,0,1.73926,1.74415,2.36133,2.36133,0,0,0,1.36718-.459l.46778.917a3.569,3.569,0,0,1-2.01465.67383C11.26074,22.49121,9.99023,21.28223,9.99023,19.2207Zm3.94532-.59765c0-.96778-.39551-1.55274-1.19922-1.55274-.69531,0-1.29492.54688-1.415,1.55274Z" fill="#ccc"/><path d="M16.542,20.73535V13.35449H17.9209v7.457c0,.35645.15625.4834.2998.4834a.78522.78522,0,0,0,.21582-.02539l.17969,1.09473a1.78847,1.78847,0,0,1-.73144.12695C16.90137,22.49121,16.542,21.81738,16.542,20.73535Z" fill="#ccc"/><path d="M19.49414,19.2207c0-2.03613,1.33106-3.2832,2.71-3.2832,1.59473,0,2.43457,1.22168,2.43457,2.96582a3.599,3.599,0,0,1-.05957.71191H20.83691a1.73127,1.73127,0,0,0,1.73926,1.74415,2.36134,2.36134,0,0,0,1.36719-.459l.46777.917a3.569,3.569,0,0,1-2.01465.67383C20.76465,22.49121,19.49414,21.28223,19.49414,19.2207Zm3.94531-.59765c0-.96778-.3955-1.55274-1.19922-1.55274-.69531,0-1.29492.54688-1.415,1.55274Z" fill="#ccc"/><path d="M25.66211,19.2207a3.00144,3.00144,0,0,1,2.95019-3.2832,2.45868,2.45868,0,0,1,1.72657.7002l-.67188.9541a1.40311,1.40311,0,0,0-.9834-.458c-.94726,0-1.60644.82715-1.60644,2.08691,0,1.24707.64746,2.07422,1.57129,2.07422a1.90626,1.90626,0,0,0,1.21094-.53418l.56347.9668a2.83977,2.83977,0,0,1-1.91894.76367C26.89648,22.49121,25.66211,21.29492,25.66211,19.2207Z" fill="#ccc"/><path d="M31.75684,20.22656V17.249H30.918V16.1543l.91113-.06348.168-1.70605h1.15137v1.70605h1.499V17.249h-1.499v2.97754c0,.73828.26367,1.09473.82715,1.09473a1.61261,1.61261,0,0,0,.6123-.14063l.23926,1.082a3.57351,3.57351,0,0,1-1.19922.22851C32.26074,22.49121,31.75684,21.5752,31.75684,20.22656Z" fill="#ccc"/></svg>