<svg xmlns="http://www.w3.org/2000/svg" width="23" height="21" viewBox="0 0 23 21"><title>Sound_Tab_Disabled_A</title><rect x="0.5" y="0.5" width="22" height="20" fill="#4d4d4d"/><path d="M22,1V20H1V1H22m1-1H0V21H23V0Z"/><rect x="-1.5" y="12.5" width="14" height="1" transform="translate(18.5 7.5) rotate(90)"/><rect x="4" y="1" width="3" height="13"/><rect x="4.5" y="12.5" width="14" height="1" transform="translate(24.5 1.5) rotate(90)"/><rect x="10" y="1" width="3" height="13"/><rect x="10.5" y="12.5" width="14" height="1" transform="translate(30.5 -4.5) rotate(90)"/><rect x="16" y="1" width="3" height="13"/><rect x="4" y="19" width="1" height="1" fill="#333"/><rect x="6" y="19" width="1" height="1" fill="#333"/><rect x="10" y="19" width="1" height="1" fill="#333"/><rect x="12" y="19" width="1" height="1" fill="#333"/><rect x="16" y="19" width="1" height="1" fill="#333"/><rect x="18" y="19" width="1" height="1" fill="#333"/></svg>