<svg xmlns="http://www.w3.org/2000/svg" width="36" height="34" viewBox="0 0 36 34"><title>Stoe_Disabled</title><rect x="0.5" y="0.5" width="35" height="33" rx="2.5" ry="2.5" fill="#4d4d4d"/><path d="M33,1a2.00228,2.00228,0,0,1,2,2V31a2.00228,2.00228,0,0,1-2,2H3a2.00228,2.00228,0,0,1-2-2V3A2.00228,2.00228,0,0,1,3,1H33m0-1H3A3.00881,3.00881,0,0,0,0,3V31a3.00881,3.00881,0,0,0,3,3H33a3.00881,3.00881,0,0,0,3-3V3a3.00881,3.00881,0,0,0-3-3Z"/><path d="M3.54492,19.60938l.74805-.86915a2.86432,2.86432,0,0,0,1.87012.81348c.81445,0,1.25488-.3623,1.25488-.92383,0-.59375-.46289-.78125-1.11133-1.05566l-.99023-.42969a2.07356,2.07356,0,0,1-1.45215-1.91406,2.18789,2.18789,0,0,1,2.41992-2.02442,3.1809,3.1809,0,0,1,2.21191.91309l-.64941.81445a2.3462,2.3462,0,0,0-1.5625-.61621c-.68164,0-1.13281.31934-1.13281.84668,0,.56153.5498.77051,1.14453,1.0127l.97851.40722a2.01129,2.01129,0,0,1,1.45215,1.94727c0,1.166-.96777,2.13379-2.585,2.13379A3.72812,3.72812,0,0,1,3.54492,19.60938Z"/><path d="M9.68262,17.83789A2.62856,2.62856,0,0,1,12.169,14.999c1.46289,0,2.23339,1.05664,2.23339,2.56348a3.00508,3.00508,0,0,1-.05468.61621H10.915a1.54589,1.54589,0,0,0,1.59473,1.50781,2.2561,2.2561,0,0,0,1.2539-.39648l.42969.792a3.41156,3.41156,0,0,1-1.84863.583A2.60436,2.60436,0,0,1,9.68262,17.83789Zm3.61914-.51758c0-.83593-.36231-1.34179-1.09961-1.34179a1.35659,1.35659,0,0,0-1.29883,1.34179Z"/><path d="M15.72168,19.14746V12.76562H16.9873v6.44727c0,.30859.14258.418.2754.418a.77019.77019,0,0,0,.19726-.02148l.165.94628a1.737,1.737,0,0,1-.6709.10938C16.05176,20.665,15.72168,20.082,15.72168,19.14746Z"/><path d="M18.46094,17.83789A2.62856,2.62856,0,0,1,20.94727,14.999c1.46289,0,2.23339,1.05664,2.23339,2.56348a3.00508,3.00508,0,0,1-.05468.61621H19.69336a1.5459,1.5459,0,0,0,1.59473,1.50781A2.2561,2.2561,0,0,0,22.542,19.29l.42969.792a3.41156,3.41156,0,0,1-1.84863.583A2.60436,2.60436,0,0,1,18.46094,17.83789Zm3.61914-.51758c0-.83593-.36231-1.34179-1.09961-1.34179a1.35659,1.35659,0,0,0-1.29883,1.34179Z"/><path d="M24.14746,17.83789A2.66414,2.66414,0,0,1,26.85352,14.999a2.3265,2.3265,0,0,1,1.584.60547l-.61523.8252a1.32278,1.32278,0,0,0-.90235-.39649c-.86914,0-1.47461.71582-1.47461,1.80469,0,1.07813.59473,1.793,1.44141,1.793a1.80389,1.80389,0,0,0,1.11133-.46191l.5166.83593a2.69376,2.69376,0,0,1-1.75977.66016A2.56978,2.56978,0,0,1,24.14746,17.83789Z"/><path d="M29.76855,18.707V16.13281h-.7705v-.94629l.83691-.05468.15332-1.47461h1.05664v1.47461h1.375v1.001h-1.375V18.707c0,.6377.24219.94629.75879.94629a1.56241,1.56241,0,0,0,.56152-.12109l.21973.93457a3.43215,3.43215,0,0,1-1.10058.19824C30.23047,20.665,29.76855,19.87305,29.76855,18.707Z"/></svg>