<svg xmlns="http://www.w3.org/2000/svg" width="36" height="34" viewBox="0 0 36 34"><title>Stoe_Disabled</title><rect x="0.5" y="0.5" width="35" height="33" rx="2.5" ry="2.5" fill="#4d4d4d"/><path d="M33,1a2.00228,2.00228,0,0,1,2,2V31a2.00228,2.00228,0,0,1-2,2H3a2.00228,2.00228,0,0,1-2-2V3A2.00228,2.00228,0,0,1,3,1H33m0-1H3A3.00881,3.00881,0,0,0,0,3V31a3.00881,3.00881,0,0,0,3,3H33a3.00881,3.00881,0,0,0,3-3V3a3.00881,3.00881,0,0,0-3-3Z"/><text transform="translate(3.29443 20.53321)" font-size="12.5" font-family="SourceSansPro-Semibold, Source Sans Pro" font-weight="700" letter-spacing="0.00398em">S<tspan x="6.8623" y="0" letter-spacing="-0.00602em">t</tspan><tspan x="11.2998" y="0" letter-spacing="0.01em">o</tspan><tspan x="18.28711" y="0" letter-spacing="0.00008em">r</tspan><tspan x="22.9502" y="0" letter-spacing="0.01em">e</tspan></text></svg>