<svg xmlns="http://www.w3.org/2000/svg" width="38" height="38" viewBox="0 0 38 38"><title>Store_Active</title><rect x="0.5" y="0.5" width="37" height="37" rx="3.5" ry="3.5" fill="gray"/><path d="M34,1a3.00339,3.00339,0,0,1,3,3V34a3.00339,3.00339,0,0,1-3,3H4a3.00339,3.00339,0,0,1-3-3V4A3.00339,3.00339,0,0,1,4,1H34m0-1H4A4.01175,4.01175,0,0,0,0,4V34a4.01175,4.01175,0,0,0,4,4H34a4.01175,4.01175,0,0,0,4-4V4a4.01175,4.01175,0,0,0-4-4Z" fill="#999"/><path d="M26,23H15a4.01176,4.01176,0,0,1-4-4V9" fill="none" stroke="#e6e6e6" stroke-miterlimit="10" stroke-width="2"/><polyline points="20.5 29 26.5 23 20.5 17" fill="none" stroke="#e6e6e6" stroke-miterlimit="10" stroke-width="2"/></svg>