<svg xmlns="http://www.w3.org/2000/svg" width="36" height="34" viewBox="0 0 36 34"><title>Store_Active_1</title><rect x="0.5" y="0.50033" width="35" height="33" rx="2.5" ry="2.5" fill="#76839c"/><path d="M33,1a2.00228,2.00228,0,0,1,2,2V31a2.00228,2.00228,0,0,1-2,2H3a2.00228,2.00228,0,0,1-2-2V3A2.00228,2.00228,0,0,1,3,1H33m0-1H3A3.0088,3.0088,0,0,0,0,3V31a3.00879,3.00879,0,0,0,3,3H33a3.00879,3.00879,0,0,0,3-3V3a3.0088,3.0088,0,0,0-3-3Z" fill="#1a1a1a"/><path d="M4.2334,18.74023a2.866,2.866,0,0,0,1.88086.81348c.80273,0,1.2539-.3623,1.2539-.92383,0-.59375-.46191-.78125-1.12207-1.05566l-.97851-.42969a2.05863,2.05863,0,0,1-1.45215-1.91406,2.184,2.184,0,0,1,2.40918-2.02442,3.183,3.183,0,0,1,2.22168.91309l-.66016.81445a2.3212,2.3212,0,0,0-1.56152-.61621c-.68262,0-1.12207.31934-1.12207.84668,0,.56153.5498.77051,1.14355,1.0127l.96875.40722A1.99991,1.99991,0,0,1,8.667,18.53125c0,1.166-.96875,2.13379-2.58594,2.13379a3.70028,3.70028,0,0,1-2.585-1.05566Z" fill="#e6e6e6"/><path d="M12.09863,14.999c1.46289,0,2.2334,1.05664,2.2334,2.56348a2.78172,2.78172,0,0,1-.05469.59473H10.84473a1.55,1.55,0,0,0,1.59472,1.52929A2.2561,2.2561,0,0,0,13.69336,19.29l.42969.792a3.41156,3.41156,0,0,1-1.84864.583A2.60436,2.60436,0,0,1,9.6123,17.83789,2.62857,2.62857,0,0,1,12.09863,14.999Zm1.13282,2.3545c0-.85743-.36231-1.375-1.09961-1.375-.63868,0-1.18848.47265-1.29883,1.375Z" fill="#e6e6e6"/><path d="M15.65039,12.76562H16.916v6.44727c0,.30859.14257.418.27539.418a.77019.77019,0,0,0,.19726-.02148l.165.94628a1.737,1.737,0,0,1-.6709.10938c-.90234,0-1.23242-.583-1.23242-1.51758Z" fill="#e6e6e6"/><path d="M20.876,14.999c1.46289,0,2.2334,1.05664,2.2334,2.56348a2.78237,2.78237,0,0,1-.05469.59473H19.62207a1.55,1.55,0,0,0,1.59473,1.52929A2.25607,2.25607,0,0,0,22.4707,19.29l.42969.792a3.41153,3.41153,0,0,1-1.84863.583,2.60436,2.60436,0,0,1-2.66211-2.82715A2.62856,2.62856,0,0,1,20.876,14.999Zm1.13281,2.3545c0-.85743-.36231-1.375-1.09961-1.375-.63867,0-1.18848.47265-1.29883,1.375Z" fill="#e6e6e6"/><path d="M26.78223,14.999a2.224,2.224,0,0,1,1.584.62793l-.60449.80274a1.34738,1.34738,0,0,0-.91309-.39649c-.86914,0-1.47461.71582-1.47461,1.80469,0,1.07813.59473,1.793,1.44141,1.793a1.78344,1.78344,0,0,0,1.11133-.46191l.52832.80273a2.70718,2.70718,0,0,1-1.77149.69336,2.56978,2.56978,0,0,1-2.60742-2.82715A2.66414,2.66414,0,0,1,26.78223,14.999Z" fill="#e6e6e6"/><path d="M29.80762,16.13281h-.77051v-.94629l.83691-.05468.15332-1.47461H31.084v1.47461h1.375v1.001H31.084V18.707c0,.6377.24219.94629.75879.94629a1.56251,1.56251,0,0,0,.56153-.12109l.21972.93457a3.43215,3.43215,0,0,1-1.10058.19824c-1.25391,0-1.71582-.792-1.71582-1.958Z" fill="#e6e6e6"/></svg>