<svg xmlns="http://www.w3.org/2000/svg" width="52" height="32" viewBox="0 0 52 32"><title>Undo_Active</title><path d="M5,30.5A3.50424,3.50424,0,0,1,1.5,27V5A3.50424,3.50424,0,0,1,5,1.5H50.5v29Z" fill="gray"/><path d="M50,2V30H5a3.00337,3.00337,0,0,1-3-3V5A3.00337,3.00337,0,0,1,5,2H50m1-1H5A4.01175,4.01175,0,0,0,1,5V27a4.01175,4.01175,0,0,0,4,4H51V1Z" fill="#999"/><path d="M51,1V31H5a4.01175,4.01175,0,0,1-4-4V5A4.01175,4.01175,0,0,1,5,1H51m1-1H5A5.00566,5.00566,0,0,0,0,5V27a5.00566,5.00566,0,0,0,5,5H52V0Z"/><path d="M23,21a6.82753,6.82753,0,0,0,4.45833,1.9,5.77068,5.77068,0,0,0,3.97217-1.56949A5.34108,5.34108,0,0,0,33,17.542a4.97455,4.97455,0,0,0-1.47513-3.83589c-1.04605-1.046-2.21529-1.66663-4.87754-1.66386L19,12.04205" fill="none" stroke="#e6e6e6" stroke-miterlimit="10" stroke-width="2"/><polyline points="23 8 19 12 23 16" fill="none" stroke="#e6e6e6" stroke-miterlimit="10" stroke-width="2"/></svg>