<svg xmlns="http://www.w3.org/2000/svg" viewBox="0 0 52 32"><defs><style>.a{fill:#4d4d4d;}.b{fill:#666;}.c{fill:none;stroke:#ccc;stroke-miterlimit:10;stroke-width:2px;}</style></defs><title>BB_Buttons_1.8</title><path class="a" d="M4,31.5A3.5,3.5,0,0,1,.5,28V4A3.5,3.5,0,0,1,4,.5H51.5v31H4Z"/><path d="M51,1V31H4a3,3,0,0,1-3-3V4A3,3,0,0,1,4,1H51m1-1H4A4,4,0,0,0,0,4V28a4,4,0,0,0,4,4H52V0h0Z"/><path class="b" d="M50,2V30H4a2,2,0,0,1-2-2V4A2,2,0,0,1,4,2H50m1-1H4A3,3,0,0,0,1,4V28a3,3,0,0,0,3,3H51V1h0Z"/><path class="c" d="M23.85,22A5.36,5.36,0,0,0,33,18.22a5,5,0,0,0-1.48-3.84c-1-1-2.22-1.67-4.88-1.66H19"/><polyline class="c" points="23.31 8.42 19 12.72 23.31 17.03"/></svg>