<svg xmlns="http://www.w3.org/2000/svg" viewBox="0 0 30 30"><defs><style>.a{fill:#4d4d4d;}.b{fill:#666;}.c{fill:none;stroke:#ccc;stroke-miterlimit:10;stroke-width:1.5px;}</style></defs><title>BB_Buttons_1.8</title><rect class="a" x="1" y="1" width="28" height="28" rx="3" ry="3"/><path class="b" d="M26,1a3,3,0,0,1,3,3V26a3,3,0,0,1-3,3H4a3,3,0,0,1-3-3V4A3,3,0,0,1,4,1H26m0-1H4A4,4,0,0,0,0,4V26a4,4,0,0,0,4,4H26a4,4,0,0,0,4-4V4a4,4,0,0,0-4-4h0Z"/><path class="c" d="M12.25,9.25v8.5a3,3,0,0,0,3,3h5.5"/><polyline class="c" points="7.75 13 12.25 8.5 16.75 13"/></svg>