<svg xmlns="http://www.w3.org/2000/svg" viewBox="0 0 30 30"><defs><style>.a{fill:#333;}.b{fill:none;stroke:#000;stroke-miterlimit:10;stroke-width:1.5px;}</style></defs><title>BB_Buttons_1.8</title><rect class="a" x="0.5" y="0.5" width="29" height="29" rx="2.5" ry="2.5"/><path d="M27,1a2,2,0,0,1,2,2V27a2,2,0,0,1-2,2H3a2,2,0,0,1-2-2V3A2,2,0,0,1,3,1H27m0-1H3A3,3,0,0,0,0,3V27a3,3,0,0,0,3,3H27a3,3,0,0,0,3-3V3a3,3,0,0,0-3-3h0Z"/><path class="b" d="M12.25,9.25v8.5a3,3,0,0,0,3,3h5.5"/><polyline class="b" points="7.75 13 12.25 8.5 16.75 13"/></svg>