<svg xmlns="http://www.w3.org/2000/svg" xmlns:xlink="http://www.w3.org/1999/xlink" viewBox="0 0 560 150"><defs><radialGradient id="a" cx="-960.64542" cy="-10.77558" r="9.13692" gradientTransform="translate(855.56691 95.88782) scale(0.78915)" gradientUnits="userSpaceOnUse"><stop offset="0" stop-color="#383838"/><stop offset="0.03141" stop-color="#353535"/><stop offset="0.39058" stop-color="#181818"/><stop offset="0.70145" stop-color="#060606"/><stop offset="0.92692"/></radialGradient></defs><title>fastmap</title><rect x="2.59929" y="4.05889" width="554.67893" height="142.25408" fill="#ccc" stroke="#666" stroke-miterlimit="10" stroke-width="0.39369"/><rect x="8.92676" y="9.37128" width="177.45312" height="130.72003" rx="1.63043" ry="1.63043" fill="#1a1a1a"/><rect x="191.09136" y="9.37128" width="177.45312" height="130.72003" rx="1.63043" ry="1.63043" fill="#1a1a1a"/><rect x="373.90323" y="9.37128" width="177.45312" height="130.72003" rx="1.63043" ry="1.63043" fill="#1a1a1a"/><path d="M14.52734,13.53906H37.82227a.563.563,0,0,1,.563.563V38.60449a.56348.56348,0,0,1-.56348.56348H14.52734a.563.563,0,0,1-.563-.563V14.10205A.563.563,0,0,1,14.52734,13.53906Z" fill="#666"/><path d="M37.822,13.66391a.43813.43813,0,0,1,.43811.43813V38.60493a.43813.43813,0,0,1-.43811.43813H14.52759a.43812.43812,0,0,1-.43811-.43813V14.102a.43812.43812,0,0,1,.43811-.43813H37.822m0-.25H14.52759a.68887.68887,0,0,0-.68811.68813V38.60493a.68887.68887,0,0,0,.68811.68813H37.822a.68887.68887,0,0,0,.68811-.68813V14.102a.68887.68887,0,0,0-.68811-.68813Z" fill="#999"/><path d="M42.92828,13.53877H152.02789a.56348.56348,0,0,1,.56348.56348V66.40058a.56348.56348,0,0,1-.56348.56348H42.92779a.563.563,0,0,1-.563-.563V14.10224A.56348.56348,0,0,1,42.92828,13.53877Z" fill="#666"/><path d="M152.02813,13.66391a.43824.43824,0,0,1,.43824.43813V66.40116a.43824.43824,0,0,1-.43824.43812H42.928a.438.438,0,0,1-.438-.43812V14.102a.438.438,0,0,1,.438-.43813H152.02813m0-.25H42.928a.68882.68882,0,0,0-.688.68813V66.40116a.68881.68881,0,0,0,.688.68812H152.02813a.689.689,0,0,0,.68824-.68812V14.102a.689.689,0,0,0-.68824-.68813Z" fill="#999"/><path d="M14.52783,81.2168H37.82227a.563.563,0,0,1,.563.563v24.50244a.56348.56348,0,0,1-.56348.56348H14.52734a.563.563,0,0,1-.563-.563V81.78027A.56348.56348,0,0,1,14.52783,81.2168Z" fill="#666"/><path d="M37.822,81.34167a.43812.43812,0,0,1,.43811.43812v24.50289a.43815.43815,0,0,1-.43811.43815H14.52759a.43814.43814,0,0,1-.43811-.43815V81.77979a.43811.43811,0,0,1,.43811-.43812H37.822m0-.25H14.52759a.68887.68887,0,0,0-.68811.68812v24.50289a.68888.68888,0,0,0,.68811.68815H37.822a.68888.68888,0,0,0,.68811-.68815V81.77979a.68887.68887,0,0,0-.68811-.68812Z" fill="#999"/><path d="M14.52783,109.0127H37.82178a.56348.56348,0,0,1,.56348.56348v24.50244a.56348.56348,0,0,1-.56348.56348H14.52734a.563.563,0,0,1-.563-.563V109.57617A.56348.56348,0,0,1,14.52783,109.0127Z" fill="#666"/><path d="M37.822,109.13788a.43814.43814,0,0,1,.43811.43814v24.5029a.43814.43814,0,0,1-.43811.43814H14.52759a.43814.43814,0,0,1-.43811-.43814V109.576a.43814.43814,0,0,1,.43811-.43814H37.822m0-.25H14.52759a.68887.68887,0,0,0-.68811.68814v24.5029a.68888.68888,0,0,0,.68811.68814H37.822a.68888.68888,0,0,0,.68811-.68814V109.576a.68887.68887,0,0,0-.68811-.68814Z" fill="#999"/><path d="M42.92822,81.2168H66.22266a.563.563,0,0,1,.563.563v24.50293a.563.563,0,0,1-.563.563H42.92773a.563.563,0,0,1-.563-.563V81.78027A.56348.56348,0,0,1,42.92822,81.2168Z" fill="#666"/><path d="M66.22247,81.34167a.43811.43811,0,0,1,.43811.43812v24.50289a.43814.43814,0,0,1-.43811.43815H42.9281a.43816.43816,0,0,1-.43817-.43815V81.77979a.43813.43813,0,0,1,.43817-.43812H66.22247m0-.25H42.9281a.68893.68893,0,0,0-.68817.68812v24.50289a.68894.68894,0,0,0,.68817.68815H66.22247a.68888.68888,0,0,0,.68811-.68815V81.77979a.68887.68887,0,0,0-.68811-.68812Z" fill="#999"/><path d="M42.92822,109.0127H66.22217a.56348.56348,0,0,1,.56348.56348V134.0791a.563.563,0,0,1-.563.563H42.92773a.563.563,0,0,1-.563-.563V109.57617A.56348.56348,0,0,1,42.92822,109.0127Z" fill="#666"/><path d="M66.22247,109.13788a.43814.43814,0,0,1,.43811.43814v24.5029a.43814.43814,0,0,1-.43811.43814H42.9281a.43816.43816,0,0,1-.43817-.43814V109.576a.43816.43816,0,0,1,.43817-.43814H66.22247m0-.25H42.9281a.68893.68893,0,0,0-.68817.68814v24.5029a.68893.68893,0,0,0,.68817.68814H66.22247a.68888.68888,0,0,0,.68811-.68814V109.576a.68887.68887,0,0,0-.68811-.68814Z" fill="#999"/><rect x="128.1709" y="81.2168" width="24.42041" height="25.62891" rx="0.56299" ry="0.56299" fill="#666"/><path d="M152.02817,81.34167a.43813.43813,0,0,1,.43814.43812v24.50289a.43815.43815,0,0,1-.43814.43815H128.7338a.43813.43813,0,0,1-.43812-.43815V81.77979a.4381.4381,0,0,1,.43812-.43812h23.29437m0-.25H128.7338a.6889.6889,0,0,0-.68812.68812v24.50289a.68891.68891,0,0,0,.68812.68815h23.29437a.68891.68891,0,0,0,.68814-.68815V81.77979a.6889.6889,0,0,0-.68814-.68812Z" fill="#999"/><path d="M128.73389,109.0127h51.69434a.56348.56348,0,0,1,.56348.56348V134.0791a.563.563,0,0,1-.563.563H128.73389a.563.563,0,0,1-.563-.563V109.57568A.563.563,0,0,1,128.73389,109.0127Z" fill="#666"/><path d="M180.42865,109.13788a.43815.43815,0,0,1,.43814.43814v24.5029a.43815.43815,0,0,1-.43814.43814H128.7338a.43813.43813,0,0,1-.43812-.43814V109.576a.43813.43813,0,0,1,.43812-.43814h51.69485m0-.25H128.7338a.6889.6889,0,0,0-.68812.68814v24.5029a.6889.6889,0,0,0,.68812.68814h51.69485a.68893.68893,0,0,0,.68814-.68814V109.576a.68892.68892,0,0,0-.68814-.68814Z" fill="#999"/><rect x="156.57129" y="81.2168" width="24.42041" height="25.62891" rx="0.56299" ry="0.56299" fill="#666"/><path d="M180.42865,81.34167a.43813.43813,0,0,1,.43814.43812v24.50289a.43815.43815,0,0,1-.43814.43815H157.13431a.43815.43815,0,0,1-.43814-.43815V81.77979a.43812.43812,0,0,1,.43814-.43812h23.29434m0-.25H157.13431a.6889.6889,0,0,0-.68814.68812v24.50289a.6889.6889,0,0,0,.68814.68815h23.29434a.6889.6889,0,0,0,.68814-.68815V81.77979a.6889.6889,0,0,0-.68814-.68812Z" fill="#999"/><path d="M71.34766,109.0127h52.27979a.56348.56348,0,0,1,.56348.56348v24.50244a.56348.56348,0,0,1-.56348.56348H71.34766a.563.563,0,0,1-.563-.563V109.57568A.563.563,0,0,1,71.34766,109.0127Z" fill="#666"/><path d="M123.62769,109.13788a.43814.43814,0,0,1,.43811.43814v24.5029a.43814.43814,0,0,1-.43811.43814H71.34778a.43815.43815,0,0,1-.43817-.43814V109.576a.43815.43815,0,0,1,.43817-.43814h52.27991m0-.25H71.34778a.68892.68892,0,0,0-.68817.68814v24.5029a.68893.68893,0,0,0,.68817.68814h52.27991a.68888.68888,0,0,0,.68811-.68814V109.576a.68888.68888,0,0,0-.68811-.68814Z" fill="#999"/><rect x="156.57129" y="13.53906" width="24.42041" height="53.42529" rx="0.56299" ry="0.56299" fill="#666"/><path d="M180.42865,13.66391a.43814.43814,0,0,1,.43814.43813V66.40115a.43814.43814,0,0,1-.43814.43814H157.13431a.43814.43814,0,0,1-.43814-.43814V14.102a.43813.43813,0,0,1,.43814-.43813h23.29434m0-.25H157.13431a.6889.6889,0,0,0-.68814.68813V66.40115a.68892.68892,0,0,0,.68814.68814h23.29434a.68892.68892,0,0,0,.68814-.68814V14.102a.6889.6889,0,0,0-.68814-.68813Z" fill="#999"/><path d="M14.52783,41.335H37.82178a.56348.56348,0,0,1,.56348.56348V66.40088a.56348.56348,0,0,1-.56348.56348H14.52734a.563.563,0,0,1-.563-.563V41.89844A.56348.56348,0,0,1,14.52783,41.335Z" fill="#666"/><path d="M37.822,41.46014a.43812.43812,0,0,1,.43811.43811v24.5029a.43814.43814,0,0,1-.43811.43814H14.52759a.43813.43813,0,0,1-.43811-.43814V41.89825a.43811.43811,0,0,1,.43811-.43811H37.822m0-.25H14.52759a.68887.68887,0,0,0-.68811.68811v24.5029a.68887.68887,0,0,0,.68811.68814H37.822a.68887.68887,0,0,0,.68811-.68814V41.89825a.68887.68887,0,0,0-.68811-.68811Z" fill="#999"/><path d="M197.01617,13.53877H362.91656a.56348.56348,0,0,1,.56348.56348V38.60468a.56348.56348,0,0,1-.56348.56348H197.01568a.563.563,0,0,1-.563-.563V14.10224A.56348.56348,0,0,1,197.01617,13.53877Z" fill="#666"/><path d="M362.91681,13.6639a.43825.43825,0,0,1,.43823.43815V38.60492a.43825.43825,0,0,1-.43823.43815H197.01593a.4381.4381,0,0,1-.43824-.43815V14.10205a.4381.4381,0,0,1,.43824-.43815H362.91681m0-.25H197.01593a.689.689,0,0,0-.68824.68815V38.60492a.689.689,0,0,0,.68824.68815H362.91681a.689.689,0,0,0,.68823-.68815V14.10205a.689.689,0,0,0-.68823-.68815Z" fill="#999"/><path d="M197.01617,41.33515H362.917a.563.563,0,0,1,.563.563V66.40058a.56348.56348,0,0,1-.56348.56348H197.01568a.563.563,0,0,1-.563-.563V41.89863A.56348.56348,0,0,1,197.01617,41.33515Z" fill="#666"/><path d="M362.91681,41.46013a.43824.43824,0,0,1,.43823.43814V66.40115a.43825.43825,0,0,1-.43823.43815H197.01593a.4381.4381,0,0,1-.43824-.43815V41.89827a.43809.43809,0,0,1,.43824-.43814H362.91681m0-.25H197.01593a.689.689,0,0,0-.68824.68814V66.40115a.689.689,0,0,0,.68824.68815H362.91681a.689.689,0,0,0,.68823-.68815V41.89827a.689.689,0,0,0-.68823-.68814Z" fill="#999"/><path d="M197.01617,109.01289H362.917a.563.563,0,0,1,.563.563v24.50293a.56348.56348,0,0,1-.56348.56348H197.01617a.56348.56348,0,0,1-.56348-.56348V109.57636A.56348.56348,0,0,1,197.01617,109.01289Z" fill="#666"/><path d="M362.91681,109.13788a.43825.43825,0,0,1,.43823.43815v24.5029a.43824.43824,0,0,1-.43823.43812H197.01593a.43808.43808,0,0,1-.43824-.43812V109.576a.4381.4381,0,0,1,.43824-.43815H362.91681m0-.25H197.01593a.689.689,0,0,0-.68824.68815v24.5029a.689.689,0,0,0,.68824.68812H362.91681a.689.689,0,0,0,.68823-.68812V109.576a.689.689,0,0,0-.68823-.68815Z" fill="#999"/><path d="M197.01617,81.2165H362.91656A.56348.56348,0,0,1,363.48,81.78v24.50244a.56348.56348,0,0,1-.56348.56348H197.01568a.563.563,0,0,1-.563-.563V81.78A.56348.56348,0,0,1,197.01617,81.2165Z" fill="#666"/><path d="M362.91681,81.34166a.43824.43824,0,0,1,.43823.43813V106.2827a.43824.43824,0,0,1-.43823.43813H197.01593a.43809.43809,0,0,1-.43824-.43813V81.77979a.43809.43809,0,0,1,.43824-.43813H362.91681m0-.25H197.01593a.689.689,0,0,0-.68824.68813V106.2827a.689.689,0,0,0,.68824.68813H362.91681a.689.689,0,0,0,.68823-.68813V81.77979a.689.689,0,0,0-.68823-.68813Z" fill="#999"/><path d="M380.01617,13.53877H545.91656a.56348.56348,0,0,1,.56348.56348V38.60468a.56348.56348,0,0,1-.56348.56348H380.01568a.563.563,0,0,1-.563-.563V14.10224A.56348.56348,0,0,1,380.01617,13.53877Z" fill="#666"/><path d="M545.91681,13.6639a.43825.43825,0,0,1,.43823.43815V38.60492a.43825.43825,0,0,1-.43823.43815H380.01593a.4381.4381,0,0,1-.43824-.43815V14.10205a.4381.4381,0,0,1,.43824-.43815H545.91681m0-.25H380.01593a.689.689,0,0,0-.68824.68815V38.60492a.689.689,0,0,0,.68824.68815H545.91681a.689.689,0,0,0,.68823-.68815V14.10205a.689.689,0,0,0-.68823-.68815Z" fill="#999"/><path d="M464.793,41.335h81.124a.56348.56348,0,0,1,.56348.56348V66.40088a.56348.56348,0,0,1-.56348.56348H464.79346a.563.563,0,0,1-.563-.563V41.89746A.5625.5625,0,0,1,464.793,41.335Z" fill="#666"/><path d="M545.917,41.46014a.438.438,0,0,1,.438.43811v24.5029a.438.438,0,0,1-.438.43814H464.79321a.43824.43824,0,0,1-.43823-.43814V41.89825a.43822.43822,0,0,1,.43823-.43811H545.917m0-.25H464.79321a.689.689,0,0,0-.68823.68811v24.5029a.689.689,0,0,0,.68823.68814H545.917a.68881.68881,0,0,0,.688-.68814V41.89825a.68881.68881,0,0,0-.688-.68811Z" fill="#999"/><path d="M380.01563,41.335h81.124a.56348.56348,0,0,1,.56348.56348V66.40088a.56348.56348,0,0,1-.56348.56348H380.01611a.563.563,0,0,1-.563-.563V41.89746A.5625.5625,0,0,1,380.01563,41.335Z" fill="#666"/><path d="M461.13965,41.46014a.438.438,0,0,1,.438.43811v24.5029a.438.438,0,0,1-.438.43814H380.01587a.43824.43824,0,0,1-.43823-.43814V41.89825a.43822.43822,0,0,1,.43823-.43811h81.12378m0-.25H380.01587a.689.689,0,0,0-.68823.68811v24.5029a.689.689,0,0,0,.68823.68814h81.12378a.68881.68881,0,0,0,.688-.68814V41.89825a.68881.68881,0,0,0-.688-.68811Z" fill="#999"/><path d="M519.74316,109.0127h26.124a.56348.56348,0,0,1,.56348.56348v24.50244a.56348.56348,0,0,1-.56348.56348H519.74365a.563.563,0,0,1-.563-.563V109.5752A.5625.5625,0,0,1,519.74316,109.0127Z" fill="#666"/><path d="M545.86743,109.13788a.438.438,0,0,1,.438.43814v24.5029a.438.438,0,0,1-.438.43814H519.74365a.43825.43825,0,0,1-.43823-.43814V109.576a.43825.43825,0,0,1,.43823-.43814h26.12378m0-.25H519.74365a.689.689,0,0,0-.68823.68814v24.5029a.689.689,0,0,0,.68823.68814h26.12378a.68881.68881,0,0,0,.688-.68814V109.576a.68881.68881,0,0,0-.688-.68814Z" fill="#999"/><path d="M491.02663,109.0127h26.124a.56348.56348,0,0,1,.56348.56348v24.50244a.56348.56348,0,0,1-.56348.56348H491.02712a.563.563,0,0,1-.563-.563V109.5752A.5625.5625,0,0,1,491.02663,109.0127Z" fill="#666"/><path d="M517.1509,109.13788a.438.438,0,0,1,.438.43814v24.5029a.438.438,0,0,1-.438.43814H491.02712a.43825.43825,0,0,1-.43824-.43814V109.576a.43825.43825,0,0,1,.43824-.43814H517.1509m0-.25H491.02712a.689.689,0,0,0-.68824.68814v24.5029a.689.689,0,0,0,.68824.68814H517.1509a.68881.68881,0,0,0,.688-.68814V109.576a.6888.6888,0,0,0-.688-.68814Z" fill="#999"/><path d="M380.01563,109.0127H488.21484a.56348.56348,0,0,1,.56348.56348v24.50244a.56348.56348,0,0,1-.56348.56348H380.01611a.563.563,0,0,1-.563-.563V109.5752A.5625.5625,0,0,1,380.01563,109.0127Z" fill="#666"/><path d="M488.21509,109.13788a.43809.43809,0,0,1,.43823.43814v24.5029a.43809.43809,0,0,1-.43823.43814H380.01587a.43825.43825,0,0,1-.43823-.43814V109.576a.43825.43825,0,0,1,.43823-.43814H488.21509m0-.25H380.01587a.689.689,0,0,0-.68823.68814v24.5029a.689.689,0,0,0,.68823.68814H488.21509a.689.689,0,0,0,.68823-.68814V109.576a.689.689,0,0,0-.68823-.68814Z" fill="#999"/><path d="M464.793,81.2168h81.12451a.563.563,0,0,1,.563.563v24.50244a.56348.56348,0,0,1-.56348.56348H464.79346a.563.563,0,0,1-.563-.563V81.7793A.5625.5625,0,0,1,464.793,81.2168Z" fill="#666"/><path d="M545.917,81.34167a.438.438,0,0,1,.438.43812v24.50289a.438.438,0,0,1-.438.43815H464.79321a.43825.43825,0,0,1-.43823-.43815V81.77979a.43822.43822,0,0,1,.43823-.43812H545.917m0-.25H464.79321a.689.689,0,0,0-.68823.68812v24.50289a.689.689,0,0,0,.68823.68815H545.917a.68881.68881,0,0,0,.688-.68815V81.77979a.68881.68881,0,0,0-.688-.68812Z" fill="#999"/><path d="M380.01563,81.2168h81.12451a.563.563,0,0,1,.563.563v24.50244a.56348.56348,0,0,1-.56348.56348H380.01611a.563.563,0,0,1-.563-.563V81.7793A.5625.5625,0,0,1,380.01563,81.2168Z" fill="#666"/><path d="M461.13965,81.34167a.438.438,0,0,1,.438.43812v24.50289a.438.438,0,0,1-.438.43815H380.01587a.43825.43825,0,0,1-.43823-.43815V81.77979a.43822.43822,0,0,1,.43823-.43812h81.12378m0-.25H380.01587a.689.689,0,0,0-.68823.68812v24.50289a.689.689,0,0,0,.68823.68815h81.12378a.68882.68882,0,0,0,.688-.68815V81.77979a.68881.68881,0,0,0-.688-.68812Z" fill="#999"/><path d="M197.01583,13.66391H362.9169a.43813.43813,0,0,1,.43813.43813v5.60452a0,0,0,0,1,0,0H196.5777a0,0,0,0,1,0,0V14.102A.43813.43813,0,0,1,197.01583,13.66391Z" fill="#333"/><path d="M197.01583,41.46013H362.9169a.43813.43813,0,0,1,.43813.43813v5.60452a0,0,0,0,1,0,0H196.5777a0,0,0,0,1,0,0V41.89826A.43813.43813,0,0,1,197.01583,41.46013Z" fill="#333"/><path d="M197.01583,109.13789H362.9169a.43813.43813,0,0,1,.43813.43813v5.60452a0,0,0,0,1,0,0H196.5777a0,0,0,0,1,0,0V109.576A.43813.43813,0,0,1,197.01583,109.13789Z" fill="#333"/><path d="M197.01583,81.34166H362.9169a.43813.43813,0,0,1,.43813.43813v5.60452a0,0,0,0,1,0,0H196.5777a0,0,0,0,1,0,0V81.7798A.43813.43813,0,0,1,197.01583,81.34166Z" fill="#333"/><path d="M380.01583,13.66391H545.9169a.43813.43813,0,0,1,.43813.43813v5.60452a0,0,0,0,1,0,0H379.5777a0,0,0,0,1,0,0V14.102A.43813.43813,0,0,1,380.01583,13.66391Z" fill="#333"/><path d="M464.79316,41.46013H545.9169a.43813.43813,0,0,1,.43813.43813v5.60452a0,0,0,0,1,0,0h-82a0,0,0,0,1,0,0V41.89826A.43813.43813,0,0,1,464.79316,41.46013Z" fill="#333"/><path d="M380.01583,41.46013h81.12373a.43813.43813,0,0,1,.43813.43813v5.60452a0,0,0,0,1,0,0h-82a0,0,0,0,1,0,0V41.89826A.43813.43813,0,0,1,380.01583,41.46013Z" fill="#333"/><path d="M380.01583,109.13789H488.21519a.43813.43813,0,0,1,.43813.43813v5.60452a0,0,0,0,1,0,0H379.5777a0,0,0,0,1,0,0V109.576A.43813.43813,0,0,1,380.01583,109.13789Z" fill="#333"/><path d="M519.74358,109.13789h26.12373a.43813.43813,0,0,1,.43813.43813v5.60452a0,0,0,0,1,0,0h-27a0,0,0,0,1,0,0V109.576A.43813.43813,0,0,1,519.74358,109.13789Z" fill="#333"/><path d="M491.027,109.13789h26.12373a.43813.43813,0,0,1,.43813.43813v5.60452a0,0,0,0,1,0,0h-27a0,0,0,0,1,0,0V109.576A.43813.43813,0,0,1,491.027,109.13789Z" fill="#333"/><path d="M380.01583,109.13789H488.21519a.43813.43813,0,0,1,.43813.43813v5.60452a0,0,0,0,1,0,0H379.5777a0,0,0,0,1,0,0V109.576A.43813.43813,0,0,1,380.01583,109.13789Z" fill="#333"/><path d="M464.79316,81.34166H545.9169a.43813.43813,0,0,1,.43813.43813v5.60452a0,0,0,0,1,0,0h-82a0,0,0,0,1,0,0V81.7798A.43813.43813,0,0,1,464.79316,81.34166Z" fill="#333"/><path d="M380.01583,81.34166h81.12373a.43813.43813,0,0,1,.43813.43813v5.60452a0,0,0,0,1,0,0h-82a0,0,0,0,1,0,0V81.7798A.43813.43813,0,0,1,380.01583,81.34166Z" fill="#333"/><rect x="18.92359" y="23.93642" width="14.50238" height="6.04266" rx="1" ry="1" fill="#ccc" stroke="#000" stroke-miterlimit="10" stroke-width="0.1"/><rect x="18.92359" y="51.73265" width="14.50238" height="6.04266" rx="1" ry="1" fill="#ccc" stroke="#000" stroke-miterlimit="10" stroke-width="0.1"/><rect x="18.92359" y="91.61418" width="14.50238" height="6.04266" rx="1" ry="1" fill="#ccc" stroke="#000" stroke-miterlimit="10" stroke-width="0.1"/><rect x="18.92359" y="119.4104" width="14.50238" height="6.04266" rx="1" ry="1" fill="#ccc" stroke="#000" stroke-miterlimit="10" stroke-width="0.1"/><rect x="47.32407" y="91.61418" width="14.50238" height="6.04266" rx="1" ry="1" fill="#ccc" stroke="#000" stroke-miterlimit="10" stroke-width="0.1"/><rect x="47.32407" y="119.4104" width="14.50238" height="6.04266" rx="1" ry="1" fill="#ccc" stroke="#000" stroke-miterlimit="10" stroke-width="0.1"/><rect x="133.1298" y="91.61418" width="14.50238" height="6.04266" rx="1" ry="1" fill="#ccc" stroke="#000" stroke-miterlimit="10" stroke-width="0.1"/><rect x="133.1298" y="119.4104" width="14.50238" height="6.04266" rx="1" ry="1" fill="#ccc" stroke="#000" stroke-miterlimit="10" stroke-width="0.1"/><rect x="161.53029" y="91.61418" width="14.50238" height="6.04266" rx="1" ry="1" fill="#ccc" stroke="#000" stroke-miterlimit="10" stroke-width="0.1"/><rect x="161.53029" y="119.4104" width="14.50238" height="6.04266" rx="1" ry="1" fill="#ccc" stroke="#000" stroke-miterlimit="10" stroke-width="0.1"/><rect x="75.72456" y="119.4104" width="14.50238" height="6.04266" rx="1" ry="1" fill="#ccc" stroke="#000" stroke-miterlimit="10" stroke-width="0.1"/><rect x="104.72932" y="119.4104" width="14.50238" height="6.04266" rx="1" ry="1" fill="#ccc" stroke="#000" stroke-miterlimit="10" stroke-width="0.1"/><rect x="47.92834" y="51.73265" width="14.50238" height="6.04266" rx="1" ry="1" fill="#ccc" stroke="#000" stroke-miterlimit="10" stroke-width="0.1"/><rect x="75.72456" y="51.73265" width="14.50238" height="6.04266" rx="1" ry="1" fill="#ccc" stroke="#000" stroke-miterlimit="10" stroke-width="0.1"/><rect x="104.72932" y="51.73265" width="14.50238" height="6.04266" rx="1" ry="1" fill="#ccc" stroke="#000" stroke-miterlimit="10" stroke-width="0.1"/><rect x="132.52554" y="51.73265" width="14.50238" height="6.04266" rx="1" ry="1" fill="#ccc" stroke="#000" stroke-miterlimit="10" stroke-width="0.1"/><rect x="161.53029" y="23.93642" width="14.50238" height="6.04266" rx="1" ry="1" fill="#ccc" stroke="#000" stroke-miterlimit="10" stroke-width="0.1"/><rect x="161.53029" y="51.73265" width="14.50238" height="6.04266" rx="1" ry="1" fill="#ccc" stroke="#000" stroke-miterlimit="10" stroke-width="0.1"/><rect x="207.45448" y="23.93642" width="14.50238" height="6.04266" rx="1" ry="1" fill="#ccc" stroke="#000" stroke-miterlimit="10" stroke-width="0.1"/><rect x="235.2507" y="23.93642" width="14.50238" height="6.04266" rx="1" ry="1" fill="#ccc" stroke="#000" stroke-miterlimit="10" stroke-width="0.1"/><rect x="261.83839" y="23.93642" width="14.50238" height="6.04266" rx="1" ry="1" fill="#ccc" stroke="#000" stroke-miterlimit="10" stroke-width="0.1"/><rect x="289.63462" y="23.93642" width="14.50238" height="6.04266" rx="1" ry="1" fill="#ccc" stroke="#000" stroke-miterlimit="10" stroke-width="0.1"/><rect x="316.22643" y="23.93642" width="14.50238" height="6.04266" rx="1" ry="1" fill="#ccc" stroke="#000" stroke-miterlimit="10" stroke-width="0.1"/><rect x="344.01853" y="23.93642" width="14.50238" height="6.04266" rx="1" ry="1" fill="#ccc" stroke="#000" stroke-miterlimit="10" stroke-width="0.1"/><rect x="207.45448" y="51.73265" width="14.50238" height="6.04266" rx="1" ry="1" fill="#ccc" stroke="#000" stroke-miterlimit="10" stroke-width="0.1"/><rect x="235.2507" y="51.73265" width="14.50238" height="6.04266" rx="1" ry="1" fill="#ccc" stroke="#000" stroke-miterlimit="10" stroke-width="0.1"/><rect x="261.83839" y="51.73265" width="14.50238" height="6.04266" rx="1" ry="1" fill="#ccc" stroke="#000" stroke-miterlimit="10" stroke-width="0.1"/><rect x="289.63462" y="51.73265" width="14.50238" height="6.04266" rx="1" ry="1" fill="#ccc" stroke="#000" stroke-miterlimit="10" stroke-width="0.1"/><rect x="316.22643" y="51.73265" width="14.50238" height="6.04266" rx="1" ry="1" fill="#ccc" stroke="#000" stroke-miterlimit="10" stroke-width="0.1"/><rect x="344.01853" y="51.73265" width="14.50238" height="6.04266" rx="1" ry="1" fill="#ccc" stroke="#000" stroke-miterlimit="10" stroke-width="0.1"/><rect x="207.45448" y="119.4104" width="14.50238" height="6.04266" rx="1" ry="1" fill="#ccc" stroke="#000" stroke-miterlimit="10" stroke-width="0.1"/><rect x="235.2507" y="119.4104" width="14.50238" height="6.04266" rx="1" ry="1" fill="#ccc" stroke="#000" stroke-miterlimit="10" stroke-width="0.1"/><rect x="261.83839" y="119.4104" width="14.50238" height="6.04266" rx="1" ry="1" fill="#ccc" stroke="#000" stroke-miterlimit="10" stroke-width="0.1"/><rect x="289.63462" y="119.4104" width="14.50238" height="6.04266" rx="1" ry="1" fill="#ccc" stroke="#000" stroke-miterlimit="10" stroke-width="0.1"/><rect x="316.22643" y="119.4104" width="14.50238" height="6.04266" rx="1" ry="1" fill="#ccc" stroke="#000" stroke-miterlimit="10" stroke-width="0.1"/><rect x="344.01853" y="119.4104" width="14.50238" height="6.04266" rx="1" ry="1" fill="#ccc" stroke="#000" stroke-miterlimit="10" stroke-width="0.1"/><rect x="207.45448" y="91.61418" width="14.50238" height="6.04266" rx="1" ry="1" fill="#ccc" stroke="#000" stroke-miterlimit="10" stroke-width="0.1"/><rect x="235.2507" y="91.61418" width="14.50238" height="6.04266" rx="1" ry="1" fill="#ccc" stroke="#000" stroke-miterlimit="10" stroke-width="0.1"/><rect x="261.83839" y="91.61418" width="14.50238" height="6.04266" rx="1" ry="1" fill="#ccc" stroke="#000" stroke-miterlimit="10" stroke-width="0.1"/><rect x="289.63462" y="91.61418" width="14.50238" height="6.04266" rx="1" ry="1" fill="#ccc" stroke="#000" stroke-miterlimit="10" stroke-width="0.1"/><rect x="316.22643" y="91.61418" width="14.50238" height="6.04266" rx="1" ry="1" fill="#ccc" stroke="#000" stroke-miterlimit="10" stroke-width="0.1"/><rect x="344.01853" y="91.61418" width="14.50238" height="6.04266" rx="1" ry="1" fill="#ccc" stroke="#000" stroke-miterlimit="10" stroke-width="0.1"/><rect x="390.45448" y="23.93642" width="14.50238" height="6.04266" rx="1" ry="1" fill="#ccc" stroke="#000" stroke-miterlimit="10" stroke-width="0.1"/><rect x="418.2507" y="23.93642" width="14.50238" height="6.04266" rx="1" ry="1" fill="#ccc" stroke="#000" stroke-miterlimit="10" stroke-width="0.1"/><rect x="444.83839" y="23.93642" width="14.50238" height="6.04266" rx="1" ry="1" fill="#ccc" stroke="#000" stroke-miterlimit="10" stroke-width="0.1"/><rect x="472.63462" y="23.93642" width="14.50238" height="6.04266" rx="1" ry="1" fill="#ccc" stroke="#000" stroke-miterlimit="10" stroke-width="0.1"/><rect x="499.22643" y="23.93642" width="14.50238" height="6.04266" rx="1" ry="1" fill="#ccc" stroke="#000" stroke-miterlimit="10" stroke-width="0.1"/><rect x="527.01853" y="23.93642" width="14.50238" height="6.04266" rx="1" ry="1" fill="#ccc" stroke="#000" stroke-miterlimit="10" stroke-width="0.1"/><rect x="390.45448" y="51.73265" width="14.50238" height="6.04266" rx="1" ry="1" fill="#ccc" stroke="#000" stroke-miterlimit="10" stroke-width="0.1"/><rect x="418.2507" y="51.73265" width="14.50238" height="6.04266" rx="1" ry="1" fill="#ccc" stroke="#000" stroke-miterlimit="10" stroke-width="0.1"/><rect x="444.83839" y="51.73265" width="14.50238" height="6.04266" rx="1" ry="1" fill="#ccc" stroke="#000" stroke-miterlimit="10" stroke-width="0.1"/><rect x="472.63462" y="51.73265" width="14.50238" height="6.04266" rx="1" ry="1" fill="#ccc" stroke="#000" stroke-miterlimit="10" stroke-width="0.1"/><rect x="499.22643" y="51.73265" width="14.50238" height="6.04266" rx="1" ry="1" fill="#ccc" stroke="#000" stroke-miterlimit="10" stroke-width="0.1"/><rect x="527.01853" y="51.73265" width="14.50238" height="6.04266" rx="1" ry="1" fill="#ccc" stroke="#000" stroke-miterlimit="10" stroke-width="0.1"/><rect x="390.45448" y="119.4104" width="14.50238" height="6.04266" rx="1" ry="1" fill="#ccc" stroke="#000" stroke-miterlimit="10" stroke-width="0.1"/><rect x="418.2507" y="119.4104" width="14.50238" height="6.04266" rx="1" ry="1" fill="#ccc" stroke="#000" stroke-miterlimit="10" stroke-width="0.1"/><rect x="444.83839" y="119.4104" width="14.50238" height="6.04266" rx="1" ry="1" fill="#ccc" stroke="#000" stroke-miterlimit="10" stroke-width="0.1"/><rect x="472.63462" y="119.4104" width="14.50238" height="6.04266" rx="1" ry="1" fill="#ccc" stroke="#000" stroke-miterlimit="10" stroke-width="0.1"/><rect x="499.22643" y="119.4104" width="14.50238" height="6.04266" rx="1" ry="1" fill="#ccc" stroke="#000" stroke-miterlimit="10" stroke-width="0.1"/><rect x="527.01853" y="119.4104" width="14.50238" height="6.04266" rx="1" ry="1" fill="#ccc" stroke="#000" stroke-miterlimit="10" stroke-width="0.1"/><rect x="390.45448" y="91.61418" width="14.50238" height="6.04266" rx="1" ry="1" fill="#ccc" stroke="#000" stroke-miterlimit="10" stroke-width="0.1"/><rect x="418.2507" y="91.61418" width="14.50238" height="6.04266" rx="1" ry="1" fill="#ccc" stroke="#000" stroke-miterlimit="10" stroke-width="0.1"/><rect x="444.83839" y="91.61418" width="14.50238" height="6.04266" rx="1" ry="1" fill="#ccc" stroke="#000" stroke-miterlimit="10" stroke-width="0.1"/><rect x="472.63462" y="91.61418" width="14.50238" height="6.04266" rx="1" ry="1" fill="#ccc" stroke="#000" stroke-miterlimit="10" stroke-width="0.1"/><rect x="499.22643" y="91.61418" width="14.50238" height="6.04266" rx="1" ry="1" fill="#ccc" stroke="#000" stroke-miterlimit="10" stroke-width="0.1"/><rect x="527.01853" y="91.61418" width="14.50238" height="6.04266" rx="1" ry="1" fill="#ccc" stroke="#000" stroke-miterlimit="10" stroke-width="0.1"/><path d="M202.62012,28.82031a1.86255,1.86255,0,1,1,1.86279-1.86279A1.86455,1.86455,0,0,1,202.62012,28.82031Z" fill="#4d4d4d"/><path d="M202.62036,25.145a1.8128,1.8128,0,1,1-1.8128,1.81279,1.8128,1.8128,0,0,1,1.8128-1.81279m0-.1a1.91281,1.91281,0,1,0,1.91281,1.9128,1.915,1.915,0,0,0-1.91281-1.9128Z"/><path d="M257.00391,28.7666a1.86255,1.86255,0,1,1,1.86328-1.8623A1.86413,1.86413,0,0,1,257.00391,28.7666Z" fill="#4d4d4d"/><path d="M257.00415,25.09142a1.8128,1.8128,0,1,1-1.81274,1.8128,1.81294,1.81294,0,0,1,1.81274-1.8128m0-.1a1.9128,1.9128,0,1,0,1.91309,1.9128,1.915,1.915,0,0,0-1.91309-1.9128Z"/><path d="M284.80078,28.7666a1.86255,1.86255,0,1,1,1.86231-1.8623A1.865,1.865,0,0,1,284.80078,28.7666Z" fill="#4d4d4d"/><path d="M284.80054,25.09142a1.8128,1.8128,0,1,1-1.81275,1.8128,1.81273,1.81273,0,0,1,1.81275-1.8128m0-.1a1.9128,1.9128,0,1,0,1.91284,1.9128,1.915,1.915,0,0,0-1.91284-1.9128Z"/><path d="M311.3877,28.7666a1.86255,1.86255,0,1,1,1.86328-1.8623A1.86413,1.86413,0,0,1,311.3877,28.7666Z" fill="#4d4d4d"/><path d="M311.38818,25.09142a1.8128,1.8128,0,1,1-1.81274,1.8128,1.81273,1.81273,0,0,1,1.81274-1.8128m0-.1a1.9128,1.9128,0,1,0,1.91285,1.9128,1.915,1.915,0,0,0-1.91285-1.9128Z"/><path d="M339.18457,28.7666a1.86255,1.86255,0,1,1,1.86231-1.8623A1.86413,1.86413,0,0,1,339.18457,28.7666Z" fill="#4d4d4d"/><path d="M339.18433,25.09142a1.8128,1.8128,0,1,1-1.81275,1.8128,1.81293,1.81293,0,0,1,1.81275-1.8128m0-.1a1.9128,1.9128,0,1,0,1.91308,1.9128,1.915,1.915,0,0,0-1.91308-1.9128Z"/><path d="M202.62012,56.6167a1.86255,1.86255,0,1,1,1.86328-1.86279A1.86423,1.86423,0,0,1,202.62012,56.6167Z" fill="#4d4d4d"/><path d="M202.62036,52.94117a1.81281,1.81281,0,1,1-1.81274,1.8128,1.81274,1.81274,0,0,1,1.81274-1.8128m0-.1A1.9128,1.9128,0,1,0,204.5332,54.754a1.915,1.915,0,0,0-1.91284-1.91279Z"/><path d="M230.417,56.563a1.86255,1.86255,0,1,1,1.86231-1.86231A1.865,1.865,0,0,1,230.417,56.563Z" fill="#4d4d4d"/><path d="M230.4165,52.88765a1.8128,1.8128,0,1,1-1.81274,1.8128,1.81294,1.81294,0,0,1,1.81274-1.8128m0-.1a1.9128,1.9128,0,1,0,1.91309,1.9128,1.915,1.915,0,0,0-1.91309-1.9128Z"/><path d="M257.00391,56.563a1.86255,1.86255,0,1,1,1.86328-1.86231A1.86413,1.86413,0,0,1,257.00391,56.563Z" fill="#4d4d4d"/><path d="M257.00415,52.88765a1.8128,1.8128,0,1,1-1.81274,1.8128,1.81294,1.81294,0,0,1,1.81274-1.8128m0-.1a1.9128,1.9128,0,1,0,1.91309,1.9128,1.915,1.915,0,0,0-1.91309-1.9128Z"/><path d="M284.80078,56.563a1.86255,1.86255,0,1,1,1.86231-1.86231A1.865,1.865,0,0,1,284.80078,56.563Z" fill="#4d4d4d"/><path d="M284.80054,52.88765a1.8128,1.8128,0,1,1-1.81275,1.8128,1.81273,1.81273,0,0,1,1.81275-1.8128m0-.1a1.9128,1.9128,0,1,0,1.91284,1.9128,1.915,1.915,0,0,0-1.91284-1.9128Z"/><path d="M311.3877,56.563a1.86255,1.86255,0,1,1,1.86328-1.86231A1.86413,1.86413,0,0,1,311.3877,56.563Z" fill="#4d4d4d"/><path d="M311.38818,52.88765a1.8128,1.8128,0,1,1-1.81274,1.8128,1.81273,1.81273,0,0,1,1.81274-1.8128m0-.1a1.9128,1.9128,0,1,0,1.91285,1.9128,1.915,1.915,0,0,0-1.91285-1.9128Z"/><path d="M339.18457,56.563a1.86255,1.86255,0,1,1,1.86231-1.86231A1.86413,1.86413,0,0,1,339.18457,56.563Z" fill="#4d4d4d"/><path d="M339.18433,52.88765a1.8128,1.8128,0,1,1-1.81275,1.8128,1.81293,1.81293,0,0,1,1.81275-1.8128m0-.1a1.9128,1.9128,0,1,0,1.91308,1.9128,1.915,1.915,0,0,0-1.91308-1.9128Z"/><path d="M202.62012,124.29443a1.86255,1.86255,0,1,1,1.86328-1.86279A1.86423,1.86423,0,0,1,202.62012,124.29443Z" fill="#4d4d4d"/><path d="M202.62036,120.61893a1.8128,1.8128,0,1,1-1.81274,1.8128,1.81273,1.81273,0,0,1,1.81274-1.8128m0-.1a1.91281,1.91281,0,1,0,1.91284,1.9128,1.915,1.915,0,0,0-1.91284-1.9128Z"/><path d="M230.417,124.24072a1.86255,1.86255,0,1,1,1.86231-1.8623A1.865,1.865,0,0,1,230.417,124.24072Z" fill="#4d4d4d"/><path d="M230.4165,120.56541a1.8128,1.8128,0,1,1-1.81274,1.81279,1.81293,1.81293,0,0,1,1.81274-1.81279m0-.1a1.91281,1.91281,0,1,0,1.91309,1.9128,1.915,1.915,0,0,0-1.91309-1.9128Z"/><path d="M257.00391,124.24072a1.86255,1.86255,0,1,1,1.86328-1.8623A1.86413,1.86413,0,0,1,257.00391,124.24072Z" fill="#4d4d4d"/><path d="M257.00415,120.56541a1.8128,1.8128,0,1,1-1.81274,1.81279,1.81293,1.81293,0,0,1,1.81274-1.81279m0-.1a1.91281,1.91281,0,1,0,1.91309,1.9128,1.915,1.915,0,0,0-1.91309-1.9128Z"/><path d="M284.80078,124.24072a1.86255,1.86255,0,1,1,1.86231-1.8623A1.865,1.865,0,0,1,284.80078,124.24072Z" fill="#4d4d4d"/><path d="M284.80054,120.56541a1.8128,1.8128,0,1,1-1.81275,1.81279,1.81272,1.81272,0,0,1,1.81275-1.81279m0-.1a1.91281,1.91281,0,1,0,1.91284,1.9128,1.915,1.915,0,0,0-1.91284-1.9128Z"/><path d="M311.3877,124.24072a1.86255,1.86255,0,1,1,1.86328-1.8623A1.86413,1.86413,0,0,1,311.3877,124.24072Z" fill="#4d4d4d"/><path d="M311.38818,120.56541a1.8128,1.8128,0,1,1-1.81274,1.81279,1.81273,1.81273,0,0,1,1.81274-1.81279m0-.1a1.91281,1.91281,0,1,0,1.91285,1.9128,1.915,1.915,0,0,0-1.91285-1.9128Z"/><path d="M339.18457,124.24072a1.86255,1.86255,0,1,1,1.86231-1.8623A1.86413,1.86413,0,0,1,339.18457,124.24072Z" fill="#4d4d4d"/><path d="M339.18433,120.56541a1.8128,1.8128,0,1,1-1.81275,1.81279,1.81292,1.81292,0,0,1,1.81275-1.81279m0-.1a1.91281,1.91281,0,1,0,1.91308,1.9128,1.915,1.915,0,0,0-1.91308-1.9128Z"/><path d="M202.62012,96.49805a1.86255,1.86255,0,1,1,1.86328-1.86231A1.86413,1.86413,0,0,1,202.62012,96.49805Z" fill="#4d4d4d"/><path d="M202.62036,92.82272a1.81279,1.81279,0,1,1-1.81274,1.81279,1.81273,1.81273,0,0,1,1.81274-1.81279m0-.1a1.9128,1.9128,0,1,0,1.91284,1.9128,1.915,1.915,0,0,0-1.91284-1.9128Z"/><path d="M230.417,96.44482A1.86279,1.86279,0,1,1,232.2793,94.582,1.86506,1.86506,0,0,1,230.417,96.44482Z" fill="#4d4d4d"/><path d="M230.4165,92.76919a1.8128,1.8128,0,1,1-1.81274,1.8128,1.81293,1.81293,0,0,1,1.81274-1.8128m0-.1a1.9128,1.9128,0,1,0,1.91309,1.91281,1.915,1.915,0,0,0-1.91309-1.91281Z"/><path d="M257.00391,96.44482a1.86279,1.86279,0,1,1,1.86328-1.86279A1.86423,1.86423,0,0,1,257.00391,96.44482Z" fill="#4d4d4d"/><path d="M257.00415,92.76919a1.8128,1.8128,0,1,1-1.81274,1.8128,1.81293,1.81293,0,0,1,1.81274-1.8128m0-.1a1.9128,1.9128,0,1,0,1.91309,1.91281,1.915,1.915,0,0,0-1.91309-1.91281Z"/><path d="M284.80078,96.44482a1.86279,1.86279,0,1,1,1.86231-1.86279A1.86506,1.86506,0,0,1,284.80078,96.44482Z" fill="#4d4d4d"/><path d="M284.80054,92.76919a1.8128,1.8128,0,1,1-1.81275,1.8128,1.81272,1.81272,0,0,1,1.81275-1.8128m0-.1a1.9128,1.9128,0,1,0,1.91284,1.91281,1.915,1.915,0,0,0-1.91284-1.91281Z"/><path d="M311.3877,96.44482A1.86279,1.86279,0,1,1,313.251,94.582,1.86423,1.86423,0,0,1,311.3877,96.44482Z" fill="#4d4d4d"/><path d="M311.38818,92.76919a1.8128,1.8128,0,1,1-1.81274,1.8128,1.81273,1.81273,0,0,1,1.81274-1.8128m0-.1A1.9128,1.9128,0,1,0,313.301,94.582a1.915,1.915,0,0,0-1.91285-1.91281Z"/><circle cx="339.18457" cy="94.58203" r="1.86255" fill="#4d4d4d"/><path d="M339.18433,92.76919a1.8128,1.8128,0,1,1-1.81275,1.8128,1.81292,1.81292,0,0,1,1.81275-1.8128m0-.1a1.9128,1.9128,0,1,0,1.91308,1.91281,1.915,1.915,0,0,0-1.91308-1.91281Z"/><path d="M385.62012,28.82031a1.86255,1.86255,0,1,1,1.86328-1.86279A1.86423,1.86423,0,0,1,385.62012,28.82031Z" fill="#4d4d4d"/><path d="M385.62036,25.145a1.8128,1.8128,0,1,1-1.81274,1.8128,1.81273,1.81273,0,0,1,1.81274-1.8128m0-.1a1.9128,1.9128,0,1,0,1.91284,1.9128,1.915,1.915,0,0,0-1.91284-1.9128Z"/><path d="M440.00391,28.7666a1.86255,1.86255,0,1,1,1.86328-1.8623A1.86413,1.86413,0,0,1,440.00391,28.7666Z" fill="#4d4d4d"/><path d="M440.00415,25.09142a1.8128,1.8128,0,1,1-1.81274,1.8128,1.81294,1.81294,0,0,1,1.81274-1.8128m0-.1a1.9128,1.9128,0,1,0,1.91309,1.9128,1.915,1.915,0,0,0-1.91309-1.9128Z"/><path d="M467.80078,28.7666a1.86255,1.86255,0,1,1,1.86231-1.8623A1.865,1.865,0,0,1,467.80078,28.7666Z" fill="#4d4d4d"/><path d="M467.80054,25.09142a1.8128,1.8128,0,1,1-1.81275,1.8128,1.81273,1.81273,0,0,1,1.81275-1.8128m0-.1a1.9128,1.9128,0,1,0,1.91284,1.9128,1.915,1.915,0,0,0-1.91284-1.9128Z"/><path d="M494.3877,28.7666a1.86255,1.86255,0,1,1,1.86328-1.8623A1.86413,1.86413,0,0,1,494.3877,28.7666Z" fill="#4d4d4d"/><path d="M494.38818,25.09142a1.8128,1.8128,0,1,1-1.81274,1.8128,1.81273,1.81273,0,0,1,1.81274-1.8128m0-.1a1.9128,1.9128,0,1,0,1.91285,1.9128,1.915,1.915,0,0,0-1.91285-1.9128Z"/><path d="M522.18457,28.7666a1.86255,1.86255,0,1,1,1.86231-1.8623A1.86413,1.86413,0,0,1,522.18457,28.7666Z" fill="#4d4d4d"/><path d="M522.18433,25.09142a1.8128,1.8128,0,1,1-1.81275,1.8128,1.81293,1.81293,0,0,1,1.81275-1.8128m0-.1a1.9128,1.9128,0,1,0,1.91308,1.9128,1.915,1.915,0,0,0-1.91308-1.9128Z"/><path d="M385.62012,56.6167a1.86255,1.86255,0,1,1,1.86328-1.86279A1.86423,1.86423,0,0,1,385.62012,56.6167Z" fill="#4d4d4d"/><path d="M385.62036,52.94117a1.81281,1.81281,0,1,1-1.81274,1.8128,1.81274,1.81274,0,0,1,1.81274-1.8128m0-.1A1.9128,1.9128,0,1,0,387.5332,54.754a1.915,1.915,0,0,0-1.91284-1.91279Z"/><path d="M413.417,56.563a1.86255,1.86255,0,1,1,1.86231-1.86231A1.865,1.865,0,0,1,413.417,56.563Z" fill="#4d4d4d"/><path d="M413.4165,52.88765a1.8128,1.8128,0,1,1-1.81274,1.8128,1.81294,1.81294,0,0,1,1.81274-1.8128m0-.1a1.9128,1.9128,0,1,0,1.91309,1.9128,1.915,1.915,0,0,0-1.91309-1.9128Z"/><path d="M440.00391,56.563a1.86255,1.86255,0,1,1,1.86328-1.86231A1.86413,1.86413,0,0,1,440.00391,56.563Z" fill="#4d4d4d"/><path d="M440.00415,52.88765a1.8128,1.8128,0,1,1-1.81274,1.8128,1.81294,1.81294,0,0,1,1.81274-1.8128m0-.1a1.9128,1.9128,0,1,0,1.91309,1.9128,1.915,1.915,0,0,0-1.91309-1.9128Z"/><path d="M467.80078,56.563a1.86255,1.86255,0,1,1,1.86231-1.86231A1.865,1.865,0,0,1,467.80078,56.563Z" fill="#4d4d4d"/><path d="M467.80054,52.88765a1.8128,1.8128,0,1,1-1.81275,1.8128,1.81273,1.81273,0,0,1,1.81275-1.8128m0-.1a1.9128,1.9128,0,1,0,1.91284,1.9128,1.915,1.915,0,0,0-1.91284-1.9128Z"/><path d="M494.3877,56.563a1.86255,1.86255,0,1,1,1.86328-1.86231A1.86413,1.86413,0,0,1,494.3877,56.563Z" fill="#4d4d4d"/><path d="M494.38818,52.88765a1.8128,1.8128,0,1,1-1.81274,1.8128,1.81273,1.81273,0,0,1,1.81274-1.8128m0-.1a1.9128,1.9128,0,1,0,1.91285,1.9128,1.915,1.915,0,0,0-1.91285-1.9128Z"/><path d="M522.18457,56.563a1.86255,1.86255,0,1,1,1.86231-1.86231A1.86413,1.86413,0,0,1,522.18457,56.563Z" fill="#4d4d4d"/><path d="M522.18433,52.88765a1.8128,1.8128,0,1,1-1.81275,1.8128,1.81293,1.81293,0,0,1,1.81275-1.8128m0-.1a1.9128,1.9128,0,1,0,1.91308,1.9128,1.915,1.915,0,0,0-1.91308-1.9128Z"/><path d="M385.62012,124.29443a1.86255,1.86255,0,1,1,1.86328-1.86279A1.86423,1.86423,0,0,1,385.62012,124.29443Z" fill="#4d4d4d"/><path d="M385.62036,120.61893a1.8128,1.8128,0,1,1-1.81274,1.8128,1.81273,1.81273,0,0,1,1.81274-1.8128m0-.1a1.91281,1.91281,0,1,0,1.91284,1.9128,1.915,1.915,0,0,0-1.91284-1.9128Z"/><path d="M413.417,124.24072a1.86255,1.86255,0,1,1,1.86231-1.8623A1.865,1.865,0,0,1,413.417,124.24072Z" fill="#4d4d4d"/><path d="M413.4165,120.56541a1.8128,1.8128,0,1,1-1.81274,1.81279,1.81293,1.81293,0,0,1,1.81274-1.81279m0-.1a1.91281,1.91281,0,1,0,1.91309,1.9128,1.915,1.915,0,0,0-1.91309-1.9128Z"/><path d="M440.00391,124.24072a1.86255,1.86255,0,1,1,1.86328-1.8623A1.86413,1.86413,0,0,1,440.00391,124.24072Z" fill="#4d4d4d"/><path d="M440.00415,120.56541a1.8128,1.8128,0,1,1-1.81274,1.81279,1.81293,1.81293,0,0,1,1.81274-1.81279m0-.1a1.91281,1.91281,0,1,0,1.91309,1.9128,1.915,1.915,0,0,0-1.91309-1.9128Z"/><path d="M467.80078,124.24072a1.86255,1.86255,0,1,1,1.86231-1.8623A1.865,1.865,0,0,1,467.80078,124.24072Z" fill="#4d4d4d"/><path d="M467.80054,120.56541a1.8128,1.8128,0,1,1-1.81275,1.81279,1.81272,1.81272,0,0,1,1.81275-1.81279m0-.1a1.91281,1.91281,0,1,0,1.91284,1.9128,1.915,1.915,0,0,0-1.91284-1.9128Z"/><path d="M494.3877,124.24072a1.86255,1.86255,0,1,1,1.86328-1.8623A1.86413,1.86413,0,0,1,494.3877,124.24072Z" fill="#4d4d4d"/><path d="M494.38818,120.56541a1.8128,1.8128,0,1,1-1.81274,1.81279,1.81273,1.81273,0,0,1,1.81274-1.81279m0-.1a1.91281,1.91281,0,1,0,1.91285,1.9128,1.915,1.915,0,0,0-1.91285-1.9128Z"/><path d="M522.18457,124.24072a1.86255,1.86255,0,1,1,1.86231-1.8623A1.86413,1.86413,0,0,1,522.18457,124.24072Z" fill="#4d4d4d"/><path d="M522.18433,120.56541a1.8128,1.8128,0,1,1-1.81275,1.81279,1.81292,1.81292,0,0,1,1.81275-1.81279m0-.1a1.91281,1.91281,0,1,0,1.91308,1.9128,1.915,1.915,0,0,0-1.91308-1.9128Z"/><path d="M385.62012,96.49805a1.86255,1.86255,0,1,1,1.86328-1.86231A1.86413,1.86413,0,0,1,385.62012,96.49805Z" fill="#4d4d4d"/><path d="M385.62036,92.82272a1.81279,1.81279,0,1,1-1.81274,1.81279,1.81273,1.81273,0,0,1,1.81274-1.81279m0-.1a1.9128,1.9128,0,1,0,1.91284,1.9128,1.915,1.915,0,0,0-1.91284-1.9128Z"/><path d="M413.417,96.44482A1.86279,1.86279,0,1,1,415.2793,94.582,1.86506,1.86506,0,0,1,413.417,96.44482Z" fill="#4d4d4d"/><path d="M413.4165,92.76919a1.8128,1.8128,0,1,1-1.81274,1.8128,1.81293,1.81293,0,0,1,1.81274-1.8128m0-.1a1.9128,1.9128,0,1,0,1.91309,1.91281,1.915,1.915,0,0,0-1.91309-1.91281Z"/><path d="M440.00391,96.44482a1.86279,1.86279,0,1,1,1.86328-1.86279A1.86423,1.86423,0,0,1,440.00391,96.44482Z" fill="#4d4d4d"/><path d="M440.00415,92.76919a1.8128,1.8128,0,1,1-1.81274,1.8128,1.81293,1.81293,0,0,1,1.81274-1.8128m0-.1a1.9128,1.9128,0,1,0,1.91309,1.91281,1.915,1.915,0,0,0-1.91309-1.91281Z"/><path d="M467.80078,96.44482a1.86279,1.86279,0,1,1,1.86231-1.86279A1.86506,1.86506,0,0,1,467.80078,96.44482Z" fill="#4d4d4d"/><path d="M467.80054,92.76919a1.8128,1.8128,0,1,1-1.81275,1.8128,1.81272,1.81272,0,0,1,1.81275-1.8128m0-.1a1.9128,1.9128,0,1,0,1.91284,1.91281,1.915,1.915,0,0,0-1.91284-1.91281Z"/><path d="M494.3877,96.44482A1.86279,1.86279,0,1,1,496.251,94.582,1.86423,1.86423,0,0,1,494.3877,96.44482Z" fill="#4d4d4d"/><path d="M494.38818,92.76919a1.8128,1.8128,0,1,1-1.81274,1.8128,1.81273,1.81273,0,0,1,1.81274-1.8128m0-.1A1.9128,1.9128,0,1,0,496.301,94.582a1.915,1.915,0,0,0-1.91285-1.91281Z"/><circle cx="522.18457" cy="94.58203" r="1.86255" fill="#4d4d4d"/><path d="M522.18433,92.76919a1.8128,1.8128,0,1,1-1.81275,1.8128,1.81292,1.81292,0,0,1,1.81275-1.8128m0-.1a1.9128,1.9128,0,1,0,1.91308,1.91281,1.915,1.915,0,0,0-1.91308-1.91281Z"/><circle cx="97.47813" cy="87.38432" r="9.06399" stroke="#000" stroke-miterlimit="10" stroke-width="0.43813" fill="url(#a)"/><path d="M97.47809,98.02021c-.15528,0-.30665-.01025-.459-.02051l-.17383-.01123-.34863-.63476-.57715.56006-.13183-.0376c-.15235-.02051-.30469-.04151-.45313-.07178-.14941-.03076-.29492-.0708-.44141-.11133l-.15136-.0415-.20313-.688-.666.438-.11231-.06006c-.1416-.04932-.28418-.09863-.42285-.15723-.13281-.05566-.25977-.12011-.38867-.18457l-.15332-.07666-.05664-.71093-.7334.30371-.09668-.08008c-.12695-.07471-.25488-.14893-.37793-.23145-.12012-.08154-.23438-.16992-.34863-.25879l-.12989-.0996.083-.707-.77539.16016-.082-.09912c-.1084-.09619-.21777-.1919-.32031-.29443s-.19727-.21094-.293-.31934l-.11035-.12451.21582-.67871-.792.01025-.05567-.106c-.09082-.1167-.18066-.23388-.26367-.356-.084-.12451-.16016-.25489-.23633-.38477l-.07715-.13135.33887-.62841-.7793-.144-.03808-.12109c-.06543-.13086-.13184-.26172-.18946-.39746-.05957-.14209-.11035-.28906-.16113-.436l-.04883-.13867.45313-.55664-.73828-.30127-.01563-.13037c-.03906-.14307-.0791-.28662-.1084-.43311-.03027-.14941-.05078-.30224-.07226-.45459l-.02344-.16943.55371-.46728-.66308-.45459.01074-.12989c-.01074-.15478-.02149-.31006-.02149-.46777,0-.1582.01075-.31348.02149-.46875l.01074-.16455.63477-.34912-.56055-.57666.03711-.12989c.02148-.15283.042-.30517.07226-.45459.03028-.14794.06934-.292.10938-.436l.043-.15772L87.899,84.444l-.4375-.666.05567-.09912c.0498-.14648.10058-.293.16015-.43457.05664-.13379.12207-.26269.18653-.3916l.07519-.15088.71094-.05713-.30371-.73339.07812-.09278c.0752-.1289.15137-.25732.23438-.38086.082-.1206.16992-.23535.25879-.3501l.09961-.12939.707.083-.16016-.77588.083-.06348c.10156-.11474.20215-.23.31055-.33838.10156-.10254.21093-.19775.31933-.29345l.124-.10938.67871.21533-.00977-.7915.10254-.0542c.11817-.09082.23535-.18213.3584-.26562.124-.0835.25391-.15918.38281-.23487l.13379-.07861.62793.33935.14453-.77978.12891-.042c.1289-.06446.25586-.12891.38867-.18457.13867-.0586.28125-.10791.42285-.15723l.15332-.05322.55664.45215.30176-.7378.13086-.01562c.14258-.03906.28613-.07813.43164-.10791.15332-.03125.31055-.05274.4668-.07373l.15625-.02149.46875.55274.4541-.66358.12988.01075c.15528-.01026.30957-.021.46778-.021s.3125.01074.46777.021l.165.01123.34863.63427.57715-.55957.11816.03565c.15625.021.31348.04248.4668.07373.14453.02929.28613.06836.42773.10693l.167.04541.20117.688.667-.438.1084.05908c.14258.04932.28613.09912.42578.15821.13574.05761.26758.12353.39941.18994l.14258.07129.05664.71093.7334-.30371.09473.07862c.12793.07519.25683.15039.37988.2334.12305.08349.24024.1748.3584.26562l.12012.09277-.083.707.77539-.16016.083.1001c.1084.0957.21777.19091.31933.29345.1084.1084.209.22364.31055.33838l.0918.105-.21387.67871.791-.01025.06542.11865c.0879.1128.17481.22559.25489.34375.082.12158.15625.24854.23047.376l.082.13965-.33887.62842.7793.144.041.12695c.06446.12891.12989.25781.18653.3916.05957.1416.11035.28809.16015.43457l.04981.14063-.45313.55615.73828.30176.01465.12744c.04.144.0791.28809.10938.436.03027.14942.05078.30176.07226.45459l.02344.169-.55371.46729.66309.45459-.01075.12939c.01075.15527.02149.31055.02149.46875,0,.15771-.01074.313-.02149.46777l-.01074.165-.63476.34912.56054.57666-.03711.13037c-.02148.15235-.042.30518-.07226.45459-.0293.14649-.06934.28956-.1084.43311l-.04395.16064-.68847.20264.4375.6665-.05469.09717c-.05078.147-.10156.29395-.16113.436-.05762.13574-.124.2666-.18946.39746l-.07226.145-.71094.05713.30371.7334-.0791.09423c-.0752.12842-.15039.25684-.23242.37989-.08106.11963-.16992.23437-.25879.34863l-.10059.13037-.70605-.083.15918.77588-.085.06494c-.09961.11426-.20118.2295-.3086.33741-.10254.10253-.21191.19824-.32031.29443l-.12305.1084-.67871-.21533.00977.7915-.11231.061c-.11425.08887-.22851.17725-.34863.25879-.12109.082-.249.15625-.376.23047l-.14062.08252-.62793-.33935-.14453.77978-.11817.03662c-.13183.06641-.26367.13233-.39941.18994-.13965.05909-.2832.10889-.42578.15821l-.14942.05224-.55761-.45214-.30078.73779-.127.01416c-.14453.03955-.28906.07959-.43652.10986-.14844.03027-.30078.05127-.45313.07178l-.16992.02344-.46875-.55323-.4541.66407-.13867-.01075C97.78473,98.01,97.63336,98.02021,97.47809,98.02021Z" fill="#4d4d4d"/><path d="M97.47809,76.792c.15429,0,.31005.01061.46069.02088l.1228.008.3606.61632.06079.10389.08032-.0898.4751-.53232.11816.01627c.15112.0204.30737.04151.4563.072.146.02985.29175.07008.43286.109l.11231.03055.2185.67177.03833.11792.09839-.07551.5603-.43026.10889.03816c.13916.04825.283.09814.4187.15554.13452.05689.26441.12221.39429.18751l.10254.05124.07593.69782.01367.12564.11279-.05685.62793-.3162.09741.0574c.12671.07409.25342.14812.37451.23.12183.08231.238.17224.354.26205l.08471.06529-.06176.69782-.01123.127.1228-.03506.67407-.19279.08447.07485c.10914.09585.218.19167.32056.29431.103.10286.199.21215.29517.32143l.07422.08391-.19288.674-.03515.12264.1272-.01127.69775-.06182.06665.08662c.08936.11548.17871.23089.26074.35218.08155.12073.15747.25021.23072.37545l.05664.09657-.31617.6278-.05664.11285.12549.01366.69776.076.05151.103c.06518.12976.13061.25948.18725.39379.05738.13582.10743.27974.15552.41893l.03809.10872-.43018.56028-.07544.09832.11792.03836.67188.21859.03174.11724c.03833.13948.07812.2837.10742.42779.03076.14949.052.3065.07251.45832l.01587.11609-.53223.47537-.08984.08017.104.0608.61621.36079.00806.12243c.01025.15065.02075.30642.02075.46084s-.0105.3102-.02075.46085l-.00806.12241-.61621.3608-.104.0608.08984.08017.53223.47535-.01587.11607c-.02051.15184-.04175.30885-.07251.45842-.0293.144-.06909.28827-.10742.42776l-.03174.11721-.67188.21859-.11792.03836.07544.09833.43018.56027-.03809.10867c-.04809.1392-.09814.28315-.15552.41891-.05664.13439-.12207.2641-.18725.39386l-.05151.103-.69776.07595-.12549.01367.05664.11285.31617.6278-.05664.09657c-.07325.12523-.14917.25471-.23072.37549-.08178.12111-.17114.23638-.2605.35172l-.06689.087-.69775-.06179-.1272-.01126.03515.12264.19288.674-.07422.08376c-.09619.10934-.19214.21868-.29517.32164-.10229.10254-.21142.19831-.32031.29412l-.08472.075-.67407-.19279-.1228-.03507.01123.127.06176.69781-.08471.06522c-.116.08983-.23218.1798-.354.26214-.12133.08194-.248.156-.37475.2301l-.09717.05732-.62793-.3162-.11279-.05686-.01367.12564-.07593.69784-.10254.05123c-.12988.0653-.25977.13063-.39429.18752-.13574.05742-.27954.10733-.4187.15558l-.10889.03811-.5603-.43026-.09839-.07552-.03833.11792-.2185.67178-.11206.0305c-.14112.03892-.28711.07918-.43311.109-.14893.03045-.30518.05153-.456.07194l-.11841.01628-.4751-.53231-.08032-.0898-.06079.10389-.3606.61632-.1228.008c-.15064.01028-.3064.02089-.46069.02089s-.30982-.01061-.46045-.02087l-.12256-.008-.36084-.61632-.06079-.10386-.08033.08976-.47534.53232-.11914-.01642c-.15088-.02036-.30688-.04142-.45532-.07179-.14526-.02977-.29077-.06985-.4314-.10863l-.11377-.03093-.2185-.67177-.03833-.11792-.09839.07552-.5603.43026-.10791-.03778c-.13941-.04836-.28345-.09836-.41944-.15593-.13476-.05685-.26782-.12388-.39673-.18867l-.10009-.05-.07618-.69789-.01367-.12558-.11279.05683-.62793.3162-.09717-.05732c-.12671-.07411-.25342-.14816-.37475-.23011-.12085-.08166-.23609-.17082-.35108-.25994l-.08764-.06742.062-.69777.01123-.12707-.12281.03508-.67407.19279-.08252-.073c-.10962-.09649-.21948-.19291-.32275-.29619-.103-.10291-.199-.21225-.29517-.32159l-.07422-.08376.19288-.674.03515-.12264-.1272.01126-.69775.06179-.06689-.087c-.08936-.11534-.17872-.23061-.2605-.35169-.08155-.1211-.15552-.24759-.22949-.3741l-.05762-.098.31616-.6278.05664-.11285-.12549-.01367-.69775-.07595L87.9085,91.907c-.06542-.12986-.133-.26416-.19042-.3997-.05762-.13625-.10767-.28065-.156-.42031l-.0376-.10726.43042-.56025.07544-.09834-.11792-.03837-.67187-.21859L87.21,89.95175c-.03882-.14106-.0791-.28693-.10889-.43262-.03027-.14723-.051-.30185-.07129-.45138l-.01709-.12306.53223-.47534.08984-.08015-.104-.06082-.616-.36082-.00781-.11829c-.0105-.152-.02124-.30915-.02124-.465s.01074-.313.02124-.46493l.00781-.11832.616-.36081.104-.06081-.08984-.08016-.53223-.47535.01709-.12308c.02027-.14951.041-.30412.07129-.45132.02979-.14571.07007-.29158.10889-.43264l.03052-.11242.67187-.21859.11792-.03836-.07544-.09835-.43042-.56026.0376-.1073c.04834-.13963.09839-.284.15625-.42027.05713-.13552.12476-.26982.19018-.39969l.04859-.09719.69775-.076.12549-.01366-.05664-.11285-.31616-.6278.05762-.098c.074-.1265.14794-.253.22949-.37407.082-.12124.17138-.23665.26074-.35213l.06665-.08662.69775.06182.1272.01127-.03515-.12264-.19288-.674.07422-.08391c.09619-.10928.19214-.21857.29517-.32142.10327-.10323.21289-.1996.32251-.296l.08276-.07316.67407.1928.12281.03508-.01123-.12708-.062-.69778.08764-.0675c.11524-.08909.23023-.1782.35108-.25985.12109-.08191.2478-.15594.37451-.23l.09741-.0574.62793.3162.11279.05683.01367-.12559.07618-.69787.10009-.05c.12891-.06479.262-.13181.39673-.18868.136-.05753.28-.10751.41944-.15586l.10791-.03784.5603.43026.09839.07551.03833-.11792.2185-.67176.11377-.031c.14087-.03877.28614-.07883.4314-.10857.14844-.03038.30444-.05146.45532-.07182l.11914-.01641.47534.53233.08033.08976.06079-.10386.36084-.61632.12256-.008c.15063-.01026.30615-.02087.46045-.02087m0-.08763c-.21436,0-.42383.0196-.63526.03208l-.38428.65646-.50659-.56715c-.20923.03006-.4209.05358-.62622.09558-.20239.04144-.39795.10058-.59619.15328l-.23315.71677-.5979-.45911c-.19336.06889-.38941.13183-.5774.21136-.18652.07881-.364.17347-.54468.26239l-.08129.7454-.67041-.3377c-.17359.10352-.35083.20173-.51783.31459-.16626.11232-.32177.23855-.4812.35983l.06616.74566-.72021-.206c-.14966.13373-.30347.26283-.44531.40466s-.271.29567-.40479.44523l.20606.72021-.74561-.06607c-.12134.1594-.24756.31494-.35986.48123-.11279.16707-.21094.34422-.31446.51785l.33765.67048L87.9,82.68253c-.08911.18078-.18359.35833-.26245.54467-.07959.188-.14258.38421-.21143.5775l.45923.59787-.7168.23323c-.05273.19812-.11181.39367-.15332.59615-.042.20527-.06543.41687-.0957.62624l.56714.50646-.65625.38428c-.0127.21141-.03223.42086-.03223.63539s.01953.424.03223.63538l.65625.38429-.56714.50645c.03027.20939.05371.421.0957.62624.04151.20249.10059.398.15332.59616l.7168.23324-.45923.59785c.06885.19331.13184.3895.21143.57751.07886.18634.17334.36389.26245.54467l.74536.08112-.33765.67048c.10352.17363.20167.35078.31446.51784.1123.16629.23852.32177.35986.48119l.74561-.066-.20606.72022c.13379.14957.26294.3034.40479.44523s.29565.27093.44531.40465l.72021-.206-.06616.74564c.15943.1213.31494.24752.4812.35984.167.11287.34424.21108.51783.31458l.67041-.3377.08129.74541c.18067.08893.35816.18359.54468.26239.188.07953.384.14247.5774.21135l.5979-.45911.23315.71677c.19824.05272.3938.11184.59619.15329.20532.042.417.06551.62622.09557l.50659-.56715.38428.65647c.21143.01249.4209.03209.63526.03209.21459,0,.42407-.0196.63549-.03209l.38428-.65647.50635.56715c.20947-.03006.4209-.05357.62622-.09557.20264-.04145.39819-.10057.59619-.15329l.23315-.71677.5979.45911c.19336-.06888.38965-.13182.57764-.21135.18628-.0788.36377-.17346.54468-.26239l.081-.74541.67041.3377c.17359-.1035.35083-.20171.51783-.31458.16626-.11232.322-.23858.4812-.35984l-.06592-.74564.72021.206c.14942-.13369.30347-.26284.44507-.40465.14185-.14183.271-.29566.40479-.44523l-.20606-.72022.74561.066c.12134-.15942.24756-.3149.35986-.48119.113-.16706.21118-.34421.3147-.51784l-.33765-.67048.74536-.08112c.08887-.18078.1836-.35833.26246-.54467.07934-.188.14233-.3842.21118-.57751l-.459-.59785.7168-.23324c.05249-.19812.11182-.39367.15308-.59616.042-.20525.06567-.41685.0957-.62624l-.56714-.50645.65649-.38429c.01246-.2114.032-.42086.032-.63538s-.01953-.424-.032-.63539l-.65649-.38428.56714-.50646c-.03-.20937-.05371-.421-.0957-.62624-.04126-.20248-.10059-.398-.15308-.59615l-.7168-.23323.459-.59787c-.06885-.19329-.13184-.38948-.21118-.5775-.07886-.18634-.17359-.36389-.26246-.54467l-.74536-.08111.33765-.67048c-.10352-.17363-.20166-.35078-.3147-.51785-.1123-.16629-.23852-.32183-.35986-.48123l-.74561.06607.20606-.72021c-.13379-.14956-.26294-.30341-.40479-.44523-.1416-.14183-.29565-.271-.44507-.40466l-.72021.206.06592-.74566c-.15918-.12125-.31494-.24751-.4812-.35983-.167-.11286-.34424-.21107-.51783-.31459l-.67041.3377-.081-.7454c-.18091-.08892-.3584-.18358-.54468-.26239-.188-.07953-.38428-.14247-.57764-.21136l-.5979.45911-.23315-.71677c-.198-.0527-.39355-.11184-.59619-.15328-.20532-.042-.41675-.06552-.62622-.09558l-.50635.56715-.38428-.65646c-.21142-.01248-.4209-.03208-.63549-.03208Z" fill="#333"/><circle cx="97.47813" cy="87.38432" r="8.41449" fill="#666" stroke="#000" stroke-miterlimit="1" stroke-width="0.08763"/><rect x="50.55115" y="19.13863" width="93.20668" height="24.59621" rx="0.43813" ry="0.43813" stroke="#333" stroke-miterlimit="10" stroke-width="0.08763"/><path d="M413.4165,28.7666a1.86255,1.86255,0,1,1,1.8628-1.8623A1.86444,1.86444,0,0,1,413.4165,28.7666Z" fill="#e6e6e6"/><path d="M413.41658,25.09143a1.8128,1.8128,0,1,1-1.8128,1.81279,1.81279,1.81279,0,0,1,1.8128-1.81279m0-.1a1.91281,1.91281,0,1,0,1.9128,1.9128,1.915,1.915,0,0,0-1.9128-1.9128Z"/><circle cx="202.62012" cy="26.95752" r="2.5498" fill="#ff4621"/><path d="M202.62036,24.45775a2.5,2.5,0,1,1-2.5,2.5,2.5,2.5,0,0,1,2.5-2.5m0-.1a2.6,2.6,0,1,0,2.6,2.6,2.603,2.603,0,0,0-2.6-2.6Z"/><circle cx="257.00439" cy="94.58203" r="2.5498" fill="#ff4621"/><path d="M257.00427,92.082a2.5,2.5,0,1,1-2.5,2.5,2.5,2.5,0,0,1,2.5-2.5m0-.1a2.6,2.6,0,1,0,2.6,2.6,2.60295,2.60295,0,0,0-2.6-2.6Z"/><circle cx="413.4165" cy="26.9043" r="2.5498" fill="#ff4621"/><path d="M413.41658,24.40422a2.5,2.5,0,1,1-2.5,2.5,2.5,2.5,0,0,1,2.5-2.5m0-.1a2.6,2.6,0,1,0,2.6,2.6,2.603,2.603,0,0,0-2.6-2.6Z"/><circle cx="385.62012" cy="122.43164" r="2.5498" fill="#ff4621"/><path d="M385.62036,119.93173a2.5,2.5,0,1,1-2.5,2.5,2.5,2.5,0,0,1,2.5-2.5m0-.1a2.6,2.6,0,1,0,2.6,2.6,2.60294,2.60294,0,0,0-2.6-2.6Z"/><rect x="197.06888" y="18.82552" width="30" height="16" rx="4" ry="4" fill="none" stroke="#57caff" stroke-miterlimit="10" stroke-width="2" stroke-dasharray="2.02609 1.01305"/><rect x="251.87038" y="86.58198" width="30" height="16" rx="4" ry="4" fill="none" stroke="#57caff" stroke-miterlimit="10" stroke-width="2" stroke-dasharray="2.02609 1.01305"/><rect x="407.06888" y="18.82552" width="30" height="16" rx="4" ry="4" fill="none" stroke="#57caff" stroke-miterlimit="10" stroke-width="2" stroke-dasharray="2.02609 1.01305"/><path d="M416.7793,110.19336h.82177l.72705,2.00684c.0879.25732.17579.5332.26368.80273h.0249c.08789-.26953.16943-.54541.25732-.80273l.7085-2.00684h.82812v4.10156h-.67138v-1.875c0-.38281.05664-.92822.09424-1.30469h-.02491l-.33252.95313-.67089,1.84424h-.43311l-.67725-1.84424-.32617-.95313h-.0249c.03125.37647.09424.92188.09424,1.30469v1.875h-.65869Z" fill="#dcddde"/><path d="M421.28711,113.46729c0-.6587.54541-1.00342,1.8125-1.14161-.0127-.32617-.14453-.60205-.56445-.60205a1.75449,1.75449,0,0,0-.86573.30127l-.26318-.48291a2.40551,2.40551,0,0,1,1.2666-.40137c.76514,0,1.148.47022,1.148,1.32911v1.82519h-.59619l-.04981-.33887h-.02539a1.4967,1.4967,0,0,1-.95312.41407A.86051.86051,0,0,1,421.28711,113.46729Zm1.8125,0v-.69c-.84082.10645-1.1167.32618-1.1167.6333,0,.27588.18848.395.44531.395A.98112.98112,0,0,0,423.09961,113.46729Z" fill="#dcddde"/><path d="M424.54736,112.7583a1.51855,1.51855,0,0,1,1.54248-1.61768,1.32839,1.32839,0,0,1,.90332.34473l-.35156.47022a.75343.75343,0,0,0-.51416-.22559c-.49512,0-.84033.40772-.84033,1.02832,0,.61475.33887,1.02246.82178,1.02246a1.02579,1.02579,0,0,0,.6333-.26367l.29492.47656a1.53763,1.53763,0,0,1-1.00342.37647A1.465,1.465,0,0,1,424.54736,112.7583Z" fill="#dcddde"/><path d="M427.70752,111.21582h.5957l.0503.54541h.0249a1.04517,1.04517,0,0,1,.87158-.62061.78084.78084,0,0,1,.35107.0625l-.125.627a1.01276,1.01276,0,0,0-.31982-.04981c-.24463,0-.53955.16895-.72754.6333v1.88135h-.72119Z" fill="#dcddde"/><path d="M429.84521,112.7583a1.47111,1.47111,0,1,1,1.46094,1.61182A1.48919,1.48919,0,0,1,429.84521,112.7583Zm2.18848,0c0-.6206-.27588-1.02832-.72754-1.02832s-.72119.40772-.72119,1.02832c0,.61475.26953,1.02246.72119,1.02246S432.03369,113.37305,432.03369,112.7583Z" fill="#dcddde"/><path d="M434.71631,112.25684a1.9253,1.9253,0,0,1,1.87549-2.13868,1.62846,1.62846,0,0,1,1.18506.52051l-.38868.47022a1.07132,1.07132,0,0,0-.77783-.35743c-.6709,0-1.14746.56446-1.14746,1.48633,0,.93457.439,1.499,1.12891,1.499a1.16792,1.16792,0,0,0,.87793-.42041l.38867.458a1.65456,1.65456,0,0,1-1.292.59571A1.87535,1.87535,0,0,1,434.71631,112.25684Z" fill="#dcddde"/><path d="M438.34033,112.7583a1.4711,1.4711,0,1,1,1.46094,1.61182A1.48919,1.48919,0,0,1,438.34033,112.7583Zm2.18848,0c0-.6206-.27588-1.02832-.72754-1.02832s-.72119.40772-.72119,1.02832c0,.61475.26953,1.02246.72119,1.02246S440.52881,113.37305,440.52881,112.7583Z" fill="#dcddde"/><path d="M442.0459,111.21582h.5957l.04981.41357h.02539a1.43,1.43,0,0,1,1.00976-.48877c.65821,0,.94678.44483.94678,1.22266v1.93164h-.72119v-1.8374c0-.5083-.144-.69629-.48291-.69629a.975.975,0,0,0-.70215.38281v2.15088h-.72119Z" fill="#dcddde"/><path d="M445.72607,113.25391v-1.46729h-.439v-.53955l.47656-.03125.08789-.84033h.60205v.84033h.78369v.5708h-.78369v1.46729c0,.36377.1377.53955.43262.53955a.88471.88471,0,0,0,.31982-.06934l.12549.5332a1.96319,1.96319,0,0,1-.627.1128C445.98926,114.37012,445.72607,113.91846,445.72607,113.25391Z" fill="#dcddde"/><path d="M447.9458,111.21582h.5957l.0503.54541h.0249a1.04517,1.04517,0,0,1,.87158-.62061.78088.78088,0,0,1,.35108.0625l-.125.627a1.01287,1.01287,0,0,0-.31983-.04981c-.24463,0-.53955.16895-.72754.6333v1.88135h-.72119Z" fill="#dcddde"/><path d="M450.0835,112.7583a1.4711,1.4711,0,1,1,1.46093,1.61182A1.48919,1.48919,0,0,1,450.0835,112.7583Zm2.18847,0c0-.6206-.27588-1.02832-.72754-1.02832s-.72119.40772-.72119,1.02832c0,.61475.26953,1.02246.72119,1.02246S452.272,113.37305,452.272,112.7583Z" fill="#dcddde"/><path d="M453.78906,113.50488v-3.63769h.72119v3.67529c0,.17529.08155.23828.15674.23828a.42788.42788,0,0,0,.1128-.01269l.09423.53955a.9874.9874,0,0,1-.38281.0625C453.97705,114.37012,453.78906,114.0376,453.78906,113.50488Z" fill="#dcddde"/><path d="M455.24316,113.94385l.33887-.46436a1.36907,1.36907,0,0,0,.853.34522c.332,0,.48877-.15674.48877-.37012,0-.25732-.332-.37012-.65821-.49561-.40771-.15039-.86572-.38232-.86572-.89648,0-.53955.43311-.92188,1.12256-.92188a1.663,1.663,0,0,1,1.02246.36963l-.33252.439a1.14654,1.14654,0,0,0-.67724-.26318c-.30713,0-.45166.144-.45166.33886,0,.24414.30761.33838.63964.45752.42041.15674.88428.35742.88428.93457,0,.52686-.41992.95313-1.19775.95313A1.951,1.951,0,0,1,455.24316,113.94385Z" fill="#dcddde"/><path d="M394.21826,130.127a3.48952,3.48952,0,1,1,3.49805,3.49805A3.49239,3.49239,0,0,1,394.21826,130.127Zm1.68555,1.90039h1.06885l.19824-.83691h1.09619l.19824.83691h1.10694l-1.17872-3.94384h-1.311Zm2.21973-1.6416-.07666-.27539c-.105-.37451-.19874-.77637-.28126-1.16748h-.10449c-.07715.39649-.15967.793-.26465,1.16748l-.07714.27539Z" fill="#e6e6e6"/><path d="M422.01416,130.127a3.48951,3.48951,0,1,1,3.498,3.49805A3.49239,3.49239,0,0,1,422.01416,130.127Zm2.12646,1.90039h1.542c.84863,0,1.55371-.35254,1.55371-1.16211a.90147.90147,0,0,0-.67774-.92529v-.022a.94156.94156,0,0,0,.49561-.854c0-.77685-.6665-.98046-1.49268-.98046h-1.4209Zm1.041-2.40136v-.74366h.35254c.34131,0,.501.09913.501.34131s-.15967.40235-.501.40235Zm0,1.60254v-.83692h.42969c.41308,0,.606.10449.606.39649s-.19288.44043-.606.44043Z" fill="#e6e6e6"/><path d="M448.60205,130.127a3.48951,3.48951,0,1,1,3.498,3.49805A3.49239,3.49239,0,0,1,448.60205,130.127Zm4.93018,1.39356-.54541-.65528a.98559.98559,0,0,1-.71631.33594c-.51221,0-.85352-.41308-.85352-1.15137,0-.71582.40186-1.14013.86475-1.14013a.96041.96041,0,0,1,.65527.292l.54541-.67187a1.76416,1.76416,0,0,0-1.228-.52344,1.92932,1.92932,0,0,0-1.90625,2.082,1.83787,1.83787,0,0,0,1.88379,2.01611A1.67577,1.67577,0,0,0,453.53223,131.52051Z" fill="#e6e6e6"/><path d="M476.39844,130.127a3.48951,3.48951,0,1,1,3.498,3.49805A3.49239,3.49239,0,0,1,476.39844,130.127Zm2.28613,1.90039h1.228a1.97231,1.97231,0,1,0-.06055-3.94384h-1.16748Zm1.04639-.83691V128.9209h.06054c.56739,0,1.019.19238,1.019,1.11816,0,.91992-.45166,1.15137-1.019,1.15137Z" fill="#e6e6e6"/><rect x="384.97046" y="110.13654" width="20" height="31" rx="4" ry="4" transform="translate(520.60701 -269.33392) rotate(90)" fill="none" stroke="#57caff" stroke-miterlimit="10" stroke-width="2"/></svg>