<?xml version="1.0" encoding="utf-8"?>
<!-- Generator: Adobe Illustrator 21.1.0, SVG Export Plug-In . SVG Version: 6.00 Build 0)  -->
<svg version="1.1" xmlns="http://www.w3.org/2000/svg" xmlns:xlink="http://www.w3.org/1999/xlink" x="0px" y="0px"
	 viewBox="0 0 154 54" style="enable-background:new 0 0 154 54;" xml:space="preserve">
<style type="text/css">
	.st0{fill:#202020;}
	.st1{fill:#1A1A1A;}
	.st2{fill:#898A8C;}
	.st3{fill:#323232;}
	.st4{fill:#343434;}
	.st5{fill:#CCCCCC;}
	.st6{fill:#E6E6E6;}
	.st7{fill:#575757;}
	.st8{fill:#B3B3B3;}
	.st9{fill:none;stroke:#000000;stroke-width:0.5476519;}
	.st10{fill:none;stroke:#FFFFFF;stroke-width:0.2738259;}
	.st11{fill:#F2F2F2;}
	.st12{fill:#E6E6E6;stroke:#000000;stroke-width:0.136913;}
	.st13{fill:#808080;}
	.st14{fill:#CC0E2B;}
	.st15{fill:#B27D50;}
	.st16{fill:#ED964E;}
	.st17{fill:none;stroke:#F2F2F2;stroke-width:0.2738259;}
	.st18{fill:#FFA55C;}
	.st19{fill:#202020;stroke:#000000;stroke-width:0.136913;}
	.st20{fill:#FFA55C;stroke:#000000;stroke-width:0.136913;}
	.st21{fill:none;stroke:#000000;stroke-width:0.136913;}
	.st22{fill:#CED2D9;}
	.st23{fill:#CCCCCC;stroke:#000000;stroke-width:0.136913;}
	.st24{fill:#1A1A1A;stroke:#000000;stroke-width:0.136913;}
	.st25{fill:#473D35;}
	.st26{fill:#A68D7B;}
	.st27{fill:none;stroke:#000000;stroke-width:0.489873;}
	.st28{fill:none;stroke:#F2F2F2;stroke-width:0.2449365;}
	.st29{fill:#202020;stroke:#000000;stroke-width:0.1224683;}
	.st30{fill:#666666;}
	.st31{fill:#999999;}
	.st32{fill:none;stroke:#000000;stroke-width:0.1224683;}
	.st33{fill:none;stroke:#FFFFFF;stroke-width:0.2449365;}
	.st34{fill:none;stroke:#000000;stroke-width:0.6599171;}
	.st35{fill:none;stroke:#F2F2F2;stroke-width:0.3299585;}
	.st36{fill:#202020;stroke:#000000;stroke-width:0.1649793;}
	.st37{fill:#999999;stroke:#999999;}
	.st38{fill:none;stroke:#000000;stroke-width:0.1649793;}
	.st39{fill:none;stroke:#000000;stroke-width:0.2738259;}
	.st40{stroke:#000000;stroke-width:0.5476519;}
	.st41{fill:#4E4F52;}
	.st42{fill:#ACB0B5;}
	.st43{fill:#A8925B;}
	.st44{fill:#D4C37F;}
	.st45{fill:#474133;}
	.st46{fill:#A69771;}
	.st47{fill:#F0D878;}
	.st48{fill:#F0D878;stroke:#000000;stroke-width:0.136913;}
	.st49{stroke:#F2F2F2;stroke-width:0.2738259;}
	.st50{fill:#537355;}
	.st51{fill:#313D33;stroke:#78967D;stroke-width:0.2738259;}
	.st52{fill:#78967D;}
	.st53{fill:#8FC97D;}
	.st54{fill:#313D33;}
	.st55{fill:#9DD98B;}
	.st56{fill:#6B84B2;}
	.st57{fill:#95B7ED;}
	.st58{fill:#A1C2FF;}
	.st59{fill:#A1C2FF;stroke:#000000;stroke-width:0.136913;}
	.st60{fill:#54838A;}
	.st61{fill:#79BDB9;}
	.st62{fill:none;stroke:#000000;stroke-width:0.1430568;}
	.st63{fill:none;stroke:#F2F2F2;stroke-width:0.0715284;}
	.st64{fill:#1A1A1A;stroke:#000000;stroke-width:0.0357642;}
	.st65{fill:#74D4CF;}
	.st66{fill:#202020;stroke:#000000;stroke-width:0.0357642;}
	.st67{fill:none;stroke:#FFFFFF;stroke-width:0.0715284;}
	.st68{stroke:#000000;stroke-width:0.1430568;}
	.st69{fill:#FFA55C;stroke:#000000;stroke-width:0.0357642;}
	.st70{fill:#A1C2FF;stroke:#000000;stroke-width:0.0357642;}
	.st71{fill:#CCCCCC;stroke:#000000;stroke-width:0.0357642;}
	.st72{stroke:#F2F2F2;stroke-width:0.0715284;}
	.st73{fill:none;stroke:#000000;stroke-width:0.0357642;}
	.st74{fill:#F0D878;stroke:#000000;stroke-width:0.0357642;}
	.st75{fill:none;stroke:#000000;stroke-width:0.0715284;}
	.st76{fill:#2A3635;stroke:#659C97;stroke-width:0.2738259;}
	.st77{fill:#659C97;}
	.st78{fill:none;stroke:#666666;stroke-width:0.2738259;stroke-miterlimit:10;}
	.st79{fill:#B3B3B3;stroke:#FFFFFF;stroke-width:0.3374494;stroke-miterlimit:10;}
	.st80{fill:#CCCCCC;stroke:#666666;stroke-width:0.1703048;stroke-miterlimit:10;}
	.st81{fill:#FFFFFF;}
	.st82{fill:#1A1A1A;stroke:#000000;stroke-width:0.0851524;stroke-miterlimit:10;}
	.st83{fill:#1A1A1A;stroke:#000000;stroke-width:0.1201595;stroke-miterlimit:10;}
	.st84{fill:#414141;}
	.st85{fill:#E6E6E6;stroke:#252525;stroke-width:0.1676993;stroke-miterlimit:10;}
	.st86{fill:#808080;stroke:#252525;stroke-width:0.1676993;stroke-miterlimit:10;}
	.st87{fill:#1A1A1A;stroke:#252525;stroke-width:0.1676993;stroke-miterlimit:10;}
	.st88{fill:#282828;}
	.st89{fill:url(#SVGID_1_);stroke:#252525;stroke-width:0.1397494;stroke-miterlimit:10;}
	.st90{fill:url(#SVGID_2_);stroke:#252525;stroke-width:0.1397494;stroke-miterlimit:10;}
	.st91{fill:url(#SVGID_3_);stroke:#252525;stroke-width:0.1397494;stroke-miterlimit:10;}
	.st92{fill:url(#SVGID_4_);stroke:#252525;stroke-width:0.1397494;stroke-miterlimit:10;}
	.st93{fill:url(#SVGID_5_);stroke:#252525;stroke-width:0.1397494;stroke-miterlimit:10;}
	.st94{fill:url(#SVGID_6_);stroke:#252525;stroke-width:0.1397494;stroke-miterlimit:10;}
	.st95{fill:url(#SVGID_7_);stroke:#252525;stroke-width:0.1397494;stroke-miterlimit:10;}
	.st96{fill:url(#SVGID_8_);stroke:#252525;stroke-width:0.1397494;stroke-miterlimit:10;}
	.st97{fill:url(#SVGID_9_);stroke:#252525;stroke-width:0.1397494;stroke-miterlimit:10;}
	.st98{fill:url(#SVGID_10_);stroke:#252525;stroke-width:0.1397494;stroke-miterlimit:10;}
	.st99{fill:url(#SVGID_11_);stroke:#252525;stroke-width:0.1397494;stroke-miterlimit:10;}
	.st100{fill:url(#SVGID_12_);stroke:#252525;stroke-width:0.1397494;stroke-miterlimit:10;}
	.st101{opacity:0.64;fill:#1A1A1A;}
	.st102{fill:#CC0E2B;stroke:#252525;stroke-width:0.1676993;stroke-miterlimit:10;}
	.st103{fill:url(#SVGID_13_);stroke:#252525;stroke-width:0.1397494;stroke-miterlimit:10;}
	.st104{fill:url(#SVGID_14_);stroke:#252525;stroke-width:0.1397494;stroke-miterlimit:10;}
	.st105{fill:url(#SVGID_15_);stroke:#252525;stroke-width:0.1397494;stroke-miterlimit:10;}
	.st106{fill:url(#SVGID_16_);stroke:#252525;stroke-width:0.1397494;stroke-miterlimit:10;}
	.st107{fill:url(#SVGID_17_);stroke:#252525;stroke-width:0.1397494;stroke-miterlimit:10;}
	.st108{fill:url(#SVGID_18_);stroke:#252525;stroke-width:0.1397494;stroke-miterlimit:10;}
	.st109{fill:url(#SVGID_19_);stroke:#252525;stroke-width:0.1397494;stroke-miterlimit:10;}
	.st110{fill:url(#SVGID_20_);stroke:#252525;stroke-width:0.1397494;stroke-miterlimit:10;}
	.st111{fill:url(#SVGID_21_);stroke:#252525;stroke-width:0.1397494;stroke-miterlimit:10;}
	.st112{fill:url(#SVGID_22_);stroke:#252525;stroke-width:0.1397494;stroke-miterlimit:10;}
	.st113{fill:url(#SVGID_23_);stroke:#252525;stroke-width:0.1397494;stroke-miterlimit:10;}
	.st114{fill:url(#SVGID_24_);stroke:#252525;stroke-width:0.1397494;stroke-miterlimit:10;}
	.st115{clip-path:url(#SVGID_26_);}
	.st116{fill:#E6E6E6;stroke:#252525;stroke-width:0.3440539;stroke-miterlimit:10;}
	.st117{fill:url(#SVGID_27_);stroke:#252525;stroke-width:0.2867116;stroke-miterlimit:10;}
	.st118{fill:url(#SVGID_28_);stroke:#000000;stroke-width:0.1149604;stroke-miterlimit:10;}
	.st119{fill:#252525;}
	.st120{fill:#030303;}
	.st121{fill:#070707;}
	.st122{fill:#0A0A0A;}
	.st123{fill:#0D0D0D;}
	.st124{fill:#111111;}
	.st125{fill:#141414;}
	.st126{fill:#181818;}
	.st127{fill:#1B1B1B;}
	.st128{fill:#1E1E1E;}
	.st129{fill:#222222;}
	.st130{fill:#242424;}
	.st131{fill:#232323;}
	.st132{fill:#212121;}
	.st133{fill:#1F1F1F;}
	.st134{fill:#1D1D1D;}
	.st135{fill:#1C1C1C;}
	.st136{fill:#292929;}
	.st137{fill:#2C2C2C;}
	.st138{fill:#303030;}
	.st139{fill:#373737;}
	.st140{fill:#3B3B3B;}
	.st141{fill:#3E3E3E;}
	.st142{fill:#424242;}
	.st143{fill:#464646;}
	.st144{fill:#494949;}
	.st145{fill:#4D4D4D;}
	.st146{stroke:#808080;stroke-width:0.0574802;stroke-miterlimit:10;}
	.st147{fill:url(#SVGID_29_);stroke:#252525;stroke-width:0.0287401;stroke-miterlimit:10;}
	.st148{fill:url(#SVGID_30_);stroke:#252525;stroke-width:0.0287401;stroke-miterlimit:10;}
	.st149{fill:url(#SVGID_31_);stroke:#252525;stroke-width:0.0287401;stroke-miterlimit:10;}
	.st150{fill:url(#SVGID_32_);stroke:#252525;stroke-width:0.0287401;stroke-miterlimit:10;}
	.st151{fill:url(#SVGID_33_);stroke:#252525;stroke-width:0.0287401;stroke-miterlimit:10;}
	.st152{fill:url(#SVGID_34_);stroke:#252525;stroke-width:0.0287401;stroke-miterlimit:10;}
	.st153{fill:url(#SVGID_35_);stroke:#252525;stroke-width:0.0287401;stroke-miterlimit:10;}
	.st154{fill:url(#SVGID_36_);stroke:#252525;stroke-width:0.0287401;stroke-miterlimit:10;}
	.st155{fill:url(#SVGID_37_);stroke:#252525;stroke-width:0.0287401;stroke-miterlimit:10;}
	.st156{fill:url(#SVGID_38_);stroke:#252525;stroke-width:0.0287401;stroke-miterlimit:10;}
	.st157{fill:url(#SVGID_39_);stroke:#252525;stroke-width:0.0287401;stroke-miterlimit:10;}
	.st158{fill:url(#SVGID_40_);stroke:#252525;stroke-width:0.0287401;stroke-miterlimit:10;}
	.st159{fill:url(#SVGID_41_);stroke:#252525;stroke-width:0.0287401;stroke-miterlimit:10;}
	.st160{fill:url(#SVGID_42_);stroke:#252525;stroke-width:0.0287401;stroke-miterlimit:10;}
	.st161{fill:url(#SVGID_43_);stroke:#252525;stroke-width:0.0287401;stroke-miterlimit:10;}
	.st162{fill:url(#SVGID_44_);stroke:#252525;stroke-width:0.0287401;stroke-miterlimit:10;}
	.st163{fill:url(#SVGID_45_);stroke:#252525;stroke-width:0.0287401;stroke-miterlimit:10;}
	.st164{fill:url(#SVGID_46_);stroke:#252525;stroke-width:0.0287401;stroke-miterlimit:10;}
	.st165{stroke:#808080;stroke-width:0.0688534;stroke-miterlimit:10;}
	.st166{fill:url(#SVGID_47_);stroke:#252525;stroke-width:0.2828392;stroke-miterlimit:10;}
	.st167{fill:url(#SVGID_48_);stroke:#252525;stroke-width:0.2828392;stroke-miterlimit:10;}
	.st168{fill:url(#SVGID_49_);stroke:#252525;stroke-width:0.2828392;stroke-miterlimit:10;}
	.st169{fill:url(#SVGID_50_);stroke:#252525;stroke-width:0.2828392;stroke-miterlimit:10;}
	.st170{fill:url(#SVGID_51_);stroke:#252525;stroke-width:0.2828392;stroke-miterlimit:10;}
	.st171{fill:url(#SVGID_52_);stroke:#252525;stroke-width:0.2828392;stroke-miterlimit:10;}
	.st172{fill:url(#SVGID_53_);stroke:#252525;stroke-width:0.2828392;stroke-miterlimit:10;}
	.st173{fill:url(#SVGID_54_);stroke:#252525;stroke-width:0.2828392;stroke-miterlimit:10;}
	.st174{fill:none;stroke:#000000;stroke-width:0.5903131;}
	.st175{fill:none;stroke:#F2F2F2;stroke-width:0.2951565;}
	.st176{fill:#202020;stroke:#000000;stroke-width:0.1475783;}
	.st177{fill:none;stroke:#000000;stroke-width:0.1475783;}
	.st178{fill:none;stroke:#808080;stroke-width:0.8;stroke-miterlimit:10;}
	.st179{fill:#363636;}
	.st180{fill:#4E4E4E;}
	.st181{clip-path:url(#SVGID_56_);}
	.st182{clip-path:url(#SVGID_58_);fill:#4D4D4D;}
	.st183{clip-path:url(#SVGID_58_);}
	.st184{clip-path:url(#SVGID_58_);fill:#666666;}
	.st185{clip-path:url(#SVGID_58_);fill:none;stroke:#CCCCCC;stroke-width:2;stroke-miterlimit:10;}
	.st186{clip-path:url(#SVGID_60_);}
	.st187{clip-path:url(#SVGID_62_);fill:#4D4D4D;}
	.st188{clip-path:url(#SVGID_62_);}
	.st189{clip-path:url(#SVGID_62_);fill:#666666;}
	.st190{clip-path:url(#SVGID_62_);fill:none;stroke:#CCCCCC;stroke-width:2;stroke-miterlimit:10;}
	.st191{clip-path:url(#SVGID_64_);}
	.st192{clip-path:url(#SVGID_66_);fill:#4D4D4D;}
	.st193{clip-path:url(#SVGID_66_);}
	.st194{clip-path:url(#SVGID_66_);fill:none;stroke:#000000;stroke-width:0.2;stroke-miterlimit:10;}
	.st195{fill:#CBCBCB;}
	.st196{fill:#989898;}
	.st197{clip-path:url(#SVGID_68_);}
	.st198{clip-path:url(#SVGID_70_);fill:#4D4D4D;}
	.st199{clip-path:url(#SVGID_72_);}
	.st200{clip-path:url(#SVGID_74_);fill:#4D4D4D;}
	.st201{clip-path:url(#SVGID_74_);fill:#666666;}
	.st202{clip-path:url(#SVGID_76_);}
	.st203{clip-path:url(#SVGID_78_);fill:#4D4D4D;}
	.st204{clip-path:url(#SVGID_78_);}
	.st205{clip-path:url(#SVGID_80_);}
	.st206{clip-path:url(#SVGID_82_);fill:#4D4D4D;}
	.st207{clip-path:url(#SVGID_82_);}
	.st208{clip-path:url(#SVGID_84_);}
	.st209{clip-path:url(#SVGID_86_);fill:#4D4D4D;}
	.st210{clip-path:url(#SVGID_86_);}
	.st211{clip-path:url(#SVGID_88_);}
	.st212{clip-path:url(#SVGID_90_);fill:#76839C;}
	.st213{clip-path:url(#SVGID_90_);fill:#1A1A1A;}
	.st214{clip-path:url(#SVGID_90_);fill:none;stroke:#E6E6E6;stroke-width:9;stroke-miterlimit:10;}
	.st215{clip-path:url(#SVGID_90_);fill:#E6E6E6;}
	.st216{clip-path:url(#SVGID_90_);fill:none;stroke:#1A1A1A;stroke-width:3;stroke-miterlimit:10;}
	.st217{fill:none;stroke:#000000;stroke-width:0.5827067;stroke-miterlimit:10;}
	.st218{fill:none;stroke:#FFFFFF;stroke-width:0.1942356;stroke-miterlimit:10;}
	.st219{fill:#E5E5E5;}
	.st220{fill:#7F7F7F;}
	.st221{clip-path:url(#SVGID_92_);}
	.st222{clip-path:url(#SVGID_94_);fill:#1A1A1A;}
	.st223{clip-path:url(#SVGID_94_);}
	.st224{clip-path:url(#SVGID_94_);fill:#CCCCCC;}
	.st225{clip-path:url(#SVGID_94_);fill:#FFFFFF;}
	.st226{clip-path:url(#SVGID_94_);fill:#E6E6E6;}
	.st227{clip-path:url(#SVGID_94_);fill:none;stroke:#000000;stroke-width:0.2;stroke-miterlimit:10;}
	.st228{fill:#A65E44;}
	.st229{fill:#FF6B36;}
</style>
<g id="BG">
</g>
<g id="Layer_1">
	<rect class="st0" width="154" height="54"/>
	<g>
		<g>
			<path class="st84" d="M5.4869699,25.8583984c-0.3852539,0-0.6987305-0.3134766-0.6987305-0.6987305V4.359375
				c0-0.3852539,0.3134766-0.6987305,0.6987305-0.6987305h142.9150391c0.3852539,0,0.6987305,0.3134766,0.6987305,0.6987305
				v20.800293c0,0.3852539-0.3134766,0.6987305-0.6987305,0.6987305H5.4869699z"/>
			<path class="st8" d="M148.401886,3.8004761c0.3087311,0,0.5590057,0.2503052,0.5590057,0.559021v20.8001099
				c0,0.3087158-0.2502747,0.55896-0.5590057,0.55896H5.4867411c-0.3087311,0-0.5589981-0.2502441-0.5589981-0.55896V4.3594971
				c0-0.3087158,0.250267-0.559021,0.5589981-0.559021H148.401886 M148.401886,3.5209961H5.4867411
				c-0.4623489,0-0.8384933,0.3761597-0.8384933,0.838501v20.8001099c0,0.4623413,0.3761444,0.8384399,0.8384933,0.8384399
				H148.401886c0.4623413,0,0.8384857-0.3760986,0.8384857-0.8384399V4.3594971
				C149.2403717,3.8971558,148.8642273,3.5209961,148.401886,3.5209961L148.401886,3.5209961z"/>
		</g>
		<g>
			<path class="st84" d="M5.4869699,49.8637695c-0.3852539,0-0.6987305-0.3134766-0.6987305-0.6987305V28.3652344
				c0-0.3852539,0.3134766-0.6987305,0.6987305-0.6987305h69.8544922c0.3852539,0,0.6987305,0.3134766,0.6987305,0.6987305
				v20.7998047c0,0.3852539-0.3134766,0.6987305-0.6987305,0.6987305H5.4869699z"/>
			<path class="st22" d="M75.3415985,27.8060303c0.3087158,0,0.5589905,0.2502441,0.5589905,0.559021v20.8000488
				c0,0.3087158-0.2502747,0.559021-0.5589905,0.559021H5.4867334c-0.3087234,0-0.5589905-0.2503052-0.5589905-0.559021V28.3650513
				c0-0.3087769,0.250267-0.559021,0.5589905-0.559021H75.3415985 M75.3415985,27.5265503H5.4867334
				c-0.4623413,0-0.8384933,0.3761597-0.8384933,0.838501v20.8000488c0,0.4623413,0.376152,0.838501,0.8384933,0.838501h69.854866
				c0.4623413,0,0.8384857-0.3761597,0.8384857-0.838501V28.3650513
				C76.1800842,27.90271,75.8039398,27.5265503,75.3415985,27.5265503L75.3415985,27.5265503z"/>
		</g>
		<g>
			<path class="st84" d="M78.5470276,49.8637695c-0.3852539,0-0.6987305-0.3134766-0.6987305-0.6987305V28.3652344
				c0-0.3852539,0.3134766-0.6987305,0.6987305-0.6987305h69.8549805c0.3852539,0,0.6987305,0.3134766,0.6987305,0.6987305
				v20.7998047c0,0.3852539-0.3134766,0.6987305-0.6987305,0.6987305H78.5470276z"/>
			<path class="st8" d="M148.401886,27.8060303c0.3087311,0,0.5590057,0.2502441,0.5590057,0.559021v20.8000488
				c0,0.3087158-0.2502747,0.559021-0.5590057,0.559021H78.5470276c-0.3087311,0-0.5589905-0.2503052-0.5589905-0.559021V28.3650513
				c0-0.3087769,0.2502594-0.559021,0.5589905-0.559021H148.401886 M148.401886,27.5265503H78.5470276
				c-0.4623413,0-0.8384857,0.3761597-0.8384857,0.838501v20.8000488c0,0.4623413,0.3761444,0.838501,0.8384857,0.838501h69.8548584
				c0.4623566,0,0.838501-0.3761597,0.838501-0.838501V28.3650513
				C149.240387,27.90271,148.8642426,27.5265503,148.401886,27.5265503L148.401886,27.5265503z"/>
		</g>
		<g>
			<path class="st6" d="M10.1463327,20.6584473c0.2866974,0,0.5199509,0.2332764,0.5199509,0.5199585
				s-0.2332535,0.5199585-0.5199509,0.5199585c-0.2867126,0-0.5199585-0.2332764-0.5199585-0.5199585
				S9.8596201,20.6584473,10.1463327,20.6584473 M10.1463327,20.5c-0.3746796,0-0.678421,0.3037109-0.678421,0.6784058
				s0.3037415,0.6784058,0.678421,0.6784058s0.6784134-0.3037109,0.6784134-0.6784058S10.5210123,20.5,10.1463327,20.5
				L10.1463327,20.5z"/>
		</g>
		<g>
			<path class="st6" d="M10.1463327,22.7458496c0.2866974,0,0.5199509,0.2332764,0.5199509,0.5200195
				c0,0.2866821-0.2332535,0.5199585-0.5199509,0.5199585c-0.2867126,0-0.5199585-0.2332764-0.5199585-0.5199585
				C9.6263742,22.979126,9.8596201,22.7458496,10.1463327,22.7458496 M10.1463327,22.5874023
				c-0.3746796,0-0.678421,0.303772-0.678421,0.6784668c0,0.3746338,0.3037415,0.6784058,0.678421,0.6784058
				s0.6784134-0.303772,0.6784134-0.6784058C10.8247461,22.8911743,10.5210123,22.5874023,10.1463327,22.5874023
				L10.1463327,22.5874023z"/>
		</g>
		<g>
			<path class="st6" d="M128.0865173,21.7021484c0.2867126,0,0.5199585,0.2332764,0.5199585,0.5199585
				c0,0.2867432-0.2332458,0.5200195-0.5199585,0.5200195s-0.5199585-0.2332764-0.5199585-0.5200195
				C127.5665588,21.9354248,127.7998047,21.7021484,128.0865173,21.7021484 M128.0865173,21.5437012
				c-0.3746796,0-0.678421,0.303772-0.678421,0.6784058c0,0.3746948,0.3037415,0.6784668,0.678421,0.6784668
				s0.678421-0.303772,0.678421-0.6784668C128.7649384,21.8474731,128.4611969,21.5437012,128.0865173,21.5437012
				L128.0865173,21.5437012z"/>
		</g>
		<g>
			<path class="st6" d="M10.1463327,44.6639404c0.2866974,0,0.5199509,0.2332764,0.5199509,0.5200195
				c0,0.2866821-0.2332535,0.5199585-0.5199509,0.5199585c-0.2867126,0-0.5199585-0.2332764-0.5199585-0.5199585
				C9.6263742,44.8972168,9.8596201,44.6639404,10.1463327,44.6639404 M10.1463327,44.5054932
				c-0.3746796,0-0.678421,0.303772-0.678421,0.6784668c0,0.3746338,0.3037415,0.6784058,0.678421,0.6784058
				s0.6784134-0.303772,0.6784134-0.6784058C10.8247461,44.8092651,10.5210123,44.5054932,10.1463327,44.5054932
				L10.1463327,44.5054932z"/>
		</g>
		<g>
			<path class="st6" d="M10.1463327,46.7514038c0.2866974,0,0.5199509,0.2332764,0.5199509,0.5199585
				s-0.2332535,0.5199585-0.5199509,0.5199585c-0.2867126,0-0.5199585-0.2332764-0.5199585-0.5199585
				S9.8596201,46.7514038,10.1463327,46.7514038 M10.1463327,46.5929565c-0.3746796,0-0.678421,0.3037109-0.678421,0.6784058
				s0.3037415,0.6784058,0.678421,0.6784058s0.6784134-0.3037109,0.6784134-0.6784058S10.5210123,46.5929565,10.1463327,46.5929565
				L10.1463327,46.5929565z"/>
		</g>
		<g>
			<path class="st6" d="M34.1518555,45.7077026c0.2866974,0,0.5199509,0.2332764,0.5199509,0.5199585
				s-0.2332535,0.5199585-0.5199509,0.5199585c-0.2867126,0-0.5199585-0.2332764-0.5199585-0.5199585
				S33.8651428,45.7077026,34.1518555,45.7077026 M34.1518555,45.5492554c-0.3746796,0-0.678421,0.3037109-0.678421,0.6784058
				s0.3037415,0.6784058,0.678421,0.6784058s0.6784134-0.3037109,0.6784134-0.6784058S34.526535,45.5492554,34.1518555,45.5492554
				L34.1518555,45.5492554z"/>
		</g>
		<g>
			<path class="st6" d="M57.1136627,45.7077026c0.2867126,0,0.5199585,0.2332764,0.5199585,0.5199585
				s-0.2332458,0.5199585-0.5199585,0.5199585s-0.5199585-0.2332764-0.5199585-0.5199585
				S56.8269501,45.7077026,57.1136627,45.7077026 M57.1136627,45.5492554c-0.3746796,0-0.678421,0.3037109-0.678421,0.6784058
				s0.3037415,0.6784058,0.678421,0.6784058s0.678421-0.3037109,0.678421-0.6784058S57.4883423,45.5492554,57.1136627,45.5492554
				L57.1136627,45.5492554z"/>
		</g>
		<g>
			<path class="st6" d="M104.0809937,45.7077026c0.2867126,0,0.5199585,0.2332764,0.5199585,0.5199585
				s-0.2332458,0.5199585-0.5199585,0.5199585s-0.5199585-0.2332764-0.5199585-0.5199585
				S103.794281,45.7077026,104.0809937,45.7077026 M104.0809937,45.5492554c-0.3746796,0-0.678421,0.3037109-0.678421,0.6784058
				s0.3037415,0.6784058,0.678421,0.6784058s0.678421-0.3037109,0.678421-0.6784058S104.4556732,45.5492554,104.0809937,45.5492554
				L104.0809937,45.5492554z"/>
		</g>
		<circle class="st102" cx="10.1463308" cy="15.2814016" r="1.5655777"/>
		<circle class="st86" cx="34.1518555" cy="15.2351742" r="1.5655777"/>
		<circle class="st86" cx="81.1191864" cy="15.2351742" r="1.5655777"/>
		<circle class="st86" cx="104.0809937" cy="15.2351742" r="1.5655777"/>
		<circle class="st86" cx="128.0865173" cy="15.2351742" r="1.5655777"/>
		<circle class="st87" cx="10.1463308" cy="39.2869263" r="1.5655777"/>
		<circle class="st87" cx="34.1518555" cy="39.2406998" r="1.5655777"/>
		<circle class="st87" cx="57.1136627" cy="39.2406998" r="1.5655777"/>
		<circle class="st86" cx="81.1191864" cy="39.2869263" r="1.5655777"/>
		<circle class="st86" cx="104.0809937" cy="39.2406998" r="1.5655777"/>
		<circle class="st86" cx="128.0865173" cy="39.2406998" r="1.5655777"/>
		<circle class="st86" cx="57.1136627" cy="15.2351742" r="1.5655777"/>
		<g>
			<path class="st6" d="M17.2714005,22.7900391h-0.7319336l-0.1704102,0.5913086h-0.3974609l0.7148438-2.1855469h0.4545898
				l0.7119141,2.1855469h-0.4111328L17.2714005,22.7900391z M17.1844864,22.4858398l-0.0771484-0.2675781
				c-0.0664062-0.2304688-0.1333008-0.480957-0.1967773-0.7216797h-0.0136719
				c-0.0600586,0.2441406-0.1235352,0.4912109-0.1938477,0.7216797l-0.0766602,0.2675781H17.1844864z"/>
			<path class="st6" d="M18.0878067,22.0444336H17.85392v-0.2871094l0.2539062-0.0166016l0.046875-0.4477539h0.3208008v0.4477539
				h0.4174805v0.3037109H18.475502v0.7822266c0,0.1938477,0.0732422,0.2871094,0.2304688,0.2871094
				c0.0566406,0,0.1235352-0.0166016,0.1704102-0.0366211l0.0668945,0.2841797
				c-0.090332,0.0302734-0.2041016,0.0600586-0.3339844,0.0600586c-0.3813477,0-0.5214844-0.2407227-0.5214844-0.5947266V22.0444336
				z"/>
			<path class="st6" d="M19.294838,22.0444336h-0.2338867v-0.2871094l0.2539062-0.0166016l0.046875-0.4477539h0.3208008v0.4477539
				h0.4174805v0.3037109h-0.4174805v0.7822266c0,0.1938477,0.0732422,0.2871094,0.2304688,0.2871094
				c0.0566406,0,0.1235352-0.0166016,0.1704102-0.0366211l0.0668945,0.2841797
				c-0.090332,0.0302734-0.2041016,0.0600586-0.3339844,0.0600586c-0.3813477,0-0.5214844-0.2407227-0.5214844-0.5947266V22.0444336
				z"/>
			<path class="st6" d="M21.2909317,22.3320312c-0.003418-0.1738281-0.0771484-0.3208008-0.2973633-0.3208008
				c-0.1640625,0-0.3178711,0.0737305-0.4614258,0.1606445l-0.1401367-0.2573242
				c0.1801758-0.1137695,0.4111328-0.2138672,0.6713867-0.2138672c0.4111328,0,0.6118164,0.2504883,0.6118164,0.7080078v0.9726562
				h-0.3144531l-0.0297852-0.1806641h-0.0102539c-0.1469727,0.1240234-0.3139648,0.2207031-0.5078125,0.2207031
				c-0.2875977,0-0.487793-0.1938477-0.487793-0.480957C20.3251114,22.5893555,20.6190567,22.4057617,21.2909317,22.3320312z
				 M20.9330215,23.1206055c0.1337891,0,0.2373047-0.0668945,0.3579102-0.1801758v-0.3676758
				c-0.4443359,0.0566406-0.5917969,0.1738281-0.5917969,0.3374023
				C20.6991348,23.0571289,20.7963028,23.1206055,20.9330215,23.1206055z"/>
			<path class="st6" d="M22.8588028,21.7006836c0.2104492,0,0.3710938,0.0834961,0.4814453,0.1904297l-0.184082,0.2436523
				c-0.0869141-0.0766602-0.1738281-0.1201172-0.2773438-0.1201172c-0.2636719,0-0.4477539,0.2172852-0.4477539,0.5478516
				c0,0.3276367,0.1806641,0.5449219,0.4379883,0.5449219c0.1333008,0,0.2470703-0.0668945,0.3374023-0.140625l0.1601562,0.2441406
				c-0.1533203,0.137207-0.3505859,0.2104492-0.5375977,0.2104492c-0.4482422,0-0.7919922-0.3139648-0.7919922-0.8588867
				C22.0370255,22.0146484,22.4213028,21.7006836,22.8588028,21.7006836z"/>
			<path class="st6" d="M23.6888809,21.0219727h0.3774414v1.4736328h0.0097656l0.6083984-0.7548828h0.4208984l-0.5610352,0.6679688
				l0.6181641,0.9726562H24.744545l-0.4208984-0.7119141l-0.2573242,0.2944336v0.4174805h-0.3774414V21.0219727z"/>
		</g>
		<g>
			<path class="st6" d="M39.3148575,21.1958008h0.581543c0.668457,0,1.065918,0.3608398,1.065918,1.0830078
				c0,0.7250977-0.3974609,1.1025391-1.0458984,1.1025391h-0.6015625V21.1958008z M39.869545,23.0673828
				c0.4414062,0,0.6953125-0.2509766,0.6953125-0.7885742c0-0.534668-0.2539062-0.7685547-0.6953125-0.7685547h-0.1669922v1.5571289
				H39.869545z"/>
			<path class="st6" d="M42.0160294,21.7006836c0.4448242,0,0.6787109,0.3208008,0.6787109,0.7783203
				c0,0.0737305-0.0068359,0.140625-0.0170898,0.1806641H41.63517c0.0336914,0.2973633,0.2207031,0.4643555,0.484375,0.4643555
				c0.140625,0,0.2607422-0.043457,0.3813477-0.1201172l0.1303711,0.2402344
				c-0.1572266,0.1040039-0.3544922,0.1772461-0.5615234,0.1772461c-0.4545898,0-0.8085938-0.3173828-0.8085938-0.8588867
				C41.2611465,22.027832,41.631752,21.7006836,42.0160294,21.7006836z M42.3602676,22.4155273
				c0-0.2607422-0.1103516-0.4174805-0.3339844-0.4174805c-0.1938477,0-0.3608398,0.1435547-0.3945312,0.4174805H42.3602676z"/>
			<path class="st6" d="M43.7782364,21.7006836c0.2104492,0,0.3710938,0.0834961,0.4814453,0.1904297l-0.184082,0.2436523
				c-0.0869141-0.0766602-0.1738281-0.1201172-0.2773438-0.1201172c-0.2636719,0-0.4477539,0.2172852-0.4477539,0.5478516
				c0,0.3276367,0.1806641,0.5449219,0.4379883,0.5449219c0.1333008,0,0.2470703-0.0668945,0.3374023-0.140625l0.1601562,0.2441406
				c-0.1533203,0.137207-0.3505859,0.2104492-0.5375977,0.2104492c-0.4477539,0-0.7919922-0.3139648-0.7919922-0.8588867
				C42.956459,22.0146484,43.3407364,21.7006836,43.7782364,21.7006836z"/>
			<path class="st6" d="M45.4701309,22.3320312c-0.003418-0.1738281-0.0771484-0.3208008-0.2973633-0.3208008
				c-0.1640625,0-0.3178711,0.0737305-0.4614258,0.1606445l-0.1401367-0.2573242
				c0.1801758-0.1137695,0.4111328-0.2138672,0.6713867-0.2138672c0.4111328,0,0.6118164,0.2504883,0.6118164,0.7080078v0.9726562
				h-0.3144531L45.51017,23.2006836h-0.0102539c-0.1469727,0.1240234-0.3139648,0.2207031-0.5078125,0.2207031
				c-0.2871094,0-0.487793-0.1938477-0.487793-0.480957C44.5043106,22.5893555,44.7982559,22.4057617,45.4701309,22.3320312z
				 M45.1122208,23.1206055c0.1337891,0,0.2373047-0.0668945,0.3579102-0.1801758v-0.3676758
				c-0.4448242,0.0566406-0.5917969,0.1738281-0.5917969,0.3374023
				C44.878334,23.0571289,44.975502,23.1206055,45.1122208,23.1206055z"/>
			<path class="st6" d="M46.4071426,23.7456055c0.1738281,0,0.2739258-0.1171875,0.3271484-0.2807617l0.0302734-0.1035156
				l-0.6450195-1.6206055h0.3911133l0.2841797,0.8051758c0.0463867,0.1435547,0.0932617,0.3076172,0.1435547,0.4614258h0.0131836
				c0.0400391-0.1503906,0.0834961-0.3144531,0.1235352-0.4614258l0.2475586-0.8051758h0.3710938l-0.5952148,1.7143555
				c-0.1367188,0.3706055-0.3071289,0.6010742-0.6650391,0.6010742c-0.0898438,0-0.1533203-0.0131836-0.2138672-0.0332031
				l0.0703125-0.3007812C46.3202286,23.7324219,46.3671036,23.7456055,46.4071426,23.7456055z"/>
			<path class="st6" d="M48.6669083,23.0673828h0.4746094v-1.3969727h-0.390625v-0.2407227
				c0.2104492-0.0400391,0.3574219-0.0932617,0.4912109-0.1738281h0.2871094v1.8115234h0.4179688v0.3139648h-1.2802734V23.0673828z"
				/>
		</g>
		<g>
			<path class="st6" d="M61.7279434,21.1958008h0.6987305c0.4477539,0,0.7783203,0.137207,0.7783203,0.5380859
				c0,0.2070312-0.1166992,0.4077148-0.3740234,0.4746094v0.0131836c0.3139648,0.0537109,0.4912109,0.2241211,0.4912109,0.5180664
				c0,0.4379883-0.3579102,0.6416016-0.8388672,0.6416016h-0.7553711V21.1958008z M62.3895645,22.1015625
				c0.3076172,0,0.4345703-0.1171875,0.4345703-0.3208008c0-0.2006836-0.140625-0.2841797-0.4243164-0.2841797h-0.2841797v0.6049805
				H62.3895645z M62.4432755,23.0805664c0.3208008,0,0.4975586-0.1201172,0.4975586-0.3676758
				c0-0.2270508-0.1733398-0.3339844-0.4975586-0.3339844h-0.3276367v0.7016602H62.4432755z"/>
			<path class="st6" d="M63.7142715,21.1958008h0.7353516c0.4775391,0,0.8286133,0.1669922,0.8286133,0.675293
				c0,0.484375-0.3608398,0.7084961-0.8286133,0.7084961h-0.3476562v0.8017578h-0.3876953V21.1958008z M64.4159317,22.2685547
				c0.3276367,0,0.4814453-0.1303711,0.4814453-0.3974609c0-0.2744141-0.1635742-0.3642578-0.4814453-0.3642578h-0.3139648
				v0.7617188H64.4159317z"/>
			<path class="st6" d="M66.3656387,21.1958008h0.3876953v1.8579102h0.9057617v0.3276367h-1.293457V21.1958008z"/>
			<path class="st6" d="M68.6088028,21.7006836c0.4448242,0,0.6787109,0.3208008,0.6787109,0.7783203
				c0,0.0737305-0.0068359,0.140625-0.0170898,0.1806641h-1.0424805c0.0336914,0.2973633,0.2207031,0.4643555,0.484375,0.4643555
				c0.140625,0,0.2607422-0.043457,0.3813477-0.1201172l0.1303711,0.2402344
				c-0.1572266,0.1040039-0.3544922,0.1772461-0.5615234,0.1772461c-0.4545898,0-0.8085938-0.3173828-0.8085938-0.8588867
				C67.85392,22.027832,68.2245255,21.7006836,68.6088028,21.7006836z M68.9530411,22.4155273
				c0-0.2607422-0.1103516-0.4174805-0.3339844-0.4174805c-0.1938477,0-0.3608398,0.1435547-0.3945312,0.4174805H68.9530411z"/>
			<path class="st6" d="M69.4520645,21.7407227h0.3911133l0.2607422,0.8520508
				c0.043457,0.1601562,0.0932617,0.3276367,0.1367188,0.4946289h0.0136719
				c0.0463867-0.1669922,0.0932617-0.3344727,0.1401367-0.4946289l0.2607422-0.8520508h0.3710938l-0.5581055,1.640625h-0.4448242
				L69.4520645,21.7407227z"/>
			<path class="st6" d="M71.9388809,21.7006836c0.4448242,0,0.6787109,0.3208008,0.6787109,0.7783203
				c0,0.0737305-0.0068359,0.140625-0.0170898,0.1806641h-1.0424805c0.0336914,0.2973633,0.2207031,0.4643555,0.484375,0.4643555
				c0.140625,0,0.2607422-0.043457,0.3813477-0.1201172l0.1303711,0.2402344
				c-0.1572266,0.1040039-0.3544922,0.1772461-0.5615234,0.1772461c-0.4545898,0-0.8085938-0.3173828-0.8085938-0.8588867
				C71.1839981,22.027832,71.5546036,21.7006836,71.9388809,21.7006836z M72.2831192,22.4155273
				c0-0.2607422-0.1103516-0.4174805-0.3339844-0.4174805c-0.1938477,0-0.3608398,0.1435547-0.3945312,0.4174805H72.2831192z"/>
			<path class="st6" d="M72.9862442,21.0219727h0.3842773v1.9584961c0,0.0932617,0.043457,0.1269531,0.0834961,0.1269531
				c0.0166016,0,0.0297852,0,0.0600586-0.0068359l0.050293,0.2875977c-0.046875,0.0200195-0.1137695,0.0332031-0.2041016,0.0332031
				c-0.2739258,0-0.3740234-0.1772461-0.3740234-0.4609375V21.0219727z"/>
		</g>
		<g>
			<path class="st6" d="M85.4296036,21.1958008h0.581543c0.668457,0,1.065918,0.3608398,1.065918,1.0830078
				c0,0.7250977-0.3974609,1.1025391-1.0458984,1.1025391h-0.6015625V21.1958008z M85.9842911,23.0673828
				c0.4414062,0,0.6953125-0.2509766,0.6953125-0.7885742c0-0.534668-0.2539062-0.7685547-0.6953125-0.7685547h-0.1669922v1.5571289
				H85.9842911z"/>
			<path class="st6" d="M88.1307755,21.7006836c0.4443359,0,0.6787109,0.3208008,0.6787109,0.7783203
				c0,0.0737305-0.0068359,0.140625-0.0170898,0.1806641h-1.0424805c0.0336914,0.2973633,0.2207031,0.4643555,0.484375,0.4643555
				c0.140625,0,0.2607422-0.043457,0.3813477-0.1201172l0.1303711,0.2402344
				c-0.1572266,0.1040039-0.3544922,0.1772461-0.5615234,0.1772461c-0.4545898,0-0.8085938-0.3173828-0.8085938-0.8588867
				C87.3758926,22.027832,87.7464981,21.7006836,88.1307755,21.7006836z M88.4750137,22.4155273
				c0-0.2607422-0.1103516-0.4174805-0.3339844-0.4174805c-0.1938477,0-0.3608398,0.1435547-0.3945312,0.4174805H88.4750137z"/>
			<path class="st6" d="M90.0336075,22.3320312c-0.003418-0.1738281-0.0771484-0.3208008-0.2973633-0.3208008
				c-0.1640625,0-0.3178711,0.0737305-0.4614258,0.1606445l-0.1401367-0.2573242
				c0.1801758-0.1137695,0.4111328-0.2138672,0.6713867-0.2138672c0.4111328,0,0.6118164,0.2504883,0.6118164,0.7080078v0.9726562
				h-0.3144531l-0.0297852-0.1806641h-0.0102539c-0.1469727,0.1240234-0.3139648,0.2207031-0.5078125,0.2207031
				c-0.2871094,0-0.487793-0.1938477-0.487793-0.480957C89.0677872,22.5893555,89.3617325,22.4057617,90.0336075,22.3320312z
				 M89.6756973,23.1206055c0.1337891,0,0.2373047-0.0668945,0.3579102-0.1801758v-0.3676758
				c-0.4448242,0.0566406-0.5917969,0.1738281-0.5917969,0.3374023
				C89.4418106,23.0571289,89.5389786,23.1206055,89.6756973,23.1206055z"/>
			<path class="st6" d="M91.6014786,21.7006836c0.2104492,0,0.3710938,0.0834961,0.4814453,0.1904297l-0.184082,0.2436523
				c-0.0869141-0.0766602-0.1738281-0.1201172-0.2773438-0.1201172c-0.2636719,0-0.4477539,0.2172852-0.4477539,0.5478516
				c0,0.3276367,0.1806641,0.5449219,0.4379883,0.5449219c0.1333008,0,0.2470703-0.0668945,0.3374023-0.140625l0.1601562,0.2441406
				c-0.1533203,0.137207-0.3505859,0.2104492-0.5375977,0.2104492c-0.4477539,0-0.7919922-0.3139648-0.7919922-0.8588867
				C90.7797012,22.0146484,91.1639786,21.7006836,91.6014786,21.7006836z"/>
			<path class="st6" d="M93.2938614,22.3320312c-0.003418-0.1738281-0.0771484-0.3208008-0.2973633-0.3208008
				c-0.1640625,0-0.3178711,0.0737305-0.4614258,0.1606445l-0.1401367-0.2573242
				c0.1801758-0.1137695,0.4111328-0.2138672,0.6713867-0.2138672c0.4111328,0,0.6118164,0.2504883,0.6118164,0.7080078v0.9726562
				h-0.3144531l-0.0297852-0.1806641h-0.0102539c-0.1469727,0.1240234-0.3139648,0.2207031-0.5078125,0.2207031
				c-0.2875977,0-0.487793-0.1938477-0.487793-0.480957C92.3280411,22.5893555,92.6219864,22.4057617,93.2938614,22.3320312z
				 M92.9359512,23.1206055c0.1337891,0,0.2373047-0.0668945,0.3579102-0.1801758v-0.3676758
				c-0.4443359,0.0566406-0.5917969,0.1738281-0.5917969,0.3374023
				C92.7020645,23.0571289,92.7992325,23.1206055,92.9359512,23.1206055z"/>
			<path class="st6" d="M94.2303848,23.7456055c0.1738281,0,0.2739258-0.1171875,0.3271484-0.2807617l0.0302734-0.1035156
				l-0.6450195-1.6206055h0.3911133l0.2841797,0.8051758c0.0463867,0.1435547,0.0932617,0.3076172,0.1435547,0.4614258h0.0131836
				c0.0400391-0.1503906,0.0834961-0.3144531,0.1235352-0.4614258l0.2475586-0.8051758h0.3710938l-0.5952148,1.7143555
				c-0.1367188,0.3706055-0.3071289,0.6010742-0.6650391,0.6010742c-0.0898438,0-0.1533203-0.0131836-0.2138672-0.0332031
				l0.0703125-0.3007812C94.1434708,23.7324219,94.1903458,23.7456055,94.2303848,23.7456055z"/>
			<path class="st6" d="M96.3700333,23.1572266c0.5913086-0.5712891,0.9624023-0.9453125,0.9624023-1.2695312
				c0-0.2241211-0.1235352-0.3676758-0.3510742-0.3676758c-0.1635742,0-0.300293,0.1103516-0.4140625,0.2373047
				l-0.2138672-0.2138672c0.1938477-0.2070312,0.3876953-0.3276367,0.6782227-0.3276367
				c0.4077148,0,0.671875,0.2573242,0.671875,0.6518555c0,0.3774414-0.3510742,0.7651367-0.7719727,1.2094727
				c0.1103516-0.0097656,0.2504883-0.0234375,0.3540039-0.0234375h0.5214844v0.3276367h-1.4370117V23.1572266z"/>
		</g>
		<g>
			<path class="st6" d="M109.4862442,22.8364258c0.1567383,0.1474609,0.3676758,0.2475586,0.5712891,0.2475586
				c0.2441406,0,0.3808594-0.1103516,0.3808594-0.2807617c0-0.1806641-0.1401367-0.2373047-0.3408203-0.3208008
				l-0.2973633-0.1303711c-0.2172852-0.090332-0.440918-0.2607422-0.440918-0.581543
				c0-0.347168,0.3071289-0.6147461,0.7314453-0.6147461c0.2573242,0,0.5048828,0.1069336,0.675293,0.2773438l-0.2006836,0.2475586
				c-0.1367188-0.1171875-0.2871094-0.1875-0.4746094-0.1875c-0.2070312,0-0.3408203,0.097168-0.3408203,0.2573242
				c0,0.1704102,0.1674805,0.2338867,0.3476562,0.3076172l0.2939453,0.1235352
				c0.2607422,0.1103516,0.4414062,0.2739258,0.4414062,0.5913086c0,0.3544922-0.2939453,0.6484375-0.7851562,0.6484375
				c-0.2944336,0-0.578125-0.1166992-0.7856445-0.3208008L109.4862442,22.8364258z"/>
			<path class="st6" d="M111.1781387,21.7407227h0.3842773v0.9790039c0,0.2705078,0.0771484,0.3710938,0.2543945,0.3710938
				c0.1435547,0,0.2402344-0.0668945,0.3637695-0.2275391v-1.1225586h0.3847656v1.640625h-0.3144531l-0.0297852-0.2407227
				h-0.0102539c-0.1435547,0.1704102-0.3041992,0.2807617-0.527832,0.2807617c-0.3510742,0-0.5048828-0.2373047-0.5048828-0.6513672
				V21.7407227z"/>
			<path class="st6" d="M113.0707169,22.9467773c0.1469727,0.1137695,0.2871094,0.184082,0.4545898,0.184082
				c0.1767578,0,0.2602539-0.0834961,0.2602539-0.1972656c0-0.137207-0.1767578-0.1972656-0.3505859-0.2641602
				c-0.2172852-0.0800781-0.4614258-0.2036133-0.4614258-0.4775391c0-0.2875977,0.230957-0.4912109,0.5981445-0.4912109
				c0.2275391,0,0.4111328,0.0932617,0.5449219,0.1967773l-0.1772461,0.2338867
				c-0.1132812-0.0834961-0.2304688-0.1401367-0.3608398-0.1401367c-0.1635742,0-0.2407227,0.0766602-0.2407227,0.1806641
				c0,0.1269531,0.1640625,0.1801758,0.3408203,0.2436523c0.2241211,0.0834961,0.4711914,0.1904297,0.4711914,0.4980469
				c0,0.2807617-0.2236328,0.5078125-0.6381836,0.5078125c-0.2236328,0-0.4609375-0.0966797-0.621582-0.2270508
				L113.0707169,22.9467773z"/>
			<path class="st6" d="M114.5516739,22.0444336h-0.2338867v-0.2871094l0.2539062-0.0166016l0.046875-0.4477539h0.3208008v0.4477539
				h0.4174805v0.3037109h-0.4174805v0.7822266c0,0.1938477,0.0732422,0.2871094,0.2304688,0.2871094
				c0.0566406,0,0.1235352-0.0166016,0.1704102-0.0366211l0.0668945,0.2841797
				c-0.090332,0.0302734-0.2041016,0.0600586-0.3339844,0.0600586c-0.3813477,0-0.5214844-0.2407227-0.5214844-0.5947266V22.0444336
				z"/>
			<path class="st6" d="M116.5477676,22.3320312c-0.003418-0.1738281-0.0771484-0.3208008-0.2973633-0.3208008
				c-0.1640625,0-0.3178711,0.0737305-0.4614258,0.1606445l-0.1401367-0.2573242
				c0.1801758-0.1137695,0.4111328-0.2138672,0.6713867-0.2138672c0.4111328,0,0.6118164,0.2504883,0.6118164,0.7080078v0.9726562
				h-0.3144531l-0.0297852-0.1806641h-0.0102539c-0.1469727,0.1240234-0.3139648,0.2207031-0.5078125,0.2207031
				c-0.2875977,0-0.487793-0.1938477-0.487793-0.480957C115.5819473,22.5893555,115.8758926,22.4057617,116.5477676,22.3320312z
				 M116.1898575,23.1206055c0.1337891,0,0.2373047-0.0668945,0.3579102-0.1801758v-0.3676758
				c-0.4443359,0.0566406-0.5917969,0.1738281-0.5917969,0.3374023
				C115.9559708,23.0571289,116.0531387,23.1206055,116.1898575,23.1206055z"/>
			<path class="st6" d="M117.357338,21.2358398c0-0.1303711,0.1000977-0.2202148,0.2373047-0.2202148
				c0.1367188,0,0.2368164,0.0898438,0.2368164,0.2202148c0,0.1269531-0.1000977,0.2172852-0.2368164,0.2172852
				C117.4574356,21.453125,117.357338,21.362793,117.357338,21.2358398z M117.400795,21.7407227h0.3842773v1.640625h-0.3842773
				V21.7407227z"/>
			<path class="st6" d="M118.2767715,21.7407227h0.3173828l0.0268555,0.2202148h0.0131836
				c0.1469727-0.1435547,0.3139648-0.2602539,0.5380859-0.2602539c0.3505859,0,0.5043945,0.2373047,0.5043945,0.6513672v1.0292969
				h-0.3842773v-0.9790039c0-0.2709961-0.0766602-0.3710938-0.2573242-0.3710938
				c-0.1435547,0-0.2373047,0.0703125-0.3740234,0.2041016v1.1459961h-0.3842773V21.7407227z"/>
		</g>
		<g>
			<path class="st6" d="M134.4364471,23.3813477l-0.4711914-0.8554688h-0.3310547v0.8554688h-0.3876953v-2.1855469h0.7353516
				c0.4545898,0,0.8051758,0.1606445,0.8051758,0.6484375c0,0.3339844-0.1738281,0.534668-0.4375,0.625l0.5209961,0.9121094
				H134.4364471z M133.634201,22.2182617h0.3076172c0.3007812,0,0.4609375-0.1269531,0.4609375-0.3740234
				c0-0.2504883-0.1601562-0.3374023-0.4609375-0.3374023h-0.3076172V22.2182617z"/>
			<path class="st6" d="M135.8241425,21.7006836c0.4443359,0,0.6787109,0.3208008,0.6787109,0.7783203
				c0,0.0737305-0.0068359,0.140625-0.0170898,0.1806641h-1.0424805c0.0336914,0.2973633,0.2207031,0.4643555,0.484375,0.4643555
				c0.140625,0,0.2607422-0.043457,0.3813477-0.1201172l0.1303711,0.2402344
				c-0.1572266,0.1040039-0.3544922,0.1772461-0.5615234,0.1772461c-0.4545898,0-0.8085938-0.3173828-0.8085938-0.8588867
				C135.0692596,22.027832,135.4398651,21.7006836,135.8241425,21.7006836z M136.1683807,22.4155273
				c0-0.2607422-0.1103516-0.4174805-0.3339844-0.4174805c-0.1938477,0-0.3608398,0.1435547-0.3945312,0.4174805H136.1683807z"/>
			<path class="st6" d="M136.8715057,21.0219727h0.3842773v1.9584961c0,0.0932617,0.043457,0.1269531,0.0834961,0.1269531
				c0.0166016,0,0.0297852,0,0.0600586-0.0068359l0.050293,0.2875977c-0.046875,0.0200195-0.1137695,0.0332031-0.2041016,0.0332031
				c-0.2739258,0-0.3740234-0.1772461-0.3740234-0.4609375V21.0219727z"/>
			<path class="st6" d="M138.4252167,21.7006836c0.4448242,0,0.6787109,0.3208008,0.6787109,0.7783203
				c0,0.0737305-0.0068359,0.140625-0.0170898,0.1806641h-1.0424805c0.0336914,0.2973633,0.2207031,0.4643555,0.484375,0.4643555
				c0.140625,0,0.2607422-0.043457,0.3813477-0.1201172l0.1303711,0.2402344
				c-0.1572266,0.1040039-0.3544922,0.1772461-0.5615234,0.1772461c-0.4545898,0-0.8085938-0.3173828-0.8085938-0.8588867
				C137.6703339,22.027832,138.0409393,21.7006836,138.4252167,21.7006836z M138.769455,22.4155273
				c0-0.2607422-0.1103516-0.4174805-0.3339844-0.4174805c-0.1938477,0-0.3608398,0.1435547-0.3945312,0.4174805H138.769455z"/>
			<path class="st6" d="M140.3280487,22.3320312c-0.003418-0.1738281-0.0771484-0.3208008-0.2973633-0.3208008
				c-0.1640625,0-0.3178711,0.0737305-0.4614258,0.1606445l-0.1401367-0.2573242
				c0.1801758-0.1137695,0.4111328-0.2138672,0.6713867-0.2138672c0.4111328,0,0.6118164,0.2504883,0.6118164,0.7080078v0.9726562
				h-0.3144531l-0.0297852-0.1806641h-0.0102539c-0.1469727,0.1240234-0.3139648,0.2207031-0.5078125,0.2207031
				c-0.2875977,0-0.487793-0.1938477-0.487793-0.480957C139.3622284,22.5893555,139.6561737,22.4057617,140.3280487,22.3320312z
				 M139.9701385,23.1206055c0.1337891,0,0.2373047-0.0668945,0.3579102-0.1801758v-0.3676758
				c-0.4443359,0.0566406-0.5917969,0.1738281-0.5917969,0.3374023
				C139.7362518,23.0571289,139.8334198,23.1206055,139.9701385,23.1206055z"/>
			<path class="st6" d="M141.1981659,22.9467773c0.1469727,0.1137695,0.2871094,0.184082,0.4545898,0.184082
				c0.1767578,0,0.2602539-0.0834961,0.2602539-0.1972656c0-0.137207-0.1767578-0.1972656-0.3505859-0.2641602
				c-0.2172852-0.0800781-0.4614258-0.2036133-0.4614258-0.4775391c0-0.2875977,0.230957-0.4912109,0.5981445-0.4912109
				c0.2275391,0,0.4111328,0.0932617,0.5449219,0.1967773l-0.1772461,0.2338867
				c-0.1137695-0.0834961-0.2304688-0.1401367-0.3608398-0.1401367c-0.1635742,0-0.2407227,0.0766602-0.2407227,0.1806641
				c0,0.1269531,0.1640625,0.1801758,0.3408203,0.2436523c0.2241211,0.0834961,0.4711914,0.1904297,0.4711914,0.4980469
				c0,0.2807617-0.2236328,0.5078125-0.6381836,0.5078125c-0.2236328,0-0.4609375-0.0966797-0.621582-0.2270508
				L141.1981659,22.9467773z"/>
			<path class="st6" d="M143.2704315,21.7006836c0.4443359,0,0.6787109,0.3208008,0.6787109,0.7783203
				c0,0.0737305-0.0068359,0.140625-0.0170898,0.1806641h-1.0424805c0.0336914,0.2973633,0.2207031,0.4643555,0.484375,0.4643555
				c0.140625,0,0.2607422-0.043457,0.3813477-0.1201172l0.1303711,0.2402344
				c-0.1572266,0.1040039-0.3544922,0.1772461-0.5615234,0.1772461c-0.4545898,0-0.8085938-0.3173828-0.8085938-0.8588867
				C142.5155487,22.027832,142.8861542,21.7006836,143.2704315,21.7006836z M143.6146698,22.4155273
				c0-0.2607422-0.1103516-0.4174805-0.3339844-0.4174805c-0.1938477,0-0.3608398,0.1435547-0.3945312,0.4174805H143.6146698z"/>
		</g>
		<g>
			<path class="st6" d="M17.2714005,46.796875h-0.7319336l-0.1704102,0.5913086h-0.3974609l0.7148438-2.1855469h0.4545898
				l0.7119141,2.1855469h-0.4111328L17.2714005,46.796875z M17.1844864,46.4926758l-0.0771484-0.2675781
				c-0.0664062-0.2304688-0.1333008-0.480957-0.1967773-0.7216797h-0.0136719
				c-0.0600586,0.2441406-0.1235352,0.4912109-0.1938477,0.7216797l-0.0766602,0.2675781H17.1844864z"/>
			<path class="st6" d="M18.0878067,46.0512695H17.85392v-0.2871094l0.2539062-0.0166016l0.046875-0.4477539h0.3208008v0.4477539
				h0.4174805v0.3037109H18.475502v0.7822266c0,0.1938477,0.0732422,0.2871094,0.2304688,0.2871094
				c0.0566406,0,0.1235352-0.0166016,0.1704102-0.0366211l0.0668945,0.2841797
				c-0.090332,0.0302734-0.2041016,0.0600586-0.3339844,0.0600586c-0.3813477,0-0.5214844-0.2407227-0.5214844-0.5947266V46.0512695
				z"/>
			<path class="st6" d="M19.294838,46.0512695h-0.2338867v-0.2871094l0.2539062-0.0166016l0.046875-0.4477539h0.3208008v0.4477539
				h0.4174805v0.3037109h-0.4174805v0.7822266c0,0.1938477,0.0732422,0.2871094,0.2304688,0.2871094
				c0.0566406,0,0.1235352-0.0166016,0.1704102-0.0366211l0.0668945,0.2841797
				c-0.090332,0.0302734-0.2041016,0.0600586-0.3339844,0.0600586c-0.3813477,0-0.5214844-0.2407227-0.5214844-0.5947266V46.0512695
				z"/>
			<path class="st6" d="M21.2909317,46.3388672c-0.003418-0.1738281-0.0771484-0.3208008-0.2973633-0.3208008
				c-0.1640625,0-0.3178711,0.0737305-0.4614258,0.1606445l-0.1401367-0.2573242
				c0.1801758-0.1137695,0.4111328-0.2138672,0.6713867-0.2138672c0.4111328,0,0.6118164,0.2504883,0.6118164,0.7080078v0.9726562
				h-0.3144531l-0.0297852-0.1806641h-0.0102539c-0.1469727,0.1240234-0.3139648,0.2207031-0.5078125,0.2207031
				c-0.2875977,0-0.487793-0.1938477-0.487793-0.480957C20.3251114,46.5961914,20.6190567,46.4125977,21.2909317,46.3388672z
				 M20.9330215,47.1274414c0.1337891,0,0.2373047-0.0668945,0.3579102-0.1801758v-0.3676758
				c-0.4443359,0.0566406-0.5917969,0.1738281-0.5917969,0.3374023
				C20.6991348,47.0639648,20.7963028,47.1274414,20.9330215,47.1274414z"/>
			<path class="st6" d="M22.8588028,45.7075195c0.2104492,0,0.3710938,0.0834961,0.4814453,0.1904297l-0.184082,0.2436523
				c-0.0869141-0.0766602-0.1738281-0.1201172-0.2773438-0.1201172c-0.2636719,0-0.4477539,0.2172852-0.4477539,0.5478516
				c0,0.3276367,0.1806641,0.5449219,0.4379883,0.5449219c0.1333008,0,0.2470703-0.0668945,0.3374023-0.140625l0.1601562,0.2441406
				c-0.1533203,0.137207-0.3505859,0.2104492-0.5375977,0.2104492c-0.4482422,0-0.7919922-0.3139648-0.7919922-0.8588867
				C22.0370255,46.0214844,22.4213028,45.7075195,22.8588028,45.7075195z"/>
			<path class="st6" d="M23.6888809,45.0288086h0.3774414v1.4736328h0.0097656l0.6083984-0.7548828h0.4208984l-0.5610352,0.6679688
				l0.6181641,0.9726562H24.744545l-0.4208984-0.7119141l-0.2573242,0.2944336v0.4174805h-0.3774414V45.0288086z"/>
		</g>
		<g>
			<path class="st6" d="M39.3119278,45.2026367h0.581543c0.668457,0,1.065918,0.3608398,1.065918,1.0830078
				c0,0.7250977-0.3974609,1.1025391-1.0458984,1.1025391h-0.6015625V45.2026367z M39.8666153,47.0742188
				c0.4414062,0,0.6953125-0.2509766,0.6953125-0.7885742c0-0.534668-0.2539062-0.7685547-0.6953125-0.7685547h-0.1669922v1.5571289
				H39.8666153z"/>
			<path class="st6" d="M42.0130997,45.7075195c0.4448242,0,0.6787109,0.3208008,0.6787109,0.7783203
				c0,0.0737305-0.0068359,0.140625-0.0170898,0.1806641h-1.0424805c0.0336914,0.2973633,0.2207031,0.4643555,0.484375,0.4643555
				c0.140625,0,0.2607422-0.043457,0.3813477-0.1201172l0.1303711,0.2402344
				c-0.1572266,0.1040039-0.3544922,0.1772461-0.5615234,0.1772461c-0.4545898,0-0.8085938-0.3173828-0.8085938-0.8588867
				C41.2582169,46.034668,41.6288223,45.7075195,42.0130997,45.7075195z M42.357338,46.4223633
				c0-0.2607422-0.1103516-0.4174805-0.3339844-0.4174805c-0.1938477,0-0.3608398,0.1435547-0.3945312,0.4174805H42.357338z"/>
			<path class="st6" d="M43.9159317,46.3388672c-0.003418-0.1738281-0.0771484-0.3208008-0.2973633-0.3208008
				c-0.1640625,0-0.3178711,0.0737305-0.4614258,0.1606445l-0.1401367-0.2573242
				c0.1801758-0.1137695,0.4111328-0.2138672,0.6713867-0.2138672c0.4111328,0,0.6118164,0.2504883,0.6118164,0.7080078v0.9726562
				h-0.3144531l-0.0297852-0.1806641h-0.0102539c-0.1469727,0.1240234-0.3139648,0.2207031-0.5078125,0.2207031
				c-0.2875977,0-0.487793-0.1938477-0.487793-0.480957C42.9501114,46.5961914,43.2440567,46.4125977,43.9159317,46.3388672z
				 M43.5580215,47.1274414c0.1337891,0,0.2373047-0.0668945,0.3579102-0.1801758v-0.3676758
				c-0.4443359,0.0566406-0.5917969,0.1738281-0.5917969,0.3374023
				C43.3241348,47.0639648,43.4213028,47.1274414,43.5580215,47.1274414z"/>
			<path class="st6" d="M45.4838028,45.7075195c0.2104492,0,0.3710938,0.0834961,0.4814453,0.1904297l-0.184082,0.2436523
				c-0.0869141-0.0766602-0.1738281-0.1201172-0.2773438-0.1201172c-0.2636719,0-0.4477539,0.2172852-0.4477539,0.5478516
				c0,0.3276367,0.1806641,0.5449219,0.4379883,0.5449219c0.1333008,0,0.2470703-0.0668945,0.3374023-0.140625l0.1601562,0.2441406
				c-0.1533203,0.137207-0.3505859,0.2104492-0.5375977,0.2104492c-0.4482422,0-0.7919922-0.3139648-0.7919922-0.8588867
				C44.6620255,46.0214844,45.0463028,45.7075195,45.4838028,45.7075195z"/>
			<path class="st6" d="M46.4105606,47.7524414c0.1738281,0,0.2739258-0.1171875,0.3271484-0.2807617l0.0302734-0.1035156
				l-0.6450195-1.6206055h0.3911133l0.2841797,0.8051758c0.0463867,0.1435547,0.0932617,0.3076172,0.1435547,0.4614258h0.0131836
				c0.0400391-0.1503906,0.0834961-0.3144531,0.1235352-0.4614258l0.2475586-0.8051758h0.3710938l-0.5952148,1.7143555
				c-0.1367188,0.3706055-0.3071289,0.6010742-0.6650391,0.6010742c-0.0898438,0-0.1533203-0.0131836-0.2138672-0.0332031
				l0.0703125-0.3007812C46.3236465,47.7392578,46.3705215,47.7524414,46.4105606,47.7524414z"/>
			<path class="st6" d="M48.6708145,47.0742188h0.4746094v-1.3969727h-0.390625v-0.2407227
				c0.2104492-0.0400391,0.3574219-0.0932617,0.4912109-0.1738281h0.2871094v1.8115234h0.4179688v0.3139648h-1.2802734V47.0742188z"
				/>
		</g>
		<g>
			<path class="st6" d="M62.2777481,45.2026367h0.581543c0.668457,0,1.065918,0.3608398,1.065918,1.0830078
				c0,0.7250977-0.3974609,1.1025391-1.0458984,1.1025391h-0.6015625V45.2026367z M62.8324356,47.0742188
				c0.4414062,0,0.6953125-0.2509766,0.6953125-0.7885742c0-0.534668-0.2539062-0.7685547-0.6953125-0.7685547h-0.1669922v1.5571289
				H62.8324356z"/>
			<path class="st6" d="M64.97892,45.7075195c0.4448242,0,0.6787109,0.3208008,0.6787109,0.7783203
				c0,0.0737305-0.0068359,0.140625-0.0170898,0.1806641h-1.0424805c0.0336914,0.2973633,0.2207031,0.4643555,0.484375,0.4643555
				c0.140625,0,0.2607422-0.043457,0.3813477-0.1201172l0.1303711,0.2402344
				c-0.1572266,0.1040039-0.3544922,0.1772461-0.5615234,0.1772461c-0.4545898,0-0.8085938-0.3173828-0.8085938-0.8588867
				C64.2240372,46.034668,64.5946426,45.7075195,64.97892,45.7075195z M65.3231583,46.4223633
				c0-0.2607422-0.1103516-0.4174805-0.3339844-0.4174805c-0.1938477,0-0.3608398,0.1435547-0.3945312,0.4174805H65.3231583z"/>
			<path class="st6" d="M66.741127,45.7075195c0.2104492,0,0.3710938,0.0834961,0.4814453,0.1904297l-0.184082,0.2436523
				c-0.0869141-0.0766602-0.1738281-0.1201172-0.2773438-0.1201172c-0.2636719,0-0.4477539,0.2172852-0.4477539,0.5478516
				c0,0.3276367,0.1806641,0.5449219,0.4379883,0.5449219c0.1333008,0,0.2470703-0.0668945,0.3374023-0.140625l0.1601562,0.2441406
				c-0.1533203,0.137207-0.3505859,0.2104492-0.5375977,0.2104492c-0.4477539,0-0.7919922-0.3139648-0.7919922-0.8588867
				C65.9193497,46.0214844,66.303627,45.7075195,66.741127,45.7075195z"/>
			<path class="st6" d="M68.4330215,46.3388672c-0.003418-0.1738281-0.0771484-0.3208008-0.2973633-0.3208008
				c-0.1640625,0-0.3178711,0.0737305-0.4614258,0.1606445l-0.1401367-0.2573242
				c0.1801758-0.1137695,0.4111328-0.2138672,0.6713867-0.2138672c0.4111328,0,0.6118164,0.2504883,0.6118164,0.7080078v0.9726562
				h-0.3144531l-0.0297852-0.1806641h-0.0102539c-0.1469727,0.1240234-0.3139648,0.2207031-0.5078125,0.2207031
				c-0.2871094,0-0.487793-0.1938477-0.487793-0.480957C67.4672012,46.5961914,67.7611465,46.4125977,68.4330215,46.3388672z
				 M68.0751114,47.1274414c0.1337891,0,0.2373047-0.0668945,0.3579102-0.1801758v-0.3676758
				c-0.4448242,0.0566406-0.5917969,0.1738281-0.5917969,0.3374023
				C67.8412247,47.0639648,67.9383926,47.1274414,68.0751114,47.1274414z"/>
			<path class="st6" d="M69.3700333,47.7524414c0.1738281,0,0.2739258-0.1171875,0.3271484-0.2807617l0.0302734-0.1035156
				l-0.6450195-1.6206055h0.3911133l0.2841797,0.8051758c0.0463867,0.1435547,0.0932617,0.3076172,0.1435547,0.4614258h0.0131836
				c0.0400391-0.1503906,0.0834961-0.3144531,0.1235352-0.4614258l0.2475586-0.8051758h0.3710938l-0.5952148,1.7143555
				c-0.1367188,0.3706055-0.3071289,0.6010742-0.6650391,0.6010742c-0.0898438,0-0.1533203-0.0131836-0.2138672-0.0332031
				l0.0703125-0.3007812C69.2831192,47.7392578,69.3299942,47.7524414,69.3700333,47.7524414z"/>
			<path class="st6" d="M71.5096817,47.1640625c0.5913086-0.5712891,0.9624023-0.9453125,0.9624023-1.2695312
				c0-0.2241211-0.1235352-0.3676758-0.3510742-0.3676758c-0.1635742,0-0.300293,0.1103516-0.4140625,0.2373047
				l-0.2138672-0.2138672c0.1938477-0.2070312,0.3876953-0.3276367,0.6782227-0.3276367
				c0.4077148,0,0.671875,0.2573242,0.671875,0.6518555c0,0.3774414-0.3510742,0.7651367-0.7719727,1.2094727
				c0.1103516-0.0097656,0.2504883-0.0234375,0.3540039-0.0234375h0.5214844v0.3276367h-1.4370117V47.1640625z"/>
		</g>
		<g>
			<path class="st6" d="M85.5487442,45.2026367h0.3876953v1.8579102h0.9057617v0.3276367h-1.293457V45.2026367z"/>
			<path class="st6" d="M87.7919083,45.7075195c0.4443359,0,0.6787109,0.3208008,0.6787109,0.7783203
				c0,0.0737305-0.0068359,0.140625-0.0170898,0.1806641h-1.0424805c0.0336914,0.2973633,0.2207031,0.4643555,0.484375,0.4643555
				c0.140625,0,0.2607422-0.043457,0.3813477-0.1201172l0.1303711,0.2402344
				c-0.1572266,0.1040039-0.3544922,0.1772461-0.5615234,0.1772461c-0.4545898,0-0.8085938-0.3173828-0.8085938-0.8588867
				C87.0370255,46.034668,87.4076309,45.7075195,87.7919083,45.7075195z M88.1361465,46.4223633
				c0-0.2607422-0.1103516-0.4174805-0.3339844-0.4174805c-0.1938477,0-0.3608398,0.1435547-0.3945312,0.4174805H88.1361465z"/>
			<path class="st6" d="M88.63517,45.7475586h0.3911133l0.2607422,0.8520508
				c0.043457,0.1601562,0.0932617,0.3276367,0.1367188,0.4946289h0.0136719
				c0.0463867-0.1669922,0.0932617-0.3344727,0.1401367-0.4946289l0.2607422-0.8520508h0.3710938l-0.5581055,1.640625H89.206459
				L88.63517,45.7475586z"/>
			<path class="st6" d="M91.1224747,45.7075195c0.4448242,0,0.6787109,0.3208008,0.6787109,0.7783203
				c0,0.0737305-0.0068359,0.140625-0.0170898,0.1806641h-1.0424805c0.0336914,0.2973633,0.2207031,0.4643555,0.484375,0.4643555
				c0.140625,0,0.2607422-0.043457,0.3813477-0.1201172l0.1303711,0.2402344
				c-0.1572266,0.1040039-0.3544922,0.1772461-0.5615234,0.1772461c-0.4545898,0-0.8085938-0.3173828-0.8085938-0.8588867
				C90.3675919,46.034668,90.7381973,45.7075195,91.1224747,45.7075195z M91.466713,46.4223633
				c0-0.2607422-0.1103516-0.4174805-0.3339844-0.4174805c-0.1938477,0-0.3608398,0.1435547-0.3945312,0.4174805H91.466713z"/>
			<path class="st6" d="M92.1693497,45.0288086h0.3842773v1.9584961c0,0.0932617,0.043457,0.1269531,0.0834961,0.1269531
				c0.0166016,0,0.0297852,0,0.0600586-0.0068359l0.050293,0.2875977c-0.046875,0.0200195-0.1137695,0.0332031-0.2041016,0.0332031
				c-0.2739258,0-0.3740234-0.1772461-0.3740234-0.4609375V45.0288086z"/>
			<path class="st6" d="M93.5004044,45.2026367h0.4111328l0.3071289,1.0996094
				c0.0703125,0.2470703,0.1171875,0.4609375,0.1904297,0.7119141h0.0136719
				c0.0732422-0.2509766,0.1235352-0.4648438,0.1938477-0.7119141l0.3037109-1.0996094h0.3945312l-0.675293,2.1855469H94.178627
				L93.5004044,45.2026367z"/>
			<path class="st6" d="M96.1341934,45.7075195c0.4448242,0,0.6787109,0.3208008,0.6787109,0.7783203
				c0,0.0737305-0.0068359,0.140625-0.0170898,0.1806641H95.753334c0.0336914,0.2973633,0.2207031,0.4643555,0.484375,0.4643555
				c0.140625,0,0.2607422-0.043457,0.3813477-0.1201172l0.1303711,0.2402344
				c-0.1572266,0.1040039-0.3544922,0.1772461-0.5615234,0.1772461c-0.4545898,0-0.8085938-0.3173828-0.8085938-0.8588867
				C95.3793106,46.034668,95.7499161,45.7075195,96.1341934,45.7075195z M96.4784317,46.4223633
				c0-0.2607422-0.1103516-0.4174805-0.3339844-0.4174805c-0.1938477,0-0.3608398,0.1435547-0.3945312,0.4174805H96.4784317z"/>
			<path class="st6" d="M97.1815567,45.0288086h0.3842773v1.9584961c0,0.0932617,0.043457,0.1269531,0.0834961,0.1269531
				c0.0166016,0,0.0297852,0,0.0600586-0.0068359l0.050293,0.2875977c-0.046875,0.0200195-0.1137695,0.0332031-0.2041016,0.0332031
				c-0.2739258,0-0.3740234-0.1772461-0.3740234-0.4609375V45.0288086z"/>
		</g>
		<g>
			<path class="st6" d="M109.8490372,45.2026367h0.3876953v1.8579102h0.9057617v0.3276367h-1.293457V45.2026367z"/>
			<path class="st6" d="M112.0922012,45.7075195c0.4448242,0,0.6787109,0.3208008,0.6787109,0.7783203
				c0,0.0737305-0.0068359,0.140625-0.0170898,0.1806641h-1.0424805c0.0336914,0.2973633,0.2207031,0.4643555,0.484375,0.4643555
				c0.140625,0,0.2607422-0.043457,0.3813477-0.1201172l0.1303711,0.2402344
				c-0.1572266,0.1040039-0.3544922,0.1772461-0.5615234,0.1772461c-0.4545898,0-0.8085938-0.3173828-0.8085938-0.8588867
				C111.3373184,46.034668,111.7079239,45.7075195,112.0922012,45.7075195z M112.4364395,46.4223633
				c0-0.2607422-0.1103516-0.4174805-0.3339844-0.4174805c-0.1938477,0-0.3608398,0.1435547-0.3945312,0.4174805H112.4364395z"/>
			<path class="st6" d="M112.935463,45.7475586h0.3911133l0.2607422,0.8520508
				c0.043457,0.1601562,0.0932617,0.3276367,0.1367188,0.4946289h0.0136719
				c0.0463867-0.1669922,0.0932617-0.3344727,0.1401367-0.4946289l0.2607422-0.8520508h0.3710938l-0.5581055,1.640625h-0.4448242
				L112.935463,45.7475586z"/>
			<path class="st6" d="M115.4227676,45.7075195c0.4443359,0,0.6787109,0.3208008,0.6787109,0.7783203
				c0,0.0737305-0.0068359,0.140625-0.0170898,0.1806641h-1.0424805c0.0336914,0.2973633,0.2207031,0.4643555,0.484375,0.4643555
				c0.140625,0,0.2607422-0.043457,0.3813477-0.1201172l0.1303711,0.2402344
				c-0.1572266,0.1040039-0.3544922,0.1772461-0.5615234,0.1772461c-0.4545898,0-0.8085938-0.3173828-0.8085938-0.8588867
				C114.6678848,46.034668,115.0384903,45.7075195,115.4227676,45.7075195z M115.7670059,46.4223633
				c0-0.2607422-0.1103516-0.4174805-0.3339844-0.4174805c-0.1938477,0-0.3608398,0.1435547-0.3945312,0.4174805H115.7670059z"/>
			<path class="st6" d="M116.4696426,45.0288086h0.3842773v1.9584961c0,0.0932617,0.043457,0.1269531,0.0834961,0.1269531
				c0.0166016,0,0.0297852,0,0.0600586-0.0068359l0.050293,0.2875977c-0.046875,0.0200195-0.1137695,0.0332031-0.2041016,0.0332031
				c-0.2739258,0-0.3740234-0.1772461-0.3740234-0.4609375V45.0288086z"/>
			<path class="st6" d="M118.0912247,45.2026367h0.3876953v0.9926758h0.0102539l0.7783203-0.9926758h0.4277344l-0.6713867,0.8520508
				l0.7851562,1.3334961h-0.4277344l-0.5883789-1.0292969L118.47892,46.75v0.6381836h-0.3876953V45.2026367z"/>
			<path class="st6" d="M120.4486465,45.5302734h-0.6318359v-0.3276367h1.6474609v0.3276367h-0.628418v1.8579102h-0.387207
				V45.5302734z"/>
		</g>
		<g>
			<path class="st6" d="M136.4305878,45.1625977c0.3041992,0,0.5146484,0.137207,0.6513672,0.2773438l-0.2138672,0.2407227
				C136.7582245,45.5737305,136.637619,45.5,136.4340057,45.5c-0.3876953,0-0.6484375,0.3007812-0.6484375,0.7919922
				c0,0.4980469,0.2338867,0.7988281,0.671875,0.7988281c0.1201172,0,0.2402344-0.0336914,0.3105469-0.097168v-0.4711914h-0.4111328
				v-0.3173828h0.7587891v0.9624023c-0.1503906,0.140625-0.4077148,0.2607422-0.7050781,0.2607422
				c-0.581543,0-1.0224609-0.4008789-1.0224609-1.1259766C135.3881073,45.5869141,135.8422089,45.1625977,136.4305878,45.1625977z"
				/>
			<path class="st6" d="M138.456955,46.3388672c-0.003418-0.1738281-0.0771484-0.3208008-0.2973633-0.3208008
				c-0.1640625,0-0.3178711,0.0737305-0.4614258,0.1606445l-0.1401367-0.2573242
				c0.1801758-0.1137695,0.4111328-0.2138672,0.6713867-0.2138672c0.4111328,0,0.6118164,0.2504883,0.6118164,0.7080078v0.9726562
				h-0.3144531l-0.0297852-0.1806641h-0.0102539c-0.1469727,0.1240234-0.3139648,0.2207031-0.5078125,0.2207031
				c-0.2875977,0-0.487793-0.1938477-0.487793-0.480957C137.4911346,46.5961914,137.78508,46.4125977,138.456955,46.3388672z
				 M138.0990448,47.1274414c0.1337891,0,0.2373047-0.0668945,0.3579102-0.1801758v-0.3676758
				c-0.4443359,0.0566406-0.5917969,0.1738281-0.5917969,0.3374023
				C137.8651581,47.0639648,137.962326,47.1274414,138.0990448,47.1274414z"/>
			<path class="st6" d="M139.2670135,45.2426758c0-0.1303711,0.1000977-0.2202148,0.2373047-0.2202148
				c0.1367188,0,0.2368164,0.0898438,0.2368164,0.2202148c0,0.1269531-0.1000977,0.2172852-0.2368164,0.2172852
				C139.3671112,45.4599609,139.2670135,45.3696289,139.2670135,45.2426758z M139.3104706,45.7475586h0.3842773v1.640625h-0.3842773
				V45.7475586z"/>
			<path class="st6" d="M140.1864471,45.7475586h0.3173828l0.0263672,0.2202148h0.0136719
				c0.1469727-0.1435547,0.3139648-0.2602539,0.5380859-0.2602539c0.3505859,0,0.5043945,0.2373047,0.5043945,0.6513672v1.0292969
				h-0.3842773v-0.9790039c0-0.2709961-0.0766602-0.3710938-0.2573242-0.3710938
				c-0.1435547,0-0.2373047,0.0703125-0.3740234,0.2041016v1.1459961h-0.3842773V45.7475586z"/>
		</g>
		<g>
			<path class="st88" d="M148.9608917,9.0190916H4.9277391v-4.659595c0-0.3087258,0.2502718-0.5589979,0.5589976-0.5589979
				H148.401886c0.3087311,0,0.5590057,0.250272,0.5590057,0.5589979V9.0190916z"/>
		</g>
		<path class="st88" d="M75.9005966,33.0246162H4.9277391v-4.6595955c0-0.3087254,0.2502718-0.5589981,0.5589976-0.5589981
			h69.8548584c0.3087234,0,0.5589981,0.2502728,0.5589981,0.5589981V33.0246162z"/>
		<g>
			<path class="st88" d="M148.9608917,33.0246162H77.9880295v-4.6595955c0-0.3087254,0.2502747-0.5589981,0.5589981-0.5589981
				h69.8548584c0.3087311,0,0.5590057,0.2502728,0.5590057,0.5589981V33.0246162z"/>
		</g>
		<linearGradient id="SVGID_1_" gradientUnits="userSpaceOnUse" x1="20.5835152" y1="12.6721058" x2="20.5835152" y2="17.8906975">
			<stop  offset="0" style="stop-color:#E6E6E6"/>
			<stop  offset="0.1144047" style="stop-color:#E0E0E0"/>
			<stop  offset="0.2729498" style="stop-color:#CECECE"/>
			<stop  offset="0.4573082" style="stop-color:#B0B0B0"/>
			<stop  offset="0.6611366" style="stop-color:#878787"/>
			<stop  offset="0.878288" style="stop-color:#535353"/>
			<stop  offset="1" style="stop-color:#333333"/>
		</linearGradient>
		<path class="st89" d="M26.566328,17.8906975H14.6007042c-0.1543627,0-0.2794991-0.1251354-0.2794991-0.2794991v-4.6595936
			c0-0.1543636,0.1251364-0.2794991,0.2794991-0.2794991H26.566328c0.1543636,0,0.2794991,0.1251354,0.2794991,0.2794991v4.6595936
			C26.8458271,17.7655621,26.7206917,17.8906975,26.566328,17.8906975z"/>
		<linearGradient id="SVGID_2_" gradientUnits="userSpaceOnUse" x1="44.5890388" y1="12.6721058" x2="44.5890388" y2="17.8906975">
			<stop  offset="0" style="stop-color:#E6E6E6"/>
			<stop  offset="0.1144047" style="stop-color:#E0E0E0"/>
			<stop  offset="0.2729498" style="stop-color:#CECECE"/>
			<stop  offset="0.4573082" style="stop-color:#B0B0B0"/>
			<stop  offset="0.6611366" style="stop-color:#878787"/>
			<stop  offset="0.878288" style="stop-color:#535353"/>
			<stop  offset="1" style="stop-color:#333333"/>
		</linearGradient>
		<path class="st90" d="M50.5718536,17.8906975H38.6062279c-0.1543617,0-0.2794991-0.1251354-0.2794991-0.2794991v-4.6595936
			c0-0.1543636,0.1251373-0.2794991,0.2794991-0.2794991h11.9656258c0.1543617,0,0.2794991,0.1251354,0.2794991,0.2794991v4.6595936
			C50.8513527,17.7655621,50.7262154,17.8906975,50.5718536,17.8906975z"/>
		<linearGradient id="SVGID_3_" gradientUnits="userSpaceOnUse" x1="67.5508499" y1="12.6721058" x2="67.5508499" y2="17.8906975">
			<stop  offset="0" style="stop-color:#E6E6E6"/>
			<stop  offset="0.1144047" style="stop-color:#E0E0E0"/>
			<stop  offset="0.2729498" style="stop-color:#CECECE"/>
			<stop  offset="0.4573082" style="stop-color:#B0B0B0"/>
			<stop  offset="0.6611366" style="stop-color:#878787"/>
			<stop  offset="0.878288" style="stop-color:#535353"/>
			<stop  offset="1" style="stop-color:#333333"/>
		</linearGradient>
		<path class="st91" d="M73.5336609,17.8906975H61.5680351c-0.1543617,0-0.2794991-0.1251354-0.2794991-0.2794991v-4.6595936
			c0-0.1543636,0.1251373-0.2794991,0.2794991-0.2794991h11.9656258c0.1543579,0,0.2794952,0.1251354,0.2794952,0.2794991v4.6595936
			C73.8131561,17.7655621,73.6880188,17.8906975,73.5336609,17.8906975z"/>
		<linearGradient id="SVGID_4_" gradientUnits="userSpaceOnUse" x1="91.5563736" y1="12.6721058" x2="91.5563736" y2="17.8906975">
			<stop  offset="0" style="stop-color:#E6E6E6"/>
			<stop  offset="0.1144047" style="stop-color:#E0E0E0"/>
			<stop  offset="0.2729498" style="stop-color:#CECECE"/>
			<stop  offset="0.4573082" style="stop-color:#B0B0B0"/>
			<stop  offset="0.6611366" style="stop-color:#878787"/>
			<stop  offset="0.878288" style="stop-color:#535353"/>
			<stop  offset="1" style="stop-color:#333333"/>
		</linearGradient>
		<path class="st92" d="M97.5391846,17.8906975H85.5735626c-0.1543655,0-0.2795029-0.1251354-0.2795029-0.2794991v-4.6595936
			c0-0.1543636,0.1251373-0.2794991,0.2795029-0.2794991h11.9656219c0.1543655,0,0.2794952,0.1251354,0.2794952,0.2794991v4.6595936
			C97.8186798,17.7655621,97.6935501,17.8906975,97.5391846,17.8906975z"/>
		
			<linearGradient id="SVGID_5_" gradientUnits="userSpaceOnUse" x1="114.5217361" y1="12.6721058" x2="114.5217361" y2="17.8906975">
			<stop  offset="0" style="stop-color:#E6E6E6"/>
			<stop  offset="0.1144047" style="stop-color:#E0E0E0"/>
			<stop  offset="0.2729498" style="stop-color:#CECECE"/>
			<stop  offset="0.4573082" style="stop-color:#B0B0B0"/>
			<stop  offset="0.6611366" style="stop-color:#878787"/>
			<stop  offset="0.878288" style="stop-color:#535353"/>
			<stop  offset="1" style="stop-color:#333333"/>
		</linearGradient>
		<path class="st93" d="M120.5045471,17.8906975h-11.9656219c-0.1543579,0-0.2794952-0.1251354-0.2794952-0.2794991v-4.6595936
			c0-0.1543636,0.1251373-0.2794991,0.2794952-0.2794991h11.9656219c0.1543655,0,0.2795029,0.1251354,0.2795029,0.2794991v4.6595936
			C120.78405,17.7655621,120.6589127,17.8906975,120.5045471,17.8906975z"/>
		
			<linearGradient id="SVGID_6_" gradientUnits="userSpaceOnUse" x1="138.5236969" y1="12.6721058" x2="138.5236969" y2="17.8906975">
			<stop  offset="0" style="stop-color:#E6E6E6"/>
			<stop  offset="0.1144047" style="stop-color:#E0E0E0"/>
			<stop  offset="0.2729498" style="stop-color:#CECECE"/>
			<stop  offset="0.4573082" style="stop-color:#B0B0B0"/>
			<stop  offset="0.6611366" style="stop-color:#878787"/>
			<stop  offset="0.878288" style="stop-color:#535353"/>
			<stop  offset="1" style="stop-color:#333333"/>
		</linearGradient>
		<path class="st94" d="M144.5065155,17.8906975h-11.9656219c-0.1543732,0-0.2794952-0.1251354-0.2794952-0.2794991v-4.6595936
			c0-0.1543636,0.1251221-0.2794991,0.2794952-0.2794991h11.9656219c0.1543579,0,0.2794952,0.1251354,0.2794952,0.2794991v4.6595936
			C144.7860107,17.7655621,144.6608734,17.8906975,144.5065155,17.8906975z"/>
		<linearGradient id="SVGID_7_" gradientUnits="userSpaceOnUse" x1="20.5835152" y1="36.6776314" x2="20.5835152" y2="41.8962212">
			<stop  offset="0" style="stop-color:#E6E6E6"/>
			<stop  offset="0.1144047" style="stop-color:#E0E0E0"/>
			<stop  offset="0.2729498" style="stop-color:#CECECE"/>
			<stop  offset="0.4573082" style="stop-color:#B0B0B0"/>
			<stop  offset="0.6611366" style="stop-color:#878787"/>
			<stop  offset="0.878288" style="stop-color:#535353"/>
			<stop  offset="1" style="stop-color:#333333"/>
		</linearGradient>
		<path class="st95" d="M26.566328,41.8962212H14.6007042c-0.1543627,0-0.2794991-0.1251335-0.2794991-0.2794991v-4.6595917
			c0-0.1543655,0.1251364-0.2794991,0.2794991-0.2794991H26.566328c0.1543636,0,0.2794991,0.1251335,0.2794991,0.2794991v4.6595917
			C26.8458271,41.7710876,26.7206917,41.8962212,26.566328,41.8962212z"/>
		<linearGradient id="SVGID_8_" gradientUnits="userSpaceOnUse" x1="44.5890388" y1="36.6776314" x2="44.5890388" y2="41.8962212">
			<stop  offset="0" style="stop-color:#E6E6E6"/>
			<stop  offset="0.1144047" style="stop-color:#E0E0E0"/>
			<stop  offset="0.2729498" style="stop-color:#CECECE"/>
			<stop  offset="0.4573082" style="stop-color:#B0B0B0"/>
			<stop  offset="0.6611366" style="stop-color:#878787"/>
			<stop  offset="0.878288" style="stop-color:#535353"/>
			<stop  offset="1" style="stop-color:#333333"/>
		</linearGradient>
		<path class="st96" d="M50.5718536,41.8962212H38.6062279c-0.1543617,0-0.2794991-0.1251335-0.2794991-0.2794991v-4.6595917
			c0-0.1543655,0.1251373-0.2794991,0.2794991-0.2794991h11.9656258c0.1543617,0,0.2794991,0.1251335,0.2794991,0.2794991v4.6595917
			C50.8513527,41.7710876,50.7262154,41.8962212,50.5718536,41.8962212z"/>
		<linearGradient id="SVGID_9_" gradientUnits="userSpaceOnUse" x1="67.5508499" y1="36.6776314" x2="67.5508499" y2="41.8962212">
			<stop  offset="0" style="stop-color:#E6E6E6"/>
			<stop  offset="0.1144047" style="stop-color:#E0E0E0"/>
			<stop  offset="0.2729498" style="stop-color:#CECECE"/>
			<stop  offset="0.4573082" style="stop-color:#B0B0B0"/>
			<stop  offset="0.6611366" style="stop-color:#878787"/>
			<stop  offset="0.878288" style="stop-color:#535353"/>
			<stop  offset="1" style="stop-color:#333333"/>
		</linearGradient>
		<path class="st97" d="M73.5336609,41.8962212H61.5680351c-0.1543617,0-0.2794991-0.1251335-0.2794991-0.2794991v-4.6595917
			c0-0.1543655,0.1251373-0.2794991,0.2794991-0.2794991h11.9656258c0.1543579,0,0.2794952,0.1251335,0.2794952,0.2794991v4.6595917
			C73.8131561,41.7710876,73.6880188,41.8962212,73.5336609,41.8962212z"/>
		<linearGradient id="SVGID_10_" gradientUnits="userSpaceOnUse" x1="91.5563736" y1="36.6776314" x2="91.5563736" y2="41.8962212">
			<stop  offset="0" style="stop-color:#E6E6E6"/>
			<stop  offset="0.1144047" style="stop-color:#E0E0E0"/>
			<stop  offset="0.2729498" style="stop-color:#CECECE"/>
			<stop  offset="0.4573082" style="stop-color:#B0B0B0"/>
			<stop  offset="0.6611366" style="stop-color:#878787"/>
			<stop  offset="0.878288" style="stop-color:#535353"/>
			<stop  offset="1" style="stop-color:#333333"/>
		</linearGradient>
		<path class="st98" d="M97.5391846,41.8962212H85.5735626c-0.1543655,0-0.2795029-0.1251335-0.2795029-0.2794991v-4.6595917
			c0-0.1543655,0.1251373-0.2794991,0.2795029-0.2794991h11.9656219c0.1543655,0,0.2794952,0.1251335,0.2794952,0.2794991v4.6595917
			C97.8186798,41.7710876,97.6935501,41.8962212,97.5391846,41.8962212z"/>
		
			<linearGradient id="SVGID_11_" gradientUnits="userSpaceOnUse" x1="114.5181808" y1="36.6776314" x2="114.5181808" y2="41.8962212">
			<stop  offset="0" style="stop-color:#E6E6E6"/>
			<stop  offset="0.1144047" style="stop-color:#E0E0E0"/>
			<stop  offset="0.2729498" style="stop-color:#CECECE"/>
			<stop  offset="0.4573082" style="stop-color:#B0B0B0"/>
			<stop  offset="0.6611366" style="stop-color:#878787"/>
			<stop  offset="0.878288" style="stop-color:#535353"/>
			<stop  offset="1" style="stop-color:#333333"/>
		</linearGradient>
		<path class="st99" d="M120.5009918,41.8962212h-11.9656296c-0.1543579,0-0.2794952-0.1251335-0.2794952-0.2794991v-4.6595917
			c0-0.1543655,0.1251373-0.2794991,0.2794952-0.2794991h11.9656296c0.1543579,0,0.2794952,0.1251335,0.2794952,0.2794991v4.6595917
			C120.7804871,41.7710876,120.6553497,41.8962212,120.5009918,41.8962212z"/>
		
			<linearGradient id="SVGID_12_" gradientUnits="userSpaceOnUse" x1="138.5236969" y1="36.6776314" x2="138.5236969" y2="41.8962212">
			<stop  offset="0" style="stop-color:#E6E6E6"/>
			<stop  offset="0.1144047" style="stop-color:#E0E0E0"/>
			<stop  offset="0.2729498" style="stop-color:#CECECE"/>
			<stop  offset="0.4573082" style="stop-color:#B0B0B0"/>
			<stop  offset="0.6611366" style="stop-color:#878787"/>
			<stop  offset="0.878288" style="stop-color:#535353"/>
			<stop  offset="1" style="stop-color:#333333"/>
		</linearGradient>
		<path class="st100" d="M144.5065155,41.8962212h-11.9656219c-0.1543732,0-0.2794952-0.1251335-0.2794952-0.2794991v-4.6595917
			c0-0.1543655,0.1251221-0.2794991,0.2794952-0.2794991h11.9656219c0.1543579,0,0.2794952,0.1251335,0.2794952,0.2794991v4.6595917
			C144.7860107,41.7710876,144.6608734,41.8962212,144.5065155,41.8962212z"/>
		<g>
			<path class="st6" d="M68.393959,5.5405273h1.3134766v0.3276367h-0.9257812v0.5581055h0.7851562V6.753418h-0.7851562v0.6450195
				h0.9589844v0.3276367H68.393959V5.5405273z"/>
			<path class="st6" d="M70.1796036,5.5405273h0.3979492l0.6782227,1.2299805l0.2270508,0.4643555h0.0136719
				c-0.0200195-0.2241211-0.050293-0.5014648-0.050293-0.7451172V5.5405273h0.3676758v2.1855469h-0.3979492L70.737709,6.496582
				l-0.2270508-0.4648438h-0.0136719c0.0200195,0.2304688,0.050293,0.4946289,0.050293,0.7387695v0.9555664h-0.3676758V5.5405273z"
				/>
			<path class="st6" d="M72.0721817,5.5405273h0.4111328l0.3071289,1.0996094
				c0.0703125,0.2470703,0.1171875,0.4609375,0.1904297,0.7119141h0.0136719
				c0.0732422-0.2509766,0.1235352-0.4648438,0.1938477-0.7119141l0.3037109-1.0996094h0.3945312l-0.6748047,2.1855469h-0.4614258
				L72.0721817,5.5405273z"/>
			<path class="st6" d="M74.1449356,5.5405273h1.3134766v0.3276367h-0.9257812v0.5581055h0.7851562V6.753418h-0.7851562v0.6450195
				h0.9589844v0.3276367h-1.3466797V5.5405273z"/>
			<path class="st6" d="M75.9305801,5.5405273h0.3876953v1.8579102h0.9057617v0.3276367h-1.293457V5.5405273z"/>
			<path class="st6" d="M77.3788223,6.6235352c0-0.7050781,0.394043-1.1230469,0.9658203-1.1230469
				c0.5678711,0,0.9619141,0.4179688,0.9619141,1.1230469c0,0.7080078-0.394043,1.1425781-0.9619141,1.1425781
				C77.7728653,7.7661133,77.3788223,7.331543,77.3788223,6.6235352z M78.9090958,6.6235352
				c0-0.4882812-0.2236328-0.7856445-0.5644531-0.7856445c-0.3442383,0-0.5683594,0.2973633-0.5683594,0.7856445
				c0,0.4912109,0.2241211,0.8051758,0.5683594,0.8051758C78.685463,7.4287109,78.9090958,7.1147461,78.9090958,6.6235352z"/>
			<path class="st6" d="M79.7391739,5.5405273h0.7353516c0.4775391,0,0.8286133,0.1669922,0.8286133,0.675293
				c0,0.484375-0.3608398,0.7084961-0.8286133,0.7084961h-0.3476562v0.8017578h-0.3876953V5.5405273z M80.440834,6.6132812
				c0.3276367,0,0.4814453-0.1303711,0.4814453-0.3974609c0-0.2744141-0.1635742-0.3642578-0.4814453-0.3642578h-0.3139648
				v0.7617188H80.440834z"/>
			<path class="st6" d="M81.7049942,5.5405273h1.3134766v0.3276367h-0.9257812v0.5581055h0.7851562V6.753418h-0.7851562v0.6450195
				h0.9589844v0.3276367h-1.3466797V5.5405273z"/>
			<path class="st6" d="M85.1888809,7.1347656h-0.7319336l-0.1704102,0.5913086h-0.3974609L84.60392,5.5405273h0.4545898
				l0.7119141,2.1855469h-0.4111328L85.1888809,7.1347656z M85.1019669,6.8305664l-0.0766602-0.2675781
				c-0.0668945-0.2304688-0.1337891-0.480957-0.1972656-0.7216797h-0.0136719
				c-0.0600586,0.2441406-0.1235352,0.4912109-0.1938477,0.7216797l-0.0766602,0.2675781H85.1019669z"/>
		</g>
		<g>
			<path class="st22" d="M31.8304825,29.5473633h1.3134766V29.875h-0.9257812v0.5581055h0.7851562v0.3271484h-0.7851562v0.6450195
				h0.9589844v0.3276367h-1.3466797V29.5473633z"/>
			<path class="st22" d="M33.616127,29.5473633h0.3979492l0.6782227,1.2299805l0.2270508,0.4643555h0.0136719
				c-0.0200195-0.2241211-0.050293-0.5014648-0.050293-0.7451172v-0.9492188h0.3676758v2.1855469h-0.3979492l-0.6782227-1.2294922
				l-0.2270508-0.4648438h-0.0136719c0.0200195,0.2304688,0.050293,0.4946289,0.050293,0.7387695v0.9555664H33.616127V29.5473633z"
				/>
			<path class="st22" d="M35.5087051,29.5473633h0.4111328l0.3071289,1.0996094
				c0.0703125,0.2470703,0.1171875,0.4609375,0.1904297,0.7119141h0.0136719
				c0.0732422-0.2509766,0.1235352-0.4648438,0.1938477-0.7119141l0.3037109-1.0996094h0.3945312l-0.6748047,2.1855469h-0.4614258
				L35.5087051,29.5473633z"/>
			<path class="st22" d="M37.581459,29.5473633h1.3134766V29.875h-0.9257812v0.5581055h0.7851562v0.3271484h-0.7851562v0.6450195
				h0.9589844v0.3276367H37.581459V29.5473633z"/>
			<path class="st22" d="M39.3671036,29.5473633h0.3876953v1.8579102h0.9057617v0.3276367h-1.293457V29.5473633z"/>
			<path class="st22" d="M40.8153458,30.6303711c0-0.7050781,0.394043-1.1230469,0.9658203-1.1230469
				c0.5678711,0,0.9619141,0.4179688,0.9619141,1.1230469c0,0.7080078-0.394043,1.1425781-0.9619141,1.1425781
				C41.2093887,31.7729492,40.8153458,31.3383789,40.8153458,30.6303711z M42.3456192,30.6303711
				c0-0.4882812-0.2236328-0.7856445-0.5644531-0.7856445c-0.3442383,0-0.5683594,0.2973633-0.5683594,0.7856445
				c0,0.4912109,0.2241211,0.8051758,0.5683594,0.8051758C42.1219864,31.4355469,42.3456192,31.121582,42.3456192,30.6303711z"/>
			<path class="st22" d="M43.1756973,29.5473633h0.7353516c0.4775391,0,0.8286133,0.1669922,0.8286133,0.675293
				c0,0.484375-0.3608398,0.7084961-0.8286133,0.7084961h-0.3476562v0.8017578h-0.3876953V29.5473633z M43.8773575,30.6201172
				c0.3276367,0,0.4814453-0.1303711,0.4814453-0.3974609c0-0.2744141-0.1635742-0.3642578-0.4814453-0.3642578h-0.3139648
				v0.7617188H43.8773575z"/>
			<path class="st22" d="M45.1415176,29.5473633h1.3134766V29.875H45.529213v0.5581055h0.7851562v0.3271484H45.529213v0.6450195
				h0.9589844v0.3276367h-1.3466797V29.5473633z"/>
			<path class="st22" d="M48.5047989,29.5073242c0.2675781,0,0.4848633,0.1303711,0.621582,0.2773438l-0.2138672,0.2407227
				c-0.1132812-0.1103516-0.2368164-0.1806641-0.4042969-0.1806641c-0.3574219,0-0.6147461,0.3007812-0.6147461,0.7919922
				c0,0.4980469,0.2373047,0.7988281,0.6015625,0.7988281c0.1938477,0,0.3374023-0.0800781,0.4609375-0.2172852l0.2138672,0.2373047
				c-0.1767578,0.2036133-0.4042969,0.3173828-0.6816406,0.3173828c-0.5546875,0-0.9921875-0.4008789-0.9921875-1.1259766
				C47.4960098,29.9316406,47.9437637,29.5073242,48.5047989,29.5073242z"/>
		</g>
		<g>
			<path class="st6" d="M104.9222794,29.5473633h1.3134766V29.875h-0.9257812v0.5581055h0.7851562v0.3271484h-0.7851562v0.6450195
				h0.9589844v0.3276367h-1.3466797V29.5473633z"/>
			<path class="st6" d="M106.7079239,29.5473633h0.3979492l0.6782227,1.2299805l0.2270508,0.4643555h0.0136719
				c-0.0200195-0.2241211-0.050293-0.5014648-0.050293-0.7451172v-0.9492188h0.3676758v2.1855469h-0.3979492l-0.6782227-1.2294922
				l-0.2270508-0.4648438h-0.0136719c0.0200195,0.2304688,0.050293,0.4946289,0.050293,0.7387695v0.9555664h-0.3676758V29.5473633z"
				/>
			<path class="st6" d="M108.600502,29.5473633h0.4111328l0.3071289,1.0996094
				c0.0703125,0.2470703,0.1171875,0.4609375,0.1904297,0.7119141h0.0136719
				c0.0732422-0.2509766,0.1235352-0.4648438,0.1938477-0.7119141l0.3037109-1.0996094h0.3945312l-0.6748047,2.1855469h-0.4614258
				L108.600502,29.5473633z"/>
			<path class="st6" d="M110.6732559,29.5473633h1.3134766V29.875h-0.9257812v0.5581055h0.7851562v0.3271484h-0.7851562v0.6450195
				h0.9589844v0.3276367h-1.3466797V29.5473633z"/>
			<path class="st6" d="M112.4589005,29.5473633h0.3876953v1.8579102h0.9057617v0.3276367h-1.293457V29.5473633z"/>
			<path class="st6" d="M113.9071426,30.6303711c0-0.7050781,0.394043-1.1230469,0.9658203-1.1230469
				c0.5678711,0,0.9619141,0.4179688,0.9619141,1.1230469c0,0.7080078-0.394043,1.1425781-0.9619141,1.1425781
				C114.3011856,31.7729492,113.9071426,31.3383789,113.9071426,30.6303711z M115.4374161,30.6303711
				c0-0.4882812-0.2236328-0.7856445-0.5644531-0.7856445c-0.3442383,0-0.5683594,0.2973633-0.5683594,0.7856445
				c0,0.4912109,0.2241211,0.8051758,0.5683594,0.8051758C115.2137833,31.4355469,115.4374161,31.121582,115.4374161,30.6303711z"/>
			<path class="st6" d="M116.2674942,29.5473633h0.7353516c0.4775391,0,0.8286133,0.1669922,0.8286133,0.675293
				c0,0.484375-0.3608398,0.7084961-0.8286133,0.7084961h-0.3476562v0.8017578h-0.3876953V29.5473633z M116.9691544,30.6201172
				c0.3276367,0,0.4814453-0.1303711,0.4814453-0.3974609c0-0.2744141-0.1635742-0.3642578-0.4814453-0.3642578h-0.3139648
				v0.7617188H116.9691544z"/>
			<path class="st6" d="M118.2333145,29.5473633h1.3134766V29.875h-0.9257812v0.5581055h0.7851562v0.3271484h-0.7851562v0.6450195
				h0.9589844v0.3276367h-1.3466797V29.5473633z"/>
			<path class="st6" d="M121.7172012,31.1416016h-0.7319336l-0.1704102,0.5913086h-0.3974609l0.7148438-2.1855469h0.4545898
				l0.7119141,2.1855469h-0.4111328L121.7172012,31.1416016z M121.6302872,30.8374023l-0.0766602-0.2675781
				c-0.0668945-0.2304688-0.1337891-0.480957-0.1972656-0.7216797h-0.0136719
				c-0.0600586,0.2441406-0.1235352,0.4912109-0.1938477,0.7216797l-0.0766602,0.2675781H121.6302872z"/>
		</g>
	</g>
</g>
<g id="BB">
</g>
</svg>
