<svg xmlns="http://www.w3.org/2000/svg" xmlns:xlink="http://www.w3.org/1999/xlink" viewBox="0 0 400 134.66667"><defs><linearGradient id="a" x1="49.08346" y1="27.3454" x2="49.08346" y2="43.15497" gradientUnits="userSpaceOnUse"><stop offset="0" stop-color="#e6e6e6"/><stop offset="0.1144" stop-color="#e0e0e0"/><stop offset="0.27295" stop-color="#cecece"/><stop offset="0.45731" stop-color="#b0b0b0"/><stop offset="0.66114" stop-color="#878787"/><stop offset="0.87829" stop-color="#535353"/><stop offset="1" stop-color="#333"/></linearGradient><linearGradient id="b" x1="112.01998" y1="27.3454" x2="112.01998" y2="43.15497" xlink:href="#a"/><linearGradient id="c" x1="174.9565" y1="27.3454" x2="174.9565" y2="43.15497" xlink:href="#a"/><linearGradient id="d" x1="237.89205" y1="27.3454" x2="237.89205" y2="43.15497" xlink:href="#a"/><linearGradient id="e" x1="300.82662" y1="27.3454" x2="300.82662" y2="43.15497" xlink:href="#a"/><linearGradient id="f" x1="363.70553" y1="27.3454" x2="363.70553" y2="43.15497" xlink:href="#a"/><linearGradient id="g" x1="49.08346" y1="89.88495" x2="49.08346" y2="105.69452" xlink:href="#a"/><linearGradient id="h" x1="112.01998" y1="89.88495" x2="112.01998" y2="105.69452" xlink:href="#a"/><linearGradient id="i" x1="174.9565" y1="89.88495" x2="174.9565" y2="105.69452" xlink:href="#a"/><linearGradient id="j" x1="237.89205" y1="89.88495" x2="237.89205" y2="105.69452" xlink:href="#a"/><linearGradient id="k" x1="300.82662" y1="89.88495" x2="300.82662" y2="105.69452" xlink:href="#a"/><linearGradient id="l" x1="363.70553" y1="89.88495" x2="363.70553" y2="105.69452" xlink:href="#a"/></defs><title>parameter-panel-led</title><rect width="400" height="135"/><path d="M204.00391,70.73438H388.6748a2.27246,2.27246,0,0,1,2.27246,2.27246V125.562a2.27246,2.27246,0,0,1-2.27246,2.27246H204.00439a2.27295,2.27295,0,0,1-2.27295-2.27295V73.00684A2.27246,2.27246,0,0,1,204.00391,70.73438Z" fill="#414141"/><path d="M388.67505,70.98425a2.02852,2.02852,0,0,1,2.02258,2.02259v52.55481a2.02852,2.02852,0,0,1-2.02258,2.02258H204.00427a2.02852,2.02852,0,0,1-2.02258-2.02258V73.00684a2.02853,2.02853,0,0,1,2.02258-2.02259H388.67505m0-.5H204.00427a2.52544,2.52544,0,0,0-2.52258,2.52259v52.55481a2.52543,2.52543,0,0,0,2.52258,2.52258H388.67505a2.52543,2.52543,0,0,0,2.52258-2.52258V73.00684a2.52544,2.52544,0,0,0-2.52258-2.52259Z" fill="gray"/><rect x="9.17383" y="70.73438" width="189.21582" height="57.1001" rx="2.27246" ry="2.27246" fill="#414141"/><path d="M196.11694,70.98425a2.02853,2.02853,0,0,1,2.02259,2.02259v52.55481a2.02853,2.02853,0,0,1-2.02259,2.02258H11.44617a2.02853,2.02853,0,0,1-2.02259-2.02258V73.00684a2.02853,2.02853,0,0,1,2.02259-2.02259H196.11694m0-.5H11.44617a2.52545,2.52545,0,0,0-2.52259,2.52259v52.55481a2.52544,2.52544,0,0,0,2.52259,2.52258H196.11694a2.52544,2.52544,0,0,0,2.52259-2.52258V73.00684a2.52545,2.52545,0,0,0-2.52259-2.52259Z" fill="gray"/><path d="M11.44434,7.74121H388.5542a2.27295,2.27295,0,0,1,2.27295,2.27295V62.56885a2.27246,2.27246,0,0,1-2.27246,2.27246H11.44434a2.27246,2.27246,0,0,1-2.27246-2.27246V10.01367a2.27246,2.27246,0,0,1,2.27246-2.27246Z" fill="#414141"/><path d="M388.55481,7.99139a2.02852,2.02852,0,0,1,2.02258,2.02259V62.56879a2.02852,2.02852,0,0,1-2.02258,2.02258H11.44434a2.02853,2.02853,0,0,1-2.02259-2.02258V10.014a2.02853,2.02853,0,0,1,2.02259-2.02259H388.55481m0-.5H11.44434A2.52544,2.52544,0,0,0,8.92175,10.014V62.56879a2.52543,2.52543,0,0,0,2.52259,2.52258H388.55481a2.52543,2.52543,0,0,0,2.52258-2.52258V10.014a2.52544,2.52544,0,0,0-2.52258-2.52259Z" fill="gray"/><path d="M198.13953,85.65091H9.42358V73.07948A1.99737,1.99737,0,0,1,11.292,70.98424H196.27112a1.99766,1.99766,0,0,1,1.86841,2.09524Z" fill="#333"/><path d="M390.69767,85.65091h-188.716V73.07948a1.99737,1.99737,0,0,1,1.86842-2.09524H388.82926a1.99766,1.99766,0,0,1,1.86841,2.09524Z" fill="#333"/><path d="M390.57736,22.65806H9.42175V10.08663A1.99736,1.99736,0,0,1,11.29017,7.9914H388.70894a1.99766,1.99766,0,0,1,1.86842,2.09523Z" fill="#333"/><path d="M22.93982,56.48242a1.35315,1.35315,0,1,1-1.35315,1.35315,1.35469,1.35469,0,0,1,1.35315-1.35315m0-.71667a2.06983,2.06983,0,1,0,2.06982,2.06982,2.07025,2.07025,0,0,0-2.06982-2.06982Z" fill="#dcddde"/><path d="M22.93982,50.08289A1.35312,1.35312,0,1,1,21.58667,51.436a1.35467,1.35467,0,0,1,1.35315-1.35308m0-.71668A2.0698,2.0698,0,1,0,25.00964,51.436a2.0702,2.0702,0,0,0-2.06982-2.06976Z" fill="#dcddde"/><path d="M337.10559,53.28766a1.35315,1.35315,0,1,1-1.35315,1.35321,1.35474,1.35474,0,0,1,1.35315-1.35321m0-.71668a2.06983,2.06983,0,1,0,2.06983,2.06989,2.07019,2.07019,0,0,0-2.06983-2.06989Z" fill="#dcddde"/><path d="M22.91785,113.07568a1.35315,1.35315,0,1,1-1.35315,1.35315,1.35469,1.35469,0,0,1,1.35315-1.35315m0-.71667a2.06983,2.06983,0,1,0,2.06982,2.06982,2.06956,2.06956,0,0,0-2.06982-2.06982Z" fill="#dcddde"/><path d="M22.91785,119.4754a1.35312,1.35312,0,1,1-1.35315,1.35315,1.35469,1.35469,0,0,1,1.35315-1.35315m0-.71667a2.0698,2.0698,0,1,0,2.06982,2.06982,2.06948,2.06948,0,0,0-2.06982-2.06982Z" fill="#dcddde"/><path d="M276.522,116.26263a1.35315,1.35315,0,1,1-1.35315,1.35315,1.35469,1.35469,0,0,1,1.35315-1.35315m0-.71667a2.06983,2.06983,0,1,0,2.06983,2.06982A2.069,2.069,0,0,0,276.522,115.546Z" fill="#dcddde"/><path d="M85.82422,116.26263a1.35315,1.35315,0,1,1-1.353,1.35315,1.35469,1.35469,0,0,1,1.353-1.35315m0-.71667a2.06983,2.06983,0,1,0,2.06982,2.06982,2.069,2.069,0,0,0-2.06982-2.06982Z" fill="#dcddde"/><path d="M148.1499,116.26263a1.35315,1.35315,0,1,1-1.35315,1.35315,1.35469,1.35469,0,0,1,1.35315-1.35315m0-.71667a2.06983,2.06983,0,1,0,2.06983,2.06982,2.069,2.069,0,0,0-2.06983-2.06982Z" fill="#dcddde"/><path d="M37.11133,51.4541H38.4541l2.10254,6.45654h-1.2041l-.50391-1.74755H36.67676l-.50293,1.74755h-1.165Zm-.168,3.81055H38.5918l-.22657-.78955c-.207-.68115-.39453-1.42188-.582-2.13233h-.04c-.17773.72071-.36523,1.45118-.57226,2.13233Z" fill="#dcddde"/><path d="M41.51758,56.272V53.96191h-.69141v-.84912l.75-.04931.13867-1.32325h.94825v1.32325h1.23339v.89843H42.66309V56.272c0,.57227.21679.84912.68066.84912a1.397,1.397,0,0,0,.50391-.10888l.19726.83935a3.09765,3.09765,0,0,1-.9873.17774C41.93164,58.0293,41.51758,57.31836,41.51758,56.272Z" fill="#dcddde"/><path d="M45.13281,56.272V53.96191h-.6914v-.84912l.75-.04931.13867-1.32325h.94824v1.32325h1.2334v.89843h-1.2334V56.272c0,.57227.2168.84912.68066.84912a1.3969,1.3969,0,0,0,.50391-.10888l.19727.83935a3.09772,3.09772,0,0,1-.98731.17774C45.54688,58.0293,45.13281,57.31836,45.13281,56.272Z" fill="#dcddde"/><path d="M48.31348,56.60742c0-1.03662.85937-1.57959,2.85351-1.79687-.01953-.51319-.22754-.94776-.88867-.94776a2.76185,2.76185,0,0,0-1.3623.47412l-.415-.76025a3.79513,3.79513,0,0,1,1.99414-.63184c1.20508,0,1.80664.74024,1.80664,2.09278v2.873h-.9375l-.0791-.5332h-.03907a2.3625,2.3625,0,0,1-1.501.65186A1.35555,1.35555,0,0,1,48.31348,56.60742Zm2.85351,0V55.52148c-1.32324.168-1.75781.51319-1.75781.99707,0,.43457.29687.62207.70117.62207A1.54127,1.54127,0,0,0,51.167,56.60742Z" fill="#dcddde"/><path d="M53.59766,55.4917a2.39121,2.39121,0,0,1,2.42871-2.54688,2.0886,2.0886,0,0,1,1.42187.543l-.55273.74024a1.18572,1.18572,0,0,0-.80957-.355c-.78028,0-1.32324.6416-1.32324,1.61865,0,.96777.5332,1.60937,1.29394,1.60937a1.61667,1.61667,0,0,0,.99707-.41455l.46387.75a2.42,2.42,0,0,1-1.58008.59278A2.30687,2.30687,0,0,1,53.59766,55.4917Z" fill="#dcddde"/><path d="M58.72461,50.94092h1.11523v4.35351h.03028L61.667,53.06348h1.24317L61.252,55.0376l1.82617,2.873H61.84473l-1.24414-2.103-.76075.86914v1.23388H58.72461Z" fill="#dcddde"/><path d="M37.1123,114.33252h1.34278l2.10254,6.45654h-1.2041l-.50391-1.74756H36.67773l-.50293,1.74756h-1.165Zm-.168,3.81055h1.64843l-.22656-.78955c-.207-.68116-.39453-1.42188-.582-2.13233h-.04c-.17773.7207-.36523,1.45117-.57226,2.13233Z" fill="#dcddde"/><path d="M41.51855,119.15039v-2.31055h-.6914v-.84863l.751-.04932.1377-1.32324h.94824v1.32324h1.2334v.89795h-1.2334v2.31055c0,.57227.2168.84863.68067.84863a1.39641,1.39641,0,0,0,.5039-.1084l.19727.83936a3.09768,3.09768,0,0,1-.98731.17773C41.93262,120.90771,41.51855,120.19678,41.51855,119.15039Z" fill="#dcddde"/><path d="M45.13379,119.15039v-2.31055h-.69141v-.84863l.751-.04932.13769-1.32324h.94825v1.32324h1.2334v.89795H46.2793v2.31055c0,.57227.21679.84863.68066.84863a1.39646,1.39646,0,0,0,.50391-.1084l.19726.83936a3.09767,3.09767,0,0,1-.9873.17773C45.54785,120.90771,45.13379,120.19678,45.13379,119.15039Z" fill="#dcddde"/><path d="M48.31445,119.48584c0-1.03662.85938-1.57959,2.85352-1.79688-.01953-.51318-.22754-.94775-.88867-.94775a2.76185,2.76185,0,0,0-1.36231.47412l-.415-.76025a3.79516,3.79516,0,0,1,1.99414-.63184c1.20508,0,1.80664.74024,1.80664,2.09278v2.873h-.9375l-.0791-.5332h-.03906a2.36255,2.36255,0,0,1-1.501.65185A1.35555,1.35555,0,0,1,48.31445,119.48584Zm2.85352,0V118.3999c-1.32324.168-1.75781.51319-1.75781.99707,0,.43457.29687.62207.70117.62207A1.54129,1.54129,0,0,0,51.168,119.48584Z" fill="#dcddde"/><path d="M53.59863,118.37012a2.39121,2.39121,0,0,1,2.42871-2.54688,2.08863,2.08863,0,0,1,1.42188.543l-.55274.74024a1.18565,1.18565,0,0,0-.80957-.355c-.78027,0-1.32324.64161-1.32324,1.61866,0,.96777.53321,1.60937,1.294,1.60937a1.61667,1.61667,0,0,0,.99707-.41455l.46386.75049a2.422,2.422,0,0,1-1.58007.59228A2.30687,2.30687,0,0,1,53.59863,118.37012Z" fill="#dcddde"/><path d="M58.72559,113.81934h1.11523v4.35351h.03027l1.79688-2.231h1.24316l-1.6582,1.97413,1.82617,2.873H61.8457l-1.24414-2.103-.76074.86914v1.23388H58.72559Z" fill="#dcddde"/><path d="M95.76953,51.4541h1.72754a2.85035,2.85035,0,0,1,3.13965,3.19873c0,2.14209-1.165,3.25781-3.08008,3.25781H95.76953ZM97.418,56.98242c1.30371,0,2.04394-.74023,2.04394-2.32959,0-1.57959-.74023-2.271-2.04394-2.271H96.915v4.60058Z" fill="#dcddde"/><path d="M101.77539,55.4917a2.35927,2.35927,0,0,1,2.23145-2.54688c1.31347,0,2.0039.94776,2.0039,2.3003a2.66894,2.66894,0,0,1-.04883.55273h-3.08007a1.38733,1.38733,0,0,0,1.43164,1.35254,2.02538,2.02538,0,0,0,1.125-.35547l.38476.71094a3.05579,3.05579,0,0,1-1.6582.52344A2.33787,2.33787,0,0,1,101.77539,55.4917Zm3.248-.46387c0-.75049-.3252-1.20459-.98633-1.20459a1.21724,1.21724,0,0,0-1.165,1.20459Z" fill="#dcddde"/><path d="M107.03027,55.4917a2.39121,2.39121,0,0,1,2.42871-2.54688,2.08863,2.08863,0,0,1,1.42188.543l-.55274.74024a1.18569,1.18569,0,0,0-.80957-.355c-.78027,0-1.32324.6416-1.32324,1.61865,0,.96777.53321,1.60937,1.29395,1.60937a1.61667,1.61667,0,0,0,.99707-.41455l.46387.75a2.42,2.42,0,0,1-1.58008.59278A2.30688,2.30688,0,0,1,107.03027,55.4917Z" fill="#dcddde"/><path d="M111.80078,56.60742c0-1.03662.85938-1.57959,2.85352-1.79687-.01953-.51319-.22754-.94776-.88868-.94776a2.76185,2.76185,0,0,0-1.3623.47412l-.415-.76025a3.79513,3.79513,0,0,1,1.99414-.63184c1.20508,0,1.80664.74024,1.80664,2.09278v2.873h-.9375l-.0791-.5332h-.03906a2.36251,2.36251,0,0,1-1.501.65186A1.35556,1.35556,0,0,1,111.80078,56.60742Zm2.85352,0V55.52148c-1.32325.168-1.75782.51319-1.75782.99707,0,.43457.29688.62207.70118.62207A1.54129,1.54129,0,0,0,114.6543,56.60742Z" fill="#dcddde"/><path d="M117.0957,59.80615l.207-.88867a1.18221,1.18221,0,0,0,.34571.06934,1.01532,1.01532,0,0,0,.96679-.82959l.08887-.30567-1.90527-4.78808h1.15527l.83887,2.3789c.13867.42481.27637.90821.4248,1.36231h.04c.11817-.44385.2461-.92774.36524-1.36231l.73047-2.3789h1.0957l-1.75781,5.06445c-.4043,1.0957-.90821,1.77686-1.96387,1.77686A1.88885,1.88885,0,0,1,117.0957,59.80615Z" fill="#dcddde"/><path d="M124.77051,56.98242h1.40234V52.856h-1.15527V52.145a4.21212,4.21212,0,0,0,1.45117-.51318h.84863v5.35058h1.23438v.92822h-3.78125Z" fill="#dcddde"/><path d="M156.93164,51.4541h2.06348c1.333,0,2.31054.40479,2.31054,1.58936a1.45516,1.45516,0,0,1-.89843,1.40185v.03955a1.47509,1.47509,0,0,1,1.23339,1.53028c0,1.29345-1.05566,1.8955-2.47753,1.8955h-2.23145Zm1.96484,2.66553c.89844,0,1.28321-.35547,1.28321-.9082,0-.63184-.42481-.86866-1.26367-.86866h-.83887v1.77686ZM159.044,57.022c.94824,0,1.48144-.34521,1.48144-1.06592,0-.68115-.51367-.97753-1.48144-.97753h-.9668V57.022Z" fill="#dcddde"/><path d="M163.0752,51.4541h2.03418c1.43066,0,2.49707.49365,2.49707,1.99414,0,1.43164-1.06641,2.09278-2.458,2.09278h-.92774v2.36962h-1.1455Zm1.98437,3.169c.958,0,1.42188-.38477,1.42188-1.17481,0-.80957-.50391-1.07617-1.46094-1.07617h-.79981v2.251Z" fill="#dcddde"/><path d="M171.293,51.4541h1.14551v5.48926H175.124v.96728H171.293Z" fill="#dcddde"/><path d="M175.95605,55.4917a2.35927,2.35927,0,0,1,2.23145-2.54688c1.31348,0,2.00391.94776,2.00391,2.3003a2.66894,2.66894,0,0,1-.04883.55273H177.0625a1.38733,1.38733,0,0,0,1.43164,1.35254,2.02538,2.02538,0,0,0,1.125-.35547l.38477.71094a3.05582,3.05582,0,0,1-1.65821.52344A2.33787,2.33787,0,0,1,175.95605,55.4917Zm3.24805-.46387c0-.75049-.32519-1.20459-.98633-1.20459a1.21725,1.21725,0,0,0-1.165,1.20459Z" fill="#dcddde"/><path d="M180.9248,53.06348h1.15528l.77051,2.51709c.12793.47412.27636.96777.40429,1.46142h.04c.1377-.49365.27637-.9873.41406-1.46142l.77051-2.51709h1.09571l-1.64844,4.84716h-1.31348Z" fill="#dcddde"/><path d="M186.28711,55.4917a2.35927,2.35927,0,0,1,2.23144-2.54688c1.31348,0,2.00391.94776,2.00391,2.3003a2.66894,2.66894,0,0,1-.04883.55273h-3.08008a1.38734,1.38734,0,0,0,1.43165,1.35254,2.02538,2.02538,0,0,0,1.125-.35547l.38476.71094a3.05581,3.05581,0,0,1-1.6582.52344A2.33786,2.33786,0,0,1,186.28711,55.4917Zm3.248-.46387c0-.75049-.3252-1.20459-.98633-1.20459a1.21724,1.21724,0,0,0-1.165,1.20459Z" fill="#dcddde"/><path d="M191.8584,56.6665V50.94092h1.13574v5.78515c0,.27637.12793.375.24609.375a.68586.68586,0,0,0,.17774-.01953l.14844.84864a1.54608,1.54608,0,0,1-.60254.09912C192.1543,58.0293,191.8584,57.50586,191.8584,56.6665Z" fill="#dcddde"/><path d="M221.6416,51.4541h1.72754a2.85035,2.85035,0,0,1,3.13965,3.19873c0,2.14209-1.165,3.25781-3.08008,3.25781H221.6416ZM223.29,56.98242c1.30371,0,2.04394-.74023,2.04394-2.32959,0-1.57959-.74023-2.271-2.04394-2.271h-.50293v4.60058Z" fill="#dcddde"/><path d="M227.64746,55.4917a2.35927,2.35927,0,0,1,2.23145-2.54688c1.31347,0,2.0039.94776,2.0039,2.3003a2.66894,2.66894,0,0,1-.04883.55273h-3.08007a1.38733,1.38733,0,0,0,1.43164,1.35254,2.02538,2.02538,0,0,0,1.125-.35547l.38476.71094a3.05579,3.05579,0,0,1-1.6582.52344A2.33787,2.33787,0,0,1,227.64746,55.4917Zm3.24805-.46387c0-.75049-.3252-1.20459-.98633-1.20459a1.21724,1.21724,0,0,0-1.165,1.20459Z" fill="#dcddde"/><path d="M232.90234,55.4917a2.39121,2.39121,0,0,1,2.42871-2.54688,2.08863,2.08863,0,0,1,1.42188.543l-.55273.74024a1.18573,1.18573,0,0,0-.80958-.355c-.78027,0-1.32324.6416-1.32324,1.61865,0,.96777.53321,1.60937,1.29395,1.60937a1.61667,1.61667,0,0,0,.99707-.41455l.46387.75a2.42,2.42,0,0,1-1.58008.59278A2.30688,2.30688,0,0,1,232.90234,55.4917Z" fill="#dcddde"/><path d="M237.67285,56.60742c0-1.03662.85938-1.57959,2.85352-1.79687-.01953-.51319-.22754-.94776-.88867-.94776a2.76185,2.76185,0,0,0-1.36231.47412l-.415-.76025a3.79513,3.79513,0,0,1,1.99414-.63184c1.20508,0,1.80664.74024,1.80664,2.09278v2.873h-.9375l-.0791-.5332h-.03906a2.36251,2.36251,0,0,1-1.501.65186A1.35556,1.35556,0,0,1,237.67285,56.60742Zm2.85352,0V55.52148c-1.32325.168-1.75782.51319-1.75782.99707,0,.43457.29688.62207.70118.62207A1.54129,1.54129,0,0,0,240.52637,56.60742Z" fill="#dcddde"/><path d="M242.96777,59.80615l.207-.88867a1.18221,1.18221,0,0,0,.34571.06934,1.01532,1.01532,0,0,0,.96679-.82959l.08887-.30567-1.90527-4.78808h1.15527l.83887,2.3789c.13867.42481.27637.90821.4248,1.36231h.04c.11817-.44385.2461-.92774.36524-1.36231l.73047-2.3789h1.0957l-1.75781,5.06445c-.4043,1.0957-.90821,1.77686-1.96387,1.77686A1.88885,1.88885,0,0,1,242.96777,59.80615Z" fill="#dcddde"/><path d="M250.28711,57.249c1.748-1.688,2.84375-2.79394,2.84375-3.75146a.97417.97417,0,0,0-1.03711-1.08594,1.7326,1.7326,0,0,0-1.22363.70117l-.63184-.63183a2.56787,2.56787,0,0,1,2.00391-.96778,1.83542,1.83542,0,0,1,1.98437,1.9253c0,1.11572-1.03711,2.26074-2.28027,3.57373.32519-.02979.74023-.06885,1.0459-.06885h1.54v.96728h-4.24512Z" fill="#dcddde"/><path d="M284.71484,57.08154l.67188-.78027a2.56664,2.56664,0,0,0,1.67773.731c.73047,0,1.126-.32618,1.126-.82959,0-.53321-.415-.70069-.99707-.94776l-.88867-.38476a1.86123,1.86123,0,0,1-1.30371-1.71778,1.96394,1.96394,0,0,1,2.17187-1.81689,2.84816,2.84816,0,0,1,1.98438.81934l-.582.731a2.10368,2.10368,0,0,0-1.40235-.55322c-.61133,0-1.0166.28662-1.0166.76025,0,.50342.49414.69141,1.02734.90821l.87793.36523a1.8069,1.8069,0,0,1,1.30371,1.74756,2.05286,2.05286,0,0,1-2.32031,1.91553A3.3455,3.3455,0,0,1,284.71484,57.08154Z" fill="#dcddde"/><path d="M290.64062,56.104V53.06348h1.13575v2.89257c0,.79932.22754,1.09571.75,1.09571.4248,0,.71093-.19727,1.07617-.67139V53.06348h1.13574v4.84716h-.92773l-.08887-.71093h-.03027a1.97519,1.97519,0,0,1-1.55957.82959C291.09473,58.0293,290.64062,57.32812,290.64062,56.104Z" fill="#dcddde"/><path d="M295.94629,57.35791l.5332-.73047a2.1553,2.1553,0,0,0,1.3418.543c.52344,0,.77051-.24707.77051-.58252,0-.40478-.52344-.58252-1.03711-.78027-.6416-.23682-1.36231-.602-1.36231-1.41162,0-.84912.68164-1.45118,1.76758-1.45118a2.61933,2.61933,0,0,1,1.60938.58252l-.52344.69092a1.808,1.808,0,0,0-1.06641-.41455c-.4834,0-.71094.227-.71094.5332,0,.38477.48438.53321,1.00684.72071.66211.24658,1.39258.5625,1.39258,1.4707,0,.82959-.66113,1.501-1.88574,1.501A3.07085,3.07085,0,0,1,295.94629,57.35791Z" fill="#dcddde"/><path d="M300.9043,56.272V53.96191h-.69141v-.84912l.75-.04931.13867-1.32325h.94824v1.32325h1.2334v.89843h-1.2334V56.272c0,.57227.2168.84912.68067.84912a1.397,1.397,0,0,0,.50391-.10888l.19726.83935a3.09765,3.09765,0,0,1-.9873.17774C301.31836,58.0293,300.9043,57.31836,300.9043,56.272Z" fill="#dcddde"/><path d="M304.085,56.60742c0-1.03662.85938-1.57959,2.85352-1.79687-.01953-.51319-.22754-.94776-.88868-.94776a2.76185,2.76185,0,0,0-1.3623.47412l-.415-.76025a3.79513,3.79513,0,0,1,1.99414-.63184c1.20508,0,1.80664.74024,1.80664,2.09278v2.873h-.9375l-.0791-.5332h-.03906a2.36251,2.36251,0,0,1-1.501.65186A1.35556,1.35556,0,0,1,304.085,56.60742Zm2.85352,0V55.52148c-1.32325.168-1.75782.51319-1.75782.99707,0,.43457.29688.62207.70118.62207A1.54129,1.54129,0,0,0,306.93848,56.60742Z" fill="#dcddde"/><path d="M309.55762,51.57275a.7034.7034,0,1,1,.70019.64161A.6515.6515,0,0,1,309.55762,51.57275Zm.12793,1.49073h1.13574v4.84716h-1.13574Z" fill="#dcddde"/><path d="M312.52051,53.06348h.9375l.0791.65136h.04a2.252,2.252,0,0,1,1.58887-.77c1.0371,0,1.49121.70069,1.49121,1.9253v3.04052h-1.13575V55.01807c0-.79981-.22656-1.09571-.75976-1.09571a1.53352,1.53352,0,0,0-1.10547.60205v3.38623h-1.13574Z" fill="#dcddde"/><path d="M347.4502,51.4541h2.18164c1.34277,0,2.37011.47363,2.37011,1.915a1.8072,1.8072,0,0,1-1.28418,1.84619l1.54,2.69531h-1.2832L349.583,55.3833h-.98731v2.52734h-1.1455Zm2.06347,3.021c.87891,0,1.36231-.375,1.36231-1.106,0-.74023-.4834-.99707-1.36231-.99707h-.918v2.103Z" fill="#dcddde"/><path d="M353.03125,55.4917a2.35927,2.35927,0,0,1,2.23145-2.54688c1.31347,0,2.0039.94776,2.0039,2.3003a2.66894,2.66894,0,0,1-.04883.55273H354.1377a1.38733,1.38733,0,0,0,1.43164,1.35254,2.02538,2.02538,0,0,0,1.125-.35547l.38476.71094a3.05581,3.05581,0,0,1-1.6582.52344A2.33786,2.33786,0,0,1,353.03125,55.4917Zm3.248-.46387c0-.75049-.3252-1.20459-.98633-1.20459a1.21724,1.21724,0,0,0-1.165,1.20459Z" fill="#dcddde"/><path d="M358.60254,56.6665V50.94092h1.13574v5.78515c0,.27637.12793.375.2461.375a.68583.68583,0,0,0,.17773-.01953l.14844.84864a1.546,1.546,0,0,1-.60254.09912C358.89844,58.0293,358.60254,57.50586,358.60254,56.6665Z" fill="#dcddde"/><path d="M361.209,55.4917a2.35927,2.35927,0,0,1,2.23145-2.54688c1.31348,0,2.00391.94776,2.00391,2.3003a2.66964,2.66964,0,0,1-.04883.55273h-3.08008a1.38733,1.38733,0,0,0,1.43164,1.35254,2.02538,2.02538,0,0,0,1.125-.35547l.38477.71094a3.05582,3.05582,0,0,1-1.65821.52344A2.33787,2.33787,0,0,1,361.209,55.4917Zm3.248-.46387c0-.75049-.32519-1.20459-.98633-1.20459a1.21725,1.21725,0,0,0-1.165,1.20459Z" fill="#dcddde"/><path d="M366.40527,56.60742c0-1.03662.85938-1.57959,2.85352-1.79687-.01953-.51319-.22754-.94776-.88867-.94776a2.76185,2.76185,0,0,0-1.36231.47412l-.415-.76025a3.79516,3.79516,0,0,1,1.99414-.63184c1.20508,0,1.80664.74024,1.80664,2.09278v2.873h-.9375l-.0791-.5332h-.03906a2.36251,2.36251,0,0,1-1.501.65186A1.35556,1.35556,0,0,1,366.40527,56.60742Zm2.85352,0V55.52148c-1.32324.168-1.75781.51319-1.75781.99707,0,.43457.29687.62207.70117.62207A1.54129,1.54129,0,0,0,369.25879,56.60742Z" fill="#dcddde"/><path d="M371.52246,57.35791l.5332-.73047a2.15532,2.15532,0,0,0,1.3418.543c.52344,0,.77051-.24707.77051-.58252,0-.40478-.52344-.58252-1.03711-.78027-.6416-.23682-1.36231-.602-1.36231-1.41162,0-.84912.68165-1.45118,1.76758-1.45118a2.61933,2.61933,0,0,1,1.60938.58252l-.52344.69092a1.808,1.808,0,0,0-1.06641-.41455c-.48339,0-.71093.227-.71093.5332,0,.38477.48437.53321,1.00683.72071.66211.24658,1.39258.5625,1.39258,1.4707,0,.82959-.66113,1.501-1.88574,1.501A3.07087,3.07087,0,0,1,371.52246,57.35791Z" fill="#dcddde"/><path d="M376.19336,55.4917a2.35927,2.35927,0,0,1,2.23144-2.54688c1.31348,0,2.00391.94776,2.00391,2.3003a2.66894,2.66894,0,0,1-.04883.55273H377.2998a1.38734,1.38734,0,0,0,1.43165,1.35254,2.02538,2.02538,0,0,0,1.125-.35547l.38476.71094a3.05581,3.05581,0,0,1-1.6582.52344A2.33786,2.33786,0,0,1,376.19336,55.4917Zm3.24805-.46387c0-.75049-.3252-1.20459-.98633-1.20459a1.21724,1.21724,0,0,0-1.165,1.20459Z" fill="#dcddde"/><path d="M354.11719,117.58057a3.05309,3.05309,0,0,1,3.05078-3.3667,2.66022,2.66022,0,0,1,1.95508.81933l-.61231.74073a1.74944,1.74944,0,0,0-1.30273-.563c-1.14551,0-1.916.88867-1.916,2.33984,0,1.47119.68164,2.35986,1.97461,2.35986a1.43144,1.43144,0,0,0,.92871-.28662v-1.39209H356.9707v-.9375h2.251v2.84327a2.96067,2.96067,0,0,1-2.06348.77C355.41113,120.90771,354.11719,119.72266,354.11719,117.58057Z" fill="#dcddde"/><path d="M360.54785,119.48584c0-1.03662.85938-1.57959,2.85352-1.79688-.01953-.51318-.22754-.94775-.88867-.94775a2.76185,2.76185,0,0,0-1.36231.47412l-.415-.76025a3.79513,3.79513,0,0,1,1.99414-.63184c1.20508,0,1.80664.74024,1.80664,2.09278v2.873h-.9375l-.0791-.5332h-.03906a2.36255,2.36255,0,0,1-1.501.65185A1.35555,1.35555,0,0,1,360.54785,119.48584Zm2.85352,0V118.3999c-1.32325.168-1.75782.51319-1.75782.99707,0,.43457.29688.62207.70118.62207A1.54129,1.54129,0,0,0,363.40137,119.48584Z" fill="#dcddde"/><path d="M366.02051,114.45117a.70341.70341,0,1,1,.70019.6416A.6515.6515,0,0,1,366.02051,114.45117Zm.12793,1.49072h1.13574v4.84717h-1.13574Z" fill="#dcddde"/><path d="M368.9834,115.94189h.9375l.0791.65137h.04a2.252,2.252,0,0,1,1.58887-.77c1.03711,0,1.49121.70117,1.49121,1.9253v3.04052h-1.13574v-2.89258c0-.7998-.22657-1.0957-.75977-1.0957a1.53352,1.53352,0,0,0-1.10547.602v3.38623H368.9834Z" fill="#dcddde"/><path d="M283.0918,114.33252h1.1455v5.48926h2.68555v.96728H283.0918Z" fill="#dcddde"/><path d="M287.75391,118.37012a2.35927,2.35927,0,0,1,2.23144-2.54688c1.31348,0,2.00391.94776,2.00391,2.3003a2.66894,2.66894,0,0,1-.04883.55273h-3.08008a1.38733,1.38733,0,0,0,1.43164,1.35254,2.02538,2.02538,0,0,0,1.125-.35547l.38477.71094a3.05581,3.05581,0,0,1-1.65821.52343A2.33785,2.33785,0,0,1,287.75391,118.37012Zm3.248-.46387c0-.75-.32519-1.20459-.98633-1.20459a1.21723,1.21723,0,0,0-1.165,1.20459Z" fill="#dcddde"/><path d="M292.72266,115.94189h1.15527l.77051,2.51709c.12793.47413.27636.96778.40429,1.46143h.04c.1377-.49365.27637-.9873.41407-1.46143l.7705-2.51709h1.09571l-1.64844,4.84717h-1.31348Z" fill="#dcddde"/><path d="M298.08594,118.37012a2.35927,2.35927,0,0,1,2.23144-2.54688c1.31348,0,2.00391.94776,2.00391,2.3003a2.66894,2.66894,0,0,1-.04883.55273h-3.08008a1.38734,1.38734,0,0,0,1.43164,1.35254,2.02535,2.02535,0,0,0,1.125-.35547l.38477.71094a3.05581,3.05581,0,0,1-1.6582.52343A2.33785,2.33785,0,0,1,298.08594,118.37012Zm3.248-.46387c0-.75-.32519-1.20459-.98632-1.20459a1.21723,1.21723,0,0,0-1.165,1.20459Z" fill="#dcddde"/><path d="M303.65723,119.54492v-5.72558H304.793v5.78515c0,.27637.12793.375.24609.375a.68586.68586,0,0,0,.17774-.01953l.14843.84863a1.546,1.546,0,0,1-.60253.09912C303.95312,120.90771,303.65723,120.38428,303.65723,119.54492Z" fill="#dcddde"/><path d="M308.90234,114.33252h1.14551v2.93213h.0293l2.30078-2.93213h1.27344L311.667,116.8501l2.31934,3.939h-1.26367l-1.74707-3.04052-.92774,1.15478v1.88574h-1.14551Z" fill="#dcddde"/><path d="M316.13184,115.2998h-1.86622v-.96728h4.877v.96728h-1.86621v5.48926h-1.14453Z" fill="#dcddde"/><path d="M220.10449,114.33252H221.25v5.48926h2.68555v.96728h-3.83106Z" fill="#dcddde"/><path d="M224.7666,118.37012a2.35927,2.35927,0,0,1,2.23145-2.54688c1.31347,0,2.0039.94776,2.0039,2.3003a2.66894,2.66894,0,0,1-.04883.55273h-3.08007a1.38733,1.38733,0,0,0,1.43164,1.35254,2.02538,2.02538,0,0,0,1.125-.35547l.38476.71094a3.05578,3.05578,0,0,1-1.6582.52343A2.33786,2.33786,0,0,1,224.7666,118.37012Zm3.248-.46387c0-.75-.3252-1.20459-.98633-1.20459a1.21724,1.21724,0,0,0-1.165,1.20459Z" fill="#dcddde"/><path d="M229.73535,115.94189h1.15527l.77051,2.51709c.12793.47413.27637.96778.4043,1.46143h.04c.13769-.49365.27637-.9873.41406-1.46143l.77051-2.51709h1.0957l-1.64844,4.84717h-1.31347Z" fill="#dcddde"/><path d="M235.09863,118.37012a2.35927,2.35927,0,0,1,2.23145-2.54688c1.31347,0,2.0039.94776,2.0039,2.3003a2.66975,2.66975,0,0,1-.04882.55273h-3.08008a1.38733,1.38733,0,0,0,1.43164,1.35254,2.02538,2.02538,0,0,0,1.125-.35547l.38476.71094a3.05575,3.05575,0,0,1-1.6582.52343A2.33786,2.33786,0,0,1,235.09863,118.37012Zm3.248-.46387c0-.75-.3252-1.20459-.98633-1.20459a1.21724,1.21724,0,0,0-1.165,1.20459Z" fill="#dcddde"/><path d="M240.66992,119.54492v-5.72558h1.13574v5.78515c0,.27637.12793.375.2461.375a.68583.68583,0,0,0,.17773-.01953l.14844.84863a1.546,1.546,0,0,1-.60254.09912C240.96582,120.90771,240.66992,120.38428,240.66992,119.54492Z" fill="#dcddde"/><path d="M245.05664,114.33252h1.21387l.9082,3.248c.207.73047.35547,1.3623.57227,2.103h.04c.21679-.74072.36523-1.37255.5625-2.103l.89843-3.248h1.17481l-2.00391,6.45654h-1.35254Z" fill="#dcddde"/><path d="M250.87305,118.37012a2.35927,2.35927,0,0,1,2.23144-2.54688c1.31348,0,2.00391.94776,2.00391,2.3003a2.66894,2.66894,0,0,1-.04883.55273h-3.08008a1.38733,1.38733,0,0,0,1.43164,1.35254,2.02535,2.02535,0,0,0,1.125-.35547l.38477.71094a3.05581,3.05581,0,0,1-1.6582.52343A2.33785,2.33785,0,0,1,250.87305,118.37012Zm3.248-.46387c0-.75-.32519-1.20459-.98632-1.20459a1.21723,1.21723,0,0,0-1.165,1.20459Z" fill="#dcddde"/><path d="M256.44434,119.54492v-5.72558h1.13574v5.78515c0,.27637.12793.375.24609.375a.68586.68586,0,0,0,.17774-.01953l.14843.84863a1.546,1.546,0,0,1-.60254.09912C256.74023,120.90771,256.44434,120.38428,256.44434,119.54492Z" fill="#dcddde"/><path d="M158.70508,114.33252h1.72754a2.85035,2.85035,0,0,1,3.13965,3.19873c0,2.14209-1.165,3.25781-3.08008,3.25781h-1.78711Zm1.64844,5.52832c1.30371,0,2.04394-.74023,2.04394-2.32959,0-1.57959-.74023-2.27051-2.04394-2.27051h-.50293v4.6001Z" fill="#dcddde"/><path d="M164.71094,118.37012a2.35927,2.35927,0,0,1,2.23144-2.54688c1.31348,0,2.00391.94776,2.00391,2.3003a2.66894,2.66894,0,0,1-.04883.55273h-3.08008a1.38734,1.38734,0,0,0,1.43164,1.35254,2.02535,2.02535,0,0,0,1.125-.35547l.38477.71094a3.05581,3.05581,0,0,1-1.6582.52343A2.33785,2.33785,0,0,1,164.71094,118.37012Zm3.248-.46387c0-.75-.32519-1.20459-.98632-1.20459a1.21723,1.21723,0,0,0-1.165,1.20459Z" fill="#dcddde"/><path d="M169.96582,118.37012a2.3912,2.3912,0,0,1,2.42871-2.54688,2.08863,2.08863,0,0,1,1.42188.543l-.55274.74024a1.18565,1.18565,0,0,0-.80957-.355c-.78027,0-1.32324.64161-1.32324,1.61866,0,.96777.5332,1.60937,1.29394,1.60937a1.61669,1.61669,0,0,0,.99708-.41455l.46386.75049a2.422,2.422,0,0,1-1.58008.59228A2.30687,2.30687,0,0,1,169.96582,118.37012Z" fill="#dcddde"/><path d="M174.73633,119.48584c0-1.03662.85937-1.57959,2.85351-1.79688-.01953-.51318-.22754-.94775-.88867-.94775a2.76185,2.76185,0,0,0-1.3623.47412l-.415-.76025a3.79513,3.79513,0,0,1,1.99414-.63184c1.20508,0,1.80664.74024,1.80664,2.09278v2.873h-.9375l-.0791-.5332H177.669a2.36257,2.36257,0,0,1-1.501.65185A1.35555,1.35555,0,0,1,174.73633,119.48584Zm2.85351,0V118.3999c-1.32324.168-1.75781.51319-1.75781.99707,0,.43457.29688.62207.70117.62207A1.54127,1.54127,0,0,0,177.58984,119.48584Z" fill="#dcddde"/><path d="M180.03125,122.68457l.207-.88867a1.18247,1.18247,0,0,0,.3457.06933,1.01532,1.01532,0,0,0,.9668-.82959l.08887-.30566-1.90527-4.78809h1.15527l.83887,2.37891c.13867.42481.27636.9082.4248,1.36279h.04c.11816-.44433.24609-.92822.36523-1.36279l.73047-2.37891h1.09571l-1.75782,5.06446c-.40429,1.0957-.9082,1.77685-1.96386,1.77685A1.88878,1.88878,0,0,1,180.03125,122.68457Z" fill="#dcddde"/><path d="M187.35059,120.12744c1.748-1.688,2.84375-2.79394,2.84375-3.75146a.97417.97417,0,0,0-1.03711-1.08594,1.73262,1.73262,0,0,0-1.22364.70117l-.63183-.63183a2.56785,2.56785,0,0,1,2.0039-.96778,1.83542,1.83542,0,0,1,1.98438,1.92529c0,1.11573-1.03711,2.26075-2.28027,3.57373.32519-.02978.74023-.06884,1.04589-.06884h1.54v.96728h-4.24511Z" fill="#dcddde"/><path d="M95.76953,114.33252h1.72754a2.85035,2.85035,0,0,1,3.13965,3.19873c0,2.14209-1.165,3.25781-3.08008,3.25781H95.76953Zm1.64844,5.52832c1.30371,0,2.04394-.74023,2.04394-2.32959,0-1.57959-.74023-2.27051-2.04394-2.27051H96.915v4.6001Z" fill="#dcddde"/><path d="M101.77539,118.37012a2.35927,2.35927,0,0,1,2.23145-2.54688c1.31347,0,2.0039.94776,2.0039,2.3003a2.66894,2.66894,0,0,1-.04883.55273h-3.08007a1.38733,1.38733,0,0,0,1.43164,1.35254,2.02538,2.02538,0,0,0,1.125-.35547l.38476.71094a3.05578,3.05578,0,0,1-1.6582.52343A2.33786,2.33786,0,0,1,101.77539,118.37012Zm3.248-.46387c0-.75-.3252-1.20459-.98633-1.20459a1.21724,1.21724,0,0,0-1.165,1.20459Z" fill="#dcddde"/><path d="M107.03027,118.37012a2.39121,2.39121,0,0,1,2.42871-2.54688,2.08863,2.08863,0,0,1,1.42188.543l-.55274.74024a1.18565,1.18565,0,0,0-.80957-.355c-.78027,0-1.32324.64161-1.32324,1.61866,0,.96777.53321,1.60937,1.29395,1.60937a1.61667,1.61667,0,0,0,.99707-.41455l.46387.75049a2.42206,2.42206,0,0,1-1.58008.59228A2.30687,2.30687,0,0,1,107.03027,118.37012Z" fill="#dcddde"/><path d="M111.80078,119.48584c0-1.03662.85938-1.57959,2.85352-1.79688-.01953-.51318-.22754-.94775-.88868-.94775a2.76185,2.76185,0,0,0-1.3623.47412l-.415-.76025a3.79513,3.79513,0,0,1,1.99414-.63184c1.20508,0,1.80664.74024,1.80664,2.09278v2.873h-.9375l-.0791-.5332h-.03906a2.36255,2.36255,0,0,1-1.501.65185A1.35555,1.35555,0,0,1,111.80078,119.48584Zm2.85352,0V118.3999c-1.32325.168-1.75782.51319-1.75782.99707,0,.43457.29688.62207.70118.62207A1.54129,1.54129,0,0,0,114.6543,119.48584Z" fill="#dcddde"/><path d="M117.0957,122.68457l.207-.88867a1.18254,1.18254,0,0,0,.34571.06933,1.01531,1.01531,0,0,0,.96679-.82959l.08887-.30566-1.90527-4.78809h1.15527l.83887,2.37891c.13867.42481.27637.9082.4248,1.36279h.04c.11817-.44433.2461-.92822.36524-1.36279l.73047-2.37891h1.0957l-1.75781,5.06446c-.4043,1.0957-.90821,1.77685-1.96387,1.77685A1.88887,1.88887,0,0,1,117.0957,122.68457Z" fill="#dcddde"/><path d="M124.77051,119.86084h1.40234v-4.12646h-1.15527v-.71094a4.21212,4.21212,0,0,0,1.45117-.51319h.84863v5.35059h1.23438v.92822h-3.78125Z" fill="#dcddde"/><path d="M176.9375,11.96143h3.88965v.96728H178.083v1.64893h2.31933v.96728H178.083v1.90576h2.84277V18.418H176.9375Z" fill="#dcddde"/><path d="M182.252,13.5708h.9375l.0791.65137h.04a2.25013,2.25013,0,0,1,1.58887-.77c1.03711,0,1.49121.70117,1.49121,1.92529V18.418h-1.13574V15.52539c0-.7998-.22656-1.0957-.75977-1.0957a1.5335,1.5335,0,0,0-1.10546.602V18.418H182.252Z" fill="#dcddde"/><path d="M187.2793,13.5708h1.15527l.77051,2.51709c.12793.47412.27637.96777.4043,1.46143h.04c.1377-.49366.27637-.98731.41407-1.46143l.7705-2.51709h1.09571L190.28125,18.418h-1.31348Z" fill="#dcddde"/><path d="M192.49414,15.999a2.35926,2.35926,0,0,1,2.23145-2.54687c1.31347,0,2.0039.94775,2.0039,2.30029a2.669,2.669,0,0,1-.04883.55274h-3.08007a1.38732,1.38732,0,0,0,1.43164,1.35253,2.02537,2.02537,0,0,0,1.125-.35546l.38476.71093a3.05573,3.05573,0,0,1-1.6582.52344A2.33787,2.33787,0,0,1,192.49414,15.999Zm3.24805-.46386c0-.75-.3252-1.20459-.98633-1.20459a1.21724,1.21724,0,0,0-1.165,1.20459Z" fill="#dcddde"/><path d="M197.918,17.17383V11.44824h1.13574V17.2334c0,.27637.12793.375.24609.375a.68586.68586,0,0,0,.17774-.01953l.14844.84863a1.54608,1.54608,0,0,1-.60254.09912C198.21387,18.53662,197.918,18.01318,197.918,17.17383Z" fill="#dcddde"/><path d="M200.377,15.999a2.31709,2.31709,0,1,1,4.61133,0,2.31626,2.31626,0,1,1-4.61133,0Zm3.44629,0c0-.97705-.43457-1.61865-1.14551-1.61865S201.542,15.022,201.542,15.999c0,.96778.42481,1.60938,1.13574,1.60938S203.82324,16.9668,203.82324,15.999Z" fill="#dcddde"/><path d="M206.21484,13.5708h.9375l.07911.51318h.04a2.36091,2.36091,0,0,1,1.46094-.63183c1.2041,0,1.90528.96728,1.90528,2.46826,0,1.6582-.99708,2.61621-2.07325,2.61621a1.96321,1.96321,0,0,1-1.24414-.5332l.03028.80957v1.52h-1.13575Zm3.248,2.35938c0-.96778-.31641-1.54-1.04687-1.54a1.54676,1.54676,0,0,0-1.06543.543v2.26074a1.53122,1.53122,0,0,0,.97656.40478C208.96875,17.59863,209.46289,17.02588,209.46289,15.93018Z" fill="#dcddde"/><path d="M211.56836,15.999a2.35926,2.35926,0,0,1,2.23144-2.54687c1.31348,0,2.00391.94775,2.00391,2.30029a2.669,2.669,0,0,1-.04883.55274H212.6748a1.38734,1.38734,0,0,0,1.43165,1.35253,2.02537,2.02537,0,0,0,1.125-.35546l.38476.71093a3.05573,3.05573,0,0,1-1.6582.52344A2.33786,2.33786,0,0,1,211.56836,15.999Zm3.248-.46386c0-.75-.3252-1.20459-.98633-1.20459a1.21724,1.21724,0,0,0-1.165,1.20459Z" fill="#dcddde"/><path d="M220.42773,11.96143h1.34278l2.10254,6.45654H222.669l-.50391-1.74756h-2.17188l-.50293,1.74756h-1.165Zm-.168,3.81054h1.64843l-.22656-.78955c-.207-.68115-.39453-1.42187-.582-2.13232h-.04c-.17773.7207-.36523,1.45117-.57227,2.13232Z" fill="#dcddde"/><path d="M85.68555,74.95361H89.5752v.96729H86.83105v1.64892h2.31934v.96729H86.83105v1.90576h2.84278v.96729H85.68555Z" fill="#dcddde"/><path d="M91,76.563h.9375l.0791.65137h.04a2.25011,2.25011,0,0,1,1.58887-.77c1.03711,0,1.49121.70117,1.49121,1.92529v3.04053H94.001V78.51758c0-.79981-.22657-1.0957-.75977-1.0957a1.53354,1.53354,0,0,0-1.10547.602v3.38623H91Z" fill="#dcddde"/><path d="M96.02734,76.563h1.15528l.7705,2.51709c.12793.47412.27637.96777.4043,1.46142h.04c.1377-.49365.27637-.9873.41406-1.46142L99.582,76.563h1.0957L99.0293,81.41016H97.71582Z" fill="#dcddde"/><path d="M101.24219,78.99121a2.35926,2.35926,0,0,1,2.23144-2.54687c1.31348,0,2.00391.94775,2.00391,2.30029a2.66894,2.66894,0,0,1-.04883.55273h-3.08008a1.38734,1.38734,0,0,0,1.43164,1.35254,2.02535,2.02535,0,0,0,1.125-.35547l.38477.71094a3.05581,3.05581,0,0,1-1.6582.52344A2.33786,2.33786,0,0,1,101.24219,78.99121Zm3.248-.46387c0-.75-.32519-1.20459-.98632-1.20459a1.21724,1.21724,0,0,0-1.165,1.20459Z" fill="#dcddde"/><path d="M106.666,80.166V74.44043h1.13574v5.78516c0,.27636.12793.375.24609.375a.68552.68552,0,0,0,.17774-.01954l.14843.84864a1.546,1.546,0,0,1-.60254.09912C106.96191,81.52881,106.666,81.00537,106.666,80.166Z" fill="#dcddde"/><path d="M109.125,78.99121a2.31626,2.31626,0,1,1,2.30078,2.5376A2.34556,2.34556,0,0,1,109.125,78.99121Zm3.44629,0c0-.977-.43457-1.61865-1.14551-1.61865s-1.13574.6416-1.13574,1.61865c0,.96777.4248,1.60938,1.13574,1.60938S112.57129,79.959,112.57129,78.99121Z" fill="#dcddde"/><path d="M114.96289,76.563h.9375l.0791.51318h.04a2.36091,2.36091,0,0,1,1.46094-.63183c1.2041,0,1.90527.96728,1.90527,2.46826,0,1.6582-.99707,2.61621-2.07324,2.61621a1.96327,1.96327,0,0,1-1.24414-.5332l.03027.80957v1.52h-1.13574Zm3.248,2.35937c0-.96777-.31641-1.54-1.04688-1.54a1.5468,1.5468,0,0,0-1.06543.543V80.186a1.53128,1.53128,0,0,0,.97657.40478C117.7168,80.59082,118.21094,80.01807,118.21094,78.92236Z" fill="#dcddde"/><path d="M120.31641,78.99121a2.35926,2.35926,0,0,1,2.23144-2.54687c1.31348,0,2.00391.94775,2.00391,2.30029a2.66894,2.66894,0,0,1-.04883.55273h-3.08008a1.38733,1.38733,0,0,0,1.43164,1.35254,2.02538,2.02538,0,0,0,1.125-.35547l.38477.71094a3.05582,3.05582,0,0,1-1.65821.52344A2.33786,2.33786,0,0,1,120.31641,78.99121Zm3.248-.46387c0-.75-.32519-1.20459-.98633-1.20459a1.21723,1.21723,0,0,0-1.165,1.20459Z" fill="#dcddde"/><path d="M127.57617,78.20166c0-2.11279,1.32324-3.3667,2.95215-3.3667a2.56589,2.56589,0,0,1,1.86621.81934l-.6123.74072a1.68343,1.68343,0,0,0-1.22461-.563c-1.05567,0-1.80664.88867-1.80664,2.33985,0,1.47119.6914,2.35986,1.77734,2.35986a1.839,1.839,0,0,0,1.38184-.66162l.6123.7207a2.60328,2.60328,0,0,1-2.0332.938C128.86035,81.52881,127.57617,80.34375,127.57617,78.20166Z" fill="#dcddde"/><path d="M273.68066,74.95361h3.88965v.96729h-2.74414v1.64892h2.31934v.96729h-2.31934v1.90576H277.669v.96729h-3.98829Z" fill="#dcddde"/><path d="M278.99512,76.563h.9375l.0791.65137h.04a2.25194,2.25194,0,0,1,1.58886-.77c1.03711,0,1.49122.70117,1.49122,1.92529v3.04053h-1.13575V78.51758c0-.79981-.22656-1.0957-.75976-1.0957a1.53352,1.53352,0,0,0-1.10547.602v3.38623h-1.13574Z" fill="#dcddde"/><path d="M284.02246,76.563h1.15527l.77051,2.51709c.12793.47412.27637.96777.4043,1.46142h.04c.13769-.49365.27637-.9873.41406-1.46142l.77051-2.51709h1.0957l-1.64844,4.84717h-1.31347Z" fill="#dcddde"/><path d="M289.2373,78.99121a2.35926,2.35926,0,0,1,2.23145-2.54687c1.31348,0,2.00391.94775,2.00391,2.30029a2.66964,2.66964,0,0,1-.04883.55273h-3.08008a1.38733,1.38733,0,0,0,1.43164,1.35254,2.02538,2.02538,0,0,0,1.125-.35547l.38477.71094a3.05582,3.05582,0,0,1-1.65821.52344A2.33787,2.33787,0,0,1,289.2373,78.99121Zm3.248-.46387c0-.75-.32519-1.20459-.98633-1.20459a1.21725,1.21725,0,0,0-1.165,1.20459Z" fill="#dcddde"/><path d="M294.66113,80.166V74.44043h1.13575v5.78516c0,.27636.12792.375.24609.375a.68546.68546,0,0,0,.17773-.01954l.14844.84864a1.546,1.546,0,0,1-.60254.09912C294.957,81.52881,294.66113,81.00537,294.66113,80.166Z" fill="#dcddde"/><path d="M297.12012,78.99121a2.31626,2.31626,0,1,1,2.30078,2.5376A2.34556,2.34556,0,0,1,297.12012,78.99121Zm3.44629,0c0-.977-.43457-1.61865-1.14551-1.61865s-1.13574.6416-1.13574,1.61865c0,.96777.4248,1.60938,1.13574,1.60938S300.56641,79.959,300.56641,78.99121Z" fill="#dcddde"/><path d="M302.958,76.563h.9375l.0791.51318h.04a2.36089,2.36089,0,0,1,1.46094-.63183c1.2041,0,1.90527.96728,1.90527,2.46826,0,1.6582-.99707,2.61621-2.07324,2.61621a1.96322,1.96322,0,0,1-1.24414-.5332l.03027.80957v1.52H302.958Zm3.248,2.35937c0-.96777-.3164-1.54-1.04687-1.54a1.5468,1.5468,0,0,0-1.06543.543V80.186a1.53323,1.53323,0,0,0,.97656.40478C305.71289,80.59082,306.20605,80.01807,306.20605,78.92236Z" fill="#dcddde"/><path d="M308.31152,78.99121a2.35926,2.35926,0,0,1,2.23145-2.54687c1.31348,0,2.00391.94775,2.00391,2.30029a2.66964,2.66964,0,0,1-.04883.55273H309.418a1.38733,1.38733,0,0,0,1.43164,1.35254,2.02538,2.02538,0,0,0,1.125-.35547l.38477.71094a3.05582,3.05582,0,0,1-1.65821.52344A2.33787,2.33787,0,0,1,308.31152,78.99121Zm3.24805-.46387c0-.75-.32519-1.20459-.98633-1.20459a1.21725,1.21725,0,0,0-1.165,1.20459Z" fill="#dcddde"/><path d="M317.1709,74.95361h1.34277l2.10254,6.45655h-1.2041l-.50391-1.74756h-2.17187l-.50293,1.74756h-1.165Zm-.168,3.81055h1.64844l-.22657-.78955c-.207-.68115-.39453-1.42188-.582-2.13232h-.04c-.17773.7207-.36523,1.45117-.57226,2.13232Z" fill="#dcddde"/><path d="M33.58346,27.3454H64.58395a2.40479,2.40479,0,0,1,2.40479,2.40479V40.74969A2.40527,2.40527,0,0,1,64.58346,43.155H33.583a2.40479,2.40479,0,0,1-2.40479-2.40479V29.75067A2.40527,2.40527,0,0,1,33.58346,27.3454Z" fill="url(#a)"/><path d="M64.58334,27.75a2,2,0,0,1,2,2v11a2,2,0,0,1-2,2h-31a2,2,0,0,1-2-2v-11a2,2,0,0,1,2-2h31m0-.81006h-31A2.81328,2.81328,0,0,0,30.77328,29.75v11a2.81328,2.81328,0,0,0,2.81006,2.81006h31a2.81328,2.81328,0,0,0,2.81-2.81006v-11a2.81328,2.81328,0,0,0-2.81-2.81006Z" fill="#252525"/><path d="M96.52,27.3454h31.00049a2.40479,2.40479,0,0,1,2.40479,2.40479V40.74969A2.40527,2.40527,0,0,1,127.52,43.155H96.51949a2.40479,2.40479,0,0,1-2.40479-2.40479V29.75067A2.40527,2.40527,0,0,1,96.52,27.3454Z" fill="url(#b)"/><path d="M127.52023,27.75a2.00006,2.00006,0,0,1,2,2v11a2.00006,2.00006,0,0,1-2,2h-31a2,2,0,0,1-2-2v-11a2,2,0,0,1,2-2h31m0-.81006h-31A2.81328,2.81328,0,0,0,93.71017,29.75v11a2.81328,2.81328,0,0,0,2.81006,2.81006h31a2.81328,2.81328,0,0,0,2.81-2.81006v-11a2.81328,2.81328,0,0,0-2.81-2.81006Z" fill="#252525"/><path d="M159.4565,27.3454H190.457a2.40479,2.40479,0,0,1,2.40479,2.40479V40.74969A2.40527,2.40527,0,0,1,190.4565,43.155H159.456a2.40479,2.40479,0,0,1-2.40479-2.40479V29.75067A2.40527,2.40527,0,0,1,159.4565,27.3454Z" fill="url(#c)"/><path d="M190.45614,27.75a2.00006,2.00006,0,0,1,2,2v11a2.00006,2.00006,0,0,1-2,2h-31a2,2,0,0,1-2-2v-11a2,2,0,0,1,2-2h31m0-.81006h-31A2.81328,2.81328,0,0,0,156.64608,29.75v11a2.81328,2.81328,0,0,0,2.81006,2.81006h31A2.81328,2.81328,0,0,0,193.2662,40.75v-11a2.81328,2.81328,0,0,0-2.81006-2.81006Z" fill="#252525"/><path d="M222.39205,27.3454h31.00049a2.40479,2.40479,0,0,1,2.40479,2.40479V40.74969a2.40527,2.40527,0,0,1-2.40527,2.40527H222.39156a2.40479,2.40479,0,0,1-2.40479-2.40479V29.75067A2.40527,2.40527,0,0,1,222.39205,27.3454Z" fill="url(#d)"/><path d="M253.39205,27.75a2.00006,2.00006,0,0,1,2,2v11a2.00006,2.00006,0,0,1-2,2h-31a2,2,0,0,1-2-2v-11a2,2,0,0,1,2-2h31m0-.81006h-31A2.81328,2.81328,0,0,0,219.582,29.75v11a2.81328,2.81328,0,0,0,2.81006,2.81006h31A2.81328,2.81328,0,0,0,256.20211,40.75v-11a2.81328,2.81328,0,0,0-2.81006-2.81006Z" fill="#252525"/><path d="M285.32662,27.3454h31.00049a2.40479,2.40479,0,0,1,2.40479,2.40479V40.74969a2.40527,2.40527,0,0,1-2.40527,2.40527H285.32613a2.40479,2.40479,0,0,1-2.40479-2.40479V29.75067A2.40527,2.40527,0,0,1,285.32662,27.3454Z" fill="url(#e)"/><path d="M316.327,27.75a2,2,0,0,1,2,2v11a2,2,0,0,1-2,2h-31a2.00006,2.00006,0,0,1-2-2v-11a2.00006,2.00006,0,0,1,2-2h31m0-.81006h-31A2.81328,2.81328,0,0,0,282.51693,29.75v11a2.81328,2.81328,0,0,0,2.81006,2.81006h31A2.81328,2.81328,0,0,0,319.13705,40.75v-11a2.81328,2.81328,0,0,0-2.81006-2.81006Z" fill="#252525"/><path d="M348.20553,27.3454H379.206a2.40479,2.40479,0,0,1,2.40479,2.40479V40.74969a2.40527,2.40527,0,0,1-2.40527,2.40527H348.205a2.40479,2.40479,0,0,1-2.40479-2.40479V29.75067A2.40527,2.40527,0,0,1,348.20553,27.3454Z" fill="url(#f)"/><path d="M379.206,27.75a2.00006,2.00006,0,0,1,2,2v11a2.00006,2.00006,0,0,1-2,2h-31a2,2,0,0,1-2-2v-11a2,2,0,0,1,2-2h31m0-.81006h-31A2.81328,2.81328,0,0,0,345.396,29.75v11a2.81328,2.81328,0,0,0,2.81006,2.81006h31a2.81328,2.81328,0,0,0,2.81-2.81006v-11a2.81328,2.81328,0,0,0-2.81-2.81006Z" fill="#252525"/><path d="M33.58346,89.88495H64.58395a2.40479,2.40479,0,0,1,2.40479,2.40479v10.99951a2.40527,2.40527,0,0,1-2.40527,2.40527H33.583a2.40479,2.40479,0,0,1-2.40479-2.40479V92.29022A2.40527,2.40527,0,0,1,33.58346,89.88495Z" fill="url(#g)"/><path d="M64.58334,90.28967a2,2,0,0,1,2,2v11a2,2,0,0,1-2,2h-31a2,2,0,0,1-2-2v-11a2,2,0,0,1,2-2h31m0-.81006h-31a2.81328,2.81328,0,0,0-2.81006,2.81006v11a2.81328,2.81328,0,0,0,2.81006,2.81006h31a2.81328,2.81328,0,0,0,2.81-2.81006v-11a2.81328,2.81328,0,0,0-2.81-2.81006Z" fill="#252525"/><path d="M96.52,89.88495h31.00049a2.40479,2.40479,0,0,1,2.40479,2.40479v10.99951a2.40527,2.40527,0,0,1-2.40527,2.40527H96.51949a2.40479,2.40479,0,0,1-2.40479-2.40479V92.29022A2.40527,2.40527,0,0,1,96.52,89.88495Z" fill="url(#h)"/><path d="M127.52023,90.28967a2.00006,2.00006,0,0,1,2,2v11a2.00006,2.00006,0,0,1-2,2h-31a2,2,0,0,1-2-2v-11a2,2,0,0,1,2-2h31m0-.81006h-31a2.81328,2.81328,0,0,0-2.81006,2.81006v11a2.81328,2.81328,0,0,0,2.81006,2.81006h31a2.81328,2.81328,0,0,0,2.81-2.81006v-11a2.81328,2.81328,0,0,0-2.81-2.81006Z" fill="#252525"/><path d="M159.4565,89.88495H190.457a2.40479,2.40479,0,0,1,2.40479,2.40479v10.99951a2.40527,2.40527,0,0,1-2.40527,2.40527H159.456a2.40479,2.40479,0,0,1-2.40479-2.40479V92.29022A2.40527,2.40527,0,0,1,159.4565,89.88495Z" fill="url(#i)"/><path d="M190.45614,90.28967a2.00006,2.00006,0,0,1,2,2v11a2.00006,2.00006,0,0,1-2,2h-31a2,2,0,0,1-2-2v-11a2,2,0,0,1,2-2h31m0-.81006h-31a2.81328,2.81328,0,0,0-2.81006,2.81006v11a2.81328,2.81328,0,0,0,2.81006,2.81006h31a2.81328,2.81328,0,0,0,2.81006-2.81006v-11a2.81328,2.81328,0,0,0-2.81006-2.81006Z" fill="#252525"/><path d="M222.39205,89.88495h31.00049a2.40479,2.40479,0,0,1,2.40479,2.40479v10.99951a2.40527,2.40527,0,0,1-2.40527,2.40527H222.39156a2.40479,2.40479,0,0,1-2.40479-2.40479V92.29022A2.40527,2.40527,0,0,1,222.39205,89.88495Z" fill="url(#j)"/><path d="M253.39205,90.28967a2.00006,2.00006,0,0,1,2,2v11a2.00006,2.00006,0,0,1-2,2h-31a2,2,0,0,1-2-2v-11a2,2,0,0,1,2-2h31m0-.81006h-31a2.81328,2.81328,0,0,0-2.81006,2.81006v11a2.81328,2.81328,0,0,0,2.81006,2.81006h31a2.81328,2.81328,0,0,0,2.81006-2.81006v-11a2.81328,2.81328,0,0,0-2.81006-2.81006Z" fill="#252525"/><path d="M285.32662,89.88495h31.00049a2.40479,2.40479,0,0,1,2.40479,2.40479v10.99951a2.40527,2.40527,0,0,1-2.40527,2.40527H285.32613a2.40479,2.40479,0,0,1-2.40479-2.40479V92.29022A2.40527,2.40527,0,0,1,285.32662,89.88495Z" fill="url(#k)"/><path d="M316.327,90.28967a2,2,0,0,1,2,2v11a2,2,0,0,1-2,2h-31a2.00006,2.00006,0,0,1-2-2v-11a2.00006,2.00006,0,0,1,2-2h31m0-.81006h-31a2.81328,2.81328,0,0,0-2.81006,2.81006v11a2.81328,2.81328,0,0,0,2.81006,2.81006h31a2.81328,2.81328,0,0,0,2.81006-2.81006v-11a2.81328,2.81328,0,0,0-2.81006-2.81006Z" fill="#252525"/><path d="M348.20553,89.88495H379.206a2.40479,2.40479,0,0,1,2.40479,2.40479v10.99951a2.40527,2.40527,0,0,1-2.40527,2.40527H348.205a2.40479,2.40479,0,0,1-2.40479-2.40479V92.29022A2.40527,2.40527,0,0,1,348.20553,89.88495Z" fill="url(#l)"/><path d="M379.206,90.28967a2.00006,2.00006,0,0,1,2,2v11a2.00006,2.00006,0,0,1-2,2h-31a2,2,0,0,1-2-2v-11a2,2,0,0,1,2-2h31m0-.81006h-31a2.81328,2.81328,0,0,0-2.81006,2.81006v11a2.81328,2.81328,0,0,0,2.81006,2.81006h31a2.81328,2.81328,0,0,0,2.81-2.81006v-11a2.81328,2.81328,0,0,0-2.81-2.81006Z" fill="#252525"/><path d="M26.74846,35.16318a4.26664,4.26664,0,1,1-4.2655-4.26731A4.26553,4.26553,0,0,1,26.74846,35.16318Z" fill="#d60012" stroke="#000" stroke-miterlimit="10" stroke-width="0.5"/><path d="M89.62879,35.16318a4.26664,4.26664,0,1,1-4.266-4.26731A4.26594,4.26594,0,0,1,89.62879,35.16318Z" fill="#b3b3b3" stroke="#1a1a1a" stroke-miterlimit="10" stroke-width="0.5"/><path d="M152.62119,35.16318a4.26665,4.26665,0,1,1-4.26543-4.26731A4.26548,4.26548,0,0,1,152.62119,35.16318Z" fill="#b3b3b3" stroke="#1a1a1a" stroke-miterlimit="10" stroke-width="0.5"/><path d="M215.50018,35.16318a4.2664,4.2664,0,1,1-4.2655-4.26731A4.26584,4.26584,0,0,1,215.50018,35.16318Z" fill="#b3b3b3" stroke="#1a1a1a" stroke-miterlimit="10" stroke-width="0.5"/><path d="M278.493,35.16318a4.2664,4.2664,0,1,1-4.26635-4.26731A4.26656,4.26656,0,0,1,278.493,35.16318Z" fill="#b3b3b3" stroke="#1a1a1a" stroke-miterlimit="10" stroke-width="0.5"/><path d="M341.37205,35.16318a4.26641,4.26641,0,1,1-4.26645-4.26731A4.26665,4.26665,0,0,1,341.37205,35.16318Z" fill="#b3b3b3" stroke="#1a1a1a" stroke-miterlimit="10" stroke-width="0.5"/><path d="M26.74846,98.03851A4.26664,4.26664,0,1,1,22.483,93.773,4.26591,4.26591,0,0,1,26.74846,98.03851Z" fill="#b3b3b3" stroke="#1a1a1a" stroke-miterlimit="10" stroke-width="0.5"/><path d="M89.62879,98.03851a4.26664,4.26664,0,1,1-4.266-4.2655A4.26631,4.26631,0,0,1,89.62879,98.03851Z" fill="#b3b3b3" stroke="#1a1a1a" stroke-miterlimit="10" stroke-width="0.5"/><path d="M152.62119,98.03851a4.26665,4.26665,0,1,1-4.26543-4.2655A4.26585,4.26585,0,0,1,152.62119,98.03851Z" fill="#b3b3b3" stroke="#1a1a1a" stroke-miterlimit="10" stroke-width="0.5"/><path d="M215.50018,98.03851a4.2664,4.2664,0,1,1-4.2655-4.2655A4.26621,4.26621,0,0,1,215.50018,98.03851Z" fill="#b3b3b3" stroke="#1a1a1a" stroke-miterlimit="10" stroke-width="0.5"/><path d="M278.493,98.03851a4.2664,4.2664,0,1,1-4.26635-4.2655A4.26694,4.26694,0,0,1,278.493,98.03851Z" fill="#b3b3b3" stroke="#1a1a1a" stroke-miterlimit="10" stroke-width="0.5"/><path d="M341.37205,98.03851a4.26641,4.26641,0,1,1-4.26645-4.2655A4.267,4.267,0,0,1,341.37205,98.03851Z" fill="#b3b3b3" stroke="#1a1a1a" stroke-miterlimit="10" stroke-width="0.5"/></svg>