<svg xmlns="http://www.w3.org/2000/svg" xmlns:xlink="http://www.w3.org/1999/xlink" viewBox="0 0 1080 856"><defs><linearGradient id="a" x1="138.16724" y1="295.00573" x2="138.16724" y2="332.34822" gradientUnits="userSpaceOnUse"><stop offset="0" stop-color="#e6e6e6"/><stop offset="0.1144" stop-color="#e0e0e0"/><stop offset="0.27295" stop-color="#cecece"/><stop offset="0.45731" stop-color="#b0b0b0"/><stop offset="0.66114" stop-color="#878787"/><stop offset="0.87829" stop-color="#535353"/><stop offset="1" stop-color="#333"/></linearGradient><linearGradient id="b" x1="309.94273" y1="295.00573" x2="309.94273" y2="332.34822" xlink:href="#a"/><linearGradient id="c" x1="474.24971" y1="295.00573" x2="474.24971" y2="332.34822" xlink:href="#a"/><linearGradient id="d" x1="646.0252" y1="295.00573" x2="646.0252" y2="332.34822" xlink:href="#a"/><linearGradient id="e" x1="810.35767" y1="295.00573" x2="810.35767" y2="332.34822" xlink:href="#a"/><linearGradient id="f" x1="982.10767" y1="295.00573" x2="982.10767" y2="332.34822" xlink:href="#a"/><linearGradient id="g" x1="138.16724" y1="123.23024" x2="138.16724" y2="160.57274" xlink:href="#a"/><linearGradient id="h" x1="309.94273" y1="123.23024" x2="309.94273" y2="160.57274" xlink:href="#a"/><linearGradient id="i" x1="474.24971" y1="123.23024" x2="474.24971" y2="160.57274" xlink:href="#a"/><linearGradient id="j" x1="646.0252" y1="123.23024" x2="646.0252" y2="160.57274" xlink:href="#a"/><linearGradient id="k" x1="810.35767" y1="123.23024" x2="810.35767" y2="160.57274" xlink:href="#a"/><linearGradient id="l" x1="982.10767" y1="123.23024" x2="982.10767" y2="160.57274" xlink:href="#a"/><linearGradient id="m" x1="138.16724" y1="713.2417" x2="138.16724" y2="750.58419" xlink:href="#a"/><linearGradient id="n" x1="309.94273" y1="713.2417" x2="309.94273" y2="750.58419" xlink:href="#a"/><linearGradient id="o" x1="474.24971" y1="713.2417" x2="474.24971" y2="750.58419" xlink:href="#a"/><linearGradient id="p" x1="646.0252" y1="713.2417" x2="646.0252" y2="750.58419" xlink:href="#a"/><linearGradient id="q" x1="810.35767" y1="713.2417" x2="810.35767" y2="750.58419" xlink:href="#a"/><linearGradient id="r" x1="982.10767" y1="713.2417" x2="982.10767" y2="750.58419" xlink:href="#a"/><linearGradient id="s" x1="138.16724" y1="541.46621" x2="138.16724" y2="578.80871" xlink:href="#a"/><linearGradient id="t" x1="309.94273" y1="541.46621" x2="309.94273" y2="578.80871" xlink:href="#a"/><linearGradient id="u" x1="474.24971" y1="541.46621" x2="474.24971" y2="578.80871" xlink:href="#a"/><linearGradient id="v" x1="646.0252" y1="541.46621" x2="646.0252" y2="578.80871" xlink:href="#a"/><linearGradient id="w" x1="810.35767" y1="541.46621" x2="810.35767" y2="578.80871" xlink:href="#a"/><linearGradient id="x" x1="982.10767" y1="541.46621" x2="982.10767" y2="578.80871" xlink:href="#a"/></defs><title>pan_pp4</title><path d="M735.647,367.09033a3.72065,3.72065,0,1,1-3.7207,3.72071,3.72521,3.72521,0,0,1,3.7207-3.72071m0-1.13391a4.85456,4.85456,0,1,0,4.855,4.85462,4.85479,4.85479,0,0,0-4.855-4.85462Z" fill="#e6e6e6"/><path d="M63.48242,352.15344a3.72058,3.72058,0,1,1-3.7207,3.72058,3.72477,3.72477,0,0,1,3.7207-3.72058m0-1.13391a4.8545,4.8545,0,1,0,4.85449,4.85449,4.85438,4.85438,0,0,0-4.85449-4.85449Z" fill="#e6e6e6"/><path d="M63.48242,367.09033a3.72065,3.72065,0,1,1-3.7207,3.72071,3.7248,3.7248,0,0,1,3.7207-3.72071m0-1.13391a4.85456,4.85456,0,1,0,4.85449,4.85462,4.85448,4.85448,0,0,0-4.85449-4.85462Z" fill="#e6e6e6"/><path d="M235.25781,367.09033a3.72065,3.72065,0,1,1-3.7207,3.72071,3.7248,3.7248,0,0,1,3.7207-3.72071m0-1.13391a4.85456,4.85456,0,1,0,4.85449,4.85462,4.85448,4.85448,0,0,0-4.85449-4.85462Z" fill="#e6e6e6"/><path d="M571.34033,359.62183a3.72064,3.72064,0,1,1-3.7207,3.7207,3.7248,3.7248,0,0,1,3.7207-3.7207m0-1.13391a4.85455,4.85455,0,1,0,4.85449,4.85461,4.85448,4.85448,0,0,0-4.85449-4.85461Z" fill="#e6e6e6"/><path d="M399.56494,195.31494a3.72058,3.72058,0,1,1-3.72119,3.72058,3.72477,3.72477,0,0,1,3.72119-3.72058m0-1.13391a4.85449,4.85449,0,1,0,4.85449,4.85449,4.85479,4.85479,0,0,0-4.85449-4.85449Z" fill="#e6e6e6"/><path d="M735.647,180.37793a3.72058,3.72058,0,1,1-3.7207,3.72058,3.72519,3.72519,0,0,1,3.7207-3.72058m0-1.13391a4.85449,4.85449,0,1,0,4.855,4.85449,4.85477,4.85477,0,0,0-4.855-4.85449Z" fill="#e6e6e6"/><path d="M735.647,195.31494a3.72058,3.72058,0,1,1-3.7207,3.72058,3.72519,3.72519,0,0,1,3.7207-3.72058m0-1.13391a4.85449,4.85449,0,1,0,4.855,4.85449,4.85469,4.85469,0,0,0-4.855-4.85449Z" fill="#e6e6e6"/><path d="M235.25781,187.84644a3.72058,3.72058,0,1,1-3.7207,3.72058,3.72477,3.72477,0,0,1,3.7207-3.72058m0-1.13392a4.8545,4.8545,0,1,0,4.85449,4.8545,4.85446,4.85446,0,0,0-4.85449-4.8545Z" fill="#e6e6e6"/><path d="M743.11572,777.85791a3.72058,3.72058,0,1,1-3.7207,3.72058,3.72478,3.72478,0,0,1,3.7207-3.72058m0-1.13391a4.85449,4.85449,0,1,0,4.85449,4.85449,4.85438,4.85438,0,0,0-4.85449-4.85449Z" fill="#e6e6e6"/><path d="M743.11572,792.7948a3.72064,3.72064,0,1,1-3.7207,3.7207,3.7248,3.7248,0,0,1,3.7207-3.7207m0-1.13391a4.85456,4.85456,0,1,0,4.85449,4.85461,4.85448,4.85448,0,0,0-4.85449-4.85461Z" fill="#e6e6e6"/><path d="M914.89111,769.85791a3.72058,3.72058,0,1,1-3.7207,3.72058,3.72478,3.72478,0,0,1,3.7207-3.72058m0-1.13391a4.85449,4.85449,0,1,0,4.8545,4.85449,4.85438,4.85438,0,0,0-4.8545-4.85449Z" fill="#e6e6e6"/><path d="M914.89111,785.85791a3.72058,3.72058,0,1,1-3.7207,3.72058,3.72478,3.72478,0,0,1,3.7207-3.72058m0-1.13391a4.85449,4.85449,0,1,0,4.8545,4.85449,4.85438,4.85438,0,0,0-4.8545-4.85449Z" fill="#e6e6e6"/><path d="M235.25781,598.61389a3.72058,3.72058,0,1,1-3.7207,3.72058,3.72478,3.72478,0,0,1,3.7207-3.72058m0-1.13391a4.85449,4.85449,0,1,0,4.85449,4.85449,4.85445,4.85445,0,0,0-4.85449-4.85449Z" fill="#e6e6e6"/><path d="M235.25781,613.5509a3.72059,3.72059,0,1,1-3.7207,3.72058,3.72478,3.72478,0,0,1,3.7207-3.72058m0-1.13391a4.8545,4.8545,0,1,0,4.85449,4.85449,4.85445,4.85445,0,0,0-4.85449-4.85449Z" fill="#e6e6e6"/><path d="M235.25781,775.5509a3.72059,3.72059,0,1,1-3.7207,3.72058,3.72478,3.72478,0,0,1,3.7207-3.72058m0-1.13391a4.8545,4.8545,0,1,0,4.85449,4.85449,4.85445,4.85445,0,0,0-4.85449-4.85449Z" fill="#e6e6e6"/><path d="M63.25781,775.5509a3.72059,3.72059,0,1,1-3.7207,3.72058,3.72478,3.72478,0,0,1,3.7207-3.72058m0-1.13391a4.8545,4.8545,0,1,0,4.85449,4.85449,4.85445,4.85445,0,0,0-4.85449-4.85449Z" fill="#e6e6e6"/><path d="M399.25781,775.5509a3.72059,3.72059,0,1,1-3.7207,3.72058,3.72478,3.72478,0,0,1,3.7207-3.72058m0-1.13391a4.8545,4.8545,0,1,0,4.85449,4.85449,4.85445,4.85445,0,0,0-4.85449-4.85449Z" fill="#e6e6e6"/><path d="M571.25781,775.5509a3.72059,3.72059,0,1,1-3.7207,3.72058,3.72478,3.72478,0,0,1,3.7207-3.72058m0-1.13391a4.8545,4.8545,0,1,0,4.85449,4.85449,4.85445,4.85445,0,0,0-4.85449-4.85449Z" fill="#e6e6e6"/><path d="M571.34033,606.0824a3.72058,3.72058,0,1,1-3.7207,3.72058,3.72477,3.72477,0,0,1,3.7207-3.72058m0-1.13391a4.85449,4.85449,0,1,0,4.85449,4.85449,4.85445,4.85445,0,0,0-4.85449-4.85449Z" fill="#e6e6e6"/><path d="M735.647,606.0824a3.72058,3.72058,0,1,1-3.7207,3.72058,3.72518,3.72518,0,0,1,3.7207-3.72058m0-1.13391a4.85449,4.85449,0,1,0,4.855,4.85449,4.85477,4.85477,0,0,0-4.855-4.85449Z" fill="#e6e6e6"/><rect x="1" y="1" width="1078" height="854" rx="11" ry="11" fill="#1a1a1a"/><path d="M1068,2a10.01126,10.01126,0,0,1,10,10V844a10.01122,10.01122,0,0,1-10,10H12A10.01122,10.01122,0,0,1,2,844V12A10.01126,10.01126,0,0,1,12,2H1068m0-2H12A12,12,0,0,0,0,12V844a12,12,0,0,0,12,12H1068a12,12,0,0,0,12-12V12a12,12,0,0,0-12-12Z" fill="#4d4d4d"/><rect x="25.13965" y="230.52344" width="509.8584" height="158.83887" rx="5" ry="5" fill="#414141"/><path d="M529.99756,231.52344a3.99981,3.99981,0,0,1,4,4v148.8385a3.99973,3.99973,0,0,1-4,4H30.13965a4,4,0,0,1-4-4V235.52344a4.00011,4.00011,0,0,1,4-4H529.99756m0-2H30.13965a6.00671,6.00671,0,0,0-6,6v148.8385a6.00664,6.00664,0,0,0,6,6H529.99756a6.00664,6.00664,0,0,0,6-6V235.52344a6.00672,6.00672,0,0,0-6-6Z" fill="#bfcaff"/><rect x="547.93457" y="230.52344" width="509.8584" height="158.83887" rx="5" ry="5" fill="#414141"/><path d="M1052.79248,231.52344a3.99981,3.99981,0,0,1,4,4v148.8385a3.99973,3.99973,0,0,1-4,4H552.93457a4,4,0,0,1-4-4V235.52344a4.00012,4.00012,0,0,1,4-4h499.85791m0-2H552.93457a6.00672,6.00672,0,0,0-6,6v148.8385a6.00664,6.00664,0,0,0,6,6h499.85791a6.00664,6.00664,0,0,0,6-6V235.52344a6.00672,6.00672,0,0,0-6-6Z" fill="#bfcaff"/><rect x="25.13965" y="58.74805" width="1032.65332" height="158.83887" rx="5" ry="5" fill="#414141"/><path d="M1052.79248,59.74805a3.99973,3.99973,0,0,1,4,4V212.58643a3.99974,3.99974,0,0,1-4,4H30.13965a4,4,0,0,1-4-4V63.74805a4,4,0,0,1,4-4H1052.79248m0-2H30.13965a6.00667,6.00667,0,0,0-6,6V212.58643a6.00671,6.00671,0,0,0,6,6H1052.79248a6.00672,6.00672,0,0,0,6-6V63.74805a6.00668,6.00668,0,0,0-6-6Z" fill="#bfcaff"/><rect x="25.13965" y="648.75977" width="1032.65332" height="158.83789" rx="5" ry="5" fill="#414141"/><path d="M1052.79248,649.7594a3.99981,3.99981,0,0,1,4,4V802.5979a3.99973,3.99973,0,0,1-4,4H30.13965a4,4,0,0,1-4-4V653.7594a4.00011,4.00011,0,0,1,4-4H1052.79248m0-2H30.13965a6.00664,6.00664,0,0,0-6,6V802.5979a6.00671,6.00671,0,0,0,6,6H1052.79248a6.00672,6.00672,0,0,0,6-6V653.7594a6.00664,6.00664,0,0,0-6-6Z" fill="#ced2d9"/><rect x="25.13965" y="476.98438" width="509.8584" height="158.83789" rx="5" ry="5" fill="#414141"/><path d="M529.99756,477.984a3.99973,3.99973,0,0,1,4,4v148.8385a3.99981,3.99981,0,0,1-4,4H30.13965a4.00011,4.00011,0,0,1-4-4V481.984a4,4,0,0,1,4-4H529.99756m0-2H30.13965a6.00664,6.00664,0,0,0-6,6v148.8385a6.00671,6.00671,0,0,0,6,6H529.99756a6.00672,6.00672,0,0,0,6-6V481.984a6.00664,6.00664,0,0,0-6-6Z" fill="#bfcaff"/><rect x="547.93457" y="476.98438" width="509.8584" height="158.83789" rx="5" ry="5" fill="#414141"/><path d="M1052.79248,477.984a3.99973,3.99973,0,0,1,4,4v148.8385a3.99981,3.99981,0,0,1-4,4H552.93457a4.00012,4.00012,0,0,1-4-4V481.984a4,4,0,0,1,4-4h499.85791m0-2H552.93457a6.00664,6.00664,0,0,0-6,6v148.8385a6.00672,6.00672,0,0,0,6,6h499.85791a6.00672,6.00672,0,0,0,6-6V481.984a6.00664,6.00664,0,0,0-6-6Z" fill="#bfcaff"/><circle cx="735.64719" cy="355.874" r="4.85452" fill="#e6e6e6"/><circle cx="235.25773" cy="355.874" r="4.85452" fill="#e6e6e6"/><circle cx="399.56472" cy="363.3425" r="4.85452" fill="#e6e6e6"/><circle cx="571.34021" cy="191.56281" r="4.85452" fill="#e6e6e6"/><circle cx="399.56472" cy="184.09698" r="4.85452" fill="#e6e6e6"/><circle cx="63.48225" cy="609.80298" r="4.85452" fill="#e6e6e6"/><circle cx="735.64719" cy="370.811" r="4.85452" fill="#e6e6e6"/><circle cx="63.48225" cy="355.874" r="4.85452" fill="#e6e6e6"/><circle cx="63.48225" cy="370.811" r="4.85452" fill="#e6e6e6"/><circle cx="235.25773" cy="370.811" r="4.85452" fill="#e6e6e6"/><circle cx="571.34021" cy="363.3425" r="4.85452" fill="#e6e6e6"/><circle cx="399.56472" cy="199.03551" r="4.85452" fill="#e6e6e6"/><circle cx="735.64719" cy="184.09851" r="4.85452" fill="#e6e6e6"/><circle cx="735.64719" cy="199.03551" r="4.85452" fill="#e6e6e6"/><circle cx="235.25773" cy="191.56701" r="4.85452" fill="#e6e6e6"/><circle cx="235.25773" cy="602.33448" r="4.85452" fill="#e6e6e6"/><circle cx="235.25773" cy="617.27148" r="4.85452" fill="#e6e6e6"/><circle cx="235.25773" cy="779.27148" r="4.85452" fill="#e6e6e6"/><circle cx="63.25773" cy="779.27148" r="4.85452" fill="#e6e6e6"/><circle cx="399.25773" cy="779.27148" r="4.85452" fill="#e6e6e6"/><circle cx="571.25773" cy="779.27148" r="4.85452" fill="#e6e6e6"/><circle cx="735.64719" cy="779.27148" r="4.85452" fill="#e6e6e6"/><circle cx="907.42268" cy="779.27148" r="4.85452" fill="#e6e6e6"/><circle cx="571.34021" cy="609.80298" r="4.85452" fill="#e6e6e6"/><circle cx="735.64719" cy="609.80298" r="4.85452" fill="#e6e6e6"/><circle cx="907.42268" cy="191.56723" r="4.85452" fill="#e6e6e6"/><circle cx="399.56472" cy="610.28222" r="4.85452" fill="#e6e6e6"/><circle cx="907.42268" cy="610.28222" r="4.85452" fill="#e6e6e6"/><circle cx="63.48225" cy="313.67698" r="11.20275" fill="#b3b3b3" stroke="#252525" stroke-miterlimit="10" stroke-width="1.2"/><circle cx="235.25773" cy="313.34619" r="11.20275" fill="#b3b3b3" stroke="#252525" stroke-miterlimit="10" stroke-width="1.2"/><circle cx="399.56472" cy="313.34619" r="11.20275" fill="#b3b3b3" stroke="#252525" stroke-miterlimit="10" stroke-width="1.2"/><circle cx="571.34021" cy="313.34619" r="11.20275" fill="#b3b3b3" stroke="#252525" stroke-miterlimit="10" stroke-width="1.2"/><circle cx="735.64719" cy="313.34619" r="11.20275" fill="#b3b3b3" stroke="#252525" stroke-miterlimit="10" stroke-width="1.2"/><circle cx="907.42268" cy="313.34619" r="11.20275" fill="#b3b3b3" stroke="#252525" stroke-miterlimit="10" stroke-width="1.2"/><circle cx="63.48225" cy="141.90149" r="11.20275" fill="#b3b3b3" stroke="#252525" stroke-miterlimit="10" stroke-width="1.2"/><circle cx="235.25773" cy="141.5707" r="11.20275" fill="#b3b3b3" stroke="#252525" stroke-miterlimit="10" stroke-width="1.2"/><circle cx="399.56472" cy="141.5707" r="11.20275" fill="#b3b3b3" stroke="#252525" stroke-miterlimit="10" stroke-width="1.2"/><circle cx="571.34021" cy="141.5707" r="11.20275" fill="#b3b3b3" stroke="#252525" stroke-miterlimit="10" stroke-width="1.2"/><circle cx="735.64719" cy="141.5707" r="11.20275" fill="#b3b3b3" stroke="#252525" stroke-miterlimit="10" stroke-width="1.2"/><circle cx="907.42268" cy="141.5707" r="11.20275" fill="#b3b3b3" stroke="#252525" stroke-miterlimit="10" stroke-width="1.2"/><circle cx="235.25773" cy="731.58215" r="11.20275" fill="#b3b3b3" stroke="#252525" stroke-miterlimit="10" stroke-width="1.2"/><circle cx="399.56472" cy="731.58215" r="11.20275" fill="#b3b3b3" stroke="#252525" stroke-miterlimit="10" stroke-width="1.2"/><circle cx="571.34021" cy="731.58215" r="11.20275" fill="#b3b3b3" stroke="#252525" stroke-miterlimit="10" stroke-width="1.2"/><circle cx="735.64719" cy="731.58215" r="11.20275" fill="#b3b3b3" stroke="#252525" stroke-miterlimit="10" stroke-width="1.2"/><circle cx="907.42268" cy="731.58215" r="11.20275" fill="#b3b3b3" stroke="#252525" stroke-miterlimit="10" stroke-width="1.2"/><circle cx="63.48225" cy="560.13746" r="11.20275" fill="#b3b3b3" stroke="#252525" stroke-miterlimit="10" stroke-width="1.2"/><circle cx="235.25773" cy="559.80667" r="11.20275" fill="#b3b3b3" stroke="#252525" stroke-miterlimit="10" stroke-width="1.2"/><circle cx="399.56472" cy="559.80667" r="11.20275" fill="#b3b3b3" stroke="#252525" stroke-miterlimit="10" stroke-width="1.2"/><circle cx="571.34021" cy="559.80667" r="11.20275" fill="#b3b3b3" stroke="#252525" stroke-miterlimit="10" stroke-width="1.2"/><circle cx="735.64719" cy="559.80667" r="11.20275" fill="#b3b3b3" stroke="#252525" stroke-miterlimit="10" stroke-width="1.2"/><circle cx="907.42268" cy="559.80667" r="11.20275" fill="#b3b3b3" stroke="#252525" stroke-miterlimit="10" stroke-width="1.2"/><circle cx="63.48225" cy="731.91294" r="11.20275" fill="#b3b3b3" stroke="#252525" stroke-miterlimit="10" stroke-width="1.2"/><path d="M113.19922,355.999h4.1875c4.78515,0,7.6084,2.584,7.6084,7.752,0,5.19238-2.82325,7.8955-7.46485,7.8955h-4.33105Zm3.99609,13.39844c3.15821,0,4.95313-1.79394,4.95313-5.64648,0-3.82813-1.79492-5.50293-4.95313-5.50293h-1.2207v11.14941Z" fill="#e6e6e6"/><path d="M127.91406,359.89844h2.27344l.19141,2.082h.0957a3.99278,3.99278,0,0,1,3.32617-2.36914,2.98,2.98,0,0,1,1.33984.24023l-.47851,2.39258a3.83379,3.83379,0,0,0-1.2207-.19141c-.9336,0-2.05762.64551-2.77539,2.416v7.17773h-2.752Z" fill="#e6e6e6"/><path d="M136.52734,356.28613a1.70531,1.70531,0,1,1,1.69922,1.55567A1.58007,1.58007,0,0,1,136.52734,356.28613Zm.31055,3.61231h2.752v11.748h-2.752Z" fill="#e6e6e6"/><path d="M141.64844,359.89844h2.79883L146.31445,366c.31055,1.14844.66992,2.34473.98047,3.541h.0957c.335-1.19629.66993-2.39258,1.00489-3.541l1.86621-6.10156H152.918l-3.9961,11.748h-3.18164Z" fill="#e6e6e6"/><path d="M154.041,365.78516c0-3.82813,2.65625-6.17383,5.4082-6.17383,3.18164,0,4.85644,2.29687,4.85644,5.57519a6.373,6.373,0,0,1-.12011,1.33985H156.7207a3.36454,3.36454,0,0,0,3.46973,3.27832,4.91159,4.91159,0,0,0,2.72754-.86133l.93359,1.72266a7.42026,7.42026,0,0,1-4.01953,1.26757C156.57812,371.93359,154.041,369.66016,154.041,365.78516Zm7.87207-1.125c0-1.81836-.79-2.91895-2.39258-2.91895-1.3877,0-2.584,1.02832-2.82324,2.91895Z" fill="#e6e6e6"/><path d="M297.87109,358.34375h-4.52246V355.999H305.168v2.34473h-4.52149v13.30273h-2.77539Z" fill="#e6e6e6"/><path d="M307.22559,356.28613a1.70531,1.70531,0,1,1,1.69824,1.55567A1.57977,1.57977,0,0,1,307.22559,356.28613Zm.31152,3.61231h2.751v11.748h-2.751Z" fill="#e6e6e6"/><path d="M313.80469,368.63184v-13.877h2.752v14.02051c0,.66992.31055.90918.59766.90918a1.65482,1.65482,0,0,0,.43164-.04785l.3584,2.05762a3.75781,3.75781,0,0,1-1.46.23925C314.52344,371.93359,313.80469,370.666,313.80469,368.63184Z" fill="#e6e6e6"/><path d="M320.69629,367.6748v-5.59863h-1.67481v-2.05762l1.81836-.12011.335-3.20508h2.29688v3.20508h2.99121v2.17773h-2.99121v5.59863c0,1.3877.52637,2.05762,1.65137,2.05762a3.34792,3.34792,0,0,0,1.21972-.26367l.47852,2.03418a7.49014,7.49014,0,0,1-2.39258.43066C321.70117,371.93359,320.69629,370.21094,320.69629,367.6748Z" fill="#e6e6e6"/><path d="M458.44727,355.999h3.13378l2.7754,7.65625c.335.98145.66992,2.03418,1.00488,3.0625h.0957c.335-1.02832.64649-2.081.98047-3.0625l2.7041-7.65625h3.1582v15.64746h-2.55957v-7.15429c0-1.459.21485-3.541.3584-4.97657h-.0957l-1.26856,3.63672-2.55957,7.03516h-1.65136l-2.584-7.03516-1.24414-3.63672h-.0957c.12012,1.43555.35937,3.51758.35937,4.97657v7.15429h-2.51171Z" fill="#e6e6e6"/><path d="M475.72168,356.28613a1.70531,1.70531,0,1,1,1.69824,1.55567A1.57977,1.57977,0,0,1,475.72168,356.28613Zm.31152,3.61231h2.751v11.748h-2.751Z" fill="#e6e6e6"/><path d="M484.62207,365.52148l-3.49316-5.623h2.96679l1.31641,2.22558c.334.64551.7168,1.33985,1.07617,1.98536h.0957c.28711-.64551.62207-1.33985.90918-1.98536l1.124-2.22558h2.84765l-3.46875,5.93359,3.73243,5.81445h-2.9668l-1.43555-2.32031c-.38281-.69433-.79-1.41211-1.19726-2.082h-.09571c-.334.66992-.69336,1.36328-1.02832,2.082l-1.24414,2.32031h-2.87109Z" fill="#e6e6e6"/><path d="M612.89258,363.87109c0-5.12109,3.207-8.15918,7.15429-8.15918a6.20955,6.20955,0,0,1,4.52149,1.98536l-1.48242,1.79492a4.082,4.082,0,0,0-2.9668-1.36328c-2.56055,0-4.37891,2.15234-4.37891,5.66992,0,3.56445,1.67481,5.71875,4.30664,5.71875a4.45735,4.45735,0,0,0,3.34961-1.60352l1.4834,1.7461a6.3083,6.3083,0,0,1-4.92871,2.27343C616.00391,371.93359,612.89258,369.0625,612.89258,363.87109Z" fill="#e6e6e6"/><path d="M626.48242,365.78516c0-3.82813,2.65625-6.17383,5.4082-6.17383,3.18165,0,4.85645,2.29687,4.85645,5.57519a6.37222,6.37222,0,0,1-.12012,1.33985h-7.46484a3.36453,3.36453,0,0,0,3.46973,3.27832,4.91153,4.91153,0,0,0,2.72753-.86133l.9336,1.72266a7.42026,7.42026,0,0,1-4.01953,1.26757C629.01953,371.93359,626.48242,369.66016,626.48242,365.78516Zm7.87207-1.125c0-1.81836-.79-2.91895-2.39258-2.91895-1.38769,0-2.584,1.02832-2.82324,2.91895Z" fill="#e6e6e6"/><path d="M639.37891,359.89844h2.27343l.19141,1.58008h.0957a5.45571,5.45571,0,0,1,3.85157-1.86719c2.51269,0,3.61328,1.69922,3.61328,4.666v7.36914h-2.752v-7.00976c0-1.93848-.5498-2.65625-1.84179-2.65625-1.0293,0-1.69922.50195-2.67969,1.459v8.207h-2.75195Z" fill="#e6e6e6"/><path d="M653.18457,367.6748v-5.59863h-1.6748v-2.05762l1.81835-.12011.335-3.20508H655.96v3.20508h2.99121v2.17773H655.96v5.59863c0,1.3877.52637,2.05762,1.65137,2.05762a3.34792,3.34792,0,0,0,1.21972-.26367l.47852,2.03418a7.49014,7.49014,0,0,1-2.39258.43066C654.18945,371.93359,653.18457,370.21094,653.18457,367.6748Z" fill="#e6e6e6"/><path d="M660.26758,365.78516c0-3.82813,2.65527-6.17383,5.40625-6.17383,3.18262,0,4.85742,2.29687,4.85742,5.57519a6.44987,6.44987,0,0,1-.11914,1.33985h-7.46484a3.36194,3.36194,0,0,0,3.46875,3.27832,4.91153,4.91153,0,0,0,2.72753-.86133l.93262,1.72266a7.41239,7.41239,0,0,1-4.01953,1.26757C662.80273,371.93359,660.26758,369.66016,660.26758,365.78516Zm7.87109-1.125c0-1.81836-.78906-2.91895-2.39258-2.91895-1.38769,0-2.584,1.02832-2.82324,2.91895Z" fill="#e6e6e6"/><path d="M673.16406,359.89844h2.27246l.19141,2.082h.0957a3.99028,3.99028,0,0,1,3.3252-2.36914,2.97457,2.97457,0,0,1,1.33984.24023l-.47851,2.39258a3.81862,3.81862,0,0,0-1.21973-.19141c-.93262,0-2.05762.64551-2.77539,2.416v7.17773h-2.751Z" fill="#e6e6e6"/><path d="M791.0957,363.87109c0-5.12109,3.2295-8.15918,7.39258-8.15918a6.44657,6.44657,0,0,1,4.73731,1.98536l-1.4834,1.79492a4.23722,4.23722,0,0,0-3.15821-1.36328c-2.77539,0-4.6416,2.15234-4.6416,5.66992,0,3.56445,1.65137,5.71875,4.78516,5.71875a3.46057,3.46057,0,0,0,2.249-.69434v-3.374h-2.96679v-2.27246h5.45507v6.89062a7.17088,7.17088,0,0,1-5,1.86621C794.22949,371.93359,791.0957,369.0625,791.0957,363.87109Z" fill="#e6e6e6"/><path d="M806.07227,368.48828c0-2.51172,2.082-3.82812,6.915-4.35449-.04785-1.24414-.5498-2.29688-2.15332-2.29688a6.69321,6.69321,0,0,0-3.30175,1.14844l-1.00489-1.84277a9.19807,9.19807,0,0,1,4.833-1.53125c2.91895,0,4.37793,1.79492,4.37793,5.07226v6.96289h-2.27246l-.19141-1.292h-.0957a5.71659,5.71659,0,0,1-3.63672,1.5791A3.28443,3.28443,0,0,1,806.07227,368.48828Zm6.915,0v-2.63183c-3.20605.40722-4.25878,1.24414-4.25878,2.417,0,1.05273.71777,1.50683,1.69921,1.50683A3.73468,3.73468,0,0,0,812.9873,368.48828Z" fill="#e6e6e6"/><path d="M819.041,359.89844h2.27343l.19141,1.24414h.0957a5.72979,5.72979,0,0,1,3.541-1.53125c2.91894,0,4.61719,2.3457,4.61719,5.98242,0,4.01953-2.416,6.33984-5.02344,6.33984a4.75309,4.75309,0,0,1-3.01563-1.292l.07227,1.96192v3.68457H819.041Zm7.87207,5.71875c0-2.34473-.76563-3.73242-2.53614-3.73242a3.75177,3.75177,0,0,0-2.584,1.3164v5.47852a3.71454,3.71454,0,0,0,2.36914.98047C825.7168,369.66016,826.91309,368.27344,826.91309,365.61719Z" fill="#e6e6e6"/><path d="M966.29883,355.999h3.13379l2.77539,7.65625c.335.98145.66992,2.03418,1.00488,3.0625h.0957c.335-1.02832.64649-2.081.98047-3.0625l2.7041-7.65625h3.15821v15.64746H977.5918v-7.15429c0-1.459.21484-3.541.3584-4.97657h-.09571l-1.26855,3.63672-2.55957,7.03516H972.375l-2.584-7.03516-1.24415-3.63672h-.0957c.12012,1.43555.35938,3.51758.35938,4.97657v7.15429h-2.51172Z" fill="#e6e6e6"/><path d="M983.57324,356.28613a1.70531,1.70531,0,1,1,1.69824,1.55567A1.57978,1.57978,0,0,1,983.57324,356.28613Zm.31153,3.61231h2.751v11.748h-2.751Z" fill="#e6e6e6"/><path d="M992.47363,365.52148l-3.49316-5.623h2.9668l1.3164,2.22558c.334.64551.7168,1.33985,1.07617,1.98536h.09571c.28711-.64551.62207-1.33985.90918-1.98536l1.124-2.22558h2.84766l-3.46875,5.93359,3.73242,5.81445h-2.9668l-1.43555-2.32031c-.38281-.69433-.79-1.41211-1.19726-2.082h-.0957c-.334.66992-.69336,1.36328-1.02832,2.082l-1.24415,2.32031h-2.87109Z" fill="#e6e6e6"/><path d="M117.00391,184.22363H122.292c3.25391,0,5.74219,1.14844,5.74219,4.6416a4.38044,4.38044,0,0,1-3.11035,4.47461l3.73242,6.53125H125.5459l-3.374-6.125H119.7793v6.125h-2.77539Zm5.001,7.32129c2.12989,0,3.30176-.90918,3.30176-2.67969,0-1.79492-1.17187-2.416-3.30176-2.416H119.7793v5.0957Z" fill="#e6e6e6"/><path d="M130.16406,196.71289c0-2.51172,2.08106-3.82812,6.91406-4.35449-.04785-1.24414-.55078-2.29688-2.15332-2.29688a6.69321,6.69321,0,0,0-3.30175,1.14844l-1.00489-1.84277a9.19807,9.19807,0,0,1,4.833-1.53125c2.91895,0,4.37891,1.79492,4.37891,5.07226v6.96289h-2.27344l-.19141-1.292h-.0957a5.71659,5.71659,0,0,1-3.63672,1.5791A3.28366,3.28366,0,0,1,130.16406,196.71289Zm6.91406,0v-2.63184c-3.20605.40723-4.25878,1.24415-4.25878,2.417,0,1.05273.71777,1.50683,1.69824,1.50683A3.7348,3.7348,0,0,0,137.07812,196.71289Z" fill="#e6e6e6"/><path d="M143.15625,195.89941v-5.59863h-1.6748v-2.05762l1.81835-.12011.335-3.20508h2.29687v3.20508h2.99023v2.17773h-2.99023v5.59863c0,1.3877.52637,2.05762,1.65039,2.05762a3.34871,3.34871,0,0,0,1.2207-.26367l.47852,2.03418a7.49009,7.49009,0,0,1-2.39258.43066C144.16113,200.1582,143.15625,198.43555,143.15625,195.89941Z" fill="#e6e6e6"/><path d="M150.23828,194.00977c0-3.82813,2.65625-6.17383,5.4082-6.17383,3.18164,0,4.85645,2.29687,4.85645,5.57519a6.37222,6.37222,0,0,1-.12012,1.33985H152.918a3.36453,3.36453,0,0,0,3.46973,3.27832,4.91153,4.91153,0,0,0,2.72753-.86133l.9336,1.72265a7.42018,7.42018,0,0,1-4.01953,1.26758C152.77539,200.1582,150.23828,197.88477,150.23828,194.00977Zm7.87207-1.125c0-1.81836-.79-2.91895-2.39258-2.91895-1.38769,0-2.584,1.02832-2.82324,2.91895Z" fill="#e6e6e6"/><path d="M292.88086,184.22363h9.42773v2.34473h-6.65234v3.99609h5.623v2.34375h-5.623v4.61817h6.89062v2.34472h-9.666Z" fill="#e6e6e6"/><path d="M305.51367,188.12305h2.27344l.19141,1.58007h.0957a5.45569,5.45569,0,0,1,3.85156-1.86718c2.5127,0,3.61328,1.69922,3.61328,4.666v7.36914h-2.752v-7.00976c0-1.93848-.54981-2.65625-1.8418-2.65625-1.02929,0-1.69922.50195-2.67969,1.459v8.207h-2.752Z" fill="#e6e6e6"/><path d="M317.4541,188.12305h2.79981l1.86523,6.10156c.31152,1.14844.66992,2.34473.98145,3.541h.0957c.335-1.19628.66992-2.39257,1.00488-3.541l1.86621-6.10156h2.65528l-3.99512,11.748h-3.18262Z" fill="#e6e6e6"/><path d="M428.96875,186.56836h-4.52148v-2.34473H436.2666v2.34473h-4.52246v13.30273h-2.77539Z" fill="#e6e6e6"/><path d="M438.32422,184.51074a1.70531,1.70531,0,1,1,1.69922,1.55567A1.58006,1.58006,0,0,1,438.32422,184.51074Zm.31055,3.61231h2.752v11.748h-2.752Z" fill="#e6e6e6"/><path d="M444.9043,188.12305h2.27246l.1914,1.60351h.09571a4.96867,4.96867,0,0,1,3.58886-1.89062,3.19611,3.19611,0,0,1,3.25391,2.10547c1.125-1.19532,2.29688-2.10547,3.78027-2.10547,2.48829,0,3.63672,1.69922,3.63672,4.666v7.36914h-2.77539v-7.00976c0-1.93848-.57422-2.65625-1.79394-2.65625a3.65255,3.65255,0,0,0-2.46485,1.459v8.207h-2.752v-7.00976c0-1.93848-.57422-2.65625-1.81836-2.65625a3.70245,3.70245,0,0,0-2.46387,1.459v8.207h-2.751Z" fill="#e6e6e6"/><path d="M464.30859,194.00977c0-3.82813,2.65528-6.17383,5.40625-6.17383,3.18262,0,4.85743,2.29687,4.85743,5.57519a6.44976,6.44976,0,0,1-.11915,1.33985h-7.46484a3.362,3.362,0,0,0,3.46875,3.27832,4.91159,4.91159,0,0,0,2.72754-.86133l.93262,1.72265a7.41237,7.41237,0,0,1-4.01953,1.26758C466.84375,200.1582,464.30859,197.88477,464.30859,194.00977Zm7.8711-1.125c0-1.81836-.78907-2.91895-2.39258-2.91895-1.3877,0-2.584,1.02832-2.82324,2.91895Z" fill="#e6e6e6"/><path d="M482.22852,184.22363h3.13476l2.77539,7.65625c.335.98145.66992,2.03418,1.00488,3.0625h.09571c.335-1.02832.64551-2.08105.98144-3.0625l2.70313-7.65625h3.1582v15.64746h-2.56055V192.7168c0-1.459.21582-3.541.35938-4.97657h-.0957l-1.26758,3.63672-2.56055,7.03516h-1.65039l-2.584-7.03516-1.24414-3.63672h-.09571c.11914,1.43555.3584,3.51758.3584,4.97657v7.15429h-2.51269Z" fill="#e6e6e6"/><path d="M499.04883,194.00977c0-3.92383,2.65625-6.17383,5.57519-6.17383,2.94239,0,5.59864,2.25,5.59864,6.17383,0,3.89941-2.65625,6.14843-5.59864,6.14843C501.70508,200.1582,499.04883,197.90918,499.04883,194.00977Zm8.35058,0c0-2.36915-1.05273-3.92383-2.77539-3.92383s-2.751,1.55468-2.751,3.92383c0,2.34375,1.02832,3.89941,2.751,3.89941S507.39941,196.35352,507.39941,194.00977Z" fill="#e6e6e6"/><path d="M512.23242,194.00977c0-3.82813,2.417-6.17383,4.97656-6.17383a4.33744,4.33744,0,0,1,3.08692,1.293l-.0957-1.89063v-4.25879h2.751v16.8916h-2.27246l-.19141-1.26757h-.0957a4.89478,4.89478,0,0,1-3.32519,1.55468C514.12305,200.1582,512.23242,197.88477,512.23242,194.00977Zm7.96778,2.55957v-5.4795a3.50542,3.50542,0,0,0-2.39258-.98046c-1.50684,0-2.72754,1.4121-2.72754,3.876,0,2.53613.957,3.89942,2.65625,3.89942A3.172,3.172,0,0,0,520.2002,196.56934Z" fill="#e6e6e6"/><path d="M612.82227,184.22363h3.2539l5.0957,15.64746h-2.91894l-1.21973-4.23437h-5.26367l-1.2207,4.23437h-2.82324ZM612.415,193.459h3.99512l-.54981-1.91406c-.50293-1.65039-.957-3.44531-1.41113-5.168h-.0957c-.43165,1.7461-.88575,3.51758-1.38868,5.168Z" fill="#e6e6e6"/><path d="M623.10937,184.22363h4.92969c3.46875,0,6.05274,1.19629,6.05274,4.833,0,3.46875-2.584,5.07227-5.957,5.07227h-2.25v5.74218h-2.7754Zm4.80958,7.68067c2.32128,0,3.44531-.9336,3.44531-2.84766,0-1.96191-1.21973-2.60742-3.541-2.60742h-1.93847v5.45508Z" fill="#e6e6e6"/><path d="M641.82031,184.22363h3.13477l2.77539,7.65625c.335.98145.66992,2.03418,1.00488,3.0625h.0957c.335-1.02832.64551-2.08105.98145-3.0625l2.70312-7.65625h3.15821v15.64746h-2.56055V192.7168c0-1.459.21582-3.541.35938-4.97657H653.377l-1.26758,3.63672-2.56054,7.03516h-1.65039l-2.584-7.03516-1.24414-3.63672h-.0957c.11914,1.43555.3584,3.51758.3584,4.97657v7.15429h-2.5127Z" fill="#e6e6e6"/><path d="M658.64062,194.00977c0-3.92383,2.65625-6.17383,5.5752-6.17383,2.94238,0,5.59863,2.25,5.59863,6.17383,0,3.89941-2.65625,6.14843-5.59863,6.14843C661.29687,200.1582,658.64062,197.90918,658.64062,194.00977Zm8.35059,0c0-2.36915-1.05273-3.92383-2.77539-3.92383s-2.751,1.55468-2.751,3.92383c0,2.34375,1.02832,3.89941,2.751,3.89941S666.99121,196.35352,666.99121,194.00977Z" fill="#e6e6e6"/><path d="M671.82422,194.00977c0-3.82813,2.417-6.17383,4.97656-6.17383a4.33746,4.33746,0,0,1,3.08692,1.293l-.09571-1.89063v-4.25879h2.751v16.8916h-2.27246l-.19141-1.26757h-.0957a4.89479,4.89479,0,0,1-3.3252,1.55468C673.71484,200.1582,671.82422,197.88477,671.82422,194.00977Zm7.96777,2.55957v-5.4795a3.5054,3.5054,0,0,0-2.39258-.98046c-1.50683,0-2.72754,1.4121-2.72754,3.876,0,2.53613.957,3.89942,2.65625,3.89942A3.172,3.172,0,0,0,679.792,196.56934Z" fill="#e6e6e6"/><path d="M774.57422,184.22363h9.45019v2.34473h-6.6748v4.42578H783.043v2.3457h-5.69336v6.53125h-2.77539Z" fill="#e6e6e6"/><path d="M785.38867,194.00977c0-3.82813,2.65528-6.17383,5.40625-6.17383,3.18262,0,4.85742,2.29687,4.85742,5.57519a6.44987,6.44987,0,0,1-.11914,1.33985h-7.46484a3.36194,3.36194,0,0,0,3.46875,3.27832,4.91159,4.91159,0,0,0,2.72754-.86133l.93262,1.72265a7.41238,7.41238,0,0,1-4.01954,1.26758C787.92383,200.1582,785.38867,197.88477,785.38867,194.00977Zm7.8711-1.125c0-1.81836-.78907-2.91895-2.39258-2.91895-1.3877,0-2.584,1.02832-2.82324,2.91895Z" fill="#e6e6e6"/><path d="M797.51953,194.00977c0-3.82813,2.65527-6.17383,5.40625-6.17383,3.18262,0,4.85742,2.29687,4.85742,5.57519a6.44987,6.44987,0,0,1-.11914,1.33985h-7.46484a3.36194,3.36194,0,0,0,3.46875,3.27832,4.91159,4.91159,0,0,0,2.72754-.86133l.93261,1.72265a7.41232,7.41232,0,0,1-4.01953,1.26758C800.05469,200.1582,797.51953,197.88477,797.51953,194.00977Zm7.87109-1.125c0-1.81836-.78906-2.91895-2.39257-2.91895-1.3877,0-2.584,1.02832-2.82325,2.91895Z" fill="#e6e6e6"/><path d="M809.69727,194.00977c0-3.82813,2.417-6.17383,4.97656-6.17383a4.33744,4.33744,0,0,1,3.08691,1.293l-.0957-1.89063v-4.25879h2.751v16.8916h-2.27247l-.1914-1.26757h-.0957a4.89479,4.89479,0,0,1-3.3252,1.55468C811.58789,200.1582,809.69727,197.88477,809.69727,194.00977Zm7.96777,2.55957v-5.4795a3.50542,3.50542,0,0,0-2.39258-.98046c-1.50684,0-2.72754,1.4121-2.72754,3.876,0,2.53613.957,3.89942,2.65625,3.89942A3.172,3.172,0,0,0,817.665,196.56934Z" fill="#e6e6e6"/><path d="M826.39844,198.627h-.07227l-.23926,1.24414h-2.17675v-16.8916h2.751V187.334l-.07129,1.96192a5.36,5.36,0,0,1,3.39649-1.46c2.94336,0,4.64258,2.3457,4.64258,5.958,0,4.04394-2.417,6.36425-5.02539,6.36425A4.69451,4.69451,0,0,1,826.39844,198.627Zm5.38281-4.78515c0-2.34473-.76563-3.73242-2.53613-3.73242a3.75179,3.75179,0,0,0-2.584,1.3164v5.47852a3.66629,3.66629,0,0,0,2.36817.98047C830.585,197.88477,831.78125,196.49805,831.78125,193.8418Z" fill="#e6e6e6"/><path d="M837.38086,182.97949H840.084v10.55176h.07227l4.35352-5.4082h3.01562l-4.01953,4.78515,4.42578,6.96289h-2.99023l-3.01563-5.0957-1.8418,2.10547v2.99023h-2.70312Z" fill="#e6e6e6"/><path d="M966.29883,184.22363h3.13379l2.77539,7.65625c.335.98145.66992,2.03418,1.00488,3.0625h.0957c.335-1.02832.64649-2.08105.98047-3.0625l2.7041-7.65625h3.15821v15.64746H977.5918V192.7168c0-1.459.21484-3.541.3584-4.97657h-.09571l-1.26855,3.63672-2.55957,7.03516H972.375l-2.584-7.03516-1.24415-3.63672h-.0957c.12012,1.43555.35938,3.51758.35938,4.97657v7.15429h-2.51172Z" fill="#e6e6e6"/><path d="M983.57324,184.51074a1.70531,1.70531,0,1,1,1.69824,1.55567A1.57977,1.57977,0,0,1,983.57324,184.51074Zm.31153,3.61231h2.751v11.748h-2.751Z" fill="#e6e6e6"/><path d="M992.47363,193.74609l-3.49316-5.623h2.9668l1.3164,2.22558c.334.64551.7168,1.33985,1.07617,1.98535h.09571c.28711-.6455.62207-1.33984.90918-1.98535l1.124-2.22558h2.84766l-3.46875,5.93359,3.73242,5.81445h-2.9668l-1.43555-2.32031c-.38281-.69433-.79-1.41211-1.19726-2.082h-.0957c-.334.66992-.69336,1.36328-1.02832,2.082l-1.24415,2.32031h-2.87109Z" fill="#e6e6e6"/><path d="M117.53125,604.81055h-4.52246v-2.34473h11.81933v2.34473h-4.52148v13.30273h-2.77539Z" fill="#e6e6e6"/><path d="M126.88574,602.75293a1.70531,1.70531,0,1,1,1.69824,1.55566A1.57977,1.57977,0,0,1,126.88574,602.75293Zm.31153,3.6123h2.751v11.74805h-2.751Z" fill="#e6e6e6"/><path d="M133.46484,606.36523h2.27344l.19141,1.60352h.0957a4.96516,4.96516,0,0,1,3.58887-1.89063,3.1953,3.1953,0,0,1,3.2539,2.10547c1.124-1.19531,2.29688-2.10547,3.78028-2.10547,2.48828,0,3.63672,1.69922,3.63672,4.666v7.36914h-2.77539v-7.00976c0-1.93848-.57422-2.65625-1.79493-2.65625a3.65283,3.65283,0,0,0-2.46386,1.459v8.207H140.5v-7.00976c0-1.93848-.57422-2.65625-1.81836-2.65625a3.70008,3.70008,0,0,0-2.46484,1.459v8.207h-2.752Z" fill="#e6e6e6"/><path d="M152.86914,612.252c0-3.82812,2.65625-6.17383,5.4082-6.17383,3.18164,0,4.85645,2.29688,4.85645,5.5752a6.37211,6.37211,0,0,1-.12012,1.33984h-7.46484a3.36452,3.36452,0,0,0,3.46972,3.27832,4.91153,4.91153,0,0,0,2.72754-.86132l.9336,1.72265a7.42026,7.42026,0,0,1-4.01953,1.26758C155.40625,618.40039,152.86914,616.127,152.86914,612.252Zm7.87207-1.125c0-1.81836-.79-2.91894-2.39258-2.91894-1.38769,0-2.584,1.02832-2.82324,2.91894Z" fill="#e6e6e6"/><path d="M274.17187,602.46582h9.4502v2.34473h-6.6748v4.42578h5.69335v2.3457h-5.69335v6.53125h-2.7754Z" fill="#e6e6e6"/><path d="M284.98633,612.252c0-3.82812,2.65527-6.17383,5.40625-6.17383,3.18262,0,4.85742,2.29688,4.85742,5.5752a6.44976,6.44976,0,0,1-.11914,1.33984H287.666a3.36194,3.36194,0,0,0,3.46875,3.27832,4.91152,4.91152,0,0,0,2.72753-.86132l.93262,1.72265a7.4124,7.4124,0,0,1-4.01953,1.26758C287.52148,618.40039,284.98633,616.127,284.98633,612.252Zm7.87109-1.125c0-1.81836-.78906-2.91894-2.39258-2.91894-1.38769,0-2.584,1.02832-2.82324,2.91894Z" fill="#e6e6e6"/><path d="M297.11719,612.252c0-3.82812,2.65527-6.17383,5.40625-6.17383,3.18261,0,4.85742,2.29688,4.85742,5.5752a6.44976,6.44976,0,0,1-.11914,1.33984h-7.46485a3.362,3.362,0,0,0,3.46875,3.27832,4.91153,4.91153,0,0,0,2.72754-.86132l.93262,1.72265a7.41243,7.41243,0,0,1-4.01953,1.26758C299.65234,618.40039,297.11719,616.127,297.11719,612.252Zm7.87109-1.125c0-1.81836-.78906-2.91894-2.39258-2.91894-1.38769,0-2.584,1.02832-2.82324,2.91894Z" fill="#e6e6e6"/><path d="M309.29492,612.252c0-3.82812,2.417-6.17383,4.97656-6.17383a4.33744,4.33744,0,0,1,3.08692,1.293l-.0957-1.89062v-4.25879h2.751v16.8916h-2.27246l-.19141-1.26758h-.0957a4.89475,4.89475,0,0,1-3.32519,1.55469C311.18555,618.40039,309.29492,616.127,309.29492,612.252Zm7.96778,2.55957V609.332a3.50539,3.50539,0,0,0-2.39258-.98047c-1.50684,0-2.72754,1.41211-2.72754,3.876,0,2.53613.957,3.89941,2.65625,3.89941A3.172,3.172,0,0,0,317.2627,614.81152Z" fill="#e6e6e6"/><path d="M325.99609,616.86914h-.07226l-.23926,1.24414h-2.17676v-16.8916h2.751v4.35449l-.07129,1.96192a5.36,5.36,0,0,1,3.39648-1.46c2.94336,0,4.64258,2.34571,4.64258,5.958,0,4.04395-2.417,6.36426-5.02539,6.36426A4.69453,4.69453,0,0,1,325.99609,616.86914Zm5.38282-4.78516c0-2.34472-.76563-3.73242-2.53614-3.73242a3.75181,3.75181,0,0,0-2.584,1.31641v5.47851a3.6662,3.6662,0,0,0,2.36816.98047C330.18262,616.127,331.37891,614.74023,331.37891,612.084Z" fill="#e6e6e6"/><path d="M336.97852,601.22168h2.70312v10.55176h.07227l4.35351-5.40821h3.01563l-4.01953,4.78516,4.42578,6.96289h-2.99024l-3.01562-5.0957-1.8418,2.10547v2.99023h-2.70312Z" fill="#e6e6e6"/><path d="M458.44727,602.46582h3.13378l2.7754,7.65625c.335.98145.66992,2.03418,1.00488,3.0625h.0957c.335-1.02832.64649-2.08105.98047-3.0625l2.7041-7.65625h3.1582v15.64746h-2.55957V610.959c0-1.459.21485-3.541.3584-4.97656h-.0957l-1.26856,3.63672-2.55957,7.03516h-1.65136l-2.584-7.03516-1.24414-3.63672h-.0957c.12012,1.43555.35937,3.51758.35937,4.97656v7.1543h-2.51171Z" fill="#e6e6e6"/><path d="M475.72168,602.75293a1.70531,1.70531,0,1,1,1.69824,1.55566A1.57977,1.57977,0,0,1,475.72168,602.75293Zm.31152,3.6123h2.751v11.74805h-2.751Z" fill="#e6e6e6"/><path d="M484.62207,611.98828l-3.49316-5.62305h2.96679l1.31641,2.22559c.334.64551.7168,1.33984,1.07617,1.98535h.0957c.28711-.64551.62207-1.33984.90918-1.98535l1.124-2.22559h2.84765l-3.46875,5.9336,3.73243,5.81445h-2.9668l-1.43555-2.32031c-.38281-.69434-.79-1.41211-1.19726-2.082h-.09571c-.334.66992-.69336,1.36328-1.02832,2.082l-1.24414,2.32031h-2.87109Z" fill="#e6e6e6"/><path d="M626.041,616.10352l1.62695-1.89063a6.22475,6.22475,0,0,0,4.06738,1.77149c1.77051,0,2.72754-.79,2.72754-2.00977,0-1.293-1.00488-1.69922-2.416-2.29688l-2.15429-.93359a4.51,4.51,0,0,1-3.15821-4.16309c0-2.48828,2.20118-4.40234,5.26368-4.40234a6.9092,6.9092,0,0,1,4.80957,1.98535l-1.41114,1.77149a5.10062,5.10062,0,0,0-3.39843-1.33985c-1.48243,0-2.46387.69336-2.46387,1.8418,0,1.2207,1.19629,1.6748,2.48828,2.20117l2.12988.88477c1.8418.79,3.15821,1.96289,3.15821,4.23535,0,2.53613-2.10547,4.6416-5.62305,4.6416A8.10769,8.10769,0,0,1,626.041,616.10352Z" fill="#e6e6e6"/><path d="M639.60742,602.75293a1.70531,1.70531,0,1,1,1.69922,1.55566A1.58006,1.58006,0,0,1,639.60742,602.75293Zm.31055,3.6123h2.752v11.74805h-2.752Z" fill="#e6e6e6"/><path d="M645.25391,616.62988l5.55078-8.08691H645.876v-2.17774h8.374v1.46l-5.52734,8.08691h5.71875v2.20117h-9.1875Z" fill="#e6e6e6"/><path d="M655.78125,612.252c0-3.82812,2.65625-6.17383,5.4082-6.17383,3.18164,0,4.85645,2.29688,4.85645,5.5752a6.37211,6.37211,0,0,1-.12012,1.33984h-7.46484a3.36452,3.36452,0,0,0,3.46972,3.27832,4.91155,4.91155,0,0,0,2.72754-.86132l.9336,1.72265a7.42026,7.42026,0,0,1-4.01953,1.26758C658.31836,618.40039,655.78125,616.127,655.78125,612.252Zm7.87207-1.125c0-1.81836-.79-2.91894-2.39258-2.91894-1.38769,0-2.584,1.02832-2.82324,2.91894Z" fill="#e6e6e6"/><path d="M783.79687,610.33789c0-5.12109,3.207-8.15918,7.1543-8.15918a6.20958,6.20958,0,0,1,4.52149,1.98535l-1.48243,1.79492a4.082,4.082,0,0,0-2.96679-1.36328c-2.56055,0-4.37891,2.15235-4.37891,5.66992,0,3.56446,1.67481,5.71876,4.30664,5.71876a4.45735,4.45735,0,0,0,3.34961-1.60352l1.4834,1.74609a6.30833,6.30833,0,0,1-4.92871,2.27344C786.9082,618.40039,783.79687,615.5293,783.79687,610.33789Z" fill="#e6e6e6"/><path d="M797.38672,612.252c0-3.92383,2.65625-6.17383,5.57519-6.17383,2.94239,0,5.59864,2.25,5.59864,6.17383,0,3.89942-2.65625,6.14844-5.59864,6.14844C800.043,618.40039,797.38672,616.15137,797.38672,612.252Zm8.35058,0c0-2.36914-1.05273-3.92383-2.77539-3.92383s-2.751,1.55469-2.751,3.92383c0,2.34375,1.02832,3.89942,2.751,3.89942S805.7373,614.5957,805.7373,612.252Z" fill="#e6e6e6"/><path d="M811.28906,615.09863V601.22168h2.751v14.02051c0,.66992.31152.90918.59863.90918a1.64184,1.64184,0,0,0,.42969-.04785l.35937,2.05761a3.75554,3.75554,0,0,1-1.459.23926C812.00586,618.40039,811.28906,617.13281,811.28906,615.09863Z" fill="#e6e6e6"/><path d="M817.00781,612.252c0-3.92383,2.65528-6.17383,5.57422-6.17383,2.94336,0,5.59863,2.25,5.59863,6.17383,0,3.89942-2.65527,6.14844-5.59863,6.14844C819.66309,618.40039,817.00781,616.15137,817.00781,612.252Zm8.34961,0c0-2.36914-1.05273-3.92383-2.77539-3.92383s-2.752,1.55469-2.752,3.92383c0,2.34375,1.02929,3.89942,2.752,3.89942S825.35742,614.5957,825.35742,612.252Z" fill="#e6e6e6"/><path d="M830.9082,606.36523h2.27344l.19141,2.082h.0957a3.9928,3.9928,0,0,1,3.32617-2.36915,2.98011,2.98011,0,0,1,1.33985.24024l-.47852,2.39258a3.83379,3.83379,0,0,0-1.2207-.19141c-.9336,0-2.05762.64551-2.77539,2.416v7.17773h-2.752Z" fill="#e6e6e6"/><path d="M966.29883,602.46582h3.13379l2.77539,7.65625c.335.98145.66992,2.03418,1.00488,3.0625h.0957c.335-1.02832.64649-2.08105.98047-3.0625l2.7041-7.65625h3.15821v15.64746H977.5918V610.959c0-1.459.21484-3.541.3584-4.97656h-.09571l-1.26855,3.63672-2.55957,7.03516H972.375l-2.584-7.03516-1.24415-3.63672h-.0957c.12012,1.43555.35938,3.51758.35938,4.97656v7.1543h-2.51172Z" fill="#e6e6e6"/><path d="M983.57324,602.75293a1.70531,1.70531,0,1,1,1.69824,1.55566A1.57977,1.57977,0,0,1,983.57324,602.75293Zm.31153,3.6123h2.751v11.74805h-2.751Z" fill="#e6e6e6"/><path d="M992.47363,611.98828l-3.49316-5.62305h2.9668l1.3164,2.22559c.334.64551.7168,1.33984,1.07617,1.98535h.09571c.28711-.64551.62207-1.33984.90918-1.98535l1.124-2.22559h2.84766l-3.46875,5.9336,3.73242,5.81445h-2.9668l-1.43555-2.32031c-.38281-.69434-.79-1.41211-1.19726-2.082h-.0957c-.334.66992-.69336,1.36328-1.02832,2.082l-1.24415,2.32031h-2.87109Z" fill="#e6e6e6"/><path d="M123.50293,778.418a15.15678,15.15678,0,1,1,15.19238,15.19336A15.16844,15.16844,0,0,1,123.50293,778.418Zm7.32129,8.25391h4.6416l.86133-3.63672h4.76074l.86133,3.63672h4.80957L141.63867,769.541h-5.69433Zm9.64258-7.12891-.33594-1.19727c-.4541-1.62695-.86133-3.373-1.21973-5.07226h-.4541c-.33594,1.72265-.69433,3.44531-1.14844,5.07226l-.33593,1.19727Z" fill="#e6e6e6"/><path d="M294.7959,778.418a15.15678,15.15678,0,1,1,15.19238,15.19336A15.16844,15.16844,0,0,1,294.7959,778.418Zm9.23535,8.25391h6.69922c3.68457,0,6.74707-1.53126,6.74707-5.04786a3.91683,3.91683,0,0,0-2.94238-4.01953v-.0957a4.08843,4.08843,0,0,0,2.15234-3.708c0-3.374-2.89453-4.25976-6.4834-4.25976h-6.17285Zm4.52148-10.43165v-3.22949H310.084c1.48438,0,2.17774.43067,2.17774,1.4834s-.69336,1.74609-2.17774,1.74609Zm0,6.96289v-3.63671h1.86719c1.79395,0,2.63086.45507,2.63086,1.72265s-.83691,1.91406-2.63086,1.91406Z" fill="#e6e6e6"/><path d="M459.10449,778.418a15.15678,15.15678,0,1,1,15.19238,15.19336A15.16844,15.16844,0,0,1,459.10449,778.418Zm21.41309,6.05273-2.36817-2.84668a4.27481,4.27481,0,0,1-3.11035,1.46c-2.22461,0-3.709-1.79492-3.709-5.001,0-3.11035,1.74707-4.95215,3.75683-4.95215a4.173,4.173,0,0,1,2.84668,1.26758l2.36914-2.91895a7.665,7.665,0,0,0-5.33593-2.27246c-4.30664,0-8.27735,3.27735-8.27735,9.043,0,5.83789,3.80371,8.75781,8.18164,8.75781A7.2771,7.2771,0,0,0,480.51758,784.4707Z" fill="#e6e6e6"/><path d="M630.874,778.418a15.15678,15.15678,0,1,1,15.19239,15.19336A15.16845,15.16845,0,0,1,630.874,778.418Zm9.92871,8.25391h5.33594c4.95313,0,8.541-2.584,8.541-8.63672,0-6.07715-3.58789-8.49414-8.80469-8.49414h-5.07227Zm4.54688-3.63672v-9.85743h.26269c2.46387,0,4.42676.83789,4.42676,4.85743,0,3.99609-1.96289,5-4.42676,5Z" fill="#e6e6e6"/><path d="M795.20117,778.418a15.1563,15.1563,0,1,1,15.19141,15.19336A15.16823,15.16823,0,0,1,795.20117,778.418Zm9.59375,8.25391H816.4707v-3.44532h-7.13086V779.4707h5.86328v-3.2539h-5.86328v-3.25391H816.207v-3.44531H804.79492Z" fill="#e6e6e6"/><path d="M966.9502,778.418a15.15678,15.15678,0,1,1,15.19238,15.19336A15.16844,15.16844,0,0,1,966.9502,778.418Zm9.833,8.25391h4.54688v-6.72266h5.86133v-3.25391h-5.86133v-3.73242h6.86621v-3.44531H976.7832Z" fill="#e6e6e6"/><path d="M30.13975,231.52348h499.858a4,4,0,0,1,4,4V268.866a0,0,0,0,1,0,0H26.13975a0,0,0,0,1,0,0v-33.3425A4,4,0,0,1,30.13975,231.52348Z" fill="#282828"/><path d="M552.93471,231.52348h499.858a4,4,0,0,1,4,4V268.866a0,0,0,0,1,0,0h-507.858a0,0,0,0,1,0,0v-33.3425A4,4,0,0,1,552.93471,231.52348Z" fill="#282828"/><path d="M30.13975,59.748H1052.79267a4,4,0,0,1,4,4v33.3425a0,0,0,0,1,0,0H26.13975a0,0,0,0,1,0,0V63.748A4,4,0,0,1,30.13975,59.748Z" fill="#282828"/><path d="M30.13975,649.75945H1052.79267a4,4,0,0,1,4,4v33.3425a0,0,0,0,1,0,0H26.13975a0,0,0,0,1,0,0v-33.3425A4,4,0,0,1,30.13975,649.75945Z" fill="#282828"/><path d="M30.13975,477.984h499.858a4,4,0,0,1,4,4v33.3425a0,0,0,0,1,0,0H26.13975a0,0,0,0,1,0,0V481.984A4,4,0,0,1,30.13975,477.984Z" fill="#282828"/><path d="M552.93471,477.984h499.858a4,4,0,0,1,4,4v33.3425a0,0,0,0,1,0,0h-507.858a0,0,0,0,1,0,0V481.984A4,4,0,0,1,552.93471,477.984Z" fill="#282828"/><rect x="93.35624" y="295.00573" width="89.62199" height="37.3425" rx="2" ry="2" stroke="#252525" stroke-miterlimit="10" fill="url(#a)"/><rect x="265.13173" y="295.00573" width="89.62199" height="37.3425" rx="2" ry="2" stroke="#252525" stroke-miterlimit="10" fill="url(#b)"/><rect x="429.43872" y="295.00573" width="89.62199" height="37.3425" rx="2" ry="2" stroke="#252525" stroke-miterlimit="10" fill="url(#c)"/><rect x="601.2142" y="295.00573" width="89.62199" height="37.3425" rx="2" ry="2" stroke="#252525" stroke-miterlimit="10" fill="url(#d)"/><rect x="765.54667" y="295.00573" width="89.62199" height="37.3425" rx="2" ry="2" stroke="#252525" stroke-miterlimit="10" fill="url(#e)"/><rect x="937.29668" y="295.00573" width="89.62199" height="37.3425" rx="2" ry="2" stroke="#252525" stroke-miterlimit="10" fill="url(#f)"/><rect x="93.35624" y="123.23024" width="89.62199" height="37.3425" rx="2" ry="2" stroke="#252525" stroke-miterlimit="10" fill="url(#g)"/><rect x="265.13173" y="123.23024" width="89.62199" height="37.3425" rx="2" ry="2" stroke="#252525" stroke-miterlimit="10" fill="url(#h)"/><rect x="429.43872" y="123.23024" width="89.62199" height="37.3425" rx="2" ry="2" stroke="#252525" stroke-miterlimit="10" fill="url(#i)"/><rect x="601.2142" y="123.23024" width="89.62199" height="37.3425" rx="2" ry="2" stroke="#252525" stroke-miterlimit="10" fill="url(#j)"/><rect x="765.54667" y="123.23024" width="89.62199" height="37.3425" rx="2" ry="2" stroke="#252525" stroke-miterlimit="10" fill="url(#k)"/><rect x="937.29668" y="123.23024" width="89.62199" height="37.3425" rx="2" ry="2" stroke="#252525" stroke-miterlimit="10" fill="url(#l)"/><rect x="93.35624" y="713.2417" width="89.62199" height="37.3425" rx="2" ry="2" stroke="#252525" stroke-miterlimit="10" fill="url(#m)"/><rect x="265.13173" y="713.2417" width="89.62199" height="37.3425" rx="2" ry="2" stroke="#252525" stroke-miterlimit="10" fill="url(#n)"/><rect x="429.43872" y="713.2417" width="89.62199" height="37.3425" rx="2" ry="2" stroke="#252525" stroke-miterlimit="10" fill="url(#o)"/><rect x="601.2142" y="713.2417" width="89.62199" height="37.3425" rx="2" ry="2" stroke="#252525" stroke-miterlimit="10" fill="url(#p)"/><rect x="765.54667" y="713.2417" width="89.62199" height="37.3425" rx="2" ry="2" stroke="#252525" stroke-miterlimit="10" fill="url(#q)"/><rect x="937.29668" y="713.2417" width="89.62199" height="37.3425" rx="2" ry="2" stroke="#252525" stroke-miterlimit="10" fill="url(#r)"/><rect x="93.35624" y="541.46621" width="89.62199" height="37.3425" rx="2" ry="2" stroke="#252525" stroke-miterlimit="10" fill="url(#s)"/><rect x="265.13173" y="541.46621" width="89.62199" height="37.3425" rx="2" ry="2" stroke="#252525" stroke-miterlimit="10" fill="url(#t)"/><rect x="429.43872" y="541.46621" width="89.62199" height="37.3425" rx="2" ry="2" stroke="#252525" stroke-miterlimit="10" fill="url(#u)"/><rect x="601.2142" y="541.46621" width="89.62199" height="37.3425" rx="2" ry="2" stroke="#252525" stroke-miterlimit="10" fill="url(#v)"/><rect x="765.54667" y="541.46621" width="89.62199" height="37.3425" rx="2" ry="2" stroke="#252525" stroke-miterlimit="10" fill="url(#w)"/><rect x="937.29668" y="541.46621" width="89.62199" height="37.3425" rx="2" ry="2" stroke="#252525" stroke-miterlimit="10" fill="url(#x)"/><path d="M241.23242,251.84766c0-5.1211,3.207-8.15918,7.1543-8.15918a6.20954,6.20954,0,0,1,4.52148,1.98535l-1.48242,1.79492a4.082,4.082,0,0,0-2.9668-1.36328c-2.56054,0-4.3789,2.15234-4.3789,5.66992,0,3.56445,1.6748,5.71875,4.30664,5.71875a4.45734,4.45734,0,0,0,3.34961-1.60352l1.4834,1.7461a6.30833,6.30833,0,0,1-4.92871,2.27344C244.34375,259.91016,241.23242,257.03906,241.23242,251.84766Z" fill="#bfcaff"/><path d="M254.9668,256.46484c0-2.51172,2.081-3.82812,6.91406-4.35449-.04785-1.24414-.55078-2.29687-2.15332-2.29687a6.69322,6.69322,0,0,0-3.30176,1.14843l-1.00488-1.84277a9.198,9.198,0,0,1,4.833-1.53125c2.91894,0,4.3789,1.79492,4.3789,5.07227v6.96289h-2.27344l-.1914-1.292h-.0957a5.7166,5.7166,0,0,1-3.63672,1.57911A3.28367,3.28367,0,0,1,254.9668,256.46484Zm6.91406,0V253.833c-3.20606.40722-4.25879,1.24414-4.25879,2.417,0,1.05273.71777,1.50684,1.69824,1.50684A3.73485,3.73485,0,0,0,261.88086,256.46484Z" fill="#bfcaff"/><path d="M270.42187,258.37891h-.07128l-.23926,1.24414h-2.17774v-16.8916h2.752v4.35449l-.07227,1.96191a5.36269,5.36269,0,0,1,3.39844-1.46c2.94238,0,4.64062,2.3457,4.64062,5.958,0,4.04394-2.416,6.36426-5.02343,6.36426A4.69871,4.69871,0,0,1,270.42187,258.37891Zm5.38379-4.78516c0-2.34473-.76562-3.73242-2.53613-3.73242a3.75177,3.75177,0,0,0-2.584,1.3164v5.47852a3.66847,3.66847,0,0,0,2.36914.98047C274.60937,257.63672,275.80566,256.25,275.80566,253.59375Z" fill="#bfcaff"/><path d="M281.09375,244.2627a1.70531,1.70531,0,1,1,1.69922,1.55566A1.58007,1.58007,0,0,1,281.09375,244.2627Zm.31055,3.6123h2.752v11.748h-2.752Z" fill="#bfcaff"/><path d="M287.67383,247.875h2.27246l.19141,1.58008h.0957a5.456,5.456,0,0,1,3.85254-1.86719c2.51172,0,3.6123,1.69922,3.6123,4.666v7.36914h-2.751v-7.00977c0-1.93848-.55079-2.65625-1.84278-2.65625-1.02832,0-1.69824.50195-2.67969,1.459v8.207h-2.751Z" fill="#bfcaff"/><path d="M300.30664,253.76172c0-3.82813,2.65625-6.17383,5.4082-6.17383,3.18164,0,4.85645,2.29688,4.85645,5.5752a6.37218,6.37218,0,0,1-.12012,1.33984h-7.46484a3.36453,3.36453,0,0,0,3.46972,3.27832,4.91146,4.91146,0,0,0,2.72754-.86133l.9336,1.72266a7.42026,7.42026,0,0,1-4.01953,1.26758C302.84375,259.91016,300.30664,257.63672,300.30664,253.76172Zm7.87207-1.125c0-1.81836-.79-2.91895-2.39258-2.91895-1.38769,0-2.584,1.02832-2.82324,2.91895Z" fill="#bfcaff"/><path d="M313.37012,255.65137v-5.59864h-1.67481v-2.05761l1.81836-.12012.335-3.20508h2.29688V247.875h2.99121v2.17773h-2.99121v5.59864c0,1.38769.52636,2.05761,1.65136,2.05761a3.348,3.348,0,0,0,1.21973-.26367l.47852,2.03418a7.49013,7.49013,0,0,1-2.39258.43067C314.375,259.91016,313.37012,258.1875,313.37012,255.65137Z" fill="#bfcaff"/><path d="M754.09375,251.84766c0-5.1211,3.22949-8.15918,7.39258-8.15918a6.44652,6.44652,0,0,1,4.7373,1.98535l-1.4834,1.79492a4.23718,4.23718,0,0,0-3.1582-1.36328c-2.77539,0-4.6416,2.15234-4.6416,5.66992,0,3.56445,1.65137,5.71875,4.78516,5.71875a3.46051,3.46051,0,0,0,2.249-.69434v-3.374h-2.9668v-2.27246h5.45508V258.044a7.17092,7.17092,0,0,1-5,1.86621C757.22754,259.91016,754.09375,257.03906,754.09375,251.84766Z" fill="#bfcaff"/><path d="M769.07031,256.46484c0-2.51172,2.082-3.82812,6.915-4.35449-.04785-1.24414-.5498-2.29687-2.15332-2.29687a6.69322,6.69322,0,0,0-3.30176,1.14843l-1.00488-1.84277a9.198,9.198,0,0,1,4.833-1.53125c2.91894,0,4.37793,1.79492,4.37793,5.07227v6.96289h-2.27246l-.19141-1.292h-.0957a5.7166,5.7166,0,0,1-3.63672,1.57911A3.28445,3.28445,0,0,1,769.07031,256.46484Zm6.915,0V253.833c-3.20605.40722-4.25879,1.24414-4.25879,2.417,0,1.05273.71778,1.50684,1.69922,1.50684A3.73471,3.73471,0,0,0,775.98535,256.46484Z" fill="#bfcaff"/><path d="M782.03906,247.875h2.27344l.19141,1.24414h.0957a5.72982,5.72982,0,0,1,3.541-1.53125c2.91895,0,4.61719,2.3457,4.61719,5.98242,0,4.01953-2.416,6.33985-5.02344,6.33985a4.7531,4.7531,0,0,1-3.01562-1.292l.07227,1.96192v3.68457h-2.752Zm7.87207,5.71875c0-2.34473-.76562-3.73242-2.53613-3.73242a3.75177,3.75177,0,0,0-2.584,1.3164v5.47852a3.71452,3.71452,0,0,0,2.36914.98047C788.71484,257.63672,789.91113,256.25,789.91113,253.59375Z" fill="#bfcaff"/><path d="M800.55859,243.97559h9.4502v2.34472H803.334v4.42578h5.69336v2.34571H803.334v6.53125h-2.77539Z" fill="#bfcaff"/><path d="M812.21,244.2627a1.70531,1.70531,0,1,1,1.69824,1.55566A1.57977,1.57977,0,0,1,812.21,244.2627Zm.31152,3.6123h2.751v11.748h-2.751Z" fill="#bfcaff"/><path d="M818.78906,256.6084v-13.877h2.752V256.752c0,.66993.31054.90918.59765.90918a1.65478,1.65478,0,0,0,.43164-.04785l.3584,2.05762a3.75773,3.75773,0,0,1-1.46.23926C819.50781,259.91016,818.78906,258.64258,818.78906,256.6084Z" fill="#bfcaff"/><path d="M825.68066,255.65137v-5.59864h-1.6748v-2.05761l1.81836-.12012.335-3.20508h2.29687V247.875h2.99122v2.17773h-2.99122v5.59864c0,1.38769.52637,2.05761,1.65137,2.05761a3.348,3.348,0,0,0,1.21973-.26367l.47851,2.03418a7.49006,7.49006,0,0,1-2.39257.43067C826.68555,259.91016,825.68066,258.1875,825.68066,255.65137Z" fill="#bfcaff"/><path d="M832.76367,253.76172c0-3.82813,2.65528-6.17383,5.40625-6.17383,3.18262,0,4.85742,2.29688,4.85742,5.5752a6.44983,6.44983,0,0,1-.11914,1.33984h-7.46484a3.36194,3.36194,0,0,0,3.46875,3.27832,4.91151,4.91151,0,0,0,2.72754-.86133l.93262,1.72266a7.41246,7.41246,0,0,1-4.01954,1.26758C835.29883,259.91016,832.76367,257.63672,832.76367,253.76172Zm7.8711-1.125c0-1.81836-.78907-2.91895-2.39258-2.91895-1.3877,0-2.584,1.02832-2.82324,2.91895Z" fill="#bfcaff"/><path d="M845.6582,247.875h2.27344l.19141,2.082h.0957a3.99278,3.99278,0,0,1,3.32617-2.36914,2.98026,2.98026,0,0,1,1.33985.24023l-.47852,2.39258a3.83408,3.83408,0,0,0-1.2207-.1914c-.9336,0-2.05762.6455-2.77539,2.416v7.17774h-2.752Z" fill="#bfcaff"/><path d="M504.63867,72.2002h9.45117v2.34472h-6.67578V78.9707h5.69531v2.34571h-5.69531v6.53125h-2.77539Z" fill="#bfcaff"/><path d="M516.60156,84.833v-13.877h2.752V84.97656c0,.66992.31054.90918.59765.90918a1.65478,1.65478,0,0,0,.43164-.04785l.3584,2.05762a3.75773,3.75773,0,0,1-1.46.23926C517.32031,88.13477,516.60156,86.86719,516.60156,84.833Z" fill="#bfcaff"/><path d="M522.46484,84.68945c0-2.51172,2.08106-3.82812,6.91407-4.35449-.04786-1.24414-.55079-2.29687-2.15332-2.29687a6.69319,6.69319,0,0,0-3.30176,1.14843L522.919,77.34375a9.198,9.198,0,0,1,4.833-1.53125c2.91895,0,4.37891,1.79492,4.37891,5.07227v6.96289h-2.27344l-.1914-1.292h-.09571a5.71655,5.71655,0,0,1-3.63672,1.57911A3.28367,3.28367,0,0,1,522.46484,84.68945Zm6.91407,0V82.05762c-3.20606.40722-4.25879,1.24414-4.25879,2.417,0,1.05273.71777,1.50684,1.69824,1.50684A3.73485,3.73485,0,0,0,529.37891,84.68945Z" fill="#bfcaff"/><path d="M535.43164,76.09961h2.27344l.1914,1.58008h.09571a5.45567,5.45567,0,0,1,3.85156-1.86719c2.5127,0,3.61328,1.69922,3.61328,4.666v7.36914h-2.752V80.83789c0-1.93848-.54981-2.65625-1.8418-2.65625-1.0293,0-1.69922.50195-2.67969,1.459v8.207h-2.75195Z" fill="#bfcaff"/><path d="M548.042,89.97656a3.02809,3.02809,0,0,1,1.67481-2.51172v-.0957a2.2099,2.2099,0,0,1-1.05274-1.96191,2.83261,2.83261,0,0,1,1.292-2.17676v-.0957a3.96738,3.96738,0,0,1-1.53125-3.11133c0-2.70313,2.17676-4.21094,4.64161-4.21094a5.3036,5.3036,0,0,1,1.72265.28711H559v2.03418h-2.15332a3.13813,3.13813,0,0,1,.66992,1.98535c0,2.6084-1.96191,3.99609-4.45019,3.99609a4.34946,4.34946,0,0,1-1.60352-.31054,1.35034,1.35034,0,0,0-.57422,1.124c0,.66992.47852,1.07715,1.91406,1.07715h2.082c2.82324,0,4.30664.86133,4.30664,2.89453,0,2.32031-2.44043,4.13867-6.26856,4.13867C550.12305,93.03906,548.042,92.03516,548.042,89.97656Zm8.49317-.62109c0-.91016-.74121-1.17285-2.08106-1.17285h-1.60254a6.24616,6.24616,0,0,1-1.60351-.167,1.97449,1.97449,0,0,0-.90918,1.55469c0,1.05274,1.14843,1.67481,3.01465,1.67481C555.24414,91.24512,556.53516,90.35938,556.53516,89.35547Zm-1.43555-9.332a2.0617,2.0617,0,1,0-4.09082,0,2.06753,2.06753,0,1,0,4.09082,0Z" fill="#bfcaff"/><path d="M560.125,81.98633c0-3.82813,2.65527-6.17383,5.40625-6.17383,3.18262,0,4.85742,2.29688,4.85742,5.5752a6.44983,6.44983,0,0,1-.11914,1.33984h-7.46484a3.36194,3.36194,0,0,0,3.46875,3.27832,4.91151,4.91151,0,0,0,2.72754-.86133l.93261,1.72266a7.4124,7.4124,0,0,1-4.01953,1.26758C562.66016,88.13477,560.125,85.86133,560.125,81.98633Zm7.87109-1.125c0-1.81836-.78906-2.91895-2.39257-2.91895-1.3877,0-2.584,1.02832-2.82325,2.91895Z" fill="#bfcaff"/><path d="M573.02148,76.09961H575.294l.1914,2.082h.0957a3.99028,3.99028,0,0,1,3.3252-2.36914,2.97468,2.97468,0,0,1,1.33984.24023l-.47851,2.39258a3.81891,3.81891,0,0,0-1.21973-.1914c-.93262,0-2.05762.6455-2.77539,2.416v7.17774h-2.751Z" fill="#bfcaff"/><path d="M465.751,662.21191h3.13476l2.77539,7.65625c.335.98145.66992,2.03418,1.00489,3.0625h.0957c.335-1.02832.64551-2.08105.98144-3.0625l2.70313-7.65625h3.1582v15.64747H477.044v-7.1543c0-1.459.21582-3.541.35937-4.97656h-.0957L476.04,669.36523l-2.56055,7.03516H471.8291l-2.584-7.03516-1.24414-3.63671h-.09571c.11914,1.43554.3584,3.51757.3584,4.97656v7.1543H465.751Z" fill="#ced2d9"/><path d="M482.71582,674.70117c0-2.51172,2.08105-3.82812,6.91406-4.35449-.04785-1.24414-.55078-2.29688-2.15332-2.29688a6.69324,6.69324,0,0,0-3.30176,1.14844l-1.00488-1.84277a9.198,9.198,0,0,1,4.833-1.53125c2.91894,0,4.37891,1.79492,4.37891,5.07226v6.9629H490.1084l-.19141-1.292h-.0957a5.71662,5.71662,0,0,1-3.63672,1.5791A3.28366,3.28366,0,0,1,482.71582,674.70117Zm6.91406,0v-2.63183c-3.20605.40722-4.25879,1.24414-4.25879,2.417,0,1.05273.71778,1.50683,1.69825,1.50683A3.7348,3.7348,0,0,0,489.62988,674.70117Z" fill="#ced2d9"/><path d="M494.917,671.99805a5.79563,5.79563,0,0,1,5.88672-6.17383,5.06051,5.06051,0,0,1,3.44531,1.3164l-1.33984,1.79493a2.87306,2.87306,0,0,0-1.96289-.86133c-1.88965,0-3.20508,1.55469-3.20508,3.92383,0,2.34375,1.291,3.89941,3.13379,3.89941a3.9163,3.9163,0,0,0,2.417-1.00488l1.124,1.81836a5.86642,5.86642,0,0,1-3.82813,1.43554C497.38184,678.14648,494.917,675.89746,494.917,671.99805Z" fill="#ced2d9"/><path d="M506.7373,666.11133h2.27247l.1914,2.082h.0957a3.99028,3.99028,0,0,1,3.3252-2.36914,2.97455,2.97455,0,0,1,1.33984.24023l-.47851,2.39258a3.81862,3.81862,0,0,0-1.21973-.19141c-.93262,0-2.05762.64551-2.77539,2.416v7.17774h-2.751Z" fill="#ced2d9"/><path d="M514.65723,671.99805c0-3.92383,2.65527-6.17383,5.57422-6.17383,2.94335,0,5.59863,2.25,5.59863,6.17383,0,3.89941-2.65528,6.14843-5.59863,6.14843C517.3125,678.14648,514.65723,675.89746,514.65723,671.99805Zm8.34961,0c0-2.36914-1.05274-3.92383-2.77539-3.92383s-2.752,1.55469-2.752,3.92383c0,2.34375,1.0293,3.89941,2.752,3.89941S523.00684,674.3418,523.00684,671.99805Z" fill="#ced2d9"/><path d="M532.76855,670.084c0-5.12109,3.207-8.15918,7.1543-8.15918a6.20955,6.20955,0,0,1,4.52149,1.98536l-1.48243,1.79492a4.082,4.082,0,0,0-2.96679-1.36328c-2.56055,0-4.37891,2.15234-4.37891,5.66992,0,3.56445,1.67481,5.71875,4.30664,5.71875a4.45735,4.45735,0,0,0,3.34961-1.60352l1.4834,1.7461a6.30832,6.30832,0,0,1-4.92871,2.27343C535.87988,678.14648,532.76855,675.27539,532.76855,670.084Z" fill="#ced2d9"/><path d="M546.3584,671.99805c0-3.92383,2.65625-6.17383,5.57519-6.17383,2.94239,0,5.59864,2.25,5.59864,6.17383,0,3.89941-2.65625,6.14843-5.59864,6.14843C549.01465,678.14648,546.3584,675.89746,546.3584,671.99805Zm8.35058,0c0-2.36914-1.05273-3.92383-2.77539-3.92383s-2.751,1.55469-2.751,3.92383c0,2.34375,1.02832,3.89941,2.751,3.89941S554.709,674.3418,554.709,671.99805Z" fill="#ced2d9"/><path d="M560.26074,666.11133h2.27246l.19141,1.58008h.0957a5.456,5.456,0,0,1,3.85254-1.86719c2.51172,0,3.61231,1.69922,3.61231,4.666v7.36915h-2.751v-7.00977c0-1.93848-.55078-2.65625-1.84277-2.65625-1.02832,0-1.69825.50195-2.67969,1.459v8.207h-2.751Z" fill="#ced2d9"/><path d="M574.06543,673.8877v-5.59864h-1.67481v-2.05761l1.81836-.12012.335-3.20508h2.29687v3.20508h2.99023v2.17773h-2.99023v5.59864c0,1.38769.52637,2.05761,1.65039,2.05761a3.34871,3.34871,0,0,0,1.2207-.26367l.47852,2.03418a7.49009,7.49009,0,0,1-2.39258.43066C575.07031,678.14648,574.06543,676.42383,574.06543,673.8877Z" fill="#ced2d9"/><path d="M582.2959,666.11133h2.27344l.1914,2.082h.09571a3.99278,3.99278,0,0,1,3.32617-2.36914,2.98007,2.98007,0,0,1,1.33984.24023L589.044,668.457a3.83381,3.83381,0,0,0-1.22071-.19141c-.93359,0-2.05762.64551-2.77539,2.416v7.17774h-2.752Z" fill="#ced2d9"/><path d="M590.21582,671.99805c0-3.92383,2.65625-6.17383,5.5752-6.17383,2.94238,0,5.59863,2.25,5.59863,6.17383,0,3.89941-2.65625,6.14843-5.59863,6.14843C592.87207,678.14648,590.21582,675.89746,590.21582,671.99805Zm8.35059,0c0-2.36914-1.05274-3.92383-2.77539-3.92383s-2.751,1.55469-2.751,3.92383c0,2.34375,1.02832,3.89941,2.751,3.89941S598.56641,674.3418,598.56641,671.99805Z" fill="#ced2d9"/><path d="M604.11621,674.84473v-13.877h2.75195v14.02051c0,.66992.31055.90918.59766.90918a1.65478,1.65478,0,0,0,.43164-.04785l.3584,2.05762a3.75776,3.75776,0,0,1-1.46.23925C604.835,678.14648,604.11621,676.87891,604.11621,674.84473Z" fill="#ced2d9"/><path d="M609.42871,676.51953l1.292-1.77051a5.22694,5.22694,0,0,0,3.25391,1.31543c1.26855,0,1.86621-.59765,1.86621-1.41113,0-.98144-1.26758-1.41113-2.51172-1.88965-1.55566-.57422-3.30273-1.46-3.30273-3.42187,0-2.05762,1.65136-3.51758,4.2832-3.51758a6.341,6.341,0,0,1,3.90039,1.41211l-1.26855,1.6748a4.372,4.372,0,0,0-2.584-1.00488c-1.17285,0-1.72265.55078-1.72265,1.292,0,.93262,1.17285,1.292,2.44043,1.74707,1.60351.59766,3.373,1.36328,3.373,3.56446,0,2.00976-1.60254,3.63671-4.56933,3.63671A7.43813,7.43813,0,0,1,609.42871,676.51953Z" fill="#ced2d9"/><path d="M256.97656,490.43457h9.42774v2.34473H259.752v3.99609h5.623v2.34375h-5.623v4.61816h6.89063V506.082h-9.666Z" fill="#bfcaff"/><path d="M268.60547,500.2207a5.79468,5.79468,0,0,1,5.88476-6.17382,5.05861,5.05861,0,0,1,3.44532,1.3164l-1.33985,1.79492a2.86676,2.86676,0,0,0-1.96093-.86132c-1.89063,0-3.207,1.55468-3.207,3.92382,0,2.34375,1.293,3.89942,3.13477,3.89942a3.91366,3.91366,0,0,0,2.416-1.00489l1.125,1.81836a5.86644,5.86644,0,0,1-3.82813,1.43555C271.06934,506.36914,268.60547,504.12012,268.60547,500.2207Z" fill="#bfcaff"/><path d="M280.42578,489.19043h2.751v4.35449l-.09571,2.27344a5.38588,5.38588,0,0,1,3.75684-1.77148c2.51172,0,3.61231,1.69921,3.61231,4.666V506.082h-2.751v-7.00976c0-1.93848-.55078-2.65625-1.84277-2.65625-1.02833,0-1.69825.502-2.67969,1.459v8.207h-2.751Z" fill="#bfcaff"/><path d="M293.00977,500.2207c0-3.92382,2.65625-6.17382,5.57519-6.17382,2.94238,0,5.59863,2.25,5.59863,6.17382,0,3.89942-2.65625,6.14844-5.59863,6.14844C295.666,506.36914,293.00977,504.12012,293.00977,500.2207Zm8.35058,0c0-2.36914-1.05273-3.92382-2.77539-3.92382s-2.751,1.55468-2.751,3.92382c0,2.34375,1.02832,3.89942,2.751,3.89942S301.36035,502.56445,301.36035,500.2207Z" fill="#bfcaff"/><path d="M768.7207,490.43457h5.28711c3.25391,0,5.74219,1.14844,5.74219,4.6416a4.38044,4.38044,0,0,1-3.11035,4.47461l3.73242,6.53125h-3.11035l-3.373-6.125h-2.39258v6.125H768.7207Zm5,7.32129c2.12891,0,3.30176-.90918,3.30176-2.67969,0-1.79492-1.17285-2.416-3.30176-2.416h-2.22461v5.0957Z" fill="#bfcaff"/><path d="M781.64062,500.2207c0-3.82812,2.65625-6.17382,5.40821-6.17382,3.18164,0,4.85644,2.29687,4.85644,5.57519a6.37289,6.37289,0,0,1-.12011,1.33984h-7.46485a3.36453,3.36453,0,0,0,3.46973,3.27832,4.91158,4.91158,0,0,0,2.72754-.86132l.93359,1.72265a7.42026,7.42026,0,0,1-4.01953,1.26758C784.17773,506.36914,781.64062,504.0957,781.64062,500.2207Zm7.87208-1.125c0-1.81836-.79-2.91894-2.39258-2.91894-1.3877,0-2.584,1.02832-2.82325,2.91894Z" fill="#bfcaff"/><path d="M793.07715,494.334h2.7998l1.86524,6.10157c.31152,1.14843.66992,2.34472.98144,3.541h.09571c.335-1.19629.66992-2.39258,1.00488-3.541l1.86621-6.10157h2.65527l-3.99511,11.748H797.168Z" fill="#bfcaff"/><path d="M805.4707,500.2207c0-3.82812,2.65625-6.17382,5.40821-6.17382,3.18164,0,4.85644,2.29687,4.85644,5.57519a6.37211,6.37211,0,0,1-.12012,1.33984h-7.46484a3.36452,3.36452,0,0,0,3.46973,3.27832,4.91158,4.91158,0,0,0,2.72754-.86132l.93359,1.72265a7.42026,7.42026,0,0,1-4.01953,1.26758C808.00781,506.36914,805.4707,504.0957,805.4707,500.2207Zm7.87207-1.125c0-1.81836-.79-2.91894-2.39257-2.91894-1.3877,0-2.584,1.02832-2.82325,2.91894Z" fill="#bfcaff"/><path d="M818.36719,494.334h2.27343l.19141,2.082h.0957a3.9928,3.9928,0,0,1,3.32618-2.36914,2.9801,2.9801,0,0,1,1.33984.24023l-.47852,2.39258a3.83374,3.83374,0,0,0-1.2207-.19141c-.93359,0-2.05762.64551-2.77539,2.416V506.082h-2.75195Z" fill="#bfcaff"/><path d="M829.7793,504.83789H829.708l-.23926,1.24414H827.291v-16.8916H830.043v4.35449l-.07227,1.96192a5.36269,5.36269,0,0,1,3.39844-1.46c2.94238,0,4.64063,2.3457,4.64063,5.958,0,4.04395-2.416,6.36426-5.02344,6.36426A4.69867,4.69867,0,0,1,829.7793,504.83789Zm5.38379-4.78516c0-2.34472-.76563-3.73242-2.53614-3.73242a3.75179,3.75179,0,0,0-2.584,1.31641v5.47851a3.66842,3.66842,0,0,0,2.36914.98047C833.9668,504.0957,835.16309,502.709,835.16309,500.05273Z" fill="#bfcaff"/></svg>