<svg xmlns="http://www.w3.org/2000/svg" width="38" height="38" viewBox="0 0 38 38">
  <defs>
    <style>
      .a {
        fill: #76839c;
      }

      .b {
        fill: #1a1a1a;
      }

      .c {
        fill: #e6e6e6;
      }
    </style>
  </defs>
  <title>Select_Active</title>
  <g>
    <rect class="a" x="0.5" y="0.5" width="37" height="37" rx="3.5" ry="3.5"/>
    <path class="b" d="M34,1a3.00338,3.00338,0,0,1,3,3V34a3.00338,3.00338,0,0,1-3,3H4a3.00337,3.00337,0,0,1-3-3V4A3.00337,3.00337,0,0,1,4,1H34m0-1H4A4.01175,4.01175,0,0,0,0,4V34a4.01175,4.01175,0,0,0,4,4H34a4.01175,4.01175,0,0,0,4-4V4a4.01175,4.01175,0,0,0-4-4Z"/>
  </g>
  <g>
    <path class="c" d="M7.21768,23.91236l1.29588-1.53053A4.58538,4.58538,0,0,0,11.50224,23.675c1.30092,0,2.00391-.57732,2.00391-1.46788,0-.94378-.73834-1.241-1.77564-1.67772l-1.63171-.78173A3.39905,3.39905,0,0,1,7.82775,16.8065a3.55758,3.55758,0,0,1,3.86842-3.4215,5.36045,5.36045,0,0,1,3.58309,1.60643L14.192,16.33461a3.99136,3.99136,0,0,0-2.49579-1.18454,1.753,1.753,0,0,0-1.91441,1.552c0,.89057.98215,1.37571,1.93158,1.76025l1.56454.64378c1.35344.57731,2.42105,1.3533,2.42105,2.89339,0,1.85241-1.64737,3.44057-4.232,3.44057A6.08807,6.08807,0,0,1,7.21768,23.91236Z"/>
    <path class="c" d="M16.85935,21.00451c0-2.76108,2.0488-4.75447,4.064-4.75447,2.33138,0,3.76526,1.90968,3.76526,4.2732a4.04607,4.04607,0,0,1-.08761.91511h-5.6757a2.58169,2.58169,0,0,0,2.54187,2.51755,3.9281,3.9281,0,0,0,2.10117-.57161l.93114,1.45678a6.62715,6.62715,0,0,1-3.29516.649A4.23587,4.23587,0,0,1,16.85935,21.00451Zm5.97278-.80946a2.11845,2.11845,0,0,0-1.95544-2.35856A2.09488,2.09488,0,0,0,18.90815,20.195Z"/>
    <path class="c" d="M26.73448,23.14437V13.435h1.9541v9.81093c-.05.47657.17168.64649.37578.64649a4.88606,4.88606,0,0,0,.73715-.17253l.4492,1.55654a6.39165,6.39165,0,0,1-1.61291.21364C27.24425,25.49007,26.73448,24.58871,26.73448,23.14437Z"/>
  </g>
</svg>
