<svg xmlns="http://www.w3.org/2000/svg" viewBox="0 0 760 660"><title>allpass-phase-response</title><rect x="0.5" y="0.5" width="759" height="659" rx="3.5" ry="3.5" fill="#141414"/><path d="M756,1a3.00344,3.00344,0,0,1,3,3V656a3.00342,3.00342,0,0,1-3,3H4a3.00333,3.00333,0,0,1-3-3V4A3.00336,3.00336,0,0,1,4,1H756m0-1H4A4,4,0,0,0,0,4V656a4,4,0,0,0,4,4H756a4,4,0,0,0,4-4V4a4,4,0,0,0-4-4Z" fill="#666"/><rect x="10" y="40" width="740" height="280"/><rect x="10" y="370" width="740" height="280"/><line x1="620.00004" y1="40" x2="620.00004" y2="320" fill="none" stroke="#202020"/><line x1="660" y1="40" x2="660" y2="320" fill="none" stroke="#202020"/><line x1="700" y1="40" x2="700" y2="320" fill="none" stroke="#202020"/><line x1="740" y1="40" x2="740" y2="320" fill="none" stroke="#202020"/><line x1="580.00004" y1="40" x2="580.00004" y2="320" fill="none" stroke="#202020"/><line x1="540.00004" y1="40" x2="540.00004" y2="320" fill="none" stroke="#202020"/><line x1="500.00004" y1="40" x2="500.00004" y2="320" fill="none" stroke="#202020"/><line x1="460.00004" y1="40" x2="460.00004" y2="320" fill="none" stroke="#202020"/><line x1="420.00004" y1="40" x2="420.00004" y2="320" fill="none" stroke="#202020"/><line x1="380.00004" y1="40" x2="380.00004" y2="320" fill="none" stroke="#202020"/><line x1="340.00004" y1="40" x2="340.00004" y2="320" fill="none" stroke="#202020"/><line x1="300.00004" y1="40" x2="300.00004" y2="320" fill="none" stroke="#202020"/><line x1="260.00004" y1="40" x2="260.00004" y2="320" fill="none" stroke="#202020"/><line x1="220.00004" y1="40" x2="220.00004" y2="320" fill="none" stroke="#202020"/><line x1="180.00004" y1="40" x2="180.00004" y2="320" fill="none" stroke="#202020"/><line x1="140.00004" y1="40" x2="140.00004" y2="320" fill="none" stroke="#202020"/><line x1="100" y1="40" x2="100" y2="320" fill="none" stroke="#202020"/><line x1="60" y1="40" x2="60" y2="320" fill="none" stroke="#202020"/><line x1="20" y1="40" x2="20" y2="320" fill="none" stroke="#202020"/><line x1="749.99986" y1="280.00035" x2="10.00002" y2="280.00035" fill="none" stroke="#202020"/><line x1="749.99986" y1="240.00035" x2="10.00002" y2="240.00035" fill="none" stroke="#202020"/><line x1="749.99986" y1="200.00035" x2="10.00002" y2="200.00035" fill="none" stroke="#202020"/><line x1="749.99986" y1="160.00035" x2="10.00002" y2="160.00035" fill="none" stroke="#202020"/><line x1="749.99986" y1="120.00035" x2="10.00002" y2="120.00035" fill="none" stroke="#202020"/><line x1="749.99986" y1="80.00035" x2="10.00002" y2="80.00035" fill="none" stroke="#202020"/><line x1="620.00004" y1="370.00068" x2="620.00004" y2="650.00068" fill="none" stroke="#202020"/><line x1="660" y1="370.00068" x2="660" y2="650.00068" fill="none" stroke="#202020"/><line x1="700" y1="370.00068" x2="700" y2="650.00068" fill="none" stroke="#202020"/><line x1="740" y1="370.00068" x2="740" y2="650.00068" fill="none" stroke="#202020"/><line x1="580.00004" y1="370.00068" x2="580.00004" y2="650.00068" fill="none" stroke="#202020"/><line x1="540.00004" y1="370.00068" x2="540.00004" y2="650.00068" fill="none" stroke="#202020"/><line x1="500.00004" y1="370.00068" x2="500.00004" y2="650.00068" fill="none" stroke="#202020"/><line x1="460.00004" y1="370.00068" x2="460.00004" y2="650.00068" fill="none" stroke="#202020"/><line x1="420.00004" y1="370.00068" x2="420.00004" y2="650.00068" fill="none" stroke="#202020"/><line x1="380.00004" y1="370.00068" x2="380.00004" y2="650.00068" fill="none" stroke="#202020"/><line x1="340.00004" y1="370.00068" x2="340.00004" y2="650.00068" fill="none" stroke="#202020"/><line x1="300.00004" y1="370.00068" x2="300.00004" y2="650.00068" fill="none" stroke="#202020"/><line x1="260.00004" y1="370.00068" x2="260.00004" y2="650.00068" fill="none" stroke="#202020"/><line x1="220.00004" y1="370.00068" x2="220.00004" y2="650.00068" fill="none" stroke="#202020"/><line x1="180.00004" y1="370.00068" x2="180.00004" y2="650.00068" fill="none" stroke="#202020"/><line x1="140.00004" y1="370.00068" x2="140.00004" y2="650.00068" fill="none" stroke="#202020"/><line x1="100" y1="370.00068" x2="100" y2="650.00068" fill="none" stroke="#202020"/><line x1="60" y1="370.00068" x2="60" y2="650.00068" fill="none" stroke="#202020"/><line x1="20" y1="370.00068" x2="20" y2="650.00068" fill="none" stroke="#202020"/><line x1="749.99996" y1="610.00104" x2="10.00004" y2="610.00104" fill="none" stroke="#202020"/><line x1="749.99996" y1="570.00104" x2="10.00004" y2="570.00104" fill="none" stroke="#202020"/><line x1="749.99996" y1="530.00104" x2="10.00004" y2="530.00104" fill="none" stroke="#202020"/><line x1="749.99996" y1="490.00104" x2="10.00004" y2="490.00104" fill="none" stroke="#202020"/><line x1="749.99996" y1="450.00104" x2="10.00004" y2="450.00104" fill="none" stroke="#202020"/><line x1="749.99996" y1="410.00104" x2="10.00004" y2="410.00104" fill="none" stroke="#202020"/><rect x="10" y="10" width="740" height="30" fill="#363636"/><rect x="10" y="340.00068" width="740" height="30" fill="#363636"/><path d="M363.56836,19.18994h1.69238l3.99756,11.81152h-1.60254l-1.11621-3.60058h-4.30371l-1.13428,3.60058h-1.53027Zm-.9541,7.00391h3.54687l-.5581-1.80078c-.43213-1.31446-.81006-2.61036-1.18848-3.97852h-.07178c-.36035,1.36816-.73828,2.66406-1.17041,3.97852Z" fill="#cacaca"/><path d="M370.92969,19.18994h3.3667c2.647,0,4.4292.88184,4.4292,3.47461,0,2.48535-1.76416,3.65527-4.35694,3.65527h-1.94482v4.68164h-1.49414Zm3.25879,5.90625c2.05273,0,3.043-.75683,3.043-2.43164,0-1.71-1.04444-2.26855-3.11524-2.26855h-1.69238v4.70019Z" fill="#cacaca"/><path d="M387.166,20.45068h-3.565V19.18994h8.64258v1.26074h-3.56494V31.00146H387.166Z" fill="#cacaca"/><path d="M393.26709,27.79639v-5.5459h1.49463v5.34765c0,1.63868.48633,2.34082,1.63867,2.34082.8999,0,1.53027-.45019,2.3584-1.47656V22.25049h1.47656v8.751h-1.22412l-.12646-1.36816h-.05372a3.69977,3.69977,0,0,1-2.88085,1.584C394.0957,31.21729,393.26709,30.02881,393.26709,27.79639Z" fill="#cacaca"/><path d="M403.18555,22.25049h1.22412l.126,1.26074h.0542a4.1252,4.1252,0,0,1,2.93506-1.47656c1.83643,0,2.66455,1.18847,2.66455,3.4209v5.54589h-1.47656V25.65381c0-1.63867-.50391-2.34082-1.65625-2.34082-.90039,0-1.51269.46875-2.395,1.35058v6.33789h-1.47607Z" fill="#cacaca"/><path d="M412.38281,26.644c0-2.8623,1.92676-4.60937,3.9253-4.60937,2.23291,0,3.49316,1.60254,3.49316,4.10547a5.70028,5.70028,0,0,1-.0542.8457h-5.90576a2.90261,2.90261,0,0,0,2.917,3.043,3.95524,3.95524,0,0,0,2.17871-.6836l.522.97168a5.2096,5.2096,0,0,1-2.88086.9004C414.2373,31.21729,412.38281,29.50732,412.38281,26.644Zm6.12207-.71972c0-1.76465-.79248-2.71875-2.16064-2.71875a2.70271,2.70271,0,0,0-2.521,2.71875Z" fill="#cacaca"/><path d="M359.19482,349.19043h1.69239l3.99707,11.81152h-1.60254l-1.11621-3.60058H357.8623L356.728,361.002h-1.53076Zm-.95459,7.00391h3.54737l-.55811-1.80079c-.43213-1.31445-.81054-2.61035-1.18847-3.97851h-.07227c-.35986,1.36816-.73828,2.66406-1.17041,3.97851Z" fill="#cacaca"/><path d="M366.55566,349.19043h3.36719c2.64649,0,4.4292.88184,4.4292,3.47461,0,2.48535-1.76465,3.65527-4.35742,3.65527h-1.94434V361.002h-1.49463Zm3.25879,5.90625c2.05274,0,3.043-.75684,3.043-2.43164,0-1.71-1.04394-2.26856-3.11474-2.26856h-1.69239v4.7002Z" fill="#cacaca"/><path d="M380.34375,349.19043h3.69092c2.4126,0,4.14111.86426,4.14111,3.3125a3.22605,3.22605,0,0,1-2.66455,3.34961l3.00684,5.14941h-1.69239l-2.84521-4.9873h-2.14258v4.9873h-1.49414Zm3.47461,5.59961c1.83691,0,2.86328-.75586,2.86328-2.28711,0-1.54785-1.02637-2.10645-2.86328-2.10645h-1.98047V354.79Z" fill="#cacaca"/><path d="M389.61328,356.64453c0-2.8623,1.92627-4.60937,3.92481-4.60937,2.23291,0,3.49316,1.60254,3.49316,4.10546a5.70033,5.70033,0,0,1-.0542.84571h-5.90576a2.90289,2.90289,0,0,0,2.917,3.043,3.954,3.954,0,0,0,2.17871-.6836l.522.97168a5.20829,5.20829,0,0,1-2.88085.90039C391.46777,361.21777,389.61328,359.50781,389.61328,356.64453Zm6.12158-.71973c0-1.76464-.792-2.71875-2.16064-2.71875a2.70233,2.70233,0,0,0-2.52051,2.71875Z" fill="#cacaca"/><path d="M398.2168,360.01172l.73828-.99024a3.93529,3.93529,0,0,0,2.57471,1.04395c1.15234,0,1.72851-.61231,1.72851-1.36816,0-.90039-1.04394-1.2959-1.99853-1.65625-1.24219-.4502-2.61084-1.04493-2.61084-2.52051,0-1.40528,1.11669-2.48535,3.00683-2.48535a4.36966,4.36966,0,0,1,2.71924.99023l-.70264.93652a3.24787,3.24787,0,0,0-1.99853-.77441c-1.09815,0-1.60254.59473-1.60254,1.26074,0,.82813.95459,1.13379,1.94482,1.51172,1.26026.46875,2.66455.99121,2.66455,2.64746,0,1.42188-1.13427,2.61035-3.20459,2.61035A5.26591,5.26591,0,0,1,398.2168,360.01172Z" fill="#cacaca"/><path d="M406.083,356.64453c0-2.93457,1.9082-4.60937,4.05127-4.60937,2.14258,0,4.05127,1.6748,4.05127,4.60937,0,2.89942-1.90869,4.57324-4.05127,4.57324C407.99121,361.21777,406.083,359.544,406.083,356.64453Zm6.57178,0c0-2.0166-1.00831-3.38476-2.52051-3.38476-1.49463,0-2.521,1.36816-2.521,3.38476,0,1.999,1.02637,3.34863,2.521,3.34863C411.64648,359.99316,412.65479,358.64355,412.65479,356.64453Z" fill="#cacaca"/><path d="M416.48682,352.251h1.22412l.126,1.26074h.0542a4.12517,4.12517,0,0,1,2.93506-1.47656c1.83643,0,2.66455,1.18847,2.66455,3.42089v5.5459h-1.47656V355.6543c0-1.63868-.50391-2.34082-1.65625-2.34082-.90039,0-1.5127.46875-2.395,1.35058V361.002h-1.47607Z" fill="#cacaca"/><path d="M175.52148,294.86328c0-3.42578,1.23243-5.2666,3.28125-5.2666,2.03272,0,3.26514,1.84082,3.26514,5.2666,0,3.42481-1.23242,5.33008-3.26514,5.33008C176.75391,300.19336,175.52148,298.28809,175.52148,294.86328Zm5.26563,0c0-2.99316-.80029-4.21-1.98438-4.21-1.20068,0-2.001,1.2168-2.001,4.21s.80029,4.27344,2.001,4.27344C179.98682,299.13672,180.78711,297.85645,180.78711,294.86328Z" fill="#b0b0b0"/><path d="M183.80908,299.2002a.95493.95493,0,1,1,1.90479,0,.95323.95323,0,1,1-1.90479,0Z" fill="#b0b0b0"/><path d="M187.457,294.86328c0-3.42578,1.23242-5.2666,3.28125-5.2666,2.03272,0,3.26563,1.84082,3.26563,5.2666,0,3.42481-1.23291,5.33008-3.26563,5.33008C188.68945,300.19336,187.457,298.28809,187.457,294.86328Zm5.26611,0c0-2.99316-.80029-4.21-1.98486-4.21-1.20019,0-2.001,1.2168-2.001,4.21s.80079,4.27344,2.001,4.27344C191.92285,299.13672,192.72314,297.85645,192.72314,294.86328Z" fill="#b0b0b0"/><path d="M195.36084,291.10156a2.001,2.001,0,1,1,2.001,2.03223A1.97766,1.97766,0,0,1,195.36084,291.10156Zm3.20117,0a1.204,1.204,0,1,0-1.20019,1.2959A1.215,1.215,0,0,0,198.562,291.10156Z" fill="#b0b0b0"/><path d="M257.49072,300.66992a1.809,1.809,0,0,0-1.937-2.001,3.01218,3.01218,0,0,0-2.17676,1.23242l-.75195-.752a4.00718,4.00718,0,0,1,3.08887-1.55273,2.8368,2.8368,0,0,1,3.05761,3.00977c0,1.91992-1.74511,3.82519-4.1621,6.35449.56054-.04883,1.18457-.09668,1.71289-.09668h2.96093V308.001H252.689v-.78418C255.76221,304.15918,257.49072,302.31836,257.49072,300.66992Z" fill="#b0b0b0"/><path d="M260.70508,302.86328c0-3.42578,1.23242-5.2666,3.28125-5.2666,2.03271,0,3.26513,1.84082,3.26513,5.2666,0,3.42481-1.23242,5.33008-3.26513,5.33008C261.9375,308.19336,260.70508,306.28809,260.70508,302.86328Zm5.26562,0c0-2.99316-.80029-4.21-1.98437-4.21-1.20069,0-2.001,1.2168-2.001,4.21s.80029,4.27344,2.001,4.27344C265.17041,307.13672,265.9707,305.85645,265.9707,302.86328Z" fill="#b0b0b0"/><path d="M292.3208,305.18359v-.86425l4.36963-6.53028h1.47266V304.127h1.39257v1.05664h-1.39257V308.001h-1.24854v-2.81739Zm4.59375-4.01757c0-.54395.04785-1.42481.08008-1.96875h-.064c-.25634.49609-.54443.94433-.83252,1.44043l-2.38476,3.48925h3.20117Z" fill="#b0b0b0"/><path d="M300.70508,302.86328c0-3.42578,1.23242-5.2666,3.28125-5.2666,2.03271,0,3.26513,1.84082,3.26513,5.2666,0,3.42481-1.23242,5.33008-3.26513,5.33008C301.9375,308.19336,300.70508,306.28809,300.70508,302.86328Zm5.26562,0c0-2.99316-.80029-4.21-1.98437-4.21-1.20069,0-2.001,1.2168-2.001,4.21s.80029,4.27344,2.001,4.27344C305.17041,307.13672,305.9707,305.85645,305.9707,302.86328Z" fill="#b0b0b0"/><path d="M332.81689,303.2793c0-4.09766,1.85694-5.68262,3.88965-5.68262a3.21822,3.21822,0,0,1,2.46485,1.08887l-.73633.8164a2.22145,2.22145,0,0,0-1.68067-.80078c-1.42431,0-2.625,1.10449-2.689,4.33789a3.2618,3.2618,0,0,1,2.38477-1.28027c1.76074,0,2.91308,1.05566,2.91308,3.15332a3.08887,3.08887,0,0,1-3.0249,3.28125C334.3374,308.19336,332.81689,306.56055,332.81689,303.2793Zm5.29834,1.63281c0-1.3291-.62451-2.16113-1.88867-2.16113a2.72055,2.72055,0,0,0-2.1289,1.34472c.15966,1.98438.94433,3.05664,2.24072,3.05664C337.34668,307.15234,338.11523,306.25586,338.11523,304.91211Z" fill="#b0b0b0"/><path d="M340.70508,302.86328c0-3.42578,1.23242-5.2666,3.28125-5.2666,2.03271,0,3.26513,1.84082,3.26513,5.2666,0,3.42481-1.23242,5.33008-3.26513,5.33008C341.9375,308.19336,340.70508,306.28809,340.70508,302.86328Zm5.26562,0c0-2.99316-.80029-4.21-1.98437-4.21-1.20069,0-2.001,1.2168-2.001,4.21s.80029,4.27344,2.001,4.27344C345.17041,307.13672,345.9707,305.85645,345.9707,302.86328Z" fill="#b0b0b0"/><path d="M372.70508,305.3916a3.2276,3.2276,0,0,1,1.92041-2.75293v-.06347a2.89852,2.89852,0,0,1-1.42432-2.35352,2.89834,2.89834,0,0,1,5.77832.0957,3.36269,3.36269,0,0,1-1.40869,2.46582v.06348a2.94714,2.94714,0,0,1,1.77686,2.625c0,1.52051-1.3125,2.72168-3.29737,2.72168C374.12939,308.19336,372.70508,307.00879,372.70508,305.3916Zm5.37793.03223c0-1.3125-1.29639-1.793-2.769-2.38477a2.766,2.766,0,0,0-1.4248,2.22461,2.0245,2.0245,0,0,0,2.19287,1.95313A1.81865,1.81865,0,0,0,378.083,305.42383Zm-.24024-5.042a1.70444,1.70444,0,0,0-1.77636-1.8086,1.58,1.58,0,0,0-1.64893,1.64844c0,1.2168,1.12061,1.72852,2.353,2.209A2.75222,2.75222,0,0,0,377.84277,300.38184Z" fill="#b0b0b0"/><path d="M380.70508,302.86328c0-3.42578,1.23242-5.2666,3.28125-5.2666,2.03271,0,3.26513,1.84082,3.26513,5.2666,0,3.42481-1.23242,5.33008-3.26513,5.33008C381.9375,308.19336,380.70508,306.28809,380.70508,302.86328Zm5.26562,0c0-2.99316-.80029-4.21-1.98437-4.21-1.20069,0-2.001,1.2168-2.001,4.21s.80029,4.27344,2.001,4.27344C385.17041,307.13672,385.9707,305.85645,385.9707,302.86328Z" fill="#b0b0b0"/><path d="M411.67383,306.91211v-7.52246h-1.85645V298.541a6.08452,6.08452,0,0,0,2.16114-.752h1.00781v9.123h2.11328V308.001h-5.7627v-1.08887Z" fill="#b0b0b0"/><path d="M416.72852,302.86328c0-3.42578,1.23291-5.2666,3.28173-5.2666,2.03272,0,3.26514,1.84082,3.26514,5.2666,0,3.42481-1.23242,5.33008-3.26514,5.33008C417.96143,308.19336,416.72852,306.28809,416.72852,302.86328Zm5.2666,0c0-2.99316-.80078-4.21-1.98487-4.21-1.20068,0-2.001,1.2168-2.001,4.21s.80029,4.27344,2.001,4.27344C421.19434,307.13672,421.99512,305.85645,421.99512,302.86328Z" fill="#b0b0b0"/><path d="M424.68066,302.86328c0-3.42578,1.23243-5.2666,3.28125-5.2666,2.03321,0,3.26563,1.84082,3.26563,5.2666,0,3.42481-1.23242,5.33008-3.26563,5.33008C425.91309,308.19336,424.68066,306.28809,424.68066,302.86328Zm5.26612,0c0-2.99316-.8003-4.21-1.98487-4.21-1.20019,0-2.001,1.2168-2.001,4.21s.80078,4.27344,2.001,4.27344C429.14648,307.13672,429.94678,305.85645,429.94678,302.86328Z" fill="#b0b0b0"/><path d="M451.67383,306.91211v-7.52246h-1.85645V298.541a6.08452,6.08452,0,0,0,2.16114-.752h1.00781v9.123h2.11328V308.001h-5.7627v-1.08887Z" fill="#b0b0b0"/><path d="M461.4668,300.66992a1.80926,1.80926,0,0,0-1.937-2.001,3.01214,3.01214,0,0,0-2.17676,1.23242l-.75244-.752a4.00814,4.00814,0,0,1,3.08935-1.55273,2.83642,2.83642,0,0,1,3.05713,3.00977c0,1.91992-1.74463,3.82519-4.16162,6.35449.56006-.04883,1.18457-.09668,1.71289-.09668h2.96143V308.001H456.665v-.78418C459.73828,304.15918,461.4668,302.31836,461.4668,300.66992Z" fill="#b0b0b0"/><path d="M464.68066,302.86328c0-3.42578,1.23243-5.2666,3.28125-5.2666,2.03321,0,3.26563,1.84082,3.26563,5.2666,0,3.42481-1.23242,5.33008-3.26563,5.33008C465.91309,308.19336,464.68066,306.28809,464.68066,302.86328Zm5.26612,0c0-2.99316-.8003-4.21-1.98487-4.21-1.20019,0-2.001,1.2168-2.001,4.21s.80078,4.27344,2.001,4.27344C469.14648,307.13672,469.94678,305.85645,469.94678,302.86328Z" fill="#b0b0b0"/><path d="M491.67383,306.91211v-7.52246h-1.85645V298.541a6.08452,6.08452,0,0,0,2.16114-.752h1.00781v9.123h2.11328V308.001h-5.7627v-1.08887Z" fill="#b0b0b0"/><path d="M496.29688,305.18359v-.86425l4.36962-6.53028h1.47266V304.127h1.39258v1.05664h-1.39258V308.001h-1.24854v-2.81739Zm4.59374-4.01757c0-.54395.04786-1.42481.08008-1.96875h-.06445c-.25586.49609-.54395.94433-.832,1.44043l-2.38477,3.48925h3.20117Z" fill="#b0b0b0"/><path d="M504.68066,302.86328c0-3.42578,1.23243-5.2666,3.28125-5.2666,2.03321,0,3.26563,1.84082,3.26563,5.2666,0,3.42481-1.23242,5.33008-3.26563,5.33008C505.91309,308.19336,504.68066,306.28809,504.68066,302.86328Zm5.26612,0c0-2.99316-.8003-4.21-1.98487-4.21-1.20019,0-2.001,1.2168-2.001,4.21s.80078,4.27344,2.001,4.27344C509.14648,307.13672,509.94678,305.85645,509.94678,302.86328Z" fill="#b0b0b0"/><path d="M171.26514,123.75293l.67236-.86523a3.46669,3.46669,0,0,0,2.60938,1.21679,1.90324,1.90324,0,0,0,2.1123-1.873c0-1.21583-.832-2.03223-3.26514-2.03223v-1.00879c2.17725,0,2.897-.832,2.897-1.9043a1.572,1.572,0,0,0-1.76026-1.61718,3.097,3.097,0,0,0-2.17724,1.041l-.70411-.833a4.20426,4.20426,0,0,1,2.9292-1.28027c1.77686,0,3.05713.94434,3.05713,2.59277a2.53146,2.53146,0,0,1-1.85644,2.4336v.06347a2.6355,2.6355,0,0,1,2.209,2.59375c0,1.8086-1.48877,2.91309-3.36133,2.91309A4.34118,4.34118,0,0,1,171.26514,123.75293Z" fill="#b0b0b0"/><path d="M179.56934,120.2793c0-4.09766,1.85644-5.68262,3.88964-5.68262a3.2182,3.2182,0,0,1,2.46485,1.08887l-.73633.8164a2.22067,2.22067,0,0,0-1.68066-.80078c-1.42432,0-2.625,1.10449-2.689,4.33789a3.26182,3.26182,0,0,1,2.38477-1.28027c1.76074,0,2.91357,1.05566,2.91357,3.15332a3.08925,3.08925,0,0,1-3.02539,3.28125C181.08984,125.19336,179.56934,123.56055,179.56934,120.2793Zm5.29785,1.63281c0-1.3291-.624-2.16113-1.88867-2.16113a2.72126,2.72126,0,0,0-2.12891,1.34472c.16016,1.98438.94434,3.05664,2.24121,3.05664C184.09912,124.15234,184.86719,123.25586,184.86719,121.91211Z" fill="#b0b0b0"/><path d="M187.457,119.86328c0-3.42578,1.23242-5.2666,3.28125-5.2666,2.0332,0,3.26563,1.84082,3.26563,5.2666,0,3.42481-1.23243,5.33008-3.26563,5.33008C188.68945,125.19336,187.457,123.28809,187.457,119.86328Zm5.2666,0c0-2.99316-.80078-4.21-1.98535-4.21-1.20019,0-2.00049,1.2168-2.00049,4.21s.8003,4.27344,2.00049,4.27344C191.92285,124.13672,192.72363,122.85645,192.72363,119.86328Z" fill="#b0b0b0"/><path d="M195.36133,116.10156a2.001,2.001,0,1,1,2.00049,2.03223A1.97755,1.97755,0,0,1,195.36133,116.10156Zm3.20117,0a1.20418,1.20418,0,1,0-1.20068,1.2959A1.215,1.215,0,0,0,198.5625,116.10156Z" fill="#b0b0b0"/><path d="M174.4502,203.91211v-7.52246h-1.85645V195.541a6.07806,6.07806,0,0,0,2.16064-.752h1.00831v9.12305H177.876V205.001h-5.7627v-1.08887Z" fill="#b0b0b0"/><path d="M179.457,202.3916a3.22807,3.22807,0,0,1,1.9209-2.75293v-.06347a2.899,2.899,0,0,1-1.42481-2.35352,2.89835,2.89835,0,0,1,5.77833.0957,3.36375,3.36375,0,0,1-1.40821,2.46582v.06348a2.94752,2.94752,0,0,1,1.77637,2.625c0,1.52051-1.3125,2.72168-3.29736,2.72168C180.88184,205.19336,179.457,204.00879,179.457,202.3916Zm5.37793.03223c0-1.3125-1.29639-1.793-2.76855-2.38477a2.766,2.766,0,0,0-1.42481,2.22461,2.02422,2.02422,0,0,0,2.19287,1.95313A1.81822,1.81822,0,0,0,184.835,202.42383Zm-.23975-5.042a1.70456,1.70456,0,0,0-1.77685-1.8086,1.5796,1.5796,0,0,0-1.64844,1.64844c0,1.2168,1.12012,1.72852,2.35254,2.209A2.75282,2.75282,0,0,0,184.59521,197.38184Z" fill="#b0b0b0"/><path d="M187.457,199.86328c0-3.42578,1.23242-5.2666,3.28125-5.2666,2.03272,0,3.26563,1.84082,3.26563,5.2666,0,3.42481-1.23291,5.33008-3.26563,5.33008C188.68945,205.19336,187.457,203.28809,187.457,199.86328Zm5.26611,0c0-2.99316-.80029-4.21-1.98486-4.21-1.20019,0-2.001,1.2168-2.001,4.21s.80079,4.27344,2.001,4.27344C191.92285,204.13672,192.72314,202.85645,192.72314,199.86328Z" fill="#b0b0b0"/><path d="M195.36084,196.10156a2.001,2.001,0,1,1,2.001,2.03223A1.97766,1.97766,0,0,1,195.36084,196.10156Zm3.20117,0a1.204,1.204,0,1,0-1.20019,1.2959A1.215,1.215,0,0,0,198.562,196.10156Z" fill="#b0b0b0"/><path d="M163.9707,54.50146c2.35254,0,3.9375.78418,3.9375,3.08887,0,2.209-1.56884,3.249-3.874,3.249h-1.72852v4.1621h-1.32812v-10.5Zm2.60889,3.08887c0-1.52051-.92822-2.0166-2.769-2.0166h-1.50489v4.17773H163.874C165.69922,59.75146,166.57959,59.07861,166.57959,57.59033Z" fill="#b0b0b0"/><path d="M171.21777,53.605v3.10547l-.04785,1.60059a3.71937,3.71937,0,0,1,2.59278-1.28125c1.63281,0,2.36914,1.05664,2.36914,3.042v4.92968h-1.3125v-4.7539c0-1.457-.44825-2.08106-1.47266-2.08106-.80078,0-1.34473.416-2.12891,1.20118v5.63378h-1.3125V53.605Z" fill="#b0b0b0"/><path d="M178.12891,62.98486c0-1.69726,1.45605-2.54492,4.76953-2.91308,0-.99317-.31983-1.95313-1.60059-1.95313a4.22886,4.22886,0,0,0-2.3208.832l-.51221-.91211a5.776,5.776,0,0,1,3.05713-1.00878c1.90479,0,2.70557,1.26464,2.70557,3.20214v4.76953h-1.08887l-.1123-.92871h-.04785a4.14989,4.14989,0,0,1-2.57715,1.1211A2.11685,2.11685,0,0,1,178.12891,62.98486Zm4.76953.11231V60.936c-2.59278.32031-3.48926.96-3.48926,1.95214,0,.88086.6084,1.249,1.377,1.249A3.15319,3.15319,0,0,0,182.89844,63.09717Z" fill="#b0b0b0"/><path d="M185.80859,64.12158l.65625-.88086a3.49908,3.49908,0,0,0,2.28907.92871c1.02441,0,1.53613-.54492,1.53613-1.21679,0-.80078-.92774-1.15235-1.77637-1.47266-1.10449-.40039-2.32129-.92871-2.32129-2.24121,0-1.248.99268-2.209,2.67334-2.209a3.88131,3.88131,0,0,1,2.417.88085l-.62451.832a2.88539,2.88539,0,0,0-1.77636-.68848c-.97657,0-1.42481.52832-1.42481,1.12109,0,.73633.84863,1.00782,1.72852,1.34473,1.12109.416,2.36914.87988,2.36914,2.35254,0,1.26465-1.0083,2.32129-2.84864,2.32129A4.68812,4.68812,0,0,1,185.80859,64.12158Z" fill="#b0b0b0"/><path d="M192.80078,61.12744c0-2.54492,1.7124-4.09765,3.48926-4.09765,1.98437,0,3.10547,1.4248,3.10547,3.65039a5.12671,5.12671,0,0,1-.04834.752h-5.25049a2.58084,2.58084,0,0,0,2.59375,2.70508,3.51541,3.51541,0,0,0,1.93652-.6084l.46387.86426a4.6272,4.6272,0,0,1-2.56055.80078A3.7199,3.7199,0,0,1,192.80078,61.12744Zm3.52149-3.05664a2.40228,2.40228,0,0,0-2.24122,2.417h4.16163C198.24268,58.91943,197.53809,58.0708,196.32227,58.0708Z" fill="#b0b0b0"/><path d="M534.43311,289.50146c2.353,0,3.938.78418,3.938,3.08887,0,2.209-1.56884,3.249-3.87353,3.249h-1.729v4.1621h-1.32861v-10.5Zm2.60937,3.08887c0-1.52051-.92871-2.0166-2.769-2.0166h-1.50489v4.17773h1.56885C536.16211,294.75146,537.04248,294.07861,537.04248,292.59033Z" fill="#b0b0b0"/><path d="M540.12744,289.773a.91482.91482,0,0,1,1.82471,0,.91475.91475,0,0,1-1.82471,0Zm1.55274,2.44922v7.77929h-1.3125v-7.77929Z" fill="#b0b0b0"/><path d="M544.52783,297.6001v-4.30567h-1.15234v-.99218l1.21631-.08008.16015-2.17676h1.1045v2.17676h2.09667v1.07226h-2.09667v4.32227c0,.96.30419,1.50488,1.20019,1.50488a2.8059,2.8059,0,0,0,.88037-.209l.25635.99316a4.81791,4.81791,0,0,1-1.44043.28809C545.08789,300.19385,544.52783,299.13721,544.52783,297.6001Z" fill="#b0b0b0"/><path d="M548.91162,296.12744a3.76787,3.76787,0,0,1,3.74561-4.09765,3.23011,3.23011,0,0,1,2.27295.91308l-.67237.86426a2.28024,2.28024,0,0,0-1.55273-.68848c-1.40869,0-2.43311,1.2168-2.43311,3.00879,0,1.77735.97657,2.97754,2.40137,2.97754a2.76314,2.76314,0,0,0,1.82471-.78418l.57617.87988a3.79322,3.79322,0,0,1-2.51318.99317C550.49609,300.19385,548.91162,298.70459,548.91162,296.12744Z" fill="#b0b0b0"/><path d="M558.09619,288.605v3.10547l-.04785,1.60059a3.72032,3.72032,0,0,1,2.59277-1.28125c1.63282,0,2.36914,1.05664,2.36914,3.042v4.92968h-1.3125v-4.7539c0-1.457-.44824-2.08106-1.47265-2.08106-.8003,0-1.34473.416-2.12891,1.2002v5.63476h-1.3125V288.605Z" fill="#b0b0b0"/><path d="M571.74463,288.66846v.75293h-1.87256v12.26074h1.87256v.752h-2.86524V288.66846Z" fill="#b0b0b0"/><path d="M572.67139,299.12158l.65625-.88086a3.50005,3.50005,0,0,0,2.28906.92871c1.02441,0,1.53662-.54492,1.53662-1.21679,0-.80078-.92871-1.15235-1.77686-1.47266-1.10449-.40039-2.3208-.92871-2.3208-2.24121,0-1.248.99219-2.209,2.67286-2.209a3.88135,3.88135,0,0,1,2.417.88085l-.624.832a2.89469,2.89469,0,0,0-1.77685-.68848c-.97656,0-1.42481.52832-1.42481,1.12109,0,.73633.84864,1.00782,1.729,1.34473,1.12012.416,2.36865.87988,2.36865,2.35254,0,1.26465-1.0083,2.32129-2.84912,2.32129A4.6867,4.6867,0,0,1,572.67139,299.12158Z" fill="#b0b0b0"/><path d="M580.14355,297.6001v-4.30567h-1.15234v-.99218l1.21631-.08008.16016-2.17676h1.10449v2.17676h2.09668v1.07226h-2.09668v4.32227c0,.96.3042,1.50488,1.20019,1.50488a2.80584,2.80584,0,0,0,.88037-.209l.25635.99316a4.81791,4.81791,0,0,1-1.44043.28809C580.70361,300.19385,580.14355,299.13721,580.14355,297.6001Z" fill="#b0b0b0"/><path d="M586.36816,301.68213V289.42139h-1.85693v-.75293h2.84912v13.76562h-2.84912v-.752Z" fill="#b0b0b0"/><path d="M175.52148,608.86426c0-3.42578,1.23243-5.2666,3.28125-5.2666,2.03272,0,3.26514,1.84082,3.26514,5.2666,0,3.4248-1.23242,5.33008-3.26514,5.33008C176.75391,614.19434,175.52148,612.28906,175.52148,608.86426Zm5.26563,0c0-2.99317-.80029-4.21-1.98438-4.21-1.20068,0-2.001,1.21679-2.001,4.21s.80029,4.27344,2.001,4.27344C179.98682,613.1377,180.78711,611.85742,180.78711,608.86426Z" fill="#b0b0b0"/><path d="M183.80908,613.20117a.95493.95493,0,1,1,1.90479,0,.95323.95323,0,1,1-1.90479,0Z" fill="#b0b0b0"/><path d="M187.457,608.86426c0-3.42578,1.23242-5.2666,3.28125-5.2666,2.03272,0,3.26563,1.84082,3.26563,5.2666,0,3.4248-1.23291,5.33008-3.26563,5.33008C188.68945,614.19434,187.457,612.28906,187.457,608.86426Zm5.26611,0c0-2.99317-.80029-4.21-1.98486-4.21-1.20019,0-2.001,1.21679-2.001,4.21s.80079,4.27344,2.001,4.27344C191.92285,613.1377,192.72314,611.85742,192.72314,608.86426Z" fill="#b0b0b0"/><path d="M195.36084,605.10254a2.001,2.001,0,1,1,2.001,2.03223A1.97766,1.97766,0,0,1,195.36084,605.10254Zm3.20117,0a1.204,1.204,0,1,0-1.20019,1.2959A1.215,1.215,0,0,0,198.562,605.10254Z" fill="#b0b0b0"/><path d="M257.49072,630.6709a1.809,1.809,0,0,0-1.937-2.001,3.01218,3.01218,0,0,0-2.17676,1.23242l-.75195-.75195a4.00718,4.00718,0,0,1,3.08887-1.55273,2.83679,2.83679,0,0,1,3.05761,3.00976c0,1.91992-1.74511,3.8252-4.1621,6.35449.56054-.04882,1.18457-.09668,1.71289-.09668h2.96093V638.002H252.689v-.78418C255.76221,634.16016,257.49072,632.31934,257.49072,630.6709Z" fill="#b0b0b0"/><path d="M260.70508,632.86426c0-3.42578,1.23242-5.2666,3.28125-5.2666,2.03271,0,3.26513,1.84082,3.26513,5.2666,0,3.4248-1.23242,5.33008-3.26513,5.33008C261.9375,638.19434,260.70508,636.28906,260.70508,632.86426Zm5.26562,0c0-2.99317-.80029-4.21-1.98437-4.21-1.20069,0-2.001,1.21679-2.001,4.21s.80029,4.27344,2.001,4.27344C265.17041,637.1377,265.9707,635.85742,265.9707,632.86426Z" fill="#b0b0b0"/><path d="M292.3208,635.18457v-.86426l4.36963-6.53027h1.47266v6.33789h1.39257v1.05664h-1.39257V638.002h-1.24854v-2.81738Zm4.59375-4.01758c0-.54394.04785-1.4248.08008-1.96875h-.064c-.25634.4961-.54443.94434-.83252,1.44043l-2.38476,3.48926h3.20117Z" fill="#b0b0b0"/><path d="M300.70508,632.86426c0-3.42578,1.23242-5.2666,3.28125-5.2666,2.03271,0,3.26513,1.84082,3.26513,5.2666,0,3.4248-1.23242,5.33008-3.26513,5.33008C301.9375,638.19434,300.70508,636.28906,300.70508,632.86426Zm5.26562,0c0-2.99317-.80029-4.21-1.98437-4.21-1.20069,0-2.001,1.21679-2.001,4.21s.80029,4.27344,2.001,4.27344C305.17041,637.1377,305.9707,635.85742,305.9707,632.86426Z" fill="#b0b0b0"/><path d="M332.81689,633.28027c0-4.09765,1.85694-5.68261,3.88965-5.68261a3.21821,3.21821,0,0,1,2.46485,1.08886l-.73633.81641a2.22145,2.22145,0,0,0-1.68067-.80078c-1.42431,0-2.625,1.10449-2.689,4.33789a3.2618,3.2618,0,0,1,2.38477-1.28027c1.76074,0,2.91308,1.05566,2.91308,3.15332a3.08888,3.08888,0,0,1-3.0249,3.28125C334.3374,638.19434,332.81689,636.56152,332.81689,633.28027Zm5.29834,1.63282c0-1.32911-.62451-2.16114-1.88867-2.16114a2.72053,2.72053,0,0,0-2.1289,1.34473c.15966,1.98437.94433,3.05664,2.24072,3.05664C337.34668,637.15332,338.11523,636.25684,338.11523,634.91309Z" fill="#b0b0b0"/><path d="M340.70508,632.86426c0-3.42578,1.23242-5.2666,3.28125-5.2666,2.03271,0,3.26513,1.84082,3.26513,5.2666,0,3.4248-1.23242,5.33008-3.26513,5.33008C341.9375,638.19434,340.70508,636.28906,340.70508,632.86426Zm5.26562,0c0-2.99317-.80029-4.21-1.98437-4.21-1.20069,0-2.001,1.21679-2.001,4.21s.80029,4.27344,2.001,4.27344C345.17041,637.1377,345.9707,635.85742,345.9707,632.86426Z" fill="#b0b0b0"/><path d="M372.70508,635.39258a3.22757,3.22757,0,0,1,1.92041-2.75293v-.06348a2.89851,2.89851,0,0,1-1.42432-2.35351,2.89834,2.89834,0,0,1,5.77832.0957,3.36269,3.36269,0,0,1-1.40869,2.46582v.06348a2.94714,2.94714,0,0,1,1.77686,2.625c0,1.5205-1.3125,2.72168-3.29737,2.72168C374.12939,638.19434,372.70508,637.00977,372.70508,635.39258Zm5.37793.03222c0-1.3125-1.29639-1.793-2.769-2.38476a2.76593,2.76593,0,0,0-1.4248,2.22461,2.02449,2.02449,0,0,0,2.19287,1.95312A1.81864,1.81864,0,0,0,378.083,635.4248Zm-.24024-5.042a1.70443,1.70443,0,0,0-1.77636-1.80859,1.58,1.58,0,0,0-1.64893,1.64844c0,1.21679,1.12061,1.72851,2.353,2.209A2.75224,2.75224,0,0,0,377.84277,630.38281Z" fill="#b0b0b0"/><path d="M380.70508,632.86426c0-3.42578,1.23242-5.2666,3.28125-5.2666,2.03271,0,3.26513,1.84082,3.26513,5.2666,0,3.4248-1.23242,5.33008-3.26513,5.33008C381.9375,638.19434,380.70508,636.28906,380.70508,632.86426Zm5.26562,0c0-2.99317-.80029-4.21-1.98437-4.21-1.20069,0-2.001,1.21679-2.001,4.21s.80029,4.27344,2.001,4.27344C385.17041,637.1377,385.9707,635.85742,385.9707,632.86426Z" fill="#b0b0b0"/><path d="M411.67383,636.91309v-7.52247h-1.85645V628.542a6.08433,6.08433,0,0,0,2.16114-.752h1.00781v9.12305h2.11328V638.002h-5.7627v-1.08886Z" fill="#b0b0b0"/><path d="M416.72852,632.86426c0-3.42578,1.23291-5.2666,3.28173-5.2666,2.03272,0,3.26514,1.84082,3.26514,5.2666,0,3.4248-1.23242,5.33008-3.26514,5.33008C417.96143,638.19434,416.72852,636.28906,416.72852,632.86426Zm5.2666,0c0-2.99317-.80078-4.21-1.98487-4.21-1.20068,0-2.001,1.21679-2.001,4.21s.80029,4.27344,2.001,4.27344C421.19434,637.1377,421.99512,635.85742,421.99512,632.86426Z" fill="#b0b0b0"/><path d="M424.68066,632.86426c0-3.42578,1.23243-5.2666,3.28125-5.2666,2.03321,0,3.26563,1.84082,3.26563,5.2666,0,3.4248-1.23242,5.33008-3.26563,5.33008C425.91309,638.19434,424.68066,636.28906,424.68066,632.86426Zm5.26612,0c0-2.99317-.8003-4.21-1.98487-4.21-1.20019,0-2.001,1.21679-2.001,4.21s.80078,4.27344,2.001,4.27344C429.14648,637.1377,429.94678,635.85742,429.94678,632.86426Z" fill="#b0b0b0"/><path d="M451.67383,636.91309v-7.52247h-1.85645V628.542a6.08433,6.08433,0,0,0,2.16114-.752h1.00781v9.12305h2.11328V638.002h-5.7627v-1.08886Z" fill="#b0b0b0"/><path d="M461.4668,630.6709a1.80926,1.80926,0,0,0-1.937-2.001,3.01214,3.01214,0,0,0-2.17676,1.23242l-.75244-.75195a4.00814,4.00814,0,0,1,3.08935-1.55273,2.83641,2.83641,0,0,1,3.05713,3.00976c0,1.91992-1.74463,3.8252-4.16162,6.35449.56006-.04882,1.18457-.09668,1.71289-.09668h2.96143V638.002H456.665v-.78418C459.73828,634.16016,461.4668,632.31934,461.4668,630.6709Z" fill="#b0b0b0"/><path d="M464.68066,632.86426c0-3.42578,1.23243-5.2666,3.28125-5.2666,2.03321,0,3.26563,1.84082,3.26563,5.2666,0,3.4248-1.23242,5.33008-3.26563,5.33008C465.91309,638.19434,464.68066,636.28906,464.68066,632.86426Zm5.26612,0c0-2.99317-.8003-4.21-1.98487-4.21-1.20019,0-2.001,1.21679-2.001,4.21s.80078,4.27344,2.001,4.27344C469.14648,637.1377,469.94678,635.85742,469.94678,632.86426Z" fill="#b0b0b0"/><path d="M491.67383,636.91309v-7.52247h-1.85645V628.542a6.08433,6.08433,0,0,0,2.16114-.752h1.00781v9.12305h2.11328V638.002h-5.7627v-1.08886Z" fill="#b0b0b0"/><path d="M496.29688,635.18457v-.86426L500.6665,627.79h1.47266v6.33789h1.39258v1.05664h-1.39258V638.002h-1.24854v-2.81738Zm4.59374-4.01758c0-.54394.04786-1.4248.08008-1.96875h-.06445c-.25586.4961-.54395.94434-.832,1.44043l-2.38477,3.48926h3.20117Z" fill="#b0b0b0"/><path d="M504.68066,632.86426c0-3.42578,1.23243-5.2666,3.28125-5.2666,2.03321,0,3.26563,1.84082,3.26563,5.2666,0,3.4248-1.23242,5.33008-3.26563,5.33008C505.91309,638.19434,504.68066,636.28906,504.68066,632.86426Zm5.26612,0c0-2.99317-.8003-4.21-1.98487-4.21-1.20019,0-2.001,1.21679-2.001,4.21s.80078,4.27344,2.001,4.27344C509.14648,637.1377,509.94678,635.85742,509.94678,632.86426Z" fill="#b0b0b0"/><path d="M171.26514,453.75391l.67236-.86524a3.46667,3.46667,0,0,0,2.60938,1.2168,1.90324,1.90324,0,0,0,2.1123-1.87305c0-1.21582-.832-2.03222-3.26514-2.03222v-1.00879c2.17725,0,2.897-.832,2.897-1.9043a1.572,1.572,0,0,0-1.76026-1.61719,3.097,3.097,0,0,0-2.17724,1.041l-.70411-.833a4.20426,4.20426,0,0,1,2.9292-1.28027c1.77686,0,3.05713.94433,3.05713,2.59277a2.53144,2.53144,0,0,1-1.85644,2.43359v.06348a2.6355,2.6355,0,0,1,2.209,2.59375c0,1.80859-1.48877,2.91309-3.36133,2.91309A4.34118,4.34118,0,0,1,171.26514,453.75391Z" fill="#b0b0b0"/><path d="M179.56934,450.28027c0-4.09765,1.85644-5.68261,3.88964-5.68261a3.2182,3.2182,0,0,1,2.46485,1.08886l-.73633.81641a2.22067,2.22067,0,0,0-1.68066-.80078c-1.42432,0-2.625,1.10449-2.689,4.33789a3.26182,3.26182,0,0,1,2.38477-1.28027c1.76074,0,2.91357,1.05566,2.91357,3.15332a3.08925,3.08925,0,0,1-3.02539,3.28125C181.08984,455.19434,179.56934,453.56152,179.56934,450.28027Zm5.29785,1.63282c0-1.32911-.624-2.16114-1.88867-2.16114a2.72125,2.72125,0,0,0-2.12891,1.34473c.16016,1.98437.94434,3.05664,2.24121,3.05664C184.09912,454.15332,184.86719,453.25684,184.86719,451.91309Z" fill="#b0b0b0"/><path d="M187.457,449.86426c0-3.42578,1.23242-5.2666,3.28125-5.2666,2.0332,0,3.26563,1.84082,3.26563,5.2666,0,3.4248-1.23243,5.33008-3.26563,5.33008C188.68945,455.19434,187.457,453.28906,187.457,449.86426Zm5.2666,0c0-2.99317-.80078-4.21-1.98535-4.21-1.20019,0-2.00049,1.21679-2.00049,4.21s.8003,4.27344,2.00049,4.27344C191.92285,454.1377,192.72363,452.85742,192.72363,449.86426Z" fill="#b0b0b0"/><path d="M195.36133,446.10254a2.001,2.001,0,1,1,2.00049,2.03223A1.97755,1.97755,0,0,1,195.36133,446.10254Zm3.20117,0a1.20418,1.20418,0,1,0-1.20068,1.2959A1.215,1.215,0,0,0,198.5625,446.10254Z" fill="#b0b0b0"/><path d="M174.4502,533.91309v-7.52247h-1.85645V525.542a6.07787,6.07787,0,0,0,2.16064-.752h1.00831v9.12305H177.876V535.002h-5.7627v-1.08886Z" fill="#b0b0b0"/><path d="M179.457,532.39258a3.228,3.228,0,0,1,1.9209-2.75293v-.06348a2.899,2.899,0,0,1-1.42481-2.35351,2.89835,2.89835,0,0,1,5.77833.0957,3.36375,3.36375,0,0,1-1.40821,2.46582v.06348a2.94752,2.94752,0,0,1,1.77637,2.625c0,1.5205-1.3125,2.72168-3.29736,2.72168C180.88184,535.19434,179.457,534.00977,179.457,532.39258Zm5.37793.03222c0-1.3125-1.29639-1.793-2.76855-2.38476a2.76592,2.76592,0,0,0-1.42481,2.22461,2.02422,2.02422,0,0,0,2.19287,1.95312A1.81822,1.81822,0,0,0,184.835,532.4248Zm-.23975-5.042a1.70455,1.70455,0,0,0-1.77685-1.80859,1.5796,1.5796,0,0,0-1.64844,1.64844c0,1.21679,1.12012,1.72851,2.35254,2.209A2.75284,2.75284,0,0,0,184.59521,527.38281Z" fill="#b0b0b0"/><path d="M187.457,529.86426c0-3.42578,1.23242-5.2666,3.28125-5.2666,2.03272,0,3.26563,1.84082,3.26563,5.2666,0,3.4248-1.23291,5.33008-3.26563,5.33008C188.68945,535.19434,187.457,533.28906,187.457,529.86426Zm5.26611,0c0-2.99317-.80029-4.21-1.98486-4.21-1.20019,0-2.001,1.21679-2.001,4.21s.80079,4.27344,2.001,4.27344C191.92285,534.1377,192.72314,532.85742,192.72314,529.86426Z" fill="#b0b0b0"/><path d="M195.36084,526.10254a2.001,2.001,0,1,1,2.001,2.03223A1.97766,1.97766,0,0,1,195.36084,526.10254Zm3.20117,0a1.204,1.204,0,1,0-1.20019,1.2959A1.215,1.215,0,0,0,198.562,526.10254Z" fill="#b0b0b0"/><path d="M163.9707,384.502c2.35254,0,3.9375.78418,3.9375,3.08887,0,2.209-1.56884,3.249-3.874,3.249h-1.72852V395.002h-1.32812v-10.5Zm2.60889,3.08887c0-1.52051-.92822-2.0166-2.769-2.0166h-1.50489V389.752H163.874C165.69922,389.752,166.57959,389.0791,166.57959,387.59082Z" fill="#b0b0b0"/><path d="M171.21777,383.60547v3.10547l-.04785,1.60058a3.71941,3.71941,0,0,1,2.59278-1.28125c1.63281,0,2.36914,1.05664,2.36914,3.042V395.002h-1.3125v-4.7539c0-1.457-.44825-2.08106-1.47266-2.08106-.80078,0-1.34473.416-2.12891,1.20117V395.002h-1.3125V383.60547Z" fill="#b0b0b0"/><path d="M178.12891,392.98535c0-1.69726,1.45605-2.54492,4.76953-2.91308,0-.99317-.31983-1.95313-1.60059-1.95313a4.22886,4.22886,0,0,0-2.3208.832l-.51221-.91211a5.776,5.776,0,0,1,3.05713-1.00879c1.90479,0,2.70557,1.26465,2.70557,3.20215V395.002h-1.08887l-.1123-.92871h-.04785a4.14989,4.14989,0,0,1-2.57715,1.1211A2.11685,2.11685,0,0,1,178.12891,392.98535Zm4.76953.11231v-2.16114c-2.59278.32032-3.48926.96-3.48926,1.95215,0,.88086.6084,1.249,1.377,1.249A3.15319,3.15319,0,0,0,182.89844,393.09766Z" fill="#b0b0b0"/><path d="M185.80859,394.12207l.65625-.88086a3.49908,3.49908,0,0,0,2.28907.92871c1.02441,0,1.53613-.54492,1.53613-1.2168,0-.80078-.92774-1.15234-1.77637-1.47265-1.10449-.40039-2.32129-.92871-2.32129-2.24121,0-1.248.99268-2.209,2.67334-2.209a3.88125,3.88125,0,0,1,2.417.88086l-.62451.832a2.88538,2.88538,0,0,0-1.77636-.68847c-.97657,0-1.42481.52832-1.42481,1.12109,0,.73633.84863,1.00781,1.72852,1.34473,1.12109.416,2.36914.87988,2.36914,2.35254,0,1.26465-1.0083,2.32129-2.84864,2.32129A4.68812,4.68812,0,0,1,185.80859,394.12207Z" fill="#b0b0b0"/><path d="M192.80078,391.12793c0-2.54492,1.7124-4.09766,3.48926-4.09766,1.98437,0,3.10547,1.42481,3.10547,3.65039a5.12686,5.12686,0,0,1-.04834.752h-5.25049a2.58084,2.58084,0,0,0,2.59375,2.70508,3.51541,3.51541,0,0,0,1.93652-.6084l.46387.86425a4.62712,4.62712,0,0,1-2.56055.80079A3.7199,3.7199,0,0,1,192.80078,391.12793Zm3.52149-3.05664a2.40228,2.40228,0,0,0-2.24122,2.417h4.16163C198.24268,388.91992,197.53809,388.07129,196.32227,388.07129Z" fill="#b0b0b0"/><path d="M534.43311,619.502c2.353,0,3.938.78418,3.938,3.08887,0,2.209-1.56884,3.249-3.87353,3.249h-1.729V630.002h-1.32861v-10.5Zm2.60937,3.08887c0-1.52051-.92871-2.0166-2.769-2.0166h-1.50489V624.752h1.56885C536.16211,624.752,537.04248,624.0791,537.04248,622.59082Z" fill="#b0b0b0"/><path d="M540.12744,619.77344a.91482.91482,0,0,1,1.82471,0,.91475.91475,0,0,1-1.82471,0Zm1.55274,2.44922V630.002h-1.3125v-7.77929Z" fill="#b0b0b0"/><path d="M544.52783,627.60059v-4.30567h-1.15234v-.99219l1.21631-.08007.16015-2.17676h1.1045v2.17676h2.09667v1.07226h-2.09667v4.32227c0,.96.30419,1.50488,1.20019,1.50488a2.8059,2.8059,0,0,0,.88037-.209l.25635.99316a4.81822,4.81822,0,0,1-1.44043.28809C545.08789,630.19434,544.52783,629.1377,544.52783,627.60059Z" fill="#b0b0b0"/><path d="M548.91162,626.12793a3.76788,3.76788,0,0,1,3.74561-4.09766,3.23012,3.23012,0,0,1,2.27295.91309l-.67237.86426a2.28024,2.28024,0,0,0-1.55273-.68848c-1.40869,0-2.43311,1.2168-2.43311,3.00879,0,1.77734.97657,2.97754,2.40137,2.97754a2.76314,2.76314,0,0,0,1.82471-.78418l.57617.87988a3.79322,3.79322,0,0,1-2.51318.99317C550.49609,630.19434,548.91162,628.70508,548.91162,626.12793Z" fill="#b0b0b0"/><path d="M558.09619,618.60547v3.10547l-.04785,1.60058a3.72035,3.72035,0,0,1,2.59277-1.28125c1.63282,0,2.36914,1.05664,2.36914,3.042V630.002h-1.3125v-4.7539c0-1.457-.44824-2.08106-1.47265-2.08106-.8003,0-1.34473.416-2.12891,1.2002V630.002h-1.3125V618.60547Z" fill="#b0b0b0"/><path d="M571.74463,618.669v.75293h-1.87256v12.26074h1.87256v.75195h-2.86524V618.669Z" fill="#b0b0b0"/><path d="M572.67139,629.12207l.65625-.88086a3.50005,3.50005,0,0,0,2.28906.92871c1.02441,0,1.53662-.54492,1.53662-1.2168,0-.80078-.92871-1.15234-1.77686-1.47265-1.10449-.40039-2.3208-.92871-2.3208-2.24121,0-1.248.99219-2.209,2.67286-2.209a3.8813,3.8813,0,0,1,2.417.88086l-.624.832a2.89474,2.89474,0,0,0-1.77685-.68847c-.97656,0-1.42481.52832-1.42481,1.12109,0,.73633.84864,1.00781,1.729,1.34473,1.12012.416,2.36865.87988,2.36865,2.35254,0,1.26465-1.0083,2.32129-2.84912,2.32129A4.6867,4.6867,0,0,1,572.67139,629.12207Z" fill="#b0b0b0"/><path d="M580.14355,627.60059v-4.30567h-1.15234v-.99219l1.21631-.08007.16016-2.17676h1.10449v2.17676h2.09668v1.07226h-2.09668v4.32227c0,.96.3042,1.50488,1.20019,1.50488a2.80584,2.80584,0,0,0,.88037-.209l.25635.99316a4.81822,4.81822,0,0,1-1.44043.28809C580.70361,630.19434,580.14355,629.1377,580.14355,627.60059Z" fill="#b0b0b0"/><path d="M586.36816,631.68262V619.42188h-1.85693V618.669h2.84912v13.76562h-2.84912v-.75195Z" fill="#b0b0b0"/><line x1="203.00024" y1="279.99934" x2="558.69861" y2="279.99934" fill="none" stroke="#7f7f7f" stroke-width="1.2"/><polygon points="554.722 284.907 553.904 284.028 558.238 280.001 553.904 275.972 554.722 275.093 560 280.001 554.722 284.907" fill="#7f7f7f"/><line x1="220" y1="300.00001" x2="220" y2="61.3014" fill="none" stroke="#7f7f7f" stroke-width="1.2"/><polygon points="224.908 65.278 224.029 66.096 220.001 61.762 215.972 66.096 215.093 65.278 220.001 60 224.908 65.278" fill="#7f7f7f"/><line x1="203.00024" y1="610.00001" x2="558.69861" y2="610.00001" fill="none" stroke="#7f7f7f" stroke-width="1.2"/><polygon points="554.722 614.908 553.904 614.029 558.238 610.001 553.904 605.972 554.722 605.093 560 610.001 554.722 614.908" fill="#7f7f7f"/><line x1="220" y1="630.00068" x2="220" y2="391.30208" fill="none" stroke="#7f7f7f" stroke-width="1.2"/><polygon points="224.908 395.278 224.029 396.097 220.001 391.763 215.972 396.097 215.093 395.278 220.001 390.001 224.908 395.278" fill="#7f7f7f"/><path d="M448.38232,163.15967l3.32959,9.83984h-1.335l-.92968-3h-3.585l-.94531,3h-1.27441l3.32959-9.83984Zm.74952,5.835-.46485-1.5c-.35986-1.09473-.6748-2.17481-.98974-3.31445h-.06006c-.29981,1.13964-.61524,2.21972-.97461,3.31445l-.46533,1.5Z" fill="#867768"/><path d="M455.91211,163.15967c2.20508,0,3.68994.73535,3.68994,2.89551,0,2.06933-1.47021,3.04492-3.62988,3.04492h-1.61963v3.89941h-1.24512v-9.83984Zm2.44531,2.89551c0-1.42579-.87012-1.89063-2.59521-1.89063h-1.40967v3.915h1.46973C457.53223,168.07959,458.35742,167.44971,458.35742,166.05518Z" fill="#867768"/><path d="M463.667,164.20947v-1.0498h7.19971v1.0498H467.897v8.79h-1.26025v-8.79Z" fill="#867768"/><path d="M471.72217,170.32959v-4.62012h1.24463v4.45508c0,1.36524.40527,1.9502,1.36523,1.9502.75,0,1.2749-.375,1.96485-1.23047v-5.17481h1.23v7.29h-1.02l-.105-1.13965h-.04493a3.08138,3.08138,0,0,1-2.3999,1.31934C472.41211,173.1792,471.72217,172.18994,471.72217,170.32959Z" fill="#867768"/><path d="M481.00684,165.70947l.10546,1.04981h.04493a3.43548,3.43548,0,0,1,2.44433-1.22949c1.53028,0,2.22022.99023,2.22022,2.8496v4.62012h-1.23v-4.45508c0-1.36425-.41992-1.94922-1.37989-1.94922-.75,0-1.25976.38965-1.99511,1.125v5.2793h-1.2295v-7.29Z" fill="#867768"/><path d="M487.65234,169.36963c0-2.38477,1.6045-3.83984,3.26954-3.83984,1.86035,0,2.91015,1.335,2.91015,3.41992a4.80018,4.80018,0,0,1-.04492.70508h-4.91992a2.418,2.418,0,0,0,2.42969,2.53515,3.29419,3.29419,0,0,0,1.81494-.57031l.43506.80957a4.33917,4.33917,0,0,1-2.39991.75A3.4856,3.4856,0,0,1,487.65234,169.36963Zm3.29981-2.86524a2.25185,2.25185,0,0,0-2.1001,2.26563h3.8999C492.752,167.29932,492.0918,166.50439,490.95215,166.50439Z" fill="#867768"/><path d="M327.7373,460.16064l3.33008,9.83985h-1.335l-.93017-3h-3.585l-.94483,3h-1.2749l3.32959-9.83985Zm.75,5.835-.46484-1.5c-.36035-1.09473-.67529-2.17481-.99023-3.31446h-.06006c-.29981,1.13965-.61475,2.21973-.97461,3.31446l-.46533,1.5Z" fill="#867768"/><path d="M335.26709,460.16064c2.20508,0,3.68994.73536,3.68994,2.89551,0,2.06934-1.46973,3.04492-3.62988,3.04492h-1.61963v3.89942H332.4624v-9.83985Zm2.44482,2.89551c0-1.42578-.86962-1.89062-2.59472-1.89062h-1.40967v3.915h1.46973C336.88721,465.08057,337.71191,464.45068,337.71191,463.05615Z" fill="#867768"/><path d="M347.02686,460.16064c2.01025,0,3.45019.72071,3.45019,2.75977a2.68694,2.68694,0,0,1-2.22021,2.79l2.50488,4.29h-1.40967l-2.37012-4.15528h-1.78466v4.15528h-1.24512v-9.83985Zm2.20507,2.75977c0-1.29-.855-1.75488-2.38476-1.75488h-1.6499v3.66015h1.6499C348.377,464.82568,349.23193,464.1958,349.23193,462.92041Z" fill="#867768"/><path d="M351.67725,466.37061c0-2.38477,1.605-3.83985,3.26953-3.83985,1.86035,0,2.91015,1.335,2.91015,3.41992a4.7987,4.7987,0,0,1-.04492.70508h-4.91992a2.41806,2.41806,0,0,0,2.42969,2.53516,3.29424,3.29424,0,0,0,1.81494-.57031l.43506.80957a4.33785,4.33785,0,0,1-2.3999.75A3.48559,3.48559,0,0,1,351.67725,466.37061Zm3.2998-2.86524a2.25186,2.25186,0,0,0-2.1001,2.26563h3.89991C356.77686,464.30029,356.11719,463.50537,354.97705,463.50537Z" fill="#867768"/><path d="M358.84668,469.17529l.61523-.82519a3.27452,3.27452,0,0,0,2.145.87011c.96,0,1.44-.50976,1.44-1.13964,0-.75-.87012-1.08008-1.665-1.37989-1.03516-.375-2.17481-.87011-2.17481-2.09961,0-1.16992.92969-2.07031,2.50488-2.07031a3.63691,3.63691,0,0,1,2.26465.8252l-.585.77929a2.707,2.707,0,0,0-1.665-.64453c-.91455,0-1.335.49512-1.335,1.04981,0,.69043.79492.94531,1.62012,1.25976,1.0498.39063,2.21973.8252,2.21973,2.20508,0,1.18555-.94483,2.17481-2.66993,2.17481A4.38633,4.38633,0,0,1,358.84668,469.17529Z" fill="#867768"/><path d="M365.40186,466.37061c0-2.44532,1.58984-3.83985,3.375-3.83985,1.78466,0,3.37451,1.39453,3.37451,3.83985,0,2.415-1.58985,3.80957-3.37451,3.80957C366.9917,470.18018,365.40186,468.78564,365.40186,466.37061Zm5.4746,0c0-1.67969-.83984-2.82032-2.0996-2.82032-1.24512,0-2.1001,1.14063-2.1001,2.82032,0,1.665.855,2.79,2.1001,2.79C370.03662,469.16064,370.87646,468.03564,370.87646,466.37061Z" fill="#867768"/><path d="M375.0918,462.71045l.105,1.0498h.04492a3.43748,3.43748,0,0,1,2.44482-1.22949c1.52979,0,2.21973.99024,2.21973,2.84961v4.62012h-1.23v-4.45508c0-1.36426-.41992-1.94922-1.37988-1.94922-.75,0-1.25977.38965-1.99463,1.125v5.2793h-1.23v-7.29Z" fill="#867768"/><line x1="208.00003" y1="200" x2="220.00003" y2="200" fill="none" stroke="#7f7f7f" stroke-width="1.2"/><line x1="208.00003" y1="120" x2="220.00003" y2="120" fill="none" stroke="#7f7f7f" stroke-width="1.2"/><line x1="260.00004" y1="292" x2="260.00004" y2="280" fill="none" stroke="#7f7f7f" stroke-width="1.2"/><line x1="300.00004" y1="292" x2="300.00004" y2="280" fill="none" stroke="#7f7f7f" stroke-width="1.2"/><line x1="340.00004" y1="292" x2="340.00004" y2="280" fill="none" stroke="#7f7f7f" stroke-width="1.2"/><line x1="380.00004" y1="292" x2="380.00004" y2="280" fill="none" stroke="#7f7f7f" stroke-width="1.2"/><line x1="420.00004" y1="292" x2="420.00004" y2="280" fill="none" stroke="#7f7f7f" stroke-width="1.2"/><line x1="460.00004" y1="292" x2="460.00004" y2="280" fill="none" stroke="#7f7f7f" stroke-width="1.2"/><line x1="500.00004" y1="292" x2="500.00004" y2="280" fill="none" stroke="#7f7f7f" stroke-width="1.2"/><line x1="208.00003" y1="530.00068" x2="220.00003" y2="530.00068" fill="none" stroke="#7f7f7f" stroke-width="1.2"/><line x1="208.00003" y1="450.00068" x2="220.00003" y2="450.00068" fill="none" stroke="#7f7f7f" stroke-width="1.2"/><line x1="260.00004" y1="622.00068" x2="260.00004" y2="610.00068" fill="none" stroke="#7f7f7f" stroke-width="1.2"/><line x1="300.00004" y1="622.00068" x2="300.00004" y2="610.00068" fill="none" stroke="#7f7f7f" stroke-width="1.2"/><line x1="340.00004" y1="622.00068" x2="340.00004" y2="610.00068" fill="none" stroke="#7f7f7f" stroke-width="1.2"/><line x1="380.00004" y1="622.00068" x2="380.00004" y2="610.00068" fill="none" stroke="#7f7f7f" stroke-width="1.2"/><line x1="420.00004" y1="622.00068" x2="420.00004" y2="610.00068" fill="none" stroke="#7f7f7f" stroke-width="1.2"/><line x1="460.00004" y1="622.00068" x2="460.00004" y2="610.00068" fill="none" stroke="#7f7f7f" stroke-width="1.2"/><line x1="500.00004" y1="622.00068" x2="500.00004" y2="610.00068" fill="none" stroke="#7f7f7f" stroke-width="1.2"/><line x1="219" y1="200.00001" x2="220" y2="200.00001" fill="none" stroke="#666"/><line x1="222.00537" y1="200.00001" x2="597.99744" y2="200.00001" fill="none" stroke="#666" stroke-dasharray="2.00529 2.00529"/><line x1="599" y1="200.00001" x2="600" y2="200.00001" fill="none" stroke="#666"/><line x1="260" y1="280.00001" x2="260" y2="279.00001" fill="none" stroke="#666"/><line x1="260" y1="277.00001" x2="260" y2="202.00001" fill="none" stroke="#666" stroke-dasharray="2 2"/><line x1="260" y1="201.00001" x2="260" y2="200.00001" fill="none" stroke="#666"/><line x1="340" y1="280.00001" x2="340" y2="279.00001" fill="none" stroke="#666"/><line x1="340" y1="277.00001" x2="340" y2="202.00001" fill="none" stroke="#666" stroke-dasharray="2 2"/><line x1="340" y1="201.00001" x2="340" y2="200.00001" fill="none" stroke="#666"/><line x1="420" y1="280.00001" x2="420" y2="279.00001" fill="none" stroke="#666"/><line x1="420" y1="277.00001" x2="420" y2="202.00001" fill="none" stroke="#666" stroke-dasharray="2 2"/><line x1="420" y1="201.00001" x2="420" y2="200.00001" fill="none" stroke="#666"/><line x1="500" y1="280.00001" x2="500" y2="279.00001" fill="none" stroke="#666"/><line x1="500" y1="277.00001" x2="500" y2="202.00001" fill="none" stroke="#666" stroke-dasharray="2 2"/><line x1="500" y1="201.00001" x2="500" y2="200.00001" fill="none" stroke="#666"/><line x1="219" y1="530.00068" x2="220" y2="530.00068" fill="none" stroke="#666"/><line x1="222.00635" y1="530.00068" x2="537.99683" y2="530.00068" fill="none" stroke="#666" stroke-dasharray="2.00629 2.00629"/><line x1="539" y1="530.00068" x2="540" y2="530.00068" fill="none" stroke="#666"/><line x1="219" y1="450.00068" x2="220" y2="450.00068" fill="none" stroke="#666"/><line x1="222.00635" y1="450.00068" x2="537.99683" y2="450.00068" fill="none" stroke="#666" stroke-dasharray="2.00629 2.00629"/><line x1="539" y1="450.00068" x2="540" y2="450.00068" fill="none" stroke="#666"/><line x1="380" y1="610.00068" x2="380" y2="609.00068" fill="none" stroke="#666"/><line x1="380" y1="607.00068" x2="380" y2="532.00068" fill="none" stroke="#666" stroke-dasharray="2 2"/><line x1="380" y1="531.00068" x2="380" y2="530.00068" fill="none" stroke="#666"/><path d="M160,280c60,0,79.91261-19.73781,100-80,20-60,40-80,100-80H600" fill="none" stroke="#e9a460" stroke-width="1.4"/><path d="M600,120c-60,0-79.9126,19.73781-100,80-20,60-40,80-100,80H160" fill="none" stroke="#e9a460" stroke-width="1.4"/><path d="M520,120c-60,0-79.9126,19.73781-100,80-20,60-40,80-100,80" fill="none" stroke="#e9a460" stroke-width="1.4"/><path d="M440,120c-60,0-79.9126,19.73781-100,80-20,60-40,80-100,80" fill="none" stroke="#e9a460" stroke-width="1.4"/><path d="M220,610.00068c61.53843-.00033,115.96685-37.06725,160-79.99983,49.23071-48.00023,98.46147-80.00017,160-79.99984" fill="none" stroke="#e9a460" stroke-width="1.4"/><path d="M269.23074,610.00068C380,610.00035,380,610.00035,380,530.00052s0-79.99984,110.76921-79.99984" fill="none" stroke="#e9a460" stroke-width="1.4"/><path d="M252.82049,610.00068c94.35895-.00033,111.88977-12.58545,127.17948-80,15.78078-69.57981,32.82049-80,127.17947-79.99984" fill="none" stroke="#e9a460" stroke-width="1.4"/><path d="M236.41025,610.00068C314.35894,610.00035,350.12259,584.81451,380,530.00074c32.26176-59.18819,65.641-80.00006,143.58974-79.99984" fill="none" stroke="#e9a460" stroke-width="1.4"/><line x1="270" y1="180.00001" x2="502.7854" y2="180.00001" fill="none" stroke="#867768" stroke-width="1.4" stroke-dasharray="2 2"/><polygon points="499.074 184.581 498.31 183.76 502.356 180.001 498.31 176.241 499.074 175.42 504 180.001 499.074 184.581" fill="#867768"/><path d="M415,496.62568c-3.69971-7.43969-16.32642-19.42059-26.49243-24.592" fill="none" stroke="#867768" stroke-width="1.4" stroke-dasharray="2 2"/><polygon points="393.925 469.803 394.209 470.887 388.865 472.279 390.644 477.508 389.582 477.868 387.417 471.5 393.925 469.803" fill="#867768"/></svg>