<svg enable-background="new 0 0 3720 1660" viewBox="0 0 3720 1660" xmlns="http://www.w3.org/2000/svg"><path d="m917.071838 1230h-121.071838" fill="none" stroke="#0089ff" stroke-miterlimit="10" stroke-width="3"/><path d="m908.1254272 1218.9573975-1.8417358 1.977539 9.7518921 9.062378-9.7518921 9.0650634 1.8417358 1.9775391 11.8745728-11.0426025z" fill="#0089ff"/><path d="m3039.963867 356.928162v97.071838" fill="none" stroke="#0089ff" stroke-miterlimit="10" stroke-width="3"/><path d="m3028.9213867 365.8745728 1.9775391 1.8417663 9.0622558-9.7519226 9.0651856 9.7519226 1.977539-1.8417663-11.0427246-11.8745728z" fill="#0089ff"/><path d="m3086.9282227 470h353.0717773v840h-230v70" fill="none" stroke="#0089ff" stroke-miterlimit="10" stroke-width="3"/><path d="m3095.8745117 481.042572 1.8417969-1.977539-9.7519531-9.0624085 9.7519531-9.0650329-1.8417969-1.9775391-11.8745117 11.042572z" fill="#0089ff"/><path d="m2993.0717773 470h-33.0717773v30h460v790h-230v90" fill="none" stroke="#0089ff" stroke-miterlimit="10" stroke-width="3"/><path d="m2984.1254883 458.957428-1.8417969 1.977539 9.7519531 9.0624085-9.7519531 9.0650329 1.8417969 1.9775391 11.8745117-11.042572z" fill="#0089ff"/><path d="m758.071899 1230h-22.071899" fill="none" stroke="#0089ff" stroke-miterlimit="10" stroke-width="3"/><path d="m749.1254272 1218.9573975-1.8417358 1.977539 9.7518921 9.062378-9.7518921 9.0650634 1.8417358 1.9775391 11.8745728-11.0426025z" fill="#0089ff"/><path d="m697.0718994 1230h-117.0718994v-1060h2780v140h-80" fill="none" stroke="#0089ff" stroke-miterlimit="10" stroke-width="3"/><path d="m688.1254272 1218.9573975-1.8417358 1.977539 9.7518921 9.062378-9.7518921 9.0650634 1.8417358 1.9775391 11.8745728-11.0426025z" fill="#0089ff"/><path d="m3108.071777 310-28.071777.000031" fill="none" stroke="#0089ff" stroke-miterlimit="10" stroke-width="3"/><path d="m3099.1254883 298.9574585-1.8417969 1.9775391 9.7519531 9.0623779-9.7519531 9.0650635 1.8417969 1.9775085 11.8745117-11.042572z" fill="#0089ff"/><path d="m3233.071777 310-27.071777.000031" fill="none" stroke="#0089ff" stroke-miterlimit="10" stroke-width="3"/><path d="m3224.1254883 298.9574585-1.8417969 1.9775085 9.7519531 9.0624085-9.7519531 9.0650329 1.8417969 1.9775391 11.8745117-11.042572z" fill="#0089ff"/><path d="m2840 356.9281616v173.0718384h400v260h-40" fill="none" stroke="#0089ff" stroke-miterlimit="10" stroke-width="3"/><path d="m2828.9575195 365.8745728 1.9775391 1.8417663 9.0622559-9.7519226 9.0651855 9.7518921 1.9775391-1.8417358-11.0427246-11.8745728z" fill="#0089ff"/><path d="m2620 356.9281616v433.0718384h-40" fill="none" stroke="#0089ff" stroke-miterlimit="10" stroke-width="3"/><path d="m2608.9575195 365.8745728 1.9775391 1.8417663 9.0622559-9.7519226 9.0651855 9.7518921 1.9775391-1.8417358-11.0427246-11.8745728z" fill="#0089ff"/><path d="m1860 1047.0717773v-57.0717773h206v-820" fill="none" stroke="#0089ff" stroke-miterlimit="10" stroke-width="3"/><path d="m1871.0426025 1038.1254883-1.977539-1.8417969-9.062378 9.7519531-9.0650634-9.7519531-1.9775391 1.8417969 11.0426025 11.8745117z" fill="#0089ff"/><path d="m1860 387.071838v-217.071838" fill="none" stroke="#0089ff" stroke-miterlimit="10" stroke-width="3"/><path d="m1871.0426025 378.1254272-1.977539-1.8417663-9.062378 9.7519226-9.0650634-9.7519226-1.9775391 1.8417663 11.0426025 11.8745728z" fill="#0089ff"/><path d="m1860 523.071838v-97.071838" fill="none" stroke="#0089ff" stroke-miterlimit="10" stroke-width="3"/><path d="m1871.0426025 514.1254272-1.977539-1.8417358-9.062378 9.7518921-9.0650634-9.7518921-1.9775391 1.8417358 11.0426025 11.8745728z" fill="#0089ff"/><path d="m917.071838 530.001831-121.071838.074463" fill="none" stroke="#0089ff" stroke-miterlimit="10" stroke-width="3"/><path d="m908.1186523 518.9647217-1.8405761 1.9786987 9.7575073 9.0563355-9.7463379 9.0711059 1.8429565 1.9763794 11.8677979-11.0498657z" fill="#0089ff"/><path d="m757.071899 530.016235-21.071899.116455" fill="none" stroke="#0089ff" stroke-miterlimit="10" stroke-width="3"/><path d="m748.0645142 519.0232544-1.8307496 1.9877319 9.8018799 9.0083008-9.7016601 9.1188355 1.8526611 1.9673462 11.8133545-11.1080933z" fill="#0089ff"/><path d="m697.071838 530h-117.071838" fill="none" stroke="#0089ff" stroke-miterlimit="10" stroke-width="3"/><g fill="#0089ff"><path d="m688.1254272 518.9573975-1.8417358 1.977539 9.7518921 9.062439-9.7518921 9.0650024 1.8417358 1.9775391 11.8745728-11.0425415z"/><path d="m1860 177c-3.8499756 0-7-3.1499939-7-7 0-3.8500061 3.1500244-7 7-7 3.8499756 0 7 3.1499939 7 7 0 3.8500061-3.1500244 7-7 7z"/><path d="m2066 177c-3.8500977 0-7-3.1499939-7-7 0-3.8500061 3.1499023-7 7-7 3.8500977 0 7 3.1499939 7 7 0 3.8500061-3.1499023 7-7 7z"/><path d="m580 537c-3.8499756 0-7-3.1500244-7-7 0-3.8499756 3.1500244-7 7-7 3.8499756 0 7 3.1500244 7 7 0 3.8499756-3.1500244 7-7 7z"/><path d="m2620 797c-3.8500977 0-7-3.1500244-7-7 0-3.8499756 3.1499023-7 7-7 3.8500977 0 7 3.1500244 7 7 0 3.8499756-3.1499023 7-7 7z"/><path d="m3240 797c-3.8500977 0-7-3.1500244-7-7 0-3.8499756 3.1499023-7 7-7 3.8500977 0 7 3.1500244 7 7 0 3.8499756-3.1499023 7-7 7z"/><path d="m656 542h-14c-6.5999756 0-12-5.3999634-12-12 0-6.5999756 5.4000244-12 12-12h14c6.5999756 0 12 5.4000244 12 12 0 6.6000366-5.4000244 12-12 12z"/><path d="m1867 1027h-14c-6.5999756 0-12-5.3999634-12-12 0-6.5999756 5.4000244-12 12-12h14c6.5999756 0 12 5.4000244 12 12 0 6.6000366-5.4000244 12-12 12z"/><path d="m1867 367h-14c-6.5999756 0-12-5.3999939-12-12 0-6.6000061 5.4000244-12 12-12h14c6.5999756 0 12 5.3999939 12 12 0 6.6000061-5.4000244 12-12 12z"/><path d="m3152 512h-24c-6.6000977 0-12-5.3999939-12-12 0-6.6000061 5.3999023-12 12-12h24c6.6000977 0 12 5.3999939 12 12 0 6.6000061-5.3999023 12-12 12z"/><path d="m3075 402h-70c-6.6000977 0-12-5.3999939-12-12 0-6.6000061 5.3999023-12 12-12h70c6.6000977 0 12 5.3999939 12 12 0 6.6000061-5.3999023 12-12 12z"/><path d="m2852 402h-24c-6.6000977 0-12-5.3999939-12-12 0-6.6000061 5.3999023-12 12-12h24c6.6000977 0 12 5.3999939 12 12 0 6.6000061-5.3999023 12-12 12z"/><path d="m2655 402h-70c-6.6000977 0-12-5.3999939-12-12 0-6.6000061 5.3999023-12 12-12h70c6.6000977 0 12 5.3999939 12 12 0 6.6000061-5.3999023 12-12 12z"/><path d="m3152 482h-24c-6.6000977 0-12-5.3999939-12-12 0-6.6000061 5.3999023-12 12-12h24c6.6000977 0 12 5.3999939 12 12 0 6.6000061-5.3999023 12-12 12z"/><path d="m656 1242h-14c-6.5999756 0-12-5.4000244-12-12 0-6.5999756 5.4000244-12 12-12h14c6.5999756 0 12 5.4000244 12 12 0 6.5999756-5.4000244 12-12 12z"/></g><path d="m639.5908203 524.1767578h7.9023438v1.9609375h-5.5820312v3.7001953h4.7617188v1.9609375h-4.7617188v5.4609375h-2.3203125v-13.0830078z"/><path d="m649.7910156 524.1767578h4.1806641c2.7011719 0 4.6816406.8203125 4.6816406 3.2207031 0 1.2402344-.6806641 2.4404297-1.8203125 2.8408203v.0800781c1.4404297.3203125 2.5 1.3398438 2.5 3.1005859 0 2.6201172-2.140625 3.8408203-5.0205078 3.8408203h-4.5214844zm3.9814453 5.4013672c1.8203125 0 2.6005859-.7197266 2.6005859-1.8408203 0-1.2802734-.8603516-1.7597656-2.5605469-1.7597656h-1.7011719v3.6005859zm.2998047 5.8808594c1.9199219 0 3.0009766-.7001953 3.0009766-2.1601562 0-1.3798828-1.0410156-1.9804688-3.0009766-1.9804688h-1.9609375v4.140625z"/><path d="m1850.5908203 1009.1767578h7.9023438v1.9609375h-5.5820312v3.7001953h4.7617188v1.9609375h-4.7617188v5.4609375h-2.3203125v-13.0830078z"/><path d="m1860.7910156 1009.1767578h4.1806641c2.7011719 0 4.6816406.8203125 4.6816406 3.2207031 0 1.2402344-.6806641 2.4404297-1.8203125 2.8408203v.0800781c1.4404297.3203125 2.5 1.3398438 2.5 3.1005859 0 2.6201172-2.140625 3.8408203-5.0205078 3.8408203h-4.5214844zm3.9814453 5.4013672c1.8203125 0 2.6005859-.7197266 2.6005859-1.8408203 0-1.2802734-.8603516-1.7597656-2.5605469-1.7597656h-1.7011719v3.6005859zm.2998047 5.8808594c1.9199219 0 3.0009766-.7001953 3.0009766-2.1601562 0-1.3798828-1.0410156-1.9804688-3.0009766-1.9804688h-1.9609375v4.140625z"/><path d="m1850.5908203 349.1767578h7.9023438v1.9604492h-5.5820312v3.7011719h4.7617188v1.9604492h-4.7617188v5.4609375h-2.3203125v-13.0830078z"/><path d="m1860.7910156 349.1767578h4.1806641c2.7011719 0 4.6816406.8203125 4.6816406 3.2207031 0 1.2402344-.6806641 2.440918-1.8203125 2.8408203v.0800781c1.4404297.3198242 2.5 1.340332 2.5 3.1005859 0 2.6206055-2.140625 3.8408203-5.0205078 3.8408203h-4.5214844zm3.9814453 5.4013672c1.8203125 0 2.6005859-.7202148 2.6005859-1.840332 0-1.2802734-.8603516-1.7602539-2.5605469-1.7602539h-1.7011719v3.6005859zm.2998047 5.8813477c1.9199219 0 3.0009766-.7001953 3.0009766-2.1606445 0-1.3803711-1.0410156-1.9804688-3.0009766-1.9804688h-1.9609375v4.1411133z"/><path d="m3126.7636719 492.8037109h3.5009766c4.0009766 0 6.3613281 2.1611328 6.3613281 6.4814453 0 4.3408203-2.3603516 6.6015625-6.2412109 6.6015625h-3.6210938zm3.3408203 11.2021485c2.640625 0 4.140625-1.5 4.140625-4.7207031 0-3.2001953-1.5-4.6005859-4.140625-4.6005859h-1.0205078v9.3212891h1.0205078z"/><path d="m3139.0634766 496.0644531h1.9003906l.1601562 1.7402344h.0800781c.7001953-1.2802734 1.7402344-1.9804688 2.78125-1.9804688.5 0 .8193359.0605469 1.1201172.2001953l-.4003906 2.0009766c-.3398438-.1005859-.6005859-.1601562-1.0205078-.1601562-.7802734 0-1.7197266.5400391-2.3203125 2.0205078v6.0009766h-2.3007812z"/><path d="m3146.2226562 509.7275391.4208984-1.8007812c.1796875.0605469.4599609.140625.6992188.140625 1.0410156 0 1.640625-.7001953 1.9609375-1.6806641l.1796875-.6201172-3.8603516-9.7021484h2.3398438l1.7011719 4.8212891c.2792969.8603516.5595703 1.8398438.859375 2.7607422h.0800781c.2402344-.9003906.5009766-1.8808594.7402344-2.7607422l1.4804688-4.8212891h2.2207031l-3.5605469 10.2626953c-.8203125 2.2197266-1.8408203 3.6005859-3.9814453 3.6005859-.5400391 0-.9199219-.0800782-1.2802735-.2001953z"/><path d="m3012.9833984 384.1767578h7.8818359v1.9604492h-5.5615234v3.3408203h4.7011719v1.9604492h-4.7011719v3.8608398h5.7617188v1.9604492h-8.0820312v-13.0830077z"/><path d="m3029.9648438 389.2578125h-3.7207031v8.0019531h-2.3007812v-8.0019531h-1.3203125v-1.7202148l1.3203125-.1000977v-.8598633c0-2.0205078 1.0205078-3.480957 3.4003906-3.480957.7402344 0 1.4404297.1401367 1.9208984.3603516l-.4404297 1.7202148c-.3798828-.1801758-.7197266-.2602539-1.2402344-.2602539-.8203125 0-1.3398438.5600586-1.3398438 1.6606445v.8598633h3.7207031v-1.0200195c0-2.0405273.9199219-3.5209961 3.2402344-3.5209961.7207031 0 1.3603516.1601562 1.8007812.340332l-.4404297 1.7202148c-.3398438-.1601562-.7197266-.2397461-1.0595703-.2397461-.8203125 0-1.2402344.5200195-1.2402344 1.6601562v1.0600587h1.9199219v1.8203125h-1.9199219v8.0019531h-2.3007812v-8.0019531z"/><path d="m3035.0634766 392.3588867c0-3.2006836 2.2207031-5.1611328 4.5205078-5.1611328 2.6611328 0 4.0615234 1.9204102 4.0615234 4.6606445 0 .4404297-.0400391.8803711-.1005859 1.1206055h-6.2412109c.2001953 1.7402344 1.3203125 2.7402344 2.9003906 2.7402344.8408203 0 1.5605469-.2597656 2.28125-.7197266l.7792969 1.4399414c-.9394531.6201172-2.1201172 1.0605469-3.3603516 1.0605469-2.7207031 0-4.8408203-1.9003906-4.8408203-5.1411133zm6.5810546-.9404297c0-1.5200195-.6601562-2.4404297-2-2.4404297-1.1601562 0-2.1611328.8603516-2.3603516 2.4404297z"/><path d="m3045.203125 392.3588867c0-3.2807617 2.3007812-5.1611328 4.9208984-5.1611328 1.2607422 0 2.1601562.4799805 2.8808594 1.1000977l-1.1201172 1.5004883c-.5205078-.4604492-1.0205078-.7202148-1.640625-.7202148-1.5800781 0-2.6806641 1.300293-2.6806641 3.2807617 0 1.9604492 1.0800781 3.2607422 2.6201172 3.2607422.7607422 0 1.4609375-.3803711 2.0205078-.840332l.9404297 1.5205078c-.9199219.7998047-2.0800781 1.2001953-3.2001953 1.2001953-2.680664-.0000001-4.7412109-1.8803712-4.7412109-5.1411134z"/><path d="m3055.2236328 393.9389648v-4.6811523h-1.4003906v-1.7202148l1.5205078-.1000977.2792969-2.6801758h1.9208984v2.6801758h2.5v1.8203125h-2.5v4.6811523c0 1.1601562.4394531 1.7202148 1.3798828 1.7202148.3398438 0 .7402344-.0996094 1.0205078-.2197266l.4003906 1.7001953c-.5400391.1801758-1.2207031.3603516-2.0009766.3603516-2.2802733.0000001-3.1201171-1.4404296-3.1201171-3.5610351z"/><path d="m3060.9228516 396.1396484 1.0800781-1.4804688c.8798828.6801758 1.7197266 1.1000977 2.7207031 1.1000977 1.0595703 0 1.5595703-.5 1.5595703-1.1801758 0-.8203125-1.0595703-1.1801758-2.0996094-1.5800781-1.3007812-.4804688-2.7607422-1.2202148-2.7607422-2.8608398 0-1.7202148 1.3798828-2.9404297 3.5800781-2.9404297 1.3603516 0 2.4609375.5600586 3.2607422 1.1801758l-1.0595703 1.4003906c-.6806641-.5004883-1.3808594-.840332-2.1611328-.840332-.9794922 0-1.4394531.4599609-1.4394531 1.0800781 0 .7802734.9794922 1.0805664 2.0400391 1.4604492 1.3398438.5 2.8203125 1.1401367 2.8203125 2.9804688 0 1.6806641-1.3398438 3.0410156-3.8203125 3.0410156-1.3408203 0-2.7607422-.5800781-3.7207031-1.3603516z"/><path d="m2825.0429688 395.5795898 1.3603516-1.5805664c.9404297.8803711 2.2011719 1.4804688 3.4013672 1.4804688 1.4804688 0 2.2802734-.6601562 2.2802734-1.6806641 0-1.0800781-.8398438-1.4199219-2.0205078-1.9204102l-1.8007812-.7797852c-1.2802734-.5405273-2.640625-1.5605469-2.640625-3.480957 0-2.0805664 1.8408203-3.6806641 4.4013672-3.6806641 1.5205078 0 3.0009766.6401367 4.0205078 1.6601562l-1.1796875 1.4804688c-.8408203-.7001953-1.7207031-1.1201172-2.8408203-1.1201172-1.2402344 0-2.0605469.5800781-2.0605469 1.5400391 0 1.0205078 1 1.4003906 2.0810547 1.840332l1.7802734.7402344c1.5400391.6601562 2.640625 1.640625 2.640625 3.5410156 0 2.1201172-1.7607422 3.8808594-4.7011719 3.8808594-1.7607423.0000001-3.4814454-.7001952-4.7216797-1.9204101z"/><path d="m2835.1035156 384.1767578h2.4609375l1.8398438 6.581543c.4199219 1.4804688.7207031 2.7607422 1.1601562 4.2612305h.0800781c.4404297-1.5004883.7402344-2.7807617 1.140625-4.2612305l1.8203125-6.581543h2.3808594l-4.0615234 13.0830078h-2.7402344z"/><path d="m2847.5634766 384.1767578h7.9023438v1.9604492h-5.5820312v3.7011719h4.7617188v1.9604492h-4.7617188v5.4609375h-2.3203125v-13.0830078z"/><path d="m2595.8642578 390.7583008c0-4.2807617 2.6806641-6.8212891 5.9814453-6.8212891 1.6396484 0 2.9599609.7802734 3.7802734 1.6601562l-1.2402344 1.5004883c-.6796875-.6801758-1.4599609-1.1401367-2.4804688-1.1401367-2.140625 0-3.6611328 1.800293-3.6611328 4.7407227 0 2.980957 1.4003906 4.78125 3.6015625 4.78125 1.1601562 0 2.0595703-.5400391 2.7998047-1.340332l1.2402344 1.4604492c-1.0595703 1.2202148-2.4404297 1.9003906-4.1201172 1.9003906-3.3007811 0-5.9013671-2.4008789-5.9013671-6.7416992z"/><path d="m2607.2236328 392.3588867c0-3.2807617 2.2207031-5.1611328 4.6611328-5.1611328 2.4599609 0 4.6806641 1.8803711 4.6806641 5.1611328 0 3.2607422-2.2207031 5.1411133-4.6806641 5.1411133-2.4404297 0-4.6611328-1.8803711-4.6611328-5.1411133zm6.9814453 0c0-1.9804688-.8798828-3.2807617-2.3203125-3.2807617s-2.3007812 1.300293-2.3007812 3.2807617c0 1.9604492.8603516 3.2607422 2.3007812 3.2607422s2.3203125-1.300293 2.3203125-3.2607422z"/><path d="m2618.84375 387.4375h1.9003906l.1601562 1.340332h.0800781c.8203125-.8798828 1.7802734-1.5800781 3.0009766-1.5800781 1.4404297 0 2.2607422.6601562 2.7207031 1.7602539.9394531-1 1.9199219-1.7602539 3.1601562-1.7602539 2.0810547 0 3.0410156 1.4204102 3.0410156 3.9008789v6.1611328h-2.3203125v-5.8613281c0-1.6201172-.4804688-2.2202148-1.5009766-2.2202148-.6201172 0-1.2998047.3999023-2.0605469 1.2202148v6.8613281h-2.2998047v-5.8613281c0-1.6201172-.4804688-2.2202148-1.5205078-2.2202148-.6005859 0-1.3007812.3999023-2.0605469 1.2202148v6.8613281h-2.3007812v-9.8222656z"/><path d="m2637.7841797 396.2197266h-.0605469l-.2001953 1.0400391h-1.8203125v-14.1230469h2.3007812v3.640625l-.0595703 1.640625c.8193359-.7202148 1.8398438-1.2202148 2.8398438-1.2202148 2.4609375 0 3.8808594 1.9604492 3.8808594 4.980957 0 3.3808594-2.0205078 5.3212891-4.2001953 5.3212891-.9003907-.0000001-1.8603516-.4604493-2.6806641-1.2802735zm4.5009765-4.0009766c0-1.9604492-.640625-3.1206055-2.1210938-3.1206055-.7197266 0-1.4003906.3598633-2.1601562 1.1000977v4.5810547c.7001953.6000977 1.4003906.8203125 1.9804688.8203125 1.3007812 0 2.3007812-1.1606446 2.3007812-3.3808594z"/><path d="m3123.9736328 464.2402344h2.3798828l1.140625 6.6015625c.2197266 1.4003906.4404297 2.8007812.6396484 4.1806641h.0800781c.2802734-1.3798828.5605469-2.8007812.8603516-4.1806641l1.6005859-6.6015625h2.0205078l1.6005859 6.6015625c.2998047 1.3603516.5800781 2.7802734.8798828 4.1806641h.0800781c.2001953-1.4003906.4199219-2.8007812.6201172-4.1806641l1.140625-6.6015625h2.2197266l-2.5 13.0830078h-2.8808594l-1.6201172-6.8818359c-.2207031-1.0195312-.4199219-2.0205078-.5800781-3.0205078h-.0800781c-.1806641 1-.3798828 2.0009766-.6005859 3.0205078l-1.5800781 6.8818359h-2.8203125z"/><path d="m3140.4335938 472.421875c0-3.2001953 2.2207031-5.1611328 4.5205078-5.1611328 2.6611328 0 4.0615234 1.9208984 4.0615234 4.6611328 0 .4404297-.0400391.8808594-.1005859 1.1201172h-6.2412109c.2001953 1.7402344 1.3203125 2.7412109 2.9003906 2.7412109.8408203 0 1.5605469-.2607422 2.28125-.7207031l.7792969 1.4404297c-.9394531.6201172-2.1201172 1.0605469-3.3603516 1.0605469-2.7207032 0-4.8408203-1.9003907-4.8408203-5.1416016zm6.5810546-.9394531c0-1.5205078-.6601562-2.4414062-2-2.4414062-1.1601562 0-2.1611328.8603516-2.3603516 2.4414062z"/><path d="m3151.3535156 474.0029297v-4.6816406h-1.4003906v-1.7197266l1.5195312-.1005859.2802734-2.6806641h1.9208984v2.6806641h2.5v1.8203125h-2.5v4.6816406c0 1.1601562.4394531 1.7197266 1.3798828 1.7197266.3398438 0 .7402344-.0996094 1.0205078-.2197266l.4003906 1.7001953c-.5400391.1796875-1.2207031.3603516-2.0009766.3603516-2.2802732 0-3.120117-1.4404297-3.120117-3.5605469z"/><path d="m639.5908203 1224.1767578h7.9023438v1.9609375h-5.5820312v3.7001953h4.7617188v1.9609375h-4.7617188v5.4609375h-2.3203125v-13.0830078z"/><path d="m649.7910156 1224.1767578h4.1806641c2.7011719 0 4.6816406.8203125 4.6816406 3.2207031 0 1.2402344-.6806641 2.4404297-1.8203125 2.8408203v.0800781c1.4404297.3203125 2.5 1.3398438 2.5 3.1005859 0 2.6201172-2.140625 3.8408203-5.0205078 3.8408203h-4.5214844zm3.9814453 5.4013672c1.8203125 0 2.6005859-.7197266 2.6005859-1.8408203 0-1.2802734-.8603516-1.7597656-2.5605469-1.7597656h-1.7011719v3.6005859zm.2998047 5.8808594c1.9199219 0 3.0009766-.7001953 3.0009766-2.1601562 0-1.3798828-1.0410156-1.9804688-3.0009766-1.9804688h-1.9609375v4.140625z"/></svg>