<svg enable-background="new 0 0 3160 1460" viewBox="0 0 3160 1460" xmlns="http://www.w3.org/2000/svg"><path d="m1160 486v130h-500v150h112.8983154" fill="none" stroke="#0089ff" stroke-miterlimit="10" stroke-width="2.6"/><path d="m763.4217529 777.6969604-1.9508667-2.0947265 10.329773-9.5994263-10.329773-9.6022339 1.9508667-2.0947265 12.5782471 11.6969604z" fill="#0089ff"/><path d="m980 806h52.898315" fill="none" stroke="#0089ff" stroke-miterlimit="10" stroke-width="2.6"/><path d="m1023.4217529 817.6969604-1.9508667-2.0947265 10.329773-9.5994263-10.329773-9.6022339 1.9508667-2.0947265 12.5782471 11.6969604z" fill="#0089ff"/><path d="m980 426h52.898315" fill="none" stroke="#0089ff" stroke-miterlimit="10" stroke-width="2.6"/><path d="m1023.4217529 437.6969299-1.9508667-2.094696 10.329773-9.5994263-10.329773-9.6022644 1.9508667-2.094696 12.5782471 11.6969604z" fill="#0089ff"/><path d="m1160 866v130h-540v-610h152.8983154" fill="none" stroke="#0089ff" stroke-miterlimit="10" stroke-width="2.6"/><path d="m763.4217529 397.6969299-1.9508667-2.094696 10.329773-9.5994263-10.329773-9.6022644 1.9508667-2.094696 12.5782471 11.6969604z" fill="#0089ff"/><path d="m1240 426h58.898315" fill="none" stroke="#0089ff" stroke-miterlimit="10" stroke-width="2.6"/><path d="m1289.4217529 437.6969299-1.9509277-2.094696 10.329834-9.5994263-10.329834-9.6022644 1.9509277-2.094696 12.5782471 11.6969604z" fill="#0089ff"/><path d="m1240 806h58.898315" fill="none" stroke="#0089ff" stroke-miterlimit="10" stroke-width="2.6"/><path d="m1289.4217529 817.6969604-1.9509277-2.0947265 10.329834-9.5994263-10.329834-9.6022339 1.9509277-2.0947265 12.5782471 11.6969604z" fill="#0089ff"/><path d="m1354 426h172.898315" fill="none" stroke="#0089ff" stroke-miterlimit="10" stroke-width="2.6"/><path d="m1517.4217529 437.6969299-1.9509277-2.094696 10.329834-9.5994263-10.329834-9.6022644 1.9509277-2.094696 12.5782471 11.6969604z" fill="#0089ff"/><path d="m1354 806h172.898315" fill="none" stroke="#0089ff" stroke-miterlimit="10" stroke-width="2.6"/><path d="m1517.4217529 817.6969604-1.9509277-2.0947265 10.329834-9.5994263-10.329834-9.6022339 1.9509277-2.0947265 12.5782471 11.6969604z" fill="#0089ff"/><path d="m1646 426h63.898315" fill="none" stroke="#0089ff" stroke-miterlimit="10" stroke-width="2.6"/><path d="m1700.4217529 437.6969299-1.9509277-2.094696 10.329834-9.5994263-10.329834-9.6022644 1.9509277-2.094696 12.5782471 11.6969604z" fill="#0089ff"/><path d="m1646 806h63.898315" fill="none" stroke="#0089ff" stroke-miterlimit="10" stroke-width="2.6"/><path d="m1700.4217529 817.6969604-1.9509277-2.0947265 10.329834-9.5994263-10.329834-9.6022339 1.9509277-2.0947265 12.5782471 11.6969604z" fill="#0089ff"/><path d="m1772.5 426h127.5v420h140v112.8983154" fill="none" stroke="#0089ff" stroke-miterlimit="10" stroke-width="2.6"/><path d="m2028.3031006 949.4217529 2.0947265-1.9508667 9.5993653 10.329773 9.602417-10.329773 2.0947265 1.9508667-11.6971435 12.5782471z" fill="#0089ff"/><path d="m1772 806h408v152.8983154" fill="none" stroke="#0089ff" stroke-miterlimit="10" stroke-width="2.6"/><path d="m2168.3029785 949.4217529 2.0947266-1.9508667 9.5996094 10.329773 9.6020507-10.329773 2.0947266 1.9508667-11.6967773 12.5782471z" fill="#0089ff"/><path d="m2520 993.5h37.898438" fill="none" stroke="#0089ff" stroke-miterlimit="10" stroke-width="2.6"/><path d="m2548.4216309 1005.1969604-1.9506836-2.0947265 10.3298339-9.5994263-10.3298339-9.6022339 1.9506836-2.0947265 12.5783691 11.6969604z" fill="#0089ff"/><path d="m2520 1018.5h37.898438" fill="none" stroke="#0089ff" stroke-miterlimit="10" stroke-width="2.6"/><path d="m2548.4216309 1030.1970215-1.9506836-2.0947266 10.3298339-9.5994873-10.3298339-9.6022339 1.9506836-2.0947265 12.5783691 11.6969604z" fill="#0089ff"/><path d="m2695 996h105v150h-960v107.5h132.8983154" fill="none" stroke="#0089ff" stroke-miterlimit="10" stroke-width="2.6"/><path d="m1963.4217529 1265.1968994-1.9509277-2.0947265 10.329834-9.5993653-10.329834-9.6022949 1.9509277-2.0947266 12.5782471 11.6970215z" fill="#0089ff"/><path d="m2695 1016h85v110h-960v152.5h152.8983154" fill="none" stroke="#0089ff" stroke-miterlimit="10" stroke-width="2.6"/><path d="m1963.4217529 1290.1968994-1.9509277-2.0947265 10.329834-9.5993653-10.329834-9.6022949 1.9509277-2.0947266 12.5782471 11.6970215z" fill="#0089ff"/><path d="m2120 1253.5h52.898438" fill="none" stroke="#0089ff" stroke-miterlimit="10" stroke-width="2.6"/><path d="m2163.4216309 1265.1968994-1.9506836-2.0947265 10.3298339-9.5993653-10.3298339-9.6022949 1.9506836-2.0947266 12.5783691 11.6970215z" fill="#0089ff"/><path d="m2120 1278.5h52.898438" fill="none" stroke="#0089ff" stroke-miterlimit="10" stroke-width="2.6"/><path d="m2163.4216309 1290.1968994-1.9506836-2.0947265 10.3298339-9.5993653-10.3298339-9.6022949 1.9506836-2.0947266 12.5783691 11.6970215z" fill="#0089ff"/><path d="m2320 1253.5h52.898438" fill="none" stroke="#0089ff" stroke-miterlimit="10" stroke-width="2.6"/><path d="m2363.4216309 1265.1968994-1.9506836-2.0947265 10.3298339-9.5993653-10.3298339-9.6022949 1.9506836-2.0947266 12.5783691 11.6970215z" fill="#0089ff"/><path d="m2320 1278.5h52.898438" fill="none" stroke="#0089ff" stroke-miterlimit="10" stroke-width="2.6"/><path d="m2363.4216309 1290.1968994-1.9506836-2.0947265 10.3298339-9.5993653-10.3298339-9.6022949 1.9506836-2.0947266 12.5783691 11.6970215z" fill="#0089ff"/><path d="m2520 1253.5h52.898438" fill="none" stroke="#0089ff" stroke-miterlimit="10" stroke-width="2.6"/><path d="m2563.4216309 1265.1968994-1.9506836-2.0947265 10.3298339-9.5993653-10.3298339-9.6022949 1.9506836-2.0947266 12.5783691 11.6970215z" fill="#0089ff"/><path d="m2520 1278.5h52.898438" fill="none" stroke="#0089ff" stroke-miterlimit="10" stroke-width="2.6"/><path d="m2563.4216309 1290.1968994-1.9506836-2.0947265 10.3298339-9.5993653-10.3298339-9.6022949 1.9506836-2.0947266 12.5783691 11.6970215z" fill="#0089ff"/><path d="m2720 1253.5h52.898438" fill="none" stroke="#0089ff" stroke-miterlimit="10" stroke-width="2.6"/><path d="m2763.4216309 1265.1968994-1.9506836-2.0947265 10.3298339-9.5993653-10.3298339-9.6022949 1.9506836-2.0947266 12.5783691 11.6970215z" fill="#0089ff"/><path d="m2720 1278.5h52.898438" fill="none" stroke="#0089ff" stroke-miterlimit="10" stroke-width="2.6"/><path d="m2763.4216309 1290.1968994-1.9506836-2.0947265 10.3298339-9.5993653-10.3298339-9.6022949 1.9506836-2.0947266 12.5783691 11.6970215z" fill="#0089ff"/><path d="m2920 1253.5h156.898438" fill="none" stroke="#0089ff" stroke-miterlimit="10" stroke-width="2.6"/><path d="m3067.4216309 1265.1968994-1.9506836-2.0947265 10.3298339-9.5993653-10.3298339-9.6022949 1.9506836-2.0947266 12.5783691 11.6970215z" fill="#0089ff"/><path d="m2920 1278.5h156.898438" fill="none" stroke="#0089ff" stroke-miterlimit="10" stroke-width="2.6"/><g fill="#0089ff"><path d="m3067.4216309 1290.1968994-1.9506836-2.0947265 10.3298339-9.5993653-10.3298339-9.6022949 1.9506836-2.0947266 12.5783691 11.6970215z"/><path d="m720 400c-7.7000122 0-14-6.2999878-14-14 0-7.7000122 6.2999878-14 14-14 7.7000122 0 14 6.2999878 14 14 0 7.7000122-6.2999878 14-14 14z"/><path d="m1879 1267c-7.6999512 0-14-6.3000488-14-14 0-7.6999512 6.3000488-14 14-14 7.6999512 0 14 6.3000488 14 14 0 7.6999512-6.3000488 14-14 14z"/><path d="m2040 910c-7.6999512 0-14-6.2999878-14-13.999939v-.000061c0-7.7000122 6.3000488-14 14-14 7.6999512 0 14 6.2999878 14 14v.000061c0 7.6999512-6.3000488 13.999939-14 13.999939z"/><path d="m720 780c-7.7000122 0-14-6.2999878-14-14 0-7.7000122 6.2999878-14 14-14 7.7000122 0 14 6.2999878 14 14 0 7.7000122-6.2999878 14-14 14z"/><path d="m2180 910c-7.6999512 0-14-6.2999878-14-13.999939v-.000061c0-7.7000122 6.3000488-14 14-14 7.6999512 0 14 6.2999878 14 14v.000061c0 7.6999512-6.3000488 13.999939-14 13.999939z"/><path d="m1913 1292c-7.6999512 0-14-6.3000488-14-14 0-7.6999512 6.3000488-14 14-14 7.6999512 0 14 6.3000488 14 14 0 7.6999512-6.3000488 14-14 14z"/><path d="m3005 1267.5c-7.6999512 0-14-6.3000488-14-14 0-7.6999512 6.3000488-14 14-14 7.6999512 0 14 6.3000488 14 14 0 7.6999512-6.3000488 14-14 14z"/><path d="m3039 1291.5c-7.6999512 0-14-6.3000488-14-14 0-7.6999512 6.3000488-14 14-14 7.6999512 0 14 6.3000488 14 14 0 7.6999512-6.3000488 14-14 14z"/><path d="m1900 431c-2.75 0-5-2.25-5-5 0-2.75 2.25-5 5-5 2.75 0 5 2.25 5 5 0 2.75-2.25 5-5 5z" stroke="#0089ff" stroke-width="4"/><path d="m2180 811c-2.75 0-5-2.25-5-5 0-2.75 2.25-5 5-5 2.75 0 5 2.25 5 5 0 2.75-2.25 5-5 5z" stroke="#0089ff" stroke-width="4"/></g><path d="m2174.828125 888.8027344h5.0166016c3.2402344 0 5.6162109.984375 5.6162109 3.8642578 0 1.4882812-.8164062 2.9287109-2.1845703 3.4082031v.0957031c1.7285156.3847656 3.0009766 1.6083984 3.0009766 3.7207031 0 3.1445312-2.5683594 4.6083984-6.0244141 4.6083984h-5.4248047zm4.7763672 6.4804687c2.1845703 0 3.1201172-.8642578 3.1201172-2.2080078 0-1.5361328-1.0322266-2.1123047-3.0722656-2.1123047h-2.0400391v4.3203125zm.3603516 7.0566407c2.3037109 0 3.5996094-.8398438 3.5996094-2.5917969 0-1.65625-1.2480469-2.3769531-3.5996094-2.3769531h-2.3525391v4.96875z"/><path d="m2038.3681641 888.8027344h3.2646484l5.1123047 15.6972656h-2.9287109l-1.2236328-4.2480469h-5.2802735l-1.2246094 4.2480469h-2.8320312zm-.4082032 9.2646484h4.0087891l-.5527344-1.9199219c-.5039062-1.65625-.9599609-3.4560547-1.4160156-5.1845703h-.0957031c-.4316406 1.7519531-.8876953 3.5283203-1.3925781 5.1845703z"/><path d="m718.3681641 758.8027344h3.2646484l5.1123047 15.6972656h-2.9287109l-1.2236328-4.2480469h-5.2802735l-1.2246094 4.2480469h-2.8320312zm-.4082032 9.2646484h4.0087891l-.5527344-1.9199219c-.5039062-1.65625-.9599609-3.4560547-1.4160156-5.1845703h-.0957031c-.4316406 1.7519531-.8876953 3.5283203-1.3925781 5.1845703z"/><path d="m715.4941406 378.8027344h5.0166016c3.2402344 0 5.6162109.9838867 5.6162109 3.8642578 0 1.4882812-.8164062 2.9282227-2.1845703 3.4082031v.0961914c1.7285156.3837891 3.0009766 1.6079102 3.0009766 3.7202148 0 3.144043-2.5683594 4.6083984-6.0244141 4.6083984h-5.4248047zm4.7763672 6.4804687c2.1845703 0 3.1201172-.8642578 3.1201172-2.2080078 0-1.5361328-1.0322266-2.1123047-3.0722656-2.1123047h-2.0400391v4.3203125zm.3603516 7.0566407c2.3037109 0 3.5996094-.840332 3.5996094-2.5922852 0-1.65625-1.2480469-2.3759766-3.5996094-2.3759766h-2.3525391v4.9682617h2.3525391z"/><path d="m1874.7441406 1246.0625h2.7841797v13.3447266h6.5283203v2.3525391h-9.3125z"/><path d="m1908.2490234 1271.0625h5.3046875c3.2636719 0 5.7607422 1.1523438 5.7607422 4.65625 0 2.4003906-1.2490234 3.8408203-3.1210938 4.4882812l3.7451172 6.5527344h-3.1210938l-3.3837891-6.1445312h-2.4003906v6.1445312h-2.7841797v-15.6972656zm5.0166016 7.3447266c2.1357422 0 3.3125-.9121094 3.3125-2.6884766 0-1.7998047-1.1767578-2.4238281-3.3125-2.4238281h-2.2324219v5.1123047z"/><path d="m3000.7441406 1246.5625h2.7841797v13.3447266h6.5283203v2.3525391h-9.3125z"/><path d="m3034.2490234 1270.5625h5.3046875c3.2636719 0 5.7607422 1.1523438 5.7607422 4.65625 0 2.4003906-1.2490234 3.8408203-3.1210938 4.4882812l3.7451172 6.5527344h-3.1210938l-3.3837891-6.1445312h-2.4003906v6.1445312h-2.7841797v-15.6972656zm5.0166016 7.3447266c2.1357422 0 3.3125-.9121094 3.3125-2.6884766 0-1.7998047-1.1767578-2.4238281-3.3125-2.4238281h-2.2324219v5.1123047z"/></svg>