<svg xmlns="http://www.w3.org/2000/svg" viewBox="0 0 760 600"><title>osc-1</title><rect x="0.5" y="0.5" width="759" height="599" rx="3.5" ry="3.5" fill="#141414"/><path d="M756,1a3.0034,3.0034,0,0,1,3,3V596a3.0034,3.0034,0,0,1-3,3H4a3.00342,3.00342,0,0,1-3-3V4A3.00342,3.00342,0,0,1,4,1H756m0-1H4A4,4,0,0,0,0,4V596a4,4,0,0,0,4,4H756a4,4,0,0,0,4-4V4a4,4,0,0,0-4-4Z" fill="#666"/><rect x="10" y="10" width="380" height="180"/><rect x="410" y="10" width="340" height="180"/><rect x="10" y="210" width="380" height="180"/><rect x="410" y="210" width="340" height="180"/><rect x="10" y="410" width="380" height="180"/><rect x="410" y="410" width="340" height="180"/><line x1="70.00026" y1="30.00083" x2="70.00026" y2="190.00083" fill="none" stroke="#202020"/><line x1="50.00026" y1="30.00083" x2="50.00026" y2="190.00083" fill="none" stroke="#202020"/><line x1="90.00026" y1="30.00083" x2="90.00026" y2="190.00083" fill="none" stroke="#202020"/><line x1="110.00026" y1="30.00083" x2="110.00026" y2="190.00083" fill="none" stroke="#202020"/><line x1="130.00026" y1="30.00083" x2="130.00026" y2="190.00083" fill="none" stroke="#202020"/><line x1="150.00026" y1="30.00083" x2="150.00026" y2="190.00083" fill="none" stroke="#202020"/><line x1="170.00026" y1="30.00083" x2="170.00026" y2="190.00083" fill="none" stroke="#202020"/><line x1="190.00026" y1="30.00083" x2="190.00026" y2="190.00083" fill="none" stroke="#202020"/><line x1="210.00026" y1="30.00083" x2="210.00026" y2="190.00083" fill="none" stroke="#202020"/><line x1="230.00026" y1="30.00083" x2="230.00026" y2="190.00083" fill="none" stroke="#202020"/><line x1="250.00026" y1="30.00083" x2="250.00026" y2="190.00083" fill="none" stroke="#202020"/><line x1="270.00026" y1="30.00083" x2="270.00026" y2="190.00083" fill="none" stroke="#202020"/><line x1="290.00026" y1="30.00083" x2="290.00026" y2="190.00083" fill="none" stroke="#202020"/><line x1="310.00026" y1="30.00083" x2="310.00026" y2="190.00083" fill="none" stroke="#202020"/><line x1="330.00026" y1="30.00083" x2="330.00026" y2="190.00083" fill="none" stroke="#202020"/><line x1="350.00026" y1="30.00083" x2="350.00026" y2="190.00083" fill="none" stroke="#202020"/><line x1="370.00026" y1="30.00083" x2="370.00026" y2="190.00083" fill="none" stroke="#202020"/><line x1="10" y1="170.00091" x2="389.99966" y2="170.00091" fill="none" stroke="#202020"/><line x1="10" y1="150.00091" x2="389.99966" y2="150.00091" fill="none" stroke="#202020"/><line x1="10" y1="130.00091" x2="389.99966" y2="130.00091" fill="none" stroke="#202020"/><line x1="10" y1="110.00091" x2="389.99966" y2="110.00091" fill="none" stroke="#202020"/><line x1="10" y1="90.00091" x2="389.99966" y2="90.00091" fill="none" stroke="#202020"/><line x1="10.00037" y1="70.00091" x2="390.00003" y2="70.00091" fill="none" stroke="#202020"/><line x1="10.00037" y1="50.00091" x2="390.00003" y2="50.00091" fill="none" stroke="#202020"/><line x1="30.00026" y1="30.00083" x2="30.00026" y2="190.00083" fill="none" stroke="#202020"/><line x1="530.0002" y1="30.00083" x2="530.0002" y2="190.00083" fill="none" stroke="#202020"/><line x1="510.0002" y1="30.00083" x2="510.0002" y2="190.00083" fill="none" stroke="#202020"/><line x1="550.0002" y1="30.00083" x2="550.0002" y2="190.00083" fill="none" stroke="#202020"/><line x1="570.0002" y1="30.00083" x2="570.0002" y2="190.00083" fill="none" stroke="#202020"/><line x1="590.00039" y1="30.00083" x2="590.00039" y2="190.00083" fill="none" stroke="#202020"/><line x1="610.0002" y1="30.00083" x2="610.0002" y2="190.00083" fill="none" stroke="#202020"/><line x1="630.0002" y1="30.00083" x2="630.0002" y2="190.00083" fill="none" stroke="#202020"/><line x1="650.0002" y1="30.00083" x2="650.0002" y2="190.00083" fill="none" stroke="#202020"/><line x1="670.0002" y1="30.00083" x2="670.0002" y2="190.00083" fill="none" stroke="#202020"/><line x1="690.0002" y1="30.00083" x2="690.0002" y2="190.00083" fill="none" stroke="#202020"/><line x1="710.0002" y1="30.00083" x2="710.0002" y2="190.00083" fill="none" stroke="#202020"/><line x1="730.0002" y1="30.00083" x2="730.0002" y2="190.00083" fill="none" stroke="#202020"/><line x1="410.00018" y1="170.0008" x2="750.00053" y2="170.0008" fill="none" stroke="#202020"/><line x1="410.00018" y1="150.0008" x2="750.00053" y2="150.0008" fill="none" stroke="#202020"/><line x1="410.00018" y1="130.0008" x2="750.00053" y2="130.0008" fill="none" stroke="#202020"/><line x1="410.00018" y1="110.0008" x2="750.00053" y2="110.0008" fill="none" stroke="#202020"/><line x1="410.00018" y1="90.0008" x2="750.00053" y2="90.0008" fill="none" stroke="#202020"/><line x1="410.00049" y1="70.0008" x2="750.00084" y2="70.0008" fill="none" stroke="#202020"/><line x1="410.00049" y1="50.0008" x2="750.00084" y2="50.0008" fill="none" stroke="#202020"/><line x1="490.0002" y1="30.00083" x2="490.0002" y2="190.00083" fill="none" stroke="#202020"/><line x1="470.0002" y1="30.00083" x2="470.0002" y2="190.00083" fill="none" stroke="#202020"/><line x1="450.0002" y1="30.00083" x2="450.0002" y2="190.00083" fill="none" stroke="#202020"/><line x1="430.0002" y1="30.00083" x2="430.0002" y2="190.00083" fill="none" stroke="#202020"/><line x1="70.00026" y1="230.00083" x2="70.00026" y2="390.00083" fill="none" stroke="#202020"/><line x1="50.00026" y1="230.00083" x2="50.00026" y2="390.00083" fill="none" stroke="#202020"/><line x1="90.00026" y1="230.00083" x2="90.00026" y2="390.00083" fill="none" stroke="#202020"/><line x1="110.00026" y1="230.00083" x2="110.00026" y2="390.00083" fill="none" stroke="#202020"/><line x1="130.00026" y1="230.00083" x2="130.00026" y2="390.00083" fill="none" stroke="#202020"/><line x1="150.00026" y1="230.00083" x2="150.00026" y2="390.00083" fill="none" stroke="#202020"/><line x1="170.00026" y1="230.00083" x2="170.00026" y2="390.00083" fill="none" stroke="#202020"/><line x1="190.00026" y1="230.00083" x2="190.00026" y2="390.00083" fill="none" stroke="#202020"/><line x1="210.00026" y1="230.00083" x2="210.00026" y2="390.00083" fill="none" stroke="#202020"/><line x1="230.00026" y1="230.00083" x2="230.00026" y2="390.00083" fill="none" stroke="#202020"/><line x1="250.00026" y1="230.00083" x2="250.00026" y2="390.00083" fill="none" stroke="#202020"/><line x1="270.00026" y1="230.00083" x2="270.00026" y2="390.00083" fill="none" stroke="#202020"/><line x1="290.00026" y1="230.00083" x2="290.00026" y2="390.00083" fill="none" stroke="#202020"/><line x1="310.00026" y1="230.00083" x2="310.00026" y2="390.00083" fill="none" stroke="#202020"/><line x1="330.00026" y1="230.00083" x2="330.00026" y2="390.00083" fill="none" stroke="#202020"/><line x1="350.00026" y1="230.00083" x2="350.00026" y2="390.00083" fill="none" stroke="#202020"/><line x1="370.00026" y1="230.00083" x2="370.00026" y2="390.00083" fill="none" stroke="#202020"/><line x1="10.00001" y1="370.00091" x2="389.99967" y2="370.00091" fill="none" stroke="#202020"/><line x1="10.00001" y1="350.00091" x2="389.99967" y2="350.00091" fill="none" stroke="#202020"/><line x1="10.00001" y1="330.00091" x2="389.99967" y2="330.00091" fill="none" stroke="#202020"/><line x1="10.00001" y1="310.00091" x2="389.99967" y2="310.00091" fill="none" stroke="#202020"/><line x1="10.00001" y1="290.00091" x2="389.99967" y2="290.00091" fill="none" stroke="#202020"/><line x1="10.00038" y1="270.00091" x2="390.00004" y2="270.00091" fill="none" stroke="#202020"/><line x1="10.00038" y1="250.00091" x2="390.00004" y2="250.00091" fill="none" stroke="#202020"/><line x1="30.00026" y1="230.00083" x2="30.00026" y2="390.00083" fill="none" stroke="#202020"/><line x1="530.0002" y1="230.00083" x2="530.0002" y2="390.00083" fill="none" stroke="#202020"/><line x1="510.0002" y1="230.00083" x2="510.0002" y2="390.00083" fill="none" stroke="#202020"/><line x1="550.0002" y1="230.00083" x2="550.0002" y2="390.00083" fill="none" stroke="#202020"/><line x1="570.0002" y1="230.00083" x2="570.0002" y2="390.00083" fill="none" stroke="#202020"/><line x1="590.00039" y1="230.00083" x2="590.00039" y2="390.00083" fill="none" stroke="#202020"/><line x1="610.0002" y1="230.00083" x2="610.0002" y2="390.00083" fill="none" stroke="#202020"/><line x1="630.0002" y1="230.00083" x2="630.0002" y2="390.00083" fill="none" stroke="#202020"/><line x1="650.0002" y1="230.00083" x2="650.0002" y2="390.00083" fill="none" stroke="#202020"/><line x1="670.0002" y1="230.00083" x2="670.0002" y2="390.00083" fill="none" stroke="#202020"/><line x1="690.0002" y1="230.00083" x2="690.0002" y2="390.00083" fill="none" stroke="#202020"/><line x1="710.0002" y1="230.00083" x2="710.0002" y2="390.00083" fill="none" stroke="#202020"/><line x1="730.0002" y1="230.00083" x2="730.0002" y2="390.00083" fill="none" stroke="#202020"/><line x1="410.00018" y1="370.0008" x2="750.00053" y2="370.0008" fill="none" stroke="#202020"/><line x1="410.00018" y1="350.0008" x2="750.00053" y2="350.0008" fill="none" stroke="#202020"/><line x1="410.00018" y1="330.0008" x2="750.00053" y2="330.0008" fill="none" stroke="#202020"/><line x1="410.00018" y1="310.0008" x2="750.00053" y2="310.0008" fill="none" stroke="#202020"/><line x1="410.00018" y1="290.0008" x2="750.00053" y2="290.0008" fill="none" stroke="#202020"/><line x1="410.00049" y1="270.0008" x2="750.00084" y2="270.0008" fill="none" stroke="#202020"/><line x1="410.00049" y1="250.0008" x2="750.00084" y2="250.0008" fill="none" stroke="#202020"/><line x1="490.0002" y1="230.00083" x2="490.0002" y2="390.00083" fill="none" stroke="#202020"/><line x1="470.0002" y1="230.00083" x2="470.0002" y2="390.00083" fill="none" stroke="#202020"/><line x1="450.0002" y1="230.00083" x2="450.0002" y2="390.00083" fill="none" stroke="#202020"/><line x1="430.0002" y1="230.00083" x2="430.0002" y2="390.00083" fill="none" stroke="#202020"/><line x1="70.00026" y1="430.00083" x2="70.00026" y2="590.00083" fill="none" stroke="#202020"/><line x1="50.00026" y1="430.00083" x2="50.00026" y2="590.00083" fill="none" stroke="#202020"/><line x1="90.00026" y1="430.00083" x2="90.00026" y2="590.00083" fill="none" stroke="#202020"/><line x1="110.00026" y1="430.00083" x2="110.00026" y2="590.00083" fill="none" stroke="#202020"/><line x1="130.00026" y1="430.00083" x2="130.00026" y2="590.00083" fill="none" stroke="#202020"/><line x1="150.00026" y1="430.00083" x2="150.00026" y2="590.00083" fill="none" stroke="#202020"/><line x1="170.00026" y1="430.00083" x2="170.00026" y2="590.00083" fill="none" stroke="#202020"/><line x1="190.00026" y1="430.00083" x2="190.00026" y2="590.00083" fill="none" stroke="#202020"/><line x1="210.00026" y1="430.00083" x2="210.00026" y2="590.00083" fill="none" stroke="#202020"/><line x1="230.00026" y1="430.00083" x2="230.00026" y2="590.00083" fill="none" stroke="#202020"/><line x1="250.00026" y1="430.00083" x2="250.00026" y2="590.00083" fill="none" stroke="#202020"/><line x1="270.00026" y1="430.00083" x2="270.00026" y2="590.00083" fill="none" stroke="#202020"/><line x1="290.00026" y1="430.00083" x2="290.00026" y2="590.00083" fill="none" stroke="#202020"/><line x1="310.00026" y1="430.00083" x2="310.00026" y2="590.00083" fill="none" stroke="#202020"/><line x1="330.00026" y1="430.00083" x2="330.00026" y2="590.00083" fill="none" stroke="#202020"/><line x1="350.00026" y1="430.00083" x2="350.00026" y2="590.00083" fill="none" stroke="#202020"/><line x1="370.00026" y1="430.00083" x2="370.00026" y2="590.00083" fill="none" stroke="#202020"/><line x1="10.00001" y1="570.00091" x2="389.99967" y2="570.00091" fill="none" stroke="#202020"/><line x1="10.00001" y1="550.00091" x2="389.99967" y2="550.00091" fill="none" stroke="#202020"/><line x1="10.00001" y1="530.00091" x2="389.99967" y2="530.00091" fill="none" stroke="#202020"/><line x1="10.00001" y1="510.00091" x2="389.99967" y2="510.00091" fill="none" stroke="#202020"/><line x1="10.00001" y1="490.00091" x2="389.99967" y2="490.00091" fill="none" stroke="#202020"/><line x1="10.00038" y1="470.00091" x2="390.00004" y2="470.00091" fill="none" stroke="#202020"/><line x1="10.00038" y1="450.00091" x2="390.00004" y2="450.00091" fill="none" stroke="#202020"/><line x1="30.00026" y1="430.00083" x2="30.00026" y2="590.00083" fill="none" stroke="#202020"/><line x1="530.0002" y1="430.00083" x2="530.0002" y2="590.00083" fill="none" stroke="#202020"/><line x1="510.0002" y1="430.00083" x2="510.0002" y2="590.00083" fill="none" stroke="#202020"/><line x1="550.0002" y1="430.00083" x2="550.0002" y2="590.00083" fill="none" stroke="#202020"/><line x1="570.0002" y1="430.00083" x2="570.0002" y2="590.00083" fill="none" stroke="#202020"/><line x1="590.00039" y1="430.00083" x2="590.00039" y2="590.00083" fill="none" stroke="#202020"/><line x1="610.0002" y1="430.00083" x2="610.0002" y2="590.00083" fill="none" stroke="#202020"/><line x1="630.0002" y1="430.00083" x2="630.0002" y2="590.00083" fill="none" stroke="#202020"/><line x1="650.0002" y1="430.00083" x2="650.0002" y2="590.00083" fill="none" stroke="#202020"/><line x1="670.0002" y1="430.00083" x2="670.0002" y2="590.00083" fill="none" stroke="#202020"/><line x1="690.0002" y1="430.00083" x2="690.0002" y2="590.00083" fill="none" stroke="#202020"/><line x1="710.0002" y1="430.00083" x2="710.0002" y2="590.00083" fill="none" stroke="#202020"/><line x1="730.0002" y1="430.00083" x2="730.0002" y2="590.00083" fill="none" stroke="#202020"/><line x1="410.00018" y1="570.0008" x2="750.00053" y2="570.0008" fill="none" stroke="#202020"/><line x1="410.00018" y1="550.0008" x2="750.00053" y2="550.0008" fill="none" stroke="#202020"/><line x1="410.00018" y1="530.0008" x2="750.00053" y2="530.0008" fill="none" stroke="#202020"/><line x1="410.00018" y1="510.0008" x2="750.00053" y2="510.0008" fill="none" stroke="#202020"/><line x1="410.00018" y1="490.0008" x2="750.00053" y2="490.0008" fill="none" stroke="#202020"/><line x1="410.00049" y1="470.0008" x2="750.00084" y2="470.0008" fill="none" stroke="#202020"/><line x1="410.00049" y1="450.0008" x2="750.00084" y2="450.0008" fill="none" stroke="#202020"/><line x1="490.0002" y1="430.00083" x2="490.0002" y2="590.00083" fill="none" stroke="#202020"/><line x1="470.0002" y1="430.00083" x2="470.0002" y2="590.00083" fill="none" stroke="#202020"/><line x1="450.0002" y1="430.00083" x2="450.0002" y2="590.00083" fill="none" stroke="#202020"/><line x1="430.0002" y1="430.00083" x2="430.0002" y2="590.00083" fill="none" stroke="#202020"/><rect x="10" y="10" width="379.99979" height="20" fill="#363636"/><rect x="410.00018" y="10" width="340.00021" height="20" fill="#363636"/><rect x="10" y="210" width="379.99978" height="20" fill="#363636"/><rect x="410.00018" y="210" width="340.00021" height="20" fill="#363636"/><rect x="10" y="410" width="379.99978" height="20" fill="#363636"/><rect x="410.00018" y="410" width="340.00021" height="20" fill="#363636"/><path d="M182.51025,18.08154c0-3.165,1.85987-5.09961,4.36475-5.09961a3.59264,3.59264,0,0,1,2.7002,1.21485l-.6753.80957a2.68975,2.68975,0,0,0-2.00976-.92969c-1.85987,0-3.08985,1.53027-3.08985,3.97461,0,2.47559,1.18506,4.03516,3.04492,4.03516a2.96758,2.96758,0,0,0,2.27979-1.11036l.68994.78028a3.80513,3.80513,0,0,1-3.01465,1.4248C184.34033,23.18115,182.51025,21.2915,182.51025,18.08154Z" fill="#b0b0b0"/><path d="M191.27051,20.33154V15.71143h1.24463V20.1665c0,1.36524.40527,1.9502,1.36523,1.9502.75,0,1.2749-.375,1.96484-1.23047v-5.1748h1.23v7.29h-1.02l-.105-1.13964h-.04493a3.08065,3.08065,0,0,1-2.3999,1.31933C191.96045,23.18115,191.27051,22.19189,191.27051,20.33154Z" fill="#b0b0b0"/><path d="M200.55518,15.71143l.105,1.32031h.04492a2.49378,2.49378,0,0,1,2.07031-1.5,1.80515,1.80515,0,0,1,.77979.15039l-.24024,1.0791a2.05666,2.05666,0,0,0-.70459-.11914c-.61523,0-1.3501.44922-1.84521,1.67969v4.67968h-1.23v-7.29Z" fill="#b0b0b0"/><path d="M205.33984,15.71143l1.37989,4.14062c.21.71973.45019,1.4541.67529,2.14453h.06006c.21-.69043.44971-1.4248.65967-2.14453l1.37988-4.14062H210.71l-2.58008,7.29h-1.43994l-2.625-7.29Z" fill="#b0b0b0"/><path d="M211.52,19.37158c0-2.38476,1.605-3.83984,3.27-3.83984,1.85937,0,2.90967,1.335,2.90967,3.41992a4.80018,4.80018,0,0,1-.04492.70508h-4.91993a2.41788,2.41788,0,0,0,2.43018,2.53515,3.29632,3.29632,0,0,0,1.81445-.57031l.43506.80957a4.33775,4.33775,0,0,1-2.3999.75A3.48558,3.48558,0,0,1,211.52,19.37158Zm3.2998-2.86523a2.25217,2.25217,0,0,0-2.10009,2.26562h3.8999C216.61963,17.30127,215.96,16.50635,214.81982,16.50635Z" fill="#b0b0b0"/><path d="M537.4834,18.03662c0-3.14941,1.72461-5.05469,4.19922-5.05469,2.47509,0,4.21484,1.91993,4.21484,5.05469,0,3.165-1.73975,5.14453-4.21484,5.14453C539.208,23.18115,537.4834,21.20166,537.4834,18.03662Zm7.10937,0c0-2.44531-1.15527-3.96-2.91015-3.96s-2.90967,1.51465-2.90967,3.96c0,2.46,1.15478,4.04981,2.90967,4.04981S544.59277,20.49658,544.59277,18.03662Z" fill="#b0b0b0"/><path d="M547.78809,20.33154V15.71143h1.24462V20.1665c0,1.36524.40479,1.9502,1.36475,1.9502.75,0,1.27539-.375,1.96484-1.23047v-5.1748h1.23047v7.29h-1.0205l-.1045-1.13964h-.04492a3.08229,3.08229,0,0,1-2.40039,1.31933C548.47754,23.18115,547.78809,22.19189,547.78809,20.33154Z" fill="#b0b0b0"/><path d="M556.2627,20.75146V16.71631h-1.08008v-.92969l1.14013-.07519.14991-2.04h1.03515v2.04h1.96485v1.00488h-1.96485v4.0498c0,.90039.28516,1.41016,1.125,1.41016a2.64881,2.64881,0,0,0,.82471-.19434l.23975.92969a4.50214,4.50214,0,0,1-1.34961.26953C556.7876,23.18115,556.2627,22.19189,556.2627,20.75146Z" fill="#b0b0b0"/><path d="M562.14258,15.71143l.10547.83984h.04492a3.77207,3.77207,0,0,1,2.32471-1.01953c1.875,0,2.87988,1.45508,2.87988,3.71972,0,2.47461-1.48486,3.92969-3.1499,3.92969a3.3781,3.3781,0,0,1-2.02491-.83984l.02979,1.27539v2.46h-1.22949V15.71143Zm4.08008,3.54c0-1.60449-.54-2.68457-1.91993-2.68457a3.06945,3.06945,0,0,0-1.95019.99024v3.82422a2.88912,2.88912,0,0,0,1.78516.76562C565.33789,22.147,566.22266,21.05127,566.22266,19.25146Z" fill="#b0b0b0"/><path d="M569.34277,20.33154V15.71143h1.24463V20.1665c0,1.36524.40479,1.9502,1.36475,1.9502.75,0,1.27539-.375,1.96484-1.23047v-5.1748h1.23047v7.29H574.127l-.10449-1.13964h-.04492a3.08229,3.08229,0,0,1-2.40039,1.31933C570.03223,23.18115,569.34277,22.19189,569.34277,20.33154Z" fill="#b0b0b0"/><path d="M577.81738,20.75146V16.71631H576.7373v-.92969l1.14014-.07519.1499-2.04h1.03516v2.04h1.96484v1.00488H579.0625v4.0498c0,.90039.28516,1.41016,1.125,1.41016a2.64887,2.64887,0,0,0,.82471-.19434l.23974.92969a4.502,4.502,0,0,1-1.34961.26953C578.34229,23.18115,577.81738,22.19189,577.81738,20.75146Z" fill="#b0b0b0"/><path d="M585.07715,21.72607l.75-.86914a3.85657,3.85657,0,0,0,2.71484,1.2295c1.29,0,2.05518-.64454,2.05518-1.6045,0-1.00488-.70459-1.32031-1.63477-1.74023l-1.40967-.61524a2.76378,2.76378,0,0,1-1.99511-2.53515c0-1.499,1.30468-2.60938,3.08984-2.60938a4.08252,4.08252,0,0,1,2.90967,1.21485l-.67481.80957a3.14005,3.14005,0,0,0-2.23486-.92969c-1.09473,0-1.83008.55469-1.83008,1.44043,0,.94434.855,1.30469,1.63477,1.63477l1.395.5996a2.73913,2.73913,0,0,1,2.0249,2.625c0,1.55958-1.2749,2.80469-3.34473,2.80469A4.77037,4.77037,0,0,1,585.07715,21.72607Z" fill="#b0b0b0"/><path d="M593.46191,13.4165a.85725.85725,0,1,1,.85547.79493A.80528.80528,0,0,1,593.46191,13.4165Zm1.45508,2.29493v7.29H593.6875v-7.29Z" fill="#b0b0b0"/><path d="M596.82227,24.396a2.10459,2.10459,0,0,1,1.06494-1.64942V22.686a1.3442,1.3442,0,0,1-.645-1.18458,1.70627,1.70627,0,0,1,.79492-1.3496v-.06055a2.57291,2.57291,0,0,1,1.7998-4.55957,2.92222,2.92222,0,0,1,1.03516.17969h2.53516v.94531h-1.5a2.11442,2.11442,0,0,1,.59961,1.5,2.50182,2.50182,0,0,1-2.66993,2.53515,2.55984,2.55984,0,0,1-1.09472-.25488,1.10353,1.10353,0,0,0-.46485.86914c0,.46582.29981.79492,1.29.79492h1.40967c1.69482,0,2.54981.52539,2.54981,1.74024,0,1.34961-1.42481,2.51953-3.69,2.51953C598.05225,26.36084,596.82227,25.65674,596.82227,24.396Zm5.50488-.375c0-.67481-.52539-.89942-1.47022-.89942h-1.25976a3.55165,3.55165,0,0,1-.94483-.12012,1.53409,1.53409,0,0,0-.75,1.2295c0,.78027.79493,1.27539,2.11475,1.27539C601.41211,25.50635,602.32715,24.78662,602.32715,24.021Zm-.94531-5.89454a1.55151,1.55151,0,1,0-3.08985,0,1.55589,1.55589,0,1,0,3.08985,0Z" fill="#b0b0b0"/><path d="M605.957,15.71143l.105,1.0498h.04492a3.43748,3.43748,0,0,1,2.44483-1.22949c1.53027,0,2.21972.99023,2.21972,2.84961v4.62011H609.542V18.54639c0-1.36426-.41992-1.94922-1.37988-1.94922-.75,0-1.26025.38965-1.99512,1.125v5.27929h-1.23v-7.29Z" fill="#b0b0b0"/><path d="M612.69238,21.11182c0-1.58985,1.36475-2.38477,4.46973-2.73047,0-.92969-.30029-1.83008-1.5-1.83008a3.96593,3.96593,0,0,0-2.17481.78027l-.48046-.85449a5.40808,5.40808,0,0,1,2.86523-.94531c1.78516,0,2.53467,1.18457,2.53467,3v4.46972h-1.02l-.10449-.87011h-.04541a3.88576,3.88576,0,0,1-2.41455,1.0498A1.98311,1.98311,0,0,1,612.69238,21.11182Zm4.46973.10449V19.19189c-2.43018.29981-3.27.89942-3.27,1.83008,0,.82422.56982,1.16992,1.28955,1.16992A2.95738,2.95738,0,0,0,617.16211,21.21631Z" fill="#b0b0b0"/><path d="M620.70215,21.53174v-9.21h1.23v9.2998c0,.38965.165.54.34521.54a1.02161,1.02161,0,0,0,.26953-.03027l.165.92969a1.653,1.653,0,0,1-.70507.12011C621.07715,23.18115,620.70215,22.59619,620.70215,21.53174Z" fill="#b0b0b0"/><path d="M182.51025,218.08154c0-3.165,1.85987-5.09961,4.36475-5.09961a3.59264,3.59264,0,0,1,2.7002,1.21485l-.6753.80957a2.68975,2.68975,0,0,0-2.00976-.92969c-1.85987,0-3.08985,1.53027-3.08985,3.97461,0,2.47559,1.18506,4.03516,3.04492,4.03516a2.96758,2.96758,0,0,0,2.27979-1.11036l.68994.78028a3.80513,3.80513,0,0,1-3.01465,1.4248C184.34033,223.18115,182.51025,221.2915,182.51025,218.08154Z" fill="#b0b0b0"/><path d="M191.27051,220.33154v-4.62011h1.24463v4.45507c0,1.36524.40527,1.9502,1.36523,1.9502.75,0,1.2749-.375,1.96484-1.23047v-5.1748h1.23v7.29h-1.02l-.105-1.13964h-.04493a3.08065,3.08065,0,0,1-2.3999,1.31933C191.96045,223.18115,191.27051,222.19189,191.27051,220.33154Z" fill="#b0b0b0"/><path d="M200.55518,215.71143l.105,1.32031h.04492a2.49378,2.49378,0,0,1,2.07031-1.5,1.80515,1.80515,0,0,1,.77979.15039l-.24024,1.0791a2.05666,2.05666,0,0,0-.70459-.11914c-.61523,0-1.3501.44922-1.84521,1.67969v4.67968h-1.23v-7.29Z" fill="#b0b0b0"/><path d="M205.33984,215.71143l1.37989,4.14062c.21.71973.45019,1.4541.67529,2.14453h.06006c.21-.69043.44971-1.4248.65967-2.14453l1.37988-4.14062H210.71l-2.58008,7.29h-1.43994l-2.625-7.29Z" fill="#b0b0b0"/><path d="M211.52,219.37158c0-2.38476,1.605-3.83984,3.27-3.83984,1.85937,0,2.90967,1.335,2.90967,3.41992a4.80018,4.80018,0,0,1-.04492.70508h-4.91993a2.41788,2.41788,0,0,0,2.43018,2.53515,3.29632,3.29632,0,0,0,1.81445-.57031l.43506.80957a4.33775,4.33775,0,0,1-2.3999.75A3.48558,3.48558,0,0,1,211.52,219.37158Zm3.2998-2.86523a2.25217,2.25217,0,0,0-2.10009,2.26562h3.8999C216.61963,217.30127,215.96,216.50635,214.81982,216.50635Z" fill="#b0b0b0"/><path d="M537.4834,218.03662c0-3.14941,1.72461-5.05469,4.19922-5.05469,2.47509,0,4.21484,1.91993,4.21484,5.05469,0,3.165-1.73975,5.14453-4.21484,5.14453C539.208,223.18115,537.4834,221.20166,537.4834,218.03662Zm7.10937,0c0-2.44531-1.15527-3.96-2.91015-3.96s-2.90967,1.51465-2.90967,3.96c0,2.46,1.15478,4.04981,2.90967,4.04981S544.59277,220.49658,544.59277,218.03662Z" fill="#b0b0b0"/><path d="M547.78809,220.33154v-4.62011h1.24462v4.45507c0,1.36524.40479,1.9502,1.36475,1.9502.75,0,1.27539-.375,1.96484-1.23047v-5.1748h1.23047v7.29h-1.0205l-.1045-1.13964h-.04492a3.08229,3.08229,0,0,1-2.40039,1.31933C548.47754,223.18115,547.78809,222.19189,547.78809,220.33154Z" fill="#b0b0b0"/><path d="M556.2627,220.75146v-4.03515h-1.08008v-.92969l1.14013-.07519.14991-2.04h1.03515v2.04h1.96485v1.00488h-1.96485v4.0498c0,.90039.28516,1.41016,1.125,1.41016a2.64881,2.64881,0,0,0,.82471-.19434l.23975.92969a4.50214,4.50214,0,0,1-1.34961.26953C556.7876,223.18115,556.2627,222.19189,556.2627,220.75146Z" fill="#b0b0b0"/><path d="M562.14258,215.71143l.10547.83984h.04492a3.77207,3.77207,0,0,1,2.32471-1.01953c1.875,0,2.87988,1.45508,2.87988,3.71972,0,2.47461-1.48486,3.92969-3.1499,3.92969a3.3781,3.3781,0,0,1-2.02491-.83984l.02979,1.27539v2.46h-1.22949V215.71143Zm4.08008,3.54c0-1.60449-.54-2.68457-1.91993-2.68457a3.06945,3.06945,0,0,0-1.95019.99024v3.82422a2.88912,2.88912,0,0,0,1.78516.76562C565.33789,222.147,566.22266,221.05127,566.22266,219.25146Z" fill="#b0b0b0"/><path d="M569.34277,220.33154v-4.62011h1.24463v4.45507c0,1.36524.40479,1.9502,1.36475,1.9502.75,0,1.27539-.375,1.96484-1.23047v-5.1748h1.23047v7.29H574.127l-.10449-1.13964h-.04492a3.08229,3.08229,0,0,1-2.40039,1.31933C570.03223,223.18115,569.34277,222.19189,569.34277,220.33154Z" fill="#b0b0b0"/><path d="M577.81738,220.75146v-4.03515H576.7373v-.92969l1.14014-.07519.1499-2.04h1.03516v2.04h1.96484v1.00488H579.0625v4.0498c0,.90039.28516,1.41016,1.125,1.41016a2.64887,2.64887,0,0,0,.82471-.19434l.23974.92969a4.502,4.502,0,0,1-1.34961.26953C578.34229,223.18115,577.81738,222.19189,577.81738,220.75146Z" fill="#b0b0b0"/><path d="M585.07715,221.72607l.75-.86914a3.85657,3.85657,0,0,0,2.71484,1.2295c1.29,0,2.05518-.64454,2.05518-1.6045,0-1.00488-.70459-1.32031-1.63477-1.74023l-1.40967-.61524a2.76378,2.76378,0,0,1-1.99511-2.53515c0-1.499,1.30468-2.60938,3.08984-2.60938a4.08252,4.08252,0,0,1,2.90967,1.21485l-.67481.80957a3.14005,3.14005,0,0,0-2.23486-.92969c-1.09473,0-1.83008.55469-1.83008,1.44043,0,.94434.855,1.30469,1.63477,1.63477l1.395.5996a2.73913,2.73913,0,0,1,2.0249,2.625c0,1.55958-1.2749,2.80469-3.34473,2.80469A4.77037,4.77037,0,0,1,585.07715,221.72607Z" fill="#b0b0b0"/><path d="M593.46191,213.4165a.85725.85725,0,1,1,.85547.79493A.80528.80528,0,0,1,593.46191,213.4165Zm1.45508,2.29493v7.29H593.6875v-7.29Z" fill="#b0b0b0"/><path d="M596.82227,224.396a2.10459,2.10459,0,0,1,1.06494-1.64942V222.686a1.3442,1.3442,0,0,1-.645-1.18458,1.70627,1.70627,0,0,1,.79492-1.3496v-.06055a2.57291,2.57291,0,0,1,1.7998-4.55957,2.92222,2.92222,0,0,1,1.03516.17969h2.53516v.94531h-1.5a2.11442,2.11442,0,0,1,.59961,1.5,2.50182,2.50182,0,0,1-2.66993,2.53515,2.55984,2.55984,0,0,1-1.09472-.25488,1.10353,1.10353,0,0,0-.46485.86914c0,.46582.29981.79492,1.29.79492h1.40967c1.69482,0,2.54981.52539,2.54981,1.74024,0,1.34961-1.42481,2.51953-3.69,2.51953C598.05225,226.36084,596.82227,225.65674,596.82227,224.396Zm5.50488-.375c0-.67481-.52539-.89942-1.47022-.89942h-1.25976a3.55165,3.55165,0,0,1-.94483-.12012,1.53409,1.53409,0,0,0-.75,1.2295c0,.78027.79493,1.27539,2.11475,1.27539C601.41211,225.50635,602.32715,224.78662,602.32715,224.021Zm-.94531-5.89454a1.55151,1.55151,0,1,0-3.08985,0,1.55589,1.55589,0,1,0,3.08985,0Z" fill="#b0b0b0"/><path d="M605.957,215.71143l.105,1.0498h.04492a3.43748,3.43748,0,0,1,2.44483-1.22949c1.53027,0,2.21972.99023,2.21972,2.84961v4.62011H609.542v-4.45507c0-1.36426-.41992-1.94922-1.37988-1.94922-.75,0-1.26025.38965-1.99512,1.125v5.27929h-1.23v-7.29Z" fill="#b0b0b0"/><path d="M612.69238,221.11182c0-1.58985,1.36475-2.38477,4.46973-2.73047,0-.92969-.30029-1.83008-1.5-1.83008a3.96593,3.96593,0,0,0-2.17481.78027l-.48046-.85449a5.40808,5.40808,0,0,1,2.86523-.94531c1.78516,0,2.53467,1.18457,2.53467,3v4.46972h-1.02l-.10449-.87011h-.04541a3.88576,3.88576,0,0,1-2.41455,1.0498A1.98311,1.98311,0,0,1,612.69238,221.11182Zm4.46973.10449v-2.02442c-2.43018.29981-3.27.89942-3.27,1.83008,0,.82422.56982,1.16992,1.28955,1.16992A2.95738,2.95738,0,0,0,617.16211,221.21631Z" fill="#b0b0b0"/><path d="M620.70215,221.53174v-9.21h1.23v9.2998c0,.38965.165.54.34521.54a1.02161,1.02161,0,0,0,.26953-.03027l.165.92969a1.653,1.653,0,0,1-.70507.12011C621.07715,223.18115,620.70215,222.59619,620.70215,221.53174Z" fill="#b0b0b0"/><path d="M182.51025,418.08154c0-3.165,1.85987-5.09961,4.36475-5.09961a3.59264,3.59264,0,0,1,2.7002,1.21485l-.6753.80957a2.68975,2.68975,0,0,0-2.00976-.92969c-1.85987,0-3.08985,1.53027-3.08985,3.97461,0,2.47559,1.18506,4.03516,3.04492,4.03516a2.96758,2.96758,0,0,0,2.27979-1.11036l.68994.78028a3.80513,3.80513,0,0,1-3.01465,1.4248C184.34033,423.18115,182.51025,421.2915,182.51025,418.08154Z" fill="#b0b0b0"/><path d="M191.27051,420.33154v-4.62011h1.24463v4.45507c0,1.36524.40527,1.9502,1.36523,1.9502.75,0,1.2749-.375,1.96484-1.23047v-5.1748h1.23v7.29h-1.02l-.105-1.13964h-.04493a3.08065,3.08065,0,0,1-2.3999,1.31933C191.96045,423.18115,191.27051,422.19189,191.27051,420.33154Z" fill="#b0b0b0"/><path d="M200.55518,415.71143l.105,1.32031h.04492a2.49378,2.49378,0,0,1,2.07031-1.5,1.80515,1.80515,0,0,1,.77979.15039l-.24024,1.0791a2.05666,2.05666,0,0,0-.70459-.11914c-.61523,0-1.3501.44922-1.84521,1.67969v4.67968h-1.23v-7.29Z" fill="#b0b0b0"/><path d="M205.33984,415.71143l1.37989,4.14062c.21.71973.45019,1.4541.67529,2.14453h.06006c.21-.69043.44971-1.4248.65967-2.14453l1.37988-4.14062H210.71l-2.58008,7.29h-1.43994l-2.625-7.29Z" fill="#b0b0b0"/><path d="M211.52,419.37158c0-2.38476,1.605-3.83984,3.27-3.83984,1.85937,0,2.90967,1.335,2.90967,3.41992a4.80018,4.80018,0,0,1-.04492.70508h-4.91993a2.41788,2.41788,0,0,0,2.43018,2.53515,3.29632,3.29632,0,0,0,1.81445-.57031l.43506.80957a4.33775,4.33775,0,0,1-2.3999.75A3.48558,3.48558,0,0,1,211.52,419.37158Zm3.2998-2.86523a2.25217,2.25217,0,0,0-2.10009,2.26562h3.8999C216.61963,417.30127,215.96,416.50635,214.81982,416.50635Z" fill="#b0b0b0"/><path d="M537.4834,418.03662c0-3.14941,1.72461-5.05469,4.19922-5.05469,2.47509,0,4.21484,1.91993,4.21484,5.05469,0,3.165-1.73975,5.14453-4.21484,5.14453C539.208,423.18115,537.4834,421.20166,537.4834,418.03662Zm7.10937,0c0-2.44531-1.15527-3.96-2.91015-3.96s-2.90967,1.51465-2.90967,3.96c0,2.46,1.15478,4.04981,2.90967,4.04981S544.59277,420.49658,544.59277,418.03662Z" fill="#b0b0b0"/><path d="M547.78809,420.33154v-4.62011h1.24462v4.45507c0,1.36524.40479,1.9502,1.36475,1.9502.75,0,1.27539-.375,1.96484-1.23047v-5.1748h1.23047v7.29h-1.0205l-.1045-1.13964h-.04492a3.08229,3.08229,0,0,1-2.40039,1.31933C548.47754,423.18115,547.78809,422.19189,547.78809,420.33154Z" fill="#b0b0b0"/><path d="M556.2627,420.75146v-4.03515h-1.08008v-.92969l1.14013-.07519.14991-2.04h1.03515v2.04h1.96485v1.00488h-1.96485v4.0498c0,.90039.28516,1.41016,1.125,1.41016a2.64881,2.64881,0,0,0,.82471-.19434l.23975.92969a4.50214,4.50214,0,0,1-1.34961.26953C556.7876,423.18115,556.2627,422.19189,556.2627,420.75146Z" fill="#b0b0b0"/><path d="M562.14258,415.71143l.10547.83984h.04492a3.77207,3.77207,0,0,1,2.32471-1.01953c1.875,0,2.87988,1.45508,2.87988,3.71972,0,2.47461-1.48486,3.92969-3.1499,3.92969a3.3781,3.3781,0,0,1-2.02491-.83984l.02979,1.27539v2.46h-1.22949V415.71143Zm4.08008,3.54c0-1.60449-.54-2.68457-1.91993-2.68457a3.06945,3.06945,0,0,0-1.95019.99024v3.82422a2.88912,2.88912,0,0,0,1.78516.76562C565.33789,422.147,566.22266,421.05127,566.22266,419.25146Z" fill="#b0b0b0"/><path d="M569.34277,420.33154v-4.62011h1.24463v4.45507c0,1.36524.40479,1.9502,1.36475,1.9502.75,0,1.27539-.375,1.96484-1.23047v-5.1748h1.23047v7.29H574.127l-.10449-1.13964h-.04492a3.08229,3.08229,0,0,1-2.40039,1.31933C570.03223,423.18115,569.34277,422.19189,569.34277,420.33154Z" fill="#b0b0b0"/><path d="M577.81738,420.75146v-4.03515H576.7373v-.92969l1.14014-.07519.1499-2.04h1.03516v2.04h1.96484v1.00488H579.0625v4.0498c0,.90039.28516,1.41016,1.125,1.41016a2.64887,2.64887,0,0,0,.82471-.19434l.23974.92969a4.502,4.502,0,0,1-1.34961.26953C578.34229,423.18115,577.81738,422.19189,577.81738,420.75146Z" fill="#b0b0b0"/><path d="M585.07715,421.72607l.75-.86914a3.85657,3.85657,0,0,0,2.71484,1.2295c1.29,0,2.05518-.64454,2.05518-1.6045,0-1.00488-.70459-1.32031-1.63477-1.74023l-1.40967-.61524a2.76378,2.76378,0,0,1-1.99511-2.53515c0-1.499,1.30468-2.60938,3.08984-2.60938a4.08252,4.08252,0,0,1,2.90967,1.21485l-.67481.80957a3.14005,3.14005,0,0,0-2.23486-.92969c-1.09473,0-1.83008.55469-1.83008,1.44043,0,.94434.855,1.30469,1.63477,1.63477l1.395.5996a2.73913,2.73913,0,0,1,2.0249,2.625c0,1.55958-1.2749,2.80469-3.34473,2.80469A4.77037,4.77037,0,0,1,585.07715,421.72607Z" fill="#b0b0b0"/><path d="M593.46191,413.4165a.85725.85725,0,1,1,.85547.79493A.80528.80528,0,0,1,593.46191,413.4165Zm1.45508,2.29493v7.29H593.6875v-7.29Z" fill="#b0b0b0"/><path d="M596.82227,424.396a2.10459,2.10459,0,0,1,1.06494-1.64942V422.686a1.3442,1.3442,0,0,1-.645-1.18458,1.70627,1.70627,0,0,1,.79492-1.3496v-.06055a2.57291,2.57291,0,0,1,1.7998-4.55957,2.92222,2.92222,0,0,1,1.03516.17969h2.53516v.94531h-1.5a2.11442,2.11442,0,0,1,.59961,1.5,2.50182,2.50182,0,0,1-2.66993,2.53515,2.55984,2.55984,0,0,1-1.09472-.25488,1.10353,1.10353,0,0,0-.46485.86914c0,.46582.29981.79492,1.29.79492h1.40967c1.69482,0,2.54981.52539,2.54981,1.74024,0,1.34961-1.42481,2.51953-3.69,2.51953C598.05225,426.36084,596.82227,425.65674,596.82227,424.396Zm5.50488-.375c0-.67481-.52539-.89942-1.47022-.89942h-1.25976a3.55165,3.55165,0,0,1-.94483-.12012,1.53409,1.53409,0,0,0-.75,1.2295c0,.78027.79493,1.27539,2.11475,1.27539C601.41211,425.50635,602.32715,424.78662,602.32715,424.021Zm-.94531-5.89454a1.55151,1.55151,0,1,0-3.08985,0,1.55589,1.55589,0,1,0,3.08985,0Z" fill="#b0b0b0"/><path d="M605.957,415.71143l.105,1.0498h.04492a3.43748,3.43748,0,0,1,2.44483-1.22949c1.53027,0,2.21972.99023,2.21972,2.84961v4.62011H609.542v-4.45507c0-1.36426-.41992-1.94922-1.37988-1.94922-.75,0-1.26025.38965-1.99512,1.125v5.27929h-1.23v-7.29Z" fill="#b0b0b0"/><path d="M612.69238,421.11182c0-1.58985,1.36475-2.38477,4.46973-2.73047,0-.92969-.30029-1.83008-1.5-1.83008a3.96593,3.96593,0,0,0-2.17481.78027l-.48046-.85449a5.40808,5.40808,0,0,1,2.86523-.94531c1.78516,0,2.53467,1.18457,2.53467,3v4.46972h-1.02l-.10449-.87011h-.04541a3.88576,3.88576,0,0,1-2.41455,1.0498A1.98311,1.98311,0,0,1,612.69238,421.11182Zm4.46973.10449v-2.02442c-2.43018.29981-3.27.89942-3.27,1.83008,0,.82422.56982,1.16992,1.28955,1.16992A2.95738,2.95738,0,0,0,617.16211,421.21631Z" fill="#b0b0b0"/><path d="M620.70215,421.53174v-9.21h1.23v9.2998c0,.38965.165.54.34521.54a1.02161,1.02161,0,0,0,.26953-.03027l.165.92969a1.653,1.653,0,0,1-.70507.12011C621.07715,423.18115,620.70215,422.59619,620.70215,421.53174Z" fill="#b0b0b0"/><path d="M356.64355,123.26611v-4.30566h-1.15283v-.99219l1.21631-.08008.16016-2.17675h1.10449v2.17675h2.09668v1.07227h-2.09668v4.32226c0,.96.3042,1.50489,1.20068,1.50489a2.809,2.809,0,0,0,.88037-.209l.25586.99317a4.81208,4.81208,0,0,1-1.44043.28808C357.20361,125.85986,356.64355,124.80322,356.64355,123.26611Z" fill="#b0b0b0"/><path d="M714.73535,163.29248v-.99219l1.05615-.08008v-1.23242c0-1.585.72022-2.57715,2.27295-2.57715a3.53293,3.53293,0,0,1,1.29639.25586l-.28809,1.00879a2.18813,2.18813,0,0,0-.88037-.19238c-.73633,0-1.08838.5127-1.08838,1.50488v1.23242h1.64893v1.07227H717.104v6.707h-1.3125v-6.707Z" fill="#b0b0b0"/><path d="M430.751,59.49951l3.55371,10.5h-1.42481l-.99218-3.20117H428.062l-1.0083,3.20117h-1.36035l3.55322-10.5Zm.80078,6.22656-.49658-1.60058c-.38428-1.169-.72022-2.32129-1.05616-3.53809h-.06445c-.31982,1.2168-.65625,2.36914-1.04,3.53809l-.49609,1.60058Z" fill="#b0b0b0"/><path d="M356.64355,323.26611v-4.30566h-1.15283v-.99219l1.21631-.08008.16016-2.17675h1.10449v2.17675h2.09668v1.07227h-2.09668v4.32226c0,.96.3042,1.50489,1.20068,1.50489a2.809,2.809,0,0,0,.88037-.209l.25586.99317a4.81208,4.81208,0,0,1-1.44043.28808C357.20361,325.85986,356.64355,324.80322,356.64355,323.26611Z" fill="#b0b0b0"/><path d="M714.73535,363.29248v-.99219l1.05615-.08008v-1.23242c0-1.585.72022-2.57715,2.27295-2.57715a3.53293,3.53293,0,0,1,1.29639.25586l-.28809,1.00879a2.18813,2.18813,0,0,0-.88037-.19238c-.73633,0-1.08838.5127-1.08838,1.50488v1.23242h1.64893v1.07227H717.104v6.707h-1.3125v-6.707Z" fill="#b0b0b0"/><path d="M430.751,259.49951l3.55371,10.5h-1.42481l-.99218-3.20117H428.062l-1.0083,3.20117h-1.36035l3.55322-10.5Zm.80078,6.22656-.49658-1.60058c-.38428-1.16895-.72022-2.32129-1.05616-3.53809h-.06445c-.31982,1.2168-.65625,2.36914-1.04,3.53809l-.49609,1.60058Z" fill="#b0b0b0"/><path d="M356.64355,523.26562v-4.30468h-1.15283v-.99219l1.21631-.08008.16016-2.17773h1.10449v2.17773h2.09668v1.07227h-2.09668v4.32226c0,.959.3042,1.50391,1.20068,1.50391a2.78227,2.78227,0,0,0,.88037-.209l.25586.99415a4.84182,4.84182,0,0,1-1.44043.2871C357.20361,525.85937,356.64355,524.80273,356.64355,523.26562Z" fill="#b0b0b0"/><path d="M714.73535,563.293v-.99219l1.05615-.08008v-1.23242c0-1.58594.72022-2.57812,2.27295-2.57812a3.55293,3.55293,0,0,1,1.29639.25586l-.28809,1.00976a2.17332,2.17332,0,0,0-.88037-.19336c-.73633,0-1.08838.51367-1.08838,1.50586v1.23242h1.64893V563.293H717.104V570h-1.3125v-6.707Z" fill="#b0b0b0"/><path d="M430.751,459.49951l3.55371,10.5h-1.42481l-.99218-3.20117H428.062l-1.0083,3.20117h-1.36035l3.55322-10.5Zm.80078,6.22656-.49658-1.60058c-.38428-1.16895-.72022-2.32129-1.05616-3.53809h-.06445c-.31982,1.2168-.65625,2.36914-1.04,3.53809l-.49609,1.60058Z" fill="#b0b0b0"/><line x1="10.00024" y1="110.00082" x2="368.69885" y2="110.00082" fill="none" stroke="#7f7f7f" stroke-width="1.2"/><polygon points="364.723 114.909 363.904 114.03 368.238 110.002 363.904 105.973 364.723 105.094 370 110.002 364.723 114.909" fill="#7f7f7f"/><line x1="450.00021" y1="170.43909" x2="450.00021" y2="51.30225" fill="none" stroke="#7f7f7f" stroke-width="1.2"/><polygon points="454.908 55.278 454.029 56.097 450.001 51.763 445.972 56.097 445.094 55.278 450.001 50.001 454.908 55.278" fill="#7f7f7f"/><line x1="430.00021" y1="150.00084" x2="728.6988" y2="150.00082" fill="none" stroke="#7f7f7f" stroke-width="1.2"/><polygon points="724.723 154.909 723.904 154.03 728.238 150.002 723.904 145.973 724.723 145.094 730 150.002 724.723 154.909" fill="#7f7f7f"/><line x1="29.00037" y1="310.00082" x2="369.69885" y2="310.00082" fill="none" stroke="#7f7f7f" stroke-width="1.2"/><polygon points="365.723 314.909 364.904 314.03 369.238 310.002 364.904 305.973 365.723 305.094 371 310.002 365.723 314.909" fill="#7f7f7f"/><line x1="450.00021" y1="370.43909" x2="450.00021" y2="251.30223" fill="none" stroke="#7f7f7f" stroke-width="1.2"/><polygon points="454.908 255.278 454.029 256.097 450.001 251.763 445.972 256.097 445.094 255.278 450.001 250.001 454.908 255.278" fill="#7f7f7f"/><line x1="430.00021" y1="350.00083" x2="728.6988" y2="350.00083" fill="none" stroke="#7f7f7f" stroke-width="1.2"/><polygon points="724.723 354.909 723.904 354.03 728.238 350.002 723.904 345.973 724.723 345.094 730 350.002 724.723 354.909" fill="#7f7f7f"/><line x1="29.00037" y1="510.00082" x2="369.69885" y2="510.00082" fill="none" stroke="#7f7f7f" stroke-width="1.2"/><polygon points="365.723 514.909 364.904 514.03 369.238 510.002 364.904 505.973 365.723 505.094 371 510.002 365.723 514.909" fill="#7f7f7f"/><line x1="450.00021" y1="570.43909" x2="450.00021" y2="451.30223" fill="none" stroke="#7f7f7f" stroke-width="1.2"/><polygon points="454.908 455.278 454.029 456.097 450.001 451.763 445.972 456.097 445.094 455.278 450.001 450.001 454.908 455.278" fill="#7f7f7f"/><line x1="430.00021" y1="550.00084" x2="728.6988" y2="550.00082" fill="none" stroke="#7f7f7f" stroke-width="1.2"/><polygon points="724.723 554.909 723.904 554.03 728.238 550.002 723.904 545.973 724.723 545.094 730 550.002 724.723 554.909" fill="#7f7f7f"/><path d="M349.99952,70.22071c-13.71422,0-22.857,15.99975-31.99985,39.99937s-18.28562,39.99938-31.99985,39.99938S263.14279,134.21971,254,110.22008s-18.28562-39.99937-31.99984-39.99937-22.857,15.99975-31.99985,39.99938-18.28563,39.99938-31.99985,39.99938-22.857-15.99975-31.99985-39.99937S107.715,70.22072,94.00073,70.22072s-22.857,15.99975-31.99985,39.99938S43.71525,150.21947,30.001,150.21947" fill="none" stroke="#e9a460" stroke-width="1.4"/><path d="M349.99441,269.5488c-12.9493,0-25.15016,16.0905-39.135,40.22627s-26.18572,40.22627-39.135,40.22627-18.01417-16.09051-21.295-40.22627-8.34573-40.22627-21.295-40.22627-25.15016,16.09051-39.135,40.22627-26.18573,40.22627-39.135,40.22627-18.01417-16.09051-21.295-40.22626-8.34574-40.22627-21.295-40.22627-25.15016,16.09051-39.135,40.22627-26.18572,40.22627-39.135,40.22627" fill="none" stroke="#e9a460" stroke-width="1.4"/><path d="M30.00427,549.99949c13.60363,0,37.61834-25.43343,50.6309-39.99927S117.66243,470.001,131.26606,470.001c2.35746.00017,4.05121,20.00006,4.05123,39.99991s1.69377,39.99974,4.05123,39.99991c13.60363,0,37.61833-25.43342,50.63089-39.99927v-.00128c13.01256-14.56585,37.02727-39.99927,50.6309-39.99927,2.35746.00017,4.05121,20.00006,4.05123,39.99991s1.69376,39.99974,4.05122,39.99991c13.60363,0,37.61834-25.43342,50.6309-39.99927v-.00128c13.01256-14.56585,37.02727-39.99927,50.6309-39.99927" fill="none" stroke="#e9a460" stroke-width="1.4"/><line x1="460.0002" y1="150.00078" x2="460.0002" y2="70.00078" fill="none" stroke="#e9a460" stroke-width="6"/><line x1="460.0002" y1="350.00078" x2="460.0002" y2="270.00078" fill="none" stroke="#e9a460" stroke-width="6"/><line x1="470.0002" y1="350.00078" x2="470.0002" y2="306.6029" fill="none" stroke="#e9a460" stroke-width="6"/><line x1="480.0002" y1="350.00078" x2="480.0002" y2="319.99905" fill="none" stroke="#e9a460" stroke-width="6"/><line x1="490.0002" y1="350.00078" x2="490.0002" y2="329.17049" fill="none" stroke="#e9a460" stroke-width="6"/><line x1="500.0002" y1="350.00078" x2="500.0002" y2="335.91183" fill="none" stroke="#e9a460" stroke-width="6"/><line x1="510.0002" y1="350.00078" x2="510.0002" y2="340.91336" fill="none" stroke="#e9a460" stroke-width="6"/><line x1="520.0002" y1="350.00078" x2="520.0002" y2="344.52077" fill="none" stroke="#e9a460" stroke-width="6"/><line x1="530.0002" y1="350.00078" x2="530.0002" y2="346.92911" fill="none" stroke="#e9a460" stroke-width="6"/><line x1="460.0002" y1="550.00078" x2="460.0002" y2="470.00078" fill="none" stroke="#e9a460" stroke-width="6"/><line x1="480.0002" y1="550.00078" x2="480.0002" y2="506.59274" fill="none" stroke="#e9a460" stroke-width="6"/><line x1="500.0002" y1="550.00078" x2="500.0002" y2="520.08489" fill="none" stroke="#e9a460" stroke-width="6"/><line x1="520.0002" y1="550.00078" x2="520.0002" y2="529.24499" fill="none" stroke="#e9a460" stroke-width="6"/><line x1="540.0002" y1="550.00078" x2="540.0002" y2="535.89543" fill="none" stroke="#e9a460" stroke-width="6"/><line x1="560.0002" y1="550.00078" x2="560.0002" y2="540.62286" fill="none" stroke="#e9a460" stroke-width="6"/><line x1="580.0002" y1="550.00078" x2="580.0002" y2="543.99951" fill="none" stroke="#e9a460" stroke-width="6"/><line x1="470.0002" y1="550.00078" x2="470.0002" y2="496.28546" fill="none" stroke="#e9a460" stroke-width="6"/><line x1="490.0002" y1="550.00078" x2="490.0002" y2="514.09941" fill="none" stroke="#e9a460" stroke-width="6"/><line x1="510.0002" y1="550.00078" x2="510.0002" y2="525.04793" fill="none" stroke="#e9a460" stroke-width="6"/><line x1="530.0002" y1="550.00078" x2="530.0002" y2="532.8279" fill="none" stroke="#e9a460" stroke-width="6"/><line x1="550.0002" y1="550.00078" x2="550.0002" y2="538.51528" fill="none" stroke="#e9a460" stroke-width="6"/><line x1="570.0002" y1="550.00078" x2="570.0002" y2="542.5934" fill="none" stroke="#e9a460" stroke-width="6"/><line x1="590.0002" y1="550.00078" x2="590.0002" y2="545.31915" fill="none" stroke="#e9a460" stroke-width="6"/><line x1="600.0002" y1="550.00078" x2="600.0002" y2="546.19245" fill="none" stroke="#e9a460" stroke-width="6"/></svg>