<svg enable-background="new 0 0 3720 1660" viewBox="0 0 3720 1660" xmlns="http://www.w3.org/2000/svg"><path d="m1013.071838 530h-57.071838" fill="none" stroke="#0089ff" stroke-width="3"/><path d="m1004.1254272 518.9573975-1.8417358 1.977539 9.7518921 9.062439-9.7518921 9.0650024 1.8417358 1.9775391 11.8745728-11.0425415z" fill="#0089ff"/><path d="m940 387.071838v-21.071838" fill="none" stroke="#0089ff" stroke-width="3"/><path d="m951.0425415 378.1254272-1.977478-1.8417663-9.062439 9.7519226-9.0650635-9.7519226-1.977539 1.8417663 11.0426025 11.8745728z" fill="#0089ff"/><path d="m940 327.071838v-21.071838" fill="none" stroke="#0089ff" stroke-width="3"/><path d="m951.0425415 318.1254272-1.977478-1.8417663-9.062439 9.7519226-9.0650635-9.7519226-1.977539 1.8417663 11.0426025 11.8745728z" fill="#0089ff"/><path d="m940 507.071838v-81.071838" fill="none" stroke="#0089ff" stroke-width="3"/><path d="m951.0425415 498.1254272-1.977478-1.8417663-9.062439 9.7519226-9.0650635-9.7519226-1.977539 1.8417663 11.0426025 11.8745728z" fill="#0089ff"/><path d="m1717.0718994 670h-217.0718994v-140h-160" fill="none" stroke="#0089ff" stroke-width="3"/><path d="m1708.1253662 658.9574585-1.8416748 1.977478 9.7519531 9.062439-9.7519531 9.0650635 1.8416748 1.977539 11.8746338-11.0426025z" fill="#0089ff"/><path d="m1980 523.0718384v-33.0718384h-60v80h-44" fill="none" stroke="#0089ff" stroke-width="3"/><path d="m1991.0426025 514.1254272-1.977539-1.8417358-9.062378 9.7518921-9.0650634-9.7518921-1.9775391 1.8417358 11.0426025 11.8745728z" fill="#0089ff"/><path d="m1787.071899 670h-31.071899" fill="none" stroke="#0089ff" stroke-width="3"/><path d="m1778.1253662 658.9574585-1.8416748 1.977478 9.7519531 9.062439-9.7519531 9.0650635 1.8416748 1.977539 11.8746338-11.0426025z" fill="#0089ff"/><path d="m2839.071777 790h-83.071777" fill="none" stroke="#0089ff" stroke-width="3"/><path d="m2830.1254883 778.9574585-1.8417969 1.977478 9.7519531 9.062439-9.7519531 9.0650635 1.8417969 1.977539 11.8745117-11.0426025z" fill="#0089ff"/><path d="m1860 616.9281616v53.0718384h-34" fill="none" stroke="#0089ff" stroke-width="3"/><path d="m1848.9573975 625.8745728 1.977539 1.8417358 9.062378-9.7518921 9.0650634 9.7518921 1.9775391-1.8417358-11.0426025-11.8745728z" fill="#0089ff"/><path d="m1173.071899 530h-73.071899" fill="none" stroke="#0089ff" stroke-width="3"/><path d="m1164.1253662 518.9573975-1.8416748 1.977539 9.7519531 9.062439-9.7519531 9.0650024 1.8416748 1.9775391 11.8746338-11.0425415z" fill="#0089ff"/><path d="m940 269.5718384v-39.5718384h440v300" fill="none" stroke="#0089ff" stroke-width="3"/><path d="m951.0425415 260.6254272-1.977478-1.8417358-9.062439 9.7518921-9.0650635-9.7518921-1.977539 1.8417358 11.0426025 11.8745728z" fill="#0089ff"/><path d="m1013.071838 1230h-57.071838" fill="none" stroke="#0089ff" stroke-width="3"/><path d="m1004.1254272 1218.9573975-1.8417358 1.977539 9.7518921 9.062378-9.7518921 9.0650634 1.8417358 1.9775391 11.8745728-11.0426025z" fill="#0089ff"/><path d="m940 1252.928101v61.071899" fill="none" stroke="#0089ff" stroke-width="3"/><path d="m928.9574585 1261.8746338 1.977478 1.8416748 9.062439-9.7519531 9.0650635 9.7519531 1.977539-1.8416748-11.0426025-11.8746338z" fill="#0089ff"/><path d="m940 1352.928101v21.071899" fill="none" stroke="#0089ff" stroke-width="3"/><path d="m928.9574585 1361.8746338 1.9775391 1.8416748 9.0623779-9.7519531 9.0650635 9.7519531 1.977539-1.8416748-11.0426025-11.8746338z" fill="#0089ff"/><path d="m940 1412.928101v21.071899" fill="none" stroke="#0089ff" stroke-width="3"/><path d="m928.9574585 1421.8745117 1.9775391 1.8417969 9.0623779-9.7519531 9.0650635 9.7519531 1.977539-1.8416748-11.0426025-11.8746338z" fill="#0089ff"/><path d="m1173.071899 1230h-73.071899" fill="none" stroke="#0089ff" stroke-width="3"/><path d="m1164.1253662 1218.9573975-1.8416748 1.977539 9.7519531 9.062378-9.7519531 9.0650634 1.8416748 1.9775391 11.8746338-11.0426025z" fill="#0089ff"/><path d="m1717.0718994 1370h-217.0718994v-140h-160" fill="none" stroke="#0089ff" stroke-width="3"/><path d="m1708.1253662 1358.9573975-1.8416748 1.977539 9.7519531 9.062378-9.7519531 9.0650634 1.8416748 1.9775391 11.8746338-11.0426025z" fill="#0089ff"/><path d="m1980 1256.9281006v33.0718994h-60v-80h-44" fill="none" stroke="#0089ff" stroke-width="3"/><path d="m1968.9573975 1265.8746338 1.977539 1.8416748 9.062378-9.7519531 9.0650634 9.7519531 1.9775391-1.8416748-11.0426025-11.8746338z" fill="#0089ff"/><path d="m1787.071899 1370h-31.071899" fill="none" stroke="#0089ff" stroke-width="3"/><path d="m1778.1253662 1358.9573975-1.8416748 1.977539 9.7519531 9.062378-9.7519531 9.0650634 1.8416748 1.9775391 11.8746338-11.0426025z" fill="#0089ff"/><path d="m2893.071777 1136h-33.071777" fill="none" stroke="#0089ff" stroke-width="3"/><path d="m2884.1254883 1124.9573975-1.8417969 1.977539 9.7519531 9.062378-9.7519531 9.0650634 1.8417969 1.9775391 11.8745117-11.0426025z" fill="#0089ff"/><path d="m2893.071777 1164h-33.071777" fill="none" stroke="#0089ff" stroke-width="3"/><path d="m2884.1254883 1152.9573975-1.8417969 1.977539 9.7519531 9.062378-9.7519531 9.0650634 1.8417969 1.9775391 11.8745117-11.0426025z" fill="#0089ff"/><path d="m2991.071777 1136h-31.071777" fill="none" stroke="#0089ff" stroke-width="3"/><path d="m2982.1254883 1124.9573975-1.8417969 1.977539 9.7519531 9.062378-9.7519531 9.0650634 1.8417969 1.9775391 11.8745117-11.0426025z" fill="#0089ff"/><path d="m2991.071777 1164h-31.071777" fill="none" stroke="#0089ff" stroke-width="3"/><path d="m2982.1254883 1152.9573975-1.8417969 1.977539 9.7519531 9.062378-9.7519531 9.0650634 1.8417969 1.9775391 11.8745117-11.0426025z" fill="#0089ff"/><path d="m2453.071777 1406h-53.071777" fill="none" stroke="#0089ff" stroke-width="3"/><path d="m2444.1254883 1394.9573975-1.8417969 1.977539 9.7519531 9.062378-9.7519531 9.0650634 1.8417969 1.9775391 11.8745117-11.0426025z" fill="#0089ff"/><path d="m2453.071777 1434h-53.071777" fill="none" stroke="#0089ff" stroke-width="3"/><path d="m2444.1254883 1422.9573975-1.8417969 1.977539 9.7519531 9.062378-9.7519531 9.0650634 1.8417969 1.9775391 11.8745117-11.0426025z" fill="#0089ff"/><path d="m2673.071777 1406h-53.071777" fill="none" stroke="#0089ff" stroke-width="3"/><path d="m2664.1254883 1394.9573975-1.8417969 1.977539 9.7519531 9.062378-9.7519531 9.0650634 1.8417969 1.9775391 11.8745117-11.0426025z" fill="#0089ff"/><path d="m2673.071777 1434h-53.071777" fill="none" stroke="#0089ff" stroke-width="3"/><path d="m2664.1254883 1422.9573975-1.8417969 1.977539 9.7519531 9.062378-9.7519531 9.0650634 1.8417969 1.9775391 11.8745117-11.0426025z" fill="#0089ff"/><path d="m2893.071777 1406h-53.071777" fill="none" stroke="#0089ff" stroke-width="3"/><path d="m2884.1254883 1394.9573975-1.8417969 1.977539 9.7519531 9.062378-9.7519531 9.0650634 1.8417969 1.9775391 11.8745117-11.0426025z" fill="#0089ff"/><path d="m2893.071777 1434h-53.071777" fill="none" stroke="#0089ff" stroke-width="3"/><path d="m2884.1254883 1422.9573975-1.8417969 1.977539 9.7519531 9.062378-9.7519531 9.0650634 1.8417969 1.9775391 11.8745117-11.0426025z" fill="#0089ff"/><path d="m3113.071777 1406h-53.071777" fill="none" stroke="#0089ff" stroke-width="3"/><path d="m3104.1254883 1394.9573975-1.8417969 1.977539 9.7519531 9.062378-9.7519531 9.0650634 1.8417969 1.9775391 11.8745117-11.0426025z" fill="#0089ff"/><path d="m3113.071777 1434h-53.071777" fill="none" stroke="#0089ff" stroke-width="3"/><path d="m3104.1254883 1422.9573975-1.8417969 1.977539 9.7519531 9.062378-9.7519531 9.0650634 1.8417969 1.9775391 11.8745117-11.0426025z" fill="#0089ff"/><path d="m3353.071777 1406h-73.071777" fill="none" stroke="#0089ff" stroke-width="3"/><path d="m3344.1254883 1394.9573975-1.8417969 1.977539 9.7519531 9.062378-9.7519531 9.0650634 1.8417969 1.9775391 11.8745117-11.0426025z" fill="#0089ff"/><path d="m3353.071777 1434h-73.071777" fill="none" stroke="#0089ff" stroke-width="3"/><path d="m3344.1254883 1422.9573975-1.8417969 1.977539 9.7519531 9.062378-9.7519531 9.0650634 1.8417969 1.9775391 11.8745117-11.0426025z" fill="#0089ff"/><path d="m3433.071777 1406h-33.071777" fill="none" stroke="#0089ff" stroke-width="3"/><path d="m3424.1254883 1394.9573975-1.8417969 1.977539 9.7519531 9.062378-9.7519531 9.0650634 1.8417969 1.9775391 11.8745117-11.0426025z" fill="#0089ff"/><path d="m3433.071777 1434h-33.071777" fill="none" stroke="#0089ff" stroke-width="3"/><path d="m3424.1254883 1422.9573975-1.8417969 1.977539 9.7519531 9.062378-9.7519531 9.0650634 1.8417969 1.9775391 11.8745117-11.0426025z" fill="#0089ff"/><path d="m3621.071777 1407h-101.071777" fill="none" stroke="#0089ff" stroke-width="3"/><path d="m3612.1254883 1395.9573975-1.8417969 1.977539 9.7519531 9.062378-9.7519531 9.0650634 1.8417969 1.9775391 11.8745117-11.0426025z" fill="#0089ff"/><path d="m3621.071777 1433h-101.071777" fill="none" stroke="#0089ff" stroke-width="3"/><path d="m3612.1254883 1421.9573975-1.8417969 1.977539 9.7519531 9.062378-9.7519531 9.0650634 1.8417969 1.9775391 11.8745117-11.0426025z" fill="#0089ff"/><path d="m3113.071777 1136h-27.071777" fill="none" stroke="#0089ff" stroke-width="3"/><path d="m3104.1254883 1124.9573975-1.8417969 1.977539 9.7519531 9.062378-9.7519531 9.0650634 1.8417969 1.9775391 11.8745117-11.0426025z" fill="#0089ff"/><path d="m3113.071777 1164h-27.071777" fill="none" stroke="#0089ff" stroke-width="3"/><path d="m3104.1254883 1152.9573975-1.8417969 1.977539 9.7519531 9.062378-9.7519531 9.0650634 1.8417969 1.9775391 11.8745117-11.0426025z" fill="#0089ff"/><path d="m3253.071777 1136h-33.071777" fill="none" stroke="#0089ff" stroke-width="3"/><path d="m3244.1254883 1124.9573975-1.8417969 1.977539 9.7519531 9.062378-9.7519531 9.0650634 1.8417969 1.9775391 11.8745117-11.0426025z" fill="#0089ff"/><path d="m3253.071777 1164h-33.071777" fill="none" stroke="#0089ff" stroke-width="3"/><path d="m3244.1254883 1152.9573975-1.8417969 1.977539 9.7519531 9.062378-9.7519531 9.0650634 1.8417969 1.9775391 11.8745117-11.0426025z" fill="#0089ff"/><path d="m1860 1256.9281006v113.0718994h-34" fill="none" stroke="#0089ff" stroke-width="3"/><path d="m1848.9573975 1265.8746338 1.977539 1.8416748 9.062378-9.7519531 9.0650634 9.7519531 1.9775391-1.8416748-11.0426025-11.8746338z" fill="#0089ff"/><path d="m2820 1103.0718994v-93.0718994h420v-220h-40" fill="none" stroke="#0089ff" stroke-width="3"/><path d="m2831.0424805 1094.1254883-1.9775391-1.8417969-9.0622559 9.7519531-9.0651855-9.7519531-1.9775391 1.8416748 11.0427246 11.8746338z" fill="#0089ff"/><path d="m940 1470.4281006v39.5718994h440v-280" fill="none" stroke="#0089ff" stroke-width="3"/><path d="m928.9574585 1479.3746338 1.977478 1.8416748 9.062439-9.7519531 9.0650635 9.7519531 1.977539-1.8416748-11.0426025-11.8746338z" fill="#0089ff"/><path d="m3033.071777 790h-157.071777" fill="none" stroke="#0089ff" stroke-width="3"/><path d="m3024.1254883 778.9574585-1.8417969 1.977478 9.7519531 9.062439-9.7519531 9.0650635 1.8417969 1.977539 11.8745117-11.0426025z" fill="#0089ff"/><path d="m2740 743.0718384v-173.0718384h-744" fill="none" stroke="#0089ff" stroke-width="3"/><path d="m2751.0424805 734.1254272-1.9775391-1.8417358-9.0622559 9.7518921-9.0651855-9.7518921-1.9775391 1.8417358 11.0427246 11.8745728z" fill="#0089ff"/><path d="m2740 836.9281616v133.0718384h-646.0009766l.0012207 240h-98.0002441" fill="none" stroke="#0089ff" stroke-width="3"/><path d="m2728.9575195 845.8745728 1.9775391 1.8417358 9.0622559-9.7518921 9.0651855 9.7518921 1.9775391-1.8417358-11.0427246-11.8745728z" fill="#0089ff"/><path d="m2233.0717773 1433h-153.0717773v-183h1260v-90h-36" fill="none" stroke="#0089ff" stroke-width="3"/><path d="m2224.1254883 1421.9573975-1.8417969 1.977539 9.7519531 9.062378-9.7519531 9.0650634 1.8417969 1.9775391 11.8745117-11.0426025z" fill="#0089ff"/><path d="m2233.0717773 1407h-133.0717773v-137h1260v-130h-56" fill="none" stroke="#0089ff" stroke-width="3"/><g fill="#0089ff"><path d="m2224.1254883 1395.9573975-1.8417969 1.977539 9.7519531 9.062378-9.7519531 9.0650634 1.8417969 1.9775391 11.8745117-11.0426025z"/><path d="m1920 577c-3.8499756 0-7-3.1500244-7-7 0-3.8499756 3.1500244-7 7-7 3.8499756 0 7 3.1500244 7 7 0 3.8499756-3.1500244 7-7 7z"/><path d="m1920 1217c-3.8499756 0-7-3.1500244-7-7 0-3.8499756 3.1500244-7 7-7 3.8499756 0 7 3.1500244 7 7 0 3.8499756-3.1500244 7-7 7z"/><path d="m1500 1237c-3.8499756 0-7-3.1500244-7-7 0-3.8499756 3.1500244-7 7-7 3.8499756 0 7 3.1500244 7 7 0 3.8499756-3.1500244 7-7 7z"/><path d="m1380 1237c-3.8499756 0-7-3.1500244-7-7 0-3.8499756 3.1500244-7 7-7 3.8499756 0 7 3.1500244 7 7 0 3.8499756-3.1500244 7-7 7z"/><path d="m1380 537c-3.8499756 0-7-3.1500244-7-7 0-3.8499756 3.1500244-7 7-7 3.8499756 0 7 3.1500244 7 7 0 3.8499756-3.1500244 7-7 7z"/><path d="m1500 537c-3.8499756 0-7-3.1500244-7-7 0-3.8499756 3.1500244-7 7-7 3.8499756 0 7 3.1500244 7 7 0 3.8499756-3.1500244 7-7 7z"/><path d="m2740 577c-3.8500977 0-7-3.1500244-7-7 0-3.8499756 3.1499023-7 7-7 3.8500977 0 7 3.1500244 7 7 0 3.8499756-3.1499023 7-7 7z"/><path d="m2740 977c-3.8500977 0-7-3.1500244-7-7 0-3.8499756 3.1499023-7 7-7 3.8500977 0 7 3.1500244 7 7 0 3.8499756-3.1499023 7-7 7z"/><path d="m3240 797c-3.8500977 0-7-3.1500244-7-7 0-3.8499756 3.1499023-7 7-7 3.8500977 0 7 3.1500244 7 7 0 3.8499756-3.1499023 7-7 7z"/><path d="m1143 1242h-14c-6.5999756 0-12-5.4000244-12-12 0-6.5999756 5.4000244-12 12-12h14c6.5999756 0 12 5.4000244 12 12 0 6.5999756-5.4000244 12-12 12z"/><path d="m1143 542h-14c-6.5999756 0-12-5.3999634-12-12 0-6.5999756 5.4000244-12 12-12h14c6.5999756 0 12 5.4000244 12 12 0 6.6000366-5.4000244 12-12 12z"/><path d="m2832 1082h-24c-6.6000977 0-12-5.4000244-12-12 0-6.5999756 5.3999023-12 12-12h24c6.6000977 0 12 5.4000244 12 12 0 6.5999756-5.3999023 12-12 12z"/><path d="m3559 1419h-14c-6.6000977 0-12-5.4000244-12-12 0-6.5999756 5.3999023-12 12-12h14c6.6000977 0 12 5.4000244 12 12 0 6.5999756-5.3999023 12-12 12z"/><path d="m3593 1445h-14c-6.6000977 0-12-5.4000244-12-12 0-6.5999756 5.3999023-12 12-12h14c6.6000977 0 12 5.4000244 12 12 0 6.5999756-5.3999023 12-12 12z"/><path d="m2163 1419h-14c-6.6000977 0-12-5.4000244-12-12 0-6.5999756 5.3999023-12 12-12h14c6.6000977 0 12 5.4000244 12 12 0 6.5999756-5.3999023 12-12 12z"/><path d="m2197 1445h-14c-6.6000977 0-12-5.4000244-12-12 0-6.5999756 5.3999023-12 12-12h14c6.6000977 0 12 5.4000244 12 12 0 6.5999756-5.3999023 12-12 12z"/></g><path d="m1124.7841797 1224.1767578h4.1210938c2.9003906 0 5.0615234 1 5.0615234 4.0410156 0 2.9003906-2.1611328 4.2412109-4.9814453 4.2412109h-1.8808594v4.8007812h-2.3203125zm4.0214844 6.421875c1.9404297 0 2.8798828-.7802734 2.8798828-2.3808594 0-1.640625-1.0195312-2.1806641-2.9599609-2.1806641h-1.6210938v4.5615234h1.7011719z"/><path d="m1136.4238281 1224.1767578h2.6210938l2.3203125 6.4013672c.2802734.8203125.5595703 1.7001953.8398438 2.5605469h.0800781c.2802734-.8603516.5400391-1.7402344.8203125-2.5605469l2.2607422-6.4013672h2.640625v13.0830078h-2.140625v-5.9814453c0-1.2197266.1796875-2.9609375.2998047-4.1611328h-.0800781l-1.0605469 3.0410156-2.1396484 5.8808594h-1.3808594l-2.1601562-5.8808594-1.0400391-3.0410156h-.0800781c.0996094 1.2001953.2998047 2.9414062.2998047 4.1611328v5.9814453h-2.1005859v-13.0830078z"/><path d="m1124.390625 524.1767578h4.1210938c2.9003906 0 5.0615234 1 5.0615234 4.0410156 0 2.9003906-2.1611328 4.2412109-4.9814453 4.2412109h-1.8808594v4.8007812h-2.3203125zm4.0214844 6.421875c1.9404297 0 2.8798828-.7802734 2.8798828-2.3808594 0-1.640625-1.0195312-2.1806641-2.9599609-2.1806641h-1.6210938v4.5615234h1.7011719z"/><path d="m1136.0302734 524.1767578h2.6210938l2.3203125 6.4013672c.2802734.8203125.5595703 1.7001953.8398438 2.5605469h.0800781c.2802734-.8603516.5400391-1.7402344.8203125-2.5605469l2.2607422-6.4013672h2.640625v13.0830078h-2.140625v-5.9814453c0-1.2197266.1796875-2.9609375.2998047-4.1611328h-.0800781l-1.0605469 3.0410156-2.1396484 5.8808594h-1.3808594l-2.1601562-5.8808594-1.0400391-3.0410156h-.0800781c.0996094 1.2001953.2998047 2.9414062.2998047 4.1611328v5.9814453h-2.1005859v-13.0830078z"/><path d="m2805.0429688 1075.5791016 1.3603516-1.5800781c.9404297.8798828 2.2011719 1.4804688 3.4013672 1.4804688 1.4804688 0 2.2802734-.6601562 2.2802734-1.6806641 0-1.0800781-.8398438-1.4199219-2.0205078-1.9199219l-1.8007812-.7802734c-1.2802734-.5400391-2.640625-1.5605469-2.640625-3.4804688 0-2.0810547 1.8408203-3.6816406 4.4013672-3.6816406 1.5205078 0 3.0009766.640625 4.0205078 1.6611328l-1.1796875 1.4794922c-.8408203-.7001953-1.7207031-1.1201172-2.8408203-1.1201172-1.2402344 0-2.0605469.5800781-2.0605469 1.5410156 0 1.0195312 1 1.4003906 2.0810547 1.8398438l1.7802734.7402344c1.5400391.6601562 2.640625 1.640625 2.640625 3.5410156 0 2.1201172-1.7607422 3.8808594-4.7011719 3.8808594-1.7607423-.0000001-3.4814454-.7001954-4.7216797-1.9208985z"/><path d="m2815.1035156 1064.1767578h2.4609375l1.8398438 6.5820312c.4199219 1.4794922.7207031 2.7597656 1.1601562 4.2607422h.0800781c.4404297-1.5009766.7402344-2.78125 1.140625-4.2607422l1.8203125-6.5820312h2.3808594l-4.0615234 13.0830078h-2.7402344z"/><path d="m2827.5634766 1064.1767578h7.9023438v1.9609375h-5.5820312v3.7001953h4.7617188v1.9609375h-4.7617188v5.4609375h-2.3203125v-13.0830078z"/><path d="m3548.4169922 1401.1767578h2.3203125v11.1230469h5.4414062v1.9599609h-7.7617188v-13.0830078z"/><path d="m3582.1005859 1427.1767578h4.4208984c2.7207031 0 4.8007812.9599609 4.8007812 3.8808594 0 2.0009766-1.0400391 3.2011719-2.5996094 3.7412109l3.1201172 5.4609375h-2.6005859l-2.8203125-5.1210938h-2.0009766v5.1210938h-2.3203125v-13.0830078zm4.1806641 6.1210938c1.78125 0 2.7607422-.7597656 2.7607422-2.2402344 0-1.5-.9794922-2.0205078-2.7607422-2.0205078h-1.8603516v4.2607422z"/><path d="m2152.4169922 1401.1767578h2.3203125v11.1230469h5.4414062v1.9599609h-7.7617188v-13.0830078z"/><path d="m2186.1005859 1427.1767578h4.4208984c2.7207031 0 4.8007812.9599609 4.8007812 3.8808594 0 2.0009766-1.0400391 3.2011719-2.5996094 3.7412109l3.1201172 5.4609375h-2.6005859l-2.8203125-5.1210938h-2.0009766v5.1210938h-2.3203125v-13.0830078zm4.1806641 6.1210938c1.78125 0 2.7607422-.7597656 2.7607422-2.2402344 0-1.5-.9794922-2.0205078-2.7607422-2.0205078h-1.8603516v4.2607422z"/></svg>