<svg xmlns="http://www.w3.org/2000/svg" viewBox="0 0 1310 810"><title>svf</title><rect x="0.5" y="0.5" width="1309" height="809" rx="3.5" ry="3.5" fill="#141414"/><path d="M1306,1a3.00344,3.00344,0,0,1,3,3V806a3.00336,3.00336,0,0,1-3,3H4a3.00336,3.00336,0,0,1-3-3V4A3.00344,3.00344,0,0,1,4,1H1306m0-1H4A4,4,0,0,0,0,4V806a4.00012,4.00012,0,0,0,4,4H1306a4.00012,4.00012,0,0,0,4-4V4a4,4,0,0,0-4-4Z" fill="#666"/><rect x="357.5" y="160.49951" width="179" height="39" rx="5.5" ry="5.5" fill="#4e4e4e"/><path d="M531,160.99951a5.0058,5.0058,0,0,1,5,5v28a5.0058,5.0058,0,0,1-5,5H363a5.0058,5.0058,0,0,1-5-5v-28a5.0058,5.0058,0,0,1,5-5H531m0-1H363a6.01781,6.01781,0,0,0-6,6v28a6.01774,6.01774,0,0,0,6,6H531a6.01774,6.01774,0,0,0,6-6v-28a6.01781,6.01781,0,0,0-6-6Z" fill="#979797"/><rect x="907.5" y="160.5" width="159" height="39" rx="5.5" ry="5.5" fill="#4e4e4e"/><path d="M1061,161a5.0058,5.0058,0,0,1,5,5v28a5.0058,5.0058,0,0,1-5,5H913a5.0058,5.0058,0,0,1-5-5V166a5.0058,5.0058,0,0,1,5-5h148m0-1H913a6.01774,6.01774,0,0,0-6,6v28a6.01774,6.01774,0,0,0,6,6h148a6.01774,6.01774,0,0,0,6-6V166a6.01774,6.01774,0,0,0-6-6Z" fill="#979797"/><path d="M623,310.7002H771.00024A5.2998,5.2998,0,0,1,776.3,316v88a5.2998,5.2998,0,0,1-5.2998,5.2998H622.99976A5.2998,5.2998,0,0,1,617.7,404V316.00024A5.3,5.3,0,0,1,623,310.7002Z" fill="#31333d"/><path d="M771,311.4a4.60514,4.60514,0,0,1,4.6001,4.6v88A4.60514,4.60514,0,0,1,771,408.6H623a4.60514,4.60514,0,0,1-4.6001-4.6V316A4.60514,4.60514,0,0,1,623,311.4H771m0-1.4H623a6.01774,6.01774,0,0,0-6,6v88a6.01774,6.01774,0,0,0,6,6H771a6.01774,6.01774,0,0,0,6-6V316a6.01774,6.01774,0,0,0-6-6Z" fill="#e9a460"/><path d="M623,550.7002H771.00024A5.2998,5.2998,0,0,1,776.3,556v88a5.2998,5.2998,0,0,1-5.2998,5.2998H622.99976A5.2998,5.2998,0,0,1,617.7,644V556.00024A5.3,5.3,0,0,1,623,550.7002Z" fill="#31333d"/><path d="M771,551.4a4.60514,4.60514,0,0,1,4.6001,4.6v88A4.60514,4.60514,0,0,1,771,648.6H623a4.60514,4.60514,0,0,1-4.6001-4.6V556A4.60514,4.60514,0,0,1,623,551.4H771m0-1.4H623a6.01774,6.01774,0,0,0-6,6v88a6.01781,6.01781,0,0,0,6,6H771a6.01781,6.01781,0,0,0,6-6V556a6.01774,6.01774,0,0,0-6-6Z" fill="#e9a460"/><path d="M813,310.7002h18a5.3,5.3,0,0,1,5.3,5.3V404a5.2998,5.2998,0,0,1-5.2998,5.2998H812.99976A5.2998,5.2998,0,0,1,807.7,404V316.00024A5.3,5.3,0,0,1,813,310.7002Z" fill="#31333d"/><path d="M831,311.4a4.60514,4.60514,0,0,1,4.6001,4.6v88A4.60514,4.60514,0,0,1,831,408.6H813a4.60514,4.60514,0,0,1-4.6001-4.6V316A4.60514,4.60514,0,0,1,813,311.4h18m0-1.4H813a6.01774,6.01774,0,0,0-6,6v88a6.01774,6.01774,0,0,0,6,6h18a6.01774,6.01774,0,0,0,6-6V316a6.01774,6.01774,0,0,0-6-6Z" fill="#e9a460"/><path d="M813,550.7002h18a5.3,5.3,0,0,1,5.3,5.3V644a5.2998,5.2998,0,0,1-5.2998,5.2998H812.99976A5.2998,5.2998,0,0,1,807.7,644V556.00024A5.3,5.3,0,0,1,813,550.7002Z" fill="#31333d"/><path d="M831,551.4a4.60514,4.60514,0,0,1,4.6001,4.6v88A4.60514,4.60514,0,0,1,831,648.6H813a4.60514,4.60514,0,0,1-4.6001-4.6V556A4.60514,4.60514,0,0,1,813,551.4h18m0-1.4H813a6.01774,6.01774,0,0,0-6,6v88a6.01781,6.01781,0,0,0,6,6h18a6.01781,6.01781,0,0,0,6-6V556a6.01774,6.01774,0,0,0-6-6Z" fill="#e9a460"/><path d="M423,550.7002h68.00024A5.2998,5.2998,0,0,1,496.3,556v87.99976a5.3,5.3,0,0,1-5.3,5.3H422.99976A5.2998,5.2998,0,0,1,417.7,644V556.00024A5.3,5.3,0,0,1,423,550.7002Z" fill="#31333d"/><path d="M491,551.4a4.60514,4.60514,0,0,1,4.6001,4.6v88A4.60514,4.60514,0,0,1,491,648.6H423a4.60514,4.60514,0,0,1-4.6001-4.6V556A4.60514,4.60514,0,0,1,423,551.4h68m0-1.4H423a6.01774,6.01774,0,0,0-6,6v88a6.01781,6.01781,0,0,0,6,6h68a6.01781,6.01781,0,0,0,6-6V556a6.01774,6.01774,0,0,0-6-6Z" fill="#e9a460"/><path d="M963,430.7002h68a5.3,5.3,0,0,1,5.3,5.3v87.99951a5.3,5.3,0,0,1-5.3,5.3H962.99976A5.2998,5.2998,0,0,1,957.7,524V436.00024A5.3,5.3,0,0,1,963,430.7002Z" fill="#31333d"/><path d="M1031,431.4a4.60514,4.60514,0,0,1,4.6001,4.6v88A4.60514,4.60514,0,0,1,1031,528.6H963a4.60514,4.60514,0,0,1-4.6001-4.6V436A4.60514,4.60514,0,0,1,963,431.4h68m0-1.4H963a6.01774,6.01774,0,0,0-6,6v88a6.01781,6.01781,0,0,0,6,6h68a6.01781,6.01781,0,0,0,6-6V436a6.01774,6.01774,0,0,0-6-6Z" fill="#e9a460"/><path d="M1007.387,740.2041V734.811h1.1626v5.42089c0,2.21338.93848,2.91358,2.14307,2.91358,1.21875,0,2.17114-.7002,2.17114-2.91358V734.811h1.12061v5.39306c0,2.95557-1.4148,3.96387-3.29175,3.96387S1007.387,743.15967,1007.387,740.2041Z" fill="#979797"/><path d="M1015.53418,743.22949l.57446-.77051a3.06036,3.06036,0,0,0,2.00318.8125c.89648,0,1.34472-.47607,1.34472-1.06445,0-.70019-.8125-1.00879-1.55493-1.28857-.96655-.3501-2.031-.8125-2.031-1.96143,0-1.09228.8684-1.93262,2.33911-1.93262a3.39978,3.39978,0,0,1,2.11523.77l-.54639.72852a2.52783,2.52783,0,0,0-1.55493-.60205c-.85425,0-1.24658.46191-1.24658.98047,0,.644.74243.88232,1.51294,1.17675.98047.36377,2.073.77,2.073,2.05909,0,1.10644-.88233,2.03076-2.49341,2.03076A4.09855,4.09855,0,0,1,1015.53418,743.22949Z" fill="#979797"/><path d="M1021.65234,740.61035a3.28291,3.28291,0,0,1,3.05371-3.58594c1.73682,0,2.71753,1.24659,2.71753,3.19336a4.4867,4.4867,0,0,1-.042.65869h-4.59448a2.25763,2.25763,0,0,0,2.269,2.36719,3.07583,3.07583,0,0,0,1.69507-.53222l.40625.75634a4.0568,4.0568,0,0,1-2.24121.7002A3.25521,3.25521,0,0,1,1021.65234,740.61035Zm4.7627-.56055c0-1.37255-.61646-2.11523-1.68091-2.11523a2.10272,2.10272,0,0,0-1.96118,2.11523Z" fill="#979797"/><path d="M1029.10034,737.19238h.95239l.09815,1.23242h.042a2.3279,2.3279,0,0,1,1.93311-1.40039,1.69626,1.69626,0,0,1,.72827.13965l-.22412,1.00879a1.91,1.91,0,0,0-.65821-.1123c-.57446,0-1.26074.42041-1.7229,1.56933V744h-1.14868Z" fill="#979797"/><path d="M1036.87012,734.811h1.16259V744h-1.16259Z" fill="#979797"/><path d="M1040.43994,737.19238h.95239l.09815.98047h.042a3.20793,3.20793,0,0,1,2.2832-1.14844c1.42871,0,2.07325.92432,2.07325,2.66114V744h-1.14869v-4.16016c0-1.2749-.39233-1.82129-1.28881-1.82129-.7002,0-1.17652.36426-1.863,1.05079V744h-1.14844Z" fill="#979797"/><path d="M1048.294,741.89893v-3.76807h-1.00855v-.86865l1.0647-.06983.13989-1.90527h.96655v1.90527h1.835v.93848h-1.835v3.78223c0,.84033.26612,1.3164,1.05054,1.3164a2.47428,2.47428,0,0,0,.77051-.18213l.22412.86866a4.20615,4.20615,0,0,1-1.26074.25195C1048.78418,744.168,1048.294,743.24365,1048.294,741.89893Z" fill="#979797"/><path d="M1052.12964,740.61035a3.28291,3.28291,0,0,1,3.05371-3.58594c1.73706,0,2.71753,1.24659,2.71753,3.19336a4.4867,4.4867,0,0,1-.042.65869h-4.59449a2.25778,2.25778,0,0,0,2.269,2.36719,3.07585,3.07585,0,0,0,1.69507-.53222l.40625.75634a4.05684,4.05684,0,0,1-2.24122.7002A3.25521,3.25521,0,0,1,1052.12964,740.61035Zm4.76269-.56055c0-1.37255-.61645-2.11523-1.6809-2.11523a2.10273,2.10273,0,0,0-1.96119,2.11523Z" fill="#979797"/><path d="M1059.57764,737.19238h.95239l.09814,1.23242h.042a2.32787,2.32787,0,0,1,1.9331-1.40039,1.69626,1.69626,0,0,1,.72827.13965l-.22412,1.00879a1.91,1.91,0,0,0-.6582-.1123c-.57446,0-1.26074.42041-1.72315,1.56933V744h-1.14843Z" fill="#979797"/><path d="M1064.63159,738.13086h-.92456v-.86865l.92456-.06983v-1.07861c0-1.38672.63037-2.25537,1.989-2.25537a3.08716,3.08716,0,0,1,1.13476.22412l-.2522.88281a1.9096,1.9096,0,0,0-.7705-.16845c-.64429,0-.9524.44824-.9524,1.31689v1.07861h1.44263v.93848h-1.44263V744h-1.14868Z" fill="#979797"/><path d="M1067.82324,742.23486c0-1.48486,1.2749-2.22705,4.17432-2.54931,0-.86817-.28-1.709-1.40064-1.709a3.70207,3.70207,0,0,0-2.03125.72852l-.44824-.79834a5.05312,5.05312,0,0,1,2.67554-.88233c1.667,0,2.36719,1.10645,2.36719,2.80127V744h-.9524l-.09814-.8125h-.042a3.63156,3.63156,0,0,1-2.25513.98047A1.85254,1.85254,0,0,1,1067.82324,742.23486Zm4.17432.09815v-1.89112c-2.269.28028-3.05371.84082-3.05371,1.709,0,.77051.53247,1.09277,1.20483,1.09277A2.75913,2.75913,0,0,0,1071.99756,742.333Z" fill="#979797"/><path d="M1074.79517,740.61035a3.29709,3.29709,0,0,1,3.27783-3.58594,2.82566,2.82566,0,0,1,1.989.79834l-.58838.75635a1.99628,1.99628,0,0,0-1.35864-.60254c-1.23267,0-2.12915,1.06494-2.12915,2.63379,0,1.55469.85449,2.60547,2.10107,2.60547a2.42089,2.42089,0,0,0,1.59693-.68652l.50439.7705a3.32325,3.32325,0,0,1-2.19922.86817C1076.18188,744.168,1074.79517,742.86523,1074.79517,740.61035Z" fill="#979797"/><path d="M1080.885,740.61035a3.28291,3.28291,0,0,1,3.05371-3.58594c1.73706,0,2.71753,1.24659,2.71753,3.19336a4.4867,4.4867,0,0,1-.042.65869h-4.59448a2.25777,2.25777,0,0,0,2.269,2.36719,3.07585,3.07585,0,0,0,1.69507-.53222l.40625.75634a4.05683,4.05683,0,0,1-2.24121.7002A3.25521,3.25521,0,0,1,1080.885,740.61035Zm4.7627-.56055c0-1.37255-.61646-2.11523-1.68091-2.11523a2.10272,2.10272,0,0,0-1.96118,2.11523Z" fill="#979797"/><path d="M1090.71289,739.40527c0-2.95556,1.73706-4.7622,4.07642-4.7622a3.35326,3.35326,0,0,1,2.52124,1.13427l-.63037.75684a2.51045,2.51045,0,0,0-1.877-.86865c-1.73681,0-2.8855,1.42871-2.8855,3.71191,0,2.31152,1.10645,3.76807,2.84351,3.76807a2.77232,2.77232,0,0,0,2.12915-1.03662l.64429.72851a3.5553,3.5553,0,0,1-2.81543,1.33057C1092.42188,744.168,1090.71289,742.40332,1090.71289,739.40527Z" fill="#979797"/><path d="M1098.6228,740.61035c0-2.2832,1.48487-3.58594,3.15186-3.58594,1.66675,0,3.15161,1.30274,3.15161,3.58594a3.17489,3.17489,0,1,1-6.30347,0Zm5.1128,0c0-1.56885-.78443-2.63379-1.96094-2.63379-1.16284,0-1.96118,1.06494-1.96118,2.63379,0,1.55469.79834,2.60547,1.96118,2.60547C1102.95117,743.21582,1103.7356,742.165,1103.7356,740.61035Z" fill="#979797"/><path d="M1106.71509,737.19238h.95239l.09814.98047h.042a3.20789,3.20789,0,0,1,2.2832-1.14844c1.42871,0,2.07324.92432,2.07324,2.66114V744h-1.14868v-4.16016c0-1.2749-.39233-1.82129-1.28882-1.82129-.70019,0-1.17651.36426-1.86279,1.05079V744h-1.14868Z" fill="#979797"/><path d="M1114.56909,741.89893v-3.76807h-1.00854v-.86865l1.06445-.06983.14014-1.90527h.96655v1.90527h1.835v.93848h-1.835v3.78223c0,.84033.26611,1.3164,1.05054,1.3164a2.47422,2.47422,0,0,0,.7705-.18213l.22413.86866a4.20621,4.20621,0,0,1-1.26075.25195C1115.05933,744.168,1114.56909,743.24365,1114.56909,741.89893Z" fill="#979797"/><path d="M1119.105,737.19238h.95239l.09815,1.23242h.042a2.3279,2.3279,0,0,1,1.93311-1.40039,1.69629,1.69629,0,0,1,.72827.13965l-.22412,1.00879a1.91005,1.91005,0,0,0-.65821-.1123c-.57446,0-1.26074.42041-1.72314,1.56933V744H1119.105Z" fill="#979797"/><path d="M1123.31836,740.61035c0-2.2832,1.48486-3.58594,3.15185-3.58594,1.66675,0,3.15162,1.30274,3.15162,3.58594a3.17489,3.17489,0,1,1-6.30347,0Zm5.11279,0c0-1.56885-.78442-2.63379-1.96094-2.63379-1.16259,0-1.96118,1.06494-1.96118,2.63379,0,1.55469.79859,2.60547,1.96118,2.60547C1127.64673,743.21582,1128.43115,742.165,1128.43115,740.61035Z" fill="#979797"/><path d="M1131.41064,742.62744v-8.60107h1.14844v8.68506c0,.36425.1543.50439.32227.50439a.95583.95583,0,0,0,.25219-.02832l.15406.86865a1.55007,1.55007,0,0,1-.65845.11182C1131.76074,744.168,1131.41064,743.62158,1131.41064,742.62744Z" fill="#979797"/><path d="M351.69922,170a1.02061,1.02061,0,1,1,1.02051,1.03491A1.02791,1.02791,0,0,1,351.69922,170Z" fill="#979797"/><path d="M348.02539,170a1.02061,1.02061,0,1,1,1.02051,1.03491A1.0276,1.0276,0,0,1,348.02539,170Z" fill="#979797"/><path d="M344.35107,170a1.02061,1.02061,0,1,1,1.02051,1.03491A1.02792,1.02792,0,0,1,344.35107,170Z" fill="#979797"/><path d="M340.67725,170a1.02061,1.02061,0,1,1,1.0205,1.03491A1.02791,1.02791,0,0,1,340.67725,170Z" fill="#979797"/><path d="M337.00293,170a1.02085,1.02085,0,1,1,1.02051,1.03491A1.02791,1.02791,0,0,1,337.00293,170Z" fill="#979797"/><path d="M333.3291,170a1.02061,1.02061,0,1,1,1.02051,1.03491A1.02791,1.02791,0,0,1,333.3291,170Z" fill="#979797"/><path d="M329.65479,170a1.02085,1.02085,0,1,1,1.021,1.03491A1.028,1.028,0,0,1,329.65479,170Z" fill="#979797"/><path d="M325.981,170a1.02061,1.02061,0,1,1,1.0205,1.03491A1.02791,1.02791,0,0,1,325.981,170Z" fill="#979797"/><path d="M322.30713,170a1.02061,1.02061,0,1,1,1.02051,1.03491A1.0276,1.0276,0,0,1,322.30713,170Z" fill="#979797"/><path d="M318.63281,170a1.02061,1.02061,0,1,1,1.02051,1.03491A1.02791,1.02791,0,0,1,318.63281,170Z" fill="#979797"/><polygon points="350.403 163.865 349.38 164.964 354.797 169.999 349.38 175.035 350.403 176.133 357 169.999 350.403 163.865" fill="#979797"/><path d="M351.69922,190a1.02061,1.02061,0,1,1,1.02051,1.03491A1.02791,1.02791,0,0,1,351.69922,190Z" fill="#979797"/><path d="M348.02539,190a1.02061,1.02061,0,1,1,1.02051,1.03491A1.0276,1.0276,0,0,1,348.02539,190Z" fill="#979797"/><path d="M344.35107,190a1.02061,1.02061,0,1,1,1.02051,1.03491A1.02792,1.02792,0,0,1,344.35107,190Z" fill="#979797"/><path d="M340.67725,190a1.02061,1.02061,0,1,1,1.0205,1.03491A1.02791,1.02791,0,0,1,340.67725,190Z" fill="#979797"/><path d="M337.00293,190a1.02085,1.02085,0,1,1,1.02051,1.03491A1.02791,1.02791,0,0,1,337.00293,190Z" fill="#979797"/><path d="M333.3291,190a1.02061,1.02061,0,1,1,1.02051,1.03491A1.02791,1.02791,0,0,1,333.3291,190Z" fill="#979797"/><path d="M329.65479,190a1.02085,1.02085,0,1,1,1.021,1.03491A1.028,1.028,0,0,1,329.65479,190Z" fill="#979797"/><path d="M325.981,190a1.02061,1.02061,0,1,1,1.0205,1.03491A1.02791,1.02791,0,0,1,325.981,190Z" fill="#979797"/><path d="M322.30713,190a1.02061,1.02061,0,1,1,1.02051,1.03491A1.0276,1.0276,0,0,1,322.30713,190Z" fill="#979797"/><path d="M318.63281,190a1.02061,1.02061,0,1,1,1.02051,1.03491A1.02791,1.02791,0,0,1,318.63281,190Z" fill="#979797"/><polygon points="350.403 183.865 349.38 184.964 354.797 189.999 349.38 195.035 350.403 196.133 357 189.999 350.403 183.865" fill="#979797"/><ellipse cx="407" cy="224.71765" rx="1.03516" ry="1.02136" fill="#979797"/><ellipse cx="407" cy="221.04065" rx="1.03516" ry="1.02136" fill="#979797"/><ellipse cx="407" cy="217.36365" rx="1.03516" ry="1.02136" fill="#979797"/><ellipse cx="407" cy="213.68665" rx="1.03516" ry="1.02136" fill="#979797"/><ellipse cx="407" cy="210.00964" rx="1.03516" ry="1.02136" fill="#979797"/><ellipse cx="407" cy="206.33264" rx="1.03516" ry="1.02136" fill="#979797"/><ellipse cx="407" cy="202.65564" rx="1.03516" ry="1.02136" fill="#979797"/><polygon points="413.135 222.403 412.036 221.38 407.001 226.798 401.965 221.38 400.867 222.403 407.001 229 413.135 222.403" fill="#979797"/><ellipse cx="497" cy="224.71765" rx="1.03516" ry="1.02136" fill="#979797"/><ellipse cx="497" cy="221.04065" rx="1.03516" ry="1.02136" fill="#979797"/><ellipse cx="497" cy="217.36365" rx="1.03516" ry="1.02136" fill="#979797"/><ellipse cx="497" cy="213.68665" rx="1.03516" ry="1.02136" fill="#979797"/><ellipse cx="497" cy="210.00964" rx="1.03516" ry="1.02136" fill="#979797"/><ellipse cx="497" cy="206.33264" rx="1.03516" ry="1.02136" fill="#979797"/><ellipse cx="497" cy="202.65564" rx="1.03516" ry="1.02136" fill="#979797"/><polygon points="503.135 222.403 502.036 221.38 497.001 226.798 491.965 221.38 490.867 222.403 497.001 229 503.135 222.403" fill="#979797"/><ellipse cx="947" cy="224.71765" rx="1.03516" ry="1.02136" fill="#979797"/><ellipse cx="947" cy="221.04065" rx="1.03516" ry="1.02136" fill="#979797"/><ellipse cx="947" cy="217.36365" rx="1.03516" ry="1.02136" fill="#979797"/><ellipse cx="947" cy="213.68665" rx="1.03516" ry="1.02136" fill="#979797"/><ellipse cx="947" cy="210.00964" rx="1.03516" ry="1.02136" fill="#979797"/><ellipse cx="947" cy="206.33264" rx="1.03516" ry="1.02136" fill="#979797"/><ellipse cx="947" cy="202.65564" rx="1.03516" ry="1.02136" fill="#979797"/><polygon points="953.135 222.403 952.036 221.38 947.001 226.798 941.965 221.38 940.867 222.403 947.001 229 953.135 222.403" fill="#979797"/><ellipse cx="1027" cy="224.71765" rx="1.03516" ry="1.02136" fill="#979797"/><ellipse cx="1027" cy="221.04065" rx="1.03516" ry="1.02136" fill="#979797"/><ellipse cx="1027" cy="217.36365" rx="1.03516" ry="1.02136" fill="#979797"/><ellipse cx="1027" cy="213.68665" rx="1.03516" ry="1.02136" fill="#979797"/><ellipse cx="1027" cy="210.00964" rx="1.03516" ry="1.02136" fill="#979797"/><ellipse cx="1027" cy="206.33264" rx="1.03516" ry="1.02136" fill="#979797"/><ellipse cx="1027" cy="202.65564" rx="1.03516" ry="1.02136" fill="#979797"/><polygon points="1033.135 222.403 1032.036 221.38 1027.001 226.798 1021.965 221.38 1020.867 222.403 1027.001 229 1033.135 222.403" fill="#979797"/><ellipse cx="822" cy="305.62061" rx="1.03516" ry="1.05872" fill="#979797"/><ellipse cx="822" cy="301.80933" rx="1.03516" ry="1.05872" fill="#979797"/><ellipse cx="822" cy="297.99792" rx="1.03516" ry="1.05872" fill="#979797"/><ellipse cx="822" cy="294.18665" rx="1.03516" ry="1.05872" fill="#979797"/><path d="M822,289.31665a1.05892,1.05892,0,1,1-1.03516,1.05859A1.047,1.047,0,0,1,822,289.31665Z" fill="#979797"/><ellipse cx="822" cy="286.56396" rx="1.03516" ry="1.05872" fill="#979797"/><path d="M822,281.694a1.05892,1.05892,0,1,1-1.03516,1.05872A1.04709,1.04709,0,0,1,822,281.694Z" fill="#979797"/><polygon points="828.135 303.403 827.036 302.38 822.001 307.798 816.965 302.38 815.867 303.403 822.001 310 828.135 303.403" fill="#979797"/><path d="M821.75586,544.69629a1.02145,1.02145,0,1,1-1.03467,1.02136A1.02827,1.02827,0,0,1,821.75586,544.69629Z" fill="#979797"/><path d="M821.75586,541.01929a1.02145,1.02145,0,1,1-1.03467,1.02136A1.02827,1.02827,0,0,1,821.75586,541.01929Z" fill="#979797"/><path d="M821.75586,537.34229a1.02145,1.02145,0,1,1-1.03467,1.02136A1.02827,1.02827,0,0,1,821.75586,537.34229Z" fill="#979797"/><path d="M821.75586,533.66528a1.02145,1.02145,0,1,1-1.03467,1.02137A1.02828,1.02828,0,0,1,821.75586,533.66528Z" fill="#979797"/><path d="M821.75586,529.98828a1.02145,1.02145,0,1,1-1.03467,1.02136A1.02828,1.02828,0,0,1,821.75586,529.98828Z" fill="#979797"/><path d="M821.75586,526.31128a1.02145,1.02145,0,1,1-1.03467,1.02136A1.02827,1.02827,0,0,1,821.75586,526.31128Z" fill="#979797"/><path d="M821.75586,522.63428a1.02145,1.02145,0,1,1-1.03467,1.02136A1.02827,1.02827,0,0,1,821.75586,522.63428Z" fill="#979797"/><polygon points="827.891 543.403 826.792 542.38 821.757 547.798 816.721 542.38 815.623 543.403 821.757 550 827.891 543.403" fill="#979797"/><ellipse cx="667" cy="305.62061" rx="1.03516" ry="1.05872" fill="#979797"/><ellipse cx="667" cy="301.80933" rx="1.03516" ry="1.05872" fill="#979797"/><ellipse cx="667" cy="297.99792" rx="1.03516" ry="1.05872" fill="#979797"/><ellipse cx="667" cy="294.18665" rx="1.03516" ry="1.05872" fill="#979797"/><path d="M667,289.31665a1.05892,1.05892,0,1,1-1.03516,1.05859A1.047,1.047,0,0,1,667,289.31665Z" fill="#979797"/><ellipse cx="667" cy="286.56396" rx="1.03516" ry="1.05872" fill="#979797"/><path d="M667,281.694a1.05892,1.05892,0,1,1-1.03516,1.05872A1.04709,1.04709,0,0,1,667,281.694Z" fill="#979797"/><polygon points="673.135 303.403 672.036 302.38 667.001 307.798 661.965 302.38 660.867 303.403 667.001 310 673.135 303.403" fill="#979797"/><ellipse cx="667" cy="545.71765" rx="1.03516" ry="1.02136" fill="#979797"/><ellipse cx="667" cy="542.04065" rx="1.03516" ry="1.02136" fill="#979797"/><ellipse cx="667" cy="538.36365" rx="1.03516" ry="1.02136" fill="#979797"/><ellipse cx="667" cy="534.68665" rx="1.03516" ry="1.02136" fill="#979797"/><ellipse cx="667" cy="531.00964" rx="1.03516" ry="1.02136" fill="#979797"/><ellipse cx="667" cy="527.33264" rx="1.03516" ry="1.02136" fill="#979797"/><ellipse cx="667" cy="523.65564" rx="1.03516" ry="1.02136" fill="#979797"/><polygon points="673.135 543.403 672.036 542.38 667.001 547.798 661.965 542.38 660.867 543.403 667.001 550 673.135 543.403" fill="#979797"/><ellipse cx="727" cy="305.62061" rx="1.03516" ry="1.05872" fill="#cacaca"/><ellipse cx="727" cy="301.80933" rx="1.03516" ry="1.05872" fill="#cacaca"/><path d="M727,296.93933a1.05892,1.05892,0,1,1-1.03516,1.05859A1.04706,1.04706,0,0,1,727,296.93933Z" fill="#cacaca"/><ellipse cx="727" cy="294.18665" rx="1.03516" ry="1.05872" fill="#cacaca"/><ellipse cx="727" cy="290.37537" rx="1.03516" ry="1.05872" fill="#cacaca"/><ellipse cx="727" cy="286.56396" rx="1.03516" ry="1.05872" fill="#cacaca"/><ellipse cx="727" cy="282.75269" rx="1.03516" ry="1.05872" fill="#cacaca"/><polygon points="733.135 303.403 732.036 302.38 727.001 307.798 721.965 302.38 720.867 303.403 727.001 310 733.135 303.403" fill="#cacaca"/><path d="M447,154.562a1.059,1.059,0,1,1-1.03516,1.0586A1.047,1.047,0,0,1,447,154.562Z" fill="#cacaca"/><path d="M447,150.75049a1.059,1.059,0,1,1-1.03516,1.05884A1.04719,1.04719,0,0,1,447,150.75049Z" fill="#cacaca"/><path d="M447,146.93921a1.059,1.059,0,1,1-1.03516,1.05884A1.04719,1.04719,0,0,1,447,146.93921Z" fill="#cacaca"/><path d="M447,143.12793a1.059,1.059,0,1,1-1.03516,1.05859A1.047,1.047,0,0,1,447,143.12793Z" fill="#cacaca"/><path d="M447,139.31665a1.059,1.059,0,1,1-1.03516,1.05859A1.047,1.047,0,0,1,447,139.31665Z" fill="#cacaca"/><ellipse cx="447" cy="136.56396" rx="1.03516" ry="1.05859" fill="#cacaca"/><path d="M447,131.69385a1.059,1.059,0,1,1-1.03516,1.05884A1.04719,1.04719,0,0,1,447,131.69385Z" fill="#cacaca"/><polygon points="453.135 153.403 452.036 152.38 447.001 157.798 441.965 152.38 440.867 153.403 447.001 160 453.135 153.403" fill="#cacaca"/><ellipse cx="727" cy="545.62061" rx="1.03516" ry="1.05872" fill="#cacaca"/><ellipse cx="727" cy="541.80933" rx="1.03516" ry="1.05872" fill="#cacaca"/><ellipse cx="727" cy="537.99792" rx="1.03516" ry="1.05872" fill="#cacaca"/><ellipse cx="727" cy="534.18665" rx="1.03516" ry="1.05872" fill="#cacaca"/><path d="M727,529.31665a1.05892,1.05892,0,1,1-1.03516,1.05859A1.047,1.047,0,0,1,727,529.31665Z" fill="#cacaca"/><ellipse cx="727" cy="526.56396" rx="1.03516" ry="1.05872" fill="#cacaca"/><path d="M727,521.694a1.05892,1.05892,0,1,1-1.03516,1.05872A1.04709,1.04709,0,0,1,727,521.694Z" fill="#cacaca"/><polygon points="733.135 543.403 732.036 542.38 727.001 547.798 721.965 542.38 720.867 543.403 727.001 550 733.135 543.403" fill="#cacaca"/><ellipse cx="457" cy="545.62061" rx="1.03516" ry="1.05872" fill="#cacaca"/><ellipse cx="457" cy="541.80933" rx="1.03516" ry="1.05872" fill="#cacaca"/><ellipse cx="457" cy="537.99792" rx="1.03516" ry="1.05872" fill="#cacaca"/><ellipse cx="457" cy="534.18665" rx="1.03516" ry="1.05872" fill="#cacaca"/><path d="M457,529.31665a1.05892,1.05892,0,1,1-1.03516,1.05859A1.047,1.047,0,0,1,457,529.31665Z" fill="#cacaca"/><ellipse cx="457" cy="526.56396" rx="1.03516" ry="1.05872" fill="#cacaca"/><path d="M457,521.694a1.05892,1.05892,0,1,1-1.03516,1.05872A1.04709,1.04709,0,0,1,457,521.694Z" fill="#cacaca"/><polygon points="463.135 543.403 462.036 542.38 457.001 547.798 451.965 542.38 450.867 543.403 457.001 550 463.135 543.403" fill="#cacaca"/><ellipse cx="997" cy="425.62061" rx="1.03516" ry="1.05872" fill="#cacaca"/><ellipse cx="997" cy="421.80933" rx="1.03516" ry="1.05872" fill="#cacaca"/><ellipse cx="997" cy="417.99792" rx="1.03516" ry="1.05872" fill="#cacaca"/><ellipse cx="997" cy="414.18665" rx="1.03516" ry="1.05872" fill="#cacaca"/><path d="M997,409.31665a1.05892,1.05892,0,1,1-1.03516,1.05859A1.047,1.047,0,0,1,997,409.31665Z" fill="#cacaca"/><ellipse cx="997" cy="406.56396" rx="1.03516" ry="1.05872" fill="#cacaca"/><path d="M997,401.694a1.05892,1.05892,0,1,1-1.03516,1.05872A1.04709,1.04709,0,0,1,997,401.694Z" fill="#cacaca"/><polygon points="1003.135 423.403 1002.036 422.38 997.001 427.798 991.965 422.38 990.867 423.403 997.001 430 1003.135 423.403" fill="#cacaca"/><path d="M456.75586,718.69629a1.02145,1.02145,0,1,1-1.03467,1.02136A1.02827,1.02827,0,0,1,456.75586,718.69629Z" fill="#cacaca"/><path d="M456.75586,715.01929a1.02145,1.02145,0,1,1-1.03467,1.02136A1.02827,1.02827,0,0,1,456.75586,715.01929Z" fill="#cacaca"/><path d="M456.75586,711.34229a1.02145,1.02145,0,1,1-1.03467,1.02136A1.02827,1.02827,0,0,1,456.75586,711.34229Z" fill="#cacaca"/><path d="M456.75586,707.66528a1.02145,1.02145,0,1,1-1.03467,1.02137A1.02828,1.02828,0,0,1,456.75586,707.66528Z" fill="#cacaca"/><path d="M456.75586,703.98828a1.02145,1.02145,0,1,1-1.03467,1.02136A1.02828,1.02828,0,0,1,456.75586,703.98828Z" fill="#cacaca"/><path d="M456.75586,700.31128a1.02145,1.02145,0,1,1-1.03467,1.02136A1.02827,1.02827,0,0,1,456.75586,700.31128Z" fill="#cacaca"/><path d="M456.75586,696.63428a1.02145,1.02145,0,1,1-1.03467,1.02136A1.02827,1.02827,0,0,1,456.75586,696.63428Z" fill="#cacaca"/><polygon points="462.891 717.403 461.792 716.38 456.757 721.798 451.721 716.38 450.623 717.403 456.757 724 462.891 717.403" fill="#cacaca"/><path d="M987,154.562a1.059,1.059,0,1,1-1.03516,1.0586A1.047,1.047,0,0,1,987,154.562Z" fill="#cacaca"/><path d="M987,150.75049a1.059,1.059,0,1,1-1.03516,1.05884A1.04719,1.04719,0,0,1,987,150.75049Z" fill="#cacaca"/><path d="M987,146.93921a1.059,1.059,0,1,1-1.03516,1.05884A1.04719,1.04719,0,0,1,987,146.93921Z" fill="#cacaca"/><path d="M987,143.12793a1.059,1.059,0,1,1-1.03516,1.05859A1.047,1.047,0,0,1,987,143.12793Z" fill="#cacaca"/><path d="M987,139.31665a1.059,1.059,0,1,1-1.03516,1.05859A1.047,1.047,0,0,1,987,139.31665Z" fill="#cacaca"/><ellipse cx="987" cy="136.56396" rx="1.03516" ry="1.05859" fill="#cacaca"/><path d="M987,131.69385a1.059,1.059,0,1,1-1.03516,1.05884A1.04719,1.04719,0,0,1,987,131.69385Z" fill="#cacaca"/><polygon points="993.135 153.403 992.036 152.38 987.001 157.798 981.965 152.38 980.867 153.403 987.001 160 993.135 153.403" fill="#cacaca"/><line x1="615.37305" y1="360" x2="237" y2="360" fill="none" stroke="#e9a460" stroke-width="1.5"/><polygon points="610.403 353.865 609.38 354.964 614.797 359.999 609.38 365.035 610.403 366.133 617 359.999 610.403 353.865" fill="#e9a460"/><line x1="439.37305" y1="740" x2="357" y2="740" fill="none" stroke="#e9a460" stroke-width="1.5"/><polygon points="434.403 733.865 433.38 734.964 438.797 739.999 433.38 745.035 434.403 746.133 441 739.999 434.403 733.865" fill="#e9a460"/><polyline points="955.373 500 857 500 857 600 837 600" fill="none" stroke="#e9a460" stroke-width="1.5"/><polygon points="950.403 493.865 949.38 494.964 954.797 499.999 949.38 505.035 950.403 506.133 957 499.999 950.403 493.865" fill="#e9a460"/><line x1="615.37305" y1="600" x2="497" y2="600" fill="none" stroke="#e9a460" stroke-width="1.5"/><polygon points="610.403 593.865 609.38 594.964 614.797 599.999 609.38 605.035 610.403 606.133 617 599.999 610.403 593.865" fill="#e9a460"/><polyline points="415.373 620 317 620 317 360" fill="none" stroke="#e9a460" stroke-width="1.5"/><polygon points="410.403 613.865 409.38 614.964 414.797 619.999 409.38 625.035 410.403 626.133 417 619.999 410.403 613.865" fill="#e9a460"/><line x1="615.37305" y1="630" x2="557" y2="630" fill="none" stroke="#e9a460" stroke-width="1.5"/><polygon points="610.403 623.865 609.38 624.964 614.797 629.999 609.38 635.035 610.403 636.133 617 629.999 610.403 623.865" fill="#e9a460"/><polyline points="615.373 390 557 390 557 740 472 740" fill="none" stroke="#e9a460" stroke-width="1.5"/><polygon points="610.403 383.865 609.38 384.964 614.797 389.999 609.38 395.035 610.403 396.133 617 389.999 610.403 383.865" fill="#e9a460"/><polyline points="415.373 580 357 580 357 460 857 460" fill="none" stroke="#e9a460" stroke-width="1.5"/><polygon points="410.403 573.865 409.38 574.964 414.797 579.999 409.38 585.035 410.403 586.133 417 579.999 410.403 573.865" fill="#e9a460"/><polyline points="955.373 460 857 460 857 360 837 360" fill="none" stroke="#e9a460" stroke-width="1.5"/><polygon points="950.403 453.865 949.38 454.964 954.797 459.999 949.38 465.035 950.403 466.133 957 459.999 950.403 453.865" fill="#e9a460"/><line x1="805.37305" y1="390" x2="777" y2="390" fill="none" stroke="#e9a460" stroke-width="1.5"/><polygon points="800.403 383.865 799.38 384.964 804.797 389.999 799.38 395.035 800.403 396.133 807 389.999 800.403 383.865" fill="#e9a460"/><line x1="805.37305" y1="360" x2="777" y2="360" fill="none" stroke="#e9a460" stroke-width="1.5"/><polygon points="800.403 353.865 799.38 354.964 804.797 359.999 799.38 365.035 800.403 366.133 807 359.999 800.403 353.865" fill="#e9a460"/><line x1="805.37305" y1="330" x2="777" y2="330" fill="none" stroke="#e9a460" stroke-width="1.5"/><polygon points="800.403 323.865 799.38 324.964 804.797 329.999 799.38 335.035 800.403 336.133 807 329.999 800.403 323.865" fill="#e9a460"/><line x1="805.37305" y1="600" x2="777" y2="600" fill="none" stroke="#e9a460" stroke-width="1.5"/><polygon points="800.403 593.865 799.38 594.964 804.797 599.999 799.38 605.035 800.403 606.133 807 599.999 800.403 593.865" fill="#e9a460"/><line x1="805.37305" y1="570" x2="777" y2="570" fill="none" stroke="#e9a460" stroke-width="1.5"/><polygon points="800.403 563.865 799.38 564.964 804.797 569.999 799.38 575.035 800.403 576.133 807 569.999 800.403 563.865" fill="#e9a460"/><line x1="805.37305" y1="630" x2="777" y2="630" fill="none" stroke="#e9a460" stroke-width="1.5"/><polygon points="800.403 623.865 799.38 624.964 804.797 629.999 799.38 635.035 800.403 636.133 807 629.999 800.403 623.865" fill="#e9a460"/><line x1="1095.37305" y1="480" x2="1037" y2="480" fill="none" stroke="#e9a460" stroke-width="1.5"/><polygon points="1090.403 473.865 1089.38 474.964 1094.797 479.999 1089.38 485.035 1090.403 486.133 1097 479.999 1090.403 473.865" fill="#e9a460"/><circle cx="557" cy="630" r="5" fill="#e9a460"/><circle cx="857" cy="460" r="5" fill="#e9a460"/><circle cx="317" cy="360" r="5" fill="#e9a460"/><circle cx="457" cy="740" r="14.29993" fill="#31333d"/><path d="M457,726.4A13.6,13.6,0,1,1,443.3999,740,13.61553,13.61553,0,0,1,457,726.4m0-1.4a15,15,0,1,0,15,15,15,15,0,0,0-15-15Z" fill="#e9a460"/><line x1="450.98959" y1="733.98959" x2="463.01041" y2="746.01041" fill="#31333d" stroke="#e9a460" stroke-width="2"/><line x1="450.98959" y1="746.01041" x2="463.01041" y2="733.98959" fill="#31333d" stroke="#e9a460" stroke-width="2"/><rect x="407" y="90" width="80" height="20" fill="#4e4e4e" stroke="#7f7f7f"/><path d="M407,110h80a0,0,0,0,1,0,0v14a6,6,0,0,1-6,6H413a6,6,0,0,1-6-6V110A0,0,0,0,1,407,110Z" fill="#4e4e4e" stroke="#7f7f7f"/><path d="M406,71V56a7.00787,7.00787,0,0,1,7-7h68a7.00787,7.00787,0,0,1,7,7V71Z" fill="#4e4e4e"/><path d="M481,50a6.01774,6.01774,0,0,1,6,6V70H407V56a6.01774,6.01774,0,0,1,6-6h68m0-2H413a8.00917,8.00917,0,0,0-8,8V72h84V56a8.00917,8.00917,0,0,0-8-8Z" fill="#4271c2"/><path d="M481,50.5a5.50623,5.50623,0,0,1,5.5,5.5V69.5h-79V56a5.50623,5.50623,0,0,1,5.5-5.5h68m0-.5H413a6.01774,6.01774,0,0,0-6,6V70h80V56a6.01774,6.01774,0,0,0-6-6Z"/><rect x="956" y="109" width="62" height="22" rx="7" ry="7" fill="#4e4e4e"/><path d="M1011,110a6.01774,6.01774,0,0,1,6,6v8a6.00014,6.00014,0,0,1-6,6H963a6.00014,6.00014,0,0,1-6-6v-8a6.01774,6.01774,0,0,1,6-6h48m0-2H963a8.00917,8.00917,0,0,0-8,8v8a8.00917,8.00917,0,0,0,8,8h48a8.00917,8.00917,0,0,0,8-8v-8a8.00917,8.00917,0,0,0-8-8Z" fill="#4271c2"/><path d="M1011,110.5a5.50623,5.50623,0,0,1,5.5,5.5v8a5.50623,5.50623,0,0,1-5.5,5.5H963a5.50623,5.50623,0,0,1-5.5-5.5v-8a5.50623,5.50623,0,0,1,5.5-5.5h48m0-.5H963a6.01774,6.01774,0,0,0-6,6v8a6.00014,6.00014,0,0,0,6,6h48a6.00014,6.00014,0,0,0,6-6v-8a6.01774,6.01774,0,0,0-6-6Z"/><rect x="966" y="379" width="62" height="22" rx="7" ry="7" fill="#4e4e4e"/><path d="M1021,380a6.01774,6.01774,0,0,1,6,6v8a6.00014,6.00014,0,0,1-6,6H973a6.00014,6.00014,0,0,1-6-6v-8a6.01774,6.01774,0,0,1,6-6h48m0-2H973a8.00909,8.00909,0,0,0-8,8v8a8.00909,8.00909,0,0,0,8,8h48a8.00909,8.00909,0,0,0,8-8v-8a8.00909,8.00909,0,0,0-8-8Z" fill="#4271c2"/><path d="M1021,380.5a5.50623,5.50623,0,0,1,5.5,5.5v8a5.50623,5.50623,0,0,1-5.5,5.5H973a5.50623,5.50623,0,0,1-5.5-5.5v-8a5.50623,5.50623,0,0,1,5.5-5.5h48m0-.5H973a6.01774,6.01774,0,0,0-6,6v8a6.00014,6.00014,0,0,0,6,6h48a6.00014,6.00014,0,0,0,6-6v-8a6.01774,6.01774,0,0,0-6-6Z"/><rect x="426" y="499" width="62" height="22" rx="7" ry="7" fill="#4e4e4e"/><path d="M481,500a6.01774,6.01774,0,0,1,6,6v8a6.00014,6.00014,0,0,1-6,6H433a6.00014,6.00014,0,0,1-6-6v-8a6.01774,6.01774,0,0,1,6-6h48m0-2H433a8.00909,8.00909,0,0,0-8,8v8a8.00909,8.00909,0,0,0,8,8h48a8.00909,8.00909,0,0,0,8-8v-8a8.00909,8.00909,0,0,0-8-8Z" fill="#4271c2"/><path d="M481,500.5a5.50623,5.50623,0,0,1,5.5,5.5v8a5.50623,5.50623,0,0,1-5.5,5.5H433a5.50623,5.50623,0,0,1-5.5-5.5v-8a5.50623,5.50623,0,0,1,5.5-5.5h48m0-.5H433a6.01774,6.01774,0,0,0-6,6v8a6.00014,6.00014,0,0,0,6,6h48a6.00014,6.00014,0,0,0,6-6v-8a6.01774,6.01774,0,0,0-6-6Z"/><rect x="436" y="674" width="42" height="22" rx="7" ry="7" fill="#4e4e4e"/><path d="M471,675a6.01774,6.01774,0,0,1,6,6v8a6.00014,6.00014,0,0,1-6,6H443a6.00014,6.00014,0,0,1-6-6v-8a6.01774,6.01774,0,0,1,6-6h28m0-2H443a8.00909,8.00909,0,0,0-8,8v8a8.00909,8.00909,0,0,0,8,8h28a8.00909,8.00909,0,0,0,8-8v-8a8.00909,8.00909,0,0,0-8-8Z" fill="#4271c2"/><path d="M471,675.5a5.50623,5.50623,0,0,1,5.5,5.5v8a5.50623,5.50623,0,0,1-5.5,5.5H443a5.50623,5.50623,0,0,1-5.5-5.5v-8a5.50623,5.50623,0,0,1,5.5-5.5h28m0-.5H443a6.01774,6.01774,0,0,0-6,6v8a6.00014,6.00014,0,0,0,6,6h28a6.00014,6.00014,0,0,0,6-6v-8a6.01774,6.01774,0,0,0-6-6Z"/><rect x="696" y="259" width="62" height="22" rx="7" ry="7" fill="#4e4e4e"/><path d="M751,260a6.01774,6.01774,0,0,1,6,6v8a6.00014,6.00014,0,0,1-6,6H703a6.00014,6.00014,0,0,1-6-6v-8a6.01774,6.01774,0,0,1,6-6h48m0-2H703a8.00909,8.00909,0,0,0-8,8v8a8.00909,8.00909,0,0,0,8,8h48a8.00909,8.00909,0,0,0,8-8v-8a8.00909,8.00909,0,0,0-8-8Z" fill="#4271c2"/><path d="M751,260.5a5.50623,5.50623,0,0,1,5.5,5.5v8a5.50623,5.50623,0,0,1-5.5,5.5H703a5.50623,5.50623,0,0,1-5.5-5.5v-8a5.50623,5.50623,0,0,1,5.5-5.5h48m0-.5H703a6.01774,6.01774,0,0,0-6,6v8a6.00014,6.00014,0,0,0,6,6h48a6.00014,6.00014,0,0,0,6-6v-8a6.01774,6.01774,0,0,0-6-6Z"/><rect x="696" y="499" width="62" height="22" rx="7" ry="7" fill="#4e4e4e"/><path d="M751,500a6.01774,6.01774,0,0,1,6,6v8a6.00014,6.00014,0,0,1-6,6H703a6.00014,6.00014,0,0,1-6-6v-8a6.01774,6.01774,0,0,1,6-6h48m0-2H703a8.00909,8.00909,0,0,0-8,8v8a8.00909,8.00909,0,0,0,8,8h48a8.00909,8.00909,0,0,0,8-8v-8a8.00909,8.00909,0,0,0-8-8Z" fill="#4271c2"/><path d="M751,500.5a5.50623,5.50623,0,0,1,5.5,5.5v8a5.50623,5.50623,0,0,1-5.5,5.5H703a5.50623,5.50623,0,0,1-5.5-5.5v-8a5.50623,5.50623,0,0,1,5.5-5.5h48m0-.5H703a6.01774,6.01774,0,0,0-6,6v8a6.00014,6.00014,0,0,0,6,6h48a6.00014,6.00014,0,0,0,6-6v-8a6.01774,6.01774,0,0,0-6-6Z"/><rect x="406" y="69" width="82" height="22" fill="#4e4e4e"/><path d="M487,70V90H407V70h80m2-2H405V92h84V68Z" fill="#4271c2"/><path d="M486.5,70.5v19h-79v-19h79m.5-.5H407V90h80V70Z"/><rect x="965.99634" y="729" width="32" height="22" rx="5" ry="5" fill="#4e4e4e"/><path d="M992.99609,730a4.01166,4.01166,0,0,1,4,4v12a3.9998,3.9998,0,0,1-4,4h-22a4.00012,4.00012,0,0,1-4-4V734a4.012,4.012,0,0,1,4-4h22m0-2h-22a6.00672,6.00672,0,0,0-6,6v12a6.00672,6.00672,0,0,0,6,6h22a6.00671,6.00671,0,0,0,6-6V734a6.00671,6.00671,0,0,0-6-6Z" fill="#4271c2"/><path d="M992.99609,730.5a3.50409,3.50409,0,0,1,3.5,3.5v12a3.50409,3.50409,0,0,1-3.5,3.5h-22a3.50409,3.50409,0,0,1-3.5-3.5V734a3.50409,3.50409,0,0,1,3.5-3.5h22m0-.5h-22a4.012,4.012,0,0,0-4,4v12a4.00012,4.00012,0,0,0,4,4h22a3.9998,3.9998,0,0,0,4-4V734a4.01166,4.01166,0,0,0-4-4Z"/><path d="M426.509,95.811h1.1626v4.60839h.042l3.8241-4.60839h1.31665L429.98291,99.313l3.3197,5.687H432l-2.74561-4.77637-1.58276,1.8628V105H426.509Z" fill="#b0b0b0"/><path d="M433.90063,101.61035a3.283,3.283,0,0,1,3.05372-3.58594c1.73693,0,2.71753,1.24659,2.71753,3.19336a4.45062,4.45062,0,0,1-.04212.65869h-4.59448a2.25789,2.25789,0,0,0,2.26929,2.36719,3.076,3.076,0,0,0,1.69494-.53222l.40613.75634a4.05584,4.05584,0,0,1-2.24121.7002A3.25519,3.25519,0,0,1,433.90063,101.61035Zm4.7627-.56055c0-1.37255-.61645-2.11523-1.68091-2.11523a2.10273,2.10273,0,0,0-1.96118,2.11523Z" fill="#b0b0b0"/><path d="M440.7323,107.7876l.22412-.91065a2.00249,2.00249,0,0,0,.51819.09815c.77051,0,1.26074-.61621,1.54089-1.457l.15406-.50391-2.73145-6.82178h1.19067l1.38672,3.76807c.21009.58838.44825,1.28857.65833,1.91894h.056c.19617-.61621.39221-1.31689.57434-1.91894l1.21863-3.76807h1.1206l-2.56335,7.36817c-.47632,1.34472-1.17664,2.36718-2.54932,2.36718A2.26179,2.26179,0,0,1,440.7323,107.7876Z" fill="#b0b0b0"/><path d="M452.77368,96.7915h-2.77356V95.811h6.72351v.98046H453.9502V105h-1.17652Z" fill="#b0b0b0"/><path d="M457.6167,98.19238h.95239l.09815,1.23242h.042a2.3279,2.3279,0,0,1,1.9331-1.40039,1.69634,1.69634,0,0,1,.72828.13965l-.22413,1.00879a1.91,1.91,0,0,0-.6582-.1123c-.57446,0-1.26074.42041-1.72314,1.56933V105H457.6167Z" fill="#b0b0b0"/><path d="M462.47437,95.02637h1.13452v6.75195h.042l2.89966-3.58594h1.27466l-2.28321,2.73145L468.1333,105h-1.26074l-1.989-3.27783-1.27465,1.48486V105h-1.13452Z" fill="#b0b0b0"/><path d="M431.82886,115.811h5.2948v.98046h-4.1322v2.88575h3.48779v.99463h-3.48779v3.33349h4.27221V125h-5.43481Z" fill="#b0b0b0"/><path d="M439.09473,118.19238h.95239l.09814.98047h.042a3.20789,3.20789,0,0,1,2.2832-1.14844c1.42883,0,2.07312.92432,2.07312,2.66114V125H443.395v-4.16016c0-1.2749-.39221-1.82129-1.2887-1.82129-.70044,0-1.17663.36426-1.863,1.05079V125h-1.14856Z" fill="#b0b0b0"/><path d="M445.77209,118.19238h1.19068l1.28869,3.86621c.19605.67237.42017,1.3584.63038,2.00293h.0559c.19617-.64453.42029-1.33056.61646-2.00293l1.28857-3.86621h1.13465L449.56812,125h-1.34473Z" fill="#b0b0b0"/><path d="M455.67029,120.40527c0-2.95556,1.73694-4.7622,4.07629-4.7622a3.35323,3.35323,0,0,1,2.52124,1.13427l-.63037.75684a2.51043,2.51043,0,0,0-1.877-.86865c-1.73706,0-2.8855,1.42871-2.8855,3.71191,0,2.31152,1.10645,3.76807,2.84351,3.76807a2.772,2.772,0,0,0,2.12915-1.03662l.64428.72851a3.55529,3.55529,0,0,1-2.81543,1.33057C457.37915,125.168,455.67029,123.40332,455.67029,120.40527Z" fill="#b0b0b0"/><path d="M623.19946,624.16455h7.11206v1.76465h-5.02343v3.33057h4.2854v1.76464h-4.2854v4.91553h-2.08863Z" fill="#b0b0b0"/><path d="M632.37939,624.16455h2.35889l2.08838,5.76172c.2522.73828.50439,1.53027.75635,2.30469h.072c.2522-.77442.48608-1.56641.73828-2.30469l2.03442-5.76172h2.377v11.77539h-1.92676v-5.38379c0-1.09814.16211-2.66455.27-3.74511h-.07178l-.95434,2.73681-1.92652,5.29395h-1.24243l-1.94458-5.29395L634.072,626.811H634c.08984,1.08056.27,2.647.27,3.74511v5.38379h-1.89063Z" fill="#b0b0b0"/><path d="M781.69458,555.251H783.023v4.40136H787.905V555.251h1.34448v10.5H787.905v-4.9458H783.023v4.9458h-1.32837Z" fill="#b0b0b0"/><path d="M781.69458,585.501h3.12109c2.12891,0,3.60157.72021,3.60157,2.56054a2.29674,2.29674,0,0,1-1.53662,2.28907v.064a2.4159,2.4159,0,0,1,2.14477,2.51318c0,2.06495-1.63257,3.07325-3.9856,3.07325h-3.34521Zm2.8811,4.46533c1.79273,0,2.52906-.65625,2.52906-1.72852,0-1.21631-.83228-1.68066-2.46509-1.68066H783.023v3.40918Zm.272,4.978c1.80883,0,2.86523-.65625,2.86523-2.06446,0-1.29687-1.02441-1.88916-2.86523-1.88916H783.023v3.95362Z" fill="#b0b0b0"/><path d="M782.69458,615.251H784.023v9.36377h4.594V625.751h-5.92236Z" fill="#b0b0b0"/><path d="M781.69458,315.78027H783.023v4.40137H787.905v-4.40137h1.34448v10.5H787.905v-4.9458H783.023v4.9458h-1.32837Z" fill="#b0b0b0"/><path d="M781.69458,344.78027h3.12109c2.12891,0,3.60157.72022,3.60157,2.56055a2.29671,2.29671,0,0,1-1.53662,2.28906v.064a2.41589,2.41589,0,0,1,2.14477,2.51318c0,2.06494-1.63257,3.07324-3.9856,3.07324h-3.34521Zm2.8811,4.46534c1.79273,0,2.52906-.65625,2.52906-1.72852,0-1.21631-.83228-1.68066-2.46509-1.68066H783.023v3.40918Zm.272,4.978c1.80883,0,2.86523-.65625,2.86523-2.06445,0-1.29688-1.02441-1.88916-2.86523-1.88916H783.023v3.95361Z" fill="#b0b0b0"/><path d="M782.69458,374.78027H784.023V384.144h4.594v1.13623h-5.92236Z" fill="#b0b0b0"/><path d="M623.19946,384.16455h7.11206v1.76465h-5.02343v3.33057h4.2854v1.76464h-4.2854v4.91553h-2.08863Z" fill="#b0b0b0"/><path d="M632.37939,384.16455h2.35889l2.08838,5.76172c.2522.73828.50439,1.53027.75635,2.30469h.072c.2522-.77442.48608-1.56641.73828-2.30469l2.03442-5.76172h2.377v11.77539h-1.92676v-5.38379c0-1.09814.16211-2.66455.27-3.74511h-.07178l-.95434,2.73681-1.92652,5.29395h-1.24243l-1.94458-5.29395L634.072,386.811H634c.08984,1.08056.27,2.647.27,3.74511v5.38379h-1.89063Z" fill="#b0b0b0"/><path d="M425.9021,59.0791c0-3.16455,1.86-5.09961,4.36487-5.09961a3.59037,3.59037,0,0,1,2.7,1.21485l-.675.81005a2.68858,2.68858,0,0,0-2.00989-.93017c-1.85986,0-3.08984,1.53027-3.08984,3.9751,0,2.47461,1.18494,4.03466,3.0448,4.03466a2.96873,2.96873,0,0,0,2.27991-1.10986l.69006.77979A3.80788,3.80788,0,0,1,430.192,64.1792C427.73206,64.1792,425.9021,62.28906,425.9021,59.0791Z" fill="#e4e4e4"/><path d="M434.66223,61.3291V56.70947h1.24487v4.45459c0,1.36524.405,1.9502,1.365,1.9502.75,0,1.27491-.375,1.965-1.23V56.70947h1.22986V63.999H439.447l-.105-1.14013h-.045a3.08176,3.08176,0,0,1-2.39991,1.32031C435.35217,64.1792,434.66223,63.189,434.66223,61.3291Z" fill="#e4e4e4"/><path d="M443.13708,61.749V57.71436h-1.08v-.93018l1.13989-.07471.15-2.04h1.035v2.04h1.96484v1.00489h-1.96484v4.0498c0,.8999.28491,1.40967,1.12488,1.40967a2.6519,2.6519,0,0,0,.825-.19483l.24.93018a4.50637,4.50637,0,0,1-1.34985.27C443.66211,64.1792,443.13708,63.189,443.13708,61.749Z" fill="#e4e4e4"/><path d="M450.54712,59.03418c0-3.1499,1.72485-5.05469,4.19971-5.05469s4.21484,1.91992,4.21484,5.05469c0,3.165-1.74,5.145-4.21484,5.145S450.54712,62.19922,450.54712,59.03418Zm7.10962,0c0-2.44482-1.155-3.96-2.90991-3.96s-2.90979,1.51514-2.90979,3.96c0,2.46,1.1549,4.0498,2.90979,4.0498S457.65674,61.49414,457.65674,59.03418Z" fill="#e4e4e4"/><path d="M465.44165,57.71436h-3.04492V63.999h-1.23V57.71436h-.99v-.93018l.99-.07471v-.96c0-1.51513.75-2.46,2.26489-2.46a3.35962,3.35962,0,0,1,1.335.27l-.25488.92969a2.36424,2.36424,0,0,0-.9751-.19483c-.72,0-1.13989.52491-1.13989,1.48487v.93017h3.04492V55.5542c0-1.48486.67481-2.41455,2.12988-2.41455a3.30682,3.30682,0,0,1,1.21485.23974l-.27.94483a2.05282,2.05282,0,0,0-.825-.17969c-.69,0-1.01978.48-1.01978,1.40967v1.15527h1.54492v1.00489h-1.54492V63.999h-1.23Z" fill="#e4e4e4"/><path d="M969.62939,115.16064h1.24512v8.77491h4.30469v1.06494h-5.54981Z" fill="#e4e4e4"/><path d="M975.37476,120.80078h5.96972v.855h-5.96972Z" fill="#e4e4e4"/><path d="M983.30933,115.16064h2.925c1.99487,0,3.37475.6753,3.37475,2.4004a2.15213,2.15213,0,0,1-1.43994,2.14453v.06005a2.2636,2.2636,0,0,1,2.01,2.355c0,1.93505-1.53,2.87988-3.73486,2.87988h-3.135Zm2.69995,4.18506c1.67993,0,2.36987-.61474,2.36987-1.62011,0-1.13965-.78-1.57471-2.30981-1.57471h-1.5149v3.19482Zm.25512,4.665c1.69483,0,2.68482-.61523,2.68482-1.93506,0-1.21484-.96-1.77-2.68482-1.77h-1.71v3.70508Z" fill="#e4e4e4"/><path d="M991.39453,120.77051h3.44995v.94531h-3.44995Z" fill="#e4e4e4"/><path d="M996.79419,115.16064h1.24512v4.125h4.5747v-4.125h1.26v9.83985h-1.26v-4.63477h-4.5747v4.63477h-1.24512Z" fill="#e4e4e4"/><path d="M708.87964,265.15918h3.075c2.01,0,3.44995.72021,3.44995,2.76025a2.68643,2.68643,0,0,1-2.22,2.78955l2.50488,4.29h-1.40991l-2.36987-4.15478h-1.78491V274.999h-1.24512Zm2.895,4.665c1.52978,0,2.38476-.62988,2.38476-1.90479,0-1.29-.855-1.75488-2.38476-1.75488h-1.6499v3.65967Z" fill="#e4e4e4"/><path d="M716.60449,271.36914c0-2.38476,1.605-3.83984,3.27-3.83984,1.85987,0,2.90967,1.335,2.90967,3.41992a4.77047,4.77047,0,0,1-.04492.70508h-4.91968a2.41749,2.41749,0,0,0,2.42969,2.53466,3.295,3.295,0,0,0,1.81494-.56982l.43506.81006a4.3424,4.3424,0,0,1-2.3999.75A3.48605,3.48605,0,0,1,716.60449,271.36914Zm5.09986-.6001c0-1.46972-.65992-2.26465-1.8-2.26465a2.25138,2.25138,0,0,0-2.09986,2.26465Z" fill="#e4e4e4"/><path d="M723.77441,274.17383l.615-.82471a3.27991,3.27991,0,0,0,2.145.87012c.96,0,1.44-.51026,1.44-1.14014,0-.75-.87012-1.08008-1.665-1.37988-1.03492-.375-2.17481-.87012-2.17481-2.1001,0-1.16992.92993-2.06982,2.50488-2.06982a3.63769,3.63769,0,0,1,2.2649.82519l-.585.77979a2.70754,2.70754,0,0,0-1.665-.645c-.9148,0-1.335.49512-1.335,1.0498,0,.68994.79492.94532,1.62011,1.26026,1.04981.38964,2.21973.8247,2.21973,2.20459,0,1.185-.94482,2.17529-2.66992,2.17529A4.38625,4.38625,0,0,1,723.77441,274.17383Z" fill="#e4e4e4"/><path d="M730.32935,271.36914c0-2.44482,1.59008-3.83984,3.375-3.83984s3.37475,1.395,3.37475,3.83984c0,2.415-1.58984,3.81006-3.37475,3.81006S730.32935,273.78418,730.32935,271.36914Zm5.47485,0c0-1.67969-.84009-2.81982-2.09985-2.81982-1.24512,0-2.1001,1.14013-2.1001,2.81982,0,1.665.855,2.79,2.1001,2.79C734.96411,274.15918,735.8042,273.03418,735.8042,271.36914Z" fill="#e4e4e4"/><path d="M738.99927,267.70947h1.02l.105,1.04981h.04492a3.4362,3.4362,0,0,1,2.44482-1.23c1.53,0,2.22.99023,2.22,2.85009V274.999h-1.23v-4.45459c0-1.36523-.41992-1.95019-1.37988-1.95019-.75,0-1.26.39014-1.99487,1.125V274.999h-1.23Z" fill="#e4e4e4"/><path d="M708.87964,505.15918h3.075c2.01,0,3.44995.72021,3.44995,2.76025a2.68643,2.68643,0,0,1-2.22,2.78955l2.50488,4.29h-1.40991l-2.36987-4.15478h-1.78491V514.999h-1.24512Zm2.895,4.665c1.52978,0,2.38476-.62988,2.38476-1.90479,0-1.29-.855-1.75488-2.38476-1.75488h-1.6499v3.65967Z" fill="#e4e4e4"/><path d="M716.60449,511.36914c0-2.38476,1.605-3.83984,3.27-3.83984,1.85987,0,2.90967,1.335,2.90967,3.41992a4.77047,4.77047,0,0,1-.04492.70508h-4.91968a2.41749,2.41749,0,0,0,2.42969,2.53466,3.295,3.295,0,0,0,1.81494-.56982l.43506.81006a4.3424,4.3424,0,0,1-2.3999.75A3.48605,3.48605,0,0,1,716.60449,511.36914Zm5.09986-.6001c0-1.46972-.65992-2.26465-1.8-2.26465a2.25138,2.25138,0,0,0-2.09986,2.26465Z" fill="#e4e4e4"/><path d="M723.77441,514.17383l.615-.82471a3.27991,3.27991,0,0,0,2.145.87012c.96,0,1.44-.51026,1.44-1.14014,0-.75-.87012-1.08008-1.665-1.37988-1.03492-.375-2.17481-.87012-2.17481-2.1001,0-1.16992.92993-2.06982,2.50488-2.06982a3.63769,3.63769,0,0,1,2.2649.82519l-.585.77979a2.70754,2.70754,0,0,0-1.665-.645c-.9148,0-1.335.49512-1.335,1.0498,0,.68994.79492.94532,1.62011,1.26026,1.04981.38964,2.21973.8247,2.21973,2.20459,0,1.185-.94482,2.17529-2.66992,2.17529A4.38625,4.38625,0,0,1,723.77441,514.17383Z" fill="#e4e4e4"/><path d="M730.32935,511.36914c0-2.44482,1.59008-3.83984,3.375-3.83984s3.37475,1.395,3.37475,3.83984c0,2.415-1.58984,3.81006-3.37475,3.81006S730.32935,513.78418,730.32935,511.36914Zm5.47485,0c0-1.67969-.84009-2.81982-2.09985-2.81982-1.24512,0-2.1001,1.14013-2.1001,2.81982,0,1.665.855,2.79,2.1001,2.79C734.96411,514.15918,735.8042,513.03418,735.8042,511.36914Z" fill="#e4e4e4"/><path d="M738.99927,507.70947h1.02l.105,1.04981h.04492a3.4362,3.4362,0,0,1,2.44482-1.23c1.53,0,2.22.99023,2.22,2.85009V514.999h-1.23v-4.45459c0-1.36523-.41992-1.95019-1.37988-1.95019-.75,0-1.26.39014-1.99487,1.125V514.999h-1.23Z" fill="#e4e4e4"/><path d="M425.12976,83.72412l.74988-.87012a3.85446,3.85446,0,0,0,2.715,1.23c1.28992,0,2.05494-.645,2.05494-1.605,0-1.00488-.705-1.31982-1.635-1.73974l-1.40992-.61524a2.76436,2.76436,0,0,1-1.99487-2.53466c0-1.5,1.30493-2.60987,3.08984-2.60987a4.08375,4.08375,0,0,1,2.90992,1.21485l-.675.81005a3.13852,3.13852,0,0,0-2.23487-.93017c-1.095,0-1.83.55517-1.83,1.43994,0,.94531.855,1.30518,1.635,1.63525l1.3949.59961a2.73926,2.73926,0,0,1,2.0249,2.625c0,1.56006-1.2749,2.80518-3.34485,2.80518A4.77257,4.77257,0,0,1,425.12976,83.72412Z" fill="#e4e4e4"/><path d="M433.73975,77.70947h1.01989l.105.83985h.04505a3.77116,3.77116,0,0,1,2.325-1.02c1.87488,0,2.87988,1.45508,2.87988,3.71972,0,2.4751-1.485,3.93018-3.1499,3.93018a3.37742,3.37742,0,0,1-2.0249-.84033l.03,1.2749v2.46h-1.23Zm5.09973,3.53955c0-1.605-.53992-2.68457-1.91992-2.68457a3.07013,3.07013,0,0,0-1.94983.98975v3.82471a2.88416,2.88416,0,0,0,1.78491.76513C437.95459,84.144,438.83948,83.04932,438.83948,81.249Z" fill="#e4e4e4"/><path d="M442.06458,77.70947h1.01989l.105,1.31983h.04505a2.49342,2.49342,0,0,1,2.06994-1.5,1.81075,1.81075,0,0,1,.77991.1499l-.24,1.08008a2.03509,2.03509,0,0,0-.705-.12012c-.615,0-1.35.4502-1.845,1.68018V84.999h-1.22985Z" fill="#e4e4e4"/><path d="M446.57935,81.36914c0-2.38476,1.605-3.83984,3.26989-3.83984,1.86,0,2.90992,1.335,2.90992,3.41992a4.76876,4.76876,0,0,1-.04505.70508h-4.9198a2.41768,2.41768,0,0,0,2.42993,2.53466,3.29623,3.29623,0,0,0,1.81494-.56982l.43494.81006a4.34269,4.34269,0,0,1-2.3999.75A3.48605,3.48605,0,0,1,446.57935,81.36914Zm5.09985-.6001c0-1.46972-.66-2.26465-1.79993-2.26465a2.25121,2.25121,0,0,0-2.1,2.26465Z" fill="#e4e4e4"/><path d="M453.89941,83.10889c0-1.58985,1.36487-2.38477,4.46973-2.7295,0-.93017-.3-1.83007-1.5-1.83007a3.96585,3.96585,0,0,0-2.1748.77978l-.48-.855a5.40964,5.40964,0,0,1,2.86474-.94482c1.78516,0,2.53491,1.18506,2.53491,3V84.999h-1.01977l-.105-.87011h-.04517a3.88692,3.88692,0,0,1-2.41479,1.05029A1.9838,1.9838,0,0,1,453.89941,83.10889Zm4.46973.105V81.189c-2.42993.3003-3.26977.9004-3.26977,1.83008,0,.8252.56994,1.16992,1.28979,1.16992A2.95288,2.95288,0,0,0,458.36914,83.21387Z" fill="#e4e4e4"/><path d="M461.38452,81.36914c0-2.37012,1.49976-3.83984,3.1648-3.83984a3.00317,3.00317,0,0,1,2.03979.83984l-.05981-1.24463V74.31934h1.24487V84.999h-1.02l-.105-.855h-.04492a3.28844,3.28844,0,0,1-2.20484,1.03516C462.56934,85.1792,461.38452,83.79883,461.38452,81.36914Zm5.14478,1.77V79.3291a2.53773,2.53773,0,0,0-1.77-.76465c-1.16992,0-2.09986,1.125-2.09986,2.78955,0,1.74024.73487,2.79,2.00977,2.79A2.468,2.468,0,0,0,466.5293,83.13916Z" fill="#e4e4e4"/><path d="M974.74072,385.16016h2.80493c2.20484,0,3.68995.73535,3.68995,2.895,0,2.06982-1.47,3.04492-3.62989,3.04492h-1.61987V395h-1.24512Zm2.71509,4.91992c1.70972,0,2.53491-.62988,2.53491-2.0249,0-1.42481-.87011-1.88965-2.595-1.88965h-1.40991v3.91455Z" fill="#e4e4e4"/><path d="M982.01587,393.10986c0-1.58984,1.365-2.38476,4.46973-2.72949,0-.93017-.3-1.83008-1.5-1.83008a3.96624,3.96624,0,0,0-2.17481.77979l-.48-.855a5.40983,5.40983,0,0,1,2.865-.94483c1.78491,0,2.53467,1.18506,2.53467,3V395h-1.01978l-.105-.87012h-.04516a3.8869,3.8869,0,0,1-2.4148,1.0503A1.98373,1.98373,0,0,1,982.01587,393.10986Zm4.46973.105v-2.0249c-2.42994.30029-3.26978.90039-3.26978,1.83008,0,.82519.56982,1.16992,1.2898,1.16992A2.95294,2.95294,0,0,0,986.4856,393.21484Z" fill="#e4e4e4"/><path d="M990.02563,387.71045h1.02l.105,1.31982h.04493a2.49311,2.49311,0,0,1,2.06982-1.5,1.81055,1.81055,0,0,1,.78.14991l-.24,1.08007a2.03562,2.03562,0,0,0-.70483-.12011c-.615,0-1.3501.45019-1.845,1.68017V395h-1.23Z" fill="#e4e4e4"/><path d="M994.42065,393.10986c0-1.58984,1.365-2.38476,4.46973-2.72949,0-.93017-.30005-1.83008-1.5-1.83008a3.96621,3.96621,0,0,0-2.1748.77979l-.48-.855a5.4098,5.4098,0,0,1,2.865-.94483c1.78491,0,2.53466,1.18506,2.53466,3V395h-1.01977l-.105-.87012h-.04517a3.88687,3.88687,0,0,1-2.41479,1.0503A1.98374,1.98374,0,0,1,994.42065,393.10986Zm4.46973.105v-2.0249c-2.42993.30029-3.26977.90039-3.26977,1.83008,0,.82519.56982,1.16992,1.28979,1.16992A2.9529,2.9529,0,0,0,998.89038,393.21484Z" fill="#e4e4e4"/><path d="M1002.43066,393.53027v-9.21h1.23v9.29981c0,.39013.165.54.345.54a1.02448,1.02448,0,0,0,.27-.03028l.1648.93018a1.65846,1.65846,0,0,1-.70483.12012C1002.80566,395.18018,1002.43066,394.59521,1002.43066,393.53027Z" fill="#e4e4e4"/><path d="M1006.25562,393.53027v-9.21h1.23v9.29981c0,.39013.165.54.345.54a1.02455,1.02455,0,0,0,.27-.03028l.165.93018a1.66045,1.66045,0,0,1-.70507.12012C1006.63062,395.18018,1006.25562,394.59521,1006.25562,393.53027Z" fill="#e4e4e4"/><path d="M1009.54028,391.37012c0-2.38477,1.605-3.83985,3.26978-3.83985,1.86011,0,2.90991,1.335,2.90991,3.41993a4.77023,4.77023,0,0,1-.04492.70507h-4.91968a2.41749,2.41749,0,0,0,2.42969,2.53467A3.29508,3.29508,0,0,0,1015,393.62012l.43506.81006a4.34237,4.34237,0,0,1-2.3999.75A3.48606,3.48606,0,0,1,1009.54028,391.37012Zm5.09986-.6001c0-1.46973-.65992-2.26465-1.8-2.26465a2.25122,2.25122,0,0,0-2.09986,2.26465Z" fill="#e4e4e4"/><path d="M1017.52026,393.53027v-9.21h1.23v9.29981c0,.39013.165.54.345.54a1.02451,1.02451,0,0,0,.27-.03028l.165.93018a1.66048,1.66048,0,0,1-.70507.12012C1017.89526,395.18018,1017.52026,394.59521,1017.52026,393.53027Z" fill="#e4e4e4"/><path d="M434.74084,505.16162h2.80481c2.205,0,3.68995.73535,3.68995,2.895,0,2.06982-1.47,3.04492-3.62989,3.04492h-1.62v3.8999h-1.24488Zm2.71485,4.91992c1.71,0,2.53491-.62988,2.53491-2.0249,0-1.4248-.87-1.88965-2.59485-1.88965h-1.41v3.91455Z" fill="#e4e4e4"/><path d="M442.01587,513.11133c0-1.58985,1.36487-2.38477,4.46973-2.72949,0-.93018-.29993-1.83008-1.49988-1.83008a3.96594,3.96594,0,0,0-2.17493.77978l-.48-.855a5.40978,5.40978,0,0,1,2.86487-.94482c1.78491,0,2.53491,1.18506,2.53491,3v4.46972h-1.02l-.105-.87011h-.04492a3.88782,3.88782,0,0,1-2.41492,1.05029A1.9838,1.9838,0,0,1,442.01587,513.11133Zm4.46973.105v-2.0249c-2.42994.30029-3.26978.90039-3.26978,1.83007,0,.8252.57,1.16993,1.28992,1.16993A2.95317,2.95317,0,0,0,446.4856,513.21631Z" fill="#e4e4e4"/><path d="M450.02576,507.71191h1.01989l.105,1.31983h.04505a2.49342,2.49342,0,0,1,2.06994-1.5,1.81072,1.81072,0,0,1,.77991.1499l-.24,1.08008a2.03508,2.03508,0,0,0-.70495-.12012c-.615,0-1.35.4502-1.845,1.68018v4.67968h-1.22986Z" fill="#e4e4e4"/><path d="M454.42065,513.11133c0-1.58985,1.365-2.38477,4.47-2.72949,0-.93018-.3-1.83008-1.5-1.83008a3.96556,3.96556,0,0,0-2.17492.77978l-.48-.855a5.40972,5.40972,0,0,1,2.86487-.94482c1.78491,0,2.53491,1.18506,2.53491,3v4.46972h-1.02l-.105-.87011h-.04492a3.88759,3.88759,0,0,1-2.415,1.05029A1.98386,1.98386,0,0,1,454.42065,513.11133Zm4.47.105v-2.0249c-2.42993.30029-3.27.90039-3.27,1.83007,0,.8252.57006,1.16993,1.29,1.16993A2.95385,2.95385,0,0,0,458.89062,513.21631Z" fill="#e4e4e4"/><path d="M462.43066,513.53174v-9.21h1.23v9.2998c0,.39014.165.54.345.54a1.02481,1.02481,0,0,0,.27-.03027l.1648.93017a1.65846,1.65846,0,0,1-.70483.12012C462.80566,515.18164,462.43066,514.59668,462.43066,513.53174Z" fill="#e4e4e4"/><path d="M466.25562,513.53174v-9.21h1.23v9.2998c0,.39014.165.54.345.54a1.02487,1.02487,0,0,0,.27-.03027l.165.93017a1.66045,1.66045,0,0,1-.70507.12012C466.63062,515.18164,466.25562,514.59668,466.25562,513.53174Z" fill="#e4e4e4"/><path d="M469.54028,511.37158c0-2.38476,1.605-3.83984,3.26978-3.83984,1.86011,0,2.90991,1.335,2.90991,3.41992a4.77047,4.77047,0,0,1-.04492.70508h-4.91968a2.41749,2.41749,0,0,0,2.42969,2.53467A3.295,3.295,0,0,0,475,513.62158l.43506.81006a4.34229,4.34229,0,0,1-2.3999.75A3.48606,3.48606,0,0,1,469.54028,511.37158Zm5.09986-.6001c0-1.46972-.65992-2.26464-1.8-2.26464a2.25121,2.25121,0,0,0-2.09986,2.26464Z" fill="#e4e4e4"/><path d="M477.52026,513.53174v-9.21h1.23v9.2998c0,.39014.165.54.345.54a1.02484,1.02484,0,0,0,.27-.03027l.165.93017a1.66048,1.66048,0,0,1-.70507.12012C477.89526,515.18164,477.52026,514.59668,477.52026,513.53174Z" fill="#e4e4e4"/><path d="M448.94556,680.16016h5.66967v1.05029h-4.4248V684.54h3.74988v1.05029h-3.74988V690h-1.24487Z" fill="#e4e4e4"/><path d="M456.35522,680.16016h1.5l1.8899,5.25c.24.6748.46509,1.37988.70508,2.05517h.06c.24-.67529.43482-1.38037.67481-2.05517l1.85986-5.25h1.51514V690h-1.16992v-5.41455c0-.87012.105-2.04.16479-2.91016h-.05981l-.78,2.23487-1.85987,5.10009h-.825l-1.8601-5.10009-.77979-2.23487h-.06006c.06006.87012.1499,2.04.1499,2.91016V690h-1.125Z" fill="#e4e4e4"/><path d="M799.26685,264.499h1.32836v9.36377h4.594V274.999h-5.92236Z" fill="#979797"/><path d="M805.39453,270.48535h3.6814v1.0083h-3.6814Z" fill="#979797"/><path d="M811.15479,264.499h3.12109c2.12891,0,3.60156.72022,3.60156,2.56055a2.29671,2.29671,0,0,1-1.53662,2.28906v.064a2.4159,2.4159,0,0,1,2.14478,2.51318c0,2.06494-1.63257,3.07324-3.9856,3.07324h-3.34521Zm2.8811,4.46534c1.79272,0,2.529-.65625,2.529-1.72852,0-1.21631-.83252-1.68066-2.46509-1.68066h-1.6167v3.40918Zm.272,4.978c1.80884,0,2.86524-.65625,2.86524-2.06445,0-1.29688-1.02442-1.88916-2.86524-1.88916h-1.82471v3.95361Z" fill="#979797"/><path d="M819.77832,270.48535h3.6814v1.0083h-3.6814Z" fill="#979797"/><path d="M825.53857,264.499h1.32837v4.40137H831.749V264.499h1.34449v10.5H831.749v-4.9458h-4.88208v4.9458h-1.32837Z" fill="#979797"/><path d="M838.99414,273.91064h2.33716V266.3877h-1.85693v-.84864a6.07756,6.07756,0,0,0,2.16088-.752h1.00855v9.12353h2.11279V274.999h-5.76245Z" fill="#979797"/><path d="M799.26685,504.5h1.32836v9.36377h4.594V515h-5.92236Z" fill="#979797"/><path d="M805.39453,510.48633h3.6814v1.0083h-3.6814Z" fill="#979797"/><path d="M811.15479,504.5h3.12109c2.12891,0,3.60156.72021,3.60156,2.56055a2.29672,2.29672,0,0,1-1.53662,2.28906v.064a2.41591,2.41591,0,0,1,2.14478,2.51319C818.4856,513.9917,816.853,515,814.5,515h-3.34521Zm2.8811,4.46533c1.79272,0,2.529-.65625,2.529-1.72851,0-1.21631-.83252-1.68067-2.46509-1.68067h-1.6167v3.40918Zm.272,4.978c1.80884,0,2.86524-.65625,2.86524-2.06445,0-1.29688-1.02442-1.88916-2.86524-1.88916h-1.82471v3.95361Z" fill="#979797"/><path d="M819.77832,510.48633h3.6814v1.0083h-3.6814Z" fill="#979797"/><path d="M825.53857,504.5h1.32837v4.40137H831.749V504.5h1.34449V515H831.749v-4.9458h-4.88208V515h-1.32837Z" fill="#979797"/><path d="M838.37012,514.21582c3.07324-3.05762,4.80176-4.89795,4.80176-6.54687a1.80837,1.80837,0,0,0-1.93677-2.00049,3.008,3.008,0,0,0-2.17676,1.23242l-.75244-.75244a4.00926,4.00926,0,0,1,3.08935-1.55274,2.83653,2.83653,0,0,1,3.05713,3.00928c0,1.9209-1.74463,3.82568-4.16162,6.35449.5603-.04785,1.18457-.0957,1.71265-.0957h2.96118V515h-6.59448Z" fill="#979797"/><path d="M650.46533,269.75c0-3.37744,1.98487-5.44238,4.658-5.44238a3.832,3.832,0,0,1,2.8811,1.29638l-.72021.86475a2.87015,2.87015,0,0,0-2.145-.99268c-1.98462,0-3.29712,1.63282-3.29712,4.2417,0,2.64112,1.26441,4.30567,3.24927,4.30567a3.16889,3.16889,0,0,0,2.43286-1.18408l.73633.832a4.06237,4.06237,0,0,1-3.21729,1.5205C652.41821,275.19189,650.46533,273.17529,650.46533,269.75Z" fill="#979797"/><path d="M659.80957,272.15088V267.2207h1.32861v4.75391c0,1.45654.43213,2.08105,1.45655,2.08105.80029,0,1.36059-.40039,2.09692-1.3125V267.2207h1.3125V275h-1.08838l-.11206-1.21631h-.04809a3.28815,3.28815,0,0,1-2.561,1.4082C660.5459,275.19189,659.80957,274.13574,659.80957,272.15088Z" fill="#979797"/><path d="M668.84961,272.59912v-4.30566h-1.15234v-.99268l1.2163-.08008.16016-2.17675h1.10449v2.17675h2.09668v1.07276h-2.09668v4.32177c0,.96.304,1.5044,1.20044,1.5044a2.82268,2.82268,0,0,0,.88037-.208l.25611.99219a4.80309,4.80309,0,0,1-1.44068.28808C669.40991,275.19189,668.84961,274.13574,668.84961,272.59912Z" fill="#979797"/><path d="M677.1853,273.91162h2.33716v-7.523h-1.85693V265.54a6.07808,6.07808,0,0,0,2.16089-.75195H680.835v9.12353h2.11279V275H677.1853Z" fill="#979797"/><path d="M650.46533,509.75c0-3.37744,1.98487-5.44238,4.658-5.44238a3.832,3.832,0,0,1,2.8811,1.29638l-.72021.86475a2.87015,2.87015,0,0,0-2.145-.99268c-1.98462,0-3.29712,1.63282-3.29712,4.2417,0,2.64112,1.26441,4.30567,3.24927,4.30567a3.16889,3.16889,0,0,0,2.43286-1.18408l.73633.832a4.06237,4.06237,0,0,1-3.21729,1.5205C652.41821,515.19189,650.46533,513.17529,650.46533,509.75Z" fill="#979797"/><path d="M659.80957,512.15088V507.2207h1.32861v4.75391c0,1.45654.43213,2.08105,1.45655,2.08105.80029,0,1.36059-.40039,2.09692-1.3125V507.2207h1.3125V515h-1.08838l-.11206-1.21631h-.04809a3.28815,3.28815,0,0,1-2.561,1.4082C660.5459,515.19189,659.80957,514.13574,659.80957,512.15088Z" fill="#979797"/><path d="M668.84961,512.59912v-4.30566h-1.15234v-.99268l1.2163-.08008.16016-2.17675h1.10449v2.17675h2.09668v1.07276h-2.09668v4.32177c0,.96.304,1.5044,1.20044,1.5044a2.82268,2.82268,0,0,0,.88037-.208l.25611.99219a4.80309,4.80309,0,0,1-1.44068.28808C669.40991,515.19189,668.84961,514.13574,668.84961,512.59912Z" fill="#979797"/><path d="M676.561,514.21582c3.07324-3.05762,4.802-4.89795,4.802-6.54687a1.80837,1.80837,0,0,0-1.93677-2.00049,3.00848,3.00848,0,0,0-2.17676,1.23242l-.75244-.75244a4.00926,4.00926,0,0,1,3.08936-1.55274,2.83653,2.83653,0,0,1,3.05712,3.00928c0,1.9209-1.74462,3.82568-4.16162,6.35449.56031-.04785,1.18457-.0957,1.71265-.0957h2.96118V515H676.561Z" fill="#979797"/><path d="M390.46533,239.75c0-3.37744,1.98487-5.44238,4.658-5.44238a3.832,3.832,0,0,1,2.8811,1.29638l-.72021.86475a2.87009,2.87009,0,0,0-2.1449-.99268c-1.98474,0-3.29736,1.63282-3.29736,4.2417,0,2.64112,1.26453,4.30567,3.24939,4.30567a3.1695,3.1695,0,0,0,2.433-1.18408l.73621.832a4.06237,4.06237,0,0,1-3.21729,1.5205C392.41821,245.19189,390.46533,243.17529,390.46533,239.75Z" fill="#979797"/><path d="M399.80957,242.15088V237.2207h1.32861v4.75391c0,1.45654.43213,2.081,1.45655,2.081.80029,0,1.36059-.40039,2.09692-1.3125V237.2207h1.3125V245h-1.0885l-.11206-1.21631h-.048a3.28852,3.28852,0,0,1-2.561,1.4082C400.5459,245.19189,399.80957,244.13574,399.80957,242.15088Z" fill="#979797"/><path d="M408.84961,242.59912v-4.30566h-1.15247v-.99268l1.21643-.08008.16016-2.17675h1.10437v2.17675H412.275v1.07276H410.1781v4.32177c0,.96.3042,1.5044,1.20056,1.5044a2.82183,2.82183,0,0,0,.88037-.208l.25611.99219a4.80383,4.80383,0,0,1-1.44068.28808C409.40979,245.19189,408.84961,244.13574,408.84961,242.59912Z" fill="#979797"/><path d="M417.18542,243.91162h2.33692v-7.523h-1.85669V235.54a6.0791,6.0791,0,0,0,2.16077-.75195h1.00842v9.12353h2.11291V245h-5.76233Z" fill="#979797"/><path d="M480.46533,239.75c0-3.37744,1.98487-5.44238,4.658-5.44238a3.832,3.832,0,0,1,2.8811,1.29638l-.72021.86475a2.87015,2.87015,0,0,0-2.145-.99268c-1.98462,0-3.29712,1.63282-3.29712,4.2417,0,2.64112,1.26441,4.30567,3.24927,4.30567a3.16889,3.16889,0,0,0,2.43286-1.18408l.73633.832a4.06237,4.06237,0,0,1-3.21729,1.5205C482.41821,245.19189,480.46533,243.17529,480.46533,239.75Z" fill="#979797"/><path d="M489.80957,242.15088V237.2207h1.32861v4.75391c0,1.45654.43213,2.081,1.45655,2.081.80029,0,1.36059-.40039,2.09692-1.3125V237.2207h1.3125V245h-1.08838l-.11206-1.21631h-.04809a3.28815,3.28815,0,0,1-2.561,1.4082C490.5459,245.19189,489.80957,244.13574,489.80957,242.15088Z" fill="#979797"/><path d="M498.84961,242.59912v-4.30566h-1.15234v-.99268l1.2163-.08008.16016-2.17675h1.10449v2.17675h2.09668v1.07276h-2.09668v4.32177c0,.96.304,1.5044,1.20044,1.5044a2.82268,2.82268,0,0,0,.88037-.208l.25611.99219a4.80309,4.80309,0,0,1-1.44068.28808C499.40991,245.19189,498.84961,244.13574,498.84961,242.59912Z" fill="#979797"/><path d="M506.561,244.21582c3.07324-3.05762,4.802-4.898,4.802-6.54687a1.80837,1.80837,0,0,0-1.93677-2.00049,3.00848,3.00848,0,0,0-2.17676,1.23242l-.75244-.75244a4.00926,4.00926,0,0,1,3.08936-1.55274,2.83653,2.83653,0,0,1,3.05712,3.00928c0,1.9209-1.74462,3.82568-4.16162,6.35449.56031-.04785,1.18457-.0957,1.71265-.0957h2.96118V245H506.561Z" fill="#979797"/><path d="M924.26587,235.5h1.32837v9.36377h4.594V246h-5.92236Z" fill="#979797"/><path d="M930.39355,241.48633h3.6814v1.0083h-3.6814Z" fill="#979797"/><path d="M936.15381,235.5h3.12109c2.12891,0,3.60156.72021,3.60156,2.56055a2.29671,2.29671,0,0,1-1.53662,2.28906v.064a2.41591,2.41591,0,0,1,2.14478,2.51319c0,2.06494-1.63257,3.07324-3.9856,3.07324h-3.34521Zm2.8811,4.46533c1.79273,0,2.529-.65625,2.529-1.72851,0-1.21631-.83251-1.68067-2.46508-1.68067h-1.6167v3.40918Zm.272,4.978c1.80884,0,2.86524-.65625,2.86524-2.06445,0-1.29688-1.02441-1.88916-2.86524-1.88916h-1.8247v3.95361Z" fill="#979797"/><path d="M944.77734,241.48633h3.6814v1.0083h-3.6814Z" fill="#979797"/><path d="M950.5376,235.5H951.866v4.40137h4.88208V235.5h1.34448V246h-1.34448v-4.9458H951.866V246H950.5376Z" fill="#979797"/><path d="M963.99316,244.91162h2.33716v-7.523h-1.85693V236.54a6.078,6.078,0,0,0,2.16089-.75195h1.00854v9.12353h2.1128V246h-5.76246Z" fill="#979797"/><path d="M1004.26587,235.5h1.32837v9.36377h4.594V246h-5.92236Z" fill="#979797"/><path d="M1010.39355,241.48633h3.6814v1.0083h-3.6814Z" fill="#979797"/><path d="M1016.15381,235.5h3.12109c2.12891,0,3.60156.72021,3.60156,2.56055a2.29671,2.29671,0,0,1-1.53662,2.28906v.064a2.41591,2.41591,0,0,1,2.14478,2.51319c0,2.06494-1.63257,3.07324-3.9856,3.07324h-3.34521Zm2.8811,4.46533c1.79273,0,2.529-.65625,2.529-1.72851,0-1.21631-.83251-1.68067-2.46508-1.68067h-1.6167v3.40918Zm.272,4.978c1.80884,0,2.86524-.65625,2.86524-2.06445,0-1.29688-1.02441-1.88916-2.86524-1.88916h-1.8247v3.95361Z" fill="#979797"/><path d="M1024.77734,241.48633h3.6814v1.0083h-3.6814Z" fill="#979797"/><path d="M1030.5376,235.5h1.32837v4.40137h4.88208V235.5h1.34448V246h-1.34448v-4.9458H1031.866V246h-1.32837Z" fill="#979797"/><path d="M1043.36914,245.21582c3.07324-3.05762,4.80176-4.898,4.80176-6.54687a1.80837,1.80837,0,0,0-1.93677-2.00049,3.008,3.008,0,0,0-2.17676,1.23242l-.75244-.75244a4.00926,4.00926,0,0,1,3.08936-1.55274,2.83654,2.83654,0,0,1,3.05713,3.00928c0,1.9209-1.74463,3.82568-4.16163,6.35449.56031-.04785,1.18458-.0957,1.71265-.0957h2.96118V246h-6.59448Z" fill="#979797"/><path d="M240.74658,164.812h1.16272v4.6084h.042l3.8241-4.6084H247.092l-2.87158,3.502,3.31982,5.687h-1.30273l-2.74536-4.77637-1.58289,1.86279V174.001h-1.16272Z" fill="#979797"/><path d="M248.13843,170.61133a3.2829,3.2829,0,0,1,3.05359-3.58594c1.73694,0,2.7174,1.24658,2.7174,3.19336a4.45242,4.45242,0,0,1-.042.65869H249.273a2.2579,2.2579,0,0,0,2.26929,2.36719,3.075,3.075,0,0,0,1.69482-.53223l.40625.75635a4.05584,4.05584,0,0,1-2.24121.7002A3.2551,3.2551,0,0,1,248.13843,170.61133Zm4.76245-.56055c0-1.37256-.61621-2.11523-1.68091-2.11523a2.10262,2.10262,0,0,0-1.96094,2.11523Z" fill="#979797"/><path d="M254.97,176.78857l.22412-.91064a2.00189,2.00189,0,0,0,.51831.09814c.77039,0,1.26062-.61621,1.54077-1.457l.15406-.5039-2.73145-6.82178h1.19068l1.38671,3.76807c.21009.58837.44825,1.28857.65833,1.91894h.056c.19617-.61621.39221-1.31689.57434-1.91894l1.21863-3.76807h1.1206l-2.56335,7.36816c-.4762,1.34473-1.17664,2.36719-2.54944,2.36719A2.26141,2.26141,0,0,1,254.97,176.78857Z" fill="#979797"/><path d="M265.1062,164.812h2.61951c2.05908,0,3.4458.68653,3.4458,2.70361,0,1.93311-1.37268,2.84327-3.38977,2.84327h-1.51282V174.001H265.1062Zm2.5354,4.59424c1.59693,0,2.36731-.58789,2.36731-1.89063,0-1.33105-.81238-1.76513-2.42334-1.76513h-1.31665v3.65576Z" fill="#979797"/><path d="M272.07812,170.61133c0-2.28321,1.48475-3.58594,3.15162-3.58594s3.15173,1.30273,3.15173,3.58594a3.17484,3.17484,0,1,1-6.30335,0Zm5.11268,0c0-1.56885-.78443-2.63379-1.96106-2.63379-1.1626,0-1.96106,1.06494-1.96106,2.63379,0,1.55469.79846,2.60547,1.96106,2.60547C276.40637,173.2168,277.1908,172.166,277.1908,170.61133Z" fill="#979797"/><path d="M279.41382,173.23047l.57434-.77051a3.05983,3.05983,0,0,0,2.00305.8125c.89649,0,1.34473-.47607,1.34473-1.06445,0-.7002-.8125-1.00879-1.55481-1.28858-.96655-.35009-2.03113-.8125-2.03113-1.96142,0-1.09229.86841-1.93262,2.33923-1.93262a3.39917,3.39917,0,0,1,2.11512.77l-.54627.72852a2.52834,2.52834,0,0,0-1.55481-.60205c-.85449,0-1.2467.46191-1.2467.98046,0,.644.74243.88233,1.51281,1.17676.9806.36377,2.07312.77,2.07312,2.05908,0,1.10645-.88244,2.03077-2.49328,2.03077A4.098,4.098,0,0,1,279.41382,173.23047Z" fill="#979797"/><path d="M285.82593,165.05029a.80056.80056,0,0,1,1.59692,0,.80059.80059,0,0,1-1.59692,0Zm.2102,2.14307h1.14856V174.001h-1.14856Z" fill="#979797"/><path d="M289.676,171.8999v-3.76806h-1.00855v-.86866l1.06458-.06982.14-1.90527h.96655v1.90527h1.835v.93848h-1.835v3.78222c0,.84033.26612,1.31641,1.05054,1.31641a2.47535,2.47535,0,0,0,.77051-.18213l.22412.86865a4.2051,4.2051,0,0,1-1.26074.252C290.16626,174.169,289.676,173.24463,289.676,171.8999Z" fill="#979797"/><path d="M294.00171,165.05029a.80056.80056,0,0,1,1.59692,0,.80059.80059,0,0,1-1.59692,0Zm.2102,2.14307h1.14856V174.001h-1.14856Z" fill="#979797"/><path d="M297.15137,170.61133c0-2.28321,1.48486-3.58594,3.15173-3.58594s3.15173,1.30273,3.15173,3.58594a3.17488,3.17488,0,1,1-6.30346,0Zm5.11279,0c0-1.56885-.78442-2.63379-1.96106-2.63379-1.1626,0-1.96106,1.06494-1.96106,2.63379,0,1.55469.79846,2.60547,1.96106,2.60547C301.47974,173.2168,302.26416,172.166,302.26416,170.61133Z" fill="#979797"/><path d="M305.24365,167.19336h.95239l.09815.98047h.042a3.20793,3.20793,0,0,1,2.2832-1.14844c1.42884,0,2.07312.92432,2.07312,2.66113V174.001H309.544v-4.16016c0-1.2749-.39222-1.82129-1.2887-1.82129-.70044,0-1.17664.36426-1.863,1.05078V174.001h-1.14856Z" fill="#979797"/><path d="M280.646,185.811h5.2948v.98046h-4.13221v2.88575h3.4878v.99463h-3.4878v3.33349h4.27222V195H280.646Z" fill="#979797"/><path d="M287.91187,188.19238h.95239l.09814.98047h.042a3.20793,3.20793,0,0,1,2.28321-1.14844c1.42883,0,2.07312.92432,2.07312,2.66114V195h-1.14856v-4.16016c0-1.2749-.39221-1.82129-1.2887-1.82129-.70044,0-1.17663.36426-1.863,1.05079V195h-1.14855Z" fill="#979797"/><path d="M294.58923,188.19238h1.19068l1.28869,3.86621c.19605.67237.42017,1.3584.63037,2.00293h.05591c.19617-.64453.42029-1.33056.61646-2.00293l1.28857-3.86621h1.13465L298.38525,195h-1.34472Z" fill="#979797"/><path d="M304.48743,190.40527c0-2.95556,1.73694-4.7622,4.07617-4.7622a3.35354,3.35354,0,0,1,2.52136,1.13427l-.63037.75684a2.51043,2.51043,0,0,0-1.877-.86865c-1.73694,0-2.8855,1.42871-2.8855,3.71191,0,2.31152,1.10657,3.76807,2.8435,3.76807a2.7721,2.7721,0,0,0,2.12915-1.03662l.64429.72851a3.55565,3.55565,0,0,1-2.81543,1.33057C306.19629,195.168,304.48743,193.40332,304.48743,190.40527Z" fill="#979797"/><path d="M327.38513,733.02246h6.806v1.26025h-5.31152v3.99756h4.50122v1.26026h-4.50122V744.834h-1.49451Z" fill="#e9a460"/><path d="M336.277,733.02246h1.80053l2.26868,6.30176c.28809.81055.55811,1.65674.84619,2.4668h.072c.28809-.81006.52222-1.65625.81031-2.4668l2.23266-6.30176H346.126V744.834h-1.40454v-6.5c0-1.04443.12609-2.44873.19812-3.49316h-.072l-.93628,2.68311-2.23266,6.12158h-.99036l-2.23266-6.12158-.93628-2.68311h-.072c.072,1.04443.18017,2.44873.18017,3.49316v6.5H336.277Z" fill="#e9a460"/><path d="M1104.69019,478.60352c0-3.78077,2.07055-6.06739,5.0415-6.06739s5.05957,2.30469,5.05957,6.06739c0,3.79931-2.08862,6.17578-5.05957,6.17578S1104.69019,482.40283,1104.69019,478.60352Zm8.53442,0c0-2.93457-1.38623-4.75342-3.49292-4.75342s-3.49292,1.81885-3.49292,4.75342c0,2.95312,1.38623,4.86181,3.49292,4.86181S1113.22461,481.55664,1113.22461,478.60352Z" fill="#e9a460"/><path d="M1117.05591,481.3584V475.813h1.49438v5.34765c0,1.63819.48633,2.34034,1.63867,2.34034.90015,0,1.53028-.4502,2.35865-1.47608V475.813h1.47632v8.75049h-1.22413l-.12622-1.36817h-.05395a3.699,3.699,0,0,1-2.88086,1.584C1117.88428,484.7793,1117.05591,483.59131,1117.05591,481.3584Z" fill="#e9a460"/><path d="M1127.22607,481.86279V477.019h-1.29638v-1.11621l1.36841-.08984.17993-2.44873h1.24243V475.813h2.35864V477.019h-2.35864v4.86182c0,1.08008.342,1.69238,1.35034,1.69238a3.16994,3.16994,0,0,0,.99048-.23437l.28809,1.1167a5.39967,5.39967,0,0,1-1.62061.32373C1127.8562,484.7793,1127.22607,483.59131,1127.22607,481.86279Z" fill="#e9a460"/><path d="M218.7937,352.18848h1.49439V364H218.7937Z" fill="#e9a460"/><path d="M223.38342,355.24951h1.22437l.1261,1.26026h.05395a4.12533,4.12533,0,0,1,2.93482-1.47657c1.83667,0,2.66479,1.18848,2.66479,3.4209V364h-1.47632v-5.34766c0-1.63867-.50415-2.34082-1.65649-2.34082-.90039,0-1.51245.46827-2.39478,1.35059V364h-1.47644Z" fill="#e9a460"/><path d="M397.90454,180.48145c0-3.58692,2.10779-5.77979,4.94653-5.77979a4.06885,4.06885,0,0,1,3.0597,1.37695l-.7649.918a3.04777,3.04777,0,0,0-2.27783-1.05371c-2.10779,0-3.50171,1.7334-3.50171,4.5044,0,2.80468,1.3429,4.57226,3.45069,4.57226a3.36327,3.36327,0,0,0,2.58374-1.25781l.782.88428a4.31564,4.31564,0,0,1-3.41675,1.61474C399.97839,186.26074,397.90454,184.11865,397.90454,180.48145Z" fill="#cacaca"/><path d="M407.83264,183.03076v-5.23535h1.41089v5.04834c0,1.54687.45886,2.21,1.54675,2.21.85,0,1.445-.4248,2.22681-1.394v-5.86426H414.411v8.26123h-1.156l-.11889-1.292h-.051a3.49224,3.49224,0,0,1-2.71972,1.49609C408.6145,186.26074,407.83264,185.13867,407.83264,183.03076Z" fill="#cacaca"/><path d="M417.43738,183.50684v-4.57227H416.2135v-1.0542l1.29187-.085.17-2.31152h1.17285v2.31152h2.2268v1.13916h-2.2268v4.58936c0,1.02.323,1.59765,1.2749,1.59765a2.99863,2.99863,0,0,0,.93481-.2207l.272,1.05371a5.10517,5.10517,0,0,1-1.52979.30615C418.03235,186.26074,417.43738,185.13867,417.43738,183.50684Z" fill="#cacaca"/><path d="M422.09558,181.94287c0-2.77051,1.80176-4.35156,3.82459-4.35156s3.82458,1.58105,3.82458,4.35156c0,2.73682-1.80176,4.31787-3.82458,4.31787S422.09558,184.67969,422.09558,181.94287Zm6.20435,0c0-1.90381-.95191-3.19531-2.37976-3.19531-1.41089,0-2.37976,1.2915-2.37976,3.19531,0,1.88721.96887,3.16162,2.37976,3.16162C427.348,185.10449,428.29993,183.83008,428.29993,181.94287Z" fill="#cacaca"/><path d="M437.00378,178.93457H433.5531v7.12207h-1.3938v-7.12207h-1.12182v-1.0542l1.12182-.085v-1.08789c0-1.7168.84986-2.7876,2.56677-2.7876a3.81643,3.81643,0,0,1,1.51282.30567l-.28894,1.0542a2.67693,2.67693,0,0,0-1.10486-.2212c-.81592,0-1.292.59522-1.292,1.68311v1.05371h3.45068v-1.30859c0-1.68311.7649-2.73682,2.41382-2.73682a3.73611,3.73611,0,0,1,1.37683.272l-.306,1.0708a2.31668,2.31668,0,0,0-.93481-.2041c-.782,0-1.15588.54395-1.15588,1.59815v1.30859h1.75085v1.13916h-1.75085v7.12207h-1.39393Z" fill="#cacaca"/><path d="M444.62036,180.48145c0-3.58692,2.10779-5.77979,4.94653-5.77979a4.06885,4.06885,0,0,1,3.0597,1.37695l-.7649.918a3.04777,3.04777,0,0,0-2.27783-1.05371c-2.10779,0-3.50171,1.7334-3.50171,4.5044,0,2.80468,1.3429,4.57226,3.45069,4.57226a3.36327,3.36327,0,0,0,2.58374-1.25781l.782.88428a4.31581,4.31581,0,0,1-3.41675,1.61474C446.69421,186.26074,444.62036,184.11865,444.62036,180.48145Z" fill="#cacaca"/><path d="M454.22546,181.94287c0-2.77051,1.80176-4.35156,3.82447-4.35156,2.02295,0,3.8247,1.58105,3.8247,4.35156,0,2.73682-1.80175,4.31787-3.8247,4.31787C456.02722,186.26074,454.22546,184.67969,454.22546,181.94287Zm6.20435,0c0-1.90381-.9519-3.19531-2.37988-3.19531-1.41065,0-2.37964,1.2915-2.37964,3.19531,0,1.88721.969,3.16162,2.37964,3.16162C459.47791,185.10449,460.42981,183.83008,460.42981,181.94287Z" fill="#cacaca"/><path d="M464.05115,177.79541h1.156l.1189,1.18994h.051a3.895,3.895,0,0,1,2.77075-1.394c1.73388,0,2.51562,1.12207,2.51562,3.23v5.23535h-1.3938V181.0083c0-1.54687-.47583-2.21-1.56372-2.21-.8501,0-1.428.44189-2.261,1.2749v5.9834h-1.3938Z" fill="#cacaca"/><path d="M473.588,183.50684v-4.57227h-1.22387v-1.0542l1.29174-.085.17017-2.31152h1.17285v2.31152h2.22681v1.13916H474.9989v4.58936c0,1.02.323,1.59765,1.2749,1.59765a2.99948,2.99948,0,0,0,.93482-.2207l.272,1.05371a5.1043,5.1043,0,0,1-1.52978.30615C474.183,186.26074,473.588,185.13867,473.588,183.50684Z" fill="#cacaca"/><path d="M479.09607,177.79541h1.156l.11889,1.49609h.051a2.8259,2.8259,0,0,1,2.3457-1.70019,2.05027,2.05027,0,0,1,.884.17041l-.272,1.22363a2.31338,2.31338,0,0,0-.79907-.13574c-.69678,0-1.52979.50977-2.09082,1.90332v5.30371h-1.3938Z" fill="#cacaca"/><path d="M484.213,181.94287c0-2.77051,1.80176-4.35156,3.82447-4.35156,2.02294,0,3.8247,1.58105,3.8247,4.35156,0,2.73682-1.80176,4.31787-3.8247,4.31787C486.01477,186.26074,484.213,184.67969,484.213,181.94287Zm6.20435,0c0-1.90381-.95191-3.19531-2.37988-3.19531-1.41089,0-2.37964,1.2915-2.37964,3.19531,0,1.88721.96875,3.16162,2.37964,3.16162C489.46545,185.10449,490.41736,183.83008,490.41736,181.94287Z" fill="#cacaca"/><path d="M494.0387,184.39062V173.9541h1.394v10.53858c0,.44189.18677.61181.39087.61181a1.18041,1.18041,0,0,0,.30591-.03369l.187,1.05371a1.87669,1.87669,0,0,1-.79883.13623C494.46375,186.26074,494.0387,185.59766,494.0387,184.39062Z" fill="#cacaca"/><path d="M940.46338,174.90576h1.41089v9.94385h4.87866v1.207h-6.28955Z" fill="#cacaca"/><path d="M946.97485,181.26318h3.90943v1.0708h-3.90943Z" fill="#cacaca"/><path d="M953.09424,174.90576h3.3147c2.26074,0,3.8247.76514,3.8247,2.71973a2.43889,2.43889,0,0,1-1.63183,2.43066v.06787a2.56564,2.56564,0,0,1,2.27758,2.66895c0,2.19287-1.73364,3.26367-4.23242,3.26367h-3.55273Zm3.05981,4.74268c1.90381,0,2.68579-.69727,2.68579-1.83594,0-1.292-.884-1.78467-2.61792-1.78467h-1.71679v3.62061Zm.28882,5.28613c1.9209,0,3.04273-.69678,3.04273-2.19238,0-1.377-1.08789-2.00586-3.04273-2.00586h-1.93774v4.19824Z" fill="#cacaca"/><path d="M962.25757,181.26318H966.167v1.0708h-3.90942Z" fill="#cacaca"/><path d="M968.3772,174.90576h1.41089v4.67432h5.18457v-4.67432h1.42773v11.15088h-1.42773V180.8042h-5.18457v5.25244H968.3772Z" fill="#cacaca"/><path d="M982.21484,180.48145c0-3.58692,2.10791-5.77979,4.94654-5.77979a4.0691,4.0691,0,0,1,3.05981,1.37695l-.76489.918a3.04779,3.04779,0,0,0-2.27783-1.05371c-2.10767,0-3.50171,1.7334-3.50171,4.5044,0,2.80468,1.343,4.57226,3.45068,4.57226a3.36346,3.36346,0,0,0,2.58374-1.25781l.782.88428a4.316,4.316,0,0,1-3.41674,1.61474C984.28882,186.26074,982.21484,184.11865,982.21484,180.48145Z" fill="#cacaca"/><path d="M991.82007,181.94287c0-2.77051,1.80176-4.35156,3.82446-4.35156,2.02295,0,3.82471,1.58105,3.82471,4.35156,0,2.73682-1.80176,4.31787-3.82471,4.31787C993.62183,186.26074,991.82007,184.67969,991.82007,181.94287Zm6.20434,0c0-1.90381-.9519-3.19531-2.37988-3.19531-1.41064,0-2.37964,1.2915-2.37964,3.19531,0,1.88721.969,3.16162,2.37964,3.16162C997.07251,185.10449,998.02441,183.83008,998.02441,181.94287Z" fill="#cacaca"/><path d="M1001.64575,177.79541h1.156l.11889,1.18994h.051a3.895,3.895,0,0,1,2.77075-1.394c1.73389,0,2.51563,1.12207,2.51563,3.23v5.23535h-1.3938V181.0083c0-1.54687-.47583-2.21-1.56372-2.21-.8501,0-1.428.44189-2.261,1.2749v5.9834h-1.3938Z" fill="#cacaca"/><path d="M1011.18286,183.50684v-4.57227H1009.959v-1.0542l1.292-.085.16992-2.31152h1.17285v2.31152h2.22681v1.13916h-2.22681v4.58936c0,1.02.323,1.59765,1.2749,1.59765a2.99954,2.99954,0,0,0,.93482-.2207l.272,1.05371a5.10436,5.10436,0,0,1-1.52979.30615C1011.77783,186.26074,1011.18286,185.13867,1011.18286,183.50684Z" fill="#cacaca"/><path d="M1016.69067,177.79541h1.156l.1189,1.49609h.051a2.82591,2.82591,0,0,1,2.3457-1.70019,2.05029,2.05029,0,0,1,.884.17041l-.272,1.22363a2.31348,2.31348,0,0,0-.79908-.13574c-.69677,0-1.52978.50977-2.09082,1.90332v5.30371h-1.3938Z" fill="#cacaca"/><path d="M1021.80762,181.94287c0-2.77051,1.80176-4.35156,3.82446-4.35156,2.02295,0,3.82471,1.58105,3.82471,4.35156,0,2.73682-1.80176,4.31787-3.82471,4.31787C1023.60938,186.26074,1021.80762,184.67969,1021.80762,181.94287Zm6.20434,0c0-1.90381-.9519-3.19531-2.37988-3.19531-1.41089,0-2.37964,1.2915-2.37964,3.19531,0,1.88721.96875,3.16162,2.37964,3.16162C1027.06006,185.10449,1028.012,183.83008,1028.012,181.94287Z" fill="#cacaca"/><path d="M1031.6333,184.39062V173.9541h1.394v10.53858c0,.44189.18677.61181.39087.61181a1.18037,1.18037,0,0,0,.30591-.03369l.187,1.05371a1.87669,1.87669,0,0,1-.79883.13623C1032.05835,186.26074,1031.6333,185.59766,1031.6333,184.39062Z" fill="#cacaca"/><path d="M653.69385,364.08936c3.84082-3.82081,6.00122-6.12159,6.00122-8.18213a2.26062,2.26062,0,0,0-2.42066-2.50049,3.76056,3.76056,0,0,0-2.72045,1.54053l-.94019-.94043a5.00971,5.00971,0,0,1,3.86084-1.94043,3.545,3.545,0,0,1,3.8208,3.76074c0,2.40088-2.18042,4.78125-5.20117,7.94189.70019-.06006,1.48022-.12011,2.14038-.12011h3.70093v1.42041h-8.2417Z" fill="#e9a460"/><path d="M663.65356,359.42822h4.60108v1.26026h-4.60108Z" fill="#e9a460"/><path d="M670.85352,351.94629h3.741c2.94068,0,4.9209.98047,4.9209,3.86084,0,2.76074-1.96045,4.061-4.84106,4.061h-2.1604v5.20118h-1.6604Zm3.62085,6.56152c2.28051,0,3.38061-.83984,3.38061-2.70068,0-1.90039-1.16016-2.52051-3.46069-2.52051h-1.88037v5.22119Z" fill="#e9a460"/><path d="M680.81348,360.22852c0-3.26075,2.1206-5.1211,4.501-5.1211,2.38062,0,4.501,1.86035,4.501,5.1211,0,3.2207-2.12036,5.08105-4.501,5.08105C682.93408,365.30957,680.81348,363.44922,680.81348,360.22852Zm7.30151,0c0-2.24073-1.12012-3.76123-2.80054-3.76123-1.6604,0-2.80053,1.5205-2.80053,3.76123,0,2.22021,1.14013,3.7207,2.80053,3.7207C686.99487,363.94922,688.115,362.44873,688.115,360.22852Z" fill="#e9a460"/><path d="M692.37354,363.10889V350.82617h1.64038V363.229c0,.52.22.72022.46.72022a1.37653,1.37653,0,0,0,.3601-.04l.22022,1.24023a2.20833,2.20833,0,0,1-.94043.16016C692.87354,365.30957,692.37354,364.5293,692.37354,363.10889Z" fill="#e9a460"/><path d="M696.75317,360.22852c0-3.18067,2.14038-5.1211,4.36109-5.1211,2.48047,0,3.88061,1.78028,3.88061,4.56055a6.3961,6.3961,0,0,1-.05981.94043h-6.56152c.12011,2.06055,1.38037,3.38086,3.24072,3.38086a4.39365,4.39365,0,0,0,2.42041-.76026l.58032,1.08008a5.79123,5.79123,0,0,1-3.20068,1.00049C698.81372,365.30957,696.75317,363.40918,696.75317,360.22852Zm6.80152-.8003c0-1.96045-.88013-3.02051-2.40064-3.02051-1.3601,0-2.60034,1.1001-2.80053,3.02051Z" fill="#e9a460"/><path d="M710.59277,363.36914l1.00025-1.16064a5.139,5.139,0,0,0,3.62085,1.64062c1.72046,0,2.74048-.86035,2.74048-2.14062,0-1.34034-.94019-1.76026-2.18042-2.32032l-1.88038-.82031a3.68782,3.68782,0,0,1-2.66064-3.38086c0-2,1.74048-3.48047,4.12109-3.48047a5.44538,5.44538,0,0,1,3.88062,1.62012l-.90015,1.08057A4.18372,4.18372,0,0,0,715.354,353.167c-1.46045,0-2.44067.73975-2.44067,1.92041,0,1.26026,1.14038,1.74024,2.18042,2.18018l1.86035.80029c1.52051.66016,2.70069,1.56006,2.70069,3.50049,0,2.08057-1.70044,3.74121-4.46094,3.74121A6.36465,6.36465,0,0,1,710.59277,363.36914Z" fill="#e9a460"/><path d="M720.43262,351.94629h1.78027l2.10059,7.08154c.48,1.56055.78,2.80078,1.28027,4.34131h.08008c.48-1.54053.80005-2.78076,1.26025-4.34131l2.10034-7.08154h1.70044L726.574,365.06934h-1.94043Z" fill="#e9a460"/><path d="M732.533,351.94629h7.56177v1.40039h-5.90137v4.44092h5.00122V359.188h-5.00122v5.88135H732.533Z" fill="#e9a460"/><path d="M653.69385,604.08936c3.84082-3.82081,6.00122-6.12159,6.00122-8.18213a2.26062,2.26062,0,0,0-2.42066-2.50049,3.76056,3.76056,0,0,0-2.72045,1.54053l-.94019-.94043a5.00971,5.00971,0,0,1,3.86084-1.94043,3.545,3.545,0,0,1,3.8208,3.76074c0,2.40088-2.18042,4.78125-5.20117,7.94189.70019-.06006,1.48022-.12011,2.14038-.12011h3.70093v1.42041h-8.2417Z" fill="#e9a460"/><path d="M663.65356,599.42822h4.60108v1.26026h-4.60108Z" fill="#e9a460"/><path d="M670.85352,591.94629h3.741c2.94068,0,4.9209.98047,4.9209,3.86084,0,2.76074-1.96045,4.061-4.84106,4.061h-2.1604v5.20118h-1.6604Zm3.62085,6.56152c2.28051,0,3.38061-.83984,3.38061-2.70068,0-1.90039-1.16016-2.52051-3.46069-2.52051h-1.88037v5.22119Z" fill="#e9a460"/><path d="M680.81348,600.22852c0-3.26075,2.1206-5.1211,4.501-5.1211,2.38062,0,4.501,1.86035,4.501,5.1211,0,3.2207-2.12036,5.08105-4.501,5.08105C682.93408,605.30957,680.81348,603.44922,680.81348,600.22852Zm7.30151,0c0-2.24073-1.12012-3.76123-2.80054-3.76123-1.6604,0-2.80053,1.5205-2.80053,3.76123,0,2.22021,1.14013,3.7207,2.80053,3.7207C686.99487,603.94922,688.115,602.44873,688.115,600.22852Z" fill="#e9a460"/><path d="M692.37354,603.10889V590.82617h1.64038V603.229c0,.52.22.72022.46.72022a1.37653,1.37653,0,0,0,.3601-.04l.22022,1.24023a2.20833,2.20833,0,0,1-.94043.16016C692.87354,605.30957,692.37354,604.5293,692.37354,603.10889Z" fill="#e9a460"/><path d="M696.75317,600.22852c0-3.18067,2.14038-5.1211,4.36109-5.1211,2.48047,0,3.88061,1.78028,3.88061,4.56055a6.3961,6.3961,0,0,1-.05981.94043h-6.56152c.12011,2.06055,1.38037,3.38086,3.24072,3.38086a4.39365,4.39365,0,0,0,2.42041-.76026l.58032,1.08008a5.79123,5.79123,0,0,1-3.20068,1.00049C698.81372,605.30957,696.75317,603.40918,696.75317,600.22852Zm6.80152-.8003c0-1.96045-.88013-3.02051-2.40064-3.02051-1.3601,0-2.60034,1.1001-2.80053,3.02051Z" fill="#e9a460"/><path d="M710.59277,603.36914l1.00025-1.16064a5.139,5.139,0,0,0,3.62085,1.64062c1.72046,0,2.74048-.86035,2.74048-2.14062,0-1.34034-.94019-1.76026-2.18042-2.32032l-1.88038-.82031a3.68782,3.68782,0,0,1-2.66064-3.38086c0-2,1.74048-3.48047,4.12109-3.48047a5.44538,5.44538,0,0,1,3.88062,1.62012l-.90015,1.08057A4.18372,4.18372,0,0,0,715.354,593.167c-1.46045,0-2.44067.73975-2.44067,1.92041,0,1.26026,1.14038,1.74024,2.18042,2.18018l1.86035.80029c1.52051.66016,2.70069,1.56006,2.70069,3.50049,0,2.08057-1.70044,3.74121-4.46094,3.74121A6.36465,6.36465,0,0,1,710.59277,603.36914Z" fill="#e9a460"/><path d="M720.43262,591.94629h1.78027l2.10059,7.08154c.48,1.56055.78,2.80078,1.28027,4.34131h.08008c.48-1.54053.80005-2.78076,1.26025-4.34131l2.10034-7.08154h1.70044L726.574,605.06934h-1.94043Z" fill="#e9a460"/><path d="M732.533,591.94629h7.56177v1.40039h-5.90137v4.44092h5.00122V599.188h-5.00122v5.88135H732.533Z" fill="#e9a460"/><path d="M432.75525,598.28809l-3.56067-6.3418h1.84033l1.7804,3.36084c.34009.6001.62011,1.14014,1.02014,1.90039h.08008c.3601-.76025.62011-1.30029.94018-1.90039l1.74036-3.36084h1.76038l-3.58069,6.42139,3.8208,6.70166H436.7561l-1.92041-3.54053c-.34008-.64014-.70007-1.30029-1.12024-2.10059h-.07995c-.38013.8003-.72022,1.46045-1.04029,2.10059l-1.90039,3.54053h-1.76037Z" fill="#e9a460"/><path d="M439.17444,599.42822h4.601v1.26026h-4.601Z" fill="#e9a460"/><path d="M446.37439,591.94629H453.936v1.40039h-5.90137v4.44092h5.0011V599.188h-5.0011v5.88135h-1.66028Z" fill="#e9a460"/><path d="M454.81421,602.54883c0-2.12061,1.82031-3.18067,5.96118-3.64063,0-1.24023-.40015-2.44091-2.00049-2.44091a5.28687,5.28687,0,0,0-2.90051,1.04052l-.64014-1.14013a7.21206,7.21206,0,0,1,3.82093-1.26026c2.38037,0,3.38061,1.58008,3.38061,4.00049v5.96143h-1.36035l-.13989-1.16016h-.06006a5.18623,5.18623,0,0,1-3.2207,1.40039A2.64569,2.64569,0,0,1,454.81421,602.54883Zm5.96118.14013v-2.70068c-3.24072.3999-4.36084,1.2002-4.36084,2.44043,0,1.1001.76,1.56055,1.72022,1.56055A3.94233,3.94233,0,0,0,460.77539,602.689Z" fill="#e9a460"/><path d="M464.794,600.22852c0-3.16114,2.00048-5.1211,4.22094-5.1211a4.005,4.005,0,0,1,2.72046,1.12012l-.07983-1.66065v-3.74072h1.66015v14.24317h-1.3601l-.14014-1.14014h-.06006a4.38514,4.38514,0,0,1-2.94043,1.38037C466.37427,605.30957,464.794,603.46875,464.794,600.22852Zm6.86157,2.36035v-5.08106a3.38381,3.38381,0,0,0-2.3606-1.02051c-1.5603,0-2.80054,1.50049-2.80054,3.7212,0,2.32031.98023,3.7207,2.68042,3.7207A3.29159,3.29159,0,0,0,471.65552,602.58887Z" fill="#e9a460"/><path d="M475.87378,600.22852c0-3.18067,2.14038-5.1211,4.36108-5.1211,2.48047,0,3.88062,1.78028,3.88062,4.56055a6.39459,6.39459,0,0,1-.05982.94043h-6.56152c.12012,2.06055,1.38037,3.38086,3.24072,3.38086a4.39362,4.39362,0,0,0,2.42041-.76026l.58033,1.08008a5.79129,5.79129,0,0,1-3.20069,1.00049C477.93433,605.30957,475.87378,603.40918,475.87378,600.22852Zm6.80151-.8003c0-1.96045-.88012-3.02051-2.40063-3.02051-1.36011,0-2.60034,1.1001-2.80054,3.02051Z" fill="#e9a460"/><path d="M972.75513,478.28809l-3.56079-6.3418h1.84033l1.78052,3.36084c.34008.6001.62011,1.14014,1.02026,1.90039h.08008c.35986-.76025.62011-1.30029.94018-1.90039l1.74024-3.36084h1.7605l-3.58082,6.42139,3.82081,6.70166H976.7561l-1.92041-3.54053c-.34008-.64014-.70019-1.30029-1.12036-2.10059h-.08008c-.37988.8003-.72,1.46045-1.04,2.10059l-1.90039,3.54053h-1.76049Z" fill="#e9a460"/><path d="M979.17407,479.42822h4.60108v1.26026h-4.60108Z" fill="#e9a460"/><path d="M986.37427,471.94629H993.936v1.40039h-5.90137v4.44092h5.00122V479.188h-5.00122v5.88135h-1.6604Z" fill="#e9a460"/><path d="M994.814,482.54883c0-2.12061,1.82032-3.18067,5.96119-3.64063,0-1.24023-.40015-2.44091-2.00049-2.44091a5.28765,5.28765,0,0,0-2.90064,1.04052l-.64013-1.14013a7.21269,7.21269,0,0,1,3.8208-1.26026c2.38061,0,3.38086,1.58008,3.38086,4.00049v5.96143h-1.36035l-.1399-1.16016h-.06006a5.18618,5.18618,0,0,1-3.2207,1.40039A2.64569,2.64569,0,0,1,994.814,482.54883Zm5.96119.14013v-2.70068c-3.24073.3999-4.36084,1.2002-4.36084,2.44043,0,1.1001.76,1.56055,1.72021,1.56055A3.94235,3.94235,0,0,0,1000.77515,482.689Z" fill="#e9a460"/><path d="M1004.794,480.22852c0-3.16114,2.00048-5.1211,4.22094-5.1211a4.005,4.005,0,0,1,2.72046,1.12012l-.07983-1.66065v-3.74072h1.66015v14.24317h-1.3601l-.14014-1.14014h-.06006a4.38514,4.38514,0,0,1-2.94043,1.38037C1006.37427,485.30957,1004.794,483.46875,1004.794,480.22852Zm6.86157,2.36035v-5.08106a3.38381,3.38381,0,0,0-2.3606-1.02051c-1.5603,0-2.80054,1.50049-2.80054,3.7212,0,2.32031.98023,3.7207,2.68042,3.7207A3.29159,3.29159,0,0,0,1011.65552,482.58887Z" fill="#e9a460"/><path d="M1015.87378,480.22852c0-3.18067,2.14038-5.1211,4.36108-5.1211,2.48047,0,3.88062,1.78028,3.88062,4.56055a6.39459,6.39459,0,0,1-.05982.94043h-6.56152c.12012,2.06055,1.38037,3.38086,3.24072,3.38086a4.39362,4.39362,0,0,0,2.42041-.76026l.58033,1.08008a5.79129,5.79129,0,0,1-3.20069,1.00049C1017.93433,485.30957,1015.87378,483.40918,1015.87378,480.22852Zm6.80151-.8003c0-1.96045-.88012-3.02051-2.40063-3.02051-1.36011,0-2.60034,1.1001-2.80054,3.02051Z" fill="#e9a460"/></svg>