<svg xmlns="http://www.w3.org/2000/svg" viewBox="0 0 76 104"><title>wheel-web</title><path d="M38,99.50488A30.23969,30.23969,0,0,1,13.33105,86.749C8.291,79.42383,5.84082,68.38477,5.84082,53c0-12.94238.77246-27.29492,6.501-35.62012C18.85937,7.90918,31.21484,6.49512,38,6.49512S57.14062,7.90918,63.6582,17.37988c5.72852,8.3252,6.501,22.67774,6.501,35.62012,0,15.38477-2.4502,26.42383-7.49023,33.749A30.23969,30.23969,0,0,1,38,99.50488Z"/><path d="M38,6.99538c8.74243,0,19.51672,2.34219,25.24591,10.66739S69.65912,40.29617,69.65912,53s-1.6734,25.14067-7.40259,33.46587a29.73181,29.73181,0,0,1-48.51306,0C8.01428,78.14067,6.34088,65.70383,6.34088,53S7.025,25.988,12.75409,17.66277,29.25757,6.99538,38,6.99538m0-1c-6.88324,0-19.423,1.44212-26.0697,11.10049C6.13916,25.51115,5.34088,39.32535,5.34088,53c0,15.49,2.47907,26.62221,7.5788,34.03278a30.73161,30.73161,0,0,0,50.16064,0C68.18005,79.62221,70.65912,68.49,70.65912,53c0-13.67465-.79828-27.48885-6.58942-35.90413C57.423,7.4375,44.88324,5.99538,38,5.99538Z" fill="#ccc"/><line x1="6.37497" y1="48.54794" x2="69.62503" y2="48.54794" fill="none" stroke="#ccc" stroke-miterlimit="10" stroke-width="2"/><line x1="38" y1="6.99538" x2="38" y2="48.63063" fill="none" stroke="#ccc" stroke-miterlimit="10" stroke-width="2"/><rect x="33.05327" y="14.58037" width="9.89347" height="24.73367" rx="4" ry="4" fill="#d10014" stroke="#ccc" stroke-miterlimit="10" stroke-width="2"/></svg>