<svg xmlns="http://www.w3.org/2000/svg" width="36" height="36" viewBox="0 0 36 36"><title>MC_D_Enabled</title><circle cx="18" cy="18" r="17" fill="#4d4d4d"/><path d="M18,1.5A16.5,16.5,0,1,1,1.5,18,16.51869,16.51869,0,0,1,18,1.5m0-1A17.5,17.5,0,1,0,35.5,18,17.5,17.5,0,0,0,18,.5Z" fill="#666"/><path d="M13,11.01805h4.19076c4.8175,0,7.68424,2.47825,7.68424,7.43252,0,4.97778-2.86674,7.57026-7.53961,7.57026H13ZM16.99792,23.864c3.17952,0,5.01034-1.72011,5.01034-5.41341,0-3.66979-1.83082-5.27567-5.01034-5.27567H15.79384V23.864Z" fill="#ccc"/></svg>