<svg xmlns="http://www.w3.org/2000/svg" width="86" height="22" viewBox="0 0 86 22"><title>Overwrite_Disabled</title><rect x="0.5" y="0.5" width="85" height="21" rx="2.5" ry="2.5" fill="#333"/><path d="M83,1a2.00228,2.00228,0,0,1,2,2V19a2.00228,2.00228,0,0,1-2,2H3a2.00228,2.00228,0,0,1-2-2V3A2.00228,2.00228,0,0,1,3,1H83m0-1H3A3.00881,3.00881,0,0,0,0,3V19a3.00881,3.00881,0,0,0,3,3H83a3,3,0,0,0,3-3V3a3,3,0,0,0-3-3Z"/><path d="M6.34116,11.4474c0-2.90039,1.82207-4.51914,4.17354-4.51914,2.33642,0,4.15849,1.61875,4.15849,4.51914,0,2.91436-1.82207,4.60186-4.15849,4.60186C8.16323,16.04926,6.34116,14.36176,6.34116,11.4474Zm6.696,0c0-2.00664-1.12061-3.23017-2.52246-3.23017-1.41582,0-2.5375,1.22353-2.5375,3.23017,0,2.02061,1.12168,3.31289,2.5375,3.31289C11.91655,14.76029,13.03716,13.468,13.03716,11.4474Z"/><path d="M15.225,9.08822h1.60811l1.07207,3.57933c.17832.67353.38457,1.37557.564,2.07762h.05479c.19228-.702.38457-1.40409.57685-2.07762L20.1728,9.08822h1.52647l-2.29561,6.89211H17.57534Z"/><path d="M25.99116,8.91929c1.82832,0,2.79082,1.34815,2.79082,3.27109a3.57313,3.57313,0,0,1-.06875.758H24.42388a2.04463,2.04463,0,0,0,1.99267,2.05147c.57793,0,.94348-.44784,1.43762-.77034l.92781,1.47917a4.96635,4.96635,0,0,1-2.5706.44059,3.29259,3.29259,0,0,1-3.32686-3.60786A3.32726,3.32726,0,0,1,25.99116,8.91929ZM27.407,11.92382c0-1.09475-.45332-1.95511-1.375-1.95511-.79707,0-1.48457.80332-1.62207,1.95511Z"/><path d="M35.03491,9.08822h1.89522l.511,3.57933c.1375.65927.33311,1.30537.45664,1.97889h.25479c.1557-.84156.391-1.44631.52646-1.97889l.57979-3.57933h1.44375l.59375,3.57933c.16435.65927.40185,1.30537.55332,1.97889h.25478c.12354-.67352.33418-1.31962.45772-1.97889l.511-3.57933h1.78457L43.139,15.98033h-1.9831l-.78311-3.21405c-.15146-.6461-.261-1.27794-.4125-2.00741h-.05478c-.12461.72947-.24815,1.37557-.39854,2.02057l-.77021,3.20089H36.82241Z"/><path d="M46.23052,9.08822h1.30625l.10957,1.2209h.05478a2.29541,2.29541,0,0,1,1.911-1.38983,1.6943,1.6943,0,0,1,.77021.14041l-.275,1.40409a2.16681,2.16681,0,0,0-.70146-.113c-.536,0-1.18164.37955-1.59414,1.41835v4.21118H46.23052Z"/><path d="M30.16709,9.08822h1.40625l.10957,1.2209h.05479a2.29541,2.29541,0,0,1,1.911-1.38983,1.69435,1.69435,0,0,1,.77022.14041l-.275,1.40409a2.16682,2.16682,0,0,0-.70147-.113c-.536,0-1.18164.37955-1.59414,1.41835v4.21118H30.16709Z"/><path d="M50.818,6.96782A1.37837,1.37837,0,0,1,52.09341,5.842a1.17643,1.17643,0,0,1,1.07646,1.12582,1.2743,1.2743,0,0,1-1.07646,1.21266A1.4771,1.4771,0,0,1,50.818,6.96782Zm.37832,2.1204h1.68125v6.89211H51.19634Z"/><path d="M55.171,10.36506h-.9625V9.15842l1.04521-.0702L55.446,7.207h1.31914V9.08822h1.71875v1.27684H56.76509v3.28536c0,.81393.30293,1.20664.94853,1.20664.23418,0,.55243-.43893.74471-.52339l.5,1.52083a6.06993,6.06993,0,0,1-1.64324.29476c-1.56729,0-2.14414-1.01138-2.14414-2.49884Z"/><path d="M62.468,8.91929c1.82832,0,2.79082,1.34815,2.79082,3.27109a3.57313,3.57313,0,0,1-.06875.758H60.90073a2.04464,2.04464,0,0,0,1.99268,2.05147,3.53368,3.53368,0,0,0,1.66907-.79117l.58632,1.35915a4.60623,4.60623,0,0,1-2.46057.58144,3.29259,3.29259,0,0,1-3.32685-3.60786A3.32726,3.32726,0,0,1,62.468,8.91929Zm1.41582,3.00453c0-1.09475-.45332-1.95511-1.375-1.95511-.79707,0-1.48457.80332-1.62207,1.95511Z"/><line x1="81" y1="7" x2="71" y2="7" stroke="#000" stroke-miterlimit="10" stroke-width="2"/><line x1="81" y1="11" x2="71" y2="11" stroke="#000" stroke-miterlimit="10" stroke-width="2"/><line x1="81" y1="15" x2="71" y2="15" stroke="#000" stroke-miterlimit="10" stroke-width="2"/></svg>