<svg xmlns="http://www.w3.org/2000/svg" width="30" height="30" viewBox="0 0 30 30"><title>PreRecall_A_Enabled</title><rect x="0.5" y="0.5" width="29" height="29" rx="3.5" ry="3.5" fill="#4d4d4d"/><path d="M26,1a3.00342,3.00342,0,0,1,3,3V26a3.00342,3.00342,0,0,1-3,3H4a3.00342,3.00342,0,0,1-3-3V4A3.00342,3.00342,0,0,1,4,1H26m0-1H4A4.01179,4.01179,0,0,0,0,4V26a4.01179,4.01179,0,0,0,4,4H26a4.01179,4.01179,0,0,0,4-4V4a4.01179,4.01179,0,0,0-4-4Z" fill="#666"/><path d="M11.166,8.98438h3.97949c2.44824,0,4.32129.86425,4.32129,3.49218A3.29617,3.29617,0,0,1,17.126,15.84375l2.80859,4.916H17.59375l-2.53809-4.60938H13.25488v4.60938H11.166Zm3.76367,5.50878c1.60254,0,2.48437-.68359,2.48437-2.0166,0-1.34961-.88183-1.81836-2.48437-1.81836H13.25488v3.835Z" fill="#ccc"/></svg>