<svg xmlns="http://www.w3.org/2000/svg" width="52" height="32" viewBox="0 0 52 32"><title>Undo_Enabled</title><path d="M5,31.5A4.50491,4.50491,0,0,1,.5,27V5A4.50491,4.50491,0,0,1,5,.5H51.5v31Z" fill="#4d4d4d"/><path d="M51,1V31H5a4.01175,4.01175,0,0,1-4-4V5A4.01175,4.01175,0,0,1,5,1H51m1-1H5A5.00566,5.00566,0,0,0,0,5V27a5.00566,5.00566,0,0,0,5,5H52V0Z"/><path d="M50,2V30H5a3.00337,3.00337,0,0,1-3-3V5A3.00337,3.00337,0,0,1,5,2H50m1-1H5A4.01175,4.01175,0,0,0,1,5V27a4.01175,4.01175,0,0,0,4,4H51V1Z" fill="#666"/><path d="M25.14673,23.5h3.51179C32.45476,23.5,35,20.96154,35,18s-2.54524-5.5-6.34148-5.5H16.01841" fill="none" stroke="#ccc" stroke-miterlimit="10" stroke-width="2.8"/><polyline points="21 18.5 15 12.5 21 7.5" fill="none" stroke="#ccc" stroke-miterlimit="10" stroke-width="2.6"/></svg>