<svg xmlns="http://www.w3.org/2000/svg" width="86" height="22" viewBox="0 0 86 22"><title>Append_Disabled</title><rect x="0.5" y="0.5" width="85" height="21" rx="2.5" ry="2.5" fill="#333"/><path d="M83,1a2.00228,2.00228,0,0,1,2,2V19a2.00228,2.00228,0,0,1-2,2H3a2.00228,2.00228,0,0,1-2-2V3A2.00228,2.00228,0,0,1,3,1H83m0-1H3A3.00881,3.00881,0,0,0,0,3V19a3.00881,3.00881,0,0,0,3,3H83a3,3,0,0,0,3-3V3a3,3,0,0,0-3-3Z"/><path d="M18.39541,13.43188h-2.811l-.8004,2.50281H12.848l3.14121-8.87817h2.07022l3.12724,8.87817H19.1958ZM18.1377,12.196l-.21582-1.08524c-.275-.93672-.45-1.85513-.711-2.83216H16.756c-.24814.99082-.40917,1.89544-.69814,2.83216L15.84209,12.196Z"/><path d="M23.756,16.37784v1.59091H22.0748V9.16943h1.40625l.10958.70546h.05478A3.3121,3.3121,0,0,1,25.68,9.00606c1.67793,0,2.65332,1.33029,2.65332,3.39363,0,2.2808-1.38789,3.59836-2.88642,3.59836a2.75062,2.75062,0,0,1-1.73272-.733Zm1.361-1.66977c.89375,0,1.68018-.78714,1.68018-2.29459,0-1.33029-.53936-2.11744-1.55664-2.11744a2.16318,2.16318,0,0,0-1.48458.74683v3.10826A2.15069,2.15069,0,0,0,25.11709,14.70807Z"/><path d="M31.75605,16.37784v1.59091H30.0748V9.16943h1.40625l.10958.70546h.05478A3.3121,3.3121,0,0,1,33.68,9.00606c1.67793,0,2.65332,1.33029,2.65332,3.39363,0,2.2808-1.38789,3.59836-2.88642,3.59836a2.75062,2.75062,0,0,1-1.73272-.733Zm1.361-1.66977c.89375,0,1.68018-.78714,1.68018-2.29459,0-1.33029-.53936-2.11744-1.55664-2.11744a2.16318,2.16318,0,0,0-1.48458.74683v3.10826A2.15069,2.15069,0,0,0,33.11709,14.70807Z"/><path d="M40.62666,9.00606c1.82832,0,2.79082,1.30377,2.79082,3.16342a3.34545,3.34545,0,0,1-.06875.733H39.05938a1.92722,1.92722,0,0,0,1.99267,1.88724,2.806,2.806,0,0,0,1.48962-.64393l.87581,1.375a5.12247,5.12247,0,0,1-2.57061.47722A3.23274,3.23274,0,0,1,37.52,12.509,3.25967,3.25967,0,0,1,40.62666,9.00606Zm1.41582,3.00564c-.23727-1.1255-.27165-1.99734-1.375-1.99734-.95915,0-1.52165.77314-1.62207,1.99734Z"/><path d="M45.16855,9.16943H46.5748l.10958.89535.15478.2a3.16794,3.16794,0,0,1,2.114-1.25872c1.44268,0,2.0754.9643,2.0754,2.64786v4.18077H49.24727V11.8576c-.03894-1.06593-.41582-1.40746-1.15811-1.40746-.59082,0-.67646.18537-1.23936.72852v4.656H45.16855Z"/><path d="M55.45313,9.00606a2.50828,2.50828,0,0,1,1.77353.733l-.05478-1.07251V6.05h1.58017v9.78469H57.44687l-.11064-.71925-.15478-.2a2.85614,2.85614,0,0,1-1.811,1.08261c-1.69082,0-3.07686-1.29-3.07686-3.4891A3.36892,3.36892,0,0,1,55.45313,9.00606Zm.30292,5.702a1.83182,1.83182,0,0,0,1.41583-.74683V10.853a1.91385,1.91385,0,0,0-3.24229,1.64218C53.92959,13.93366,54.77959,14.70807,55.75605,14.70807Z"/><line x1="81" y1="7" x2="71" y2="7" stroke="#000" stroke-miterlimit="10" stroke-width="2"/><line x1="81" y1="11" x2="71" y2="11" stroke="#000" stroke-miterlimit="10" stroke-width="2"/><line x1="81" y1="15" x2="71" y2="15" stroke="#000" stroke-miterlimit="10" stroke-width="2"/></svg>