<svg xmlns="http://www.w3.org/2000/svg" width="86" height="22" viewBox="0 0 86 22"><title>Append_Enabled </title><rect x="0.5" y="0.5" width="85" height="21" rx="2.5" ry="2.5" fill="#4d4d4d"/><path d="M83,1a2.00228,2.00228,0,0,1,2,2V19a2.00228,2.00228,0,0,1-2,2H3a2.00228,2.00228,0,0,1-2-2V3A2.00228,2.00228,0,0,1,3,1H83m0-1H3A3.00881,3.00881,0,0,0,0,3V19a3.00881,3.00881,0,0,0,3,3H83a3,3,0,0,0,3-3V3a3,3,0,0,0-3-3Z" fill="#666"/><path d="M18.69541,12.086h-3.011l-.7004,2.4331H13.348L16.28916,5.529h1.87021l2.92725,8.99014H19.3958Zm-.35771-1.25147-.31583-1.09893c-.275-.94853-.55-1.97978-.811-2.96914h-.05479c-.24814,1.00332-.50918,2.02061-.79814,2.96914l-.31582,1.09893Z" fill="#ccc"/><path d="M23.756,15.06914v2.11729H22.1748V7.76982h1.30625l.10958.71436h.05478A3.29164,3.29164,0,0,1,25.68,7.60439c1.67793,0,2.65332,1.34707,2.65332,3.43643,0,2.30957-1.38789,3.64375-2.88642,3.64375a2.73311,2.73311,0,0,1-1.73272-.74228Zm1.361-1.69082c.89375,0,1.58018-.79707,1.58018-2.32353,0-1.34708-.43936-2.14415-1.45665-2.14415a2.153,2.153,0,0,0-1.48457.75625v3.14747A2.136,2.136,0,0,0,25.11709,13.37832Z" fill="#ccc"/><path d="M31.64834,15.06914v2.11729H30.06709V7.76982h1.30625l.10957.71436h.05479a3.29161,3.29161,0,0,1,2.03457-.87979c1.67793,0,2.65332,1.34707,2.65332,3.43643,0,2.30957-1.38789,3.64375-2.88643,3.64375a2.73311,2.73311,0,0,1-1.73271-.74228Zm1.361-1.69082c.89267,0,1.58017-.79707,1.58017-2.32353,0-1.34708-.43935-2.14415-1.45664-2.14415a2.153,2.153,0,0,0-1.48457.75625v3.14747A2.13381,2.13381,0,0,0,33.00938,13.37832Z" fill="#ccc"/><path d="M40.62666,7.60439c1.82832,0,2.79082,1.32022,2.79082,3.20332a3.429,3.429,0,0,1-.06875.74229H39.05938a1.93743,1.93743,0,0,0,1.99267,1.911,2.82019,2.82019,0,0,0,1.56729-.49522l.536.98936a4.25374,4.25374,0,0,1-2.3085.72939A3.25462,3.25462,0,0,1,37.52,11.15146,3.2844,3.2844,0,0,1,40.62666,7.60439Zm1.41582,2.94229c0-1.07207-.45332-1.71875-1.375-1.71875-.79707,0-1.48457.59082-1.62207,1.71875Z" fill="#ccc"/><path d="M45.06855,7.76982H46.3748l.10958.90664h.05478a3.13847,3.13847,0,0,1,2.214-1.07207c1.44268,0,2.0754.97647,2.0754,2.68125v4.2335H49.24727V10.49189c0-1.114-.31582-1.52646-1.05811-1.52646a2.13769,2.13769,0,0,0-1.53936.839v4.71475H45.06855Z" fill="#ccc"/><path d="M55.35313,7.60439a2.49266,2.49266,0,0,1,1.77353.74229l-.05478-1.086V4.81357h1.58017v9.70557H57.34687l-.11064-.72832h-.05478a2.81792,2.81792,0,0,1-1.911.89375c-1.69082,0-2.77686-1.30625-2.77686-3.53311C52.49355,8.95146,53.88252,7.60439,55.35313,7.60439Zm.30292,5.77393a1.82469,1.82469,0,0,0,1.41583-.75625V9.47461a2.01353,2.01353,0,0,0-1.375-.564c-.86583,0-1.56729.811-1.56729,2.22686C54.12959,12.59414,54.67959,13.37832,55.65605,13.37832Z" fill="#ccc"/><line x1="81" y1="7" x2="71" y2="7" fill="none" stroke="#ccc" stroke-miterlimit="10" stroke-width="1.6"/><line x1="81" y1="11" x2="71" y2="11" fill="none" stroke="#ccc" stroke-miterlimit="10" stroke-width="1.6"/><line x1="81" y1="15" x2="71" y2="15" fill="none" stroke="#ccc" stroke-miterlimit="10" stroke-width="1.6"/></svg>