<svg xmlns="http://www.w3.org/2000/svg" viewBox="0 0 45 30"><defs><style>.a{fill:#333;}</style></defs><title>BB_Buttons_1.8</title><rect class="a" x="0.5" y="0.5" width="44" height="29" rx="2.5" ry="2.5"/><path d="M42,1a2,2,0,0,1,2,2V27a2,2,0,0,1-2,2H3a2,2,0,0,1-2-2V3A2,2,0,0,1,3,1H42m0-1H3A3,3,0,0,0,0,3V27a3,3,0,0,0,3,3H42a3,3,0,0,0,3-3V3a3,3,0,0,0-3-3h0Z"/><circle cx="18.5" cy="9.5" r="1"/><circle cx="15.5" cy="9.5" r="1"/><circle cx="21.5" cy="9.5" r="1"/><circle cx="24.5" cy="9.5" r="1"/><circle cx="27.5" cy="9.5" r="1"/><circle cx="27.5" cy="12.5" r="1"/><circle cx="27.5" cy="15.5" r="1"/><polygon points="27.5 24.5 31.5 17.5 23.5 17.5 27.5 24.5"/><polygon points="6.4 9.5 13.3 13.5 13.3 5.5 6.4 9.5"/></svg>