<svg xmlns="http://www.w3.org/2000/svg" width="40" height="40" viewBox="0 0 40 40"><title>MC_D_Disabled</title><circle cx="20" cy="20" r="19" fill="#4d4d4d"/><path d="M20,1.5A18.5,18.5,0,1,1,1.5,20,18.521,18.521,0,0,1,20,1.5m0-1A19.5,19.5,0,1,0,39.5,20,19.5,19.5,0,0,0,20,.5Z"/><path d="M15,13.01805h4.19076c4.8175,0,7.68424,2.47825,7.68424,7.43252,0,4.97778-2.86674,7.57026-7.53961,7.57026H15ZM18.99792,25.864c3.17952,0,5.01034-1.72011,5.01034-5.41341,0-3.66979-1.83082-5.27567-5.01034-5.27567H17.79384V25.864Z" fill="#1a1a1a"/></svg>