<svg xmlns="http://www.w3.org/2000/svg" width="44" height="44" viewBox="0 0 44 44"><title>MC_Edit_Active</title><rect x="1.5" y="1.5" width="41" height="41" rx="3.5" ry="3.5" fill="#76839c"/><path d="M39,2a3.00339,3.00339,0,0,1,3,3V39a3.00339,3.00339,0,0,1-3,3H5a3.00339,3.00339,0,0,1-3-3V5A3.00339,3.00339,0,0,1,5,2H39m0-1H5A4.01176,4.01176,0,0,0,1,5V39a4.01176,4.01176,0,0,0,4,4H39a4.01176,4.01176,0,0,0,4-4V5a4.01176,4.01176,0,0,0-4-4Z" fill="#1a1a1a"/><path d="M13.59975,15.43729a11.98326,11.98326,0,0,1,16.8005,0" fill="none" stroke="#e6e6e6" stroke-miterlimit="10" stroke-width="11"/><circle cx="22" cy="24.00004" r="12" fill="none" stroke="#1a1a1a" stroke-miterlimit="10" stroke-width="5"/><polygon points="22 26 10.34 41 33.66 41 22 26" fill="#76839c"/><circle cx="22" cy="24.00004" r="2.5" fill="#e6e6e6"/></svg>