<svg xmlns="http://www.w3.org/2000/svg" width="30" height="30" viewBox="0 0 30 30"><title>PreRecall_B_Enabled</title><rect x="0.5" y="0.5" width="29" height="29" rx="3.5" ry="3.5" fill="#4d4d4d"/><path d="M26,1a3.00342,3.00342,0,0,1,3,3V26a3.00342,3.00342,0,0,1-3,3H4a3.00342,3.00342,0,0,1-3-3V4A3.00342,3.00342,0,0,1,4,1H26m0-1H4A4.01179,4.01179,0,0,0,0,4V26a4.01179,4.01179,0,0,0,4,4H26a4.01179,4.01179,0,0,0,4-4V4a4.01179,4.01179,0,0,0-4-4Z" fill="#666"/><path d="M9.69824,14.9082c0-3.85351,2.41309-6.14062,5.38379-6.14062a4.673,4.673,0,0,1,3.40332,1.49512l-1.11621,1.3496a3.07289,3.07289,0,0,0-2.23242-1.02539c-1.92676,0-3.29492,1.62012-3.29492,4.26661,0,2.68261,1.25976,4.30371,3.24023,4.30371a3.35549,3.35549,0,0,0,2.52149-1.207l1.11621,1.31445a4.74959,4.74959,0,0,1-3.71,1.71094C12.03906,20.97559,9.69824,18.81445,9.69824,14.9082Z" fill="#ccc"/></svg>