<svg xmlns="http://www.w3.org/2000/svg" width="21" height="24" viewBox="0 0 21 24"><title>Preset_Tab_Disabled</title><rect width="21" height="24"/><rect x="1.5" y="1.5" width="18" height="21" stroke="#4d4d4d" stroke-miterlimit="10"/><rect x="2" y="2" width="17" height="3" fill="#4d4d4d"/><rect x="4" y="7" width="13" height="3" fill="#4d4d4d"/><rect x="4" y="12" width="13" height="3" fill="#4d4d4d"/><rect x="4" y="17" width="13" height="3" fill="#4d4d4d"/><rect x="6.5" y="0.5" width="29" height="29" rx="3.5" ry="3.5" fill="#333"/><path d="M32,1a3.00342,3.00342,0,0,1,3,3V26a3.00342,3.00342,0,0,1-3,3H10a3.00341,3.00341,0,0,1-3-3V4a3.00341,3.00341,0,0,1,3-3H32m0-1H10A4.01179,4.01179,0,0,0,6,4V26a4.01179,4.01179,0,0,0,4,4H32a4.01179,4.01179,0,0,0,4-4V4a4.01179,4.01179,0,0,0-4-4Z"/><path d="M17.166,8.98438h3.9795c2.44824,0,4.32129.86425,4.32129,3.49267A3.29617,3.29617,0,0,1,23.126,15.84424l2.80859,4.91553H23.59375l-2.53809-4.60938H19.25488v4.60938H17.166Zm3.76368,5.50927c1.60254,0,2.48437-.68408,2.48437-2.0166,0-1.3501-.88183-1.81836-2.48437-1.81836H19.25488v3.835Z"/></svg>