<svg xmlns="http://www.w3.org/2000/svg" width="60" height="28" viewBox="0 0 60 28"><title>PresetComp-Refresh_Enabled</title><rect x="0.5" y="0.5" width="59" height="27" rx="3.5" ry="3.5" fill="#4d4d4d"/><path d="M56,1a3.00007,3.00007,0,0,1,3,3V24a3.00007,3.00007,0,0,1-3,3H4a3.00889,3.00889,0,0,1-3-3V4A3.00889,3.00889,0,0,1,4,1H56m0-1H4A4.00455,4.00455,0,0,0,0,4V24a4.00455,4.00455,0,0,0,4,4H56a4.00455,4.00455,0,0,0,4-4V4a4.00455,4.00455,0,0,0-4-4Z" fill="#666"/><path d="M10.03125,9.81152c1.877,0,3.22168.67188,3.22168,2.57715a2.50962,2.50962,0,0,1-2.07324,2.60547L13.51953,19H12.20215L9.98926,15.12012h-1.667V19H7.16016V9.81152Zm2.05957,2.57715c0-1.20508-.79883-1.63867-2.22754-1.63867h-1.541v3.418h1.541C11.292,14.168,12.09082,13.5791,12.09082,12.38867Z" fill="#ccc"/><path d="M15.06934,15.61035a3.28306,3.28306,0,0,1,3.05371-3.58594c1.7373,0,2.71777,1.24707,2.71777,3.19336a4.43142,4.43142,0,0,1-.042.65918H16.2041a2.25831,2.25831,0,0,0,2.26953,2.36719,3.07786,3.07786,0,0,0,1.69532-.53223l.40625.75586a4.06022,4.06022,0,0,1-2.24219.7002A3.25516,3.25516,0,0,1,15.06934,15.61035Zm3.082-2.67578a2.10253,2.10253,0,0,0-1.96094,2.11523H19.832C19.832,13.67773,19.21582,12.93457,18.15137,12.93457Z" fill="#ccc"/><path d="M22.48926,13.13086V12.2627l.9248-.07032V11.11426c0-1.38672.62989-2.25586,1.98828-2.25586a3.0818,3.0818,0,0,1,1.13477.22461l-.25195.88281a1.91043,1.91043,0,0,0-.77051-.16894c-.64453,0-.95215.44824-.95215,1.31738v1.07812h1.44238v.93848H24.5625V19H23.41406V13.13086Z" fill="#ccc"/><path d="M28.958,12.19238l.09863,1.23242h.042a2.32693,2.32693,0,0,1,1.93262-1.40039,1.69963,1.69963,0,0,1,.72852.13965l-.22461,1.00879a1.91854,1.91854,0,0,0-.65821-.1123c-.57422,0-1.26074.4209-1.72265,1.56933V19H28.00586V12.19238Z" fill="#ccc"/><path d="M32.919,15.61035a3.28306,3.28306,0,0,1,3.05371-3.58594c1.7373,0,2.71777,1.24707,2.71777,3.19336a4.43142,4.43142,0,0,1-.042.65918H34.05371a2.25831,2.25831,0,0,0,2.26953,2.36719,3.0778,3.0778,0,0,0,1.69531-.53223l.40625.75586a4.06015,4.06015,0,0,1-2.24218.7002A3.25515,3.25515,0,0,1,32.919,15.61035Zm3.082-2.67578A2.10253,2.10253,0,0,0,34.04,15.0498h3.6416C37.68164,13.67773,37.06543,12.93457,36.001,12.93457Z" fill="#ccc"/><path d="M40.31055,18.22949l.57422-.77051a3.06272,3.06272,0,0,0,2.00293.8125c.89648,0,1.34472-.47558,1.34472-1.06445,0-.70019-.81152-1.00879-1.55469-1.28808-.96582-.35059-2.03125-.8125-2.03125-1.96192,0-1.0918.86914-1.93262,2.33985-1.93262a3.40061,3.40061,0,0,1,2.11523.77051l-.54687.72852A2.52427,2.52427,0,0,0,43,12.9209c-.85449,0-1.24609.46191-1.24609.98047,0,.64453.74218.88281,1.51269,1.17675.98047.36426,2.07324.77051,2.07324,2.05958,0,1.10644-.88281,2.03027-2.49414,2.03027A4.09949,4.09949,0,0,1,40.31055,18.22949Z" fill="#ccc"/><path d="M48.78125,9.02637v2.71777l-.042,1.40137a3.25285,3.25285,0,0,1,2.26953-1.1211c1.42871,0,2.07226.92481,2.07226,2.66114V19H51.93262V14.83984c0-1.27441-.3916-1.82129-1.28809-1.82129-.70019,0-1.17676.36426-1.86328,1.05079V19H47.63281V9.02637Z" fill="#ccc"/></svg>