<svg xmlns="http://www.w3.org/2000/svg" width="30" height="30" viewBox="0 0 30 30"><title>Write_A_Disabled</title><rect x="0.5" y="0.5" width="29" height="29" rx="2.5" ry="2.5" fill="#333"/><path d="M27,1a2.00228,2.00228,0,0,1,2,2V27a2.00228,2.00228,0,0,1-2,2H3a2.00228,2.00228,0,0,1-2-2V3A2.00228,2.00228,0,0,1,3,1H27m0-1H3A3.00881,3.00881,0,0,0,0,3V27a3.00881,3.00881,0,0,0,3,3H27a3.00881,3.00881,0,0,0,3-3V3a3.00881,3.00881,0,0,0-3-3Z"/><path d="M12.25,9.25v8.5a3.00882,3.00882,0,0,0,3,3h5.5" fill="none" stroke="#000" stroke-miterlimit="10" stroke-width="1.5"/><polyline points="7.75 13 12.25 8.5 16.75 13" fill="none" stroke="#000" stroke-miterlimit="10" stroke-width="1.5"/></svg>