<svg xmlns="http://www.w3.org/2000/svg" viewBox="0 0 595.27559 439.37008"><title>pedal-setup-web</title><rect x="0.25047" y="0.24956" width="594.77539" height="438.87012" rx="1.75" ry="1.75" fill="#202020"/><path d="M593.27562.5a1.5017,1.5017,0,0,1,1.5,1.5V437.3701a1.50168,1.50168,0,0,1-1.5,1.5H2a1.50172,1.50172,0,0,1-1.5-1.5V2A1.50173,1.50173,0,0,1,2,.5H593.27562m0-.5H2A2,2,0,0,0,0,2V437.3701a2,2,0,0,0,2,2H593.27562a2.00006,2.00006,0,0,0,2-2V2a2.00008,2.00008,0,0,0-2-2Z" fill="#363636"/><path d="M472.14732,316.64946V306.39971a5.66925,5.66925,0,0,0-5.66919-5.66932H317.70286a5.66933,5.66933,0,0,1-5.66931-5.66925l-.00018-24.53949" fill="none" stroke="#a9c0fd" stroke-miterlimit="10" stroke-width="1.5"/><polygon points="316.477 273.892 312.033 272.004 307.59 273.892 312.033 263.358 316.477 273.892" fill="#a9c0fd"/><line x1="231.22563" y1="316.64946" x2="231.22563" y2="270.52165" fill="none" stroke="#a9c0fd" stroke-miterlimit="10" stroke-width="1.5"/><polygon points="235.669 273.892 231.226 272.004 226.782 273.892 231.226 263.358 235.669 273.892" fill="#a9c0fd"/><path d="M366.75413,316.64946v-22.297a5.66935,5.66935,0,0,1,5.66931-5.66931H465.978a5.6692,5.6692,0,0,0,5.66919-5.66943l-.00012-12.49207" fill="none" stroke="#a9c0fd" stroke-miterlimit="10" stroke-width="1.5"/><polygon points="476.091 273.892 471.647 272.004 467.203 273.892 471.647 263.358 476.091 273.892" fill="#a9c0fd"/><polyline points="65.203 93.98 359.281 93.98 380.043 73.446" fill="none" stroke="#e9a460" stroke-miterlimit="10" stroke-width="1.5"/><polygon points="380.771 78.976 378.989 74.489 374.522 72.657 385.136 68.409 380.771 78.976" fill="#e9a460"/><polyline points="165.959 189.862 287.632 189.862 287.632 81.921 296.078 73.474" fill="none" stroke="#e9a460" stroke-miterlimit="10" stroke-width="1.5"/><polygon points="296.838 79 295.03 74.523 290.553 72.715 301.144 68.409 296.838 79" fill="#e9a460"/><polyline points="166.242 152.185 207.931 152.185 207.931 81.921 216.378 73.474" fill="none" stroke="#e9a460" stroke-miterlimit="10" stroke-width="1.5"/><polygon points="217.137 79 215.33 74.523 210.852 72.715 221.443 68.409 217.137 79" fill="#e9a460"/><line x1="311.033" y1="214.90142" x2="311.033" y2="75.01247" fill="none" stroke="#e9a460" stroke-miterlimit="10" stroke-width="1.5"/><polygon points="315.477 78.383 311.033 76.495 306.589 78.383 311.033 67.849 315.477 78.383" fill="#e9a460"/><line x1="231.72563" y1="214.90142" x2="231.72563" y2="75.51247" fill="none" stroke="#e9a460" stroke-miterlimit="10" stroke-width="1.5"/><polygon points="236.169 78.883 231.726 76.995 227.282 78.883 231.726 68.349 236.169 78.883" fill="#e9a460"/><line x1="471.64708" y1="214.90142" x2="471.64708" y2="75.51247" fill="none" stroke="#e9a460" stroke-miterlimit="10" stroke-width="1.5"/><polygon points="476.091 78.883 471.647 76.995 467.203 78.883 471.647 68.349 476.091 78.883" fill="#e9a460"/><rect x="193.15748" y="16.42095" width="388.34646" height="48.18898" rx="5" ry="5" fill="#363636" stroke="#4e4e4e" stroke-miterlimit="10"/><path d="M516.48777,16.42095h60.01616a5,5,0,0,1,5,5v38.189a5,5,0,0,1-5,5H516.48777a0,0,0,0,1,0,0v-48.189A0,0,0,0,1,516.48777,16.42095Z" fill="#4e4e4e"/><rect x="193.15748" y="217.30489" width="388.34646" height="42.51969" rx="5" ry="5" fill="#363636" stroke="#4e4e4e" stroke-miterlimit="10"/><path d="M516.48777,217.30489h60.01616a5,5,0,0,1,5,5v32.51969a5,5,0,0,1-5,5H516.48777a0,0,0,0,1,0,0V217.30489A0,0,0,0,1,516.48777,217.30489Z" fill="#4e4e4e"/><path d="M532.80223,236.34233h2.43164c1.91113,0,3.19824.6377,3.19824,2.50977,0,1.79394-1.27441,2.63867-3.14648,2.63867h-1.4043v3.37988h-1.0791Zm2.35351,4.26465c1.48242,0,2.19727-.5459,2.19727-1.75488,0-1.23535-.75391-1.63867-2.249-1.63867h-1.22265V240.607Z" fill="#b0b0b0"/><path d="M539.27684,241.72515a3.04662,3.04662,0,0,1,2.834-3.32813c1.61231,0,2.52148,1.15625,2.52148,2.96387a4.09268,4.09268,0,0,1-.03906.61133h-4.26367a2.09544,2.09544,0,0,0,2.10645,2.19628,2.85348,2.85348,0,0,0,1.57226-.49316l.37695.70117a3.75692,3.75692,0,0,1-2.08007.65039A3.02106,3.02106,0,0,1,539.27684,241.72515Zm4.41992-.52051c0-1.27344-.57227-1.96289-1.56055-1.96289a1.95073,1.95073,0,0,0-1.81933,1.96289Z" fill="#b0b0b0"/><path d="M545.73777,241.72515c0-2.05469,1.29981-3.32813,2.74317-3.32813a2.60129,2.60129,0,0,1,1.76758.72754l-.05176-1.0791v-2.43067h1.0791v9.25586h-.88379l-.09082-.74121h-.03906a2.84892,2.84892,0,0,1-1.91114.89746C546.76512,245.0269,545.73777,243.83061,545.73777,241.72515Zm4.459,1.53418v-3.30274a2.20109,2.20109,0,0,0-1.53418-.66309c-1.01367,0-1.81934.97559-1.81934,2.418,0,1.50879.63672,2.418,1.74121,2.418A2.13706,2.13706,0,0,0,550.19676,243.25933Z" fill="#b0b0b0"/><path d="M553.01805,243.233c0-1.37793,1.18261-2.06738,3.874-2.36621,0-.80567-.26074-1.58594-1.30078-1.58594a3.43684,3.43684,0,0,0-1.88477.67578l-.416-.74121a4.689,4.689,0,0,1,2.4834-.81836c1.54687,0,2.19726,1.02637,2.19726,2.59961v3.874h-.88476l-.09082-.7539h-.03907a3.36857,3.36857,0,0,1-2.09277.91015A1.71915,1.71915,0,0,1,553.01805,243.233Zm3.874.09082V241.5689c-2.10644.25976-2.834.78027-2.834,1.58593,0,.71485.49316,1.01367,1.11718,1.01367A2.56257,2.56257,0,0,0,556.89207,243.32378Z" fill="#b0b0b0"/><path d="M559.95945,243.59722v-7.98243h1.06641v8.06055c0,.33789.14258.46777.29883.46777a.879.879,0,0,0,.2334-.02636l.14355.80664a1.44806,1.44806,0,0,1-.61133.10351C560.28465,245.0269,559.95945,244.52007,559.95945,243.59722Z" fill="#b0b0b0"/><path d="M562.57273,244.15581l.53223-.71484a2.84035,2.84035,0,0,0,1.85938.7539c.832,0,1.248-.44238,1.248-.98828,0-.64941-.7539-.93555-1.44336-1.19531-.89648-.3252-1.88476-.75488-1.88476-1.82031,0-1.01465.80566-1.79395,2.1709-1.79395a3.14836,3.14836,0,0,1,1.96289.71484l-.50684.67579a2.34319,2.34319,0,0,0-1.44238-.5586c-.79395,0-1.15723.42871-1.15723.91016,0,.59765.68848.81836,1.40332,1.09179.91016.3379,1.92481.71485,1.92481,1.91114,0,1.02636-.81934,1.88476-2.31446,1.88476A3.80138,3.80138,0,0,1,562.57273,244.15581Z" fill="#b0b0b0"/><path d="M534.13523,28.03179H535.436l1.63769,4.5498c.208.585.40332,1.19629.61133,1.78125h.05176c.208-.585.37695-1.19629.585-1.78125l1.6123-4.5498h1.3125v8.52832h-1.01367V31.86675c0-.75391.09082-1.76856.14258-2.52246h-.05176l-.67578,1.9375-1.6123,4.41992h-.71485l-1.6123-4.41992-.67578-1.9375h-.05176c.05176.7539.12988,1.76855.12988,2.52246v4.69336h-.97559Z" fill="#b0b0b0"/><path d="M543.09227,34.92143c0-1.37793,1.18261-2.0664,3.874-2.36621,0-.80566-.25977-1.58593-1.29981-1.58593a3.42442,3.42442,0,0,0-1.88476.67675l-.416-.74121a4.6886,4.6886,0,0,1,2.48243-.81933c1.54687,0,2.19726,1.02734,2.19726,2.60058v3.874h-.88379l-.09082-.75391h-.03906a3.37769,3.37769,0,0,1-2.09375.90918A1.71863,1.71863,0,0,1,543.09227,34.92143Zm3.874.0918V33.25737c-2.10645.26074-2.834.78028-2.834,1.58594,0,.71582.49415,1.01465,1.11817,1.01465A2.56054,2.56054,0,0,0,546.96629,35.01323Z" fill="#b0b0b0"/><path d="M549.56688,33.41362a3.0599,3.0599,0,0,1,3.042-3.32812,2.621,2.621,0,0,1,1.8457.74121l-.5459.70215a1.85264,1.85264,0,0,0-1.26074-.55957c-1.14453,0-1.97656.98828-1.97656,2.44433,0,1.44336.793,2.418,1.95019,2.418a2.24959,2.24959,0,0,0,1.48242-.63672l.46778.71485a3.0833,3.0833,0,0,1-2.041.80566C550.854,36.71538,549.56688,35.5064,549.56688,33.41362Z" fill="#b0b0b0"/><path d="M555.96238,30.24175h.88379l.09082,1.14355h.03906A2.16188,2.16188,0,0,1,558.77,30.0855a1.57418,1.57418,0,0,1,.67676.12988l-.208.93652a1.76089,1.76089,0,0,0-.61133-.10449c-.5332,0-1.16992.39063-1.59961,1.45606v4.05664h-1.06543Z" fill="#b0b0b0"/><path d="M559.87547,33.41362a2.94924,2.94924,0,1,1,5.84961,0,2.94632,2.94632,0,1,1-5.84961,0Zm4.74512,0c0-1.45605-.72852-2.44433-1.82032-2.44433-1.0791,0-1.82031.98828-1.82031,2.44433,0,1.44336.74121,2.418,1.82031,2.418C563.89207,35.83159,564.62059,34.857,564.62059,33.41362Z" fill="#b0b0b0"/><path d="M527.23875,47.29546c0-2.74317,1.6123-4.41992,3.7832-4.41992a3.115,3.115,0,0,1,2.34082,1.05273l-.585.70215a2.33363,2.33363,0,0,0-1.74218-.80567c-1.61231,0-2.67872,1.32618-2.67872,3.44532,0,2.14453,1.02735,3.49707,2.63965,3.49707a2.57409,2.57409,0,0,0,1.97559-.96192l.59863.67578a3.30072,3.30072,0,0,1-2.61328,1.23438C528.82566,51.71538,527.23875,50.07768,527.23875,47.29546Z" fill="#b0b0b0"/><path d="M534.58445,48.41362a2.94924,2.94924,0,1,1,5.84961,0,2.94632,2.94632,0,1,1-5.84961,0Zm4.74512,0c0-1.45605-.72852-2.44433-1.82031-2.44433-1.0791,0-1.82031.98828-1.82031,2.44433,0,1.44336.74121,2.418,1.82031,2.418C538.60105,50.83159,539.32957,49.857,539.32957,48.41362Z" fill="#b0b0b0"/><path d="M542.09813,45.24175h.88378l.09082.91015h.03907a2.97749,2.97749,0,0,1,2.11914-1.0664c1.32617,0,1.92383.8584,1.92383,2.46972v4.00489h-1.06543V47.69878c0-1.1836-.36426-1.69043-1.19629-1.69043-.65039,0-1.0918.33789-1.7295.97558v4.57618h-1.06542Z" fill="#b0b0b0"/><path d="M549.39109,49.60991V46.11284h-.93554V45.3062l.9873-.06445.13086-1.76856h.89649v1.76856h1.70312v.87109H550.4702v3.50977c0,.78027.24707,1.22265.97558,1.22265a2.29425,2.29425,0,0,0,.71485-.16992l.208.80664a3.89913,3.89913,0,0,1-1.16992.2334C549.84617,51.71538,549.39109,50.858,549.39109,49.60991Z" fill="#b0b0b0"/><path d="M553.603,45.24175h.88379l.09082,1.14355h.03906a2.16186,2.16186,0,0,1,1.79395-1.2998,1.57413,1.57413,0,0,1,.67675.12988l-.208.93652a1.76093,1.76093,0,0,0-.61133-.10449c-.53321,0-1.16992.39063-1.59961,1.45606v4.05664H553.603Z" fill="#b0b0b0"/><path d="M557.51609,48.41362a2.94924,2.94924,0,1,1,5.84961,0,2.94632,2.94632,0,1,1-5.84961,0Zm4.74512,0c0-1.45605-.72851-2.44433-1.82031-2.44433-1.0791,0-1.82031.98828-1.82031,2.44433,0,1.44336.74121,2.418,1.82031,2.418C561.5327,50.83159,562.26121,49.857,562.26121,48.41362Z" fill="#b0b0b0"/><path d="M565.02977,50.28569V42.30327h1.06543v8.06055c0,.33789.14355.46777.2998.46777a.9151.9151,0,0,0,.2334-.02539l.14355.80566a1.43264,1.43264,0,0,1-.61132.10352C565.355,51.71538,565.02977,51.20854,565.02977,50.28569Z" fill="#b0b0b0"/><path d="M567.64207,50.84526l.5332-.71582a2.84031,2.84031,0,0,0,1.85938.75391c.832,0,1.248-.44141,1.248-.98731,0-.65039-.75391-.93652-1.44336-1.19629-.89649-.32519-1.88477-.7539-1.88477-1.82031,0-1.01367.80566-1.79394,2.1709-1.79394a3.154,3.154,0,0,1,1.96289.71484l-.50684.67676a2.34466,2.34466,0,0,0-1.44336-.55957c-.793,0-1.15625.42871-1.15625.91015,0,.59766.68848.81934,1.40332,1.0918.91016.33789,1.92481.71485,1.92481,1.91113,0,1.02735-.81934,1.88477-2.31445,1.88477A3.80915,3.80915,0,0,1,567.64207,50.84526Z" fill="#b0b0b0"/><path d="M291.68113,29.773c0-2.95606,1.73731-4.7627,4.07617-4.7627a3.35439,3.35439,0,0,1,2.52149,1.13379l-.62988.75684a2.51092,2.51092,0,0,0-1.87793-.86817c-1.73633,0-2.88477,1.42871-2.88477,3.71192,0,2.31152,1.10645,3.76757,2.84277,3.76757a2.77329,2.77329,0,0,0,2.12989-1.03613l.64453.72852a3.55759,3.55759,0,0,1-2.81641,1.33008C293.39012,34.53472,291.68113,32.77007,291.68113,29.773Z" fill="#e4e4e4"/><path d="M299.59129,30.9771c0-2.2832,1.48437-3.58594,3.15137-3.58594S305.895,28.6939,305.895,30.9771a3.175,3.175,0,1,1-6.30371,0Zm5.11328,0c0-1.56836-.78516-2.63379-1.96191-2.63379-1.16211,0-1.96094,1.06543-1.96094,2.63379,0,1.55469.79883,2.60547,1.96094,2.60547C303.91941,33.58257,304.70457,32.53179,304.70457,30.9771Z" fill="#e4e4e4"/><path d="M307.68309,32.99468V24.39409h1.14941v8.68457c0,.36426.15332.50391.32227.50391a.95618.95618,0,0,0,.252-.02832l.15332.86914a1.55469,1.55469,0,0,1-.6582.11133C308.03367,34.53472,307.68309,33.98882,307.68309,32.99468Z" fill="#e4e4e4"/><path d="M310.74949,30.9771c0-2.2832,1.48438-3.58594,3.15137-3.58594s3.15137,1.30274,3.15137,3.58594a3.17457,3.17457,0,1,1-6.30274,0Zm5.11231,0c0-1.56836-.78418-2.63379-1.96094-2.63379-1.16309,0-1.96094,1.06543-1.96094,2.63379,0,1.55469.79785,2.60547,1.96094,2.60547C315.07762,33.58257,315.8618,32.53179,315.8618,30.9771Z" fill="#e4e4e4"/><path d="M318.84129,27.55913h.95215l.09863,1.23242h.042a2.32693,2.32693,0,0,1,1.93262-1.40039,1.682,1.682,0,0,1,.72852.14063l-.22364,1.00781a1.92876,1.92876,0,0,0-.65918-.11133c-.57422,0-1.26074.41992-1.72265,1.56836v4.37012h-1.14844Z" fill="#e4e4e4"/><path d="M325.91063,33.68022c2.68945-2.6748,4.20214-4.28613,4.20214-5.72851a1.58283,1.58283,0,0,0-1.69433-1.751,2.63339,2.63339,0,0,0-1.90528,1.07813l-.6582-.65821a3.50573,3.50573,0,0,1,2.70313-1.3584,2.48224,2.48224,0,0,1,2.67578,2.63282c0,1.68164-1.52735,3.34863-3.64258,5.56152.49023-.042,1.03711-.084,1.499-.084h2.5918v.99414h-5.77148Z" fill="#e4e4e4"/><path d="M302.979,49.31108a8.6614,8.6614,0,1,1,8.67188,8.25489A8.46568,8.46568,0,0,1,302.979,49.31108Zm5.79883,4.49805h3.23731c2.05371,0,3.58789-.88379,3.58789-2.75586a2.142,2.142,0,0,0-1.78125-2.22363v-.05176a2.14973,2.14973,0,0,0,1.2998-2.041c0-1.71582-1.417-2.31445-3.35351-2.31445h-2.99024Zm4.70606-6.8252c0-.92285-.61133-1.26074-1.833-1.26074H310.4282v2.57324h1.19629C312.9243,48.29643,313.48387,47.7769,313.48387,46.98393Zm-3.05567,5.5254V49.54448h1.4043c1.417,0,2.1582.42969,2.1582,1.417,0,1.05371-.78027,1.54786-2.1582,1.54786Z" fill="#e4e4e4"/><path d="M308.71141,233.61382c2.68945-2.67578,4.20312-4.28614,4.20312-5.72949a1.58309,1.58309,0,0,0-1.69531-1.751,2.63493,2.63493,0,0,0-1.90527,1.0791l-.65821-.6582a3.50822,3.50822,0,0,1,2.70313-1.35938,2.48248,2.48248,0,0,1,2.67578,2.63379c0,1.68067-1.52637,3.34766-3.6416,5.56055.49023-.042,1.03613-.084,1.499-.084h2.59082v.99512h-5.77148Z" fill="#e4e4e4"/><path d="M211.77684,29.773c0-2.95606,1.73632-4.7627,4.07617-4.7627a3.35768,3.35768,0,0,1,2.52148,1.13379l-.63086.75684a2.51039,2.51039,0,0,0-1.87695-.86817c-1.7373,0-2.88574,1.42871-2.88574,3.71192,0,2.31152,1.10644,3.76757,2.84375,3.76757a2.76982,2.76982,0,0,0,2.1289-1.03613l.64454.72852a3.55706,3.55706,0,0,1-2.81543,1.33008C213.48582,34.53472,211.77684,32.77007,211.77684,29.773Z" fill="#e4e4e4"/><path d="M219.687,30.9771c0-2.2832,1.48438-3.58594,3.15137-3.58594s3.15137,1.30274,3.15137,3.58594a3.17457,3.17457,0,1,1-6.30274,0Zm5.11231,0c0-1.56836-.78418-2.63379-1.96094-2.63379-1.16309,0-1.96094,1.06543-1.96094,2.63379,0,1.55469.79785,2.60547,1.96094,2.60547C224.01512,33.58257,224.7993,32.53179,224.7993,30.9771Z" fill="#e4e4e4"/><path d="M227.77879,32.99468V24.39409h1.14844v8.68457c0,.36426.15429.50391.32226.50391a.95248.95248,0,0,0,.252-.02832l.15429.86914a1.561,1.561,0,0,1-.6582.11133C228.12938,34.53472,227.77879,33.98882,227.77879,32.99468Z" fill="#e4e4e4"/><path d="M230.84422,30.9771c0-2.2832,1.48535-3.58594,3.15137-3.58594,1.667,0,3.15234,1.30274,3.15234,3.58594a3.175,3.175,0,1,1-6.30371,0Zm5.11328,0c0-1.56836-.78516-2.63379-1.96191-2.63379-1.16211,0-1.96094,1.06543-1.96094,2.63379,0,1.55469.79883,2.60547,1.96094,2.60547C235.17234,33.58257,235.9575,32.53179,235.9575,30.9771Z" fill="#e4e4e4"/><path d="M238.936,27.55913h.95312l.09766,1.23242h.042a2.32949,2.32949,0,0,1,1.93359-1.40039,1.68489,1.68489,0,0,1,.72852.14063l-.22461,1.00781a1.91883,1.91883,0,0,0-.6582-.11133c-.57422,0-1.26075.41992-1.72266,1.56836v4.37012H238.936Z" fill="#e4e4e4"/><path d="M246.55223,33.4146h2.04492v-6.584h-1.625v-.74218a5.31376,5.31376,0,0,0,1.8916-.65821h.88184V33.4146h1.84961v.95215h-5.043Z" fill="#e4e4e4"/><path d="M223.07469,49.31108a8.6614,8.6614,0,1,1,8.6709,8.25489A8.4648,8.4648,0,0,1,223.07469,49.31108Zm4.667,4.49805h1.69043l.74121-2.54785h3.14551l.72851,2.54785h1.75489l-3.05567-9.38672h-1.94922Zm5.2002-3.84863-.3252-1.14356c-.28613-.98828-.57129-2.06738-.84473-3.09375h-.05175c-.26075,1.04-.5459,2.10547-.832,3.09375l-.33789,1.14356Z" fill="#e4e4e4"/><path d="M229.353,233.34722h2.0459v-6.583h-1.625V226.022a5.31317,5.31317,0,0,0,1.8916-.65918h.88183v7.98438H234.396v.95312h-5.043Z" fill="#e4e4e4"/><path d="M362.78758,25.17827h2.61914c2.05957,0,3.44629.68652,3.44629,2.70313,0,1.93359-1.373,2.84375-3.38965,2.84375h-1.5127v3.6416h-1.16308Zm2.53515,4.59473c1.59766,0,2.36719-.58887,2.36719-1.8916,0-1.33106-.81152-1.76465-2.42285-1.76465h-1.31641V29.773Z" fill="#e4e4e4"/><path d="M370.38914,25.41655a.80046.80046,0,1,1,.79883.74219A.75294.75294,0,0,1,370.38914,25.41655Zm.21,2.14258h1.14942v6.80762H370.5991Z" fill="#e4e4e4"/><path d="M374.23973,32.26616V28.49761h-1.00879v-.86817l1.06445-.07031.14063-1.90527h.96582v1.90527h1.835v.93848h-1.835v3.78222c0,.84082.2666,1.31641,1.05078,1.31641a2.477,2.477,0,0,0,.77051-.18164l.22363.86816a4.19959,4.19959,0,0,1-1.25977.252C374.73,34.53472,374.23973,33.61089,374.23973,32.26616Z" fill="#e4e4e4"/><path d="M378.07566,30.9771a3.29674,3.29674,0,0,1,3.27735-3.58594,2.82539,2.82539,0,0,1,1.98926.79883l-.58887.75586a1.99789,1.99789,0,0,0-1.3584-.60254c-1.23242,0-2.12891,1.06543-2.12891,2.63379,0,1.55469.8545,2.60547,2.10059,2.60547a2.42327,2.42327,0,0,0,1.59766-.68653l.5039.77051a3.32231,3.32231,0,0,1-2.19922.86817C379.46238,34.53472,378.07566,33.232,378.07566,30.9771Z" fill="#e4e4e4"/><path d="M384.96336,24.39409h1.14844v2.7168l-.042,1.40136a3.25292,3.25292,0,0,1,2.26954-1.12109c1.42871,0,2.07324.92481,2.07324,2.66113v4.31446h-1.14942V30.20659c0-1.27441-.3916-1.82129-1.28808-1.82129-.7002,0-1.17676.36426-1.86328,1.05078v4.93067h-1.14844Z" fill="#e4e4e4"/><path d="M393.644,33.66655h-.042l-.09765.7002h-.92481V24.39409H393.728v2.7168l-.02832,1.23242a3.36818,3.36818,0,0,1,2.12988-.95215c1.76465,0,2.70313,1.3584,2.70313,3.46,0,2.3252-1.38672,3.6836-2.94141,3.6836A3.0526,3.0526,0,0,1,393.644,33.66655Zm3.69825-2.80176c0-1.498-.50489-2.50683-1.793-2.50683a2.81031,2.81031,0,0,0-1.82129.92383v3.57226a2.66461,2.66461,0,0,0,1.667.71485C396.51609,33.5689,397.34227,32.54643,397.34227,30.86479Z" fill="#e4e4e4"/><path d="M399.81688,30.9771a3.28306,3.28306,0,0,1,3.05371-3.58594c1.7373,0,2.71777,1.24707,2.71777,3.19336a4.56784,4.56784,0,0,1-.042.65918h-4.59473a2.25831,2.25831,0,0,0,2.26953,2.36719,3.07461,3.07461,0,0,0,1.69434-.53223l.40625.75586a4.05422,4.05422,0,0,1-2.24121.7002A3.25463,3.25463,0,0,1,399.81688,30.9771Zm4.76269-.56055c0-1.37207-.61621-2.11523-1.68066-2.11523a2.10186,2.10186,0,0,0-1.96094,2.11523Z" fill="#e4e4e4"/><path d="M407.26512,27.55913h.95215l.09863.98047h.042a3.20838,3.20838,0,0,1,2.2832-1.14844c1.42871,0,2.07325.92481,2.07325,2.66113v4.31446h-1.14942V30.20659c0-1.27441-.3916-1.82129-1.28808-1.82129-.7002,0-1.17676.36426-1.86329,1.05078v4.93067h-1.14843Z" fill="#e4e4e4"/><path d="M414.43211,30.9771c0-2.21289,1.40137-3.58594,2.95605-3.58594a2.80617,2.80617,0,0,1,1.90528.78418l-.05664-1.16211V24.39409h1.16308v9.97266h-.95312l-.09766-.79785h-.042a3.0737,3.0737,0,0,1-2.05957.96582C415.53953,34.53472,414.43211,33.24663,414.43211,30.9771Zm4.80469,1.65332V29.07183a2.3714,2.3714,0,0,0-1.65235-.71387c-1.09277,0-1.96093,1.05078-1.96093,2.60547,0,1.625.68554,2.60547,1.877,2.60547A2.30394,2.30394,0,0,0,419.2368,32.63042Z" fill="#e4e4e4"/><path d="M382.88426,49.31108a8.6614,8.6614,0,1,1,8.67187,8.25489A8.46567,8.46567,0,0,1,382.88426,49.31108Zm11.88281,3.30176-.89746-1.04a2.63528,2.63528,0,0,1-2.002.94922c-1.57325,0-2.57422-1.28711-2.57422-3.41894,0-2.10645,1.0791-3.39356,2.61328-3.39356a2.43731,2.43731,0,0,1,1.78125.80664l.88379-1.06641a3.69619,3.69619,0,0,0-2.7041-1.19628c-2.36621,0-4.29,1.82031-4.29,4.88867,0,3.10644,1.87207,4.83594,4.23828,4.83594A3.81164,3.81164,0,0,0,394.76707,52.61284Z" fill="#e4e4e4"/><path d="M388.42039,233.20757l.58887-.75684a3.03263,3.03263,0,0,0,2.2832,1.06445,1.66533,1.66533,0,0,0,1.84863-1.63867c0-1.06445-.72851-1.77832-2.85742-1.77832v-.88281c1.90528,0,2.53516-.72852,2.53516-1.667a1.37572,1.37572,0,0,0-1.541-1.415,2.70934,2.70934,0,0,0-1.90429.91113l-.61719-.72851a3.68163,3.68163,0,0,1,2.56347-1.1211c1.55567,0,2.67579.82715,2.67579,2.26953a2.215,2.215,0,0,1-1.625,2.12891V229.65a2.30538,2.30538,0,0,1,1.93359,2.26855,2.64925,2.64925,0,0,1-2.94238,2.54981A3.79768,3.79768,0,0,1,388.42039,233.20757Z" fill="#e4e4e4"/><path d="M441.46043,33.17632l.7002-.8125a3.598,3.598,0,0,0,2.53515,1.14843c1.20508,0,1.91895-.60156,1.91895-1.498,0-.93946-.65821-1.2334-1.52637-1.625L443.771,29.815a2.58315,2.58315,0,0,1-1.86231-2.36816,2.61019,2.61019,0,0,1,2.88574-2.43653,3.81369,3.81369,0,0,1,2.7168,1.13379l-.62988.75684a2.93181,2.93181,0,0,0-2.08692-.86817c-1.02343,0-1.709.51758-1.709,1.34473,0,.88184.79785,1.21875,1.52637,1.52637l1.30273.56054a2.55771,2.55771,0,0,1,1.89063,2.45118c0,1.457-1.19043,2.61914-3.123,2.61914A4.45516,4.45516,0,0,1,441.46043,33.17632Z" fill="#e4e4e4"/><path d="M449.39891,31.87358V27.55913H450.561v4.16016c0,1.27539.37793,1.82129,1.27441,1.82129.70117,0,1.19141-.35059,1.835-1.14844v-4.833h1.14941v6.80762h-.95312l-.09766-1.06446h-.042a2.87876,2.87876,0,0,1-2.24121,1.23243C450.04246,34.53472,449.39891,33.61089,449.39891,31.87358Z" fill="#e4e4e4"/><path d="M456.35594,33.59624l.57422-.77051a3.05876,3.05876,0,0,0,2.00293.8125c.89648,0,1.34472-.47558,1.34472-1.06445,0-.7002-.8125-1.00781-1.55468-1.28809-.9668-.35058-2.03125-.8125-2.03125-1.96094,0-1.09277.86816-1.93359,2.33984-1.93359a3.39558,3.39558,0,0,1,2.11426.77051l-.5459.72851a2.52432,2.52432,0,0,0-1.55469-.60253c-.85449,0-1.24707.46191-1.24707.98046,0,.64454.74316.88282,1.5127,1.17676.98046.36426,2.07324.77051,2.07324,2.05957,0,1.10645-.88184,2.03028-2.49317,2.03028A4.0973,4.0973,0,0,1,456.35594,33.59624Z" fill="#e4e4e4"/><path d="M462.894,32.26616V28.49761h-1.00781v-.86817l1.06445-.07031.13965-1.90527h.9668v1.90527h1.835v.93848h-1.835v3.78222c0,.84082.26562,1.31641,1.05078,1.31641a2.471,2.471,0,0,0,.76953-.18164l.22461.86816a4.20585,4.20585,0,0,1-1.26074.252C463.38426,34.53472,462.894,33.61089,462.894,32.26616Z" fill="#e4e4e4"/><path d="M470.34227,25.17827h2.61914c2.05957,0,3.44629.68652,3.44629,2.70313,0,1.93359-1.373,2.84375-3.38965,2.84375h-1.5127v3.6416h-1.16308Zm2.53515,4.59473c1.59766,0,2.36817-.58887,2.36817-1.8916,0-1.33106-.8125-1.76465-2.42383-1.76465h-1.31641V29.773Z" fill="#e4e4e4"/><path d="M477.314,30.9771a3.28306,3.28306,0,0,1,3.05371-3.58594c1.7373,0,2.71777,1.24707,2.71777,3.19336a4.56784,4.56784,0,0,1-.042.65918h-4.59473a2.25831,2.25831,0,0,0,2.26953,2.36719,3.07461,3.07461,0,0,0,1.69434-.53223l.40625.75586a4.05422,4.05422,0,0,1-2.24121.7002A3.25463,3.25463,0,0,1,477.314,30.9771Zm4.76269-.56055c0-1.37207-.61621-2.11523-1.68066-2.11523a2.10186,2.10186,0,0,0-1.96094,2.11523Z" fill="#e4e4e4"/><path d="M484.272,30.9771c0-2.21289,1.40039-3.58594,2.95508-3.58594a2.80428,2.80428,0,0,1,1.90527.78418l-.05566-1.16211V24.39409h1.16211v9.97266h-.95215l-.09765-.79785h-.042a3.07573,3.07573,0,0,1-2.05957.96582C485.3784,34.53472,484.272,33.24663,484.272,30.9771Zm4.80469,1.65332V29.07183a2.3718,2.3718,0,0,0-1.65332-.71387c-1.09277,0-1.96094,1.05078-1.96094,2.60547,0,1.625.68653,2.60547,1.877,2.60547A2.30567,2.30567,0,0,0,489.07664,32.63042Z" fill="#e4e4e4"/><path d="M492.1118,32.6021c0-1.48438,1.27441-2.22754,4.1748-2.54981,0-.86816-.28027-1.709-1.40137-1.709a3.70207,3.70207,0,0,0-2.03125.72852l-.44824-.79786a5.05486,5.05486,0,0,1,2.67578-.88281c1.667,0,2.36719,1.10645,2.36719,2.80176v4.17383h-.95215l-.09863-.8125h-.042a3.63153,3.63153,0,0,1-2.25489.98047A1.85216,1.85216,0,0,1,492.1118,32.6021Zm4.1748.09765V30.80913c-2.26953.28027-3.05371.84082-3.05371,1.709,0,.77051.53223,1.09278,1.2041,1.09278A2.76124,2.76124,0,0,0,496.2866,32.69975Z" fill="#e4e4e4"/><path d="M499.58738,32.99468V24.39409h1.14942v8.68457c0,.36426.15332.50391.32226.50391a.9562.9562,0,0,0,.252-.02832l.15429.86914a1.56291,1.56291,0,0,1-.65918.11133C499.938,34.53472,499.58738,33.98882,499.58738,32.99468Z" fill="#e4e4e4"/><path d="M462.78953,49.31108a8.6614,8.6614,0,1,1,8.6709,8.25489A8.4648,8.4648,0,0,1,462.78953,49.31108Zm5.78516,4.49805h2.58691c2.78223,0,4.47266-1.625,4.47266-4.73242,0-3.09375-1.69043-4.6543-4.55078-4.6543h-2.50879Zm5.35644-4.73242c0-2.30078-1.0791-3.30176-2.96484-3.30176h-.72754v6.68164h.72754C472.852,52.45659,473.93113,51.37749,473.93113,49.07671Z" fill="#e4e4e4"/><path d="M472.21922,231.83452h-4.01953v-.75586l3.82324-5.71582H473.312v5.54785h1.21875v.92383H473.312v2.46582h-1.09277Zm0-.92383V228.3189c0-.47657.042-1.24707.07031-1.72266h-.05566c-.22461.43359-.47657.82617-.72852,1.26074l-2.08789,3.05371Z" fill="#e4e4e4"/><path d="M21.04246,209.15h2.665c1.74219,0,2.99023.624,2.99023,2.3916a2.32855,2.32855,0,0,1-1.92382,2.418l2.17089,3.71875H25.72215l-2.05371-3.60156H22.12156v3.60156h-1.0791Zm2.50879,4.043c1.32617,0,2.06738-.5459,2.06738-1.65137,0-1.11816-.74121-1.52051-2.06738-1.52051H22.12156v3.17188Z" fill="#b0b0b0"/><path d="M28.14012,209.37065a.74315.74315,0,0,1,1.48242,0,.74315.74315,0,0,1-1.48242,0Zm.19531,1.98926h1.06641v6.31836H28.33543Z" fill="#b0b0b0"/><path d="M32.521,217.02788h-.03907l-.09082.65039H31.5327v-9.25684h1.0664v2.52247l-.02637,1.14355a3.12411,3.12411,0,0,1,1.97657-.88379c1.63769,0,2.50879,1.26074,2.50879,3.21094,0,2.1582-1.28711,3.41894-2.7295,3.41894A2.83475,2.83475,0,0,1,32.521,217.02788Zm3.43261-2.59961c0-1.3916-.46875-2.32715-1.66406-2.32715a2.60547,2.60547,0,0,0-1.69043.85742V216.274a2.46939,2.46939,0,0,0,1.54688.66309C35.186,216.93706,35.95359,215.98784,35.95359,214.42827Z" fill="#b0b0b0"/><path d="M39.71043,217.02788h-.03906l-.09082.65039h-.8584v-9.25684h1.0664v2.52247l-.02636,1.14355a3.12387,3.12387,0,0,1,1.97558-.88379c1.63868,0,2.50977,1.26074,2.50977,3.21094,0,2.1582-1.28711,3.41894-2.73047,3.41894A2.83036,2.83036,0,0,1,39.71043,217.02788Zm3.43164-2.59961c0-1.3916-.46777-2.32715-1.66406-2.32715a2.60347,2.60347,0,0,0-1.68946.85742V216.274a2.46939,2.46939,0,0,0,1.54688.66309C42.37547,216.93706,43.14207,215.98784,43.14207,214.42827Z" fill="#b0b0b0"/><path d="M45.44285,214.53179a2.94676,2.94676,0,1,1,2.92481,3.30175A3.01918,3.01918,0,0,1,45.44285,214.53179Zm4.74512,0c0-1.45606-.72754-2.44434-1.82031-2.44434-1.07813,0-1.81934.98828-1.81934,2.44434,0,1.44336.74121,2.418,1.81934,2.418C49.46043,216.94975,50.188,215.97515,50.188,214.53179Z" fill="#b0b0b0"/><path d="M52.95652,211.35991h.88477l.09082.91016h.03906a2.97568,2.97568,0,0,1,2.11914-1.06641c1.32617,0,1.92383.8584,1.92383,2.46973v4.00488H56.94773v-3.86133c0-1.18359-.36328-1.69043-1.19531-1.69043-.65039,0-1.09277.33789-1.72949.97559v4.57617H52.95652Z" fill="#b0b0b0"/><path d="M59.3657,216.96343l.53321-.71582a2.8383,2.8383,0,0,0,1.85937.7539c.832,0,1.248-.4414,1.248-.9873,0-.65039-.75488-.93653-1.44336-1.19629-.89746-.3252-1.88477-.75391-1.88477-1.82031,0-1.01368.80567-1.79395,2.1709-1.79395a3.1563,3.1563,0,0,1,1.96289.71484l-.50683.67676a2.34921,2.34921,0,0,0-1.44336-.55957c-.793,0-1.15723.42871-1.15723.91016,0,.59765.68945.81933,1.4043,1.0918.91015.33789,1.92383.71484,1.92383,1.91113,0,1.02734-.81836,1.88476-2.31348,1.88476A3.807,3.807,0,0,1,59.3657,216.96343Z" fill="#b0b0b0"/><path d="M20.888,137.99984H161.203a1.41732,1.41732,0,0,1,1.41732,1.41732v22.67717a1.41732,1.41732,0,0,1-1.41732,1.41732H20.888a0,0,0,0,1,0,0V137.99984A0,0,0,0,1,20.888,137.99984Z" fill="#606060" stroke="#666" stroke-miterlimit="10" stroke-width="2"/><path d="M20.888,137.99984H161.203a1.41732,1.41732,0,0,1,1.41732,1.41732v9.92126a0,0,0,0,1,0,0H20.888a0,0,0,0,1,0,0V137.99984A0,0,0,0,1,20.888,137.99984Z"/><path d="M20.888,175.49984H161.203a1.41732,1.41732,0,0,1,1.41732,1.41732v22.67717a1.41732,1.41732,0,0,1-1.41732,1.41732H20.888a0,0,0,0,1,0,0V175.49984A0,0,0,0,1,20.888,175.49984Z" fill="#606060" stroke="#666" stroke-miterlimit="10" stroke-width="2"/><path d="M20.888,175.49984H161.203a1.41732,1.41732,0,0,1,1.41732,1.41732v9.92126a0,0,0,0,1,0,0H20.888a0,0,0,0,1,0,0V175.49984A0,0,0,0,1,20.888,175.49984Z"/><path d="M19.97508,112.42534h2.53515c1.7295,0,2.92579.585,2.92579,2.08008a1.86564,1.86564,0,0,1-1.248,1.85937v.05176a1.9613,1.9613,0,0,1,1.74121,2.041c0,1.67676-1.3252,2.49609-3.23633,2.49609H19.97508Zm2.34082,3.62695c1.45605,0,2.05371-.5332,2.05371-1.40429,0-.98828-.67578-1.36524-2.002-1.36524H21.05418v2.76953Zm.2207,4.043c1.46875,0,2.32715-.5332,2.32715-1.67676,0-1.05371-.832-1.53417-2.32715-1.53417H21.05418v3.21093Z" fill="#b0b0b0"/><path d="M27.04734,117.80815a3.04663,3.04663,0,0,1,2.834-3.32812c1.6123,0,2.52246,1.15625,2.52246,2.96289a4.08489,4.08489,0,0,1-.03906.61133H28.10008a2.0957,2.0957,0,0,0,2.10644,2.19726,2.85757,2.85757,0,0,0,1.57325-.49414l.377.70215a3.76445,3.76445,0,0,1-2.08008.64941A3.02041,3.02041,0,0,1,27.04734,117.80815Zm4.41993-.5205c0-1.27442-.57129-1.96387-1.55957-1.96387a1.9525,1.9525,0,0,0-1.82032,1.96387Z" fill="#b0b0b0"/><path d="M33.96336,114.6353h.88379l.09082.91016H34.977A2.97642,2.97642,0,0,1,37.09617,114.48c1.32617,0,1.92383.85742,1.92383,2.46875v4.00488H37.95457v-3.86133c0-1.18261-.36426-1.69043-1.19629-1.69043-.65039,0-1.0918.33789-1.72949.97559v4.57617H33.96336Z" fill="#b0b0b0"/><path d="M40.61863,117.80815c0-2.05468,1.30078-3.32812,2.74317-3.32812a2.60364,2.60364,0,0,1,1.76855.72754l-.05176-1.0791v-2.43164H46.1577v9.25683h-.88477l-.09082-.74121h-.03906a2.85222,2.85222,0,0,1-1.91114.89648C41.646,121.10893,40.61863,119.91362,40.61863,117.80815Zm4.46,1.53321V116.0396a2.19846,2.19846,0,0,0-1.53418-.66309c-1.01464,0-1.82031.97461-1.82031,2.418,0,1.50781.63672,2.418,1.74219,2.418A2.13684,2.13684,0,0,0,45.07859,119.34136Z" fill="#b0b0b0"/><path d="M47.82078,117.80815a3.04662,3.04662,0,0,1,2.834-3.32812c1.6123,0,2.52246,1.15625,2.52246,2.96289a4.08343,4.08343,0,0,1-.03907.61133H48.87352A2.0957,2.0957,0,0,0,50.98,120.25151a2.85751,2.85751,0,0,0,1.57324-.49414l.377.70215a3.76445,3.76445,0,0,1-2.08008.64941A3.02041,3.02041,0,0,1,47.82078,117.80815Zm4.41992-.5205c0-1.27442-.57129-1.96387-1.55957-1.96387a1.95248,1.95248,0,0,0-1.82031,1.96387Z" fill="#b0b0b0"/><path d="M54.7368,114.6353h.88476l.09082,1.14356h.03907A2.15942,2.15942,0,0,1,57.54539,114.48a1.58741,1.58741,0,0,1,.67578.1289l-.208.93653a1.75674,1.75674,0,0,0-.61132-.10449c-.53223,0-1.16993.39062-1.59864,1.457v4.05566H54.7368Z" fill="#b0b0b0"/><rect x="18.34079" y="78.06816" width="44.17759" height="28.34646" rx="2.83465" ry="2.83465" stroke="#666" stroke-miterlimit="10" stroke-width="0.75"/><rect x="21.78761" y="80.64511" width="37.28394" height="23.19256" rx="2.83465" ry="2.83465" fill="#4e4e4e"/><ellipse cx="40.42958" cy="92.24139" rx="14.29992" ry="9.70936"/><ellipse cx="37.99759" cy="91.04384" rx="5.91524" ry="4.01633" fill="#363636"/><rect x="205.48329" y="370.96694" width="51.02362" height="8.03855" rx="1.41732" ry="1.41732" stroke="#4e4e4e" stroke-miterlimit="10" stroke-width="0.5"/><rect x="226.21148" y="318.71638" width="9.56726" height="14.86205" rx="1.41732" ry="1.41732" stroke="#4e4e4e" stroke-miterlimit="10" stroke-width="0.75"/><rect x="208.31717" y="323.53951" width="45.35588" height="102.89341" rx="2.83465" ry="2.83465" stroke="#4e4e4e" stroke-miterlimit="10"/><rect x="212.56928" y="327.1122" width="36.85165" height="28.5815" rx="1.41732" ry="1.41732" fill="gray"/><polygon points="242.147 365.718 248.535 372.149 248.535 366.772 242.147 360.341 242.147 365.718" fill="#606060"/><polygon points="242.147 372.864 248.535 379.294 248.535 373.917 242.147 367.486 242.147 372.864" fill="#606060"/><polygon points="242.147 380.009 248.535 386.44 248.535 381.062 242.147 374.631 242.147 380.009" fill="#606060"/><polygon points="242.147 387.154 248.535 393.585 248.535 388.208 242.147 381.777 242.147 387.154" fill="#606060"/><polygon points="242.147 394.3 248.535 400.731 248.535 395.353 242.147 388.922 242.147 394.3" fill="#606060"/><polygon points="242.147 401.445 248.535 407.876 248.535 402.498 242.147 396.068 242.147 401.445" fill="#606060"/><polygon points="242.147 408.591 248.535 415.021 248.535 409.644 242.147 403.213 242.147 408.591" fill="#606060"/><polygon points="242.147 415.736 248.535 422.167 248.535 416.789 242.147 410.358 242.147 415.736" fill="#606060"/><polygon points="238.971 365.718 232.583 372.149 232.583 366.772 238.971 360.341 238.971 365.718" fill="#606060"/><polygon points="238.971 372.864 232.583 379.294 232.583 373.917 238.971 367.486 238.971 372.864" fill="#606060"/><polygon points="238.971 380.009 232.583 386.44 232.583 381.062 238.971 374.631 238.971 380.009" fill="#606060"/><polygon points="238.971 387.154 232.583 393.585 232.583 388.208 238.971 381.777 238.971 387.154" fill="#606060"/><polygon points="238.971 394.3 232.583 400.731 232.583 395.353 238.971 388.922 238.971 394.3" fill="#606060"/><polygon points="238.971 401.445 232.583 407.876 232.583 402.498 238.971 396.068 238.971 401.445" fill="#606060"/><polygon points="238.971 408.591 232.583 415.021 232.583 409.644 238.971 403.213 238.971 408.591" fill="#606060"/><polygon points="238.971 415.736 232.583 422.167 232.583 416.789 238.971 410.358 238.971 415.736" fill="#606060"/><polygon points="223.019 365.718 229.407 372.149 229.407 366.772 223.019 360.341 223.019 365.718" fill="#606060"/><polygon points="223.019 372.864 229.407 379.294 229.407 373.917 223.019 367.486 223.019 372.864" fill="#606060"/><polygon points="223.019 380.009 229.407 386.44 229.407 381.062 223.019 374.631 223.019 380.009" fill="#606060"/><polygon points="223.019 387.154 229.407 393.585 229.407 388.208 223.019 381.777 223.019 387.154" fill="#606060"/><polygon points="223.019 394.3 229.407 400.731 229.407 395.353 223.019 388.922 223.019 394.3" fill="#606060"/><polygon points="223.019 401.445 229.407 407.876 229.407 402.498 223.019 396.068 223.019 401.445" fill="#606060"/><polygon points="223.019 408.591 229.407 415.021 229.407 409.644 223.019 403.213 223.019 408.591" fill="#606060"/><polygon points="223.019 415.736 229.407 422.167 229.407 416.789 223.019 410.358 223.019 415.736" fill="#606060"/><polygon points="219.844 365.718 213.455 372.149 213.455 366.772 219.844 360.341 219.844 365.718" fill="#606060"/><polygon points="219.844 372.864 213.455 379.294 213.455 373.917 219.844 367.486 219.844 372.864" fill="#606060"/><polygon points="219.844 380.009 213.455 386.44 213.455 381.062 219.844 374.631 219.844 380.009" fill="#606060"/><polygon points="219.844 387.154 213.455 393.585 213.455 388.208 219.844 381.777 219.844 387.154" fill="#606060"/><polygon points="219.844 394.3 213.455 400.731 213.455 395.353 219.844 388.922 219.844 394.3" fill="#606060"/><polygon points="219.844 401.445 213.455 407.876 213.455 402.498 219.844 396.068 219.844 401.445" fill="#606060"/><polygon points="219.844 408.591 213.455 415.021 213.455 409.644 219.844 403.213 219.844 408.591" fill="#606060"/><polygon points="219.844 415.736 213.455 422.167 213.455 416.789 219.844 410.358 219.844 415.736" fill="#606060"/><path d="M232.56282,336.65284l-2.83309,4.39791a.50015.50015,0,0,1-.43263.2119.49381.49381,0,0,1-.42448-.22305l-2.61772-4.38676h-1.97637l4.18936,6.94795a1.06943,1.06943,0,0,0,1.67009.0142l4.40121-6.96215Z" fill="#404040"/><path d="M222.87719,337.96479v-1.31195h-6.37993a1.34378,1.34378,0,0,0-1.44758,1.20693v4.73832a1.34378,1.34378,0,0,0,1.44758,1.20693h6.37993v-1.31193h-5.77144a.44793.44793,0,0,1-.48253-.40231v-.80355a.44793.44793,0,0,1,.48253-.40231h5.77144v-1.312h-5.77144a.44793.44793,0,0,1-.48253-.40231v-.80356a.44793.44793,0,0,1,.48253-.40231Z" fill="#404040"/><path d="M246.94053,337.96479v-1.31195H239.113v4.23208h5.77147a.44792.44792,0,0,1,.48252.40231v.80355a.44792.44792,0,0,1-.48252.40231H239.113V343.805H245.493a1.34378,1.34378,0,0,0,1.44758-1.20693V340.7799A1.34378,1.34378,0,0,0,245.493,339.573h-4.80639v-1.60818Z" fill="#404040"/><rect x="234.0749" y="339.57297" width="3.50081" height="1.29733" fill="#404040"/><rect x="467.69856" y="318.71638" width="9.56693" height="14.86205" rx="1.41732" ry="1.41732" stroke="#4e4e4e" stroke-miterlimit="10" stroke-width="0.75"/><rect x="446.97021" y="370.96694" width="51.02362" height="8.03855" rx="1.41732" ry="1.41732" stroke="#4e4e4e" stroke-miterlimit="10" stroke-width="0.5"/><rect x="449.80486" y="323.53951" width="45.35433" height="102.89341" rx="2.83465" ry="2.83465" stroke="#4e4e4e" stroke-miterlimit="10"/><rect x="454.05683" y="327.1122" width="36.85039" height="28.5815" rx="1.41732" ry="1.41732" fill="gray"/><polygon points="483.633 365.718 490.021 372.149 490.021 366.772 483.633 360.341 483.633 365.718" fill="#606060"/><polygon points="483.633 372.864 490.021 379.294 490.021 373.917 483.633 367.486 483.633 372.864" fill="#606060"/><polygon points="483.633 380.009 490.021 386.44 490.021 381.062 483.633 374.631 483.633 380.009" fill="#606060"/><polygon points="483.633 387.154 490.021 393.585 490.021 388.208 483.633 381.777 483.633 387.154" fill="#606060"/><polygon points="483.633 394.3 490.021 400.731 490.021 395.353 483.633 388.922 483.633 394.3" fill="#606060"/><polygon points="483.633 401.445 490.021 407.876 490.021 402.498 483.633 396.068 483.633 401.445" fill="#606060"/><polygon points="483.633 408.591 490.021 415.021 490.021 409.644 483.633 403.213 483.633 408.591" fill="#606060"/><polygon points="483.633 415.736 490.021 422.167 490.021 416.789 483.633 410.358 483.633 415.736" fill="#606060"/><polygon points="480.458 365.718 474.07 372.149 474.07 366.772 480.458 360.341 480.458 365.718" fill="#606060"/><polygon points="480.458 372.864 474.07 379.294 474.07 373.917 480.458 367.486 480.458 372.864" fill="#606060"/><polygon points="480.458 380.009 474.07 386.44 474.07 381.062 480.458 374.631 480.458 380.009" fill="#606060"/><polygon points="480.458 387.154 474.07 393.585 474.07 388.208 480.458 381.777 480.458 387.154" fill="#606060"/><polygon points="480.458 394.3 474.07 400.731 474.07 395.353 480.458 388.922 480.458 394.3" fill="#606060"/><polygon points="480.458 401.445 474.07 407.876 474.07 402.498 480.458 396.068 480.458 401.445" fill="#606060"/><polygon points="480.458 408.591 474.07 415.021 474.07 409.644 480.458 403.213 480.458 408.591" fill="#606060"/><polygon points="480.458 415.736 474.07 422.167 474.07 416.789 480.458 410.358 480.458 415.736" fill="#606060"/><polygon points="464.506 365.718 470.894 372.149 470.894 366.772 464.506 360.341 464.506 365.718" fill="#606060"/><polygon points="464.506 372.864 470.894 379.294 470.894 373.917 464.506 367.486 464.506 372.864" fill="#606060"/><polygon points="464.506 380.009 470.894 386.44 470.894 381.062 464.506 374.631 464.506 380.009" fill="#606060"/><polygon points="464.506 387.154 470.894 393.585 470.894 388.208 464.506 381.777 464.506 387.154" fill="#606060"/><polygon points="464.506 394.3 470.894 400.731 470.894 395.353 464.506 388.922 464.506 394.3" fill="#606060"/><polygon points="464.506 401.445 470.894 407.876 470.894 402.498 464.506 396.068 464.506 401.445" fill="#606060"/><polygon points="464.506 408.591 470.894 415.021 470.894 409.644 464.506 403.213 464.506 408.591" fill="#606060"/><polygon points="464.506 415.736 470.894 422.167 470.894 416.789 464.506 410.358 464.506 415.736" fill="#606060"/><polygon points="461.331 365.718 454.943 372.149 454.943 366.772 461.331 360.341 461.331 365.718" fill="#606060"/><polygon points="461.331 372.864 454.943 379.294 454.943 373.917 461.331 367.486 461.331 372.864" fill="#606060"/><polygon points="461.331 380.009 454.943 386.44 454.943 381.062 461.331 374.631 461.331 380.009" fill="#606060"/><polygon points="461.331 387.154 454.943 393.585 454.943 388.208 461.331 381.777 461.331 387.154" fill="#606060"/><polygon points="461.331 394.3 454.943 400.731 454.943 395.353 461.331 388.922 461.331 394.3" fill="#606060"/><polygon points="461.331 401.445 454.943 407.876 454.943 402.498 461.331 396.068 461.331 401.445" fill="#606060"/><polygon points="461.331 408.591 454.943 415.021 454.943 409.644 461.331 403.213 461.331 408.591" fill="#606060"/><polygon points="461.331 415.736 454.943 422.167 454.943 416.789 461.331 410.358 461.331 415.736" fill="#606060"/><path d="M474.04968,336.65284l-2.833,4.39791a.50013.50013,0,0,1-.43261.2119.49378.49378,0,0,1-.42447-.22305l-2.61763-4.38676h-1.97631l4.18922,6.94795a1.06938,1.06938,0,0,0,1.67.0142l4.40106-6.96215Z" fill="#404040"/><path d="M464.36439,337.96479v-1.31195h-6.37972a1.34375,1.34375,0,0,0-1.44753,1.20693v4.73832a1.34375,1.34375,0,0,0,1.44753,1.20693h6.37972v-1.31193h-5.77125a.44791.44791,0,0,1-.48251-.40231v-.80355a.44791.44791,0,0,1,.48251-.40231h5.77125v-1.312h-5.77125a.44791.44791,0,0,1-.48251-.40231v-.80356a.44791.44791,0,0,1,.48251-.40231Z" fill="#404040"/><path d="M488.4269,337.96479v-1.31195h-7.82724v4.23208h5.77127a.44792.44792,0,0,1,.48251.40231v.80355a.44792.44792,0,0,1-.48251.40231h-5.77127V343.805h6.37971a1.34375,1.34375,0,0,0,1.44753-1.20693V340.7799a1.34375,1.34375,0,0,0-1.44753-1.20693h-4.80623v-1.60818Z" fill="#404040"/><rect x="475.56171" y="339.57297" width="3.50069" height="1.29733" fill="#404040"/><rect x="361.59867" y="318.71638" width="10.06314" height="14.86205" rx="1.41732" ry="1.41732" stroke="#4e4e4e" stroke-miterlimit="10" stroke-width="0.75"/><rect x="342.1476" y="339.77675" width="12.0671" height="6.80713" rx="0.85039" ry="0.85039" stroke="#4e4e4e" stroke-miterlimit="10" stroke-width="0.5"/><rect x="345.75854" y="323.53951" width="41.74339" height="102.89341" rx="2.83465" ry="2.83465" stroke="#4e4e4e" stroke-miterlimit="10"/><path d="M370.35732,422.41364h-7.45417a2.92187,2.92187,0,0,1-2.98167-2.85815l1.49083-51.4467a2.92187,2.92187,0,0,1,2.98167-2.85815h4.47251a2.92187,2.92187,0,0,1,2.98167,2.85815l1.49083,51.4467A2.92187,2.92187,0,0,1,370.35732,422.41364Z" fill="#cacaca"/><path d="M353.139,327.91605h26.98242a1.41734,1.41734,0,0,1,1.41734,1.41734v51.82746a1.41732,1.41732,0,0,1-1.41732,1.41732H353.139a1.41734,1.41734,0,0,1-1.41734-1.41734V329.33337A1.41732,1.41732,0,0,1,353.139,327.91605Z" fill="#404040" stroke="gray" stroke-miterlimit="10" stroke-width="0.5"/><path d="M355.45457,332.23686h1.65527a2.96891,2.96891,0,1,1,.05762,5.9375h-1.71289Zm1.58008,5.084c1.249,0,1.958-.68067,1.958-2.14258,0-1.45215-.709-2.08789-1.958-2.08789h-.48242v4.23047Z" fill="#a5a5a5"/><path d="M361.37156,332.23686h1.94922c1.3711,0,2.39356.45411,2.39356,1.834,0,1.3164-1.02246,1.9248-2.35645,1.9248h-.88867v2.17871h-1.09766Zm1.90137,2.91407c.918,0,1.3623-.35352,1.3623-1.08008,0-.74512-.48242-.99024-1.39941-.99024h-.7666v2.07032Z" fill="#a5a5a5"/><path d="M366.228,335.50542h2.252v.76269h-2.252Z" fill="#a5a5a5"/><path d="M369.57859,337.32085h1.34278v-3.79492h-1.10645v-.65332a4.16462,4.16462,0,0,0,1.39063-.47266h.81347v4.9209h1.18262v.85351h-3.623Z" fill="#a5a5a5"/><path d="M374.11277,335.2603c0-1.95215.79493-2.96875,2.04395-2.96875s2.04394,1.02539,2.04394,2.96875c0,1.95215-.79492,3.02344-2.04394,3.02344S374.11277,337.21245,374.11277,335.2603Zm3.04688,0c0-1.63476-.416-2.15234-1.00293-2.15234-.57715,0-1.00293.51758-1.00293,2.15234,0,1.63379.42578,2.20606,1.00293,2.20606C376.74363,337.46636,377.15965,336.89409,377.15965,335.2603Z" fill="#a5a5a5"/><rect x="270.33742" y="326.88867" width="61.44642" height="32.12968" rx="2.83465" ry="2.83465" fill="#363636" stroke="#e9a460" stroke-miterlimit="10"/><polygon points="339.911 343.393 331.784 328.378 331.784 358.407 339.911 343.393" fill="#e9a460"/><path d="M274.54734,336.57768c0-2.52832,1.582-4.02734,3.53125-4.02734a3.06614,3.06614,0,0,1,2.23145.97949l-.73145.88575a2.0161,2.0161,0,0,0-1.46484-.67286c-1.26367,0-2.16113,1.0625-2.16113,2.79883,0,1.75977.82617,2.82324,2.126,2.82324a2.20153,2.20153,0,0,0,1.65332-.792l.73243.86231a3.11458,3.11458,0,0,1-2.4336,1.12207C276.0825,340.55718,274.54734,339.14018,274.54734,336.57768Z" fill="#e9a460"/><path d="M281.43113,337.522a2.77049,2.77049,0,1,1,2.752,3.03516A2.8051,2.8051,0,0,1,281.43113,337.522Zm4.12207,0c0-1.16894-.5205-1.93652-1.37011-1.93652-.85059,0-1.3584.76758-1.3584,1.93652,0,1.15723.50781,1.92481,1.3584,1.92481C285.0327,339.44683,285.5532,338.67925,285.5532,337.522Z" fill="#e9a460"/><path d="M288.46922,334.61675h1.12207l.09375.77929h.04785a2.69345,2.69345,0,0,1,1.90137-.92089c1.24023,0,1.7832.83886,1.7832,2.30273v3.6377h-1.3584v-3.46c0-.957-.27148-1.31152-.90918-1.31152a1.83479,1.83479,0,0,0-1.32226.7207v4.05079h-1.3584Z" fill="#e9a460"/><path d="M295.45945,338.45464V335.691h-.82617v-1.01563l.89746-.05859.165-1.583h1.13379v1.583h1.47656V335.691h-1.47656v2.76367c0,.68554.25977,1.01562.81543,1.01562a1.66062,1.66062,0,0,0,.60254-.12988l.23535,1.00391a3.69245,3.69245,0,0,1-1.18066.21289C295.95555,340.55718,295.45945,339.70659,295.45945,338.45464Z" fill="#e9a460"/><path d="M299.54539,332.83354a.84165.84165,0,1,1,.83789.76758A.77879.77879,0,0,1,299.54539,332.83354Zm.15332,1.78321h1.3584v5.79883h-1.3584Z" fill="#e9a460"/><path d="M302.96922,334.61675h1.12207l.09375.77929h.04785a2.69345,2.69345,0,0,1,1.90137-.92089c1.24023,0,1.7832.83886,1.7832,2.30273v3.6377h-1.3584v-3.46c0-.957-.27148-1.31152-.90918-1.31152a1.83479,1.83479,0,0,0-1.32226.7207v4.05079h-1.3584Z" fill="#e9a460"/><path d="M309.38133,337.522a2.77048,2.77048,0,1,1,2.752,3.03516A2.8051,2.8051,0,0,1,309.38133,337.522Zm4.12207,0c0-1.16894-.52051-1.93652-1.37012-1.93652-.85058,0-1.3584.76758-1.3584,1.93652,0,1.15723.50782,1.92481,1.3584,1.92481C312.98289,339.44683,313.5034,338.67925,313.5034,337.522Z" fill="#e9a460"/><path d="M316.35984,338.25444v-3.63769h1.3584v3.46c0,.957.27149,1.31152.89746,1.31152.50782,0,.85059-.23633,1.28809-.80371v-3.96777h1.35742v5.79883h-1.11035l-.10547-.85059h-.03613a2.3619,2.3619,0,0,1-1.86524.99219C316.90379,340.55718,316.35984,339.71831,316.35984,338.25444Z" fill="#e9a460"/><path d="M322.5825,339.75444l.6377-.874a2.58094,2.58094,0,0,0,1.60644.64941c.626,0,.9209-.29492.9209-.69726,0-.4834-.626-.69629-1.23926-.93262-.76855-.2832-1.62988-.7207-1.62988-1.68848,0-1.01562.81445-1.73632,2.11328-1.73632a3.13112,3.13112,0,0,1,1.92578.69628l-.626.82715a2.16207,2.16207,0,0,0-1.27539-.49609c-.5791,0-.85058.27148-.85058.63769,0,.46094.57812.6377,1.2041.86231.792.29492,1.666.67285,1.666,1.75976,0,.99219-.792,1.79493-2.25586,1.79493A3.67745,3.67745,0,0,1,322.5825,339.75444Z" fill="#e9a460"/><path d="M284.21238,345.81206h1.54688l1.37012,3.7793c.165.48437.331,1.0039.49609,1.51172h.04687c.166-.50782.31934-1.02735.48438-1.51172l1.335-3.7793h1.55859v7.72363H289.7866v-3.53125c0-.7207.10645-1.748.17676-2.457h-.04688l-.626,1.7959-1.26367,3.47168h-.81446l-1.27636-3.47168-.61329-1.7959h-.04785c.05957.709.17774,1.73633.17774,2.457v3.53125h-1.24024Z" fill="#e9a460"/><path d="M292.6909,350.64214a2.77048,2.77048,0,1,1,2.752,3.03515A2.8051,2.8051,0,0,1,292.6909,350.64214Zm4.12207,0c0-1.16895-.52051-1.93653-1.37012-1.93653-.85058,0-1.3584.76758-1.3584,1.93653,0,1.15722.50782,1.9248,1.3584,1.9248C296.29246,352.56694,296.813,351.79936,296.813,350.64214Z" fill="#e9a460"/><path d="M299.37352,350.64214c0-1.88965,1.19238-3.04688,2.457-3.04688a2.14233,2.14233,0,0,1,1.52343.6377l-.04785-.93262V345.1978h1.3584v8.33789h-1.12207l-.09473-.626h-.04687a2.41713,2.41713,0,0,1-1.6416.76757C300.30613,353.67729,299.37352,352.55522,299.37352,350.64214Zm3.93261,1.26367v-2.7041a1.72726,1.72726,0,0,0-1.18066-.48438c-.74414,0-1.34668.69629-1.34668,1.91309,0,1.25195.47266,1.9248,1.31152,1.9248A1.56353,1.56353,0,0,0,303.30613,351.90581Z" fill="#e9a460"/><path d="M306.188,350.64214a2.82153,2.82153,0,0,1,2.66894-3.04688c1.57032,0,2.39747,1.13379,2.39747,2.752a3.18514,3.18514,0,0,1-.0586.66113h-3.68555a1.66066,1.66066,0,0,0,1.7129,1.61816,2.419,2.419,0,0,0,1.34667-.42578l.46.85059a3.657,3.657,0,0,1-1.9834.626A2.79629,2.79629,0,0,1,306.188,350.64214Zm3.88574-.55469c0-.89844-.38965-1.44141-1.18164-1.44141a1.45675,1.45675,0,0,0-1.39355,1.44141Z" fill="#e9a460"/><path d="M315.38621,352.7564a.88559.88559,0,0,1,.88574-.9209.92215.92215,0,0,1,0,1.84179A.88558.88558,0,0,1,315.38621,352.7564Zm.23633-5.78711-.03613-1.34668h1.37011l-.04687,1.34668-.18945,4.02734H315.811Z" fill="#e9a460"/><circle cx="231.72605" cy="246.61284" r="6.87793"/><path d="M231.72605,240.23461a6.378,6.378,0,1,1-6.37792,6.378,6.37794,6.37794,0,0,1,6.37792-6.378m0-1a7.378,7.378,0,1,0,7.37793,7.378,7.38633,7.38633,0,0,0-7.37793-7.378Z" fill="gray"/><circle cx="311.63035" cy="246.61284" r="6.87793"/><path d="M311.63035,240.23461a6.378,6.378,0,1,1-6.37793,6.378,6.37795,6.37795,0,0,1,6.37793-6.378m0-1a7.378,7.378,0,1,0,7.37793,7.378,7.38634,7.38634,0,0,0-7.37793-7.378Z" fill="gray"/><circle cx="391.53563" cy="246.61284" r="6.87793"/><path d="M391.53563,240.23461a6.378,6.378,0,1,1-6.37793,6.378,6.37794,6.37794,0,0,1,6.37793-6.378m0-1a7.378,7.378,0,1,0,7.37792,7.378,7.38629,7.38629,0,0,0-7.37792-7.378Z" fill="gray"/><path d="M471.4409,253.49077a6.87793,6.87793,0,1,1,6.87793-6.87793A6.886,6.886,0,0,1,471.4409,253.49077Z"/><path d="M471.44041,240.23461a6.378,6.378,0,1,1-6.37793,6.378,6.37795,6.37795,0,0,1,6.37793-6.378m0-1a7.378,7.378,0,1,0,7.37793,7.378,7.38629,7.38629,0,0,0-7.37793-7.378Z" fill="gray"/><circle cx="37.33798" cy="143.83449" r="2.83465" fill="#b50c3c"/><circle cx="59.61019" cy="143.83449" r="2.83465" fill="#b50c3c"/><circle cx="81.88241" cy="143.83449" r="2.83465" fill="#b50c3c"/><circle cx="104.15462" cy="143.83449" r="2.83465" fill="#b50c3c"/><circle cx="126.42684" cy="143.83449" r="2.83465" fill="#b50c3c"/><circle cx="148.69906" cy="143.83449" r="2.83465" fill="#b50c3c"/><circle cx="37.33798" cy="181.33449" r="2.83465" fill="#b50c3c"/><circle cx="59.61019" cy="181.33449" r="2.83465" fill="#b50c3c"/><circle cx="81.88241" cy="181.33449" r="2.83465" fill="#b50c3c"/><circle cx="104.15462" cy="181.33449" r="2.83465" fill="#b50c3c"/><circle cx="126.42684" cy="181.33449" r="2.83465" fill="#b50c3c"/><circle cx="148.69906" cy="181.33449" r="2.83465" fill="#b50c3c"/></svg>