<svg xmlns="http://www.w3.org/2000/svg" viewBox="0 0 412.5 398.5"><title>pedal-setup-web</title><rect x="0.54688" y="0.18629" width="411.70313" height="397.72754" rx="1.75" ry="1.75" fill="#202020"/><path d="M410.5.43611a1.50168,1.50168,0,0,1,1.5,1.5V396.164a1.50168,1.50168,0,0,1-1.5,1.5H2.29724a1.50175,1.50175,0,0,1-1.5-1.5V1.93611a1.50175,1.50175,0,0,1,1.5-1.5H410.5m0-.5H2.29724a2,2,0,0,0-2,2V396.164a2,2,0,0,0,2,2H410.5a2,2,0,0,0,2-2V1.93611a2,2,0,0,0-2-2Z" fill="#363636"/><path d="M26.92358,145.92048H386.5a0,0,0,0,1,0,0v16.47667a2.83465,2.83465,0,0,1-2.83465,2.83465H29.75823a2.83465,2.83465,0,0,1-2.83465-2.83465V145.92048A0,0,0,0,1,26.92358,145.92048Z" fill="#4e4e4e"/><rect x="26.92358" y="189.87044" width="359.57642" height="40.21745" rx="2.83465" ry="2.83465" fill="#4e4e4e"/><path d="M36.416,151.88258h2.4707c1.73926,0,3.03418.59961,3.03418,2.42285,0,1.73828-1.29492,2.542-2.98633,2.542h-1.127v2.87891H36.416Zm2.41113,3.84961c1.16308,0,1.72656-.46777,1.72656-1.42676,0-.9834-.61133-1.30762-1.77441-1.30762h-.97168v2.73438Z" fill="#cacaca"/><path d="M42.63184,156.78785a2.86662,2.86662,0,0,1,2.71093-3.09472c1.59473,0,2.43457,1.15136,2.43457,2.79492a3.2836,3.2836,0,0,1-.05957.67187H43.97559a1.68523,1.68523,0,0,0,1.73925,1.64258,2.46506,2.46506,0,0,0,1.36719-.43164l.46777.86328a3.7166,3.7166,0,0,1-2.01562.63574A2.83966,2.83966,0,0,1,42.63184,156.78785Zm3.94628-.56347c0-.91211-.3955-1.46387-1.19921-1.46387a1.47791,1.47791,0,0,0-1.415,1.46387Z" fill="#cacaca"/><path d="M48.74023,156.78785c0-1.91894,1.21094-3.09472,2.49415-3.09472a2.177,2.177,0,0,1,1.54785.64746l-.04785-.94727v-2.13476h1.3789v8.46777H52.97363l-.0957-.63574h-.04785a2.45354,2.45354,0,0,1-1.667.77929C49.6875,159.86988,48.74023,158.73024,48.74023,156.78785Zm3.99415,1.28321V155.325a1.75526,1.75526,0,0,0-1.2002-.49218c-.75488,0-1.36719.708-1.36719,1.94335,0,1.27051.48047,1.95411,1.332,1.95411A1.5903,1.5903,0,0,0,52.73438,158.07106Z" fill="#cacaca"/><path d="M55.55566,158.14332c0-1.25976,1.04395-1.91894,3.4668-2.18359-.02441-.62305-.27637-1.15137-1.08008-1.15137a3.35661,3.35661,0,0,0-1.65429.57617l-.50391-.92383a4.61125,4.61125,0,0,1,2.42285-.76757c1.46289,0,2.19434.89941,2.19434,2.543v3.49023H59.26172l-.0957-.64746h-.04786a2.86656,2.86656,0,0,1-1.82324.791A1.64619,1.64619,0,0,1,55.55566,158.14332Zm3.4668,0V156.824c-1.60742.20312-2.13476.623-2.13476,1.21093,0,.52735.35937.75586.85156.75586A1.87553,1.87553,0,0,0,59.02246,158.14332Z" fill="#cacaca"/><path d="M62.05957,158.21461v-6.95605h1.37988v7.02832c0,.33593.15528.45605.29981.45605a.81536.81536,0,0,0,.21582-.02441l.17969,1.03125a1.87852,1.87852,0,0,1-.73145.12011C62.41992,159.86988,62.05957,159.23414,62.05957,158.21461Z" fill="#cacaca"/><path d="M64.72461,159.05445l.64746-.88769a2.61745,2.61745,0,0,0,1.63086.66016c.63574,0,.93555-.29981.93555-.708,0-.49121-.63575-.708-1.25977-.94727-.7793-.28808-1.6543-.73144-1.6543-1.71484,0-1.03223.82715-1.76367,2.14649-1.76367a3.18021,3.18021,0,0,1,1.95508.708l-.63575.83985a2.19558,2.19558,0,0,0-1.29589-.50391c-.58692,0-.86329.27539-.86329.64746,0,.46778.5879.64746,1.22364.875.80371.29981,1.6914.6836,1.6914,1.78711,0,1.00781-.80371,1.82324-2.291,1.82324A3.72674,3.72674,0,0,1,64.72461,159.05445Z" fill="#cacaca"/><path d="M36.417,199.2566H37.9873l1.39161,3.83789c.168.49219.33593,1.01954.5039,1.53516h.04785c.168-.51562.32422-1.043.49219-1.53516l1.35449-3.83789h1.583v7.84375h-1.2832v-3.58593c0-.73145.1084-1.77442.18066-2.49414H42.209l-.63476,1.82226L40.29,206.36891h-.82715L38.168,202.84254l-.624-1.82226h-.04786c.05957.71972.17969,1.76269.17969,2.49414v3.58593H36.417Z" fill="#cacaca"/><path d="M44.9248,205.51735c0-1.25879,1.043-1.91895,3.46582-2.18262-.02343-.624-.27539-1.15137-1.0791-1.15137a3.35509,3.35509,0,0,0-1.65527.5752l-.50391-.92286a4.60263,4.60263,0,0,1,2.42286-.76757c1.46289,0,2.19531.89941,2.19531,2.542v3.49023H48.63086l-.0957-.64746h-.04883a2.86744,2.86744,0,0,1-1.82227.792A1.647,1.647,0,0,1,44.9248,205.51735Zm3.46582,0V204.198c-1.60644.2041-2.13476.624-2.13476,1.21191,0,.52735.36035.75489.85156.75489A1.86963,1.86963,0,0,0,48.39062,205.51735Z" fill="#cacaca"/><path d="M51.04492,204.16188a2.90393,2.90393,0,0,1,2.9502-3.09375,2.53823,2.53823,0,0,1,1.72656.65918l-.6709.89941a1.444,1.444,0,0,0-.9834-.43164c-.94824,0-1.60742.78027-1.60742,1.9668,0,1.17578.64746,1.95507,1.57129,1.95507a1.96193,1.96193,0,0,0,1.21094-.5039l.56347.91211a2.94173,2.94173,0,0,1-1.91894.71972A2.80212,2.80212,0,0,1,51.04492,204.16188Z" fill="#cacaca"/><path d="M56.97266,201.21168h1.13867l.09668,1.04395h.04785a2.00034,2.00034,0,0,1,1.667-1.1875,1.49928,1.49928,0,0,1,.67188.12011l-.24024,1.19922a1.90678,1.90678,0,0,0-.61133-.09668c-.46777,0-1.03125.32422-1.3916,1.21192v3.59765h-1.3789Z" fill="#cacaca"/><path d="M60.94434,204.16188a2.8137,2.8137,0,1,1,2.79492,3.083A2.84827,2.84827,0,0,1,60.94434,204.16188Zm4.18554,0c0-1.18653-.52734-1.9668-1.39062-1.9668s-1.37988.78027-1.37988,1.9668c0,1.17578.5166,1.95507,1.37988,1.95507S65.12988,205.33766,65.12988,204.16188Z" fill="#cacaca"/><path d="M36.00879,215.20289c0-2.5664,1.60742-4.08984,3.58594-4.08984a3.11385,3.11385,0,0,1,2.2666.99512l-.74317.89941a2.04875,2.04875,0,0,0-1.4873-.68359c-1.2832,0-2.19531,1.08007-2.19531,2.84277,0,1.78711.83984,2.86621,2.15918,2.86621a2.23129,2.23129,0,0,0,1.67871-.80371l.74414.876a3.16285,3.16285,0,0,1-2.4707,1.13964C37.56836,219.24488,36.00879,217.80543,36.00879,215.20289Z" fill="#cacaca"/><path d="M42.8252,216.16188a2.81325,2.81325,0,1,1,2.79394,3.083A2.84811,2.84811,0,0,1,42.8252,216.16188Zm4.18554,0c0-1.18653-.52734-1.9668-1.3916-1.9668-.86328,0-1.37891.78027-1.37891,1.9668,0,1.17578.51563,1.95507,1.37891,1.95507C46.4834,218.117,47.01074,217.33766,47.01074,216.16188Z" fill="#cacaca"/><path d="M49.79688,213.21168h1.13867l.09668.792h.04785a2.73415,2.73415,0,0,1,1.93066-.93554c1.25977,0,1.81153.85156,1.81153,2.33886v3.69336H53.44238v-3.51367c0-.97168-.27539-1.33105-.92285-1.33105a1.86846,1.86846,0,0,0-1.34375.73144v4.11328h-1.3789Z" fill="#cacaca"/><path d="M56.7207,217.11012v-2.80664h-.83984v-1.03125l.91113-.06055.168-1.60742h1.15137v1.60742h1.499v1.0918h-1.499v2.80664c0,.69531.26367,1.03125.82812,1.03125a1.70446,1.70446,0,0,0,.61133-.13184l.24024,1.01953a3.78332,3.78332,0,0,1-1.2002.21582C57.22363,219.24488,56.7207,218.38063,56.7207,217.11012Z" fill="#cacaca"/><path d="M60.84863,213.21168H61.9873l.09668,1.04395h.04786a2.00033,2.00033,0,0,1,1.667-1.1875,1.49923,1.49923,0,0,1,.67187.12011l-.24023,1.19922a1.90682,1.90682,0,0,0-.61133-.09668c-.46777,0-1.03125.32422-1.3916,1.21192v3.59765H60.84863Z" fill="#cacaca"/><path d="M64.82031,216.16188a2.8137,2.8137,0,1,1,2.79492,3.083A2.84827,2.84827,0,0,1,64.82031,216.16188Zm4.18555,0c0-1.18653-.52734-1.9668-1.39063-1.9668s-1.37988.78027-1.37988,1.9668c0,1.17578.5166,1.95507,1.37988,1.95507S69.00586,217.33766,69.00586,216.16188Z" fill="#cacaca"/><path d="M71.792,217.58961v-6.95605h1.37989v7.02832c0,.335.15527.45507.2998.45507a.84807.84807,0,0,0,.21582-.02343l.17969,1.03125a1.87852,1.87852,0,0,1-.73145.12011C72.15234,219.24488,71.792,218.60914,71.792,217.58961Z" fill="#cacaca"/><path d="M74.45605,218.42945l.64844-.88769a2.62166,2.62166,0,0,0,1.63086.65918c.63574,0,.93555-.29981.93555-.707,0-.49219-.63574-.708-1.25977-.94824-.77929-.28711-1.65429-.73145-1.65429-1.71485,0-1.03125.82714-1.76269,2.14648-1.76269a3.18561,3.18561,0,0,1,1.95508.707l-.63574.83984a2.19568,2.19568,0,0,0-1.2959-.5039c-.58692,0-.86328.27636-.86328.64746,0,.46777.58789.64843,1.22363.876.80371.29981,1.69141.6836,1.69141,1.78711,0,1.00781-.80372,1.82324-2.291,1.82324A3.73826,3.73826,0,0,1,74.45605,218.42945Z" fill="#cacaca"/><path d="M175.44336,200.72633c0-2.78223,1.74219-4.43359,3.88769-4.43359a3.37575,3.37575,0,0,1,2.457,1.0791l-.80664.97558a2.21512,2.21512,0,0,0-1.61231-.74121c-1.39062,0-2.37891,1.16992-2.37891,3.08106,0,1.93652.91016,3.10644,2.34082,3.10644a2.42071,2.42071,0,0,0,1.81934-.87011l.80664.94824a3.42919,3.42919,0,0,1-2.67871,1.23535C177.13379,205.10719,175.44336,203.54762,175.44336,200.72633Z" fill="#cacaca"/><path d="M182.82715,201.76637a3.04958,3.04958,0,1,1,3.0293,3.34082A3.08806,3.08806,0,0,1,182.82715,201.76637Zm4.53711,0c0-1.28711-.57227-2.13281-1.50781-2.13281-.93653,0-1.49512.8457-1.49512,2.13281,0,1.27344.55859,2.11914,1.49512,2.11914C186.792,203.88551,187.36426,203.03981,187.36426,201.76637Z" fill="#cacaca"/><path d="M190.38086,203.31324v-7.54H191.876v7.61817c0,.36426.16894.49414.32422.49414a.88507.88507,0,0,0,.23437-.02637l.19531,1.11817a2.04277,2.04277,0,0,1-.793.12988C190.77051,205.10719,190.38086,204.41774,190.38086,203.31324Z" fill="#cacaca"/><path d="M193.4873,201.76637a3.04958,3.04958,0,1,1,3.0293,3.34082A3.08806,3.08806,0,0,1,193.4873,201.76637Zm4.53711,0c0-1.28711-.57226-2.13281-1.50781-2.13281-.93652,0-1.49512.8457-1.49512,2.13281,0,1.27344.5586,2.11914,1.49512,2.11914C197.45215,203.88551,198.02441,203.03981,198.02441,201.76637Z" fill="#cacaca"/><path d="M201.04,198.56813h1.23535l.10352,1.13086h.05273a2.16718,2.16718,0,0,1,1.80664-1.28711,1.62008,1.62008,0,0,1,.72754.12988l-.25977,1.2998a2.09944,2.09944,0,0,0-.66308-.10351c-.50684,0-1.11817.35058-1.50781,1.31348v3.89941H201.04Z" fill="#cacaca"/><path d="M208.03418,204.07985c2.30078-2.22266,3.74414-3.67872,3.74414-4.93946a1.28321,1.28321,0,0,0-1.36523-1.43066,2.28957,2.28957,0,0,0-1.61231.92285l-.832-.832a3.38436,3.38436,0,0,1,2.63965-1.27344,2.416,2.416,0,0,1,2.6123,2.53516c0,1.46875-1.36425,2.97656-3.00293,4.706.42871-.03906.97559-.09082,1.37793-.09082H213.624v1.27344h-5.58984Z" fill="#cacaca"/><path d="M186.27246,217.89528a8.23586,8.23586,0,1,1,8.25488,8.25488A8.24241,8.24241,0,0,1,186.27246,217.89528Zm5.01856,4.48535h3.63964c2.002,0,3.666-.832,3.666-2.74317a2.12833,2.12833,0,0,0-1.59863-2.18457v-.05176a2.22184,2.22184,0,0,0,1.16992-2.01562c0-1.833-1.57324-2.31348-3.52344-2.31348H191.291Zm2.457-5.66895V214.9568h.832c.80566,0,1.18262.23437,1.18262.80664,0,.57129-.377.94824-1.18262.94824Zm0,3.7832V218.5193h1.01367c.97461,0,1.42969.24707,1.42969.93555,0,.68945-.45508,1.04-1.42969,1.04Z" fill="#cacaca"/><rect x="188.84066" y="146.89077" width="11.33333" height="14.17323" fill="none"/><path d="M191.88477,159.033c2.123-2.05078,3.4541-3.39453,3.4541-4.55762a1.18282,1.18282,0,0,0-1.25879-1.31933,2.1077,2.1077,0,0,0-1.48731.85156l-.76757-.76758a3.12374,3.12374,0,0,1,2.43457-1.17578,2.23014,2.23014,0,0,1,2.41113,2.33887c0,1.35547-1.25977,2.74707-2.77051,4.34179.39551-.03613.89941-.084,1.27149-.084H197.042v1.17578h-5.15722Z" fill="#cacaca"/><path d="M102.13574,200.72633c0-2.78223,1.74219-4.43359,3.8877-4.43359a3.37571,3.37571,0,0,1,2.457,1.0791l-.80664.97558a2.21512,2.21512,0,0,0-1.61231-.74121c-1.39062,0-2.3789,1.16992-2.3789,3.08106,0,1.93652.91015,3.10644,2.34082,3.10644a2.42071,2.42071,0,0,0,1.81933-.87011l.80664.94824a3.42917,3.42917,0,0,1-2.67871,1.23535C103.82617,205.10719,102.13574,203.54762,102.13574,200.72633Z" fill="#cacaca"/><path d="M109.51953,201.76637a3.04958,3.04958,0,1,1,3.0293,3.34082A3.08806,3.08806,0,0,1,109.51953,201.76637Zm4.53711,0c0-1.28711-.57226-2.13281-1.50781-2.13281-.93653,0-1.49512.8457-1.49512,2.13281,0,1.27344.55859,2.11914,1.49512,2.11914C113.48438,203.88551,114.05664,203.03981,114.05664,201.76637Z" fill="#cacaca"/><path d="M117.07324,203.31324v-7.54h1.49512v7.61817c0,.36426.16894.49414.32422.49414a.885.885,0,0,0,.23437-.02637l.19532,1.11817a2.04285,2.04285,0,0,1-.793.12988C117.46289,205.10719,117.07324,204.41774,117.07324,203.31324Z" fill="#cacaca"/><path d="M120.17969,201.76637a3.04958,3.04958,0,1,1,3.02929,3.34082A3.08805,3.08805,0,0,1,120.17969,201.76637Zm4.53711,0c0-1.28711-.57227-2.13281-1.50782-2.13281-.93652,0-1.49511.8457-1.49511,2.13281,0,1.27344.55859,2.11914,1.49511,2.11914C124.14453,203.88551,124.7168,203.03981,124.7168,201.76637Z" fill="#cacaca"/><path d="M127.73242,198.56813h1.23535l.10352,1.13086h.05273a2.16718,2.16718,0,0,1,1.80664-1.28711,1.62006,1.62006,0,0,1,.72754.12988l-.25976,1.2998a2.09955,2.09955,0,0,0-.66309-.10351c-.50683,0-1.11816.35058-1.50781,1.31348v3.89941h-1.49512Z" fill="#cacaca"/><path d="M135.19434,203.72926H137.04v-5.43457h-1.52051v-.93555a5.58167,5.58167,0,0,0,1.91113-.67578h1.11817v7.0459h1.625v1.22168h-4.97949Z" fill="#cacaca"/><path d="M112.96484,217.89528a8.23586,8.23586,0,1,1,8.25489,8.25488A8.24242,8.24242,0,0,1,112.96484,217.89528Zm3.97852,4.48535h2.52148l.46778-1.97657h2.58789l.46777,1.97657h2.61328l-2.78222-9.3086h-3.09473Zm5.23828-3.875L122,217.85621c-.24707-.88379-.46777-1.833-.66309-2.75586h-.24707c-.18164.93555-.37695,1.87207-.624,2.75586l-.18164.64942Z" fill="#cacaca"/><line x1="121.19971" y1="302.25349" x2="121.19971" y2="242.27107" fill="none" stroke="#e9a460" stroke-miterlimit="10" stroke-width="1.5"/><polygon points="125.687 300.94 121.2 308.712 116.712 300.94 125.687 300.94" fill="#e9a460"/><polygon points="125.687 243.584 121.2 235.813 116.712 243.584 125.687 243.584" fill="#e9a460"/><polyline points="55.873 273.484 267.813 273.484 267.814 242.271" fill="none" stroke="#e9a460" stroke-miterlimit="10" stroke-width="1.5"/><polygon points="272.301 243.584 267.814 235.813 263.326 243.584 272.301 243.584" fill="#e9a460"/><line x1="194.13464" y1="337.25349" x2="194.13464" y2="242.27107" fill="none" stroke="#e9a460" stroke-miterlimit="10" stroke-width="1.5"/><polygon points="198.622 335.94 194.135 343.712 189.647 335.94 198.622 335.94" fill="#e9a460"/><polygon points="198.622 243.584 194.135 235.813 189.647 243.584 198.622 243.584" fill="#e9a460"/><line x1="121.19971" y1="181.7599" x2="121.19971" y2="167.75001" fill="none" stroke="#e9a460" stroke-miterlimit="10" stroke-width="1.5"/><polygon points="125.313 180.556 121.2 187.68 117.086 180.556 125.313 180.556" fill="#e9a460"/><line x1="194.50732" y1="181.7599" x2="194.50732" y2="167.75001" fill="none" stroke="#e9a460" stroke-miterlimit="10" stroke-width="1.5"/><polygon points="198.621 180.556 194.507 187.68 190.394 180.556 198.621 180.556" fill="#e9a460"/><line x1="341.12158" y1="181.7599" x2="341.12158" y2="167.75001" fill="none" stroke="#e9a460" stroke-miterlimit="10" stroke-width="1.5"/><polygon points="345.235 180.556 341.122 187.68 337.008 180.556 345.235 180.556" fill="#e9a460"/><line x1="121.19971" y1="127.7599" x2="121.19971" y2="101.75001" fill="none" stroke="#e9a460" stroke-miterlimit="10" stroke-width="1.5"/><polygon points="125.313 126.556 121.2 133.68 117.086 126.556 125.313 126.556" fill="#e9a460"/><line x1="194.50732" y1="127.7599" x2="194.50732" y2="101.75001" fill="none" stroke="#e9a460" stroke-miterlimit="10" stroke-width="1.5"/><polygon points="198.621 126.556 194.507 133.68 190.394 126.556 198.621 126.556" fill="#e9a460"/><line x1="341.12158" y1="127.7599" x2="341.12158" y2="101.75001" fill="none" stroke="#e9a460" stroke-miterlimit="10" stroke-width="1.5"/><polygon points="345.235 126.556 341.122 133.68 337.008 126.556 345.235 126.556" fill="#e9a460"/><rect x="115.53304" y="146.89077" width="11.33333" height="14.17323" fill="none"/><path d="M119.00977,158.70875h1.70312v-5.01269h-1.40332v-.86426a5.11578,5.11578,0,0,0,1.7627-.623h1.03125v6.5h1.499v1.12793h-4.59277Z" fill="#cacaca"/><path d="M240.27344,196.449h2.67871c1.88476,0,3.28906.65039,3.28906,2.626,0,1.88477-1.4043,2.75586-3.2373,2.75586h-1.22266v3.12012h-1.50781Zm2.61328,4.17285c1.26074,0,1.87207-.50684,1.87207-1.54688,0-1.0664-.66309-1.417-1.92383-1.417h-1.05371v2.96387Z" fill="#cacaca"/><path d="M247.54,196.60524a.927.927,0,1,1,.92383.84472A.85872.85872,0,0,1,247.54,196.60524Zm.16992,1.96289h1.49414v6.38281H247.71Z" fill="#cacaca"/><path d="M251.33594,202.79274v-3.042h-.91016v-1.11816l.98828-.06445.18262-1.74219h1.24805v1.74219h1.625v1.18261h-1.625v3.042c0,.75488.28515,1.11816.89648,1.11816a1.82745,1.82745,0,0,0,.66309-.14258l.25976,1.10449a4.06854,4.06854,0,0,1-1.2998.23438C251.88184,205.10719,251.33594,204.17164,251.33594,202.79274Z" fill="#cacaca"/><path d="M255.18457,201.76637a3.14766,3.14766,0,0,1,3.19727-3.35449,2.75235,2.75235,0,0,1,1.87207.71484l-.72754.97559a1.56236,1.56236,0,0,0-1.06641-.46875c-1.02637,0-1.74219.8457-1.74219,2.13281,0,1.27344.70215,2.11914,1.70313,2.11914a2.13114,2.13114,0,0,0,1.31348-.5459l.61132.98731a3.18747,3.18747,0,0,1-2.08008.78027A3.03658,3.03658,0,0,1,255.18457,201.76637Z" fill="#cacaca"/><path d="M261.60645,195.7732h1.49414v2.36622l-.05176,1.23437a2.92716,2.92716,0,0,1,2.041-.96191c1.36524,0,1.96289.92285,1.96289,2.53515v4.00391h-1.49414v-3.80859c0-1.05372-.2998-1.44336-1.00195-1.44336a2.02533,2.02533,0,0,0-1.45605.793v4.459h-1.49414Z" fill="#cacaca"/><path d="M270.21289,204.27516h-.03906l-.13086.67578h-1.18262V195.7732h1.49512v2.36622l-.03906,1.06543a2.91485,2.91485,0,0,1,1.8457-.793c1.59961,0,2.52246,1.27441,2.52246,3.2373,0,2.19727-1.31348,3.458-2.73047,3.458A2.54687,2.54687,0,0,1,270.21289,204.27516Zm2.92481-2.59961c0-1.27442-.416-2.02832-1.37793-2.02832a2.03653,2.03653,0,0,0-1.4043.71484v2.97754a1.99405,1.99405,0,0,0,1.28711.53223C272.4873,203.87184,273.1377,203.11793,273.1377,201.67555Z" fill="#cacaca"/><path d="M275.76367,201.76637a3.1062,3.1062,0,0,1,2.9375-3.35449c1.72949,0,2.63965,1.248,2.63965,3.02929a3.4636,3.4636,0,0,1-.06543.72754h-4.05566a1.82618,1.82618,0,0,0,1.88476,1.78125,2.66562,2.66562,0,0,0,1.48145-.46777l.50781.93555a4.02645,4.02645,0,0,1-2.18457.68945A3.07783,3.07783,0,0,1,275.76367,201.76637ZM280.04,201.155c0-.98828-.42871-1.58594-1.29981-1.58594a1.6029,1.6029,0,0,0-1.53418,1.58594Z" fill="#cacaca"/><path d="M282.77051,198.56813h1.23437l.1045.85742h.05175a2.96594,2.96594,0,0,1,2.09278-1.01367c1.36523,0,1.96289.92285,1.96289,2.53515v4.00391h-1.49414v-3.80859c0-1.05372-.29981-1.44336-1.002-1.44336a2.02533,2.02533,0,0,0-1.45605.793v4.459h-1.49414Z" fill="#cacaca"/><path d="M289.66016,201.76637c0-2.08008,1.3125-3.35449,2.7041-3.35449a2.35853,2.35853,0,0,1,1.67676.70215l-.05176-1.02735V195.7732h1.49512v9.17774H294.249l-.10449-.68848h-.05176a2.66032,2.66032,0,0,1-1.80664.84473C290.68652,205.10719,289.66016,203.87184,289.66016,201.76637Zm4.3291,1.39062v-2.97656a1.90166,1.90166,0,0,0-1.30078-.5332c-.81836,0-1.48145.7666-1.48145,2.10547,0,1.3789.51953,2.11914,1.44336,2.11914A1.72454,1.72454,0,0,0,293.98926,203.157Z" fill="#cacaca"/><path d="M259.57812,217.89528a8.23586,8.23586,0,1,1,8.25586,8.25488A8.24263,8.24263,0,0,1,259.57812,217.89528Zm11.63575,3.28906-1.28711-1.54688a2.32553,2.32553,0,0,1-1.69043.793c-1.209,0-2.01465-.97558-2.01465-2.71777,0-1.68946.94922-2.69043,2.041-2.69043a2.27215,2.27215,0,0,1,1.54687.68847l1.28711-1.58593a4.16693,4.16693,0,0,0-2.89844-1.23535,4.55412,4.55412,0,0,0-4.499,4.915c0,3.17188,2.06738,4.75782,4.44629,4.75782A3.95617,3.95617,0,0,0,271.21387,221.18434Z" fill="#cacaca"/><rect x="262.14681" y="146.89077" width="11.33333" height="14.17323" fill="none"/><path d="M265.02344,158.90113l.65918-.88769a2.49463,2.49463,0,0,0,1.81152.83984c.82715,0,1.40332-.43164,1.40332-1.15136,0-.792-.50391-1.2959-2.24316-1.2959v-1.00684c1.499,0,1.99121-.51562,1.99121-1.22363a.996.996,0,0,0-1.12793-1.01953,2.227,2.227,0,0,0-1.53516.71972l-.707-.85156a3.36443,3.36443,0,0,1,2.291-.96c1.46289,0,2.4707.71973,2.4707,2.01563a1.8315,1.8315,0,0,1-1.332,1.751v.04785a1.94085,1.94085,0,0,1,1.583,1.89453c0,1.39161-1.21094,2.207-2.67383,2.207A3.31747,3.31747,0,0,1,265.02344,158.90113Z" fill="#cacaca"/><path d="M312.42383,203.85914l.88476-1.02734a3.3793,3.3793,0,0,0,2.209.96191c.96289,0,1.48242-.42871,1.48242-1.09179,0-.70215-.54492-.92286-1.3125-1.24805l-1.16992-.50684a2.45,2.45,0,0,1-1.7168-2.26172,2.58633,2.58633,0,0,1,2.86035-2.39257,3.753,3.753,0,0,1,2.61328,1.0791l-.7666.96191a2.77379,2.77379,0,0,0-1.84668-.72754c-.80566,0-1.33886.377-1.33886,1.001,0,.66309.65039.91016,1.35156,1.19629l1.1582.48047a2.37924,2.37924,0,0,1,1.71485,2.30078c0,1.3789-1.14356,2.52246-3.05469,2.52246A4.40536,4.40536,0,0,1,312.42383,203.85914Z" fill="#cacaca"/><path d="M319.89844,202.572v-4.0039h1.49609v3.80859c0,1.05371.29883,1.44336.98828,1.44336.5586,0,.93555-.25977,1.416-.88379v-4.36816h1.49609v6.38281h-1.22265l-.11719-.93555H323.916a2.59985,2.59985,0,0,1-2.05372,1.0918C320.49707,205.10719,319.89844,204.18434,319.89844,202.572Z" fill="#cacaca"/><path d="M326.55469,204.2234l.70312-.96191a2.84007,2.84007,0,0,0,1.76758.71484c.68945,0,1.01367-.3252,1.01367-.76758,0-.53222-.68945-.7666-1.36523-1.02637-.84473-.3125-1.793-.793-1.793-1.85937,0-1.11816.89648-1.91113,2.32617-1.91113a3.44191,3.44191,0,0,1,2.11914.76757l-.68945.90918a2.37858,2.37858,0,0,0-1.40332-.54589c-.6377,0-.93652.29882-.93652.70214,0,.50684.63671.70215,1.32617.94922.87109.3252,1.834.74121,1.834,1.9375,0,1.0918-.87109,1.97559-2.48437,1.97559A4.04542,4.04542,0,0,1,326.55469,204.2234Z" fill="#cacaca"/><path d="M332.75586,202.79274v-3.042h-.91016v-1.11816l.98828-.06445.18262-1.74219h1.24805v1.74219h1.625v1.18261h-1.625v3.042c0,.75488.28613,1.11816.89746,1.11816a1.8222,1.8222,0,0,0,.66211-.14258l.25976,1.10449a4.06728,4.06728,0,0,1-1.29882.23438C333.30273,205.10719,332.75586,204.17164,332.75586,202.79274Z" fill="#cacaca"/><path d="M339.959,196.449h2.67774c1.88476,0,3.28906.65039,3.28906,2.626,0,1.88477-1.4043,2.75586-3.2373,2.75586H341.4668v3.12012H339.959Zm2.61329,4.17285c1.25976,0,1.87109-.50684,1.87109-1.54688,0-1.0664-.66211-1.417-1.92383-1.417H341.4668v2.96387Z" fill="#cacaca"/><path d="M346.69238,201.76637a3.10632,3.10632,0,0,1,2.93848-3.35449c1.72852,0,2.63867,1.248,2.63867,3.02929a3.47427,3.47427,0,0,1-.06445.72754h-4.05664A1.82618,1.82618,0,0,0,350.0332,203.95a2.66865,2.66865,0,0,0,1.48242-.46777l.50684.93555a4.02384,4.02384,0,0,1-2.18457.68945A3.07783,3.07783,0,0,1,346.69238,201.76637Zm4.27637-.61133c0-.98828-.42773-1.58594-1.29883-1.58594a1.60432,1.60432,0,0,0-1.53515,1.58594Z" fill="#cacaca"/><path d="M353.30859,201.76637c0-2.08008,1.31348-3.35449,2.70508-3.35449a2.3545,2.3545,0,0,1,1.67578.70215l-.05078-1.02735V195.7732h1.49414v9.17774h-1.23437l-.10352-.68848h-.05273a2.66232,2.66232,0,0,1-1.80664.84473C354.33594,205.10719,353.30859,203.87184,353.30859,201.76637Zm4.33008,1.39062v-2.97656a1.90165,1.90165,0,0,0-1.30078-.5332c-.81836,0-1.48242.7666-1.48242,2.10547,0,1.3789.52051,2.11914,1.44336,2.11914A1.72481,1.72481,0,0,0,357.63867,203.157Z" fill="#cacaca"/><path d="M360.69336,203.23512c0-1.36524,1.13086-2.08008,3.75684-2.36621-.02637-.67578-.29883-1.24805-1.16993-1.24805a3.63846,3.63846,0,0,0-1.79394.624l-.54688-1.001a4.99734,4.99734,0,0,1,2.627-.832c1.58593,0,2.3789.97558,2.3789,2.75586v3.7832h-1.23437l-.10547-.70215h-.05078a3.10786,3.10786,0,0,1-1.97657.8584A1.78407,1.78407,0,0,1,360.69336,203.23512Zm3.75684,0v-1.42969c-1.74219.2207-2.31348.67578-2.31348,1.3125,0,.57227.38867.81934.92187.81934A2.02908,2.02908,0,0,0,364.4502,203.23512Z" fill="#cacaca"/><path d="M367.73828,203.31324v-7.54h1.4961v7.61817c0,.36426.168.49414.32421.49414a.88881.88881,0,0,0,.23438-.02637l.19531,1.11817a2.04638,2.04638,0,0,1-.793.12988C368.12891,205.10719,367.73828,204.41774,367.73828,203.31324Z" fill="#cacaca"/><path d="M332.88672,217.89528a8.23537,8.23537,0,1,1,8.25488,8.25488A8.24178,8.24178,0,0,1,332.88672,217.89528Zm5.39453,4.48535h2.89941c2.69043,0,4.64161-1.4043,4.64161-4.69336,0-3.30274-1.95118-4.61524-4.78516-4.61524h-2.75586Zm2.4707-1.97657v-5.35644h.14258c1.33985,0,2.40527.45508,2.40527,2.63965,0,2.1709-1.06542,2.71679-2.40527,2.71679Z" fill="#cacaca"/><rect x="335.4554" y="146.89077" width="11.33333" height="14.17323" fill="none"/><path d="M341.62988,157.86988h-3.37011v-.93554l3.02246-4.72559h1.64355v4.59375h.959v1.06738h-.959v1.9668h-1.2959Zm0-1.06738V155.075c0-.44336.03614-1.13965.05957-1.583h-.04687c-.19238.39551-.4082.7793-.624,1.1875l-1.3916,2.12305Z" fill="#cacaca"/><rect x="14.79785" y="145.26454" width="383.62012" height="241.59522" rx="5" ry="5" fill="none" stroke="#4e4e4e" stroke-miterlimit="10"/><path d="M116.94774,138.17793h8.50394a1.41732,1.41732,0,0,1,1.41732,1.41732v4.252a0,0,0,0,1,0,0H115.53042a0,0,0,0,1,0,0v-4.252A1.41732,1.41732,0,0,1,116.94774,138.17793Z" stroke="#4e4e4e" stroke-miterlimit="10"/><path d="M190.25536,138.17793h8.50394a1.41732,1.41732,0,0,1,1.41732,1.41732v4.252a0,0,0,0,1,0,0H188.838a0,0,0,0,1,0,0v-4.252A1.41732,1.41732,0,0,1,190.25536,138.17793Z" stroke="#4e4e4e" stroke-miterlimit="10"/><path d="M263.56151,138.17793h8.50394a1.41732,1.41732,0,0,1,1.41732,1.41732v4.252a0,0,0,0,1,0,0H262.14419a0,0,0,0,1,0,0v-4.252A1.41732,1.41732,0,0,1,263.56151,138.17793Z" stroke="#4e4e4e" stroke-miterlimit="10"/><path d="M336.8701,138.17793H345.374a1.41732,1.41732,0,0,1,1.41732,1.41732v4.252a0,0,0,0,1,0,0H335.45278a0,0,0,0,1,0,0v-4.252A1.41732,1.41732,0,0,1,336.8701,138.17793Z" stroke="#4e4e4e" stroke-miterlimit="10"/><path d="M114.11309,142.59525h14.17323a1.41732,1.41732,0,0,1,1.41732,1.41732v1.41733a0,0,0,0,1,0,0H112.69577a0,0,0,0,1,0,0v-1.41733A1.41732,1.41732,0,0,1,114.11309,142.59525Z" stroke="#4e4e4e" stroke-miterlimit="10"/><path d="M187.42071,142.59525h14.17323a1.41732,1.41732,0,0,1,1.41732,1.41732v1.41733a0,0,0,0,1,0,0H186.00339a0,0,0,0,1,0,0v-1.41733A1.41732,1.41732,0,0,1,187.42071,142.59525Z" stroke="#4e4e4e" stroke-miterlimit="10"/><path d="M260.72686,142.59525h14.17323a1.41732,1.41732,0,0,1,1.41732,1.41732v1.41733a0,0,0,0,1,0,0H259.30954a0,0,0,0,1,0,0v-1.41733A1.41732,1.41732,0,0,1,260.72686,142.59525Z" stroke="#4e4e4e" stroke-miterlimit="10"/><path d="M334.03546,142.59525h14.17323a1.41732,1.41732,0,0,1,1.41732,1.41732v1.41733a0,0,0,0,1,0,0H332.61813a0,0,0,0,1,0,0v-1.41733A1.41732,1.41732,0,0,1,334.03546,142.59525Z" stroke="#4e4e4e" stroke-miterlimit="10"/><rect x="263.14681" y="16.11933" width="49.50095" height="25.42964" rx="2.83465" ry="2.83465" fill="#363636" stroke="#a9c0fd" stroke-miterlimit="10"/><rect x="101.04259" y="11.7643" width="40.31496" height="90.70866" rx="2.83465" ry="2.83465" stroke="#4e4e4e" stroke-miterlimit="10"/><rect x="104.82212" y="14.91391" width="32.75591" height="25.19685" rx="1.41732" ry="1.41732" fill="gray"/><polygon points="131.112 48.948 136.791 54.618 136.791 49.877 131.112 44.207 131.112 48.948" fill="#606060"/><polygon points="131.112 55.247 136.791 60.917 136.791 56.176 131.112 50.507 131.112 55.247" fill="#606060"/><polygon points="131.112 61.547 136.791 67.216 136.791 62.475 131.112 56.806 131.112 61.547" fill="#606060"/><polygon points="131.112 67.846 136.791 73.515 136.791 68.774 131.112 63.105 131.112 67.846" fill="#606060"/><polygon points="131.112 74.145 136.791 79.814 136.791 75.074 131.112 69.404 131.112 74.145" fill="#606060"/><polygon points="131.112 80.444 136.791 86.114 136.791 81.373 131.112 75.704 131.112 80.444" fill="#606060"/><polygon points="131.112 86.743 136.791 92.413 136.791 87.672 131.112 82.003 131.112 86.743" fill="#606060"/><polygon points="131.112 93.043 136.791 98.712 136.791 93.971 131.112 88.302 131.112 93.043" fill="#606060"/><polygon points="128.29 48.948 122.611 54.618 122.611 49.877 128.29 44.207 128.29 48.948" fill="#606060"/><polygon points="128.29 55.247 122.611 60.917 122.611 56.176 128.29 50.507 128.29 55.247" fill="#606060"/><polygon points="128.29 61.547 122.611 67.216 122.611 62.475 128.29 56.806 128.29 61.547" fill="#606060"/><polygon points="128.29 67.846 122.611 73.515 122.611 68.774 128.29 63.105 128.29 67.846" fill="#606060"/><polygon points="128.29 74.145 122.611 79.814 122.611 75.074 128.29 69.404 128.29 74.145" fill="#606060"/><polygon points="128.29 80.444 122.611 86.114 122.611 81.373 128.29 75.704 128.29 80.444" fill="#606060"/><polygon points="128.29 86.743 122.611 92.413 122.611 87.672 128.29 82.003 128.29 86.743" fill="#606060"/><polygon points="128.29 93.043 122.611 98.712 122.611 93.971 128.29 88.302 128.29 93.043" fill="#606060"/><polygon points="114.11 48.948 119.789 54.618 119.789 49.877 114.11 44.207 114.11 48.948" fill="#606060"/><polygon points="114.11 55.247 119.789 60.917 119.789 56.176 114.11 50.507 114.11 55.247" fill="#606060"/><polygon points="114.11 61.547 119.789 67.216 119.789 62.475 114.11 56.806 114.11 61.547" fill="#606060"/><polygon points="114.11 67.846 119.789 73.515 119.789 68.774 114.11 63.105 114.11 67.846" fill="#606060"/><polygon points="114.11 74.145 119.789 79.814 119.789 75.074 114.11 69.404 114.11 74.145" fill="#606060"/><polygon points="114.11 80.444 119.789 86.114 119.789 81.373 114.11 75.704 114.11 80.444" fill="#606060"/><polygon points="114.11 86.743 119.789 92.413 119.789 87.672 114.11 82.003 114.11 86.743" fill="#606060"/><polygon points="114.11 93.043 119.789 98.712 119.789 93.971 114.11 88.302 114.11 93.043" fill="#606060"/><polygon points="111.288 48.948 105.61 54.618 105.61 49.877 111.288 44.207 111.288 48.948" fill="#606060"/><polygon points="111.288 55.247 105.61 60.917 105.61 56.176 111.288 50.507 111.288 55.247" fill="#606060"/><polygon points="111.288 61.547 105.61 67.216 105.61 62.475 111.288 56.806 111.288 61.547" fill="#606060"/><polygon points="111.288 67.846 105.61 73.515 105.61 68.774 111.288 63.105 111.288 67.846" fill="#606060"/><polygon points="111.288 74.145 105.61 79.814 105.61 75.074 111.288 69.404 111.288 74.145" fill="#606060"/><polygon points="111.288 80.444 105.61 86.114 105.61 81.373 111.288 75.704 111.288 80.444" fill="#606060"/><polygon points="111.288 86.743 105.61 92.413 105.61 87.672 111.288 82.003 111.288 86.743" fill="#606060"/><polygon points="111.288 93.043 105.61 98.712 105.61 93.971 111.288 88.302 111.288 93.043" fill="#606060"/><path d="M122.59355,23.32474l-2.51822,3.87711a.44581.44581,0,0,1-.38454.1868.43992.43992,0,0,1-.3773-.19664l-2.32679-3.86727H115.23l3.72374,6.12516a.95549.95549,0,0,0,1.48448.01252l3.91206-6.13768Z" fill="#404040"/><path d="M113.9844,24.48133V23.32474h-5.67086a1.19136,1.19136,0,0,0-1.2867,1.064V28.566a1.19136,1.19136,0,0,0,1.2867,1.064h5.67086V28.47338h-5.13a.39711.39711,0,0,1-.4289-.35467v-.70839a.39711.39711,0,0,1,.4289-.35467h5.13V25.89906h-5.13a.39711.39711,0,0,1-.4289-.35467V24.836a.39711.39711,0,0,1,.4289-.35467Z" fill="#404040"/><path d="M135.3733,24.48133V23.32474h-6.95755v3.73091h5.13a.39712.39712,0,0,1,.4289.35467v.70839a.39712.39712,0,0,1-.4289.35467h-5.13V29.63h5.67086a1.19135,1.19135,0,0,0,1.28669-1.064V26.96307a1.19135,1.19135,0,0,0-1.28669-1.064H129.8144V24.48133Z" fill="#404040"/><rect x="123.93758" y="25.89906" width="3.11173" height="1.1437" fill="#404040"/><rect x="174.34984" y="11.7643" width="40.31496" height="90.70866" rx="2.83465" ry="2.83465" stroke="#4e4e4e" stroke-miterlimit="10"/><rect x="178.12937" y="14.91391" width="32.75591" height="25.19685" rx="1.41732" ry="1.41732" fill="gray"/><polygon points="204.419 48.948 210.098 54.618 210.098 49.877 204.419 44.207 204.419 48.948" fill="#606060"/><polygon points="204.419 55.247 210.098 60.917 210.098 56.176 204.419 50.507 204.419 55.247" fill="#606060"/><polygon points="204.419 61.547 210.098 67.216 210.098 62.475 204.419 56.806 204.419 61.547" fill="#606060"/><polygon points="204.419 67.846 210.098 73.515 210.098 68.774 204.419 63.105 204.419 67.846" fill="#606060"/><polygon points="204.419 74.145 210.098 79.814 210.098 75.074 204.419 69.404 204.419 74.145" fill="#606060"/><polygon points="204.419 80.444 210.098 86.114 210.098 81.373 204.419 75.704 204.419 80.444" fill="#606060"/><polygon points="204.419 86.743 210.098 92.413 210.098 87.672 204.419 82.003 204.419 86.743" fill="#606060"/><polygon points="204.419 93.043 210.098 98.712 210.098 93.971 204.419 88.302 204.419 93.043" fill="#606060"/><polygon points="201.597 48.948 195.919 54.618 195.919 49.877 201.597 44.207 201.597 48.948" fill="#606060"/><polygon points="201.597 55.247 195.919 60.917 195.919 56.176 201.597 50.507 201.597 55.247" fill="#606060"/><polygon points="201.597 61.547 195.919 67.216 195.919 62.475 201.597 56.806 201.597 61.547" fill="#606060"/><polygon points="201.597 67.846 195.919 73.515 195.919 68.774 201.597 63.105 201.597 67.846" fill="#606060"/><polygon points="201.597 74.145 195.919 79.814 195.919 75.074 201.597 69.404 201.597 74.145" fill="#606060"/><polygon points="201.597 80.444 195.919 86.114 195.919 81.373 201.597 75.704 201.597 80.444" fill="#606060"/><polygon points="201.597 86.743 195.919 92.413 195.919 87.672 201.597 82.003 201.597 86.743" fill="#606060"/><polygon points="201.597 93.043 195.919 98.712 195.919 93.971 201.597 88.302 201.597 93.043" fill="#606060"/><polygon points="187.418 48.948 193.096 54.618 193.096 49.877 187.418 44.207 187.418 48.948" fill="#606060"/><polygon points="187.418 55.247 193.096 60.917 193.096 56.176 187.418 50.507 187.418 55.247" fill="#606060"/><polygon points="187.418 61.547 193.096 67.216 193.096 62.475 187.418 56.806 187.418 61.547" fill="#606060"/><polygon points="187.418 67.846 193.096 73.515 193.096 68.774 187.418 63.105 187.418 67.846" fill="#606060"/><polygon points="187.418 74.145 193.096 79.814 193.096 75.074 187.418 69.404 187.418 74.145" fill="#606060"/><polygon points="187.418 80.444 193.096 86.114 193.096 81.373 187.418 75.704 187.418 80.444" fill="#606060"/><polygon points="187.418 86.743 193.096 92.413 193.096 87.672 187.418 82.003 187.418 86.743" fill="#606060"/><polygon points="187.418 93.043 193.096 98.712 193.096 93.971 187.418 88.302 187.418 93.043" fill="#606060"/><polygon points="184.595 48.948 178.917 54.618 178.917 49.877 184.595 44.207 184.595 48.948" fill="#606060"/><polygon points="184.595 55.247 178.917 60.917 178.917 56.176 184.595 50.507 184.595 55.247" fill="#606060"/><polygon points="184.595 61.547 178.917 67.216 178.917 62.475 184.595 56.806 184.595 61.547" fill="#606060"/><polygon points="184.595 67.846 178.917 73.515 178.917 68.774 184.595 63.105 184.595 67.846" fill="#606060"/><polygon points="184.595 74.145 178.917 79.814 178.917 75.074 184.595 69.404 184.595 74.145" fill="#606060"/><polygon points="184.595 80.444 178.917 86.114 178.917 81.373 184.595 75.704 184.595 80.444" fill="#606060"/><polygon points="184.595 86.743 178.917 92.413 178.917 87.672 184.595 82.003 184.595 86.743" fill="#606060"/><polygon points="184.595 93.043 178.917 98.712 178.917 93.971 184.595 88.302 184.595 93.043" fill="#606060"/><path d="M195.9008,23.32474l-2.51822,3.87711a.44581.44581,0,0,1-.38454.1868.43992.43992,0,0,1-.3773-.19664L190.294,23.32474h-1.75671L192.261,29.4499a.95549.95549,0,0,0,1.48448.01252l3.91206-6.13768Z" fill="#404040"/><path d="M187.29165,24.48133V23.32474h-5.67086a1.19135,1.19135,0,0,0-1.28669,1.064V28.566a1.19135,1.19135,0,0,0,1.28669,1.064h5.67086V28.47338h-5.13a.39711.39711,0,0,1-.4289-.35467v-.70839a.39711.39711,0,0,1,.4289-.35467h5.13V25.89906h-5.13a.39711.39711,0,0,1-.4289-.35467V24.836a.39711.39711,0,0,1,.4289-.35467Z" fill="#404040"/><path d="M208.68055,24.48133V23.32474H201.723v3.73091h5.13a.39712.39712,0,0,1,.4289.35467v.70839a.39712.39712,0,0,1-.4289.35467h-5.13V29.63h5.67086a1.19135,1.19135,0,0,0,1.28669-1.064V26.96307a1.19135,1.19135,0,0,0-1.28669-1.064h-4.27221V24.48133Z" fill="#404040"/><rect x="197.24483" y="25.89906" width="3.11173" height="1.1437" fill="#404040"/><rect x="320.93193" y="25.9995" width="9.19917" height="5.66929" rx="0.85039" ry="0.85039" stroke="#4e4e4e" stroke-miterlimit="10"/><rect x="323.48428" y="12.36185" width="35.27559" height="90.70866" rx="2.83465" ry="2.83465" stroke="#4e4e4e" stroke-miterlimit="10"/><path d="M344.27168,99.5272h-6.29922a2.51968,2.51968,0,0,1-2.51968-2.51968l1.25984-45.35433a2.51969,2.51969,0,0,1,2.51969-2.51969h3.77952a2.51969,2.51969,0,0,1,2.51969,2.51969l1.25984,45.35433A2.51968,2.51968,0,0,1,344.27168,99.5272Z" fill="#fff"/><path d="M329.07483,16.38547H353.1693a1.41734,1.41734,0,0,1,1.41734,1.41734v51.0236a1.41732,1.41732,0,0,1-1.41732,1.41732H329.07484a1.41734,1.41734,0,0,1-1.41734-1.41734V17.8028A1.41732,1.41732,0,0,1,329.07483,16.38547Z" fill="#404040" stroke="gray" stroke-miterlimit="10" stroke-width="0.5"/><path d="M329.4668,18.72828h1.749a2.88485,2.88485,0,0,1,3.17773,3.23828c0,2.16895-1.17871,3.29786-3.11816,3.29786H329.4668Zm1.66894,5.59668c1.31934,0,2.06836-.749,2.06836-2.3584,0-1.59961-.749-2.29882-2.06836-2.29882H330.626V24.325Z" fill="#a5a5a5"/><path d="M335.7168,18.72828h2.05859c1.44922,0,2.52832.5,2.52832,2.01856,0,1.44922-1.0791,2.11914-2.48828,2.11914H336.876v2.39844H335.7168Zm2.00879,3.208c.96972,0,1.43945-.38965,1.43945-1.18945,0-.81934-.50977-1.08887-1.47949-1.08887H336.876v2.27832Z" fill="#a5a5a5"/><path d="M340.84668,22.32594h2.37891v.83984h-2.37891Z" fill="#a5a5a5"/><path d="M344.08691,24.325h1.41895V20.14723h-1.16992V19.4275a4.2469,4.2469,0,0,0,1.46972-.51953h.85938v5.417h1.249v.93946h-3.82715Z" fill="#a5a5a5"/><path d="M348.877,22.05641c0-2.14844.83887-3.26856,2.15821-3.26856s2.15918,1.12989,2.15918,3.26856c0,2.14844-.83985,3.32812-2.15918,3.32812S348.877,24.20485,348.877,22.05641Zm3.21778,0c0-1.79883-.43946-2.36914-1.05957-2.36914-.60938,0-1.05957.57031-1.05957,2.36914s.45019,2.42871,1.05957,2.42871C351.65527,24.48512,352.09473,23.85524,352.09473,22.05641Z" fill="#a5a5a5"/><polygon points="318.842 28.845 312.648 17.208 312.648 40.481 318.842 28.845" fill="#a9c0fd"/><path d="M28.34961,353.22047H31c1.63086,0,2.87891.57617,2.87891,2.32715a2.19451,2.19451,0,0,1-1.55957,2.24219l1.87109,3.27441H32.63086l-1.69141-3.07031H29.74023v3.07031H28.34961Zm2.50586,3.66992c1.06836,0,1.65625-.45508,1.65625-1.34277,0-.89942-.58789-1.21192-1.65625-1.21192H29.74023v2.55469Z" fill="#cacaca"/><path d="M35.17773,353.365a.85492.85492,0,1,1,.85157.7793A.79192.79192,0,0,1,35.17773,353.365Zm.15625,1.81055h1.37891v5.88867H35.334Z" fill="#cacaca"/><path d="M39.72461,360.44117h-.03516l-.12109.623H38.47754v-8.4668h1.37988V354.78l-.03711.9834a2.689,2.689,0,0,1,1.70313-.73145c1.47558,0,2.32715,1.17481,2.32715,2.98633,0,2.02637-1.21192,3.19043-2.51856,3.19043A2.35824,2.35824,0,0,1,39.72461,360.44117Zm2.69922-2.39941c0-1.17481-.38477-1.87012-1.27149-1.87012a1.88037,1.88037,0,0,0-1.29492.65918v2.7461a1.83359,1.83359,0,0,0,1.18653.49218C41.82422,360.0691,42.42383,359.37379,42.42383,358.04176Z" fill="#cacaca"/><path d="M46.48047,360.44117h-.03516l-.12109.623H45.2334v-8.4668h1.37988V354.78l-.03711.9834a2.689,2.689,0,0,1,1.70313-.73145c1.47558,0,2.32715,1.17481,2.32715,2.98633,0,2.02637-1.21192,3.19043-2.51856,3.19043A2.35824,2.35824,0,0,1,46.48047,360.44117Zm2.69922-2.39941c0-1.17481-.38477-1.87012-1.27149-1.87012a1.88037,1.88037,0,0,0-1.29492.65918v2.7461a1.83358,1.83358,0,0,0,1.18652.49218C48.58008,360.0691,49.17969,359.37379,49.17969,358.04176Z" fill="#cacaca"/><path d="M51.60547,358.12574a2.8137,2.8137,0,1,1,2.79492,3.083A2.84883,2.84883,0,0,1,51.60547,358.12574Zm4.18555,0c0-1.18652-.52735-1.96679-1.39063-1.96679s-1.37988.78027-1.37988,1.96679c0,1.17579.5166,1.95508,1.37988,1.95508S55.791,359.30153,55.791,358.12574Z" fill="#cacaca"/><path d="M58.57715,355.17555H59.7168l.0957.792h.04785A2.73787,2.73787,0,0,1,61.791,355.032c1.25976,0,1.81152.85157,1.81152,2.33887v3.69336H62.22266v-3.51367c0-.97168-.27539-1.33106-.92286-1.33106a1.865,1.865,0,0,0-1.34277.73145v4.11328H58.57715Z" fill="#cacaca"/><path d="M64.709,360.39332l.64844-.88769a2.62172,2.62172,0,0,0,1.63086.65918c.63477,0,.93555-.29981.93555-.707,0-.49219-.63672-.708-1.25977-.94825-.77929-.28711-1.65429-.73144-1.65429-1.71484,0-1.03125.82617-1.7627,2.14648-1.7627a3.18791,3.18791,0,0,1,1.95508.707l-.63672.83984a2.19051,2.19051,0,0,0-1.29492-.50391c-.58789,0-.86328.27637-.86328.64746,0,.46778.58789.64844,1.22265.876.80469.2998,1.69141.68359,1.69141,1.78711,0,1.00781-.80274,1.82324-2.291,1.82324A3.73773,3.73773,0,0,1,64.709,360.39332Z" fill="#cacaca"/><path d="M27.919,291.99977h2.50683c1.61914,0,2.80664.49218,2.80664,1.93164a1.769,1.769,0,0,1-1.0918,1.70312v.04785a1.791,1.791,0,0,1,1.499,1.8584c0,1.57129-1.2832,2.30274-3.00977,2.30274H27.919Zm2.38671,3.23828c1.0918,0,1.55957-.43164,1.55957-1.10352,0-.76758-.51562-1.05468-1.53515-1.05468H29.31055v2.1582Zm.17969,3.52637c1.15137,0,1.79883-.41993,1.79883-1.29493,0-.82812-.623-1.1875-1.79883-1.1875h-1.1748v2.48243Z" fill="#cacaca"/><path d="M34.5791,296.905A2.86571,2.86571,0,0,1,37.29,293.81129c1.59473,0,2.43457,1.15137,2.43457,2.79395a3.26945,3.26945,0,0,1-.05957.67187H35.92285a1.68542,1.68542,0,0,0,1.73926,1.64356,2.45839,2.45839,0,0,0,1.36719-.43262l.46777.86426a3.72474,3.72474,0,0,1-2.01562.63574A2.84,2.84,0,0,1,34.5791,296.905Zm3.94629-.56348c0-.91113-.39551-1.46289-1.19922-1.46289a1.47769,1.47769,0,0,0-1.415,1.46289Z" fill="#cacaca"/><path d="M41.04688,293.95485h1.13964l.09571.792h.04785a2.73412,2.73412,0,0,1,1.93066-.93555c1.25977,0,1.81153.85156,1.81153,2.33887v3.69336H44.69238v-3.51367c0-.97168-.27539-1.33106-.92285-1.33106a1.86844,1.86844,0,0,0-1.34375.73145v4.11328h-1.3789Z" fill="#cacaca"/><path d="M47.40723,296.905c0-1.91894,1.21093-3.09375,2.49414-3.09375a2.177,2.177,0,0,1,1.54785.64746l-.04785-.94726v-2.13477h1.3789v8.4668H51.64062l-.0957-.63574h-.04785a2.4546,2.4546,0,0,1-1.667.78027C48.35449,299.98805,47.40723,298.8484,47.40723,296.905Zm3.99414,1.2832v-2.74609a1.75837,1.75837,0,0,0-1.2002-.49121c-.75488,0-1.36719.707-1.36719,1.94238,0,1.27149.48047,1.95508,1.332,1.95508A1.59157,1.59157,0,0,0,51.40137,298.18824Z" fill="#cacaca"/><path d="M54.15039,296.905a2.86571,2.86571,0,0,1,2.71094-3.09375c1.59472,0,2.43457,1.15137,2.43457,2.79395a3.27016,3.27016,0,0,1-.05957.67187H55.49414a1.68542,1.68542,0,0,0,1.73926,1.64356,2.45839,2.45839,0,0,0,1.36719-.43262l.46777.86426a3.72475,3.72475,0,0,1-2.01563.63574A2.84,2.84,0,0,1,54.15039,296.905Zm3.94629-.56348c0-.91113-.39551-1.46289-1.19922-1.46289a1.47769,1.47769,0,0,0-1.415,1.46289Z" fill="#cacaca"/><path d="M60.61816,293.95485h1.13965l.09571,1.04394h.04785a2.00155,2.00155,0,0,1,1.667-1.1875,1.49354,1.49354,0,0,1,.67187.12012l-.23925,1.19922a1.91275,1.91275,0,0,0-.61231-.09668c-.46777,0-1.03125.32422-1.39062,1.21191v3.59766H60.61816Z" fill="#cacaca"/><rect x="27.88686" y="262.27752" width="34.92463" height="22.40932" rx="2.83465" ry="2.83465" stroke="#666" stroke-miterlimit="10" stroke-width="0.75"/><rect x="30.61175" y="264.31473" width="29.47486" height="18.3349" rx="2.83465" ry="2.83465" fill="#363636"/><ellipse cx="45.34918" cy="273.48218" rx="11.30482" ry="7.67574"/><ellipse cx="43.42657" cy="272.53545" rx="4.6763" ry="3.17511" fill="#363636"/><rect x="26.92398" y="314.72555" width="141.73228" height="25.51181" rx="2.83465" ry="2.83465" fill="#363636" stroke="#666" stroke-miterlimit="10"/><path d="M29.75863,314.72555h136.063a2.83465,2.83465,0,0,1,2.83465,2.83465v8.3424a0,0,0,0,1,0,0H26.924a0,0,0,0,1,0,0v-8.3424A2.83465,2.83465,0,0,1,29.75863,314.72555Z" stroke="#666" stroke-miterlimit="10"/><circle cx="42.37393" cy="320.5602" r="2.83465" fill="#b86f67"/><circle cx="64.64614" cy="320.5602" r="2.83465" fill="#b86f67"/><circle cx="86.91836" cy="320.5602" r="2.83465" fill="#b86f67"/><circle cx="109.19058" cy="320.5602" r="2.83465" fill="#b86f67"/><circle cx="131.46279" cy="320.5602" r="2.83465" fill="#b86f67"/><circle cx="153.73501" cy="320.5602" r="2.83465" fill="#b86f67"/><rect x="101.59065" y="348.30862" width="141.73228" height="25.51181" rx="2.83465" ry="2.83465" fill="#363636" stroke="#666" stroke-miterlimit="10"/><path d="M104.4253,348.30862h136.063a2.83465,2.83465,0,0,1,2.83465,2.83465v8.3424a0,0,0,0,1,0,0H101.59065a0,0,0,0,1,0,0v-8.3424A2.83465,2.83465,0,0,1,104.4253,348.30862Z" stroke="#666" stroke-miterlimit="10"/><circle cx="117.04059" cy="354.14327" r="2.83465" fill="#b86f67"/><circle cx="139.31281" cy="354.14327" r="2.83465" fill="#b86f67"/><circle cx="161.58503" cy="354.14327" r="2.83465" fill="#b86f67"/><circle cx="183.85724" cy="354.14327" r="2.83465" fill="#b86f67"/><circle cx="206.12946" cy="354.14327" r="2.83465" fill="#b86f67"/><circle cx="228.40167" cy="354.14327" r="2.83465" fill="#b86f67"/><path d="M266.9375,22.741c0-2.10938,1.23926-3.39844,2.9082-3.39844a2.39189,2.39189,0,0,1,1.79883.80957l-.44922.54a1.79071,1.79071,0,0,0-1.33984-.62012c-1.23926,0-2.05859,1.01953-2.05859,2.64844,0,1.64941.79,2.68848,2.02929,2.68848a1.97738,1.97738,0,0,0,1.51856-.73926l.46.51953a2.53707,2.53707,0,0,1-2.00879.9502C268.15723,26.13942,266.9375,24.87965,266.9375,22.741Z" fill="#a9c0fd"/><path d="M272.58789,23.60035a2.26732,2.26732,0,1,1,4.49707,0,2.26516,2.26516,0,1,1-4.49707,0Zm3.64746,0c0-1.11914-.55957-1.8789-1.39941-1.8789-.8291,0-1.39942.75976-1.39942,1.8789,0,1.10938.57032,1.85938,1.39942,1.85938C275.67578,25.45973,276.23535,24.70973,276.23535,23.60035Z" fill="#a9c0fd"/><path d="M278.36719,21.16188h.67969l.07031.69922h.02929a2.28981,2.28981,0,0,1,1.62891-.81934c1.01953,0,1.47949.65918,1.47949,1.89941V26.0193h-.81933V23.05055c0-.90918-.28028-1.29883-.91993-1.29883-.499,0-.83886.25977-1.3291.749V26.0193h-.81933Z" fill="#a9c0fd"/><path d="M283.97754,24.52028V21.8318h-.71973v-.62012l.75977-.0498.09961-1.35938h.68945v1.35938h1.30957v.66992h-1.30957V24.53c0,.59961.19043.93945.75.93945a1.77792,1.77792,0,0,0,.54981-.12988l.15917.61914a3,3,0,0,1-.89941.18067C284.32715,26.13942,283.97754,25.47926,283.97754,24.52028Z" fill="#a9c0fd"/><path d="M287.06738,19.63258a.57138.57138,0,0,1,1.13965,0,.57138.57138,0,0,1-1.13965,0Zm.14942,1.5293h.82031V26.0193h-.82031Z" fill="#a9c0fd"/><path d="M289.67676,21.16188h.67969l.07031.69922h.03027a2.288,2.288,0,0,1,1.62891-.81934c1.01953,0,1.47949.65918,1.47949,1.89941V26.0193h-.82031V23.05055c0-.90918-.2793-1.29883-.91895-1.29883-.5,0-.83984.25977-1.3291.749V26.0193h-.82031Z" fill="#a9c0fd"/><path d="M294.78711,23.60035a2.26775,2.26775,0,1,1,4.49805,0,2.26559,2.26559,0,1,1-4.49805,0Zm3.64844,0c0-1.11914-.56055-1.8789-1.39942-1.8789-.83008,0-1.39941.75976-1.39941,1.8789,0,1.10938.56933,1.85938,1.39941,1.85938C297.875,25.45973,298.43555,24.70973,298.43555,23.60035Z" fill="#a9c0fd"/><path d="M300.49707,24.24V21.16188h.8291v2.96777c0,.91016.27051,1.2998.91016,1.2998.499,0,.84961-.25,1.30859-.81933V21.16188h.82031V26.0193h-.67968l-.07032-.75977H303.585a2.05411,2.05411,0,0,1-1.59863.87989C300.957,26.13942,300.49707,25.47926,300.49707,24.24Z" fill="#a9c0fd"/><path d="M305.4668,25.46949l.41015-.5498a2.185,2.185,0,0,0,1.42871.58008c.63965,0,.96-.33985.96-.75977,0-.5-.58007-.71972-1.10937-.91992-.68945-.25-1.44922-.5791-1.44922-1.39941,0-.7793.61914-1.37891,1.669-1.37891a2.42282,2.42282,0,0,1,1.50879.5498l-.38965.51954a1.8014,1.8014,0,0,0-1.10938-.42969c-.60937,0-.88965.33008-.88965.69922,0,.46.53028.62988,1.08008.83984.69922.25977,1.47852.54981,1.47852,1.46973,0,.78906-.62891,1.44922-1.77832,1.44922A2.92592,2.92592,0,0,1,305.4668,25.46949Z" fill="#a9c0fd"/><path d="M274.752,30.46266h.999l1.25976,3.498c.16016.4502.30957.91993.46973,1.36915h.04c.16015-.44922.29-.919.44922-1.36915l1.23925-3.498h1.00977V37.0193h-.7793V33.4109c0-.5791.06934-1.35937.10938-1.93848h-.04l-.51953,1.48926L277.75,36.35914h-.5498l-1.23926-3.39746-.51953-1.48926h-.04c.04.57911.09961,1.35938.09961,1.93848v3.6084h-.749Z" fill="#a9c0fd"/><path d="M281.582,34.60035a2.26775,2.26775,0,1,1,4.49805,0,2.26559,2.26559,0,1,1-4.49805,0Zm3.64844,0c0-1.11914-.56055-1.8789-1.39942-1.8789-.83007,0-1.39941.75976-1.39941,1.8789,0,1.10938.56934,1.85938,1.39941,1.85938C284.66992,36.45973,285.23047,35.70973,285.23047,34.60035Z" fill="#a9c0fd"/><path d="M287.01172,34.60035a2.30047,2.30047,0,0,1,2.10937-2.55859,2.00243,2.00243,0,0,1,1.35938.55957l-.04-.8291V29.90309h.8291V37.0193h-.67969l-.06933-.57031h-.03028a2.19091,2.19091,0,0,1-1.46972.69043C287.80176,37.13942,287.01172,36.21949,287.01172,34.60035ZM290.44043,35.78V33.241a1.6911,1.6911,0,0,0-1.17969-.50977c-.77929,0-1.39941.75-1.39941,1.85938,0,1.15918.49023,1.8584,1.33984,1.8584A1.64636,1.64636,0,0,0,290.44043,35.78Z" fill="#a9c0fd"/><path d="M292.55176,34.60035a2.34264,2.34264,0,0,1,2.17871-2.55859c1.23926,0,1.93945.88965,1.93945,2.27832a3.2298,3.2298,0,0,1-.03027.46973h-3.27832a1.61059,1.61059,0,0,0,1.61914,1.68945,2.1874,2.1874,0,0,0,1.209-.37988l.29.54a2.89517,2.89517,0,0,1-1.59863.5A2.32322,2.32322,0,0,1,292.55176,34.60035Zm3.39844-.39941c0-.97949-.44043-1.50977-1.19922-1.50977a1.50032,1.50032,0,0,0-1.39942,1.50977Z" fill="#a9c0fd"/><path d="M299.90137,36.5193a.5963.5963,0,1,1,1.18945,0,.59525.59525,0,1,1-1.18945,0Zm.20019-5.25684-.02051-.93945h.83008l-.02051.93945-.10937,3.77735h-.57031Z" fill="#a9c0fd"/></svg>