<svg xmlns="http://www.w3.org/2000/svg" viewBox="0 0 131 30"><title>usb-b</title><rect x="40.44797" y="5.35234" width="17.95377" height="19.29533" transform="translate(34.42485 64.42485) rotate(-90)" fill="#f2f2f2" stroke="#000" stroke-miterlimit="10" stroke-width="0.5"/><rect x="45.76523" y="16.99256" width="4.6493" height="4.6493" transform="translate(28.77268 67.40709) rotate(-90)" fill="#333"/><rect x="45.76523" y="8.35814" width="4.6493" height="4.6493" transform="translate(37.40709 58.77268) rotate(-90)" fill="#333"/><path d="M58.46973,28.12793V1.87207h67.15918a3.15374,3.15374,0,0,1,3.15039,3.15039V24.97754a3.15374,3.15374,0,0,1-3.15039,3.15039Z"/><path d="M125.62939,2.02209a3.00008,3.00008,0,0,1,3,3V24.97791a3.00008,3.00008,0,0,1-3,3H58.62061V2.02209h67.00878m0-.3H58.32062V28.278h67.30877a3.30378,3.30378,0,0,0,3.3-3.3V5.02209a3.30378,3.30378,0,0,0-3.3-3.3Z" fill="#b3b3b3"/><path d="M82.23987-18.28371h22.81648a0,0,0,0,1,0,0V46.28371a2,2,0,0,1-2,2H84.23987a2,2,0,0,1-2-2V-18.28371a0,0,0,0,1,0,0Z" transform="translate(78.64811 108.64811) rotate(-90)" fill="#333"/><path d="M126.27454,5.25593V24.74407a1,1,0,0,1-1,1H60.93927V4.25593h64.33527A1,1,0,0,1,126.27454,5.25593Z" fill="#1a1a1a"/><path d="M77.93389,17.12749,76.65344,14.7618h-.059v2.36569h-1.003V13.13334h1.245l1.28033,2.35992h.05307V13.13334H79.1727v3.99415Z" fill="#fff"/><path d="M79.96854,14.89132a1.82323,1.82323,0,0,1,3.64629,0v.47793a1.82323,1.82323,0,0,1-3.64629,0Zm1.00314.372c0,.74329.28322.99682.82.99682.537,0,.82013-.25353.82013-.99682v-.25986c0-.74354-.28309-1.00288-.82013-1.00288-.53679,0-.82.25934-.82,1.00288Z" fill="#fff"/><path d="M86.75324,17.12749,85.47278,14.7618h-.059v2.36569H84.41093V13.13334h1.24485l1.2802,2.35992h.0532V13.13334h1.00288v3.99415Z" fill="#fff"/><path d="M88.91768,13.13334h1.00314V16.2129h1.71095v.91459H88.91768Z" fill="#fff"/><path d="M93.2597,17.12749H92.25656V13.13334H93.2597Z" fill="#fff"/><path d="M96.52791,17.12749,95.24758,14.7618h-.05885v2.36569H94.18559V13.13334h1.24486l1.28033,2.35992h.05307V13.13334H97.767v3.99415Z" fill="#fff"/><path d="M98.71021,17.12749V13.13334h2.83207v.91434H99.71335v.61952h1.49839v.88517H99.71335v.69022h1.82893v.8849Z" fill="#fff"/><path d="M103.36463,13.13334h1.22725l1.36913,3.99415h-1.0683l-.21228-.67839h-1.40408l-.21256.67839H101.996Zm.171,2.43086h.88517l-.41276-1.31606h-.05939Z" fill="#fff"/><path d="M107.931,15.81775h-.39568v1.30974h-1.00288V13.13334h1.56934a1.2812,1.2812,0,0,1,1.45714,1.33918,1.13748,1.13748,0,0,1-.71964,1.17418l.98527,1.48079h-1.16235Zm.0352-.88492c.4012,0,.59011-.08276.59011-.44848,0-.33027-.2186-.43667-.59011-.43667h-.43088v.88515Z" fill="#fff"/><path d="M110.72683,13.13334h.43017v3.6231h1.924v.37105h-2.35414Z" fill="#fff" stroke="#fff" stroke-width="0.15"/><path d="M116.85029,17.12749h-.48618l-.29239-.92348h-1.85257l-.29239.92348h-.48618l1.42194-3.99415h.56583ZM115.169,13.55792h-.047l-.80239,2.269h1.65183Z" fill="#fff" stroke="#fff" stroke-width="0.15"/><path d="M119.55221,14.99774v.01759a1.01788,1.01788,0,0,1,.83451,1.00892c0,.73751-.46273,1.14138-1.38336,1.14138H117.62V13.09521h1.25959c.87335,0,1.33607.39782,1.33607,1.02918A.86563.86563,0,0,1,119.55221,14.99774Zm-.62558-.15636c.5783,0,.85886-.21542.85886-.6873,0-.51944-.25691-.68781-.93557-.68781h-.79948v1.37511Zm-.87619.37158v1.58161h.9177c.73725,0,.9884-.192.9884-.794,0-.55463-.33969-.78764-.97052-.78764Z" fill="#fff" stroke="#fff" stroke-width="0.15"/><path d="M121.28363,14.08314c0-.57225.55126-1.03523,1.324-1.03523a2.001,2.001,0,0,1,1.18023.34813l-.19469.3122a1.67745,1.67745,0,0,0-.9795-.28927c-.578,0-.9001.22172-.9001.66417,0,.43667.17443.61083.94162.81156.93219.24776,1.324.6222,1.324,1.25935,0,.61953-.49212,1.05887-1.3891,1.05887a2.50426,2.50426,0,0,1-1.32159-.39542l.19469-.31825a2.04888,2.04888,0,0,0,1.1269.34235c.63739,0,.95921-.21567.95921-.68755,0-.47793-.22749-.67-1.00624-.8762C121.59291,15.02405,121.28363,14.64356,121.28363,14.08314Z" fill="#fff" stroke="#fff" stroke-width="0.15"/><path d="M66.67351,12.14464c1.81565,0,2.26425,4.37429,3.39438,4.37429,1.42042,0,3.07838-4.87566,3.07838-5.407a.84149.84149,0,0,0-.92748-.92839h-8.012a.84134.84134,0,0,0-.92746.92839v6.47979c.63167-2.72125,2.01217-5.44708,3.3942-5.44708Zm3.07854,5.94476c-1.81641,0-2.259-4.3743-3.39437-4.3743-1.42072,0-3.07837,4.87567-3.07837,5.40639a.84167.84167,0,0,0,.92746.929h8.012a.84181.84181,0,0,0,.92748-.929V12.642C72.51505,15.36326,71.13379,18.0894,69.75205,18.0894Z" fill="#fff"/><path d="M4.37012,28.12793a3.15373,3.15373,0,0,1-3.15039-3.15039V5.02246A3.15373,3.15373,0,0,1,4.37012,1.87207H31.5293V28.12793Z"/><path d="M31.37939,2.02209V27.97791H4.37061a3.00008,3.00008,0,0,1-3-3V5.02209a3.00008,3.00008,0,0,1,3-3H31.37939m.3-.3H4.37061a3.30378,3.30378,0,0,0-3.3,3.3V24.97791a3.30378,3.30378,0,0,0,3.3,3.3H31.67938V1.72205Z" fill="#b3b3b3"/><path d="M4.94363,1.71629H27.76011a0,0,0,0,1,0,0V26.28371a2,2,0,0,1-2,2H6.94363a2,2,0,0,1-2-2V1.71629A0,0,0,0,1,4.94363,1.71629Z" transform="translate(31.35187 -1.35187) rotate(90)" fill="#333"/><path d="M3.72544,24.74407V5.25593a1,1,0,0,1,1-1H29.06071V25.74407H4.72544A1,1,0,0,1,3.72544,24.74407Z" fill="#1a1a1a"/><path d="M12.0651,17.55466l1.58158,1.56723a4.60836,4.60836,0,0,1-3.205,1.29921c-2.61247,0-4.321-1.38346-4.321-4.32088V14.95639c0-2.93646,1.70855-4.32024,4.321-4.32024a4.61044,4.61044,0,0,1,3.205,1.299L12.0651,13.50227a2.16516,2.16516,0,0,0-1.66612-.67768c-1.214,0-1.87769.67768-1.87769,2.41464v.56443c0,1.73711.66366,2.42868,1.87769,2.42868A2.1646,2.1646,0,0,0,12.0651,17.55466Z" fill="#fff"/><path d="M18.28112,20.30784h-1.032V11.74808l-2.62308.97878-.2833-.71489,3.23275-1.39524h.70562Z" fill="#fff"/><path d="M23.25944,14.9387a3.08678,3.08678,0,0,0-2.49608.8595l-.51553-.11357v-5.0679h5.67743v.89017H21.27981V14.497a3.94463,3.94463,0,0,1,2.15-.44859A3.016,3.016,0,0,1,26.583,17.24483c0,2.14132-1.4946,3.26683-3.57882,3.26683a5.11322,5.11322,0,0,1-2.99787-.87925l.55857-.76256a3.99522,3.99522,0,0,0,2.4393.75165c1.47455,0,2.54686-.58977,2.54686-2.37667A2.01609,2.01609,0,0,0,23.25944,14.9387Z" fill="#fff"/></svg>