<svg xmlns="http://www.w3.org/2000/svg" width="291.04mm" height="281.16228mm" viewBox="0 0 824.99528 796.99544"><title>pedal-setup-web</title><rect x="0.79688" y="0.43629" width="823.40625" height="795.45508" rx="3.5" ry="3.5" fill="#141414"/><path d="M820.70288.93608a3.00331,3.00331,0,0,1,3,3V792.39186a3.00336,3.00336,0,0,1-3,3H4.29724a3.00336,3.00336,0,0,1-3-3V3.93608a3.00331,3.00331,0,0,1,3-3H820.70288m0-1H4.29724a3.99994,3.99994,0,0,0-4,4V792.39186a4,4,0,0,0,4,4H820.70288a4,4,0,0,0,4-4V3.93608a3.99994,3.99994,0,0,0-4-4Z" fill="#363636"/><path d="M53.55,291.90489h719.1529a0,0,0,0,1,0,0v32.95335a5.66929,5.66929,0,0,1-5.66929,5.66929H59.21926A5.66929,5.66929,0,0,1,53.55,324.85824V291.90489A0,0,0,0,1,53.55,291.90489Z" fill="#4e4e4e"/><rect x="53.54997" y="379.80482" width="719.1529" height="80.4349" rx="5.66929" ry="5.66929" fill="#4e4e4e"/><path d="M72.53711,303.82031h4.94434c3.48046,0,6.07226,1.2002,6.07226,4.84864,0,3.48046-2.5918,5.08789-5.97656,5.08789H75.32129v5.76074H72.53711Zm4.82422,7.7041c2.32812,0,3.45605-.93554,3.45605-2.85546,0-1.96875-1.22363-2.61622-3.55176-2.61622H75.32129v5.47168Z" fill="#cacaca"/><path d="M84.96875,313.63672c0-3.83984,2.66406-6.19238,5.42383-6.19238,3.19238,0,4.873,2.30468,4.873,5.59277a6.40764,6.40764,0,0,1-.12011,1.34375H87.65625a3.37325,3.37325,0,0,0,3.48047,3.28809,4.92376,4.92376,0,0,0,2.73633-.86329l.93652,1.72754a7.43731,7.43731,0,0,1-4.03223,1.27246C87.5127,319.80566,84.96875,317.52539,84.96875,313.63672Zm7.89648-1.12793c0-1.82422-.792-2.92774-2.40039-2.92774-1.3916,0-2.59179,1.03223-2.832,2.92774Z" fill="#cacaca"/><path d="M97.18457,313.63672c0-3.83984,2.42383-6.19238,4.99219-6.19238a4.3531,4.3531,0,0,1,3.09668,1.29589l-.09668-1.8955v-4.27246h2.76074v16.94531h-2.28027l-.19239-1.27246h-.0957a4.91149,4.91149,0,0,1-3.33594,1.56054C99.08105,319.80566,97.18457,317.52539,97.18457,313.63672Zm7.99219,2.56836V310.709a3.50829,3.50829,0,0,0-2.39942-.98437c-1.51269,0-2.73632,1.416-2.73632,3.88867,0,2.544.96,3.91211,2.66406,3.91211A3.18057,3.18057,0,0,0,105.17676,316.20508Z" fill="#cacaca"/><path d="M110.81641,316.34961c0-2.52051,2.08789-3.84082,6.93652-4.36914-.04785-1.24805-.55176-2.30371-2.16016-2.30371a6.717,6.717,0,0,0-3.3125,1.15234l-1.00781-1.84863a9.22476,9.22476,0,0,1,4.84863-1.53613c2.92774,0,4.39258,1.80078,4.39258,5.08886v6.98438H118.2334l-.19238-1.2959h-.09571a5.73968,5.73968,0,0,1-3.64843,1.584A3.29468,3.29468,0,0,1,110.81641,316.34961Zm6.93652,0V313.709c-3.21582.40821-4.27246,1.248-4.27246,2.42383,0,1.05664.7207,1.5127,1.7041,1.5127A3.74691,3.74691,0,0,0,117.75293,316.34961Z" fill="#cacaca"/><path d="M123.82422,316.49316V302.57227H126.585V316.6377c0,.67187.31152.9121.59961.9121a1.63338,1.63338,0,0,0,.43262-.04882l.35937,2.06445a3.75517,3.75517,0,0,1-1.46386.24023C124.54492,319.80566,123.82422,318.5332,123.82422,316.49316Z" fill="#cacaca"/><path d="M129.15234,318.17383l1.2959-1.77637a5.25014,5.25014,0,0,0,3.26465,1.32031c1.27149,0,1.87207-.60058,1.87207-1.416,0-.98438-1.27246-1.417-2.52051-1.89649-1.55957-.57617-3.3125-1.46386-3.3125-3.43261,0-2.06446,1.65625-3.52832,4.29688-3.52832a6.36171,6.36171,0,0,1,3.91211,1.416l-1.27246,1.68067a4.38019,4.38019,0,0,0-2.5918-1.00782c-1.17578,0-1.72852.55176-1.72852,1.2959,0,.93555,1.17676,1.2959,2.44825,1.752,1.60839.59961,3.38476,1.36817,3.38476,3.57618,0,2.0166-1.6084,3.64843-4.585,3.64843A7.46769,7.46769,0,0,1,129.15234,318.17383Z" fill="#cacaca"/><path d="M72.53809,398.56836h3.14453L78.4668,406.249c.33593.98438.67187,2.04,1.00781,3.07227h.0957c.33594-1.03223.64844-2.08789.98438-3.07227l2.71191-7.68066h3.169v15.69726H83.86719v-7.17675c0-1.46387.21582-3.55176.36035-4.99219h-.09668l-1.27148,3.64844L80.291,412.80176H78.63477L76.042,405.74512l-1.248-3.64844h-.09571c.12012,1.44043.36035,3.52832.36035,4.99219v7.17675h-2.5205Z" fill="#cacaca"/><path d="M89.55371,411.09766c0-2.52051,2.08789-3.84082,6.93652-4.36914-.04785-1.248-.55175-2.30372-2.16015-2.30372a6.71692,6.71692,0,0,0-3.3125,1.15235l-1.00781-1.84863a9.22474,9.22474,0,0,1,4.84863-1.53614c2.92773,0,4.39258,1.80078,4.39258,5.08887v6.98437H96.9707l-.19238-1.29589h-.0957a5.73973,5.73973,0,0,1-3.64844,1.584A3.2947,3.2947,0,0,1,89.55371,411.09766Zm6.93652,0V408.457c-3.21582.4082-4.27246,1.24805-4.27246,2.42383,0,1.05664.72071,1.51269,1.70411,1.51269A3.74687,3.74687,0,0,0,96.49023,411.09766Z" fill="#cacaca"/><path d="M101.794,408.38477a5.81281,5.81281,0,0,1,5.90429-6.19239,5.078,5.078,0,0,1,3.45606,1.32032l-1.34375,1.7998a2.88267,2.88267,0,0,0-1.96875-.86328c-1.89551,0-3.21582,1.55957-3.21582,3.93555,0,2.35253,1.2959,3.91308,3.14453,3.91308a3.92558,3.92558,0,0,0,2.42383-1.00879l1.12793,1.82422a5.88446,5.88446,0,0,1-3.83985,1.44043C104.26562,414.55371,101.794,412.29785,101.794,408.38477Z" fill="#cacaca"/><path d="M113.64941,402.48047h2.28028l.19238,2.08789h.0957a4.00267,4.00267,0,0,1,3.33594-2.376,2.99738,2.99738,0,0,1,1.34473.24024L120.418,404.833a3.84722,3.84722,0,0,0-1.22363-.19239c-.93653,0-2.06446.64844-2.78418,2.42481v7.20019h-2.76075Z" fill="#cacaca"/><path d="M121.59375,408.38477c0-3.93555,2.66406-6.19239,5.5918-6.19239,2.95312,0,5.61718,2.25684,5.61718,6.19239,0,3.91308-2.66406,6.16894-5.61718,6.16894C124.25781,414.55371,121.59375,412.29785,121.59375,408.38477Zm8.376,0c0-2.376-1.05567-3.93555-2.78418-3.93555-1.72754,0-2.75977,1.55957-2.75977,3.93555,0,2.35253,1.03223,3.91308,2.75977,3.91308C128.91406,412.29785,129.96973,410.7373,129.96973,408.38477Z" fill="#cacaca"/><path d="M71.72168,430.46484c0-5.13672,3.2168-8.18457,7.17676-8.18457a6.23046,6.23046,0,0,1,4.53613,1.99219l-1.4873,1.79981a4.09748,4.09748,0,0,0-2.97657-1.36817c-2.56836,0-4.39258,2.16016-4.39258,5.68848,0,3.57715,1.68067,5.7373,4.32032,5.7373a4.47129,4.47129,0,0,0,3.36035-1.6084l1.48828,1.752a6.33086,6.33086,0,0,1-4.94434,2.28027C74.8418,438.55371,71.72168,435.67383,71.72168,430.46484Z" fill="#cacaca"/><path d="M85.35352,432.38477c0-3.93555,2.66406-6.19239,5.59179-6.19239,2.95313,0,5.61719,2.25684,5.61719,6.19239,0,3.91308-2.66406,6.16894-5.61719,6.16894C88.01758,438.55371,85.35352,436.29785,85.35352,432.38477Zm8.376,0c0-2.376-1.05566-3.93555-2.78418-3.93555-1.72754,0-2.75976,1.55957-2.75976,3.93555,0,2.35253,1.03222,3.91308,2.75976,3.91308C92.67383,436.29785,93.72949,434.7373,93.72949,432.38477Z" fill="#cacaca"/><path d="M99.29785,426.48047h2.28027l.19239,1.584h.0957a5.47208,5.47208,0,0,1,3.86426-1.87207c2.52051,0,3.624,1.7041,3.624,4.68067v7.39257h-2.75976V431.2334c0-1.94434-.55176-2.665-1.84864-2.665-1.03125,0-1.7041.50488-2.6875,1.46484v8.23242H99.29785Z" fill="#cacaca"/><path d="M113.14551,434.28125V428.665h-1.67969v-2.06445l1.82324-.12012.33692-3.21582h2.30371v3.21582h3V428.665h-3v5.61621c0,1.39258.52832,2.06445,1.65625,2.06445a3.36467,3.36467,0,0,0,1.22363-.26465l.48047,2.041a7.5346,7.5346,0,0,1-2.40039.43164C114.15332,438.55371,113.14551,436.8252,113.14551,434.28125Z" fill="#cacaca"/><path d="M121.40137,426.48047h2.28027l.19238,2.08789h.09571a4.00266,4.00266,0,0,1,3.33593-2.376,2.99738,2.99738,0,0,1,1.34473.24024l-.48047,2.40039a3.84717,3.84717,0,0,0-1.22363-.19239c-.93652,0-2.06445.64844-2.78418,2.42481v7.20019h-2.76074Z" fill="#cacaca"/><path d="M129.3457,432.38477c0-3.93555,2.66407-6.19239,5.5918-6.19239,2.95312,0,5.61719,2.25684,5.61719,6.19239,0,3.91308-2.66407,6.16894-5.61719,6.16894C132.00977,438.55371,129.3457,436.29785,129.3457,432.38477Zm8.376,0c0-2.376-1.05566-3.93555-2.78418-3.93555-1.72754,0-2.75977,1.55957-2.75977,3.93555,0,2.35253,1.03223,3.91308,2.75977,3.91308C136.666,436.29785,137.72168,434.7373,137.72168,432.38477Z" fill="#cacaca"/><path d="M143.28906,435.24121v-13.9209h2.76074v14.06543c0,.67188.31153.91211.59961.91211a1.633,1.633,0,0,0,.43262-.04883l.35938,2.06446a3.75519,3.75519,0,0,1-1.46387.24023C144.00977,438.55371,143.28906,437.28125,143.28906,435.24121Z" fill="#cacaca"/><path d="M148.61719,436.92188l1.2959-1.77637a5.25012,5.25012,0,0,0,3.26464,1.32031c1.27149,0,1.87207-.60059,1.87207-1.416,0-.98437-1.27246-1.417-2.5205-1.89648-1.55957-.57617-3.3125-1.46387-3.3125-3.43262,0-2.06445,1.65625-3.52832,4.29687-3.52832a6.3617,6.3617,0,0,1,3.91211,1.416l-1.27246,1.68066a4.38022,4.38022,0,0,0-2.5918-1.00781c-1.17578,0-1.72851.55176-1.72851,1.2959,0,.93555,1.17676,1.2959,2.44824,1.75195,1.6084.59961,3.38477,1.36817,3.38477,3.57617,0,2.01661-1.6084,3.64844-4.585,3.64844A7.46771,7.46771,0,0,1,148.61719,436.92188Z" fill="#cacaca"/><path d="M352.05664,401.84375c0-5.34863,3.34961-8.52246,7.47363-8.52246a6.49137,6.49137,0,0,1,4.72364,2.07422l-1.54981,1.874a4.26125,4.26125,0,0,0-3.09961-1.42383c-2.67383,0-4.57324,2.249-4.57324,5.92285,0,3.72461,1.749,5.97364,4.499,5.97364a4.65658,4.65658,0,0,0,3.499-1.67481l1.5498,1.8252a6.59259,6.59259,0,0,1-5.14941,2.374C355.30566,410.2666,352.05664,407.26758,352.05664,401.84375Z" fill="#cacaca"/><path d="M366.25586,403.84375c0-4.09961,2.77441-6.44922,5.82422-6.44922,3.07422,0,5.84863,2.34961,5.84863,6.44922,0,4.07324-2.77441,6.42285-5.84863,6.42285C369.03027,410.2666,366.25586,407.917,366.25586,403.84375Zm8.72363,0c0-2.47461-1.10058-4.09961-2.89941-4.09961-1.79981,0-2.875,1.625-2.875,4.09961,0,2.44922,1.07519,4.07324,2.875,4.07324C373.87891,407.917,374.97949,406.293,374.97949,403.84375Z" fill="#cacaca"/><path d="M380.78125,406.81738V392.32129h2.875v14.64648c0,.69922.32422.94922.624.94922a1.72872,1.72872,0,0,0,.4502-.0498l.375,2.14941a3.914,3.914,0,0,1-1.52442.25C381.53125,410.2666,380.78125,408.94238,380.78125,406.81738Z" fill="#cacaca"/><path d="M386.75586,403.84375c0-4.09961,2.77441-6.44922,5.82422-6.44922,3.07422,0,5.84863,2.34961,5.84863,6.44922,0,4.07324-2.77441,6.42285-5.84863,6.42285C389.53027,410.2666,386.75586,407.917,386.75586,403.84375Zm8.72363,0c0-2.47461-1.10058-4.09961-2.89941-4.09961-1.79981,0-2.875,1.625-2.875,4.09961,0,2.44922,1.07519,4.07324,2.875,4.07324C394.37891,407.917,395.47949,406.293,395.47949,403.84375Z" fill="#cacaca"/><path d="M401.28027,397.69434h2.375l.2002,2.1748h.09961a4.17,4.17,0,0,1,3.47363-2.47461,3.12389,3.12389,0,0,1,1.40039.25l-.5,2.5a4.01024,4.01024,0,0,0-1.27441-.20019c-.97559,0-2.15039.6748-2.89942,2.52441v7.498h-2.875Z" fill="#cacaca"/><path d="M414.73145,408.292c4.42382-4.27344,7.19824-7.07324,7.19824-9.49707a2.4663,2.4663,0,0,0-2.625-2.75,4.39342,4.39342,0,0,0-3.09864,1.77442l-1.5996-1.59961a6.50615,6.50615,0,0,1,5.07324-2.44922,4.64567,4.64567,0,0,1,5.02343,4.874c0,2.82422-2.624,5.72363-5.77343,9.04785.82519-.07519,1.875-.1748,2.64941-.1748h3.89942v2.44922H414.73145Z" fill="#cacaca"/><path d="M372.88184,436.169A15.83354,15.83354,0,1,1,388.75293,452.04,15.84486,15.84486,0,0,1,372.88184,436.169Zm9.64746,8.623h6.998c3.84961,0,7.04883-1.59961,7.04883-5.27441a4.09076,4.09076,0,0,0-3.07422-4.19824v-.10059a4.271,4.271,0,0,0,2.249-3.874c0-3.52442-3.02442-4.44922-6.77344-4.44922H382.5293Zm4.72363-10.89746v-3.374h1.59961c1.5498,0,2.27441.44922,2.27441,1.54883,0,1.10058-.72461,1.82519-2.27441,1.82519Zm0,7.27344v-3.79981h1.94922c1.875,0,2.75.47559,2.75,1.79981s-.875,2-2.75,2Z" fill="#cacaca"/><rect x="377.38415" y="293.84547" width="22.66667" height="28.34646" fill="none"/><path d="M383.03809,317.99512c4.60156-4.44629,7.48828-7.3584,7.48828-9.87989a2.56522,2.56522,0,0,0-2.73047-2.86035,4.57,4.57,0,0,0-3.22363,1.84571l-1.66407-1.66407a6.76576,6.76576,0,0,1,5.27735-2.54785c3.17285,0,5.22656,2.002,5.22656,5.07031,0,2.9375-2.73047,5.95411-6.00586,9.41211.85742-.07812,1.9502-.18164,2.75586-.18164h4.05664v2.54785H383.03809Z" fill="#cacaca"/><path d="M205.44141,401.84375c0-5.34863,3.34961-8.52246,7.47363-8.52246a6.49135,6.49135,0,0,1,4.72363,2.07422l-1.5498,1.874a4.26125,4.26125,0,0,0-3.09961-1.42383c-2.67383,0-4.57324,2.249-4.57324,5.92285,0,3.72461,1.749,5.97364,4.499,5.97364a4.65655,4.65655,0,0,0,3.499-1.67481l1.54981,1.8252a6.59263,6.59263,0,0,1-5.14942,2.374C208.69043,410.2666,205.44141,407.26758,205.44141,401.84375Z" fill="#cacaca"/><path d="M219.64062,403.84375c0-4.09961,2.77442-6.44922,5.82422-6.44922,3.07422,0,5.84864,2.34961,5.84864,6.44922,0,4.07324-2.77442,6.42285-5.84864,6.42285C222.415,410.2666,219.64062,407.917,219.64062,403.84375Zm8.72364,0c0-2.47461-1.10059-4.09961-2.89942-4.09961-1.7998,0-2.875,1.625-2.875,4.09961,0,2.44922,1.0752,4.07324,2.875,4.07324C227.26367,407.917,228.36426,406.293,228.36426,403.84375Z" fill="#cacaca"/><path d="M234.166,406.81738V392.32129h2.875v14.64648c0,.69922.32421.94922.624.94922a1.72865,1.72865,0,0,0,.45019-.0498l.375,2.14941a3.914,3.914,0,0,1-1.52441.25C234.916,410.2666,234.166,408.94238,234.166,406.81738Z" fill="#cacaca"/><path d="M240.14062,403.84375c0-4.09961,2.77442-6.44922,5.82422-6.44922,3.07422,0,5.84864,2.34961,5.84864,6.44922,0,4.07324-2.77442,6.42285-5.84864,6.42285C242.915,410.2666,240.14062,407.917,240.14062,403.84375Zm8.72364,0c0-2.47461-1.10059-4.09961-2.89942-4.09961-1.7998,0-2.875,1.625-2.875,4.09961,0,2.44922,1.0752,4.07324,2.875,4.07324C247.76367,407.917,248.86426,406.293,248.86426,403.84375Z" fill="#cacaca"/><path d="M254.665,397.69434h2.375l.20019,2.1748h.09961a4.17,4.17,0,0,1,3.47364-2.47461,3.12389,3.12389,0,0,1,1.40039.25l-.5,2.5a4.01031,4.01031,0,0,0-1.27442-.20019c-.97558,0-2.15039.6748-2.89941,2.52441v7.498h-2.875Z" fill="#cacaca"/><path d="M269.01562,407.61719h3.54883V397.16992h-2.92383v-1.7998a10.669,10.669,0,0,0,3.67383-1.29981h2.14942v13.54688h3.124v2.34961h-9.57227Z" fill="#cacaca"/><path d="M226.2666,436.169A15.83354,15.83354,0,1,1,242.1377,452.04,15.84487,15.84487,0,0,1,226.2666,436.169Zm7.64746,8.623h4.84961l.89942-3.7998h4.97363l.89941,3.7998h5.02442l-5.34864-17.89648H239.2627Zm10.07324-7.44824-.35058-1.25c-.47461-1.69922-.89942-3.52441-1.27442-5.29883h-.4746c-.35059,1.79981-.72461,3.59961-1.2002,5.29883l-.34961,1.25Z" fill="#cacaca"/><line x1="242.10217" y1="604.57093" x2="242.10217" y2="484.60609" fill="none" stroke="#e9a460" stroke-miterlimit="10" stroke-width="3"/><polygon points="251.078 601.945 242.102 617.487 233.127 601.945 251.078 601.945" fill="#e9a460"/><polygon points="251.078 487.232 242.102 471.69 233.127 487.232 251.078 487.232" fill="#e9a460"/><polyline points="111.449 547.032 535.33 547.032 535.33 484.606" fill="none" stroke="#e9a460" stroke-miterlimit="10" stroke-width="3"/><polygon points="544.305 487.232 535.33 471.69 526.355 487.232 544.305 487.232" fill="#e9a460"/><line x1="387.97217" y1="674.57093" x2="387.97217" y2="484.60609" fill="none" stroke="#e9a460" stroke-miterlimit="10" stroke-width="3"/><polygon points="396.948 671.945 387.972 687.487 378.997 671.945 396.948 671.945" fill="#e9a460"/><polygon points="396.948 487.232 387.972 471.69 378.997 487.232 396.948 487.232" fill="#e9a460"/><line x1="242.10217" y1="363.58375" x2="242.10217" y2="335.56392" fill="none" stroke="#e9a460" stroke-miterlimit="10" stroke-width="3"/><polygon points="250.33 361.176 242.102 375.424 233.875 361.176 250.33 361.176" fill="#e9a460"/><line x1="388.71753" y1="363.58375" x2="388.71753" y2="335.56392" fill="none" stroke="#e9a460" stroke-miterlimit="10" stroke-width="3"/><polygon points="396.945 361.176 388.718 375.424 380.49 361.176 396.945 361.176" fill="#e9a460"/><line x1="681.94604" y1="363.58375" x2="681.94604" y2="335.56392" fill="none" stroke="#e9a460" stroke-miterlimit="10" stroke-width="3"/><polygon points="690.174 361.176 681.946 375.424 673.719 361.176 690.174 361.176" fill="#e9a460"/><line x1="242.10217" y1="255.58375" x2="242.10217" y2="203.56392" fill="none" stroke="#e9a460" stroke-miterlimit="10" stroke-width="3"/><polygon points="250.33 253.176 242.102 267.424 233.875 253.176 250.33 253.176" fill="#e9a460"/><line x1="388.71753" y1="255.58375" x2="388.71753" y2="203.56392" fill="none" stroke="#e9a460" stroke-miterlimit="10" stroke-width="3"/><polygon points="396.945 253.176 388.718 267.424 380.49 253.176 396.945 253.176" fill="#e9a460"/><line x1="681.94604" y1="255.58375" x2="681.94604" y2="203.56392" fill="none" stroke="#e9a460" stroke-miterlimit="10" stroke-width="3"/><polygon points="690.174 253.176 681.946 267.424 673.719 253.176 690.174 253.176" fill="#e9a460"/><rect x="230.7689" y="293.84547" width="22.66667" height="28.34646" fill="none"/><path d="M237.3584,317.293h3.69238V306.4248h-3.042v-1.87207a11.14807,11.14807,0,0,0,3.82226-1.35156h2.23536V317.293h3.251v2.44433h-9.959Z" fill="#cacaca"/><path d="M482.36816,393.62109h5.14942c3.624,0,6.32324,1.249,6.32324,5.04883,0,3.624-2.69922,5.29883-6.22363,5.29883h-2.34961v5.998h-2.89942Zm5.02442,8.02246c2.42383,0,3.59863-.9746,3.59863-2.97363,0-2.0498-1.27441-2.72461-3.69922-2.72461h-2.02441v5.69824Z" fill="#cacaca"/><path d="M496.34375,393.9209a1.78138,1.78138,0,1,1,1.77441,1.624A1.64962,1.64962,0,0,1,496.34375,393.9209Zm.32422,3.77344h2.875V409.9668h-2.875Z" fill="#cacaca"/><path d="M503.64258,405.81738v-5.84863h-1.749v-2.14941l1.89942-.125.34961-3.34864H506.542v3.34864h3.125v2.27441h-3.125v5.84863c0,1.4502.54981,2.14942,1.72461,2.14942a3.51673,3.51673,0,0,0,1.27539-.27442l.499,2.124a7.81889,7.81889,0,0,1-2.499.45019C504.69238,410.2666,503.64258,408.4668,503.64258,405.81738Z" fill="#cacaca"/><path d="M511.043,403.84375a6.0537,6.0537,0,0,1,6.14844-6.44922,5.28912,5.28912,0,0,1,3.59961,1.375l-1.39942,1.875a3.00207,3.00207,0,0,0-2.0498-.90039c-1.97461,0-3.34961,1.625-3.34961,4.09961,0,2.44922,1.34961,4.07324,3.27441,4.07324a4.08848,4.08848,0,0,0,2.52442-1.0498l1.1748,1.90039a6.13136,6.13136,0,0,1-3.999,1.499C513.61719,410.2666,511.043,407.917,511.043,403.84375Z" fill="#cacaca"/><path d="M523.39258,392.32129h2.875v4.54883l-.10059,2.374a5.62915,5.62915,0,0,1,3.92383-1.84961c2.625,0,3.77441,1.77539,3.77441,4.874v7.69825h-2.874v-7.32325c0-2.02441-.57519-2.77441-1.9248-2.77441-1.07422,0-1.77442.52539-2.79883,1.52441v8.57325h-2.875Z" fill="#cacaca"/><path d="M539.94238,408.667h-.07519l-.25,1.29981h-2.27442V392.32129h2.875v4.54883l-.07519,2.0498a5.5956,5.5956,0,0,1,3.54883-1.52539c3.07421,0,4.84863,2.4502,4.84863,6.22363,0,4.22461-2.52442,6.64844-5.248,6.64844A4.90526,4.90526,0,0,1,539.94238,408.667Zm5.624-4.999c0-2.44922-.79981-3.89844-2.64942-3.89844a3.9169,3.9169,0,0,0-2.69922,1.374v5.72364a3.82946,3.82946,0,0,0,2.47364,1.02539C544.31641,407.89258,545.56641,406.44238,545.56641,403.668Z" fill="#cacaca"/><path d="M550.61719,403.84375c0-3.999,2.77441-6.44922,5.64941-6.44922,3.32324,0,5.07324,2.39942,5.07324,5.82422a6.67885,6.67885,0,0,1-.125,1.39941H553.417a3.512,3.512,0,0,0,3.624,3.42383,5.12607,5.12607,0,0,0,2.8496-.89941l.97461,1.7998a7.747,7.747,0,0,1-4.19921,1.32422C553.2666,410.2666,550.61719,407.89258,550.61719,403.84375Zm8.22363-1.1748c0-1.89942-.8252-3.04981-2.5-3.04981-1.44922,0-2.69922,1.0752-2.94922,3.04981Z" fill="#cacaca"/><path d="M564.0918,397.69434h2.375l.19922,1.65039h.10058a5.69917,5.69917,0,0,1,4.02344-1.9502c2.625,0,3.77441,1.77539,3.77441,4.874v7.69825h-2.874v-7.32325c0-2.02441-.5752-2.77441-1.92481-2.77441-1.07421,0-1.77441.52539-2.79882,1.52441v8.57325h-2.875Z" fill="#cacaca"/><path d="M577.34277,403.84375c0-3.999,2.52442-6.44922,5.19825-6.44922a4.53552,4.53552,0,0,1,3.2246,1.34961l-.10058-1.97461v-4.44824h2.875V409.9668h-2.375l-.2002-1.32422h-.09961a5.1142,5.1142,0,0,1-3.47461,1.624C579.31641,410.2666,577.34277,407.89258,577.34277,403.84375Zm8.32227,2.67383V400.794a3.65732,3.65732,0,0,0-2.499-1.02442c-1.5752,0-2.84961,1.47461-2.84961,4.04883,0,2.64941,1,4.07422,2.77441,4.07422A3.31042,3.31042,0,0,0,585.665,406.51758Z" fill="#cacaca"/><path d="M519.49414,436.169A15.83354,15.83354,0,1,1,535.36523,452.04,15.84487,15.84487,0,0,1,519.49414,436.169Zm22.36914,6.32324-2.47461-2.97461a4.4664,4.4664,0,0,1-3.249,1.52539c-2.32422,0-3.874-1.875-3.874-5.22461,0-3.249,1.82422-5.17285,3.92383-5.17285a4.36578,4.36578,0,0,1,2.97461,1.32422l2.47461-3.04883a8.007,8.007,0,0,0-5.57422-2.375c-4.499,0-8.64746,3.4248-8.64746,9.44824,0,6.09766,3.97363,9.14746,8.54785,9.14746A7.60425,7.60425,0,0,0,541.86328,442.49219Z" fill="#cacaca"/><rect x="523.99646" y="293.84547" width="22.66667" height="28.34646" fill="none"/><path d="M529.28613,317.709l1.42969-1.92382a5.4076,5.4076,0,0,0,3.92676,1.82031c1.79394,0,3.042-.93652,3.042-2.49609,0-1.7168-1.0918-2.8086-4.8623-2.8086v-2.18359c3.25,0,4.3164-1.11817,4.3164-2.65235a2.15911,2.15911,0,0,0-2.44433-2.21,4.82728,4.82728,0,0,0-3.32813,1.55957l-1.53418-1.8457a7.3005,7.3005,0,0,1,4.9668-2.08008c3.17187,0,5.35547,1.56055,5.35547,4.36817a3.96992,3.96992,0,0,1-2.88575,3.79589v.1045a4.20583,4.20583,0,0,1,3.43165,4.10839c0,3.01563-2.626,4.78321-5.79786,4.78321A7.18748,7.18748,0,0,1,529.28613,317.709Z" fill="#cacaca"/><path d="M626.76074,407.86719l1.69922-1.97461a6.50056,6.50056,0,0,0,4.249,1.84961c1.84961,0,2.84961-.82422,2.84961-2.09961,0-1.34961-1.0498-1.77442-2.52441-2.39942l-2.25-.97461c-1.59961-.6748-3.29883-1.94921-3.29883-4.34863,0-2.59961,2.29883-4.59863,5.498-4.59863a7.21773,7.21773,0,0,1,5.02441,2.07422l-1.47461,1.84961a5.32537,5.32537,0,0,0-3.5498-1.39942c-1.54883,0-2.57422.72461-2.57422,1.92383,0,1.27539,1.25,1.75,2.59961,2.29981l2.22461.9248c1.9248.82422,3.29883,2.04981,3.29883,4.42383,0,2.64941-2.19922,4.84863-5.87305,4.84863A8.46535,8.46535,0,0,1,626.76074,407.86719Z" fill="#cacaca"/><path d="M641.13477,405.39258v-7.69824h2.875v7.32324c0,2.02539.57421,2.77441,1.89941,2.77441,1.07422,0,1.7998-.5,2.72363-1.69922v-8.39843h2.875V409.9668H649.1582l-.22461-1.79981h-.07519a5.00066,5.00066,0,0,1-3.94922,2.09961C642.28516,410.2666,641.13477,408.49219,641.13477,405.39258Z" fill="#cacaca"/><path d="M653.93555,408.56738l1.34961-1.84961a5.46082,5.46082,0,0,0,3.39941,1.374c1.3252,0,1.94922-.624,1.94922-1.47461,0-1.02442-1.32422-1.47461-2.624-1.97364-1.625-.60058-3.44922-1.52539-3.44922-3.57421,0-2.14942,1.72461-3.67481,4.47363-3.67481a6.62757,6.62757,0,0,1,4.07422,1.47461l-1.32422,1.75a4.57022,4.57022,0,0,0-2.69922-1.0498c-1.22558,0-1.7998.57519-1.7998,1.34961,0,.9746,1.22461,1.3496,2.54882,1.82421,1.67481.625,3.52442,1.42481,3.52442,3.72461,0,2.09961-1.67481,3.79883-4.77344,3.79883A7.77508,7.77508,0,0,1,653.93555,408.56738Z" fill="#cacaca"/><path d="M665.85938,405.81738v-5.84863h-1.749v-2.14941l1.89942-.125.34961-3.34864h2.39941v3.34864h3.125v2.27441h-3.125v5.84863c0,1.4502.5498,2.14942,1.72461,2.14942a3.51682,3.51682,0,0,0,1.27539-.27442l.499,2.124a7.81877,7.81877,0,0,1-2.499.45019C666.90918,410.2666,665.85938,408.4668,665.85938,405.81738Z" fill="#cacaca"/><path d="M679.71,393.62109h5.14942c3.624,0,6.32324,1.249,6.32324,5.04883,0,3.624-2.69922,5.29883-6.22364,5.29883h-2.3496v5.998H679.71Zm5.02442,8.02246c2.42382,0,3.59863-.9746,3.59863-2.97363,0-2.0498-1.27442-2.72461-3.69922-2.72461h-2.02441v5.69824Z" fill="#cacaca"/><path d="M692.66016,403.84375c0-3.999,2.77441-6.44922,5.64941-6.44922,3.32324,0,5.07324,2.39942,5.07324,5.82422a6.67885,6.67885,0,0,1-.125,1.39941H695.46a3.512,3.512,0,0,0,3.624,3.42383,5.12608,5.12608,0,0,0,2.84961-.89941l.97461,1.7998a7.747,7.747,0,0,1-4.19922,1.32422C695.30957,410.2666,692.66016,407.89258,692.66016,403.84375Zm8.22363-1.1748c0-1.89942-.8252-3.04981-2.5-3.04981-1.44922,0-2.69922,1.0752-2.94922,3.04981Z" fill="#cacaca"/><path d="M705.38574,403.84375c0-3.999,2.52442-6.44922,5.19824-6.44922a4.53553,4.53553,0,0,1,3.22461,1.34961l-.10058-1.97461v-4.44824h2.875V409.9668h-2.375l-.2002-1.32422h-.09961a5.1142,5.1142,0,0,1-3.47461,1.624C707.35938,410.2666,705.38574,407.89258,705.38574,403.84375Zm8.32227,2.67383V400.794a3.65732,3.65732,0,0,0-2.499-1.02442c-1.57519,0-2.8496,1.47461-2.8496,4.04883,0,2.64941,1,4.07422,2.77441,4.07422A3.31044,3.31044,0,0,0,713.708,406.51758Z" fill="#cacaca"/><path d="M719.585,406.668c0-2.625,2.17481-3.999,7.22363-4.54883-.05078-1.2998-.57519-2.39941-2.25-2.39941a6.99684,6.99684,0,0,0-3.44921,1.19922l-1.04981-1.92481a9.60219,9.60219,0,0,1,5.04883-1.59961c3.0498,0,4.57422,1.875,4.57422,5.29883v7.27344h-2.375l-.19922-1.34961h-.10059a5.97418,5.97418,0,0,1-3.79883,1.64941A3.43027,3.43027,0,0,1,719.585,406.668Zm7.22363,0v-2.75c-3.34961.4248-4.44921,1.2998-4.44921,2.52441,0,1.09961.75,1.5752,1.77441,1.5752A3.90268,3.90268,0,0,0,726.80859,406.668Z" fill="#cacaca"/><path d="M733.13379,406.81738V392.32129h2.875v14.64648c0,.69922.32422.94922.624.94922a1.72872,1.72872,0,0,0,.4502-.0498l.375,2.14941a3.914,3.914,0,0,1-1.52442.25C733.88379,410.2666,733.13379,408.94238,733.13379,406.81738Z" fill="#cacaca"/><path d="M666.11035,436.169A15.83354,15.83354,0,1,1,681.98145,452.04,15.84487,15.84487,0,0,1,666.11035,436.169Zm10.37207,8.623h5.57422c5.17285,0,8.92188-2.70019,8.92188-9.02344,0-6.34863-3.749-8.873-9.19727-8.873h-5.29883Zm4.749-3.7998V430.69531h.27441c2.57519,0,4.624.875,4.624,5.07324,0,4.17383-2.04883,5.22364-4.624,5.22364Z" fill="#cacaca"/><rect x="670.61366" y="293.84547" width="22.66667" height="28.34646" fill="none"/><path d="M683.05273,315.47266h-7.30664v-2.02735l6.55274-10.24414h3.56152v9.958h2.08008v2.31348h-2.08008v4.26464h-2.80762Zm0-2.31348V309.415c0-.96192.07813-2.46973.12989-3.43262h-.1045c-.416.8584-.88378,1.69043-1.35156,2.57422l-3.01562,4.60254Z" fill="#cacaca"/><rect x="29.2985" y="290.59301" width="767.2403" height="483.19048" rx="10" ry="10" fill="none" stroke="#4e4e4e" stroke-miterlimit="10" stroke-width="2"/><path d="M233.5983,276.41978h17.00788a2.83465,2.83465,0,0,1,2.83465,2.83465v8.50394a0,0,0,0,1,0,0H230.76365a0,0,0,0,1,0,0v-8.50394A2.83465,2.83465,0,0,1,233.5983,276.41978Z" stroke="#4e4e4e" stroke-miterlimit="10" stroke-width="2"/><path d="M380.21354,276.41978h17.00788a2.83465,2.83465,0,0,1,2.83465,2.83465v8.50394a0,0,0,0,1,0,0H377.3789a0,0,0,0,1,0,0v-8.50394A2.83465,2.83465,0,0,1,380.21354,276.41978Z" stroke="#4e4e4e" stroke-miterlimit="10" stroke-width="2"/><path d="M526.82586,276.41978h17.00788a2.83465,2.83465,0,0,1,2.83465,2.83465v8.50394a0,0,0,0,1,0,0H523.99121a0,0,0,0,1,0,0v-8.50394A2.83465,2.83465,0,0,1,526.82586,276.41978Z" stroke="#4e4e4e" stroke-miterlimit="10" stroke-width="2"/><path d="M673.44306,276.41978h17.00788a2.83465,2.83465,0,0,1,2.83465,2.83465v8.50394a0,0,0,0,1,0,0H670.60842a0,0,0,0,1,0,0v-8.50394A2.83465,2.83465,0,0,1,673.44306,276.41978Z" stroke="#4e4e4e" stroke-miterlimit="10" stroke-width="2"/><path d="M227.929,285.25442h28.34646a2.83465,2.83465,0,0,1,2.83465,2.83465v2.83465a0,0,0,0,1,0,0H225.09436a0,0,0,0,1,0,0v-2.83465A2.83465,2.83465,0,0,1,227.929,285.25442Z" stroke="#4e4e4e" stroke-miterlimit="10" stroke-width="2"/><path d="M374.54425,285.25442h28.34646a2.83465,2.83465,0,0,1,2.83465,2.83465v2.83465a0,0,0,0,1,0,0H371.70961a0,0,0,0,1,0,0v-2.83465A2.83465,2.83465,0,0,1,374.54425,285.25442Z" stroke="#4e4e4e" stroke-miterlimit="10" stroke-width="2"/><path d="M521.15657,285.25442H549.503a2.83465,2.83465,0,0,1,2.83465,2.83465v2.83465a0,0,0,0,1,0,0H518.32192a0,0,0,0,1,0,0v-2.83465a2.83465,2.83465,0,0,1,2.83465-2.83465Z" stroke="#4e4e4e" stroke-miterlimit="10" stroke-width="2"/><path d="M667.77377,285.25442h28.34646a2.83465,2.83465,0,0,1,2.83465,2.83465v2.83465a0,0,0,0,1,0,0H664.93912a0,0,0,0,1,0,0v-2.83465A2.83465,2.83465,0,0,1,667.77377,285.25442Z" stroke="#4e4e4e" stroke-miterlimit="10" stroke-width="2"/><rect x="525.99646" y="32.30255" width="99.00191" height="50.85929" rx="5.66929" ry="5.66929" fill="#363636" stroke="#a9c0fd" stroke-miterlimit="10" stroke-width="2"/><rect x="201.788" y="23.59251" width="80.62993" height="181.41734" rx="5.66929" ry="5.66929" stroke="#4e4e4e" stroke-miterlimit="10" stroke-width="2"/><rect x="209.34706" y="29.89172" width="65.51182" height="50.39371" rx="2.83465" ry="2.83465" fill="gray"/><polygon points="261.927 97.96 273.284 109.299 273.284 99.817 261.927 88.479 261.927 97.96" fill="#606060"/><polygon points="261.927 110.559 273.284 121.897 273.284 112.416 261.927 101.077 261.927 110.559" fill="#606060"/><polygon points="261.927 123.157 273.284 134.496 273.284 125.014 261.927 113.676 261.927 123.157" fill="#606060"/><polygon points="261.927 135.756 273.284 147.094 273.284 137.613 261.927 126.274 261.927 135.756" fill="#606060"/><polygon points="261.927 148.354 273.284 159.693 273.284 150.211 261.927 138.873 261.927 148.354" fill="#606060"/><polygon points="261.927 160.952 273.284 172.291 273.284 162.81 261.927 151.471 261.927 160.952" fill="#606060"/><polygon points="261.927 173.551 273.284 184.889 273.284 175.408 261.927 164.069 261.927 173.551" fill="#606060"/><polygon points="261.927 186.149 273.284 197.488 273.284 188.006 261.927 176.668 261.927 186.149" fill="#606060"/><polygon points="256.282 97.96 244.925 109.299 244.925 99.817 256.282 88.479 256.282 97.96" fill="#606060"/><polygon points="256.282 110.559 244.925 121.897 244.925 112.416 256.282 101.077 256.282 110.559" fill="#606060"/><polygon points="256.282 123.157 244.925 134.496 244.925 125.014 256.282 113.676 256.282 123.157" fill="#606060"/><polygon points="256.282 135.756 244.925 147.094 244.925 137.613 256.282 126.274 256.282 135.756" fill="#606060"/><polygon points="256.282 148.354 244.925 159.693 244.925 150.211 256.282 138.873 256.282 148.354" fill="#606060"/><polygon points="256.282 160.952 244.925 172.291 244.925 162.81 256.282 151.471 256.282 160.952" fill="#606060"/><polygon points="256.282 173.551 244.925 184.889 244.925 175.408 256.282 164.069 256.282 173.551" fill="#606060"/><polygon points="256.282 186.149 244.925 197.488 244.925 188.006 256.282 176.668 256.282 186.149" fill="#606060"/><polygon points="227.924 97.96 239.281 109.299 239.281 99.817 227.924 88.479 227.924 97.96" fill="#606060"/><polygon points="227.924 110.559 239.281 121.897 239.281 112.416 227.924 101.077 227.924 110.559" fill="#606060"/><polygon points="227.924 123.157 239.281 134.496 239.281 125.014 227.924 113.676 227.924 123.157" fill="#606060"/><polygon points="227.924 135.756 239.281 147.094 239.281 137.613 227.924 126.274 227.924 135.756" fill="#606060"/><polygon points="227.924 148.354 239.281 159.693 239.281 150.211 227.924 138.873 227.924 148.354" fill="#606060"/><polygon points="227.924 160.952 239.281 172.291 239.281 162.81 227.924 151.471 227.924 160.952" fill="#606060"/><polygon points="227.924 173.551 239.281 184.889 239.281 175.408 227.924 164.069 227.924 173.551" fill="#606060"/><polygon points="227.924 186.149 239.281 197.488 239.281 188.006 227.924 176.668 227.924 186.149" fill="#606060"/><polygon points="222.279 97.96 210.922 109.299 210.922 99.817 222.279 88.479 222.279 97.96" fill="#606060"/><polygon points="222.279 110.559 210.922 121.897 210.922 112.416 222.279 101.077 222.279 110.559" fill="#606060"/><polygon points="222.279 123.157 210.922 134.496 210.922 125.014 222.279 113.676 222.279 123.157" fill="#606060"/><polygon points="222.279 135.756 210.922 147.094 210.922 137.613 222.279 126.274 222.279 135.756" fill="#606060"/><polygon points="222.279 148.354 210.922 159.693 210.922 150.211 222.279 138.873 222.279 148.354" fill="#606060"/><polygon points="222.279 160.952 210.922 172.291 210.922 162.81 222.279 151.471 222.279 160.952" fill="#606060"/><polygon points="222.279 173.551 210.922 184.889 210.922 175.408 222.279 164.069 222.279 173.551" fill="#606060"/><polygon points="222.279 186.149 210.922 197.488 210.922 188.006 222.279 176.668 222.279 186.149" fill="#606060"/><path d="M244.88992,46.71339l-5.03644,7.7542a.89161.89161,0,0,1-.76908.37362.87991.87991,0,0,1-.75461-.39328l-4.65357-7.73454h-3.51343l7.44749,12.25032a1.911,1.911,0,0,0,2.969.025l7.82411-12.27536Z" fill="#404040"/><path d="M227.67161,49.02656V46.71339H216.3299a2.3827,2.3827,0,0,0-2.57339,2.128v8.3544a2.3827,2.3827,0,0,0,2.57339,2.128h11.34171V57.01066h-10.26a.79423.79423,0,0,1-.85779-.70933V54.88454a.79423.79423,0,0,1,.85779-.70934h10.26V51.862h-10.26a.79423.79423,0,0,1-.85779-.70933V49.7359a.79423.79423,0,0,1,.85779-.70934Z" fill="#404040"/><path d="M270.44943,49.02656V46.71339H256.53432V54.1752h10.26a.79423.79423,0,0,1,.85779.70934v1.41679a.79423.79423,0,0,1-.85779.70933h-10.26v2.31315H267.876a2.38271,2.38271,0,0,0,2.57339-2.128V53.99a2.38271,2.38271,0,0,0-2.57339-2.128h-8.54441V49.02656Z" fill="#404040"/><rect x="247.57797" y="51.86202" width="6.22345" height="2.2874" fill="#404040"/><rect x="348.40252" y="23.59251" width="80.62993" height="181.41734" rx="5.66929" ry="5.66929" stroke="#4e4e4e" stroke-miterlimit="10" stroke-width="2"/><rect x="355.96157" y="29.89172" width="65.51182" height="50.39371" rx="2.83465" ry="2.83465" fill="gray"/><polygon points="408.542 97.96 419.899 109.299 419.899 99.817 408.542 88.479 408.542 97.96" fill="#606060"/><polygon points="408.542 110.559 419.899 121.897 419.899 112.416 408.542 101.077 408.542 110.559" fill="#606060"/><polygon points="408.542 123.157 419.899 134.496 419.899 125.014 408.542 113.676 408.542 123.157" fill="#606060"/><polygon points="408.542 135.756 419.899 147.094 419.899 137.613 408.542 126.274 408.542 135.756" fill="#606060"/><polygon points="408.542 148.354 419.899 159.693 419.899 150.211 408.542 138.873 408.542 148.354" fill="#606060"/><polygon points="408.542 160.952 419.899 172.291 419.899 162.81 408.542 151.471 408.542 160.952" fill="#606060"/><polygon points="408.542 173.551 419.899 184.889 419.899 175.408 408.542 164.069 408.542 173.551" fill="#606060"/><polygon points="408.542 186.149 419.899 197.488 419.899 188.006 408.542 176.668 408.542 186.149" fill="#606060"/><polygon points="402.897 97.96 391.54 109.299 391.54 99.817 402.897 88.479 402.897 97.96" fill="#606060"/><polygon points="402.897 110.559 391.54 121.897 391.54 112.416 402.897 101.077 402.897 110.559" fill="#606060"/><polygon points="402.897 123.157 391.54 134.496 391.54 125.014 402.897 113.676 402.897 123.157" fill="#606060"/><polygon points="402.897 135.756 391.54 147.094 391.54 137.613 402.897 126.274 402.897 135.756" fill="#606060"/><polygon points="402.897 148.354 391.54 159.693 391.54 150.211 402.897 138.873 402.897 148.354" fill="#606060"/><polygon points="402.897 160.952 391.54 172.291 391.54 162.81 402.897 151.471 402.897 160.952" fill="#606060"/><polygon points="402.897 173.551 391.54 184.889 391.54 175.408 402.897 164.069 402.897 173.551" fill="#606060"/><polygon points="402.897 186.149 391.54 197.488 391.54 188.006 402.897 176.668 402.897 186.149" fill="#606060"/><polygon points="374.538 97.96 385.895 109.299 385.895 99.817 374.538 88.479 374.538 97.96" fill="#606060"/><polygon points="374.538 110.559 385.895 121.897 385.895 112.416 374.538 101.077 374.538 110.559" fill="#606060"/><polygon points="374.538 123.157 385.895 134.496 385.895 125.014 374.538 113.676 374.538 123.157" fill="#606060"/><polygon points="374.538 135.756 385.895 147.094 385.895 137.613 374.538 126.274 374.538 135.756" fill="#606060"/><polygon points="374.538 148.354 385.895 159.693 385.895 150.211 374.538 138.873 374.538 148.354" fill="#606060"/><polygon points="374.538 160.952 385.895 172.291 385.895 162.81 374.538 151.471 374.538 160.952" fill="#606060"/><polygon points="374.538 173.551 385.895 184.889 385.895 175.408 374.538 164.069 374.538 173.551" fill="#606060"/><polygon points="374.538 186.149 385.895 197.488 385.895 188.006 374.538 176.668 374.538 186.149" fill="#606060"/><polygon points="368.893 97.96 357.536 109.299 357.536 99.817 368.893 88.479 368.893 97.96" fill="#606060"/><polygon points="368.893 110.559 357.536 121.897 357.536 112.416 368.893 101.077 368.893 110.559" fill="#606060"/><polygon points="368.893 123.157 357.536 134.496 357.536 125.014 368.893 113.676 368.893 123.157" fill="#606060"/><polygon points="368.893 135.756 357.536 147.094 357.536 137.613 368.893 126.274 368.893 135.756" fill="#606060"/><polygon points="368.893 148.354 357.536 159.693 357.536 150.211 368.893 138.873 368.893 148.354" fill="#606060"/><polygon points="368.893 160.952 357.536 172.291 357.536 162.81 368.893 151.471 368.893 160.952" fill="#606060"/><polygon points="368.893 173.551 357.536 184.889 357.536 175.408 368.893 164.069 368.893 173.551" fill="#606060"/><polygon points="368.893 186.149 357.536 197.488 357.536 188.006 368.893 176.668 368.893 186.149" fill="#606060"/><path d="M391.50443,46.71339l-5.03644,7.7542a.89159.89159,0,0,1-.76908.37362.87988.87988,0,0,1-.7546-.39328l-4.65357-7.73454h-3.51343l7.44749,12.25032a1.911,1.911,0,0,0,2.969.025l7.82412-12.27536Z" fill="#404040"/><path d="M374.28613,49.02656V46.71339H362.94441a2.3827,2.3827,0,0,0-2.57339,2.128v8.3544a2.38271,2.38271,0,0,0,2.57339,2.128h11.34172V57.01066h-10.26a.79424.79424,0,0,1-.8578-.70933V54.88454a.79424.79424,0,0,1,.8578-.70934h10.26V51.862h-10.26a.79424.79424,0,0,1-.8578-.70933V49.7359a.79424.79424,0,0,1,.8578-.70934Z" fill="#404040"/><path d="M417.06394,49.02656V46.71339H403.14883V54.1752h10.26a.79424.79424,0,0,1,.8578.70934v1.41679a.79424.79424,0,0,1-.8578.70933h-10.26v2.31315h11.34172a2.38271,2.38271,0,0,0,2.57339-2.128V53.99a2.38271,2.38271,0,0,0-2.57339-2.128h-8.54441V49.02656Z" fill="#404040"/><rect x="394.19249" y="51.86202" width="6.22345" height="2.2874" fill="#404040"/><rect x="641.56672" y="52.0629" width="18.39835" height="11.33858" rx="1.70079" ry="1.70079" stroke="#4e4e4e" stroke-miterlimit="10" stroke-width="2"/><rect x="646.67141" y="24.7876" width="70.55119" height="181.41734" rx="5.66929" ry="5.66929" stroke="#4e4e4e" stroke-miterlimit="10" stroke-width="2"/><path d="M688.24621,199.11832H675.64779a5.03937,5.03937,0,0,1-5.03937-5.03937l2.51968-90.70867a5.03937,5.03937,0,0,1,5.03937-5.03937h7.55906a5.03938,5.03938,0,0,1,5.03937,5.03937l2.51968,90.70867A5.03937,5.03937,0,0,1,688.24621,199.11832Z" fill="#fff"/><path d="M657.85251,32.83484h48.18895a2.83468,2.83468,0,0,1,2.83468,2.83468V137.71674a2.83465,2.83465,0,0,1-2.83465,2.83465H657.85254a2.83468,2.83468,0,0,1-2.83468-2.83468V35.66949A2.83465,2.83465,0,0,1,657.85251,32.83484Z" fill="#404040" stroke="gray" stroke-miterlimit="10"/><path d="M658.6377,37.51074h3.501c4.001,0,6.36133,2.16114,6.36133,6.48145,0,4.34082-2.36035,6.60156-6.24121,6.60156H658.6377Zm3.34082,11.20215c2.64062,0,4.14062-1.5,4.14062-4.7207,0-3.2002-1.5-4.60059-4.14062-4.60059H660.958v9.32129Z" fill="#a5a5a5"/><path d="M671.1377,37.51074h4.12109c2.90039,0,5.06152,1,5.06152,4.041,0,2.90039-2.16113,4.24121-4.98144,4.24121H673.458v4.80078H671.1377Zm4.02148,6.42188c1.94043,0,2.87988-.78028,2.87988-2.38086,0-1.64063-1.01953-2.18067-2.96-2.18067H673.458v4.56153Z" fill="#a5a5a5"/><path d="M681.39746,44.71289h4.76172v1.67969h-4.76172Z" fill="#a5a5a5"/><path d="M687.87793,48.71289h2.84082V40.35156h-2.34082V38.91113a8.54671,8.54671,0,0,0,2.94043-1.04h1.7207v10.8418h2.5v1.88086h-7.66113Z" fill="#a5a5a5"/><path d="M697.457,44.17285c0-4.30176,1.68067-6.542,4.32129-6.542s4.32129,2.26074,4.32129,6.542c0,4.30078-1.68066,6.66113-4.32129,6.66113S697.457,48.47363,697.457,44.17285Zm6.44141,0c0-3.60156-.87989-4.74121-2.12012-4.74121-1.2207,0-2.12012,1.13965-2.12012,4.74121,0,3.60059.89942,4.86035,2.12012,4.86035C703.01855,49.0332,703.89844,47.77344,703.89844,44.17285Z" fill="#a5a5a5"/><polygon points="637.387 57.754 624.998 34.481 624.998 81.026 637.387 57.754" fill="#a9c0fd"/><path d="M56.40332,706.49609H61.708c3.26367,0,5.76074,1.15235,5.76074,4.65625a4.39338,4.39338,0,0,1-3.12109,4.48828l3.74511,6.55274H64.97168l-3.38379-6.14453H59.1875v6.14453H56.40332Zm5.0166,7.34473c2.13574,0,3.3125-.91211,3.3125-2.68848,0-1.7998-1.17676-2.42382-3.3125-2.42382H59.1875v5.1123Z" fill="#cacaca"/><path d="M70.05957,706.78418a1.7108,1.7108,0,1,1,1.7041,1.55957A1.58411,1.58411,0,0,1,70.05957,706.78418Zm.31152,3.624h2.76075v11.78516H70.37109Z" fill="#cacaca"/><path d="M79.15527,720.94531H79.084l-.24023,1.24805H76.65918V705.24805h2.76074v4.36816l-.07226,1.96777a5.38184,5.38184,0,0,1,3.4082-1.46386c2.95215,0,4.65625,2.35254,4.65625,5.97656,0,4.05664-2.42383,6.38477-5.04,6.38477A4.70993,4.70993,0,0,1,79.15527,720.94531Zm5.40039-4.80078c0-2.35156-.76757-3.74414-2.54394-3.74414a3.76573,3.76573,0,0,0-2.5918,1.32031v5.4961a3.67571,3.67571,0,0,0,2.376.98437C83.35547,720.20117,84.55566,718.80859,84.55566,716.14453Z" fill="#cacaca"/><path d="M92.667,720.94531H92.5957l-.24023,1.24805H90.1709V705.24805h2.76074v4.36816l-.07226,1.96777a5.38184,5.38184,0,0,1,3.4082-1.46386c2.95215,0,4.65625,2.35254,4.65625,5.97656,0,4.05664-2.42383,6.38477-5.04,6.38477A4.70993,4.70993,0,0,1,92.667,720.94531Zm5.40039-4.80078c0-2.35156-.76758-3.74414-2.54394-3.74414a3.76573,3.76573,0,0,0-2.5918,1.32031v5.4961a3.67569,3.67569,0,0,0,2.376.98437C96.86719,720.20117,98.06738,718.80859,98.06738,716.14453Z" fill="#cacaca"/><path d="M102.915,716.3125c0-3.93555,2.66406-6.19238,5.5918-6.19238,2.95312,0,5.61718,2.25683,5.61718,6.19238,0,3.91309-2.66406,6.16895-5.61718,6.16895C105.5791,722.48145,102.915,720.22559,102.915,716.3125Zm8.376,0c0-2.376-1.05567-3.93555-2.78418-3.93555-1.72754,0-2.75977,1.55957-2.75977,3.93555,0,2.35254,1.03223,3.91309,2.75977,3.91309C110.23535,720.22559,111.291,718.665,111.291,716.3125Z" fill="#cacaca"/><path d="M116.8584,710.4082h2.28027l.19238,1.584h.09571a5.472,5.472,0,0,1,3.86426-1.87207c2.5205,0,3.624,1.7041,3.624,4.68066v7.39258h-2.75977v-7.03223c0-1.94433-.55175-2.665-1.84863-2.665-1.03125,0-1.7041.50489-2.6875,1.46485v8.23242H116.8584Z" fill="#cacaca"/><path d="M129.12207,720.84961l1.2959-1.77637a5.25012,5.25012,0,0,0,3.26465,1.32031c1.27148,0,1.87207-.60058,1.87207-1.416,0-.98438-1.27246-1.417-2.52051-1.89649-1.55957-.57617-3.3125-1.46386-3.3125-3.43261,0-2.06446,1.65625-3.52832,4.29687-3.52832a6.36169,6.36169,0,0,1,3.91211,1.416l-1.27246,1.68067a4.38016,4.38016,0,0,0-2.59179-1.00782c-1.17579,0-1.72852.55176-1.72852,1.2959,0,.93555,1.17676,1.2959,2.44824,1.752,1.6084.59961,3.38477,1.36816,3.38477,3.57617,0,2.0166-1.6084,3.64844-4.585,3.64844A7.46768,7.46768,0,0,1,129.12207,720.84961Z" fill="#cacaca"/><path d="M55.543,584.05469h5.0166c3.24023,0,5.61621.98437,5.61621,3.86426a3.53742,3.53742,0,0,1-2.18457,3.4082v.0957a3.58613,3.58613,0,0,1,3.001,3.7207c0,3.14454-2.56836,4.6084-6.02442,4.6084H55.543Zm4.77637,6.48047c2.18457,0,3.12011-.86426,3.12011-2.208,0-1.53613-1.03222-2.11231-3.07226-2.11231h-2.04v4.32032Zm.36035,7.05664c2.30371,0,3.59961-.83985,3.59961-2.5918,0-1.65625-1.24805-2.37695-3.59961-2.37695H58.32715v4.96875Z" fill="#cacaca"/><path d="M68.86328,593.87109c0-3.83984,2.66406-6.19238,5.42383-6.19238,3.19238,0,4.87305,2.30469,4.87305,5.59277a6.40747,6.40747,0,0,1-.12012,1.34375H71.55078a3.37326,3.37326,0,0,0,3.48047,3.28809,4.92375,4.92375,0,0,0,2.73633-.86328l.93652,1.72754A7.43731,7.43731,0,0,1,74.67188,600.04C71.40723,600.04,68.86328,597.75977,68.86328,593.87109Zm7.89649-1.12793c0-1.82421-.792-2.92773-2.40039-2.92773-1.39161,0-2.5918,1.03223-2.832,2.92773Z" fill="#cacaca"/><path d="M81.79785,587.9668h2.28027l.19239,1.584h.0957a5.472,5.472,0,0,1,3.86426-1.87207c2.52051,0,3.624,1.7041,3.624,4.68067V599.752H89.09473v-7.03222c0-1.94434-.55176-2.665-1.84864-2.665-1.03125,0-1.7041.50488-2.6875,1.46484V599.752H81.79785Z" fill="#cacaca"/><path d="M94.51855,593.87109c0-3.83984,2.42383-6.19238,4.99219-6.19238a4.35311,4.35311,0,0,1,3.09668,1.2959l-.09668-1.89551v-4.27246h2.76074V599.752h-2.28027l-.19238-1.27246h-.09571A4.91148,4.91148,0,0,1,99.36719,600.04C96.415,600.04,94.51855,597.75977,94.51855,593.87109Zm7.99219,2.56836v-5.49609a3.5083,3.5083,0,0,0-2.39941-.98438c-1.5127,0-2.73633,1.416-2.73633,3.88868,0,2.54394.96,3.91211,2.66406,3.91211A3.18058,3.18058,0,0,0,102.51074,596.43945Z" fill="#cacaca"/><path d="M108.00586,593.87109c0-3.83984,2.66406-6.19238,5.42383-6.19238,3.19238,0,4.873,2.30469,4.873,5.59277a6.40757,6.40757,0,0,1-.12011,1.34375h-7.48926a3.37325,3.37325,0,0,0,3.48047,3.28809,4.92375,4.92375,0,0,0,2.73633-.86328l.93652,1.72754a7.43731,7.43731,0,0,1-4.03223,1.27246C110.5498,600.04,108.00586,597.75977,108.00586,593.87109Zm7.89648-1.12793c0-1.82421-.792-2.92773-2.40039-2.92773-1.3916,0-2.59179,1.03223-2.832,2.92773Z" fill="#cacaca"/><path d="M120.94141,587.9668h2.28027l.19238,2.08789h.09571a4.00264,4.00264,0,0,1,3.33593-2.376,2.99738,2.99738,0,0,1,1.34473.24024l-.48047,2.40039a3.84722,3.84722,0,0,0-1.22363-.19239c-.93653,0-2.06445.64844-2.78418,2.42481V599.752h-2.76074Z" fill="#cacaca"/><rect x="55.47653" y="524.61898" width="69.84927" height="44.81864" rx="5.66929" ry="5.66929" stroke="#666" stroke-miterlimit="10" stroke-width="1.5"/><rect x="60.92631" y="528.6934" width="58.94972" height="36.6698" rx="5.66929" ry="5.66929" fill="#363636"/><ellipse cx="90.40117" cy="547.0283" rx="22.60964" ry="15.35149"/><ellipse cx="86.55595" cy="545.13485" rx="9.3526" ry="6.35023" fill="#363636"/><rect x="53.55077" y="629.51505" width="283.46459" height="51.02363" rx="5.66929" ry="5.66929" fill="#363636" stroke="#666" stroke-miterlimit="10" stroke-width="2"/><path d="M59.22006,629.51505h272.126a5.66929,5.66929,0,0,1,5.66929,5.66929v16.68481a0,0,0,0,1,0,0H53.55077a0,0,0,0,1,0,0V635.18435A5.66929,5.66929,0,0,1,59.22006,629.51505Z" stroke="#666" stroke-miterlimit="10" stroke-width="2"/><circle cx="84.45066" cy="641.18435" r="5.66929" fill="#d9444d"/><circle cx="128.9951" cy="641.18435" r="5.66929" fill="#d9444d"/><circle cx="173.53953" cy="641.18435" r="5.66929" fill="#d9444d"/><circle cx="218.08397" cy="641.18435" r="5.66929" fill="#d9444d"/><circle cx="262.62841" cy="641.18435" r="5.66929" fill="#d9444d"/><circle cx="307.17284" cy="641.18435" r="5.66929" fill="#d9444d"/><rect x="202.88412" y="696.6812" width="283.46459" height="51.02363" rx="5.66929" ry="5.66929" fill="#363636" stroke="#666" stroke-miterlimit="10" stroke-width="2"/><path d="M208.55341,696.6812h272.126a5.66929,5.66929,0,0,1,5.66929,5.66929V719.0353a0,0,0,0,1,0,0H202.88412a0,0,0,0,1,0,0V702.35049A5.66929,5.66929,0,0,1,208.55341,696.6812Z" stroke="#666" stroke-miterlimit="10" stroke-width="2"/><circle cx="233.78401" cy="708.35049" r="5.66929" fill="#d9444d"/><circle cx="278.32844" cy="708.35049" r="5.66929" fill="#d9444d"/><circle cx="322.87288" cy="708.35049" r="5.66929" fill="#d9444d"/><circle cx="367.41732" cy="708.35049" r="5.66929" fill="#d9444d"/><circle cx="411.96175" cy="708.35049" r="5.66929" fill="#d9444d"/><circle cx="456.50619" cy="708.35049" r="5.66929" fill="#d9444d"/><path d="M533.5791,45.542c0-4.2207,2.48047-6.80176,5.82129-6.80176a4.78667,4.78667,0,0,1,3.60059,1.6211l-.89942,1.08008a3.58673,3.58673,0,0,0-2.68066-1.24024c-2.48047,0-4.1211,2.04-4.1211,5.30078,0,3.30078,1.58008,5.38086,4.06055,5.38086a3.96048,3.96048,0,0,0,3.041-1.47949l.91992,1.04a5.077,5.077,0,0,1-4.02051,1.90039C536.01953,52.34375,533.5791,49.82324,533.5791,45.542Z" fill="#a9c0fd"/><path d="M544.87891,47.2627c0-3.26075,2.12109-5.1211,4.501-5.1211,2.38086,0,4.501,1.86035,4.501,5.1211,0,3.2207-2.12012,5.081-4.501,5.081C547,52.34375,544.87891,50.4834,544.87891,47.2627Zm7.30175,0c0-2.24024-1.12011-3.76075-2.80078-3.76075-1.66015,0-2.80078,1.52051-2.80078,3.76075,0,2.2207,1.14063,3.7207,2.80078,3.7207C551.06055,50.9834,552.18066,49.4834,552.18066,47.2627Z" fill="#a9c0fd"/><path d="M556.43945,42.38184h1.36035l.13965,1.39941H558a4.58124,4.58124,0,0,1,3.25977-1.63965c2.041,0,2.96093,1.32031,2.96093,3.80078v6.16114h-1.64062V46.16211c0-1.82031-.55957-2.60059-1.83985-2.60059-1,0-1.68066.52051-2.66113,1.501v7.041h-1.63965Z" fill="#a9c0fd"/><path d="M567.66016,49.10254V43.72168h-1.44043V42.48145l1.51953-.09961.20019-2.72071h1.38086v2.72071h2.62012v1.33984h-2.62012v5.40137c0,1.20019.37989,1.87988,1.5,1.87988a3.534,3.534,0,0,0,1.10059-.25977l.31933,1.24024a6.01184,6.01184,0,0,1-1.7998.36035C568.35938,52.34375,567.66016,51.02344,567.66016,49.10254Z" fill="#a9c0fd"/><path d="M573.83887,39.32031a1.14373,1.14373,0,0,1,2.28125,0,1.14365,1.14365,0,0,1-2.28125,0Zm.30078,3.06153h1.63965v9.72168h-1.63965Z" fill="#a9c0fd"/><path d="M579.05957,42.38184h1.36035l.13965,1.39941h.05957a4.58515,4.58515,0,0,1,3.26074-1.63965c2.041,0,2.96094,1.32031,2.96094,3.80078v6.16114H585.2002V46.16211c0-1.82031-.55958-2.60059-1.83985-2.60059-1,0-1.68066.52051-2.66113,1.501v7.041h-1.63965Z" fill="#a9c0fd"/><path d="M589.27832,47.2627c0-3.26075,2.12109-5.1211,4.501-5.1211,2.38086,0,4.501,1.86035,4.501,5.1211,0,3.2207-2.12011,5.081-4.501,5.081C591.39941,52.34375,589.27832,50.4834,589.27832,47.2627Zm7.30176,0c0-2.24024-1.12012-3.76075-2.80078-3.76075-1.66016,0-2.80078,1.52051-2.80078,3.76075,0,2.2207,1.14062,3.7207,2.80078,3.7207C595.46,50.9834,596.58008,49.4834,596.58008,47.2627Z" fill="#a9c0fd"/><path d="M600.69824,48.543V42.38184h1.66114v5.94043c0,1.82128.54,2.60058,1.82031,2.60058,1,0,1.70019-.5,2.62011-1.63965V42.38184h1.64063v9.72168h-1.36035l-.14063-1.52051h-.05957a4.1091,4.1091,0,0,1-3.20019,1.76074C601.61914,52.34375,600.69824,51.02344,600.69824,48.543Z" fill="#a9c0fd"/><path d="M610.63867,51.00293l.81934-1.09961a4.37789,4.37789,0,0,0,2.86133,1.16016c1.28027,0,1.91992-.68067,1.91992-1.52051,0-1-1.16016-1.44043-2.22071-1.84082-1.37988-.5-2.90039-1.16016-2.90039-2.79981,0-1.56054,1.24024-2.76074,3.34082-2.76074a4.85406,4.85406,0,0,1,3.02051,1.09961l-.78027,1.041a3.6052,3.6052,0,0,0-2.21973-.86035c-1.2207,0-1.78125.66015-1.78125,1.40039,0,.91992,1.06055,1.25976,2.16114,1.67968,1.40039.52051,2.96,1.10059,2.96,2.94141,0,1.58008-1.25977,2.90039-3.56055,2.90039A5.84754,5.84754,0,0,1,610.63867,51.00293Z" fill="#a9c0fd"/><path d="M549.209,60.98047h2l2.52051,7.002c.32031.90039.62012,1.83985.94043,2.74024H554.75c.32031-.90039.58008-1.83985.90039-2.74024l2.48047-7.002h2.02051V74.10352h-1.56055V66.88184c0-1.16016.13965-2.72071.21973-3.88086h-.08008l-1.04,2.98047L555.21,72.7832h-1.10058l-2.48047-6.80175-1.04-2.98047h-.08008c.08008,1.16015.20019,2.7207.20019,3.88086v7.22168h-1.5Z" fill="#a9c0fd"/><path d="M562.86816,69.2627c0-3.26075,2.1211-5.1211,4.501-5.1211,2.38086,0,4.501,1.86035,4.501,5.1211,0,3.2207-2.12012,5.08105-4.501,5.08105C564.98926,74.34375,562.86816,72.4834,562.86816,69.2627Zm7.30176,0c0-2.24024-1.12012-3.76075-2.80078-3.76075-1.66016,0-2.80078,1.52051-2.80078,3.76075,0,2.2207,1.14062,3.7207,2.80078,3.7207C569.0498,72.9834,570.16992,71.4834,570.16992,69.2627Z" fill="#a9c0fd"/><path d="M573.72852,69.2627c0-3.16114,2-5.1211,4.2207-5.1211a4.006,4.006,0,0,1,2.7207,1.12012l-.08008-1.66016V59.86035H582.25V74.10352h-1.36035L580.75,72.96289h-.06055a4.38411,4.38411,0,0,1-2.94043,1.38086C575.30859,74.34375,573.72852,72.50293,573.72852,69.2627Zm6.86132,2.36035V66.542a3.38409,3.38409,0,0,0-2.36035-1.02051c-1.56054,0-2.80078,1.501-2.80078,3.72071,0,2.32031.98047,3.7207,2.68067,3.7207A3.28812,3.28812,0,0,0,580.58984,71.62305Z" fill="#a9c0fd"/><path d="M584.80762,69.2627c0-3.18067,2.14062-5.1211,4.36133-5.1211,2.48046,0,3.88085,1.78028,3.88085,4.56055a6.3568,6.3568,0,0,1-.06054.94043h-6.56055c.11914,2.06054,1.37988,3.38086,3.24024,3.38086a4.39033,4.39033,0,0,0,2.42089-.76074l.58008,1.08105a5.79342,5.79342,0,0,1-3.20117,1C586.86816,74.34375,584.80762,72.44336,584.80762,69.2627Zm6.80176-.80079c0-1.96-.87989-3.0205-2.4004-3.0205-1.36035,0-2.60058,1.10058-2.80078,3.0205Z" fill="#a9c0fd"/><path d="M599.50781,73.10352a1.19359,1.19359,0,1,1,2.38086,0,1.19143,1.19143,0,1,1-2.38086,0Zm.40039-10.52247-.04-1.88085h1.66016l-.04,1.88085-.21973,7.56153h-1.14062Z" fill="#a9c0fd"/></svg>