<svg xmlns="http://www.w3.org/2000/svg" viewBox="0 0 800 900"><title>allpass-effect-comb</title><rect x="0.5" y="0.5" width="799" height="899" rx="3.5" ry="3.5" fill="#141414"/><path d="M796,1a3.00336,3.00336,0,0,1,3,3V896a3.00333,3.00333,0,0,1-3,3H4a3.00333,3.00333,0,0,1-3-3V4A3.00336,3.00336,0,0,1,4,1H796m0-1H4A4,4,0,0,0,0,4V896a4,4,0,0,0,4,4H796a4,4,0,0,0,4-4V4a4,4,0,0,0-4-4Z" fill="#666"/><rect x="10" y="40" width="780" height="400"/><rect x="10" y="490" width="780" height="400"/><line x1="770" y1="40" x2="770" y2="440" fill="none" stroke="#202020"/><line x1="750" y1="40" x2="750" y2="440" fill="none" stroke="#202020"/><line x1="730" y1="40" x2="730" y2="440" fill="none" stroke="#202020"/><line x1="710" y1="40" x2="710" y2="440" fill="none" stroke="#202020"/><line x1="690" y1="40" x2="690" y2="440" fill="none" stroke="#202020"/><line x1="670" y1="40" x2="670" y2="440" fill="none" stroke="#202020"/><line x1="650" y1="40" x2="650" y2="440" fill="none" stroke="#202020"/><line x1="630" y1="40" x2="630" y2="440" fill="none" stroke="#202020"/><line x1="610" y1="40" x2="610" y2="440" fill="none" stroke="#202020"/><line x1="590" y1="40" x2="590" y2="440" fill="none" stroke="#202020"/><line x1="570" y1="40" x2="570" y2="440" fill="none" stroke="#202020"/><line x1="550" y1="40" x2="550" y2="440" fill="none" stroke="#202020"/><line x1="530" y1="40" x2="530" y2="440" fill="none" stroke="#202020"/><line x1="510" y1="40" x2="510" y2="440" fill="none" stroke="#202020"/><line x1="490" y1="40" x2="490" y2="440" fill="none" stroke="#202020"/><line x1="470" y1="40" x2="470" y2="440" fill="none" stroke="#202020"/><line x1="450" y1="40" x2="450" y2="440" fill="none" stroke="#202020"/><line x1="430" y1="40" x2="430" y2="440" fill="none" stroke="#202020"/><line x1="410" y1="40" x2="410" y2="440" fill="none" stroke="#202020"/><line x1="390" y1="40" x2="390" y2="440" fill="none" stroke="#202020"/><line x1="370" y1="40" x2="370" y2="440" fill="none" stroke="#202020"/><line x1="350" y1="40" x2="350" y2="440" fill="none" stroke="#202020"/><line x1="330" y1="40" x2="330" y2="440" fill="none" stroke="#202020"/><line x1="310" y1="40" x2="310" y2="440" fill="none" stroke="#202020"/><line x1="290" y1="40" x2="290" y2="440" fill="none" stroke="#202020"/><line x1="270" y1="40" x2="270" y2="440" fill="none" stroke="#202020"/><line x1="250" y1="40" x2="250" y2="440" fill="none" stroke="#202020"/><line x1="230" y1="40" x2="230" y2="440" fill="none" stroke="#202020"/><line x1="210" y1="40" x2="210" y2="440" fill="none" stroke="#202020"/><line x1="190" y1="40" x2="190" y2="440" fill="none" stroke="#202020"/><line x1="170" y1="40" x2="170" y2="440" fill="none" stroke="#202020"/><line x1="150" y1="40" x2="150" y2="440" fill="none" stroke="#202020"/><line x1="130" y1="40" x2="130" y2="440" fill="none" stroke="#202020"/><line x1="110" y1="40" x2="110" y2="440" fill="none" stroke="#202020"/><line x1="90" y1="40" x2="90" y2="440" fill="none" stroke="#202020"/><line x1="70" y1="40" x2="70" y2="440" fill="none" stroke="#202020"/><line x1="50" y1="40" x2="50" y2="440" fill="none" stroke="#202020"/><line x1="30" y1="40" x2="30" y2="440" fill="none" stroke="#202020"/><line x1="790" y1="340" x2="10" y2="340" fill="none" stroke="#202020"/><line x1="790" y1="360" x2="10" y2="360" fill="none" stroke="#202020"/><line x1="790" y1="380" x2="10" y2="380" fill="none" stroke="#202020"/><line x1="790" y1="400" x2="10" y2="400" fill="none" stroke="#202020"/><line x1="790" y1="420" x2="10" y2="420" fill="none" stroke="#202020"/><line x1="790" y1="320" x2="10" y2="320" fill="none" stroke="#202020"/><line x1="790" y1="300" x2="10" y2="300" fill="none" stroke="#202020"/><line x1="790" y1="280" x2="10" y2="280" fill="none" stroke="#202020"/><line x1="790" y1="260" x2="10" y2="260" fill="none" stroke="#202020"/><line x1="790" y1="240" x2="10" y2="240" fill="none" stroke="#202020"/><line x1="790" y1="220" x2="10" y2="220" fill="none" stroke="#202020"/><line x1="790" y1="200" x2="10" y2="200" fill="none" stroke="#202020"/><line x1="790" y1="180" x2="10" y2="180" fill="none" stroke="#202020"/><line x1="790" y1="160" x2="10" y2="160" fill="none" stroke="#202020"/><line x1="790" y1="140" x2="10" y2="140" fill="none" stroke="#202020"/><line x1="790" y1="120" x2="10" y2="120" fill="none" stroke="#202020"/><line x1="790" y1="100" x2="10" y2="100" fill="none" stroke="#202020"/><line x1="790" y1="80" x2="10" y2="80" fill="none" stroke="#202020"/><line x1="790" y1="60" x2="10" y2="60" fill="none" stroke="#202020"/><line x1="770" y1="490" x2="770" y2="890" fill="none" stroke="#202020"/><line x1="750" y1="490" x2="750" y2="890" fill="none" stroke="#202020"/><line x1="730" y1="490" x2="730" y2="890" fill="none" stroke="#202020"/><line x1="710" y1="490" x2="710" y2="890" fill="none" stroke="#202020"/><line x1="690" y1="490" x2="690" y2="890" fill="none" stroke="#202020"/><line x1="670" y1="490" x2="670" y2="890" fill="none" stroke="#202020"/><line x1="650" y1="490" x2="650" y2="890" fill="none" stroke="#202020"/><line x1="630" y1="490" x2="630" y2="890" fill="none" stroke="#202020"/><line x1="610" y1="490" x2="610" y2="890" fill="none" stroke="#202020"/><line x1="590" y1="490" x2="590" y2="890" fill="none" stroke="#202020"/><line x1="570" y1="490" x2="570" y2="890" fill="none" stroke="#202020"/><line x1="550" y1="490" x2="550" y2="890" fill="none" stroke="#202020"/><line x1="530" y1="490" x2="530" y2="890" fill="none" stroke="#202020"/><line x1="510" y1="490" x2="510" y2="890" fill="none" stroke="#202020"/><line x1="490" y1="490" x2="490" y2="890" fill="none" stroke="#202020"/><line x1="470" y1="490" x2="470" y2="890" fill="none" stroke="#202020"/><line x1="450" y1="490" x2="450" y2="890" fill="none" stroke="#202020"/><line x1="430" y1="490" x2="430" y2="890" fill="none" stroke="#202020"/><line x1="410" y1="490" x2="410" y2="890" fill="none" stroke="#202020"/><line x1="390" y1="490" x2="390" y2="890" fill="none" stroke="#202020"/><line x1="370" y1="490" x2="370" y2="890" fill="none" stroke="#202020"/><line x1="350" y1="490" x2="350" y2="890" fill="none" stroke="#202020"/><line x1="330" y1="490" x2="330" y2="890" fill="none" stroke="#202020"/><line x1="310" y1="490" x2="310" y2="890" fill="none" stroke="#202020"/><line x1="290" y1="490" x2="290" y2="890" fill="none" stroke="#202020"/><line x1="270" y1="490" x2="270" y2="890" fill="none" stroke="#202020"/><line x1="250" y1="490" x2="250" y2="890" fill="none" stroke="#202020"/><line x1="230" y1="490" x2="230" y2="890" fill="none" stroke="#202020"/><line x1="210" y1="490" x2="210" y2="890" fill="none" stroke="#202020"/><line x1="190" y1="490" x2="190" y2="890" fill="none" stroke="#202020"/><line x1="170" y1="490" x2="170" y2="890" fill="none" stroke="#202020"/><line x1="150" y1="490" x2="150" y2="890" fill="none" stroke="#202020"/><line x1="130" y1="490" x2="130" y2="890" fill="none" stroke="#202020"/><line x1="110" y1="490" x2="110" y2="890" fill="none" stroke="#202020"/><line x1="90" y1="490" x2="90" y2="890" fill="none" stroke="#202020"/><line x1="70" y1="490" x2="70" y2="890" fill="none" stroke="#202020"/><line x1="50" y1="490" x2="50" y2="890" fill="none" stroke="#202020"/><line x1="30" y1="490" x2="30" y2="890" fill="none" stroke="#202020"/><line x1="790" y1="790" x2="10" y2="790" fill="none" stroke="#202020"/><line x1="790" y1="810" x2="10" y2="810" fill="none" stroke="#202020"/><line x1="790" y1="830" x2="10" y2="830" fill="none" stroke="#202020"/><line x1="790" y1="850" x2="10" y2="850" fill="none" stroke="#202020"/><line x1="790" y1="870" x2="10" y2="870" fill="none" stroke="#202020"/><line x1="790" y1="770" x2="10" y2="770" fill="none" stroke="#202020"/><line x1="790" y1="750" x2="10" y2="750" fill="none" stroke="#202020"/><line x1="790" y1="730" x2="10" y2="730" fill="none" stroke="#202020"/><line x1="790" y1="710" x2="10" y2="710" fill="none" stroke="#202020"/><line x1="790" y1="690" x2="10" y2="690" fill="none" stroke="#202020"/><line x1="790" y1="670" x2="10" y2="670" fill="none" stroke="#202020"/><line x1="790" y1="650" x2="10" y2="650" fill="none" stroke="#202020"/><line x1="790" y1="630" x2="10" y2="630" fill="none" stroke="#202020"/><line x1="790" y1="610" x2="10" y2="610" fill="none" stroke="#202020"/><line x1="790" y1="590" x2="10" y2="590" fill="none" stroke="#202020"/><line x1="790" y1="570" x2="10" y2="570" fill="none" stroke="#202020"/><line x1="790" y1="550" x2="10" y2="550" fill="none" stroke="#202020"/><line x1="790" y1="530" x2="10" y2="530" fill="none" stroke="#202020"/><line x1="790" y1="510" x2="10" y2="510" fill="none" stroke="#202020"/><rect x="10" y="11" width="780" height="30" fill="#363636"/><rect x="10" y="460" width="780" height="30" fill="#363636"/><path d="M271.70752,19.18994h2.95312c3.63721,0,5.58155,2.10645,5.58155,5.85156,0,3.76368-1.94434,5.96-5.50977,5.96h-3.0249Zm2.84521,10.58692c2.75489,0,4.14112-1.7461,4.14112-4.73536,0-2.9707-1.38623-4.627-4.14112-4.627h-1.35058v9.36231Z" fill="#cacaca"/><path d="M281.98535,26.644c0-2.8623,1.92676-4.60937,3.92529-4.60937,2.23243,0,3.49268,1.60254,3.49268,4.10547a5.7067,5.7067,0,0,1-.05371.8457h-5.90576a2.90233,2.90233,0,0,0,2.917,3.043,3.9524,3.9524,0,0,0,2.17822-.6836l.52246.97168a5.2096,5.2096,0,0,1-2.88086.9004C283.83984,31.21729,281.98535,29.50732,281.98535,26.644Zm6.12158-.71972c0-1.76465-.792-2.71875-2.16064-2.71875a2.70266,2.70266,0,0,0-2.52051,2.71875Z" fill="#cacaca"/><path d="M291.6333,28.30029V23.45752h-1.29639V22.34131l1.36866-.09082.17968-2.44824h1.24268v2.44824h2.3584v1.207h-2.3584v4.86133c0,1.08008.3418,1.69238,1.3501,1.69238a3.17166,3.17166,0,0,0,.99072-.23437l.28809,1.11621a5.40309,5.40309,0,0,1-1.62061.32422C292.26367,31.21729,291.6333,30.02881,291.6333,28.30029Z" fill="#cacaca"/><path d="M297.33936,27.79639v-5.5459h1.49414v5.34765c0,1.63868.48632,2.34082,1.63867,2.34082.90039,0,1.53027-.45019,2.35888-1.47656V22.25049h1.47608v8.751H303.083l-.126-1.36816h-.0542a3.69829,3.69829,0,0,1-2.88086,1.584C298.16748,31.21729,297.33936,30.02881,297.33936,27.79639Z" fill="#cacaca"/><path d="M307.25684,22.25049h1.22461l.126,1.26074h.0542a4.12507,4.12507,0,0,1,2.93457-1.47656c1.83692,0,2.665,1.18847,2.665,3.4209v5.54589h-1.47656V25.65381c0-1.63867-.50391-2.34082-1.65625-2.34082-.90039,0-1.5127.46875-2.395,1.35058v6.33789h-1.47656Z" fill="#cacaca"/><path d="M316.45459,26.644c0-2.8623,1.92676-4.60937,3.92529-4.60937,2.23291,0,3.49317,1.60254,3.49317,4.10547a5.70028,5.70028,0,0,1-.0542.8457h-5.90576a2.90289,2.90289,0,0,0,2.917,3.043,3.95527,3.95527,0,0,0,2.17871-.6836l.522.97168a5.20833,5.20833,0,0,1-2.88086.9004C318.30957,31.21729,316.45459,29.50732,316.45459,26.644Zm6.12207-.71972c0-1.76465-.79248-2.71875-2.16064-2.71875a2.70271,2.70271,0,0,0-2.521,2.71875Z" fill="#cacaca"/><path d="M325.40039,26.644c0-2.84472,1.80078-4.60937,3.79932-4.60937a3.603,3.603,0,0,1,2.44873,1.00879l-.07227-1.49512V18.18213h1.49463V31.00146h-1.22412l-.12647-1.02636h-.05371a3.94836,3.94836,0,0,1-2.647,1.24219C326.82275,31.21729,325.40039,29.561,325.40039,26.644Zm6.17578,2.125V24.1958a3.04193,3.04193,0,0,0-2.12451-.91894c-1.4043,0-2.52051,1.35058-2.52051,3.3496,0,2.0879.88233,3.34864,2.4126,3.34864A2.96315,2.96315,0,0,0,331.57617,28.769Z" fill="#cacaca"/><path d="M339.76465,19.18994h3.36719c2.64648,0,4.4292.88184,4.4292,3.47461,0,2.48535-1.76465,3.65527-4.35743,3.65527h-1.94433v4.68164h-1.49463Zm3.25879,5.90625c2.05273,0,3.043-.75683,3.043-2.43164,0-1.71-1.04444-2.26855-3.11475-2.26855h-1.69238v4.70019Z" fill="#cacaca"/><path d="M348.49414,28.73291c0-1.9082,1.63867-2.86328,5.36572-3.27734,0-1.11621-.36035-2.19629-1.80078-2.19629a4.75151,4.75151,0,0,0-2.61035.93652l-.57617-1.02637a6.49043,6.49043,0,0,1,3.439-1.13476c2.14258,0,3.043,1.42285,3.043,3.60156v5.36523h-1.22461l-.126-1.04394h-.0542a4.67009,4.67009,0,0,1-2.89893,1.25977A2.381,2.381,0,0,1,348.49414,28.73291Zm5.36572.126V26.42822c-2.917.36035-3.92529,1.08008-3.92529,2.19629,0,.99024.68408,1.4043,1.54834,1.4043A3.54738,3.54738,0,0,0,353.85986,28.85889Z" fill="#cacaca"/><path d="M358.10645,22.25049h1.22412l.12646,1.585h.05371a2.99317,2.99317,0,0,1,2.48487-1.80078,2.15945,2.15945,0,0,1,.936.18066l-.28809,1.2959a2.45241,2.45241,0,0,0-.84619-.14355c-.73828,0-1.62011.54-2.21435,2.01562v5.61816h-1.47656Z" fill="#cacaca"/><path d="M364.60449,28.30029V23.45752h-1.29638V22.34131l1.36816-.09082.18018-2.44824h1.24218v2.44824h2.35889v1.207h-2.35889v4.86133c0,1.08008.34229,1.69238,1.35059,1.69238a3.16866,3.16866,0,0,0,.99023-.23437l.28809,1.11621a5.4,5.4,0,0,1-1.62061.32422C365.23438,31.21729,364.60449,30.02881,364.60449,28.30029Z" fill="#cacaca"/><path d="M370.166,19.49561a1.0291,1.0291,0,0,1,2.05273,0,1.029,1.029,0,0,1-2.05273,0Zm.27,2.75488h1.47656v8.751H370.436Z" fill="#cacaca"/><path d="M374.32373,28.73291c0-1.9082,1.63818-2.86328,5.36523-3.27734,0-1.11621-.35986-2.19629-1.80029-2.19629a4.75312,4.75312,0,0,0-2.61084.93652l-.57617-1.02637a6.49193,6.49193,0,0,1,3.439-1.13476c2.14258,0,3.043,1.42285,3.043,3.60156v5.36523h-1.22412l-.12646-1.04394h-.05371a4.67123,4.67123,0,0,1-2.89893,1.25977A2.3808,2.3808,0,0,1,374.32373,28.73291Zm5.36523.126V26.42822c-2.9165.36035-3.9248,1.08008-3.9248,2.19629,0,.99024.68408,1.4043,1.54834,1.4043A3.54734,3.54734,0,0,0,379.689,28.85889Z" fill="#cacaca"/><path d="M383.93555,29.23682V18.18213h1.47656V29.34521c0,.46778.19824.64747.41406.64747a1.2691,1.2691,0,0,0,.32422-.03516l.19824,1.11621a1.99249,1.99249,0,0,1-.84619.14356C384.38574,31.21729,383.93555,30.51514,383.93555,29.23682Z" fill="#cacaca"/><path d="M387.55322,30.01123l.73828-.99023a3.93434,3.93434,0,0,0,2.57471,1.04394c1.15234,0,1.72852-.6123,1.72852-1.36816,0-.90039-1.04444-1.2959-1.99854-1.65625-1.24219-.4502-2.61084-1.04492-2.61084-2.52051,0-1.40527,1.11621-2.48535,3.00684-2.48535a4.36714,4.36714,0,0,1,2.71875.99023l-.70215.93653a3.24895,3.24895,0,0,0-1.99854-.77442c-1.09814,0-1.60254.59473-1.60254,1.26074,0,.82813.95459,1.13379,1.94483,1.51172,1.26025.46875,2.66455.99121,2.66455,2.64746,0,1.42188-1.13428,2.61036-3.20459,2.61036A5.26484,5.26484,0,0,1,387.55322,30.01123Z" fill="#cacaca"/><path d="M399.66748,25.99561a14.97162,14.97162,0,0,1,2.37647-8.17383l.91845.43164a14.98455,14.98455,0,0,0-2.0708,7.74219,14.98551,14.98551,0,0,0,2.0708,7.74316l-.91845.43164A14.97739,14.97739,0,0,1,399.66748,25.99561Z" fill="#cacaca"/><path d="M407.69629,19.18994h1.69238l3.99707,11.81152H411.7832L410.667,27.40088h-4.30322l-1.13428,3.60058h-1.53076Zm-.95459,7.00391h3.54736l-.55859-1.80078c-.43213-1.31446-.81006-2.61036-1.188-3.97852h-.07227c-.35986,1.36816-.73828,2.66406-1.17041,3.97852Z" fill="#cacaca"/><path d="M415.05713,19.18994h3.3667c2.647,0,4.42969.88184,4.42969,3.47461,0,2.48535-1.76465,3.65527-4.35743,3.65527h-1.94433v4.68164h-1.49463Zm3.25879,5.90625c2.05273,0,3.043-.75683,3.043-2.43164,0-1.71-1.04444-2.26855-3.11475-2.26855h-1.69238v4.70019Z" fill="#cacaca"/><path d="M431.29346,20.45068h-3.56494V19.18994h8.64257v1.26074h-3.56543V31.00146h-1.5122Z" fill="#cacaca"/><path d="M437.395,27.79639v-5.5459h1.49414v5.34765c0,1.63868.48633,2.34082,1.63867,2.34082.90039,0,1.53028-.45019,2.35889-1.47656V22.25049h1.47607v8.751h-1.22412l-.126-1.36816h-.0542a3.69831,3.69831,0,0,1-2.88086,1.584C438.22314,31.21729,437.395,30.02881,437.395,27.79639Z" fill="#cacaca"/><path d="M447.313,22.25049h1.22412l.126,1.26074h.0542a4.12516,4.12516,0,0,1,2.935-1.47656c1.83643,0,2.66455,1.18847,2.66455,3.4209v5.54589h-1.47656V25.65381c0-1.63867-.5039-2.34082-1.65625-2.34082-.90039,0-1.51269.46875-2.395,1.35058v6.33789H447.313Z" fill="#cacaca"/><path d="M456.51025,26.644c0-2.8623,1.92676-4.60937,3.9253-4.60937,2.23242,0,3.49316,1.60254,3.49316,4.10547a5.70028,5.70028,0,0,1-.0542.8457h-5.90576a2.90233,2.90233,0,0,0,2.917,3.043,3.95522,3.95522,0,0,0,2.17871-.6836l.522.97168a5.20966,5.20966,0,0,1-2.88086.9004C458.36475,31.21729,456.51025,29.50732,456.51025,26.644Zm6.12207-.71972c0-1.76465-.79248-2.71875-2.16064-2.71875a2.70271,2.70271,0,0,0-2.521,2.71875Z" fill="#cacaca"/><path d="M471.07275,22.93506c-.522,0-.97216.32422-1.38623,1.09863l-.82812-.59473a2.67731,2.67731,0,0,1,2.25049-1.62011c1.42236,0,2.17871,1.51269,3.187,1.51269.522,0,.97217-.32422,1.38623-1.09863l.82812.6123a2.68926,2.68926,0,0,1-2.25048,1.60254C472.8374,24.44775,472.08105,22.93506,471.07275,22.93506Zm0,3.85351c-.522,0-.97216.32325-1.38623,1.09766l-.82812-.59375a2.67732,2.67732,0,0,1,2.25049-1.62012c1.42236,0,2.17871,1.51172,3.187,1.51172.522,0,.97217-.32422,1.38623-1.09765l.82812.61132a2.68731,2.68731,0,0,1-2.25048,1.60254C472.8374,28.30029,472.08105,26.78857,471.07275,26.78857Z" fill="#cacaca"/><path d="M482.17822,29.77686h2.62891V21.31494h-2.08887v-.95508a6.83169,6.83169,0,0,0,2.43115-.8457h1.13428v10.2627h2.37647v1.2246h-6.48194Z" fill="#cacaca"/><path d="M490.49414,25.22217c0-3.85352,1.38623-5.92383,3.69092-5.92383,2.28662,0,3.67285,2.07031,3.67285,5.92383,0,3.85254-1.38623,5.99512-3.67285,5.99512C491.88037,31.21729,490.49414,29.07471,490.49414,25.22217Zm5.92334,0c0-3.36719-.8999-4.73535-2.23242-4.73535-1.35059,0-2.25049,1.36816-2.25049,4.73535,0,3.36621.8999,4.80664,2.25049,4.80664C495.51758,30.02881,496.41748,28.58838,496.41748,25.22217Z" fill="#cacaca"/><path d="M499.43945,25.22217c0-3.85352,1.38672-5.92383,3.69141-5.92383,2.28662,0,3.67285,2.07031,3.67285,5.92383,0,3.85254-1.38623,5.99512-3.67285,5.99512C500.82617,31.21729,499.43945,29.07471,499.43945,25.22217Zm5.92383,0c0-3.36719-.8999-4.73535-2.23242-4.73535-1.35059,0-2.251,1.36816-2.251,4.73535,0,3.36621.90039,4.80664,2.251,4.80664C504.46338,30.02881,505.36328,28.58838,505.36328,25.22217Z" fill="#cacaca"/><path d="M511.69727,30.01123l.73828-.99023a3.93555,3.93555,0,0,0,2.57519,1.04394c1.15235,0,1.72852-.6123,1.72852-1.36816,0-.90039-1.04444-1.2959-1.999-1.65625-1.24218-.4502-2.61035-1.04492-2.61035-2.52051,0-1.40527,1.11621-2.48535,3.00684-2.48535a4.36936,4.36936,0,0,1,2.71875.99023l-.70215.93653a3.25029,3.25029,0,0,0-1.999-.77442c-1.09815,0-1.60205.59473-1.60205,1.26074,0,.82813.9541,1.13379,1.94433,1.51172,1.26026.46875,2.665.99121,2.665,2.64746,0,1.42188-1.13428,2.61036-3.20508,2.61036A5.26592,5.26592,0,0,1,511.69727,30.01123Z" fill="#cacaca"/><path d="M520.104,28.30029V23.45752h-1.29638V22.34131l1.36816-.09082.18018-2.44824h1.24267v2.44824h2.3584v1.207h-2.3584v4.86133c0,1.08008.3418,1.69238,1.3501,1.69238a3.16866,3.16866,0,0,0,.99023-.23437l.28809,1.11621a5.39688,5.39688,0,0,1-1.62012.32422C520.73438,31.21729,520.104,30.02881,520.104,28.30029Z" fill="#cacaca"/><path d="M525.14307,33.73877a14.98081,14.98081,0,0,0,2.0708-7.74316,14.97985,14.97985,0,0,0-2.0708-7.74219l.91845-.43164a15.24678,15.24678,0,0,1,0,16.34863Z" fill="#cacaca"/><path d="M276.18066,468.18994h2.95264c3.63721,0,5.582,2.10645,5.582,5.85156,0,3.76368-1.94482,5.96-5.50976,5.96h-3.02491Zm2.84473,10.58692c2.75488,0,4.14111-1.7461,4.14111-4.73536,0-2.9707-1.38623-4.62695-4.14111-4.62695h-1.3501v9.36231Z" fill="#cacaca"/><path d="M286.458,475.644c0-2.8623,1.92676-4.60937,3.92529-4.60937,2.23291,0,3.49316,1.60254,3.49316,4.10547a5.70041,5.70041,0,0,1-.05419.8457H287.9165a2.9029,2.9029,0,0,0,2.917,3.043,3.95527,3.95527,0,0,0,2.17871-.6836l.522.97168a5.20833,5.20833,0,0,1-2.88086.9004C288.313,480.21729,286.458,478.50732,286.458,475.644Zm6.12207-.71972c0-1.76465-.79248-2.71875-2.16065-2.71875a2.70269,2.70269,0,0,0-2.521,2.71875Z" fill="#cacaca"/><path d="M296.10645,477.30029v-4.84277h-1.29639v-1.11621l1.36816-.09082.18018-2.44824h1.24219v2.44824h2.35888v1.207h-2.35888v4.86133c0,1.08008.34228,1.69238,1.35058,1.69238a3.16879,3.16879,0,0,0,.99024-.23437l.28808,1.11621a5.4,5.4,0,0,1-1.6206.32422C296.73633,480.21729,296.10645,479.02881,296.10645,477.30029Z" fill="#cacaca"/><path d="M301.812,476.79639v-5.5459h1.49463v5.34765c0,1.63868.48633,2.34082,1.63867,2.34082.8999,0,1.53028-.45019,2.3584-1.47656v-6.21191h1.47656v8.751h-1.22461l-.126-1.36816H307.376a3.6998,3.6998,0,0,1-2.88086,1.584C302.64062,480.21729,301.812,479.02881,301.812,476.79639Z" fill="#cacaca"/><path d="M311.73,471.25049h1.22412l.12647,1.26074h.05371a4.12517,4.12517,0,0,1,2.93506-1.47656c1.83642,0,2.66455,1.18847,2.66455,3.4209v5.54589h-1.47608v-5.34765c0-1.63867-.50439-2.34082-1.65674-2.34082-.90039,0-1.5122.46875-2.39453,1.35058v6.33789H311.73Z" fill="#cacaca"/><path d="M320.92773,475.644c0-2.8623,1.92676-4.60937,3.9253-4.60937,2.23242,0,3.49267,1.60254,3.49267,4.10547a5.7067,5.7067,0,0,1-.05371.8457h-5.90576a2.90233,2.90233,0,0,0,2.917,3.043,3.95241,3.95241,0,0,0,2.17823-.6836l.52246.97168a5.20966,5.20966,0,0,1-2.88086.9004C322.78223,480.21729,320.92773,478.50732,320.92773,475.644Zm6.12159-.71972c0-1.76465-.792-2.71875-2.16065-2.71875a2.70266,2.70266,0,0,0-2.52051,2.71875Z" fill="#cacaca"/><path d="M329.87354,475.644c0-2.84472,1.80029-4.60937,3.79882-4.60937a3.60211,3.60211,0,0,1,2.44873,1.00879l-.07177-1.49512v-3.36621H337.544v12.81933h-1.22461l-.126-1.02636h-.0542a3.94722,3.94722,0,0,1-2.64648,1.24219C331.2959,480.21729,329.87354,478.561,329.87354,475.644Zm6.17578,2.125V473.1958a3.04278,3.04278,0,0,0-2.12452-.91894c-1.40478,0-2.521,1.35058-2.521,3.3496,0,2.0879.88232,3.34864,2.4126,3.34864A2.96329,2.96329,0,0,0,336.04932,477.769Z" fill="#cacaca"/><path d="M344.2373,468.18994h3.36719c2.647,0,4.4292.88184,4.4292,3.47461,0,2.48535-1.76416,3.65527-4.35693,3.65527h-1.94483v4.68164H344.2373Zm3.25928,5.90625c2.05274,0,3.043-.75683,3.043-2.43164,0-1.71-1.04443-2.26855-3.11523-2.26855h-1.69239v4.70019Z" fill="#cacaca"/><path d="M352.96729,477.73291c0-1.9082,1.63818-2.86328,5.36523-3.27734,0-1.11621-.35986-2.19629-1.80029-2.19629a4.75312,4.75312,0,0,0-2.61084.93652l-.57618-1.02637a6.49193,6.49193,0,0,1,3.439-1.13476c2.14258,0,3.043,1.42285,3.043,3.60156v5.36523H358.603l-.12647-1.04394h-.05371a4.6712,4.6712,0,0,1-2.89892,1.25977A2.3808,2.3808,0,0,1,352.96729,477.73291Zm5.36523.126v-2.43067c-2.9165.36035-3.92481,1.08008-3.92481,2.19629,0,.99024.68409,1.4043,1.54834,1.4043A3.54734,3.54734,0,0,0,358.33252,477.85889Z" fill="#cacaca"/><path d="M362.5791,471.25049h1.22461l.126,1.585h.0542a2.9925,2.9925,0,0,1,2.48437-1.80078,2.16029,2.16029,0,0,1,.93653.18066l-.28809,1.2959a2.45452,2.45452,0,0,0-.84619-.14355c-.73828,0-1.62061.54-2.21485,2.01562v5.61816H362.5791Z" fill="#cacaca"/><path d="M369.07715,477.30029v-4.84277h-1.29639v-1.11621l1.36865-.09082.17969-2.44824h1.24268v2.44824h2.3584v1.207h-2.3584v4.86133c0,1.08008.34179,1.69238,1.3501,1.69238a3.17166,3.17166,0,0,0,.99072-.23437l.28808,1.11621a5.403,5.403,0,0,1-1.6206.32422C369.70752,480.21729,369.07715,479.02881,369.07715,477.30029Z" fill="#cacaca"/><path d="M374.63867,468.49561a1.02911,1.02911,0,0,1,2.05274,0,1.029,1.029,0,0,1-2.05274,0Zm.27,2.75488h1.47656v8.751h-1.47656Z" fill="#cacaca"/><path d="M378.79639,477.73291c0-1.9082,1.63867-2.86328,5.36572-3.27734,0-1.11621-.36035-2.19629-1.80078-2.19629a4.75151,4.75151,0,0,0-2.61035.93652l-.57618-1.02637a6.49043,6.49043,0,0,1,3.439-1.13476c2.14258,0,3.043,1.42285,3.043,3.60156v5.36523h-1.22461l-.126-1.04394h-.0542a4.67,4.67,0,0,1-2.89892,1.25977A2.381,2.381,0,0,1,378.79639,477.73291Zm5.36572.126v-2.43067c-2.917.36035-3.92529,1.08008-3.92529,2.19629,0,.99024.68408,1.4043,1.54834,1.4043A3.54738,3.54738,0,0,0,384.16211,477.85889Z" fill="#cacaca"/><path d="M388.40869,478.23682V467.18213h1.47656v11.16308c0,.46778.19776.64747.41407.64747a1.271,1.271,0,0,0,.32422-.03516l.19775,1.11621a1.991,1.991,0,0,1-.84619.14356C388.85889,480.21729,388.40869,479.51514,388.40869,478.23682Z" fill="#cacaca"/><path d="M392.02637,479.01123l.73828-.99023a3.93331,3.93331,0,0,0,2.57471,1.04394c1.15234,0,1.72851-.6123,1.72851-1.36816,0-.90039-1.04443-1.2959-1.99853-1.65625-1.24268-.4502-2.61084-1.04492-2.61084-2.52051,0-1.40527,1.11621-2.48535,3.00683-2.48535a4.36821,4.36821,0,0,1,2.71875.99023l-.70215.93653a3.25,3.25,0,0,0-1.99853-.77442c-1.09863,0-1.60254.59473-1.60254,1.26074,0,.82813.9541,1.13379,1.94434,1.51172,1.26074.46875,2.665.99121,2.665,2.64746,0,1.42188-1.13427,2.61036-3.20507,2.61036A5.26453,5.26453,0,0,1,392.02637,479.01123Z" fill="#cacaca"/><path d="M404.14014,474.99561a14.96793,14.96793,0,0,1,2.377-8.17383l.91846.43164a15.51024,15.51024,0,0,0,0,15.48535l-.91846.43164A14.9737,14.9737,0,0,1,404.14014,474.99561Z" fill="#cacaca"/><path d="M412.169,468.18994h1.69238l3.99707,11.81152h-1.60205l-1.1167-3.60058h-4.30322l-1.13428,3.60058h-1.53027Zm-.95411,7.00391h3.54688l-.55811-1.80078c-.43213-1.31446-.81006-2.61036-1.18847-3.97852h-.07178c-.36035,1.36816-.73828,2.66406-1.17041,3.97852Z" fill="#cacaca"/><path d="M419.52979,468.18994h3.36669c2.647,0,4.42969.88184,4.42969,3.47461,0,2.48535-1.76465,3.65527-4.35742,3.65527h-1.94482v4.68164h-1.49414Zm3.25878,5.90625c2.05274,0,3.043-.75683,3.043-2.43164,0-1.71-1.04443-2.26855-3.11474-2.26855h-1.69287v4.70019Z" fill="#cacaca"/><path d="M435.7666,469.45068h-3.56543v-1.26074h8.64258v1.26074h-3.56494v10.55078H435.7666Z" fill="#cacaca"/><path d="M441.86768,476.79639v-5.5459h1.49414v5.34765c0,1.63868.48632,2.34082,1.63867,2.34082.90039,0,1.53027-.45019,2.35889-1.47656v-6.21191h1.47607v8.751h-1.22412l-.126-1.36816h-.0542a3.69829,3.69829,0,0,1-2.88086,1.584C442.6958,480.21729,441.86768,479.02881,441.86768,476.79639Z" fill="#cacaca"/><path d="M451.78564,471.25049h1.22413l.126,1.26074h.0542a4.1252,4.1252,0,0,1,2.93506-1.47656c1.83643,0,2.66455,1.18847,2.66455,3.4209v5.54589H457.313v-5.34765c0-1.63867-.50391-2.34082-1.65625-2.34082-.90039,0-1.5127.46875-2.395,1.35058v6.33789h-1.47608Z" fill="#cacaca"/><path d="M460.9834,475.644c0-2.8623,1.92676-4.60937,3.92529-4.60937,2.23291,0,3.49317,1.60254,3.49317,4.10547a5.70028,5.70028,0,0,1-.0542.8457h-5.90577a2.90262,2.90262,0,0,0,2.917,3.043,3.95527,3.95527,0,0,0,2.17871-.6836l.522.97168a5.20963,5.20963,0,0,1-2.88086.9004C462.83789,480.21729,460.9834,478.50732,460.9834,475.644Zm6.12207-.71972c0-1.76465-.79248-2.71875-2.16065-2.71875a2.70269,2.70269,0,0,0-2.521,2.71875Z" fill="#cacaca"/><path d="M475.54541,471.93506c-.522,0-.97217.32422-1.38623,1.09863l-.82813-.59473a2.67732,2.67732,0,0,1,2.25049-1.62011c1.42237,0,2.17871,1.51269,3.187,1.51269.522,0,.97217-.32422,1.38624-1.09863l.82812.6123a2.68926,2.68926,0,0,1-2.25049,1.60254C477.31006,473.44775,476.55371,471.93506,475.54541,471.93506Zm0,3.85351c-.522,0-.97217.32325-1.38623,1.09766l-.82813-.59375a2.67733,2.67733,0,0,1,2.25049-1.62012c1.42237,0,2.17871,1.51172,3.187,1.51172.522,0,.97217-.32422,1.38624-1.09765l.82812.61132a2.68731,2.68731,0,0,1-2.25049,1.60254C477.31006,477.30029,476.55371,475.78857,475.54541,475.78857Z" fill="#cacaca"/><path d="M485.9668,477.06689a3.63,3.63,0,0,1,2.16064-3.09765V473.898a3.26077,3.26077,0,0,1-1.60254-2.64746,3.26036,3.26036,0,0,1,6.5.1084,3.78238,3.78238,0,0,1-1.58447,2.77246v.07226a3.3151,3.3151,0,0,1,1.99853,2.95313c0,1.71-1.47656,3.06055-3.709,3.06055C487.56934,480.21729,485.9668,478.88525,485.9668,477.06689Zm6.0498.03614c0-1.47657-1.45849-2.0166-3.11523-2.6836a3.1124,3.1124,0,0,0-1.602,2.50293,2.27712,2.27712,0,0,0,2.4663,2.19727A2.04626,2.04626,0,0,0,492.0166,477.103Zm-.27-5.67188a1.918,1.918,0,0,0-1.99853-2.03515,1.777,1.777,0,0,0-1.8545,1.85449c0,1.36914,1.26026,1.94531,2.64649,2.48535A3.09712,3.09712,0,0,0,491.74658,471.43115Z" fill="#cacaca"/><path d="M494.9668,474.22217c0-3.85352,1.38623-5.92383,3.69091-5.92383,2.28663,0,3.67286,2.07031,3.67286,5.92383,0,3.85254-1.38623,5.99512-3.67286,5.99512C496.353,480.21729,494.9668,478.07471,494.9668,474.22217Zm5.92334,0c0-3.36719-.89991-4.73535-2.23243-4.73535-1.35058,0-2.25048,1.36816-2.25048,4.73535,0,3.36621.8999,4.80664,2.25048,4.80664C499.99023,479.02881,500.89014,477.58838,500.89014,474.22217Z" fill="#cacaca"/><path d="M507.22461,479.01123l.73779-.99023a3.93533,3.93533,0,0,0,2.57471,1.04394c1.15234,0,1.72851-.6123,1.72851-1.36816,0-.90039-1.04394-1.2959-1.99853-1.65625-1.24219-.4502-2.61084-1.04492-2.61084-2.52051,0-1.40527,1.1167-2.48535,3.00732-2.48535a4.36932,4.36932,0,0,1,2.71875.99023l-.70214.93653a3.25007,3.25007,0,0,0-1.99854-.77442c-1.09863,0-1.60254.59473-1.60254,1.26074,0,.82813.9541,1.13379,1.94434,1.51172,1.26025.46875,2.665.99121,2.665,2.64746,0,1.42188-1.13477,2.61036-3.20508,2.61036A5.26453,5.26453,0,0,1,507.22461,479.01123Z" fill="#cacaca"/><path d="M515.63086,477.30029v-4.84277h-1.29639v-1.11621l1.36865-.09082.17969-2.44824h1.24268v2.44824h2.3584v1.207h-2.3584v4.86133c0,1.08008.3418,1.69238,1.3501,1.69238a3.16873,3.16873,0,0,0,.99023-.23437l.28809,1.11621a5.39688,5.39688,0,0,1-1.62012.32422C516.26123,480.21729,515.63086,479.02881,515.63086,477.30029Z" fill="#cacaca"/><path d="M520.67041,482.73877a15.51024,15.51024,0,0,0,0-15.48535l.91846-.43164a15.24684,15.24684,0,0,1,0,16.34863Z" fill="#cacaca"/><path d="M530,380H410V240c40-20,80-60,120-80Z" fill="#31333d"/><path d="M370,829H250V769c40-20,80-60,120-80Z" fill="#31333d"/><path d="M85.521,378.86328c0-3.42578,1.23242-5.2666,3.28125-5.2666,2.03271,0,3.26513,1.84082,3.26513,5.2666,0,3.42481-1.23242,5.33008-3.26513,5.33008C86.75342,384.19336,85.521,382.28809,85.521,378.86328Zm5.26611,0c0-2.99316-.80029-4.21-1.98486-4.21-1.20069,0-2.00049,1.2168-2.00049,4.21s.7998,4.27344,2.00049,4.27344C89.98682,383.13672,90.78711,381.85645,90.78711,378.86328Z" fill="#b0b0b0"/><path d="M93.80908,383.2002a.95493.95493,0,1,1,1.90479,0,.95323.95323,0,1,1-1.90479,0Z" fill="#b0b0b0"/><path d="M97.457,378.86328c0-3.42578,1.23242-5.2666,3.28125-5.2666,2.03272,0,3.26514,1.84082,3.26514,5.2666,0,3.42481-1.23242,5.33008-3.26514,5.33008C98.68945,384.19336,97.457,382.28809,97.457,378.86328Zm5.26563,0c0-2.99316-.8003-4.21-1.98438-4.21-1.20068,0-2.001,1.2168-2.001,4.21s.8003,4.27344,2.001,4.27344C101.92236,383.13672,102.72266,381.85645,102.72266,378.86328Z" fill="#b0b0b0"/><path d="M105.36035,375.10156a2.00122,2.00122,0,1,1,2.001,2.03223A1.97794,1.97794,0,0,1,105.36035,375.10156Zm3.20166,0a1.204,1.204,0,1,0-1.20068,1.2959A1.21532,1.21532,0,0,0,108.562,375.10156Z" fill="#b0b0b0"/><path d="M163.65771,406.91211v-7.52246h-1.85644V398.541a6.07806,6.07806,0,0,0,2.16064-.752h1.0083v9.123h2.1128V408.001H161.3208v-1.08887Z" fill="#b0b0b0"/><path d="M169.04883,407.2002a.95492.95492,0,1,1,1.90478,0,.95323.95323,0,1,1-1.90478,0Z" fill="#b0b0b0"/><path d="M172.69629,402.86328c0-3.42578,1.23242-5.2666,3.28125-5.2666,2.0332,0,3.26562,1.84082,3.26562,5.2666,0,3.42481-1.23242,5.33008-3.26562,5.33008C173.92871,408.19336,172.69629,406.28809,172.69629,402.86328Zm5.2666,0c0-2.99316-.80078-4.21-1.98535-4.21-1.2002,0-2.00049,1.2168-2.00049,4.21s.80029,4.27344,2.00049,4.27344C177.16211,407.13672,177.96289,405.85645,177.96289,402.86328Z" fill="#b0b0b0"/><path d="M205.49854,400.66992a1.809,1.809,0,0,0-1.937-2.001,3.01214,3.01214,0,0,0-2.17675,1.23242l-.752-.752a4.00719,4.00719,0,0,1,3.08887-1.55273,2.8368,2.8368,0,0,1,3.05762,3.00977c0,1.91992-1.74512,3.82519-4.16211,6.35449.56054-.04883,1.18457-.09668,1.71289-.09668H207.291V408.001h-6.59424v-.78418C203.77,404.15918,205.49854,402.31836,205.49854,400.66992Z" fill="#b0b0b0"/><path d="M209.04883,407.2002a.95492.95492,0,1,1,1.90478,0,.95323.95323,0,1,1-1.90478,0Z" fill="#b0b0b0"/><path d="M212.69629,402.86328c0-3.42578,1.23242-5.2666,3.28125-5.2666,2.0332,0,3.26562,1.84082,3.26562,5.2666,0,3.42481-1.23242,5.33008-3.26562,5.33008C213.92871,408.19336,212.69629,406.28809,212.69629,402.86328Zm5.2666,0c0-2.99316-.80078-4.21-1.98535-4.21-1.2002,0-2.00049,1.2168-2.00049,4.21s.80029,4.27344,2.00049,4.27344C217.16211,407.13672,217.96289,405.85645,217.96289,402.86328Z" fill="#b0b0b0"/><path d="M240.47266,406.75293l.67187-.86523a3.46753,3.46753,0,0,0,2.60938,1.21679,1.90367,1.90367,0,0,0,2.11279-1.873c0-1.21583-.83252-2.03223-3.26514-2.03223v-1.00879c2.17676,0,2.897-.832,2.897-1.9043a1.57236,1.57236,0,0,0-1.76075-1.61718,3.09593,3.09593,0,0,0-2.17675,1.041l-.70459-.833a4.2063,4.2063,0,0,1,2.92968-1.28027c1.77637,0,3.05713.94434,3.05713,2.59277a2.5319,2.5319,0,0,1-1.85693,2.4336v.06347a2.6355,2.6355,0,0,1,2.209,2.59375c0,1.8086-1.48877,2.91309-3.36133,2.91309A4.34005,4.34005,0,0,1,240.47266,406.75293Z" fill="#b0b0b0"/><path d="M249.04883,407.2002a.95492.95492,0,1,1,1.90478,0,.95323.95323,0,1,1-1.90478,0Z" fill="#b0b0b0"/><path d="M252.69629,402.86328c0-3.42578,1.23242-5.2666,3.28125-5.2666,2.0332,0,3.26562,1.84082,3.26562,5.2666,0,3.42481-1.23242,5.33008-3.26562,5.33008C253.92871,408.19336,252.69629,406.28809,252.69629,402.86328Zm5.2666,0c0-2.99316-.80078-4.21-1.98535-4.21-1.2002,0-2.00049,1.2168-2.00049,4.21s.80029,4.27344,2.00049,4.27344C257.16211,407.13672,257.96289,405.85645,257.96289,402.86328Z" fill="#b0b0b0"/><path d="M280.32861,405.18359v-.86425l4.36963-6.53028h1.47266V404.127h1.39258v1.05664H286.1709V408.001h-1.24854v-2.81739Zm4.59375-4.01757c0-.54395.04785-1.42481.08008-1.96875h-.064c-.25635.49609-.54444.94433-.83252,1.44043l-2.38477,3.48925h3.20117Z" fill="#b0b0b0"/><path d="M289.04883,407.2002a.95492.95492,0,1,1,1.90478,0,.95323.95323,0,1,1-1.90478,0Z" fill="#b0b0b0"/><path d="M292.69629,402.86328c0-3.42578,1.23242-5.2666,3.28125-5.2666,2.0332,0,3.26562,1.84082,3.26562,5.2666,0,3.42481-1.23242,5.33008-3.26562,5.33008C293.92871,408.19336,292.69629,406.28809,292.69629,402.86328Zm5.2666,0c0-2.99316-.80078-4.21-1.98535-4.21-1.2002,0-2.00049,1.2168-2.00049,4.21s.80029,4.27344,2.00049,4.27344C297.16211,407.13672,297.96289,405.85645,297.96289,402.86328Z" fill="#b0b0b0"/><path d="M320.457,406.80078l.64014-.86426a3.47571,3.47571,0,0,0,2.57666,1.168,2.20348,2.20348,0,0,0,2.24121-2.33691,2.05226,2.05226,0,0,0-2.17676-2.24121,2.8737,2.8737,0,0,0-1.74512.625l-.7041-.44825.33594-4.91406h5.10645v1.13672h-3.95362l-.272,3.02442a3.13742,3.13742,0,0,1,1.56836-.416,2.93984,2.93984,0,0,1,3.16943,3.20117,3.33957,3.33957,0,0,1-3.4414,3.458A4.47648,4.47648,0,0,1,320.457,406.80078Z" fill="#b0b0b0"/><path d="M329.04883,407.2002a.95492.95492,0,1,1,1.90478,0,.95323.95323,0,1,1-1.90478,0Z" fill="#b0b0b0"/><path d="M332.69678,402.86328c0-3.42578,1.23242-5.2666,3.28125-5.2666,2.03271,0,3.26513,1.84082,3.26513,5.2666,0,3.42481-1.23242,5.33008-3.26513,5.33008C333.9292,408.19336,332.69678,406.28809,332.69678,402.86328Zm5.26611,0c0-2.99316-.80029-4.21-1.98486-4.21-1.20069,0-2.00049,1.2168-2.00049,4.21s.7998,4.27344,2.00049,4.27344C337.1626,407.13672,337.96289,405.85645,337.96289,402.86328Z" fill="#b0b0b0"/><path d="M360.8252,403.2793c0-4.09766,1.85644-5.68262,3.88916-5.68262a3.21928,3.21928,0,0,1,2.46533,1.08887l-.73633.8164a2.22144,2.22144,0,0,0-1.68066-.80078c-1.42481,0-2.625,1.10449-2.68946,4.33789a3.26276,3.26276,0,0,1,2.38526-1.28027c1.76074,0,2.91308,1.05566,2.91308,3.15332a3.08887,3.08887,0,0,1-3.0249,3.28125C362.3457,408.19336,360.8252,406.56055,360.8252,403.2793Zm5.29785,1.63281c0-1.3291-.624-2.16113-1.88867-2.16113a2.72056,2.72056,0,0,0-2.12891,1.34472c.16015,1.98438.94433,3.05664,2.24121,3.05664C365.35449,407.15234,366.12305,406.25586,366.12305,404.91211Z" fill="#b0b0b0"/><path d="M369.04883,407.2002a.95492.95492,0,1,1,1.90478,0,.95323.95323,0,1,1-1.90478,0Z" fill="#b0b0b0"/><path d="M372.69678,402.86328c0-3.42578,1.23242-5.2666,3.28125-5.2666,2.03271,0,3.26513,1.84082,3.26513,5.2666,0,3.42481-1.23242,5.33008-3.26513,5.33008C373.9292,408.19336,372.69678,406.28809,372.69678,402.86328Zm5.26611,0c0-2.99316-.80029-4.21-1.98486-4.21-1.20069,0-2.00049,1.2168-2.00049,4.21s.7998,4.27344,2.00049,4.27344C377.1626,407.13672,377.96289,405.85645,377.96289,402.86328Z" fill="#b0b0b0"/><path d="M405.85107,398.92578h-5.09033v-1.13672h6.5791v.81641c-2.417,3.08887-2.91357,5.41015-3.08935,9.39551h-1.36084A15.02738,15.02738,0,0,1,405.85107,398.92578Z" fill="#b0b0b0"/><path d="M409.04883,407.2002a.95492.95492,0,1,1,1.90478,0,.95323.95323,0,1,1-1.90478,0Z" fill="#b0b0b0"/><path d="M412.69678,402.86328c0-3.42578,1.23242-5.2666,3.28125-5.2666,2.03271,0,3.26513,1.84082,3.26513,5.2666,0,3.42481-1.23242,5.33008-3.26513,5.33008C413.9292,408.19336,412.69678,406.28809,412.69678,402.86328Zm5.26611,0c0-2.99316-.80029-4.21-1.98486-4.21-1.20069,0-2.00049,1.2168-2.00049,4.21s.7998,4.27344,2.00049,4.27344C417.1626,407.13672,417.96289,405.85645,417.96289,402.86328Z" fill="#b0b0b0"/><path d="M440.71289,405.3916a3.2276,3.2276,0,0,1,1.92041-2.75293v-.06347a2.89852,2.89852,0,0,1-1.42432-2.35352,2.89834,2.89834,0,0,1,5.77832.0957,3.36269,3.36269,0,0,1-1.40869,2.46582v.06348a2.94714,2.94714,0,0,1,1.77686,2.625c0,1.52051-1.3125,2.72168-3.29736,2.72168C442.13721,408.19336,440.71289,407.00879,440.71289,405.3916Zm5.37793.03223c0-1.3125-1.29639-1.793-2.769-2.38477a2.766,2.766,0,0,0-1.42481,2.22461,2.0245,2.0245,0,0,0,2.19287,1.95313A1.81865,1.81865,0,0,0,446.09082,405.42383Zm-.24023-5.042a1.70444,1.70444,0,0,0-1.77637-1.8086,1.58,1.58,0,0,0-1.64893,1.64844c0,1.2168,1.12061,1.72852,2.353,2.209A2.7522,2.7522,0,0,0,445.85059,400.38184Z" fill="#b0b0b0"/><path d="M449.04883,407.2002a.95492.95492,0,1,1,1.90478,0,.95323.95323,0,1,1-1.90478,0Z" fill="#b0b0b0"/><path d="M452.69629,402.86328c0-3.42578,1.23242-5.2666,3.28125-5.2666,2.0332,0,3.26562,1.84082,3.26562,5.2666,0,3.42481-1.23242,5.33008-3.26562,5.33008C453.92871,408.19336,452.69629,406.28809,452.69629,402.86328Zm5.2666,0c0-2.99316-.80078-4.21-1.98535-4.21-1.2002,0-2.00049,1.2168-2.00049,4.21s.80029,4.27344,2.00049,4.27344C457.16211,407.13672,457.96289,405.85645,457.96289,402.86328Z" fill="#b0b0b0"/><path d="M480.87256,407.12109l.73633-.833a2.2413,2.2413,0,0,0,1.68066.8164c1.44092,0,2.65723-1.12011,2.70508-4.38574a3.201,3.201,0,0,1-2.40088,1.3125c-1.76074,0-2.897-1.05664-2.897-3.15332a3.0863,3.0863,0,0,1,3.00927-3.28125c2.01661,0,3.52149,1.63281,3.52149,4.91406,0,4.09766-1.85693,5.68262-3.88965,5.68262A3.26892,3.26892,0,0,1,480.87256,407.12109Zm5.09033-5.44238c-.17627-1.98535-.96045-3.042-2.25684-3.042-.99267,0-1.77685.89648-1.77685,2.24121,0,1.3291.62451,2.16113,1.88867,2.16113A2.7276,2.7276,0,0,0,485.96289,401.67871Z" fill="#b0b0b0"/><path d="M489.04883,407.2002a.95492.95492,0,1,1,1.90478,0,.95323.95323,0,1,1-1.90478,0Z" fill="#b0b0b0"/><path d="M492.69629,402.86328c0-3.42578,1.23242-5.2666,3.28125-5.2666,2.0332,0,3.26562,1.84082,3.26562,5.2666,0,3.42481-1.23242,5.33008-3.26562,5.33008C493.92871,408.19336,492.69629,406.28809,492.69629,402.86328Zm5.2666,0c0-2.99316-.80078-4.21-1.98535-4.21-1.2002,0-2.00049,1.2168-2.00049,4.21s.80029,4.27344,2.00049,4.27344C497.16211,407.13672,497.96289,405.85645,497.96289,402.86328Z" fill="#b0b0b0"/><path d="M519.68164,406.91211v-7.52246H517.8252V398.541a6.08453,6.08453,0,0,0,2.16113-.752h1.00781v9.123h2.11328V408.001h-5.76269v-1.08887Z" fill="#b0b0b0"/><path d="M524.73633,402.86328c0-3.42578,1.23291-5.2666,3.28174-5.2666,2.03271,0,3.26513,1.84082,3.26513,5.2666,0,3.42481-1.23242,5.33008-3.26513,5.33008C525.96924,408.19336,524.73633,406.28809,524.73633,402.86328Zm5.2666,0c0-2.99316-.80078-4.21-1.98486-4.21-1.20069,0-2.001,1.2168-2.001,4.21s.80029,4.27344,2.001,4.27344C529.20215,407.13672,530.00293,405.85645,530.00293,402.86328Z" fill="#b0b0b0"/><path d="M533.02441,407.2002a.95516.95516,0,1,1,1.90528,0,.95347.95347,0,1,1-1.90528,0Z" fill="#b0b0b0"/><path d="M536.67236,402.86328c0-3.42578,1.23243-5.2666,3.28125-5.2666,2.03272,0,3.26563,1.84082,3.26563,5.2666,0,3.42481-1.23291,5.33008-3.26563,5.33008C537.90479,408.19336,536.67236,406.28809,536.67236,402.86328Zm5.26612,0c0-2.99316-.8003-4.21-1.98487-4.21-1.20019,0-2.00049,1.2168-2.00049,4.21s.8003,4.27344,2.00049,4.27344C541.13818,407.13672,541.93848,405.85645,541.93848,402.86328Z" fill="#b0b0b0"/><path d="M559.68213,406.91211v-7.52246H557.8252V398.541a6.081,6.081,0,0,0,2.16113-.752h1.0083v9.123h2.11279V408.001h-5.76221v-1.08887Z" fill="#b0b0b0"/><path d="M567.63379,406.91211v-7.52246h-1.85645V398.541a6.08452,6.08452,0,0,0,2.16114-.752h1.00781v9.123h2.11328V408.001h-5.76269v-1.08887Z" fill="#b0b0b0"/><path d="M573.0249,407.2002a.95493.95493,0,1,1,1.90479,0,.95323.95323,0,1,1-1.90479,0Z" fill="#b0b0b0"/><path d="M576.67285,402.86328c0-3.42578,1.23242-5.2666,3.28125-5.2666,2.03272,0,3.26514,1.84082,3.26514,5.2666,0,3.42481-1.23242,5.33008-3.26514,5.33008C577.90527,408.19336,576.67285,406.28809,576.67285,402.86328Zm5.26611,0c0-2.99316-.80029-4.21-1.98486-4.21-1.20068,0-2.001,1.2168-2.001,4.21s.8003,4.27344,2.001,4.27344C581.13867,407.13672,581.939,405.85645,581.939,402.86328Z" fill="#b0b0b0"/><path d="M599.68213,406.91211v-7.52246H597.8252V398.541a6.081,6.081,0,0,0,2.16113-.752h1.0083v9.123h2.11279V408.001h-5.76221v-1.08887Z" fill="#b0b0b0"/><path d="M609.47461,400.66992a1.80889,1.80889,0,0,0-1.93652-2.001,3.01037,3.01037,0,0,0-2.17676,1.23242l-.75244-.752a4.00738,4.00738,0,0,1,3.08935-1.55273,2.83642,2.83642,0,0,1,3.05713,3.00977c0,1.91992-1.74463,3.82519-4.16162,6.35449.56006-.04883,1.18457-.09668,1.7124-.09668h2.96143V408.001h-6.59473v-.78418C607.74609,404.15918,609.47461,402.31836,609.47461,400.66992Z" fill="#b0b0b0"/><path d="M613.0249,407.2002a.95493.95493,0,1,1,1.90479,0,.95323.95323,0,1,1-1.90479,0Z" fill="#b0b0b0"/><path d="M616.67285,402.86328c0-3.42578,1.23242-5.2666,3.28125-5.2666,2.03272,0,3.26514,1.84082,3.26514,5.2666,0,3.42481-1.23242,5.33008-3.26514,5.33008C617.90527,408.19336,616.67285,406.28809,616.67285,402.86328Zm5.26611,0c0-2.99316-.80029-4.21-1.98486-4.21-1.20068,0-2.001,1.2168-2.001,4.21s.8003,4.27344,2.001,4.27344C621.13867,407.13672,621.939,405.85645,621.939,402.86328Z" fill="#b0b0b0"/><path d="M81.26514,362.75293l.67236-.86523a3.46477,3.46477,0,0,0,2.60889,1.21679,1.90367,1.90367,0,0,0,2.11279-1.873c0-1.21583-.832-2.03223-3.26514-2.03223v-1.00879c2.17676,0,2.897-.832,2.897-1.9043a1.57236,1.57236,0,0,0-1.76075-1.61718,3.09682,3.09682,0,0,0-2.17675,1.041l-.70411-.833a4.204,4.204,0,0,1,2.92871-1.28027c1.77686,0,3.05762.94434,3.05762,2.59277a2.5319,2.5319,0,0,1-1.85693,2.4336v.06347a2.6355,2.6355,0,0,1,2.209,2.59375c0,1.8086-1.48877,2.91309-3.36133,2.91309A4.33925,4.33925,0,0,1,81.26514,362.75293Z" fill="#b0b0b0"/><path d="M89.56934,359.2793c0-4.09766,1.85644-5.68262,3.88916-5.68262a3.21928,3.21928,0,0,1,2.46533,1.08887l-.73633.8164a2.22144,2.22144,0,0,0-1.68066-.80078c-1.42481,0-2.625,1.10449-2.68946,4.33789a3.26276,3.26276,0,0,1,2.38526-1.28027c1.76074,0,2.91308,1.05566,2.91308,3.15332a3.08887,3.08887,0,0,1-3.0249,3.28125C91.08984,364.19336,89.56934,362.56055,89.56934,359.2793Zm5.29785,1.63281c0-1.3291-.624-2.16113-1.88867-2.16113a2.72057,2.72057,0,0,0-2.12891,1.34472c.16016,1.98438.94434,3.05664,2.24121,3.05664C94.09863,363.15234,94.86719,362.25586,94.86719,360.91211Z" fill="#b0b0b0"/><path d="M97.457,358.86328c0-3.42578,1.23242-5.2666,3.28125-5.2666,2.03272,0,3.26563,1.84082,3.26563,5.2666,0,3.42481-1.23291,5.33008-3.26563,5.33008C98.68945,364.19336,97.457,362.28809,97.457,358.86328Zm5.26611,0c0-2.99316-.80029-4.21-1.98486-4.21-1.20019,0-2.001,1.2168-2.001,4.21s.80079,4.27344,2.001,4.27344C101.92285,363.13672,102.72314,361.85645,102.72314,358.86328Z" fill="#b0b0b0"/><path d="M105.36084,355.10156a2.001,2.001,0,1,1,2.001,2.03223A1.97766,1.97766,0,0,1,105.36084,355.10156Zm3.20117,0a1.204,1.204,0,1,0-1.20019,1.2959A1.215,1.215,0,0,0,108.562,355.10156Z" fill="#b0b0b0"/><path d="M86.64307,334.92578H81.55322v-1.13672h6.57862v.81641c-2.417,3.08887-2.91309,5.41015-3.08936,9.39551H83.68213A15.03018,15.03018,0,0,1,86.64307,334.92578Z" fill="#b0b0b0"/><path d="M94.24316,336.66992a1.80925,1.80925,0,0,0-1.937-2.001,3.01218,3.01218,0,0,0-2.17676,1.23242l-.75244-.752a4.00817,4.00817,0,0,1,3.08936-1.55273,2.83642,2.83642,0,0,1,3.05713,3.00977c0,1.91992-1.74463,3.82519-4.16162,6.35449.56006-.04883,1.18457-.09668,1.7124-.09668h2.96142V344.001H89.44092v-.78418C92.51416,340.15918,94.24316,338.31836,94.24316,336.66992Z" fill="#b0b0b0"/><path d="M97.457,338.86328c0-3.42578,1.23242-5.2666,3.28125-5.2666,2.03272,0,3.26563,1.84082,3.26563,5.2666,0,3.42481-1.23291,5.33008-3.26563,5.33008C98.68945,344.19336,97.457,342.28809,97.457,338.86328Zm5.26611,0c0-2.99316-.80029-4.21-1.98486-4.21-1.20019,0-2.001,1.2168-2.001,4.21s.80079,4.27344,2.001,4.27344C101.92285,343.13672,102.72314,341.85645,102.72314,338.86328Z" fill="#b0b0b0"/><path d="M105.36084,335.10156a2.001,2.001,0,1,1,2.001,2.03223A1.97766,1.97766,0,0,1,105.36084,335.10156Zm3.20117,0a1.204,1.204,0,1,0-1.20019,1.2959A1.215,1.215,0,0,0,108.562,335.10156Z" fill="#b0b0b0"/><path d="M76.49805,322.91211v-7.52246H74.6416V314.541a6.07819,6.07819,0,0,0,2.16065-.752h1.0083v9.123h2.11328V324.001h-5.7627v-1.08887Z" fill="#b0b0b0"/><path d="M81.55273,318.86328c0-3.42578,1.23243-5.2666,3.28125-5.2666,2.03321,0,3.26563,1.84082,3.26563,5.2666,0,3.42481-1.23242,5.33008-3.26563,5.33008C82.78516,324.19336,81.55273,322.28809,81.55273,318.86328Zm5.26661,0c0-2.99316-.80079-4.21-1.98536-4.21-1.20019,0-2.00048,1.2168-2.00048,4.21s.80029,4.27344,2.00048,4.27344C86.01855,323.13672,86.81934,321.85645,86.81934,318.86328Z" fill="#b0b0b0"/><path d="M89.457,321.3916a3.2276,3.2276,0,0,1,1.92041-2.75293v-.06347a2.89852,2.89852,0,0,1-1.42432-2.35352,2.89835,2.89835,0,0,1,5.77833.0957,3.36267,3.36267,0,0,1-1.4087,2.46582v.06348a2.94714,2.94714,0,0,1,1.77686,2.625c0,1.52051-1.3125,2.72168-3.29736,2.72168C90.88135,324.19336,89.457,323.00879,89.457,321.3916Zm5.37793.03223c0-1.3125-1.29639-1.793-2.769-2.38477a2.766,2.766,0,0,0-1.42481,2.22461A2.0245,2.0245,0,0,0,92.834,323.2168,1.81865,1.81865,0,0,0,94.835,321.42383Zm-.24023-5.042a1.70444,1.70444,0,0,0-1.77637-1.8086,1.58,1.58,0,0,0-1.64893,1.64844c0,1.2168,1.12061,1.72852,2.353,2.209A2.7522,2.7522,0,0,0,94.59473,316.38184Z" fill="#b0b0b0"/><path d="M97.457,318.86328c0-3.42578,1.23242-5.2666,3.28125-5.2666,2.03272,0,3.26514,1.84082,3.26514,5.2666,0,3.42481-1.23242,5.33008-3.26514,5.33008C98.68945,324.19336,97.457,322.28809,97.457,318.86328Zm5.26563,0c0-2.99316-.8003-4.21-1.98438-4.21-1.20068,0-2.001,1.2168-2.001,4.21s.8003,4.27344,2.001,4.27344C101.92236,323.13672,102.72266,321.85645,102.72266,318.86328Z" fill="#b0b0b0"/><path d="M105.36035,315.10156a2.00122,2.00122,0,1,1,2.001,2.03223A1.97794,1.97794,0,0,1,105.36035,315.10156Zm3.20166,0a1.204,1.204,0,1,0-1.20068,1.2959A1.21532,1.21532,0,0,0,108.562,315.10156Z" fill="#b0b0b0"/><path d="M73.97021,89.50146c2.353,0,3.9375.78418,3.9375,3.08887,0,2.209-1.56835,3.249-3.87353,3.249H72.30566v4.1621H70.97705v-10.5Zm2.60938,3.08887c0-1.52051-.92871-2.0166-2.76953-2.0166h-1.5044v4.17773H73.874C75.69922,94.75146,76.57959,94.07861,76.57959,92.59033Z" fill="#b0b0b0"/><path d="M81.21729,88.605v3.10547L81.16943,93.311a3.72045,3.72045,0,0,1,2.59327-1.28125c1.63232,0,2.36865,1.05664,2.36865,3.042v4.92968h-1.3125v-4.7539c0-1.457-.44824-2.08106-1.47266-2.08106-.80029,0-1.34424.416-2.1289,1.20118v5.63378h-1.3125V88.605Z" fill="#b0b0b0"/><path d="M88.12842,97.98486c0-1.69726,1.45654-2.54492,4.77-2.91308,0-.99317-.31983-1.95313-1.60059-1.95313a4.22886,4.22886,0,0,0-2.3208.832l-.51221-.91211A5.776,5.776,0,0,1,91.522,92.02979c1.90479,0,2.70508,1.26464,2.70508,3.20214v4.76953H93.13867l-.1123-.92871h-.04785a4.14989,4.14989,0,0,1-2.57715,1.1211A2.117,2.117,0,0,1,88.12842,97.98486Zm4.77.11231V95.936c-2.59278.32031-3.48926.96-3.48926,1.95214,0,.88086.6084,1.249,1.37646,1.249A3.15419,3.15419,0,0,0,92.89844,98.09717Z" fill="#b0b0b0"/><path d="M95.80859,99.12158l.65625-.88086a3.49884,3.49884,0,0,0,2.28858.92871c1.02441,0,1.53662-.54492,1.53662-1.21679,0-.80078-.92822-1.15235-1.77637-1.47266-1.10449-.40039-2.32129-.92871-2.32129-2.24121,0-1.24805.99268-2.209,2.67334-2.209a3.88131,3.88131,0,0,1,2.417.88085l-.62451.832a2.88651,2.88651,0,0,0-1.77636-.68848c-.97657,0-1.42481.52832-1.42481,1.12109,0,.73633.84863,1.00782,1.72852,1.34473,1.1206.416,2.36914.87988,2.36914,2.35254,0,1.26465-1.0083,2.32129-2.84912,2.32129A4.68673,4.68673,0,0,1,95.80859,99.12158Z" fill="#b0b0b0"/><path d="M102.80029,96.12744c0-2.54492,1.71289-4.09765,3.48975-4.09765,1.98437,0,3.105,1.4248,3.105,3.65039a5.13322,5.13322,0,0,1-.04785.752h-5.25049a2.58046,2.58046,0,0,0,2.59326,2.70508,3.517,3.517,0,0,0,1.937-.6084l.46387.86426a4.62888,4.62888,0,0,1-2.561.80078A3.72017,3.72017,0,0,1,102.80029,96.12744Zm3.52149-3.05664a2.40224,2.40224,0,0,0-2.24073,2.417h4.16163C108.24268,93.91943,107.53809,93.0708,106.32178,93.0708Z" fill="#b0b0b0"/><path d="M657.49121,389.50146v1.12012H652.769v3.55371h4.00147v1.12012H652.769v4.70605h-1.32861v-10.5Z" fill="#b0b0b0"/><path d="M659.98486,392.22217l.11231,1.40918h.04785a2.66189,2.66189,0,0,1,2.209-1.60156,1.94128,1.94128,0,0,1,.832.16015l-.25586,1.15332a2.17674,2.17674,0,0,0-.75245-.1289c-.65625,0-1.44043.48046-1.96875,1.793v4.99414h-1.3125v-7.77929Z" fill="#b0b0b0"/><path d="M663.71191,396.12744c0-2.54492,1.71289-4.09765,3.48926-4.09765,1.98487,0,3.10547,1.4248,3.10547,3.65039a5.0596,5.0596,0,0,1-.04834.75195h-5.25a2.58046,2.58046,0,0,0,2.59326,2.70508,3.51421,3.51421,0,0,0,1.93653-.6084l.46435.86426a4.62888,4.62888,0,0,1-2.561.80078A3.71991,3.71991,0,0,1,663.71191,396.12744Zm3.52149-3.05664a2.40261,2.40261,0,0,0-2.24121,2.417h4.16211C669.1543,393.91943,668.44971,393.0708,667.2334,393.0708Z" fill="#b0b0b0"/><path d="M677.21826,399.105a3.45092,3.45092,0,0,1-2.33691,1.08887c-1.95313,0-3.21729-1.47266-3.21729-4.06641,0-2.52832,1.60059-4.09765,3.37744-4.09765a3.16707,3.16707,0,0,1,2.22461.92871h.03223l.12793-.73633h1.05664v11.06054H677.1543v-2.76953Zm-.064-1.08789v-4.06641a2.70934,2.70934,0,0,0-1.88868-.8164c-1.24853,0-2.24121,1.20117-2.24121,2.97754,0,1.85644.78418,2.97754,2.145,2.97754A2.63518,2.63518,0,0,0,677.1543,398.01709Z" fill="#b0b0b0"/><path d="M680.99219,397.15186v-4.92969h1.32812v4.7539c0,1.457.43262,2.08106,1.457,2.08106.8003,0,1.36036-.40039,2.09668-1.3125v-5.52246h1.3125v7.77929h-1.08838l-.1123-1.21679H685.938a3.28825,3.28825,0,0,1-2.561,1.40918C681.72852,400.19385,680.99219,399.13721,680.99219,397.15186Z" fill="#b0b0b0"/><path d="M689.23145,396.12744c0-2.54492,1.71289-4.09765,3.48925-4.09765,1.98487,0,3.10547,1.4248,3.10547,3.65039a5.0596,5.0596,0,0,1-.04834.75195h-5.25a2.58046,2.58046,0,0,0,2.59326,2.70508,3.51418,3.51418,0,0,0,1.93653-.6084l.46435.86426a4.62888,4.62888,0,0,1-2.561.80078A3.7199,3.7199,0,0,1,689.23145,396.12744Zm3.52148-3.05664a2.40261,2.40261,0,0,0-2.24121,2.417h4.16211C694.67383,393.91943,693.96924,393.0708,692.75293,393.0708Z" fill="#b0b0b0"/><path d="M698.832,392.22217l.11231,1.12109h.04785a3.66778,3.66778,0,0,1,2.60888-1.31347c1.63282,0,2.36914,1.05664,2.36914,3.042v4.92968h-1.3125v-4.7539c0-1.457-.44824-2.08106-1.47265-2.08106-.80029,0-1.34473.416-2.12891,1.2002v5.63476h-1.3125v-7.77929Z" fill="#b0b0b0"/><path d="M705.91943,396.12744a3.76787,3.76787,0,0,1,3.74561-4.09765,3.23011,3.23011,0,0,1,2.273.91308l-.67237.86426a2.28024,2.28024,0,0,0-1.55273-.68848c-1.40869,0-2.4331,1.2168-2.4331,3.00879,0,1.77735.97656,2.97754,2.40136,2.97754a2.76312,2.76312,0,0,0,1.82471-.78418l.57617.87988a3.79322,3.79322,0,0,1-2.51318.99317C707.50391,400.19385,705.91943,398.70459,705.91943,396.12744Z" fill="#b0b0b0"/><path d="M713.10352,403.187l.25586-1.041a2.25674,2.25674,0,0,0,.59228.1123c.88037,0,1.44092-.7041,1.76074-1.665l.17627-.57617-3.12158-7.79492h1.36084l1.58447,4.30566c.24024.67285.51221,1.47266.75244,2.19336h.064c.22412-.7041.44824-1.50488.65625-2.19336l1.39258-4.30566h1.28027l-2.9292,8.41992c-.54394,1.53613-1.34424,2.70508-2.91309,2.70508A2.5884,2.5884,0,0,1,713.10352,403.187Z" fill="#b0b0b0"/><path d="M85.521,827.86328c0-3.42578,1.23242-5.2666,3.28125-5.2666,2.03271,0,3.26513,1.84082,3.26513,5.2666,0,3.42481-1.23242,5.33008-3.26513,5.33008C86.75342,833.19336,85.521,831.28809,85.521,827.86328Zm5.26611,0c0-2.99316-.80029-4.21-1.98486-4.21-1.20069,0-2.00049,1.2168-2.00049,4.21s.7998,4.27344,2.00049,4.27344C89.98682,832.13672,90.78711,830.85645,90.78711,827.86328Z" fill="#b0b0b0"/><path d="M93.80908,832.2002a.95493.95493,0,1,1,1.90479,0,.95323.95323,0,1,1-1.90479,0Z" fill="#b0b0b0"/><path d="M97.457,827.86328c0-3.42578,1.23242-5.2666,3.28125-5.2666,2.03272,0,3.26514,1.84082,3.26514,5.2666,0,3.42481-1.23242,5.33008-3.26514,5.33008C98.68945,833.19336,97.457,831.28809,97.457,827.86328Zm5.26563,0c0-2.99316-.8003-4.21-1.98438-4.21-1.20068,0-2.001,1.2168-2.001,4.21s.8003,4.27344,2.001,4.27344C101.92236,832.13672,102.72266,830.85645,102.72266,827.86328Z" fill="#b0b0b0"/><path d="M105.36035,824.10156a2.00122,2.00122,0,1,1,2.001,2.03223A1.97794,1.97794,0,0,1,105.36035,824.10156Zm3.20166,0a1.204,1.204,0,1,0-1.20068,1.2959A1.21532,1.21532,0,0,0,108.562,824.10156Z" fill="#b0b0b0"/><path d="M163.65771,855.91211v-7.52246h-1.85644V847.541a6.07806,6.07806,0,0,0,2.16064-.752h1.0083v9.12305h2.1128V857.001H161.3208v-1.08887Z" fill="#b0b0b0"/><path d="M169.04883,856.2002a.95492.95492,0,1,1,1.90478,0,.95323.95323,0,1,1-1.90478,0Z" fill="#b0b0b0"/><path d="M172.69629,851.86328c0-3.42578,1.23242-5.2666,3.28125-5.2666,2.0332,0,3.26562,1.84082,3.26562,5.2666,0,3.42481-1.23242,5.33008-3.26562,5.33008C173.92871,857.19336,172.69629,855.28809,172.69629,851.86328Zm5.2666,0c0-2.99316-.80078-4.21-1.98535-4.21-1.2002,0-2.00049,1.2168-2.00049,4.21s.80029,4.27344,2.00049,4.27344C177.16211,856.13672,177.96289,854.85645,177.96289,851.86328Z" fill="#b0b0b0"/><path d="M205.49854,849.66992a1.809,1.809,0,0,0-1.937-2.001,3.01214,3.01214,0,0,0-2.17675,1.23242l-.752-.752a4.00719,4.00719,0,0,1,3.08887-1.55273,2.8368,2.8368,0,0,1,3.05762,3.00977c0,1.91992-1.74512,3.82519-4.16211,6.35449.56054-.04883,1.18457-.09668,1.71289-.09668H207.291V857.001h-6.59424v-.78418C203.77,853.15918,205.49854,851.31836,205.49854,849.66992Z" fill="#b0b0b0"/><path d="M209.04883,856.2002a.95492.95492,0,1,1,1.90478,0,.95323.95323,0,1,1-1.90478,0Z" fill="#b0b0b0"/><path d="M212.69629,851.86328c0-3.42578,1.23242-5.2666,3.28125-5.2666,2.0332,0,3.26562,1.84082,3.26562,5.2666,0,3.42481-1.23242,5.33008-3.26562,5.33008C213.92871,857.19336,212.69629,855.28809,212.69629,851.86328Zm5.2666,0c0-2.99316-.80078-4.21-1.98535-4.21-1.2002,0-2.00049,1.2168-2.00049,4.21s.80029,4.27344,2.00049,4.27344C217.16211,856.13672,217.96289,854.85645,217.96289,851.86328Z" fill="#b0b0b0"/><path d="M240.47266,855.75293l.67187-.86523a3.46753,3.46753,0,0,0,2.60938,1.21679,1.90367,1.90367,0,0,0,2.11279-1.873c0-1.21583-.83252-2.03223-3.26514-2.03223v-1.00879c2.17676,0,2.897-.832,2.897-1.9043a1.57236,1.57236,0,0,0-1.76075-1.61718,3.09593,3.09593,0,0,0-2.17675,1.041l-.70459-.833a4.2063,4.2063,0,0,1,2.92968-1.28027c1.77637,0,3.05713.94434,3.05713,2.59277a2.5319,2.5319,0,0,1-1.85693,2.4336v.06347a2.6355,2.6355,0,0,1,2.209,2.59375c0,1.8086-1.48877,2.91309-3.36133,2.91309A4.34005,4.34005,0,0,1,240.47266,855.75293Z" fill="#b0b0b0"/><path d="M249.04883,856.2002a.95492.95492,0,1,1,1.90478,0,.95323.95323,0,1,1-1.90478,0Z" fill="#b0b0b0"/><path d="M252.69629,851.86328c0-3.42578,1.23242-5.2666,3.28125-5.2666,2.0332,0,3.26562,1.84082,3.26562,5.2666,0,3.42481-1.23242,5.33008-3.26562,5.33008C253.92871,857.19336,252.69629,855.28809,252.69629,851.86328Zm5.2666,0c0-2.99316-.80078-4.21-1.98535-4.21-1.2002,0-2.00049,1.2168-2.00049,4.21s.80029,4.27344,2.00049,4.27344C257.16211,856.13672,257.96289,854.85645,257.96289,851.86328Z" fill="#b0b0b0"/><path d="M280.32861,854.18359v-.86425l4.36963-6.53028h1.47266V853.127h1.39258v1.05664H286.1709V857.001h-1.24854v-2.81739Zm4.59375-4.01757c0-.54395.04785-1.42481.08008-1.96875h-.064c-.25635.49609-.54444.94433-.83252,1.44043l-2.38477,3.48925h3.20117Z" fill="#b0b0b0"/><path d="M289.04883,856.2002a.95492.95492,0,1,1,1.90478,0,.95323.95323,0,1,1-1.90478,0Z" fill="#b0b0b0"/><path d="M292.69629,851.86328c0-3.42578,1.23242-5.2666,3.28125-5.2666,2.0332,0,3.26562,1.84082,3.26562,5.2666,0,3.42481-1.23242,5.33008-3.26562,5.33008C293.92871,857.19336,292.69629,855.28809,292.69629,851.86328Zm5.2666,0c0-2.99316-.80078-4.21-1.98535-4.21-1.2002,0-2.00049,1.2168-2.00049,4.21s.80029,4.27344,2.00049,4.27344C297.16211,856.13672,297.96289,854.85645,297.96289,851.86328Z" fill="#b0b0b0"/><path d="M320.457,855.80078l.64014-.86426a3.47571,3.47571,0,0,0,2.57666,1.168,2.20348,2.20348,0,0,0,2.24121-2.33691,2.05226,2.05226,0,0,0-2.17676-2.24121,2.8737,2.8737,0,0,0-1.74512.625l-.7041-.44825.33594-4.91406h5.10645v1.13672h-3.95362l-.272,3.02442a3.13742,3.13742,0,0,1,1.56836-.416,2.93984,2.93984,0,0,1,3.16943,3.20117,3.33957,3.33957,0,0,1-3.4414,3.458A4.47648,4.47648,0,0,1,320.457,855.80078Z" fill="#b0b0b0"/><path d="M329.04883,856.2002a.95492.95492,0,1,1,1.90478,0,.95323.95323,0,1,1-1.90478,0Z" fill="#b0b0b0"/><path d="M332.69678,851.86328c0-3.42578,1.23242-5.2666,3.28125-5.2666,2.03271,0,3.26513,1.84082,3.26513,5.2666,0,3.42481-1.23242,5.33008-3.26513,5.33008C333.9292,857.19336,332.69678,855.28809,332.69678,851.86328Zm5.26611,0c0-2.99316-.80029-4.21-1.98486-4.21-1.20069,0-2.00049,1.2168-2.00049,4.21s.7998,4.27344,2.00049,4.27344C337.1626,856.13672,337.96289,854.85645,337.96289,851.86328Z" fill="#b0b0b0"/><path d="M360.8252,852.2793c0-4.09766,1.85644-5.68262,3.88916-5.68262a3.21928,3.21928,0,0,1,2.46533,1.08887l-.73633.8164a2.22144,2.22144,0,0,0-1.68066-.80078c-1.42481,0-2.625,1.10449-2.68946,4.33789a3.26276,3.26276,0,0,1,2.38526-1.28027c1.76074,0,2.91308,1.05566,2.91308,3.15332a3.08887,3.08887,0,0,1-3.0249,3.28125C362.3457,857.19336,360.8252,855.56055,360.8252,852.2793Zm5.29785,1.63281c0-1.3291-.624-2.16113-1.88867-2.16113a2.72056,2.72056,0,0,0-2.12891,1.34472c.16015,1.98438.94433,3.05664,2.24121,3.05664C365.35449,856.15234,366.12305,855.25586,366.12305,853.91211Z" fill="#b0b0b0"/><path d="M369.04883,856.2002a.95492.95492,0,1,1,1.90478,0,.95323.95323,0,1,1-1.90478,0Z" fill="#b0b0b0"/><path d="M372.69678,851.86328c0-3.42578,1.23242-5.2666,3.28125-5.2666,2.03271,0,3.26513,1.84082,3.26513,5.2666,0,3.42481-1.23242,5.33008-3.26513,5.33008C373.9292,857.19336,372.69678,855.28809,372.69678,851.86328Zm5.26611,0c0-2.99316-.80029-4.21-1.98486-4.21-1.20069,0-2.00049,1.2168-2.00049,4.21s.7998,4.27344,2.00049,4.27344C377.1626,856.13672,377.96289,854.85645,377.96289,851.86328Z" fill="#b0b0b0"/><path d="M405.85107,847.92578h-5.09033v-1.13672h6.5791v.81641c-2.417,3.08887-2.91357,5.41015-3.08935,9.39551h-1.36084A15.02738,15.02738,0,0,1,405.85107,847.92578Z" fill="#b0b0b0"/><path d="M409.04883,856.2002a.95492.95492,0,1,1,1.90478,0,.95323.95323,0,1,1-1.90478,0Z" fill="#b0b0b0"/><path d="M412.69678,851.86328c0-3.42578,1.23242-5.2666,3.28125-5.2666,2.03271,0,3.26513,1.84082,3.26513,5.2666,0,3.42481-1.23242,5.33008-3.26513,5.33008C413.9292,857.19336,412.69678,855.28809,412.69678,851.86328Zm5.26611,0c0-2.99316-.80029-4.21-1.98486-4.21-1.20069,0-2.00049,1.2168-2.00049,4.21s.7998,4.27344,2.00049,4.27344C417.1626,856.13672,417.96289,854.85645,417.96289,851.86328Z" fill="#b0b0b0"/><path d="M440.71289,854.3916a3.2276,3.2276,0,0,1,1.92041-2.75293v-.06347a2.89852,2.89852,0,0,1-1.42432-2.35352,2.89834,2.89834,0,0,1,5.77832.0957,3.36269,3.36269,0,0,1-1.40869,2.46582v.06348a2.94714,2.94714,0,0,1,1.77686,2.625c0,1.52051-1.3125,2.72168-3.29736,2.72168C442.13721,857.19336,440.71289,856.00879,440.71289,854.3916Zm5.37793.03223c0-1.3125-1.29639-1.793-2.769-2.38477a2.766,2.766,0,0,0-1.42481,2.22461,2.0245,2.0245,0,0,0,2.19287,1.95313A1.81865,1.81865,0,0,0,446.09082,854.42383Zm-.24023-5.042a1.70444,1.70444,0,0,0-1.77637-1.8086,1.58,1.58,0,0,0-1.64893,1.64844c0,1.2168,1.12061,1.72852,2.353,2.209A2.7522,2.7522,0,0,0,445.85059,849.38184Z" fill="#b0b0b0"/><path d="M449.04883,856.2002a.95492.95492,0,1,1,1.90478,0,.95323.95323,0,1,1-1.90478,0Z" fill="#b0b0b0"/><path d="M452.69629,851.86328c0-3.42578,1.23242-5.2666,3.28125-5.2666,2.0332,0,3.26562,1.84082,3.26562,5.2666,0,3.42481-1.23242,5.33008-3.26562,5.33008C453.92871,857.19336,452.69629,855.28809,452.69629,851.86328Zm5.2666,0c0-2.99316-.80078-4.21-1.98535-4.21-1.2002,0-2.00049,1.2168-2.00049,4.21s.80029,4.27344,2.00049,4.27344C457.16211,856.13672,457.96289,854.85645,457.96289,851.86328Z" fill="#b0b0b0"/><path d="M480.87256,856.12109l.73633-.833a2.2413,2.2413,0,0,0,1.68066.8164c1.44092,0,2.65723-1.12011,2.70508-4.38574a3.201,3.201,0,0,1-2.40088,1.3125c-1.76074,0-2.897-1.05664-2.897-3.15332a3.0863,3.0863,0,0,1,3.00927-3.28125c2.01661,0,3.52149,1.63281,3.52149,4.91406,0,4.09766-1.85693,5.68262-3.88965,5.68262A3.26892,3.26892,0,0,1,480.87256,856.12109Zm5.09033-5.44238c-.17627-1.98535-.96045-3.042-2.25684-3.042-.99267,0-1.77685.89648-1.77685,2.24121,0,1.3291.62451,2.16113,1.88867,2.16113A2.7276,2.7276,0,0,0,485.96289,850.67871Z" fill="#b0b0b0"/><path d="M489.04883,856.2002a.95492.95492,0,1,1,1.90478,0,.95323.95323,0,1,1-1.90478,0Z" fill="#b0b0b0"/><path d="M492.69629,851.86328c0-3.42578,1.23242-5.2666,3.28125-5.2666,2.0332,0,3.26562,1.84082,3.26562,5.2666,0,3.42481-1.23242,5.33008-3.26562,5.33008C493.92871,857.19336,492.69629,855.28809,492.69629,851.86328Zm5.2666,0c0-2.99316-.80078-4.21-1.98535-4.21-1.2002,0-2.00049,1.2168-2.00049,4.21s.80029,4.27344,2.00049,4.27344C497.16211,856.13672,497.96289,854.85645,497.96289,851.86328Z" fill="#b0b0b0"/><path d="M519.68164,855.91211v-7.52246H517.8252V847.541a6.08453,6.08453,0,0,0,2.16113-.752h1.00781v9.12305h2.11328V857.001h-5.76269v-1.08887Z" fill="#b0b0b0"/><path d="M524.73633,851.86328c0-3.42578,1.23291-5.2666,3.28174-5.2666,2.03271,0,3.26513,1.84082,3.26513,5.2666,0,3.42481-1.23242,5.33008-3.26513,5.33008C525.96924,857.19336,524.73633,855.28809,524.73633,851.86328Zm5.2666,0c0-2.99316-.80078-4.21-1.98486-4.21-1.20069,0-2.001,1.2168-2.001,4.21s.80029,4.27344,2.001,4.27344C529.20215,856.13672,530.00293,854.85645,530.00293,851.86328Z" fill="#b0b0b0"/><path d="M533.02441,856.2002a.95516.95516,0,1,1,1.90528,0,.95347.95347,0,1,1-1.90528,0Z" fill="#b0b0b0"/><path d="M536.67236,851.86328c0-3.42578,1.23243-5.2666,3.28125-5.2666,2.03272,0,3.26563,1.84082,3.26563,5.2666,0,3.42481-1.23291,5.33008-3.26563,5.33008C537.90479,857.19336,536.67236,855.28809,536.67236,851.86328Zm5.26612,0c0-2.99316-.8003-4.21-1.98487-4.21-1.20019,0-2.00049,1.2168-2.00049,4.21s.8003,4.27344,2.00049,4.27344C541.13818,856.13672,541.93848,854.85645,541.93848,851.86328Z" fill="#b0b0b0"/><path d="M559.68213,855.91211v-7.52246H557.8252V847.541a6.081,6.081,0,0,0,2.16113-.752h1.0083v9.12305h2.11279V857.001h-5.76221v-1.08887Z" fill="#b0b0b0"/><path d="M567.63379,855.91211v-7.52246h-1.85645V847.541a6.08452,6.08452,0,0,0,2.16114-.752h1.00781v9.12305h2.11328V857.001h-5.76269v-1.08887Z" fill="#b0b0b0"/><path d="M573.0249,856.2002a.95493.95493,0,1,1,1.90479,0,.95323.95323,0,1,1-1.90479,0Z" fill="#b0b0b0"/><path d="M576.67285,851.86328c0-3.42578,1.23242-5.2666,3.28125-5.2666,2.03272,0,3.26514,1.84082,3.26514,5.2666,0,3.42481-1.23242,5.33008-3.26514,5.33008C577.90527,857.19336,576.67285,855.28809,576.67285,851.86328Zm5.26611,0c0-2.99316-.80029-4.21-1.98486-4.21-1.20068,0-2.001,1.2168-2.001,4.21s.8003,4.27344,2.001,4.27344C581.13867,856.13672,581.939,854.85645,581.939,851.86328Z" fill="#b0b0b0"/><path d="M599.68213,855.91211v-7.52246H597.8252V847.541a6.081,6.081,0,0,0,2.16113-.752h1.0083v9.12305h2.11279V857.001h-5.76221v-1.08887Z" fill="#b0b0b0"/><path d="M609.47461,849.66992a1.80889,1.80889,0,0,0-1.93652-2.001,3.01037,3.01037,0,0,0-2.17676,1.23242l-.75244-.752a4.00738,4.00738,0,0,1,3.08935-1.55273,2.83642,2.83642,0,0,1,3.05713,3.00977c0,1.91992-1.74463,3.82519-4.16162,6.35449.56006-.04883,1.18457-.09668,1.7124-.09668h2.96143V857.001h-6.59473v-.78418C607.74609,853.15918,609.47461,851.31836,609.47461,849.66992Z" fill="#b0b0b0"/><path d="M613.0249,856.2002a.95493.95493,0,1,1,1.90479,0,.95323.95323,0,1,1-1.90479,0Z" fill="#b0b0b0"/><path d="M616.67285,851.86328c0-3.42578,1.23242-5.2666,3.28125-5.2666,2.03272,0,3.26514,1.84082,3.26514,5.2666,0,3.42481-1.23242,5.33008-3.26514,5.33008C617.90527,857.19336,616.67285,855.28809,616.67285,851.86328Zm5.26611,0c0-2.99316-.80029-4.21-1.98486-4.21-1.20068,0-2.001,1.2168-2.001,4.21s.8003,4.27344,2.001,4.27344C621.13867,856.13672,621.939,854.85645,621.939,851.86328Z" fill="#b0b0b0"/><path d="M81.26514,811.75293l.67236-.86523a3.46477,3.46477,0,0,0,2.60889,1.21679,1.90367,1.90367,0,0,0,2.11279-1.873c0-1.21583-.832-2.03223-3.26514-2.03223v-1.00879c2.17676,0,2.897-.832,2.897-1.9043a1.57236,1.57236,0,0,0-1.76075-1.61718,3.09682,3.09682,0,0,0-2.17675,1.041l-.70411-.833a4.204,4.204,0,0,1,2.92871-1.28027c1.77686,0,3.05762.94434,3.05762,2.59277a2.5319,2.5319,0,0,1-1.85693,2.4336v.06347a2.6355,2.6355,0,0,1,2.209,2.59375c0,1.8086-1.48877,2.91309-3.36133,2.91309A4.33925,4.33925,0,0,1,81.26514,811.75293Z" fill="#b0b0b0"/><path d="M89.56934,808.2793c0-4.09766,1.85644-5.68262,3.88916-5.68262a3.21928,3.21928,0,0,1,2.46533,1.08887l-.73633.8164a2.22144,2.22144,0,0,0-1.68066-.80078c-1.42481,0-2.625,1.10449-2.68946,4.33789a3.26276,3.26276,0,0,1,2.38526-1.28027c1.76074,0,2.91308,1.05566,2.91308,3.15332a3.08887,3.08887,0,0,1-3.0249,3.28125C91.08984,813.19336,89.56934,811.56055,89.56934,808.2793Zm5.29785,1.63281c0-1.3291-.624-2.16113-1.88867-2.16113a2.72057,2.72057,0,0,0-2.12891,1.34472c.16016,1.98438.94434,3.05664,2.24121,3.05664C94.09863,812.15234,94.86719,811.25586,94.86719,809.91211Z" fill="#b0b0b0"/><path d="M97.457,807.86328c0-3.42578,1.23242-5.2666,3.28125-5.2666,2.03272,0,3.26563,1.84082,3.26563,5.2666,0,3.42481-1.23291,5.33008-3.26563,5.33008C98.68945,813.19336,97.457,811.28809,97.457,807.86328Zm5.26611,0c0-2.99316-.80029-4.21-1.98486-4.21-1.20019,0-2.001,1.2168-2.001,4.21s.80079,4.27344,2.001,4.27344C101.92285,812.13672,102.72314,810.85645,102.72314,807.86328Z" fill="#b0b0b0"/><path d="M105.36084,804.10156a2.001,2.001,0,1,1,2.001,2.03223A1.97766,1.97766,0,0,1,105.36084,804.10156Zm3.20117,0a1.204,1.204,0,1,0-1.20019,1.2959A1.215,1.215,0,0,0,108.562,804.10156Z" fill="#b0b0b0"/><path d="M86.64307,783.92578H81.55322v-1.13672h6.57862v.81641c-2.417,3.08887-2.91309,5.41015-3.08936,9.39551H83.68213A15.03018,15.03018,0,0,1,86.64307,783.92578Z" fill="#b0b0b0"/><path d="M94.24316,785.66992a1.80925,1.80925,0,0,0-1.937-2.001,3.01218,3.01218,0,0,0-2.17676,1.23242l-.75244-.752a4.00817,4.00817,0,0,1,3.08936-1.55273,2.83642,2.83642,0,0,1,3.05713,3.00977c0,1.91992-1.74463,3.82519-4.16162,6.35449.56006-.04883,1.18457-.09668,1.7124-.09668h2.96142V793.001H89.44092v-.78418C92.51416,789.15918,94.24316,787.31836,94.24316,785.66992Z" fill="#b0b0b0"/><path d="M97.457,787.86328c0-3.42578,1.23242-5.2666,3.28125-5.2666,2.03272,0,3.26563,1.84082,3.26563,5.2666,0,3.42481-1.23291,5.33008-3.26563,5.33008C98.68945,793.19336,97.457,791.28809,97.457,787.86328Zm5.26611,0c0-2.99316-.80029-4.21-1.98486-4.21-1.20019,0-2.001,1.2168-2.001,4.21s.80079,4.27344,2.001,4.27344C101.92285,792.13672,102.72314,790.85645,102.72314,787.86328Z" fill="#b0b0b0"/><path d="M105.36084,784.10156a2.001,2.001,0,1,1,2.001,2.03223A1.97766,1.97766,0,0,1,105.36084,784.10156Zm3.20117,0a1.204,1.204,0,1,0-1.20019,1.2959A1.215,1.215,0,0,0,108.562,784.10156Z" fill="#b0b0b0"/><path d="M76.49805,771.91211v-7.52246H74.6416V763.541a6.07819,6.07819,0,0,0,2.16065-.752h1.0083v9.12305h2.11328V773.001h-5.7627v-1.08887Z" fill="#b0b0b0"/><path d="M81.55273,767.86328c0-3.42578,1.23243-5.2666,3.28125-5.2666,2.03321,0,3.26563,1.84082,3.26563,5.2666,0,3.42481-1.23242,5.33008-3.26563,5.33008C82.78516,773.19336,81.55273,771.28809,81.55273,767.86328Zm5.26661,0c0-2.99316-.80079-4.21-1.98536-4.21-1.20019,0-2.00048,1.2168-2.00048,4.21s.80029,4.27344,2.00048,4.27344C86.01855,772.13672,86.81934,770.85645,86.81934,767.86328Z" fill="#b0b0b0"/><path d="M89.457,770.3916a3.2276,3.2276,0,0,1,1.92041-2.75293v-.06347a2.89852,2.89852,0,0,1-1.42432-2.35352,2.89835,2.89835,0,0,1,5.77833.0957,3.36267,3.36267,0,0,1-1.4087,2.46582v.06348a2.94714,2.94714,0,0,1,1.77686,2.625c0,1.52051-1.3125,2.72168-3.29736,2.72168C90.88135,773.19336,89.457,772.00879,89.457,770.3916Zm5.37793.03223c0-1.3125-1.29639-1.793-2.769-2.38477a2.766,2.766,0,0,0-1.42481,2.22461A2.0245,2.0245,0,0,0,92.834,772.2168,1.81865,1.81865,0,0,0,94.835,770.42383Zm-.24023-5.042a1.70444,1.70444,0,0,0-1.77637-1.8086,1.58,1.58,0,0,0-1.64893,1.64844c0,1.2168,1.12061,1.72852,2.353,2.209A2.7522,2.7522,0,0,0,94.59473,765.38184Z" fill="#b0b0b0"/><path d="M97.457,767.86328c0-3.42578,1.23242-5.2666,3.28125-5.2666,2.03272,0,3.26514,1.84082,3.26514,5.2666,0,3.42481-1.23242,5.33008-3.26514,5.33008C98.68945,773.19336,97.457,771.28809,97.457,767.86328Zm5.26563,0c0-2.99316-.8003-4.21-1.98438-4.21-1.20068,0-2.001,1.2168-2.001,4.21s.8003,4.27344,2.001,4.27344C101.92236,772.13672,102.72266,770.85645,102.72266,767.86328Z" fill="#b0b0b0"/><path d="M105.36035,764.10156a2.00122,2.00122,0,1,1,2.001,2.03223A1.97794,1.97794,0,0,1,105.36035,764.10156Zm3.20166,0a1.204,1.204,0,1,0-1.20068,1.2959A1.21532,1.21532,0,0,0,108.562,764.10156Z" fill="#b0b0b0"/><path d="M73.97021,538.50146c2.353,0,3.9375.78418,3.9375,3.08887,0,2.209-1.56835,3.249-3.87353,3.249H72.30566v4.1621H70.97705v-10.5Zm2.60938,3.08887c0-1.52051-.92871-2.0166-2.76953-2.0166h-1.5044v4.17773H73.874C75.69922,543.75146,76.57959,543.07861,76.57959,541.59033Z" fill="#b0b0b0"/><path d="M81.21729,537.605v3.10547l-.04786,1.60059a3.72045,3.72045,0,0,1,2.59327-1.28125c1.63232,0,2.36865,1.05664,2.36865,3.042v4.92968h-1.3125v-4.7539c0-1.457-.44824-2.08106-1.47266-2.08106-.80029,0-1.34424.416-2.1289,1.20118v5.63378h-1.3125V537.605Z" fill="#b0b0b0"/><path d="M88.12842,546.98486c0-1.69726,1.45654-2.54492,4.77-2.91308,0-.99317-.31983-1.95313-1.60059-1.95313a4.22886,4.22886,0,0,0-2.3208.832l-.51221-.91211a5.776,5.776,0,0,1,3.05713-1.00878c1.90479,0,2.70508,1.26464,2.70508,3.20214v4.76953H93.13867l-.1123-.92871h-.04785a4.14989,4.14989,0,0,1-2.57715,1.1211A2.117,2.117,0,0,1,88.12842,546.98486Zm4.77.11231V544.936c-2.59278.32031-3.48926.96-3.48926,1.95214,0,.88086.6084,1.249,1.37646,1.249A3.15419,3.15419,0,0,0,92.89844,547.09717Z" fill="#b0b0b0"/><path d="M95.80859,548.12158l.65625-.88086a3.49884,3.49884,0,0,0,2.28858.92871c1.02441,0,1.53662-.54492,1.53662-1.21679,0-.80078-.92822-1.15235-1.77637-1.47266-1.10449-.40039-2.32129-.92871-2.32129-2.24121,0-1.24805.99268-2.209,2.67334-2.209a3.88131,3.88131,0,0,1,2.417.88085l-.62451.832a2.88651,2.88651,0,0,0-1.77636-.68848c-.97657,0-1.42481.52832-1.42481,1.12109,0,.73633.84863,1.00782,1.72852,1.34473,1.1206.416,2.36914.87988,2.36914,2.35254,0,1.26465-1.0083,2.32129-2.84912,2.32129A4.68673,4.68673,0,0,1,95.80859,548.12158Z" fill="#b0b0b0"/><path d="M102.80029,545.12744c0-2.54492,1.71289-4.09765,3.48975-4.09765,1.98437,0,3.105,1.4248,3.105,3.65039a5.13322,5.13322,0,0,1-.04785.752h-5.25049a2.58046,2.58046,0,0,0,2.59326,2.70508,3.517,3.517,0,0,0,1.937-.6084l.46387.86426a4.62888,4.62888,0,0,1-2.561.80078A3.72017,3.72017,0,0,1,102.80029,545.12744Zm3.52149-3.05664a2.40224,2.40224,0,0,0-2.24073,2.417h4.16163C108.24268,542.91943,107.53809,542.0708,106.32178,542.0708Z" fill="#b0b0b0"/><path d="M657.49121,838.50146v1.12012H652.769v3.55371h4.00147v1.12012H652.769v4.70605h-1.32861v-10.5Z" fill="#b0b0b0"/><path d="M659.98486,841.22217l.11231,1.40918h.04785a2.66189,2.66189,0,0,1,2.209-1.60156,1.94128,1.94128,0,0,1,.832.16015l-.25586,1.15332a2.17674,2.17674,0,0,0-.75245-.1289c-.65625,0-1.44043.48046-1.96875,1.793v4.99414h-1.3125v-7.77929Z" fill="#b0b0b0"/><path d="M663.71191,845.12744c0-2.54492,1.71289-4.09765,3.48926-4.09765,1.98487,0,3.10547,1.4248,3.10547,3.65039a5.0596,5.0596,0,0,1-.04834.752h-5.25a2.58046,2.58046,0,0,0,2.59326,2.70508,3.51421,3.51421,0,0,0,1.93653-.6084l.46435.86426a4.62888,4.62888,0,0,1-2.561.80078A3.71991,3.71991,0,0,1,663.71191,845.12744Zm3.52149-3.05664a2.40261,2.40261,0,0,0-2.24121,2.417h4.16211C669.1543,842.91943,668.44971,842.0708,667.2334,842.0708Z" fill="#b0b0b0"/><path d="M677.21826,848.105a3.45092,3.45092,0,0,1-2.33691,1.08887c-1.95313,0-3.21729-1.47266-3.21729-4.06641,0-2.52832,1.60059-4.09765,3.37744-4.09765a3.16707,3.16707,0,0,1,2.22461.92871h.03223l.12793-.73633h1.05664v11.06054H677.1543v-2.76953Zm-.064-1.08789v-4.06641a2.70934,2.70934,0,0,0-1.88868-.8164c-1.24853,0-2.24121,1.20117-2.24121,2.97754,0,1.85644.78418,2.97754,2.145,2.97754A2.63518,2.63518,0,0,0,677.1543,847.01709Z" fill="#b0b0b0"/><path d="M680.99219,846.15186v-4.92969h1.32812v4.7539c0,1.457.43262,2.08106,1.457,2.08106.8003,0,1.36036-.40039,2.09668-1.3125v-5.52246h1.3125v7.77929h-1.08838l-.1123-1.21679H685.938a3.28825,3.28825,0,0,1-2.561,1.40918C681.72852,849.19385,680.99219,848.13721,680.99219,846.15186Z" fill="#b0b0b0"/><path d="M689.23145,845.12744c0-2.54492,1.71289-4.09765,3.48925-4.09765,1.98487,0,3.10547,1.4248,3.10547,3.65039a5.0596,5.0596,0,0,1-.04834.752h-5.25a2.58046,2.58046,0,0,0,2.59326,2.70508,3.51418,3.51418,0,0,0,1.93653-.6084l.46435.86426a4.62888,4.62888,0,0,1-2.561.80078A3.7199,3.7199,0,0,1,689.23145,845.12744Zm3.52148-3.05664a2.40261,2.40261,0,0,0-2.24121,2.417h4.16211C694.67383,842.91943,693.96924,842.0708,692.75293,842.0708Z" fill="#b0b0b0"/><path d="M698.832,841.22217l.11231,1.12109h.04785a3.66778,3.66778,0,0,1,2.60888-1.31347c1.63282,0,2.36914,1.05664,2.36914,3.042v4.92968h-1.3125v-4.7539c0-1.457-.44824-2.08106-1.47265-2.08106-.80029,0-1.34473.416-2.12891,1.2002v5.63476h-1.3125v-7.77929Z" fill="#b0b0b0"/><path d="M705.91943,845.12744a3.76787,3.76787,0,0,1,3.74561-4.09765,3.23011,3.23011,0,0,1,2.273.91308l-.67237.86426a2.28024,2.28024,0,0,0-1.55273-.68848c-1.40869,0-2.4331,1.2168-2.4331,3.00879,0,1.77735.97656,2.97754,2.40136,2.97754a2.76312,2.76312,0,0,0,1.82471-.78418l.57617.87988a3.79322,3.79322,0,0,1-2.51318.99317C707.50391,849.19385,705.91943,847.70459,705.91943,845.12744Z" fill="#b0b0b0"/><path d="M713.10352,852.187l.25586-1.041a2.25674,2.25674,0,0,0,.59228.1123c.88037,0,1.44092-.7041,1.76074-1.665l.17627-.57617-3.12158-7.79492h1.36084l1.58447,4.30566c.24024.67285.51221,1.47266.75244,2.19336h.064c.22412-.7041.44824-1.50488.65625-2.19336l1.39258-4.30566h1.28027l-2.9292,8.41992c-.54394,1.53613-1.34424,2.70508-2.91309,2.70508A2.5884,2.5884,0,0,1,713.10352,852.187Z" fill="#b0b0b0"/><line x1="113" y1="380.00012" x2="668.69873" y2="380.00012" fill="none" stroke="#7f7f7f" stroke-width="1.2"/><polygon points="664.722 384.908 663.904 384.029 668.238 380.001 663.904 375.972 664.722 375.094 670 380.001 664.722 384.908" fill="#7f7f7f"/><line x1="130" y1="400" x2="130" y2="81.30139" fill="none" stroke="#7f7f7f" stroke-width="1.2"/><polygon points="134.908 85.278 134.029 86.096 130.001 81.762 125.972 86.096 125.093 85.278 130.001 80 134.908 85.278" fill="#7f7f7f"/><line x1="113" y1="829.00012" x2="668.69873" y2="829.00012" fill="none" stroke="#7f7f7f" stroke-width="1.2"/><polygon points="664.722 833.908 663.904 833.029 668.238 829.001 663.904 824.972 664.722 824.094 670 829.001 664.722 833.908" fill="#7f7f7f"/><line x1="130" y1="849" x2="130" y2="530.30139" fill="none" stroke="#7f7f7f" stroke-width="1.2"/><polygon points="134.908 534.278 134.029 535.096 130.001 530.762 125.972 535.096 125.093 534.278 130.001 529 134.908 534.278" fill="#7f7f7f"/><path d="M359.99219,328.57471c0-3.83985,1.74023-5.3252,3.645-5.3252a3.01884,3.01884,0,0,1,2.31006,1.02051l-.69.76465a2.08507,2.08507,0,0,0-1.57519-.75c-1.335,0-2.46,1.03515-2.52,4.06543a3.056,3.056,0,0,1,2.23486-1.2002c1.64991,0,2.73.99024,2.73,2.95508a2.89432,2.89432,0,0,1-2.835,3.07422C361.41748,333.1792,359.99219,331.6499,359.99219,328.57471ZM364.957,330.105c0-1.24512-.585-2.02539-1.77-2.02539a2.54941,2.54941,0,0,0-1.99463,1.25977c.14991,1.86035.88477,2.86523,2.09961,2.86523C364.2373,332.20459,364.957,331.36475,364.957,330.105Z" fill="#867768"/><path d="M404.70215,316.49463h-4.77v-1.06445h6.165v.76464c-2.26514,2.89454-2.73,5.07032-2.895,8.80469h-1.2749A14.08513,14.08513,0,0,1,404.70215,316.49463Z" fill="#867768"/><path d="M432.88721,316.5542a3.02333,3.02333,0,0,1,1.7998-2.5791v-.06055a2.71642,2.71642,0,0,1-1.33447-2.20508,2.71582,2.71582,0,0,1,5.41455.09082,3.15086,3.15086,0,0,1-1.31982,2.30957v.05957a2.76151,2.76151,0,0,1,1.665,2.46c0,1.42481-1.23,2.54981-3.09033,2.54981C434.22217,319.1792,432.88721,318.06982,432.88721,316.5542Zm5.04.03027c0-1.22949-1.21485-1.67968-2.59522-2.23437a2.59207,2.59207,0,0,0-1.335,2.085,1.89674,1.89674,0,0,0,2.05518,1.8291A1.70386,1.70386,0,0,0,437.92725,316.58447Zm-.2251-4.72461a1.59786,1.59786,0,0,0-1.665-1.69531,1.48066,1.48066,0,0,0-1.54492,1.54492c0,1.14063,1.0498,1.62012,2.20508,2.07032A2.57926,2.57926,0,0,0,437.70215,311.85986Z" fill="#867768"/><path d="M460.03711,312.17432l.68994-.7793a2.1,2.1,0,0,0,1.5752.76465c1.35009,0,2.48974-1.04981,2.53466-4.11035a2.998,2.998,0,0,1-2.24951,1.23047c-1.6499,0-2.71484-.99024-2.71484-2.95508a2.89182,2.89182,0,0,1,2.81982-3.0752c1.88965,0,3.29981,1.53028,3.29981,4.60547,0,3.83984-1.74024,5.32422-3.645,5.32422A3.05983,3.05983,0,0,1,460.03711,312.17432Zm4.77-5.09961c-.165-1.86035-.8999-2.84961-2.11475-2.84961-.93017,0-1.665.83984-1.665,2.09961,0,1.24511.585,2.02539,1.77,2.02539A2.55432,2.55432,0,0,0,464.80713,307.07471Z" fill="#867768"/><path d="M482.91992,306.98v-7.0498h-1.74023v-.79493a5.7144,5.7144,0,0,0,2.02539-.70507h.94433V306.98h1.98047v1.01953H480.73V306.98Z" fill="#867768"/><path d="M487.65967,303.18506c0-3.21,1.15478-4.93555,3.07471-4.93555,1.90527,0,3.06,1.72559,3.06,4.93555s-1.15478,4.99414-3.06,4.99414C488.81445,308.1792,487.65967,306.395,487.65967,303.18506Zm4.93506,0c0-2.80567-.75-3.94531-1.86035-3.94531-1.125,0-1.875,1.13964-1.875,3.94531,0,2.80469.75,4.00488,1.875,4.00488C491.84473,307.18994,492.59473,305.98975,492.59473,303.18506Z" fill="#867768"/><path d="M515.91992,300.98v-7.0498h-1.73974v-.79493a5.71506,5.71506,0,0,0,2.0249-.70507h.94482V300.98h1.98v1.01953H513.73V300.98Z" fill="#867768"/><path d="M523.37451,300.98v-7.0498h-1.73974v-.79493a5.708,5.708,0,0,0,2.0249-.70507h.94482V300.98h1.98v1.01953h-5.39941V300.98Z" fill="#867768"/><path d="M555.91992,292.98v-7.0498h-1.73974v-.79493a5.71506,5.71506,0,0,0,2.0249-.70507h.94482V292.98h1.98v1.01953H553.73V292.98Z" fill="#867768"/><path d="M565.09961,287.12939a1.6951,1.6951,0,0,0-1.81494-1.875,2.82268,2.82268,0,0,0-2.04,1.15528l-.70459-.70508a3.75572,3.75572,0,0,1,2.89453-1.45508,2.65835,2.65835,0,0,1,2.86523,2.82031c0,1.79981-1.63525,3.585-3.8999,5.95508.5249-.04492,1.10987-.09082,1.605-.09082h2.77491v1.06543H560.6001v-.73535C563.48,290.3999,565.09961,288.67432,565.09961,287.12939Z" fill="#867768"/><path d="M595.91943,284.98v-7.0498h-1.73974v-.79493a5.708,5.708,0,0,0,2.0249-.70507h.94482V284.98h1.98v1.01953h-5.3999V284.98Z" fill="#867768"/><path d="M600.38965,284.82959l.62988-.80957a3.24949,3.24949,0,0,0,2.44483,1.13965,1.78423,1.78423,0,0,0,1.98-1.75488c0-1.13965-.78028-1.90528-3.05957-1.90528v-.94433c2.03955,0,2.71484-.78028,2.71484-1.78516a1.47341,1.47341,0,0,0-1.65039-1.51563,2.902,2.902,0,0,0-2.04.97559l-.65967-.78027a3.94213,3.94213,0,0,1,2.74463-1.2002c1.665,0,2.86524.88574,2.86524,2.43067a2.3715,2.3715,0,0,1-1.74024,2.27929V281.02a2.4685,2.4685,0,0,1,2.07031,2.42969c0,1.69531-1.3955,2.72949-3.15039,2.72949A4.06473,4.06473,0,0,1,600.38965,284.82959Z" fill="#867768"/><path d="M204.37207,813.12988a1.6951,1.6951,0,0,0-1.81494-1.875,2.82267,2.82267,0,0,0-2.04,1.15528l-.70459-.70508A3.75572,3.75572,0,0,1,202.707,810.25a2.65836,2.65836,0,0,1,2.86524,2.82031c0,1.79981-1.63526,3.585-3.89991,5.95508.52491-.04492,1.10987-.09082,1.605-.09082h2.77491V820h-6.17969v-.73535C202.75244,816.40039,204.37207,814.6748,204.37207,813.12988Z" fill="#867768"/><path d="M239.66211,812.83008l.62988-.80957a3.25137,3.25137,0,0,0,2.44531,1.13965,1.78382,1.78382,0,0,0,1.9795-1.75489c0-1.13965-.77979-1.90527-3.05957-1.90527v-.94434c2.04,0,2.71484-.78027,2.71484-1.78515a1.473,1.473,0,0,0-1.6499-1.51563,2.90014,2.90014,0,0,0-2.04.97559l-.65967-.78027a3.94121,3.94121,0,0,1,2.74463-1.2002c1.66455,0,2.86475.88574,2.86475,2.43066a2.37163,2.37163,0,0,1-1.73975,2.2793v.06055a2.46851,2.46851,0,0,1,2.06982,2.42969c0,1.69531-1.395,2.72949-3.1499,2.72949A4.06586,4.06586,0,0,1,239.66211,812.83008Z" fill="#867768"/><path d="M272.52734,807.36035v-.81055l4.09473-6.11914H278.002v5.93946h1.30518v.99023H278.002V810H276.832v-2.63965Zm4.30469-3.76465c0-.51074.04492-1.335.0752-1.8457h-.06006c-.24024.46484-.50977.88574-.77979,1.35059l-2.23486,3.26953H276.832Z" fill="#867768"/><path d="M299.64746,805.875l.59961-.80957a3.25846,3.25846,0,0,0,2.415,1.09473,2.06563,2.06563,0,0,0,2.1001-2.19043,1.923,1.923,0,0,0-2.04-2.09961,2.69135,2.69135,0,0,0-1.63477.585l-.66015-.41992.31494-4.6045h4.78467v1.06446h-3.70459l-.25489,2.835a2.93443,2.93443,0,0,1,1.46973-.38965,2.75452,2.75452,0,0,1,2.96973,3,3.12865,3.12865,0,0,1-3.22461,3.23926A4.19376,4.19376,0,0,1,299.64746,805.875Z" fill="#867768"/><path d="M326.99219,798.5752c0-3.83985,1.74023-5.3252,3.645-5.3252a3.01884,3.01884,0,0,1,2.31006,1.02051l-.69.76465a2.08507,2.08507,0,0,0-1.57519-.75c-1.335,0-2.46,1.03515-2.52,4.06543a3.056,3.056,0,0,1,2.23486-1.2002c1.64991,0,2.73.99023,2.73,2.95508a2.89432,2.89432,0,0,1-2.835,3.07422C328.41748,803.17969,326.99219,801.65039,326.99219,798.5752Zm4.96484,1.53027c0-1.24512-.585-2.02539-1.77-2.02539a2.54942,2.54942,0,0,0-1.99463,1.25976c.14991,1.86036.88477,2.86524,2.09961,2.86524C331.2373,802.20508,331.957,801.36523,331.957,800.10547Z" fill="#867768"/><path d="M364.70215,790.49512h-4.77v-1.06446h6.165v.76465c-2.26514,2.89453-2.73,5.07031-2.895,8.80469h-1.2749A14.08513,14.08513,0,0,1,364.70215,790.49512Z" fill="#867768"/><path d="M399.88721,791.55469a3.02333,3.02333,0,0,1,1.7998-2.5791V788.915a2.71644,2.71644,0,0,1-1.33447-2.20508,2.71582,2.71582,0,0,1,5.41455.09082,3.15088,3.15088,0,0,1-1.31982,2.30957v.05957a2.7615,2.7615,0,0,1,1.665,2.46c0,1.42481-1.23,2.54981-3.09033,2.54981C401.22217,794.17969,399.88721,793.07031,399.88721,791.55469Zm5.04.03027c0-1.22949-1.21485-1.67969-2.59522-2.23437a2.59207,2.59207,0,0,0-1.335,2.085,1.89674,1.89674,0,0,0,2.05518,1.8291A1.70386,1.70386,0,0,0,404.92725,791.585Zm-.2251-4.72461a1.59786,1.59786,0,0,0-1.665-1.69531,1.48066,1.48066,0,0,0-1.54492,1.54492c0,1.14063,1.0498,1.62012,2.20508,2.07031A2.57923,2.57923,0,0,0,404.70215,786.86035Z" fill="#867768"/><path d="M440.03711,789.1748l.68994-.77929a2.1,2.1,0,0,0,1.5752.76465c1.35009,0,2.48974-1.04981,2.53466-4.11036a2.998,2.998,0,0,1-2.24951,1.23047c-1.6499,0-2.71484-.99023-2.71484-2.95507a2.89182,2.89182,0,0,1,2.81982-3.0752c1.88965,0,3.29981,1.53027,3.29981,4.60547,0,3.83984-1.74024,5.32422-3.645,5.32422A3.0598,3.0598,0,0,1,440.03711,789.1748Zm4.77-5.0996c-.165-1.86036-.8999-2.84961-2.11475-2.84961-.93017,0-1.665.83984-1.665,2.09961,0,1.24511.585,2.02539,1.77,2.02539A2.55432,2.55432,0,0,0,444.80713,784.0752Z" fill="#867768"/><line x1="118" y1="180" x2="130" y2="180" fill="none" stroke="#7f7f7f" stroke-width="1.2"/><line x1="118" y1="280" x2="130" y2="280" fill="none" stroke="#7f7f7f" stroke-width="1.2"/><line x1="118" y1="260" x2="130" y2="260" fill="none" stroke="#7f7f7f" stroke-width="1.2"/><line x1="118" y1="240" x2="130" y2="240" fill="none" stroke="#7f7f7f" stroke-width="1.2"/><line x1="118" y1="220" x2="130" y2="220" fill="none" stroke="#7f7f7f" stroke-width="1.2"/><line x1="118" y1="200" x2="130" y2="200" fill="none" stroke="#7f7f7f" stroke-width="1.2"/><line x1="118" y1="160" x2="130" y2="160" fill="none" stroke="#7f7f7f" stroke-width="1.2"/><line x1="118" y1="140" x2="130" y2="140" fill="none" stroke="#7f7f7f" stroke-width="1.2"/><line x1="118" y1="120" x2="130" y2="120" fill="none" stroke="#7f7f7f" stroke-width="1.2"/><line x1="118" y1="300" x2="130" y2="300" fill="none" stroke="#7f7f7f" stroke-width="1.2"/><line x1="118" y1="320" x2="130" y2="320" fill="none" stroke="#7f7f7f" stroke-width="1.2"/><line x1="118" y1="340" x2="130" y2="340" fill="none" stroke="#7f7f7f" stroke-width="1.2"/><line x1="118" y1="360" x2="130" y2="360" fill="none" stroke="#7f7f7f" stroke-width="1.2"/><line x1="170" y1="392" x2="170" y2="380" fill="none" stroke="#7f7f7f" stroke-width="1.2"/><line x1="210" y1="392" x2="210" y2="380" fill="none" stroke="#7f7f7f" stroke-width="1.2"/><line x1="250" y1="392" x2="250" y2="380" fill="none" stroke="#7f7f7f" stroke-width="1.2"/><line x1="290" y1="392" x2="290" y2="380" fill="none" stroke="#7f7f7f" stroke-width="1.2"/><line x1="330" y1="392" x2="330" y2="380" fill="none" stroke="#7f7f7f" stroke-width="1.2"/><line x1="370" y1="392" x2="370" y2="380" fill="none" stroke="#7f7f7f" stroke-width="1.2"/><line x1="410" y1="392" x2="410" y2="380" fill="none" stroke="#7f7f7f" stroke-width="1.2"/><line x1="450" y1="392" x2="450" y2="380" fill="none" stroke="#7f7f7f" stroke-width="1.2"/><line x1="490" y1="392" x2="490" y2="380" fill="none" stroke="#7f7f7f" stroke-width="1.2"/><line x1="530" y1="392" x2="530" y2="380" fill="none" stroke="#7f7f7f" stroke-width="1.2"/><line x1="570" y1="392" x2="570" y2="380" fill="none" stroke="#7f7f7f" stroke-width="1.2"/><line x1="610" y1="392" x2="610" y2="380" fill="none" stroke="#7f7f7f" stroke-width="1.2"/><line x1="118" y1="629" x2="130" y2="629" fill="none" stroke="#7f7f7f" stroke-width="1.2"/><line x1="118" y1="729" x2="130" y2="729" fill="none" stroke="#7f7f7f" stroke-width="1.2"/><line x1="118" y1="709" x2="130" y2="709" fill="none" stroke="#7f7f7f" stroke-width="1.2"/><line x1="118" y1="689" x2="130" y2="689" fill="none" stroke="#7f7f7f" stroke-width="1.2"/><line x1="118" y1="669" x2="130" y2="669" fill="none" stroke="#7f7f7f" stroke-width="1.2"/><line x1="118" y1="649" x2="130" y2="649" fill="none" stroke="#7f7f7f" stroke-width="1.2"/><line x1="118" y1="609" x2="130" y2="609" fill="none" stroke="#7f7f7f" stroke-width="1.2"/><line x1="118" y1="589" x2="130" y2="589" fill="none" stroke="#7f7f7f" stroke-width="1.2"/><line x1="118" y1="569" x2="130" y2="569" fill="none" stroke="#7f7f7f" stroke-width="1.2"/><line x1="118" y1="749" x2="130" y2="749" fill="none" stroke="#7f7f7f" stroke-width="1.2"/><line x1="118" y1="769" x2="130" y2="769" fill="none" stroke="#7f7f7f" stroke-width="1.2"/><line x1="118" y1="789" x2="130" y2="789" fill="none" stroke="#7f7f7f" stroke-width="1.2"/><line x1="118" y1="809" x2="130" y2="809" fill="none" stroke="#7f7f7f" stroke-width="1.2"/><line x1="170" y1="841" x2="170" y2="829" fill="none" stroke="#7f7f7f" stroke-width="1.2"/><line x1="210" y1="841" x2="210" y2="829" fill="none" stroke="#7f7f7f" stroke-width="1.2"/><line x1="250" y1="841" x2="250" y2="829" fill="none" stroke="#7f7f7f" stroke-width="1.2"/><line x1="290" y1="841" x2="290" y2="829" fill="none" stroke="#7f7f7f" stroke-width="1.2"/><line x1="330" y1="841" x2="330" y2="829" fill="none" stroke="#7f7f7f" stroke-width="1.2"/><line x1="370" y1="841" x2="370" y2="829" fill="none" stroke="#7f7f7f" stroke-width="1.2"/><line x1="410" y1="841" x2="410" y2="829" fill="none" stroke="#7f7f7f" stroke-width="1.2"/><line x1="450" y1="841" x2="450" y2="829" fill="none" stroke="#7f7f7f" stroke-width="1.2"/><line x1="490" y1="841" x2="490" y2="829" fill="none" stroke="#7f7f7f" stroke-width="1.2"/><line x1="530" y1="841" x2="530" y2="829" fill="none" stroke="#7f7f7f" stroke-width="1.2"/><line x1="570" y1="841" x2="570" y2="829" fill="none" stroke="#7f7f7f" stroke-width="1.2"/><line x1="610" y1="841" x2="610" y2="829" fill="none" stroke="#7f7f7f" stroke-width="1.2"/><line x1="129" y1="360" x2="130" y2="360" fill="none" stroke="#666"/><line x1="132.05273" y1="360" x2="167.97363" y2="360" fill="none" stroke="#666" stroke-dasharray="2.05263 2.05263"/><line x1="169" y1="360" x2="170" y2="360" fill="none" stroke="#666"/><line x1="129" y1="340" x2="130" y2="340" fill="none" stroke="#666"/><line x1="132.02588" y1="340" x2="207.9873" y2="340" fill="none" stroke="#666" stroke-dasharray="2.02564 2.02564"/><line x1="209" y1="340" x2="210" y2="340" fill="none" stroke="#666"/><line x1="129" y1="320" x2="130" y2="320" fill="none" stroke="#666"/><line x1="132.01709" y1="320" x2="247.9917" y2="320" fill="none" stroke="#666" stroke-dasharray="2.01695 2.01695"/><line x1="249" y1="320" x2="250" y2="320" fill="none" stroke="#666"/><line x1="129" y1="300" x2="130" y2="300" fill="none" stroke="#666"/><line x1="132.0127" y1="300" x2="287.99365" y2="300" fill="none" stroke="#666" stroke-dasharray="2.01266 2.01266"/><line x1="289" y1="300" x2="290" y2="300" fill="none" stroke="#666"/><line x1="129" y1="280" x2="130" y2="280" fill="none" stroke="#666"/><line x1="132.01025" y1="280" x2="327.99512" y2="280" fill="none" stroke="#666" stroke-dasharray="2.0101 2.0101"/><line x1="329" y1="280" x2="330" y2="280" fill="none" stroke="#666"/><line x1="129" y1="260" x2="130" y2="260" fill="none" stroke="#666"/><line x1="132.0083" y1="260" x2="367.99561" y2="260" fill="none" stroke="#666" stroke-dasharray="2.0084 2.0084"/><line x1="369" y1="260" x2="370" y2="260" fill="none" stroke="#666"/><line x1="129" y1="240" x2="130" y2="240" fill="none" stroke="#666"/><line x1="132.00732" y1="240" x2="407.99658" y2="240" fill="none" stroke="#666" stroke-dasharray="2.00719 2.00719"/><line x1="409" y1="240" x2="410" y2="240" fill="none" stroke="#666"/><line x1="129" y1="220" x2="130" y2="220" fill="none" stroke="#666"/><line x1="132.01123" y1="220" x2="440.74414" y2="220" fill="none" stroke="#666" stroke-dasharray="2.01129 2.01129"/><line x1="441.75" y1="220" x2="442.75" y2="220" fill="none" stroke="#666"/><line x1="129" y1="200" x2="130" y2="200" fill="none" stroke="#666"/><line x1="132.00586" y1="200" x2="467.99707" y2="200" fill="none" stroke="#666" stroke-dasharray="2.00592 2.00592"/><line x1="469" y1="200" x2="470" y2="200" fill="none" stroke="#666"/><line x1="129" y1="180" x2="130" y2="180" fill="none" stroke="#666"/><line x1="132.00146" y1="180" x2="495.29736" y2="180" fill="none" stroke="#666" stroke-dasharray="2.00163 2.00163"/><line x1="496.29834" y1="180" x2="497.29834" y2="180" fill="none" stroke="#666"/><line x1="129" y1="160" x2="130" y2="160" fill="none" stroke="#666"/><line x1="132.00488" y1="160" x2="527.99756" y2="160" fill="none" stroke="#666" stroke-dasharray="2.00503 2.00503"/><line x1="529" y1="160" x2="530" y2="160" fill="none" stroke="#666"/><line x1="129" y1="140" x2="130" y2="140" fill="none" stroke="#666"/><line x1="132.00439" y1="140" x2="567.99756" y2="140" fill="none" stroke="#666" stroke-dasharray="2.00457 2.00457"/><line x1="569" y1="140" x2="570" y2="140" fill="none" stroke="#666"/><line x1="129" y1="120" x2="130" y2="120" fill="none" stroke="#666"/><line x1="132.00439" y1="120" x2="607.99805" y2="120" fill="none" stroke="#666" stroke-dasharray="2.00418 2.00418"/><line x1="609" y1="120" x2="610" y2="120" fill="none" stroke="#666"/><line x1="170" y1="380" x2="170" y2="379" fill="none" stroke="#666"/><line x1="170" y1="377" x2="170" y2="362" fill="none" stroke="#666" stroke-dasharray="2 2"/><line x1="170" y1="361" x2="170" y2="360" fill="none" stroke="#666"/><line x1="210" y1="380" x2="210" y2="379" fill="none" stroke="#666"/><line x1="210" y1="377" x2="210" y2="342" fill="none" stroke="#666" stroke-dasharray="2 2"/><line x1="210" y1="341" x2="210" y2="340" fill="none" stroke="#666"/><line x1="250" y1="380" x2="250" y2="379" fill="none" stroke="#666"/><line x1="250" y1="377" x2="250" y2="322" fill="none" stroke="#666" stroke-dasharray="2 2"/><line x1="250" y1="321" x2="250" y2="320" fill="none" stroke="#666"/><line x1="290" y1="380" x2="290" y2="379" fill="none" stroke="#666"/><line x1="290" y1="377" x2="290" y2="302" fill="none" stroke="#666" stroke-dasharray="2 2"/><line x1="290" y1="301" x2="290" y2="300" fill="none" stroke="#666"/><line x1="330" y1="380" x2="330" y2="379" fill="none" stroke="#666"/><line x1="330" y1="377" x2="330" y2="282" fill="none" stroke="#666" stroke-dasharray="2 2"/><line x1="330" y1="281" x2="330" y2="280" fill="none" stroke="#666"/><line x1="370" y1="380" x2="370" y2="379" fill="none" stroke="#666"/><line x1="370" y1="377" x2="370" y2="262" fill="none" stroke="#666" stroke-dasharray="2 2"/><line x1="370" y1="261" x2="370" y2="260" fill="none" stroke="#666"/><line x1="410" y1="380" x2="410" y2="379" fill="none" stroke="#666"/><line x1="410" y1="377" x2="410" y2="242" fill="none" stroke="#666" stroke-dasharray="2 2"/><line x1="410" y1="241" x2="410" y2="240" fill="none" stroke="#666"/><line x1="442.75" y1="380" x2="442.75" y2="379" fill="none" stroke="#666"/><line x1="442.75" y1="377" x2="442.75" y2="222" fill="none" stroke="#666" stroke-dasharray="2 2"/><line x1="442.75" y1="221" x2="442.75" y2="220" fill="none" stroke="#666"/><line x1="470" y1="380" x2="470" y2="379" fill="none" stroke="#666"/><line x1="470" y1="377" x2="470" y2="202" fill="none" stroke="#666" stroke-dasharray="2 2"/><line x1="470" y1="201" x2="470" y2="200" fill="none" stroke="#666"/><line x1="497.29834" y1="380" x2="497.29834" y2="379" fill="none" stroke="#666"/><line x1="497.29834" y1="377" x2="497.29834" y2="182" fill="none" stroke="#666" stroke-dasharray="2 2"/><line x1="497.29834" y1="181" x2="497.29834" y2="180" fill="none" stroke="#666"/><line x1="530" y1="380" x2="530" y2="379" fill="none" stroke="#666"/><line x1="530" y1="377" x2="530" y2="162" fill="none" stroke="#666" stroke-dasharray="2 2"/><line x1="530" y1="161" x2="530" y2="160" fill="none" stroke="#666"/><line x1="610" y1="380" x2="610" y2="379" fill="none" stroke="#666"/><line x1="610" y1="377" x2="610" y2="122" fill="none" stroke="#666" stroke-dasharray="2 2"/><line x1="610" y1="121" x2="610" y2="120" fill="none" stroke="#666"/><line x1="570" y1="380" x2="570" y2="379" fill="none" stroke="#666"/><line x1="570" y1="377" x2="570" y2="142" fill="none" stroke="#666" stroke-dasharray="2 2"/><line x1="570" y1="141" x2="570" y2="140" fill="none" stroke="#666"/><line x1="129" y1="809" x2="130" y2="809" fill="none" stroke="#666"/><line x1="132.05273" y1="809" x2="167.97363" y2="809" fill="none" stroke="#666" stroke-dasharray="2.05263 2.05263"/><line x1="169" y1="809" x2="170" y2="809" fill="none" stroke="#666"/><line x1="129" y1="789" x2="130" y2="789" fill="none" stroke="#666"/><line x1="132.02588" y1="789" x2="207.9873" y2="789" fill="none" stroke="#666" stroke-dasharray="2.02564 2.02564"/><line x1="209" y1="789" x2="210" y2="789" fill="none" stroke="#666"/><line x1="129" y1="769" x2="130" y2="769" fill="none" stroke="#666"/><line x1="132.01709" y1="769" x2="247.9917" y2="769" fill="none" stroke="#666" stroke-dasharray="2.01695 2.01695"/><line x1="249" y1="769" x2="250" y2="769" fill="none" stroke="#666"/><line x1="129" y1="749" x2="130" y2="749" fill="none" stroke="#666"/><line x1="132.02246" y1="749" x2="280.68896" y2="749" fill="none" stroke="#666" stroke-dasharray="2.02267 2.02267"/><line x1="281.7002" y1="749" x2="282.7002" y2="749" fill="none" stroke="#666"/><line x1="129" y1="729" x2="130" y2="729" fill="none" stroke="#666"/><line x1="132.01123" y1="729" x2="307.99414" y2="729" fill="none" stroke="#666" stroke-dasharray="2.01124 2.01124"/><line x1="309" y1="729" x2="310" y2="729" fill="none" stroke="#666"/><line x1="129" y1="709" x2="130" y2="709" fill="none" stroke="#666"/><line x1="132.00293" y1="709" x2="335.29346" y2="709" fill="none" stroke="#666" stroke-dasharray="2.00286 2.00286"/><line x1="336.29492" y1="709" x2="337.29492" y2="709" fill="none" stroke="#666"/><line x1="129" y1="689" x2="130" y2="689" fill="none" stroke="#666"/><line x1="132.0083" y1="689" x2="367.99561" y2="689" fill="none" stroke="#666" stroke-dasharray="2.0084 2.0084"/><line x1="369" y1="689" x2="370" y2="689" fill="none" stroke="#666"/><line x1="129" y1="669" x2="130" y2="669" fill="none" stroke="#666"/><line x1="132.00732" y1="669" x2="407.99658" y2="669" fill="none" stroke="#666" stroke-dasharray="2.00719 2.00719"/><line x1="409" y1="669" x2="410" y2="669" fill="none" stroke="#666"/><line x1="129" y1="649" x2="130" y2="649" fill="none" stroke="#666"/><line x1="132.00635" y1="649" x2="447.99707" y2="649" fill="none" stroke="#666" stroke-dasharray="2.00629 2.00629"/><line x1="449" y1="649" x2="450" y2="649" fill="none" stroke="#666"/><line x1="129" y1="629" x2="130" y2="629" fill="none" stroke="#666"/><line x1="132.00537" y1="629" x2="487.99707" y2="629" fill="none" stroke="#666" stroke-dasharray="2.00559 2.00559"/><line x1="489" y1="629" x2="490" y2="629" fill="none" stroke="#666"/><line x1="129" y1="609" x2="130" y2="609" fill="none" stroke="#666"/><line x1="132.00488" y1="609" x2="527.99756" y2="609" fill="none" stroke="#666" stroke-dasharray="2.00503 2.00503"/><line x1="529" y1="609" x2="530" y2="609" fill="none" stroke="#666"/><line x1="129" y1="589" x2="130" y2="589" fill="none" stroke="#666"/><line x1="132.00439" y1="589" x2="567.99756" y2="589" fill="none" stroke="#666" stroke-dasharray="2.00457 2.00457"/><line x1="569" y1="589" x2="570" y2="589" fill="none" stroke="#666"/><line x1="129" y1="569" x2="130" y2="569" fill="none" stroke="#666"/><line x1="132.00439" y1="569" x2="607.99805" y2="569" fill="none" stroke="#666" stroke-dasharray="2.00418 2.00418"/><line x1="609" y1="569" x2="610" y2="569" fill="none" stroke="#666"/><line x1="170" y1="829" x2="170" y2="828" fill="none" stroke="#666"/><line x1="170" y1="826" x2="170" y2="811" fill="none" stroke="#666" stroke-dasharray="2 2"/><line x1="170" y1="810" x2="170" y2="809" fill="none" stroke="#666"/><line x1="210" y1="829" x2="210" y2="828" fill="none" stroke="#666"/><line x1="210" y1="826" x2="210" y2="791" fill="none" stroke="#666" stroke-dasharray="2 2"/><line x1="210" y1="790" x2="210" y2="789" fill="none" stroke="#666"/><line x1="250" y1="829" x2="250" y2="828" fill="none" stroke="#666"/><line x1="250" y1="826" x2="250" y2="771" fill="none" stroke="#666" stroke-dasharray="2 2"/><line x1="250" y1="770" x2="250" y2="769" fill="none" stroke="#666"/><line x1="282.7002" y1="829" x2="282.7002" y2="828" fill="none" stroke="#666"/><line x1="282.7002" y1="826" x2="282.7002" y2="751" fill="none" stroke="#666" stroke-dasharray="2 2"/><line x1="282.7002" y1="750" x2="282.7002" y2="749" fill="none" stroke="#666"/><line x1="310" y1="829" x2="310" y2="828" fill="none" stroke="#666"/><line x1="310" y1="826" x2="310" y2="731" fill="none" stroke="#666" stroke-dasharray="2 2"/><line x1="310" y1="730" x2="310" y2="729" fill="none" stroke="#666"/><line x1="337.29492" y1="829" x2="337.29492" y2="828" fill="none" stroke="#666"/><line x1="337.29492" y1="826" x2="337.29492" y2="711" fill="none" stroke="#666" stroke-dasharray="2 2"/><line x1="337.29492" y1="710" x2="337.29492" y2="709" fill="none" stroke="#666"/><line x1="370" y1="829" x2="370" y2="828" fill="none" stroke="#666"/><line x1="370" y1="826" x2="370" y2="691" fill="none" stroke="#666" stroke-dasharray="2 2"/><line x1="370" y1="690" x2="370" y2="689" fill="none" stroke="#666"/><line x1="410" y1="829" x2="410" y2="828" fill="none" stroke="#666"/><line x1="410" y1="826" x2="410" y2="671" fill="none" stroke="#666" stroke-dasharray="2 2"/><line x1="410" y1="670" x2="410" y2="669" fill="none" stroke="#666"/><line x1="450" y1="829" x2="450" y2="828" fill="none" stroke="#666"/><line x1="450" y1="826" x2="450" y2="651" fill="none" stroke="#666" stroke-dasharray="2 2"/><line x1="450" y1="650" x2="450" y2="649" fill="none" stroke="#666"/><line x1="490" y1="829" x2="490" y2="828" fill="none" stroke="#666"/><line x1="490" y1="826" x2="490" y2="631" fill="none" stroke="#666" stroke-dasharray="2 2"/><line x1="490" y1="630" x2="490" y2="629" fill="none" stroke="#666"/><line x1="530" y1="829" x2="530" y2="828" fill="none" stroke="#666"/><line x1="530" y1="826" x2="530" y2="611" fill="none" stroke="#666" stroke-dasharray="2 2"/><line x1="530" y1="610" x2="530" y2="609" fill="none" stroke="#666"/><line x1="610" y1="829" x2="610" y2="828" fill="none" stroke="#666"/><line x1="610" y1="826" x2="610" y2="571" fill="none" stroke="#666" stroke-dasharray="2 2"/><line x1="610" y1="570" x2="610" y2="569" fill="none" stroke="#666"/><line x1="570" y1="829" x2="570" y2="828" fill="none" stroke="#666"/><line x1="570" y1="826" x2="570" y2="591" fill="none" stroke="#666" stroke-dasharray="2 2"/><line x1="570" y1="590" x2="570" y2="589" fill="none" stroke="#666"/><line x1="130" y1="380" x2="650" y2="120" fill="none" stroke="#8a5e34"/><line x1="130" y1="829" x2="650" y2="569" fill="none" stroke="#8a5e34"/><path d="M650,100,530,160c-40,20-80,60-120,80L130,380" fill="none" stroke="#e9a460" stroke-width="1.4"/><path d="M650,549,370,689c-40,20-80,60-120,80L130,829" fill="none" stroke="#e9a460" stroke-width="1.4"/></svg>