<svg xmlns="http://www.w3.org/2000/svg" viewBox="0 0 800 820"><title>envelope-ab</title><rect x="0.5" y="0.5" width="799" height="819" rx="3.5" ry="3.5" fill="#141414"/><path d="M796,1a3.00333,3.00333,0,0,1,3,3V816a3.00331,3.00331,0,0,1-3,3H4a3.00331,3.00331,0,0,1-3-3V4A3.00333,3.00333,0,0,1,4,1H796m0-1H4A4,4,0,0,0,0,4V816a3.99988,3.99988,0,0,0,4,4H796a3.99988,3.99988,0,0,0,4-4V4a4,4,0,0,0-4-4Z" fill="#666"/><rect x="10" y="40" width="780" height="360"/><rect x="10" y="450" width="780" height="360"/><line x1="770" y1="450" x2="770" y2="810" fill="none" stroke="#202020"/><line x1="750" y1="450" x2="750" y2="810" fill="none" stroke="#202020"/><line x1="730" y1="450" x2="730" y2="810" fill="none" stroke="#202020"/><line x1="710" y1="450" x2="710" y2="810" fill="none" stroke="#202020"/><line x1="690" y1="450" x2="690" y2="810" fill="none" stroke="#202020"/><line x1="670" y1="450" x2="670" y2="810" fill="none" stroke="#202020"/><line x1="650" y1="450" x2="650" y2="810" fill="none" stroke="#202020"/><line x1="630" y1="450" x2="630" y2="810" fill="none" stroke="#202020"/><line x1="610" y1="450" x2="610" y2="810" fill="none" stroke="#202020"/><line x1="590" y1="450" x2="590" y2="810" fill="none" stroke="#202020"/><line x1="570" y1="450" x2="570" y2="810" fill="none" stroke="#202020"/><line x1="550" y1="450" x2="550" y2="810" fill="none" stroke="#202020"/><line x1="530" y1="450" x2="530" y2="810" fill="none" stroke="#202020"/><line x1="510" y1="450" x2="510" y2="810" fill="none" stroke="#202020"/><line x1="490" y1="450" x2="490" y2="810" fill="none" stroke="#202020"/><line x1="470" y1="450" x2="470" y2="810" fill="none" stroke="#202020"/><line x1="450" y1="450" x2="450" y2="810" fill="none" stroke="#202020"/><line x1="430" y1="450" x2="430" y2="810" fill="none" stroke="#202020"/><line x1="410" y1="450" x2="410" y2="810" fill="none" stroke="#202020"/><line x1="390" y1="450" x2="390" y2="810" fill="none" stroke="#202020"/><line x1="370" y1="450" x2="370" y2="810" fill="none" stroke="#202020"/><line x1="350" y1="450" x2="350" y2="810" fill="none" stroke="#202020"/><line x1="330" y1="450" x2="330" y2="810" fill="none" stroke="#202020"/><line x1="310" y1="450" x2="310" y2="810" fill="none" stroke="#202020"/><line x1="290" y1="450" x2="290" y2="810" fill="none" stroke="#202020"/><line x1="270" y1="450" x2="270" y2="810" fill="none" stroke="#202020"/><line x1="250" y1="450" x2="250" y2="810" fill="none" stroke="#202020"/><line x1="230" y1="450" x2="230" y2="810" fill="none" stroke="#202020"/><line x1="210" y1="450" x2="210" y2="810" fill="none" stroke="#202020"/><line x1="190" y1="450" x2="190" y2="810" fill="none" stroke="#202020"/><line x1="170" y1="450" x2="170" y2="810" fill="none" stroke="#202020"/><line x1="150" y1="450" x2="150" y2="810" fill="none" stroke="#202020"/><line x1="130" y1="450" x2="130" y2="810" fill="none" stroke="#202020"/><line x1="110" y1="450" x2="110" y2="810" fill="none" stroke="#202020"/><line x1="90" y1="450" x2="90" y2="810" fill="none" stroke="#202020"/><line x1="70" y1="450" x2="70" y2="810" fill="none" stroke="#202020"/><line x1="50" y1="450" x2="50" y2="810" fill="none" stroke="#202020"/><line x1="30" y1="450" x2="30" y2="810" fill="none" stroke="#202020"/><line x1="790" y1="770" x2="10" y2="770" fill="none" stroke="#202020"/><line x1="790" y1="790" x2="10" y2="790" fill="none" stroke="#202020"/><line x1="790" y1="750" x2="10" y2="750" fill="none" stroke="#202020"/><line x1="790" y1="730" x2="10" y2="730" fill="none" stroke="#202020"/><line x1="790" y1="710" x2="10" y2="710" fill="none" stroke="#202020"/><line x1="790" y1="690" x2="10" y2="690" fill="none" stroke="#202020"/><line x1="790" y1="670" x2="10" y2="670" fill="none" stroke="#202020"/><line x1="790" y1="650" x2="10" y2="650" fill="none" stroke="#202020"/><line x1="790" y1="630" x2="10" y2="630" fill="none" stroke="#202020"/><line x1="790" y1="610" x2="10" y2="610" fill="none" stroke="#202020"/><line x1="790" y1="590" x2="10" y2="590" fill="none" stroke="#202020"/><line x1="790" y1="570" x2="10" y2="570" fill="none" stroke="#202020"/><line x1="790" y1="550" x2="10" y2="550" fill="none" stroke="#202020"/><line x1="790" y1="530" x2="10" y2="530" fill="none" stroke="#202020"/><line x1="790" y1="510" x2="10" y2="510" fill="none" stroke="#202020"/><line x1="790" y1="490" x2="10" y2="490" fill="none" stroke="#202020"/><line x1="790" y1="470" x2="10" y2="470" fill="none" stroke="#202020"/><line x1="770" y1="40" x2="770" y2="400" fill="none" stroke="#202020"/><line x1="750" y1="40" x2="750" y2="400" fill="none" stroke="#202020"/><line x1="730" y1="40" x2="730" y2="400" fill="none" stroke="#202020"/><line x1="710" y1="40" x2="710" y2="400" fill="none" stroke="#202020"/><line x1="690" y1="40" x2="690" y2="400" fill="none" stroke="#202020"/><line x1="670" y1="40" x2="670" y2="400" fill="none" stroke="#202020"/><line x1="650" y1="40" x2="650" y2="400" fill="none" stroke="#202020"/><line x1="630" y1="40" x2="630" y2="400" fill="none" stroke="#202020"/><line x1="610" y1="40" x2="610" y2="400" fill="none" stroke="#202020"/><line x1="590" y1="40" x2="590" y2="400" fill="none" stroke="#202020"/><line x1="570" y1="40" x2="570" y2="400" fill="none" stroke="#202020"/><line x1="550" y1="40" x2="550" y2="400" fill="none" stroke="#202020"/><line x1="530" y1="40" x2="530" y2="400" fill="none" stroke="#202020"/><line x1="510" y1="40" x2="510" y2="400" fill="none" stroke="#202020"/><line x1="490" y1="40" x2="490" y2="400" fill="none" stroke="#202020"/><line x1="470" y1="40" x2="470" y2="400" fill="none" stroke="#202020"/><line x1="450" y1="40" x2="450" y2="400" fill="none" stroke="#202020"/><line x1="430" y1="40" x2="430" y2="400" fill="none" stroke="#202020"/><line x1="410" y1="40" x2="410" y2="400" fill="none" stroke="#202020"/><line x1="390" y1="40" x2="390" y2="400" fill="none" stroke="#202020"/><line x1="370" y1="40" x2="370" y2="400" fill="none" stroke="#202020"/><line x1="350" y1="40" x2="350" y2="400" fill="none" stroke="#202020"/><line x1="330" y1="40" x2="330" y2="400" fill="none" stroke="#202020"/><line x1="310" y1="40" x2="310" y2="400" fill="none" stroke="#202020"/><line x1="290" y1="40" x2="290" y2="400" fill="none" stroke="#202020"/><line x1="270" y1="40" x2="270" y2="400" fill="none" stroke="#202020"/><line x1="250" y1="40" x2="250" y2="400" fill="none" stroke="#202020"/><line x1="230" y1="40" x2="230" y2="400" fill="none" stroke="#202020"/><line x1="210" y1="40" x2="210" y2="400" fill="none" stroke="#202020"/><line x1="190" y1="40" x2="190" y2="400" fill="none" stroke="#202020"/><line x1="170" y1="40" x2="170" y2="400" fill="none" stroke="#202020"/><line x1="150" y1="40" x2="150" y2="400" fill="none" stroke="#202020"/><line x1="130" y1="40" x2="130" y2="400" fill="none" stroke="#202020"/><line x1="110" y1="40" x2="110" y2="400" fill="none" stroke="#202020"/><line x1="90" y1="40" x2="90" y2="400" fill="none" stroke="#202020"/><line x1="70" y1="40" x2="70" y2="400" fill="none" stroke="#202020"/><line x1="50" y1="40" x2="50" y2="400" fill="none" stroke="#202020"/><line x1="30" y1="40" x2="30" y2="400" fill="none" stroke="#202020"/><line x1="790" y1="360" x2="10" y2="360" fill="none" stroke="#202020"/><line x1="790" y1="380" x2="10" y2="380" fill="none" stroke="#202020"/><line x1="790" y1="340" x2="10" y2="340" fill="none" stroke="#202020"/><line x1="790" y1="320" x2="10" y2="320" fill="none" stroke="#202020"/><line x1="790" y1="300" x2="10" y2="300" fill="none" stroke="#202020"/><line x1="790" y1="280" x2="10" y2="280" fill="none" stroke="#202020"/><line x1="790" y1="260" x2="10" y2="260" fill="none" stroke="#202020"/><line x1="790" y1="240" x2="10" y2="240" fill="none" stroke="#202020"/><line x1="790" y1="220" x2="10" y2="220" fill="none" stroke="#202020"/><line x1="790" y1="200" x2="10" y2="200" fill="none" stroke="#202020"/><line x1="790" y1="180" x2="10" y2="180" fill="none" stroke="#202020"/><line x1="790" y1="160" x2="10" y2="160" fill="none" stroke="#202020"/><line x1="790" y1="140" x2="10" y2="140" fill="none" stroke="#202020"/><line x1="790" y1="120" x2="10" y2="120" fill="none" stroke="#202020"/><line x1="790" y1="100" x2="10" y2="100" fill="none" stroke="#202020"/><line x1="790" y1="80" x2="10" y2="80" fill="none" stroke="#202020"/><line x1="790" y1="60" x2="10" y2="60" fill="none" stroke="#202020"/><rect x="10" y="420" width="780" height="30" fill="#363636"/><rect x="10" y="10" width="780" height="30" fill="#363636"/><path d="M250.21582,428.18848H257.022v1.26074H251.71v3.709h4.4834v1.27832H251.71v4.28516h5.49219V440h-6.98633Z" fill="#cacaca"/><path d="M259.55762,431.249h1.22461l.126,1.26075h.05371a4.12518,4.12518,0,0,1,2.93506-1.47657c1.83643,0,2.66455,1.18848,2.66455,3.4209V440H265.085v-5.34766c0-1.63867-.50391-2.34082-1.65625-2.34082-.90039,0-1.51269.46875-2.39453,1.35059V440h-1.47656Z" fill="#cacaca"/><path d="M268.14307,431.249h1.53076l1.65625,4.96973c.25195.86426.54,1.74707.81054,2.5752h.07178c.252-.82813.54-1.71094.79248-2.5752l1.65625-4.96973h1.4585L273.02246,440H271.294Z" fill="#cacaca"/><path d="M277.08936,435.64258c0-2.86231,1.92626-4.60938,3.92529-4.60938,2.23242,0,3.49316,1.60254,3.49316,4.10547a5.7663,5.7663,0,0,1-.0542.84571h-5.90576a2.90175,2.90175,0,0,0,2.917,3.043,3.95529,3.95529,0,0,0,2.17871-.68359l.522.97168a5.21093,5.21093,0,0,1-2.88086.90039C278.94385,440.21582,277.08936,438.50586,277.08936,435.64258Zm6.12158-.71973c0-1.76465-.792-2.71875-2.16016-2.71875a2.7027,2.7027,0,0,0-2.521,2.71875Z" fill="#cacaca"/><path d="M286.665,438.23535V427.17969h1.47656v11.16406c0,.46777.19824.64844.41406.64844a1.236,1.236,0,0,0,.32422-.03614l.19824,1.11622a1.99346,1.99346,0,0,1-.84667.14355C287.11523,440.21582,286.665,439.51367,286.665,438.23535Z" fill="#cacaca"/><path d="M290.60693,435.64258c0-2.93457,1.90869-4.60938,4.05127-4.60938s4.05127,1.67481,4.05127,4.60938c0,2.89941-1.90869,4.57324-4.05127,4.57324S290.60693,438.542,290.60693,435.64258Zm6.57178,0c0-2.0166-1.00781-3.38477-2.52051-3.38477-1.49463,0-2.5205,1.36817-2.5205,3.38477,0,1.999,1.02587,3.34961,2.5205,3.34961C296.1709,438.99219,297.17871,437.6416,297.17871,435.64258Z" fill="#cacaca"/><path d="M301.01074,431.249h1.22461l.126,1.00879h.0542a4.52809,4.52809,0,0,1,2.79052-1.22461c2.251,0,3.457,1.74707,3.457,4.46582,0,2.97071-1.78223,4.7168-3.78125,4.7168a4.05909,4.05909,0,0,1-2.43067-1.00781l.03613,1.53027v2.95313h-1.47656Zm6.12207,4.25c0-1.92675-.64843-3.22363-2.30469-3.22363a3.6859,3.6859,0,0,0-2.34082,1.18848v4.59179a3.46407,3.46407,0,0,0,2.14258.918C306.07031,438.97363,307.13281,437.65918,307.13281,435.499Z" fill="#cacaca"/><path d="M310.35254,435.64258c0-2.86231,1.92676-4.60938,3.92529-4.60938,2.23291,0,3.49317,1.60254,3.49317,4.10547a5.70043,5.70043,0,0,1-.0542.84571H311.811a2.902,2.902,0,0,0,2.917,3.043,3.95534,3.95534,0,0,0,2.17871-.68359l.522.97168a5.20832,5.20832,0,0,1-2.88086.90039C312.207,440.21582,310.35254,438.50586,310.35254,435.64258Zm6.12207-.71973c0-1.76465-.79248-2.71875-2.16065-2.71875a2.70271,2.70271,0,0,0-2.521,2.71875Z" fill="#cacaca"/><path d="M326.10352,428.18848h1.69238L331.793,440h-1.60254l-1.11621-3.60156H324.771L323.63672,440h-1.53027Zm-.95459,7.0039h3.54736l-.55859-1.80078c-.43165-1.31348-.81006-2.61035-1.188-3.97851h-.07227c-.35986,1.36816-.73779,2.665-1.17041,3.97851Z" fill="#cacaca"/><path d="M336.02,436.93945c0-1.585,1.11621-2.57519,2.32275-3.40332a6.34779,6.34779,0,0,1-.77441-2.77246,2.67223,2.67223,0,0,1,2.73682-2.791,2.17873,2.17873,0,0,1,2.32275,2.34082c0,1.54785-1.35059,2.53808-2.665,3.49316a15.36,15.36,0,0,0,2.98926,3.3125,10.29692,10.29692,0,0,0,1.65625-3.49316h1.38672a13.43317,13.43317,0,0,1-2.0708,4.23144,7.83849,7.83849,0,0,0,2.21484,1.13477l-.396,1.22363a9.24957,9.24957,0,0,1-2.71875-1.35059,4.96145,4.96145,0,0,1-3.40332,1.35059A3.3,3.3,0,0,1,336.02,436.93945Zm6.01367,1.13379a17.38592,17.38592,0,0,1-3.09668-3.51074,3.10941,3.10941,0,0,0-1.47656,2.28613,2.17763,2.17763,0,0,0,2.32275,2.17871A3.44558,3.44558,0,0,0,342.03369,438.07324Zm-2.62842-5.25781c1.08008-.71973,2.01661-1.44043,2.01661-2.48438,0-.68457-.32422-1.29589-1.1167-1.29589a1.53468,1.53468,0,0,0-1.4585,1.71A4.95818,4.95818,0,0,0,339.40527,432.81543Z" fill="#cacaca"/><path d="M351.626,428.18848h3.51123c2.395,0,4.05127.81054,4.05127,2.88086a2.585,2.585,0,0,1-1.72852,2.57519v.07129a2.718,2.718,0,0,1,2.4126,2.82715c0,2.32226-1.83643,3.457-4.48291,3.457H351.626Zm3.24121,5.02343c2.0166,0,2.84472-.73828,2.84472-1.94433,0-1.36817-.936-1.89063-2.77246-1.89063h-1.81884v3.835Zm.30615,5.59961c2.03467,0,3.22314-.73828,3.22314-2.32226,0-1.459-1.15234-2.125-3.22314-2.125h-2.05273v4.44726Z" fill="#cacaca"/><path d="M364.92773,434.92285h4.14161v1.13379h-4.14161Z" fill="#cacaca"/><path d="M374.41406,430.67285a3.49746,3.49746,0,0,1,1.90821-3.2041l.43212.70215a2.47073,2.47073,0,0,0-1.36865,2.23242.4878.4878,0,0,1,.16211-.01855.9072.9072,0,0,1,.95459.91894.91707.91707,0,0,1-.95459.99024C374.82812,432.294,374.41406,431.71777,374.41406,430.67285Zm3.18653,0a3.497,3.497,0,0,1,1.90869-3.2041l.43213.70215a2.47112,2.47112,0,0,0-1.36817,2.23242.48211.48211,0,0,1,.16211-.01855.90707.90707,0,0,1,.9541.91894.91721.91721,0,0,1-.9541.99024C378.01465,432.294,377.60059,431.71777,377.60059,430.67285Z" fill="#cacaca"/><path d="M382.67578,428.18848h6.80615v1.26074h-5.31152v3.709h4.48291v1.27832h-4.48291v4.28516h5.4917V440h-6.98633Z" fill="#cacaca"/><path d="M392.01758,438.23535V427.17969h1.47656v11.16406c0,.46777.19824.64844.41406.64844a1.23788,1.23788,0,0,0,.32422-.03614l.19824,1.11622a1.99348,1.99348,0,0,1-.84668.14355C392.46777,440.21582,392.01758,439.51367,392.01758,438.23535Z" fill="#cacaca"/><path d="M395.959,435.64258c0-2.86231,1.92676-4.60938,3.92579-4.60938,2.23242,0,3.49316,1.60254,3.49316,4.10547a5.69267,5.69267,0,0,1-.05469.84571H397.418a2.90175,2.90175,0,0,0,2.917,3.043,3.95531,3.95531,0,0,0,2.17871-.68359l.52149.97168a5.20835,5.20835,0,0,1-2.88086.90039C397.814,440.21582,395.959,438.50586,395.959,435.64258Zm6.12207-.71973c0-1.76465-.792-2.71875-2.16015-2.71875a2.70343,2.70343,0,0,0-2.52149,2.71875Z" fill="#cacaca"/><path d="M404.36475,431.249h1.53076l1.65625,4.96973c.252.86426.54,1.74707.81054,2.5752h.07129c.25245-.82813.54053-1.71094.793-2.5752l1.65625-4.96973h1.458L409.24414,440h-1.72852Z" fill="#cacaca"/><path d="M413.13086,437.73145c0-1.90918,1.63867-2.86329,5.36523-3.27735,0-1.11621-.35937-2.19629-1.7998-2.19629a4.75475,4.75475,0,0,0-2.61133.93653l-.57617-1.02637a6.49523,6.49523,0,0,1,3.43945-1.13477c2.14258,0,3.043,1.42285,3.043,3.60157V440H418.7666l-.126-1.04395h-.05419a4.67,4.67,0,0,1-2.89893,1.25977A2.381,2.381,0,0,1,413.13086,437.73145Zm5.36523.126v-2.43066c-2.9165.36035-3.9248,1.08008-3.9248,2.19629,0,.99023.68457,1.40429,1.54883,1.40429A3.54631,3.54631,0,0,0,418.49609,437.85742Z" fill="#cacaca"/><path d="M422.74316,437.29883v-4.84278h-1.29589v-1.11621l1.36816-.09082.17969-2.44824h1.24267V431.249h2.35889v1.207h-2.35889v4.86133c0,1.08008.34229,1.69239,1.3501,1.69239a3.16812,3.16812,0,0,0,.99072-.23438l.28809,1.11621a5.4,5.4,0,0,1-1.62061.32422C423.37354,440.21582,422.74316,439.02734,422.74316,437.29883Z" fill="#cacaca"/><path d="M427.6748,435.64258c0-2.86231,1.92676-4.60938,3.92579-4.60938,2.23242,0,3.49316,1.60254,3.49316,4.10547a5.69267,5.69267,0,0,1-.05469.84571h-5.90527a2.90175,2.90175,0,0,0,2.917,3.043,3.95531,3.95531,0,0,0,2.17871-.68359l.52149.97168a5.20835,5.20835,0,0,1-2.88086.90039C429.52979,440.21582,427.6748,438.50586,427.6748,435.64258Zm6.12208-.71973c0-1.76465-.792-2.71875-2.16016-2.71875a2.70343,2.70343,0,0,0-2.52149,2.71875Z" fill="#cacaca"/><path d="M443.44336,429.44922h-3.56445v-1.26074h8.64257v1.26074h-3.56543V440h-1.51269Z" fill="#cacaca"/><path d="M448.44678,434.92285h4.14111v1.13379h-4.14111Z" fill="#cacaca"/><path d="M457.35742,428.18848h1.69238L463.04736,440h-1.60254l-1.1167-3.60156h-4.30273L454.89062,440h-1.53027Zm-.9541,7.0039h3.54688l-.55762-1.80078c-.43262-1.31348-.81055-2.61035-1.18848-3.97851h-.07226c-.36036,1.36816-.73829,2.665-1.17041,3.97851Z" fill="#cacaca"/><path d="M463.22461,431.55566a2.4955,2.4955,0,0,0,1.35059-2.251.38939.38939,0,0,1-.14454.01855.89328.89328,0,0,1-.9541-.90039.92249.92249,0,0,1,.9541-1.00879c.70215,0,1.13477.59473,1.13477,1.63867a3.48816,3.48816,0,0,1-1.92676,3.18653Zm3.18652,0a2.4955,2.4955,0,0,0,1.35059-2.251.38427.38427,0,0,1-.144.01855.89342.89342,0,0,1-.95459-.90039.92285.92285,0,0,1,.95459-1.00879c.70263,0,1.13427.59473,1.13427,1.63867a3.48731,3.48731,0,0,1-1.92675,3.18653Z" fill="#cacaca"/><path d="M474.97852,428.18848h3.36718c2.64649,0,4.4292.88183,4.4292,3.47461,0,2.48535-1.76416,3.65527-4.35693,3.65527h-1.94483V440h-1.49462Zm3.25878,5.90527c2.05274,0,3.043-.75586,3.043-2.43066,0-1.71-1.04394-2.26856-3.11474-2.26856h-1.69239v4.69922Z" fill="#cacaca"/><path d="M483.708,437.73145c0-1.90918,1.63867-2.86329,5.36621-3.27735,0-1.11621-.36035-2.19629-1.80078-2.19629a4.75172,4.75172,0,0,0-2.61084.93653l-.57617-1.02637a6.49187,6.49187,0,0,1,3.439-1.13477c2.14258,0,3.043,1.42285,3.043,3.60157V440h-1.22461l-.126-1.04395h-.05371a4.67126,4.67126,0,0,1-2.89941,1.25977A2.381,2.381,0,0,1,483.708,437.73145Zm5.36621.126v-2.43066c-2.917.36035-3.92578,1.08008-3.92578,2.19629,0,.99023.68457,1.40429,1.54883,1.40429A3.54933,3.54933,0,0,0,489.07422,437.85742Z" fill="#cacaca"/><path d="M493.32031,431.249h1.22461l.126,1.585h.05371A2.99384,2.99384,0,0,1,497.21,431.0332a2.17158,2.17158,0,0,1,.93555.17969l-.28809,1.29688a2.45082,2.45082,0,0,0-.8457-.14454c-.73828,0-1.62061.541-2.21484,2.01758V440h-1.47657Z" fill="#cacaca"/><path d="M498.59424,437.73145c0-1.90918,1.63818-2.86329,5.36572-3.27735,0-1.11621-.36035-2.19629-1.80078-2.19629a4.75151,4.75151,0,0,0-2.61035.93653l-.57617-1.02637a6.48863,6.48863,0,0,1,3.43847-1.13477c2.14258,0,3.043,1.42285,3.043,3.60157V440H504.23l-.12646-1.04395h-.05372a4.671,4.671,0,0,1-2.89843,1.25977A2.38093,2.38093,0,0,1,498.59424,437.73145Zm5.36572.126v-2.43066c-2.917.36035-3.92529,1.08008-3.92529,2.19629,0,.99023.68408,1.40429,1.54834,1.40429A3.54836,3.54836,0,0,0,503.96,437.85742Z" fill="#cacaca"/><path d="M508.20605,431.249h1.22461l.126,1.26075h.05371a3.84773,3.84773,0,0,1,2.71875-1.47657,2.29609,2.29609,0,0,1,2.41309,1.67481,4.134,4.134,0,0,1,2.88086-1.67481c1.80078,0,2.665,1.18848,2.665,3.4209V440h-1.47657v-5.34766c0-1.63867-.52246-2.34082-1.6206-2.34082a3.212,3.212,0,0,0-2.19678,1.35059V440h-1.47656v-5.34766c0-1.63867-.522-2.34082-1.63867-2.34082a3.28453,3.28453,0,0,0-2.19629,1.35059V440h-1.47657Z" fill="#cacaca"/><path d="M522.47949,435.64258c0-2.86231,1.92676-4.60938,3.92578-4.60938,2.23243,0,3.49317,1.60254,3.49317,4.10547a5.694,5.694,0,0,1-.05469.84571h-5.90527a2.90175,2.90175,0,0,0,2.917,3.043,3.95534,3.95534,0,0,0,2.17871-.68359l.52148.97168a5.20832,5.20832,0,0,1-2.88086.90039C524.33447,440.21582,522.47949,438.50586,522.47949,435.64258Zm6.12207-.71973c0-1.76465-.792-2.71875-2.16015-2.71875a2.70343,2.70343,0,0,0-2.52149,2.71875Z" fill="#cacaca"/><path d="M532.12793,437.29883v-4.84278H530.832v-1.11621l1.36817-.09082.17968-2.44824h1.24268V431.249h2.35889v1.207h-2.35889v4.86133c0,1.08008.34228,1.69239,1.3501,1.69239a3.16819,3.16819,0,0,0,.99072-.23438l.28808,1.11621a5.4,5.4,0,0,1-1.6206.32422C532.7583,440.21582,532.12793,439.02734,532.12793,437.29883Z" fill="#cacaca"/><path d="M537.05957,435.64258c0-2.86231,1.92676-4.60938,3.92578-4.60938,2.23242,0,3.49317,1.60254,3.49317,4.10547a5.694,5.694,0,0,1-.05469.84571h-5.90528a2.90175,2.90175,0,0,0,2.917,3.043,3.95534,3.95534,0,0,0,2.17871-.68359l.52148.97168a5.20832,5.20832,0,0,1-2.88086.90039C538.91455,440.21582,537.05957,438.50586,537.05957,435.64258Zm6.12207-.71973c0-1.76465-.792-2.71875-2.16016-2.71875A2.70343,2.70343,0,0,0,538.5,434.92285Z" fill="#cacaca"/><path d="M546.63574,431.249h1.22461l.126,1.585H548.04a2.99384,2.99384,0,0,1,2.48535-1.80078,2.17158,2.17158,0,0,1,.93555.17969l-.28809,1.29688a2.45082,2.45082,0,0,0-.8457-.14454c-.73828,0-1.62061.541-2.21485,2.01758V440h-1.47656Z" fill="#cacaca"/><path d="M345.62354,18.18848h6.80615v1.26074h-5.31153v3.709h4.4834v1.27832h-4.4834v4.28516h5.49122V30h-6.98584Z" fill="#cacaca"/><path d="M354.96533,21.249h1.22412l.126,1.26075h.0542a4.12605,4.12605,0,0,1,2.93506-1.47657c1.83642,0,2.665,1.18848,2.665,3.4209V30h-1.47657V24.65234c0-1.63867-.50439-2.34082-1.65673-2.34082-.89991,0-1.51221.46875-2.39454,1.35059V30h-1.47656Z" fill="#cacaca"/><path d="M363.55078,21.249h1.53027l1.65674,4.96973c.25244.86426.54053,1.74707.81006,2.5752h.07227c.252-.82813.54-1.71094.792-2.5752l1.65674-4.96973h1.45849L368.43066,30h-1.72851Z" fill="#cacaca"/><path d="M372.49707,25.64258c0-2.86231,1.92676-4.60938,3.92481-4.60938,2.23291,0,3.49316,1.60254,3.49316,4.10547a5.70685,5.70685,0,0,1-.05371.84571h-5.90625a2.90231,2.90231,0,0,0,2.917,3.043,3.95531,3.95531,0,0,0,2.17871-.68359l.52246.97168a5.20963,5.20963,0,0,1-2.88086.90039C374.35156,30.21582,372.49707,28.50586,372.49707,25.64258Zm6.12207-.71973c0-1.76465-.793-2.71875-2.16113-2.71875a2.702,2.702,0,0,0-2.52051,2.71875Z" fill="#cacaca"/><path d="M382.07324,28.23535V17.17969h1.47656V28.34375c0,.46777.19776.64844.41407.64844a1.23792,1.23792,0,0,0,.32422-.03614l.19775,1.11622a1.991,1.991,0,0,1-.84619.14355C382.52344,30.21582,382.07324,29.51367,382.07324,28.23535Z" fill="#cacaca"/><path d="M386.01465,25.64258c0-2.93457,1.9082-4.60938,4.05078-4.60938s4.05176,1.67481,4.05176,4.60938c0,2.89941-1.90918,4.57324-4.05176,4.57324S386.01465,28.542,386.01465,25.64258Zm6.57178,0c0-2.0166-1.00831-3.38477-2.521-3.38477-1.49414,0-2.52051,1.36817-2.52051,3.38477,0,1.999,1.02637,3.34961,2.52051,3.34961C391.57812,28.99219,392.58643,27.6416,392.58643,25.64258Z" fill="#cacaca"/><path d="M396.419,21.249h1.22363l.12646,1.00879h.0542a4.52927,4.52927,0,0,1,2.79053-1.22461c2.25049,0,3.457,1.74707,3.457,4.46582,0,2.97071-1.78271,4.7168-3.78076,4.7168a4.05555,4.05555,0,0,1-2.43066-1.00781l.03564,1.53027v2.95313H396.419Zm6.12109,4.25c0-1.92675-.64746-3.22363-2.30469-3.22363a3.686,3.686,0,0,0-2.34033,1.18848v4.59179a3.464,3.464,0,0,0,2.14258.918C401.478,28.97363,402.54,27.65918,402.54,25.499Z" fill="#cacaca"/><path d="M405.76074,25.64258c0-2.86231,1.92627-4.60938,3.92481-4.60938,2.23242,0,3.49316,1.60254,3.49316,4.10547a5.70043,5.70043,0,0,1-.0542.84571h-5.90576a2.902,2.902,0,0,0,2.917,3.043,3.95529,3.95529,0,0,0,2.17871-.68359l.522.97168a5.20965,5.20965,0,0,1-2.88086.90039C407.61523,30.21582,405.76074,28.50586,405.76074,25.64258Zm6.1211-.71973c0-1.76465-.792-2.71875-2.16016-2.71875a2.702,2.702,0,0,0-2.52051,2.71875Z" fill="#cacaca"/><path d="M421.51074,18.18848h1.69238L427.20068,30h-1.60254l-1.11669-3.60156h-4.30274L419.044,30h-1.53028Zm-.9541,7.0039h3.54688l-.55762-1.80078c-.43262-1.31348-.81055-2.61035-1.18848-3.97851h-.07226c-.36036,1.36816-.73828,2.665-1.17041,3.97851Z" fill="#cacaca"/><path d="M431.42773,26.93945c0-1.585,1.11622-2.57519,2.32276-3.40332a6.35325,6.35325,0,0,1-.77393-2.77246,2.67156,2.67156,0,0,1,2.73633-2.791,2.17872,2.17872,0,0,1,2.32275,2.34082c0,1.54785-1.35009,2.53808-2.66455,3.49316a15.34516,15.34516,0,0,0,2.98877,3.3125A10.30657,10.30657,0,0,0,440.0166,23.626h1.38574a13.41119,13.41119,0,0,1-2.07031,4.23144,7.84492,7.84492,0,0,0,2.21485,1.13477l-.39649,1.22363a9.25528,9.25528,0,0,1-2.71875-1.35059,4.96114,4.96114,0,0,1-3.40283,1.35059A3.3,3.3,0,0,1,431.42773,26.93945Zm6.01368,1.13379a17.38531,17.38531,0,0,1-3.09668-3.51074,3.1108,3.1108,0,0,0-1.47657,2.28613,2.17763,2.17763,0,0,0,2.32276,2.17871A3.4456,3.4456,0,0,0,437.44141,28.07324Zm-2.62891-5.25781c1.08057-.71973,2.0166-1.44043,2.0166-2.48438,0-.68457-.32422-1.29589-1.11621-1.29589a1.53462,1.53462,0,0,0-1.458,1.71A4.9632,4.9632,0,0,0,434.8125,22.81543Z" fill="#cacaca"/><path d="M447.03418,18.18848h3.51074c2.39453,0,4.05078.81054,4.05078,2.88086a2.58442,2.58442,0,0,1-1.72851,2.57519v.07129a2.718,2.718,0,0,1,2.41308,2.82715c0,2.32226-1.83691,3.457-4.48339,3.457h-3.7627Zm3.24023,5.02343c2.01661,0,2.84522-.73828,2.84522-1.94433,0-1.36817-.936-1.89063-2.77295-1.89063h-1.81836v3.835Zm.30664,5.59961c2.03418,0,3.22266-.73828,3.22266-2.32226,0-1.459-1.15234-2.125-3.22266-2.125h-2.05273v4.44726Z" fill="#cacaca"/><path d="M224.14648,489.5l3.55323,10.5h-1.42432l-.99268-3.20117H221.457L220.44873,500h-1.36035l3.55322-10.5Zm.8003,6.22656-.49658-1.60058c-.38379-1.169-.71973-2.32129-1.05616-3.53809h-.064c-.32031,1.2168-.65625,2.36914-1.04053,3.53809l-.49609,1.60058Z" fill="#b0b0b0"/><path d="M229.05664,497.59863V493.293H227.9043v-.99219l1.21679-.08008.16016-2.17675h1.104v2.17675h2.09717V493.293h-2.09717v4.32226c0,.96.3042,1.50489,1.20069,1.50489a2.81231,2.81231,0,0,0,.88037-.209l.25635.99317a4.82446,4.82446,0,0,1-1.44092.28808C229.61719,500.19238,229.05664,499.13574,229.05664,497.59863Z" fill="#b0b0b0"/><path d="M234.145,497.59863V493.293h-1.15234v-.99219l1.2163-.08008.16016-2.17675h1.10449v2.17675h2.09668V493.293h-2.09668v4.32226c0,.96.3042,1.50489,1.2002,1.50489a2.812,2.812,0,0,0,.88086-.209l.25586.99317a4.81822,4.81822,0,0,1-1.44043.28808C234.70508,500.19238,234.145,499.13574,234.145,497.59863Z" fill="#b0b0b0"/><path d="M238.5127,497.9834c0-1.69727,1.45654-2.54492,4.77-2.91309,0-.99316-.32031-1.95312-1.60058-1.95312a4.22876,4.22876,0,0,0-2.3208.832l-.5127-.91211a5.77923,5.77923,0,0,1,3.05762-1.00879c1.90479,0,2.70508,1.26465,2.70508,3.20215V500H243.523l-.11231-.92871h-.04785a4.14986,4.14986,0,0,1-2.57715,1.12109A2.117,2.117,0,0,1,238.5127,497.9834Zm4.77.1123v-2.16113c-2.59326.32031-3.48974.96-3.48974,1.95215,0,.88086.6084,1.249,1.37695,1.249A3.1551,3.1551,0,0,0,243.28271,498.0957Z" fill="#b0b0b0"/><path d="M246.48047,496.126a3.76815,3.76815,0,0,1,3.7456-4.09766,3.22912,3.22912,0,0,1,2.273.91309l-.67187.86425a2.2812,2.2812,0,0,0-1.55274-.68847c-1.40869,0-2.4331,1.21679-2.4331,3.00879,0,1.77734.97607,2.97754,2.40088,2.97754a2.76213,2.76213,0,0,0,1.8247-.78418l.57618.87988a3.79134,3.79134,0,0,1-2.51319.99316C248.06543,500.19238,246.48047,498.70312,246.48047,496.126Z" fill="#b0b0b0"/><path d="M255.64941,488.60352v7.71484h.04786l3.31347-4.09766h1.45655l-2.60889,3.1211L260.81934,500h-1.44043l-2.273-3.74512-1.45655,1.69629V500h-1.29687V488.60352Z" fill="#b0b0b0"/><path d="M127.74609,479.5v9.36328h4.59375V490h-5.92236V479.5Z" fill="#b0b0b0"/><path d="M133.29736,486.126c0-2.54493,1.71241-4.09766,3.48926-4.09766,1.98486,0,3.10547,1.4248,3.10547,3.65039a5.05951,5.05951,0,0,1-.04834.75195h-5.25a2.58046,2.58046,0,0,0,2.59326,2.70508,3.51413,3.51413,0,0,0,1.93653-.6084l.46435.86426a4.6301,4.6301,0,0,1-2.561.80078A3.72016,3.72016,0,0,1,133.29736,486.126Zm3.52149-3.05664a2.4019,2.4019,0,0,0-2.24073,2.417h4.16114C138.73926,483.918,138.03516,483.06934,136.81885,483.06934Z" fill="#b0b0b0"/><path d="M142.12939,482.2207l1.47266,4.418c.22412.76856.48,1.55274.72022,2.28906h.064c.22412-.73632.48-1.5205.7041-2.28906l1.47266-4.418h1.29639L145.10645,490h-1.53663l-2.80127-7.7793Z" fill="#b0b0b0"/><path d="M148.7207,486.126c0-2.54493,1.71289-4.09766,3.48975-4.09766,1.98486,0,3.105,1.4248,3.105,3.65039a5.06719,5.06719,0,0,1-.04785.75195h-5.25a2.58007,2.58007,0,0,0,2.59277,2.70508,3.51568,3.51568,0,0,0,1.937-.6084l.46436.86426a4.63049,4.63049,0,0,1-2.56152.80078A3.72016,3.72016,0,0,1,148.7207,486.126Zm3.52149-3.05664a2.40224,2.40224,0,0,0-2.24073,2.417h4.16163C154.16309,483.918,153.459,483.06934,152.24219,483.06934Z" fill="#b0b0b0"/><path d="M157.23291,488.43164v-9.82812h1.3125v9.92382c0,.416.17627.57618.36816.57618a1.09514,1.09514,0,0,0,.28809-.03223l.17627.99316a1.76827,1.76827,0,0,1-.75244.12793C157.63281,490.19238,157.23291,489.56738,157.23291,488.43164Z" fill="#b0b0b0"/><path d="M83.84277,545.5c2.353,0,3.9375.78418,3.9375,3.08887,0,2.209-1.56836,3.249-3.873,3.249h-1.729V556H80.84961V545.5Zm2.60938,3.08887c0-1.52051-.92871-2.0166-2.76953-2.0166h-1.5044V550.75h1.56885C85.57178,550.75,86.45215,550.07715,86.45215,548.58887Z" fill="#b0b0b0"/><path d="M88.81738,552.126c0-2.54493,1.71289-4.09766,3.48975-4.09766,1.98486,0,3.105,1.4248,3.105,3.65039a5.06719,5.06719,0,0,1-.04785.75195h-5.25a2.58007,2.58007,0,0,0,2.59277,2.70508,3.51568,3.51568,0,0,0,1.937-.6084l.46436.86426a4.63049,4.63049,0,0,1-2.56152.80078A3.72016,3.72016,0,0,1,88.81738,552.126Zm3.52149-3.05664a2.40224,2.40224,0,0,0-2.24073,2.417h4.16163C94.25977,549.918,93.55566,549.06934,92.33887,549.06934Z" fill="#b0b0b0"/><path d="M96.62549,553.9834c0-1.69727,1.45654-2.54492,4.77-2.91309,0-.99316-.32031-1.95312-1.60059-1.95312a4.23182,4.23182,0,0,0-2.32129.832l-.51172-.91211a5.776,5.776,0,0,1,3.05713-1.00879c1.90479,0,2.70508,1.26465,2.70508,3.20215V556h-1.08838l-.1123-.92871h-.04785a4.14988,4.14988,0,0,1-2.57715,1.12109A2.117,2.117,0,0,1,96.62549,553.9834Zm4.77.1123v-2.16113c-2.59278.32031-3.48926.96-3.48926,1.95215,0,.88086.60791,1.249,1.37646,1.249A3.15415,3.15415,0,0,0,101.39551,554.0957Z" fill="#b0b0b0"/><path d="M106.46631,544.60352v7.71484h.04785l3.31348-4.09766h1.45654l-2.60889,3.1211L111.63623,556H110.1958l-2.273-3.74512-1.45654,1.69629V556h-1.29639V544.60352Z" fill="#b0b0b0"/><path d="M117.74609,545.5v9.36328h4.59375V556h-5.92236V545.5Z" fill="#b0b0b0"/><path d="M123.29736,552.126c0-2.54493,1.71241-4.09766,3.48926-4.09766,1.98486,0,3.10547,1.4248,3.10547,3.65039a5.05951,5.05951,0,0,1-.04834.75195h-5.25a2.58046,2.58046,0,0,0,2.59326,2.70508,3.51413,3.51413,0,0,0,1.93653-.6084l.46435.86426a4.6301,4.6301,0,0,1-2.561.80078A3.72016,3.72016,0,0,1,123.29736,552.126Zm3.52149-3.05664a2.4019,2.4019,0,0,0-2.24073,2.417h4.16114C128.73926,549.918,128.03516,549.06934,126.81885,549.06934Z" fill="#b0b0b0"/><path d="M132.12939,548.2207l1.47266,4.418c.22412.76856.48,1.55274.72022,2.28906h.064c.22412-.73632.48-1.5205.7041-2.28906l1.47266-4.418h1.29639L135.10645,556h-1.53663l-2.80127-7.7793Z" fill="#b0b0b0"/><path d="M138.7207,552.126c0-2.54493,1.71289-4.09766,3.48975-4.09766,1.98486,0,3.105,1.4248,3.105,3.65039a5.06719,5.06719,0,0,1-.04785.75195h-5.25a2.58007,2.58007,0,0,0,2.59277,2.70508,3.51568,3.51568,0,0,0,1.937-.6084l.46436.86426a4.63049,4.63049,0,0,1-2.56152.80078A3.72016,3.72016,0,0,1,138.7207,552.126Zm3.52149-3.05664a2.40224,2.40224,0,0,0-2.24073,2.417h4.16163C144.16309,549.918,143.459,549.06934,142.24219,549.06934Z" fill="#b0b0b0"/><path d="M147.23291,554.43164v-9.82812h1.3125v9.92382c0,.416.17627.57618.36816.57618a1.09514,1.09514,0,0,0,.28809-.03223l.17627.99316a1.76827,1.76827,0,0,1-.75244.12793C147.63281,556.19238,147.23291,555.56738,147.23291,554.43164Z" fill="#b0b0b0"/><path d="M42.1958,625.5c2.12891,0,3.60156.71973,3.60156,2.56055a2.297,2.297,0,0,1-1.53662,2.28906v.06445a2.415,2.415,0,0,1,2.14453,2.5127c0,2.06445-1.63232,3.07324-3.98535,3.07324H39.07471V625.5Zm2.28906,2.7373c0-1.21679-.83252-1.68066-2.46533-1.68066H40.40332v3.40918h1.55273C43.74854,629.96582,44.48486,629.30957,44.48486,628.2373Zm.60791,4.64161c0-1.29688-1.02441-1.88868-2.86474-1.88868H40.40332v3.95313H42.228C44.03662,634.94336,45.09277,634.28711,45.09277,632.87891Z" fill="#b0b0b0"/><path d="M49.44287,628.2207l.11231,1.40918H49.603a2.66189,2.66189,0,0,1,2.209-1.60156,1.945,1.945,0,0,1,.83252.16016l-.25635,1.15332a2.17668,2.17668,0,0,0-.75244-.12891c-.65625,0-1.44043.48047-1.96875,1.793V636h-1.3125v-7.7793Z" fill="#b0b0b0"/><path d="M53.16992,632.126c0-2.54493,1.71289-4.09766,3.48975-4.09766,1.98486,0,3.105,1.4248,3.105,3.65039a5.06719,5.06719,0,0,1-.04785.75195h-5.25a2.58007,2.58007,0,0,0,2.59277,2.70508,3.51568,3.51568,0,0,0,1.937-.6084l.46436.86426a4.63055,4.63055,0,0,1-2.56153.80078A3.72016,3.72016,0,0,1,53.16992,632.126Zm3.52149-3.05664a2.40224,2.40224,0,0,0-2.24073,2.417H58.6123C58.6123,629.918,57.9082,629.06934,56.69141,629.06934Z" fill="#b0b0b0"/><path d="M60.978,633.9834c0-1.69727,1.45654-2.54492,4.77-2.91309,0-.99316-.32032-1.95312-1.60059-1.95312a4.23182,4.23182,0,0,0-2.32129.832l-.51172-.91211a5.776,5.776,0,0,1,3.05713-1.00879c1.90479,0,2.70508,1.26465,2.70508,3.20215V636H65.98828l-.1123-.92871h-.04786a4.14983,4.14983,0,0,1-2.57714,1.12109A2.117,2.117,0,0,1,60.978,633.9834Zm4.77.1123v-2.16113c-2.59278.32031-3.48926.96-3.48926,1.95215,0,.88086.60791,1.249,1.37646,1.249A3.15415,3.15415,0,0,0,65.74805,634.0957Z" fill="#b0b0b0"/><path d="M70.81885,624.60352v7.71484h.04785l3.31348-4.09766h1.45654l-2.60889,3.1211L75.98877,636H74.54834l-2.27295-3.74512-1.45654,1.69629V636H69.52246V624.60352Z" fill="#b0b0b0"/><path d="M78.53076,628.2207l.11182.89649h.04785a4.02988,4.02988,0,0,1,2.48145-1.08887c2.00048,0,3.07324,1.55273,3.07324,3.96973,0,2.6416-1.585,4.19433-3.36133,4.19433a3.61032,3.61032,0,0,1-2.16113-.89648l.03222,1.36035v2.625h-1.3125V628.2207Zm4.35352,3.77735c0-1.71192-.57617-2.86524-2.04883-2.86524a3.27563,3.27563,0,0,0-2.08057,1.05664v4.082a3.08113,3.08113,0,0,0,1.9043.81641C81.93994,635.08789,82.88428,633.919,82.88428,631.99805Z" fill="#b0b0b0"/><path d="M85.74609,632.126c0-2.6084,1.69629-4.09766,3.60108-4.09766s3.60156,1.48926,3.60156,4.09766c0,2.57714-1.69678,4.0664-3.60156,4.0664S85.74609,634.70312,85.74609,632.126Zm5.8418,0c0-1.792-.896-3.00879-2.24072-3.00879-1.32862,0-2.24072,1.21679-2.24072,3.00879,0,1.77734.9121,2.97754,2.24072,2.97754C90.69189,635.10352,91.58789,633.90332,91.58789,632.126Z" fill="#b0b0b0"/><path d="M94.75391,625.77148a.91482.91482,0,0,1,1.8247,0,.91474.91474,0,0,1-1.8247,0Zm1.55273,2.44922V636h-1.3125v-7.7793Z" fill="#b0b0b0"/><path d="M100.01807,628.2207l.1123,1.1211h.04785a3.66779,3.66779,0,0,1,2.60889-1.31348c1.63281,0,2.36914,1.05664,2.36914,3.042V636h-1.3125v-4.75391c0-1.457-.44824-2.08105-1.47266-2.08105-.80029,0-1.34472.416-2.1289,1.20019V636h-1.3125v-7.7793Z" fill="#b0b0b0"/><path d="M107.90576,633.59863V629.293h-1.15234v-.99219l1.21631-.08008.16015-2.17675h1.1045v2.17675h2.09667V629.293h-2.09667v4.32226c0,.96.30419,1.50489,1.20019,1.50489a2.812,2.812,0,0,0,.88086-.209l.25586.99317a4.81822,4.81822,0,0,1-1.44043.28808C108.46582,636.19238,107.90576,635.13574,107.90576,633.59863Z" fill="#b0b0b0"/><path d="M117.74609,625.5v9.36328h4.59375V636h-5.92236V625.5Z" fill="#b0b0b0"/><path d="M123.29736,632.126c0-2.54493,1.71241-4.09766,3.48926-4.09766,1.98486,0,3.10547,1.4248,3.10547,3.65039a5.05951,5.05951,0,0,1-.04834.75195h-5.25a2.58046,2.58046,0,0,0,2.59326,2.70508,3.51413,3.51413,0,0,0,1.93653-.6084l.46435.86426a4.6301,4.6301,0,0,1-2.561.80078A3.72016,3.72016,0,0,1,123.29736,632.126Zm3.52149-3.05664a2.4019,2.4019,0,0,0-2.24073,2.417h4.16114C128.73926,629.918,128.03516,629.06934,126.81885,629.06934Z" fill="#b0b0b0"/><path d="M132.12939,628.2207l1.47266,4.418c.22412.76856.48,1.55274.72022,2.28906h.064c.22412-.73632.48-1.5205.7041-2.28906l1.47266-4.418h1.29639L135.10645,636h-1.53663l-2.80127-7.7793Z" fill="#b0b0b0"/><path d="M138.7207,632.126c0-2.54493,1.71289-4.09766,3.48975-4.09766,1.98486,0,3.105,1.4248,3.105,3.65039a5.06719,5.06719,0,0,1-.04785.75195h-5.25a2.58007,2.58007,0,0,0,2.59277,2.70508,3.51568,3.51568,0,0,0,1.937-.6084l.46436.86426a4.63049,4.63049,0,0,1-2.56152.80078A3.72016,3.72016,0,0,1,138.7207,632.126Zm3.52149-3.05664a2.40224,2.40224,0,0,0-2.24073,2.417h4.16163C144.16309,629.918,143.459,629.06934,142.24219,629.06934Z" fill="#b0b0b0"/><path d="M147.23291,634.43164v-9.82812h1.3125v9.92382c0,.416.17627.57618.36816.57618a1.09514,1.09514,0,0,0,.28809-.03223l.17627.99316a1.76827,1.76827,0,0,1-.75244.12793C147.63281,636.19238,147.23291,635.56738,147.23291,634.43164Z" fill="#b0b0b0"/><path d="M130.81689,750.8623c0-3.42578,1.23243-5.2666,3.28125-5.2666,2.03272,0,3.26514,1.84082,3.26514,5.2666,0,3.42481-1.23242,5.33008-3.26514,5.33008C132.04932,756.19238,130.81689,754.28711,130.81689,750.8623Zm5.26612,0c0-2.99316-.8003-4.21-1.98487-4.21-1.20068,0-2.00048,1.2168-2.00048,4.21s.7998,4.27344,2.00048,4.27344C135.28271,755.13574,136.083,753.85547,136.083,750.8623Z" fill="#b0b0b0"/><path d="M139.105,755.19922a.95493.95493,0,1,1,1.90479,0,.95323.95323,0,1,1-1.90479,0Z" fill="#b0b0b0"/><path d="M142.75293,750.8623c0-3.42578,1.23242-5.2666,3.28125-5.2666,2.03271,0,3.26514,1.84082,3.26514,5.2666,0,3.42481-1.23243,5.33008-3.26514,5.33008C143.98535,756.19238,142.75293,754.28711,142.75293,750.8623Zm5.26562,0c0-2.99316-.80029-4.21-1.98437-4.21-1.20068,0-2.001,1.2168-2.001,4.21s.8003,4.27344,2.001,4.27344C147.21826,755.13574,148.01855,753.85547,148.01855,750.8623Z" fill="#b0b0b0"/><path d="M726.12891,767.59863V763.293h-1.15235v-.99219l1.21631-.08008.16016-2.17675h1.10449v2.17675h2.09668V763.293h-2.09668v4.32226c0,.96.3042,1.50489,1.20068,1.50489a2.80939,2.80939,0,0,0,.87989-.209l.25634.99317a4.81832,4.81832,0,0,1-1.44091.28808C726.68945,770.19238,726.12891,769.13574,726.12891,767.59863Z" fill="#b0b0b0"/><path d="M185.59375,779.5l3.79346,6.59473,1.13623,2.17675h.06445c-.06445-1.05664-.16016-2.24121-.16016-3.3457V779.5h1.26465V790h-1.377l-3.80957-6.61035-1.13623-2.16113h-.064c.08008,1.05664.17579,2.17675.17579,3.28125V790h-1.26416V779.5Z" fill="#b0b0b0"/><path d="M193.86475,786.126c0-2.6084,1.69677-4.09766,3.60156-4.09766s3.60107,1.48926,3.60107,4.09766c0,2.57714-1.69629,4.0664-3.60107,4.0664S193.86475,788.70312,193.86475,786.126Zm5.84228,0c0-1.792-.89648-3.00879-2.24072-3.00879-1.32861,0-2.24121,1.21679-2.24121,3.00879,0,1.77734.9126,2.97754,2.24121,2.97754C198.81055,789.10352,199.707,787.90332,199.707,786.126Z" fill="#b0b0b0"/><path d="M203.06494,787.59863V783.293H201.9126v-.99219l1.21631-.08008.16015-2.17675h1.10449v2.17675h2.09668V783.293h-2.09668v4.32226c0,.96.3042,1.50489,1.2002,1.50489a2.812,2.812,0,0,0,.88086-.209l.25586.99317a4.81822,4.81822,0,0,1-1.44043.28808C203.625,790.19238,203.06494,789.13574,203.06494,787.59863Z" fill="#b0b0b0"/><path d="M207.44873,786.126c0-2.54493,1.7124-4.09766,3.48926-4.09766,1.98486,0,3.10547,1.4248,3.10547,3.65039a5.06086,5.06086,0,0,1-.04834.75195h-5.25a2.58046,2.58046,0,0,0,2.59326,2.70508,3.51407,3.51407,0,0,0,1.93652-.6084l.46436.86426a4.63014,4.63014,0,0,1-2.561.80078A3.72016,3.72016,0,0,1,207.44873,786.126Zm3.52148-3.05664a2.4019,2.4019,0,0,0-2.24072,2.417h4.16113C212.89062,783.918,212.18652,783.06934,210.97021,783.06934Z" fill="#b0b0b0"/><path d="M218.68066,784.70215c0-3.36133,1.84082-5.39453,4.48145-5.39453,2.64111,0,4.498,2.04883,4.498,5.39453,0,3.377-1.85694,5.49023-4.498,5.49023C220.52148,790.19238,218.68066,788.0791,218.68066,784.70215Zm7.58692,0c0-2.60938-1.23242-4.22559-3.10547-4.22559-1.87256,0-3.105,1.61621-3.105,4.22559,0,2.625,1.23242,4.32129,3.105,4.32129C225.03516,789.02344,226.26758,787.32715,226.26758,784.70215Z" fill="#b0b0b0"/><path d="M230.87305,782.2207l.11181,1.1211h.04834a3.6669,3.6669,0,0,1,2.60889-1.31348c1.63232,0,2.36865,1.05664,2.36865,3.042V790h-1.3125v-4.75391c0-1.457-.44824-2.08105-1.47265-2.08105-.79981,0-1.34424.416-2.12891,1.20019V790h-1.3125v-7.7793Z" fill="#b0b0b0"/><path d="M525.35352,779.5l3.79394,6.59473,1.13623,2.17675h.064c-.064-1.05664-.16016-2.24121-.16016-3.3457V779.5h1.26465V790h-1.37647l-3.80957-6.61035-1.13623-2.16113h-.06445c.08008,1.05664.17627,2.17675.17627,3.28125V790h-1.26416V779.5Z" fill="#b0b0b0"/><path d="M533.625,786.126c0-2.6084,1.69629-4.09766,3.60107-4.09766s3.60157,1.48926,3.60157,4.09766c0,2.57714-1.69678,4.0664-3.60157,4.0664S533.625,788.70312,533.625,786.126Zm5.8418,0c0-1.792-.896-3.00879-2.24073-3.00879-1.32861,0-2.24072,1.21679-2.24072,3.00879,0,1.77734.91211,2.97754,2.24072,2.97754C538.5708,789.10352,539.4668,787.90332,539.4668,786.126Z" fill="#b0b0b0"/><path d="M542.8252,787.59863V783.293h-1.15235v-.99219l1.21582-.08008.16016-2.17675h1.10449v2.17675H546.25V783.293h-2.09668v4.32226c0,.96.3042,1.50489,1.20068,1.50489a2.80911,2.80911,0,0,0,.88038-.209l.25585.99317a4.81208,4.81208,0,0,1-1.44043.28808C543.38525,790.19238,542.8252,789.13574,542.8252,787.59863Z" fill="#b0b0b0"/><path d="M547.209,786.126c0-2.54493,1.71241-4.09766,3.48926-4.09766,1.98438,0,3.10547,1.4248,3.10547,3.65039a5.12662,5.12662,0,0,1-.04834.75195h-5.25049a2.58084,2.58084,0,0,0,2.59375,2.70508,3.51538,3.51538,0,0,0,1.93653-.6084l.46386.86426a4.62711,4.62711,0,0,1-2.56054.80078A3.7199,3.7199,0,0,1,547.209,786.126Zm3.52149-3.05664a2.40227,2.40227,0,0,0-2.24121,2.417h4.16162C552.65088,783.918,551.94629,783.06934,550.73047,783.06934Z" fill="#b0b0b0"/><path d="M558.44043,784.70215c0-3.36133,1.84082-5.39453,4.48193-5.39453s4.49756,2.04883,4.49756,5.39453c0,3.377-1.85644,5.49023-4.49756,5.49023S558.44043,788.0791,558.44043,784.70215Zm7.58691,0c0-2.60938-1.23242-4.22559-3.105-4.22559s-3.105,1.61621-3.105,4.22559c0,2.625,1.23242,4.32129,3.105,4.32129S566.02734,787.32715,566.02734,784.70215Z" fill="#b0b0b0"/><path d="M571.08105,783.293V790h-1.3125v-6.707h-1.05664v-.99219l1.05664-.08008v-1.02441c0-1.61621.8003-2.625,2.417-2.625a3.59475,3.59475,0,0,1,1.4248.28809l-.27246.99218a2.52517,2.52517,0,0,0-1.04-.208c-.76855,0-1.2168.56055-1.2168,1.585v.99218h3.249v-1.23242c0-1.585.7207-2.57715,2.27344-2.57715a3.535,3.535,0,0,1,1.29638.25586l-.28808,1.00879a2.19,2.19,0,0,0-.88037-.19238c-.73633,0-1.08887.51269-1.08887,1.50488v1.23242h1.64892V783.293h-1.64892V790h-1.3125v-6.707Z" fill="#b0b0b0"/><path d="M298.26611,489.5c3.2334,0,4.96241,1.87207,4.96241,5.20215,0,3.34473-1.729,5.29785-4.89844,5.29785h-2.689V489.5Zm3.58545,5.20215c0-2.6416-1.23242-4.11426-3.68164-4.11426h-1.20019v8.32324h1.20019C300.61914,498.91113,301.85156,497.35938,301.85156,494.70215Z" fill="#b0b0b0"/><path d="M304.77686,496.126c0-2.54493,1.7124-4.09766,3.48925-4.09766,1.98487,0,3.105,1.4248,3.105,3.65039a5.06584,5.06584,0,0,1-.04785.75195h-5.25a2.58036,2.58036,0,0,0,2.59278,2.70508,3.5157,3.5157,0,0,0,1.937-.6084l.46435.86426a4.6301,4.6301,0,0,1-2.561.80078A3.71989,3.71989,0,0,1,304.77686,496.126Zm3.521-3.05664a2.40257,2.40257,0,0,0-2.24072,2.417h4.16162C310.21875,493.918,309.51465,493.06934,308.29785,493.06934Z" fill="#b0b0b0"/><path d="M312.7124,496.126a3.76788,3.76788,0,0,1,3.74561-4.09766,3.23008,3.23008,0,0,1,2.27295.91309l-.67237.86425a2.28023,2.28023,0,0,0-1.55273-.68847c-1.4082,0-2.43262,1.21679-2.43262,3.00879,0,1.77734.97608,2.97754,2.40088,2.97754a2.76316,2.76316,0,0,0,1.82471-.78418l.57617.87988a3.79225,3.79225,0,0,1-2.51318.99316C314.29688,500.19238,312.7124,498.70312,312.7124,496.126Z" fill="#b0b0b0"/><path d="M319.94434,497.9834c0-1.69727,1.457-2.54492,4.77-2.91309,0-.99316-.31983-1.95312-1.60059-1.95312a4.2302,4.2302,0,0,0-2.3208.832l-.51221-.91211a5.776,5.776,0,0,1,3.05713-1.00879c1.90479,0,2.70508,1.26465,2.70508,3.20215V500h-1.08838l-.11182-.92871h-.04834a4.14983,4.14983,0,0,1-2.57714,1.12109A2.117,2.117,0,0,1,319.94434,497.9834Zm4.77.1123v-2.16113c-2.59327.32031-3.48926.96-3.48926,1.95215,0,.88086.60791,1.249,1.37646,1.249A3.15419,3.15419,0,0,0,324.71436,498.0957Z" fill="#b0b0b0"/><path d="M327.7041,503.18555l.25635-1.041a2.25256,2.25256,0,0,0,.59228.11231c.88038,0,1.44043-.70411,1.76075-1.665l.17578-.57618-3.1211-7.79492h1.36036l1.585,4.30567c.24023.67285.5122,1.47265.75195,2.19336h.06445c.22412-.70411.44824-1.50489.65625-2.19336l1.39258-4.30567H334.459l-2.92919,8.41992c-.54395,1.53614-1.34424,2.70508-2.91309,2.70508A2.59339,2.59339,0,0,1,327.7041,503.18555Z" fill="#b0b0b0"/><path d="M341.44922,498.91113v-7.52246h-1.85645V490.54a6.08472,6.08472,0,0,0,2.16114-.75195h1.00781v9.123H344.875V500h-5.7627v-1.08887Z" fill="#b0b0b0"/><path d="M438.26611,489.5c3.23291,0,4.96192,1.87207,4.96192,5.20215,0,3.34473-1.729,5.29785-4.89795,5.29785h-2.689V489.5Zm3.58545,5.20215c0-2.6416-1.23242-4.11426-3.68164-4.11426h-1.20019v8.32324h1.20019C440.61914,498.91113,441.85156,497.35938,441.85156,494.70215Z" fill="#b0b0b0"/><path d="M444.77637,496.126c0-2.54493,1.71289-4.09766,3.48925-4.09766,1.98536,0,3.10547,1.4248,3.10547,3.65039a5.06584,5.06584,0,0,1-.04785.75195h-5.25a2.58008,2.58008,0,0,0,2.59278,2.70508,3.517,3.517,0,0,0,1.937-.6084l.46435.86426a4.63179,4.63179,0,0,1-2.56152.80078A3.72015,3.72015,0,0,1,444.77637,496.126Zm3.52148-3.05664a2.40189,2.40189,0,0,0-2.24072,2.417h4.16162C450.21875,493.918,449.51465,493.06934,448.29785,493.06934Z" fill="#b0b0b0"/><path d="M452.7124,496.126a3.76788,3.76788,0,0,1,3.74561-4.09766,3.22791,3.22791,0,0,1,2.27246.91309l-.67188.86425a2.28119,2.28119,0,0,0-1.55273-.68847c-1.4082,0-2.43262,1.21679-2.43262,3.00879,0,1.77734.97608,2.97754,2.40039,2.97754a2.76337,2.76337,0,0,0,1.8252-.78418l.57617.87988a3.79225,3.79225,0,0,1-2.51318.99316C454.29688,500.19238,452.7124,498.70312,452.7124,496.126Z" fill="#b0b0b0"/><path d="M459.94434,497.9834c0-1.69727,1.45654-2.54492,4.77-2.91309,0-.99316-.31983-1.95312-1.60059-1.95312a4.22879,4.22879,0,0,0-2.3208.832l-.5127-.91211a5.77926,5.77926,0,0,1,3.05762-1.00879c1.9043,0,2.70508,1.26465,2.70508,3.20215V500H464.9541l-.11181-.92871h-.04786a4.151,4.151,0,0,1-2.57714,1.12109A2.117,2.117,0,0,1,459.94434,497.9834Zm4.77.1123v-2.16113c-2.59327.32031-3.48975.96-3.48975,1.95215,0,.88086.6084,1.249,1.377,1.249A3.15514,3.15514,0,0,0,464.71436,498.0957Z" fill="#b0b0b0"/><path d="M467.7041,503.18555l.25635-1.041a2.24871,2.24871,0,0,0,.59228.11231c.87989,0,1.44043-.70411,1.76075-1.665l.17578-.57618-3.1211-7.79492h1.36036l1.585,4.30567c.24023.67285.51172,1.47265.75195,2.19336h.06445c.22364-.70411.44824-1.50489.65625-2.19336l1.39258-4.30567H474.459l-2.92919,8.41992c-.54444,1.53614-1.34424,2.70508-2.91309,2.70508A2.59339,2.59339,0,0,1,467.7041,503.18555Z" fill="#b0b0b0"/><path d="M483.29,492.669a1.8089,1.8089,0,0,0-1.93652-2.001,3.01037,3.01037,0,0,0-2.17676,1.23242l-.75293-.752a4.00835,4.00835,0,0,1,3.08984-1.55274,2.836,2.836,0,0,1,3.05664,3.00977c0,1.91992-1.74414,3.82519-4.16113,6.35449.56006-.04883,1.18457-.09668,1.7124-.09668H485.083V500h-6.59473v-.78418C481.56152,496.1582,483.29,494.31738,483.29,492.669Z" fill="#b0b0b0"/><path d="M609.03467,489.5c2.145,0,3.68115.76758,3.68115,2.94531a2.8662,2.8662,0,0,1-2.36865,2.97657L613.02051,500h-1.50489l-2.52929-4.43359H607.082V500h-1.32861V489.5Zm2.353,2.94531c0-1.377-.91211-1.873-2.54493-1.873H607.082v3.90527h1.76074C610.47559,494.47754,611.3877,493.80566,611.3877,492.44531Z" fill="#b0b0b0"/><path d="M613.99316,496.126c0-2.54493,1.71241-4.09766,3.48926-4.09766,1.98438,0,3.10547,1.4248,3.10547,3.65039a5.12662,5.12662,0,0,1-.04834.75195h-5.25049a2.58084,2.58084,0,0,0,2.59375,2.70508,3.51538,3.51538,0,0,0,1.93653-.6084l.46386.86426a4.62711,4.62711,0,0,1-2.56054.80078A3.7199,3.7199,0,0,1,613.99316,496.126Zm3.52149-3.05664a2.40227,2.40227,0,0,0-2.24121,2.417h4.16162C619.43506,493.918,618.73047,493.06934,617.51465,493.06934Z" fill="#b0b0b0"/><path d="M622.50488,498.43164v-9.82812h1.3125v9.92382c0,.416.17578.57618.36817.57618a1.09511,1.09511,0,0,0,.28808-.03223l.17578.99316a1.76417,1.76417,0,0,1-.75195.12793C622.90527,500.19238,622.50488,499.56738,622.50488,498.43164Z" fill="#b0b0b0"/><path d="M626.00879,496.126c0-2.54493,1.7124-4.09766,3.48926-4.09766,1.98437,0,3.10547,1.4248,3.10547,3.65039a5.128,5.128,0,0,1-.04834.75195h-5.25049a2.58084,2.58084,0,0,0,2.59375,2.70508,3.51532,3.51532,0,0,0,1.93652-.6084l.46387.86426a4.62717,4.62717,0,0,1-2.56055.80078A3.7199,3.7199,0,0,1,626.00879,496.126Zm3.52148-3.05664a2.40228,2.40228,0,0,0-2.24121,2.417h4.16162C631.45068,493.918,630.74609,493.06934,629.53027,493.06934Z" fill="#b0b0b0"/><path d="M633.81641,497.9834c0-1.69727,1.45654-2.54492,4.77-2.91309,0-.99316-.31983-1.95312-1.60059-1.95312a4.22879,4.22879,0,0,0-2.3208.832l-.5127-.91211a5.77926,5.77926,0,0,1,3.05762-1.00879c1.9043,0,2.70508,1.26465,2.70508,3.20215V500h-1.08887l-.11181-.92871h-.04786a4.151,4.151,0,0,1-2.57714,1.12109A2.117,2.117,0,0,1,633.81641,497.9834Zm4.77.1123v-2.16113c-2.59327.32031-3.48975.96-3.48975,1.95215,0,.88086.6084,1.249,1.37695,1.249A3.15514,3.15514,0,0,0,638.58643,498.0957Z" fill="#b0b0b0"/><path d="M641.49609,499.12012l.65625-.88086a3.50114,3.50114,0,0,0,2.28907.92871c1.02441,0,1.53662-.54492,1.53662-1.2168,0-.80078-.92823-1.15234-1.77686-1.47265-1.10449-.4004-2.3208-.92872-2.3208-2.24122,0-1.248.99268-2.209,2.67334-2.209a3.88238,3.88238,0,0,1,2.417.88086l-.62451.832a2.89252,2.89252,0,0,0-1.77685-.68848c-.97657,0-1.42432.52832-1.42432,1.1211,0,.73633.84814,1.00781,1.72852,1.34472,1.1206.416,2.36914.87989,2.36914,2.35254,0,1.26465-1.0083,2.32129-2.84913,2.32129A4.68812,4.68812,0,0,1,641.49609,499.12012Z" fill="#b0b0b0"/><path d="M648.48828,496.126c0-2.54493,1.71289-4.09766,3.48926-4.09766,1.98486,0,3.10547,1.4248,3.10547,3.65039a5.13452,5.13452,0,0,1-.04785.75195h-5.25049a2.58046,2.58046,0,0,0,2.59326,2.70508,3.51407,3.51407,0,0,0,1.93652-.6084l.46436.86426a4.62883,4.62883,0,0,1-2.561.80078A3.7199,3.7199,0,0,1,648.48828,496.126Zm3.52149-3.05664a2.40228,2.40228,0,0,0-2.24122,2.417h4.16211C653.93066,493.918,653.22607,493.06934,652.00977,493.06934Z" fill="#b0b0b0"/><path d="M224.14648,79.5,227.69971,90h-1.42432l-.99268-3.20117H221.457L220.44873,90h-1.36035l3.55322-10.5Zm.8003,6.22656L224.4502,84.126c-.38379-1.16895-.71973-2.32129-1.05616-3.53809h-.064c-.32031,1.2168-.65625,2.36914-1.04053,3.53809l-.49609,1.60058Z" fill="#b0b0b0"/><path d="M229.05664,87.59863V83.293H227.9043v-.99219l1.21679-.08008.16016-2.17675h1.104V82.2207h2.09717V83.293h-2.09717v4.32226c0,.96.3042,1.50489,1.20069,1.50489a2.81231,2.81231,0,0,0,.88037-.209l.25635.99317a4.82446,4.82446,0,0,1-1.44092.28808C229.61719,90.19238,229.05664,89.13574,229.05664,87.59863Z" fill="#b0b0b0"/><path d="M234.145,87.59863V83.293h-1.15234v-.99219l1.2163-.08008.16016-2.17675h1.10449V82.2207h2.09668V83.293h-2.09668v4.32226c0,.96.3042,1.50489,1.2002,1.50489a2.812,2.812,0,0,0,.88086-.209l.25586.99317a4.81822,4.81822,0,0,1-1.44043.28808C234.70508,90.19238,234.145,89.13574,234.145,87.59863Z" fill="#b0b0b0"/><path d="M238.5127,87.9834c0-1.69727,1.45654-2.54492,4.77-2.91309,0-.99316-.32031-1.95312-1.60058-1.95312a4.22876,4.22876,0,0,0-2.3208.832l-.5127-.91211a5.77923,5.77923,0,0,1,3.05762-1.00879c1.90479,0,2.70508,1.26465,2.70508,3.20215V90H243.523l-.11231-.92871h-.04785a4.14986,4.14986,0,0,1-2.57715,1.12109A2.117,2.117,0,0,1,238.5127,87.9834Zm4.77.1123V85.93457c-2.59326.32031-3.48974.96-3.48974,1.95215,0,.88086.6084,1.249,1.37695,1.249A3.1551,3.1551,0,0,0,243.28271,88.0957Z" fill="#b0b0b0"/><path d="M246.48047,86.126a3.76815,3.76815,0,0,1,3.7456-4.09766,3.22912,3.22912,0,0,1,2.273.91309l-.67187.86425a2.2812,2.2812,0,0,0-1.55274-.68847c-1.40869,0-2.4331,1.21679-2.4331,3.00879,0,1.77734.97607,2.97754,2.40088,2.97754a2.76213,2.76213,0,0,0,1.8247-.78418l.57618.87988a3.79134,3.79134,0,0,1-2.51319.99316C248.06543,90.19238,246.48047,88.70312,246.48047,86.126Z" fill="#b0b0b0"/><path d="M255.64941,78.60352v7.71484h.04786l3.31347-4.09766h1.45655l-2.60889,3.1211L260.81934,90h-1.44043l-2.273-3.74512-1.45655,1.69629V90h-1.29687V78.60352Z" fill="#b0b0b0"/><path d="M127.74609,69.5v9.36328h4.59375V80h-5.92236V69.5Z" fill="#b0b0b0"/><path d="M133.29736,76.126c0-2.54493,1.71241-4.09766,3.48926-4.09766,1.98486,0,3.10547,1.4248,3.10547,3.65039a5.05951,5.05951,0,0,1-.04834.752h-5.25a2.58046,2.58046,0,0,0,2.59326,2.70508,3.51413,3.51413,0,0,0,1.93653-.6084l.46435.86426a4.6301,4.6301,0,0,1-2.561.80078A3.72016,3.72016,0,0,1,133.29736,76.126Zm3.52149-3.05664a2.4019,2.4019,0,0,0-2.24073,2.417h4.16114C138.73926,73.918,138.03516,73.06934,136.81885,73.06934Z" fill="#b0b0b0"/><path d="M142.12939,72.2207l1.47266,4.418c.22412.76856.48,1.55274.72022,2.28906h.064c.22412-.73632.48-1.5205.7041-2.28906l1.47266-4.418h1.29639L145.10645,80h-1.53663l-2.80127-7.7793Z" fill="#b0b0b0"/><path d="M148.7207,76.126c0-2.54493,1.71289-4.09766,3.48975-4.09766,1.98486,0,3.105,1.4248,3.105,3.65039a5.06719,5.06719,0,0,1-.04785.752h-5.25a2.58007,2.58007,0,0,0,2.59277,2.70508,3.51568,3.51568,0,0,0,1.937-.6084l.46436.86426a4.63049,4.63049,0,0,1-2.56152.80078A3.72016,3.72016,0,0,1,148.7207,76.126Zm3.52149-3.05664a2.40224,2.40224,0,0,0-2.24073,2.417h4.16163C154.16309,73.918,153.459,73.06934,152.24219,73.06934Z" fill="#b0b0b0"/><path d="M157.23291,78.43164V68.60352h1.3125v9.92382c0,.416.17627.57618.36816.57618a1.09514,1.09514,0,0,0,.28809-.03223l.17627.99316a1.76827,1.76827,0,0,1-.75244.12793C157.63281,80.19238,157.23291,79.56738,157.23291,78.43164Z" fill="#b0b0b0"/><path d="M83.84277,135.5c2.353,0,3.9375.78418,3.9375,3.08887,0,2.209-1.56836,3.249-3.873,3.249h-1.729V146H80.84961V135.5Zm2.60938,3.08887c0-1.52051-.92871-2.0166-2.76953-2.0166h-1.5044V140.75h1.56885C85.57178,140.75,86.45215,140.07715,86.45215,138.58887Z" fill="#b0b0b0"/><path d="M88.81738,142.126c0-2.54493,1.71289-4.09766,3.48975-4.09766,1.98486,0,3.105,1.4248,3.105,3.65039a5.06719,5.06719,0,0,1-.04785.75195h-5.25a2.58007,2.58007,0,0,0,2.59277,2.70508,3.51568,3.51568,0,0,0,1.937-.6084l.46436.86426a4.63049,4.63049,0,0,1-2.56152.80078A3.72016,3.72016,0,0,1,88.81738,142.126Zm3.52149-3.05664a2.40224,2.40224,0,0,0-2.24073,2.417h4.16163C94.25977,139.918,93.55566,139.06934,92.33887,139.06934Z" fill="#b0b0b0"/><path d="M96.62549,143.9834c0-1.69727,1.45654-2.54492,4.77-2.91309,0-.99316-.32031-1.95312-1.60059-1.95312a4.23182,4.23182,0,0,0-2.32129.832l-.51172-.91211a5.776,5.776,0,0,1,3.05713-1.00879c1.90479,0,2.70508,1.26465,2.70508,3.20215V146h-1.08838l-.1123-.92871h-.04785a4.14988,4.14988,0,0,1-2.57715,1.12109A2.117,2.117,0,0,1,96.62549,143.9834Zm4.77.1123v-2.16113c-2.59278.32031-3.48926.96-3.48926,1.95215,0,.88086.60791,1.249,1.37646,1.249A3.15415,3.15415,0,0,0,101.39551,144.0957Z" fill="#b0b0b0"/><path d="M106.46631,134.60352v7.71484h.04785l3.31348-4.09766h1.45654l-2.60889,3.1211L111.63623,146H110.1958l-2.273-3.74512-1.45654,1.69629V146h-1.29639V134.60352Z" fill="#b0b0b0"/><path d="M117.74609,135.5v9.36328h4.59375V146h-5.92236V135.5Z" fill="#b0b0b0"/><path d="M123.29736,142.126c0-2.54493,1.71241-4.09766,3.48926-4.09766,1.98486,0,3.10547,1.4248,3.10547,3.65039a5.05951,5.05951,0,0,1-.04834.75195h-5.25a2.58046,2.58046,0,0,0,2.59326,2.70508,3.51413,3.51413,0,0,0,1.93653-.6084l.46435.86426a4.6301,4.6301,0,0,1-2.561.80078A3.72016,3.72016,0,0,1,123.29736,142.126Zm3.52149-3.05664a2.4019,2.4019,0,0,0-2.24073,2.417h4.16114C128.73926,139.918,128.03516,139.06934,126.81885,139.06934Z" fill="#b0b0b0"/><path d="M132.12939,138.2207l1.47266,4.418c.22412.76856.48,1.55274.72022,2.28906h.064c.22412-.73632.48-1.5205.7041-2.28906l1.47266-4.418h1.29639L135.10645,146h-1.53663l-2.80127-7.7793Z" fill="#b0b0b0"/><path d="M138.7207,142.126c0-2.54493,1.71289-4.09766,3.48975-4.09766,1.98486,0,3.105,1.4248,3.105,3.65039a5.06719,5.06719,0,0,1-.04785.75195h-5.25a2.58007,2.58007,0,0,0,2.59277,2.70508,3.51568,3.51568,0,0,0,1.937-.6084l.46436.86426a4.63049,4.63049,0,0,1-2.56152.80078A3.72016,3.72016,0,0,1,138.7207,142.126Zm3.52149-3.05664a2.40224,2.40224,0,0,0-2.24073,2.417h4.16163C144.16309,139.918,143.459,139.06934,142.24219,139.06934Z" fill="#b0b0b0"/><path d="M147.23291,144.43164v-9.82812h1.3125v9.92382c0,.416.17627.57618.36816.57618a1.09514,1.09514,0,0,0,.28809-.03223l.17627.99316a1.76827,1.76827,0,0,1-.75244.12793C147.63281,146.19238,147.23291,145.56738,147.23291,144.43164Z" fill="#b0b0b0"/><path d="M42.1958,215.5c2.12891,0,3.60156.71973,3.60156,2.56055a2.297,2.297,0,0,1-1.53662,2.28906v.06445a2.415,2.415,0,0,1,2.14453,2.5127c0,2.06445-1.63232,3.07324-3.98535,3.07324H39.07471V215.5Zm2.28906,2.7373c0-1.21679-.83252-1.68066-2.46533-1.68066H40.40332v3.40918h1.55273C43.74854,219.96582,44.48486,219.30957,44.48486,218.2373Zm.60791,4.64161c0-1.29688-1.02441-1.88868-2.86474-1.88868H40.40332v3.95313H42.228C44.03662,224.94336,45.09277,224.28711,45.09277,222.87891Z" fill="#b0b0b0"/><path d="M49.44287,218.2207l.11231,1.40918H49.603a2.66189,2.66189,0,0,1,2.209-1.60156,1.945,1.945,0,0,1,.83252.16016l-.25635,1.15332a2.17668,2.17668,0,0,0-.75244-.12891c-.65625,0-1.44043.48047-1.96875,1.793V226h-1.3125v-7.7793Z" fill="#b0b0b0"/><path d="M53.16992,222.126c0-2.54493,1.71289-4.09766,3.48975-4.09766,1.98486,0,3.105,1.4248,3.105,3.65039a5.06719,5.06719,0,0,1-.04785.75195h-5.25a2.58007,2.58007,0,0,0,2.59277,2.70508,3.51568,3.51568,0,0,0,1.937-.6084l.46436.86426a4.63055,4.63055,0,0,1-2.56153.80078A3.72016,3.72016,0,0,1,53.16992,222.126Zm3.52149-3.05664a2.40224,2.40224,0,0,0-2.24073,2.417H58.6123C58.6123,219.918,57.9082,219.06934,56.69141,219.06934Z" fill="#b0b0b0"/><path d="M60.978,223.9834c0-1.69727,1.45654-2.54492,4.77-2.91309,0-.99316-.32032-1.95312-1.60059-1.95312a4.23182,4.23182,0,0,0-2.32129.832l-.51172-.91211a5.776,5.776,0,0,1,3.05713-1.00879c1.90479,0,2.70508,1.26465,2.70508,3.20215V226H65.98828l-.1123-.92871h-.04786a4.14983,4.14983,0,0,1-2.57714,1.12109A2.117,2.117,0,0,1,60.978,223.9834Zm4.77.1123v-2.16113c-2.59278.32031-3.48926.96-3.48926,1.95215,0,.88086.60791,1.249,1.37646,1.249A3.15415,3.15415,0,0,0,65.74805,224.0957Z" fill="#b0b0b0"/><path d="M70.81885,214.60352v7.71484h.04785l3.31348-4.09766h1.45654l-2.60889,3.1211L75.98877,226H74.54834l-2.27295-3.74512-1.45654,1.69629V226H69.52246V214.60352Z" fill="#b0b0b0"/><path d="M78.53076,218.2207l.11182.89649h.04785a4.02988,4.02988,0,0,1,2.48145-1.08887c2.00048,0,3.07324,1.55273,3.07324,3.96973,0,2.6416-1.585,4.19433-3.36133,4.19433a3.61032,3.61032,0,0,1-2.16113-.89648l.03222,1.36035v2.625h-1.3125V218.2207Zm4.35352,3.77735c0-1.71192-.57617-2.86524-2.04883-2.86524a3.27563,3.27563,0,0,0-2.08057,1.05664v4.082a3.08113,3.08113,0,0,0,1.9043.81641C81.93994,225.08789,82.88428,223.919,82.88428,221.99805Z" fill="#b0b0b0"/><path d="M85.74609,222.126c0-2.6084,1.69629-4.09766,3.60108-4.09766s3.60156,1.48926,3.60156,4.09766c0,2.57714-1.69678,4.0664-3.60156,4.0664S85.74609,224.70312,85.74609,222.126Zm5.8418,0c0-1.792-.896-3.00879-2.24072-3.00879-1.32862,0-2.24072,1.21679-2.24072,3.00879,0,1.77734.9121,2.97754,2.24072,2.97754C90.69189,225.10352,91.58789,223.90332,91.58789,222.126Z" fill="#b0b0b0"/><path d="M94.75391,215.77148a.91482.91482,0,0,1,1.8247,0,.91474.91474,0,0,1-1.8247,0Zm1.55273,2.44922V226h-1.3125v-7.7793Z" fill="#b0b0b0"/><path d="M100.01807,218.2207l.1123,1.1211h.04785a3.66779,3.66779,0,0,1,2.60889-1.31348c1.63281,0,2.36914,1.05664,2.36914,3.042V226h-1.3125v-4.75391c0-1.457-.44824-2.08105-1.47266-2.08105-.80029,0-1.34472.416-2.1289,1.20019V226h-1.3125v-7.7793Z" fill="#b0b0b0"/><path d="M107.90576,223.59863V219.293h-1.15234v-.99219l1.21631-.08008.16015-2.17675h1.1045v2.17675h2.09667V219.293h-2.09667v4.32226c0,.96.30419,1.50489,1.20019,1.50489a2.812,2.812,0,0,0,.88086-.209l.25586.99317a4.81822,4.81822,0,0,1-1.44043.28808C108.46582,226.19238,107.90576,225.13574,107.90576,223.59863Z" fill="#b0b0b0"/><path d="M117.74609,215.5v9.36328h4.59375V226h-5.92236V215.5Z" fill="#b0b0b0"/><path d="M123.29736,222.126c0-2.54493,1.71241-4.09766,3.48926-4.09766,1.98486,0,3.10547,1.4248,3.10547,3.65039a5.05951,5.05951,0,0,1-.04834.75195h-5.25a2.58046,2.58046,0,0,0,2.59326,2.70508,3.51413,3.51413,0,0,0,1.93653-.6084l.46435.86426a4.6301,4.6301,0,0,1-2.561.80078A3.72016,3.72016,0,0,1,123.29736,222.126Zm3.52149-3.05664a2.4019,2.4019,0,0,0-2.24073,2.417h4.16114C128.73926,219.918,128.03516,219.06934,126.81885,219.06934Z" fill="#b0b0b0"/><path d="M132.12939,218.2207l1.47266,4.418c.22412.76856.48,1.55274.72022,2.28906h.064c.22412-.73632.48-1.5205.7041-2.28906l1.47266-4.418h1.29639L135.10645,226h-1.53663l-2.80127-7.7793Z" fill="#b0b0b0"/><path d="M138.7207,222.126c0-2.54493,1.71289-4.09766,3.48975-4.09766,1.98486,0,3.105,1.4248,3.105,3.65039a5.06719,5.06719,0,0,1-.04785.75195h-5.25a2.58007,2.58007,0,0,0,2.59277,2.70508,3.51568,3.51568,0,0,0,1.937-.6084l.46436.86426a4.63049,4.63049,0,0,1-2.56152.80078A3.72016,3.72016,0,0,1,138.7207,222.126Zm3.52149-3.05664a2.40224,2.40224,0,0,0-2.24073,2.417h4.16163C144.16309,219.918,143.459,219.06934,142.24219,219.06934Z" fill="#b0b0b0"/><path d="M147.23291,224.43164v-9.82812h1.3125v9.92382c0,.416.17627.57618.36816.57618a1.09514,1.09514,0,0,0,.28809-.03223l.17627.99316a1.76827,1.76827,0,0,1-.75244.12793C147.63281,226.19238,147.23291,225.56738,147.23291,224.43164Z" fill="#b0b0b0"/><path d="M62.99365,284.63965l.8003-.92871a4.11406,4.11406,0,0,0,2.89746,1.3125c1.37646,0,2.19287-.68848,2.19287-1.71289,0-1.07227-.75244-1.40821-1.74463-1.85645l-1.50488-.65625a2.95028,2.95028,0,0,1-2.12891-2.70508c0-1.60058,1.39258-2.78515,3.29736-2.78515a4.35683,4.35683,0,0,1,3.10547,1.29687l-.72021.86426a3.3486,3.3486,0,0,0-2.38526-.99219c-1.16845,0-1.95263.5918-1.95263,1.53614,0,1.00878.91211,1.39257,1.74462,1.74511l1.48877.63965c1.21631.52832,2.16065,1.249,2.16065,2.80176,0,1.66406-1.36035,2.99316-3.56934,2.99316A5.09294,5.09294,0,0,1,62.99365,284.63965Z" fill="#b0b0b0"/><path d="M72.06592,283.15039V278.2207h1.32861v4.75391c0,1.457.43213,2.08105,1.45654,2.08105.8003,0,1.36084-.40039,2.09717-1.3125V278.2207h1.3125V286H77.17188l-.11182-1.2168h-.04834a3.28733,3.28733,0,0,1-2.56055,1.40918C72.80225,286.19238,72.06592,285.13574,72.06592,283.15039Z" fill="#b0b0b0"/><path d="M80.01758,285.12012l.65625-.88086a3.5001,3.5001,0,0,0,2.28906.92871c1.02441,0,1.53613-.54492,1.53613-1.2168,0-.80078-.92822-1.15234-1.77636-1.47265-1.1045-.4004-2.32129-.92872-2.32129-2.24122,0-1.248.99267-2.209,2.67334-2.209a3.8813,3.8813,0,0,1,2.417.88086l-.62451.832a2.89117,2.89117,0,0,0-1.77637-.68848c-.97656,0-1.4248.52832-1.4248,1.1211,0,.73633.84863,1.00781,1.729,1.34472,1.1206.416,2.36865.87989,2.36865,2.35254,0,1.26465-1.0083,2.32129-2.84912,2.32129A4.68783,4.68783,0,0,1,80.01758,285.12012Z" fill="#b0b0b0"/><path d="M87.49023,283.59863V279.293H86.3374v-.99219l1.21631-.08008.16016-2.17675h1.10449v2.17675h2.09717V279.293H88.81836v4.32226c0,.96.3042,1.50489,1.20068,1.50489a2.809,2.809,0,0,0,.88037-.209l.25586.99317a4.81515,4.81515,0,0,1-1.44043.28808C88.05029,286.19238,87.49023,285.13574,87.49023,283.59863Z" fill="#b0b0b0"/><path d="M91.85742,283.9834c0-1.69727,1.457-2.54492,4.77051-2.91309,0-.99316-.32031-1.95312-1.60107-1.95312a4.23162,4.23162,0,0,0-2.32081.832l-.5122-.91211a5.7759,5.7759,0,0,1,3.05713-1.00879c1.90478,0,2.70507,1.26465,2.70507,3.20215V286H96.86768l-.11182-.92871h-.04834a4.1486,4.1486,0,0,1-2.57666,1.12109A2.11712,2.11712,0,0,1,91.85742,283.9834Zm4.77051.1123v-2.16113c-2.59326.32031-3.48975.96-3.48975,1.95215,0,.88086.6084,1.249,1.37647,1.249A3.15517,3.15517,0,0,0,96.62793,284.0957Z" fill="#b0b0b0"/><path d="M100.16162,275.77148a.91482.91482,0,0,1,1.82471,0,.91475.91475,0,0,1-1.82471,0Zm1.55274,2.44922V286h-1.3125v-7.7793Z" fill="#b0b0b0"/><path d="M105.42627,278.2207l.11182,1.1211h.04785a3.66883,3.66883,0,0,1,2.60937-1.31348c1.63281,0,2.36914,1.05664,2.36914,3.042V286H109.252v-4.75391c0-1.457-.44824-2.08105-1.47265-2.08105-.80078,0-1.34473.416-2.12891,1.20019V286h-1.3125v-7.7793Z" fill="#b0b0b0"/><path d="M117.74609,275.5v9.36328h4.59375V286h-5.92236V275.5Z" fill="#b0b0b0"/><path d="M123.29736,282.126c0-2.54493,1.71241-4.09766,3.48926-4.09766,1.98486,0,3.10547,1.4248,3.10547,3.65039a5.05951,5.05951,0,0,1-.04834.75195h-5.25a2.58046,2.58046,0,0,0,2.59326,2.70508,3.51413,3.51413,0,0,0,1.93653-.6084l.46435.86426a4.6301,4.6301,0,0,1-2.561.80078A3.72016,3.72016,0,0,1,123.29736,282.126Zm3.52149-3.05664a2.4019,2.4019,0,0,0-2.24073,2.417h4.16114C128.73926,279.918,128.03516,279.06934,126.81885,279.06934Z" fill="#b0b0b0"/><path d="M132.12939,278.2207l1.47266,4.418c.22412.76856.48,1.55274.72022,2.28906h.064c.22412-.73632.48-1.5205.7041-2.28906l1.47266-4.418h1.29639L135.10645,286h-1.53663l-2.80127-7.7793Z" fill="#b0b0b0"/><path d="M138.7207,282.126c0-2.54493,1.71289-4.09766,3.48975-4.09766,1.98486,0,3.105,1.4248,3.105,3.65039a5.06719,5.06719,0,0,1-.04785.75195h-5.25a2.58007,2.58007,0,0,0,2.59277,2.70508,3.51568,3.51568,0,0,0,1.937-.6084l.46436.86426a4.63049,4.63049,0,0,1-2.56152.80078A3.72016,3.72016,0,0,1,138.7207,282.126Zm3.52149-3.05664a2.40224,2.40224,0,0,0-2.24073,2.417h4.16163C144.16309,279.918,143.459,279.06934,142.24219,279.06934Z" fill="#b0b0b0"/><path d="M147.23291,284.43164v-9.82812h1.3125v9.92382c0,.416.17627.57618.36816.57618a1.09514,1.09514,0,0,0,.28809-.03223l.17627.99316a1.76827,1.76827,0,0,1-.75244.12793C147.63281,286.19238,147.23291,285.56738,147.23291,284.43164Z" fill="#b0b0b0"/><path d="M130.81689,340.8623c0-3.42578,1.23243-5.2666,3.28125-5.2666,2.03272,0,3.26514,1.84082,3.26514,5.2666,0,3.42481-1.23242,5.33008-3.26514,5.33008C132.04932,346.19238,130.81689,344.28711,130.81689,340.8623Zm5.26612,0c0-2.99316-.8003-4.21-1.98487-4.21-1.20068,0-2.00048,1.2168-2.00048,4.21s.7998,4.27344,2.00048,4.27344C135.28271,345.13574,136.083,343.85547,136.083,340.8623Z" fill="#b0b0b0"/><path d="M139.105,345.19922a.95493.95493,0,1,1,1.90479,0,.95323.95323,0,1,1-1.90479,0Z" fill="#b0b0b0"/><path d="M142.75293,340.8623c0-3.42578,1.23242-5.2666,3.28125-5.2666,2.03271,0,3.26514,1.84082,3.26514,5.2666,0,3.42481-1.23243,5.33008-3.26514,5.33008C143.98535,346.19238,142.75293,344.28711,142.75293,340.8623Zm5.26562,0c0-2.99316-.80029-4.21-1.98437-4.21-1.20068,0-2.001,1.2168-2.001,4.21s.8003,4.27344,2.001,4.27344C147.21826,345.13574,148.01855,343.85547,148.01855,340.8623Z" fill="#b0b0b0"/><path d="M726.12891,357.59863V353.293h-1.15235v-.99219l1.21631-.08008.16016-2.17675h1.10449v2.17675h2.09668V353.293h-2.09668v4.32226c0,.96.3042,1.50489,1.20068,1.50489a2.80939,2.80939,0,0,0,.87989-.209l.25634.99317a4.81832,4.81832,0,0,1-1.44091.28808C726.68945,360.19238,726.12891,359.13574,726.12891,357.59863Z" fill="#b0b0b0"/><path d="M185.59375,369.5l3.79346,6.59473,1.13623,2.17675h.06445c-.06445-1.05664-.16016-2.24121-.16016-3.3457V369.5h1.26465V380h-1.377l-3.80957-6.61035-1.13623-2.16113h-.064c.08008,1.05664.17579,2.17675.17579,3.28125V380h-1.26416V369.5Z" fill="#b0b0b0"/><path d="M193.86475,376.126c0-2.6084,1.69677-4.09766,3.60156-4.09766s3.60107,1.48926,3.60107,4.09766c0,2.57714-1.69629,4.0664-3.60107,4.0664S193.86475,378.70312,193.86475,376.126Zm5.84228,0c0-1.792-.89648-3.00879-2.24072-3.00879-1.32861,0-2.24121,1.21679-2.24121,3.00879,0,1.77734.9126,2.97754,2.24121,2.97754C198.81055,379.10352,199.707,377.90332,199.707,376.126Z" fill="#b0b0b0"/><path d="M203.06494,377.59863V373.293H201.9126v-.99219l1.21631-.08008.16015-2.17675h1.10449v2.17675h2.09668V373.293h-2.09668v4.32226c0,.96.3042,1.50489,1.2002,1.50489a2.812,2.812,0,0,0,.88086-.209l.25586.99317a4.81822,4.81822,0,0,1-1.44043.28808C203.625,380.19238,203.06494,379.13574,203.06494,377.59863Z" fill="#b0b0b0"/><path d="M207.44873,376.126c0-2.54493,1.7124-4.09766,3.48926-4.09766,1.98486,0,3.10547,1.4248,3.10547,3.65039a5.06086,5.06086,0,0,1-.04834.75195h-5.25a2.58046,2.58046,0,0,0,2.59326,2.70508,3.51407,3.51407,0,0,0,1.93652-.6084l.46436.86426a4.63014,4.63014,0,0,1-2.561.80078A3.72016,3.72016,0,0,1,207.44873,376.126Zm3.52148-3.05664a2.4019,2.4019,0,0,0-2.24072,2.417h4.16113C212.89062,373.918,212.18652,373.06934,210.97021,373.06934Z" fill="#b0b0b0"/><path d="M218.68066,374.70215c0-3.36133,1.84082-5.39453,4.48145-5.39453,2.64111,0,4.498,2.04883,4.498,5.39453,0,3.37695-1.85694,5.49023-4.498,5.49023C220.52148,380.19238,218.68066,378.0791,218.68066,374.70215Zm7.58692,0c0-2.60938-1.23242-4.22559-3.10547-4.22559-1.87256,0-3.105,1.61621-3.105,4.22559,0,2.625,1.23242,4.32129,3.105,4.32129C225.03516,379.02344,226.26758,377.32715,226.26758,374.70215Z" fill="#b0b0b0"/><path d="M230.87305,372.2207l.11181,1.1211h.04834a3.6669,3.6669,0,0,1,2.60889-1.31348c1.63232,0,2.36865,1.05664,2.36865,3.042V380h-1.3125v-4.75391c0-1.457-.44824-2.08105-1.47265-2.08105-.79981,0-1.34424.416-2.12891,1.20019V380h-1.3125v-7.7793Z" fill="#b0b0b0"/><path d="M545.35352,369.5l3.79394,6.59473,1.13623,2.17675h.064c-.064-1.05664-.16016-2.24121-.16016-3.3457V369.5h1.26465V380h-1.37647l-3.80957-6.61035-1.13623-2.16113h-.06445c.08008,1.05664.17627,2.17675.17627,3.28125V380h-1.26416V369.5Z" fill="#b0b0b0"/><path d="M553.625,376.126c0-2.6084,1.69629-4.09766,3.60107-4.09766s3.60157,1.48926,3.60157,4.09766c0,2.57714-1.69678,4.0664-3.60157,4.0664S553.625,378.70312,553.625,376.126Zm5.8418,0c0-1.792-.896-3.00879-2.24073-3.00879-1.32861,0-2.24072,1.21679-2.24072,3.00879,0,1.77734.91211,2.97754,2.24072,2.97754C558.5708,379.10352,559.4668,377.90332,559.4668,376.126Z" fill="#b0b0b0"/><path d="M562.8252,377.59863V373.293h-1.15235v-.99219l1.21582-.08008.16016-2.17675h1.10449v2.17675H566.25V373.293h-2.09668v4.32226c0,.96.3042,1.50489,1.20068,1.50489a2.80911,2.80911,0,0,0,.88038-.209l.25585.99317a4.81208,4.81208,0,0,1-1.44043.28808C563.38525,380.19238,562.8252,379.13574,562.8252,377.59863Z" fill="#b0b0b0"/><path d="M567.209,376.126c0-2.54493,1.71241-4.09766,3.48926-4.09766,1.98438,0,3.10547,1.4248,3.10547,3.65039a5.12662,5.12662,0,0,1-.04834.75195h-5.25049a2.58084,2.58084,0,0,0,2.59375,2.70508,3.51538,3.51538,0,0,0,1.93653-.6084l.46386.86426a4.62711,4.62711,0,0,1-2.56054.80078A3.7199,3.7199,0,0,1,567.209,376.126Zm3.52149-3.05664a2.40227,2.40227,0,0,0-2.24121,2.417h4.16162C572.65088,373.918,571.94629,373.06934,570.73047,373.06934Z" fill="#b0b0b0"/><path d="M578.44043,374.70215c0-3.36133,1.84082-5.39453,4.48193-5.39453s4.49756,2.04883,4.49756,5.39453c0,3.37695-1.85644,5.49023-4.49756,5.49023S578.44043,378.0791,578.44043,374.70215Zm7.58691,0c0-2.60938-1.23242-4.22559-3.105-4.22559s-3.105,1.61621-3.105,4.22559c0,2.625,1.23242,4.32129,3.105,4.32129S586.02734,377.32715,586.02734,374.70215Z" fill="#b0b0b0"/><path d="M591.08105,373.293V380h-1.3125v-6.707h-1.05664v-.99219l1.05664-.08008v-1.02441c0-1.61621.8003-2.625,2.417-2.625a3.59475,3.59475,0,0,1,1.4248.28809l-.27246.99218a2.52517,2.52517,0,0,0-1.04-.208c-.76855,0-1.2168.56055-1.2168,1.585v.99218h3.249v-1.23242c0-1.585.7207-2.57715,2.27344-2.57715a3.535,3.535,0,0,1,1.29638.25586l-.28808,1.00879a2.19,2.19,0,0,0-.88037-.19238c-.73633,0-1.08887.51269-1.08887,1.50488v1.23242h1.64892V373.293h-1.64892V380h-1.3125v-6.707Z" fill="#b0b0b0"/><path d="M298.26611,79.5c3.2334,0,4.96241,1.87207,4.96241,5.20215,0,3.34473-1.729,5.29785-4.89844,5.29785h-2.689V79.5Zm3.58545,5.20215c0-2.6416-1.23242-4.11426-3.68164-4.11426h-1.20019v8.32324h1.20019C300.61914,88.91113,301.85156,87.35938,301.85156,84.70215Z" fill="#b0b0b0"/><path d="M304.77686,86.126c0-2.54493,1.7124-4.09766,3.48925-4.09766,1.98487,0,3.105,1.4248,3.105,3.65039a5.06584,5.06584,0,0,1-.04785.752h-5.25a2.58036,2.58036,0,0,0,2.59278,2.70508,3.5157,3.5157,0,0,0,1.937-.6084l.46435.86426a4.6301,4.6301,0,0,1-2.561.80078A3.71989,3.71989,0,0,1,304.77686,86.126Zm3.521-3.05664a2.40257,2.40257,0,0,0-2.24072,2.417h4.16162C310.21875,83.918,309.51465,83.06934,308.29785,83.06934Z" fill="#b0b0b0"/><path d="M312.7124,86.126a3.76788,3.76788,0,0,1,3.74561-4.09766,3.23008,3.23008,0,0,1,2.27295.91309l-.67237.86425a2.28023,2.28023,0,0,0-1.55273-.68847c-1.4082,0-2.43262,1.21679-2.43262,3.00879,0,1.77734.97608,2.97754,2.40088,2.97754a2.76316,2.76316,0,0,0,1.82471-.78418l.57617.87988a3.79225,3.79225,0,0,1-2.51318.99316C314.29688,90.19238,312.7124,88.70312,312.7124,86.126Z" fill="#b0b0b0"/><path d="M319.94434,87.9834c0-1.69727,1.457-2.54492,4.77-2.91309,0-.99316-.31983-1.95312-1.60059-1.95312a4.2302,4.2302,0,0,0-2.3208.832l-.51221-.91211a5.776,5.776,0,0,1,3.05713-1.00879c1.90479,0,2.70508,1.26465,2.70508,3.20215V90h-1.08838l-.11182-.92871h-.04834a4.14983,4.14983,0,0,1-2.57714,1.12109A2.117,2.117,0,0,1,319.94434,87.9834Zm4.77.1123V85.93457c-2.59327.32031-3.48926.96-3.48926,1.95215,0,.88086.60791,1.249,1.37646,1.249A3.15419,3.15419,0,0,0,324.71436,88.0957Z" fill="#b0b0b0"/><path d="M327.7041,93.18555l.25635-1.041a2.25256,2.25256,0,0,0,.59228.11231c.88038,0,1.44043-.70411,1.76075-1.665l.17578-.57618-3.1211-7.79492h1.36036l1.585,4.30567c.24023.67285.5122,1.47265.75195,2.19336h.06445c.22412-.70411.44824-1.50489.65625-2.19336l1.39258-4.30567H334.459l-2.92919,8.41992c-.54395,1.53614-1.34424,2.70508-2.91309,2.70508A2.59339,2.59339,0,0,1,327.7041,93.18555Z" fill="#b0b0b0"/><path d="M341.44922,88.91113V81.38867h-1.85645V80.54a6.08472,6.08472,0,0,0,2.16114-.752h1.00781v9.123H344.875V90h-5.7627V88.91113Z" fill="#b0b0b0"/><path d="M448.26611,79.5c3.23291,0,4.96192,1.87207,4.96192,5.20215,0,3.34473-1.729,5.29785-4.89795,5.29785h-2.689V79.5Zm3.58545,5.20215c0-2.6416-1.23242-4.11426-3.68164-4.11426h-1.20019v8.32324h1.20019C450.61914,88.91113,451.85156,87.35938,451.85156,84.70215Z" fill="#b0b0b0"/><path d="M454.77637,86.126c0-2.54493,1.71289-4.09766,3.48925-4.09766,1.98536,0,3.10547,1.4248,3.10547,3.65039a5.06584,5.06584,0,0,1-.04785.752h-5.25a2.58008,2.58008,0,0,0,2.59278,2.70508,3.517,3.517,0,0,0,1.937-.6084l.46435.86426a4.63179,4.63179,0,0,1-2.56152.80078A3.72015,3.72015,0,0,1,454.77637,86.126Zm3.52148-3.05664a2.40189,2.40189,0,0,0-2.24072,2.417h4.16162C460.21875,83.918,459.51465,83.06934,458.29785,83.06934Z" fill="#b0b0b0"/><path d="M462.7124,86.126a3.76788,3.76788,0,0,1,3.74561-4.09766,3.22791,3.22791,0,0,1,2.27246.91309l-.67188.86425a2.28119,2.28119,0,0,0-1.55273-.68847c-1.4082,0-2.43262,1.21679-2.43262,3.00879,0,1.77734.97608,2.97754,2.40039,2.97754a2.76337,2.76337,0,0,0,1.8252-.78418l.57617.87988a3.79225,3.79225,0,0,1-2.51318.99316C464.29688,90.19238,462.7124,88.70312,462.7124,86.126Z" fill="#b0b0b0"/><path d="M469.94434,87.9834c0-1.69727,1.45654-2.54492,4.77-2.91309,0-.99316-.31983-1.95312-1.60059-1.95312a4.22879,4.22879,0,0,0-2.3208.832l-.5127-.91211a5.77926,5.77926,0,0,1,3.05762-1.00879c1.9043,0,2.70508,1.26465,2.70508,3.20215V90H474.9541l-.11181-.92871h-.04786a4.151,4.151,0,0,1-2.57714,1.12109A2.117,2.117,0,0,1,469.94434,87.9834Zm4.77.1123V85.93457c-2.59327.32031-3.48975.96-3.48975,1.95215,0,.88086.6084,1.249,1.377,1.249A3.15514,3.15514,0,0,0,474.71436,88.0957Z" fill="#b0b0b0"/><path d="M477.7041,93.18555l.25635-1.041a2.24871,2.24871,0,0,0,.59228.11231c.87989,0,1.44043-.70411,1.76075-1.665l.17578-.57618-3.1211-7.79492h1.36036l1.585,4.30567c.24023.67285.51172,1.47265.75195,2.19336h.06445c.22364-.70411.44824-1.50489.65625-2.19336l1.39258-4.30567H484.459l-2.92919,8.41992c-.54444,1.53614-1.34424,2.70508-2.91309,2.70508A2.59339,2.59339,0,0,1,477.7041,93.18555Z" fill="#b0b0b0"/><path d="M493.29,82.669a1.8089,1.8089,0,0,0-1.93652-2.001,3.01037,3.01037,0,0,0-2.17676,1.23242l-.75293-.752a4.00835,4.00835,0,0,1,3.08984-1.55274,2.836,2.836,0,0,1,3.05664,3.00977c0,1.91992-1.74414,3.82519-4.16113,6.35449.56006-.04883,1.18457-.09668,1.7124-.09668H495.083V90h-6.59473v-.78418C491.56152,86.1582,493.29,84.31738,493.29,82.669Z" fill="#b0b0b0"/><path d="M619.03467,79.5c2.145,0,3.68115.76758,3.68115,2.94531a2.8662,2.8662,0,0,1-2.36865,2.97657L623.02051,90h-1.50489l-2.52929-4.43359H617.082V90h-1.32861V79.5Zm2.353,2.94531c0-1.377-.91211-1.873-2.54493-1.873H617.082v3.90527h1.76074C620.47559,84.47754,621.3877,83.80566,621.3877,82.44531Z" fill="#b0b0b0"/><path d="M623.99316,86.126c0-2.54493,1.71241-4.09766,3.48926-4.09766,1.98438,0,3.10547,1.4248,3.10547,3.65039a5.12662,5.12662,0,0,1-.04834.752h-5.25049a2.58084,2.58084,0,0,0,2.59375,2.70508,3.51538,3.51538,0,0,0,1.93653-.6084l.46386.86426a4.62711,4.62711,0,0,1-2.56054.80078A3.7199,3.7199,0,0,1,623.99316,86.126Zm3.52149-3.05664a2.40227,2.40227,0,0,0-2.24121,2.417h4.16162C629.43506,83.918,628.73047,83.06934,627.51465,83.06934Z" fill="#b0b0b0"/><path d="M632.50488,88.43164V78.60352h1.3125v9.92382c0,.416.17578.57618.36817.57618a1.09511,1.09511,0,0,0,.28808-.03223l.17578.99316a1.76417,1.76417,0,0,1-.75195.12793C632.90527,90.19238,632.50488,89.56738,632.50488,88.43164Z" fill="#b0b0b0"/><path d="M636.00879,86.126c0-2.54493,1.7124-4.09766,3.48926-4.09766,1.98437,0,3.10547,1.4248,3.10547,3.65039a5.128,5.128,0,0,1-.04834.752h-5.25049a2.58084,2.58084,0,0,0,2.59375,2.70508,3.51532,3.51532,0,0,0,1.93652-.6084l.46387.86426a4.62717,4.62717,0,0,1-2.56055.80078A3.7199,3.7199,0,0,1,636.00879,86.126Zm3.52148-3.05664a2.40228,2.40228,0,0,0-2.24121,2.417h4.16162C641.45068,83.918,640.74609,83.06934,639.53027,83.06934Z" fill="#b0b0b0"/><path d="M643.81641,87.9834c0-1.69727,1.45654-2.54492,4.77-2.91309,0-.99316-.31983-1.95312-1.60059-1.95312a4.22879,4.22879,0,0,0-2.3208.832l-.5127-.91211A5.77926,5.77926,0,0,1,647.21,82.02832c1.9043,0,2.70508,1.26465,2.70508,3.20215V90h-1.08887l-.11181-.92871h-.04786a4.151,4.151,0,0,1-2.57714,1.12109A2.117,2.117,0,0,1,643.81641,87.9834Zm4.77.1123V85.93457c-2.59327.32031-3.48975.96-3.48975,1.95215,0,.88086.6084,1.249,1.37695,1.249A3.15514,3.15514,0,0,0,648.58643,88.0957Z" fill="#b0b0b0"/><path d="M651.49609,89.12012l.65625-.88086a3.50114,3.50114,0,0,0,2.28907.92871c1.02441,0,1.53662-.54492,1.53662-1.2168,0-.80078-.92823-1.15234-1.77686-1.47265-1.10449-.4004-2.3208-.92872-2.3208-2.24122,0-1.248.99268-2.209,2.67334-2.209a3.88238,3.88238,0,0,1,2.417.88086l-.62451.832a2.89252,2.89252,0,0,0-1.77685-.68848c-.97657,0-1.42432.52832-1.42432,1.1211,0,.73633.84814,1.00781,1.72852,1.34472,1.1206.416,2.36914.87989,2.36914,2.35254,0,1.26465-1.0083,2.32129-2.84913,2.32129A4.68812,4.68812,0,0,1,651.49609,89.12012Z" fill="#b0b0b0"/><path d="M658.48828,86.126c0-2.54493,1.71289-4.09766,3.48926-4.09766,1.98486,0,3.10547,1.4248,3.10547,3.65039a5.13452,5.13452,0,0,1-.04785.752h-5.25049a2.58046,2.58046,0,0,0,2.59326,2.70508,3.51407,3.51407,0,0,0,1.93652-.6084l.46436.86426a4.62883,4.62883,0,0,1-2.561.80078A3.7199,3.7199,0,0,1,658.48828,86.126Zm3.52149-3.05664a2.40228,2.40228,0,0,0-2.24122,2.417h4.16211C663.93066,83.918,663.22607,83.06934,662.00977,83.06934Z" fill="#b0b0b0"/><path d="M210.00115,339.99971C210,170,240,140,270,140,270,310,240,340,210.00115,339.99971Z" fill="#6d718a"/><path d="M210,340H710c-70,0-130-14.1667-140-60-100,0-180-10-200-60L270,140h-.00114C270,310,240,340,210,340Z" fill="#535568"/><line x1="160" y1="750" x2="748.69849" y2="750" fill="none" stroke="#7f7f7f" stroke-width="1.2"/><polygon points="744.722 754.908 743.904 754.029 748.238 750.001 743.904 745.972 744.722 745.093 750 750.001 744.722 754.908" fill="#7f7f7f"/><line x1="170" y1="770" x2="170" y2="491.3014" fill="none" stroke="#7f7f7f" stroke-width="1.2"/><polygon points="174.908 495.278 174.029 496.096 170.001 491.762 165.972 496.096 165.093 495.278 170.001 490 174.908 495.278" fill="#7f7f7f"/><line x1="160" y1="340.00001" x2="748.69849" y2="340" fill="none" stroke="#7f7f7f" stroke-width="1.2"/><polygon points="744.722 344.908 743.904 344.029 748.238 340.001 743.904 335.972 744.722 335.093 750 340.001 744.722 344.908" fill="#7f7f7f"/><line x1="170" y1="360" x2="170" y2="81.30139" fill="none" stroke="#7f7f7f" stroke-width="1.2"/><polygon points="174.908 85.278 174.029 86.096 170.001 81.762 165.972 86.096 165.093 85.278 170.001 80 174.908 85.278" fill="#7f7f7f"/><path d="M426.25244,733.08984c0-3.21093,1.15527-4.93554,3.0752-4.93554,1.90478,0,3.05957,1.72461,3.05957,4.93554,0,3.209-1.15479,4.99414-3.05957,4.99414C427.40771,738.084,426.25244,736.29883,426.25244,733.08984Zm4.93506,0c0-2.80664-.75-3.94531-1.85986-3.94531-1.125,0-1.875,1.13867-1.875,3.94531,0,2.80469.75,4.00391,1.875,4.00391C430.4375,737.09375,431.1875,735.89453,431.1875,733.08984Z" fill="#867768"/><path d="M436.57227,730.97461c0-1.96484.88525-3.08984,2.23486-3.08984,1.335,0,2.23535,1.125,2.23535,3.08984,0,1.99414-.90039,3.11914-2.23535,3.11914C437.45752,734.09375,436.57227,732.96875,436.57227,730.97461Zm3.5249,0c0-1.56055-.5249-2.32617-1.29-2.32617-.77979,0-1.30469.76562-1.30469,2.32617,0,1.55859.5249,2.35351,1.30469,2.35351C439.57227,733.32812,440.09717,732.5332,440.09717,730.97461Zm5.26513-3.08984L439.93213,738.084h-.83984l5.42968-10.19921Zm-1.935,7.08007c0-1.96679.88476-3.08984,2.23486-3.08984,1.335,0,2.23486,1.12305,2.23486,3.08984,0,1.99414-.8999,3.11914-2.23486,3.11914C444.312,738.084,443.42725,736.959,443.42725,734.96484Zm3.5249,0c0-1.56054-.5249-2.32617-1.29-2.32617-.77979,0-1.30518.76563-1.30518,2.32617,0,1.5586.52539,2.35352,1.30518,2.35352C446.42725,737.31836,446.95215,736.52344,446.95215,734.96484Z" fill="#867768"/><path d="M455.63086,698.2959a1.6951,1.6951,0,0,0-1.81494-1.875,2.8218,2.8218,0,0,0-2.04,1.15527l-.70508-.70508a3.75594,3.75594,0,0,1,2.895-1.45507,2.658,2.658,0,0,1,2.86475,2.82031c0,1.7998-1.63477,3.585-3.89991,5.95508.52491-.04493,1.10987-.09082,1.605-.09082h2.77491V705.166h-6.17969v-.73536C454.01074,701.56641,455.63086,699.84082,455.63086,698.2959Z" fill="#867768"/><path d="M458.36084,704.041l.59961-.80957a3.25849,3.25849,0,0,0,2.415,1.09472,2.06563,2.06563,0,0,0,2.1001-2.19043,1.923,1.923,0,0,0-2.04-2.09961,2.69135,2.69135,0,0,0-1.63477.585l-.66016-.41992.315-4.60449h4.78466v1.06445h-3.70459l-.25488,2.835a2.93453,2.93453,0,0,1,1.46973-.38964,2.75473,2.75473,0,0,1,2.96972,3,3.12864,3.12864,0,0,1-3.2246,3.23925A4.19379,4.19379,0,0,1,458.36084,704.041Z" fill="#867768"/><path d="M468.96533,698.23633c0-1.96485.88526-3.08985,2.23487-3.08985,1.335,0,2.23535,1.125,2.23535,3.08985,0,1.99512-.90039,3.12012-2.23535,3.12012C469.85059,701.35645,468.96533,700.23145,468.96533,698.23633Zm3.5249,0c0-1.55957-.5249-2.3252-1.29-2.3252-.77979,0-1.30469.76563-1.30469,2.3252s.5249,2.35449,1.30469,2.35449C471.96533,700.59082,472.49023,699.7959,472.49023,698.23633Zm5.26514-3.08985L472.3252,705.3457h-.83985l5.42969-10.19922Zm-1.93506,7.08008c0-1.96582.88477-3.08984,2.23487-3.08984,1.335,0,2.23486,1.124,2.23486,3.08984,0,1.99414-.8999,3.11914-2.23486,3.11914C476.70508,705.3457,475.82031,704.2207,475.82031,702.22656Zm3.5249,0c0-1.56054-.5249-2.32519-1.29-2.32519-.77979,0-1.30518.76465-1.30518,2.32519,0,1.55957.52539,2.35449,1.30518,2.35449C478.82031,704.58105,479.34521,703.78613,479.34521,702.22656Z" fill="#867768"/><path d="M463.24023,658.708l.6001-.80957a3.25764,3.25764,0,0,0,2.415,1.09472,2.06524,2.06524,0,0,0,2.09961-2.19043,1.92283,1.92283,0,0,0-2.03955-2.09961,2.69376,2.69376,0,0,0-1.63525.585l-.65967-.41993.31494-4.60449h4.78467v1.06445H465.415l-.25488,2.835a2.9376,2.9376,0,0,1,1.47021-.38965,2.75473,2.75473,0,0,1,2.96973,3,3.129,3.129,0,0,1-3.2251,3.23926A4.19465,4.19465,0,0,1,463.24023,658.708Z" fill="#867768"/><path d="M470.98,655.01855c0-3.21,1.15527-4.93554,3.0752-4.93554,1.90478,0,3.05957,1.72558,3.05957,4.93554s-1.15479,4.99415-3.05957,4.99415C472.13525,660.0127,470.98,658.22852,470.98,655.01855Zm4.93506,0c0-2.80566-.75-3.94531-1.85986-3.94531-1.125,0-1.875,1.13965-1.875,3.94531,0,2.80469.75,4.00489,1.875,4.00489C475.165,659.02344,475.915,657.82324,475.915,655.01855Z" fill="#867768"/><path d="M481.2998,652.90332c0-1.96484.88526-3.08984,2.23487-3.08984,1.335,0,2.23535,1.125,2.23535,3.08984,0,1.99512-.90039,3.12012-2.23535,3.12012C482.18506,656.02344,481.2998,654.89844,481.2998,652.90332Zm3.52491,0c0-1.55957-.52491-2.3252-1.29-2.3252-.77979,0-1.30469.76563-1.30469,2.3252s.5249,2.35449,1.30469,2.35449C484.2998,655.25781,484.82471,654.46289,484.82471,652.90332Zm5.26513-3.08984-5.43017,10.19922h-.83985l5.42969-10.19922Zm-1.935,7.08007c0-1.96582.88476-3.08984,2.23486-3.08984,1.335,0,2.23486,1.124,2.23486,3.08984,0,1.99415-.8999,3.11915-2.23486,3.11915C489.03955,660.0127,488.15479,658.8877,488.15479,656.89355Zm3.5249,0c0-1.56054-.5249-2.32519-1.29-2.32519-.77979,0-1.30518.76465-1.30518,2.32519,0,1.55957.52539,2.3545,1.30518,2.3545C491.15479,659.24805,491.67969,658.45312,491.67969,656.89355Z" fill="#867768"/><path d="M478.29492,604.49512h-4.76953v-1.06446h6.16455v.76465c-2.26465,2.89453-2.73,5.07031-2.89453,8.80469H475.52A14.08832,14.08832,0,0,1,478.29492,604.49512Z" fill="#867768"/><path d="M480.69531,611.875l.59961-.80957a3.25846,3.25846,0,0,0,2.415,1.09473,2.06563,2.06563,0,0,0,2.1001-2.19043,1.923,1.923,0,0,0-2.04-2.09961,2.69135,2.69135,0,0,0-1.63477.585l-.66015-.41992.31494-4.6045h4.78467v1.06446h-3.70459l-.25489,2.835a2.93443,2.93443,0,0,1,1.46973-.38965,2.75474,2.75474,0,0,1,2.96973,3,3.12865,3.12865,0,0,1-3.22461,3.23926A4.19376,4.19376,0,0,1,480.69531,611.875Z" fill="#867768"/><path d="M491.2998,606.07031c0-1.96484.88526-3.08984,2.23487-3.08984,1.335,0,2.23535,1.125,2.23535,3.08984,0,1.99512-.90039,3.12012-2.23535,3.12012C492.18506,609.19043,491.2998,608.06543,491.2998,606.07031Zm3.52491,0c0-1.55957-.52491-2.32519-1.29-2.32519-.77979,0-1.30469.76562-1.30469,2.32519s.5249,2.35449,1.30469,2.35449C494.2998,608.4248,494.82471,607.62988,494.82471,606.07031Zm5.26513-3.08984-5.43017,10.19922h-.83985l5.42969-10.19922Zm-1.935,7.08008c0-1.96582.88476-3.08985,2.23486-3.08985,1.335,0,2.23486,1.124,2.23486,3.08985,0,1.99414-.8999,3.11914-2.23486,3.11914C499.03955,613.17969,498.15479,612.05469,498.15479,610.06055Zm3.5249,0c0-1.56055-.5249-2.3252-1.29-2.3252-.77979,0-1.30518.76465-1.30518,2.3252,0,1.55957.52539,2.35449,1.30518,2.35449C501.15479,612.415,501.67969,611.62012,501.67969,610.06055Z" fill="#867768"/><path d="M485.5127,564.041v-7.04981H483.773v-.79492a5.715,5.715,0,0,0,2.0249-.70508h.94483V564.041h1.98v1.01953h-5.39991V564.041Z" fill="#867768"/><path d="M490.25244,560.24609c0-3.21,1.15527-4.93554,3.0752-4.93554,1.90478,0,3.05957,1.72558,3.05957,4.93554s-1.15479,4.99414-3.05957,4.99414C491.40771,565.24023,490.25244,563.45605,490.25244,560.24609Zm4.93506,0c0-2.80566-.75-3.94531-1.85986-3.94531-1.125,0-1.875,1.13965-1.875,3.94531,0,2.80469.75,4.00489,1.875,4.00489C494.4375,564.251,495.1875,563.05078,495.1875,560.24609Z" fill="#867768"/><path d="M497.70752,560.24609c0-3.21,1.15527-4.93554,3.07519-4.93554,1.90479,0,3.05958,1.72558,3.05958,4.93554s-1.15479,4.99414-3.05958,4.99414C498.86279,565.24023,497.70752,563.45605,497.70752,560.24609Zm4.93506,0c0-2.80566-.75-3.94531-1.85987-3.94531-1.125,0-1.875,1.13965-1.875,3.94531,0,2.80469.75,4.00489,1.875,4.00489C501.89258,564.251,502.64258,563.05078,502.64258,560.24609Z" fill="#867768"/><path d="M508.02734,558.13086c0-1.96484.88526-3.08984,2.23487-3.08984,1.335,0,2.23535,1.125,2.23535,3.08984,0,1.99512-.90039,3.12012-2.23535,3.12012C508.9126,561.251,508.02734,560.126,508.02734,558.13086Zm3.52491,0c0-1.55957-.52491-2.3252-1.29-2.3252-.77979,0-1.30469.76563-1.30469,2.3252s.5249,2.35449,1.30469,2.35449C511.02734,560.48535,511.55225,559.69043,511.55225,558.13086Zm5.26513-3.08984-5.43017,10.19921h-.83985l5.42969-10.19921Zm-1.93506,7.08007c0-1.96582.88477-3.08984,2.23487-3.08984,1.335,0,2.23486,1.124,2.23486,3.08984,0,1.99414-.8999,3.11914-2.23486,3.11914C515.76709,565.24023,514.88232,564.11523,514.88232,562.12109Zm3.52491,0c0-1.56054-.52491-2.32519-1.29-2.32519-.77979,0-1.30518.76465-1.30518,2.32519,0,1.55957.52539,2.3545,1.30518,2.3545C517.88232,564.47559,518.40723,563.68066,518.40723,562.12109Z" fill="#867768"/><path d="M459.22021,533.66016V534.71h-4.4248v3.08984h3.73486v1.06543h-3.73486v3.56934h4.57471V543.5h-5.81983v-9.83984Z" fill="#867768"/><path d="M461.335,542.03027v-9.21h1.23v9.29981c0,.38965.165.54.34522.54a1.02647,1.02647,0,0,0,.27-.03028l.16455.92969a1.6488,1.6488,0,0,1-.70459.12012C461.71,543.67969,461.335,543.09473,461.335,542.03027Z" fill="#867768"/><path d="M464.62012,539.87012c0-2.38477,1.605-3.83985,3.26953-3.83985,1.86035,0,2.91015,1.335,2.91015,3.41993a4.79856,4.79856,0,0,1-.04492.70507H465.835a2.41806,2.41806,0,0,0,2.42969,2.53516,3.29424,3.29424,0,0,0,1.81494-.57031l.43506.80957a4.33783,4.33783,0,0,1-2.3999.75A3.48559,3.48559,0,0,1,464.62012,539.87012Zm3.2998-2.86524a2.25186,2.25186,0,0,0-2.1001,2.26563h3.89991C469.71973,537.7998,469.06006,537.00488,467.91992,537.00488Z" fill="#867768"/><path d="M472.89941,536.21l1.38038,4.14063c.21.71972.4497,1.4541.6748,2.14453h.06006c.21-.69043.44971-1.42481.65967-2.14453l1.38037-4.14063h1.21484l-2.58008,7.29h-1.43994l-2.625-7.29Z" fill="#867768"/><path d="M478.92969,541.61035c0-1.58984,1.36523-2.38476,4.46972-2.73047,0-.92968-.2998-1.83008-1.5-1.83008a3.96729,3.96729,0,0,0-2.1748.78028l-.48-.85449a5.40629,5.40629,0,0,1,2.86475-.94532c1.78515,0,2.53515,1.18457,2.53515,3V543.5h-1.02l-.105-.87012h-.04492a3.88694,3.88694,0,0,1-2.415,1.04981A1.98336,1.98336,0,0,1,478.92969,541.61035Zm4.46972.10449v-2.02441c-2.42968.2998-3.26953.89941-3.26953,1.83008,0,.82422.56983,1.16992,1.28955,1.16992A2.95536,2.95536,0,0,0,483.39941,541.71484Z" fill="#867768"/><path d="M486.93994,541.25v-4.03516h-1.08008v-.92968L487,536.21l.1499-2.04h1.03467v2.04h1.96533v1.00488h-1.96533v4.04981c0,.90039.28516,1.41015,1.125,1.41015a2.65208,2.65208,0,0,0,.8252-.19433l.23974.92969a4.50538,4.50538,0,0,1-1.34961.26953C487.46484,543.67969,486.93994,542.69043,486.93994,541.25Z" fill="#867768"/><path d="M491.0498,539.87012c0-2.38477,1.605-3.83985,3.27-3.83985,1.85987,0,2.90967,1.335,2.90967,3.41993a4.73307,4.73307,0,0,1-.04492.70507h-4.91943a2.41777,2.41777,0,0,0,2.42968,2.53516,3.29676,3.29676,0,0,0,1.815-.57031l.435.80957a4.3391,4.3391,0,0,1-2.3999.75A3.48569,3.48569,0,0,1,491.0498,539.87012Zm3.29981-2.86524a2.25181,2.25181,0,0,0-2.09961,2.26563h3.8999C496.1499,537.7998,495.48975,537.00488,494.34961,537.00488Z" fill="#867768"/><line x1="158.50035" y1="630.00154" x2="170.50035" y2="630" fill="none" stroke="#7f7f7f" stroke-width="1.2"/><line x1="158.50035" y1="550.00154" x2="170.50035" y2="550" fill="none" stroke="#7f7f7f" stroke-width="1.2"/><line x1="158.50035" y1="280.00154" x2="170.50035" y2="280" fill="none" stroke="#7f7f7f" stroke-width="1.2"/><line x1="158.50035" y1="220.00154" x2="170.50035" y2="220" fill="none" stroke="#7f7f7f" stroke-width="1.2"/><line x1="158.50035" y1="140.00154" x2="170.50035" y2="140" fill="none" stroke="#7f7f7f" stroke-width="1.2"/><line x1="210" y1="770" x2="210" y2="769" fill="none" stroke="#666"/><line x1="210" y1="767" x2="210" y2="512" fill="none" stroke="#666" stroke-dasharray="2 2"/><line x1="210" y1="511" x2="210" y2="510" fill="none" stroke="#666"/><line x1="170" y1="550" x2="171" y2="550" fill="none" stroke="#666"/><line x1="173" y1="550" x2="268" y2="550" fill="none" stroke="#666" stroke-dasharray="2 2"/><line x1="269" y1="550" x2="270" y2="550" fill="none" stroke="#666"/><line x1="270" y1="750" x2="270" y2="749" fill="none" stroke="#666"/><line x1="270" y1="747" x2="270" y2="512" fill="none" stroke="#666" stroke-dasharray="2 2"/><line x1="270" y1="511" x2="270" y2="510" fill="none" stroke="#666"/><line x1="370" y1="750" x2="370" y2="749" fill="none" stroke="#666"/><line x1="370" y1="747" x2="370" y2="512" fill="none" stroke="#666" stroke-dasharray="2 2"/><line x1="370" y1="511" x2="370" y2="510" fill="none" stroke="#666"/><line x1="550" y1="770" x2="550" y2="769" fill="none" stroke="#666"/><line x1="550" y1="767" x2="550" y2="512" fill="none" stroke="#666" stroke-dasharray="2 2"/><line x1="550" y1="511" x2="550" y2="510" fill="none" stroke="#666"/><line x1="170" y1="630" x2="171" y2="630" fill="none" stroke="#666"/><line x1="173" y1="630" x2="368" y2="630" fill="none" stroke="#666" stroke-dasharray="2 2"/><line x1="369" y1="630" x2="370" y2="630" fill="none" stroke="#666"/><line x1="210" y1="360" x2="210" y2="359" fill="none" stroke="#666"/><line x1="210" y1="357" x2="210" y2="102" fill="none" stroke="#666" stroke-dasharray="2 2"/><line x1="210" y1="101" x2="210" y2="100" fill="none" stroke="#666"/><line x1="170" y1="140" x2="171" y2="140" fill="none" stroke="#666"/><line x1="173" y1="140" x2="268" y2="140" fill="none" stroke="#666" stroke-dasharray="2 2"/><line x1="269" y1="140" x2="270" y2="140" fill="none" stroke="#666"/><line x1="270" y1="340" x2="270" y2="339" fill="none" stroke="#666"/><line x1="270" y1="337" x2="270" y2="102" fill="none" stroke="#666" stroke-dasharray="2 2"/><line x1="270" y1="101" x2="270" y2="100" fill="none" stroke="#666"/><line x1="370" y1="340" x2="370" y2="339" fill="none" stroke="#666"/><line x1="370" y1="337" x2="370" y2="102" fill="none" stroke="#666" stroke-dasharray="2 2"/><line x1="370" y1="101" x2="370" y2="100" fill="none" stroke="#666"/><line x1="570" y1="360" x2="570" y2="359" fill="none" stroke="#666"/><line x1="570" y1="357" x2="570" y2="102" fill="none" stroke="#666" stroke-dasharray="2 2"/><line x1="570" y1="101" x2="570" y2="100" fill="none" stroke="#666"/><line x1="170" y1="280" x2="171" y2="280" fill="none" stroke="#666"/><line x1="173" y1="280" x2="568" y2="280" fill="none" stroke="#666" stroke-dasharray="2 2"/><line x1="569" y1="280" x2="570" y2="280" fill="none" stroke="#666"/><line x1="170" y1="220" x2="171" y2="220" fill="none" stroke="#666"/><line x1="173" y1="220" x2="368" y2="220" fill="none" stroke="#666" stroke-dasharray="2 2"/><line x1="369" y1="220" x2="370" y2="220" fill="none" stroke="#666"/><path d="M710,750c-80-2.5-150-40-160-50-100,0-160-45-180-90L270,550" fill="none" stroke="#8a5e34"/><path d="M710,750c-80-5-150-80-160-100-100,0-160-30-180-60L270,550" fill="none" stroke="#8a5e34"/><path d="M710,750c-80-7.5-150-120-160-150-100,0-160-15-180-30L270,550" fill="none" stroke="#8a5e34"/><path d="M710,750c-80-10-150-160-160-200H270" fill="none" stroke="#8a5e34"/><line x1="270" y1="550" x2="210" y2="750" fill="none" stroke="#e9a460" stroke-width="1.4"/><path d="M710,340c-70,0-130-14.1667-140-60-100,0-180-10-200-60L270,140" fill="none" stroke="#e9a460" stroke-width="1.4"/><path d="M710,750H550c-100,0-160-60-180-120L270,550" fill="none" stroke="#e9a460" stroke-width="1.4"/><path d="M270,140c0,170-30,200-60,200" fill="none" stroke="#e9a460" stroke-width="1.4" stroke-dasharray="6 3"/><path d="M210,339.99971C210,170,240,140,270.00006,140" fill="none" stroke="#e9a460" stroke-width="1.4" stroke-dasharray="6 3"/><line x1="270.00006" y1="140" x2="210" y2="340" fill="none" stroke="#e9a460" stroke-width="1.4"/><path d="M437.58105,717.87915c17.27393-38.05948,33.14649-118.52441,36.99024-166.67125" fill="none" stroke="#867768" stroke-width="1.4" stroke-dasharray="2 2"/><polygon points="478.736 555.357 477.844 556.036 474.504 551.638 470.361 555.291 469.621 554.449 474.667 550.002 478.736 555.357" fill="#867768"/><circle cx="270" cy="550" r="4.5" fill="#c46417"/><path d="M270,546a4,4,0,1,1-4,4,4.00455,4.00455,0,0,1,4-4m0-1a5,5,0,1,0,5,5,5,5,0,0,0-5-5Z" fill="#fff"/><path d="M270,545a5,5,0,1,1-5,5,5,5,0,0,1,5-5m0-1a6,6,0,1,0,6,6,6.00684,6.00684,0,0,0-6-6Z"/><circle cx="550" cy="750" r="4.5" fill="#c46417"/><path d="M550,746a4,4,0,1,1-4,4,4.00456,4.00456,0,0,1,4-4m0-1a5,5,0,1,0,5,5,5,5,0,0,0-5-5Z" fill="#fff"/><path d="M550,745a5,5,0,1,1-5,5,5,5,0,0,1,5-5m0-1a6,6,0,1,0,6,6,6.00684,6.00684,0,0,0-6-6Z"/><circle cx="370" cy="630" r="4.5" fill="#c46417"/><path d="M370,626a4,4,0,1,1-4,4,4.00455,4.00455,0,0,1,4-4m0-1a5,5,0,1,0,5,5,5,5,0,0,0-5-5Z" fill="#fff"/><path d="M370,625a5,5,0,1,1-5,5,5,5,0,0,1,5-5m0-1a6,6,0,1,0,6,6,6.00684,6.00684,0,0,0-6-6Z"/><circle cx="270" cy="140" r="4.5" fill="#c46417"/><path d="M270,136a4,4,0,1,1-4,4,4.00455,4.00455,0,0,1,4-4m0-1a5,5,0,1,0,5,5,5,5,0,0,0-5-5Z" fill="#fff"/><path d="M270,135a5,5,0,1,1-5,5,5,5,0,0,1,5-5m0-1a6,6,0,1,0,6,6,6.00684,6.00684,0,0,0-6-6Z"/><circle cx="570" cy="279" r="4.5" fill="#c46417"/><path d="M570,275a4,4,0,1,1-4,4,4.00455,4.00455,0,0,1,4-4m0-1a5,5,0,1,0,5,5,5,5,0,0,0-5-5Z" fill="#fff"/><path d="M570,274a5,5,0,1,1-5,5,5,5,0,0,1,5-5m0-1a6,6,0,1,0,6,6,6.00684,6.00684,0,0,0-6-6Z"/><circle cx="370" cy="220" r="4.5" fill="#c46417"/><path d="M370,216a4,4,0,1,1-4,4,4.00455,4.00455,0,0,1,4-4m0-1a5,5,0,1,0,5,5,5,5,0,0,0-5-5Z" fill="#fff"/><path d="M370,215a5,5,0,1,1-5,5,5,5,0,0,1,5-5m0-1a6,6,0,1,0,6,6,6.00684,6.00684,0,0,0-6-6Z"/></svg>