<svg xmlns="http://www.w3.org/2000/svg" viewBox="0 0 1330 400"><title>outmix</title><rect x="0.5" y="0.5" width="1329" height="399" rx="3.5" ry="3.5" fill="#141414"/><path d="M1326,1a3.00352,3.00352,0,0,1,3,3V396a3.00352,3.00352,0,0,1-3,3H4a3.00336,3.00336,0,0,1-3-3V4A3.00336,3.00336,0,0,1,4,1H1326m0-1H4A4.00012,4.00012,0,0,0,0,4V396a4.00008,4.00008,0,0,0,4,4H1326a3.99992,3.99992,0,0,0,4-4V4a4,4,0,0,0-4-4Z" fill="#666"/><path d="M736,210.7002H904.00024A5.2998,5.2998,0,0,1,909.3,216v47.99976a5.3,5.3,0,0,1-5.3,5.3H736a5.3,5.3,0,0,1-5.3-5.3V216.00024a5.3,5.3,0,0,1,5.3-5.3Z" fill="#31333d"/><path d="M904,211.4a4.60533,4.60533,0,0,1,4.6001,4.6v48A4.60533,4.60533,0,0,1,904,268.6H736a4.60517,4.60517,0,0,1-4.6001-4.6V216A4.60517,4.60517,0,0,1,736,211.4H904m0-1.4H736a6.01778,6.01778,0,0,0-6,6v48a6.01778,6.01778,0,0,0,6,6H904a6.01761,6.01761,0,0,0,6-6V216a6.01761,6.01761,0,0,0-6-6Z" fill="#e9a460"/><path d="M636,220.7002h48.00024A5.2998,5.2998,0,0,1,689.3,226v27.99976a5.3,5.3,0,0,1-5.3,5.3H635.99976A5.2998,5.2998,0,0,1,630.7,254V226.00024A5.3,5.3,0,0,1,636,220.7002Z" fill="#31333d"/><path d="M684,221.4a4.60517,4.60517,0,0,1,4.6001,4.6v28A4.60517,4.60517,0,0,1,684,258.6H636a4.60517,4.60517,0,0,1-4.6001-4.6V226A4.60517,4.60517,0,0,1,636,221.4h48m0-1.4H636a6.01778,6.01778,0,0,0-6,6v28a6.01778,6.01778,0,0,0,6,6h48a6.01778,6.01778,0,0,0,6-6V226a6.01778,6.01778,0,0,0-6-6Z" fill="#e9a460"/><path d="M94.99983,165.7002h38.00061a5.29973,5.29973,0,0,1,5.29973,5.29973v17.99983a5.3,5.3,0,0,1-5.3,5.3H94.99976A5.2998,5.2998,0,0,1,89.7,189V171.00007A5.29988,5.29988,0,0,1,94.99983,165.7002Z" fill="#31333d"/><path d="M133.00012,166.4a4.60517,4.60517,0,0,1,4.6001,4.6v18a4.60517,4.60517,0,0,1-4.6001,4.6h-38A4.60517,4.60517,0,0,1,90.4,189V171a4.60517,4.60517,0,0,1,4.6001-4.6h38m0-1.4h-38a6.01746,6.01746,0,0,0-6,6v18a6.01746,6.01746,0,0,0,6,6h38a6.01777,6.01777,0,0,0,6-6V171a6.01777,6.01777,0,0,0-6-6Z" fill="#e9a460"/><path d="M235,165.7002h38.00012a5.3,5.3,0,0,1,5.3,5.3v17.99951a5.3,5.3,0,0,1-5.3,5.3H234.99976A5.2998,5.2998,0,0,1,229.7,189V171.00024a5.3,5.3,0,0,1,5.3-5.3Z" fill="#31333d"/><path d="M273.00012,166.4a4.60517,4.60517,0,0,1,4.6001,4.6v18a4.60517,4.60517,0,0,1-4.6001,4.6h-38A4.60517,4.60517,0,0,1,230.4,189V171a4.60517,4.60517,0,0,1,4.6001-4.6h38m0-1.4h-38a6.01746,6.01746,0,0,0-6,6v18a6.01746,6.01746,0,0,0,6,6h38a6.01777,6.01777,0,0,0,6-6V171a6.01777,6.01777,0,0,0-6-6Z" fill="#e9a460"/><path d="M375,165.7002h38.00044a5.29973,5.29973,0,0,1,5.29973,5.29973v17.99983a5.3,5.3,0,0,1-5.3,5.3H375a5.3,5.3,0,0,1-5.3-5.3V171.00024A5.3,5.3,0,0,1,375,165.7002Z" fill="#31333d"/><path d="M413.00012,166.4a4.60517,4.60517,0,0,1,4.6001,4.6v18a4.60517,4.60517,0,0,1-4.6001,4.6h-38A4.60517,4.60517,0,0,1,370.4,189V171a4.60517,4.60517,0,0,1,4.6001-4.6h38m0-1.4h-38a6.01746,6.01746,0,0,0-6,6v18a6.01746,6.01746,0,0,0,6,6h38a6.01777,6.01777,0,0,0,6-6V171a6.01777,6.01777,0,0,0-6-6Z" fill="#e9a460"/><path d="M515,165.7002h38.00044a5.29973,5.29973,0,0,1,5.29973,5.29973v17.99983a5.3,5.3,0,0,1-5.3,5.3H514.99976A5.2998,5.2998,0,0,1,509.7,189V171.00024A5.3,5.3,0,0,1,515,165.7002Z" fill="#31333d"/><path d="M553.00012,166.4a4.60517,4.60517,0,0,1,4.6001,4.6v18a4.60517,4.60517,0,0,1-4.6001,4.6h-38A4.60517,4.60517,0,0,1,510.4,189V171a4.60517,4.60517,0,0,1,4.6001-4.6h38m0-1.4h-38a6.01746,6.01746,0,0,0-6,6v18a6.01746,6.01746,0,0,0,6,6h38a6.01777,6.01777,0,0,0,6-6V171a6.01777,6.01777,0,0,0-6-6Z" fill="#e9a460"/><rect x="940.69995" y="220.7002" width="98.6001" height="38.59961" rx="5.30005" ry="5.30005" fill="#31333d"/><path d="M1034,221.4a4.60533,4.60533,0,0,1,4.6001,4.6v28A4.60533,4.60533,0,0,1,1034,258.6H946a4.60533,4.60533,0,0,1-4.6001-4.6V226A4.60533,4.60533,0,0,1,946,221.4h88m0-1.4H946a6.01761,6.01761,0,0,0-6,6v28a6.01761,6.01761,0,0,0,6,6h88a6.01761,6.01761,0,0,0,6-6V226a6.01761,6.01761,0,0,0-6-6Z" fill="#e9a460"/><path d="M1000.387,360.87061v-5.39307h1.1626v5.4209c0,2.21338.93848,2.91357,2.14307,2.91357,1.21875,0,2.17114-.70019,2.17114-2.91357v-5.4209h1.12061v5.39307c0,2.95556-1.4148,3.96386-3.29175,3.96386S1000.387,363.82617,1000.387,360.87061Z" fill="#979797"/><path d="M1008.53418,363.896l.57446-.77051a3.06041,3.06041,0,0,0,2.00318.8125c.89648,0,1.34472-.47608,1.34472-1.06445,0-.7002-.8125-1.00879-1.55493-1.28858-.96655-.3501-2.031-.8125-2.031-1.96142,0-1.09229.8684-1.93262,2.33911-1.93262a3.39978,3.39978,0,0,1,2.11523.77l-.54639.72851a2.52789,2.52789,0,0,0-1.55493-.60205c-.85425,0-1.24658.46192-1.24658.98047,0,.644.74243.88233,1.51294,1.17676.98047.36377,2.073.77,2.073,2.05908,0,1.10645-.88233,2.03076-2.49341,2.03076A4.0986,4.0986,0,0,1,1008.53418,363.896Z" fill="#979797"/><path d="M1014.65234,361.27686a3.28291,3.28291,0,0,1,3.05371-3.58594c1.73682,0,2.71753,1.24658,2.71753,3.19336a4.48679,4.48679,0,0,1-.042.65869h-4.59448a2.25763,2.25763,0,0,0,2.269,2.36719,3.07575,3.07575,0,0,0,1.69507-.53223l.40625.75635a4.0568,4.0568,0,0,1-2.24121.70019A3.2552,3.2552,0,0,1,1014.65234,361.27686Zm4.7627-.56055c0-1.37256-.61646-2.11524-1.68091-2.11524a2.10272,2.10272,0,0,0-1.96118,2.11524Z" fill="#979797"/><path d="M1022.10034,357.85889h.95239l.09815,1.23242h.042a2.3279,2.3279,0,0,1,1.93311-1.40039,1.69611,1.69611,0,0,1,.72827.13965l-.22412,1.00879a1.90977,1.90977,0,0,0-.65821-.11231c-.57446,0-1.26074.42041-1.7229,1.56934v4.37011h-1.14868Z" fill="#979797"/><path d="M1029.87012,355.47754h1.16259v9.189h-1.16259Z" fill="#979797"/><path d="M1033.43994,357.85889h.95239l.09815.98047h.042a3.20789,3.20789,0,0,1,2.2832-1.14844c1.42871,0,2.07325.92431,2.07325,2.66113v4.31445h-1.14869v-4.16015c0-1.2749-.39233-1.82129-1.28881-1.82129-.7002,0-1.17652.36426-1.863,1.05078v4.93066h-1.14844Z" fill="#979797"/><path d="M1041.294,362.56543v-3.76807h-1.00855v-.86865l1.0647-.06982.13989-1.90528h.96655v1.90528h1.835v.93847h-1.835v3.78223c0,.84033.26612,1.31641,1.05054,1.31641a2.47456,2.47456,0,0,0,.77051-.18213l.22412.86865a4.20584,4.20584,0,0,1-1.26074.252C1041.78418,364.83447,1041.294,363.91016,1041.294,362.56543Z" fill="#979797"/><path d="M1045.12964,361.27686a3.28291,3.28291,0,0,1,3.05371-3.58594c1.73706,0,2.71753,1.24658,2.71753,3.19336a4.48679,4.48679,0,0,1-.042.65869h-4.59449a2.25779,2.25779,0,0,0,2.269,2.36719,3.07578,3.07578,0,0,0,1.69507-.53223l.40625.75635a4.05683,4.05683,0,0,1-2.24122.70019A3.2552,3.2552,0,0,1,1045.12964,361.27686Zm4.76269-.56055c0-1.37256-.61645-2.11524-1.6809-2.11524a2.10273,2.10273,0,0,0-1.96119,2.11524Z" fill="#979797"/><path d="M1052.57764,357.85889h.95239l.09814,1.23242h.042a2.32787,2.32787,0,0,1,1.9331-1.40039,1.69611,1.69611,0,0,1,.72827.13965l-.22412,1.00879a1.90971,1.90971,0,0,0-.6582-.11231c-.57446,0-1.26074.42041-1.72315,1.56934v4.37011h-1.14843Z" fill="#979797"/><path d="M1057.63159,358.79736h-.92456v-.86865l.92456-.06982v-1.07862c0-1.38672.63037-2.25537,1.989-2.25537a3.08737,3.08737,0,0,1,1.13476.22412l-.2522.88282a1.90945,1.90945,0,0,0-.7705-.16846c-.64429,0-.9524.44824-.9524,1.31689v1.07862h1.44263v.93847h-1.44263v5.86914h-1.14868Z" fill="#979797"/><path d="M1060.82324,362.90137c0-1.48487,1.2749-2.227,4.17432-2.54932,0-.86816-.28-1.709-1.40064-1.709a3.70207,3.70207,0,0,0-2.03125.72851l-.44824-.79834a5.05312,5.05312,0,0,1,2.67554-.88232c1.667,0,2.36719,1.10644,2.36719,2.80127v4.17431h-.9524l-.09814-.8125h-.042a3.63156,3.63156,0,0,1-2.25513.98047A1.85254,1.85254,0,0,1,1060.82324,362.90137Zm4.17432.09814V361.1084c-2.269.28027-3.05371.84082-3.05371,1.709,0,.77051.53247,1.09278,1.20483,1.09278A2.75914,2.75914,0,0,0,1064.99756,362.99951Z" fill="#979797"/><path d="M1067.79517,361.27686a3.29708,3.29708,0,0,1,3.27783-3.58594,2.82566,2.82566,0,0,1,1.989.79834l-.58838.75635a1.99628,1.99628,0,0,0-1.35864-.60254c-1.23267,0-2.12915,1.06494-2.12915,2.63379,0,1.55468.85449,2.60546,2.10107,2.60546a2.42089,2.42089,0,0,0,1.59693-.68652l.50439.77051a3.32323,3.32323,0,0,1-2.19922.86816C1069.18188,364.83447,1067.79517,363.53174,1067.79517,361.27686Z" fill="#979797"/><path d="M1073.885,361.27686a3.28291,3.28291,0,0,1,3.05371-3.58594c1.73706,0,2.71753,1.24658,2.71753,3.19336a4.48679,4.48679,0,0,1-.042.65869h-4.59448a2.25777,2.25777,0,0,0,2.269,2.36719,3.07578,3.07578,0,0,0,1.69507-.53223l.40625.75635a4.05683,4.05683,0,0,1-2.24121.70019A3.2552,3.2552,0,0,1,1073.885,361.27686Zm4.7627-.56055c0-1.37256-.61646-2.11524-1.68091-2.11524a2.10272,2.10272,0,0,0-1.96118,2.11524Z" fill="#979797"/><path d="M1083.71289,360.07178c0-2.95557,1.73706-4.76221,4.07642-4.76221a3.35327,3.35327,0,0,1,2.52124,1.13428l-.63037.75683a2.51049,2.51049,0,0,0-1.877-.86865c-1.73681,0-2.8855,1.42871-2.8855,3.71192,0,2.31152,1.10645,3.76806,2.84351,3.76806a2.77232,2.77232,0,0,0,2.12915-1.03662l.64429.72852a3.55529,3.55529,0,0,1-2.81543,1.33056C1085.42188,364.83447,1083.71289,363.06982,1083.71289,360.07178Z" fill="#979797"/><path d="M1091.6228,361.27686c0-2.28321,1.48487-3.58594,3.15186-3.58594,1.66675,0,3.15161,1.30273,3.15161,3.58594a3.17489,3.17489,0,1,1-6.30347,0Zm5.1128,0c0-1.56885-.78443-2.63379-1.96094-2.63379-1.16284,0-1.96118,1.06494-1.96118,2.63379,0,1.55468.79834,2.60546,1.96118,2.60546C1095.95117,363.88232,1096.7356,362.83154,1096.7356,361.27686Z" fill="#979797"/><path d="M1099.71509,357.85889h.95239l.09814.98047h.042a3.20786,3.20786,0,0,1,2.2832-1.14844c1.42871,0,2.07324.92431,2.07324,2.66113v4.31445h-1.14868v-4.16015c0-1.2749-.39233-1.82129-1.28882-1.82129-.70019,0-1.17651.36426-1.86279,1.05078v4.93066h-1.14868Z" fill="#979797"/><path d="M1107.56909,362.56543v-3.76807h-1.00854v-.86865l1.06445-.06982.14014-1.90528h.96655v1.90528h1.835v.93847h-1.835v3.78223c0,.84033.26611,1.31641,1.05054,1.31641a2.4745,2.4745,0,0,0,.7705-.18213l.22413.86865a4.2059,4.2059,0,0,1-1.26075.252C1108.05933,364.83447,1107.56909,363.91016,1107.56909,362.56543Z" fill="#979797"/><path d="M1112.105,357.85889h.95239l.09815,1.23242h.042a2.3279,2.3279,0,0,1,1.93311-1.40039,1.69614,1.69614,0,0,1,.72827.13965l-.22412,1.00879a1.90981,1.90981,0,0,0-.65821-.11231c-.57446,0-1.26074.42041-1.72314,1.56934v4.37011H1112.105Z" fill="#979797"/><path d="M1116.31836,361.27686c0-2.28321,1.48486-3.58594,3.15185-3.58594,1.66675,0,3.15162,1.30273,3.15162,3.58594a3.17489,3.17489,0,1,1-6.30347,0Zm5.11279,0c0-1.56885-.78442-2.63379-1.96094-2.63379-1.16259,0-1.96118,1.06494-1.96118,2.63379,0,1.55468.79859,2.60546,1.96118,2.60546C1120.64673,363.88232,1121.43115,362.83154,1121.43115,361.27686Z" fill="#979797"/><path d="M1124.41064,363.294v-8.60108h1.14844v8.68506c0,.36426.1543.50439.32227.50439a.95583.95583,0,0,0,.25219-.02832l.15406.86866a1.55025,1.55025,0,0,1-.65845.11181C1124.76074,364.83447,1124.41064,364.28809,1124.41064,363.294Z" fill="#979797"/><ellipse cx="660" cy="215.62061" rx="1.03516" ry="1.05872" fill="#979797"/><path d="M660,210.75061a1.059,1.059,0,1,1-1.03516,1.05866A1.04707,1.04707,0,0,1,660,210.75061Z" fill="#979797"/><path d="M660,206.93927a1.059,1.059,0,1,1-1.03516,1.05872A1.04709,1.04709,0,0,1,660,206.93927Z" fill="#979797"/><path d="M660,203.12793a1.059,1.059,0,1,1-1.03516,1.05872A1.04709,1.04709,0,0,1,660,203.12793Z" fill="#979797"/><ellipse cx="660" cy="200.37531" rx="1.03516" ry="1.05872" fill="#979797"/><ellipse cx="660" cy="196.56396" rx="1.03516" ry="1.05872" fill="#979797"/><ellipse cx="660" cy="192.75262" rx="1.03516" ry="1.05872" fill="#979797"/><polygon points="666.135 213.403 665.036 212.38 660.001 217.798 654.965 212.38 653.867 213.403 660.001 220 666.135 213.403" fill="#979797"/><ellipse cx="1134" cy="246.90778" rx="1.20752" ry="1.18933" fill="#979797"/><ellipse cx="1134" cy="242.62622" rx="1.20752" ry="1.18933" fill="#979797"/><ellipse cx="1134" cy="238.34467" rx="1.20752" ry="1.18933" fill="#979797"/><ellipse cx="1134" cy="234.06311" rx="1.20752" ry="1.18933" fill="#979797"/><ellipse cx="1134" cy="229.78156" rx="1.20752" ry="1.18933" fill="#979797"/><ellipse cx="1134" cy="225.5" rx="1.20752" ry="1.18933" fill="#979797"/><ellipse cx="1134" cy="221.21844" rx="1.20752" ry="1.18933" fill="#979797"/><ellipse cx="1134" cy="216.93689" rx="1.20752" ry="1.18933" fill="#979797"/><ellipse cx="1134" cy="212.65533" rx="1.20752" ry="1.18933" fill="#979797"/><ellipse cx="1134" cy="208.37378" rx="1.20752" ry="1.18933" fill="#979797"/><ellipse cx="1134" cy="204.09222" rx="1.20752" ry="1.18933" fill="#979797"/><path d="M755,204.56189a1.059,1.059,0,1,1-1.03516,1.05872A1.047,1.047,0,0,1,755,204.56189Z" fill="#cacaca"/><path d="M755,200.75061a1.059,1.059,0,1,1-1.03516,1.05866A1.047,1.047,0,0,1,755,200.75061Z" fill="#cacaca"/><path d="M755,196.93927a1.059,1.059,0,1,1-1.03516,1.05872A1.047,1.047,0,0,1,755,196.93927Z" fill="#cacaca"/><path d="M755,193.12793a1.059,1.059,0,1,1-1.03516,1.05872A1.047,1.047,0,0,1,755,193.12793Z" fill="#cacaca"/><path d="M755,189.31659a1.059,1.059,0,1,1-1.03516,1.05872A1.047,1.047,0,0,1,755,189.31659Z" fill="#cacaca"/><path d="M755,185.50525a1.059,1.059,0,1,1-1.03516,1.05871A1.047,1.047,0,0,1,755,185.50525Z" fill="#cacaca"/><path d="M755,181.69391a1.059,1.059,0,1,1-1.03516,1.05871A1.047,1.047,0,0,1,755,181.69391Z" fill="#cacaca"/><polygon points="761.135 203.403 760.036 202.38 755.001 207.798 749.965 202.38 748.867 203.403 755.001 210 761.135 203.403" fill="#cacaca"/><path d="M820,204.56189a1.059,1.059,0,1,1-1.03516,1.05872A1.047,1.047,0,0,1,820,204.56189Z" fill="#cacaca"/><path d="M820,200.75061a1.059,1.059,0,1,1-1.03516,1.05866A1.047,1.047,0,0,1,820,200.75061Z" fill="#cacaca"/><path d="M820,196.93927a1.059,1.059,0,1,1-1.03516,1.05872A1.047,1.047,0,0,1,820,196.93927Z" fill="#cacaca"/><path d="M820,193.12793a1.059,1.059,0,1,1-1.03516,1.05872A1.047,1.047,0,0,1,820,193.12793Z" fill="#cacaca"/><path d="M820,189.31659a1.059,1.059,0,1,1-1.03516,1.05872A1.047,1.047,0,0,1,820,189.31659Z" fill="#cacaca"/><path d="M820,185.50525a1.059,1.059,0,1,1-1.03516,1.05871A1.047,1.047,0,0,1,820,185.50525Z" fill="#cacaca"/><path d="M820,181.69391a1.059,1.059,0,1,1-1.03516,1.05871A1.047,1.047,0,0,1,820,181.69391Z" fill="#cacaca"/><polygon points="826.135 203.403 825.036 202.38 820.001 207.798 814.965 202.38 813.867 203.403 820.001 210 826.135 203.403" fill="#cacaca"/><path d="M885,204.56189a1.059,1.059,0,1,1-1.03516,1.05872A1.047,1.047,0,0,1,885,204.56189Z" fill="#cacaca"/><path d="M885,200.75061a1.059,1.059,0,1,1-1.03516,1.05866A1.047,1.047,0,0,1,885,200.75061Z" fill="#cacaca"/><path d="M885,196.93927a1.059,1.059,0,1,1-1.03516,1.05872A1.047,1.047,0,0,1,885,196.93927Z" fill="#cacaca"/><path d="M885,193.12793a1.059,1.059,0,1,1-1.03516,1.05872A1.047,1.047,0,0,1,885,193.12793Z" fill="#cacaca"/><path d="M885,189.31659a1.059,1.059,0,1,1-1.03516,1.05872A1.047,1.047,0,0,1,885,189.31659Z" fill="#cacaca"/><path d="M885,185.50525a1.059,1.059,0,1,1-1.03516,1.05871A1.047,1.047,0,0,1,885,185.50525Z" fill="#cacaca"/><path d="M885,181.69391a1.059,1.059,0,1,1-1.03516,1.05871A1.047,1.047,0,0,1,885,181.69391Z" fill="#cacaca"/><polygon points="891.135 203.403 890.036 202.38 885.001 207.798 879.965 202.38 878.867 203.403 885.001 210 891.135 203.403" fill="#cacaca"/><ellipse cx="114" cy="96.57214" rx="1.03516" ry="1.07739" fill="#cacaca"/><ellipse cx="114" cy="92.6936" rx="1.03516" ry="1.07739" fill="#cacaca"/><path d="M114,87.73779a1.07819,1.07819,0,1,1-1.03516,1.07727A1.05679,1.05679,0,0,1,114,87.73779Z" fill="#cacaca"/><path d="M114,83.85925a1.07819,1.07819,0,1,1-1.03516,1.0774A1.05682,1.05682,0,0,1,114,83.85925Z" fill="#cacaca"/><ellipse cx="114" cy="81.05811" rx="1.03516" ry="1.07739" fill="#cacaca"/><ellipse cx="114" cy="77.17957" rx="1.03516" ry="1.07739" fill="#cacaca"/><path d="M114,72.22375a1.07819,1.07819,0,1,1-1.03516,1.07728A1.05679,1.05679,0,0,1,114,72.22375Z" fill="#cacaca"/><polygon points="120.135 94.403 119.036 93.38 114.001 98.798 108.965 93.38 107.867 94.403 114.001 101 120.135 94.403" fill="#cacaca"/><ellipse cx="254" cy="96.57214" rx="1.03516" ry="1.07739" fill="#cacaca"/><ellipse cx="254" cy="92.6936" rx="1.03516" ry="1.07739" fill="#cacaca"/><path d="M254,87.73779a1.07819,1.07819,0,1,1-1.03516,1.07727A1.05679,1.05679,0,0,1,254,87.73779Z" fill="#cacaca"/><path d="M254,83.85925a1.07819,1.07819,0,1,1-1.03516,1.0774A1.05682,1.05682,0,0,1,254,83.85925Z" fill="#cacaca"/><ellipse cx="254" cy="81.05811" rx="1.03516" ry="1.07739" fill="#cacaca"/><ellipse cx="254" cy="77.17957" rx="1.03516" ry="1.07739" fill="#cacaca"/><path d="M254,72.22375a1.07819,1.07819,0,1,1-1.03516,1.07728A1.05679,1.05679,0,0,1,254,72.22375Z" fill="#cacaca"/><polygon points="260.135 94.403 259.036 93.38 254.001 98.798 248.965 93.38 247.867 94.403 254.001 101 260.135 94.403" fill="#cacaca"/><ellipse cx="394" cy="96.57214" rx="1.03516" ry="1.07739" fill="#cacaca"/><ellipse cx="394" cy="92.6936" rx="1.03516" ry="1.07739" fill="#cacaca"/><path d="M394,87.73779a1.07819,1.07819,0,1,1-1.03516,1.07727A1.05679,1.05679,0,0,1,394,87.73779Z" fill="#cacaca"/><path d="M394,83.85925a1.07819,1.07819,0,1,1-1.03516,1.0774A1.05682,1.05682,0,0,1,394,83.85925Z" fill="#cacaca"/><ellipse cx="394" cy="81.05811" rx="1.03516" ry="1.07739" fill="#cacaca"/><ellipse cx="394" cy="77.17957" rx="1.03516" ry="1.07739" fill="#cacaca"/><path d="M394,72.22375a1.07819,1.07819,0,1,1-1.03516,1.07728A1.05679,1.05679,0,0,1,394,72.22375Z" fill="#cacaca"/><polygon points="400.135 94.403 399.036 93.38 394.001 98.798 388.965 93.38 387.867 94.403 394.001 101 400.135 94.403" fill="#cacaca"/><ellipse cx="534" cy="96.57214" rx="1.03516" ry="1.07739" fill="#cacaca"/><ellipse cx="534" cy="92.6936" rx="1.03516" ry="1.07739" fill="#cacaca"/><path d="M534,87.73779a1.07819,1.07819,0,1,1-1.03516,1.07727A1.05679,1.05679,0,0,1,534,87.73779Z" fill="#cacaca"/><path d="M534,83.85925a1.07819,1.07819,0,1,1-1.03516,1.0774A1.05682,1.05682,0,0,1,534,83.85925Z" fill="#cacaca"/><ellipse cx="534" cy="81.05811" rx="1.03516" ry="1.07739" fill="#cacaca"/><ellipse cx="534" cy="77.17957" rx="1.03516" ry="1.07739" fill="#cacaca"/><path d="M534,72.22375a1.07819,1.07819,0,1,1-1.03516,1.07728A1.05679,1.05679,0,0,1,534,72.22375Z" fill="#cacaca"/><polygon points="540.135 94.403 539.036 93.38 534.001 98.798 528.965 93.38 527.867 94.403 534.001 101 540.135 94.403" fill="#cacaca"/><line x1="1065.37329" y1="230" x2="1040" y2="230" fill="none" stroke="#e9a460" stroke-width="1.5"/><polygon points="1060.403 223.865 1059.38 224.964 1064.798 229.999 1059.38 235.035 1060.403 236.133 1067 229.999 1060.403 223.865" fill="#e9a460"/><line x1="1065.37329" y1="250" x2="1040" y2="250" fill="none" stroke="#e9a460" stroke-width="1.5"/><polygon points="1060.403 243.865 1059.38 244.964 1064.798 249.999 1059.38 255.035 1060.403 256.133 1067 249.999 1060.403 243.865" fill="#e9a460"/><polyline points="1148.373 201 1119 201 1119 230 1090 230" fill="none" stroke="#e9a460" stroke-width="1.5"/><polygon points="1143.403 194.865 1142.38 195.964 1147.798 200.999 1142.38 206.035 1143.403 207.133 1150 200.999 1143.403 194.865" fill="#e9a460"/><polyline points="1248.373 150 1160 150 1160 170" fill="none" stroke="#e9a460" stroke-width="1.5"/><polygon points="1243.403 143.865 1242.38 144.964 1247.798 149.999 1242.38 155.035 1243.403 156.133 1250 149.999 1243.403 143.865" fill="#e9a460"/><polyline points="1248.373 170 1200 170 1200 220" fill="none" stroke="#e9a460" stroke-width="1.5"/><polygon points="1243.403 163.865 1242.38 164.964 1247.798 169.999 1242.38 175.035 1243.403 176.133 1250 169.999 1243.403 163.865" fill="#e9a460"/><polyline points="1248.373 320 1200 320 1200 280" fill="none" stroke="#e9a460" stroke-width="1.5"/><polygon points="1243.403 313.865 1242.38 314.964 1247.798 319.999 1242.38 325.035 1243.403 326.133 1250 319.999 1243.403 313.865" fill="#e9a460"/><polyline points="1248.373 300 1160 300 1160 230" fill="none" stroke="#e9a460" stroke-width="1.5"/><polygon points="1243.403 293.865 1242.38 294.964 1247.798 299.999 1242.38 305.035 1243.403 306.133 1250 299.999 1243.403 293.865" fill="#e9a460"/><line x1="1188.37329" y1="250" x2="1090" y2="250" fill="none" stroke="#e9a460" stroke-width="1.5"/><polygon points="1183.403 243.865 1182.38 244.964 1187.798 249.999 1182.38 255.035 1183.403 256.133 1190 249.999 1183.403 243.865" fill="#e9a460"/><line x1="938.37329" y1="230" x2="910" y2="230" fill="none" stroke="#e9a460" stroke-width="1.5"/><polygon points="933.403 223.865 932.38 224.964 937.798 229.999 932.38 235.035 933.403 236.133 940 229.999 933.403 223.865" fill="#e9a460"/><line x1="938.37329" y1="250" x2="910" y2="250" fill="none" stroke="#e9a460" stroke-width="1.5"/><polygon points="933.403 243.865 932.38 244.964 937.798 249.999 932.38 255.035 933.403 256.133 940 249.999 933.403 243.865" fill="#e9a460"/><line x1="728.37329" y1="230" x2="690" y2="230" fill="none" stroke="#e9a460" stroke-width="1.5"/><polygon points="723.403 223.865 722.38 224.964 727.798 229.999 722.38 235.035 723.403 236.133 730 229.999 723.403 223.865" fill="#e9a460"/><line x1="114" y1="163.37329" x2="114" y2="131" fill="none" stroke="#e9a460" stroke-width="1.5"/><polygon points="120.135 158.403 119.036 157.38 114.001 162.798 108.965 157.38 107.867 158.403 114.001 165 120.135 158.403" fill="#e9a460"/><line x1="254" y1="163.37329" x2="254" y2="131" fill="none" stroke="#e9a460" stroke-width="1.5"/><polygon points="260.135 158.403 259.036 157.38 254.001 162.798 248.965 157.38 247.867 158.403 254.001 165 260.135 158.403" fill="#e9a460"/><line x1="394" y1="163.37329" x2="394" y2="131" fill="none" stroke="#e9a460" stroke-width="1.5"/><polygon points="400.135 158.403 399.036 157.38 394.001 162.798 388.965 157.38 387.867 158.403 394.001 165 400.135 158.403" fill="#e9a460"/><line x1="534" y1="163.37329" x2="534" y2="131" fill="none" stroke="#e9a460" stroke-width="1.5"/><polygon points="540.135 158.403 539.036 157.38 534.001 162.798 528.965 157.38 527.867 158.403 534.001 165 540.135 158.403" fill="#e9a460"/><line x1="728.37329" y1="250" x2="690" y2="250" fill="none" stroke="#e9a460" stroke-width="1.5"/><polygon points="723.403 243.865 722.38 244.964 727.798 249.999 722.38 255.035 723.403 256.133 730 249.999 723.403 243.865" fill="#e9a460"/><line x1="628.37305" y1="230" x2="41.2002" y2="230" fill="none" stroke="#e9a460" stroke-width="1.5"/><polygon points="623.403 223.865 622.38 224.964 627.797 229.999 622.38 235.035 623.403 236.133 630 229.999 623.403 223.865" fill="#e9a460"/><line x1="628.37305" y1="250" x2="41.2002" y2="250" fill="none" stroke="#e9a460" stroke-width="1.5"/><polygon points="623.403 243.865 622.38 244.964 627.797 249.999 622.38 255.035 623.403 256.133 630 249.999 623.403 243.865" fill="#e9a460"/><polyline points="89 180 69 180 69 230" fill="none" stroke="#e9a460" stroke-width="2"/><polyline points="139 180 159 180 159 250" fill="none" stroke="#e9a460" stroke-width="2"/><line x1="169" y1="240" x2="149" y2="260" fill="none" stroke="#e9a460" stroke-width="2"/><line x1="79" y1="220.00001" x2="59" y2="240.00001" fill="none" stroke="#e9a460" stroke-width="2"/><polyline points="229 180 209 180 209 230" fill="none" stroke="#e9a460" stroke-width="2"/><polyline points="279 180 299 180 299 250" fill="none" stroke="#e9a460" stroke-width="2"/><line x1="309" y1="240" x2="289" y2="260" fill="none" stroke="#e9a460" stroke-width="2"/><line x1="219" y1="220.00001" x2="199" y2="240.00001" fill="none" stroke="#e9a460" stroke-width="2"/><polyline points="369 180 349 180 349 230" fill="none" stroke="#e9a460" stroke-width="2"/><polyline points="419 180 439 180 439 250" fill="none" stroke="#e9a460" stroke-width="2"/><line x1="449" y1="240" x2="429" y2="260" fill="none" stroke="#e9a460" stroke-width="2"/><line x1="359" y1="220.00001" x2="339" y2="240.00001" fill="none" stroke="#e9a460" stroke-width="2"/><polyline points="509 180 489 180 489 230" fill="none" stroke="#e9a460" stroke-width="2"/><polyline points="559 180 579 180 579 250" fill="none" stroke="#e9a460" stroke-width="2"/><line x1="589" y1="240" x2="569" y2="260" fill="none" stroke="#e9a460" stroke-width="2"/><line x1="499" y1="220.00001" x2="479" y2="240.00001" fill="none" stroke="#e9a460" stroke-width="2"/><circle cx="1080" cy="240" r="14.29993" fill="#31333d"/><path d="M1080,226.4a13.6,13.6,0,1,1-13.6001,13.6A13.61549,13.61549,0,0,1,1080,226.4m0-1.4a15,15,0,1,0,15,15,15,15,0,0,0-15-15Z" fill="#e9a460"/><circle cx="114" cy="116" r="14.29993" fill="#31333d"/><path d="M114,102.4A13.6,13.6,0,1,1,100.3999,116,13.61553,13.61553,0,0,1,114,102.4m0-1.4a15,15,0,1,0,15,15,15,15,0,0,0-15-15Z" fill="#e9a460"/><circle cx="254" cy="116" r="14.29993" fill="#31333d"/><path d="M254,102.4A13.6,13.6,0,1,1,240.3999,116,13.61553,13.61553,0,0,1,254,102.4m0-1.4a15,15,0,1,0,15,15,15,15,0,0,0-15-15Z" fill="#e9a460"/><circle cx="394" cy="116" r="14.29993" fill="#31333d"/><path d="M394,102.4A13.6,13.6,0,1,1,380.3999,116,13.61553,13.61553,0,0,1,394,102.4m0-1.4a15,15,0,1,0,15,15,15,15,0,0,0-15-15Z" fill="#e9a460"/><circle cx="534" cy="116" r="14.29993" fill="#31333d"/><path d="M534,102.4A13.6,13.6,0,1,1,520.3999,116,13.61553,13.61553,0,0,1,534,102.4m0-1.4a15,15,0,1,0,15,15,15,15,0,0,0-15-15Z" fill="#e9a460"/><line x1="1073.98959" y1="233.98959" x2="1086.01041" y2="246.01041" fill="#31333d" stroke="#e9a460" stroke-width="2"/><line x1="1073.98959" y1="246.01041" x2="1086.01041" y2="233.98959" fill="#31333d" stroke="#e9a460" stroke-width="2"/><line x1="107.98959" y1="109.9896" x2="120.01041" y2="122.01042" fill="#31333d" stroke="#e9a460" stroke-width="2"/><line x1="107.98959" y1="122.01042" x2="120.01041" y2="109.9896" fill="#31333d" stroke="#e9a460" stroke-width="2"/><line x1="247.98959" y1="109.9896" x2="260.01041" y2="122.01042" fill="#31333d" stroke="#e9a460" stroke-width="2"/><line x1="247.98959" y1="122.01042" x2="260.01041" y2="109.9896" fill="#31333d" stroke="#e9a460" stroke-width="2"/><line x1="387.98959" y1="109.9896" x2="400.01041" y2="122.01042" fill="#31333d" stroke="#e9a460" stroke-width="2"/><line x1="387.98959" y1="122.01042" x2="400.01041" y2="109.9896" fill="#31333d" stroke="#e9a460" stroke-width="2"/><line x1="527.98959" y1="109.9896" x2="540.01041" y2="122.01042" fill="#31333d" stroke="#e9a460" stroke-width="2"/><line x1="527.98959" y1="122.01042" x2="540.01041" y2="109.9896" fill="#31333d" stroke="#e9a460" stroke-width="2"/><rect x="729" y="159" width="52" height="22" rx="7" ry="7" fill="#4e4e4e"/><path d="M774,160a6.01757,6.01757,0,0,1,6,6v8a6,6,0,0,1-6,6H736a6.00014,6.00014,0,0,1-6-6v-8a6.01774,6.01774,0,0,1,6-6h38m0-2H736a8.00909,8.00909,0,0,0-8,8v8a8.00913,8.00913,0,0,0,8,8h38a8.00913,8.00913,0,0,0,8-8v-8a8.00909,8.00909,0,0,0-8-8Z" fill="#4271c2"/><path d="M774,160.5a5.50623,5.50623,0,0,1,5.5,5.5v8a5.50623,5.50623,0,0,1-5.5,5.5H736a5.50623,5.50623,0,0,1-5.5-5.5v-8a5.50623,5.50623,0,0,1,5.5-5.5h38m0-.5H736a6.01774,6.01774,0,0,0-6,6v8a6.00014,6.00014,0,0,0,6,6h38a6,6,0,0,0,6-6v-8a6.01757,6.01757,0,0,0-6-6Z"/><rect x="794" y="159" width="52" height="22" rx="7" ry="7" fill="#4e4e4e"/><path d="M839,160a6.01757,6.01757,0,0,1,6,6v8a6,6,0,0,1-6,6H801a6.00014,6.00014,0,0,1-6-6v-8a6.01774,6.01774,0,0,1,6-6h38m0-2H801a8.00909,8.00909,0,0,0-8,8v8a8.00913,8.00913,0,0,0,8,8h38a8.00913,8.00913,0,0,0,8-8v-8a8.00909,8.00909,0,0,0-8-8Z" fill="#4271c2"/><path d="M839,160.5a5.50623,5.50623,0,0,1,5.5,5.5v8a5.50623,5.50623,0,0,1-5.5,5.5H801a5.50623,5.50623,0,0,1-5.5-5.5v-8a5.50623,5.50623,0,0,1,5.5-5.5h38m0-.5H801a6.01774,6.01774,0,0,0-6,6v8a6.00014,6.00014,0,0,0,6,6h38a6,6,0,0,0,6-6v-8a6.01757,6.01757,0,0,0-6-6Z"/><rect x="859" y="159" width="52" height="22" rx="7" ry="7" fill="#4e4e4e"/><path d="M904,160a6.01757,6.01757,0,0,1,6,6v8a6,6,0,0,1-6,6H866a6.00014,6.00014,0,0,1-6-6v-8a6.01774,6.01774,0,0,1,6-6h38m0-2H866a8.00909,8.00909,0,0,0-8,8v8a8.00913,8.00913,0,0,0,8,8h38a8.00913,8.00913,0,0,0,8-8v-8a8.00909,8.00909,0,0,0-8-8Z" fill="#4271c2"/><path d="M904,160.5a5.50623,5.50623,0,0,1,5.5,5.5v8a5.50623,5.50623,0,0,1-5.5,5.5H866a5.50623,5.50623,0,0,1-5.5-5.5v-8a5.50623,5.50623,0,0,1,5.5-5.5h38m0-.5H866a6.01774,6.01774,0,0,0-6,6v8a6.00014,6.00014,0,0,0,6,6h38a6,6,0,0,0,6-6v-8a6.01757,6.01757,0,0,0-6-6Z"/><rect x="959" y="349" width="32" height="22" rx="5" ry="5" fill="#4e4e4e"/><path d="M986,350a4.01182,4.01182,0,0,1,4,4v12a4.00008,4.00008,0,0,1-4,4H964a3.99992,3.99992,0,0,1-4-4V354a4.01182,4.01182,0,0,1,4-4h22m0-2H964a6.00684,6.00684,0,0,0-6,6v12a6.00684,6.00684,0,0,0,6,6h22a6.00684,6.00684,0,0,0,6-6V354a6.00684,6.00684,0,0,0-6-6Z" fill="#4271c2"/><path d="M986,350.5a3.50393,3.50393,0,0,1,3.5,3.5v12a3.50393,3.50393,0,0,1-3.5,3.5H964a3.50393,3.50393,0,0,1-3.5-3.5V354a3.50393,3.50393,0,0,1,3.5-3.5h22m0-.5H964a4.01182,4.01182,0,0,0-4,4v12a3.99992,3.99992,0,0,0,4,4h22a4.00008,4.00008,0,0,0,4-4V354a4.01182,4.01182,0,0,0-4-4Z"/><rect x="98" y="49" width="32" height="22" rx="7" ry="7" fill="#4e4e4e"/><path d="M123,50a6.01774,6.01774,0,0,1,6,6v8a6.00014,6.00014,0,0,1-6,6H105a5.99983,5.99983,0,0,1-6-6V56a6.01774,6.01774,0,0,1,6-6h18m0-2H105a8.00909,8.00909,0,0,0-8,8v8a8.00909,8.00909,0,0,0,8,8h18a8.00909,8.00909,0,0,0,8-8V56a8.00909,8.00909,0,0,0-8-8Z" fill="#4271c2"/><path d="M123,50.5a5.50623,5.50623,0,0,1,5.5,5.5v8a5.50623,5.50623,0,0,1-5.5,5.5H105A5.50623,5.50623,0,0,1,99.5,64V56a5.50623,5.50623,0,0,1,5.5-5.5h18m0-.5H105a6.01774,6.01774,0,0,0-6,6v8a5.99983,5.99983,0,0,0,6,6h18a6.00014,6.00014,0,0,0,6-6V56a6.01774,6.01774,0,0,0-6-6Z"/><rect x="238" y="49" width="32" height="22" rx="7" ry="7" fill="#4e4e4e"/><path d="M263,50a6.01774,6.01774,0,0,1,6,6v8a6.00014,6.00014,0,0,1-6,6H245a5.99983,5.99983,0,0,1-6-6V56a6.01774,6.01774,0,0,1,6-6h18m0-2H245a8.00909,8.00909,0,0,0-8,8v8a8.00909,8.00909,0,0,0,8,8h18a8.00909,8.00909,0,0,0,8-8V56a8.00909,8.00909,0,0,0-8-8Z" fill="#4271c2"/><path d="M263,50.5a5.50623,5.50623,0,0,1,5.5,5.5v8a5.50623,5.50623,0,0,1-5.5,5.5H245a5.50623,5.50623,0,0,1-5.5-5.5V56a5.50623,5.50623,0,0,1,5.5-5.5h18m0-.5H245a6.01774,6.01774,0,0,0-6,6v8a5.99983,5.99983,0,0,0,6,6h18a6.00014,6.00014,0,0,0,6-6V56a6.01774,6.01774,0,0,0-6-6Z"/><rect x="363" y="49" width="62" height="22" rx="7" ry="7" fill="#4e4e4e"/><path d="M418,50a6.01774,6.01774,0,0,1,6,6v8a6.00014,6.00014,0,0,1-6,6H370a5.99983,5.99983,0,0,1-6-6V56a6.01774,6.01774,0,0,1,6-6h48m0-2H370a8.00909,8.00909,0,0,0-8,8v8a8.00909,8.00909,0,0,0,8,8h48a8.00909,8.00909,0,0,0,8-8V56a8.00909,8.00909,0,0,0-8-8Z" fill="#4271c2"/><path d="M418,50.5a5.50623,5.50623,0,0,1,5.5,5.5v8a5.50623,5.50623,0,0,1-5.5,5.5H370a5.50623,5.50623,0,0,1-5.5-5.5V56a5.50623,5.50623,0,0,1,5.5-5.5h48m0-.5H370a6.01774,6.01774,0,0,0-6,6v8a5.99983,5.99983,0,0,0,6,6h48a6.00014,6.00014,0,0,0,6-6V56a6.01774,6.01774,0,0,0-6-6Z"/><rect x="508" y="49" width="52" height="22" rx="7" ry="7" fill="#4e4e4e"/><path d="M553,50a6.01774,6.01774,0,0,1,6,6v8a6.00014,6.00014,0,0,1-6,6H515a5.99983,5.99983,0,0,1-6-6V56a6.01774,6.01774,0,0,1,6-6h38m0-2H515a8.00909,8.00909,0,0,0-8,8v8a8.00909,8.00909,0,0,0,8,8h38a8.00909,8.00909,0,0,0,8-8V56a8.00909,8.00909,0,0,0-8-8Z" fill="#4271c2"/><path d="M553,50.5a5.50623,5.50623,0,0,1,5.5,5.5v8a5.50623,5.50623,0,0,1-5.5,5.5H515a5.50623,5.50623,0,0,1-5.5-5.5V56a5.50623,5.50623,0,0,1,5.5-5.5h38m0-.5H515a6.01774,6.01774,0,0,0-6,6v8a5.99983,5.99983,0,0,0,6,6h38a6.00014,6.00014,0,0,0,6-6V56a6.01774,6.01774,0,0,0-6-6Z"/><rect x="630" y="170" width="60" height="20" rx="6" ry="6" fill="#4e4e4e" stroke="#7f7f7f"/><path d="M638.56006,174.53223h1.1626v4.56836h.042l3.82373-4.56836h1.31689l-2.87158,3.47119,3.31983,5.63769h-1.30274l-2.7456-4.73486-1.58252,1.84668v2.88818h-1.1626Z" fill="#b0b0b0"/><path d="M645.95166,180.28076a3.265,3.265,0,0,1,3.05371-3.55469c1.73682,0,2.71729,1.23584,2.71729,3.166a4.398,4.398,0,0,1-.042.65234h-4.59423a2.24748,2.24748,0,0,0,2.269,2.34668,3.09449,3.09449,0,0,0,1.69482-.52734l.40625.74951a4.0785,4.0785,0,0,1-2.24121.69434A3.23911,3.23911,0,0,1,645.95166,180.28076Zm4.7627-.55517c0-1.36084-.6167-2.09668-1.68116-2.09668a2.09264,2.09264,0,0,0-1.96093,2.09668Z" fill="#b0b0b0"/><path d="M652.7832,186.4043l.22412-.90235a2.02348,2.02348,0,0,0,.51807.09717c.77051,0,1.26074-.61133,1.541-1.44433l.15429-.5-2.73144-6.76221h1.19043l1.38672,3.73535c.21.583.44824,1.27734.6582,1.90234h.05615c.19629-.61084.39209-1.30517.57422-1.90234l1.21875-3.73535h1.12061l-2.56348,7.30371c-.47607,1.333-1.17627,2.34668-2.54932,2.34668A2.27408,2.27408,0,0,1,652.7832,186.4043Z" fill="#b0b0b0"/><path d="M662.91943,174.53223h2.61963c2.05908,0,3.4458.68017,3.4458,2.67968,0,1.91651-1.373,2.81885-3.39013,2.81885H664.082v3.61035h-1.1626Zm2.53565,4.55468c1.59668,0,2.36719-.58349,2.36719-1.875,0-1.31884-.8125-1.74951-2.42334-1.74951H664.082v3.62451Z" fill="#b0b0b0"/><path d="M669.89111,180.28076a3.17179,3.17179,0,1,1,3.15186,3.52686A3.23635,3.23635,0,0,1,669.89111,180.28076Zm5.1128,0c0-1.55517-.78418-2.61035-1.96094-2.61035-1.1626,0-1.96094,1.05518-1.96094,2.61035,0,1.54151.79834,2.58252,1.96094,2.58252C674.21973,182.86328,675.00391,181.82227,675.00391,180.28076Z" fill="#b0b0b0"/><path d="M677.22705,182.87744l.57422-.76367a3.07627,3.07627,0,0,0,2.00342.80518c.89648,0,1.34472-.47217,1.34472-1.05518,0-.69434-.8125-.99951-1.55517-1.27734-.96631-.34717-2.03076-.80567-2.03076-1.94385,0-1.0835.86816-1.91651,2.33886-1.91651a3.41578,3.41578,0,0,1,2.11524.76368l-.54639.72216a2.539,2.539,0,0,0-1.55469-.59716c-.85449,0-1.24658.45849-1.24658.97216,0,.63868.74219.87452,1.5127,1.166.98047.36133,2.07324.76416,2.07324,2.0415,0,1.09668-.88232,2.01319-2.49365,2.01319A4.11819,4.11819,0,0,1,677.22705,182.87744Z" fill="#b0b0b0"/><path d="M740.09766,164.18848h2.46c3.02978,0,4.6499,1.75488,4.6499,4.874,0,3.13477-1.62012,4.96484-4.58984,4.96484h-2.52Zm2.37011,8.81933c2.29493,0,3.44971-1.45508,3.44971-3.94531,0-2.47461-1.15478-3.85449-3.44971-3.85449h-1.125v7.7998Z" fill="#e4e4e4"/><path d="M749.20264,166.73828h1.02l.105,1.31934h.04492a2.49374,2.49374,0,0,1,2.06982-1.5,1.80447,1.80447,0,0,1,.78028.15039l-.24024,1.08008a2.03289,2.03289,0,0,0-.70459-.12012c-.61523,0-1.3501.45019-1.84521,1.67969v4.67968h-1.23Z" fill="#e4e4e4"/><path d="M754.18262,164.44336a.85725.85725,0,0,1,1.71,0,.85725.85725,0,0,1-1.71,0Zm.22509,2.29492h1.23v7.28906h-1.23Z" fill="#e4e4e4"/><path d="M757.04736,166.73828h1.27491l1.37988,4.13965c.21.71973.45019,1.45508.6748,2.14453h.06006c.21-.68945.4502-1.4248.66016-2.14453l1.37988-4.13965h1.21484l-2.57959,7.28906h-1.43994Z" fill="#e4e4e4"/><path d="M764.50244,170.39746c0-2.38476,1.605-3.83984,3.26953-3.83984,1.86035,0,2.91016,1.335,2.91016,3.41992a4.80018,4.80018,0,0,1-.04492.70508h-4.91992a2.418,2.418,0,0,0,2.42968,2.53515,3.29416,3.29416,0,0,0,1.81494-.57031l.43506.81055a4.34565,4.34565,0,0,1-2.3999.75A3.48643,3.48643,0,0,1,764.50244,170.39746Zm5.09961-.59961c0-1.46973-.65967-2.26465-1.7998-2.26465a2.25087,2.25087,0,0,0-2.1001,2.26465Z" fill="#e4e4e4"/><path d="M807.61035,164.18848h5.66992v1.0498h-4.4248v3.3291H812.605v1.05078h-3.74951v4.40918h-1.24512Z" fill="#e4e4e4"/><path d="M814.15039,170.39746c0-2.44434,1.58984-3.83984,3.375-3.83984,1.78467,0,3.37451,1.3955,3.37451,3.83984,0,2.415-1.58984,3.81055-3.37451,3.81055C815.74023,174.208,814.15039,172.8125,814.15039,170.39746Zm5.47461,0c0-1.67969-.83984-2.81934-2.09961-2.81934-1.24512,0-2.1001,1.13965-2.1001,2.81934,0,1.665.855,2.79,2.1001,2.79C818.78516,173.1875,819.625,172.0625,819.625,170.39746Z" fill="#e4e4e4"/><path d="M822.82031,172.55762v-9.21h1.23v9.2998c0,.39063.165.54.34473.54a1.023,1.023,0,0,0,.27-.03027l.165.93066a1.66821,1.66821,0,0,1-.70508.12012C823.19531,174.208,822.82031,173.62305,822.82031,172.55762Z" fill="#e4e4e4"/><path d="M826.12012,170.39746c0-2.36914,1.5-3.83984,3.165-3.83984a3.0044,3.0044,0,0,1,2.03955.83984l-.05957-1.24414v-2.80566h1.24463v10.67968h-1.02l-.105-.85449h-.04493a3.29013,3.29013,0,0,1-2.20507,1.03516C827.30518,174.208,826.12012,172.82812,826.12012,170.39746Zm5.145,1.77051v-3.81055a2.539,2.539,0,0,0-1.77-.76465c-1.16992,0-2.1001,1.125-2.1001,2.79,0,1.74024.73486,2.79,2.00977,2.79A2.46806,2.46806,0,0,0,831.26514,172.168Z" fill="#e4e4e4"/><path d="M871.26025,164.18848h1.41016L876,174.02734h-1.335l-.92969-3h-3.585l-.94531,3h-1.2749Zm-.79492,5.834h2.95459l-.46484-1.5c-.35987-1.09473-.67481-2.1748-.98975-3.31445h-.06006c-.30029,1.13965-.61523,2.21972-.97509,3.31445Z" fill="#e4e4e4"/><path d="M876.81006,173.20215l.61523-.82422a3.27942,3.27942,0,0,0,2.145.87012c.96,0,1.43994-.51075,1.43994-1.14063,0-.75-.87011-1.08008-1.665-1.37988-1.03515-.375-2.1748-.87012-2.1748-2.09961,0-1.16992.92969-2.07031,2.50488-2.07031a3.637,3.637,0,0,1,2.26465.82519l-.585.78028a2.70805,2.70805,0,0,0-1.665-.64551c-.91455,0-1.335.49512-1.335,1.0498,0,.69043.79492.94532,1.62012,1.26074,1.0498.38965,2.21972.82422,2.21972,2.20411,0,1.18554-.94482,2.17578-2.66992,2.17578A4.38712,4.38712,0,0,1,876.81006,173.20215Z" fill="#e4e4e4"/><path d="M883.16992,177.0127l.23975-.97559a2.14994,2.14994,0,0,0,.55517.10547c.8252,0,1.3501-.66016,1.64991-1.55957l.165-.54-2.92481-7.30469h1.2749l1.48487,4.03418c.22509.62988.48,1.37988.70507,2.05566h.06006c.21-.66015.41992-1.41015.61475-2.05566l1.30517-4.03418h1.19971l-2.74463,7.88965c-.51025,1.43945-1.26025,2.53418-2.73,2.53418A2.42327,2.42327,0,0,1,883.16992,177.0127Z" fill="#e4e4e4"/><path d="M890.91016,166.73828h1.02l.105,1.04981h.04492a3.20236,3.20236,0,0,1,2.26465-1.23047,1.91389,1.91389,0,0,1,2.01025,1.3955,3.44292,3.44292,0,0,1,2.3999-1.3955c1.49951,0,2.21973.99023,2.21973,2.85058v4.61914h-1.23v-4.4541c0-1.36523-.43506-1.95019-1.3501-1.95019a2.67441,2.67441,0,0,0-1.82959,1.125v5.27929h-1.23v-4.4541c0-1.36523-.43506-1.95019-1.36523-1.95019a2.73392,2.73392,0,0,0-1.82959,1.125v5.27929h-1.23Z" fill="#e4e4e4"/><path d="M1068.8208,200.18652h1.49414v10.53321h5.16748v1.27832h-6.66162Z" fill="#e9a460"/><path d="M1076.56055,207.64062c0-2.8623,1.92675-4.60937,3.92529-4.60937,2.23291,0,3.49316,1.60254,3.49316,4.10547a5.69893,5.69893,0,0,1-.0542.8457H1078.019a2.902,2.902,0,0,0,2.917,3.043,3.95534,3.95534,0,0,0,2.17871-.68359l.522.97168a5.20971,5.20971,0,0,1-2.88086.90039C1078.415,212.21387,1076.56055,210.50391,1076.56055,207.64062Zm6.12207-.71972c0-1.76465-.79248-2.71875-2.16065-2.71875a2.70269,2.70269,0,0,0-2.521,2.71875Z" fill="#e9a460"/><path d="M1084.96582,203.24707h1.53076l1.65625,4.96973c.25244.86425.54053,1.74707.81055,2.57519h.07178c.252-.82812.54-1.71094.79248-2.57519l1.65625-4.96973h1.45849l-3.09668,8.751h-1.72851Z" fill="#e9a460"/><path d="M1093.91162,207.64062c0-2.8623,1.92676-4.60937,3.92529-4.60937,2.23243,0,3.49317,1.60254,3.49317,4.10547a5.70028,5.70028,0,0,1-.0542.8457h-5.90576a2.90175,2.90175,0,0,0,2.917,3.043,3.95534,3.95534,0,0,0,2.17871-.68359l.522.97168a5.20968,5.20968,0,0,1-2.88086.90039C1095.76611,212.21387,1093.91162,210.50391,1093.91162,207.64062Zm6.12207-.71972c0-1.76465-.79248-2.71875-2.16064-2.71875a2.70271,2.70271,0,0,0-2.521,2.71875Z" fill="#e9a460"/><path d="M1103.48828,210.2334V199.17773h1.47656V210.3418c0,.46777.19776.64843.41407.64843a1.23311,1.23311,0,0,0,.32373-.03613l.19824,1.11621a1.99237,1.99237,0,0,1-.84619.14356C1103.93848,212.21387,1103.48828,211.51172,1103.48828,210.2334Z" fill="#e9a460"/><path d="M136.92017,110.02148h1.49414v10.53321h5.16748V121.833h-6.66162Z" fill="#e9a460"/><path d="M144.65991,117.47559c0-2.86231,1.92676-4.60938,3.9253-4.60938,2.23291,0,3.49316,1.60254,3.49316,4.10547a5.70028,5.70028,0,0,1-.0542.8457h-5.90576a2.902,2.902,0,0,0,2.917,3.043,3.95531,3.95531,0,0,0,2.17871-.68359l.522.97168a5.2096,5.2096,0,0,1-2.88086.90039C146.5144,122.04883,144.65991,120.33887,144.65991,117.47559Zm6.12207-.71973c0-1.76465-.79248-2.71875-2.16064-2.71875a2.70271,2.70271,0,0,0-2.521,2.71875Z" fill="#e9a460"/><path d="M153.06519,113.082h1.53076l1.65625,4.96973c.25244.86426.54052,1.74707.81054,2.57519h.07178c.25195-.82812.54-1.71093.79248-2.57519l1.65625-4.96973h1.4585l-3.09668,8.751h-1.72852Z" fill="#e9a460"/><path d="M162.011,117.47559c0-2.86231,1.92675-4.60938,3.92529-4.60938,2.23242,0,3.49316,1.60254,3.49316,4.10547a5.69893,5.69893,0,0,1-.0542.8457h-5.90576a2.90175,2.90175,0,0,0,2.917,3.043,3.95535,3.95535,0,0,0,2.17872-.68359l.522.97168a5.20963,5.20963,0,0,1-2.88086.90039C163.86548,122.04883,162.011,120.33887,162.011,117.47559Zm6.12207-.71973c0-1.76465-.79248-2.71875-2.16065-2.71875a2.70269,2.70269,0,0,0-2.521,2.71875Z" fill="#e9a460"/><path d="M171.58765,120.06836V109.0127h1.47656v11.16406c0,.46777.19775.64844.41406.64844a1.23275,1.23275,0,0,0,.32373-.03614l.19824,1.11621a1.99233,1.99233,0,0,1-.84619.14356C172.03784,122.04883,171.58765,121.34668,171.58765,120.06836Z" fill="#e9a460"/><path d="M276.92017,110.02148h1.49414v10.53321h5.16748V121.833h-6.66162Z" fill="#e9a460"/><path d="M284.65991,117.47559c0-2.86231,1.92676-4.60938,3.9253-4.60938,2.23291,0,3.49316,1.60254,3.49316,4.10547a5.70028,5.70028,0,0,1-.0542.8457h-5.90576a2.902,2.902,0,0,0,2.917,3.043,3.95531,3.95531,0,0,0,2.17871-.68359l.522.97168a5.2096,5.2096,0,0,1-2.88086.90039C286.5144,122.04883,284.65991,120.33887,284.65991,117.47559Zm6.12207-.71973c0-1.76465-.79248-2.71875-2.16064-2.71875a2.70271,2.70271,0,0,0-2.521,2.71875Z" fill="#e9a460"/><path d="M293.06519,113.082H294.596l1.65625,4.96973c.25244.86426.54052,1.74707.81054,2.57519h.07178c.25195-.82812.54-1.71093.79248-2.57519l1.65625-4.96973h1.4585l-3.09668,8.751h-1.72852Z" fill="#e9a460"/><path d="M302.011,117.47559c0-2.86231,1.92675-4.60938,3.92529-4.60938,2.23242,0,3.49316,1.60254,3.49316,4.10547a5.69893,5.69893,0,0,1-.0542.8457h-5.90576a2.90175,2.90175,0,0,0,2.917,3.043,3.95535,3.95535,0,0,0,2.17872-.68359l.522.97168a5.20963,5.20963,0,0,1-2.88086.90039C303.86548,122.04883,302.011,120.33887,302.011,117.47559Zm6.12207-.71973c0-1.76465-.79248-2.71875-2.16065-2.71875a2.70269,2.70269,0,0,0-2.521,2.71875Z" fill="#e9a460"/><path d="M311.58765,120.06836V109.0127h1.47656v11.16406c0,.46777.19775.64844.41406.64844a1.23275,1.23275,0,0,0,.32373-.03614l.19824,1.11621a1.99233,1.99233,0,0,1-.84619.14356C312.03784,122.04883,311.58765,121.34668,311.58765,120.06836Z" fill="#e9a460"/><path d="M416.92017,110.02148h1.49414v10.53321h5.16748V121.833h-6.66162Z" fill="#e9a460"/><path d="M424.65991,117.47559c0-2.86231,1.92676-4.60938,3.9253-4.60938,2.23291,0,3.49316,1.60254,3.49316,4.10547a5.70028,5.70028,0,0,1-.0542.8457h-5.90576a2.902,2.902,0,0,0,2.917,3.043,3.95531,3.95531,0,0,0,2.17871-.68359l.522.97168a5.2096,5.2096,0,0,1-2.88086.90039C426.5144,122.04883,424.65991,120.33887,424.65991,117.47559Zm6.12207-.71973c0-1.76465-.79248-2.71875-2.16064-2.71875a2.70271,2.70271,0,0,0-2.521,2.71875Z" fill="#e9a460"/><path d="M433.06519,113.082H434.596l1.65625,4.96973c.25244.86426.54052,1.74707.81054,2.57519h.07178c.25195-.82812.54-1.71093.79248-2.57519l1.65625-4.96973h1.4585l-3.09668,8.751h-1.72852Z" fill="#e9a460"/><path d="M442.011,117.47559c0-2.86231,1.92675-4.60938,3.92529-4.60938,2.23242,0,3.49316,1.60254,3.49316,4.10547a5.69893,5.69893,0,0,1-.0542.8457h-5.90576a2.90175,2.90175,0,0,0,2.917,3.043,3.95535,3.95535,0,0,0,2.17872-.68359l.522.97168a5.20963,5.20963,0,0,1-2.88086.90039C443.86548,122.04883,442.011,120.33887,442.011,117.47559Zm6.12207-.71973c0-1.76465-.79248-2.71875-2.16065-2.71875a2.70269,2.70269,0,0,0-2.521,2.71875Z" fill="#e9a460"/><path d="M451.58765,120.06836V109.0127h1.47656v11.16406c0,.46777.19775.64844.41406.64844a1.23275,1.23275,0,0,0,.32373-.03614l.19824,1.11621a1.99233,1.99233,0,0,1-.84619.14356C452.03784,122.04883,451.58765,121.34668,451.58765,120.06836Z" fill="#e9a460"/><path d="M556.92017,110.02148h1.49414v10.53321h5.16748V121.833h-6.66162Z" fill="#e9a460"/><path d="M564.65991,117.47559c0-2.86231,1.92676-4.60938,3.9253-4.60938,2.23291,0,3.49316,1.60254,3.49316,4.10547a5.70028,5.70028,0,0,1-.0542.8457h-5.90576a2.902,2.902,0,0,0,2.917,3.043,3.95531,3.95531,0,0,0,2.17871-.68359l.522.97168a5.2096,5.2096,0,0,1-2.88086.90039C566.5144,122.04883,564.65991,120.33887,564.65991,117.47559Zm6.12207-.71973c0-1.76465-.79248-2.71875-2.16064-2.71875a2.70271,2.70271,0,0,0-2.521,2.71875Z" fill="#e9a460"/><path d="M573.06519,113.082H574.596l1.65625,4.96973c.25244.86426.54052,1.74707.81054,2.57519h.07178c.252-.82812.54-1.71093.79248-2.57519l1.65625-4.96973h1.4585l-3.09668,8.751h-1.72852Z" fill="#e9a460"/><path d="M582.011,117.47559c0-2.86231,1.92675-4.60938,3.92529-4.60938,2.23242,0,3.49316,1.60254,3.49316,4.10547a5.69893,5.69893,0,0,1-.0542.8457h-5.90576a2.90175,2.90175,0,0,0,2.917,3.043,3.95535,3.95535,0,0,0,2.17872-.68359l.522.97168a5.20963,5.20963,0,0,1-2.88086.90039C583.86548,122.04883,582.011,120.33887,582.011,117.47559Zm6.12207-.71973c0-1.76465-.79248-2.71875-2.16065-2.71875a2.70269,2.70269,0,0,0-2.521,2.71875Z" fill="#e9a460"/><path d="M591.58765,120.06836V109.0127h1.47656v11.16406c0,.46777.19775.64844.41406.64844a1.23275,1.23275,0,0,0,.32373-.03614l.19824,1.11621a1.99233,1.99233,0,0,1-.84619.14356C592.03784,122.04883,591.58765,121.34668,591.58765,120.06836Z" fill="#e9a460"/><path d="M1122.73535,122.01221v-1.26075h8.64258v1.26075H1127.813V132.563h-1.51221V122.01221Z" fill="#e9a460"/><path d="M1131.51953,128.20557c0-2.93457,1.90869-4.60938,4.05127-4.60938s4.05127,1.67481,4.05127,4.60938c0,2.89941-1.90869,4.57324-4.05127,4.57324S1131.51953,131.105,1131.51953,128.20557Zm6.57227,0c0-2.01661-1.0083-3.38477-2.521-3.38477-1.49463,0-2.52051,1.36816-2.52051,3.38477,0,1.999,1.02588,3.34961,2.52051,3.34961C1137.0835,131.55518,1138.0918,130.20459,1138.0918,128.20557Z" fill="#e9a460"/><path d="M1152.47363,120.75146v1.26075h-5.31152v3.99707h4.50146V127.269h-4.50146v5.294H1145.668V120.75146Z" fill="#e9a460"/><path d="M1153.01172,120.75146h1.65625l1.60254,3.02442c.30615.541.5581,1.02637.918,1.71094h.07226c.32422-.68457.55811-1.16993.84619-1.71094l1.56641-3.02442h1.58447l-3.22265,5.7793,3.439,6.03223h-1.65674l-1.72851-3.18653c-.30616-.57617-.62989-1.17089-1.0083-1.89062h-.07178c-.34229.71973-.64844,1.31445-.93652,1.89062l-1.71045,3.18653h-1.58448l3.439-6.10352Z" fill="#e9a460"/><path d="M1169.374,131.28467V122.9126h-1.87256v-1.26074h5.22168v1.26074h-1.85449v8.37207h1.85449V132.563h-5.22168v-1.27832Zm6.8418,0V122.9126h-1.87207v-1.26074h5.22119v1.26074h-1.85449v8.37207h1.85449V132.563h-5.22119v-1.27832Z" fill="#e9a460"/><path d="M1186.79736,127.55713a14.9717,14.9717,0,0,1,2.37647-8.17383l.91846.43164a15.50837,15.50837,0,0,0,0,15.48438l-.91846.43261A14.97745,14.97745,0,0,1,1186.79736,127.55713Z" fill="#e9a460"/><path d="M1194.80762,131.28467V122.9126h-1.87256v-1.26074h5.22168v1.26074h-1.85449v8.37207h1.85449V132.563h-5.22168v-1.27832Z" fill="#e9a460"/><path d="M1203.06934,127.55713a14.98,14.98,0,0,0-2.0708-7.74219l.91845-.43164a15.24678,15.24678,0,0,1,0,16.34863l-.91845-.43261A14.97494,14.97494,0,0,0,1203.06934,127.55713Z" fill="#e9a460"/><path d="M28.74072,222.75146v10.53321H33.9082V234.563H27.24658V222.75146Z" fill="#e9a460"/><path d="M30.19043,247.75146c2.4126,0,4.14111.86426,4.14111,3.31348a3.22528,3.22528,0,0,1-2.66455,3.34863l3.00684,5.14942H32.98145l-2.84473-4.98731H27.99365V259.563H26.49951V247.75146Zm2.647,3.31348c0-1.54883-1.02636-2.10742-2.86279-2.10742h-1.981v4.39355h1.981C31.811,253.35107,32.8374,252.59521,32.8374,251.06494Z" fill="#e9a460"/><path d="M1260.81934,314.28467v-8.37256h-1.87256v-1.26025h5.22168v1.26025h-1.8545v8.37256h1.8545V315.563h-5.22168v-1.27832Zm6.84179,0v-8.37256h-1.87207v-1.26025h5.22119v1.26025h-1.85449v8.37256h1.85449V315.563h-5.22119v-1.27832Z" fill="#e9a460"/><path d="M1278.24219,310.55762a14.97459,14.97459,0,0,1,2.37646-8.17432l.91846.43164a15.50933,15.50933,0,0,0,0,15.48486l-.91846.43213A14.97455,14.97455,0,0,1,1278.24219,310.55762Z" fill="#e9a460"/><path d="M1286.25293,314.28467v-8.37256h-1.87256v-1.26025h5.22168v1.26025h-1.85449v8.37256h1.85449V315.563h-5.22168v-1.27832Z" fill="#e9a460"/><path d="M1294.51465,310.55762a14.98034,14.98034,0,0,0-2.0708-7.74268l.91845-.43164a15.24678,15.24678,0,0,1,0,16.34863l-.91845-.43213A14.97732,14.97732,0,0,0,1294.51465,310.55762Z" fill="#e9a460"/><path d="M1260.81934,164.28467v-8.37256h-1.87256v-1.26025h5.22168v1.26025h-1.8545v8.37256h1.8545V165.563h-5.22168v-1.27832Z" fill="#e9a460"/><path d="M1271.40283,160.55762a14.97459,14.97459,0,0,1,2.37647-8.17432l.91845.43164a15.50933,15.50933,0,0,0,0,15.48486l-.91845.43213A14.97456,14.97456,0,0,1,1271.40283,160.55762Z" fill="#e9a460"/><path d="M1279.41309,164.28467v-8.37256h-1.87256v-1.26025h5.22168v1.26025h-1.8545v8.37256h1.8545V165.563h-5.22168v-1.27832Zm6.84179,0v-8.37256h-1.87207v-1.26025h5.22119v1.26025h-1.85449v8.37256h1.85449V165.563h-5.22119v-1.27832Z" fill="#e9a460"/><path d="M1294.51465,160.55762a14.98034,14.98034,0,0,0-2.0708-7.74268l.91845-.43164a15.24678,15.24678,0,0,1,0,16.34863l-.91845-.43213A14.97732,14.97732,0,0,0,1294.51465,160.55762Z" fill="#e9a460"/><path d="M113.20068,53.41406h1.59766l3.77393,11.15039h-1.51319L116.00537,61.165h-4.0625l-1.0708,3.39941h-1.44482Zm-.90088,6.61231h3.34864l-.52686-1.7002c-.4082-1.24121-.76513-2.46484-1.12207-3.75683h-.06787c-.33984,1.292-.69678,2.51562-1.105,3.75683Z" fill="#cacaca"/><path d="M250.53174,53.41406h3.31494c2.26074,0,3.82471.76465,3.82471,2.71875a2.44084,2.44084,0,0,1-1.63184,2.43164v.06739a2.56479,2.56479,0,0,1,2.27734,2.66894c0,2.19238-1.73339,3.26367-4.23242,3.26367h-3.55273Zm3.06006,4.74219c1.90381,0,2.68554-.69727,2.68554-1.83594,0-1.292-.88379-1.78515-2.61767-1.78515h-1.7168v3.62109Zm.28857,5.28613c1.9209,0,3.043-.69629,3.043-2.19238,0-1.377-1.08789-2.00586-3.043-2.00586h-1.9375v4.19824Z" fill="#cacaca"/><path d="M373.67676,58.98926c0-3.58692,2.10791-5.7793,4.94629-5.7793a4.068,4.068,0,0,1,3.06006,1.377l-.76514.917a3.047,3.047,0,0,0-2.27783-1.05371c-2.10791,0-3.50147,1.73437-3.50147,4.50488,0,2.80469,1.34278,4.57226,3.45069,4.57226a3.363,3.363,0,0,0,2.58349-1.25781l.78223.88379a4.31432,4.31432,0,0,1-3.417,1.61523C375.75049,64.76855,373.67676,62.627,373.67676,58.98926Z" fill="#cacaca"/><path d="M383.28174,60.45117c0-2.77148,1.80176-4.35156,3.82471-4.35156s3.8247,1.58008,3.8247,4.35156c0,2.73633-1.80176,4.31738-3.8247,4.31738S383.28174,63.1875,383.28174,60.45117Zm6.20459,0c0-1.90429-.95215-3.19629-2.37988-3.19629-1.41114,0-2.37989,1.292-2.37989,3.19629,0,1.88672.96875,3.16113,2.37989,3.16113C388.53418,63.6123,389.48633,62.33789,389.48633,60.45117Z" fill="#cacaca"/><path d="M393.10742,56.30371h1.15625l.11865,1.18945h.05127A3.62818,3.62818,0,0,1,397,56.09961a2.16752,2.16752,0,0,1,2.27783,1.58008,3.90349,3.90349,0,0,1,2.71973-1.58008c1.70019,0,2.51611,1.12109,2.51611,3.22949v5.23535h-1.394V59.51562c0-1.54687-.49317-2.209-1.52979-2.209a3.031,3.031,0,0,0-2.07373,1.27441v5.9834h-1.394V59.51562c0-1.54687-.49316-2.209-1.54687-2.209a3.1003,3.1003,0,0,0-2.07374,1.27441v5.9834h-1.394Z" fill="#cacaca"/><path d="M408.49219,63.71484h-.05078l-.11914.84961H407.2002V52.46191h1.394v3.29786l-.03418,1.49511a4.0812,4.0812,0,0,1,2.584-1.15527c2.1416,0,3.28076,1.64844,3.28076,4.19824,0,2.82129-1.6831,4.4707-3.56982,4.4707A3.70118,3.70118,0,0,1,408.49219,63.71484ZM412.98,60.31445c0-1.81836-.6123-3.042-2.17578-3.042a3.4033,3.4033,0,0,0-2.21,1.12207v4.334a3.23463,3.23463,0,0,0,2.02295.86718C411.97705,63.5957,412.98,62.35449,412.98,60.31445Z" fill="#cacaca"/><path d="M521.59863,63.11914l.84961-.98535a4.36775,4.36775,0,0,0,3.07715,1.39355c1.46143,0,2.32861-.73046,2.32861-1.81836,0-1.13867-.79882-1.49609-1.853-1.97168L524.40332,59.04a3.13458,3.13458,0,0,1-2.26074-2.873c0-1.69922,1.479-2.957,3.50146-2.957a4.62463,4.62463,0,0,1,3.29785,1.377l-.76513.917A3.55659,3.55659,0,0,0,525.644,54.4502c-1.24072,0-2.07373.6289-2.07373,1.63183,0,1.07129.96875,1.47949,1.853,1.85352l1.58057.67968c1.292.56055,2.29492,1.32618,2.29492,2.97461,0,1.76758-1.44483,3.17871-3.79053,3.17871A5.40754,5.40754,0,0,1,521.59863,63.11914Z" fill="#cacaca"/><path d="M529.9624,53.41406h1.51319l1.78466,6.0166c.40772,1.32618.66309,2.37989,1.08789,3.68848h.06788c.4082-1.30859.68017-2.3623,1.0708-3.68848l1.78515-6.0166h1.44483l-3.53565,11.15039h-1.64892Z" fill="#cacaca"/><path d="M540.24756,53.41406h6.42529v1.18946H541.6582V58.377h4.24951v1.19043H541.6582v4.99707h-1.41064Z" fill="#cacaca"/><path d="M791.0105,245.11523l1-1.16015a5.14268,5.14268,0,0,0,3.6206,1.63965c1.72071,0,2.74073-.85938,2.74073-2.13965,0-1.34082-.94-1.76074-2.18018-2.32129l-1.88037-.81934a3.68823,3.68823,0,0,1-2.66065-3.38086c0-2.001,1.74024-3.48144,4.12061-3.48144a5.44183,5.44183,0,0,1,3.88086,1.62109l-.8999,1.08008a4.18333,4.18333,0,0,0-2.981-1.24023c-1.46,0-2.44043.74023-2.44043,1.91992,0,1.26074,1.14014,1.74023,2.18066,2.18066l1.86036.79981c1.52.66015,2.70068,1.56054,2.70068,3.501,0,2.08106-1.70068,3.74121-4.46143,3.74121A6.365,6.365,0,0,1,791.0105,245.11523Z" fill="#e9a460"/><path d="M802.49048,232.57227h1.64062v3.88085l-.06006,2.001a4.646,4.646,0,0,1,3.24073-1.60058c2.04052,0,2.96045,1.32031,2.96045,3.80078v6.16113h-1.64014V240.874c0-1.82031-.56006-2.60058-1.84033-2.60058-1.00049,0-1.68067.52051-2.66065,1.5v7.042h-1.64062Z" fill="#e9a460"/><path d="M812.76978,244.29492c0-2.12012,1.8208-3.18066,5.96142-3.64062,0-1.24024-.3999-2.44043-2.00049-2.44043a5.28269,5.28269,0,0,0-2.90039,1.04l-.64013-1.14063a7.21458,7.21458,0,0,1,3.8208-1.25976c2.38037,0,3.38037,1.58007,3.38037,4.001v5.96094h-1.35987l-.14013-1.16016h-.06006a5.18944,5.18944,0,0,1-3.2207,1.40039A2.64575,2.64575,0,0,1,812.76978,244.29492Zm5.96142.13965v-2.70019c-3.24072.40039-4.36084,1.20019-4.36084,2.44042,0,1.10059.76026,1.56055,1.72022,1.56055A3.93786,3.93786,0,0,0,818.7312,244.43457Z" fill="#e9a460"/><path d="M823.44995,237.09375h1.36035l.14014,1.12012h.06006a5.0311,5.0311,0,0,1,3.10058-1.36035c2.50049,0,3.84082,1.94043,3.84082,4.96093,0,3.30078-1.98046,5.24121-4.20068,5.24121a4.50719,4.50719,0,0,1-2.70068-1.12011l.04,1.70019V250.916h-1.64063Zm6.80176,4.7207c0-2.14062-.72022-3.58105-2.56055-3.58105a4.09416,4.09416,0,0,0-2.60058,1.32031v5.10156a3.84479,3.84479,0,0,0,2.38037,1.01953C829.07153,245.6748,830.25171,244.21484,830.25171,241.81445Z" fill="#e9a460"/><path d="M833.83032,241.97461c0-3.18066,2.14014-5.12109,4.36084-5.12109,2.48047,0,3.88086,1.78027,3.88086,4.56054a6.36292,6.36292,0,0,1-.06006.94043h-6.56152c.12012,2.06055,1.38037,3.38086,3.24072,3.38086a4.38617,4.38617,0,0,0,2.42041-.76074l.58008,1.081a5.78912,5.78912,0,0,1-3.20068,1C835.89038,247.05566,833.83032,245.15527,833.83032,241.97461Zm6.80127-.80078c0-1.96-.88037-3.02051-2.40039-3.02051-1.36035,0-2.60058,1.10059-2.80078,3.02051Z" fill="#e9a460"/><path d="M844.46948,237.09375h1.36035l.14014,1.75977H846.03a3.32569,3.32569,0,0,1,2.76074-2,2.405,2.405,0,0,1,1.04.20019l-.31982,1.44043a2.71081,2.71081,0,0,0-.94043-.16016c-.82032,0-1.8003.59961-2.46045,2.24024v6.24121h-1.64063Z" fill="#e9a460"/><path d="M646.0603,233.69238H649.801c2.94091,0,4.92138.98047,4.92138,3.86133,0,2.76074-1.96045,4.06055-4.84131,4.06055H647.721v5.20117H646.0603Zm3.6211,6.56153c2.28027,0,3.38037-.83985,3.38037-2.7002,0-1.90039-1.16016-2.52051-3.46045-2.52051H647.721v5.22071Z" fill="#e9a460"/><path d="M655.76,244.29492c0-2.12012,1.8208-3.18066,5.96143-3.64062,0-1.24024-.39991-2.44043-2.00049-2.44043a5.28264,5.28264,0,0,0-2.90039,1.04l-.64014-1.14063a7.21458,7.21458,0,0,1,3.8208-1.25976c2.38037,0,3.38037,1.58007,3.38037,4.001v5.96094h-1.35986l-.14014-1.16016h-.06006a5.18944,5.18944,0,0,1-3.2207,1.40039A2.64575,2.64575,0,0,1,655.76,244.29492Zm5.96143.13965v-2.70019c-3.24073.40039-4.36084,1.20019-4.36084,2.44042,0,1.10059.76025,1.56055,1.72021,1.56055A3.9379,3.9379,0,0,0,661.72144,244.43457Z" fill="#e9a460"/><path d="M666.44019,237.09375h1.36035l.14013,1.40039h.06006a4.58077,4.58077,0,0,1,3.26074-1.64062c2.04053,0,2.96045,1.32031,2.96045,3.80078v6.16113h-1.64013V240.874c0-1.82031-.56006-2.60058-1.84033-2.60058-1.00049,0-1.68067.52051-2.66065,1.5v7.042h-1.64062Z" fill="#e9a460"/><path d="M100.06055,172.24658h3.74072c2.94043,0,4.9209.98047,4.9209,3.86133,0,2.76074-1.96045,4.06055-4.84082,4.06055H101.7207v5.20117h-1.66015Zm3.6206,6.56153c2.28076,0,3.38086-.83985,3.38086-2.7002,0-1.90039-1.16015-2.52051-3.46094-2.52051H101.7207v5.22071Z" fill="#e9a460"/><path d="M109.76025,182.84912c0-2.12012,1.82032-3.18066,5.96143-3.64062,0-1.24024-.40039-2.44043-2.00049-2.44043a5.28428,5.28428,0,0,0-2.90088,1.04l-.64013-1.14063a7.21758,7.21758,0,0,1,3.8208-1.25977c2.38086,0,3.38086,1.58008,3.38086,4.001v5.96094h-1.36036l-.13964-1.16016h-.06006a5.18944,5.18944,0,0,1-3.22071,1.40039A2.64575,2.64575,0,0,1,109.76025,182.84912Zm5.96143.13965v-2.7002c-3.24072.40039-4.36084,1.2002-4.36084,2.44043,0,1.10059.75977,1.56055,1.72021,1.56055A3.93981,3.93981,0,0,0,115.72168,182.98877Z" fill="#e9a460"/><path d="M120.44043,175.648h1.36035l.13965,1.40039h.06006a4.58078,4.58078,0,0,1,3.26074-1.64063c2.04053,0,2.96094,1.32032,2.96094,3.80079v6.16113h-1.64063v-5.94141c0-1.82031-.56006-2.60058-1.84033-2.60058-1,0-1.68017.5205-2.66064,1.5v7.042h-1.64014Z" fill="#e9a460"/><path d="M240.06055,172.24658h3.74072c2.94043,0,4.9209.98047,4.9209,3.86133,0,2.76074-1.96045,4.06055-4.84082,4.06055H241.7207v5.20117h-1.66015Zm3.6206,6.56153c2.28076,0,3.38086-.83985,3.38086-2.7002,0-1.90039-1.16015-2.52051-3.46094-2.52051H241.7207v5.22071Z" fill="#e9a460"/><path d="M249.76025,182.84912c0-2.12012,1.82032-3.18066,5.96143-3.64062,0-1.24024-.40039-2.44043-2.00049-2.44043a5.28428,5.28428,0,0,0-2.90088,1.04l-.64013-1.14063a7.21758,7.21758,0,0,1,3.8208-1.25977c2.38086,0,3.38086,1.58008,3.38086,4.001v5.96094h-1.36036l-.13964-1.16016h-.06006a5.18944,5.18944,0,0,1-3.22071,1.40039A2.64575,2.64575,0,0,1,249.76025,182.84912Zm5.96143.13965v-2.7002c-3.24072.40039-4.36084,1.2002-4.36084,2.44043,0,1.10059.75977,1.56055,1.72021,1.56055A3.93981,3.93981,0,0,0,255.72168,182.98877Z" fill="#e9a460"/><path d="M260.44043,175.648h1.36035l.13965,1.40039h.06006a4.58078,4.58078,0,0,1,3.26074-1.64063c2.04053,0,2.96094,1.32032,2.96094,3.80079v6.16113h-1.64063v-5.94141c0-1.82031-.56006-2.60058-1.84033-2.60058-1,0-1.68017.5205-2.66064,1.5v7.042h-1.64014Z" fill="#e9a460"/><path d="M380.06055,172.24658h3.74072c2.94043,0,4.9209.98047,4.9209,3.86133,0,2.76074-1.96045,4.06055-4.84082,4.06055H381.7207v5.20117h-1.66015Zm3.6206,6.56153c2.28076,0,3.38086-.83985,3.38086-2.7002,0-1.90039-1.16015-2.52051-3.46094-2.52051H381.7207v5.22071Z" fill="#e9a460"/><path d="M389.76025,182.84912c0-2.12012,1.82032-3.18066,5.96143-3.64062,0-1.24024-.40039-2.44043-2.00049-2.44043a5.28428,5.28428,0,0,0-2.90088,1.04l-.64013-1.14063a7.21758,7.21758,0,0,1,3.8208-1.25977c2.38086,0,3.38086,1.58008,3.38086,4.001v5.96094h-1.36036l-.13964-1.16016h-.06006a5.18944,5.18944,0,0,1-3.22071,1.40039A2.64575,2.64575,0,0,1,389.76025,182.84912Zm5.96143.13965v-2.7002c-3.24072.40039-4.36084,1.2002-4.36084,2.44043,0,1.10059.75977,1.56055,1.72021,1.56055A3.93981,3.93981,0,0,0,395.72168,182.98877Z" fill="#e9a460"/><path d="M400.44043,175.648h1.36035l.13965,1.40039h.06006a4.58078,4.58078,0,0,1,3.26074-1.64063c2.04053,0,2.96094,1.32032,2.96094,3.80079v6.16113h-1.64063v-5.94141c0-1.82031-.56006-2.60058-1.84033-2.60058-1,0-1.68017.5205-2.66064,1.5v7.042h-1.64014Z" fill="#e9a460"/><path d="M520.06055,172.24658h3.74072c2.94043,0,4.9209.98047,4.9209,3.86133,0,2.76074-1.96045,4.06055-4.84082,4.06055H521.7207v5.20117h-1.66015Zm3.6206,6.56153c2.28076,0,3.38086-.83985,3.38086-2.7002,0-1.90039-1.16015-2.52051-3.46094-2.52051H521.7207v5.22071Z" fill="#e9a460"/><path d="M529.76025,182.84912c0-2.12012,1.82032-3.18066,5.96143-3.64062,0-1.24024-.40039-2.44043-2.00049-2.44043a5.28428,5.28428,0,0,0-2.90088,1.04l-.64013-1.14063a7.21758,7.21758,0,0,1,3.8208-1.25977c2.38086,0,3.38086,1.58008,3.38086,4.001v5.96094h-1.36036l-.13964-1.16016h-.06006a5.18944,5.18944,0,0,1-3.22071,1.40039A2.64575,2.64575,0,0,1,529.76025,182.84912Zm5.96143.13965v-2.7002c-3.24072.40039-4.36084,1.2002-4.36084,2.44043,0,1.10059.75977,1.56055,1.72021,1.56055A3.93981,3.93981,0,0,0,535.72168,182.98877Z" fill="#e9a460"/><path d="M540.44043,175.648h1.36035l.13965,1.40039h.06006a4.58078,4.58078,0,0,1,3.26074-1.64063c2.04053,0,2.96094,1.32032,2.96094,3.80079v6.16113h-1.64063v-5.94141c0-1.82031-.56006-2.60058-1.84033-2.60058-1,0-1.68017.5205-2.66064,1.5v7.042h-1.64014Z" fill="#e9a460"/><path d="M951.62036,232.24658h1.78027l2.10059,7.082c.48,1.55957.78027,2.80078,1.28027,4.34082h.08008c.48-1.54.8003-2.78125,1.26026-4.34082l2.10058-7.082h1.7002l-4.16114,13.12305H955.821Z" fill="#e9a460"/><path d="M962.54077,240.52881c0-3.26074,2.12012-5.1211,4.501-5.1211,2.38037,0,4.501,1.86036,4.501,5.1211,0,3.2207-2.1206,5.08105-4.501,5.08105C964.66089,245.60986,962.54077,243.74951,962.54077,240.52881Zm7.30127,0c0-2.24024-1.12012-3.76074-2.80029-3.76074-1.66065,0-2.80078,1.5205-2.80078,3.76074,0,2.2207,1.14013,3.7207,2.80078,3.7207C968.72192,244.24951,969.842,242.74951,969.842,240.52881Z" fill="#e9a460"/><path d="M973.80054,232.58643a1.1432,1.1432,0,0,1,2.28027,0,1.14312,1.14312,0,0,1-2.28027,0Zm.2998,3.06152H975.741v9.72168h-1.64063Z" fill="#e9a460"/><path d="M978.30054,240.52881c0-3.26074,2.18017-5.1211,4.68066-5.1211a4.03557,4.03557,0,0,1,2.84082,1.13965l-.84033,1.08106a2.847,2.847,0,0,0-1.94043-.86035c-1.76025,0-3.04053,1.5205-3.04053,3.76074,0,2.2207,1.22022,3.7207,3.00049,3.7207a3.45607,3.45607,0,0,0,2.28076-.98047l.72022,1.10059a4.74278,4.74278,0,0,1-3.14112,1.24023C980.28052,245.60986,978.30054,243.74951,978.30054,240.52881Z" fill="#e9a460"/><path d="M987.00024,240.52881c0-3.18067,2.14014-5.1211,4.36084-5.1211,2.48047,0,3.88086,1.78028,3.88086,4.56055a6.36292,6.36292,0,0,1-.06006.94043h-6.56152c.12012,2.06055,1.38037,3.38086,3.24072,3.38086a4.38617,4.38617,0,0,0,2.42041-.76074l.58008,1.08105a5.78912,5.78912,0,0,1-3.20068,1C989.0603,245.60986,987.00024,243.70947,987.00024,240.52881Zm6.80127-.80078c0-1.96-.88037-3.02051-2.40039-3.02051-1.36035,0-2.60058,1.10059-2.80078,3.02051Z" fill="#e9a460"/><path d="M1001.80005,232.24658h2.00049l2.5205,7.002c.32032.90039.62012,1.83984.94043,2.74023h.08008c.31983-.90039.58008-1.83984.89991-2.74023l2.48046-7.002h2.02051v13.12305h-1.56006V238.148c0-1.16016.13965-2.7207.21973-3.88086h-.08008l-1.04,2.98047-2.48047,6.80176h-1.10009l-2.481-6.80176-1.04-2.98047h-.08008c.08008,1.16016.2002,2.7207.2002,3.88086v7.22168h-1.50049Z" fill="#e9a460"/><path d="M1015.87964,232.58643a1.1432,1.1432,0,0,1,2.28027,0,1.14312,1.14312,0,0,1-2.28027,0Zm.2998,3.06152h1.64063v9.72168h-1.64063Z" fill="#e9a460"/><path d="M1022.92017,240.28857l-2.94092-4.64062h1.78027l1.30029,2.13965c.3003.52051.62012,1.08105.96045,1.62109h.08008c.27979-.54.58008-1.10058.87988-1.62109l1.18067-2.13965h1.72021l-2.94091,4.82031,3.16113,4.90137h-1.78076l-1.42041-2.26074c-.33985-.58008-.69971-1.17969-1.06006-1.74024H1023.76c-.33984.56055-.66016,1.14063-.98,1.74024l-1.32031,2.26074h-1.72022Z" fill="#e9a460"/><rect x="1150.5" y="170.5" width="19" height="59" fill="#4e4e4e"/><path d="M1169,171v58h-18V171h18m1-1h-20v60h20V170Z" fill="#7f7f7f"/><rect x="1190.5" y="220.5" width="19" height="59" fill="#4e4e4e"/><path d="M1209,221v58h-18V221h18m1-1h-20v60h20V220Z" fill="#7f7f7f"/></svg>