<svg xmlns="http://www.w3.org/2000/svg" viewBox="0 0 290 490"><title>a-out</title><rect width="290" height="490" fill="#1a1a1a"/><path d="M213.66227,293.89154v-22.174a6.529,6.529,0,0,0-6.52179-6.52185H169.85423a3.91731,3.91731,0,0,1-3.913-3.91309V233.175h2.25806l2.267-.86951s1.29547-.57995,1.29547-1.29553V185.25653a.6477.6477,0,0,0-.45136-.61719l-1.81567-.57775v-4.052h-1.61932V166.8493a.98977.98977,0,0,0-.32386-.728V163.6142a.98954.98954,0,0,0,.32386-.72791v-4.47717a.98961.98961,0,0,0-.32386-.728v-3.52856a.98961.98961,0,0,0,.32386-.728V152.181l-1.29541-1.46912,1.61932-3.73608-3.08325-4.33069a.64763.64763,0,0,0-.9585,0l-3.08319,4.33069,1.61926,3.73608-1.29541,1.46912v1.24353a.98961.98961,0,0,0,.32386.728v3.52856a.98961.98961,0,0,0-.32386.728v4.47717a.98954.98954,0,0,0,.32386.72791v2.50708a.98977.98977,0,0,0-.32386.728v13.16028h-1.61932v4.05213l-1.81567.57763a.6477.6477,0,0,0-.45136.61719V231.01c0,.71558,1.29547,1.29553,1.29547,1.29553l2.267.86951h2.25818v28.10766a6.52886,6.52886,0,0,0,6.52173,6.52186h37.28625a3.9173,3.9173,0,0,1,3.913,3.91308v22.174" fill="#4d4d4d" stroke="#000" stroke-miterlimit="10" stroke-width="2"/><rect x="97.67334" y="36.56396" width="94.65283" height="85.95703" rx="1.5" ry="1.5" fill="#333"/><path d="M190.8261,37.064a1.00115,1.00115,0,0,1,1,1v82.957a1.00115,1.00115,0,0,1-1,1H99.17335a1.00114,1.00114,0,0,1-1-1V38.064a1.00114,1.00114,0,0,1,1-1H190.8261m0-1H99.17335a2.00006,2.00006,0,0,0-2,2v82.957a2,2,0,0,0,2,2H190.8261a2,2,0,0,0,2-2V38.064a2.00006,2.00006,0,0,0-2-2Z" fill="#4d4d4d"/><path d="M190.82608,36.064a2,2,0,0,1,2,2v82.957a2,2,0,0,1-2,2H99.17336a2,2,0,0,1-2-2V38.064a2.00005,2.00005,0,0,1,2-2h91.65272m0-.5H99.17336a2.50281,2.50281,0,0,0-2.5,2.5v82.957a2.50281,2.50281,0,0,0,2.5,2.5h91.65272a2.50281,2.50281,0,0,0,2.5-2.5V38.064a2.50281,2.50281,0,0,0-2.5-2.5Z"/><path d="M132.254,87.041l6.02524,10.436a1,1,0,0,1,0,1L132.254,108.913a1,1,0,0,1-.866.5H119.33746a1,1,0,0,1-.866-.5l-6.02524-10.436a1,1,0,0,1,0-1l6.02524-10.436a1,1,0,0,1,.866-.5h12.05048A1,1,0,0,1,132.254,87.041Z" fill="#1a1a1a" stroke="#4d4d4d" stroke-miterlimit="10"/><circle cx="125.3627" cy="98.04268" r="6.53487" stroke="#4d4d4d" stroke-miterlimit="10" stroke-width="0.5"/><path d="M171.528,87.041l6.02525,10.436a1,1,0,0,1,0,1L171.528,108.913a1,1,0,0,1-.866.5H158.6115a1,1,0,0,1-.866-.5l-6.02524-10.436a1,1,0,0,1,0-1l6.02524-10.436a1,1,0,0,1,.866-.5H170.662A1,1,0,0,1,171.528,87.041Z" fill="#1a1a1a" stroke="#4d4d4d" stroke-miterlimit="10"/><circle cx="164.63675" cy="98.04268" r="6.53487" stroke="#4d4d4d" stroke-miterlimit="10" stroke-width="0.5"/><path d="M127.209,50.96533h1.00049l1.56641,4.8086h-.89746l-.375-1.30079h-1.61817l-.375,1.30079h-.86767Zm-.125,2.83789h1.22852l-.16943-.58789c-.1543-.50781-.29395-1.05859-.43409-1.58984h-.02929c-.13233.53711-.272,1.082-.42627,1.58984Z" fill="#f2f2f2"/><path d="M130.62012,53.66455V50.96533h.853V53.729c0,1.04493.39014,1.39063.9712,1.39063.58789,0,1-.3457,1-1.39063V50.96533h.8164v2.69922c0,1.58008-.69873,2.19727-1.8164,2.19727C131.3335,55.86182,130.62012,55.24463,130.62012,53.66455Z" fill="#f2f2f2"/><path d="M135.82471,50.96533h1.28711a2.12261,2.12261,0,0,1,2.33886,2.38281,2.14042,2.14042,0,0,1-2.29443,2.42579h-1.33154Zm1.22851,4.11719c.97071,0,1.52246-.55078,1.52246-1.73438,0-1.17773-.55175-1.6914-1.52246-1.6914h-.37549v3.42578Z" fill="#f2f2f2"/><path d="M140.78711,50.96533h.853v4.8086h-.853Z" fill="#f2f2f2"/><path d="M142.978,53.34814c0-1.55273.86767-2.47265,2.11816-2.47265,1.25781,0,2.12549.91992,2.12549,2.47265,0,1.5586-.86768,2.51368-2.12549,2.51368C143.8457,55.86182,142.978,54.90674,142.978,53.34814Zm3.36133,0c0-1.07421-.48584-1.72851-1.24317-1.72851s-1.24267.6543-1.24267,1.72851c0,1.08008.48535,1.77149,1.24267,1.77149S146.33936,54.42822,146.33936,53.34814Z" fill="#f2f2f2"/><path d="M150.13867,53.34814c0-1.55273.86768-2.47265,2.11817-2.47265,1.25781,0,2.12548.91992,2.12548,2.47265,0,1.5586-.86767,2.51368-2.12548,2.51368C151.00635,55.86182,150.13867,54.90674,150.13867,53.34814Zm3.36133,0c0-1.07421-.48535-1.72851-1.24316-1.72851-.75733,0-1.24317.6543-1.24317,1.72851,0,1.08008.48584,1.77149,1.24317,1.77149C153.01465,55.11963,153.5,54.42822,153.5,53.34814Z" fill="#f2f2f2"/><path d="M155.68945,53.66455V50.96533h.853V53.729c0,1.04493.39014,1.39063.97119,1.39063.58789,0,1-.3457,1-1.39063V50.96533h.81641v2.69922c0,1.58008-.69873,2.19727-1.81641,2.19727C156.40283,55.86182,155.68945,55.24463,155.68945,53.66455Z" fill="#f2f2f2"/><path d="M161.86475,51.686H160.4751v-.72071h3.6333V51.686h-1.39014v4.08789h-.85351Z" fill="#f2f2f2"/><path d="M163.353,76.09814h.84961v4.07227h1.99218v.71875H163.353Z" fill="#f2f2f2"/><path d="M123.814,76.09814h1.61866c.99609,0,1.75781.35157,1.75781,1.42188a1.33966,1.33966,0,0,1-.95215,1.36914l1.14258,2h-.95215l-1.03271-1.875h-.73243v1.875H123.814Zm1.53077,2.24219c.65185,0,1.01074-.27929,1.01074-.82031,0-.54883-.35889-.74023-1.01074-.74023h-.68116v1.56054Z" fill="#f2f2f2"/><line x1="144.97781" y1="59.99307" x2="144.97781" y2="66.52794" fill="none" stroke="#f2f2f2" stroke-miterlimit="10" stroke-width="0.5"/><polyline points="164.582 73.063 164.582 66.528 125.373 66.528 125.373 73.063" fill="none" stroke="#f2f2f2" stroke-miterlimit="10" stroke-width="0.5"/><path d="M78.94593,303.89164H76.33722v-32.1741a6.52891,6.52891,0,0,1,6.52177-6.52178h37.28622a3.91735,3.91735,0,0,0,3.91307-3.91307v-28.9769H126.667v28.9769a6.52891,6.52891,0,0,1-6.52178,6.52178H82.859a3.91734,3.91734,0,0,0-3.91306,3.91307Z" stroke="#666" stroke-miterlimit="10" stroke-width="0.5"/><path d="M213.66223,303.89164h-2.60871v-32.1741a3.91735,3.91735,0,0,0-3.91307-3.91307H169.85423a6.52891,6.52891,0,0,1-6.52178-6.52178v-28.9769h2.60872v28.9769a3.91734,3.91734,0,0,0,3.91306,3.91307h37.28622a6.52891,6.52891,0,0,1,6.52178,6.52178Z" stroke="#666" stroke-miterlimit="10" stroke-width="0.5"/><rect x="160.44069" y="294.36594" width="103.80931" height="154.88975" rx="6" ry="6" fill="#b3b3b3" stroke="#4d4d4d" stroke-miterlimit="10" stroke-width="0.5"/><rect x="162.14278" y="295.98017" width="100.40513" height="151.66129" rx="4" ry="4" fill="#f2f2f2" stroke="#4d4d4d" stroke-miterlimit="10" stroke-width="0.5"/><circle cx="212.34534" cy="398.13482" r="42.17416" fill="#ccc" stroke="#1a1a1a" stroke-miterlimit="10" stroke-width="0.3"/><circle cx="212.34534" cy="398.13482" r="34" fill="#f2f2f2" stroke="#000" stroke-miterlimit="10" stroke-width="4"/><circle cx="212.34534" cy="398.13482" r="30.65219" fill="#d6d6d6"/><circle cx="212.34534" cy="398.13482" r="27.30437" fill="#bbb"/><circle cx="212.34534" cy="398.13482" r="23.95656" fill="#a0a0a0"/><circle cx="212.34534" cy="398.13482" r="20.60875" fill="#848484"/><circle cx="212.34534" cy="398.13482" r="17.26094" fill="#696969"/><circle cx="212.34534" cy="398.13482" r="13.91312" fill="#4d4d4d"/><path d="M212.34521,410.17822a12.04346,12.04346,0,1,1,12.04346-12.043A12.05688,12.05688,0,0,1,212.34521,410.17822Z"/><path d="M212.34534,387.09131a11.04352,11.04352,0,1,1-11.04354,11.04346,11.056,11.056,0,0,1,11.04354-11.04346m0-2a13.04352,13.04352,0,1,0,13.04356,13.04346,13.04348,13.04348,0,0,0-13.04356-13.04346Z" fill="#333"/><path d="M212.34521,350.35107a24.12939,24.12939,0,1,1,24.12989-24.12988A24.15659,24.15659,0,0,1,212.34521,350.35107Z" fill="#ccc"/><path d="M212.34534,302.29163a23.92969,23.92969,0,1,1-23.92972,23.92968,23.95674,23.95674,0,0,1,23.92972-23.92968m0-.4a24.32972,24.32972,0,1,0,24.32972,24.32971,24.32974,24.32974,0,0,0-24.32972-24.32971Z" fill="#666"/><path d="M212.34534,301.8916a24.32972,24.32972,0,1,1-24.32972,24.32971,24.32974,24.32974,0,0,1,24.32972-24.32971m0-.3a24.62976,24.62976,0,1,0,24.62971,24.62976,24.65768,24.65768,0,0,0-24.62971-24.62976Z" fill="#ccc"/><circle cx="212.34534" cy="359.23092" r="1.73914"/><circle cx="251.24925" cy="398.13482" r="1.73914"/><circle cx="212.34534" cy="437.03872" r="1.73914"/><circle cx="173.44144" cy="398.13482" r="1.73914"/><circle cx="212.34534" cy="398.13482" r="12" fill="#b3b3b3"/><circle cx="212.34534" cy="398.13482" r="10.66667" fill="#bebebe"/><circle cx="212.34534" cy="398.13482" r="9.33333" fill="#c8c8c8"/><circle cx="212.34534" cy="398.13482" r="8" fill="#d3d3d3"/><circle cx="212.34534" cy="398.13482" r="6.66667" fill="#ddd"/><circle cx="212.34534" cy="398.13482" r="5.33333" fill="#e7e7e7"/><circle cx="212.34534" cy="398.13482" r="4" fill="#f2f2f2"/><circle cx="212.34534" cy="326.22135" r="12" fill="gray"/><circle cx="212.34534" cy="326.22135" r="10.41667" fill="#939393"/><circle cx="212.34534" cy="326.22135" r="8.83333" fill="#a6a6a6"/><circle cx="212.34534" cy="326.22135" r="7.25" fill="#b9b9b9"/><circle cx="212.34534" cy="326.22135" r="5.66667" fill="#ccc"/><circle cx="212.34534" cy="326.22135" r="4.08333" fill="#dfdfdf"/><circle cx="212.34534" cy="326.22135" r="2.5" fill="#f2f2f2"/><rect x="122.44795" y="153.98397" width="5.82949" height="4.30651" fill="#333"/><rect x="122.44795" y="163.22546" width="5.82949" height="3.19718" fill="#333"/><path d="M123.12409,165.84924h4.47722a1,1,0,0,1,1,1v32.014a0,0,0,0,1,0,0h-6.47722a0,0,0,0,1,0,0v-32.014A1,1,0,0,1,123.12409,165.84924Z" fill="#ccc"/><path d="M122.12409,152.18092h6.47722a0,0,0,0,1,0,0v1.24363a1,1,0,0,1-1,1h-4.47722a1,1,0,0,1-1-1v-1.24363A0,0,0,0,1,122.12409,152.18092Z" fill="#ccc"/><rect x="122.12409" y="157.40902" width="6.47722" height="6.47722" rx="1" ry="1" fill="#ccc"/><rect x="120.50479" y="180.00955" width="9.71582" height="49.29657" fill="gray"/><polygon points="127.306 150.712 128.601 152.181 125.363 152.181 122.124 152.181 123.42 150.712 127.306 150.712" fill="#999"/><polygon points="128.925 146.976 127.306 150.712 123.42 150.712 121.8 146.976 128.925 146.976" fill="gray"/><path d="M121.80023,146.97575l3.08319-4.33071a.64772.64772,0,0,1,.95855,0l3.0832,4.33071Z" fill="#ccc"/><path d="M121.80029,233.42529l-2.35644-.88672c-.16065-.07128-1.45606-.67578-1.45606-1.52832v-45.7539a.89623.89623,0,0,1,.625-.85547l3.11182-.99024,3.627-.17285,3.585.16114,3.1753,1.00195a.89649.89649,0,0,1,.626.85547v45.7539c0,.85254-1.29541,1.457-1.44336,1.52344l-2.32275.8916Z" fill="#333"/><path d="M125.3627,183.48743l3.56247.162,3.11114.98987a.6478.6478,0,0,1,.45133.61719V231.01c0,.71545-1.29545,1.29541-1.29545,1.29541l-2.267.86963h-7.12494l-2.267-.86963s-1.29545-.58-1.29545-1.29541V185.25647a.6478.6478,0,0,1,.45133-.61719l3.11114-.98987,3.56247-.162m0-.50049-.02271.001-3.56247.162-.066.00305-.06293.02-3.11114.98987a1.14377,1.14377,0,0,0-.79973,1.09363V231.01c0,.98938,1.32544,1.63281,1.59115,1.75171l2.29224.88013.08647.0332h7.31016l.08647-.0332,2.267-.86963c.29093-.1294,1.61637-.77283,1.61637-1.76221V185.25647a1.14379,1.14379,0,0,0-.79965-1.09363l-3.11122-.98987-.06293-.02-.066-.00305-3.56247-.162-.02271-.001Z" fill="#4d4d4d"/><path d="M128.92517,183.64939l3.11114.98991a.64772.64772,0,0,1,.45133.61723V231.01c0,.71545-1.29545,1.29544-1.29545,1.29544l-2.267.86957Z"/><rect x="161.722" y="153.98397" width="5.82949" height="4.30651" fill="#333"/><rect x="161.722" y="163.22546" width="5.82949" height="3.19718" fill="#333"/><path d="M162.39814,165.84924h4.47722a1,1,0,0,1,1,1v32.014a0,0,0,0,1,0,0h-6.47722a0,0,0,0,1,0,0v-32.014A1,1,0,0,1,162.39814,165.84924Z" fill="#ccc"/><path d="M161.39814,152.18092h6.47722a0,0,0,0,1,0,0v1.24363a1,1,0,0,1-1,1h-4.47722a1,1,0,0,1-1-1v-1.24363A0,0,0,0,1,161.39814,152.18092Z" fill="#ccc"/><rect x="161.39814" y="157.40902" width="6.47722" height="6.47722" rx="1" ry="1" fill="#ccc"/><rect x="159.77883" y="180.00955" width="9.71582" height="49.29657" fill="gray"/><polygon points="166.58 150.712 167.875 152.181 164.637 152.181 161.398 152.181 162.694 150.712 166.58 150.712" fill="#999"/><polygon points="168.199 146.976 166.58 150.712 162.694 150.712 161.074 146.976 168.199 146.976" fill="gray"/><path d="M161.07428,146.97575l3.08319-4.33071a.64772.64772,0,0,1,.95855,0l3.08319,4.33071Z" fill="#ccc"/><path d="M161.07422,233.42529l-2.35645-.88672c-.16064-.07128-1.45605-.67578-1.45605-1.52832v-45.7539a.89666.89666,0,0,1,.62549-.85547l3.11133-.99024,3.627-.17285,3.585.16114,3.17578,1.00195a.89605.89605,0,0,1,.62549.85547v45.7539c0,.85254-1.29541,1.457-1.44336,1.52344l-2.32275.8916Z" fill="#333"/><path d="M164.63675,183.48743l3.56246.162,3.11115.98987a.6478.6478,0,0,1,.45133.61719V231.01c0,.71545-1.29545,1.29541-1.29545,1.29541l-2.267.86963h-7.12493l-2.267-.86963s-1.29545-.58-1.29545-1.29541V185.25647a.64781.64781,0,0,1,.45133-.61719l3.11115-.98987,3.56247-.162m0-.50049-.02272.001-3.56246.162-.066.00305-.06293.02-3.11115.98987a1.14378,1.14378,0,0,0-.79973,1.09363V231.01c0,.98938,1.32545,1.63281,1.59115,1.75171l2.29225.88013.08646.0332h7.31017l.08647-.0332,2.267-.86963c.29092-.1294,1.61636-.77283,1.61636-1.76221V185.25647a1.1438,1.1438,0,0,0-.79964-1.09363l-3.11123-.98987-.06292-.02-.066-.00305-3.56247-.162-.02271-.001Z" fill="#4d4d4d"/><path d="M168.19921,183.64939l3.11114.98991a.64772.64772,0,0,1,.45133.61723V231.01c0,.71545-1.29544,1.29544-1.29544,1.29544l-2.267.86957Z"/><path d="M161.07428,183.64939l-3.11114.98991a.64772.64772,0,0,0-.45133.61723V231.01c0,.71545,1.29544,1.29544,1.29544,1.29544l2.267.86957Z" fill="#4d4d4d"/><path d="M121.80023,183.64939l-3.11114.98991a.64772.64772,0,0,0-.45133.61723V231.01c0,.71545,1.29544,1.29544,1.29544,1.29544l2.267.86957Z" fill="#4d4d4d"/><circle cx="227.08969" cy="311.477" r="1.5" fill="#333"/><circle cx="227.08969" cy="340.96569" r="1.5" fill="#333"/><circle cx="197.601" cy="340.96569" r="1.5" fill="#333"/><circle cx="197.601" cy="311.477" r="1.5" fill="#333"/><rect x="25.39845" y="294.36594" width="103.80931" height="154.88975" rx="6" ry="6" fill="#b3b3b3" stroke="#4d4d4d" stroke-miterlimit="10" stroke-width="0.5"/><rect x="27.10054" y="295.98017" width="100.40513" height="151.66129" rx="4" ry="4" fill="#f2f2f2" stroke="#4d4d4d" stroke-miterlimit="10" stroke-width="0.5"/><circle cx="77.3031" cy="398.13482" r="42.17416" fill="#ccc" stroke="#1a1a1a" stroke-miterlimit="10" stroke-width="0.3"/><circle cx="77.3031" cy="398.13482" r="34" fill="#f2f2f2" stroke="#000" stroke-miterlimit="10" stroke-width="4"/><circle cx="77.3031" cy="398.13482" r="30.65219" fill="#d6d6d6"/><circle cx="77.3031" cy="398.13482" r="27.30437" fill="#bbb"/><circle cx="77.3031" cy="398.13482" r="23.95656" fill="#a0a0a0"/><circle cx="77.3031" cy="398.13482" r="20.60875" fill="#848484"/><circle cx="77.3031" cy="398.13482" r="17.26094" fill="#696969"/><circle cx="77.3031" cy="398.13482" r="13.91312" fill="#4d4d4d"/><path d="M77.303,410.17822a12.04346,12.04346,0,1,1,12.04346-12.043A12.05688,12.05688,0,0,1,77.303,410.17822Z"/><path d="M77.3031,387.09131a11.04352,11.04352,0,1,1-11.04355,11.04346A11.056,11.056,0,0,1,77.3031,387.09131m0-2a13.04352,13.04352,0,1,0,13.04356,13.04346A13.04348,13.04348,0,0,0,77.3031,385.09131Z" fill="#333"/><path d="M77.303,350.35107a24.12939,24.12939,0,1,1,24.12989-24.12988A24.15659,24.15659,0,0,1,77.303,350.35107Z" fill="#ccc"/><path d="M77.3031,302.29163a23.92969,23.92969,0,1,1-23.92972,23.92968A23.95674,23.95674,0,0,1,77.3031,302.29163m0-.4a24.32972,24.32972,0,1,0,24.32971,24.32971A24.32974,24.32974,0,0,0,77.3031,301.8916Z" fill="#666"/><path d="M77.3031,301.8916a24.32972,24.32972,0,1,1-24.32972,24.32971A24.32973,24.32973,0,0,1,77.3031,301.8916m0-.3a24.62976,24.62976,0,1,0,24.62971,24.62976A24.65769,24.65769,0,0,0,77.3031,301.59155Z" fill="#ccc"/><circle cx="77.3031" cy="359.23092" r="1.73914"/><circle cx="116.20701" cy="398.13482" r="1.73914"/><circle cx="77.3031" cy="437.03872" r="1.73914"/><circle cx="38.3992" cy="398.13482" r="1.73914"/><circle cx="77.3031" cy="398.13482" r="12" fill="#b3b3b3"/><circle cx="77.3031" cy="398.13482" r="10.66667" fill="#bebebe"/><circle cx="77.3031" cy="398.13482" r="9.33333" fill="#c8c8c8"/><circle cx="77.3031" cy="398.13482" r="8" fill="#d3d3d3"/><circle cx="77.3031" cy="398.13482" r="6.66667" fill="#ddd"/><circle cx="77.3031" cy="398.13482" r="5.33333" fill="#e7e7e7"/><circle cx="77.3031" cy="398.13482" r="4" fill="#f2f2f2"/><circle cx="77.3031" cy="326.22135" r="12" fill="gray"/><circle cx="77.3031" cy="326.22135" r="10.41667" fill="#939393"/><circle cx="77.3031" cy="326.22135" r="8.83333" fill="#a6a6a6"/><circle cx="77.3031" cy="326.22135" r="7.25" fill="#b9b9b9"/><circle cx="77.3031" cy="326.22135" r="5.66667" fill="#ccc"/><circle cx="77.3031" cy="326.22135" r="4.08333" fill="#dfdfdf"/><circle cx="77.3031" cy="326.22135" r="2.5" fill="#f2f2f2"/><circle cx="92.04745" cy="311.477" r="1.5" fill="#333"/><circle cx="92.04745" cy="340.96569" r="1.5" fill="#333"/><circle cx="62.55876" cy="340.96569" r="1.5" fill="#333"/><circle cx="62.55876" cy="311.477" r="1.5" fill="#333"/></svg>