<svg xmlns="http://www.w3.org/2000/svg" xmlns:xlink="http://www.w3.org/1999/xlink" viewBox="0 0 290 104"><defs><radialGradient id="a" cx="148.21332" cy="55.49135" r="11.62417" gradientTransform="translate(11.81953 18.23028) scale(0.97297)" gradientUnits="userSpaceOnUse"><stop offset="0" stop-color="#737373"/><stop offset="0.37995" stop-color="#505050"/><stop offset="0.7527" stop-color="#323232"/><stop offset="0.86603" stop-color="#212121"/><stop offset="1" stop-color="#121212"/></radialGradient></defs><title>front-r</title><rect width="290" height="104" fill="#1a1a1a"/><path d="M80.92586,34.522H68.14024a2.567,2.567,0,0,1-2.68393-2.54021l.70362-18.01642A2.58751,2.58751,0,0,1,68.84387,11.6H80.22223a2.5875,2.5875,0,0,1,2.68394,2.36534l.70363,18.01642A2.567,2.567,0,0,1,80.92586,34.522Z" fill="#4d4d4d"/><path d="M69.50349,11.84929H79.56262a2.33348,2.33348,0,0,1,2.37276,2.20047l.62205,16.76058a2.32545,2.32545,0,0,1-2.37276,2.36314H68.88144a2.32545,2.32545,0,0,1-2.37276-2.36314l.62205-16.76058A2.33347,2.33347,0,0,1,69.50349,11.84929Z" fill="#333"/><path d="M70.1631,12.09858H78.903a2.0852,2.0852,0,0,1,2.06158,2.03559l.54047,15.50474A2.08931,2.08931,0,0,1,79.44347,31.825H69.62263a2.08931,2.08931,0,0,1-2.06157-2.18608l.54047-15.50474A2.0852,2.0852,0,0,1,70.1631,12.09858Z" fill="#1a1a1a"/><path d="M78.70228,30.47649H70.36383a1.86082,1.86082,0,0,1-1.7504-2.009l.45889-14.24889a1.84489,1.84489,0,0,1,1.7504-1.87072h7.42067a1.84487,1.84487,0,0,1,1.75039,1.87072l.45889,14.24889A1.8608,1.8608,0,0,1,78.70228,30.47649Z"/><line x1="246.00501" y1="29.46249" x2="246.00501" y2="56.56904" fill="none" stroke="#000" stroke-miterlimit="10" stroke-width="1.84545"/><line x1="43.99499" y1="27.0283" x2="43.99499" y2="55.09141" fill="none" stroke="#000" stroke-miterlimit="10" stroke-width="1.84545"/><rect x="72.28969" y="30.73401" width="29.08413" height="24.46218" fill="#4d4d4d"/><rect x="43.99499" y="30.73401" width="28.29469" height="24.46218" fill="#4d4d4d"/><line x1="72.28969" y1="27.0283" x2="72.28969" y2="51.64373" fill="none" stroke="#000" stroke-miterlimit="10" stroke-width="1.84545"/><path d="M134.60738,34.522H121.82176a2.567,2.567,0,0,1-2.68394-2.54021l.70363-18.01642A2.5875,2.5875,0,0,1,122.52539,11.6h11.37836a2.58751,2.58751,0,0,1,2.68394,2.36534l.70363,18.01642A2.567,2.567,0,0,1,134.60738,34.522Z" fill="#4d4d4d"/><path d="M123.185,11.84929h10.05913a2.33347,2.33347,0,0,1,2.37276,2.20047l.62205,16.76058a2.32545,2.32545,0,0,1-2.37276,2.36314H122.563a2.32544,2.32544,0,0,1-2.37275-2.36314l.62205-16.76058A2.33346,2.33346,0,0,1,123.185,11.84929Z" fill="#333"/><path d="M123.84462,12.09858h8.7399a2.0852,2.0852,0,0,1,2.06157,2.03559l.54047,15.50474A2.08931,2.08931,0,0,1,133.125,31.825h-9.82084a2.08931,2.08931,0,0,1-2.06158-2.18608l.54047-15.50474A2.0852,2.0852,0,0,1,123.84462,12.09858Z" fill="#1a1a1a"/><path d="M132.38379,30.47649h-8.33845a1.86081,1.86081,0,0,1-1.75039-2.009l.45889-14.24889a1.84487,1.84487,0,0,1,1.75039-1.87072h7.42067a1.84488,1.84488,0,0,1,1.7504,1.87072l.45889,14.24889A1.86082,1.86082,0,0,1,132.38379,30.47649Z"/><path d="M165.79,34.522H153.0044a2.567,2.567,0,0,1-2.68394-2.54021l.70363-18.01642A2.58751,2.58751,0,0,1,153.708,11.6h11.37836a2.5875,2.5875,0,0,1,2.68394,2.36534l.70363,18.01642A2.567,2.567,0,0,1,165.79,34.522Z" fill="#4d4d4d"/><path d="M154.36765,11.84929h10.05913a2.33348,2.33348,0,0,1,2.37276,2.20047l.622,16.76058a2.32544,2.32544,0,0,1-2.37275,2.36314H153.7456a2.32545,2.32545,0,0,1-2.37276-2.36314l.62205-16.76058A2.33347,2.33347,0,0,1,154.36765,11.84929Z" fill="#333"/><path d="M155.02726,12.09858h8.7399a2.0852,2.0852,0,0,1,2.06158,2.03559l.54047,15.50474a2.08931,2.08931,0,0,1-2.06158,2.18608h-9.82084a2.08931,2.08931,0,0,1-2.06157-2.18608l.54047-15.50474A2.0852,2.0852,0,0,1,155.02726,12.09858Z" fill="#1a1a1a"/><path d="M163.56644,30.47649H155.228a1.86082,1.86082,0,0,1-1.7504-2.009l.45889-14.24889a1.84488,1.84488,0,0,1,1.7504-1.87072h7.42067a1.84487,1.84487,0,0,1,1.75039,1.87072l.45889,14.24889A1.8608,1.8608,0,0,1,163.56644,30.47649Z"/><path d="M193.0255,34.522H180.23988a2.567,2.567,0,0,1-2.68394-2.54021l.70363-18.01642A2.5875,2.5875,0,0,1,180.94351,11.6h11.37836a2.58751,2.58751,0,0,1,2.68394,2.36534l.70363,18.01642A2.567,2.567,0,0,1,193.0255,34.522Z" fill="#4d4d4d"/><path d="M181.60312,11.84929h10.05913a2.33347,2.33347,0,0,1,2.37276,2.20047l.62205,16.76058a2.32545,2.32545,0,0,1-2.37276,2.36314H180.98107a2.32544,2.32544,0,0,1-2.37275-2.36314l.622-16.76058A2.33348,2.33348,0,0,1,181.60312,11.84929Z" fill="#333"/><path d="M182.26274,12.09858h8.7399a2.0852,2.0852,0,0,1,2.06157,2.03559l.54047,15.50474a2.08931,2.08931,0,0,1-2.06157,2.18608h-9.82084a2.08931,2.08931,0,0,1-2.06158-2.18608l.54047-15.50474A2.0852,2.0852,0,0,1,182.26274,12.09858Z" fill="#1a1a1a"/><path d="M190.80191,30.47649h-8.33845a1.8608,1.8608,0,0,1-1.75039-2.009l.45889-14.24889a1.84487,1.84487,0,0,1,1.75039-1.87072H190.343a1.84488,1.84488,0,0,1,1.7504,1.87072l.45889,14.24889A1.86082,1.86082,0,0,1,190.80191,30.47649Z"/><rect x="101.37381" y="30.73401" width="29.08413" height="24.46218" fill="#4d4d4d"/><rect x="130.45794" y="30.73401" width="29.08413" height="24.46218" fill="#4d4d4d"/><rect x="159.54206" y="30.73401" width="29.08413" height="24.46218" fill="#4d4d4d"/><rect x="188.62619" y="30.73401" width="29.08413" height="24.46218" fill="#4d4d4d"/><rect x="217.71031" y="30.73401" width="28.29469" height="24.46218" fill="#4d4d4d"/><path d="M43.34375,92.66113V51.78223H244.95264a2.02271,2.02271,0,0,1,1.70361,2.22949V90.43164a2.02271,2.02271,0,0,1-1.70361,2.22949Z" fill="#666"/><path d="M244.95242,51.92065c.86306,0,1.56521.93824,1.56521,2.09131V90.43164c0,1.15332-.70215,2.09155-1.56521,2.09155h-201.47V51.92065h201.47m0-.27685H43.20555V92.80005H244.95242a2.162,2.162,0,0,0,1.842-2.36841V54.012a2.16193,2.16193,0,0,0-1.842-2.36816Z" fill="gray"/><path d="M208.877,78.0186c0,8.45872,4.31208,12.46056,12.14063,12.46056h21.0146c1.82786,0,2.27371-1.11721,2.27371-2.459V56.343c0-1.81839-.69076-2.52827-2.66446-2.52827h-5.62769C221.02654,53.81468,208.877,64.58771,208.877,78.0186Z" fill="gray"/><path d="M236.31211,54.88143c-14.29322,0-25.88016,10.3439-25.88016,23.23978,0,8.12177,4.1124,11.9642,11.57843,11.9642H241.668c1.74322,0,2.16842-1.07271,2.16842-2.361V57.309c0-1.746-.65877-2.42756-2.54108-2.42756Z" fill="#8d8d8d"/><path d="M236.61044,55.94818c-13.59919,0-24.62352,9.91477-24.62352,22.27564,0,7.78482,3.91271,11.46784,11.01623,11.46784h18.30064c1.65858,0,2.06313-1.0282,2.06313-2.26306V58.275c0-1.67352-.62678-2.32685-2.41769-2.32685Z" fill="#9a9a9a"/><path d="M236.90878,57.01494c-12.90518,0-23.36689,9.48563-23.36689,21.31149,0,7.44787,3.713,10.97149,10.454,10.97149h16.94366c1.57394,0,1.95784-.98371,1.95784-2.16512V59.24107c0-1.60108-.59479-2.22613-2.2943-2.22613Z" fill="#a6a6a6"/><path d="M215.09686,78.429c0,7.11093,3.51335,10.47514,9.89182,10.47514h15.58669c1.4893,0,1.85256-.9392,1.85256-2.06716V60.20712c0-1.52865-.56281-2.12543-2.17093-2.12543h-3.04989C224.996,58.08169,215.09686,67.13818,215.09686,78.429Z" fill="#b3b3b3"/><path d="M102.59726,78.0186c0,8.45872-4.31208,12.46056-12.14063,12.46056H43.20556V53.81468H75.46047C90.4477,53.81468,102.59726,64.58771,102.59726,78.0186Z" fill="gray"/><path d="M101.04229,78.12121c0,8.12177-4.11239,11.9642-11.57843,11.9642H43.20556v-35.204H75.16213C89.45535,54.88143,101.04229,65.22533,101.04229,78.12121Z" fill="#8d8d8d"/><path d="M99.48732,78.22382c0,7.78482-3.91271,11.46784-11.01623,11.46784H43.20556V55.94818H74.8638C88.463,55.94818,99.48732,65.863,99.48732,78.22382Z" fill="#9a9a9a"/><path d="M97.93235,78.32643c0,7.44787-3.713,10.97149-10.454,10.97149H43.20556v-32.283h31.3599C87.47064,57.01494,97.93235,66.50057,97.93235,78.32643Z" fill="#a6a6a6"/><path d="M96.37738,78.429c0,7.11093-3.51335,10.47514-9.89182,10.47514h-43.28V58.08169H74.26713C86.47829,58.08169,96.37738,67.13818,96.37738,78.429Z" fill="#b3b3b3"/><line x1="101.37381" y1="29.46249" x2="101.37381" y2="51.64373" fill="none" stroke="#000" stroke-miterlimit="10" stroke-width="1.84545"/><line x1="130.45794" y1="29.46249" x2="130.45794" y2="51.64373" fill="none" stroke="#000" stroke-miterlimit="10" stroke-width="1.84545"/><line x1="159.54206" y1="29.46249" x2="159.54206" y2="51.64373" fill="none" stroke="#000" stroke-miterlimit="10" stroke-width="1.84545"/><line x1="188.62619" y1="29.46249" x2="188.62619" y2="51.64373" fill="none" stroke="#000" stroke-miterlimit="10" stroke-width="1.84545"/><line x1="217.71031" y1="29.46249" x2="217.71031" y2="51.64373" fill="none" stroke="#000" stroke-miterlimit="10" stroke-width="1.84545"/><polygon points="101.374 30.614 72.29 30.614 73.079 37.85 100.584 37.85 101.374 30.614" fill="#333"/><polygon points="130.458 30.614 101.374 30.614 102.163 37.85 129.669 37.85 130.458 30.614" fill="#333"/><polygon points="159.542 30.614 130.458 30.614 131.247 37.85 158.753 37.85 159.542 30.614" fill="#333"/><polygon points="188.626 30.614 159.542 30.614 160.331 37.85 187.837 37.85 188.626 30.614" fill="#333"/><polygon points="217.71 30.614 188.626 30.614 189.416 37.85 216.921 37.85 217.71 30.614" fill="#333"/><polygon points="246.794 30.614 217.71 30.614 218.5 37.85 246.005 37.85 246.794 30.614" fill="#333"/><polygon points="72.29 30.614 43.206 30.614 43.995 37.85 71.5 37.85 72.29 30.614" fill="#333"/><rect x="217.71031" y="24.82456" width="29.08413" height="6.97408" rx="2.06818" ry="2.06818" fill="#ccc" stroke="#666" stroke-miterlimit="10" stroke-width="0.18455"/><rect x="219.16425" y="25.9433" width="26.05132" height="3.94717" rx="1.97358" ry="1.97358" fill="#f2f2f2"/><rect x="159.54206" y="24.82456" width="29.08413" height="6.97408" rx="2.06818" ry="2.06818" fill="#ccc" stroke="#666" stroke-miterlimit="10" stroke-width="0.18455"/><rect x="160.996" y="25.9433" width="26.05132" height="3.94717" rx="1.97358" ry="1.97358" fill="#f2f2f2"/><rect x="130.45794" y="24.82456" width="29.08413" height="6.97408" rx="2.06818" ry="2.06818" fill="#ccc" stroke="#666" stroke-miterlimit="10" stroke-width="0.18455"/><rect x="131.91187" y="25.9433" width="26.05132" height="3.94717" rx="1.97358" ry="1.97358" fill="#f2f2f2"/><rect x="101.37381" y="24.82456" width="29.08413" height="6.97408" rx="2.06818" ry="2.06818" fill="#ccc" stroke="#666" stroke-miterlimit="10" stroke-width="0.18455"/><rect x="102.82775" y="25.9433" width="26.05132" height="3.94717" rx="1.97358" ry="1.97358" fill="#f2f2f2"/><rect x="72.28969" y="24.82456" width="29.08413" height="6.97408" rx="2.06818" ry="2.06818" fill="#ccc" stroke="#666" stroke-miterlimit="10" stroke-width="0.18455"/><rect x="73.74362" y="25.9433" width="26.05132" height="3.94717" rx="1.97358" ry="1.97358" fill="#f2f2f2"/><rect x="43.20556" y="24.82456" width="29.08413" height="6.97408" rx="2.06818" ry="2.06818" fill="#ccc" stroke="#666" stroke-miterlimit="10" stroke-width="0.18455"/><rect x="44.65949" y="25.9433" width="26.05132" height="3.94717" rx="1.97358" ry="1.97358" fill="#f2f2f2"/><rect x="188.62619" y="24.82456" width="29.08413" height="6.97408" rx="2.06818" ry="2.06818" fill="#ccc" stroke="#666" stroke-miterlimit="10" stroke-width="0.18455"/><rect x="190.08012" y="25.9433" width="26.05132" height="3.94717" rx="1.97358" ry="1.97358" fill="#f2f2f2"/><rect x="106.14963" y="55.0914" width="99.7549" height="34.26092" rx="4.77273" ry="4.77273" fill="#1c1c1c" stroke="#000" stroke-miterlimit="10" stroke-width="0.18455"/><circle cx="156.02708" cy="72.22186" r="11.89" fill="#3d3d3d"/><circle cx="156.02708" cy="72.22186" r="11.31" stroke="#000" stroke-miterlimit="10" stroke-width="0.18455" fill="url(#a)"/><circle cx="156.02708" cy="72.22186" r="7.54" fill="#1a1a1a" stroke="#424242" stroke-miterlimit="10" stroke-width="0.29"/><path d="M163.04336,64.83037l-8.13734,6.696a1.12094,1.12094,0,0,0,.07912,1.65063l.315.315a1.12094,1.12094,0,0,0,1.65062.07912l6.69606-8.13731Z" fill="#ccc"/></svg>