<svg xmlns="http://www.w3.org/2000/svg" xmlns:xlink="http://www.w3.org/1999/xlink" viewBox="0 0 500 180"><defs><radialGradient id="a" cx="297.32259" cy="124.52045" r="20.04167" gradientTransform="translate(8.03575 3.36542) scale(0.97297 0.97297)" gradientUnits="userSpaceOnUse"><stop offset="0" stop-color="#737373"/><stop offset="0.37995" stop-color="#505050"/><stop offset="0.7527" stop-color="#323232"/><stop offset="0.86603" stop-color="#212121"/><stop offset="1" stop-color="#121212"/></radialGradient></defs><title>front-l</title><rect x="1" y="1" width="498" height="178" rx="2" ry="2" fill="#202020"/><path d="M497,2a1.00107,1.00107,0,0,1,1,1V177a1.00107,1.00107,0,0,1-1,1H3a1.00106,1.00106,0,0,1-1-1V3A1.00106,1.00106,0,0,1,3,2H497m0-2H3A3.00006,3.00006,0,0,0,0,3V177a3.00006,3.00006,0,0,0,3,3H497a3.00007,3.00007,0,0,0,3-3V3a3.00007,3.00007,0,0,0-3-3Z" fill="#333"/><path d="M433.45008,59.52063H411.40591a4.42591,4.42591,0,0,1-4.62748-4.37967l1.21315-31.06278A4.46122,4.46122,0,0,1,412.61906,20h19.61786a4.46121,4.46121,0,0,1,4.62748,4.07818L438.07756,55.141A4.42591,4.42591,0,0,1,433.45008,59.52063Z" fill="#4d4d4d"/><path d="M413.75633,20.42981h17.34333a4.02323,4.02323,0,0,1,4.091,3.79391l1.07249,28.89754a4.00937,4.00937,0,0,1-4.091,4.07438H412.68383a4.00938,4.00938,0,0,1-4.091-4.07438l1.0725-28.89754A4.02323,4.02323,0,0,1,413.75633,20.42981Z" fill="#333"/><path d="M414.8936,20.85962h15.06879a3.59517,3.59517,0,0,1,3.55444,3.50964l.93184,26.7323a3.60225,3.60225,0,0,1-3.55444,3.7691H413.96176a3.60226,3.60226,0,0,1-3.55445-3.7691l.93185-26.7323A3.59517,3.59517,0,0,1,414.8936,20.85962Z" fill="#1a1a1a"/><path d="M429.61631,52.54567H415.23968a3.20828,3.20828,0,0,1-3.01792-3.46381l.79118-24.56706a3.18083,3.18083,0,0,1,3.01793-3.22537h12.79425A3.18082,3.18082,0,0,1,431.843,24.5148l.79119,24.56706A3.20829,3.20829,0,0,1,429.61631,52.54567Z"/><path d="M338.85412,59.52063H316.81a4.42591,4.42591,0,0,1-4.62748-4.37967l1.21316-31.06278A4.46121,4.46121,0,0,1,318.02311,20H337.641a4.46122,4.46122,0,0,1,4.62748,4.07818L343.4816,55.141A4.42591,4.42591,0,0,1,338.85412,59.52063Z" fill="#4d4d4d"/><path d="M319.16037,20.42981H336.5037a4.02323,4.02323,0,0,1,4.091,3.79391l1.0725,28.89754a4.00938,4.00938,0,0,1-4.091,4.07438H318.08788a4.00937,4.00937,0,0,1-4.091-4.07438l1.07249-28.89754A4.02323,4.02323,0,0,1,319.16037,20.42981Z" fill="#333"/><path d="M320.29764,20.85962h15.06879a3.59517,3.59517,0,0,1,3.55444,3.50964l.93185,26.7323a3.60226,3.60226,0,0,1-3.55444,3.7691H319.3658a3.60225,3.60225,0,0,1-3.55444-3.7691l.93184-26.7323A3.59517,3.59517,0,0,1,320.29764,20.85962Z" fill="#1a1a1a"/><path d="M335.02035,52.54567H320.64372a3.20829,3.20829,0,0,1-3.01792-3.46381L318.417,24.5148a3.18082,3.18082,0,0,1,3.01792-3.22537h12.79425a3.18083,3.18083,0,0,1,3.01793,3.22537l.79118,24.56706A3.20828,3.20828,0,0,1,335.02035,52.54567Z"/><path d="M285.7715,59.52063H263.72733a4.42591,4.42591,0,0,1-4.62748-4.37967L260.313,24.07818A4.46122,4.46122,0,0,1,264.94048,20h19.61786a4.46121,4.46121,0,0,1,4.62748,4.07818L290.399,55.141A4.42591,4.42591,0,0,1,285.7715,59.52063Z" fill="#4d4d4d"/><path d="M266.07775,20.42981h17.34333a4.02323,4.02323,0,0,1,4.091,3.79391l1.0725,28.89754a4.00939,4.00939,0,0,1-4.091,4.07438H265.00525a4.00938,4.00938,0,0,1-4.091-4.07438l1.0725-28.89754A4.02323,4.02323,0,0,1,266.07775,20.42981Z" fill="#333"/><path d="M267.215,20.85962h15.06879a3.59517,3.59517,0,0,1,3.55444,3.50964l.93184,26.7323a3.60225,3.60225,0,0,1-3.55444,3.7691H266.28318a3.60226,3.60226,0,0,1-3.55445-3.7691l.93185-26.7323A3.59517,3.59517,0,0,1,267.215,20.85962Z" fill="#1a1a1a"/><path d="M281.93773,52.54567H267.5611a3.20828,3.20828,0,0,1-3.01792-3.46381l.79118-24.56706a3.18083,3.18083,0,0,1,3.01793-3.22537h12.79425a3.18082,3.18082,0,0,1,3.01792,3.22537l.79119,24.56706A3.20828,3.20828,0,0,1,281.93773,52.54567Z"/><path d="M232.68887,59.52063H210.64471a4.42589,4.42589,0,0,1-4.62748-4.37967l1.21315-31.06278A4.46122,4.46122,0,0,1,211.85786,20h19.61786a4.46121,4.46121,0,0,1,4.62748,4.07818L237.31635,55.141A4.42589,4.42589,0,0,1,232.68887,59.52063Z" fill="#4d4d4d"/><path d="M212.99513,20.42981h17.34332a4.02322,4.02322,0,0,1,4.091,3.79391l1.0725,28.89754a4.00938,4.00938,0,0,1-4.091,4.07438H211.92263a4.00938,4.00938,0,0,1-4.091-4.07438l1.0725-28.89754A4.02322,4.02322,0,0,1,212.99513,20.42981Z" fill="#333"/><path d="M214.1324,20.85962h15.06879a3.59517,3.59517,0,0,1,3.55444,3.50964l.93184,26.7323a3.60225,3.60225,0,0,1-3.55444,3.7691H213.20055a3.60225,3.60225,0,0,1-3.55444-3.7691l.93184-26.7323A3.59518,3.59518,0,0,1,214.1324,20.85962Z" fill="#1a1a1a"/><path d="M228.85511,52.54567H214.47848a3.2083,3.2083,0,0,1-3.01793-3.46381l.79119-24.56706a3.18082,3.18082,0,0,1,3.01792-3.22537h12.79426a3.18082,3.18082,0,0,1,3.01792,3.22537l.79119,24.56706A3.2083,3.2083,0,0,1,228.85511,52.54567Z"/><path d="M138.09292,59.52063H116.04875a4.42591,4.42591,0,0,1-4.62748-4.37967l1.21315-31.06278A4.46122,4.46122,0,0,1,117.2619,20h19.61786a4.46121,4.46121,0,0,1,4.62748,4.07818L142.7204,55.141A4.42591,4.42591,0,0,1,138.09292,59.52063Z" fill="#4d4d4d"/><path d="M118.39917,20.42981H135.7425a4.02323,4.02323,0,0,1,4.091,3.79391l1.0725,28.89754a4.00939,4.00939,0,0,1-4.091,4.07438H117.32667a4.00938,4.00938,0,0,1-4.091-4.07438l1.0725-28.89754A4.02323,4.02323,0,0,1,118.39917,20.42981Z" fill="#333"/><path d="M119.53644,20.85962h15.06879a3.59517,3.59517,0,0,1,3.55444,3.50964l.93184,26.7323a3.60225,3.60225,0,0,1-3.55444,3.7691H118.6046a3.60226,3.60226,0,0,1-3.55445-3.7691l.93185-26.7323A3.59517,3.59517,0,0,1,119.53644,20.85962Z" fill="#1a1a1a"/><path d="M134.25915,52.54567H119.88252a3.20828,3.20828,0,0,1-3.01792-3.46381l.79118-24.56706a3.18083,3.18083,0,0,1,3.01793-3.22537H133.468a3.18082,3.18082,0,0,1,3.01792,3.22537l.79119,24.56706A3.20828,3.20828,0,0,1,134.25915,52.54567Z"/><path d="M82.96866,59.52063H60.92449A4.42589,4.42589,0,0,1,56.297,55.141l1.21315-31.06278A4.46122,4.46122,0,0,1,62.13764,20H81.7555A4.46121,4.46121,0,0,1,86.383,24.07818L87.59614,55.141A4.42591,4.42591,0,0,1,82.96866,59.52063Z" fill="#4d4d4d"/><path d="M63.27491,20.42981H80.61823a4.02322,4.02322,0,0,1,4.091,3.79391l1.0725,28.89754a4.00938,4.00938,0,0,1-4.091,4.07438H62.20241a4.00938,4.00938,0,0,1-4.091-4.07438L59.184,24.22372A4.02323,4.02323,0,0,1,63.27491,20.42981Z" fill="#333"/><path d="M64.41218,20.85962H79.481a3.59517,3.59517,0,0,1,3.55444,3.50964l.93184,26.7323a3.60225,3.60225,0,0,1-3.55444,3.7691H63.48033a3.60225,3.60225,0,0,1-3.55444-3.7691l.93185-26.7323A3.59517,3.59517,0,0,1,64.41218,20.85962Z" fill="#1a1a1a"/><path d="M79.13489,52.54567H64.75826a3.2083,3.2083,0,0,1-3.01793-3.46381l.79119-24.56706a3.18082,3.18082,0,0,1,3.01792-3.22537H78.3437a3.18082,3.18082,0,0,1,3.01792,3.22537l.79119,24.56706A3.2083,3.2083,0,0,1,79.13489,52.54567Z"/><line x1="25.70844" y1="46.6005" x2="25.70844" y2="94.98518" fill="none" stroke="#000" stroke-miterlimit="10" stroke-width="3.18182"/><line x1="474.29156" y1="46.6005" x2="474.29156" y2="94.98518" fill="none" stroke="#000" stroke-miterlimit="10" stroke-width="3.18182"/><rect x="74.49238" y="52.98967" width="50.14503" height="42.17616" fill="#4d4d4d"/><rect x="25.70844" y="52.98967" width="48.78394" height="42.17616" fill="#4d4d4d"/><line x1="74.49238" y1="46.6005" x2="74.49238" y2="89.04091" fill="none" stroke="#000" stroke-miterlimit="10" stroke-width="3.18182"/><rect x="124.63741" y="52.98967" width="50.14503" height="42.17616" fill="#4d4d4d"/><rect x="174.78245" y="52.98967" width="50.14503" height="42.17616" fill="#4d4d4d"/><rect x="224.92748" y="52.98967" width="50.14503" height="42.17616" fill="#4d4d4d"/><rect x="275.07252" y="52.98967" width="50.14503" height="42.17616" fill="#4d4d4d"/><rect x="325.21755" y="52.98967" width="50.14503" height="42.17616" fill="#4d4d4d"/><rect x="375.36259" y="52.98967" width="50.14503" height="42.17616" fill="#4d4d4d"/><rect x="425.50762" y="52.98967" width="48.85072" height="42.17616" fill="#4d4d4d"/><path d="M28.43066,159.76172a3.84892,3.84892,0,0,1-3.84472-3.84473V93.124a3.84891,3.84891,0,0,1,3.84472-3.84472h446.9834v70.48242Z" fill="#666"/><path d="M475.17538,89.51831v70.0044H28.43061a3.61011,3.61011,0,0,1-3.606-3.606V93.12427a3.61011,3.61011,0,0,1,3.606-3.606H475.17538m.4773-.47729H28.43061a4.09524,4.09524,0,0,0-4.08328,4.08325v62.79248A4.09524,4.09524,0,0,0,28.43061,160H475.65268V89.041Z" fill="gray"/><rect x="109.13953" y="94.98518" width="266.01568" height="59.07055" rx="4.77273" ry="4.77273" fill="#1c1c1c" stroke="#000" stroke-miterlimit="10" stroke-width="0.31818"/><path d="M178.56982,143.17383a1.19609,1.19609,0,0,1-1.0332-.59668l-10.0791-17.458a1.19529,1.19529,0,0,1,0-1.19238l10.0791-17.457a1.19607,1.19607,0,0,1,1.0332-.59668h20.15772a1.19627,1.19627,0,0,1,1.03369.59668l10.0791,17.457a1.19529,1.19529,0,0,1,0,1.19238l-10.0791,17.458a1.19629,1.19629,0,0,1-1.03369.59668Z" fill="#242424"/><path d="M198.72771,106.27075a.79759.79759,0,0,1,.68889.39771l10.07887,17.45727a.79763.79763,0,0,1,0,.79541l-10.07884,17.45728a.79767.79767,0,0,1-.68892.3977H178.57a.79754.79754,0,0,1-.68887-.3977L167.8022,124.92114a.79758.79758,0,0,1,0-.79541l10.07885-17.45727a.79763.79763,0,0,1,.68891-.39771h20.15773m0-.79541H178.57a1.591,1.591,0,0,0-1.37778.79541L167.11333,123.728a1.59069,1.59069,0,0,0,0,1.59082l10.07887,17.45727a1.591,1.591,0,0,0,1.37776.79541h20.15775a1.59094,1.59094,0,0,0,1.37777-.79541l10.07888-17.45727a1.59078,1.59078,0,0,0,0-1.59082l-10.07888-17.45728a1.59094,1.59094,0,0,0-1.37777-.79541Z" fill="#4d4d4d"/><path d="M198.72771,105.47534a1.59094,1.59094,0,0,1,1.37777.79541L210.18436,123.728a1.59078,1.59078,0,0,1,0,1.59082l-10.07888,17.45727a1.59094,1.59094,0,0,1-1.37777.79541H178.57a1.591,1.591,0,0,1-1.37776-.79541l-10.07887-17.45727a1.59069,1.59069,0,0,1,0-1.59082l10.07887-17.45728a1.591,1.591,0,0,1,1.37778-.79541h20.15773m0-.47729H178.57a2.07418,2.07418,0,0,0-1.7911,1.03393L166.7,123.4895a2.07369,2.07369,0,0,0,0,2.06812l10.07887,17.457a2.0739,2.0739,0,0,0,1.79109,1.03418h20.15775a2.07417,2.07417,0,0,0,1.79109-1.03394l10.07889-17.45752a2.07386,2.07386,0,0,0,0-2.06811l-10.07888-17.457a2.07392,2.07392,0,0,0-1.7911-1.03418Z"/><circle cx="188.59803" cy="124.61138" r="10.63411" stroke="#333" stroke-miterlimit="10" stroke-width="0.79545"/><circle cx="297.32259" cy="124.52045" r="20.5" fill="#3d3d3d"/><circle cx="297.32259" cy="124.52045" r="19.5" stroke="#000" stroke-miterlimit="10" stroke-width="0.31818" fill="url(#a)"/><circle cx="297.32259" cy="124.52045" r="13" fill="#1a1a1a" stroke="#424242" stroke-miterlimit="10" stroke-width="0.5"/><path d="M103.80646,134.5148c0,14.584-7.43462,21.48372-20.93212,21.48372H32.35081c-3.15149,0-3.92019-1.92622-3.92019-4.23959V97.143c0-3.13515,1.191-4.35909,4.5939-4.35909H57.01889C82.85895,92.78391,103.80646,111.35811,103.80646,134.5148Z" fill="gray"/><path d="M56.50452,94.62314c24.64347,0,44.621,17.83431,44.621,40.06858,0,14.003-7.09034,20.62793-19.96281,20.62793H32.97876c-3.00556,0-3.73866-1.8495-3.73866-4.07071V98.80859c0-3.01026,1.13581-4.18545,4.38116-4.18545Z" fill="#8d8d8d"/><path d="M55.99015,96.46237c23.44689,0,42.45435,17.09442,42.45435,38.40626,0,13.4221-6.74606,19.77214-18.9935,19.77214H33.6067c-2.85962,0-3.55712-1.77276-3.55712-3.90183V100.47418c0-2.88538,1.08065-4.01181,4.16843-4.01181Z" fill="#9a9a9a"/><path d="M55.47578,98.3016c22.2503,0,40.28774,16.35453,40.28774,36.74394,0,12.84116-6.40179,18.91636-18.02419,18.91636H34.23464c-2.71368,0-3.37558-1.696-3.37558-3.733V102.13977c0-2.76049,1.0255-3.83817,3.9557-3.83817Z" fill="#a6a6a6"/><path d="M93.08253,135.22245c0,12.26022-6.0575,18.06057-17.05487,18.06057H34.86259c-2.56775,0-3.19406-1.61931-3.19406-3.56407V103.80536c0-2.63561.97036-3.66453,3.743-3.66453h19.5499C76.01512,100.14083,93.08253,115.75547,93.08253,135.22245Z" fill="#b3b3b3"/><path d="M380.28185,134.5148c0,14.584,7.43461,21.48372,20.93212,21.48372h74.43869V92.78391H427.06942C401.22936,92.78391,380.28185,111.35811,380.28185,134.5148Z" fill="gray"/><path d="M382.96283,134.69172c0,14.003,7.09034,20.62793,19.96281,20.62793h72.727V94.62314H427.58379C402.94031,94.62314,382.96283,112.45745,382.96283,134.69172Z" fill="#8d8d8d"/><path d="M385.64381,134.86863c0,13.4221,6.74606,19.77214,18.9935,19.77214h71.01535V96.46237h-47.5545C404.65127,96.46237,385.64381,113.55679,385.64381,134.86863Z" fill="#9a9a9a"/><path d="M388.32479,135.04554c0,12.84116,6.40178,18.91636,18.02418,18.91636h69.30369V98.3016H428.61253C406.36222,98.3016,388.32479,114.65613,388.32479,135.04554Z" fill="#a6a6a6"/><path d="M391.00577,135.22245c0,12.26022,6.05751,18.06057,17.05487,18.06057h67.592V100.14083H429.1269C408.07318,100.14083,391.00577,115.75547,391.00577,135.22245Z" fill="#b3b3b3"/><line x1="124.63741" y1="50.79739" x2="124.63741" y2="89.04091" fill="none" stroke="#000" stroke-miterlimit="10" stroke-width="3.18182"/><line x1="174.78245" y1="50.79739" x2="174.78245" y2="89.04091" fill="none" stroke="#000" stroke-miterlimit="10" stroke-width="3.18182"/><line x1="224.92748" y1="50.79739" x2="224.92748" y2="89.04091" fill="none" stroke="#000" stroke-miterlimit="10" stroke-width="3.18182"/><line x1="275.07252" y1="50.79739" x2="275.07252" y2="89.04091" fill="none" stroke="#000" stroke-miterlimit="10" stroke-width="3.18182"/><line x1="325.21755" y1="50.79739" x2="325.21755" y2="89.04091" fill="none" stroke="#000" stroke-miterlimit="10" stroke-width="3.18182"/><line x1="375.36259" y1="50.79739" x2="375.36259" y2="89.04091" fill="none" stroke="#000" stroke-miterlimit="10" stroke-width="3.18182"/><line x1="425.50762" y1="50.79739" x2="425.50762" y2="89.04091" fill="none" stroke="#000" stroke-miterlimit="10" stroke-width="3.18182"/><polygon points="124.637 52.784 74.492 52.784 75.853 65.259 123.276 65.259 124.637 52.784" fill="#333"/><polygon points="174.782 52.784 124.637 52.784 125.999 65.259 173.421 65.259 174.782 52.784" fill="#333"/><polygon points="224.927 52.784 174.782 52.784 176.144 65.259 223.566 65.259 224.927 52.784" fill="#333"/><polygon points="275.073 52.784 224.927 52.784 226.289 65.259 273.711 65.259 275.073 52.784" fill="#333"/><polygon points="325.218 52.784 275.073 52.784 276.434 65.259 323.856 65.259 325.218 52.784" fill="#333"/><polygon points="375.363 52.784 325.218 52.784 326.579 65.259 374.001 65.259 375.363 52.784" fill="#333"/><polygon points="425.508 52.784 375.363 52.784 376.724 65.259 424.147 65.259 425.508 52.784" fill="#333"/><polygon points="475.653 52.784 425.508 52.784 426.869 65.259 474.292 65.259 475.653 52.784" fill="#333"/><rect x="425.50762" y="42.80096" width="50.14503" height="12.02427" rx="2.06818" ry="2.06818" fill="#ccc" stroke="#666" stroke-miterlimit="10" stroke-width="0.31818"/><rect x="428.01441" y="44.72982" width="44.91607" height="6.80546" rx="2.06818" ry="2.06818" fill="#f2f2f2"/><rect x="325.21755" y="42.80096" width="50.14503" height="12.02427" rx="2.06818" ry="2.06818" fill="#ccc" stroke="#666" stroke-miterlimit="10" stroke-width="0.31818"/><rect x="327.72434" y="44.72982" width="44.91607" height="6.80546" rx="2.06818" ry="2.06818" fill="#f2f2f2"/><rect x="275.07252" y="42.80096" width="50.14503" height="12.02427" rx="2.06818" ry="2.06818" fill="#ccc" stroke="#666" stroke-miterlimit="10" stroke-width="0.31818"/><rect x="277.5793" y="44.72982" width="44.91607" height="6.80546" rx="2.06818" ry="2.06818" fill="#f2f2f2"/><rect x="224.92748" y="42.80096" width="50.14503" height="12.02427" rx="2.06818" ry="2.06818" fill="#ccc" stroke="#666" stroke-miterlimit="10" stroke-width="0.31818"/><rect x="227.43427" y="44.72982" width="44.91607" height="6.80546" rx="2.06818" ry="2.06818" fill="#f2f2f2"/><rect x="174.78245" y="42.80096" width="50.14503" height="12.02427" rx="2.06818" ry="2.06818" fill="#ccc" stroke="#666" stroke-miterlimit="10" stroke-width="0.31818"/><rect x="177.28923" y="44.72982" width="44.91607" height="6.80546" rx="2.06818" ry="2.06818" fill="#f2f2f2"/><rect x="124.63741" y="42.80096" width="50.14503" height="12.02427" rx="2.06818" ry="2.06818" fill="#ccc" stroke="#666" stroke-miterlimit="10" stroke-width="0.31818"/><rect x="127.1442" y="44.72982" width="44.91607" height="6.80546" rx="2.06818" ry="2.06818" fill="#f2f2f2"/><rect x="74.49238" y="42.80096" width="50.14503" height="12.02427" rx="2.06818" ry="2.06818" fill="#ccc" stroke="#666" stroke-miterlimit="10" stroke-width="0.31818"/><rect x="76.99916" y="44.72982" width="44.91607" height="6.80546" rx="2.06818" ry="2.06818" fill="#f2f2f2"/><polygon points="74.492 52.784 24.347 52.784 25.708 65.259 73.131 65.259 74.492 52.784" fill="#333"/><path d="M309.41963,111.7765l-14.02991,11.54486a1.93266,1.93266,0,0,0,.13641,2.84591l.54316.54316a1.93266,1.93266,0,0,0,2.8459.13641L310.46013,112.817Z" fill="#ccc"/><rect x="24.34734" y="42.80096" width="50.14503" height="12.02427" rx="2.06818" ry="2.06818" fill="#ccc" stroke="#666" stroke-miterlimit="10" stroke-width="0.31818"/><rect x="26.85413" y="44.72982" width="44.91607" height="6.80546" rx="2.06818" ry="2.06818" fill="#f2f2f2"/><rect x="375.36259" y="42.80096" width="50.14503" height="12.02427" rx="2.06818" ry="2.06818" fill="#ccc" stroke="#666" stroke-miterlimit="10" stroke-width="0.31818"/><rect x="378.08477" y="44.72982" width="44.91607" height="6.80546" rx="2.06818" ry="2.06818" fill="#f2f2f2"/></svg>