<svg xmlns="http://www.w3.org/2000/svg" viewBox="0 0 331.57569 102.85852">
  <title>front-l</title>
  <g>
    <g>
      <rect x="0.25038" y="0.24994" width="331.0752" height="102.3584" rx="1.75" ry="1.75" fill="#1a1a1a"/>
      <path d="M329.57557.5a1.50168,1.50168,0,0,1,1.5,1.5v98.85852a1.50168,1.50168,0,0,1-1.5,1.5H1.99989a1.50168,1.50168,0,0,1-1.5-1.5V2a1.50168,1.50168,0,0,1,1.5-1.5H329.57557m0-.5H1.99989a2.006,2.006,0,0,0-2,2v98.85852a2.006,2.006,0,0,0,2,2H329.57557a2.00583,2.00583,0,0,0,2-2V2a2.00583,2.00583,0,0,0-2-2Z" fill="#333"/>
    </g>
    <g>
      <path d="M281.09932,32.2708H267.243a2.782,2.782,0,0,1-2.9087-2.75293l.76255-19.52518a2.80419,2.80419,0,0,1,2.9087-2.56343h12.33123a2.80419,2.80419,0,0,1,2.9087,2.56343l.76255,19.52518A2.782,2.782,0,0,1,281.09932,32.2708Z" fill="#4d4d4d"/>
      <path d="M268.72039,7.69943h10.90152a2.52888,2.52888,0,0,1,2.57146,2.38474l.67414,18.16417a2.52018,2.52018,0,0,1-2.57146,2.561h-12.2498a2.52018,2.52018,0,0,1-2.57146-2.561l.67414-18.16417A2.52888,2.52888,0,0,1,268.72039,7.69943Z" fill="#333"/>
      <path d="M269.43525,7.96959h9.47181a2.25982,2.25982,0,0,1,2.23422,2.20606l.58573,16.80316a2.26427,2.26427,0,0,1-2.23422,2.36915H268.84952a2.26427,2.26427,0,0,1-2.23422-2.36915l.58573-16.80316A2.25982,2.25982,0,0,1,269.43525,7.96959Z" fill="#1a1a1a"/>
      <path d="M278.68952,27.88654h-9.03674a2.01664,2.01664,0,0,1-1.897-2.17725l.49732-15.44215a1.99937,1.99937,0,0,1,1.897-2.02737h8.0421a1.99937,1.99937,0,0,1,1.897,2.02737l.49732,15.44215A2.01664,2.01664,0,0,1,278.68952,27.88654Z"/>
    </g>
    <g>
      <path d="M221.639,32.2708H207.78267a2.782,2.782,0,0,1-2.9087-2.75293l.76255-19.52518a2.80419,2.80419,0,0,1,2.9087-2.56343h12.33123a2.80419,2.80419,0,0,1,2.9087,2.56343l.76255,19.52518A2.782,2.782,0,0,1,221.639,32.2708Z" fill="#4d4d4d"/>
      <path d="M209.26008,7.69943H220.1616a2.52888,2.52888,0,0,1,2.57146,2.38474l.67414,18.16417a2.52018,2.52018,0,0,1-2.57146,2.561h-12.2498a2.52018,2.52018,0,0,1-2.57146-2.561l.67414-18.16417A2.52888,2.52888,0,0,1,209.26008,7.69943Z" fill="#333"/>
      <path d="M209.97493,7.96959h9.47181a2.25982,2.25982,0,0,1,2.23422,2.20606l.58573,16.80316a2.26427,2.26427,0,0,1-2.23422,2.36915H209.3892a2.26427,2.26427,0,0,1-2.23422-2.36915l.58573-16.80316A2.25982,2.25982,0,0,1,209.97493,7.96959Z" fill="#1a1a1a"/>
      <path d="M219.22921,27.88654h-9.03674a2.01664,2.01664,0,0,1-1.897-2.17725l.49732-15.44215a1.99937,1.99937,0,0,1,1.897-2.02737h8.0421a1.99937,1.99937,0,0,1,1.897,2.02737l.49732,15.44215A2.01664,2.01664,0,0,1,219.22921,27.88654Z"/>
    </g>
    <g>
      <path d="M188.27278,32.2708H174.41645a2.782,2.782,0,0,1-2.9087-2.75293l.76255-19.52518a2.80419,2.80419,0,0,1,2.9087-2.56343h12.33123a2.80419,2.80419,0,0,1,2.9087,2.56343l.76255,19.52518A2.782,2.782,0,0,1,188.27278,32.2708Z" fill="#4d4d4d"/>
      <path d="M175.89386,7.69943h10.90152a2.52888,2.52888,0,0,1,2.57146,2.38474l.67414,18.16417a2.52018,2.52018,0,0,1-2.57146,2.561h-12.2498a2.52018,2.52018,0,0,1-2.57146-2.561l.67414-18.16417A2.52888,2.52888,0,0,1,175.89386,7.69943Z" fill="#333"/>
      <path d="M176.60871,7.96959h9.47181a2.25982,2.25982,0,0,1,2.23422,2.20606l.58573,16.80316a2.26427,2.26427,0,0,1-2.23422,2.36915H176.023a2.26427,2.26427,0,0,1-2.23422-2.36915l.58573-16.80316A2.25982,2.25982,0,0,1,176.60871,7.96959Z" fill="#1a1a1a"/>
      <path d="M185.863,27.88654h-9.03674a2.01664,2.01664,0,0,1-1.897-2.17725l.49732-15.44215a1.99937,1.99937,0,0,1,1.897-2.02737h8.0421a1.99937,1.99937,0,0,1,1.897,2.02737L187.76,25.70929A2.01664,2.01664,0,0,1,185.863,27.88654Z"/>
    </g>
    <g>
      <path d="M154.90656,32.2708H141.05023a2.782,2.782,0,0,1-2.9087-2.75293l.76255-19.52518a2.80419,2.80419,0,0,1,2.9087-2.56343H154.144a2.80419,2.80419,0,0,1,2.9087,2.56343l.76255,19.52518A2.782,2.782,0,0,1,154.90656,32.2708Z" fill="#4d4d4d"/>
      <path d="M142.52764,7.69943h10.90152a2.52888,2.52888,0,0,1,2.57146,2.38474l.67414,18.16417a2.52018,2.52018,0,0,1-2.57146,2.561H141.8535a2.52018,2.52018,0,0,1-2.57146-2.561l.67414-18.16417A2.52888,2.52888,0,0,1,142.52764,7.69943Z" fill="#333"/>
      <path d="M143.24249,7.96959h9.47181a2.25982,2.25982,0,0,1,2.23422,2.20606l.58573,16.80316A2.26427,2.26427,0,0,1,153.3,29.348H142.65676a2.26427,2.26427,0,0,1-2.23422-2.36915l.58573-16.80316A2.25982,2.25982,0,0,1,143.24249,7.96959Z" fill="#1a1a1a"/>
      <path d="M152.49677,27.88654H143.46a2.01664,2.01664,0,0,1-1.897-2.17725l.49732-15.44215a1.99937,1.99937,0,0,1,1.897-2.02737h8.0421a1.99937,1.99937,0,0,1,1.897,2.02737l.49732,15.44215A2.01664,2.01664,0,0,1,152.49677,27.88654Z"/>
    </g>
    <g>
      <path d="M95.44625,32.2708H81.58992a2.782,2.782,0,0,1-2.9087-2.75293l.76255-19.52518a2.80419,2.80419,0,0,1,2.9087-2.56343H94.6837a2.80419,2.80419,0,0,1,2.9087,2.56343L98.355,29.51786A2.782,2.782,0,0,1,95.44625,32.2708Z" fill="#4d4d4d"/>
      <path d="M83.06732,7.69943H93.96884a2.52888,2.52888,0,0,1,2.57146,2.38474l.67414,18.16417a2.52018,2.52018,0,0,1-2.57146,2.561H82.39318a2.52018,2.52018,0,0,1-2.57146-2.561l.67414-18.16417A2.52888,2.52888,0,0,1,83.06732,7.69943Z" fill="#333"/>
      <path d="M83.78218,7.96959H93.254a2.25982,2.25982,0,0,1,2.23422,2.20606l.58573,16.80316A2.26427,2.26427,0,0,1,93.83972,29.348H83.19645a2.26427,2.26427,0,0,1-2.23422-2.36915L81.548,10.17565A2.25982,2.25982,0,0,1,83.78218,7.96959Z" fill="#1a1a1a"/>
      <path d="M93.03645,27.88654H83.99971a2.01664,2.01664,0,0,1-1.897-2.17725l.49732-15.44215a1.99937,1.99937,0,0,1,1.897-2.02737h8.0421a1.99937,1.99937,0,0,1,1.897,2.02737l.49732,15.44215A2.01664,2.01664,0,0,1,93.03645,27.88654Z"/>
    </g>
    <g>
      <path d="M60.79671,32.2708H46.94038a2.782,2.782,0,0,1-2.9087-2.75293l.76255-19.52518a2.80419,2.80419,0,0,1,2.9087-2.56343H60.03416a2.80419,2.80419,0,0,1,2.9087,2.56343l.76255,19.52518A2.782,2.782,0,0,1,60.79671,32.2708Z" fill="#4d4d4d"/>
      <path d="M48.41779,7.69943H59.31931a2.52888,2.52888,0,0,1,2.57146,2.38474l.67414,18.16417a2.52018,2.52018,0,0,1-2.57146,2.561H47.74364a2.52018,2.52018,0,0,1-2.57146-2.561l.67414-18.16417A2.52888,2.52888,0,0,1,48.41779,7.69943Z" fill="#333"/>
      <path d="M49.13264,7.96959h9.47181a2.25982,2.25982,0,0,1,2.23422,2.20606l.58573,16.80316A2.26427,2.26427,0,0,1,59.19018,29.348H48.54691a2.26427,2.26427,0,0,1-2.23422-2.36915l.58573-16.80316A2.25982,2.25982,0,0,1,49.13264,7.96959Z" fill="#1a1a1a"/>
      <path d="M58.38692,27.88654H49.35018a2.01664,2.01664,0,0,1-1.897-2.17725l.49732-15.44215a1.99937,1.99937,0,0,1,1.897-2.02737h8.0421a1.99937,1.99937,0,0,1,1.897,2.02737l.49732,15.44215A2.01664,2.01664,0,0,1,58.38692,27.88654Z"/>
    </g>
    <line x1="24.80457" y1="24.14958" x2="24.80457" y2="54.5628" fill="none" stroke="#000" stroke-miterlimit="10" stroke-width="2"/>
    <line x1="306.77111" y1="24.14958" x2="306.77111" y2="54.5628" fill="none" stroke="#000" stroke-miterlimit="10" stroke-width="2"/>
    <rect x="55.46877" y="28.16562" width="31.51974" height="26.51073" fill="#4d4d4d"/>
    <rect x="24.80457" y="28.16562" width="30.66419" height="26.51073" fill="#4d4d4d"/>
    <line x1="55.46877" y1="24.14958" x2="55.46877" y2="50.8264" fill="none" stroke="#000" stroke-miterlimit="10" stroke-width="2"/>
    <rect x="86.9885" y="28.16562" width="31.51974" height="26.51073" fill="#4d4d4d"/>
    <rect x="118.50824" y="28.16562" width="31.51974" height="26.51073" fill="#4d4d4d"/>
    <rect x="150.02798" y="28.16562" width="31.51974" height="26.51073" fill="#4d4d4d"/>
    <rect x="181.54771" y="28.16562" width="31.51974" height="26.51073" fill="#4d4d4d"/>
    <rect x="213.06745" y="28.16562" width="31.51974" height="26.51073" fill="#4d4d4d"/>
    <rect x="244.58718" y="28.16562" width="31.51974" height="26.51073" fill="#4d4d4d"/>
    <rect x="276.10692" y="28.16562" width="30.70617" height="26.51073" fill="#4d4d4d"/>
    <g>
      <path d="M26.516,95.27924a2.41938,2.41938,0,0,1-2.417-2.417V53.3935a2.41938,2.41938,0,0,1,2.417-2.417h280.96V95.27924Z" fill="#666"/>
      <path d="M307.32655,51.12641V95.12921H26.51576a2.26916,2.26916,0,0,1-2.2666-2.2666V53.393a2.26924,2.26924,0,0,1,2.2666-2.2666H307.32655m.3-.3H26.51576A2.57409,2.57409,0,0,0,23.94911,53.393v39.4696a2.57409,2.57409,0,0,0,2.56665,2.56665H307.6266V50.82636Z" fill="gray"/>
    </g>
    <rect x="77.24698" y="54.5628" width="167.20986" height="37.13006" rx="3" ry="3" fill="#252525" stroke="#000" stroke-miterlimit="10" stroke-width="0.2"/>
    <g>
      <path d="M120.88905,84.85248a.75014.75014,0,0,1-.64941-.375l-6.335-10.97266a.7509.7509,0,0,1,0-.75l6.335-10.97363a.75252.75252,0,0,1,.64941-.375h12.6709a.75094.75094,0,0,1,.64844.375l6.33594,10.97363a.7509.7509,0,0,1,0,.75l-6.33594,10.97266a.74975.74975,0,0,1-.64844.375Z" fill="#1a1a1a"/>
      <path d="M133.55946,61.65656a.50121.50121,0,0,1,.43311.25L140.328,72.87983a.50136.50136,0,0,1-.00024.49988l-6.335,10.973a.5019.5019,0,0,1-.43335.25H120.88905a.50121.50121,0,0,1-.43311-.25l-6.33545-10.973a.50159.50159,0,0,1,.00024-.5l6.335-10.97314a.5019.5019,0,0,1,.43335-.25h12.67041m0-.5H120.88905a1.00011,1.00011,0,0,0-.86621.5L113.68763,72.6297a.99962.99962,0,0,0,0,1l6.33521,10.973a1.00011,1.00011,0,0,0,.86621.5h12.67041a1.00011,1.00011,0,0,0,.86621-.5l6.33521-10.973a.99962.99962,0,0,0,0-1l-6.33521-10.97314a1.00011,1.00011,0,0,0-.86621-.5Z" fill="#333"/>
      <path d="M133.55946,61.15656a1.00011,1.00011,0,0,1,.86621.5l6.33521,10.97314a.99962.99962,0,0,1,0,1l-6.33521,10.973a1.00011,1.00011,0,0,1-.86621.5H120.88905a1.00011,1.00011,0,0,1-.86621-.5l-6.33521-10.973a.99962.99962,0,0,1,0-1l6.33521-10.97314a1.00011,1.00011,0,0,1,.86621-.5h12.67041m0-.3H120.88905a1.30373,1.30373,0,0,0-1.126.65l-6.33521,10.97314a1.30268,1.30268,0,0,0,0,1.3l6.33521,10.973a1.30373,1.30373,0,0,0,1.126.65h12.67041a1.30373,1.30373,0,0,0,1.126-.65l6.33521-10.973a1.30268,1.30268,0,0,0,0-1.3l-6.33521-10.97314a1.30373,1.30373,0,0,0-1.126-.65Z"/>
    </g>
    <circle cx="127.19232" cy="73.18499" r="6.68431" transform="matrix(0.5, -0.86602, 0.86602, 0.5, 0.21598, 146.74406)" stroke="#333" stroke-miterlimit="10" stroke-width="0.5"/>
    <g>
      <circle cx="195.53347" cy="73.12783" r="12.83316" fill="#1a1a1a"/>
      <circle cx="195.53347" cy="73.12783" r="12.83316" fill="none" stroke="#333" stroke-miterlimit="10" stroke-width="0.5"/>
      <path d="M195.53358,60.29462a12.83319,12.83319,0,1,1-12.83325,12.83325,12.83315,12.83315,0,0,1,12.83325-12.83325m0-.3a13.13324,13.13324,0,1,0,13.13306,13.1333,13.14821,13.14821,0,0,0-13.13306-13.1333Z"/>
    </g>
    <circle cx="195.53347" cy="73.12783" r="9.34868" fill="#252525" stroke="#333" stroke-miterlimit="10" stroke-width="0.3"/>
    <circle cx="195.53347" cy="73.12783" r="7.6999" stroke="#000" stroke-miterlimit="10" stroke-width="0.2"/>
    <g>
      <path d="M73.89476,79.41c0,9.16708-4.67319,13.50405-13.15733,13.50405H28.97978c-1.98094,0-2.46412-1.21077-2.46412-2.66489v-34.33c0-1.97066.7486-2.74,2.88759-2.74H44.48543C60.72776,53.17915,73.89476,64.85436,73.89476,79.41Z" fill="gray"/>
      <path d="M44.16211,54.33523c15.49018,0,28.04746,11.21014,28.04746,25.186,0,8.80192-4.45678,12.96613-12.54805,12.96613h-30.287c-1.88921,0-2.35-1.16254-2.35-2.55873V56.96609c0-1.89216.71394-2.63085,2.75388-2.63085Z" fill="#8d8d8d"/>
      <path d="M43.83879,55.49132c14.738,0,26.68559,10.74506,26.68559,24.14108,0,8.43675-4.24038,12.42821-11.93877,12.42821H29.7692c-1.79748,0-2.23591-1.11431-2.23591-2.45258V58.013c0-1.81367.67927-2.52171,2.62016-2.52171Z" fill="#9a9a9a"/>
      <path d="M43.51548,56.64741c13.9859,0,25.32372,10.28,25.32372,23.09619,0,8.07159-4.024,11.89028-11.32949,11.89028H30.16391c-1.70574,0-2.1218-1.06608-2.1218-2.34643V59.06c0-1.73517.6446-2.41256,2.48644-2.41256Z" fill="#a6a6a6"/>
      <path d="M67.154,79.8548c0,7.70643-3.80757,11.35236-10.72021,11.35236H30.55861c-1.614,0-2.00769-1.01785-2.00769-2.24027v-28.86c0-1.65667.60994-2.30342,2.35272-2.30342H43.19216C56.42592,57.80349,67.154,67.61841,67.154,79.8548Z" fill="#b3b3b3"/>
    </g>
    <g>
      <path d="M247.67929,79.41c0,9.16708,4.67319,13.50405,13.15733,13.50405h46.79V53.17915h-30.538C260.8463,53.17915,247.67929,64.85436,247.67929,79.41Z" fill="gray"/>
      <path d="M249.36448,79.52119c0,8.80192,4.45678,12.96613,12.54805,12.96613h45.71413V54.33523H277.41194C261.92175,54.33523,249.36448,65.54537,249.36448,79.52119Z" fill="#8d8d8d"/>
      <path d="M251.04967,79.6324c0,8.43675,4.24038,12.42821,11.93877,12.42821h44.63822V55.49132h-29.8914C262.99721,55.49132,251.04967,66.23638,251.04967,79.6324Z" fill="#9a9a9a"/>
      <path d="M252.73486,79.7436c0,8.07159,4.024,11.89028,11.32949,11.89028h43.56231V56.64741H278.05858C264.07267,56.64741,252.73486,66.9274,252.73486,79.7436Z" fill="#a6a6a6"/>
      <path d="M254.42,79.8548c0,7.70643,3.80757,11.35236,10.72021,11.35236h42.48641V57.80349H278.38189C265.14813,57.80349,254.42,67.61841,254.42,79.8548Z" fill="#b3b3b3"/>
    </g>
    <line x1="86.9885" y1="26.78762" x2="86.9885" y2="50.8264" fill="none" stroke="#000" stroke-miterlimit="10" stroke-width="2"/>
    <line x1="118.50824" y1="26.78762" x2="118.50824" y2="50.8264" fill="none" stroke="#000" stroke-miterlimit="10" stroke-width="2"/>
    <line x1="150.02798" y1="26.78762" x2="150.02798" y2="50.8264" fill="none" stroke="#000" stroke-miterlimit="10" stroke-width="2"/>
    <line x1="181.54771" y1="26.78762" x2="181.54771" y2="50.8264" fill="none" stroke="#000" stroke-miterlimit="10" stroke-width="2"/>
    <line x1="213.06745" y1="26.78762" x2="213.06745" y2="50.8264" fill="none" stroke="#000" stroke-miterlimit="10" stroke-width="2"/>
    <line x1="244.58718" y1="26.78762" x2="244.58718" y2="50.8264" fill="none" stroke="#000" stroke-miterlimit="10" stroke-width="2"/>
    <line x1="276.10692" y1="26.78762" x2="276.10692" y2="50.8264" fill="none" stroke="#000" stroke-miterlimit="10" stroke-width="2"/>
    <polygon points="86.989 28.036 55.469 28.036 56.324 35.878 86.133 35.878 86.989 28.036" fill="#333"/>
    <polygon points="118.508 28.036 86.989 28.036 87.844 35.878 117.653 35.878 118.508 28.036" fill="#333"/>
    <polygon points="150.028 28.036 118.508 28.036 119.364 35.878 149.172 35.878 150.028 28.036" fill="#333"/>
    <polygon points="181.548 28.036 150.028 28.036 150.884 35.878 180.692 35.878 181.548 28.036" fill="#333"/>
    <polygon points="213.067 28.036 181.548 28.036 182.403 35.878 212.212 35.878 213.067 28.036" fill="#333"/>
    <polygon points="244.587 28.036 213.067 28.036 213.923 35.878 243.732 35.878 244.587 28.036" fill="#333"/>
    <polygon points="276.107 28.036 244.587 28.036 245.443 35.878 275.251 35.878 276.107 28.036" fill="#333"/>
    <polygon points="307.627 28.036 276.107 28.036 276.962 35.878 306.771 35.878 307.627 28.036" fill="#333"/>
    <g>
      <rect x="276.10692" y="21.76129" width="31.51974" height="7.55811" rx="1.3" ry="1.3" fill="#ccc" stroke="#666" stroke-miterlimit="10" stroke-width="0.2"/>
      <rect x="277.68261" y="22.97372" width="28.23296" height="4.27772" rx="1.3" ry="1.3" fill="#f2f2f2"/>
    </g>
    <g>
      <rect x="213.06745" y="21.76129" width="31.51974" height="7.55811" rx="1.3" ry="1.3" fill="#ccc" stroke="#666" stroke-miterlimit="10" stroke-width="0.2"/>
      <rect x="214.64314" y="22.97372" width="28.23296" height="4.27772" rx="1.3" ry="1.3" fill="#f2f2f2"/>
    </g>
    <g>
      <rect x="181.54771" y="21.76129" width="31.51974" height="7.55811" rx="1.3" ry="1.3" fill="#ccc" stroke="#666" stroke-miterlimit="10" stroke-width="0.2"/>
      <rect x="183.1234" y="22.97372" width="28.23296" height="4.27772" rx="1.3" ry="1.3" fill="#f2f2f2"/>
    </g>
    <g>
      <rect x="150.02798" y="21.76129" width="31.51974" height="7.55811" rx="1.3" ry="1.3" fill="#ccc" stroke="#666" stroke-miterlimit="10" stroke-width="0.2"/>
      <rect x="151.60367" y="22.97372" width="28.23296" height="4.27772" rx="1.3" ry="1.3" fill="#f2f2f2"/>
    </g>
    <g>
      <rect x="118.50824" y="21.76129" width="31.51974" height="7.55811" rx="1.3" ry="1.3" fill="#ccc" stroke="#666" stroke-miterlimit="10" stroke-width="0.2"/>
      <rect x="120.08393" y="22.97372" width="28.23296" height="4.27772" rx="1.3" ry="1.3" fill="#f2f2f2"/>
    </g>
    <g>
      <rect x="86.9885" y="21.76129" width="31.51974" height="7.55811" rx="1.3" ry="1.3" fill="#ccc" stroke="#666" stroke-miterlimit="10" stroke-width="0.2"/>
      <rect x="88.5642" y="22.97372" width="28.23296" height="4.27772" rx="1.3" ry="1.3" fill="#f2f2f2"/>
    </g>
    <g>
      <rect x="55.46877" y="21.76129" width="31.51974" height="7.55811" rx="1.3" ry="1.3" fill="#ccc" stroke="#666" stroke-miterlimit="10" stroke-width="0.2"/>
      <rect x="57.04446" y="22.97372" width="28.23296" height="4.27772" rx="1.3" ry="1.3" fill="#f2f2f2"/>
    </g>
    <polygon points="55.469 28.036 23.949 28.036 24.805 35.878 54.613 35.878 55.469 28.036" fill="#333"/>
    <path d="M202.15054,66.09006l-6.67582,5.671a.85554.85554,0,0,0-.05107,1.257l.21963.21963a.85554.85554,0,0,0,1.257-.05106l5.671-6.67579Z" fill="#ccc"/>
    <g>
      <rect x="23.94903" y="21.76129" width="31.51974" height="7.55811" rx="1.3" ry="1.3" fill="#ccc" stroke="#666" stroke-miterlimit="10" stroke-width="0.2"/>
      <rect x="25.52472" y="22.97372" width="28.23296" height="4.27772" rx="1.3" ry="1.3" fill="#f2f2f2"/>
    </g>
    <g>
      <rect x="244.58718" y="21.76129" width="31.51974" height="7.55811" rx="1.3" ry="1.3" fill="#ccc" stroke="#666" stroke-miterlimit="10" stroke-width="0.2"/>
      <rect x="246.29827" y="22.97372" width="28.23296" height="4.27772" rx="1.3" ry="1.3" fill="#f2f2f2"/>
    </g>
  </g>
</svg>
