<svg xmlns="http://www.w3.org/2000/svg" viewBox="0 0 257.8922 102.8585">
  <title>front-r</title>
  <g>
    <g>
      <rect x="0.24964" y="0.24993" width="257.39258" height="102.3584" rx="1.75" ry="1.75" fill="#1a1a1a"/>
      <path d="M255.89222.50012a1.50168,1.50168,0,0,1,1.5,1.5v98.85846a1.50164,1.50164,0,0,1-1.5,1.5H1.99989a1.50164,1.50164,0,0,1-1.5-1.5V2.00012a1.50168,1.50168,0,0,1,1.5-1.5H255.89222m0-.5H1.99989a2.006,2.006,0,0,0-2,2v98.85846a2.006,2.006,0,0,0,2,2H255.89222a2.00583,2.00583,0,0,0,2-2V2.00012a2.00579,2.00579,0,0,0-2-2Z" fill="#333"/>
    </g>
    <g>
      <path d="M59.29228,32.2708H45.43594a2.782,2.782,0,0,1-2.9087-2.75293L43.2898,9.99269a2.80419,2.80419,0,0,1,2.9087-2.56343H58.52972a2.80419,2.80419,0,0,1,2.9087,2.56343L62.201,29.51786A2.782,2.782,0,0,1,59.29228,32.2708Z" fill="#4d4d4d"/>
      <path d="M46.91335,7.69943H57.81487a2.52888,2.52888,0,0,1,2.57146,2.38474l.67414,18.16417a2.52018,2.52018,0,0,1-2.57146,2.561H46.23921a2.52018,2.52018,0,0,1-2.57146-2.561l.67414-18.16417A2.52888,2.52888,0,0,1,46.91335,7.69943Z" fill="#333"/>
      <path d="M47.62821,7.96959H57.1a2.25982,2.25982,0,0,1,2.23422,2.20606L59.92,26.97881A2.26427,2.26427,0,0,1,57.68575,29.348H47.04248a2.26427,2.26427,0,0,1-2.23422-2.36915L45.394,10.17565A2.25982,2.25982,0,0,1,47.62821,7.96959Z" fill="#1a1a1a"/>
      <path d="M56.88248,27.88654H47.84574a2.01664,2.01664,0,0,1-1.897-2.17725l.49732-15.44215a1.99937,1.99937,0,0,1,1.897-2.02737h8.0421a1.99937,1.99937,0,0,1,1.897,2.02737l.49732,15.44215A2.01664,2.01664,0,0,1,56.88248,27.88654Z"/>
    </g>
    <line x1="238.19575" y1="26.78761" x2="238.19575" y2="56.16417" fill="none" stroke="#000" stroke-miterlimit="10" stroke-width="2"/>
    <line x1="19.26868" y1="24.14958" x2="19.26868" y2="54.5628" fill="none" stroke="#000" stroke-miterlimit="10" stroke-width="2"/>
    <rect x="49.93287" y="28.16562" width="31.51974" height="26.51073" fill="#4d4d4d"/>
    <rect x="19.26868" y="28.16562" width="30.66419" height="26.51073" fill="#4d4d4d"/>
    <line x1="49.93287" y1="24.14958" x2="49.93287" y2="50.8264" fill="none" stroke="#000" stroke-miterlimit="10" stroke-width="2"/>
    <g>
      <path d="M117.46928,32.2708H103.61294a2.782,2.782,0,0,1-2.9087-2.75293l.76255-19.52518a2.80419,2.80419,0,0,1,2.9087-2.56343h12.33123a2.80419,2.80419,0,0,1,2.9087,2.56343l.76255,19.52518A2.782,2.782,0,0,1,117.46928,32.2708Z" fill="#4d4d4d"/>
      <path d="M105.09035,7.69943h10.90152a2.52888,2.52888,0,0,1,2.57146,2.38474l.67414,18.16417a2.52018,2.52018,0,0,1-2.57146,2.561h-12.2498a2.52018,2.52018,0,0,1-2.57146-2.561l.67414-18.16417A2.52888,2.52888,0,0,1,105.09035,7.69943Z" fill="#333"/>
      <path d="M105.8052,7.96959H115.277a2.25982,2.25982,0,0,1,2.23422,2.20606l.58573,16.80316a2.26427,2.26427,0,0,1-2.23422,2.36915H105.21947a2.26427,2.26427,0,0,1-2.23422-2.36915l.58573-16.80316A2.25982,2.25982,0,0,1,105.8052,7.96959Z" fill="#1a1a1a"/>
      <path d="M115.05948,27.88654h-9.03674a2.01664,2.01664,0,0,1-1.897-2.17725l.49732-15.44215a1.99937,1.99937,0,0,1,1.897-2.02737h8.0421a1.99937,1.99937,0,0,1,1.897,2.02737l.49732,15.44215A2.01664,2.01664,0,0,1,115.05948,27.88654Z"/>
    </g>
    <g>
      <path d="M151.26327,32.2708H137.40694a2.782,2.782,0,0,1-2.9087-2.75293l.76255-19.52518a2.80419,2.80419,0,0,1,2.9087-2.56343h12.33123a2.80419,2.80419,0,0,1,2.9087,2.56343l.76255,19.52518A2.782,2.782,0,0,1,151.26327,32.2708Z" fill="#4d4d4d"/>
      <path d="M138.88434,7.69943h10.90152a2.52888,2.52888,0,0,1,2.57146,2.38474l.67414,18.16417a2.52018,2.52018,0,0,1-2.57146,2.561H138.2102a2.52018,2.52018,0,0,1-2.57146-2.561l.67414-18.16417A2.52888,2.52888,0,0,1,138.88434,7.69943Z" fill="#333"/>
      <path d="M139.5992,7.96959H149.071a2.25982,2.25982,0,0,1,2.23422,2.20606l.58573,16.80316a2.26427,2.26427,0,0,1-2.23422,2.36915H139.01347a2.26427,2.26427,0,0,1-2.23422-2.36915l.58573-16.80316A2.25982,2.25982,0,0,1,139.5992,7.96959Z" fill="#1a1a1a"/>
      <path d="M148.85347,27.88654h-9.03674a2.01664,2.01664,0,0,1-1.897-2.17725l.49732-15.44215a1.99937,1.99937,0,0,1,1.897-2.02737h8.0421a1.99937,1.99937,0,0,1,1.897,2.02737l.49732,15.44215A2.01664,2.01664,0,0,1,148.85347,27.88654Z"/>
    </g>
    <g>
      <path d="M180.77954,32.2708H166.92321a2.782,2.782,0,0,1-2.9087-2.75293l.76255-19.52518a2.80419,2.80419,0,0,1,2.9087-2.56343H180.017a2.80419,2.80419,0,0,1,2.9087,2.56343l.76255,19.52518A2.782,2.782,0,0,1,180.77954,32.2708Z" fill="#4d4d4d"/>
      <path d="M168.40061,7.69943h10.90152a2.52888,2.52888,0,0,1,2.57146,2.38474l.67414,18.16417a2.52018,2.52018,0,0,1-2.57146,2.561h-12.2498a2.52018,2.52018,0,0,1-2.57146-2.561l.67414-18.16417A2.52888,2.52888,0,0,1,168.40061,7.69943Z" fill="#333"/>
      <path d="M169.11547,7.96959h9.47181a2.25982,2.25982,0,0,1,2.23422,2.20606l.58573,16.80316A2.26427,2.26427,0,0,1,179.173,29.348H168.52974a2.26427,2.26427,0,0,1-2.23422-2.36915l.58573-16.80316A2.25982,2.25982,0,0,1,169.11547,7.96959Z" fill="#1a1a1a"/>
      <path d="M178.36974,27.88654H169.333a2.01664,2.01664,0,0,1-1.897-2.17725l.49732-15.44215a1.99937,1.99937,0,0,1,1.897-2.02737h8.0421a1.99937,1.99937,0,0,1,1.897,2.02737l.49732,15.44215A2.01664,2.01664,0,0,1,178.36974,27.88654Z"/>
    </g>
    <rect x="81.45261" y="28.16562" width="31.51974" height="26.51073" fill="#4d4d4d"/>
    <rect x="112.97235" y="28.16562" width="31.51974" height="26.51073" fill="#4d4d4d"/>
    <rect x="144.49208" y="28.16562" width="31.51974" height="26.51073" fill="#4d4d4d"/>
    <rect x="176.01182" y="28.16562" width="31.51974" height="26.51073" fill="#4d4d4d"/>
    <rect x="207.53156" y="28.16562" width="30.66419" height="26.51073" fill="#4d4d4d"/>
    <g>
      <path d="M18.56312,95.27923V50.97649H237.05531a2.19259,2.19259,0,0,1,1.8457,2.417V92.86224a2.19259,2.19259,0,0,1-1.8457,2.417Z" fill="#666"/>
      <path d="M237.05506,51.12652c.9353,0,1.69629,1.01672,1.69629,2.26648V92.8626c0,1.24988-.761,2.2666-1.69629,2.2666H18.71327V51.12652h218.3418m0-.3H18.41322V95.42925H237.05506a2.34319,2.34319,0,0,0,1.99634-2.56665V53.393a2.34306,2.34306,0,0,0-1.99634-2.56653Z" fill="gray"/>
    </g>
    <rect x="85.82756" y="54.5628" width="108.6541" height="37.13006" rx="3" ry="3" fill="#252525" stroke="#000" stroke-miterlimit="10" stroke-width="0.2"/>
    <g>
      <circle cx="140.15461" cy="73.12783" r="12.83316" fill="#1a1a1a"/>
      <circle cx="140.15461" cy="73.12783" r="12.83316" fill="none" stroke="#333" stroke-miterlimit="10" stroke-width="0.5"/>
      <path d="M140.15467,60.29473a12.83313,12.83313,0,1,1-12.83325,12.83313,12.833,12.833,0,0,1,12.83325-12.83313m0-.3a13.13318,13.13318,0,1,0,13.13306,13.13318,13.14818,13.14818,0,0,0-13.13306-13.13318Z"/>
    </g>
    <circle cx="140.15461" cy="73.12783" r="9.34867" fill="#252525" stroke="#333" stroke-miterlimit="10" stroke-width="0.3"/>
    <circle cx="140.15461" cy="73.12783" r="7.69989" stroke="#000" stroke-miterlimit="10" stroke-width="0.2"/>
    <g>
      <path d="M197.95848,79.41c0,9.16708,4.67319,13.50405,13.15733,13.50405h22.77443c1.98094,0,2.46412-1.21077,2.46412-2.66489v-34.33c0-1.97066-.7486-2.74-2.88759-2.74h-6.099C211.12549,53.17915,197.95848,64.85435,197.95848,79.41Z" fill="gray"/>
      <path d="M227.69113,54.33523c-15.49018,0-28.04746,11.21014-28.04746,25.186,0,8.80192,4.45678,12.96613,12.54805,12.96613h21.30382c1.88921,0,2.35-1.16254,2.35-2.55873V56.96609c0-1.89216-.71394-2.63085-2.75388-2.63085Z" fill="#8d8d8d"/>
      <path d="M228.01445,55.49132c-14.738,0-26.68559,10.74506-26.68559,24.14108,0,8.43675,4.24038,12.42821,11.93877,12.42821h19.8332c1.79748,0,2.23591-1.11431,2.23591-2.45258V58.013c0-1.81367-.67927-2.52171-2.62016-2.52171Z" fill="#9a9a9a"/>
      <path d="M228.33777,56.64741c-13.9859,0-25.32372,10.28-25.32372,23.09619,0,8.07159,4.024,11.89028,11.32949,11.89028h18.36259c1.70574,0,2.1218-1.06608,2.1218-2.34643V59.06c0-1.73517-.6446-2.41256-2.48644-2.41256Z" fill="#a6a6a6"/>
      <path d="M204.69924,79.8548c0,7.70643,3.80757,11.35236,10.72021,11.35236h16.892c1.614,0,2.00769-1.01785,2.00769-2.24027v-28.86c0-1.65667-.60994-2.30342-2.35272-2.30342h-3.3053C215.42732,57.80349,204.69924,67.61841,204.69924,79.8548Z" fill="#b3b3b3"/>
    </g>
    <g>
      <path d="M82.77852,79.41c0,9.16708-4.67319,13.50405-13.15733,13.50405h-51.208V53.17915H53.36919C69.61151,53.17915,82.77852,64.85435,82.77852,79.41Z" fill="gray"/>
      <path d="M81.09333,79.52119c0,8.80192-4.45678,12.96613-12.54805,12.96613H18.41314V54.33523H53.04587C68.53605,54.33523,81.09333,65.54537,81.09333,79.52119Z" fill="#8d8d8d"/>
      <path d="M79.40814,79.63239c0,8.43675-4.24038,12.42821-11.93877,12.42821H18.41314V55.49132H52.72255C67.4606,55.49132,79.40814,66.23638,79.40814,79.63239Z" fill="#9a9a9a"/>
      <path d="M77.723,79.7436c0,8.07159-4.024,11.89028-11.32949,11.89028H18.41314V56.64741H52.39923C66.38514,56.64741,77.723,66.9274,77.723,79.7436Z" fill="#a6a6a6"/>
      <path d="M76.03776,79.8548c0,7.70643-3.80757,11.35236-10.72021,11.35236H18.41314V57.80349H52.07591C65.30968,57.80349,76.03776,67.61841,76.03776,79.8548Z" fill="#b3b3b3"/>
    </g>
    <line x1="81.45261" y1="26.78761" x2="81.45261" y2="50.8264" fill="none" stroke="#000" stroke-miterlimit="10" stroke-width="2"/>
    <line x1="112.97235" y1="26.78761" x2="112.97235" y2="50.8264" fill="none" stroke="#000" stroke-miterlimit="10" stroke-width="2"/>
    <line x1="144.49208" y1="26.78761" x2="144.49208" y2="50.8264" fill="none" stroke="#000" stroke-miterlimit="10" stroke-width="2"/>
    <line x1="176.01182" y1="26.78761" x2="176.01182" y2="50.8264" fill="none" stroke="#000" stroke-miterlimit="10" stroke-width="2"/>
    <line x1="207.53156" y1="26.78761" x2="207.53156" y2="50.8264" fill="none" stroke="#000" stroke-miterlimit="10" stroke-width="2"/>
    <polygon points="81.453 28.036 49.933 28.036 50.788 35.878 80.597 35.878 81.453 28.036" fill="#333"/>
    <polygon points="112.972 28.036 81.453 28.036 82.308 35.878 112.117 35.878 112.972 28.036" fill="#333"/>
    <polygon points="144.492 28.036 112.972 28.036 113.828 35.878 143.637 35.878 144.492 28.036" fill="#333"/>
    <polygon points="176.012 28.036 144.492 28.036 145.348 35.878 175.156 35.878 176.012 28.036" fill="#333"/>
    <polygon points="207.532 28.036 176.012 28.036 176.867 35.878 206.676 35.878 207.532 28.036" fill="#333"/>
    <polygon points="239.051 28.036 207.532 28.036 208.387 35.878 238.196 35.878 239.051 28.036" fill="#333"/>
    <polygon points="49.933 28.036 18.413 28.036 19.269 35.878 49.077 35.878 49.933 28.036" fill="#333"/>
    <g>
      <rect x="207.53156" y="21.76129" width="31.51974" height="7.55811" rx="1.3" ry="1.3" fill="#ccc" stroke="#666" stroke-miterlimit="10" stroke-width="0.2"/>
      <rect x="209.10725" y="22.97372" width="28.23296" height="4.27772" rx="1.3" ry="1.3" fill="#f2f2f2"/>
    </g>
    <g>
      <rect x="144.49208" y="21.76129" width="31.51974" height="7.55811" rx="1.3" ry="1.3" fill="#ccc" stroke="#666" stroke-miterlimit="10" stroke-width="0.2"/>
      <rect x="146.06778" y="22.97372" width="28.23296" height="4.27772" rx="1.3" ry="1.3" fill="#f2f2f2"/>
    </g>
    <g>
      <rect x="112.97235" y="21.76129" width="31.51974" height="7.55811" rx="1.3" ry="1.3" fill="#ccc" stroke="#666" stroke-miterlimit="10" stroke-width="0.2"/>
      <rect x="114.54804" y="22.97372" width="28.23296" height="4.27772" rx="1.3" ry="1.3" fill="#f2f2f2"/>
    </g>
    <g>
      <rect x="81.45261" y="21.76129" width="31.51974" height="7.55811" rx="1.3" ry="1.3" fill="#ccc" stroke="#666" stroke-miterlimit="10" stroke-width="0.2"/>
      <rect x="83.0283" y="22.97372" width="28.23296" height="4.27772" rx="1.3" ry="1.3" fill="#f2f2f2"/>
    </g>
    <g>
      <rect x="49.93287" y="21.76129" width="31.51974" height="7.55811" rx="1.3" ry="1.3" fill="#ccc" stroke="#666" stroke-miterlimit="10" stroke-width="0.2"/>
      <rect x="51.50857" y="22.97372" width="28.23296" height="4.27772" rx="1.3" ry="1.3" fill="#f2f2f2"/>
    </g>
    <g>
      <rect x="18.41314" y="21.76129" width="31.51974" height="7.55811" rx="1.3" ry="1.3" fill="#ccc" stroke="#666" stroke-miterlimit="10" stroke-width="0.2"/>
      <rect x="19.98883" y="22.97372" width="28.23296" height="4.27772" rx="1.3" ry="1.3" fill="#f2f2f2"/>
    </g>
    <g>
      <rect x="176.01182" y="21.76129" width="31.51974" height="7.55811" rx="1.3" ry="1.3" fill="#ccc" stroke="#666" stroke-miterlimit="10" stroke-width="0.2"/>
      <rect x="177.58751" y="22.97372" width="28.23296" height="4.27772" rx="1.3" ry="1.3" fill="#f2f2f2"/>
    </g>
    <path d="M146.77169,66.09006l-6.67582,5.671a.85554.85554,0,0,0-.05107,1.257l.21963.21963a.85554.85554,0,0,0,1.257-.05106l5.671-6.67579Z" fill="#ccc"/>
  </g>
</svg>
