<svg xmlns="http://www.w3.org/2000/svg" xmlns:xlink="http://www.w3.org/1999/xlink" viewBox="0 0 266.28661 61.58268">
  <defs>
    <linearGradient id="a" x1="42.2024" y1="37.53967" x2="42.2024" y2="20.10608" gradientUnits="userSpaceOnUse">
      <stop offset="0" stop-color="#707070"/>
      <stop offset="0.16285" stop-color="#9b9b9b"/>
      <stop offset="0.32942" stop-color="#bfbfbf"/>
      <stop offset="0.49749" stop-color="#dbdbdb"/>
      <stop offset="0.66533" stop-color="#efefef"/>
      <stop offset="0.83285" stop-color="#fbfbfb"/>
      <stop offset="1" stop-color="#fff"/>
    </linearGradient>
    <linearGradient id="b" x1="109.10279" y1="37.53967" x2="109.10279" y2="20.10608" xlink:href="#a"/>
    <linearGradient id="c" x1="176.00318" y1="37.53967" x2="176.00318" y2="20.10608" xlink:href="#a"/>
    <linearGradient id="d" x1="242.90357" y1="37.53967" x2="242.90357" y2="20.10608" xlink:href="#a"/>
  </defs>
  <title>mcs</title>
  <rect width="266.28661" height="61.58268" rx="2.83465" ry="2.83465" fill="#515151"/>
  <g>
    <g>
      <rect x="22.85572" y="20.10608" width="38.69336" height="17.43359" rx="2.35449" ry="2.35449" fill="url(#a)"/>
      <path d="M59.19459,20.46059a2.00589,2.00589,0,0,1,2,2V35.18518a2.00589,2.00589,0,0,1-2,2H25.21021a2.00581,2.00581,0,0,1-2-2V22.46059a2.00581,2.00581,0,0,1,2-2H59.19459m0-.70866H25.21021a2.71171,2.71171,0,0,0-2.70862,2.70866V35.18518a2.71171,2.71171,0,0,0,2.70862,2.70866H59.19459a2.71171,2.71171,0,0,0,2.70862-2.70866V22.46059a2.71171,2.71171,0,0,0-2.70862-2.70866Z"/>
    </g>
    <g>
      <rect x="89.75611" y="20.10608" width="38.69336" height="17.43359" rx="2.35449" ry="2.35449" fill="url(#b)"/>
      <path d="M126.095,20.46059a2.00589,2.00589,0,0,1,2,2V35.18518a2.00589,2.00589,0,0,1-2,2H92.1106a2.00581,2.00581,0,0,1-2-2V22.46059a2.00581,2.00581,0,0,1,2-2H126.095m0-.70866H92.1106A2.71171,2.71171,0,0,0,89.402,22.46059V35.18518a2.71171,2.71171,0,0,0,2.70862,2.70866H126.095a2.71171,2.71171,0,0,0,2.70862-2.70866V22.46059a2.71171,2.71171,0,0,0-2.70862-2.70866Z"/>
    </g>
    <g>
      <rect x="156.6565" y="20.10608" width="38.69336" height="17.43359" rx="2.35449" ry="2.35449" fill="url(#c)"/>
      <path d="M192.99537,20.46059a2.00589,2.00589,0,0,1,2,2V35.18518a2.00589,2.00589,0,0,1-2,2H159.011a2.00589,2.00589,0,0,1-2-2V22.46059a2.00589,2.00589,0,0,1,2-2h33.98438m0-.70866H159.011a2.71171,2.71171,0,0,0-2.70862,2.70866V35.18518a2.71171,2.71171,0,0,0,2.70862,2.70866h33.98438a2.71171,2.71171,0,0,0,2.70862-2.70866V22.46059a2.71171,2.71171,0,0,0-2.70862-2.70866Z"/>
    </g>
    <g>
      <rect x="223.55689" y="20.10608" width="38.69336" height="17.43359" rx="2.35449" ry="2.35449" fill="url(#d)"/>
      <path d="M259.89576,20.46059a2.00589,2.00589,0,0,1,2,2V35.18518a2.00589,2.00589,0,0,1-2,2H225.91139a2.00585,2.00585,0,0,1-2-2V22.46059a2.00585,2.00585,0,0,1,2-2h33.98438m0-.70866H225.91139a2.71167,2.71167,0,0,0-2.70862,2.70866V35.18518a2.71167,2.71167,0,0,0,2.70862,2.70866h33.98438a2.71173,2.71173,0,0,0,2.70868-2.70866V22.46059a2.71173,2.71173,0,0,0-2.70868-2.70866Z"/>
    </g>
  </g>
  <g>
    <circle cx="13.88146" cy="28.7599" r="4.53577"/>
    <circle cx="80.72251" cy="28.7599" r="4.53577"/>
    <circle cx="147.68321" cy="28.7599" r="4.53578"/>
    <circle cx="214.52318" cy="28.7599" r="4.53565"/>
  </g>
  <g>
    <path d="M36.07691,49.37268A6.12844,6.12844,0,1,1,42.22,55.51624,6.13342,6.13342,0,0,1,36.07691,49.37268Zm3.105,3.377h1.31592l.55127-1.89648h2.30273l.5415,1.89648h1.36426l-2.293-7.043H41.47486Zm2.40918-3.73437c.21289-.72559.416-1.51953.60938-2.2832.20313.75488.40625,1.55762.61914,2.2832l.23193.8125H41.34888Z" fill="#e6e6e6"/>
    <path d="M102.9773,49.37268a6.12844,6.12844,0,1,1,6.14307,6.14355A6.13342,6.13342,0,0,1,102.9773,49.37268Zm4.082,3.6084h2.32227c1.625,0,2.58252-.73535,2.58252-1.97363a1.53464,1.53464,0,0,0-1.26709-1.5957,1.52214,1.52214,0,0,0,.91895-1.46094c0-1.10254-.8125-1.66406-2.39893-1.66406h-2.15771Zm1.23828-3.95605V47.25452h.832c.8999,0,1.27734.26074,1.27734.87012,0,.59082-.44531.90039-1.29639.90039Zm0,2.98926V49.9635h.96777c1.01563,0,1.48975.31836,1.48975.97656,0,.70605-.50293,1.07422-1.48975,1.07422Z" fill="#e6e6e6"/>
    <path d="M169.87769,49.37268a6.12844,6.12844,0,1,1,6.14307,6.14355A6.13342,6.13342,0,0,1,169.87769,49.37268Zm8.416,2.65137-.67676-.78418a1.83687,1.83687,0,0,1-1.42236.69629c-1.10254,0-1.79932-.91895-1.79932-2.39844,0-1.44141.73535-2.37988,1.83789-2.37988a1.7053,1.7053,0,0,1,1.25781.58984l.66748-.80273a2.6775,2.6775,0,0,0-1.96387-.87109c-1.68311,0-3.06641,1.30664-3.06641,3.49219,0,2.21582,1.34473,3.4541,3.02783,3.4541A2.74276,2.74276,0,0,0,178.2937,52.024Z" fill="#e6e6e6"/>
    <path d="M236.77808,49.37268a6.12844,6.12844,0,1,1,6.14307,6.14355A6.13342,6.13342,0,0,1,236.77808,49.37268Zm4.15967,3.53125h1.86719c2.041,0,3.19238-1.21875,3.19238-3.376a2.96121,2.96121,0,0,0-3.26025-3.31836h-1.79932Zm1.22852-1.00586V47.21546h.49365c1.3833,0,2.07031.76465,2.07031,2.3125,0,1.57617-.70654,2.37012-2.07031,2.37012Z" fill="#e6e6e6"/>
  </g>
  <path d="M2.83472,0H263.452a2.83465,2.83465,0,0,1,2.83465,2.83465V15.59055a0,0,0,0,1,0,0H.00007a0,0,0,0,1,0,0V2.83465A2.83465,2.83465,0,0,1,2.83472,0Z" fill="#333"/>
  <g>
    <path d="M99.78931,4.21546h1.333l1.23926,3.38086.45117,1.30176h.042l.45117-1.30176,1.20752-3.38086h1.34375v6.86621h-1.144V7.943c0-.64062.09424-1.55371.15723-2.18359h-.042l-.55664,1.56348-1.186,3.11816h-.55615L101.343,7.32288l-.5459-1.56348h-.042c.05273.62988.147,1.543.147,2.18359v3.13867H99.78931Z" fill="#dcddde"/>
    <path d="M110.40454,7.78479c-.01074-.5459-.2417-1.00781-.93457-1.00781a2.87226,2.87226,0,0,0-1.44873.50391l-.44092-.80762a3.99,3.99,0,0,1,2.11035-.67187c1.291,0,1.9209.78711,1.9209,2.22559v3.05469h-.98682l-.09424-.56738h-.03174a2.50872,2.50872,0,0,1-1.5957.69336,1.44961,1.44961,0,0,1-1.53271-1.51172C107.37037,8.59338,108.29419,8.01624,110.40454,7.78479ZM109.281,10.26233a1.62051,1.62051,0,0,0,1.12354-.56641V8.54065c-1.39648.17871-1.8584.5459-1.8584,1.06055C108.54615,10.06311,108.85083,10.26233,109.281,10.26233Z" fill="#dcddde"/>
    <path d="M115.43384,5.80139a2.12661,2.12661,0,0,1,1.51172.59766l-.57764.7666a1.28545,1.28545,0,0,0-.87158-.37793c-.8291,0-1.40625.68262-1.40625,1.72168,0,1.0293.56641,1.71094,1.375,1.71094a1.707,1.707,0,0,0,1.06055-.44043l.50391.7666a2.58679,2.58679,0,0,1-1.69043.66113,2.45291,2.45291,0,0,1-2.48828-2.69824A2.54222,2.54222,0,0,1,115.43384,5.80139Z" fill="#dcddde"/>
    <path d="M118.14283,5.92737h.99756l.084.91309h.042a1.75143,1.75143,0,0,1,1.45947-1.03906,1.31524,1.31524,0,0,1,.58789.10449l-.21,1.0498a1.68183,1.68183,0,0,0-.53564-.084c-.40967,0-.90283.2832-1.21777,1.06055v3.14941h-1.20752Z" fill="#dcddde"/>
    <path d="M124.16968,5.80139a2.49471,2.49471,0,0,1,2.45654,2.708,2.46248,2.46248,0,1,1-4.90234,0A2.49294,2.49294,0,0,1,124.16968,5.80139Zm0,4.41895c.75586,0,1.21777-.68164,1.21777-1.71094,0-1.03906-.46191-1.72168-1.21777-1.72168s-1.20752.68262-1.20752,1.72168C122.96216,9.5387,123.41382,10.22034,124.16968,10.22034Z" fill="#dcddde"/>
    <path d="M133.08326,4.08948a2.69131,2.69131,0,0,1,1.95313.87207l-.67187.75586A1.74908,1.74908,0,0,0,133.094,5.15c-1.123,0-1.93164.94531-1.93164,2.48828,0,1.56445.74512,2.50879,1.88965,2.50879a1.85823,1.85823,0,0,0,1.44873-.68262l.67188.74609a2.74255,2.74255,0,0,1-2.1416.99707c-1.74268,0-3.11768-1.25977-3.11768-3.53809C129.91333,5.42346,131.31958,4.08948,133.08326,4.08948Z" fill="#dcddde"/>
    <path d="M138.41773,5.80139a2.49471,2.49471,0,0,1,2.45654,2.708,2.46248,2.46248,0,1,1-4.90234,0A2.49294,2.49294,0,0,1,138.41773,5.80139Zm0,4.41895c.75586,0,1.21777-.68164,1.21777-1.71094,0-1.03906-.46191-1.72168-1.21777-1.72168s-1.20752.68262-1.20752,1.72168C137.21021,9.5387,137.66187,10.22034,138.41773,10.22034Z" fill="#dcddde"/>
    <path d="M142.177,5.92737h.99756l.084.69238h.042a2.39464,2.39464,0,0,1,1.68994-.81836c1.10254,0,1.58545.74512,1.58545,2.04688v3.2334h-1.20752V8.00549c0-.85059-.24121-1.165-.80811-1.165a1.63285,1.63285,0,0,0-1.17578.64063v3.60059H142.177Z" fill="#dcddde"/>
    <path d="M148.34058,6.88245h-.73486V5.97913l.79785-.05176.147-1.40723h1.00781V5.92737h1.312v.95508h-1.312V9.3385c0,.60938.231.90332.72412.90332a1.48821,1.48821,0,0,0,.53564-.11523l.21.8916a3.28485,3.28485,0,0,1-1.0498.18945c-1.19678,0-1.6377-.75586-1.6377-1.86914Z" fill="#dcddde"/>
    <path d="M152.05787,5.92737h.99707l.084.91309h.042a1.75017,1.75017,0,0,1,1.459-1.03906,1.31248,1.31248,0,0,1,.58789.10449l-.21,1.0498a1.67425,1.67425,0,0,0-.53516-.084c-.40918,0-.90283.2832-1.21777,1.06055v3.14941h-1.207Z" fill="#dcddde"/>
    <path d="M158.08423,5.80139a2.495,2.495,0,0,1,2.45654,2.708,2.46271,2.46271,0,1,1-4.90283,0A2.49329,2.49329,0,0,1,158.08423,5.80139Zm0,4.41895c.75586,0,1.21777-.68164,1.21777-1.71094,0-1.03906-.46191-1.72168-1.21777-1.72168s-1.207.68262-1.207,1.72168C156.8772,9.5387,157.32837,10.22034,158.08423,10.22034Z" fill="#dcddde"/>
    <path d="M161.843,3.66956h1.20752V9.8219c0,.29395.13623.39844.26221.39844a.74307.74307,0,0,0,.18945-.02051l.15723.90234a1.63836,1.63836,0,0,1-.64062.10547c-.86035,0-1.17578-.55664-1.17578-1.44922Z" fill="#dcddde"/>
    <path d="M164.84644,9.71643a2.292,2.292,0,0,0,1.42773.57812c.55615,0,.81885-.2627.81885-.62012,0-.42969-.55664-.61914-1.10254-.8291-.68213-.252-1.44824-.64062-1.44824-1.501,0-.90332.72412-1.543,1.87891-1.543a2.78345,2.78345,0,0,1,1.71094.61914l-.55615.73438a1.92264,1.92264,0,0,0-1.13379-.44043c-.51416,0-.75586.24121-.75586.56641,0,.39941.51416.56738,1.0708.7666.70313.2627,1.48047.59863,1.48047,1.56445,0,.88184-.70361,1.5957-2.00537,1.5957a3.2655,3.2655,0,0,1-1.95264-.71387Z" fill="#dcddde"/>
  </g>
</svg>
