<svg xmlns="http://www.w3.org/2000/svg" viewBox="0 0 380 150">
  <title>Modulation copy 9</title>
  <g>
    <rect width="380" height="150" fill="#202020"/>
    <g>
      <path d="M16.679,15.97363h1.68262l2.15918,5.98242.79883,2.27832H21.388l.78125-2.27832,2.14258-5.98242h1.665V27.124H24.63411V20.9873c0-.98535.11914-2.31152.1875-3.29687h-.06836l-.88379,2.48145L21.72786,26.002h-.81641l-2.1416-5.83008-.88379-2.48145h-.06836c.06836.98535.16992,2.31152.16992,3.29688V27.124H16.679Z" fill="#e4e4e4"/>
      <path d="M33.54232,21.88867c0-1.05371-.35645-2.07422-1.69922-2.07422a4.44677,4.44677,0,0,0-2.46484.88379l-.56152-.96875a6.14075,6.14075,0,0,1,3.24707-1.07031c2.02246,0,2.873,1.34277,2.873,3.39941V27.124H33.7806l-.11914-.98633h-.03418A4.48636,4.48636,0,0,1,30.891,27.32813a2.253,2.253,0,0,1-2.43066-2.3457C28.46029,23.18066,30.02376,22.2793,33.54232,21.88867Zm-2.26074,4.31738a3.38366,3.38366,0,0,0,2.26074-1.10449V22.80664c-2.77051.33984-3.70508,1.01953-3.70508,2.07324A1.26556,1.26556,0,0,0,31.28158,26.20605Z" fill="#e4e4e4"/>
      <path d="M40.93783,18.65918a3.40567,3.40567,0,0,1,2.41309.98535l-.69629.90137a2.49894,2.49894,0,0,0-1.666-.73145c-1.49609,0-2.584,1.292-2.584,3.19629,0,1.88672,1.03711,3.16113,2.5498,3.16113a2.94278,2.94278,0,0,0,1.9375-.833l.62891.918a4.08913,4.08913,0,0,1-2.68555,1.07129c-2.19238,0-3.876-1.58105-3.876-4.31738A4.00111,4.00111,0,0,1,40.93783,18.65918Z" fill="#e4e4e4"/>
      <path d="M45.32357,18.86328h1.15625L46.599,20.3584h.05078a2.825,2.825,0,0,1,2.3457-1.69922,2.05214,2.05214,0,0,1,.88379.16992l-.27246,1.22363a2.31093,2.31093,0,0,0-.79883-.13574c-.69629,0-1.5293.50977-2.09082,1.90332V27.124H45.32357Z" fill="#e4e4e4"/>
      <path d="M54.265,18.65918c2.02344,0,3.8252,1.58008,3.8252,4.35156,0,2.73633-1.80176,4.31738-3.8252,4.31738-2.02246,0-3.82422-1.58105-3.82422-4.31738C50.44076,20.23926,52.24251,18.65918,54.265,18.65918Zm0,7.5127c1.42773,0,2.37988-1.27441,2.37988-3.16113,0-1.9043-.95215-3.19629-2.37988-3.19629-1.41016,0-2.37988,1.292-2.37988,3.19629C51.88509,24.89746,52.85482,26.17188,54.265,26.17188Z" fill="#e4e4e4"/>
      <path d="M68.11947,15.76953a4.11642,4.11642,0,0,1,3.043,1.377l-.79883.90039A2.97849,2.97849,0,0,0,68.137,17.00977c-2.125,0-3.53613,1.73438-3.53613,4.50488,0,2.80469,1.34277,4.57227,3.46777,4.57227a3.25316,3.25316,0,0,0,2.5498-1.24023l.79883.86621a4.27074,4.27074,0,0,1-3.38281,1.61523c-2.80469,0-4.89551-2.1416-4.89551-5.7793C63.139,17.96191,65.264,15.76953,68.11947,15.76953Z" fill="#e4e4e4"/>
      <path d="M76.53451,18.65918c2.02344,0,3.8252,1.58008,3.8252,4.35156,0,2.73633-1.80176,4.31738-3.8252,4.31738-2.02246,0-3.82422-1.58105-3.82422-4.31738C72.71029,20.23926,74.512,18.65918,76.53451,18.65918Zm0,7.5127c1.42773,0,2.37988-1.27441,2.37988-3.16113,0-1.9043-.95215-3.19629-2.37988-3.19629-1.41016,0-2.37988,1.292-2.37988,3.19629C74.15462,24.89746,75.12435,26.17188,76.53451,26.17188Z" fill="#e4e4e4"/>
      <path d="M82.53646,18.86328h1.15527l.11914,1.18945h.05078a3.89308,3.89308,0,0,1,2.77051-1.39355c1.73438,0,2.5166,1.12109,2.5166,3.22949V27.124H87.75423V22.0752c0-1.54687-.47559-2.209-1.56348-2.209-.84961,0-1.42773.44141-2.26074,1.27441V27.124H82.53646Z" fill="#e4e4e4"/>
      <path d="M92.07259,20.002H90.849V18.94824l1.292-.085.16992-2.3125h1.17285v2.3125h2.22656V20.002H93.48372v4.58887c0,1.02051.32324,1.59863,1.27441,1.59863a2.99344,2.99344,0,0,0,.93555-.22168l.27148,1.05469a5.11738,5.11738,0,0,1-1.5293.30566c-1.76855,0-2.36328-1.12207-2.36328-2.75391Z" fill="#e4e4e4"/>
      <path d="M97.58138,18.86328h1.15527l.11914,1.49512h.05078a2.82749,2.82749,0,0,1,2.3457-1.69922,2.04628,2.04628,0,0,1,.88379.16992l-.27148,1.22363a2.315,2.315,0,0,0-.79883-.13574c-.69727,0-1.53027.50977-2.09082,1.90332V27.124H97.58138Z" fill="#e4e4e4"/>
      <path d="M106.52279,18.65918c2.02246,0,3.82422,1.58008,3.82422,4.35156,0,2.73633-1.80176,4.31738-3.82422,4.31738s-3.8252-1.58105-3.8252-4.31738C102.69759,20.23926,104.50033,18.65918,106.52279,18.65918Zm0,7.5127c1.42773,0,2.37988-1.27441,2.37988-3.16113,0-1.9043-.95215-3.19629-2.37988-3.19629-1.41113,0-2.37988,1.292-2.37988,3.19629C104.1429,24.89746,105.11165,26.17188,106.52279,26.17188Z" fill="#e4e4e4"/>
      <path d="M112.52376,15.02148h1.39355V25.56055c0,.44141.1875.61133.3916.61133a1.1644,1.1644,0,0,0,.30566-.03418l.1875,1.05469a1.8837,1.8837,0,0,1-.7998.13574c-1.05371,0-1.47852-.66309-1.47852-1.87012Z" fill="#e4e4e4"/>
    </g>
    <g>
      <path d="M161.26107,15.97363h1.68262l2.1582,5.98242.7998,2.27832h.06738l.78223-2.27832,2.1416-5.98242h1.666V27.124h-1.34277V20.9873c0-.98535.11914-2.31152.18652-3.29687h-.06738l-.88477,2.48145-2.1416,5.83008h-.81543l-2.1416-5.83008-.88477-2.48145h-.06738c.06738.98535.16992,2.31152.16992,3.29688V27.124h-1.30859Z" fill="#e4e4e4"/>
      <path d="M176.66243,18.65918c2.02246,0,3.82422,1.58008,3.82422,4.35156,0,2.73633-1.80176,4.31738-3.82422,4.31738s-3.8252-1.58105-3.8252-4.31738C172.83724,20.23926,174.64,18.65918,176.66243,18.65918Zm0,7.5127c1.42773,0,2.37988-1.27441,2.37988-3.16113,0-1.9043-.95215-3.19629-2.37988-3.19629-1.41113,0-2.37988,1.292-2.37988,3.19629C174.28255,24.89746,175.2513,26.17188,176.66243,26.17188Z" fill="#e4e4e4"/>
      <path d="M185.6556,18.65918a3.40564,3.40564,0,0,1,2.31152.95117l-.06836-1.41016V15.02148h1.41113V27.124h-1.15625l-.11914-.96875h-.05078a3.72474,3.72474,0,0,1-2.498,1.17285c-2.07422,0-3.417-1.56348-3.417-4.31738C182.06868,20.3252,183.7679,18.65918,185.6556,18.65918Zm.13574,7.49609a2.79592,2.79592,0,0,0,2.10742-1.13867V20.69824a2.87192,2.87192,0,0,0-2.00586-.86621c-1.3252,0-2.37988,1.27441-2.37988,3.16113C183.513,24.96484,184.346,26.15527,185.79134,26.15527Z" fill="#e4e4e4"/>
      <path d="M200.71615,23.72461h-4.0625L195.58333,27.124H194.138l3.77344-11.15039h1.59863L203.28353,27.124h-1.49609Zm-.35645-1.13867-.52734-1.7002c-.39062-1.24121-.748-2.46484-1.10449-3.75684h-.06836c-.35645,1.292-.71387,2.51563-1.10449,3.75684l-.54395,1.7002Z" fill="#e4e4e4"/>
      <path d="M204.67806,18.86328h1.15625l.11914,1.18945h.05078a3.62907,3.62907,0,0,1,2.56641-1.39355,2.16919,2.16919,0,0,1,2.27832,1.58008,3.90159,3.90159,0,0,1,2.71973-1.58008c1.69922,0,2.51563,1.12109,2.51563,3.22949V27.124h-1.39453V22.0752c0-1.54687-.49219-2.209-1.5293-2.209a3.03268,3.03268,0,0,0-2.07422,1.27441V27.124h-1.39355V22.0752c0-1.54687-.49316-2.209-1.54687-2.209a3.10106,3.10106,0,0,0-2.07422,1.27441V27.124h-1.39355Z" fill="#e4e4e4"/>
      <path d="M221.98372,18.65918c2.02246,0,3.82422,1.58008,3.82422,4.35156,0,2.73633-1.80176,4.31738-3.82422,4.31738s-3.8252-1.58105-3.8252-4.31738C218.15853,20.23926,219.96126,18.65918,221.98372,18.65918Zm0,7.5127c1.42773,0,2.37988-1.27441,2.37988-3.16113,0-1.9043-.95215-3.19629-2.37988-3.19629-1.41113,0-2.37988,1.292-2.37988,3.19629C219.60384,24.89746,220.57259,26.17188,221.98372,26.17188Z" fill="#e4e4e4"/>
      <path d="M227.86556,18.86328h1.41113v5.04785c0,1.54688.459,2.21,1.54688,2.21.84961,0,1.44434-.4248,2.22656-1.39355V18.86328h1.39355V27.124h-1.15527l-.11914-1.292h-.05078a3.49235,3.49235,0,0,1-2.71973,1.49609c-1.751,0-2.5332-1.12207-2.5332-3.22949Z" fill="#e4e4e4"/>
      <path d="M237.23275,18.86328H238.389l.11914,1.18945h.05078a3.89127,3.89127,0,0,1,2.77051-1.39355c1.7334,0,2.51563,1.12109,2.51563,3.22949V27.124H242.4515V22.0752c0-1.54687-.47656-2.209-1.56445-2.209-.84961,0-1.42773.44141-2.26074,1.27441V27.124h-1.39355Z" fill="#e4e4e4"/>
      <path d="M246.76986,20.002h-1.22363V18.94824l1.291-.085.16992-2.3125H248.18v2.3125h2.22754V20.002H248.18v4.58887c0,1.02051.32324,1.59863,1.27539,1.59863a2.98123,2.98123,0,0,0,.93457-.22168l.27246,1.05469a5.12371,5.12371,0,0,1-1.53027.30566c-1.76758,0-2.3623-1.12207-2.3623-2.75391Z" fill="#e4e4e4"/>
    </g>
    <g>
      <path d="M284.78646,15.97363h3.43359c2.46484,0,4.11328.832,4.11328,3.28027,0,2.3457-1.68262,3.4502-4.11328,3.4502h-2.00586V27.124h-1.42773Zm3.24609,5.5752c1.95508,0,2.88965-.71387,2.88965-2.29492,0-1.61523-.96875-2.1416-2.88965-2.1416h-1.81836v4.43652Z" fill="#e4e4e4"/>
      <path d="M298.35189,21.88867c0-1.05371-.35742-2.07422-1.7002-2.07422a4.44954,4.44954,0,0,0-2.46484.88379l-.56055-.96875a6.13716,6.13716,0,0,1,3.24609-1.07031c2.02344,0,2.873,1.34277,2.873,3.39941V27.124h-1.15625l-.11816-.98633h-.03418a4.48654,4.48654,0,0,1-2.7373,1.19043,2.253,2.253,0,0,1-2.43066-2.3457C293.26888,23.18066,294.83333,22.2793,298.35189,21.88867Zm-2.26074,4.31738a3.38366,3.38366,0,0,0,2.26074-1.10449V22.80664c-2.77051.33984-3.70605,1.01953-3.70605,2.07324A1.26589,1.26589,0,0,0,296.09115,26.20605Z" fill="#e4e4e4"/>
      <path d="M302.38118,18.86328h1.15527l.11914,1.49512h.05078a2.82749,2.82749,0,0,1,2.3457-1.69922,2.04628,2.04628,0,0,1,.88379.16992l-.27148,1.22363a2.315,2.315,0,0,0-.79883-.13574c-.69727,0-1.53027.50977-2.09082,1.90332V27.124h-1.39355Z" fill="#e4e4e4"/>
      <path d="M312.52962,21.88867c0-1.05371-.35742-2.07422-1.7002-2.07422a4.44954,4.44954,0,0,0-2.46484.88379l-.56055-.96875a6.13716,6.13716,0,0,1,3.24609-1.07031c2.02344,0,2.873,1.34277,2.873,3.39941V27.124h-1.15625l-.11816-.98633h-.03418a4.48654,4.48654,0,0,1-2.7373,1.19043,2.253,2.253,0,0,1-2.43066-2.3457C307.44661,23.18066,309.01107,22.2793,312.52962,21.88867Zm-2.26074,4.31738a3.38366,3.38366,0,0,0,2.26074-1.10449V22.80664c-2.77051.33984-3.70605,1.01953-3.70605,2.07324A1.26589,1.26589,0,0,0,310.26888,26.20605Z" fill="#e4e4e4"/>
      <path d="M316.55892,18.86328h1.15527l.11914,1.18945h.05078a3.62919,3.62919,0,0,1,2.56738-1.39355,2.16731,2.16731,0,0,1,2.27734,1.58008,3.90347,3.90347,0,0,1,2.71973-1.58008c1.7002,0,2.51563,1.12109,2.51563,3.22949V27.124h-1.39355V22.0752c0-1.54687-.49316-2.209-1.53027-2.209a3.03108,3.03108,0,0,0-2.07324,1.27441V27.124h-1.39453V22.0752c0-1.54687-.49219-2.209-1.54687-2.209a3.09946,3.09946,0,0,0-2.07324,1.27441V27.124h-1.39355Z" fill="#e4e4e4"/>
      <path d="M333.74544,18.65918c2.10742,0,3.29785,1.5127,3.29785,3.875a5.03857,5.03857,0,0,1-.05078.76563h-5.57617a2.74981,2.74981,0,0,0,2.75391,2.90625,3.73252,3.73252,0,0,0,2.05664-.64551l.49316.918a4.9186,4.9186,0,0,1-2.71973.84961c-2.21,0-3.96094-1.61523-3.96094-4.31738C330.03939,20.30762,331.85872,18.65918,333.74544,18.65918Zm2.07422,3.72266c0-1.68359-.748-2.61816-2.04-2.61816a2.578,2.578,0,0,0-2.37988,2.61816Z" fill="#e4e4e4"/>
      <path d="M339.08333,20.002H337.8597V18.94824l1.292-.085.16992-2.3125h1.17285v2.3125H342.721V20.002h-2.22656v4.58887c0,1.02051.32324,1.59863,1.27441,1.59863a2.99344,2.99344,0,0,0,.93555-.22168l.27148,1.05469a5.11738,5.11738,0,0,1-1.5293.30566c-1.76855,0-2.36328-1.12207-2.36328-2.75391Z" fill="#e4e4e4"/>
      <path d="M347.516,18.65918c2.10742,0,3.29688,1.5127,3.29688,3.875a4.91539,4.91539,0,0,1-.05078.76563h-5.5752a2.74925,2.74925,0,0,0,2.75391,2.90625,3.73752,3.73752,0,0,0,2.05664-.64551l.49316.918a4.9212,4.9212,0,0,1-2.71973.84961c-2.21,0-3.96094-1.61523-3.96094-4.31738C343.8099,20.30762,345.62826,18.65918,347.516,18.65918Zm2.07324,3.72266c0-1.68359-.748-2.61816-2.04-2.61816a2.57935,2.57935,0,0,0-2.37988,2.61816Z" fill="#e4e4e4"/>
      <path d="M352.85384,18.86328h1.15527l.11914,1.49512h.05078a2.82749,2.82749,0,0,1,2.3457-1.69922,2.04628,2.04628,0,0,1,.88379.16992l-.27148,1.22363a2.315,2.315,0,0,0-.79883-.13574c-.69727,0-1.53027.50977-2.09082,1.90332V27.124h-1.39355Z" fill="#e4e4e4"/>
    </g>
  </g>
  <g>
    <polygon points="240.333 107.875 170.333 132.875 170.333 52.875 240.333 77.875 240.333 107.875" fill="#4e4e4e"/>
    <g>
      <rect x="315.68294" y="48.22461" width="9.30078" height="89.30078" fill="#666"/>
      <path d="M324.63338,48.5752V137.1748h-8.6001V48.5752h8.6001m.7-.7002h-10v90h10v-90Z" fill="#202020"/>
    </g>
    <rect x="316.33333" y="87.875" width="8" height="49" fill="#e4e4e4"/>
    <rect x="307.83333" y="77.875" width="5" height="30" fill="#cacaca"/>
    <rect x="327.83333" y="77.875" width="5" height="30" fill="#cacaca"/>
    <line x1="316.33333" y1="87.875" x2="324.33333" y2="87.875" fill="none" stroke="#fff" stroke-width="2"/>
    <g>
      <line x1="82.83333" y1="77.875" x2="84.33333" y2="77.875" fill="none" stroke="#f1f1f1" stroke-width="0.7"/>
      <polyline points="86.318 77.875 170.333 77.875 240.333 87.875 312.841 87.875" fill="none" stroke="#f1f1f1" stroke-width="0.7" stroke-dasharray="2.97686 1.98457"/>
      <line x1="313.83333" y1="87.875" x2="315.33333" y2="87.875" fill="none" stroke="#f1f1f1" stroke-width="0.7"/>
    </g>
    <g>
      <line x1="240.33333" y1="77.875" x2="241.83333" y2="77.875" fill="none" stroke="#7f7f7f" stroke-width="0.7"/>
      <line x1="243.75863" y1="77.875" x2="305.37069" y2="77.875" fill="none" stroke="#7f7f7f" stroke-width="0.7" stroke-dasharray="2.88806 1.92537"/>
      <line x1="306.33333" y1="77.875" x2="307.83333" y2="77.875" fill="none" stroke="#7f7f7f" stroke-width="0.7"/>
    </g>
    <g>
      <line x1="82.83333" y1="52.875" x2="84.33333" y2="52.875" fill="none" stroke="#7f7f7f" stroke-width="0.7"/>
      <line x1="86.27596" y1="52.875" x2="167.86214" y2="52.875" fill="none" stroke="#7f7f7f" stroke-width="0.7" stroke-dasharray="2.91379 1.94253"/>
      <line x1="168.83333" y1="52.875" x2="170.33333" y2="52.875" fill="none" stroke="#7f7f7f" stroke-width="0.7"/>
    </g>
    <g>
      <line x1="82.83333" y1="132.875" x2="84.33333" y2="132.875" fill="none" stroke="#7f7f7f" stroke-width="0.7"/>
      <line x1="86.27596" y1="132.875" x2="167.86214" y2="132.875" fill="none" stroke="#7f7f7f" stroke-width="0.7" stroke-dasharray="2.91379 1.94253"/>
      <line x1="168.83333" y1="132.875" x2="170.33333" y2="132.875" fill="none" stroke="#7f7f7f" stroke-width="0.7"/>
    </g>
    <g>
      <line x1="240.33333" y1="107.875" x2="241.83333" y2="107.875" fill="none" stroke="#7f7f7f" stroke-width="0.7"/>
      <line x1="243.75863" y1="107.875" x2="305.37069" y2="107.875" fill="none" stroke="#7f7f7f" stroke-width="0.7" stroke-dasharray="2.88806 1.92537"/>
      <line x1="306.33333" y1="107.875" x2="307.83333" y2="107.875" fill="none" stroke="#7f7f7f" stroke-width="0.7"/>
    </g>
    <g>
      <rect x="68.08333" y="48.125" width="14.5" height="89.5" rx="1.75" ry="1.75" fill="#7f7f7f"/>
      <path d="M80.83333,48.375a1.50164,1.50164,0,0,1,1.5,1.5v86a1.50164,1.50164,0,0,1-1.5,1.5h-11a1.50164,1.50164,0,0,1-1.5-1.5v-86a1.50164,1.50164,0,0,1,1.5-1.5h11m0-.5h-11a2.00583,2.00583,0,0,0-2,2v86a2.00583,2.00583,0,0,0,2,2h11a2.00575,2.00575,0,0,0,2-2v-86a2.00575,2.00575,0,0,0-2-2Z" fill="#202020"/>
    </g>
    <line x1="75.33333" y1="52.875" x2="75.33333" y2="132.875" fill="none" stroke="#202020" stroke-width="0.7"/>
    <circle cx="75.33333" cy="77.875" r="5" fill="#fff" stroke="#4e4e4e" stroke-width="0.7"/>
    <line x1="69.83399" y1="53" x2="80.83399" y2="53" fill="none" stroke="#4e4e4e" stroke-width="0.7"/>
    <line x1="69.83399" y1="133" x2="80.83399" y2="133" fill="none" stroke="#4e4e4e" stroke-width="0.7"/>
  </g>
</svg>
