<svg xmlns="http://www.w3.org/2000/svg" xmlns:xlink="http://www.w3.org/1999/xlink" viewBox="0 0 270 214">
  <defs>
    <linearGradient id="linear-gradient" x1="34.54181" y1="73.75143" x2="34.54181" y2="83.08706" gradientUnits="userSpaceOnUse">
      <stop offset="0" stop-color="#e6e6e6"/>
      <stop offset="0.1144" stop-color="#e0e0e0"/>
      <stop offset="0.27295" stop-color="#cecece"/>
      <stop offset="0.45731" stop-color="#b0b0b0"/>
      <stop offset="0.66114" stop-color="#878787"/>
      <stop offset="0.87829" stop-color="#535353"/>
      <stop offset="1" stop-color="#333"/>
    </linearGradient>
    <linearGradient id="linear-gradient-2" x1="77.48568" y1="73.75143" x2="77.48568" y2="83.08706" xlink:href="#linear-gradient"/>
    <linearGradient id="linear-gradient-3" x1="118.56243" y1="73.75143" x2="118.56243" y2="83.08706" xlink:href="#linear-gradient"/>
    <linearGradient id="linear-gradient-4" x1="161.5063" y1="73.75143" x2="161.5063" y2="83.08706" xlink:href="#linear-gradient"/>
    <linearGradient id="linear-gradient-5" x1="202.58942" y1="73.75143" x2="202.58942" y2="83.08706" xlink:href="#linear-gradient"/>
    <linearGradient id="linear-gradient-6" x1="245.52692" y1="73.75143" x2="245.52692" y2="83.08706" xlink:href="#linear-gradient"/>
    <linearGradient id="linear-gradient-7" x1="34.54181" y1="30.80756" x2="34.54181" y2="40.14318" xlink:href="#linear-gradient"/>
    <linearGradient id="linear-gradient-8" x1="77.48568" y1="30.80756" x2="77.48568" y2="40.14318" xlink:href="#linear-gradient"/>
    <linearGradient id="linear-gradient-9" x1="118.56243" y1="30.80756" x2="118.56243" y2="40.14318" xlink:href="#linear-gradient"/>
    <linearGradient id="linear-gradient-10" x1="161.5063" y1="30.80756" x2="161.5063" y2="40.14318" xlink:href="#linear-gradient"/>
    <linearGradient id="linear-gradient-11" x1="202.58942" y1="30.80756" x2="202.58942" y2="40.14318" xlink:href="#linear-gradient"/>
    <linearGradient id="linear-gradient-12" x1="245.52692" y1="30.80756" x2="245.52692" y2="40.14318" xlink:href="#linear-gradient"/>
    <linearGradient id="linear-gradient-13" x1="34.54181" y1="178.31042" x2="34.54181" y2="187.64605" xlink:href="#linear-gradient"/>
    <linearGradient id="linear-gradient-14" x1="77.48568" y1="178.31042" x2="77.48568" y2="187.64605" xlink:href="#linear-gradient"/>
    <linearGradient id="linear-gradient-15" x1="118.56243" y1="178.31042" x2="118.56243" y2="187.64605" xlink:href="#linear-gradient"/>
    <linearGradient id="linear-gradient-16" x1="161.5063" y1="178.31042" x2="161.5063" y2="187.64605" xlink:href="#linear-gradient"/>
    <linearGradient id="linear-gradient-17" x1="202.58942" y1="178.31042" x2="202.58942" y2="187.64605" xlink:href="#linear-gradient"/>
    <linearGradient id="linear-gradient-18" x1="245.52692" y1="178.31042" x2="245.52692" y2="187.64605" xlink:href="#linear-gradient"/>
    <linearGradient id="linear-gradient-19" x1="34.54181" y1="135.36655" x2="34.54181" y2="144.70218" xlink:href="#linear-gradient"/>
    <linearGradient id="linear-gradient-20" x1="77.48568" y1="135.36655" x2="77.48568" y2="144.70218" xlink:href="#linear-gradient"/>
    <linearGradient id="linear-gradient-21" x1="118.56243" y1="135.36655" x2="118.56243" y2="144.70218" xlink:href="#linear-gradient"/>
    <linearGradient id="linear-gradient-22" x1="161.5063" y1="135.36655" x2="161.5063" y2="144.70218" xlink:href="#linear-gradient"/>
    <linearGradient id="linear-gradient-23" x1="202.58942" y1="135.36655" x2="202.58942" y2="144.70218" xlink:href="#linear-gradient"/>
    <linearGradient id="linear-gradient-24" x1="245.52692" y1="135.36655" x2="245.52692" y2="144.70218" xlink:href="#linear-gradient"/>
  </defs>
  <title>p5</title>
  <g id="Panel_BG" data-name="Panel BG">
    <rect width="270" height="214" rx="3" ry="3" fill="#1a1a1a"/>
  </g>
  <g id="Modul_BGs" data-name="Modul BGs">
    <g>
      <rect x="6.28516" y="57.63086" width="127.46387" height="39.70996" rx="1.25" ry="1.25" fill="#414141"/>
      <path d="M132.49939,57.88086a1,1,0,0,1,1,1V96.09052a1,1,0,0,1-1,1H7.53491a1,1,0,0,1-1-1V58.88086a1,1,0,0,1,1-1H132.49939m0-.5H7.53491a1.50168,1.50168,0,0,0-1.5,1.5V96.09052a1.50168,1.50168,0,0,0,1.5,1.5H132.49939a1.50168,1.50168,0,0,0,1.5-1.5V58.88086a1.50168,1.50168,0,0,0-1.5-1.5Z" fill="#bfcaff"/>
    </g>
    <g>
      <rect x="136.9834" y="57.63086" width="127.46484" height="39.70996" rx="1.25" ry="1.25" fill="#414141"/>
      <path d="M263.19812,57.88086a1,1,0,0,1,1,1V96.09052a1,1,0,0,1-1,1H138.23364a1,1,0,0,1-1-1V58.88086a1,1,0,0,1,1-1H263.19812m0-.5H138.23364a1.50168,1.50168,0,0,0-1.5,1.5V96.09052a1.50168,1.50168,0,0,0,1.5,1.5H263.19812a1.50168,1.50168,0,0,0,1.5-1.5V58.88086a1.50168,1.50168,0,0,0-1.5-1.5Z" fill="#bfcaff"/>
    </g>
    <g>
      <rect x="6.28516" y="14.68652" width="258.16309" height="39.70996" rx="1.25" ry="1.25" fill="#414141"/>
      <path d="M263.19812,14.937a.99993.99993,0,0,1,1,1V53.14661a.99993.99993,0,0,1-1,1H7.53491a1,1,0,0,1-1-1V15.937a1,1,0,0,1,1-1H263.19812m0-.5H7.53491a1.50168,1.50168,0,0,0-1.5,1.5V53.14661a1.50168,1.50168,0,0,0,1.5,1.5H263.19812a1.50168,1.50168,0,0,0,1.5-1.5V15.937a1.50168,1.50168,0,0,0-1.5-1.5Z" fill="#bfcaff"/>
    </g>
    <g>
      <rect x="6.28516" y="162.18945" width="170.4082" height="39.70996" rx="1.25" ry="1.25" fill="#414141"/>
      <path d="M175.44336,162.43982a1,1,0,0,1,1,1v37.20972a1,1,0,0,1-1,1H7.53491a1,1,0,0,1-1-1V163.43982a1,1,0,0,1,1-1H175.44336m0-.5H7.53491a1.50164,1.50164,0,0,0-1.5,1.5v37.20972a1.50164,1.50164,0,0,0,1.5,1.5H175.44336a1.50164,1.50164,0,0,0,1.5-1.5V163.43982a1.50164,1.50164,0,0,0-1.5-1.5Z" fill="#ced2d9"/>
    </g>
    <g>
      <rect x="179.92773" y="162.18945" width="40.64258" height="39.70996" rx="1.25" ry="1.25" fill="#414141"/>
      <path d="M219.32068,162.43982a1,1,0,0,1,1,1v37.20972a1,1,0,0,1-1,1H181.17749a1,1,0,0,1-1-1V163.43982a1,1,0,0,1,1-1h38.14319m0-.5H181.17749a1.50164,1.50164,0,0,0-1.5,1.5v37.20972a1.50164,1.50164,0,0,0,1.5,1.5h38.14319a1.50164,1.50164,0,0,0,1.5-1.5V163.43982a1.50164,1.50164,0,0,0-1.5-1.5Z" fill="#ced2d9"/>
    </g>
    <g>
      <rect x="223.80469" y="162.18945" width="40.64355" height="39.70996" rx="1.25" ry="1.25" fill="#414141"/>
      <path d="M263.19812,162.43982a1,1,0,0,1,1,1v37.20972a1,1,0,0,1-1,1H225.05493a1,1,0,0,1-1-1V163.43982a1,1,0,0,1,1-1h38.14319m0-.5H225.05493a1.50164,1.50164,0,0,0-1.5,1.5v37.20972a1.50164,1.50164,0,0,0,1.5,1.5h38.14319a1.50164,1.50164,0,0,0,1.5-1.5V163.43982a1.50164,1.50164,0,0,0-1.5-1.5Z" fill="#ced2d9"/>
    </g>
    <g>
      <rect x="6.28516" y="119.24609" width="127.46387" height="39.70996" rx="1.25" ry="1.25" fill="#414141"/>
      <path d="M132.49939,119.496a1,1,0,0,1,1,1v37.20959a.99989.99989,0,0,1-1,1H7.53491a1,1,0,0,1-1-1V120.496a1,1,0,0,1,1-1H132.49939m0-.5H7.53491a1.50168,1.50168,0,0,0-1.5,1.5v37.20959a1.50164,1.50164,0,0,0,1.5,1.5H132.49939a1.50164,1.50164,0,0,0,1.5-1.5V120.496a1.50168,1.50168,0,0,0-1.5-1.5Z" fill="#bfcaff"/>
    </g>
    <g>
      <rect x="136.9834" y="119.24609" width="127.46484" height="39.70996" rx="1.25" ry="1.25" fill="#414141"/>
      <path d="M263.19812,119.496a1,1,0,0,1,1,1v37.20959a.99989.99989,0,0,1-1,1H138.23364a1,1,0,0,1-1-1V120.496a1,1,0,0,1,1-1H263.19812m0-.5H138.23364a1.50168,1.50168,0,0,0-1.5,1.5v37.20959a1.50164,1.50164,0,0,0,1.5,1.5H263.19812a1.50164,1.50164,0,0,0,1.5-1.5V120.496a1.50168,1.50168,0,0,0-1.5-1.5Z" fill="#bfcaff"/>
    </g>
  </g>
  <g id="Punkte_voll" data-name="Punkte voll">
    <circle cx="183.9118" cy="88.9685" r="1.21363" fill="#e6e6e6"/>
    <circle cx="58.81443" cy="88.9685" r="1.21363" fill="#e6e6e6"/>
    <circle cx="99.89118" cy="90.83562" r="1.21363" fill="#e6e6e6"/>
    <circle cx="142.83505" cy="47.8907" r="1.21363" fill="#e6e6e6"/>
    <circle cx="99.89118" cy="46.02425" r="1.21363" fill="#e6e6e6"/>
    <circle cx="185.77892" cy="191.66037" r="1.21363" fill="#e6e6e6"/>
    <circle cx="15.87056" cy="152.45074" r="1.21363" fill="#e6e6e6"/>
  </g>
  <g id="Punkte_leer" data-name="Punkte leer">
    <path d="M183.91174,91.77258a.93018.93018,0,1,1-.93018.93018.93132.93132,0,0,1,.93018-.93018m0-.28345a1.21362,1.21362,0,1,0,1.21375,1.21362,1.21367,1.21367,0,0,0-1.21375-1.21362Z" fill="#e6e6e6"/>
    <path d="M15.87061,88.03833a.93018.93018,0,1,1-.93018.93018.93122.93122,0,0,1,.93018-.93018m0-.28345a1.21362,1.21362,0,1,0,1.21362,1.21362,1.21359,1.21359,0,0,0-1.21362-1.21362Z" fill="#e6e6e6"/>
    <path d="M15.87061,91.77258a.93018.93018,0,1,1-.93018.93018.93122.93122,0,0,1,.93018-.93018m0-.28345a1.21362,1.21362,0,1,0,1.21362,1.21362,1.21359,1.21359,0,0,0-1.21362-1.21362Z" fill="#e6e6e6"/>
    <path d="M58.81445,91.77258a.93018.93018,0,1,1-.93018.93018.93122.93122,0,0,1,.93018-.93018m0-.28345a1.21362,1.21362,0,1,0,1.21362,1.21362,1.21359,1.21359,0,0,0-1.21362-1.21362Z" fill="#e6e6e6"/>
    <path d="M142.83508,89.90546a.93018.93018,0,1,1-.93018.93018.93122.93122,0,0,1,.93018-.93018m0-.28345a1.21362,1.21362,0,1,0,1.21362,1.21362,1.21359,1.21359,0,0,0-1.21362-1.21362Z" fill="#e6e6e6"/>
    <path d="M99.89124,48.82867a.93021.93021,0,1,1-.9303.93018.93122.93122,0,0,1,.9303-.93018m0-.28345a1.21365,1.21365,0,1,0,1.21362,1.21362,1.21374,1.21374,0,0,0-1.21362-1.21362Z" fill="#e6e6e6"/>
    <path d="M183.91174,45.09442a.93021.93021,0,1,1-.93018.93024.93134.93134,0,0,1,.93018-.93024m0-.28345a1.21365,1.21365,0,1,0,1.21375,1.21368,1.21372,1.21372,0,0,0-1.21375-1.21368Z" fill="#e6e6e6"/>
    <path d="M183.91174,48.82867a.93021.93021,0,1,1-.93018.93018.93132.93132,0,0,1,.93018-.93018m0-.28345a1.21365,1.21365,0,1,0,1.21375,1.21362,1.21371,1.21371,0,0,0-1.21375-1.21362Z" fill="#e6e6e6"/>
    <path d="M58.81445,46.96155a.93021.93021,0,1,1-.93018.93018.93122.93122,0,0,1,.93018-.93018m0-.28345a1.21365,1.21365,0,1,0,1.21362,1.21362,1.21363,1.21363,0,0,0-1.21362-1.21362Z" fill="#e6e6e6"/>
    <path d="M185.77893,194.46448a.93018.93018,0,1,1-.93018.93018.93118.93118,0,0,1,.93018-.93018m0-.28345a1.21362,1.21362,0,1,0,1.21362,1.21362,1.21359,1.21359,0,0,0-1.21362-1.21362Z" fill="#e6e6e6"/>
    <path d="M185.77893,198.19873a.93018.93018,0,1,1-.93018.93018.93118.93118,0,0,1,.93018-.93018m0-.28345a1.21362,1.21362,0,1,0,1.21362,1.21362,1.21359,1.21359,0,0,0-1.21362-1.21362Z" fill="#e6e6e6"/>
    <path d="M228.72278,194.46448a.93018.93018,0,1,1-.93018.93018.93118.93118,0,0,1,.93018-.93018m0-.28345a1.21362,1.21362,0,1,0,1.21362,1.21362,1.21359,1.21359,0,0,0-1.21362-1.21362Z" fill="#e6e6e6"/>
    <path d="M58.81445,149.65344a.93018.93018,0,1,1-.93018.93018.93118.93118,0,0,1,.93018-.93018m0-.28345a1.21362,1.21362,0,1,0,1.21362,1.21362A1.21359,1.21359,0,0,0,58.81445,149.37Z" fill="#e6e6e6"/>
    <path d="M58.81445,153.3877a.93018.93018,0,1,1-.93018.93018.93118.93118,0,0,1,.93018-.93018m0-.28345a1.21362,1.21362,0,1,0,1.21362,1.21362,1.21359,1.21359,0,0,0-1.21362-1.21362Z" fill="#e6e6e6"/>
    <path d="M142.83508,151.52051a.93024.93024,0,1,1-.93018.93018.93118.93118,0,0,1,.93018-.93018m0-.28345a1.21368,1.21368,0,1,0,1.21362,1.21362,1.21367,1.21367,0,0,0-1.21362-1.21362Z" fill="#e6e6e6"/>
    <path d="M183.91174,151.52051a.93024.93024,0,1,1-.93018.93018.93128.93128,0,0,1,.93018-.93018m0-.28345a1.21368,1.21368,0,1,0,1.21375,1.21362,1.21375,1.21375,0,0,0-1.21375-1.21362Z" fill="#e6e6e6"/>
  </g>
  <g id="LEDs_Top" data-name="LEDs Top">
    <circle cx="15.87056" cy="78.41924" r="2.80069" fill="#6e2014" stroke="#252525" stroke-miterlimit="10" stroke-width="0.3"/>
    <circle cx="58.81443" cy="78.33655" r="2.80069" fill="#6e2014" stroke="#252525" stroke-miterlimit="10" stroke-width="0.3"/>
    <circle cx="99.89118" cy="78.33655" r="2.80069" fill="#6e2014" stroke="#252525" stroke-miterlimit="10" stroke-width="0.3"/>
    <circle cx="142.83505" cy="78.33655" r="2.80069" fill="#6e2014" stroke="#252525" stroke-miterlimit="10" stroke-width="0.3"/>
    <circle cx="183.9118" cy="78.33655" r="2.80069" fill="#6e2014" stroke="#252525" stroke-miterlimit="10" stroke-width="0.3"/>
    <circle cx="226.85567" cy="78.33655" r="2.80069" fill="#6e2014" stroke="#252525" stroke-miterlimit="10" stroke-width="0.3"/>
    <circle cx="15.87056" cy="35.47537" r="2.80069" fill="#6e2014" stroke="#252525" stroke-miterlimit="10" stroke-width="0.3"/>
    <circle cx="58.81443" cy="35.39267" r="2.80069" fill="#6e2014" stroke="#252525" stroke-miterlimit="10" stroke-width="0.3"/>
    <circle cx="99.89118" cy="35.39267" r="2.80069" fill="#6e2014" stroke="#252525" stroke-miterlimit="10" stroke-width="0.3"/>
    <circle cx="142.83505" cy="35.39267" r="2.80069" fill="#6e2014" stroke="#252525" stroke-miterlimit="10" stroke-width="0.3"/>
    <circle cx="183.9118" cy="35.39267" r="2.80069" fill="#6e2014" stroke="#252525" stroke-miterlimit="10" stroke-width="0.3"/>
    <circle cx="226.85567" cy="35.39267" r="2.80069" fill="#6e2014" stroke="#252525" stroke-miterlimit="10" stroke-width="0.3"/>
    <circle cx="58.81443" cy="182.89554" r="2.80069" fill="#6e2014" stroke="#252525" stroke-miterlimit="10" stroke-width="0.3"/>
    <circle cx="99.89118" cy="182.89554" r="2.80069" fill="#6e2014" stroke="#252525" stroke-miterlimit="10" stroke-width="0.3"/>
    <circle cx="142.83505" cy="182.89554" r="2.80069" fill="#6e2014" stroke="#252525" stroke-miterlimit="10" stroke-width="0.3"/>
    <circle cx="185.77892" cy="182.89554" r="2.80069" fill="#6e2014" stroke="#252525" stroke-miterlimit="10" stroke-width="0.3"/>
    <circle cx="228.72279" cy="182.89554" r="2.80069" fill="#6e2014" stroke="#252525" stroke-miterlimit="10" stroke-width="0.3"/>
    <circle cx="15.87056" cy="140.03436" r="2.80069" fill="#6e2014" stroke="#252525" stroke-miterlimit="10" stroke-width="0.3"/>
    <circle cx="58.81443" cy="139.95167" r="2.80069" fill="#6e2014" stroke="#252525" stroke-miterlimit="10" stroke-width="0.3"/>
    <circle cx="99.89118" cy="139.95167" r="2.80069" fill="#6e2014" stroke="#252525" stroke-miterlimit="10" stroke-width="0.3"/>
    <circle cx="142.83505" cy="139.95167" r="2.80069" fill="#6e2014" stroke="#252525" stroke-miterlimit="10" stroke-width="0.3"/>
    <circle cx="183.9118" cy="139.95167" r="2.80069" fill="#6e2014" stroke="#252525" stroke-miterlimit="10" stroke-width="0.3"/>
    <circle cx="226.85567" cy="139.95167" r="2.80069" fill="#6e2014" stroke="#252525" stroke-miterlimit="10" stroke-width="0.3"/>
    <circle cx="15.87056" cy="182.97824" r="2.80069" fill="#6e2014" stroke="#252525" stroke-miterlimit="10" stroke-width="0.3"/>
  </g>
  <g id="Parameter_Typo" data-name="Parameter Typo">
    <g>
      <path d="M28.2998,89h1.041a1.95729,1.95729,0,0,1,.03613,3.91211H28.2998Zm.99316,3.34961c.79,0,1.24414-.44824,1.24414-1.41211,0-.957-.4541-1.375-1.24414-1.375h-.29883v2.78711Z" fill="#e6e6e6"/>
      <path d="M31.97266,89.97461H32.541l.04785.52051h.02344a.99822.99822,0,0,1,.832-.5918.74564.74564,0,0,1,.335.05957l-.12012.59863a.94529.94529,0,0,0-.30469-.04785c-.2334,0-.51465.16113-.69336.60352v1.79492h-.68848Z" fill="#e6e6e6"/>
      <path d="M34.126,89.07129a.42639.42639,0,1,1,.4248.38965A.39538.39538,0,0,1,34.126,89.07129Zm.07813.90332h.6875v2.9375h-.6875Z" fill="#e6e6e6"/>
      <path d="M35.40527,89.97461h.7002L36.57227,91.5c.07715.28711.167.58594.24512.88574h.02344c.084-.2998.168-.59863.252-.88574l.4668-1.52539h.66309l-.999,2.9375h-.79492Z" fill="#e6e6e6"/>
      <path d="M39.85547,89.90332c.7959,0,1.21484.57422,1.21484,1.39355a1.50126,1.50126,0,0,1-.03027.32324H39.17383a.84234.84234,0,0,0,.86719.83105,1.23734,1.23734,0,0,0,.68262-.21484l.23242.43066a1.85947,1.85947,0,0,1-1.00488.31641,1.54793,1.54793,0,0,1-.0957-3.08008Zm.61621,1.28027c0-.4668-.19727-.748-.59766-.748-.34766,0-.64648.25684-.70605.748Z" fill="#e6e6e6"/>
    </g>
    <g>
      <path d="M74.4707,89.58594H73.33984V89h2.94922v.58594h-1.125v3.32617H74.4707Z" fill="#e6e6e6"/>
      <path d="M76.79785,89.07129a.42586.42586,0,1,1,.42383.38965A.39455.39455,0,0,1,76.79785,89.07129Zm.07715.90332h.68848v2.9375H76.875Z" fill="#e6e6e6"/>
      <path d="M78.44238,88.68848h.6875v3.50586c0,.167.07813.22656.15039.22656a.42059.42059,0,0,0,.10742-.01172l.08984.51465a.936.936,0,0,1-.36523.05957c-.49023,0-.66992-.31641-.66992-.8252Z" fill="#e6e6e6"/>
      <path d="M80.165,90.51953h-.418v-.51465l.4541-.03027.084-.80078h.57422v.80078h.74707v.54492h-.74707v1.39941c0,.34668.13184.51465.41211.51465a.8378.8378,0,0,0,.30566-.06641l.11914.50879a1.87388,1.87388,0,0,1-.59766.10742c-.68164,0-.93359-.43066-.93359-1.06445Z" fill="#e6e6e6"/>
    </g>
    <g>
      <path d="M114.61426,89h.75977l.70605,1.92578.25684.74219h.02441l.25684-.74219L117.30566,89h.76563v3.91211h-.65137V91.123c0-.36426.05371-.88477.08984-1.24414h-.02441l-.31641.8916-.67578,1.77637h-.31738L115.5,90.77051l-.31152-.8916H115.165c.0293.35938.084.87988.084,1.24414v1.78906h-.63477Z" fill="#e6e6e6"/>
      <path d="M118.9209,89.07129a.42639.42639,0,1,1,.4248.38965A.39538.39538,0,0,1,118.9209,89.07129Zm.07813.90332h.6875v2.9375h-.6875Z" fill="#e6e6e6"/>
      <path d="M121.14648,91.38086l-.873-1.40625h.74121l.3291.55664c.084.16113.17969.335.26953.49609h.02441c.07129-.16113.15527-.335.22656-.49609l.28125-.55664h.71191l-.86719,1.4834.93262,1.4541h-.74121l-.35937-.58008c-.0957-.17383-.19727-.35352-.29883-.52051H121.5c-.084.167-.17383.34082-.25781.52051l-.31055.58008h-.71777Z" fill="#e6e6e6"/>
    </g>
    <g>
      <path d="M155.00879,88.92773a1.53,1.53,0,0,1,1.1123.49707l-.38281.43066a.99647.99647,0,0,0-.72363-.32324c-.64062,0-1.10059.53809-1.10059,1.418,0,.89063.4248,1.42969,1.07617,1.42969a1.05635,1.05635,0,0,0,.8252-.38965l.38281.4248a1.55947,1.55947,0,0,1-1.21973.56836,1.79358,1.79358,0,0,1-1.77637-2.01562A1.83944,1.83944,0,0,1,155.00879,88.92773Z" fill="#e6e6e6"/>
      <path d="M157.94531,89.90332c.7959,0,1.21484.57422,1.21484,1.39355a1.50127,1.50127,0,0,1-.03027.32324h-1.86621a.84234.84234,0,0,0,.86719.83105,1.23734,1.23734,0,0,0,.68262-.21484l.23242.43066a1.85946,1.85946,0,0,1-1.00488.31641,1.54793,1.54793,0,0,1-.0957-3.08008Zm.61621,1.28027c0-.4668-.19727-.748-.59766-.748-.34766,0-.64648.25684-.70605.748Z" fill="#e6e6e6"/>
      <path d="M159.81738,89.97461h.56836l.04785.39551h.02441a1.35974,1.35974,0,0,1,.96289-.4668c.62793,0,.90234.4248.90234,1.166v1.84277h-.6875V91.15918c0-.48437-.1377-.66406-.46094-.66406a.93331.93331,0,0,0-.66992.36523v2.05176h-.6875Z" fill="#e6e6e6"/>
      <path d="M163.26855,90.51953h-.418v-.51465l.4541-.03027.084-.80078h.57422v.80078H164.71v.54492h-.74707v1.39941c0,.34668.13184.51465.41211.51465a.8378.8378,0,0,0,.30566-.06641l.11914.50879a1.87388,1.87388,0,0,1-.59766.10742c-.68164,0-.93359-.43066-.93359-1.06445Z" fill="#e6e6e6"/>
      <path d="M166.42676,89.90332c.7959,0,1.21484.57422,1.21484,1.39355a1.441,1.441,0,0,1-.03027.32324h-1.86621a.84234.84234,0,0,0,.86719.83105,1.22935,1.22935,0,0,0,.68164-.21484l.2334.43066a1.85684,1.85684,0,0,1-1.00488.31641,1.54793,1.54793,0,0,1-.0957-3.08008Zm.61621,1.28027c0-.4668-.19727-.748-.59766-.748-.34668,0-.64648.25684-.70605.748Z" fill="#e6e6e6"/>
      <path d="M168.2998,89.97461h.56836l.04785.52051h.02441a.99571.99571,0,0,1,.83105-.5918.74564.74564,0,0,1,.335.05957l-.12012.59863a.94529.94529,0,0,0-.30469-.04785c-.2334,0-.51465.16113-.69434.60352v1.79492h-.6875Z" fill="#e6e6e6"/>
    </g>
    <g>
      <path d="M199.61914,88.92773a1.58856,1.58856,0,0,1,1.166.49707l-.38281.43066a1.01988,1.01988,0,0,0-.77734-.32324c-.69434,0-1.16016.53809-1.16016,1.418,0,.89063.41895,1.42969,1.20215,1.42969a.86385.86385,0,0,0,.55664-.17383V91.3623h-.73633v-.56836h1.35742V92.5166a1.88824,1.88824,0,0,1-1.26172.4668,1.80656,1.80656,0,0,1-1.83008-2.01562A1.85639,1.85639,0,0,1,199.61914,88.92773Z" fill="#e6e6e6"/>
      <path d="M203.24414,91.0332c-.00684-.31055-.1377-.57422-.53223-.57422a1.63791,1.63791,0,0,0-.82617.28711l-.251-.46a2.27784,2.27784,0,0,1,1.20215-.38281c.73633,0,1.09473.44824,1.09473,1.26758v1.74121h-.5625l-.05371-.32324h-.01758a1.42924,1.42924,0,0,1-.90918.39453.82611.82611,0,0,1-.874-.86133C201.51465,91.49414,202.042,91.165,203.24414,91.0332Zm-.64062,1.41211a.92583.92583,0,0,0,.64063-.32324v-.6582c-.7959.10254-1.05957.31152-1.05957.60449C202.18457,92.332,202.3584,92.44531,202.60352,92.44531Z" fill="#e6e6e6"/>
      <path d="M205.458,93.15137v.9209h-.68848V89.97461h.56836l.04785.31152h.02344a1.4314,1.4314,0,0,1,.88574-.38281c.72949,0,1.1543.58594,1.1543,1.49512,0,1.00488-.60449,1.585-1.25586,1.585a1.1858,1.1858,0,0,1-.75391-.32324Zm.5918-.73633c.38867,0,.6875-.34668.6875-1.01074,0-.58594-.19141-.93262-.63379-.93262a.93373.93373,0,0,0-.64551.3291v1.36914A.92474.92474,0,0,0,206.0498,92.415Z" fill="#e6e6e6"/>
    </g>
    <g>
      <path d="M241.57715,89h.75977l.70605,1.92578.25684.74219h.02441l.25684-.74219L244.26855,89h.76563v3.91211h-.65137V91.123c0-.36426.05371-.88477.08984-1.24414h-.02441l-.31641.8916-.67578,1.77637h-.31738l-.67578-1.77637-.31152-.8916h-.02344c.0293.35938.084.87988.084,1.24414v1.78906h-.63477Z" fill="#e6e6e6"/>
      <path d="M245.88379,89.07129a.42639.42639,0,1,1,.4248.38965A.39538.39538,0,0,1,245.88379,89.07129Zm.07813.90332h.6875v2.9375h-.6875Z" fill="#e6e6e6"/>
      <path d="M248.10938,91.38086l-.873-1.40625h.74121l.3291.55664c.084.16113.17969.335.26953.49609h.02441c.07129-.16113.15527-.335.22656-.49609l.28125-.55664h.71191l-.86719,1.4834.93262,1.4541h-.74121l-.35937-.58008c-.0957-.17383-.19727-.35352-.29883-.52051h-.02344c-.084.167-.17383.34082-.25781.52051l-.31055.58008h-.71777Z" fill="#e6e6e6"/>
    </g>
    <g>
      <path d="M31.28809,49.96777l-.84375-1.53125h-.5918v1.53125H29.1582V46.05566h1.31641c.81348,0,1.44141.28711,1.44141,1.16113a1.093,1.093,0,0,1-.78418,1.11816l.93359,1.63281Zm-1.43555-2.08105h.5498c.53809,0,.8252-.22754.8252-.66992,0-.44922-.28711-.60449-.8252-.60449h-.5498Z" fill="#e6e6e6"/>
      <path d="M34.21289,48.08984c-.00684-.31152-.1377-.57422-.53223-.57422a1.63791,1.63791,0,0,0-.82617.28711l-.251-.46094a2.27784,2.27784,0,0,1,1.20215-.38281c.73633,0,1.09473.44922,1.09473,1.26855v1.74023h-.5625l-.05371-.32324H34.2666a1.43038,1.43038,0,0,1-.90918.39551.82664.82664,0,0,1-.874-.86133C32.4834,48.55078,33.01074,48.22168,34.21289,48.08984ZM33.57227,49.501a.92439.92439,0,0,0,.64063-.32227v-.6582c-.7959.10156-1.05957.31055-1.05957.60449C33.15332,49.3877,33.32715,49.501,33.57227,49.501Z" fill="#e6e6e6"/>
      <path d="M35.83984,47.5752H35.4209v-.51465l.45508-.0293.084-.80176h.57422v.80176h.74707v.54395h-.74707v1.39941c0,.34766.13086.51465.41211.51465a.84177.84177,0,0,0,.30566-.06543l.11914.50781a1.8457,1.8457,0,0,1-.59766.1084c-.68262,0-.93359-.43066-.93359-1.06543Z" fill="#e6e6e6"/>
      <path d="M38.998,46.959c.7959,0,1.21484.57422,1.21484,1.39355a1.49448,1.49448,0,0,1-.03027.32324H38.31641a.84317.84317,0,0,0,.86719.832,1.23063,1.23063,0,0,0,.68262-.21582l.23242.43066a1.85213,1.85213,0,0,1-1.00488.31738A1.54847,1.54847,0,0,1,38.998,46.959Zm.61621,1.28027c0-.4668-.19727-.748-.59766-.748-.34766,0-.64648.25781-.70605.748Z" fill="#e6e6e6"/>
    </g>
    <g>
      <path d="M73.22656,46.05566h2.35059v.58691H73.9209v.999h1.40527v.58594H73.9209v1.1543h1.7168v.58594H73.22656Z" fill="#e6e6e6"/>
      <path d="M76.36719,47.03125h.56836l.04785.39453h.02344a1.36752,1.36752,0,0,1,.96387-.4668c.62793,0,.90332.4248.90332,1.167v1.8418h-.68848v-1.752c0-.48535-.1377-.66406-.46-.66406a.9284.9284,0,0,0-.66992.36426v2.05176h-.68848Z" fill="#e6e6e6"/>
      <path d="M79.35254,47.03125h.69922l.4668,1.52539c.07813.28711.167.58594.24512.88477h.02441c.083-.29883.167-.59766.251-.88477l.46582-1.52539h.66406l-.998,2.93652H80.375Z" fill="#e6e6e6"/>
    </g>
    <g>
      <path d="M107.23926,46.64258H106.1084v-.58691h2.94922v.58691h-1.125v3.3252h-.69336Z" fill="#e6e6e6"/>
      <path d="M109.56543,46.12793a.42648.42648,0,1,1,.4248.38867A.39482.39482,0,0,1,109.56543,46.12793Zm.07813.90332h.6875v2.93652h-.6875Z" fill="#e6e6e6"/>
      <path d="M111.21094,47.03125h.56836l.04785.40039h.02344a1.2466,1.2466,0,0,1,.89746-.47266.79874.79874,0,0,1,.81348.52637,1.33494,1.33494,0,0,1,.94531-.52637c.62207,0,.90918.4248.90918,1.167v1.8418h-.69434v-1.752c0-.48535-.14258-.66406-.44824-.66406a.91262.91262,0,0,0-.61621.36426v2.05176h-.6875v-1.752c0-.48535-.14355-.66406-.45508-.66406a.92282.92282,0,0,0-.61523.36426v2.05176h-.68848Z" fill="#e6e6e6"/>
      <path d="M117.41309,46.959c.7959,0,1.21484.57422,1.21484,1.39355a1.43469,1.43469,0,0,1-.03027.32324h-1.86621a.84317.84317,0,0,0,.86719.832,1.2227,1.2227,0,0,0,.68164-.21582l.2334.43066a1.84952,1.84952,0,0,1-1.00488.31738,1.54847,1.54847,0,0,1-.0957-3.08105Zm.61621,1.28027c0-.4668-.19727-.748-.59766-.748-.34668,0-.64648.25781-.70605.748Z" fill="#e6e6e6"/>
      <path d="M120.56543,46.05566h.75977l.70605,1.92676.25684.74121h.02441l.25684-.74121.6875-1.92676h.76563v3.91211h-.65137V48.17969c0-.36523.05371-.88574.08984-1.24414h-.02441l-.31641.89063-.67578,1.77734H122.127l-.67578-1.77734-.31152-.89062h-.02344c.0293.3584.084.87891.084,1.24414v1.78809h-.63477Z" fill="#e6e6e6"/>
      <path d="M126.15234,46.959a1.54828,1.54828,0,1,1-1.39355,1.54395A1.42159,1.42159,0,0,1,126.15234,46.959Zm0,2.51855c.43066,0,.69434-.38867.69434-.97461,0-.59277-.26367-.98145-.69434-.98145s-.6875.38867-.6875.98145C125.46484,49.08887,125.72168,49.47754,126.15234,49.47754Z" fill="#e6e6e6"/>
      <path d="M129.29883,46.959a1.08751,1.08751,0,0,1,.77246.32324l-.02441-.47266V45.74512h.6875v4.22266H130.167l-.04883-.31641h-.02344a1.22523,1.22523,0,0,1-.83105.38867c-.73633,0-1.209-.56836-1.209-1.53711A1.38479,1.38479,0,0,1,129.29883,46.959Zm.13184,2.5127a.792.792,0,0,0,.61621-.3291V47.77246a.878.878,0,0,0-.59863-.24512c-.376,0-.68164.35352-.68164.96875C128.7666,49.13086,129.00586,49.47168,129.43066,49.47168Z" fill="#e6e6e6"/>
    </g>
    <g>
      <path d="M154.23145,48.90918h-1.30957l-.30566,1.05859h-.71094l1.2793-3.91211h.81348l1.27441,3.91211h-.73633Zm-.15527-.54395-.1377-.47852c-.11914-.41309-.23926-.86133-.35254-1.292h-.02441c-.10742.43652-.2207.87891-.34668,1.292l-.1377.47852Z" fill="#e6e6e6"/>
      <path d="M155.73828,46.05566h1.31641c.85547,0,1.4834.2998,1.4834,1.209,0,.86719-.64648,1.26758-1.4834,1.26758h-.62207v1.43555h-.69434Zm1.25684,1.9209c.58594,0,.86133-.2334.86133-.71191,0-.49121-.29395-.65234-.86133-.65234h-.5625v1.36426Z" fill="#e6e6e6"/>
      <path d="M160.48242,46.05566h.75977l.70605,1.92676.25684.74121h.02441l.25684-.74121.68848-1.92676h.76563v3.91211h-.65234V48.17969c0-.36523.05371-.88574.08984-1.24414h-.02441l-.31641.89063-.67676,1.77734h-.31641l-.67578-1.77734-.31152-.89062h-.02344c.0293.3584.083.87891.083,1.24414v1.78809h-.63379Z" fill="#e6e6e6"/>
      <path d="M166.06836,46.959a1.54828,1.54828,0,1,1-1.39355,1.54395A1.42159,1.42159,0,0,1,166.06836,46.959Zm0,2.51855c.43066,0,.69434-.38867.69434-.97461,0-.59277-.26367-.98145-.69434-.98145s-.6875.38867-.6875.98145C165.38086,49.08887,165.6377,49.47754,166.06836,49.47754Z" fill="#e6e6e6"/>
      <path d="M169.21484,46.959a1.08751,1.08751,0,0,1,.77246.32324l-.02441-.47266V45.74512h.6875v4.22266H170.083l-.04883-.31641h-.02344a1.22523,1.22523,0,0,1-.83105.38867c-.73633,0-1.209-.56836-1.209-1.53711A1.38479,1.38479,0,0,1,169.21484,46.959Zm.13184,2.5127a.792.792,0,0,0,.61621-.3291V47.77246a.878.878,0,0,0-.59863-.24512c-.376,0-.68164.35352-.68164.96875C168.68262,49.13086,168.92188,49.47168,169.34668,49.47168Z" fill="#e6e6e6"/>
    </g>
    <g>
      <path d="M193.64648,46.05566h2.36328v.58691h-1.66895V47.749h1.417V48.335h-1.417v1.63281h-.69434Z" fill="#e6e6e6"/>
      <path d="M197.68359,46.959c.7959,0,1.21484.57422,1.21484,1.39355a1.49449,1.49449,0,0,1-.03027.32324H197.002a.84317.84317,0,0,0,.86719.832,1.23063,1.23063,0,0,0,.68262-.21582l.23242.43066a1.85213,1.85213,0,0,1-1.00488.31738,1.54847,1.54847,0,0,1-.0957-3.08105Zm.61621,1.28027c0-.4668-.19727-.748-.59766-.748-.34766,0-.64648.25781-.70605.748Z" fill="#e6e6e6"/>
      <path d="M200.7168,46.959c.7959,0,1.21484.57422,1.21484,1.39355a1.49449,1.49449,0,0,1-.03027.32324h-1.86621a.84317.84317,0,0,0,.86719.832,1.23063,1.23063,0,0,0,.68262-.21582l.23242.43066a1.85213,1.85213,0,0,1-1.00488.31738,1.54847,1.54847,0,0,1-.0957-3.08105Zm.61621,1.28027c0-.4668-.19727-.748-.59766-.748-.34766,0-.64648.25781-.70605.748Z" fill="#e6e6e6"/>
      <path d="M203.65332,46.959a1.0835,1.0835,0,0,1,.77148.32324l-.02344-.47266V45.74512h.6875v4.22266h-.56836l-.04687-.31641h-.02441a1.22721,1.22721,0,0,1-.83105.38867c-.73633,0-1.209-.56836-1.209-1.53711A1.38479,1.38479,0,0,1,203.65332,46.959Zm.13184,2.5127a.792.792,0,0,0,.61621-.3291V47.77246a.87754.87754,0,0,0-.59766-.24512c-.377,0-.68262.35352-.68262.96875C203.12109,49.13086,203.36035,49.47168,203.78516,49.47168Z" fill="#e6e6e6"/>
      <path d="M205.96289,45.74512h.68848V46.834l-.01855.49023a1.339,1.339,0,0,1,.84961-.36523c.73535,0,1.16016.58691,1.16016,1.48926,0,1.01172-.60449,1.5918-1.25586,1.5918a1.18216,1.18216,0,0,1-.80176-.37109h-.01758l-.06055.29883h-.54395Zm1.28027,3.72656c.38867,0,.6875-.34668.6875-1.01074,0-.58691-.19141-.93359-.63379-.93359a.93373.93373,0,0,0-.64551.3291v1.37012A.91847.91847,0,0,0,207.24316,49.47168Z" fill="#e6e6e6"/>
      <path d="M209.33594,45.74512h.67578v2.6377h.01855l1.08789-1.35156h.75391l-1.00488,1.19629,1.10645,1.74023h-.74707l-.75391-1.27344-.46094.52637v.74707h-.67578Z" fill="#e6e6e6"/>
    </g>
    <g>
      <path d="M241.57715,46.05566h.75977l.70605,1.92676.25684.74121h.02441l.25684-.74121.6875-1.92676h.76563v3.91211h-.65137V48.17969c0-.36523.05371-.88574.08984-1.24414h-.02441l-.31641.89063-.67578,1.77734h-.31738l-.67578-1.77734-.31152-.89062h-.02344c.0293.3584.084.87891.084,1.24414v1.78809h-.63477Z" fill="#e6e6e6"/>
      <path d="M245.88379,46.12793a.42648.42648,0,1,1,.4248.38867A.39482.39482,0,0,1,245.88379,46.12793Zm.07813.90332h.6875v2.93652h-.6875Z" fill="#e6e6e6"/>
      <path d="M248.10938,48.43652l-.873-1.40527h.74121l.3291.55566c.084.16211.17969.335.26953.49707h.02441c.07129-.16211.15527-.335.22656-.49707l.28125-.55566h.71191l-.86719,1.4834.93262,1.45313h-.74121l-.35937-.58008c-.0957-.17383-.19727-.35254-.29883-.52051h-.02344c-.084.168-.17383.34082-.25781.52051l-.31055.58008h-.71777Z" fill="#e6e6e6"/>
    </g>
    <g>
      <path d="M194.47461,193.55957h.73633l.5498,1.96777c.126.44238.21.8252.34082,1.27344h.02441c.13184-.44824.2207-.83105.34668-1.27344l.54395-1.96777h.70605l-1.208,3.91113h-.8252Z" fill="#e6e6e6"/>
      <path d="M199.23047,194.46191a1.54828,1.54828,0,1,1-1.39355,1.54395A1.42159,1.42159,0,0,1,199.23047,194.46191Zm0,2.51855c.43066,0,.69434-.38867.69434-.97461,0-.59277-.26367-.98145-.69434-.98145s-.6875.38867-.6875.98145C198.543,196.5918,198.7998,196.98047,199.23047,196.98047Z" fill="#e6e6e6"/>
      <path d="M201.2334,193.63086a.42648.42648,0,1,1,.4248.38867A.39482.39482,0,0,1,201.2334,193.63086Zm.07813.90332h.6875v2.93652h-.6875Z" fill="#e6e6e6"/>
      <path d="M204.15918,194.46191a1.21139,1.21139,0,0,1,.86133.3418l-.3291.43652a.73209.73209,0,0,0-.49609-.21582c-.47266,0-.80176.38867-.80176.98145,0,.58594.32324.97461.7832.97461a.96914.96914,0,0,0,.60449-.251l.28711.43652a1.47193,1.47193,0,0,1-.96289.377,1.39752,1.39752,0,0,1-1.418-1.53711A1.44931,1.44931,0,0,1,204.15918,194.46191Z" fill="#e6e6e6"/>
      <path d="M206.65918,194.46191c.7959,0,1.21484.57422,1.21484,1.39453a1.43127,1.43127,0,0,1-.03027.32227h-1.86621a.84317.84317,0,0,0,.86719.832,1.2227,1.2227,0,0,0,.68164-.21582l.2334.43066a1.84952,1.84952,0,0,1-1.00488.31738,1.54847,1.54847,0,0,1-.0957-3.08105Zm.61621,1.28027c0-.4668-.19727-.74707-.59766-.74707-.34668,0-.64648.25684-.70605.74707Z" fill="#e6e6e6"/>
      <path d="M208.56152,196.69336a1.30574,1.30574,0,0,0,.81348.3291c.31641,0,.46582-.14941.46582-.35254,0-.24609-.31641-.35352-.62793-.47266-.38867-.14355-.8252-.36523-.8252-.85547,0-.51465.41309-.87988,1.07031-.87988a1.58581,1.58581,0,0,1,.97559.35352l-.31738.41895a1.08673,1.08673,0,0,0-.64551-.252c-.293,0-.43066.1377-.43066.32324,0,.22754.293.32324.60938.43652.40137.14941.84375.34082.84375.8916,0,.502-.40039.90918-1.14258.90918a1.85984,1.85984,0,0,1-1.1123-.40723Z" fill="#e6e6e6"/>
    </g>
    <g>
      <path d="M235.80176,193.55957h.73633l.5498,1.96777c.126.44238.21.8252.34082,1.27344h.02441c.13184-.44824.22168-.83105.34668-1.27344l.54492-1.96777h.70508l-1.208,3.91113h-.8252Z" fill="#e6e6e6"/>
      <path d="M240.55762,194.46191a1.54828,1.54828,0,1,1-1.39355,1.54395A1.4223,1.4223,0,0,1,240.55762,194.46191Zm0,2.51855c.43066,0,.69434-.38867.69434-.97461,0-.59277-.26367-.98145-.69434-.98145s-.6875.38867-.6875.98145C239.87012,196.5918,240.127,196.98047,240.55762,196.98047Z" fill="#e6e6e6"/>
      <path d="M242.63867,193.248h.68848v3.50488c0,.168.07715.22754.14941.22754a.42059.42059,0,0,0,.10742-.01172l.08984.51465a.95826.95826,0,0,1-.36523.05957c-.49023,0-.66992-.31738-.66992-.8252Z" fill="#e6e6e6"/>
      <path d="M244.22949,194.53418h.68848v1.75293c0,.48438.1377.66309.4541.66309.25781,0,.43066-.11914.65234-.40625v-2.00977h.6875v2.93652h-.56152l-.05371-.43066h-.01855a1.19481,1.19481,0,0,1-.94531.50293c-.62793,0-.90332-.4248-.90332-1.167Z" fill="#e6e6e6"/>
      <path d="M247.58594,194.53418h.56836l.04785.40039h.02344a1.2466,1.2466,0,0,1,.89746-.47266.79991.79991,0,0,1,.81348.52637,1.33494,1.33494,0,0,1,.94531-.52637c.62207,0,.90918.4248.90918,1.167v1.8418h-.69434v-1.752c0-.48437-.14258-.66406-.44824-.66406a.91262.91262,0,0,0-.61621.36426v2.05176h-.6875v-1.752c0-.48437-.14355-.66406-.45508-.66406a.92282.92282,0,0,0-.61523.36426v2.05176h-.68848Z" fill="#e6e6e6"/>
      <path d="M253.78809,194.46191c.7959,0,1.21484.57422,1.21484,1.39453a1.43127,1.43127,0,0,1-.03027.32227h-1.86621a.84317.84317,0,0,0,.86719.832,1.2227,1.2227,0,0,0,.68164-.21582l.2334.43066a1.84952,1.84952,0,0,1-1.00488.31738,1.54847,1.54847,0,0,1-.0957-3.08105Zm.61621,1.28027c0-.4668-.19727-.74707-.59766-.74707-.34668,0-.64648.25684-.70605.74707Z" fill="#e6e6e6"/>
    </g>
    <g>
      <path d="M29.38574,151.20313H28.25488v-.58594H31.2041v.58594h-1.125v3.3252h-.69336Z" fill="#e6e6e6"/>
      <path d="M31.71191,150.68848a.42648.42648,0,1,1,.4248.38867A.39482.39482,0,0,1,31.71191,150.68848Zm.07813.90332h.6875v2.93652H31.79Z" fill="#e6e6e6"/>
      <path d="M33.35742,151.5918h.56836l.04785.40039h.02344a1.2466,1.2466,0,0,1,.89746-.47266.79991.79991,0,0,1,.81348.52637,1.33494,1.33494,0,0,1,.94531-.52637c.62207,0,.90918.4248.90918,1.167v1.8418h-.69434v-1.752c0-.48437-.14258-.66406-.44824-.66406a.91262.91262,0,0,0-.61621.36426v2.05176h-.6875v-1.752c0-.48437-.14355-.66406-.45508-.66406a.92282.92282,0,0,0-.61523.36426v2.05176h-.68848Z" fill="#e6e6e6"/>
      <path d="M39.55957,151.51953c.7959,0,1.21484.57422,1.21484,1.39453a1.43127,1.43127,0,0,1-.03027.32227H38.87793a.84317.84317,0,0,0,.86719.832,1.2227,1.2227,0,0,0,.68164-.21582l.2334.43066a1.84952,1.84952,0,0,1-1.00488.31738,1.54847,1.54847,0,0,1-.0957-3.08105Zm.61621,1.28027c0-.4668-.19727-.74707-.59766-.74707-.34668,0-.64648.25684-.70605.74707Z" fill="#e6e6e6"/>
    </g>
    <g>
      <path d="M65.63574,150.61719H67.999v.58594H66.33008v1.10645h1.417v.58594h-1.417v1.63281h-.69434Z" fill="#e6e6e6"/>
      <path d="M69.67285,151.51953c.7959,0,1.21484.57422,1.21484,1.39453a1.43127,1.43127,0,0,1-.03027.32227H68.99121a.84317.84317,0,0,0,.86719.832,1.2227,1.2227,0,0,0,.68164-.21582l.2334.43066a1.84952,1.84952,0,0,1-1.00488.31738,1.54847,1.54847,0,0,1-.0957-3.08105Zm.61621,1.28027c0-.4668-.19727-.74707-.59766-.74707-.34668,0-.64648.25684-.70605.74707Z" fill="#e6e6e6"/>
      <path d="M72.70605,151.51953c.7959,0,1.21484.57422,1.21484,1.39453a1.43127,1.43127,0,0,1-.03027.32227H72.02441a.84317.84317,0,0,0,.86719.832,1.2227,1.2227,0,0,0,.68164-.21582l.2334.43066a1.84952,1.84952,0,0,1-1.00488.31738,1.54847,1.54847,0,0,1-.0957-3.08105Zm.61621,1.28027c0-.4668-.19727-.74707-.59766-.74707-.34668,0-.64648.25684-.70605.74707Z" fill="#e6e6e6"/>
      <path d="M75.64258,151.51953a1.08751,1.08751,0,0,1,.77246.32324l-.02441-.47266v-1.06445h.6875v4.22266h-.56738l-.04883-.31641h-.02344a1.22523,1.22523,0,0,1-.83105.38867c-.73633,0-1.209-.56836-1.209-1.53711A1.38479,1.38479,0,0,1,75.64258,151.51953Zm.13184,2.5127a.792.792,0,0,0,.61621-.3291V152.333a.878.878,0,0,0-.59863-.24512c-.376,0-.68164.35352-.68164.96973C75.11035,153.69141,75.34961,154.03223,75.77441,154.03223Z" fill="#e6e6e6"/>
      <path d="M77.95215,150.30566h.6875v1.08887l-.01758.49023a1.34413,1.34413,0,0,1,.84961-.36523c.73535,0,1.16016.58691,1.16016,1.49023,0,1.01074-.60352,1.59082-1.25586,1.59082a1.18216,1.18216,0,0,1-.80176-.37109h-.01758l-.05957.29883h-.54492Zm1.28027,3.72656c.38867,0,.6875-.34668.6875-1.01074,0-.58594-.19141-.93359-.63379-.93359a.9433.9433,0,0,0-.64648.3291v1.37012A.9174.9174,0,0,0,79.23242,154.03223Z" fill="#e6e6e6"/>
      <path d="M82.85742,152.65039c-.00684-.31055-.1377-.57422-.53223-.57422a1.63791,1.63791,0,0,0-.82617.28711l-.251-.46094a2.27784,2.27784,0,0,1,1.20215-.38281c.73633,0,1.09473.44922,1.09473,1.26855v1.74023h-.5625l-.05371-.32227h-.01758a1.43434,1.43434,0,0,1-.90918.39453.82611.82611,0,0,1-.874-.86133C81.12793,153.11133,81.65527,152.78223,82.85742,152.65039Zm-.64062,1.41211a.92583.92583,0,0,0,.64063-.32324v-.6582c-.7959.10156-1.05957.31152-1.05957.60449C81.79785,153.94824,81.97168,154.0625,82.2168,154.0625Z" fill="#e6e6e6"/>
      <path d="M85.66211,151.51953a1.21139,1.21139,0,0,1,.86133.3418l-.3291.43652a.73024.73024,0,0,0-.49609-.21582c-.47266,0-.80176.38867-.80176.98145,0,.58594.32324.97461.7832.97461a.97144.97144,0,0,0,.60449-.251l.28711.43652a1.47193,1.47193,0,0,1-.96289.377,1.39752,1.39752,0,0,1-1.418-1.53711A1.44878,1.44878,0,0,1,85.66211,151.51953Z" fill="#e6e6e6"/>
      <path d="M87.14551,150.30566h.67578v2.6377h.01855l1.08789-1.35156h.75391l-1.00488,1.19629,1.10645,1.74023h-.74707l-.75391-1.27344-.46094.52637v.74707h-.67578Z" fill="#e6e6e6"/>
    </g>
    <g>
      <path d="M114.61426,150.61719h.75977l.70605,1.92578.25684.74121h.02441l.25684-.74121.6875-1.92578h.76563v3.91113h-.65137v-1.78809c0-.36523.05371-.88574.08984-1.24414h-.02441l-.31641.8916-.67578,1.77637h-.31738L115.5,152.3877l-.31152-.8916H115.165c.0293.3584.084.87891.084,1.24414v1.78809h-.63477Z" fill="#e6e6e6"/>
      <path d="M118.9209,150.68848a.42648.42648,0,1,1,.4248.38867A.39482.39482,0,0,1,118.9209,150.68848Zm.07813.90332h.6875v2.93652h-.6875Z" fill="#e6e6e6"/>
      <path d="M121.14648,152.99707l-.873-1.40527h.74121l.3291.55664c.084.16113.17969.335.26953.49609h.02441c.07129-.16113.15527-.335.22656-.49609l.28125-.55664h.71191l-.86719,1.4834.93262,1.45313h-.74121l-.35937-.58008c-.0957-.17285-.19727-.35254-.29883-.52051H121.5c-.084.168-.17383.34082-.25781.52051l-.31055.58008h-.71777Z" fill="#e6e6e6"/>
    </g>
    <g>
      <path d="M156.91406,153.55371a1.56045,1.56045,0,0,0,1.02246.44238c.4375,0,.68262-.19727.68262-.502,0-.32324-.252-.4248-.61035-.57422l-.53223-.2334a1.12127,1.12127,0,0,1-.79-1.041,1.18818,1.18818,0,0,1,1.31055-1.10059,1.73315,1.73315,0,0,1,1.208.49609l-.35937.44336a1.25818,1.25818,0,0,0-.84863-.335c-.37109,0-.61035.17285-.61035.46,0,.30566.29883.41895.62207.55078l.52637.2207a1.08859,1.08859,0,0,1,.78906,1.05957,1.24328,1.24328,0,0,1-1.40527,1.16016,2.01267,2.01267,0,0,1-1.40527-.57422Z" fill="#e6e6e6"/>
      <path d="M159.89355,150.68848a.426.426,0,1,1,.42383.38867A.394.394,0,0,1,159.89355,150.68848Zm.07715.90332h.68848v2.93652h-.68848Z" fill="#e6e6e6"/>
      <path d="M161.30469,154.1582l1.3877-2.02246H161.46v-.54395h2.09375v.36523l-1.38184,2.02148h1.42969v.5498h-2.29687Z" fill="#e6e6e6"/>
      <path d="M165.28809,151.51953c.7959,0,1.21484.57422,1.21484,1.39453a1.43127,1.43127,0,0,1-.03027.32227h-1.86621a.84317.84317,0,0,0,.86719.832,1.2227,1.2227,0,0,0,.68164-.21582l.2334.43066a1.84952,1.84952,0,0,1-1.00488.31738,1.54847,1.54847,0,0,1-.0957-3.08105Zm.61621,1.28027c0-.4668-.19727-.74707-.59766-.74707-.34668,0-.64648.25684-.70605.74707Z" fill="#e6e6e6"/>
    </g>
    <g>
      <path d="M197.75293,150.54492a1.533,1.533,0,0,1,1.1123.49609l-.38281.43066a.99555.99555,0,0,0-.72363-.32227c-.64062,0-1.10059.53809-1.10059,1.417,0,.8916.4248,1.42969,1.07617,1.42969a1.05851,1.05851,0,0,0,.8252-.38867l.38281.4248a1.55947,1.55947,0,0,1-1.21973.56836,1.79358,1.79358,0,0,1-1.77637-2.01562A1.83944,1.83944,0,0,1,197.75293,150.54492Z" fill="#e6e6e6"/>
      <path d="M200.73145,151.51953a1.54828,1.54828,0,1,1-1.39355,1.54395A1.4223,1.4223,0,0,1,200.73145,151.51953Zm0,2.51855c.43066,0,.69434-.38867.69434-.97461,0-.59277-.26367-.98145-.69434-.98145s-.6875.38867-.6875.98145C200.04395,153.64941,200.30078,154.03809,200.73145,154.03809Z" fill="#e6e6e6"/>
      <path d="M202.8125,150.30566h.68848v3.50488c0,.168.07715.22754.14941.22754a.42059.42059,0,0,0,.10742-.01172l.08984.51465a.95826.95826,0,0,1-.36523.05957c-.49023,0-.66992-.31738-.66992-.8252Z" fill="#e6e6e6"/>
      <path d="M205.63574,151.51953a1.54828,1.54828,0,1,1-1.39355,1.54395A1.4223,1.4223,0,0,1,205.63574,151.51953Zm0,2.51855c.43066,0,.69434-.38867.69434-.97461,0-.59277-.26367-.98145-.69434-.98145s-.6875.38867-.6875.98145C204.94824,153.64941,205.20508,154.03809,205.63574,154.03809Z" fill="#e6e6e6"/>
      <path d="M207.71777,151.5918h.56836l.04785.52051h.02441a.997.997,0,0,1,.83105-.59277.74442.74442,0,0,1,.335.06055l-.12012.59766a.97275.97275,0,0,0-.30469-.04785c-.2334,0-.51465.16211-.69434.60449v1.79395h-.6875Z" fill="#e6e6e6"/>
    </g>
    <g>
      <path d="M241.57715,150.61719h.75977l.70605,1.92578.25684.74121h.02441l.25684-.74121.6875-1.92578h.76563v3.91113h-.65137v-1.78809c0-.36523.05371-.88574.08984-1.24414h-.02441l-.31641.8916-.67578,1.77637h-.31738l-.67578-1.77637-.31152-.8916h-.02344c.0293.3584.084.87891.084,1.24414v1.78809h-.63477Z" fill="#e6e6e6"/>
      <path d="M245.88379,150.68848a.42648.42648,0,1,1,.4248.38867A.39482.39482,0,0,1,245.88379,150.68848Zm.07813.90332h.6875v2.93652h-.6875Z" fill="#e6e6e6"/>
      <path d="M248.10938,152.99707l-.873-1.40527h.74121l.3291.55664c.084.16113.17969.335.26953.49609h.02441c.07129-.16113.15527-.335.22656-.49609l.28125-.55664h.71191l-.86719,1.4834.93262,1.45313h-.74121l-.35937-.58008c-.0957-.17285-.19727-.35254-.29883-.52051h-.02344c-.084.168-.17383.34082-.25781.52051l-.31055.58008h-.71777Z" fill="#e6e6e6"/>
    </g>
    <path d="M30.875,194.60449a3.78956,3.78956,0,1,1,3.79883,3.79883A3.7929,3.7929,0,0,1,30.875,194.60449Zm1.91992,2.08789h.81348l.3418-1.17285H35.373l.335,1.17285h.84375l-1.418-4.35449h-.9209Zm1.48926-2.30859c.13184-.44922.25781-.93945.377-1.41211.126.4668.252.96289.38281,1.41211l.14355.502H34.13477Z" fill="#e6e6e6"/>
    <path d="M73.69824,194.60449a3.78956,3.78956,0,1,1,3.79883,3.79883A3.7929,3.7929,0,0,1,73.69824,194.60449Zm2.52441,2.23145H77.6582c1.00488,0,1.59668-.45508,1.59668-1.2207a1.008,1.008,0,0,1-.21484-1.88965c0-.68164-.50293-1.0293-1.4834-1.0293h-1.334Zm.76563-2.44629v-1.09473h.51465c.55566,0,.78906.16113.78906.53809,0,.36523-.27539.55664-.80078.55664Zm0,1.84766v-1.26758h.59863c.62793,0,.9209.19727.9209.60449,0,.43652-.31152.66309-.9209.66309Z" fill="#e6e6e6"/>
    <path d="M114.77539,194.60449a3.78956,3.78956,0,1,1,3.79883,3.79883A3.7929,3.7929,0,0,1,114.77539,194.60449Zm5.2041,1.63965-.41895-.48535a1.13273,1.13273,0,0,1-.87891.43066c-.68164,0-1.1123-.56738-1.1123-1.4834,0-.89062.4541-1.4707,1.13574-1.4707a1.05876,1.05876,0,0,1,.77832.36426l.41211-.49609a1.65409,1.65409,0,0,0-1.21387-.53809,1.95013,1.95013,0,0,0-1.89648,2.15918,1.90224,1.90224,0,0,0,1.87207,2.13477A1.69647,1.69647,0,0,0,119.97949,196.24414Z" fill="#e6e6e6"/>
    <path d="M157.71777,194.60449a3.78956,3.78956,0,1,1,3.79883,3.79883A3.7929,3.7929,0,0,1,157.71777,194.60449Zm2.57227,2.18359h1.1543a2.07135,2.07135,0,0,0-.042-4.13965H160.29Zm.75977-.62207v-2.89551h.30469c.85547,0,1.28027.47266,1.28027,1.42969,0,.97559-.43652,1.46582-1.28027,1.46582Z" fill="#e6e6e6"/>
  </g>
  <g id="Modul_Header" data-name="Modul Header">
    <path d="M7.53494,57.88087H132.49943a1,1,0,0,1,1,1v8.33562a0,0,0,0,1,0,0H6.53494a0,0,0,0,1,0,0V58.88087A1,1,0,0,1,7.53494,57.88087Z" fill="#282828"/>
    <path d="M138.23368,57.88087H263.19817a1,1,0,0,1,1,1v8.33562a0,0,0,0,1,0,0H137.23368a0,0,0,0,1,0,0V58.88087A1,1,0,0,1,138.23368,57.88087Z" fill="#282828"/>
    <path d="M7.53494,14.937H263.19817a1,1,0,0,1,1,1v8.33562a0,0,0,0,1,0,0H6.53494a0,0,0,0,1,0,0V15.937A1,1,0,0,1,7.53494,14.937Z" fill="#282828"/>
    <path d="M7.53494,162.43986H175.4433a1,1,0,0,1,1,1v8.33562a0,0,0,0,1,0,0H6.53494a0,0,0,0,1,0,0v-8.33562A1,1,0,0,1,7.53494,162.43986Z" fill="#282828"/>
    <path d="M181.17755,162.43986h38.14318a1,1,0,0,1,1,1v8.33562a0,0,0,0,1,0,0H180.17755a0,0,0,0,1,0,0v-8.33562A1,1,0,0,1,181.17755,162.43986Z" fill="#282828"/>
    <path d="M225.055,162.43986h38.14318a1,1,0,0,1,1,1v8.33562a0,0,0,0,1,0,0H224.055a0,0,0,0,1,0,0v-8.33562A1,1,0,0,1,225.055,162.43986Z" fill="#282828"/>
    <path d="M7.53494,119.496H132.49943a1,1,0,0,1,1,1v8.33562a0,0,0,0,1,0,0H6.53494a0,0,0,0,1,0,0V120.496A1,1,0,0,1,7.53494,119.496Z" fill="#282828"/>
    <path d="M138.23368,119.496H263.19817a1,1,0,0,1,1,1v8.33562a0,0,0,0,1,0,0H137.23368a0,0,0,0,1,0,0V120.496A1,1,0,0,1,138.23368,119.496Z" fill="#282828"/>
  </g>
  <g id="Knöppe">
    <rect x="23.33906" y="73.75143" width="22.4055" height="9.33562" rx="0.5" ry="0.5" stroke="#252525" stroke-miterlimit="10" stroke-width="0.25" fill="url(#linear-gradient)"/>
    <rect x="66.28293" y="73.75143" width="22.4055" height="9.33562" rx="0.5" ry="0.5" stroke="#252525" stroke-miterlimit="10" stroke-width="0.25" fill="url(#linear-gradient-2)"/>
    <rect x="107.35968" y="73.75143" width="22.4055" height="9.33562" rx="0.5" ry="0.5" stroke="#252525" stroke-miterlimit="10" stroke-width="0.25" fill="url(#linear-gradient-3)"/>
    <rect x="150.30355" y="73.75143" width="22.4055" height="9.33562" rx="0.5" ry="0.5" stroke="#252525" stroke-miterlimit="10" stroke-width="0.25" fill="url(#linear-gradient-4)"/>
    <rect x="191.38667" y="73.75143" width="22.4055" height="9.33562" rx="0.5" ry="0.5" stroke="#252525" stroke-miterlimit="10" stroke-width="0.25" fill="url(#linear-gradient-5)"/>
    <rect x="234.32417" y="73.75143" width="22.4055" height="9.33562" rx="0.5" ry="0.5" stroke="#252525" stroke-miterlimit="10" stroke-width="0.25" fill="url(#linear-gradient-6)"/>
    <rect x="23.33906" y="30.80756" width="22.4055" height="9.33562" rx="0.5" ry="0.5" stroke="#252525" stroke-miterlimit="10" stroke-width="0.25" fill="url(#linear-gradient-7)"/>
    <rect x="66.28293" y="30.80756" width="22.4055" height="9.33562" rx="0.5" ry="0.5" stroke="#252525" stroke-miterlimit="10" stroke-width="0.25" fill="url(#linear-gradient-8)"/>
    <rect x="107.35968" y="30.80756" width="22.4055" height="9.33562" rx="0.5" ry="0.5" stroke="#252525" stroke-miterlimit="10" stroke-width="0.25" fill="url(#linear-gradient-9)"/>
    <rect x="150.30355" y="30.80756" width="22.4055" height="9.33562" rx="0.5" ry="0.5" stroke="#252525" stroke-miterlimit="10" stroke-width="0.25" fill="url(#linear-gradient-10)"/>
    <rect x="191.38667" y="30.80756" width="22.4055" height="9.33562" rx="0.5" ry="0.5" stroke="#252525" stroke-miterlimit="10" stroke-width="0.25" fill="url(#linear-gradient-11)"/>
    <rect x="234.32417" y="30.80756" width="22.4055" height="9.33562" rx="0.5" ry="0.5" stroke="#252525" stroke-miterlimit="10" stroke-width="0.25" fill="url(#linear-gradient-12)"/>
    <rect x="23.33906" y="178.31042" width="22.4055" height="9.33562" rx="0.5" ry="0.5" stroke="#252525" stroke-miterlimit="10" stroke-width="0.25" fill="url(#linear-gradient-13)"/>
    <rect x="66.28293" y="178.31042" width="22.4055" height="9.33562" rx="0.5" ry="0.5" stroke="#252525" stroke-miterlimit="10" stroke-width="0.25" fill="url(#linear-gradient-14)"/>
    <rect x="107.35968" y="178.31042" width="22.4055" height="9.33562" rx="0.5" ry="0.5" stroke="#252525" stroke-miterlimit="10" stroke-width="0.25" fill="url(#linear-gradient-15)"/>
    <rect x="150.30355" y="178.31042" width="22.4055" height="9.33562" rx="0.5" ry="0.5" stroke="#252525" stroke-miterlimit="10" stroke-width="0.25" fill="url(#linear-gradient-16)"/>
    <rect x="191.38667" y="178.31042" width="22.4055" height="9.33562" rx="0.5" ry="0.5" stroke="#252525" stroke-miterlimit="10" stroke-width="0.25" fill="url(#linear-gradient-17)"/>
    <rect x="234.32417" y="178.31042" width="22.4055" height="9.33562" rx="0.5" ry="0.5" stroke="#252525" stroke-miterlimit="10" stroke-width="0.25" fill="url(#linear-gradient-18)"/>
    <rect x="23.33906" y="135.36655" width="22.4055" height="9.33562" rx="0.5" ry="0.5" stroke="#252525" stroke-miterlimit="10" stroke-width="0.25" fill="url(#linear-gradient-19)"/>
    <rect x="66.28293" y="135.36655" width="22.4055" height="9.33562" rx="0.5" ry="0.5" stroke="#252525" stroke-miterlimit="10" stroke-width="0.25" fill="url(#linear-gradient-20)"/>
    <rect x="107.35968" y="135.36655" width="22.4055" height="9.33562" rx="0.5" ry="0.5" stroke="#252525" stroke-miterlimit="10" stroke-width="0.25" fill="url(#linear-gradient-21)"/>
    <rect x="150.30355" y="135.36655" width="22.4055" height="9.33562" rx="0.5" ry="0.5" stroke="#252525" stroke-miterlimit="10" stroke-width="0.25" fill="url(#linear-gradient-22)"/>
    <rect x="191.38667" y="135.36655" width="22.4055" height="9.33562" rx="0.5" ry="0.5" stroke="#252525" stroke-miterlimit="10" stroke-width="0.25" fill="url(#linear-gradient-23)"/>
    <rect x="234.32417" y="135.36655" width="22.4055" height="9.33562" rx="0.5" ry="0.5" stroke="#252525" stroke-miterlimit="10" stroke-width="0.25" fill="url(#linear-gradient-24)"/>
  </g>
  <g id="Modul_Head_Typo" data-name="Modul Head Typo">
    <g>
      <path d="M60.91895,60.92188a1.53,1.53,0,0,1,1.1123.49707l-.38281.43066a.99647.99647,0,0,0-.72363-.32324c-.64062,0-1.10059.53809-1.10059,1.418,0,.89063.4248,1.42969,1.07617,1.42969a1.05635,1.05635,0,0,0,.8252-.38965l.38281.4248a1.55947,1.55947,0,0,1-1.21973.56836,1.79358,1.79358,0,0,1-1.77637-2.01562A1.83944,1.83944,0,0,1,60.91895,60.92188Z" fill="#bfcaff"/>
      <path d="M64.56152,63.84766H63.252l-.30566,1.05859h-.71094l1.2793-3.91211h.81348l1.27441,3.91211h-.73633Zm-.15527-.54492-.1377-.47852c-.11914-.41211-.23926-.86133-.35254-1.292H63.8916c-.10742.43652-.2207.87988-.34668,1.292l-.1377.47852Z" fill="#bfcaff"/>
      <path d="M66.06836,60.99414h1.25c.80176,0,1.39355.24512,1.39355.96289a.84907.84907,0,0,1-.66992.84961v.02344a.90459.90459,0,0,1,.87988.92773c0,.7832-.63965,1.14844-1.501,1.14844H66.06836Zm1.18457,1.62109c.55078,0,.77734-.21.77734-.57422,0-.35937-.251-.50879-.75977-.50879H66.7627v1.083Zm.0957,1.752c.57422,0,.8916-.21484.8916-.65723,0-.40723-.31152-.59863-.8916-.59863H66.7627v1.25586Z" fill="#bfcaff"/>
      <path d="M69.62109,60.99414h.69434v3.91211h-.69434Z" fill="#bfcaff"/>
      <path d="M71.29,60.99414H72.002l1.21387,2.20117.40723.83105h.02441c-.03613-.40039-.08984-.89648-.08984-1.334V60.99414h.65723v3.91211h-.71191l-1.21387-2.20117-.40625-.832H71.8584c.03613.41309.08984.88574.08984,1.32227v1.71094H71.29Z" fill="#bfcaff"/>
      <path d="M75.19629,60.99414h2.35059v.58594H75.89063v.999H77.2959V63.165H75.89063v1.1543h1.7168v.58691H75.19629Z" fill="#bfcaff"/>
      <path d="M79.18066,61.58008H78.0498v-.58594H80.999v.58594H79.874v3.32617h-.69336Z" fill="#bfcaff"/>
    </g>
    <g>
      <path d="M188.50293,60.92188a1.58856,1.58856,0,0,1,1.166.49707l-.38281.43066a1.01988,1.01988,0,0,0-.77734-.32324c-.69336,0-1.16016.53809-1.16016,1.418,0,.89063.418,1.42969,1.20215,1.42969a.85914.85914,0,0,0,.55566-.17383v-.84375h-.73535v-.56836h1.3584v1.72266a1.89293,1.89293,0,0,1-1.2627.4668,1.80656,1.80656,0,0,1-1.83008-2.01562A1.85639,1.85639,0,0,1,188.50293,60.92188Z" fill="#bfcaff"/>
      <path d="M192.35449,63.84766h-1.30957l-.30566,1.05859h-.71094l1.2793-3.91211h.81348l1.27441,3.91211h-.73633Zm-.15527-.54492-.1377-.47852c-.11914-.41211-.23926-.86133-.35254-1.292h-.02441c-.10742.43652-.2207.87988-.34668,1.292l-.1377.47852Z" fill="#bfcaff"/>
      <path d="M193.8623,60.99414h1.31641c.85547,0,1.4834.29883,1.4834,1.208,0,.86719-.64648,1.26855-1.4834,1.26855h-.62207v1.43555h-.69434Zm1.25586,1.91992c.58691,0,.86133-.2334.86133-.71191,0-.49023-.293-.65137-.86133-.65137h-.56152v1.36328Z" fill="#bfcaff"/>
      <path d="M198.60547,60.99414h2.36328v.58594H199.2998v1.10645h1.417v.58691h-1.417v1.63281h-.69434Z" fill="#bfcaff"/>
      <path d="M201.63184,60.99414h.69434v3.91211h-.69434Z" fill="#bfcaff"/>
      <path d="M203.30078,60.99414h.69434v3.3252h1.62109v.58691h-2.31543Z" fill="#bfcaff"/>
      <path d="M206.3584,61.58008h-1.13086v-.58594h2.94922v.58594h-1.125v3.32617h-.69336Z" fill="#bfcaff"/>
      <path d="M208.81641,60.99414H211.167v.58594h-1.65625v.999H210.916V63.165h-1.40527v1.1543h1.7168v.58691h-2.41113Z" fill="#bfcaff"/>
      <path d="M214.13965,64.90625,213.2959,63.375h-.5918v1.53125h-.69434V60.99414h1.31641c.81348,0,1.44141.28711,1.44141,1.16016a1.09413,1.09413,0,0,1-.78418,1.11914l.93359,1.63281Zm-1.43555-2.082h.5498c.53809,0,.8252-.22754.8252-.66992,0-.44824-.28711-.60352-.8252-.60352h-.5498Z" fill="#bfcaff"/>
    </g>
    <g>
      <path d="M123.98242,18.0498h2.36328v.58691h-1.66895v1.10645h1.417v.58594h-1.417v1.63281h-.69434Z" fill="#bfcaff"/>
      <path d="M127.00879,18.0498h.69434V21.376h1.62109v.58594h-2.31543Z" fill="#bfcaff"/>
      <path d="M131.80664,20.90332h-1.30957l-.30566,1.05859h-.71191l1.28027-3.91211h.81348l1.27441,3.91211h-.73535Zm-.15527-.54395-.1377-.47852c-.12012-.41309-.23926-.86133-.35254-1.292h-.02441c-.10742.43652-.22168.87891-.34668,1.292l-.1377.47852Z" fill="#bfcaff"/>
      <path d="M133.31348,18.0498h.71191l1.21387,2.20117.40723.832h.02441c-.03613-.40137-.08984-.89746-.08984-1.334V18.0498h.65723v3.91211h-.71191l-1.21387-2.20117-.40625-.83105h-.02441c.03613.41211.08984.88477.08984,1.32129v1.71094h-.6582Z" fill="#bfcaff"/>
      <path d="M138.877,17.97852a1.58811,1.58811,0,0,1,1.166.49609l-.38281.43066a1.01931,1.01931,0,0,0-.77734-.32227c-.69434,0-1.16016.53809-1.16016,1.417,0,.8916.41895,1.42969,1.20215,1.42969a.8583.8583,0,0,0,.55664-.17383v-.84277h-.73633v-.56836h1.35742v1.72266a1.89312,1.89312,0,0,1-1.26172.4668,1.80656,1.80656,0,0,1-1.83008-2.01562A1.85639,1.85639,0,0,1,138.877,17.97852Z" fill="#bfcaff"/>
      <path d="M140.95215,18.0498h2.35059v.58691h-1.65625v.999h1.40527v.58594h-1.40527V21.376h1.7168v.58594h-2.41113Z" fill="#bfcaff"/>
      <path d="M146.27637,21.96191l-.84375-1.53125h-.5918v1.53125h-.69434V18.0498h1.31641c.81348,0,1.44141.28711,1.44141,1.16113a1.093,1.093,0,0,1-.78418,1.11816l.93359,1.63281Zm-1.43555-2.08105h.5498c.53809,0,.8252-.22754.8252-.66992,0-.44922-.28711-.60449-.8252-.60449h-.5498Z" fill="#bfcaff"/>
    </g>
    <g>
      <path d="M67.98828,165.55371H68.748l.70605,1.92578.25684.74121h.02441l.25684-.74121.68848-1.92578h.76563v3.91113h-.65234v-1.78809c0-.36523.05371-.88574.08984-1.24414h-.02441l-.31641.8916-.67676,1.77637H69.5498l-.67578-1.77637-.31152-.8916h-.02344c.0293.3584.083.87891.083,1.24414v1.78809h-.63379Z" fill="#ced2d9"/>
      <path d="M74.23926,168.40625H72.92969l-.30566,1.05859h-.71094l1.2793-3.91113h.81348l1.27441,3.91113h-.73633Zm-.15527-.54395-.1377-.47852c-.11914-.41309-.23926-.86133-.35254-1.292h-.02441c-.10742.43652-.2207.87891-.34668,1.292l-.1377.47852Z" fill="#ced2d9"/>
      <path d="M77.28418,165.48145a1.533,1.533,0,0,1,1.1123.49609l-.38281.43066a.99555.99555,0,0,0-.72363-.32227c-.64062,0-1.10059.53809-1.10059,1.417,0,.8916.4248,1.42969,1.07617,1.42969a1.05851,1.05851,0,0,0,.8252-.38867l.38281.4248a1.55947,1.55947,0,0,1-1.21973.56836,1.79358,1.79358,0,0,1-1.77637-2.01562A1.83944,1.83944,0,0,1,77.28418,165.48145Z" fill="#ced2d9"/>
      <path d="M81.24414,169.46484l-.84375-1.53125h-.5918v1.53125h-.69434v-3.91113h1.31641c.81348,0,1.44141.28711,1.44141,1.16016a1.09325,1.09325,0,0,1-.7832,1.11816l.93262,1.63281Zm-1.43555-2.08105h.5498c.53906,0,.82617-.22754.82617-.66992,0-.44922-.28711-.60449-.82617-.60449h-.5498Z" fill="#ced2d9"/>
      <path d="M82.46973,167.49121c0-1.26172.70605-2.00977,1.72852-2.00977,1.0166,0,1.72266.748,1.72266,2.00977,0,1.26855-.70605,2.0459-1.72266,2.0459C83.17578,169.53711,82.46973,168.75977,82.46973,167.49121Zm2.73926,0c0-.873-.40039-1.40527-1.01074-1.40527-.61621,0-1.0166.53223-1.0166,1.40527,0,.87891.40039,1.44141,1.0166,1.44141C84.80859,168.93262,85.209,168.37012,85.209,167.49121Z" fill="#ced2d9"/>
      <path d="M89.5166,165.48145a1.533,1.533,0,0,1,1.1123.49609l-.38281.43066a.99555.99555,0,0,0-.72363-.32227c-.64062,0-1.10059.53809-1.10059,1.417,0,.8916.4248,1.42969,1.07617,1.42969a1.05851,1.05851,0,0,0,.8252-.38867l.38281.4248a1.55947,1.55947,0,0,1-1.21973.56836A1.79358,1.79358,0,0,1,87.71,167.52148,1.83944,1.83944,0,0,1,89.5166,165.48145Z" fill="#ced2d9"/>
      <path d="M90.94043,167.49121c0-1.26172.70605-2.00977,1.72852-2.00977,1.0166,0,1.72266.748,1.72266,2.00977,0,1.26855-.70605,2.0459-1.72266,2.0459C91.64648,169.53711,90.94043,168.75977,90.94043,167.49121Zm2.73926,0c0-.873-.40039-1.40527-1.01074-1.40527-.61621,0-1.0166.53223-1.0166,1.40527,0,.87891.40039,1.44141,1.0166,1.44141C93.2793,168.93262,93.67969,168.37012,93.67969,167.49121Z" fill="#ced2d9"/>
      <path d="M95.16211,165.55371H95.874l1.21484,2.20117.40625.83105h.02344c-.03516-.40039-.08887-.89746-.08887-1.334v-1.69824h.65723v3.91113H97.376l-1.21484-2.20117-.40625-.83105h-.02441c.03613.41309.08984.88477.08984,1.32227v1.71h-.6582Z" fill="#ced2d9"/>
      <path d="M99.8584,166.13965H98.72754v-.58594h2.94922v.58594h-1.125v3.3252H99.8584Z" fill="#ced2d9"/>
      <path d="M104.44629,169.46484l-.84375-1.53125h-.5918v1.53125h-.69434v-3.91113h1.31641c.81348,0,1.44141.28711,1.44141,1.16016A1.093,1.093,0,0,1,104.29,167.832l.93359,1.63281Zm-1.43555-2.08105h.5498c.53809,0,.8252-.22754.8252-.66992,0-.44922-.28711-.60449-.8252-.60449h-.5498Z" fill="#ced2d9"/>
      <path d="M105.67285,167.49121c0-1.26172.70605-2.00977,1.72852-2.00977,1.0166,0,1.72266.748,1.72266,2.00977,0,1.26855-.70605,2.0459-1.72266,2.0459C106.37891,169.53711,105.67285,168.75977,105.67285,167.49121Zm2.73926,0c0-.873-.40039-1.40527-1.01074-1.40527-.61621,0-1.0166.53223-1.0166,1.40527,0,.87891.40039,1.44141,1.0166,1.44141C108.01172,168.93262,108.41211,168.37012,108.41211,167.49121Z" fill="#ced2d9"/>
      <path d="M109.89551,165.55371h.69434v3.3252h1.62109v.58594h-2.31543Z" fill="#ced2d9"/>
      <path d="M112.8623,168.49023a1.56045,1.56045,0,0,0,1.02246.44238c.43652,0,.68262-.19727.68262-.502,0-.32324-.252-.4248-.61035-.57422l-.53223-.2334a1.12127,1.12127,0,0,1-.79-1.041,1.18818,1.18818,0,0,1,1.31055-1.10059,1.73138,1.73138,0,0,1,1.208.49609l-.35937.44336a1.25818,1.25818,0,0,0-.84863-.335c-.37109,0-.61035.17285-.61035.46,0,.30566.29883.41895.62207.55078l.52637.2207a1.08859,1.08859,0,0,1,.78906,1.05957,1.24328,1.24328,0,0,1-1.40527,1.16016,2.01267,2.01267,0,0,1-1.40527-.57422Z" fill="#ced2d9"/>
    </g>
    <g>
      <path d="M190.40039,165.55371h.69336v2.249c0,.84863.32324,1.12988.7959,1.12988.47852,0,.80762-.28125.80762-1.12988v-2.249h.66992V167.748c0,1.28613-.57422,1.78906-1.47754,1.78906-.90918,0-1.48926-.50293-1.48926-1.78906Z" fill="#ced2d9"/>
      <path d="M194.32422,165.55371h.71191l1.21484,2.20117.40625.83105h.02344c-.03516-.40039-.08887-.89746-.08887-1.334v-1.69824h.65723v3.91113h-.71094l-1.21484-2.20117-.40625-.83105h-.02441c.03613.41309.08984.88477.08984,1.32227v1.71h-.6582Z" fill="#ced2d9"/>
      <path d="M198.22949,165.55371h.69434v3.91113h-.69434Z" fill="#ced2d9"/>
      <path d="M200.03027,168.49023a1.56045,1.56045,0,0,0,1.02246.44238c.43652,0,.68262-.19727.68262-.502,0-.32324-.252-.4248-.61035-.57422l-.53223-.2334a1.12127,1.12127,0,0,1-.79-1.041,1.18818,1.18818,0,0,1,1.31055-1.10059,1.73138,1.73138,0,0,1,1.208.49609l-.35937.44336a1.25818,1.25818,0,0,0-.84863-.335c-.37109,0-.61035.17285-.61035.46,0,.30566.29883.41895.62207.55078l.52637.2207a1.08859,1.08859,0,0,1,.78906,1.05957,1.24328,1.24328,0,0,1-1.40527,1.16016,2.01267,2.01267,0,0,1-1.40527-.57422Z" fill="#ced2d9"/>
      <path d="M202.93164,167.49121c0-1.26172.70605-2.00977,1.72852-2.00977,1.0166,0,1.72266.748,1.72266,2.00977,0,1.26855-.70605,2.0459-1.72266,2.0459C203.6377,169.53711,202.93164,168.75977,202.93164,167.49121Zm2.73926,0c0-.873-.40039-1.40527-1.01074-1.40527-.61621,0-1.0166.53223-1.0166,1.40527,0,.87891.40039,1.44141,1.0166,1.44141C205.27051,168.93262,205.6709,168.37012,205.6709,167.49121Z" fill="#ced2d9"/>
      <path d="M207.1543,165.55371h.71191l1.21484,2.20117.40625.83105h.02344c-.03516-.40039-.08887-.89746-.08887-1.334v-1.69824h.65723v3.91113h-.71094l-1.21484-2.20117-.40625-.83105h-.02441c.03613.41309.08984.88477.08984,1.32227v1.71h-.6582Z" fill="#ced2d9"/>
    </g>
    <g>
      <path d="M234.17383,165.55371h.75977l.70605,1.92578.25684.74121h.02441l.25684-.74121.68848-1.92578h.76563v3.91113h-.65234v-1.78809c0-.36523.05371-.88574.08984-1.24414h-.02441l-.31641.8916-.67676,1.77637h-.31641l-.67578-1.77637-.31152-.8916h-.02344c.0293.3584.083.87891.083,1.24414v1.78809h-.63379Z" fill="#ced2d9"/>
      <path d="M240.4248,168.40625h-1.30957l-.30566,1.05859h-.71094l1.2793-3.91113h.81348l1.27441,3.91113h-.73633Zm-.15527-.54395-.1377-.47852c-.11914-.41309-.23926-.86133-.35254-1.292h-.02441c-.10742.43652-.2207.87891-.34668,1.292l-.1377.47852Z" fill="#ced2d9"/>
      <path d="M242.06348,168.49023a1.56045,1.56045,0,0,0,1.02246.44238c.43652,0,.68262-.19727.68262-.502,0-.32324-.252-.4248-.61035-.57422l-.53223-.2334a1.12127,1.12127,0,0,1-.79-1.041,1.18818,1.18818,0,0,1,1.31055-1.10059,1.73138,1.73138,0,0,1,1.208.49609l-.35937.44336a1.25818,1.25818,0,0,0-.84863-.335c-.37109,0-.61035.17285-.61035.46,0,.30566.29883.41895.62207.55078l.52637.2207a1.08859,1.08859,0,0,1,.78906,1.05957,1.24328,1.24328,0,0,1-1.40527,1.16016,2.01267,2.01267,0,0,1-1.40527-.57422Z" fill="#ced2d9"/>
      <path d="M245.84473,166.13965h-1.13086v-.58594h2.94922v.58594h-1.125v3.3252h-.69336Z" fill="#ced2d9"/>
      <path d="M248.30273,165.55371h2.35059v.58594h-1.65625v.999h1.40527v.58594h-1.40527v1.1543h1.7168v.58594h-2.41113Z" fill="#ced2d9"/>
      <path d="M253.626,169.46484l-.84375-1.53125h-.5918v1.53125h-.69434v-3.91113h1.31641c.81348,0,1.44141.28711,1.44141,1.16016a1.093,1.093,0,0,1-.78418,1.11816l.93359,1.63281Zm-1.43555-2.08105h.5498c.53809,0,.8252-.22754.8252-.66992,0-.44922-.28711-.60449-.8252-.60449h-.5498Z" fill="#ced2d9"/>
    </g>
    <g>
      <path d="M63.21777,122.60938h2.35059v.58594H63.91211v.999h1.40527v.58594H63.91211v1.1543h1.7168v.58594H63.21777Z" fill="#bfcaff"/>
      <path d="M68.00977,122.53711a1.533,1.533,0,0,1,1.1123.49609l-.38281.43066a.99555.99555,0,0,0-.72363-.32227c-.64062,0-1.10059.53809-1.10059,1.417,0,.8916.4248,1.42969,1.07617,1.42969a1.06048,1.06048,0,0,0,.82617-.38867l.38281.4248a1.56286,1.56286,0,0,1-1.2207.56836,1.79358,1.79358,0,0,1-1.77637-2.01562A1.83944,1.83944,0,0,1,68.00977,122.53711Z" fill="#bfcaff"/>
      <path d="M69.83984,122.60938h.69434v1.57227h1.5791v-1.57227h.69336v3.91113h-.69336v-1.73437h-1.5791v1.73438h-.69434Z" fill="#bfcaff"/>
      <path d="M73.57813,124.54688c0-1.26172.70605-2.00977,1.72852-2.00977,1.0166,0,1.72266.748,1.72266,2.00977,0,1.26855-.70605,2.0459-1.72266,2.0459C74.28418,126.59277,73.57813,125.81543,73.57813,124.54688Zm2.73926,0c0-.873-.40039-1.40527-1.01074-1.40527-.61621,0-1.0166.53223-1.0166,1.40527,0,.87891.40039,1.44141,1.0166,1.44141C75.917,125.98828,76.31738,125.42578,76.31738,124.54688Z" fill="#bfcaff"/>
    </g>
    <g>
      <path d="M193.209,126.52051l-.84375-1.53125h-.5918v1.53125h-.69434v-3.91113h1.31641c.81348,0,1.44141.28711,1.44141,1.16016a1.09325,1.09325,0,0,1-.7832,1.11816l.93262,1.63281Zm-1.43555-2.08105h.5498c.53906,0,.82617-.22754.82617-.66992,0-.44922-.28711-.60449-.82617-.60449h-.5498Z" fill="#bfcaff"/>
      <path d="M194.64453,122.60938h2.35059v.58594h-1.65625v.999h1.40527v.58594h-1.40527v1.1543h1.7168v.58594h-2.41113Z" fill="#bfcaff"/>
      <path d="M197.31738,122.60938h.73633l.5498,1.96777c.126.44238.21.8252.34082,1.27344h.02441c.13184-.44824.22168-.83105.34668-1.27344l.54492-1.96777h.70508l-1.208,3.91113h-.8252Z" fill="#bfcaff"/>
      <path d="M201.02637,122.60938H203.377v.58594H201.7207v.999H203.126v.58594H201.7207v1.1543h1.7168v.58594h-2.41113Z" fill="#bfcaff"/>
      <path d="M206.35059,126.52051l-.84375-1.53125h-.5918v1.53125h-.69434v-3.91113h1.31641c.81348,0,1.44141.28711,1.44141,1.16016a1.093,1.093,0,0,1-.78418,1.11816l.93359,1.63281Zm-1.43555-2.08105h.5498c.53809,0,.8252-.22754.8252-.66992,0-.44922-.28711-.60449-.8252-.60449h-.5498Z" fill="#bfcaff"/>
      <path d="M207.78516,122.60938h1.25c.80176,0,1.39355.24512,1.39355.96289a.848.848,0,0,1-.66992.84863v.02441c.5625.0957.87988.40039.87988.92676,0,.78418-.63965,1.14844-1.501,1.14844h-1.35254Zm1.18457,1.62012c.55078,0,.77734-.209.77734-.57422,0-.3584-.251-.50781-.75977-.50781h-.50781v1.082Zm.0957,1.75293c.57422,0,.8916-.21484.8916-.6582,0-.40625-.31152-.59766-.8916-.59766h-.58594v1.25586Z" fill="#bfcaff"/>
    </g>
  </g>
</svg>
