<svg xmlns="http://www.w3.org/2000/svg" xmlns:xlink="http://www.w3.org/1999/xlink" viewBox="0 0 270 214">
  <defs>
    <linearGradient id="linear-gradient" x1="34.54181" y1="30.80756" x2="34.54181" y2="40.14318" gradientUnits="userSpaceOnUse">
      <stop offset="0" stop-color="#e6e6e6"/>
      <stop offset="0.1144" stop-color="#e0e0e0"/>
      <stop offset="0.27295" stop-color="#cecece"/>
      <stop offset="0.45731" stop-color="#b0b0b0"/>
      <stop offset="0.66114" stop-color="#878787"/>
      <stop offset="0.87829" stop-color="#535353"/>
      <stop offset="1" stop-color="#333"/>
    </linearGradient>
    <linearGradient id="linear-gradient-2" x1="77.48568" y1="30.80756" x2="77.48568" y2="40.14318" xlink:href="#linear-gradient"/>
    <linearGradient id="linear-gradient-3" x1="118.56243" y1="30.80756" x2="118.56243" y2="40.14318" xlink:href="#linear-gradient"/>
    <linearGradient id="linear-gradient-4" x1="161.5063" y1="30.80756" x2="161.5063" y2="40.14318" xlink:href="#linear-gradient"/>
    <linearGradient id="linear-gradient-5" x1="202.58942" y1="30.80756" x2="202.58942" y2="40.14318" xlink:href="#linear-gradient"/>
    <linearGradient id="linear-gradient-6" x1="245.52692" y1="30.80756" x2="245.52692" y2="40.14318" xlink:href="#linear-gradient"/>
    <linearGradient id="linear-gradient-7" x1="34.54181" y1="73.75143" x2="34.54181" y2="83.08706" xlink:href="#linear-gradient"/>
    <linearGradient id="linear-gradient-8" x1="77.48568" y1="73.75143" x2="77.48568" y2="83.08706" xlink:href="#linear-gradient"/>
    <linearGradient id="linear-gradient-9" x1="118.56243" y1="73.75143" x2="118.56243" y2="83.08706" xlink:href="#linear-gradient"/>
    <linearGradient id="linear-gradient-10" x1="161.5063" y1="73.75143" x2="161.5063" y2="83.08706" xlink:href="#linear-gradient"/>
    <linearGradient id="linear-gradient-11" x1="202.58942" y1="73.75143" x2="202.58942" y2="83.08706" xlink:href="#linear-gradient"/>
    <linearGradient id="linear-gradient-12" x1="245.52692" y1="73.75143" x2="245.52692" y2="83.08706" xlink:href="#linear-gradient"/>
    <linearGradient id="linear-gradient-13" x1="34.54181" y1="178.31042" x2="34.54181" y2="187.64605" xlink:href="#linear-gradient"/>
    <linearGradient id="linear-gradient-14" x1="77.48568" y1="178.31042" x2="77.48568" y2="187.64605" xlink:href="#linear-gradient"/>
    <linearGradient id="linear-gradient-15" x1="118.56243" y1="178.31042" x2="118.56243" y2="187.64605" xlink:href="#linear-gradient"/>
    <linearGradient id="linear-gradient-16" x1="161.5063" y1="178.31042" x2="161.5063" y2="187.64605" xlink:href="#linear-gradient"/>
    <linearGradient id="linear-gradient-17" x1="202.58942" y1="178.31042" x2="202.58942" y2="187.64605" xlink:href="#linear-gradient"/>
    <linearGradient id="linear-gradient-18" x1="245.52692" y1="178.31042" x2="245.52692" y2="187.64605" xlink:href="#linear-gradient"/>
    <linearGradient id="linear-gradient-19" x1="34.54181" y1="135.36655" x2="34.54181" y2="144.70218" xlink:href="#linear-gradient"/>
    <linearGradient id="linear-gradient-20" x1="77.48568" y1="135.36655" x2="77.48568" y2="144.70218" xlink:href="#linear-gradient"/>
    <linearGradient id="linear-gradient-21" x1="118.56243" y1="135.36655" x2="118.56243" y2="144.70218" xlink:href="#linear-gradient"/>
    <linearGradient id="linear-gradient-22" x1="161.5063" y1="135.36655" x2="161.5063" y2="144.70218" xlink:href="#linear-gradient"/>
    <linearGradient id="linear-gradient-23" x1="202.58942" y1="135.36655" x2="202.58942" y2="144.70218" xlink:href="#linear-gradient"/>
    <linearGradient id="linear-gradient-24" x1="245.52692" y1="135.36655" x2="245.52692" y2="144.70218" xlink:href="#linear-gradient"/>
  </defs>
  <title>p2</title>
  <g id="Panel_BG" data-name="Panel BG">
    <rect y="-0.15975" width="270" height="214" rx="3" ry="3" fill="#1a1a1a"/>
  </g>
  <g id="Modul_BGs" data-name="Modul BGs">
    <g>
      <rect x="6.28483" y="14.68676" width="258.16309" height="39.70996" rx="1.25" ry="1.25" fill="#414141"/>
      <path d="M263.19816,14.937a1,1,0,0,1,1,1v37.2096a1,1,0,0,1-1,1H7.53495a1,1,0,0,1-1-1V15.937a1,1,0,0,1,1-1H263.19816m0-.5H7.53495a1.50171,1.50171,0,0,0-1.5,1.5v37.2096a1.50171,1.50171,0,0,0,1.5,1.5H263.19816a1.50171,1.50171,0,0,0,1.5-1.5V15.937a1.50171,1.50171,0,0,0-1.5-1.5Z" fill="#cfb199"/>
    </g>
    <g>
      <rect x="6.28483" y="57.6311" width="258.16309" height="39.70947" rx="1.25" ry="1.25" fill="#414141"/>
      <path d="M263.19816,57.88089a1,1,0,0,1,1,1V96.09048a1,1,0,0,1-1,1H7.53495a1,1,0,0,1-1-1V58.88089a1,1,0,0,1,1-1H263.19816m0-.5H7.53495a1.50171,1.50171,0,0,0-1.5,1.5V96.09048a1.50171,1.50171,0,0,0,1.5,1.5H263.19816a1.50171,1.50171,0,0,0,1.5-1.5V58.88089a1.50171,1.50171,0,0,0-1.5-1.5Z" fill="#cfb199"/>
    </g>
    <g>
      <rect x="6.28483" y="162.18969" width="258.16309" height="39.70996" rx="1.25" ry="1.25" fill="#414141"/>
      <path d="M263.19816,162.43988a1,1,0,0,1,1,1v37.20959a1,1,0,0,1-1,1H7.53495a1,1,0,0,1-1-1V163.43988a1,1,0,0,1,1-1H263.19816m0-.5H7.53495a1.50171,1.50171,0,0,0-1.5,1.5v37.20959a1.50171,1.50171,0,0,0,1.5,1.5H263.19816a1.50171,1.50171,0,0,0,1.5-1.5V163.43988a1.50171,1.50171,0,0,0-1.5-1.5Z" fill="#e3d8ac"/>
    </g>
    <g>
      <rect x="6.28483" y="119.24584" width="258.16309" height="39.70996" rx="1.25" ry="1.25" fill="#414141"/>
      <path d="M263.19816,119.496a1,1,0,0,1,1,1v37.20959a1,1,0,0,1-1,1H7.53495a1,1,0,0,1-1-1V120.496a1,1,0,0,1,1-1H263.19816m0-.5H7.53495a1.50171,1.50171,0,0,0-1.5,1.5v37.20959a1.50171,1.50171,0,0,0,1.5,1.5H263.19816a1.50171,1.50171,0,0,0,1.5-1.5V120.496a1.50171,1.50171,0,0,0-1.5-1.5Z" fill="#e3d8ac"/>
    </g>
  </g>
  <g id="Punkte_leer" data-name="Punkte leer">
    <path d="M58.81443,46.96158a.93017.93017,0,1,1-.93015.93017.93122.93122,0,0,1,.93015-.93017m0-.28346a1.21363,1.21363,0,1,0,1.21362,1.21363,1.21363,1.21363,0,0,0-1.21362-1.21363Z" fill="#e6e6e6"/>
    <path d="M15.87055,45.09446a.93017.93017,0,1,1-.93015.93017.93122.93122,0,0,1,.93015-.93017m0-.28346a1.21363,1.21363,0,1,0,1.21365,1.21363A1.21363,1.21363,0,0,0,15.87055,44.811Z" fill="#e6e6e6"/>
    <path d="M15.87055,48.82871a.93017.93017,0,1,1-.93015.93017.93122.93122,0,0,1,.93015-.93017m0-.28346a1.21363,1.21363,0,1,0,1.21365,1.21363,1.21363,1.21363,0,0,0-1.21365-1.21363Z" fill="#e6e6e6"/>
    <path d="M142.83506,45.09446a.93017.93017,0,1,1-.93018.93017.93124.93124,0,0,1,.93018-.93017m0-.28346a1.21363,1.21363,0,1,0,1.21362,1.21363,1.21361,1.21361,0,0,0-1.21362-1.21363Z" fill="#e6e6e6"/>
    <path d="M142.83506,48.82871a.93017.93017,0,1,1-.93018.93017.93124.93124,0,0,1,.93018-.93017m0-.28346a1.21363,1.21363,0,1,0,1.21362,1.21363,1.21361,1.21361,0,0,0-1.21362-1.21363Z" fill="#e6e6e6"/>
    <path d="M183.91178,45.09446a.93017.93017,0,1,1-.93018.93017.93124.93124,0,0,1,.93018-.93017m0-.28346a1.21363,1.21363,0,1,0,1.21362,1.21363,1.21365,1.21365,0,0,0-1.21362-1.21363Z" fill="#e6e6e6"/>
    <path d="M183.91178,48.82871a.93017.93017,0,1,1-.93018.93017.93124.93124,0,0,1,.93018-.93017m0-.28346a1.21363,1.21363,0,1,0,1.21362,1.21363,1.21365,1.21365,0,0,0-1.21362-1.21363Z" fill="#e6e6e6"/>
    <path d="M226.85569,45.09446a.93017.93017,0,1,1-.93018.93017.93124.93124,0,0,1,.93018-.93017m0-.28346a1.21363,1.21363,0,1,0,1.21362,1.21363,1.21361,1.21361,0,0,0-1.21362-1.21363Z" fill="#e6e6e6"/>
    <path d="M226.85569,48.82871a.93017.93017,0,1,1-.93018.93017.93124.93124,0,0,1,.93018-.93017m0-.28346a1.21363,1.21363,0,1,0,1.21362,1.21363,1.21361,1.21361,0,0,0-1.21362-1.21363Z" fill="#e6e6e6"/>
    <path d="M183.91178,89.90545a.93017.93017,0,1,1-.93018.93018.93125.93125,0,0,1,.93018-.93018m0-.28346a1.21363,1.21363,0,1,0,1.21362,1.21364,1.21366,1.21366,0,0,0-1.21362-1.21364Z" fill="#e6e6e6"/>
    <path d="M15.87055,89.90545a.93017.93017,0,1,1-.93015.93018.93123.93123,0,0,1,.93015-.93018m0-.28346a1.21363,1.21363,0,1,0,1.21365,1.21364A1.21364,1.21364,0,0,0,15.87055,89.622Z" fill="#e6e6e6"/>
    <path d="M58.81443,194.46444a.93017.93017,0,1,1-.93015.93018.93122.93122,0,0,1,.93015-.93018m0-.28346a1.21363,1.21363,0,1,0,1.21362,1.21364,1.21364,1.21364,0,0,0-1.21362-1.21364Z" fill="#e6e6e6"/>
    <path d="M15.87055,192.59732a.93018.93018,0,1,1-.93015.93018.93123.93123,0,0,1,.93015-.93018m0-.28346a1.21364,1.21364,0,1,0,1.21365,1.21364,1.21364,1.21364,0,0,0-1.21365-1.21364Z" fill="#e6e6e6"/>
    <path d="M15.87055,196.33157a.93017.93017,0,1,1-.93015.93018.93123.93123,0,0,1,.93015-.93018m0-.28346a1.21363,1.21363,0,1,0,1.21365,1.21364,1.21364,1.21364,0,0,0-1.21365-1.21364Z" fill="#e6e6e6"/>
    <path d="M142.83506,192.59732a.93018.93018,0,1,1-.93018.93018.93125.93125,0,0,1,.93018-.93018m0-.28346a1.21364,1.21364,0,1,0,1.21362,1.21364,1.21362,1.21362,0,0,0-1.21362-1.21364Z" fill="#e6e6e6"/>
    <path d="M142.83506,196.33157a.93017.93017,0,1,1-.93018.93018.93125.93125,0,0,1,.93018-.93018m0-.28346a1.21363,1.21363,0,1,0,1.21362,1.21364,1.21362,1.21362,0,0,0-1.21362-1.21364Z" fill="#e6e6e6"/>
    <path d="M183.91178,192.59732a.93018.93018,0,1,1-.93018.93018.93125.93125,0,0,1,.93018-.93018m0-.28346a1.21364,1.21364,0,1,0,1.21362,1.21364,1.21366,1.21366,0,0,0-1.21362-1.21364Z" fill="#e6e6e6"/>
    <path d="M183.91178,196.33157a.93017.93017,0,1,1-.93018.93018.93125.93125,0,0,1,.93018-.93018m0-.28346a1.21363,1.21363,0,1,0,1.21362,1.21364,1.21366,1.21366,0,0,0-1.21362-1.21364Z" fill="#e6e6e6"/>
    <path d="M226.85569,192.59732a.93018.93018,0,1,1-.93018.93018.93125.93125,0,0,1,.93018-.93018m0-.28346a1.21364,1.21364,0,1,0,1.21362,1.21364,1.21362,1.21362,0,0,0-1.21362-1.21364Z" fill="#e6e6e6"/>
    <path d="M226.85569,196.33157a.93017.93017,0,1,1-.93018.93018.93125.93125,0,0,1,.93018-.93018m0-.28346a1.21363,1.21363,0,1,0,1.21362,1.21364,1.21362,1.21362,0,0,0-1.21362-1.21364Z" fill="#e6e6e6"/>
    <path d="M183.91178,151.52058a.93017.93017,0,1,1-.93018.93016.93124.93124,0,0,1,.93018-.93016m0-.28346a1.21363,1.21363,0,1,0,1.21362,1.21362,1.21364,1.21364,0,0,0-1.21362-1.21362Z" fill="#e6e6e6"/>
    <path d="M15.87055,151.52058a.93017.93017,0,1,1-.93015.93016.93122.93122,0,0,1,.93015-.93016m0-.28346a1.21363,1.21363,0,1,0,1.21365,1.21362,1.21362,1.21362,0,0,0-1.21365-1.21362Z" fill="#e6e6e6"/>
  </g>
  <g id="LEDs_Top" data-name="LEDs Top">
    <circle cx="58.81443" cy="35.39267" r="2.80069" fill="#6e2014" stroke="#252525" stroke-miterlimit="10" stroke-width="0.3"/>
    <circle cx="99.89118" cy="35.39267" r="2.80069" fill="#6e2014" stroke="#252525" stroke-miterlimit="10" stroke-width="0.3"/>
    <circle cx="142.83505" cy="35.39267" r="2.80069" fill="#6e2014" stroke="#252525" stroke-miterlimit="10" stroke-width="0.3"/>
    <circle cx="183.9118" cy="35.39267" r="2.80069" fill="#6e2014" stroke="#252525" stroke-miterlimit="10" stroke-width="0.3"/>
    <circle cx="226.85567" cy="35.39267" r="2.80069" fill="#6e2014" stroke="#252525" stroke-miterlimit="10" stroke-width="0.3"/>
    <circle cx="58.81443" cy="78.33655" r="2.80069" fill="#6e2014" stroke="#252525" stroke-miterlimit="10" stroke-width="0.3"/>
    <circle cx="99.89118" cy="78.33655" r="2.80069" fill="#6e2014" stroke="#252525" stroke-miterlimit="10" stroke-width="0.3"/>
    <circle cx="142.83505" cy="78.33655" r="2.80069" fill="#6e2014" stroke="#252525" stroke-miterlimit="10" stroke-width="0.3"/>
    <circle cx="183.9118" cy="78.33655" r="2.80069" fill="#6e2014" stroke="#252525" stroke-miterlimit="10" stroke-width="0.3"/>
    <circle cx="226.85567" cy="78.33655" r="2.80069" fill="#6e2014" stroke="#252525" stroke-miterlimit="10" stroke-width="0.3"/>
    <circle cx="15.87056" cy="182.97824" r="2.80069" fill="#6e2014" stroke="#252525" stroke-miterlimit="10" stroke-width="0.3"/>
    <circle cx="58.81443" cy="182.89554" r="2.80069" fill="#6e2014" stroke="#252525" stroke-miterlimit="10" stroke-width="0.3"/>
    <circle cx="99.89118" cy="182.89554" r="2.80069" fill="#6e2014" stroke="#252525" stroke-miterlimit="10" stroke-width="0.3"/>
    <circle cx="142.83505" cy="182.89554" r="2.80069" fill="#6e2014" stroke="#252525" stroke-miterlimit="10" stroke-width="0.3"/>
    <circle cx="183.9118" cy="182.89554" r="2.80069" fill="#6e2014" stroke="#252525" stroke-miterlimit="10" stroke-width="0.3"/>
    <circle cx="226.85567" cy="182.89554" r="2.80069" fill="#6e2014" stroke="#252525" stroke-miterlimit="10" stroke-width="0.3"/>
    <circle cx="15.87056" cy="140.03436" r="2.80069" fill="#6e2014" stroke="#252525" stroke-miterlimit="10" stroke-width="0.3"/>
    <circle cx="58.81443" cy="139.95167" r="2.80069" fill="#6e2014" stroke="#252525" stroke-miterlimit="10" stroke-width="0.3"/>
    <circle cx="99.89118" cy="139.95167" r="2.80069" fill="#6e2014" stroke="#252525" stroke-miterlimit="10" stroke-width="0.3"/>
    <circle cx="142.83505" cy="139.95167" r="2.80069" fill="#6e2014" stroke="#252525" stroke-miterlimit="10" stroke-width="0.3"/>
    <circle cx="183.9118" cy="139.95167" r="2.80069" fill="#6e2014" stroke="#252525" stroke-miterlimit="10" stroke-width="0.3"/>
    <circle cx="226.85567" cy="139.95167" r="2.80069" fill="#6e2014" stroke="#252525" stroke-miterlimit="10" stroke-width="0.3"/>
    <circle cx="15.87056" cy="78.41924" r="2.80069" fill="#6e2014" stroke="#252525" stroke-miterlimit="10" stroke-width="0.3"/>
    <circle cx="15.87056" cy="35.47537" r="2.80069" fill="#6e2014" stroke="#252525" stroke-miterlimit="10" stroke-width="0.3"/>
  </g>
  <g id="Parameter_Typo" data-name="Parameter Typo">
    <g>
      <path d="M28.397,46.05664h1.31641c.855,0,1.4834.29883,1.4834,1.208,0,.86719-.64648,1.26758-1.4834,1.26758h-.62207v1.43555H28.397Zm1.25635,1.91992c.58643,0,.86133-.2334.86133-.71191,0-.49023-.293-.65234-.86133-.65234h-.562v1.36426Z" fill="#e6e6e6"/>
      <path d="M31.78271,46.12793a.42648.42648,0,1,1,.4248.38867A.39482.39482,0,0,1,31.78271,46.12793Zm.07764.90332h.688v2.93652h-.688Z" fill="#e6e6e6"/>
      <path d="M33.52979,47.5752h-.41895v-.51367l.45459-.03027.0835-.80176h.57422v.80176h.748v.54395h-.748v1.40039c0,.34668.13184.51367.41309.51367a.83434.83434,0,0,0,.30469-.06543l.12012.50879a1.88291,1.88291,0,0,1-.59863.10742c-.68164,0-.93262-.43066-.93262-1.06445Z" fill="#e6e6e6"/>
      <path d="M36.80762,46.959a1.21317,1.21317,0,0,1,.86133.3418l-.3291.43652a.73229.73229,0,0,0-.49658-.21582c-.47266,0-.80127.38867-.80127.98145,0,.58594.32275.97461.78369.97461a.969.969,0,0,0,.604-.251l.28711.43652a1.47315,1.47315,0,0,1-.96338.377,1.39742,1.39742,0,0,1-1.41748-1.53711A1.449,1.449,0,0,1,36.80762,46.959Z" fill="#e6e6e6"/>
      <path d="M38.29053,45.74512h.688V46.834l-.02393.56836a1.34587,1.34587,0,0,1,.939-.44336c.62842,0,.90332.4248.90332,1.167v1.8418h-.688v-1.752c0-.48437-.1377-.66406-.46045-.66406a.92924.92924,0,0,0-.66992.36426v2.05176h-.688Z" fill="#e6e6e6"/>
    </g>
    <g>
      <path d="M71.52979,46.05664h2.3623v.58594H72.22314V47.749h1.418V48.335h-1.418v1.63281h-.69336Z" fill="#e6e6e6"/>
      <path d="M74.50244,45.74512h.688V49.25c0,.168.07764.22754.14941.22754a.422.422,0,0,0,.10791-.01172l.08984.51465a.95643.95643,0,0,1-.36523.05957c-.49023,0-.66992-.31738-.66992-.8252Z" fill="#e6e6e6"/>
      <path d="M76.09326,47.03125h.688v1.75293c0,.48438.13721.66309.45459.66309.25684,0,.43066-.11914.65186-.40625V47.03125h.688v2.93652h-.5625l-.05371-.43066h-.01807a1.19607,1.19607,0,0,1-.94482.50293c-.62793,0-.90332-.4248-.90332-1.167Z" fill="#e6e6e6"/>
      <path d="M80.72949,46.959a1.21317,1.21317,0,0,1,.86133.3418l-.3291.43652a.73229.73229,0,0,0-.49658-.21582c-.47266,0-.80127.38867-.80127.98145,0,.58594.32275.97461.78369.97461a.969.969,0,0,0,.604-.251l.28711.43652a1.47315,1.47315,0,0,1-.96338.377,1.39742,1.39742,0,0,1-1.41748-1.53711A1.449,1.449,0,0,1,80.72949,46.959Z" fill="#e6e6e6"/>
      <path d="M82.314,47.5752h-.41846v-.51367l.45459-.03027.084-.80176h.57422v.80176h.74756v.54395H83.0083v1.40039c0,.34668.13135.51367.4126.51367a.83915.83915,0,0,0,.30518-.06543l.11914.50879a1.87648,1.87648,0,0,1-.59766.10742c-.68213,0-.93359-.43066-.93359-1.06445Z" fill="#e6e6e6"/>
    </g>
    <g>
      <path d="M111.25732,46.05664h1.31641c.85547,0,1.4834.29883,1.4834,1.208,0,.86719-.64648,1.26758-1.4834,1.26758h-.62207v1.43555h-.69434Zm1.25586,1.91992c.58691,0,.86133-.2334.86133-.71191,0-.49023-.293-.65234-.86133-.65234h-.56152v1.36426Z" fill="#e6e6e6"/>
      <path d="M114.72119,45.74512h.68848V46.834l-.02441.56836a1.346,1.346,0,0,1,.93945-.44336c.62793,0,.90332.4248.90332,1.167v1.8418h-.68848v-1.752c0-.48437-.1377-.66406-.46-.66406a.9284.9284,0,0,0-.66992.36426v2.05176h-.68848Z" fill="#e6e6e6"/>
      <path d="M119.66162,48.08984c-.00586-.31055-.1377-.57422-.5332-.57422a1.63774,1.63774,0,0,0-.8252.28711l-.251-.46094a2.27784,2.27784,0,0,1,1.20215-.38281c.73535,0,1.09473.44922,1.09473,1.26855v1.74023h-.5625l-.05371-.32227h-.01758a1.43434,1.43434,0,0,1-.90918.39453.82533.82533,0,0,1-.873-.86133C117.93311,48.55078,118.4585,48.22168,119.66162,48.08984ZM119.021,49.502a.92583.92583,0,0,0,.64063-.32324v-.6582c-.7959.10156-1.05859.31152-1.05859.60449C118.603,49.3877,118.77588,49.502,119.021,49.502Z" fill="#e6e6e6"/>
      <path d="M121.21729,49.19043a1.30791,1.30791,0,0,0,.81348.3291c.31641,0,.4668-.14941.4668-.35254,0-.24609-.31738-.35352-.62891-.47266-.38867-.14355-.8252-.36523-.8252-.85547,0-.51465.41309-.87988,1.07129-.87988a1.58517,1.58517,0,0,1,.97461.35352l-.31738.41895a1.08673,1.08673,0,0,0-.64551-.252c-.293,0-.43066.1377-.43066.32324,0,.22754.293.32324.61035.43652.40039.14941.84277.34082.84277.8916,0,.502-.40039.90918-1.14258.90918a1.85984,1.85984,0,0,1-1.1123-.40723Z" fill="#e6e6e6"/>
      <path d="M124.92529,46.959c.7959,0,1.21484.57422,1.21484,1.39453a1.43127,1.43127,0,0,1-.03027.32227h-1.86621a.84317.84317,0,0,0,.86719.832,1.2227,1.2227,0,0,0,.68164-.21582l.2334.43066A1.84952,1.84952,0,0,1,125.021,50.04a1.54847,1.54847,0,0,1-.0957-3.08105Zm.61621,1.28027c0-.4668-.19727-.74707-.59766-.74707-.34668,0-.64648.25684-.70605.74707Z" fill="#e6e6e6"/>
    </g>
    <g>
      <path d="M152.51123,46.05664h1.31641c.85547,0,1.4834.29883,1.4834,1.208,0,.86719-.64648,1.26758-1.4834,1.26758h-.62207v1.43555h-.69434Zm1.25586,1.91992c.58691,0,.86133-.2334.86133-.71191,0-.49023-.293-.65234-.86133-.65234h-.56152v1.36426Z" fill="#e6e6e6"/>
      <path d="M156.02881,46.05664h.75977l.70605,1.92578.25684.74121h.02441l.25684-.74121.6875-1.92578h.76563v3.91113h-.65137V48.17969c0-.36523.05371-.88574.08984-1.24414h-.02441l-.31641.8916-.67578,1.77637h-.31738l-.67578-1.77637-.31152-.8916h-.02344c.0293.3584.084.87891.084,1.24414v1.78809h-.63477Z" fill="#e6e6e6"/>
      <path d="M161.82471,48.99316a1.56045,1.56045,0,0,0,1.02246.44238c.4375,0,.68262-.19727.68262-.502,0-.32324-.252-.4248-.61035-.57422l-.53223-.2334a1.12127,1.12127,0,0,1-.79-1.041,1.18818,1.18818,0,0,1,1.31055-1.10059,1.73315,1.73315,0,0,1,1.208.49609l-.35937.44336a1.25818,1.25818,0,0,0-.84863-.335c-.37109,0-.61035.17285-.61035.46,0,.30566.29883.41895.62207.55078l.52637.2207a1.08859,1.08859,0,0,1,.78906,1.05957A1.24328,1.24328,0,0,1,162.82959,50.04a2.01267,2.01267,0,0,1-1.40527-.57422Z" fill="#e6e6e6"/>
      <path d="M166.0415,46.959c.7959,0,1.21484.57422,1.21484,1.39453a1.49112,1.49112,0,0,1-.03027.32227h-1.86621a.84317.84317,0,0,0,.86719.832,1.23063,1.23063,0,0,0,.68262-.21582l.23242.43066a1.85213,1.85213,0,0,1-1.00488.31738,1.54847,1.54847,0,0,1-.0957-3.08105Zm.61621,1.28027c0-.4668-.19727-.74707-.59766-.74707-.34766,0-.64648.25684-.70605.74707Z" fill="#e6e6e6"/>
      <path d="M167.91357,45.74512h.6875V49.25c0,.168.07813.22754.15039.22754a.42059.42059,0,0,0,.10742-.01172l.08984.51465a.95461.95461,0,0,1-.36523.05957c-.49023,0-.66992-.31738-.66992-.8252Z" fill="#e6e6e6"/>
      <path d="M171.03662,46.28906a.81433.81433,0,0,0-.32324-.07129c-.23926,0-.37109.15527-.37109.49609v.31738h.57422v.54395h-.57422v2.39258h-.6875V47.5752h-.39551v-.51367l.39551-.03027v-.30469c0-.61035.28027-1.05273.97461-1.05273a1.48621,1.48621,0,0,1,.53809.10156Z" fill="#e6e6e6"/>
    </g>
    <g>
      <path d="M196.7124,46.05664h1.31641c.85547,0,1.4834.29883,1.4834,1.208,0,.86719-.64648,1.26758-1.4834,1.26758h-.62207v1.43555h-.69434Zm1.25586,1.91992c.58691,0,.86133-.2334.86133-.71191,0-.49023-.293-.65234-.86133-.65234h-.56152v1.36426Z" fill="#e6e6e6"/>
      <path d="M200.23,46.05664h.75977l.70605,1.92578.25684.74121h.02441l.25684-.74121.6875-1.92578h.76563v3.91113h-.65137V48.17969c0-.36523.05371-.88574.08984-1.24414h-.02441l-.31641.8916-.67578,1.77637h-.31738l-.67578-1.77637-.31152-.8916h-.02344c.0293.3584.084.87891.084,1.24414v1.78809H200.23Z" fill="#e6e6e6"/>
      <path d="M205.894,46.05664h1.25c.80176,0,1.39453.24512,1.39453.96289a.849.849,0,0,1-.66992.84863v.02441c.56152.0957.87891.40039.87891.92676,0,.78418-.64062,1.14844-1.502,1.14844H205.894Zm1.18457,1.62012c.5498,0,.77734-.209.77734-.57422,0-.3584-.251-.50781-.75977-.50781h-.50781v1.082Zm.0957,1.75293c.57422,0,.8916-.21484.8916-.6582,0-.40625-.31152-.59766-.8916-.59766h-.58594v1.25586Z" fill="#e6e6e6"/>
    </g>
    <g>
      <path d="M238.14014,46.05664h1.31641c.85547,0,1.4834.29883,1.4834,1.208,0,.86719-.64648,1.26758-1.4834,1.26758h-.62207v1.43555h-.69434Zm1.25586,1.91992c.58691,0,.86133-.2334.86133-.71191,0-.49023-.293-.65234-.86133-.65234h-.56152v1.36426Z" fill="#e6e6e6"/>
      <path d="M241.65771,46.05664h.75977l.70605,1.92578.25684.74121h.02441l.25684-.74121.6875-1.92578h.76563v3.91113h-.65137V48.17969c0-.36523.05371-.88574.08984-1.24414h-.02441l-.31641.8916-.67578,1.77637h-.31738l-.67578-1.77637-.31152-.8916h-.02344c.0293.3584.084.87891.084,1.24414v1.78809h-.63477Z" fill="#e6e6e6"/>
      <path d="M247.32178,46.05664h2.36328v.58594h-1.66895V47.749h1.417V48.335h-1.417v1.63281h-.69434Z" fill="#e6e6e6"/>
      <path d="M250.34814,46.05664h1.25c.80176,0,1.39355.24512,1.39355.96289a.84805.84805,0,0,1-.66992.84863v.02441c.5625.0957.87988.40039.87988.92676,0,.78418-.63965,1.14844-1.501,1.14844h-1.35254Zm1.18457,1.62012c.55078,0,.77734-.209.77734-.57422,0-.3584-.251-.50781-.75977-.50781h-.50781v1.082Zm.0957,1.75293c.57422,0,.8916-.21484.8916-.6582,0-.40625-.31152-.59766-.8916-.59766h-.58594v1.25586Z" fill="#e6e6e6"/>
    </g>
    <g>
      <path d="M28.29834,89h1.041a1.95729,1.95729,0,0,1,.03613,3.91211H28.29834Zm.99316,3.34961c.78955,0,1.24414-.44824,1.24414-1.41113,0-.957-.45459-1.376-1.24414-1.376h-.29883v2.78711Z" fill="#e6e6e6"/>
      <path d="M31.97119,89.97461h.56836l.04785.52051h.02393a.99757.99757,0,0,1,.83154-.5918.74564.74564,0,0,1,.335.05957l-.11963.59863a.95279.95279,0,0,0-.30518-.04785c-.2334,0-.51465.16113-.69385.60352v1.79492h-.688Z" fill="#e6e6e6"/>
      <path d="M34.12451,89.07227a.42648.42648,0,1,1,.4248.38867A.39557.39557,0,0,1,34.12451,89.07227Zm.07764.90234h.688v2.9375h-.688Z" fill="#e6e6e6"/>
      <path d="M35.40479,89.97461h.69971L36.57129,91.5c.07764.28711.16748.58691.24512.88574h.02393c.084-.29883.16748-.59863.251-.88574l.4668-1.52539h.66406l-.999,2.9375h-.79541Z" fill="#e6e6e6"/>
      <path d="M39.855,89.90332c.79541,0,1.21387.57422,1.21387,1.39355a1.47542,1.47542,0,0,1-.02979.32324H39.17285a.843.843,0,0,0,.86768.83105,1.22525,1.22525,0,0,0,.68164-.21484l.2334.43066a1.85264,1.85264,0,0,1-1.00488.31641,1.54788,1.54788,0,0,1-.0957-3.08008Zm.61621,1.28027c0-.4668-.19775-.748-.59863-.748-.34668,0-.64551.25684-.70557.748Z" fill="#e6e6e6"/>
    </g>
    <g>
      <path d="M72.37256,89h2.36279v.58594H73.06689v1.10645h1.41748v.58691H73.06689v1.63281h-.69434Z" fill="#e6e6e6"/>
      <path d="M76.45264,89.90332a1.54768,1.54768,0,1,1-1.394,1.543A1.42182,1.42182,0,0,1,76.45264,89.90332Zm0,2.51855c.43066,0,.69336-.38965.69336-.97559,0-.5918-.2627-.98047-.69336-.98047s-.688.38867-.688.98047C75.76465,92.03223,76.022,92.42188,76.45264,92.42188Z" fill="#e6e6e6"/>
      <path d="M78.53369,88.68945h.688v3.50488c0,.167.07764.22754.14941.22754a.39081.39081,0,0,0,.10791-.0127l.08984.51465a.93775.93775,0,0,1-.36523.05957c-.49023,0-.66992-.31641-.66992-.8252Z" fill="#e6e6e6"/>
      <path d="M81.21973,89.90332a1.08436,1.08436,0,0,1,.77148.32324l-.02393-.47266V88.68945h.688v4.22266h-.56836l-.04785-.31738h-.02393a1.22215,1.22215,0,0,1-.83154.38867c-.73584,0-1.208-.56836-1.208-1.53711A1.38351,1.38351,0,0,1,81.21973,89.90332Zm.13135,2.51172a.79359.79359,0,0,0,.61621-.32812V90.7168a.87408.87408,0,0,0-.59814-.24512c-.377,0-.68213.35254-.68213.96875C80.687,92.07422,80.92627,92.415,81.35107,92.415Z" fill="#e6e6e6"/>
    </g>
    <g>
      <path d="M113.9165,91.85352h-1.30957l-.30566,1.05859h-.71191L112.86963,89h.81348l1.27441,3.91211h-.73535Zm-.15527-.54492-.1377-.47852c-.12012-.41211-.23926-.86133-.35254-1.292h-.02441c-.10742.43652-.22168.87988-.34668,1.292l-.1377.47852Z" fill="#e6e6e6"/>
      <path d="M115.3999,92.13477a1.30444,1.30444,0,0,0,.81348.32813c.31641,0,.46582-.14941.46582-.35254,0-.24512-.31641-.35254-.62793-.47266-.38867-.14355-.8252-.36426-.8252-.85547,0-.51367.41309-.87891,1.07031-.87891a1.58533,1.58533,0,0,1,.97559.35254l-.31738.41895a1.09168,1.09168,0,0,0-.64551-.251c-.293,0-.43066.1377-.43066.32324,0,.22656.293.32227.60938.43652.40137.14941.84375.34082.84375.89063,0,.50293-.40039.90918-1.14258.90918a1.85894,1.85894,0,0,1-1.1123-.40625Z" fill="#e6e6e6"/>
      <path d="M118.09717,93.56348a.61454.61454,0,0,0,.58594-.502l.05469-.18555-1.1543-2.90137h.69922l.50879,1.44238c.083.25684.167.5498.25684.8252h.02441c.07129-.26953.14941-.5625.2207-.8252l.44238-1.44238h.66406l-1.06445,3.06934c-.24512.66309-.5498,1.07617-1.19043,1.07617a1.141,1.141,0,0,1-.38281-.05957l.126-.53809A.73485.73485,0,0,0,118.09717,93.56348Z" fill="#e6e6e6"/>
      <path d="M120.90869,89.97461h.56836l.04785.40137h.02344a1.24318,1.24318,0,0,1,.89746-.47266.79874.79874,0,0,1,.81348.52637,1.33494,1.33494,0,0,1,.94531-.52637c.62207,0,.90918.4248.90918,1.166v1.84277h-.69434V91.15918c0-.48437-.14258-.66406-.44824-.66406a.91464.91464,0,0,0-.61621.36523v2.05176h-.6875V91.15918c0-.48437-.14355-.66406-.45508-.66406a.92492.92492,0,0,0-.61523.36523v2.05176h-.68848Z" fill="#e6e6e6"/>
    </g>
    <g>
      <path d="M157.55615,89h.75977l.70605,1.92578.25684.74219h.02441l.25684-.74219L160.24756,89h.76563v3.91211h-.65137V91.123c0-.36426.05371-.88477.08984-1.24414h-.02441l-.31641.8916-.67578,1.77637h-.31738l-.67578-1.77637-.31152-.8916h-.02344c.0293.35938.084.87988.084,1.24414v1.78906h-.63477Z" fill="#e6e6e6"/>
      <path d="M161.86279,89.07227a.42648.42648,0,1,1,.4248.38867A.39557.39557,0,0,1,161.86279,89.07227Zm.07813.90234h.6875v2.9375h-.6875Z" fill="#e6e6e6"/>
      <path d="M164.08838,91.38086l-.873-1.40625h.74121l.3291.55664c.084.16113.17969.335.26953.49609h.02441c.07129-.16113.15527-.335.22656-.49609l.28125-.55664h.71191l-.86719,1.4834.93262,1.4541h-.74121l-.35937-.58008c-.0957-.17383-.19727-.35352-.29883-.52051h-.02344c-.084.167-.17383.34082-.25781.52051l-.31055.58008h-.71777Z" fill="#e6e6e6"/>
    </g>
    <g>
      <path d="M194.73584,89h2.36328v.58594h-1.66895v1.10645h1.417v.58691h-1.417v1.63281h-.69434Z" fill="#e6e6e6"/>
      <path d="M197.76221,89h1.25c.80176,0,1.39355.24512,1.39355.96289a.84907.84907,0,0,1-.66992.84961v.02344a.90459.90459,0,0,1,.87988.92773c0,.7832-.63965,1.14844-1.501,1.14844h-1.35254Zm1.18457,1.62109c.55078,0,.77734-.209.77734-.57422,0-.35937-.251-.50879-.75977-.50879h-.50781v1.083Zm.0957,1.75293c.57422,0,.8916-.21582.8916-.6582,0-.40723-.31152-.59863-.8916-.59863h-.58594V92.374Z" fill="#e6e6e6"/>
      <path d="M202.5415,89h.75977l.70605,1.92578.25684.74219h.02441l.25684-.74219L205.23389,89h.76563v3.91211h-.65234V91.123c0-.36426.05371-.88477.08984-1.24414h-.02441l-.31641.8916-.67676,1.77637H204.103l-.67578-1.77637-.31152-.8916h-.02344c.0293.35938.083.87988.083,1.24414v1.78906h-.63379Z" fill="#e6e6e6"/>
      <path d="M206.84912,89.07227a.426.426,0,1,1,.42383.38867A.39474.39474,0,0,1,206.84912,89.07227Zm.07715.90234h.68848v2.9375h-.68848Z" fill="#e6e6e6"/>
      <path d="M209.07373,91.38086l-.873-1.40625h.74219l.32813.55664c.084.16113.17969.335.26953.49609h.02344c.07227-.16113.15625-.335.22754-.49609l.28125-.55664h.71191l-.86719,1.4834.93262,1.4541h-.74121l-.35937-.58008c-.0957-.17383-.19727-.35352-.29883-.52051h-.02344c-.084.167-.17383.34082-.25781.52051l-.31055.58008h-.71777Z" fill="#e6e6e6"/>
    </g>
    <g>
      <path d="M236.19385,92.91211l-.84375-1.53125h-.5918v1.53125H234.064V89h1.31641c.81348,0,1.44141.28711,1.44141,1.16016a1.09444,1.09444,0,0,1-.7832,1.11914l.93262,1.63281Zm-1.43555-2.082h.5498c.53906,0,.82617-.22656.82617-.66992,0-.44824-.28711-.60352-.82617-.60352h-.5498Z" fill="#e6e6e6"/>
      <path d="M237.49756,89.07227a.42648.42648,0,1,1,.4248.38867A.39557.39557,0,0,1,237.49756,89.07227Zm.07813.90234h.6875v2.9375h-.6875Z" fill="#e6e6e6"/>
      <path d="M239.14209,89.97461h.56836l.04785.39551h.02441a1.35974,1.35974,0,0,1,.96289-.4668c.62793,0,.90234.4248.90234,1.166v1.84277h-.6875V91.15918c0-.48437-.1377-.66406-.46094-.66406a.93331.93331,0,0,0-.66992.36523v2.05176h-.6875Z" fill="#e6e6e6"/>
      <path d="M242.71338,92.81641V92.792a.5524.5524,0,0,1-.26367-.49023.70544.70544,0,0,1,.32324-.54395V91.7334a.99192.99192,0,0,1-.38281-.77734,1.066,1.066,0,0,1,1.16016-1.05273,1.34166,1.34166,0,0,1,.43066.07129h1.05273v.50879h-.53809a.78346.78346,0,0,1,.168.49609.99661.99661,0,0,1-1.11328.999,1.08587,1.08587,0,0,1-.40039-.07715.33645.33645,0,0,0-.14355.28125c0,.167.11914.26855.47852.26855h.52051c.70508,0,1.07617.21582,1.07617.72363,0,.58008-.60937,1.03516-1.56641,1.03516-.7002,0-1.2207-.251-1.2207-.76562A.75568.75568,0,0,1,242.71338,92.81641Zm.90918.94531c.47266,0,.79492-.22168.79492-.47266,0-.22754-.18555-.293-.51953-.293h-.40137a1.5786,1.5786,0,0,1-.40039-.042.49393.49393,0,0,0-.22754.38867C242.86865,93.60547,243.15576,93.76172,243.62256,93.76172Zm.43652-2.80566a.51532.51532,0,1,0-1.02246,0,.51672.51672,0,1,0,1.02246,0Z" fill="#e6e6e6"/>
      <path d="M246.88232,89h.75977l.70605,1.92578.25684.74219h.02441l.25684-.74219L249.57373,89h.76563v3.91211H249.688V91.123c0-.36426.05371-.88477.08984-1.24414h-.02441l-.31641.8916-.67578,1.77637h-.31738l-.67578-1.77637-.31152-.8916h-.02344c.0293.35938.084.87988.084,1.24414v1.78906h-.63477Z" fill="#e6e6e6"/>
      <path d="M252.46924,89.90332a1.54774,1.54774,0,1,1-1.39355,1.543A1.42127,1.42127,0,0,1,252.46924,89.90332Zm0,2.51855c.43066,0,.69434-.38965.69434-.97559,0-.5918-.26367-.98047-.69434-.98047s-.6875.38867-.6875.98047C251.78174,92.03223,252.03857,92.42188,252.46924,92.42188Z" fill="#e6e6e6"/>
      <path d="M255.61572,89.90332a1.08751,1.08751,0,0,1,.77246.32324l-.02441-.47266V88.68945h.6875v4.22266h-.56738l-.04883-.31738h-.02344a1.221,1.221,0,0,1-.83105.38867c-.73633,0-1.209-.56836-1.209-1.53711A1.38381,1.38381,0,0,1,255.61572,89.90332Zm.13184,2.51172a.79359.79359,0,0,0,.61621-.32812V90.7168a.87348.87348,0,0,0-.59863-.24512c-.376,0-.68164.35254-.68164.96875C255.0835,92.07422,255.32275,92.415,255.74756,92.415Z" fill="#e6e6e6"/>
    </g>
    <g>
      <path d="M28.397,193.55957h1.31641c.855,0,1.4834.29883,1.4834,1.208,0,.86719-.64648,1.26758-1.4834,1.26758h-.62207v1.43555H28.397Zm1.25635,1.91992c.58643,0,.86133-.2334.86133-.71191,0-.49023-.293-.65234-.86133-.65234h-.562v1.36426Z" fill="#e6e6e6"/>
      <path d="M31.78271,193.63086a.42648.42648,0,1,1,.4248.38867A.39482.39482,0,0,1,31.78271,193.63086Zm.07764.90332h.688v2.93652h-.688Z" fill="#e6e6e6"/>
      <path d="M33.52979,195.07813h-.41895v-.51367l.45459-.03027.0835-.80176h.57422v.80176h.748v.54395h-.748v1.40039c0,.34668.13184.51367.41309.51367a.83435.83435,0,0,0,.30469-.06543l.12012.50879a1.88291,1.88291,0,0,1-.59863.10742c-.68164,0-.93262-.43066-.93262-1.06445Z" fill="#e6e6e6"/>
      <path d="M36.80762,194.46191a1.21317,1.21317,0,0,1,.86133.3418l-.3291.43652a.73229.73229,0,0,0-.49658-.21582c-.47266,0-.80127.38867-.80127.98145,0,.58594.32275.97461.78369.97461a.969.969,0,0,0,.604-.251l.28711.43652a1.47315,1.47315,0,0,1-.96338.377,1.39742,1.39742,0,0,1-1.41748-1.53711A1.449,1.449,0,0,1,36.80762,194.46191Z" fill="#e6e6e6"/>
      <path d="M38.29053,193.248h.688v1.08887l-.02393.56836a1.34587,1.34587,0,0,1,.939-.44336c.62842,0,.90332.4248.90332,1.167v1.8418h-.688v-1.752c0-.48437-.1377-.66406-.46045-.66406a.92924.92924,0,0,0-.66992.36426v2.05176h-.688Z" fill="#e6e6e6"/>
    </g>
    <g>
      <path d="M71.52979,193.55957h2.3623v.58594H72.22314V195.252h1.418v.58594h-1.418v1.63281h-.69336Z" fill="#e6e6e6"/>
      <path d="M74.50244,193.248h.688v3.50488c0,.168.07764.22754.14941.22754a.422.422,0,0,0,.10791-.01172l.08984.51465a.95643.95643,0,0,1-.36523.05957c-.49023,0-.66992-.31738-.66992-.8252Z" fill="#e6e6e6"/>
      <path d="M76.09326,194.53418h.688v1.75293c0,.48438.13721.66309.45459.66309.25684,0,.43066-.11914.65186-.40625v-2.00977h.688v2.93652h-.5625l-.05371-.43066h-.01807a1.19607,1.19607,0,0,1-.94482.50293c-.62793,0-.90332-.4248-.90332-1.167Z" fill="#e6e6e6"/>
      <path d="M80.72949,194.46191a1.21317,1.21317,0,0,1,.86133.3418l-.3291.43652a.73229.73229,0,0,0-.49658-.21582c-.47266,0-.80127.38867-.80127.98145,0,.58594.32275.97461.78369.97461a.969.969,0,0,0,.604-.251l.28711.43652a1.47315,1.47315,0,0,1-.96338.377,1.39742,1.39742,0,0,1-1.41748-1.53711A1.449,1.449,0,0,1,80.72949,194.46191Z" fill="#e6e6e6"/>
      <path d="M82.314,195.07813h-.41846v-.51367l.45459-.03027.084-.80176h.57422v.80176h.74756v.54395H83.0083v1.40039c0,.34668.13135.51367.4126.51367a.83915.83915,0,0,0,.30518-.06543l.11914.50879a1.87648,1.87648,0,0,1-.59766.10742c-.68213,0-.93359-.43066-.93359-1.06445Z" fill="#e6e6e6"/>
    </g>
    <g>
      <path d="M111.25732,193.55957h1.31641c.85547,0,1.4834.29883,1.4834,1.208,0,.86719-.64648,1.26758-1.4834,1.26758h-.62207v1.43555h-.69434Zm1.25586,1.91992c.58691,0,.86133-.2334.86133-.71191,0-.49023-.293-.65234-.86133-.65234h-.56152v1.36426Z" fill="#e6e6e6"/>
      <path d="M114.72119,193.248h.68848v1.08887l-.02441.56836a1.346,1.346,0,0,1,.93945-.44336c.62793,0,.90332.4248.90332,1.167v1.8418h-.68848v-1.752c0-.48437-.1377-.66406-.46-.66406a.9284.9284,0,0,0-.66992.36426v2.05176h-.68848Z" fill="#e6e6e6"/>
      <path d="M119.66162,195.59277c-.00586-.31055-.1377-.57422-.5332-.57422a1.63774,1.63774,0,0,0-.8252.28711l-.251-.46094a2.27784,2.27784,0,0,1,1.20215-.38281c.73535,0,1.09473.44922,1.09473,1.26855v1.74023h-.5625l-.05371-.32227h-.01758a1.43434,1.43434,0,0,1-.90918.39453.82533.82533,0,0,1-.873-.86133C117.93311,196.05371,118.4585,195.72461,119.66162,195.59277Zm-.64062,1.41211a.92583.92583,0,0,0,.64063-.32324v-.6582c-.7959.10156-1.05859.31152-1.05859.60449C118.603,196.89063,118.77588,197.00488,119.021,197.00488Z" fill="#e6e6e6"/>
      <path d="M121.21729,196.69336a1.30791,1.30791,0,0,0,.81348.3291c.31641,0,.4668-.14941.4668-.35254,0-.24609-.31738-.35352-.62891-.47266-.38867-.14355-.8252-.36523-.8252-.85547,0-.51465.41309-.87988,1.07129-.87988a1.58517,1.58517,0,0,1,.97461.35352l-.31738.41895a1.08673,1.08673,0,0,0-.64551-.252c-.293,0-.43066.1377-.43066.32324,0,.22754.293.32324.61035.43652.40039.14941.84277.34082.84277.8916,0,.502-.40039.90918-1.14258.90918a1.85984,1.85984,0,0,1-1.1123-.40723Z" fill="#e6e6e6"/>
      <path d="M124.92529,194.46191c.7959,0,1.21484.57422,1.21484,1.39453a1.43127,1.43127,0,0,1-.03027.32227h-1.86621a.84317.84317,0,0,0,.86719.832,1.2227,1.2227,0,0,0,.68164-.21582l.2334.43066a1.84952,1.84952,0,0,1-1.00488.31738,1.54847,1.54847,0,0,1-.0957-3.08105Zm.61621,1.28027c0-.4668-.19727-.74707-.59766-.74707-.34668,0-.64648.25684-.70605.74707Z" fill="#e6e6e6"/>
    </g>
    <g>
      <path d="M152.51123,193.55957h1.31641c.85547,0,1.4834.29883,1.4834,1.208,0,.86719-.64648,1.26758-1.4834,1.26758h-.62207v1.43555h-.69434Zm1.25586,1.91992c.58691,0,.86133-.2334.86133-.71191,0-.49023-.293-.65234-.86133-.65234h-.56152v1.36426Z" fill="#e6e6e6"/>
      <path d="M156.02881,193.55957h.75977l.70605,1.92578.25684.74121h.02441l.25684-.74121.6875-1.92578h.76563v3.91113h-.65137v-1.78809c0-.36523.05371-.88574.08984-1.24414h-.02441l-.31641.8916-.67578,1.77637h-.31738l-.67578-1.77637-.31152-.8916h-.02344c.0293.3584.084.87891.084,1.24414v1.78809h-.63477Z" fill="#e6e6e6"/>
      <path d="M161.82471,196.49609a1.56045,1.56045,0,0,0,1.02246.44238c.4375,0,.68262-.19727.68262-.502,0-.32324-.252-.4248-.61035-.57422l-.53223-.2334a1.12127,1.12127,0,0,1-.79-1.041,1.18818,1.18818,0,0,1,1.31055-1.10059,1.73315,1.73315,0,0,1,1.208.49609l-.35937.44336a1.25818,1.25818,0,0,0-.84863-.335c-.37109,0-.61035.17285-.61035.46,0,.30566.29883.41895.62207.55078l.52637.2207a1.08859,1.08859,0,0,1,.78906,1.05957,1.24328,1.24328,0,0,1-1.40527,1.16016,2.01267,2.01267,0,0,1-1.40527-.57422Z" fill="#e6e6e6"/>
      <path d="M166.0415,194.46191c.7959,0,1.21484.57422,1.21484,1.39453a1.49111,1.49111,0,0,1-.03027.32227h-1.86621a.84317.84317,0,0,0,.86719.832,1.23063,1.23063,0,0,0,.68262-.21582l.23242.43066a1.85213,1.85213,0,0,1-1.00488.31738,1.54847,1.54847,0,0,1-.0957-3.08105Zm.61621,1.28027c0-.4668-.19727-.74707-.59766-.74707-.34766,0-.64648.25684-.70605.74707Z" fill="#e6e6e6"/>
      <path d="M167.91357,193.248h.6875v3.50488c0,.168.07813.22754.15039.22754a.42059.42059,0,0,0,.10742-.01172l.08984.51465a.9546.9546,0,0,1-.36523.05957c-.49023,0-.66992-.31738-.66992-.8252Z" fill="#e6e6e6"/>
      <path d="M171.03662,193.792a.81433.81433,0,0,0-.32324-.07129c-.23926,0-.37109.15527-.37109.49609v.31738h.57422v.54395h-.57422v2.39258h-.6875v-2.39258h-.39551v-.51367l.39551-.03027v-.30469c0-.61035.28027-1.05273.97461-1.05273a1.48622,1.48622,0,0,1,.53809.10156Z" fill="#e6e6e6"/>
    </g>
    <g>
      <path d="M196.82861,193.55957H198.145c.85547,0,1.4834.29883,1.4834,1.208,0,.86719-.64648,1.26758-1.4834,1.26758h-.62207v1.43555h-.69434Zm1.25684,1.91992c.58594,0,.86133-.2334.86133-.71191,0-.49023-.29395-.65234-.86133-.65234h-.5625v1.36426Z" fill="#e6e6e6"/>
      <path d="M200.34619,193.55957h.75977l.70605,1.92578.25684.74121h.02441l.25684-.74121.68848-1.92578h.76563v3.91113h-.65234v-1.78809c0-.36523.05371-.88574.08984-1.24414h-.02441l-.31641.8916-.67676,1.77637h-.31641l-.67578-1.77637-.31152-.8916H200.897c.0293.3584.083.87891.083,1.24414v1.78809h-.63379Z" fill="#e6e6e6"/>
      <path d="M207.82275,196.41211h-1.30957l-.30566,1.05859h-.71191l1.28027-3.91113h.81348l1.27441,3.91113h-.73535Zm-.15527-.54395-.1377-.47852c-.12012-.41309-.23926-.86133-.35254-1.292h-.02441c-.10742.43652-.22168.87891-.34668,1.292l-.1377.47852Z" fill="#e6e6e6"/>
    </g>
    <g>
      <path d="M238.14014,193.55957h1.31641c.85547,0,1.4834.29883,1.4834,1.208,0,.86719-.64648,1.26758-1.4834,1.26758h-.62207v1.43555h-.69434Zm1.25586,1.91992c.58691,0,.86133-.2334.86133-.71191,0-.49023-.293-.65234-.86133-.65234h-.56152v1.36426Z" fill="#e6e6e6"/>
      <path d="M241.65771,193.55957h.75977l.70605,1.92578.25684.74121h.02441l.25684-.74121.6875-1.92578h.76563v3.91113h-.65137v-1.78809c0-.36523.05371-.88574.08984-1.24414h-.02441l-.31641.8916-.67578,1.77637h-.31738l-.67578-1.77637-.31152-.8916h-.02344c.0293.3584.084.87891.084,1.24414v1.78809h-.63477Z" fill="#e6e6e6"/>
      <path d="M247.32178,193.55957h2.36328v.58594h-1.66895V195.252h1.417v.58594h-1.417v1.63281h-.69434Z" fill="#e6e6e6"/>
      <path d="M250.34814,193.55957h1.25c.80176,0,1.39355.24512,1.39355.96289a.84805.84805,0,0,1-.66992.84863v.02441c.5625.0957.87988.40039.87988.92676,0,.78418-.63965,1.14844-1.501,1.14844h-1.35254Zm1.18457,1.62012c.55078,0,.77734-.209.77734-.57422,0-.3584-.251-.50781-.75977-.50781h-.50781v1.082Zm.0957,1.75293c.57422,0,.8916-.21484.8916-.6582,0-.40625-.31152-.59766-.8916-.59766h-.58594v1.25586Z" fill="#e6e6e6"/>
    </g>
    <g>
      <path d="M28.29834,150.61719h1.041a1.95678,1.95678,0,0,1,.03613,3.91113H28.29834Zm.99316,3.34961c.78955,0,1.24414-.44922,1.24414-1.41211,0-.957-.45459-1.376-1.24414-1.376h-.29883v2.78809Z" fill="#e6e6e6"/>
      <path d="M31.97119,151.5918h.56836l.04785.52051h.02393a.99882.99882,0,0,1,.83154-.59277.74442.74442,0,0,1,.335.06055l-.11963.59766a.9806.9806,0,0,0-.30518-.04785c-.2334,0-.51465.16211-.69385.60449v1.79395h-.688Z" fill="#e6e6e6"/>
      <path d="M34.12451,150.68848a.42648.42648,0,1,1,.4248.38867A.39482.39482,0,0,1,34.12451,150.68848Zm.07764.90332h.688v2.93652h-.688Z" fill="#e6e6e6"/>
      <path d="M35.40479,151.5918h.69971l.4668,1.52539c.07764.28711.16748.58594.24512.88477h.02393c.084-.29883.16748-.59766.251-.88477l.4668-1.52539h.66406l-.999,2.93652h-.79541Z" fill="#e6e6e6"/>
      <path d="M39.855,151.51953c.79541,0,1.21387.57422,1.21387,1.39453a1.46548,1.46548,0,0,1-.02979.32227H39.17285a.84387.84387,0,0,0,.86768.832,1.22632,1.22632,0,0,0,.68164-.21582l.2334.43066a1.85343,1.85343,0,0,1-1.00488.31738,1.54841,1.54841,0,0,1-.0957-3.08105Zm.61621,1.28027c0-.4668-.19775-.74707-.59863-.74707-.34668,0-.64551.25684-.70557.74707Z" fill="#e6e6e6"/>
    </g>
    <g>
      <path d="M72.37256,150.61719h2.36279v.58594H73.06689v1.10645h1.41748v.58594H73.06689v1.63281h-.69434Z" fill="#e6e6e6"/>
      <path d="M76.45264,151.51953a1.54822,1.54822,0,1,1-1.394,1.54395A1.42213,1.42213,0,0,1,76.45264,151.51953Zm0,2.51855c.43066,0,.69336-.38867.69336-.97461,0-.59277-.2627-.98145-.69336-.98145s-.688.38867-.688.98145C75.76465,153.64941,76.022,154.03809,76.45264,154.03809Z" fill="#e6e6e6"/>
      <path d="M78.53369,150.30566h.688v3.50488c0,.168.07764.22754.14941.22754a.422.422,0,0,0,.10791-.01172l.08984.51465a.95643.95643,0,0,1-.36523.05957c-.49023,0-.66992-.31738-.66992-.8252Z" fill="#e6e6e6"/>
      <path d="M81.21973,151.51953a1.08436,1.08436,0,0,1,.77148.32324l-.02393-.47266v-1.06445h.688v4.22266h-.56836l-.04785-.31641h-.02393a1.22637,1.22637,0,0,1-.83154.38867c-.73584,0-1.208-.56836-1.208-1.53711A1.38448,1.38448,0,0,1,81.21973,151.51953Zm.13135,2.5127a.792.792,0,0,0,.61621-.3291V152.333a.87863.87863,0,0,0-.59814-.24512c-.377,0-.68213.35352-.68213.96973C80.687,153.69141,80.92627,154.03223,81.35107,154.03223Z" fill="#e6e6e6"/>
    </g>
    <g>
      <path d="M113.9165,153.46973h-1.30957l-.30566,1.05859h-.71191l1.28027-3.91113h.81348l1.27441,3.91113h-.73535Zm-.15527-.54395-.1377-.47852c-.12012-.41309-.23926-.86133-.35254-1.292h-.02441c-.10742.43652-.22168.87891-.34668,1.292l-.1377.47852Z" fill="#e6e6e6"/>
      <path d="M115.3999,153.751a1.30574,1.30574,0,0,0,.81348.3291c.31641,0,.46582-.14941.46582-.35254,0-.24609-.31641-.35352-.62793-.47266-.38867-.14355-.8252-.36523-.8252-.85547,0-.51465.41309-.87988,1.07031-.87988a1.58581,1.58581,0,0,1,.97559.35352l-.31738.41895a1.08673,1.08673,0,0,0-.64551-.252c-.293,0-.43066.1377-.43066.32324,0,.22754.293.32324.60938.43652.40137.14941.84375.34082.84375.8916,0,.502-.40039.90918-1.14258.90918a1.85984,1.85984,0,0,1-1.1123-.40723Z" fill="#e6e6e6"/>
      <path d="M118.09717,155.18066a.61448.61448,0,0,0,.58594-.50293l.05469-.18457-1.1543-2.90137h.69922l.50879,1.44141c.083.25684.167.55078.25684.8252h.02441c.07129-.26855.14941-.56152.2207-.8252l.44238-1.44141h.66406l-1.06445,3.06836c-.24512.66406-.5498,1.07715-1.19043,1.07715a1.139,1.139,0,0,1-.38281-.06055l.126-.53809A.734.734,0,0,0,118.09717,155.18066Z" fill="#e6e6e6"/>
      <path d="M120.90869,151.5918h.56836l.04785.40039h.02344a1.2466,1.2466,0,0,1,.89746-.47266.79991.79991,0,0,1,.81348.52637,1.33494,1.33494,0,0,1,.94531-.52637c.62207,0,.90918.4248.90918,1.167v1.8418h-.69434v-1.752c0-.48437-.14258-.66406-.44824-.66406a.91262.91262,0,0,0-.61621.36426v2.05176h-.6875v-1.752c0-.48437-.14355-.66406-.45508-.66406a.92282.92282,0,0,0-.61523.36426v2.05176h-.68848Z" fill="#e6e6e6"/>
    </g>
    <g>
      <path d="M157.55615,150.61719h.75977l.70605,1.92578.25684.74121h.02441l.25684-.74121.6875-1.92578h.76563v3.91113h-.65137v-1.78809c0-.36523.05371-.88574.08984-1.24414h-.02441l-.31641.8916-.67578,1.77637h-.31738l-.67578-1.77637-.31152-.8916h-.02344c.0293.3584.084.87891.084,1.24414v1.78809h-.63477Z" fill="#e6e6e6"/>
      <path d="M161.86279,150.68848a.42648.42648,0,1,1,.4248.38867A.39482.39482,0,0,1,161.86279,150.68848Zm.07813.90332h.6875v2.93652h-.6875Z" fill="#e6e6e6"/>
      <path d="M164.08838,152.99707l-.873-1.40527h.74121l.3291.55664c.084.16113.17969.335.26953.49609h.02441c.07129-.16113.15527-.335.22656-.49609l.28125-.55664h.71191l-.86719,1.4834.93262,1.45313h-.74121l-.35937-.58008c-.0957-.17285-.19727-.35254-.29883-.52051h-.02344c-.084.168-.17383.34082-.25781.52051l-.31055.58008h-.71777Z" fill="#e6e6e6"/>
    </g>
    <g>
      <path d="M194.73584,150.61719h2.36328v.58594h-1.66895v1.10645h1.417v.58594h-1.417v1.63281h-.69434Z" fill="#e6e6e6"/>
      <path d="M197.76221,150.61719h1.25c.80176,0,1.39355.24512,1.39355.96289a.84805.84805,0,0,1-.66992.84863v.02441c.5625.0957.87988.40039.87988.92676,0,.78418-.63965,1.14844-1.501,1.14844h-1.35254Zm1.18457,1.62012c.55078,0,.77734-.209.77734-.57422,0-.3584-.251-.50781-.75977-.50781h-.50781v1.082Zm.0957,1.75293c.57422,0,.8916-.21484.8916-.6582,0-.40625-.31152-.59766-.8916-.59766h-.58594v1.25586Z" fill="#e6e6e6"/>
      <path d="M202.5415,150.61719h.75977l.70605,1.92578.25684.74121h.02441l.25684-.74121.68848-1.92578h.76563v3.91113h-.65234v-1.78809c0-.36523.05371-.88574.08984-1.24414h-.02441l-.31641.8916-.67676,1.77637H204.103l-.67578-1.77637-.31152-.8916h-.02344c.0293.3584.083.87891.083,1.24414v1.78809h-.63379Z" fill="#e6e6e6"/>
      <path d="M206.84912,150.68848a.426.426,0,1,1,.42383.38867A.394.394,0,0,1,206.84912,150.68848Zm.07715.90332h.68848v2.93652h-.68848Z" fill="#e6e6e6"/>
      <path d="M209.07373,152.99707l-.873-1.40527h.74219l.32813.55664c.084.16113.17969.335.26953.49609h.02344c.07227-.16113.15625-.335.22754-.49609l.28125-.55664h.71191l-.86719,1.4834.93262,1.45313h-.74121l-.35937-.58008c-.0957-.17285-.19727-.35254-.29883-.52051h-.02344c-.084.168-.17383.34082-.25781.52051l-.31055.58008h-.71777Z" fill="#e6e6e6"/>
    </g>
    <g>
      <path d="M236.19385,154.52832l-.84375-1.53125h-.5918v1.53125H234.064v-3.91113h1.31641c.81348,0,1.44141.28711,1.44141,1.16016a1.09325,1.09325,0,0,1-.7832,1.11816l.93262,1.63281Zm-1.43555-2.08105h.5498c.53906,0,.82617-.22754.82617-.66992,0-.44922-.28711-.60449-.82617-.60449h-.5498Z" fill="#e6e6e6"/>
      <path d="M237.49756,150.68848a.42648.42648,0,1,1,.4248.38867A.39482.39482,0,0,1,237.49756,150.68848Zm.07813.90332h.6875v2.93652h-.6875Z" fill="#e6e6e6"/>
      <path d="M239.14209,151.5918h.56836l.04785.39453h.02441a1.3635,1.3635,0,0,1,.96289-.4668c.62793,0,.90234.4248.90234,1.167v1.8418h-.6875v-1.752c0-.48437-.1377-.66406-.46094-.66406a.93178.93178,0,0,0-.66992.36426v2.05176h-.6875Z" fill="#e6e6e6"/>
      <path d="M242.71338,154.43262v-.02344a.5524.5524,0,0,1-.26367-.49023.70882.70882,0,0,1,.32324-.54492v-.02344a.99242.99242,0,0,1-.38281-.77832,1.066,1.066,0,0,1,1.16016-1.05273,1.31428,1.31428,0,0,1,.43066.07227h1.05273v.50879h-.53809a.78346.78346,0,0,1,.168.49609.99661.99661,0,0,1-1.11328.999,1.08767,1.08767,0,0,1-.40039-.07812.33774.33774,0,0,0-.14355.28125c0,.168.11914.26953.47852.26953h.52051c.70508,0,1.07617.21484,1.07617.72363,0,.58008-.60937,1.03418-1.56641,1.03418-.7002,0-1.2207-.251-1.2207-.76562A.75692.75692,0,0,1,242.71338,154.43262Zm.90918.94531c.47266,0,.79492-.22168.79492-.47266,0-.22754-.18555-.293-.51953-.293h-.40137a1.53533,1.53533,0,0,1-.40039-.042.49532.49532,0,0,0-.22754.38867C242.86865,155.22266,243.15576,155.37793,243.62256,155.37793Zm.43652-2.80566a.51532.51532,0,1,0-1.02246,0,.51684.51684,0,1,0,1.02246,0Z" fill="#e6e6e6"/>
      <path d="M246.88232,150.61719h.75977l.70605,1.92578.25684.74121h.02441l.25684-.74121.6875-1.92578h.76563v3.91113H249.688v-1.78809c0-.36523.05371-.88574.08984-1.24414h-.02441l-.31641.8916-.67578,1.77637h-.31738l-.67578-1.77637-.31152-.8916h-.02344c.0293.3584.084.87891.084,1.24414v1.78809h-.63477Z" fill="#e6e6e6"/>
      <path d="M252.46924,151.51953a1.54828,1.54828,0,1,1-1.39355,1.54395A1.42159,1.42159,0,0,1,252.46924,151.51953Zm0,2.51855c.43066,0,.69434-.38867.69434-.97461,0-.59277-.26367-.98145-.69434-.98145s-.6875.38867-.6875.98145C251.78174,153.64941,252.03857,154.03809,252.46924,154.03809Z" fill="#e6e6e6"/>
      <path d="M255.61572,151.51953a1.08752,1.08752,0,0,1,.77246.32324l-.02441-.47266v-1.06445h.6875v4.22266h-.56738l-.04883-.31641h-.02344a1.22523,1.22523,0,0,1-.83105.38867c-.73633,0-1.209-.56836-1.209-1.53711A1.38479,1.38479,0,0,1,255.61572,151.51953Zm.13184,2.5127a.792.792,0,0,0,.61621-.3291V152.333a.878.878,0,0,0-.59863-.24512c-.376,0-.68164.35352-.68164.96973C255.0835,153.69141,255.32275,154.03223,255.74756,154.03223Z" fill="#e6e6e6"/>
    </g>
  </g>
  <g id="Modul_Header" data-name="Modul Header">
    <path d="M264.19817,24.27262H6.53494V15.937a1,1,0,0,1,1-1H263.19817a1,1,0,0,1,1,1Z" fill="#282828"/>
    <path d="M264.19817,67.21649H6.53494V58.88087a1,1,0,0,1,1-1H263.19817a1,1,0,0,1,1,1Z" fill="#282828"/>
    <path d="M7.53494,162.43986H263.19817a1,1,0,0,1,1,1v8.33562a0,0,0,0,1,0,0H6.53494a0,0,0,0,1,0,0v-8.33562A1,1,0,0,1,7.53494,162.43986Z" fill="#282828"/>
    <path d="M7.53494,119.496H263.19817a1,1,0,0,1,1,1v8.33562a0,0,0,0,1,0,0H6.53494a0,0,0,0,1,0,0V120.496A1,1,0,0,1,7.53494,119.496Z" fill="#282828"/>
  </g>
  <g id="Knöppe">
    <rect x="23.33906" y="30.80756" width="22.4055" height="9.33562" rx="0.5" ry="0.5" stroke="#252525" stroke-miterlimit="10" stroke-width="0.25" fill="url(#linear-gradient)"/>
    <rect x="66.28293" y="30.80756" width="22.4055" height="9.33562" rx="0.5" ry="0.5" stroke="#252525" stroke-miterlimit="10" stroke-width="0.25" fill="url(#linear-gradient-2)"/>
    <rect x="107.35968" y="30.80756" width="22.4055" height="9.33562" rx="0.5" ry="0.5" stroke="#252525" stroke-miterlimit="10" stroke-width="0.25" fill="url(#linear-gradient-3)"/>
    <rect x="150.30355" y="30.80756" width="22.4055" height="9.33562" rx="0.5" ry="0.5" stroke="#252525" stroke-miterlimit="10" stroke-width="0.25" fill="url(#linear-gradient-4)"/>
    <rect x="191.38667" y="30.80756" width="22.4055" height="9.33562" rx="0.5" ry="0.5" stroke="#252525" stroke-miterlimit="10" stroke-width="0.25" fill="url(#linear-gradient-5)"/>
    <rect x="234.32417" y="30.80756" width="22.4055" height="9.33562" rx="0.5" ry="0.5" stroke="#252525" stroke-miterlimit="10" stroke-width="0.25" fill="url(#linear-gradient-6)"/>
    <rect x="23.33906" y="73.75143" width="22.4055" height="9.33562" rx="0.5" ry="0.5" stroke="#252525" stroke-miterlimit="10" stroke-width="0.25" fill="url(#linear-gradient-7)"/>
    <rect x="66.28293" y="73.75143" width="22.4055" height="9.33562" rx="0.5" ry="0.5" stroke="#252525" stroke-miterlimit="10" stroke-width="0.25" fill="url(#linear-gradient-8)"/>
    <rect x="107.35968" y="73.75143" width="22.4055" height="9.33562" rx="0.5" ry="0.5" stroke="#252525" stroke-miterlimit="10" stroke-width="0.25" fill="url(#linear-gradient-9)"/>
    <rect x="150.30355" y="73.75143" width="22.4055" height="9.33562" rx="0.5" ry="0.5" stroke="#252525" stroke-miterlimit="10" stroke-width="0.25" fill="url(#linear-gradient-10)"/>
    <rect x="191.38667" y="73.75143" width="22.4055" height="9.33562" rx="0.5" ry="0.5" stroke="#252525" stroke-miterlimit="10" stroke-width="0.25" fill="url(#linear-gradient-11)"/>
    <rect x="234.32417" y="73.75143" width="22.4055" height="9.33562" rx="0.5" ry="0.5" stroke="#252525" stroke-miterlimit="10" stroke-width="0.25" fill="url(#linear-gradient-12)"/>
    <rect x="23.33906" y="178.31042" width="22.4055" height="9.33562" rx="0.5" ry="0.5" stroke="#252525" stroke-miterlimit="10" stroke-width="0.25" fill="url(#linear-gradient-13)"/>
    <rect x="66.28293" y="178.31042" width="22.4055" height="9.33562" rx="0.5" ry="0.5" stroke="#252525" stroke-miterlimit="10" stroke-width="0.25" fill="url(#linear-gradient-14)"/>
    <rect x="107.35968" y="178.31042" width="22.4055" height="9.33562" rx="0.5" ry="0.5" stroke="#252525" stroke-miterlimit="10" stroke-width="0.25" fill="url(#linear-gradient-15)"/>
    <rect x="150.30355" y="178.31042" width="22.4055" height="9.33562" rx="0.5" ry="0.5" stroke="#252525" stroke-miterlimit="10" stroke-width="0.25" fill="url(#linear-gradient-16)"/>
    <rect x="191.38667" y="178.31042" width="22.4055" height="9.33562" rx="0.5" ry="0.5" stroke="#252525" stroke-miterlimit="10" stroke-width="0.25" fill="url(#linear-gradient-17)"/>
    <rect x="234.32417" y="178.31042" width="22.4055" height="9.33562" rx="0.5" ry="0.5" stroke="#252525" stroke-miterlimit="10" stroke-width="0.25" fill="url(#linear-gradient-18)"/>
    <rect x="23.33906" y="135.36655" width="22.4055" height="9.33562" rx="0.5" ry="0.5" stroke="#252525" stroke-miterlimit="10" stroke-width="0.25" fill="url(#linear-gradient-19)"/>
    <rect x="66.28293" y="135.36655" width="22.4055" height="9.33562" rx="0.5" ry="0.5" stroke="#252525" stroke-miterlimit="10" stroke-width="0.25" fill="url(#linear-gradient-20)"/>
    <rect x="107.35968" y="135.36655" width="22.4055" height="9.33562" rx="0.5" ry="0.5" stroke="#252525" stroke-miterlimit="10" stroke-width="0.25" fill="url(#linear-gradient-21)"/>
    <rect x="150.30355" y="135.36655" width="22.4055" height="9.33562" rx="0.5" ry="0.5" stroke="#252525" stroke-miterlimit="10" stroke-width="0.25" fill="url(#linear-gradient-22)"/>
    <rect x="191.38667" y="135.36655" width="22.4055" height="9.33562" rx="0.5" ry="0.5" stroke="#252525" stroke-miterlimit="10" stroke-width="0.25" fill="url(#linear-gradient-23)"/>
    <rect x="234.32417" y="135.36655" width="22.4055" height="9.33562" rx="0.5" ry="0.5" stroke="#252525" stroke-miterlimit="10" stroke-width="0.25" fill="url(#linear-gradient-24)"/>
  </g>
  <g id="Modul_Head_Typo" data-name="Modul Head Typo">
    <g>
      <path d="M117.32764,19.98828c0-1.26172.70605-2.00977,1.72852-2.00977,1.0166,0,1.72266.748,1.72266,2.00977,0,1.26855-.70605,2.0459-1.72266,2.0459C118.03369,22.03418,117.32764,21.25684,117.32764,19.98828Zm2.73926,0c0-.873-.40039-1.40527-1.01074-1.40527-.61621,0-1.0166.53223-1.0166,1.40527,0,.87891.40039,1.44141,1.0166,1.44141C119.6665,21.42969,120.06689,20.86719,120.06689,19.98828Z" fill="#cfb199"/>
      <path d="M121.68213,20.9873a1.56045,1.56045,0,0,0,1.02246.44238c.4375,0,.68262-.19727.68262-.502,0-.32324-.252-.4248-.61035-.57422l-.53223-.2334a1.12127,1.12127,0,0,1-.79-1.041,1.18818,1.18818,0,0,1,1.31055-1.10059,1.73315,1.73315,0,0,1,1.208.49609l-.35937.44336a1.25818,1.25818,0,0,0-.84863-.335c-.37109,0-.61035.17285-.61035.46,0,.30566.29883.41895.62207.55078l.52637.2207a1.08859,1.08859,0,0,1,.78906,1.05957,1.24328,1.24328,0,0,1-1.40527,1.16016,2.01267,2.01267,0,0,1-1.40527-.57422Z" fill="#cfb199"/>
      <path d="M126.39014,17.97852a1.533,1.533,0,0,1,1.1123.49609l-.38281.43066a.99555.99555,0,0,0-.72363-.32227c-.64062,0-1.10059.53809-1.10059,1.417,0,.8916.4248,1.42969,1.07617,1.42969a1.05851,1.05851,0,0,0,.8252-.38867l.38281.4248a1.55947,1.55947,0,0,1-1.21973.56836,1.79358,1.79358,0,0,1-1.77637-2.01562A1.83944,1.83944,0,0,1,126.39014,17.97852Z" fill="#cfb199"/>
      <path d="M128.21924,18.05078h.69434v3.91113h-.69434Z" fill="#cfb199"/>
      <path d="M129.88818,18.05078h.69434V21.376h1.62109v.58594h-2.31543Z" fill="#cfb199"/>
      <path d="M132.87354,18.05078h.69434V21.376H135.189v.58594h-2.31543Z" fill="#cfb199"/>
      <path d="M137.67041,20.90332h-1.30957l-.30566,1.05859h-.71191l1.28027-3.91113h.81348l1.27441,3.91113h-.73535Zm-.15527-.54395-.1377-.47852c-.12012-.41309-.23926-.86133-.35254-1.292h-.02441c-.10742.43652-.22168.87891-.34668,1.292l-.1377.47852Z" fill="#cfb199"/>
      <path d="M139.729,18.63672h-1.13086v-.58594h2.94922v.58594h-1.125v3.3252H139.729Z" fill="#cfb199"/>
      <path d="M141.82178,19.98828c0-1.26172.70605-2.00977,1.72852-2.00977,1.0166,0,1.72266.748,1.72266,2.00977,0,1.26855-.70605,2.0459-1.72266,2.0459C142.52783,22.03418,141.82178,21.25684,141.82178,19.98828Zm2.73926,0c0-.873-.40039-1.40527-1.01074-1.40527-.61621,0-1.0166.53223-1.0166,1.40527,0,.87891.40039,1.44141,1.0166,1.44141C144.16064,21.42969,144.561,20.86719,144.561,19.98828Z" fill="#cfb199"/>
      <path d="M148.17432,21.96191l-.84375-1.53125h-.5918v1.53125h-.69434V18.05078h1.31641c.81348,0,1.44141.28711,1.44141,1.16016a1.09325,1.09325,0,0,1-.7832,1.11816l.93262,1.63281Zm-1.43555-2.08105h.5498c.53906,0,.82617-.22754.82617-.66992,0-.44922-.28711-.60449-.82617-.60449h-.5498Z" fill="#cfb199"/>
      <path d="M152.64893,20.90332h-1.30957l-.30566,1.05859h-.71191l1.28027-3.91113h.81348l1.27441,3.91113h-.73535Zm-.15527-.54395-.1377-.47852c-.12012-.41309-.23926-.86133-.35254-1.292H151.979c-.10742.43652-.22168.87891-.34668,1.292l-.1377.47852Z" fill="#cfb199"/>
    </g>
    <g>
      <path d="M123.312,63.93066a1.55685,1.55685,0,0,0,1.02246.44336c.43652,0,.68262-.19727.68262-.50293,0-.32324-.252-.4248-.61035-.57422l-.53223-.2334a1.119,1.119,0,0,1-.79-1.04,1.18818,1.18818,0,0,1,1.31055-1.10059,1.73138,1.73138,0,0,1,1.208.49609l-.35937.44238a1.26286,1.26286,0,0,0-.84863-.335c-.37109,0-.61035.17383-.61035.46094,0,.30469.29883.41895.62207.5498l.52637.22168a1.08657,1.08657,0,0,1,.78906,1.05859,1.24328,1.24328,0,0,1-1.40527,1.16016,2.00843,2.00843,0,0,1-1.40527-.57422Z" fill="#cfb199"/>
      <path d="M126.42236,60.99414h.69434v1.57324h1.5791V60.99414h.69336v3.91211h-.69336V63.17188h-1.5791v1.73438h-.69434Z" fill="#cfb199"/>
      <path d="M132.18213,63.84766h-1.30957l-.30566,1.05859H129.855l1.28027-3.91211h.81348l1.27441,3.91211h-.73535Zm-.15527-.54492-.1377-.47852c-.12012-.41211-.23926-.86133-.35254-1.292h-.02441c-.10742.43652-.22168.87988-.34668,1.292l-.1377.47852Z" fill="#cfb199"/>
      <path d="M133.68994,60.99414h1.31641c.85547,0,1.4834.29883,1.4834,1.208,0,.86719-.64648,1.26855-1.4834,1.26855h-.62207v1.43555h-.69434Zm1.25684,1.91992c.58594,0,.86133-.2334.86133-.71191,0-.49023-.29395-.65137-.86133-.65137h-.5625v1.36328Z" fill="#cfb199"/>
      <path d="M137.20654,60.99414h2.35059v.58594h-1.65625v.999h1.40527V63.165h-1.40527v1.15527h1.7168v.58594h-2.41113Z" fill="#cfb199"/>
      <path d="M142.53076,64.90625,141.687,63.375h-.5918v1.53125h-.69434V60.99414h1.31641c.81348,0,1.44141.28711,1.44141,1.16016a1.09413,1.09413,0,0,1-.78418,1.11914l.93359,1.63281Zm-1.43555-2.082h.5498c.53809,0,.8252-.22656.8252-.66992,0-.44824-.28711-.60352-.8252-.60352h-.5498Z" fill="#cfb199"/>
      <path d="M147.00439,63.84766h-1.30957l-.30566,1.05859h-.71191l1.28027-3.91211h.81348l1.27441,3.91211h-.73535Zm-.15527-.54492-.1377-.47852c-.12012-.41211-.23926-.86133-.35254-1.292h-.02441c-.10742.43652-.22168.87988-.34668,1.292l-.1377.47852Z" fill="#cfb199"/>
    </g>
    <g>
      <path d="M117.21143,167.49121c0-1.26172.70605-2.00977,1.72852-2.00977,1.0166,0,1.72266.748,1.72266,2.00977,0,1.26855-.70605,2.0459-1.72266,2.0459C117.91748,169.53711,117.21143,168.75977,117.21143,167.49121Zm2.73926,0c0-.873-.40039-1.40527-1.01074-1.40527-.61621,0-1.0166.53223-1.0166,1.40527,0,.87891.40039,1.44141,1.0166,1.44141C119.55029,168.93262,119.95068,168.37012,119.95068,167.49121Z" fill="#e3d8ac"/>
      <path d="M121.56592,168.49023a1.56045,1.56045,0,0,0,1.02246.44238c.43652,0,.68262-.19727.68262-.502,0-.32324-.252-.4248-.61035-.57422l-.53223-.2334a1.12127,1.12127,0,0,1-.79-1.041,1.18818,1.18818,0,0,1,1.31055-1.10059,1.73138,1.73138,0,0,1,1.208.49609l-.35937.44336a1.25818,1.25818,0,0,0-.84863-.335c-.37109,0-.61035.17285-.61035.46,0,.30566.29883.41895.62207.55078l.52637.2207a1.08859,1.08859,0,0,1,.78906,1.05957,1.24328,1.24328,0,0,1-1.40527,1.16016,2.01267,2.01267,0,0,1-1.40527-.57422Z" fill="#e3d8ac"/>
      <path d="M126.27393,165.48145a1.533,1.533,0,0,1,1.1123.49609l-.38281.43066a.99555.99555,0,0,0-.72363-.32227c-.64062,0-1.10059.53809-1.10059,1.417,0,.8916.4248,1.42969,1.07617,1.42969a1.06048,1.06048,0,0,0,.82617-.38867l.38281.4248a1.56286,1.56286,0,0,1-1.2207.56836,1.79358,1.79358,0,0,1-1.77637-2.01562A1.83944,1.83944,0,0,1,126.27393,165.48145Z" fill="#e3d8ac"/>
      <path d="M128.103,165.55371h.69434v3.91113H128.103Z" fill="#e3d8ac"/>
      <path d="M129.772,165.55371h.69434v3.3252h1.62109v.58594H129.772Z" fill="#e3d8ac"/>
      <path d="M132.75732,165.55371h.69434v3.3252h1.62109v.58594h-2.31543Z" fill="#e3d8ac"/>
      <path d="M137.5542,168.40625h-1.30957l-.30566,1.05859H135.228l1.2793-3.91113h.81348l1.27441,3.91113h-.73633Zm-.15527-.54395-.1377-.47852c-.11914-.41309-.23926-.86133-.35254-1.292h-.02441c-.10742.43652-.2207.87891-.34668,1.292l-.1377.47852Z" fill="#e3d8ac"/>
      <path d="M139.61279,166.13965h-1.13086v-.58594h2.94922v.58594h-1.125v3.3252h-.69336Z" fill="#e3d8ac"/>
      <path d="M141.70557,167.49121c0-1.26172.70605-2.00977,1.72852-2.00977,1.0166,0,1.72266.748,1.72266,2.00977,0,1.26855-.70605,2.0459-1.72266,2.0459C142.41162,169.53711,141.70557,168.75977,141.70557,167.49121Zm2.73926,0c0-.873-.40039-1.40527-1.01074-1.40527-.61621,0-1.0166.53223-1.0166,1.40527,0,.87891.40039,1.44141,1.0166,1.44141C144.04443,168.93262,144.44482,168.37012,144.44482,167.49121Z" fill="#e3d8ac"/>
      <path d="M148.05811,169.46484l-.84375-1.53125h-.5918v1.53125h-.69434v-3.91113h1.31641c.81348,0,1.44141.28711,1.44141,1.16016a1.093,1.093,0,0,1-.78418,1.11816l.93359,1.63281Zm-1.43555-2.08105h.5498c.53809,0,.8252-.22754.8252-.66992,0-.44922-.28711-.60449-.8252-.60449h-.5498Z" fill="#e3d8ac"/>
      <path d="M150.72021,165.55371h1.25c.80176,0,1.39453.24512,1.39453.96289a.849.849,0,0,1-.66992.84863v.02441c.56152.0957.87891.40039.87891.92676,0,.78418-.64062,1.14844-1.502,1.14844h-1.35156Zm1.18457,1.62012c.5498,0,.77734-.209.77734-.57422,0-.3584-.251-.50781-.75977-.50781h-.50781v1.082Zm.0957,1.75293c.57422,0,.8916-.21484.8916-.6582,0-.40625-.31152-.59766-.8916-.59766h-.58594v1.25586Z" fill="#e3d8ac"/>
    </g>
    <g>
      <path d="M123.1958,125.5459a1.56045,1.56045,0,0,0,1.02246.44238c.4375,0,.68262-.19727.68262-.502,0-.32324-.252-.4248-.61035-.57422l-.53223-.2334a1.12127,1.12127,0,0,1-.79-1.041,1.18818,1.18818,0,0,1,1.31055-1.10059,1.73315,1.73315,0,0,1,1.208.49609l-.35937.44336a1.25818,1.25818,0,0,0-.84863-.335c-.37109,0-.61035.17285-.61035.46,0,.30566.29883.41895.62207.55078l.52637.2207a1.08859,1.08859,0,0,1,.78906,1.05957,1.24328,1.24328,0,0,1-1.40527,1.16016,2.01267,2.01267,0,0,1-1.40527-.57422Z" fill="#e3d8ac"/>
      <path d="M126.30615,122.60938h.69434v1.57227h1.5791v-1.57227h.69336v3.91113h-.69336v-1.73437h-1.5791v1.73438h-.69434Z" fill="#e3d8ac"/>
      <path d="M132.06592,125.46191h-1.30957l-.30566,1.05859h-.71094l1.2793-3.91113h.81348l1.27441,3.91113h-.73633Zm-.15527-.54395-.1377-.47852c-.11914-.41309-.23926-.86133-.35254-1.292H131.396c-.10742.43652-.2207.87891-.34668,1.292l-.1377.47852Z" fill="#e3d8ac"/>
      <path d="M133.57373,122.60938h1.31641c.85547,0,1.4834.29883,1.4834,1.208,0,.86719-.64648,1.26758-1.4834,1.26758h-.62207v1.43555h-.69434Zm1.25586,1.91992c.58691,0,.86133-.2334.86133-.71191,0-.49023-.293-.65234-.86133-.65234h-.56152v1.36426Z" fill="#e3d8ac"/>
      <path d="M137.09033,122.60938h2.35059v.58594h-1.65625v.999h1.40527v.58594h-1.40527v1.1543h1.7168v.58594h-2.41113Z" fill="#e3d8ac"/>
      <path d="M142.41455,126.52051l-.84375-1.53125h-.5918v1.53125h-.69434v-3.91113h1.31641c.81348,0,1.44141.28711,1.44141,1.16016a1.09325,1.09325,0,0,1-.7832,1.11816l.93262,1.63281Zm-1.43555-2.08105h.5498c.53906,0,.82617-.22754.82617-.66992,0-.44922-.28711-.60449-.82617-.60449h-.5498Z" fill="#e3d8ac"/>
      <path d="M145.07568,122.60938h1.25c.80176,0,1.39453.24512,1.39453.96289a.849.849,0,0,1-.66992.84863v.02441c.56152.0957.87891.40039.87891.92676,0,.78418-.64062,1.14844-1.502,1.14844h-1.35156Zm1.18457,1.62012c.5498,0,.77734-.209.77734-.57422,0-.3584-.251-.50781-.75977-.50781H145.77v1.082Zm.0957,1.75293c.57422,0,.8916-.21484.8916-.6582,0-.40625-.31152-.59766-.8916-.59766H145.77v1.25586Z" fill="#e3d8ac"/>
    </g>
  </g>
</svg>
