<svg xmlns="http://www.w3.org/2000/svg" xmlns:xlink="http://www.w3.org/1999/xlink" viewBox="0 0 270 214"><defs><linearGradient id="a" x1="34.86588" y1="30.80756" x2="34.86588" y2="40.14318" gradientUnits="userSpaceOnUse"><stop offset="0" stop-color="#e6e6e6"/><stop offset="0.1144" stop-color="#e0e0e0"/><stop offset="0.27295" stop-color="#cecece"/><stop offset="0.45731" stop-color="#b0b0b0"/><stop offset="0.66114" stop-color="#878787"/><stop offset="0.87829" stop-color="#535353"/><stop offset="1" stop-color="#333"/></linearGradient><linearGradient id="b" x1="77.80975" y1="30.80756" x2="77.80975" y2="40.14318" xlink:href="#a"/><linearGradient id="c" x1="118.88649" y1="30.80756" x2="118.88649" y2="40.14318" xlink:href="#a"/><linearGradient id="d" x1="161.83037" y1="30.80756" x2="161.83037" y2="40.14318" xlink:href="#a"/><linearGradient id="e" x1="202.91348" y1="30.80756" x2="202.91348" y2="40.14318" xlink:href="#a"/><linearGradient id="f" x1="245.85098" y1="30.80756" x2="245.85098" y2="40.14318" xlink:href="#a"/><linearGradient id="g" x1="34.86588" y1="73.75143" x2="34.86588" y2="83.08706" xlink:href="#a"/><linearGradient id="h" x1="77.80975" y1="73.75143" x2="77.80975" y2="83.08706" xlink:href="#a"/><linearGradient id="i" x1="118.88649" y1="73.75143" x2="118.88649" y2="83.08706" xlink:href="#a"/><linearGradient id="j" x1="161.83037" y1="73.75143" x2="161.83037" y2="83.08706" xlink:href="#a"/><linearGradient id="k" x1="202.91348" y1="73.75143" x2="202.91348" y2="83.08706" xlink:href="#a"/><linearGradient id="l" x1="245.85098" y1="73.75143" x2="245.85098" y2="83.08706" xlink:href="#a"/><linearGradient id="m" x1="34.86588" y1="178.31042" x2="34.86588" y2="187.64605" xlink:href="#a"/><linearGradient id="n" x1="77.80975" y1="178.31042" x2="77.80975" y2="187.64605" xlink:href="#a"/><linearGradient id="o" x1="118.88649" y1="178.31042" x2="118.88649" y2="187.64605" xlink:href="#a"/><linearGradient id="p" x1="161.83037" y1="178.31042" x2="161.83037" y2="187.64605" xlink:href="#a"/><linearGradient id="q" x1="202.91348" y1="178.31042" x2="202.91348" y2="187.64605" xlink:href="#a"/><linearGradient id="r" x1="245.85098" y1="178.31042" x2="245.85098" y2="187.64605" xlink:href="#a"/><linearGradient id="s" x1="34.86588" y1="135.36655" x2="34.86588" y2="144.70218" xlink:href="#a"/><linearGradient id="t" x1="77.80975" y1="135.36655" x2="77.80975" y2="144.70218" xlink:href="#a"/><linearGradient id="u" x1="118.88649" y1="135.36655" x2="118.88649" y2="144.70218" xlink:href="#a"/><linearGradient id="v" x1="161.83037" y1="135.36655" x2="161.83037" y2="144.70218" xlink:href="#a"/><linearGradient id="w" x1="202.91348" y1="135.36655" x2="202.91348" y2="144.70218" xlink:href="#a"/><linearGradient id="x" x1="245.85098" y1="135.36655" x2="245.85098" y2="144.70218" xlink:href="#a"/></defs><title>pan_pp3</title><rect x="0.25019" y="0.25" width="269.5" height="213.5" rx="2.75" ry="2.75" fill="#1a1a1a"/><path d="M266.99994.5a2.50282,2.50282,0,0,1,2.5,2.5V211a2.50279,2.50279,0,0,1-2.5,2.5H3A2.50282,2.50282,0,0,1,.5,211V3A2.50286,2.50286,0,0,1,3,.5H266.99994m0-.5H3A3,3,0,0,0,0,3V211a3,3,0,0,0,3,3H266.99994a3,3,0,0,0,3-3V3a3,3,0,0,0-3-3Z" fill="#4d4d4d"/><rect x="6.60859" y="14.68652" width="258.16406" height="39.70996" rx="1.25" ry="1.25" fill="#414141"/><path d="M263.52228,14.937a1,1,0,0,1,1,1v37.2096a1,1,0,0,1-1,1H7.859a1,1,0,0,1-1-1V15.937a1,1,0,0,1,1-1H263.52228m0-.5H7.859a1.50172,1.50172,0,0,0-1.5,1.5v37.2096a1.50173,1.50173,0,0,0,1.5,1.5H263.52228a1.50168,1.50168,0,0,0,1.5-1.5V15.937a1.50168,1.50168,0,0,0-1.5-1.5Z" fill="#ced2d9"/><rect x="6.60859" y="57.63086" width="258.16406" height="39.70996" rx="1.25" ry="1.25" fill="#414141"/><path d="M263.52228,57.88086a1,1,0,0,1,1,1V96.09052a1.00005,1.00005,0,0,1-1,1H7.859a1,1,0,0,1-1-1V58.88086a1,1,0,0,1,1-1H263.52228m0-.5H7.859a1.50172,1.50172,0,0,0-1.5,1.5V96.09052a1.50173,1.50173,0,0,0,1.5,1.5H263.52228a1.50168,1.50168,0,0,0,1.5-1.5V58.88086a1.50168,1.50168,0,0,0-1.5-1.5Z" fill="#a0d98f"/><rect x="6.60859" y="162.18945" width="258.16406" height="39.70996" rx="1.25" ry="1.25" fill="#414141"/><path d="M263.52228,162.43982a1,1,0,0,1,1,1v37.20972a1.00005,1.00005,0,0,1-1,1H7.859a1,1,0,0,1-1-1V163.43982a1,1,0,0,1,1-1H263.52228m0-.5H7.859a1.50168,1.50168,0,0,0-1.5,1.5v37.20972a1.50169,1.50169,0,0,0,1.5,1.5H263.52228a1.50164,1.50164,0,0,0,1.5-1.5V163.43982a1.50164,1.50164,0,0,0-1.5-1.5Z" fill="#ced2d9"/><rect x="6.60859" y="119.24609" width="258.16406" height="39.70996" rx="1.25" ry="1.25" fill="#414141"/><path d="M263.52228,119.496a1.00005,1.00005,0,0,1,1,1v37.2096a1,1,0,0,1-1,1H7.859a.99994.99994,0,0,1-1-1V120.496a1,1,0,0,1,1-1H263.52228m0-.5H7.859a1.50172,1.50172,0,0,0-1.5,1.5v37.2096a1.50169,1.50169,0,0,0,1.5,1.5H263.52228a1.50164,1.50164,0,0,0,1.5-1.5V120.496a1.50168,1.50168,0,0,0-1.5-1.5Z" fill="#74d4cf"/><circle cx="100.21525" cy="88.70275" r="1.21363" fill="#e6e6e6"/><circle cx="143.15912" cy="94.56987" r="1.21363" fill="#e6e6e6"/><circle cx="184.23586" cy="150.58362" r="1.21363" fill="#e6e6e6"/><path d="M184.23591,45.09442a.93021.93021,0,1,1-.93018.93024.93123.93123,0,0,1,.93018-.93024m0-.28345a1.21366,1.21366,0,1,0,1.21362,1.21369,1.21365,1.21365,0,0,0-1.21362-1.21369Z" fill="#e6e6e6"/><path d="M184.23591,48.82867a.93021.93021,0,1,1-.93018.93018.93122.93122,0,0,1,.93018-.93018m0-.28344a1.21365,1.21365,0,1,0,1.21362,1.21362,1.21363,1.21363,0,0,0-1.21362-1.21362Z" fill="#e6e6e6"/><path d="M227.17975,46.96155a.93021.93021,0,1,1-.93017.93017.93122.93122,0,0,1,.93017-.93017m0-.28345a1.21366,1.21366,0,1,0,1.21363,1.21362,1.21364,1.21364,0,0,0-1.21363-1.21362Z" fill="#e6e6e6"/><path d="M184.23591,88.03833a.93018.93018,0,1,1-.93018.93018.93122.93122,0,0,1,.93018-.93018m0-.28345a1.21363,1.21363,0,1,0,1.21362,1.21363,1.2136,1.2136,0,0,0-1.21362-1.21363Z" fill="#e6e6e6"/><path d="M184.23591,91.77258a.93018.93018,0,1,1-.93018.93018.93122.93122,0,0,1,.93018-.93018m0-.28344a1.21362,1.21362,0,1,0,1.21362,1.21362,1.2136,1.2136,0,0,0-1.21362-1.21362Z" fill="#e6e6e6"/><path d="M100.21528,92.03833a.93018.93018,0,1,1-.93024.93018.93126.93126,0,0,1,.93024-.93018m0-.28345a1.21363,1.21363,0,1,0,1.21362,1.21363,1.21365,1.21365,0,0,0-1.21362-1.21363Z" fill="#e6e6e6"/><path d="M59.13849,88.03833a.93018.93018,0,1,1-.93017.93018.93126.93126,0,0,1,.93017-.93018m0-.28345a1.21363,1.21363,0,1,0,1.21363,1.21363,1.2136,1.2136,0,0,0-1.21363-1.21363Z" fill="#e6e6e6"/><path d="M59.13849,91.77258a.93018.93018,0,1,1-.93017.93018.93126.93126,0,0,1,.93017-.93018m0-.28344a1.21362,1.21362,0,1,0,1.21363,1.21362,1.21359,1.21359,0,0,0-1.21363-1.21362Z" fill="#e6e6e6"/><path d="M227.17975,89.90546a.93018.93018,0,1,1-.93017.93017.93122.93122,0,0,1,.93017-.93017m0-.28345a1.21363,1.21363,0,1,0,1.21363,1.21362,1.21359,1.21359,0,0,0-1.21363-1.21362Z" fill="#e6e6e6"/><path d="M143.15912,89.90546a.93018.93018,0,1,1-.93017.93017.93122.93122,0,0,1,.93017-.93017m0-.28345a1.21363,1.21363,0,1,0,1.21363,1.21362,1.21359,1.21359,0,0,0-1.21363-1.21362Z" fill="#e6e6e6"/><path d="M143.15912,86.1712a.93018.93018,0,1,1-.93017.93018.93122.93122,0,0,1,.93017-.93018m0-.28344a1.21362,1.21362,0,1,0,1.21363,1.21362,1.21359,1.21359,0,0,0-1.21363-1.21362Z" fill="#e6e6e6"/><path d="M59.13849,194.46448a.93018.93018,0,1,1-.93017.93017.93122.93122,0,0,1,.93017-.93017m0-.28345a1.21363,1.21363,0,1,0,1.21363,1.21362,1.2136,1.2136,0,0,0-1.21363-1.21362Z" fill="#e6e6e6"/><path d="M100.21528,194.46448a.93018.93018,0,1,1-.93024.93017.93121.93121,0,0,1,.93024-.93017m0-.28345a1.21363,1.21363,0,1,0,1.21362,1.21362,1.21365,1.21365,0,0,0-1.21362-1.21362Z" fill="#e6e6e6"/><path d="M16.19465,194.46448a.93018.93018,0,1,1-.93018.93017.93121.93121,0,0,1,.93018-.93017m0-.28345a1.21363,1.21363,0,1,0,1.21362,1.21362,1.2136,1.2136,0,0,0-1.21362-1.21362Z" fill="#e6e6e6"/><path d="M143.15912,194.46448a.93018.93018,0,1,1-.93017.93017.93118.93118,0,0,1,.93017-.93017m0-.28345a1.21363,1.21363,0,1,0,1.21363,1.21362,1.2136,1.2136,0,0,0-1.21363-1.21362Z" fill="#e6e6e6"/><path d="M184.23591,192.59729a.93018.93018,0,1,1-.93018.93018.93118.93118,0,0,1,.93018-.93018m0-.28345a1.21363,1.21363,0,1,0,1.21362,1.21363,1.2136,1.2136,0,0,0-1.21362-1.21363Z" fill="#e6e6e6"/><path d="M184.23591,196.33154a.93018.93018,0,1,1-.93018.93018.93118.93118,0,0,1,.93018-.93018m0-.28344a1.21362,1.21362,0,1,0,1.21362,1.21362,1.2136,1.2136,0,0,0-1.21362-1.21362Z" fill="#e6e6e6"/><path d="M227.17975,194.46448a.93018.93018,0,1,1-.93017.93017.93118.93118,0,0,1,.93017-.93017m0-.28345a1.21363,1.21363,0,1,0,1.21363,1.21362,1.2136,1.2136,0,0,0-1.21363-1.21362Z" fill="#e6e6e6"/><path d="M227.17975,151.52051a.93024.93024,0,1,1-.93017.93017.93118.93118,0,0,1,.93017-.93017m0-.28345a1.21369,1.21369,0,1,0,1.21363,1.21362,1.21368,1.21368,0,0,0-1.21363-1.21362Z" fill="#e6e6e6"/><path d="M100.21528,153.3877a.93018.93018,0,1,1-.93024.93017.93121.93121,0,0,1,.93024-.93017m0-.28345a1.21362,1.21362,0,1,0,1.21362,1.21362,1.21365,1.21365,0,0,0-1.21362-1.21362Z" fill="#e6e6e6"/><path d="M100.21528,149.65344a.93018.93018,0,1,1-.93024.93018.93122.93122,0,0,1,.93024-.93018m0-.28344a1.21362,1.21362,0,1,0,1.21362,1.21362,1.21365,1.21365,0,0,0-1.21362-1.21362Z" fill="#e6e6e6"/><path d="M143.15912,153.3877a.93018.93018,0,1,1-.93017.93017.93118.93118,0,0,1,.93017-.93017m0-.28345a1.21362,1.21362,0,1,0,1.21363,1.21362,1.21359,1.21359,0,0,0-1.21363-1.21362Z" fill="#e6e6e6"/><path d="M143.15912,149.65344a.93018.93018,0,1,1-.93017.93018.93119.93119,0,0,1,.93017-.93018m0-.28344a1.21362,1.21362,0,1,0,1.21363,1.21362,1.21359,1.21359,0,0,0-1.21363-1.21362Z" fill="#e6e6e6"/><path d="M184.23591,153.3877a.93018.93018,0,1,1-.93018.93017.93117.93117,0,0,1,.93018-.93017m0-.28345a1.21362,1.21362,0,1,0,1.21362,1.21362,1.2136,1.2136,0,0,0-1.21362-1.21362Z" fill="#e6e6e6"/><circle cx="16.19463" cy="35.47537" r="2.80069" fill="#b3b3b3" stroke="#252525" stroke-miterlimit="10" stroke-width="0.3"/><circle cx="59.1385" cy="35.39267" r="2.80069" fill="#b3b3b3" stroke="#252525" stroke-miterlimit="10" stroke-width="0.3"/><circle cx="100.21525" cy="35.39267" r="2.80069" fill="#b3b3b3" stroke="#252525" stroke-miterlimit="10" stroke-width="0.3"/><circle cx="143.15912" cy="35.39267" r="2.80069" fill="#b3b3b3" stroke="#252525" stroke-miterlimit="10" stroke-width="0.3"/><circle cx="184.23586" cy="35.39267" r="2.80069" fill="#b3b3b3" stroke="#252525" stroke-miterlimit="10" stroke-width="0.3"/><circle cx="227.17974" cy="35.39267" r="2.80069" fill="#b3b3b3" stroke="#252525" stroke-miterlimit="10" stroke-width="0.3"/><circle cx="16.19463" cy="78.41924" r="2.80069" fill="#b3b3b3" stroke="#252525" stroke-miterlimit="10" stroke-width="0.3"/><circle cx="59.1385" cy="78.33655" r="2.80069" fill="#b3b3b3" stroke="#252525" stroke-miterlimit="10" stroke-width="0.3"/><circle cx="100.21525" cy="78.33655" r="2.80069" fill="#b3b3b3" stroke="#252525" stroke-miterlimit="10" stroke-width="0.3"/><circle cx="143.15912" cy="78.33655" r="2.80069" fill="#b3b3b3" stroke="#252525" stroke-miterlimit="10" stroke-width="0.3"/><circle cx="184.23586" cy="78.33655" r="2.80069" fill="#b3b3b3" stroke="#252525" stroke-miterlimit="10" stroke-width="0.3"/><circle cx="227.17974" cy="78.33655" r="2.80069" fill="#b3b3b3" stroke="#252525" stroke-miterlimit="10" stroke-width="0.3"/><circle cx="16.19463" cy="182.97824" r="2.80069" fill="#b3b3b3" stroke="#252525" stroke-miterlimit="10" stroke-width="0.3"/><circle cx="59.1385" cy="182.89554" r="2.80069" fill="#b3b3b3" stroke="#252525" stroke-miterlimit="10" stroke-width="0.3"/><circle cx="100.21525" cy="182.89554" r="2.80069" fill="#b3b3b3" stroke="#252525" stroke-miterlimit="10" stroke-width="0.3"/><circle cx="143.15912" cy="182.89554" r="2.80069" fill="#b3b3b3" stroke="#252525" stroke-miterlimit="10" stroke-width="0.3"/><circle cx="184.23586" cy="182.89554" r="2.80069" fill="#b3b3b3" stroke="#252525" stroke-miterlimit="10" stroke-width="0.3"/><circle cx="227.17974" cy="182.89554" r="2.80069" fill="#b3b3b3" stroke="#252525" stroke-miterlimit="10" stroke-width="0.3"/><circle cx="16.19463" cy="140.03436" r="2.80069" fill="#b3b3b3" stroke="#252525" stroke-miterlimit="10" stroke-width="0.3"/><circle cx="59.1385" cy="139.95167" r="2.80069" fill="#b3b3b3" stroke="#252525" stroke-miterlimit="10" stroke-width="0.3"/><circle cx="100.21525" cy="139.95167" r="2.80069" fill="#b3b3b3" stroke="#252525" stroke-miterlimit="10" stroke-width="0.3"/><circle cx="143.15912" cy="139.95167" r="2.80069" fill="#b3b3b3" stroke="#252525" stroke-miterlimit="10" stroke-width="0.3"/><circle cx="184.23586" cy="139.95167" r="2.80069" fill="#b3b3b3" stroke="#252525" stroke-miterlimit="10" stroke-width="0.3"/><circle cx="227.17974" cy="139.95167" r="2.80069" fill="#b3b3b3" stroke="#252525" stroke-miterlimit="10" stroke-width="0.3"/><path d="M27.59784,48.02441a1.83652,1.83652,0,0,1,1.78809-2.04,1.55392,1.55392,0,0,1,1.13086.49609l-.37109.44922a1.01992,1.01992,0,0,0-.74121-.34082c-.63965,0-1.09473.53808-1.09473,1.417,0,.8916.41894,1.42969,1.07617,1.42969a1.11451,1.11451,0,0,0,.83789-.40039l.37109.43652a1.57787,1.57787,0,0,1-1.23242.56836A1.78854,1.78854,0,0,1,27.59784,48.02441Z" fill="#e6e6e6"/><path d="M30.99531,48.50293A1.40291,1.40291,0,1,1,32.38886,50.04,1.42117,1.42117,0,0,1,30.99531,48.50293Zm2.08789,0c0-.59277-.26368-.98145-.69434-.98145s-.6875.38868-.6875.98145c0,.58594.25684.97461.6875.97461S33.0832,49.08887,33.0832,48.50293Z" fill="#e6e6e6"/><path d="M34.47089,47.03125h.56836l.04785.40039h.02344A1.24661,1.24661,0,0,1,36.008,46.959a.79993.79993,0,0,1,.81348.52637,1.33494,1.33494,0,0,1,.94531-.52637c.62207,0,.90918.42481.90918,1.167v1.84179h-.69434v-1.752c0-.48437-.14257-.66406-.44824-.66406a.91261.91261,0,0,0-.61621.36426v2.05175h-.6875v-1.752c0-.48437-.14355-.66406-.45508-.66406a.92281.92281,0,0,0-.61523.36426v2.05175h-.68848Z" fill="#e6e6e6"/><path d="M40.135,49.65723h-.01757l-.05957.31054h-.54493V45.74512h.6875V46.834l-.01757.49024a1.34413,1.34413,0,0,1,.8496-.36524c.73536,0,1.16016.58692,1.16016,1.49024,0,1.01074-.60351,1.59082-1.25586,1.59082A1.17378,1.17378,0,0,1,40.135,49.65723Zm1.34571-1.19629c0-.58594-.19141-.9336-.63379-.9336a.94329.94329,0,0,0-.64649.32911v1.37011a.91741.91741,0,0,0,.59278.24512C41.18183,49.47168,41.48066,49.125,41.48066,48.46094Z" fill="#e6e6e6"/><path d="M67.425,49.46582l.40625-.47266a1.55875,1.55875,0,0,0,1.01758.44239c.44238,0,.68164-.19727.68164-.502,0-.32324-.252-.4248-.60449-.57421l-.53809-.2334a1.12877,1.12877,0,0,1-.79-1.041,1.19029,1.19029,0,0,1,1.31641-1.10058,1.728,1.728,0,0,1,1.20215.49609l-.35254.44336a1.27371,1.27371,0,0,0-.84961-.335c-.37109,0-.61621.17285-.61621.46,0,.30566.29883.41894.62207.55078l.53223.2207a1.09631,1.09631,0,0,1,.79,1.05957A1.24365,1.24365,0,0,1,68.83613,50.04,2.02836,2.02836,0,0,1,67.425,49.46582Z" fill="#e6e6e6"/><path d="M70.43281,46.05664h.73632l.54981,1.96777c.126.44239.21582.8252.34765,1.27344H72.09c.13184-.44824.22168-.831.34082-1.27344l.54492-1.96777h.71094l-1.21387,3.91113h-.81933Z" fill="#e6e6e6"/><path d="M75.35566,46.05664h2.36328v.58594H76.05V47.749h1.42383V48.335H76.05v1.63281h-.69433Z" fill="#e6e6e6"/><path d="M78.26874,46.12793a.42648.42648,0,1,1,.42481.38867A.39483.39483,0,0,1,78.26874,46.12793Zm.07813.90332h.6875v2.93652h-.6875Z" fill="#e6e6e6"/><path d="M79.91425,49.21484V45.74512h.68848V49.25c0,.168.07715.22754.14941.22754a.42052.42052,0,0,0,.10742-.01172l.08985.51465a.95841.95841,0,0,1-.36524.05957C80.09394,50.04,79.91425,49.72266,79.91425,49.21484Z" fill="#e6e6e6"/><path d="M81.63691,48.97559V47.5752H81.218v-.51368l.45508-.03027.084-.80176h.57422v.80176h.74707v.544h-.74707v1.40039c0,.34668.13086.51367.41211.51367a.84189.84189,0,0,0,.30567-.06543l.11914.50879a1.874,1.874,0,0,1-.59766.10742C81.88788,50.04,81.63691,49.60938,81.63691,48.97559Z" fill="#e6e6e6"/><path d="M83.40741,48.50293A1.43,1.43,0,0,1,84.759,46.959c.7959,0,1.21484.57422,1.21484,1.39454a1.56694,1.56694,0,0,1-.03027.335H84.07734a.84076.84076,0,0,0,.86718.81933,1.22264,1.22264,0,0,0,.68164-.21582l.2334.43067a1.84957,1.84957,0,0,1-1.00488.31738A1.416,1.416,0,0,1,83.40741,48.50293Zm1.96778-.28125c0-.45508-.19727-.72949-.59766-.72949a.73745.73745,0,0,0-.70605.72949Z" fill="#e6e6e6"/><path d="M86.63105,47.03125h.56836l.04785.52051h.02344a.99948.99948,0,0,1,.832-.59278.74447.74447,0,0,1,.335.06055l-.12012.59766a.97265.97265,0,0,0-.30469-.04785c-.23339,0-.51464.16211-.69336.60449v1.79394h-.68847Z" fill="#e6e6e6"/><path d="M110.74921,46.05664h2.35742v.58594h-1.66308v.999h1.40527v.58594h-1.40527v1.1543h1.72265v.58593h-2.417Z" fill="#e6e6e6"/><path d="M115.82734,47.5752H114.715v2.39257h-.6875V47.5752H113.632v-.51368l.39551-.03027v-.25684a.93164.93164,0,0,1,1.0166-1.041,1.45426,1.45426,0,0,1,.57422.10742l-.13183.51465a.78931.78931,0,0,0-.3711-.07813c-.24511,0-.40039.168-.40039.49707v.25684h1.11231v-.30469c0-.61035.27539-1.05273.96875-1.05273a1.46649,1.46649,0,0,1,.53906.10156l-.13184.51367a.7638.7638,0,0,0-.31738-.07129c-.24512,0-.37012.15528-.37012.4961v.31738H117.09v.544h-.57422v2.39257h-.68847Z" fill="#e6e6e6"/><path d="M117.35273,48.50293a1.43,1.43,0,0,1,1.35156-1.544c.7959,0,1.21484.57422,1.21484,1.39454a1.56694,1.56694,0,0,1-.03027.335h-1.86621a.84076.84076,0,0,0,.86719.81933,1.22269,1.22269,0,0,0,.68164-.21582l.2334.43067A1.8496,1.8496,0,0,1,118.8,50.04,1.416,1.416,0,0,1,117.35273,48.50293Zm1.96777-.28125c0-.45508-.19726-.72949-.59766-.72949a.73745.73745,0,0,0-.70605.72949Z" fill="#e6e6e6"/><path d="M120.38593,48.50293a1.44878,1.44878,0,0,1,1.47168-1.544,1.2656,1.2656,0,0,1,.86133.32911l-.335.44921a.71689.71689,0,0,0-.49024-.21582c-.47265,0-.80175.38868-.80175.98145,0,.58594.32324.97461.7832.97461a.98.98,0,0,0,.60449-.251l.28125.4541a1.46761,1.46761,0,0,1-.957.35938A1.39752,1.39752,0,0,1,120.38593,48.50293Z" fill="#e6e6e6"/><path d="M123.382,48.97559V47.5752h-.418v-.51368l.4541-.03027.084-.80176h.57422v.80176h.74707v.544h-.74707v1.40039c0,.34668.13184.51367.41211.51367a.83738.83738,0,0,0,.30566-.06543l.11914.50879a1.87384,1.87384,0,0,1-.59765.10742C123.634,50.04,123.382,49.60938,123.382,48.97559Z" fill="#e6e6e6"/><path d="M125.0871,49.63281l.32324-.44238a1.308,1.308,0,0,0,.81348.3291c.31641,0,.4668-.14941.4668-.35254,0-.24609-.31738-.35351-.62891-.47265-.38867-.14356-.82519-.36524-.82519-.85547,0-.51465.41308-.87989,1.07129-.87989a1.58511,1.58511,0,0,1,.9746.35352l-.31738.419a1.08667,1.08667,0,0,0-.64551-.252c-.293,0-.43066.1377-.43066.32324,0,.2334.293.32325.61035.43653.40039.14941.84278.34082.84278.8916,0,.502-.4004.90918-1.14258.90918A1.85985,1.85985,0,0,1,125.0871,49.63281Z" fill="#e6e6e6"/><path d="M152.5412,46.05664h1.32227c.81348,0,1.43555.28711,1.43555,1.16016a1.09513,1.09513,0,0,1-.77735,1.11816l.93262,1.63281H154.677l-.84375-1.53125h-.59766v1.53125h-.69434Zm1.251,1.83008c.53223,0,.8252-.22754.8252-.66992,0-.44922-.293-.6045-.8252-.6045h-.55664v1.27442Z" fill="#e6e6e6"/><path d="M155.77167,48.50293a1.43,1.43,0,0,1,1.35157-1.544c.79589,0,1.21484.57422,1.21484,1.39454a1.63363,1.63363,0,0,1-.03027.335h-1.86622a.84077.84077,0,0,0,.86719.81933,1.23059,1.23059,0,0,0,.68262-.21582l.23242.43067a1.85218,1.85218,0,0,1-1.00488.31738A1.416,1.416,0,0,1,155.77167,48.50293Zm1.96778-.28125c0-.45508-.19727-.72949-.59766-.72949a.7368.7368,0,0,0-.706.72949Z" fill="#e6e6e6"/><path d="M158.63007,47.03125h.7002l.46679,1.52539c.07715.28711.167.58594.24512.88477h.02344c.084-.29883.168-.59766.25195-.88477l.4668-1.52539h.66308l-.999,2.93652h-.79492Z" fill="#e6e6e6"/><path d="M163.2121,46.05664h.78418l.69336,1.91406c.084.24512.168.50782.251.76563h.02441c.084-.25781.16113-.52051.24512-.76563l.67578-1.91406h.79v3.91113h-.64063V48.17969c0-.36524.05372-.88574.08985-1.24414h-.02344l-.31738.90918-.63965,1.75879h-.41309l-.6455-1.75879-.31153-.90918h-.02344c.0293.3584.08985.8789.08985,1.24414v1.78808h-.62891Z" fill="#e6e6e6"/><path d="M167.53046,46.12793a.42648.42648,0,1,1,.42481.38867A.39483.39483,0,0,1,167.53046,46.12793Zm.07813.90332h.6875v2.93652h-.6875Z" fill="#e6e6e6"/><path d="M169.756,48.43652l-.873-1.40527h.74121l.3291.55664c.084.16113.17969.335.26953.49609h.02442c.07129-.16113.15527-.335.22656-.49609l.28125-.55664h.71192l-.86719,1.4834.93261,1.45312h-.74121l-.35937-.58007c-.0957-.17286-.19727-.35254-.29883-.52051h-.02344c-.084.168-.17382.34082-.25781.52051l-.31055.58007h-.71777Z" fill="#e6e6e6"/><path d="M196.65937,46.05664h1.04687a1.957,1.957,0,0,1,.03614,3.91113h-1.083Zm.999,3.34961c.79,0,1.23828-.44922,1.23828-1.41211,0-.957-.44824-1.376-1.23828-1.376h-.30469v2.78809Z" fill="#e6e6e6"/><path d="M200.33808,47.03125h.56836l.04785.52051h.02344a.99949.99949,0,0,1,.832-.59278.74444.74444,0,0,1,.335.06055l-.12012.59766a.97265.97265,0,0,0-.30469-.04785c-.23339,0-.51464.16211-.69335.60449v1.79394h-.68848Z" fill="#e6e6e6"/><path d="M202.4914,46.12793a.42648.42648,0,1,1,.4248.38867A.39482.39482,0,0,1,202.4914,46.12793Zm.07812.90332h.6875v2.93652h-.6875Z" fill="#e6e6e6"/><path d="M203.77265,47.03125h.69922l.46679,1.52539c.07813.28711.167.58594.24512.88477h.02442c.083-.29883.167-.59766.251-.88477l.46582-1.52539h.66407l-.998,2.93652h-.7959Z" fill="#e6e6e6"/><path d="M206.87031,48.50293a1.43,1.43,0,0,1,1.35156-1.544c.7959,0,1.21484.57422,1.21484,1.39454a1.56694,1.56694,0,0,1-.03027.335h-1.86621a.84076.84076,0,0,0,.86718.81933,1.22269,1.22269,0,0,0,.68165-.21582l.23339.43067a1.84957,1.84957,0,0,1-1.00488.31738A1.416,1.416,0,0,1,206.87031,48.50293Zm1.96777-.28125c0-.45508-.19727-.72949-.59766-.72949a.73745.73745,0,0,0-.70605.72949Z" fill="#e6e6e6"/><path d="M239.58124,46.05664h.69434v3.3252h1.627v.58593h-2.32129Z" fill="#e6e6e6"/><path d="M242.25507,48.50293a1.43,1.43,0,0,1,1.35156-1.544c.7959,0,1.21485.57422,1.21485,1.39454a1.56619,1.56619,0,0,1-.03028.335H242.925a.84076.84076,0,0,0,.86719.81933,1.22266,1.22266,0,0,0,.68164-.21582l.2334.43067a1.84957,1.84957,0,0,1-1.00488.31738A1.416,1.416,0,0,1,242.25507,48.50293Zm1.96777-.28125c0-.45508-.19726-.72949-.59765-.72949a.73746.73746,0,0,0-.70606.72949Z" fill="#e6e6e6"/><path d="M245.11445,47.03125h.70019l.4668,1.52539c.07715.28711.167.58594.24512.88477H246.55c.084-.29883.168-.59766.252-.88477l.46679-1.52539h.66309l-.999,2.93652h-.79493Z" fill="#e6e6e6"/><path d="M248.21308,48.50293a1.43,1.43,0,0,1,1.35156-1.544c.7959,0,1.21485.57422,1.21485,1.39454a1.63281,1.63281,0,0,1-.03028.335H248.883a.84076.84076,0,0,0,.86719.81933,1.23062,1.23062,0,0,0,.68262-.21582l.23242.43067a1.85219,1.85219,0,0,1-1.00489.31738A1.416,1.416,0,0,1,248.21308,48.50293Zm1.96777-.28125c0-.45508-.19726-.72949-.59765-.72949a.7368.7368,0,0,0-.70606.72949Z" fill="#e6e6e6"/><path d="M251.43671,49.21484V45.74512h.6875V49.25c0,.168.07813.22754.15039.22754a.42052.42052,0,0,0,.10742-.01172l.08985.51465a.95478.95478,0,0,1-.36524.05957C251.6164,50.04,251.43671,49.72266,251.43671,49.21484Z" fill="#e6e6e6"/><path d="M30.05,89h.81348l1.27441,3.91211h-.72949l-.30566-1.05859H29.7873l-.30567,1.05859h-.70507Zm-.10156,2.30859h.999l-.13769-.47851c-.125-.41211-.23926-.86133-.35254-1.292h-.02441c-.10743.43652-.22071.87988-.34668,1.292Z" fill="#e6e6e6"/><path d="M33.57343,91.17773h2.36914v.45411H33.57343Z" fill="#e6e6e6"/><path d="M37.88593,89h1.25c.80762,0,1.40039.24512,1.40039.96289a.88153.88153,0,0,1-.54492.84961v.02344a.89434.89434,0,0,1,.748.92773c0,.78321-.63965,1.14844-1.501,1.14844H37.88593Zm1.19043,1.61523c.54492,0,.77832-.21582.77832-.55078,0-.38281-.25781-.52636-.76562-.52636h-.50879v1.07714ZM39.1662,92.374c.57422,0,.89746-.21.89746-.64648,0-.41309-.31152-.5918-.89746-.5918h-.58593V92.374Z" fill="#e6e6e6"/><path d="M71.70136,89h1.23242c.86719,0,1.51367.29883,1.51367,1.208,0,.86719-.64648,1.26855-1.48925,1.26855h-.5625v1.43555h-.69434Zm1.20215,1.91992c.58105,0,.86133-.2334.86133-.71191,0-.49024-.30469-.65137-.88477-.65137H72.3957v1.36328Z" fill="#e6e6e6"/><path d="M75.04609,89.07227a.42595.42595,0,1,1,.42382.38867A.39474.39474,0,0,1,75.04609,89.07227Zm.07715.90234h.68847v2.9375h-.68847Z" fill="#e6e6e6"/><path d="M76.79218,91.919V90.51953h-.418v-.51465l.4541-.03027.084-.80078h.57422v.80078h.74707v.54492h-.74707V91.919c0,.34667.13183.51464.41211.51464a.83785.83785,0,0,0,.30566-.0664l.11914.50879a1.87391,1.87391,0,0,1-.59766.10742C77.04413,92.9834,76.79218,92.55273,76.79218,91.919Z" fill="#e6e6e6"/><path d="M78.56269,91.44629a1.449,1.449,0,0,1,1.47168-1.543,1.26564,1.26564,0,0,1,.86133.3291l-.335.44824a.7175.7175,0,0,0-.49024-.21484c-.47266,0-.80176.38867-.80176.98047,0,.58594.32325.97559.78321.97559a.98109.98109,0,0,0,.60449-.252l.28125.45508a1.46652,1.46652,0,0,1-.957.3584A1.397,1.397,0,0,1,78.56269,91.44629Z" fill="#e6e6e6"/><path d="M81.51777,88.68945h.68847v1.08789l-.02441.56836a1.34514,1.34514,0,0,1,.93945-.44238c.62793,0,.90332.4248.90332,1.166v1.84277h-.68847V91.15918c0-.48438-.1377-.66406-.46-.66406a.9299.9299,0,0,0-.66992.36523v2.05176h-.68847Z" fill="#e6e6e6"/><path d="M111.62324,89h1.04687a1.95751,1.95751,0,0,1,.03613,3.91211h-1.083Zm.999,3.34961c.79,0,1.23828-.44824,1.23828-1.41113,0-.957-.44824-1.376-1.23828-1.376h-.30469v2.78711Z" fill="#e6e6e6"/><path d="M115.11054,91.44629a1.429,1.429,0,0,1,1.35156-1.543c.7959,0,1.21485.57422,1.21485,1.39356a1.553,1.553,0,0,1-.03028.335h-1.86621a.84012.84012,0,0,0,.86719.81933,1.22169,1.22169,0,0,0,.68164-.21484l.2334.43066a1.84873,1.84873,0,0,1-1.00488.31641A1.416,1.416,0,0,1,115.11054,91.44629Zm1.96777-.28125c0-.4541-.19726-.72949-.59765-.72949a.73746.73746,0,0,0-.70606.72949Z" fill="#e6e6e6"/><path d="M118.14374,91.44629a1.4485,1.4485,0,0,1,1.47168-1.543,1.26562,1.26562,0,0,1,.86133.3291l-.335.44824a.71565.71565,0,0,0-.49023-.21484c-.47266,0-.80176.38867-.80176.98047,0,.58594.32324.97559.7832.97559a.98109.98109,0,0,0,.60449-.252l.28125.45508a1.46652,1.46652,0,0,1-.957.3584A1.397,1.397,0,0,1,118.14374,91.44629Z" fill="#e6e6e6"/><path d="M120.883,92.12207c0-.62793.52051-.957,1.72852-1.08789-.01172-.31152-.1377-.57422-.53809-.57422a1.67023,1.67023,0,0,0-.82617.28711l-.251-.46094a2.30155,2.30155,0,0,1,1.208-.38281c.73047,0,1.09473.44824,1.09473,1.26758v1.74121h-.56739l-.04882-.32324h-.02344a1.42923,1.42923,0,0,1-.90918.39453A.82066.82066,0,0,1,120.883,92.12207Zm1.72852,0v-.65723c-.80176.10157-1.06446.31055-1.06446.60352,0,.26367.17871.377.42481.377A.931.931,0,0,0,122.61152,92.12207Z" fill="#e6e6e6"/><path d="M123.93964,94.06055l.126-.53809a.73473.73473,0,0,0,.209.041.61454.61454,0,0,0,.58594-.502l.05469-.18554-1.1543-2.90137h.69922l.50879,1.44238c.083.25684.167.54981.25683.8252h.02442c.07129-.26953.14941-.5625.2207-.8252l.44238-1.44238h.66407L125.51288,93.044c-.24511.66308-.5498,1.07617-1.19043,1.07617A1.14111,1.14111,0,0,1,123.93964,94.06055Z" fill="#e6e6e6"/><path d="M152.72968,89h.81348l1.27441,3.91211h-.72949l-.30567-1.05859H152.467l-.30567,1.05859h-.70508Zm-.10156,2.30859h.999l-.13769-.47851c-.125-.41211-.23926-.86133-.35254-1.292h-.02442c-.10742.43652-.2207.87988-.34668,1.292Z" fill="#e6e6e6"/><path d="M155.302,89h1.23242c.86719,0,1.51367.29883,1.51367,1.208,0,.86719-.64648,1.26855-1.48926,1.26855h-.5625v1.43555H155.302Zm1.20312,1.91992c.58008,0,.86133-.2334.86133-.71191,0-.49024-.30566-.65137-.88574-.65137h-.48438v1.36328Z" fill="#e6e6e6"/><path d="M160.76972,89.58594h-1.13086V89h2.95508v.58594h-1.13086v3.32617h-.69336Z" fill="#e6e6e6"/><path d="M162.89179,91.81738V89.97461h.68848v1.75293c0,.48437.13769.66406.4541.66406.25781,0,.43066-.12012.65234-.40722V89.97461h.6875v2.9375h-.56152l-.05371-.43066h-.01856a1.19655,1.19655,0,0,1-.94531.502C163.16718,92.9834,162.89179,92.55859,162.89179,91.81738Z" fill="#e6e6e6"/><path d="M166.24824,89.97461h.56835l.04786.39551h.02343a1.36373,1.36373,0,0,1,.96387-.4668c.62793,0,.90332.4248.90332,1.166v1.84277h-.68848V91.15918c0-.48438-.13769-.66406-.46-.66406a.9299.9299,0,0,0-.66992.36523v2.05176h-.68847Z" fill="#e6e6e6"/><path d="M169.40644,91.44629a1.429,1.429,0,0,1,1.35156-1.543c.7959,0,1.21484.57422,1.21484,1.39356a1.61868,1.61868,0,0,1-.03027.335h-1.86621a.84012.84012,0,0,0,.86719.81933,1.22959,1.22959,0,0,0,.68261-.21484l.23243.43066a1.85132,1.85132,0,0,1-1.00489.31641A1.416,1.416,0,0,1,169.40644,91.44629Zm1.96777-.28125c0-.4541-.19726-.72949-.59765-.72949a.7368.7368,0,0,0-.70606.72949Z" fill="#e6e6e6"/><path d="M195.60663,89h.69434v1.57324h1.585V89h.69336v3.91211h-.69336V91.17773h-1.585v1.73438h-.69434Z" fill="#e6e6e6"/><path d="M199.43476,89.07227a.42648.42648,0,1,1,.4248.38867A.39557.39557,0,0,1,199.43476,89.07227Zm.07812.90234h.6875v2.9375h-.6875Z" fill="#e6e6e6"/><path d="M202.133,90.96777a1.83565,1.83565,0,0,1,1.78809-2.03906,1.55024,1.55024,0,0,1,1.13086.49609l-.3711.44825a1.01989,1.01989,0,0,0-.74121-.34082c-.63965,0-1.09473.53808-1.09473,1.418,0,.89062.41895,1.42968,1.07618,1.42968a1.11545,1.11545,0,0,0,.83789-.40136l.37109.43652a1.57789,1.57789,0,0,1-1.23242.56836A1.78854,1.78854,0,0,1,202.133,90.96777Z" fill="#e6e6e6"/><path d="M205.632,91.81738V89.97461h.68848v1.75293c0,.48437.1377.66406.4541.66406.25781,0,.43067-.12012.65235-.40722V89.97461h.6875v2.9375h-.56153l-.05371-.43066h-.01855a1.19658,1.19658,0,0,1-.94532.502C205.90741,92.9834,205.632,92.55859,205.632,91.81738Z" fill="#e6e6e6"/><path d="M209.08906,91.919V90.51953h-.418v-.51465l.4541-.03027.084-.80078h.57422v.80078h.74707v.54492h-.74707V91.919c0,.34667.13184.51464.41211.51464a.83781.83781,0,0,0,.30566-.0664l.11915.50879a1.874,1.874,0,0,1-.59766.10742C209.341,92.9834,209.08906,92.55273,209.08906,91.919Z" fill="#e6e6e6"/><path d="M242.38105,89h1.23242c.86719,0,1.51367.29883,1.51367,1.208,0,.86719-.64648,1.26855-1.48926,1.26855h-.5625v1.43555h-.69433Zm1.20215,1.91992c.58105,0,.86132-.2334.86132-.71191,0-.49024-.30468-.65137-.88476-.65137h-.48438v1.36328Z" fill="#e6e6e6"/><path d="M245.86249,89h.78418l.69336,1.91406c.084.24512.168.50879.251.76563h.02441c.084-.25684.16114-.52051.24512-.76563L248.53632,89h.79v3.91211h-.64062V91.12305c0-.36426.05371-.88477.08984-1.24414h-.02344l-.31738.90918-.63965,1.75879H247.382l-.6455-1.75879-.31153-.90918h-.02343c.02929.35937.08984.87988.08984,1.24414v1.78906h-.62891Z" fill="#e6e6e6"/><path d="M34.467,193.55957h.81347l1.27442,3.91113h-.7295l-.30566-1.05859H34.20429l-.30469,1.05859h-.706Zm-.10157,2.30859h.999l-.1377-.47851c-.125-.41309-.23926-.86133-.35254-1.292H34.8498c-.10742.43652-.22071.8789-.34668,1.292Z" fill="#e6e6e6"/><path d="M76.52265,193.55957h1.25c.80762,0,1.40039.24512,1.40039.96289a.8802.8802,0,0,1-.54492.84863v.02442a.89331.89331,0,0,1,.748.92676c0,.78418-.63964,1.14843-1.501,1.14843H76.52265Zm1.19043,1.61426c.54492,0,.77832-.21485.77832-.54981,0-.38281-.25781-.52636-.76563-.52636H77.217v1.07617Zm.08984,1.75879c.57422,0,.89746-.209.89746-.64551,0-.41309-.31152-.59277-.89746-.59277H77.217v1.23828Z" fill="#e6e6e6"/><path d="M111.61152,195.52734a1.83652,1.83652,0,0,1,1.78808-2.04,1.55392,1.55392,0,0,1,1.13086.4961l-.37109.44922a1.01992,1.01992,0,0,0-.74121-.34082c-.63965,0-1.09473.53808-1.09473,1.417,0,.8916.41895,1.42969,1.07617,1.42969a1.11451,1.11451,0,0,0,.83789-.40039l.3711.43652a1.57791,1.57791,0,0,1-1.23243.56836A1.78853,1.78853,0,0,1,111.61152,195.52734Z" fill="#e6e6e6"/><path d="M115.009,196.00586a1.40292,1.40292,0,1,1,1.39355,1.53711A1.42117,1.42117,0,0,1,115.009,196.00586Zm2.08789,0c0-.59277-.26367-.98145-.69434-.98145s-.6875.38868-.6875.98145c0,.58594.25684.97461.6875.97461S117.09687,196.5918,117.09687,196.00586Z" fill="#e6e6e6"/><path d="M118.48456,194.53418h.56836l.04785.40039h.02344a1.24663,1.24663,0,0,1,.89746-.47266.79992.79992,0,0,1,.81348.52637,1.33494,1.33494,0,0,1,.94531-.52637c.62207,0,.90918.42481.90918,1.167v1.84179h-.69433v-1.75195c0-.48437-.14258-.66406-.44825-.66406a.91263.91263,0,0,0-.61621.36426v2.05175h-.6875v-1.75195c0-.48437-.14355-.66406-.45508-.66406a.92281.92281,0,0,0-.61523.36426v2.05175h-.68848Z" fill="#e6e6e6"/><path d="M124.14863,197.16016h-.01758l-.05957.31054h-.54492v-4.22265h.6875v1.08886l-.01758.49024a1.34408,1.34408,0,0,1,.84961-.36524c.73535,0,1.16015.58692,1.16015,1.49024,0,1.01074-.60351,1.59082-1.25586,1.59082A1.17374,1.17374,0,0,1,124.14863,197.16016Zm1.3457-1.19629c0-.58594-.19141-.9336-.63379-.9336a.94327.94327,0,0,0-.64648.32911v1.37011a.91738.91738,0,0,0,.59277.24512C125.1955,196.97461,125.49433,196.62793,125.49433,195.96387Z" fill="#e6e6e6"/><path d="M151.44452,196.96875l.40625-.47266a1.55875,1.55875,0,0,0,1.01758.44239c.44239,0,.68164-.19727.68164-.502,0-.32324-.252-.4248-.60449-.57422l-.53809-.23339a1.12876,1.12876,0,0,1-.79-1.041,1.19029,1.19029,0,0,1,1.3164-1.10059,1.728,1.728,0,0,1,1.20215.4961l-.35254.44336a1.27371,1.27371,0,0,0-.84961-.335c-.37109,0-.61621.17285-.61621.46,0,.30566.29883.41894.62207.55078l.53223.2207a1.0963,1.0963,0,0,1,.79,1.05957,1.24365,1.24365,0,0,1-1.40625,1.16016A2.02836,2.02836,0,0,1,151.44452,196.96875Z" fill="#e6e6e6"/><path d="M154.45234,193.55957h.73632l.54981,1.96777c.126.44239.21582.8252.34766,1.27344h.02343c.13184-.44824.22168-.83105.34082-1.27344l.54493-1.96777h.71093l-1.21386,3.91113H155.673Z" fill="#e6e6e6"/><path d="M159.37519,193.55957h2.36328v.58594h-1.66895V195.252h1.42383v.58594h-1.42383v1.63281h-.69433Z" fill="#e6e6e6"/><path d="M162.28827,193.63086a.42648.42648,0,1,1,.42481.38867A.39483.39483,0,0,1,162.28827,193.63086Zm.07813.90332h.6875v2.93652h-.6875Z" fill="#e6e6e6"/><path d="M163.93378,196.71777v-3.46972h.68848v3.50488c0,.168.07715.22754.14941.22754a.42052.42052,0,0,0,.10742-.01172l.08985.51465a.95841.95841,0,0,1-.36524.05957C164.11347,197.543,163.93378,197.22559,163.93378,196.71777Z" fill="#e6e6e6"/><path d="M165.65644,196.47852v-1.4004h-.41895v-.51367l.45508-.03027.084-.80176h.57421v.80176h.74707v.54394h-.74707v1.4004c0,.34668.13086.51367.41211.51367a.84185.84185,0,0,0,.30567-.06543l.11914.50879a1.87391,1.87391,0,0,1-.59766.10742C165.90741,197.543,165.65644,197.1123,165.65644,196.47852Z" fill="#e6e6e6"/><path d="M167.427,196.00586a1.43,1.43,0,0,1,1.35156-1.544c.7959,0,1.21484.57422,1.21484,1.39454a1.567,1.567,0,0,1-.03027.335h-1.86621a.84076.84076,0,0,0,.86719.81933,1.22269,1.22269,0,0,0,.68164-.21582l.23339.43067a1.84954,1.84954,0,0,1-1.00488.31738A1.416,1.416,0,0,1,167.427,196.00586Zm1.96777-.28125c0-.45508-.19727-.72949-.59766-.72949a.73745.73745,0,0,0-.706.72949Z" fill="#e6e6e6"/><path d="M170.65058,194.53418h.56836l.04785.52051h.02344a.99949.99949,0,0,1,.832-.59278.74444.74444,0,0,1,.335.06055l-.12012.59766a.97265.97265,0,0,0-.30469-.04785c-.23339,0-.51464.16211-.69335.60449v1.79394h-.68848Z" fill="#e6e6e6"/><path d="M196.65937,193.55957h1.04687a1.957,1.957,0,0,1,.03614,3.91113h-1.083Zm.999,3.34961c.79,0,1.23828-.44922,1.23828-1.41211,0-.957-.44824-1.376-1.23828-1.376h-.30469v2.78809Z" fill="#e6e6e6"/><path d="M200.33808,194.53418h.56836l.04785.52051h.02344a.99949.99949,0,0,1,.832-.59278.74444.74444,0,0,1,.335.06055l-.12012.59766a.97265.97265,0,0,0-.30469-.04785c-.23339,0-.51464.16211-.69335.60449v1.79394h-.68848Z" fill="#e6e6e6"/><path d="M202.4914,193.63086a.42648.42648,0,1,1,.4248.38867A.39482.39482,0,0,1,202.4914,193.63086Zm.07812.90332h.6875v2.93652h-.6875Z" fill="#e6e6e6"/><path d="M203.77265,194.53418h.69922l.46679,1.52539c.07813.28711.167.58594.24512.88477h.02442c.083-.29883.167-.59766.251-.88477l.46582-1.52539h.66407l-.998,2.93652h-.7959Z" fill="#e6e6e6"/><path d="M206.87031,196.00586a1.43,1.43,0,0,1,1.35156-1.544c.7959,0,1.21484.57422,1.21484,1.39454a1.567,1.567,0,0,1-.03027.335h-1.86621a.84076.84076,0,0,0,.86718.81933,1.22269,1.22269,0,0,0,.68165-.21582l.23339.43067a1.84957,1.84957,0,0,1-1.00488.31738A1.416,1.416,0,0,1,206.87031,196.00586Zm1.96777-.28125c0-.45508-.19727-.72949-.59766-.72949a.73745.73745,0,0,0-.70605.72949Z" fill="#e6e6e6"/><path d="M239.58124,193.55957h.69434v3.3252h1.627v.58593h-2.32129Z" fill="#e6e6e6"/><path d="M242.25507,196.00586a1.43,1.43,0,0,1,1.35156-1.544c.7959,0,1.21485.57422,1.21485,1.39454a1.56625,1.56625,0,0,1-.03028.335H242.925a.84076.84076,0,0,0,.86719.81933,1.22266,1.22266,0,0,0,.68164-.21582l.2334.43067a1.84957,1.84957,0,0,1-1.00488.31738A1.416,1.416,0,0,1,242.25507,196.00586Zm1.96777-.28125c0-.45508-.19726-.72949-.59765-.72949a.73746.73746,0,0,0-.70606.72949Z" fill="#e6e6e6"/><path d="M245.11445,194.53418h.70019l.4668,1.52539c.07715.28711.167.58594.24512.88477H246.55c.084-.29883.168-.59766.252-.88477l.46679-1.52539h.66309l-.999,2.93652h-.79493Z" fill="#e6e6e6"/><path d="M248.21308,196.00586a1.43,1.43,0,0,1,1.35156-1.544c.7959,0,1.21485.57422,1.21485,1.39454a1.63288,1.63288,0,0,1-.03028.335H248.883a.84076.84076,0,0,0,.86719.81933,1.23062,1.23062,0,0,0,.68262-.21582l.23242.43067a1.85219,1.85219,0,0,1-1.00489.31738A1.416,1.416,0,0,1,248.21308,196.00586Zm1.96777-.28125c0-.45508-.19726-.72949-.59765-.72949a.7368.7368,0,0,0-.70606.72949Z" fill="#e6e6e6"/><path d="M251.43671,196.71777v-3.46972h.6875v3.50488c0,.168.07813.22754.15039.22754a.42052.42052,0,0,0,.10742-.01172l.08985.51465a.95478.95478,0,0,1-.36524.05957C251.6164,197.543,251.43671,197.22559,251.43671,196.71777Z" fill="#e6e6e6"/><path d="M30.05,150.61719h.81348l1.27441,3.91113h-.72949l-.30566-1.05859H29.7873l-.30567,1.05859h-.70507Zm-.10156,2.30859h.999l-.13769-.47851c-.125-.41309-.23926-.86133-.35254-1.292h-.02441c-.10743.43653-.22071.87891-.34668,1.292Z" fill="#e6e6e6"/><path d="M33.57343,152.794h2.36914v.45507H33.57343Z" fill="#e6e6e6"/><path d="M37.88593,150.61719h1.25c.80762,0,1.40039.24511,1.40039.96289a.88019.88019,0,0,1-.54492.84863v.02441a.89333.89333,0,0,1,.748.92676c0,.78418-.63965,1.14844-1.501,1.14844H37.88593Zm1.19043,1.61426c.54492,0,.77832-.21485.77832-.54981,0-.38281-.25781-.52637-.76562-.52637h-.50879v1.07618Zm.08984,1.75878c.57422,0,.89746-.209.89746-.6455,0-.41309-.31152-.59278-.89746-.59278h-.58593v1.23828Z" fill="#e6e6e6"/><path d="M65.48652,152.585a1.83652,1.83652,0,0,1,1.78808-2.04,1.55392,1.55392,0,0,1,1.13086.4961l-.37109.44921a1.02,1.02,0,0,0-.74121-.34082c-.63965,0-1.09473.53809-1.09473,1.417,0,.8916.41895,1.42968,1.07617,1.42968a1.11448,1.11448,0,0,0,.83789-.40039l.3711.43653a1.57791,1.57791,0,0,1-1.23243.56836A1.78854,1.78854,0,0,1,65.48652,152.585Z" fill="#e6e6e6"/><path d="M68.884,153.06348a1.40292,1.40292,0,1,1,1.39355,1.53711A1.42117,1.42117,0,0,1,68.884,153.06348Zm2.08789,0c0-.59278-.26367-.98145-.69434-.98145s-.6875.38867-.6875.98145c0,.58593.25684.97461.6875.97461S70.97187,153.64941,70.97187,153.06348Z" fill="#e6e6e6"/><path d="M72.35956,151.5918h.56836l.04785.40039h.02344a1.24659,1.24659,0,0,1,.89746-.47266.79991.79991,0,0,1,.81348.52637,1.33494,1.33494,0,0,1,.94531-.52637c.62207,0,.90918.42481.90918,1.167v1.8418h-.69433v-1.752c0-.48438-.14258-.66407-.44825-.66407a.91267.91267,0,0,0-.61621.36426v2.05176h-.6875v-1.752c0-.48438-.14355-.66407-.45508-.66407a.92285.92285,0,0,0-.61523.36426v2.05176h-.68848Z" fill="#e6e6e6"/><path d="M78.02363,154.21777h-.01758l-.05957.31055h-.54492v-4.22266h.6875v1.08887l-.01758.49024a1.34408,1.34408,0,0,1,.84961-.36524c.73535,0,1.16015.58692,1.16015,1.49024,0,1.01074-.60351,1.59082-1.25586,1.59082A1.17371,1.17371,0,0,1,78.02363,154.21777Zm1.3457-1.19629c0-.58593-.19141-.93359-.63379-.93359a.94329.94329,0,0,0-.64648.3291v1.37012a.91738.91738,0,0,0,.59277.24512C79.0705,154.03223,79.36933,153.68555,79.36933,153.02148Z" fill="#e6e6e6"/><path d="M82.02558,150.61719h.78418l.69336,1.91406c.084.24512.168.50781.252.76563h.02344c.084-.25782.16113-.52051.24512-.76563l.67578-1.91406h.79v3.91113h-.64063v-1.78809c0-.36523.05469-.88574.08984-1.24414h-.02343l-.31739.90918-.63964,1.75879h-.41309l-.64551-1.75879-.31152-.90918h-.02344c.0293.3584.08887.87891.08887,1.24414v1.78809h-.62793Z" fill="#e6e6e6"/><path d="M86.34491,150.68848a.426.426,0,1,1,.42383.38867A.394.394,0,0,1,86.34491,150.68848Zm.07715.90332h.68848v2.93652h-.68848Z" fill="#e6e6e6"/><path d="M88.56952,152.99707l-.873-1.40527h.74218l.32813.55664c.084.16113.17969.335.26953.49609h.02344c.07226-.16113.15625-.335.22754-.49609l.28125-.55664h.71191l-.86719,1.4834.93262,1.45312h-.74121l-.35937-.58008c-.09571-.17285-.19727-.35254-.29883-.52051H88.923c-.084.168-.17383.34082-.25781.52051l-.31055.58008h-.71777Z" fill="#e6e6e6"/><path d="M111.31464,152.585a1.83653,1.83653,0,0,1,1.78809-2.04,1.55392,1.55392,0,0,1,1.13086.4961l-.3711.44921a1.01992,1.01992,0,0,0-.74121-.34082c-.63965,0-1.09472.53809-1.09472,1.417,0,.8916.41894,1.42968,1.07617,1.42968a1.11449,1.11449,0,0,0,.83789-.40039l.37109.43653a1.57789,1.57789,0,0,1-1.23242.56836A1.78855,1.78855,0,0,1,111.31464,152.585Z" fill="#e6e6e6"/><path d="M114.81366,153.43359V151.5918h.68848v1.75293c0,.48437.1377.66308.4541.66308.25782,0,.43067-.11914.65235-.40625V151.5918h.6875v2.93652h-.56153l-.05371-.43066h-.01855a1.19483,1.19483,0,0,1-.94531.50293C115.08906,154.60059,114.81366,154.17578,114.81366,153.43359Z" fill="#e6e6e6"/><path d="M118.2707,153.53613v-1.40039h-.418v-.51367l.4541-.03027.084-.80176h.57422v.80176h.74707v.54394H118.965v1.40039c0,.34668.13184.51367.41211.51367a.83747.83747,0,0,0,.30567-.06542l.11914.50878a1.87367,1.87367,0,0,1-.59766.10743C118.52265,154.60059,118.2707,154.16992,118.2707,153.53613Z" fill="#e6e6e6"/><path d="M120.04218,153.06348a1.40292,1.40292,0,1,1,1.39356,1.53711A1.42117,1.42117,0,0,1,120.04218,153.06348Zm2.08789,0c0-.59278-.26367-.98145-.69433-.98145s-.6875.38867-.6875.98145c0,.58593.25683.97461.6875.97461S122.13007,153.64941,122.13007,153.06348Z" fill="#e6e6e6"/><path d="M125.41327,152.13574H124.301v2.39258h-.6875v-2.39258H123.218v-.51367l.39551-.03027V151.335a.93164.93164,0,0,1,1.0166-1.041,1.4543,1.4543,0,0,1,.57422.10742l-.13184.51465a.78915.78915,0,0,0-.37109-.07813c-.24512,0-.40039.168-.40039.49707v.25684h1.1123v-.30469c0-.61035.27539-1.05273.96875-1.05273a1.46654,1.46654,0,0,1,.53907.10156l-.13184.51367a.7638.7638,0,0,0-.31738-.07129c-.24512,0-.37012.15527-.37012.49609v.31739h.57422v.54394h-.57422v2.39258h-.68848Z" fill="#e6e6e6"/><path d="M154.46406,150.61719h1.32226c.81348,0,1.43555.28711,1.43555,1.16015a1.09407,1.09407,0,0,1-.77735,1.11817l.93262,1.63281h-.77734l-.84375-1.53125h-.59766v1.53125h-.69433Zm1.25,1.83008c.5332,0,.82617-.22754.82617-.66993,0-.44922-.293-.60449-.82617-.60449h-.55567v1.27442Z" fill="#e6e6e6"/><path d="M157.69452,153.06348a1.43,1.43,0,0,1,1.35157-1.54395c.7959,0,1.21484.57422,1.21484,1.39453a1.56687,1.56687,0,0,1-.03027.335h-1.86621a.84077.84077,0,0,0,.86718.81934,1.22272,1.22272,0,0,0,.68164-.21582l.2334.43066a1.84949,1.84949,0,0,1-1.00488.31739A1.416,1.416,0,0,1,157.69452,153.06348Zm1.96778-.28125c0-.45508-.19727-.7295-.59766-.7295a.73746.73746,0,0,0-.70605.7295Z" fill="#e6e6e6"/><path d="M160.62519,154.19336l.32324-.44238a1.30578,1.30578,0,0,0,.81348.3291c.3164,0,.46582-.14942.46582-.35254,0-.24609-.31641-.35352-.62793-.47266-.38867-.14355-.8252-.36523-.8252-.85547,0-.51464.41309-.87988,1.07031-.87988a1.58581,1.58581,0,0,1,.97559.35352l-.31738.41894a1.08675,1.08675,0,0,0-.64551-.25195c-.293,0-.43066.13769-.43066.32324,0,.2334.293.32324.60937.43652.40137.14942.84375.34082.84375.89161,0,.502-.40039.90918-1.14258.90918A1.85982,1.85982,0,0,1,160.62519,154.19336Z" fill="#e6e6e6"/><path d="M163.30488,153.06348a1.40336,1.40336,0,1,1,1.39355,1.53711A1.42117,1.42117,0,0,1,163.30488,153.06348Zm2.08789,0c0-.59278-.26368-.98145-.69434-.98145s-.6875.38867-.6875.98145c0,.58593.25684.97461.6875.97461S165.39277,153.64941,165.39277,153.06348Z" fill="#e6e6e6"/><path d="M166.78046,151.5918h.56836l.04785.39453h.02442a1.36347,1.36347,0,0,1,.96289-.4668c.62793,0,.90234.42481.90234,1.167v1.8418h-.6875v-1.752c0-.48438-.13769-.66407-.46094-.66407a.93179.93179,0,0,0-.66992.36426v2.05176h-.6875Z" fill="#e6e6e6"/><path d="M194.0246,154.02637l.40625-.47266a1.55874,1.55874,0,0,0,1.01758.44238c.44238,0,.68164-.19726.68164-.502,0-.32324-.25195-.4248-.60449-.57422l-.53809-.2334a1.12876,1.12876,0,0,1-.79-1.041,1.1903,1.1903,0,0,1,1.31641-1.10059,1.728,1.728,0,0,1,1.20215.4961l-.35254.44336a1.27367,1.27367,0,0,0-.84961-.335c-.37109,0-.61621.17286-.61621.46,0,.30566.29883.41894.62207.55078l.53223.2207a1.09631,1.09631,0,0,1,.79,1.05957,1.24365,1.24365,0,0,1-1.40625,1.16016A2.0284,2.0284,0,0,1,194.0246,154.02637Z" fill="#e6e6e6"/><path d="M197.49335,151.5918h.56836l.04785.31054h.02442a1.43194,1.43194,0,0,1,.88476-.38281c.7295,0,1.1543.58692,1.1543,1.49609,0,1.00489-.60352,1.585-1.25586,1.585a1.18889,1.18889,0,0,1-.75391-.32325l.01758.49024v.92187h-.6875Zm1.96778,1.42968c0-.58593-.19141-.93359-.63379-.93359a.94331.94331,0,0,0-.64649.3291v1.37012a.9289.9289,0,0,0,.59278.24512C199.1623,154.03223,199.46113,153.68555,199.46113,153.02148Z" fill="#e6e6e6"/><path d="M200.86738,151.5918h.56836l.04785.5205h.02343a.99949.99949,0,0,1,.832-.59277.74447.74447,0,0,1,.335.06055l-.12012.59765a.97294.97294,0,0,0-.30469-.04785c-.2334,0-.51465.16211-.69336.6045v1.79394h-.68847Z" fill="#e6e6e6"/><path d="M202.84687,153.06348a1.43,1.43,0,0,1,1.35156-1.54395c.7959,0,1.21484.57422,1.21484,1.39453a1.56622,1.56622,0,0,1-.03027.335h-1.86621a.84077.84077,0,0,0,.86719.81934,1.22276,1.22276,0,0,0,.68164-.21582l.2334.43066a1.84953,1.84953,0,0,1-1.00489.31739A1.416,1.416,0,0,1,202.84687,153.06348Zm1.96777-.28125c0-.45508-.19726-.7295-.59765-.7295a.73747.73747,0,0,0-.70606.7295Z" fill="#e6e6e6"/><path d="M205.84394,153.73926c0-.62793.52051-.957,1.72851-1.08887-.01171-.31055-.13769-.57422-.53808-.57422a1.67992,1.67992,0,0,0-.82617.28711l-.251-.46094a2.30155,2.30155,0,0,1,1.208-.38281c.73047,0,1.09472.44922,1.09472,1.26856v1.74023h-.56738l-.04883-.32227h-.02343a1.43433,1.43433,0,0,1-.90918.39454A.82066.82066,0,0,1,205.84394,153.73926Zm1.72851,0v-.65821c-.80175.10157-1.06445.31153-1.06445.6045,0,.26269.17871.37695.42481.37695A.935.935,0,0,0,207.57245,153.73926Z" fill="#e6e6e6"/><path d="M208.90644,153.06348a1.38479,1.38479,0,0,1,1.24414-1.54395,1.08754,1.08754,0,0,1,.77246.32324l-.02441-.47265v-1.06446h.6875v4.22266h-.56739l-.04883-.31641h-.02343a1.22523,1.22523,0,0,1-.83106.38868C209.37909,154.60059,208.90644,154.03223,208.90644,153.06348Zm1.99219.63964V152.333a.878.878,0,0,0-.59864-.24512c-.376,0-.68164.35352-.68164.96973,0,.63379.23926.97461.66406.97461A.792.792,0,0,0,210.89863,153.70312Z" fill="#e6e6e6"/><path d="M242.59589,150.61719h2.36328v.58593h-1.66894v1.10645h1.42383v.58594h-1.42383v1.63281h-.69434Z" fill="#e6e6e6"/><path d="M245.64667,150.61719h.78418l.69336,1.91406c.084.24512.168.50781.25195.76563h.02344c.084-.25782.16114-.52051.24512-.76563l.67578-1.91406h.79v3.91113h-.64063v-1.78809c0-.36523.05469-.88574.08985-1.24414h-.02344l-.31738.90918-.63965,1.75879h-.41309l-.6455-1.75879-.31153-.90918h-.02343c.02929.3584.08886.87891.08886,1.24414v1.78809h-.62793Z" fill="#e6e6e6"/><path d="M7.859,14.937H263.52223a1,1,0,0,1,1,1v8.33562a0,0,0,0,1,0,0H6.859a0,0,0,0,1,0,0V15.937A1,1,0,0,1,7.859,14.937Z" fill="#282828"/><path d="M7.859,57.88087H263.52223a1,1,0,0,1,1,1v8.33562a0,0,0,0,1,0,0H6.859a0,0,0,0,1,0,0V58.88087A1,1,0,0,1,7.859,57.88087Z" fill="#282828"/><path d="M7.859,162.43986H263.52223a1,1,0,0,1,1,1v8.33562a0,0,0,0,1,0,0H6.859a0,0,0,0,1,0,0v-8.33562A1,1,0,0,1,7.859,162.43986Z" fill="#282828"/><path d="M7.859,119.496H263.52223a1,1,0,0,1,1,1v8.33562a0,0,0,0,1,0,0H6.859a0,0,0,0,1,0,0V120.496A1,1,0,0,1,7.859,119.496Z" fill="#282828"/><rect x="23.66313" y="30.80756" width="22.4055" height="9.33562" rx="0.5" ry="0.5" stroke="#252525" stroke-miterlimit="10" stroke-width="0.25" fill="url(#a)"/><rect x="66.607" y="30.80756" width="22.4055" height="9.33562" rx="0.5" ry="0.5" stroke="#252525" stroke-miterlimit="10" stroke-width="0.25" fill="url(#b)"/><rect x="107.68375" y="30.80756" width="22.4055" height="9.33562" rx="0.5" ry="0.5" stroke="#252525" stroke-miterlimit="10" stroke-width="0.25" fill="url(#c)"/><rect x="150.62762" y="30.80756" width="22.4055" height="9.33562" rx="0.5" ry="0.5" stroke="#252525" stroke-miterlimit="10" stroke-width="0.25" fill="url(#d)"/><rect x="191.71073" y="30.80756" width="22.4055" height="9.33562" rx="0.5" ry="0.5" stroke="#252525" stroke-miterlimit="10" stroke-width="0.25" fill="url(#e)"/><rect x="234.64824" y="30.80756" width="22.4055" height="9.33562" rx="0.5" ry="0.5" stroke="#252525" stroke-miterlimit="10" stroke-width="0.25" fill="url(#f)"/><rect x="23.66313" y="73.75143" width="22.4055" height="9.33562" rx="0.5" ry="0.5" stroke="#252525" stroke-miterlimit="10" stroke-width="0.25" fill="url(#g)"/><rect x="66.607" y="73.75143" width="22.4055" height="9.33562" rx="0.5" ry="0.5" stroke="#252525" stroke-miterlimit="10" stroke-width="0.25" fill="url(#h)"/><rect x="107.68375" y="73.75143" width="22.4055" height="9.33562" rx="0.5" ry="0.5" stroke="#252525" stroke-miterlimit="10" stroke-width="0.25" fill="url(#i)"/><rect x="150.62762" y="73.75143" width="22.4055" height="9.33562" rx="0.5" ry="0.5" stroke="#252525" stroke-miterlimit="10" stroke-width="0.25" fill="url(#j)"/><rect x="191.71073" y="73.75143" width="22.4055" height="9.33562" rx="0.5" ry="0.5" stroke="#252525" stroke-miterlimit="10" stroke-width="0.25" fill="url(#k)"/><rect x="234.64824" y="73.75143" width="22.4055" height="9.33562" rx="0.5" ry="0.5" stroke="#252525" stroke-miterlimit="10" stroke-width="0.25" fill="url(#l)"/><rect x="23.66313" y="178.31042" width="22.4055" height="9.33562" rx="0.5" ry="0.5" stroke="#252525" stroke-miterlimit="10" stroke-width="0.25" fill="url(#m)"/><rect x="66.607" y="178.31042" width="22.4055" height="9.33562" rx="0.5" ry="0.5" stroke="#252525" stroke-miterlimit="10" stroke-width="0.25" fill="url(#n)"/><rect x="107.68375" y="178.31042" width="22.4055" height="9.33562" rx="0.5" ry="0.5" stroke="#252525" stroke-miterlimit="10" stroke-width="0.25" fill="url(#o)"/><rect x="150.62762" y="178.31042" width="22.4055" height="9.33562" rx="0.5" ry="0.5" stroke="#252525" stroke-miterlimit="10" stroke-width="0.25" fill="url(#p)"/><rect x="191.71073" y="178.31042" width="22.4055" height="9.33562" rx="0.5" ry="0.5" stroke="#252525" stroke-miterlimit="10" stroke-width="0.25" fill="url(#q)"/><rect x="234.64824" y="178.31042" width="22.4055" height="9.33562" rx="0.5" ry="0.5" stroke="#252525" stroke-miterlimit="10" stroke-width="0.25" fill="url(#r)"/><rect x="23.66313" y="135.36655" width="22.4055" height="9.33562" rx="0.5" ry="0.5" stroke="#252525" stroke-miterlimit="10" stroke-width="0.25" fill="url(#s)"/><rect x="66.607" y="135.36655" width="22.4055" height="9.33562" rx="0.5" ry="0.5" stroke="#252525" stroke-miterlimit="10" stroke-width="0.25" fill="url(#t)"/><rect x="107.68375" y="135.36655" width="22.4055" height="9.33562" rx="0.5" ry="0.5" stroke="#252525" stroke-miterlimit="10" stroke-width="0.25" fill="url(#u)"/><rect x="150.62762" y="135.36655" width="22.4055" height="9.33562" rx="0.5" ry="0.5" stroke="#252525" stroke-miterlimit="10" stroke-width="0.25" fill="url(#v)"/><rect x="191.71073" y="135.36655" width="22.4055" height="9.33562" rx="0.5" ry="0.5" stroke="#252525" stroke-miterlimit="10" stroke-width="0.25" fill="url(#w)"/><rect x="234.64824" y="135.36655" width="22.4055" height="9.33562" rx="0.5" ry="0.5" stroke="#252525" stroke-miterlimit="10" stroke-width="0.25" fill="url(#x)"/><path d="M116.23261,18.05078h2.36328v.58594H116.927v1.10644h1.42382v.58594H116.927v1.63281h-.69434Z" fill="#ced2d9"/><path d="M118.93671,20.49707a1.43,1.43,0,0,1,1.35156-1.544c.7959,0,1.21485.57422,1.21485,1.39454a1.56619,1.56619,0,0,1-.03028.335h-1.86621a.84076.84076,0,0,0,.86719.81933,1.22266,1.22266,0,0,0,.68164-.21582l.2334.43067a1.84957,1.84957,0,0,1-1.00488.31738A1.416,1.416,0,0,1,118.93671,20.49707Zm1.96778-.28125c0-.45508-.19727-.72949-.59766-.72949a.73746.73746,0,0,0-.70606.72949Z" fill="#ced2d9"/><path d="M121.96894,20.49707a1.43,1.43,0,0,1,1.35156-1.544c.7959,0,1.21484.57422,1.21484,1.39454a1.63292,1.63292,0,0,1-.03027.335h-1.86621a.84076.84076,0,0,0,.86719.81933,1.23059,1.23059,0,0,0,.68261-.21582l.23243.43067a1.85219,1.85219,0,0,1-1.00489.31738A1.416,1.416,0,0,1,121.96894,20.49707Zm1.96777-.28125c0-.45508-.19726-.72949-.59765-.72949a.7368.7368,0,0,0-.70606.72949Z" fill="#ced2d9"/><path d="M125.01386,20.49707a1.38479,1.38479,0,0,1,1.24414-1.544,1.0875,1.0875,0,0,1,.77246.32325l-.02441-.47266V17.73926h.6875v4.22265h-.56739l-.04882-.3164h-.02344a1.22524,1.22524,0,0,1-.83106.38867C125.48652,22.03418,125.01386,21.46582,125.01386,20.49707Zm1.99219.63965V19.7666a.878.878,0,0,0-.59864-.24512c-.376,0-.68164.35352-.68164.96973,0,.63379.23926.97461.66407.97461A.792.792,0,0,0,127.00605,21.13672Z" fill="#ced2d9"/><path d="M129.18866,21.65137h-.01757l-.06055.31054h-.54395V17.73926h.68848v1.08886l-.01855.49024a1.34414,1.34414,0,0,1,.84961-.36524c.73535,0,1.16015.58692,1.16015,1.49024,0,1.01074-.60449,1.59082-1.25586,1.59082A1.17378,1.17378,0,0,1,129.18866,21.65137Zm1.34571-1.19629c0-.58594-.19141-.9336-.63379-.9336a.9377.9377,0,0,0-.64551.32911V21.2207a.91331.91331,0,0,0,.5918.24512C130.23554,21.46582,130.53437,21.11914,130.53437,20.45508Z" fill="#ced2d9"/><path d="M131.70722,21.17285c0-.62793.52051-.957,1.72852-1.08887-.01172-.31054-.1377-.57421-.53809-.57421a1.67982,1.67982,0,0,0-.82617.28711l-.251-.46094a2.30146,2.30146,0,0,1,1.208-.38282c.73047,0,1.09473.44922,1.09473,1.26856v1.74023h-.56739l-.04883-.32226h-.02343a1.43438,1.43438,0,0,1-.90918.39453A.82066.82066,0,0,1,131.70722,21.17285Zm1.72852,0v-.6582c-.80176.10156-1.06446.31152-1.06446.60449,0,.2627.17871.37695.42481.37695A.935.935,0,0,0,133.43574,21.17285Z" fill="#ced2d9"/><path d="M134.758,20.49707a1.44932,1.44932,0,0,1,1.47168-1.544,1.2656,1.2656,0,0,1,.86133.32911l-.335.44922a.7187.7187,0,0,0-.49024-.21583c-.47265,0-.80175.38868-.80175.98145,0,.58594.32324.97461.7832.97461a.98.98,0,0,0,.60449-.251l.28125.4541a1.46761,1.46761,0,0,1-.957.35938A1.39752,1.39752,0,0,1,134.758,20.49707Z" fill="#ced2d9"/><path d="M137.71308,17.73926h.67578V20.377h.01855l1.0879-1.35156h.7539l-1.00488,1.19629,1.10644,1.74023h-.74707l-.7539-1.27343-.46094.52636v.74707h-.67578Z" fill="#ced2d9"/><path d="M142.091,18.05078h.78418l.69336,1.91406c.084.24512.168.50782.251.76563h.02442c.084-.25781.16113-.52051.24512-.76563l.67578-1.91406h.79v3.91113h-.64063V20.17383c0-.36524.05371-.88574.08984-1.24414h-.02343l-.31739.90918-.63964,1.75879h-.41309l-.64551-1.75879-.31152-.90918h-.02344c.0293.3584.08984.8789.08984,1.24414v1.78808h-.6289Z" fill="#ced2d9"/><path d="M146.40937,18.12207a.42648.42648,0,1,1,.4248.38867A.39482.39482,0,0,1,146.40937,18.12207Zm.07812.90332h.6875v2.93652h-.6875Z" fill="#ced2d9"/><path d="M148.635,20.43066l-.873-1.40527h.74121l.3291.55664c.084.16113.17969.335.26953.49609h.02441c.07129-.16113.15528-.335.22657-.49609l.28125-.55664h.71191l-.86719,1.4834.93262,1.45312h-.74121l-.35937-.58007c-.09571-.17286-.19727-.35254-.29883-.52051h-.02344c-.084.168-.17383.34082-.25781.52051l-.31055.58007h-.71777Z" fill="#ced2d9"/><path d="M150.60859,20.49707a1.43,1.43,0,0,1,1.35156-1.544c.7959,0,1.21484.57422,1.21484,1.39454a1.56694,1.56694,0,0,1-.03027.335h-1.86621a.84076.84076,0,0,0,.86719.81933,1.22269,1.22269,0,0,0,.68164-.21582l.2334.43067a1.8496,1.8496,0,0,1-1.00489.31738A1.416,1.416,0,0,1,150.60859,20.49707Zm1.96777-.28125c0-.45508-.19727-.72949-.59766-.72949a.73745.73745,0,0,0-.70605.72949Z" fill="#ced2d9"/><path d="M153.8332,19.02539h.56836l.04785.52051h.02441a.997.997,0,0,1,.83106-.59278.74447.74447,0,0,1,.335.06055l-.12012.59766a.97265.97265,0,0,0-.30469-.04785c-.2334,0-.51465.16211-.69433.60449v1.79394h-.6875Z" fill="#ced2d9"/><path d="M121.02363,62.96191a1.83564,1.83564,0,0,1,1.78808-2.03906,1.55021,1.55021,0,0,1,1.13086.4961l-.37109.44824a1.01992,1.01992,0,0,0-.74121-.34082c-.63965,0-1.09473.53808-1.09473,1.418,0,.89062.41895,1.42968,1.07617,1.42968a1.11544,1.11544,0,0,0,.83789-.40136l.3711.43652a1.57791,1.57791,0,0,1-1.23243.56836A1.78853,1.78853,0,0,1,121.02363,62.96191Z" fill="#a0d98f"/><path d="M124.42109,63.44043a1.40292,1.40292,0,1,1,1.39355,1.53711A1.42086,1.42086,0,0,1,124.42109,63.44043Zm2.08789,0c0-.5918-.26367-.98047-.69434-.98047s-.6875.38867-.6875.98047c0,.58594.25684.97559.6875.97559S126.509,64.02637,126.509,63.44043Z" fill="#a0d98f"/><path d="M127.89667,61.96875h.56836l.04785.40137h.02344a1.24318,1.24318,0,0,1,.89746-.47266.79874.79874,0,0,1,.81348.52637,1.33494,1.33494,0,0,1,.94531-.52637c.62207,0,.90918.42481.90918,1.166v1.84277h-.69434V63.15332c0-.48437-.14257-.66406-.44824-.66406a.91467.91467,0,0,0-.61621.36523v2.05176h-.6875V63.15332c0-.48437-.14355-.66406-.45508-.66406a.92493.92493,0,0,0-.61523.36523v2.05176h-.68848Z" fill="#a0d98f"/><path d="M133.56074,64.59473h-.01758l-.05957.31152h-.54493V60.68359h.6875v1.08789l-.01757.49122a1.33894,1.33894,0,0,1,.84961-.36524c.73535,0,1.16015.58594,1.16015,1.48926,0,1.01074-.60351,1.59082-1.25586,1.59082A1.17374,1.17374,0,0,1,133.56074,64.59473Zm1.3457-1.19629c0-.58594-.19141-.93262-.63379-.93262a.93928.93928,0,0,0-.64649.3291v1.36914a.91743.91743,0,0,0,.59278.24512C134.60761,64.40918,134.90644,64.0625,134.90644,63.39844Z" fill="#a0d98f"/><path d="M137.56269,60.99414H139.926v.58594H138.257v1.10644h1.42383v.58692H138.257v1.63281h-.69433Z" fill="#a0d98f"/><path d="M140.47577,61.06641a.426.426,0,1,1,.42383.38867A.39475.39475,0,0,1,140.47577,61.06641Zm.07715.90234h.68848v2.9375h-.68848Z" fill="#a0d98f"/><path d="M142.12031,64.15234V60.68359h.6875v3.50489c0,.167.07812.22754.15039.22754a.38941.38941,0,0,0,.10742-.0127l.08984.51465a.936.936,0,0,1-.36523.05957C142.3,64.97754,142.12031,64.66113,142.12031,64.15234Z" fill="#a0d98f"/><path d="M143.843,63.91309V62.51367h-.418V61.999l.4541-.03027.084-.80078h.57422v.80078h.74707v.54492h-.74707v1.39942c0,.34668.13183.51464.41211.51464a.83781.83781,0,0,0,.30566-.0664l.11914.50879a1.8739,1.8739,0,0,1-.59765.10742C144.09491,64.97754,143.843,64.54688,143.843,63.91309Z" fill="#a0d98f"/><path d="M145.61347,63.44043a1.429,1.429,0,0,1,1.35156-1.543c.7959,0,1.21485.57422,1.21485,1.39356a1.61857,1.61857,0,0,1-.03028.335h-1.86621a.84012.84012,0,0,0,.86719.81933,1.2296,1.2296,0,0,0,.68262-.21484l.23242.43066a1.85132,1.85132,0,0,1-1.00488.31641A1.416,1.416,0,0,1,145.61347,63.44043Zm1.96777-.28125c0-.4541-.19726-.72949-.59765-.72949a.7368.7368,0,0,0-.70606.72949Z" fill="#a0d98f"/><path d="M148.83808,61.96875h.56836l.04785.52051h.02344a.99823.99823,0,0,1,.832-.5918.74566.74566,0,0,1,.335.05957l-.12012.59863a.94537.94537,0,0,0-.30469-.04785c-.23339,0-.51464.16114-.69335.60352v1.79492h-.68848Z" fill="#a0d98f"/><path d="M119.173,167.49121c0-1.26172.70605-2.00976,1.72266-2.00976,1.02343,0,1.72851.748,1.72851,2.00976,0,1.26856-.70508,2.0459-1.72851,2.0459C119.87909,169.53711,119.173,168.75977,119.173,167.49121Zm2.7334,0c0-.87305-.39453-1.40527-1.01074-1.40527s-1.01075.53222-1.01075,1.40527c0,.87891.39454,1.44141,1.01075,1.44141S121.90644,168.37012,121.90644,167.49121Z" fill="#ced2d9"/><path d="M123.31757,168.37012v-1.8418h.68848v1.75293c0,.48437.13769.66309.4541.66309.25781,0,.43066-.11914.65234-.40625v-2.00977H125.8v2.93652h-.56152l-.05371-.43066h-.01856a1.1948,1.1948,0,0,1-.94531.50293C123.593,169.53711,123.31757,169.1123,123.31757,168.37012Z" fill="#ced2d9"/><path d="M126.77558,168.47266v-1.40039h-.419v-.51368l.45508-.03027.084-.80176h.57421v.80176h.74708v.54395h-.74708v1.40039c0,.34668.13086.51367.41211.51367a.84185.84185,0,0,0,.30567-.06543l.11914.50879a1.87391,1.87391,0,0,1-.59766.10742C127.02656,169.53711,126.77558,169.10645,126.77558,168.47266Z" fill="#ced2d9"/><path d="M128.8332,166.52832h.56836l.04785.31055h.02441a1.43192,1.43192,0,0,1,.88477-.38282c.72949,0,1.15429.58692,1.15429,1.4961,0,1.00488-.60351,1.585-1.25586,1.585a1.18891,1.18891,0,0,1-.7539-.32324l.01758.49023v.92188h-.6875ZM130.801,167.958c0-.58594-.19141-.9336-.63379-.9336a.94329.94329,0,0,0-.64648.32911v1.37011a.92888.92888,0,0,0,.59277.24512C130.50214,168.96875,130.801,168.62207,130.801,167.958Z" fill="#ced2d9"/><path d="M132.177,168.37012v-1.8418h.68847v1.75293c0,.48437.1377.66309.4541.66309.25782,0,.43067-.11914.65235-.40625v-2.00977h.6875v2.93652h-.56153l-.05371-.43066h-.01855a1.19483,1.19483,0,0,1-.94531.50293C132.45234,169.53711,132.177,169.1123,132.177,168.37012Z" fill="#ced2d9"/><path d="M135.634,168.47266v-1.40039h-.418v-.51368l.4541-.03027.084-.80176h.57422v.80176h.74707v.54395h-.74707v1.40039c0,.34668.13184.51367.41211.51367a.83748.83748,0,0,0,.30567-.06543l.11914.50879a1.874,1.874,0,0,1-.59766.10742C135.88593,169.53711,135.634,169.10645,135.634,168.47266Z" fill="#ced2d9"/><path d="M138.94745,165.55371h.78418l.69336,1.91406c.084.24512.168.50782.252.76563h.02343c.084-.25781.16114-.52051.24512-.76563l.67578-1.91406h.79v3.91113h-.64062v-1.78808c0-.36524.05468-.88574.08984-1.24414h-.02344l-.31738.90918-.63965,1.75879H140.467l-.64551-1.75879-.31153-.90918h-.02343c.02929.3584.08886.8789.08886,1.24414v1.78808h-.62793Z" fill="#ced2d9"/><path d="M143.26679,165.625a.42648.42648,0,1,1,.4248.38867A.39482.39482,0,0,1,143.26679,165.625Zm.07812.90332h.6875v2.93652h-.6875Z" fill="#ced2d9"/><path d="M145.4914,167.93359l-.87305-1.40527h.74219l.32812.55664c.084.16113.17969.335.26954.49609h.02343c.07227-.16113.15625-.335.22754-.49609l.28125-.55664h.71192l-.86719,1.4834.93262,1.45312h-.74121l-.35938-.58007c-.0957-.17286-.19727-.35254-.29883-.52051h-.02344c-.084.168-.17382.34082-.25781.52051l-.31054.58007h-.71778Z" fill="#ced2d9"/><path d="M147.466,168a1.43,1.43,0,0,1,1.35156-1.54395c.7959,0,1.21484.57422,1.21484,1.39454a1.56629,1.56629,0,0,1-.03027.335h-1.86621a.84076.84076,0,0,0,.86719.81933,1.22269,1.22269,0,0,0,.68164-.21582l.2334.43067a1.8496,1.8496,0,0,1-1.00489.31738A1.416,1.416,0,0,1,147.466,168Zm1.96777-.28125c0-.45508-.19726-.72949-.59765-.72949a.73746.73746,0,0,0-.70606.72949Z" fill="#ced2d9"/><path d="M150.68964,166.52832h.56836l.04785.52051h.02344a.99949.99949,0,0,1,.832-.59278.74441.74441,0,0,1,.335.06055l-.12012.59766a.97263.97263,0,0,0-.30468-.04785c-.2334,0-.51465.16211-.69336.60449v1.79394h-.68848Z" fill="#ced2d9"/><path d="M110.80488,126.01855l.40625-.47265a1.55844,1.55844,0,0,0,1.0166.44238c.44336,0,.68261-.19726.68261-.502,0-.32324-.251-.42481-.60449-.57422l-.53808-.2334a1.12876,1.12876,0,0,1-.79-1.041,1.19028,1.19028,0,0,1,1.3164-1.10059,1.728,1.728,0,0,1,1.20215.49609l-.35254.44336a1.27371,1.27371,0,0,0-.84961-.335c-.37109,0-.61621.17285-.61621.46,0,.30567.29883.41895.62207.55078l.53223.22071a1.0963,1.0963,0,0,1,.79,1.05957,1.24365,1.24365,0,0,1-1.40625,1.16015A2.02656,2.02656,0,0,1,110.80488,126.01855Z" fill="#74d4cf"/><path d="M114.21991,125.52832v-1.40039h-.418v-.51367l.4541-.03028.084-.80175h.57422v.80175h.74707v.544h-.74707v1.40039c0,.34668.13184.51367.41211.51367a.83717.83717,0,0,0,.30566-.06543l.11914.50879a1.87384,1.87384,0,0,1-.59765.10742C114.47187,126.59277,114.21991,126.16211,114.21991,125.52832Z" fill="#74d4cf"/><path d="M115.99726,125.73145c0-.62793.52051-.957,1.72851-1.08887-.01171-.31055-.13769-.57422-.53808-.57422a1.67329,1.67329,0,0,0-.8252.28711l-.25195-.46094a2.30216,2.30216,0,0,1,1.209-.38281c.7295,0,1.09375.44922,1.09375,1.26855v1.74024h-.56836l-.04687-.32227h-.02441a1.43211,1.43211,0,0,1-.90918.39453A.82065.82065,0,0,1,115.99726,125.73145Zm1.72851,0v-.65821c-.80175.10156-1.06445.31153-1.06445.60449,0,.2627.17969.377.42481.377A.935.935,0,0,0,117.72577,125.73145Z" fill="#74d4cf"/><path d="M119.24433,125.52832v-1.40039h-.419v-.51367l.45508-.03028.084-.80175h.57421v.80175h.74708v.544h-.74708v1.40039c0,.34668.13086.51367.41211.51367a.84164.84164,0,0,0,.30567-.06543l.11914.50879a1.87391,1.87391,0,0,1-.59766.10742C119.49531,126.59277,119.24433,126.16211,119.24433,125.52832Z" fill="#74d4cf"/><path d="M121.01484,125.05566a1.42994,1.42994,0,0,1,1.35156-1.54394c.7959,0,1.21484.57422,1.21484,1.39453a1.56687,1.56687,0,0,1-.03027.335h-1.86621a.84077.84077,0,0,0,.86719.81934,1.22276,1.22276,0,0,0,.68164-.21582l.2334.43066a1.84952,1.84952,0,0,1-1.00489.31738A1.416,1.416,0,0,1,121.01484,125.05566Zm1.96777-.28125c0-.45507-.19727-.72949-.59766-.72949a.73746.73746,0,0,0-.70605.72949Z" fill="#74d4cf"/><path d="M124.97577,122.60938h.73536l.5498,1.96777c.126.44238.21582.82519.34766,1.27344h.02343c.13184-.44825.22168-.83106.34082-1.27344l.54493-1.96777h.71191l-1.21484,3.91113h-.81934Z" fill="#74d4cf"/><path d="M128.31269,125.73145c0-.62793.52051-.957,1.72851-1.08887-.01171-.31055-.13769-.57422-.53808-.57422a1.67992,1.67992,0,0,0-.82617.28711l-.251-.46094a2.30155,2.30155,0,0,1,1.208-.38281c.73047,0,1.09472.44922,1.09472,1.26855v1.74024h-.56738l-.04883-.32227h-.02343a1.43432,1.43432,0,0,1-.90918.39453A.82065.82065,0,0,1,128.31269,125.73145Zm1.72851,0v-.65821c-.80175.10156-1.06445.31153-1.06445.60449,0,.2627.17871.377.42481.377A.935.935,0,0,0,130.0412,125.73145Z" fill="#74d4cf"/><path d="M131.55488,123.584h.56836l.04785.52051h.02343a.99949.99949,0,0,1,.832-.59277.74433.74433,0,0,1,.335.06055l-.12012.59765a.97265.97265,0,0,0-.30469-.04785c-.2334,0-.51465.16211-.69336.60449v1.79395h-.68847Z" fill="#74d4cf"/><path d="M133.7082,122.68066a.42595.42595,0,1,1,.42382.38868A.394.394,0,0,1,133.7082,122.68066Zm.07714.90332h.68848v2.93653h-.68848Z" fill="#74d4cf"/><path d="M135.19745,125.73145c0-.62793.52051-.957,1.72852-1.08887-.01172-.31055-.1377-.57422-.53809-.57422a1.67992,1.67992,0,0,0-.82617.28711l-.251-.46094a2.30151,2.30151,0,0,1,1.208-.38281c.73047,0,1.09473.44922,1.09473,1.26855v1.74024h-.56738l-.04883-.32227h-.02344a1.4343,1.4343,0,0,1-.90918.39453A.82065.82065,0,0,1,135.19745,125.73145Zm1.72852,0v-.65821c-.80176.10156-1.06445.31153-1.06445.60449,0,.2627.17871.377.4248.377A.935.935,0,0,0,136.926,125.73145Z" fill="#74d4cf"/><path d="M139.06171,126.21h-.01758l-.06054.31055h-.54395v-4.22266h.68848v1.08887l-.01856.49023a1.34415,1.34415,0,0,1,.84961-.36523c.73535,0,1.16016.58691,1.16016,1.49023,0,1.01075-.60449,1.59082-1.25586,1.59082A1.17374,1.17374,0,0,1,139.06171,126.21Zm1.3457-1.19629c0-.58594-.1914-.93359-.63378-.93359a.93773.93773,0,0,0-.64551.3291v1.37012a.91332.91332,0,0,0,.59179.24511C140.10859,126.02441,140.40741,125.67773,140.40741,125.01367Z" fill="#74d4cf"/><path d="M141.80683,125.76758v-3.46973h.68848v3.50488c0,.168.07714.22754.14941.22754a.42052.42052,0,0,0,.10742-.01172l.08985.51465a.95825.95825,0,0,1-.36524.05957C141.98652,126.59277,141.80683,126.27539,141.80683,125.76758Z" fill="#74d4cf"/><path d="M143.23652,125.05566a1.42994,1.42994,0,0,1,1.35156-1.54394c.7959,0,1.21484.57422,1.21484,1.39453a1.63285,1.63285,0,0,1-.03027.335h-1.86621a.84077.84077,0,0,0,.86719.81934,1.23067,1.23067,0,0,0,.68261-.21582l.23242.43066a1.85207,1.85207,0,0,1-1.00488.31738A1.416,1.416,0,0,1,143.23652,125.05566Zm1.96777-.28125c0-.45507-.19727-.72949-.59766-.72949a.73681.73681,0,0,0-.70605.72949Z" fill="#74d4cf"/><path d="M147.717,122.60938h2.36328v.58593h-1.669v1.10645h1.42383v.58594h-1.42383v1.63281H147.717Z" fill="#74d4cf"/><path d="M150.63007,122.68066a.42595.42595,0,1,1,.42383.38868A.394.394,0,0,1,150.63007,122.68066Zm.07715.90332h.68848v2.93653h-.68848Z" fill="#74d4cf"/><path d="M152.2746,125.76758v-3.46973h.6875v3.50488c0,.168.07813.22754.15039.22754a.42052.42052,0,0,0,.10742-.01172l.08985.51465a.95458.95458,0,0,1-.36524.05957C152.45429,126.59277,152.2746,126.27539,152.2746,125.76758Z" fill="#74d4cf"/><path d="M153.99726,125.52832v-1.40039h-.418v-.51367l.4541-.03028.084-.80175h.57421v.80175h.74707v.544h-.74707v1.40039c0,.34668.13184.51367.41211.51367a.83727.83727,0,0,0,.30567-.06543l.11914.50879a1.87391,1.87391,0,0,1-.59766.10742C154.24921,126.59277,153.99726,126.16211,153.99726,125.52832Z" fill="#74d4cf"/><path d="M155.76777,125.05566a1.42994,1.42994,0,0,1,1.35156-1.54394c.7959,0,1.21484.57422,1.21484,1.39453a1.63285,1.63285,0,0,1-.03027.335h-1.86621a.84077.84077,0,0,0,.86719.81934,1.23067,1.23067,0,0,0,.68261-.21582l.23242.43066a1.85207,1.85207,0,0,1-1.00488.31738A1.416,1.416,0,0,1,155.76777,125.05566Zm1.96777-.28125c0-.45507-.19727-.72949-.59766-.72949a.73681.73681,0,0,0-.70605.72949Z" fill="#74d4cf"/><path d="M158.99238,123.584h.56836l.04785.52051h.02343a.99949.99949,0,0,1,.832-.59277.74433.74433,0,0,1,.335.06055l-.12012.59765a.97265.97265,0,0,0-.30469-.04785c-.2334,0-.51465.16211-.69336.60449v1.79395h-.68847Z" fill="#74d4cf"/></svg>