<svg xmlns="http://www.w3.org/2000/svg" xmlns:xlink="http://www.w3.org/1999/xlink" viewBox="0 0 270 214">
  <defs>
    <linearGradient id="linear-gradient" x1="34.54181" y1="30.80756" x2="34.54181" y2="40.14318" gradientUnits="userSpaceOnUse">
      <stop offset="0" stop-color="#e6e6e6"/>
      <stop offset="0.1144" stop-color="#e0e0e0"/>
      <stop offset="0.27295" stop-color="#cecece"/>
      <stop offset="0.45731" stop-color="#b0b0b0"/>
      <stop offset="0.66114" stop-color="#878787"/>
      <stop offset="0.87829" stop-color="#535353"/>
      <stop offset="1" stop-color="#333"/>
    </linearGradient>
    <linearGradient id="linear-gradient-2" x1="77.48568" y1="30.80756" x2="77.48568" y2="40.14318" xlink:href="#linear-gradient"/>
    <linearGradient id="linear-gradient-3" x1="118.56243" y1="30.80756" x2="118.56243" y2="40.14318" xlink:href="#linear-gradient"/>
    <linearGradient id="linear-gradient-4" x1="161.5063" y1="30.80756" x2="161.5063" y2="40.14318" xlink:href="#linear-gradient"/>
    <linearGradient id="linear-gradient-5" x1="202.58942" y1="30.80756" x2="202.58942" y2="40.14318" xlink:href="#linear-gradient"/>
    <linearGradient id="linear-gradient-6" x1="245.52692" y1="30.80756" x2="245.52692" y2="40.14318" xlink:href="#linear-gradient"/>
    <linearGradient id="linear-gradient-7" x1="34.54181" y1="73.75143" x2="34.54181" y2="83.08706" xlink:href="#linear-gradient"/>
    <linearGradient id="linear-gradient-8" x1="77.48568" y1="73.75143" x2="77.48568" y2="83.08706" xlink:href="#linear-gradient"/>
    <linearGradient id="linear-gradient-9" x1="118.56243" y1="73.75143" x2="118.56243" y2="83.08706" xlink:href="#linear-gradient"/>
    <linearGradient id="linear-gradient-10" x1="161.5063" y1="73.75143" x2="161.5063" y2="83.08706" xlink:href="#linear-gradient"/>
    <linearGradient id="linear-gradient-11" x1="202.58305" y1="73.75143" x2="202.58305" y2="83.08706" xlink:href="#linear-gradient"/>
    <linearGradient id="linear-gradient-12" x1="245.52692" y1="73.75143" x2="245.52692" y2="83.08706" xlink:href="#linear-gradient"/>
    <linearGradient id="linear-gradient-13" x1="34.54181" y1="178.31042" x2="34.54181" y2="187.64605" xlink:href="#linear-gradient"/>
    <linearGradient id="linear-gradient-14" x1="77.48568" y1="178.31042" x2="77.48568" y2="187.64605" xlink:href="#linear-gradient"/>
    <linearGradient id="linear-gradient-15" x1="118.56243" y1="178.31042" x2="118.56243" y2="187.64605" xlink:href="#linear-gradient"/>
    <linearGradient id="linear-gradient-16" x1="161.5063" y1="178.31042" x2="161.5063" y2="187.64605" xlink:href="#linear-gradient"/>
    <linearGradient id="linear-gradient-17" x1="202.58942" y1="178.31042" x2="202.58942" y2="187.64605" xlink:href="#linear-gradient"/>
    <linearGradient id="linear-gradient-18" x1="245.52692" y1="178.31042" x2="245.52692" y2="187.64605" xlink:href="#linear-gradient"/>
    <linearGradient id="linear-gradient-19" x1="34.54181" y1="135.36655" x2="34.54181" y2="144.70218" xlink:href="#linear-gradient"/>
    <linearGradient id="linear-gradient-20" x1="77.48568" y1="135.36655" x2="77.48568" y2="144.70218" xlink:href="#linear-gradient"/>
    <linearGradient id="linear-gradient-21" x1="118.56243" y1="135.36655" x2="118.56243" y2="144.70218" xlink:href="#linear-gradient"/>
    <linearGradient id="linear-gradient-22" x1="161.5063" y1="135.36655" x2="161.5063" y2="144.70218" xlink:href="#linear-gradient"/>
    <linearGradient id="linear-gradient-23" x1="202.58305" y1="135.36655" x2="202.58305" y2="144.70218" xlink:href="#linear-gradient"/>
    <linearGradient id="linear-gradient-24" x1="245.52692" y1="135.36655" x2="245.52692" y2="144.70218" xlink:href="#linear-gradient"/>
  </defs>
  <title>p1</title>
  <g id="Panel_BG" data-name="Panel BG">
    <rect width="270" height="213.84025" rx="3" ry="3" fill="#1a1a1a"/>
  </g>
  <g id="Modul_BGs" data-name="Modul BGs">
    <g>
      <rect x="6.28513" y="14.68676" width="258.16309" height="39.70996" rx="1.25" ry="1.25" fill="#414141"/>
      <path d="M263.19816,14.937a1,1,0,0,1,1,1v37.2096a1,1,0,0,1-1,1H7.53492a1,1,0,0,1-1-1V15.937a1,1,0,0,1,1-1H263.19816m0-.5H7.53492a1.5017,1.5017,0,0,0-1.5,1.5v37.2096a1.5017,1.5017,0,0,0,1.5,1.5H263.19816a1.50171,1.50171,0,0,0,1.5-1.5V15.937a1.50171,1.50171,0,0,0-1.5-1.5Z" fill="#cfb199"/>
    </g>
    <g>
      <rect x="6.28513" y="57.6311" width="127.46436" height="39.70947" rx="1.25" ry="1.25" fill="#414141"/>
      <path d="M132.49943,57.88086a1,1,0,0,1,1,1V96.0905a1,1,0,0,1-1,1H7.53494a1,1,0,0,1-1-1V58.88086a1,1,0,0,1,1-1H132.49943m0-.5H7.53494a1.5017,1.5017,0,0,0-1.5,1.5V96.0905a1.5017,1.5017,0,0,0,1.5,1.5H132.49943a1.50171,1.50171,0,0,0,1.5-1.5V58.88086a1.50171,1.50171,0,0,0-1.5-1.5Z" fill="#ced2d9"/>
    </g>
    <g>
      <rect x="136.98386" y="57.6311" width="127.46436" height="39.70947" rx="1.25" ry="1.25" fill="#414141"/>
      <path d="M263.19816,57.88086a1,1,0,0,1,1,1V96.0905a1,1,0,0,1-1,1H138.23368a1,1,0,0,1-1-1V58.88086a1,1,0,0,1,1-1H263.19816m0-.5H138.23368a1.50171,1.50171,0,0,0-1.5,1.5V96.0905a1.50171,1.50171,0,0,0,1.5,1.5H263.19816a1.50171,1.50171,0,0,0,1.5-1.5V58.88086a1.50171,1.50171,0,0,0-1.5-1.5Z" fill="#cfb199"/>
    </g>
    <g>
      <rect x="6.28513" y="162.18969" width="258.16309" height="39.70996" rx="1.25" ry="1.25" fill="#414141"/>
      <path d="M263.19816,162.43988a1,1,0,0,1,1,1v37.20959a1,1,0,0,1-1,1H7.53492a1,1,0,0,1-1-1V163.43988a1,1,0,0,1,1-1H263.19816m0-.5H7.53492a1.5017,1.5017,0,0,0-1.5,1.5v37.20959a1.5017,1.5017,0,0,0,1.5,1.5H263.19816a1.50171,1.50171,0,0,0,1.5-1.5V163.43988a1.50171,1.50171,0,0,0-1.5-1.5Z" fill="#e3d8ac"/>
    </g>
    <g>
      <rect x="6.28513" y="119.24584" width="127.46436" height="39.70996" rx="1.25" ry="1.25" fill="#414141"/>
      <path d="M132.49943,119.496a1,1,0,0,1,1,1v37.20961a1,1,0,0,1-1,1H7.53494a1,1,0,0,1-1-1V120.496a1,1,0,0,1,1-1H132.49943m0-.5H7.53494a1.5017,1.5017,0,0,0-1.5,1.5v37.20961a1.5017,1.5017,0,0,0,1.5,1.5H132.49943a1.50171,1.50171,0,0,0,1.5-1.5V120.496a1.50171,1.50171,0,0,0-1.5-1.5Z" fill="#ced2d9"/>
    </g>
    <g>
      <rect x="136.98386" y="119.24584" width="127.46436" height="39.70996" rx="1.25" ry="1.25" fill="#414141"/>
      <path d="M263.19816,119.496a1,1,0,0,1,1,1v37.20961a1,1,0,0,1-1,1H138.23368a1,1,0,0,1-1-1V120.496a1,1,0,0,1,1-1H263.19816m0-.5H138.23368a1.50171,1.50171,0,0,0-1.5,1.5v37.20961a1.50171,1.50171,0,0,0,1.5,1.5H263.19816a1.50171,1.50171,0,0,0,1.5-1.5V120.496a1.50171,1.50171,0,0,0-1.5-1.5Z" fill="#e3d8ac"/>
    </g>
  </g>
  <g id="Punkte_leer" data-name="Punkte leer">
    <path d="M15.87057,45.09446a.93017.93017,0,1,1-.93018.93017.93122.93122,0,0,1,.93018-.93017m0-.28346a1.21363,1.21363,0,1,0,1.21362,1.21363A1.21363,1.21363,0,0,0,15.87057,44.811Z" fill="#e6e6e6"/>
    <path d="M15.87057,48.82871a.93017.93017,0,1,1-.93018.93017.93122.93122,0,0,1,.93018-.93017m0-.28346a1.21363,1.21363,0,1,0,1.21362,1.21363,1.21363,1.21363,0,0,0-1.21362-1.21363Z" fill="#e6e6e6"/>
    <path d="M226.85566,46.96158a.93017.93017,0,1,1-.93015.93017.93122.93122,0,0,1,.93015-.93017m0-.28346a1.21363,1.21363,0,1,0,1.21365,1.21363,1.21363,1.21363,0,0,0-1.21365-1.21363Z" fill="#e6e6e6"/>
    <path d="M15.87057,88.03833a.93016.93016,0,1,1-.93018.93017.93122.93122,0,0,1,.93018-.93017m0-.28346a1.21363,1.21363,0,1,0,1.21362,1.21363,1.21363,1.21363,0,0,0-1.21362-1.21363Z" fill="#e6e6e6"/>
    <path d="M15.87057,91.77258a.93017.93017,0,1,1-.93018.93018.93123.93123,0,0,1,.93018-.93018m0-.28346a1.21363,1.21363,0,1,0,1.21362,1.21364,1.21364,1.21364,0,0,0-1.21362-1.21364Z" fill="#e6e6e6"/>
    <path d="M58.81443,89.90545a.93017.93017,0,1,1-.93016.93018.93124.93124,0,0,1,.93016-.93018m0-.28346a1.21363,1.21363,0,1,0,1.21364,1.21364A1.21363,1.21363,0,0,0,58.81443,89.622Z" fill="#e6e6e6"/>
    <path d="M99.89118,89.90545a.93017.93017,0,1,1-.93018.93018.93123.93123,0,0,1,.93018-.93018m0-.28346a1.21363,1.21363,0,1,0,1.21362,1.21364A1.21364,1.21364,0,0,0,99.89118,89.622Z" fill="#e6e6e6"/>
    <path d="M226.85566,194.46444a.93017.93017,0,1,1-.93015.93018.93123.93123,0,0,1,.93015-.93018m0-.28346a1.21363,1.21363,0,1,0,1.21365,1.21364,1.21364,1.21364,0,0,0-1.21365-1.21364Z" fill="#e6e6e6"/>
    <path d="M15.87057,192.59732a.93018.93018,0,1,1-.93018.93018.93123.93123,0,0,1,.93018-.93018m0-.28346a1.21364,1.21364,0,1,0,1.21362,1.21364,1.21364,1.21364,0,0,0-1.21362-1.21364Z" fill="#e6e6e6"/>
    <path d="M15.87057,196.33157a.93017.93017,0,1,1-.93018.93018.93123.93123,0,0,1,.93018-.93018m0-.28346a1.21363,1.21363,0,1,0,1.21362,1.21364,1.21364,1.21364,0,0,0-1.21362-1.21364Z" fill="#e6e6e6"/>
    <circle cx="99.89118" cy="152.45074" r="1.21363" fill="#e6e6e6"/>
    <path d="M15.87057,151.52058a.93017.93017,0,1,1-.93018.93016.93121.93121,0,0,1,.93018-.93016m0-.28346a1.21363,1.21363,0,1,0,1.21362,1.21362,1.21363,1.21363,0,0,0-1.21362-1.21362Z" fill="#e6e6e6"/>
    <path d="M183.91181,89.90545a.93017.93017,0,1,1-.93018.93018.93122.93122,0,0,1,.93018-.93018m0-.28346a1.21363,1.21363,0,1,0,1.21362,1.21364,1.21364,1.21364,0,0,0-1.21362-1.21364Z" fill="#e6e6e6"/>
    <path d="M183.91181,151.52058a.93017.93017,0,1,1-.93018.93016.93121.93121,0,0,1,.93018-.93016m0-.28346a1.21363,1.21363,0,1,0,1.21362,1.21362,1.21363,1.21363,0,0,0-1.21362-1.21362Z" fill="#e6e6e6"/>
  </g>
  <g id="LEDs_Top" data-name="LEDs Top">
    <circle cx="15.87056" cy="35.47537" r="2.80069" fill="#6e2014" stroke="#252525" stroke-miterlimit="10" stroke-width="0.3"/>
    <circle cx="58.81443" cy="35.39267" r="2.80069" fill="#6e2014" stroke="#252525" stroke-miterlimit="10" stroke-width="0.3"/>
    <circle cx="142.83505" cy="35.39267" r="2.80069" fill="#6e2014" stroke="#252525" stroke-miterlimit="10" stroke-width="0.3"/>
    <circle cx="183.9118" cy="35.39267" r="2.80069" fill="#6e2014" stroke="#252525" stroke-miterlimit="10" stroke-width="0.3"/>
    <circle cx="226.85567" cy="35.39267" r="2.80069" fill="#6e2014" stroke="#252525" stroke-miterlimit="10" stroke-width="0.3"/>
    <circle cx="15.87056" cy="78.41924" r="2.80069" fill="#6e2014" stroke="#252525" stroke-miterlimit="10" stroke-width="0.3"/>
    <circle cx="58.81443" cy="78.33655" r="2.80069" fill="#6e2014" stroke="#252525" stroke-miterlimit="10" stroke-width="0.3"/>
    <circle cx="99.89118" cy="78.33655" r="2.80069" fill="#6e2014" stroke="#252525" stroke-miterlimit="10" stroke-width="0.3"/>
    <circle cx="142.83505" cy="78.41924" r="2.80069" fill="#6e2014" stroke="#252525" stroke-miterlimit="10" stroke-width="0.3"/>
    <circle cx="183.9118" cy="78.33655" r="2.80069" fill="#6e2014" stroke="#252525" stroke-miterlimit="10" stroke-width="0.3"/>
    <circle cx="226.85567" cy="78.33655" r="2.80069" fill="#6e2014" stroke="#252525" stroke-miterlimit="10" stroke-width="0.3"/>
    <circle cx="15.87056" cy="182.97824" r="2.80069" fill="#6e2014" stroke="#252525" stroke-miterlimit="10" stroke-width="0.3"/>
    <circle cx="58.81443" cy="182.89554" r="2.80069" fill="#6e2014" stroke="#252525" stroke-miterlimit="10" stroke-width="0.3"/>
    <circle cx="99.89118" cy="182.89554" r="2.80069" fill="#6e2014" stroke="#252525" stroke-miterlimit="10" stroke-width="0.3"/>
    <circle cx="142.83505" cy="182.89554" r="2.80069" fill="#6e2014" stroke="#252525" stroke-miterlimit="10" stroke-width="0.3"/>
    <circle cx="183.9118" cy="182.89554" r="2.80069" fill="#6e2014" stroke="#252525" stroke-miterlimit="10" stroke-width="0.3"/>
    <circle cx="226.85567" cy="182.89554" r="2.80069" fill="#6e2014" stroke="#252525" stroke-miterlimit="10" stroke-width="0.3"/>
    <circle cx="15.87056" cy="140.03436" r="2.80069" fill="#6e2014" stroke="#252525" stroke-miterlimit="10" stroke-width="0.3"/>
    <circle cx="58.81443" cy="139.95167" r="2.80069" fill="#6e2014" stroke="#252525" stroke-miterlimit="10" stroke-width="0.3"/>
    <circle cx="99.89118" cy="139.95167" r="2.80069" fill="#6e2014" stroke="#252525" stroke-miterlimit="10" stroke-width="0.3"/>
    <circle cx="142.83505" cy="140.03436" r="2.80069" fill="#6e2014" stroke="#252525" stroke-miterlimit="10" stroke-width="0.3"/>
    <circle cx="183.9118" cy="139.95167" r="2.80069" fill="#6e2014" stroke="#252525" stroke-miterlimit="10" stroke-width="0.3"/>
    <circle cx="226.85567" cy="139.95167" r="2.80069" fill="#6e2014" stroke="#252525" stroke-miterlimit="10" stroke-width="0.3"/>
    <circle cx="99.89118" cy="35.39267" r="2.80069" fill="#6e2014" stroke="#252525" stroke-miterlimit="10" stroke-width="0.3"/>
  </g>
  <g id="Parameter_Typo" data-name="Parameter Typo">
    <g>
      <path d="M28.61865,48.90918H27.30859l-.30469,1.05859H26.292l1.28027-3.91113h.81348l1.27393,3.91113h-.73584Zm-.15527-.54395-.1377-.47852c-.11963-.41309-.23926-.86133-.353-1.292h-.02393c-.10742.43652-.22119.87891-.34668,1.292l-.1377.47852Z" fill="#e6e6e6"/>
      <path d="M30.07813,47.5752h-.41846v-.51367l.45459-.03027.084-.80176h.57422v.80176H31.52v.54395h-.74756v1.40039c0,.34668.13135.51367.4126.51367a.83915.83915,0,0,0,.30518-.06543l.11914.50879a1.87648,1.87648,0,0,1-.59766.10742c-.68213,0-.93359-.43066-.93359-1.06445Z" fill="#e6e6e6"/>
      <path d="M32.2373,47.5752h-.41846v-.51367l.45459-.03027.084-.80176h.57422v.80176h.74756v.54395h-.74756v1.40039c0,.34668.13135.51367.4126.51367a.83915.83915,0,0,0,.30518-.06543l.11914.50879a1.87648,1.87648,0,0,1-.59766.10742c-.68213,0-.93359-.43066-.93359-1.06445Z" fill="#e6e6e6"/>
      <path d="M35.80859,48.08984c-.00586-.31055-.1377-.57422-.53223-.57422a1.63458,1.63458,0,0,0-.8252.28711l-.25146-.46094a2.27784,2.27784,0,0,1,1.20215-.38281c.73584,0,1.09473.44922,1.09473,1.26855v1.74023h-.562l-.0542-.32227H35.8623a1.431,1.431,0,0,1-.90918.39453.82559.82559,0,0,1-.873-.86133C34.08008,48.55078,34.60645,48.22168,35.80859,48.08984ZM35.16895,49.502a.92292.92292,0,0,0,.63965-.32324v-.6582c-.79541.10156-1.05859.31152-1.05859.60449C34.75,49.3877,34.92334,49.502,35.16895,49.502Z" fill="#e6e6e6"/>
      <path d="M38.61426,46.959a1.21139,1.21139,0,0,1,.86133.3418l-.3291.43652a.73136.73136,0,0,0-.49658-.21582c-.47217,0-.80127.38867-.80127.98145,0,.58594.32275.97461.7832.97461a.97029.97029,0,0,0,.60449-.251l.28711.43652a1.47193,1.47193,0,0,1-.96289.377,1.39752,1.39752,0,0,1-1.418-1.53711A1.449,1.449,0,0,1,38.61426,46.959Z" fill="#e6e6e6"/>
      <path d="M40.09717,45.74512h.67627v2.6377H40.791l1.08887-1.35156h.75342l-1.00488,1.19629,1.10693,1.74023h-.748l-.75342-1.27344-.46045.52637v.74707h-.67627Z" fill="#e6e6e6"/>
    </g>
    <g>
      <path d="M68.05371,46.05664h1.041a1.95678,1.95678,0,0,1,.03613,3.91113H68.05371Zm.99316,3.34961c.78955,0,1.24414-.44922,1.24414-1.41211,0-.957-.45459-1.376-1.24414-1.376H68.748v2.78809Z" fill="#e6e6e6"/>
      <path d="M72.88721,46.959c.79541,0,1.21436.57422,1.21436,1.39453a1.46057,1.46057,0,0,1-.03027.32227H72.20508a.84375.84375,0,0,0,.86719.832,1.22666,1.22666,0,0,0,.68213-.21582l.2334.43066a1.85343,1.85343,0,0,1-1.00488.31738,1.54841,1.54841,0,0,1-.0957-3.08105Zm.61572,1.28027c0-.4668-.19727-.74707-.59766-.74707-.34717,0-.64648.25684-.70605.74707Z" fill="#e6e6e6"/>
      <path d="M76.03955,46.959a1.21317,1.21317,0,0,1,.86133.3418l-.3291.43652a.73229.73229,0,0,0-.49658-.21582c-.47266,0-.80127.38867-.80127.98145,0,.58594.32275.97461.78369.97461a.969.969,0,0,0,.604-.251l.28711.43652a1.47315,1.47315,0,0,1-.96338.377,1.39742,1.39742,0,0,1-1.41748-1.53711A1.449,1.449,0,0,1,76.03955,46.959Z" fill="#e6e6e6"/>
      <path d="M79.06592,48.08984c-.00586-.31055-.13721-.57422-.53223-.57422a1.63782,1.63782,0,0,0-.82568.28711l-.251-.46094a2.27926,2.27926,0,0,1,1.20215-.38281c.73584,0,1.09473.44922,1.09473,1.26855v1.74023h-.5625l-.05371-.32227h-.01758a1.43434,1.43434,0,0,1-.90918.39453.82572.82572,0,0,1-.87354-.86133C77.3374,48.55078,77.86377,48.22168,79.06592,48.08984ZM78.42578,49.502a.92391.92391,0,0,0,.64014-.32324v-.6582c-.79541.10156-1.05859.31152-1.05859.60449C78.00732,49.3877,78.18066,49.502,78.42578,49.502Z" fill="#e6e6e6"/>
      <path d="M80.74121,50.62012a.6153.6153,0,0,0,.58594-.50293l.05371-.18457-1.1543-2.90137h.69971l.5083,1.44141c.084.25684.168.55078.25732.8252h.02393c.07178-.26855.14941-.56152.22168-.8252l.44238-1.44141h.66406L81.979,50.09961c-.24512.66406-.55029,1.07715-1.18994,1.07715a1.13262,1.13262,0,0,1-.38281-.06055l.12549-.53809A.73055.73055,0,0,0,80.74121,50.62012Z" fill="#e6e6e6"/>
      <path d="M84.78418,49.40625h.84961v-2.501h-.69971v-.43066a2.55039,2.55039,0,0,0,.87939-.31055h.51416v3.24219h.74756v.56152h-2.291Z" fill="#e6e6e6"/>
    </g>
    <g>
      <path d="M108.14746,46.05664h1.25049c.80127,0,1.39355.24512,1.39355.96289a.84855.84855,0,0,1-.66992.84863v.02441c.562.0957.87939.40039.87939.92676,0,.78418-.64014,1.14844-1.50146,1.14844h-1.35205Zm1.18457,1.62012c.55029,0,.77734-.209.77734-.57422,0-.3584-.251-.50781-.75928-.50781h-.5083v1.082Zm.0957,1.75293c.57422,0,.89111-.21484.89111-.6582,0-.40625-.311-.59766-.89111-.59766h-.58594v1.25586Z" fill="#e6e6e6"/>
      <path d="M111.70117,46.05664h1.31543c.85547,0,1.4834.29883,1.4834,1.208,0,.86719-.64551,1.26758-1.4834,1.26758h-.62207v1.43555h-.69336Zm1.25586,1.91992c.58594,0,.86133-.2334.86133-.71191,0-.49023-.293-.65234-.86133-.65234h-.5625v1.36426Z" fill="#e6e6e6"/>
      <path d="M116.44434,46.05664h.69336v3.3252h1.62109v.58594h-2.31445Z" fill="#e6e6e6"/>
      <path d="M120.458,46.959c.79541,0,1.21387.57422,1.21387,1.39453a1.46548,1.46548,0,0,1-.02979.32227h-1.86621a.84387.84387,0,0,0,.86768.832,1.22632,1.22632,0,0,0,.68164-.21582l.2334.43066a1.85343,1.85343,0,0,1-1.00488.31738,1.54841,1.54841,0,0,1-.0957-3.08105Zm.61621,1.28027c0-.4668-.19775-.74707-.59863-.74707-.34668,0-.64551.25684-.70557.74707Z" fill="#e6e6e6"/>
      <path d="M121.96533,47.03125h.69971l.4668,1.52539c.07764.28711.16748.58594.24512.88477h.02393c.0835-.29883.16748-.59766.25146-.88477l.46631-1.52539h.66406l-.999,2.93652h-.79541Z" fill="#e6e6e6"/>
      <path d="M126.41553,46.959c.79541,0,1.21436.57422,1.21436,1.39453a1.46057,1.46057,0,0,1-.03027.32227H125.7334a.84375.84375,0,0,0,.86719.832,1.22666,1.22666,0,0,0,.68213-.21582l.2334.43066a1.85343,1.85343,0,0,1-1.00488.31738,1.54841,1.54841,0,0,1-.0957-3.08105Zm.61572,1.28027c0-.4668-.19727-.74707-.59766-.74707-.34717,0-.64648.25684-.70605.74707Z" fill="#e6e6e6"/>
      <path d="M128.2876,45.74512h.688V49.25c0,.168.07764.22754.14941.22754a.422.422,0,0,0,.10791-.01172l.08936.51465a.9518.9518,0,0,1-.36475.05957c-.49023,0-.66992-.31738-.66992-.8252Z" fill="#e6e6e6"/>
    </g>
    <g>
      <path d="M150.54492,46.05664h1.041a1.95678,1.95678,0,0,1,.03613,3.91113h-1.07715Zm.99316,3.34961c.78955,0,1.24414-.44922,1.24414-1.41211,0-.957-.45459-1.376-1.24414-1.376h-.29883v2.78809Z" fill="#e6e6e6"/>
      <path d="M155.37842,46.959c.79541,0,1.21436.57422,1.21436,1.39453a1.46057,1.46057,0,0,1-.03027.32227h-1.86621a.84375.84375,0,0,0,.86719.832,1.22666,1.22666,0,0,0,.68213-.21582l.2334.43066a1.85343,1.85343,0,0,1-1.00488.31738,1.54841,1.54841,0,0,1-.0957-3.08105Zm.61572,1.28027c0-.4668-.19727-.74707-.59766-.74707-.34717,0-.64648.25684-.70605.74707Z" fill="#e6e6e6"/>
      <path d="M158.78174,48.08984c-.00586-.31055-.13721-.57422-.53223-.57422a1.63782,1.63782,0,0,0-.82568.28711l-.251-.46094A2.27926,2.27926,0,0,1,158.375,46.959c.73584,0,1.09473.44922,1.09473,1.26855v1.74023h-.5625l-.05371-.32227h-.01758a1.43434,1.43434,0,0,1-.90918.39453.82572.82572,0,0,1-.87354-.86133C157.05322,48.55078,157.57959,48.22168,158.78174,48.08984ZM158.1416,49.502a.92391.92391,0,0,0,.64014-.32324v-.6582c-.79541.10156-1.05859.31152-1.05859.60449C157.72314,49.3877,157.89648,49.502,158.1416,49.502Z" fill="#e6e6e6"/>
      <path d="M161.5874,46.959a1.21317,1.21317,0,0,1,.86133.3418l-.3291.43652a.73229.73229,0,0,0-.49658-.21582c-.47266,0-.80127.38867-.80127.98145,0,.58594.32275.97461.78369.97461a.969.969,0,0,0,.604-.251l.28711.43652a1.47315,1.47315,0,0,1-.96338.377,1.39742,1.39742,0,0,1-1.41748-1.53711A1.449,1.449,0,0,1,161.5874,46.959Z" fill="#e6e6e6"/>
      <path d="M164.61377,48.08984c-.00586-.31055-.13721-.57422-.53223-.57422a1.63782,1.63782,0,0,0-.82568.28711l-.251-.46094A2.27926,2.27926,0,0,1,164.207,46.959c.73584,0,1.09473.44922,1.09473,1.26855v1.74023h-.5625l-.05371-.32227H164.668a1.43434,1.43434,0,0,1-.90918.39453.82572.82572,0,0,1-.87354-.86133C162.88525,48.55078,163.41162,48.22168,164.61377,48.08984Zm-.64014,1.41211a.92391.92391,0,0,0,.64014-.32324v-.6582c-.79541.10156-1.05859.31152-1.05859.60449C163.55518,49.3877,163.72852,49.502,163.97363,49.502Z" fill="#e6e6e6"/>
      <path d="M166.28906,50.62012a.6153.6153,0,0,0,.58594-.50293l.05371-.18457-1.1543-2.90137h.69971l.5083,1.44141c.084.25684.168.55078.25732.8252h.02393c.07178-.26855.14941-.56152.22168-.8252l.44238-1.44141h.66406l-1.06494,3.06836c-.24512.66406-.55029,1.07715-1.18994,1.07715a1.13262,1.13262,0,0,1-.38281-.06055l.12549-.53809A.73055.73055,0,0,0,166.28906,50.62012Z" fill="#e6e6e6"/>
      <path d="M170.11719,49.56738c1.05859-1.02246,1.72266-1.69238,1.72266-2.27344a.59.59,0,0,0-.62842-.65723,1.05135,1.05135,0,0,0-.7417.4248l-.38281-.38281a1.55738,1.55738,0,0,1,1.21436-.58691,1.112,1.112,0,0,1,1.20215,1.167c0,.67578-.62793,1.36914-1.38135,2.165.19727-.01758.44824-.042.63379-.042h.93311v.58594h-2.57178Z" fill="#e6e6e6"/>
    </g>
    <g>
      <path d="M193.582,48.99316a1.56063,1.56063,0,0,0,1.02295.44238c.43652,0,.68164-.19727.68164-.502,0-.32324-.251-.4248-.60986-.57422l-.53223-.2334a1.12065,1.12065,0,0,1-.79-1.041,1.188,1.188,0,0,1,1.31006-1.10059,1.73255,1.73255,0,0,1,1.2085.49609l-.35889.44336a1.26154,1.26154,0,0,0-.84961-.335c-.37061,0-.60986.17285-.60986.46,0,.30566.29883.41895.62207.55078l.52637.2207a1.08958,1.08958,0,0,1,.78955,1.05957A1.24346,1.24346,0,0,1,194.58691,50.04a2.01557,2.01557,0,0,1-1.40576-.57422Z" fill="#e6e6e6"/>
      <path d="M196.60889,47.03125h.688v1.75293c0,.48438.1377.66309.45459.66309.25732,0,.43066-.11914.65186-.40625V47.03125h.688v2.93652h-.5625l-.05371-.43066H198.457a1.19463,1.19463,0,0,1-.94482.50293c-.62842,0-.90332-.4248-.90332-1.167Z" fill="#e6e6e6"/>
      <path d="M199.99414,49.19043a1.31008,1.31008,0,0,0,.81348.3291c.31738,0,.4668-.14941.4668-.35254,0-.24609-.31689-.35352-.62793-.47266-.38867-.14355-.82568-.36523-.82568-.85547,0-.51465.4126-.87988,1.0708-.87988a1.58549,1.58549,0,0,1,.9751.35352l-.31689.41895a1.09061,1.09061,0,0,0-.64648-.252c-.293,0-.43066.1377-.43066.32324,0,.22754.29346.32324.61035.43652.40088.14941.84326.34082.84326.8916,0,.502-.40088.90918-1.14209.90918a1.8601,1.8601,0,0,1-1.11279-.40723Z" fill="#e6e6e6"/>
      <path d="M202.64453,47.5752h-.41895v-.51367l.45459-.03027.0835-.80176h.57422v.80176h.748v.54395h-.748v1.40039c0,.34668.13184.51367.41309.51367a.83435.83435,0,0,0,.30469-.06543l.12012.50879a1.88291,1.88291,0,0,1-.59863.10742c-.68164,0-.93262-.43066-.93262-1.06445Z" fill="#e6e6e6"/>
      <path d="M206.21484,48.08984c-.00586-.31055-.1377-.57422-.53223-.57422a1.63458,1.63458,0,0,0-.8252.28711l-.25146-.46094a2.27784,2.27784,0,0,1,1.20215-.38281c.73584,0,1.09473.44922,1.09473,1.26855v1.74023h-.562l-.0542-.32227h-.01807a1.431,1.431,0,0,1-.90918.39453.82559.82559,0,0,1-.873-.86133C204.48633,48.55078,205.0127,48.22168,206.21484,48.08984ZM205.5752,49.502a.92292.92292,0,0,0,.63965-.32324v-.6582c-.79541.10156-1.05859.31152-1.05859.60449C205.15625,49.3877,205.32959,49.502,205.5752,49.502Z" fill="#e6e6e6"/>
      <path d="M207.6626,46.12793a.42622.42622,0,1,1,.4248.38867A.39456.39456,0,0,1,207.6626,46.12793Zm.07764.90332h.688v2.93652h-.688Z" fill="#e6e6e6"/>
      <path d="M209.30762,47.03125h.56836l.04785.39453h.02393a1.36535,1.36535,0,0,1,.96289-.4668c.62842,0,.90332.4248.90332,1.167v1.8418h-.688v-1.752c0-.48437-.1377-.66406-.46045-.66406a.92924.92924,0,0,0-.66992.36426v2.05176h-.688Z" fill="#e6e6e6"/>
    </g>
    <g>
      <path d="M238.21973,49.96777l-.84375-1.53125h-.5918v1.53125h-.69434V46.05664h1.31641c.81348,0,1.44141.28711,1.44141,1.16016A1.09258,1.09258,0,0,1,238.064,48.335l.93311,1.63281Zm-1.43555-2.08105h.5498c.53857,0,.82568-.22754.82568-.66992,0-.44922-.28711-.60449-.82568-.60449h-.5498Z" fill="#e6e6e6"/>
      <path d="M240.70215,46.959c.79541,0,1.21387.57422,1.21387,1.39453a1.46548,1.46548,0,0,1-.02979.32227H240.02a.84387.84387,0,0,0,.86768.832,1.22632,1.22632,0,0,0,.68164-.21582l.2334.43066a1.85343,1.85343,0,0,1-1.00488.31738,1.54841,1.54841,0,0,1-.0957-3.08105Zm.61621,1.28027c0-.4668-.19775-.74707-.59863-.74707-.34668,0-.64551.25684-.70557.74707Z" fill="#e6e6e6"/>
      <path d="M242.57422,45.74512h.688V49.25c0,.168.07764.22754.14941.22754a.422.422,0,0,0,.10791-.01172l.08984.51465a.95643.95643,0,0,1-.36523.05957c-.49023,0-.66992-.31738-.66992-.8252Z" fill="#e6e6e6"/>
      <path d="M245.35547,46.959c.79541,0,1.21387.57422,1.21387,1.39453a1.46548,1.46548,0,0,1-.02979.32227h-1.86621a.84387.84387,0,0,0,.86768.832,1.22632,1.22632,0,0,0,.68164-.21582l.2334.43066a1.85343,1.85343,0,0,1-1.00488.31738,1.54841,1.54841,0,0,1-.0957-3.08105Zm.61621,1.28027c0-.4668-.19775-.74707-.59863-.74707-.34668,0-.64551.25684-.70557.74707Z" fill="#e6e6e6"/>
      <path d="M248.75879,48.08984c-.00586-.31055-.1377-.57422-.53223-.57422a1.63458,1.63458,0,0,0-.8252.28711l-.25146-.46094a2.27784,2.27784,0,0,1,1.20215-.38281c.73584,0,1.09473.44922,1.09473,1.26855v1.74023h-.562l-.0542-.32227h-.01807a1.431,1.431,0,0,1-.90918.39453.82559.82559,0,0,1-.873-.86133C247.03027,48.55078,247.55664,48.22168,248.75879,48.08984Zm-.63965,1.41211a.92292.92292,0,0,0,.63965-.32324v-.6582c-.79541.10156-1.05859.31152-1.05859.60449C247.7002,49.3877,247.87354,49.502,248.11914,49.502Z" fill="#e6e6e6"/>
      <path d="M250.31445,49.19043a1.30683,1.30683,0,0,0,.81348.3291c.31689,0,.46631-.14941.46631-.35254,0-.24609-.31689-.35352-.62793-.47266-.38916-.14355-.82568-.36523-.82568-.85547,0-.51465.41309-.87988,1.0708-.87988a1.58549,1.58549,0,0,1,.9751.35352l-.31738.41895a1.08791,1.08791,0,0,0-.64551-.252c-.29346,0-.43066.1377-.43066.32324,0,.22754.293.32324.60986.43652.40088.14941.84326.34082.84326.8916,0,.502-.40039.90918-1.14258.90918a1.85984,1.85984,0,0,1-1.1123-.40723Z" fill="#e6e6e6"/>
      <path d="M254.02295,46.959c.79541,0,1.21436.57422,1.21436,1.39453a1.46057,1.46057,0,0,1-.03027.32227h-1.86621a.84375.84375,0,0,0,.86719.832,1.22666,1.22666,0,0,0,.68213-.21582l.2334.43066a1.85343,1.85343,0,0,1-1.00488.31738,1.54841,1.54841,0,0,1-.0957-3.08105Zm.61572,1.28027c0-.4668-.19727-.74707-.59766-.74707-.34717,0-.64648.25684-.70605.74707Z" fill="#e6e6e6"/>
    </g>
    <g>
      <path d="M28.61865,91.85352H27.30859l-.30469,1.05859H26.292L27.57227,89h.81348l1.27393,3.91211h-.73584Zm-.15527-.54492-.1377-.47852c-.11963-.41211-.23926-.86133-.353-1.292h-.02393c-.10742.43652-.22119.87988-.34668,1.292l-.1377.47852Z" fill="#e6e6e6"/>
      <path d="M30.07813,90.51953h-.41846v-.51465l.45459-.03027.084-.80078h.57422v.80078H31.52v.54492h-.74756v1.39941c0,.34668.13135.51465.4126.51465a.83965.83965,0,0,0,.30518-.06641l.11914.50879a1.87648,1.87648,0,0,1-.59766.10742c-.68213,0-.93359-.43066-.93359-1.06445Z" fill="#e6e6e6"/>
      <path d="M32.2373,90.51953h-.41846v-.51465l.45459-.03027.084-.80078h.57422v.80078h.74756v.54492h-.74756v1.39941c0,.34668.13135.51465.4126.51465a.83965.83965,0,0,0,.30518-.06641l.11914.50879a1.87648,1.87648,0,0,1-.59766.10742c-.68213,0-.93359-.43066-.93359-1.06445Z" fill="#e6e6e6"/>
      <path d="M35.80859,91.03418c-.00586-.31152-.1377-.57422-.53223-.57422a1.62546,1.62546,0,0,0-.8252.28711l-.25146-.46094a2.27784,2.27784,0,0,1,1.20215-.38281c.73584,0,1.09473.44824,1.09473,1.26758v1.74121h-.562l-.0542-.32324H35.8623a1.426,1.426,0,0,1-.90918.39453.82559.82559,0,0,1-.873-.86133C34.08008,91.49414,34.60645,91.165,35.80859,91.03418Zm-.63965,1.41113a.919.919,0,0,0,.63965-.32324v-.65723c-.79541.10156-1.05859.31055-1.05859.60352C34.75,92.332,34.92334,92.44531,35.16895,92.44531Z" fill="#e6e6e6"/>
      <path d="M38.61426,89.90332a1.21088,1.21088,0,0,1,.86133.34082l-.3291.43652a.73015.73015,0,0,0-.49658-.21484c-.47217,0-.80127.38867-.80127.98047,0,.58594.32275.97559.7832.97559a.9712.9712,0,0,0,.60449-.252l.28711.43652a1.46691,1.46691,0,0,1-.96289.377,1.397,1.397,0,0,1-1.418-1.53711A1.44877,1.44877,0,0,1,38.61426,89.90332Z" fill="#e6e6e6"/>
      <path d="M40.09717,88.68945h.67627v2.6377H40.791l1.08887-1.35254h.75342L41.62842,91.1709l1.10693,1.74121h-.748l-.75342-1.27441-.46045.52637v.748h-.67627Z" fill="#e6e6e6"/>
    </g>
    <g>
      <path d="M68.04785,89h1.041a1.95729,1.95729,0,0,1,.03613,3.91211H68.04785Zm.99316,3.34961c.78955,0,1.24414-.44824,1.24414-1.41113,0-.957-.45459-1.376-1.24414-1.376h-.29883v2.78711Z" fill="#e6e6e6"/>
      <path d="M72.88135,89.90332c.79541,0,1.21436.57422,1.21436,1.39355a1.47049,1.47049,0,0,1-.03027.32324H72.19922a.84292.84292,0,0,0,.86719.83105,1.2256,1.2256,0,0,0,.68213-.21484l.2334.43066a1.85264,1.85264,0,0,1-1.00488.31641,1.54788,1.54788,0,0,1-.0957-3.08008Zm.61572,1.28027c0-.4668-.19727-.748-.59766-.748-.34717,0-.64648.25684-.70605.748Z" fill="#e6e6e6"/>
      <path d="M76.28467,91.03418c-.00586-.31152-.13721-.57422-.53223-.57422a1.62867,1.62867,0,0,0-.82568.28711l-.251-.46094a2.27926,2.27926,0,0,1,1.20215-.38281c.73584,0,1.09473.44824,1.09473,1.26758v1.74121h-.5625l-.05371-.32324h-.01758a1.42923,1.42923,0,0,1-.90918.39453.82572.82572,0,0,1-.87354-.86133C74.55615,91.49414,75.08252,91.165,76.28467,91.03418Zm-.64014,1.41113a.92.92,0,0,0,.64014-.32324v-.65723c-.79541.10156-1.05859.31055-1.05859.60352C75.22607,92.332,75.39941,92.44531,75.64453,92.44531Z" fill="#e6e6e6"/>
      <path d="M79.09033,89.90332a1.21265,1.21265,0,0,1,.86133.34082l-.3291.43652a.73107.73107,0,0,0-.49658-.21484c-.47266,0-.80127.38867-.80127.98047,0,.58594.32275.97559.78369.97559a.96987.96987,0,0,0,.604-.252l.28711.43652a1.46813,1.46813,0,0,1-.96338.377,1.39691,1.39691,0,0,1-1.41748-1.53711A1.44877,1.44877,0,0,1,79.09033,89.90332Z" fill="#e6e6e6"/>
      <path d="M80.74707,93.56348a.61536.61536,0,0,0,.58594-.502l.05371-.18555-1.1543-2.90137h.69971l.5083,1.44238c.084.25684.168.5498.25732.8252h.02393c.07178-.26953.14941-.5625.22168-.8252l.44238-1.44238h.66406l-1.06494,3.06934c-.24512.66309-.55029,1.07617-1.18994,1.07617a1.13471,1.13471,0,0,1-.38281-.05957l.12549-.53809A.73153.73153,0,0,0,80.74707,93.56348Z" fill="#e6e6e6"/>
      <path d="M84.79,92.34961h.84961v-2.5h-.69971v-.43066a2.57023,2.57023,0,0,0,.87939-.31152h.51416v3.24219h.74756v.5625H84.79Z" fill="#e6e6e6"/>
    </g>
    <g>
      <path d="M109.13184,89h1.04053a1.95728,1.95728,0,0,1,.03564,3.91211h-1.07617Zm.99268,3.34961c.78955,0,1.24414-.44824,1.24414-1.41113,0-.957-.45459-1.376-1.24414-1.376h-.29932v2.78711Z" fill="#e6e6e6"/>
      <path d="M113.96484,89.90332c.79541,0,1.21387.57422,1.21387,1.39355a1.47542,1.47542,0,0,1-.02979.32324h-1.86621a.843.843,0,0,0,.86768.83105,1.22525,1.22525,0,0,0,.68164-.21484l.2334.43066a1.85264,1.85264,0,0,1-1.00488.31641,1.54788,1.54788,0,0,1-.0957-3.08008Zm.61621,1.28027c0-.4668-.19775-.748-.59863-.748-.34668,0-.64551.25684-.70557.748Z" fill="#e6e6e6"/>
      <path d="M117.11719,89.90332a1.21088,1.21088,0,0,1,.86133.34082l-.3291.43652a.73015.73015,0,0,0-.49658-.21484c-.47217,0-.80127.38867-.80127.98047,0,.58594.32275.97559.7832.97559a.9712.9712,0,0,0,.60449-.252l.28711.43652a1.46691,1.46691,0,0,1-.96289.377,1.397,1.397,0,0,1-1.418-1.53711A1.44877,1.44877,0,0,1,117.11719,89.90332Z" fill="#e6e6e6"/>
      <path d="M120.14355,91.03418c-.00586-.31152-.1377-.57422-.53223-.57422a1.62546,1.62546,0,0,0-.8252.28711l-.25146-.46094a2.27784,2.27784,0,0,1,1.20215-.38281c.73584,0,1.09473.44824,1.09473,1.26758v1.74121h-.562l-.0542-.32324h-.01807a1.426,1.426,0,0,1-.90918.39453.82559.82559,0,0,1-.873-.86133C118.415,91.49414,118.94141,91.165,120.14355,91.03418Zm-.63965,1.41113a.919.919,0,0,0,.63965-.32324v-.65723c-.79541.10156-1.05859.31055-1.05859.60352C119.085,92.332,119.2583,92.44531,119.50391,92.44531Z" fill="#e6e6e6"/>
      <path d="M121.81836,93.56348a.61505.61505,0,0,0,.58643-.502l.05371-.18555-1.1543-2.90137h.69971l.50879,1.44238c.0835.25684.167.5498.25684.8252h.02393c.07178-.26953.1499-.5625.22119-.8252l.44287-1.44238h.66406l-1.06494,3.06934c-.24512.66309-.55029,1.07617-1.19043,1.07617a1.13893,1.13893,0,0,1-.38281-.05957l.126-.53809A.73485.73485,0,0,0,121.81836,93.56348Z" fill="#e6e6e6"/>
      <path d="M125.64648,92.51074c1.05908-1.02246,1.72266-1.69238,1.72266-2.27246a.59035.59035,0,0,0-.62793-.6582,1.05135,1.05135,0,0,0-.7417.4248l-.38281-.38281a1.55644,1.55644,0,0,1,1.21436-.58594,1.11149,1.11149,0,0,1,1.20215,1.166c0,.67578-.62793,1.37012-1.38184,2.165.19775-.01758.44873-.041.63428-.041h.93311v.58594h-2.57227Z" fill="#e6e6e6"/>
    </g>
    <g>
      <path d="M150.76074,89h.69434v3.32617h1.62061v.58594h-2.31494Z" fill="#e6e6e6"/>
      <path d="M154.7749,89.90332c.79541,0,1.21436.57422,1.21436,1.39355a1.47049,1.47049,0,0,1-.03027.32324h-1.86621a.84292.84292,0,0,0,.86719.83105,1.2256,1.2256,0,0,0,.68213-.21484l.2334.43066a1.85264,1.85264,0,0,1-1.00488.31641,1.54788,1.54788,0,0,1-.0957-3.08008Zm.61572,1.28027c0-.4668-.19727-.748-.59766-.748-.34717,0-.64648.25684-.70605.748Z" fill="#e6e6e6"/>
      <path d="M156.28223,89.97461h.69971l.4668,1.52539c.07764.28711.16748.58691.24512.88574h.02393c.084-.29883.16748-.59863.251-.88574l.4668-1.52539h.66406l-.999,2.9375h-.79541Z" fill="#e6e6e6"/>
      <path d="M160.73242,89.90332c.79541,0,1.21387.57422,1.21387,1.39355a1.47542,1.47542,0,0,1-.02979.32324h-1.86621a.843.843,0,0,0,.86768.83105,1.22525,1.22525,0,0,0,.68164-.21484l.2334.43066a1.85264,1.85264,0,0,1-1.00488.31641,1.54788,1.54788,0,0,1-.0957-3.08008Zm.61621,1.28027c0-.4668-.19775-.748-.59863-.748-.34668,0-.64551.25684-.70557.748Z" fill="#e6e6e6"/>
      <path d="M162.60449,88.68945h.688v3.50488c0,.167.07764.22754.14941.22754a.39081.39081,0,0,0,.10791-.0127l.08984.51465a.93775.93775,0,0,1-.36523.05957c-.49023,0-.66992-.31641-.66992-.8252Z" fill="#e6e6e6"/>
      <path d="M164.98535,89h.73535l.55078,1.96777c.12549.44238.209.8252.34082,1.27441h.02393c.13135-.44922.22119-.832.34668-1.27441L167.52734,89h.70605l-1.2085,3.91211h-.82568Z" fill="#e6e6e6"/>
      <path d="M169.69873,89.90332c.79541,0,1.21436.57422,1.21436,1.39355a1.47049,1.47049,0,0,1-.03027.32324H169.0166a.84292.84292,0,0,0,.86719.83105,1.2256,1.2256,0,0,0,.68213-.21484l.2334.43066a1.85264,1.85264,0,0,1-1.00488.31641,1.54788,1.54788,0,0,1-.0957-3.08008Zm.61572,1.28027c0-.4668-.19727-.748-.59766-.748-.34717,0-.64648.25684-.70605.748Z" fill="#e6e6e6"/>
      <path d="M171.5708,88.68945h.688v3.50488c0,.167.07764.22754.14941.22754a.39081.39081,0,0,0,.10791-.0127l.08936.51465a.93325.93325,0,0,1-.36475.05957c-.49023,0-.66992-.31641-.66992-.8252Z" fill="#e6e6e6"/>
    </g>
    <g>
      <path d="M194.23242,89h.69434v3.32617h1.62061v.58594h-2.31494Z" fill="#e6e6e6"/>
      <path d="M198.24658,89.90332c.79541,0,1.21436.57422,1.21436,1.39355a1.47049,1.47049,0,0,1-.03027.32324h-1.86621a.84292.84292,0,0,0,.86719.83105,1.2256,1.2256,0,0,0,.68213-.21484l.2334.43066a1.85264,1.85264,0,0,1-1.00488.31641,1.54788,1.54788,0,0,1-.0957-3.08008Zm.61572,1.28027c0-.4668-.19727-.748-.59766-.748-.34717,0-.64648.25684-.70605.748Z" fill="#e6e6e6"/>
      <path d="M199.75391,89.97461h.69971l.4668,1.52539c.07764.28711.16748.58691.24512.88574h.02393c.084-.29883.16748-.59863.251-.88574l.4668-1.52539h.66406l-.999,2.9375h-.79541Z" fill="#e6e6e6"/>
      <path d="M204.2041,89.90332c.79541,0,1.21387.57422,1.21387,1.39355a1.47542,1.47542,0,0,1-.02979.32324H203.522a.843.843,0,0,0,.86768.83105,1.22525,1.22525,0,0,0,.68164-.21484l.2334.43066a1.85264,1.85264,0,0,1-1.00488.31641,1.54788,1.54788,0,0,1-.0957-3.08008Zm.61621,1.28027c0-.4668-.19775-.748-.59863-.748-.34668,0-.64551.25684-.70557.748Z" fill="#e6e6e6"/>
      <path d="M206.07617,88.68945h.688v3.50488c0,.167.07764.22754.14941.22754a.39081.39081,0,0,0,.10791-.0127l.08984.51465a.93775.93775,0,0,1-.36523.05957c-.49023,0-.66992-.31641-.66992-.8252Z" fill="#e6e6e6"/>
      <path d="M208.97754,89h.69336v1.77637h.01807L211.083,89h.76563L210.646,90.52539l1.40576,2.38672h-.76562l-1.05273-1.84277-.5625.7002v1.14258h-.69336Z" fill="#e6e6e6"/>
      <path d="M213.19434,89.58594h-1.13086V89h2.94922v.58594h-1.125v3.32617h-.69336Z" fill="#e6e6e6"/>
    </g>
    <g>
      <path d="M241.7876,88.92871a1.5893,1.5893,0,0,1,1.1665.49609l-.38281.43066a1.02254,1.02254,0,0,0-.77783-.32324c-.69385,0-1.16064.53809-1.16064,1.418,0,.89063.41895,1.42969,1.20264,1.42969a.86056.86056,0,0,0,.55615-.17383V91.3623h-.73584v-.56738h1.35791v1.72266a1.8941,1.8941,0,0,1-1.26221.46582,1.80681,1.80681,0,0,1-1.83008-2.01562A1.85556,1.85556,0,0,1,241.7876,88.92871Z" fill="#e6e6e6"/>
      <path d="M245.41211,91.03418c-.00586-.31152-.1377-.57422-.53223-.57422a1.62546,1.62546,0,0,0-.8252.28711l-.25146-.46094a2.27784,2.27784,0,0,1,1.20215-.38281c.73584,0,1.09473.44824,1.09473,1.26758v1.74121h-.562l-.0542-.32324h-.01807a1.426,1.426,0,0,1-.90918.39453.82559.82559,0,0,1-.873-.86133C243.68359,91.49414,244.21,91.165,245.41211,91.03418Zm-.63965,1.41113a.919.919,0,0,0,.63965-.32324v-.65723c-.79541.10156-1.05859.31055-1.05859.60352C244.35352,92.332,244.52686,92.44531,244.77246,92.44531Z" fill="#e6e6e6"/>
      <path d="M246.85986,89.07227a.42622.42622,0,1,1,.4248.38867A.3953.3953,0,0,1,246.85986,89.07227Zm.07764.90234h.688v2.9375h-.688Z" fill="#e6e6e6"/>
      <path d="M248.50488,89.97461h.56836l.04785.39551h.02393a1.36158,1.36158,0,0,1,.96289-.4668c.62842,0,.90332.4248.90332,1.166v1.84277h-.688V91.15918c0-.48437-.1377-.66406-.46045-.66406a.93076.93076,0,0,0-.66992.36523v2.05176h-.688Z" fill="#e6e6e6"/>
    </g>
    <g>
      <path d="M28.61865,196.41211H27.30859l-.30469,1.05859H26.292l1.28027-3.91113h.81348l1.27393,3.91113h-.73584Zm-.15527-.54395-.1377-.47852c-.11963-.41309-.23926-.86133-.353-1.292h-.02393c-.10742.43652-.22119.87891-.34668,1.292l-.1377.47852Z" fill="#e6e6e6"/>
      <path d="M30.07813,195.07813h-.41846v-.51367l.45459-.03027.084-.80176h.57422v.80176H31.52v.54395h-.74756v1.40039c0,.34668.13135.51367.4126.51367a.83915.83915,0,0,0,.30518-.06543l.11914.50879a1.87648,1.87648,0,0,1-.59766.10742c-.68213,0-.93359-.43066-.93359-1.06445Z" fill="#e6e6e6"/>
      <path d="M32.2373,195.07813h-.41846v-.51367l.45459-.03027.084-.80176h.57422v.80176h.74756v.54395h-.74756v1.40039c0,.34668.13135.51367.4126.51367a.83915.83915,0,0,0,.30518-.06543l.11914.50879a1.87648,1.87648,0,0,1-.59766.10742c-.68213,0-.93359-.43066-.93359-1.06445Z" fill="#e6e6e6"/>
      <path d="M35.80859,195.59277c-.00586-.31055-.1377-.57422-.53223-.57422a1.63458,1.63458,0,0,0-.8252.28711l-.25146-.46094a2.27784,2.27784,0,0,1,1.20215-.38281c.73584,0,1.09473.44922,1.09473,1.26855v1.74023h-.562l-.0542-.32227H35.8623a1.431,1.431,0,0,1-.90918.39453.82559.82559,0,0,1-.873-.86133C34.08008,196.05371,34.60645,195.72461,35.80859,195.59277Zm-.63965,1.41211a.92292.92292,0,0,0,.63965-.32324v-.6582c-.79541.10156-1.05859.31152-1.05859.60449C34.75,196.89063,34.92334,197.00488,35.16895,197.00488Z" fill="#e6e6e6"/>
      <path d="M38.61426,194.46191a1.21139,1.21139,0,0,1,.86133.3418l-.3291.43652a.73136.73136,0,0,0-.49658-.21582c-.47217,0-.80127.38867-.80127.98145,0,.58594.32275.97461.7832.97461a.97029.97029,0,0,0,.60449-.251l.28711.43652a1.47193,1.47193,0,0,1-.96289.377,1.39752,1.39752,0,0,1-1.418-1.53711A1.449,1.449,0,0,1,38.61426,194.46191Z" fill="#e6e6e6"/>
      <path d="M40.09717,193.248h.67627v2.6377H40.791l1.08887-1.35156h.75342l-1.00488,1.19629,1.10693,1.74023h-.748l-.75342-1.27344-.46045.52637v.74707h-.67627Z" fill="#e6e6e6"/>
    </g>
    <g>
      <path d="M68.04785,193.55957h1.041a1.95678,1.95678,0,0,1,.03613,3.91113H68.04785Zm.99316,3.34961c.78955,0,1.24414-.44922,1.24414-1.41211,0-.957-.45459-1.376-1.24414-1.376h-.29883v2.78809Z" fill="#e6e6e6"/>
      <path d="M72.88135,194.46191c.79541,0,1.21436.57422,1.21436,1.39453a1.46057,1.46057,0,0,1-.03027.32227H72.19922a.84375.84375,0,0,0,.86719.832,1.22666,1.22666,0,0,0,.68213-.21582l.2334.43066a1.85343,1.85343,0,0,1-1.00488.31738,1.54841,1.54841,0,0,1-.0957-3.08105Zm.61572,1.28027c0-.4668-.19727-.74707-.59766-.74707-.34717,0-.64648.25684-.70605.74707Z" fill="#e6e6e6"/>
      <path d="M76.28467,195.59277c-.00586-.31055-.13721-.57422-.53223-.57422a1.63782,1.63782,0,0,0-.82568.28711l-.251-.46094a2.27926,2.27926,0,0,1,1.20215-.38281c.73584,0,1.09473.44922,1.09473,1.26855v1.74023h-.5625l-.05371-.32227h-.01758a1.43434,1.43434,0,0,1-.90918.39453.82572.82572,0,0,1-.87354-.86133C74.55615,196.05371,75.08252,195.72461,76.28467,195.59277Zm-.64014,1.41211a.92391.92391,0,0,0,.64014-.32324v-.6582c-.79541.10156-1.05859.31152-1.05859.60449C75.22607,196.89063,75.39941,197.00488,75.64453,197.00488Z" fill="#e6e6e6"/>
      <path d="M79.09033,194.46191a1.21317,1.21317,0,0,1,.86133.3418l-.3291.43652a.73229.73229,0,0,0-.49658-.21582c-.47266,0-.80127.38867-.80127.98145,0,.58594.32275.97461.78369.97461a.969.969,0,0,0,.604-.251l.28711.43652a1.47315,1.47315,0,0,1-.96338.377,1.39742,1.39742,0,0,1-1.41748-1.53711A1.449,1.449,0,0,1,79.09033,194.46191Z" fill="#e6e6e6"/>
      <path d="M80.74707,198.123a.6153.6153,0,0,0,.58594-.50293l.05371-.18457-1.1543-2.90137h.69971l.5083,1.44141c.084.25684.168.55078.25732.8252h.02393c.07178-.26855.14941-.56152.22168-.8252l.44238-1.44141h.66406l-1.06494,3.06836c-.24512.66406-.55029,1.07715-1.18994,1.07715a1.13262,1.13262,0,0,1-.38281-.06055l.12549-.53809A.73055.73055,0,0,0,80.74707,198.123Z" fill="#e6e6e6"/>
      <path d="M84.79,196.90918h.84961v-2.501h-.69971v-.43066a2.55039,2.55039,0,0,0,.87939-.31055h.51416v3.24219h.74756v.56152H84.79Z" fill="#e6e6e6"/>
    </g>
    <g>
      <path d="M108.14746,193.55957h1.25049c.80127,0,1.39355.24512,1.39355.96289a.84855.84855,0,0,1-.66992.84863v.02441c.562.0957.87939.40039.87939.92676,0,.78418-.64014,1.14844-1.50146,1.14844h-1.35205Zm1.18457,1.62012c.55029,0,.77734-.209.77734-.57422,0-.3584-.251-.50781-.75928-.50781h-.5083v1.082Zm.0957,1.75293c.57422,0,.89111-.21484.89111-.6582,0-.40625-.311-.59766-.89111-.59766h-.58594v1.25586Z" fill="#e6e6e6"/>
      <path d="M111.70117,193.55957h1.31543c.85547,0,1.4834.29883,1.4834,1.208,0,.86719-.64551,1.26758-1.4834,1.26758h-.62207v1.43555h-.69336Zm1.25586,1.91992c.58594,0,.86133-.2334.86133-.71191,0-.49023-.293-.65234-.86133-.65234h-.5625v1.36426Z" fill="#e6e6e6"/>
      <path d="M116.44434,193.55957h.69336v3.3252h1.62109v.58594h-2.31445Z" fill="#e6e6e6"/>
      <path d="M120.458,194.46191c.79541,0,1.21387.57422,1.21387,1.39453a1.46548,1.46548,0,0,1-.02979.32227h-1.86621a.84387.84387,0,0,0,.86768.832,1.22632,1.22632,0,0,0,.68164-.21582l.2334.43066a1.85343,1.85343,0,0,1-1.00488.31738,1.54841,1.54841,0,0,1-.0957-3.08105Zm.61621,1.28027c0-.4668-.19775-.74707-.59863-.74707-.34668,0-.64551.25684-.70557.74707Z" fill="#e6e6e6"/>
      <path d="M121.96533,194.53418h.69971l.4668,1.52539c.07764.28711.16748.58594.24512.88477h.02393c.0835-.29883.16748-.59766.25146-.88477l.46631-1.52539h.66406l-.999,2.93652h-.79541Z" fill="#e6e6e6"/>
      <path d="M126.41553,194.46191c.79541,0,1.21436.57422,1.21436,1.39453a1.46057,1.46057,0,0,1-.03027.32227H125.7334a.84375.84375,0,0,0,.86719.832,1.22666,1.22666,0,0,0,.68213-.21582l.2334.43066a1.85343,1.85343,0,0,1-1.00488.31738,1.54841,1.54841,0,0,1-.0957-3.08105Zm.61572,1.28027c0-.4668-.19727-.74707-.59766-.74707-.34717,0-.64648.25684-.70605.74707Z" fill="#e6e6e6"/>
      <path d="M128.2876,193.248h.688v3.50488c0,.168.07764.22754.14941.22754a.422.422,0,0,0,.10791-.01172l.08936.51465a.9518.9518,0,0,1-.36475.05957c-.49023,0-.66992-.31738-.66992-.8252Z" fill="#e6e6e6"/>
    </g>
    <g>
      <path d="M150.54492,193.55957h1.041a1.95678,1.95678,0,0,1,.03613,3.91113h-1.07715Zm.99316,3.34961c.78955,0,1.24414-.44922,1.24414-1.41211,0-.957-.45459-1.376-1.24414-1.376h-.29883v2.78809Z" fill="#e6e6e6"/>
      <path d="M155.37842,194.46191c.79541,0,1.21436.57422,1.21436,1.39453a1.46057,1.46057,0,0,1-.03027.32227h-1.86621a.84375.84375,0,0,0,.86719.832,1.22666,1.22666,0,0,0,.68213-.21582l.2334.43066a1.85343,1.85343,0,0,1-1.00488.31738,1.54841,1.54841,0,0,1-.0957-3.08105Zm.61572,1.28027c0-.4668-.19727-.74707-.59766-.74707-.34717,0-.64648.25684-.70605.74707Z" fill="#e6e6e6"/>
      <path d="M158.78174,195.59277c-.00586-.31055-.13721-.57422-.53223-.57422a1.63782,1.63782,0,0,0-.82568.28711l-.251-.46094a2.27926,2.27926,0,0,1,1.20215-.38281c.73584,0,1.09473.44922,1.09473,1.26855v1.74023h-.5625l-.05371-.32227h-.01758a1.43434,1.43434,0,0,1-.90918.39453.82572.82572,0,0,1-.87354-.86133C157.05322,196.05371,157.57959,195.72461,158.78174,195.59277Zm-.64014,1.41211a.92391.92391,0,0,0,.64014-.32324v-.6582c-.79541.10156-1.05859.31152-1.05859.60449C157.72314,196.89063,157.89648,197.00488,158.1416,197.00488Z" fill="#e6e6e6"/>
      <path d="M161.5874,194.46191a1.21317,1.21317,0,0,1,.86133.3418l-.3291.43652a.73229.73229,0,0,0-.49658-.21582c-.47266,0-.80127.38867-.80127.98145,0,.58594.32275.97461.78369.97461a.969.969,0,0,0,.604-.251l.28711.43652a1.47315,1.47315,0,0,1-.96338.377,1.39742,1.39742,0,0,1-1.41748-1.53711A1.449,1.449,0,0,1,161.5874,194.46191Z" fill="#e6e6e6"/>
      <path d="M164.61377,195.59277c-.00586-.31055-.13721-.57422-.53223-.57422a1.63782,1.63782,0,0,0-.82568.28711l-.251-.46094a2.27926,2.27926,0,0,1,1.20215-.38281c.73584,0,1.09473.44922,1.09473,1.26855v1.74023h-.5625l-.05371-.32227H164.668a1.43434,1.43434,0,0,1-.90918.39453.82572.82572,0,0,1-.87354-.86133C162.88525,196.05371,163.41162,195.72461,164.61377,195.59277Zm-.64014,1.41211a.92391.92391,0,0,0,.64014-.32324v-.6582c-.79541.10156-1.05859.31152-1.05859.60449C163.55518,196.89063,163.72852,197.00488,163.97363,197.00488Z" fill="#e6e6e6"/>
      <path d="M166.28906,198.123a.6153.6153,0,0,0,.58594-.50293l.05371-.18457-1.1543-2.90137h.69971l.5083,1.44141c.084.25684.168.55078.25732.8252h.02393c.07178-.26855.14941-.56152.22168-.8252l.44238-1.44141h.66406l-1.06494,3.06836c-.24512.66406-.55029,1.07715-1.18994,1.07715a1.13262,1.13262,0,0,1-.38281-.06055l.12549-.53809A.73055.73055,0,0,0,166.28906,198.123Z" fill="#e6e6e6"/>
      <path d="M170.11719,197.07031c1.05859-1.02246,1.72266-1.69238,1.72266-2.27344a.59.59,0,0,0-.62842-.65723,1.05135,1.05135,0,0,0-.7417.4248l-.38281-.38281a1.55738,1.55738,0,0,1,1.21436-.58691,1.112,1.112,0,0,1,1.20215,1.167c0,.67578-.62793,1.36914-1.38135,2.165.19727-.01758.44824-.042.63379-.042h.93311v.58594h-2.57178Z" fill="#e6e6e6"/>
    </g>
    <g>
      <path d="M193.582,196.49609a1.56063,1.56063,0,0,0,1.02295.44238c.43652,0,.68164-.19727.68164-.502,0-.32324-.251-.4248-.60986-.57422l-.53223-.2334a1.12065,1.12065,0,0,1-.79-1.041,1.188,1.188,0,0,1,1.31006-1.10059,1.73255,1.73255,0,0,1,1.2085.49609l-.35889.44336a1.26154,1.26154,0,0,0-.84961-.335c-.37061,0-.60986.17285-.60986.46,0,.30566.29883.41895.62207.55078l.52637.2207a1.08958,1.08958,0,0,1,.78955,1.05957,1.24346,1.24346,0,0,1-1.40576,1.16016,2.01557,2.01557,0,0,1-1.40576-.57422Z" fill="#e6e6e6"/>
      <path d="M196.60889,194.53418h.688v1.75293c0,.48438.1377.66309.45459.66309.25732,0,.43066-.11914.65186-.40625v-2.00977h.688v2.93652h-.5625l-.05371-.43066H198.457a1.19463,1.19463,0,0,1-.94482.50293c-.62842,0-.90332-.4248-.90332-1.167Z" fill="#e6e6e6"/>
      <path d="M199.99414,196.69336a1.31008,1.31008,0,0,0,.81348.3291c.31738,0,.4668-.14941.4668-.35254,0-.24609-.31689-.35352-.62793-.47266-.38867-.14355-.82568-.36523-.82568-.85547,0-.51465.4126-.87988,1.0708-.87988a1.58549,1.58549,0,0,1,.9751.35352l-.31689.41895a1.09061,1.09061,0,0,0-.64648-.252c-.293,0-.43066.1377-.43066.32324,0,.22754.29346.32324.61035.43652.40088.14941.84326.34082.84326.8916,0,.502-.40088.90918-1.14209.90918a1.8601,1.8601,0,0,1-1.11279-.40723Z" fill="#e6e6e6"/>
      <path d="M202.64453,195.07813h-.41895v-.51367l.45459-.03027.0835-.80176h.57422v.80176h.748v.54395h-.748v1.40039c0,.34668.13184.51367.41309.51367a.83435.83435,0,0,0,.30469-.06543l.12012.50879a1.88291,1.88291,0,0,1-.59863.10742c-.68164,0-.93262-.43066-.93262-1.06445Z" fill="#e6e6e6"/>
      <path d="M206.21484,195.59277c-.00586-.31055-.1377-.57422-.53223-.57422a1.63458,1.63458,0,0,0-.8252.28711l-.25146-.46094a2.27784,2.27784,0,0,1,1.20215-.38281c.73584,0,1.09473.44922,1.09473,1.26855v1.74023h-.562l-.0542-.32227h-.01807a1.431,1.431,0,0,1-.90918.39453.82559.82559,0,0,1-.873-.86133C204.48633,196.05371,205.0127,195.72461,206.21484,195.59277Zm-.63965,1.41211a.92292.92292,0,0,0,.63965-.32324v-.6582c-.79541.10156-1.05859.31152-1.05859.60449C205.15625,196.89063,205.32959,197.00488,205.5752,197.00488Z" fill="#e6e6e6"/>
      <path d="M207.6626,193.63086a.42622.42622,0,1,1,.4248.38867A.39456.39456,0,0,1,207.6626,193.63086Zm.07764.90332h.688v2.93652h-.688Z" fill="#e6e6e6"/>
      <path d="M209.30762,194.53418h.56836l.04785.39453h.02393a1.36535,1.36535,0,0,1,.96289-.4668c.62842,0,.90332.4248.90332,1.167v1.8418h-.688v-1.752c0-.48437-.1377-.66406-.46045-.66406a.92924.92924,0,0,0-.66992.36426v2.05176h-.688Z" fill="#e6e6e6"/>
    </g>
    <g>
      <path d="M238.21973,197.4707l-.84375-1.53125h-.5918v1.53125h-.69434v-3.91113h1.31641c.81348,0,1.44141.28711,1.44141,1.16016a1.09258,1.09258,0,0,1-.78369,1.11816l.93311,1.63281Zm-1.43555-2.08105h.5498c.53857,0,.82568-.22754.82568-.66992,0-.44922-.28711-.60449-.82568-.60449h-.5498Z" fill="#e6e6e6"/>
      <path d="M240.70215,194.46191c.79541,0,1.21387.57422,1.21387,1.39453a1.46548,1.46548,0,0,1-.02979.32227H240.02a.84387.84387,0,0,0,.86768.832,1.22632,1.22632,0,0,0,.68164-.21582l.2334.43066a1.85343,1.85343,0,0,1-1.00488.31738,1.54841,1.54841,0,0,1-.0957-3.08105Zm.61621,1.28027c0-.4668-.19775-.74707-.59863-.74707-.34668,0-.64551.25684-.70557.74707Z" fill="#e6e6e6"/>
      <path d="M242.57422,193.248h.688v3.50488c0,.168.07764.22754.14941.22754a.422.422,0,0,0,.10791-.01172l.08984.51465a.95643.95643,0,0,1-.36523.05957c-.49023,0-.66992-.31738-.66992-.8252Z" fill="#e6e6e6"/>
      <path d="M245.35547,194.46191c.79541,0,1.21387.57422,1.21387,1.39453a1.46548,1.46548,0,0,1-.02979.32227h-1.86621a.84387.84387,0,0,0,.86768.832,1.22632,1.22632,0,0,0,.68164-.21582l.2334.43066a1.85343,1.85343,0,0,1-1.00488.31738,1.54841,1.54841,0,0,1-.0957-3.08105Zm.61621,1.28027c0-.4668-.19775-.74707-.59863-.74707-.34668,0-.64551.25684-.70557.74707Z" fill="#e6e6e6"/>
      <path d="M248.75879,195.59277c-.00586-.31055-.1377-.57422-.53223-.57422a1.63458,1.63458,0,0,0-.8252.28711l-.25146-.46094a2.27784,2.27784,0,0,1,1.20215-.38281c.73584,0,1.09473.44922,1.09473,1.26855v1.74023h-.562l-.0542-.32227h-.01807a1.431,1.431,0,0,1-.90918.39453.82559.82559,0,0,1-.873-.86133C247.03027,196.05371,247.55664,195.72461,248.75879,195.59277Zm-.63965,1.41211a.92292.92292,0,0,0,.63965-.32324v-.6582c-.79541.10156-1.05859.31152-1.05859.60449C247.7002,196.89063,247.87354,197.00488,248.11914,197.00488Z" fill="#e6e6e6"/>
      <path d="M250.31445,196.69336a1.30683,1.30683,0,0,0,.81348.3291c.31689,0,.46631-.14941.46631-.35254,0-.24609-.31689-.35352-.62793-.47266-.38916-.14355-.82568-.36523-.82568-.85547,0-.51465.41309-.87988,1.0708-.87988a1.58549,1.58549,0,0,1,.9751.35352l-.31738.41895a1.08791,1.08791,0,0,0-.64551-.252c-.29346,0-.43066.1377-.43066.32324,0,.22754.293.32324.60986.43652.40088.14941.84326.34082.84326.8916,0,.502-.40039.90918-1.14258.90918a1.85984,1.85984,0,0,1-1.1123-.40723Z" fill="#e6e6e6"/>
      <path d="M254.02295,194.46191c.79541,0,1.21436.57422,1.21436,1.39453a1.46057,1.46057,0,0,1-.03027.32227h-1.86621a.84375.84375,0,0,0,.86719.832,1.22666,1.22666,0,0,0,.68213-.21582l.2334.43066a1.85343,1.85343,0,0,1-1.00488.31738,1.54841,1.54841,0,0,1-.0957-3.08105Zm.61572,1.28027c0-.4668-.19727-.74707-.59766-.74707-.34717,0-.64648.25684-.70605.74707Z" fill="#e6e6e6"/>
    </g>
    <g>
      <path d="M27.24023,154.52832l-.84375-1.53125h-.5918v1.53125h-.69434v-3.91113h1.31641c.81348,0,1.44141.28711,1.44141,1.16016a1.09258,1.09258,0,0,1-.78369,1.11816l.93311,1.63281Zm-1.43555-2.08105h.5498c.53857,0,.82568-.22754.82568-.66992,0-.44922-.28711-.60449-.82568-.60449h-.5498Z" fill="#e6e6e6"/>
      <path d="M29.72266,151.51953c.79541,0,1.21387.57422,1.21387,1.39453a1.46548,1.46548,0,0,1-.02979.32227H29.04053a.84387.84387,0,0,0,.86768.832,1.22632,1.22632,0,0,0,.68164-.21582l.2334.43066a1.85343,1.85343,0,0,1-1.00488.31738,1.54841,1.54841,0,0,1-.0957-3.08105Zm.61621,1.28027c0-.4668-.19775-.74707-.59863-.74707-.34668,0-.64551.25684-.70557.74707Z" fill="#e6e6e6"/>
      <path d="M31.59473,150.30566h.688v3.50488c0,.168.07764.22754.14941.22754a.422.422,0,0,0,.10791-.01172l.08984.51465a.95643.95643,0,0,1-.36523.05957c-.49023,0-.66992-.31738-.66992-.8252Z" fill="#e6e6e6"/>
      <path d="M34.376,151.51953c.79541,0,1.21387.57422,1.21387,1.39453a1.46548,1.46548,0,0,1-.02979.32227H33.69385a.84387.84387,0,0,0,.86768.832,1.22632,1.22632,0,0,0,.68164-.21582l.2334.43066a1.85343,1.85343,0,0,1-1.00488.31738,1.54841,1.54841,0,0,1-.0957-3.08105Zm.61621,1.28027c0-.4668-.19775-.74707-.59863-.74707-.34668,0-.64551.25684-.70557.74707Z" fill="#e6e6e6"/>
      <path d="M37.7793,152.65039c-.00586-.31055-.1377-.57422-.53223-.57422a1.63458,1.63458,0,0,0-.8252.28711l-.25146-.46094a2.27784,2.27784,0,0,1,1.20215-.38281c.73584,0,1.09473.44922,1.09473,1.26855v1.74023h-.562l-.0542-.32227H37.833a1.431,1.431,0,0,1-.90918.39453.82559.82559,0,0,1-.873-.86133C36.05078,153.11133,36.57715,152.78223,37.7793,152.65039Zm-.63965,1.41211a.92292.92292,0,0,0,.63965-.32324v-.6582c-.79541.10156-1.05859.31152-1.05859.60449C36.7207,153.94824,36.894,154.0625,37.13965,154.0625Z" fill="#e6e6e6"/>
      <path d="M39.335,153.751a1.30683,1.30683,0,0,0,.81348.3291c.31689,0,.46631-.14941.46631-.35254,0-.24609-.31689-.35352-.62793-.47266-.38916-.14355-.82568-.36523-.82568-.85547,0-.51465.41309-.87988,1.0708-.87988a1.58549,1.58549,0,0,1,.9751.35352l-.31738.41895a1.08791,1.08791,0,0,0-.64551-.252c-.29346,0-.43066.1377-.43066.32324,0,.22754.293.32324.60986.43652.40088.14941.84326.34082.84326.8916,0,.502-.40039.90918-1.14258.90918a1.85984,1.85984,0,0,1-1.1123-.40723Z" fill="#e6e6e6"/>
      <path d="M43.04346,151.51953c.79541,0,1.21436.57422,1.21436,1.39453a1.46057,1.46057,0,0,1-.03027.32227H42.36133a.84375.84375,0,0,0,.86719.832,1.22666,1.22666,0,0,0,.68213-.21582l.2334.43066a1.85343,1.85343,0,0,1-1.00488.31738,1.54841,1.54841,0,0,1-.0957-3.08105Zm.61572,1.28027c0-.4668-.19727-.74707-.59766-.74707-.34717,0-.64648.25684-.70605.74707Z" fill="#e6e6e6"/>
    </g>
    <g>
      <path d="M66.73535,150.61719h.69336v3.3252H69.0498v.58594H66.73535Z" fill="#e6e6e6"/>
      <path d="M70.749,151.51953c.79541,0,1.21387.57422,1.21387,1.39453a1.46548,1.46548,0,0,1-.02979.32227H70.06689a.84387.84387,0,0,0,.86768.832,1.22632,1.22632,0,0,0,.68164-.21582l.2334.43066a1.85343,1.85343,0,0,1-1.00488.31738,1.54841,1.54841,0,0,1-.0957-3.08105Zm.61621,1.28027c0-.4668-.19775-.74707-.59863-.74707-.34668,0-.64551.25684-.70557.74707Z" fill="#e6e6e6"/>
      <path d="M72.25635,151.5918h.69971l.4668,1.52539c.07764.28711.16748.58594.24512.88477h.02393c.0835-.29883.16748-.59766.25146-.88477l.46631-1.52539h.66406l-.999,2.93652H73.2793Z" fill="#e6e6e6"/>
      <path d="M76.70654,151.51953c.79541,0,1.21436.57422,1.21436,1.39453a1.46057,1.46057,0,0,1-.03027.32227H76.02441a.84375.84375,0,0,0,.86719.832,1.22666,1.22666,0,0,0,.68213-.21582l.2334.43066a1.85343,1.85343,0,0,1-1.00488.31738,1.54841,1.54841,0,0,1-.0957-3.08105Zm.61572,1.28027c0-.4668-.19727-.74707-.59766-.74707-.34717,0-.64648.25684-.70605.74707Z" fill="#e6e6e6"/>
      <path d="M78.57861,150.30566h.688v3.50488c0,.168.07764.22754.14941.22754a.422.422,0,0,0,.10791-.01172l.08936.51465a.9518.9518,0,0,1-.36475.05957c-.49023,0-.66992-.31738-.66992-.8252Z" fill="#e6e6e6"/>
      <path d="M80.95947,150.61719h.73584l.5498,1.96777c.126.44238.20947.8252.34131,1.27344h.02393c.13135-.44824.22119-.83105.34668-1.27344l.54443-1.96777H84.207l-1.208,3.91113h-.8252Z" fill="#e6e6e6"/>
      <path d="M85.67285,151.51953c.79541,0,1.21387.57422,1.21387,1.39453a1.46548,1.46548,0,0,1-.02979.32227H84.99072a.84387.84387,0,0,0,.86768.832,1.22632,1.22632,0,0,0,.68164-.21582l.2334.43066a1.85343,1.85343,0,0,1-1.00488.31738,1.54841,1.54841,0,0,1-.0957-3.08105Zm.61621,1.28027c0-.4668-.19775-.74707-.59863-.74707-.34668,0-.64551.25684-.70557.74707Z" fill="#e6e6e6"/>
      <path d="M87.54492,150.30566h.688v3.50488c0,.168.07764.22754.14941.22754a.422.422,0,0,0,.10791-.01172l.08984.51465a.95643.95643,0,0,1-.36523.05957c-.49023,0-.66992-.31738-.66992-.8252Z" fill="#e6e6e6"/>
    </g>
    <g>
      <path d="M108.34473,150.61719h.69434v3.3252h1.62061v.58594h-2.31494Z" fill="#e6e6e6"/>
      <path d="M112.35889,151.51953c.79541,0,1.21436.57422,1.21436,1.39453a1.46057,1.46057,0,0,1-.03027.32227h-1.86621a.84375.84375,0,0,0,.86719.832,1.22666,1.22666,0,0,0,.68213-.21582l.2334.43066a1.85343,1.85343,0,0,1-1.00488.31738,1.54841,1.54841,0,0,1-.0957-3.08105Zm.61572,1.28027c0-.4668-.19727-.74707-.59766-.74707-.34717,0-.64648.25684-.70605.74707Z" fill="#e6e6e6"/>
      <path d="M113.86621,151.5918h.69971l.4668,1.52539c.07764.28711.16748.58594.24512.88477h.02393c.084-.29883.16748-.59766.251-.88477l.4668-1.52539h.66406l-.999,2.93652h-.79541Z" fill="#e6e6e6"/>
      <path d="M118.31641,151.51953c.79541,0,1.21387.57422,1.21387,1.39453a1.46548,1.46548,0,0,1-.02979.32227h-1.86621a.84387.84387,0,0,0,.86768.832,1.22632,1.22632,0,0,0,.68164-.21582l.2334.43066a1.85343,1.85343,0,0,1-1.00488.31738,1.54841,1.54841,0,0,1-.0957-3.08105Zm.61621,1.28027c0-.4668-.19775-.74707-.59863-.74707-.34668,0-.64551.25684-.70557.74707Z" fill="#e6e6e6"/>
      <path d="M120.18848,150.30566h.688v3.50488c0,.168.07764.22754.14941.22754a.422.422,0,0,0,.10791-.01172l.08984.51465a.95643.95643,0,0,1-.36523.05957c-.49023,0-.66992-.31738-.66992-.8252Z" fill="#e6e6e6"/>
      <path d="M123.08984,150.61719h.69336v1.77637h.01807l1.394-1.77637h.76563l-1.20264,1.52441,1.40576,2.38672h-.76562l-1.05273-1.8418-.5625.69922v1.14258h-.69336Z" fill="#e6e6e6"/>
      <path d="M127.30664,151.20313h-1.13086v-.58594H129.125v.58594H128v3.3252h-.69336Z" fill="#e6e6e6"/>
    </g>
    <g>
      <path d="M150.76074,150.61719h.69434v3.3252h1.62061v.58594h-2.31494Z" fill="#e6e6e6"/>
      <path d="M154.7749,151.51953c.79541,0,1.21436.57422,1.21436,1.39453a1.46057,1.46057,0,0,1-.03027.32227h-1.86621a.84375.84375,0,0,0,.86719.832,1.22666,1.22666,0,0,0,.68213-.21582l.2334.43066a1.85343,1.85343,0,0,1-1.00488.31738,1.54841,1.54841,0,0,1-.0957-3.08105Zm.61572,1.28027c0-.4668-.19727-.74707-.59766-.74707-.34717,0-.64648.25684-.70605.74707Z" fill="#e6e6e6"/>
      <path d="M156.28223,151.5918h.69971l.4668,1.52539c.07764.28711.16748.58594.24512.88477h.02393c.084-.29883.16748-.59766.251-.88477l.4668-1.52539h.66406l-.999,2.93652h-.79541Z" fill="#e6e6e6"/>
      <path d="M160.73242,151.51953c.79541,0,1.21387.57422,1.21387,1.39453a1.46548,1.46548,0,0,1-.02979.32227h-1.86621a.84387.84387,0,0,0,.86768.832,1.22632,1.22632,0,0,0,.68164-.21582l.2334.43066a1.85343,1.85343,0,0,1-1.00488.31738,1.54841,1.54841,0,0,1-.0957-3.08105Zm.61621,1.28027c0-.4668-.19775-.74707-.59863-.74707-.34668,0-.64551.25684-.70557.74707Z" fill="#e6e6e6"/>
      <path d="M162.60449,150.30566h.688v3.50488c0,.168.07764.22754.14941.22754a.422.422,0,0,0,.10791-.01172l.08984.51465a.95643.95643,0,0,1-.36523.05957c-.49023,0-.66992-.31738-.66992-.8252Z" fill="#e6e6e6"/>
      <path d="M164.98535,150.61719h.73535l.55078,1.96777c.12549.44238.209.8252.34082,1.27344h.02393c.13135-.44824.22119-.83105.34668-1.27344l.54443-1.96777h.70605l-1.2085,3.91113h-.82568Z" fill="#e6e6e6"/>
      <path d="M169.69873,151.51953c.79541,0,1.21436.57422,1.21436,1.39453a1.46057,1.46057,0,0,1-.03027.32227H169.0166a.84375.84375,0,0,0,.86719.832,1.22666,1.22666,0,0,0,.68213-.21582l.2334.43066a1.85343,1.85343,0,0,1-1.00488.31738,1.54841,1.54841,0,0,1-.0957-3.08105Zm.61572,1.28027c0-.4668-.19727-.74707-.59766-.74707-.34717,0-.64648.25684-.70605.74707Z" fill="#e6e6e6"/>
      <path d="M171.5708,150.30566h.688v3.50488c0,.168.07764.22754.14941.22754a.422.422,0,0,0,.10791-.01172l.08936.51465a.9518.9518,0,0,1-.36475.05957c-.49023,0-.66992-.31738-.66992-.8252Z" fill="#e6e6e6"/>
    </g>
    <g>
      <path d="M194.23242,150.61719h.69434v3.3252h1.62061v.58594h-2.31494Z" fill="#e6e6e6"/>
      <path d="M198.24658,151.51953c.79541,0,1.21436.57422,1.21436,1.39453a1.46057,1.46057,0,0,1-.03027.32227h-1.86621a.84375.84375,0,0,0,.86719.832,1.22666,1.22666,0,0,0,.68213-.21582l.2334.43066a1.85343,1.85343,0,0,1-1.00488.31738,1.54841,1.54841,0,0,1-.0957-3.08105Zm.61572,1.28027c0-.4668-.19727-.74707-.59766-.74707-.34717,0-.64648.25684-.70605.74707Z" fill="#e6e6e6"/>
      <path d="M199.75391,151.5918h.69971l.4668,1.52539c.07764.28711.16748.58594.24512.88477h.02393c.084-.29883.16748-.59766.251-.88477l.4668-1.52539h.66406l-.999,2.93652h-.79541Z" fill="#e6e6e6"/>
      <path d="M204.2041,151.51953c.79541,0,1.21387.57422,1.21387,1.39453a1.46548,1.46548,0,0,1-.02979.32227H203.522a.84387.84387,0,0,0,.86768.832,1.22632,1.22632,0,0,0,.68164-.21582l.2334.43066a1.85343,1.85343,0,0,1-1.00488.31738,1.54841,1.54841,0,0,1-.0957-3.08105Zm.61621,1.28027c0-.4668-.19775-.74707-.59863-.74707-.34668,0-.64551.25684-.70557.74707Z" fill="#e6e6e6"/>
      <path d="M206.07617,150.30566h.688v3.50488c0,.168.07764.22754.14941.22754a.422.422,0,0,0,.10791-.01172l.08984.51465a.95643.95643,0,0,1-.36523.05957c-.49023,0-.66992-.31738-.66992-.8252Z" fill="#e6e6e6"/>
      <path d="M208.97754,150.61719h.69336v1.77637h.01807l1.394-1.77637h.76563L210.646,152.1416l1.40576,2.38672h-.76562l-1.05273-1.8418-.5625.69922v1.14258h-.69336Z" fill="#e6e6e6"/>
      <path d="M213.19434,151.20313h-1.13086v-.58594h2.94922v.58594h-1.125v3.3252h-.69336Z" fill="#e6e6e6"/>
    </g>
    <g>
      <path d="M241.7876,150.54492a1.5893,1.5893,0,0,1,1.1665.49609l-.38281.43066a1.022,1.022,0,0,0-.77783-.32227c-.69385,0-1.16064.53809-1.16064,1.417,0,.8916.41895,1.42969,1.20264,1.42969a.86019.86019,0,0,0,.55615-.17285v-.84375h-.73584v-.56836h1.35791v1.72266a1.89448,1.89448,0,0,1-1.26221.4668,1.80681,1.80681,0,0,1-1.83008-2.01562A1.85639,1.85639,0,0,1,241.7876,150.54492Z" fill="#e6e6e6"/>
      <path d="M245.41211,152.65039c-.00586-.31055-.1377-.57422-.53223-.57422a1.63458,1.63458,0,0,0-.8252.28711l-.25146-.46094a2.27784,2.27784,0,0,1,1.20215-.38281c.73584,0,1.09473.44922,1.09473,1.26855v1.74023h-.562l-.0542-.32227h-.01807a1.431,1.431,0,0,1-.90918.39453.82559.82559,0,0,1-.873-.86133C243.68359,153.11133,244.21,152.78223,245.41211,152.65039Zm-.63965,1.41211a.92292.92292,0,0,0,.63965-.32324v-.6582c-.79541.10156-1.05859.31152-1.05859.60449C244.35352,153.94824,244.52686,154.0625,244.77246,154.0625Z" fill="#e6e6e6"/>
      <path d="M246.85986,150.68848a.42622.42622,0,1,1,.4248.38867A.39456.39456,0,0,1,246.85986,150.68848Zm.07764.90332h.688v2.93652h-.688Z" fill="#e6e6e6"/>
      <path d="M248.50488,151.5918h.56836l.04785.39453h.02393a1.36535,1.36535,0,0,1,.96289-.4668c.62842,0,.90332.4248.90332,1.167v1.8418h-.688v-1.752c0-.48437-.1377-.66406-.46045-.66406a.92924.92924,0,0,0-.66992.36426v2.05176h-.688Z" fill="#e6e6e6"/>
    </g>
  </g>
  <g id="Modul_Header" data-name="Modul Header">
    <path d="M264.19817,24.27262H6.53494V15.937a1,1,0,0,1,1-1H263.19817a1,1,0,0,1,1,1Z" fill="#282828"/>
    <path d="M7.53494,57.88087H132.49943a1,1,0,0,1,1,1v8.33562a0,0,0,0,1,0,0H6.53494a0,0,0,0,1,0,0V58.88087a1,1,0,0,1,1-1Z" fill="#282828"/>
    <path d="M264.19817,67.21649H137.23368V58.88087a1,1,0,0,1,1-1H263.19817a1,1,0,0,1,1,1Z" fill="#282828"/>
    <path d="M7.53494,162.43986H263.19817a1,1,0,0,1,1,1v8.33562a0,0,0,0,1,0,0H6.53494a0,0,0,0,1,0,0v-8.33562A1,1,0,0,1,7.53494,162.43986Z" fill="#282828"/>
    <path d="M7.53494,119.496H132.49943a1,1,0,0,1,1,1v8.33562a0,0,0,0,1,0,0H6.53494a0,0,0,0,1,0,0V120.496A1,1,0,0,1,7.53494,119.496Z" fill="#282828"/>
    <path d="M138.23368,119.496H263.19817a1,1,0,0,1,1,1v8.33562a0,0,0,0,1,0,0H137.23368a0,0,0,0,1,0,0V120.496A1,1,0,0,1,138.23368,119.496Z" fill="#282828"/>
  </g>
  <g id="Knppe">
    <rect x="23.33906" y="30.80756" width="22.4055" height="9.33562" rx="0.5" ry="0.5" stroke="#252525" stroke-miterlimit="10" stroke-width="0.25" fill="url(#linear-gradient)"/>
    <rect x="66.28293" y="30.80756" width="22.4055" height="9.33562" rx="0.5" ry="0.5" stroke="#252525" stroke-miterlimit="10" stroke-width="0.25" fill="url(#linear-gradient-2)"/>
    <rect x="107.35968" y="30.80756" width="22.4055" height="9.33562" rx="0.5" ry="0.5" stroke="#252525" stroke-miterlimit="10" stroke-width="0.25" fill="url(#linear-gradient-3)"/>
    <rect x="150.30355" y="30.80756" width="22.4055" height="9.33562" rx="0.5" ry="0.5" stroke="#252525" stroke-miterlimit="10" stroke-width="0.25" fill="url(#linear-gradient-4)"/>
    <rect x="191.38667" y="30.80756" width="22.4055" height="9.33562" rx="0.5" ry="0.5" stroke="#252525" stroke-miterlimit="10" stroke-width="0.25" fill="url(#linear-gradient-5)"/>
    <rect x="234.32417" y="30.80756" width="22.4055" height="9.33562" rx="0.5" ry="0.5" stroke="#252525" stroke-miterlimit="10" stroke-width="0.25" fill="url(#linear-gradient-6)"/>
    <rect x="23.33906" y="73.75143" width="22.4055" height="9.33562" rx="0.5" ry="0.5" stroke="#252525" stroke-miterlimit="10" stroke-width="0.25" fill="url(#linear-gradient-7)"/>
    <rect x="66.28293" y="73.75143" width="22.4055" height="9.33562" rx="0.5" ry="0.5" stroke="#252525" stroke-miterlimit="10" stroke-width="0.25" fill="url(#linear-gradient-8)"/>
    <rect x="107.35968" y="73.75143" width="22.4055" height="9.33562" rx="0.5" ry="0.5" stroke="#252525" stroke-miterlimit="10" stroke-width="0.25" fill="url(#linear-gradient-9)"/>
    <rect x="150.30355" y="73.75143" width="22.4055" height="9.33562" rx="0.5" ry="0.5" stroke="#252525" stroke-miterlimit="10" stroke-width="0.25" fill="url(#linear-gradient-10)"/>
    <rect x="191.3803" y="73.75143" width="22.4055" height="9.33562" rx="0.5" ry="0.5" stroke="#252525" stroke-miterlimit="10" stroke-width="0.25" fill="url(#linear-gradient-11)"/>
    <rect x="234.32417" y="73.75143" width="22.4055" height="9.33562" rx="0.5" ry="0.5" stroke="#252525" stroke-miterlimit="10" stroke-width="0.25" fill="url(#linear-gradient-12)"/>
    <rect x="23.33906" y="178.31042" width="22.4055" height="9.33562" rx="0.5" ry="0.5" stroke="#252525" stroke-miterlimit="10" stroke-width="0.25" fill="url(#linear-gradient-13)"/>
    <rect x="66.28293" y="178.31042" width="22.4055" height="9.33562" rx="0.5" ry="0.5" stroke="#252525" stroke-miterlimit="10" stroke-width="0.25" fill="url(#linear-gradient-14)"/>
    <rect x="107.35968" y="178.31042" width="22.4055" height="9.33562" rx="0.5" ry="0.5" stroke="#252525" stroke-miterlimit="10" stroke-width="0.25" fill="url(#linear-gradient-15)"/>
    <rect x="150.30355" y="178.31042" width="22.4055" height="9.33562" rx="0.5" ry="0.5" stroke="#252525" stroke-miterlimit="10" stroke-width="0.25" fill="url(#linear-gradient-16)"/>
    <rect x="191.38667" y="178.31042" width="22.4055" height="9.33562" rx="0.5" ry="0.5" stroke="#252525" stroke-miterlimit="10" stroke-width="0.25" fill="url(#linear-gradient-17)"/>
    <rect x="234.32417" y="178.31042" width="22.4055" height="9.33562" rx="0.5" ry="0.5" stroke="#252525" stroke-miterlimit="10" stroke-width="0.25" fill="url(#linear-gradient-18)"/>
    <rect x="23.33906" y="135.36655" width="22.4055" height="9.33562" rx="0.5" ry="0.5" stroke="#252525" stroke-miterlimit="10" stroke-width="0.25" fill="url(#linear-gradient-19)"/>
    <rect x="66.28293" y="135.36655" width="22.4055" height="9.33562" rx="0.5" ry="0.5" stroke="#252525" stroke-miterlimit="10" stroke-width="0.25" fill="url(#linear-gradient-20)"/>
    <rect x="107.35968" y="135.36655" width="22.4055" height="9.33562" rx="0.5" ry="0.5" stroke="#252525" stroke-miterlimit="10" stroke-width="0.25" fill="url(#linear-gradient-21)"/>
    <rect x="150.30355" y="135.36655" width="22.4055" height="9.33562" rx="0.5" ry="0.5" stroke="#252525" stroke-miterlimit="10" stroke-width="0.25" fill="url(#linear-gradient-22)"/>
    <rect x="191.3803" y="135.36655" width="22.4055" height="9.33562" rx="0.5" ry="0.5" stroke="#252525" stroke-miterlimit="10" stroke-width="0.25" fill="url(#linear-gradient-23)"/>
    <rect x="234.32417" y="135.36655" width="22.4055" height="9.33562" rx="0.5" ry="0.5" stroke="#252525" stroke-miterlimit="10" stroke-width="0.25" fill="url(#linear-gradient-24)"/>
  </g>
  <g id="Modul_Head_Typo" data-name="Modul Head Typo">
    <g>
      <path d="M120.07129,18.05078h2.35059v.58594h-1.65723v.999h1.40576v.58594h-1.40576V21.376h1.7168v.58594h-2.41016Z" fill="#cfb199"/>
      <path d="M123.26563,18.05078h.71143l1.21436,2.20117.40674.83105h.02393c-.03613-.40039-.08984-.89746-.08984-1.334V18.05078h.6582v3.91113h-.71191l-1.21436-2.20117-.40674-.83105h-.02393c.03613.41309.08984.88477.08984,1.32227v1.71h-.65771Z" fill="#cfb199"/>
      <path d="M126.65088,18.05078h.73584l.5498,1.96777c.126.44238.20947.8252.34131,1.27344h.02393c.13135-.44824.22119-.83105.34668-1.27344l.54443-1.96777h.70557l-1.208,3.91113h-.8252Z" fill="#cfb199"/>
      <path d="M130.35938,18.05078H132.71v.58594h-1.65723v.999h1.40576v.58594h-1.40576V21.376h1.7168v.58594h-2.41016Z" fill="#cfb199"/>
      <path d="M133.55371,18.05078h.69336V21.376h1.62109v.58594h-2.31445Z" fill="#cfb199"/>
      <path d="M136.14355,19.98828c0-1.26172.70557-2.00977,1.72852-2.00977,1.0166,0,1.72266.748,1.72266,2.00977,0,1.26855-.70605,2.0459-1.72266,2.0459C136.84912,22.03418,136.14355,21.25684,136.14355,19.98828Zm2.73926,0c0-.873-.40039-1.40527-1.01074-1.40527-.61621,0-1.0166.53223-1.0166,1.40527,0,.87891.40039,1.44141,1.0166,1.44141C138.48242,21.42969,138.88281,20.86719,138.88281,19.98828Z" fill="#cfb199"/>
      <path d="M140.36621,18.05078h1.31641c.855,0,1.4834.29883,1.4834,1.208,0,.86719-.64648,1.26758-1.4834,1.26758h-.62207v1.43555h-.69434Zm1.25635,1.91992c.58643,0,.86133-.2334.86133-.71191,0-.49023-.293-.65234-.86133-.65234h-.562V19.9707Z" fill="#cfb199"/>
      <path d="M143.88379,18.05078h2.35059v.58594h-1.65723v.999h1.40576v.58594h-1.40576V21.376h1.7168v.58594h-2.41016Z" fill="#cfb199"/>
      <path d="M150.11621,20.90332h-1.30957l-.30518,1.05859h-.71191l1.27979-3.91113h.81348l1.27441,3.91113h-.73584Zm-.15527-.54395-.1377-.47852c-.11963-.41309-.23926-.86133-.353-1.292h-.02393c-.10742.43652-.22119.87891-.34668,1.292l-.1377.47852Z" fill="#cfb199"/>
    </g>
    <g>
      <path d="M54.668,60.99414h2.35059v.58594H55.36133v.999h1.40576V63.165H55.36133v1.15527h1.7168v.58594H54.668Z" fill="#ced2d9"/>
      <path d="M57.8623,60.99414h.71143l1.21436,2.20117.40674.83105h.02393c-.03613-.40039-.08984-.89648-.08984-1.333V60.99414h.6582v3.91211H60.0752l-1.21436-2.20117-.40674-.832h-.02393c.03613.41309.08984.88574.08984,1.32227v1.71094H57.8623Z" fill="#ced2d9"/>
      <path d="M61.24756,60.99414h.73584l.5498,1.96777c.126.44238.20947.8252.34131,1.27441h.02393c.13135-.44922.22119-.832.34668-1.27441l.54443-1.96777h.70557l-1.208,3.91211h-.8252Z" fill="#ced2d9"/>
      <path d="M64.95605,60.99414h2.35059v.58594H65.64941v.999h1.40576V63.165H65.64941v1.15527h1.7168v.58594H64.95605Z" fill="#ced2d9"/>
      <path d="M68.15039,60.99414h.69336v3.32617h1.62109v.58594H68.15039Z" fill="#ced2d9"/>
      <path d="M70.74023,62.93262c0-1.2627.70557-2.00977,1.72852-2.00977,1.0166,0,1.72266.74707,1.72266,2.00977,0,1.26758-.70605,2.04492-1.72266,2.04492C71.4458,64.97754,70.74023,64.2002,70.74023,62.93262Zm2.73926,0c0-.874-.40039-1.40625-1.01074-1.40625-.61621,0-1.0166.53223-1.0166,1.40625,0,.87891.40039,1.44141,1.0166,1.44141C73.0791,64.374,73.47949,63.81152,73.47949,62.93262Z" fill="#ced2d9"/>
      <path d="M74.96289,60.99414H76.2793c.855,0,1.4834.29883,1.4834,1.208,0,.86719-.64648,1.26855-1.4834,1.26855h-.62207v1.43555h-.69434Zm1.25635,1.91992c.58643,0,.86133-.2334.86133-.71191,0-.49023-.293-.65137-.86133-.65137h-.562v1.36328Z" fill="#ced2d9"/>
      <path d="M78.48047,60.99414h2.35059v.58594H79.17383v.999h1.40576V63.165H79.17383v1.15527h1.7168v.58594H78.48047Z" fill="#ced2d9"/>
      <path d="M84.49756,60.92285a1.53049,1.53049,0,0,1,1.11279.49609l-.38281.43066a.99731.99731,0,0,0-.72363-.32324c-.64014,0-1.10059.53809-1.10059,1.418,0,.89063.42432,1.42969,1.07617,1.42969a1.05949,1.05949,0,0,0,.82568-.38867l.38281.42383a1.56045,1.56045,0,0,1-1.22021.56836,1.79358,1.79358,0,0,1-1.77637-2.01562A1.83823,1.83823,0,0,1,84.49756,60.92285Z" fill="#ced2d9"/>
    </g>
    <g>
      <path d="M185.41992,60.99414h2.35059v.58594h-1.65723v.999H187.519V63.165h-1.40576v1.15527h1.7168v.58594h-2.41016Z" fill="#cfb199"/>
      <path d="M188.61426,60.99414h.71143L190.54,63.19531l.40674.83105h.02393c-.03613-.40039-.08984-.89648-.08984-1.333V60.99414h.6582v3.91211h-.71191l-1.21436-2.20117-.40674-.832h-.02393c.03613.41309.08984.88574.08984,1.32227v1.71094h-.65771Z" fill="#cfb199"/>
      <path d="M191.99951,60.99414h.73584l.5498,1.96777c.126.44238.20947.8252.34131,1.27441h.02393c.13135-.44922.22119-.832.34668-1.27441l.54443-1.96777h.70557l-1.208,3.91211h-.8252Z" fill="#cfb199"/>
      <path d="M195.708,60.99414h2.35059v.58594h-1.65723v.999h1.40576V63.165h-1.40576v1.15527h1.7168v.58594H195.708Z" fill="#cfb199"/>
      <path d="M198.90234,60.99414h.69336v3.32617h1.62109v.58594h-2.31445Z" fill="#cfb199"/>
      <path d="M201.49219,62.93262c0-1.2627.70557-2.00977,1.72852-2.00977,1.0166,0,1.72266.74707,1.72266,2.00977,0,1.26758-.70605,2.04492-1.72266,2.04492C202.19775,64.97754,201.49219,64.2002,201.49219,62.93262Zm2.73926,0c0-.874-.40039-1.40625-1.01074-1.40625-.61621,0-1.0166.53223-1.0166,1.40625,0,.87891.40039,1.44141,1.0166,1.44141C203.83105,64.374,204.23145,63.81152,204.23145,62.93262Z" fill="#cfb199"/>
      <path d="M205.71484,60.99414h1.31641c.855,0,1.4834.29883,1.4834,1.208,0,.86719-.64648,1.26855-1.4834,1.26855h-.62207v1.43555h-.69434Zm1.25635,1.91992c.58643,0,.86133-.2334.86133-.71191,0-.49023-.293-.65137-.86133-.65137h-.562v1.36328Z" fill="#cfb199"/>
      <path d="M209.23242,60.99414H211.583v.58594h-1.65723v.999h1.40576V63.165h-1.40576v1.15527h1.7168v.58594h-2.41016Z" fill="#cfb199"/>
      <path d="M215.46484,63.84766h-1.30957l-.30518,1.05859h-.71191l1.27979-3.91211h.81348l1.27441,3.91211H215.77Zm-.15527-.54492-.1377-.47852c-.11963-.41211-.23926-.86133-.353-1.292h-.02393c-.10742.43652-.22119.87988-.34668,1.292l-.1377.47852Z" fill="#cfb199"/>
    </g>
    <g>
      <path d="M119.9541,165.55371h2.35107v.58594h-1.65674v.999h1.40527v.58594h-1.40527v1.1543h1.71631v.58594H119.9541Z" fill="#e3d8ac"/>
      <path d="M123.14844,165.55371h.71191l1.21436,2.20117.40674.83105h.02393c-.03564-.40039-.08984-.89746-.08984-1.334v-1.69824h.6582v3.91113h-.71191l-1.21436-2.20117-.40674-.83105h-.02393c.03613.41309.08984.88477.08984,1.32227v1.71h-.6582Z" fill="#e3d8ac"/>
      <path d="M126.53418,165.55371h.73535l.55078,1.96777c.12549.44238.209.8252.34082,1.27344h.02393c.13135-.44824.22119-.83105.34668-1.27344l.54443-1.96777h.70605l-1.2085,3.91113H127.748Z" fill="#e3d8ac"/>
      <path d="M130.24219,165.55371h2.35107v.58594h-1.65674v.999h1.40527v.58594h-1.40527v1.1543h1.71631v.58594h-2.41064Z" fill="#e3d8ac"/>
      <path d="M133.43652,165.55371h.69434v3.3252h1.62061v.58594h-2.31494Z" fill="#e3d8ac"/>
      <path d="M136.02686,167.49121c0-1.26172.70557-2.00977,1.72852-2.00977,1.01709,0,1.72266.748,1.72266,2.00977,0,1.26855-.70557,2.0459-1.72266,2.0459C136.73242,169.53711,136.02686,168.75977,136.02686,167.49121Zm2.73926,0c0-.873-.40088-1.40527-1.01074-1.40527-.61621,0-1.01709.53223-1.01709,1.40527,0,.87891.40088,1.44141,1.01709,1.44141C138.36523,168.93262,138.76611,168.37012,138.76611,167.49121Z" fill="#e3d8ac"/>
      <path d="M140.25,165.55371h1.31543c.85547,0,1.4834.29883,1.4834,1.208,0,.86719-.64551,1.26758-1.4834,1.26758h-.62207v1.43555H140.25Zm1.25586,1.91992c.58594,0,.86133-.2334.86133-.71191,0-.49023-.293-.65234-.86133-.65234h-.5625v1.36426Z" fill="#e3d8ac"/>
      <path d="M143.7666,165.55371h2.35107v.58594h-1.65674v.999h1.40527v.58594h-1.40527v1.1543h1.71631v.58594H143.7666Z" fill="#e3d8ac"/>
      <path d="M148.1875,165.55371h1.25c.80127,0,1.39355.24512,1.39355.96289a.84855.84855,0,0,1-.66992.84863v.02441c.5625.0957.87939.40039.87939.92676,0,.78418-.64014,1.14844-1.50146,1.14844H148.1875Zm1.18408,1.62012c.55029,0,.77783-.209.77783-.57422,0-.3584-.25146-.50781-.75977-.50781h-.50879v1.082Zm.0957,1.75293c.57422,0,.89111-.21484.89111-.6582,0-.40625-.311-.59766-.89111-.59766h-.58643v1.25586Z" fill="#e3d8ac"/>
    </g>
    <g>
      <path d="M54.668,122.60938h2.35059v.58594H55.36133v.999h1.40576v.58594H55.36133v1.1543h1.7168v.58594H54.668Z" fill="#ced2d9"/>
      <path d="M57.8623,122.60938h.71143l1.21436,2.20117.40674.83105h.02393c-.03613-.40039-.08984-.89746-.08984-1.334v-1.69824h.6582v3.91113H60.0752l-1.21436-2.20117-.40674-.83105h-.02393c.03613.41309.08984.88477.08984,1.32227v1.71H57.8623Z" fill="#ced2d9"/>
      <path d="M61.24756,122.60938h.73584l.5498,1.96777c.126.44238.20947.8252.34131,1.27344h.02393c.13135-.44824.22119-.83105.34668-1.27344l.54443-1.96777h.70557l-1.208,3.91113h-.8252Z" fill="#ced2d9"/>
      <path d="M64.95605,122.60938h2.35059v.58594H65.64941v.999h1.40576v.58594H65.64941v1.1543h1.7168v.58594H64.95605Z" fill="#ced2d9"/>
      <path d="M68.15039,122.60938h.69336v3.3252h1.62109v.58594H68.15039Z" fill="#ced2d9"/>
      <path d="M70.74023,124.54688c0-1.26172.70557-2.00977,1.72852-2.00977,1.0166,0,1.72266.748,1.72266,2.00977,0,1.26855-.70605,2.0459-1.72266,2.0459C71.4458,126.59277,70.74023,125.81543,70.74023,124.54688Zm2.73926,0c0-.873-.40039-1.40527-1.01074-1.40527-.61621,0-1.0166.53223-1.0166,1.40527,0,.87891.40039,1.44141,1.0166,1.44141C73.0791,125.98828,73.47949,125.42578,73.47949,124.54688Z" fill="#ced2d9"/>
      <path d="M74.96289,122.60938H76.2793c.855,0,1.4834.29883,1.4834,1.208,0,.86719-.64648,1.26758-1.4834,1.26758h-.62207v1.43555h-.69434Zm1.25635,1.91992c.58643,0,.86133-.2334.86133-.71191,0-.49023-.293-.65234-.86133-.65234h-.562v1.36426Z" fill="#ced2d9"/>
      <path d="M78.48047,122.60938h2.35059v.58594H79.17383v.999h1.40576v.58594H79.17383v1.1543h1.7168v.58594H78.48047Z" fill="#ced2d9"/>
      <path d="M84.49756,122.53711a1.53419,1.53419,0,0,1,1.11279.49609l-.38281.43066a.99638.99638,0,0,0-.72363-.32227c-.64014,0-1.10059.53809-1.10059,1.417,0,.8916.42432,1.42969,1.07617,1.42969a1.05949,1.05949,0,0,0,.82568-.38867l.38281.4248a1.56045,1.56045,0,0,1-1.22021.56836,1.79358,1.79358,0,0,1-1.77637-2.01562A1.83909,1.83909,0,0,1,84.49756,122.53711Z" fill="#ced2d9"/>
    </g>
    <g>
      <path d="M185.30273,122.60938h2.35107v.58594h-1.65674v.999h1.40527v.58594h-1.40527v1.1543h1.71631v.58594h-2.41064Z" fill="#e3d8ac"/>
      <path d="M188.49707,122.60938h.71191l1.21436,2.20117.40674.83105h.02393c-.03564-.40039-.08984-.89746-.08984-1.334v-1.69824h.6582v3.91113h-.71191l-1.21436-2.20117-.40674-.83105h-.02393c.03613.41309.08984.88477.08984,1.32227v1.71h-.6582Z" fill="#e3d8ac"/>
      <path d="M191.88281,122.60938h.73535l.55078,1.96777c.12549.44238.209.8252.34082,1.27344h.02393c.13135-.44824.22119-.83105.34668-1.27344l.54443-1.96777h.70605l-1.2085,3.91113h-.82568Z" fill="#e3d8ac"/>
      <path d="M195.59082,122.60938h2.35107v.58594h-1.65674v.999h1.40527v.58594h-1.40527v1.1543h1.71631v.58594h-2.41064Z" fill="#e3d8ac"/>
      <path d="M198.78516,122.60938h.69434v3.3252h1.62061v.58594h-2.31494Z" fill="#e3d8ac"/>
      <path d="M201.37549,124.54688c0-1.26172.70557-2.00977,1.72852-2.00977,1.01709,0,1.72266.748,1.72266,2.00977,0,1.26855-.70557,2.0459-1.72266,2.0459C202.08105,126.59277,201.37549,125.81543,201.37549,124.54688Zm2.73926,0c0-.873-.40088-1.40527-1.01074-1.40527-.61621,0-1.01709.53223-1.01709,1.40527,0,.87891.40088,1.44141,1.01709,1.44141C203.71387,125.98828,204.11475,125.42578,204.11475,124.54688Z" fill="#e3d8ac"/>
      <path d="M205.59863,122.60938h1.31543c.85547,0,1.4834.29883,1.4834,1.208,0,.86719-.64551,1.26758-1.4834,1.26758H206.292v1.43555h-.69336Zm1.25586,1.91992c.58594,0,.86133-.2334.86133-.71191,0-.49023-.293-.65234-.86133-.65234h-.5625v1.36426Z" fill="#e3d8ac"/>
      <path d="M209.11523,122.60938h2.35107v.58594h-1.65674v.999h1.40527v.58594h-1.40527v1.1543h1.71631v.58594h-2.41064Z" fill="#e3d8ac"/>
      <path d="M213.53613,122.60938h1.25c.80127,0,1.39355.24512,1.39355.96289a.84855.84855,0,0,1-.66992.84863v.02441c.5625.0957.87939.40039.87939.92676,0,.78418-.64014,1.14844-1.50146,1.14844h-1.35156Zm1.18408,1.62012c.55029,0,.77783-.209.77783-.57422,0-.3584-.25146-.50781-.75977-.50781h-.50879v1.082Zm.0957,1.75293c.57422,0,.89111-.21484.89111-.6582,0-.40625-.311-.59766-.89111-.59766h-.58643v1.25586Z" fill="#e3d8ac"/>
    </g>
  </g>
</svg>
