<svg xmlns="http://www.w3.org/2000/svg" xmlns:xlink="http://www.w3.org/1999/xlink" viewBox="0 0 270 214">
  <defs>
    <linearGradient id="linear-gradient" x1="34.86588" y1="30.80756" x2="34.86588" y2="40.14318" gradientUnits="userSpaceOnUse">
      <stop offset="0" stop-color="#e6e6e6"/>
      <stop offset="0.1144" stop-color="#e0e0e0"/>
      <stop offset="0.27295" stop-color="#cecece"/>
      <stop offset="0.45731" stop-color="#b0b0b0"/>
      <stop offset="0.66114" stop-color="#878787"/>
      <stop offset="0.87829" stop-color="#535353"/>
      <stop offset="1" stop-color="#333"/>
    </linearGradient>
    <linearGradient id="linear-gradient-2" x1="77.80975" y1="30.80756" x2="77.80975" y2="40.14318" xlink:href="#linear-gradient"/>
    <linearGradient id="linear-gradient-3" x1="118.88649" y1="30.80756" x2="118.88649" y2="40.14318" xlink:href="#linear-gradient"/>
    <linearGradient id="linear-gradient-4" x1="161.83037" y1="30.80756" x2="161.83037" y2="40.14318" xlink:href="#linear-gradient"/>
    <linearGradient id="linear-gradient-5" x1="202.91348" y1="30.80756" x2="202.91348" y2="40.14318" xlink:href="#linear-gradient"/>
    <linearGradient id="linear-gradient-6" x1="245.85098" y1="30.80756" x2="245.85098" y2="40.14318" xlink:href="#linear-gradient"/>
    <linearGradient id="linear-gradient-7" x1="34.86588" y1="73.75143" x2="34.86588" y2="83.08706" xlink:href="#linear-gradient"/>
    <linearGradient id="linear-gradient-8" x1="77.80975" y1="73.75143" x2="77.80975" y2="83.08706" xlink:href="#linear-gradient"/>
    <linearGradient id="linear-gradient-9" x1="118.88649" y1="73.75143" x2="118.88649" y2="83.08706" xlink:href="#linear-gradient"/>
    <linearGradient id="linear-gradient-10" x1="161.83037" y1="73.75143" x2="161.83037" y2="83.08706" xlink:href="#linear-gradient"/>
    <linearGradient id="linear-gradient-11" x1="202.91348" y1="73.75143" x2="202.91348" y2="83.08706" xlink:href="#linear-gradient"/>
    <linearGradient id="linear-gradient-12" x1="245.85098" y1="73.75143" x2="245.85098" y2="83.08706" xlink:href="#linear-gradient"/>
    <linearGradient id="linear-gradient-13" x1="34.86588" y1="178.31042" x2="34.86588" y2="187.64605" xlink:href="#linear-gradient"/>
    <linearGradient id="linear-gradient-14" x1="77.80975" y1="178.31042" x2="77.80975" y2="187.64605" xlink:href="#linear-gradient"/>
    <linearGradient id="linear-gradient-15" x1="118.88649" y1="178.31042" x2="118.88649" y2="187.64605" xlink:href="#linear-gradient"/>
    <linearGradient id="linear-gradient-16" x1="161.83037" y1="178.31042" x2="161.83037" y2="187.64605" xlink:href="#linear-gradient"/>
    <linearGradient id="linear-gradient-17" x1="202.91348" y1="178.31042" x2="202.91348" y2="187.64605" xlink:href="#linear-gradient"/>
    <linearGradient id="linear-gradient-18" x1="245.85098" y1="178.31042" x2="245.85098" y2="187.64605" xlink:href="#linear-gradient"/>
    <linearGradient id="linear-gradient-19" x1="34.86588" y1="135.36655" x2="34.86588" y2="144.70218" xlink:href="#linear-gradient"/>
    <linearGradient id="linear-gradient-20" x1="77.80975" y1="135.36655" x2="77.80975" y2="144.70218" xlink:href="#linear-gradient"/>
    <linearGradient id="linear-gradient-21" x1="118.88649" y1="135.36655" x2="118.88649" y2="144.70218" xlink:href="#linear-gradient"/>
    <linearGradient id="linear-gradient-22" x1="161.83037" y1="135.36655" x2="161.83037" y2="144.70218" xlink:href="#linear-gradient"/>
    <linearGradient id="linear-gradient-23" x1="202.91348" y1="135.36655" x2="202.91348" y2="144.70218" xlink:href="#linear-gradient"/>
    <linearGradient id="linear-gradient-24" x1="245.85098" y1="135.36655" x2="245.85098" y2="144.70218" xlink:href="#linear-gradient"/>
  </defs>
  <title>p4</title>
  <g id="Panel_BG" data-name="Panel BG">
    <rect width="270" height="214" rx="3" ry="3" fill="#1a1a1a"/>
  </g>
  <g id="Modul_BGs" data-name="Modul BGs">
    <g>
      <rect x="6.60926" y="14.68676" width="258.16309" height="39.70996" rx="1.25" ry="1.25" fill="#414141"/>
      <path d="M263.52222,14.937a1,1,0,0,1,1,1v37.2096a1,1,0,0,1-1,1H7.859a1,1,0,0,1-1-1V15.937a1,1,0,0,1,1-1H263.52222m0-.5H7.859a1.50171,1.50171,0,0,0-1.5,1.5v37.2096a1.50171,1.50171,0,0,0,1.5,1.5H263.52222a1.50167,1.50167,0,0,0,1.5-1.5V15.937a1.50167,1.50167,0,0,0-1.5-1.5Z" fill="#ced2d9"/>
    </g>
    <g>
      <rect x="6.60926" y="57.6311" width="258.16309" height="39.70947" rx="1.25" ry="1.25" fill="#414141"/>
      <path d="M263.52222,57.88089a1,1,0,0,1,1,1V96.09048a1,1,0,0,1-1,1H7.859a1,1,0,0,1-1-1V58.88089a1,1,0,0,1,1-1H263.52222m0-.5H7.859a1.50171,1.50171,0,0,0-1.5,1.5V96.09048a1.50171,1.50171,0,0,0,1.5,1.5H263.52222a1.50167,1.50167,0,0,0,1.5-1.5V58.88089a1.50167,1.50167,0,0,0-1.5-1.5Z" fill="#c8e5bc"/>
    </g>
    <g>
      <rect x="6.60926" y="162.18969" width="258.16309" height="39.70996" rx="1.25" ry="1.25" fill="#414141"/>
      <path d="M263.52222,162.43988a1,1,0,0,1,1,1v37.20959a1,1,0,0,1-1,1H7.859a1,1,0,0,1-1-1V163.43988a1,1,0,0,1,1-1H263.52222m0-.5H7.859a1.50171,1.50171,0,0,0-1.5,1.5v37.20959a1.50171,1.50171,0,0,0,1.5,1.5H263.52222a1.50167,1.50167,0,0,0,1.5-1.5V163.43988a1.50167,1.50167,0,0,0-1.5-1.5Z" fill="#ced2d9"/>
    </g>
    <g>
      <rect x="6.60926" y="119.24584" width="258.16309" height="39.70996" rx="1.25" ry="1.25" fill="#414141"/>
      <path d="M263.52222,119.496a1,1,0,0,1,1,1v37.20959a1,1,0,0,1-1,1H7.859a1,1,0,0,1-1-1V120.496a1,1,0,0,1,1-1H263.52222m0-.5H7.859a1.50171,1.50171,0,0,0-1.5,1.5v37.20959a1.50171,1.50171,0,0,0,1.5,1.5H263.52222a1.50167,1.50167,0,0,0,1.5-1.5V120.496a1.50167,1.50167,0,0,0-1.5-1.5Z" fill="#a5c5c9"/>
    </g>
  </g>
  <g id="Punkte_voll" data-name="Punkte voll">
    <circle cx="100.21525" cy="92.70275" r="1.21363" fill="#e6e6e6"/>
    <circle cx="143.15912" cy="94.56987" r="1.21363" fill="#e6e6e6"/>
    <circle cx="184.23586" cy="150.58362" r="1.21363" fill="#e6e6e6"/>
  </g>
  <g id="Punkte_leer" data-name="Punkte leer">
    <path d="M184.23584,45.09446a.93017.93017,0,1,1-.93018.93017.9312.9312,0,0,1,.93018-.93017m0-.28346a1.21363,1.21363,0,1,0,1.21362,1.21363,1.21361,1.21361,0,0,0-1.21362-1.21363Z" fill="#e6e6e6"/>
    <path d="M184.23584,48.82871a.93017.93017,0,1,1-.93018.93017.9312.9312,0,0,1,.93018-.93017m0-.28346a1.21363,1.21363,0,1,0,1.21362,1.21363,1.21361,1.21361,0,0,0-1.21362-1.21363Z" fill="#e6e6e6"/>
    <path d="M227.17969,46.96158a.93017.93017,0,1,1-.93018.93017.9312.9312,0,0,1,.93018-.93017m0-.28346a1.21363,1.21363,0,1,0,1.21362,1.21363,1.21369,1.21369,0,0,0-1.21362-1.21363Z" fill="#e6e6e6"/>
    <path d="M184.23584,88.03833a.93016.93016,0,1,1-.93018.93017.9312.9312,0,0,1,.93018-.93017m0-.28346a1.21363,1.21363,0,1,0,1.21362,1.21363,1.21361,1.21361,0,0,0-1.21362-1.21363Z" fill="#e6e6e6"/>
    <path d="M184.23584,91.77258a.93017.93017,0,1,1-.93018.93018.93121.93121,0,0,1,.93018-.93018m0-.28346a1.21363,1.21363,0,1,0,1.21362,1.21364,1.21362,1.21362,0,0,0-1.21362-1.21364Z" fill="#e6e6e6"/>
    <path d="M100.21521,88.03833a.93016.93016,0,1,1-.93018.93017.9312.9312,0,0,1,.93018-.93017m0-.28346a1.21363,1.21363,0,1,0,1.21362,1.21363,1.21361,1.21361,0,0,0-1.21362-1.21363Z" fill="#e6e6e6"/>
    <path d="M59.13855,88.03833a.93016.93016,0,1,1-.9303.93017.9312.9312,0,0,1,.9303-.93017m0-.28346a1.21363,1.21363,0,1,0,1.21362,1.21363,1.21371,1.21371,0,0,0-1.21362-1.21363Z" fill="#e6e6e6"/>
    <path d="M59.13855,91.77258a.93017.93017,0,1,1-.9303.93018.93121.93121,0,0,1,.9303-.93018m0-.28346a1.21363,1.21363,0,1,0,1.21362,1.21364,1.21372,1.21372,0,0,0-1.21362-1.21364Z" fill="#e6e6e6"/>
    <path d="M227.17969,89.90545a.93017.93017,0,1,1-.93018.93018.93121.93121,0,0,1,.93018-.93018m0-.28346a1.21363,1.21363,0,1,0,1.21362,1.21364,1.2137,1.2137,0,0,0-1.21362-1.21364Z" fill="#e6e6e6"/>
    <path d="M143.15906,89.90545a.93017.93017,0,1,1-.93018.93018.93131.93131,0,0,1,.93018-.93018m0-.28346a1.21363,1.21363,0,1,0,1.21375,1.21364,1.2137,1.2137,0,0,0-1.21375-1.21364Z" fill="#e6e6e6"/>
    <path d="M143.15906,86.17121a.93017.93017,0,1,1-.93018.93017.93131.93131,0,0,1,.93018-.93017m0-.28346a1.21363,1.21363,0,1,0,1.21375,1.21363,1.21369,1.21369,0,0,0-1.21375-1.21363Z" fill="#e6e6e6"/>
    <path d="M59.13855,194.46444a.93017.93017,0,1,1-.9303.93018.93121.93121,0,0,1,.9303-.93018m0-.28346a1.21363,1.21363,0,1,0,1.21362,1.21364,1.21372,1.21372,0,0,0-1.21362-1.21364Z" fill="#e6e6e6"/>
    <path d="M100.21521,194.46444a.93017.93017,0,1,1-.93018.93018.93121.93121,0,0,1,.93018-.93018m0-.28346a1.21363,1.21363,0,1,0,1.21362,1.21364,1.21362,1.21362,0,0,0-1.21362-1.21364Z" fill="#e6e6e6"/>
    <path d="M16.19465,194.46444a.93017.93017,0,1,1-.93018.93018.93125.93125,0,0,1,.93018-.93018m0-.28346a1.21363,1.21363,0,1,0,1.21362,1.21364,1.21362,1.21362,0,0,0-1.21362-1.21364Z" fill="#e6e6e6"/>
    <path d="M143.15906,194.46444a.93017.93017,0,1,1-.93018.93018.93131.93131,0,0,1,.93018-.93018m0-.28346a1.21363,1.21363,0,1,0,1.21375,1.21364,1.2137,1.2137,0,0,0-1.21375-1.21364Z" fill="#e6e6e6"/>
    <path d="M184.23584,192.59732a.93018.93018,0,1,1-.93018.93018.93121.93121,0,0,1,.93018-.93018m0-.28346a1.21364,1.21364,0,1,0,1.21362,1.21364,1.21362,1.21362,0,0,0-1.21362-1.21364Z" fill="#e6e6e6"/>
    <path d="M184.23584,196.33157a.93017.93017,0,1,1-.93018.93018.93121.93121,0,0,1,.93018-.93018m0-.28346a1.21363,1.21363,0,1,0,1.21362,1.21364,1.21362,1.21362,0,0,0-1.21362-1.21364Z" fill="#e6e6e6"/>
    <path d="M227.17969,194.46444a.93017.93017,0,1,1-.93018.93018.93121.93121,0,0,1,.93018-.93018m0-.28346a1.21363,1.21363,0,1,0,1.21362,1.21364,1.2137,1.2137,0,0,0-1.21362-1.21364Z" fill="#e6e6e6"/>
    <path d="M227.17969,151.52058a.93017.93017,0,1,1-.93018.93016.9312.9312,0,0,1,.93018-.93016m0-.28346a1.21363,1.21363,0,1,0,1.21362,1.21362,1.21368,1.21368,0,0,0-1.21362-1.21362Z" fill="#e6e6e6"/>
    <path d="M100.21521,153.38771a.93017.93017,0,1,1-.93018.93016.9312.9312,0,0,1,.93018-.93016m0-.28346a1.21363,1.21363,0,1,0,1.21362,1.21362,1.2136,1.2136,0,0,0-1.21362-1.21362Z" fill="#e6e6e6"/>
    <path d="M100.21521,149.65345a.93017.93017,0,1,1-.93018.93016.9312.9312,0,0,1,.93018-.93016m0-.28346a1.21363,1.21363,0,1,0,1.21362,1.21362,1.21361,1.21361,0,0,0-1.21362-1.21362Z" fill="#e6e6e6"/>
    <path d="M143.15906,153.38771a.93017.93017,0,1,1-.93018.93016.9313.9313,0,0,1,.93018-.93016m0-.28346a1.21363,1.21363,0,1,0,1.21375,1.21362,1.21368,1.21368,0,0,0-1.21375-1.21362Z" fill="#e6e6e6"/>
    <path d="M143.15906,149.65345a.93017.93017,0,1,1-.93018.93016.9313.9313,0,0,1,.93018-.93016m0-.28346a1.21363,1.21363,0,1,0,1.21375,1.21362,1.21369,1.21369,0,0,0-1.21375-1.21362Z" fill="#e6e6e6"/>
    <path d="M184.23584,153.38771a.93017.93017,0,1,1-.93018.93016.9312.9312,0,0,1,.93018-.93016m0-.28346a1.21363,1.21363,0,1,0,1.21362,1.21362,1.2136,1.2136,0,0,0-1.21362-1.21362Z" fill="#e6e6e6"/>
  </g>
  <g id="LEDs_Top" data-name="LEDs Top">
    <circle cx="16.19463" cy="35.47537" r="2.80069" fill="#6e2014" stroke="#252525" stroke-miterlimit="10" stroke-width="0.3"/>
    <circle cx="59.1385" cy="35.39267" r="2.80069" fill="#6e2014" stroke="#252525" stroke-miterlimit="10" stroke-width="0.3"/>
    <circle cx="100.21525" cy="35.39267" r="2.80069" fill="#6e2014" stroke="#252525" stroke-miterlimit="10" stroke-width="0.3"/>
    <circle cx="143.15912" cy="35.39267" r="2.80069" fill="#6e2014" stroke="#252525" stroke-miterlimit="10" stroke-width="0.3"/>
    <circle cx="184.23586" cy="35.39267" r="2.80069" fill="#6e2014" stroke="#252525" stroke-miterlimit="10" stroke-width="0.3"/>
    <circle cx="227.17974" cy="35.39267" r="2.80069" fill="#6e2014" stroke="#252525" stroke-miterlimit="10" stroke-width="0.3"/>
    <circle cx="16.19463" cy="78.41924" r="2.80069" fill="#6e2014" stroke="#252525" stroke-miterlimit="10" stroke-width="0.3"/>
    <circle cx="59.1385" cy="78.33655" r="2.80069" fill="#6e2014" stroke="#252525" stroke-miterlimit="10" stroke-width="0.3"/>
    <circle cx="100.21525" cy="78.33655" r="2.80069" fill="#6e2014" stroke="#252525" stroke-miterlimit="10" stroke-width="0.3"/>
    <circle cx="143.15912" cy="78.33655" r="2.80069" fill="#6e2014" stroke="#252525" stroke-miterlimit="10" stroke-width="0.3"/>
    <circle cx="184.23586" cy="78.33655" r="2.80069" fill="#6e2014" stroke="#252525" stroke-miterlimit="10" stroke-width="0.3"/>
    <circle cx="227.17974" cy="78.33655" r="2.80069" fill="#6e2014" stroke="#252525" stroke-miterlimit="10" stroke-width="0.3"/>
    <circle cx="16.19463" cy="182.97824" r="2.80069" fill="#6e2014" stroke="#252525" stroke-miterlimit="10" stroke-width="0.3"/>
    <circle cx="59.1385" cy="182.89554" r="2.80069" fill="#6e2014" stroke="#252525" stroke-miterlimit="10" stroke-width="0.3"/>
    <circle cx="100.21525" cy="182.89554" r="2.80069" fill="#6e2014" stroke="#252525" stroke-miterlimit="10" stroke-width="0.3"/>
    <circle cx="143.15912" cy="182.89554" r="2.80069" fill="#6e2014" stroke="#252525" stroke-miterlimit="10" stroke-width="0.3"/>
    <circle cx="184.23586" cy="182.89554" r="2.80069" fill="#6e2014" stroke="#252525" stroke-miterlimit="10" stroke-width="0.3"/>
    <circle cx="227.17974" cy="182.89554" r="2.80069" fill="#6e2014" stroke="#252525" stroke-miterlimit="10" stroke-width="0.3"/>
    <circle cx="16.19463" cy="140.03436" r="2.80069" fill="#6e2014" stroke="#252525" stroke-miterlimit="10" stroke-width="0.3"/>
    <circle cx="59.1385" cy="139.95167" r="2.80069" fill="#6e2014" stroke="#252525" stroke-miterlimit="10" stroke-width="0.3"/>
    <circle cx="100.21525" cy="139.95167" r="2.80069" fill="#6e2014" stroke="#252525" stroke-miterlimit="10" stroke-width="0.3"/>
    <circle cx="143.15912" cy="139.95167" r="2.80069" fill="#6e2014" stroke="#252525" stroke-miterlimit="10" stroke-width="0.3"/>
    <circle cx="184.23586" cy="139.95167" r="2.80069" fill="#6e2014" stroke="#252525" stroke-miterlimit="10" stroke-width="0.3"/>
    <circle cx="227.17974" cy="139.95167" r="2.80069" fill="#6e2014" stroke="#252525" stroke-miterlimit="10" stroke-width="0.3"/>
  </g>
  <g id="Parameter_Typo" data-name="Parameter Typo">
    <g>
      <path d="M29.39863,45.98438a1.533,1.533,0,0,1,1.1123.49609l-.38281.43066a.99555.99555,0,0,0-.72363-.32227c-.64062,0-1.10059.53809-1.10059,1.417,0,.8916.4248,1.42969,1.07617,1.42969a1.06048,1.06048,0,0,0,.82617-.38867l.38281.4248a1.56286,1.56286,0,0,1-1.2207.56836A1.79358,1.79358,0,0,1,27.592,48.02441,1.83944,1.83944,0,0,1,29.39863,45.98438Z" fill="#e6e6e6"/>
      <path d="M32.37714,46.959a1.54828,1.54828,0,1,1-1.39355,1.54395A1.42159,1.42159,0,0,1,32.37714,46.959Zm0,2.51855c.43066,0,.69434-.38867.69434-.97461,0-.59277-.26367-.98145-.69434-.98145s-.6875.38867-.6875.98145C31.68964,49.08887,31.94648,49.47754,32.37714,49.47754Z" fill="#e6e6e6"/>
      <path d="M34.4582,47.03125h.56836l.04785.40039h.02441a1.24282,1.24282,0,0,1,.89648-.47266.79991.79991,0,0,1,.81348.52637,1.33494,1.33494,0,0,1,.94531-.52637c.62207,0,.90918.4248.90918,1.167v1.8418h-.69336v-1.752c0-.48437-.14453-.66406-.44922-.66406a.91262.91262,0,0,0-.61621.36426v2.05176H36.217v-1.752c0-.48437-.14355-.66406-.45508-.66406a.92649.92649,0,0,0-.61621.36426v2.05176h-.6875Z" fill="#e6e6e6"/>
      <path d="M39.50116,45.74512h.6875V46.834l-.01758.49023a1.34413,1.34413,0,0,1,.84961-.36523c.73535,0,1.16016.58691,1.16016,1.49023,0,1.01074-.60352,1.59082-1.25586,1.59082a1.18216,1.18216,0,0,1-.80176-.37109h-.01758l-.05957.29883h-.54492Zm1.28027,3.72656c.38867,0,.6875-.34668.6875-1.01074,0-.58594-.19141-.93359-.63379-.93359a.9433.9433,0,0,0-.64648.3291v1.37012A.9174.9174,0,0,0,40.78144,49.47168Z" fill="#e6e6e6"/>
    </g>
    <g>
      <path d="M71.93769,48.99316a1.56045,1.56045,0,0,0,1.02246.44238c.4375,0,.68262-.19727.68262-.502,0-.32324-.252-.4248-.61035-.57422l-.53223-.2334a1.12127,1.12127,0,0,1-.79-1.041,1.18818,1.18818,0,0,1,1.31055-1.10059,1.73315,1.73315,0,0,1,1.208.49609l-.35937.44336a1.25818,1.25818,0,0,0-.84863-.335c-.37109,0-.61035.17285-.61035.46,0,.30566.29883.41895.62207.55078l.52637.2207a1.08859,1.08859,0,0,1,.78906,1.05957A1.24328,1.24328,0,0,1,72.94257,50.04a2.01267,2.01267,0,0,1-1.40527-.57422Z" fill="#e6e6e6"/>
      <path d="M75.383,49.10645a.46747.46747,0,0,1,0,.93359.46718.46718,0,0,1,0-.93359Z" fill="#e6e6e6"/>
      <path d="M75.68183,46.05664h.73633l.5498,1.96777c.126.44238.21.8252.34082,1.27344h.02441c.13184-.44824.2207-.83105.34668-1.27344l.54395-1.96777h.70605l-1.208,3.91113h-.8252Z" fill="#e6e6e6"/>
      <path d="M79.30683,49.10645a.46747.46747,0,0,1,0,.93359.46718.46718,0,0,1,0-.93359Z" fill="#e6e6e6"/>
      <path d="M80.6164,46.05664h2.36328v.58594H81.31074V47.749h1.417V48.335h-1.417v1.63281H80.6164Z" fill="#e6e6e6"/>
      <path d="M83.48847,49.10645a.46747.46747,0,0,1,0,.93359.46718.46718,0,0,1,0-.93359Z" fill="#e6e6e6"/>
    </g>
    <g>
      <path d="M110.70234,46.05664h2.35059v.58594h-1.65625v.999h1.40527v.58594h-1.40527v1.1543h1.7168v.58594h-2.41113Z" fill="#e6e6e6"/>
      <path d="M117.13886,46.28906a.78428.78428,0,0,0-.31738-.07129c-.24512,0-.377.15527-.377.49609v.31738h.57422v.54395h-.57422v2.39258h-.6875V47.5752h-1.10645v2.39258h-.6875V47.5752h-.39551v-.51367l.39551-.03027v-.25684a.93164.93164,0,0,1,1.0166-1.041,1.4543,1.4543,0,0,1,.57422.10742l-.13184.51465a.78928.78928,0,0,0-.37109-.07812c-.24512,0-.40039.168-.40039.49707v.25684H115.757v-.30469c0-.61035.28125-1.05273.97461-1.05273a1.46646,1.46646,0,0,1,.53906.10156Z" fill="#e6e6e6"/>
      <path d="M118.62812,46.959c.7959,0,1.21484.57422,1.21484,1.39453a1.43128,1.43128,0,0,1-.03027.32227h-1.86621a.84317.84317,0,0,0,.86719.832,1.2227,1.2227,0,0,0,.68164-.21582l.2334.43066a1.84952,1.84952,0,0,1-1.00488.31738,1.54847,1.54847,0,0,1-.0957-3.08105Zm.61621,1.28027c0-.4668-.19727-.74707-.59766-.74707-.34668,0-.64648.25684-.70605.74707Z" fill="#e6e6e6"/>
      <path d="M121.78046,46.959a1.21139,1.21139,0,0,1,.86133.3418l-.3291.43652a.73209.73209,0,0,0-.49609-.21582c-.47266,0-.80176.38867-.80176.98145,0,.58594.32324.97461.7832.97461a.96914.96914,0,0,0,.60449-.251l.28711.43652a1.47193,1.47193,0,0,1-.96289.377,1.39752,1.39752,0,0,1-1.418-1.53711A1.44931,1.44931,0,0,1,121.78046,46.959Z" fill="#e6e6e6"/>
      <path d="M123.36542,47.5752h-.41895v-.51367l.45508-.03027.084-.80176h.57422v.80176h.74707v.54395h-.74707v1.40039c0,.34668.13086.51367.41211.51367a.84177.84177,0,0,0,.30566-.06543l.11914.50879a1.87388,1.87388,0,0,1-.59766.10742c-.68262,0-.93359-.43066-.93359-1.06445Z" fill="#e6e6e6"/>
      <path d="M125.45331,49.19043a1.30791,1.30791,0,0,0,.81348.3291c.31641,0,.4668-.14941.4668-.35254,0-.24609-.31738-.35352-.62891-.47266-.38867-.14355-.8252-.36523-.8252-.85547,0-.51465.41309-.87988,1.07129-.87988a1.58517,1.58517,0,0,1,.97461.35352l-.31738.41895a1.08673,1.08673,0,0,0-.64551-.252c-.293,0-.43066.1377-.43066.32324,0,.22754.293.32324.61035.43652.40039.14941.84277.34082.84277.8916,0,.502-.40039.90918-1.14258.90918a1.85984,1.85984,0,0,1-1.1123-.40723Z" fill="#e6e6e6"/>
    </g>
    <g>
      <path d="M155.40156,49.96777l-.84375-1.53125h-.5918v1.53125h-.69434V46.05664h1.31641c.81348,0,1.44141.28711,1.44141,1.16016a1.093,1.093,0,0,1-.78418,1.11816l.93359,1.63281ZM153.966,47.88672h.5498c.53809,0,.8252-.22754.8252-.66992,0-.44922-.28711-.60449-.8252-.60449h-.5498Z" fill="#e6e6e6"/>
      <path d="M157.883,46.959c.7959,0,1.21484.57422,1.21484,1.39453a1.49112,1.49112,0,0,1-.03027.32227h-1.86621a.84317.84317,0,0,0,.86719.832,1.23063,1.23063,0,0,0,.68262-.21582l.23242.43066a1.85213,1.85213,0,0,1-1.00488.31738,1.54847,1.54847,0,0,1-.0957-3.08105Zm.61621,1.28027c0-.4668-.19727-.74707-.59766-.74707-.34766,0-.64648.25684-.70605.74707Z" fill="#e6e6e6"/>
      <path d="M159.39179,47.03125h.69922l.4668,1.52539c.07813.28711.167.58594.24512.88477h.02441c.083-.29883.167-.59766.251-.88477l.46582-1.52539h.66406l-.998,2.93652h-.7959Z" fill="#e6e6e6"/>
      <path d="M163.841,46.959c.7959,0,1.21484.57422,1.21484,1.39453a1.43127,1.43127,0,0,1-.03027.32227h-1.86621a.84317.84317,0,0,0,.86719.832,1.2227,1.2227,0,0,0,.68164-.21582l.2334.43066a1.84952,1.84952,0,0,1-1.00488.31738,1.54847,1.54847,0,0,1-.0957-3.08105Zm.61621,1.28027c0-.4668-.19727-.74707-.59766-.74707-.34668,0-.64648.25684-.70605.74707Z" fill="#e6e6e6"/>
      <path d="M165.71308,47.03125h.56836l.04785.52051h.02344a.99948.99948,0,0,1,.832-.59277.74442.74442,0,0,1,.335.06055l-.12012.59766a.97275.97275,0,0,0-.30469-.04785c-.2334,0-.51465.16211-.69336.60449v1.79395h-.68848Z" fill="#e6e6e6"/>
      <path d="M167.94452,45.74512h.6875V46.834l-.01758.49023a1.34413,1.34413,0,0,1,.84961-.36523c.73535,0,1.16016.58691,1.16016,1.49023,0,1.01074-.60352,1.59082-1.25586,1.59082a1.18216,1.18216,0,0,1-.80176-.37109H168.549l-.05957.29883h-.54492Zm1.28027,3.72656c.38867,0,.6875-.34668.6875-1.01074,0-.58594-.19141-.93359-.63379-.93359a.9433.9433,0,0,0-.64648.3291v1.37012A.9174.9174,0,0,0,169.2248,49.47168Z" fill="#e6e6e6"/>
    </g>
    <g>
      <path d="M196.65937,46.05664h1.041a1.95678,1.95678,0,0,1,.03613,3.91113h-1.07715Zm.99316,3.34961c.79,0,1.24414-.44922,1.24414-1.41211,0-.957-.4541-1.376-1.24414-1.376h-.29883v2.78809Z" fill="#e6e6e6"/>
      <path d="M200.33222,47.03125h.56836l.04785.52051h.02344a.99948.99948,0,0,1,.832-.59277.74442.74442,0,0,1,.335.06055l-.12012.59766a.97275.97275,0,0,0-.30469-.04785c-.2334,0-.51465.16211-.69336.60449v1.79395h-.68848Z" fill="#e6e6e6"/>
      <path d="M202.48554,46.12793a.42648.42648,0,1,1,.4248.38867A.39482.39482,0,0,1,202.48554,46.12793Zm.07813.90332h.6875v2.93652h-.6875Z" fill="#e6e6e6"/>
      <path d="M203.76484,47.03125h.7002l.4668,1.52539c.07715.28711.167.58594.24512.88477h.02344c.084-.29883.168-.59766.252-.88477l.4668-1.52539h.66309l-.999,2.93652h-.79492Z" fill="#e6e6e6"/>
      <path d="M208.215,46.959c.7959,0,1.21484.57422,1.21484,1.39453a1.49112,1.49112,0,0,1-.03027.32227h-1.86621a.84317.84317,0,0,0,.86719.832,1.23063,1.23063,0,0,0,.68262-.21582l.23242.43066a1.85213,1.85213,0,0,1-1.00488.31738,1.54847,1.54847,0,0,1-.0957-3.08105Zm.61621,1.28027c0-.4668-.19727-.74707-.59766-.74707-.34766,0-.64648.25684-.70605.74707Z" fill="#e6e6e6"/>
    </g>
    <g>
      <path d="M239.58515,46.05664h.69434v3.3252h1.62109v.58594h-2.31543Z" fill="#e6e6e6"/>
      <path d="M243.59882,46.959c.7959,0,1.21484.57422,1.21484,1.39453a1.43127,1.43127,0,0,1-.03027.32227h-1.86621a.84317.84317,0,0,0,.86719.832,1.2227,1.2227,0,0,0,.68164-.21582l.2334.43066a1.84952,1.84952,0,0,1-1.00488.31738,1.54847,1.54847,0,0,1-.0957-3.08105Zm.61621,1.28027c0-.4668-.19727-.74707-.59766-.74707-.34668,0-.64648.25684-.70605.74707Z" fill="#e6e6e6"/>
      <path d="M245.10663,47.03125h.69922l.4668,1.52539c.07813.28711.167.58594.24512.88477h.02441c.083-.29883.167-.59766.251-.88477l.46582-1.52539h.66406l-.998,2.93652h-.7959Z" fill="#e6e6e6"/>
      <path d="M249.55683,46.959c.7959,0,1.21484.57422,1.21484,1.39453a1.49112,1.49112,0,0,1-.03027.32227h-1.86621a.84317.84317,0,0,0,.86719.832,1.23063,1.23063,0,0,0,.68262-.21582l.23242.43066a1.85213,1.85213,0,0,1-1.00488.31738,1.54847,1.54847,0,0,1-.0957-3.08105Zm.61621,1.28027c0-.4668-.19727-.74707-.59766-.74707-.34766,0-.64648.25684-.70605.74707Z" fill="#e6e6e6"/>
      <path d="M251.4289,45.74512h.6875V49.25c0,.168.07813.22754.15039.22754a.42059.42059,0,0,0,.10742-.01172l.08984.51465a.95461.95461,0,0,1-.36523.05957c-.49023,0-.66992-.31738-.66992-.8252Z" fill="#e6e6e6"/>
    </g>
    <g>
      <path d="M31.07929,91.85352H29.76972l-.30566,1.05859h-.71094L30.03241,89h.81348l1.27441,3.91211H31.384Zm-.15527-.54492-.1377-.47852c-.11914-.41211-.23926-.86133-.35254-1.292h-.02441c-.10742.43652-.2207.87988-.34668,1.292l-.1377.47852Z" fill="#e6e6e6"/>
      <path d="M33.57343,91.17773h2.36914v.4541H33.57343Z" fill="#e6e6e6"/>
      <path d="M37.91034,89h1.25c.80176,0,1.39355.24512,1.39355.96289a.84907.84907,0,0,1-.66992.84961v.02344a.90459.90459,0,0,1,.87988.92773c0,.7832-.63965,1.14844-1.501,1.14844H37.91034Zm1.18457,1.62109c.55078,0,.77734-.209.77734-.57422,0-.35937-.251-.50879-.75977-.50879h-.50781v1.083Zm.0957,1.75293c.57422,0,.8916-.21582.8916-.6582,0-.40723-.31152-.59863-.8916-.59863h-.58594V92.374Z" fill="#e6e6e6"/>
    </g>
    <g>
      <path d="M71.65937,89h1.31641c.85547,0,1.4834.29883,1.4834,1.208,0,.86719-.64648,1.26855-1.4834,1.26855H72.3537v1.43555h-.69434Zm1.25586,1.91992c.58691,0,.86133-.2334.86133-.71191,0-.49023-.293-.65137-.86133-.65137H72.3537v1.36328Z" fill="#e6e6e6"/>
      <path d="M75.04609,89.07227a.426.426,0,1,1,.42383.38867A.39474.39474,0,0,1,75.04609,89.07227Zm.07715.90234h.68848v2.9375h-.68848Z" fill="#e6e6e6"/>
      <path d="M76.7912,90.51953h-.41895v-.51465l.45508-.03027.084-.80078h.57422v.80078h.74707v.54492h-.74707v1.39941c0,.34668.13086.51465.41211.51465a.84226.84226,0,0,0,.30566-.06641l.11914.50879a1.87388,1.87388,0,0,1-.59766.10742c-.68262,0-.93359-.43066-.93359-1.06445Z" fill="#e6e6e6"/>
      <path d="M80.06952,89.90332a1.21088,1.21088,0,0,1,.86133.34082l-.3291.43652a.73087.73087,0,0,0-.49609-.21484c-.47266,0-.80176.38867-.80176.98047,0,.58594.32324.97559.7832.97559a.97.97,0,0,0,.60449-.252l.28711.43652a1.46691,1.46691,0,0,1-.96289.377,1.397,1.397,0,0,1-1.418-1.53711A1.449,1.449,0,0,1,80.06952,89.90332Z" fill="#e6e6e6"/>
      <path d="M81.55292,88.68945h.68848v1.08789l-.02441.56836a1.34516,1.34516,0,0,1,.93945-.44238c.62793,0,.90332.4248.90332,1.166v1.84277h-.68848V91.15918c0-.48437-.1377-.66406-.46-.66406a.92991.92991,0,0,0-.66992.36523v2.05176h-.68848Z" fill="#e6e6e6"/>
    </g>
    <g>
      <path d="M111.60175,89h1.041a1.95729,1.95729,0,0,1,.03613,3.91211h-1.07715Zm.99316,3.34961c.78906,0,1.24414-.44824,1.24414-1.41113,0-.957-.45508-1.376-1.24414-1.376h-.29883v2.78711Z" fill="#e6e6e6"/>
      <path d="M116.43476,89.90332c.7959,0,1.21484.57422,1.21484,1.39355a1.441,1.441,0,0,1-.03027.32324h-1.86621a.84234.84234,0,0,0,.86719.83105,1.22166,1.22166,0,0,0,.68164-.21484l.2334.43066a1.84874,1.84874,0,0,1-1.00488.31641,1.54793,1.54793,0,0,1-.0957-3.08008Zm.61621,1.28027c0-.4668-.19727-.748-.59766-.748-.34668,0-.64648.25684-.70605.748Z" fill="#e6e6e6"/>
      <path d="M119.5871,89.90332a1.21088,1.21088,0,0,1,.86133.34082l-.3291.43652a.73087.73087,0,0,0-.49609-.21484c-.47266,0-.80176.38867-.80176.98047,0,.58594.32324.97559.7832.97559a.97.97,0,0,0,.60449-.252l.28711.43652a1.46691,1.46691,0,0,1-.96289.377,1.397,1.397,0,0,1-1.418-1.53711A1.449,1.449,0,0,1,119.5871,89.90332Z" fill="#e6e6e6"/>
      <path d="M122.61445,91.03418c-.00586-.31152-.1377-.57422-.5332-.57422a1.62858,1.62858,0,0,0-.8252.28711l-.251-.46094a2.27784,2.27784,0,0,1,1.20215-.38281c.73535,0,1.09473.44824,1.09473,1.26758v1.74121h-.5625l-.05371-.32324h-.01758a1.42924,1.42924,0,0,1-.90918.39453.82533.82533,0,0,1-.873-.86133C120.88593,91.49414,121.41132,91.165,122.61445,91.03418Zm-.64062,1.41113a.92192.92192,0,0,0,.64063-.32324v-.65723c-.7959.10156-1.05859.31055-1.05859.60352C121.55585,92.332,121.7287,92.44531,121.97382,92.44531Z" fill="#e6e6e6"/>
      <path d="M124.28827,93.56348a.61454.61454,0,0,0,.58594-.502l.05469-.18555-1.1543-2.90137h.69922l.50879,1.44238c.083.25684.167.5498.25684.8252h.02441c.07129-.26953.14941-.5625.2207-.8252l.44238-1.44238h.66406l-1.06445,3.06934c-.24512.66309-.5498,1.07617-1.19043,1.07617a1.141,1.141,0,0,1-.38281-.05957l.126-.53809A.73485.73485,0,0,0,124.28827,93.56348Z" fill="#e6e6e6"/>
    </g>
    <g>
      <path d="M153.756,91.85352h-1.30957l-.30566,1.05859h-.71191L152.70917,89h.81348l1.27441,3.91211h-.73535Zm-.15527-.54492-.1377-.47852c-.12012-.41211-.23926-.86133-.35254-1.292h-.02441c-.10742.43652-.22168.87988-.34668,1.292l-.1377.47852Z" fill="#e6e6e6"/>
      <path d="M155.26288,89h1.31641c.85547,0,1.4834.29883,1.4834,1.208,0,.86719-.64648,1.26855-1.4834,1.26855h-.62207v1.43555h-.69434Zm1.25586,1.91992c.58691,0,.86133-.2334.86133-.71191,0-.49023-.293-.65137-.86133-.65137h-.56152v1.36328Z" fill="#e6e6e6"/>
      <path d="M160.79706,89.58594H159.6662V89h2.94922v.58594h-1.125v3.32617h-.69336Z" fill="#e6e6e6"/>
      <path d="M162.90741,89.97461h.68848v1.75293c0,.48438.1377.66406.4541.66406.25781,0,.43066-.12012.65234-.40723V89.97461h.6875v2.9375h-.56152l-.05371-.43066H164.756a1.19655,1.19655,0,0,1-.94531.502c-.62793,0-.90332-.4248-.90332-1.166Z" fill="#e6e6e6"/>
      <path d="M166.26386,89.97461h.56836l.04785.39551h.02344a1.36374,1.36374,0,0,1,.96387-.4668c.62793,0,.90332.4248.90332,1.166v1.84277h-.68848V91.15918c0-.48437-.1377-.66406-.46-.66406a.92991.92991,0,0,0-.66992.36523v2.05176h-.68848Z" fill="#e6e6e6"/>
      <path d="M170.77363,89.90332c.7959,0,1.21484.57422,1.21484,1.39355a1.50127,1.50127,0,0,1-.03027.32324H170.092a.84234.84234,0,0,0,.86719.83105,1.22956,1.22956,0,0,0,.68262-.21484l.23242.43066a1.85134,1.85134,0,0,1-1.00488.31641,1.54793,1.54793,0,0,1-.0957-3.08008Zm.61621,1.28027c0-.4668-.19727-.748-.59766-.748-.34766,0-.64648.25684-.70605.748Z" fill="#e6e6e6"/>
    </g>
    <g>
      <path d="M195.6037,89h.69434v1.57324h1.5791V89h.69336v3.91211h-.69336V91.17773H196.298v1.73438h-.69434Z" fill="#e6e6e6"/>
      <path d="M199.42109,89.07227a.426.426,0,1,1,.42383.38867A.39474.39474,0,0,1,199.42109,89.07227Zm.07715.90234h.68848v2.9375h-.68848Z" fill="#e6e6e6"/>
      <path d="M203.94257,88.92871a1.52935,1.52935,0,0,1,1.1123.49609l-.38281.43066a.99647.99647,0,0,0-.72363-.32324c-.64062,0-1.10059.53809-1.10059,1.418,0,.89063.4248,1.42969,1.07617,1.42969a1.05851,1.05851,0,0,0,.8252-.38867l.38281.42383a1.55947,1.55947,0,0,1-1.21973.56836,1.79358,1.79358,0,0,1-1.77637-2.01562A1.83858,1.83858,0,0,1,203.94257,88.92871Z" fill="#e6e6e6"/>
      <path d="M205.62812,89.97461h.68848v1.75293c0,.48438.1377.66406.4541.66406.25781,0,.43066-.12012.65234-.40723V89.97461h.6875v2.9375H207.549l-.05371-.43066h-.01855a1.19655,1.19655,0,0,1-.94531.502c-.62793,0-.90332-.4248-.90332-1.166Z" fill="#e6e6e6"/>
      <path d="M209.08613,90.51953h-.41895v-.51465l.45508-.03027.084-.80078h.57422v.80078h.74707v.54492h-.74707v1.39941c0,.34668.13086.51465.41211.51465a.84226.84226,0,0,0,.30566-.06641l.11914.50879a1.87388,1.87388,0,0,1-.59766.10742c-.68262,0-.93359-.43066-.93359-1.06445Z" fill="#e6e6e6"/>
    </g>
    <g>
      <path d="M242.3664,89h1.31641c.85547,0,1.4834.29883,1.4834,1.208,0,.86719-.64648,1.26855-1.4834,1.26855h-.62207v1.43555h-.69434Zm1.25586,1.91992c.58691,0,.86133-.2334.86133-.71191,0-.49023-.293-.65137-.86133-.65137h-.56152v1.36328Z" fill="#e6e6e6"/>
      <path d="M245.884,89h.75977l.70605,1.92578.25684.74219h.02441l.25684-.74219L248.57538,89h.76563v3.91211h-.65137V91.123c0-.36426.05371-.88477.08984-1.24414h-.02441l-.31641.8916-.67578,1.77637h-.31738l-.67578-1.77637-.31152-.8916h-.02344c.0293.35938.084.87988.084,1.24414v1.78906H245.884Z" fill="#e6e6e6"/>
    </g>
    <path d="M35.51679,196.41211H34.20722l-.30566,1.05859h-.71094l1.2793-3.91113h.81348l1.27441,3.91113h-.73633Zm-.15527-.54395-.1377-.47852c-.11914-.41309-.23926-.86133-.35254-1.292h-.02441c-.10742.43652-.2207.87891-.34668,1.292l-.1377.47852Z" fill="#e6e6e6"/>
    <path d="M76.52558,193.55957h1.25c.80176,0,1.39355.24512,1.39355.96289a.84805.84805,0,0,1-.66992.84863v.02441c.5625.0957.87988.40039.87988.92676,0,.78418-.63965,1.14844-1.501,1.14844H76.52558Zm1.18457,1.62012c.55078,0,.77734-.209.77734-.57422,0-.3584-.251-.50781-.75977-.50781h-.50781v1.082Zm.0957,1.75293c.57422,0,.8916-.21484.8916-.6582,0-.40625-.31152-.59766-.8916-.59766h-.58594v1.25586Z" fill="#e6e6e6"/>
    <g>
      <path d="M113.4123,193.4873a1.533,1.533,0,0,1,1.1123.49609l-.38281.43066a.99555.99555,0,0,0-.72363-.32227c-.64062,0-1.10059.53809-1.10059,1.417,0,.8916.4248,1.42969,1.07617,1.42969a1.06048,1.06048,0,0,0,.82617-.38867l.38281.4248a1.56286,1.56286,0,0,1-1.2207.56836,1.79358,1.79358,0,0,1-1.77637-2.01562A1.83944,1.83944,0,0,1,113.4123,193.4873Z" fill="#e6e6e6"/>
      <path d="M116.39081,194.46191a1.54828,1.54828,0,1,1-1.39355,1.54395A1.42159,1.42159,0,0,1,116.39081,194.46191Zm0,2.51855c.43066,0,.69434-.38867.69434-.97461,0-.59277-.26367-.98145-.69434-.98145s-.6875.38867-.6875.98145C115.70331,196.5918,115.96015,196.98047,116.39081,196.98047Z" fill="#e6e6e6"/>
      <path d="M118.47187,194.53418h.56836l.04785.40039h.02441a1.24282,1.24282,0,0,1,.89648-.47266.79991.79991,0,0,1,.81348.52637,1.33494,1.33494,0,0,1,.94531-.52637c.62207,0,.90918.4248.90918,1.167v1.8418h-.69336v-1.752c0-.48437-.14453-.66406-.44922-.66406a.91262.91262,0,0,0-.61621.36426v2.05176h-.6875v-1.752c0-.48437-.14355-.66406-.45508-.66406a.92649.92649,0,0,0-.61621.36426v2.05176h-.6875Z" fill="#e6e6e6"/>
      <path d="M123.51484,193.248h.6875v1.08887l-.01758.49023a1.34413,1.34413,0,0,1,.84961-.36523c.73535,0,1.16016.58691,1.16016,1.49023,0,1.01074-.60352,1.59082-1.25586,1.59082a1.18216,1.18216,0,0,1-.80176-.37109h-.01758l-.05957.29883h-.54492Zm1.28027,3.72656c.38867,0,.6875-.34668.6875-1.01074,0-.58594-.19141-.93359-.63379-.93359a.9433.9433,0,0,0-.64648.3291v1.37012A.9174.9174,0,0,0,124.79511,196.97461Z" fill="#e6e6e6"/>
    </g>
    <g>
      <path d="M155.95722,196.49609a1.56045,1.56045,0,0,0,1.02246.44238c.4375,0,.68262-.19727.68262-.502,0-.32324-.252-.4248-.61035-.57422l-.53223-.2334a1.12127,1.12127,0,0,1-.79-1.041,1.18818,1.18818,0,0,1,1.31055-1.10059,1.73315,1.73315,0,0,1,1.208.49609l-.35937.44336a1.25818,1.25818,0,0,0-.84863-.335c-.37109,0-.61035.17285-.61035.46,0,.30566.29883.41895.62207.55078l.52637.2207a1.08859,1.08859,0,0,1,.78906,1.05957,1.24328,1.24328,0,0,1-1.40527,1.16016,2.01267,2.01267,0,0,1-1.40527-.57422Z" fill="#e6e6e6"/>
      <path d="M159.40253,196.60938a.46747.46747,0,0,1,0,.93359.46718.46718,0,0,1,0-.93359Z" fill="#e6e6e6"/>
      <path d="M159.70136,193.55957h.73633l.5498,1.96777c.126.44238.21.8252.34082,1.27344h.02441c.13184-.44824.2207-.83105.34668-1.27344l.54395-1.96777h.70605l-1.208,3.91113h-.8252Z" fill="#e6e6e6"/>
      <path d="M163.32636,196.60938a.46747.46747,0,0,1,0,.93359.46718.46718,0,0,1,0-.93359Z" fill="#e6e6e6"/>
      <path d="M164.63593,193.55957h2.36328v.58594h-1.66895V195.252h1.417v.58594h-1.417v1.63281h-.69434Z" fill="#e6e6e6"/>
      <path d="M167.508,196.60938a.46747.46747,0,0,1,0,.93359.46718.46718,0,0,1,0-.93359Z" fill="#e6e6e6"/>
    </g>
    <g>
      <path d="M196.65937,193.55957h1.041a1.95678,1.95678,0,0,1,.03613,3.91113h-1.07715Zm.99316,3.34961c.79,0,1.24414-.44922,1.24414-1.41211,0-.957-.4541-1.376-1.24414-1.376h-.29883v2.78809Z" fill="#e6e6e6"/>
      <path d="M200.33222,194.53418h.56836l.04785.52051h.02344a.99948.99948,0,0,1,.832-.59277.74442.74442,0,0,1,.335.06055l-.12012.59766a.97275.97275,0,0,0-.30469-.04785c-.2334,0-.51465.16211-.69336.60449v1.79395h-.68848Z" fill="#e6e6e6"/>
      <path d="M202.48554,193.63086a.42648.42648,0,1,1,.4248.38867A.39482.39482,0,0,1,202.48554,193.63086Zm.07813.90332h.6875v2.93652h-.6875Z" fill="#e6e6e6"/>
      <path d="M203.76484,194.53418h.7002l.4668,1.52539c.07715.28711.167.58594.24512.88477h.02344c.084-.29883.168-.59766.252-.88477l.4668-1.52539h.66309l-.999,2.93652h-.79492Z" fill="#e6e6e6"/>
      <path d="M208.215,194.46191c.7959,0,1.21484.57422,1.21484,1.39453a1.49111,1.49111,0,0,1-.03027.32227h-1.86621a.84317.84317,0,0,0,.86719.832,1.23063,1.23063,0,0,0,.68262-.21582l.23242.43066a1.85213,1.85213,0,0,1-1.00488.31738,1.54847,1.54847,0,0,1-.0957-3.08105Zm.61621,1.28027c0-.4668-.19727-.74707-.59766-.74707-.34766,0-.64648.25684-.70605.74707Z" fill="#e6e6e6"/>
    </g>
    <g>
      <path d="M239.58515,193.55957h.69434v3.3252h1.62109v.58594h-2.31543Z" fill="#e6e6e6"/>
      <path d="M243.59882,194.46191c.7959,0,1.21484.57422,1.21484,1.39453a1.43127,1.43127,0,0,1-.03027.32227h-1.86621a.84317.84317,0,0,0,.86719.832,1.2227,1.2227,0,0,0,.68164-.21582l.2334.43066a1.84952,1.84952,0,0,1-1.00488.31738,1.54847,1.54847,0,0,1-.0957-3.08105Zm.61621,1.28027c0-.4668-.19727-.74707-.59766-.74707-.34668,0-.64648.25684-.70605.74707Z" fill="#e6e6e6"/>
      <path d="M245.10663,194.53418h.69922l.4668,1.52539c.07813.28711.167.58594.24512.88477h.02441c.083-.29883.167-.59766.251-.88477l.46582-1.52539h.66406l-.998,2.93652h-.7959Z" fill="#e6e6e6"/>
      <path d="M249.55683,194.46191c.7959,0,1.21484.57422,1.21484,1.39453a1.49112,1.49112,0,0,1-.03027.32227h-1.86621a.84317.84317,0,0,0,.86719.832,1.23063,1.23063,0,0,0,.68262-.21582l.23242.43066a1.85213,1.85213,0,0,1-1.00488.31738,1.54847,1.54847,0,0,1-.0957-3.08105Zm.61621,1.28027c0-.4668-.19727-.74707-.59766-.74707-.34766,0-.64648.25684-.70605.74707Z" fill="#e6e6e6"/>
      <path d="M251.4289,193.248h.6875v3.50488c0,.168.07813.22754.15039.22754a.42059.42059,0,0,0,.10742-.01172l.08984.51465a.9546.9546,0,0,1-.36523.05957c-.49023,0-.66992-.31738-.66992-.8252Z" fill="#e6e6e6"/>
    </g>
    <g>
      <path d="M31.07929,153.46973H29.76972l-.30566,1.05859h-.71094l1.2793-3.91113h.81348l1.27441,3.91113H31.384Zm-.15527-.54395-.1377-.47852c-.11914-.41309-.23926-.86133-.35254-1.292h-.02441c-.10742.43652-.2207.87891-.34668,1.292l-.1377.47852Z" fill="#e6e6e6"/>
      <path d="M33.57343,152.79395h2.36914v.45508H33.57343Z" fill="#e6e6e6"/>
      <path d="M37.91034,150.61719h1.25c.80176,0,1.39355.24512,1.39355.96289a.848.848,0,0,1-.66992.84863v.02441c.5625.0957.87988.40039.87988.92676,0,.78418-.63965,1.14844-1.501,1.14844H37.91034Zm1.18457,1.62012c.55078,0,.77734-.209.77734-.57422,0-.3584-.251-.50781-.75977-.50781h-.50781v1.082Zm.0957,1.75293c.57422,0,.8916-.21484.8916-.6582,0-.40625-.31152-.59766-.8916-.59766h-.58594v1.25586Z" fill="#e6e6e6"/>
    </g>
    <g>
      <path d="M67.28144,150.54492a1.533,1.533,0,0,1,1.1123.49609l-.38281.43066a.99555.99555,0,0,0-.72363-.32227c-.64062,0-1.10059.53809-1.10059,1.417,0,.8916.4248,1.42969,1.07617,1.42969a1.06048,1.06048,0,0,0,.82617-.38867l.38281.4248a1.56286,1.56286,0,0,1-1.2207.56836A1.79358,1.79358,0,0,1,65.4748,152.585,1.83944,1.83944,0,0,1,67.28144,150.54492Z" fill="#e6e6e6"/>
      <path d="M70.26,151.51953a1.54828,1.54828,0,1,1-1.39355,1.54395A1.42159,1.42159,0,0,1,70.26,151.51953Zm0,2.51855c.43066,0,.69434-.38867.69434-.97461,0-.59277-.26367-.98145-.69434-.98145s-.6875.38867-.6875.98145C69.57245,153.64941,69.82929,154.03809,70.26,154.03809Z" fill="#e6e6e6"/>
      <path d="M72.341,151.5918h.56836l.04785.40039h.02441a1.24282,1.24282,0,0,1,.89648-.47266.79991.79991,0,0,1,.81348.52637,1.33494,1.33494,0,0,1,.94531-.52637c.62207,0,.90918.4248.90918,1.167v1.8418h-.69336v-1.752c0-.48437-.14453-.66406-.44922-.66406a.91262.91262,0,0,0-.61621.36426v2.05176h-.6875v-1.752c0-.48437-.14355-.66406-.45508-.66406a.92649.92649,0,0,0-.61621.36426v2.05176H72.341Z" fill="#e6e6e6"/>
      <path d="M77.384,150.30566h.6875v1.08887l-.01758.49023a1.34413,1.34413,0,0,1,.84961-.36523c.73535,0,1.16016.58691,1.16016,1.49023,0,1.01074-.60352,1.59082-1.25586,1.59082a1.18216,1.18216,0,0,1-.80176-.37109h-.01758l-.05957.29883H77.384Zm1.28027,3.72656c.38867,0,.6875-.34668.6875-1.01074,0-.58594-.19141-.93359-.63379-.93359a.9433.9433,0,0,0-.64648.3291v1.37012A.9174.9174,0,0,0,78.66425,154.03223Z" fill="#e6e6e6"/>
      <path d="M82.0373,150.61719h.75977l.70605,1.92578.25684.74121h.02441l.25684-.74121.68848-1.92578h.76563v3.91113H84.843v-1.78809c0-.36523.05371-.88574.08984-1.24414h-.02441l-.31641.8916-.67676,1.77637h-.31641L82.923,152.3877l-.31152-.8916h-.02344c.0293.3584.083.87891.083,1.24414v1.78809H82.0373Z" fill="#e6e6e6"/>
      <path d="M86.34491,150.68848a.426.426,0,1,1,.42383.38867A.394.394,0,0,1,86.34491,150.68848Zm.07715.90332h.68848v2.93652h-.68848Z" fill="#e6e6e6"/>
      <path d="M88.56952,152.99707l-.873-1.40527h.74219l.32813.55664c.084.16113.17969.335.26953.49609h.02344c.07227-.16113.15625-.335.22754-.49609l.28125-.55664h.71191l-.86719,1.4834.93262,1.45313h-.74121l-.35937-.58008c-.0957-.17285-.19727-.35254-.29883-.52051H88.923c-.084.168-.17383.34082-.25781.52051l-.31055.58008h-.71777Z" fill="#e6e6e6"/>
    </g>
    <g>
      <path d="M112.0871,150.54492a1.533,1.533,0,0,1,1.1123.49609l-.38281.43066a.99555.99555,0,0,0-.72363-.32227c-.64062,0-1.10059.53809-1.10059,1.417,0,.8916.4248,1.42969,1.07617,1.42969a1.05851,1.05851,0,0,0,.8252-.38867l.38281.4248a1.55947,1.55947,0,0,1-1.21973.56836,1.79358,1.79358,0,0,1-1.77637-2.01562A1.83944,1.83944,0,0,1,112.0871,150.54492Z" fill="#e6e6e6"/>
      <path d="M113.7746,151.5918h.6875v1.75293c0,.48438.1377.66309.4541.66309.25781,0,.43066-.11914.65234-.40625V151.5918h.6875v2.93652h-.56152l-.05469-.43066h-.01758a1.19481,1.19481,0,0,1-.94531.50293c-.62793,0-.90234-.4248-.90234-1.167Z" fill="#e6e6e6"/>
      <path d="M117.23066,152.13574h-.41895v-.51367l.45508-.03027.084-.80176h.57422v.80176h.74707v.54395H117.925v1.40039c0,.34668.13086.51367.41211.51367a.84177.84177,0,0,0,.30566-.06543l.11914.50879a1.87388,1.87388,0,0,1-.59766.10742c-.68262,0-.93359-.43066-.93359-1.06445Z" fill="#e6e6e6"/>
      <path d="M120.35956,152.55469c0-1.26172.70605-2.00977,1.72852-2.00977,1.0166,0,1.72266.748,1.72266,2.00977,0,1.26855-.70605,2.0459-1.72266,2.0459C121.06562,154.60059,120.35956,153.82324,120.35956,152.55469Zm2.73926,0c0-.873-.40039-1.40527-1.01074-1.40527-.61621,0-1.0166.53223-1.0166,1.40527,0,.87891.40039,1.44141,1.0166,1.44141C122.69843,153.99609,123.09882,153.43359,123.09882,152.55469Z" fill="#e6e6e6"/>
      <path d="M127.82441,150.84961a.78428.78428,0,0,0-.31738-.07129c-.24512,0-.377.15527-.377.49609v.31738h.57422v.54395h-.57422v2.39258h-.6875v-2.39258h-1.10645v2.39258h-.6875v-2.39258h-.39551v-.51367l.39551-.03027V151.335a.93164.93164,0,0,1,1.0166-1.041,1.4543,1.4543,0,0,1,.57422.10742l-.13184.51465a.78928.78928,0,0,0-.37109-.07812c-.24512,0-.40039.168-.40039.49707v.25684h1.10645v-.30469c0-.61035.28125-1.05273.97461-1.05273a1.46646,1.46646,0,0,1,.53906.10156Z" fill="#e6e6e6"/>
    </g>
    <g>
      <path d="M156.57636,154.52832l-.84375-1.53125h-.5918v1.53125h-.69434v-3.91113h1.31641c.81348,0,1.44141.28711,1.44141,1.16016a1.09325,1.09325,0,0,1-.7832,1.11816l.93262,1.63281Zm-1.43555-2.08105h.5498c.53906,0,.82617-.22754.82617-.66992,0-.44922-.28711-.60449-.82617-.60449h-.5498Z" fill="#e6e6e6"/>
      <path d="M159.05781,151.51953c.7959,0,1.21484.57422,1.21484,1.39453a1.43128,1.43128,0,0,1-.03027.32227h-1.86621a.84317.84317,0,0,0,.86719.832,1.2227,1.2227,0,0,0,.68164-.21582l.2334.43066a1.84952,1.84952,0,0,1-1.00488.31738,1.54847,1.54847,0,0,1-.0957-3.08105Zm.61621,1.28027c0-.4668-.19727-.74707-.59766-.74707-.34668,0-.64648.25684-.70605.74707Z" fill="#e6e6e6"/>
      <path d="M160.96113,153.751a1.30791,1.30791,0,0,0,.81348.3291c.31641,0,.4668-.14941.4668-.35254,0-.24609-.31738-.35352-.62891-.47266-.38867-.14355-.8252-.36523-.8252-.85547,0-.51465.41309-.87988,1.07129-.87988a1.58517,1.58517,0,0,1,.97461.35352l-.31738.41895a1.08673,1.08673,0,0,0-.64551-.252c-.293,0-.43066.1377-.43066.32324,0,.22754.293.32324.61035.43652.40039.14941.84277.34082.84277.8916,0,.502-.40039.90918-1.14258.90918a1.85984,1.85984,0,0,1-1.1123-.40723Z" fill="#e6e6e6"/>
      <path d="M164.71113,151.51953a1.54828,1.54828,0,1,1-1.39355,1.54395A1.42159,1.42159,0,0,1,164.71113,151.51953Zm0,2.51855c.43066,0,.69434-.38867.69434-.97461,0-.59277-.26367-.98145-.69434-.98145s-.6875.38867-.6875.98145C164.02363,153.64941,164.28046,154.03809,164.71113,154.03809Z" fill="#e6e6e6"/>
      <path d="M166.79218,151.5918h.56836l.04785.39453h.02441a1.3635,1.3635,0,0,1,.96289-.4668c.62793,0,.90234.4248.90234,1.167v1.8418h-.6875v-1.752c0-.48437-.1377-.66406-.46094-.66406a.93178.93178,0,0,0-.66992.36426v2.05176h-.6875Z" fill="#e6e6e6"/>
    </g>
    <g>
      <path d="M194.40741,153.55371a1.56045,1.56045,0,0,0,1.02246.44238c.43652,0,.68262-.19727.68262-.502,0-.32324-.252-.4248-.61035-.57422l-.53223-.2334a1.12127,1.12127,0,0,1-.79-1.041,1.18818,1.18818,0,0,1,1.31055-1.10059,1.73138,1.73138,0,0,1,1.208.49609l-.35937.44336a1.25818,1.25818,0,0,0-.84863-.335c-.37109,0-.61035.17285-.61035.46,0,.30566.29883.41895.62207.55078l.52637.2207a1.08859,1.08859,0,0,1,.78906,1.05957,1.24328,1.24328,0,0,1-1.40527,1.16016,2.01267,2.01267,0,0,1-1.40527-.57422Z" fill="#e6e6e6"/>
      <path d="M198.15156,154.76758v.92188h-.6875V151.5918h.56836l.04785.31055h.02441a1.432,1.432,0,0,1,.88477-.38281c.72949,0,1.1543.58691,1.1543,1.49609,0,1.00488-.60352,1.585-1.25586,1.585a1.18889,1.18889,0,0,1-.75391-.32324Zm.59277-.73535c.38867,0,.6875-.34668.6875-1.01074,0-.58594-.19141-.93359-.63379-.93359a.9433.9433,0,0,0-.64648.3291v1.37012A.9289.9289,0,0,0,198.74433,154.03223Z" fill="#e6e6e6"/>
      <path d="M200.8371,151.5918h.56836l.04785.52051h.02441a.997.997,0,0,1,.83105-.59277.74442.74442,0,0,1,.335.06055l-.12012.59766a.97275.97275,0,0,0-.30469-.04785c-.2334,0-.51465.16211-.69434.60449v1.79395h-.6875Z" fill="#e6e6e6"/>
      <path d="M204.16913,151.51953c.7959,0,1.21484.57422,1.21484,1.39453a1.43127,1.43127,0,0,1-.03027.32227h-1.86621a.84317.84317,0,0,0,.86719.832,1.2227,1.2227,0,0,0,.68164-.21582l.2334.43066a1.84952,1.84952,0,0,1-1.00488.31738,1.54847,1.54847,0,0,1-.0957-3.08105Zm.61621,1.28027c0-.4668-.19727-.74707-.59766-.74707-.34668,0-.64648.25684-.70605.74707Z" fill="#e6e6e6"/>
      <path d="M207.57343,152.65039c-.00586-.31055-.1377-.57422-.5332-.57422a1.63774,1.63774,0,0,0-.8252.28711l-.251-.46094a2.27784,2.27784,0,0,1,1.20215-.38281c.73535,0,1.09473.44922,1.09473,1.26855v1.74023h-.5625l-.05371-.32227h-.01758a1.43434,1.43434,0,0,1-.90918.39453.82533.82533,0,0,1-.873-.86133C205.84491,153.11133,206.37031,152.78223,207.57343,152.65039Zm-.64062,1.41211a.92583.92583,0,0,0,.64063-.32324v-.6582c-.7959.10156-1.05859.31152-1.05859.60449C206.51484,153.94824,206.68769,154.0625,206.93281,154.0625Z" fill="#e6e6e6"/>
      <path d="M210.1623,151.51953a1.08752,1.08752,0,0,1,.77246.32324l-.02441-.47266v-1.06445h.6875v4.22266h-.56738l-.04883-.31641h-.02344a1.22523,1.22523,0,0,1-.83105.38867c-.73633,0-1.209-.56836-1.209-1.53711A1.38479,1.38479,0,0,1,210.1623,151.51953Zm.13184,2.5127a.792.792,0,0,0,.61621-.3291V152.333a.878.878,0,0,0-.59863-.24512c-.376,0-.68164.35352-.68164.96973C209.63007,153.69141,209.86933,154.03223,210.29413,154.03223Z" fill="#e6e6e6"/>
    </g>
    <g>
      <path d="M242.61152,150.61719h2.36328v.58594h-1.66895v1.10645h1.417v.58594h-1.417v1.63281h-.69434Z" fill="#e6e6e6"/>
      <path d="M245.63788,150.61719h.75977l.70605,1.92578.25684.74121h.02441l.25684-.74121.6875-1.92578h.76563v3.91113h-.65137v-1.78809c0-.36523.05371-.88574.08984-1.24414H248.509l-.31641.8916-.67578,1.77637h-.31738l-.67578-1.77637-.31152-.8916h-.02344c.0293.3584.084.87891.084,1.24414v1.78809h-.63477Z" fill="#e6e6e6"/>
    </g>
  </g>
  <g id="Modul_Header" data-name="Modul Header">
    <path d="M7.859,14.937H263.52223a1,1,0,0,1,1,1v8.33562a0,0,0,0,1,0,0H6.859a0,0,0,0,1,0,0V15.937A1,1,0,0,1,7.859,14.937Z" fill="#282828"/>
    <path d="M7.859,57.88087H263.52223a1,1,0,0,1,1,1v8.33562a0,0,0,0,1,0,0H6.859a0,0,0,0,1,0,0V58.88087A1,1,0,0,1,7.859,57.88087Z" fill="#282828"/>
    <path d="M7.859,162.43986H263.52223a1,1,0,0,1,1,1v8.33562a0,0,0,0,1,0,0H6.859a0,0,0,0,1,0,0v-8.33562A1,1,0,0,1,7.859,162.43986Z" fill="#282828"/>
    <path d="M7.859,119.496H263.52223a1,1,0,0,1,1,1v8.33562a0,0,0,0,1,0,0H6.859a0,0,0,0,1,0,0V120.496A1,1,0,0,1,7.859,119.496Z" fill="#282828"/>
  </g>
  <g id="Knöppe">
    <rect x="23.66313" y="30.80756" width="22.4055" height="9.33562" rx="0.5" ry="0.5" stroke="#252525" stroke-miterlimit="10" stroke-width="0.25" fill="url(#linear-gradient)"/>
    <rect x="66.607" y="30.80756" width="22.4055" height="9.33562" rx="0.5" ry="0.5" stroke="#252525" stroke-miterlimit="10" stroke-width="0.25" fill="url(#linear-gradient-2)"/>
    <rect x="107.68375" y="30.80756" width="22.4055" height="9.33562" rx="0.5" ry="0.5" stroke="#252525" stroke-miterlimit="10" stroke-width="0.25" fill="url(#linear-gradient-3)"/>
    <rect x="150.62762" y="30.80756" width="22.4055" height="9.33562" rx="0.5" ry="0.5" stroke="#252525" stroke-miterlimit="10" stroke-width="0.25" fill="url(#linear-gradient-4)"/>
    <rect x="191.71073" y="30.80756" width="22.4055" height="9.33562" rx="0.5" ry="0.5" stroke="#252525" stroke-miterlimit="10" stroke-width="0.25" fill="url(#linear-gradient-5)"/>
    <rect x="234.64824" y="30.80756" width="22.4055" height="9.33562" rx="0.5" ry="0.5" stroke="#252525" stroke-miterlimit="10" stroke-width="0.25" fill="url(#linear-gradient-6)"/>
    <rect x="23.66313" y="73.75143" width="22.4055" height="9.33562" rx="0.5" ry="0.5" stroke="#252525" stroke-miterlimit="10" stroke-width="0.25" fill="url(#linear-gradient-7)"/>
    <rect x="66.607" y="73.75143" width="22.4055" height="9.33562" rx="0.5" ry="0.5" stroke="#252525" stroke-miterlimit="10" stroke-width="0.25" fill="url(#linear-gradient-8)"/>
    <rect x="107.68375" y="73.75143" width="22.4055" height="9.33562" rx="0.5" ry="0.5" stroke="#252525" stroke-miterlimit="10" stroke-width="0.25" fill="url(#linear-gradient-9)"/>
    <rect x="150.62762" y="73.75143" width="22.4055" height="9.33562" rx="0.5" ry="0.5" stroke="#252525" stroke-miterlimit="10" stroke-width="0.25" fill="url(#linear-gradient-10)"/>
    <rect x="191.71073" y="73.75143" width="22.4055" height="9.33562" rx="0.5" ry="0.5" stroke="#252525" stroke-miterlimit="10" stroke-width="0.25" fill="url(#linear-gradient-11)"/>
    <rect x="234.64824" y="73.75143" width="22.4055" height="9.33562" rx="0.5" ry="0.5" stroke="#252525" stroke-miterlimit="10" stroke-width="0.25" fill="url(#linear-gradient-12)"/>
    <rect x="23.66313" y="178.31042" width="22.4055" height="9.33562" rx="0.5" ry="0.5" stroke="#252525" stroke-miterlimit="10" stroke-width="0.25" fill="url(#linear-gradient-13)"/>
    <rect x="66.607" y="178.31042" width="22.4055" height="9.33562" rx="0.5" ry="0.5" stroke="#252525" stroke-miterlimit="10" stroke-width="0.25" fill="url(#linear-gradient-14)"/>
    <rect x="107.68375" y="178.31042" width="22.4055" height="9.33562" rx="0.5" ry="0.5" stroke="#252525" stroke-miterlimit="10" stroke-width="0.25" fill="url(#linear-gradient-15)"/>
    <rect x="150.62762" y="178.31042" width="22.4055" height="9.33562" rx="0.5" ry="0.5" stroke="#252525" stroke-miterlimit="10" stroke-width="0.25" fill="url(#linear-gradient-16)"/>
    <rect x="191.71073" y="178.31042" width="22.4055" height="9.33562" rx="0.5" ry="0.5" stroke="#252525" stroke-miterlimit="10" stroke-width="0.25" fill="url(#linear-gradient-17)"/>
    <rect x="234.64824" y="178.31042" width="22.4055" height="9.33562" rx="0.5" ry="0.5" stroke="#252525" stroke-miterlimit="10" stroke-width="0.25" fill="url(#linear-gradient-18)"/>
    <rect x="23.66313" y="135.36655" width="22.4055" height="9.33562" rx="0.5" ry="0.5" stroke="#252525" stroke-miterlimit="10" stroke-width="0.25" fill="url(#linear-gradient-19)"/>
    <rect x="66.607" y="135.36655" width="22.4055" height="9.33562" rx="0.5" ry="0.5" stroke="#252525" stroke-miterlimit="10" stroke-width="0.25" fill="url(#linear-gradient-20)"/>
    <rect x="107.68375" y="135.36655" width="22.4055" height="9.33562" rx="0.5" ry="0.5" stroke="#252525" stroke-miterlimit="10" stroke-width="0.25" fill="url(#linear-gradient-21)"/>
    <rect x="150.62762" y="135.36655" width="22.4055" height="9.33562" rx="0.5" ry="0.5" stroke="#252525" stroke-miterlimit="10" stroke-width="0.25" fill="url(#linear-gradient-22)"/>
    <rect x="191.71073" y="135.36655" width="22.4055" height="9.33562" rx="0.5" ry="0.5" stroke="#252525" stroke-miterlimit="10" stroke-width="0.25" fill="url(#linear-gradient-23)"/>
    <rect x="234.64824" y="135.36655" width="22.4055" height="9.33562" rx="0.5" ry="0.5" stroke="#252525" stroke-miterlimit="10" stroke-width="0.25" fill="url(#linear-gradient-24)"/>
  </g>
  <g id="Modul_Head_Typo" data-name="Modul Head Typo">
    <g>
      <path d="M114.049,18.05078h2.36328v.58594h-1.66895v1.10645h1.417v.58594h-1.417v1.63281H114.049Z" fill="#ced2d9"/>
      <path d="M117.07538,18.05078H119.426v.58594h-1.65625v.999H119.175v.58594h-1.40527V21.376h1.7168v.58594h-2.41113Z" fill="#ced2d9"/>
      <path d="M120.26972,18.05078h2.35059v.58594h-1.65625v.999h1.40527v.58594h-1.40527V21.376h1.7168v.58594h-2.41113Z" fill="#ced2d9"/>
      <path d="M123.46406,18.05078h1.041a1.73082,1.73082,0,0,1,1.9082,1.9375,1.74567,1.74567,0,0,1-1.87207,1.97363h-1.07715Zm.99316,3.34961c.79,0,1.24414-.44922,1.24414-1.41211,0-.957-.4541-1.376-1.24414-1.376h-.29883v2.78809Z" fill="#ced2d9"/>
      <path d="M127.19062,18.05078h1.25c.80176,0,1.39453.24512,1.39453.96289a.849.849,0,0,1-.66992.84863v.02441c.56152.0957.87891.40039.87891.92676,0,.78418-.64062,1.14844-1.502,1.14844h-1.35156Zm1.18457,1.62012c.5498,0,.77734-.209.77734-.57422,0-.3584-.251-.50781-.75977-.50781H127.885v1.082Zm.0957,1.75293c.57422,0,.8916-.21484.8916-.6582,0-.40625-.31152-.59766-.8916-.59766H127.885v1.25586Z" fill="#ced2d9"/>
      <path d="M132.55585,20.90332h-1.30957l-.30566,1.05859h-.71094l1.2793-3.91113h.81348l1.27441,3.91113h-.73633Zm-.15527-.54395-.1377-.47852c-.11914-.41309-.23926-.86133-.35254-1.292h-.02441c-.10742.43652-.2207.87891-.34668,1.292l-.1377.47852Z" fill="#ced2d9"/>
      <path d="M135.60077,17.97852a1.533,1.533,0,0,1,1.1123.49609l-.38281.43066a.99555.99555,0,0,0-.72363-.32227c-.64062,0-1.10059.53809-1.10059,1.417,0,.8916.4248,1.42969,1.07617,1.42969a1.05851,1.05851,0,0,0,.8252-.38867l.38281.4248a1.55947,1.55947,0,0,1-1.21973.56836,1.79358,1.79358,0,0,1-1.77637-2.01562A1.83944,1.83944,0,0,1,135.60077,17.97852Z" fill="#ced2d9"/>
      <path d="M137.43085,18.05078h.69434v1.77637h.01758l1.39355-1.77637h.76563L139.0998,19.5752l1.40527,2.38672h-.76562l-1.05273-1.8418-.56152.69922v1.14258h-.69434Z" fill="#ced2d9"/>
      <path d="M142.21015,18.05078h.75977l.70605,1.92578.25684.74121h.02441l.25684-.74121.6875-1.92578h.76563v3.91113h-.65137V20.17383c0-.36523.05371-.88574.08984-1.24414h-.02441l-.31641.8916-.67578,1.77637h-.31738l-.67578-1.77637-.31152-.8916h-.02344c.0293.3584.084.87891.084,1.24414v1.78809h-.63477Z" fill="#ced2d9"/>
      <path d="M146.64863,18.05078h.69434v3.91113h-.69434Z" fill="#ced2d9"/>
      <path d="M149.006,19.94629l-1.041-1.89551h.77148l.43652.86719c.08984.17871.17383.36426.293.59766h.02441c.0957-.2334.17871-.41895.2627-.59766l.41309-.86719h.73535l-1.041,1.92578,1.11328,1.98535h-.77148l-.47852-.9209c-.10156-.20312-.19727-.40039-.31152-.63965h-.02344c-.10254.23926-.19824.43652-.29395.63965l-.46.9209h-.73535Z" fill="#ced2d9"/>
      <path d="M151.53534,18.05078h2.35059v.58594h-1.65625v.999H153.635v.58594h-1.40527V21.376h1.7168v.58594h-2.41113Z" fill="#ced2d9"/>
      <path d="M156.85956,21.96191l-.84375-1.53125h-.5918v1.53125h-.69434V18.05078h1.31641c.81348,0,1.44141.28711,1.44141,1.16016a1.09325,1.09325,0,0,1-.7832,1.11816l.93262,1.63281ZM155.424,19.88086h.5498c.53906,0,.82617-.22754.82617-.66992,0-.44922-.28711-.60449-.82617-.60449h-.5498Z" fill="#ced2d9"/>
    </g>
    <g>
      <path d="M121.0539,60.92285a1.52935,1.52935,0,0,1,1.1123.49609l-.38281.43066a.99647.99647,0,0,0-.72363-.32324c-.64062,0-1.10059.53809-1.10059,1.418,0,.89063.4248,1.42969,1.07617,1.42969a1.05851,1.05851,0,0,0,.8252-.38867l.38281.42383a1.55947,1.55947,0,0,1-1.21973.56836,1.79358,1.79358,0,0,1-1.77637-2.01562A1.83858,1.83858,0,0,1,121.0539,60.92285Z" fill="#c8e5bc"/>
      <path d="M122.47773,62.93262c0-1.2627.70605-2.00977,1.72852-2.00977,1.0166,0,1.72266.74707,1.72266,2.00977,0,1.26758-.70605,2.04492-1.72266,2.04492C123.18378,64.97754,122.47773,64.2002,122.47773,62.93262Zm2.73926,0c0-.874-.40039-1.40625-1.01074-1.40625-.61621,0-1.0166.53223-1.0166,1.40625,0,.87891.40039,1.44141,1.0166,1.44141C124.81659,64.374,125.217,63.81152,125.217,62.93262Z" fill="#c8e5bc"/>
      <path d="M126.70038,60.99414h.75977l.70605,1.92578.25684.74219h.02441l.25684-.74219.6875-1.92578h.76563v3.91211H129.506V63.11719c0-.36426.05371-.88477.08984-1.24414h-.02441l-.31641.8916-.67578,1.77637h-.31738l-.67578-1.77637-.31152-.8916h-.02344c.0293.35938.084.87988.084,1.24414v1.78906h-.63477Z" fill="#c8e5bc"/>
      <path d="M131.13788,60.99414h1.25c.80176,0,1.39453.24512,1.39453.96289a.85007.85007,0,0,1-.66992.84961v.02344a.90442.90442,0,0,1,.87891.92773c0,.7832-.64062,1.14844-1.502,1.14844h-1.35156Zm1.18457,1.62109c.5498,0,.77734-.209.77734-.57422,0-.35937-.251-.50879-.75977-.50879h-.50781v1.083Zm.0957,1.75293c.57422,0,.8916-.21582.8916-.6582,0-.40723-.31152-.59863-.8916-.59863h-.58594v1.25684Z" fill="#c8e5bc"/>
      <path d="M135.91718,60.99414h2.36328v.58594h-1.66895v1.10645h1.417v.58691h-1.417v1.63281h-.69434Z" fill="#c8e5bc"/>
      <path d="M138.94452,60.99414h.69434v3.91211h-.69434Z" fill="#c8e5bc"/>
      <path d="M140.61347,60.99414h.69434v3.32617h1.62109v.58594h-2.31543Z" fill="#c8e5bc"/>
      <path d="M143.67011,61.58008h-1.13086v-.58594h2.94922v.58594h-1.125v3.32617h-.69336Z" fill="#c8e5bc"/>
      <path d="M146.12812,60.99414h2.35059v.58594h-1.65625v.999h1.40527V63.165h-1.40527v1.15527h1.7168v.58594h-2.41113Z" fill="#c8e5bc"/>
      <path d="M151.45234,64.90625l-.84375-1.53125h-.5918v1.53125h-.69434V60.99414h1.31641c.81348,0,1.44141.28711,1.44141,1.16016a1.09413,1.09413,0,0,1-.78418,1.11914l.93359,1.63281Zm-1.43555-2.082h.5498c.53809,0,.8252-.22656.8252-.66992,0-.44824-.28711-.60352-.8252-.60352h-.5498Z" fill="#c8e5bc"/>
    </g>
    <g>
      <path d="M116.39472,167.49121c0-1.26172.70605-2.00977,1.72852-2.00977,1.0166,0,1.72266.748,1.72266,2.00977,0,1.26855-.70605,2.0459-1.72266,2.0459C117.10077,169.53711,116.39472,168.75977,116.39472,167.49121Zm2.73926,0c0-.873-.40039-1.40527-1.01074-1.40527-.61621,0-1.0166.53223-1.0166,1.40527,0,.87891.40039,1.44141,1.0166,1.44141C118.73359,168.93262,119.134,168.37012,119.134,167.49121Z" fill="#ced2d9"/>
      <path d="M120.59394,165.55371h.69336v2.249c0,.84863.32324,1.12988.7959,1.12988.47852,0,.80762-.28125.80762-1.12988v-2.249h.66992V167.748c0,1.28613-.57422,1.78906-1.47754,1.78906-.90918,0-1.48926-.50293-1.48926-1.78906Z" fill="#ced2d9"/>
      <path d="M125.30781,166.13965h-1.13086v-.58594h2.94922v.58594h-1.125v3.3252h-.69336Z" fill="#ced2d9"/>
      <path d="M127.76484,165.55371h1.31641c.85547,0,1.4834.29883,1.4834,1.208,0,.86719-.64648,1.26758-1.4834,1.26758h-.62207v1.43555h-.69434Zm1.25586,1.91992c.58691,0,.86133-.2334.86133-.71191,0-.49023-.293-.65234-.86133-.65234h-.56152v1.36426Z" fill="#ced2d9"/>
      <path d="M131.259,165.55371h.69336v2.249c0,.84863.32324,1.12988.7959,1.12988.47852,0,.80762-.28125.80762-1.12988v-2.249h.66992V167.748c0,1.28613-.57422,1.78906-1.47754,1.78906-.90918,0-1.48926-.50293-1.48926-1.78906Z" fill="#ced2d9"/>
      <path d="M135.97284,166.13965H134.842v-.58594h2.94922v.58594h-1.125v3.3252h-.69336Z" fill="#ced2d9"/>
      <path d="M139.65644,165.55371h.75977l.70605,1.92578.25684.74121h.02441l.25684-.74121.68848-1.92578h.76563v3.91113h-.65234v-1.78809c0-.36523.05371-.88574.08984-1.24414h-.02441l-.31641.8916-.67676,1.77637H141.218l-.67578-1.77637-.31152-.8916h-.02344c.0293.3584.083.87891.083,1.24414v1.78809h-.63379Z" fill="#ced2d9"/>
      <path d="M144.09491,165.55371h.69434v3.91113h-.69434Z" fill="#ced2d9"/>
      <path d="M146.45234,167.44922l-1.041-1.89551h.77148l.43652.86719c.08984.17871.17383.36426.293.59766h.02441c.0957-.2334.17969-.41895.2627-.59766l.41309-.86719h.73535l-1.04,1.92578,1.1123,1.98535h-.77148l-.47852-.9209c-.10254-.20312-.19824-.40039-.31152-.63965h-.02344c-.10156.23926-.19727.43652-.293.63965l-.46094.9209h-.73633Z" fill="#ced2d9"/>
      <path d="M148.98163,165.55371h2.35059v.58594H149.676v.999h1.40527v.58594H149.676v1.1543h1.7168v.58594h-2.41113Z" fill="#ced2d9"/>
      <path d="M154.30585,169.46484l-.84375-1.53125h-.5918v1.53125H152.176v-3.91113h1.31641c.81348,0,1.44141.28711,1.44141,1.16016a1.093,1.093,0,0,1-.78418,1.11816l.93359,1.63281Zm-1.43555-2.08105h.5498c.53809,0,.8252-.22754.8252-.66992,0-.44922-.28711-.60449-.8252-.60449h-.5498Z" fill="#ced2d9"/>
    </g>
    <g>
      <path d="M106.41718,125.5459a1.56045,1.56045,0,0,0,1.02246.44238c.43652,0,.68262-.19727.68262-.502,0-.32324-.252-.4248-.61035-.57422l-.53223-.2334a1.12127,1.12127,0,0,1-.79-1.041,1.18818,1.18818,0,0,1,1.31055-1.10059,1.73138,1.73138,0,0,1,1.208.49609l-.35937.44336a1.25818,1.25818,0,0,0-.84863-.335c-.37109,0-.61035.17285-.61035.46,0,.30566.29883.41895.62207.55078l.52637.2207a1.08859,1.08859,0,0,1,.78906,1.05957,1.24328,1.24328,0,0,1-1.40527,1.16016,2.01267,2.01267,0,0,1-1.40527-.57422Z" fill="#a5c5c9"/>
      <path d="M110.19745,123.19531h-1.13086v-.58594h2.94922v.58594h-1.125v3.3252h-.69336Z" fill="#a5c5c9"/>
      <path d="M114.2287,125.46191h-1.30957l-.30566,1.05859h-.71191l1.28027-3.91113h.81348l1.27441,3.91113h-.73535Zm-.15527-.54395-.1377-.47852c-.12012-.41309-.23926-.86133-.35254-1.292h-.02441c-.10742.43652-.22168.87891-.34668,1.292l-.1377.47852Z" fill="#a5c5c9"/>
      <path d="M116.2873,123.19531h-1.13086v-.58594h2.94922v.58594h-1.125v3.3252h-.69336Z" fill="#a5c5c9"/>
      <path d="M118.74531,122.60938h2.35059v.58594h-1.65625v.999h1.40527v.58594h-1.40527v1.1543h1.7168v.58594h-2.41113Z" fill="#a5c5c9"/>
      <path d="M122.64472,122.60938h.73633l.5498,1.96777c.126.44238.21.8252.34082,1.27344h.02441c.13184-.44824.2207-.83105.34668-1.27344l.54395-1.96777h.70605l-1.208,3.91113h-.8252Z" fill="#a5c5c9"/>
      <path d="M128.0705,125.46191h-1.30957l-.30566,1.05859h-.71191l1.28027-3.91113h.81348l1.27441,3.91113h-.73535Zm-.15527-.54395-.1377-.47852c-.12012-.41309-.23926-.86133-.35254-1.292h-.02441c-.10742.43652-.22168.87891-.34668,1.292l-.1377.47852Z" fill="#a5c5c9"/>
      <path d="M131.70722,126.52051l-.84375-1.53125h-.5918v1.53125h-.69434v-3.91113h1.31641c.81348,0,1.44141.28711,1.44141,1.16016a1.09325,1.09325,0,0,1-.7832,1.11816l.93262,1.63281Zm-1.43555-2.08105h.5498c.53906,0,.82617-.22754.82617-.66992,0-.44922-.28711-.60449-.82617-.60449h-.5498Z" fill="#a5c5c9"/>
      <path d="M133.14277,122.60938h.69434v3.91113h-.69434Z" fill="#a5c5c9"/>
      <path d="M136.62421,125.46191h-1.30957l-.30566,1.05859H134.298l1.2793-3.91113h.81348l1.27441,3.91113h-.73633Zm-.15527-.54395-.1377-.47852c-.11914-.41309-.23926-.86133-.35254-1.292h-.02441c-.10742.43652-.2207.87891-.34668,1.292l-.1377.47852Z" fill="#a5c5c9"/>
      <path d="M138.131,122.60938h1.25c.80176,0,1.39355.24512,1.39355.96289a.84805.84805,0,0,1-.66992.84863v.02441c.5625.0957.87988.40039.87988.92676,0,.78418-.63965,1.14844-1.501,1.14844H138.131Zm1.18457,1.62012c.55078,0,.77734-.209.77734-.57422,0-.3584-.251-.50781-.75977-.50781h-.50781v1.082Zm.0957,1.75293c.57422,0,.8916-.21484.8916-.6582,0-.40625-.31152-.59766-.8916-.59766h-.58594v1.25586Z" fill="#a5c5c9"/>
      <path d="M141.68476,122.60938h.69434v3.3252h1.62109v.58594h-2.31543Z" fill="#a5c5c9"/>
      <path d="M144.66913,122.60938h2.35059v.58594h-1.65625v.999h1.40527v.58594h-1.40527v1.1543h1.7168v.58594h-2.41113Z" fill="#a5c5c9"/>
      <path d="M149.08906,122.60938h2.36328v.58594h-1.66895v1.10645h1.417v.58594h-1.417v1.63281h-.69434Z" fill="#a5c5c9"/>
      <path d="M152.1164,122.60938h.69434v3.91113h-.69434Z" fill="#a5c5c9"/>
      <path d="M153.78534,122.60938h.69434v3.3252h1.62109v.58594h-2.31543Z" fill="#a5c5c9"/>
      <path d="M156.842,123.19531h-1.13086v-.58594h2.94922v.58594h-1.125v3.3252H156.842Z" fill="#a5c5c9"/>
      <path d="M159.3,122.60938h2.35059v.58594h-1.65625v.999h1.40527v.58594h-1.40527v1.1543h1.7168v.58594H159.3Z" fill="#a5c5c9"/>
      <path d="M164.62421,126.52051l-.84375-1.53125h-.5918v1.53125h-.69434v-3.91113h1.31641c.81348,0,1.44141.28711,1.44141,1.16016a1.093,1.093,0,0,1-.78418,1.11816l.93359,1.63281Zm-1.43555-2.08105h.5498c.53809,0,.8252-.22754.8252-.66992,0-.44922-.28711-.60449-.8252-.60449h-.5498Z" fill="#a5c5c9"/>
    </g>
  </g>
</svg>
