<svg xmlns="http://www.w3.org/2000/svg" xmlns:xlink="http://www.w3.org/1999/xlink" viewBox="0 0 800 150">
  <defs>
    <radialGradient id="a" cx="-407.98444" cy="-71.48074" r="6.60494" gradientTransform="translate(720.61988 141.22159) scale(0.78915)" gradientUnits="userSpaceOnUse">
      <stop offset="0" stop-color="#383838"/>
      <stop offset="0.03141" stop-color="#353535"/>
      <stop offset="0.39058" stop-color="#181818"/>
      <stop offset="0.70145" stop-color="#060606"/>
      <stop offset="0.92692"/>
    </radialGradient>
  </defs>
  <title>panelunit</title>
  <rect width="800" height="150" fill="#1a1a1a"/>
  <g>
    <rect x="38.34621" y="19.32157" width="725.98579" height="112.69816" fill="#ccc" stroke="#666" stroke-miterlimit="10" stroke-width="0.39369"/>
    <rect x="761.65379" y="15.35938" width="18.34621" height="118.81356" rx="1.3144" ry="1.3144" fill="#ccc" stroke="#666" stroke-miterlimit="10" stroke-width="0.39369"/>
  </g>
  <g>
    <rect x="70.40697" y="28.41845" width="128.27818" height="94.49554" rx="1.63043" ry="1.63043" fill="#1a1a1a"/>
    <rect x="203.08339" y="28.41845" width="128.27818" height="94.49554" rx="1.63043" ry="1.63043" fill="#1a1a1a"/>
    <rect x="334.76743" y="28.41845" width="128.27818" height="94.49554" rx="1.63043" ry="1.63043" fill="#1a1a1a"/>
    <rect x="466.91938" y="28.41845" width="128.27818" height="94.49554" rx="1.63043" ry="1.63043" fill="#1a1a1a"/>
    <rect x="598.83737" y="28.41845" width="128.27818" height="94.49554" rx="1.63043" ry="1.63043" fill="#1a1a1a"/>
  </g>
  <g>
    <g>
      <path d="M206.90039,31.39648H326.58545a.563.563,0,0,1,.563.563V49.4292a.56348.56348,0,0,1-.56348.56348H206.90039a.563.563,0,0,1-.563-.563V31.95947A.563.563,0,0,1,206.90039,31.39648Z" fill="#666"/>
      <path d="M326.58517,31.52152a.43815.43815,0,0,1,.43814.43814V49.4296a.43814.43814,0,0,1-.43814.43814H206.90062a.43814.43814,0,0,1-.43814-.43814V31.95966a.43815.43815,0,0,1,.43814-.43814H326.58517m0-.25H206.90062a.68891.68891,0,0,0-.68814.68814V49.4296a.68891.68891,0,0,0,.68814.68814H326.58517a.68891.68891,0,0,0,.68814-.68814V31.95966a.68891.68891,0,0,0-.68814-.68814Z" fill="#999"/>
    </g>
    <g>
      <path d="M338.81885,31.39648H355.415a.563.563,0,0,1,.563.563v37.564a.563.563,0,0,1-.563.563H338.81885a.56348.56348,0,0,1-.56348-.56348V31.96A.56348.56348,0,0,1,338.81885,31.39648Z" fill="#666"/>
      <path d="M355.41492,31.52152a.43814.43814,0,0,1,.43814.43813V69.52307a.43814.43814,0,0,1-.43814.43813H338.8186a.43811.43811,0,0,1-.43811-.43813V31.95965a.43811.43811,0,0,1,.43811-.43813h16.59631m0-.25H338.8186a.6889.6889,0,0,0-.68811.68813V69.52307a.6889.6889,0,0,0,.68811.68813h16.59631a.68891.68891,0,0,0,.68814-.68813V31.95965a.6889.6889,0,0,0-.68814-.68813Z" fill="#999"/>
    </g>
    <g>
      <path d="M359.34912,31.39648h78.624a.563.563,0,0,1,.563.563V69.52295a.56348.56348,0,0,1-.56348.56348H359.34912a.56348.56348,0,0,1-.56348-.56348V31.96A.56348.56348,0,0,1,359.34912,31.39648Z" fill="#666"/>
      <path d="M437.97287,31.52152a.43815.43815,0,0,1,.43814.43813V69.52307a.43815.43815,0,0,1-.43814.43813h-78.624a.43815.43815,0,0,1-.43814-.43813V31.95965a.43815.43815,0,0,1,.43814-.43813h78.624m0-.25h-78.624a.68891.68891,0,0,0-.68814.68813V69.52307a.68891.68891,0,0,0,.68814.68813h78.624a.68891.68891,0,0,0,.68814-.68813V31.95965a.68891.68891,0,0,0-.68814-.68813Z" fill="#999"/>
    </g>
    <g>
      <path d="M206.90039,51.49023H326.58545a.563.563,0,0,1,.563.563V69.52295a.56348.56348,0,0,1-.56348.56348H206.90088a.56348.56348,0,0,1-.56348-.56348V52.05322A.563.563,0,0,1,206.90039,51.49023Z" fill="#666"/>
      <path d="M326.58517,51.615a.43814.43814,0,0,1,.43814.43814V69.52307a.43815.43815,0,0,1-.43814.43814H206.90062a.43815.43815,0,0,1-.43814-.43814V52.05313a.43814.43814,0,0,1,.43814-.43814H326.58517m0-.25H206.90062a.68891.68891,0,0,0-.68814.68814V69.52307a.68891.68891,0,0,0,.68814.68814H326.58517a.68891.68891,0,0,0,.68814-.68814V52.05313a.68891.68891,0,0,0-.68814-.68814Z" fill="#999"/>
    </g>
    <g>
      <path d="M338.81885,84.688H355.415a.563.563,0,0,1,.563.563V98.353a.563.563,0,0,1-.563.563H338.81836a.563.563,0,0,1-.563-.563V85.25146A.56348.56348,0,0,1,338.81885,84.688Z" fill="#666"/>
      <path d="M355.41492,84.8129a.43814.43814,0,0,1,.43814.43813V98.35283a.43814.43814,0,0,1-.43814.43813H338.8186a.43811.43811,0,0,1-.43811-.43813V85.251a.43811.43811,0,0,1,.43811-.43813h16.59631m0-.25H338.8186a.68889.68889,0,0,0-.68811.68813V98.35283a.6889.6889,0,0,0,.68811.68813h16.59631a.68891.68891,0,0,0,.68814-.68813V85.251a.6889.6889,0,0,0-.68814-.68813Z" fill="#999"/>
    </g>
    <g>
      <path d="M338.81885,104.78125h16.5957a.56348.56348,0,0,1,.56348.56348v13.10156a.563.563,0,0,1-.563.563H338.81836a.563.563,0,0,1-.563-.563V105.34473A.56348.56348,0,0,1,338.81885,104.78125Z" fill="#666"/>
      <path d="M355.41492,104.90637a.43813.43813,0,0,1,.43814.43813V118.4463a.43814.43814,0,0,1-.43814.43813H338.8186a.43811.43811,0,0,1-.43811-.43813V105.3445a.43811.43811,0,0,1,.43811-.43813h16.59631m0-.25H338.8186a.68889.68889,0,0,0-.68811.68813V118.4463a.6889.6889,0,0,0,.68811.68813h16.59631a.68891.68891,0,0,0,.68814-.68813V105.3445a.6889.6889,0,0,0-.68814-.68813Z" fill="#999"/>
    </g>
    <g>
      <path d="M359.34912,84.688h16.5957a.56348.56348,0,0,1,.56348.56348V98.353a.563.563,0,0,1-.563.563H359.34863a.563.563,0,0,1-.563-.563V85.25146A.56348.56348,0,0,1,359.34912,84.688Z" fill="#666"/>
      <path d="M375.94522,84.8129a.43814.43814,0,0,1,.43814.43813V98.35283a.43814.43814,0,0,1-.43814.43813H359.34891a.43814.43814,0,0,1-.43814-.43813V85.251a.43814.43814,0,0,1,.43814-.43813h16.59631m0-.25H359.34891a.6889.6889,0,0,0-.68814.68813V98.35283a.68891.68891,0,0,0,.68814.68813h16.59631a.68891.68891,0,0,0,.68814-.68813V85.251a.6889.6889,0,0,0-.68814-.68813Z" fill="#999"/>
    </g>
    <g>
      <path d="M359.34912,104.78125h16.5957a.56348.56348,0,0,1,.56348.56348v13.10156a.563.563,0,0,1-.563.563H359.34863a.563.563,0,0,1-.563-.563V105.34473A.56348.56348,0,0,1,359.34912,104.78125Z" fill="#666"/>
      <path d="M375.94522,104.90637a.43813.43813,0,0,1,.43814.43813V118.4463a.43814.43814,0,0,1-.43814.43813H359.34891a.43814.43814,0,0,1-.43814-.43813V105.3445a.43813.43813,0,0,1,.43814-.43813h16.59631m0-.25H359.34891a.6889.6889,0,0,0-.68814.68813V118.4463a.68891.68891,0,0,0,.68814.68813h16.59631a.68891.68891,0,0,0,.68814-.68813V105.3445a.6889.6889,0,0,0-.68814-.68813Z" fill="#999"/>
    </g>
    <g>
      <path d="M421.37646,84.688h16.59668a.563.563,0,0,1,.563.563V98.35254a.56348.56348,0,0,1-.56348.56348H421.37646a.563.563,0,0,1-.563-.563V85.251A.563.563,0,0,1,421.37646,84.688Z" fill="#666"/>
      <path d="M437.97287,84.8129a.43814.43814,0,0,1,.43814.43813V98.35283a.43814.43814,0,0,1-.43814.43813H421.37656a.43811.43811,0,0,1-.43811-.43813V85.251a.43811.43811,0,0,1,.43811-.43813h16.59631m0-.25H421.37656a.68889.68889,0,0,0-.68811.68813V98.35283a.6889.6889,0,0,0,.68811.68813h16.59631a.68891.68891,0,0,0,.68814-.68813V85.251a.6889.6889,0,0,0-.68814-.68813Z" fill="#999"/>
    </g>
    <g>
      <path d="M421.37646,104.78125h16.59619a.56348.56348,0,0,1,.56348.56348V118.4458a.56348.56348,0,0,1-.56348.56348H421.37646a.563.563,0,0,1-.563-.563V105.34424A.563.563,0,0,1,421.37646,104.78125Z" fill="#666"/>
      <path d="M437.97287,104.90637a.43813.43813,0,0,1,.43814.43813V118.4463a.43814.43814,0,0,1-.43814.43813H421.37656a.43811.43811,0,0,1-.43811-.43813V105.3445a.43811.43811,0,0,1,.43811-.43813h16.59631m0-.25H421.37656a.68889.68889,0,0,0-.68811.68813V118.4463a.6889.6889,0,0,0,.68811.68813h16.59631a.68891.68891,0,0,0,.68814-.68813V105.3445a.6889.6889,0,0,0-.68814-.68813Z" fill="#999"/>
    </g>
    <g>
      <path d="M441.90674,84.688h16.59668a.563.563,0,0,1,.563.563V98.35254a.56348.56348,0,0,1-.56348.56348H441.90674a.563.563,0,0,1-.563-.563V85.251A.563.563,0,0,1,441.90674,84.688Z" fill="#666"/>
      <path d="M458.50317,84.8129a.43814.43814,0,0,1,.43814.43813V98.35283a.43814.43814,0,0,1-.43814.43813H441.90686a.43814.43814,0,0,1-.43814-.43813V85.251a.43814.43814,0,0,1,.43814-.43813h16.59631m0-.25H441.90686a.6889.6889,0,0,0-.68814.68813V98.35283a.68891.68891,0,0,0,.68814.68813h16.59631a.68891.68891,0,0,0,.68814-.68813V85.251a.6889.6889,0,0,0-.68814-.68813Z" fill="#999"/>
    </g>
    <g>
      <path d="M441.90674,104.78125h16.59619a.56348.56348,0,0,1,.56348.56348V118.4458a.56348.56348,0,0,1-.56348.56348H441.90674a.563.563,0,0,1-.563-.563V105.34424A.563.563,0,0,1,441.90674,104.78125Z" fill="#666"/>
      <path d="M458.50317,104.90637a.43813.43813,0,0,1,.43814.43813V118.4463a.43814.43814,0,0,1-.43814.43813H441.90686a.43814.43814,0,0,1-.43814-.43813V105.3445a.43813.43813,0,0,1,.43814-.43813h16.59631m0-.25H441.90686a.6889.6889,0,0,0-.68814.68813V118.4463a.68891.68891,0,0,0,.68814.68813h16.59631a.68891.68891,0,0,0,.68814-.68813V105.3445a.6889.6889,0,0,0-.68814-.68813Z" fill="#999"/>
    </g>
    <g>
      <path d="M379.89307,104.78125h37.54932a.56348.56348,0,0,1,.56348.56348V118.4458a.56348.56348,0,0,1-.56348.56348H379.89307a.563.563,0,0,1-.563-.563V105.34424A.563.563,0,0,1,379.89307,104.78125Z" fill="#666"/>
      <path d="M417.4426,104.90637a.43813.43813,0,0,1,.43814.43813V118.4463a.43814.43814,0,0,1-.43814.43813H379.893a.43811.43811,0,0,1-.43811-.43813V105.3445a.43811.43811,0,0,1,.43811-.43813H417.4426m0-.25H379.893a.68889.68889,0,0,0-.68811.68813V118.4463a.6889.6889,0,0,0,.68811.68813H417.4426a.68893.68893,0,0,0,.68814-.68813V105.3445a.68892.68892,0,0,0-.68814-.68813Z" fill="#999"/>
    </g>
    <g>
      <path d="M441.90674,31.39648h16.59668a.563.563,0,0,1,.563.563v37.564a.563.563,0,0,1-.563.563H441.90723a.56348.56348,0,0,1-.56348-.56348V31.95947A.563.563,0,0,1,441.90674,31.39648Z" fill="#666"/>
      <path d="M458.50317,31.52152a.43814.43814,0,0,1,.43814.43813V69.52307a.43814.43814,0,0,1-.43814.43813H441.90686a.43814.43814,0,0,1-.43814-.43813V31.95965a.43814.43814,0,0,1,.43814-.43813h16.59631m0-.25H441.90686a.6889.6889,0,0,0-.68814.68813V69.52307a.68891.68891,0,0,0,.68814.68813h16.59631a.68891.68891,0,0,0,.68814-.68813V31.95965a.6889.6889,0,0,0-.68814-.68813Z" fill="#999"/>
    </g>
    <g>
      <path d="M206.90039,100.41309H326.58545a.563.563,0,0,1,.563.563V118.4458a.56348.56348,0,0,1-.56348.56348H206.90088a.56348.56348,0,0,1-.56348-.56348V100.97607A.563.563,0,0,1,206.90039,100.41309Z" fill="#666"/>
      <path d="M326.58517,100.53822a.43814.43814,0,0,1,.43814.43813v17.47a.43815.43815,0,0,1-.43814.43814H206.90062a.43815.43815,0,0,1-.43814-.43814v-17.47a.43814.43814,0,0,1,.43814-.43813H326.58517m0-.25H206.90062a.6889.6889,0,0,0-.68814.68813v17.47a.68891.68891,0,0,0,.68814.68814H326.58517a.68891.68891,0,0,0,.68814-.68814v-17.47a.6889.6889,0,0,0-.68814-.68813Z" fill="#999"/>
    </g>
    <g>
      <path d="M206.90039,80.31982H326.58545a.563.563,0,0,1,.563.563V98.35254a.56348.56348,0,0,1-.56348.56348H206.90039a.563.563,0,0,1-.563-.563V80.88281A.563.563,0,0,1,206.90039,80.31982Z" fill="#666"/>
      <path d="M326.58517,80.44475a.43815.43815,0,0,1,.43814.43814V98.35283a.43815.43815,0,0,1-.43814.43814H206.90062a.43815.43815,0,0,1-.43814-.43814V80.88289a.43815.43815,0,0,1,.43814-.43814H326.58517m0-.25H206.90062a.68891.68891,0,0,0-.68814.68814V98.35283a.68891.68891,0,0,0,.68814.68814H326.58517a.68891.68891,0,0,0,.68814-.68814V80.88289a.68891.68891,0,0,0-.68814-.68814Z" fill="#999"/>
    </g>
    <g>
      <path d="M470.73633,31.39648H590.42139a.563.563,0,0,1,.563.563V49.4292a.56348.56348,0,0,1-.56348.56348H470.73633a.563.563,0,0,1-.563-.563V31.95947A.563.563,0,0,1,470.73633,31.39648Z" fill="#666"/>
      <path d="M590.42114,31.52152a.43815.43815,0,0,1,.43817.43814V49.4296a.43814.43814,0,0,1-.43817.43814H470.7366a.43811.43811,0,0,1-.43811-.43814V31.95966a.43812.43812,0,0,1,.43811-.43814H590.42114m0-.25H470.7366a.6889.6889,0,0,0-.68811.68814V49.4296a.6889.6889,0,0,0,.68811.68814H590.42114a.68893.68893,0,0,0,.68817-.68814V31.95966a.68893.68893,0,0,0-.68817-.68814Z" fill="#999"/>
    </g>
    <g>
      <path d="M470.73682,51.49023H590.42139a.563.563,0,0,1,.563.563V69.52295a.56348.56348,0,0,1-.56348.56348H470.73682a.56348.56348,0,0,1-.56348-.56348V52.05371A.56348.56348,0,0,1,470.73682,51.49023Z" fill="#666"/>
      <path d="M590.42114,51.615a.43814.43814,0,0,1,.43817.43814V69.52307a.43816.43816,0,0,1-.43817.43814H470.7366a.43813.43813,0,0,1-.43811-.43814V52.05313a.43811.43811,0,0,1,.43811-.43814H590.42114m0-.25H470.7366a.6889.6889,0,0,0-.68811.68814V69.52307a.6889.6889,0,0,0,.68811.68814H590.42114a.68893.68893,0,0,0,.68817-.68814V52.05313a.68893.68893,0,0,0-.68817-.68814Z" fill="#999"/>
    </g>
    <g>
      <path d="M470.73633,100.41309H590.4209a.56348.56348,0,0,1,.56348.56348V118.4458a.56348.56348,0,0,1-.56348.56348H470.73682a.56348.56348,0,0,1-.56348-.56348V100.97607A.563.563,0,0,1,470.73633,100.41309Z" fill="#666"/>
      <path d="M590.42114,100.53822a.43815.43815,0,0,1,.43817.43813v17.47a.43816.43816,0,0,1-.43817.43814H470.7366a.43813.43813,0,0,1-.43811-.43814v-17.47a.43811.43811,0,0,1,.43811-.43813H590.42114m0-.25H470.7366a.6889.6889,0,0,0-.68811.68813v17.47a.6889.6889,0,0,0,.68811.68814H590.42114a.68893.68893,0,0,0,.68817-.68814v-17.47a.68893.68893,0,0,0-.68817-.68813Z" fill="#999"/>
    </g>
    <g>
      <path d="M470.73633,80.31982H590.42139a.563.563,0,0,1,.563.563V98.35254a.56348.56348,0,0,1-.56348.56348H470.73633a.563.563,0,0,1-.563-.563V80.88281A.563.563,0,0,1,470.73633,80.31982Z" fill="#666"/>
      <path d="M590.42114,80.44475a.43816.43816,0,0,1,.43817.43814V98.35283a.43816.43816,0,0,1-.43817.43814H470.7366a.43813.43813,0,0,1-.43811-.43814V80.88289a.43813.43813,0,0,1,.43811-.43814H590.42114m0-.25H470.7366a.6889.6889,0,0,0-.68811.68814V98.35283a.6889.6889,0,0,0,.68811.68814H590.42114a.68893.68893,0,0,0,.68817-.68814V80.88289a.68893.68893,0,0,0-.68817-.68814Z" fill="#999"/>
    </g>
    <g>
      <path d="M602.6543,51.49023h58.53076a.563.563,0,0,1,.563.563V69.52344a.563.563,0,0,1-.563.563H602.6543a.5625.5625,0,0,1-.5625-.5625V52.05273A.5625.5625,0,0,1,602.6543,51.49023Z" fill="#666"/>
      <path d="M661.18512,51.615a.4381.4381,0,0,1,.43811.43814V69.52307a.4381.4381,0,0,1-.43811.43813H602.6546a.43814.43814,0,0,1-.43811-.43813V52.05313a.43814.43814,0,0,1,.43811-.43814h58.53052m0-.25H602.6546a.68889.68889,0,0,0-.68811.68814V69.52307a.68888.68888,0,0,0,.68811.68813h58.53052a.68888.68888,0,0,0,.68811-.68813V52.05313a.68889.68889,0,0,0-.68811-.68814Z" fill="#999"/>
    </g>
    <g>
      <path d="M663.80859,51.49023h58.53076a.563.563,0,0,1,.563.563V69.52295a.56348.56348,0,0,1-.56348.56348H663.80859a.56348.56348,0,0,1-.56348-.56348V52.05371A.56348.56348,0,0,1,663.80859,51.49023Z" fill="#666"/>
      <path d="M722.33917,51.615a.43814.43814,0,0,1,.43811.43814V69.52307a.43814.43814,0,0,1-.43811.43813H663.80865a.43815.43815,0,0,1-.43817-.43813V52.05313a.43815.43815,0,0,1,.43817-.43814h58.53052m0-.25H663.80865a.68894.68894,0,0,0-.68817.68814V69.52307a.68893.68893,0,0,0,.68817.68813h58.53052a.68888.68888,0,0,0,.68811-.68813V52.05313a.68889.68889,0,0,0-.68811-.68814Z" fill="#999"/>
    </g>
    <g>
      <path d="M602.6543,31.39648H722.33936a.563.563,0,0,1,.563.563V49.4292a.56348.56348,0,0,1-.56348.56348H602.65479a.563.563,0,0,1-.563-.563V31.959A.5625.5625,0,0,1,602.6543,31.39648Z" fill="#666"/>
      <path d="M722.33917,31.52152a.43814.43814,0,0,1,.43811.43814V49.4296a.43813.43813,0,0,1-.43811.43814H602.6546a.43813.43813,0,0,1-.43811-.43814V31.95966a.43814.43814,0,0,1,.43811-.43814H722.33917m0-.25H602.6546a.68888.68888,0,0,0-.68811.68814V49.4296a.68888.68888,0,0,0,.68811.68814H722.33917a.68888.68888,0,0,0,.68811-.68814V31.95966a.68888.68888,0,0,0-.68811-.68814Z" fill="#999"/>
    </g>
    <g>
      <path d="M602.6543,100.41309h78.624a.56348.56348,0,0,1,.56348.56348V118.4458a.56348.56348,0,0,1-.56348.56348h-78.623a.56348.56348,0,0,1-.56348-.56348V100.97559A.5625.5625,0,0,1,602.6543,100.41309Z" fill="#666"/>
      <path d="M681.27856,100.53822a.43814.43814,0,0,1,.43817.43813V118.4463a.43815.43815,0,0,1-.43817.43813h-78.624a.43813.43813,0,0,1-.43811-.43813V100.97636a.43813.43813,0,0,1,.43811-.43813h78.624m0-.25h-78.624a.68892.68892,0,0,0-.68811.68813V118.4463a.68892.68892,0,0,0,.68811.68813h78.624a.68894.68894,0,0,0,.68817-.68813V100.97636a.68894.68894,0,0,0-.68817-.68813Z" fill="#999"/>
    </g>
    <g>
      <rect x="683.33887" y="100.41309" width="19.0332" height="18.59619" rx="0.56348" ry="0.56348" fill="#666"/>
      <path d="M701.8089,100.53822a.43813.43813,0,0,1,.43811.43813V118.4463a.43814.43814,0,0,1-.43811.43813H683.9021a.43814.43814,0,0,1-.43811-.43813V100.97636a.43813.43813,0,0,1,.43811-.43813h17.9068m0-.25H683.9021a.68888.68888,0,0,0-.68811.68813V118.4463a.68888.68888,0,0,0,.68811.68813h17.9068a.68888.68888,0,0,0,.68811-.68813V100.97636a.68888.68888,0,0,0-.68811-.68813Z" fill="#999"/>
    </g>
    <g>
      <path d="M704.43213,100.41309h17.90674a.56348.56348,0,0,1,.56348.56348V118.4458a.56348.56348,0,0,1-.56348.56348H704.43262a.56348.56348,0,0,1-.56348-.56348V100.97607A.563.563,0,0,1,704.43213,100.41309Z" fill="#666"/>
      <path d="M722.33917,100.53822a.43813.43813,0,0,1,.43811.43813V118.4463a.43814.43814,0,0,1-.43811.43813h-17.9068a.43814.43814,0,0,1-.43811-.43813V100.97636a.43813.43813,0,0,1,.43811-.43813h17.9068m0-.25h-17.9068a.68888.68888,0,0,0-.68811.68813V118.4463a.68888.68888,0,0,0,.68811.68813h17.9068a.68888.68888,0,0,0,.68811-.68813V100.97636a.68888.68888,0,0,0-.68811-.68813Z" fill="#999"/>
    </g>
    <g>
      <path d="M602.6543,80.31982h58.53076a.563.563,0,0,1,.563.563V98.353a.563.563,0,0,1-.563.563H602.65479a.563.563,0,0,1-.563-.563V80.88232A.5625.5625,0,0,1,602.6543,80.31982Z" fill="#666"/>
      <path d="M661.18512,80.44476a.4381.4381,0,0,1,.43811.43813V98.35283a.4381.4381,0,0,1-.43811.43813H602.6546a.43814.43814,0,0,1-.43811-.43813V80.88289a.43814.43814,0,0,1,.43811-.43813h58.53052m0-.25H602.6546a.68888.68888,0,0,0-.68811.68813V98.35283a.68888.68888,0,0,0,.68811.68813h58.53052a.68888.68888,0,0,0,.68811-.68813V80.88289a.68888.68888,0,0,0-.68811-.68813Z" fill="#999"/>
    </g>
    <g>
      <path d="M663.80859,80.31982h58.53076a.563.563,0,0,1,.563.563V98.35254a.56348.56348,0,0,1-.56348.56348H663.80811a.563.563,0,0,1-.563-.563V80.8833A.56348.56348,0,0,1,663.80859,80.31982Z" fill="#666"/>
      <path d="M722.33917,80.44476a.43814.43814,0,0,1,.43811.43813V98.35283a.43814.43814,0,0,1-.43811.43813H663.80865a.43815.43815,0,0,1-.43817-.43813V80.88289a.43815.43815,0,0,1,.43817-.43813h58.53052m0-.25H663.80865a.68893.68893,0,0,0-.68817.68813V98.35283a.68893.68893,0,0,0,.68817.68813h58.53052a.68888.68888,0,0,0,.68811-.68813V80.88289a.68888.68888,0,0,0-.68811-.68813Z" fill="#999"/>
    </g>
    <g>
      <path d="M74.70361,31.39648H194.38867a.563.563,0,0,1,.563.563V49.4292a.56348.56348,0,0,1-.56348.56348H74.7041a.56348.56348,0,0,1-.56348-.56348V31.95947A.563.563,0,0,1,74.70361,31.39648Z" fill="#666"/>
      <path d="M194.38834,31.52152a.43813.43813,0,0,1,.43813.43814V49.4296a.43812.43812,0,0,1-.43813.43814H74.70377a.43813.43813,0,0,1-.43813-.43814V31.95966a.43814.43814,0,0,1,.43813-.43814H194.38834m0-.25H74.70377a.68891.68891,0,0,0-.68813.68814V49.4296a.68891.68891,0,0,0,.68813.68814H194.38834a.6889.6889,0,0,0,.68813-.68814V31.95966a.6889.6889,0,0,0-.68813-.68814Z" fill="#999"/>
    </g>
    <g>
      <path d="M74.7041,51.49023H194.38867a.563.563,0,0,1,.563.563V69.52295a.56348.56348,0,0,1-.56348.56348H74.7041a.56348.56348,0,0,1-.56348-.56348V52.05371A.56348.56348,0,0,1,74.7041,51.49023Z" fill="#666"/>
      <path d="M194.38834,51.615a.43812.43812,0,0,1,.43813.43814V69.52307a.43814.43814,0,0,1-.43813.43814H74.70377a.43814.43814,0,0,1-.43813-.43814V52.05313a.43813.43813,0,0,1,.43813-.43814H194.38834m0-.25H74.70377a.68891.68891,0,0,0-.68813.68814V69.52307a.68891.68891,0,0,0,.68813.68814H194.38834a.6889.6889,0,0,0,.68813-.68814V52.05313a.6889.6889,0,0,0-.68813-.68814Z" fill="#999"/>
    </g>
    <g>
      <path d="M74.70361,100.41309H194.38818a.56348.56348,0,0,1,.56348.56348V118.4458a.56348.56348,0,0,1-.56348.56348H74.7041a.56348.56348,0,0,1-.56348-.56348V100.97607A.563.563,0,0,1,74.70361,100.41309Z" fill="#666"/>
      <path d="M194.38834,100.53822a.43813.43813,0,0,1,.43813.43813v17.47a.43814.43814,0,0,1-.43813.43814H74.70377a.43814.43814,0,0,1-.43813-.43814v-17.47a.43813.43813,0,0,1,.43813-.43813H194.38834m0-.25H74.70377a.68891.68891,0,0,0-.68813.68813v17.47a.68891.68891,0,0,0,.68813.68814H194.38834a.6889.6889,0,0,0,.68813-.68814v-17.47a.6889.6889,0,0,0-.68813-.68813Z" fill="#999"/>
    </g>
    <g>
      <path d="M74.70361,80.31982H194.38867a.563.563,0,0,1,.563.563V98.35254a.56348.56348,0,0,1-.56348.56348H74.7041a.56348.56348,0,0,1-.56348-.56348V80.88281A.563.563,0,0,1,74.70361,80.31982Z" fill="#666"/>
      <path d="M194.38834,80.44475a.43814.43814,0,0,1,.43813.43814V98.35283a.43814.43814,0,0,1-.43813.43814H74.70377a.43814.43814,0,0,1-.43813-.43814V80.88289a.43814.43814,0,0,1,.43813-.43814H194.38834m0-.25H74.70377a.68891.68891,0,0,0-.68813.68814V98.35283a.68891.68891,0,0,0,.68813.68814H194.38834a.6889.6889,0,0,0,.68813-.68814V80.88289a.6889.6889,0,0,0-.68813-.68814Z" fill="#999"/>
    </g>
  </g>
  <g>
    <path d="M327.0233,35.88967H206.46249v-3.93a.43813.43813,0,0,1,.43813-.43813H326.58517a.43813.43813,0,0,1,.43813.43813Z" fill="#333"/>
    <path d="M327.0233,55.98314H206.46249v-3.93a.43813.43813,0,0,1,.43813-.43813H326.58517a.43813.43813,0,0,1,.43813.43813Z" fill="#333"/>
    <path d="M206.90062,100.53822H326.58517a.43813.43813,0,0,1,.43813.43813v3.93a0,0,0,0,1,0,0H206.46249a0,0,0,0,1,0,0v-3.93A.43813.43813,0,0,1,206.90062,100.53822Z" fill="#333"/>
    <path d="M206.90062,80.44475H326.58517a.43813.43813,0,0,1,.43813.43813v3.93a0,0,0,0,1,0,0H206.46249a0,0,0,0,1,0,0v-3.93A.43813.43813,0,0,1,206.90062,80.44475Z" fill="#333"/>
    <path d="M194.82647,35.88967H74.26565v-3.93a.43813.43813,0,0,1,.43813-.43813H194.38833a.43813.43813,0,0,1,.43813.43813Z" fill="#333"/>
    <path d="M194.82647,55.98314H74.26565v-3.93a.43813.43813,0,0,1,.43813-.43813H194.38833a.43813.43813,0,0,1,.43813.43813Z" fill="#333"/>
    <path d="M74.70378,100.53822H194.38833a.43813.43813,0,0,1,.43813.43813v3.93a0,0,0,0,1,0,0H74.26565a0,0,0,0,1,0,0v-3.93A.43813.43813,0,0,1,74.70378,100.53822Z" fill="#333"/>
    <path d="M74.70378,80.44475H194.38833a.43813.43813,0,0,1,.43813.43813v3.93a0,0,0,0,1,0,0H74.26565a0,0,0,0,1,0,0v-3.93A.43813.43813,0,0,1,74.70378,80.44475Z" fill="#333"/>
    <path d="M470.73661,31.52152H590.42116a.43813.43813,0,0,1,.43813.43813v3.93a0,0,0,0,1,0,0H470.29848a0,0,0,0,1,0,0v-3.93A.43813.43813,0,0,1,470.73661,31.52152Z" fill="#333"/>
    <path d="M470.73661,51.615H590.42116a.43813.43813,0,0,1,.43813.43813v3.93a0,0,0,0,1,0,0H470.29848a0,0,0,0,1,0,0v-3.93A.43813.43813,0,0,1,470.73661,51.615Z" fill="#333"/>
    <path d="M470.73661,100.53822H590.42116a.43813.43813,0,0,1,.43813.43813v3.93a0,0,0,0,1,0,0H470.29848a0,0,0,0,1,0,0v-3.93A.43813.43813,0,0,1,470.73661,100.53822Z" fill="#333"/>
    <path d="M470.73661,80.44475H590.42116a.43813.43813,0,0,1,.43813.43813v3.93a0,0,0,0,1,0,0H470.29848a0,0,0,0,1,0,0v-3.93A.43813.43813,0,0,1,470.73661,80.44475Z" fill="#333"/>
    <path d="M602.65461,51.615h58.53051a.43813.43813,0,0,1,.43813.43813v3.93a0,0,0,0,1,0,0H602.21647a0,0,0,0,1,0,0v-3.93A.43813.43813,0,0,1,602.65461,51.615Z" fill="#333"/>
    <path d="M663.80865,51.615h58.53051a.43813.43813,0,0,1,.43813.43813v3.93a0,0,0,0,1,0,0H663.37051a0,0,0,0,1,0,0v-3.93A.43813.43813,0,0,1,663.80865,51.615Z" fill="#333"/>
    <path d="M602.65461,31.52152H722.33916a.43813.43813,0,0,1,.43813.43813v3.93a0,0,0,0,1,0,0H602.21647a0,0,0,0,1,0,0v-3.93A.43813.43813,0,0,1,602.65461,31.52152Z" fill="#333"/>
    <path d="M602.65461,100.53822h78.624a.43813.43813,0,0,1,.43813.43813v3.93a0,0,0,0,1,0,0H602.21647a0,0,0,0,1,0,0v-3.93A.43813.43813,0,0,1,602.65461,100.53822Z" fill="#333"/>
    <path d="M683.90212,100.53822h17.90676a.43813.43813,0,0,1,.43813.43813v3.93a0,0,0,0,1,0,0H683.464a0,0,0,0,1,0,0v-3.93A.43813.43813,0,0,1,683.90212,100.53822Z" fill="#333"/>
    <path d="M704.4324,100.53822h17.90676a.43813.43813,0,0,1,.43813.43813v3.93a0,0,0,0,1,0,0h-18.783a0,0,0,0,1,0,0v-3.93A.43813.43813,0,0,1,704.4324,100.53822Z" fill="#333"/>
    <path d="M602.65461,80.44475h58.53051a.43813.43813,0,0,1,.43813.43813v3.93a0,0,0,0,1,0,0H602.21647a0,0,0,0,1,0,0v-3.93A.43813.43813,0,0,1,602.65461,80.44475Z" fill="#333"/>
    <path d="M663.80865,80.44475h58.53051a.43813.43813,0,0,1,.43813.43813v3.93a0,0,0,0,1,0,0H663.37051a0,0,0,0,1,0,0v-3.93A.43813.43813,0,0,1,663.80865,80.44475Z" fill="#333"/>
  </g>
  <rect x="20" y="15.82706" width="18.34621" height="118.81356" rx="1.3144" ry="1.3144" fill="#ccc" stroke="#666" stroke-miterlimit="10" stroke-width="0.39369"/>
  <g>
    <rect x="214.32515" y="38.94737" width="10.48355" height="4.36815" rx="1" ry="1" fill="#ccc" stroke="#000" stroke-miterlimit="10" stroke-width="0.1"/>
    <rect x="234.41862" y="38.94737" width="10.48355" height="4.36815" rx="1" ry="1" fill="#ccc" stroke="#000" stroke-miterlimit="10" stroke-width="0.1"/>
    <rect x="253.63846" y="38.94737" width="10.48355" height="4.36815" rx="1" ry="1" fill="#ccc" stroke="#000" stroke-miterlimit="10" stroke-width="0.1"/>
    <rect x="273.73193" y="38.94737" width="10.48355" height="4.36815" rx="1" ry="1" fill="#ccc" stroke="#000" stroke-miterlimit="10" stroke-width="0.1"/>
    <rect x="292.95475" y="38.94737" width="10.48355" height="4.36815" rx="1" ry="1" fill="#ccc" stroke="#000" stroke-miterlimit="10" stroke-width="0.1"/>
    <rect x="313.04524" y="38.94737" width="10.48355" height="4.36815" rx="1" ry="1" fill="#ccc" stroke="#000" stroke-miterlimit="10" stroke-width="0.1"/>
    <rect x="214.32515" y="59.04084" width="10.48355" height="4.36815" rx="1" ry="1" fill="#ccc" stroke="#000" stroke-miterlimit="10" stroke-width="0.1"/>
    <rect x="234.41862" y="59.04084" width="10.48355" height="4.36815" rx="1" ry="1" fill="#ccc" stroke="#000" stroke-miterlimit="10" stroke-width="0.1"/>
    <rect x="253.63846" y="59.04084" width="10.48355" height="4.36815" rx="1" ry="1" fill="#ccc" stroke="#000" stroke-miterlimit="10" stroke-width="0.1"/>
    <rect x="273.73193" y="59.04084" width="10.48355" height="4.36815" rx="1" ry="1" fill="#ccc" stroke="#000" stroke-miterlimit="10" stroke-width="0.1"/>
    <rect x="292.95475" y="59.04084" width="10.48355" height="4.36815" rx="1" ry="1" fill="#ccc" stroke="#000" stroke-miterlimit="10" stroke-width="0.1"/>
    <rect x="313.04524" y="59.04084" width="10.48355" height="4.36815" rx="1" ry="1" fill="#ccc" stroke="#000" stroke-miterlimit="10" stroke-width="0.1"/>
    <rect x="341.875" y="38.94737" width="10.48355" height="4.36815" rx="1" ry="1" fill="#ccc" stroke="#000" stroke-miterlimit="10" stroke-width="0.1"/>
    <rect x="341.875" y="59.04084" width="10.48355" height="4.36815" rx="1" ry="1" fill="#ccc" stroke="#000" stroke-miterlimit="10" stroke-width="0.1"/>
    <rect x="341.875" y="87.8706" width="10.48355" height="4.36815" rx="1" ry="1" fill="#ccc" stroke="#000" stroke-miterlimit="10" stroke-width="0.1"/>
    <rect x="341.875" y="107.96407" width="10.48355" height="4.36815" rx="1" ry="1" fill="#ccc" stroke="#000" stroke-miterlimit="10" stroke-width="0.1"/>
    <rect x="362.40528" y="87.8706" width="10.48355" height="4.36815" rx="1" ry="1" fill="#ccc" stroke="#000" stroke-miterlimit="10" stroke-width="0.1"/>
    <rect x="362.40528" y="107.96407" width="10.48355" height="4.36815" rx="1" ry="1" fill="#ccc" stroke="#000" stroke-miterlimit="10" stroke-width="0.1"/>
    <rect x="424.43295" y="87.8706" width="10.48355" height="4.36815" rx="1" ry="1" fill="#ccc" stroke="#000" stroke-miterlimit="10" stroke-width="0.1"/>
    <rect x="424.43295" y="107.96407" width="10.48355" height="4.36815" rx="1" ry="1" fill="#ccc" stroke="#000" stroke-miterlimit="10" stroke-width="0.1"/>
    <rect x="444.96323" y="87.8706" width="10.48355" height="4.36815" rx="1" ry="1" fill="#ccc" stroke="#000" stroke-miterlimit="10" stroke-width="0.1"/>
    <rect x="444.96323" y="107.96407" width="10.48355" height="4.36815" rx="1" ry="1" fill="#ccc" stroke="#000" stroke-miterlimit="10" stroke-width="0.1"/>
    <rect x="382.93557" y="107.96407" width="10.48355" height="4.36815" rx="1" ry="1" fill="#ccc" stroke="#000" stroke-miterlimit="10" stroke-width="0.1"/>
    <rect x="403.90267" y="107.96407" width="10.48355" height="4.36815" rx="1" ry="1" fill="#ccc" stroke="#000" stroke-miterlimit="10" stroke-width="0.1"/>
    <rect x="362.8421" y="59.04084" width="10.48355" height="4.36815" rx="1" ry="1" fill="#ccc" stroke="#000" stroke-miterlimit="10" stroke-width="0.1"/>
    <rect x="382.93557" y="59.04084" width="10.48355" height="4.36815" rx="1" ry="1" fill="#ccc" stroke="#000" stroke-miterlimit="10" stroke-width="0.1"/>
    <rect x="403.90267" y="59.04084" width="10.48355" height="4.36815" rx="1" ry="1" fill="#ccc" stroke="#000" stroke-miterlimit="10" stroke-width="0.1"/>
    <rect x="423.99614" y="59.04084" width="10.48355" height="4.36815" rx="1" ry="1" fill="#ccc" stroke="#000" stroke-miterlimit="10" stroke-width="0.1"/>
    <rect x="444.96323" y="38.94737" width="10.48355" height="4.36815" rx="1" ry="1" fill="#ccc" stroke="#000" stroke-miterlimit="10" stroke-width="0.1"/>
    <rect x="444.96323" y="59.04084" width="10.48355" height="4.36815" rx="1" ry="1" fill="#ccc" stroke="#000" stroke-miterlimit="10" stroke-width="0.1"/>
    <rect x="214.32515" y="107.96407" width="10.48355" height="4.36815" rx="1" ry="1" fill="#ccc" stroke="#000" stroke-miterlimit="10" stroke-width="0.1"/>
    <rect x="234.41862" y="107.96407" width="10.48355" height="4.36815" rx="1" ry="1" fill="#ccc" stroke="#000" stroke-miterlimit="10" stroke-width="0.1"/>
    <rect x="253.63846" y="107.96407" width="10.48355" height="4.36815" rx="1" ry="1" fill="#ccc" stroke="#000" stroke-miterlimit="10" stroke-width="0.1"/>
    <rect x="273.73193" y="107.96407" width="10.48355" height="4.36815" rx="1" ry="1" fill="#ccc" stroke="#000" stroke-miterlimit="10" stroke-width="0.1"/>
    <rect x="292.95475" y="107.96407" width="10.48355" height="4.36815" rx="1" ry="1" fill="#ccc" stroke="#000" stroke-miterlimit="10" stroke-width="0.1"/>
    <rect x="313.04524" y="107.96407" width="10.48355" height="4.36815" rx="1" ry="1" fill="#ccc" stroke="#000" stroke-miterlimit="10" stroke-width="0.1"/>
    <rect x="214.32515" y="87.8706" width="10.48355" height="4.36815" rx="1" ry="1" fill="#ccc" stroke="#000" stroke-miterlimit="10" stroke-width="0.1"/>
    <rect x="234.41862" y="87.8706" width="10.48355" height="4.36815" rx="1" ry="1" fill="#ccc" stroke="#000" stroke-miterlimit="10" stroke-width="0.1"/>
    <rect x="253.63846" y="87.8706" width="10.48355" height="4.36815" rx="1" ry="1" fill="#ccc" stroke="#000" stroke-miterlimit="10" stroke-width="0.1"/>
    <rect x="273.73193" y="87.8706" width="10.48355" height="4.36815" rx="1" ry="1" fill="#ccc" stroke="#000" stroke-miterlimit="10" stroke-width="0.1"/>
    <rect x="292.95475" y="87.8706" width="10.48355" height="4.36815" rx="1" ry="1" fill="#ccc" stroke="#000" stroke-miterlimit="10" stroke-width="0.1"/>
    <rect x="313.04524" y="87.8706" width="10.48355" height="4.36815" rx="1" ry="1" fill="#ccc" stroke="#000" stroke-miterlimit="10" stroke-width="0.1"/>
    <rect x="478.16114" y="38.94737" width="10.48355" height="4.36815" rx="1" ry="1" fill="#ccc" stroke="#000" stroke-miterlimit="10" stroke-width="0.1"/>
    <rect x="498.25461" y="38.94737" width="10.48355" height="4.36815" rx="1" ry="1" fill="#ccc" stroke="#000" stroke-miterlimit="10" stroke-width="0.1"/>
    <rect x="517.47445" y="38.94737" width="10.48355" height="4.36815" rx="1" ry="1" fill="#ccc" stroke="#000" stroke-miterlimit="10" stroke-width="0.1"/>
    <rect x="537.56792" y="38.94737" width="10.48355" height="4.36815" rx="1" ry="1" fill="#ccc" stroke="#000" stroke-miterlimit="10" stroke-width="0.1"/>
    <rect x="556.79074" y="38.94737" width="10.48355" height="4.36815" rx="1" ry="1" fill="#ccc" stroke="#000" stroke-miterlimit="10" stroke-width="0.1"/>
    <rect x="576.88123" y="38.94737" width="10.48355" height="4.36815" rx="1" ry="1" fill="#ccc" stroke="#000" stroke-miterlimit="10" stroke-width="0.1"/>
    <rect x="478.16114" y="59.04084" width="10.48355" height="4.36815" rx="1" ry="1" fill="#ccc" stroke="#000" stroke-miterlimit="10" stroke-width="0.1"/>
    <rect x="498.25461" y="59.04084" width="10.48355" height="4.36815" rx="1" ry="1" fill="#ccc" stroke="#000" stroke-miterlimit="10" stroke-width="0.1"/>
    <rect x="517.47445" y="59.04084" width="10.48355" height="4.36815" rx="1" ry="1" fill="#ccc" stroke="#000" stroke-miterlimit="10" stroke-width="0.1"/>
    <rect x="537.56792" y="59.04084" width="10.48355" height="4.36815" rx="1" ry="1" fill="#ccc" stroke="#000" stroke-miterlimit="10" stroke-width="0.1"/>
    <rect x="556.79074" y="59.04084" width="10.48355" height="4.36815" rx="1" ry="1" fill="#ccc" stroke="#000" stroke-miterlimit="10" stroke-width="0.1"/>
    <rect x="576.88123" y="59.04084" width="10.48355" height="4.36815" rx="1" ry="1" fill="#ccc" stroke="#000" stroke-miterlimit="10" stroke-width="0.1"/>
    <rect x="478.16114" y="107.96407" width="10.48355" height="4.36815" rx="1" ry="1" fill="#ccc" stroke="#000" stroke-miterlimit="10" stroke-width="0.1"/>
    <rect x="498.25461" y="107.96407" width="10.48355" height="4.36815" rx="1" ry="1" fill="#ccc" stroke="#000" stroke-miterlimit="10" stroke-width="0.1"/>
    <rect x="517.47445" y="107.96407" width="10.48355" height="4.36815" rx="1" ry="1" fill="#ccc" stroke="#000" stroke-miterlimit="10" stroke-width="0.1"/>
    <rect x="537.56792" y="107.96407" width="10.48355" height="4.36815" rx="1" ry="1" fill="#ccc" stroke="#000" stroke-miterlimit="10" stroke-width="0.1"/>
    <rect x="556.79074" y="107.96407" width="10.48355" height="4.36815" rx="1" ry="1" fill="#ccc" stroke="#000" stroke-miterlimit="10" stroke-width="0.1"/>
    <rect x="576.88123" y="107.96407" width="10.48355" height="4.36815" rx="1" ry="1" fill="#ccc" stroke="#000" stroke-miterlimit="10" stroke-width="0.1"/>
    <rect x="478.16114" y="87.8706" width="10.48355" height="4.36815" rx="1" ry="1" fill="#ccc" stroke="#000" stroke-miterlimit="10" stroke-width="0.1"/>
    <rect x="498.25461" y="87.8706" width="10.48355" height="4.36815" rx="1" ry="1" fill="#ccc" stroke="#000" stroke-miterlimit="10" stroke-width="0.1"/>
    <rect x="517.47445" y="87.8706" width="10.48355" height="4.36815" rx="1" ry="1" fill="#ccc" stroke="#000" stroke-miterlimit="10" stroke-width="0.1"/>
    <rect x="537.56792" y="87.8706" width="10.48355" height="4.36815" rx="1" ry="1" fill="#ccc" stroke="#000" stroke-miterlimit="10" stroke-width="0.1"/>
    <rect x="556.79074" y="87.8706" width="10.48355" height="4.36815" rx="1" ry="1" fill="#ccc" stroke="#000" stroke-miterlimit="10" stroke-width="0.1"/>
    <rect x="576.88123" y="87.8706" width="10.48355" height="4.36815" rx="1" ry="1" fill="#ccc" stroke="#000" stroke-miterlimit="10" stroke-width="0.1"/>
    <rect x="610.07914" y="59.04084" width="10.48355" height="4.36815" rx="1" ry="1" fill="#ccc" stroke="#000" stroke-miterlimit="10" stroke-width="0.1"/>
    <rect x="630.17261" y="59.04084" width="10.48355" height="4.36815" rx="1" ry="1" fill="#ccc" stroke="#000" stroke-miterlimit="10" stroke-width="0.1"/>
    <rect x="649.39245" y="59.04084" width="10.48355" height="4.36815" rx="1" ry="1" fill="#ccc" stroke="#000" stroke-miterlimit="10" stroke-width="0.1"/>
    <rect x="669.48592" y="59.04084" width="10.48355" height="4.36815" rx="1" ry="1" fill="#ccc" stroke="#000" stroke-miterlimit="10" stroke-width="0.1"/>
    <rect x="688.70874" y="59.04084" width="10.48355" height="4.36815" rx="1" ry="1" fill="#ccc" stroke="#000" stroke-miterlimit="10" stroke-width="0.1"/>
    <rect x="708.79923" y="59.04084" width="10.48355" height="4.36815" rx="1" ry="1" fill="#ccc" stroke="#000" stroke-miterlimit="10" stroke-width="0.1"/>
    <rect x="610.07914" y="38.94737" width="10.48355" height="4.36815" rx="1" ry="1" fill="#ccc" stroke="#000" stroke-miterlimit="10" stroke-width="0.1"/>
    <rect x="630.17261" y="38.94737" width="10.48355" height="4.36815" rx="1" ry="1" fill="#ccc" stroke="#000" stroke-miterlimit="10" stroke-width="0.1"/>
    <rect x="649.39245" y="38.94737" width="10.48355" height="4.36815" rx="1" ry="1" fill="#ccc" stroke="#000" stroke-miterlimit="10" stroke-width="0.1"/>
    <rect x="669.48592" y="38.94737" width="10.48355" height="4.36815" rx="1" ry="1" fill="#ccc" stroke="#000" stroke-miterlimit="10" stroke-width="0.1"/>
    <rect x="688.70874" y="38.94737" width="10.48355" height="4.36815" rx="1" ry="1" fill="#ccc" stroke="#000" stroke-miterlimit="10" stroke-width="0.1"/>
    <rect x="708.79923" y="38.94737" width="10.48355" height="4.36815" rx="1" ry="1" fill="#ccc" stroke="#000" stroke-miterlimit="10" stroke-width="0.1"/>
    <rect x="610.07914" y="107.96407" width="10.48355" height="4.36815" rx="1" ry="1" fill="#ccc" stroke="#000" stroke-miterlimit="10" stroke-width="0.1"/>
    <rect x="630.17261" y="107.96407" width="10.48355" height="4.36815" rx="1" ry="1" fill="#ccc" stroke="#000" stroke-miterlimit="10" stroke-width="0.1"/>
    <rect x="649.39245" y="107.96407" width="10.48355" height="4.36815" rx="1" ry="1" fill="#ccc" stroke="#000" stroke-miterlimit="10" stroke-width="0.1"/>
    <rect x="669.48592" y="107.96407" width="10.48355" height="4.36815" rx="1" ry="1" fill="#ccc" stroke="#000" stroke-miterlimit="10" stroke-width="0.1"/>
    <rect x="688.70874" y="107.96407" width="10.48355" height="4.36815" rx="1" ry="1" fill="#ccc" stroke="#000" stroke-miterlimit="10" stroke-width="0.1"/>
    <rect x="708.79923" y="107.96407" width="10.48355" height="4.36815" rx="1" ry="1" fill="#ccc" stroke="#000" stroke-miterlimit="10" stroke-width="0.1"/>
    <rect x="610.07914" y="87.8706" width="10.48355" height="4.36815" rx="1" ry="1" fill="#ccc" stroke="#000" stroke-miterlimit="10" stroke-width="0.1"/>
    <rect x="630.17261" y="87.8706" width="10.48355" height="4.36815" rx="1" ry="1" fill="#ccc" stroke="#000" stroke-miterlimit="10" stroke-width="0.1"/>
    <rect x="649.39245" y="87.8706" width="10.48355" height="4.36815" rx="1" ry="1" fill="#ccc" stroke="#000" stroke-miterlimit="10" stroke-width="0.1"/>
    <rect x="669.48592" y="87.8706" width="10.48355" height="4.36815" rx="1" ry="1" fill="#ccc" stroke="#000" stroke-miterlimit="10" stroke-width="0.1"/>
    <rect x="688.70874" y="87.8706" width="10.48355" height="4.36815" rx="1" ry="1" fill="#ccc" stroke="#000" stroke-miterlimit="10" stroke-width="0.1"/>
    <rect x="708.79923" y="87.8706" width="10.48355" height="4.36815" rx="1" ry="1" fill="#ccc" stroke="#000" stroke-miterlimit="10" stroke-width="0.1"/>
    <rect x="82.12831" y="38.94737" width="10.48355" height="4.36815" rx="1" ry="1" fill="#ccc" stroke="#000" stroke-miterlimit="10" stroke-width="0.1"/>
    <rect x="102.22178" y="38.94737" width="10.48355" height="4.36815" rx="1" ry="1" fill="#ccc" stroke="#000" stroke-miterlimit="10" stroke-width="0.1"/>
    <rect x="121.44162" y="38.94737" width="10.48355" height="4.36815" rx="1" ry="1" fill="#ccc" stroke="#000" stroke-miterlimit="10" stroke-width="0.1"/>
    <rect x="141.53509" y="38.94737" width="10.48355" height="4.36815" rx="1" ry="1" fill="#ccc" stroke="#000" stroke-miterlimit="10" stroke-width="0.1"/>
    <rect x="160.75791" y="38.94737" width="10.48355" height="4.36815" rx="1" ry="1" fill="#ccc" stroke="#000" stroke-miterlimit="10" stroke-width="0.1"/>
    <rect x="180.8484" y="38.94737" width="10.48355" height="4.36815" rx="1" ry="1" fill="#ccc" stroke="#000" stroke-miterlimit="10" stroke-width="0.1"/>
    <rect x="82.12831" y="59.04084" width="10.48355" height="4.36815" rx="1" ry="1" fill="#ccc" stroke="#000" stroke-miterlimit="10" stroke-width="0.1"/>
    <rect x="102.22178" y="59.04084" width="10.48355" height="4.36815" rx="1" ry="1" fill="#ccc" stroke="#000" stroke-miterlimit="10" stroke-width="0.1"/>
    <rect x="121.44162" y="59.04084" width="10.48355" height="4.36815" rx="1" ry="1" fill="#ccc" stroke="#000" stroke-miterlimit="10" stroke-width="0.1"/>
    <rect x="141.53509" y="59.04084" width="10.48355" height="4.36815" rx="1" ry="1" fill="#ccc" stroke="#000" stroke-miterlimit="10" stroke-width="0.1"/>
    <rect x="160.75791" y="59.04084" width="10.48355" height="4.36815" rx="1" ry="1" fill="#ccc" stroke="#000" stroke-miterlimit="10" stroke-width="0.1"/>
    <rect x="180.8484" y="59.04084" width="10.48355" height="4.36815" rx="1" ry="1" fill="#ccc" stroke="#000" stroke-miterlimit="10" stroke-width="0.1"/>
    <rect x="82.12831" y="107.96407" width="10.48355" height="4.36815" rx="1" ry="1" fill="#ccc" stroke="#000" stroke-miterlimit="10" stroke-width="0.1"/>
    <rect x="102.22178" y="107.96407" width="10.48355" height="4.36815" rx="1" ry="1" fill="#ccc" stroke="#000" stroke-miterlimit="10" stroke-width="0.1"/>
    <rect x="121.44162" y="107.96407" width="10.48355" height="4.36815" rx="1" ry="1" fill="#ccc" stroke="#000" stroke-miterlimit="10" stroke-width="0.1"/>
    <rect x="141.53509" y="107.96407" width="10.48355" height="4.36815" rx="1" ry="1" fill="#ccc" stroke="#000" stroke-miterlimit="10" stroke-width="0.1"/>
    <rect x="160.75791" y="107.96407" width="10.48355" height="4.36815" rx="1" ry="1" fill="#ccc" stroke="#000" stroke-miterlimit="10" stroke-width="0.1"/>
    <rect x="180.8484" y="107.96407" width="10.48355" height="4.36815" rx="1" ry="1" fill="#ccc" stroke="#000" stroke-miterlimit="10" stroke-width="0.1"/>
    <rect x="82.12831" y="87.8706" width="10.48355" height="4.36815" rx="1" ry="1" fill="#ccc" stroke="#000" stroke-miterlimit="10" stroke-width="0.1"/>
    <rect x="102.22178" y="87.8706" width="10.48355" height="4.36815" rx="1" ry="1" fill="#ccc" stroke="#000" stroke-miterlimit="10" stroke-width="0.1"/>
    <rect x="121.44162" y="87.8706" width="10.48355" height="4.36815" rx="1" ry="1" fill="#ccc" stroke="#000" stroke-miterlimit="10" stroke-width="0.1"/>
    <rect x="141.53509" y="87.8706" width="10.48355" height="4.36815" rx="1" ry="1" fill="#ccc" stroke="#000" stroke-miterlimit="10" stroke-width="0.1"/>
    <rect x="160.75791" y="87.8706" width="10.48355" height="4.36815" rx="1" ry="1" fill="#ccc" stroke="#000" stroke-miterlimit="10" stroke-width="0.1"/>
    <rect x="180.8484" y="87.8706" width="10.48355" height="4.36815" rx="1" ry="1" fill="#ccc" stroke="#000" stroke-miterlimit="10" stroke-width="0.1"/>
  </g>
  <g>
    <g>
      <circle cx="230.92419" cy="41.09277" r="1.36023" fill="gray"/>
      <path d="M230.9241,39.78231a1.31044,1.31044,0,1,1-1.31044,1.31044,1.31044,1.31044,0,0,1,1.31044-1.31044m0-.1a1.41044,1.41044,0,1,0,1.41045,1.41044,1.412,1.412,0,0,0-1.41045-1.41044Z"/>
    </g>
    <g>
      <circle cx="250.14404" cy="41.09277" r="1.36035" fill="gray"/>
      <path d="M250.14394,39.78231a1.31044,1.31044,0,1,1-1.31044,1.31044,1.31045,1.31045,0,0,1,1.31044-1.31044m0-.1a1.41044,1.41044,0,1,0,1.41046,1.41044,1.412,1.412,0,0,0-1.41046-1.41044Z"/>
    </g>
    <g>
      <circle cx="270.2373" cy="41.09277" r="1.36035" fill="gray"/>
      <path d="M270.2374,39.78231a1.31044,1.31044,0,1,1-1.31042,1.31044,1.31044,1.31044,0,0,1,1.31042-1.31044m0-.1a1.41044,1.41044,0,1,0,1.41046,1.41044,1.412,1.412,0,0,0-1.41046-1.41044Z"/>
    </g>
    <g>
      <circle cx="289.45715" cy="41.09277" r="1.36023" fill="gray"/>
      <path d="M289.45724,39.78231a1.31044,1.31044,0,1,1-1.31042,1.31044,1.31044,1.31044,0,0,1,1.31042-1.31044m0-.1a1.41044,1.41044,0,1,0,1.41046,1.41044,1.412,1.412,0,0,0-1.41046-1.41044Z"/>
    </g>
    <g>
      <circle cx="309.55078" cy="41.09277" r="1.36035" fill="gray"/>
      <path d="M309.55072,39.78231a1.31044,1.31044,0,1,1-1.31046,1.31044,1.31046,1.31046,0,0,1,1.31046-1.31044m0-.1a1.41044,1.41044,0,1,0,1.41046,1.41044,1.412,1.412,0,0,0-1.41046-1.41044Z"/>
    </g>
    <g>
      <circle cx="230.92419" cy="61.18616" r="1.36011" fill="gray"/>
      <path d="M230.9241,59.87578a1.31044,1.31044,0,1,1-1.31044,1.31044,1.31044,1.31044,0,0,1,1.31044-1.31044m0-.1a1.41044,1.41044,0,1,0,1.41045,1.41044,1.412,1.412,0,0,0-1.41045-1.41044Z"/>
    </g>
    <g>
      <circle cx="250.14404" cy="61.18616" r="1.36023" fill="gray"/>
      <path d="M250.14394,59.87578a1.31044,1.31044,0,1,1-1.31044,1.31044,1.31045,1.31045,0,0,1,1.31044-1.31044m0-.1a1.41044,1.41044,0,1,0,1.41046,1.41044,1.412,1.412,0,0,0-1.41046-1.41044Z"/>
    </g>
    <g>
      <circle cx="270.2373" cy="61.18616" r="1.36023" fill="gray"/>
      <path d="M270.2374,59.87578a1.31044,1.31044,0,1,1-1.31042,1.31044,1.31044,1.31044,0,0,1,1.31042-1.31044m0-.1a1.41044,1.41044,0,1,0,1.41046,1.41044,1.412,1.412,0,0,0-1.41046-1.41044Z"/>
    </g>
    <g>
      <circle cx="289.45715" cy="61.18616" r="1.36011" fill="gray"/>
      <path d="M289.45724,59.87578a1.31044,1.31044,0,1,1-1.31042,1.31044,1.31044,1.31044,0,0,1,1.31042-1.31044m0-.1a1.41044,1.41044,0,1,0,1.41046,1.41044,1.412,1.412,0,0,0-1.41046-1.41044Z"/>
    </g>
    <g>
      <circle cx="309.55078" cy="61.18616" r="1.36023" fill="gray"/>
      <path d="M309.55072,59.87578a1.31044,1.31044,0,1,1-1.31046,1.31044,1.31046,1.31046,0,0,1,1.31046-1.31044m0-.1a1.41044,1.41044,0,1,0,1.41046,1.41044,1.412,1.412,0,0,0-1.41046-1.41044Z"/>
    </g>
    <g>
      <circle cx="210.83057" cy="110.14807" r="1.36023" fill="gray"/>
      <path d="M210.83063,108.8377a1.31044,1.31044,0,1,1-1.31044,1.31044,1.31044,1.31044,0,0,1,1.31044-1.31044m0-.1a1.41045,1.41045,0,1,0,1.41045,1.41045,1.412,1.412,0,0,0-1.41045-1.41045Z"/>
    </g>
    <g>
      <circle cx="230.92419" cy="110.10938" r="1.36023" fill="gray"/>
      <path d="M230.9241,108.799a1.31044,1.31044,0,1,1-1.31044,1.31045,1.31044,1.31044,0,0,1,1.31044-1.31045m0-.1a1.41045,1.41045,0,1,0,1.41045,1.41045,1.41205,1.41205,0,0,0-1.41045-1.41045Z"/>
    </g>
    <g>
      <circle cx="250.14404" cy="110.10938" r="1.36035" fill="gray"/>
      <path d="M250.14394,108.799a1.31044,1.31044,0,1,1-1.31044,1.31045,1.31046,1.31046,0,0,1,1.31044-1.31045m0-.1a1.41045,1.41045,0,1,0,1.41046,1.41045,1.41205,1.41205,0,0,0-1.41046-1.41045Z"/>
    </g>
    <g>
      <circle cx="270.2373" cy="110.10938" r="1.36035" fill="gray"/>
      <path d="M270.2374,108.799a1.31044,1.31044,0,1,1-1.31042,1.31045,1.31045,1.31045,0,0,1,1.31042-1.31045m0-.1a1.41045,1.41045,0,1,0,1.41046,1.41045,1.412,1.412,0,0,0-1.41046-1.41045Z"/>
    </g>
    <g>
      <circle cx="289.45715" cy="110.10938" r="1.36023" fill="gray"/>
      <path d="M289.45724,108.799a1.31044,1.31044,0,1,1-1.31042,1.31045,1.31045,1.31045,0,0,1,1.31042-1.31045m0-.1a1.41045,1.41045,0,1,0,1.41046,1.41045,1.412,1.412,0,0,0-1.41046-1.41045Z"/>
    </g>
    <g>
      <circle cx="309.55078" cy="110.10938" r="1.36035" fill="gray"/>
      <path d="M309.55072,108.799a1.31044,1.31044,0,1,1-1.31046,1.31045,1.31046,1.31046,0,0,1,1.31046-1.31045m0-.1a1.41045,1.41045,0,1,0,1.41046,1.41045,1.41205,1.41205,0,0,0-1.41046-1.41045Z"/>
    </g>
    <g>
      <circle cx="210.83057" cy="90.05469" r="1.36035" fill="gray"/>
      <path d="M210.83063,88.74423a1.31044,1.31044,0,1,1-1.31044,1.31044,1.31044,1.31044,0,0,1,1.31044-1.31044m0-.1a1.41045,1.41045,0,1,0,1.41045,1.41044,1.412,1.412,0,0,0-1.41045-1.41044Z"/>
    </g>
    <g>
      <circle cx="230.92419" cy="90.01611" r="1.36023" fill="gray"/>
      <path d="M230.9241,88.70554a1.31044,1.31044,0,1,1-1.31044,1.31044,1.31044,1.31044,0,0,1,1.31044-1.31044m0-.1a1.41045,1.41045,0,1,0,1.41045,1.41044,1.412,1.412,0,0,0-1.41045-1.41044Z"/>
    </g>
    <g>
      <circle cx="250.14404" cy="90.01611" r="1.36035" fill="gray"/>
      <path d="M250.14394,88.70554A1.31044,1.31044,0,1,1,248.8335,90.016a1.31045,1.31045,0,0,1,1.31044-1.31044m0-.1A1.41045,1.41045,0,1,0,251.5544,90.016a1.412,1.412,0,0,0-1.41046-1.41044Z"/>
    </g>
    <g>
      <circle cx="270.2373" cy="90.01611" r="1.36035" fill="gray"/>
      <path d="M270.2374,88.70554A1.31044,1.31044,0,1,1,268.927,90.016a1.31044,1.31044,0,0,1,1.31042-1.31044m0-.1a1.41045,1.41045,0,1,0,1.41046,1.41044,1.412,1.412,0,0,0-1.41046-1.41044Z"/>
    </g>
    <g>
      <circle cx="289.45715" cy="90.01611" r="1.36023" fill="gray"/>
      <path d="M289.45724,88.70554a1.31044,1.31044,0,1,1-1.31042,1.31044,1.31044,1.31044,0,0,1,1.31042-1.31044m0-.1a1.41045,1.41045,0,1,0,1.41046,1.41044,1.412,1.412,0,0,0-1.41046-1.41044Z"/>
    </g>
    <g>
      <circle cx="309.55078" cy="90.01611" r="1.36035" fill="gray"/>
      <path d="M309.55072,88.70554a1.31044,1.31044,0,1,1-1.31046,1.31044,1.31046,1.31046,0,0,1,1.31046-1.31044m0-.1a1.41045,1.41045,0,1,0,1.41046,1.41044,1.412,1.412,0,0,0-1.41046-1.41044Z"/>
    </g>
    <g>
      <circle cx="474.6665" cy="41.13135" r="1.36035" fill="gray"/>
      <path d="M474.66663,39.821a1.31044,1.31044,0,1,1-1.31046,1.31044,1.31046,1.31046,0,0,1,1.31046-1.31044m0-.1a1.41044,1.41044,0,1,0,1.41046,1.41044,1.412,1.412,0,0,0-1.41046-1.41044Z"/>
    </g>
    <g>
      <circle cx="494.76013" cy="41.09277" r="1.36023" fill="gray"/>
      <path d="M494.7601,39.78231a1.31044,1.31044,0,1,1-1.31046,1.31044,1.31043,1.31043,0,0,1,1.31046-1.31044m0-.1a1.41044,1.41044,0,1,0,1.41043,1.41044,1.41206,1.41206,0,0,0-1.41043-1.41044Z"/>
    </g>
    <g>
      <circle cx="513.97961" cy="41.09277" r="1.36023" fill="gray"/>
      <path d="M513.97992,39.78231a1.31044,1.31044,0,1,1-1.31042,1.31044,1.31046,1.31046,0,0,1,1.31042-1.31044m0-.1a1.41044,1.41044,0,1,0,1.41046,1.41044,1.412,1.412,0,0,0-1.41046-1.41044Z"/>
    </g>
    <g>
      <circle cx="534.07324" cy="41.09277" r="1.36035" fill="gray"/>
      <path d="M534.07343,39.78231a1.31044,1.31044,0,1,1-1.31049,1.31044,1.31045,1.31045,0,0,1,1.31049-1.31044m0-.1a1.41044,1.41044,0,1,0,1.4104,1.41044,1.412,1.412,0,0,0-1.4104-1.41044Z"/>
    </g>
    <g>
      <circle cx="553.29297" cy="41.09277" r="1.36035" fill="gray"/>
      <path d="M553.29327,39.78231a1.31044,1.31044,0,1,1-1.31049,1.31044,1.31045,1.31045,0,0,1,1.31049-1.31044m0-.1a1.41044,1.41044,0,1,0,1.4104,1.41044,1.412,1.412,0,0,0-1.4104-1.41044Z"/>
    </g>
    <g>
      <circle cx="573.38672" cy="41.09277" r="1.36035" fill="gray"/>
      <path d="M573.38672,39.78231a1.31044,1.31044,0,1,1-1.31042,1.31044,1.31041,1.31041,0,0,1,1.31042-1.31044m0-.1a1.41044,1.41044,0,1,0,1.4104,1.41044,1.412,1.412,0,0,0-1.4104-1.41044Z"/>
    </g>
    <g>
      <circle cx="474.6665" cy="61.22498" r="1.36023" fill="gray"/>
      <path d="M474.66663,59.91447a1.31044,1.31044,0,1,1-1.31046,1.31044,1.31046,1.31046,0,0,1,1.31046-1.31044m0-.1a1.41044,1.41044,0,1,0,1.41046,1.41044,1.412,1.412,0,0,0-1.41046-1.41044Z"/>
    </g>
    <g>
      <circle cx="494.76013" cy="61.18616" r="1.36011" fill="gray"/>
      <path d="M494.7601,59.87578a1.31044,1.31044,0,1,1-1.31046,1.31044,1.31043,1.31043,0,0,1,1.31046-1.31044m0-.1a1.41044,1.41044,0,1,0,1.41043,1.41044,1.41206,1.41206,0,0,0-1.41043-1.41044Z"/>
    </g>
    <g>
      <circle cx="513.97961" cy="61.18616" r="1.36011" fill="gray"/>
      <path d="M513.97992,59.87578a1.31044,1.31044,0,1,1-1.31042,1.31044,1.31046,1.31046,0,0,1,1.31042-1.31044m0-.1a1.41044,1.41044,0,1,0,1.41046,1.41044,1.412,1.412,0,0,0-1.41046-1.41044Z"/>
    </g>
    <g>
      <circle cx="534.07324" cy="61.18616" r="1.36023" fill="gray"/>
      <path d="M534.07343,59.87578a1.31044,1.31044,0,1,1-1.31049,1.31044,1.31045,1.31045,0,0,1,1.31049-1.31044m0-.1a1.41044,1.41044,0,1,0,1.4104,1.41044,1.412,1.412,0,0,0-1.4104-1.41044Z"/>
    </g>
    <g>
      <circle cx="553.29297" cy="61.18616" r="1.36023" fill="gray"/>
      <path d="M553.29327,59.87578a1.31044,1.31044,0,1,1-1.31049,1.31044,1.31045,1.31045,0,0,1,1.31049-1.31044m0-.1a1.41044,1.41044,0,1,0,1.4104,1.41044,1.412,1.412,0,0,0-1.4104-1.41044Z"/>
    </g>
    <g>
      <circle cx="573.38672" cy="61.18616" r="1.36023" fill="gray"/>
      <path d="M573.38672,59.87578a1.31044,1.31044,0,1,1-1.31042,1.31044,1.31041,1.31041,0,0,1,1.31042-1.31044m0-.1a1.41044,1.41044,0,1,0,1.4104,1.41044,1.412,1.412,0,0,0-1.4104-1.41044Z"/>
    </g>
    <g>
      <circle cx="474.6665" cy="110.14807" r="1.36023" fill="gray"/>
      <path d="M474.66663,108.8377a1.31044,1.31044,0,1,1-1.31046,1.31044,1.31046,1.31046,0,0,1,1.31046-1.31044m0-.1a1.41045,1.41045,0,1,0,1.41046,1.41045,1.412,1.412,0,0,0-1.41046-1.41045Z"/>
    </g>
    <g>
      <circle cx="494.76013" cy="110.10938" r="1.36023" fill="gray"/>
      <path d="M494.7601,108.799a1.31044,1.31044,0,1,1-1.31046,1.31045,1.31044,1.31044,0,0,1,1.31046-1.31045m0-.1a1.41045,1.41045,0,1,0,1.41043,1.41045,1.41207,1.41207,0,0,0-1.41043-1.41045Z"/>
    </g>
    <g>
      <circle cx="513.97961" cy="110.10938" r="1.36023" fill="gray"/>
      <path d="M513.97992,108.799a1.31044,1.31044,0,1,1-1.31042,1.31045,1.31047,1.31047,0,0,1,1.31042-1.31045m0-.1a1.41045,1.41045,0,1,0,1.41046,1.41045,1.412,1.412,0,0,0-1.41046-1.41045Z"/>
    </g>
    <g>
      <circle cx="534.07324" cy="110.10938" r="1.36035" fill="gray"/>
      <path d="M534.07343,108.799a1.31044,1.31044,0,1,1-1.31049,1.31045,1.31046,1.31046,0,0,1,1.31049-1.31045m0-.1a1.41045,1.41045,0,1,0,1.4104,1.41045,1.412,1.412,0,0,0-1.4104-1.41045Z"/>
    </g>
    <g>
      <circle cx="553.29297" cy="110.10938" r="1.36035" fill="gray"/>
      <path d="M553.29327,108.799a1.31044,1.31044,0,1,1-1.31049,1.31045,1.31046,1.31046,0,0,1,1.31049-1.31045m0-.1a1.41045,1.41045,0,1,0,1.4104,1.41045,1.412,1.412,0,0,0-1.4104-1.41045Z"/>
    </g>
    <g>
      <circle cx="573.38672" cy="110.10938" r="1.36035" fill="gray"/>
      <path d="M573.38672,108.799a1.31044,1.31044,0,1,1-1.31042,1.31045,1.31042,1.31042,0,0,1,1.31042-1.31045m0-.1a1.41045,1.41045,0,1,0,1.4104,1.41045,1.412,1.412,0,0,0-1.4104-1.41045Z"/>
    </g>
    <g>
      <circle cx="474.6665" cy="90.05469" r="1.36035" fill="gray"/>
      <path d="M474.66663,88.74423a1.31044,1.31044,0,1,1-1.31046,1.31044,1.31046,1.31046,0,0,1,1.31046-1.31044m0-.1a1.41045,1.41045,0,1,0,1.41046,1.41044,1.412,1.412,0,0,0-1.41046-1.41044Z"/>
    </g>
    <g>
      <circle cx="494.76013" cy="90.01611" r="1.36023" fill="gray"/>
      <path d="M494.7601,88.70554a1.31044,1.31044,0,1,1-1.31046,1.31044,1.31044,1.31044,0,0,1,1.31046-1.31044m0-.1a1.41045,1.41045,0,1,0,1.41043,1.41044,1.41206,1.41206,0,0,0-1.41043-1.41044Z"/>
    </g>
    <g>
      <circle cx="513.97961" cy="90.01611" r="1.36023" fill="gray"/>
      <path d="M513.97992,88.70554a1.31044,1.31044,0,1,1-1.31042,1.31044,1.31047,1.31047,0,0,1,1.31042-1.31044m0-.1a1.41045,1.41045,0,1,0,1.41046,1.41044,1.412,1.412,0,0,0-1.41046-1.41044Z"/>
    </g>
    <g>
      <circle cx="534.07324" cy="90.01611" r="1.36035" fill="gray"/>
      <path d="M534.07343,88.70554a1.31044,1.31044,0,1,1-1.31049,1.31044,1.31046,1.31046,0,0,1,1.31049-1.31044m0-.1a1.41045,1.41045,0,1,0,1.4104,1.41044,1.412,1.412,0,0,0-1.4104-1.41044Z"/>
    </g>
    <g>
      <circle cx="553.29297" cy="90.01611" r="1.36035" fill="gray"/>
      <path d="M553.29327,88.70554a1.31044,1.31044,0,1,1-1.31049,1.31044,1.31046,1.31046,0,0,1,1.31049-1.31044m0-.1a1.41045,1.41045,0,1,0,1.4104,1.41044,1.412,1.412,0,0,0-1.4104-1.41044Z"/>
    </g>
    <g>
      <circle cx="573.38672" cy="90.01611" r="1.36035" fill="gray"/>
      <path d="M573.38672,88.70554a1.31044,1.31044,0,1,1-1.31042,1.31044,1.31042,1.31042,0,0,1,1.31042-1.31044m0-.1a1.41045,1.41045,0,1,0,1.4104,1.41044,1.412,1.412,0,0,0-1.4104-1.41044Z"/>
    </g>
    <g>
      <circle cx="606.58496" cy="61.22498" r="1.36023" fill="gray"/>
      <path d="M606.58459,59.91447a1.31044,1.31044,0,1,1-1.31042,1.31044,1.31046,1.31046,0,0,1,1.31042-1.31044m0-.1a1.41044,1.41044,0,1,0,1.41046,1.41044,1.412,1.412,0,0,0-1.41046-1.41044Z"/>
    </g>
    <g>
      <circle cx="626.67773" cy="61.18616" r="1.36023" fill="gray"/>
      <path d="M626.6781,59.87578a1.31044,1.31044,0,1,1-1.31042,1.31044,1.31041,1.31041,0,0,1,1.31042-1.31044m0-.1a1.41044,1.41044,0,1,0,1.4104,1.41044,1.412,1.412,0,0,0-1.4104-1.41044Z"/>
    </g>
    <g>
      <circle cx="645.89771" cy="61.18616" r="1.35999" fill="gray"/>
      <path d="M645.89795,59.87578a1.31044,1.31044,0,1,1-1.31049,1.31044,1.31045,1.31045,0,0,1,1.31049-1.31044m0-.1a1.41044,1.41044,0,1,0,1.4104,1.41044,1.412,1.412,0,0,0-1.4104-1.41044Z"/>
    </g>
    <g>
      <circle cx="665.99121" cy="61.18616" r="1.36023" fill="gray"/>
      <path d="M665.99139,59.87578a1.31044,1.31044,0,1,1-1.31042,1.31044,1.31041,1.31041,0,0,1,1.31042-1.31044m0-.1a1.41044,1.41044,0,1,0,1.4104,1.41044,1.412,1.412,0,0,0-1.4104-1.41044Z"/>
    </g>
    <g>
      <circle cx="685.21094" cy="61.18616" r="1.36023" fill="gray"/>
      <path d="M685.21124,59.87578a1.31044,1.31044,0,1,1-1.31042,1.31044,1.31041,1.31041,0,0,1,1.31042-1.31044m0-.1a1.41044,1.41044,0,1,0,1.4104,1.41044,1.412,1.412,0,0,0-1.4104-1.41044Z"/>
    </g>
    <g>
      <circle cx="705.30469" cy="61.18616" r="1.36023" fill="gray"/>
      <path d="M705.30469,59.87578a1.31044,1.31044,0,1,1-1.31042,1.31044,1.31046,1.31046,0,0,1,1.31042-1.31044m0-.1a1.41044,1.41044,0,1,0,1.41046,1.41044,1.412,1.412,0,0,0-1.41046-1.41044Z"/>
    </g>
    <g>
      <circle cx="606.58496" cy="41.13135" r="1.36035" fill="gray"/>
      <path d="M606.58459,39.821a1.31044,1.31044,0,1,1-1.31042,1.31044,1.31046,1.31046,0,0,1,1.31042-1.31044m0-.1a1.41044,1.41044,0,1,0,1.41046,1.41044,1.412,1.412,0,0,0-1.41046-1.41044Z"/>
    </g>
    <g>
      <circle cx="626.67773" cy="41.09277" r="1.36035" fill="gray"/>
      <path d="M626.6781,39.78231a1.31044,1.31044,0,1,1-1.31042,1.31044,1.31041,1.31041,0,0,1,1.31042-1.31044m0-.1a1.41044,1.41044,0,1,0,1.4104,1.41044,1.412,1.412,0,0,0-1.4104-1.41044Z"/>
    </g>
    <g>
      <circle cx="645.89771" cy="41.09277" r="1.36011" fill="gray"/>
      <path d="M645.89795,39.78231a1.31044,1.31044,0,1,1-1.31049,1.31044,1.31045,1.31045,0,0,1,1.31049-1.31044m0-.1a1.41044,1.41044,0,1,0,1.4104,1.41044,1.412,1.412,0,0,0-1.4104-1.41044Z"/>
    </g>
    <g>
      <circle cx="665.99121" cy="41.09277" r="1.36035" fill="gray"/>
      <path d="M665.99139,39.78231a1.31044,1.31044,0,1,1-1.31042,1.31044,1.31041,1.31041,0,0,1,1.31042-1.31044m0-.1a1.41044,1.41044,0,1,0,1.4104,1.41044,1.412,1.412,0,0,0-1.4104-1.41044Z"/>
    </g>
    <g>
      <circle cx="685.21094" cy="41.09277" r="1.36035" fill="gray"/>
      <path d="M685.21124,39.78231a1.31044,1.31044,0,1,1-1.31042,1.31044,1.31041,1.31041,0,0,1,1.31042-1.31044m0-.1a1.41044,1.41044,0,1,0,1.4104,1.41044,1.412,1.412,0,0,0-1.4104-1.41044Z"/>
    </g>
    <g>
      <circle cx="705.30469" cy="41.09277" r="1.36035" fill="gray"/>
      <path d="M705.30469,39.78231a1.31044,1.31044,0,1,1-1.31042,1.31044,1.31046,1.31046,0,0,1,1.31042-1.31044m0-.1a1.41044,1.41044,0,1,0,1.41046,1.41044,1.412,1.412,0,0,0-1.41046-1.41044Z"/>
    </g>
    <g>
      <circle cx="626.67773" cy="110.10938" r="1.36035" fill="gray"/>
      <path d="M626.6781,108.799a1.31044,1.31044,0,1,1-1.31042,1.31045,1.31042,1.31042,0,0,1,1.31042-1.31045m0-.1a1.41045,1.41045,0,1,0,1.4104,1.41045,1.412,1.412,0,0,0-1.4104-1.41045Z"/>
    </g>
    <g>
      <circle cx="645.89771" cy="110.10938" r="1.36011" fill="gray"/>
      <path d="M645.89795,108.799a1.31044,1.31044,0,1,1-1.31049,1.31045,1.31046,1.31046,0,0,1,1.31049-1.31045m0-.1a1.41045,1.41045,0,1,0,1.4104,1.41045,1.412,1.412,0,0,0-1.4104-1.41045Z"/>
    </g>
    <g>
      <circle cx="665.99121" cy="110.10938" r="1.36035" fill="gray"/>
      <path d="M665.99139,108.799a1.31044,1.31044,0,1,1-1.31042,1.31045,1.31042,1.31042,0,0,1,1.31042-1.31045m0-.1a1.41045,1.41045,0,1,0,1.4104,1.41045,1.412,1.412,0,0,0-1.4104-1.41045Z"/>
    </g>
    <g>
      <circle cx="686.08496" cy="110.10938" r="1.36035" fill="gray"/>
      <path d="M686.0849,108.799a1.31044,1.31044,0,1,1-1.31049,1.31045,1.31046,1.31046,0,0,1,1.31049-1.31045m0-.1a1.41045,1.41045,0,1,0,1.4104,1.41045,1.412,1.412,0,0,0-1.4104-1.41045Z"/>
    </g>
    <g>
      <circle cx="706.17871" cy="110.10938" r="1.36035" fill="gray"/>
      <path d="M706.17834,108.799a1.31044,1.31044,0,1,1-1.31042,1.31045,1.31042,1.31042,0,0,1,1.31042-1.31045m0-.1a1.41045,1.41045,0,1,0,1.4104,1.41045,1.412,1.412,0,0,0-1.4104-1.41045Z"/>
    </g>
    <g>
      <circle cx="606.58496" cy="90.05469" r="1.36035" fill="gray"/>
      <path d="M606.58459,88.74423a1.31044,1.31044,0,1,1-1.31042,1.31044,1.31046,1.31046,0,0,1,1.31042-1.31044m0-.1a1.41045,1.41045,0,1,0,1.41046,1.41044,1.412,1.412,0,0,0-1.41046-1.41044Z"/>
    </g>
    <g>
      <circle cx="626.67773" cy="90.01611" r="1.36035" fill="gray"/>
      <path d="M626.6781,88.70554a1.31044,1.31044,0,1,1-1.31042,1.31044,1.31042,1.31042,0,0,1,1.31042-1.31044m0-.1a1.41045,1.41045,0,1,0,1.4104,1.41044,1.412,1.412,0,0,0-1.4104-1.41044Z"/>
    </g>
    <g>
      <circle cx="645.89771" cy="90.01611" r="1.36011" fill="gray"/>
      <path d="M645.89795,88.70554a1.31044,1.31044,0,1,1-1.31049,1.31044,1.31046,1.31046,0,0,1,1.31049-1.31044m0-.1a1.41045,1.41045,0,1,0,1.4104,1.41044,1.412,1.412,0,0,0-1.4104-1.41044Z"/>
    </g>
    <g>
      <circle cx="665.99121" cy="90.01611" r="1.36035" fill="gray"/>
      <path d="M665.99139,88.70554A1.31044,1.31044,0,1,1,664.681,90.016a1.31042,1.31042,0,0,1,1.31042-1.31044m0-.1a1.41045,1.41045,0,1,0,1.4104,1.41044,1.412,1.412,0,0,0-1.4104-1.41044Z"/>
    </g>
    <g>
      <circle cx="685.21094" cy="90.01611" r="1.36035" fill="gray"/>
      <path d="M685.21124,88.70554a1.31044,1.31044,0,1,1-1.31042,1.31044,1.31042,1.31042,0,0,1,1.31042-1.31044m0-.1a1.41045,1.41045,0,1,0,1.4104,1.41044,1.412,1.412,0,0,0-1.4104-1.41044Z"/>
    </g>
    <g>
      <circle cx="705.30469" cy="90.01611" r="1.36035" fill="gray"/>
      <path d="M705.30469,88.70554a1.31044,1.31044,0,1,1-1.31042,1.31044,1.31047,1.31047,0,0,1,1.31042-1.31044m0-.1a1.41045,1.41045,0,1,0,1.41046,1.41044,1.412,1.412,0,0,0-1.41046-1.41044Z"/>
    </g>
    <g>
      <circle cx="210.83057" cy="61.22498" r="1.36023" fill="gray"/>
      <path d="M210.83063,59.91447a1.31044,1.31044,0,1,1-1.31044,1.31044,1.31044,1.31044,0,0,1,1.31044-1.31044m0-.1a1.41044,1.41044,0,1,0,1.41045,1.41044,1.412,1.412,0,0,0-1.41045-1.41044Z"/>
    </g>
    <g>
      <circle cx="606.58496" cy="110.14807" r="1.36023" fill="gray"/>
      <path d="M606.58459,108.8377a1.31044,1.31044,0,1,1-1.31042,1.31044,1.31047,1.31047,0,0,1,1.31042-1.31044m0-.1a1.41045,1.41045,0,1,0,1.41046,1.41045,1.412,1.412,0,0,0-1.41046-1.41045Z"/>
    </g>
    <g>
      <circle cx="210.83057" cy="41.13135" r="1.36035" fill="gray"/>
      <path d="M210.83063,39.821a1.31044,1.31044,0,1,1-1.31044,1.31044,1.31044,1.31044,0,0,1,1.31044-1.31044m0-.1a1.41044,1.41044,0,1,0,1.41045,1.41044,1.412,1.412,0,0,0-1.41045-1.41044Z"/>
    </g>
    <g>
      <circle cx="98.72717" cy="41.09277" r="1.36023" fill="gray"/>
      <path d="M98.72726,39.78231a1.31044,1.31044,0,1,1-1.31045,1.31044,1.31044,1.31044,0,0,1,1.31045-1.31044m0-.1a1.41044,1.41044,0,1,0,1.41044,1.41044,1.412,1.412,0,0,0-1.41044-1.41044Z"/>
    </g>
    <g>
      <circle cx="117.94714" cy="41.09277" r="1.36023" fill="gray"/>
      <path d="M117.94711,39.78231a1.31044,1.31044,0,1,1-1.31045,1.31044,1.31044,1.31044,0,0,1,1.31045-1.31044m0-.1a1.41044,1.41044,0,1,0,1.41045,1.41044,1.412,1.412,0,0,0-1.41045-1.41044Z"/>
    </g>
    <g>
      <circle cx="138.04053" cy="41.09277" r="1.36035" fill="gray"/>
      <path d="M138.04057,39.78231a1.31044,1.31044,0,1,1-1.31044,1.31044,1.31044,1.31044,0,0,1,1.31044-1.31044m0-.1a1.41044,1.41044,0,1,0,1.41045,1.41044,1.412,1.412,0,0,0-1.41045-1.41044Z"/>
    </g>
    <g>
      <circle cx="157.26038" cy="41.09277" r="1.36023" fill="gray"/>
      <path d="M157.26042,39.78231A1.31044,1.31044,0,1,1,155.95,41.09275a1.31045,1.31045,0,0,1,1.31046-1.31044m0-.1a1.41044,1.41044,0,1,0,1.41045,1.41044,1.412,1.412,0,0,0-1.41045-1.41044Z"/>
    </g>
    <g>
      <circle cx="177.354" cy="41.09277" r="1.36035" fill="gray"/>
      <path d="M177.35388,39.78231a1.31044,1.31044,0,1,1-1.31044,1.31044,1.31044,1.31044,0,0,1,1.31044-1.31044m0-.1a1.41044,1.41044,0,1,0,1.41045,1.41044,1.412,1.412,0,0,0-1.41045-1.41044Z"/>
    </g>
    <g>
      <circle cx="98.72717" cy="61.18616" r="1.36011" fill="gray"/>
      <path d="M98.72726,59.87578a1.31044,1.31044,0,1,1-1.31045,1.31044,1.31044,1.31044,0,0,1,1.31045-1.31044m0-.1a1.41044,1.41044,0,1,0,1.41044,1.41044,1.412,1.412,0,0,0-1.41044-1.41044Z"/>
    </g>
    <g>
      <circle cx="117.94714" cy="61.18616" r="1.36011" fill="gray"/>
      <path d="M117.94711,59.87578a1.31044,1.31044,0,1,1-1.31045,1.31044,1.31044,1.31044,0,0,1,1.31045-1.31044m0-.1a1.41044,1.41044,0,1,0,1.41045,1.41044,1.412,1.412,0,0,0-1.41045-1.41044Z"/>
    </g>
    <g>
      <circle cx="138.04053" cy="61.18616" r="1.36023" fill="gray"/>
      <path d="M138.04057,59.87578a1.31044,1.31044,0,1,1-1.31044,1.31044,1.31044,1.31044,0,0,1,1.31044-1.31044m0-.1a1.41044,1.41044,0,1,0,1.41045,1.41044,1.412,1.412,0,0,0-1.41045-1.41044Z"/>
    </g>
    <g>
      <circle cx="157.26038" cy="61.18616" r="1.36011" fill="gray"/>
      <path d="M157.26042,59.87578A1.31044,1.31044,0,1,1,155.95,61.18622a1.31045,1.31045,0,0,1,1.31046-1.31044m0-.1a1.41044,1.41044,0,1,0,1.41045,1.41044,1.412,1.412,0,0,0-1.41045-1.41044Z"/>
    </g>
    <g>
      <circle cx="177.354" cy="61.18616" r="1.36023" fill="gray"/>
      <path d="M177.35388,59.87578a1.31044,1.31044,0,1,1-1.31044,1.31044,1.31044,1.31044,0,0,1,1.31044-1.31044m0-.1a1.41044,1.41044,0,1,0,1.41045,1.41044,1.412,1.412,0,0,0-1.41045-1.41044Z"/>
    </g>
    <g>
      <circle cx="78.63379" cy="110.14807" r="1.36023" fill="gray"/>
      <path d="M78.6338,108.8377a1.31044,1.31044,0,1,1-1.31045,1.31044,1.31045,1.31045,0,0,1,1.31045-1.31044m0-.1a1.41045,1.41045,0,1,0,1.41045,1.41045,1.412,1.412,0,0,0-1.41045-1.41045Z"/>
    </g>
    <g>
      <circle cx="98.72717" cy="110.10938" r="1.36023" fill="gray"/>
      <path d="M98.72726,108.799a1.31044,1.31044,0,1,1-1.31045,1.31045,1.31044,1.31044,0,0,1,1.31045-1.31045m0-.1a1.41045,1.41045,0,1,0,1.41044,1.41045,1.41206,1.41206,0,0,0-1.41044-1.41045Z"/>
    </g>
    <g>
      <circle cx="117.94714" cy="110.10938" r="1.36023" fill="gray"/>
      <path d="M117.94711,108.799a1.31044,1.31044,0,1,1-1.31045,1.31045,1.31044,1.31044,0,0,1,1.31045-1.31045m0-.1a1.41045,1.41045,0,1,0,1.41045,1.41045,1.41206,1.41206,0,0,0-1.41045-1.41045Z"/>
    </g>
    <g>
      <circle cx="138.04053" cy="110.10938" r="1.36035" fill="gray"/>
      <path d="M138.04057,108.799a1.31044,1.31044,0,1,1-1.31044,1.31045,1.31044,1.31044,0,0,1,1.31044-1.31045m0-.1a1.41045,1.41045,0,1,0,1.41045,1.41045,1.41205,1.41205,0,0,0-1.41045-1.41045Z"/>
    </g>
    <g>
      <circle cx="157.26038" cy="110.10938" r="1.36023" fill="gray"/>
      <path d="M157.26042,108.799a1.31044,1.31044,0,1,1-1.31046,1.31045,1.31045,1.31045,0,0,1,1.31046-1.31045m0-.1a1.41045,1.41045,0,1,0,1.41045,1.41045,1.41206,1.41206,0,0,0-1.41045-1.41045Z"/>
    </g>
    <g>
      <circle cx="177.354" cy="110.10938" r="1.36035" fill="gray"/>
      <path d="M177.35388,108.799a1.31044,1.31044,0,1,1-1.31044,1.31045,1.31044,1.31044,0,0,1,1.31044-1.31045m0-.1a1.41045,1.41045,0,1,0,1.41045,1.41045,1.41205,1.41205,0,0,0-1.41045-1.41045Z"/>
    </g>
    <g>
      <circle cx="78.63379" cy="90.05469" r="1.36035" fill="gray"/>
      <path d="M78.6338,88.74423a1.31044,1.31044,0,1,1-1.31045,1.31044,1.31044,1.31044,0,0,1,1.31045-1.31044m0-.1a1.41045,1.41045,0,1,0,1.41045,1.41044,1.412,1.412,0,0,0-1.41045-1.41044Z"/>
    </g>
    <g>
      <circle cx="98.72717" cy="90.01611" r="1.36023" fill="gray"/>
      <path d="M98.72726,88.70554A1.31044,1.31044,0,1,1,97.41682,90.016a1.31044,1.31044,0,0,1,1.31045-1.31044m0-.1A1.41045,1.41045,0,1,0,100.1377,90.016a1.41205,1.41205,0,0,0-1.41044-1.41044Z"/>
    </g>
    <g>
      <circle cx="117.94714" cy="90.01611" r="1.36023" fill="gray"/>
      <path d="M117.94711,88.70554a1.31044,1.31044,0,1,1-1.31045,1.31044,1.31044,1.31044,0,0,1,1.31045-1.31044m0-.1a1.41045,1.41045,0,1,0,1.41045,1.41044,1.412,1.412,0,0,0-1.41045-1.41044Z"/>
    </g>
    <g>
      <circle cx="138.04053" cy="90.01611" r="1.36035" fill="gray"/>
      <path d="M138.04057,88.70554a1.31044,1.31044,0,1,1-1.31044,1.31044,1.31044,1.31044,0,0,1,1.31044-1.31044m0-.1A1.41045,1.41045,0,1,0,139.451,90.016a1.412,1.412,0,0,0-1.41045-1.41044Z"/>
    </g>
    <g>
      <circle cx="157.26038" cy="90.01611" r="1.36023" fill="gray"/>
      <path d="M157.26042,88.70554A1.31044,1.31044,0,1,1,155.95,90.016a1.31045,1.31045,0,0,1,1.31046-1.31044m0-.1a1.41045,1.41045,0,1,0,1.41045,1.41044,1.41205,1.41205,0,0,0-1.41045-1.41044Z"/>
    </g>
    <g>
      <circle cx="177.354" cy="90.01611" r="1.36035" fill="gray"/>
      <path d="M177.35388,88.70554a1.31044,1.31044,0,1,1-1.31044,1.31044,1.31044,1.31044,0,0,1,1.31044-1.31044m0-.1a1.41045,1.41045,0,1,0,1.41045,1.41044,1.412,1.412,0,0,0-1.41045-1.41044Z"/>
    </g>
    <g>
      <circle cx="78.63379" cy="61.22498" r="1.36023" fill="gray"/>
      <path d="M78.6338,59.91447a1.31044,1.31044,0,1,1-1.31045,1.31044,1.31044,1.31044,0,0,1,1.31045-1.31044m0-.1a1.41044,1.41044,0,1,0,1.41045,1.41044,1.412,1.412,0,0,0-1.41045-1.41044Z"/>
    </g>
    <g>
      <circle cx="78.63379" cy="41.13135" r="1.36035" fill="gray"/>
      <path d="M78.6338,39.821a1.31044,1.31044,0,1,1-1.31045,1.31044A1.31044,1.31044,0,0,1,78.6338,39.821m0-.1a1.41044,1.41044,0,1,0,1.41045,1.41044A1.412,1.412,0,0,0,78.6338,39.721Z"/>
    </g>
  </g>
  <g>
    <circle cx="398.66089" cy="84.8129" r="6.55222" stroke="#000" stroke-miterlimit="10" stroke-width="0.43813" fill="url(#a)"/>
    <g>
      <path d="M398.66113,92.48926c-.11133,0-.22119-.00732-.33057-.01465l-.12646-.0083-.24268-.45264-.43652.40234-.0752-.02979c-.11279-.01514-.22559-.03027-.33594-.05273-.10547-.02148-.20752-.0498-.31006-.07812l-.11865-.03223-.13818-.48926-.50049.311-.06836-.04541c-.103-.03564-.20605-.07129-.30518-.11328-.09961-.042-.1958-.09082-.292-.13916l-.09912-.04932-.03467-.50439-.54785.21-.06543-.062c-.08936-.05225-.1792-.105-.26514-.1626-.08838-.05957-.17236-.125-.25635-.18994l-.08936-.06885.06494-.50049-.57666.103-.04785-.06982c-.07861-.06885-.15674-.1377-.231-.21143-.07373-.07422-.14258-.15234-.21143-.23047l-.0791-.08984.1582-.479-.585-.0083-.03418-.07812c-.06348-.082-.127-.16406-.18555-.25049-.06006-.08838-.11377-.18066-.16748-.27295l-.05859-.09961.24561-.44238-.57324-.12158-.021-.0874c-.04639-.09229-.09277-.18457-.13281-.28027-.042-.09863-.07764-.20068-.11279-.30273l-.03906-.1123.3252-.39062-.53955-.23682-.002-.082c-.02881-.10449-.05762-.209-.07959-.31641-.02246-.11035-.0376-.22314-.05273-.33594l-.01562-.11426.396-.32715-.48193-.34814.01416-.082c-.00781-.1123-.01562-.2251-.01562-.33936s.00781-.22656.01563-.33887l.00781-.11816.45264-.24268-.40283-.43652.02979-.0752c.01514-.11279.03027-.22559.05273-.33594.022-.10645.05078-.21094.07959-.31494l.03076-.11328.48975-.13867-.311-.50049.0459-.06982c.03516-.10205.0708-.20459.11279-.30371.03955-.09521.08594-.18652.13184-.27783l.05664-.11377.50439-.03418-.21-.54785.05566-.05469c.0542-.09326.1084-.186.16895-.27539.05908-.0874.123-.16992.187-.25293l.07129-.09326.50049.06494-.103-.57617.06348-.041c.0708-.08057.14209-.16162.21777-.23779.0752-.07471.15479-.14453.23389-.21484l.08643-.07617.47949.1582.00781-.58447.07227-.03027c.084-.06494.168-.13037.25635-.18994.08984-.06006.18311-.11475.27637-.16943l.09619-.05664.44287.24561.12158-.57275.0752-.01514c.09619-.04834.19238-.09717.292-.13916.09863-.042.20068-.07764.30273-.11279l.1123-.03906.39063.3252.23682-.53906.08838-.00342c.10254-.02832.20459-.05664.31006-.07812.10742-.022.21729-.03711.32715-.05176l.123-.01709.32715.396.34814-.48193.09131.01367c.10938-.00732.21924-.01465.33057-.01465s.22021.00732.33008.01465l.12646.0083.24268.45264.43652-.40283.084.03125c.10986.01465.21973.02979.32715.05176.10547.02148.20752.0498.31006.07813l.11865.03223.13818.48926.50049-.311.0708.0459c.10205.03516.2041.0708.30273.11279.09961.042.1958.09082.292.13916l.09912.04932.03467.50439.54785-.21.0542.05518c.09326.05469.18652.10938.27637.16943.08838.05957.17236.125.25635.18994l.08936.06885-.06494.5.57666-.103.04492.06738c.07959.06982.15869.13965.23389.21436.07617.07617.147.15723.21826.23828l.07227.082-.1582.479.585.00781.03271.07617c.064.083.12793.16553.187.25293.06055.08936.11475.18213.16895.2749l.05713.09717-.24561.44287.57324.12158.022.08936c.0459.09131.09229.18262.13184.27783.042.09912.07764.20166.11279.30371l.03906.11133-.3252.39063.53955.2373.002.083c.02881.10449.05762.2085.07959.31494.02246.11035.0376.22314.05273.33594l.01563.11426-.396.32715.48193.34814-.01416.083c.00781.1123.01563.22461.01563.33887s-.00781.22705-.01562.33936l-.00781.11719-.45264.24268.40283.43652-.02979.0752c-.01514.11279-.03027.22559-.05273.33594-.022.10693-.05078.21191-.07959.31592l-.03076.11279-.48975.13818.311.50049-.0459.0708c-.03516.10205-.0708.2041-.11279.30273-.04.0957-.08643.188-.13281.28027l-.05566.11182-.50439.03418.21.54736-.05713.05762c-.05371.09229-.10742.18457-.16748.27295-.05859.08643-.12207.16846-.18555.25049l-.07275.09521-.50049-.06445.103.57617-.06982.04785c-.06885.07861-.1377.15674-.21143.231-.07422.07373-.15234.14258-.231.21143l-.08936.0791-.47949-.1582-.00781.585-.07227.03027c-.084.06494-.168.13037-.25635.18994-.08594.05762-.17578.11035-.26514.1626l-.10742.06348-.44287-.24561-.12158.57275-.0752.01514c-.09619.04834-.19238.09717-.292.13916-.09912.042-.20215.07764-.30518.11328l-.10986.03857-.39062-.3252-.23682.53906-.08838.00342c-.10254.02832-.20459.05664-.31006.07813-.11035.02246-.22314.0376-.33594.05273l-.11426.01563-.32715-.39551-.34814.48193-.09131-.01367C398.88135,92.48193,398.77246,92.48926,398.66113,92.48926Z" fill="#4d4d4d"/>
      <path d="M398.66089,77.18017c.11169,0,.22144.00755.33124.015l.076.00494.2543.43439.06082.10388.08017-.08979.335-.37515.07285.01c.11017.01488.22034.02968.328.05172.10541.02156.20816.04995.31091.07828l.06894.01878.154.47315.03836.1179.09833-.07552.39459-.303.06665.02334c.10135.03516.20273.07026.30093.1118.097.041.19067.08819.28436.13529l.06155.03072.05347.49128.01367.12563.11285-.05685.442-.22263.05847.03442c.09134.05343.18268.10679.27011.16584.08682.05865.16949.12271.2522.18672l.05319.04092-.04352.49115-.01126.12706.12265-.03508.47446-.13571.04993.04414c.07886.06935.15778.13865.232.21289s.14355.15314.21289.232l.04416.04993-.13574.47447-.03506.12263.127-.01126.49118-.04352.04077.053c.06406.08276.12814.1655.18686.25237.059.08734.1123.17861.16571.26987l.03455.05869-.22263.442-.05685.11286.12561.01367.4913.05345.03055.06119c.04718.09382.09439.18759.1355.28476.0415.09816.07657.19948.11172.30079l.02338.06675-.303.3946-.07553.09834.11792.03837.47314.154.01889.06937c.02829.10262.05661.2052.07816.31043.022.1077.03683.21784.0517.328l.01007.0729-.37518.335-.08975.08017.10388.06081.43439.25431.00491.07547c.00751.10994.01508.21986.01508.33171s-.00757.22177-.01508.33171l-.00491.07547-.43439.25431-.10388.06081.08975.08017.37518.335-.01007.07291c-.01486.11015-.02966.22028-.0517.328-.02151.10522-.04987.20778-.07812.31038l-.01892.06944-.47314.15395-.11792.03836.07553.09834.303.3946-.02335.0667c-.03516.10134-.07022.20268-.11176.30085-.04111.09715-.08832.19093-.1355.28472l-.03055.06122-.4913.05346-.12561.01367.05685.11286.22263.442-.03455.05869c-.05341.09125-.10672.18252-.16571.26985-.05881.087-.123.16987-.18713.25275l-.0405.05262-.49118-.04349-.127-.01125.03506.12264.13574.47446-.04471.05054c-.06918.07867-.13828.15736-.21237.23141-.07422.07424-.15311.14353-.232.21288l-.05.04415-.47446-.13571-.12265-.03508.01126.12706.04352.49115-.05322.041c-.0827.064-.16537.128-.25217.18668-.0874.05905-.17874.11239-.27005.16581l-.05853.03445-.442-.22263-.11285-.05685-.01367.12563-.05347.49129-.06174.03081c-.09363.04707-.18723.09419-.28418.1352-.09827.04156-.19968.07668-.30109.11186l-.0665.02328-.39459-.303-.09833-.07552-.03836.1179-.154.47316-.069.01879c-.10275.02832-.20547.0567-.31085.07827-.10757.022-.21765.03681-.3277.05167l-.07315.01009-.335-.37516-.08017-.08979-.06082.10388-.2543.43439-.07578.00494c-.10986.0075-.2197.015-.33142.015s-.22159-.00755-.33145-.015l-.07571-.00494-.2543-.43439-.06082-.10387-.08017.08977-.335.37517-.07315-.01009c-.11-.01486-.22012-.02966-.3277-.05167-.10529-.02155-.20795-.04991-.31064-.07821l-.06921-.01885-.154-.47316-.03836-.1179-.09833.07552-.39459.303-.0665-.02328c-.10141-.03518-.20282-.0703-.30106-.11185-.09708-.04105-.1907-.0882-.28439-.13531l-.06152-.03071-.0535-.49128-.01367-.12563-.11285.05684-.442.22263-.05853-.03445c-.09131-.05342-.18265-.10676-.27-.1658-.087-.05874-.16974-.12288-.25256-.187l-.05283-.04066.04352-.49116.01126-.12706-.12265.03508-.47449.13571-.05066-.04479c-.07861-.06915-.15726-.13822-.23129-.21223s-.14334-.15295-.21262-.23173l-.0444-.05022.13571-.47446.03506-.12264-.127.01125-.49115.04349-.04068-.05284c-.06409-.08281-.12823-.16558-.187-.25252-.059-.08734-.1123-.17861-.16571-.26986l-.03455-.05869.22263-.442.05685-.11286-.12561-.01367-.4913-.05346-.03088-.06192c-.04706-.09357-.09415-.18711-.13513-.284-.04153-.09823-.07666-.19962-.11182-.301l-.02332-.06656.303-.3946.07553-.09834-.11792-.03837-.47311-.15395-.0188-.069c-.02835-.10275-.0567-.20547-.07828-.31085-.022-.10769-.03683-.21783-.0517-.328l-.01007-.07291.37518-.335.08975-.08017-.10388-.06081-.43439-.25431-.00491-.07547c-.00751-.10994-.01508-.21985-.01508-.33171s.00757-.22177.01508-.33171l.00491-.07547.43439-.25431.10388-.06081-.08975-.08017-.37518-.335.01007-.0729c.01486-.11014.02966-.22028.0517-.328.02158-.10539.05-.20813.07828-.31091l.0188-.06889.47311-.154.11792-.03837-.07553-.09834-.303-.3946.02335-.0666c.03516-.10136.07025-.20274.11176-.30093.041-.09693.0881-.19048.13516-.284l.03088-.0619.4913-.05345.12561-.01367L392.354,81.316l-.22263-.442.03455-.05869c.05341-.09126.10672-.18253.16571-.26985.05865-.08682.12271-.16947.18671-.25216l.041-.05325.49115.04352.127.01126-.03506-.12263-.13571-.47447.04385-.04962c.06943-.079.13882-.158.21317-.23233.074-.074.15259-.143.23117-.21211l.05078-.04492.47449.13571.12265.03508-.01126-.12706-.04352-.49116.053-.04077c.08276-.06407.1655-.12817.25238-.18687.08743-.05905.17877-.11241.27011-.16584l.05847-.03442.442.22263.11285.05684.01367-.12563.0535-.49128.06131-.03061c.09375-.04713.18747-.09433.28458-.1354.09821-.04154.19958-.07664.30093-.1118l.06665-.02334.39459.303.09833.07552.03836-.1179.154-.47315.06915-.01884c.10272-.02831.20538-.05667.3107-.07822.10767-.022.21783-.03684.328-.05172l.07285-.01.335.37516.08017.08977.06082-.10387.2543-.43439.0759-.00494c.1098-.00748.21957-.015.33127-.015m0-.08763c-.15506,0-.30649.01417-.45929.02319l-.2778.47453-.36612-.41c-.15137.02173-.30432.03873-.4527.06909-.14636.02995-.28772.0727-.431.11079l-.16858.51815-.43219-.33189c-.13974.04982-.28156.09531-.41748.15279-.1347.057-.263.12539-.39371.18968l-.05865.53884-.48468-.24412c-.12552.07481-.25357.14582-.37436.22741-.12018.08118-.23261.17244-.34784.26011l.04776.539-.52066-.14893c-.10809.09667-.2193.19-.32184.29253s-.19589.21373-.29251.32185l.1489.52063-.539-.04776c-.08765.11523-.17892.22768-.26013.34787-.08157.12077-.15259.24883-.22742.37434l.24414.48469-.53885.05863c-.06427.13068-.13272.259-.1897.39374-.05746.13591-.103.27773-.15277.41747l.33188.43219-.51813.16859c-.03812.14322-.08087.28458-.11081.43094-.03037.14841-.04736.30135-.06909.45271l.41.3661-.47455.27781c-.009.15281-.02319.30423-.02319.4593s.01416.30649.02319.4593l.47455.27781-.41.3661c.02173.15136.03873.30432.06909.45271.02994.14637.07269.28772.11081.43095l.51813.16859-.33188.43219c.0498.13974.09531.28156.15277.41747.057.1347.12543.26305.1897.39373l.53885.05864-.24414.48469c.07483.12551.14584.25357.22742.37434.08121.1202.17245.23261.26013.34784l.539-.04773-.1489.52063c.09665.10812.19.21932.29251.32185s.21375.19586.32184.29253l.52066-.14893-.04776.539c.11523.08768.22766.17892.34784.26012.12079.08157.24884.15258.37436.22739l.48468-.24412.05865.53885c.13068.06429.259.1327.39371.18968.13593.05749.27774.103.41748.15279l.43219-.33189.16858.51815c.14325.03809.28461.08085.431.11081.14838.03036.30133.04735.4527.06908l.36612-.41.2778.47453c.1528.009.30423.0232.45929.0232s.30649-.01417.45932-.0232l.2778-.47453.36609.41c.15137-.02174.30432-.03873.4527-.06908.14636-.03.28775-.07272.431-.11081l.16858-.51815.43219.33189c.13974-.0498.28156-.0953.41748-.15279.1347-.057.263-.1254.39374-.18968l.05862-.53885.48468.24412c.12552-.07481.25357-.14582.37436-.22739.12018-.0812.23264-.17247.34787-.26012l-.04776-.539.52063.14893c.10812-.09664.21933-.19.32184-.29253s.19586-.21373.29254-.32185l-.14893-.52063.539.04773c.08768-.11523.17889-.22764.2601-.34784.08157-.12077.15259-.24883.22742-.37434l-.24414-.48469.53885-.05864c.0643-.13068.13272-.259.1897-.39373.0575-.13591.103-.27773.15277-.41747l-.33188-.43219.51816-.16859c.03809-.14323.08084-.28458.11078-.43095.03036-.14839.04736-.30135.06909-.45271l-.41-.3661.47455-.27781c.009-.15281.02319-.30421.02319-.4593s-.01416-.30649-.02319-.4593l-.47455-.27781.41-.3661c-.02173-.15136-.03873-.30431-.06909-.45271-.02994-.14635-.07269-.28772-.11078-.43094l-.51816-.16859.33188-.43219c-.0498-.13973-.09528-.28156-.15277-.41747-.057-.1347-.1254-.26306-.1897-.39374l-.53885-.05863.24414-.48469c-.07483-.12551-.14584-.25357-.22742-.37434-.08121-.12019-.17245-.23264-.2601-.34787l-.539.04776.14893-.52063c-.09665-.10812-.19-.21933-.29254-.32185s-.21371-.19588-.32184-.29253l-.52063.14893.04776-.539c-.11523-.08765-.22769-.17892-.34787-.26011-.12079-.08159-.24884-.1526-.37436-.22741l-.48468.24412-.05862-.53884c-.13071-.06429-.259-.13271-.39374-.18968-.13593-.05749-.27774-.103-.41748-.15279l-.43219.33189-.16858-.51815c-.14322-.03809-.28461-.08085-.431-.11079-.14838-.03036-.30133-.04736-.4527-.06909l-.36609.41-.2778-.47453c-.15283-.009-.30426-.02319-.45932-.02319Z" fill="#333"/>
    </g>
    <circle cx="398.66089" cy="84.8129" r="6.08271" fill="#666" stroke="#000" stroke-miterlimit="1" stroke-width="0.08763"/>
  </g>
  <rect x="364.73809" y="35.47912" width="67.37771" height="17.78023" rx="0.43813" ry="0.43813" stroke="#333" stroke-miterlimit="10" stroke-width="0.08763"/>
</svg>
