<?xml version="1.0" encoding="utf-8"?>
<!-- Generator: Adobe Illustrator 21.1.0, SVG Export Plug-In . SVG Version: 6.00 Build 0)  -->
<svg version="1.1" xmlns="http://www.w3.org/2000/svg" xmlns:xlink="http://www.w3.org/1999/xlink" x="0px" y="0px"
	 viewBox="0 0 285.0899963 138.125" style="enable-background:new 0 0 285.0899963 138.125;" xml:space="preserve">
<style type="text/css">
	.st0{display:none;}
	.st1{display:inline;fill:#CACACA;}
	.st2{display:inline;}
	.st3{fill:#202020;}
	.st4{display:inline;fill:#666666;}
	.st5{fill:#E4E4E4;}
	.st6{fill:#F0F0F0;}
	.st7{fill:#CACACA;}
	.st8{enable-background:new    ;}
	.st9{clip-path:url(#SVGID_6_);enable-background:new    ;}
	.st10{clip-path:url(#SVGID_10_);fill-rule:evenodd;clip-rule:evenodd;fill:#FFFFFF;}
	.st11{clip-path:url(#SVGID_10_);fill-rule:evenodd;clip-rule:evenodd;fill:#EEEEEE;}
	.st12{clip-path:url(#SVGID_10_);fill:none;stroke:#666666;stroke-width:0;stroke-linejoin:round;stroke-miterlimit:10;}
	.st13{clip-path:url(#SVGID_10_);}
	.st14{clip-path:url(#SVGID_10_);fill-rule:evenodd;clip-rule:evenodd;fill:#DDDDDD;}
	.st15{clip-path:url(#SVGID_10_);fill:none;stroke:#333333;stroke-width:1.415;stroke-linejoin:round;stroke-miterlimit:10;}
	.st16{clip-path:url(#SVGID_10_);fill-rule:evenodd;clip-rule:evenodd;fill:#CCCCCC;}
	
		.st17{clip-path:url(#SVGID_10_);fill:none;stroke:#666666;stroke-width:0;stroke-linejoin:round;stroke-miterlimit:10;stroke-dasharray:1.4433,1.4433,1.4433,1.4433;}
	.st18{clip-path:url(#SVGID_10_);fill:#666666;}
	.st19{clip-path:url(#SVGID_10_);fill:none;stroke:#333333;stroke-width:0.1;stroke-miterlimit:10;}
	.st20{clip-path:url(#SVGID_10_);fill-rule:evenodd;clip-rule:evenodd;fill:#333333;}
	.st21{clip-path:url(#SVGID_10_);fill-rule:evenodd;clip-rule:evenodd;fill:#B2B2B2;}
	.st22{clip-path:url(#SVGID_10_);fill:none;stroke:#333333;stroke-width:0;stroke-linejoin:round;stroke-miterlimit:10;}
	.st23{clip-path:url(#SVGID_10_);fill-rule:evenodd;clip-rule:evenodd;fill:#FFCCCC;}
	.st24{clip-path:url(#SVGID_10_);fill-rule:evenodd;clip-rule:evenodd;fill:#CCCCFF;}
	.st25{clip-path:url(#SVGID_10_);fill:none;stroke:#000000;stroke-width:0.1;stroke-miterlimit:10;}
	.st26{clip-path:url(#SVGID_10_);fill-rule:evenodd;clip-rule:evenodd;}
	.st27{clip-path:url(#SVGID_10_);fill:none;stroke:#009900;stroke-width:2.8299999;stroke-linejoin:round;stroke-miterlimit:10;}
	.st28{clip-path:url(#SVGID_10_);fill:none;stroke:#000000;stroke-width:0;stroke-linejoin:round;stroke-miterlimit:10;}
	.st29{clip-path:url(#SVGID_10_);fill-rule:evenodd;clip-rule:evenodd;fill:#CC9999;}
	.st30{opacity:0.25;clip-path:url(#SVGID_10_);}
	.st31{clip-path:url(#SVGID_14_);fill-rule:evenodd;clip-rule:evenodd;fill:#009900;}
	.st32{clip-path:url(#SVGID_10_);fill-rule:evenodd;clip-rule:evenodd;fill:#666699;}
	.st33{clip-path:url(#SVGID_10_);fill:none;stroke:#FF3300;stroke-width:1.415;stroke-linejoin:round;stroke-miterlimit:10;}
	.st34{clip-path:url(#SVGID_10_);fill:none;stroke:#00CC00;stroke-width:1.415;stroke-linejoin:round;stroke-miterlimit:10;}
	.st35{clip-path:url(#SVGID_10_);fill:none;stroke:#6666FF;stroke-width:1.415;stroke-linejoin:round;stroke-miterlimit:10;}
	
		.st36{clip-path:url(#SVGID_10_);fill:none;stroke:#006600;stroke-width:0;stroke-linejoin:round;stroke-miterlimit:10;stroke-dasharray:1.4433,1.4433,1.4433,1.4433;}
	.st37{clip-path:url(#SVGID_18_);fill-rule:evenodd;clip-rule:evenodd;fill:#00CC00;}
	.st38{clip-path:url(#SVGID_22_);fill-rule:evenodd;clip-rule:evenodd;fill:#00CC00;}
	.st39{clip-path:url(#SVGID_10_);fill:#666699;}
	.st40{clip-path:url(#SVGID_10_);fill:#006600;}
	.st41{clip-path:url(#SVGID_10_);fill:#FF0000;}
	.st42{fill:#666666;}
	.st43{fill:#FFFFFF;}
	.st44{fill:#F1F1F1;}
	.st45{fill:#B0B0B0;}
	.st46{fill:none;stroke:#FFFFFF;stroke-width:0.5;}
	.st47{fill:none;stroke:#666666;stroke-width:0.5;stroke-dasharray:2,1;}
	.st48{fill:none;stroke:#666666;stroke-width:0.4;stroke-dasharray:2,1;}
	.st49{fill:none;stroke:#363636;stroke-width:0.7;}
	.st50{fill:#CACACA;stroke:#363636;stroke-width:0.7;}
	.st51{fill:#CACACA;stroke:#363636;stroke-width:0.7;stroke-miterlimit:10;}
	.st52{fill:none;stroke:#363636;stroke-width:0.7;stroke-miterlimit:10;}
	.st53{fill:#B0B0B0;stroke:#363636;stroke-width:0.7;stroke-miterlimit:10;}
	.st54{fill:none;stroke:#4E4E4E;stroke-width:0.7;}
	.st55{fill:#363636;}
	.st56{fill:none;stroke:#000000;stroke-width:0.7;}
	.st57{fill:none;stroke:#666666;stroke-width:0.8;}
	.st58{fill:none;stroke:#B0B0B0;stroke-width:2;}
	.st59{fill:none;stroke:#FFFFFF;stroke-width:0.7;}
	.st60{fill:none;stroke:#979797;stroke-width:0.7;}
	.st61{fill:none;stroke:#979797;stroke-width:0.7;stroke-dasharray:2,1;}
	.st62{fill:none;stroke:#666666;stroke-width:0.7;stroke-dasharray:2,1;}
	.st63{fill:none;stroke:#4E4E4E;stroke-width:0.7;stroke-dasharray:2,2;}
	.st64{fill:none;stroke:#E9A460;stroke-width:0.7;stroke-dasharray:2,2;}
	.st65{fill:#7F7F7F;}
	.st66{fill:#979797;}
	.st67{fill:#4E4E4E;}
	.st68{fill:none;stroke:#B0B0B0;stroke-width:0.7;}
	.st69{fill:#DCDCDC;}
	.st70{fill-rule:evenodd;clip-rule:evenodd;fill:#FFFFFF;stroke:#4E4E4E;stroke-width:0.7;}
	.st71{fill:none;stroke:#FFFFFF;stroke-width:2;}
	.st72{fill:none;stroke:#000000;stroke-width:0.7;stroke-dasharray:2.9861286,1.9907523;}
	.st73{fill:none;stroke:#B0B0B0;stroke-width:0.7;stroke-dasharray:2.8557692,1.9038461;}
	.st74{fill:none;stroke:#B0B0B0;stroke-width:0.7;stroke-dasharray:2.9708171,1.9805448;}
	.st75{fill:none;stroke:#202020;stroke-width:0.7;}
	.st76{fill:none;stroke:#F1F1F1;stroke-width:0.7;}
	.st77{fill:none;stroke:#F1F1F1;stroke-width:0.7;stroke-dasharray:2.9861286,1.9907523;}
	.st78{fill:none;stroke:#7F7F7F;stroke-width:0.7;}
	.st79{fill:none;stroke:#7F7F7F;stroke-width:0.7;stroke-dasharray:2.8557692,1.9038461;}
	.st80{fill:none;stroke:#7F7F7F;stroke-width:0.7;stroke-dasharray:2.9708171,1.9805448;}
	.st81{fill:none;stroke:#7F7F7F;stroke-width:0.7;stroke-dasharray:2.8880596,1.9253731;}
	.st82{fill:none;stroke:#7F7F7F;stroke-width:0.7;stroke-dasharray:2.9690082,1.9793389;}
	.st83{fill:none;stroke:#F1F1F1;stroke-width:0.7;stroke-dasharray:3.0030341,2.0020227;}
	.st84{fill:none;stroke:#F1F1F1;stroke-width:0.7;stroke-dasharray:3,2;}
	.st85{fill:none;stroke:#000000;stroke-width:0.7;stroke-dasharray:2.977612,1.9850746;}
	.st86{fill:none;stroke:#000000;stroke-width:0.7;stroke-dasharray:2.981925,1.9879501;}
	.st87{fill:none;stroke:#B0B0B0;stroke-width:0.7;stroke-dasharray:2.8684211,1.9122807;}
	.st88{fill:none;stroke:#B0B0B0;stroke-width:0.7;stroke-dasharray:2.9537036,1.9691358;}
	.st89{fill:none;}
	.st90{fill:none;stroke:#000000;stroke-width:0.7;stroke-dasharray:3.0092633,2.0061755;}
	.st91{fill:none;stroke:#202020;}
	.st92{fill:none;stroke:#000000;}
	.st93{fill:none;stroke:#B0B0B0;stroke-width:0.7;stroke-dasharray:2.5973933,0.8657978;}
	.st94{fill:none;stroke:#B0B0B0;stroke-width:0.7;stroke-dasharray:2.6154222,0.8718074;}
	.st95{fill:none;stroke:#B0B0B0;stroke-width:0.7;stroke-dasharray:2.9428055,0.9809352;}
	.st96{fill:none;stroke:#B0B0B0;stroke-width:0.7;stroke-dasharray:2.9627337,0.9875779;}
	.st97{fill:none;stroke:#000000;stroke-width:0.7;stroke-dasharray:3,2;}
	.st98{fill:none;stroke:#CACACA;stroke-width:0.7;}
	.st99{clip-path:url(#SVGID_24_);fill:#7F7F7F;}
	.st100{clip-path:url(#SVGID_26_);fill:#7F7F7F;}
	.st101{clip-path:url(#SVGID_28_);fill:#7F7F7F;}
	.st102{clip-path:url(#SVGID_30_);fill:#7F7F7F;}
	.st103{clip-path:url(#SVGID_32_);fill:#7F7F7F;}
	.st104{clip-path:url(#SVGID_34_);fill:#7F7F7F;}
	.st105{clip-path:url(#SVGID_36_);fill:#7F7F7F;}
	.st106{clip-path:url(#SVGID_38_);fill:#7F7F7F;}
	.st107{clip-path:url(#SVGID_40_);fill:#7F7F7F;}
	.st108{clip-path:url(#SVGID_42_);fill:#7F7F7F;}
	.st109{clip-path:url(#SVGID_44_);fill:#7F7F7F;}
	.st110{clip-path:url(#SVGID_46_);fill:#7F7F7F;}
	.st111{clip-path:url(#SVGID_48_);fill:#7F7F7F;}
	.st112{clip-path:url(#SVGID_50_);fill:#7F7F7F;}
	.st113{clip-path:url(#SVGID_52_);fill:#7F7F7F;}
	.st114{clip-path:url(#SVGID_54_);fill:#7F7F7F;}
	.st115{clip-path:url(#SVGID_56_);fill:#7F7F7F;}
	.st116{clip-path:url(#SVGID_58_);fill:#7F7F7F;}
	.st117{clip-path:url(#SVGID_60_);fill:#7F7F7F;}
	.st118{clip-path:url(#SVGID_62_);fill:#7F7F7F;}
	.st119{clip-path:url(#SVGID_64_);fill:#7F7F7F;}
	.st120{clip-path:url(#SVGID_66_);fill:#7F7F7F;}
	.st121{clip-path:url(#SVGID_68_);fill:#7F7F7F;}
	.st122{clip-path:url(#SVGID_70_);fill:#7F7F7F;}
	.st123{clip-path:url(#SVGID_72_);fill:#7F7F7F;}
	.st124{clip-path:url(#SVGID_74_);fill:#7F7F7F;}
	.st125{clip-path:url(#SVGID_76_);fill:#7F7F7F;}
	.st126{clip-path:url(#SVGID_78_);fill:#7F7F7F;}
	.st127{clip-path:url(#SVGID_79_);fill:#7F7F7F;}
	.st128{clip-path:url(#SVGID_80_);fill:#7F7F7F;}
	.st129{clip-path:url(#SVGID_81_);fill:#7F7F7F;}
	.st130{clip-path:url(#SVGID_82_);fill:#7F7F7F;}
	.st131{clip-path:url(#SVGID_83_);fill:#4E4E4E;}
	.st132{clip-path:url(#SVGID_84_);fill:#4E4E4E;}
	.st133{clip-path:url(#SVGID_85_);fill:#4E4E4E;}
	.st134{clip-path:url(#SVGID_86_);fill:#4E4E4E;}
	.st135{clip-path:url(#SVGID_87_);fill:#4E4E4E;}
	.st136{clip-path:url(#SVGID_88_);fill:#4E4E4E;}
	.st137{fill:none;stroke:#000000;stroke-width:0.8;}
	.st138{fill:none;stroke:#7F7F7F;stroke-width:0.5;}
	.st139{fill:#E4E4E4;stroke:#7F7F7F;stroke-width:0.7;}
	.st140{fill:#CDCDCD;stroke:#4E4E4E;stroke-width:0.7;}
	.st141{fill:#202020;stroke:#4E4E4E;stroke-miterlimit:10;}
	.st142{fill:#333333;stroke:#999999;stroke-width:0.3;stroke-miterlimit:10;}
	.st143{fill:#999999;}
	.st144{fill:#919191;stroke:#919191;stroke-width:4;}
	.st145{fill:#FFFFFF;stroke:#F0F0F0;stroke-width:2;}
	.st146{fill:none;stroke:#000000;stroke-width:2;}
	.st147{fill:none;stroke:#F2F2F2;stroke-width:1.3;}
	.st148{fill:#202020;stroke:#CCCCCC;stroke-miterlimit:10;}
	.st149{fill:#666666;stroke:#7F7F7F;stroke-width:2;}
	.st150{fill:none;stroke:#FFFFFF;stroke-width:1.3;}
	.st151{fill:#F2F2F2;}
	.st152{stroke:#CCCCCC;stroke-width:0.3;stroke-miterlimit:10;}
</style>
<g id="Beispiele_Plots">
</g>
<g id="Unterschrift">
</g>
<g id="Überschrift_Kasten" class="st0">
</g>
<g id="Überschrift" class="st0">
</g>
<g id="Logo" class="st0">
</g>
<g id="Pagina" class="st0">
</g>
<g id="BG_Devices">
	<rect class="st3" width="285.0899963" height="138.125"/>
	<g>
		<path class="st7" d="M96.8580246,84.997139h1.3730469v-4.4169922h-1.0908203v-0.4980469
			c0.5449219-0.0947266,0.9404297-0.2451172,1.2685547-0.4423828h0.5927734v5.3574219h1.2402344v0.6396484h-3.3837891V84.997139z"/>
		<path class="st7" d="M101.395134,84.4238968c0.3564453,0.3574219,0.8076172,0.6865234,1.5126953,0.6865234
			c0.7333984,0,1.3164062-0.5361328,1.3164062-1.3720703c0-0.8271484-0.5078125-1.3164062-1.2783203-1.3164062
			c-0.4140625,0-0.6679688,0.1318359-1.0244141,0.3671875l-0.4140625-0.2636719l0.1972656-2.8857422h2.9990234v0.6679688h-2.3222656
			l-0.1591797,1.7763672c0.28125-0.1503906,0.5537109-0.2451172,0.9208984-0.2451172
			c1.0244141,0,1.8613281,0.5830078,1.8613281,1.8808594c0,1.296875-0.9775391,2.0292969-2.0214844,2.0292969
			c-0.9589844,0-1.5507812-0.4033203-1.9638672-0.8173828L101.395134,84.4238968z"/>
		<path class="st7" d="M105.8658371,82.6192093c0-2.0107422,0.7236328-3.0917969,1.9267578-3.0917969
			c1.1933594,0,1.9169922,1.0810547,1.9169922,3.0917969c0,2.0117188-0.7236328,3.1298828-1.9169922,3.1298828
			C106.5894699,85.7490921,105.8658371,84.630928,105.8658371,82.6192093z M108.957634,82.6192093
			c0-1.7568359-0.4697266-2.4716797-1.1650391-2.4716797c-0.7050781,0-1.1748047,0.7148438-1.1748047,2.4716797
			c0,1.7578125,0.4697266,2.5097656,1.1748047,2.5097656C108.4879074,85.1289749,108.957634,84.3770218,108.957634,82.6192093z"/>
		<path class="st7" d="M112.8629074,84.2930374c0.4423828,0.4599609,1.0527344,0.7705078,1.7011719,0.7705078
			c0.8085938,0,1.2880859-0.4042969,1.2880859-1.0058594c0-0.6298828-0.4511719-0.8271484-1.0341797-1.0898438l-0.8837891-0.3857422
			c-0.5732422-0.2441406-1.25-0.6865234-1.25-1.5888672c0-0.9394531,0.8271484-1.6347656,1.9462891-1.6347656
			c0.7333984,0,1.3818359,0.3095703,1.8134766,0.7607422l-0.4130859,0.5078125
			c-0.3759766-0.3574219-0.8369141-0.5830078-1.4003906-0.5830078c-0.6962891,0-1.15625,0.3476562-1.15625,0.9023438
			c0,0.5917969,0.5449219,0.8183594,1.0244141,1.0244141l0.8837891,0.3759766
			c0.7138672,0.3105469,1.2685547,0.7333984,1.2685547,1.6455078c0,0.9775391-0.8085938,1.7568359-2.1054688,1.7568359
			c-0.8642578,0-1.6162109-0.3564453-2.1523438-0.9111328L112.8629074,84.2930374z"/>
		<path class="st7" d="M118.9029465,80.1289749h-1.8701172v-0.6582031h4.5205078v0.6582031h-1.8701172v5.5078125h-0.7802734
			V80.1289749z"/>
	</g>
	<g>
		<path class="st7" d="M252.6627045,84.997139h1.3730469v-4.4169922h-1.0908203v-0.4980469
			c0.5449219-0.0947266,0.9404297-0.2451172,1.2685547-0.4423828h0.5927734v5.3574219h1.2402496v0.6396484h-3.3838043V84.997139z"/>
		<path class="st7" d="M257.0025635,82.6192093c0-2.0107422,0.7236328-3.0917969,1.9267578-3.0917969
			c1.1933594,0,1.9169922,1.0810547,1.9169922,3.0917969c0,2.0117188-0.7236328,3.1298828-1.9169922,3.1298828
			C257.7261963,85.7490921,257.0025635,84.630928,257.0025635,82.6192093z M260.0943604,82.6192093
			c0-1.7568359-0.4697266-2.4716797-1.1650391-2.4716797c-0.7050781,0-1.1748047,0.7148438-1.1748047,2.4716797
			c0,1.7578125,0.4697266,2.5097656,1.1748047,2.5097656C259.6246338,85.1289749,260.0943604,84.3770218,260.0943604,82.6192093z"/>
		<path class="st7" d="M261.6705322,82.6192093c0-2.0107422,0.7236328-3.0917969,1.9267578-3.0917969
			c1.1933594,0,1.9169922,1.0810547,1.9169922,3.0917969c0,2.0117188-0.7236328,3.1298828-1.9169922,3.1298828
			C262.394165,85.7490921,261.6705322,84.630928,261.6705322,82.6192093z M264.7623291,82.6192093
			c0-1.7568359-0.4697266-2.4716797-1.1650391-2.4716797c-0.7050781,0-1.1748047,0.7148438-1.1748047,2.4716797
			c0,1.7578125,0.4697266,2.5097656,1.1748047,2.5097656C264.2926025,85.1289749,264.7623291,84.3770218,264.7623291,82.6192093z"/>
		<path class="st7" d="M268.151001,81.294014c0-1.2402344,0.5546875-1.9355469,1.4003906-1.9355469
			c0.8369141,0,1.4003906,0.6953125,1.4003906,1.9355469c0,1.2412109-0.5634766,1.9550781-1.4003906,1.9550781
			C268.7056885,83.2490921,268.151001,82.5352249,268.151001,81.294014z M270.3599854,81.294014
			c0-0.9863281-0.3291016-1.4570312-0.8085938-1.4570312c-0.4882812,0-0.8173828,0.4707031-0.8173828,1.4570312
			c0,0.9775391,0.3291016,1.4755859,0.8173828,1.4755859C270.0308838,82.7695999,270.3599854,82.271553,270.3599854,81.294014z
			 M269.7301025,85.7490921l3.4023438-6.390625h0.5166016l-3.4023438,6.390625H269.7301025z M272.4459229,83.794014
			c0-1.2304688,0.5546875-1.9355469,1.4013672-1.9355469c0.8359375,0,1.4003906,0.7050781,1.4003906,1.9355469
			c0,1.2509766-0.5644531,1.9550781-1.4003906,1.9550781C273.0006104,85.7490921,272.4459229,85.0449905,272.4459229,83.794014z
			 M274.6549072,83.794014c0-0.9765625-0.328125-1.4560547-0.8076172-1.4560547s-0.8183594,0.4794922-0.8183594,1.4560547
			c0,0.9785156,0.3388672,1.4765625,0.8183594,1.4765625S274.6549072,84.7725296,274.6549072,83.794014z"/>
	</g>
	<path class="st42" d="M76.3757324,21.9158325H40.7557182c-3.5898476,0-6.4999962-2.9101448-6.4999962-6.4999924V14.050827
		c0-3.5898466,2.9101486-6.4999928,6.4999962-6.4999928l35.6200142-0.000001c3.5898438,0,6.4999924,2.9101462,6.4999924,6.4999928
		v1.3650141C82.8757248,19.0056877,79.9655762,21.9158325,76.3757324,21.9158325z"/>
	<g>
		<path class="st43" d="M48.1021614,11.1143227h0.7714844v5.828125c0,0.2441406,0.1025391,0.3378906,0.2158203,0.3378906
			c0.046875,0,0.0849609,0,0.1689453-0.0185547l0.1035156,0.5830078c-0.1035156,0.046875-0.2353516,0.0742188-0.4414062,0.0742188
			c-0.5830078,0-0.8183594-0.3662109-0.8183594-1.0332031V11.1143227z"/>
		<path class="st43" d="M50.3560677,11.8008461c0-0.3007812,0.234375-0.4990234,0.5351562-0.4990234
			s0.5361328,0.1982422,0.5361328,0.4990234c0,0.2910156-0.2353516,0.4980469-0.5361328,0.4980469
			S50.3560677,12.0918617,50.3560677,11.8008461z M50.4966927,13.2383461h0.7714844v4.5683594h-0.7714844V13.2383461z"/>
		<path class="st43" d="M52.8072395,13.2383461h0.6396484l0.0654297,0.6582031h0.0283203
			c0.4326172-0.4326172,0.9023438-0.7705078,1.5322266-0.7705078c0.9589844,0,1.390625,0.6201172,1.390625,1.7851562v2.8955078
			h-0.7705078v-2.7919922c0-0.8554688-0.2626953-1.2216797-0.8642578-1.2216797c-0.4707031,0-0.7900391,0.2441406-1.25,0.7050781
			v3.3085938h-0.7714844V13.2383461z"/>
		<path class="st43" d="M59.6558723,13.1260414c1.1650391,0,1.8232422,0.8359375,1.8232422,2.1425781
			c0,0.1601562-0.0087891,0.3105469-0.0283203,0.4228516h-3.0830078c0.0566406,0.9873047,0.6484375,1.6074219,1.5234375,1.6074219
			c0.4316406,0,0.7988281-0.140625,1.1367188-0.3564453l0.2724609,0.5068359
			c-0.3945312,0.2539062-0.8828125,0.4697266-1.5039062,0.4697266c-1.2216797,0-2.1894531-0.8925781-2.1894531-2.3867188
			C57.6070442,14.0371742,58.6129036,13.1260414,59.6558723,13.1260414z M60.8023567,15.1846352
			c0-0.9306641-0.4130859-1.4482422-1.1279297-1.4482422c-0.6386719,0-1.2216797,0.5263672-1.3154297,1.4482422H60.8023567z"/>
		<path class="st43" d="M65.0572433,14.9111977c0-0.5820312-0.1972656-1.1464844-0.9394531-1.1464844
			c-0.5361366,0-1.0058632,0.2441406-1.3632851,0.4892578l-0.3105469-0.5361328
			c0.4238281-0.2724609,1.0625-0.5917969,1.7959023-0.5917969c1.1181641,0,1.5878906,0.7421875,1.5878906,1.8798828v2.8007812
			h-0.6386719l-0.0654297-0.5449219h-0.0195312c-0.4414062,0.3564453-0.9492188,0.6572266-1.5126991,0.6572266
			c-0.7714844,0-1.3447266-0.4785156-1.3447266-1.296875C62.2466927,15.6260414,63.111927,15.1279945,65.0572433,14.9111977z
			 M63.8072395,17.298893c0.4414101,0,0.8085976-0.2158203,1.2500038-0.6103516v-1.2695312
			c-1.5322304,0.1884766-2.0488319,0.5644531-2.0488319,1.1464844C63.0084114,17.0830727,63.3560677,17.298893,63.8072395,17.298893
			z"/>
		<path class="st43" d="M67.2808762,13.2383461h0.6396484l0.0654297,0.8271484h0.0283203
			c0.3105469-0.5732422,0.7802734-0.9394531,1.296875-0.9394531c0.1972656,0,0.3388672,0.0283203,0.4892578,0.09375
			l-0.1503906,0.6767578c-0.1503906-0.046875-0.2539062-0.0751953-0.4423828-0.0751953
			c-0.3847656,0-0.8457031,0.2822266-1.15625,1.0527344v2.9326172h-0.7705078V13.2383461z"/>
	</g>
	<path class="st42" d="M238.2582245,21.9158325h-49.9850006c-3.589859,0-6.5-2.9101448-6.5-6.4999924V14.050827
		c0-3.5898476,2.910141-6.4999933,6.5-6.4999933l49.9850006-0.0000005c3.589859,0,6.5,2.9101462,6.5,6.4999928v1.3650141
		C244.7582245,19.0056877,241.8480835,21.9158325,238.2582245,21.9158325z"/>
	<g>
		<path class="st43" d="M192.3775482,13.1260414c1.1660156,0,1.8232422,0.8359375,1.8232422,2.1425781
			c0,0.1601562-0.0087891,0.3105469-0.0283203,0.4228516h-3.0830078c0.0566406,0.9873047,0.6494141,1.6074219,1.5234375,1.6074219
			c0.4316406,0,0.7988281-0.140625,1.1367188-0.3564453l0.2724609,0.5068359
			c-0.3945312,0.2539062-0.8828125,0.4697266-1.5039062,0.4697266c-1.2216797,0-2.1894531-0.8925781-2.1894531-2.3867188
			C190.3287201,14.0371742,191.3345795,13.1260414,192.3775482,13.1260414z M193.5240326,15.1846352
			c0-0.9306641-0.4130859-1.4482422-1.1279297-1.4482422c-0.6386719,0-1.2216797,0.5263672-1.3154297,1.4482422H193.5240326z"/>
		<path class="st43" d="M196.1148529,15.4190102l-1.3818359-2.1806641h0.8369141l0.6103516,1.0058594
			c0.1416016,0.2441406,0.2919922,0.5078125,0.4511719,0.7617188h0.0380859
			c0.1318359-0.2539062,0.2724609-0.5175781,0.4130859-0.7617188l0.5546875-1.0058594h0.8085938l-1.3818359,2.265625
			l1.4853516,2.3027344h-0.8369141l-0.6669922-1.0625c-0.1601562-0.2724609-0.3291016-0.5537109-0.4980469-0.8173828h-0.0380859
			c-0.1591797,0.2636719-0.3095703,0.5361328-0.4599609,0.8173828l-0.6210938,1.0625h-0.8076172L196.1148529,15.4190102z"/>
		<path class="st43" d="M200.2193451,18.1924477v1.5410156h-0.7705078v-6.4951172h0.6396484l0.0654297,0.5263672h0.0283203
			c0.4140625-0.3476562,0.9208984-0.6386719,1.4570312-0.6386719c1.1748047,0,1.8046875,0.9111328,1.8046875,2.3310547
			c0,1.5507812-0.9306641,2.4619141-1.9736328,2.4619141c-0.4228516,0-0.8466797-0.1972656-1.2695312-0.5253906
			L200.2193451,18.1924477z M201.3384857,17.2705727c0.7519531,0,1.3066406-0.6855469,1.3066406-1.8134766
			c0-1.0058594-0.3388672-1.6826172-1.203125-1.6826172c-0.3857422,0-0.7714844,0.2158203-1.2226562,0.6201172v2.3974609
			C200.6334076,17.1397133,201.0377045,17.2705727,201.3384857,17.2705727z"/>
		<path class="st43" d="M206.4380951,13.1260414c1.1191406,0,2.1152344,0.8740234,2.1152344,2.40625
			c0,1.5126953-0.9960938,2.3867188-2.1152344,2.3867188c-1.1181641,0-2.1142578-0.8740234-2.1142578-2.3867188
			C204.3238373,14.0000648,205.319931,13.1260414,206.4380951,13.1260414z M206.4380951,17.2803383
			c0.7900391,0,1.3164062-0.7050781,1.3164062-1.7480469c0-1.0527344-0.5263672-1.7675781-1.3164062-1.7675781
			c-0.7792969,0-1.3154297,0.7148438-1.3154297,1.7675781C205.1226654,16.5752602,205.6587982,17.2803383,206.4380951,17.2803383z"
			/>
		<path class="st43" d="M209.7515717,13.2383461h0.6396484l0.0654297,0.6582031h0.0283203
			c0.4326172-0.4326172,0.9023438-0.7705078,1.5322266-0.7705078c0.9589844,0,1.390625,0.6201172,1.390625,1.7851562v2.8955078
			h-0.7705078v-2.7919922c0-0.8554688-0.2626953-1.2216797-0.8642578-1.2216797
			c-0.4707031,0-0.7900391,0.2441406-1.2509766,0.7050781v3.3085938h-0.7705078V13.2383461z"/>
		<path class="st43" d="M216.6002045,13.1260414c1.1660156,0,1.8232422,0.8359375,1.8232422,2.1425781
			c0,0.1601562-0.0087891,0.3105469-0.0283203,0.4228516h-3.0830078c0.0566406,0.9873047,0.6494141,1.6074219,1.5234375,1.6074219
			c0.4316406,0,0.7988281-0.140625,1.1367188-0.3564453l0.2724609,0.5068359
			c-0.3945312,0.2539062-0.8828125,0.4697266-1.5039062,0.4697266c-1.2216797,0-2.1894531-0.8925781-2.1894531-2.3867188
			C214.5513763,14.0371742,215.5572357,13.1260414,216.6002045,13.1260414z M217.7466888,15.1846352
			c0-0.9306641-0.4130859-1.4482422-1.1279297-1.4482422c-0.6386719,0-1.2216797,0.5263672-1.3154297,1.4482422H217.7466888z"/>
		<path class="st43" d="M219.5484467,13.2383461h0.6396484l0.0654297,0.6582031h0.0283203
			c0.4326172-0.4326172,0.9023438-0.7705078,1.5322266-0.7705078c0.9589844,0,1.390625,0.6201172,1.390625,1.7851562v2.8955078
			h-0.7705078v-2.7919922c0-0.8554688-0.2626953-1.2216797-0.8642578-1.2216797
			c-0.4707031,0-0.7900391,0.2441406-1.2509766,0.7050781v3.3085938h-0.7705078V13.2383461z"/>
		<path class="st43" d="M224.8179779,13.8682289h-0.6767578v-0.5830078l0.7148438-0.046875l0.09375-1.2783203h0.6484375v1.2783203
			h1.2314453v0.6298828h-1.2314453v2.5380859c0,0.5634766,0.1787109,0.8837891,0.7050781,0.8837891
			c0.1591797,0,0.3662109-0.0664062,0.5166016-0.1230469l0.1503906,0.5830078
			c-0.2539062,0.0849609-0.5634766,0.1689453-0.8457031,0.1689453c-0.9775391,0-1.3066406-0.6201172-1.3066406-1.5224609V13.8682289
			z"/>
		<path class="st43" d="M227.7203217,11.8008461c0-0.3007812,0.2353516-0.4990234,0.5361328-0.4990234
			s0.5351562,0.1982422,0.5351562,0.4990234c0,0.2910156-0.234375,0.4980469-0.5351562,0.4980469
			S227.7203217,12.0918617,227.7203217,11.8008461z M227.8609467,13.2383461h0.7705078v4.5683594h-0.7705078V13.2383461z"/>
		<path class="st43" d="M232.7554779,14.9111977c0-0.5820312-0.1972656-1.1464844-0.9394531-1.1464844
			c-0.5361328,0-1.0058594,0.2441406-1.3632812,0.4892578l-0.3105469-0.5361328
			c0.4228516-0.2724609,1.0625-0.5917969,1.7958984-0.5917969c1.1181641,0,1.5878906,0.7421875,1.5878906,1.8798828v2.8007812
			h-0.6386719l-0.0664062-0.5449219h-0.0185547c-0.4414062,0.3564453-0.9492188,0.6572266-1.5126953,0.6572266
			c-0.7714844,0-1.3447266-0.4785156-1.3447266-1.296875C229.944931,15.6260414,230.8101654,15.1279945,232.7554779,14.9111977z
			 M231.5054779,17.298893c0.4414062,0,0.8085938-0.2158203,1.25-0.6103516v-1.2695312
			c-1.5322266,0.1884766-2.0488281,0.5644531-2.0488281,1.1464844
			C230.7066498,17.0830727,231.054306,17.298893,231.5054779,17.298893z"/>
		<path class="st43" d="M234.9800873,11.1143227h0.7705078v5.828125c0,0.2441406,0.1035156,0.3378906,0.2167969,0.3378906
			c0.046875,0,0.0839844,0,0.1689453-0.0185547l0.1035156,0.5830078c-0.1035156,0.046875-0.2353516,0.0742188-0.4414062,0.0742188
			c-0.5830078,0-0.8183594-0.3662109-0.8183594-1.0332031V11.1143227z"/>
	</g>
	<g>
		<path class="st7" d="M7.8541145,40.245182h1.3730469v-4.4179688H8.1363411v-0.4980469
			c0.5449219-0.0947266,0.9404297-0.2451172,1.2685547-0.4423828h0.5927734v5.3583984h1.2402344v0.6386719H7.8541145V40.245182z"/>
		<path class="st7" d="M12.4185677,39.6436195c0.3574219,0.375,0.828125,0.7138672,1.5322266,0.7138672
			c0.7236328,0,1.2412109-0.4326172,1.2412109-1.0996094c0-0.7148438-0.4892578-1.1943359-1.9179688-1.1943359v-0.5917969
			c1.2783203,0,1.7011719-0.4882812,1.7011719-1.1181641c0-0.5830078-0.3945312-0.9492188-1.0332031-0.9492188
			c-0.4980469,0-0.921875,0.2529297-1.2783203,0.6103516l-0.4140625-0.4882812
			c0.4609375-0.4326172,1.015625-0.7519531,1.7207031-0.7519531c1.0429688,0,1.7949219,0.5546875,1.7949219,1.5224609
			c0,0.7236328-0.4414062,1.1845703-1.0908203,1.4287109v0.0371094c0.7246094,0.1699219,1.2978516,0.6962891,1.2978516,1.5234375
			c0,1.0615234-0.8740234,1.7109375-1.9736328,1.7109375c-0.9589844,0-1.5703125-0.4042969-1.9746094-0.8466797
			L12.4185677,39.6436195z"/>
		<path class="st7" d="M16.861927,37.8662758c0-2.0107422,0.7236328-3.0917969,1.9267578-3.0917969
			c1.1933594,0,1.9169922,1.0810547,1.9169922,3.0917969c0,2.0117188-0.7236328,3.1308594-1.9169922,3.1308594
			C17.5855598,40.9971352,16.861927,39.8779945,16.861927,37.8662758z M19.9537239,37.8662758
			c0-1.7578125-0.4697266-2.4716797-1.1650391-2.4716797c-0.7050781,0-1.1748047,0.7138672-1.1748047,2.4716797
			s0.4697266,2.5097656,1.1748047,2.5097656C19.4839973,40.3760414,19.9537239,39.6240883,19.9537239,37.8662758z"/>
		<path class="st7" d="M23.8589973,39.5401039c0.4423828,0.4599609,1.0527344,0.7705078,1.7011719,0.7705078
			c0.8085938,0,1.2880859-0.4042969,1.2880859-1.0058594c0-0.6298828-0.4511719-0.8271484-1.0341797-1.0908203l-0.8837891-0.3847656
			c-0.5732422-0.2441406-1.25-0.6865234-1.25-1.5888672c0-0.9394531,0.8271484-1.6357422,1.9462891-1.6357422
			c0.7333984,0,1.3818359,0.3105469,1.8134766,0.7617188l-0.4130859,0.5078125
			c-0.3759766-0.3574219-0.8369141-0.5830078-1.4003906-0.5830078c-0.6962891,0-1.15625,0.3476562-1.15625,0.9023438
			c0,0.5927734,0.5449219,0.8173828,1.0244141,1.0244141l0.8837891,0.3759766
			c0.7138672,0.3105469,1.2685547,0.7333984,1.2685547,1.6455078c0,0.9775391-0.8085938,1.7578125-2.1054688,1.7578125
			c-0.8642578,0-1.6162109-0.3574219-2.1523438-0.9121094L23.8589973,39.5401039z"/>
		<path class="st7" d="M29.8990364,35.3760414h-1.8701172v-0.6582031h4.5205078v0.6582031h-1.8701172v5.5078125h-0.7802734
			V35.3760414z"/>
	</g>
	<g>
		<path class="st7" d="M12.393177,84.4229202c0.3564453,0.3574219,0.8076172,0.6865234,1.5126953,0.6865234
			c0.7333984,0,1.3164062-0.5361328,1.3164062-1.3720703c0-0.8271484-0.5078125-1.3164062-1.2783203-1.3164062
			c-0.4140625,0-0.6679688,0.1318359-1.0244141,0.3671875l-0.4140625-0.2636719l0.1972656-2.8857422h2.9990234v0.6679688h-2.3222656
			l-0.1591797,1.7763672c0.28125-0.1503906,0.5537109-0.2441406,0.9208984-0.2441406
			c1.0244141,0,1.8613281,0.5820312,1.8613281,1.8789062c0,1.2978516-0.9775391,2.03125-2.0214844,2.03125
			c-0.9589844,0-1.5507812-0.4042969-1.9638672-0.8183594L12.393177,84.4229202z"/>
		<path class="st7" d="M17.0611458,84.4229202c0.3564453,0.3574219,0.8076172,0.6865234,1.5126953,0.6865234
			c0.7333984,0,1.3164062-0.5361328,1.3164062-1.3720703c0-0.8271484-0.5078125-1.3164062-1.2783203-1.3164062
			c-0.4140625,0-0.6679688,0.1318359-1.0244141,0.3671875l-0.4140625-0.2636719l0.1972656-2.8857422h2.9990234v0.6679688h-2.3222656
			l-0.1591797,1.7763672c0.28125-0.1503906,0.5537109-0.2441406,0.9208984-0.2441406
			c1.0244141,0,1.8613281,0.5820312,1.8613281,1.8789062c0,1.2978516-0.9775391,2.03125-2.0214844,2.03125
			c-0.9589844,0-1.5507812-0.4042969-1.9638672-0.8183594L17.0611458,84.4229202z"/>
		<path class="st7" d="M23.8609505,84.2920609c0.4423828,0.4599609,1.0527344,0.7705078,1.7011719,0.7705078
			c0.8085938,0,1.2880859-0.4042969,1.2880859-1.0058594c0-0.6298828-0.4511719-0.8271484-1.0341797-1.0908203l-0.8837891-0.3847656
			c-0.5732422-0.2441406-1.25-0.6865234-1.25-1.5888672c0-0.9394531,0.8271484-1.6357422,1.9462891-1.6357422
			c0.7333984,0,1.3818359,0.3105469,1.8134766,0.7617188l-0.4130859,0.5078125
			c-0.3759766-0.3574219-0.8369141-0.5830078-1.4003906-0.5830078c-0.6962891,0-1.15625,0.3476562-1.15625,0.9023438
			c0,0.5927734,0.5449219,0.8173828,1.0244141,1.0244141l0.8837891,0.3759766
			c0.7138672,0.3105469,1.2685547,0.7333984,1.2685547,1.6455078c0,0.9775391-0.8085938,1.7578125-2.1054688,1.7578125
			c-0.8642578,0-1.6162109-0.3574219-2.1523438-0.9121094L23.8609505,84.2920609z"/>
		<path class="st7" d="M29.9009895,80.1279984h-1.8701172v-0.6582031h4.5205078v0.6582031H30.681263v5.5078125h-0.7802734
			V80.1279984z"/>
	</g>
	<g>
		<path class="st7" d="M9.2457161,127.0020218h2.1611328v0.5917969H9.2457161V127.0020218z"/>
		<path class="st7" d="M12.1568489,129.1914673c1.8046875-1.7949142,2.8203125-2.8759689,2.8203125-3.8437424
			c0-0.6865234-0.3769531-1.1748047-1.1376953-1.1748047c-0.4980469,0-0.9306641,0.3193359-1.2783203,0.7236328
			l-0.4414062-0.4423828c0.4980469-0.5449219,1.0332031-0.9111328,1.8134766-0.9111328
			c1.109375,0,1.7958984,0.7050781,1.7958984,1.7666016c0,1.1279297-1.0253906,2.2470703-2.4443359,3.7314377
			c0.3291016-0.0283203,0.6953125-0.0556641,1.0058594-0.0556641h1.7392578v0.6669922h-3.8730469V129.1914673z"/>
		<path class="st7" d="M16.861927,126.6348343c0-2.0107422,0.7246094-3.0917969,1.9277344-3.0917969
			c1.1933594,0,1.9169922,1.0810547,1.9169922,3.0917969c0,2.0117111-0.7236328,3.1298752-1.9169922,3.1298752
			C17.5865364,129.7647095,16.861927,128.6465454,16.861927,126.6348343z M19.9547005,126.6348343
			c0-1.7568359-0.4697266-2.4716797-1.1650391-2.4716797c-0.7050781,0-1.1757812,0.7148438-1.1757812,2.4716797
			c0,1.7578049,0.4707031,2.509758,1.1757812,2.509758C19.4849739,129.1445923,19.9547005,128.3926392,19.9547005,126.6348343z"/>
		<path class="st7" d="M23.8599739,128.3086548c0.4423828,0.4599609,1.0527344,0.7705078,1.7011719,0.7705078
			c0.8085938,0,1.2880859-0.4042969,1.2880859-1.0058594c0-0.6298752-0.4511719-0.8271408-1.0341797-1.0898361l-0.8828125-0.3857422
			c-0.5742188-0.2441406-1.2509766-0.6865234-1.2509766-1.5888672c0-0.9394531,0.8271484-1.6347656,1.9462891-1.6347656
			c0.7324219,0,1.3818359,0.3095703,1.8134766,0.7607422l-0.4130859,0.5078125
			c-0.3759766-0.3574219-0.8369141-0.5830078-1.4003906-0.5830078c-0.6953125,0-1.15625,0.3476562-1.15625,0.9023438
			c0,0.5917969,0.5449219,0.8183594,1.0244141,1.0244141l0.8837891,0.3759766
			c0.7138672,0.3105469,1.2685547,0.7333984,1.2685547,1.6455002c0,0.9775391-0.8085938,1.7568359-2.1054688,1.7568359
			c-0.8642578,0-1.6162109-0.3564453-2.1523438-0.9111328L23.8599739,128.3086548z"/>
		<path class="st7" d="M29.900013,124.1445999h-1.8701172v-0.6582031h4.5205078v0.6582031h-1.8701172v5.5078049H29.900013
			V124.1445999z"/>
	</g>
	<g>
		<path class="st7" d="M151.2662201,40.245182h1.3730469v-4.4179688h-1.0908203v-0.4980469
			c0.5449219-0.0947266,0.9404297-0.2451172,1.2685547-0.4423828h0.5927734v5.3583984h1.2402344v0.6386719h-3.3837891V40.245182z"/>
		<path class="st7" d="M158.9420013,35.892643c-0.2441406-0.2910156-0.6103516-0.4697266-0.9863281-0.4697266
			c-0.8369141,0-1.5419922,0.6484375-1.5791016,2.546875c0.3759766-0.4599609,0.9111328-0.7519531,1.4003906-0.7519531
			c1.0341797,0,1.7109375,0.6210938,1.7109375,1.8515625c0,1.1474609-0.8085938,1.9277344-1.7763672,1.9277344
			c-1.1757812,0-2.0683594-0.9589844-2.0683594-2.8857422c0-2.40625,1.0898438-3.3369141,2.2841797-3.3369141
			c0.6484375,0,1.109375,0.2724609,1.4472656,0.6386719L158.9420013,35.892643z M158.7545013,39.0694008
			c0-0.7792969-0.3671875-1.2685547-1.109375-1.2685547c-0.3759766,0-0.8457031,0.2255859-1.25,0.7900391
			c0.09375,1.1650391,0.5546875,1.7949219,1.3164062,1.7949219
			C158.3033295,40.385807,158.7545013,39.8594398,158.7545013,39.0694008z"/>
		<path class="st7" d="M160.2740326,37.8662758c0-2.0107422,0.7236328-3.0917969,1.9267578-3.0917969
			c1.1933594,0,1.9169922,1.0810547,1.9169922,3.0917969c0,2.0117188-0.7236328,3.1308594-1.9169922,3.1308594
			C160.9976654,40.9971352,160.2740326,39.8779945,160.2740326,37.8662758z M163.3658295,37.8662758
			c0-1.7578125-0.4697266-2.4716797-1.1650391-2.4716797c-0.7050781,0-1.1748047,0.7138672-1.1748047,2.4716797
			s0.4697266,2.5097656,1.1748047,2.5097656C162.8961029,40.3760414,163.3658295,39.6240883,163.3658295,37.8662758z"/>
		<path class="st7" d="M164.9420013,37.8662758c0-2.0107422,0.7236328-3.0917969,1.9267578-3.0917969
			c1.1933594,0,1.9169922,1.0810547,1.9169922,3.0917969c0,2.0117188-0.7236328,3.1308594-1.9169922,3.1308594
			C165.6656342,40.9971352,164.9420013,39.8779945,164.9420013,37.8662758z M168.0337982,37.8662758
			c0-1.7578125-0.4697266-2.4716797-1.1650391-2.4716797c-0.7050781,0-1.1748047,0.7138672-1.1748047,2.4716797
			s0.4697266,2.5097656,1.1748047,2.5097656C167.5640717,40.3760414,168.0337982,39.6240883,168.0337982,37.8662758z"/>
		<path class="st7" d="M169.6099701,37.8662758c0-2.0107422,0.7236328-3.0917969,1.9267578-3.0917969
			c1.1933594,0,1.9169922,1.0810547,1.9169922,3.0917969c0,2.0117188-0.7236328,3.1308594-1.9169922,3.1308594
			C170.3336029,40.9971352,169.6099701,39.8779945,169.6099701,37.8662758z M172.701767,37.8662758
			c0-1.7578125-0.4697266-2.4716797-1.1650391-2.4716797c-0.7050781,0-1.1748047,0.7138672-1.1748047,2.4716797
			s0.4697266,2.5097656,1.1748047,2.5097656C172.2320404,40.3760414,172.701767,39.6240883,172.701767,37.8662758z"/>
		<path class="st7" d="M176.5318451,36.3154945h0.6396484l0.0654297,0.6582031h0.0283203
			c0.3945312-0.4326172,0.8740234-0.7705078,1.4189453-0.7705078c0.6962891,0,1.0722656,0.3291016,1.2597656,0.8740234
			c0.4794922-0.5175781,0.9492188-0.8740234,1.5039062-0.8740234c0.9404297,0,1.3916016,0.6201172,1.3916016,1.7861328v2.8945312
			h-0.7714844v-2.7919922c0-0.8544922-0.2724609-1.2216797-0.8457031-1.2216797
			c-0.3574219,0-0.7236328,0.2353516-1.1464844,0.7050781v3.3085938h-0.7705078v-2.7919922
			c0-0.8544922-0.2734375-1.2216797-0.8554688-1.2216797c-0.3388672,0-0.7236328,0.2353516-1.1464844,0.7050781v3.3085938
			h-0.7714844V36.3154945z"/>
		<path class="st7" d="M184.1959076,39.8496742c0.3945312,0.3193359,0.7988281,0.5458984,1.34375,0.5458984
			c0.6015625,0,0.9023438-0.3203125,0.9023438-0.7148438c0-0.4697266-0.5449219-0.6767578-1.0429688-0.8652344
			c-0.6484375-0.234375-1.3632812-0.5449219-1.3632812-1.3154297c0-0.7333984,0.5830078-1.296875,1.5703125-1.296875
			c0.5732422,0,1.0712891,0.234375,1.4189453,0.5166016l-0.3662109,0.4892578
			c-0.3105469-0.2353516-0.6396484-0.4042969-1.0429688-0.4042969c-0.5742188,0-0.8369141,0.3095703-0.8369141,0.6572266
			c0,0.4238281,0.4980469,0.5927734,1.0146484,0.7900391c0.6582031,0.2441406,1.3916016,0.5166016,1.3916016,1.3818359
			c0,0.7421875-0.5927734,1.3632812-1.6728516,1.3632812c-0.6484375,0-1.2695312-0.2734375-1.7011719-0.6298828
			L184.1959076,39.8496742z"/>
	</g>
	<g>
		<path class="st7" d="M168.936142,82.3242874h-0.8173828v1.6542969h-0.7333984v-1.6542969h-2.6972656v-0.5078125
			l2.5654297-3.8349609h0.8652344v3.7226562h0.8173828V82.3242874z M167.3853607,81.7041702v-1.7392578
			c0-0.3193359,0.0283203-0.8369141,0.046875-1.15625h-0.0371094c-0.1503906,0.2919922-0.3203125,0.5546875-0.4892578,0.8466797
			l-1.4003906,2.0488281H167.3853607z"/>
		<path class="st7" d="M169.6099701,80.9610062c0-2.0107422,0.7236328-3.0917969,1.9267578-3.0917969
			c1.1933594,0,1.9169922,1.0810547,1.9169922,3.0917969c0,2.0117188-0.7236328,3.1298828-1.9169922,3.1298828
			C170.3336029,84.090889,169.6099701,82.9727249,169.6099701,80.9610062z M172.701767,80.9610062
			c0-1.7568359-0.4697266-2.4716797-1.1650391-2.4716797c-0.7050781,0-1.1748047,0.7148438-1.1748047,2.4716797
			c0,1.7578125,0.4697266,2.5097656,1.1748047,2.5097656C172.2320404,83.4707718,172.701767,82.7188187,172.701767,80.9610062z"/>
		<path class="st7" d="M176.5318451,79.4102249h0.6396484l0.0654297,0.6582031h0.0283203
			c0.3945312-0.4326172,0.8740234-0.7705078,1.4189453-0.7705078c0.6962891,0,1.0722656,0.3291016,1.2597656,0.8740234
			c0.4794922-0.5166016,0.9492188-0.8740234,1.5039062-0.8740234c0.9404297,0,1.3916016,0.6201172,1.3916016,1.7851562v2.8955078
			h-0.7714844v-2.7919922c0-0.8554688-0.2724609-1.2216797-0.8457031-1.2216797
			c-0.3574219,0-0.7236328,0.2353516-1.1464844,0.7050781v3.3085938h-0.7705078v-2.7919922
			c0-0.8554688-0.2734375-1.2216797-0.8554688-1.2216797c-0.3388672,0-0.7236328,0.2353516-1.1464844,0.7050781v3.3085938
			h-0.7714844V79.4102249z"/>
		<path class="st7" d="M184.1959076,82.9444046c0.3945312,0.3203125,0.7988281,0.5449219,1.34375,0.5449219
			c0.6015625,0,0.9023438-0.3193359,0.9023438-0.7138672c0-0.4697266-0.5449219-0.6767578-1.0429688-0.8642578
			c-0.6484375-0.2353516-1.3632812-0.5458984-1.3632812-1.3164062c0-0.7333984,0.5830078-1.296875,1.5703125-1.296875
			c0.5732422,0,1.0712891,0.234375,1.4189453,0.5166016l-0.3662109,0.4892578
			c-0.3105469-0.2353516-0.6396484-0.4042969-1.0429688-0.4042969c-0.5742188,0-0.8369141,0.3095703-0.8369141,0.6582031
			c0,0.4228516,0.4980469,0.5917969,1.0146484,0.7890625c0.6582031,0.2441406,1.3916016,0.5166016,1.3916016,1.3818359
			c0,0.7421875-0.5927734,1.3623047-1.6728516,1.3623047c-0.6484375,0-1.2695312-0.2724609-1.7011719-0.6289062
			L184.1959076,82.9444046z"/>
	</g>
	<g>
		<path class="st7" d="M169.608017,126.6348343c0-2.0107422,0.7246094-3.0917969,1.9277344-3.0917969
			c1.1933594,0,1.9169922,1.0810547,1.9169922,3.0917969c0,2.0117111-0.7236328,3.1298752-1.9169922,3.1298752
			C170.3326263,129.7647095,169.608017,128.6465454,169.608017,126.6348343z M172.7007904,126.6348343
			c0-1.7568359-0.4697266-2.4716797-1.1650391-2.4716797c-0.7050781,0-1.1757812,0.7148438-1.1757812,2.4716797
			c0,1.7578049,0.4707031,2.509758,1.1757812,2.509758C172.2310638,129.1445923,172.7007904,128.3926392,172.7007904,126.6348343z"
			/>
		<path class="st7" d="M176.5308685,125.084053h0.6396484l0.0654297,0.6582031h0.0283203
			c0.3945312-0.4326172,0.8740234-0.7705078,1.4189453-0.7705078c0.6962891,0,1.0722656,0.3291016,1.2597656,0.8740234
			c0.4794922-0.5166016,0.9492188-0.8740234,1.5039062-0.8740234c0.9404297,0,1.3916016,0.6201172,1.3916016,1.7851562v2.8955002
			h-0.7714844v-2.7919846c0-0.8554688-0.2724609-1.2216797-0.8457031-1.2216797
			c-0.3574219,0-0.7236328,0.2353516-1.1464844,0.7050781v3.3085861h-0.7705078v-2.7919846
			c0-0.8554688-0.2724609-1.2216797-0.8554688-1.2216797c-0.3388672,0-0.7236328,0.2353516-1.1474609,0.7050781v3.3085861
			h-0.7705078V125.084053z"/>
		<path class="st7" d="M184.194931,128.6182251c0.3945312,0.3203125,0.7988281,0.5449219,1.3447266,0.5449219
			c0.6015625,0,0.9023438-0.3193359,0.9023438-0.7138672c0-0.4697189-0.5458984-0.6767502-1.0439453-0.8642502
			c-0.6484375-0.2353516-1.3623047-0.5458984-1.3623047-1.3164062c0-0.7333984,0.5820312-1.296875,1.5693359-1.296875
			c0.5732422,0,1.0712891,0.234375,1.4189453,0.5166016l-0.3662109,0.4892578
			c-0.3105469-0.2353516-0.6396484-0.4042969-1.0439453-0.4042969c-0.5732422,0-0.8359375,0.3095703-0.8359375,0.6582031
			c0,0.4228516,0.4980469,0.5917969,1.0146484,0.7890625c0.6582031,0.2441406,1.3916016,0.5166016,1.3916016,1.3818283
			c0,0.7421875-0.5917969,1.3623047-1.6728516,1.3623047c-0.6494141,0-1.2695312-0.2724609-1.7021484-0.6289062
			L184.194931,128.6182251z"/>
	</g>
</g>
<g id="Raster_BG">
</g>
<g id="Raster">
</g>
<g id="Kurvenflächen_Shaper">
</g>
<g id="Graphen_Pfeile">
</g>
<g id="Graphen_L1">
</g>
<g id="Graphen_L2">
</g>
<g id="Punkte_1_">
</g>
<g id="Graphen_Beschriftung">
</g>
<g id="Ko-Typo">
</g>
<g id="Ko-Achsen">
</g>
<g id="Drähte">
</g>
<g id="Edit_Kisten">
</g>
<g id="Edit_Typo">
</g>
<g id="Modul_BGs_L2">
	<g>
		<polyline class="st68" points="77.9032211,37.5699997 85.6382217,37.5699997 85.6382217,128.1799927 77.9032211,128.1799927 		"/>
	</g>
	<line class="st68" x1="85.6382217" y1="82.875" x2="91.439476" y2="82.875"/>
	<g>
		<polyline class="st68" points="232.6032257,37.5699997 240.3382263,37.5699997 240.3382263,128.1799927 232.6032257,128.1799927 
					"/>
	</g>
	<line class="st68" x1="240.3382263" y1="82.875" x2="246.1394806" y2="82.875"/>
	<g>
		<rect x="53.0407257" y="37.5699997" class="st42" width="11.0500002" height="90.6100006"/>
		<rect x="53.0407257" y="37.5699997" class="st91" width="11.0500002" height="90.6100006"/>
	</g>
	<g>
		<rect x="53.5932236" y="82.875" class="st5" width="9.9449997" height="44.9087067"/>
	</g>
	<g>
		<rect x="207.7407227" y="37.5699997" class="st42" width="11.0500002" height="90.6100006"/>
		<rect x="207.7407227" y="37.5699997" class="st92" width="11.0500002" height="90.6100006"/>
	</g>
	<g>
		<rect x="208.2932281" y="82.875" class="st5" width="9.9449997" height="44.9087067"/>
	</g>
</g>
<g id="Modul_BGs_L1">
</g>
<g id="Pfeile_L3">
</g>
<g id="Pfeile_L2.5">
</g>
<g id="Pfeile_L2">
</g>
<g id="Pfeile_L1">
</g>
<g id="Punkte">
</g>
<g id="Produkt">
</g>
<g id="Typo_E4">
</g>
<g id="Label_UI_Neben">
</g>
<g id="Label_UI_Haupt">
</g>
<g id="Typo_UI_Haupt_E2.5">
</g>
<g id="Typo_E_2.5_Neben">
</g>
<g id="Typo_E2">
</g>
<g id="Typo_E1">
</g>
<g id="Plus">
</g>
</svg>
