<?xml version="1.0" encoding="utf-8"?>
<!-- Generator: Adobe Illustrator 21.1.0, SVG Export Plug-In . SVG Version: 6.00 Build 0)  -->
<svg version="1.1" xmlns="http://www.w3.org/2000/svg" xmlns:xlink="http://www.w3.org/1999/xlink" x="0px" y="0px"
	 viewBox="0 0 285.0899963 138.125" style="enable-background:new 0 0 285.0899963 138.125;" xml:space="preserve">
<style type="text/css">
	.st0{display:none;}
	.st1{display:inline;fill:#CACACA;}
	.st2{display:inline;}
	.st3{fill:#202020;}
	.st4{display:inline;fill:#666666;}
	.st5{fill:#E4E4E4;}
	.st6{fill:#F0F0F0;}
	.st7{fill:#CACACA;}
	.st8{enable-background:new    ;}
	.st9{clip-path:url(#SVGID_6_);enable-background:new    ;}
	.st10{clip-path:url(#SVGID_10_);fill-rule:evenodd;clip-rule:evenodd;fill:#FFFFFF;}
	.st11{clip-path:url(#SVGID_10_);fill-rule:evenodd;clip-rule:evenodd;fill:#EEEEEE;}
	.st12{clip-path:url(#SVGID_10_);fill:none;stroke:#666666;stroke-width:0;stroke-linejoin:round;stroke-miterlimit:10;}
	.st13{clip-path:url(#SVGID_10_);}
	.st14{clip-path:url(#SVGID_10_);fill-rule:evenodd;clip-rule:evenodd;fill:#DDDDDD;}
	.st15{clip-path:url(#SVGID_10_);fill:none;stroke:#333333;stroke-width:1.415;stroke-linejoin:round;stroke-miterlimit:10;}
	.st16{clip-path:url(#SVGID_10_);fill-rule:evenodd;clip-rule:evenodd;fill:#CCCCCC;}
	
		.st17{clip-path:url(#SVGID_10_);fill:none;stroke:#666666;stroke-width:0;stroke-linejoin:round;stroke-miterlimit:10;stroke-dasharray:1.4433,1.4433,1.4433,1.4433;}
	.st18{clip-path:url(#SVGID_10_);fill:#666666;}
	.st19{clip-path:url(#SVGID_10_);fill:none;stroke:#333333;stroke-width:0.1;stroke-miterlimit:10;}
	.st20{clip-path:url(#SVGID_10_);fill-rule:evenodd;clip-rule:evenodd;fill:#333333;}
	.st21{clip-path:url(#SVGID_10_);fill-rule:evenodd;clip-rule:evenodd;fill:#B2B2B2;}
	.st22{clip-path:url(#SVGID_10_);fill:none;stroke:#333333;stroke-width:0;stroke-linejoin:round;stroke-miterlimit:10;}
	.st23{clip-path:url(#SVGID_10_);fill-rule:evenodd;clip-rule:evenodd;fill:#FFCCCC;}
	.st24{clip-path:url(#SVGID_10_);fill-rule:evenodd;clip-rule:evenodd;fill:#CCCCFF;}
	.st25{clip-path:url(#SVGID_10_);fill:none;stroke:#000000;stroke-width:0.1;stroke-miterlimit:10;}
	.st26{clip-path:url(#SVGID_10_);fill-rule:evenodd;clip-rule:evenodd;}
	.st27{clip-path:url(#SVGID_10_);fill:none;stroke:#009900;stroke-width:2.8299999;stroke-linejoin:round;stroke-miterlimit:10;}
	.st28{clip-path:url(#SVGID_10_);fill:none;stroke:#000000;stroke-width:0;stroke-linejoin:round;stroke-miterlimit:10;}
	.st29{clip-path:url(#SVGID_10_);fill-rule:evenodd;clip-rule:evenodd;fill:#CC9999;}
	.st30{opacity:0.25;clip-path:url(#SVGID_10_);}
	.st31{clip-path:url(#SVGID_14_);fill-rule:evenodd;clip-rule:evenodd;fill:#009900;}
	.st32{clip-path:url(#SVGID_10_);fill-rule:evenodd;clip-rule:evenodd;fill:#666699;}
	.st33{clip-path:url(#SVGID_10_);fill:none;stroke:#FF3300;stroke-width:1.415;stroke-linejoin:round;stroke-miterlimit:10;}
	.st34{clip-path:url(#SVGID_10_);fill:none;stroke:#00CC00;stroke-width:1.415;stroke-linejoin:round;stroke-miterlimit:10;}
	.st35{clip-path:url(#SVGID_10_);fill:none;stroke:#6666FF;stroke-width:1.415;stroke-linejoin:round;stroke-miterlimit:10;}
	
		.st36{clip-path:url(#SVGID_10_);fill:none;stroke:#006600;stroke-width:0;stroke-linejoin:round;stroke-miterlimit:10;stroke-dasharray:1.4433,1.4433,1.4433,1.4433;}
	.st37{clip-path:url(#SVGID_18_);fill-rule:evenodd;clip-rule:evenodd;fill:#00CC00;}
	.st38{clip-path:url(#SVGID_22_);fill-rule:evenodd;clip-rule:evenodd;fill:#00CC00;}
	.st39{clip-path:url(#SVGID_10_);fill:#666699;}
	.st40{clip-path:url(#SVGID_10_);fill:#006600;}
	.st41{clip-path:url(#SVGID_10_);fill:#FF0000;}
	.st42{fill:#666666;}
	.st43{fill:#FFFFFF;}
	.st44{fill:#F1F1F1;}
	.st45{fill:#B0B0B0;}
	.st46{fill:none;stroke:#FFFFFF;stroke-width:0.5;}
	.st47{fill:none;stroke:#666666;stroke-width:0.5;stroke-dasharray:2,1;}
	.st48{fill:none;stroke:#666666;stroke-width:0.4;stroke-dasharray:2,1;}
	.st49{fill:none;stroke:#363636;stroke-width:0.7;}
	.st50{fill:#CACACA;stroke:#363636;stroke-width:0.7;}
	.st51{fill:#CACACA;stroke:#363636;stroke-width:0.7;stroke-miterlimit:10;}
	.st52{fill:none;stroke:#363636;stroke-width:0.7;stroke-miterlimit:10;}
	.st53{fill:#B0B0B0;stroke:#363636;stroke-width:0.7;stroke-miterlimit:10;}
	.st54{fill:none;stroke:#4E4E4E;stroke-width:0.7;}
	.st55{fill:#363636;}
	.st56{fill:none;stroke:#000000;stroke-width:0.7;}
	.st57{fill:none;stroke:#666666;stroke-width:0.8;}
	.st58{fill:none;stroke:#B0B0B0;stroke-width:2;}
	.st59{fill:none;stroke:#FFFFFF;stroke-width:0.7;}
	.st60{fill:none;stroke:#979797;stroke-width:0.7;}
	.st61{fill:none;stroke:#979797;stroke-width:0.7;stroke-dasharray:2,1;}
	.st62{fill:none;stroke:#666666;stroke-width:0.7;stroke-dasharray:2,1;}
	.st63{fill:none;stroke:#4E4E4E;stroke-width:0.7;stroke-dasharray:2,2;}
	.st64{fill:none;stroke:#E9A460;stroke-width:0.7;stroke-dasharray:2,2;}
	.st65{fill:#7F7F7F;}
	.st66{fill:#979797;}
	.st67{fill:#4E4E4E;}
	.st68{fill:none;stroke:#B0B0B0;stroke-width:0.7;}
	.st69{fill:#DCDCDC;}
	.st70{fill-rule:evenodd;clip-rule:evenodd;fill:#FFFFFF;stroke:#4E4E4E;stroke-width:0.7;}
	.st71{fill:none;stroke:#FFFFFF;stroke-width:2;}
	.st72{fill:none;stroke:#000000;stroke-width:0.7;stroke-dasharray:2.9861286,1.9907523;}
	.st73{fill:none;stroke:#B0B0B0;stroke-width:0.7;stroke-dasharray:2.8557692,1.9038461;}
	.st74{fill:none;stroke:#B0B0B0;stroke-width:0.7;stroke-dasharray:2.9708171,1.9805448;}
	.st75{fill:none;stroke:#202020;stroke-width:0.7;}
	.st76{fill:none;stroke:#F1F1F1;stroke-width:0.7;}
	.st77{fill:none;stroke:#F1F1F1;stroke-width:0.7;stroke-dasharray:2.9861286,1.9907523;}
	.st78{fill:none;stroke:#7F7F7F;stroke-width:0.7;}
	.st79{fill:none;stroke:#7F7F7F;stroke-width:0.7;stroke-dasharray:2.8557692,1.9038461;}
	.st80{fill:none;stroke:#7F7F7F;stroke-width:0.7;stroke-dasharray:2.9708171,1.9805448;}
	.st81{fill:none;stroke:#7F7F7F;stroke-width:0.7;stroke-dasharray:2.8880596,1.9253731;}
	.st82{fill:none;stroke:#7F7F7F;stroke-width:0.7;stroke-dasharray:2.9690082,1.9793389;}
	.st83{fill:none;stroke:#F1F1F1;stroke-width:0.7;stroke-dasharray:3.0030341,2.0020227;}
	.st84{fill:none;stroke:#F1F1F1;stroke-width:0.7;stroke-dasharray:3,2;}
	.st85{fill:none;stroke:#000000;stroke-width:0.7;stroke-dasharray:2.977612,1.9850746;}
	.st86{fill:none;stroke:#000000;stroke-width:0.7;stroke-dasharray:2.981925,1.9879501;}
	.st87{fill:none;stroke:#B0B0B0;stroke-width:0.7;stroke-dasharray:2.8684211,1.9122807;}
	.st88{fill:none;stroke:#B0B0B0;stroke-width:0.7;stroke-dasharray:2.9537036,1.9691358;}
	.st89{fill:none;}
	.st90{fill:none;stroke:#000000;stroke-width:0.7;stroke-dasharray:3.0092633,2.0061755;}
	.st91{fill:none;stroke:#202020;}
	.st92{fill:none;stroke:#000000;}
	.st93{fill:none;stroke:#B0B0B0;stroke-width:0.7;stroke-dasharray:2.5973933,0.8657978;}
	.st94{fill:none;stroke:#B0B0B0;stroke-width:0.7;stroke-dasharray:2.6154222,0.8718074;}
	.st95{fill:none;stroke:#B0B0B0;stroke-width:0.7;stroke-dasharray:2.9428055,0.9809352;}
	.st96{fill:none;stroke:#B0B0B0;stroke-width:0.7;stroke-dasharray:2.9627337,0.9875779;}
	.st97{fill:none;stroke:#000000;stroke-width:0.7;stroke-dasharray:3,2;}
	.st98{fill:none;stroke:#CACACA;stroke-width:0.7;}
	.st99{clip-path:url(#SVGID_24_);fill:#7F7F7F;}
	.st100{clip-path:url(#SVGID_26_);fill:#7F7F7F;}
	.st101{clip-path:url(#SVGID_28_);fill:#7F7F7F;}
	.st102{clip-path:url(#SVGID_30_);fill:#7F7F7F;}
	.st103{clip-path:url(#SVGID_32_);fill:#7F7F7F;}
	.st104{clip-path:url(#SVGID_34_);fill:#7F7F7F;}
	.st105{clip-path:url(#SVGID_36_);fill:#7F7F7F;}
	.st106{clip-path:url(#SVGID_38_);fill:#7F7F7F;}
	.st107{clip-path:url(#SVGID_40_);fill:#7F7F7F;}
	.st108{clip-path:url(#SVGID_42_);fill:#7F7F7F;}
	.st109{clip-path:url(#SVGID_44_);fill:#7F7F7F;}
	.st110{clip-path:url(#SVGID_46_);fill:#7F7F7F;}
	.st111{clip-path:url(#SVGID_48_);fill:#7F7F7F;}
	.st112{clip-path:url(#SVGID_50_);fill:#7F7F7F;}
	.st113{clip-path:url(#SVGID_52_);fill:#7F7F7F;}
	.st114{clip-path:url(#SVGID_54_);fill:#7F7F7F;}
	.st115{clip-path:url(#SVGID_56_);fill:#7F7F7F;}
	.st116{clip-path:url(#SVGID_58_);fill:#7F7F7F;}
	.st117{clip-path:url(#SVGID_60_);fill:#7F7F7F;}
	.st118{clip-path:url(#SVGID_62_);fill:#7F7F7F;}
	.st119{clip-path:url(#SVGID_64_);fill:#7F7F7F;}
	.st120{clip-path:url(#SVGID_66_);fill:#7F7F7F;}
	.st121{clip-path:url(#SVGID_68_);fill:#7F7F7F;}
	.st122{clip-path:url(#SVGID_70_);fill:#7F7F7F;}
	.st123{clip-path:url(#SVGID_72_);fill:#7F7F7F;}
	.st124{clip-path:url(#SVGID_74_);fill:#7F7F7F;}
	.st125{clip-path:url(#SVGID_76_);fill:#7F7F7F;}
	.st126{clip-path:url(#SVGID_78_);fill:#7F7F7F;}
	.st127{clip-path:url(#SVGID_79_);fill:#7F7F7F;}
	.st128{clip-path:url(#SVGID_80_);fill:#7F7F7F;}
	.st129{clip-path:url(#SVGID_81_);fill:#7F7F7F;}
	.st130{clip-path:url(#SVGID_82_);fill:#7F7F7F;}
	.st131{clip-path:url(#SVGID_83_);fill:#4E4E4E;}
	.st132{clip-path:url(#SVGID_84_);fill:#4E4E4E;}
	.st133{clip-path:url(#SVGID_85_);fill:#4E4E4E;}
	.st134{clip-path:url(#SVGID_86_);fill:#4E4E4E;}
	.st135{clip-path:url(#SVGID_87_);fill:#4E4E4E;}
	.st136{clip-path:url(#SVGID_88_);fill:#4E4E4E;}
	.st137{fill:none;stroke:#000000;stroke-width:0.8;}
	.st138{fill:none;stroke:#7F7F7F;stroke-width:0.5;}
	.st139{fill:#E4E4E4;stroke:#7F7F7F;stroke-width:0.7;}
	.st140{fill:#CDCDCD;stroke:#4E4E4E;stroke-width:0.7;}
	.st141{fill:#202020;stroke:#4E4E4E;stroke-miterlimit:10;}
	.st142{fill:#333333;stroke:#999999;stroke-width:0.3;stroke-miterlimit:10;}
	.st143{fill:#999999;}
	.st144{fill:#919191;stroke:#919191;stroke-width:4;}
	.st145{fill:#FFFFFF;stroke:#F0F0F0;stroke-width:2;}
	.st146{fill:none;stroke:#000000;stroke-width:2;}
	.st147{fill:none;stroke:#F2F2F2;stroke-width:1.3;}
	.st148{fill:#202020;stroke:#CCCCCC;stroke-miterlimit:10;}
	.st149{fill:#666666;stroke:#7F7F7F;stroke-width:2;}
	.st150{fill:none;stroke:#FFFFFF;stroke-width:1.3;}
	.st151{fill:#F2F2F2;}
	.st152{stroke:#CCCCCC;stroke-width:0.3;stroke-miterlimit:10;}
</style>
<g id="Beispiele_Plots">
</g>
<g id="Unterschrift">
</g>
<g id="Überschrift_Kasten" class="st0">
</g>
<g id="Überschrift" class="st0">
</g>
<g id="Logo" class="st0">
</g>
<g id="Pagina" class="st0">
</g>
<g id="BG_Devices">
	<rect class="st3" width="285.0899963" height="138.125"/>
	<path class="st42" d="M76.3757324,21.9158344l-35.6200142-0.0000019c-3.5898476,0-6.4999962-2.9101448-6.4999962-6.4999924
		V14.050827c0-3.5898476,2.9101486-6.4999933,6.4999962-6.4999933l35.6200142-0.0000005
		c3.5898438,0,6.4999924,2.9101462,6.4999924,6.4999928v1.3650141
		C82.8757248,19.0056877,79.9655762,21.9158344,76.3757324,21.9158344z"/>
	<g>
		<path class="st43" d="M42.5933723,13.2382812h0.7802734v2.7919922c0,0.8554688,0.2539062,1.2216797,0.8554688,1.2216797
			c0.4697266,0,0.7988281-0.234375,1.2304688-0.7705078v-3.2431641h0.7714844v4.5683594h-0.6396484l-0.0654297-0.7148438h-0.0283203
			c-0.4228516,0.4990234-0.8740234,0.828125-1.5039062,0.828125c-0.9677734,0-1.4003906-0.6210938-1.4003906-1.7861328V13.2382812z"
			/>
		<path class="st43" d="M47.768177,13.2382812h0.6396484l0.0654297,0.6582031h0.0283203
			c0.4326172-0.4326172,0.9023438-0.7705078,1.5322266-0.7705078c0.9589844,0,1.390625,0.6201172,1.390625,1.7861328v2.8945312
			h-0.7705078v-2.7919922c0-0.8544922-0.2626953-1.2216797-0.8642578-1.2216797c-0.4707031,0-0.7900391,0.2441406-1.25,0.7050781
			v3.3085938H47.768177V13.2382812z"/>
		<path class="st43" d="M52.7652473,11.8007812c0-0.3007812,0.2353516-0.4980469,0.5361328-0.4980469
			S53.8365364,11.5,53.8365364,11.8007812c0,0.2910156-0.234375,0.4980469-0.5351562,0.4980469
			S52.7652473,12.0917969,52.7652473,11.8007812z M52.9058723,13.2382812h0.7705078v4.5683594h-0.7705078V13.2382812z"/>
		<path class="st43" d="M55.986927,18.1923828v1.5410156h-0.7705078v-6.4951172h0.6396484l0.0654297,0.5263672h0.0283203
			c0.4140625-0.3476562,0.9208984-0.6386719,1.4570312-0.6386719c1.1748047,0,1.8046875,0.9111328,1.8046875,2.3310547
			c0,1.5507812-0.9306641,2.4628906-1.9736328,2.4628906c-0.4228516,0-0.8466797-0.1982422-1.2695312-0.5273438
			L55.986927,18.1923828z M57.1060677,17.2705078c0.7519531,0,1.3066406-0.6855469,1.3066406-1.8134766
			c0-1.0058594-0.3388672-1.6826172-1.203125-1.6826172c-0.3857422,0-0.7714844,0.2158203-1.2226562,0.6201172v2.3964844
			C56.4009895,17.1396484,56.8052864,17.2705078,57.1060677,17.2705078z"/>
		<path class="st43" d="M62.205677,13.1259766c1.1191406,0,2.1152382,0.8740234,2.1152382,2.40625
			c0,1.5126953-0.9960976,2.3876953-2.1152382,2.3876953c-1.1181641,0-2.1142578-0.875-2.1142578-2.3876953
			C60.0914192,14,61.087513,13.1259766,62.205677,13.1259766z M62.205677,17.2802734
			c0.7900391,0,1.3164062-0.7050781,1.3164062-1.7480469c0-1.0527344-0.5263672-1.7675781-1.3164062-1.7675781
			c-0.7792969,0-1.3154297,0.7148438-1.3154297,1.7675781C60.8902473,16.5751953,61.4263802,17.2802734,62.205677,17.2802734z"/>
		<path class="st43" d="M65.520134,11.1142578h0.7714844v5.8271484c0,0.2451172,0.1025391,0.3388672,0.2158203,0.3388672
			c0.046875,0,0.0849609,0,0.1689453-0.0185547l0.1035156,0.5820312c-0.1035156,0.0478516-0.2353516,0.0761719-0.4414062,0.0761719
			c-0.5830078,0-0.8183594-0.3671875-0.8183594-1.0341797V11.1142578z"/>
		<path class="st43" d="M70.4996262,14.9121094c0-0.5830078-0.1972656-1.1474609-0.9394531-1.1474609
			c-0.5361328,0-1.0058594,0.2451172-1.3632812,0.4892578l-0.3105469-0.5361328
			c0.4228516-0.2724609,1.0625-0.5917969,1.7958984-0.5917969c1.1181641,0,1.5878906,0.7421875,1.5878906,1.8798828v2.8007812
			h-0.6386719l-0.0664062-0.5449219h-0.0185547c-0.4414062,0.3574219-0.9492188,0.6582031-1.5126953,0.6582031
			c-0.7714844,0-1.3447266-0.4794922-1.3447266-1.2978516C67.6890793,15.6259766,68.5543137,15.1279297,70.4996262,14.9121094z
			 M69.2496262,17.2988281c0.4414062,0,0.8085938-0.2158203,1.25-0.6103516v-1.2695312
			c-1.5322266,0.1884766-2.0488281,0.5644531-2.0488281,1.1474609
			C68.450798,17.0830078,68.7984543,17.2988281,69.2496262,17.2988281z"/>
		<path class="st43" d="M72.723259,13.2382812h0.6396484l0.0654297,0.8271484h0.0283203
			c0.3105469-0.5732422,0.7802734-0.9394531,1.296875-0.9394531c0.1972656,0,0.3388672,0.0283203,0.4892578,0.09375
			l-0.1503906,0.6767578c-0.1503906-0.046875-0.2539062-0.0751953-0.4423828-0.0751953
			c-0.3847656,0-0.8457031,0.2822266-1.1552734,1.0527344v2.9326172H72.723259V13.2382812z"/>
	</g>
	<path class="st42" d="M231.0757294,21.9158325H195.455719c-3.5898438,0-6.5-2.9101448-6.5-6.4999924V14.050827
		c0-3.5898476,2.9101562-6.4999933,6.5-6.4999933l35.6200104-0.0000005c3.5898438,0,6.5,2.9101462,6.5,6.4999928v1.3650141
		C237.5757294,19.0056877,234.6655731,21.9158344,231.0757294,21.9158325z"/>
	<g>
		<path class="st43" d="M199.8765717,11.1142578h0.7705078V12.9375l-0.0185547,0.8271484
			c0.4140625-0.3662109,0.9208984-0.6386719,1.4287109-0.6386719c1.1845703,0,1.8144531,0.9111328,1.8144531,2.3212891
			c0,1.5605469-0.9306641,2.4726562-1.9736328,2.4726562c-0.4228516,0-0.9023438-0.2070312-1.3066406-0.5644531h-0.0283203
			l-0.0664062,0.4511719h-0.6201172V11.1142578z M201.7662201,17.2705078c0.7519531,0,1.3066406-0.6855469,1.3066406-1.8134766
			c0-1.0058594-0.3388672-1.6826172-1.203125-1.6826172c-0.3857422,0-0.7900391,0.2158203-1.2226562,0.6201172v2.3964844
			C201.0513763,17.1396484,201.4654388,17.2705078,201.7662201,17.2705078z"/>
		<path class="st43" d="M204.9488373,11.8007812c0-0.3007812,0.2353516-0.4980469,0.5361328-0.4980469
			s0.5351562,0.1972656,0.5351562,0.4980469c0,0.2910156-0.234375,0.4980469-0.5351562,0.4980469
			S204.9488373,12.0917969,204.9488373,11.8007812z M205.0894623,13.2382812h0.7705078v4.5683594h-0.7705078V13.2382812z"/>
		<path class="st43" d="M208.170517,18.1923828v1.5410156h-0.7705078v-6.4951172h0.6396484l0.0654297,0.5263672h0.0283203
			c0.4140625-0.3476562,0.9208984-0.6386719,1.4570312-0.6386719c1.1748047,0,1.8046875,0.9111328,1.8046875,2.3310547
			c0,1.5507812-0.9306641,2.4628906-1.9736328,2.4628906c-0.4228516,0-0.8466797-0.1982422-1.2695312-0.5273438
			L208.170517,18.1923828z M209.2896576,17.2705078c0.7519531,0,1.3066406-0.6855469,1.3066406-1.8134766
			c0-1.0058594-0.3388672-1.6826172-1.203125-1.6826172c-0.3857422,0-0.7714844,0.2158203-1.2226562,0.6201172v2.3964844
			C208.5845795,17.1396484,208.9888763,17.2705078,209.2896576,17.2705078z"/>
		<path class="st43" d="M214.389267,13.1259766c1.1191406,0,2.1152344,0.8740234,2.1152344,2.40625
			c0,1.5126953-0.9960938,2.3876953-2.1152344,2.3876953c-1.1181641,0-2.1142578-0.875-2.1142578-2.3876953
			C212.2750092,14,213.2711029,13.1259766,214.389267,13.1259766z M214.389267,17.2802734
			c0.7900391,0,1.3164062-0.7050781,1.3164062-1.7480469c0-1.0527344-0.5263672-1.7675781-1.3164062-1.7675781
			c-0.7792969,0-1.3154297,0.7148438-1.3154297,1.7675781C213.0738373,16.5751953,213.6099701,17.2802734,214.389267,17.2802734z"/>
		<path class="st43" d="M217.7027435,11.1142578h0.7705078v5.8271484c0,0.2451172,0.1035156,0.3388672,0.2167969,0.3388672
			c0.046875,0,0.0839844,0,0.1689453-0.0185547l0.1035156,0.5820312c-0.1035156,0.0478516-0.2353516,0.0761719-0.4414062,0.0761719
			c-0.5830078,0-0.8183594-0.3671875-0.8183594-1.0341797V11.1142578z"/>
		<path class="st43" d="M222.6832123,14.9121094c0-0.5830078-0.1972656-1.1474609-0.9394531-1.1474609
			c-0.5361328,0-1.0058594,0.2451172-1.3632812,0.4892578l-0.3105469-0.5361328
			c0.4228516-0.2724609,1.0625-0.5917969,1.7958984-0.5917969c1.1181641,0,1.5878906,0.7421875,1.5878906,1.8798828v2.8007812
			h-0.6386719l-0.0664062-0.5449219h-0.0185547c-0.4414062,0.3574219-0.9492188,0.6582031-1.5126953,0.6582031
			c-0.7714844,0-1.3447266-0.4794922-1.3447266-1.2978516C219.8726654,15.6259766,220.7378998,15.1279297,222.6832123,14.9121094z
			 M221.4332123,17.2988281c0.4414062,0,0.8085938-0.2158203,1.25-0.6103516v-1.2695312
			c-1.5322266,0.1884766-2.0488281,0.5644531-2.0488281,1.1474609
			C220.6343842,17.0830078,220.9820404,17.2988281,221.4332123,17.2988281z"/>
		<path class="st43" d="M224.9068451,13.2382812h0.6396484l0.0654297,0.8271484h0.0283203
			c0.3105469-0.5732422,0.7802734-0.9394531,1.296875-0.9394531c0.1972656,0,0.3388672,0.0283203,0.4892578,0.09375
			l-0.1503906,0.6767578c-0.1503906-0.046875-0.2539062-0.0751953-0.4423828-0.0751953
			c-0.3847656,0-0.8457031,0.2822266-1.1552734,1.0527344v2.9326172h-0.7714844V13.2382812z"/>
	</g>
	<g>
		<path class="st7" d="M96.8580246,84.9980469h1.3730469v-4.4179688h-1.0908203v-0.4980469
			c0.5449219-0.0947266,0.9404297-0.2451172,1.2685547-0.4423828h0.5927734v5.3583984h1.2402344v0.6386719h-3.3837891V84.9980469z"
			/>
		<path class="st7" d="M101.1978683,82.6191406c0-2.0107422,0.7236328-3.0917969,1.9267578-3.0917969
			c1.1933594,0,1.9169922,1.0810547,1.9169922,3.0917969c0,2.0117188-0.7236328,3.1308594-1.9169922,3.1308594
			C101.9215012,85.75,101.1978683,84.6308594,101.1978683,82.6191406z M104.2896652,82.6191406
			c0-1.7578125-0.4697266-2.4716797-1.1650391-2.4716797c-0.7050781,0-1.1748047,0.7138672-1.1748047,2.4716797
			s0.4697266,2.5097656,1.1748047,2.5097656C103.8199387,85.1289062,104.2896652,84.3769531,104.2896652,82.6191406z"/>
		<path class="st7" d="M105.8658371,82.6191406c0-2.0107422,0.7236328-3.0917969,1.9267578-3.0917969
			c1.1933594,0,1.9169922,1.0810547,1.9169922,3.0917969c0,2.0117188-0.7236328,3.1308594-1.9169922,3.1308594
			C106.5894699,85.75,105.8658371,84.6308594,105.8658371,82.6191406z M108.957634,82.6191406
			c0-1.7578125-0.4697266-2.4716797-1.1650391-2.4716797c-0.7050781,0-1.1748047,0.7138672-1.1748047,2.4716797
			s0.4697266,2.5097656,1.1748047,2.5097656C108.4879074,85.1289062,108.957634,84.3769531,108.957634,82.6191406z"/>
		<path class="st7" d="M112.3463058,81.2939453c0-1.2402344,0.5546875-1.9365234,1.4003906-1.9365234
			c0.8369141,0,1.4003906,0.6962891,1.4003906,1.9365234c0,1.2412109-0.5634766,1.9550781-1.4003906,1.9550781
			C112.9009933,83.2490234,112.3463058,82.5351562,112.3463058,81.2939453z M114.5552902,81.2939453
			c0-0.9863281-0.3291016-1.4570312-0.8085938-1.4570312c-0.4882812,0-0.8173828,0.4707031-0.8173828,1.4570312
			c0,0.9775391,0.3291016,1.4755859,0.8173828,1.4755859C114.2261887,82.7695312,114.5552902,82.2714844,114.5552902,81.2939453z
			 M113.9254074,85.75l3.4023438-6.3925781h0.5166016L114.442009,85.75H113.9254074z M116.6412277,83.7949219
			c0-1.2314453,0.5546875-1.9365234,1.4013672-1.9365234c0.8359375,0,1.4003906,0.7050781,1.4003906,1.9365234
			c0,1.25-0.5644531,1.9550781-1.4003906,1.9550781C117.1959152,85.75,116.6412277,85.0449219,116.6412277,83.7949219z
			 M118.8502121,83.7949219c0-0.9785156-0.328125-1.4570312-0.8076172-1.4570312s-0.8183594,0.4785156-0.8183594,1.4570312
			c0,0.9765625,0.3388672,1.4755859,0.8183594,1.4755859S118.8502121,84.7714844,118.8502121,83.7949219z"/>
	</g>
	<g>
		<path class="st7" d="M252.2964935,85.1757812c1.8046875-1.7949219,2.8193359-2.8759766,2.8193359-3.84375
			c0-0.6865234-0.375-1.1748047-1.1367188-1.1748047c-0.4980469,0-0.9306641,0.3193359-1.2783203,0.7236328l-0.4423828-0.4423828
			c0.4990234-0.5449219,1.0341797-0.9111328,1.8144531-0.9111328c1.109375,0,1.7949219,0.7050781,1.7949219,1.7666016
			c0,1.1279297-1.0244141,2.2470703-2.4433594,3.7314453c0.3291016-0.0273438,0.6953125-0.0556641,1.0058594-0.0556641h1.7382965
			v0.6669922h-3.8720856V85.1757812z"/>
		<path class="st7" d="M257.0025635,82.6191406c0-2.0107422,0.7236328-3.0917969,1.9267578-3.0917969
			c1.1933594,0,1.9169922,1.0810547,1.9169922,3.0917969c0,2.0117188-0.7236328,3.1308594-1.9169922,3.1308594
			C257.7261963,85.75,257.0025635,84.6308594,257.0025635,82.6191406z M260.0943604,82.6191406
			c0-1.7578125-0.4697266-2.4716797-1.1650391-2.4716797c-0.7050781,0-1.1748047,0.7138672-1.1748047,2.4716797
			s0.4697266,2.5097656,1.1748047,2.5097656C259.6246338,85.1289062,260.0943604,84.3769531,260.0943604,82.6191406z"/>
		<path class="st7" d="M261.6705322,82.6191406c0-2.0107422,0.7236328-3.0917969,1.9267578-3.0917969
			c1.1933594,0,1.9169922,1.0810547,1.9169922,3.0917969c0,2.0117188-0.7236328,3.1308594-1.9169922,3.1308594
			C262.394165,85.75,261.6705322,84.6308594,261.6705322,82.6191406z M264.7623291,82.6191406
			c0-1.7578125-0.4697266-2.4716797-1.1650391-2.4716797c-0.7050781,0-1.1748047,0.7138672-1.1748047,2.4716797
			s0.4697266,2.5097656,1.1748047,2.5097656C264.2926025,85.1289062,264.7623291,84.3769531,264.7623291,82.6191406z"/>
		<path class="st7" d="M268.151001,81.2939453c0-1.2402344,0.5546875-1.9365234,1.4003906-1.9365234
			c0.8369141,0,1.4003906,0.6962891,1.4003906,1.9365234c0,1.2412109-0.5634766,1.9550781-1.4003906,1.9550781
			C268.7056885,83.2490234,268.151001,82.5351562,268.151001,81.2939453z M270.3599854,81.2939453
			c0-0.9863281-0.3291016-1.4570312-0.8085938-1.4570312c-0.4882812,0-0.8173828,0.4707031-0.8173828,1.4570312
			c0,0.9775391,0.3291016,1.4755859,0.8173828,1.4755859C270.0308838,82.7695312,270.3599854,82.2714844,270.3599854,81.2939453z
			 M269.7301025,85.75l3.4023438-6.3925781h0.5166016L270.2467041,85.75H269.7301025z M272.4459229,83.7949219
			c0-1.2314453,0.5546875-1.9365234,1.4013672-1.9365234c0.8359375,0,1.4003906,0.7050781,1.4003906,1.9365234
			c0,1.25-0.5644531,1.9550781-1.4003906,1.9550781C273.0006104,85.75,272.4459229,85.0449219,272.4459229,83.7949219z
			 M274.6549072,83.7949219c0-0.9785156-0.328125-1.4570312-0.8076172-1.4570312s-0.8183594,0.4785156-0.8183594,1.4570312
			c0,0.9765625,0.3388672,1.4755859,0.8183594,1.4755859S274.6549072,84.7714844,274.6549072,83.7949219z"/>
	</g>
	<g>
		<path class="st7" d="M9.884388,40.2441406h1.3730469v-4.4169922h-1.0908203v-0.4980469
			c0.5449219-0.0947266,0.9404297-0.2451172,1.2695312-0.4423828h0.5917969v5.3574219h1.2402344v0.6396484H9.884388V40.2441406z"/>
		<path class="st7" d="M14.2232552,37.8662109c0-2.0107422,0.7246094-3.0917969,1.9277344-3.0917969
			c1.1933594,0,1.9169922,1.0810547,1.9169922,3.0917969c0,2.0117188-0.7236328,3.1298828-1.9169922,3.1298828
			C14.9478645,40.9960938,14.2232552,39.8779297,14.2232552,37.8662109z M17.3160286,37.8662109
			c0-1.7568359-0.4697266-2.4716797-1.1650391-2.4716797c-0.7050781,0-1.1757812,0.7148438-1.1757812,2.4716797
			c0,1.7578125,0.4707031,2.5097656,1.1757812,2.5097656C16.846302,40.3759766,17.3160286,39.6240234,17.3160286,37.8662109z"/>
		<path class="st7" d="M18.8912239,37.8662109c0-2.0107422,0.7246094-3.0917969,1.9277344-3.0917969
			c1.1933594,0,1.9169922,1.0810547,1.9169922,3.0917969c0,2.0117188-0.7236328,3.1298828-1.9169922,3.1298828
			C19.6158333,40.9960938,18.8912239,39.8779297,18.8912239,37.8662109z M21.9839973,37.8662109
			c0-1.7568359-0.4697266-2.4716797-1.1650391-2.4716797c-0.7050781,0-1.1757812,0.7148438-1.1757812,2.4716797
			c0,1.7578125,0.4707031,2.5097656,1.1757812,2.5097656C21.5142708,40.3759766,21.9839973,39.6240234,21.9839973,37.8662109z"/>
		<path class="st7" d="M25.3726692,36.5410156c0-1.2402344,0.5546875-1.9355469,1.4003906-1.9355469
			c0.8369141,0,1.4003906,0.6953125,1.4003906,1.9355469c0,1.2412109-0.5634766,1.9550781-1.4003906,1.9550781
			C25.9273567,38.4960938,25.3726692,37.7822266,25.3726692,36.5410156z M27.5816536,36.5410156
			c0-0.9863281-0.3291016-1.4570312-0.8085938-1.4570312c-0.4892578,0-0.8173828,0.4707031-0.8173828,1.4570312
			c0,0.9775391,0.328125,1.4755859,0.8173828,1.4755859C27.252552,38.0166016,27.5816536,37.5185547,27.5816536,36.5410156z
			 M26.9517708,40.9960938l3.4023438-6.390625h0.5175781l-3.4033203,6.390625H26.9517708z M29.6685677,39.0410156
			c0-1.2304688,0.5537109-1.9355469,1.4003906-1.9355469c0.8359375,0,1.4003906,0.7050781,1.4003906,1.9355469
			c0,1.2509766-0.5644531,1.9550781-1.4003906,1.9550781C30.2222786,40.9960938,29.6685677,40.2919922,29.6685677,39.0410156z
			 M31.8765755,39.0410156c0-0.9765625-0.3291016-1.4560547-0.8076172-1.4560547
			c-0.4794922,0-0.8183594,0.4794922-0.8183594,1.4560547c0,0.9785156,0.3388672,1.4765625,0.8183594,1.4765625
			C31.5474739,40.5175781,31.8765755,40.0195312,31.8765755,39.0410156z"/>
	</g>
	<g>
		<path class="st7" d="M14.4214973,84.4228516c0.3564453,0.3574219,0.8076172,0.6865234,1.5126953,0.6865234
			c0.7333984,0,1.3164062-0.5361328,1.3164062-1.3720703c0-0.8271484-0.5078125-1.3164062-1.2783203-1.3164062
			c-0.4140625,0-0.6679688,0.1318359-1.0244141,0.3671875l-0.4140625-0.2636719l0.1972656-2.8857422h2.9990234v0.6679688h-2.3222656
			l-0.1591797,1.7763672c0.28125-0.1503906,0.5546875-0.2451172,0.9208984-0.2451172
			c1.0244141,0,1.8613281,0.5830078,1.8613281,1.8808594c0,1.296875-0.9775391,2.0292969-2.0214844,2.0292969
			c-0.9580078,0-1.5507812-0.4033203-1.9638672-0.8173828L14.4214973,84.4228516z"/>
		<path class="st7" d="M18.8912239,82.6181641c0-2.0107422,0.7246094-3.0917969,1.9277344-3.0917969
			c1.1933594,0,1.9169922,1.0810547,1.9169922,3.0917969c0,2.0117188-0.7236328,3.1298828-1.9169922,3.1298828
			C19.6158333,85.7480469,18.8912239,84.6298828,18.8912239,82.6181641z M21.9839973,82.6181641
			c0-1.7568359-0.4697266-2.4716797-1.1650391-2.4716797c-0.7050781,0-1.1757812,0.7148438-1.1757812,2.4716797
			c0,1.7578125,0.4707031,2.5097656,1.1757812,2.5097656C21.5142708,85.1279297,21.9839973,84.3759766,21.9839973,82.6181641z"/>
		<path class="st7" d="M25.3726692,81.2929688c0-1.2402344,0.5546875-1.9355469,1.4003906-1.9355469
			c0.8369141,0,1.4003906,0.6953125,1.4003906,1.9355469c0,1.2412109-0.5634766,1.9550781-1.4003906,1.9550781
			C25.9273567,83.2480469,25.3726692,82.5341797,25.3726692,81.2929688z M27.5816536,81.2929688
			c0-0.9863281-0.3291016-1.4570312-0.8085938-1.4570312c-0.4892578,0-0.8173828,0.4707031-0.8173828,1.4570312
			c0,0.9775391,0.328125,1.4755859,0.8173828,1.4755859C27.252552,82.7685547,27.5816536,82.2705078,27.5816536,81.2929688z
			 M26.9517708,85.7480469l3.4023438-6.390625h0.5175781l-3.4033203,6.390625H26.9517708z M29.6685677,83.7929688
			c0-1.2304688,0.5537109-1.9355469,1.4003906-1.9355469c0.8359375,0,1.4003906,0.7050781,1.4003906,1.9355469
			c0,1.2509766-0.5644531,1.9550781-1.4003906,1.9550781C30.2222786,85.7480469,29.6685677,85.0439453,29.6685677,83.7929688z
			 M31.8765755,83.7929688c0-0.9765625-0.3291016-1.4560547-0.8076172-1.4560547
			c-0.4794922,0-0.8183594,0.4794922-0.8183594,1.4560547c0,0.9785156,0.3388672,1.4765625,0.8183594,1.4765625
			C31.5474739,85.2695312,31.8765755,84.7714844,31.8765755,83.7929688z"/>
	</g>
	<g>
		<path class="st7" d="M169.1216888,63.0488281c0.3564453,0.3574219,0.8076172,0.6865234,1.5126953,0.6865234
			c0.7333984,0,1.3164062-0.5361328,1.3164062-1.3720703c0-0.8271484-0.5078125-1.3164062-1.2783203-1.3164062
			c-0.4140625,0-0.6679688,0.1318359-1.0244141,0.3671875l-0.4140625-0.2636719l0.1972656-2.8857422h2.9990234v0.6679688h-2.3222656
			l-0.1591797,1.7763672c0.28125-0.1503906,0.5537109-0.2441406,0.9208984-0.2441406
			c1.0244141,0,1.8613281,0.5820312,1.8613281,1.8789062c0,1.2978516-0.9775391,2.03125-2.0214844,2.03125
			c-0.9589844,0-1.5507812-0.4042969-1.9638672-0.8183594L169.1216888,63.0488281z"/>
		<path class="st7" d="M173.592392,61.2441406c0-2.0107422,0.7236328-3.0917969,1.9267578-3.0917969
			c1.1933594,0,1.9169922,1.0810547,1.9169922,3.0917969c0,2.0117188-0.7236328,3.1308594-1.9169922,3.1308594
			C174.3160248,64.375,173.592392,63.2558594,173.592392,61.2441406z M176.6841888,61.2441406
			c0-1.7578125-0.4697266-2.4716797-1.1650391-2.4716797c-0.7050781,0-1.1748047,0.7138672-1.1748047,2.4716797
			s0.4697266,2.5097656,1.1748047,2.5097656C176.2144623,63.7539062,176.6841888,63.0019531,176.6841888,61.2441406z"/>
		<path class="st7" d="M180.0728607,59.9189453c0-1.2402344,0.5546875-1.9365234,1.4003906-1.9365234
			c0.8369141,0,1.4003906,0.6962891,1.4003906,1.9365234c0,1.2412109-0.5634766,1.9550781-1.4003906,1.9550781
			C180.6275482,61.8740234,180.0728607,61.1601562,180.0728607,59.9189453z M182.2818451,59.9189453
			c0-0.9863281-0.3291016-1.4570312-0.8085938-1.4570312c-0.4882812,0-0.8173828,0.4707031-0.8173828,1.4570312
			c0,0.9775391,0.3291016,1.4755859,0.8173828,1.4755859C181.9527435,61.3945312,182.2818451,60.8964844,182.2818451,59.9189453z
			 M181.6519623,64.375l3.4023438-6.3925781h0.5166016L182.1685638,64.375H181.6519623z M184.3677826,62.4199219
			c0-1.2314453,0.5546875-1.9365234,1.4013672-1.9365234c0.8359375,0,1.4003906,0.7050781,1.4003906,1.9365234
			c0,1.25-0.5644531,1.9550781-1.4003906,1.9550781C184.9224701,64.375,184.3677826,63.6699219,184.3677826,62.4199219z
			 M186.576767,62.4199219c0-0.9785156-0.328125-1.4570312-0.8076172-1.4570312s-0.8183594,0.4785156-0.8183594,1.4570312
			c0,0.9765625,0.3388672,1.4755859,0.8183594,1.4755859S186.576767,63.3964844,186.576767,62.4199219z"/>
	</g>
	<g>
		<path class="st7" d="M18.8912239,126.6347656c0-2.0107422,0.7236328-3.0917969,1.9267578-3.0917969
			c1.1933594,0,1.9169922,1.0810547,1.9169922,3.0917969c0,2.0117188-0.7236328,3.1308594-1.9169922,3.1308594
			C19.6148567,129.765625,18.8912239,128.6464844,18.8912239,126.6347656z M21.9830208,126.6347656
			c0-1.7578125-0.4697266-2.4716797-1.1650391-2.4716797c-0.7050781,0-1.1748047,0.7138672-1.1748047,2.4716797
			s0.4697266,2.5097656,1.1748047,2.5097656C21.5132942,129.1445312,21.9830208,128.3925781,21.9830208,126.6347656z"/>
		<path class="st7" d="M25.3716927,125.3095703c0-1.2402344,0.5546875-1.9365234,1.4003906-1.9365234
			c0.8369141,0,1.4003906,0.6962891,1.4003906,1.9365234c0,1.2412109-0.5634766,1.9550781-1.4003906,1.9550781
			C25.9263802,127.2646484,25.3716927,126.5507812,25.3716927,125.3095703z M27.580677,125.3095703
			c0-0.9863281-0.3291016-1.4570312-0.8085938-1.4570312c-0.4882812,0-0.8173828,0.4707031-0.8173828,1.4570312
			c0,0.9775391,0.3291016,1.4755859,0.8173828,1.4755859C27.2515755,126.7851562,27.580677,126.2871094,27.580677,125.3095703z
			 M26.9507942,129.765625l3.4023438-6.3925781h0.5166016l-3.4023438,6.3925781H26.9507942z M29.6666145,127.8105469
			c0-1.2314453,0.5546875-1.9365234,1.4013672-1.9365234c0.8359375,0,1.4003906,0.7050781,1.4003906,1.9365234
			c0,1.25-0.5644531,1.9550781-1.4003906,1.9550781C30.221302,129.765625,29.6666145,129.0605469,29.6666145,127.8105469z
			 M31.8755989,127.8105469c0-0.9785156-0.328125-1.4570312-0.8076172-1.4570312s-0.8183594,0.4785156-0.8183594,1.4570312
			c0,0.9765625,0.3388672,1.4755859,0.8183594,1.4755859S31.8755989,128.7871094,31.8755989,127.8105469z"/>
	</g>
	<g>
		<path class="st7" d="M164.5845795,40.2441406h1.3730469v-4.4169922h-1.0908203v-0.4980469
			c0.5449219-0.0947266,0.9404297-0.2451172,1.2685547-0.4423828h0.5927734v5.3574219h1.2402344v0.6396484h-3.3837891V40.2441406z"
			/>
		<path class="st7" d="M168.9244232,37.8662109c0-2.0107422,0.7236328-3.0917969,1.9267578-3.0917969
			c1.1933594,0,1.9169922,1.0810547,1.9169922,3.0917969c0,2.0117188-0.7236328,3.1298828-1.9169922,3.1298828
			C169.648056,40.9960938,168.9244232,39.8779297,168.9244232,37.8662109z M172.0162201,37.8662109
			c0-1.7568359-0.4697266-2.4716797-1.1650391-2.4716797c-0.7050781,0-1.1748047,0.7148438-1.1748047,2.4716797
			c0,1.7578125,0.4697266,2.5097656,1.1748047,2.5097656C171.5464935,40.3759766,172.0162201,39.6240234,172.0162201,37.8662109z"/>
		<path class="st7" d="M173.592392,37.8662109c0-2.0107422,0.7236328-3.0917969,1.9267578-3.0917969
			c1.1933594,0,1.9169922,1.0810547,1.9169922,3.0917969c0,2.0117188-0.7236328,3.1298828-1.9169922,3.1298828
			C174.3160248,40.9960938,173.592392,39.8779297,173.592392,37.8662109z M176.6841888,37.8662109
			c0-1.7568359-0.4697266-2.4716797-1.1650391-2.4716797c-0.7050781,0-1.1748047,0.7148438-1.1748047,2.4716797
			c0,1.7578125,0.4697266,2.5097656,1.1748047,2.5097656C176.2144623,40.3759766,176.6841888,39.6240234,176.6841888,37.8662109z"/>
		<path class="st7" d="M180.0728607,36.5410156c0-1.2402344,0.5546875-1.9355469,1.4003906-1.9355469
			c0.8369141,0,1.4003906,0.6953125,1.4003906,1.9355469c0,1.2412109-0.5634766,1.9550781-1.4003906,1.9550781
			C180.6275482,38.4960938,180.0728607,37.7822266,180.0728607,36.5410156z M182.2818451,36.5410156
			c0-0.9863281-0.3291016-1.4570312-0.8085938-1.4570312c-0.4882812,0-0.8173828,0.4707031-0.8173828,1.4570312
			c0,0.9775391,0.3291016,1.4755859,0.8173828,1.4755859C181.9527435,38.0166016,182.2818451,37.5185547,182.2818451,36.5410156z
			 M181.6519623,40.9960938l3.4023438-6.390625h0.5166016l-3.4023438,6.390625H181.6519623z M184.3677826,39.0410156
			c0-1.2304688,0.5546875-1.9355469,1.4013672-1.9355469c0.8359375,0,1.4003906,0.7050781,1.4003906,1.9355469
			c0,1.2509766-0.5644531,1.9550781-1.4003906,1.9550781C184.9224701,40.9960938,184.3677826,40.2919922,184.3677826,39.0410156z
			 M186.576767,39.0410156c0-0.9765625-0.328125-1.4560547-0.8076172-1.4560547s-0.8183594,0.4794922-0.8183594,1.4560547
			c0,0.9785156,0.3388672,1.4765625,0.8183594,1.4765625S186.576767,40.0195312,186.576767,39.0410156z"/>
	</g>
	<g>
		<path class="st7" d="M173.592392,80.9619141c0-2.0107422,0.7236328-3.0917969,1.9267578-3.0917969
			c1.1933594,0,1.9169922,1.0810547,1.9169922,3.0917969c0,2.0117188-0.7236328,3.1298828-1.9169922,3.1298828
			C174.3160248,84.0917969,173.592392,82.9736328,173.592392,80.9619141z M176.6841888,80.9619141
			c0-1.7568359-0.4697266-2.4716797-1.1650391-2.4716797c-0.7050781,0-1.1748047,0.7148438-1.1748047,2.4716797
			c0,1.7578125,0.4697266,2.5097656,1.1748047,2.5097656C176.2144623,83.4716797,176.6841888,82.7197266,176.6841888,80.9619141z"/>
		<path class="st7" d="M180.0728607,79.6367188c0-1.2402344,0.5546875-1.9355469,1.4003906-1.9355469
			c0.8369141,0,1.4003906,0.6953125,1.4003906,1.9355469c0,1.2412109-0.5634766,1.9550781-1.4003906,1.9550781
			C180.6275482,81.5917969,180.0728607,80.8779297,180.0728607,79.6367188z M182.2818451,79.6367188
			c0-0.9863281-0.3291016-1.4570312-0.8085938-1.4570312c-0.4882812,0-0.8173828,0.4707031-0.8173828,1.4570312
			c0,0.9775391,0.3291016,1.4755859,0.8173828,1.4755859C181.9527435,81.1123047,182.2818451,80.6142578,182.2818451,79.6367188z
			 M181.6519623,84.0917969l3.4023438-6.390625h0.5166016l-3.4023438,6.390625H181.6519623z M184.3677826,82.1367188
			c0-1.2304688,0.5546875-1.9355469,1.4013672-1.9355469c0.8359375,0,1.4003906,0.7050781,1.4003906,1.9355469
			c0,1.2509766-0.5644531,1.9550781-1.4003906,1.9550781C184.9224701,84.0917969,184.3677826,83.3876953,184.3677826,82.1367188z
			 M186.576767,82.1367188c0-0.9765625-0.328125-1.4560547-0.8076172-1.4560547s-0.8183594,0.4794922-0.8183594,1.4560547
			c0,0.9785156,0.3388672,1.4765625,0.8183594,1.4765625S186.576767,83.1152344,186.576767,82.1367188z"/>
	</g>
	<g>
		<path class="st7" d="M159.7183685,127.0205078h3.7402344v0.5361328h-3.7402344V127.0205078z"/>
		<path class="st7" d="M164.5836029,129.0136719h1.3730469v-4.4179688h-1.0908203v-0.4980469
			c0.5449219-0.0947266,0.9404297-0.2451172,1.2695312-0.4423828h0.5917969v5.3583984h1.2402344v0.6386719h-3.3837891V129.0136719z"
			/>
		<path class="st7" d="M168.9224701,126.6347656c0-2.0107422,0.7246094-3.0917969,1.9277344-3.0917969
			c1.1933594,0,1.9169922,1.0810547,1.9169922,3.0917969c0,2.0117188-0.7236328,3.1308594-1.9169922,3.1308594
			C169.6470795,129.765625,168.9224701,128.6464844,168.9224701,126.6347656z M172.0152435,126.6347656
			c0-1.7578125-0.4697266-2.4716797-1.1650391-2.4716797c-0.7050781,0-1.1757812,0.7138672-1.1757812,2.4716797
			s0.4707031,2.5097656,1.1757812,2.5097656C171.545517,129.1445312,172.0152435,128.3925781,172.0152435,126.6347656z"/>
		<path class="st7" d="M173.5904388,126.6347656c0-2.0107422,0.7246094-3.0917969,1.9277344-3.0917969
			c1.1933594,0,1.9169922,1.0810547,1.9169922,3.0917969c0,2.0117188-0.7236328,3.1308594-1.9169922,3.1308594
			C174.3150482,129.765625,173.5904388,128.6464844,173.5904388,126.6347656z M176.6832123,126.6347656
			c0-1.7578125-0.4697266-2.4716797-1.1650391-2.4716797c-0.7050781,0-1.1757812,0.7138672-1.1757812,2.4716797
			s0.4707031,2.5097656,1.1757812,2.5097656C176.2134857,129.1445312,176.6832123,128.3925781,176.6832123,126.6347656z"/>
		<path class="st7" d="M180.0709076,125.3095703c0-1.2402344,0.5546875-1.9365234,1.4003906-1.9365234
			c0.8369141,0,1.4003906,0.6962891,1.4003906,1.9365234c0,1.2412109-0.5634766,1.9550781-1.4003906,1.9550781
			C180.6255951,127.2646484,180.0709076,126.5507812,180.0709076,125.3095703z M182.279892,125.3095703
			c0-0.9863281-0.3291016-1.4570312-0.8085938-1.4570312c-0.4882812,0-0.8173828,0.4707031-0.8173828,1.4570312
			c0,0.9775391,0.3291016,1.4755859,0.8173828,1.4755859C181.9507904,126.7851562,182.279892,126.2871094,182.279892,125.3095703z
			 M181.6500092,129.765625l3.4023438-6.3925781h0.5166016l-3.4023438,6.3925781H181.6500092z M184.3658295,127.8105469
			c0-1.2314453,0.5546875-1.9365234,1.4013672-1.9365234c0.8359375,0,1.4003906,0.7050781,1.4003906,1.9365234
			c0,1.25-0.5644531,1.9550781-1.4003906,1.9550781C184.920517,129.765625,184.3658295,129.0605469,184.3658295,127.8105469z
			 M186.5748138,127.8105469c0-0.9785156-0.328125-1.4570312-0.8076172-1.4570312s-0.8183594,0.4785156-0.8183594,1.4570312
			c0,0.9765625,0.3388672,1.4755859,0.8183594,1.4755859S186.5748138,128.7871094,186.5748138,127.8105469z"/>
	</g>
</g>
<g id="Raster_BG">
</g>
<g id="Raster">
</g>
<g id="Kurvenflächen_Shaper">
</g>
<g id="Graphen_Pfeile">
</g>
<g id="Graphen_L1">
</g>
<g id="Graphen_L2">
</g>
<g id="Punkte_1_">
</g>
<g id="Graphen_Beschriftung">
</g>
<g id="Ko-Typo">
</g>
<g id="Ko-Achsen">
</g>
<g id="Drähte">
</g>
<g id="Edit_Kisten">
</g>
<g id="Edit_Typo">
</g>
<g id="Modul_BGs_L2">
	<g>
		<rect x="53.0407257" y="37.5699997" class="st42" width="11.0500002" height="90.6100006"/>
		<rect x="53.0407257" y="37.5699997" class="st91" width="11.0500002" height="90.6100006"/>
	</g>
	<g>
		<polyline class="st68" points="77.9032211,37.5699997 85.6382217,37.5699997 85.6382217,128.1799927 77.9032211,128.1799927 		"/>
	</g>
	<g>
		<rect x="54.1457253" y="82.875" class="st5" width="8.8400002" height="44.9087067"/>
	</g>
	<g>
		<rect x="207.7407227" y="37.5699997" class="st42" width="11.0500002" height="90.6100006"/>
		<rect x="207.7407227" y="37.5699997" class="st92" width="11.0500002" height="90.6100006"/>
	</g>
	<g>
		<rect x="208.8457184" y="61.3274994" class="st5" width="8.8400002" height="20.4424992"/>
	</g>
	<line class="st56" x1="207.7407227" y1="81.7699966" x2="218.7907257" y2="81.7699966"/>
	<line class="st68" x1="85.6382217" y1="82.875" x2="91.439476" y2="82.875"/>
	<g>
		<g>
			<line class="st68" x1="36.5281868" y1="82.875" x2="38.0281868" y2="82.875"/>
			<line class="st95" x1="39.0090218" y1="82.875" x2="50.2897835" y2="82.875"/>
			<line class="st68" x1="50.780262" y1="82.875" x2="52.280262" y2="82.875"/>
		</g>
	</g>
	<g>
		<g>
			<line class="st68" x1="191.2281342" y1="61.3276367" x2="192.7281342" y2="61.3276367"/>
			<line class="st96" x1="193.715683" y1="61.3276367" x2="205.0728607" y2="61.3276367"/>
			<line class="st68" x1="205.5667572" y1="61.3276367" x2="207.0667572" y2="61.3276367"/>
		</g>
	</g>
	<g>
		<polyline class="st68" points="232.6032257,37.5699997 240.3382263,37.5699997 240.3382263,128.1799927 232.6032257,128.1799927 
					"/>
	</g>
	<line class="st68" x1="240.3382263" y1="82.875" x2="246.1394806" y2="82.875"/>
</g>
<g id="Modul_BGs_L1">
</g>
<g id="Pfeile_L3">
</g>
<g id="Pfeile_L2.5">
</g>
<g id="Pfeile_L2">
</g>
<g id="Pfeile_L1">
</g>
<g id="Punkte">
</g>
<g id="Produkt">
</g>
<g id="Typo_E4">
</g>
<g id="Label_UI_Neben">
</g>
<g id="Label_UI_Haupt">
</g>
<g id="Typo_UI_Haupt_E2.5">
</g>
<g id="Typo_E_2.5_Neben">
</g>
<g id="Typo_E2">
</g>
<g id="Typo_E1">
</g>
<g id="Plus">
</g>
</svg>
