<svg xmlns="http://www.w3.org/2000/svg" viewBox="0 0 570 276"><title>para-unibi</title><rect width="570.18" height="276" fill="#202020"/><rect x="68.51145" y="15.10167" width="97.24" height="28.73" rx="6.49999" ry="6.49999" fill="#666"/><path d="M85.26172,32.26953V26.48438h1.55859v5.5791c0,1.709.50684,2.4414,1.709,2.4414.93945,0,1.59668-.46972,2.46093-1.54V26.48438h1.54v9.1289H91.25293l-.13086-1.42773h-.05664a3.85867,3.85867,0,0,1-3.00586,1.65332C86.125,35.83887,85.26172,34.59863,85.26172,32.26953Z" fill="#fff"/><path d="M95.61133,26.48438h1.27734l.13184,1.31445h.05664a4.30324,4.30324,0,0,1,3.06152-1.54c1.916,0,2.7793,1.24023,2.7793,3.56933v5.78516h-1.54v-5.5791c0-1.709-.52539-2.44141-1.72754-2.44141-.93945,0-1.57812.48828-2.499,1.40918v6.61133h-1.54Z" fill="#fff"/><path d="M105.60547,23.61035a1.07315,1.07315,0,0,1,2.14062,0,1.07307,1.07307,0,0,1-2.14062,0Zm.28125,2.874h1.54v9.1289h-1.54Z" fill="#fff"/><path d="M110.50781,26.48438h1.27735l.13183,1.05175h.05664a4.72467,4.72467,0,0,1,2.91114-1.27734c2.34765,0,3.60644,1.82226,3.60644,4.6582,0,3.09961-1.85937,4.92188-3.94433,4.92188a4.23426,4.23426,0,0,1-2.53614-1.05176l.03711,1.59668v3.08008h-1.54Zm6.38672,4.43261c0-2.00976-.67676-3.3623-2.4043-3.3623a3.84909,3.84909,0,0,0-2.44238,1.24023v4.79a3.61962,3.61962,0,0,0,2.23535.958C115.78613,34.543,116.89453,33.17188,116.89453,30.917Z" fill="#fff"/><path d="M120.25781,31.06738c0-3.06152,1.99121-4.80859,4.22657-4.80859,2.23437,0,4.22558,1.74707,4.22558,4.80859,0,3.02442-1.99121,4.77149-4.22558,4.77149C122.249,35.83887,120.25781,34.0918,120.25781,31.06738Zm6.85547,0c0-2.10351-1.05176-3.53125-2.6289-3.53125-1.55958,0-2.62989,1.42774-2.62989,3.53125,0,2.085,1.07031,3.49414,2.62989,3.49414C126.06152,34.56152,127.11328,33.15234,127.11328,31.06738Z" fill="#fff"/><path d="M131.11426,33.77246V22.23926h1.54V33.88477c0,.48925.207.67675.43261.67675a1.2761,1.2761,0,0,0,.33789-.03808l.207,1.165a2.07778,2.07778,0,0,1-.88282.15039C131.584,35.83887,131.11426,35.10645,131.11426,33.77246Z" fill="#fff"/><path d="M135.34082,33.24609c0-1.99023,1.71-2.98632,5.59766-3.418,0-1.165-.376-2.292-1.87793-2.292a4.96184,4.96184,0,0,0-2.72364.97657l-.60156-1.07032a6.777,6.777,0,0,1,3.58789-1.18359c2.23535,0,3.17383,1.48437,3.17383,3.75683v5.59766H141.2207l-.13183-1.08984h-.05664a4.86981,4.86981,0,0,1-3.02442,1.31543A2.48405,2.48405,0,0,1,135.34082,33.24609Zm5.59766.13184V30.8418c-3.043.376-4.09473,1.12793-4.09473,2.292,0,1.0332.71387,1.46484,1.61523,1.46484A3.69934,3.69934,0,0,0,140.93848,33.37793Z" fill="#fff"/><path d="M145.37207,26.48438h1.27734l.13184,1.65332h.05566a3.12292,3.12292,0,0,1,2.59278-1.87891,2.26178,2.26178,0,0,1,.97656.18848l-.30078,1.35156a2.555,2.555,0,0,0-.88281-.14942c-.76954,0-1.69043.56348-2.31055,2.10352v5.86035h-1.54Z" fill="#fff"/><rect x="377.91145" y="15.10167" width="97.24" height="28.73" rx="6.49999" ry="6.49999" fill="#666"/><path d="M401.27441,34.67383h-.05664l-.13086.93945h-1.24023v-13.374h1.54v3.64453l-.03711,1.65234a4.511,4.511,0,0,1,2.85547-1.27734c2.36621,0,3.625,1.82226,3.625,4.63965,0,3.11816-1.85938,4.94043-3.94434,4.94043A4.09281,4.09281,0,0,1,401.27441,34.67383Zm4.959-3.75684c0-2.00976-.67676-3.3623-2.4043-3.3623a3.76587,3.76587,0,0,0-2.44238,1.24023v4.79a3.58,3.58,0,0,0,2.23535.958C405.125,34.543,406.2334,33.17188,406.2334,30.917Z" fill="#fff"/><path d="M409.95312,23.61035a1.07316,1.07316,0,0,1,2.14063,0,1.07308,1.07308,0,0,1-2.14063,0Zm.28126,2.874h1.54v9.1289h-1.54Z" fill="#fff"/><path d="M414.85547,26.48438h1.27734l.13184,1.05175h.05664a4.72464,4.72464,0,0,1,2.91113-1.27734c2.34766,0,3.60645,1.82226,3.60645,4.6582,0,3.09961-1.85938,4.92188-3.94434,4.92188a4.23423,4.23423,0,0,1-2.53613-1.05176l.03711,1.59668v3.08008h-1.54Zm6.38672,4.43261c0-2.00976-.67676-3.3623-2.4043-3.3623a3.849,3.849,0,0,0-2.44238,1.24023v4.79a3.6196,3.6196,0,0,0,2.23535.958C420.13379,34.543,421.24219,33.17188,421.24219,30.917Z" fill="#fff"/><path d="M424.60547,31.06738c0-3.06152,1.99121-4.80859,4.22656-4.80859,2.23438,0,4.22559,1.74707,4.22559,4.80859,0,3.02442-1.99121,4.77149-4.22559,4.77149C426.59668,35.83887,424.60547,34.0918,424.60547,31.06738Zm6.85547,0c0-2.10351-1.05176-3.53125-2.62891-3.53125-1.55957,0-2.62988,1.42774-2.62988,3.53125,0,2.085,1.07031,3.49414,2.62988,3.49414C430.40918,34.56152,431.46094,33.15234,431.46094,31.06738Z" fill="#fff"/><path d="M435.46191,33.77246V22.23926h1.54V33.88477c0,.48925.207.67675.43262.67675a1.2761,1.2761,0,0,0,.33789-.03808l.207,1.165a2.0777,2.0777,0,0,1-.88281.15039C435.93164,35.83887,435.46191,35.10645,435.46191,33.77246Z" fill="#fff"/><path d="M439.68848,33.24609c0-1.99023,1.71-2.98632,5.59765-3.418,0-1.165-.376-2.292-1.87793-2.292a4.96184,4.96184,0,0,0-2.72363.97657l-.60156-1.07032a6.77694,6.77694,0,0,1,3.58789-1.18359c2.23535,0,3.17383,1.48437,3.17383,3.75683v5.59766h-1.27637l-.13184-1.08984h-.05664a4.86981,4.86981,0,0,1-3.02441,1.31543A2.484,2.484,0,0,1,439.68848,33.24609Zm5.59765.13184V30.8418c-3.043.376-4.09472,1.12793-4.09472,2.292,0,1.0332.71386,1.46484,1.61523,1.46484A3.69932,3.69932,0,0,0,445.28613,33.37793Z" fill="#fff"/><path d="M449.71973,26.48438h1.27734l.13184,1.65332h.05566a3.12292,3.12292,0,0,1,2.59277-1.87891,2.26182,2.26182,0,0,1,.97657.18848l-.30079,1.35156a2.55493,2.55493,0,0,0-.88281-.14942c-.76953,0-1.69043.56348-2.31054,2.10352v5.86035h-1.54Z" fill="#fff"/><path d="M193.7168,169.99609H196.459V161.168h-2.17871v-.99609a7.11855,7.11855,0,0,0,2.53516-.88282H197.999v10.707h2.4795v1.27735H193.7168Z" fill="#cacaca"/><path d="M202.39453,165.24414c0-4.01953,1.44629-6.17969,3.85059-6.17969,2.38574,0,3.832,2.16016,3.832,6.17969s-1.44629,6.25488-3.832,6.25488C203.84082,171.499,202.39453,169.26367,202.39453,165.24414Zm6.17969,0c0-3.51269-.93848-4.94043-2.3291-4.94043-1.40821,0-2.34766,1.42774-2.34766,4.94043s.93945,5.01465,2.34766,5.01465C207.63574,170.25879,208.57422,168.75684,208.57422,165.24414Z" fill="#cacaca"/><path d="M211.73047,165.24414c0-4.01953,1.44629-6.17969,3.85058-6.17969,2.38575,0,3.832,2.16016,3.832,6.17969s-1.44629,6.25488-3.832,6.25488C213.17676,171.499,211.73047,169.26367,211.73047,165.24414Zm6.17969,0c0-3.51269-.93848-4.94043-2.32911-4.94043-1.4082,0-2.34765,1.42774-2.34765,4.94043s.93945,5.01465,2.34765,5.01465C216.97168,170.25879,217.91016,168.75684,217.91016,165.24414Z" fill="#cacaca"/><path d="M224.6543,162.5957c0-2.46093,1.1084-3.87011,2.79882-3.87011,1.67188,0,2.79883,1.40918,2.79883,3.87011,0,2.49805-1.12695,3.90625-2.79883,3.90625C225.7627,166.502,224.6543,165.09375,224.6543,162.5957Zm4.41406,0c0-1.9541-.65723-2.91211-1.61524-2.91211-.97656,0-1.63378.958-1.63378,2.91211,0,1.95313.65722,2.94922,1.63378,2.94922C228.41113,165.54492,229.06836,164.54883,229.06836,162.5957Zm5.541-3.87011h1.05273L228.8623,171.499h-1.05175Zm-1.3711,8.86621c0-2.46094,1.1084-3.86914,2.79883-3.86914,1.67187,0,2.79883,1.4082,2.79883,3.86914,0,2.498-1.127,3.90722-2.79883,3.90722C234.34668,171.499,233.23828,170.08984,233.23828,167.5918Zm4.41406,0c0-1.95313-.65722-2.91114-1.61523-2.91114-.97656,0-1.63379.958-1.63379,2.91114s.65723,2.94922,1.63379,2.94922C236.99512,170.541,237.65234,169.54492,237.65234,167.5918Z" fill="#cacaca"/><path d="M504.59277,170.35352c3.60645-3.5879,5.63575-5.74805,5.63575-7.68262a2.1235,2.1235,0,0,0-2.27344-2.34863,3.53337,3.53337,0,0,0-2.55469,1.44628l-.88281-.88281a4.70663,4.70663,0,0,1,3.626-1.82129,3.328,3.328,0,0,1,3.58692,3.53125c0,2.25391-2.04688,4.48926-4.88379,7.457.6582-.05664,1.39062-.11328,2.01074-.11328H512.332v1.334h-7.73926Z" fill="#cacaca"/><path d="M514.00391,165.24414c0-4.01953,1.44629-6.17969,3.85058-6.17969,2.38574,0,3.832,2.16016,3.832,6.17969s-1.44629,6.25488-3.832,6.25488C515.4502,171.499,514.00391,169.26367,514.00391,165.24414Zm6.17968,0c0-3.51269-.93847-4.94043-2.3291-4.94043-1.4082,0-2.34765,1.42774-2.34765,4.94043s.93945,5.01465,2.34765,5.01465C519.24512,170.25879,520.18359,168.75684,520.18359,165.24414Z" fill="#cacaca"/><path d="M523.33984,165.24414c0-4.01953,1.44629-6.17969,3.85059-6.17969,2.38574,0,3.832,2.16016,3.832,6.17969s-1.44629,6.25488-3.832,6.25488C524.78613,171.499,523.33984,169.26367,523.33984,165.24414Zm6.17969,0c0-3.51269-.93848-4.94043-2.3291-4.94043-1.4082,0-2.34766,1.42774-2.34766,4.94043s.93946,5.01465,2.34766,5.01465C528.58105,170.25879,529.51953,168.75684,529.51953,165.24414Z" fill="#cacaca"/><path d="M536.26367,162.5957c0-2.46093,1.1084-3.87011,2.79883-3.87011,1.67188,0,2.79883,1.40918,2.79883,3.87011,0,2.49805-1.12695,3.90625-2.79883,3.90625C537.37207,166.502,536.26367,165.09375,536.26367,162.5957Zm4.41406,0c0-1.9541-.65722-2.91211-1.61523-2.91211-.97656,0-1.63379.958-1.63379,2.91211,0,1.95313.65723,2.94922,1.63379,2.94922C540.02051,165.54492,540.67773,164.54883,540.67773,162.5957Zm5.541-3.87011h1.05273l-6.7998,12.77343h-1.05176Zm-1.37109,8.86621c0-2.46094,1.10839-3.86914,2.79882-3.86914,1.67188,0,2.79883,1.4082,2.79883,3.86914,0,2.498-1.12695,3.90722-2.79883,3.90722C545.95605,171.499,544.84766,170.08984,544.84766,167.5918Zm4.41406,0c0-1.95313-.65723-2.91114-1.61524-2.91114-.97656,0-1.63378.958-1.63378,2.91114s.65722,2.94922,1.63378,2.94922C548.60449,170.541,549.26172,169.54492,549.26172,167.5918Z" fill="#cacaca"/><path d="M19.80664,80.49023h2.74219V71.66211H20.37012V70.666a7.11849,7.11849,0,0,0,2.53515-.88282h1.1836v10.707h2.47949v1.27735H19.80664Z" fill="#cacaca"/><path d="M28.48438,75.73828c0-4.01953,1.44628-6.17969,3.85058-6.17969,2.38574,0,3.832,2.16016,3.832,6.17969s-1.44629,6.25488-3.832,6.25488C29.93066,81.99316,28.48438,79.75781,28.48438,75.73828Zm6.17968,0c0-3.51269-.93847-4.94043-2.3291-4.94043-1.4082,0-2.34766,1.42774-2.34766,4.94043s.93946,5.01465,2.34766,5.01465C33.72559,80.75293,34.66406,79.251,34.66406,75.73828Z" fill="#cacaca"/><path d="M37.82031,75.73828c0-4.01953,1.44629-6.17969,3.85059-6.17969,2.38574,0,3.832,2.16016,3.832,6.17969s-1.44629,6.25488-3.832,6.25488C39.2666,81.99316,37.82031,79.75781,37.82031,75.73828Zm6.17969,0c0-3.51269-.93848-4.94043-2.3291-4.94043-1.4082,0-2.34766,1.42774-2.34766,4.94043s.93946,5.01465,2.34766,5.01465C43.06152,80.75293,44,79.251,44,75.73828Z" fill="#cacaca"/><path d="M50.74414,73.08984c0-2.46093,1.1084-3.87011,2.79883-3.87011,1.67187,0,2.79883,1.40918,2.79883,3.87011,0,2.49805-1.127,3.90625-2.79883,3.90625C51.85254,76.99609,50.74414,75.58789,50.74414,73.08984Zm4.41406,0c0-1.9541-.65722-2.91211-1.61523-2.91211-.97656,0-1.63379.958-1.63379,2.91211,0,1.95313.65723,2.94922,1.63379,2.94922C54.501,76.03906,55.1582,75.043,55.1582,73.08984Zm5.541-3.87011H61.752l-6.7998,12.77343H53.90039Zm-1.3711,8.86621c0-2.46094,1.1084-3.86914,2.79883-3.86914,1.67188,0,2.79883,1.4082,2.79883,3.86914,0,2.498-1.127,3.90722-2.79883,3.90722C60.43652,81.99316,59.32812,80.584,59.32812,78.08594Zm4.41407,0c0-1.95313-.65723-2.91114-1.61524-2.91114-.97656,0-1.63379.958-1.63379,2.91114s.65723,2.94922,1.63379,2.94922C63.085,81.03516,63.74219,80.03906,63.74219,78.08594Z" fill="#cacaca"/><path d="M28.12891,169.8623l.751-1.01367a4.07648,4.07648,0,0,0,3.02442,1.3711,2.58606,2.58606,0,0,0,2.62988-2.74219,2.40808,2.40808,0,0,0-2.55469-2.62988,3.37305,3.37305,0,0,0-2.04785.73242l-.82617-.52637.39453-5.7666h5.99219v1.334H30.85254l-.31934,3.54981a3.68794,3.68794,0,0,1,1.84082-.48828,3.45011,3.45011,0,0,1,3.71875,3.75683,3.91815,3.91815,0,0,1-4.03808,4.05762A5.25051,5.25051,0,0,1,28.12891,169.8623Z" fill="#cacaca"/><path d="M37.82129,165.24219c0-4.01953,1.44629-6.17969,3.85059-6.17969,2.38574,0,3.832,2.16016,3.832,6.17969s-1.44629,6.25488-3.832,6.25488C39.26758,171.49707,37.82129,169.26172,37.82129,165.24219Zm6.17969,0c0-3.5127-.93848-4.94043-2.3291-4.94043-1.40821,0-2.34766,1.42773-2.34766,4.94043s.93945,5.01465,2.34766,5.01465C43.0625,170.25684,44.001,168.75488,44.001,165.24219Z" fill="#cacaca"/><path d="M50.74512,162.59375c0-2.46094,1.1084-3.87012,2.79883-3.87012,1.67187,0,2.79882,1.40918,2.79882,3.87012,0,2.49805-1.127,3.90625-2.79882,3.90625C51.85352,166.5,50.74512,165.0918,50.74512,162.59375Zm4.41406,0c0-1.9541-.65723-2.91211-1.61523-2.91211-.97657,0-1.63379.958-1.63379,2.91211,0,1.95313.65722,2.94922,1.63379,2.94922C54.502,165.543,55.15918,164.54688,55.15918,162.59375Zm5.541-3.87012h1.05273l-6.79981,12.77344H53.90137Zm-1.3711,8.86621c0-2.46093,1.1084-3.86914,2.79883-3.86914,1.67187,0,2.79883,1.40821,2.79883,3.86914,0,2.498-1.127,3.90723-2.79883,3.90723C60.4375,171.49707,59.3291,170.08789,59.3291,167.58984Zm4.41406,0c0-1.95312-.65722-2.91113-1.61523-2.91113-.97656,0-1.63379.958-1.63379,2.91113s.65723,2.94922,1.63379,2.94922C63.08594,170.53906,63.74316,169.543,63.74316,167.58984Z" fill="#cacaca"/><path d="M337.5293,127.11426l.751-1.01367a4.07651,4.07651,0,0,0,3.02442,1.37109,2.58605,2.58605,0,0,0,2.62988-2.74219,2.40808,2.40808,0,0,0-2.55469-2.62988,3.37305,3.37305,0,0,0-2.04785.73242l-.82617-.52637.39453-5.7666h5.99219v1.334h-4.63965l-.31934,3.5498a3.688,3.688,0,0,1,1.84082-.48828,3.45011,3.45011,0,0,1,3.71875,3.75684,3.91814,3.91814,0,0,1-4.03808,4.05761A5.25051,5.25051,0,0,1,337.5293,127.11426Z" fill="#cacaca"/><path d="M347.22168,122.49414c0-4.01953,1.44629-6.17969,3.85059-6.17969,2.38574,0,3.832,2.16016,3.832,6.17969s-1.44629,6.25488-3.832,6.25488C348.668,128.749,347.22168,126.51367,347.22168,122.49414Zm6.17969,0c0-3.51269-.93848-4.94043-2.3291-4.94043-1.40821,0-2.34766,1.42774-2.34766,4.94043s.93945,5.01465,2.34766,5.01465C352.46289,127.50879,353.40137,126.00684,353.40137,122.49414Z" fill="#cacaca"/><path d="M360.14551,119.8457c0-2.46093,1.1084-3.87011,2.79883-3.87011,1.67187,0,2.79882,1.40918,2.79882,3.87011,0,2.49805-1.12695,3.90625-2.79882,3.90625C361.25391,123.752,360.14551,122.34375,360.14551,119.8457Zm4.41406,0c0-1.9541-.65723-2.91211-1.61523-2.91211-.97657,0-1.63379.958-1.63379,2.91211,0,1.95313.65722,2.94922,1.63379,2.94922C363.90234,122.79492,364.55957,121.79883,364.55957,119.8457Zm5.541-3.87011h1.05273l-6.7998,12.77343h-1.05176Zm-1.3711,8.86621c0-2.46094,1.1084-3.86914,2.79883-3.86914,1.67188,0,2.79883,1.4082,2.79883,3.86914,0,2.498-1.127,3.90722-2.79883,3.90722C369.83789,128.749,368.72949,127.33984,368.72949,124.8418Zm4.41406,0c0-1.95313-.65722-2.91114-1.61523-2.91114-.97656,0-1.63379.958-1.63379,2.91114s.65723,2.94922,1.63379,2.94922C372.48633,127.791,373.14355,126.79492,373.14355,124.8418Z" fill="#cacaca"/><path d="M37.81934,253.27539c0-4.01953,1.44628-6.17969,3.85058-6.17969,2.38574,0,3.832,2.16016,3.832,6.17969s-1.44629,6.25488-3.832,6.25488C39.26562,259.53027,37.81934,257.29492,37.81934,253.27539Zm6.17968,0c0-3.51269-.93847-4.94043-2.3291-4.94043-1.4082,0-2.34765,1.42774-2.34765,4.94043s.93945,5.01465,2.34765,5.01465C43.06055,258.29,43.999,256.78809,43.999,253.27539Z" fill="#cacaca"/><path d="M50.74316,250.627c0-2.46093,1.1084-3.87011,2.79883-3.87011,1.67188,0,2.79883,1.40918,2.79883,3.87011,0,2.49805-1.127,3.90625-2.79883,3.90625C51.85156,254.5332,50.74316,253.125,50.74316,250.627Zm4.41407,0c0-1.9541-.65723-2.91211-1.61524-2.91211-.97656,0-1.63379.958-1.63379,2.91211,0,1.95313.65723,2.94922,1.63379,2.94922C54.5,253.57617,55.15723,252.58008,55.15723,250.627Zm5.541-3.87011H61.751l-6.79981,12.77343H53.89941Zm-1.37109,8.86621c0-2.46094,1.1084-3.86914,2.79883-3.86914,1.67187,0,2.79882,1.4082,2.79882,3.86914,0,2.498-1.127,3.90722-2.79882,3.90722C60.43555,259.53027,59.32715,258.12109,59.32715,255.62305Zm4.41406,0c0-1.95313-.65723-2.91114-1.61523-2.91114-.97657,0-1.63379.958-1.63379,2.91114s.65722,2.94922,1.63379,2.94922C63.084,258.57227,63.74121,257.57617,63.74121,255.62305Z" fill="#cacaca"/><path d="M329.207,80.49023h2.74219V71.66211h-2.17871V70.666a7.11842,7.11842,0,0,0,2.53515-.88282h1.1836v10.707h2.47949v1.27735H329.207Z" fill="#cacaca"/><path d="M337.88477,75.73828c0-4.01953,1.44628-6.17969,3.85058-6.17969,2.38574,0,3.832,2.16016,3.832,6.17969s-1.44629,6.25488-3.832,6.25488C339.33105,81.99316,337.88477,79.75781,337.88477,75.73828Zm6.17968,0c0-3.51269-.93847-4.94043-2.3291-4.94043-1.4082,0-2.34765,1.42774-2.34765,4.94043s.93945,5.01465,2.34765,5.01465C343.126,80.75293,344.06445,79.251,344.06445,75.73828Z" fill="#cacaca"/><path d="M347.2207,75.73828c0-4.01953,1.44629-6.17969,3.85059-6.17969,2.38574,0,3.832,2.16016,3.832,6.17969s-1.44629,6.25488-3.832,6.25488C348.667,81.99316,347.2207,79.75781,347.2207,75.73828Zm6.17969,0c0-3.51269-.93848-4.94043-2.3291-4.94043-1.4082,0-2.34766,1.42774-2.34766,4.94043s.93946,5.01465,2.34766,5.01465C352.46191,80.75293,353.40039,79.251,353.40039,75.73828Z" fill="#cacaca"/><path d="M360.14453,73.08984c0-2.46093,1.1084-3.87011,2.79883-3.87011,1.67187,0,2.79883,1.40918,2.79883,3.87011,0,2.49805-1.127,3.90625-2.79883,3.90625C361.25293,76.99609,360.14453,75.58789,360.14453,73.08984Zm4.41406,0c0-1.9541-.65722-2.91211-1.61523-2.91211-.97656,0-1.63379.958-1.63379,2.91211,0,1.95313.65723,2.94922,1.63379,2.94922C363.90137,76.03906,364.55859,75.043,364.55859,73.08984Zm5.541-3.87011h1.05273l-6.7998,12.77343h-1.05176Zm-1.37109,8.86621c0-2.46094,1.10839-3.86914,2.79882-3.86914,1.67188,0,2.79883,1.4082,2.79883,3.86914,0,2.498-1.12695,3.90722-2.79883,3.90722C369.83691,81.99316,368.72852,80.584,368.72852,78.08594Zm4.41406,0c0-1.95313-.65723-2.91114-1.61524-2.91114-.97656,0-1.63379.958-1.63379,2.91114s.65723,2.94922,1.63379,2.94922C372.48535,81.03516,373.14258,80.03906,373.14258,78.08594Z" fill="#cacaca"/><path d="M347.22168,161.92969c0-4.01953,1.44629-6.17969,3.85059-6.17969,2.38574,0,3.832,2.16016,3.832,6.17969s-1.44629,6.25488-3.832,6.25488C348.668,168.18457,347.22168,165.94922,347.22168,161.92969Zm6.17969,0c0-3.5127-.93848-4.94043-2.3291-4.94043-1.40821,0-2.34766,1.42773-2.34766,4.94043s.93945,5.01465,2.34766,5.01465C352.46289,166.94434,353.40137,165.44238,353.40137,161.92969Z" fill="#cacaca"/><path d="M360.14551,159.28125c0-2.46094,1.1084-3.87012,2.79883-3.87012,1.67187,0,2.79882,1.40918,2.79882,3.87012,0,2.49805-1.12695,3.90625-2.79882,3.90625C361.25391,163.1875,360.14551,161.7793,360.14551,159.28125Zm4.41406,0c0-1.9541-.65723-2.91211-1.61523-2.91211-.97657,0-1.63379.958-1.63379,2.91211,0,1.95313.65722,2.94922,1.63379,2.94922C363.90234,162.23047,364.55957,161.23438,364.55957,159.28125Zm5.541-3.87012h1.05273l-6.7998,12.77344h-1.05176Zm-1.3711,8.86621c0-2.46093,1.1084-3.86914,2.79883-3.86914,1.67188,0,2.79883,1.40821,2.79883,3.86914,0,2.498-1.127,3.90723-2.79883,3.90723C369.83789,168.18457,368.72949,166.77539,368.72949,164.27734Zm4.41406,0c0-1.95312-.65722-2.91113-1.61523-2.91113-.97656,0-1.63379.958-1.63379,2.91113s.65723,2.94922,1.63379,2.94922C372.48633,167.22656,373.14355,166.23047,373.14355,164.27734Z" fill="#cacaca"/><path d="M319.47461,254.04492h7.47559v1.07129h-7.47559Z" fill="#cacaca"/><path d="M329.20508,258.02734h2.74219v-8.82812h-2.17872v-.9961a7.11855,7.11855,0,0,0,2.53516-.88281h1.18359v10.707h2.4795v1.27735h-6.76172Z" fill="#cacaca"/><path d="M337.88281,253.27539c0-4.01953,1.44629-6.17969,3.85059-6.17969,2.38574,0,3.832,2.16016,3.832,6.17969s-1.44629,6.25488-3.832,6.25488C339.3291,259.53027,337.88281,257.29492,337.88281,253.27539Zm6.17969,0c0-3.51269-.93848-4.94043-2.3291-4.94043-1.4082,0-2.34766,1.42774-2.34766,4.94043s.93946,5.01465,2.34766,5.01465C343.124,258.29,344.0625,256.78809,344.0625,253.27539Z" fill="#cacaca"/><path d="M347.21875,253.27539c0-4.01953,1.44629-6.17969,3.85059-6.17969,2.38574,0,3.832,2.16016,3.832,6.17969s-1.44629,6.25488-3.832,6.25488C348.665,259.53027,347.21875,257.29492,347.21875,253.27539Zm6.17969,0c0-3.51269-.93848-4.94043-2.3291-4.94043-1.40821,0-2.34766,1.42774-2.34766,4.94043s.93945,5.01465,2.34766,5.01465C352.46,258.29,353.39844,256.78809,353.39844,253.27539Z" fill="#cacaca"/><path d="M360.14258,250.627c0-2.46093,1.1084-3.87011,2.79883-3.87011,1.67187,0,2.79882,1.40918,2.79882,3.87011,0,2.49805-1.127,3.90625-2.79882,3.90625C361.251,254.5332,360.14258,253.125,360.14258,250.627Zm4.41406,0c0-1.9541-.65723-2.91211-1.61523-2.91211-.97657,0-1.63379.958-1.63379,2.91211,0,1.95313.65722,2.94922,1.63379,2.94922C363.89941,253.57617,364.55664,252.58008,364.55664,250.627Zm5.541-3.87011h1.05273l-6.7998,12.77343h-1.05176Zm-1.3711,8.86621c0-2.46094,1.1084-3.86914,2.79883-3.86914,1.67188,0,2.79883,1.4082,2.79883,3.86914,0,2.498-1.127,3.90722-2.79883,3.90722C369.835,259.53027,368.72656,258.12109,368.72656,255.62305Zm4.41406,0c0-1.95313-.65722-2.91114-1.61523-2.91114-.97656,0-1.63379.958-1.63379,2.91114s.65723,2.94922,1.63379,2.94922C372.4834,258.57227,373.14062,257.57617,373.14062,255.62305Z" fill="#cacaca"/><rect x="106.08145" y="75.14" width="22.1" height="181.22" fill="#666"/><rect x="106.08145" y="75.14" width="22.1" height="181.22" fill="none" stroke="#202020"/><polyline points="155.806 75.14 171.276 75.14 171.276 256.36 155.806 256.36" fill="none" stroke="#b0b0b0" stroke-width="2"/><rect x="108.29145" y="165.75" width="17.68" height="89.81741" fill="#e4e4e4"/><rect x="415.48145" y="75.14" width="22.1" height="181.22" fill="#666"/><rect x="415.48145" y="75.14" width="22.1" height="181.22" fill="none" stroke="#000"/><rect x="417.69145" y="122.655" width="17.68" height="40.885" fill="#e4e4e4"/><line x1="415.48145" y1="163.54" x2="437.58145" y2="163.54" fill="none" stroke="#000" stroke-width="0.7"/><line x1="171.27645" y1="165.75" x2="182.87895" y2="165.75" fill="none" stroke="#b0b0b0" stroke-width="2"/><line x1="73.05615" y1="165.75" x2="74.55615" y2="165.75" fill="none" stroke="#b0b0b0" stroke-width="2"/><line x1="77.72339" y1="165.75" x2="101.47705" y2="165.75" fill="none" stroke="#b0b0b0" stroke-width="2" stroke-dasharray="3.16715 3.16715"/><line x1="103.06055" y1="165.75" x2="104.56055" y2="165.75" fill="none" stroke="#b0b0b0" stroke-width="2"/><line x1="382.4563" y1="122.65479" x2="383.9563" y2="122.65479" fill="none" stroke="#b0b0b0" stroke-width="2"/><line x1="384.94507" y1="122.65479" x2="412.13892" y2="122.65479" fill="none" stroke="#b0b0b0" stroke-width="2" stroke-dasharray="2.96659 0.98886"/><line x1="412.6333" y1="122.65479" x2="414.1333" y2="122.65479" fill="none" stroke="#b0b0b0" stroke-width="2"/><polyline points="465.206 75.14 480.676 75.14 480.676 256.36 465.206 256.36" fill="none" stroke="#b0b0b0" stroke-width="2"/><line x1="480.67645" y1="165.75" x2="492.27895" y2="165.75" fill="none" stroke="#b0b0b0" stroke-width="2"/></svg>