<svg xmlns="http://www.w3.org/2000/svg" xmlns:xlink="http://www.w3.org/1999/xlink" viewBox="0 0 410.11 228.72284">
  <defs>
    <linearGradient id="a" x1="240.36778" y1="181.00246" x2="240.36778" y2="26.40051" gradientUnits="userSpaceOnUse">
      <stop offset="0" stop-color="#4d4d4d"/>
      <stop offset="0.02" stop-color="#999"/>
      <stop offset="0.98" stop-color="#999"/>
      <stop offset="1" stop-color="#4d4d4d"/>
    </linearGradient>
    <linearGradient id="b" x1="53.78684" y1="439.23866" x2="53.78684" y2="19.60484" xlink:href="#a"/>
  </defs>
  <title>pbribbons</title>
  <g>
    <rect x="0.25" y="0.25" width="409.61035" height="228.22266" rx="1.75" ry="1.75" fill="#1a1a1a"/>
    <path d="M408.11011.5a1.50164,1.50164,0,0,1,1.5,1.5V226.7229a1.50164,1.50164,0,0,1-1.5,1.5H2a1.50172,1.50172,0,0,1-1.5-1.5V2A1.50172,1.50172,0,0,1,2,.5H408.11011m0-.5H2A2.00591,2.00591,0,0,0,0,2V226.7229a2.00591,2.00591,0,0,0,2,2H408.11011a2.006,2.006,0,0,0,2-2V2a2.006,2.006,0,0,0-2-2Z" fill="#333"/>
  </g>
  <g>
    <rect x="240.90616" y="43.11091" width="50.12108" height="31.46785"/>
    <path d="M71.62557,181.00246H409.11V165.71215H123.62416a2.72966,2.72966,0,0,1-2.72974-2.72974V142.958a2.72966,2.72966,0,0,1,2.72974-2.72974H409.11v-22.086H123.62416a2.72966,2.72966,0,0,1-2.72974-2.72974V95.38822a2.72966,2.72966,0,0,1,2.72974-2.72974H409.11v-66.258H71.62557ZM244.00577,48.66784a2.72966,2.72966,0,0,1,2.72974-2.72974h38.83327a2.72966,2.72966,0,0,1,2.72974,2.72974V68.69222a2.72966,2.72966,0,0,1-2.72974,2.72974H246.73551a2.72966,2.72966,0,0,1-2.72974-2.72974Z" stroke="#1a1a1a" stroke-miterlimit="10" stroke-width="0.5" fill="url(#a)"/>
    <path d="M71.62557,227.72284h3.398V186.94867a3.39782,3.39782,0,0,1,3.39774-3.39785H93.71163a3.39782,3.39782,0,0,1,3.39774,3.39785v40.77417h1.699v-42.4731a1.69893,1.69893,0,0,1,1.699-1.69892h18.68811a1.69893,1.69893,0,0,1,1.699,1.69892v42.4731h1.699V186.94867a3.39782,3.39782,0,0,1,3.39774-3.39785h13.59139a3.39782,3.39782,0,0,1,3.39774,3.39785v40.77417h1.699v-42.4731a1.69893,1.69893,0,0,1,1.699-1.69892h18.68811a1.69893,1.69893,0,0,1,1.699,1.69892v42.4731h1.69876V186.94867a3.39786,3.39786,0,0,1,3.398-3.39785h15.29037a3.39782,3.39782,0,0,1,3.39774,3.39785v40.77417h1.699V186.94867a3.39782,3.39782,0,0,1,3.39774-3.39785h15.29037a3.39786,3.39786,0,0,1,3.398,3.39785v40.77417h1.69876v-42.4731a1.69907,1.69907,0,0,1,1.699-1.69892H236.421a1.69893,1.69893,0,0,1,1.699,1.69892v42.4731h1.699V186.94867a3.39782,3.39782,0,0,1,3.39774-3.39785H256.8081a3.39786,3.39786,0,0,1,3.398,3.39785v40.77417h1.69876v-42.4731a1.69893,1.69893,0,0,1,1.699-1.69892H282.2919a1.69893,1.69893,0,0,1,1.699,1.69892v42.4731h1.699V186.94867a3.39782,3.39782,0,0,1,3.39774-3.39785h6.7957a3.39786,3.39786,0,0,1,3.398,3.39785v40.77417H300.98v-42.4731a1.69893,1.69893,0,0,1,1.699-1.69892h18.68833a1.69888,1.69888,0,0,1,1.69876,1.69892v42.4731h1.699V186.94867a3.39782,3.39782,0,0,1,3.39774-3.39785h15.29037a3.39786,3.39786,0,0,1,3.398,3.39785v40.77417h1.69876V186.94867a3.398,3.398,0,0,1,3.398-3.39785H367.238a3.39786,3.39786,0,0,1,3.398,3.39785v40.77417h1.699v-42.4731a1.69893,1.69893,0,0,1,1.699-1.69892H392.722a1.69888,1.69888,0,0,1,1.69876,1.69892v42.4731h1.699V186.94867a3.39786,3.39786,0,0,1,3.398-3.39785H409.11v-2.54836H71.62557Z" fill="#333" stroke="#1a1a1a" stroke-miterlimit="10" stroke-width="0.5"/>
    <path d="M71.62557,181.00246V22.33455a2.72966,2.72966,0,0,0-2.72974-2.72974h-30.218a2.7298,2.7298,0,0,0-2.72974,2.72974V227.72284H71.62557Z" stroke="#1a1a1a" stroke-miterlimit="10" stroke-width="0.5" fill="url(#b)"/>
    <path d="M120.89441,101.1531v14.2595a2.72966,2.72966,0,0,0,2.72974,2.72974H409.11V101.1531Z" fill="#1a1a1a"/>
    <path d="M120.89441,95.38822v5.76488H409.11V92.65848H123.62416A2.72966,2.72966,0,0,0,120.89441,95.38822ZM374.0339,93.508a3.39785,3.39785,0,1,1-3.398,3.39785A3.39782,3.39782,0,0,1,374.0339,93.508Zm-40.34943,0a3.39785,3.39785,0,1,1-3.398,3.39785A3.39782,3.39782,0,0,1,333.68447,93.508Zm-40.34943,0a3.39785,3.39785,0,1,1-3.398,3.39785A3.39782,3.39782,0,0,1,293.335,93.508Zm-40.34943,0a3.39785,3.39785,0,1,1-3.398,3.39785A3.39782,3.39782,0,0,1,252.98562,93.508Zm-40.34943,0a3.39785,3.39785,0,1,1-3.398,3.39785A3.39782,3.39782,0,0,1,212.63619,93.508Zm-40.34943,0a3.39785,3.39785,0,1,1-3.398,3.39785A3.39786,3.39786,0,0,1,172.28676,93.508Zm-40.34943,0a3.39785,3.39785,0,1,1-3.398,3.39785A3.39786,3.39786,0,0,1,131.93734,93.508Z" fill="#242424"/>
    <path d="M120.89441,148.72291v14.2595a2.72966,2.72966,0,0,0,2.72974,2.72974H409.11V148.72291Z" fill="#1a1a1a"/>
    <g>
      <path d="M348.2998,227.97266V186.94824a3.65241,3.65241,0,0,1,3.64844-3.64746h15.29a3.6522,3.6522,0,0,1,3.64746,3.64746v41.02441Z" fill="#fff"/>
      <path d="M367.238,183.55078a3.39783,3.39783,0,0,1,3.39795,3.39783V227.7229H348.5498V186.94861a3.398,3.398,0,0,1,3.39795-3.39783H367.238m0-.5H351.94775a3.90224,3.90224,0,0,0-3.89795,3.89783V228.2229H371.136V186.94861a3.90224,3.90224,0,0,0-3.89795-3.89783Z"/>
    </g>
    <g>
      <path d="M395.87012,227.97266V186.94922a3.65241,3.65241,0,0,1,3.64746-3.64844h9.84277v42.36816a2.30685,2.30685,0,0,1-2.30469,2.30371Z" fill="#fff"/>
      <path d="M409.11011,183.55078v42.118a2.05415,2.05415,0,0,1-2.0542,2.05408H396.11963V186.94873a3.39809,3.39809,0,0,1,3.39795-3.39795h9.59253m.5-.5H399.51758a3.90234,3.90234,0,0,0-3.89795,3.89795V228.2229h11.43628a2.557,2.557,0,0,0,2.5542-2.55408v-42.618Z"/>
    </g>
    <path d="M119.19544,183.55082H100.50733a1.69893,1.69893,0,0,0-1.699,1.69892v42.4731h.39631c-.00644-17.25276-.01022-29.46212-.01022-29.48472,0-.853.69154-14.39317,1.54459-14.39317,0-.07714,17.03178-.13967,17.08421-.13967.853,0,2.59.69149,2.59,1.54448.01888,0,.03665,18.66639.05154,42.4731h.42963v-42.4731A1.69893,1.69893,0,0,0,119.19544,183.55082Z"/>
    <path d="M99.58053,211.22649c0-.76768.62246-27.08742,1.39-27.08742,0-.15428,15.37545-.27935,15.48053-.27935.76774,0,3.481.62234,3.481,1.39.04043,0,.078,19.0587.10885,42.4731h.42386c-.01488-23.8067-.03266-42.4731-.05154-42.4731,0-.853-1.737-1.54448-2.59-1.54448-.05243,0-17.08421.06253-17.08421.13967-.853,0-1.54459,13.54019-1.54459,14.39317,0,.0226.00378,12.232.01022,29.48472h.38809C99.58475,217.72723,99.58053,211.26109,99.58053,211.22649Z" fill="#050505"/>
    <path d="M116.451,183.85972c-.10508,0-15.48053.12507-15.48053.27935-.76752,0-1.39,26.31974-1.39,27.08742,0,.0346.00422,6.50074.01222,16.49635h.37809c-.00267-2.21964-.004-3.48393-.004-3.508,0-.68238.55315-39.78173,1.23558-39.78173,0-.23137,13.7189-.419,13.87641-.419.68244,0,4.37207.5532,4.37207,1.23558.06531,0,.12529,19.55637.17327,42.4731h.41675c-.03088-23.41439-.06842-42.4731-.10885-42.4731C119.93207,184.48206,117.21877,183.85972,116.451,183.85972Z" fill="#090909"/>
    <path d="M101.4339,184.72725c0-.30851,12.0628-.55864,12.27273-.55864.59713,0,5.2631.48406,5.2631,1.08113.09441,0,.18083,20.2177.24747,42.4731h.407c-.048-22.91673-.108-42.4731-.17327-42.4731,0-.68238-3.68964-1.23558-4.37207-1.23558-.1575,0-13.87641.1876-13.87641.419-.68244,0-1.23558,39.09935-1.23558,39.78173,0,.024.00133,1.28834.004,3.508h.4785C100.61951,212.60374,100.99627,184.72725,101.4339,184.72725Z" fill="#0e0e0e"/>
    <path d="M113.70663,184.16861c-.20993,0-12.27273.25014-12.27273.55864-.43763,0-.81439,27.87649-.98456,42.99558h.46229c.16817-18.84583.44318-42.70146.754-42.70146,0-.38565,10.40647-.69832,10.66883-.69832.51183,0,6.15414.41491,6.15414.92669.1304,0,.2488,21.15388.33455,42.4731h.39409c-.06664-22.2554-.15306-42.4731-.24747-42.4731C118.96973,184.65267,114.30376,184.16861,113.70663,184.16861Z" fill="#131313"/>
    <path d="M101.8973,185.3155c0-.46279,8.74992-.838,9.06493-.838.42652,0,7.04517.34577,7.04517.77224.17727,0,.33544,22.61278.44007,42.4731h.37565c-.08575-21.31921-.20415-42.4731-.33455-42.4731,0-.51177-5.64231-.92669-6.15414-.92669-.26236,0-10.66883.31267-10.66883.69832-.31078,0-.5858,23.85563-.754,42.70146h.41408C101.467,207.17,101.67071,185.3155,101.8973,185.3155Z" fill="#171717"/>
    <path d="M110.96223,184.47751c-.315,0-9.06493.37521-9.06493.838-.22659,0-.4303,21.85448-.57158,42.40734h.38187c.11018-21.53636.25858-42.11327.42141-42.11327,0-.53993,7.09359-.97761,7.461-.97761.34122,0,7.9362.27663,7.9362.61779.24436,0,.45807,25.34418.57381,42.4731h.34744c-.10463-19.86032-.2628-42.4731-.44007-42.4731C118.00739,184.82328,111.38875,184.47751,110.96223,184.47751Z" fill="#1c1c1c"/>
    <path d="M102.3607,185.90369c0-.20127.582-.38953,1.376-.55265a.75616.75616,0,0,1,.36454-.1013h.1735c1.61056-.28029,3.68942-.46334,3.94311-.46334.25591,0,8.82723.20743,8.82723.46334.37987,0,.69443,35.26893.7513,42.4731H118.1c-.11574-17.12891-.32944-42.4731-.57381-42.4731,0-.34116-7.595-.61779-7.9362-.61779-.36743,0-7.461.43768-7.461.97761-.16283,0-.31123,20.57691-.42141,42.11327h.35854C102.14633,205.56186,102.24874,185.90369,102.3607,185.90369Z" fill="#202020"/>
    <path d="M108.21782,184.7864c-.25369,0-2.33254.183-3.94311.46334h.41275a3.52735,3.52735,0,0,1,.786-.15445l.1555.00094a10.88666,10.88666,0,0,1,1.2167-.15539c.17061,0,9.71826.13829,9.71826.3089.47251,0,.85549,28.98112.85549,29.67527,0,.03515-.006,4.97931-.01666,12.79783h.39364c-.05687-7.20417-.37143-42.4731-.7513-42.4731C117.04505,184.99383,108.47374,184.7864,108.21782,184.7864Z" fill="#252525"/>
    <path d="M102.5924,186.19781c0-.20871.34477-.40508.83572-.5783a1.04932,1.04932,0,0,1,.30856-.26846c-.794.16311-1.376.35138-1.376.55265-.112,0-.21437,19.65817-.29457,41.81915h.34211C102.45956,205.14683,102.52331,186.19781,102.5924,186.19781Z" fill="#252525"/>
    <path d="M102.8241,186.49193a.84379.84379,0,0,1,.43252-.60457,1.456,1.456,0,0,1,.1715-.26785c-.49094.17322-.83572.3696-.83572.5783-.06909,0-.13284,18.949-.18416,41.525h.32878C102.7619,204.866,102.79166,186.49193,102.8241,186.49193Z" fill="#2a2a2a"/>
    <path d="M116.20911,185.54009a1.82674,1.82674,0,0,1,.43785,1.24591v3.79282c.23436,4.33753.38609,9.81595.38609,10.27668,0,.0251-.00578,11.16255-.01644,26.86733h.38609c.01066-7.81852.01666-12.76267.01666-12.79783,0-.69415-.383-29.67527-.85549-29.67527,0-.17061-9.54765-.3089-9.71826-.3089a10.88666,10.88666,0,0,0-1.2167.15539c1.30023.00844,10.45379.07392,10.45379.1535C116.12559,185.24974,116.1678,185.3576,116.20911,185.54009Z" fill="#2a2a2a"/>
    <path d="M105.62892,185.09624l-.1555-.00094a3.52735,3.52735,0,0,0-.786.15445h.13018C105.09622,185.19137,105.37257,185.13945,105.62892,185.09624Z" fill="#2e2e2e"/>
    <path d="M103.05558,186.786a2.03714,2.03714,0,0,1,.201-.89864.84379.84379,0,0,0-.43252.60457c-.03243,0-.0622,18.374-.08708,41.23091h.31856Z" fill="#2e2e2e"/>
    <path d="M117.01662,227.72284c.01066-15.70478.01644-26.84223.01644-26.86733,0-.46073-.15173-5.93915-.38609-10.27668v37.144Z" fill="#2e2e2e"/>
    <path d="M115.60154,185.24974a.8412.8412,0,0,1,.60757.29035c-.04132-.18249-.08353-.29035-.1264-.29035,0-.07958-9.15356-.14506-10.45379-.1535-.25636.04321-.53271.09513-.81128.1535Z" fill="#2e2e2e"/>
    <path d="M104.10122,185.24974a.75616.75616,0,0,0-.36454.1013c.17083-.035.351-.06875.538-.1013Z" fill="#333"/>
    <path d="M103.42812,185.61951a9.47118,9.47118,0,0,1,.9168-.2633c.1184-.04076.23059-.07453.34255-.10646h-.41275c-.187.03254-.36721.06626-.538.1013A1.04932,1.04932,0,0,0,103.42812,185.61951Z" fill="#333"/>
    <path d="M116.647,186.786a1.82674,1.82674,0,0,0-.43785-1.24591,45.63425,45.63425,0,0,1,.43785,5.03874Z" fill="#333"/>
    <path d="M104.34492,185.35621a9.47118,9.47118,0,0,0-.9168.2633,1.456,1.456,0,0,0-.1715.26785A4.364,4.364,0,0,1,104.34492,185.35621Z" fill="#333"/>
    <path d="M104.81764,185.24974h-.13018c-.112.03193-.22415.0657-.34255.10646Q104.5795,185.29989,104.81764,185.24974Z" fill="#333"/>
    <path d="M103.05558,186.786v40.93684H116.647v-37.144a45.63425,45.63425,0,0,0-.43785-5.03874.8412.8412,0,0,0-.60757-.29035h-10.7839q-.23792.04982-.47273.10646a4.364,4.364,0,0,0-1.0883.53115A2.03714,2.03714,0,0,0,103.05558,186.786Z" fill="#333"/>
    <path d="M165.06632,183.55082H146.37822a1.69893,1.69893,0,0,0-1.699,1.69892v42.4731h.39631c-.00666-17.25276-.01022-29.46212-.01022-29.48472,0-.853.69154-14.39317,1.54459-14.39317,0-.07714,17.03178-.13967,17.08421-.13967.853,0,2.59.69149,2.59,1.54448.01888,0,.03665,18.66639.05154,42.4731h.42963v-42.4731A1.69893,1.69893,0,0,0,165.06632,183.55082Z"/>
    <path d="M145.45142,211.22649c0-.76768.62246-27.08742,1.3902-27.08742,0-.15428,15.37523-.27935,15.48031-.27935.76774,0,3.481.62234,3.481,1.39.04043,0,.078,19.0587.10885,42.4731h.42386c-.01488-23.8067-.03266-42.4731-.05154-42.4731,0-.853-1.737-1.54448-2.59-1.54448-.05243,0-17.08421.06253-17.08421.13967-.853,0-1.54459,13.54019-1.54459,14.39317,0,.0226.00355,12.232.01022,29.48472h.38809C145.45586,217.72723,145.45142,211.26109,145.45142,211.22649Z" fill="#050505"/>
    <path d="M162.32192,183.85972c-.10508,0-15.48031.12507-15.48031.27935-.76774,0-1.3902,26.31974-1.3902,27.08742,0,.0346.00444,6.50074.01222,16.49635h.37809c-.00267-2.21964-.00422-3.48393-.00422-3.508,0-.68238.55337-39.78173,1.23558-39.78173,0-.23137,13.71912-.419,13.87663-.419.68244,0,4.37207.5532,4.37207,1.23558.06531,0,.12551,19.55637.1735,42.4731h.41653c-.03088-23.41439-.06842-42.4731-.10885-42.4731C165.803,184.48206,163.08966,183.85972,162.32192,183.85972Z" fill="#090909"/>
    <path d="M147.305,184.72725c0-.30851,12.06258-.55864,12.2725-.55864.59713,0,5.2631.48406,5.2631,1.08113.09441,0,.181,20.2177.24747,42.4731h.4072c-.048-22.91673-.10819-42.4731-.1735-42.4731,0-.68238-3.68964-1.23558-4.37207-1.23558-.1575,0-13.87663.1876-13.87663.419-.68221,0-1.23558,39.09935-1.23558,39.78173,0,.024.00155,1.28834.00422,3.508h.4785C146.49018,212.60374,146.86716,184.72725,147.305,184.72725Z" fill="#0e0e0e"/>
    <path d="M159.57752,184.16861c-.20993,0-12.2725.25014-12.2725.55864-.43785,0-.81483,27.87649-.98478,42.99558h.46229c.16794-18.84583.44318-42.70146.754-42.70146,0-.38565,10.40625-.69832,10.66883-.69832.51183,0,6.15413.41491,6.15413.92669.1304,0,.2488,21.15388.33455,42.4731h.39409c-.06642-22.2554-.15306-42.4731-.24747-42.4731C164.84062,184.65267,160.17465,184.16861,159.57752,184.16861Z" fill="#131313"/>
    <path d="M147.76819,185.3155c0-.46279,8.74992-.838,9.06493-.838.42652,0,7.04517.34577,7.04517.77224.17727,0,.33566,22.61278.44007,42.4731h.37565c-.08575-21.31921-.20415-42.4731-.33455-42.4731,0-.51177-5.64231-.92669-6.15413-.92669-.26258,0-10.66883.31267-10.66883.69832-.31078,0-.586,23.85563-.754,42.70146h.41408C147.33789,207.17,147.5416,185.3155,147.76819,185.3155Z" fill="#171717"/>
    <path d="M156.83311,184.47751c-.315,0-9.06493.37521-9.06493.838-.22659,0-.4303,21.85448-.57158,42.40734h.38165c.11063-21.53636.25858-42.11327.42163-42.11327,0-.53993,7.09359-.97761,7.461-.97761.34122,0,7.9362.27663,7.9362.61779.24436,0,.45807,25.34418.57381,42.4731h.34744c-.10441-19.86032-.2628-42.4731-.44007-42.4731C163.87828,184.82328,157.25964,184.47751,156.83311,184.47751Z" fill="#1c1c1c"/>
    <path d="M148.23159,185.90369c0-.20127.58225-.38959,1.3762-.55265a.754.754,0,0,1,.36432-.1013h.1735c1.61056-.28029,3.68964-.46334,3.94311-.46334.25591,0,8.82723.20743,8.82723.46334.37987,0,.69443,35.26893.75108,42.4731h.3039c-.11574-17.12891-.32944-42.4731-.57381-42.4731,0-.34116-7.595-.61779-7.9362-.61779-.36743,0-7.461.43768-7.461.97761-.16306,0-.311,20.57691-.42163,42.11327h.359C148.01722,205.56186,148.11985,185.90369,148.23159,185.90369Z" fill="#202020"/>
    <path d="M154.08871,184.7864c-.25347,0-2.33254.183-3.94311.46334h.41275a3.52735,3.52735,0,0,1,.786-.15445l.15572.00094a10.885,10.885,0,0,1,1.21648-.15539c.17061,0,9.71826.13829,9.71826.3089.47251,0,.85549,28.98112.85549,29.67527,0,.03515-.006,4.97931-.01666,12.79783h.39342c-.05665-7.20417-.37121-42.4731-.75108-42.4731C162.91594,184.99383,154.34463,184.7864,154.08871,184.7864Z" fill="#252525"/>
    <path d="M148.46329,186.19781c0-.20871.34477-.40508.83572-.5783a1.04729,1.04729,0,0,1,.30878-.26846c-.794.16306-1.3762.35138-1.3762.55265-.11174,0-.21437,19.65817-.29434,41.81915h.34188C148.33044,205.14683,148.3942,186.19781,148.46329,186.19781Z" fill="#252525"/>
    <path d="M162.08,185.54009a1.82684,1.82684,0,0,1,.43807,1.24591v3.79282c.23414,4.33753.38609,9.81595.38609,10.27668,0,.0251-.00622,11.16255-.01666,26.86733h.38609c.01066-7.81852.01666-12.76267.01666-12.79783,0-.69415-.383-29.67527-.85549-29.67527,0-.17061-9.54765-.3089-9.71826-.3089a10.885,10.885,0,0,0-1.21648.15539c1.3.00844,10.45357.07392,10.45357.1535C161.99647,185.24974,162.03868,185.3576,162.08,185.54009Z" fill="#2a2a2a"/>
    <path d="M148.695,186.49193a.84371.84371,0,0,1,.43252-.60452,1.45645,1.45645,0,0,1,.1715-.26791c-.49094.17322-.83572.3696-.83572.5783-.06909,0-.13284,18.949-.18416,41.525h.32878C148.63278,204.866,148.66277,186.49193,148.695,186.49193Z" fill="#2a2a2a"/>
    <path d="M151.5,185.09624l-.15572-.00094a3.52735,3.52735,0,0,0-.786.15445h.13018C150.9671,185.19137,151.24345,185.13945,151.5,185.09624Z" fill="#2e2e2e"/>
    <path d="M161.47243,185.24974a.8412.8412,0,0,1,.60757.29035c-.04132-.18249-.08353-.29035-.1264-.29035,0-.07958-9.15356-.14506-10.45357-.1535-.25658.04321-.53293.09513-.8115.1535Z" fill="#2e2e2e"/>
    <path d="M148.92669,186.786a2.037,2.037,0,0,1,.20082-.89858.84371.84371,0,0,0-.43252.60452c-.03221,0-.0622,18.374-.08708,41.23091h.31878Z" fill="#2e2e2e"/>
    <path d="M162.88751,227.72284c.01044-15.70478.01666-26.84223.01666-26.86733,0-.46073-.15195-5.93915-.38609-10.27668v37.144Z" fill="#2e2e2e"/>
    <path d="M149.97211,185.24974a.754.754,0,0,0-.36432.1013c.17061-.0351.35077-.0687.53782-.1013Z" fill="#333"/>
    <path d="M149.299,185.61951a9.47586,9.47586,0,0,1,.917-.26336c.11818-.04076.23037-.07447.34233-.10641h-.41275c-.187.0326-.36721.0662-.53782.1013A1.04729,1.04729,0,0,0,149.299,185.61951Z" fill="#333"/>
    <path d="M150.216,185.35615a9.47586,9.47586,0,0,0-.917.26336,1.45645,1.45645,0,0,0-.1715.26791A4.36,4.36,0,0,1,150.216,185.35615Z" fill="#333"/>
    <path d="M162.51808,186.786a1.82684,1.82684,0,0,0-.43807-1.24591,45.67368,45.67368,0,0,1,.43807,5.03874Z" fill="#333"/>
    <path d="M150.68853,185.24974h-.13018c-.112.03193-.22415.06564-.34233.10641Q150.45028,185.29984,150.68853,185.24974Z" fill="#333"/>
    <path d="M148.92669,186.786v40.93684h13.59139v-37.144a45.67368,45.67368,0,0,0-.43807-5.03874.8412.8412,0,0,0-.60757-.29035h-10.7839q-.23792.04982-.47251.10641a4.36,4.36,0,0,0-1.08852.53126A2.037,2.037,0,0,0,148.92669,186.786Z" fill="#333"/>
    <path d="M236.421,183.55082H217.73291a1.69907,1.69907,0,0,0-1.699,1.69892v42.4731h.39631c-.00644-17.25276-.01-29.46212-.01-29.48472,0-.853.69132-14.39317,1.54437-14.39317,0-.07714,17.03178-.13967,17.08421-.13967.853,0,2.59.69149,2.59,1.54448.0191,0,.03665,18.66639.05154,42.4731H238.12v-42.4731A1.69893,1.69893,0,0,0,236.421,183.55082Z"/>
    <path d="M216.80633,211.22649c0-.76768.62223-27.08742,1.39-27.08742,0-.15428,15.37545-.27935,15.48031-.27935.76774,0,3.481.62234,3.481,1.39.04043,0,.0782,19.0587.10885,42.4731h.42386c-.01488-23.8067-.03243-42.4731-.05154-42.4731,0-.853-1.737-1.54448-2.59-1.54448-.05243,0-17.08421.06253-17.08421.13967-.853,0-1.54437,13.54019-1.54437,14.39317,0,.0226.00355,12.232.01,29.48472h.38809C216.81055,217.72723,216.80633,211.26109,216.80633,211.22649Z" fill="#050505"/>
    <path d="M233.67661,183.85972c-.10485,0-15.48031.12507-15.48031.27935-.76774,0-1.39,26.31974-1.39,27.08742,0,.0346.00422,6.50074.012,16.49635h.37809c-.00267-2.21964-.004-3.48393-.004-3.508,0-.68238.55315-39.78173,1.23558-39.78173,0-.23137,13.7189-.419,13.87641-.419.68244,0,4.37207.5532,4.37207,1.23558.06531,0,.12551,19.55637.1735,42.4731h.41653c-.03066-23.41439-.06842-42.4731-.10885-42.4731C237.15765,184.48206,234.44435,183.85972,233.67661,183.85972Z" fill="#090909"/>
    <path d="M218.65948,184.72725c0-.30851,12.0628-.55864,12.27273-.55864.59713,0,5.2631.48406,5.2631,1.08113.09463,0,.181,20.2177.24747,42.4731h.4072c-.048-22.91673-.10819-42.4731-.1735-42.4731,0-.68238-3.68964-1.23558-4.37207-1.23558-.1575,0-13.87641.1876-13.87641.419-.68244,0-1.23558,39.09935-1.23558,39.78173,0,.024.00133,1.28834.004,3.508h.4785C217.84509,212.60374,218.22185,184.72725,218.65948,184.72725Z" fill="#0e0e0e"/>
    <path d="M230.93221,184.16861c-.20993,0-12.27273.25014-12.27273.55864-.43763,0-.81439,27.87649-.98455,42.99558h.46229c.16817-18.84583.44318-42.70146.75419-42.70146,0-.38565,10.40625-.69832,10.6686-.69832.51183,0,6.15413.41491,6.15413.92669.13062,0,.2488,21.15388.33455,42.4731h.39409c-.06642-22.2554-.15284-42.4731-.24747-42.4731C236.19531,184.65267,231.52934,184.16861,230.93221,184.16861Z" fill="#131313"/>
    <path d="M219.12288,185.3155c0-.46279,8.74992-.838,9.06493-.838.42652,0,7.04517.34577,7.04517.77224.17727,0,.33566,22.61278.4403,42.4731h.37543c-.08575-21.31921-.20393-42.4731-.33455-42.4731,0-.51177-5.64231-.92669-6.15413-.92669-.26236,0-10.6686.31267-10.6686.69832-.311,0-.586,23.85563-.75419,42.70146h.41408C218.69258,207.17,218.89629,185.3155,219.12288,185.3155Z" fill="#171717"/>
    <path d="M228.1878,184.47751c-.315,0-9.06493.37521-9.06493.838-.22659,0-.4303,21.85448-.57158,42.40734h.38187c.11041-21.53636.25858-42.11327.42141-42.11327,0-.53993,7.09359-.97761,7.461-.97761.34122,0,7.9362.27663,7.9362.61779.24436,0,.45807,25.34418.57381,42.4731h.34766c-.10463-19.86032-.263-42.4731-.4403-42.4731C235.233,184.82328,228.61433,184.47751,228.1878,184.47751Z" fill="#1c1c1c"/>
    <path d="M219.58628,185.90369c0-.20127.582-.38953,1.3762-.55265a.75465.75465,0,0,1,.36432-.1013h.1735c1.61056-.28029,3.68964-.46334,3.94311-.46334.25591,0,8.82723.20743,8.82723.46334.37987,0,.69443,35.26893.7513,42.4731h.30367c-.11574-17.12891-.32944-42.4731-.57381-42.4731,0-.34116-7.595-.61779-7.9362-.61779-.36743,0-7.461.43768-7.461.97761-.16283,0-.311,20.57691-.42141,42.11327h.35877C219.3719,205.56186,219.47454,185.90369,219.58628,185.90369Z" fill="#202020"/>
    <path d="M225.4434,184.7864c-.25347,0-2.33254.183-3.94311.46334h.41275a3.52964,3.52964,0,0,1,.786-.15445l.15572.00094a10.89136,10.89136,0,0,1,1.21648-.15539c.17061,0,9.71826.13829,9.71826.3089.47251,0,.85549,28.98112.85549,29.67527,0,.03515-.006,4.97931-.01666,12.79783h.39364c-.05687-7.20417-.37143-42.4731-.7513-42.4731C234.27063,184.99383,225.69931,184.7864,225.4434,184.7864Z" fill="#252525"/>
    <path d="M219.818,186.19781c0-.20871.345-.40508.83572-.5783a1.04729,1.04729,0,0,1,.30878-.26846c-.79418.16311-1.3762.35138-1.3762.55265-.11174,0-.21437,19.65817-.29434,41.81915h.34188C219.68535,205.14683,219.74889,186.19781,219.818,186.19781Z" fill="#252525"/>
    <path d="M220.04967,186.49193a.84379.84379,0,0,1,.43252-.60457,1.456,1.456,0,0,1,.1715-.26785c-.49072.17322-.83572.3696-.83572.5783-.06909,0-.13262,18.949-.18416,41.525h.32878C219.98747,204.866,220.01746,186.49193,220.04967,186.49193Z" fill="#2a2a2a"/>
    <path d="M233.43491,185.54009a1.82782,1.82782,0,0,1,.43785,1.24591v3.79282c.23414,4.33753.38609,9.81595.38609,10.27668,0,.0251-.006,11.16255-.01666,26.86733h.38609c.01066-7.81852.01666-12.76267.01666-12.79783,0-.69415-.383-29.67527-.85549-29.67527,0-.17061-9.54765-.3089-9.71826-.3089a10.89136,10.89136,0,0,0-1.21648.15539c1.3.00844,10.45357.07392,10.45357.1535C233.35139,185.24974,233.39337,185.3576,233.43491,185.54009Z" fill="#2a2a2a"/>
    <path d="M222.85472,185.09624l-.15572-.00094a3.52964,3.52964,0,0,0-.786.15445h.13018C222.32179,185.19137,222.59814,185.13945,222.85472,185.09624Z" fill="#2e2e2e"/>
    <path d="M234.24219,227.72284c.01066-15.70478.01666-26.84223.01666-26.86733,0-.46073-.15195-5.93915-.38609-10.27668v37.144Z" fill="#2e2e2e"/>
    <path d="M232.82712,185.24974a.84128.84128,0,0,1,.60779.29035c-.04154-.18249-.08353-.29035-.12662-.29035,0-.07958-9.15356-.14506-10.45357-.1535-.25658.04321-.53293.09513-.8115.1535Z" fill="#2e2e2e"/>
    <path d="M220.28137,186.786a2.03711,2.03711,0,0,1,.20082-.89864.84379.84379,0,0,0-.43252.60457c-.03221,0-.0622,18.374-.08708,41.23091h.31878Z" fill="#2e2e2e"/>
    <path d="M221.3268,185.24974a.75465.75465,0,0,0-.36432.1013c.17061-.035.35077-.06875.53782-.1013Z" fill="#333"/>
    <path d="M220.65369,185.61951a9.48109,9.48109,0,0,1,.91724-.26336c.11818-.04076.23014-.07447.34211-.10641h-.41275c-.187.03254-.36721.06626-.53782.1013A1.04729,1.04729,0,0,0,220.65369,185.61951Z" fill="#333"/>
    <path d="M233.87276,186.786a1.82782,1.82782,0,0,0-.43785-1.24591,45.74871,45.74871,0,0,1,.43785,5.03874Z" fill="#333"/>
    <path d="M221.57094,185.35615a9.48109,9.48109,0,0,0-.91724.26336,1.456,1.456,0,0,0-.1715.26785A4.36346,4.36346,0,0,1,221.57094,185.35615Z" fill="#333"/>
    <path d="M222.04322,185.24974H221.913c-.112.03193-.22392.06564-.34211.10641Q221.80486,185.29984,222.04322,185.24974Z" fill="#333"/>
    <path d="M220.28137,186.786v40.93684h13.59139v-37.144a45.74871,45.74871,0,0,0-.43785-5.03874.84128.84128,0,0,0-.60779-.29035h-10.7839q-.23792.04982-.47228.10641a4.36346,4.36346,0,0,0-1.08874.53121A2.03711,2.03711,0,0,0,220.28137,186.786Z" fill="#333"/>
    <path d="M282.2919,183.55082H263.60379a1.69893,1.69893,0,0,0-1.699,1.69892v42.4731h.39631c-.00644-17.25276-.01022-29.46212-.01022-29.48472,0-.853.69154-14.39317,1.54459-14.39317,0-.07714,17.03178-.13967,17.08421-.13967.853,0,2.59.69149,2.59,1.54448.0191,0,.03665,18.66639.05176,42.4731h.42941v-42.4731A1.69893,1.69893,0,0,0,282.2919,183.55082Z"/>
    <path d="M262.67722,211.22649c0-.76768.62223-27.08742,1.39-27.08742,0-.15428,15.37545-.27935,15.48031-.27935.76774,0,3.481.62234,3.481,1.39.04065,0,.078,19.0587.10885,42.4731h.42408c-.01511-23.8067-.03266-42.4731-.05176-42.4731,0-.853-1.737-1.54448-2.59-1.54448-.05243,0-17.08421.06253-17.08421.13967-.853,0-1.54459,13.54019-1.54459,14.39317,0,.0226.00378,12.232.01022,29.48472h.38809C262.68144,217.72723,262.67722,211.26109,262.67722,211.22649Z" fill="#050505"/>
    <path d="M279.5475,183.85972c-.10485,0-15.48031.12507-15.48031.27935-.76774,0-1.39,26.31974-1.39,27.08742,0,.0346.00422,6.50074.012,16.49635h.37809c-.00267-2.21964-.004-3.48393-.004-3.508,0-.68238.55315-39.78173,1.23558-39.78173,0-.23137,13.71913-.419,13.87641-.419.68244,0,4.37207.5532,4.37207,1.23558.06531,0,.12551,19.55637.1735,42.4731h.41653c-.03088-23.41439-.0682-42.4731-.10885-42.4731C283.02854,184.48206,280.31524,183.85972,279.5475,183.85972Z" fill="#090909"/>
    <path d="M264.53059,184.72725c0-.30851,12.06258-.55864,12.2725-.55864.59713,0,5.2631.48406,5.2631,1.08113.09463,0,.181,20.2177.24769,42.4731h.407c-.048-22.91673-.10819-42.4731-.1735-42.4731,0-.68238-3.68964-1.23558-4.37207-1.23558-.15728,0-13.87641.1876-13.87641.419-.68244,0-1.23558,39.09935-1.23558,39.78173,0,.024.00133,1.28834.004,3.508h.4785C263.716,212.60374,264.09274,184.72725,264.53059,184.72725Z" fill="#0e0e0e"/>
    <path d="M276.80309,184.16861c-.20993,0-12.2725.25014-12.2725.55864-.43785,0-.81461,27.87649-.98478,42.99558h.46229c.16817-18.84583.44318-42.70146.754-42.70146,0-.38565,10.40647-.69832,10.66883-.69832.51183,0,6.15414.41491,6.15414.92669.13062,0,.2488,21.15388.33478,42.4731h.39409c-.06664-22.2554-.15306-42.4731-.24769-42.4731C282.0662,184.65267,277.40022,184.16861,276.80309,184.16861Z" fill="#131313"/>
    <path d="M264.994,185.3155c0-.46279,8.74992-.838,9.0647-.838.42652,0,7.04517.34577,7.04517.77224.17727,0,.33566,22.61278.44007,42.4731h.37587c-.086-21.31921-.20415-42.4731-.33478-42.4731,0-.51177-5.64231-.92669-6.15414-.92669-.26236,0-10.66883.31267-10.66883.69832-.31078,0-.5858,23.85563-.754,42.70146h.41408C264.56347,207.17,264.7674,185.3155,264.994,185.3155Z" fill="#171717"/>
    <path d="M274.05869,184.47751c-.31478,0-9.0647.37521-9.0647.838-.22659,0-.43052,21.85448-.57181,42.40734h.38187c.11041-21.53636.25858-42.11327.42141-42.11327,0-.53993,7.09359-.97761,7.461-.97761.34122,0,7.9362.27663,7.9362.61779.24458,0,.45807,25.34418.57381,42.4731h.34744c-.10441-19.86032-.2628-42.4731-.44007-42.4731C281.10386,184.82328,274.48521,184.47751,274.05869,184.47751Z" fill="#1c1c1c"/>
    <path d="M265.45716,185.90369c0-.20127.58225-.38953,1.3762-.55265a.75465.75465,0,0,1,.36432-.1013h.17372c1.61034-.28029,3.68942-.46334,3.94289-.46334.25591,0,8.82723.20743,8.82723.46334.37987,0,.69465,35.26893.7513,42.4731h.30367c-.11574-17.12891-.32922-42.4731-.57381-42.4731,0-.34116-7.595-.61779-7.9362-.61779-.36743,0-7.461.43768-7.461.97761-.16283,0-.311,20.57691-.42141,42.11327h.35877C265.24279,205.56186,265.34542,185.90369,265.45716,185.90369Z" fill="#202020"/>
    <path d="M271.31429,184.7864c-.25347,0-2.33254.183-3.94289.46334h.41275a3.526,3.526,0,0,1,.78573-.15445l.15572.00094a10.89136,10.89136,0,0,1,1.21648-.15539c.17061,0,9.71848.13829,9.71848.3089.47228,0,.85527,28.98112.85527,29.67527,0,.03515-.00578,4.97931-.01666,12.79783h.39364c-.05665-7.20417-.37143-42.4731-.7513-42.4731C280.14152,184.99383,271.5702,184.7864,271.31429,184.7864Z" fill="#252525"/>
    <path d="M265.68886,186.19781c0-.20871.34477-.40508.83572-.5783a1.05007,1.05007,0,0,1,.30878-.26846c-.794.16311-1.3762.35138-1.3762.55265-.11174,0-.21437,19.65817-.29434,41.81915h.34188C265.556,205.14683,265.61978,186.19781,265.68886,186.19781Z" fill="#252525"/>
    <path d="M279.3058,185.54015a1.82767,1.82767,0,0,1,.43785,1.24586v3.79282c.23414,4.33753.38609,9.81595.38609,10.27668,0,.0251-.006,11.16255-.01666,26.86733h.38609c.01089-7.81852.01666-12.76267.01666-12.79783,0-.69415-.383-29.67527-.85527-29.67527,0-.17061-9.54787-.3089-9.71848-.3089a10.89136,10.89136,0,0,0-1.21648.15539c1.30023.00844,10.45379.07392,10.45379.1535C279.22227,185.24974,279.26426,185.3576,279.3058,185.54015Z" fill="#2a2a2a"/>
    <path d="M265.92056,186.49193a.84371.84371,0,0,1,.43252-.60452,1.45645,1.45645,0,0,1,.1715-.26791c-.49094.17322-.83572.3696-.83572.5783-.06909,0-.13284,18.949-.18416,41.525h.329C265.85836,204.866,265.88835,186.49193,265.92056,186.49193Z" fill="#2a2a2a"/>
    <path d="M268.72561,185.09624l-.15572-.00094a3.526,3.526,0,0,0-.78573.15445h.13C268.19268,185.19137,268.469,185.13945,268.72561,185.09624Z" fill="#2e2e2e"/>
    <path d="M280.11308,227.72284c.01066-15.70478.01666-26.84223.01666-26.86733,0-.46073-.15195-5.93915-.38609-10.27668v37.144Z" fill="#2e2e2e"/>
    <path d="M278.69823,185.24974a.84106.84106,0,0,1,.60757.2904c-.04154-.18255-.08353-.2904-.1264-.2904,0-.07958-9.15356-.14506-10.45379-.1535-.25658.04321-.53293.09513-.8115.1535Z" fill="#2e2e2e"/>
    <path d="M266.15226,186.786a2.037,2.037,0,0,1,.20082-.89858.84371.84371,0,0,0-.43252.60452c-.03221,0-.0622,18.374-.08686,41.23091h.31856Z" fill="#2e2e2e"/>
    <path d="M267.19768,185.24974a.75465.75465,0,0,0-.36432.1013c.17061-.035.351-.0687.538-.1013Z" fill="#333"/>
    <path d="M266.52458,185.61951a9.47586,9.47586,0,0,1,.917-.26336c.11818-.04076.23059-.07447.34255-.10641h-.41275c-.187.0326-.36743.06626-.538.1013A1.05007,1.05007,0,0,0,266.52458,185.61951Z" fill="#333"/>
    <path d="M279.74365,186.786a1.82767,1.82767,0,0,0-.43785-1.24586,45.69433,45.69433,0,0,1,.43785,5.03868Z" fill="#333"/>
    <path d="M267.4416,185.35615a9.47586,9.47586,0,0,0-.917.26336,1.45645,1.45645,0,0,0-.1715.26791A4.36381,4.36381,0,0,1,267.4416,185.35615Z" fill="#333"/>
    <path d="M267.91411,185.24974h-.13c-.112.03193-.22437.06564-.34255.10641Q267.67619,185.29984,267.91411,185.24974Z" fill="#333"/>
    <path d="M266.15226,186.786v40.93684h13.59139v-37.144a45.69433,45.69433,0,0,0-.43785-5.03868.84106.84106,0,0,0-.60757-.2904H267.91411q-.23759.04982-.47251.10641a4.36381,4.36381,0,0,0-1.08852.53126A2.037,2.037,0,0,0,266.15226,186.786Z" fill="#333"/>
    <path d="M321.36731,183.55082H302.679a1.69893,1.69893,0,0,0-1.699,1.69892v42.4731h.39631c-.00644-17.25276-.01-29.46212-.01-29.48472,0-.853.69154-14.39317,1.54437-14.39317,0-.07714,17.03178-.13967,17.08421-.13967.853,0,2.59.69149,2.59,1.54448.0191,0,.03665,18.66639.05176,42.4731h.42941v-42.4731A1.69888,1.69888,0,0,0,321.36731,183.55082Z"/>
    <path d="M301.75241,211.22649c0-.76768.62223-27.08742,1.39-27.08742,0-.15428,15.37545-.27935,15.48053-.27935.76752,0,3.48082.62234,3.48082,1.39.04065,0,.078,19.0587.10885,42.4731h.42408c-.01511-23.8067-.03266-42.4731-.05176-42.4731,0-.853-1.737-1.54448-2.59-1.54448-.05243,0-17.08421.06253-17.08421.13967-.85282,0-1.54437,13.54019-1.54437,14.39317,0,.0226.00355,12.232.01,29.48472h.38809C301.75663,217.72723,301.75241,211.26109,301.75241,211.22649Z" fill="#050505"/>
    <path d="M318.62291,183.85972c-.10508,0-15.48053.12507-15.48053.27935-.76774,0-1.39,26.31974-1.39,27.08742,0,.0346.00422,6.50074.012,16.49635h.37809c-.00267-2.21964-.004-3.48393-.004-3.508,0-.68238.55315-39.78173,1.23558-39.78173,0-.23137,13.71913-.419,13.8764-.419.68244,0,4.37207.5532,4.37207,1.23558.06531,0,.12551,19.55637.1735,42.4731h.41653c-.03088-23.41439-.0682-42.4731-.10885-42.4731C322.10373,184.48206,319.39043,183.85972,318.62291,183.85972Z" fill="#090909"/>
    <path d="M303.60578,184.72725c0-.30851,12.06258-.55864,12.2725-.55864.59713,0,5.2631.48406,5.2631,1.08113.09463,0,.181,20.2177.24769,42.4731h.407c-.048-22.91673-.10819-42.4731-.1735-42.4731,0-.68238-3.68964-1.23558-4.37207-1.23558-.15728,0-13.8764.1876-13.8764.419-.68244,0-1.23558,39.09935-1.23558,39.78173,0,.024.00133,1.28834.004,3.508h.4785C302.79117,212.60374,303.16815,184.72725,303.60578,184.72725Z" fill="#0e0e0e"/>
    <path d="M315.87829,184.16861c-.20993,0-12.2725.25014-12.2725.55864-.43763,0-.81461,27.87649-.98478,42.99558h.46229c.16817-18.84583.44318-42.70146.75419-42.70146,0-.38565,10.40625-.69832,10.6686-.69832.51183,0,6.15414.41491,6.15414.92669.13062,0,.2488,21.15388.33478,42.4731h.39409c-.06664-22.2554-.15306-42.4731-.24769-42.4731C321.14139,184.65267,316.47542,184.16861,315.87829,184.16861Z" fill="#131313"/>
    <path d="M304.06918,185.3155c0-.46279,8.74992-.838,9.0647-.838.42652,0,7.04539.34577,7.04539.77224.17705,0,.33544,22.61278.44007,42.4731h.37565c-.086-21.31921-.20415-42.4731-.33478-42.4731,0-.51177-5.64231-.92669-6.15414-.92669-.26236,0-10.6686.31267-10.6686.69832-.311,0-.586,23.85563-.75419,42.70146h.41408C303.63866,207.17,303.84259,185.3155,304.06918,185.3155Z" fill="#171717"/>
    <path d="M313.13388,184.47751c-.31478,0-9.0647.37521-9.0647.838-.22659,0-.43052,21.85448-.57181,42.40734h.38187c.11041-21.53636.25858-42.11327.42141-42.11327,0-.53993,7.09359-.97761,7.461-.97761.34122,0,7.93642.27663,7.93642.61779.24436,0,.45807,25.34418.57358,42.4731h.34766c-.10463-19.86032-.263-42.4731-.44007-42.4731C320.17927,184.82328,313.56041,184.47751,313.13388,184.47751Z" fill="#1c1c1c"/>
    <path d="M304.53236,185.90369c0-.20127.58225-.38953,1.3762-.55265a.75465.75465,0,0,1,.36432-.1013h.17372c1.61034-.28029,3.68942-.46334,3.94288-.46334.25591,0,8.82745.20743,8.82745.46334.37965,0,.69443,35.26893.75108,42.4731h.30367c-.11552-17.12891-.32922-42.4731-.57358-42.4731,0-.34116-7.5952-.61779-7.93642-.61779-.36743,0-7.461.43768-7.461.97761-.16283,0-.311,20.57691-.42141,42.11327h.35877C304.318,205.56186,304.42062,185.90369,304.53236,185.90369Z" fill="#202020"/>
    <path d="M310.38948,184.7864c-.25347,0-2.33254.183-3.94288.46334h.41275a3.526,3.526,0,0,1,.78573-.15445l.15572.00094a10.89136,10.89136,0,0,1,1.21648-.15539c.17061,0,9.71848.13829,9.71848.3089.47228,0,.85527,28.98112.85527,29.67527,0,.03515-.00578,4.97931-.01666,12.79783h.39364c-.05665-7.20417-.37143-42.4731-.75108-42.4731C319.21693,184.99383,310.64539,184.7864,310.38948,184.7864Z" fill="#252525"/>
    <path d="M304.76406,186.19781c0-.20871.345-.40508.83572-.5783a1.05285,1.05285,0,0,1,.30878-.26846c-.794.16311-1.3762.35138-1.3762.55265-.11174,0-.21437,19.65817-.29434,41.81915h.34188C304.63143,205.14683,304.69519,186.19781,304.76406,186.19781Z" fill="#252525"/>
    <path d="M304.99575,186.49193a.84379.84379,0,0,1,.43252-.60457,1.456,1.456,0,0,1,.1715-.26785c-.49072.17322-.83572.3696-.83572.5783-.06887,0-.13262,18.949-.18416,41.525h.329C304.93355,204.866,304.96354,186.49193,304.99575,186.49193Z" fill="#2a2a2a"/>
    <path d="M318.381,185.54015a1.82767,1.82767,0,0,1,.43785,1.24586v3.79183c.23414,4.3377.38609,9.81689.38609,10.27768,0,.0251-.006,11.16255-.01666,26.86733h.38609c.01089-7.81852.01666-12.76267.01666-12.79783,0-.69415-.383-29.67527-.85527-29.67527,0-.17061-9.54787-.3089-9.71848-.3089a10.89136,10.89136,0,0,0-1.21648.15539c1.3.00844,10.45379.07392,10.45379.1535C318.29747,185.24974,318.33945,185.3576,318.381,185.54015Z" fill="#2a2a2a"/>
    <path d="M307.8008,185.09624l-.15572-.00094a3.526,3.526,0,0,0-.78573.15445h.13C307.26787,185.19137,307.54422,185.13945,307.8008,185.09624Z" fill="#2e2e2e"/>
    <path d="M317.77342,185.24974a.84106.84106,0,0,1,.60757.2904c-.04154-.18255-.08353-.2904-.1264-.2904,0-.07958-9.15378-.14506-10.45379-.1535-.25658.04321-.53293.09513-.8115.1535Z" fill="#2e2e2e"/>
    <path d="M319.18827,227.72284c.01066-15.70478.01666-26.84223.01666-26.86733,0-.46079-.15195-5.94-.38609-10.27768v37.145Z" fill="#2e2e2e"/>
    <path d="M305.22745,186.786a2.04017,2.04017,0,0,1,.20082-.89864.84379.84379,0,0,0-.43252.60457c-.03221,0-.0622,18.374-.08686,41.23091h.31856Z" fill="#2e2e2e"/>
    <path d="M306.27288,185.24974a.75465.75465,0,0,0-.36432.1013c.17061-.035.351-.06875.538-.1013Z" fill="#333"/>
    <path d="M305.59977,185.61951a9.47641,9.47641,0,0,1,.917-.2633c.11818-.04076.23037-.07453.34255-.10646h-.41275c-.187.03254-.36743.06626-.538.1013A1.05285,1.05285,0,0,0,305.59977,185.61951Z" fill="#333"/>
    <path d="M318.81884,186.786a1.82767,1.82767,0,0,0-.43785-1.24586,45.67964,45.67964,0,0,1,.43785,5.03768Z" fill="#333"/>
    <path d="M306.51679,185.35621a9.47641,9.47641,0,0,0-.917.2633,1.456,1.456,0,0,0-.1715.26785A4.36555,4.36555,0,0,1,306.51679,185.35621Z" fill="#333"/>
    <path d="M306.9893,185.24974h-.13c-.11218.03193-.22437.0657-.34255.10646Q306.751,185.29989,306.9893,185.24974Z" fill="#333"/>
    <path d="M305.22745,186.786v40.93684h13.59139v-37.145a45.67964,45.67964,0,0,0-.43785-5.03768.84106.84106,0,0,0-.60757-.2904H306.9893q-.23792.04982-.47251.10646a4.36555,4.36555,0,0,0-1.08852.53115A2.04017,2.04017,0,0,0,305.22745,186.786Z" fill="#333"/>
    <path d="M392.722,183.55082H374.0339a1.69893,1.69893,0,0,0-1.699,1.69892v42.4731h.39631c-.00666-17.25276-.01022-29.46212-.01022-29.48472,0-.853.69154-14.39317,1.54437-14.39317,0-.07714,17.03178-.13967,17.08443-.13967.853,0,2.58979.69149,2.58979,1.54448.0191,0,.03688,18.66639.05176,42.4731h.42941v-42.4731A1.69888,1.69888,0,0,0,392.722,183.55082Z"/>
    <path d="M373.1071,211.22649c0-.76768.62246-27.08742,1.39-27.08742,0-.15428,15.37545-.27935,15.48053-.27935.76752,0,3.48082.62234,3.48082,1.39.04065,0,.0782,19.0587.10885,42.4731h.42408c-.01488-23.8067-.03266-42.4731-.05176-42.4731,0-.853-1.73674-1.54448-2.58979-1.54448-.05265,0-17.08443.06253-17.08443.13967-.85282,0-1.54437,13.54019-1.54437,14.39317,0,.0226.00355,12.232.01022,29.48472h.38787C373.11132,217.72723,373.1071,211.26109,373.1071,211.22649Z" fill="#050505"/>
    <path d="M389.9776,183.85972c-.10508,0-15.48053.12507-15.48053.27935-.76752,0-1.39,26.31974-1.39,27.08742,0,.0346.00422,6.50074.012,16.49635h.37809c-.00267-2.21964-.004-3.48393-.004-3.508,0-.68238.55315-39.78173,1.23558-39.78173,0-.23137,13.71912-.419,13.87663-.419.68244,0,4.37185.5532,4.37185,1.23558.06531,0,.12551,19.55637.1735,42.4731h.41653c-.03066-23.41439-.0682-42.4731-.10885-42.4731C393.45842,184.48206,390.74512,183.85972,389.9776,183.85972Z" fill="#090909"/>
    <path d="M374.96047,184.72725c0-.30851,12.0628-.55864,12.2725-.55864.59713,0,5.2631.48406,5.2631,1.08113.09463,0,.181,20.2177.24769,42.4731h.407c-.048-22.91673-.10819-42.4731-.1735-42.4731,0-.68238-3.68942-1.23558-4.37185-1.23558-.1575,0-13.87663.1876-13.87663.419-.68244,0-1.23558,39.09935-1.23558,39.78173,0,.024.00133,1.28834.004,3.508h.4785C374.14586,212.60374,374.52284,184.72725,374.96047,184.72725Z" fill="#0e0e0e"/>
    <path d="M387.233,184.16861c-.20971,0-12.2725.25014-12.2725.55864-.43763,0-.81461,27.87649-.98478,42.99558h.46251c.16794-18.84583.443-42.70146.754-42.70146,0-.38565,10.40625-.69832,10.66883-.69832.51183,0,6.15391.41491,6.15391.92669.13062,0,.2488,21.15388.33478,42.4731h.39409c-.06664-22.2554-.15306-42.4731-.24769-42.4731C392.49608,184.65267,387.83011,184.16861,387.233,184.16861Z" fill="#131313"/>
    <path d="M375.42387,185.3155c0-.46279,8.74992-.838,9.0647-.838.42652,0,7.04517.34577,7.04517.77224.17727,0,.33566,22.61278.4403,42.4731h.37565c-.086-21.31921-.20415-42.4731-.33478-42.4731,0-.51177-5.64209-.92669-6.15391-.92669-.26258,0-10.66883.31267-10.66883.69832-.311,0-.586,23.85563-.754,42.70146h.41408C374.99357,207.17,375.19728,185.3155,375.42387,185.3155Z" fill="#171717"/>
    <path d="M384.48857,184.47751c-.31478,0-9.0647.37521-9.0647.838-.22659,0-.4303,21.85448-.57158,42.40734h.38165c.11041-21.53636.25858-42.11327.42163-42.11327,0-.53993,7.09359-.97761,7.461-.97761.34122,0,7.9362.27663,7.9362.61779.24436,0,.45807,25.34418.57358,42.4731h.34766c-.10463-19.86032-.263-42.4731-.4403-42.4731C391.53374,184.82328,384.91509,184.47751,384.48857,184.47751Z" fill="#1c1c1c"/>
    <path d="M375.887,185.90369c0-.20127.58225-.38953,1.3762-.55265a.75548.75548,0,0,1,.36454-.1013h.1735c1.61034-.28029,3.68942-.46334,3.94288-.46334.25591,0,8.82745.20743,8.82745.46334.37965,0,.69443,35.26893.75108,42.4731h.30367c-.11552-17.12891-.32922-42.4731-.57358-42.4731,0-.34116-7.595-.61779-7.9362-.61779-.36743,0-7.461.43768-7.461.97761-.16306,0-.31123,20.57691-.42163,42.11327h.35877C375.6729,205.56186,375.77531,185.90369,375.887,185.90369Z" fill="#202020"/>
    <path d="M381.74417,184.7864c-.25347,0-2.33254.183-3.94288.46334h.41275a3.526,3.526,0,0,1,.78573-.15445l.15572.00094a10.88667,10.88667,0,0,1,1.2167-.15539c.17061,0,9.71826.13829,9.71826.3089.47228,0,.85527,28.98112.85527,29.67527,0,.03515-.00578,4.97931-.01666,12.79783h.39364c-.05665-7.20417-.37143-42.4731-.75108-42.4731C390.57162,184.99383,382.00008,184.7864,381.74417,184.7864Z" fill="#252525"/>
    <path d="M376.119,186.19781c0-.20871.34477-.405.83549-.57825a1.04947,1.04947,0,0,1,.30878-.26852c-.794.16311-1.3762.35138-1.3762.55265-.11174,0-.21415,19.65817-.29434,41.81915h.34188C375.98612,205.14683,376.04988,186.19781,376.119,186.19781Z" fill="#252525"/>
    <path d="M389.73568,185.54015a1.82659,1.82659,0,0,1,.43785,1.24586v3.79183c.23414,4.3377.38609,9.81689.38609,10.27768,0,.0251-.006,11.16255-.01666,26.86733h.38609c.01089-7.81852.01666-12.76267.01666-12.79783,0-.69415-.383-29.67527-.85527-29.67527,0-.17061-9.54765-.3089-9.71826-.3089a10.88667,10.88667,0,0,0-1.2167.15539c1.30023.00844,10.45379.07392,10.45379.1535C389.65215,185.24974,389.69436,185.3576,389.73568,185.54015Z" fill="#2a2a2a"/>
    <path d="M376.35044,186.49193a.84433.84433,0,0,1,.43252-.60452,1.456,1.456,0,0,1,.1715-.26785c-.49072.17322-.83549.36954-.83549.57825-.06909,0-.13284,18.949-.18438,41.525h.329C376.28824,204.866,376.31823,186.49193,376.35044,186.49193Z" fill="#2a2a2a"/>
    <path d="M379.15549,185.09624l-.15572-.00094a3.526,3.526,0,0,0-.78573.15445h.13C378.62256,185.19137,378.89891,185.13945,379.15549,185.09624Z" fill="#2e2e2e"/>
    <path d="M376.58214,186.786a2.037,2.037,0,0,1,.20082-.89858.84433.84433,0,0,0-.43252.60452c-.03221,0-.0622,18.374-.08686,41.23091h.31856Z" fill="#2e2e2e"/>
    <path d="M390.543,227.72284c.01066-15.70478.01666-26.84223.01666-26.86733,0-.46079-.15195-5.94-.38609-10.27768v37.145Z" fill="#2e2e2e"/>
    <path d="M389.12811,185.24974a.84106.84106,0,0,1,.60757.2904c-.04132-.18255-.08353-.2904-.1264-.2904,0-.07958-9.15356-.14506-10.45379-.1535-.25658.04321-.53293.09513-.8115.1535Z" fill="#2e2e2e"/>
    <path d="M377.62779,185.24974a.75548.75548,0,0,0-.36454.1013c.17083-.035.351-.06875.538-.1013Z" fill="#333"/>
    <path d="M376.95446,185.61956a9.47589,9.47589,0,0,1,.917-.26336c.1184-.04076.23037-.07453.34255-.10646h-.41275c-.187.03254-.36721.06626-.538.1013A1.04947,1.04947,0,0,0,376.95446,185.61956Z" fill="#333"/>
    <path d="M377.87148,185.35621a9.47589,9.47589,0,0,0-.917.26336,1.456,1.456,0,0,0-.1715.26785A4.36564,4.36564,0,0,1,377.87148,185.35621Z" fill="#333"/>
    <path d="M390.17353,186.786a1.82659,1.82659,0,0,0-.43785-1.24586,45.62247,45.62247,0,0,1,.43785,5.03768Z" fill="#333"/>
    <path d="M378.344,185.24974h-.13c-.11218.03193-.22415.0657-.34255.10646Q378.10574,185.29989,378.344,185.24974Z" fill="#333"/>
    <path d="M376.58214,186.786v40.93684h13.59139v-37.145a45.62247,45.62247,0,0,0-.43785-5.03768.84106.84106,0,0,0-.60757-.2904H378.344q-.23792.04982-.47251.10646a4.36564,4.36564,0,0,0-1.08852.53121A2.037,2.037,0,0,0,376.58214,186.786Z" fill="#333"/>
    <g>
      <path d="M74.77344,227.97266V186.94824a3.6522,3.6522,0,0,1,3.64746-3.64746h15.291a3.6522,3.6522,0,0,1,3.64746,3.64746v41.02441Z" fill="#fff"/>
      <path d="M93.71167,183.55078a3.39778,3.39778,0,0,1,3.39771,3.39783V227.7229H75.02356V186.94861a3.39778,3.39778,0,0,1,3.39771-3.39783H93.71167m0-.5H78.42126a3.90219,3.90219,0,0,0-3.89771,3.89783V228.2229H97.60938V186.94861a3.90219,3.90219,0,0,0-3.89771-3.89783Z"/>
    </g>
    <g>
      <path d="M168.21387,227.97266V186.94824a3.65241,3.65241,0,0,1,3.64844-3.64746h15.29a3.6522,3.6522,0,0,1,3.64746,3.64746v41.02441Z" fill="#fff"/>
      <path d="M187.15234,183.55078a3.39778,3.39778,0,0,1,3.39771,3.39783V227.7229H168.46411V186.94861a3.39783,3.39783,0,0,1,3.39795-3.39783h15.29028m0-.5H171.86206a3.90224,3.90224,0,0,0-3.89795,3.89783V228.2229H191.05V186.94861a3.90219,3.90219,0,0,0-3.89771-3.89783Z"/>
    </g>
    <g>
      <path d="M122.34375,227.97266V186.94824a3.6522,3.6522,0,0,1,3.64746-3.64746H139.583a3.6522,3.6522,0,0,1,3.64746,3.64746v41.02441Z" fill="#fff"/>
      <path d="M139.58252,183.55078a3.39778,3.39778,0,0,1,3.39771,3.39783V227.7229H122.59338V186.94861a3.39778,3.39778,0,0,1,3.39771-3.39783h13.59143m0-.5H125.99109a3.90219,3.90219,0,0,0-3.89771,3.89783V228.2229h21.38684V186.94861a3.90219,3.90219,0,0,0-3.89771-3.89783Z"/>
    </g>
    <g>
      <path d="M239.56934,227.97266V186.94824a3.6522,3.6522,0,0,1,3.64746-3.64746h13.59082a3.65241,3.65241,0,0,1,3.64844,3.64746v41.02441Z" fill="#fff"/>
      <path d="M256.80811,183.55078a3.39783,3.39783,0,0,1,3.39795,3.39783V227.7229h-20.387V186.94861a3.39778,3.39778,0,0,1,3.39771-3.39783h13.59131m0-.5H243.2168a3.90219,3.90219,0,0,0-3.89771,3.89783V228.2229h21.387V186.94861a3.90224,3.90224,0,0,0-3.89795-3.89783Z"/>
    </g>
    <g>
      <path d="M285.43945,227.97266V186.94824a3.65241,3.65241,0,0,1,3.64844-3.64746h6.79492a3.65241,3.65241,0,0,1,3.64844,3.64746v41.02441Z" fill="#fff"/>
      <path d="M295.8833,183.55078a3.39783,3.39783,0,0,1,3.39795,3.39783V227.7229H285.68994V186.94861a3.39778,3.39778,0,0,1,3.39771-3.39783h6.79565m0-.5h-6.79565a3.90219,3.90219,0,0,0-3.89771,3.89783V228.2229h14.59131V186.94861a3.90224,3.90224,0,0,0-3.89795-3.89783Z"/>
    </g>
    <g>
      <path d="M191.999,227.97266V186.94824a3.6522,3.6522,0,0,1,3.64746-3.64746h15.291a3.6522,3.6522,0,0,1,3.64746,3.64746v41.02441Z" fill="#fff"/>
      <path d="M210.93726,183.55078a3.39783,3.39783,0,0,1,3.39795,3.39783V227.7229H192.249V186.94861a3.39778,3.39778,0,0,1,3.39771-3.39783h15.29053m0-.5H195.64673a3.90219,3.90219,0,0,0-3.89771,3.89783V228.2229h23.08618V186.94861a3.90224,3.90224,0,0,0-3.89795-3.89783Z"/>
    </g>
    <g>
      <path d="M324.51465,227.97266V186.94824a3.65241,3.65241,0,0,1,3.64844-3.64746h15.29a3.65241,3.65241,0,0,1,3.64844,3.64746v41.02441Z" fill="#fff"/>
      <path d="M343.45313,183.55078a3.39783,3.39783,0,0,1,3.39795,3.39783V227.7229H324.76514V186.94861a3.39778,3.39778,0,0,1,3.39771-3.39783h15.29028m0-.5H328.16284a3.90219,3.90219,0,0,0-3.89771,3.89783V228.2229h23.08594V186.94861a3.90224,3.90224,0,0,0-3.89795-3.89783Z"/>
    </g>
    <path d="M120.89441,142.958v5.76488H409.11v-8.49462H123.62416A2.72966,2.72966,0,0,0,120.89441,142.958Zm253.13948-1.88025a3.39785,3.39785,0,1,1-3.398,3.39785A3.39782,3.39782,0,0,1,374.0339,141.07778Zm-40.34943,0a3.39785,3.39785,0,1,1-3.398,3.39785A3.39782,3.39782,0,0,1,333.68447,141.07778Zm-40.34943,0a3.39785,3.39785,0,1,1-3.398,3.39785A3.39782,3.39782,0,0,1,293.335,141.07778Zm-40.34943,0a3.39785,3.39785,0,1,1-3.398,3.39785A3.39782,3.39782,0,0,1,252.98562,141.07778Zm-40.34943,0a3.39785,3.39785,0,1,1-3.398,3.39785A3.39782,3.39782,0,0,1,212.63619,141.07778Zm-40.34943,0a3.39785,3.39785,0,1,1-3.398,3.39785A3.39786,3.39786,0,0,1,172.28676,141.07778Zm-40.34943,0a3.39785,3.39785,0,1,1-3.398,3.39785A3.39786,3.39786,0,0,1,131.93734,141.07778Z" fill="#242424"/>
    <g>
      <circle cx="131.93726" cy="144.47559" r="3.49731" fill="#6e2014"/>
      <path d="M131.93738,141.07776a3.39789,3.39789,0,1,1-3.39795,3.39783,3.39787,3.39787,0,0,1,3.39795-3.39783m0-.2a3.59787,3.59787,0,1,0,3.5979,3.59784,3.602,3.602,0,0,0-3.5979-3.59784Z"/>
    </g>
    <g>
      <circle cx="172.28687" cy="144.47559" r="3.49731" fill="#6e2014"/>
      <path d="M172.28687,141.07776a3.39789,3.39789,0,1,1-3.39795,3.39783,3.39787,3.39787,0,0,1,3.39795-3.39783m0-.2a3.59787,3.59787,0,1,0,3.5979,3.59784,3.602,3.602,0,0,0-3.5979-3.59784Z"/>
    </g>
    <g>
      <circle cx="212.63599" cy="144.47559" r="3.49731" fill="#6e2014"/>
      <path d="M212.63623,141.07776a3.39789,3.39789,0,1,1-3.39795,3.39783,3.39782,3.39782,0,0,1,3.39795-3.39783m0-.2a3.59787,3.59787,0,1,0,3.59766,3.59784,3.602,3.602,0,0,0-3.59766-3.59784Z"/>
    </g>
    <g>
      <circle cx="252.9856" cy="144.47559" r="3.49731" fill="#6e2014"/>
      <path d="M252.9856,141.07776a3.39789,3.39789,0,1,1-3.39795,3.39783,3.39782,3.39782,0,0,1,3.39795-3.39783m0-.2a3.59787,3.59787,0,1,0,3.59766,3.59784,3.602,3.602,0,0,0-3.59766-3.59784Z"/>
    </g>
    <g>
      <circle cx="293.33496" cy="144.47559" r="3.49707" fill="#6e2014"/>
      <path d="M293.335,141.07776a3.39789,3.39789,0,1,1-3.39795,3.39783,3.39782,3.39782,0,0,1,3.39795-3.39783m0-.2a3.59787,3.59787,0,1,0,3.59766,3.59784,3.602,3.602,0,0,0-3.59766-3.59784Z"/>
    </g>
    <g>
      <circle cx="333.68433" cy="144.47559" r="3.49731" fill="#6e2014"/>
      <path d="M333.68457,141.07776a3.39789,3.39789,0,1,1-3.39795,3.39783,3.39782,3.39782,0,0,1,3.39795-3.39783m0-.2a3.59787,3.59787,0,1,0,3.59766,3.59784,3.602,3.602,0,0,0-3.59766-3.59784Z"/>
    </g>
    <g>
      <circle cx="374.03394" cy="144.47559" r="3.49731" fill="#6e2014"/>
      <path d="M374.03394,141.07776a3.39789,3.39789,0,1,1-3.39795,3.39783,3.39782,3.39782,0,0,1,3.39795-3.39783m0-.2a3.59787,3.59787,0,1,0,3.59766,3.59784,3.602,3.602,0,0,0-3.59766-3.59784Z"/>
    </g>
    <g>
      <circle cx="131.93726" cy="96.90601" r="3.49756" fill="#ff4621"/>
      <path d="M131.93738,93.508a3.39783,3.39783,0,1,1-3.39795,3.39783,3.39783,3.39783,0,0,1,3.39795-3.39783m0-.2a3.59784,3.59784,0,1,0,3.5979,3.59784,3.602,3.602,0,0,0-3.5979-3.59784Z"/>
      <path d="M131.93738,94.008a2.89783,2.89783,0,1,1-2.89795,2.89783,2.90117,2.90117,0,0,1,2.89795-2.89783m0-.5a3.39783,3.39783,0,1,0,3.39795,3.39783,3.39783,3.39783,0,0,0-3.39795-3.39783Z" fill="#802c1f"/>
    </g>
    <g>
      <circle cx="172.28687" cy="96.90601" r="3.49756" fill="#ff4621"/>
      <path d="M172.28687,93.508a3.39783,3.39783,0,1,1-3.39795,3.39783,3.39783,3.39783,0,0,1,3.39795-3.39783m0-.2a3.59784,3.59784,0,1,0,3.5979,3.59784,3.602,3.602,0,0,0-3.5979-3.59784Z"/>
      <path d="M172.28687,94.008a2.89783,2.89783,0,1,1-2.89795,2.89783,2.90117,2.90117,0,0,1,2.89795-2.89783m0-.5a3.39783,3.39783,0,1,0,3.39795,3.39783,3.39783,3.39783,0,0,0-3.39795-3.39783Z" fill="#802c1f"/>
    </g>
    <g>
      <circle cx="212.63599" cy="96.90601" r="3.49756" fill="#ff4621"/>
      <path d="M212.63623,93.508a3.39783,3.39783,0,1,1-3.39795,3.39783,3.39778,3.39778,0,0,1,3.39795-3.39783m0-.2a3.59784,3.59784,0,1,0,3.59766,3.59784,3.602,3.602,0,0,0-3.59766-3.59784Z"/>
      <path d="M212.63623,94.008a2.89783,2.89783,0,1,1-2.89795,2.89783,2.901,2.901,0,0,1,2.89795-2.89783m0-.5a3.39783,3.39783,0,1,0,3.39771,3.39783,3.39783,3.39783,0,0,0-3.39771-3.39783Z" fill="#802c1f"/>
    </g>
    <g>
      <circle cx="252.9856" cy="96.90601" r="3.49756" fill="#ff4621"/>
      <path d="M252.9856,93.508a3.39783,3.39783,0,1,1-3.39795,3.39783A3.39778,3.39778,0,0,1,252.9856,93.508m0-.2a3.59784,3.59784,0,1,0,3.59766,3.59784A3.602,3.602,0,0,0,252.9856,93.308Z"/>
      <path d="M252.9856,94.008a2.89783,2.89783,0,1,1-2.89795,2.89783A2.901,2.901,0,0,1,252.9856,94.008m0-.5a3.39783,3.39783,0,1,0,3.39771,3.39783A3.39783,3.39783,0,0,0,252.9856,93.508Z" fill="#802c1f"/>
    </g>
    <g>
      <circle cx="293.33496" cy="96.90601" r="3.49731" fill="#ff4621"/>
      <path d="M293.335,93.508a3.39783,3.39783,0,1,1-3.39795,3.39783A3.39778,3.39778,0,0,1,293.335,93.508m0-.2a3.59784,3.59784,0,1,0,3.59766,3.59784A3.602,3.602,0,0,0,293.335,93.308Z"/>
      <path d="M293.335,94.008a2.89783,2.89783,0,1,1-2.89795,2.89783A2.901,2.901,0,0,1,293.335,94.008m0-.5a3.39783,3.39783,0,1,0,3.39771,3.39783A3.39783,3.39783,0,0,0,293.335,93.508Z" fill="#802c1f"/>
    </g>
    <g>
      <circle cx="333.68433" cy="96.90601" r="3.49756" fill="#ff4621"/>
      <path d="M333.68457,93.508a3.39783,3.39783,0,1,1-3.39795,3.39783,3.39778,3.39778,0,0,1,3.39795-3.39783m0-.2a3.59784,3.59784,0,1,0,3.59766,3.59784,3.602,3.602,0,0,0-3.59766-3.59784Z"/>
      <path d="M333.68457,94.008a2.89783,2.89783,0,1,1-2.89795,2.89783,2.901,2.901,0,0,1,2.89795-2.89783m0-.5a3.39783,3.39783,0,1,0,3.39771,3.39783,3.39783,3.39783,0,0,0-3.39771-3.39783Z" fill="#802c1f"/>
    </g>
    <g>
      <circle cx="374.03394" cy="96.90601" r="3.49756" fill="#ff4621"/>
      <path d="M374.03394,93.508a3.39783,3.39783,0,1,1-3.39795,3.39783,3.39778,3.39778,0,0,1,3.39795-3.39783m0-.2a3.59784,3.59784,0,1,0,3.59766,3.59784,3.602,3.602,0,0,0-3.59766-3.59784Z"/>
      <path d="M374.03394,94.008a2.89783,2.89783,0,1,1-2.89795,2.89783,2.901,2.901,0,0,1,2.89795-2.89783m0-.5a3.39783,3.39783,0,1,0,3.39771,3.39783,3.39783,3.39783,0,0,0-3.39771-3.39783Z" fill="#802c1f"/>
    </g>
    <g>
      <rect x="250.23914" y="47.76107" width="31.82602" height="21.83793" rx="1" ry="1" fill="#1a1a1a"/>
      <rect x="250.59782" y="48.10229" width="31.10867" height="21.15549" rx="0.925" ry="0.925" fill="#1d1d1d"/>
      <rect x="250.95649" y="48.4435" width="30.39132" height="20.47306" rx="0.85" ry="0.85" fill="#202020"/>
      <rect x="251.31516" y="48.78472" width="29.67397" height="19.79062" rx="0.775" ry="0.775" fill="#222"/>
      <rect x="251.67384" y="49.12594" width="28.95662" height="19.10819" rx="0.7" ry="0.7" fill="#252525"/>
    </g>
    <g>
      <ellipse cx="266.15215" cy="58.68003" rx="12.23441" ry="9.2119" fill="#252525"/>
      <ellipse cx="266.15215" cy="58.68003" rx="12.07139" ry="9.08915" fill="#1e1e1e"/>
      <ellipse cx="266.15215" cy="58.68003" rx="11.90838" ry="8.96641" fill="#181818"/>
      <ellipse cx="266.15215" cy="58.68003" rx="11.74536" ry="8.84367" fill="#111"/>
      <ellipse cx="266.15215" cy="58.68003" rx="11.58235" ry="8.72093" fill="#0a0a0a"/>
      <ellipse cx="266.15215" cy="58.68003" rx="11.41933" ry="8.59818" fill="#030303"/>
      <ellipse cx="266.67666" cy="58.89752" rx="10.61079" ry="8.01738" fill="#020202"/>
      <ellipse cx="267.20117" cy="59.115" rx="9.88376" ry="7.49795" fill="#050505"/>
      <ellipse cx="267.72568" cy="59.33249" rx="9.15672" ry="6.97851" fill="#070707"/>
      <ellipse cx="268.25019" cy="59.54997" rx="8.42969" ry="6.45908" fill="#090909"/>
      <ellipse cx="268.7747" cy="59.76746" rx="7.70266" ry="5.93965" fill="#0f0f0f"/>
      <ellipse cx="269.2992" cy="59.98494" rx="6.97562" ry="5.42021" fill="#111"/>
      <ellipse cx="269.82371" cy="60.20243" rx="6.24859" ry="4.90078" fill="#161616"/>
      <ellipse cx="270.34822" cy="60.41991" rx="5.52156" ry="4.38135" fill="#1c1c1c"/>
      <ellipse cx="270.87273" cy="60.6374" rx="4.79453" ry="3.86191" fill="#212121"/>
      <ellipse cx="271.39724" cy="60.85488" rx="4.06749" ry="3.34248" fill="#262626"/>
      <ellipse cx="271.92175" cy="61.07237" rx="3.34046" ry="2.82305" fill="#2b2b2b"/>
    </g>
  </g>
</svg>
