<svg xmlns="http://www.w3.org/2000/svg" xmlns:xlink="http://www.w3.org/1999/xlink" viewBox="0 0 170 100"><defs><radialGradient id="a" cx="20.10663" cy="39.90214" r="4.76486" gradientTransform="translate(0 0.00119)" gradientUnits="userSpaceOnUse"><stop offset="0" stop-color="#8c8c8c"/><stop offset="0.02265" stop-color="#7f7f7f"/><stop offset="0.0919" stop-color="#5e5e5e"/><stop offset="0.16919" stop-color="#424242"/><stop offset="0.25513" stop-color="#2b2b2b"/><stop offset="0.3536" stop-color="#191919"/><stop offset="0.47201" stop-color="#0c0c0c"/><stop offset="0.63083" stop-color="#050505"/><stop offset="1" stop-color="#030303"/></radialGradient></defs><title>power</title><rect width="170" height="100" fill="#1a1a1a"/><rect x="10.00586" y="15.03125" width="22.95508" height="43.10938" rx="1.74414" ry="1.74414" fill="#333"/><path d="M31.21655,15.287a1.49043,1.49043,0,0,1,1.48877,1.48877V56.396a1.49044,1.49044,0,0,1-1.48877,1.48877H11.75A1.49044,1.49044,0,0,1,10.26123,56.396V16.77576A1.49044,1.49044,0,0,1,11.75,15.287H31.21655m0-.51123H11.75a1.99994,1.99994,0,0,0-2,2V56.396a2,2,0,0,0,2,2H31.21655a2,2,0,0,0,2-2V16.77576a2,2,0,0,0-2-2Z" fill="#4d4d4d"/><path d="M31.21655,14.77576a2,2,0,0,1,2,2V56.396a2,2,0,0,1-2,2H11.75a2,2,0,0,1-2-2V16.77576a1.99994,1.99994,0,0,1,2-2H31.21655m0-.426H11.75a2.42871,2.42871,0,0,0-2.426,2.426V56.396a2.42871,2.42871,0,0,0,2.426,2.426H31.21655a2.42871,2.42871,0,0,0,2.426-2.426V16.77576a2.42871,2.42871,0,0,0-2.426-2.426Z"/><circle cx="21.48326" cy="52.16976" r="2.5"/><circle cx="21.48326" cy="52.16976" r="2.5" fill="none" stroke="#1a1a1a" stroke-miterlimit="10" stroke-width="1.50603"/><circle cx="21.48326" cy="52.16976" r="2.5" fill="none" stroke="#666" stroke-miterlimit="10" stroke-width="0.75302"/><circle cx="21.4834" cy="38.80862" r="4.25" fill="url(#a)"/><path d="M21.48328,34.80911a3.99982,3.99982,0,1,1-4,3.99975,4.00445,4.00445,0,0,1,4-3.99975m0-.5a4.49982,4.49982,0,1,0,4.5,4.49975,4.49986,4.49986,0,0,0-4.5-4.49975Z" fill="gray"/><path d="M21.48328,34.30911a4.49982,4.49982,0,1,1-4.5,4.49975,4.49994,4.49994,0,0,1,4.5-4.49975m0-1a5.49982,5.49982,0,1,0,5.5,5.49975,5.50609,5.50609,0,0,0-5.5-5.49975Z"/><circle cx="21.4834" cy="28.65374" r="1.41016" fill="#256107"/><path d="M21.48328,27.49346a1.16,1.16,0,1,1-1.16,1.16,1.16132,1.16132,0,0,1,1.16-1.16m0-.5a1.66,1.66,0,1,0,1.65991,1.66,1.66,1.66,0,0,0-1.65991-1.66Z"/><circle cx="21.48326" cy="52.16976" r="0.75885" fill="#b3b3b3"/><path d="M21.48326,21.43427A.21029.21029,0,0,1,21.273,21.224V18.99959a.21028.21028,0,1,1,.42055,0V21.224A.21029.21029,0,0,1,21.48326,21.43427Z" fill="#f2f2f2"/><path d="M21.48326,23.52566a1.98566,1.98566,0,0,1-1.03527-3.6826.21034.21034,0,1,1,.21991.35863,1.56935,1.56935,0,1,0,1.63055,0,.21035.21035,0,0,1,.21992-.35863,1.9856,1.9856,0,0,1-1.03511,3.6826Z" fill="#f2f2f2"/><path d="M28,86.4H44.5A2.5,2.5,0,0,0,47,83.9v-65a2.5,2.5,0,0,1,2.5-2.5h0A2.5,2.5,0,0,1,52,18.9v65a2.5,2.5,0,0,0,2.5,2.5h0A2.5,2.5,0,0,0,57,83.9v-65a2.5,2.5,0,0,1,2.5-2.5h0A2.5,2.5,0,0,1,62,18.9v65a2.5,2.5,0,0,0,2.5,2.5h0A2.5,2.5,0,0,0,67,83.9v-65a2.5,2.5,0,0,1,2.5-2.5h0A2.5,2.5,0,0,1,72,18.9v65a2.5,2.5,0,0,0,2.5,2.5h11A2.5,2.5,0,0,0,88,83.9V76.4" fill="none" stroke="#333" stroke-miterlimit="10" stroke-width="2.3"/><path d="M28,86.4H44.5A2.5,2.5,0,0,0,47,83.9v-65a2.5,2.5,0,0,1,2.5-2.5h0A2.5,2.5,0,0,1,52,18.9v65a2.5,2.5,0,0,0,2.5,2.5h0A2.5,2.5,0,0,0,57,83.9v-65a2.5,2.5,0,0,1,2.5-2.5h0A2.5,2.5,0,0,1,62,18.9v65a2.5,2.5,0,0,0,2.5,2.5h0A2.5,2.5,0,0,0,67,83.9v-65a2.5,2.5,0,0,1,2.5-2.5h0A2.5,2.5,0,0,1,72,18.9v65a2.5,2.5,0,0,0,2.5,2.5h11A2.5,2.5,0,0,0,88,83.9V76.4" fill="none" stroke="#000" stroke-miterlimit="10" stroke-width="1.8"/><path d="M141.8,49.40025H131.3a2.5,2.5,0,0,0-2.5,2.5V83.9a2.5,2.5,0,0,1-2.5,2.5h0a2.5,2.5,0,0,1-2.5-2.5v-65a2.5,2.5,0,0,0-2.5-2.5h0a2.5,2.5,0,0,0-2.5,2.5v65a2.5,2.5,0,0,1-2.5,2.5h0a2.5,2.5,0,0,1-2.5-2.5v-65a2.5,2.5,0,0,0-2.5-2.5h0a2.5,2.5,0,0,0-2.5,2.5v65a2.5,2.5,0,0,1-2.5,2.5h0a2.5,2.5,0,0,1-2.5-2.5v-65a2.5,2.5,0,0,0-2.5-2.5h-11a2.5,2.5,0,0,0-2.5,2.5v7.5" fill="none" stroke="#333" stroke-miterlimit="10" stroke-width="2.3"/><path d="M141.8,49.40025H131.3a2.5,2.5,0,0,0-2.5,2.5V83.9a2.5,2.5,0,0,1-2.5,2.5h0a2.5,2.5,0,0,1-2.5-2.5v-65a2.5,2.5,0,0,0-2.5-2.5h0a2.5,2.5,0,0,0-2.5,2.5v65a2.5,2.5,0,0,1-2.5,2.5h0a2.5,2.5,0,0,1-2.5-2.5v-65a2.5,2.5,0,0,0-2.5-2.5h0a2.5,2.5,0,0,0-2.5,2.5v65a2.5,2.5,0,0,1-2.5,2.5h0a2.5,2.5,0,0,1-2.5-2.5v-65a2.5,2.5,0,0,0-2.5-2.5h-11a2.5,2.5,0,0,0-2.5,2.5v7.5" fill="none" stroke="#000" stroke-miterlimit="10" stroke-width="1.8"/><rect x="85.96106" y="68.10088" width="3.91208" height="11.44911" rx="1" ry="1" transform="translate(175.83419 147.65088) rotate(-180)" stroke="#333" stroke-miterlimit="10" stroke-width="0.20864"/><polygon points="86.242 21.25 89.592 21.25 91.397 28.852 91.397 33.563 84.437 33.563 84.437 28.852 86.242 21.25" stroke="#333" stroke-miterlimit="10" stroke-width="0.20864"/><rect x="77.24078" y="33.02683" width="21.35263" height="41.79913" rx="2" ry="2" transform="translate(175.83419 107.8528) rotate(-180)" stroke="#333" stroke-miterlimit="10" stroke-width="0.26079"/><path d="M162.31,47.19864H152.16322v-1.38H162.31a.69.69,0,0,1,.69.69h0A.69.69,0,0,1,162.31,47.19864Z" fill="#ccc"/><path d="M162.31,52.606H152.16322v-1.38H162.31a.69.69,0,0,1,.69.69h0A.69.69,0,0,1,162.31,52.606Z" fill="#ccc"/><rect x="152.16322" y="45.81861" width="7.50506" height="1.38003" stroke="#4d4d4d" stroke-miterlimit="10" stroke-width="0.17257"/><rect x="152.16322" y="51.22596" width="7.50506" height="1.38003" stroke="#4d4d4d" stroke-miterlimit="10" stroke-width="0.17257"/><path d="M137.393,51.2395V47.132a.69.69,0,0,1,.69-.69h3.054a.69007.69007,0,0,0,.31458-.07588l7.54253-3.48116a.69.69,0,0,1,.31458-.07588h6.68489a.69.69,0,0,1,.69.69V54.92538a.69.69,0,0,1-.69.69h-6.68274a.69.69,0,0,1-.31819-.07775l-7.53961-3.53039a.69.69,0,0,0-.3182-.07775H138.083A.69.69,0,0,1,137.393,51.2395Z" stroke="#4d4d4d" stroke-miterlimit="10" stroke-width="0.17257"/><path d="M137.9105,47.387h3.65991a.79179.79179,0,0,0,.305-.06022l7.31348-3.13584a.792.792,0,0,1,.305-.06021h6.10873a.37858.37858,0,0,1,.37315.38378V53.91a.37859.37859,0,0,1-.37315.38379H149.496a.79118.79118,0,0,1-.30853-.0617l-7.31064-3.17491a.79136.79136,0,0,0-.30853-.06169H137.9105Z" fill="#333" stroke="#4d4d4d" stroke-miterlimit="10" stroke-width="0.25886"/><line x1="150.49647" y1="46.6344" x2="150.49647" y2="51.79001" fill="none" stroke="#666" stroke-linecap="round" stroke-miterlimit="10" stroke-width="0.604"/><line x1="151.9893" y1="46.6344" x2="151.9893" y2="51.79001" fill="none" stroke="#666" stroke-linecap="round" stroke-miterlimit="10" stroke-width="0.604"/><line x1="153.48213" y1="46.6344" x2="153.48213" y2="51.79001" fill="none" stroke="#666" stroke-linecap="round" stroke-miterlimit="10" stroke-width="0.604"/><rect x="136.8755" y="45.48013" width="1.035" height="7.46415" rx="0.5175" ry="0.5175" stroke="#4d4d4d" stroke-miterlimit="10" stroke-width="0.17257"/><rect x="20.41093" y="70.79726" width="2.32617" height="5.41309" fill="#f2f2f2"/><path d="M22.64579,70.88821v5.2312H20.50187v-5.2312h2.14392m.18177-.18177H20.32011v5.59473h2.50745V70.70644Z" fill="#666"/><rect x="20.32016" y="70.12323" width="2.50745" height="0.67516" fill="#1a1a1a" stroke="#4d4d4d" stroke-miterlimit="10" stroke-width="0.18178"/><rect x="18.8173" y="76.00782" width="5.51314" height="2.99562" stroke="#4d4d4d" stroke-miterlimit="10" stroke-width="0.18178"/><polygon points="28.654 83.915 26.254 83.915 24.954 82.594 23.692 83.742 23.692 86.398 22.444 88.5 28.654 88.5 28.654 85.161 28.654 83.915" fill="#333" stroke="#4d4d4d" stroke-miterlimit="10" stroke-width="0.18178"/><polygon points="23.692 86.398 23.692 83.742 24.954 82.594 24.954 77.506 21.574 77.506 18.193 77.506 18.193 86.398 23.692 86.398" fill="#333" stroke="#4d4d4d" stroke-miterlimit="10" stroke-width="0.18178"/><polygon points="31.703 84.047 31.703 88.368 30.806 88.414 30.806 84.001 31.703 84.047" fill="#333" stroke="#4d4d4d" stroke-miterlimit="10" stroke-width="0.18178"/><polygon points="30.183 83.965 30.183 88.45 29.286 88.5 29.286 83.915 30.183 83.965" fill="#333" stroke="#4d4d4d" stroke-miterlimit="10" stroke-width="0.18178"/><polygon points="33.223 84.123 33.223 88.293 32.326 88.335 32.326 84.081 33.223 84.123" fill="#333" stroke="#4d4d4d" stroke-miterlimit="10" stroke-width="0.18178"/><path d="M35.325,84.67383v3.068a.30674.30674,0,0,1-.29065.31285l-1.2488.19176V84.16922l1.2488.19175A.30675.30675,0,0,1,35.325,84.67383Z" fill="#333" stroke="#4d4d4d" stroke-miterlimit="10" stroke-width="0.18178"/><polygon points="18.193 86.398 19.664 88.5 22.444 88.5 23.692 86.398 18.193 86.398" fill="#1a1a1a" stroke="#4d4d4d" stroke-miterlimit="10" stroke-width="0.18178"/><polygon points="24.954 82.594 23.692 83.742 23.692 86.398 22.444 88.5 26.254 88.5 26.254 83.915 24.954 82.594" fill="#1a1a1a" stroke="#4d4d4d" stroke-miterlimit="10" stroke-width="0.18178"/></svg>