<svg xmlns="http://www.w3.org/2000/svg" xmlns:xlink="http://www.w3.org/1999/xlink" viewBox="0 0 160 100"><defs><radialGradient id="a" cx="19.41158" cy="35.65987" r="3.70774" gradientUnits="userSpaceOnUse"><stop offset="0" stop-color="#8c8c8c"/><stop offset="0.02265" stop-color="#7f7f7f"/><stop offset="0.0919" stop-color="#5e5e5e"/><stop offset="0.16919" stop-color="#424242"/><stop offset="0.25513" stop-color="#2b2b2b"/><stop offset="0.3536" stop-color="#191919"/><stop offset="0.47201" stop-color="#0c0c0c"/><stop offset="0.63083" stop-color="#050505"/><stop offset="1" stop-color="#030303"/></radialGradient><linearGradient id="b" x1="78.53276" y1="83.23977" x2="78.53276" y2="81.50968" gradientUnits="userSpaceOnUse"><stop offset="0"/><stop offset="0.0968" stop-color="#090909"/><stop offset="0.34647" stop-color="#1d1d1d"/><stop offset="0.51774" stop-color="#242424"/><stop offset="0.67487" stop-color="#1d1d1d"/><stop offset="0.89553" stop-color="#0b0b0b"/><stop offset="1"/></linearGradient><linearGradient id="c" x1="24.8692" y1="84.90027" x2="24.8692" y2="78.40186" xlink:href="#b"/><linearGradient id="d" x1="16.77635" y1="77.69562" x2="24.21485" y2="77.69562" gradientUnits="userSpaceOnUse"><stop offset="0" stop-color="#242424"/><stop offset="1"/></linearGradient><linearGradient id="e" x1="31.14645" y1="84.80559" x2="31.14645" y2="79.95051" xlink:href="#b"/><linearGradient id="f" x1="29.47388" y1="84.90027" x2="29.47388" y2="79.85582" xlink:href="#b"/><linearGradient id="g" x1="32.81902" y1="84.7186" x2="32.81902" y2="80.0375" xlink:href="#b"/><linearGradient id="h" x1="34.77813" y1="84.621" x2="34.77813" y2="80.13509" xlink:href="#b"/></defs><title>power</title><rect x="1" y="1" width="158" height="98" rx="2" ry="2" fill="#202020"/><path d="M157,2a1.00115,1.00115,0,0,1,1,1V97a1.00115,1.00115,0,0,1-1,1H3a1.00115,1.00115,0,0,1-1-1V3A1.00115,1.00115,0,0,1,3,2H157m0-2H3A3,3,0,0,0,0,3V97a3,3,0,0,0,3,3H157a3,3,0,0,0,3-3V3a3,3,0,0,0-3-3Z" fill="#333"/><rect x="7.19043" y="7.52832" width="26.58594" height="51.26465" rx="1.7002" ry="1.7002" fill="#333"/><path d="M32.07581,7.82849a1.40161,1.40161,0,0,1,1.4,1.4V57.09277a1.40161,1.40161,0,0,1-1.4,1.4H8.89075a1.40161,1.40161,0,0,1-1.4-1.4V9.22852a1.40161,1.40161,0,0,1,1.4-1.4H32.07581m0-.6H8.89075a1.99994,1.99994,0,0,0-2,2V57.09277a1.99994,1.99994,0,0,0,2,2H32.07581a2,2,0,0,0,2-2V9.22852a2,2,0,0,0-2-2Z" fill="#4d4d4d"/><path d="M32.07581,7.22852a2,2,0,0,1,2,2V57.09277a2,2,0,0,1-2,2H8.89075a1.99994,1.99994,0,0,1-2-2V9.22852a1.99994,1.99994,0,0,1,2-2H32.07581m0-.5H8.89075a2.50279,2.50279,0,0,0-2.5,2.5V57.09277a2.50279,2.50279,0,0,0,2.5,2.5H32.07581a2.50279,2.50279,0,0,0,2.5-2.5V9.22852a2.50279,2.50279,0,0,0-2.5-2.5Z"/><circle cx="20.48325" cy="50.26975" r="3.31998"/><circle cx="20.48325" cy="50.26975" r="3.31998" fill="none" stroke="#1a1a1a" stroke-miterlimit="10" stroke-width="2"/><circle cx="20.48325" cy="50.26975" r="3.31998" fill="none" stroke="#666" stroke-miterlimit="10"/><path d="M20.4834,38.11621A3.30713,3.30713,0,1,1,23.79,34.80859,3.31086,3.31086,0,0,1,20.4834,38.11621Z" fill="url(#a)"/><path d="M20.48328,31.75171a3.05713,3.05713,0,1,1-3.05713,3.05713,3.06064,3.06064,0,0,1,3.05713-3.05713m0-.5a3.55713,3.55713,0,1,0,3.55713,3.55713,3.55714,3.55714,0,0,0-3.55713-3.55713Z" fill="gray"/><path d="M20.48328,31.25171a3.55713,3.55713,0,1,1-3.55713,3.55713,3.55722,3.55722,0,0,1,3.55713-3.55713m0-2a5.55713,5.55713,0,1,0,5.55713,5.55713,5.56343,5.56343,0,0,0-5.55713-5.55713Z"/><circle cx="20.4834" cy="24.05371" r="1.41016" fill="#256107"/><path d="M20.48328,22.89343a1.16,1.16,0,1,1-1.16,1.16,1.16132,1.16132,0,0,1,1.16-1.16m0-.5a1.66,1.66,0,1,0,1.65991,1.66,1.66,1.66,0,0,0-1.65991-1.66Z"/><circle cx="20.48325" cy="50.26975" r="0.75885" fill="#b3b3b3"/><path d="M20.48325,16.03424A.2103.2103,0,0,1,20.273,15.824V13.59955a.21028.21028,0,0,1,.42056,0V15.824A.2103.2103,0,0,1,20.48325,16.03424Z" fill="#f2f2f2"/><path d="M20.48325,18.12563A1.98566,1.98566,0,0,1,19.448,14.443a.21034.21034,0,1,1,.21992.35862,1.56934,1.56934,0,1,0,1.63055,0,.21034.21034,0,1,1,.21991-.35862,1.98559,1.98559,0,0,1-1.03511,3.6826Z" fill="#f2f2f2"/><path d="M62.89648,92.8623a2.25309,2.25309,0,0,1-2.25-2.25V85.96387H56.89355l-7.53613-1.78321v-.69043H35.875v.5752a.58386.58386,0,0,1-.5625.59473l-1.63086.25195V79.84375l1.66211.25488a.57716.57716,0,0,1,.53125.5918v.56934H49.35742V80.5752l7.47852-1.77637,3.81054-.00684V74.14355a2.25309,2.25309,0,0,1,2.25-2.25H98.96582a2.25309,2.25309,0,0,1,2.25,2.25v6.10938h3.27832a1.252,1.252,0,0,1,1.22656,1.00684h15.01075V78.65234a.84961.84961,0,1,1,1.69921,0V78.918h3.48926a.55534.55534,0,0,0,.25-.06055l8.752-4.03906a1.03325,1.03325,0,0,1,.46874-.11133h7.74708a1.05068,1.05068,0,0,1,1.0498,1.04981v2.43847H150.458a1.04981,1.04981,0,0,1,0,2.09961H144.1875v4.167H150.458a1.04981,1.04981,0,0,1,0,2.09961H144.1875V88.999a1.05069,1.05069,0,0,1-1.0498,1.04981h-7.74415a1.07582,1.07582,0,0,1-.48339-.11719l-8.73047-4.08789a.56291.56291,0,0,0-.26172-.06641h-3.48731v.32618a.84961.84961,0,0,1-1.69921,0V83.49023H105.71973a1.251,1.251,0,0,1-1.22559,1.0127h-3.27832V90.6123a2.25309,2.25309,0,0,1-2.25,2.25Z" fill="#1a1a1a"/><path d="M98.96545,72.14368a2,2,0,0,1,2,2v6.35937H104.494a1.00006,1.00006,0,0,1,1,1v.00672h15.48743V78.65271a.59979.59979,0,1,1,1.19958,0v.55518a.76936.76936,0,0,1,.19983-.04029h3.53943a.80025.80025,0,0,0,.3645-.088l8.74146-4.03442a.80026.80026,0,0,1,.3645-.088h7.74731a.79979.79979,0,0,1,.79968.79981v2.68823h6.52063a.79948.79948,0,0,1,.79956.79956v.00012a.79959.79959,0,0,1-.79956.79969h-6.52063v4.66735h6.52063a.79969.79969,0,0,1,0,1.59937h-6.52063v2.688a.79968.79968,0,0,1-.79968.79968h-7.74487a.79849.79849,0,0,1-.36865-.09009l-8.738-4.09155a.80049.80049,0,0,0-.36865-.09009h-3.537a.76976.76976,0,0,1-.19983-.04028v.6167a.59979.59979,0,0,1-1.19958,0V83.23987H105.494v.0133a1,1,0,0,1-1,1h-3.52857v6.35938a1.99994,1.99994,0,0,1-2,2H62.89636a2,2,0,0,1-2-2v-4.8988H56.89392l-7.287-1.73v-.74389H35.62512v.82593a.33742.33742,0,0,1-.31982.34423l-1.374.21106v-4.486l1.374.21094a.33775.33775,0,0,1,.31982.34424v.81946H49.60693v-.73719l7.287-1.73022h4.00244V74.14368a2,2,0,0,1,2-2H98.96545m0-.5H62.89636a2.50279,2.50279,0,0,0-2.5,2.5v4.39868h-3.561l-.05689.01355-7.287,1.73022-.38453.09131v.63233H36.12512v-.31946a.834.834,0,0,0-.76733-.842l-1.35059-.2074-.57593-.08838v5.65125l.57593-.08838,1.35-.2074a.83373.83373,0,0,0,.76794-.84216v-.32593H49.10693v.639l.38453.0913,7.287,1.73.057.01355h3.56091v4.3988a2.50279,2.50279,0,0,0,2.5,2.5H98.96545a2.50279,2.50279,0,0,0,2.5-2.5V84.75317H104.494a1.50247,1.50247,0,0,0,1.41894-1.0133h14.56849v2.36377a1.09979,1.09979,0,0,0,2.19958,0v-.07642h3.23682a.30124.30124,0,0,1,.13818.03382l8.75647,4.10058a1.27815,1.27815,0,0,0,.58069.13733h7.74487a1.30111,1.30111,0,0,0,1.29968-1.29968v-2.188h6.02063a1.29969,1.29969,0,0,0,0-2.59937h-6.02063V80.54456h6.02063a1.29969,1.29969,0,0,0,0-2.59937h-6.02063V75.757a1.30122,1.30122,0,0,0-1.29968-1.29981h-7.74731a1.30554,1.30554,0,0,0-.59229.14295l-8.72314,4.02551a.33355.33355,0,0,1-.155.042H122.681v-.01489a1.09979,1.09979,0,1,0-2.19958,0v2.35706h-14.5719a1.501,1.501,0,0,0-1.41553-1.00672h-3.02857V74.14368a2.50279,2.50279,0,0,0-2.5-2.5Z"/><polygon points="18.265 85.15 16.526 82.667 16.526 72.554 17.213 72.554 17.213 70.905 18.866 70.905 18.866 64.432 22.125 64.432 22.125 70.905 23.778 70.905 23.778 72.554 24.465 72.554 24.465 78.3 25.749 79.605 28.536 79.605 28.536 85.15 18.265 85.15" fill="#1a1a1a"/><path d="M21.87512,64.68127v6.47449h1.65332v1.64783H24.215V78.402l1.42968,1.45385h2.64112v5.04444H18.39441l-1.618-2.3125V72.80359h.6864V71.15576h1.65356V64.68127h2.75879m.5-.5H18.61633v6.47449H16.96277v1.64783h-.6864V82.74536l.09033.129,1.618,2.3125.14929.21338H28.78577V79.35583H25.85425L24.715,78.19727V72.30359h-.68653V70.65576H22.37512V64.18127Z"/><polygon points="30.403 79.687 31.89 79.764 31.89 84.992 30.403 85.069 30.403 79.687" fill="#1a1a1a"/><path d="M30.653,79.95056l.98706.05054V84.755l-.98706.05066v-4.8551m-.5-.52624V85.332l.52564-.027.98706-.05066L32.14,85.23V79.526l-.47448-.02429-.98706-.05054-.52552-.02685Z"/><polygon points="28.73 79.591 30.218 79.675 30.218 85.081 28.73 85.165 28.73 79.591" fill="#1a1a1a"/><path d="M28.98035,79.85583l.98718.05518v4.9342l-.98718.05506V79.85583m-.5-.52868V85.429l.52783-.02942.98718-.05506.47217-.02636V79.43823l-.472-.02649-.98718-.05517-.52795-.02942Z"/><polygon points="32.075 79.775 33.563 79.846 33.563 84.91 32.075 84.98 32.075 79.775" fill="#1a1a1a"/><path d="M32.32556,80.03748l.98706.04663V84.672l-.98706.04663V80.03748m-.5-.52417V85.2428l.52356-.02478.98706-.04663.47644-.02246V79.60718l-.47644-.02246-.98706-.04663-.52356-.02478Z"/><rect x="34.77401" y="81.50968" width="87.51749" height="1.73009" stroke="#4d4d4d" stroke-miterlimit="10" stroke-width="0.2" fill="url(#b)"/><rect x="98.13123" y="76.89042" width="3.75017" height="10.97525" rx="1" ry="1" transform="translate(182.38436 -17.62827) rotate(90)" fill="#252525" stroke="#4d4d4d" stroke-miterlimit="10" stroke-width="0.2"/><polygon points="49.607 83.984 49.607 80.772 56.894 79.042 61.41 79.042 61.41 85.714 56.894 85.714 49.607 83.984" fill="#252525" stroke="#4d4d4d" stroke-miterlimit="10" stroke-width="0.2"/><rect x="70.69643" y="62.34348" width="20.46888" height="40.06913" rx="2" ry="2" transform="translate(163.30891 1.44718) rotate(90)" fill="#252525" stroke="#4d4d4d" stroke-miterlimit="10" stroke-width="0.2"/><path d="M150.45828,80.04447H138.69886V78.4451h11.75942a.79968.79968,0,0,1,.79968.79968h0A.79968.79968,0,0,1,150.45828,80.04447Z" fill="#ccc"/><path d="M150.45828,86.31122H138.69886V84.71185h11.75942a.79968.79968,0,0,1,.79968.79968h0A.79968.79968,0,0,1,150.45828,86.31122Z" fill="#ccc"/><rect x="138.69886" y="78.4451" width="8.69786" height="1.59937" stroke="#4d4d4d" stroke-miterlimit="10" stroke-width="0.2"/><rect x="138.69886" y="84.71185" width="8.69786" height="1.59937" stroke="#4d4d4d" stroke-miterlimit="10" stroke-width="0.2"/><path d="M121.58116,84.72754V79.96717a.79968.79968,0,0,1,.79969-.79968h3.5394a.79968.79968,0,0,0,.36458-.08794l8.74129-4.03443a.79967.79967,0,0,1,.36457-.08794H143.138a.79968.79968,0,0,1,.79968.79968V88.99923a.79968.79968,0,0,1-.79968.79969h-7.74484a.79962.79962,0,0,1-.36876-.09011l-8.73791-4.09148a.79964.79964,0,0,0-.36876-.0901h-3.53691A.79969.79969,0,0,1,121.58116,84.72754Z" fill="#1a1a1a" stroke="#4d4d4d" stroke-miterlimit="10" stroke-width="0.2"/><path d="M122.18091,80.26278h4.24159a.91772.91772,0,0,0,.35351-.06979l8.47582-3.63422a.9177.9177,0,0,1,.3535-.06979h7.0796a.43875.43875,0,0,1,.43246.44478V87.82251a.43876.43876,0,0,1-.43246.44479h-7.07718a.917.917,0,0,1-.35756-.07151l-8.47254-3.6795a.917.917,0,0,0-.35757-.0715h-4.23917Z" fill="#333" stroke="#333" stroke-miterlimit="10" stroke-width="0.3"/><line x1="136.76721" y1="79.39054" x2="136.76721" y2="85.36555" fill="none" stroke="#666" stroke-linecap="round" stroke-miterlimit="10" stroke-width="0.7"/><line x1="138.4973" y1="79.39054" x2="138.4973" y2="85.36555" fill="none" stroke="#666" stroke-linecap="round" stroke-miterlimit="10" stroke-width="0.7"/><line x1="140.22738" y1="79.39054" x2="140.22738" y2="85.36555" fill="none" stroke="#666" stroke-linecap="round" stroke-miterlimit="10" stroke-width="0.7"/><rect x="120.98142" y="78.05283" width="1.19949" height="8.65045" rx="0.59975" ry="0.59975" fill="#252525" stroke="#4d4d4d" stroke-miterlimit="10" stroke-width="0.2"/><rect x="19.2666" y="65.47363" width="2.45801" height="5.85449" fill="#f2f2f2"/><path d="M21.575,65.62292v5.55542H19.41626V65.62292H21.575m.3-.3H19.11621v6.15551H21.875V65.32288Z" fill="#666"/><rect x="19.11623" y="64.68128" width="2.75877" height="0.74283" fill="#1a1a1a" stroke="#4d4d4d" stroke-miterlimit="10" stroke-width="0.3"/><rect x="17.46274" y="71.15567" width="6.06573" height="3.29587" stroke="#4d4d4d" stroke-miterlimit="10" stroke-width="0.3"/><polygon points="28.286 79.856 25.645 79.856 24.215 78.402 22.826 79.665 22.826 82.588 21.453 84.9 28.286 84.9 28.286 81.226 28.286 79.856" stroke="#4d4d4d" stroke-miterlimit="10" stroke-width="0.3" fill="url(#c)"/><polygon points="22.826 82.588 22.826 79.665 24.215 78.402 24.215 72.804 20.496 72.804 16.776 72.804 16.776 82.588 22.826 82.588" stroke="#4d4d4d" stroke-miterlimit="10" stroke-width="0.3" fill="url(#d)"/><polygon points="31.64 80.001 31.64 84.755 30.653 84.806 30.653 79.951 31.64 80.001" stroke="#4d4d4d" stroke-miterlimit="10" stroke-width="0.3" fill="url(#e)"/><polygon points="29.967 79.911 29.967 84.845 28.98 84.9 28.98 79.856 29.967 79.911" stroke="#4d4d4d" stroke-miterlimit="10" stroke-width="0.3" fill="url(#f)"/><polygon points="33.313 80.084 33.313 84.672 32.325 84.719 32.325 80.037 33.313 80.084" stroke="#4d4d4d" stroke-miterlimit="10" stroke-width="0.3" fill="url(#g)"/><path d="M35.625,80.69028v3.37554a.33749.33749,0,0,1-.31978.34421l-1.374.211V80.13509l1.374.211A.33749.33749,0,0,1,35.625,80.69028Z" stroke="#4d4d4d" stroke-miterlimit="10" stroke-width="0.3" fill="url(#h)"/><polygon points="16.776 82.588 18.394 84.9 21.453 84.9 22.826 82.588 16.776 82.588" fill="#1a1a1a" stroke="#4d4d4d" stroke-miterlimit="10" stroke-width="0.3"/></svg>