<svg id="C15" xmlns="http://www.w3.org/2000/svg" viewBox="0 0 134 88">
  <title>power</title>
  <g>
    <rect x="0.25" y="0.25" width="133.5" height="87.5" rx="1.75" ry="1.75" fill="#1a1a1a"/>
    <path d="M132,.5A1.50168,1.50168,0,0,1,133.5,2V86a1.50168,1.50168,0,0,1-1.5,1.5H2A1.50168,1.50168,0,0,1,.5,86V2A1.50168,1.50168,0,0,1,2,.5H132m0-.5H2A2.00591,2.00591,0,0,0,0,2V86a2.00591,2.00591,0,0,0,2,2H132a2.00591,2.00591,0,0,0,2-2V2a2.00591,2.00591,0,0,0-2-2Z" fill="#333"/>
  </g>
  <path d="M30.03716,71.52418H17.92654A3.4636,3.4636,0,0,1,14.46636,68.064V54.045h1.73009V68.064a1.73234,1.73234,0,0,0,1.73009,1.73009H30.03716Z" stroke="#252525" stroke-miterlimit="10" stroke-width="0.3"/>
  <rect x="81.45302" y="69.77289" width="12.45444" height="1.73009" stroke="#252525" stroke-miterlimit="10" stroke-width="0.3"/>
  <g>
    <rect x="9.0957" y="5.54492" width="13.69922" height="14.69922" rx="0.84961" ry="0.84961" fill="#333"/>
    <path d="M21.94543,5.69446a.70076.70076,0,0,1,.7.7v13a.70076.70076,0,0,1-.7.7h-12a.70076.70076,0,0,1-.7-.7v-13a.70076.70076,0,0,1,.7-.7h12m0-.3h-12a1.003,1.003,0,0,0-1,1v13a1.003,1.003,0,0,0,1,1h12a1.00292,1.00292,0,0,0,1-1v-13a1.00292,1.00292,0,0,0-1-1Z"/>
    <path d="M21.94543,5.39447a1.00292,1.00292,0,0,1,1,1v13a1.00292,1.00292,0,0,1-1,1h-12a1.003,1.003,0,0,1-1-1v-13a1.003,1.003,0,0,1,1-1h12m0-.3h-12a1.30154,1.30154,0,0,0-1.3,1.3v13a1.30154,1.30154,0,0,0,1.3,1.3h12a1.30154,1.30154,0,0,0,1.3-1.3v-13a1.30154,1.30154,0,0,0-1.3-1.3Z" fill="#666"/>
  </g>
  <g>
    <rect x="26.74316" y="5.54492" width="23.69922" height="14.69922" rx="0.84961" ry="0.84961" fill="#333"/>
    <path d="M49.59241,5.69446a.70076.70076,0,0,1,.7.7v13a.70076.70076,0,0,1-.7.7h-22a.70076.70076,0,0,1-.7-.7v-13a.70076.70076,0,0,1,.7-.7h22m0-.3h-22a1.003,1.003,0,0,0-1,1v13a1.003,1.003,0,0,0,1,1h22a1.00292,1.00292,0,0,0,1-1v-13a1.00292,1.00292,0,0,0-1-1Z"/>
    <path d="M49.59241,5.39447a1.00292,1.00292,0,0,1,1,1v13a1.00292,1.00292,0,0,1-1,1h-22a1.003,1.003,0,0,1-1-1v-13a1.003,1.003,0,0,1,1-1h22m0-.3h-22a1.30154,1.30154,0,0,0-1.3,1.3v13a1.30154,1.30154,0,0,0,1.3,1.3h22a1.30154,1.30154,0,0,0,1.3-1.3v-13a1.30154,1.30154,0,0,0-1.3-1.3Z" fill="#666"/>
  </g>
  <circle cx="15.94549" cy="12.89445" r="3.07017" stroke="#b3b3b3" stroke-miterlimit="10" stroke-width="0.3"/>
  <g>
    <circle cx="34.9082" cy="12.89453" r="3.43457" fill="#333"/>
    <path d="M34.9082,9.71027a3.1842,3.1842,0,1,1-3.18408,3.1842,3.18782,3.18782,0,0,1,3.18408-3.1842m0-.5a3.6842,3.6842,0,1,0,3.6842,3.6842,3.68414,3.68414,0,0,0-3.6842-3.6842Z" fill="#4d4d4d"/>
    <path d="M34.9082,9.21027a3.6842,3.6842,0,1,1-3.68408,3.6842,3.68417,3.68417,0,0,1,3.68408-3.6842m0-2a5.6842,5.6842,0,1,0,5.6842,5.6842,5.69062,5.69062,0,0,0-5.6842-5.6842Z"/>
  </g>
  <g>
    <circle cx="44.58789" cy="12.89453" r="1.89941" fill="#a1131f"/>
    <path d="M44.58777,11.24536a1.64911,1.64911,0,1,1-1.649,1.64911,1.65105,1.65105,0,0,1,1.649-1.64911m0-.5a2.14911,2.14911,0,1,0,2.14917,2.14911,2.14906,2.14906,0,0,0-2.14917-2.14911Z"/>
  </g>
  <circle cx="15.94549" cy="12.89445" r="0.61403" fill="#ccc"/>
  <rect x="74.74308" y="65.15039" width="3.75017" height="10.97525" rx="1" ry="1" transform="translate(147.25618 -5.98015) rotate(90)" fill="#252525" stroke="#333" stroke-miterlimit="10" stroke-width="0.3"/>
  <polygon points="26.219 72.244 26.219 69.032 33.506 67.302 38.022 67.302 38.022 73.974 33.506 73.974 26.219 72.244" fill="#252525" stroke="#333" stroke-miterlimit="10" stroke-width="0.3"/>
  <rect x="47.30827" y="50.60345" width="20.46888" height="40.06913" rx="2" ry="2" transform="translate(128.18073 13.0953) rotate(90)" fill="#252525" stroke="#333" stroke-miterlimit="10" stroke-width="0.3"/>
  <path d="M122.07012,68.30443H110.31071V66.70506h11.75942a.79968.79968,0,0,1,.79968.79968h0A.79968.79968,0,0,1,122.07012,68.30443Z" fill="#ccc"/>
  <path d="M122.07012,74.57118H110.31071V72.97182h11.75942a.79968.79968,0,0,1,.79968.79968h0A.79968.79968,0,0,1,122.07012,74.57118Z" fill="#ccc"/>
  <g>
    <rect x="13.92676" y="26.70605" width="3.11328" height="4.74121" fill="#f2f2f2"/>
    <path d="M16.89026,26.85529v4.44257h-2.814V26.85529h2.814m.3-.3H13.77625v5.04254h3.41406V26.5553Z" fill="#666"/>
  </g>
  <g>
    <rect x="13.90137" y="25.63672" width="3.16406" height="0.91895" fill="#1a1a1a"/>
    <path d="M16.94031,25.76178v.66846H14.02625v-.66846h2.91406m.25-.25H13.77625v1.16846h3.41406V25.51178Z" fill="#666"/>
  </g>
  <rect x="12.99877" y="31.33344" width="4.96896" height="2.69993"/>
  <rect x="12.43649" y="32.6834" width="6.09352" height="2.69993" fill="#333"/>
  <path d="M18.65992,34.03337H12.30658a1.101,1.101,0,0,0-.52134.7201l.28395,9.638,1.78548.96753v9.95767h3.2571V45.359l1.78554-.96753.28395-9.638A1.101,1.101,0,0,0,18.65992,34.03337Z" fill="#252525" stroke="#4d4d4d" stroke-miterlimit="10" stroke-width="0.3"/>
  <polygon points="18.675 48.918 12.291 48.918 12.214 47.211 18.753 47.211 18.675 48.918" fill="#252525" stroke="#4d4d4d" stroke-miterlimit="10" stroke-width="0.3"/>
  <polygon points="18.813 46.099 12.153 46.099 12.069 44.391 18.897 44.391 18.813 46.099" fill="#252525" stroke="#4d4d4d" stroke-miterlimit="10" stroke-width="0.3"/>
  <polygon points="18.548 51.737 12.418 51.737 12.347 50.03 18.62 50.03 18.548 51.737" fill="#252525" stroke="#4d4d4d" stroke-miterlimit="10" stroke-width="0.3"/>
  <path d="M17.62216,56.08791H13.34434a.54742.54742,0,0,1-.526-.553L12.496,53.159h5.9746l-.32239,2.3759A.54742.54742,0,0,1,17.62216,56.08791Z" fill="#252525" stroke="#4d4d4d" stroke-miterlimit="10" stroke-width="0.3"/>
  <rect x="110.31071" y="66.70507" width="8.69786" height="1.59937"/>
  <rect x="110.31071" y="72.97182" width="8.69786" height="1.59937"/>
  <path d="M93.193,72.98751V68.22714a.79968.79968,0,0,1,.79968-.79968H97.5321a.79968.79968,0,0,0,.36457-.08794l8.74129-4.03443a.79968.79968,0,0,1,.36457-.08794h7.74734a.79968.79968,0,0,1,.79968.79968V77.2592a.79968.79968,0,0,1-.79968.79968H107.005a.79968.79968,0,0,1-.36877-.0901l-8.7379-4.09149a.79968.79968,0,0,0-.36877-.0901H93.99269A.79968.79968,0,0,1,93.193,72.98751Z" fill="#1a1a1a" stroke="#333" stroke-miterlimit="10" stroke-width="0.3"/>
  <path d="M93.79276,68.52275h4.24159a.91772.91772,0,0,0,.3535-.06979l8.47582-3.63422a.91772.91772,0,0,1,.3535-.06979h7.0796a.43875.43875,0,0,1,.43246.44478V76.08248a.43875.43875,0,0,1-.43246.44478H107.2196a.917.917,0,0,1-.35757-.0715l-8.47254-3.6795a.917.917,0,0,0-.35757-.0715H93.79276Z" fill="#333" stroke="#333" stroke-miterlimit="10" stroke-width="0.3"/>
  <line x1="108.37905" y1="67.65051" x2="108.37905" y2="73.62552" fill="none" stroke="#4d4d4d" stroke-linecap="round" stroke-miterlimit="10" stroke-width="0.7"/>
  <line x1="110.10914" y1="67.65051" x2="110.10914" y2="73.62552" fill="none" stroke="#4d4d4d" stroke-linecap="round" stroke-miterlimit="10" stroke-width="0.7"/>
  <line x1="111.83923" y1="67.65051" x2="111.83923" y2="73.62552" fill="none" stroke="#4d4d4d" stroke-linecap="round" stroke-miterlimit="10" stroke-width="0.7"/>
  <rect x="92.59326" y="66.31279" width="1.19949" height="8.65045" rx="0.59975" ry="0.59975" fill="#252525" stroke="#333" stroke-miterlimit="10" stroke-width="0.3"/>
</svg>
