<svg id="C15" xmlns="http://www.w3.org/2000/svg" viewBox="0 0 160 140">
  <title>ucc</title>
  <g>
    <rect x="0.25033" y="0.25" width="159.5" height="139.5" rx="1.75" ry="1.75" fill="#1a1a1a"/>
    <path d="M158,.5A1.50172,1.50172,0,0,1,159.5,2V138a1.50172,1.50172,0,0,1-1.5,1.5H2A1.50172,1.50172,0,0,1,.5,138V2A1.50172,1.50172,0,0,1,2,.5H158m0-.5H2A2.00587,2.00587,0,0,0,0,2V138a2.00587,2.00587,0,0,0,2,2H158a2.00591,2.00591,0,0,0,2-2V2a2.00591,2.00591,0,0,0-2-2Z" fill="#333"/>
  </g>
  <path d="M103.763,113.86312c-.12493-20.0288,13.05618-84.39026,15.18643-94.76287.67641-3.29358-1.84212-5.85161-34.55087-5.85161-33.51249,0-29.22848,25.9535-29.28895,38.20041-.13721,27.78938.18541,46.17367-.73979,62.71029H27.03436c1.159-12.88134,1.52375-39.556,1.52375-61.08271,0-12.353,8.96768-24.68727,50.93978-24.91293,35.82565-.19261,57.7625,5.03259,55.8957,19.14859-3.188,24.10624-3.291,47.2601-3.48806,66.55083Z"/>
  <g>
    <path d="M27.03436,114.15933c1.159-12.88134,1.52375-39.556,1.52375-61.08271,0-12.353,8.96768-24.68727,50.93978-24.91293,35.82565-.19261,57.7625,5.03259,55.8957,19.14859-3.188,24.10624-3.275,47.2601-3.47209,66.55083" fill="none" stroke="gray" stroke-linecap="round" stroke-miterlimit="10" stroke-width="0.8"/>
    <path d="M29.31232,114.15933c1.13951-13.18595,1.447-39.16978,1.45842-61.21834.005-12.34417,7.86841-25.81337,49.13555-26.02022,35.56591-.17656,55.88457,4.82638,54.117,18.04051-3.09984,22.96177-4.27669,49.5496-4.447,68.90184" fill="none" stroke="#777" stroke-linecap="round" stroke-miterlimit="10" stroke-width="0.8"/>
    <path d="M31.59027,114.15933c1.12-13.49056,1.37022-38.78352,1.39309-61.354C32.99344,40.47,39.75251,25.8659,80.31468,25.67785c35.30617-.16051,54.00663,4.62016,52.33823,16.93243-3.0117,21.81731-5.27839,51.8391-5.42181,71.25284" fill="none" stroke="#6f6f6f" stroke-linecap="round" stroke-miterlimit="10" stroke-width="0.8"/>
    <path d="M33.86823,114.15933c1.10055-13.79516,1.29346-38.39726,1.32776-61.4896.01512-12.32649,5.66988-28.06556,45.52707-28.2348,35.04643-.14446,52.1287,4.41395,50.55949,15.82434-2.92356,20.67284-6.28009,54.12859-6.39668,73.60384" fill="none" stroke="#666" stroke-linecap="round" stroke-miterlimit="10" stroke-width="0.8"/>
    <path d="M36.14618,114.15933c1.08106-14.09977,1.21669-38.011,1.26243-61.62524.02016-12.31764,4.57061-29.19165,43.72284-29.34209,34.78669-.12841,50.27809,4.21159,48.78076,14.71626-2.78461,19.53567-7.28179,56.41809-7.37154,75.95485" fill="none" stroke="#5e5e5e" stroke-linecap="round" stroke-miterlimit="10" stroke-width="0.8"/>
    <path d="M38.42414,114.15933c1.06158-14.40437,1.13993-37.62474,1.1971-61.76087.0252-12.3088,3.47134-30.31775,41.9186-30.44938,34.52695-.11236,48.40454,4.0061,47.002,13.60818-2.68654,18.39287-8.28349,58.70759-8.34641,78.30585" fill="none" stroke="#555" stroke-linecap="round" stroke-miterlimit="10" stroke-width="0.8"/>
    <path d="M40.70209,114.15933c1.0421-14.709,1.06316-37.23848,1.13177-61.8965.03023-12.3,2.37207-31.44384,40.11437-31.55667,34.2672-.09631,46.52964,3.80045,45.22329,12.5001-2.59027,17.24991-9.28519,60.99709-9.32127,80.65685" fill="none" stroke="#4d4d4d" stroke-linecap="round" stroke-miterlimit="10" stroke-width="0.8"/>
    <path d="M42.98,114.15933c1.02261-15.01359.9864-36.85222,1.06644-62.03213.03527-12.29112,1.2728-32.56993,38.31013-32.664,34.00746-.08025,44.65308,3.59461,43.44455,11.392C123.30476,46.962,115.51428,94.14185,115.505,113.86312" fill="none" stroke="#454545" stroke-linecap="round" stroke-miterlimit="10" stroke-width="0.8"/>
    <path d="M45.258,114.15933c1.00313-15.31819.90964-36.466,1.00111-62.16777.04031-12.28228.17353-33.696,36.50589-33.77125,33.74772-.0642,42.77452,3.38849,41.66581,10.28394-2.40588,14.96307-11.28859,65.57609-11.271,85.35886" fill="none" stroke="#3c3c3c" stroke-linecap="round" stroke-miterlimit="10" stroke-width="0.8"/>
    <path d="M47.536,114.15933c.98365-15.6228.83287-36.0797.93578-62.3034C48.51709,39.5825,47.546,17.03381,83.1734,16.9774c33.488-.04815,40.89344,3.182,39.88708,9.17585-2.32016,13.81874-12.29029,67.86558-12.24586,87.70986" fill="none" stroke="#343434" stroke-linecap="round" stroke-miterlimit="10" stroke-width="0.8"/>
    <path d="M49.81392,114.15933c.96416-15.92741.75611-35.69344.87045-62.439.05039-12.26459-2.025-35.94822,32.89742-35.98583,33.22824-.0321,39.00921,2.975,38.10834,8.06777-2.24177,12.67318-13.292,70.15508-13.22073,90.06087" fill="none" stroke="#2b2b2b" stroke-linecap="round" stroke-miterlimit="10" stroke-width="0.8"/>
    <path d="M52.09187,114.15933c.94468-16.232.67934-35.30718.80512-62.57466.05543-12.25575-3.12428-37.07431,31.09318-37.09312,32.9685-.01605,37.12091,2.76717,36.32961,6.95969-2.1753,11.5253-14.29369,72.44458-14.19559,92.41187" fill="none" stroke="#232323" stroke-linecap="round" stroke-miterlimit="10" stroke-width="0.8"/>
    <path d="M54.36983,114.15933c.9252-16.53662.60258-34.92091.73979-62.71029.06047-12.24691-4.22355-38.20041,29.28895-38.20041,32.70875,0,35.22729,2.558,34.55087,5.85161C116.81918,29.47286,103.654,93.83432,103.779,113.86312" fill="none" stroke="#1a1a1a" stroke-linecap="round" stroke-miterlimit="10" stroke-width="0.8"/>
  </g>
  <rect x="90.56101" y="111.60247" width="54.54651" height="17.04578" rx="3.1" ry="3.1" stroke="#666" stroke-miterlimit="10" stroke-width="0.5"/>
  <rect x="91.85365" y="112.90597" width="51.96123" height="14.43878" rx="2" ry="2" fill="#999" stroke="#ccc" stroke-miterlimit="10" stroke-width="0.3"/>
  <path d="M130.9532,125.23909H104.71533a1.83024,1.83024,0,0,1-1.704-1.54939l-1.3173-6.13648a1.99509,1.99509,0,0,1,1.704-2.5416H132.2705a1.99509,1.99509,0,0,1,1.704,2.5416l-1.3173,6.13648A1.83024,1.83024,0,0,1,130.9532,125.23909Z" fill="#333" stroke="#ccc" stroke-miterlimit="10" stroke-width="0.3"/>
  <g>
    <circle cx="139.19295" cy="120.12524" r="2.73291" fill="#333"/>
    <path d="M139.19307,117.64233a2.483,2.483,0,1,1-2.483,2.483,2.48585,2.48585,0,0,1,2.483-2.483m0-.5a2.983,2.983,0,1,0,2.983,2.983,2.983,2.983,0,0,0-2.983-2.983Z" fill="#ccc"/>
  </g>
  <g>
    <circle cx="96.47567" cy="120.12524" r="2.73291" fill="#333"/>
    <path d="M96.47542,117.64233a2.483,2.483,0,1,1-2.483,2.483,2.48585,2.48585,0,0,1,2.483-2.483m0-.5a2.983,2.983,0,1,0,2.983,2.983,2.98306,2.98306,0,0,0-2.983-2.983Z" fill="#ccc"/>
  </g>
  <g>
    <circle cx="107.18065" cy="118.42078" r="0.93752" fill="#ccc"/>
    <circle cx="111.4421" cy="118.42078" r="0.93752" fill="#ccc"/>
    <circle cx="115.70354" cy="118.42078" r="0.93752" fill="#ccc"/>
    <circle cx="119.96499" cy="118.42078" r="0.93752" fill="#ccc"/>
    <circle cx="124.22643" cy="118.42078" r="0.93752" fill="#ccc"/>
    <circle cx="128.48788" cy="118.42078" r="0.93752" fill="#ccc"/>
    <circle cx="126.35716" cy="121.82994" r="0.93752" fill="#ccc"/>
    <circle cx="122.09571" cy="121.82994" r="0.93752" fill="#ccc"/>
    <circle cx="117.83427" cy="121.82994" r="0.93752" fill="#ccc"/>
    <circle cx="113.57282" cy="121.82994" r="0.93752" fill="#ccc"/>
    <circle cx="109.31137" cy="121.82994" r="0.93752" fill="#ccc"/>
  </g>
  <rect x="13.85498" y="111.60247" width="54.54651" height="17.04578" rx="3.1" ry="3.1" stroke="#666" stroke-miterlimit="10" stroke-width="0.5"/>
  <rect x="15.14762" y="112.90597" width="51.96123" height="14.43878" rx="2" ry="2" fill="#999" stroke="#ccc" stroke-miterlimit="10" stroke-width="0.3"/>
  <g>
    <circle cx="62.4869" cy="120.12524" r="2.73291" fill="#333"/>
    <path d="M62.48708,117.64233a2.483,2.483,0,1,1-2.483,2.483,2.48585,2.48585,0,0,1,2.483-2.483m0-.5a2.983,2.983,0,1,0,2.983,2.983,2.98306,2.98306,0,0,0-2.983-2.983Z" fill="#ccc"/>
  </g>
  <g>
    <circle cx="19.76961" cy="120.12524" r="2.73291" fill="#333"/>
    <path d="M19.76943,117.64233a2.483,2.483,0,1,1-2.483,2.483,2.48584,2.48584,0,0,1,2.483-2.483m0-.5a2.983,2.983,0,1,0,2.983,2.983,2.983,2.983,0,0,0-2.983-2.983Z" fill="#ccc"/>
  </g>
  <rect x="24.91037" y="113.86312" width="32.43573" height="12.52448" rx="1" ry="1" fill="#333" stroke="#000" stroke-miterlimit="10" stroke-width="0.5"/>
  <rect x="24.05808" y="113.30705" width="1.70458" height="13.63663" rx="0.85229" ry="0.85229" fill="#1a1a1a" stroke="#000" stroke-miterlimit="10" stroke-width="0.2"/>
  <rect x="56.49382" y="113.30705" width="1.70458" height="13.63663" rx="0.85229" ry="0.85229" fill="#1a1a1a" stroke="#000" stroke-miterlimit="10" stroke-width="0.2"/>
  <g>
    <rect x="27.06547" y="114.92848" width="28.12554" height="4.82556" rx="1" ry="1" stroke="#4d4d4d" stroke-miterlimit="10" stroke-width="0.2"/>
    <rect x="27.06547" y="120.49667" width="28.12554" height="4.82556" rx="1" ry="1" stroke="#4d4d4d" stroke-miterlimit="10" stroke-width="0.2"/>
  </g>
  <path d="M117.58333,16.58333c.45833,2.41667-.75864,11.57525-1.54167,14.79167,8.92351,2.19915,17.37709,7.91487,19.38109,11.16487C134.58333,37.66667,120.04167,16.58333,117.58333,16.58333Z"/>
</svg>
