<svg id="C15" xmlns="http://www.w3.org/2000/svg" viewBox="0 0 164 100">
  <title>usb</title>
  <g>
    <rect x="0.25" y="0.25" width="163.5" height="99.5" rx="1.75" ry="1.75" fill="#1a1a1a"/>
    <path d="M162,.5A1.50172,1.50172,0,0,1,163.5,2V98a1.50172,1.50172,0,0,1-1.5,1.5H2A1.50172,1.50172,0,0,1,.5,98V2A1.50172,1.50172,0,0,1,2,.5H162m0-.5H2A2.00591,2.00591,0,0,0,0,2V98a2.00591,2.00591,0,0,0,2,2H162a2.00591,2.00591,0,0,0,2-2V2a2.00591,2.00591,0,0,0-2-2Z" fill="#333"/>
  </g>
  <rect x="14.1043" y="8.75" width="49.5" height="82.5" rx="2" ry="2" fill="#333"/>
  <g>
    <g>
      <path d="M32.67383,21.56543h.80859V24.1875c0,.99023.377,1.31738.92773,1.31738.55762,0,.94141-.32715.94141-1.31738V21.56543h.78125V24.125c0,1.499-.66992,2.085-1.72266,2.085-1.05957,0-1.73633-.58594-1.73633-2.085Z" fill="#f2f2f2"/>
      <path d="M37.68164,24.98926a1.81425,1.81425,0,0,0,1.19238.51563c.50879,0,.79492-.22949.79492-.585,0-.377-.293-.49512-.71191-.66992l-.62012-.27148a1.30634,1.30634,0,0,1-.9209-1.21387,1.38518,1.38518,0,0,1,1.52734-1.2832,2.01662,2.01662,0,0,1,1.4082.5791l-.418.51563a1.47173,1.47173,0,0,0-.99023-.38965c-.43262,0-.71094.20215-.71094.53613,0,.35645.34863.48828.72461.6416l.61426.25879a1.26619,1.26619,0,0,1,.91992,1.2334A1.44982,1.44982,0,0,1,38.85254,26.21,2.34555,2.34555,0,0,1,37.21387,25.54Z" fill="#f2f2f2"/>
      <path d="M41.6582,21.56543h1.457c.93457,0,1.625.28613,1.625,1.123a.99053.99053,0,0,1-.78125.99023v.02734a1.05423,1.05423,0,0,1,1.02539,1.08105c0,.91309-.74609,1.33887-1.751,1.33887H41.6582Zm1.37988,1.88965c.6416,0,.90723-.24414.90723-.66895,0-.41895-.293-.59277-.88574-.59277H42.4668v1.26172Zm.1123,2.043c.66895,0,1.03906-.251,1.03906-.7666,0-.47461-.36328-.69727-1.03906-.69727H42.4668V25.498Z" fill="#f2f2f2"/>
    </g>
    <g>
      <rect x="33.16602" y="52.65137" width="11.02539" height="23.92871" rx="2.15039" ry="2.15039"/>
      <path d="M42.04132,52.80188a2.00591,2.00591,0,0,1,2,2V74.42932a2.00587,2.00587,0,0,1-2,2h-6.725a2.00587,2.00587,0,0,1-2-2V54.80188a2.00591,2.00591,0,0,1,2-2h6.725m0-.3h-6.725a2.30255,2.30255,0,0,0-2.3,2.3V74.42932a2.30255,2.30255,0,0,0,2.3,2.3h6.725a2.30255,2.30255,0,0,0,2.3-2.3V54.80188a2.30255,2.30255,0,0,0-2.3-2.3Z" fill="#666"/>
    </g>
    <rect x="35.57883" y="54.54073" width="3.63499" height="20.14975" rx="0.6" ry="0.6" fill="#f2f2f2"/>
  </g>
  <rect x="71.90633" y="54.97849" width="17.95377" height="19.29533" transform="translate(16.25706 145.50937) rotate(-90)" fill="#f2f2f2" stroke="#4d4d4d" stroke-miterlimit="10" stroke-width="0.3"/>
  <g>
    <rect x="77.2236" y="66.61871" width="4.6493" height="4.6493" transform="translate(10.60489 148.49161) rotate(-90)" fill="#333"/>
    <rect x="77.2236" y="57.9843" width="4.6493" height="4.6493" transform="translate(19.2393 139.8572) rotate(-90)" fill="#333"/>
  </g>
  <g>
    <path d="M89.92871,77.75391V51.498h54.15918a3.15374,3.15374,0,0,1,3.15039,3.15039V74.60352a3.15374,3.15374,0,0,1-3.15039,3.15039Z"/>
    <path d="M144.08777,51.64832a3,3,0,0,1,3,3V74.604a3,3,0,0,1-3,3H90.079V51.64832h54.00879m0-.3H89.779V77.904h54.30878a3.3037,3.3037,0,0,0,3.3-3.3V54.64832a3.3037,3.3037,0,0,0-3.3-3.3Z" fill="#b3b3b3"/>
  </g>
  <path d="M107.19824,37.84245h22.81648a0,0,0,0,1,0,0V89.40986a2,2,0,0,1-2,2H109.19824a2,2,0,0,1-2-2V37.84245A0,0,0,0,1,107.19824,37.84245Z" transform="translate(53.98032 183.23263) rotate(-90)" fill="#333"/>
  <g>
    <path d="M92.57031,73.97363V55.2793h49.47852a1.15239,1.15239,0,0,1,1.15039,1.15039V72.82324a1.15239,1.15239,0,0,1-1.15039,1.15039Z" fill="#4d4d4d"/>
    <path d="M142.04846,55.42926a1,1,0,0,1,1,1v16.3938a1,1,0,0,1-1,1H92.72113V55.42926h49.32733m0-.3H92.42114V74.123h49.62732a1.30148,1.30148,0,0,0,1.3-1.3V56.42926a1.30148,1.30148,0,0,0-1.3-1.3Z" fill="gray"/>
  </g>
  <path d="M107.06434,57.80461v3.83891h3.83891V60.30023h4.12168l2.66934,3.55849H104.52607v-2.181l-4.77357,2.7565,4.77357,2.75645V65.0104h16.3323l-2.66859,3.55774h-3.81961a2.30328,2.30328,0,1,0,.00023,1.15167h4.39521l3.53206-4.70942h2.03745a2.68714,2.68714,0,1,0-.00019-1.15167h-5.20137l-3.53281-4.71017h-4.69751V57.80461Z" fill="#b3b3b3"/>
  <circle cx="138.92321" cy="69.66707" r="2.87421" fill="#333"/>
  <circle cx="138.92321" cy="69.66707" r="2.29937" fill="#fff"/>
</svg>
