<svg xmlns="http://www.w3.org/2000/svg" viewBox="0 0 164 100"><title>usb</title><rect width="164" height="100" fill="#1a1a1a"/><rect x="11.66309" y="10.41064" width="44.38184" height="75.98145" rx="1.5" ry="1.5" fill="#333"/><path d="M54.54456,10.91064a1.00115,1.00115,0,0,1,1,1V84.89185a1.00115,1.00115,0,0,1-1,1H13.16345a1.00115,1.00115,0,0,1-1-1V11.91064a1.00115,1.00115,0,0,1,1-1H54.54456m0-1H13.16345a2,2,0,0,0-2,2V84.89185a2,2,0,0,0,2,2H54.54456a2,2,0,0,0,2-2V11.91064a2,2,0,0,0-2-2Z" fill="#4d4d4d"/><path d="M54.54456,9.91064a2,2,0,0,1,2,2V84.89185a2,2,0,0,1-2,2H13.16345a2,2,0,0,1-2-2V11.91064a2,2,0,0,1,2-2H54.54456m0-.5H13.16345a2.50282,2.50282,0,0,0-2.5,2.5V84.89185a2.50282,2.50282,0,0,0,2.5,2.5H54.54456a2.50283,2.50283,0,0,0,2.5-2.5V11.91064a2.50283,2.50283,0,0,0-2.5-2.5Z"/><path d="M27.65625,24.12549V21.56494h.80957v2.623c0,.99023.36914,1.3164.91992,1.3164.55762,0,.94824-.32617.94824-1.3164v-2.623h.77442v2.56055c0,1.498-.66309,2.084-1.72266,2.084C28.333,26.20947,27.65625,25.62354,27.65625,24.12549Z" fill="#f2f2f2"/><path d="M32.21094,25.53955l.47461-.55078a1.81385,1.81385,0,0,0,1.18554.51562c.51563,0,.79493-.22851.79493-.584,0-.377-.293-.49609-.70411-.66992L33.334,23.979a1.31737,1.31737,0,0,1-.92089-1.21484,1.38764,1.38764,0,0,1,1.53418-1.2832,2.01769,2.01769,0,0,1,1.40234.58008l-.41211.51562a1.48579,1.48579,0,0,0-.99023-.39062c-.43165,0-.71778.20312-.71778.5371,0,.35547.34863.48829.72559.64063l.62012.25977a1.273,1.273,0,0,1,.92089,1.23242,1.4498,1.4498,0,0,1-1.63867,1.35351A2.36232,2.36232,0,0,1,32.21094,25.53955Z" fill="#f2f2f2"/><path d="M36.67578,21.56494h1.457c.94141,0,1.63184.28711,1.63184,1.123a1.028,1.028,0,0,1-.63477.99023v.02735a1.04329,1.04329,0,0,1,.87207,1.082c0,.91211-.74609,1.33789-1.751,1.33789h-1.5752Zm1.3877,1.88281c.63379,0,.90625-.25.90625-.64062,0-.44727-.29981-.61328-.89258-.61328h-.59277v1.2539Zm.10449,2.05079c.66894,0,1.0459-.24415,1.0459-.75391,0-.48047-.36231-.68945-1.0459-.68945h-.68359v1.44336Z" fill="#f2f2f2"/><rect x="28.16602" y="52.65186" width="11.02539" height="23.92773" rx="2.15039" ry="2.15039"/><path d="M37.04132,52.80188a2.00591,2.00591,0,0,1,2,2V74.42932a2.00591,2.00591,0,0,1-2,2h-6.725a2.00591,2.00591,0,0,1-2-2V54.80188a2.00591,2.00591,0,0,1,2-2h6.725m0-.3h-6.725a2.30264,2.30264,0,0,0-2.3,2.3V74.42932a2.30264,2.30264,0,0,0,2.3,2.3h6.725a2.30264,2.30264,0,0,0,2.3-2.3V54.80188a2.30264,2.30264,0,0,0-2.3-2.3Z" fill="#666"/><rect x="30.57883" y="54.54073" width="3.63499" height="20.14975" rx="0.6" ry="0.6" fill="#f2f2f2"/><path d="M84.5791,78.104V74.103H65.73535V55.14893H84.5791V51.148h67.50879a3.50424,3.50424,0,0,1,3.5,3.5V74.604a3.50424,3.50424,0,0,1-3.5,3.5Z" fill="#4d4d4d"/><path d="M152.08777,51.64832a3,3,0,0,1,3,3V74.604a3,3,0,0,1-3,3H85.079V73.603H66.23553V55.64917H85.079V51.64832h67.00879m0-1H84.079v4.00085H65.23553V74.603H84.079v4.001h68.00879a4.00454,4.00454,0,0,0,4-4V54.64832a4.00454,4.00454,0,0,0-4-4Z"/><rect x="66.90633" y="54.97849" width="17.95377" height="19.29533" transform="translate(11.25706 140.50937) rotate(-90)" fill="#f2f2f2" stroke="#4d4d4d" stroke-miterlimit="10" stroke-width="0.3"/><rect x="72.2236" y="66.61871" width="4.6493" height="4.6493" transform="translate(5.60489 143.49161) rotate(-90)" fill="#333"/><rect x="72.2236" y="57.9843" width="4.6493" height="4.6493" transform="translate(14.2393 134.8572) rotate(-90)" fill="#333"/><path d="M84.92871,77.75439V51.49756h67.15918a3.15373,3.15373,0,0,1,3.15039,3.15039V74.604a3.15373,3.15373,0,0,1-3.15039,3.15039Z"/><path d="M152.08777,51.64832a3,3,0,0,1,3,3V74.604a3,3,0,0,1-3,3H85.079V51.64832h67.00879m0-.3H84.779V77.90405h67.30878a3.30379,3.30379,0,0,0,3.3-3.3V54.64832a3.30379,3.30379,0,0,0-3.3-3.3Z" fill="#b3b3b3"/><path d="M108.69824,31.34245h22.81648a0,0,0,0,1,0,0V95.90986a2,2,0,0,1-2,2H110.69824a2,2,0,0,1-2-2V31.34245a0,0,0,0,1,0,0Z" transform="translate(55.48032 184.73263) rotate(-90)" fill="#333"/><path d="M152.73291,54.88208V74.37023a1,1,0,0,1-1,1H87.39763V53.88208h64.33528A1,1,0,0,1,152.73291,54.88208Z" fill="#1a1a1a"/><path d="M104.39226,66.75365,103.11181,64.388h-.059v2.36569h-1.003V62.7595h1.245l1.28033,2.35992h.05306V62.7595h1.00288v3.99415Z" fill="#fff"/><path d="M106.4269,64.51747a1.82324,1.82324,0,0,1,3.6463,0v.47793a1.82324,1.82324,0,0,1-3.6463,0Zm1.00315.37205c0,.74329.28322.99682.82.99682.537,0,.82012-.25353.82012-.99682v-.25986c0-.74354-.28308-1.00287-.82012-1.00287-.53679,0-.82.25933-.82,1.00287Z" fill="#fff"/><path d="M113.21161,66.75365,111.93115,64.388h-.059v2.36569H110.8693V62.7595h1.24485l1.2802,2.35992h.0532V62.7595h1.00288v3.99415Z" fill="#fff"/><path d="M115.37605,62.7595h1.00314v3.07956h1.711v.91459h-2.71409Z" fill="#fff"/><path d="M119.71807,66.75365h-1.00314V62.7595h1.00314Z" fill="#fff"/><path d="M122.98628,66.75365,121.706,64.388h-.05886v2.36569H120.644V62.7595h1.24486l1.28033,2.35992h.05306V62.7595h1.00314v3.99415Z" fill="#fff"/><path d="M125.16858,66.75365V62.7595h2.83206v.91433h-1.82892v.61953h1.49839v.88517h-1.49839v.69022h1.82892v.8849Z" fill="#fff"/><path d="M129.823,62.7595h1.22725l1.36912,3.99415h-1.06829l-.21229-.6784h-1.40407l-.21256.6784h-1.06777Zm.171,2.43085h.88517l-.41275-1.316h-.05939Z" fill="#fff"/><path d="M134.3894,65.4439h-.39569v1.30975h-1.00287V62.7595h1.56933a1.28121,1.28121,0,0,1,1.45715,1.33918,1.13748,1.13748,0,0,1-.71964,1.17418l.98527,1.48079h-1.16236Zm.0352-.88491c.4012,0,.59011-.08276.59011-.44849,0-.33026-.2186-.43667-.59011-.43667h-.43089V64.559Z" fill="#fff"/><path d="M137.1852,62.7595h.43017v3.62309h1.924v.37106H137.1852Z" fill="#fff" stroke="#fff" stroke-width="0.15"/><path d="M143.30865,66.75365h-.48617l-.29239-.92349h-1.85257l-.29239.92349H139.899l1.42194-3.99415h.56582Zm-1.68133-3.56957h-.047l-.8024,2.269h1.65184Z" fill="#fff" stroke="#fff" stroke-width="0.15"/><path d="M146.01058,64.62389v.0176a1.01788,1.01788,0,0,1,.83451,1.00892c0,.7375-.46273,1.14137-1.38336,1.14137h-1.38335V62.72136H145.338c.87335,0,1.33607.39782,1.33607,1.02919A.86563.86563,0,0,1,146.01058,64.62389Zm-.62558-.15636c.5783,0,.85886-.21542.85886-.68729,0-.51945-.25691-.68782-.93558-.68782h-.79947v1.37511Zm-.87619.37158v1.58161h.9177c.73725,0,.9884-.192.9884-.794,0-.55464-.33969-.78765-.97052-.78765Z" fill="#fff" stroke="#fff" stroke-width="0.15"/><path d="M147.742,63.70929c0-.57224.55126-1.03522,1.324-1.03522a2.00094,2.00094,0,0,1,1.18023.34813l-.19469.3122a1.67744,1.67744,0,0,0-.9795-.28928c-.578,0-.90011.22173-.90011.66417,0,.43667.17443.61083.94162.81156.9322.24777,1.324.62221,1.324,1.25936,0,.61952-.49214,1.05887-1.38913,1.05887a2.50416,2.50416,0,0,1-1.32158-.39543l.19469-.31824a2.04885,2.04885,0,0,0,1.12689.34234c.6374,0,.95922-.21567.95922-.68754,0-.47793-.2275-.67-1.00624-.87621C148.05128,64.6502,147.742,64.26971,147.742,63.70929Z" fill="#fff" stroke="#fff" stroke-width="0.15"/><path d="M93.13188,61.77079c1.81565,0,2.26425,4.37429,3.39438,4.37429,1.42042,0,3.07838-4.87566,3.07838-5.407a.84149.84149,0,0,0-.92748-.92839h-8.012a.84135.84135,0,0,0-.92746.92839v6.47979c.63167-2.72124,2.01217-5.44708,3.3942-5.44708Zm3.07854,5.94477c-1.81641,0-2.259-4.37431-3.39438-4.37431-1.42071,0-3.07836,4.87567-3.07836,5.40639a.84167.84167,0,0,0,.92746.929h8.012a.84181.84181,0,0,0,.92748-.929V62.26816C98.97342,64.98941,97.59216,67.71556,96.21042,67.71556Z" fill="#fff"/></svg>