<svg xmlns="http://www.w3.org/2000/svg" viewBox="0 0 164 100"><title>usb</title><rect width="164" height="100" fill="#1a1a1a"/><rect x="16.66309" y="10.41064" width="44.38184" height="75.98145" rx="1.5" ry="1.5" fill="#333"/><path d="M59.54456,10.91064a1.00115,1.00115,0,0,1,1,1V84.89185a1.00115,1.00115,0,0,1-1,1H18.16345a1.00115,1.00115,0,0,1-1-1V11.91064a1.00115,1.00115,0,0,1,1-1H59.54456m0-1H18.16345a2,2,0,0,0-2,2V84.89185a2,2,0,0,0,2,2H59.54456a2,2,0,0,0,2-2V11.91064a2,2,0,0,0-2-2Z" fill="#4d4d4d"/><path d="M59.54456,9.91064a2,2,0,0,1,2,2V84.89185a2,2,0,0,1-2,2H18.16345a2,2,0,0,1-2-2V11.91064a2,2,0,0,1,2-2H59.54456m0-.5H18.16345a2.50282,2.50282,0,0,0-2.5,2.5V84.89185a2.50282,2.50282,0,0,0,2.5,2.5H59.54456a2.50283,2.50283,0,0,0,2.5-2.5V11.91064a2.50283,2.50283,0,0,0-2.5-2.5Z"/><path d="M32.65625,24.12549V21.56494h.80957v2.623c0,.99023.36914,1.3164.91992,1.3164.55762,0,.94824-.32617.94824-1.3164v-2.623h.77442v2.56055c0,1.498-.66309,2.084-1.72266,2.084C33.333,26.20947,32.65625,25.62354,32.65625,24.12549Z" fill="#f2f2f2"/><path d="M37.21094,25.53955l.47461-.55078a1.81385,1.81385,0,0,0,1.18554.51562c.51563,0,.79493-.22851.79493-.584,0-.377-.293-.49609-.70411-.66992L38.334,23.979a1.31737,1.31737,0,0,1-.92089-1.21484,1.38764,1.38764,0,0,1,1.53418-1.2832,2.01769,2.01769,0,0,1,1.40234.58008l-.41211.51562a1.48579,1.48579,0,0,0-.99023-.39062c-.43165,0-.71778.20312-.71778.5371,0,.35547.34863.48829.72559.64063l.62012.25977a1.273,1.273,0,0,1,.92089,1.23242,1.4498,1.4498,0,0,1-1.63867,1.35351A2.36232,2.36232,0,0,1,37.21094,25.53955Z" fill="#f2f2f2"/><path d="M41.67578,21.56494h1.457c.94141,0,1.63184.28711,1.63184,1.123a1.028,1.028,0,0,1-.63477.99023v.02735a1.04329,1.04329,0,0,1,.87207,1.082c0,.91211-.74609,1.33789-1.751,1.33789h-1.5752Zm1.3877,1.88281c.63379,0,.90625-.25.90625-.64062,0-.44727-.29981-.61328-.89258-.61328h-.59277v1.2539Zm.10449,2.05079c.66894,0,1.0459-.24415,1.0459-.75391,0-.48047-.36231-.68945-1.0459-.68945h-.68359v1.44336Z" fill="#f2f2f2"/><rect x="33.16602" y="52.65186" width="11.02539" height="23.92773" rx="2.15039" ry="2.15039"/><path d="M42.04132,52.80188a2.00591,2.00591,0,0,1,2,2V74.42932a2.00591,2.00591,0,0,1-2,2h-6.725a2.00591,2.00591,0,0,1-2-2V54.80188a2.00591,2.00591,0,0,1,2-2h6.725m0-.3h-6.725a2.30264,2.30264,0,0,0-2.3,2.3V74.42932a2.30264,2.30264,0,0,0,2.3,2.3h6.725a2.30264,2.30264,0,0,0,2.3-2.3V54.80188a2.30264,2.30264,0,0,0-2.3-2.3Z" fill="#666"/><rect x="35.57883" y="54.54073" width="3.63499" height="20.14975" rx="0.6" ry="0.6" fill="#f2f2f2"/><path d="M89.5791,78.104V74.103H70.73535V55.14893H89.5791V51.148h54.50879a3.50424,3.50424,0,0,1,3.5,3.5V74.604a3.50424,3.50424,0,0,1-3.5,3.5Z" fill="#4d4d4d"/><path d="M144.08777,51.64832a3,3,0,0,1,3,3V74.604a3,3,0,0,1-3,3H90.079V73.603H71.23553V55.64917H90.079V51.64832h54.00879m0-1H89.079v4.00085H70.23553V74.603H89.079v4.001h55.00879a4.00454,4.00454,0,0,0,4-4V54.64832a4.00454,4.00454,0,0,0-4-4Z"/><rect x="71.90633" y="54.97849" width="17.95377" height="19.29533" transform="translate(16.25706 145.50937) rotate(-90)" fill="#f2f2f2" stroke="#4d4d4d" stroke-miterlimit="10" stroke-width="0.3"/><rect x="77.2236" y="66.61871" width="4.6493" height="4.6493" transform="translate(10.60489 148.49161) rotate(-90)" fill="#333"/><rect x="77.2236" y="57.9843" width="4.6493" height="4.6493" transform="translate(19.2393 139.8572) rotate(-90)" fill="#333"/><path d="M89.92871,77.75439V51.49756h54.15918a3.15373,3.15373,0,0,1,3.15039,3.15039V74.604a3.15373,3.15373,0,0,1-3.15039,3.15039Z"/><path d="M144.08777,51.64832a3,3,0,0,1,3,3V74.604a3,3,0,0,1-3,3H90.079V51.64832h54.00879m0-.3H89.779V77.90405h54.30878a3.30379,3.30379,0,0,0,3.3-3.3V54.64832a3.30379,3.30379,0,0,0-3.3-3.3Z" fill="#b3b3b3"/><path d="M107.19824,37.84245h22.81648a0,0,0,0,1,0,0V89.40986a2,2,0,0,1-2,2H109.19824a2,2,0,0,1-2-2V37.84245A0,0,0,0,1,107.19824,37.84245Z" transform="translate(53.98032 183.23263) rotate(-90)" fill="#333"/><path d="M92.57031,73.97314V55.27881h49.47852a1.15238,1.15238,0,0,1,1.15039,1.15039V72.82275a1.15238,1.15238,0,0,1-1.15039,1.15039Z" fill="#4d4d4d"/><path d="M142.04846,55.4292a1,1,0,0,1,1,1V72.82312a1,1,0,0,1-1,1H92.72113V55.4292h49.32733m0-.3H92.42114v18.994h49.62732a1.30154,1.30154,0,0,0,1.3-1.3V56.4292a1.30154,1.30154,0,0,0-1.3-1.3Z" fill="gray"/><path d="M107.06434,57.80461v3.83891h3.83891V60.30023h4.12168l2.66934,3.55849h-13.1682v-2.181l-4.77357,2.7565,4.77357,2.75646V65.0104h16.3323l-2.66859,3.55774h-3.8196a2.30329,2.30329,0,1,0,.00023,1.15167h4.39521l3.53206-4.70941h2.03746a2.68714,2.68714,0,1,0-.00019-1.15168h-5.20137l-3.53281-4.71016h-4.69752v-1.344Z" fill="#b3b3b3"/><circle cx="138.92321" cy="69.66707" r="2.87421" fill="#333"/><circle cx="138.92321" cy="69.66707" r="2.29937" fill="#fff"/></svg>